<?xml version="1.0" encoding="UTF-8" standalone="no"?>
<!-- Created with Inkscape (http://www.inkscape.org/) -->

<svg
   width="134.77742mm"
   height="40.57272mm"
   viewBox="0 0 134.77742 40.57272"
   version="1.1"
   id="svg1"
   xml:space="preserve"
   inkscape:version="1.3 (0e150ed, 2023-07-21)"
   sodipodi:docname="Aero_Spacelines_Super_Guppy-front.svg"
   xmlns:inkscape="http://www.inkscape.org/namespaces/inkscape"
   xmlns:sodipodi="http://sodipodi.sourceforge.net/DTD/sodipodi-0.dtd"
   xmlns="http://www.w3.org/2000/svg"
   xmlns:svg="http://www.w3.org/2000/svg"><sodipodi:namedview
     id="namedview1"
     pagecolor="#505050"
     bordercolor="#ffffff"
     borderopacity="1"
     inkscape:showpageshadow="0"
     inkscape:pageopacity="0"
     inkscape:pagecheckerboard="1"
     inkscape:deskcolor="#505050"
     inkscape:document-units="mm"
     showguides="true"
     inkscape:zoom="0.65008588"
     inkscape:cx="316.11208"
     inkscape:cy="173.82319"
     inkscape:current-layer="layer1" /><defs
     id="defs1"><inkscape:path-effect
       effect="mirror_symmetry"
       start_point="105,0"
       end_point="105,297"
       center_point="105,148.5"
       id="path-effect5"
       is_visible="true"
       lpeversion="1.2"
       lpesatellites=""
       mode="vertical"
       discard_orig_path="false"
       fuse_paths="false"
       oposite_fuse="true"
       split_items="false"
       split_open="false"
       link_styles="false" /><inkscape:path-effect
       effect="mirror_symmetry"
       start_point="105,0"
       end_point="105,297"
       center_point="105,148.5"
       id="path-effect1"
       is_visible="true"
       lpeversion="1.2"
       lpesatellites=""
       mode="vertical"
       discard_orig_path="false"
       fuse_paths="false"
       oposite_fuse="true"
       split_items="false"
       split_open="false"
       link_styles="false" /></defs><g
     inkscape:label="Layer 1"
     inkscape:groupmode="layer"
     id="layer1"
     transform="translate(-37.61134,-80.66381)"><path
       id="path1"
       style="fill:#555555;stroke-width:4.99999;stroke-linecap:round;stroke-linejoin:round"
       d="m 104.99979,80.66381 c -0.44723,6.98e-4 -0.44858,0.857118 -0.50436,1.929598 -0.0558,1.072918 -0.34727,8.924003 -0.34727,8.924003 -4.88009,0.294279 -11.904041,4.812696 -9.868643,14.264759 -1.962388,0 -13.294664,-0.0316 -14.162443,-0.0336 -0.86778,-0.002 -0.955179,0.67134 0.35295,0.69764 0.651736,0.0131 3.698805,0.0565 7.073986,0.10645 -0.205344,0.46284 -0.445673,1.34019 -0.693497,2.72903 -1.200364,-0.15399 -2.464449,0.96216 -2.464449,3.19671 -2.149868,-0.0574 -10.203512,-0.65371 -10.203512,-0.65371 0,-3.8014 -2.62974,-4.70623 -3.860746,-2.70371 -1.387456,-1.3006 -2.427207,-1.93558 -2.616895,-1.7415 -0.179341,0.18345 0.404408,1.10784 2.160592,2.89647 -0.08804,0.37122 -0.152647,0.77624 -0.166398,1.2423 -2.464998,-0.14239 -29.965636,-1.73065 -31.386715,-1.73065 -1.421088,0 -0.466192,0.67059 0.950846,0.84491 1.417049,0.17432 30.662728,3.07682 30.662728,3.07682 v 1.50068 c 0,2.07955 4.461227,2.19575 4.461227,0.0615 v -0.66456 c 2.372124,2.19737 3.665797,2.38538 1.30483,-0.24495 l 8.8222,0.6935 v 1.68517 c 0,0 -0.896782,1.61082 -0.877982,2.04483 0.0192,0.44232 0.532792,-0.22053 1.298112,-1.5105 0.222459,0.0911 0.49876,0.15776 0.79375,0.20826 v 0.59324 c -0.0162,-0.002 -0.03208,-0.003 -0.04858,-0.003 h -0.02997 c -0.336919,0 -0.608231,0.27132 -0.608231,0.60823 v 1.94614 c 0,0.33691 0.271312,0.60823 0.608231,0.60823 h 0.02997 c 0.336919,0 0.608231,-0.27132 0.608231,-0.60823 v -1.21491 c 0.016,0.002 0.03218,0.003 0.04858,0.003 h 0.83044 v 1.21233 c 0,0.33691 0.270796,0.60823 0.607715,0.60823 h 0.02997 c 0.336909,0 0.608231,-0.27132 0.608231,-0.60823 v -1.94614 c 0,-0.33692 -0.271322,-0.60823 -0.608231,-0.60823 h -0.01189 v -0.54364 c 0.30849,-0.0385 0.589688,-0.0975 0.814937,-0.17828 0.54544,2.1732 1.078869,1.94057 0.964799,1.39526 -0.261909,-1.25201 -0.572058,-2.14353 -0.572058,-2.14353 v -1.17719 l 4.491716,0.27802 c 0.24116,0.52496 1.537965,0.51049 1.966805,0.18241 h 5.547464 c 1.10822,1.66796 2.34662,2.21537 2.34662,2.21537 0,0 -0.39255,0.6148 -0.52761,0.97824 -0.13507,0.3634 0.33758,0.49999 0.52193,0.0873 0.18435,-0.41265 0.5209,-0.8971 0.5209,-0.8971 h 0.65267 v 0.56689 c -0.0606,-0.0284 -0.12839,-0.0444 -0.19999,-0.0444 h -0.0227 c -0.26027,0 -0.47026,0.20946 -0.47026,0.46973 v 1.50379 c 0,0.26028 0.20999,0.46974 0.47026,0.46974 h 0.0227 c 0.26028,0 0.46974,-0.20946 0.46974,-0.46974 v -1.19424 h 0.20929 z m 5.2e-4,0 v 38.90874 h 0.20929 v 1.19424 c 0,0.26028 0.20946,0.46974 0.46974,0.46974 h 0.0227 c 0.26026,0 0.47025,-0.20946 0.47025,-0.46974 V 119.263 c 0,-0.26027 -0.20999,-0.46973 -0.47025,-0.46973 h -0.0227 c -0.0716,0 -0.13936,0.016 -0.19999,0.0444 v -0.56689 h 0.65267 c 0,0 0.33655,0.48445 0.5209,0.8971 0.18435,0.41266 0.657,0.27607 0.52193,-0.0873 -0.13506,-0.36344 -0.52761,-0.97824 -0.52761,-0.97824 0,0 1.23841,-0.54741 2.34662,-2.21537 h 5.54747 c 0.42884,0.32808 1.72564,0.34255 1.9668,-0.18241 l 4.00906,-0.24805 c -1.699,2.65023 -1.01392,2.74115 0.48266,1.06815 v 0.0791 c 0,0 -0.31015,0.89152 -0.57206,2.14353 -0.11407,0.54531 0.41936,0.77794 0.9648,-1.39526 0.22525,0.0808 0.50645,0.13979 0.81494,0.17828 v 0.54364 h -0.0119 c -0.33691,0 -0.60823,0.27131 -0.60823,0.60823 v 1.94614 c 0,0.33691 0.27132,0.60823 0.60823,0.60823 h 0.03 c 0.33692,0 0.60772,-0.27132 0.60772,-0.60823 v -1.21233 h 0.83044 c 0.0164,0 0.0326,-10e-4 0.0486,-0.003 v 1.21491 c 0,0.33691 0.27131,0.60823 0.60823,0.60823 h 0.03 c 0.33692,0 0.60823,-0.27132 0.60823,-0.60823 v -1.94614 c 0,-0.33691 -0.27131,-0.60823 -0.60823,-0.60823 h -0.03 c -0.0165,0 -0.0324,10e-4 -0.0486,0.003 v -0.59324 c 0.29499,-0.0505 0.57129,-0.11716 0.79375,-0.20826 0.76532,1.28997 1.27891,1.95282 1.29811,1.5105 0.0188,-0.43401 -0.87798,-2.04483 -0.87798,-2.04483 v -1.68517 l 10.12703,-0.79582 v 1.01183 c 0,1.40207 1.91135,1.81444 3.23236,1.35547 0.84698,2.19079 1.2277,1.56838 0.86196,-0.51211 0.22483,-0.24195 0.36691,-0.54148 0.36691,-0.90486 v -1.50068 c 0,0 29.24568,-2.9025 30.66273,-3.07682 1.41703,-0.17432 2.37193,-0.84491 0.95084,-0.84491 -1.42108,0 -28.92172,1.58826 -31.38671,1.73065 -0.0772,-2.61612 -1.4556,-3.73187 -2.66392,-3.37137 -0.58813,-1.82971 -1.02266,-2.56713 -1.24127,-2.50734 -0.26539,0.0725 -0.21077,1.32114 0.27027,3.20859 -0.49817,0.61893 -0.84853,1.60226 -0.84853,2.97656 0,0 -8.05364,0.59631 -10.20351,0.65371 0,-0.64023 -0.11298,-1.17791 -0.28939,-1.63246 1.60379,-2.2529 2.07357,-3.34583 1.85673,-3.50418 -0.23386,-0.17084 -1.26613,0.74926 -2.52852,2.46445 -1.34254,-1.26346 -3.6189,-0.36453 -3.6189,3.14761 l -7.99383,0.34055 v -2.78123 c 0,0 0.94125,-1.14814 2.29133,-3.85351 0,0 12.89048,-0.18712 14.19862,-0.21342 1.30813,-0.0263 1.22073,-0.69964 0.35295,-0.69764 -0.86778,0.002 -12.20006,0.0336 -14.16244,0.0336 2.03539,-9.452063 -4.98856,-13.97048 -9.86865,-14.264759 0,0 -0.29147,-7.851085 -0.34727,-8.924003 -0.0558,-1.072479 -0.0571,-1.928898 -0.50436,-1.929598 z m -16.919381,25.89661 c 3.105511,0.0458 6.587711,0.0992 6.587711,0.0992 1.350079,2.70537 2.291333,3.85351 2.291333,3.85351 v 2.78123 l -7.993827,-0.34055 c 0,-1.53388 -0.436708,-2.56772 -1.038696,-3.14451 0.228838,-1.51713 0.256511,-2.67145 0.153479,-3.2489 z" /></g></svg>
