<?xml version="1.0" encoding="UTF-8" standalone="no"?>
<!-- Created with Inkscape (http://www.inkscape.org/) -->

<svg
   width="120.70597mm"
   height="39.663513mm"
   viewBox="0 0 120.70597 39.663513"
   version="1.1"
   id="svg1"
   xml:space="preserve"
   inkscape:version="1.3 (0e150ed, 2023-07-21)"
   sodipodi:docname="Aero_Spacelines_Super_Guppy-side.svg"
   xmlns:inkscape="http://www.inkscape.org/namespaces/inkscape"
   xmlns:sodipodi="http://sodipodi.sourceforge.net/DTD/sodipodi-0.dtd"
   xmlns="http://www.w3.org/2000/svg"
   xmlns:svg="http://www.w3.org/2000/svg"><sodipodi:namedview
     id="namedview1"
     pagecolor="#505050"
     bordercolor="#ffffff"
     borderopacity="1"
     inkscape:showpageshadow="0"
     inkscape:pageopacity="0"
     inkscape:pagecheckerboard="1"
     inkscape:deskcolor="#505050"
     inkscape:document-units="mm"
     showguides="true"
     inkscape:zoom="0.45968013"
     inkscape:cx="129.43783"
     inkscape:cy="143.5781"
     inkscape:current-layer="layer1" /><defs
     id="defs1" /><g
     inkscape:label="Layer 1"
     inkscape:groupmode="layer"
     id="layer1"
     transform="translate(-45.754786,-139.12971)"><path
       id="path1"
       style="fill:#ffffff;fill-opacity:1;stroke:none;stroke-width:4.99999;stroke-linecap:round;stroke-linejoin:round"
       d="m 159.66674,139.13621 c -0.93056,-0.0285 -1.89748,0.0355 -2.5368,0.21291 -3.06945,13.81508 -6.09921,15.09142 -7.73027,15.37477 -1.63107,0.28336 -10.43386,1.78198 -14.36657,2.5864 -18.73463,-5.74164 -30.42592,-8.24342 -37.839549,-8.24342 H 66.111727 L 65.442,148.00079 h 0.655257 v -0.28216 h -1.366324 v 0.30283 l 0.60358,1.04541 h -0.392741 c -4.090601,0 -7.09928,3.22186 -10.333736,6.66781 -3.234453,3.44595 -6.085092,7.38459 -7.768518,9.45627 -1.683426,2.07168 -1.097375,3.90367 -0.313159,5.05086 0,0 -0.141693,0.67833 -0.173633,1.68 -0.03194,1.00166 -0.03094,1.8265 0.575159,2.20038 0.606099,0.37392 3.365119,0.39171 4.361491,0.39171 0.514471,0.21108 0.969701,0.38204 1.474845,0.53846 -0.170022,0.62043 -0.441002,1.22954 -0.284737,1.30793 0.164601,0.0826 0.175817,-0.43155 0.734839,-0.99012 v 1.01131 a 1.2467381,1.2467381 0 0 0 -0.812354,1.16479 1.2467381,1.2467381 0 0 0 1.246953,1.24695 1.2467381,1.2467381 0 0 0 1.246435,-1.24695 1.2467381,1.2467381 0 0 0 -0.313676,-0.82631 l 3.749642,0.43667 0.148312,-1.40302 h 3.753776 v 1.1436 c 0,0.16691 0.134366,0.30128 0.301273,0.30128 h 0.410828 c 0.166907,0 0.301273,-0.13437 0.301273,-0.30128 v -1.1436 h 21.636406 v 0.66818 h 3.302124 a 2.0959218,2.0959218 0 0 0 -0.01964,0.27543 2.0959218,2.0959218 0 0 0 2.095996,2.096 2.0959218,2.0959218 0 0 0 2.095996,-2.096 2.0959218,2.0959218 0 0 0 -0.225309,-0.94361 h 28.118702 c 4.27957,0 9.81448,-1.08946 14.55673,-2.3182 4.74226,-1.22875 27.67921,-7.34496 29.21527,-7.81968 1.53605,-0.47472 2.65977,-0.41417 2.40037,-1.66191 -0.2594,-1.24774 -3.97477,-22.0673 -4.43952,-24.47551 -0.49274,-0.19281 -1.38661,-0.31363 -2.31717,-0.3421 z M 54.244751,175.42857 c 0.09683,0.0216 0.152494,0.0432 0.255798,0.0651 l -0.167431,1.01079 a 1.2467381,1.2467381 0 0 0 -0.08837,-0.0527 z" /></g></svg>
