<?xml version="1.0" encoding="UTF-8" standalone="no"?>
<!-- Created with Inkscape (http://www.inkscape.org/) -->

<svg
   width="120.75633mm"
   height="137.84303mm"
   viewBox="0 0 120.75633 137.84303"
   version="1.1"
   id="svg1"
   xml:space="preserve"
   inkscape:version="1.3 (0e150ed, 2023-07-21)"
   sodipodi:docname="Aero_Spacelines_Super_Guppy-top.svg"
   xmlns:inkscape="http://www.inkscape.org/namespaces/inkscape"
   xmlns:sodipodi="http://sodipodi.sourceforge.net/DTD/sodipodi-0.dtd"
   xmlns="http://www.w3.org/2000/svg"
   xmlns:svg="http://www.w3.org/2000/svg"><sodipodi:namedview
     id="namedview1"
     pagecolor="#505050"
     bordercolor="#ffffff"
     borderopacity="1"
     inkscape:showpageshadow="0"
     inkscape:pageopacity="0"
     inkscape:pagecheckerboard="1"
     inkscape:deskcolor="#505050"
     inkscape:document-units="mm"
     showguides="true"
     inkscape:zoom="0.65008588"
     inkscape:cx="176.13058"
     inkscape:cy="256.88914"
     inkscape:current-layer="layer1" /><defs
     id="defs1"><inkscape:path-effect
       effect="mirror_symmetry"
       start_point="0,148.5"
       end_point="210,148.5"
       center_point="105,148.5"
       id="path-effect1"
       is_visible="true"
       lpeversion="1.2"
       lpesatellites=""
       mode="horizontal"
       discard_orig_path="false"
       fuse_paths="false"
       oposite_fuse="true"
       split_items="false"
       split_open="false"
       link_styles="false" /></defs><g
     inkscape:label="Layer 1"
     inkscape:groupmode="layer"
     id="layer1"
     transform="translate(-47.934901,-79.578484)"><path
       style="fill:#555555;stroke-width:4.99999;stroke-linecap:round;stroke-linejoin:round"
       d="m 47.934901,148.5 c 0,-3.37296 2.846236,-4.59822 5.637995,-4.59822 3.671279,-2.32648 10.272816,-6.86896 15.173658,-6.86896 h 15.771527 l 0.527362,-5.24959 c -5.790739,0 -12.013427,-0.90502 -12.013427,-2.07274 0,-1.16773 5.897999,-2.21956 12.384008,-2.21956 0.276069,-2.48113 1.170479,-10.84099 1.170479,-10.84099 -6.756206,0 -12.366312,-0.83916 -12.366312,-2.11089 0,-1.27173 5.334939,-2.32945 12.875236,-2.32945 0.01651,-1.21814 3.364182,-29.402974 3.531319,-31.141374 0.167138,-1.738399 6.593224,-2.543555 6.743073,0.93018 0.149847,3.473736 1.468856,30.876464 1.468856,30.876464 l 2.465875,1.72289 -1.847618,1.6486 0.710128,12.15483 1.82384,1.35874 -1.67754,1.52044 0.23842,6.00077 c 12.18563,0 28.86861,1.66012 56.315,8.54411 0.24977,-1.74919 3.40728,-20.80948 3.58477,-21.92269 0.17749,-1.1132 0.80068,-0.9712 1.44394,-0.9712 h 3.07787 c 1.04029,0 0.86261,0.50382 0.90934,1.04881 0.0467,0.54499 1.39227,23.67949 1.39227,23.67949 1.48013,0.0699 1.41585,0.63432 1.41585,0.84034 z m 0,0 c 0,3.37296 2.846236,4.59822 5.637995,4.59822 3.671279,2.32648 10.272816,6.86896 15.173658,6.86896 h 15.771527 l 0.527362,5.24959 c -5.790739,0 -12.013427,0.90502 -12.013427,2.07274 0,1.16773 5.897999,2.21956 12.384008,2.21956 0.276069,2.48113 1.170479,10.84099 1.170479,10.84099 -6.756206,0 -12.366312,0.83916 -12.366312,2.11089 0,1.27173 5.334939,2.32945 12.875236,2.32945 0.01651,1.21814 3.364182,29.40297 3.531319,31.14137 0.167138,1.7384 6.593224,2.54356 6.743073,-0.93018 0.149847,-3.47373 1.468856,-30.87646 1.468856,-30.87646 l 2.465875,-1.72289 -1.847618,-1.6486 0.710128,-12.15483 1.82384,-1.35874 -1.67754,-1.52044 0.23842,-6.00077 c 12.18563,0 28.86861,-1.66012 56.315,-8.54411 0.24977,1.74919 3.40728,20.80948 3.58477,21.92269 0.17749,1.1132 0.80068,0.9712 1.44394,0.9712 h 3.07787 c 1.04029,0 0.86261,-0.50382 0.90934,-1.04881 0.0467,-0.54499 1.39227,-23.67949 1.39227,-23.67949 1.48013,-0.0699 1.41585,-0.63432 1.41585,-0.84034 z"
       id="path1" /></g></svg>
