<?xml version="1.0" encoding="UTF-8" standalone="no"?>
<!-- Created with Inkscape (http://www.inkscape.org/) -->

<svg
   xmlns:dc="http://purl.org/dc/elements/1.1/"
   xmlns:cc="http://creativecommons.org/ns#"
   xmlns:rdf="http://www.w3.org/1999/02/22-rdf-syntax-ns#"
   xmlns:svg="http://www.w3.org/2000/svg"
   xmlns="http://www.w3.org/2000/svg"
   xmlns:sodipodi="http://sodipodi.sourceforge.net/DTD/sodipodi-0.dtd"
   xmlns:inkscape="http://www.inkscape.org/namespaces/inkscape"
   width="201.82179mm"
   height="218.24982mm"
   viewBox="0 0 201.8218 218.24982"
   version="1.1"
   id="svg8"
   inkscape:version="0.92.4 (5da689c313, 2019-01-14)"
   sodipodi:docname="Airbus_A380_800-top.svg">
  <defs
     id="defs2">
    <inkscape:path-effect
       effect="mirror_symmetry"
       start_point="0,124.708"
       end_point="761.47464,124.708"
       center_point="380.73732,124.708"
       id="path-effect842"
       is_visible="true"
       mode="horizontal"
       discard_orig_path="false"
       fuse_paths="false"
       oposite_fuse="false" />
    <inkscape:path-effect
       effect="mirror_symmetry"
       start_point="380.73732,0"
       end_point="380.73732,249.41601"
       center_point="380.73732,124.708"
       id="path-effect903"
       is_visible="true"
       mode="vertical"
       discard_orig_path="false"
       fuse_paths="false"
       oposite_fuse="false" />
  </defs>
  <sodipodi:namedview
     id="base"
     pagecolor="#ffffff"
     bordercolor="#666666"
     borderopacity="1.0"
     inkscape:pageopacity="0.0"
     inkscape:pageshadow="2"
     inkscape:zoom="0.70710678"
     inkscape:cx="447.85425"
     inkscape:cy="407.78525"
     inkscape:document-units="mm"
     inkscape:current-layer="layer1"
     showgrid="false"
     borderlayer="true"
     inkscape:showpageshadow="false"
     inkscape:pagecheckerboard="true"
     showguides="true"
     inkscape:guide-bbox="true"
     inkscape:snap-smooth-nodes="true"
     inkscape:window-width="1600"
     inkscape:window-height="837"
     inkscape:window-x="-8"
     inkscape:window-y="-8"
     inkscape:window-maximized="1"
     inkscape:snap-global="true"
     inkscape:snap-object-midpoints="true"
     fit-margin-top="0"
     fit-margin-left="0"
     fit-margin-right="0"
     fit-margin-bottom="0"
     inkscape:snap-page="false" />
  <metadata
     id="metadata5">
    <rdf:RDF>
      <cc:Work
         rdf:about="">
        <dc:format>image/svg+xml</dc:format>
        <dc:type
           rdf:resource="http://purl.org/dc/dcmitype/StillImage" />
        <dc:title></dc:title>
      </cc:Work>
    </rdf:RDF>
  </metadata>
  <g
     inkscape:label="Layer 1"
     inkscape:groupmode="layer"
     id="layer1"
     transform="translate(-2.7207641,83.82546)">
    <path
       style="opacity:1;fill:#555555;fill-opacity:1;fill-rule:nonzero;stroke:none;stroke-width:1.88976383;stroke-linecap:round;stroke-linejoin:round;stroke-miterlimit:4;stroke-dasharray:none;stroke-dashoffset:0;stroke-opacity:1;paint-order:normal"
       d="m 548.25977,-287.73242 c 0,0 -18.68756,0.75743 -28.78907,1.76758 -10.10154,1.01015 -16.41469,3.535 -23.73828,12.8789 -2.82765,3.60769 -43.57093,56.75157 -89.61523,116.81055 -2.52904,-1.04944 -5.84375,-1.9043 -5.84375,-1.9043 v -2.90429 c -23.48606,-3.53553 -48.74115,-2.65233 -57.20117,-0.12696 -2.77792,0 -2.9043,0.63038 -2.9043,1.26172 v 28.66406 c 0,1.26269 1.01075,1.26172 2.27344,1.26172 12.59872,3.48715 29.4671,2.4697 42.33593,1.58008 -21.51427,28.06203 -39.50185,51.509812 -59.98437,78.214844 -2.10487,-0.734865 -4.16602,-1.28125 -4.16602,-1.28125 v -2.904296 c -23.48606,-3.535526 -48.74115,-2.652328 -57.20117,-0.126954 -2.77792,0 -2.9043,0.632332 -2.9043,1.263672 v 28.66211 c 0,1.262691 1.01075,1.263671 2.27344,1.263672 11.85981,3.282621 27.50082,2.56754 40.05469,1.730468 C 268.5608,23.069012 240.55187,59.54225 238.75,61.738281 233.03571,68.702566 218.87333,87.09375 194.23047,87.09375 h -88.51563 c -42.698052,0 -105.96679313,16.99782 -105.96679313,37.61426 0,20.61643 63.26874113,37.61426 105.96679313,37.61426 h 88.51563 c 24.64286,0 38.80524,18.39117 44.51953,25.35546 1.80187,2.19603 29.8108,38.66928 64.09961,83.35938 -12.55387,-0.83707 -28.19488,-1.55215 -40.05469,1.73047 -1.26269,0 -2.27344,9.8e-4 -2.27344,1.26367 v 28.66211 c 0,0.63134 0.12638,1.26367 2.9043,1.26367 8.46002,2.52538 33.71511,3.40858 57.20117,-0.12695 v -2.9043 c 0,0 2.06115,-0.54638 4.16602,-1.28125 20.48252,26.70504 38.4701,50.15282 59.98437,78.21485 -12.86883,-0.88962 -29.73721,-1.90708 -42.33593,1.58007 -1.26269,0 -2.27344,-9.7e-4 -2.27344,1.26172 v 28.66406 c 0,0.63134 0.12638,1.26172 2.9043,1.26172 8.46002,2.52537 33.71511,3.40858 57.20117,-0.12695 v -2.9043 c 0,0 3.31471,-0.85485 5.84375,-1.90429 46.0443,60.05898 86.78758,113.20285 89.61523,116.81054 7.32359,9.3439 13.63674,11.86876 23.73828,12.87891 10.10151,1.01015 28.78907,1.76758 28.78907,1.76758 0,0 -54.86719,-131.25475 -56.11719,-134.82617 -0.0245,-0.0699 -0.64919,-1.73035 -0.71289,-1.9043 12.11477,-0.131 23.875,-3.38809 23.875,-5.30859 0,-0.002 -0.002,-0.004 -0.002,-0.006 0,-0.003 0.002,-0.005 0.002,-0.008 0,-0.0553 -0.0149,-0.11182 -0.043,-0.16992 -0.85529,-1.99498 -14.89429,-5.41601 -20.03516,-5.41601 h -7.8789 c -2.95178,-7.88394 -6.62834,-17.68979 -12.25586,-32.66211 12.14575,-0.11609 23.96289,-3.38344 23.96289,-5.3086 0,-1.96008 -14.77481,-5.60156 -20.07813,-5.60156 h -7.98633 c -4.96846,-13.21436 -7.28481,-19.37164 -12.21679,-32.47852 12.23183,-0.0736 24.20898,-3.37627 24.20898,-5.31445 0,-1.96007 -14.77285,-5.59961 -20.07617,-5.59961 h -8.24219 c -5.39654,-14.33778 -9.94969,-26.43169 -12.37304,-32.86133 9.38288,-0.9376 17.12109,-3.37444 17.12109,-4.93164 0,-1.96008 -14.77481,-5.59961 -20.07813,-5.59961 h -1.00781 c -0.14997,-0.39682 -1.86784,-4.96542 -1.89844,-5.04492 -0.33331,-0.86663 -3.02482,-13.56845 -6.05664,-28.03906 9.20013,-0.96621 16.71875,-3.35187 16.71875,-4.88672 0,-1.83106 -12.88744,-5.1266 -18.9082,-5.55273 -4.55808,-21.89159 -9.25391,-44.73633 -9.25391,-44.73633 46.07146,-3.92857 63.92914,-6.60686 79.46485,-8.39258 h 35.17969 c 21.60714,0 73.74917,-4.82088 96.42773,-10.53516 19.64289,24.64285 93.57089,117.3206 98.03516,122.67774 4.4643,5.35714 8.39426,6.60797 14.28711,7.32226 5.89288,0.71428 20.17773,1.96289 20.17773,1.96289 L 707.14258,135.89258 c 0,0 24.33478,-4.38327 42.32812,-8.61328 v -0.88477 c 0,0 13.06836,-0.34242 13.06836,-1.68652 0,-1.34411 -13.06836,-1.68653 -13.06836,-1.68653 v -0.88476 c -17.99334,-4.23001 -42.32812,-8.61328 -42.32812,-8.61328 L 762.5,-34.511719 c 0,0 -14.28485,1.248606 -20.17773,1.962891 -5.89285,0.714285 -9.82281,1.965122 -14.28711,7.322266 C 723.57089,-19.869421 649.64289,72.808316 630,97.451172 607.32144,91.736885 555.17941,86.916016 533.57227,86.916016 h -35.17969 c -15.53571,-1.785714 -33.39339,-4.464011 -79.46485,-8.392578 0,0 4.69583,-22.84474 9.25391,-44.736329 6.02076,-0.426131 18.9082,-3.721674 18.9082,-5.552734 0,-1.534845 -7.51862,-3.920511 -16.71875,-4.886719 3.03182,-14.4706072 5.72333,-27.1724246 6.05664,-28.0390622 0.0306,-0.079515 1.74847,-4.6481049 1.89844,-5.0449219 h 1.00781 c 5.30332,0 20.07813,-3.6395309 20.07813,-5.5996099 0,-1.557206 -7.73821,-3.994041 -17.12109,-4.93164 2.42335,-6.429645 6.9765,-18.523548 12.37304,-32.861328 h 8.24219 c 5.30332,0 20.07617,-3.639532 20.07617,-5.59961 0,-1.93818 -11.97715,-5.240802 -24.20898,-5.314453 4.93198,-13.106881 7.24833,-19.264159 12.21679,-32.478515 h 7.98633 c 5.30332,0 20.07813,-3.641486 20.07813,-5.601566 0,-1.92516 -11.81714,-5.1925 -23.96289,-5.30859 5.62752,-14.97232 9.30408,-24.77817 12.25586,-32.66211 h 7.8789 c 5.14087,0 19.17987,-3.42104 20.03516,-5.41602 0.0281,-0.0581 0.043,-0.11467 0.043,-0.16992 0,-0.003 -0.002,-0.005 -0.002,-0.008 3e-5,-0.002 0.002,-0.004 0.002,-0.006 0,-1.92052 -11.76023,-5.17759 -23.875,-5.30859 0.0637,-0.17395 0.68844,-1.83444 0.71289,-1.9043 1.25,-3.57142 56.11719,-134.82617 56.11719,-134.82617 z"
       transform="matrix(0.26458333,0,0,0.26458333,2.7874267,-7.6961711)"
       id="path823"
       inkscape:connector-curvature="0"
       sodipodi:nodetypes="cssccccssccccccssccssscsssccssccccccssccccsscccssscsccssccssccsscccscccsccccccccccccsccscccscccssccssccssccscscsccc" />
  </g>
</svg>
