<?xml version="1.0" encoding="UTF-8" standalone="no"?>
<!-- Created with Inkscape (http://www.inkscape.org/) -->

<svg
   xmlns:dc="http://purl.org/dc/elements/1.1/"
   xmlns:cc="http://creativecommons.org/ns#"
   xmlns:rdf="http://www.w3.org/1999/02/22-rdf-syntax-ns#"
   xmlns:svg="http://www.w3.org/2000/svg"
   xmlns="http://www.w3.org/2000/svg"
   xmlns:sodipodi="http://sodipodi.sourceforge.net/DTD/sodipodi-0.dtd"
   xmlns:inkscape="http://www.inkscape.org/namespaces/inkscape"
   width="111.43459mm"
   height="30.496845mm"
   viewBox="0 0 111.43458 30.496845"
   version="1.1"
   id="svg8"
   inkscape:version="0.92.4 (5da689c313, 2019-01-14)"
   sodipodi:docname="Airbus_A330_300-front.svg">
  <defs
     id="defs2">
    <inkscape:path-effect
       effect="mirror_symmetry"
       start_point="519.14288,0"
       end_point="519.14288,734.58714"
       center_point="519.14288,367.29357"
       id="path-effect886"
       is_visible="true"
       mode="vertical"
       discard_orig_path="false"
       fuse_paths="false"
       oposite_fuse="false" />
    <inkscape:path-effect
       effect="mirror_symmetry"
       start_point="519.14288,0"
       end_point="519.14288,734.58714"
       center_point="519.14288,367.29357"
       id="path-effect844"
       is_visible="true"
       mode="vertical"
       discard_orig_path="false"
       fuse_paths="false"
       oposite_fuse="false" />
  </defs>
  <sodipodi:namedview
     id="base"
     pagecolor="#ffffff"
     bordercolor="#666666"
     borderopacity="1.0"
     inkscape:pageopacity="0.0"
     inkscape:pageshadow="2"
     inkscape:zoom="0.98994949"
     inkscape:cx="193.44891"
     inkscape:cy="-16.123619"
     inkscape:document-units="mm"
     inkscape:current-layer="layer1"
     showgrid="false"
     inkscape:pagecheckerboard="true"
     inkscape:showpageshadow="false"
     borderlayer="true"
     fit-margin-top="0"
     fit-margin-left="0"
     fit-margin-right="0"
     fit-margin-bottom="0"
     inkscape:snap-global="false"
     inkscape:window-width="1600"
     inkscape:window-height="837"
     inkscape:window-x="-8"
     inkscape:window-y="-8"
     inkscape:window-maximized="1"
     showguides="true"
     inkscape:guide-bbox="true"
     inkscape:snap-object-midpoints="true" />
  <metadata
     id="metadata5">
    <rdf:RDF>
      <cc:Work
         rdf:about="">
        <dc:format>image/svg+xml</dc:format>
        <dc:type
           rdf:resource="http://purl.org/dc/dcmitype/StillImage" />
        <dc:title></dc:title>
      </cc:Work>
    </rdf:RDF>
  </metadata>
  <g
     inkscape:label="Layer 1"
     inkscape:groupmode="layer"
     id="layer1"
     transform="translate(-54.273708,-116.83554)">
    <path
       style="opacity:1;fill:#ffffff;fill-opacity:1;fill-rule:nonzero;stroke:none;stroke:none;stroke-width:15.36378002;stroke-linecap:round;stroke-linejoin:round;stroke-miterlimit:4;stroke-dasharray:none;stroke-dashoffset:0;stroke-opacity:1;paint-order:markers stroke fill"
       d="m 518.13281,286.33203 c -1.26271,0 -4.11599,42.17388 -4.62109,59.85156 -4.41895,0.38423 -7.19777,2.14571 -9.0918,4.16602 -5.80842,-0.5051 -27.5839,-2.83537 -52.78125,-4.67188 -2.16102,-0.1576 -0.83176,2.07541 -0.25195,2.22852 1.67309,0.44183 25.60447,3.42287 49.37109,7.49414 -1.7678,3.1567 -2.90429,6.56674 -2.90429,12.75391 0,0 -77.52985,-8.8393 -179.30274,-14.14258 -4.29312,-5.05077 -8.585,-9.59609 -9.84766,-8.58594 -1.26267,1.01016 6.06093,11.86935 7.57618,12.62695 1.2804,0.64021 58.84897,1.11753 135.93359,13.89454 v 1.74609 c -5.66518,0.95815 -9.81431,5.86179 -9.82031,11.60742 -7.7e-4,6.5094 5.27575,11.7868 11.78515,11.78711 6.5094,-3.1e-4 11.78593,-5.27771 11.78516,-11.78711 -0.007,-5.58424 -3.93171,-10.39714 -9.40039,-11.52734 v -1.09766 c 7.62137,1.29722 15.41287,2.70815 23.36133,4.25781 v 18.6211 h -1.14844 v -0.20899 c 0,-1.31081 -1.05441,-2.36523 -2.36523,-2.36523 -1.31082,0 -2.36524,1.05442 -2.36524,2.36523 v 3.88477 c 0,1.31081 1.05442,2.36523 2.36524,2.36523 1.31082,0 2.36523,-1.05442 2.36523,-2.36523 v -0.89844 h 5.13477 v 0.89844 c 0,1.31081 1.05442,2.36523 2.36523,2.36523 1.31078,0 2.36719,-1.05442 2.36719,-2.36523 v -3.88477 c 0,-1.31081 -1.05641,-2.36523 -2.36719,-2.36523 -1.31081,0 -2.36523,1.05442 -2.36523,2.36523 v 0.20899 h -0.95704 v -3.78711 l 5.42969,-8.08203 1.76758,-1.26367 1.13672,-3.19727 c 1.68283,0.34935 3.35699,0.68938 5.05078,1.05078 0,4.04058 2.27365,9.84961 8.08203,9.84961 h 12.24805 v 2.88867 c -0.11177,-0.0161 -0.22349,-0.0332 -0.33985,-0.0332 -1.31079,0 -2.36523,1.05442 -2.36523,2.36523 v 3.88477 c 0,1.31081 1.05444,2.36523 2.36523,2.36523 1.31078,0 2.36719,-1.05442 2.36719,-2.36523 v -3.88477 c 0,-0.10169 -0.0189,-0.19867 -0.0312,-0.29687 h 0.95703 c -0.0123,0.0982 -0.0312,0.19518 -0.0312,0.29687 v 3.88477 c 0,1.31081 1.05641,2.36523 2.36719,2.36523 1.31082,0 2.36524,-1.05442 2.36524,-2.36523 v -3.88477 c 0,-1.31081 -1.05442,-2.36523 -2.36524,-2.36523 -0.11636,0 -0.22807,0.0171 -0.33984,0.0332 V 390.125 h 12.24804 c 5.80838,0 8.08204,-5.80903 8.08204,-9.84961 1.69379,-0.3614 3.36795,-0.70143 5.05078,-1.05078 l 1.13672,3.19727 1.76757,1.26367 5.42969,8.08203 v 3.78711 H 554.375 v -0.20899 c 0,-1.31081 -1.05442,-2.36523 -2.36523,-2.36523 -1.31078,0 -2.36719,1.05442 -2.36719,2.36523 v 3.88477 c 0,1.31081 1.05641,2.36523 2.36719,2.36523 1.31081,0 2.36523,-1.05442 2.36523,-2.36523 v -0.89844 h 5.13477 v 0.89844 c 0,1.31081 1.05441,2.36523 2.36523,2.36523 1.31082,0 2.36523,-1.05442 2.36523,-2.36523 v -3.88477 c 0,-1.31081 -1.05441,-2.36523 -2.36523,-2.36523 -1.31082,0 -2.36523,1.05442 -2.36523,2.36523 v 0.20899 h -1.14844 v -18.6211 c 7.94846,-1.54966 15.73996,-2.96059 23.36133,-4.25781 v 1.09766 c -5.46868,1.1302 -9.39353,5.9431 -9.40039,11.52734 -7.7e-4,6.5094 5.27575,11.7868 11.78515,11.78711 6.5094,-3.1e-4 11.78593,-5.27771 11.78516,-11.78711 -0.006,-5.74563 -4.15513,-10.64927 -9.82031,-11.60742 v -1.74609 c 77.08461,-12.77701 134.65318,-13.25433 135.93359,-13.89454 1.51525,-0.7576 8.83887,-11.61679 7.57617,-12.62695 -1.26266,-1.01015 -5.55456,3.53517 -9.84765,8.58594 -101.77289,5.30328 -179.30274,14.14258 -179.30274,14.14258 0,-6.18717 -1.1365,-9.59721 -2.9043,-12.75391 23.76662,-4.07127 47.69801,-7.05231 49.3711,-7.49414 0.57981,-0.15311 1.90906,-2.38612 -0.25196,-2.22852 -25.19735,1.83651 -46.97283,4.16678 -52.78125,4.67188 -1.89403,-2.02031 -4.67284,-3.78179 -9.09179,-4.16602 -0.5051,-17.67768 -3.35839,-59.85156 -4.6211,-59.85156 z M 485.625,378.0625 c 0.25701,0.0517 1.20561,0.2898 1.46289,0.3418 l -1.16601,2.75586 0.63085,1.70312 -2.58789,3.79102 -1.51562,-1.70703 v -3.91407 z m 67.03516,0 3.17578,2.9707 v 3.91407 l -1.51367,1.70703 -2.58789,-3.79102 0.6289,-1.70312 -1.16601,-2.75586 c 0.25728,-0.052 1.20588,-0.29008 1.46289,-0.3418 z"
       transform="matrix(0.26458333,0,0,0.26458333,-27.365471,41.076862)"
       id="path853"
       inkscape:connector-curvature="0" />
  </g>
</svg>
