<?xml version="1.0" encoding="UTF-8" standalone="no"?>
<!-- Created with Inkscape (http://www.inkscape.org/) -->

<svg
   xmlns:dc="http://purl.org/dc/elements/1.1/"
   xmlns:cc="http://creativecommons.org/ns#"
   xmlns:rdf="http://www.w3.org/1999/02/22-rdf-syntax-ns#"
   xmlns:svg="http://www.w3.org/2000/svg"
   xmlns="http://www.w3.org/2000/svg"
   xmlns:sodipodi="http://sodipodi.sourceforge.net/DTD/sodipodi-0.dtd"
   xmlns:inkscape="http://www.inkscape.org/namespaces/inkscape"
   width="201.4735mm"
   height="65.991318mm"
   viewBox="0 0 201.4735 65.991318"
   version="1.1"
   id="svg8"
   inkscape:version="0.92.4 (5da689c313, 2019-01-14)"
   sodipodi:docname="Airbus_A380_800-side.svg">
  <defs
     id="defs2" />
  <sodipodi:namedview
     id="base"
     pagecolor="#ffffff"
     bordercolor="#666666"
     borderopacity="1.0"
     inkscape:pageopacity="0.0"
     inkscape:pageshadow="2"
     inkscape:zoom="0.98994949"
     inkscape:cx="402.68645"
     inkscape:cy="41.17578"
     inkscape:document-units="mm"
     inkscape:current-layer="layer1"
     showgrid="false"
     borderlayer="true"
     inkscape:showpageshadow="false"
     inkscape:pagecheckerboard="true"
     showguides="true"
     inkscape:guide-bbox="true"
     inkscape:snap-smooth-nodes="true"
     inkscape:window-width="1600"
     inkscape:window-height="837"
     inkscape:window-x="-8"
     inkscape:window-y="-8"
     inkscape:window-maximized="1"
     inkscape:snap-global="false"
     inkscape:snap-object-midpoints="true"
     fit-margin-top="0"
     fit-margin-left="0"
     fit-margin-right="0"
     fit-margin-bottom="0" />
  <metadata
     id="metadata5">
    <rdf:RDF>
      <cc:Work
         rdf:about="">
        <dc:format>image/svg+xml</dc:format>
        <dc:type
           rdf:resource="http://purl.org/dc/dcmitype/StillImage" />
        <dc:title></dc:title>
      </cc:Work>
    </rdf:RDF>
  </metadata>
  <g
     inkscape:label="Layer 1"
     inkscape:groupmode="layer"
     id="layer1"
     transform="translate(-2.7874267,7.6961711)">
    <path
       style="opacity:1;fill:#555555;fill-opacity:1;fill-rule:nonzero;stroke:none;stroke-width:5.6692915;stroke-linecap:round;stroke-linejoin:round;stroke-miterlimit:4;stroke-dasharray:none;stroke-dashoffset:0;stroke-opacity:1;paint-order:normal"
       d="m 747.85742,-29.087891 c -4.99997,0 -12.67942,1.249721 -14.82226,3.392579 -2.14284,2.142855 -109.28544,110.7154 -114.64258,116.429687 -5.35714,5.714283 -17.49944,20.535155 -35.53516,20.535155 H 569.3418 l 2.37304,-3.92773 H 569.125 l -4.92773,3.92773 H 355.44336 l 2.37109,-3.92773 h -2.58789 l -4.92968,3.92773 h -164.8125 l 2.37304,-3.92773 h -2.58984 l -4.92774,3.92773 h -29.625 c -95.357139,0 -120.893411,39.28684 -123.21484,41.42969 -2.321429,2.14286 -16.964844,10.46779 -16.964844,20.71289 0,8.68507 14.738599,15.97873 39.761719,20.36719 -0.07271,1.82914 -0.207031,5.10505 -0.207031,5.79492 0,0.89286 0.08817,1.87447 1.695312,1.78516 0.883444,-0.0491 5.237065,0.22814 9.328125,0.50976 v 1.91602 h -1.671875 c -0.157395,0 -0.285156,0.12776 -0.285156,0.28515 v 0.75781 c 0,0.1574 0.127761,0.28321 0.285156,0.28321 H 62.125 v 3.31445 c 0,0.1574 0.125808,0.28516 0.283203,0.28516 h 0.410156 v 2.36133 a 4.9244936,4.9244936 0 0 0 -2.58789,4.33007 4.9244936,4.9244936 0 0 0 4.923828,4.92578 4.9244936,4.9244936 0 0 0 4.925781,-4.92578 4.9244936,4.9244936 0 0 0 -2.382812,-4.21093 l 1.814453,-4.94336 -3.914063,-2.18164 v -1.87891 c 0.533976,0.0391 2.169922,0.1543 2.169922,0.1543 l 0.238281,-6.13086 c 12.527804,1.30555 26.74967,2.02344 42.351561,2.02344 h 106.60742 c 10.98215,0.89283 54.28516,1.07031 54.28516,1.07031 0,0 0.089,1.875 0.26758,4.375 0.17857,2.5 -0.0899,4.19726 3.03515,4.19726 6.54313,1.20305 31.83165,3.7649 55.89454,-2.32226 v -3.92774 c 2.20021,-0.58955 6.16015,-2.23242 6.16015,-2.23242 h 14.73242 c 0,1.07143 0.17774,1.875 3.30274,1.875 4.21689,0.54504 9.32025,1.03491 14.97851,1.29492 l -2.00781,3.99219 a 7.0227079,7.0227079 0 0 0 -1.92187,-0.27539 7.0227079,7.0227079 0 0 0 -7.02344,7.02344 7.0227079,7.0227079 0 0 0 7.02344,7.02343 7.0227079,7.0227079 0 0 0 6.54492,-4.5039 h 4.9375 a 7.0227079,7.0227079 0 0 0 6.55273,4.5039 7.0227079,7.0227079 0 0 0 3.75782,-1.09179 7.0227079,7.0227079 0 0 0 3.74218,1.09179 7.0227079,7.0227079 0 0 0 6.54688,-4.5039 h 3.50586 a 7.0227079,7.0227079 0 0 0 6.55468,4.5039 7.0227079,7.0227079 0 0 0 6.54493,-4.5039 h 3.41992 a 7.0227079,7.0227079 0 0 0 6.55273,4.5039 7.0227079,7.0227079 0 0 0 7.02149,-7.02343 7.0227079,7.0227079 0 0 0 -7.02149,-7.02344 7.0227079,7.0227079 0 0 0 -6.62695,4.7207 h -1.80664 l 3.96094,-6.50586 a 1.2276822,1.2276822 0 0 0 0.74609,-1.1289 1.2276822,1.2276822 0 0 0 -1.22852,-1.22657 1.2276822,1.2276822 0 0 0 -0.31836,0.043 l -6.06445,-2.8164 h 59.99024 c 6.9448,0 12.12152,-0.12608 23.73828,-1.76758 101.25652,-3.27707 163.53671,-25.69814 262.64062,-51.51953 v -15.27735 l 12.1211,-3.66211 c 0,1e-5 -25.50697,-0.63203 -37.25,-0.12695 0,0 -10.60641,-2.1463 -54.04297,-6.43945 l 39.39648,2.9043 52.40235,-152.566411 c 0,0 -16.10169,0.0054 -24.15235,0 z m -338.24414,228.537111 8.5586,3.98242 a 1.2276822,1.2276822 0 0 0 0.20703,0.61914 l -4.03516,6.63281 a 7.0227079,7.0227079 0 0 0 -4.53516,-4.11328 l -0.32617,-7.09375 c 0.0435,-0.01 0.0874,-0.0174 0.13086,-0.0273 z m -4.80859,0.98633 0.004,0.084 -7.61132,4.52344 a 1.2276822,1.2276822 0 0 0 -1.21485,1.22656 1.2276822,1.2276822 0 0 0 1.22656,1.22852 1.2276822,1.2276822 0 0 0 0.0156,0 l 4.4082,2.51757 a 7.0227079,7.0227079 0 0 0 -0.42578,0.98633 h -3.35547 a 7.0227079,7.0227079 0 0 0 -6.625,-4.7207 7.0227079,7.0227079 0 0 0 -3.75586,1.0918 7.0227079,7.0227079 0 0 0 -3.74414,-1.0918 7.0227079,7.0227079 0 0 0 -0.91797,0.0703 1.2276822,1.2276822 0 0 0 0.004,-0.082 1.2276822,1.2276822 0 0 0 -1.22852,-1.22656 1.2276822,1.2276822 0 0 0 -0.0879,0.002 l -2.23242,-2.29101 c 8.08527,-0.0615 16.83423,-0.70614 25.54102,-2.31836 z m 0.084,1.79492 0.21289,4.61328 a 7.0227079,7.0227079 0 0 0 -2.62304,1.92187 l -4.05469,-2.32617 a 1.2276822,1.2276822 0 0 0 0.0137,-0.16992 1.2276822,1.2276822 0 0 0 -0.0156,-0.19922 z m -33.60937,0.40039 c 0.30155,0.0112 0.59597,0.0254 0.90039,0.0352 v 5.73046 c 0,0.1574 0.12776,0.28321 0.28515,0.28321 h 0.25 v 2.32226 h -0.39843 a 7.0227079,7.0227079 0 0 0 -3.29493,-3.8789 z m 5.72265,0.12109 c 0.0479,2.6e-4 0.0966,-2.1e-4 0.14453,0 l 3.22852,3.30664 a 1.2276822,1.2276822 0 0 0 -0.0176,0.21094 1.2276822,1.2276822 0 0 0 0.25196,0.74414 7.0227079,7.0227079 0 0 0 -3.50977,3.98828 h -0.63477 v -2.32226 h 0.25196 c 0.15739,0 0.28515,-0.12581 0.28515,-0.28321 z m -311.404294,2.79688 1.533203,5.3457 a 4.9244936,4.9244936 0 0 0 -1.976562,-0.41601 4.9244936,4.9244936 0 0 0 -0.189453,0.006 v -1.77344 H 65.3125 c 0.157395,0 0.285156,-0.12776 0.285156,-0.28516 z"
       transform="scale(0.26458333)"
       id="path828"
       inkscape:connector-curvature="0" />
  </g>
</svg>
