<?xml version="1.0" encoding="UTF-8" standalone="no"?>
<!-- Created with Inkscape (http://www.inkscape.org/) -->

<svg
   xmlns:dc="http://purl.org/dc/elements/1.1/"
   xmlns:cc="http://creativecommons.org/ns#"
   xmlns:rdf="http://www.w3.org/1999/02/22-rdf-syntax-ns#"
   xmlns:svg="http://www.w3.org/2000/svg"
   xmlns="http://www.w3.org/2000/svg"
   xmlns:sodipodi="http://sodipodi.sourceforge.net/DTD/sodipodi-0.dtd"
   xmlns:inkscape="http://www.inkscape.org/namespaces/inkscape"
   width="118.25893mm"
   height="110.82728mm"
   viewBox="0 0 118.25892 110.82728"
   version="1.1"
   id="svg8"
   inkscape:version="0.92.4 (5da689c313, 2019-01-14)"
   sodipodi:docname="Airbus_A330_300-top.svg">
  <defs
     id="defs2">
    <inkscape:path-effect
       effect="mirror_symmetry"
       start_point="-27.365471,138.25662"
       end_point="247.34763,138.25662"
       center_point="109.99108,138.25662"
       id="path-effect826"
       is_visible="true"
       mode="horizontal"
       discard_orig_path="false"
       fuse_paths="false"
       oposite_fuse="false" />
  </defs>
  <sodipodi:namedview
     id="base"
     pagecolor="#ffffff"
     bordercolor="#666666"
     borderopacity="1.0"
     inkscape:pageopacity="0.0"
     inkscape:pageshadow="2"
     inkscape:zoom="0.35"
     inkscape:cx="11.050208"
     inkscape:cy="125.95653"
     inkscape:document-units="mm"
     inkscape:current-layer="layer1"
     showgrid="false"
     inkscape:pagecheckerboard="true"
     inkscape:showpageshadow="false"
     borderlayer="true"
     fit-margin-top="0"
     fit-margin-left="0"
     fit-margin-right="0"
     fit-margin-bottom="0"
     inkscape:snap-global="true"
     inkscape:window-width="1600"
     inkscape:window-height="837"
     inkscape:window-x="-8"
     inkscape:window-y="-8"
     inkscape:window-maximized="1"
     inkscape:snap-page="false"
     showguides="true"
     inkscape:guide-bbox="true"
     inkscape:snap-object-midpoints="true" />
  <metadata
     id="metadata5">
    <rdf:RDF>
      <cc:Work
         rdf:about="">
        <dc:format>image/svg+xml</dc:format>
        <dc:type
           rdf:resource="http://purl.org/dc/dcmitype/StillImage" />
        <dc:title></dc:title>
      </cc:Work>
    </rdf:RDF>
  </metadata>
  <g
     inkscape:label="Layer 1"
     inkscape:groupmode="layer"
     id="layer1"
     transform="translate(-57.584899,-82.842937)">
    <path
       style="opacity:1;fill:#ffffff;fill-opacity:1;fill-rule:nonzero;stroke:none;stroke:none;stroke-width:15.36378002;stroke-linecap:round;stroke-linejoin:round;stroke-miterlimit:4;stroke-dasharray:none;stroke-dashoffset:0;stroke-opacity:1;paint-order:markers stroke fill"
       d="m 612.57617,157.86523 c -0.52101,-0.057 -1.25017,0.14783 -2.21875,0.70704 C 606.4831,160.8091 590,169.28516 590,169.28516 L 512.14258,295 c 0,0 -8.9948,0.60427 -11.25,0 0,-1.7859 -1.78571,-1.96484 -3.75,-1.96484 h -20.71485 c -3.03571,0 -3.92773,1.25025 -3.92773,2.85742 v 13.03515 c 0,1.60714 0.8937,2.14454 3.57227,2.14454 h 18.75 c 1.60713,0 6.07031,0.35567 6.07031,-2.21875 h 3.42578 l -26.26367,38.13476 h -78.79102 c -20.45559,0 -39.71094,0.60102 -54.71094,5.51172 -15,4.9107 -23.48046,9.28514 -23.48046,14.79297 0,5.50783 8.48046,9.88422 23.48046,14.79492 15,4.9107 34.25535,5.51172 54.71094,5.51172 h 78.79102 l 26.26367,38.13281 h -3.42578 c 0,-2.57442 -4.46318,-2.2168 -6.07031,-2.2168 h -18.75 c -2.67857,0 -3.57227,0.53545 -3.57227,2.14258 v 13.03516 c 0,1.60717 0.89202,2.85742 3.92773,2.85742 h 20.71485 c 1.96429,0 3.75,-0.17699 3.75,-1.96289 2.2552,-0.60427 11.25,0 11.25,0 L 590,565.30078 c 0,0 16.4831,8.47801 20.35742,10.71484 3.87432,2.23684 3.91548,-1.2144 2.14258,-4.28515 -1.7729,-3.07075 -5.71484,-11.42969 -5.71484,-11.42969 l -47.5,-127.5 c 0,0 -2.5,-35.71398 -2.5,-39.64258 0,-3.92855 10.35714,-5.1914 20,-5.1914 h 72.5 c 14.95665,0 50.2247,-4.9155 63.92968,-8.37891 0,0 29.64316,46.78404 35.35743,50.35547 5.7143,3.57143 16.06975,4.64313 17.85546,2.85742 1.78572,-1.78571 -2.14257,-3.92773 -2.14257,-3.92773 l -18.21289,-55 c 0,0 21.96289,-2.26651 21.96289,-6.58008 0,-4.31358 -21.96289,-6.57813 -21.96289,-6.57813 l 18.21289,-55 c 0,0 3.92829,-2.14397 2.14257,-3.92968 -1.78571,-1.78572 -12.14116,-0.71401 -17.85546,2.85742 C 742.858,308.214 713.21484,355 713.21484,355 c -13.70498,-3.46341 -48.97303,-8.38086 -63.92968,-8.38086 h -72.5 c -9.64286,0 -20,-1.26285 -20,-5.19141 0,-3.92859 2.5,-39.64257 2.5,-39.64257 l 47.5,-127.5 c 0,0 3.94194,-8.35699 5.71484,-11.42774 1.32968,-2.30306 1.6392,-4.82109 0.0762,-4.99219 z"
       transform="matrix(0.26458333,0,0,0.26458333,-27.365471,41.076862)"
       id="path824"
       inkscape:connector-curvature="0" />
  </g>
</svg>
