<?xml version="1.0" encoding="UTF-8" standalone="no"?>
<!-- Created with Inkscape (http://www.inkscape.org/) -->

<svg
   xmlns:dc="http://purl.org/dc/elements/1.1/"
   xmlns:cc="http://creativecommons.org/ns#"
   xmlns:rdf="http://www.w3.org/1999/02/22-rdf-syntax-ns#"
   xmlns:svg="http://www.w3.org/2000/svg"
   xmlns="http://www.w3.org/2000/svg"
   xmlns:sodipodi="http://sodipodi.sourceforge.net/DTD/sodipodi-0.dtd"
   xmlns:inkscape="http://www.inkscape.org/namespaces/inkscape"
   width="218.35298mm"
   height="65.991333mm"
   viewBox="0 0 218.35299 65.991333"
   version="1.1"
   id="svg8"
   inkscape:version="0.92.4 (5da689c313, 2019-01-14)"
   sodipodi:docname="Airbus_A380_800-front.svg">
  <defs
     id="defs2">
    <inkscape:path-effect
       effect="mirror_symmetry"
       start_point="380.73732,0"
       end_point="380.73732,249.41601"
       center_point="380.73732,124.708"
       id="path-effect903"
       is_visible="true"
       mode="vertical"
       discard_orig_path="false"
       fuse_paths="false"
       oposite_fuse="false" />
  </defs>
  <sodipodi:namedview
     id="base"
     pagecolor="#ffffff"
     bordercolor="#666666"
     borderopacity="1.0"
     inkscape:pageopacity="0.0"
     inkscape:pageshadow="2"
     inkscape:zoom="0.98994949"
     inkscape:cx="462.80715"
     inkscape:cy="189.98155"
     inkscape:document-units="mm"
     inkscape:current-layer="layer1"
     showgrid="false"
     borderlayer="true"
     inkscape:showpageshadow="false"
     inkscape:pagecheckerboard="true"
     showguides="true"
     inkscape:guide-bbox="true"
     inkscape:snap-smooth-nodes="true"
     inkscape:window-width="1600"
     inkscape:window-height="837"
     inkscape:window-x="-8"
     inkscape:window-y="-8"
     inkscape:window-maximized="1"
     inkscape:snap-global="true"
     inkscape:snap-object-midpoints="true"
     fit-margin-top="0"
     fit-margin-left="0"
     fit-margin-right="0"
     fit-margin-bottom="0"
     inkscape:snap-page="true" />
  <metadata
     id="metadata5">
    <rdf:RDF>
      <cc:Work
         rdf:about="">
        <dc:format>image/svg+xml</dc:format>
        <dc:type
           rdf:resource="http://purl.org/dc/dcmitype/StillImage" />
        <dc:title></dc:title>
      </cc:Work>
    </rdf:RDF>
  </metadata>
  <g
     inkscape:label="Layer 1"
     inkscape:groupmode="layer"
     id="layer1"
     transform="translate(5.6523189,7.6961711)">
    <path
       style="opacity:1;fill:#555555;fill-opacity:1;fill-rule:nonzero;stroke:none;stroke-width:5.6692915;stroke-linecap:round;stroke-linejoin:round;stroke-miterlimit:4;stroke-dasharray:none;stroke-dashoffset:0;stroke-opacity:1;paint-order:normal"
       d="m 378.97461,1.9609375 c 0,1.8750002 -3.75781,138.9902325 -3.75781,138.9902325 -11.86931,1.89404 -24.1175,14.89907 -27.7793,27.27344 -14.89977,-1.01015 -118.82058,-9.88002 -121.05273,-10.05859 -2.23215,-0.17859 -1.78442,1.60658 0.17968,1.78515 1.9643,0.17858 119.10547,14.08203 119.10547,14.08203 -2.71479,11.74303 -2.05219,14.66854 -1.96289,17.88282 -1.33929,2.14286 -1.34039,5.98158 -1.42969,7.41015 C 236.17205,185.6119 130.6828,177.75072 -30.490234,177.63086 c 0,-4.10714 -0.5008,-9.53125 -1.00586,-9.53125 -0.5051,0 -0.314453,3.53439 -0.314453,10.41601 0,6.88168 -0.316117,8.27149 0.251953,8.27149 0.56821,0 1.009819,-3.66159 1.199219,-6.62891 36.3387992,0.45112 87.581525,2.52072 137.046875,5.54688 l -0.0449,4.08203 c -8.378803,1.72907 -14.389953,9.10677 -14.390627,17.66211 3.06e-4,9.96118 8.075927,18.03591 18.037107,18.03516 9.96042,-3.1e-4 18.03485,-8.07474 18.03516,-18.03516 -0.003,-8.71432 -6.23669,-16.17998 -14.81055,-17.73828 l 0.70703,-3.53516 c 12.398,0.78615 24.632,1.6263 36.42969,2.51953 l -0.65625,7.81446 c -0.0645,0.76677 0.5008,1.4355 1.26758,1.5 l 3.27148,0.27539 c 0.76678,0.0645 1.4355,-0.50081 1.5,-1.26758 l 0.66211,-7.84961 c 6.23414,0.48718 12.37873,0.98188 18.29688,1.49414 6.75404,0.58462 13.13399,1.16449 19.34375,1.75 l -0.65235,7.75977 c -0.0645,0.76674 0.50081,1.4355 1.26758,1.5 l 3.27149,0.27539 c 0.76677,0.0645 1.4355,-0.50081 1.5,-1.26758 l 0.64843,-7.69531 c 4.44736,0.43464 8.74424,0.87931 12.95899,1.33203 l -0.0547,5.02734 c -8.3788,1.72907 -14.38995,9.10677 -14.39062,17.66211 3e-4,9.96118 8.07593,18.03593 18.03711,18.03516 9.96039,-3.1e-4 18.03484,-8.07475 18.03515,-18.03516 -0.003,-8.71432 -6.2367,-16.17997 -14.81055,-17.73828 l 0.82227,-4.10352 c 5.63555,0.6463 11.08129,1.32734 16.4043,2.04492 l -0.63282,7.50782 c -0.0645,0.76677 0.50081,1.4355 1.26758,1.5 l 3.27149,0.27539 c 0.76677,0.0645 1.43745,-0.5008 1.50195,-1.26758 l 0.60547,-7.19531 c 16.53385,2.37661 31.94352,5.24102 47.77539,9.02539 l -2.00586,7.3457 c -0.20273,0.7423 0.23231,1.50235 0.97461,1.70508 l 3.16602,0.86523 c 0.74227,0.20273 1.50234,-0.23231 1.70507,-0.97461 l 2.04297,-7.47851 c 3.72544,0.93819 7.48605,1.93059 11.29688,2.97851 0.0706,0.88936 1.61819,20.36184 1.79297,21.71485 0.17858,1.38394 0.80501,1.33872 0.84961,0.22265 0.0121,-0.30249 -0.0354,-2.12865 -0.10547,-4.50781 h 0.11718 c 0.26232,0 0.47266,-0.21034 0.47266,-0.47266 v -0.60156 h 0.92969 v 8.33789 c 0,0.26232 0.21229,0.47266 0.47461,0.47266 h 0.2207 v 3.53711 h -1.33789 v -3.24024 c 0,-0.88103 -0.70881,-1.58984 -1.58984,-1.58984 h -2.28907 c -0.88103,0 -1.58984,0.70881 -1.58984,1.58984 v 10.86719 c 0,0.88103 0.70881,1.58985 1.58984,1.58985 h 2.28907 c 0.88103,0 1.58984,-0.70882 1.58984,-1.58985 v -2.13476 h 5.78125 v 2.13476 c 0,0.88103 0.70881,1.58985 1.58984,1.58985 h 2.28907 c 0.88103,0 1.58984,-0.70882 1.58984,-1.58985 v -10.86719 c 0,-0.88103 -0.70881,-1.58984 -1.58984,-1.58984 h -2.28907 c -0.53958,0 -1.01158,0.26717 -1.29883,0.67578 v -1.76367 h 0.94141 c 0.26232,0 0.47266,-0.21034 0.47266,-0.47266 v -0.40625 l 13.25195,-14.70703 c 3.56339,1.13824 7.18556,2.32159 10.9043,3.57227 0.62336,3.32465 3.98285,5.44968 8.10742,6.09961 v 7.82226 c 0,0.26232 0.21034,0.47266 0.47266,0.47266 h 0.22265 v 3.53711 h -1.33789 v -3.24024 c 0,-0.88103 -0.70881,-1.58984 -1.58984,-1.58984 h -2.28906 c -0.88104,0 -1.58985,0.70881 -1.58985,1.58984 v 10.86719 c 0,0.88103 0.70881,1.58985 1.58985,1.58985 h 2.28906 c 0.88103,0 1.58984,-0.70882 1.58984,-1.58985 v -2.13476 h 5.78125 v 2.13476 c 0,0.88103 0.70881,1.58985 1.58985,1.58985 h 2.28906 c 0.88103,0 1.58984,-0.70882 1.58984,-1.58985 v -10.86719 c 0,-0.88103 -0.70881,-1.58984 -1.58984,-1.58984 h -2.28906 c -0.53959,0 -1.01158,0.26717 -1.29883,0.67578 v -1.76367 h 0.9414 c 0.26232,0 0.47266,-0.21034 0.47266,-0.47266 v -0.40625 l 4.34375,-4.82031 h 11.32226 l 1.96876,3.51172 0.53515,-1.20508 h 2.74414 v 0.9375 c 0,0.37976 0.29651,0.6808 0.66992,0.70508 v 4.41602 h -2.08398 c -0.36725,0 -0.66406,0.29485 -0.66406,0.66211 0,0.36725 0.29681,0.66406 0.66406,0.66406 h 2.08398 v 1.86133 h -0.24218 c -0.0697,0 -0.13429,0.0193 -0.19727,0.0391 -0.1677,-0.40981 -0.56736,-0.69727 -1.03906,-0.69727 h -1.61914 c -0.62343,0 -1.125,0.50157 -1.125,1.125 v 7.68946 c 0,0.62342 0.50157,1.125 1.125,1.125 h 1.61914 c 0.62343,0 1.125,-0.50158 1.125,-1.125 v -1.96875 h 2.31445 v 1.96875 c 0,0.62342 0.50157,1.125 1.125,1.125 h 1.61914 c 0.62343,0 1.125,-0.50158 1.125,-1.125 v -7.68946 c 0,-0.62343 -0.50157,-1.125 -1.125,-1.125 h -1.61914 c -0.45581,0 -0.8424,0.27037 -1.01953,0.65821 h -0.45898 v -1.86133 h 2.08398 c 0.36725,0 0.66406,-0.29681 0.66406,-0.66406 0,-0.36726 -0.29681,-0.66211 -0.66406,-0.66211 h -0.91992 v -0.71094 c 0,-0.36726 -0.29486,-0.66211 -0.66211,-0.66211 h -0.50195 v -3.04297 c 0.37341,-0.0243 0.66992,-0.32532 0.66992,-0.70508 v -0.9375 h 2.74414 l 0.53515,1.20508 1.96875,-3.51172 h 11.32227 l 4.34375,4.82031 v 0.40625 c 0,0.26232 0.21034,0.47266 0.47266,0.47266 h 0.9414 v 1.76367 c -0.28725,-0.40861 -0.75924,-0.67578 -1.29883,-0.67578 h -2.28906 c -0.88103,0 -1.58984,0.70881 -1.58984,1.58984 v 10.86719 c 0,0.88103 0.70881,1.58985 1.58984,1.58985 h 2.28906 c 0.88104,0 1.58985,-0.70882 1.58985,-1.58985 v -2.13476 h 5.78125 v 2.13476 c 0,0.88103 0.70881,1.58985 1.58984,1.58985 h 2.28906 c 0.88104,0 1.58985,-0.70882 1.58985,-1.58985 v -10.86719 c 0,-0.88103 -0.70881,-1.58984 -1.58985,-1.58984 h -2.28906 c -0.88103,0 -1.58984,0.70881 -1.58984,1.58984 v 3.24024 h -1.33789 v -3.53711 h 0.22265 c 0.26232,0 0.47266,-0.21034 0.47266,-0.47266 v -7.82226 c 4.12457,-0.64993 7.48406,-2.77496 8.10742,-6.09961 3.71874,-1.25068 7.34091,-2.43403 10.9043,-3.57227 l 13.25195,14.70703 v 0.40625 c 0,0.26232 0.21034,0.47266 0.47266,0.47266 h 0.9414 v 1.76367 c -0.28725,-0.40861 -0.75924,-0.67578 -1.29882,-0.67578 h -2.28907 c -0.88103,0 -1.58984,0.70881 -1.58984,1.58984 v 10.86719 c 0,0.88103 0.70881,1.58985 1.58984,1.58985 h 2.28907 c 0.88103,0 1.58984,-0.70882 1.58984,-1.58985 v -2.13476 h 5.78125 v 2.13476 c 0,0.88103 0.70881,1.58985 1.58984,1.58985 h 2.28907 c 0.88103,0 1.58984,-0.70882 1.58984,-1.58985 v -10.86719 c 0,-0.88103 -0.70881,-1.58984 -1.58984,-1.58984 h -2.28907 c -0.88103,0 -1.58984,0.70881 -1.58984,1.58984 v 3.24024 h -1.33789 v -3.53711 h 0.2207 c 0.26232,0 0.47461,-0.21034 0.47461,-0.47266 v -8.33789 h 0.92969 v 0.60156 c 0,0.26232 0.21034,0.47266 0.47266,0.47266 h 0.11718 c -0.0701,2.37916 -0.11756,4.20532 -0.10547,4.50781 0.0446,1.11607 0.67103,1.16129 0.84961,-0.22265 0.17478,-1.35301 1.72233,-20.82549 1.79297,-21.71485 3.81083,-1.04792 7.57144,-2.04032 11.29688,-2.97851 l 2.04297,7.47851 c 0.20273,0.7423 0.96278,1.17734 1.70507,0.97461 l 3.16602,-0.86523 c 0.7423,-0.20273 1.17734,-0.96278 0.97461,-1.70508 l -2.00586,-7.3457 c 15.83187,-3.78437 31.24154,-6.64878 47.77539,-9.02539 l 0.60547,7.19531 c 0.0645,0.76678 0.73518,1.33207 1.50195,1.26758 l 3.27149,-0.27539 c 0.76677,-0.0645 1.33204,-0.73323 1.26758,-1.5 l -0.63282,-7.50782 c 5.32301,-0.71758 10.76875,-1.39862 16.4043,-2.04492 l 0.82226,4.10352 c -8.57384,1.55831 -14.80729,9.02396 -14.81054,17.73828 3.1e-4,9.96041 8.07474,18.03485 18.03515,18.03516 9.96118,7.7e-4 18.0368,-8.07398 18.03711,-18.03516 -6.7e-4,-8.55534 -6.01183,-15.93304 -14.39062,-17.66211 l -0.0547,-5.02734 c 4.21475,-0.45272 8.51163,-0.89739 12.95899,-1.33203 l 0.64843,7.69531 c 0.0645,0.76677 0.73323,1.33207 1.5,1.26758 l 3.27149,-0.27539 c 0.76677,-0.0645 1.33207,-0.73326 1.26758,-1.5 l -0.65235,-7.75977 c 6.20976,-0.58551 12.58971,-1.16538 19.34375,-1.75 5.91815,-0.51226 12.06274,-1.00696 18.29688,-1.49414 l 0.66211,7.84961 c 0.0645,0.76677 0.73322,1.33207 1.5,1.26758 l 3.27148,-0.27539 c 0.76678,-0.0645 1.33207,-0.73323 1.26758,-1.5 l -0.65625,-7.81446 c 11.79769,-0.89323 24.03169,-1.73338 36.42969,-2.51953 l 0.70703,3.53516 c -8.57386,1.5583 -14.8073,9.02396 -14.81055,17.73828 3.1e-4,9.96042 8.07474,18.03485 18.03516,18.03516 9.96118,7.5e-4 18.0368,-8.07398 18.03711,-18.03516 -6.7e-4,-8.55534 -6.01183,-15.93304 -14.39063,-17.66211 l -0.0449,-4.08203 c 49.46536,-3.02616 100.70807,-5.09576 137.04687,-5.54688 0.1894,2.96732 0.63101,6.62891 1.19922,6.62891 0.56807,0 0.25196,-1.38981 0.25196,-8.27149 0,-6.88162 0.19064,-10.41601 -0.31446,-10.41601 -0.50506,0 -1.00586,5.42411 -1.00586,9.53125 -161.17301,0.11986 -266.66228,7.98104 -372.76757,21.69531 -0.0893,-1.42857 -0.0904,-5.26729 -1.42969,-7.41015 0.0893,-3.21428 0.7519,-6.13979 -1.96289,-17.88282 0,0 117.14117,-13.90345 119.10547,-14.08203 1.9641,-0.17857 2.41183,-1.96374 0.17968,-1.78515 -2.23215,0.17857 -106.15296,9.04844 -121.05273,10.05859 -3.6618,-12.37437 -15.90999,-25.3794 -27.7793,-27.27344 0,0 -3.75781,-137.1152323 -3.75781,-138.9902325 C 382.50009,0.08593927 382.49918,0 380.73731,0 c -1.76188,0 -1.7627,0.08593927 -1.7627,1.9609375 z M 310.33008,212.05273 c 0.68838,0.19202 1.37621,0.38224 2.06836,0.57813 v 6.22852 h -1.19727 v -0.59961 c 0,-0.26232 -0.21229,-0.47461 -0.47461,-0.47461 h -0.18945 c -0.006,0 -0.01,0.004 -0.0156,0.004 -0.0801,-2.37932 -0.1834,-5.4991 -0.1914,-5.73633 z m 140.81445,0 c -0.008,0.23723 -0.11133,3.35701 -0.19141,5.73633 -0.006,-1.9e-4 -0.01,-0.004 -0.0156,-0.004 h -0.18945 c -0.26232,0 -0.47461,0.21229 -0.47461,0.47461 v 0.59961 h -1.19727 v -6.22852 c 0.69215,-0.19589 1.37998,-0.38611 2.06836,-0.57813 z m -133.31641,2.14454 c 4.14597,1.21668 8.36656,2.49926 12.69336,3.86718 l -4.41601,4.90235 h -8.27735 z m 125.81836,0 v 8.76953 h -8.27734 l -4.41602,-4.90235 c 4.3268,-1.36792 8.54739,-2.6505 12.69336,-3.86718 z m -132.44531,5.79882 h 1.19727 v 6.72071 h -0.92969 v -0.59961 c 0,-0.26232 -0.21034,-0.47461 -0.47266,-0.47461 h -0.18945 c -0.0104,0 -0.0191,0.005 -0.0293,0.006 -0.0538,-1.71492 -0.0885,-2.81703 -0.14648,-4.58008 h 0.0957 c 0.26232,0 0.47461,-0.21034 0.47461,-0.47266 z m 137.875,0 h 1.19727 v 0.59961 c 0,0.26232 0.21229,0.47266 0.47461,0.47266 h 0.0957 c -0.058,1.76305 -0.0927,2.86516 -0.14648,4.58008 -0.0102,-6.5e-4 -0.019,-0.006 -0.0293,-0.006 h -0.18945 c -0.26232,0 -0.47266,0.21229 -0.47266,0.47461 v 0.59961 h -0.92969 z m -131.24805,4.85938 h 6.57618 l -5.4668,6.06641 c -0.0527,-0.0201 -0.10797,-0.0332 -0.16797,-0.0332 h -0.94141 z m 119.24219,0 h 6.57617 v 6.0332 h -0.9414 c -0.06,0 -0.11528,0.0131 -0.16797,0.0332 z m -80.13476,3.72656 h 3.21679 l -2.10742,2.33985 c -0.0527,-0.0201 -0.10797,-0.0332 -0.16797,-0.0332 h -0.9414 z m 44.38672,0 h 3.21679 v 2.30664 h -0.9414 c -0.06,0 -0.11528,0.0131 -0.16797,0.0332 z m -83.73829,8.01367 c -0.0275,0.11742 -0.0469,0.23727 -0.0469,0.36328 v 3.24024 h -0.40234 v -3.53711 h 0.2207 c 0.0851,0 0.15961,-0.0274 0.22851,-0.0664 z m 39.10743,0 c -0.0275,0.11742 -0.0469,0.23727 -0.0469,0.36328 v 3.24024 h -0.4043 v -3.53711 h 0.22071 c 0.0851,0 0.16157,-0.0274 0.23047,-0.0664 z m 48.09179,0 c 0.0689,0.039 0.14539,0.0664 0.23047,0.0664 h 0.22071 v 3.53711 h -0.4043 v -3.24024 c 0,-0.12601 -0.0194,-0.24586 -0.0469,-0.36328 z m 39.10742,0 c 0.0689,0.039 0.14344,0.0664 0.22852,0.0664 h 0.2207 v 3.53711 h -0.40234 v -3.24024 c 0,-0.12601 -0.0194,-0.24586 -0.0469,-0.36328 z"
       transform="matrix(0.26458333,0,0,0.26458333,2.7874267,-7.6961711)"
       id="rect816"
       inkscape:connector-curvature="0"
       sodipodi:nodetypes="sccccccccsssccccccccccccccccccccccccccccccccccccccccccccssccsscccssssssssccsssssssccssccccsscccssssssssccsssssssccssccccccsccsssccscsssssssccssssssscccssscssccsccccccssccsssssssccsssssssscccssccccssccsssssssccsssssssscccssccssccccccccccccccccccccccccccccccccccccccccccccsssccccccccccsccccsssccccsssccccccccccccccccccsssccsscccssccsssccccccscccccscccccscccccscccscccsccscccsccscccsccscccsc" />
  </g>
</svg>
