<?xml version="1.0" encoding="UTF-8" standalone="no"?>
<!-- Created with Inkscape (http://www.inkscape.org/) -->

<svg
   width="140.18184mm"
   height="190.49954mm"
   viewBox="0 0 140.18184 190.49954"
   version="1.1"
   id="svg1"
   xml:space="preserve"
   inkscape:version="1.3 (0e150ed6c4, 2023-07-21)"
   sodipodi:docname="Airfish_8-top.svg"
   xmlns:inkscape="http://www.inkscape.org/namespaces/inkscape"
   xmlns:sodipodi="http://sodipodi.sourceforge.net/DTD/sodipodi-0.dtd"
   xmlns="http://www.w3.org/2000/svg"
   xmlns:svg="http://www.w3.org/2000/svg"><sodipodi:namedview
     id="namedview1"
     pagecolor="#505050"
     bordercolor="#ffffff"
     borderopacity="1"
     inkscape:showpageshadow="0"
     inkscape:pageopacity="0"
     inkscape:pagecheckerboard="1"
     inkscape:deskcolor="#505050"
     inkscape:document-units="mm"
     inkscape:zoom="0.58707211"
     inkscape:cx="247.84008"
     inkscape:cy="344.93207"
     inkscape:window-width="1600"
     inkscape:window-height="837"
     inkscape:window-x="-8"
     inkscape:window-y="-8"
     inkscape:window-maximized="1"
     inkscape:current-layer="layer1" /><defs
     id="defs1" /><g
     inkscape:label="Layer 1"
     inkscape:groupmode="layer"
     id="layer1"
     transform="translate(-39.262545,-57.081271)"><path
       style="fill:#555555;fill-opacity:1"
       d="m 175.64951,209.48081 h -3.79492 l -2.48894,-14.98752 c -1.36892,-8.24314 -2.608,-15.14388 -2.75352,-15.33497 -0.20345,-0.26717 -3.7624,2.32467 -15.40276,11.21721 -18.95535,14.48075 -27.06287,20.88309 -27.06287,21.37097 0,0.24445 -0.27824,0.38014 -0.77947,0.38014 -0.55737,0 -2.25366,0.97928 -5.95312,3.43677 -2.84551,1.89023 -5.17366,3.5571 -5.17366,3.70417 0,0.14707 -0.30237,0.2674 -0.67193,0.2674 -0.88627,0 -5.67807,3.82022 -5.67807,4.5268 0,0.36815 -0.19216,0.50161 -0.7276,0.50532 -0.83864,0.006 -5.172668,3.45108 -5.304757,4.21695 -0.06879,0.39887 0.243487,0.48232 2.369737,0.63325 2.83203,0.20102 4.07462,0.81735 4.82162,2.39153 0.40698,0.85765 0.41079,1.01584 0.0416,1.72972 -0.22348,0.43216 -0.82317,1.10368 -1.33264,1.49228 l -0.92632,0.70654 v 5.92172 5.92172 h -3.96755 -3.967544 l -2.780532,-5.55625 -2.780532,-5.55625 h -1.769769 c -3.884452,0 -9.262208,-0.54917 -11.853866,-1.2105 l -2.645833,-0.67515 v -1.93558 -1.93559 l 2.943283,-0.69346 c 1.618805,-0.38141 3.642868,-0.69529 4.497916,-0.69752 2.528787,-0.007 2.405231,0.56288 1.731785,-7.98188 -0.69508,-8.81925 -1.632359,-36.45714 -1.632359,-48.13397 v -8.11324 l -4.564063,-0.17437 c -2.510234,-0.0959 -5.635625,-0.28287 -6.945312,-0.41549 -1.309688,-0.13262 -3.214688,-0.30843 -4.233333,-0.3907 -1.018646,-0.0823 -3.221302,-0.38206 -4.894792,-0.6662 -4.547447,-0.77212 -8.685743,-1.32427 -9.925241,-1.32427 -1.377204,0 -5.640436,-2.02956 -8.242958,-3.92415 -2.121929,-1.54473 -3.931185,-3.66497 -4.366094,-5.11657 -0.259425,-0.86589 -0.236931,-1.1832 0.139897,-1.97341 1.209508,-2.53637 4.601674,-5.32162 8.960548,-7.35736 2.025532,-0.94599 2.822953,-1.17334 4.570306,-1.30303 1.164167,-0.0864 4.782598,-0.57654 8.040959,-1.0892 3.25836,-0.51266 6.480947,-0.93211 7.161303,-0.93211 0.680355,0 1.883955,-0.11141 2.674666,-0.24758 1.279206,-0.22029 6.956626,-0.51475 10.367343,-0.53771 l 1.256771,-0.008 2.61e-4,-8.26823 c 3.67e-4,-11.59332 0.932199,-39.099832 1.627555,-48.04337 0.502302,-6.460513 0.530633,-7.528995 0.2051,-7.735011 -0.207739,-0.131469 -1.083718,-0.240859 -1.946618,-0.243087 -1.55763,-0.004 -7.270872,-1.212517 -7.320572,-1.548486 -0.166218,-1.123632 -0.0722,-3.552756 0.144018,-3.721031 1.038282,-0.808055 9.157425,-1.878284 14.24933,-1.878284 h 1.769769 l 2.780532,-5.55625 2.780532,-5.55625 h 3.967544 3.96755 v 5.861598 5.861598 l 1.02183,0.874651 c 0.56201,0.481057 1.16987,1.232033 1.3508,1.668835 0.28841,0.696288 0.25865,0.907948 -0.24142,1.717081 -0.91601,1.48213 -1.95017,1.95525 -4.73304,2.165329 -2.129,0.160718 -2.441385,0.245791 -2.372404,0.646081 0.132173,0.766989 4.465314,4.212732 5.304964,4.218542 0.53544,0.0037 0.7276,0.137164 0.7276,0.505319 0,0.706578 4.7918,4.526799 5.67807,4.526799 0.36956,0 0.67193,0.124483 0.67193,0.27663 0,0.43876 10.36764,7.131703 11.0473,7.131703 0.33604,0 0.6787,0.176496 0.76148,0.392213 0.21327,0.555777 9.62152,7.94989 27.16738,21.35133 11.51333,8.79383 15.19439,11.47583 15.39572,11.21722 0.14552,-0.18694 1.3846,-7.08427 2.75352,-15.32741 l 2.48894,-14.987519 h 3.79492 3.79491 v 57.149999 57.15 z"
       id="path1" /></g></svg>
