<?xml version="1.0" encoding="UTF-8" standalone="no"?>
<!-- Created with Inkscape (http://www.inkscape.org/) -->

<svg
   width="140.18289mm"
   height="43.867523mm"
   viewBox="0 0 140.18289 43.867523"
   version="1.1"
   id="svg1"
   xml:space="preserve"
   inkscape:version="1.3 (0e150ed6c4, 2023-07-21)"
   sodipodi:docname="Airfish_8-side.svg"
   xmlns:inkscape="http://www.inkscape.org/namespaces/inkscape"
   xmlns:sodipodi="http://sodipodi.sourceforge.net/DTD/sodipodi-0.dtd"
   xmlns="http://www.w3.org/2000/svg"
   xmlns:svg="http://www.w3.org/2000/svg"><sodipodi:namedview
     id="namedview1"
     pagecolor="#505050"
     bordercolor="#ffffff"
     borderopacity="1"
     inkscape:showpageshadow="0"
     inkscape:pageopacity="0"
     inkscape:pagecheckerboard="1"
     inkscape:deskcolor="#505050"
     inkscape:document-units="mm"
     inkscape:zoom="0.58707211"
     inkscape:cx="212.06935"
     inkscape:cy="17.885367"
     inkscape:window-width="1600"
     inkscape:window-height="837"
     inkscape:window-x="-8"
     inkscape:window-y="-8"
     inkscape:window-maximized="1"
     inkscape:current-layer="layer1" /><defs
     id="defs1" /><g
     inkscape:label="Layer 1"
     inkscape:groupmode="layer"
     id="layer1"
     transform="translate(-48.601066,-143.89087)"><path
       style="fill:#ffffff;fill-opacity:1"
       d="m 101.02803,187.64148 c 0.0256,-0.0209 2.6064,-0.11594 5.7351,-0.21127 6.01537,-0.1833 6.79493,-0.26267 7.82414,-0.79663 0.90109,-0.46749 1.93041,-1.63287 2.1242,-2.40499 0.0898,-0.35762 0.24271,-0.65022 0.33989,-0.65022 0.16628,0 3.44183,-0.37967 5.66896,-0.65709 0.55453,-0.0691 2.99531,-0.31235 5.42396,-0.54062 2.42865,-0.22827 4.71338,-0.46009 5.07718,-0.51516 0.36381,-0.0551 1.79256,-0.2347 3.175,-0.39918 2.6225,-0.31201 10.95287,-1.49133 12.26849,-1.73682 0.41751,-0.0779 6.96595,-1.03291 14.55208,-2.12223 7.58613,-1.08932 14.00133,-2.04494 14.25599,-2.12361 0.25466,-0.0787 0.46302,-0.3136 0.46302,-0.52208 0,-0.20847 0.20915,-0.37904 0.46478,-0.37904 0.37904,0 1.37958,-2.74588 5.42396,-14.8854 2.72755,-8.18697 4.95918,-15.0926 4.95918,-15.34584 0,-0.42439 -0.48416,-0.46043 -6.18513,-0.46043 h -6.18512 l -0.5375,1.25677 c -0.29563,0.69123 -2.76396,6.61459 -5.48519,13.16302 -2.72123,6.54844 -5.03763,12.00313 -5.14756,12.12154 -0.10993,0.11841 -1.19837,-0.074 -2.41875,-0.42756 -2.39952,-0.6952 -3.93503,-0.97863 -9.60832,-1.77357 -2.0269,-0.284 -3.76969,-0.60822 -3.87286,-0.72047 -0.10318,-0.11226 -0.2592,-0.44261 -0.34673,-0.73412 -0.16078,-0.5355 -0.0846,-0.59406 3.29409,-2.53281 0.39969,-0.22935 1.03089,-0.6163 1.40266,-0.8599 0.37178,-0.24359 1.00757,-0.44712 1.41287,-0.45227 0.4053,-0.005 1.03457,-0.17954 1.39837,-0.3875 0.36381,-0.20797 0.75076,-0.38235 0.8599,-0.3875 0.10914,-0.005 0.20726,0.91336 0.21805,2.04114 0.0108,1.12779 0.11494,2.5863 0.23146,3.24115 0.16268,0.91425 0.21955,0.41501 0.24498,-2.15072 l 0.0331,-3.34133 0.80457,-0.33327 c 1.10805,-0.45897 2.14258,-1.30951 1.95735,-1.60923 -0.0845,-0.13664 -0.74043,-0.54583 -1.45773,-0.90932 -1.30323,-0.66039 -1.30422,-0.66191 -1.33547,-2.04549 l -0.0313,-1.3846 -0.26489,1.27296 c -0.21396,1.02826 -0.34782,1.23719 -0.69632,1.0869 -0.2373,-0.10233 -1.35508,-0.34127 -2.48396,-0.53097 -1.12889,-0.18971 -2.16246,-0.41287 -2.29682,-0.49591 -0.13437,-0.083 -0.31094,-0.0432 -0.39238,0.0886 -0.0814,0.13178 -0.47278,0.32108 -0.86963,0.42069 -0.39686,0.0996 -1.38025,0.48163 -2.18531,0.84895 -2.51122,1.14576 -3.1263,1.40982 -3.28388,1.40982 -0.084,0 -1.04942,0.41985 -2.14546,0.933 -1.67053,0.78212 -2.45238,0.97406 -4.83445,1.18685 -1.5629,0.13962 -3.37742,0.30928 -4.03226,0.37704 -0.65484,0.0678 -2.2068,0.20281 -3.44879,0.30012 -2.22276,0.17416 -2.26284,0.16665 -2.55711,-0.47919 -0.30299,-0.66499 -1.14548,-0.98118 -3.69802,-1.38792 l -1.10496,-0.17607 -0.22601,1.14444 -0.22601,1.14444 -7.53257,0.13229 c -4.52096,0.0794 -9.70114,0.002 -12.95653,-0.19243 -6.906883,-0.4135 -13.826533,-0.42574 -20.372923,-0.036 -5.35536,0.3188 -5.58771,0.37297 -7.8052,1.81949 -0.43657,0.28478 -1.03188,0.64112 -1.32292,0.79187 -0.29104,0.15075 -2.4937,1.46184 -4.89479,2.91354 l -4.36563,2.63945 -1.88139,8.1e-4 c -4.80602,0.002 -12.4039,2.36739 -13.36341,4.16025 -0.34039,0.63604 -0.29856,0.72312 0.82857,1.72451 2.38923,2.12269 8.55809,4.63635 12.82873,5.22739 2.37036,0.32805 5.23861,0.77275 10.31875,1.59986 1.89177,0.308 5.58271,0.71867 8.20209,0.91261 4.38576,0.32472 4.89943,0.41718 6.49356,1.16886 1.38014,0.65078 2.65447,0.95215 6.28617,1.48664 3.64358,0.53623 6.948253,0.75578 7.282043,0.48379 z"
       id="path1" /></g></svg>
