<?xml version="1.0" encoding="UTF-8" standalone="no"?>
<!-- Created with Inkscape (http://www.inkscape.org/) -->

<svg
   width="190.5mm"
   height="43.920841mm"
   viewBox="0 0 190.5 43.920841"
   version="1.1"
   id="svg1"
   xml:space="preserve"
   inkscape:version="1.3 (0e150ed6c4, 2023-07-21)"
   sodipodi:docname="Airfish_8-front.svg"
   xmlns:inkscape="http://www.inkscape.org/namespaces/inkscape"
   xmlns:sodipodi="http://sodipodi.sourceforge.net/DTD/sodipodi-0.dtd"
   xmlns="http://www.w3.org/2000/svg"
   xmlns:svg="http://www.w3.org/2000/svg"><sodipodi:namedview
     id="namedview1"
     pagecolor="#505050"
     bordercolor="#ffffff"
     borderopacity="1"
     inkscape:showpageshadow="0"
     inkscape:pageopacity="0"
     inkscape:pagecheckerboard="1"
     inkscape:deskcolor="#505050"
     inkscape:document-units="mm"
     inkscape:zoom="0.58707211"
     inkscape:cx="312.56808"
     inkscape:cy="89.426834"
     inkscape:window-width="1600"
     inkscape:window-height="837"
     inkscape:window-x="-8"
     inkscape:window-y="-8"
     inkscape:window-maximized="1"
     inkscape:current-layer="layer1" /><defs
     id="defs1" /><g
     inkscape:label="Layer 1"
     inkscape:groupmode="layer"
     id="layer1"
     transform="translate(-21.927542,-124.96219)"><path
       style="fill:#555555;fill-opacity:1"
       d="m 33.579515,168.30397 c -0.437562,-0.46967 -0.539286,-0.932 -0.538484,-2.44739 0.0011,-2.09533 0.564835,-3.37508 1.718195,-3.90058 0.364136,-0.16592 0.662066,-0.37272 0.662066,-0.45957 0,-0.0869 -3.036094,-3.19226 -6.746875,-6.9009 -3.710782,-3.70864 -6.746875,-6.93238 -6.746875,-7.16386 0,-0.23147 0.08297,-0.50383 0.184374,-0.60524 0.101406,-0.1014 3.529271,3.15297 7.617477,7.23195 4.088207,4.07897 7.588885,7.41631 7.779286,7.41631 0.800373,0 2.111817,0.88511 2.56883,1.73373 0.270161,0.50166 0.553422,0.90474 0.629471,0.89573 0.07605,-0.009 1.031239,-0.60351 2.122645,-1.32113 1.091406,-0.71761 4.233035,-2.44537 6.981398,-3.83946 l 4.997022,-2.53472 18.413243,-3.68478 18.413244,-3.68478 h 4.966898 4.9669 L 95.878583,137.66219 90.188839,126.28511 H 75.10819 60.027542 v -0.66146 -0.66146 h 57.149998 57.15 v 0.66146 0.66146 h -15.08065 -15.08065 l -5.68974,11.37708 -5.68974,11.37709 h 4.96689 4.9669 l 18.41348,3.68483 18.41349,3.68483 4.7322,2.3727 c 2.60271,1.30499 5.79288,3.04055 7.08926,3.8568 l 2.35707,1.48408 0.45736,-0.75207 c 0.60341,-0.99223 1.77598,-1.89576 2.46025,-1.89576 0.36567,0 3.03046,-2.47592 7.98203,-7.41631 4.08821,-4.07898 7.51607,-7.33335 7.61748,-7.23195 0.1014,0.10141 0.18437,0.37377 0.18437,0.60524 0,0.23148 -3.03489,3.45401 -6.7442,7.16118 l -6.7442,6.74031 0.82304,0.64413 c 1.10618,0.86571 1.55286,2.04761 1.55286,4.10881 0,2.52873 -0.36873,2.79693 -3.84534,2.79693 -2.42325,0 -2.73674,-0.0562 -3.19126,-0.57245 -0.27721,-0.31484 -3.83777,-2.20988 -7.91236,-4.21121 l -7.40833,-3.63876 -8.20208,-1.64848 -8.20209,-1.64848 -9.12812,-0.34193 c -5.02047,-0.18806 -12.42214,-0.34917 -16.44816,-0.35802 l -7.32002,-0.0161 -0.0883,3.12944 c -0.0796,2.81945 -0.15338,3.22429 -0.74522,4.08695 -0.3613,0.52662 -1.13521,1.23173 -1.71979,1.56691 -1.03837,0.59536 -1.25506,0.61128 -9.39725,0.6906 -9.16659,0.0893 -10.00407,-0.01 -11.37216,-1.3475 -1.28789,-1.25915 -1.59242,-2.28814 -1.59242,-5.38059 v -2.74581 l -7.342192,0.014 c -4.038204,0.008 -11.568907,0.18144 -16.734896,0.38604 l -9.392709,0.372 -8.202083,1.68699 -8.202083,1.687 -7.011459,3.51647 c -3.856302,1.93406 -7.348015,3.79916 -7.759362,4.14467 -0.676708,0.56841 -0.996862,0.62821 -3.363131,0.62821 -2.349613,0 -2.670017,-0.0588 -3.1547,-0.57906 z m 69.839695,-20.45496 c 0,-0.83033 -0.3344,-1.93044 -1.10584,-3.63802 -0.61722,-1.36621 -1.09647,-2.826 -1.08463,-3.3038 0.0195,-0.78803 -0.13437,-0.9505 -1.93687,-2.04482 -1.076943,-0.65383 -1.958078,-1.13073 -1.958078,-1.05978 0,0.41784 5.605548,11.23669 5.822038,11.23669 0.14486,0 0.26338,-0.53562 0.26338,-1.19027 z m 30.70595,-4.12995 c 1.46446,-2.92612 2.62588,-5.35697 2.58095,-5.4019 -0.0449,-0.0449 -0.85161,0.3814 -1.79263,0.94738 -1.51656,0.91215 -1.71573,1.12757 -1.75308,1.89617 -0.0232,0.47691 -0.53318,1.92076 -1.13333,3.20856 -1.06426,2.28366 -1.4873,4.67001 -0.82787,4.67001 0.14482,0 1.46151,-2.3941 2.92596,-5.32022 z m -19.32887,-0.7502 c 0,-0.78934 1.01908,-1.33792 2.48544,-1.33792 1.41511,0 2.27706,0.5163 2.27706,1.36393 0,0.42816 0.22843,0.48816 1.85863,0.48816 1.78079,0 1.87014,-0.0303 2.13322,-0.72222 0.34396,-0.90469 0.68092,-1.12071 1.75604,-1.12581 0.67273,-0.003 0.93745,-0.16716 1.25201,-0.77545 l 0.39891,-0.7714 -2.11191,-1.23812 c -1.16154,-0.68097 -2.11008,-1.31611 -2.10785,-1.41142 0.002,-0.0953 0.10936,-0.3396 0.23807,-0.54288 0.18993,-0.29995 0.57548,-0.18323 2.04647,0.61952 0.99685,0.54401 1.91779,1.08951 2.04655,1.21222 0.12875,0.12271 0.50994,0.0424 0.8471,-0.17854 0.88806,-0.58188 2.85039,-0.51427 3.75427,0.12936 l 0.74575,0.53102 2.20923,-1.18926 c 1.62277,-0.87355 2.26296,-1.10231 2.41164,-0.86174 0.12581,0.20357 1.26296,-1.79177 3.00501,-5.27285 l 2.8026,-5.60035 H 117.17748 91.510437 l 2.676721,5.35781 c 1.472197,2.9468 2.720043,5.40455 2.772992,5.46167 0.05295,0.0571 0.269653,-0.0401 0.481564,-0.21592 0.312135,-0.25905 0.787779,-0.0876 2.504979,0.90287 2.117797,1.22154 2.120447,1.22224 2.974337,0.78067 1.07028,-0.55346 2.71949,-0.5465 3.57661,0.0151 0.62798,0.41147 0.7332,0.3858 2.64456,-0.64517 1.09481,-0.59053 2.03676,-1.0737 2.09322,-1.0737 0.0565,0 0.21941,0.21814 0.3621,0.48476 0.22451,0.4195 -0.0146,0.63888 -1.77663,1.62978 -1.11983,0.62977 -2.08516,1.18504 -2.14518,1.23393 -0.06,0.0489 0.0267,0.38704 0.19276,0.75146 0.23186,0.50888 0.50268,0.66351 1.16746,0.66663 1.0878,0.005 1.42372,0.21893 1.76851,1.12581 0.26309,0.69197 0.35243,0.72222 2.13322,0.72222 1.66416,0 1.85863,-0.0538 1.85863,-0.51417 z"
       id="path1" /></g></svg>
