<?xml version="1.0" encoding="UTF-8" standalone="no"?>
<!-- Created with Inkscape (http://www.inkscape.org/) -->

<svg
   xmlns:dc="http://purl.org/dc/elements/1.1/"
   xmlns:cc="http://creativecommons.org/ns#"
   xmlns:rdf="http://www.w3.org/1999/02/22-rdf-syntax-ns#"
   xmlns:svg="http://www.w3.org/2000/svg"
   xmlns="http://www.w3.org/2000/svg"
   xmlns:sodipodi="http://sodipodi.sourceforge.net/DTD/sodipodi-0.dtd"
   xmlns:inkscape="http://www.inkscape.org/namespaces/inkscape"
   width="161.05992mm"
   height="52.066589mm"
   viewBox="0 0 161.05992 52.066589"
   version="1.1"
   id="svg8"
   inkscape:version="0.92.4 (5da689c313, 2019-01-14)"
   sodipodi:docname="Boeing_747-front.svg">
  <defs
     id="defs2">
    <inkscape:path-effect
       effect="mirror_symmetry"
       start_point="351.00684,0"
       end_point="351.00684,196.78711"
       center_point="351.00684,98.393556"
       id="path-effect880"
       is_visible="true"
       mode="vertical"
       discard_orig_path="false"
       fuse_paths="false"
       oposite_fuse="false" />
    <inkscape:path-effect
       effect="mirror_symmetry"
       start_point="102.82654,65.300407"
       end_point="102.82654,117.367"
       center_point="102.82654,91.333702"
       id="path-effect825"
       is_visible="true"
       mode="vertical"
       discard_orig_path="false"
       fuse_paths="false"
       oposite_fuse="false" />
  </defs>
  <sodipodi:namedview
     id="base"
     pagecolor="#ffffff"
     bordercolor="#666666"
     borderopacity="1.0"
     inkscape:pageopacity="0.0"
     inkscape:pageshadow="2"
     inkscape:zoom="1.4142136"
     inkscape:cx="329.67763"
     inkscape:cy="77.282215"
     inkscape:document-units="mm"
     inkscape:current-layer="layer1"
     showgrid="false"
     inkscape:pagecheckerboard="true"
     inkscape:showpageshadow="false"
     borderlayer="true"
     showguides="true"
     inkscape:guide-bbox="true"
     inkscape:snap-global="true"
     fit-margin-top="0"
     fit-margin-left="0"
     fit-margin-right="0"
     fit-margin-bottom="0"
     inkscape:window-width="1600"
     inkscape:window-height="837"
     inkscape:window-x="-8"
     inkscape:window-y="-8"
     inkscape:window-maximized="1"
     inkscape:snap-page="true"
     inkscape:snap-object-midpoints="true"
     inkscape:object-paths="false"
     inkscape:snap-smooth-nodes="false"
     inkscape:snap-intersection-paths="true" />
  <metadata
     id="metadata5">
    <rdf:RDF>
      <cc:Work
         rdf:about="">
        <dc:format>image/svg+xml</dc:format>
        <dc:type
           rdf:resource="http://purl.org/dc/dcmitype/StillImage" />
        <dc:title />
      </cc:Work>
    </rdf:RDF>
  </metadata>
  <g
     inkscape:label="Layer 1"
     inkscape:groupmode="layer"
     id="layer1"
     transform="translate(-22.296575,-65.300407)">
    <path
       style="opacity:1;fill:#555555;fill-opacity:1;fill-rule:nonzero;stroke:none;stroke-width:5.6692915;stroke-linecap:round;stroke-linejoin:round;stroke-miterlimit:4;stroke-dasharray:none;stroke-dashoffset:0;stroke-opacity:1;paint-order:normal"
       d="m 348.17383,9.1972656 c -0.0892,8.8392834 -2.76816,65.0895674 -4.73242,84.7324224 -10.63933,4.872345 -14.17326,11.060082 -16.95118,16.742192 -11.8693,-0.75762 -75.00365,-6.81788 -81.44335,-7.44922 -6.43974,-0.63135 -11.61811,2.52441 -2.7793,3.78711 8.83884,1.26269 78.53906,14.01562 78.53906,14.01562 -3.91434,9.34391 -3.91318,19.57133 -3.0293,25.88477 -22.63899,1.00614 -264.318253,-20.09915 -267.191402,-20.48047 -5.46883,-0.72582 -5.475069,3.49253 1.394531,4.44531 14.87943,2.06368 44.837671,4.90193 79.082031,8.29297 v 8.77344 c -5.63074,1.39241 -9.58814,6.44186 -9.5957,12.24218 -2e-5,6.97369 5.65327,12.62699 12.62695,12.62696 6.97368,3e-5 12.62699,-5.65327 12.62695,-12.62696 -0.002,-5.70731 -3.83274,-10.70354 -9.34375,-12.1875 v -8.20312 c 28.50883,2.84001 59.47026,6.04886 88.22266,9.64648 v 7.32617 c -5.63072,1.39242 -9.58859,6.44187 -9.5957,12.24219 -3e-5,6.97369 5.65326,12.62698 12.62695,12.62696 6.97368,2e-5 12.62698,-5.65327 12.62695,-12.62696 -0.002,-5.70731 -3.83274,-10.70352 -9.34375,-12.1875 v -6.57812 c 23.50553,3.0261 44.9857,6.28968 61.36719,9.75976 v 19.73828 h -0.63281 c -0.48968,0 -0.88282,0.3951 -0.88282,0.88477 v 5.27539 C 291.30775,185.35353 290.62775,185 289.85547,185 h -0.25 c -1.38501,0 -2.5,1.11499 -2.5,2.5 v 6.78711 c 0,1.38501 1.11499,2.5 2.5,2.5 h 0.25 c 1.385,0 2.5,-1.11499 2.5,-2.5 v -1.51758 h 4.67773 v 1.51758 c 0,1.38501 1.115,2.5 2.5,2.5 h 0.25 c 1.38501,0 2.5,-1.11499 2.5,-2.5 V 187.5 c 0,-1.38501 -1.11499,-2.5 -2.5,-2.5 h -0.25 c -0.8744,0 -1.63939,0.44489 -2.08593,1.12109 v -3.375 l 13.77148,-18.18164 c 1.99492,0.63397 3.83211,1.27242 5.42187,1.91797 0.25248,5.55583 7.51511,8.51953 11.80079,8.51953 h 0.57421 v 4.73828 h -0.63281 c -0.48967,0 -0.88281,0.3951 -0.88281,0.88477 v 5.27539 C 327.04211,185.35353 326.36212,185 325.58984,185 h -0.25 c -1.385,0 -2.5,1.11499 -2.5,2.5 v 6.78711 c 0,1.38501 1.115,2.5 2.5,2.5 h 0.25 c 1.38501,0 2.5,-1.11499 2.5,-2.5 v -1.51758 h 4.67774 v 1.51758 c 0,1.38501 1.11499,2.5 2.5,2.5 h 0.25 c 1.385,0 2.5,-1.11499 2.5,-2.5 V 187.5 c 0,-1.38501 -1.115,-2.5 -2.5,-2.5 h -0.25 c -0.8744,0 -1.63941,0.44489 -2.08594,1.12109 v -0.9375 l 7.71289,-10.18164 h 7.27149 v 0.63477 c 0,0.48967 0.39314,0.88476 0.88281,0.88476 h 0.63281 v 3.21875 h -0.63281 c -0.48967,0 -0.88281,0.3951 -0.88281,0.88477 v 4.42188 C 348.01709,185.01941 347.86414,185 347.70703,185 h -0.24805 c -1.385,0 -2.5,1.11499 -2.5,2.5 v 6.78711 c 0,1.38501 1.115,2.5 2.5,2.5 h 0.24805 c 1.38501,0 2.5,-1.11499 2.5,-2.5 v -1.51758 h 1.59961 v 1.51758 c 0,1.38501 1.11499,2.5 2.5,2.5 h 0.24805 c 1.38501,0 2.5,-1.11499 2.5,-2.5 V 187.5 c 0,-1.38501 -1.11499,-2.5 -2.5,-2.5 h -0.24805 c -0.15711,0 -0.31006,0.0194 -0.45898,0.0469 v -4.4219 c 0,-0.48967 -0.39314,-0.88477 -0.88282,-0.88477 h -0.63086 v -3.21875 h 0.63086 c 0.48968,0 0.88282,-0.39509 0.88282,-0.88476 v -0.63477 h 7.27148 l 7.71289,10.18164 v 0.9375 C 368.3855,185.44489 367.62049,185 366.74609,185 h -0.25 c -1.385,0 -2.5,1.11499 -2.5,2.5 v 6.78711 c 0,1.38501 1.115,2.5 2.5,2.5 h 0.25 c 1.38501,0 2.5,-1.11499 2.5,-2.5 v -1.51758 h 4.67774 v 1.51758 c 0,1.38501 1.11499,2.5 2.5,2.5 h 0.25 c 1.385,0 2.5,-1.11499 2.5,-2.5 V 187.5 c 0,-1.38501 -1.115,-2.5 -2.5,-2.5 h -0.25 c -0.77228,0 -1.45227,0.35353 -1.91016,0.90039 V 180.625 c 0,-0.48967 -0.39314,-0.88477 -0.88281,-0.88477 h -0.63281 v -4.73828 h 0.57422 c 4.28568,0 11.5483,-2.9637 11.80078,-8.51953 1.58977,-0.64555 3.42695,-1.284 5.42187,-1.91797 l 13.77149,18.18164 v 3.375 C 404.11987,185.44489 403.35487,185 402.48047,185 h -0.25 c -1.38501,0 -2.5,1.11499 -2.5,2.5 v 6.78711 c 0,1.38501 1.11499,2.5 2.5,2.5 h 0.25 c 1.385,0 2.5,-1.11499 2.5,-2.5 v -1.51758 h 4.67773 v 1.51758 c 0,1.38501 1.115,2.5 2.5,2.5 h 0.25 c 1.38501,0 2.5,-1.11499 2.5,-2.5 V 187.5 c 0,-1.38501 -1.11499,-2.5 -2.5,-2.5 h -0.25 c -0.77228,0 -1.45227,0.35353 -1.91015,0.90039 V 180.625 c 0,-0.48967 -0.39314,-0.88477 -0.88282,-0.88477 h -0.63281 v -19.73828 c 16.38149,-3.47008 37.86166,-6.73366 61.36719,-9.75976 v 6.57812 c -5.51101,1.48398 -9.34144,6.48019 -9.34375,12.1875 -3e-5,6.97369 5.65327,12.62698 12.62695,12.62696 6.97369,2e-5 12.62698,-5.65327 12.62696,-12.62696 -0.007,-5.80032 -3.96499,-10.84977 -9.59571,-12.24219 v -7.32617 c 28.7524,-3.59762 59.71383,-6.80647 88.22266,-9.64648 v 8.20312 c -5.51101,1.48396 -9.34145,6.48019 -9.34375,12.1875 -4e-5,6.97369 5.65327,12.62699 12.62695,12.62696 6.97368,3e-5 12.62697,-5.65327 12.62696,-12.62696 -0.008,-5.80032 -3.96497,-10.84977 -9.59571,-12.24218 v -8.77344 c 34.24436,-3.39104 64.2026,-6.22929 79.08203,-8.29297 6.8696,-0.95278 6.86336,-5.17113 1.39453,-4.44531 -2.87315,0.38132 -244.55241,21.48661 -267.1914,20.48047 0.88388,-6.31344 0.88504,-16.54086 -3.0293,-25.88477 0,0 69.70022,-12.75293 78.53906,-14.01562 8.83881,-1.2627 3.66045,-4.41846 -2.77929,-3.78711 -6.43971,0.63134 -69.57406,6.6916 -81.44336,7.44922 C 372.74552,104.98977 369.2116,98.802033 358.57227,93.929688 356.60801,74.286833 353.92904,18.036549 353.83984,9.1972656 353.75053,0.35796764 352.9008,0 351.00586,0 c -1.89494,0 -2.74272,0.35796764 -2.83203,9.1972656 z M 295.93164,160.58398 c 2.72894,0.60315 5.30439,1.2129 7.70313,1.82813 v 7.64844 l -7.33204,9.67968 h -0.37109 z m 110.15039,0 v 19.15625 h -0.37109 l -7.33203,-9.67968 v -7.64844 c 2.39874,-0.61523 4.97418,-1.22498 7.70312,-1.82813 z M 305.5293,162.9082 c 1.0068,0.27015 1.96843,0.54207 2.90625,0.81446 l -2.90625,3.83789 z m 90.95508,0 v 4.65235 l -2.90626,-3.83789 c 0.93782,-0.27239 1.89946,-0.54431 2.90626,-0.81446 z m -64.81836,12.09375 h 4.39843 v 1.86133 l -2.88281,3.80664 v -0.0449 c 0,-0.48967 -0.3951,-0.88477 -0.88476,-0.88477 h -0.63086 z m 34.2832,0 h 4.39844 v 4.73828 h -0.63086 c -0.48967,0 -0.88477,0.3951 -0.88477,0.88477 v 0.0449 l -2.88281,-3.80664 z"
       transform="matrix(0.26458333,0,0,0.26458333,9.9559813,65.300407)"
       id="path823"
       inkscape:connector-curvature="0"
       sodipodi:nodetypes="cccscccscccccccccccccccccsscsssssssccsssssssccccsccsscsssssssccsssssssccccssccsscsssssssccssssssscssccssccccsssssssccssssssscssccsccccsssssssccssssssscsscccccccccccccccccscccccccccccccccccccccccccccccccccsscccccssccc" />
  </g>
</svg>
