<?xml version="1.0" encoding="UTF-8" standalone="no"?>
<!-- Created with Inkscape (http://www.inkscape.org/) -->

<svg
   xmlns:dc="http://purl.org/dc/elements/1.1/"
   xmlns:cc="http://creativecommons.org/ns#"
   xmlns:rdf="http://www.w3.org/1999/02/22-rdf-syntax-ns#"
   xmlns:svg="http://www.w3.org/2000/svg"
   xmlns="http://www.w3.org/2000/svg"
   xmlns:sodipodi="http://sodipodi.sourceforge.net/DTD/sodipodi-0.dtd"
   xmlns:inkscape="http://www.inkscape.org/namespaces/inkscape"
   width="185.74112mm"
   height="52.066589mm"
   viewBox="0 0 185.74112 52.066589"
   version="1.1"
   id="svg8"
   inkscape:version="0.92.4 (5da689c313, 2019-01-14)"
   sodipodi:docname="Boeing_747-side.svg">
  <defs
     id="defs2" />
  <sodipodi:namedview
     id="base"
     pagecolor="#ffffff"
     bordercolor="#666666"
     borderopacity="1.0"
     inkscape:pageopacity="0.0"
     inkscape:pageshadow="2"
     inkscape:zoom="0.98994949"
     inkscape:cx="339.65828"
     inkscape:cy="34.940853"
     inkscape:document-units="mm"
     inkscape:current-layer="layer1"
     showgrid="false"
     inkscape:pagecheckerboard="true"
     inkscape:showpageshadow="false"
     borderlayer="true"
     showguides="true"
     inkscape:guide-bbox="true"
     inkscape:snap-global="false"
     fit-margin-top="0"
     fit-margin-left="0"
     fit-margin-right="0"
     fit-margin-bottom="0"
     inkscape:window-width="1600"
     inkscape:window-height="837"
     inkscape:window-x="-8"
     inkscape:window-y="-8"
     inkscape:window-maximized="1" />
  <metadata
     id="metadata5">
    <rdf:RDF>
      <cc:Work
         rdf:about="">
        <dc:format>image/svg+xml</dc:format>
        <dc:type
           rdf:resource="http://purl.org/dc/dcmitype/StillImage" />
        <dc:title></dc:title>
      </cc:Work>
    </rdf:RDF>
  </metadata>
  <g
     inkscape:label="Layer 1"
     inkscape:groupmode="layer"
     id="layer1"
     transform="translate(-9.9559813,-65.300407)">
    <path
       style="opacity:1;fill:#555555;fill-opacity:1;fill-rule:nonzero;stroke:none;stroke-width:5.6692915;stroke-linecap:round;stroke-linejoin:round;stroke-miterlimit:4;stroke-dasharray:none;stroke-dashoffset:0;stroke-opacity:1;paint-order:normal"
       d="m 700.71484,246.80469 c 0,0 -69.64313,62.50083 -85.35742,76.07226 -15.71429,13.57143 -32.50084,25.7151 -48.57226,26.07227 -16.07142,0.35714 -247.57644,5.85547 -266.01172,5.85547 -18.43528,0 -21.71917,0.50371 -28.28516,-0.25391 -6.56599,-0.75761 -68.18573,-8.59224 -126.26953,-8.83789 -55.579111,-0.23506 -57.830896,11.11077 -68.4375,18.93945 -6.827158,5.03909 -40.152344,18.18343 -40.152344,27.52735 0,9.38065 25.768511,22.47572 78.798824,29.19531 v 10.875 a 5.892857,5.892857 0 0 0 -3.66015,5.44727 5.892857,5.892857 0 0 0 5.89258,5.89453 5.892857,5.892857 0 0 0 5.89257,-5.89453 5.892857,5.892857 0 0 0 -3.6582,-5.44727 v -10.33789 c 20.30554,2.36811 44.35941,3.82226 72.32031,3.82227 h 87.14258 c 0,2.14285 1.24972,4.10742 4.64258,4.10742 h 20.17773 c 1.78573,0 3.75,0.35717 3.75,-2.5 h 29.28711 v -2.67969 l 16.42774,-2.85742 h 1.78515 v 13.875 h -0.36132 a 5.8928571,5.8928571 0 0 0 -5.53125,-3.875 5.8928571,5.8928571 0 0 0 -5.89258,5.89258 5.8928571,5.8928571 0 0 0 5.89258,5.89453 5.8928571,5.8928571 0 0 0 5.72265,-4.51758 h 4.89453 a 5.8928571,5.8928571 0 0 0 5.72266,4.51758 5.8928571,5.8928571 0 0 0 5.89258,-5.89453 5.8928571,5.8928571 0 0 0 -5.89258,-5.89258 5.8928571,5.8928571 0 0 0 -5.52734,3.875 h -0.45313 v -13.875 h 26.2168 v 13.875 H 386.75 a 5.8928571,5.8928571 0 0 0 -5.53125,-3.875 5.8928571,5.8928571 0 0 0 -5.89258,5.89258 5.8928571,5.8928571 0 0 0 5.89258,5.89453 5.8928571,5.8928571 0 0 0 5.72266,-4.51758 h 4.89453 a 5.8928571,5.8928571 0 0 0 5.72265,4.51758 5.8928571,5.8928571 0 0 0 5.89258,-5.89453 5.8928571,5.8928571 0 0 0 -5.89258,-5.89258 5.8928571,5.8928571 0 0 0 -5.52929,3.875 h -0.45118 v -13.875 H 452.5 c 23.21427,0 53.57141,-3.56975 72.5,-7.85547 18.92855,-4.28572 177.50054,-40.71429 195.71484,-45 12.18639,-2.86739 13.81299,-12.12493 10.35157,-17.94141 2.06573,-1.33745 6.03825,-3.99354 6.43359,-4.91601 0.52035,-1.21417 -21.53111,-1.92415 -26.39648,0 h -8.2461 l 36.78516,-99.28711 z"
       transform="scale(0.26458333)"
       id="path826"
       inkscape:connector-curvature="0" />
  </g>
</svg>
