<?xml version="1.0" encoding="UTF-8" standalone="no"?>
<!-- Created with Inkscape (http://www.inkscape.org/) -->

<svg
   xmlns:dc="http://purl.org/dc/elements/1.1/"
   xmlns:cc="http://creativecommons.org/ns#"
   xmlns:rdf="http://www.w3.org/1999/02/22-rdf-syntax-ns#"
   xmlns:svg="http://www.w3.org/2000/svg"
   xmlns="http://www.w3.org/2000/svg"
   xmlns:sodipodi="http://sodipodi.sourceforge.net/DTD/sodipodi-0.dtd"
   xmlns:inkscape="http://www.inkscape.org/namespaces/inkscape"
   width="199.88802mm"
   height="55.926304mm"
   viewBox="0 0 199.88802 55.926304"
   version="1.1"
   id="svg8"
   inkscape:version="0.92.4 (5da689c313, 2019-01-14)"
   sodipodi:docname="Cessna_172_Skyhawk-side (copy).svg">
  <defs
     id="defs2">
    <inkscape:path-effect
       effect="mirror_symmetry"
       start_point="105,0"
       end_point="105,297"
       center_point="105,148.5"
       id="path-effect842"
       is_visible="true"
       mode="vertical"
       discard_orig_path="false"
       fuse_paths="false"
       oposite_fuse="false" />
    <inkscape:path-effect
       effect="mirror_symmetry"
       start_point="105,0"
       end_point="105,297"
       center_point="105,148.5"
       id="path-effect833"
       is_visible="true"
       mode="vertical"
       discard_orig_path="false"
       fuse_paths="false"
       oposite_fuse="false" />
    <inkscape:path-effect
       effect="mirror_symmetry"
       start_point="396.8504,0"
       end_point="396.8504,1122.5197"
       center_point="396.8504,561.25985"
       id="path-effect830"
       is_visible="true"
       mode="vertical"
       discard_orig_path="false"
       fuse_paths="false"
       oposite_fuse="false" />
    <inkscape:path-effect
       effect="mirror_symmetry"
       start_point="105,0"
       end_point="105,297"
       center_point="105,148.5"
       id="path-effect824"
       is_visible="true"
       mode="vertical"
       discard_orig_path="false"
       fuse_paths="false"
       oposite_fuse="false" />
  </defs>
  <sodipodi:namedview
     id="base"
     pagecolor="#ffffff"
     bordercolor="#666666"
     borderopacity="1.0"
     inkscape:pageopacity="0.0"
     inkscape:pageshadow="2"
     inkscape:zoom="0.49497475"
     inkscape:cx="278.49763"
     inkscape:cy="196.31967"
     inkscape:document-units="mm"
     inkscape:current-layer="layer1"
     showgrid="false"
     inkscape:pagecheckerboard="true"
     inkscape:showpageshadow="false"
     borderlayer="true"
     inkscape:snap-global="true"
     inkscape:window-width="1366"
     inkscape:window-height="713"
     inkscape:window-x="0"
     inkscape:window-y="0"
     inkscape:window-maximized="1"
     inkscape:snap-page="true"
     showguides="true"
     inkscape:guide-bbox="true"
     inkscape:snap-object-midpoints="true"
     inkscape:object-paths="false"
     inkscape:snap-smooth-nodes="true"
     fit-margin-top="0"
     fit-margin-left="0"
     fit-margin-right="0"
     fit-margin-bottom="0" />
  <metadata
     id="metadata5">
    <rdf:RDF>
      <cc:Work
         rdf:about="">
        <dc:format>image/svg+xml</dc:format>
        <dc:type
           rdf:resource="http://purl.org/dc/dcmitype/StillImage" />
        <dc:title></dc:title>
      </cc:Work>
    </rdf:RDF>
  </metadata>
  <g
     inkscape:label="Layer 1"
     inkscape:groupmode="layer"
     id="layer1"
     transform="translate(-5.0560415,-223.90158)">
    <path
       style="fill:#ffffff;fill-opacity:1;stroke:none;stroke:none;stroke-width:0.99999994px;stroke-linecap:butt;stroke-linejoin:miter;stroke-opacity:1"
       d="m 396.84961,846.24219 c -2.66232,10e-4 -2.0332,1.89514 -2.0332,3.03125 -1.50844,0.40418 -2.90262,2.52588 -1.51368,4.41992 1.38898,1.89403 1.47042,0.0763 1.11329,10.43359 -0.35716,10.35716 -2.32227,57.67774 -2.32227,57.67774 0,0 -85.28694,0.20015 -358.533203,-7.88086 -12.75738,-3.41832 -15.908982,7.32204 -13.888672,9.08984 2.02031,1.76776 4.040826,-1.76681 13.384766,-1.26172 9.3439,0.50506 188.501949,10.23242 188.501949,10.23243 l 10.35743,6.42773 0.53515,-0.53516 111.44531,67.32615 c -4.43286,3.66 -6.82163,6.5118 -6.11914,7.7285 0.86768,1.5029 6.23868,0.1764 13.82227,-3.0761 l 2.63672,1.5937 -0.53516,0.7129 4.82227,3.0371 -21.96485,13.9278 h -6.60742 v 1.6074 l 1.21094,0.3242 v 1.4609 l -12.10352,7.6778 c -0.35716,-2.143 -1.25084,-2.2305 -2.32226,-2.2305 v -8.8398 c 0,-5.6251 -15.53516,-7.4108 -15.53516,0 v 12.8574 c 0,2.4633 1.79407,2.5168 2.82813,2.5 v 7.7031 c 0,3.008 2.42167,5.4297 5.42968,5.4297 3.00798,0 5.42969,-2.4217 5.42969,-5.4297 v -6.2754 h 2.11524 c 1.07142,0 1.69726,-0.8035 1.69726,-1.875 1.69644,-0.9821 40.6345,-24.4267 42.02344,-25.3105 1.38894,-0.884 3.40849,-0.3792 4.54492,1.0097 1.13643,1.3889 2.96892,2.8414 6.0625,4.041 2.07663,0.8052 4.56928,1.275 6.31445,1.5118 l -0.75976,2.9746 c -0.12327,0.4826 0.16581,0.9705 0.64844,1.0937 l 2.0332,0.5176 c 0.48263,0.1233 0.97048,-0.1658 1.09375,-0.6484 l 0.77539,-3.0411 c 0.69763,0.1702 1.76185,0.3067 3.53125,0.3067 h 4.16602 v 3.4082 h 3.03125 v 1.0117 h 1.95703 v 1.3242 c -1.13643,0 -1.38869,0.9397 -1.38867,1.8867 -0.88388,0 -0.75782,0.7581 -0.75782,1.1368 -1.17022,0 -2.71484,0.1889 -2.71484,3.3457 v 8.5957 c 0,3.0603 1.85156,3.6459 3.05273,3.6582 v 1.3281 c 0,3.008 2.02182,5.4297 4.53516,5.4297 2.51334,0 4.53711,-2.4217 4.53711,-5.4297 v -1.3281 c 1.20117,-0.012 3.05273,-0.5979 3.05273,-3.6582 v -8.5957 c 0,-3.1568 -1.54462,-3.3457 -2.71484,-3.3457 0,-0.3787 0.12607,-1.1368 -0.75781,-1.1368 0,-0.947 -0.25225,-1.8867 -1.38868,-1.8867 v -1.3242 h 1.95704 v -1.0117 h 3.03125 v -3.4082 h 4.16601 c 4.86138,0 4.48269,-1.0098 5.42969,-1.0098 0.94704,0 5.11345,-0.5056 8.20703,-1.7051 3.09358,-1.1996 4.92607,-2.6521 6.0625,-4.041 1.13643,-1.3889 3.15598,-1.8937 4.54492,-1.0097 1.38894,0.8838 40.327,24.3284 42.02344,25.3105 0,1.0715 0.62585,1.875 1.69727,1.875 h 2.11523 v 6.2754 c 0,3.008 2.42171,5.4297 5.42969,5.4297 3.00801,0 5.42969,-2.4217 5.42969,-5.4297 v -7.7031 c 1.03399,0.017 2.82812,-0.037 2.82812,-2.5 v -12.8574 c 0,-7.4108 -15.53516,-5.6251 -15.53516,0 v 8.8398 c -1.07142,0 -1.9651,0.088 -2.32226,2.2305 l -12.10352,-7.6778 v -1.4609 l 1.21094,-0.3242 v -1.6074 h -6.60742 l -21.96485,-13.9278 4.82227,-3.0371 -0.53516,-0.7129 121.78516,-73.57225 0.53516,0.53516 10.35742,-6.42773 c 0,0 179.15805,-9.72737 188.50195,-10.23243 9.34394,-0.50509 11.36446,3.02948 13.38477,1.26172 2.02031,-1.7678 -1.1313,-12.50816 -13.88868,-9.08984 -273.2462,8.08101 -358.5332,7.88086 -358.5332,7.88086 0,0 -1.9651,-47.32058 -2.32226,-57.67774 -0.35713,-10.35726 -0.2757,-8.53956 1.11328,-10.43359 1.38894,-1.89404 -0.005,-4.01574 -1.51367,-4.41992 0,-1.13611 0.62911,-3.03018 -2.03321,-3.03125 v 131.48633 c -6.7e-4,0.002 -0.001,0.004 -0.002,0.006 z m -165.67773,85.99023 125.89062,3.58985 v 12.0664 c 0,0 -72.8577,1.89597 -76.14062,2.14844 -3.28301,0.25251 -3.66168,4.0405 0.3789,4.29297 4.04062,0.25255 75.38281,2.27148 75.38281,2.27148 0,0 0.006,20.37387 1.61719,38.4668 -4.62621,2.88917 -8.72592,5.70664 -12.02734,8.24024 l -112.00782,-67.85743 0.50782,-0.60937 z m 331.35742,0 -3.60157,2.60938 0.50782,0.60937 -121.40821,73.55273 -0.3164,-0.5684 -4.35547,2.336 c 2.87426,-14.86708 3.48025,-39.15575 3.61328,-49.1797 2.81008,-1.79193 5.40362,-3.54514 7.71289,-5.21094 12.12236,-0.34444 64.10615,-1.82498 67.71875,-2.05078 4.04058,-0.25247 3.66192,-4.04046 0.37891,-4.29297 -2.50079,-0.19232 -38.29897,-1.14649 -58.58594,-1.68164 1.47549,-1.65248 2.13979,-2.92776 1.73047,-3.63672 -0.8875,-1.53721 -6.48541,-0.11664 -14.34571,3.30078 -0.61197,-0.016 -4.93945,-0.13086 -4.93945,-0.13086 v -12.0664 z m -165.67774,47.68555 v 56.99223 h -0.002 v -56.98637 c 6.7e-4,-0.002 10e-4,-0.004 0.002,-0.006 z m -37.27929,26.20503 c 0.23948,1.6216 0.4925,3.1954 0.77343,4.6485 l -4.35547,-2.336 -0.3164,0.5684 -0.91602,-0.5547 c 1.54162,-0.7115 3.14977,-1.4895 4.81446,-2.3262 z"
       transform="scale(0.26458333)"
       id="path850"
       inkscape:connector-curvature="0" />
  </g>
</svg>
