<?xml version="1.0" encoding="UTF-8" standalone="no"?>
<!-- Created with Inkscape (http://www.inkscape.org/) -->

<svg
   width="537.07385mm"
   height="57.348495mm"
   viewBox="0 0 537.07385 57.348495"
   version="1.1"
   id="svg1"
   xml:space="preserve"
   xmlns:inkscape="http://www.inkscape.org/namespaces/inkscape"
   xmlns:sodipodi="http://sodipodi.sourceforge.net/DTD/sodipodi-0.dtd"
   xmlns="http://www.w3.org/2000/svg"
   xmlns:svg="http://www.w3.org/2000/svg"><sodipodi:namedview
     id="namedview1"
     pagecolor="#505050"
     bordercolor="#ffffff"
     borderopacity="1"
     inkscape:showpageshadow="0"
     inkscape:pageopacity="0"
     inkscape:pagecheckerboard="1"
     inkscape:deskcolor="#505050"
     inkscape:document-units="mm" /><defs
     id="defs1" /><g
     inkscape:label="Layer 1"
     inkscape:groupmode="layer"
     id="layer1"
     transform="translate(-32.777527,-62.340233)"><path
       id="path1"
       style="fill:#ffffff;fill-opacity:1;stroke:none;stroke-width:0.264583"
       d="m 234.84943,62.340233 -0.79479,0.0522 -0.37413,0.38654 -0.29198,0.70641 -0.17053,1.02268 -0.14624,1.63142 -1.24179,21.11344 h -10.66601 l -0.90124,0.29198 -0.60875,0.4625 -0.31626,0.56017 H 124.1766 l -89.450871,-2.4107 -0.486792,-0.85215 -0.633553,-0.14624 -0.827857,2.4107 0.365353,0.73071 0.633036,0.38964 0.608749,0.17053 91.758215,6.01514 23.31331,0.0186 -0.45837,2.14199 c -1.58913,0.21657 -3.04702,0.97822 -4.11189,2.14819 l -0.0233,0.02532 c -2.45383,2.727797 -2.17725,6.877417 0.61805,9.272817 2.79529,2.39551 7.05294,2.13141 9.51415,-0.59015 2.46113,-2.72155 2.19565,-6.87188 -0.59325,-9.274367 -0.3579,-0.30094 -0.74727,-0.56439 -1.16168,-0.78599 l 1.87999,-1.36581 0.0424,-1.56735 20.43855,0.01602 -0.20051,2.11874 c -1.57096,0.21448 -3.01266,0.9773 -4.06487,2.15077 l -0.0227,0.02532 c -2.41837,2.727837 -2.14572,6.877457 0.60926,9.272817 2.75491,2.39546 6.95103,2.13137 9.37669,-0.59015 2.42551,-2.72163 2.16373,-6.87196 -0.58498,-9.274367 -0.4293,-0.37065 -0.905,-0.68519 -1.41541,-0.93586 l 1.44125,-1.36994 -0.0191,-1.39319 20.86126,0.01653 -0.015,2.08566 c -1.59983,0.18899 -3.07462,0.95875 -4.14445,2.16318 l -0.0227,0.02532 c -2.3918,2.727827 -2.12215,6.877447 0.60254,9.272817 2.72467,2.3956 6.87483,2.1315 9.27386,-0.59015 2.39892,-2.72155 2.14015,-6.87188 -0.57826,-9.274367 -0.56988,-0.49634 -1.22107,-0.89073 -1.92495,-1.16582 l 0.92759,-0.84801 0.33331,-1.66501 11.67216,0.0088 -0.0243,2.36213 -0.31626,1.70481 -0.38964,2.021057 -0.68213,2.38642 -1.09554,3.65249 -0.51159,1.87534 -0.5116,1.9482 -0.0243,1.68 0.34107,1.2423 0.75499,1.82625 1.31516,1.9482 1.82625,1.36374 1.99678,0.65733 2.21588,0.0729 3.29127,-0.14934 6.93653,-0.16692 1.46141,-0.29249 0.87643,-0.75447 0.5116,-1.07177 0.17053,-0.82786 0.0243,-5.72265 0.17053,-3.84783 0.19741,-1.12602 0.0346,-7.955587 -0.37879,-0.6196 -0.10335,-2.3766 h 55.58524 l 0.0331,10.848427 h 7.12876 v 2.84117 h 0.6718 v -2.84117 h 1.05006 v 2.47944 h 1.00252 0.0997 1.00252 v -2.47944 h 1.05007 v 2.84117 h 0.67179 v -2.84117 h 7.12877 l 0.0331,-10.848427 h 55.58524 l -0.10336,2.3766 -0.37879,0.6196 0.0346,7.955587 0.1974,1.12602 0.17053,3.84783 0.0243,5.72265 0.17053,0.82786 0.5116,1.07177 0.87643,0.75447 1.46141,0.29249 6.93653,0.16692 3.29127,0.14934 2.21589,-0.0729 1.99678,-0.65733 1.82624,-1.36374 1.31517,-1.9482 0.75499,-1.82625 0.34106,-1.2423 -0.0243,-1.68 -0.51159,-1.9482 -0.5116,-1.87534 -1.09554,-3.65249 -0.68213,-2.38642 -0.38964,-2.021057 -0.31626,-1.70481 -0.0243,-2.36213 11.67216,-0.0088 0.33331,1.66501 0.92759,0.84801 c -0.70387,0.27509 -1.35506,0.66948 -1.92494,1.16582 -2.71842,2.402487 -2.97719,6.552817 -0.57826,9.274367 2.39903,2.72165 6.54918,2.98575 9.27385,0.59015 2.7247,-2.39537 2.99435,-6.54499 0.60255,-9.272817 l -0.0227,-0.02532 c -1.06983,-1.20443 -2.54461,-1.97419 -4.14445,-2.16318 l -0.015,-2.08566 20.86126,-0.01653 -0.0191,1.39319 1.44126,1.36994 c -0.51041,0.25067 -0.98612,0.56521 -1.41542,0.93586 -2.74871,2.402407 -3.01048,6.552737 -0.58498,9.274367 2.42566,2.72152 6.62179,2.98561 9.37669,0.59015 2.75498,-2.39536 3.02764,-6.54498 0.60927,-9.272817 l -0.0227,-0.02532 c -1.05221,-1.17347 -2.49391,-1.93629 -4.06487,-2.15077 l -0.2005,-2.11874 20.43854,-0.01602 0.0424,1.56735 1.87999,1.36581 c -0.41441,0.2216 -0.80379,0.48505 -1.16169,0.78599 -2.7889,2.402487 -3.05437,6.552817 -0.59325,9.274367 2.46121,2.72156 6.71887,2.98566 9.51415,0.59015 2.7953,-2.3954 3.07188,-6.54502 0.61805,-9.272817 l -0.0232,-0.02532 c -1.06488,-1.16997 -2.52277,-1.93162 -4.1119,-2.14819 l -0.45837,-2.14199 23.31331,-0.0186 91.75822,-6.01514 0.60875,-0.17053 0.63304,-0.38964 0.36535,-0.73071 -0.82786,-2.4107 -0.63355,0.14624 -0.48679,0.85215 -89.45087,2.4107 h -95.16112 l -0.31626,-0.56017 -0.60875,-0.4625 -0.90123,-0.29198 h -10.66602 l -1.24178,-21.11344 -0.14625,-1.63142 -0.17053,-1.02268 -0.29197,-0.70641 -0.37362,-0.38654 -0.7953,-0.0522 -0.36535,0.21911 -0.31678,1.16892 v 24.54682 l -65.76705,0.30386 h -0.0315 l -65.76723,-0.30386 v -24.54682 l -0.31678,-1.16892 z m 57.80164,32.4373 h 8.64753 0.0315 8.64754 v 8.747787 h -8.61343 -0.0997 -8.61342 z" /></g></svg>
