<?xml version="1.0" encoding="UTF-8" standalone="no"?>
<!-- Created with Inkscape (http://www.inkscape.org/) -->

<svg
   width="269.08551mm"
   height="439.49109mm"
   viewBox="0 0 269.08551 439.49109"
   version="1.1"
   id="svg1"
   xml:space="preserve"
   inkscape:export-filename="big plane top 2.svg"
   inkscape:export-xdpi="96"
   inkscape:export-ydpi="96"
   xmlns:inkscape="http://www.inkscape.org/namespaces/inkscape"
   xmlns:sodipodi="http://sodipodi.sourceforge.net/DTD/sodipodi-0.dtd"
   xmlns="http://www.w3.org/2000/svg"
   xmlns:svg="http://www.w3.org/2000/svg"><sodipodi:namedview
     id="namedview1"
     pagecolor="#505050"
     bordercolor="#ffffff"
     borderopacity="1"
     inkscape:showpageshadow="0"
     inkscape:pageopacity="0"
     inkscape:pagecheckerboard="1"
     inkscape:deskcolor="#505050"
     inkscape:document-units="mm" /><defs
     id="defs1" /><g
     inkscape:label="Layer 1"
     inkscape:groupmode="layer"
     id="layer1"
     transform="translate(-180.3148,66.984435)"><path
       id="path1"
       style="fill:#ffffff;fill-opacity:1;stroke:none;stroke-width:0.264583"
       d="m 180.3148,211.31602 0.24133,0.90434 0.78755,0.89865 0.92553,0.69402 1.72237,1.17098 2.13476,1.03302 5.09736,1.37769 4.06332,0.75758 2.20451,0.2067 20.52537,0.40773 h 49.21301 v 7.76903 l -8.77311,-1.14515 -0.31677,-0.87694 -2.48357,-0.5116 -3.96927,-0.29197 h -3.70158 l -1.4857,0.31677 -1.11673,-0.0734 -0.59014,0.80409 0.0388,8.8899 0.21962,0.36173 0.7922,0.0341 0.82631,0.27543 h 7.02541 l 4.13256,-0.41289 0.34469,-0.82683 9.05732,-1.73477 V 247.381 l -8.7731,-1.14566 -0.31678,-0.87643 -2.48357,-0.5116 -3.96927,-0.29197 h -3.70158 l -1.4857,0.31677 -1.11673,-0.0734 -0.59014,0.80409 0.0388,8.88989 0.21962,0.36174 0.7922,0.0341 0.82631,0.27543 h 7.02541 l 4.13256,-0.41289 0.34469,-0.82683 9.05732,-1.73477 v 16.03674 l -8.7731,-1.14566 -0.31678,-0.87644 -2.48357,-0.51159 -3.96927,-0.29197 h -3.70158 l -1.4857,0.31677 -1.11673,-0.0734 -0.59014,0.80409 0.0388,8.88989 0.21962,0.36174 0.7922,0.0341 0.82631,0.27543 h 7.02541 l 4.13256,-0.41289 0.34469,-0.82683 9.05732,-1.73477 v 14.5805 l 11.46338,81.47565 0.4868,0.14624 0.19482,1.02268 4.31653,0.55966 9.33328,0.92965 8.88473,0.75758 -0.0341,-0.55087 -1.13636,-0.31006 -1.3777,-0.44752 -1.23971,-0.82682 -0.62891,-0.93948 1.93735,-31.70814 4.58939,-50.21192 V 218.9372 l 13.53922,-0.92552 7.84138,-0.63304 8.74417,-0.74156 8.12767,-0.68884 5.3728,-0.41341 5.47564,-0.31006 5.51025,-0.20671 5.26893,-0.20619 5.51026,-0.1726 8.26513,-0.13746 5.4069,-0.10335 5.30356,-0.10335 7.12876,-0.41341 8.81652,0.0687 2.68614,16.66875 2.05672,13.27877 0.38964,2.28875 0.48679,0.92553 0.77928,0.53588 0.75499,0.31626 1.42162,0.21859 8.91987,0.0341 0.34417,-0.48214 h 2.54868 l 0.82631,-12.29434 1.06763,-14.08545 0.5302,-8.847 22.25756,-1.07126 v -0.19482 l -22.40897,-1.4242 -1.30845,-24.86463 -0.44803,-5.30355 -0.27544,-3.06493 -0.41289,-1.68775 -1.79111,-0.0341 -0.34416,-0.48214 -6.61252,0.0341 h -3.54707 l -1.68775,0.55087 -0.92966,0.82682 -2.36265,16.06517 -2.8546,16.82378 -3.18482,0.0279 -11.83494,-0.34106 -11.88403,-0.34107 -12.61422,-0.38964 -7.93853,-0.19482 -8.07599,-0.51779 -11.22722,-0.75758 -7.09414,-0.68885 -10.26294,-0.89555 -8.95398,-0.6196 -7.33547,-0.55087 v -26.69036 h -7.05331 v -20.49074 -6.94066 -20.49074 h 7.05331 v -26.69036 l 7.33547,-0.55087 8.95398,-0.6196 10.26294,-0.89556 7.09414,-0.688835 11.22722,-0.75758 8.07599,-0.5178 7.93853,-0.19482 12.61422,-0.38964 11.88403,-0.34106 11.83494,-0.34107 3.18482,0.0279 2.8546,16.823775 2.36265,16.06517 0.92966,0.82682 1.68775,0.55087 h 3.54707 l 6.61252,0.0341 0.34416,-0.48214 1.79111,-0.0341 0.41289,-1.68775 0.27544,-3.06493 0.44803,-5.30355 1.30845,-24.864635 22.40897,-1.4242 v -0.19482 l -22.25756,-1.07125 -0.5302,-8.84701 -1.06763,-14.08544 -0.82631,-12.29434 h -2.54868 l -0.34417,-0.48214 -8.91987,0.0341 -1.42162,0.2186 -0.75499,0.31625 -0.77928,0.53589 -0.48679,0.92552 -0.38964,2.28875 -2.05672,13.27878 -2.68614,16.66875 -8.81652,0.0687 -7.12876,-0.41341 -5.30356,-0.10336 -5.4069,-0.10335 -8.26513,-0.13746 -5.51026,-0.1726 -5.26893,-0.20619 -5.51025,-0.2067 -5.47564,-0.31006 -5.3728,-0.41341 -8.12767,-0.68885 -8.74417,-0.74155 -7.84138,-0.63304 -13.53922,-0.92553 v -68.57462 l -4.58939,-50.21192 -1.93735,-31.70815 0.62891,-0.93947 1.23971,-0.82683 1.3777,-0.44751 1.13636,-0.31006 0.0341,-0.55087 -8.88473,0.75757 -9.33328,0.92966 -4.31653,0.55966 -0.19482,1.022669 -0.4868,0.146251 -11.46338,81.475649 v 14.580501 l -9.05732,-1.73478 -0.34469,-0.82682 -4.13256,-0.41289 h -7.02541 l -0.82631,0.275429 -0.7922,0.0341 -0.21962,0.361731 -0.0388,8.88938 0.59014,0.8046 1.11673,-0.0739 1.4857,0.31677 h 3.70158 l 3.96927,-0.29197 2.48357,-0.5116 0.31677,-0.87643 8.77311,-1.14566 v 16.03674 l -9.05733,-1.73477 -0.34468,-0.82683 -4.13256,-0.41289 h -7.02541 l -0.82631,0.27543 -0.7922,0.0341 -0.21962,0.36173 -0.0388,8.8899 0.59014,0.80409 1.11673,-0.0734 1.4857,0.31677 h 3.70158 l 3.96927,-0.29197 2.48357,-0.5116 0.31677,-0.87643 8.77311,-1.14566 v 16.03674 l -9.05733,-1.73478 -0.34468,-0.82682 -4.13256,-0.41289 h -7.02542 l -0.8263,0.27543 -0.7922,0.0341 -0.21963,0.36173 -0.0388,8.8899 0.59015,0.80409 1.11673,-0.0734 1.48569,0.31677 h 3.70159 l 3.96926,-0.29197 2.48357,-0.5116 0.31678,-0.87695 8.77311,-1.14515 v 7.76904 H 218.0169 l -20.52537,0.40773 -2.20451,0.2067 -4.06332,0.75758 -5.09736,1.37769 -2.13476,1.03301 -1.72237,1.17099 -0.92553,0.69402 -0.78755,0.89865 -0.24133,0.90434 0.18087,0.80977 0.6718,0.89555 1.37769,1.17047 2.4107,1.24024 3.09904,1.17098 4.20181,0.964285 5.44153,0.8263 10.05572,0.13798 12.05352,0.13746 h 20.93878 l 26.51827,0.2067 v 47.52527 6.94066 47.52526 l -26.51827,0.20693 h -20.93878 l -12.05352,0.13746 -10.05572,0.13797 -5.44153,0.82631 -4.20181,0.96428 -3.09904,1.17099 -2.4107,1.24024 -1.37769,1.17047 -0.6718,0.89555 z" /></g></svg>
