<?xml version="1.0" encoding="UTF-8" standalone="no"?>
<!-- Created with Inkscape (http://www.inkscape.org/) -->

<svg
   width="3643.2344"
   height="900.89648"
   viewBox="0 0 963.93908 238.3622"
   version="1.1"
   id="svg1"
   xml:space="preserve"
   inkscape:version="1.3 (0e150ed6c4, 2023-07-21)"
   sodipodi:docname="X-15.svg"
   inkscape:export-filename="X-15.png"
   inkscape:export-xdpi="96"
   inkscape:export-ydpi="96"
   xmlns:inkscape="http://www.inkscape.org/namespaces/inkscape"
   xmlns:sodipodi="http://sodipodi.sourceforge.net/DTD/sodipodi-0.dtd"
   xmlns="http://www.w3.org/2000/svg"
   xmlns:svg="http://www.w3.org/2000/svg"><sodipodi:namedview
     id="namedview1"
     pagecolor="#000000"
     bordercolor="#ffffff"
     borderopacity="1"
     inkscape:showpageshadow="0"
     inkscape:pageopacity="0"
     inkscape:pagecheckerboard="true"
     inkscape:deskcolor="#505050"
     inkscape:document-units="mm"
     showguides="true"
     inkscape:zoom="0.20756134"
     inkscape:cx="1804.2859"
     inkscape:cy="546.8263"
     inkscape:window-width="1600"
     inkscape:window-height="837"
     inkscape:window-x="-8"
     inkscape:window-y="-8"
     inkscape:window-maximized="1"
     inkscape:current-layer="layer1" /><defs
     id="defs1" /><g
     inkscape:label="Layer 1"
     inkscape:groupmode="layer"
     id="layer1"
     transform="translate(-7.5096191,-13.110828)"><path
       id="path1"
       style="fill:#ffffff;fill-opacity:1;stroke:none;stroke:none;stroke-width:25.8625;stroke-linecap:round;stroke-linejoin:round;paint-order:markers stroke fill"
       d="m 786.12049,13.110828 c 0,0 -41.37809,61.776231 -55.36509,82.756705 C 590.07365,95.365099 444.38198,93.016221 368.66484,92.289974 l 3.25871,-5.431193 h 8.44806 v -2.472717 h -16.27807 l -6.82749,7.775752 c -8.17144,-0.06684 -27.85208,-0.374137 -33.29978,-0.374137 -53.61684,-12.821442 -129.96313,-13.40435 -137.53941,-13.40435 -7.5763,0 -48.95411,23.894661 -48.95411,23.894661 0,0 -7.46172,1.09864 -13.24932,1.94872 l -3.47266,-4.386809 h -9.2723 v 1.854149 h 7.62382 l 1.04386,3.13263 C 85.832454,109.97224 7.5096191,122.5823 7.5096191,130.83491 c 0,10.49024 180.6660009,43.70916 269.8331409,47.2059 8.55938,0.33567 21.51026,0.65951 34.52503,0.98237 l 7.71942,10.03556 10.92026,0.41238 v -1.64848 l -4.94491,-0.61805 -4.1429,-7.90959 c 128.42396,2.91218 406.4217,5.15679 406.4217,5.15679 l 41.37835,67.02123 h 150.36034 v -67.02123 c 33.21917,-0.58279 44.29238,-2.91403 44.29238,-2.91403 v -6.99338 c 0,0 7.57628,-6.99362 7.57628,-31.47094 0,-24.47727 -6.99388,-29.72222 -6.99388,-29.72222 v -5.82807 c 0,0 -9.90742,-3.49667 -43.12657,-4.66225 V 13.110828 Z" /></g></svg>
