<?xml version="1.0" encoding="UTF-8" standalone="no"?>
<!-- Created with Inkscape (http://www.inkscape.org/) -->

<svg
   width="40.581635mm"
   height="122.25519mm"
   viewBox="0 0 40.581635 122.25519"
   version="1.1"
   id="svg1"
   xml:space="preserve"
   inkscape:version="1.3 (0e150ed6c4, 2023-07-21)"
   sodipodi:docname="Jalapeno-front.svg"
   xmlns:inkscape="http://www.inkscape.org/namespaces/inkscape"
   xmlns:sodipodi="http://sodipodi.sourceforge.net/DTD/sodipodi-0.dtd"
   xmlns="http://www.w3.org/2000/svg"
   xmlns:svg="http://www.w3.org/2000/svg"><sodipodi:namedview
     id="namedview1"
     pagecolor="#505050"
     bordercolor="#ffffff"
     borderopacity="1"
     inkscape:showpageshadow="0"
     inkscape:pageopacity="0"
     inkscape:pagecheckerboard="1"
     inkscape:deskcolor="#505050"
     inkscape:document-units="mm"
     inkscape:zoom="1.1741442"
     inkscape:cx="43.010049"
     inkscape:cy="233.7873"
     inkscape:window-width="1600"
     inkscape:window-height="837"
     inkscape:window-x="-8"
     inkscape:window-y="-8"
     inkscape:window-maximized="1"
     inkscape:current-layer="layer1" /><defs
     id="defs1" /><g
     inkscape:label="Layer 1"
     inkscape:groupmode="layer"
     id="layer1"
     transform="translate(-90.283334,-71.747273)"><path
       style="fill:#555555;fill-opacity:1"
       d="m 120.20903,193.75527 c -4.75619,-2.04585 -10.22986,-3.38307 -13.48194,-7.7829 -4.13809,-5.15485 -5.96909,-11.67266 -8.17973,-17.80101 -2.279825,-7.1678 -4.008199,-14.46815 -5.74845,-21.77998 -2.388243,-9.13529 -3.261258,-18.72108 -1.80694,-28.08973 0.912799,-5.47732 0.61916,-12.20587 5.299047,-16.08213 4.656913,-0.60451 7.903813,-3.532926 7.463803,-8.536837 -0.0251,-5.172058 1.87192,-10.042099 3.36583,-14.90571 1.33857,-2.735339 3.43417,-10.55122 6.86852,-5.198292 -4.00115,4.982745 -5.55232,11.597648 -5.69774,17.867854 1.18215,3.365348 1.68562,7.76452 5.47726,8.902315 4.38167,1.63939 8.121,5.30084 8.69642,10.15173 1.95566,9.69245 2.40731,19.61368 3.63037,29.41285 0.84173,10.93668 2.21439,21.83087 3.08181,32.75571 0.38941,4.19068 1.69151,8.29676 1.68767,12.50658 -1.11762,3.17407 -1.85619,7.46797 -5.46977,8.03333 -1.74631,-0.0219 -3.49536,1.33622 -5.18616,0.54622 z"
       id="path1" /></g></svg>
