<?xml version="1.0" encoding="UTF-8" standalone="no"?>
<!-- Created with Inkscape (http://www.inkscape.org/) -->

<svg
   width="148.86351mm"
   height="141.37395mm"
   viewBox="0 0 148.86351 141.37395"
   version="1.1"
   id="svg1"
   xml:space="preserve"
   inkscape:version="1.3 (0e150ed, 2023-07-21)"
   sodipodi:docname="H.svg"
   xmlns:inkscape="http://www.inkscape.org/namespaces/inkscape"
   xmlns:sodipodi="http://sodipodi.sourceforge.net/DTD/sodipodi-0.dtd"
   xmlns="http://www.w3.org/2000/svg"
   xmlns:svg="http://www.w3.org/2000/svg"><sodipodi:namedview
     id="namedview1"
     pagecolor="#505050"
     bordercolor="#ffffff"
     borderopacity="1"
     inkscape:showpageshadow="0"
     inkscape:pageopacity="0"
     inkscape:pagecheckerboard="1"
     inkscape:deskcolor="#505050"
     inkscape:document-units="mm"
     inkscape:zoom="0.65008588"
     inkscape:cx="310.72818"
     inkscape:cy="318.41947"
     inkscape:current-layer="layer1" /><defs
     id="defs1" /><g
     inkscape:label="Layer 1"
     inkscape:groupmode="layer"
     id="layer1"
     transform="translate(-27.005599,-52.64326)"><path
       style="fill:#555555;fill-opacity:1"
       d="m 80.077878,193.99151 c -7.340697,-0.35214 -12.937156,-5.07319 -19.23452,-9.88913 -5.775512,-4.41685 -11.917015,-7.18577 -17.665596,-11.11128 -6.687406,-4.5666 -12.896882,-13.39891 -8.643356,-20.89224 3.796207,-6.68768 -6.785303,-2.30633 -7.470679,-9.58242 -0.775994,-8.23811 6.35955,-12.23358 12.913865,-10.63999 4.345389,1.05652 3.692809,-4.24881 4.485096,-7.09241 0.881687,-3.16447 0.349765,-9.73161 -2.464253,-10.09375 -6.799117,-0.87498 -15.645983,-1.00583 -14.93229,-10.25403 0.478503,-6.200558 9.436266,-5.263375 8.375376,-7.759838 -3.238361,-7.620442 -1.09313,-16.89713 5.798342,-21.480879 6.371512,-4.237906 12.732682,-7.856467 19.388877,-12.463278 6.580576,-4.554474 11.92496,-9.555913 19.502206,-10.039555 7.228312,-0.46137 15.19202,2.27514 18.067161,9.496405 1.320055,3.315479 3.011033,12.254435 4.759793,3.976061 1.48053,-7.008617 7.21792,-12.949623 14.72495,-13.388049 8.89678,-0.519591 16.51295,4.035415 24.30753,10.072881 6.4702,5.011636 13.30237,8.238181 19.70363,12.48868 7.02365,4.663772 1.13015,14.609484 5.35608,21.849215 4.17827,7.158087 12.1996,11.854797 4.85381,16.298387 -3.71282,2.24595 -10.36318,-1.04113 -12.00226,1.92731 -1.86809,3.38319 -1.61568,7.2561 -1.14131,11.43325 0.70313,6.19152 4.06516,5.45054 8.30443,5.1132 7.74237,-0.6161 11.59625,9.03395 6.4823,14.47899 -2.72831,2.90494 -8.52375,0.0589 -5.47814,5.63141 3.76523,6.88916 -0.81046,15.52167 -7.04746,19.7266 -6.15328,4.14849 -12.81866,6.90565 -18.98602,11.9042 -8.244,6.68164 -16.78361,11.01394 -26.22519,9.83129 -8.31009,-1.04092 -9.71435,-10.27747 -13.97155,-16.25594 -1.54861,-2.17474 -3.730844,11.77505 -9.474512,14.24161 -3.924474,1.68533 -8.103811,2.67394 -12.28631,2.4733 z m 5.2245,-12.32311 c 3.201522,-3.04205 6.787273,-15.79123 4.574395,-14.82244 -5.272249,2.30818 -10.235718,5.03468 -15.307335,8.17955 -9.260464,5.74234 7.766574,9.4615 10.73294,6.64289 z m 38.564042,0.30053 c 4.78729,-1.09438 10.57951,-4.13546 3.69764,-7.32082 -5.04525,-2.33526 -15.43012,-11.14721 -15.89874,-7.60527 -0.8415,6.36023 2.0383,17.24932 12.2011,14.92609 z M 72.140378,169.27461 c 4.695288,-1.04432 7.708628,-1.14491 6.271919,-7.08001 -0.884674,-3.65462 10.644379,-6.30944 2.180975,-5.43642 -6.396557,0.65982 -12.117588,-11.96683 -16.419594,-5.9188 -3.82946,5.3837 2.025346,13.30679 4.88868,19.23957 0.461081,0.95535 2.042913,-0.57411 3.07802,-0.80434 z m 62.123552,-0.97987 c 0.75818,-5.11934 6.49441,-14.26533 2.90854,-16.40685 -6.34223,-3.78764 -15.26861,-0.90703 -18.51471,4.71245 -2.78463,4.8206 3.84487,8.18869 5.85594,10.79978 1.63971,2.12894 9.14507,4.98078 9.75023,0.89462 z M 54.024258,160.0725 c -0.604878,-5.31315 -3.136145,-15.52 -8.157533,-6.29318 -4.149073,7.62394 5.296878,11.75478 9.848632,15.28594 0.99066,0.76853 -1.443821,-6.82071 -1.691099,-8.99276 z M 154.5522,150.56766 c -5.39394,-3.31845 -5.0205,8.17922 -6.394,11.74927 -1.40443,3.65046 -3.45492,9.82896 1.63976,4.5293 3.25077,-3.38156 11.34746,-6.72783 7.42094,-12.53338 m -65.553572,-8.50769 c 0.333416,-4.77697 0.447753,-6.11672 -4.945931,-4.76486 -3.719867,0.93234 -5.896901,1.4829 -1.217559,2.67083 1.131375,0.28722 5.92296,5.54018 6.16349,2.09403 z m 20.286522,0.87641 c 2.60021,-1.87419 -0.92713,-9.2455 -1.26386,-5.24667 -0.11465,1.36156 -0.68323,6.6501 1.26386,5.24667 z m -8.91302,-17.91049 c 3.21014,-1.56553 8.51737,1.49751 8.20284,-4.36889 -0.24823,-4.62991 -0.17076,-5.26034 -4.85731,-5.84034 -4.75799,-0.58884 -7.995336,0.43343 -12.443267,0.0342 -4.378154,-0.39297 -2.617351,5.56981 -2.337234,8.17315 3.79173,0.98198 10.524681,2.56311 11.434971,2.00188 z M 91.917928,104.53016 c 3.559226,0 -0.281307,-6.942961 -2.815437,-2.28888 -2.038362,3.74357 -0.650086,4.53808 3.066912,3.83556 1.608507,-0.30401 -0.589914,-1.1488 -0.251505,-1.54668 6e-6,-10e-6 3e-5,0 3e-5,0 z m 24.666982,0.95129 c 8.53408,-1.17591 -5.11489,-7.063058 -5.60558,-5.625867 -1.24345,3.641967 -2.8223,6.795587 3.88918,5.863317 0,0 0.56515,-0.0787 0.84776,-0.11776 0.28952,-0.0401 0.86864,-0.11969 0.86864,-0.11969 z M 51.739388,95.660326 c 2.492397,-5.881643 10.066029,-15.322973 4.58727,-18.607604 -5.397521,-3.235927 -16.01848,9.174157 -9.906072,16.724553 1.822223,2.250914 3.556546,6.041681 5.318802,1.883051 z m 102.561852,0.833768 c 7.18291,-3.793457 3.05304,-12.109325 -3.24326,-15.717346 -2.54667,-1.459339 -6.49471,-5.342427 -3.87777,-0.245883 2.15502,4.196946 1.55968,18.900305 7.12103,15.963229 z M 67.880088,95.318856 c 6.402467,0.748485 14.641824,-2.851489 13.209882,-7.032417 -2.038948,-5.953237 0.843837,-8.507332 -7.049257,-10.412179 -9.570316,-2.309613 -6.54482,9.994527 -9.376107,15.332358 -2.137494,4.029822 0.736509,1.822432 3.215482,2.112238 z m 70.164992,-2.232187 c -2.57615,-4.706614 -1.08164,-16.784629 -6.77033,-15.975383 -4.30814,0.612856 -8.89798,1.088906 -6.88642,6.795217 1.53779,4.362348 -11.03665,6.694443 -2.71482,6.834566 5.59219,0.09416 18.08081,9.764991 16.80282,4.159539 0,0 -0.12345,-0.552291 -0.18869,-0.827621 -0.0781,-0.329447 2.53432,4.087038 -0.24256,-0.986318 z M 90.784158,78.644336 C 88.692171,72.178202 87.610989,62.086042 77.605753,64.891267 c -6.102077,1.710874 -8.152579,4.839852 -1.561084,7.644144 5.345784,2.274315 16.459362,13.206896 15.212539,7.717207 0,0 -0.06697,-0.328747 -0.111376,-0.490382 -0.103754,-0.377657 -0.361674,-1.1179 -0.361674,-1.1179 z m 21.974932,1.180551 c 3.80763,-4.156155 9.63442,-5.225971 14.75038,-7.800073 7.27968,-3.662778 1.28285,-6.301206 -3.88281,-7.380042 -9.40744,-1.964724 -9.58201,8.671378 -11.78247,14.486559 -2.20287,5.821544 -0.45677,0.757732 -0.21237,0.990947 0.28115,0.268283 -2.62989,3.803674 1.12727,-0.297391 z"
       id="path1"
       sodipodi:nodetypes="sssssssssssssssssssssssssssssssssssssssssssssssssssssscsscsssssssssssssssssssssssssssssssssssssssssssssssssssssss" /></g></svg>
