<?xml version="1.0" encoding="UTF-8" standalone="no"?>
<!-- Created with Inkscape (http://www.inkscape.org/) -->

<svg
   width="243.12302mm"
   height="152.79837mm"
   viewBox="0 0 243.12302 152.79837"
   version="1.1"
   id="svg1"
   xml:space="preserve"
   inkscape:version="1.3 (0e150ed6c4, 2023-07-21)"
   sodipodi:docname="Continental_United_States-top.svg"
   xmlns:inkscape="http://www.inkscape.org/namespaces/inkscape"
   xmlns:sodipodi="http://sodipodi.sourceforge.net/DTD/sodipodi-0.dtd"
   xmlns="http://www.w3.org/2000/svg"
   xmlns:svg="http://www.w3.org/2000/svg"><sodipodi:namedview
     id="namedview1"
     pagecolor="#505050"
     bordercolor="#ffffff"
     borderopacity="1"
     inkscape:showpageshadow="0"
     inkscape:pageopacity="0"
     inkscape:pagecheckerboard="1"
     inkscape:deskcolor="#505050"
     inkscape:document-units="mm"
     inkscape:zoom="0.58707211"
     inkscape:cx="417.32522"
     inkscape:cy="329.60176"
     inkscape:window-width="1600"
     inkscape:window-height="837"
     inkscape:window-x="-8"
     inkscape:window-y="-8"
     inkscape:window-maximized="1"
     inkscape:current-layer="layer1" /><defs
     id="defs1" /><g
     inkscape:label="Layer 1"
     inkscape:groupmode="layer"
     id="layer1"
     transform="translate(5.573692,-61.389441)"><path
       style="fill:#ffffff;fill-opacity:1"
       d="m 111.23846,213.9971 c -0.21829,-0.12542 -1.14456,-0.4179 -2.05839,-0.64995 -4.78709,-1.21559 -7.77482,-3.90887 -8.18581,-7.37909 -0.12802,-1.08093 -0.33776,-1.52238 -1.028465,-2.16472 -1.1869,-1.10379 -3.62081,-5.06676 -4.45902,-7.26033 -1.20981,-3.16606 -4.46669,-5.85087 -7.61776,-6.27973 -1.656586,-0.22546 -3.498561,0.45115 -4.030957,1.48069 -0.738172,1.42747 -1.739129,2.38893 -2.487055,2.38893 -0.810164,0 -4.228934,-2.00646 -5.502853,-3.2296 -0.94432,-0.90668 -1.246408,-1.56349 -1.654814,-3.59792 -0.344031,-1.71376 -0.950554,-2.62968 -3.787793,-5.72006 -1.212574,-1.32075 -2.601181,-2.90086 -3.085793,-3.51134 -1.106032,-1.39331 -1.740806,-1.61004 -5.765414,-1.96849 -2.882915,-0.25677 -3.327718,-0.24044 -3.914005,0.14371 -0.363801,0.23837 -0.661456,0.66176 -0.661456,0.94086 0,0.27909 -0.121293,0.58241 -0.26954,0.67403 -0.148247,0.0916 -3.333169,-0.33749 -7.077604,-0.95359 -7.614392,-1.25286 -6.389575,-0.79144 -13.422647,-5.05663 -6.315408,-3.82996 -9.22303,-5.77036 -10.213884,-6.81621 -0.83107,-0.87719 -1.187698,-1.04391 -2.778125,-1.29876 -6.732934,-1.07888 -8.13617,-1.34397 -8.374142,-1.58194 -0.147125,-0.14712 -0.426365,-1.18106 -0.620533,-2.29764 -0.425766,-2.44841 -1.253935,-3.94766 -3.021462,-5.46982 -0.7247,-0.6241 -1.317695,-1.34159 -1.317766,-1.59442 -7.2e-5,-0.25484 -0.501236,-0.77081 -1.124609,-1.15783 -0.618464,-0.38397 -1.623706,-1.26012 -2.233872,-1.94699 -0.677697,-0.7629 -1.861698,-1.64177 -3.042709,-2.25856 -1.063323,-0.55533 -2.024409,-1.13919 -2.135744,-1.29747 -0.111336,-0.15828 -0.133478,-1.00216 -0.0492,-1.87528 0.137825,-1.42795 0.04912,-1.84143 -0.882627,-4.11405 -0.569718,-1.38961 -1.363899,-3.51159 -1.764846,-4.71553 l -0.728995,-2.18897 0.557279,-0.5932 c 0.747778,-0.79597 0.705464,-1.17938 -0.277707,-2.51629 -0.95614,-1.30014 -1.260872,-3.12364 -0.734098,-4.3928 0.280557,-0.67594 0.344435,-0.71521 0.430403,-0.26458 0.280736,1.47158 0.381023,1.72872 0.617271,1.58271 0.280667,-0.17347 0.35473,-3.00409 0.09623,-3.67774 -0.224286,-0.58448 -0.633151,-0.52311 -0.633151,0.095 0,1.35661 -1.093137,0.48031 -1.465758,-1.17501 -0.09827,-0.43656 -0.53845,-1.86475 -0.978173,-3.17375 -0.798448,-2.37689 -0.799053,-2.38335 -0.461966,-4.93019 0.358315,-2.70722 0.236914,-4.28774 -0.428123,-5.57378 -0.399319,-0.7722 -0.382334,-0.82935 0.758389,-2.55191 1.64802,-2.48861 2.019414,-3.61897 2.588617,-7.87861 0.572886,-4.287194 0.876333,-5.328697 2.049226,-7.033438 1.45222,-2.11073 4.215021,-7.447906 5.885714,-11.370019 0.885459,-2.078699 1.729293,-3.853225 1.875187,-3.943393 0.145894,-0.09017 0.555221,-0.108512 0.909616,-0.04076 0.354395,0.06775 0.644354,0.01405 0.644354,-0.119335 0,-0.400966 -0.603479,-0.877511 -1.11125,-0.877511 -0.596939,0 -0.629492,-0.843073 -0.06577,-1.703416 0.291217,-0.444454 0.482546,-1.806216 0.658532,-4.687045 0.25514,-4.176531 0.469251,-6.044955 0.692718,-6.044955 0.07024,0 0.684855,0.464002 1.365806,1.031117 0.680952,0.567114 2.101297,1.46158 3.156323,1.987701 1.055026,0.526121 1.918229,1.05636 1.918229,1.178307 0,0.121948 -0.68461,0.852449 -1.521354,1.623336 -1.644498,1.515062 -1.542037,2.188675 0.124023,0.815368 1.099555,-0.906346 1.733981,-1.096366 1.017615,-0.30479 -0.295486,0.326508 -0.398944,0.708026 -0.287347,1.059636 0.181077,0.570524 0.09999,0.630579 -1.251166,0.926642 -0.793432,0.173855 -0.981709,0.862198 -0.306681,1.121231 0.231509,0.08884 0.79956,-0.01904 1.262336,-0.239718 1.297713,-0.618836 2.266548,-3.221292 2.646749,-7.109611 l 0.3002,-3.070156 1.058333,0.3768 c 3.521597,1.253803 17.579856,5.568047 21.764387,6.679127 14.455271,3.838174 27.926841,6.343396 43.37051,8.065339 14.019221,1.563119 24.036377,2.266366 32.194977,2.260224 5.5276,-0.0042 5.98992,-0.07653 5.98992,-0.937672 0,-0.338242 0.13048,-0.695631 0.28997,-0.794198 0.44011,-0.272006 0.99557,0.43202 1.37511,1.742932 0.25211,0.870772 0.5108,1.228124 0.99165,1.369859 3.70312,1.091537 3.6883,1.08919 4.79173,0.758594 1.01681,-0.304641 1.12182,-0.283547 1.79389,0.360339 0.86834,0.831913 4.3005,2.084925 5.57431,2.035065 3.63499,-0.142282 6.61459,0.06296 6.61459,0.455634 0,0.10561 -0.80368,0.653649 -1.78594,1.217865 -2.96832,1.705013 -6.90287,5.849718 -6.21044,6.542152 0.21233,0.212327 0.84249,0.02989 2.31933,-0.67146 1.11529,-0.529648 2.04521,-0.963075 2.06649,-0.96317 0.0213,-9.6e-5 0.0387,0.446389 0.0387,0.992187 0,0.911794 0.0653,0.998754 0.80408,1.071108 1.15857,0.113462 4.49966,-1.649265 7.64413,-4.032972 1.44506,-1.095443 2.6736,-1.945499 2.73008,-1.889014 0.0565,0.05648 -0.32216,0.6593 -0.84144,1.339589 -1.35508,1.77525 -1.27694,2.151858 0.44492,2.144274 1.11088,-0.0049 1.654,0.161582 2.71198,0.831261 1.96774,1.245534 2.87779,1.32206 4.63021,0.38935 0.80036,-0.425987 2.1354,-0.971153 2.96675,-1.21148 0.83135,-0.240326 1.69455,-0.507184 1.91823,-0.593018 0.28353,-0.1088 0.40669,0.0065 0.40669,0.380895 0,0.599447 1.51612,1.256734 2.37858,1.031194 0.33943,-0.08876 0.73948,0.179976 1.29271,0.868392 0.44063,0.548313 0.72751,1.070577 0.6375,1.160587 -0.09,0.09001 -0.63121,0.163654 -1.20266,0.163654 -0.82343,0 -1.06831,0.112038 -1.18022,0.539985 -0.0777,0.296993 -0.21534,0.502246 -0.30596,0.456119 -0.0906,-0.04613 -0.61407,-0.312529 -1.16325,-0.592004 l -0.99851,-0.508136 -1.45475,0.713476 c -0.80011,0.392412 -1.61332,0.713476 -1.80713,0.713476 -0.19381,0 -0.68411,0.307441 -1.08956,0.683202 -0.54393,0.504093 -0.79076,0.596528 -0.94152,0.352588 -0.51862,-0.839147 -3.26502,2.979202 -4.44794,6.184026 -0.66621,1.80492 -0.66267,1.77602 -0.21784,1.77602 0.48369,0 1.60377,-1.23033 2.40875,-2.64584 0.74977,-1.318423 0.89804,-1.085168 0.29092,0.45767 -0.7455,1.89451 -1.24477,4.97869 -1.38216,8.53817 -0.11805,3.05818 -0.0562,3.91315 0.43033,5.94487 0.54962,2.29541 1.42334,4.20004 2.23616,4.87461 0.8354,0.69332 2.56648,-0.75255 3.76728,-3.14657 1.10896,-2.21094 1.12956,-3.69816 0.0922,-6.65674 -0.74777,-2.13263 -0.86578,-2.81592 -0.86092,-4.98492 0.007,-3.12902 0.66526,-5.375874 1.61434,-5.510417 0.33543,-0.04755 0.76612,0.04321 0.95708,0.2017 0.54192,0.449757 0.9526,-0.261538 0.90165,-1.561667 -0.0318,-0.811507 0.0798,-1.197875 0.39724,-1.375531 0.24279,-0.135877 0.44145,-0.514976 0.44145,-0.842443 0,-0.327467 0.14287,-0.73827 0.3175,-0.912895 0.48772,-0.487721 2.21871,-0.37728 3.31756,0.211667 0.54302,0.291042 1.26612,0.529167 1.60689,0.529167 0.34077,0 0.95742,0.337831 1.37032,0.750735 1.35153,1.351533 1.4213,4.509584 0.15319,6.934794 -1.39778,2.6732 -0.21548,3.59957 1.68976,1.32398 1.30976,-1.56438 1.92761,-1.67488 2.66533,-0.4767 1.25853,2.04406 2.31606,6.81302 1.5108,6.81302 -0.44382,0 -0.91086,0.78591 -1.67759,2.82292 -0.90787,2.412 -0.85397,2.93203 0.35717,3.44581 0.54571,0.23149 1.65611,0.43234 2.46758,0.44633 2.65124,0.0457 6.58052,-2.34503 11.41415,-6.94486 1.29717,-1.23442 2.54006,-2.59554 2.76199,-3.0247 0.36716,-0.71 0.36186,-0.85766 -0.0588,-1.63878 -0.89823,-1.66791 0.12481,-2.45173 3.63706,-2.78656 3.53279,-0.33679 5.26329,-1.0536 6.57769,-2.72459 0.4902,-0.62319 0.53785,-0.921233 0.38118,-2.384236 -0.17037,-1.590848 -0.12736,-1.774834 0.88582,-3.789952 1.73279,-3.446344 2.30215,-3.769292 10.89323,-6.178785 3.52711,-0.989227 4.8864,-1.614114 5.31858,-2.445019 0.17006,-0.326947 0.69388,-0.953097 1.16406,-1.391445 1.07115,-0.998642 1.39842,-2.396548 1.73363,-7.405087 0.22386,-3.344802 0.74312,-6.534041 1.12622,-6.917143 0.0802,-0.08023 0.49682,0.06143 0.92574,0.314806 0.76657,0.452819 0.79618,0.448243 1.73543,-0.268161 1.80578,-1.377335 2.90579,-0.526471 4.67451,3.615754 0.83718,1.960624 1.46841,3.020888 2.25232,3.783156 0.59903,0.582499 1.22717,1.317301 1.39588,1.632895 0.1687,0.315593 0.66476,0.652443 1.10235,0.748554 0.93688,0.205772 1.58661,1.014825 1.39707,1.739637 -0.17051,0.652022 -2.89047,3.15571 -3.4283,3.15571 -0.22199,0 -0.62548,0.282046 -0.89664,0.626769 -0.27116,0.344723 -0.83949,0.696064 -1.26297,0.780759 -0.63895,0.127791 -0.80174,0.32345 -0.9568,1.150026 -0.2695,1.436534 -0.8729,2.46953 -1.44252,2.46953 -0.30595,0 -0.55683,0.251548 -0.65971,0.661458 -0.0913,0.363802 -0.32029,0.661458 -0.50884,0.661458 -0.93663,0 -1.87703,4.03121 -1.72441,7.391988 l 0.095,2.092538 1.58646,1.46351 c 0.87255,0.80494 1.73947,1.46889 1.92649,1.47545 0.18702,0.007 0.66327,-0.19438 1.05833,-0.44652 0.68879,-0.43963 0.70279,-0.43891 0.3407,0.0174 -0.47202,0.59489 -1.81118,1.30318 -2.11219,1.11714 -0.12392,-0.0766 -0.67274,0.21635 -1.21962,0.65095 -0.9008,0.71587 -1.02441,0.74903 -1.31429,0.35259 -0.4033,-0.55154 -0.92943,-0.24906 -0.92943,0.53433 0,0.95477 -0.50568,1.37403 -3.25927,2.70226 -1.94823,0.93974 -3.09273,1.71527 -4.57706,3.10148 -1.66031,1.55054 -2.747,2.91627 -2.747,3.45236 0,0.0656 0.42881,0.3723 0.95291,0.68153 l 0.95291,0.56223 -0.11217,2.17588 c -0.10851,2.10502 -0.79787,4.46199 -1.61828,5.53305 -0.3174,0.41437 -0.44014,0.39828 -1.69319,-0.22184 -2.25934,-1.11814 -2.45803,-0.76519 -0.76452,1.35807 0.81049,1.01616 1.54274,2.16227 1.62722,2.54692 0.20025,0.91174 -0.57874,5.38145 -1.12046,6.42904 -0.23172,0.44809 -0.51682,1.11314 -0.63356,1.47789 -0.14216,0.4442 -0.201,0.008 -0.1782,-1.3212 0.0404,-2.35326 -0.60369,-3.74343 -1.83989,-3.9713 -0.56803,-0.1047 -0.81237,-0.37078 -1.09334,-1.19062 -0.40128,-1.17087 -0.49456,-4.25286 -0.1721,-5.686 L 210,122.82763 l -0.59222,0.52854 c -1.59546,1.42389 -1.8049,4.02678 -0.53929,6.70206 l 0.7921,1.67435 -0.85845,-0.17664 c -0.47215,-0.0971 -1.11336,-0.23517 -1.4249,-0.30672 -0.66976,-0.15382 -1.1171,0.39943 -0.59193,0.73206 0.20054,0.12702 0.66228,0.23322 1.02608,0.23599 1.4543,0.0111 3.16748,1.81356 2.07108,2.17903 -0.20459,0.0682 -0.11204,0.37138 0.2719,0.89069 0.32015,0.43301 0.65392,1.22999 0.74172,1.77106 l 0.15965,0.98376 -0.82842,-0.16569 c -0.45564,-0.0911 -0.82843,-0.094 -0.82843,-0.006 0,0.37579 1.38711,1.01827 2.56096,1.18618 1.36027,0.19458 1.75222,0.64126 2.1034,2.39714 0.14517,0.72589 0.029,0.94581 -0.99309,1.8801 l -1.15749,1.05805 h 1.60943 c 0.88519,0 1.67984,0.0704 1.76589,0.15646 0.16042,0.16042 -0.43862,2.41875 -0.71486,2.695 -0.0844,0.0845 -0.7395,0.17987 -1.45566,0.21205 -0.71616,0.0322 -1.43104,0.13818 -1.58862,0.23557 -0.40776,0.25201 -0.0763,0.66967 0.53149,0.66967 0.62099,0 0.63338,0.17775 0.10118,1.45149 -0.49039,1.17366 -0.36623,1.39906 0.45414,0.82445 0.75398,-0.52811 1.28115,-0.54358 1.28115,-0.0376 0,0.22531 -0.46854,0.52627 -1.12448,0.72231 -1.54718,0.46238 -4.1671,3.13742 -4.97,5.07458 -0.5672,1.36848 -0.68412,1.47867 -2.12719,2.00484 -1.25682,0.45826 -1.67165,0.77517 -2.3446,1.79113 -0.44968,0.6789 -0.93885,1.68463 -1.08704,2.23496 -0.14819,0.55032 -0.85212,1.74799 -1.56429,2.66149 -1.50043,1.92456 -1.6937,2.12872 -3.23052,3.41255 -2.15223,1.79795 -3.98133,6.5104 -3.96795,10.22299 0.0115,3.20753 0.82209,5.38521 3.47051,9.32431 1.48822,2.21348 3.30933,5.31455 2.61604,4.45469 -0.19517,-0.24206 -0.48253,-0.65186 -0.63858,-0.91068 -0.17016,-0.28222 -0.35106,-0.36164 -0.45193,-0.19842 -0.22222,0.35955 0.72518,2.11394 3.45416,6.39642 l 2.24583,3.5243 -0.18729,3.2875 c -0.30881,5.42064 -0.81748,6.52813 -3.17396,6.91054 -0.91626,0.14869 -1.01014,0.11458 -0.84795,-0.30809 0.13795,-0.35948 -0.22191,-0.85429 -1.477,-2.03086 -3.54501,-3.32325 -4.77184,-4.7035 -5.21371,-5.8657 -0.16642,-0.43772 -0.46852,-0.70762 -0.79204,-0.70762 -0.31939,0 -0.81963,-0.43777 -1.28492,-1.12448 -1.07452,-1.58584 -1.16219,-1.95599 -0.71609,-3.02366 0.21684,-0.51896 0.39425,-1.10762 0.39425,-1.30813 0,-0.5549 -1.00998,-0.43481 -1.38432,0.1646 -0.18176,0.29105 -0.42084,0.52917 -0.5313,0.52917 -0.11045,0 -0.17959,-1.27992 -0.15364,-2.84427 0.0565,-3.4079 -0.31349,-4.4443 -1.84041,-5.15465 -0.54182,-0.25206 -1.81856,-1.18884 -2.8372,-2.08174 -2.00869,-1.76072 -3.27085,-2.44538 -4.02011,-2.18072 -0.2628,0.0928 -1.09016,0.63209 -1.8386,1.19836 -1.82498,1.38079 -4.06317,2.02177 -4.06317,1.16363 0,-0.20591 -0.53386,-0.84431 -1.18635,-1.41866 -1.33596,-1.17595 -2.20768,-1.38195 -5.84804,-1.38195 -1.84569,0 -2.40064,0.10773 -3.46203,0.67208 -1.64448,0.87438 -2.21346,0.76934 -2.84535,-0.52528 -0.45387,-0.92989 -0.54051,-0.99144 -0.79375,-0.56394 -0.81887,1.38237 -1.03322,1.49199 -3.39053,1.73407 -1.6703,0.17153 -2.61281,0.41656 -3.39385,0.88232 -1.06894,0.63744 -1.09943,0.63999 -2.65802,0.22238 -1.81001,-0.48496 -2.43278,-0.27969 -2.56726,0.8462 -0.083,0.6947 -0.0685,0.70092 1.6316,0.70092 1.13664,0 1.75278,0.11158 1.82636,0.33073 0.0867,0.25831 0.26529,0.24856 0.8154,-0.0445 0.3874,-0.20637 0.7648,-0.31478 0.83867,-0.2409 0.0739,0.0739 -0.16407,0.69551 -0.52876,1.38141 -0.3647,0.6859 -0.66309,1.30456 -0.66309,1.37479 0,0.0702 0.56316,0.36909 1.25146,0.66413 0.68831,0.29504 1.34133,0.67777 1.45116,0.8505 0.60679,0.95428 -0.3301,1.19464 -1.4329,0.36761 -0.827,-0.6202 -2.93618,-1.77335 -3.24355,-1.77335 -0.0786,0 -0.14466,0.38695 -0.14689,0.85989 -0.006,1.24821 -0.38326,1.75163 -0.77057,1.02794 -0.38,-0.71004 -1.20887,-0.7265 -1.80031,-0.0358 -0.72713,0.84923 -2.89615,0.51513 -3.15806,-0.48644 -0.069,-0.26404 -0.50402,-0.6965 -0.96659,-0.96102 -0.46257,-0.26452 -1.09653,-0.71101 -1.4088,-0.99219 -0.76861,-0.69209 -2.08448,-0.55772 -2.06204,0.21057 0.0118,0.40461 -0.12739,0.53066 -0.52916,0.47916 -0.29987,-0.0384 -2.10352,-0.20915 -4.00812,-0.37938 -3.2908,-0.29413 -3.57352,-0.27991 -5.68854,0.28608 -3.41327,0.91342 -3.58248,0.92501 -3.7571,0.25727 -0.25995,-0.99406 -1.09137,-0.55672 -1.26115,0.66338 -0.0807,0.58017 -0.28002,1.29798 -0.44286,1.59511 -0.50275,0.91737 -2.93052,3.03163 -3.48116,3.03163 -0.28689,0 -0.71609,0.19449 -0.9538,0.43219 -0.33682,0.33682 -0.74971,0.39943 -1.87098,0.2837 -1.45879,-0.15056 -1.83144,0.10854 -1.14434,0.79564 0.44838,0.44838 -0.004,0.93357 -0.70619,0.75734 -0.422,-0.10592 -0.69748,-0.0143 -0.86681,0.28829 -0.13652,0.24395 -0.64019,0.63159 -1.11926,0.86142 -0.47907,0.22983 -0.9249,0.58328 -0.99073,0.78543 -0.0786,0.24147 -0.005,0.29691 0.21354,0.16161 0.21907,-0.13539 0.29182,-0.08 0.21236,0.16161 -0.0665,0.20216 -0.43315,0.40466 -0.81482,0.45 -0.63463,0.0754 -0.70072,0.19742 -0.77334,1.42796 -0.0602,1.02019 -0.20735,1.41608 -0.60858,1.63735 -0.29104,0.16051 -0.57589,0.31872 -0.63301,0.35159 -0.0571,0.0329 0.0189,0.21145 0.16896,0.39687 0.15005,0.18542 0.35555,1.11103 0.45667,2.05691 0.10111,0.94589 0.3525,2.39183 0.55863,3.2132 0.59695,2.37857 0.50546,2.89467 -0.41895,2.3635 z"
       id="path1" /></g></svg>
