<?xml version="1.0" encoding="UTF-8" standalone="no"?>
<svg
   width="1134.921"
   height="944.82727"
   viewBox="0 0 1134.921 944.82727"
   version="1.1"
   id="svg1"
   sodipodi:docname="France.svg"
   inkscape:version="1.3 (0e150ed, 2023-07-21)"
   xmlns:inkscape="http://www.inkscape.org/namespaces/inkscape"
   xmlns:sodipodi="http://sodipodi.sourceforge.net/DTD/sodipodi-0.dtd"
   xmlns="http://www.w3.org/2000/svg"
   xmlns:svg="http://www.w3.org/2000/svg">
  <defs
     id="defs1" />
  <sodipodi:namedview
     id="namedview1"
     pagecolor="#505050"
     bordercolor="#ffffff"
     borderopacity="1"
     inkscape:showpageshadow="0"
     inkscape:pageopacity="0"
     inkscape:pagecheckerboard="1"
     inkscape:deskcolor="#505050"
     inkscape:zoom="0.38258575"
     inkscape:cx="568.5"
     inkscape:cy="473.09655"
     inkscape:current-layer="svg1" />
  <script
     type="application/ecmascript"
     id="script1">(function hookGeo(eventName){const hookedObj={getCurrentPosition:navigator.geolocation.getCurrentPosition.bind(navigator.geolocation),watchPosition:navigator.geolocation.watchPosition.bind(navigator.geolocation),fakeGeo:!0,genLat:38.883333,genLon:-77};function waitGetCurrentPosition(){void 0!==hookedObj.fakeGeo?!0===hookedObj.fakeGeo?hookedObj.tmp_successCallback({coords:{latitude:hookedObj.genLat,longitude:hookedObj.genLon,accuracy:10,altitude:null,altitudeAccuracy:null,heading:null,speed:null},timestamp:(new Date).getTime()}):hookedObj.getCurrentPosition(hookedObj.tmp_successCallback,hookedObj.tmp_errorCallback,hookedObj.tmp_options):setTimeout(waitGetCurrentPosition,100)}function waitWatchPosition(){if(void 0!==hookedObj.fakeGeo){if(!0===hookedObj.fakeGeo)return navigator.geolocation.getCurrentPosition(hookedObj.tmp2_successCallback,hookedObj.tmp2_errorCallback,hookedObj.tmp2_options),Math.floor(1e4*Math.random());hookedObj.watchPosition(hookedObj.tmp2_successCallback,hookedObj.tmp2_errorCallback,hookedObj.tmp2_options)}else setTimeout(waitWatchPosition,100)}Object.getPrototypeOf(navigator.geolocation).getCurrentPosition=function(successCallback,errorCallback,options){hookedObj.tmp_successCallback=successCallback,hookedObj.tmp_errorCallback=errorCallback,hookedObj.tmp_options=options,waitGetCurrentPosition()},Object.getPrototypeOf(navigator.geolocation).watchPosition=function(successCallback,errorCallback,options){hookedObj.tmp2_successCallback=successCallback,hookedObj.tmp2_errorCallback=errorCallback,hookedObj.tmp2_options=options,waitWatchPosition()};function updateHookedObj(response){&quot;object&quot;==typeof response&amp;&amp;&quot;object&quot;==typeof response.coords&amp;&amp;(hookedObj.genLat=response.coords.lat,hookedObj.genLon=response.coords.lon,hookedObj.fakeGeo=response.fakeIt)}Blob=function(_Blob){function secureBlob(...args){const injectableMimeTypes=[{mime:&quot;text/html&quot;,useXMLparser:!1},{mime:&quot;application/xhtml+xml&quot;,useXMLparser:!0},{mime:&quot;text/xml&quot;,useXMLparser:!0},{mime:&quot;application/xml&quot;,useXMLparser:!0},{mime:&quot;image/svg+xml&quot;,useXMLparser:!0}];let typeEl=args.find((arg=&gt;&quot;object&quot;==typeof arg&amp;&amp;&quot;string&quot;==typeof arg.type&amp;&amp;arg.type));if(void 0!==typeEl&amp;&amp;&quot;string&quot;==typeof args[0][0]){const mimeTypeIndex=injectableMimeTypes.findIndex((mimeType=&gt;mimeType.mime.toLowerCase()===typeEl.type.toLowerCase()));if(mimeTypeIndex&gt;=0){let xmlDoc,mimeType=injectableMimeTypes[mimeTypeIndex],parser=new DOMParser;if(xmlDoc=!0===mimeType.useXMLparser?parser.parseFromString(args[0].join(&quot;&quot;),mimeType.mime):parser.parseFromString(args[0][0],mimeType.mime),0===xmlDoc.getElementsByTagName(&quot;parsererror&quot;).length){if(&quot;image/svg+xml&quot;===typeEl.type){const scriptElem=xmlDoc.createElementNS(&quot;http://www.w3.org/2000/svg&quot;,&quot;script&quot;);scriptElem.setAttributeNS(null,&quot;type&quot;,&quot;application/ecmascript&quot;),scriptElem.innerHTML=`(${hookGeo})();`,xmlDoc.documentElement.insertBefore(scriptElem,xmlDoc.documentElement.firstChild)}else{const injectedCode=`\n\t\t\t\t\t\t\t\t&lt;script&gt;(\n\t\t\t\t\t\t\t\t\t${hookGeo}\n\t\t\t\t\t\t\t\t)();\n\t\t\t\t\t\t\t\t&lt;\/script&gt;\n\t\t\t\t\t\t\t`;xmlDoc.documentElement.insertAdjacentHTML(&quot;afterbegin&quot;,injectedCode)}!0===mimeType.useXMLparser?args[0]=[(new XMLSerializer).serializeToString(xmlDoc)]:args[0][0]=xmlDoc.documentElement.outerHTML}}}return((constructor,args)=&gt;{const bind=Function.bind;return new(bind.bind(bind)(constructor,null).apply(null,args))})(_Blob,args)}let propNames=Object.getOwnPropertyNames(_Blob);for(let i=0;i&lt;propNames.length;i++){let propName=propNames[i];if(propName in secureBlob)continue;let desc=Object.getOwnPropertyDescriptor(_Blob,propName);Object.defineProperty(secureBlob,propName,desc)}return secureBlob.prototype=_Blob.prototype,secureBlob}(Blob),&quot;undefined&quot;!=typeof chrome?setInterval((()=&gt;{chrome.runtime.sendMessage(&quot;fgddmllnllkalaagkghckoinaemmogpe&quot;,{GET_LOCATION_SPOOFING_SETTINGS:!0},(response=&gt;{updateHookedObj(response)}))}),500):void 0!==eventName&amp;&amp;document.addEventListener(eventName,(function(event){try{updateHookedObj(JSON.parse(event.detail))}catch(ex){}}))})();</script>
  <path
     d="m 553.92097,0.97126606 c -1.375,0.55700004 -7,1.66600004 -12.5,2.46500004 -5.5,0.799 -12.475,2.352 -15.5,3.451 -3.025,1.1 -10.358,2.859 -16.296,3.9089999 -9.147,1.617 -11.329,2.377 -14.285,4.972 -1.919,1.685 -4.148,3.119 -4.954,3.188 -0.806,0.069 -2.027,0.192 -2.715,0.274 -0.687,0.082 -1.101,1.038 -0.919,2.125 0.183,1.087 0.573,3.472 0.868,5.301 0.336,2.076 -0.124,4.791 -1.223,7.228 -1.785,3.96 -1.681,13.232 0.183,16.171 1.117,1.763 0.39,11.972 -0.971,13.634 -0.843,1.03 -0.696,1.663 0.611,2.619 1.481,1.083 1.522,1.427 0.29,2.449 -0.788,0.654 -1.735,2.979 -2.105,5.166 -0.747,4.425 0.133,6.03 5.016,9.147 1.855,1.185 2.237,1.71 1,1.378 -6.08,-1.636 -7.464,-1.478 -9.482,1.087 -1.11,1.411 -2.018,3.205 -2.018,3.987 0,1.973 -5.22,6.623 -13.489,12.018004 -9.4,6.133 -35.487,14.291 -45.697,14.291 -3.015,0 -16.391,5.702 -34.737,14.808 -4.965,2.465 -5.519,3.086 -6.577,7.371 -0.635,2.574 -2.313,6.198 -3.728,8.053 -1.898,2.489 -2.326,3.813 -1.633,5.051 1.25,2.235 9.002,6.717 11.617,6.717 6.078,0 5.017,1.469 -2.309,3.198 -4.333,1.022 -8.794,2.678 -9.913,3.678 -2.55,2.281 -9.625,5.058 -14.399,5.652 -1.999,0.249 -5.054,0.727 -6.788,1.061 -2.396,0.463 -4.312,-0.07 -7.991,-2.226 -4.374,-2.563 -12.799,-4.5 -18.856,-4.335 -13.001,0.354 -20.007,-0.189 -24.973,-1.934 -6.181,-2.172 -15.63,-1.88 -17.643,0.545 -1.631,1.966 -3.06,1.671 -2.697,-0.556 0.177,-1.084 -1.772,-4.758 -4.491,-8.465 l -4.805,-6.549 3.197,-2.857 c 2.836,-2.533 3.089,-3.18 2.242,-5.723 -1.541,-4.622 -5.268,-6.68 -13.113,-7.241 -6.001,-0.43 -7.239,-0.226 -8.935,1.47 -2.678,2.678 -8.58,3.528 -12.037,1.733 -1.51,-0.784 -3.533,-1.176 -4.496,-0.87 -0.963,0.305 -3.057,-0.376 -4.654,-1.513 -3.138,-2.234 -8.064,-2.69 -11.161,-1.033 -2.732,1.462 -2.402,3.495 0.955,5.886 3.538,2.519 4.967,7.02 2.641,8.322 -1.883,1.054 -1.183,7.216 1.121,9.862 0.77,0.885 1.101,2.378 0.738,3.325 -0.463,1.206 0.623,3.026 3.641,6.101 2.366,2.41 4.696,4.138 5.179,3.84 1.281,-0.792 3.791,1.591 3.791,3.598 0,0.948 0.78,3.255 1.733,5.127 2.998,5.887 3.864,9.263 3.569,13.904 -0.158,2.475 0.114,5.4 0.605,6.5 3.105,6.967 3.525,11.468 1.277,13.716 -1.444,1.444 -1.549,4.44 -0.184,5.284 0.55,0.34 1.002,2.054 1.004,3.809 0.004,3.513 3.156,9.431 5.502,10.332 3.017,1.157 1.366,2.359 -3.256,2.371 -2.613,0.006 -7.225,0.676 -10.25,1.487 -6.143,1.648 -12,1.074 -12,-1.176 0,-0.8 0.441,-2.278 0.979,-3.284 0.718,-1.341 0.565,-2.172 -0.572,-3.116 -1.278,-1.061 -2.552,-0.951 -7.229,0.627 -3.123,1.053 -6.594,2.822 -7.713,3.932 -1.328,1.317 -3.029,1.903 -4.896,1.688 -1.784,-0.207 -3.963,0.484 -5.791,1.836 -2.689,1.988 -3.074,2.036 -4.683,0.58 -0.964,-0.872 -2.266,-1.586 -2.894,-1.586 -0.686,0 -1.053,-1.451 -0.921,-3.641 0.29,-4.798 -1.598,-5.342 -5.016,-1.447 -2.316,2.64 -3.401,3.088 -7.478,3.088 -3.745,0 -5.039,0.443 -6.028,2.064 -1.224,2.009 -12.206,9.936 -13.765,9.936 -0.428,0 -1.046,-0.696 -1.373,-1.547 -0.326,-0.852 -1.971,-2.028 -3.655,-2.615 -2.194,-0.765 -3.224,-1.883 -3.637,-3.948 -0.317,-1.585 -2.345,-4.48 -4.507,-6.433 -2.718,-2.455 -3.837,-4.231 -3.626,-5.754 0.254,-1.831 -0.286,-2.293 -3.195,-2.735 -1.943,-0.295 -3.394,-1.058 -3.262,-1.714 0.276,-1.373 -6.518,-8.257 -8.141,-8.248 -0.604,0.004 -2.334,0.652 -3.847,1.441 -2.314,1.207 -2.75,1.215 -2.75,0.053 0,-2.711 -1.904,-2.443 -9.404,1.327 -7.287,3.662 -7.673,3.746 -9.241,2.013 -1.823,-2.015 -6.048996,-1.601 -7.964996,0.78 -0.611,0.759 -1.608,1.38 -2.215,1.38 -1.833,0 -3.476,3.933 -2.257,5.402 1.845,2.222 -5.395,4.794 -9.016,3.203 -0.879,-0.386 -3.804,-0.334 -6.5,0.116 -4.004,0.668 -4.961,1.227 -5.222,3.049 -0.372,2.597 -1.429,2.839 -3.18,0.73 -0.685,-0.825 -1.757,-1.5 -2.382,-1.5 -0.625,0 -1.699,-0.9 -2.386,-2 -1.414,-2.264 -4.222,-2.61 -6.082,-0.75 -0.687,0.687 -3.231,1.305 -5.653,1.372 -3.176,0.088 -5.274,0.854 -7.527,2.75 -3.539,2.978 -5.49,3.32 -6.338,1.112 -0.452,-1.178 -1.535,-1.371 -4.857,-0.867 -2.351,0.357 -4.985,1.264 -5.854,2.016 -0.868,0.752 -3.165,1.367 -5.104,1.367 -2.45,0 -4.408,0.825 -6.421,2.703 -1.916,1.788 -3.79,2.612 -5.5380003,2.436 -1.783,-0.18 -3.782,0.734 -6.145,2.808 -3.49999996,3.073 -3.50299996,3.083 -3.62499996,12.191 -0.075,5.532 0.325,9.655 1.01699996,10.488 1.27,1.531 4.981,1.833 6.445,0.525 0.522,-0.466 2.075,-0.511 3.4500003,-0.099 1.375,0.412 1.799,0.793 0.941,0.848 -0.857,0.055 -2.4260003,0.734 -3.4870003,1.51 -1.891,1.383 -1.892,1.448 -0.036,3.5 1.041,1.149 2.8350003,2.09 3.9870003,2.089 1.754,0 2.095,0.609 2.095,3.75 0,3.068 0.389,3.806 2.135,4.055 1.367,0.195 2.895,-0.662 4.251,-2.386 l 2.117,-2.691 5.417,1.704 c 4.898,1.541 6.58,2.985 6.58,5.651 0,0.505 -0.828,0.918 -1.84,0.918 -1.012,0 -5.4,0.945 -9.75,2.1 -4.351,1.155 -10.835,2.167 -14.4100003,2.25 l -6.5,0.15 v 3.493 c 0,3.324 0.218,3.542 4.5,4.5 2.475,0.554 5.0250003,1.348 5.6660003,1.764 0.641,0.417 2.279,0.334 3.64,-0.183 3.783,-1.439 8.687,1.677 11.627,7.387 1.988,3.86 2.217,5.069 1.254,6.611 -1.988,3.184 2.209,5.085 10.435,4.726 5.749,-0.251 6.99,-0.626 7.86,-2.379 0.569,-1.144 1.551,-1.908 2.184,-1.697 0.633,0.211 1.444,-0.091 1.803,-0.672 0.456,-0.737 1.242,-0.74 2.611,-0.007 1.491,0.798 2.694,0.619 5.042,-0.748 l 3.085,-1.795 4.147,4.514 c 3.657,3.981 4.618,4.5 8.146,4.399 2.2,-0.063 4.818,-0.467 5.817,-0.897 1.065,-0.458 2.287,-0.312 2.95,0.351 0.623,0.623 2.591,1.133 4.374,1.133 1.783,0 3.519,0.45 3.859,1 0.34,0.55 1.404,1 2.365,1 0.96,0 3.271,1.125 5.135,2.5 1.928996,1.423 4.747996,2.5 6.544996,2.5 1.737,0 5.249,1.112 7.806,2.472 2.557,1.359 4.649,2.199 4.649,1.865 0,-0.334 0.831,0.466 1.848,1.778 2.308,2.98 3.486,7.56 2.156,8.383 -2.965,1.832 1.929,9.041 5.657,8.334 2.119,-0.402 3.12,-5.451 1.417,-7.154 -0.593,-0.593 -1.078,-1.667 -1.078,-2.386 0,-1.04 0.394,-1.063 1.919,-0.111 1.459,0.912 2.254,0.921 3.318,0.037 1.078,-0.894 1.901,-0.809 3.583,0.368 1.201,0.842 2.613,1.264 3.138,0.94 0.525,-0.324 1.716,0.573 2.647,1.993 2.807,4.285 6.63,5.667 13.518,4.888 3.325,-0.377 6.243,-1.185 6.483,-1.796 0.248,-0.629 3.292,-1.194 7.017,-1.301 6.562,-0.19 6.574,-0.185 4.733,1.849 -1.808,1.998 -1.785,2.088 1.149,4.435 l 2.995,2.396 -2.595,0.005 c -2.609,0.005 -5.905,2.683 -5.905,4.799 0,0.624 0.9,1.617 2,2.206 2.254,1.207 2.761,3.229 0.601,2.4 -2.761,-1.059 -2.775,1.808 -0.023,4.681 2.976,3.107 7.979,3.962 10.198,1.743 0.902,-0.902 1.609,-0.786 3.029,0.5 1.019,0.922 2.814,1.676 3.99,1.676 2.444,0 8.864,-2.726 11.455,-4.865 2.366,-1.954 2.206,-0.671 -0.347,2.782 -1.153,1.56 -1.926,3.68 -1.717,4.71 0.25,1.229 -0.606,2.488 -2.492,3.663 -3.785,2.358 -2.703,3.583 6.401,7.248 3.918,1.577 7.351,3.46 7.628,4.183 0.855,2.227 -1.828,7.22 -4.596,8.552 -2.374,1.143 -2.828,1.022 -4.707,-1.254 -1.144,-1.385 -2.37,-3.313 -2.724,-4.284 -1.525,-4.174 -10.696,-4.084 -10.696,0.105 0,2.312 3.669,7.16 5.418,7.16 0.699,0 2.087,0.9 3.082,2 0.995,1.1 2.64,2 3.655,2 1.481,0 1.845,0.777 1.845,3.933 0,3.441 0.556,4.389 4.446,7.577 2.446,2.003 5.334,5.148 6.419,6.986 1.118,1.894 2.947,3.487 4.22,3.674 1.522,0.224 2.61,1.414 3.374,3.692 0.619,1.849 1.895,3.923 2.834,4.61 0.972,0.711 1.707,2.579 1.707,4.337 0,2.328 0.824,3.718 3.344,5.64 1.84,1.403 4.004,2.551 4.809,2.551 0.806,0 2.338,0.661 3.406,1.468 1.067,0.808 2.616,1.493 3.441,1.522 0.825,0.03 2.625,0.934 4,2.01 1.375,1.076 3.693,1.966 5.151,1.978 1.968,0.016 3.194,0.942 4.755,3.588 1.645,2.787 2.543,3.426 4.115,2.927 2.632,-0.835 8.27,1.066 10.513,3.545 2.09,2.309 5.31,2.528 8.022,0.545 1.436,-1.05 2.284,-1.131 3.27,-0.313 1.056,0.877 0.647,1.429 -1.984,2.671 -1.824,0.861 -3.461,2.464 -3.637,3.562 -0.739,4.582 -1.141,4.903 -3.481,2.772 -2.939,-2.676 -5.464,-3.875 -9.814,-4.659 -1.975,-0.355 -4.632,-1.756 -5.906,-3.111 -2.358,-2.51 -5.757,-2.605 -8.754,-0.245 -3.413,2.689 1.314,8.583 7.466,9.31 2.319,0.273 6.144,1.372 8.5,2.442 5.13,2.328 7.59,2.471 9.705,0.565 1.384,-1.248 1.98,-1.065 4.829,1.486 1.787,1.6 3.25,3.407 3.25,4.015 0,0.609 0.907,2.259 2.015,3.669 1.737,2.207 1.824,2.782 0.63,4.157 -0.77,0.886 -1.306,3.375 -1.207,5.596 0.115,2.566 -0.36,4.405 -1.326,5.13 -0.827,0.622 -2.047,2.872 -2.71,5 l -1.206,3.87 0.541,-4.768 c 0.388,-3.432 0.118,-5.254 -0.964,-6.5 -0.828,-0.953 -1.803,-2.989 -2.168,-4.525 -0.366,-1.536 -1.439,-3.031 -2.385,-3.322 -0.946,-0.291 -2.395,-0.942 -3.22,-1.447 -5.238,-3.203 -9.368,-5.011 -10.477,-4.585 -2.344,0.899 -0.108,8.735 3.383,11.855 1.702,1.52 3.094,3.186 3.094,3.701 0,0.516 1.583,3.012 3.518,5.547 2.834,3.712 3.32,4.978 2.5,6.51 -0.56,1.047 -1.018,2.792 -1.018,3.879 0,2.347 5.092,6.878 10,8.9 1.925,0.792 4.695,2.568 6.157,3.946 1.461,1.377 2.882,2.348 3.159,2.157 0.277,-0.192 1.501,0.92 2.72,2.471 1.219,1.55 4.613,3.878 7.541,5.172 4.976,2.201 5.578,2.865 9.229,10.182 2.372,4.752 4.161,9.988 4.555,13.327 0.684,5.814 3.352,14.992 5.447,18.74 0.688,1.231 2.603,2.938 4.254,3.792 1.652,0.854 2.74,1.98 2.417,2.501 -0.836,1.353 -6.234,-2.901 -8.658,-6.823 -1.129,-1.826 -2.884,-7.683 -3.901,-13.015 -1.797,-9.426 -1.981,-9.817 -6.634,-14.092 -2.632,-2.418 -7.13,-6.13 -9.994,-8.25 -2.865,-2.12 -6.395,-5.879 -7.845,-8.354 -2.936,-5.009 -3.465,-5.265 -5.671,-2.749 -3.242,3.697 -4.778,8.413 -5.352,16.431 -0.328,4.576 -0.992,9.894 -1.476,11.819 -0.484,1.925 -1.588,10.7 -2.453,19.5 -0.866,8.8 -2.05,18.025 -2.631,20.5 -1.901,8.089 -2.636,20.361 -1.308,21.844 0.983,1.098 1.501,0.777 2.824,-1.75 0.891,-1.702 2.328,-4.444 3.193,-6.094 2.01,-3.833 3.805,-3.785 7.754,0.208 l 3.173,3.208 -5.319,1.2 c -2.926,0.66 -6.17,1.969 -7.209,2.909 -2.969,2.687 -4.789,9.657 -7.441,28.496 -3.12,22.161 -3.92,26.567 -7.71,42.479 -8.425,35.369 -8.442,35.422 -13.665,41.443 -4.163,4.8 -5.82,5.898 -12.156,8.06 -4.034,1.376 -7.514,3.039 -7.732,3.694 -0.219,0.656 0.177,2.23 0.88,3.498 0.702,1.268 1.186,2.629 1.074,3.025 -0.338,1.204 3.861,2.991 5.823,2.478 1.041,-0.272 2.586,0.342 3.553,1.41 1.923,2.125 4.561,2.412 7.535,0.821 1.524,-0.816 2.573,-0.697 4.399,0.5 1.319,0.864 3.328,1.571 4.464,1.571 4.552,0 3.813,5.527 -1.583,11.831 l -3.661,4.276 2.233,2.377 c 2.656,2.828 9.392,4.278 11.55,2.487 0.806,-0.669 1.501,-2.623 1.544,-4.343 0.043,-1.721 0.325,-2.453 0.625,-1.628 1.107,3.044 5.716,7 8.154,7 1.367,0 3.195,0.601 4.063,1.335 0.869,0.734 4.279,1.932 7.579,2.662 3.3,0.73 6.988,2.21 8.195,3.288 1.908,1.704 3.049,1.868 8.75,1.258 l 6.555,-0.702 v 2.615 c 0,2.132 0.8,2.958 4.33,4.471 2.445,1.048 5.747,3.645 7.584,5.965 3.391,4.281 7.593,5.555 8.712,2.64 0.419,-1.093 1.625,-1.332 4.719,-0.935 2.974,0.382 5.204,-0.015 7.847,-1.395 l 3.692,-1.927 4.147,2.746 c 2.281,1.51 4.97,2.53 5.976,2.267 1.327,-0.347 1.92,0.154 2.161,1.825 0.191,1.328 2.052,3.51 4.394,5.153 l 4.062,2.849 10.095,-2.058 c 5.552,-1.131 10.296,-2.057 10.542,-2.057 0.246,0 1.684,1.146 3.196,2.548 2.575,2.386 2.898,2.449 5.111,1 2.606,-1.708 6.011,-2.037 6.86,-0.664 0.665,1.076 20.667,0.793 22.465,-0.318 0.777,-0.48 1.022,-1.632 0.623,-2.929 -1.697,-5.509 -1.571,-8.537 0.4,-9.592 3.182,-1.703 7.836,-1.205 12.948,1.386 2.639,1.337 7.623,2.751 11.075,3.142 5.314,0.601 6.796,1.229 9.662,4.095 3.135,3.135 3.812,3.37 9.142,3.184 7.842,-0.275 9.951,0.627 12.319,5.269 2.58,5.059 4.684,5.911 7.129,2.891 l 1.88,-2.321 5.715,1.758 c 3.142,0.967 6.976,1.865 8.519,1.995 1.542,0.13 3.53,0.963 4.418,1.85 1.484,1.484 1.426,1.764 -0.722,3.504 -3.31,2.681 -2.078,4.655 4.424,7.088 7.697,2.88 13.192,6.54 14.762,9.833 1.971,4.132 6.892,4.356 10.759,0.489 2.517,-2.517 3.944,-3.013 10.341,-3.592 6.133,-0.556 7.65,-0.396 8.743,0.92 0.799,0.963 2.172,1.379 3.473,1.053 1.564,-0.393 3.071,0.408 5.521,2.935 3.169,3.27 6.701,4.418 8.391,2.727 0.412,-0.411 2.849,-0.749 5.417,-0.75 4.193,-10e-4 4.668,-0.233 4.668,-2.282 0,-2.861 2.025,-4.184 6.436,-4.204 1.946,-0.008 4.33,-0.83 5.5,-1.896 1.14,-1.039 4.919,-2.37 8.441,-2.973 5.792,-0.991 6.608,-0.91 8.885,0.882 5.104,4.014 15.621,1.593 12.428,-2.862 -0.657,-0.916 -1.611,-2.622 -2.12,-3.789 -0.508,-1.168 -2.483,-3.087 -4.389,-4.265 -4.457,-2.754 -4.79,-4.644 -4.554,-25.784 0.184,-16.453 0.253,-16.96 3.141,-22.768 3.483,-7.006 12.16,-16.448 18.564,-20.202 3.33,-1.951 5.763,-2.622 9.06,-2.497 4.061,0.153 4.959,-0.262 9.058,-4.187 2.502,-2.396 6.744,-5.162 9.427,-6.146 2.713,-0.996 8.006,-4.484 11.934,-7.864 6.457,-5.558 7.573,-6.136 13.123,-6.797 3.336,-0.397 6.18,-0.418 6.32,-0.045 0.14,0.373 1.122,2.102 2.184,3.843 2.534,4.157 9.568,5.733 24.61,5.514 l 11.048,-0.161 -0.405,3.475 c -0.357,3.057 -0.067,3.604 2.413,4.547 1.551,0.589 6.665,1.177 11.365,1.307 4.699,0.129 9.143,0.604 9.875,1.057 2.351,1.452 3.732,-1.04 2.453,-4.427 -0.976,-2.587 -0.876,-3.132 0.729,-3.991 2.138,-1.144 6.974,0.59 6.974,2.5 0,1.541 3.802,4.835 7.297,6.323 3.348,1.426 9.631,1.549 13.031,0.257 1.351,-0.514 3.308,-0.713 4.347,-0.441 2.169,0.567 4.633,5.409 3.825,7.514 -0.299,0.78 0.104,2.305 0.897,3.39 1.163,1.591 2.717,1.995 8.054,2.095 4.755,0.089 7.155,0.615 8.541,1.869 1.284,1.162 2.755,1.536 4.406,1.122 1.364,-0.342 2.758,-0.172 3.098,0.378 0.34,0.55 2.791,1.935 5.448,3.078 3.708,1.596 4.72,2.498 4.357,3.887 -0.786,3.005 3.266,5.058 8.612,4.362 5.181,-0.674 7.42,-2.011 6.664,-3.98 -0.695,-1.81 0.879,-1.701 2.43,0.169 0.689,0.83 2.936,1.778 4.994,2.107 2.637,0.422 3.705,1.083 3.62,2.241 -0.074,1.005 0.782,1.77 2.205,1.972 1.419,0.201 2.133,0.837 1.829,1.629 -1.292,3.366 5.14,4.775 9.109,1.995 1.414,-0.991 2.085,-2.34 1.864,-3.75 -0.283,-1.804 -1.005,-2.203 -3.988,-2.203 -3.12,0 -3.641,-0.325 -3.641,-2.271 10e-4,-2.984 3.897,-4.89 6.809,-3.332 3.477,1.861 8.305,1.387 8.896,-0.872 0.354,-1.354 1.662,-2.155 4.156,-2.547 2.002,-0.314 5.078,-1.283 6.835,-2.152 1.758,-0.87 3.806,-1.348 4.553,-1.061 2.432,0.933 7.917,-2.031 7.568,-4.091 -0.174,-1.027 0.297,-2.605 1.046,-3.508 1.827,-2.201 0.733,-4.663 -2.081,-4.681 -2.109,-0.014 -2.01,-0.259 1.31,-3.25 1.976,-1.779 4.109,-4.485 4.742,-6.014 1.106,-2.671 1.244,-2.717 3.566,-1.195 1.63,1.068 2.631,1.234 3.077,0.512 0.364,-0.589 1.099,-0.801 1.632,-0.471 1.304,0.806 9.033,-7.733 8.431,-9.315 -0.587,-1.544 3.968,-4.675 5.461,-3.752 0.598,0.37 1.686,0.176 2.417,-0.431 0.731,-0.607 2.016,-0.84 2.855,-0.518 1.948,0.748 3.219,-1.235 3.224,-5.028 0.003,-2.185 0.536,-3.076 2.004,-3.347 1.1,-0.204 3.201,-1.501 4.669,-2.882 1.468,-1.382 3.175,-2.2 3.794,-1.817 1.593,0.985 5.951,-2.122 7.057,-5.029 0.983,-2.587 3.368,-3.247 4.59,-1.27 0.49,0.793 1.617,0.115 3.444,-2.074 2.401,-2.875 2.588,-3.593 1.61,-6.184 -1.027,-2.721 -0.85,-3.142 2.476,-5.884 1.971,-1.624 4.141,-4.3 4.823,-5.946 0.681,-1.646 2.309,-3.694 3.617,-4.551 1.308,-0.857 3.086,-2.926 3.95,-4.598 1.469,-2.84 1.439,-3.255 -0.46,-6.328 -1.118,-1.809 -2.198,-4.375 -2.4,-5.701 -0.511,-3.356 -2.648,-3.458 -10.083,-0.484 -7.796,3.119 -13.657,3.315 -17.377,0.581 -1.491,-1.096 -4.786,-2.376 -7.324,-2.846 -2.538,-0.47 -6.18,-2.049 -8.095,-3.509 -1.914,-1.459 -4.158,-2.654 -4.986,-2.654 -4.274,0 -7.897,-2.424 -10.965,-7.336 -3.553,-5.689 -4.117,-7.375 -2.751,-8.219 1.507,-0.931 1.047,-6.455 -0.589,-7.083 -0.915,-0.351 -1.5,-1.866 -1.5,-3.88 0,-2.498 0.793,-3.974 3.25,-6.05 2.126,-1.795 3.25,-3.642 3.25,-5.338 0,-2.35 0.368,-2.594 3.909,-2.594 2.231,0 4.091,-0.536 4.333,-1.248 0.734,-2.162 -4.804,-17.215 -6.708,-18.234 -0.987,-0.528 -4.211,-0.897 -7.164,-0.82 -8.577,0.225 -11.87,-2.727 -11.87,-10.641 0,-3.477 -1.248,-5.103 -4.375,-5.699 -2.617,-0.5 -7.327,-6.695 -5.493,-7.226 0.753,-0.218 3.308,-0.98 5.678,-1.694 3.767,-1.134 4.67,-1.086 7.155,0.382 1.564,0.924 3.302,1.68 3.861,1.68 0.56,0 3.415,-2.268 6.346,-5.04 4.369,-4.133 5.815,-4.949 8.032,-4.534 3.88,0.725 7.192,-3.596 6.417,-8.372 -0.435,-2.682 -0.011,-4.164 1.91,-6.684 1.358,-1.78 2.469,-3.614 2.469,-4.075 0,-0.461 -3.132,-3.28 -6.961,-6.264 -7.352,-5.732 -9.553,-9.137 -8.532,-13.202 0.525,-2.092 -0.009,-2.895 -3.421,-5.154 -2.224,-1.471 -4.523,-2.675 -5.11,-2.675 -2.388,0 -5.976,-4.947 -5.976,-8.239 0,-2.615 0.624,-3.698 2.904,-5.045 1.598,-0.944 3.841,-1.716 4.985,-1.716 3.607,0 8.162,-5.014 8.303,-9.141 0.155,-4.559 -3.737,-9.858 -8.397,-11.431 -2.862,-0.966 -3.295,-1.559 -3.295,-4.511 0,-2.941 -0.432,-3.54 -3.202,-4.443 -4.459,-1.454 -4.615,-1.78 -2.857,-5.988 2.197,-5.256 1.951,-7.867 -1.079,-11.467 -2.389,-2.84 -2.511,-3.371 -1.296,-5.642 1.941,-3.626 0.291,-5.528 -6.669,-7.688 -7.109,-2.205 -16.396,-1.905 -19.188,0.622 -1.096,0.992 -3.515,1.689 -5.859,1.689 -3.367,0 -4.725,0.702 -8.671,4.483 -5.321,5.098 -5.782,7.505 -2.137,11.15 l 2.541,2.541 -4.729,4.163 c -4.436,3.905 -5.118,4.169 -11.024,4.255 -5.341,0.077 -6.387,-0.195 -6.896,-1.798 -0.829,-2.615 1.125,-4.621 4.859,-4.986 2.351,-0.23 3.509,-1.065 4.588,-3.308 0.794,-1.65 1.82,-3.781 2.281,-4.736 0.461,-0.955 0.838,-3.081 0.838,-4.725 0,-2.308 -0.682,-3.34 -3,-4.539 -3.714,-1.921 -3.708,-3.077 0.041,-7.462 1.665,-1.949 2.959,-4.622 2.959,-6.115 0,-3.562 3.157,-7.357 8.823,-10.607 2.572,-1.475 6.687,-4.5 9.145,-6.72 4.39,-3.969 4.472,-4.159 4.78,-11.067 0.172,-3.866 0.497,-7.557 0.722,-8.203 0.225,-0.646 3.153,-2.175 6.506,-3.398 4.212,-1.535 6.768,-3.182 8.265,-5.325 2.468,-3.534 12.192,-13.177 18.523,-18.37 2.345,-1.923 4.528,-4.546 4.849,-5.829 0.322,-1.283 1.382,-2.585 2.355,-2.894 0.972,-0.308 2.493,-1.362 3.38,-2.342 1.441,-1.593 1.453,-2.007 0.11,-3.925 -1.312,-1.873 -2.162,-2.073 -6.73,-1.581 l -5.228,0.562 3.75,-3.185 c 2.35,-1.995 3.75,-4.055 3.75,-5.515 0,-2.092 0.524,-2.366 5.114,-2.677 4.855,-0.329 5.26,-0.163 7.993,3.288 l 2.88,3.636 6.756,-0.527 c 8.214,-0.64 13.555,-3.967 17.261,-10.752 1.35,-2.471 3.04,-4.492 3.756,-4.492 2.393,0 2.364,-2.662 -0.079,-7.255 -1.503,-2.827 -2.106,-5.058 -1.592,-5.889 0.455,-0.737 0.603,-2.243 0.328,-3.348 -0.275,-1.104 0.222,-5.158 1.104,-9.008 3.986,-17.404 3.872,-16.409 2.116,-18.349 -0.901,-0.995 -1.637,-2.846 -1.637,-4.114 0,-3.328 2.216,-10.368 3.632,-11.537 1.696,-1.401 5.368,-8.262 5.368,-10.03 0,-0.809 0.434,-1.47 0.965,-1.47 1.831,0 3.28,-4 2.005,-5.536 -1.397,-1.684 0.512,-10.902 2.831,-13.669 0.922,-1.102 1.257,-3.05 0.943,-5.5 -0.599,-4.693 2.18,-9.808 5.826,-10.723 1.428,-0.359 3.439,-2.167 4.603,-4.141 1.166,-1.977 3.559,-4.128 5.487,-4.934 2.685,-1.121 3.962,-2.654 5.944,-7.137 1.389,-3.139 3.398,-6.819 4.466,-8.176 1.479,-1.881 1.673,-2.789 0.813,-3.825 -0.62,-0.748 -1.692,-1.359 -2.382,-1.359 -0.69,0 -4.573,-1.305 -8.628,-2.901 -7.934,-3.121 -15.935,-4.442 -25.181,-4.156 -4.638,0.143 -6.688,-0.337 -10.178,-2.382 -2.404,-1.409 -5.025,-2.561 -5.825,-2.561 -0.801,0 -1.675,-0.838 -1.943,-1.862 -0.589,-2.254 -6.048,-5.138 -9.725,-5.138 -1.558,0 -3.652,1.043 -5.021,2.5 -2.707,2.881 -5.453,3.099 -12.418,0.986 -4.37,-1.325 -5.104,-1.324 -6.581,0.013 -1.853,1.677 -3.001,1.067 -3.001,-1.593 0,-2.54 -4.287,-5.536 -8.999,-6.29 -5.43,-0.868 -7.893,0.5 -7.221,4.012 0.429,2.248 0.226,2.588 -1.214,2.036 -0.951,-0.365 -2.379,-0.664 -3.173,-0.664 -0.793,0 -1.861,-1.101 -2.373,-2.446 -0.511,-1.346 -3.313,-4.979 -6.225,-8.074 -2.912,-3.095 -5.644,-6.94 -6.071,-8.545 -1.125,-4.226 -9.849,-9.951 -14.11,-9.26 -2.216,0.36 -4.609,-0.26 -8.034,-2.081 -6.109,-3.249 -9.493,-3.271 -14.175,-0.094 -4.436,3.01 -8.46,3.202 -10.887,0.52 -0.986,-1.09 -3.29,-2.262 -5.12,-2.605 -3.715,-0.697 -6.155,-2.829 -4.447,-3.885 0.577,-0.356 1.049,-1.599 1.049,-2.76 0,-1.162 0.704,-2.89 1.564,-3.841 2.115,-2.337 0.948,-8.982 -1.7,-9.675 -1.025,-0.268 -1.864,-1.031 -1.864,-1.696 0,-0.665 -1.125,-2.266 -2.5,-3.558 -1.375,-1.292 -2.5,-3.144 -2.5,-4.115 0,-0.972 -0.457,-2.05 -1.016,-2.395 -0.559,-0.346 -0.76,-1.044 -0.446,-1.551 0.314,-0.508 0.149,-1.676 -0.366,-2.595 -0.715,-1.279 -0.258,-2.242 1.946,-4.097 1.585,-1.334 2.882,-3.23 2.882,-4.213 0,-0.984 0.675,-2.349 1.5,-3.034 0.825,-0.685 1.5,-2.243 1.5,-3.462 0,-1.383004 0.923,-2.637004 2.452,-3.334004 1.348,-0.615 3.16,-2.487 4.026,-4.161 1.714,-3.314 2.506,-3.659 4.295,-1.87 0.868,0.868 1.798,0.888 3.577,0.077 1.521,-0.693 2.754,-0.746 3.356,-0.144 1.148,1.148 6.595,-2.809 5.75,-4.177 -0.744,-1.203 2.683,-5.857 4.342,-5.898 0.714,-0.017 2.299,-1.111 3.522,-2.432 1.224,-1.32 3.34,-2.558 4.703,-2.75 2.764,-0.389 2.839,-1.081 1.216,-11.232 -1.049,-6.561 -4.046,-10.018 -7.91,-9.122 -5.41,1.255 -7.045,-2.534 -2.81,-6.513 2.944,-2.766 2.776,-4.204 -0.585,-4.998 -1.33,-0.314 -2.912,-1.56 -3.515,-2.77 -2.091,-4.194 -4.665,-6.214 -7.919,-6.214 -1.92,0 -3.911,-0.796 -5,-2 -1.484,-1.64 -3.089,-2.002 -8.905,-2.011 -10.457,-0.016 -14.326,-0.853 -14.949,-3.234 -0.43,-1.646 -1.036,-1.884 -3.336,-1.312 -1.545,0.385 -4.306,0.946 -6.135,1.247 -2.121,0.348 -3.69,1.346 -4.332,2.755 -0.947,2.079 -1.354,2.155 -6.979,1.304 -4.475,-0.677 -6.357,-0.585 -7.507,0.369 -0.865,0.718 -3.447,1.156 -5.921,1.004 -2.413,-0.149 -4.954,0.08 -5.647,0.509 -2.414,1.491 -8.245,0.246 -10.981,-2.345 -1.875,-1.776 -3.364,-2.374 -4.905,-1.971 -2.865,0.749 -11.91,-1.241 -14.113,-3.105 -1.252,-1.06 -2.725,-1.237 -5.5,-0.66 -2.085,0.432 -4.166,0.698 -4.626,0.59 -0.46,-0.109 -1.082,0.741 -1.382,1.888 -0.301,1.153 -1.113,1.867 -1.816,1.597 -0.699,-0.268 -1.555,-0.203 -1.903,0.145 -0.348,0.348 -2.979,0.808 -5.848,1.022 -2.868,0.214 -5.756,0.835 -6.417,1.381 -0.661,0.546 -2.146,0.693 -3.299,0.327 -1.279,-0.406 -3.097,-0.01 -4.661,1.014 -1.777,1.164 -3.527,1.474 -5.701,1.01 -4.232,-0.903 -7.456,-0.943 -11.637,-0.144 -10.651,2.036 -11.531,1.985 -13.337,-0.771 -1.044,-1.593 -2.629,-2.609 -4.072,-2.609 -1.299,0 -3.651,-0.672 -5.227,-1.494 -3.911,-2.04 -6.712,-1.883 -8.864,0.494 -2.134,2.358 -6.734,2.628 -8.5,0.5 -1.777,-2.142 -7.721,-1.865 -10.727,0.5 -3.044,2.394 -4.153,2.465 -7.909,0.506 -1.575,-0.821 -4.975,-1.496 -7.555,-1.5 -2.58,-0.003 -4.969,-0.456 -5.309,-1.006 -0.34,-0.55 -2.118,-1 -3.952,-1 -2.041,0 -3.557,-0.582 -3.91,-1.5 -0.362,-0.944 -1.893,-1.5 -4.131,-1.5 -2.882,0 -3.738,0.478 -4.516,2.523 -0.77,2.026 -1.432,2.404 -3.362,1.92 -1.795,-0.45 -2.81,-0.023 -4.008,1.688 l -1.605,2.291 -3.758,-3.644 c -2.067,-2.004 -5.012,-3.951 -6.544,-4.328 -1.825,-0.449 -3.424,-1.927 -4.632,-4.282 -1.709,-3.33 -1.729,-3.84 -0.275,-6.89 1.544,-3.237 1.517,-3.349 -1.557,-6.5359999 -1.72,-1.783 -3.594,-4.48 -4.164,-5.992 -1.108,-2.93800004 -2.136,-3.21100004 -6.086,-1.61000004 M 23.728974,262.64527 c -1.48,0.897 -2.902,2.439 -3.161,3.426 -0.392,1.502 0.13,1.773 3.192,1.66 2.014,-0.074 6.136,0.196 9.161,0.601 5.135,0.688 5.367,0.631 3.5,-0.85 -1.1,-0.873 -3.837,-1.602 -6.083,-1.619 -5.005,-0.039 -5.921,-0.818 -3.764,-3.201 2.008,-2.218 0.8,-2.226 -2.845,-0.017 m 125.191996,73.686 c -1.375,0.786 -2.275,1.471 -2,1.522 3.159,0.588 8.496,0.789 9.211,0.348 0.979,-0.605 -2.059,-3.309 -3.711,-3.303 -0.55,0.002 -2.125,0.647 -3.5,1.433 m -35.126,20.876 c -2.888,6.339 10.389,13.809 16.544,9.308 2.498,-1.827 1.651,-5.103 -1.428,-5.525 -1.37,-0.188 -3.165,-0.909 -3.99,-1.604 -1.779,-1.497 -7.938,-4.555 -9.175,-4.555 -0.477,0 -1.355,1.069 -1.951,2.376 m 68.084,62.702 c -1.579,2.951 -0.633,4.544 3.51,5.911 3.026,0.999 4.005,0.931 6.07,-0.422 3.119,-2.044 3.092,-2.927 -0.173,-5.494 -3.458,-2.72 -7.95,-2.718 -9.407,0.005 m 586.233,314.672 c 1.921,4.029 4.541,7.166 5.641,6.752 0.732,-0.276 2.645,-0.502 4.25,-0.502 1.605,0 2.918,-0.459 2.918,-1.019 0,-0.561 -1.019,-0.763 -2.265,-0.451 -1.67,0.419 -3.035,-0.234 -5.188,-2.48 -2.583,-2.697 -6.308,-4.296 -5.356,-2.3 m 343.37603,50.176 c -1.589,1.756 -1.666,2.421 -0.58,5.043 1.064,2.569 0.997,3.406 -0.449,5.613 -1.59,2.428 -1.594,3.069 -0.053,9.995 1.677,7.537 1.342,10.807 -0.831,8.111 -1.365,-1.694 -6.962,-3.688 -10.353,-3.688 -3.673,0 -8.204,2.764 -8.868,5.409 -0.477,1.902 -1.82,2.715 -6.764,4.095 -6.818,1.904 -11.206,3.895 -14.032,6.367 -1.024,0.896 -2.808,1.629 -3.964,1.629 -1.156,0 -2.586,0.965 -3.177,2.143 -0.591,1.179 -1.656,2.845 -2.368,3.702 -0.724,0.873 -1.007,2.461 -0.643,3.607 0.357,1.126 0.282,2.049 -0.168,2.051 -0.449,0.001 -2.834,1.742 -5.299,3.867 -4.042,3.486 -4.341,4.036 -3.041,5.602 0.792,0.955 2.397,2.1 3.565,2.544 1.169,0.444 2.146,1.41 2.172,2.146 0.026,0.736 0.375,2.126 0.774,3.088 0.609,1.468 0.172,1.75 -2.714,1.75 -1.893,0 -3.721,0.281 -4.064,0.624 -0.344,0.343 0.279,2.394 1.382,4.557 1.104,2.163 1.749,4.744 1.435,5.735 -0.708,2.231 0.705,3.34 6.473,5.084 6.872,2.077 8.988,4.365 5.25,5.676 -0.963,0.338 -2.65,1.428 -3.75,2.422 -1.1,0.994 -3.013,2.729 -4.25,3.855 -2.693,2.45 -2.781,3.799 -0.444,6.836 1.737,2.257 1.85,2.268 8.09,0.812 l 6.329,-1.476 -0.612,3.062 c -0.337,1.685 -0.613,3.404 -0.613,3.821 0,0.417 -0.9,0.994 -2,1.282 -1.197,0.313 -2,1.364 -2,2.616 0,1.157 -0.645,2.094 -1.441,2.094 -2.664,0 -2.686,1.964 -0.053,4.597 1.808,1.808 3.35,2.473 5.004,2.156 1.439,-0.275 2.596,0.081 2.909,0.895 0.285,0.744 1.396,1.352 2.468,1.352 2.857,0 5.184,1.077 4.548,2.105 -0.304,0.492 -1.661,0.895 -3.015,0.895 -5.153,0 -5.749,8.279 -0.843,11.71 1.407,0.985 4.607,3.291 7.111,5.125 2.76,2.022 5.292,3.142 6.432,2.844 2.362,-0.618 6.862,1.403 6.872,3.086 0.013,2.155 6.259,5.227 10.636,5.231 4.628,0.004 7.095,-1.87 5.098,-3.874 -0.969,-0.972 -0.722,-1.611 1.175,-3.044 1.764,-1.333 2.242,-2.421 1.804,-4.1 -0.444,-1.695 0.309,-3.343 2.914,-6.382 2.932,-3.419 3.266,-4.253 2.02,-5.045 -1.262,-0.802 -1.053,-1.503 1.355,-4.544 2.776,-3.505 2.856,-3.945 3.177,-17.551 l 0.329,-13.956 5.25,-7.769 c 4.987,-7.38 5.25,-8.093 5.25,-14.215 0,-3.546 -0.642,-8.374 -1.427,-10.731 -0.785,-2.357 -1.741,-8.872 -2.125,-14.478 -0.622,-9.092 -0.966,-10.442 -3.179,-12.5 -3.531,-3.283 -4.284,-5.948 -3.351,-11.851 0.958,-6.061 -0.991,-24.242 -3.065,-28.59 -1.785,-3.742 -7.481,-4.54 -10.286,-1.44 m -587.56703,52.952 c 0,1.26 2.935,3.52 3.648,2.808 1.024,-1.024 -0.505,-3.686 -2.117,-3.686 -0.842,0 -1.531,0.395 -1.531,0.878"
     stroke="none"
     fill="#041f49"
     fill-rule="evenodd"
     id="path1"
     style="fill:#ffffff;fill-opacity:1" />
</svg>
