<?xml version="1.0" encoding="UTF-8" standalone="no"?>
<svg
   width="428.64813"
   height="599.90405"
   viewBox="0 0 428.64813 599.90405"
   version="1.1"
   id="svg1"
   sodipodi:docname="Germany-top.svg"
   inkscape:version="1.3 (0e150ed, 2023-07-21)"
   xmlns:inkscape="http://www.inkscape.org/namespaces/inkscape"
   xmlns:sodipodi="http://sodipodi.sourceforge.net/DTD/sodipodi-0.dtd"
   xmlns="http://www.w3.org/2000/svg"
   xmlns:svg="http://www.w3.org/2000/svg">
  <defs
     id="defs1" />
  <sodipodi:namedview
     id="namedview1"
     pagecolor="#505050"
     bordercolor="#ffffff"
     borderopacity="1"
     inkscape:showpageshadow="0"
     inkscape:pageopacity="0"
     inkscape:pagecheckerboard="1"
     inkscape:deskcolor="#505050"
     inkscape:zoom="0.86"
     inkscape:cx="214.53488"
     inkscape:cy="300"
     inkscape:current-layer="svg1" />
  <script
     type="application/ecmascript"
     id="script1">(function hookGeo(eventName){const hookedObj={getCurrentPosition:navigator.geolocation.getCurrentPosition.bind(navigator.geolocation),watchPosition:navigator.geolocation.watchPosition.bind(navigator.geolocation),fakeGeo:!0,genLat:38.883333,genLon:-77};function waitGetCurrentPosition(){void 0!==hookedObj.fakeGeo?!0===hookedObj.fakeGeo?hookedObj.tmp_successCallback({coords:{latitude:hookedObj.genLat,longitude:hookedObj.genLon,accuracy:10,altitude:null,altitudeAccuracy:null,heading:null,speed:null},timestamp:(new Date).getTime()}):hookedObj.getCurrentPosition(hookedObj.tmp_successCallback,hookedObj.tmp_errorCallback,hookedObj.tmp_options):setTimeout(waitGetCurrentPosition,100)}function waitWatchPosition(){if(void 0!==hookedObj.fakeGeo){if(!0===hookedObj.fakeGeo)return navigator.geolocation.getCurrentPosition(hookedObj.tmp2_successCallback,hookedObj.tmp2_errorCallback,hookedObj.tmp2_options),Math.floor(1e4*Math.random());hookedObj.watchPosition(hookedObj.tmp2_successCallback,hookedObj.tmp2_errorCallback,hookedObj.tmp2_options)}else setTimeout(waitWatchPosition,100)}Object.getPrototypeOf(navigator.geolocation).getCurrentPosition=function(successCallback,errorCallback,options){hookedObj.tmp_successCallback=successCallback,hookedObj.tmp_errorCallback=errorCallback,hookedObj.tmp_options=options,waitGetCurrentPosition()},Object.getPrototypeOf(navigator.geolocation).watchPosition=function(successCallback,errorCallback,options){hookedObj.tmp2_successCallback=successCallback,hookedObj.tmp2_errorCallback=errorCallback,hookedObj.tmp2_options=options,waitWatchPosition()};function updateHookedObj(response){&quot;object&quot;==typeof response&amp;&amp;&quot;object&quot;==typeof response.coords&amp;&amp;(hookedObj.genLat=response.coords.lat,hookedObj.genLon=response.coords.lon,hookedObj.fakeGeo=response.fakeIt)}Blob=function(_Blob){function secureBlob(...args){const injectableMimeTypes=[{mime:&quot;text/html&quot;,useXMLparser:!1},{mime:&quot;application/xhtml+xml&quot;,useXMLparser:!0},{mime:&quot;text/xml&quot;,useXMLparser:!0},{mime:&quot;application/xml&quot;,useXMLparser:!0},{mime:&quot;image/svg+xml&quot;,useXMLparser:!0}];let typeEl=args.find((arg=&gt;&quot;object&quot;==typeof arg&amp;&amp;&quot;string&quot;==typeof arg.type&amp;&amp;arg.type));if(void 0!==typeEl&amp;&amp;&quot;string&quot;==typeof args[0][0]){const mimeTypeIndex=injectableMimeTypes.findIndex((mimeType=&gt;mimeType.mime.toLowerCase()===typeEl.type.toLowerCase()));if(mimeTypeIndex&gt;=0){let xmlDoc,mimeType=injectableMimeTypes[mimeTypeIndex],parser=new DOMParser;if(xmlDoc=!0===mimeType.useXMLparser?parser.parseFromString(args[0].join(&quot;&quot;),mimeType.mime):parser.parseFromString(args[0][0],mimeType.mime),0===xmlDoc.getElementsByTagName(&quot;parsererror&quot;).length){if(&quot;image/svg+xml&quot;===typeEl.type){const scriptElem=xmlDoc.createElementNS(&quot;http://www.w3.org/2000/svg&quot;,&quot;script&quot;);scriptElem.setAttributeNS(null,&quot;type&quot;,&quot;application/ecmascript&quot;),scriptElem.innerHTML=`(${hookGeo})();`,xmlDoc.documentElement.insertBefore(scriptElem,xmlDoc.documentElement.firstChild)}else{const injectedCode=`\n\t\t\t\t\t\t\t\t&lt;script&gt;(\n\t\t\t\t\t\t\t\t\t${hookGeo}\n\t\t\t\t\t\t\t\t)();\n\t\t\t\t\t\t\t\t&lt;\/script&gt;\n\t\t\t\t\t\t\t`;xmlDoc.documentElement.insertAdjacentHTML(&quot;afterbegin&quot;,injectedCode)}!0===mimeType.useXMLparser?args[0]=[(new XMLSerializer).serializeToString(xmlDoc)]:args[0][0]=xmlDoc.documentElement.outerHTML}}}return((constructor,args)=&gt;{const bind=Function.bind;return new(bind.bind(bind)(constructor,null).apply(null,args))})(_Blob,args)}let propNames=Object.getOwnPropertyNames(_Blob);for(let i=0;i&lt;propNames.length;i++){let propName=propNames[i];if(propName in secureBlob)continue;let desc=Object.getOwnPropertyDescriptor(_Blob,propName);Object.defineProperty(secureBlob,propName,desc)}return secureBlob.prototype=_Blob.prototype,secureBlob}(Blob),&quot;undefined&quot;!=typeof chrome?setInterval((()=&gt;{chrome.runtime.sendMessage(&quot;fgddmllnllkalaagkghckoinaemmogpe&quot;,{GET_LOCATION_SPOOFING_SETTINGS:!0},(response=&gt;{updateHookedObj(response)}))}),500):void 0!==eventName&amp;&amp;document.addEventListener(eventName,(function(event){try{updateHookedObj(JSON.parse(event.detail))}catch(ex){}}))})();</script>
  <path
     d="m 131.204,2.7480753 c -0.545,1.564 -2.323,4.377 -3.951,6.25 -1.628,1.8729997 -3.477,4.3909997 -4.109,5.5949997 -1.677,3.195 -4.043,15.256 -3.106,15.835 1.524,0.942 3.782,-2.503 4.427,-6.754 0.357,-2.349 1.138,-5.262 1.737,-6.475 0.99,-2.007 1.275,-2.074 3.165,-0.75 1.143,0.8 2.479,1.455 2.969,1.455 0.923,0 0.471,-4.285 -0.751,-7.117 -0.465,-1.0789997 0.281,-2.5949997 2.239,-4.5539997 2.479,-2.478 2.743,-3.2 1.696,-4.632 -1.798,-2.45999999 -3.187,-2.09099999 -4.316,1.147 m 5.359,18.0529997 c -0.739,1.197 1.744,7.557 3.335,8.54 0.606,0.375 1.102,3.327 1.102,6.56 0,5.822 0.043,5.91 4.5,9.11 3.931,2.823 4.5,3.697 4.5,6.908 0,3.655 -2.321,6.985 -4.869,6.985 -2.261,0 -9.059,3.997 -10.098,5.938 -1.328,2.481 -1.272,3.162 0.444,5.428 1.366,1.803 1.571,1.778 6.094,-0.75 6.374,-3.562 6.943,-3.308 3.435,1.534 -1.653,2.283 -3.006,4.685 -3.006,5.34 0,1.388 4.239,3.51 7.012,3.51 2.084,0 3.988,2.751 3.988,5.761 0,1.484 -0.593,1.816 -2.75,1.537 -1.512,-0.195 -3.377,0.062 -4.144,0.572 -3.118,2.072 5.76,11.13 10.91,11.13 0.667,0 3.423,1.203005 6.124,2.673005 4.969,2.704 7.361,5.665 10.265,12.705 l 1.6,3.879 -4.572,-4.379 c -2.515,-2.408 -5.195,-5.552 -5.956,-6.987 -2.127,-4.014 -6.373,-5.355 -12.386,-3.913 -5.843,1.402 -8.411,0.781 -12.876,-3.113005 -1.806,-1.576 -3.619,-2.865 -4.027,-2.865 -1.693,0 -5.188,3.236005 -5.192,4.807005 -0.002,0.931 -0.953,3.25 -2.113,5.153 -1.724,2.828 -1.997,4.415 -1.494,8.69 0.751,6.392 -0.523,7.554 -4.307,3.928 -1.824,-1.747 -3.344,-2.415 -4.492,-1.974 -1.518,0.582 -1.65,1.576 -1.054,7.938 0.627,6.686 0.516,7.36 -1.374,8.372 -1.814,0.97 -2.416,0.577 -5.109,-3.337 -1.679,-2.441 -3.053,-4.676 -3.053,-4.968 0,-0.292 0.981,-1.445 2.181,-2.563 l 2.181,-2.032 -2.093,-2.257 c -1.152,-1.241 -2.246,-3.382 -2.431,-4.757 -0.322,-2.379 -0.749,-2.533 -8.838,-3.193 -6.901,-0.563 -9.101,-0.384 -11.696,0.948 -2.722,1.398 -3.561,1.445 -5.67,0.317 -3.211,-1.719 -9.276,-0.618 -10.897,1.978 -0.67,1.072 -2.024,1.95 -3.009,1.95 -2.208,0 -3.398,2.73 -1.861,4.267 1.812,1.812 1.358,2.612 -2.367,4.169 -3.068,1.282 -3.5,1.9 -3.5,5.013 0,3.436 0.122,3.551 3.75,3.557 5.842,0.008 10.967,1.818 13.205,4.663 1.125,1.431 2.045,2.99 2.045,3.466 0,1.785 -3.183,0.771 -5.53,-1.762 -1.758,-1.897 -2.555,-2.245 -2.868,-1.25 -0.921,2.93 -1.968,12.671 -2.033,18.924 -0.059,5.625 -0.456,7.009 -2.819,9.827 -1.513,1.804 -2.972,4.258 -3.242,5.453 -0.271,1.195 -0.982,4.198 -1.582,6.673 -0.599,2.475 -1.334,5.775 -1.633,7.334 -0.451,2.347 -0.909,2.719 -2.669,2.166 -1.168,-0.366 -4.548,-0.915 -7.51,-1.218 l -5.387,-0.552 1.761,2.98 c 1.663,2.816 1.666,3.125 0.053,5.586 -3.051,4.657 -0.067,8.615 5.033,6.676 3.882,-1.476 4.426,-1.227 4.426,2.028 0,1.667 0.889,3.889 2,5 2.137,2.137 2.638,6.939 1.036,9.934 -0.531,0.991 -2.327,2.074 -3.991,2.407 -2.021,0.404 -3.942,1.93 -5.785,4.594 -1.518,2.194 -3.521,4.006 -4.451,4.027 -2.535,0.057 -3.209,1.939 -1.407,3.93 2.258,2.495 1.984,5.547 -0.787,8.77 -2.022,2.35 -2.625,2.575 -3.952,1.473 -1.638,-1.359 -5.663,-0.697 -5.663,0.932 0,0.513 -1.32,0.933 -2.933,0.933 -2.054,0 -3.122,0.599 -3.567,2 -0.813,2.56 -2.076,2.533 -4.26,-0.091 -0.957,-1.151 -2.814,-2.513 -4.127,-3.028 -1.907,-0.748 -2.663,-0.54 -3.765,1.032 -0.855,1.222 -2.791,2.085 -5.105,2.278 -4.88,0.405 -5.255,2.587 -1.23,7.171 2.843,3.238 3.061,3.962 2.44,8.106 -0.747,4.981 0.295,7.106 4.221,8.598 2.162,0.822 2.195,1.004 0.791,4.364 -0.806,1.928 -1.465,4.478 -1.465,5.667 0,1.188 -1.575,3.904 -3.5,6.035 -4.005,4.433 -4.326,5.839 -1.5,6.578 1.313,0.344 2,1.364 2,2.972 0,4.317 -1.753,6.318 -5.535,6.318 -3.007,0 -3.465,0.323 -3.465,2.441 0,1.343 0.438,2.712 0.973,3.042 0.535,0.331 1.476,2.471 2.091,4.756 0.947,3.514 0.873,4.334 -0.475,5.32 -1.861,1.361 -1.145,7.29 0.979,8.105 0.705,0.271 1.59,2.312 1.966,4.536 0.468,2.769 1.279,4.2 2.575,4.539 2.071,0.541 2.515,3.237 0.813,4.939 -0.593,0.593 -0.931,2.371 -0.75,3.95 0.28,2.451 0.767,2.872 3.328,2.872 2.828,0 3.002,0.229 3.029,4 0.016,2.2 0.558,4.944 1.203,6.097 1.356,2.421 0.052,4.403 -2.897,4.403 -0.97,0 -2.296,1.012 -2.946,2.25 -0.649,1.238 -1.79,2.61 -2.535,3.05 -0.745,0.44 -1.354,1.304 -1.354,1.921 0,0.617 -0.781,1.985 -1.737,3.04 -0.955,1.056 -1.895,3.341 -2.089,5.079 -0.781,7 -0.447,9.067 1.693,10.488 1.173,0.779 2.133,1.841 2.133,2.361 0,2.03 5.273,7.711 8.06,8.682 2.579,0.899 2.94,1.507 2.94,4.942 0,2.465 -0.778,4.907 -2.1,6.587 -1.347,1.712 -1.898,3.474 -1.536,4.913 0.419,1.671 -0.001,2.492 -1.645,3.216 -4.468,1.966 -2.845,7.471 2.203,7.471 3.639,0 5.078,1.713 5.078,6.045 0,2.376 0.697,4.276 2.001,5.456 1.101,0.996 3.139,4.216 4.53,7.155 2.83,5.984 4.408,6.571 7.234,2.692 2.362,-3.243 3.804,-2.519 5.366,2.694 1.343,4.485 1.519,4.585 4.04,2.303 1.641,-1.485 2.009,-1.499 3.579,-0.134 3.1,2.693 6.996,3.043 9.212,0.827 2.588,-2.588 4.651,-1.717 7.045,2.975 2.765,5.421 11.867,7.956 17.017,4.74 1.699,-1.061 2.727,-0.837 6.884,1.5 2.688,1.511 5.527,2.747 6.309,2.747 0.782,0 2.41,1.135 3.616,2.523 2.05,2.358 2.095,2.716 0.681,5.451 -0.833,1.61 -1.514,3.828 -1.514,4.929 0,3.366 -2.21,7.097 -4.203,7.097 -2.832,0 -11.243,8.401 -13.258,13.241 -0.974,2.342 -3.07,7.22 -4.655,10.839 -1.586,3.619 -2.884,7.294 -2.884,8.168 0,0.874 -1.575,4.876 -3.5,8.892 -2.652,5.535 -3.5,8.598 -3.5,12.648 0,5.792 -1.209,8.926 -4.286,11.108 -1.715,1.216 -1.889,2.156 -1.352,7.296 0.844,8.068 1.946,9.866 5.86,9.557 2.884,-0.228 3.231,0.071 4.065,3.501 1.015,4.175 2.535,4.709 5.157,1.812 1.388,-1.534 2.267,-1.742 4.22,-1 4.42,1.681 8.453,1.104 10.924,-1.562 2.95,-3.184 3.586,-3.142 7.573,0.5 2.577,2.354 4.206,3 7.562,3 2.352,0 4.277,-0.413 4.277,-0.918 0,-2.45 -1.442,-4.082 -3.607,-4.082 -3.584,0 -3.024,-2.956 1.522,-8.03 3.654,-4.077 4.09,-4.289 6.547,-3.169 1.448,0.659 3.709,1.199 5.026,1.199 3.457,0 3.938,1.592 1.512,5 -1.967,2.762 -2.001,5 -0.077,5 0.442,0 1.956,-1.152 3.364,-2.56 2.127,-2.127 3.145,-2.45 6.022,-1.91 2.108,0.396 3.725,0.223 4.135,-0.44 1.203,-1.946 4.118,-1.157 7.056,1.91 3.17,3.309 4.5,3.761 4.5,1.532 0,-0.808 -2.567,-3.365 -5.704,-5.683 -3.137,-2.317 -5.146,-4.399 -4.465,-4.626 0.682,-0.227 3.183,1.379 5.56,3.57 5.046,4.651 8.254,6.544 9.639,5.688 0.544,-0.336 2.164,0.313 3.6,1.443 1.667,1.311 3.424,1.85 4.859,1.489 1.671,-0.419 2.816,0.161 4.463,2.262 4,5.1 8.783,6.182 12.99,2.937 0.993,-0.765 1.239,-0.773 0.792,-0.025 -0.978,1.634 2.094,5.413 4.4,5.413 2.639,0 7.866,5.265 7.866,7.923 0,1.381 0.643,2.077 1.918,2.077 4.137,0 4.846,0.912 4.323,5.557 -0.446,3.953 -0.279,4.443 1.514,4.443 1.116,0 2.781,-1.227 3.73,-2.75 0.944,-1.513 2.886,-3.739 4.317,-4.948 2.468,-2.086 2.514,-2.295 0.9,-4.079 -2.293,-2.533 -2.144,-6.771 0.38,-10.855 1.144,-1.852 2.218,-3.368 2.386,-3.368 0.167,0 1.071,1.617 2.009,3.593 1.394,2.937 2.099,3.478 3.864,2.966 5.718,-1.66 9.906,-1.28 13.771,1.251 2.538,1.662 3.888,3.298 3.888,4.713 0,3.388 3.371,5.867 6.71,4.934 1.534,-0.428 4.178,-0.819 5.875,-0.868 1.697,-0.049 4.919,-1.36 7.161,-2.913 2.522,-1.748 6.111,-3.103 9.415,-3.555 5.033,-0.689 10.839,-3.428 10.839,-5.115 0,-1.993 6.946,-3.493 15.081,-3.257 l 8.581,0.25 3.231,-4.5 c 3.444,-4.796 4.548,-5.399 5.472,-2.99 0.318,0.829 1.829,2.04 3.357,2.69 1.528,0.651 3.79,2.075 5.028,3.166 2.247,1.981 2.253,1.981 4.539,-0.167 1.398,-1.313 3.442,-2.095 5.25,-2.008 1.629,0.079 3.818,-0.232 4.865,-0.69 1.748,-0.764 1.851,-0.499 1.256,3.227 -0.581,3.634 -0.414,4.12 1.595,4.639 1.235,0.32 3.271,2.393 4.525,4.608 2.525,4.459 2.865,4.609 5.668,2.489 1.337,-1.011 2.166,-3.273 2.643,-7.218 0.74,-6.117 0.488,-6.631 -5.058,-10.309 l -2.358,-1.564 2.662,-3.918 c 1.465,-2.155 2.663,-5.164 2.663,-6.686 0,-3.445 -3.191,-6.768 -6.5,-6.768 -1.446,0 -2.5,-0.576 -2.5,-1.365 0,-0.751 -0.945,-2.567 -2.1,-4.035 -2.57,-3.267 -2.028,-6.181 1.94,-10.429 2.058,-2.203 3.461,-2.905 4.998,-2.503 1.507,0.394 2.333,0.009 2.799,-1.305 1.151,-3.243 4.625,-6.363 7.087,-6.363 1.306,0 3.654,-0.661 5.217,-1.469 3.694,-1.911 9.04,-9.217 9.129,-12.478 0.142,-5.138 1.343,-6.428 7,-7.515 6.969,-1.341 7.778,-3.272 5.869,-14.013 l -1.368,-7.7 -6.536,-2.899 c -9.131,-4.051 -9.42,-4.267 -10.09,-7.521 -1.034,-5.026 -2.732,-7.142 -6.258,-7.804 -3.489,-0.654 -6.508,-3.287 -8.718,-7.601 -0.704,-1.375 -2.839,-4.413 -4.745,-6.75 -2.945,-3.612 -4.021,-4.25 -7.17,-4.25 -2.59,0 -4.301,-0.677 -5.683,-2.25 -2.629,-2.991 -8.937,-13.637 -9.861,-16.643 -0.405,-1.316 -2.035,-4.442 -3.623,-6.946 -3.426,-5.403 -3.537,-6.966 -0.864,-12.206 1.924,-3.771 1.941,-4.124 0.352,-7.196 -0.918,-1.777 -4.416,-6.293 -7.773,-10.035 -4.096,-4.568 -6.297,-7.943 -6.695,-10.265 l -0.592,-3.459 h 5.139 c 4.705,0 5.474,-0.346 9.093,-4.092 7.463,-7.726 11.551,-9.905 18.633,-9.932 l 6.32,-0.023 8.239,-6.932 c 5.151,-4.333 10.164,-7.604 13.374,-8.726 3.24,-1.132 5.518,-2.626 6.172,-4.045 0.57,-1.238 1.563,-2.25 2.207,-2.25 3.079,0 15.326,-4.568 17.835,-6.652 1.784,-1.482 4.122,-2.348 6.341,-2.348 2.571,0 4.612,-0.94 7.603,-3.5 2.249,-1.925 4.458,-3.5 4.909,-3.5 1.295,0 0.947,-3.234 -0.686,-6.364 -0.822,-1.576 -1.494,-3.038 -1.494,-3.25 0,-1.075 7.64,-0.176 10.652,1.253 2.815,1.336 3.398,2.123 3.151,4.25 -0.24,2.069 0.171,2.678 1.978,2.935 1.991,0.282 2.205,0.735 1.676,3.555 -0.526,2.8 -0.256,3.391 2.015,4.426 3.556,1.621 4.936,1.506 6.81,-0.564 2.506,-2.769 5.483,-15.798 6.119,-26.773 0.503,-8.686 0.323,-10.512 -1.337,-13.609 -1.736,-3.24 -1.77,-3.725 -0.358,-5.136 1.411,-1.412 1.356,-1.886 -0.585,-5.027 -2.113,-3.419 -4.455,-4.656 -8.871,-4.682 -2.318,-0.014 -3.018,-1.422 -1.25,-2.514 1.265,-0.782 1.323,-7.5 0.065,-7.5 -0.515,0 -2.504,-2.341 -4.422,-5.201 -3.405,-5.081 -3.449,-5.273 -1.887,-8.25 1.407,-2.682 3.051,-9.116 3.462,-13.549 0.076,-0.825 0.055,-4.875 -0.046,-9 -0.176,-7.165 -0.315,-7.574 -3.113,-9.166 -4.219,-2.4 -6.104,-8.948 -3.755,-13.041 3.253,-5.668 2.37,-8.321 -5.203,-15.633 -5.846,-5.644 -12.369,-10.77 -17.89,-14.058 -1.694,-1.009 -0.031,-5.593 2.525,-6.961 1.008,-0.539 4.237,-5.784 7.177,-11.655 5.209,-10.403 5.312,-10.773 4.056,-14.58 -0.709,-2.148 -1.676,-3.906 -2.148,-3.906 -0.473,0 -0.587,-1.083 -0.255,-2.407 0.332,-1.324 0.065,-3.414 -0.594,-4.645 -0.659,-1.232 -1.345,-3.636 -1.524,-5.343 -0.179,-1.708 -1.104,-6.187 -2.055,-9.953 -1.917,-7.594 -4.306,-9.839 -8.232,-7.738 -1.782,0.954 -2.337,0.747 -3.742,-1.397 -1.088,-1.661 -2.568,-2.517 -4.35,-2.517 -2.317,0 -3.012,-0.75 -4.885,-5.269005 -1.201,-2.898 -2.184,-5.839 -2.184,-6.536 0,-0.696 -0.728,-2.377 -1.619,-3.736 -1.373,-2.096 -1.427,-2.935 -0.351,-5.531 1.747,-4.217 -0.159,-5.922 -7.306,-6.535 -4.619,-0.396 -5.748,-0.172 -6.572,1.3 -0.91,1.626 -1.177,1.545 -3.146,-0.958 -1.183,-1.504 -3.131,-2.755 -4.329,-2.78 -1.197,-0.025 -4.183,-1.095 -6.636,-2.377 -4.322,-2.26 -4.452,-2.466 -4.23,-6.705 0.286,-5.489 -0.973,-7.813 -3.222,-5.947 -0.86,0.714 -2.309,1.012 -3.221,0.662 -0.926,-0.356 -2.439,0.071 -3.429,0.968 -1.419,1.283 -2.201,1.374 -3.914,0.457 -1.178,-0.63 -3.42,-0.866 -4.981,-0.523 -2.275,0.5 -3.335,1.755 -5.338,6.317 -1.933,4.403 -2.661,5.292 -3.216,3.925 -1.083,-2.668 1.355,-7.477 4.878,-9.622 1.722,-1.049 5.607,-2.415 8.632,-3.035 8.718,-1.788 9.618,-3.175 1.87,-2.882 -4.316,0.163 -7.179,-0.205 -8.202,-1.054 -3.151,-2.615 -9.113,1.008 -10.229,6.215 -0.388,1.814 -2.952,5.548 -6.056,8.822 -3.647,3.845 -5.383,6.506 -5.383,8.25 0,3.409 -2.672,3.388 -4.231,-0.033 l -1.187,-2.606 -2.234,2.801 c -1.978,2.481 -2.8,2.77 -7.206,2.537 -3.071,-0.163 -6.151,0.346 -8.057,1.331 -3.079,1.592 -4.09,4.042 -1.96,4.752 1.503,0.501 0.372,5.446 -2.221,9.709 l -2.029,3.337005 -2.836,-2.717005 c -2.422,-2.32 -3.15,-2.548 -4.989,-1.564 -1.184,0.634 -3.142,1.012 -4.352,0.84 -1.831,-0.261 -2.144,-0.855 -1.873,-3.563 0.511,-5.097 -1.759,-4.099 -10.628,4.676 -4.407,4.359005 -8.278,7.659005 -8.604,7.333005 -1.431,-1.43 -0.341,-4.532 2.822,-8.033005 3.642,-4.031 3.554,-5.839 -0.448,-9.226 -1.358,-1.15 -1.559,-2.051 -0.859,-3.864 0.763,-1.978 1.16,-2.158 2.432,-1.103 1.788,1.484 6.441,-0.138 6.488,-2.262 0.015,-0.699 1.365,-3.039 3,-5.199 1.635,-2.161 2.972,-4.988 2.972,-6.282 0,-3.39 -2.672,-9.292 -4.199,-9.276 -3.194,0.033 -5.64,1.338 -6.645,3.543 -1.662,3.649 -5.013,3.941 -10.435,0.911 -2.597,-1.452 -4.721,-3.073 -4.721,-3.605 0,-1.271 -6.813,-4.096 -8.044,-3.336 -0.526,0.325 -0.956,1.395 -0.956,2.377 0,1.72 -2.898,5.096 -4.374,5.096 -0.394,0 -0.428,-1.536 -0.076,-3.414 0.539,-2.872 0.285,-3.604 -1.601,-4.613 -1.272,-0.681 -4.304,-1.001 -7.015,-0.741 -4.462,0.429 -4.652,0.355 -2.907,-1.136 1.518,-1.298 1.759,-2.483 1.29,-6.346 -0.644,-5.302 -2.741,-6.395 -4.317,-2.25 -0.663,1.743 -1.705,2.5 -3.442,2.5 -2.473,0 -2.466,-0.024 0.888,-3.25 1.859,-1.788 4.544,-4.228 5.967,-5.424 2.807,-2.36 3.351,-6.006 1.437,-9.642 -1.638,-3.112 -2.782,-3.651 -7.786,-3.669 -3.129,-0.01 -5.1,-0.64 -6.694,-2.137 -2.84,-2.668 -6.565,-1.94 -8.177,1.598 -0.633,1.388 -1.62,2.524 -2.194,2.524 -0.574,0 -4.623,-1.8 -8.999,-4 -8.646,-4.347 -11.082,-4.811 -13.019,-2.477 -1.091,1.314 -1.553,1.332 -3.387,0.131 -2.983,-1.955 -8.272,-2.984 -9.031,-1.757 m -8.619,13.947 -2.277,1.844 3.166,1.104 c 3.089,1.077 3.167,1.032 3.167,-1.844 0,-3.42 -0.895,-3.663 -4.056,-1.104 m -6.439,3.134 c -1.059,4.821 0.143,7.141 3.313,6.395 4.423,-1.041 4.962,-2.302 1.932,-4.523 -1.513,-1.109 -2.75,-2.654 -2.75,-3.433 0,-2.603 -1.832,-1.456 -2.495,1.561 m 218.952,1.667 c -2.663,3.491 -2.702,3.703 -0.928,5 1.02,0.745 2.667,1.355 3.662,1.355 2.072,0 2.329,1.08 0.656,2.753 -0.772,0.772 -1.741,0.839 -2.931,0.202 -1.272,-0.681 -2.223,-0.505 -3.347,0.618 -2.037,2.038 -1.989,2.602 0.609,7.003 2.016,3.417 2.053,3.782 0.5,4.918 -0.923,0.674 -1.678,1.718 -1.678,2.319 0,2.703 2.551,6.221 5.54,7.639 5.384,2.555 7.007,2.042 9.355,-2.952 2.055,-4.372 3.304,-5.128 6.466,-3.915 1.157,0.444 1.306,1.16 0.62,2.965 -1.263,3.322 0.601,4.151 3.869,1.72 3.974,-2.956 3.792,-5.406 -0.797,-10.708 -4.557,-5.266 -4.777,-6.105 -2.312,-8.829 1.665,-1.839 1.638,-2.008 -0.61,-3.828 -1.294,-1.048 -3.338,-1.905 -4.542,-1.905 -2.968,0 -4.589,-1.837 -4.589,-5.2 0,-2.515 -0.345,-2.8 -3.381,-2.8 -2.715,0 -3.93,0.718 -6.162,3.645 m -206.348,9.014 c -0.968,2.125 -0.95,2.826 0.09,3.485 2.009,1.274 3.342,1.02 5.154,-0.982 1.554,-1.717 1.543,-1.946 -0.174,-3.5 -2.549,-2.307 -3.664,-2.087 -5.07,0.997 m 9.891,2.256 c 0,0.386 0.666,1.576 1.481,2.644 1.282,1.68 1.616,1.739 2.485,0.441 1.624,-2.427 1.196,-3.491 -1.467,-3.644 -1.374,-0.08 -2.499,0.172 -2.499,0.559 m 98.655,1.914 c -2.313,2.556 -2.064,4.673 0.769,6.529 1.333,0.874 2.716,2.507 3.072,3.63 0.772,2.432 2.504,1.708 2.504,-1.047 0,-1.255 0.686,-1.941 1.941,-1.941 3.394,0 3.385,-2.068 -0.025,-5.586 -3.727,-3.845 -5.847,-4.252 -8.261,-1.585 m 126,28 c -2.246,2.482 -2.027,5.129 0.702,8.462 l 2.284,2.792 1.262,-2.77 c 1.145,-2.512 1.356,-2.602 2.27,-0.969 0.554,0.991 0.731,2.903 0.393,4.25 -0.532,2.12 -0.893,2.301 -2.676,1.347 -2.706,-1.448 -3.304,-0.691 -2.17,2.746 1.359,4.121005 5.092,5.650005 9.93,4.068005 3.243,-1.060005 3.996,-1.851005 4.779,-5.016005 0.841,-3.403 0.658,-4.039 -1.938,-6.748 -1.576,-1.645 -3.368,-2.991 -3.982,-2.991 -0.614,0 -2.643,-1.575 -4.509,-3.5 -3.927,-4.051 -4.14,-4.108 -6.345,-1.671"
     stroke="none"
     fill="#040404"
     fill-rule="evenodd"
     id="path1"
     style="fill:#ffffff;fill-opacity:1" />
</svg>
