<?xml version="1.0" encoding="UTF-8" standalone="no"?>
<!-- Created with Inkscape (http://www.inkscape.org/) -->

<svg
   width="49.646034mm"
   height="64.707214mm"
   viewBox="0 0 49.646034 64.707214"
   version="1.1"
   id="svg1"
   xml:space="preserve"
   inkscape:version="1.3 (0e150ed, 2023-07-21)"
   sodipodi:docname="Hub_Island_Just_Enough_Room_Island-top.svg"
   xmlns:inkscape="http://www.inkscape.org/namespaces/inkscape"
   xmlns:sodipodi="http://sodipodi.sourceforge.net/DTD/sodipodi-0.dtd"
   xmlns="http://www.w3.org/2000/svg"
   xmlns:svg="http://www.w3.org/2000/svg"><sodipodi:namedview
     id="namedview1"
     pagecolor="#505050"
     bordercolor="#ffffff"
     borderopacity="1"
     inkscape:showpageshadow="0"
     inkscape:pageopacity="0"
     inkscape:pagecheckerboard="1"
     inkscape:deskcolor="#505050"
     inkscape:document-units="mm"
     inkscape:zoom="0.45968013"
     inkscape:cx="42.420802"
     inkscape:cy="123.99927"
     inkscape:current-layer="layer1" /><defs
     id="defs1" /><g
     inkscape:label="Layer 1"
     inkscape:groupmode="layer"
     id="layer1"
     transform="translate(-93.904235,-112.78103)"><path
       style="fill:#ffffff;fill-opacity:1;stroke:none;stroke-width:1.4;stroke-linecap:round;stroke-linejoin:round;stroke:none"
       d="m 100.87961,173.79447 c 2.09502,4.87784 2.79486,4.23596 4.1946,2.00813 1.39974,-2.22783 3.87183,-3.80935 3.67209,-5.83351 -0.19973,-2.02416 -2.02953,-3.64464 1.14567,-4.0103 3.17519,-0.36566 4.47012,0.384 4.37585,-1.41244 -0.0943,-1.79644 -2.84975,-4.05034 1.9027,-3.64334 4.75244,0.40699 4.94223,0.96553 7.29544,0.0796 2.35321,-0.88591 2.23229,1.63276 3.79285,1.24498 1.56057,-0.38778 5.9149,-1.46602 5.97835,-4.00277 0.0635,-2.53676 -1.38317,-4.42236 1.717,-4.78984 3.10017,-0.36747 3.14226,-1.43038 3.54426,-2.76791 0.40201,-1.33753 3.27246,-3.90447 3.77203,-6.04064 0.49957,-2.13618 2.40642,-4.49253 0.33472,-4.49253 -2.07171,0 -2.96908,0.94566 -3.14069,-1.5585 -0.1716,-2.50416 0.9925,-4.01409 -0.17596,-4.58682 -1.16846,-0.57273 -1.67461,-2.59349 -2.30763,-3.86682 -0.63302,-1.27332 -1.54109,-1.60499 -3.67659,-2.47956 -2.13549,-0.87457 -2.88349,-2.13559 -2.47908,-4.32236 0.4044,-2.18677 3.27857,-4.04398 2.79569,-5.97706 -0.48288,-1.93308 0.26799,-3.76822 -2.70602,-4.44979 -2.97402,-0.68156 -2.43494,1.97136 -4.09805,1.97136 -1.66311,0 -1.25642,2.49762 -3.50478,3.05625 -2.24836,0.55863 -1.28954,2.89957 -3.5067,2.08942 -2.21716,-0.81014 -1.95754,3.44851 -3.25577,2.36556 -1.29822,-1.08294 -2.824,-3.58746 -4.33638,-2.20907 -1.51237,1.37839 -4.19806,2.87658 -5.45379,4.23437 -1.25572,1.3578 -5.16364,2.74288 -3.89627,5.85392 1.26737,3.11105 -1.15291,4.68667 -0.84304,7.04327 0.30986,2.35661 -1.56347,1.49996 -1.00097,5.76895 0.56249,4.26898 3.82371,5.64526 1.68147,8.04257 -2.14224,2.39731 -1.55301,2.20214 -0.0276,3.6081 1.52542,1.40597 3.45447,1.2248 2.48743,2.68235 -0.96705,1.45755 -2.18716,3.93627 -4.40575,3.93627 -2.21859,0 -2.488616,2.54678 -3.950669,2.80001 -1.462056,0.25322 -3.449084,3.40737 -2.758329,4.79205 0.690756,1.38469 2.888888,1.29216 3.922546,3.0397 1.033658,1.74756 0.679974,1.75866 2.911372,1.82638 0,0 0,10e-6 0,2e-5 z"
       id="path1"
       sodipodi:nodetypes="sssssssscsssssssssssssssssssssssssssss" /></g></svg>
