<svg xmlns="http://www.w3.org/2000/svg" xml:space="preserve" width="603.376" height="1875.937" version="1.0"><defs fill="#fff"><clipPath id="a" fill="#fff" clipPathUnits="userSpaceOnUse"><path d="M399.542 443.294c1.266-1.227 4.368-3.358 4.53-5.028.654-.265 1.139-.673 1.736-1.035.392-.238.802-.401 1.2-.617.578-.314 1.107-.782 1.673-1.09.59-.32 1.218-.526 1.8-.907.828-.542 2.542-1.68 3.409-1.979.333-.824.815-1.544 1.183-2.341l1.627-3.503 4.42-1.924c2.955-3.655-.025-9.922-.6-14.032-.145-1.03-.118-2.187-.175-3.231-.015-.293 1.21-1.987 1.437-2.342.727-1.134 1.462-2.234 2.21-3.358.586-.88.927-1.893 1.673-2.686 1.262-1.343 2.72-2.53 4.01-3.848 3.758-3.842 7.64-7.519 11.411-11.346 1.228-1.245 2.762-2.391 3.883-3.72l3.063-3.631c1.187-1.408 2.864-2.194 4.42-3.177.996-.63 1.788-1.746 2.809-2.324.274-.154 2.827-1.57 2.92-1.652.144-.124.926-1.63 1.137-1.868.824-.934 1.953-1.816 2.872-2.669l.126-3.45c-.867-.747-2.177-1.648-2.935-2.395-.555-.547-3.978-3.389-5.146-4.338-.393-.32-.863-.565-1.247-.89-.912-.772-4.646-4.247-5.446-4.538l1.543-2.752 11.742-17.38 3.533-5.81 1.728-.86-.216-1.616-.029-.254 2.685-4.214 1.04-2.07 7.52-14.933 2.236-4.434 1.674-3.61 4.78-11.058 5.067-11.72 2.296-3.128.514-.172-.12-1.025 4.042-10.56 1.226-4.338.508-1.127.145-2.309.094-1.508 2.224-7.295.957-1.856 1.405-1.024.753-1.224 3.169-8.904 2.32-4.598.788-5.77 2.512-8.84.197-3.132.144-2.272 1.033-2.992.3-.425 2.762-3.844.46-1.382 1.728-9.604 2.78-8.175.676-6.614.22-2.16 2.804-6.36 1.77-5.967.879-3.783 2.17-9.342.711-2.302 1.28-4.14.754-6.896 3.563-13.365 1.117-6.01 2.481-13.324 1.549-6.194.03-10.162.61-.928 1.728-2.626.077-.117 1.262-3.286.442-5.673.036-.446.508-6.47 1.13-7.762-.125-2.895.514-1.663 1.297-.88.126-.084.256-.034 1.106-.138.67-.081.945-1.17 1.513-.117 1.578 1.444 1.943 1.768 1.423 1.877.957.646 1.35.171 1.674-.515.838-.667 3.114-2.495 1.74-1.768 2.2-3.375.514-1.176.21-.481 1.68-3.83 1.148-4.657.053-.218.03-.213.556-4.063-.108-.31-.753-2.158-1.626.233-.574-.226-.083-.034-.198-.557 1.339-10.163.377-1.408 1.943-7.288 2.194-8.223 1.28-5.617.501-2.228.407-1.767.497-2.187.226-3.073-.035-.268-.093-.718c.936.03 2.436-.06 3.352.071.625.09 1.187.261 1.831.25.616-.01 3.525-.054 3.976.046 0 0 .038.907.131 1.274.113.007 1.154-.705 2.093-.774.202-.261 1.47-.872 1.883-1.16l1.124-.045c.5.243 2.76 1.564 3.218 2.116.286.005 1.567-.644 2.014-.774.258.14.706.205.994.16.271-1.566-.85-1.23.89-2.958.808.019 3.01.247 3.216.41.068.298.395.7.61.902 1.12 1.047 2.418.383 3.628-.084l.419.242c1.095-.25 3.546-.797 3.758-.872 1.253-.446 1.632-.423 2.95-.455.108-.003.207-.094.286-.157 1.014-.812 2.063-2.163 3.339-1.21.494.369.735.915.81 1.497.533-.075 1.18-.12 1.72-.065.521-.336 1.095-.772 1.783-.938.53.632 1.112 1.468 1.498 2.2-.102.304-.736 1.721-.704 1.9.163.49.606 1.008.884 1.445.156.247 1.64 1.045 1.902 1.353.254.298.444 1.343.749 1.732.26.333.969.876 1.377 1.028a7.91 7.91 0 0 0 .99 1.458c.933.24 5.022.984 6.378 1.171l.883-1.574c.917.031 1.944.163 2.846.09.558-.045 5.536-.897 7.443-1.171l.225-.026c.921-1.366 2.304-4.522 3.16-6.157 1.598-.242 3.116-.608 4.732-.572l4.044.09c1.219.028 2.389.58 3.56.526.11-.344-.015-4.211-.062-4.84-.022-.282.082-1.287.251-1.451.751-.316 2.426-.06 3.321-.119.157-.849 2.254-3.188 2.59-4.185-.208-.498-.8-1.048-1.107-1.515.22-1.164 1.523-6.38 1.954-7.798.326-1.076 1.229-5.56 1.368-6.637.061-.468-.93-2.183-1.107-2.823-.04-.144.163-5.721.208-5.837.51-.52 1.431-.787 1.912-1.334.223-1.473-.09-1.721-.052-2.77.015-.423.099-.818.083-1.251.386-.28 1.796-.823 2.006-1 .215-.416.227-1.254.344-1.451.1-.168.525-.786.586-.954.16-.445.801-.786.992-1.525.245-.947-.633-1.858-.032-3.132.095-.2.805-.726.805-.726l.188.073c.117.183 1.257.69 1.566.771.26.069 1.646.978 1.756 1.208.027.058.055.885.083 1.189.028.29.18.526.23.79.04.21-.307 1.362-.251 1.56.198.114.181.248.293.382.475.575 1.471 1.032 1.786 1.471.308.43.448 1.034.825 1.407.733.726 1.807.773 2.708 1.218.446.27 1.95 1.31 2.028 1.748.113.058.731 0 .83-.09.336.028.557-.167.855-.278.21-.077 2.654-.387 3.297-.734.45-.243 1.089-.883 1.558-.99.66-.15 1.465.56 2.113.674.586.104 1.224.126 1.817.117 0 0-1.497 14.225-1.47 14.37.563 2.937 1.16 5.888 1.626 8.84-1.222 2.508-2.468 4.92-3.692 7.345-.367.727-.244 8.63-.916 9.696-.125-.03-.724-.288-.848-.38-.255.192-.4.597-.738.682.002.659-.158 2.569-.117 3.044.035.414.33 1.892.324 2.252-.008.574.065 2.521-.29 2.93-.277.1-1.363 1.853-2.532 2.587-.064-.073-1.425-2.42-1.486-2.605-2.527 2.718-4.982 5.52-7.468 8.277a183.983 183.983 0 0 0 8.425 9.63c.205.218-.321 2.543-.496 2.725-.112.86.07 2.055.182 2.922.015.108.163 1.308.197 1.817.014.2-.468 3.509-.508 3.854l-.407 3.425-3.497 2.723.969 2.239c.4.923 1.95 1.163 2.704 1.913.575.572.638 1.258 1.071 1.846.28.38.813.61 1.143.971.29.316 2.08 3.99 2.08 3.99.076.555.525.92.723 1.391.521 1.24.868 2.442.816 3.807-.018.461-1.7 1.82-1.746 1.875.06.414.077 1.124.199 1.39.682 1.488.96 2.838.413 4.485.788.168-1.998 2.439-.63 6.767-.215 1.893.968 1.217.569 3.075-.798 1.48-.673 5.666-2.297 6.408-.874 2.111-1.664 2.68-2.832 4.31-.398.557-.69 1.173-1.022 1.753-.578 1.005-3.058 3-4.158 3.308l.005.532c2.4 1.632 3.916 2.847 6.09 4.588.187.15 1.998-.711 2.278-.684.272.355.614 1.19.838 1.378-1.21.513-2.691.984-3.825 1.622-.062.035-1.131 1.268-1.4 1.554.113 1.164.263 2.325.395 3.486l-2.427.935.095 1.513s-2.297 1.022-3.03 1.56l-2.505 1.85c-.106.844-.195 1.691-.288 2.537l.676.77c-.1 1.164-.35 2.53-.317 3.685 0 .035.408.933.448 1.025.557.42 1.117.682 1.645.962.178.541.332.985.418 1.54-.623.936-1.423 3.525-1.166 4.64.038.169 1.85 3.726 2.213 4.456l-2.369.482-.376 2.344-2.702-.584c-.023 1.702.702 2.315 1.59 3.754l-.478.783c-.722.149-1.445.33-2.17.447-.367.536-.777 1.042-1.148 1.575l2.444 1.364 1.334 2.41 1.602.632.419.668c-.292 2.324-3.454 6.012-3.103 7.184l.335 1.12 1.775.84.442.839-.537 1.209-1.776.687.532 3.274-2.53.77.623 5.596-.37.914-1.61.461-.22.405 2.05 3.384-1.751-.165c-.499.186-1.005.414-1.517.558-1.022-.509-1.513.298-2.31.269-.608-.022-1.612-1.061-2.548-1.366-1.13-.369-2.098-.445-3.237-.621-.914-.142-3.144-.678-3.334-.746-1.043-.367-3.123-2.753-4.143-3.144-.313-.121-5.645-.474-5.952-.415-.157.03-1.667.644-1.81.745-.047.567-.737.957-1.262.87-.564-.35-1.258-.562-1.81-.932-.437-.293-2.233-1.654-2.429-2.069-.291-.618-.396-1.44-.571-2.09-.218-.807-.862-1.323-1.024-2.215-.058-.32.029-.507.12-.807.205-.683.581-2.344.713-3.063.062-.335.025-.716.095-1.035.156-.704.927-.83.858-1.697-.238-.447-.7-.96-.834-1.428-.081-.284-.04-.587-.19-.87-.246-.459-.693-.844-.976-1.281-.47-.726-1.003-3.066-1.183-3.981-.135-.688.045-1.604-.44-2.139-.159-.175-1.91-.33-2.514-1.005-.312-.058-.613-.036-.921-.073-.15-.144-.31-.312-.487-.422-.839-.523-1.812-.885-2.614-1.442-.337-.234-.503-.574-.888-.772-.358-.185-1.708-.518-1.945-.583-.605-.166-1.45.06-2.061.132-.23.027-.608-.396-1.206-.22-.158.047-2.286 1.044-2.365 1.11-1.625-.054-5.366 1.238-7.559 1.324-1.622.063-1.773-.567-2.88-.746-.386-.063-.722-.01-1.122-.132-1.33-.408-2.715-1.15-4.029-1.661-.716-.28-1.706-.448-2.353-.83-.052-.03-.82-1.019-.9-1.107-1.874-2.048-3.066-3.709-4.485-6.125-.596.366-1.286.699-1.828 1.132-.31.325.494.897-1.08 1.13-.128.143-1.082.331-1.412.338-.245.122-1.035.744-1.191.914-.667.724-1.757 3.19-2.589 3.454-.264.083-.815-.159-1.107-.23-1.07.114-.882 1.792-1.648 2.732-.1.02-1.95 1.147-2.036 1.227-.213.2-1.7 1.358-1.84 1.276-.255.19-.424.456-.638.686-.881.952-1.393.86-2.491 1.19-.035.085-.492.082-.721.097-.23.288-1.288 1.72-1.411 1.865-.256.027-4.172 2.107-4.21 2.515-.161.136-.89.703-1.01.746 0 0-.617-.586-1.15-.698-.288.114-.526.066-.803-.06l-1.523.517c-.037.107-.414 1.034-.567 1.07-.091.365-1.426.94-1.426.94-.678.097-1.087.875-1.69 1.118-.091.152-.53 1.22-.498 1.3.105.107.21.687.166.83-.262.256-.758.487-1.107.554-.119.258-.588.946-.65.938-.004.412.038 2.036-.194 2.238-.07-.012-.333.228-.333.228-.523.103-.73 2.506-.581 2.804-.193.153-.457.366-.61.554l.07 1.468c-1.779.936-.753 1.09-.499 2.022-.207.543-.135 1.913-.373 2.225-.344.45-.603.958-.956 1.42.08.1.042.83.042.987-.053.049-.18.469-.18.469-.223-.013-.755.519-.707.782-.11.067-.198.54-.221.674-.216.165-.65.72-.65.72-.2.24.108.757.179.904.36.03 1.13.228 1.219.265.162.332 1.046 2.052.941 2.466-.017.066-.637 1.83-.637 1.83l-.581.083s-.862.87-.9 1.011c-.083.254.03 1.043.125 1.119-.118.137-.2 1.048-.236 1.083 0 0-.44.183-.526.24-.373-.074-1.724-.325-1.971-.4-.095-.03-.535.123-.535.123.027.162.036 1.051-.014 1.313-.048.037-.754.256-.844.24-.238-.258-1.024-.015-1.163.132-.634.993-.27 2.19-.319 3.261l-.152 3.465c-.013.327-.438 1.206-.54 2.021-.108.869-.065 1.76-.18 2.635.074.099.299.008.499.254.044.154-.495 1.254-.623 1.347.078.494-.43 1.684-.43 1.684.076.072 1.02.412 1.122.398.267-.038.543-.278.802-.373.14.052 1.759 1.456 1.759 1.456.041.437.63 1.215.831 1.239 0 0-.143 1.935-.18 2.13-.11.172-1.177.517-1.177.517s-.496 1.404-.305 1.6c0 0 .12.922.143 1.007-.14.144-.578 1.046-.662 1.14-.045.25.148 1.74.068 2.147-.375.693-.706.2-1.049.073 0 0-.708.353-.87.468-.088.275-.18.65-.331.9-.24.396-.897 1.295-.897 1.295-.393.387-.66.943-1.146 1.248-.459-.12-1.97 1.022-2.137 1.384-.188.409-.237.877-.401 1.3-.244.205-1.267.876-1.606 1.07-.273.156-.627.04-.9.277-.24.209-.252.401-.61.517-.21.07-1.231-.077-1.411-.059-1.776.176-1.87 1.907-1.934 3.393-.047 1.084-.43 2.95.937 3.272.092.37 1.563 1.466 1.647 1.685-.028.132-.175.61-.11.746.395.454 1.356.101 1.522 1.467-.077.227-.805 1.139-.775 1.24.024.157.928.845 1.039.842 1.626-.04 1.721-.01 2.492 1.552.346.704-.682 1.015-.679 1.251.016.19.27.57.374.747-.101.472-.634.729-.803 1.155-.014 1.046.695 1.858.845 2.707.054.304-.034.66.027.963.078.39.998.943.998 1.68-.122.497-1.409 1.713-1.607 1.965-.148.356-.074.788-.18 1.12-.169.524-.6.936-.706 1.503.053.098.57.197.72.205.624 1.791 2.848 7.434 3.282 8.399.193.43.442 4.826.58 5.679-.497.898.806 3.048-.263 3.513l-.733.156c.023 1.325-.005 2.647-.028 3.971-.027 1.563.293 6.08-.635 7.16-.582.675-1.251.455-1.93.757-.099.16-.065.498-.08.687-.288.397-.852-.076-1.15-.12.058.704-.118 1.072.226 1.686.309.552.728 1.14 1.148 2.34.549 1.566.545 4.977 1.782 6.039.79.677 4.67 2.07 4.797 2.27.663 1.056.965 5.54 1.98 6.245-.308.587-.852 1.046-1.135 1.635 1.022.917.978 2.722.746 3.956-1.841.058-3.705-.151-5.526-.085-1.66.06-3.316.864-4.91 1.273-1.013.26-2.053.434-3.046.79-.553.2-1.158.536-1.458 1.05-.4.684 1.023 6.735 1.458 7.536.311.575 1.545 2.03 2.107 2.357.929.542 2.016.363 3.03.31.508-.028 2.41-.253 2.77-.465.972.017 2-.165 2.869-.052.304.04.614.18.923.224 2.828.405 3.854.02 5.72-2.116.473-.542.972-1.05 1.33-1.686.212-.38.226-1.017.355-1.445.083-.274 1.98-1.97 2.103-2.129.685.333 2.767 1.363 3.682 1.992 1.76 1.208 3.513 2.676 5.51 3.457.602.236 1.158.189 1.766.035.669.042 1.271-.138 1.944.069 1.164.357 2.01 1.396 3.03 2.03.525.324 4.775 1.854 5.391 1.96.927.161 2.665.504 3.62.38 1.337-.175 2.805-.668 4.164-.534 1.415.139 2.309 1.049 3.24 1.187 1.086.161 1.845.052 2.642 1.067.07.672.603 2.2 1.037 2.735-.04.264-.064.541-.049.808-.21.184-.267.479-.454.689-.034.207-.275 1.186-.275 1.186-.048.346.318 1.267.616 1.48.096-.027.362-.089.457-.037.054.878-.343 2.474-.288 2.63.118.34-.045.848-.055 1.223 0 0-.758.045-.809.117-.042.188-.216 1.321-.15 1.397.103.035-.096 1.368-.096 1.368s.619.15.869.191c.055.51-.87 4.492-2.77 1.868-.198-.274-.94-1.993-1.066-2.541-.236-.212-.785-.249-1.096-.23-.246.103-.333.423-.591.474-.677-.019-1.118-.759-1.37-.688-.61.352-.557 1.505-1.745.459-.828.1-.721.632-1.111.996-.276.258-1.461.601-1.529.597-.841-.063-1.685-.111-2.523-.215-.286-.176-.263-.624-.707-.582-.741.071-1.13 1.26-1.658 1.746-.238.219-.62.12-.894.26-.622.32-1.396 1.842-1.962 1.802-.513-.195-.373-.902-.446-1.25-1.499-1.726-3.493 4.405-3.678 4.593-.114.117-.308.225-.447.322-.79.2-1.56-.92-2.524-.184-.852.65-2.472 2.847-3.274 3.751-.318.359-.82.52-1.095.92-.377.545.358.999-.332 1.377-.99.542-2.417.912-3.245 1.654-.206.184-.353.458-.591.659-1.15.967-2.426 1.69-3.72 2.45-.77.451-1.592.755-2.38 1.163-.788.409-1.564.902-2.336 1.348-.157.09-1.797.851-2.105.995-1.52.708-3.047 1.3-4.278 2.51-1.084 1.067-1.648 2.211-2.492 3.464-1.655 2.456-3.432 4.97-5.362 7.214-.595.692-2.2 2.13-2.38 3.01-.411 2.006-.847 3.99-1.164 6.013-.093.59-.7 3.822-.674 4.316.016.327.274 2.141.275 2.716.001 1.403.306 2.566-.582 3.732.335 1.175.905 2.657.925 3.9.02 1.265-.63 2.425-.82 3.628-.035.23.117.406.027.642-.289.752-.934 1.593-1.327 2.343-.42.803-.6 1.556-.945 2.344-.635 1.445-1.741 3-2.813 4.156-.355.383-.841.71-1.169 1.116-.411.509-.66 1.156-1.077 1.688-.463.59-1.286 1.059-1.668 1.632-.574.86-1.079 3.161-1.577 4.31-.487 1.122-1.084 2.064-1.459 3.277-.31 1.007-1.074 3.39-.656 4.338.26.594.822.923 1.063 1.437.504 1.074-.135 2.138 1.433 3.752.62.638 1.295 1.238 1.988 1.794.818.656 2.21 1.21 1.73 2.53 1.032.874 2.418 2.346 3.784 1.87 1.139-.4 2.297-.642 3.428-1.047.95-.34 2.88-.68 3.942-.74.821-.045 1.728.064 2.536-.125.598-.14 1.172-.385 1.76-.558.531-.156 1.056-.218 1.59-.335.72-.157 4.986-1.272 6.385-1.408 1.284-.126 2.48.418 3.717.418 3.113 0 6.343-.136 9.447.18 1.142.118 2.232.273 3.389.294 1.612.03 3.204-.093 4.821.014.772.051 2.753.533 3.298.46.3-.04.565-.243.81-.404 1.079-.707 3.865-1.625 4.169-1.73.318-.11 3.258-.198 3.89-.279.886-.113 6.096-1.79 6.476-1.855 1.015-.173 3.608.129 4.309-.112 1.948-.666 3-2.443 4.402-3.78.957-.913 2.396-1.428 3.297-2.412.498-.544.957-1.149 1.51-1.646.868-.78 1.793-1.607 2.8-2.204.49-.29 1.184-.56 1.602-.948.792-.736 1.47-1.604 2.299-2.33 1.32-1.156 7.705-5.573 9.38-6.877 2.147-1.671 4.306-3.34 6.464-4.993.505-.387 3.133-2.708 3.967-3.46 2.682-2.415 6.56-2.091 9.867-2.134.534-.006 1.09-.132 1.63-.153 2.059-.082 4.643.287 6.636.849 0 0 .082 12.644-.132 18.264-.055 1.453-.483 3.15-.706 4.6-.017.11-3.005 9.113-3.598 10.354-.93 1.944-1.656 2.936-2.715 4.813l-5.428 9.625c-.91 1.612-1.59 3.365-2.487 4.985-.655 1.18-1.848 2.806-2.308 4.022-.483 1.275-.797 3.595-1.106 4.991.604 1.297 1.735 4.192 2.457 5.273 1.155 1.729 1.953 2.6 3.2 4.261l6.402 8.52c.074.1 1.7 3.554 1.715 3.63.351 1.693.828 3.458 1.071 5.164 0 0 .276 3.365.215 3.864-.128 1.056-2.073 9.375-2.786 10.877-.422.89-1.198 1.863-1.74 2.702 0 0-6.486 9.836-6.492 9.872-.165.957-.912 4.19-.873 5.047.06 1.31.343 2.722.507 4.029.01.077 1.728 4.635 1.759 4.827l-.012 5.101c-3.333 3.528-7.763 6.016-11.82 8.656l-3.834 8.388c-.748 1.636-1.337 2.492-1.917 4.194-.188.551-.013.911-.022 1.494l-.044 2.988c.087.902.554 2.098.79 2.991.036.13.294 1.042.292 1.1-.022.984-.837 3.802-1.1 4.992l-4.119 1.464-2.14 2.571c-.418.502-.75.718-1.071 1.286-.033.06-1.835 4.95-1.895 5.157-.066.232 0 10.042-.018 10.1-.326 1.11-3.043 7.033-3.043 7.033s-4.692 8.284-5.267 9.584c-.358.808-.875 4.197-1.148 5.5-.333.306-3.188 2.918-3.204 2.95 0 0-5.655 10.55-6.35 12.196-.062.149-.422 3.623-.514 4.084-1.055 5.328-4.308 20.346-4.872 22.476-.065.246-1.425 4.313-1.483 4.428-.763 1.488-2.152 2.783-2.965 4.255-.059.105-.694 2.708-.82 3.197 2.518 4.766 4.961 9.435 7.414 14.108.273.52 1.087 3.448 1.13 3.864.006.05-.682 2.95-.682 2.95-1.194 1.314-3.855 3.954-4.788 5.273-.028.039-1.367 4.209-1.37 4.262-.04.968.572 3.828.736 4.937l-4.101 9.082c2.313 9.918 4.466 19.872 6.743 29.798 0 0-16.44 23.376-16.65 23.905-.549 1.386-4.381 16.955-4.484 17.828-.09.768.18 5.146.188 5.353 0 0 .504 13.987.494 14.008l-5.86 11.742c-.146.294-.392.67-.49.976-.256.813-.962 4.655-.962 4.655.001 1.086.442 2.598.628 3.692.008.048-.057.47-.066.544-.18 1.438-.254 3.044-.556 4.455 0 0-3.362 13.306-3.676 15.331-.167 1.073 0 8.354 0 8.354.072 1.734.46 3.484.568 5.218.098 1.586.04 3.235.059 4.827l-2.828 3.472c-1.076 1.018-4.141 3.187-4.203 3.259-.907 1.054-2.163 2.242-2.918 3.389-.804 1.22-1.44 2.904-2.097 4.228-.96 1.933-1.948 4.214-2.661 6.257l-1.907-.295-.347-.056-1.106 1.362-1.543 1.89-.388 1.251-.975 1.094-2.175 2.44-.39 1.252-1.572 2.165-1.458 1.513-1.295 1.228s-1.098-4.214-2.114-5.877c-.569-.93-2.152-4.105-2.322-4.628-.28-.866-.702-1.828-.897-2.717-.339-1.54-.965-7.41-1.268-8.628-.356-1.433-.876-2.865-1.215-4.397.3-.498 2.173-3.696 2.196-3.824.17-.972.399-6.523.296-7.492-.092-.866-4.03-9.092-4.67-10.938-.279-.806-1.482-16.612-1.778-17.713-.19-.71-3.728-8.773-4.87-12.042-.786-2.254-1.1-4.679-1.908-6.936-.773-2.158-8.418-24.193-9.018-26.19-1.42-4.738-8.105-25.46-8.4-26.227a550.628 550.628 0 0 1-6.504-17.774c-3.618-10.464-6.981-21.086-10.255-31.66-.785-2.535-7.573-22.908-9.993-30.617-1.398-1.218-13.717-9.574-14.739-10.339-.177-2.364-.363-4.916-.332-7.27.006-.452 2.96-11.656 3.38-13.024-2.632-3.212-5.586-6.27-8.394-9.328-.032-1.176-.326-5.339-.284-6.177.137-2.713.451-6.06.327-8.703-.07-1.52-4.376-20.5-4.681-21.539-.46-1.564-4.87-10.992-6.055-13.439-.696-1.437-12.9-27.58-14.027-30.26-1.307-3.107-8.232-24.422-10.644-31.812-.411-1.26-1.644-5.691-1.965-6.595-1.203-3.395-2.59-6.725-3.732-10.144-1.712-5.127-6.645-20.788-7.487-23.469-1.868-5.95-5.398-16.967-5.462-17.223z" style="opacity:.5;fill:#fff;fill-rule:evenodd;stroke-width:.999999"/></clipPath></defs><g clip-path="url(#a)" style="stroke-width:.968023" transform="matrix(1.9924 0 0 1.9924 -795.077 140.105)"><path fill="#fff" d="M0-124.267h1100V931.221H0Z" style="stroke-width:.968023"/><path fill="#fff" d="M0 75h1100v125H0ZM0 600h1100v125H0Z" style="stroke-width:.937069"/><path fill="none" stroke="#fff" stroke-width="26.621" d="M423.816 472.853h252.368L550 254.295ZM550 545.705l126.184-218.558H423.816Z"/></g><path d="M.97 1023.325c2.523-2.445 8.705-6.69 9.027-10.018 1.303-.527 2.269-1.34 3.46-2.062.78-.474 1.596-.799 2.389-1.23 1.151-.624 2.205-1.557 3.334-2.17 1.175-.638 2.426-1.049 3.585-1.808 1.65-1.08 5.066-3.348 6.793-3.942.663-1.643 1.624-3.077 2.358-4.665l3.24-6.98 8.805-3.833c5.89-7.281-.048-19.769-1.194-27.957-.288-2.053-.234-4.357-.347-6.438-.031-.584 2.408-3.958 2.862-4.665 1.45-2.26 2.914-4.453 4.404-6.69 1.166-1.754 1.846-3.772 3.333-5.354 2.515-2.674 5.42-5.042 7.988-7.666 7.488-7.655 15.222-14.98 22.738-22.605 2.446-2.482 5.501-4.764 7.736-7.414l6.101-7.233c2.366-2.805 5.708-4.372 8.806-6.329 1.986-1.255 3.563-3.479 5.598-4.63.545-.309 5.632-3.13 5.818-3.291.287-.249 1.844-3.249 2.264-3.724 1.643-1.86 3.892-3.617 5.724-5.317l.251-6.872c-1.728-1.49-4.338-3.285-5.849-4.773-1.105-1.09-7.925-6.753-10.253-8.644-.783-.637-1.72-1.126-2.484-1.772-1.817-1.538-9.257-8.463-10.85-9.041l3.074-5.485 23.396-34.63 7.038-11.574 3.443-1.712-.43-3.22-.058-.507 5.35-8.396 2.072-4.124 14.983-29.753 4.454-8.834 3.336-7.192 9.524-22.033 10.095-23.35 4.575-6.233 1.024-.342-.239-2.042 8.053-21.04 2.441-8.643 1.013-2.246.289-4.6.188-3.004 4.43-14.534 1.907-3.7 2.8-2.04 1.5-2.438 6.313-17.74 4.622-9.162 1.571-11.495 5.005-17.615.392-6.238.287-4.527 2.06-5.96.595-.849 5.504-7.658.916-2.754 3.443-19.135 5.54-16.287 1.346-13.178.44-4.303 5.586-12.672 3.527-11.888 1.75-7.538 4.323-18.613 1.418-4.588 2.55-8.247 1.501-13.74 7.1-26.628 2.226-11.974 4.943-26.547 3.085-12.342.061-20.246 1.214-1.85 3.443-5.232.154-.233 2.515-6.547.88-11.302.072-.89 1.012-12.89 2.252-15.465-.25-5.768 1.024-3.314 2.585-1.754.25-.165.512-.068 2.204-.275 1.335-.163 1.88-2.33 3.015-.233 3.144 2.877 3.873 3.521 2.834 3.74 1.906 1.287 2.691.342 3.335-1.027 1.669-1.328 6.206-4.972 3.466-3.521 4.383-6.726 1.023-2.342.418-.96 3.349-7.63 2.287-9.279.106-.433.06-.425 1.107-8.095-.214-.616-1.502-4.301-3.239.465-1.143-.452-.167-.067-.394-1.11 2.668-20.248.75-2.806 3.873-14.521 4.371-16.383 2.549-11.192 1-4.44.81-3.519.99-4.357.452-6.123-.071-.534-.185-1.431c1.865.062 4.852-.12 6.678.143 1.245.18 2.365.52 3.649.498 1.226-.02 7.022-.108 7.92.09 0 0 .076 1.807.262 2.539.225.014 2.3-1.405 4.17-1.541.403-.521 2.928-1.738 3.751-2.312l2.24-.09c.998.485 5.5 3.117 6.411 4.215.57.012 3.123-1.282 4.013-1.54.515.276 1.408.408 1.981.316.54-3.118-1.695-2.449 1.772-5.892 1.611.038 6 .493 6.409.817.136.595.787 1.393 1.217 1.796 2.229 2.087 4.815.764 7.227-.165l.834.481c2.182-.5 7.065-1.587 7.489-1.738 2.495-.888 3.25-.841 5.877-.907.216-.006.412-.187.568-.312 2.021-1.617 4.112-4.31 6.654-2.411.984.735 1.465 1.823 1.612 2.982 1.065-.149 2.353-.238 3.43-.13 1.037-.669 2.18-1.536 3.551-1.867 1.058 1.259 2.215 2.924 2.985 4.383-.203.606-1.467 3.43-1.403 3.787.325.976 1.207 2.007 1.76 2.878.313.491 3.269 2.082 3.791 2.695.505.595.884 2.676 1.492 3.451.52.663 1.93 1.746 2.744 2.049a15.758 15.758 0 0 0 1.97 2.904c1.862.48 10.008 1.96 12.71 2.334l1.76-3.137c1.826.062 3.873.326 5.67.18 1.112-.09 11.03-1.788 14.829-2.334l.448-.051c1.835-2.721 4.591-9.01 6.297-12.267 3.183-.482 6.208-1.212 9.428-1.14l8.057.18c2.428.055 4.76 1.153 7.092 1.046.22-.685-.03-8.39-.124-9.64-.042-.564.165-2.567.501-2.894 1.497-.628 4.833-.12 6.617-.235.312-1.692 4.491-6.353 5.16-8.34-.413-.992-1.595-2.088-2.205-3.019.438-2.317 3.034-12.711 3.892-15.536.65-2.143 2.449-11.078 2.727-13.223.121-.933-1.855-4.35-2.207-5.625-.08-.287.326-11.399.416-11.63 1.015-1.035 2.851-1.568 3.81-2.657.443-2.934-.182-3.43-.105-5.518.03-.843.197-1.632.166-2.495.769-.556 3.577-1.64 3.997-1.99.428-.83.451-2.5.685-2.893.199-.334 1.045-1.564 1.167-1.9.32-.886 1.597-1.566 1.977-3.038.489-1.888-1.262-3.702-.064-6.24.19-.399 1.604-1.447 1.604-1.447l.375.145c.232.364 2.505 1.375 3.12 1.537.519.137 3.28 1.949 3.498 2.406.055.115.11 1.763.166 2.369.056.58.36 1.05.457 1.574.079.42-.61 2.714-.5 3.11.396.225.362.492.584.76.947 1.146 2.932 2.056 3.559 2.93.614.858.893 2.06 1.644 2.804 1.46 1.446 3.6 1.54 5.395 2.426.888.54 3.887 2.61 4.042 3.482.223.117 1.456 0 1.651-.176.671.054 1.11-.335 1.706-.555.416-.155 5.286-.772 6.568-1.464.897-.484 2.169-1.758 3.105-1.971 1.315-.3 2.919 1.116 4.208 1.343 1.169.205 2.439.25 3.62.233 0 0-2.981 28.34-2.926 28.631 1.12 5.85 2.31 11.73 3.238 17.612-2.434 4.997-4.917 9.803-7.356 14.634-.731 1.45-.486 17.196-1.825 19.318-.248-.06-1.443-.573-1.69-.759-.507.385-.797 1.192-1.469 1.36.003 1.313-.316 5.119-.235 6.065.071.826.658 3.771.647 4.487-.016 1.144.129 5.024-.579 5.84-.552.197-2.716 3.69-5.044 5.152-.128-.145-2.84-4.82-2.96-5.19-5.036 5.416-9.927 10.997-14.88 16.492a366.567 366.567 0 0 0 16.786 19.188c.408.433-.64 5.065-.988 5.427-.223 1.716.14 4.096.363 5.822.028.215.324 2.606.393 3.622.026.396-.934 6.99-1.012 7.677l-.812 6.825-6.967 5.425 1.93 4.46c.797 1.84 3.887 2.318 5.387 3.812 1.146 1.14 1.27 2.507 2.135 3.68.558.756 1.619 1.215 2.277 1.933.576.63 4.143 7.95 4.143 7.95.152 1.106 1.046 1.832 1.441 2.771 1.04 2.472 1.729 4.866 1.625 7.585-.035.919-3.388 3.627-3.478 3.736.12.825.153 2.24.396 2.767 1.36 2.967 1.914 5.657.825 8.938 1.57.335-3.981 4.86-1.258 13.482-.427 3.772 1.93 2.425 1.134 6.127-1.588 2.95-1.34 11.289-4.574 12.768-1.742 4.207-3.317 5.34-5.644 8.589-.793 1.108-1.373 2.336-2.037 3.492-1.15 2.001-6.091 5.976-8.282 6.59l.009 1.06c4.78 3.25 7.802 5.673 12.133 9.14.372.298 3.98-1.416 4.538-1.361.542.707 1.223 2.368 1.669 2.745-2.41 1.022-5.36 1.96-7.621 3.232-.123.069-2.253 2.525-2.788 3.096.225 2.318.523 4.631.785 6.945l-4.835 1.863.19 3.014s-4.576 2.037-6.038 3.109l-4.99 3.685c-.212 1.682-.389 3.37-.573 5.055l1.346 1.535c-.2 2.318-.696 5.04-.632 7.342.002.07.814 1.859.894 2.042 1.11.837 2.225 1.357 3.276 1.916.355 1.079.663 1.963.833 3.069-1.24 1.864-2.834 7.023-2.323 9.246.077.335 3.688 7.422 4.409 8.877l-4.719.959-.75 4.671-5.384-1.165c-.045 3.393 1.4 4.615 3.17 7.48l-.954 1.562c-1.437.295-2.879.657-4.324.89-.73 1.067-1.547 2.076-2.287 3.137l4.87 2.717 2.658 4.802 3.191 1.26.835 1.33c-.58 4.63-6.88 11.98-6.182 14.315l.668 2.233 3.536 1.67.882 1.673-1.071 2.409-3.539 1.37 1.06 6.521-5.039 1.533 1.24 11.15-.739 1.823-3.204.919-.44.806 4.085 6.741-3.49-.328c-.994.372-2.002.825-3.023 1.112-2.035-1.013-3.014.594-4.601.536-1.212-.043-3.212-2.114-5.076-2.722-2.252-.734-4.18-.886-6.452-1.238-1.82-.282-6.263-1.35-6.641-1.484-2.079-.731-6.223-5.485-8.254-6.266-.625-.24-11.247-.944-11.86-.826-.312.06-3.322 1.283-3.605 1.484-.094 1.13-1.47 1.907-2.515 1.733-1.123-.696-2.508-1.12-3.605-1.856-.872-.584-4.451-3.295-4.84-4.122-.581-1.232-.79-2.87-1.14-4.166-.432-1.607-1.717-2.635-2.04-4.411-.114-.637.058-1.011.238-1.608.41-1.362 1.16-4.67 1.423-6.103.123-.668.05-1.428.19-2.062.309-1.403 1.847-1.653 1.708-3.382-.474-.89-1.393-1.914-1.66-2.844-.163-.567-.08-1.17-.38-1.733-.49-.916-1.38-1.682-1.945-2.554-.935-1.445-1.998-6.108-2.357-7.932-.268-1.37.09-3.195-.875-4.26-.318-.35-3.806-.66-5.01-2.004-.62-.115-1.22-.072-1.836-.144-.296-.287-.616-.622-.969-.841-1.671-1.042-3.61-1.763-5.208-2.873-.672-.467-1.003-1.144-1.77-1.54-.713-.366-3.402-1.03-3.874-1.16-1.206-.33-2.891.119-4.107.262-.458.054-1.211-.789-2.403-.436-.314.092-4.556 2.078-4.712 2.21-3.238-.108-10.691 2.467-15.06 2.637-3.232.126-3.533-1.129-5.739-1.486-.768-.124-1.438-.02-2.234-.263-2.652-.813-5.41-2.29-8.028-3.31-1.427-.555-3.4-.892-4.689-1.653-.104-.061-1.632-2.03-1.793-2.204-3.734-4.082-6.108-7.39-8.936-12.204-1.188.73-2.561 1.392-3.642 2.254-.616.65.984 1.789-2.151 2.254-.256.283-2.157.658-2.813.671-.489.243-2.064 1.484-2.374 1.82-1.328 1.445-3.5 6.358-5.157 6.883-.527.166-1.626-.316-2.207-.456-2.132.226-1.757 3.568-3.284 5.44-.198.042-3.884 2.286-4.055 2.446-.426.4-3.39 2.706-3.667 2.542-.509.38-.846.91-1.27 1.367-1.757 1.897-2.777 1.715-4.965 2.372-.068.169-.98.163-1.436.192-.459.574-2.565 3.427-2.811 3.715-.511.055-8.311 4.2-8.387 5.012-.322.271-1.776 1.4-2.014 1.486 0 0-1.228-1.167-2.29-1.39-.574.227-1.049.131-1.6-.12l-3.035 1.03c-.073.214-.825 2.061-1.13 2.134-.18.726-2.84 1.87-2.84 1.87-1.352.194-2.166 1.745-3.367 2.228-.182.304-1.055 2.43-.992 2.591.208.212.419 1.369.33 1.654-.523.51-1.511.97-2.207 1.102-.236.515-1.17 1.886-1.295 1.87-.008.82.076 4.056-.386 4.458-.14-.023-.662.456-.662.456-1.043.204-1.456 4.993-1.159 5.587-.384.305-.91.728-1.213 1.102l.137 2.926c-3.544 1.864-1.5 2.172-.993 4.027-.414 1.083-.27 3.814-.744 4.434-.686.895-1.2 1.908-1.904 2.83.16.2.083 1.652.083 1.965-.105.098-.36.935-.36.935-.442-.025-1.502 1.034-1.407 1.558-.22.135-.395 1.078-.441 1.343-.43.329-1.296 1.437-1.296 1.437-.395.477.216 1.506.358 1.798.715.06 2.25.456 2.428.53.323.66 2.086 4.087 1.876 4.913-.033.132-1.269 3.644-1.269 3.644l-1.158.167s-1.717 1.733-1.794 2.015c-.164.505.062 2.078.25 2.228-.236.273-.398 2.089-.47 2.159 0 0-.879.364-1.049.48-.743-.15-3.435-.65-3.927-.8-.19-.059-1.065.246-1.065.246.054.323.07 2.095-.028 2.615-.095.074-1.502.511-1.683.478-.473-.513-2.04-.029-2.317.265-1.263 1.976-.535 4.363-.634 6.496l-.303 6.904c-.025.652-.874 2.403-1.077 4.027-.215 1.73-.128 3.508-.358 5.25.148.196.595.017.994.505.088.308-.987 2.498-1.242 2.685.156.983-.855 3.355-.855 3.355.15.142 2.033.821 2.234.793.532-.076 1.083-.555 1.6-.744.276.104 3.503 2.901 3.503 2.901.083.87 1.255 2.422 1.656 2.468 0 0-.285 3.857-.36 4.244-.22.343-2.344 1.031-2.344 1.031s-.988 2.797-.607 3.188c0 0 .238 1.837.285 2.005-.28.288-1.151 2.084-1.32 2.271-.09.498.296 3.47.137 4.28-.748 1.38-1.408.398-2.09.143 0 0-1.412.704-1.733.933-.178.549-.36 1.297-.66 1.793-.48.79-1.789 2.58-1.789 2.58-.782.772-1.314 1.88-2.283 2.488-.914-.239-3.924 2.036-4.256 2.757-.375.815-.473 1.748-.8 2.59-.486.409-2.524 1.746-3.2 2.133-.543.31-1.25.077-1.793.55-.478.417-.502.8-1.214 1.031-.421.138-2.455-.154-2.813-.118-3.538.351-3.725 3.8-3.853 6.76-.093 2.161-.855 5.877 1.867 6.52.183.738 3.114 2.92 3.281 3.357-.056.263-.35 1.214-.22 1.487.787.904 2.702.2 3.034 2.923-.153.452-1.605 2.268-1.545 2.47.05.312 1.849 1.684 2.07 1.677 3.24-.081 3.43-.02 4.965 3.093.69 1.402-1.359 2.021-1.352 2.493.031.377.538 1.133.745 1.488-.202.94-1.263 1.452-1.6 2.3-.029 2.085 1.384 3.702 1.683 5.394.107.606-.067 1.313.054 1.919.155.776 1.988 1.878 1.988 3.347-.242.99-2.806 3.412-3.201 3.916-.295.708-.147 1.569-.358 2.23-.336 1.044-1.195 1.866-1.407 2.996.106.194 1.136.392 1.434.408 1.243 3.568 5.674 14.811 6.539 16.733.385.856.882 9.616 1.158 11.315-.993 1.79 1.603 6.074-.526 7l-1.46.311c.046 2.639-.009 5.274-.056 7.912-.055 3.114.584 12.114-1.266 14.265-1.158 1.345-2.492.906-3.843 1.507-.199.319-.131.993-.161 1.37-.575.79-1.697-.15-2.293-.24.117 1.405-.234 2.137.452 3.36.616 1.1 1.45 2.272 2.287 4.662 1.094 3.121 1.086 9.917 3.551 12.032 1.574 1.35 9.306 4.125 9.556 4.525 1.322 2.102 1.925 11.036 3.947 12.442-.615 1.169-1.699 2.084-2.262 3.256 2.036 1.828 1.949 5.423 1.486 7.883-3.669.115-7.381-.302-11.009-.17-3.307.12-6.607 1.721-9.782 2.536-2.02.519-4.093.864-6.071 1.576-1.102.397-2.306 1.065-2.905 2.091-.795 1.362 2.039 13.418 2.905 15.014.621 1.145 3.078 4.044 4.198 4.696 1.852 1.08 4.017.724 6.038.617 1.011-.054 4.8-.503 5.52-.926 1.935.035 3.984-.328 5.714-.102.606.079 1.223.357 1.84.446 5.634.807 7.68.04 11.398-4.217.94-1.079 1.935-2.09 2.646-3.36.424-.756.452-2.025.71-2.878.165-.546 3.946-3.925 4.19-4.241 1.364.663 5.512 2.714 7.336 3.968 3.505 2.406 7 5.332 10.978 6.889 1.2.468 2.307.375 3.518.068 1.332.084 2.533-.274 3.874.137 2.32.712 4.003 2.783 6.038 4.044 1.044.648 9.513 3.695 10.74 3.908 1.846.32 5.309 1.002 7.211.754 2.665-.347 5.59-1.328 8.297-1.062 2.82.276 4.6 2.089 6.457 2.365 2.162.321 3.674.103 5.263 2.125.14 1.339 1.2 4.385 2.065 5.45a7.951 7.951 0 0 0-.097 1.61c-.42.367-.532.954-.904 1.372-.069.413-.548 2.364-.548 2.364-.095.688.633 2.524 1.227 2.95.192-.055.72-.179.911-.075.107 1.748-.683 4.93-.574 5.241.235.675-.09 1.689-.11 2.436 0 0-1.51.09-1.611.231-.085.375-.431 2.634-.3 2.786.206.068-.19 2.725-.19 2.725s1.232.299 1.73.38c.11 1.014-1.731 8.95-5.517 3.722-.396-.546-1.876-3.972-2.125-5.064-.47-.42-1.564-.495-2.184-.458-.49.207-.664.844-1.178.946-1.349-.038-2.226-1.513-2.73-1.372-1.215.701-1.109 2.999-3.476.915-1.65.2-1.437 1.258-2.214 1.983-.55.514-2.91 1.2-3.045 1.19-1.677-.125-3.358-.22-5.027-.427-.57-.352-.525-1.245-1.409-1.16-1.477.142-2.25 2.509-3.304 3.478-.474.437-1.235.238-1.782.519-1.239.636-2.78 3.669-3.907 3.589-1.024-.387-.745-1.796-.89-2.49-2.985-3.438-6.96 8.776-7.327 9.151-.229.234-.615.449-.892.641-1.575.399-3.107-1.833-5.028-.366-1.698 1.297-4.926 5.672-6.522 7.474-.634.715-1.636 1.037-2.183 1.831-.75 1.087.714 1.992-.662 2.746-1.97 1.078-4.815 1.817-6.465 3.294-.41.368-.703.913-1.177 1.313-2.293 1.927-4.834 3.367-7.412 4.88-1.535.901-3.173 1.506-4.74 2.32-1.572.814-3.117 1.796-4.656 2.685-.314.18-3.58 1.696-4.194 1.982-3.03 1.411-6.071 2.59-8.523 5.003-2.16 2.125-3.284 4.404-4.965 6.9-3.297 4.893-6.838 9.904-10.683 14.372-1.187 1.38-4.383 4.244-4.743 6-.819 3.995-1.686 7.948-2.32 11.978-.184 1.177-1.393 7.615-1.342 8.601.033.65.547 4.265.549 5.41.002 2.796.61 5.112-1.16 7.436.667 2.34 1.803 5.293 1.843 7.769.04 2.523-1.257 4.833-1.633 7.23-.072.46.232.81.052 1.278-.575 1.5-1.86 3.175-2.643 4.67-.837 1.599-1.195 3.099-1.884 4.669-1.264 2.88-3.469 5.977-5.603 8.28-.708.764-1.677 1.417-2.33 2.224-.82 1.014-1.314 2.304-2.146 3.363-.922 1.175-2.562 2.11-3.324 3.252-1.143 1.712-2.148 6.298-3.14 8.586-.971 2.237-2.162 4.113-2.907 6.531-.618 2.005-2.141 6.754-1.309 8.643.52 1.183 1.64 1.838 2.12 2.862 1.002 2.141-.27 4.261 2.854 7.476a43.35 43.35 0 0 0 3.961 3.575c1.63 1.307 4.401 2.41 3.446 5.04 2.057 1.742 4.819 4.675 7.54 3.725 2.27-.794 4.577-1.278 6.83-2.085 1.891-.678 5.737-1.354 7.853-1.473 1.637-.092 3.444.126 5.053-.25 1.193-.28 2.335-.768 3.507-1.113 1.059-.31 2.104-.434 3.167-.666 1.434-.313 9.936-2.534 12.722-2.807 2.559-.25 4.942.834 7.407.834 6.203 0 12.637-.27 18.821.36 2.276.233 4.447.542 6.753.585 3.211.059 6.384-.187 9.606.027 1.538.102 5.485 1.063 6.57.918.6-.08 1.125-.485 1.615-.806 2.148-1.409 7.7-3.237 8.305-3.447.634-.219 6.491-.395 7.75-.555 1.766-.226 12.146-3.567 12.904-3.697 2.023-.344 7.188.256 8.585-.222 3.88-1.329 5.978-4.87 8.77-7.531 1.908-1.82 4.774-2.846 6.569-4.808.992-1.083 1.907-2.288 3.01-3.28 1.728-1.553 3.572-3.2 5.576-4.39.977-.58 2.36-1.116 3.194-1.89 1.578-1.466 2.928-3.195 4.58-4.642 2.629-2.302 15.352-11.103 18.69-13.7a2095.68 2095.68 0 0 1 12.878-9.95c1.005-.77 6.242-5.395 7.904-6.892 5.342-4.812 13.068-4.167 19.66-4.251 1.062-.013 2.17-.264 3.244-.306 4.104-.162 9.253.573 13.225 1.691 0 0 .163 25.192-.264 36.39-.11 2.895-.962 6.274-1.406 9.166-.034.22-5.987 18.156-7.17 20.629-1.854 3.872-3.299 5.849-5.408 9.588l-10.816 19.178c-1.811 3.21-3.166 6.704-4.955 9.93-1.305 2.353-3.681 5.592-4.599 8.015-.961 2.54-1.587 7.164-2.203 9.944 1.204 2.584 3.457 8.352 4.896 10.507 2.3 3.443 3.89 5.178 6.377 8.489l12.754 16.977c.147.196 3.385 7.079 3.417 7.232.7 3.372 1.649 6.887 2.134 10.287 0 0 .549 6.704.428 7.699-.254 2.103-4.13 18.679-5.55 21.671-.843 1.775-2.389 3.711-3.466 5.383 0 0-12.924 19.598-12.937 19.67-.33 1.906-1.816 8.348-1.739 10.055.12 2.611.683 5.423 1.01 8.028.02.154 3.443 9.234 3.504 9.616l-.023 10.164c-6.641 7.03-15.467 11.986-23.549 17.247l-7.64 16.711c-1.49 3.26-2.663 4.965-3.82 8.356-.374 1.1-.026 1.816-.044 2.978l-.087 5.954c.174 1.795 1.103 4.178 1.573 5.958.073.258.587 2.076.583 2.192-.044 1.96-1.668 7.574-2.191 9.945l-8.207 2.918-4.266 5.123c-.831.999-1.491 1.43-2.132 2.562-.066.117-3.657 9.86-3.775 10.274-.133.462-.002 20.007-.037 20.123-.65 2.21-6.062 14.013-6.062 14.013s-9.349 16.505-10.496 19.095c-.711 1.61-1.741 8.363-2.286 10.958-.663.61-6.352 5.815-6.384 5.877 0 0-11.267 21.02-12.65 24.301-.125.296-.842 7.218-1.025 8.137-2.103 10.616-8.584 40.537-9.707 44.78-.13.49-2.839 8.593-2.956 8.822-1.519 2.966-4.287 5.545-5.907 8.48-.117.208-1.382 5.395-1.631 6.368 5.014 9.497 9.883 18.798 14.77 28.11.543 1.035 2.165 6.868 2.252 7.698.009.098-1.36 5.877-1.36 5.877-2.378 2.619-7.68 7.878-9.54 10.506-.055.078-2.724 8.386-2.728 8.493-.08 1.928 1.138 7.626 1.466 9.836l-8.172 18.095c4.61 19.76 8.899 39.592 13.435 59.369 0 0-32.755 46.574-33.172 47.628-1.095 2.762-8.73 33.782-8.935 35.521-.181 1.53.359 10.253.374 10.666 0 0 1.004 27.867.984 27.908l-11.674 23.396c-.292.586-.783 1.334-.976 1.945-.511 1.619-1.917 9.274-1.917 9.274.002 2.164.879 5.177 1.25 7.356.016.096-.113.937-.132 1.083-.357 2.866-.506 6.066-1.107 8.876 0 0-6.698 26.512-7.325 30.547-.332 2.138 0 16.644 0 16.644.145 3.454.916 6.94 1.132 10.396.197 3.16.079 6.446.118 9.617l-5.634 6.918c-2.143 2.028-8.25 6.35-8.374 6.493-1.807 2.1-4.31 4.468-5.814 6.753-1.601 2.432-2.87 5.786-4.18 8.424-1.91 3.851-3.88 8.396-5.3 12.466l-3.799-.588-.692-.11-2.203 2.712-3.074 3.767-.774 2.492-1.942 2.18-4.334 4.862-.776 2.493-3.132 4.314-2.907 3.014-2.578 2.448s-2.189-8.397-4.213-11.71c-1.133-1.854-4.287-8.179-4.626-9.221-.56-1.726-1.398-3.642-1.788-5.413-.674-3.07-1.923-14.766-2.526-17.19-.71-2.857-1.745-5.708-2.42-8.762.595-.991 4.329-7.363 4.374-7.618.338-1.937.795-12.996.59-14.927-.183-1.726-8.03-18.116-9.302-21.794-.557-1.606-2.954-33.098-3.544-35.29-.38-1.417-7.43-17.48-9.702-23.994-1.567-4.49-2.192-9.321-3.803-13.818-1.54-4.3-16.773-48.202-17.967-52.18-2.832-9.441-16.149-50.727-16.737-52.256-4.502-11.703-8.863-23.563-12.959-35.414-7.207-20.847-13.909-42.01-20.431-63.08-1.564-5.05-15.088-45.642-19.911-61.001-2.784-2.427-27.329-19.074-29.365-20.598-.352-4.71-.723-9.796-.663-14.487.012-.9 5.898-23.223 6.737-25.948-5.247-6.399-11.13-12.492-16.726-18.584-.064-2.344-.65-10.637-.566-12.307.273-5.406.899-12.075.653-17.341-.142-3.03-8.72-40.844-9.328-42.914-.915-3.116-9.702-21.9-12.063-26.775-1.387-2.864-25.702-54.95-27.948-60.29-2.604-6.192-16.4-48.659-21.208-63.384-.819-2.509-3.276-11.338-3.914-13.14-2.397-6.764-5.16-13.398-7.435-20.211-3.411-10.214-13.24-41.418-14.917-46.758-3.722-11.854-10.757-33.807-10.884-34.316z" style="opacity:1;fill:none;fill-rule:evenodd;stroke:#fff;stroke-width:2;stroke-miterlimit:4;stroke-dasharray:none;stroke-opacity:1"/></svg>