<?xml version="1.0" encoding="UTF-8" standalone="no"?>
<!-- Created with Inkscape (http://www.inkscape.org/) -->

<svg
   width="108.38558mm"
   height="126.24362mm"
   viewBox="0 0 108.38558 126.24362"
   version="1.1"
   id="svg1"
   xml:space="preserve"
   inkscape:version="1.3 (0e150ed6c4, 2023-07-21)"
   sodipodi:docname="North_Sentinel_Island-top.svg"
   xmlns:inkscape="http://www.inkscape.org/namespaces/inkscape"
   xmlns:sodipodi="http://sodipodi.sourceforge.net/DTD/sodipodi-0.dtd"
   xmlns="http://www.w3.org/2000/svg"
   xmlns:svg="http://www.w3.org/2000/svg"><sodipodi:namedview
     id="namedview1"
     pagecolor="#505050"
     bordercolor="#ffffff"
     borderopacity="1"
     inkscape:showpageshadow="0"
     inkscape:pageopacity="0"
     inkscape:pagecheckerboard="1"
     inkscape:deskcolor="#505050"
     inkscape:document-units="mm"
     inkscape:zoom="0.90509668"
     inkscape:cx="157.44174"
     inkscape:cy="243.62038"
     inkscape:window-width="1600"
     inkscape:window-height="837"
     inkscape:window-x="-8"
     inkscape:window-y="-8"
     inkscape:window-maximized="1"
     inkscape:current-layer="layer1" /><defs
     id="defs1" /><g
     inkscape:label="Layer 1"
     inkscape:groupmode="layer"
     id="layer1"
     transform="translate(-52.836721,-86.831354)"><path
       style="fill:#555555;stroke-width:0.1;paint-order:markers stroke fill"
       d="m 139.47606,213.0326 c 1.37633,-0.21302 1.71742,-1.20584 1.9732,-1.71741 0.25579,-0.51157 0.84044,-1.24239 2.19245,-1.93666 1.35201,-0.69428 2.30207,-1.27893 2.92326,-0.87698 0.62119,0.40195 1.31547,-0.47503 1.35201,-1.71741 0.0365,-1.24239 1.38855,-1.71742 2.04628,-1.90013 0.65773,-0.1827 3.03288,0.47504 3.50791,-0.14616 0.47503,-0.62119 0.91352,-4.05602 1.09623,-3.32521 0.1827,0.73082 0.25578,0.69428 0.47503,-0.0365 0.21924,-0.73081 0.62119,-3.54445 0.51157,-4.38489 -0.10963,-0.84043 0.21924,-2.85018 0.95006,-3.90986 0.73081,-1.05968 1.82703,-3.25213 2.44823,-4.20218 0.62119,-0.95007 2.19244,-3.54446 2.26552,-4.93301 0.0731,-1.38855 -0.76735,-4.64067 -0.95006,-6.46771 -0.1827,-1.82704 -0.87698,-3.47137 -1.46163,-4.56759 -0.58465,-1.09623 -1.46163,-3.21559 -1.42509,-4.20219 0.0365,-0.9866 -0.65773,-1.82704 -0.84043,-3.03289 -0.18271,-1.20584 -0.0731,-1.31546 -1.09623,-1.31546 -1.02314,0 -0.95006,-0.14617 -1.05968,-0.73082 -0.10962,-0.58465 -0.65773,-0.1827 -0.69427,-0.65773 -0.0365,-0.47503 0.10962,-3.28867 -0.32887,-5.22533 -0.43849,-1.93666 -1.20584,-4.1291 -1.27892,-5.18879 -0.0731,-1.05968 -0.21925,-1.68087 -0.25579,-2.81363 -0.0365,-1.13277 0.36541,-1.68088 0.25579,-2.7771 -0.10963,-1.09622 -0.0731,-2.63093 -0.51158,-3.581 -0.43849,-0.95006 -0.25578,-2.00974 0.14617,-2.88672 0.40194,-0.87697 0.80389,-2.22898 0.91352,-3.17904 0.10962,-0.95006 0.87697,-2.00974 0.95005,-2.59439 0.0731,-0.58466 -0.25578,-0.69428 -0.54811,-0.51158 -0.29232,0.18271 -1.05968,-0.32886 -1.24238,-0.91352 -0.18271,-0.58465 -0.62119,-2.3386 -0.54811,-3.21558 0.0731,-0.87698 -0.40195,-1.46163 -0.32887,-2.41169 0.0731,-0.95006 0.29233,-1.68087 0.8039,-2.52131 0.51157,-0.84044 0.9866,-1.42509 1.38855,-2.63094 0.40194,-1.20584 0.95005,-3.54445 1.02314,-4.27526 0.0731,-0.73082 0.62119,-1.64434 0.3654,-2.44824 -0.25578,-0.80389 0.14617,-1.02314 0.10962,-1.60779 -0.0365,-0.58465 -0.62119,-0.51157 -0.47502,-1.02314 0.14616,-0.51157 0.91352,-1.42509 0.87697,-3.21559 -0.0365,-1.79049 -0.43848,-2.44823 -0.25578,-3.10596 0.1827,-0.65774 0.51157,-1.90012 -0.21925,-3.10596 -0.73081,-1.20585 -2.48477,-1.38855 -3.3252,-2.4117 -0.84044,-1.02314 -2.5944,-2.046277 -3.87332,-2.302063 -1.27893,-0.255786 -1.93666,-1.059683 -2.99634,-2.302068 -1.05969,-1.242386 -1.68088,-1.352008 -2.99635,-1.352008 -1.31547,0 -4.05602,-0.365408 -5.55419,-0.950058 -1.49817,-0.584652 -3.7637,-0.584652 -5.7369,-0.47503 -1.9732,0.109622 -2.30207,-0.438489 -4.42143,-0.182705 -2.11937,0.255786 -6.97929,-0.219245 -8.36784,-1.023142 -1.38855,-0.803896 -3.83677,-1.352007 -6.50425,-1.53471 -2.66747,-0.182705 -6.13885,0.03654 -8.91595,0.401947 -2.777092,0.365408 -4.859915,0.40195 -5.07916,0.840439 -0.219244,0.438488 -0.803896,2.448229 -1.863579,3.580992 -1.05968,1.132763 -2.009741,2.850179 -4.457973,2.81364 -2.448229,-0.03654 -5.042622,-1.096224 -6.686957,-2.192446 -1.644332,-1.096222 -2.228985,-0.803897 -3.288668,-1.46163 -1.059682,-0.657733 -1.169304,-0.657733 -2.046282,-1.571252 -0.876977,-0.913518 -1.205844,-0.767357 -2.265526,-1.205846 -1.059683,-0.438489 -1.680874,-2.375149 -2.119366,-2.777096 -0.438488,-0.401949 -1.753954,0.694272 -3.179045,0.401947 -1.425088,-0.292325 -2.302066,-0.657733 -1.973199,-1.096221 0.328866,-0.438492 0.730813,-1.425091 0.07308,-1.680877 -0.657733,-0.255783 -1.680874,-0.511569 -2.155904,-0.401947 -0.47503,0.109622 -1.242385,0.365408 -1.023141,0.730813 0.219244,0.365409 0.913519,0.730817 1.53471,0.584653 0.621194,-0.146161 0.950061,-0.146161 0.986602,0.328866 0.03654,0.475031 0.730814,1.315469 -0.03654,2.923263 -0.767355,1.607793 -2.228985,4.750297 -3.142504,5.152247 -0.913519,0.401947 -3.982942,3.105962 -4.969544,3.142503 -0.9866,0.03654 -2.99634,0.950059 -4.019481,0.621199 -1.023142,-0.32887 -3.288671,0.91351 -2.302069,2.04628 0.9866,1.13276 2.375149,2.48477 2.302069,3.25212 -0.07308,0.76736 0.328866,0.51158 0.913518,0.95006 0.58465,0.43849 1.534711,2.95981 2.265527,3.83678 0.730814,0.87698 2.411688,2.55786 2.740557,3.83678 0.328866,1.27893 2.00974,3.83678 2.411687,5.48111 0.40195,1.64434 0.87698,4.31182 0.40195,5.40804 -0.47503,1.09622 -2.265526,3.69061 -2.41169,4.49451 -0.146164,0.8039 -1.644333,2.41169 -2.155905,3.87332 -0.511571,1.46163 -0.401947,2.74056 -1.498171,4.42143 -1.096222,1.68088 -0.803897,2.11937 -1.388549,2.70402 -0.584653,0.58465 -1.753955,0.9866 -2.155904,2.30207 -0.401947,1.31546 0.182705,3.72715 -0.438489,5.1157 -0.621191,1.38855 -0.840438,1.20585 -0.950061,3.98294 -0.109622,2.7771 0.255786,4.49452 0.03654,5.07917 -0.219244,0.58465 -0.292325,1.68087 -0.292325,2.04628 0,0.36541 -0.803897,0.58465 -0.767358,1.42509 0.03654,0.84044 0.475031,1.24239 0.475031,2.08282 0,0.84044 0.146163,0.91352 1.132763,2.5944 0.986602,1.68087 2.302068,3.65407 3.434831,5.7369 1.132763,2.08282 -0.255786,2.59439 -0.109622,3.58099 0.146164,0.9866 0.548111,0.69427 0.950061,1.60779 0.401947,0.91352 1.205843,1.02314 1.425088,3.10597 0.219244,2.08282 0.292327,3.9464 1.242385,5.80998 0.950061,1.86357 1.571255,2.92326 2.265527,3.50791 0.694274,0.58465 1.900121,1.49817 1.790499,2.1559 -0.109623,0.65774 0.219244,1.02314 -0.621195,0.9866 -0.840435,-0.0365 -1.096221,0.25579 -1.05968,0.65774 0.03654,0.40195 0.803895,1.53471 1.534711,1.82704 0.730816,0.29232 1.498171,0.40194 1.680874,-0.32887 0.182705,-0.73082 -0.511569,-0.69427 -0.548111,-1.02314 -0.03654,-0.32887 0.548111,-0.51157 1.46163,-0.32887 0.913519,0.18271 1.900121,0.9866 2.375148,0.91352 0.475031,-0.0731 1.278927,-0.32887 1.534713,0 0.255786,0.32887 0.475031,0.1827 0.950061,-0.29233 0.475028,-0.47503 3.215584,-0.91351 4.019481,-0.76735 0.803897,0.14616 3.87332,0.58465 4.823381,1.31546 0.95006,0.73082 6.796579,2.81364 7.271609,3.28867 0.475031,0.47503 3.434832,1.90012 5.298411,2.41169 1.863577,0.51157 4.494512,1.68088 4.969542,1.27893 0.47503,-0.40195 -0.438489,-0.76736 1.096222,-0.8039 1.53471,-0.0365 2.88672,0.69428 5.15225,0.69428 2.26552,0 4.20218,0.54811 4.7503,0.1827 0.54811,-0.36541 0.54811,-0.73081 0.9866,-0.40195 0.43849,0.32887 0.47503,0.10963 0.9866,-0.43849 0.51157,-0.54811 1.64433,-1.31546 3.47137,-1.09622 1.82704,0.21924 5.29841,0.18271 7.23507,0.95006 1.93666,0.76736 4.71376,1.46163 6.50425,3.39829 1.7905,1.93666 2.66748,2.15591 3.83678,4.01948 1.16931,1.86358 1.46163,3.32521 2.04629,3.94641 1.40343,1.49114 2.89893,2.07655 4.27526,1.86353 z"
       id="path1"
       sodipodi:nodetypes="zssssssssssssssssssssssssssssssssssscscsssssssssssssssssssssssssssssssssssssssssssssssssssssssssssssssssssssssssssssssssz" /></g></svg>
