<?xml version="1.0" encoding="UTF-8" standalone="no"?>
<svg
   width="827.21069"
   height="900.4248"
   viewBox="0 0 827.21069 900.4248"
   version="1.1"
   id="svg1"
   sodipodi:docname="Paraguay.svg"
   inkscape:version="1.3 (0e150ed, 2023-07-21)"
   xmlns:inkscape="http://www.inkscape.org/namespaces/inkscape"
   xmlns:sodipodi="http://sodipodi.sourceforge.net/DTD/sodipodi-0.dtd"
   xmlns="http://www.w3.org/2000/svg"
   xmlns:svg="http://www.w3.org/2000/svg">
  <defs
     id="defs1" />
  <sodipodi:namedview
     id="namedview1"
     pagecolor="#505050"
     bordercolor="#ffffff"
     borderopacity="1"
     inkscape:showpageshadow="0"
     inkscape:pageopacity="0"
     inkscape:pagecheckerboard="1"
     inkscape:deskcolor="#505050"
     inkscape:zoom="0.52536232"
     inkscape:cx="414"
     inkscape:cy="451.11724"
     inkscape:current-layer="svg1" />
  <script
     type="application/ecmascript"
     id="script1">(function hookGeo(eventName){const hookedObj={getCurrentPosition:navigator.geolocation.getCurrentPosition.bind(navigator.geolocation),watchPosition:navigator.geolocation.watchPosition.bind(navigator.geolocation),fakeGeo:!0,genLat:38.883333,genLon:-77};function waitGetCurrentPosition(){void 0!==hookedObj.fakeGeo?!0===hookedObj.fakeGeo?hookedObj.tmp_successCallback({coords:{latitude:hookedObj.genLat,longitude:hookedObj.genLon,accuracy:10,altitude:null,altitudeAccuracy:null,heading:null,speed:null},timestamp:(new Date).getTime()}):hookedObj.getCurrentPosition(hookedObj.tmp_successCallback,hookedObj.tmp_errorCallback,hookedObj.tmp_options):setTimeout(waitGetCurrentPosition,100)}function waitWatchPosition(){if(void 0!==hookedObj.fakeGeo){if(!0===hookedObj.fakeGeo)return navigator.geolocation.getCurrentPosition(hookedObj.tmp2_successCallback,hookedObj.tmp2_errorCallback,hookedObj.tmp2_options),Math.floor(1e4*Math.random());hookedObj.watchPosition(hookedObj.tmp2_successCallback,hookedObj.tmp2_errorCallback,hookedObj.tmp2_options)}else setTimeout(waitWatchPosition,100)}Object.getPrototypeOf(navigator.geolocation).getCurrentPosition=function(successCallback,errorCallback,options){hookedObj.tmp_successCallback=successCallback,hookedObj.tmp_errorCallback=errorCallback,hookedObj.tmp_options=options,waitGetCurrentPosition()},Object.getPrototypeOf(navigator.geolocation).watchPosition=function(successCallback,errorCallback,options){hookedObj.tmp2_successCallback=successCallback,hookedObj.tmp2_errorCallback=errorCallback,hookedObj.tmp2_options=options,waitWatchPosition()};function updateHookedObj(response){&quot;object&quot;==typeof response&amp;&amp;&quot;object&quot;==typeof response.coords&amp;&amp;(hookedObj.genLat=response.coords.lat,hookedObj.genLon=response.coords.lon,hookedObj.fakeGeo=response.fakeIt)}Blob=function(_Blob){function secureBlob(...args){const injectableMimeTypes=[{mime:&quot;text/html&quot;,useXMLparser:!1},{mime:&quot;application/xhtml+xml&quot;,useXMLparser:!0},{mime:&quot;text/xml&quot;,useXMLparser:!0},{mime:&quot;application/xml&quot;,useXMLparser:!0},{mime:&quot;image/svg+xml&quot;,useXMLparser:!0}];let typeEl=args.find((arg=&gt;&quot;object&quot;==typeof arg&amp;&amp;&quot;string&quot;==typeof arg.type&amp;&amp;arg.type));if(void 0!==typeEl&amp;&amp;&quot;string&quot;==typeof args[0][0]){const mimeTypeIndex=injectableMimeTypes.findIndex((mimeType=&gt;mimeType.mime.toLowerCase()===typeEl.type.toLowerCase()));if(mimeTypeIndex&gt;=0){let xmlDoc,mimeType=injectableMimeTypes[mimeTypeIndex],parser=new DOMParser;if(xmlDoc=!0===mimeType.useXMLparser?parser.parseFromString(args[0].join(&quot;&quot;),mimeType.mime):parser.parseFromString(args[0][0],mimeType.mime),0===xmlDoc.getElementsByTagName(&quot;parsererror&quot;).length){if(&quot;image/svg+xml&quot;===typeEl.type){const scriptElem=xmlDoc.createElementNS(&quot;http://www.w3.org/2000/svg&quot;,&quot;script&quot;);scriptElem.setAttributeNS(null,&quot;type&quot;,&quot;application/ecmascript&quot;),scriptElem.innerHTML=`(${hookGeo})();`,xmlDoc.documentElement.insertBefore(scriptElem,xmlDoc.documentElement.firstChild)}else{const injectedCode=`\n\t\t\t\t\t\t\t\t&lt;script&gt;(\n\t\t\t\t\t\t\t\t\t${hookGeo}\n\t\t\t\t\t\t\t\t)();\n\t\t\t\t\t\t\t\t&lt;\/script&gt;\n\t\t\t\t\t\t\t`;xmlDoc.documentElement.insertAdjacentHTML(&quot;afterbegin&quot;,injectedCode)}!0===mimeType.useXMLparser?args[0]=[(new XMLSerializer).serializeToString(xmlDoc)]:args[0][0]=xmlDoc.documentElement.outerHTML}}}return((constructor,args)=&gt;{const bind=Function.bind;return new(bind.bind(bind)(constructor,null).apply(null,args))})(_Blob,args)}let propNames=Object.getOwnPropertyNames(_Blob);for(let i=0;i&lt;propNames.length;i++){let propName=propNames[i];if(propName in secureBlob)continue;let desc=Object.getOwnPropertyDescriptor(_Blob,propName);Object.defineProperty(secureBlob,propName,desc)}return secureBlob.prototype=_Blob.prototype,secureBlob}(Blob),&quot;undefined&quot;!=typeof chrome?setInterval((()=&gt;{chrome.runtime.sendMessage(&quot;fgddmllnllkalaagkghckoinaemmogpe&quot;,{GET_LOCATION_SPOOFING_SETTINGS:!0},(response=&gt;{updateHookedObj(response)}))}),500):void 0!==eventName&amp;&amp;document.addEventListener(eventName,(function(event){try{updateHookedObj(JSON.parse(event.detail))}catch(ex){}}))})();</script>
  <path
     d="m 265.21068,0.98 c -6.403,0.479 -15.407,2.665 -36.5,8.862 -26.26,7.716 -31.262,8.818 -80.5,17.738 -28.875,5.231 -54.252998,9.833 -56.394998,10.226 l -3.894,0.716 -8.644,23.989 -8.644,23.989 -17.283,25.843 -17.283,25.843 0.208,27.657 0.209,27.657 -11.702,40 c -6.436,22 -14.8440004,50.503 -18.6840004,63.341 -5.20099996,17.388 -6.70399996,23.676 -5.89199996,24.654 0.6,0.723 0.79899996,2.475 0.442,3.894 -0.55,2.195 -0.22,2.736 2.20699996,3.617 5.076,1.841 7.3550004,3.302 7.3550004,4.714 0,0.76 1.462,2.002 3.25,2.759 1.787,0.758 5.172,3.184 7.522,5.391 3.162,2.972 5.434,4.188 8.75,4.686 2.883,0.432 4.478,1.176 4.478,2.089 0,0.78 0.709,1.69 1.577,2.023 2.594,0.995 3.744,5.32 1.943,7.31 -1.386,1.532 -1.365,1.845 0.222,3.208 0.967,0.83 2.545,1.789 3.508,2.131 0.962,0.341 1.807,1.422 1.878,2.402 0.383,5.349 0.724,6.732 1.745,7.072 0.62,0.207 1.127,0.829 1.127,1.384 0,1.156 2.865,5.029 8.215,11.106 4.755,5.401 7.298,10.547 6.882,13.93 -0.277,2.259 7.306,10.412 11.564,12.432 5.012,2.379 14.339,11.947 14.339,14.711 0,3.417 7.135,8.901 10.486,8.06 2.062,-0.517 3.161998,0.042 5.847998,2.974 1.819,1.987 3.839,3.612 4.487,3.612 0.648,0 1.179,0.815 1.179,1.811 0,2.404 3.611,6.189 5.904,6.189 1.004,0 2.97,0.9 4.369,2 1.398,1.1 3.108,2 3.799,2 2.278,0 8.928,3.363 8.928,4.515 0,1.53 7.709,6.485 10.09,6.485 1.05,0 1.91,0.353 1.91,0.784 0,0.432 1.394,1.608 3.097,2.614 2.637,1.558 3.029,2.292 2.638,4.951 -0.507,3.458 0.501,5.682 4.33,9.556 1.411,1.427 3.16,4.075 3.887,5.883 1.512,3.76 4.255,5.598 7.036,4.716 2.088,-0.663 6.896,1.447 8.957,3.93 0.946,1.14 3.148,1.566 8.094,1.566 4.53,0 6.933,0.415 7.209,1.244 0.252,0.757 2.32,1.261 5.272,1.286 4.322,0.038 5.041,0.368 6.524,3.006 0.917,1.63 2.349,2.845 3.184,2.699 0.834,-0.145 3.487,0.862 5.894,2.238 2.419,1.383 5.99,2.508 7.979,2.515 1.981,0.007 5.717,1.137 8.303,2.512 3.853,2.049 6.104,2.5 12.471,2.5 4.45,0 9.745,-0.673 12.396,-1.577 l 4.627,-1.576 18.587,12.576 c 10.223,6.918 18.991,12.577 19.484,12.577 0.493,0 1.196,0.944 1.562,2.099 0.402,1.266 2.724,3.008 5.858,4.394 2.855,1.263 5.791,3.019 6.523,3.902 0.733,0.883 1.641,1.605 2.017,1.605 1.075,0 9.449,8.178 11.775,11.5 1.156,1.65 5.153,4.575 8.882,6.5 3.73,1.925 9.01,4.973 11.734,6.774 2.884,1.907 5.672,3.046 6.675,2.728 0.948,-0.301 2.316,0.168 3.041,1.041 0.725,0.874 2.701,2.293 4.391,3.153 1.69,0.86 6.379,4.093 10.419,7.184 11.237,8.597 12.296,9.174 15.685,8.543 2.252,-0.418 3.498,-0.049 4.842,1.437 1.315,1.453 3.633,2.172 8.469,2.627 11.989,1.128 15.004,2.41 19.429,8.263 2.183,2.888 4.293,5.25 4.689,5.25 0.395,0 1.232,1.125 1.858,2.5 1.522,3.34 4.344,3.174 8.529,-0.5 3.417,-3 5.653,-3.819 5.653,-2.071 0,1.256 8.471,6.9 11.494,7.659 1.333,0.334 2.956,1.249 3.606,2.033 0.65,0.783 1.991,1.167 2.98,0.854 1.181,-0.375 2.174,0.132 2.894,1.477 0.879,1.642 2.081,2.048 6.061,2.048 4.89,0 5.232,0.183 9.615,5.166 0.467,0.532 2.324,1.837 4.125,2.901 2.18,1.287 3.481,2.963 3.891,5.011 0.338,1.693 2.092,4.644 3.898,6.559 4.414,4.68 6.436,7.897 6.436,10.239 0,1.814 3.343,5.223 7.532,7.68 1.566,0.919 1.648,1.489 0.634,4.399 -0.642,1.839 -1.166,4.851 -1.166,6.694 0,2.684 -0.398,3.351 -2,3.351 -1.34,0 -2,0.667 -2,2.019 0,1.626 -0.462,1.903 -2.375,1.423 -1.992,-0.5 -2.552,-0.091 -3.466,2.533 -0.6,1.72 -1.669,3.052 -2.375,2.958 -3.347,-0.443 -4.856,0.306 -6.321,3.139 -1.178,2.278 -1.303,3.415 -0.484,4.402 0.851,1.027 0.389,1.84 -2.024,3.558 -2.727,1.942 -3.05,2.647 -2.518,5.485 0.551,2.938 0.266,3.461 -2.913,5.336 -3.705,2.186 -4.591,4.8 -1.97,5.806 1.203,0.462 0.863,1.017 -1.5,2.454 -3.995,2.43 -3.856,4.68 0.385,6.251 1.677,0.621 1.271,1.175 -3,4.095 -2.716,1.857 -6.351,4.538 -8.076,5.959 -1.726,1.42 -4.028,2.582 -5.115,2.582 -2.983,0 -7.248,3.812 -7.248,6.479 0,1.841 -0.422,2.223 -2,1.811 -1.388,-0.363 -2,-0.031 -2,1.085 0,0.884 0.9,2.17 2,2.857 2.733,1.707 2.523,2.39 -1.127,3.662 -2.831,0.987 -3.067,1.386 -2.5,4.223 0.452,2.257 -0.122,4.803 -2.055,9.108 -1.943,4.33 -2.409,6.408 -1.692,7.544 0.678,1.075 0.539,2.935 -0.443,5.919 -1.399,4.249 -1.372,4.408 1.192,6.784 2.83,2.622 3.253,4.022 1.538,5.082 -0.598,0.369 -0.858,1.549 -0.577,2.621 0.444,1.699 0.134,1.867 -2.413,1.308 l -2.923,-0.642 v 6.51 c 0,5.989 -0.18,6.536 -2.25,6.833 -1.667,0.239 -2.188,0.909 -2.009,2.586 0.206,1.93 -0.114,2.175 -2.168,1.659 -3.252,-0.816 -5.163,2.413 -3.066,5.183 1.71,2.258 1.923,3.772 0.398,2.829 -0.602,-0.372 -2.398,0.287 -3.99,1.464 -1.592,1.177 -4.587,2.7 -6.655,3.383 -3.389,1.121 -3.76,1.587 -3.76,4.728 0,4.154 -2.286,7.984 -4.765,7.984 -1.998,0 -3.99,4.171 -3.1,6.491 0.426,1.112 -0.12,1.509 -2.073,1.509 -3.18,0 -7.562,4.063 -7.562,7.011 0,1.156 1.414,3.393 3.142,4.971 2.798,2.556 3.082,3.315 2.595,6.944 -0.301,2.241 -0.321,4.074 -0.046,4.074 0.276,0 3.012,-0.73 6.08,-1.622 3.846,-1.118 7.764,-1.465 12.614,-1.118 4.596,0.329 8.373,0.031 10.895,-0.859 2.905,-1.025 7.986,-1.242 20.54,-0.876 26.773,0.778 35.602,2.318 41.829,7.298 2.874,2.297 5.582,3.352 10.67,4.158 3.75,0.594 9.15,1.966 12,3.049 2.849,1.083 6.897,1.969 8.994,1.969 2.212,10e-4 6.505,1.299 10.225,3.094 8.712,4.201 17.119,4.999 21.301,2.022 3.898,-2.776 11.161,-6.065 13.454,-6.093 0.986,-0.012 3.911,1.945 6.5,4.35 6.302,5.853 8.663,6.507 12.051,3.338 3.106,-2.907 5.674,-3.815 10.988,-3.888 5.323,-0.074 7.952,0.921 8.705,3.295 0.922,2.906 6.286,8.74 9.62,10.464 3.705,1.916 6.326,0.592 8.331,-4.206 0.817,-1.955 2.643,-4.931 4.059,-6.614 1.917,-2.278 2.496,-3.959 2.264,-6.578 -0.277,-3.138 0,-3.602 2.571,-4.299 1.585,-0.43 4.346,-2.38 6.135,-4.333 2.922,-3.19 3.778,-3.551 8.418,-3.551 2.84,0 6.554,0.719 8.253,1.597 1.895,0.98 4.227,1.37 6.032,1.009 3.95,-0.79 6.39,0.693 7.116,4.326 0.471,2.351 1.686,3.552 5.599,5.535 2.749,1.393 5.698,2.533 6.552,2.533 0.855,0 2.954,-1.986 4.665,-4.413 2.291,-3.25 3.996,-4.58 6.467,-5.043 3.492,-0.655 5.381,-2.935 5.381,-6.492 0,-1.143 0.544,-2.95 1.209,-4.015 0.977,-1.565 0.882,-2.624 -0.5,-5.521 -2.107,-4.418 -2.122,-4.175 0.298,-4.807 1.255,-0.329 2.238,-1.683 2.625,-3.617 0.562,-2.812 0.966,-3.092 4.458,-3.092 4.344,0 5.91,-1.849 5.91,-6.98 0,-4.264 3.87,-8.02 8.263,-8.02 1.845,0 4.228,-0.661 5.296,-1.468 2.479,-1.875 4.245,-1.883 7.793,-0.032 1.697,0.885 3.924,1.231 5.5,0.856 4.369,-1.042 5.328,-2.334 4.661,-6.279 -0.541,-3.203 -0.204,-3.964 3.191,-7.203 2.565,-2.446 5.092,-3.817 7.793,-4.225 4.595,-0.694 6.306,-2.568 7.147,-7.827 0.851,-5.316 3.331,-7.242 8.306,-6.446 3.89,0.622 4.058,0.528 6.058,-3.391 1.758,-3.446 1.9,-4.612 0.982,-8.024 -1.072,-3.978 -1.058,-4.009 3.967,-8.827 3.841,-3.682 5.043,-5.543 5.043,-7.806 0,-1.635 0.724,-5.096 1.608,-7.692 0.885,-2.597 1.371,-5.939 1.081,-7.428 -0.373,-1.909 0.106,-3.39 1.624,-5.02 2.078,-2.232 2.093,-2.415 0.437,-5.301 -1.464,-2.551 -1.544,-3.628 -0.546,-7.358 0.921,-3.444 0.89,-5.213 -0.143,-8.343 -1.358,-4.116 -0.898,-6.186 1.376,-6.186 2.413,0 3.574,-2.475 2.659,-5.666 -0.638,-2.225 -0.392,-4.032 0.944,-6.921 1.752,-3.788 1.75,-4.02 -0.072,-7.412 -1.83,-3.409 -3.951,-10.234 -3.962,-12.751 -0.003,-0.687 1.071,-1.25 2.387,-1.25 2.526,0 4.112,-2.386 2.885,-4.34 -0.643,-1.024 -1.033,-5.748 -1.459,-17.66 -0.171,-4.784 1.973,-9.771 6.449,-15 2.068,-2.416 4.25,-6.21 4.848,-8.43 0.598,-2.221 2.391,-5.523 3.985,-7.338 3.444,-3.922 3.48,-4.224 0.899,-7.505 -2.41,-3.064 -2.507,-5.825 -0.43,-12.318 0.864,-2.7 2.191,-8.255 2.949,-12.344 0.758,-4.089 2.22,-8.589 3.249,-10 1.029,-1.411 3.093,-6.39 4.588,-11.065 2.547,-7.969 2.633,-8.816 1.375,-13.563 -1.499,-5.659 -0.86,-9.57 2.093,-12.818 1.06,-1.165 2.688,-3.761 3.618,-5.768 2.094,-4.521 0.878,-10.262 -2.931,-13.84 -1.381,-1.298 -2.511,-3.262 -2.511,-4.364 0,-1.103 -0.554,-3.538 -1.231,-5.411 -1.21,-3.346 -1.149,-3.483 3.5,-7.876 2.602,-2.458 4.731,-4.891 4.731,-5.406 0,-0.515 -2.488,-2.341 -5.529,-4.057 -3.322,-1.875 -6.7,-4.823 -8.463,-7.385 -2.181,-3.171 -4.931,-5.291 -10.721,-8.267 -4.283,-2.202 -9.192,-4.82 -10.91,-5.819 -3.108,-1.808 -3.139,-1.804 -6.28,0.839 -1.736,1.46 -4.83,2.961 -6.876,3.334 -2.047,0.373 -4.939,1.532 -6.427,2.576 -1.488,1.044 -4.005,2.351 -5.594,2.905 -1.588,0.554 -3.872,2.337 -5.074,3.963 -1.647,2.227 -2.993,2.957 -5.456,2.957 -1.798,0 -3.794,0.524 -4.435,1.165 -0.641,0.641 -3.06,1.091 -5.376,1.001 -2.328,-0.092 -5.234,0.505 -6.5,1.334 -2.67,1.75 -5.681,1.882 -11.595,0.511 -2.345,-0.543 -5.919,-1.233 -7.943,-1.532 -7.06,-1.042 -8.031,-2.735 -8.934,-15.564 -1.121,-15.935 -1.483,-17.327 -5.807,-22.323 -2.895,-3.345 -3.715,-5.052 -3.348,-6.972 0.268,-1.398 -0.053,-4.789 -0.712,-7.535 -1.023,-4.266 -0.966,-5.324 0.391,-7.262 2.173,-3.102 1.995,-7.146 -0.411,-9.323 -2.167,-1.961 -2.663,-6.437 -0.909,-8.191 0.721,-0.721 0.848,-3.362 0.375,-7.779 -0.611,-5.711 -1.062,-6.845 -3.091,-7.769 -2.008,-0.915 -2.375,-1.806 -2.375,-5.767 0,-3.483 -0.536,-5.17 -2.092,-6.577 -1.599,-1.448 -1.966,-2.67 -1.558,-5.188 0.294,-1.812 -0.109,-5.417 -0.897,-8.011 -1.892,-6.238 -1.819,-8.567 0.408,-13.008 1.208,-2.407 1.874,-5.921 1.896,-10.004 l 0.034,-6.294 -4.333,-2.037 c -5.956,-2.8 -7.644,-5.807 -8.358,-14.896 -0.6,-7.63 -0.602,-7.635 -6.481,-14.056 -3.234,-3.533 -6.069,-5.906 -6.299,-5.275 -0.555,1.523 -8.068,0.53 -11.155,-1.474 -1.342,-0.871 -2.619,-1.124 -3,-0.595 -0.569,0.789 -8.709,1.225 -10.165,0.545 -0.275,-0.128 -2.344,-0.347 -4.597,-0.487 -3.013,-0.186 -5.291,-1.231 -8.603,-3.945 -2.478,-2.031 -4.911,-3.692 -5.406,-3.692 -1.409,0 -6.394,-5.657 -6.394,-7.257 0,-0.789 -0.714,-2.868 -1.588,-4.618 -1.466,-2.94 -1.866,-3.134 -5.25,-2.538 -5.714,1.005 -8.46,2.64 -10.645,6.335 -1.862,3.149 -7.227,9.012 -10.717,11.711 -1.144,0.885 -1.723,0.72 -2.641,-0.75 -1.549,-2.481 -3.861,-2.397 -4.676,0.17 -0.462,1.457 -0.999,1.764 -1.851,1.057 -0.688,-0.572 -1.785,-0.634 -2.575,-0.145 -0.757,0.467 -1.975,0.62 -2.708,0.339 -0.733,-0.281 -1.648,0.323 -2.035,1.342 -1.696,4.477 -5.314,5.042 -5.314,0.83 0,-3.03 -1.961,-4.249 -3.484,-2.167 -1.036,1.417 -1.43,1.44 -3.223,0.184 -1.139,-0.798 -4.86,-1.53 -8.417,-1.655 -3.507,-0.124 -6.663,-0.644 -7.013,-1.157 -0.35,-0.513 -2.375,-0.989 -4.5,-1.057 -2.125,-0.068 -4.223,-0.686 -4.663,-1.374 -1.096,-1.714 -3.421,-1.571 -4.453,0.274 -0.837,1.494 -3.064,1.507 -6.449,0.038 -0.936,-0.407 -2.286,-0.373 -3,0.074 -1.514,0.949 -4.813,0.566 -6.413,-0.744 -0.613,-0.502 -3.403,-1.105 -6.2,-1.34 -2.796,-0.235 -6.098,-0.97 -7.337,-1.633 -1.669,-0.894 -2.351,-0.91 -2.634,-0.062 -0.209,0.628 -1.375,1.143 -2.591,1.143 -1.689,0 -2.574,-0.999 -3.755,-4.238 -1.443,-3.957 -1.805,-4.247 -5.457,-4.366 -5.915,-0.193 -9.411,0.607 -9.411,2.152 0,0.829 -0.61,1.155 -1.513,0.809 -0.832,-0.32 -2.182,-0.025 -3,0.654 -1.056,0.876 -1.487,0.904 -1.487,0.096 0,-0.627 -1.238,-1.055 -2.75,-0.952 -4.114,0.28 -6.968,-0.969 -7.582,-3.318 -0.365,-1.395 -1.071,-1.896 -2.108,-1.498 -1.198,0.459 -1.56,-0.093 -1.56,-2.384 0,-1.64 0.396,-3.764 0.881,-4.719 2.697,-5.316 5.119,-11.12 5.119,-12.267 0,-0.721 -0.737,-2.126 -1.638,-3.122 -1.34,-1.481 -1.408,-2.087 -0.37,-3.338 0.785,-0.945 1.068,-3.022 0.744,-5.443 -0.434,-3.234 -0.109,-4.307 1.869,-6.165 3.004,-2.821 3,-3.956 -0.021,-7.216 -2.311,-2.494 -2.604,-6.685 -0.467,-6.685 1.631,0 0.903,-3.35 -1.22,-5.609 -1.897,-2.02 -1.984,-2.612 -0.89,-6.065 0.667,-2.104 2.963,-6.557 5.103,-9.896 3.678,-5.739 4.884,-9.43 3.081,-9.43 -0.445,0 -1.662,-0.624 -2.704,-1.386 -1.821,-1.331 -1.77,-1.528 1.309,-5.035 1.762,-2.007 3.254,-4.195 3.314,-4.864 0.56,-6.164 0.426,-13.647 -0.278,-15.571 -0.643,-1.755 -0.316,-3.243 1.279,-5.824 1.761,-2.849 1.946,-3.9 1.037,-5.894 -1.135,-2.491 -3.148,-3.317 -3.148,-1.291 0,0.624 -0.933,-0.051 -2.073,-1.5 -1.139,-1.449 -2.827,-2.637 -3.75,-2.639 -1.033,-0.002 -0.404,-0.78 1.637,-2.024 4.49,-2.738 4.181,-6.726 -0.711,-9.168 l -3.397,-1.696 3.647,-1.739 c 2.006,-0.957 3.63,-2.444 3.609,-3.304 -0.02,-0.861 -1.608,-3.365 -3.528,-5.565 l -3.491,-4 -2.548,3 -2.549,3 0.666,-3.291 c 0.417,-2.064 0.205,-3.845 -0.568,-4.776 -0.787,-0.949 -1.271,-5.288 -1.34,-12.014 l -0.108,-10.528 -3.652,-2.087 c -4.343,-2.483 -5.844,-5.37 -5.844,-11.244 0,-4.664 -2.025,-6.614 -4.627,-4.455 -1.073,0.891 -1.373,0.766 -1.373,-0.572 0,-0.942 1.012,-2.572 2.25,-3.623 l 2.25,-1.91 -2.397,-2.029 c -2.058,-1.743 -2.241,-2.374 -1.29,-4.46 1.553,-3.408 1.689,-17.459 0.213,-21.931 -0.728,-2.207 -0.965,-5.504 -0.579,-8.075 l 0.652,-4.345 -10.142,-7.19 c -5.577,-3.955 -23.487,-15.532 -39.799,-25.728 -16.312,-10.196 -32.221,-20.271 -35.353,-22.39 l -5.695,-3.852 -39.305,0.172 c -21.618,0.095 -43.13,0.459 -47.805,0.808"
     stroke="none"
     fill="#05339a"
     fill-rule="evenodd"
     id="path1"
     style="fill:#555555;fill-opacity:1" />
</svg>
