<?xml version="1.0" encoding="UTF-8" standalone="no"?>
<!-- Created with Inkscape (http://www.inkscape.org/) -->

<svg
   width="503.16287mm"
   height="253.76181mm"
   viewBox="0 0 503.16287 253.76181"
   version="1.1"
   id="svg1"
   xml:space="preserve"
   inkscape:version="1.3 (0e150ed, 2023-07-21)"
   sodipodi:docname="Russia-top.svg"
   xmlns:inkscape="http://www.inkscape.org/namespaces/inkscape"
   xmlns:sodipodi="http://sodipodi.sourceforge.net/DTD/sodipodi-0.dtd"
   xmlns="http://www.w3.org/2000/svg"
   xmlns:svg="http://www.w3.org/2000/svg"><sodipodi:namedview
     id="namedview1"
     pagecolor="#505050"
     bordercolor="#ffffff"
     borderopacity="1"
     inkscape:showpageshadow="0"
     inkscape:pageopacity="0"
     inkscape:pagecheckerboard="1"
     inkscape:deskcolor="#505050"
     inkscape:document-units="mm"
     inkscape:zoom="0.32504294"
     inkscape:cx="876.80723"
     inkscape:cy="519.9313"
     inkscape:current-layer="layer1" /><defs
     id="defs1" /><g
     inkscape:label="Layer 1"
     inkscape:groupmode="layer"
     id="layer1"
     transform="translate(-310.92491,272.27155)"><path
       id="path1"
       style="fill:#ffffff;fill-opacity:1"
       d="M 547.27637 -272.26018 C 535.78794 -271.67449 544.34063 -248.64985 532.77338 -256.70816 C 539.84168 -251.66883 522.44638 -247.2304 523.7543 -252.09552 C 516.59286 -253.81266 512.64102 -244.53093 501.07144 -242.40722 C 496.43408 -236.50072 489.97828 -236.06923 493.98092 -231.04358 C 502.08917 -219.20583 472.50809 -225.80398 475.91329 -215.23937 C 476.32578 -205.21195 487.73874 -202.13317 484.69932 -190.38042 C 478.22329 -184.25977 486.86385 -203.68372 478.29557 -201.69136 C 472.37132 -210.08792 461.20381 -211.42378 468.0161 -204.68601 C 466.5602 -205.60842 457.76253 -200.89595 468.07449 -196.03331 C 465.03212 -190.24171 454.37497 -201.84108 459.26108 -209.24129 C 451.01794 -223.24874 462.2374 -205.66832 454.0862 -202.56883 C 455.97406 -193.93647 448.74709 -174.62802 463.84943 -176.64276 C 468.88865 -171.66462 467.81566 -155.44852 464.64008 -169.05925 C 459.58222 -185.0477 456.37641 -163.79252 452.63357 -158.0687 C 447.20718 -147.15101 433.54825 -161.58999 444.89916 -156.0249 C 459.30047 -166.27496 449.08131 -183.23131 449.7893 -197.51436 C 460.1357 -208.75431 441.54089 -221.37582 438.53521 -206.63266 C 435.85702 -199.49326 430.50678 -186.03656 435.92452 -180.9779 C 449.64005 -156.37286 416.16906 -195.00263 414.05195 -178.68967 C 412.82724 -166.39056 409.38474 -176.90136 399.07612 -172.78408 C 391.47058 -163.52806 393.3501 -176.03706 389.52011 -173.09466 C 379.68939 -174.07267 371.68678 -150.31801 365.98201 -162.94541 C 377.34948 -168.44393 356.09465 -179.10304 362.86799 -166.21859 C 367.28526 -152.02762 357.45665 -155.83819 349.63056 -148.36904 C 353.57838 -139.15565 345.6132 -143.37621 339.98567 -143.75226 C 347.54405 -129.26543 328.79817 -143.74116 332.61609 -151.7063 C 318.20368 -168.70664 334.59078 -153.90353 343.75185 -153.36925 C 362.5867 -152.69388 348.33434 -173.26306 338.34546 -176.64069 C 325.25518 -176.57582 327.75233 -186.78219 320.7517 -181.66003 C 310.7668 -176.85011 317.21001 -168.07011 316.50131 -161.63179 C 318.30036 -151.42572 318.1156 -145.7454 319.15748 -136.50568 C 333.66049 -128.29917 302.37374 -115.47352 317.49815 -111.96764 C 314.13953 -109.72355 306.18663 -95.261561 314.80168 -87.583598 C 320.24199 -87.016499 329.63908 -73.508371 323.40218 -72.345252 C 324.61738 -64.23758 334.36729 -67.646973 336.03139 -59.394621 C 345.89268 -60.124331 356.06482 -49.039623 344.97193 -45.682797 C 348.78571 -40.964221 334.12141 -32.76821 348.73914 -27.859595 C 357.58662 -25.969177 365.13449 -23.519242 372.27414 -18.519597 C 382.06417 -18.091317 367.87608 -31.453341 372.46224 -33.910389 C 377.61419 -37.450035 379.99139 -38.680427 375.81759 -45.24303 C 367.86922 -43.610762 370.65621 -63.292234 376.41497 -55.745232 C 377.32413 -63.477844 385.78315 -66.265689 392.14683 -63.839311 C 395.21861 -54.355401 400.84481 -65.996957 409.97571 -59.895883 C 424.11815 -58.252154 406.62522 -70.291925 418.32404 -71.982483 C 408.6896 -79.892726 423.20004 -76.415951 429.0562 -80.241928 C 440.74965 -90.399147 446.74809 -78.770234 453.28108 -75.688717 C 466.24429 -86.464686 467.84106 -63.901492 477.84754 -61.719544 C 487.95614 -64.207161 493.17824 -47.480316 503.49558 -55.862537 C 510.87461 -68.140985 521.82395 -51.470635 529.66608 -57.301209 C 527.0972 -70.995335 543.04371 -65.237645 547.66395 -57.426783 C 559.1757 -62.207958 566.53685 -45.005603 578.50496 -56.099732 C 587.80451 -56.032142 601.21462 -53.833469 599.18328 -69.633273 C 602.03594 -77.814835 618.87526 -74.234017 618.76245 -64.362277 C 621.26604 -54.404987 632.20041 -43.520987 641.97705 -48.112623 C 646.03928 -41.370989 635.64547 -33.053699 632.66238 -31.258871 C 626.55731 -14.671588 650.55334 -29.242476 653.29626 -38.941606 C 661.56317 -49.045226 665.09909 -64.273652 660.64206 -76.18171 C 655.10245 -74.062282 652.27595 -76.715104 650.68247 -75.958985 C 639.0377 -86.394404 663.39829 -95.325571 667.95325 -106.77881 C 675.47976 -104.50714 696.05281 -111.74451 695.22703 -104.25907 C 709.88588 -100.80886 702.07761 -120.53576 718.94393 -123.26876 C 723.13599 -117.62047 722.14214 -110.6342 729.4544 -121.17638 C 733.09531 -132.23472 740.84221 -126.33998 733.00302 -117.19523 C 724.24358 -107.04005 713.00531 -99.766599 708.2867 -87.635792 C 707.29758 -79.09538 710.99876 -50.85482 718.59202 -70.82028 C 725.49509 -78.471733 735.17197 -89.365534 728.76504 -98.394825 C 730.30935 -115.60504 739.19331 -107.74886 745.91283 -113.90241 C 757.22635 -107.08027 765.1448 -124.94905 774.86248 -128.17234 C 782.27332 -123.30964 784.9738 -131.51736 778.77232 -138.78306 C 766.48016 -145.6152 780.50482 -138.80871 784.72855 -145.74646 C 785.52594 -155.42698 786.09946 -153.28204 790.7597 -147.69672 C 796.38819 -148.87619 810.07504 -130.52134 806.99954 -148.24243 C 814.67713 -146.45275 818.90438 -160.58456 804.81569 -160.65046 C 802.32826 -150.19667 802.77857 -162.26187 798.14013 -166.06925 C 788.28305 -177.4376 773.25042 -183.85267 758.57976 -186.36775 C 754.05764 -185.11332 756.75968 -166.10794 748.35867 -180.28388 C 757.89993 -189.19798 740.19714 -177.86838 733.7575 -182.87597 C 719.58841 -171.16842 727.68368 -193.38203 712.68023 -196.10462 C 702.82273 -192.42979 695.07244 -195.11039 689.55193 -202.98379 C 692.71737 -215.11902 678.14442 -201.50588 676.44213 -203.64421 C 689.22894 -210.53431 669.78569 -206.00223 679.06833 -209.93892 C 669.77441 -210.539 664.49916 -215.72147 659.3052 -209.56427 C 660.38633 -206.10618 661.02215 -196.91791 652.55522 -200.68471 C 656.53017 -196.44777 638.94123 -197.66248 638.06773 -202.4479 C 633.40148 -181.32396 628.02785 -207.64159 620.02387 -207.26518 C 624.75988 -194.72842 613.8719 -205.62001 619.63475 -210.57092 C 629.22616 -196.94495 628.89772 -221.66345 619.22082 -219.67063 C 608.34622 -227.55152 611.40112 -211.08864 599.90572 -214.22858 C 595.27462 -218.59527 584.82559 -228.27885 578.07605 -217.57825 C 577.54867 -224.10037 574.70529 -225.47913 567.05553 -224.91837 C 573.50201 -218.94675 555.46986 -219.27737 556.75848 -213.40641 C 535.57088 -201.58879 563.96051 -223.3354 568.51694 -230.93712 C 580.85934 -238.54544 578.94823 -248.39124 574.21633 -257.71792 C 566.99427 -265.5513 553.84925 -251.03298 557.95428 -262.55173 C 546.77649 -263.6707 554.92682 -265.55683 553.54421 -270.98119 C 550.96793 -271.96943 548.91758 -272.34385 547.27637 -272.26018 z M 688.27862 -260.80248 C 687.70954 -260.78474 686.78359 -260.08514 685.43797 -258.12771 C 688.47898 -254.77462 689.98585 -260.8557 688.27862 -260.80248 z M 436.93686 -260.67277 C 433.69734 -260.80341 428.09434 -258.28697 425.5329 -254.41424 C 415.52068 -252.85923 407.95451 -248.14296 401.67338 -239.10148 C 397.15378 -233.97312 399.72629 -227.27677 391.52929 -222.61618 C 397.55324 -217.05991 386.70785 -212.48935 387.88042 -208.53436 C 380.35193 -201.24274 393.06521 -197.2773 394.87689 -190.9809 C 410.81094 -186.6434 389.84608 -207.6039 401.81239 -217.64956 C 407.7567 -235.16018 419.81654 -245.73774 436.27902 -253.25669 C 440.81396 -258.38124 439.79525 -260.55751 436.93686 -260.67277 z M 655.9545 -251.16845 C 650.48007 -251.21478 647.88828 -238.64907 654.13394 -235.76163 C 657.1904 -230.55274 656.84697 -235.78255 658.88093 -235.39835 C 667.19367 -236.41322 668.60872 -236.22816 668.516 -240.83109 C 671.29808 -237.16969 681.18341 -240.95716 673.14053 -246.24833 C 665.6346 -255.97503 664.16726 -244.03904 658.84734 -250.03518 C 657.82322 -250.81584 656.85031 -251.16086 655.9545 -251.16845 z M 680.95607 -243.06041 C 678.15007 -243.01802 677.81325 -240.9079 684.09231 -235.27639 C 685.10269 -231.07 695.60881 -235.9754 692.63546 -238.43847 C 689.03729 -241.0776 683.76208 -243.10281 680.95607 -243.06041 z M 666.9099 -223.38151 C 662.52484 -223.40536 656.06823 -218.0613 665.8588 -217.44389 L 669.09995 -216.49149 C 671.17804 -221.66575 669.36981 -223.36813 666.9099 -223.38151 z M 785.6458 -200.43149 C 783.35406 -200.37416 781.04252 -198.77893 780.42338 -194.19156 C 779.40958 -191.35437 783.76603 -193.64323 784.77661 -193.92284 C 794.94817 -194.21809 790.33842 -200.54889 785.6458 -200.43149 z M 377.5472 -179.13822 C 375.04396 -179.22465 372.72578 -177.8547 377.18081 -174.2982 C 383.45891 -177.07181 380.38421 -179.04026 377.5472 -179.13822 z M 735.76771 -106.33439 C 735.24301 -106.28281 734.36711 -105.38898 733.06297 -102.95269 C 735.75262 -99.062545 737.34181 -106.48914 735.76771 -106.33439 z " /></g></svg>
