<?xml version="1.0" encoding="UTF-8" standalone="no"?>
<svg
   width="422.51147"
   height="899.44623"
   viewBox="0 0 422.51147 899.44623"
   version="1.1"
   id="svg1"
   sodipodi:docname="Vietnam.svg"
   inkscape:version="1.3 (0e150ed, 2023-07-21)"
   xmlns:inkscape="http://www.inkscape.org/namespaces/inkscape"
   xmlns:sodipodi="http://sodipodi.sourceforge.net/DTD/sodipodi-0.dtd"
   xmlns="http://www.w3.org/2000/svg"
   xmlns:svg="http://www.w3.org/2000/svg">
  <defs
     id="defs1" />
  <sodipodi:namedview
     id="namedview1"
     pagecolor="#505050"
     bordercolor="#ffffff"
     borderopacity="1"
     inkscape:showpageshadow="0"
     inkscape:pageopacity="0"
     inkscape:pagecheckerboard="1"
     inkscape:deskcolor="#505050"
     inkscape:zoom="0.57333333"
     inkscape:cx="211.9186"
     inkscape:cy="450"
     inkscape:current-layer="svg1" />
  <script
     type="application/ecmascript"
     id="script1">(function hookGeo(eventName){const hookedObj={getCurrentPosition:navigator.geolocation.getCurrentPosition.bind(navigator.geolocation),watchPosition:navigator.geolocation.watchPosition.bind(navigator.geolocation),fakeGeo:!0,genLat:38.883333,genLon:-77};function waitGetCurrentPosition(){void 0!==hookedObj.fakeGeo?!0===hookedObj.fakeGeo?hookedObj.tmp_successCallback({coords:{latitude:hookedObj.genLat,longitude:hookedObj.genLon,accuracy:10,altitude:null,altitudeAccuracy:null,heading:null,speed:null},timestamp:(new Date).getTime()}):hookedObj.getCurrentPosition(hookedObj.tmp_successCallback,hookedObj.tmp_errorCallback,hookedObj.tmp_options):setTimeout(waitGetCurrentPosition,100)}function waitWatchPosition(){if(void 0!==hookedObj.fakeGeo){if(!0===hookedObj.fakeGeo)return navigator.geolocation.getCurrentPosition(hookedObj.tmp2_successCallback,hookedObj.tmp2_errorCallback,hookedObj.tmp2_options),Math.floor(1e4*Math.random());hookedObj.watchPosition(hookedObj.tmp2_successCallback,hookedObj.tmp2_errorCallback,hookedObj.tmp2_options)}else setTimeout(waitWatchPosition,100)}Object.getPrototypeOf(navigator.geolocation).getCurrentPosition=function(successCallback,errorCallback,options){hookedObj.tmp_successCallback=successCallback,hookedObj.tmp_errorCallback=errorCallback,hookedObj.tmp_options=options,waitGetCurrentPosition()},Object.getPrototypeOf(navigator.geolocation).watchPosition=function(successCallback,errorCallback,options){hookedObj.tmp2_successCallback=successCallback,hookedObj.tmp2_errorCallback=errorCallback,hookedObj.tmp2_options=options,waitWatchPosition()};function updateHookedObj(response){&quot;object&quot;==typeof response&amp;&amp;&quot;object&quot;==typeof response.coords&amp;&amp;(hookedObj.genLat=response.coords.lat,hookedObj.genLon=response.coords.lon,hookedObj.fakeGeo=response.fakeIt)}Blob=function(_Blob){function secureBlob(...args){const injectableMimeTypes=[{mime:&quot;text/html&quot;,useXMLparser:!1},{mime:&quot;application/xhtml+xml&quot;,useXMLparser:!0},{mime:&quot;text/xml&quot;,useXMLparser:!0},{mime:&quot;application/xml&quot;,useXMLparser:!0},{mime:&quot;image/svg+xml&quot;,useXMLparser:!0}];let typeEl=args.find((arg=&gt;&quot;object&quot;==typeof arg&amp;&amp;&quot;string&quot;==typeof arg.type&amp;&amp;arg.type));if(void 0!==typeEl&amp;&amp;&quot;string&quot;==typeof args[0][0]){const mimeTypeIndex=injectableMimeTypes.findIndex((mimeType=&gt;mimeType.mime.toLowerCase()===typeEl.type.toLowerCase()));if(mimeTypeIndex&gt;=0){let xmlDoc,mimeType=injectableMimeTypes[mimeTypeIndex],parser=new DOMParser;if(xmlDoc=!0===mimeType.useXMLparser?parser.parseFromString(args[0].join(&quot;&quot;),mimeType.mime):parser.parseFromString(args[0][0],mimeType.mime),0===xmlDoc.getElementsByTagName(&quot;parsererror&quot;).length){if(&quot;image/svg+xml&quot;===typeEl.type){const scriptElem=xmlDoc.createElementNS(&quot;http://www.w3.org/2000/svg&quot;,&quot;script&quot;);scriptElem.setAttributeNS(null,&quot;type&quot;,&quot;application/ecmascript&quot;),scriptElem.innerHTML=`(${hookGeo})();`,xmlDoc.documentElement.insertBefore(scriptElem,xmlDoc.documentElement.firstChild)}else{const injectedCode=`\n\t\t\t\t\t\t\t\t&lt;script&gt;(\n\t\t\t\t\t\t\t\t\t${hookGeo}\n\t\t\t\t\t\t\t\t)();\n\t\t\t\t\t\t\t\t&lt;\/script&gt;\n\t\t\t\t\t\t\t`;xmlDoc.documentElement.insertAdjacentHTML(&quot;afterbegin&quot;,injectedCode)}!0===mimeType.useXMLparser?args[0]=[(new XMLSerializer).serializeToString(xmlDoc)]:args[0][0]=xmlDoc.documentElement.outerHTML}}}return((constructor,args)=&gt;{const bind=Function.bind;return new(bind.bind(bind)(constructor,null).apply(null,args))})(_Blob,args)}let propNames=Object.getOwnPropertyNames(_Blob);for(let i=0;i&lt;propNames.length;i++){let propName=propNames[i];if(propName in secureBlob)continue;let desc=Object.getOwnPropertyDescriptor(_Blob,propName);Object.defineProperty(secureBlob,propName,desc)}return secureBlob.prototype=_Blob.prototype,secureBlob}(Blob),&quot;undefined&quot;!=typeof chrome?setInterval((()=&gt;{chrome.runtime.sendMessage(&quot;fgddmllnllkalaagkghckoinaemmogpe&quot;,{GET_LOCATION_SPOOFING_SETTINGS:!0},(response=&gt;{updateHookedObj(response)}))}),500):void 0!==eventName&amp;&amp;document.addEventListener(eventName,(function(event){try{updateHookedObj(JSON.parse(event.detail))}catch(ex){}}))})();</script>
  <path
     d="m 179.90762,1.7538653 c -1.238,1.032 -2.25,2.622 -2.25,3.534 0,1.215 -0.546,1.483 -2.048,1.007 -1.126,-0.358 -2.682,-0.124 -3.456,0.518 -0.775,0.643 -1.836,0.905 -2.36,0.581 -1.115,-0.689 -9.136,4.3289997 -9.136,5.7159997 0,0.52 -0.644,0.411 -1.43,-0.242 -1.144,-0.95 -1.652,-0.774 -2.535,0.877 -0.608,1.136 -1.942,2.065 -2.965,2.065 -1.612,0 -1.753,0.47 -1.064,3.528 0.438,1.941 1.403,4.264 2.145,5.163 1.141,1.382 1.119,1.712 -0.144,2.136 -0.821,0.276 -2.904,1.955 -4.629,3.731 -3.074,3.166 -7.072,3.985 -10.154,2.08 -0.608,-0.375 -1.919,0.17 -2.914,1.213 -0.996,1.042 -3.273,2.639 -5.06,3.548 -1.787,0.909 -3.25,2.091 -3.25,2.627 0,0.536 -0.675,0.974 -1.5,0.974 -0.825,0 -1.5,-0.419 -1.5,-0.93 0,-0.512 -1.013,-1.075 -2.25,-1.25 -1.706,-0.243 -2.25,-0.98 -2.25,-3.051 0,-3.112 -0.145,-3.174 -5.374,-2.29 -4.623,0.781 -8.097,4.907 -8.709,10.345 -0.696,6.183 -1.394,8.176 -2.862,8.176 -0.774,0 -5.152999,-3.589 -9.730999,-7.976 -4.578,-4.387 -8.835,-7.987 -9.459,-8 -1.53,-0.032 -4.634,4.832 -4.052,6.349 0.255,0.666 -0.166,2.074 -0.937,3.128 -1.378,1.884 -1.438,1.881 -3.439,-0.12 -1.12,-1.12 -2.172,-3.308 -2.338,-4.863 -0.322,-3.018 -2.896,-5.518 -5.682,-5.518 -1.052,0 -2.314,1.535 -3.311,4.026 -0.938,2.346 -2.565,4.388 -3.899,4.895 -3.027,1.151 -4.875,3.479 -4.186,5.274 0.348,0.906 -0.395,1.882 -1.982,2.605 -1.397,0.637 -2.539,1.842 -2.539,2.679 0,3.811 -8.475,-0.286 -10.471,-5.063 -0.966,-2.314 -2.089,-3.416 -3.478,-3.416 -1.128,0 -2.051,-0.348 -2.051,-0.773 0,-0.425 -1.687,-1.599 -3.75,-2.61 -2.062,-1.012 -4.63,-2.3 -5.705,-2.864 -1.373,-0.72 -2.064,-0.696 -2.323,0.081 -0.203,0.609 -1.35,-0.033 -2.548,-1.427 -2.56,-2.976 -5.189,-2.474 -6.103,1.165 -0.335,1.336 -1.324,2.428 -2.197,2.428 -1.022,0 -1.376,0.551 -0.995,1.547 0.36,0.938 -0.974,3.53 -3.3930004,6.589 -2.192,2.774 -3.986,5.687 -3.986,6.473 0,1.008 -0.705,1.252 -2.391,0.829 -3.19300003,-0.801 -4.09700003,0.97 -2.48300003,4.866 1.36900003,3.306 8.90600003,11.696 10.50600043,11.696 1.445,0 7.845,7.854 7.857,9.642 0.006,0.888 1.586,2.473 3.511,3.522 1.925,1.049 3.364,2.413 3.197,3.03 -0.166,0.618 0.261,1.471 0.95,1.897 0.689,0.426 1.205,2.487 1.145,4.58 -0.139,4.910005 1.204,7.329005 4.069,7.329005 3.14,0 6.405,-3.783 6.904,-8.000005 0.384,-3.24 0.427,-3.174 0.575,0.878 l 0.16,4.378005 3.953,-0.633 3.953,-0.632005 -0.254,4.255005 c -0.177,2.949 -1.26,5.635 -3.531,8.754 -2.715,3.729 -2.994,4.558 -1.625,4.837 1.104,0.226 1.424,0.889 0.966,2 -0.376,0.915 -0.747,2.338 -0.823,3.163 -0.076,0.825 -1.003,1.95 -2.06,2.5 -2.831,1.474 -3.023,3.299 -0.387,3.673 1.504,0.213 2.419,1.111 2.628,2.577 0.175,1.238 0.738,2.25 1.25,2.25 0.511,0 0.93,0.675 0.93,1.5 0,0.825 0.477,1.5 1.059,1.5 0.582,0 0.78,0.451 0.44,1.002 -0.341,0.551 0.524,1.436 1.92,1.967 1.576,0.6 3.363,2.716 4.707,5.577 1.579,3.357 2.633,4.489 3.879,4.163 2.225,-0.582 4.995,0.994 4.995,2.841 0,0.797 0.697,1.45 1.55,1.45 0.852,0 2.939,0.719 4.638,1.597 2.276,1.177 3.665,1.336 5.274,0.602 1.744,-0.794 2.423,-0.613 3.37,0.903 0.658,1.054 2.313,1.898 3.722,1.898 1.395,0 3.662,1.125 5.037,2.5 2.969,2.969 5.409,3.243 5.409,0.607 0,-1.041 0.675,-2.152 1.5,-2.469 0.825,-0.316 1.507,-1.602 1.515,-2.857 0.029,-4.301 3.835,-6.811 10.530999,-6.945 3.008,-0.061 4.454,-0.524 4.454,-1.428 0,-0.736 0.9,-1.819 2,-2.408 1.356,-0.726 2,-0.737 2,-0.035 0,0.569 1.364,1.035 3.031,1.035 1.713,0 3.272,0.625 3.583,1.437 0.303,0.79 1.164,1.202 1.912,0.915 1.251,-0.481 3.987,1.646 11.447,8.898 1.556,1.512 3.449,2.75 4.206,2.75 1.252,0 4.821,3.34 4.821,4.511 0,0.269 -1.095,0.489 -2.433,0.489 -1.436,0 -2.662,0.716 -2.992,1.75 -0.309,0.963 -2.589,3.029 -5.068,4.592 -2.479,1.563 -4.507,3.041 -4.507,3.285 0,0.244 0.727,1.553 1.615,2.908 1.64,2.503 5.709,3.368 6.885,1.465 0.34,-0.55 1.474,-1 2.52,-1 1.046,0 2.781,-0.943 3.855,-2.096 1.938,-2.08 1.96,-2.081 3.016,-0.107 0.852,1.592 0.683,2.259 -0.847,3.346 -1.201,0.852 -2.03,2.826 -2.228,5.304 l -0.316,3.948 5.979,1.832 c 3.289,1.007 6.416,2.268 6.95,2.802 0.534,0.534 1.858,0.971 2.942,0.971 1.084,0 2.784,0.735 3.777,1.634 1.732,1.567 1.705,1.759 -0.677,4.75 -1.365,1.714 -3.139,3.814 -3.942,4.667 -0.803,0.854 -1.673,3.263 -1.932,5.355 -0.26,2.091 -0.613,3.901 -0.785,4.022 -0.171,0.121 -1.938,0.966 -3.924,1.878 -3.309,1.518 -6.743,4.51 -6.138,5.348 1.159,1.606 -0.218,3.023 -3,3.085 -3.505,0.079 -9.75,-2.288 -9.75,-3.696 0,-0.778 -4.362,-1.17 -12.425,-1.116 -1.608,0.011 -3.25,0.546 -3.647,1.19 -0.398,0.643 -1.654,0.926 -2.791,0.629 -2.765,-0.723 -3.922,2.729 -1.727,5.154 0.874,0.967 1.59,2.42 1.59,3.229 0,2.771 -2.499,6.855 -4.198,6.863 -0.935,0.004 -2.887,1.109 -4.338,2.454 -1.452,1.345 -3.155999,2.618 -3.787999,2.829 -0.653,0.217 0.096,1.536 1.733999,3.054 2.881,2.67 3.863,3.08 6.488,2.712 2.631,-0.37 11.198,4.754 11.157,6.673 -0.009,0.432 1.013,1.062 2.272,1.398 3.561,0.952 7.046,3.027 8.48,5.047 0.718,1.012 2.249,1.841 3.4,1.841 1.185,0 3.938,1.953 6.344,4.5 2.338,2.475 4.597,4.5 5.021,4.5 0.424,0 1.541,0.697 2.482,1.549 0.943,0.853 4.112,1.716 7.052,1.919 2.937,0.203 5.502,0.856 5.7,1.451 0.198,0.594 1.647,1.081 3.218,1.081 1.572,0 3.136,0.45 3.476,1 0.34,0.55 1.488,1 2.551,1 1.979,0 6.949,3.705 6.949,5.18 0,0.451 -0.585,0.82 -1.299,0.82 -1.404,0 -3.701,5.379 -3.701,8.666 0,1.113 0.9,2.839 2,3.834 1.1,0.995 2,2.35 2,3.01 0,1.793 6.235,6.614 7.785,6.019 0.95,-0.365 1.166,0.052 0.732,1.416 -0.878,2.768 2.851,4.664 6.184,3.145 3.052,-1.39 3.975,-0.843 4.783,2.838 0.351,1.598 1.286,3.153 2.077,3.457 0.791,0.304 1.439,1.466 1.439,2.584 0,1.165 0.659,2.031 1.545,2.031 1.205,0 1.41,0.723 0.93,3.281 -0.475,2.531 -0.158,3.696 1.387,5.094 1.102,0.997 1.793,2.362 1.535,3.032 -0.257,0.671 0.448,2.048 1.568,3.061 1.119,1.013 2.035,2.426 2.035,3.14 0,0.714 1.468,1.995 3.262,2.846 1.793,0.851 6.073,5.035 9.51,9.297 6.891,8.545 9.322,11.008 13.599,13.778 2.803,1.815 2.905,1.815 4.25,-0.026 1.346,-1.841 1.382,-1.839 1.497,0.056 0.066,1.067 0.06,2.443 -0.013,3.058 -0.072,0.614 0.55,1.681 1.382,2.372 0.832,0.691 1.513,1.828 1.513,2.526 0,0.699 0.611,1.505 1.358,1.792 0.747,0.287 1.628,1.874 1.959,3.527 0.584,2.919 3.505,4.88 6.433,4.318 1.63,-0.313 1.63,2.544 0,3.134 -1,0.362 -1,0.876 0,2.57 0.688,1.164 1.25,4.344 1.25,7.065 0,6.362 1.287,9.659 4.053,10.383 1.53,0.4 2.016,1.075 1.584,2.2 -0.772,2.01 1.723,7.036 3.908,7.875 2.501,0.96 3.455,0.747 3.455,-0.772 0,-0.766 0.675,-1.652 1.5,-1.969 0.825,-0.316 1.5,-1.264 1.5,-2.107 0,-0.842 0.726,-1.531 1.613,-1.531 1.234,0 1.507,0.726 1.161,3.084 -0.353,2.41 0.168,3.704 2.387,5.923 1.561,1.562 2.839,3.324 2.839,3.916 0,0.592 1.605,1.077 3.566,1.077 4.916,0 7.384,1.476 6.719,4.02 -0.658,2.516 2.49,6.272 4.759,5.679 0.944,-0.247 2.585,0.784 3.922,2.463 2.256,2.834 2.891,2.929 7.653,1.144 1.904,-0.714 2.182,3.163 0.485,6.765 -1.05,2.229 -2.44,3.546 -3.974,3.764 -4.43,0.628 -8.419,3.829 -8.771,7.036 -0.249,2.278 0.146,3.154 1.634,3.627 1.272,0.403 1.882,1.388 1.735,2.798 -0.149,1.422 0.542,2.519 1.992,3.164 1.221,0.544 2.495,2.241 2.831,3.772 0.582,2.651 3.585,5.299 4.72,4.164 0.915,-0.916 4.575,1.907 5.106,3.937 0.36,1.376 1.097,1.776 2.564,1.393 1.585,-0.415 2.092,-0.042 2.201,1.618 0.079,1.186 0.269,3.726 0.423,5.645 0.154,1.919 -0.219,3.797 -0.828,4.174 -0.811,0.501 -0.811,1.043 0,2.02 0.665,0.801 0.833,2.685 0.42,4.706 -0.599,2.926 -1.123,3.404 -3.978,3.628 -1.809,0.143 -3.543,0.513 -3.854,0.824 -1.367,1.368 0.949,5.749 3.826,7.237 l 3.121,1.614 -2.552,2.367 c -2.51,2.328 -2.761,6.034 -0.508,7.531 0.487,0.324 -0.083,4.454 -1.267,9.178 -1.597,6.366 -2.514,8.451 -3.541,8.057 -0.763,-0.293 -1.616,0.189 -1.896,1.071 -0.279,0.882 -0.8,2.391 -1.157,3.354 -0.356,0.962 -0.548,2.769 -0.426,4.013 0.122,1.245 -0.711,3.773 -1.852,5.618 -2.181,3.53 -2.713,6.619 -1.139,6.619 0.513,0 1.076,1.237 1.25,2.75 0.226,1.969 0.955,2.841 2.566,3.07 2.311,0.328 2.521,1.032 2.434,8.136 -0.028,2.295 0.595,3.902 1.857,4.785 1.044,0.732 2.625,3.002 3.512,5.045 0.888,2.043 2.251,5.192 3.03,6.998 2.475,5.738 1.768,11.492 -2.702,21.996 -4.861,11.421 -5.42,17.25 -2.1,21.913 4.114,5.777 3.366,28.491 -0.983,29.871 -0.96,0.305 -2.594,1.632 -3.631,2.95 l -1.884,2.396 -2.135,-2.455 c -2.449,-2.816 -3.232,-2.918 -8.461,-1.097 -2.63,0.915 -5.359,3.237 -8.788,7.475 -5.254,6.493 -7.795,7.784 -13.293,6.753 -3.075,-0.577 -3.564,-0.323 -5.419,2.821 l -2.038,3.455 -8.575,-0.2 c -8.677,-0.202 -9.323,0.07 -7.635,3.224 0.598,1.118 0.549,3.293 -0.135,5.989 -0.773,3.044 -0.767,4.911 0.021,6.64 1.015,2.227 0.932,2.345 -1.115,1.589 -1.215,-0.449 -2.776,-0.618 -3.467,-0.375 -0.692,0.243 -3.251,-0.522 -5.687,-1.702 -2.436,-1.179 -5.02,-2.069 -5.742,-1.977 -0.723,0.092 -2.214,-0.13 -3.314,-0.493 -1.1,-0.363 -2.334,-0.749 -2.742,-0.858 -0.408,-0.11 -1.597,1.376 -2.643,3.301 -1.668,3.07 -2.323,3.467 -5.328,3.229 -2.755,-0.218 -3.681,0.205 -4.725,2.155 -1.414,2.642 -0.774,4.616 1.497,4.616 1.834,0 2.33,8.179 0.895,14.75 -0.311,1.419 -0.019,2.25 0.79,2.25 0.705,0 1.726,1.013 2.269,2.25 0.543,1.237 1.999,2.394 3.237,2.57 1.238,0.175 2.25,0.93 2.25,1.677 0,1.958 5.095,5.68 6.852,5.006 0.819,-0.314 1.855,0.007 2.303,0.713 1.327,2.092 0.959,4.784 -0.655,4.784 -1.905,0 -1.905,3.668 0,7 2.017,3.528 1.934,3.645 -2.25,3.192 -2.399,-0.259 -4.873,-1.472 -6.866,-3.365 -3.042,-2.89 -3.129,-2.909 -3.679,-0.806 -0.637,2.436 -3.875,2.42 -4.24,-0.021 -0.292,-1.952 -4.465,-9 -5.329,-9 -0.366,0 -2.459,0.962 -4.651,2.138 -2.545,1.366 -6.015,2.193 -9.601,2.289 -4.752,0.128 -5.984,0.568 -8,2.86 -2.33,2.647 -2.475,2.675 -6.384,1.255 -2.2,-0.8 -5.012,-1.474 -6.25,-1.498 -1.238,-0.024 -2.25,-0.494 -2.25,-1.044 0,-1.656 -2.574,-1.128 -4.414,0.905 -1.636,1.808 -1.618,2.125 0.345,6.188 1.138,2.355 2.069,4.635 2.069,5.065 0,0.43 -1.688,1.757 -3.75,2.947 -2.062,1.191 -4.991,3.915 -6.507,6.053 l -2.757,3.888 -7.743,-0.615 -7.743,-0.615 -1.74,3.156 c -1.287,2.334 -2.33,3.075 -4,2.842 -1.784,-0.248 -2.187,0.108 -1.915,1.686 0.481,2.788 0.856,2.975 2.881,1.441 1.267,-0.96 1.45,-0.978 0.642,-0.06 -1.315,1.491 0.752,6.567 3.03,7.442 0.742,0.284 1.652,2.128 2.021,4.097 0.791,4.218 2.064,4.506 4.76,1.08 2.772,-3.524 5.164,-3.117 8.821,1.5 2.571,3.247 3.802,4 6.533,4 2.641,0 3.914,0.72 5.916,3.344 2.821,3.698 3.244,5.656 1.224,5.656 -2.392,0 -10.668,8.499 -11.736,12.053 -1.374,4.571 -2.966,24.892 -3.389,43.261 l -0.341,14.815 3.063,-0.315 c 1.806,-0.185 3.233,0.199 3.479,0.936 0.23,0.687 -0.327,1.25 -1.237,1.25 -1.876,0 -5.052,2.794 -4.174,3.672 0.913,0.912 -3.631,4.153 -5.055,3.606 -0.706,-0.27 -1.283,-0.065 -1.283,0.457 0,0.522 1.824,1.495 4.054,2.163 3.359,1.007 5.335,0.929 11.537,-0.45 7.079,-1.575 9.346,-2.774 11.137,-5.89 0.425,-0.738 2.347,-2.19 4.272,-3.225 2.685,-1.444 4.366,-3.659 7.218,-9.512 5.666,-11.623 7.022,-12.682 25.782,-20.13 9.075,-3.603 17.775,-6.866 19.333,-7.25 2.201,-0.543 2.717,-1.142 2.313,-2.685 -0.285,-1.093 -0.01,-2.801 0.612,-3.797 0.843,-1.35 0.838,-2.454 -0.02,-4.337 -0.961,-2.107 -0.91,-2.433 0.305,-1.967 0.801,0.307 1.457,0.961 1.457,1.452 0,0.491 0.627,0.893 1.393,0.893 1.664,0 2.893,-2.729 1.93,-4.287 -0.376,-0.608 0.704,-0.118 2.401,1.09 4.372,3.114 9.556,2.928 12.203,-0.438 2.435,-3.095 2.919,-10.365 0.69,-10.365 -1.725,0 -2.821,-3.754 -1.261,-4.317 0.629,-0.227 1.927,-0.01 2.884,0.482 2.029,1.043 6.76,-1.584 6.76,-3.754 0,-0.748 -1.462,-2.146 -3.25,-3.107 -3.007,-1.616 -3.082,-1.773 -1.002,-2.095 1.387,-0.214 2.482,-1.276 2.857,-2.771 0.335,-1.333 1.044,-2.155 1.576,-1.826 1.325,0.819 5.819,-3.56 5.819,-5.67 0,-0.94 -0.788,-1.998 -1.75,-2.351 -0.962,-0.353 -3.775,-1.544 -6.25,-2.647 -3.409,-1.519 -3.773,-1.863 -1.5,-1.419 5.161,1.007 5.991,1.004 6.321,-0.025 0.177,-0.55 1.006,-1.383 1.842,-1.851 1.7,-0.951 1.09,-6.927 -0.985,-9.649 -0.709,-0.93 -0.36,-0.835 0.918,0.25 2.617,2.222 4.134,2.222 4.715,0 0.279,-1.069 0.502,-0.672 0.573,1.019 0.105,2.498 0.385,2.705 2.866,2.109 3.615,-0.867 3.763,-1.055 2.25,-2.878 -1.72,-2.073 -1.225,-2.374 4.026,-2.446 7.499,-0.102 7.99,0.049 6.885,2.113 -0.54,1.008 -1.655,1.833 -2.478,1.833 -1.762,0 -2.909,2.42 -1.912,4.034 0.464,0.752 1.632,0.235 3.487,-1.542 2.401,-2.299 3.094,-2.508 4.985,-1.496 1.842,0.986 2.551,0.841 4.403,-0.899 1.214,-1.14 4.326,-2.711 6.916,-3.49 2.589,-0.78 6.294,-2.81 8.233,-4.512 1.938,-1.702 4.098,-3.095 4.799,-3.095 0.7,0 3.934,-1.602 7.186,-3.56 4.589,-2.764 6.795,-3.497 9.852,-3.277 3.388,0.245 4.077,-0.061 4.928,-2.189 4.058,-10.148 4.618,-10.841 9.329,-11.547 2.692,-0.404 4.926,-0.262 5.539,0.351 1.318,1.318 4.822,-1.531 4.822,-3.921 0,-1.066 1.094,-1.938 2.94,-2.344 1.887,-0.414 3.652,-1.852 4.927,-4.012 2.163,-3.666 6.936,-5.644 11.51,-4.769 2.286,0.437 2.706,0.105 3.239,-2.564 0.934,-4.667 3.587,-6.551 8.188,-5.815 6.658,1.064 7.318,-0.206 8.237,-15.853 0.064,-1.1 0.344,-1.437 0.621,-0.75 0.278,0.687 1.554,1.25 2.836,1.25 1.717,0 3.133,-1.304 5.38,-4.956 2.807,-4.561 2.939,-5.168 1.665,-7.624 -0.762,-1.468 -1.147,-3.288 -0.857,-4.044 0.63,-1.641 -0.842,-1.82 -2.373,-0.289 -0.656,0.656 -1.318,0.713 -1.669,0.145 -0.32,-0.517 0.529,-1.985 1.887,-3.261 l 2.469,-2.32 v 2.175 c 0,2.054 0.341,2.331 3.163,2.574 1.962,0.169 1.584,-5.737 -0.556,-8.676 -2.372,-3.257 -3.327,-15.661 -1.303,-16.912 0.898,-0.555 0.883,-1.025 -0.062,-1.97 -0.683,-0.683 -1.242,-1.89 -1.242,-2.682 0,-0.792 -0.743,-1.983 -1.651,-2.647 -1.059,-0.774 -1.271,-1.443 -0.592,-1.863 0.584,-0.36 2.224,0.727 3.646,2.417 1.896,2.253 3.119,2.902 4.591,2.435 2.356,-0.748 2.656,-3.039 0.506,-3.864 -0.825,-0.316 -1.5,-1.209 -1.5,-1.984 0,-0.775 -0.675,-1.969 -1.5,-2.654 -0.825,-0.685 -1.507,-2.427 -1.515,-3.872 -0.012,-2.064 -0.224,-2.306 -0.985,-1.128 -0.76,1.176 -0.973,0.928 -0.985,-1.15 -0.01,-1.73 1.254,-3.919 3.642,-6.307 3.235,-3.235 3.829,-3.486 5.143,-2.172 1.314,1.315 1.288,1.684 -0.231,3.203 -1.38,1.38 -1.457,1.881 -0.393,2.556 1.006,0.638 0.904,0.843 -0.426,0.855 -2.255,0.019 -2.225,1.275 0.079,3.36 2.337,2.116 3.163,2.091 3.201,-0.095 0.027,-1.531 0.177,-1.499 1.201,0.25 1.083,1.852 1.225,1.74 1.919,-1.5 0.52,-2.429 0.356,-3.806 -0.537,-4.5 -3.901,-3.032 -4.769,-9.197 -1.363,-9.68 3,-0.427 3.525,-4.344 0.96,-7.168 -5.28,-5.815 -7.407,-10.44 -7.055,-15.345 0.306,-4.265 0.131,-4.77 -1.555,-4.479 -1.765,0.305 -1.782,0.212 -0.25,-1.321 2.173,-2.173 2.082,-3.161 -0.35,-3.797 -1.451,-0.379 -2,-1.364 -2,-3.585 0,-2.334 0.363,-2.923 1.526,-2.477 1.105,0.424 1.235,0.934 0.474,1.852 -0.761,0.917 -0.634,1.426 0.459,1.846 0.887,0.34 1.92,-0.185 2.501,-1.271 0.782,-1.461 0.416,-2.439 -1.735,-4.636 -1.499,-1.531 -2.194,-2.474 -1.544,-2.095 2.135,1.245 2.517,-1.361 0.457,-3.122 -1.249,-1.068 -2.133,-3.242 -2.326,-5.722 -0.285,-3.648 -0.114,-3.972 1.938,-3.687 2.006,0.279 2.25,-0.115 2.25,-3.628 0,-2.167 -0.617,-4.452 -1.372,-5.079 -0.754,-0.626 -1.604,-3.203 -1.889,-5.726 -0.284,-2.524 -1.531,-6.004 -2.771,-7.734 -1.24,-1.73 -1.65,-2.583 -0.911,-1.896 2.262,2.106 3.081,1.39 1.38,-1.206 -0.885,-1.351 -1.31,-2.941 -0.944,-3.533 0.366,-0.592 -0.27,-2.663 -1.414,-4.601 -1.143,-1.938 -2.079,-4.572 -2.079,-5.853 0,-1.281 -0.677,-3.617 -1.503,-5.193 -0.866,-1.649 -1.437,-5.08 -1.347,-8.089 0.123,-4.108 -0.386,-6.031 -2.386,-9 -3.325,-4.938 -7.617,-15.984 -7.899,-20.335 -0.123,-1.892 0.358,-4.518 1.069,-5.837 1.097,-2.032 1.058,-2.528 -0.257,-3.264 -0.853,-0.477 -2.559,-2.886 -3.791,-5.353 -2.257,-4.518 -3.398,-5.449 -4.1,-3.343 -0.626,1.878 -4.786,-0.906 -4.786,-3.203 0,-1.175 -0.974,-2.36 -2.38,-2.894 -2.875,-1.094 -13.62,-15.499 -13.62,-18.261 0,-1.08 -2.025,-3.931 -4.5,-6.337 -2.475,-2.405 -4.5,-4.803 -4.5,-5.329 0,-0.525 -0.271,-1.661 -0.602,-2.523 -0.411,-1.072 0.222,-1.881 2,-2.557 3.086,-1.173 3.426,-2.977 0.602,-3.189 -1.1,-0.083 -2.562,-0.195 -3.25,-0.25 -0.687,-0.055 -1.25,0.575 -1.25,1.4 0,2.118 -1.699,3.08 -3.216,1.82 -1.707,-1.416 -1.619,-2.793 0.313,-4.928 1.493,-1.649 1.371,-1.807 -1.845,-2.411 -2.73,-0.512 -3.722,-1.355 -4.787,-4.071 -0.991,-2.524 -1.798,-3.28 -3.07,-2.877 -0.95,0.302 -2.016,0.08 -2.37,-0.492 -0.924,-1.496 -2.525,-1.282 -2.525,0.337 0,2.253 -2.283,3.474 -4.75,2.539 -2.276,-0.862 -3.081,-3.47 -1.26,-4.084 0.544,-0.183 -0.951,-2.476 -3.322,-5.094 -2.372,-2.619 -4.651,-4.423 -5.065,-4.009 -0.707,0.707 -2.61,-1.612 -2.263,-2.757 0.219,-0.72 -6.498,-6.588 -14.34,-12.525 -9.141,-6.921 -15,-13.164 -15,-15.982 0,-1.832 -2.486,-4.199 -11.284,-10.742 -11.957,-8.891 -14.613,-11.758 -21.989,-23.725 -5.722,-9.283 -6.893,-14.833 -3.787,-17.939 l 2.16,-2.16 -2.98,-4.051 c -1.639,-2.229 -2.738,-4.681 -2.443,-5.45 0.639,-1.665 0.274,-1.711 -3.169,-0.402 -1.812,0.689 -2.422,0.673 -1.974,-0.051 1.101,-1.783 -10.355,-10.792 -11.838,-9.309 -0.79,0.791 -10.677,-9.743 -10.688,-11.387 -0.004,-0.687 -0.664,-1.25 -1.466,-1.25 -1.742,0 -5.968,-7.012 -7.366,-12.221 -1.145,-4.265 -4.431,-9.365 -7.923,-12.294 -1.936,-1.625 -2.339,-2.786 -2.077,-5.993 0.26,-3.194 0.866,-4.236 3.074,-5.289 2.029,-0.968 2.75,-2.043 2.75,-4.102 0,-1.534 1.124,-4.097 2.499,-5.695 2.854,-3.32 2.858,-3.337 1.464,-7.004 -0.716,-1.884 -0.716,-3.049 0,-3.765 0.57,-0.57 1.037,-2.862 1.037,-5.094 0,-5.576 1.546,-10.472 4.041,-12.796 1.152,-1.073 1.853,-2.58 1.558,-3.349 -0.295,-0.769 -0.14,-1.398 0.344,-1.398 0.485,0 1.181,-1.774 1.547,-3.942 0.849,-5.026 2.741,-6.551 8.17,-6.586 4.042,-0.026 4.817,-0.505 10.841,-6.71 4.658,-4.798 7.618,-6.986 10.496,-7.761 2.248,-0.606 4.683,-2.109 5.545,-3.424 1.757,-2.682 3.119,-11.577 1.773,-11.577 -0.492,0 -0.876,-1.205 -0.854,-2.679 0.039,-2.707 2.999,-6.516 5.939,-7.644 0.88,-0.338 1.6,-1.251 1.6,-2.029 0,-1.809 3.492,-2.756 4.916,-1.332 1.872,1.872 1.271,-1.451 -0.645,-3.569 -1.641,-1.813 -1.637,-1.963 0.07,-2.918 1.729,-0.968 1.728,-1.059 -0.021,-2.368 -1.685,-1.261 -1.647,-1.318 0.515,-0.772 1.284,0.323 2.569,1.201 2.857,1.95 0.883,2.303 3.058,1.506 3.058,-1.121 0,-1.365 -0.363,-2.257 -0.806,-1.983 -0.443,0.273 -1.131,-0.029 -1.529,-0.673 -0.436,-0.705 -0.292,-0.904 0.361,-0.5 0.597,0.369 1.356,0.233 1.687,-0.302 0.331,-0.535 1.262,-0.719 2.069,-0.409 2.129,0.817 1.802,-0.652 -0.782,-3.514 l -2.25,-2.492 3.252,2.247 c 1.789,1.236 3.735,3.15 4.326,4.253 0.905,1.691 0.786,1.959 -0.752,1.706 -2.237,-0.369 -4.351,0.853 -4.254,2.458 0.124,2.041 6.805,6.952 8.547,6.284 1.301,-0.499 1.371,-0.9 0.371,-2.105 -1.007,-1.213 -0.936,-1.488 0.388,-1.488 2.287,0 3.162,0.381 2.872,1.25 -0.138,0.412 0.2,0.75 0.75,0.75 0.55,0 1,-0.418 1,-0.929 0,-1.335 -2.927,-4.071 -4.356,-4.071 -0.667,0 -2.003,-1.338 -2.969,-2.973 -1.641,-2.778 -1.648,-3.139 -0.101,-5.5 1.945,-2.968 3.448,-3.326 2.749,-0.654 -0.394,1.505 0.236,2.009 3.203,2.566 3.067,0.575 3.939,0.342 5.14,-1.373 0.847,-1.208 2.565,-2.072 4.141,-2.081 3.585,-0.021 5.654,-1.407 4.661,-3.123 -0.434,-0.749 -0.434,-1.042 -0.002,-0.652 1.002,0.904 5.998,-1.65 7.739,-3.954 0.729,-0.966 2.192,-2.238 3.251,-2.827 2.976,-1.657 3.262,-3.76 0.412,-3.043 -1.302,0.327 -1.803,0.336 -1.112,0.019 0.691,-0.317 1.002,-0.987 0.691,-1.49 -0.311,-0.503 -0.013,-0.915 0.661,-0.915 0.674,0 0.988,-0.237 0.698,-0.527 -0.825,-0.825 5.398,-6.937 8.357,-8.208 1.465,-0.629 2.958,-2.071 3.318,-3.204 0.359,-1.134 1.497,-2.061 2.527,-2.061 1.031,0 2.152,-0.45 2.492,-1 1.157,-1.871 2.5,-1.008 2.5,1.607 0,1.906 0.403,2.452 1.5,2.031 0.825,-0.316 1.5,-0.07 1.5,0.548 0,0.638 0.791,0.408 1.829,-0.531 1.006,-0.91 2.581,-1.655 3.5,-1.655 0.919,0 1.671,-0.48 1.671,-1.067 0,-0.617 -0.855,-0.796 -2.025,-0.425 -1.297,0.412 -1.926,0.223 -1.75,-0.526 0.151,-0.642 -0.625,-1.689 -1.725,-2.325 -1.1,-0.636 -3.125,-2.324 -4.5,-3.751 -3.175,-3.296 -6.597,-4.156 -9.903,-2.491 -1.428,0.72 -5.153,1.56 -8.278,1.867 -4.932,0.486 -5.856,0.295 -7.01,-1.444 -1.325,-1.995 -1.34,-1.995 -4.07,0.152 -2.555,2.011 -2.739,2.031 -2.739,0.305 0,-4.267 -6.066,-8.596005 -7.215,-5.149005 -0.224,0.672005 -1.832,-0.127 -3.888,-1.932 -1.928,-1.693 -4.719,-3.382 -6.201,-3.754 -3.101,-0.779 -3.112,-0.805 -1.446,-3.534 1.065,-1.745 0.959,-2.264 -0.721,-3.509 -1.085,-0.804 -2.612,-1.215 -3.395,-0.915 -0.783,0.3 -2.19,-0.148 -3.127,-0.996 -1.007,-0.911 -3.938,-1.637 -7.161,-1.774 -4.948,-0.21 -5.42,-0.428 -5.063,-2.333 0.216,-1.156 -0.049,-3.701 -0.588,-5.657 -0.618,-2.238 -0.631,-3.906 -0.035,-4.502 1.467,-1.467 -2.107,-8.085 -4.572,-8.465 -1.148,-0.178 -1.969,-0.893 -1.824,-1.589 0.144,-0.697 -0.194,-2.121 -0.753,-3.166 -0.604,-1.128 -0.645,-2.128 -0.101,-2.465 0.504,-0.311 1.216,-2.344 1.584,-4.518 0.588,-3.485 0.879,-3.821 2.454,-2.837 2.341,1.462 5.052,0.364 5.052,-2.046 0,-1.05 0.675,-2.469 1.5,-3.154 0.825,-0.685 1.5,-2.042 1.5,-3.015 0,-0.974 0.675,-2.03 1.5,-2.347 2.131,-0.817 1.863,-3.638 -0.345,-3.638 -1.015,0 -2.685,-0.928 -3.711,-2.062 -1.061,-1.172 -2.64,-1.858 -3.662,-1.591 -1.013,0.265 -2.339,-0.3 -3.039,-1.295 -1.867,-2.652 -5.578,-3.506 -7.565,-1.742 -3.794,3.37 -13.178,4.162 -13.178,1.112 0,-0.739 -0.985,-2.262 -2.189,-3.383 -2.682,-2.499 -12.811,-3.011 -12.811,-0.648 0,0.859 -1.432,1.563 -3.75,1.843 -2.997,0.362 -4.192,-0.018 -5.952,-1.89 -1.211,-1.289 -2.642,-2.344 -3.179,-2.344 -0.537,0 -1.713,-0.736 -2.613,-1.636 -0.96,-0.961 -3.261,-1.637 -5.571,-1.637 -3.645,0 -3.935,-0.206 -3.935,-2.807 0,-1.762 -0.823,-3.383 -2.21,-4.355 -1.216,-0.851 -2.753,-2.5609997 -3.415,-3.7989997 -0.663,-1.238 -2.023,-2.255 -3.023,-2.259 -1.001,-0.004 -2.413,-1.244 -3.14,-2.757 -1.551,-3.22700003 -1.977,-3.29700003 -4.962,-0.806 m 150,117.7620047 c -1.238,0.238 -2.25,0.777 -2.25,1.197 0,1.174 -3.394,0.935 -4.326,-0.304 -0.53,-0.706 -0.678,-0.562 -0.412,0.401 0.227,0.825 -0.301,2.048 -1.174,2.718 -2.075,1.592 0.213,1.726 3.098,0.182 1.13,-0.604 3.913,-1.307 6.185,-1.561 2.271,-0.254 4.788,-1.109 5.593,-1.9 1.28,-1.257 1.09,-1.422 -1.5,-1.303 -1.63,0.075 -3.976,0.331 -5.214,0.57 m -25.372,5.198 c 0.758,0.48 1.095,1.331 0.749,1.891 -0.381,0.616 0.161,0.812 1.372,0.495 1.119,-0.293 2.001,-0.031 2.001,0.593 0,0.615 0.563,1.101 1.25,1.081 1.457,-0.042 -4.262,-4.959 -5.75,-4.944 -0.55,0.006 -0.38,0.403 0.378,0.884 m 29.122,4.096 c 0,0.55 0.675,1 1.5,1 0.825,0 1.5,-0.45 1.5,-1 0,-0.55 -0.675,-1 -1.5,-1 -0.825,0 -1.5,0.45 -1.5,1 m -15.271,1.604 c -0.401,0.401 -0.715,1.667 -0.699,2.813 0.028,1.923 0.111,1.946 1.071,0.295 1.119,-1.922 0.833,-4.312 -0.372,-3.108 m -7.062,6.063 c -0.367,0.366 -0.667,1.321 -0.667,2.122 0,1.181 0.283,1.221 1.5,0.211 0.825,-0.685 1.5,-1.64 1.5,-2.122 0,-1.036 -1.384,-1.161 -2.333,-0.211 m 3.516,0.55 c -0.65,0.651 -1.183,1.768 -1.183,2.483 0,0.715 -0.788,1.318 -1.75,1.341 -2.137,0.049 -7.664,4.761 -8.6,7.331 -0.533,1.467 -1.326,1.743 -3.665,1.275 -1.642,-0.328 -2.985,-0.207 -2.985,0.27 0,1.333 5.219,2.347 5.955,1.156 0.354,-0.574 1.972,-1.217 3.595,-1.429 1.622,-0.212 2.388,-0.186 1.7,0.058 -0.687,0.245 -1.236,1.649 -1.218,3.121 0.031,2.619 0.066,2.634 1.62,0.677 1.963,-2.472 8.64,-16.541 8.105,-17.077 -0.215,-0.214 -0.923,0.143 -1.574,0.794 m 85.817,3.668 c 0,1.438 0.461,1.875 1.542,1.46 1.707,-0.655 1.497,-2.499 -0.354,-3.116 -0.66,-0.22 -1.188,0.517 -1.188,1.656 m -73.333,0.782 c -0.367,0.366 -0.667,1.321 -0.667,2.122 0,1.181 0.283,1.221 1.5,0.211 0.825,-0.685 1.5,-1.64 1.5,-2.122 0,-1.036 -1.384,-1.161 -2.333,-0.211 m -4.667,2.833 c 0,1.375 0.402,2.5 0.893,2.5 1.166,0 2.274,-2.921 1.551,-4.09 -1.089,-1.763 -2.444,-0.881 -2.444,1.59 m -23.5,2.5 c -1.928,0.829 -1.921,0.862 0.191,0.93 1.205,0.038 2.469,-0.38 2.809,-0.93 0.731,-1.183 -0.248,-1.183 -3,0 m 0.5,6.986 c 0,0.875 3.147,3.014 4.434,3.014 1.521,0 0.279,-1.81 -1.934,-2.818 -1.428,-0.651 -2.5,-0.735 -2.5,-0.196 m 20.427,40.493 c -1.692,1.28 -1.721,1.461 -0.236,1.489 0.93,0.018 1.988,-0.448 2.35,-1.035 1.089,-1.762 -0.059,-2.009 -2.114,-0.454 m -24.427,180.462 c 0,1.676 1.774,2.092 2.364,0.553 0.348,-0.907 -0.003,-1.494 -0.895,-1.494 -0.808,0 -1.469,0.423 -1.469,0.941 m 69,71.09 c 0,1.289 2.849,2.453 3.764,1.538 0.373,-0.373 0.016,-1.096 -0.793,-1.608 -1.936,-1.224 -2.971,-1.2 -2.971,0.07 m 36,34.969 c 0,0.55 0.675,1 1.5,1 0.825,0 1.5,-0.45 1.5,-1 0,-0.55 -0.675,-1 -1.5,-1 -0.825,0 -1.5,0.45 -1.5,1 m 8.7,92.341 c -0.283,0.737 -0.113,1.975 0.377,2.75 0.65,1.025 0.897,0.66 0.908,-1.341 0.016,-2.986 -0.474,-3.524 -1.285,-1.409 m 0.544,97.909 c 0.485,1.476 5.756,2.322 5.756,0.923 0,-1.07 -2.369,-2.173 -4.665,-2.173 -0.826,0 -1.317,0.563 -1.091,1.25 m -19.09,101.188 c 0.191,0.917 0.796,1.644 1.346,1.615 1.484,-0.079 1.212,-2.316 -0.346,-2.835 -0.841,-0.28 -1.215,0.177 -1,1.22 m -126.154,0.369 c 0,0.444 -1.122,1.231 -2.492,1.75 -1.97,0.745 -2.268,1.258 -1.424,2.443 0.804,1.129 1.194,1.191 1.575,0.25 0.279,-0.687 1.145,-1.25 1.924,-1.25 0.78,0 1.417,-0.9 1.417,-2 0,-1.1 -0.225,-2 -0.5,-2 -0.275,0 -0.5,0.363 -0.5,0.807 m -160.408,6.693 c -1.018,1.553 -2.576,2.5 -4.115,2.5 -3.149999,0 -3.451999,3.556 -0.384999,4.529 2.277999,0.723 5.850999,7.575 5.885999,11.287 0.027,2.867 1.728,6.184 3.171,6.184 0.648,0 0.887,-1.297 0.599,-3.25 -0.263,-1.788 0.136,-4.994 0.887,-7.126 2.154,-6.116 1.775,-11.89 -0.949,-14.45 -2.905,-2.729 -3.101,-2.716 -5.094,0.326 m 128.299,15.121 c 0.992,2.021 13.317,14.504 13.822,13.999 0.133,-0.132 -3.158,-3.814 -7.312,-8.18 -4.154,-4.367 -7.084,-6.985 -6.51,-5.819 m 16.063,6.824 c 0.77,0.928 2.783,2.389 4.473,3.248 3.811,1.936 3.203,1.224 -1.926,-2.257 -2.171,-1.473 -3.317,-1.919 -2.547,-0.991 m -28.732,11.259 c 3.687,3.687 6.925,6.482 7.195,6.212 0.878,-0.878 -10.527,-12.916 -12.238,-12.916 -1.046,0 0.82,2.48 5.043,6.704 m -79.222,3.296 c 0,0.55 0.675,1 1.5,1 0.825,0 1.5,-0.45 1.5,-1 0,-0.55 -0.675,-1 -1.5,-1 -0.825,0 -1.5,0.45 -1.5,1 m 91.554,8.178 c 1.62,2.023 3.583,3.71 4.363,3.75 0.779,0.04 1.224,-0.04 0.989,-0.178 -0.236,-0.138 -2.199,-1.825 -4.364,-3.75 l -3.935,-3.5 2.947,3.678 m -165.553999,30.944 c 0,1.774 0.247,1.918 1.5,0.878 0.825,-0.685 1.5,-1.64 1.5,-2.122 0,-0.483 -0.675,-0.878 -1.5,-0.878 -0.862,0 -1.5,0.902 -1.5,2.122 m 189.553999,25.415 c -2.357,2.184 -2.551,2.762 -1.396,4.156 1.235,1.489 1.368,1.486 1.665,-0.037 0.178,-0.911 0.918,-1.656 1.643,-1.656 1.249,0 2.534,-2.07 2.534,-4.082 0,-1.593 -1.614,-1.005 -4.446,1.619 m 4.446,3.463 c 0,0.55 0.423,1 0.941,1 0.518,0 1.219,-0.45 1.559,-1 0.34,-0.55 -0.084,-1 -0.941,-1 -0.857,0 -1.559,0.45 -1.559,1 m -107.457,13.931 c -0.683,1.105 0.894,2.299 1.818,1.375 0.95,-0.951 0.773,-2.306 -0.302,-2.306 -0.518,0 -1.2,0.419 -1.516,0.931"
     stroke="none"
     fill="#dc2314"
     fill-rule="evenodd"
     id="path1"
     style="fill:#555555;fill-opacity:1" />
</svg>
