<?xml version="1.0" encoding="UTF-8" standalone="no"?>
<!-- Created with Inkscape (http://www.inkscape.org/) -->

<svg
   xmlns:dc="http://purl.org/dc/elements/1.1/"
   xmlns:cc="http://creativecommons.org/ns#"
   xmlns:rdf="http://www.w3.org/1999/02/22-rdf-syntax-ns#"
   xmlns:svg="http://www.w3.org/2000/svg"
   xmlns="http://www.w3.org/2000/svg"
   xmlns:sodipodi="http://sodipodi.sourceforge.net/DTD/sodipodi-0.dtd"
   xmlns:inkscape="http://www.inkscape.org/namespaces/inkscape"
   width="169.9832"
   height="296.42453"
   viewBox="0 0 44.974721 78.428992"
   version="1.1"
   id="svg4884"
   inkscape:version="0.92.4 (5da689c313, 2019-01-14)"
   sodipodi:docname="Caspian_Sea_Largest_Lake-top.svg">
  <defs
     id="defs4878" />
  <sodipodi:namedview
     id="base"
     pagecolor="#ffffff"
     bordercolor="#666666"
     borderopacity="1.0"
     inkscape:pageopacity="0.0"
     inkscape:pageshadow="2"
     inkscape:zoom="1.4"
     inkscape:cx="135.9355"
     inkscape:cy="126.79449"
     inkscape:document-units="px"
     inkscape:current-layer="layer1"
     showgrid="false"
     units="px"
     inkscape:window-width="1366"
     inkscape:window-height="713"
     inkscape:window-x="0"
     inkscape:window-y="0"
     inkscape:window-maximized="1"
     inkscape:snap-global="false"
     fit-margin-top="0"
     fit-margin-left="0"
     fit-margin-right="0"
     fit-margin-bottom="0" />
  <metadata
     id="metadata4881">
    <rdf:RDF>
      <cc:Work
         rdf:about="">
        <dc:format>image/svg+xml</dc:format>
        <dc:type
           rdf:resource="http://purl.org/dc/dcmitype/StillImage" />
        <dc:title></dc:title>
      </cc:Work>
    </rdf:RDF>
  </metadata>
  <g
     inkscape:label="Layer 1"
     inkscape:groupmode="layer"
     id="layer1"
     transform="translate(-19.262121,-219.31578)">
    <path
       style="fill:#555555;fill-opacity:1;stroke-width:0.1250806"
       d="m 46.464237,297.62506 c -0.429245,-0.17091 -1.723741,-0.5889 -3.415937,-1.10301 -1.803028,-0.54778 -4.110279,-2.23418 -4.66785,-3.41179 -0.387327,-0.81804 -0.895312,-1.11542 -2.235361,-1.30861 -2.10046,-0.30282 -2.549779,-0.41378 -3.265308,-0.8064 -1.336944,-0.73361 -1.81573,-1.84599 -2.050836,-4.76478 -0.180234,-2.23756 -0.154939,-4.31269 0.06276,-5.14848 0.228437,-0.87703 0.242091,-1.62489 0.03127,-1.71268 -0.110896,-0.0462 -0.08576,-0.12193 0.08645,-0.26058 0.365323,-0.29412 0.552418,-0.23996 0.83696,0.2423 0.142065,0.24078 0.305834,0.43779 0.363931,0.43779 0.190721,0 0.49506,-0.54908 0.49506,-0.89317 0,-0.51351 0.118263,-0.72722 0.354324,-0.6403 0.114696,0.0422 0.247693,0.13555 0.295549,0.20737 0.04785,0.0718 0.125307,0.0923 0.172116,0.0455 0.04681,-0.0468 -0.0627,-0.36779 -0.243361,-0.71329 -0.393382,-0.75233 -0.408108,-1.03726 -0.08096,-1.56659 0.296277,-0.47939 0.62806,-1.97039 0.62806,-2.82244 0,-0.50964 0.06665,-0.68878 0.395675,-1.06352 0.509048,-0.57977 1.609413,-1.1325 2.628333,-1.32025 0.730666,-0.13463 0.856242,-0.12451 1.391189,0.11213 0.323414,0.14306 0.588026,0.20419 0.588026,0.13585 0,-0.45467 -0.931087,-1.5005 -1.54038,-1.73021 -0.193662,-0.073 -0.705987,-0.13275 -1.138498,-0.13275 -0.984726,0 -1.532902,-0.32644 -1.785371,-1.06319 -0.105224,-0.30706 -0.489192,-0.82081 -0.994035,-1.33001 -0.698462,-0.70449 -0.839358,-0.92154 -0.933753,-1.43842 -0.148554,-0.81347 -0.814473,-2.14239 -1.684904,-3.36242 -0.94987,-1.33139 -2.033415,-2.56225 -2.25558,-2.56225 -0.295302,0 -1.299973,-1.00549 -1.299973,-1.30103 0,-0.3797 -0.996863,-2.08465 -1.903679,-3.2559 -0.752153,-0.97148 -1.081778,-1.6198 -1.092765,-2.14928 -0.0098,-0.47175 -0.475926,-0.92371 -0.952673,-0.92371 -0.50726,0 -0.515685,-0.0542 -0.242986,-1.5635 0.09944,-0.55036 0.18276,-1.36876 0.18516,-1.81866 0.0071,-1.33833 0.629256,-3.32815 1.267992,-4.05563 0.43582,-0.49637 0.451058,-0.59741 0.08216,-0.54479 -0.158234,0.0226 -0.351906,0.18992 -0.44481,0.38436 -0.202946,0.42475 -0.850686,0.79116 -1.072782,0.60684 -0.08461,-0.0702 -0.287146,-0.3974 -0.450085,-0.72708 -0.548984,-1.11075 -1.271935,-2.15768 -1.600105,-2.31717 -0.184916,-0.0899 -0.367295,-0.31436 -0.421439,-0.51876 -0.116188,-0.4386 -0.561811,-0.93737 -0.982452,-1.09961 l -0.311248,-0.12005 0.295384,-0.22281 c 0.285193,-0.21513 0.288073,-0.23397 0.08347,-0.54624 -0.33017,-0.5039 -0.0875,-0.84052 0.605943,-0.84052 0.505204,0 0.53727,-0.0201 0.483163,-0.30316 -0.04904,-0.25654 -0.0037,-0.30944 0.295074,-0.34398 0.323923,-0.0374 0.374901,-0.11814 0.61836,-0.97891 0.145933,-0.51596 0.499388,-1.47966 0.785456,-2.14156 0.286068,-0.66191 0.520124,-1.29052 0.520124,-1.39693 0,-0.32313 0.142571,-0.58917 0.315738,-0.58917 0.09014,0 0.262362,-0.26736 0.382712,-0.59413 0.300471,-0.81583 0.641549,-1.185 0.944857,-1.02268 0.128096,0.0686 0.232901,0.20086 0.232901,0.29401 0,0.0931 0.1107,0.30224 0.246,0.46465 0.286588,0.34401 0.323931,0.17572 0.122201,-0.55069 -0.15083,-0.54312 -0.06085,-0.80451 0.201876,-0.58646 0.09491,0.0788 0.244686,0.48958 0.332836,0.91291 l 0.160272,0.76969 0.06254,-0.99944 c 0.05148,-0.82269 0.101249,-1.0068 0.281431,-1.04108 0.173782,-0.0331 0.218891,0.0462 0.218891,0.38445 0,0.59033 0.125547,0.6583 0.395626,0.21419 0.226011,-0.37164 0.243491,-0.37684 1.074057,-0.31946 0.464369,0.0321 1.036928,0.11672 1.272354,0.18807 0.666525,0.20201 0.794174,0.0156 0.738898,-1.07901 -0.04286,-0.84879 0.02138,-1.09091 0.208942,-0.78744 0.135784,0.21971 0.437782,0.13409 0.437782,-0.12411 0,-0.13706 0.167026,-0.39802 0.371167,-0.57991 0.204142,-0.18189 0.433652,-0.52004 0.510022,-0.75145 0.07637,-0.2314 0.180247,-0.42074 0.230835,-0.42074 0.05059,0 0.253756,0.16886 0.451484,0.37525 0.435992,0.45507 0.562862,0.47083 0.562862,0.0699 0,-0.16793 0.05629,-0.34011 0.125081,-0.38262 0.181214,-0.112 0.153495,-0.70104 -0.06169,-1.31094 -0.31664,-0.89746 0.04374,-1.03443 0.670297,-0.25476 0.220172,0.27398 0.518399,0.56133 0.662728,0.63858 0.249512,0.13353 0.258256,0.11826 0.177817,-0.31052 -0.100867,-0.53767 -0.05203,-0.54596 0.821149,-0.13947 0.98146,0.45689 1.019571,0.4403 0.931163,-0.40529 -0.04983,-0.47656 -0.02232,-0.80963 0.08153,-0.9872 0.325958,-0.55737 1.757958,-2.20442 2.076253,-2.38806 0.182558,-0.10532 0.486175,-0.40917 0.674706,-0.67521 0.257011,-0.36267 0.429492,-0.48371 0.68931,-0.48371 0.216718,0 0.533437,-0.16309 0.845483,-0.43538 0.274425,-0.23946 0.569313,-0.43646 0.655306,-0.43778 0.08599,-0.001 0.259312,-0.10536 0.385153,-0.2312 0.136695,-0.1367 0.667836,-0.316 1.319401,-0.44539 1.848898,-0.36719 2.891358,0.0103 3.200648,1.15888 0.109464,0.40651 0.208955,0.5289 0.477746,0.58768 0.186719,0.0408 0.413527,0.0973 0.504018,0.12556 0.116898,0.0365 0.140032,-0.0259 0.07991,-0.21531 -0.07646,-0.24091 -0.05012,-0.25838 0.273253,-0.18124 0.196829,0.047 0.561906,0.1303 0.811281,0.18521 0.249376,0.0549 0.631306,0.2265 0.848735,0.38132 0.499329,0.35555 0.711576,0.2723 1.01104,-0.39658 0.21735,-0.48546 0.221602,-0.55973 0.04728,-0.82578 -0.231498,-0.35331 -0.157729,-0.46405 0.186429,-0.27986 0.139882,0.0749 0.777923,0.17168 1.41787,0.21517 0.639944,0.0435 1.31162,0.15362 1.492609,0.24476 0.430039,0.21656 0.96341,0.85725 1.064599,1.2788 0.04414,0.18388 0.190698,0.55465 0.325688,0.82392 0.134988,0.26928 0.347233,0.99705 0.471656,1.61728 0.175447,0.87457 0.291839,1.1776 0.51857,1.35009 0.215614,0.16404 0.259519,0.26843 0.167268,0.39774 -0.06879,0.0964 -0.222943,0.31309 -0.342554,0.48146 -0.11961,0.16837 -0.296728,0.76011 -0.393595,1.31498 -0.185656,1.06346 -0.39144,1.59326 -0.574829,1.47992 -0.06059,-0.0375 -0.143808,-0.0137 -0.184931,0.0529 -0.09052,0.14646 1.475986,1.83304 1.926086,2.07372 0.176169,0.0942 0.485194,0.31644 0.686724,0.49387 0.52738,0.4643 0.714051,0.21122 0.286957,-0.38904 -0.38436,-0.54021 -0.346743,-0.66794 0.198302,-0.67338 0.219521,-0.002 0.508389,-0.0866 0.641927,-0.18762 0.133539,-0.101 0.336167,-0.18364 0.450285,-0.18364 0.114119,0 0.446766,-0.17333 0.739215,-0.38518 0.474347,-0.34362 0.569525,-0.36953 0.881977,-0.24011 0.458099,0.18976 0.817732,0.58209 1.055751,1.15175 0.105825,0.25327 0.418086,0.64186 0.693913,0.86352 0.275826,0.22166 0.501503,0.47323 0.501503,0.55905 0,0.0858 0.26736,0.35332 0.594133,0.59445 0.326773,0.24114 0.779573,0.63113 1.006223,0.86666 l 0.412091,0.42824 -0.841548,0.78723 c -0.46285,0.43297 -1.088274,0.89636 -1.38983,1.02975 -0.532793,0.23568 -0.56593,0.23619 -1.172841,0.018 l -0.624556,-0.22459 -0.600927,0.3378 c -0.33051,0.18579 -0.896546,0.4012 -1.257858,0.47868 -0.790671,0.16957 -1.569336,0.8109 -1.698488,1.39893 -0.04778,0.21755 -0.3345,0.9149 -0.637154,1.54966 -0.479816,1.00634 -0.605909,1.17424 -0.98472,1.31122 -0.28142,0.10176 -0.434441,0.23811 -0.434441,0.38711 0,0.29601 -0.422645,1.1256 -0.683927,1.34245 -0.174278,0.14463 -0.26174,0.10954 -0.639533,-0.25664 -0.541147,-0.5245 -0.631147,-0.85166 -0.372095,-1.35261 0.205579,-0.39754 0.234654,-0.41193 0.882531,-0.43683 0.358633,-0.0138 0.423198,-0.11216 1.458691,-2.22253 1.030771,-2.10074 1.117433,-2.23321 1.782399,-2.72444 0.756087,-0.55856 0.832623,-0.75003 0.45197,-1.13068 -0.343532,-0.34353 -0.85199,-0.44522 -1.307317,-0.26145 -0.718226,0.28986 -1.25805,0.37738 -2.34633,0.38037 -1.240085,0.003 -1.62214,-0.1074 -2.08731,-0.60537 -0.299886,-0.32103 -0.428646,-0.35937 -1.413025,-0.42078 -0.638725,-0.0399 -1.254251,-0.15378 -1.500308,-0.2777 -0.948199,-0.47752 -2.260609,-0.36378 -3.614273,0.31321 -0.859856,0.43004 -0.997502,0.59232 -1.135622,1.33889 -0.08709,0.47074 -0.212517,0.67869 -0.609012,1.00972 -0.283755,0.2369 -0.499333,0.52734 -0.499333,0.67272 0,0.25579 0.574736,1.35588 1.049079,2.00803 0.151517,0.20831 0.45307,0.39948 0.758238,0.48069 0.493384,0.13129 0.944456,0.42806 0.944456,0.62138 0,0.0527 -0.408076,0.1216 -0.906835,0.15311 -0.498759,0.0315 -1.04755,0.096 -1.219535,0.14326 -0.244793,0.0673 -0.486835,-0.0311 -1.114536,-0.45288 l -0.801833,-0.53885 -1.429093,-10e-4 c -1.35152,-0.001 -1.442088,0.015 -1.668508,0.29424 -0.134596,0.16601 -0.239415,0.48812 -0.239415,0.73572 0,0.58534 0.62549,1.18574 1.45785,1.39937 1.432486,0.36766 1.920997,0.7483 2.090306,1.62873 0.04567,0.23747 0.201256,0.55762 0.345753,0.71143 0.153931,0.16385 0.289103,0.5137 0.326429,0.84485 0.04942,0.43847 0.190619,0.71364 0.629768,1.22732 0.812992,0.95097 0.903601,1.24357 0.903601,2.91799 0,1.32201 0.01944,1.44537 0.218891,1.38891 0.12039,-0.0341 0.569434,-0.0995 0.997877,-0.14547 0.768517,-0.0824 0.781078,-0.0787 0.934656,0.27243 0.236846,0.54154 0.860928,1.57251 1.142976,1.88817 0.269435,0.30154 0.700111,0.36149 1.091643,0.15195 0.208816,-0.11175 0.242173,-0.27016 0.243646,-1.157 0.0022,-1.32875 0.07906,-1.61448 0.421109,-1.56567 0.24533,0.035 0.271385,0.1389 0.348938,1.39127 0.0461,0.74439 0.114688,1.4339 0.152426,1.53224 0.04518,0.11774 0.257617,0.1788 0.62202,0.1788 0.564661,0 0.70525,-0.12284 0.70525,-0.61625 0,-0.33055 0.468956,-0.71595 0.650402,-0.53451 0.313839,0.31384 0.450405,2.71484 0.222707,3.91548 -0.09605,0.50645 -0.217227,0.74269 -0.490808,0.9568 -0.431803,0.33793 -0.790459,1.31226 -0.734204,1.99453 0.03764,0.45651 0.05906,0.47706 0.537938,0.51603 0.682068,0.0555 0.81461,0.2033 0.81461,0.90832 0,0.5545 -0.03773,0.63122 -0.447298,0.90953 -0.262256,0.1782 -0.391618,0.33836 -0.312702,0.38713 0.07403,0.0457 0.136832,0.31908 0.139564,0.6074 0.0042,0.44123 0.09109,0.61776 0.549087,1.11523 0.509362,0.55326 0.548889,0.57324 0.618729,0.3127 0.04103,-0.15308 0.07538,-0.54176 0.07632,-0.86375 0.0015,-0.51251 -0.03335,-0.59042 -0.279723,-0.62541 -0.236119,-0.0335 -0.283127,-0.12052 -0.291956,-0.54029 -0.0058,-0.27517 0.02529,-0.52846 0.06906,-0.56286 0.18446,-0.14496 0.505441,-1.00737 0.519127,-1.39479 0.0081,-0.23038 0.05239,-0.58774 0.09835,-0.79412 l 0.08355,-0.37524 0.14531,0.40651 c 0.173793,0.48619 0.223315,0.49288 0.791479,0.1068 0.637398,-0.43312 1.25203,-0.57708 2.825534,-0.6618 1.380238,-0.0743 1.398267,-0.0717 1.719858,0.2499 0.243873,0.24387 0.324998,0.45255 0.324998,0.83599 0,0.28104 0.112414,0.73134 0.249808,1.00065 0.137394,0.26932 0.306732,0.9003 0.376304,1.40218 0.09969,0.7191 0.185462,0.95227 0.404695,1.10013 0.673689,0.45435 2.465182,2.01892 3.065582,2.67727 0.865225,0.94875 0.888195,1.35371 0.125081,2.20527 -0.292376,0.32627 -0.61664,0.71713 -0.720586,0.8686 -0.230487,0.33585 -1.072531,0.52156 -1.901669,0.41941 -0.433937,-0.0535 -0.826026,0.005 -1.484442,0.22068 l -0.894749,0.29333 -0.297334,-0.37161 c -0.163533,-0.2044 -0.298475,-0.51234 -0.299871,-0.68432 -0.0048,-0.58738 -0.188964,-0.68561 -0.490799,-0.26172 l -0.275425,0.38675 h -1.404892 c -1.486072,0 -1.794149,-0.10019 -1.573837,-0.51185 0.138049,-0.25795 -0.05848,-1.34995 -0.343306,-1.90757 -0.223163,-0.43691 -0.343065,-0.36769 -0.166686,0.0962 0.184982,0.48653 0.150223,1.70696 -0.05904,2.07303 -0.09832,0.17199 -0.180751,0.42744 -0.183188,0.56769 -0.0024,0.14024 -0.128948,0.47796 -0.281133,0.75048 -0.236922,0.42427 -0.276462,0.68431 -0.275044,1.80885 0.0018,1.40599 0.167916,2.13366 0.593765,2.60054 0.258539,0.28345 0.262393,0.28379 0.355806,0.0313 0.0777,-0.21005 0.204514,-0.25528 0.715726,-0.25528 0.341709,0 0.769913,0.0565 0.951563,0.12557 0.250332,0.0952 0.395276,0.08 0.598836,-0.0625 0.571124,-0.40004 2.080723,-0.11313 2.581846,0.49069 0.184088,0.22181 0.168653,0.2266 -0.640803,0.19904 -1.112737,-0.0379 -1.465249,0.47719 -1.150769,1.68146 0.10064,0.38539 0.150434,0.75337 0.110656,0.81774 -0.03978,0.0644 -0.233963,0.0847 -0.431519,0.0452 -0.493433,-0.0987 -1.196141,0.15591 -1.434529,0.51973 -0.246788,0.37665 -0.24904,0.57202 -0.01016,0.88101 0.176719,0.22858 0.195396,0.22998 0.318917,0.0239 0.234811,-0.39174 1.017407,-0.28608 1.641286,0.22161 0.297724,0.24227 0.696104,0.5079 0.885288,0.59028 0.287581,0.12523 0.343972,0.22679 0.343972,0.61948 0,0.40355 0.05724,0.49918 0.406511,0.67914 0.223582,0.11521 0.480062,0.31365 0.569955,0.441 0.08989,0.12734 0.246448,0.23153 0.347898,0.23153 0.34123,0 0.322408,0.34864 -0.06668,1.23514 -0.330654,0.75337 -0.406932,1.13204 -0.524974,2.60619 -0.157682,1.96918 -0.06476,5.17601 0.187711,6.47782 0.09339,0.48156 0.324977,1.62136 0.514633,2.5329 0.321709,1.5462 0.331349,1.6779 0.143779,1.96417 -0.123758,0.18888 -0.374003,0.33929 -0.650919,0.39124 -0.499162,0.0936 -2.141628,0.006 -2.268655,-0.12095 -0.145093,-0.14509 0.158782,-0.33015 0.724309,-0.44109 0.318455,-0.0625 0.420976,-0.11296 0.241192,-0.11877 -0.41559,-0.0134 -2.303085,0.41523 -5.878788,1.33512 -3.299232,0.84876 -4.220665,0.98546 -4.878143,0.72367 z"
       id="path833"
       inkscape:connector-curvature="0" />
  </g>
</svg>
