<?xml version="1.0" encoding="UTF-8" standalone="no"?>
<!-- Created with Inkscape (http://www.inkscape.org/) -->

<svg
   xmlns:dc="http://purl.org/dc/elements/1.1/"
   xmlns:cc="http://creativecommons.org/ns#"
   xmlns:rdf="http://www.w3.org/1999/02/22-rdf-syntax-ns#"
   xmlns:svg="http://www.w3.org/2000/svg"
   xmlns="http://www.w3.org/2000/svg"
   xmlns:sodipodi="http://sodipodi.sourceforge.net/DTD/sodipodi-0.dtd"
   xmlns:inkscape="http://www.inkscape.org/namespaces/inkscape"
   width="2159.7498mm"
   height="168.40358mm"
   viewBox="0 0 2159.7498 168.40358"
   version="1.1"
   id="svg8"
   inkscape:version="0.92.4 (5da689c313, 2019-01-14)"
   sodipodi:docname="Grand_Canyon_Arizona-front.svg">
  <defs
     id="defs2" />
  <sodipodi:namedview
     id="base"
     pagecolor="#ffffff"
     bordercolor="#666666"
     borderopacity="1.0"
     inkscape:pageopacity="0.0"
     inkscape:pageshadow="2"
     inkscape:zoom="0.0875"
     inkscape:cx="4243.3511"
     inkscape:cy="82.342545"
     inkscape:document-units="mm"
     inkscape:current-layer="layer1"
     showgrid="false"
     borderlayer="true"
     inkscape:showpageshadow="false"
     inkscape:pagecheckerboard="true"
     fit-margin-top="0"
     fit-margin-left="0"
     fit-margin-right="0"
     fit-margin-bottom="0"
     inkscape:window-width="1366"
     inkscape:window-height="713"
     inkscape:window-x="0"
     inkscape:window-y="0"
     inkscape:window-maximized="1" />
  <metadata
     id="metadata5">
    <rdf:RDF>
      <cc:Work
         rdf:about="">
        <dc:format>image/svg+xml</dc:format>
        <dc:type
           rdf:resource="http://purl.org/dc/dcmitype/StillImage" />
        <dc:title></dc:title>
      </cc:Work>
    </rdf:RDF>
  </metadata>
  <g
     inkscape:label="Layer 1"
     inkscape:groupmode="layer"
     id="layer1"
     transform="translate(972.69975,-64.742779)">
    <path
       style="fill:#555555;fill-opacity:1;stroke:none;stroke-width:0.92650282px;stroke-linecap:butt;stroke-linejoin:miter;stroke-opacity:1"
       d="m -958.77002,74.248213 c 2.59531,2.142603 7.18231,2.323717 11.71956,8.848386 1.36345,1.960681 1.45108,7.227619 7.19065,6.986996 12.49512,-0.52384 9.26,5.863767 14.68113,7.266066 3.53235,0.913722 36.05043,3.073599 42.60506,4.142679 6.55462,1.06908 24.57984,5.47903 40.96644,6.94901 16.38656,1.46998 85.21013,4.67722 111.42863,6.94901 26.21851,2.2718 54.80268,3.74178 66.27326,5.87993 11.47062,2.13816 32.25909,3.60814 50.28432,3.8754 18.02523,0.26727 50.75068,2.30203 57.35297,3.20724 20.60734,2.82537 5.93458,4.33956 14.25459,9.62008 2.09979,1.33269 -1.03265,9.48097 4.84916,12.0936 5.88751,2.61515 -8.74198,11.56683 -4.28443,14.56782 3.02662,2.03764 4.68354,11.26617 9.23641,14.00085 7.02575,4.22004 11.8763,4.40793 13.03337,4.79416 4.90486,1.63724 11.85773,4.52459 11.85773,6.12821 0,1.60362 -3.27732,2.93996 11.47056,5.07812 14.74787,2.13816 21.30252,0.26725 32.77319,4.14268 11.47057,3.87539 62.63989,3.48764 71.60069,9.48807 1.68892,1.13096 5.41613,4.40994 20.16401,8.81989 14.74787,4.40995 37.68911,7.61717 73.73962,10.95805 36.05039,3.34086 121.26057,5.34539 144.20169,5.07812 22.94123,-0.26727 36.05051,-2.67269 57.353025,-2.80633 21.302514,-0.13363 29.495874,-2.6727 58.991626,-2.80633 29.4958745,-0.13364 80.294167,-1.73725 90.126124,-3.20723 9.831959,-1.46999 62.269065,-2.93996 80.294265,-3.74177 18.02519,-0.8018 36.0504,-1.2027 40.96643,-3.74178 4.91593,-2.53904 32.77307,-2.13816 26.21843,-4.27631 -6.55464,-2.13816 -22.94111,-4.81085 34.41179,-5.07812 57.35303,-0.26727 145.84053,0.40091 180.25233,-0.26727 34.41179,-0.66817 42.60502,1.46998 85.21005,-1.73725 42.60516,-3.20724 83.57159,-3.34088 106.5127,-7.88445 22.94124,-4.5436 50.79839,-8.01807 68.82371,-11.75986 18.02519,-3.74176 32.77307,-10.42351 50.79826,-13.36348 18.0252,-2.93997 44.24375,-8.28536 54.07571,-12.16076 9.83196,-3.87541 21.30257,-11.62625 19.66392,-14.69983 -1.63867,-3.07362 0,-9.48806 8.19324,-10.0226 8.19323,-0.53453 1.88307,-2.95895 10.07631,-4.69621 8.19323,-1.73725 23.92584,-1.61864 40.72208,-1.71826 50.79895,-0.30129 62.26894,-4.67722 77.01682,-6.01357 14.74787,-1.33635 32.77319,-6.68174 57.35302,-7.88445 24.57987,-1.20271 42.60507,-1.73725 50.79837,-6.94901 8.1933,-5.21175 11.4644,-6.18891 27.8572,-6.68174 9.2014,-0.27663 12.0882,-1.20607 14.25,-2.630769 6.6612,-4.389996 20.6958,-3.366096 21.8004,-4.050965 4.7793,-2.963374 6.4151,-6.229152 12.0376,-6.118708 4.4478,0.08737 10.9036,-4.171168 14.1809,-5.774787 3.2773,-1.603615 16.2193,-4.024106 16.3865,-4.944485 0.8163,-4.493487 9.8612,-4.337809 21.3026,-5.078122 11.7582,-0.760809 12.7761,-6.183458 14.7479,-8.285355 H -972.69975 c 9.02255,9.377514 8.09697,4.690093 13.92973,9.505434 z"
       id="path826"
       inkscape:connector-curvature="0"
       sodipodi:nodetypes="sssssssssssssssssssssssssssssssssssssssssssssssssccs" />
  </g>
</svg>
