<?xml version="1.0" encoding="UTF-8" standalone="no"?>
<!-- Created with Inkscape (http://www.inkscape.org/) -->

<svg
   width="401.22058mm"
   height="35.533421mm"
   viewBox="0 0 401.22057 35.53342"
   version="1.1"
   id="svg1"
   xml:space="preserve"
   inkscape:version="1.3 (0e150ed, 2023-07-21)"
   sodipodi:docname="Mariana_Trench-front.svg"
   xmlns:inkscape="http://www.inkscape.org/namespaces/inkscape"
   xmlns:sodipodi="http://sodipodi.sourceforge.net/DTD/sodipodi-0.dtd"
   xmlns="http://www.w3.org/2000/svg"
   xmlns:svg="http://www.w3.org/2000/svg"><sodipodi:namedview
     id="namedview1"
     pagecolor="#505050"
     bordercolor="#ffffff"
     borderopacity="1"
     inkscape:showpageshadow="0"
     inkscape:pageopacity="0"
     inkscape:pagecheckerboard="1"
     inkscape:deskcolor="#505050"
     inkscape:document-units="mm"
     inkscape:zoom="0.32504294"
     inkscape:cx="819.89167"
     inkscape:cy="-110.7546"
     inkscape:current-layer="layer1"
     showguides="true" /><defs
     id="defs1" /><g
     inkscape:label="Layer 1"
     inkscape:groupmode="layer"
     id="layer1"
     transform="translate(70.398594,-160.91793)"><path
       style="fill:#555555;stroke-width:4.99999;stroke-linecap:round;stroke-linejoin:round"
       d="m 330.82199,178.32391 c -3.07216,-0.14554 -7.08703,0.96841 -8.4945,1.06889 -1.40751,0.10048 -5.88561,-0.33997 -8.5117,0.18016 -2.62612,0.52014 -4.79292,0.0977 -7.97924,-0.0113 -3.18632,-0.10907 -6.53191,2.07373 -12.4401,2.43281 -5.90819,0.35907 -9.48957,-0.5953 -16.97618,0.14831 -7.48661,0.74361 -11.19522,0.001 -15.12572,0.38648 -3.9305,0.38516 -5.02389,0.0774 -8.69176,1.03281 -3.66788,0.95536 -7.87647,-0.29669 -12.01709,-0.29669 -4.14062,0 -6.24973,0.73073 -9.10699,0.79965 -2.85726,0.0689 -4.84674,-0.36316 -8.00377,0.27863 -3.15702,0.64177 -3.22598,0.2523 -6.14095,0.27696 -2.91497,0.0247 -4.90986,2.14199 -8.81726,2.78213 -3.9074,0.64014 -9.39359,2.0979 -12.1887,1.99615 -2.79512,-0.10174 -6.54625,-0.53703 -8.05273,-0.012 -1.50648,0.52507 -3.58539,1.5487 -9.24754,1.62365 -5.66215,0.075 -6.24595,0.88831 -9.84316,1.0906 -3.59722,0.20228 -3.38976,-0.12093 -9.6112,0.38514 -6.22145,0.50606 -11.28853,0.33217 -14.43866,0.94575 -3.15013,0.61358 -6.99356,1.80085 -10.59384,2.30959 -3.60027,0.50875 -6.99215,0.9437 -9.65713,0.56826 -2.66498,-0.37544 -8.13033,-0.14945 -10.86741,-0.35294 -2.73707,-0.2035 -5.9946,-1.14851 -12.42829,-1.5792 -6.433683,-0.43069 -10.09028,-0.81519 -12.302607,-1.10226 -2.212327,-0.28707 -7.005262,0.29819 -9.928355,-0.21056 -2.923092,-0.50874 -7.0466,-1.05743 -9.546437,-1.7084 -2.499837,-0.65097 -5.053011,-1.35731 -8.778222,-1.46032 -3.725211,-0.10302 -4.566919,-1.44696 -8.856496,-1.98917 -4.289577,-0.5422 -7.180131,-1.93836 -9.024277,-1.91751 -1.844145,0.0208 -5.291858,0.046 -6.681575,-0.65806 -1.389717,-0.70401 -3.307497,-2.44104 -6.928611,-3.37951 -3.621115,-0.93846 -6.939713,-0.85882 -12.268585,-1.17219 -5.328872,-0.31337 -12.1951271,-0.98283 -16.46198309,-2.03408 -4.26685601,-1.05126 -6.94667241,-0.48797 -8.80765631,-1.06104 -1.8609812,-0.57308 -3.2658286,-1.7217 -7.6475776,-2.03692 -4.381751,-0.31521 -6.348843,-0.49058 -7.481257,-1.16144 -1.132412,-0.67086 -5.171581,-0.62345 -5.78897,-0.91674 -0.617389,-0.29329 -0.480216,-0.95003 -3.835953,-0.12499 -3.355737,0.82505 -8.343553,2.3368 -10.229437,2.3368 -1.885881,0 -4.276638,1.3024 -5.265743,1.3024 -0.989107,0 -5.68352,0.31278 -6.899793,-0.79307 -1.216271,-1.10586 -2.172983,-0.44257 -4.976934,-1.574 -2.803949,-1.13143 -4.145627,-2.10992 -5.938113,-2.95789 -1.792483,-0.84797 -2.52059,-1.86973 -4.338082,-1.86973 v -8.97114 H 330.82199 Z"
       id="path1"
       sodipodi:nodetypes="csscssccssscssccssssssssssssccssssssssssssscccc" /></g></svg>
