<?xml version="1.0" encoding="UTF-8" standalone="no"?>
<!-- Created with Inkscape (http://www.inkscape.org/) -->

<svg
   xmlns:dc="http://purl.org/dc/elements/1.1/"
   xmlns:cc="http://creativecommons.org/ns#"
   xmlns:rdf="http://www.w3.org/1999/02/22-rdf-syntax-ns#"
   xmlns:svg="http://www.w3.org/2000/svg"
   xmlns="http://www.w3.org/2000/svg"
   xmlns:sodipodi="http://sodipodi.sourceforge.net/DTD/sodipodi-0.dtd"
   xmlns:inkscape="http://www.inkscape.org/namespaces/inkscape"
   width="138.94958mm"
   height="36.086277mm"
   viewBox="0 0 138.94958 36.086277"
   version="1.1"
   id="svg8"
   inkscape:version="0.92.4 (5da689c313, 2019-01-14)"
   sodipodi:docname="Valles_Marineris_Mars-top.svg">
  <defs
     id="defs2" />
  <sodipodi:namedview
     id="base"
     pagecolor="#ffffff"
     bordercolor="#666666"
     borderopacity="1.0"
     inkscape:pageopacity="0.0"
     inkscape:pageshadow="2"
     inkscape:zoom="0.98994949"
     inkscape:cx="208.21771"
     inkscape:cy="62.524539"
     inkscape:document-units="mm"
     inkscape:current-layer="layer1"
     showgrid="false"
     inkscape:snap-global="false"
     fit-margin-top="0"
     fit-margin-left="0"
     fit-margin-right="0"
     fit-margin-bottom="0"
     inkscape:window-width="1366"
     inkscape:window-height="713"
     inkscape:window-x="0"
     inkscape:window-y="0"
     inkscape:window-maximized="1" />
  <metadata
     id="metadata5">
    <rdf:RDF>
      <cc:Work
         rdf:about="">
        <dc:format>image/svg+xml</dc:format>
        <dc:type
           rdf:resource="http://purl.org/dc/dcmitype/StillImage" />
        <dc:title></dc:title>
      </cc:Work>
    </rdf:RDF>
  </metadata>
  <g
     inkscape:label="Layer 1"
     inkscape:groupmode="layer"
     id="layer1"
     transform="translate(29.308806,-142.63848)">
    <path
       style="fill:#555555;fill-opacity:1;stroke-width:1.00000012"
       d="m 200.98047,539.11719 c -0.40917,0.0353 -0.7373,0.15721 -0.95703,0.37695 -1.39828,1.39843 -9.16404,1.6016 -11.61328,0.30469 -0.92637,-0.49021 -4.92215,-0.65639 -8.88086,-0.36914 -6.94579,0.50419 -7.23617,0.63058 -8.26368,3.57812 -1.56011,4.47534 -3.96455,6.6836 -7.27734,6.6836 -3.72023,0 -3.21662,2.3696 0.59961,2.82031 1.4894,0.1759 3.25106,1.18841 3.91406,2.25 0.70746,1.13284 2.32138,1.92969 3.90625,1.92969 2.51244,0 4.61361,1.53681 3.55274,2.59765 -0.2555,0.2555 -2.72894,0.73249 -5.49805,1.06055 -3.77333,0.44689 -5.61619,0.18837 -7.35742,-1.03125 -1.43354,-1.00407 -4.34535,-1.62695 -7.60156,-1.62695 h -5.27735 c -1.77347,0 -1.6607,0.43196 -2.5,0.5 l -4,0.32421 c -4.43903,0.35936 -7.5,2.52782 -7.5,5.3125 0,1.67691 -3.15931,3.27009 -5.56445,2.80665 -2.17452,-0.419 -3.43555,0.15239 -3.43555,1.55664 0,1.06858 1.08624,1.5 3.77735,1.5 4.76326,0 8.44213,2.45083 8.02929,5.34765 -0.28442,1.99401 -0.84398,2.14211 -7.62695,2.01172 -7.00296,-0.13447 -16.17969,-2.59223 -16.17969,-4.33398 0,-0.44569 0.675,-1.07 1.5,-1.38672 2.05554,-0.78879 1.89196,-4.36594 -0.25,-5.4668 -3.50986,-1.80385 -10.33713,-2.03218 -14.07422,-0.4707 -2.744598,1.14686 -5.466762,1.36774 -10.83984,0.88086 -4.210862,-0.3817 -7.418941,-0.25896 -7.763672,0.29883 -0.323051,0.52255 -4.296478,0.84164 -8.830078,0.70898 -6.98389,-0.20462 -9.145875,-0.71171 -14.154297,-3.32227 -6.233639,-3.24918 -7.088371,-3.22033 -12.439453,0.40821 -1.842818,1.24962 -4.822303,2.54725 -6.621094,2.88476 -3.326649,0.62408 -13.683121,0.0885 -21.15039,-1.09375 -3.42892,-0.54289 -4.837484,-0.20158 -8.365235,2.02539 -2.3328489,1.47266 -5.8772918,3.25999 -7.8769529,3.97266 -1.999661,0.71267 -5.8387816,2.47522 -8.5332031,3.91602 -2.6944214,1.44079 -5.6756734,2.61914 -6.625,2.61914 -1.126711,0 -1.940876,1.06569 -2.341797,3.07031 -0.49635,2.48164 -1.047988,3.00927 -2.875,2.75 -1.441788,-0.20466 -2.29632,-1.04484 -2.361328,-2.32031 -0.205311,-4.02811 -0.431576,-4.4995 -2.148438,-4.48438 -0.962498,0.008 -2.395905,0.42418 -3.185546,0.92383 -1.18294,0.74853 -1.209078,1.18371 -0.142578,2.46875 1.10372,1.3299 0.901016,1.70786 -1.382813,2.57617 -2.375794,0.86555 -5.380157,0.85834 -7.539063,-0.83984 l -2.679687,-2.10742 c -2.401282,-1.88886 -2.838155,-1.94894 -4.205078,-0.58204 -1.366919,1.36695 -1.321995,1.6793 0.429687,3.00391 1.074977,0.8129 2.716445,1.49087 3.646485,1.50977 1.748451,0.0329 3.39138,1.78242 2.505859,2.66796 -0.276529,0.27652 -2.386942,-0.0621 -4.689453,-0.75195 -3.242378,-0.9713 -4.614421,-0.98806 -6.083984,-0.0703 -1.043581,0.65174 -2.832942,1.18555 -3.976563,1.18555 -2.949445,0 -5.947266,1.80457 -5.947266,3.58007 0,1.17064 0.750297,1.37059 3.339844,0.88477 3.721259,-0.69812 12.018534,1.14681 11.189453,2.48828 -0.29215,0.47282 -1.428119,0.62438 -2.523437,0.33789 -3.525891,-0.92205 -10.619295,0.71736 -14.78125,3.41602 -3.396601,2.2024 -4.132594,3.28454 -4.5625,6.70898 -1.335693,10.63967 -1.957519,12.06124 -5.419922,12.39649 -2.588281,0.2505 -4.22631,-0.52365 -8.203125,-3.87696 -4.929226,-4.15619 -5.036227,-4.19142 -13.253906,-4.28515 -9.629072,-0.10976 -15.260459,0.77667 -18.519529,2.91211 -1.27695,0.83675 -2.76046,1.25025 -3.29492,0.91992 -0.53447,-0.33033 -0.97071,-0.0868 -0.97071,0.54101 0,0.78006 2.33371,1.04331 7.37305,0.83204 4.958951,-0.20799 7.884001,0.11456 8.929687,0.98242 1.276959,1.0597 2.377907,1.01069 6.160156,-0.27344 2.533157,-0.86003 5.091644,-1.56445 5.683594,-1.56445 0.931241,0 8.712107,5.98464 12.677734,9.75 0.728954,0.69214 3.203956,1.20361 5.5,1.13671 2.296044,-0.0669 5.065072,0.0439 6.152344,0.2461 1.693935,0.31483 2.06839,-0.35433 2.615234,-4.67188 0.767524,-6.05986 3.213412,-11.17623 6.777344,-14.17578 3.042021,-2.56025 4.092767,-2.71573 7.583985,-1.125 3.161612,1.44053 3.354475,3.08043 0.271484,2.30664 -1.47385,-0.3699 -3.498796,0.2552 -5.75,1.77344 -3.059679,2.06351 -3.47461,2.85517 -3.47461,6.62109 10e-7,3.033 -0.509014,4.56216 -1.75,5.25782 -0.962498,0.53956 -1.75,1.84121 -1.75,2.89453 0,2.24534 -2.810639,3.98633 -6.435546,3.98633 -1.411159,0 -2.564454,0.45 -2.564454,1 0,1.27483 6.082949,1.29837 9.400391,0.0371 3.411251,-1.29695 8.599609,-8.64938 8.599609,-12.1875 0,-2.45685 0.387153,-2.84961 2.808594,-2.84961 1.544878,0 3.682382,0.66125 4.75,1.46875 1.861062,1.40776 1.828596,1.46976 -0.777344,1.5 -1.918552,0.0224 -3.134465,0.82505 -4.132812,2.73046 -1.277,2.43727 -1.213377,2.97088 0.640625,5.47852 2.913207,3.94035 1.271503,7.42249 -3.775391,8.01172 -1.999797,0.23346 -3.858759,0.0606 -4.132812,-0.38281 -0.966282,-1.56348 -3.617884,-0.8677 -2.984375,0.7832 1.195498,3.11543 -0.668431,3.60289 -2.945313,0.76953 -2.101678,-2.61536 -2.359984,-2.69884 -3.029296,-0.98437 -0.494744,1.26731 -0.19517,2.17259 0.923828,2.79882 0.90997,0.50926 1.654296,1.93814 1.654296,3.17579 0,3.81074 1.930161,4.83802 4.994141,2.65625 l 2.679688,-1.91016 4.304687,6.10547 c 0,0 1.820079,6.26912 4.304688,6.10547 1.033122,-0.0681 1.441406,-2.75196 1.441406,-2.75196 0.837869,-1.5993 1.176014,-3.81149 0.80664,-5.2832 -0.465739,-1.85567 -0.02111,-3.18739 1.666016,-4.98633 l 2.302734,-2.45508 c 1.360379,-1.4505 1.900842,-2.07028 3.917969,-2.83007 2.973576,-1.12007 4.584998,1.31017 4.681641,4.35742 0.175298,5.52741 1.355188,7.88175 4.904297,9.78515 4.494433,2.41044 8.495516,2.358 10.9960935,-0.14257 1.5818721,-1.58185 2,-3.33272 2,-8.37696 0,-3.88815 0.4879301,-6.77874 1.25,-7.40429 0.6874998,-0.56433 3.95,-1.35112 7.25,-1.74805 6.7310626,-0.80969 9.4999995,-1.92598 9.4999995,-3.83203 0,-0.90955 -1.8771663,-1.32102 -6.3476558,-1.38867 -12.1846374,-0.18478 -18.5493362,-5.7016 -9.6523437,-8.36719 3.5666684,-1.06862 4,-1.54033 4,-4.34961 0,-1.7328 0.57995132,-3.94431 1.2890625,-4.91406 1.4380687,-1.96668 5.1201789,-2.13027 28.193359,-1.25391 7.930443,0.30123 13.450686,0.10401 14.185547,-0.50586 1.682449,-1.39631 5.332031,0.71048 5.332031,3.07813 10e-7,1.18151 -1.193256,2.32854 -3.25,3.125 -2.998008,1.16103 -3.070824,1.29216 -0.945312,1.67578 3.389979,0.61187 11.186493,-2.86377 11.191406,-4.98828 0.0027,-1.27695 0.814857,-1.75 3.003906,-1.75 2.295678,0 3,0.45281 3,1.92773 0,2.22917 -4.747506,6.34731 -6.248046,5.41992 -0.56332,-0.34817 -0.786048,-0.01 -0.503907,0.76367 0.278827,0.76404 -0.870353,2.84575 -2.552734,4.625 -3.74891,3.96477 -2.768319,5.66583 1.119141,1.94141 1.536858,-1.47239 3.079262,-2.67773 3.427734,-2.67773 0.348457,0 2.096022,-1.3348 3.882812,-2.9668 2.512763,-2.29504 3.555189,-2.71181 4.603516,-1.8418 0.97011,0.80508 1.662917,0.81754 2.435547,0.0449 0.593711,-0.59372 1.699051,-0.8418 2.457031,-0.55078 0.793391,0.30444 1.378906,-0.10715 1.378906,-0.9707 10e-7,-1.99022 2.909537,-3.03423 4.583985,-1.64453 0.838972,0.6963 1.115303,2.18129 0.748047,4.01758 -0.747281,3.73659 -0.877407,3.73866 6.763672,-0.15625 1.63768,-0.83479 2.504082,-0.69697 3.964843,0.625 1.772391,1.60399 1.928693,1.55937 3.025391,-0.84766 0.636193,-1.39627 2.097405,-2.78546 3.246094,-3.08594 2.722401,-0.71191 10.283646,1.20964 11.759766,2.98828 0.63397,0.76388 2.4205,1.38868 3.9707,1.38868 1.55019,0 3.09757,0.45 3.4375,1 0.33993,0.54999 2.30738,1 4.37305,1 3.29111,0 3.95739,0.42455 5.38672,3.42187 1.33596,2.80154 2.04843,3.3182 3.93555,2.85547 1.26724,-0.31071 2.84635,-0.9899 3.50976,-1.50781 0.6634,-0.5178 1.78874,-0.58214 2.5,-0.14258 0.71127,0.43956 2.4931,0.67336 3.95898,0.51953 1.59981,-0.16781 4.39777,0.83667 7,2.51172 3.5178,2.26439 5.49923,2.79997 10.50782,2.83398 5.52793,0.0381 6.40106,0.33088 8.35156,2.81055 1.44835,1.84127 2.7724,2.58001 3.95312,2.20508 2.03607,-0.64619 3.62625,3.28977 1.99024,4.92578 -1.5546,1.5546 -1.11224,6.38609 0.67578,7.38672 0.90312,0.50547 2.45595,0.70534 3.45117,0.44531 1.24585,-0.32579 2.41104,0.51816 3.74219,2.70703 3.09744,5.09341 5.19545,6.06035 12,5.53125 l 6.03906,-0.4707 5.36133,4.90039 c 6.36261,5.81507 10.97045,7.14569 16.18359,4.67188 2.62723,-1.24668 4.03877,-1.38042 6.13868,-0.58204 2.26628,0.86166 3.59063,0.58734 7.83398,-1.62304 2.80861,-1.46302 5.94621,-3.24264 6.97266,-3.95508 1.2452,-0.86427 2.57636,-1.00221 4,-0.41211 1.17354,0.48642 10.23474,1.40098 20.13476,2.03125 9.89998,0.63027 21.03752,1.36037 24.75,1.62305 6.32485,0.44723 6.75,0.34544 6.75,-1.60547 0,-2.44241 2.7298,-2.81375 4.38867,-0.59766 0.61062,0.81577 4.71132,2.21756 9.11133,3.11524 4.39998,0.89763 9.26964,2.28358 10.82227,3.08007 1.72717,0.886 3.95959,1.19837 5.75195,0.80469 3.58639,-0.78769 9.92578,2.7345 9.92578,5.51563 0,1.01015 0.27369,2.54799 0.60742,3.41797 0.82383,2.14688 0.86553,2.12817 5.2793,-2.41993 2.35177,-2.42335 5.21035,-4.26134 7.24805,-4.66015 1.85083,-0.36223 4.37867,-1.31466 5.61719,-2.11524 1.40519,-0.90818 3.28515,-1.21078 5,-0.80664 1.51147,0.35607 5.55247,0.60861 8.98046,0.5625 4.94378,-0.0664 7.11525,0.43451 10.5,2.41797 2.34698,1.37533 6.18398,2.80747 8.5254,3.18164 4.08166,0.65254 4.3002,0.55378 5.3164,-2.36133 0.59195,-1.69803 2.77224,-4.17324 4.93945,-5.60742 2.73343,-1.80892 4.19009,-3.68168 4.92774,-6.33789 1.31047,-4.72207 1.30313,-6.2957 -0.0215,-4.02148 -1.33031,2.28396 -3.63111,2.23742 -4.36914,-0.0879 -0.81256,-2.56014 2.72146,-10.09163 6.37891,-13.59571 3.80477,-3.64524 8.73395,-12.94655 11.57813,-21.84961 1.96709,-6.15749 2.05248,-7.3558 0.93359,-13 -2.65999,-13.41823 -5.88517,-17.34565 -4.81836,-5.86718 0.51265,5.51584 0.20686,8.23384 -1.56445,13.95703 -1.20983,3.90909 -2.11534,7.91446 -2.01368,8.90039 0.33272,3.22004 -0.0239,4.29297 -1.42382,4.29297 -3.17719,0 -5.68107,-6.79746 -3.35938,-9.11914 0.77363,-0.77364 1.71565,-3.34038 2.09375,-5.70508 0.71426,-4.46669 -0.84898,-12.60855 -2.25391,-11.74024 -0.44209,0.27323 -1.08291,3.77541 -1.42382,7.78125 -0.34111,4.00589 -1.36095,9.45457 -2.26758,12.10742 -1.62478,4.75416 -1.61286,4.89046 0.8789,9.5 2.1693,4.01307 2.32734,4.85998 1.10743,5.97657 -1.92087,1.75812 -3.39649,0.64872 -3.39649,-2.55469 0,-1.44994 -1.09578,-3.78633 -2.43554,-5.19141 l -2.4375,-2.55468 2,-5.90235 c 1.72183,-5.08297 1.83992,-6.56239 0.85546,-10.66601 -0.83648,-3.48681 -0.84591,-5.31848 -0.0391,-6.82617 0.82058,-1.53328 0.78728,-2.56339 -0.12695,-4.02735 -1.00815,-1.61423 -0.93545,-2.29092 0.40625,-3.77344 1.25178,-1.38319 1.38577,-2.25143 0.57226,-3.70507 -1.01809,-1.8192 -1.13606,-1.79833 -2.85937,0.48632 l -1.79883,2.38477 -2.32422,-2.70508 c -1.65539,-1.92639 -2.94168,-2.5453 -4.46679,-2.14648 -1.17786,0.30803 -3.07409,0.0626 -4.21289,-0.54688 -1.7542,-0.93883 -1.91571,-1.5144 -1.06055,-3.76367 0.78252,-2.05814 0.66338,-3.00064 -0.53125,-4.19531 -1.38803,-1.38811 -1.54102,-1.31305 -1.54102,0.76758 0,1.27045 -0.94812,3.64337 -2.10742,5.27148 -1.77075,2.48666 -2.57225,2.85789 -5.00195,2.32422 -3.1903,-0.70065 -3.29605,-0.31776 -2.92188,10.52344 0.22621,6.55336 4.74323,9.48762 6.04297,3.92578 0.76811,-3.28702 6.32975,-4.02182 7.92188,-1.04688 0.65654,1.22672 2.31896,2.11584 4.3164,2.3086 0,0 1.80374,0.93485 2.53516,1.74023 2.00028,2.20244 0.7893,4.98882 0.71484,7.49805 -0.0805,2.70863 0.2716,5.4765 -1.25,8.0332 -1.27767,2.14689 -5.33789,4.4668 -5.33789,4.4668 -3.62325,1.96584 -8.23574,4.8345 -10.25,6.375 -3.38566,2.5895 -3.66419,3.19327 -3.66797,8 -0.004,4.00841 -0.56051,5.88626 -2.43164,8.19922 -2.24417,2.77406 -2.52532,2.86993 -3.74414,1.26367 -1.20533,-1.58858 -1.77223,-1.61817 -6.60742,-0.33203 -3.67174,0.9767 -6.26608,1.12672 -8.49219,0.48828 -1.76318,-0.5057 -4.59126,-0.91992 -6.2832,-0.91992 -2.01082,0 -3.80729,-0.84037 -5.1875,-2.42774 -2.95699,-3.40085 -10.77887,-4.59628 -12.71875,-1.94336 -1.32049,1.80582 -1.45764,1.78673 -3.9375,-0.54297 -1.81168,-1.70196 -4.39265,-2.66242 -8.74609,-3.25781 -3.3961,-0.46443 -7.56235,-1.56014 -9.25977,-2.43359 -6.65322,-3.42346 -14.1129,-5.35946 -22.90234,-5.94336 -5.05078,-0.33551 -10.40315,-1.07113 -11.89258,-1.63477 -1.48936,-0.56364 -5.49293,-1.08979 -8.89844,-1.16992 -5.78464,-0.13648 -6.21781,-0.30979 -6.57422,-2.64062 -0.20972,-1.3722 -1.56238,-3.50971 -3.00586,-4.75 -2.18358,-1.87631 -3.80165,-2.25586 -9.63672,-2.25586 h -7.01367 l -6.59961,-6.75 c -3.62982,-3.71248 -7.77614,-7.51843 -9.21289,-8.45703 -1.6806,-1.09796 -2.85495,-3.00618 -3.29492,-5.35157 -0.81112,-4.32355 -0.77093,-4.3776 4.04102,-5.46289 2.71169,-0.61156 4.29739,-0.46665 5.71093,0.52344 1.67146,1.17078 2.29536,1.14817 4.28321,-0.1543 2.76419,-1.81118 6.75425,-1.17488 13.41015,2.13867 2.47499,1.23217 6.29998,2.80718 8.5,3.5 2.19999,0.69283 4.98082,2.15232 6.17969,3.24415 2.05829,1.87453 2.35805,1.89564 5.40234,0.37695 4.2412,-2.11578 5.51047,-2.03232 9.20118,0.5957 1.70124,1.21138 4.16799,2.11238 5.48046,2.00391 1.31248,-0.10863 3.27617,0.28044 4.36524,0.86328 1.62913,0.87186 2.32835,0.61619 3.94531,-1.43945 1.61163,-2.049 2.56928,-2.40118 5.31836,-1.95508 1.95678,0.31755 3.63855,0.0817 4.03906,-0.56641 0.37758,-0.61058 0.24238,-1.10937 -0.30078,-1.10937 -2.0784,0 -4.13086,-3.28436 -4.13086,-6.61133 0,-5.15305 -3.51486,-9.38867 -7.79101,-9.38867 -5.94282,0 -21.1508,-5.71573 -25.38282,-9.53907 -2.39429,-2.16313 -4.86349,-3.46705 -6.58007,-3.47461 -1.51095,-0.007 -5.44612,-0.85977 -8.7461,-1.89453 -3.30002,-1.03476 -7.91251,-2.39606 -10.25,-3.02539 -3.1666,-0.85258 -4.25,-1.64404 -4.25,-3.10547 0,-1.25431 0.67843,-1.96093 1.88282,-1.96093 1.04485,0 2.1168,-0.8938 2.4082,-2.00782 0.38899,-1.48743 -0.57967,-2.91336 -3.73633,-5.5 -2.3438,-1.92056 -4.99766,-3.49218 -5.89844,-3.49218 -0.90081,0 -2.60215,-1.47082 -3.78125,-3.26953 -2.36304,-3.60486 -9.25694,-7.55216 -12.12109,-7.30469 z M 65.623047,570.66797 c 2.704745,-0.0245 6.831313,0.11401 13.306641,0.34375 21.504512,0.76297 25.296872,1.31376 25.296872,3.67578 0,3.67204 10.75012,8.83526 12.5,6.00391 1.36452,-2.20785 18.59367,-0.0818 21.67188,2.67382 0.91982,0.82341 3.52807,1.74458 5.79687,2.04883 l 4.125,0.55469 c 1.59133,0.21399 1.91745,-0.22973 3.34961,-0.27734 1.47154,-0.0489 7.84906,3.36148 10.55664,5.56445 0.825,0.67124 3.97502,1.54091 7,1.93164 3.16883,0.40932 7.40732,1.86854 10,3.44336 2.47499,1.50334 7.53749,3.74348 11.25,4.97852 3.71248,1.23503 6.75,2.56973 6.75,2.96484 0,0.39511 -3.04211,0.76482 -6.75976,0.82226 -5.16802,0.0796 -7.29001,-0.32724 -9.01563,-1.7246 -3.86577,-3.13029 -10.01294,-5.31318 -27.97461,-7.68165 -2.71394,-0.35787 -5.4222,0.28594 -9.06054,0.9375 -2.51517,0.45042 -4.76215,0.33677 -9.06641,-1.1914 -3.1664,-1.12418 -7.07608,-2.06118 -8.68945,-2.08008 -1.61338,-0.0195 -4.0586,-0.65909 -5.4336,-1.42187 -3.10307,-1.72143 -7.52271,-0.98698 -11.5,1.9121 -4.76038,3.46984 -5.20337,3.60926 -6.50976,2.03516 -0.67966,-0.81895 -2.30563,-1.49023 -3.613284,-1.49023 -1.30766,0 -2.376954,-0.45001 -2.376954,-1 0,-1.57841 -12.411322,-1.17174 -18.845703,0.61718 -5.558747,1.54549 -6.199882,1.52246 -14.582031,-0.54101 -7.189489,-1.76988 -9.043821,-1.92892 -10.30664,-0.88086 -1.287822,1.06877 -1.783733,0.91105 -3.025391,-0.95899 -1.630481,-2.45567 -5.133553,-2.94306 -7.089844,-0.98632 -0.80838,0.80855 -4.676529,1.29411 -10.951172,1.375 -5.335158,0.0687 -11.049217,0.66398 -12.699219,1.32226 -6.664667,2.65901 -12.6783843,3.15456 -17.7656245,1.46485 -2.67159685,-0.88751 -5.7285205,-1.3844 -6.7949219,-1.10547 -1.0663975,0.27885 -1.9394531,0.15114 -1.9394531,-0.28321 0,-1.43644 3.9909439,-1.86476 7.73828125,-0.83007 6.14938195,1.69791 13.86944125,0.55614 17.08789025,-2.52735 1.530418,-1.46623 3.771108,-2.66601 4.978516,-2.66601 2.958682,0 2.839462,-2.80385 -0.167969,-3.94727 -2.30979,-0.87821 -3.636719,-2.89505 -3.636719,-5.52734 10e-7,-2.27033 2.913264,-2.54865 6.140626,-0.58594 3.537898,2.1515 11.722684,1.94636 17.859374,-0.44922 1.925001,-0.75148 6.083489,-1.6519 9.242188,-2 4.220239,-0.46484 6.131828,-1.1845 7.205078,-2.7168 0.885699,-1.26451 1.44131,-1.75596 5.949219,-1.79687 z"
       transform="scale(0.26458333)"
       id="path826"
       inkscape:connector-curvature="0"
       sodipodi:nodetypes="cccccsccscccssccscssccsccccccscccsscscccccccccccccccsscccsccccccscccssccsccccscssscssccccccscscscccccccccsccsccsccscccscccssccscsccccssccscccscscccccccccsccccccccsscscsccccsccccccscccccsccscccscccccccscccccccssccccccsccccccccccccccccsccccccccccscccccccccccccccccsssccccsscsscccsscccsscccssccsscccccsscccccccccsccscsccccc" />
  </g>
</svg>
