<?xml version="1.0" encoding="UTF-8" standalone="no"?>
<!-- Created with Inkscape (http://www.inkscape.org/) -->

<svg
   xmlns:dc="http://purl.org/dc/elements/1.1/"
   xmlns:cc="http://creativecommons.org/ns#"
   xmlns:rdf="http://www.w3.org/1999/02/22-rdf-syntax-ns#"
   xmlns:svg="http://www.w3.org/2000/svg"
   xmlns="http://www.w3.org/2000/svg"
   xmlns:xlink="http://www.w3.org/1999/xlink"
   xmlns:sodipodi="http://sodipodi.sourceforge.net/DTD/sodipodi-0.dtd"
   xmlns:inkscape="http://www.inkscape.org/namespaces/inkscape"
   width="2979.2927"
   height="2841.1226"
   viewBox="0 0 788.27118 751.7137"
   version="1.1"
   id="svg8"
   inkscape:version="0.92.4 (5da689c313, 2019-01-14)"
   sodipodi:docname="Adenovirus-front.svg"
   inkscape:export-filename="G:\Pictures\My Pictures\Vectors and SVGs\Misc\Adenovirus.png"
   inkscape:export-xdpi="96"
   inkscape:export-ydpi="96">
  <defs
     id="defs2">
    <linearGradient
       inkscape:collect="always"
       id="linearGradient1562">
      <stop
         style="stop-color:#dc78ff;stop-opacity:1"
         offset="0"
         id="stop1558" />
      <stop
         style="stop-color:#856aff;stop-opacity:1"
         offset="1"
         id="stop1560" />
    </linearGradient>
    <radialGradient
       inkscape:collect="always"
       xlink:href="#linearGradient1562"
       id="radialGradient1568"
       cx="400.59503"
       cy="-415.96988"
       fx="400.59503"
       fy="-415.96988"
       r="16.286751"
       gradientTransform="matrix(2.2803296,0,0,2.1524986,-504.70977,470.31269)"
       gradientUnits="userSpaceOnUse" />
  </defs>
  <sodipodi:namedview
     id="base"
     pagecolor="#000720"
     bordercolor="#666666"
     borderopacity="1.0"
     inkscape:pageopacity="0"
     inkscape:pageshadow="2"
     inkscape:zoom="0.24748737"
     inkscape:cx="1454.3918"
     inkscape:cy="1492.9632"
     inkscape:document-units="mm"
     inkscape:current-layer="layer1"
     showgrid="false"
     borderlayer="true"
     inkscape:showpageshadow="false"
     inkscape:pagecheckerboard="true"
     units="px"
     inkscape:window-width="1366"
     inkscape:window-height="713"
     inkscape:window-x="0"
     inkscape:window-y="0"
     inkscape:window-maximized="1"
     inkscape:snap-object-midpoints="true"
     inkscape:snap-global="true"
     inkscape:snap-text-baseline="false"
     inkscape:snap-center="true"
     showguides="true"
     inkscape:guide-bbox="true"
     inkscape:snap-smooth-nodes="true"
     fit-margin-top="0"
     fit-margin-left="0"
     fit-margin-right="0"
     fit-margin-bottom="0" />
  <metadata
     id="metadata5">
    <rdf:RDF>
      <cc:Work
         rdf:about="">
        <dc:format>image/svg+xml</dc:format>
        <dc:type
           rdf:resource="http://purl.org/dc/dcmitype/StillImage" />
        <dc:title />
      </cc:Work>
    </rdf:RDF>
  </metadata>
  <g
     inkscape:label="Layer 1"
     inkscape:groupmode="layer"
     id="layer1"
     transform="translate(-2.7393886,483.55289)">
    <path
       style="opacity:1;fill:#555555;fill-opacity:1;fill-rule:nonzero;stroke:none;stroke-width:30.35263634;stroke-linecap:round;stroke-linejoin:round;stroke-miterlimit:4;stroke-dasharray:none;stroke-dashoffset:0;stroke-opacity:1;paint-order:normal"
       d="m 1500,49.878906 c -41.0894,0 -74.3984,10.7261 -74.3984,66.212894 0,36.74528 14.6104,68.8765 36.4121,86.39453 v 438.82226 c -75.9345,5.91132 -132.6289,29.13937 -132.6289,56.91407 0,6.02536 2.6686,9.79828 7.6211,11.95117 -195.4097,100.36833 -485.46226,311.10367 -641.30278,465.93357 -0.51691,-5.3758 -3.279,-9.0793 -9.00976,-10.9414 -26.41521,-8.5828 -66.02433,38.158 -95.11133,108.5488 l -417.3457,-135.6015 c -9.92308,-26.1487 -35.96646,-49.9749 -70.91406,-61.3301 -52.771095,-17.1464 -73.265571,11.2185 -85.962895,50.2969 -12.6973243,39.0783 -12.7906239,74.0724 39.980469,91.2187 34.947381,11.3551 70.022206,7.3882 93.419926,-7.9336 l 417.3457,135.6036 c -17.84365,74.0456 -13.27295,135.1436 13.14258,143.7265 5.73058,1.862 10.14274,0.4884 13.7207,-3.5566 34.90627,215.842 144.82209,554.6479 243.55859,751.1347 -3.89559,-0.036 -7.24031,1.6838 -10.05273,5.5547 -16.32544,22.4701 15.88868,74.5848 73.8457,124 l -257.93359,355.0157 c -27.93442,1.3581 -58.64219,18.765 -80.24024,48.4921 -32.61433,44.8898 -11.9686,73.1452 21.27344,97.2969 33.24201,24.1518 66.49309,35.0538 99.10742,-9.8359 21.59873,-29.7281 28.66592,-64.3116 21.32422,-91.2989 L 963.7832,2411.4844 c 64.9071,39.851 124.4283,54.3823 140.7539,31.9121 2.8131,-3.872 3.4129,-7.5825 2.1738,-11.2774 217.3811,33.1861 573.5704,33.0262 789.6348,-0.4746 -2.7403,4.6522 -2.6819,9.2724 0.8594,14.1465 16.3256,22.4703 75.8466,7.9392 140.7539,-31.9121 l 257.9316,355.0137 c -7.3417,26.9872 -0.2745,61.5707 21.3242,91.2988 32.6144,44.8898 65.8654,33.9877 99.1075,9.8359 33.242,-24.1517 53.8858,-52.407 21.2715,-97.2968 -21.5986,-29.7279 -52.3053,-47.1348 -80.2403,-48.4922 l -257.9336,-355.0137 c 57.9583,-49.4158 90.1714,-101.5316 73.8457,-124.0019 -3.5417,-4.8748 -7.9171,-6.359 -13.1894,-5.1895 99.0945,-196.0586 209.8842,-537.0341 244.955,-753.8945 3.578,4.045 7.9902,5.4166 13.7208,3.5547 26.4154,-8.5829 30.986,-69.6794 13.1425,-143.7246 l 417.3457,-135.6036 c 23.3977,15.3217 58.4728,19.2887 93.42,7.9336 52.7711,-17.1463 52.6777,-52.1404 39.9804,-91.2187 -12.6973,-39.0784 -33.1898,-67.4433 -85.9609,-50.2969 -34.9476,11.3552 -60.993,35.1815 -70.916,61.3301 l -417.3457,135.6015 c -29.087,-70.3908 -68.6961,-117.1316 -95.1114,-108.5488 -5.7307,1.8621 -8.4928,5.5656 -9.0097,10.9414 C 2102.2426,991.56656 1872.4797,819.77692 1663,710.17383 c 4.9525,-2.15289 7.6211,-5.92581 7.6211,-11.95117 0,-27.7747 -56.6944,-51.00275 -132.6289,-56.91407 V 202.48633 c 21.8017,-17.51803 36.4121,-49.64925 36.4121,-86.39453 0,-55.486794 -33.309,-66.212894 -74.3984,-66.212894 z"
       transform="matrix(0.26458333,0,0,0.26458333,0,-496.75002)"
       id="path824"
       inkscape:connector-curvature="0"
       sodipodi:nodetypes="ssccscccccsscccccccccccscccccccccsccccccccccsscccccsccsss" />
  </g>
</svg>
