<?xml version="1.0" encoding="UTF-8" standalone="no"?>
<!-- Created with Inkscape (http://www.inkscape.org/) -->

<svg
   width="48.302479mm"
   height="48.438927mm"
   viewBox="0 0 48.302479 48.438927"
   version="1.1"
   id="svg1"
   xml:space="preserve"
   inkscape:version="1.3 (0e150ed, 2023-07-21)"
   sodipodi:docname="Bacteriophage-front.svg"
   xmlns:inkscape="http://www.inkscape.org/namespaces/inkscape"
   xmlns:sodipodi="http://sodipodi.sourceforge.net/DTD/sodipodi-0.dtd"
   xmlns="http://www.w3.org/2000/svg"
   xmlns:svg="http://www.w3.org/2000/svg"><sodipodi:namedview
     id="namedview1"
     pagecolor="#505050"
     bordercolor="#ffffff"
     borderopacity="1"
     inkscape:showpageshadow="0"
     inkscape:pageopacity="0"
     inkscape:pagecheckerboard="1"
     inkscape:deskcolor="#505050"
     inkscape:document-units="mm"
     inkscape:zoom="1.8387205"
     inkscape:cx="90.552097"
     inkscape:cy="121.27999"
     inkscape:current-layer="layer1" /><defs
     id="defs1" /><g
     inkscape:label="Layer 1"
     inkscape:groupmode="layer"
     id="layer1"
     transform="translate(-127.40773,-72.91891)"><path
       id="path1"
       style="fill:#555555;stroke-width:2.065;stroke-linecap:round;stroke-linejoin:round"
       d="m 151.14478,72.919063 c -1.69842,-0.0329 -9.53881,5.260686 -9.9534,5.983614 -0.42796,0.74625 -0.87561,14.134152 -0.14056,14.813566 0.73505,0.679413 7.52042,2.647762 7.30963,3.396176 -0.21079,0.748415 -1.54398,1.821661 -0.89245,2.671671 0.65153,0.85 -1.11707,3.43305 -0.27182,4.88394 0.84524,1.4509 -0.36574,3.76757 -0.5209,4.58628 -0.15515,0.81869 1.52678,1.5159 0.86403,2.6417 -0.55491,0.94262 -0.0892,2.2883 -1.2671,2.66651 -2.9634,-2.76904 -9.39006,-9.45459 -10.14047,-9.31365 -0.76618,0.1439 -5.31459,8.25311 -8.72401,15.83676 6.2046,-8.23293 7.83231,-13.8426 8.9178,-13.40228 0.87362,0.35438 6.03022,6.08094 9.07748,8.85527 0.0339,3.88832 0.16673,4.73357 1.18184,4.79971 1.17405,0.0765 -0.21052,-1.69424 0.87282,-1.58492 1.08332,0.10933 1.55326,-0.61298 2.09496,0.74931 0.54171,1.36228 2.70963,0.90854 3.33778,-0.0527 0.62815,-0.96126 1.91026,-0.60778 2.61999,0.45992 0.70974,1.06771 1.75378,-0.28599 1.5472,-3.76824 -4.8e-4,-0.008 -0.002,-0.0142 -0.002,-0.0222 2.89135,-2.44575 8.79675,-9.05455 9.73739,-9.43612 1.08549,-0.44032 2.71268,5.16935 8.91729,13.40228 -3.40943,-7.58365 -7.95732,-15.69286 -8.7235,-15.83676 -0.76618,-0.1439 -7.47259,6.85419 -10.34459,9.50743 -0.0584,0.054 -0.10788,0.10455 -0.16382,0.15762 -0.53823,-0.82886 -1.19202,-0.69817 -0.82992,-1.69292 0.54339,-1.49276 -0.57055,-1.96426 -0.0165,-2.57349 0.554,-0.60923 -1.04188,-2.98653 -0.26096,-3.06493 0.78091,-0.0784 -0.85958,-2.74812 0.27078,-3.0639 1.13037,-0.31577 -0.72473,-2.48912 0.0961,-2.87682 0.8209,-0.38768 0.2371,-2.950778 -0.20102,-3.687116 -0.43812,-0.736339 5.68767,-3.944764 6.50348,-4.866886 0.81581,-0.922122 -0.002,-13.127173 -0.27699,-14.194999 -0.27503,-1.067826 -9.14418,-5.554322 -10.47378,-5.953642 -0.0416,-0.01248 -0.0899,-0.01909 -0.14469,-0.02015 z" /></g></svg>
