<?xml version="1.0" encoding="UTF-8" standalone="no"?>
<!-- Created with Inkscape (http://www.inkscape.org/) -->

<svg
   width="156.27991mm"
   height="156.31506mm"
   viewBox="0 0 156.27991 156.31506"
   version="1.1"
   id="svg1"
   xml:space="preserve"
   inkscape:version="1.3 (0e150ed, 2023-07-21)"
   sodipodi:docname="Human_Immunodeficiency_Virus_HIV-front.svg"
   xmlns:inkscape="http://www.inkscape.org/namespaces/inkscape"
   xmlns:sodipodi="http://sodipodi.sourceforge.net/DTD/sodipodi-0.dtd"
   xmlns="http://www.w3.org/2000/svg"
   xmlns:svg="http://www.w3.org/2000/svg"><sodipodi:namedview
     id="namedview1"
     pagecolor="#505050"
     bordercolor="#ffffff"
     borderopacity="1"
     inkscape:showpageshadow="0"
     inkscape:pageopacity="0"
     inkscape:pagecheckerboard="1"
     inkscape:deskcolor="#505050"
     inkscape:document-units="mm"
     inkscape:zoom="0.83024534"
     inkscape:cx="338.45417"
     inkscape:cy="313.16044"
     inkscape:window-width="1600"
     inkscape:window-height="837"
     inkscape:window-x="-8"
     inkscape:window-y="-8"
     inkscape:window-maximized="1"
     inkscape:current-layer="layer1" /><defs
     id="defs1" /><g
     inkscape:label="Layer 1"
     inkscape:groupmode="layer"
     id="layer1"
     transform="translate(-20.268919,-76.099273)"><path
       id="path1"
       style="fill:#ffffff;fill-opacity:1;stroke:none;stroke:none;stroke-width:2;stroke-linejoin:round"
       d="m 102.0222,76.099748 c -0.13424,-0.0064 -0.26651,0.05153 -0.39326,0.178283 -1.01403,1.014036 -0.90108,0.788629 -2.027784,0.450619 -1.126706,-0.338014 -0.676319,1.126642 -1.577682,0.450618 -0.901366,-0.676025 -2.591542,-1.57745 -2.816882,0.450619 -0.225343,2.028071 -1.351984,5.295679 -0.450619,9.802502 0.901363,4.506826 2.253625,2.140826 2.140955,3.042192 -0.09837,0.786926 -0.797417,3.634947 -0.29869,6.219775 a 57.681244,57.681244 0 0 0 -18.06453,3.578074 c -1.675587,-3.70308 -3.677893,-5.775799 -3.062346,-5.928835 0.665098,-0.165353 2.702037,-1.415696 0.359152,-6.540169 -2.342886,-5.124477 -4.927087,-7.688746 -5.454448,-6.355168 -0.527351,1.333577 -0.513843,1.081817 -1.682068,1.219564 -1.168224,0.137743 -0.172319,1.302755 -1.268139,1.040764 -1.095825,-0.261993 -3.004989,-0.417274 -2.405538,1.533239 0.599448,1.950516 0.864825,5.396509 3.483508,9.173601 2.618682,3.777093 2.918514,1.068577 3.17345,1.94045 0.221011,0.75586 0.707829,3.611307 2.16886,5.779494 a 57.681244,57.681244 0 0 0 -13.891142,9.25783 c -2.900686,-2.78161 -5.487975,-3.95571 -4.975924,-4.32273 0.557032,-0.39927 1.988066,-2.31333 -2.081527,-6.21048 -4.069595,-3.897143 -7.418441,-5.325811 -7.416084,-3.891749 0.0024,1.434058 -0.07728,1.195018 -1.112077,1.754415 -1.034795,0.559394 0.320333,1.274396 -0.794784,1.435574 -1.115121,0.16117 -2.94649,0.72174 -1.669149,2.31303 1.277341,1.59131 2.796046,4.69568 6.624402,7.23884 3.828357,2.54315 3.107055,-0.0846 3.665926,0.63149 0.488532,0.62598 2.015578,3.13724 4.202845,4.60798 a 57.681244,57.681244 0 0 0 -10.872722,16.61139 c -3.808852,-1.30971 -6.657624,-1.28654 -6.346899,-1.83554 0.337571,-0.59644 0.830853,-2.9352 -4.499984,-4.76044 -5.330839,-1.82525 -8.96935,-1.7136 -8.364347,-0.41341 0.605039,1.30018 0.431932,1.11724 -0.271818,2.05982 -0.703752,0.94258 0.826733,1.02106 -0.117306,1.63608 -0.944044,0.61502 -2.370554,1.89399 -0.542602,2.80086 1.827956,0.90689 4.511476,3.08511 9.054227,3.78323 4.542747,0.69812 2.783371,-1.38325 3.591513,-0.96841 0.705374,0.36206 3.140123,1.99429 5.738667,2.41225 a 57.681244,57.681244 0 0 0 -2.846338,16.15095 c -4.03563,0.16637 -6.688384,1.23173 -6.59908,0.60617 0.09687,-0.67846 -0.296364,-3.03618 -5.925736,-2.79208 -5.629363,0.24413 -8.976984,1.67487 -7.939568,2.66496 1.037438,0.99009 0.809282,0.88263 0.497645,2.01693 -0.311608,1.13429 1.142125,0.64941 0.487308,1.56631 -0.654795,0.9169 -1.516516,2.62757 0.516248,2.80551 2.032785,0.17797 5.325698,1.22798 9.810254,0.22169 4.484555,-1.00629 2.087795,-2.30285 2.991548,-2.21123 0.792694,0.0803 3.679373,0.71849 6.261117,0.14573 a 57.681244,57.681244 0 0 0 3.952213,17.98908 c -3.656389,1.76032 -5.677916,3.80587 -5.845121,3.19464 -0.180822,-0.66106 -1.478991,-2.66803 -6.547404,-0.20619 -5.068391,2.46186 -7.57149,5.10512 -6.225976,5.60121 1.345535,0.4961 1.093875,0.48791 1.258838,1.65261 0.164986,1.16469 1.306059,0.1422 1.069702,1.24385 -0.236338,1.10164 -0.346928,3.01366 1.58905,2.36885 1.936009,-0.64479 5.374937,-0.98979 9.089884,-3.6959 3.714945,-2.70612 1.00034,-2.9432 1.866036,-3.21841 0.756577,-0.24052 3.641002,-0.79914 5.780009,-2.33836 a 57.681244,57.681244 0 0 0 9.564791,13.66584 c -2.740998,2.98184 -3.863016,5.62218 -4.243668,5.11648 -0.412149,-0.54756 -2.359224,-1.93373 -6.160348,2.2257 -3.801095,4.15945 -5.151209,7.54029 -3.717602,7.50446 1.43363,-0.0358 1.196865,0.0498 1.780253,1.07125 0.583406,1.02145 1.265991,-0.35039 1.453141,0.76067 0.187163,1.11105 0.79075,2.92902 2.351794,1.61489 1.561081,-1.31412 4.62914,-2.90466 7.082255,-6.79131 2.453109,-3.88666 -0.157183,-3.10445 0.545704,-3.67988 0.609525,-0.49901 3.049129,-2.06383 4.473628,-4.25711 a 57.681244,57.681244 0 0 0 16.910079,10.38387 c -1.236332,3.86209 -1.142808,6.73378 -1.701188,6.43474 -0.604148,-0.32356 -2.953632,-0.76244 -4.653979,4.60954 -1.700318,5.37199 -1.504303,9.00728 -0.218592,8.3721 1.285747,-0.63517 1.106769,-0.45832 2.065507,0.22324 0.958756,0.68155 1.00177,-0.85035 1.63866,0.0791 0.636893,0.92943 1.948788,2.32558 2.812748,0.47697 0.863996,-1.84862 2.978928,-4.58221 3.570842,-9.14001 0.591907,-4.55779 -1.447472,-2.75014 -1.051616,-3.56774 0.342441,-0.7073 1.890197,-3.14278 2.265495,-5.72471 a 57.681244,57.681244 0 0 0 14.090096,2.31665 c 0.10726,4.05226 1.141883,6.73129 0.516248,6.63319 -0.677062,-0.10618 -3.039963,0.25426 -2.87321,5.88646 0.166773,5.63218 1.551154,8.99946 2.5554,7.97574 1.004255,-1.02374 0.893737,-0.79745 2.023649,-0.47026 1.129902,0.32716 0.665214,-1.13295 1.57303,-0.4656 0.90782,0.66733 2.60638,1.55212 2.81223,-0.47801 0.20587,-2.03015 1.30117,-5.30816 0.35657,-9.80612 -0.9446,-4.49795 -2.27391,-2.11911 -2.16989,-3.02152 0.091,-0.78976 0.76633,-3.65607 0.23564,-6.24096 a 57.681244,57.681244 0 0 0 18.03301,-3.73156 c 1.711,3.68639 3.73268,5.73889 3.11867,5.89783 -0.66348,0.17172 -2.68808,1.44204 -0.29611,6.54379 2.392,5.10174 5.0009,7.64104 5.51543,6.30246 0.51452,-1.33859 0.50281,-1.08715 1.66967,-1.2361 1.16684,-0.14897 0.16003,-1.30412 1.25832,-1.05265 1.09829,0.25145 3.0087,0.38816 2.39055,-1.55649 -0.61814,-1.94468 -0.91602,-5.38773 -3.57084,-9.1395 -2.65483,-3.75176 -2.92928,-1.04057 -3.19257,-1.90996 -0.22914,-0.75662 -0.74563,-3.62668 -2.24069,-5.78363 a 57.681244,57.681244 0 0 0 13.79864,-9.38392 c 2.93534,2.76712 5.54655,3.92051 5.0369,4.29328 -0.55318,0.40458 -1.96535,2.33241 2.14147,6.19032 4.10684,3.85789 7.46891,5.25441 7.45278,3.82044 -0.0161,-1.43398 0.0662,-1.19597 1.09554,-1.76527 1.02938,-0.56932 -0.33322,-1.27094 0.78031,-1.4428 1.11351,-0.17188 2.93949,-0.7501 1.64693,-2.32906 -1.29256,-1.57898 -2.84105,-4.66901 -6.69365,-7.17527 -3.85259,-2.50627 -3.1059,0.11437 -3.67161,-0.59635 -0.49315,-0.61954 -2.03712,-3.10332 -4.22868,-4.55476 a 57.681244,57.681244 0 0 0 10.67221,-16.7349 c 3.83263,1.28083 6.69273,1.22875 6.38669,1.78181 -0.33184,0.59965 -0.80266,2.94303 4.54546,4.71702 5.34813,1.77396 8.98543,1.62763 8.36797,0.33331 -0.61744,-1.29433 -0.4425,-1.1131 0.25218,-2.0624 0.69467,-0.94931 -0.83681,-1.01305 0.10129,-1.63711 0.93807,-0.62406 2.35178,-1.91623 0.51521,-2.80552 -1.83658,-0.88929 -4.54065,-3.04195 -9.08989,-3.69641 -4.54923,-0.65447 -2.76962,1.40957 -3.58169,1.00252 -0.70656,-0.35414 -3.14393,-1.95338 -5.73712,-2.35283 a 57.681244,57.681244 0 0 0 2.49029,-13.37024 c 4.0648,-5.7e-4 6.77791,-0.9707 6.66368,-0.34675 -0.12343,0.67413 0.17691,3.04544 5.81153,3.02256 5.6346,-0.0229 9.03602,-1.32122 8.03827,-2.35128 -0.99776,-1.03007 -0.77451,-0.91383 -0.41858,-2.03502 0.35591,-1.12118 -1.11561,-0.69392 -0.4253,-1.5844 0.69029,-0.89048 1.61855,-2.56598 -0.40566,-2.8236 -2.02423,-0.25764 -5.27363,-1.43611 -9.79423,-0.60668 -4.52061,0.82944 -2.17632,2.21889 -3.07578,2.09186 -0.77643,-0.10964 -3.55779,-0.83615 -6.12625,-0.41031 a 57.681244,57.681244 0 0 0 -3.24941,-18.16375 c 3.64819,-1.60526 5.70668,-3.52061 5.84822,-2.9099 0.15473,0.66764 1.37332,2.72394 6.53449,0.46302 5.16114,-2.26094 7.76596,-4.8041 6.44095,-5.35264 -1.32501,-0.54854 -1.07358,-0.53039 -1.19269,-1.70067 -0.11912,-1.17027 -1.30004,-0.19317 -1.02061,-1.28468 0.27941,-1.09151 0.46531,-2.99812 -1.49449,-2.42983 -1.95982,0.56828 -5.41005,0.77859 -9.22837,3.33675 -3.81834,2.55816 -1.11474,2.90145 -1.99058,3.14245 -0.75605,0.20805 -3.59713,0.64689 -5.78466,2.05879 a 57.681244,57.681244 0 0 0 -9.02994,-14.05496 c 2.80267,-2.84187 4.01034,-5.38674 4.36769,-4.87102 0.39033,0.56332 2.28152,2.02467 6.24303,-1.98231 3.96148,-4.00699 5.4435,-7.33255 4.00958,-7.35304 -1.43392,-0.0205 -1.19402,-0.0964 -1.73685,-1.13998 -0.54284,-1.043577 -1.27927,0.30054 -1.42265,-0.81701 -0.14339,-1.117533 -0.67473,-2.958172 -2.28617,-1.706351 -1.61146,1.251814 -4.73992,2.721311 -7.34373,6.508651 -2.60383,3.78733 0.0351,3.10768 -0.68988,3.65507 -0.62585,0.47258 -3.10423,1.93019 -4.61574,4.0504 a 57.681244,57.681244 0 0 0 -16.4729,-11.1187 c 1.34829,-3.756773 1.37408,-6.573659 1.91513,-6.255952 0.59097,0.347035 2.92126,0.87758 4.83123,-4.423502 1.90993,-5.301075 1.8564,-8.940809 0.54674,-8.356596 -1.30968,0.584202 -1.12392,0.413822 -2.05518,-0.304891 -0.93124,-0.71868 -1.0341,0.810582 -1.634,-0.143144 -0.59991,-0.953712 -1.85569,-2.400307 -2.79157,-0.587044 -0.9359,1.813269 -3.15699,4.4617 -3.9274,8.992733 -0.77041,4.531036 1.33874,2.805054 0.91105,3.606498 -0.36896,0.69147 -2.00333,3.053639 -2.4846,5.611027 a 57.681244,57.681244 0 0 0 -15.6993,-3.087667 c -0.0862,-3.984913 -1.06744,-6.619975 -0.44907,-6.516915 0.67602,0.11267 3.04221,-0.225546 2.92954,-5.859074 -0.0986,-4.929341 -1.14601,-8.133123 -2.08566,-8.177795 z" /></g></svg>
