<?xml version="1.0" encoding="UTF-8" standalone="no"?>
<!-- Created with Inkscape (http://www.inkscape.org/) -->

<svg
   width="39.046822mm"
   height="40.916786mm"
   viewBox="0 0 39.046822 40.916786"
   version="1.1"
   id="svg1"
   xml:space="preserve"
   inkscape:version="1.3 (0e150ed6c4, 2023-07-21)"
   sodipodi:docname="Mimivirus-front.svg"
   xmlns:inkscape="http://www.inkscape.org/namespaces/inkscape"
   xmlns:sodipodi="http://sodipodi.sourceforge.net/DTD/sodipodi-0.dtd"
   xmlns="http://www.w3.org/2000/svg"
   xmlns:svg="http://www.w3.org/2000/svg"><sodipodi:namedview
     id="namedview1"
     pagecolor="#505050"
     bordercolor="#ffffff"
     borderopacity="1"
     inkscape:showpageshadow="0"
     inkscape:pageopacity="0"
     inkscape:pagecheckerboard="1"
     inkscape:deskcolor="#505050"
     inkscape:document-units="mm"
     inkscape:zoom="3.3209814"
     inkscape:cx="55.706425"
     inkscape:cy="77.537322"
     inkscape:window-width="1600"
     inkscape:window-height="837"
     inkscape:window-x="-8"
     inkscape:window-y="-8"
     inkscape:window-maximized="1"
     inkscape:current-layer="layer1" /><defs
     id="defs1" /><g
     inkscape:label="Layer 1"
     inkscape:groupmode="layer"
     id="layer1"
     transform="translate(-107.69418,-127.86307)"><path
       style="fill:#ffffff;fill-opacity:1"
       d="m 125.15668,168.27845 c 0,-0.34414 0.24553,-1.35275 0.54562,-2.24136 0.45966,-1.36115 0.49974,-1.78603 0.25438,-2.69721 -0.33347,-1.23842 -0.6652,-1.481 -0.40496,-0.29613 0.14875,0.67725 0.0241,0.93086 -0.90501,1.8416 -0.68687,0.67327 -1.07753,1.29414 -1.07753,1.71251 0,0.36098 -0.11906,0.72991 -0.26458,0.81985 -0.15745,0.0973 -0.26459,-0.21749 -0.26459,-0.77738 0,-0.70367 0.23348,-1.19932 0.92605,-1.96591 0.904,-1.00062 1.14797,-1.92104 0.69749,-2.63142 -0.15466,-0.2439 -0.44216,0.0906 -0.96352,1.12106 -0.4087,0.80778 -0.96252,1.66727 -1.23072,1.90999 -0.2682,0.24271 -0.48763,0.78003 -0.48763,1.19404 0,0.41401 -0.11906,0.75274 -0.26458,0.75274 -0.51462,0 -0.27407,-1.79979 0.34207,-2.55939 1.42403,-1.75559 1.88104,-3.00091 1.24543,-3.39373 -0.14942,-0.0924 -0.26459,0.12418 -0.26459,0.49746 0,0.39095 -0.43235,1.16052 -1.05833,1.88379 -0.58208,0.67254 -1.05833,1.42505 -1.05833,1.67224 0,0.46716 -0.99777,1.25464 -1.25887,0.99354 -0.0819,-0.082 0.0487,-0.36746 0.29035,-0.63447 0.24164,-0.26702 0.43935,-0.62459 0.43935,-0.79461 0,-0.17003 0.4166,-0.77027 0.92578,-1.33387 0.94738,-1.04863 1.45372,-2.48729 0.97873,-2.78085 -0.146,-0.0902 -0.38597,0.18162 -0.53325,0.60412 -0.14729,0.4225 -0.60537,0.92977 -1.01796,1.12727 -0.46385,0.22203 -0.86052,0.6993 -1.03928,1.25044 -0.25034,0.77182 -1.133,1.57691 -1.76142,1.6066 -0.4656,0.022 -0.14423,-0.55583 0.46303,-0.83251 0.3638,-0.16576 0.66145,-0.45526 0.66145,-0.64334 0,-0.76273 0.64607,-1.67876 1.35939,-1.92742 0.63303,-0.22068 0.75453,-0.40733 0.74051,-1.13765 -0.0153,-0.79487 -0.0386,-0.81944 -0.25823,-0.27248 -0.2469,0.61472 -0.37792,0.69201 -1.64323,0.96926 -0.64297,0.14089 -0.7276,0.28014 -0.7276,1.19711 0,1.17154 -0.0243,1.19676 -1.38907,1.44302 -1.23831,0.22344 -1.34962,-0.26628 -0.13229,-0.582 0.74794,-0.19398 0.86103,-0.33637 0.86858,-1.09357 0.01,-0.96167 0.65268,-1.60896 1.59853,-1.60896 0.37622,0 0.63386,-0.20585 0.73323,-0.58584 0.26336,-1.00708 -0.41637,-1.03924 -1.31144,-0.062 -0.45968,0.50186 -1.01396,0.91246 -1.23172,0.91246 -0.51753,0 -1.78166,1.66595 -1.78166,2.34799 0,0.66667 -0.48163,0.99415 -0.68452,0.46543 -0.21399,-0.55764 0.63759,-2.23175 1.40568,-2.76345 1.18717,-0.82179 2.45384,-1.95436 2.45384,-2.19404 0,-0.56848 -0.79777,-0.16084 -1.31127,0.67003 -0.3787,0.61274 -0.83656,0.96581 -1.41064,1.08778 -1.04268,0.22152 -1.776,0.83494 -1.776,1.48561 0,0.26848 -0.1786,0.48815 -0.39688,0.48815 -0.48815,0 -0.48921,-0.0606 -0.0205,-1.18235 0.29267,-0.70047 0.61644,-0.97271 1.45591,-1.22422 1.21656,-0.36449 3.04459,-2.35593 2.1626,-2.35593 -0.13115,0 -0.46995,0.39237 -0.75289,0.87193 -0.35682,0.60475 -0.84028,0.96954 -1.57781,1.19051 -1.29326,0.38747 -2.45793,1.26225 -2.45793,1.84614 0,0.313 -0.0794,0.35116 -0.29087,0.13973 -0.7301,-0.7301 0.68267,-2.06748 2.6929,-2.54921 0.37524,-0.0899 0.81112,-0.44633 0.96862,-0.79201 0.28622,-0.62819 0.28586,-0.62834 -0.68224,-0.28254 -0.53274,0.19029 -1.17048,0.3512 -1.4172,0.35759 -0.24673,0.006 -0.60503,0.33904 -0.79623,0.73922 -0.21344,0.44672 -0.60204,0.76292 -1.00663,0.8191 -0.36244,0.0503 -0.789,0.19812 -0.94791,0.32843 -0.15891,0.13032 -0.36623,0.15963 -0.46072,0.0651 -0.2845,-0.2845 0.37798,-0.8818 0.98049,-0.88401 0.34371,-0.001 0.68464,-0.26441 0.87551,-0.67578 0.31061,-0.66944 0.30556,-0.67321 -0.79375,-0.59325 -0.84975,0.0618 -1.16692,0.21855 -1.36753,0.67579 -0.27531,0.62752 -0.53816,0.74978 -0.77793,0.36182 -0.0794,-0.12841 0.0873,-0.52797 0.37047,-0.88791 0.40219,-0.5113 0.84317,-0.68832 2.01631,-0.8094 1.14723,-0.1184 1.68046,-0.32638 2.25975,-0.88138 0.41701,-0.39952 0.75821,-0.83925 0.75821,-0.97717 0,-0.13792 -0.24677,0.063 -0.54837,0.44638 -0.4908,0.62394 -0.72693,0.69713 -2.24896,0.69713 -1.34781,0 -1.81036,0.10978 -2.22976,0.52917 -0.62884,0.62884 -0.79375,0.65945 -0.79375,0.1473 0,-0.73043 1.11229,-1.20563 2.822,-1.20563 1.40091,0 1.70723,-0.0875 2.05779,-0.58804 0.62978,-0.89913 0.52255,-1.31193 -0.31572,-1.21547 -0.5275,0.0607 -0.75144,0.25189 -0.81428,0.69521 -0.11547,0.81473 -0.65867,0.98162 -1.94279,0.59688 -0.90145,-0.27008 -1.13365,-0.25538 -1.52233,0.0964 -0.49582,0.44872 -1.07842,0.55216 -1.07842,0.19148 0,-0.12296 0.23282,-0.43427 0.51737,-0.69178 0.51511,-0.46617 1.41693,-0.46851 2.85607,-0.007 0.50989,0.16337 0.59531,0.0955 0.59531,-0.47327 0,-0.67355 0.42535,-0.98521 1.34456,-0.98521 0.28723,0 0.50753,-0.18236 0.50753,-0.42013 0,-0.64275 -2.09284,-0.20942 -2.83164,0.58631 -0.38937,0.41936 -0.87654,0.62757 -1.46844,0.62757 -0.48716,0 -1.02665,0.14089 -1.19885,0.31309 -0.44138,0.44138 -0.73308,0.05 -0.32721,-0.43899 0.18407,-0.2218 0.72832,-0.40327 1.20943,-0.40327 0.48111,0 1.06184,-0.1871 1.29052,-0.41577 0.67308,-0.67309 0.4772,-0.9525 -0.36311,-0.51796 -0.56921,0.29435 -0.95884,0.33435 -1.44739,0.14861 -0.52148,-0.19827 -0.72037,-0.1615 -0.9043,0.16716 -0.16881,0.30165 -0.29024,0.33323 -0.42747,0.11118 -0.34757,-0.56239 0.39032,-1.10322 1.27958,-0.93786 0.82966,0.15427 2.61628,-0.41296 2.93744,-0.9326 0.0913,-0.14773 0.57569,-0.26859 1.07643,-0.26859 0.63288,0 0.91042,-0.12099 0.91042,-0.39688 0,-0.54969 -1.6784,-0.52807 -2.13954,0.0276 -0.54915,0.66168 -1.44345,0.89629 -2.38605,0.62595 -0.55925,-0.16039 -0.97109,-0.15128 -1.18494,0.0262 -0.19897,0.16512 -0.38787,0.17478 -0.48071,0.0246 -0.30517,-0.49379 0.56504,-0.85402 1.64564,-0.68122 0.84892,0.13574 1.23218,0.0554 1.85635,-0.38902 0.45039,-0.32071 1.19317,-0.56009 1.73791,-0.56009 1.01618,0 1.19712,-0.26039 0.55262,-0.79529 -0.32744,-0.27174 -0.58489,-0.20771 -1.4399,0.35811 -0.87286,0.57763 -1.3002,0.67935 -2.6434,0.62924 -0.93048,-0.0347 -1.56285,-0.1707 -1.50832,-0.32435 0.0516,-0.14552 0.72112,-0.23731 1.48772,-0.20398 1.06522,0.0463 1.58028,-0.0722 2.18481,-0.50265 0.43505,-0.30978 1.1643,-0.64431 1.62055,-0.7434 l 0.82956,-0.18017 -1.13925,-0.20284 c -0.98494,-0.17536 -1.27356,-0.10976 -2.13089,0.48437 -0.72376,0.50157 -1.32731,0.68721 -2.23419,0.68721 -0.6834,0 -1.24255,-0.10632 -1.24255,-0.23627 0,-0.35945 0.76326,-0.57521 1.4368,-0.40616 0.40106,0.10065 0.94421,-0.0835 1.63262,-0.55366 0.85585,-0.58446 1.24575,-0.68444 2.28839,-0.58679 0.69123,0.0647 1.25677,0.0161 1.25677,-0.10804 0,-0.51156 -4.80385,0.0391 -5.77229,0.66165 -0.50549,0.32496 -0.74673,-0.0439 -0.29737,-0.45466 0.52457,-0.47955 4.55866,-1.28377 5.3913,-1.07479 0.42249,0.10603 0.67836,0.0596 0.67836,-0.12301 0,-0.16178 -0.44486,-0.29509 -0.99218,-0.29732 -0.54571,-0.002 -1.16894,-0.11581 -1.38498,-0.25241 -0.27772,-0.17559 -0.56033,-0.0909 -0.96473,0.28897 -0.47752,0.4486 -0.77306,0.50716 -1.79003,0.35465 -0.66994,-0.10046 -1.21808,-0.30342 -1.21808,-0.45102 0,-0.16369 0.40195,-0.20408 1.03063,-0.10355 0.79257,0.12674 1.17455,0.0481 1.65365,-0.34028 0.34266,-0.2778 0.53269,-0.59575 0.42228,-0.70655 -0.24738,-0.24827 -1.66515,-0.23513 -2.64354,0.0245 -1.07493,0.28526 -0.88653,-0.234 0.2316,-0.63832 0.768,-0.27771 1.25696,-0.28366 2.45289,-0.0299 1.5893,0.33728 3.21142,0.11134 3.4067,-0.4745 0.0828,-0.24836 -0.0412,-0.25577 -0.53276,-0.0318 -0.49767,0.22676 -0.8645,0.19838 -1.64358,-0.12713 -0.5516,-0.23048 -1.56092,-0.41905 -2.24294,-0.41905 -0.68202,0 -1.47115,-0.1748 -1.75363,-0.38846 -0.47092,-0.35619 -0.38651,-0.38915 1.01626,-0.39687 0.84142,-0.005 1.96296,0.17255 2.49231,0.39372 1.13227,0.4731 2.72472,0.43841 2.72472,-0.0593 0,-0.22242 -0.36451,-0.3428 -1.03804,-0.3428 -0.71864,0 -1.27767,-0.20164 -1.81687,-0.65535 -0.58214,-0.48984 -1.12386,-0.66756 -2.14493,-0.7037 -0.85264,-0.0302 -1.32883,-0.15678 -1.26694,-0.33684 0.17515,-0.50962 2.88541,-0.17414 3.5495,0.43936 0.55164,0.50962 2.98186,1.11159 2.98186,0.73861 0,-0.0932 -0.48591,-0.46127 -1.0798,-0.81795 -0.59389,-0.35667 -1.42512,-0.92512 -1.84717,-1.2632 -0.49678,-0.39794 -0.95093,-0.55644 -1.28792,-0.44949 -0.58187,0.18468 -1.60594,-0.65517 -1.60594,-1.31706 0,-0.55572 0.34116,-0.49409 0.73234,0.13229 0.20926,0.33507 0.61702,0.52917 1.11168,0.52917 0.42966,0 0.99419,0.21787 1.25452,0.48415 0.60676,0.62063 3.02312,1.94904 3.20835,1.76381 0.2897,-0.28969 -1.95432,-2.2597 -3.05115,-2.67859 -0.62649,-0.23926 -1.13908,-0.53326 -1.13908,-0.65334 0,-0.12009 -0.26057,-0.4611 -0.57905,-0.75781 -0.57541,-0.53607 -0.5756,-0.53947 -0.0304,-0.53947 0.30174,0 0.73285,0.28116 0.95801,0.6248 0.22516,0.34364 0.75247,0.69342 1.1718,0.77729 0.41989,0.084 1.28799,0.69479 1.93225,1.35957 0.6434,0.6639 1.26087,1.20709 1.37216,1.20709 0.43974,0 0.16354,-0.59599 -0.55729,-1.20253 -0.41781,-0.35155 -0.82568,-0.96936 -0.90638,-1.3729 -0.11344,-0.56717 -0.48645,-0.9057 -1.64339,-1.49152 -0.993,-0.5028 -1.40804,-0.84644 -1.23333,-1.02115 0.17471,-0.17471 0.64949,-0.0558 1.41084,0.35348 1.63322,0.87786 2.07356,1.29538 2.07356,1.9661 0,0.63974 1.71232,2.15038 1.96819,1.73637 0.0818,-0.13228 -0.26811,-0.73933 -0.77748,-1.349 -0.50937,-0.60968 -0.92612,-1.32672 -0.92612,-1.59343 0,-0.52631 -1.17133,-1.58167 -1.75548,-1.58167 -0.19865,0 -0.36119,-0.1786 -0.36119,-0.39688 0,-0.49444 0.16625,-0.48447 1.31577,0.0789 0.65394,0.32046 1.0354,0.7613 1.32292,1.52884 0.39406,1.05195 1.77249,2.93286 1.98998,2.71537 0.06,-0.06 -0.2426,-0.80605 -0.67233,-1.65801 -0.42974,-0.85195 -0.78134,-1.69906 -0.78134,-1.88246 0,-0.1834 -0.41672,-0.57932 -0.92604,-0.87983 -0.50932,-0.30051 -0.92604,-0.66946 -0.92604,-0.81989 0,-0.36232 0.0866,-0.34981 1.17649,0.16992 0.66474,0.31699 1.01514,0.71304 1.22896,1.38906 0.49593,1.56794 1.53377,3.18933 1.94135,3.03292 0.52868,-0.20287 0.0843,-1.57873 -0.76376,-2.36468 -0.36994,-0.34285 -0.67263,-0.91516 -0.67263,-1.2718 0,-0.42863 -0.32843,-0.9119 -0.96892,-1.42573 -1.20818,-0.96923 -0.83478,-1.28625 0.5059,-0.42952 0.74715,0.47744 0.99319,0.81278 0.99624,1.35778 0.005,0.80953 0.12843,1.02884 0.99726,1.7652 l 0.60443,0.51228 -0.53248,-1.17374 c -0.29286,-0.64555 -0.53509,-1.36604 -0.53828,-1.60107 -0.003,-0.23504 -0.25751,-0.74733 -0.56514,-1.13842 -0.30763,-0.39109 -0.48576,-0.78464 -0.39583,-0.87457 0.29997,-0.29998 1.45468,1.04033 1.61815,1.87824 0.19346,0.99168 1.47952,3.60479 1.77412,3.60479 0.31406,0 0.2523,-0.34921 -0.16786,-0.94906 -0.20712,-0.29571 -0.45406,-1.06634 -0.54876,-1.71252 -0.0947,-0.64618 -0.43933,-1.47253 -0.76585,-1.83633 -0.91128,-1.01533 -1.50325,-2.07343 -1.2482,-2.23105 0.39277,-0.24275 2.67481,3.08247 2.67481,3.89753 0,0.94107 0.72854,2.3738 1.09265,2.14876 0.19047,-0.11771 0.18697,-0.2602 -0.0113,-0.45844 -0.1582,-0.1582 -0.28763,-0.9008 -0.28763,-1.65023 0,-1.08718 -0.15685,-1.57912 -0.776,-2.43383 -0.88364,-1.21983 -1.09376,-1.94353 -0.61307,-2.11161 0.18191,-0.0636 0.33073,0.0869 0.33073,0.33449 0,0.24758 0.35719,0.85696 0.79375,1.35418 0.68823,0.78384 0.79375,1.10955 0.79375,2.44992 0,1.008 0.1299,1.65371 0.37332,1.85573 0.57116,0.47401 0.71162,-0.0397 0.40262,-1.47248 -0.15256,-0.70735 -0.36777,-1.76235 -0.47825,-2.34443 -0.11048,-0.58208 -0.36051,-1.31045 -0.55562,-1.6186 -0.2207,-0.34856 -0.27351,-0.74847 -0.13975,-1.05833 0.20664,-0.47872 0.2196,-0.47751 0.33365,0.0311 0.0653,0.29104 0.27133,0.70776 0.45793,0.92604 0.1866,0.21828 0.40814,0.81359 0.49231,1.32291 0.34791,2.10502 0.8282,3.96875 1.02278,3.96875 0.34404,0 0.2341,-2.25398 -0.18919,-3.87913 -0.44615,-1.71289 -0.51484,-3.00003 -0.16009,-3.00003 0.13024,0 0.29002,0.44648 0.35508,0.99219 0.065,0.5457 0.25479,1.52796 0.42165,2.18281 0.16685,0.65484 0.37027,1.64042 0.45204,2.19016 0.19926,1.3396 0.50615,1.06258 0.90501,-0.8169 0.30294,-1.42753 0.28466,-1.6405 -0.22679,-2.64303 -0.57996,-1.13681 -0.74879,-2.69898 -0.2917,-2.69898 0.14552,0 0.26459,0.24287 0.26459,0.53971 0,0.29683 0.25125,1.0322 0.55834,1.63415 0.55813,1.09402 0.5868,2.49132 0.0849,4.13668 -0.15608,0.51164 -0.10336,0.60536 0.29711,0.52824 0.34242,-0.0659 0.57488,-0.48593 0.78359,-1.41575 0.25677,-1.14391 0.23016,-1.45767 -0.19749,-2.32923 -0.5648,-1.15108 -0.46692,-1.69578 0.46144,-2.56793 0.82824,-0.77809 1.21131,-0.47049 0.43851,0.35212 -0.68216,0.72613 -0.7231,1.2948 -0.15554,2.16099 0.36293,0.55391 0.37431,0.83775 0.0854,2.12889 -0.28116,1.25633 -0.27482,1.52598 0.0404,1.72083 0.64133,0.39636 0.86006,-0.49428 0.69518,-2.83066 -0.1249,-1.76986 -0.0777,-2.2744 0.23739,-2.53819 0.21631,-0.18107 0.55925,-0.47806 0.76208,-0.65996 0.47736,-0.42808 0.67118,-0.4183 0.67118,0.0339 0,0.20053 -0.2515,0.53159 -0.55889,0.73569 -0.5036,0.33437 -0.56249,0.63861 -0.59531,3.07506 -0.043,3.19148 0.32747,3.44618 0.84346,0.57988 0.32554,-1.80835 0.5143,-2.19226 1.91809,-3.90115 0.15205,-0.1851 0.38726,-0.26806 0.52269,-0.18436 0.22317,0.13793 -0.44949,1.29978 -1.25975,2.17591 -0.17619,0.19051 -0.39068,0.78903 -0.47665,1.33006 -0.086,0.54102 -0.26317,1.45609 -0.39376,2.03348 -0.13059,0.57738 -0.1901,1.09714 -0.13223,1.155 0.0579,0.0579 0.40521,-0.23594 0.77188,-0.65292 0.44214,-0.50281 0.66948,-1.07833 0.67502,-1.7089 0.007,-0.80946 0.20221,-1.11423 1.3126,-2.05052 0.71733,-0.60486 1.37218,-1.09975 1.45521,-1.09975 0.43084,0 0.0239,0.64374 -1.03965,1.64456 -0.96773,0.91066 -1.19063,1.29254 -1.19063,2.03981 0,0.71507 0.0706,0.84882 0.3175,0.60188 0.17463,-0.17463 0.51737,-0.3175 0.76165,-0.3175 0.24653,0 0.59421,-0.36229 0.78142,-0.81425 0.40448,-0.9765 1.14639,-1.49535 2.30005,-1.60854 0.90461,-0.0888 1.3192,0.38478 0.45077,0.51486 -1.53924,0.23057 -1.73971,0.36693 -2.23369,1.51935 -0.40759,0.95086 -0.63667,1.18233 -1.17011,1.18233 -0.52526,0 -0.71065,0.17894 -0.89087,0.85989 -0.12517,0.47295 -0.12744,0.89996 -0.005,0.94893 0.5197,0.20793 1.90681,-0.93259 2.20147,-1.81012 0.2452,-0.73021 0.61186,-1.07687 1.74296,-1.64792 1.50758,-0.7611 2.0939,-0.89615 2.0939,-0.48229 0,0.13737 -0.70443,0.56588 -1.5654,0.95226 -1.20402,0.54033 -1.60397,0.86442 -1.73248,1.4039 -0.0919,0.38576 -0.54758,1.01965 -1.0126,1.40864 -0.46503,0.38898 -0.76731,0.78545 -0.67172,0.88103 0.25476,0.25477 1.49662,-0.62966 1.6755,-1.19326 0.29776,-0.93815 1.28354,-1.90911 2.44272,-2.406 2.11964,-0.90858 2.20352,-0.44748 0.12444,0.68409 -0.79092,0.43048 -1.52823,1.11763 -2.00096,1.86486 -0.4117,0.65077 -0.92905,1.28422 -1.14965,1.40768 -0.35068,0.19625 -0.35198,0.24332 -0.0104,0.37441 0.26068,0.10003 0.56024,-0.17307 0.89998,-0.82048 0.37102,-0.70701 0.70928,-0.99367 1.24619,-1.05611 0.5037,-0.0586 0.90059,-0.36307 1.25405,-0.96214 0.38199,-0.64744 0.80649,-0.94989 1.62465,-1.15756 0.60914,-0.15462 1.15306,-0.23559 1.20871,-0.17995 0.22694,0.22694 -0.28262,0.66555 -0.7732,0.66555 -0.47441,0 -1.05397,0.48302 -2.03331,1.69461 -0.18764,0.23213 -0.60932,0.42206 -0.93706,0.42206 -0.43079,0 -0.71881,0.27115 -1.03946,0.97859 -0.24395,0.53822 -0.40395,1.01819 -0.35554,1.06659 0.22571,0.22571 1.71523,-0.90368 2.23244,-1.69269 0.31786,-0.48491 0.75129,-0.88166 0.96317,-0.88166 0.21188,0 0.8101,-0.37303 1.32937,-0.82896 0.51928,-0.45592 1.02522,-0.74787 1.12433,-0.64876 0.32838,0.32838 -0.35317,1.07196 -1.59192,1.7368 -0.67221,0.36077 -1.34551,0.92659 -1.49623,1.25738 -0.15071,0.33078 -0.63321,0.81986 -1.07222,1.08684 -0.43901,0.26698 -0.72941,0.5542 -0.64533,0.63827 0.0841,0.0841 0.58573,-0.1409 1.11481,-0.49993 0.62149,-0.42176 1.24505,-0.62447 1.76185,-0.57274 0.70438,0.0705 0.85922,-0.0463 1.2967,-0.97827 0.5423,-1.15524 0.85355,-1.44499 1.55885,-1.45116 0.64747,-0.006 0.57722,0.34941 -0.13074,0.66082 -0.32657,0.14364 -0.63083,0.45848 -0.67613,0.69964 -0.071,0.37777 0.057,0.40611 0.92449,0.20475 1.28115,-0.29739 1.40374,-0.29799 1.40374,-0.007 0,0.13172 -0.50321,0.39961 -1.11824,0.59532 -0.85167,0.27101 -1.25642,0.6031 -1.69793,1.39316 -0.31884,0.57053 -0.85743,1.20383 -1.19687,1.40734 -0.37946,0.22749 -0.4305,0.31202 -0.13251,0.21944 0.26656,-0.0828 0.59502,-0.15057 0.7299,-0.15057 0.13489,0 0.93835,-0.63719 1.78548,-1.41598 1.33155,-1.22413 1.65431,-1.39924 2.38219,-1.29241 1.2197,0.17901 1.30505,0.59097 0.12349,0.5961 -0.84441,0.004 -1.19354,0.1967 -2.15342,1.19062 l -1.14561,1.18626 h 1.10388 c 0.70325,0 1.34803,-0.19205 1.77661,-0.52917 0.73616,-0.57906 1.13053,-0.67267 1.13053,-0.26834 0,0.14346 -0.45444,0.56157 -1.00986,0.92913 -0.73715,0.48782 -1.21943,0.62706 -1.78594,0.51561 -0.51614,-0.10153 -1.21918,0.0512 -2.09899,0.45605 -1.2757,0.587 -1.29459,0.61129 -0.52917,0.68059 0.43656,0.0395 1.23813,0.19426 1.78125,0.34384 0.77623,0.21378 1.15552,0.18509 1.7728,-0.13412 0.96818,-0.50067 1.97321,-0.52235 2.36438,-0.051 0.40893,0.49273 0.0792,0.73555 -0.5041,0.37126 -0.37935,-0.23691 -0.67851,-0.19488 -1.40754,0.19773 -0.81833,0.4407 -1.08393,0.46207 -2.28804,0.18413 -1.75651,-0.40545 -2.45244,-0.40056 -2.31624,0.0163 0.16698,0.51103 1.82246,0.96603 2.53255,0.69605 0.81661,-0.31047 2.08442,-0.2953 2.69648,0.0323 0.33137,0.17734 0.55008,0.17734 0.65968,0 0.19108,-0.30917 0.66378,-0.35722 0.65785,-0.0669 -0.002,0.10914 -0.11006,0.36588 -0.23962,0.57054 -0.19748,0.31192 -0.42848,0.31809 -1.42843,0.0381 -0.8982,-0.25148 -1.4116,-0.26178 -2.07841,-0.0417 -0.58377,0.19266 -1.17762,0.2085 -1.74253,0.0465 -0.47132,-0.13518 -0.85696,-0.16416 -0.85696,-0.0644 0,0.42389 2.15108,0.88877 4.29856,0.92898 1.309,0.0245 2.28585,0.15249 2.24896,0.29465 -0.11158,0.42994 -4.42246,0.42806 -5.25466,-0.002 -0.40558,-0.20973 -0.86239,-0.38133 -1.01513,-0.38133 -0.6082,0 -0.21619,0.42604 0.8859,0.96282 0.86979,0.42364 1.46726,0.53154 2.37604,0.42911 1.34219,-0.15129 2.81033,0.3132 2.81033,0.88913 0,0.46244 -0.26084,0.45083 -0.91046,-0.0405 -0.53964,-0.40816 -1.40172,-0.49988 -2.11736,-0.22527 -0.87041,0.33401 0.12215,0.89514 1.58337,0.89514 1.56019,0 2.30949,0.19978 2.08878,0.5569 -0.29042,0.46989 -3.11637,0.26085 -3.95162,-0.29231 -0.83211,-0.55109 -3.04271,-0.74331 -3.04271,-0.26459 0,0.14553 0.25743,0.26459 0.57207,0.26459 0.31464,0 1.08804,0.30238 1.71868,0.67196 1.03074,0.60405 1.2557,0.64258 2.22625,0.38123 0.81539,-0.21956 1.1734,-0.2129 1.46272,0.0272 0.53891,0.44726 0.34999,0.53996 -1.34437,0.65969 -1.20183,0.0849 -1.74296,-0.0223 -2.78981,-0.55279 -1.40114,-0.71001 -1.84554,-0.80585 -1.84554,-0.39801 0,0.53719 2.60428,1.59196 3.93065,1.59196 0.88891,0 1.5007,0.16077 1.92702,0.50639 0.80085,0.64926 0.45587,1.02685 -0.41614,0.45549 -0.36824,-0.24128 -1.19594,-0.43272 -1.87088,-0.43272 -0.70194,0 -1.66144,-0.23006 -2.28391,-0.54762 -0.59039,-0.30119 -1.15119,-0.46954 -1.24623,-0.3741 -0.34182,0.34326 1.02439,1.12692 2.26504,1.29922 1.85784,0.25802 3.96922,1.15832 4.12644,1.75954 0.15231,0.58242 -0.47424,0.71804 -0.69228,0.14985 -0.13489,-0.35151 -1.8252,-0.994 -3.58011,-1.3608 l -0.88311,-0.18458 0.45052,0.68758 c 0.3924,0.59888 0.63353,0.68758 1.8692,0.68758 1.21452,0 1.47995,0.0935 1.84446,0.64982 0.23418,0.35741 0.33845,0.79112 0.23172,0.96382 -0.12964,0.20976 -0.31567,0.0819 -0.56042,-0.38524 -0.32576,-0.62172 -0.52162,-0.69923 -1.767,-0.69923 -1.1373,0 -1.51308,-0.11968 -1.99864,-0.63654 -0.71935,-0.76571 -1.61091,-1.06164 -1.61091,-0.53469 0,0.2017 0.44648,0.59737 0.99219,0.87926 0.5457,0.2819 1.14202,0.76057 1.32516,1.06371 0.2373,0.39281 0.60339,0.55117 1.27416,0.55117 0.51766,0 1.16637,0.12051 1.44158,0.2678 0.60182,0.32209 0.98721,2.01982 0.55631,2.45072 -0.22059,0.22059 -0.29773,0.12789 -0.29773,-0.35777 0,-1.14275 -0.69816,-1.83158 -1.85638,-1.83158 -0.72962,0 -1.21045,-0.18014 -1.63864,-0.6139 -0.33332,-0.33764 -0.92243,-0.80942 -1.30914,-1.04838 -0.62836,-0.3883 -0.71978,-0.39105 -0.85989,-0.0259 -0.22794,0.59398 -0.23312,0.58891 0.69508,0.67925 0.6639,0.0646 1.01804,0.33103 1.60499,1.20739 0.41421,0.61846 0.91709,1.12448 1.1175,1.12448 0.45421,0 1.18814,1.01699 1.18814,1.64637 0,0.73414 -0.44874,0.55249 -0.74672,-0.30228 -0.17563,-0.50381 -0.48328,-0.80296 -0.88435,-0.8599 -0.391,-0.0555 -0.76589,-0.40762 -1.02918,-0.96665 -0.50394,-1.07002 -0.92737,-1.36029 -1.992,-1.36557 -1.1725,-0.006 -1.28211,0.27062 -0.30155,0.76052 0.63361,0.31656 0.88676,0.6478 0.98505,1.28893 0.10112,0.65953 0.35052,0.97128 1.05834,1.32291 0.73297,0.36413 0.94332,0.63933 1.00895,1.31994 0.0924,0.9585 -0.39431,1.20261 -0.52753,0.26458 -0.0525,-0.36976 -0.41174,-0.74568 -0.94813,-0.99219 -0.53216,-0.24456 -0.92237,-0.65072 -1.01678,-1.05833 -0.33251,-1.43568 -0.42607,-1.59184 -1.0471,-1.74771 -0.99725,-0.25029 -1.51904,0.0439 -1.18499,0.66806 0.1518,0.28363 0.27599,0.80273 0.27599,1.15354 0,0.63255 0.71982,1.51361 1.2366,1.51361 0.14789,0 0.45666,0.20836 0.68616,0.46302 0.54134,0.60071 0.87942,1.91823 0.49222,1.91823 -0.15853,0 -0.36241,-0.29556 -0.45308,-0.65681 -0.10172,-0.40529 -0.58493,-0.88786 -1.26181,-1.26014 -0.93777,-0.51577 -1.1087,-0.7439 -1.17788,-1.57201 -0.0754,-0.90242 -0.67897,-1.79247 -0.99873,-1.47271 -0.0774,0.0774 0.0588,0.75095 0.30266,1.49667 0.30685,0.93812 0.67571,1.49303 1.19725,1.80111 0.96284,0.56877 1.11938,1.00324 0.75704,2.10115 -0.40298,1.22102 -0.82432,1.12107 -0.62148,-0.14743 0.14433,-0.90263 0.0863,-1.07514 -0.4599,-1.36613 -0.8303,-0.44239 -1.21526,-0.99466 -1.41032,-2.02327 -0.18771,-0.98986 -0.49893,-1.25578 -1.0855,-0.92752 -0.35862,0.2007 -0.32042,0.29994 0.26249,0.68188 0.53931,0.35337 0.6822,0.66215 0.6822,1.47419 0,0.78644 0.21706,1.28701 0.92604,2.1356 0.50933,0.60962 0.92604,1.2162 0.92604,1.34795 0,0.53082 -0.49132,0.17105 -1.55921,-1.14172 -0.961,-1.18137 -1.10044,-1.50479 -0.96352,-2.23467 0.17559,-0.93597 -0.32213,-1.41114 -1.47812,-1.41114 -0.59105,0 -0.59009,0.006 0.11489,0.74208 0.5015,0.52345 0.71096,1.0217 0.71096,1.69111 0,0.7811 0.11237,0.97723 0.63502,1.10841 0.91509,0.22967 1.4855,2.01465 0.6438,2.01465 -0.12126,0 -0.22048,-0.23507 -0.22048,-0.52237 0,-0.31281 -0.31843,-0.68704 -0.79375,-0.93284 -0.64711,-0.33463 -0.79375,-0.57756 -0.79375,-1.31495 0,-1.11974 -1.10787,-2.56449 -1.59738,-2.08312 -0.23766,0.23371 -0.14816,0.41298 0.37847,0.75804 0.75264,0.49315 0.93784,1.62465 0.36042,2.20207 -0.26272,0.26271 -0.11975,0.50527 0.70678,1.19919 0.79881,0.67064 0.99135,0.98607 0.8407,1.37724 -0.19076,0.49529 -0.20226,0.49477 -0.48288,-0.0218 -0.1581,-0.29104 -0.64874,-0.83739 -1.09031,-1.2141 -0.76573,-0.65327 -0.78659,-0.72419 -0.45117,-1.53397 0.33518,-0.8092 0.31239,-0.88745 -0.48581,-1.66784 -0.8955,-0.87552 -1.49548,-0.83714 -0.6975,0.0446 0.37595,0.41543 0.44461,0.79755 0.3249,1.80831 -0.11855,1.0009 -0.0402,1.45086 0.35779,2.05457 0.54311,0.82387 0.68734,1.96364 0.24849,1.96364 -0.14552,0 -0.26459,-0.18998 -0.26459,-0.42218 0,-0.2322 -0.25232,-0.77654 -0.56073,-1.20965 -0.46071,-0.64701 -0.5307,-1.01383 -0.39238,-2.05651 0.13622,-1.02689 0.0709,-1.38928 -0.34254,-1.8992 -0.65249,-0.80484 -0.90062,-0.56599 -0.5039,0.48505 0.2556,0.67716 0.23234,0.93108 -0.13689,1.4946 -0.58971,0.90001 -0.56456,1.14023 0.21665,2.06864 0.65434,0.77763 0.91893,2.333 0.39688,2.333 -0.14552,0 -0.26459,-0.29766 -0.26459,-0.66146 0,-0.3638 -0.22911,-0.89057 -0.50914,-1.1706 -0.9877,-0.9877 -1.14293,-1.54885 -0.65634,-2.3726 0.51299,-0.86842 0.33041,-2.14534 -0.30675,-2.14534 -0.31959,0 -0.36693,0.19668 -0.22694,0.94287 0.12724,0.67824 0.0398,1.19738 -0.3115,1.84972 -0.42877,0.79619 -0.44562,1.01208 -0.13808,1.76911 0.56212,1.38368 0.67954,2.13641 0.31427,2.01465 -0.17703,-0.059 -0.31053,-0.19486 -0.29667,-0.30188 0.0139,-0.10703 -0.1558,-0.54463 -0.37703,-0.97244 -0.51532,-0.99652 -0.51014,-1.94463 0.0162,-2.96242 0.60721,-1.1742 0.31136,-2.07503 -0.68148,-2.07503 -0.73027,0 -0.76504,0.045 -0.52412,0.67868 0.36566,0.96178 0.31982,2.13853 -0.11616,2.98162 -0.20581,0.39799 -0.45743,1.1673 -0.55916,1.70958 -0.21333,1.13711 -0.65415,1.5753 -0.65415,0.65024 z m -9.24348,-10.93531 c 0.61593,-0.74216 0.0809,-0.82713 -0.76037,-0.12076 -0.83682,0.70262 -0.84599,0.72961 -0.20651,0.60736 0.36806,-0.0704 0.80315,-0.28933 0.96688,-0.4866 z m -1.60444,-4.87439 c 0,-0.14552 -0.29063,-0.26459 -0.64584,-0.26459 -0.35521,0 -0.71943,0.11907 -0.80936,0.26459 -0.0954,0.15436 0.17364,0.26458 0.64584,0.26458 0.44515,0 0.80936,-0.11906 0.80936,-0.26458 z m 26.52713,-4.69388 c -0.47148,-0.23468 -0.94428,-0.33966 -1.05067,-0.23327 -0.28015,0.28014 0.47514,0.68785 1.24646,0.67284 0.62918,-0.0122 0.61963,-0.0337 -0.19579,-0.43957 z m -26.52713,-2.25843 c 0,-0.23608 -0.32809,-0.30643 -1.09021,-0.23375 -0.74528,0.0711 -0.97548,0.17664 -0.7276,0.33367 0.55716,0.35295 1.81781,0.28366 1.81781,-0.0999 z m 26.4057,-3.77054 c -0.16664,-0.16389 -1.53486,0.21156 -1.53486,0.42118 0,0.12099 0.36326,0.0933 0.80725,-0.0614 0.44399,-0.15477 0.77142,-0.31666 0.72761,-0.35974 z m -0.60735,-1.71419 c 0.53798,-0.59447 0.49759,-0.71542 -0.26605,-0.79673 -1.28379,-0.13668 -2.49928,0.44386 -2.14148,1.0228 0.31277,0.50606 1.87796,0.35909 2.40753,-0.22607 z m -19.98156,-2.57807 c -0.002,-0.10914 -0.11947,-0.37703 -0.26054,-0.59531 -0.2074,-0.32093 -0.25725,-0.28295 -0.26053,0.19844 -0.002,0.32742 0.11501,0.59531 0.26053,0.59531 0.14552,0 0.26276,-0.0893 0.26054,-0.19844 z m 11.94484,-1.87162 c 0.19439,-0.52551 0.16211,-0.55804 -0.30546,-0.3078 -0.28756,0.1539 -0.52283,0.46414 -0.52283,0.68943 0,0.58099 0.56921,0.31873 0.82829,-0.38163 z"
       id="path1"
       sodipodi:nodetypes="ssssssssssssssscssscsssssssssssccsssscsssssssssssssssssscssscsssccsssscsssssssscsssssscsssssssssssssssssssscsssssscssscsssssccssssscssssssssscssssscsssssssssssssssssssssssssssscscsssssssssssssssssscscscsssssssssssssssssssssscssssscsssssssscsssssccsssssssssssssscssssssscsssscsssssssssssssssssssssssssssssssssscssssssssssscscssssssssssssssssscssssssscssssssssssssssssssssssssssscssssssssssssssssssssssssscssssssssssssssssscssssssssssssscsssssssssssssssssssssscsssssssssssssssssssssssssssssssscsssssssscsssssscscscssss" /></g></svg>
