<?xml version="1.0" encoding="UTF-8" standalone="no"?>
<!-- Created with Inkscape (http://www.inkscape.org/) -->

<svg
   xmlns:dc="http://purl.org/dc/elements/1.1/"
   xmlns:cc="http://creativecommons.org/ns#"
   xmlns:rdf="http://www.w3.org/1999/02/22-rdf-syntax-ns#"
   xmlns:svg="http://www.w3.org/2000/svg"
   xmlns="http://www.w3.org/2000/svg"
   xmlns:sodipodi="http://sodipodi.sourceforge.net/DTD/sodipodi-0.dtd"
   xmlns:inkscape="http://www.inkscape.org/namespaces/inkscape"
   width="2944.4648"
   height="2944.4648"
   viewBox="0 0 779.05633 779.05634"
   version="1.1"
   id="svg8"
   inkscape:version="0.92.4 (5da689c313, 2019-01-14)"
   sodipodi:docname="Uranus_with_rings-top.svg"
   inkscape:export-filename="G:\Pictures\My Pictures\Vectors and SVGs\Space\Uranus.png"
   inkscape:export-xdpi="96"
   inkscape:export-ydpi="96">
  <defs
     id="defs2" />
  <sodipodi:namedview
     id="base"
     pagecolor="#000720"
     bordercolor="#666666"
     borderopacity="1.0"
     inkscape:pageopacity="0"
     inkscape:pageshadow="2"
     inkscape:zoom="0.1767767"
     inkscape:cx="619.48666"
     inkscape:cy="1309.4322"
     inkscape:document-units="mm"
     inkscape:current-layer="layer1"
     showgrid="false"
     inkscape:pagecheckerboard="true"
     inkscape:showpageshadow="false"
     borderlayer="true"
     units="px"
     inkscape:snap-object-midpoints="true"
     inkscape:window-width="1366"
     inkscape:window-height="713"
     inkscape:window-x="0"
     inkscape:window-y="0"
     inkscape:window-maximized="1"
     inkscape:snap-page="true"
     inkscape:snap-global="false"
     inkscape:snap-center="true"
     fit-margin-top="0"
     fit-margin-left="0"
     fit-margin-right="0"
     fit-margin-bottom="0" />
  <metadata
     id="metadata5">
    <rdf:RDF>
      <cc:Work
         rdf:about="">
        <dc:format>image/svg+xml</dc:format>
        <dc:type
           rdf:resource="http://purl.org/dc/dcmitype/StillImage" />
        <dc:title />
      </cc:Work>
    </rdf:RDF>
  </metadata>
  <g
     inkscape:label="Layer 1"
     inkscape:groupmode="layer"
     id="layer1"
     transform="translate(204.31982,489.40318)">
    <path
       style="opacity:1;fill:#555555;fill-opacity:1;fill-rule:nonzero;stroke:none;stroke-width:5;stroke-linecap:round;stroke-linejoin:round;stroke-miterlimit:4;stroke-dasharray:none;stroke-dashoffset:0;stroke-opacity:1;paint-order:markers stroke fill"
       d="M 370.3651,-99.875022 A 185.15675,185.15675 0 0 1 185.20834,85.281735 185.15675,185.15675 0 0 1 0.05158633,-99.875022 185.15675,185.15675 0 0 1 185.20834,-285.03177 185.15675,185.15675 0 0 1 370.3651,-99.875022 Z"
       id="path828"
       inkscape:connector-curvature="0" />
    <path
       style="opacity:1;fill:#555555;fill-opacity:1;fill-rule:nonzero;stroke:none;stroke-width:5;stroke-linecap:round;stroke-linejoin:round;stroke-miterlimit:4;stroke-dasharray:none;stroke-dashoffset:0;stroke-opacity:1;paint-order:markers stroke fill"
       d="M 185.20834,-465.4558 A 365.58069,365.58069 0 0 0 -180.37245,-99.87502 365.58069,365.58069 0 0 0 185.20834,265.70577 365.58069,365.58069 0 0 0 550.78913,-99.87502 365.58069,365.58069 0 0 0 185.20834,-465.4558 Z m 0.0517,5.76968 a 355.05215,355.05215 0 0 1 355.0522,355.05223 355.05215,355.05215 0 0 1 -355.05223,355.05169 355.05215,355.05215 0 0 1 -355.05222,-355.05169 355.05215,355.05215 0 0 1 355.05222,-355.05223 z"
       id="path820"
       inkscape:connector-curvature="0" />
    <path
       style="opacity:1;fill:#555555;fill-opacity:1;fill-rule:nonzero;stroke:none;stroke-width:5;stroke-linecap:round;stroke-linejoin:round;stroke-miterlimit:4;stroke-dasharray:none;stroke-dashoffset:0;stroke-opacity:1;paint-order:markers stroke fill"
       d="M 185.20834,-489.40318 A 389.52802,389.52802 0 0 0 -204.31982,-99.87502 389.52802,389.52802 0 0 0 185.20834,289.65313 389.52802,389.52802 0 0 0 574.73649,-99.87502 389.52802,389.52802 0 0 0 185.20834,-489.40318 Z m 0,14.96704 A 374.56094,374.56094 0 0 1 559.76946,-99.87502 374.56094,374.56094 0 0 1 185.20834,274.6861 374.56094,374.56094 0 0 1 -189.35278,-99.87502 374.56094,374.56094 0 0 1 185.20834,-474.43614 Z"
       id="path824"
       inkscape:connector-curvature="0" />
  </g>
</svg>
