<?xml version="1.0" encoding="UTF-8" standalone="no"?>
<!-- Created with Inkscape (http://www.inkscape.org/) -->

<svg
   width="4000"
   height="1100"
   viewBox="0 0 1058.3333 291.04167"
   version="1.1"
   id="svg1"
   xml:space="preserve"
   inkscape:version="1.3 (0e150ed6c4, 2023-07-21)"
   sodipodi:docname="Airliner-Without Landing Gear1.svg"
   inkscape:export-filename="Airliner-Without Landing Gear1.png"
   inkscape:export-xdpi="96"
   inkscape:export-ydpi="96"
   xmlns:inkscape="http://www.inkscape.org/namespaces/inkscape"
   xmlns:sodipodi="http://sodipodi.sourceforge.net/DTD/sodipodi-0.dtd"
   xmlns="http://www.w3.org/2000/svg"
   xmlns:svg="http://www.w3.org/2000/svg"><sodipodi:namedview
     id="namedview1"
     pagecolor="#505050"
     bordercolor="#ffffff"
     borderopacity="1"
     inkscape:showpageshadow="0"
     inkscape:pageopacity="0"
     inkscape:pagecheckerboard="1"
     inkscape:deskcolor="#505050"
     inkscape:document-units="mm"
     inkscape:zoom="0.125"
     inkscape:cx="1856"
     inkscape:cy="1476"
     inkscape:window-width="1600"
     inkscape:window-height="837"
     inkscape:window-x="-8"
     inkscape:window-y="-8"
     inkscape:window-maximized="1"
     inkscape:current-layer="layer1"
     showguides="true" /><defs
     id="defs1"><inkscape:path-effect
       effect="fillet_chamfer"
       id="path-effect90"
       is_visible="true"
       lpeversion="1"
       nodesatellites_param="F,0,0,1,0,0.079375,0,1 @ F,0,0,1,0,0.079375,0,1 @ F,0,0,1,0,0.079375,0,1 @ F,0,0,1,0,0.079375,0,1 @ F,0,0,1,0,0.079375,0,1"
       radius="0.3"
       unit="px"
       method="auto"
       mode="F"
       chamfer_steps="1"
       flexible="false"
       use_knot_distance="true"
       apply_no_radius="true"
       apply_with_radius="true"
       only_selected="false"
       hide_knots="false" /><inkscape:path-effect
       effect="fillet_chamfer"
       id="path-effect89"
       is_visible="true"
       lpeversion="1"
       nodesatellites_param="F,0,0,1,0,0.079375,0,1 @ F,0,0,1,0,0.079375,0,1 @ F,0,0,1,0,0.079375,0,1 @ F,0,0,1,0,0.079375,0,1"
       radius="0.3"
       unit="px"
       method="auto"
       mode="F"
       chamfer_steps="1"
       flexible="false"
       use_knot_distance="true"
       apply_no_radius="true"
       apply_with_radius="true"
       only_selected="false"
       hide_knots="false" /><inkscape:path-effect
       effect="fillet_chamfer"
       id="path-effect88"
       is_visible="true"
       lpeversion="1"
       nodesatellites_param="F,0,1,1,0,0.13229167,0,1 @ F,0,1,1,0,0.13229167,0,1 @ F,0,0,1,0,0,0,1 @ F,0,0,1,0,0,0,1"
       radius="0.5"
       unit="px"
       method="auto"
       mode="F"
       chamfer_steps="1"
       flexible="false"
       use_knot_distance="true"
       apply_no_radius="true"
       apply_with_radius="true"
       only_selected="true"
       hide_knots="false" /><inkscape:path-effect
       effect="fillet_chamfer"
       id="path-effect86"
       is_visible="true"
       lpeversion="1"
       nodesatellites_param="F,0,0,1,0,0.396875,0,1 @ F,0,0,1,0,0.396875,0,1 @ F,0,0,1,0,0.396875,0,1 @ F,0,0,1,0,0.396875,0,1"
       radius="1.5"
       unit="px"
       method="auto"
       mode="F"
       chamfer_steps="1"
       flexible="false"
       use_knot_distance="true"
       apply_no_radius="true"
       apply_with_radius="true"
       only_selected="false"
       hide_knots="false" /><inkscape:path-effect
       effect="fillet_chamfer"
       id="path-effect84"
       is_visible="true"
       lpeversion="1"
       nodesatellites_param="F,0,0,1,0,0.396875,0,1 @ F,0,0,1,0,0.396875,0,1 @ F,0,0,1,0,0.396875,0,1 @ F,0,0,1,0,0.396875,0,1"
       radius="1.5"
       unit="px"
       method="auto"
       mode="F"
       chamfer_steps="1"
       flexible="false"
       use_knot_distance="true"
       apply_no_radius="true"
       apply_with_radius="true"
       only_selected="false"
       hide_knots="false" /></defs><g
     inkscape:label="Layer 1"
     inkscape:groupmode="layer"
     id="layer1"><g
       id="g157"
       transform="matrix(6.1466648,0,0,6.1466648,-671.24331,-670.42899)"><path
         style="fill:#f5f5f5;fill-opacity:1;stroke:none;stroke-width:0.0899999;stroke-linecap:round;stroke-linejoin:round;stroke-dasharray:none;stroke-opacity:0.199248;paint-order:markers stroke fill"
         d="m 161.48091,136.48118 -0.58466,-1.333 h 0.32741 l 1.28623,1.73057 z"
         id="path156" /><path
         id="path157"
         style="fill:#fafafa;fill-opacity:1;stroke:none;stroke-width:0.0899999;stroke-linecap:round;stroke-linejoin:round;stroke-dasharray:none;stroke-opacity:0.199248;paint-order:markers stroke fill"
         d="m 161.09146,135.14834 0.9493,1.54926 0.46922,0.18138 -1.28623,-1.73064 z" /></g><g
       id="g155"
       transform="matrix(6.1466648,0,0,6.1466648,-590.79764,-672.66516)"><path
         style="fill:#f5f5f5;fill-opacity:1;stroke:none;stroke-width:0.0899999;stroke-linecap:round;stroke-linejoin:round;stroke-dasharray:none;stroke-opacity:0.199248;paint-order:markers stroke fill"
         d="m 161.48091,136.48118 -0.58466,-1.333 h 0.32741 l 1.28623,1.73057 z"
         id="path154" /><path
         id="path155"
         style="fill:#fafafa;fill-opacity:1;stroke:none;stroke-width:0.0899999;stroke-linecap:round;stroke-linejoin:round;stroke-dasharray:none;stroke-opacity:0.199248;paint-order:markers stroke fill"
         d="m 161.09146,135.14834 0.9493,1.54926 0.46922,0.18138 -1.28623,-1.73064 z" /></g><g
       id="g154"
       transform="matrix(6.1466648,0,0,6.1466648,-110.2982,-672.66516)"><path
         style="fill:#f5f5f5;fill-opacity:1;stroke:none;stroke-width:0.0899999;stroke-linecap:round;stroke-linejoin:round;stroke-dasharray:none;stroke-opacity:0.199248;paint-order:markers stroke fill"
         d="m 161.48091,136.48118 -0.58466,-1.333 h 0.32741 l 1.28623,1.73057 z"
         id="path152" /><path
         id="path153"
         style="fill:#fafafa;fill-opacity:1;stroke:none;stroke-width:0.0899999;stroke-linecap:round;stroke-linejoin:round;stroke-dasharray:none;stroke-opacity:0.199248;paint-order:markers stroke fill"
         d="m 161.09146,135.14834 0.9493,1.54926 0.46922,0.18138 -1.28623,-1.73064 z" /></g><path
       style="fill:#138fff;fill-opacity:1;stroke-width:4.24119;stroke-linecap:square;paint-order:markers stroke fill"
       d="m 253.29007,165.66555 c -5.88666,-4.84788 -15.92862,-3.46279 -37.39765,-15.23611 C 194.4234,138.65612 185.42026,128.26788 178.84105,121.34238 172.26183,114.41687 76.690064,17.806302 71.149664,11.227097 65.609269,4.6478909 61.453976,6.0329799 56.606138,6.0329799 c -4.847844,0 -38.78275,0 -38.78275,0 L 75.99752,168.08942 Z"
       id="path2" /><path
       id="path158"
       style="fill:#2542ff;fill-opacity:0.486842;stroke:none;stroke-width:0.553199;stroke-linecap:round;stroke-linejoin:round;stroke-dasharray:none;stroke-opacity:0.199248;paint-order:markers stroke fill"
       d="M 83.473511,29.968524 A 48.298794,48.298794 0 0 0 38.01638,62.284983 l 20.560686,57.276397 a 48.298794,48.298794 0 0 0 24.896445,7.00394 48.298794,48.298794 0 0 0 48.296809,-48.299992 48.298794,48.298794 0 0 0 -0.27636,-5.10124 C 115.81199,57.226093 101.84418,43.002772 89.511792,30.359206 a 48.298794,48.298794 0 0 0 -6.038293,-0.390928 z" /><path
       id="path159"
       style="color:#000000;fill:#138fff;fill-opacity:1;stroke:none;stroke-width:7.92532;stroke-linecap:round;stroke-linejoin:round;-inkscape-stroke:none;paint-order:markers stroke fill"
       d="m 100.10502,63.730248 a 8.6782093,8.6782093 0 0 0 -2.232995,0.397074 L 44.731237,80.990697 50.594829,97.326805 103.1194,80.673099 a 8.6782093,8.6782093 0 0 0 5.65078,-10.894963 8.6782093,8.6782093 0 0 0 -8.66516,-6.047827 z" /><path
       id="path143"
       style="fill:#ffffff;fill-opacity:0.114662;stroke:none;stroke-width:0.553199;stroke-linecap:round;stroke-linejoin:round;stroke-dasharray:none;stroke-opacity:0.199248;paint-order:markers stroke fill"
       d="m 60.146199,5.9201889 c -1.157853,0.02459 -2.326531,0.114328 -3.538487,0.114328 H 25.682507 C 54.610839,34.451594 112.04684,90.793398 139.33963,116.49936 c 34.87819,32.85036 90.31405,41.50252 107.99682,49.24972 l 5.95253,-0.0824 C 247.40232,160.81881 237.3625,162.20292 215.89349,150.42959 194.4245,138.6563 185.42026,128.26905 178.84105,121.34354 172.26184,114.41804 76.68956,17.807286 71.149166,11.22808 66.993873,6.2936609 63.619759,5.8391759 60.146199,5.9203739 Z" /><ellipse
       style="fill:#ff2d2d;fill-opacity:1;stroke:none;stroke-width:0.553199;stroke-linecap:round;stroke-linejoin:round;stroke-dasharray:none;stroke-opacity:0.199248;paint-order:markers stroke fill"
       id="path151"
       cx="635.05774"
       cy="164.7803"
       rx="2.4394577"
       ry="1.2197288" /><path
       style="fill:#f5f5f5;fill-opacity:1;stroke-width:4.24119;stroke-linecap:square;paint-order:markers stroke fill"
       d="m 1030.8497,204.96769 c 23.2976,10.1683 11.4187,22.46993 -3.636,29.08706 -40.79665,17.93179 -69.25491,28.22137 -197.72273,28.22137 h -68.56236 c -10.38823,0 -47.43965,6.5792 -63.36824,6.5792 H 519.57519 c -25.27803,0 -72.37137,-7.61799 -79.64313,-7.61799 h -51.24863 c -38.43649,0 -91.41648,-6.23296 -154.43845,-21.46907 -63.02197,-15.23604 -99.3808,-31.85724 -135.047065,-40.86038 -35.666286,-9.00315 -54.365111,-15.23605 -55.750213,-16.96744 -1.385095,-1.73139 -1.558234,-13.67787 0,-15.23611 1.558235,-1.55824 107.691388,-2.07763 209.149818,-2.07763 h 574.12321 c 81.37453,0 108.03766,2.77018 137.47102,8.3106 29.43331,5.54042 43.26445,13.58701 47.18215,17.74954 3.9176,4.16246 8.3253,8.48024 9.5492,9.36561 1.2239,0.88536 6.231,3.30229 9.9266,4.91524 z"
       id="path1"
       sodipodi:nodetypes="sssssssssssssssszs" /><path
       id="path141"
       style="fill:#000000;fill-opacity:0.0469925;stroke:none;stroke-width:0.553199;stroke-linecap:round;stroke-linejoin:round;stroke-dasharray:none;stroke-opacity:0.199248;paint-order:markers stroke fill"
       d="m 993.24193,191.39518 c -0.93435,0 -2.39566,0.96416 -3.77356,1.75973 -1.37783,0.7955 -1.97572,0.96945 -1.97572,1.97566 v 4.24046 c 0,0.8625 -0.21513,2.1568 1.00695,2.1568 h 10.56464 c 7.29116,0 12.42346,-0.91751 22.11076,-1.31188 -0.08,-0.0492 -0.1893,-0.1174 -0.2508,-0.16227 -1.1538,-0.83472 -5.1363,-4.72863 -8.8716,-8.65881 z" /><path
       style="color:#000000;fill:#c4c4c4;fill-opacity:1;stroke-width:6.14666;stroke-linecap:round;stroke-linejoin:round;-inkscape-stroke:none;paint-order:markers stroke fill"
       d="m 253.20732,179.38023 c 1.49591,0 2.61559,1.22601 2.5331,2.7132 -0.20407,3.68191 -0.5157,12.39026 -0.54029,31.38161 -0.002,1.34323 -1.15994,2.22768 -2.44908,2.43703 a 0.27662758,0.27662758 0 0 1 -0.2643,0.27599 h -15.54676 c -1.49678,0 -2.71941,-1.22774 -2.71314,-2.72519 0.0725,-17.39346 0.91419,-27.25787 1.3806,-31.4416 0.16473,-1.4795 1.51964,-2.64116 3.01328,-2.64116 z m 0,0.55197 h -14.58634 c -1.20094,0 -2.3428,0.97898 -2.47305,2.14894 -0.46408,4.16098 -1.29615,14.00505 -1.36862,31.38161 -0.005,1.19706 0.96312,2.17297 2.16092,2.17297 h 15.54676 c 1.19836,0 2.15939,-0.96896 2.16092,-2.16092 0.0246,-18.99719 0.335,-27.70671 0.5403,-31.40565 0.0664,-1.20038 -0.78235,-2.13695 -1.98083,-2.13695 z"
       id="path85" /><path
       style="color:#000000;fill:#c4c4c4;fill-opacity:1;stroke-width:6.14666;stroke-linecap:round;stroke-linejoin:round;-inkscape-stroke:none;paint-order:markers stroke fill"
       d="m 455.79522,180.36468 c -1.32344,0 -2.40104,1.07757 -2.40104,2.40101 v 30.61328 c 0,1.32344 1.0776,2.40107 2.40104,2.40107 h 16.95135 c 1.32345,0 2.38904,-1.07763 2.38904,-2.40107 v -30.61328 c 0,-1.32344 -1.06559,-2.40101 -2.38904,-2.40101 z m 0,0.55197 h 16.95135 c 1.02655,0 1.8368,0.82224 1.8368,1.84879 v 30.61328 c 0,1.02656 -0.81025,1.8488 -1.8368,1.8488 h -16.95135 c -1.02654,0 -1.8488,-0.82224 -1.8488,-1.8488 v -30.61328 c 0,-1.02655 0.82226,-1.84879 1.8488,-1.84879 z"
       id="rect85" /><path
       style="color:#000000;fill:#c4c4c4;fill-opacity:1;stroke-width:6.14666;stroke-linecap:round;stroke-linejoin:round;-inkscape-stroke:none;paint-order:markers stroke fill"
       d="m 785.29006,180.36468 c -1.32344,0 -2.40101,1.07757 -2.40101,2.40101 v 30.61328 c 0,1.32344 1.07757,2.40107 2.40101,2.40107 h 16.95139 c 1.32344,0 2.40101,-1.07763 2.40101,-2.40107 v -30.61328 c 0,-1.32344 -1.07757,-2.40101 -2.40101,-2.40101 z m 0,0.55197 h 16.95139 c 1.02656,0 1.83681,0.82224 1.83681,1.84879 v 30.61328 c 0,1.02656 -0.81025,1.8488 -1.83681,1.8488 h -16.95139 c -1.02649,0 -1.84879,-0.82224 -1.84879,-1.8488 v -30.61328 c 0,-1.02655 0.8223,-1.84879 1.84879,-1.84879 z"
       id="rect84" /><path
       style="color:#000000;fill:#c4c4c4;fill-opacity:1;stroke-width:6.14666;stroke-linecap:round;stroke-linejoin:round;-inkscape-stroke:none;paint-order:markers stroke fill"
       d="m 933.8185,179.38023 c -0.74129,0 -1.33739,0.2766 -1.66876,0.76833 -0.3313,0.49174 -0.38109,1.15804 -0.1801,1.86078 1.01771,3.56163 2.62303,12.22947 2.74916,31.4657 0.0123,1.49499 1.22853,2.71314 2.72519,2.71314 h 15.54676 c 1.49677,0 2.71817,-1.22663 2.70115,-2.72519 -0.19915,-17.55561 -2.51368,-27.45924 -3.78162,-31.59766 -0.43825,-1.43138 -2.02028,-2.4851 -3.50556,-2.4851 z m 0,0.55197 h 14.58628 c 1.20936,0 2.6309,0.95814 2.97732,2.08894 1.25085,4.08268 3.5588,13.94433 3.75764,31.45366 0.0123,1.19577 -0.95113,2.16092 -2.14893,2.16092 h -15.54676 c -1.19786,0 -2.15306,-0.9748 -2.16092,-2.17297 -0.12663,-19.26598 -1.74492,-27.96905 -2.78524,-31.60972 -0.16842,-0.58946 -0.099,-1.0673 0.11986,-1.39258 0.21943,-0.32516 0.59438,-0.528 1.20056,-0.528 z"
       id="path84" /><path
       id="path10"
       style="fill:#61849d;fill-opacity:1;stroke-width:4.24119;stroke-linecap:square;paint-order:markers stroke fill"
       d="m 1008.4729,192.89705 5.3105,6.22996 a 1.7616223,1.7616223 0 0 0 1.3407,0.61884 h 5.4189 c -1.3516,-1.11494 -4.487,-4.18545 -7.6424,-7.46764 h -4.142 a 0.37534553,0.37534553 0 0 0 -0.2858,0.61884 z" /><path
       style="fill:#61849d;fill-opacity:1;stroke-width:3.93886;stroke-linecap:square;paint-order:markers stroke fill"
       d="m 1000.6003,200.23783 v -7.47176 a 0.48789152,0.48789152 0 0 1 0.488,-0.48805 h 4.8755 a 1.0396128,1.0396128 0 0 1 0.7997,0.37495 l 5.7113,6.87486 a 0.24935114,0.24935114 0 0 1 -0.1751,0.40814 l -11.2127,0.75653 a 0.45608345,0.45608345 0 0 1 -0.4868,-0.45485 z"
       id="path11"
       sodipodi:nodetypes="ccccc" /><path
       style="fill:#61849d;fill-opacity:1;stroke-width:4.29845;stroke-linecap:square;paint-order:markers stroke fill"
       d="m 999.42228,192.76607 v 7.47176 a 0.48789152,0.48789152 0 0 1 -0.48804,0.48805 h -9.96645 a 0.48789152,0.48789152 0 0 1 -0.48805,-0.48805 v -4.80411 a 0.91631135,0.91631135 0 0 1 0.40507,-0.76022 l 3.15521,-2.12293 a 1.5991292,1.5991292 0 0 1 0.89268,-0.2723 h 6.0016 a 0.48789152,0.48789152 0 0 1 0.48804,0.48804 z"
       id="path12"
       sodipodi:nodetypes="cccccc" /><path
       id="path142"
       style="fill:#ffffff;fill-opacity:0.342105;stroke:none;stroke-width:0.553199;stroke-linecap:round;stroke-linejoin:round;stroke-dasharray:none;stroke-opacity:0.199248;paint-order:markers stroke fill"
       d="m 252.59653,164.62787 c -101.45833,0 -207.590316,0.51939 -209.148545,2.07732 -0.21206,0.21206 -0.314525,0.97658 -0.463766,1.52149 21.218662,3.85758 71.752661,12.38786 104.887151,12.38786 H 867.1779 c 99.47239,0 147.1967,18.54252 153.3777,22.13617 5.9561,3.46279 22.1689,9.05748 23.3528,14.34773 -0.4272,-4.06504 -4.1727,-8.25251 -13.0581,-12.13063 -3.6956,-1.61294 -8.7023,-4.02846 -9.9262,-4.91383 -1.2238,-0.88536 -5.6337,-5.20468 -9.5514,-9.36714 -3.9176,-4.16253 -17.74863,-12.20919 -47.18193,-17.74961 -29.43331,-5.54041 -56.096,-8.30936 -137.47041,-8.30936 z" /><circle
       style="fill:#a7a7a7;fill-opacity:1;stroke:none;stroke-width:0.553199;stroke-linecap:round;stroke-linejoin:round;stroke-dasharray:none;stroke-opacity:0.535714;paint-order:markers stroke fill"
       id="circle88"
       cx="239.58398"
       cy="198.98839"
       r="1.0876032" /><path
       style="fill:#7f7f7f;fill-opacity:1;stroke-width:4.24119;stroke-linecap:square;paint-order:markers stroke fill"
       d="m 157.7183,186.44201 c 0,10.04193 -1.73138,10.38823 -5.5404,12.81217 -3.80902,2.42388 -11.42705,6.57921 -23.54666,1.73133 -12.1196,-4.84781 -24.93177,-10.73447 -25.27804,-13.85095 -0.3463,-3.11649 12.81216,-12.11963 23.2004,-15.58235 10.38823,-3.46279 19.39136,-3.11649 22.85411,0.69254 3.46276,3.80903 6.23294,3.11648 7.61804,4.15527 1.3851,1.03885 0.69255,4.15533 0.69255,10.04199 z"
       id="path3" /><path
       id="path146"
       style="fill:#717171;fill-opacity:1;stroke-width:4.24119;stroke-linecap:square;paint-order:markers stroke fill"
       d="m 121.54874,173.54391 c -9.16232,4.14685 -18.48655,10.96159 -18.19429,13.59175 0.0338,0.30549 0.18957,0.63876 0.45105,0.99416 4.95329,0.2637 10.83406,0.47022 17.54948,0.47022 9.85463,0 17.63723,0.12355 23.04779,-0.0615 2.70528,-0.0922 4.80207,-0.2514 6.4004,-0.58762 0.79917,-0.16781 1.47939,-0.35405 2.1377,-0.75598 0.65831,-0.40199 1.39126,-1.29203 1.39126,-2.31877 0,-0.99097 -0.47545,-2.12318 -1.24832,-2.80792 -0.77287,-0.68474 -1.67248,-1.05956 -2.78568,-1.44207 -2.22641,-0.76501 -5.46995,-1.49266 -10.45664,-2.86828 -3.13397,-0.86453 -10.18806,-2.44502 -18.29275,-4.21507 z" /><path
       id="path93"
       style="fill:#000000;fill-opacity:0.04;stroke:none;stroke-width:0.553199;stroke-linecap:round;stroke-linejoin:round;stroke-dasharray:none;stroke-opacity:0.199248;paint-order:markers stroke fill"
       d="m 42.406132,173.08973 c -0.07831,3.76557 0.264245,7.87732 1.041853,8.84936 1.385096,1.73139 20.08234,7.96509 55.74859,16.96823 35.666225,9.00309 72.024935,25.62483 135.046845,40.86088 63.02191,15.23611 116.00219,21.46913 154.43863,21.46913 h 51.25085 c 7.27175,0 54.3633,7.61695 79.64131,7.61695 h 177.98512 c 15.92859,0 52.9805,-6.57828 63.36873,-6.57828 h 68.56211 c 128.4677,0 156.92651,-10.29032 197.72313,-28.22211 8.8305,-3.88131 16.5079,-9.72064 16.6951,-15.93584 -3.395,15.1471 -117.72467,29.76897 -246.3027,29.76897 -129.37162,0 -296.13451,2.53618 -398.46702,-4.02446 C 298.36557,237.40192 57.686433,185.31883 42.406132,173.08973 Z" /><path
       id="path149"
       style="fill:#000000;fill-opacity:0.0225564;stroke:none;stroke-width:0.553199;stroke-linecap:round;stroke-linejoin:round;stroke-dasharray:none;stroke-opacity:0.199248;paint-order:markers stroke fill"
       d="m 372.73664,164.62787 13.80136,14.07764 150.02663,37.40504 127.66496,23.98803 -6.9118,-22.76829 c -1.62629,0 -247.19837,-40.65767 -255.32989,-43.91023 -5.29357,-2.11747 -11.83127,-5.88839 -16.68551,-8.79219 z" /><path
       id="path95"
       style="fill:#000000;fill-opacity:0.04;stroke:none;stroke-width:0.553199;stroke-linecap:round;stroke-linejoin:round;stroke-dasharray:none;stroke-opacity:0.199248;paint-order:markers stroke fill"
       d="m 577.0984,221.72639 -57.21292,1.43573 c -18.39952,-0.57471 -97.60403,6.46802 -102.7789,20.55519 -4.72695,12.86786 6.13633,14.9418 16.47356,17.52002 h 6.35276 c 7.27175,0 54.3633,7.61695 79.64131,7.61695 h 84.02154 z"
       sodipodi:nodetypes="ccscsscc" /><path
       id="path96"
       style="fill:#000000;fill-opacity:0.04;stroke:none;stroke-width:0.553199;stroke-linecap:round;stroke-linejoin:round;stroke-dasharray:none;stroke-opacity:0.199248;paint-order:markers stroke fill"
       d="m 663.83258,213.96653 c -11.77382,-0.18379 -24.31449,0.65978 -36.71262,2.00744 l 48.97343,52.88031 h 21.46594 c 15.92859,0 52.9805,-6.57828 63.36873,-6.57828 h 4.29443 c 9.8126,-7.25325 -24.57621,-28.9259 -42.6554,-38.96845 -9.06737,-5.0367 -23.91679,-8.79698 -58.73451,-9.34102 z"
       sodipodi:nodetypes="sccsscss" /><path
       id="path5"
       style="fill:#ffffff;fill-opacity:1;stroke-width:4.24119;stroke-linecap:square;paint-order:markers stroke fill"
       d="m 660.67522,216.39323 c -45.14006,0.25939 -115.64841,4.41552 -151.48777,7.7917 -47.78582,4.50157 -56.79108,5.88826 -74.79733,11.08237 -17.74551,5.11889 -27.99944,18.29721 4.18646,25.97003 h 1.35632 c 7.27175,0 54.3633,7.61695 79.64131,7.61695 h 177.98512 c 14.44159,0 45.31659,-5.18416 58.87097,-6.19393 8.13775,-1.28521 11.1002,-4.67737 -1.04186,-14.58272 -13.15841,-10.73447 -31.51198,-26.66196 -60.25268,-30.47098 -7.18521,-0.95225 -19.41381,-1.29996 -34.46054,-1.21342 z" /><path
       id="rect12"
       style="fill:#61849d;fill-opacity:1;stroke-width:4.24119;stroke-linecap:square;paint-order:markers stroke fill"
       d="m 265.19086,194.75261 c -1.17499,0 -2.12182,0.94683 -2.12182,2.12183 v 1.55639 c 0,1.175 0.94683,2.12183 2.12182,2.12183 1.175,0 2.12182,-0.94683 2.12182,-2.12183 v -1.55639 c 0,-1.175 -0.94682,-2.12183 -2.12182,-2.12183 z m 9.19879,0 c -1.17499,0 -2.12182,0.94683 -2.12182,2.12183 v 1.55639 c 0,1.175 0.94683,2.12183 2.12182,2.12183 1.175,0 2.11864,-0.94683 2.11864,-2.12183 v -1.55639 c 0,-1.175 -0.94364,-2.12183 -2.11864,-2.12183 z m 9.19879,0 c -1.175,0 -2.12182,0.94683 -2.12182,2.12183 v 1.55639 c 0,1.175 0.94682,2.12183 2.12182,2.12183 1.175,0 2.11865,-0.94683 2.11865,-2.12183 v -1.55639 c 0,-1.175 -0.94365,-2.12183 -2.11865,-2.12183 z m 9.19561,0 c -1.17499,0 -2.11864,0.94683 -2.11864,2.12183 v 1.55639 c 0,1.175 0.94365,2.12183 2.11864,2.12183 1.17499,0 2.12182,-0.94683 2.12182,-2.12183 v -1.55639 c 0,-1.175 -0.94683,-2.12183 -2.12182,-2.12183 z m 9.19879,0 c -1.175,0 -2.11865,0.94683 -2.11865,2.12183 v 1.55639 c 0,1.175 0.94365,2.12183 2.11865,2.12183 1.175,0 2.12182,-0.94683 2.12182,-2.12183 v -1.55639 c 0,-1.175 -0.94682,-2.12183 -2.12182,-2.12183 z m 9.19879,0 c -1.175,0 -2.12182,0.94683 -2.12182,2.12183 v 1.55639 c 0,1.175 0.94682,2.12183 2.12182,2.12183 1.17499,0 2.12182,-0.94683 2.12182,-2.12183 v -1.55639 c 0,-1.175 -0.94683,-2.12183 -2.12182,-2.12183 z m 9.19879,0 c -1.175,0 -2.12183,0.94683 -2.12183,2.12183 v 1.55639 c 0,1.175 0.94683,2.12183 2.12183,2.12183 1.17499,0 2.12182,-0.94683 2.12182,-2.12183 v -1.55639 c 0,-1.175 -0.94683,-2.12183 -2.12182,-2.12183 z m 9.19878,0 c -1.17499,0 -2.12182,0.94683 -2.12182,2.12183 v 1.55639 c 0,1.175 0.94683,2.12183 2.12182,2.12183 1.175,0 2.12182,-0.94683 2.12182,-2.12183 v -1.55639 c 0,-1.175 -0.94682,-2.12183 -2.12182,-2.12183 z m 9.19879,0 c -1.17499,0 -2.12182,0.94683 -2.12182,2.12183 v 1.55639 c 0,1.175 0.94683,2.12183 2.12182,2.12183 1.175,0 2.11865,-0.94683 2.11865,-2.12183 v -1.55639 c 0,-1.175 -0.94365,-2.12183 -2.11865,-2.12183 z m 9.19879,0 c -1.17499,0 -2.12182,0.94683 -2.12182,2.12183 v 1.55639 c 0,1.175 0.94683,2.12183 2.12182,2.12183 1.17499,0 2.11864,-0.94683 2.11864,-2.12183 v -1.55639 c 0,-1.175 -0.94365,-2.12183 -2.11864,-2.12183 z m 9.19561,0 c -1.175,0 -2.11864,0.94683 -2.11864,2.12183 v 1.55639 c 0,1.175 0.94364,2.12183 2.11864,2.12183 1.175,0 2.12182,-0.94683 2.12182,-2.12183 v -1.55639 c 0,-1.175 -0.94682,-2.12183 -2.12182,-2.12183 z m 9.19879,0 c -1.175,0 -2.11864,0.94683 -2.11864,2.12183 v 1.55639 c 0,1.175 0.94364,2.12183 2.11864,2.12183 1.17499,0 2.12182,-0.94683 2.12182,-2.12183 v -1.55639 c 0,-1.175 -0.94683,-2.12183 -2.12182,-2.12183 z m 9.19879,0 c -1.175,0 -2.12182,0.94683 -2.12182,2.12183 v 1.55639 c 0,1.175 0.94682,2.12183 2.12182,2.12183 1.17499,0 2.12182,-0.94683 2.12182,-2.12183 v -1.55639 c 0,-1.175 -0.94683,-2.12183 -2.12182,-2.12183 z m 9.19879,0 c -1.175,0 -2.12182,0.94683 -2.12182,2.12183 v 1.55639 c 0,1.175 0.94682,2.12183 2.12182,2.12183 1.17499,0 2.12181,-0.94683 2.12181,-2.12183 v -1.55639 c 0,-1.175 -0.94682,-2.12183 -2.12181,-2.12183 z m 9.19878,0 c -1.17499,0 -2.12181,0.94683 -2.12181,2.12183 v 1.55639 c 0,1.175 0.94682,2.12183 2.12181,2.12183 1.175,0 2.12183,-0.94683 2.12183,-2.12183 v -1.55639 c 0,-1.175 -0.94683,-2.12183 -2.12183,-2.12183 z m 9.19879,0 c -1.17499,0 -2.12182,0.94683 -2.12182,2.12183 v 1.55639 c 0,1.175 0.94683,2.12183 2.12182,2.12183 1.17499,0 2.12182,-0.94683 2.12182,-2.12183 v -1.55639 c 0,-1.175 -0.94683,-2.12183 -2.12182,-2.12183 z m 9.19879,0 c -1.175,0 -2.12182,0.94683 -2.12182,2.12183 v 1.55639 c 0,1.175 0.94682,2.12183 2.12182,2.12183 1.175,0 2.11864,-0.94683 2.11864,-2.12183 v -1.55639 c 0,-1.175 -0.94364,-2.12183 -2.11864,-2.12183 z m 9.19561,0 c -1.17499,0 -2.11864,0.94683 -2.11864,2.12183 v 1.55639 c 0,1.175 0.94365,2.12183 2.11864,2.12183 1.175,0 2.12182,-0.94683 2.12182,-2.12183 v -1.55639 c 0,-1.175 -0.94682,-2.12183 -2.12182,-2.12183 z m 9.19879,0 c -1.175,0 -2.11865,0.94683 -2.11865,2.12183 v 1.55639 c 0,1.175 0.94365,2.12183 2.11865,2.12183 1.17499,0 2.12182,-0.94683 2.12182,-2.12183 v -1.55639 c 0,-1.175 -0.94683,-2.12183 -2.12182,-2.12183 z m 9.19879,0 c -1.175,0 -2.11865,0.94683 -2.11865,2.12183 v 1.55639 c 0,1.175 0.94365,2.12183 2.11865,2.12183 1.175,0 2.12182,-0.94683 2.12182,-2.12183 v -1.55639 c 0,-1.175 -0.94682,-2.12183 -2.12182,-2.12183 z m 9.19878,0 c -1.17499,0 -2.12181,0.94683 -2.12181,2.12183 v 1.55639 c 0,1.175 0.94682,2.12183 2.12181,2.12183 1.175,0 2.12183,-0.94683 2.12183,-2.12183 v -1.55639 c 0,-1.175 -0.94683,-2.12183 -2.12183,-2.12183 z m 36.32823,0 c -1.175,0 -2.11864,0.94683 -2.11864,2.12183 v 1.55639 c 0,1.175 0.94364,2.12183 2.11864,2.12183 1.175,0 2.12182,-0.94683 2.12182,-2.12183 v -1.55639 c 0,-1.175 -0.94682,-2.12183 -2.12182,-2.12183 z m 9.24961,0 c -1.17499,0 -2.11864,0.94683 -2.11864,2.12183 v 1.55639 c 0,1.175 0.94365,2.12183 2.11864,2.12183 1.17499,0 2.12182,-0.94683 2.12182,-2.12183 v -1.55639 c 0,-1.175 -0.94683,-2.12183 -2.12182,-2.12183 z m 9.24961,0 c -1.175,0 -2.12182,0.94683 -2.12182,2.12183 v 1.55639 c 0,1.175 0.94682,2.12183 2.12182,2.12183 1.175,0 2.12183,-0.94683 2.12183,-2.12183 v -1.55639 c 0,-1.175 -0.94683,-2.12183 -2.12183,-2.12183 z m 9.24963,0 c -1.175,0 -2.12183,0.94683 -2.12183,2.12183 v 1.55639 c 0,1.175 0.94683,2.12183 2.12183,2.12183 1.175,0 2.11863,-0.94683 2.11863,-2.12183 v -1.55639 c 0,-1.175 -0.94363,-2.12183 -2.11863,-2.12183 z m 9.24643,0 c -1.175,0 -2.11864,0.94683 -2.11864,2.12183 v 1.55639 c 0,1.175 0.94364,2.12183 2.11864,2.12183 1.17499,0 2.12183,-0.94683 2.12183,-2.12183 v -1.55639 c 0,-1.175 -0.94684,-2.12183 -2.12183,-2.12183 z m 9.24962,0 c -1.175,0 -2.11869,0.94683 -2.11869,2.12183 v 1.55639 c 0,1.175 0.94369,2.12183 2.11869,2.12183 1.175,0 2.12177,-0.94683 2.12177,-2.12183 v -1.55639 c 0,-1.175 -0.94677,-2.12183 -2.12177,-2.12183 z m 9.24956,0 c -1.17499,0 -2.12182,0.94683 -2.12182,2.12183 v 1.55639 c 0,1.175 0.94683,2.12183 2.12182,2.12183 1.175,0 2.12183,-0.94683 2.12183,-2.12183 v -1.55639 c 0,-1.175 -0.94683,-2.12183 -2.12183,-2.12183 z m 9.24963,0 c -1.175,0 -2.12183,0.94683 -2.12183,2.12183 v 1.55639 c 0,1.175 0.94683,2.12183 2.12183,2.12183 1.17499,0 2.11863,-0.94683 2.11863,-2.12183 v -1.55639 c 0,-1.175 -0.94364,-2.12183 -2.11863,-2.12183 z m 9.24643,0 c -1.175,0 -2.11864,0.94683 -2.11864,2.12183 v 1.55639 c 0,1.175 0.94364,2.12183 2.11864,2.12183 1.17499,0 2.12182,-0.94683 2.12182,-2.12183 v -1.55639 c 0,-1.175 -0.94683,-2.12183 -2.12182,-2.12183 z m 9.24962,0 c -1.175,0 -2.11863,0.94683 -2.11863,2.12183 v 1.55639 c 0,1.175 0.94363,2.12183 2.11863,2.12183 1.17501,0 2.12185,-0.94683 2.12185,-2.12183 v -1.55639 c 0,-1.175 -0.94684,-2.12183 -2.12185,-2.12183 z m 9.24964,0 c -1.17499,0 -2.12183,0.94683 -2.12183,2.12183 v 1.55639 c 0,1.175 0.94684,2.12183 2.12183,2.12183 1.175,0 2.12183,-0.94683 2.12183,-2.12183 v -1.55639 c 0,-1.175 -0.94683,-2.12183 -2.12183,-2.12183 z m 9.24963,0 c -1.175,0 -2.12183,0.94683 -2.12183,2.12183 v 1.55639 c 0,1.175 0.94683,2.12183 2.12183,2.12183 1.17493,0 2.11863,-0.94683 2.11863,-2.12183 v -1.55639 c 0,-1.175 -0.94376,-2.12183 -2.11863,-2.12183 z m 9.24642,0 c -1.17499,0 -2.11869,0.94683 -2.11869,2.12183 v 1.55639 c 0,1.175 0.9437,2.12183 2.11869,2.12183 1.175,0 2.12177,-0.94683 2.12177,-2.12183 v -1.55639 c 0,-1.175 -0.94677,-2.12183 -2.12177,-2.12183 z m 9.24957,0 c -1.175,0 -2.11864,0.94683 -2.11864,2.12183 v 1.55639 c 0,1.175 0.94364,2.12183 2.11864,2.12183 1.17499,0 2.12183,-0.94683 2.12183,-2.12183 v -1.55639 c 0,-1.175 -0.94684,-2.12183 -2.12183,-2.12183 z m 9.24962,0 c -1.17499,0 -2.12183,0.94683 -2.12183,2.12183 v 1.55639 c 0,1.175 0.94684,2.12183 2.12183,2.12183 1.175,0 2.12183,-0.94683 2.12183,-2.12183 v -1.55639 c 0,-1.175 -0.94683,-2.12183 -2.12183,-2.12183 z m 9.24963,0 c -1.175,0 -2.12183,0.94683 -2.12183,2.12183 v 1.55639 c 0,1.175 0.94683,2.12183 2.12183,2.12183 1.17499,0 2.11863,-0.94683 2.11863,-2.12183 v -1.55639 c 0,-1.175 -0.94364,-2.12183 -2.11863,-2.12183 z m 9.24962,0 c -1.175,0 -2.12183,0.94683 -2.12183,2.12183 v 1.55639 c 0,1.175 0.94683,2.12183 2.12183,2.12183 1.175,0 2.11863,-0.94683 2.11863,-2.12183 v -1.55639 c 0,-1.175 -0.94363,-2.12183 -2.11863,-2.12183 z m 9.24643,0 c -1.175,0 -2.11863,0.94683 -2.11863,2.12183 v 1.55639 c 0,1.175 0.94363,2.12183 2.11863,2.12183 1.17499,0 2.12183,-0.94683 2.12183,-2.12183 v -1.55639 c 0,-1.175 -0.94684,-2.12183 -2.12183,-2.12183 z m 9.24962,0 c -1.17499,0 -2.12183,0.94683 -2.12183,2.12183 v 1.55639 c 0,1.175 0.94684,2.12183 2.12183,2.12183 1.175,0 2.12177,-0.94683 2.12177,-2.12183 v -1.55639 c 0,-1.175 -0.94677,-2.12183 -2.12177,-2.12183 z m 9.24956,0 c -1.17499,0 -2.12182,0.94683 -2.12182,2.12183 v 1.55639 c 0,1.175 0.94683,2.12183 2.12182,2.12183 1.175,0 2.11864,-0.94683 2.11864,-2.12183 v -1.55639 c 0,-1.175 -0.94364,-2.12183 -2.11864,-2.12183 z m 9.24643,0 c -1.17499,0 -2.11863,0.94683 -2.11863,2.12183 v 1.55639 c 0,1.175 0.94364,2.12183 2.11863,2.12183 1.175,0 2.12183,-0.94683 2.12183,-2.12183 v -1.55639 c 0,-1.175 -0.94683,-2.12183 -2.12183,-2.12183 z m 9.24963,0 c -1.175,0 -2.11864,0.94683 -2.11864,2.12183 v 1.55639 c 0,1.175 0.94364,2.12183 2.11864,2.12183 1.17499,0 2.12183,-0.94683 2.12183,-2.12183 v -1.55639 c 0,-1.175 -0.94684,-2.12183 -2.12183,-2.12183 z m 9.24962,0 c -1.175,0 -2.12183,0.94683 -2.12183,2.12183 v 1.55639 c 0,1.175 0.94683,2.12183 2.12183,2.12183 1.175,0 2.12183,-0.94683 2.12183,-2.12183 v -1.55639 c 0,-1.175 -0.94683,-2.12183 -2.12183,-2.12183 z m 18.37214,0 c -1.175,0 -2.12177,0.94683 -2.12177,2.12183 v 1.55639 c 0,1.175 0.94677,2.12183 2.12177,2.12183 1.17499,0 2.12182,-0.94683 2.12182,-2.12183 v -1.55639 c 0,-1.175 -0.94683,-2.12183 -2.12182,-2.12183 z m 9.29726,0 c -1.175,0 -2.12183,0.94683 -2.12183,2.12183 v 1.55639 c 0,1.175 0.94683,2.12183 2.12183,2.12183 1.17499,0 2.12183,-0.94683 2.12183,-2.12183 v -1.55639 c 0,-1.175 -0.94684,-2.12183 -2.12183,-2.12183 z m 9.29726,0 c -1.175,0 -2.12183,0.94683 -2.12183,2.12183 v 1.55639 c 0,1.175 0.94683,2.12183 2.12183,2.12183 1.17499,0 2.11863,-0.94683 2.11863,-2.12183 v -1.55639 c 0,-1.175 -0.94364,-2.12183 -2.11863,-2.12183 z m 9.29726,0 c -1.175,0 -2.12183,0.94683 -2.12183,2.12183 v 1.55639 c 0,1.175 0.94683,2.12183 2.12183,2.12183 1.17499,0 2.11863,-0.94683 2.11863,-2.12183 v -1.55639 c 0,-1.175 -0.94364,-2.12183 -2.11863,-2.12183 z m 9.29726,0 c -1.175,0 -2.12183,0.94683 -2.12183,2.12183 v 1.55639 c 0,1.175 0.94683,2.12183 2.12183,2.12183 1.175,0 2.11863,-0.94683 2.11863,-2.12183 v -1.55639 c 0,-1.175 -0.94363,-2.12183 -2.11863,-2.12183 z m 9.29406,0 c -1.17499,0 -2.11863,0.94683 -2.11863,2.12183 v 1.55639 c 0,1.175 0.94364,2.12183 2.11863,2.12183 1.175,0 2.12183,-0.94683 2.12183,-2.12183 v -1.55639 c 0,-1.175 -0.94683,-2.12183 -2.12183,-2.12183 z m 64.60121,0 c -1.175,0 -2.12183,0.94683 -2.12183,2.12183 v 1.55639 c 0,1.175 0.94683,2.12183 2.12183,2.12183 1.17499,0 2.12176,-0.94683 2.12176,-2.12183 v -1.55639 c 0,-1.175 -0.94677,-2.12183 -2.12176,-2.12183 z m 9.20512,0 c -1.175,0 -2.12183,0.94683 -2.12183,2.12183 v 1.55639 c 0,1.175 0.94683,2.12183 2.12183,2.12183 1.17499,0 2.12183,-0.94683 2.12183,-2.12183 v -1.55639 c 0,-1.175 -0.94684,-2.12183 -2.12183,-2.12183 z m 9.20512,0 c -1.175,0 -2.12183,0.94683 -2.12183,2.12183 v 1.55639 c 0,1.175 0.94683,2.12183 2.12183,2.12183 1.175,0 2.12183,-0.94683 2.12183,-2.12183 v -1.55639 c 0,-1.175 -0.94683,-2.12183 -2.12183,-2.12183 z m 9.20518,0 c -1.17499,0 -2.12183,0.94683 -2.12183,2.12183 v 1.55639 c 0,1.175 0.94684,2.12183 2.12183,2.12183 1.175,0 2.12177,-0.94683 2.12177,-2.12183 v -1.55639 c 0,-1.175 -0.94677,-2.12183 -2.12177,-2.12183 z m 9.20513,0 c -1.175,0 -2.12183,0.94683 -2.12183,2.12183 v 1.55639 c 0,1.175 0.94683,2.12183 2.12183,2.12183 1.17499,0 2.11863,-0.94683 2.11863,-2.12183 v -1.55639 c 0,-1.175 -0.94364,-2.12183 -2.11863,-2.12183 z m 9.20512,0 c -1.175,0 -2.12183,0.94683 -2.12183,2.12183 v 1.55639 c 0,1.175 0.94683,2.12183 2.12183,2.12183 1.17499,0 2.11863,-0.94683 2.11863,-2.12183 v -1.55639 c 0,-1.175 -0.94364,-2.12183 -2.11863,-2.12183 z m 18.59132,0 c -1.17499,0 -2.12183,0.94683 -2.12183,2.12183 v 1.55639 c 0,1.175 0.94684,2.12183 2.12183,2.12183 1.175,0 2.12183,-0.94683 2.12183,-2.12183 v -1.55639 c 0,-1.175 -0.94683,-2.12183 -2.12183,-2.12183 z m 9.06861,0 c -1.175,0 -2.12183,0.94683 -2.12183,2.12183 v 1.55639 c 0,1.175 0.94683,2.12183 2.12183,2.12183 1.17493,0 2.11863,-0.94683 2.11863,-2.12183 v -1.55639 c 0,-1.175 -0.9437,-2.12183 -2.11863,-2.12183 z m 9.06854,0 c -1.17499,0 -2.12183,0.94683 -2.12183,2.12183 v 1.55639 c 0,1.175 0.94684,2.12183 2.12183,2.12183 1.175,0 2.11863,-0.94683 2.11863,-2.12183 v -1.55639 c 0,-1.175 -0.94363,-2.12183 -2.11863,-2.12183 z" /><path
       id="path92"
       style="fill:#000000;fill-opacity:0.04;stroke:none;stroke-width:0.553199;stroke-linecap:round;stroke-linejoin:round;stroke-dasharray:none;stroke-opacity:0.199248;paint-order:markers stroke fill"
       d="m 542.86656,226.01448 c -46.92667,1.28988 -104.10416,9.55186 -121.15019,15.44037 -7.40075,6.14119 -5.96752,14.34059 16.86021,19.78248 h 1.35632 c 7.27174,0 54.36331,7.61695 79.64131,7.61695 h 176.10153 l -5.59358,-22.69201 c 0,0 -94.87445,-19.55051 -132.24853,-20.12553 -4.67171,-0.0719 -9.6939,-0.16719 -14.96707,-0.0246 z"
       sodipodi:nodetypes="sccssccss" /><path
       id="path94"
       style="fill:#000000;fill-opacity:0.04;stroke:none;stroke-width:0.553199;stroke-linecap:round;stroke-linejoin:round;stroke-dasharray:none;stroke-opacity:0.199248;paint-order:markers stroke fill"
       d="m 418.72105,251.40328 c 2.19711,3.56974 8.22691,7.06191 19.85553,9.83405 h 1.35632 c 7.27174,0 54.36331,7.61695 79.64131,7.61695 h 177.98512 c 14.44159,0 45.31659,-5.18416 58.87097,-6.19393 4.09786,-0.64719 6.8748,-1.83183 7.08016,-4.11022 -1.38398,3.67639 -29.6383,-2.49732 -56.38705,1.26738 -26.34288,3.70749 -266.63606,3.476 -288.40236,-8.41423 z" /><circle
       style="fill:#a7a7a7;fill-opacity:1;stroke:none;stroke-width:0.553199;stroke-linecap:round;stroke-linejoin:round;stroke-dasharray:none;stroke-opacity:0.535714;paint-order:markers stroke fill"
       id="path86"
       cx="939.96405"
       cy="198.98839"
       r="1.0876032" /><circle
       style="fill:#a7a7a7;fill-opacity:1;stroke:none;stroke-width:0.553199;stroke-linecap:round;stroke-linejoin:round;stroke-dasharray:none;stroke-opacity:0.535714;paint-order:markers stroke fill"
       id="circle86"
       cx="788.68695"
       cy="198.98839"
       r="1.0876032" /><circle
       style="fill:#a7a7a7;fill-opacity:1;stroke:none;stroke-width:0.553199;stroke-linecap:round;stroke-linejoin:round;stroke-dasharray:none;stroke-opacity:0.535714;paint-order:markers stroke fill"
       id="circle87"
       cx="458.84912"
       cy="198.98839"
       r="1.0876032" /><path
       style="fill:#000000;fill-opacity:0.0225564;stroke:none;stroke-width:0.553199;stroke-linecap:round;stroke-linejoin:round;stroke-dasharray:none;stroke-opacity:0.199248;paint-order:markers stroke fill"
       d="m 651.62573,252.49911 c -37.40504,-0.81314 -104.08352,-8.94469 -130.71432,-28.05375 -26.63071,-19.10905 73.18375,7.31835 73.18375,7.31835 l 79.07912,5.28551 z"
       id="path150" /><path
       style="fill:#e2e2e2;fill-opacity:1;stroke-width:4.24119;stroke-linecap:square;paint-order:markers stroke fill"
       d="m 348.16931,150.77574 12.46588,26.66313 c 0,0 204.99456,61.29061 211.22748,62.67569 6.23297,1.38509 43.63063,7.27176 84.83726,6.23291 41.20668,-1.03879 74.44902,-3.46273 74.44902,-7.9643 0,-4.50157 -13.50466,-15.92859 -51.59486,-18.00628 -38.09021,-2.07764 -50.90238,-5.88666 -72.71769,-9.34939 -21.81531,-3.46272 -209.14983,-34.28118 -209.14983,-34.28118 0,0 -31.85727,-24.23925 -34.62746,-25.62434 -2.7702,-1.38509 -14.8898,-0.34605 -14.8898,-0.34605 z"
       id="path6" /><path
       style="fill:#5b5b5b;fill-opacity:1;stroke-width:4.24119;stroke-linecap:square;paint-order:markers stroke fill"
       d="m 654.1029,240.80711 -26.66313,6.05981 h -7.7912 v 3.11648 c 0,0 -28.91391,5.19412 -28.91391,6.92545 0,1.73139 28.22136,8.3106 28.22136,8.3106 v 3.11648 h 8.3106 l 26.31689,5.36727 z"
       id="path9" /><path
       id="path123"
       style="fill:#000000;fill-opacity:0.156015;stroke:none;stroke-width:0.553199;stroke-linecap:round;stroke-linejoin:round;stroke-dasharray:none;stroke-opacity:0.199248;paint-order:markers stroke fill"
       d="m 590.79809,257.0477 c 1.31403,1.91377 28.15861,8.17279 28.15861,8.17279 v 3.11606 h 8.30943 l 26.31627,5.36806 0.12724,-8.05526 -26.7324,-2.95722 h -8.02036 v -1.78192 c 0,0 -26.27256,-2.59605 -28.15861,-3.86251 z" /><path
       style="fill:#f5f5f5;fill-opacity:1;stroke-width:4.24119;stroke-linecap:square;paint-order:markers stroke fill"
       d="m 702.40819,285.13028 c 15.92865,0 24.23925,0 25.97058,-2.0777 1.73139,-2.07763 3.80902,-42.93802 3.46278,-46.0545 -0.34606,-3.11648 -6.57927,-6.92551 -19.39144,-6.5792 -12.8121,0.34605 -64.40702,4.50157 -64.40702,4.50157 l 0.17333,2.25078 h 4.50157 v 41.55293 h -3.46278 l -0.20284,1.51768 c 0,0 37.35685,4.88844 53.35575,4.88844 z"
       id="path7" /><path
       id="path148"
       style="fill:#f5f5f5;fill-opacity:1;stroke:none;stroke-width:0.553199;stroke-linecap:round;stroke-linejoin:round;stroke-dasharray:none;stroke-opacity:0.199248;paint-order:markers stroke fill"
       d="m 354.57411,150.42944 c -3.37617,0.0867 -6.40357,0.34606 -6.40357,0.34606 16.72236,3.37654 40.60363,26.30354 44.26281,27.52329 3.65918,1.21968 206.13419,35.57548 226.86959,39.43786 20.73528,3.8625 52.65166,4.67564 70.74424,6.70853 18.09265,2.03289 29.88343,6.30193 37.20177,14.02687 l 3.00486,-2.40765 c -3.5025,-5.26996 -18.0519,-13.90738 -50.69819,-15.68813 -38.09014,-2.07763 -50.90471,-5.88537 -72.71996,-9.34809 -21.81531,-3.46273 -209.14858,-34.28266 -209.14858,-34.28266 0,0 -31.85867,-24.23875 -34.62887,-25.62384 -1.38509,-0.69255 -5.10792,-0.77903 -8.4841,-0.69243 z" /><path
       id="path90"
       style="fill:#2f2f2f;stroke-width:4.24327;stroke-linecap:square;paint-order:markers stroke fill"
       d="m 727.28048,232.59861 c -2.08403,18.7389 -2.36696,31.08301 -2.82261,51.92395 2.04352,-0.30795 3.35589,-0.76723 3.92766,-1.45338 1.73225,-2.07862 3.80558,-42.96851 3.45916,-46.08653 -0.16412,-1.47993 -1.67202,-3.11058 -4.56421,-4.38404 z" /><path
       id="path119"
       style="fill:#000000;fill-opacity:0.1;stroke:none;stroke-width:0.553199;stroke-linecap:round;stroke-linejoin:round;stroke-dasharray:none;stroke-opacity:0.199248;paint-order:markers stroke fill"
       d="m 652.71842,271.76386 v 6.95944 h -3.46223 l -0.20345,1.51829 c 0,0 37.35789,4.88844 53.3568,4.88844 15.92865,0 24.23876,3.7e-4 25.97003,-2.07732 0.48681,-0.58455 0.99379,-4.37243 1.47384,-9.3894 -4.68953,7.67595 -47.15973,2.52302 -77.13511,-1.89945 z" /><path
       id="path120"
       style="fill:#ffffff;fill-opacity:0.25188;stroke:none;stroke-width:0.553199;stroke-linecap:round;stroke-linejoin:round;stroke-dasharray:none;stroke-opacity:0.199248;paint-order:markers stroke fill"
       d="m 714.77527,230.40105 c -0.74952,-0.0123 -1.52431,-0.003 -2.32509,0.0184 -12.81211,0.34606 -64.4074,4.50096 -64.4074,4.50096 l 0.17456,2.24888 h 4.50096 v 6.00019 c 20.18473,-2.86576 75.15183,-13.19142 78.99331,1.37851 0.14998,-3.89864 0.21145,-6.81899 0.13031,-7.55025 -0.32454,-2.9217 -5.82372,-6.45277 -17.06671,-6.59734 z" /><path
       id="path122"
       style="fill:#ffffff;fill-opacity:0.922932;stroke:none;stroke-width:0.553199;stroke-linecap:round;stroke-linejoin:round;stroke-dasharray:none;stroke-opacity:0.199248;paint-order:markers stroke fill"
       d="m 714.77527,230.40105 c -0.74952,-0.0123 -1.52431,-0.003 -2.32509,0.0184 -12.81211,0.34606 -64.4074,4.50096 -64.4074,4.50096 l 0.17456,2.24888 h 4.50096 v 6.00019 c 17.06068,-2.42222 58.96705,-10.17292 73.85077,-3.7164 0.21021,-2.1997 0.44747,-4.47028 0.71147,-6.84505 -2.81898,-1.2391 -6.9614,-2.13633 -12.50539,-2.20763 z" /><path
       id="path124"
       style="fill:#000000;fill-opacity:0.156015;stroke:none;stroke-width:0.553199;stroke-linecap:round;stroke-linejoin:round;stroke-dasharray:none;stroke-opacity:0.199248;paint-order:markers stroke fill"
       d="m 619.64918,249.98347 c 0,0 -0.4948,0.0922 -0.54644,0.10142 -0.73821,1.97246 -2.1209,9.48633 -0.85758,14.96712 0.0879,0.0184 0.71148,0.16842 0.71148,0.16842 v -2.52837 -1.78191 z"
       sodipodi:nodetypes="ccccccc" /><path
       style="fill:#138fff;fill-opacity:1;stroke-width:4.24119;stroke-linecap:square;paint-order:markers stroke fill"
       d="m 152.52418,184.87504 c 0,-2.37077 -3.11647,-2.58836 -13.15844,-5.35854 -10.04196,-2.77018 -60.944314,-13.15841 -68.908621,-15.23604 -7.964308,-2.0777 -15.928633,-3.46279 -32.203533,-3.46279 H 14.360637 l 74.102755,24.23925 c 0,0 13.158428,1.73133 32.896078,1.73133 19.73765,0 31.16471,0.45731 31.16471,-1.91321 z"
       id="path4"
       sodipodi:nodetypes="zsssccsz" /><path
       id="path144"
       style="fill:#ffffff;fill-opacity:0.114662;stroke:none;stroke-width:0.553199;stroke-linecap:round;stroke-linejoin:round;stroke-dasharray:none;stroke-opacity:0.199248;paint-order:markers stroke fill"
       d="m 14.361898,160.8162 c 0,0 43.236668,2.54803 52.292697,4.70422 9.055998,2.15619 49.446645,10.77947 64.683735,13.79816 14.34858,2.84259 20.48706,4.28336 21.15468,5.22196 -0.30353,-2.06036 -3.58546,-2.39265 -13.12797,-5.02502 -10.04195,-2.77018 -60.944026,-13.15626 -68.908321,-15.2339 -7.964301,-2.07769 -15.927231,-3.46542 -32.202112,-3.46542 z" /><path
       id="path145"
       style="fill:#000000;fill-opacity:0.114662;stroke:none;stroke-width:0.553199;stroke-linecap:round;stroke-linejoin:round;stroke-dasharray:none;stroke-opacity:0.199248;paint-order:markers stroke fill"
       d="m 103.56409,187.7582 c 1.74861,3.23314 13.71273,8.68437 25.06797,13.22645 12.1196,4.84788 19.73747,0.69273 23.54648,-1.73115 3.46187,-2.20302 5.20252,-2.71387 5.49196,-10.3232 -2.01196,6.3398 -15.28433,5.70472 -27.78377,4.10708 -11.94512,-1.52683 -23.56725,-3.44963 -26.32264,-5.27918 z" /><path
       id="path147"
       style="fill:#ffffff;fill-opacity:0.161654;stroke:none;stroke-width:0.553199;stroke-linecap:round;stroke-linejoin:round;stroke-dasharray:none;stroke-opacity:0.199248;paint-order:markers stroke fill"
       d="m 139.04423,169.16687 c -3.66666,0.0861 -7.94467,0.87049 -12.48952,2.38546 -0.25128,0.0836 -0.51122,0.18624 -0.76551,0.2766 3.00488,-0.51263 8.13374,-1.19934 13.52819,-1.06091 8.40915,0.21574 9.84803,4.16688 13.01044,5.67619 2.75017,1.31262 5.11669,0.72586 5.54595,2.5824 -0.0436,-1.29799 -0.24482,-2.17438 -0.84809,-2.6269 -1.3851,-1.03878 -4.15419,-0.34544 -7.61694,-4.15465 -1.9478,-2.14261 -5.65027,-3.18828 -10.36452,-3.07794 z" /></g></svg>
