<?xml version="1.0" encoding="UTF-8" standalone="no"?>
<!-- Created with Inkscape (http://www.inkscape.org/) -->

<svg
   width="275"
   height="128"
   viewBox="0 0 72.760416 33.866666"
   version="1.1"
   id="svg1"
   xml:space="preserve"
   inkscape:version="1.4 (86a8ad7, 2024-10-11)"
   sodipodi:docname="bat.svg"
   xmlns:inkscape="http://www.inkscape.org/namespaces/inkscape"
   xmlns:sodipodi="http://sodipodi.sourceforge.net/DTD/sodipodi-0.dtd"
   xmlns="http://www.w3.org/2000/svg"
   xmlns:svg="http://www.w3.org/2000/svg"><sodipodi:namedview
     id="namedview1"
     pagecolor="#505050"
     bordercolor="#ffffff"
     borderopacity="1"
     inkscape:showpageshadow="0"
     inkscape:pageopacity="0"
     inkscape:pagecheckerboard="1"
     inkscape:deskcolor="#505050"
     inkscape:document-units="mm"
     inkscape:zoom="4.187009"
     inkscape:cx="207.66614"
     inkscape:cy="59.827911"
     inkscape:window-width="3440"
     inkscape:window-height="1377"
     inkscape:window-x="-8"
     inkscape:window-y="-8"
     inkscape:window-maximized="1"
     inkscape:current-layer="layer1" /><defs
     id="defs1" /><g
     inkscape:label="Layer 1"
     inkscape:groupmode="layer"
     id="layer1"><path
       style="fill:#625f5d;fill-opacity:1;stroke-width:0.557927;stroke-linecap:round;stroke-linejoin:round;paint-order:markers stroke fill"
       d="M 70.142988,11.920533 C 72.094921,10.446657 73.366806,6.2174109 71.62663,3.7286438 69.886451,1.2398769 68.475766,0.66137666 64.2743,0.42089678 60.072836,0.18041726 52.842955,1.2792865 51.242888,1.2778667 c -1.60007,-0.00142 -1.066038,-0.014247 -2.335176,-0.098834 -1.269141,-0.084588 -1.903288,1.4586977 -1.574628,2.0411581 0.328657,0.5824598 0.962664,2.5759388 1.062599,6.541169 0.09994,3.9652302 -1.19492,9.0286662 -1.962645,10.4039332 -1.159801,0.186131 -2.086904,0.987553 -4.112546,0.771322 -2.025639,-0.216235 -2.016645,-1.875263 -3.517164,-3.516824 -1.500517,-1.64156 0.07088,-2.504484 -2.671238,-7.169909 C 33.389976,5.5844575 31.387733,2.3144488 31.0205,1.7488835 30.653269,1.1833177 29.550231,0.99517996 28.934938,1.2278777 28.319646,1.4605754 27.320512,1.8246023 24.293825,2.0100163 21.267136,2.1954301 15.652111,2.4754187 12.418477,3.7629134 9.1848403,5.050408 10.895847,4.7791817 6.499206,6.6863734 2.1025646,8.5935655 -0.04023552,12.161797 0.35853804,13.219271 c 0.39877354,1.057473 0.47243027,0.721781 0.94744406,0.651666 0.4750139,-0.07012 2.2698726,-0.506797 4.4695356,0.736613 2.199663,1.243409 3.8334728,2.118583 4.9724553,4.194333 1.138983,2.07575 1.231115,2.118154 1.538761,2.001806 0.307646,-0.116354 3.781972,-1.316164 6.603962,-0.814255 2.821991,0.501909 4.891235,2.455279 6.071999,4.080568 1.180764,1.625288 0.926387,1.065467 1.262414,0.761983 0.336027,-0.303483 2.415318,-2.253172 6.644452,-0.868768 -0.171578,1.518754 -0.348945,4.26297 2.049002,5.686191 2.397949,1.423221 6.332503,3.037785 9.262561,3.639484 2.930061,0.601697 6.048979,-0.36693 7.670304,-0.827839 1.621328,-0.460909 4.217535,-2.282187 4.726385,-3.387761 0.508852,-1.105575 0.659082,-2.945997 1.237426,-3.934888 0.578345,-0.988893 1.759203,-1.588823 2.305288,-1.202734 0.546086,0.386089 1.246429,1.817209 1.556325,1.286102 0.309896,-0.531107 0.07317,-4.031851 0.683105,-5.641444 0.609931,-1.609592 1.44806,-1.774377 2.209997,-1.924179 0.761937,-0.149805 1.969357,-3.124471 2.103938,-4.286806 0.13458,-1.162338 0.337265,-1.532299 1.056897,-1.869715 1.487548,-0.697471 1.89391,0.812257 2.412199,0.420905 z"
       id="path1"
       sodipodi:nodetypes="ssssssscsssssssssssssssscssssssssssss" /><path
       id="path21"
       style="opacity:1;fill:#000000;fill-opacity:0.0333746;stroke-width:0.557927;stroke-linecap:round;stroke-linejoin:round;paint-order:markers stroke fill"
       d="M 64.274021,0.42073417 C 60.072556,0.18025465 52.843112,1.2795696 51.243045,1.2781499 c -1.60007,-0.00142 -1.06618,-0.014517 -2.335318,-0.099104 -1.26914,-0.084588 -1.903129,1.4587925 -1.574469,2.0412528 0.328658,0.5824599 0.962532,2.575724 1.062468,6.5409542 0.09994,3.9652311 -1.194694,9.0287361 -1.962419,10.4040031 -0.859868,0.137996 -1.594046,0.612811 -2.740605,0.761762 0.02327,1.095486 0.637205,2.170736 1.816897,2.358801 2.270576,0.205899 4.262213,-1.158414 6.103947,-2.281413 1.669296,-0.592639 3.799671,-1.371601 4.204894,-3.377366 0.710879,-2.504822 -0.960713,-4.839282 -2.509644,-6.637425 -0.837389,-1.0519892 -1.335936,-2.3294261 -1.673769,-3.6197776 3.42615,3.2742316 6.412183,7.3406846 7.270984,12.0958826 0.329149,1.438248 0.451902,2.912644 0.600733,4.377575 0.237381,-0.04084 0.454283,-0.02061 0.614011,0.09232 0.546086,0.386087 1.246363,1.817497 1.556258,1.28639 0.309896,-0.531106 0.07319,-4.031978 0.683121,-5.64157 0.609931,-1.609591 1.448118,-1.774596 2.210056,-1.924398 0.761936,-0.149805 1.969308,-3.124483 2.10389,-4.286818 0.134581,-1.162338 0.337194,-1.532169 1.056826,-1.869584 1.487547,-0.69747 1.893809,0.812047 2.412098,0.420693 C 72.094937,10.446453 73.3666,6.2174467 71.626422,3.7286797 69.886244,1.2399077 68.475485,0.66121405 64.274021,0.42073417 Z M 29.4686,1.13174 C 29.272928,1.13799 29.08888,1.169785 28.935056,1.22796 28.319763,1.4606574 27.320787,1.824803 24.294098,2.010217 21.26741,2.1956308 15.652222,2.4753994 12.418587,3.7628941 9.1849513,5.0503887 10.895731,4.7793985 6.4990889,6.6865902 2.1024474,8.5937825 -0.040476,12.161896 0.35829758,13.219369 c 0.39877354,1.057473 0.47263604,0.721629 0.94764982,0.651513 0.2221922,-0.0328 0.7412081,-0.140618 1.4473104,-0.124358 0.00674,-0.292588 -0.031459,-0.585195 -0.1259893,-0.857677 C 3.8972014,11.128676 5.5488573,9.5909307 7.6165208,8.8383085 9.7175385,7.7682079 11.957495,6.9895249 14.299638,6.6671774 16.527874,6.2692194 18.761715,5.9037448 20.993744,5.5286107 17.166805,8.6989749 13.456259,12.224507 11.07591,16.643664 c -0.24617,0.5177 -0.468002,1.067626 -0.657747,1.627727 0.112465,0.170912 0.225404,0.340827 0.329541,0.530614 1.138983,2.075751 1.231334,2.118032 1.53898,2.001683 0.142296,-0.05381 0.976633,-0.337487 2.095957,-0.579285 0.277104,-0.773055 0.572024,-1.538154 1.024877,-2.235773 1.380287,-2.460923 3.243076,-4.353537 5.248288,-6.231522 1.730802,-1.613171 3.617599,-3.2473187 5.543415,-4.7095191 -1.233718,5.1368741 -2.1356,10.3786651 -2.401939,15.6588621 0.450574,0.455315 0.844029,0.920761 1.165572,1.363356 1.180764,1.625287 0.926155,1.06538 1.262182,0.761898 0.153033,-0.138212 0.688264,-0.611501 1.60283,-0.962157 -0.01873,-0.490745 -0.03811,-0.982549 0.06029,-1.439148 0.326691,-5.380483 1.386817,-10.721041 2.694358,-15.9382231 1.774611,2.2560509 3.375004,4.8836331 3.357733,7.8513821 0.134004,3.182509 -0.411527,6.470165 -1.483291,9.401315 -0.01073,0.02816 -0.02983,0.05896 -0.04145,0.08734 0.150475,0.04231 0.297795,0.07989 0.454124,0.13106 -0.11776,1.042392 -0.238126,2.661874 0.47318,4.035512 0.741588,0.0201 1.497036,-0.327886 1.85649,-1.037459 1.146441,-1.204111 2.699147,-2.404975 2.612277,-4.252311 0.203623,-1.885733 0.524385,-3.809187 0.655416,-5.72749 C 37.563682,15.586971 38.620856,14.48385 36.132392,10.249995 33.390264,5.5845649 31.387917,2.314191 31.020684,1.7486257 30.745259,1.3244515 30.055621,1.1129953 29.4686,1.13174 Z m 37.779215,2.7331209 c 1.125188,0.063396 2.681396,0.4000425 2.731905,1.7971415 0.169055,1.4149726 -0.09564,2.9070715 -0.676083,4.1941606 -0.34583,0.296113 -0.819847,1.1269 -0.97975,1.167203 C 67.549141,9.1696748 65.676882,8.121661 64.115621,7.0001069 62.411561,5.8717852 60.61532,4.889645 58.795601,3.9621453 c 2.816505,-0.011063 5.638052,-0.167567 8.452214,-0.097284 z m -8.871976,4.6850909 1.088205,0.5562675 c 1.691268,0.9032277 3.349231,1.9009007 4.79586,3.1679687 -0.649237,1.56101 -1.39692,3.10517 -1.710079,4.778757 -0.875153,-3.053303 -2.372165,-5.898564 -4.173986,-8.5029932 z" /><path
       id="path20"
       style="opacity:1;fill:#8c807e;fill-opacity:1;stroke-width:0.557927;stroke-linecap:round;stroke-linejoin:round;paint-order:markers stroke fill"
       d="M 64.274021,0.42073417 C 60.072556,0.18025465 52.843112,1.2795696 51.243045,1.2781499 c -1.60007,-0.00142 -1.06618,-0.014517 -2.335318,-0.099104 -1.26914,-0.084588 -1.903129,1.4587925 -1.574469,2.0412528 0.328658,0.5824599 0.962532,2.575724 1.062468,6.5409542 0.09994,3.9652311 -1.194694,9.0287361 -1.962419,10.4040031 -0.292182,0.04689 -0.570486,0.132756 -0.854416,0.231639 l 0.02237,1.075705 c 0,0 2.270605,-0.07102 4.051522,-1.527193 1.780922,-1.456172 4.204891,-0.879547 4.434479,-3.294743 C 54.316844,14.235469 51.525461,12.493126 50.506195,9.9877076 49.48693,7.4822895 48.93955,3.5605691 49.058138,3.326583 c 0.118583,-0.2339863 1.01402,-0.00129 3.331755,2.1434994 2.317731,2.1447922 4.437952,4.4927196 6.419293,8.0071836 1.935092,3.432429 2.518996,8.363302 2.727072,11.856009 0.05257,-0.0092 0.100284,-0.04193 0.140755,-0.111275 0.05074,-0.08697 0.08362,-0.274691 0.111168,-0.49955 C 61.471535,18.107467 59.901507,14.323856 57.438015,10.553899 54.914317,6.6918084 51.697473,3.3547981 51.697473,3.3547981 c 0,0 4.803314,2.0310554 9.217041,4.3891881 4.413724,2.3581328 5.576133,4.1508528 5.576133,4.1508528 0,0 -1.378075,2.969679 -1.923681,4.782075 -0.150893,0.501226 -0.22988,0.82501 -0.267748,1.043053 0.09037,-0.02012 0.182192,-0.04648 0.270972,-0.06394 0.02542,-0.005 0.05237,-0.02066 0.07872,-0.03177 0.383537,-1.045496 1.487564,-4.654872 2.055963,-5.745045 C 66.295985,11.005 65.015228,9.4463442 59.771955,6.6192922 54.528686,3.7922405 50.34821,2.0857267 50.34821,2.0857267 c 0,0 3.388968,-0.040763 9.148129,-0.014371 5.75916,0.026391 7.445446,-0.6080421 10.272233,0.4425579 2.826787,1.0506001 2.235148,4.8073921 1.790528,6.7316026 -0.374139,1.6192028 -1.011911,2.1120018 -1.643407,2.7292438 0.07564,0.01202 0.150631,0.0035 0.227306,-0.05443 1.951933,-1.473877 3.223596,-5.7028825 1.483418,-8.1916495 C 69.886244,1.2399077 68.475485,0.66121405 64.274021,0.42073417 Z M 29.4686,1.13174 C 29.272928,1.13799 29.08888,1.169785 28.935056,1.22796 28.319763,1.4606574 27.320787,1.824803 24.294098,2.010217 21.26741,2.1956308 15.652222,2.4753994 12.418587,3.7628941 9.1849514,5.0503889 10.895731,4.7793988 6.4990889,6.6865905 2.1024474,8.5937828 -0.04047605,12.161896 0.35829758,13.219369 0.69123073,14.102246 0.81029402,14.015508 1.1127622,13.921503 0.5859151,13.437818 0.24588567,12.839639 1.0224898,11.816507 1.8800547,10.686711 4.0592778,8.2107206 5.7436802,7.6030453 7.4280826,6.9953697 8.7562253,6.049446 10.433859,5.574771 c 1.677634,-0.474675 6.5229,-1.3479612 9.263183,-1.7418894 2.740286,-0.3939279 5.573843,-1.0495654 6.003505,-1.1077071 0.429664,-0.058142 0.108319,0.4852028 0.7296,0.3301367 0.621278,-0.1550665 1.698978,-0.3669525 1.229178,-0.044164 -0.4698,0.3227893 -5.187522,3.4167076 -8.105545,6.2551372 -2.918022,2.8384326 -4.091129,3.8721866 -5.859933,6.6624246 -1.495892,2.359727 -1.613567,2.978245 -1.869607,4.68921 0.206211,0.260111 0.307748,0.244272 0.462444,0.185768 7.45e-4,-2.81e-4 0.0067,-0.0018 0.0075,-0.002 0.06807,-1.268903 0.693233,-2.274978 1.857312,-4.423355 1.265635,-2.335802 4.939741,-5.882381 7.25449,-7.871436 2.314749,-1.9890546 6.814431,-5.5204878 7.322542,-5.5479682 0.508108,-0.02748 0.412182,0.2881258 -0.149664,2.4197224 -0.561849,2.1315969 -1.677618,6.2347248 -2.401027,12.0650888 -0.500195,4.031355 -0.590876,6.332631 -0.603701,7.426482 0.186779,0.221252 0.293843,0.303587 0.36116,0.297199 -0.07737,-1.740925 0.1286,-4.604619 0.543517,-7.86813 0.444686,-3.497678 1.970879,-10.4337267 2.489883,-12.2474759 0.519006,-1.8137491 0.455946,-2.137572 0.923919,-1.9004049 0.467973,0.2371669 1.465829,1.061498 2.755632,2.9672962 1.289805,1.9057987 3.672769,4.3473346 3.153567,10.8814866 -0.519204,6.534152 -2.469098,9.208654 -2.469098,9.208654 l 2.481857,-2.647096 c 0.713929,-5.644224 1.22665,-9.43227 0.385462,-11.768611 C 35.601353,10.130288 34.43392,7.6501325 33.797836,6.3294855 32.383692,3.9684269 31.263548,2.1226546 31.020684,1.7486257 30.745259,1.3244515 30.055621,1.1129953 29.4686,1.13174 Z M 25.154066,2.4574062 C 21.249672,3.1921282 14.91852,4.4429011 13.338283,4.5758358 11.758047,4.7087701 10.898626,4.8253997 12.342275,4.2321413 13.785923,3.6388829 19.445398,2.4869225 25.154066,2.4574062 Z m 23.72631,8.1199398 c 0.07198,4.36e-4 0.209658,0.319245 0.475389,1.058664 0.654105,1.820111 1.570667,3.200407 1.942123,4.286071 0.371454,1.085662 -0.900696,1.714214 -2.127968,2.50534 -1.227273,0.791125 -2.15854,1.543567 -1.528194,0.162188 0.630346,-1.381379 1.110498,-4.530809 1.146642,-6.289124 0.02146,-1.043999 -0.01321,-1.723777 0.09201,-1.723139 z" /><path
       id="path22"
       style="opacity:1;fill:#000000;fill-opacity:0.0543881;stroke-width:0.557927;stroke-linecap:round;stroke-linejoin:round;paint-order:markers stroke fill"
       d="M 64.274021,0.42073417 C 60.072556,0.18025465 52.843112,1.2795696 51.243045,1.2781499 c -1.60007,-0.00142 -1.06618,-0.014517 -2.335318,-0.099104 -1.26914,-0.084588 -1.903129,1.4587925 -1.574469,2.0412528 0.328658,0.5824599 0.962532,2.575724 1.062468,6.5409542 0.09994,3.9652311 -1.194694,9.0287361 -1.962419,10.4040031 -1.1598,0.186131 -2.087353,0.987727 -4.112995,0.771496 C 40.294673,20.720518 40.303583,19.0615 38.803064,17.419939 37.302546,15.778379 38.874504,14.915415 36.132379,10.24999 33.390264,5.5845649 31.387917,2.314191 31.020684,1.7486257 30.653451,1.18306 29.550349,0.99526221 28.935056,1.22796 28.319763,1.4606577 27.320787,1.8248033 24.294098,2.0102173 21.26741,2.1956311 15.652222,2.4753996 12.418587,3.7628943 9.1849513,5.0503889 10.895731,4.7793988 6.4990889,6.6865905 5.6052025,7.074344 4.8094939,7.5317302 4.1043527,8.0217436 8.7018538,10.80685 17.249728,11.378054 23.538625,12.188802 c 6.835754,0.881248 8.379047,3.040034 14.019769,10.634398 5.64072,7.594355 7.232794,0.42174 7.232794,0.42174 0,0 7.941736,4.297762 11.611055,-2.822815 C 59.978336,13.48246 63.433105,8.2098991 71.575567,3.6613166 69.858824,1.2346209 68.433799,0.65882808 64.274021,0.42073417 Z" /><path
       id="path7"
       style="fill:#7e7571;fill-opacity:1;stroke-width:0.557927;stroke-linecap:round;stroke-linejoin:round;paint-order:markers stroke fill"
       d="m 46.433307,20.165256 c -1.1598,0.186131 -2.087353,0.987727 -4.112995,0.771496 -0.540615,-0.05771 -0.931081,-0.223493 -1.249222,-0.458978 -5.223062,-1.441681 -7.089219,0.308319 -8.201473,3.485495 -0.171578,1.518753 -0.348807,4.263012 2.049141,5.686233 2.397948,1.423223 6.332534,3.037857 9.262592,3.639557 2.930062,0.601696 6.048962,-0.367329 7.670289,-0.828237 1.621328,-0.46091 4.217128,-2.282006 4.725977,-3.387581 1.688104,-6.926516 -5.318667,-6.61942 -10.144309,-8.907985 z"
       sodipodi:nodetypes="csccssscc" /><path
       id="path17"
       style="opacity:1;fill:#ffffff;fill-opacity:0.163164;stroke-width:0.557927;stroke-linecap:round;stroke-linejoin:round;paint-order:markers stroke fill"
       d="m 46.387121,20.17586 c -1.138127,0.199761 -2.068603,0.974194 -4.066809,0.760892 -0.540615,-0.05771 -0.931081,-0.223493 -1.249222,-0.458978 -4.183092,-1.154627 -6.210862,-0.25899 -7.424747,1.774378 1.810017,-1.789138 3.680596,-1.860802 5.24134,-1.694882 1.684367,0.179059 2.750078,0.980557 4.11954,0.796891 1.159918,-0.15556 2.848184,-0.552306 3.379898,-1.178301 z" /><path
       style="fill:#64494d;fill-opacity:1;stroke-width:0.557927;stroke-linecap:round;stroke-linejoin:round;paint-order:markers stroke fill"
       d="m 38.879478,27.26436 c -0.214999,0.200868 -1.259038,0.896011 -2.029087,0.830155 -0.770048,-0.06585 -1.792768,-0.931306 -1.678919,-1.072192 0.113851,-0.140885 0.368812,-0.434604 0.807273,-0.665647 0.438463,-0.231042 0.969862,-0.138951 1.607279,0.121795 0.637417,0.260747 1.508453,0.585021 1.293454,0.785889 z"
       id="path4"
       sodipodi:nodetypes="zzsszz" /><path
       style="fill:#656565;fill-opacity:1;stroke-width:0.557927;stroke-linecap:round;stroke-linejoin:round;paint-order:markers stroke fill"
       d="m 37.257208,24.554907 c 0.405535,0.153982 0.50899,0.479275 0.336531,0.723855 -0.172463,0.244579 -0.477245,0.46909 -0.604834,0.355921 -0.127584,-0.113171 0.345363,-0.23578 0.289016,-0.438666 -0.05634,-0.202885 -0.235545,-0.612039 -0.02071,-0.641108 z"
       id="path5" /><ellipse
       style="fill:#101010;fill-opacity:1;stroke-width:0.557927;stroke-linecap:round;stroke-linejoin:round;paint-order:markers stroke fill"
       id="path6"
       cx="40.64106"
       cy="23.841494"
       rx="0.41283527"
       ry="0.53269064"
       transform="rotate(2.9132453)" /><path
       id="path14"
       style="opacity:1;fill:#6f5558;fill-opacity:1;stroke-width:0.557927;stroke-linecap:round;stroke-linejoin:round;paint-order:markers stroke fill"
       d="m 37.064949,27.028505 c -0.08431,-0.0036 -0.164989,-0.003 -0.240705,0.0025 -0.587984,0.0433 -1.22278,0.03982 -1.656716,0.04523 0.06991,0.234543 0.980987,0.958309 1.682785,1.018326 0.770049,0.06585 1.814142,-0.629178 2.029141,-0.830046 0.01246,-0.01168 0.0211,-0.02386 0.02652,-0.03628 -0.61749,0.0025 -1.306478,-0.177024 -1.841025,-0.199789 z" /><path
       id="path8"
       style="fill:#afa0a2;fill-opacity:1;stroke-width:0.557927;stroke-linecap:round;stroke-linejoin:round;paint-order:markers stroke fill"
       d="m 36.608591,26.226188 c -0.06639,-0.0029 -0.131298,-0.0014 -0.194528,0.0043 l 0.164927,0.383443 0.127335,-0.380908 c -0.03299,-0.0032 -0.0655,-0.0055 -0.09773,-0.0068 z m 0.209857,0.02178 0.104981,0.41 0.394282,-0.280962 c -0.17495,-0.06023 -0.341285,-0.104206 -0.499257,-0.129038 z m -0.422386,-0.01533 c -0.14759,0.01553 -0.286401,0.05485 -0.417124,0.123734 -0.05824,0.03069 -0.113373,0.06283 -0.165229,0.09522 l 0.244849,1.152416 z m 1.325752,0.300639 0.188849,1.161903 0.455523,-0.890387 c -0.200591,-0.09164 -0.428671,-0.184168 -0.644372,-0.271516 z" /><g
       id="g17"
       transform="matrix(1.190611,0.0605897,-0.0605897,1.190611,-0.08260773,-3.6809385)"><path
         style="opacity:1;fill:#8f8385;fill-opacity:1;stroke-width:0.468;stroke-linecap:round;stroke-linejoin:round;paint-order:markers stroke fill"
         d="m 35.355527,24.709771 c 1.45099,-0.539471 2.301182,-1.966058 1.943716,-3.529967 -0.357465,-1.56391 -0.848979,-2.904404 -1.172932,-3.094307 -0.323953,-0.189903 -0.770784,-0.02234 -1.217615,0.647905 -0.446831,0.670247 -0.513855,0.983029 -0.949518,1.441031 -0.43566,0.458002 -0.189902,1.452202 0.625565,1.843179 0.815467,0.390978 0.479108,2.800602 0.770784,2.692159 z"
         id="path2"
         sodipodi:nodetypes="sssssss" /><path
         id="path9"
         style="opacity:1;fill:#847072;fill-opacity:1;stroke-width:0.468;stroke-linecap:round;stroke-linejoin:round;paint-order:markers stroke fill"
         d="m 36.224662,18.972485 c -0.04012,-0.0038 -0.07903,0.04938 -0.120923,0.185519 -0.134051,0.435661 -0.200978,0.670277 -0.256831,0.759643 -0.05585,0.08937 0.189892,0.111732 0.14521,0.234611 -0.04469,0.122878 -0.100608,0.268115 -0.03359,0.379822 0.06703,0.111708 -0.144862,0.189885 -0.06666,0.290422 0.07819,0.100537 0.122642,0.346309 0.04444,0.379821 -0.0782,0.03351 0.07817,0.346147 -0.0894,0.457854 -0.167561,0.111708 -0.401794,0.37971 -0.591696,0.256831 -0.189905,-0.122878 -0.569991,-0.100672 -0.569991,-0.3576 0,-0.256928 0.134301,-0.413051 -0.189652,-0.480075 -0.305888,-0.06329 -0.333764,0.33091 -0.674378,0.09302 0.117999,0.336461 0.375732,0.659377 0.763778,0.845427 0.607751,0.291387 0.575791,1.702658 0.640788,2.358512 0.802629,-0.235702 1.029133,-0.419772 0.84491,-0.593762 -0.201076,-0.189903 -0.502945,-0.189909 -0.335381,-0.525033 0.16756,-0.335123 0.133909,-1.072079 0.312643,-1.206128 0.178731,-0.13405 0.335425,-0.100552 0.279569,-0.379822 -0.05585,-0.279269 -0.123156,-1.117433 -0.04496,-1.273824 0.07819,-0.156391 0.07821,0.659174 0.234611,0.938444 0.15639,0.279269 0.06702,1.005648 0.145211,1.240235 0.0782,0.234586 -0.04468,1.027207 0,1.049548 0.04468,0.02234 0.446769,-0.681107 0.346232,-1.73116 -0.100536,-1.050054 -0.223068,-1.932792 -0.446485,-2.34611 -0.153598,-0.284158 -0.249188,-0.567913 -0.337447,-0.576193 z" /><path
         id="path11"
         style="opacity:1;fill:#ffffff;fill-opacity:0.2;stroke-width:0.468;stroke-linecap:round;stroke-linejoin:round;paint-order:markers stroke fill"
         d="m 35.86241,18.012337 c -0.283284,-0.0016 -0.618823,0.218203 -0.953946,0.720886 -0.446831,0.670247 -0.513634,0.983254 -0.949297,1.441256 -0.07166,0.07534 -0.124395,0.165304 -0.15968,0.264583 0.389795,-0.365608 0.793612,-0.794906 0.979785,-1.189591 0.197474,-0.418643 0.608167,-0.979123 0.916224,-1.042314 0.285341,-0.05853 0.356349,-0.06768 0.615983,0.08165 -0.06565,-0.09943 -0.128064,-0.169711 -0.185002,-0.203088 -0.08099,-0.04748 -0.169638,-0.07286 -0.264067,-0.07338 z" /></g><g
       id="g16"
       transform="matrix(1.190611,0.0605897,-0.0605897,1.190611,-0.08260773,-3.6809385)"><path
         style="opacity:1;fill:#8f8385;fill-opacity:1;stroke-width:0.468;stroke-linecap:round;stroke-linejoin:round;paint-order:markers stroke fill"
         d="m 31.792046,20.654778 c 0.347472,-0.07856 -0.189902,-0.458003 -0.793126,-1.306982 -0.603221,-0.84898 -0.983027,-1.653276 -1.139417,-1.262299 -0.156393,0.390978 -0.06703,0.647906 -0.357466,1.150591 -0.290441,0.502685 -0.54737,1.41869 -0.424489,2.613963 0.122878,1.195274 0.290438,2.044253 0.580879,1.664447 0.290441,-0.379807 1.109185,-2.628109 2.133619,-2.85972 z"
         id="path3"
         sodipodi:nodetypes="sssssss" /><path
         id="path10"
         style="opacity:1;fill:#847072;fill-opacity:1;stroke-width:0.468;stroke-linecap:round;stroke-linejoin:round;paint-order:markers stroke fill"
         d="m 30.013025,19.108231 c -0.01787,6.32e-4 -0.03894,0.0092 -0.06408,0.02739 -0.201075,0.14522 -0.133911,0.424608 -0.312642,0.648023 -0.178731,0.223416 -0.368706,1.731528 -0.178801,2.18953 0.189902,0.458002 0.346067,0.413174 0.424264,-0.21239 0.05832,-0.466622 0.365069,0.0608 0.517281,0.359151 0.147966,-0.262539 0.311047,-0.525087 0.487825,-0.755509 -0.502048,-0.567752 -0.566921,-0.708929 -0.457853,-1.134298 0.111708,-0.435661 0.122964,-0.625439 -0.111621,-0.692464 -0.205264,-0.05864 -0.179293,-0.433859 -0.304374,-0.429431 z" /><path
         id="path12"
         style="opacity:1;fill:#ffffff;fill-opacity:0.2;stroke-width:0.468;stroke-linecap:round;stroke-linejoin:round;paint-order:markers stroke fill"
         d="m 29.971167,17.984268 c -0.04503,-0.0032 -0.0823,0.02798 -0.111621,0.101286 -0.0059,0.01474 -0.01079,0.02903 -0.01602,0.04341 0.16678,-0.09319 0.309452,0.342462 0.534334,0.608232 0.256765,0.303448 0.987999,1.379641 1.51567,1.857251 0.07414,-0.149809 -0.386701,-0.531731 -0.894519,-1.246436 -0.490117,-0.689796 -0.832705,-1.350091 -1.027844,-1.363741 z" /></g><path
       id="path13"
       style="opacity:1;fill:#000000;fill-opacity:0.124845;stroke-width:0.557927;stroke-linecap:round;stroke-linejoin:round;paint-order:markers stroke fill"
       d="m 56.828447,27.053456 c -0.830446,1.762685 -5.273903,4.046327 -7.94823,4.400229 -2.690025,0.355984 -14.039978,-0.612941 -15.972622,-4.733593 0.217743,1.095015 0.76584,2.190291 2.011163,2.92941 2.397948,1.423223 6.332534,3.037857 9.262592,3.639557 2.930062,0.601696 6.048962,-0.367329 7.670289,-0.828237 1.621328,-0.46091 4.217128,-2.282006 4.725977,-3.387581 0.184444,-0.756801 0.2598,-1.422874 0.250831,-2.019785 z"
       sodipodi:nodetypes="cscssscc" /><ellipse
       style="fill:#ffffff;fill-opacity:1;stroke-width:0.111585;stroke-linecap:round;stroke-linejoin:round;paint-order:markers stroke fill"
       id="ellipse14"
       cx="40.527863"
       cy="23.734955"
       rx="0.082567036"
       ry="0.10653812"
       transform="rotate(2.9132453)" /><path
       id="ellipse15"
       style="fill:#101010;stroke-width:0.42514;stroke-linecap:round;stroke-linejoin:round;paint-order:markers stroke fill"
       d="m 34.98337,25.363991 c -0.01495,0.293816 0.0801,0.537456 0.212328,0.544185 0.132217,0.0067 0.138668,-0.231745 0.15362,-0.525561 0.01495,-0.293818 0.03278,-0.531712 -0.09947,-0.538443 -0.132218,-0.0067 -0.251522,0.226002 -0.266474,0.519819 z"
       sodipodi:nodetypes="sssss" /><ellipse
       style="fill:#ffffff;fill-opacity:1;stroke-width:0.111585;stroke-linecap:round;stroke-linejoin:round;paint-order:markers stroke fill"
       id="ellipse16"
       cx="-36.38483"
       cy="23.360319"
       rx="0.082567036"
       ry="0.10653812"
       transform="matrix(-0.99870763,-0.05082382,-0.05082382,0.99870763,0,0)" /><path
       style="fill:#656565;fill-opacity:1;stroke-width:0.557927;stroke-linecap:round;stroke-linejoin:round;paint-order:markers stroke fill"
       d="m 36.663927,24.480624 c -0.431368,0.04573 -0.614185,0.333995 -0.509632,0.614406 0.104552,0.280409 0.342185,0.575079 0.494369,0.498098 0.15218,-0.07698 -0.274007,-0.315892 -0.167892,-0.497765 0.106113,-0.181871 0.38352,-0.531964 0.183151,-0.61474 z"
       id="path18" /></g></svg>
