<?xml version='1.0' encoding='utf-8'?>
<svg xmlns="http://www.w3.org/2000/svg" width="3000" height="2500" viewBox="0 0 793.74998 661.45835" version="1.1" id="svg8"> <defs id="defs2"/> <metadata id="metadata5"> </metadata> <g id="layer1" transform="translate(0,364.45835)"> <path id="path836" d="m 528.24023,288.45633 c -0.79453,-0.57956 -5.38086,-6.28032 -10.19183,-12.66833 -4.81097,-6.388 -21.71518,-24.52721 -37.56493,-40.30933 -23.75523,-23.65391 -29.92717,-30.61513 -35.13322,-39.62614 -8.94974,-15.49079 -11.05956,-17.81787 -23.47968,-25.89744 -6.08526,-3.9586 -13.45165,-9.12588 -16.36974,-11.48286 -6.88589,-5.56177 -16.63187,-18.11518 -21.10382,-27.18296 -1.94581,-3.94553 -4.17837,-7.16474 -4.96123,-7.15382 -0.78284,0.0111 -4.03788,0.93069 -7.23342,2.04386 -3.19553,1.1132 -12.70215,2.62879 -21.12582,3.368 -22.03001,1.93321 -45.5885,-0.96335 -66.79892,-8.21308 -10.76428,-3.67921 -18.21669,-5.41881 -23.22911,-5.42228 -4.84708,-0.003 -8.78715,-0.88591 -11.47941,-2.57134 -2.25458,-1.41145 -15.03723,-13.395558 -28.40588,-26.631338 L 196.8566,62.644199 196.71593,49.615634 c -0.0773,-7.165716 -0.66022,-13.349659 -1.2952,-13.742096 -0.63499,-0.392448 -12.99583,-2.238288 -27.46857,-4.101877 -30.04391,-3.868599 -42.83707,-7.132624 -51.60884,-13.167346 -4.8212,-3.316821 -8.21415,-4.434462 -15.7138,-5.176076 C 89.430918,12.320857 81.887963,8.8597842 62.824339,-3.9186414 44.2273,-16.384281 32.282548,-28.484555 25.134917,-42.098705 18.0353,-55.621429 17.932185,-58.543014 24.046879,-72.925452 c 0.710958,-1.672258 -0.557068,-3.841957 -4.509616,-7.716234 -6.487215,-6.358756 -7.778145,-11.345971 -6.443338,-24.892114 1.510315,-15.32741 10.750727,-39.17352 25.267902,-65.20718 8.801488,-15.78369 16.780916,-24.7391 27.098885,-30.41338 6.05895,-3.33204 6.530349,-3.99172 7.352531,-10.28907 1.95769,-14.99444 6.092089,-20.57508 37.052597,-50.01387 20.63663,-19.62235 27.11279,-24.94032 36.6123,-30.06457 6.34753,-3.424 13.25475,-6.63143 15.34942,-7.12763 2.09467,-0.49617 6.70633,-2.93913 10.24814,-5.42874 11.79957,-8.2942 33.01613,-18.71894 43.70305,-21.47345 15.11334,-3.89542 40.71804,-8.06834 49.50415,-8.06795 4.13343,1.9e-4 9.89769,0.66185 12.8095,1.47034 5.0451,1.40084 5.52725,1.24705 10.24814,-3.2689 2.72467,-2.60641 7.97149,-6.04658 11.65959,-7.64485 8.57667,-3.71675 36.86308,-8.43551 55.87408,-9.32096 l 14.75508,-0.68722 8.25882,5.09763 c 9.43553,5.82393 10.85285,5.63463 20.05442,-2.67845 l 5.36306,-4.84518 14.86498,0.0202 c 8.29718,0.0113 18.66827,0.91684 23.473,2.0496 7.52173,1.77331 9.08979,1.78028 12.42569,0.0551 5.98102,-3.0929 16.04347,-3.83098 30.98842,-2.27297 14.04104,1.46376 22.77557,4.78533 30.28922,11.51839 2.78458,2.49528 3.54466,2.58104 8.46953,0.95569 13.13715,-4.33565 36.36937,5.16697 42.12122,17.22877 1.88327,3.94924 3.43029,5.02011 9.81969,6.79738 16.37608,4.55515 20.47444,6.33571 32.93249,14.3078 13.44845,8.60586 19.04201,13.90635 19.05353,18.05523 0.0113,3.78571 9.35115,12.40977 18.82948,17.38496 9.31884,4.89148 14.21283,9.30347 31.40544,28.31233 7.00922,7.74969 13.32158,13.37585 16.65954,14.84855 3.90464,1.72273 8.3215,6.13881 16.15169,16.14887 17.91842,22.90675 28.24154,44.63893 36.00799,75.80387 2.91869,11.71207 6.44498,21.52898 11.01626,30.66856 11.35809,22.708691 17.32483,41.892155 17.49416,56.244869 0.0443,3.757653 0.71573,9.291632 1.49201,12.297765 0.77629,3.006111 2.01815,7.876791 2.7597,10.823719 0.96387,3.830488 0.72041,11.414869 -0.85399,26.6026851 -2.18263,21.0553029 -2.26886,21.3847389 -9.67607,36.9678489 -4.11057,8.647775 -8.83404,17.208658 -10.49656,19.024191 -1.66251,1.815518 -6.8658,5.064683 -11.56288,7.220358 -7.19257,3.300967 -8.5401,4.464854 -8.5401,7.376268 0,8.653089 -7.14075,17.085406 -23.40369,27.636726 l -9.00448,5.84208 -0.93594,13.58927 c -1.48824,21.60821 -5.90576,32.19744 -18.90656,45.321 -9.42005,9.509 -17.70504,14.5131 -32.78986,19.805 -8.57535,3.00831 -13.88378,3.69774 -39.02358,5.06825 -16.9119,0.92195 -29.5014,2.18485 -30.06121,3.01554 -8.33742,12.37222 -17.7895,18.50061 -33.83844,21.93964 -5.96755,1.27874 -11.00329,2.4274 -11.19053,2.55259 -0.18724,0.12517 2.44111,12.59978 5.84078,27.72131 3.39966,15.12154 6.31984,29.82814 6.48931,32.68134 0.30226,5.08908 0.17831,5.23072 -6.52398,7.45453 -9.18907,3.04894 -16.08844,4.16501 -17.84162,2.88614 z" style="fill:#f58191;fill-opacity:1;stroke-width:1.36641824"/> <path id="path834" d="m 519.75915,275.47129 c -8.94438,-11.80622 -23.1844,-26.87247 -49.56452,-52.44033 -12.52351,-12.13789 -17.03215,-17.59344 -22.49488,-27.21919 -8.28635,-14.60116 -13.2367,-19.77197 -27.38967,-28.60949 -14.63715,-9.13984 -27.60317,-22.4587 -33.13237,-34.03402 -2.39867,-5.02159 -5.26894,-9.47847 -6.37833,-9.9042 -1.10941,-0.42571 -4.64986,0.20309 -7.8677,1.39737 -3.21784,1.19426 -13.23731,2.74469 -22.26548,3.44543 -22.00537,1.70792 -49.23916,-1.59849 -66.25343,-8.04374 -7.86381,-2.97891 -14.49812,-4.51556 -20.54378,-4.75838 -4.91107,-0.19723 -10.62709,-1.24823 -12.70227,-2.33551 -2.07518,-1.08731 -14.86925,-12.979946 -28.43127,-26.428096 l -24.65822,-24.451167 -0.216,-13.623764 c -0.12216,-7.700136 -0.81014,-13.804404 -1.58244,-14.039223 -0.75153,-0.228493 -13.35675,-1.94261 -28.01157,-3.809137 -29.9382,-3.813104 -42.95293,-7.194111 -51.87367,-13.475917 -5.04597,-3.553275 -7.55769,-4.346309 -14.55127,-4.594397 C 91.889932,12.194462 83.176897,8.2190883 63.105313,-5.1264424 44.964679,-17.188074 33.639337,-28.647452 26.501334,-42.163556 c -6.554982,-12.412148 -7.109821,-17.233782 -3.02033,-26.24729 2.516544,-5.546634 2.560798,-6.263892 0.573583,-9.296766 -1.184344,-1.807538 -3.062599,-3.63535 -4.173895,-4.061785 -5.836925,-2.239829 -7.821578,-18.393913 -4.083602,-33.238223 2.694204,-10.69916 14.179802,-37.95178 22.747099,-53.97351 8.615643,-16.11212 17.493561,-26.08932 27.89975,-31.35438 7.526884,-3.80826 7.540426,-3.8266 7.540426,-10.216 0,-10.41193 5.460001,-19.43646 21.144771,-34.94905 33.805474,-33.43435 52.061944,-47.67072 66.104094,-51.54794 2.56798,-0.70906 8.12189,-3.62857 12.34201,-6.48781 12.05803,-8.1696 32.31888,-17.74995 43.7126,-20.66951 26.7152,-6.84559 51.57974,-9.58665 61.4038,-6.76914 4.0874,1.17225 5.00095,0.84873 9.77024,-3.46005 7.35072,-6.64092 18.90847,-10.875 34.8938,-12.78303 7.5153,-0.89704 15.81629,-2.17759 18.44666,-2.84567 2.63035,-0.66808 10.45873,-1.35168 17.39639,-1.51911 12.58554,-0.30374 12.63101,-0.29268 20.19441,4.91644 l 7.58047,5.22087 4.81514,-2.585 c 2.64834,-1.42175 6.32451,-4.27594 8.16931,-6.34265 3.30056,-3.69759 3.61064,-3.7574 19.39904,-3.74144 9.38815,0.009 19.03477,0.81214 23.25151,1.93465 6.62375,1.76325 7.83941,1.69508 15.0306,-0.8429 6.8403,-2.41414 9.71368,-2.64174 22.85457,-1.81031 16.46186,1.04152 24.99245,3.709 33.9021,10.60101 4.75075,3.67494 5.5636,3.88053 9.27087,2.34493 6.76714,-2.80304 19.07711,-0.89642 28.89059,4.47468 7.5804,4.14891 9.98968,6.53058 15.38721,15.21088 0.75152,1.2086 6.9004,3.77551 13.66418,5.70424 11.45021,3.26509 19.90987,7.55766 36.89328,18.72025 5.14651,3.3826 7.27097,5.82978 8.6109,9.91901 2.16295,6.60083 10.66631,14.66389 20.32548,19.273 7.55785,3.6064 13.26889,8.84814 32.24793,29.59796 7.93703,8.67758 13.56033,13.62943 16.62671,14.64143 2.5484,0.84105 5.71307,3.18906 7.0326,5.21779 1.31953,2.02874 5.60515,7.6854 9.52358,12.57034 15.24814,19.00916 27.32304,44.98658 33.345,71.73695 2.02613,9.00031 5.79811,19.49403 11.05116,30.74442 11.65785,24.967525 16.2766,39.79664 17.61898,56.568218 0.61993,7.745426 1.77692,15.296656 2.57107,16.780529 2.81132,5.253005 3.14467,16.28251 0.9829,32.521807 -1.19855,9.003592 -2.84175,18.8418 -3.65156,21.862698 -2.15822,8.051017 -14.00518,32.452965 -17.03552,35.089182 -1.43407,1.247554 -6.288,4.025044 -10.78653,6.172194 -7.23408,3.452842 -8.27154,4.453785 -8.97904,8.66305 -1.70013,10.114924 -7.0044,16.449884 -21.10154,25.201838 -10.54685,6.547814 -11.60892,8.041254 -11.64203,16.370164 -0.0846,21.28204 -5.81204,36.3666 -18.81935,49.56505 -9.40424,9.54243 -19.89403,15.4389 -36.0895,20.28642 -8.81955,2.6398 -15.28643,3.37178 -36.78314,4.16348 -28.7549,1.05899 -26.66383,0.3895 -35.04924,11.22147 -4.61085,5.9561 -14.11214,10.64132 -27.24447,13.43461 -5.85212,1.24477 -11.1296,2.68837 -11.72772,3.20801 -0.59814,0.51966 1.13473,11.03151 3.85084,23.35969 2.7161,12.3282 5.72942,26.59447 6.69623,31.70284 l 1.75787,9.28794 -4.48626,1.87448 c -2.46745,1.03097 -7.75837,2.24287 -11.75761,2.69312 l -7.27134,0.81862 z m 22.63192,0.87318 c 0.54686,-3.82821 -16.98446,-57.19294 -19.46538,-59.25191 -1.2639,-1.04896 -4.08607,-1.29997 -8.00618,-0.71211 -4.32796,0.64901 -7.25225,0.28836 -10.25589,-1.26489 -2.31094,-1.19503 -4.53818,-1.62831 -4.94948,-0.96285 -1.74742,2.8274 2.01404,14.36332 7.7072,23.63703 3.37194,5.49268 9.01049,15.34167 12.53006,21.88666 8.87043,16.49536 12.4079,20.46453 17.77318,19.94219 3.11211,-0.30299 4.36795,-1.18409 4.66649,-3.27412 z M 563.84529,128.9015 c 21.65713,-2.67375 33.7134,-5.59555 44.45142,-10.7726 7.03137,-3.39001 8.9151,-4.96003 9.21158,-7.6775 0.20497,-1.87883 1.33124,-7.01721 2.50279,-11.418634 1.93427,-7.266773 1.88119,-10.282001 -0.31075,-17.652867 -0.52879,-1.778148 0.37167,-2.807416 3.37068,-3.852876 2.91486,-1.016137 4.72711,-3.013364 6.29904,-6.942007 2.49827,-6.243779 1.7055,-8.052001 -5.06534,-11.553339 -3.5402,-1.8307 -4.30827,-1.821121 -7.22516,0.09005 -6.44493,4.222889 -10.62605,1.673754 -6.80923,-4.151437 1.23858,-1.890345 2.05952,-4.436352 1.82431,-5.657806 -0.2821,-1.464773 -2.17162,0.311269 -5.55028,5.216931 -2.81741,4.090755 -5.12256,8.087145 -5.12256,8.880857 0,0.793711 2.15211,2.469377 4.78247,3.723708 3.78033,1.802715 4.78246,3.080563 4.78246,6.098284 0,10.507416 -14.58533,10.936975 -20.36995,0.59994 -1.11763,-1.997198 -3.95442,-2.350568 -20.18482,-2.51436 -11.47991,-0.115873 -22.90268,-1.053003 -29.13257,-2.390112 -5.63647,-1.209745 -10.40185,-2.200042 -10.58972,-2.200658 -0.18789,-6.14e-4 -0.34163,1.133363 -0.34163,2.519936 0,4.107043 -4.36173,6.870282 -14.43569,9.145273 l -9.48224,2.141354 0.77566,11.201202 c 0.75658,10.925811 1.50623,13.073251 8.36547,23.963871 1.58105,2.5103 3.26963,6.50708 3.75239,8.88172 l 0.87776,4.31755 11.56382,0.77026 c 6.36009,0.42362 12.48615,0.87988 13.61344,1.01389 1.12729,0.13405 9.42829,-0.6673 18.44665,-1.78069 z M 333.39992,108.9513 c 8.04482,-2.80444 4.73802,-4.61287 -14.8267,-8.10847 -4.88495,-0.8728 -14.10827,-3.316309 -20.49627,-5.430053 -6.38801,-2.113721 -20.16234,-6.500535 -30.60962,-9.748447 L 248.4723,79.759026 241.50539,69.616145 C 229.43631,52.045167 207.57052,24.405266 206.34064,25.165397 c -2.64132,1.632421 -0.85464,7.559299 4.75739,15.781392 3.26564,4.784446 10.12239,15.462758 15.23722,23.729589 11.40343,18.430756 21.56505,29.213585 32.67793,34.675626 8.81351,4.331886 25.10012,7.209376 54.09437,9.557286 7.89106,0.639 14.7168,1.24739 15.1683,1.35197 0.45149,0.10459 2.75733,-0.48491 5.12407,-1.30996 z m 31.45223,-32.788345 c 8.38382,-3.466521 16.63596,-5.771328 23.91232,-6.678643 11.6658,-1.454649 13.83804,-2.801894 15.46313,-9.590398 1.30004,-5.430693 5.80767,-13.664183 7.48079,-13.664183 0.84129,0 2.31577,-1.075124 3.27661,-2.389154 1.64907,-2.255246 1.96388,-2.228833 5.61632,0.47106 13.43533,9.931468 16.5702,11.586037 24.36558,12.8601 10.94312,1.788504 18.91809,1.704168 20.84266,-0.220404 2.07851,-2.0785 7.39627,-1.816653 17.41705,0.857605 4.50917,1.203363 16.80695,2.79177 27.32837,3.529759 l 19.12985,1.341823 10.93135,-5.437156 c 6.01224,-2.990448 21.76469,-9.417683 35.00544,-14.282747 30.55881,-11.228282 35.7582,-13.708222 40.81472,-19.467271 4.92559,-5.609938 5.07692,-6.748375 1.04086,-7.829992 -6.68089,-1.790413 -14.98544,-0.647739 -29.65127,4.079897 -17.21993,5.550942 -20.32794,5.119159 -15.99158,-2.221706 1.32748,-2.247227 1.91764,-4.081794 1.31152,-4.076847 -1.82434,0.01486 -7.98989,4.486535 -12.88907,9.347959 -10.04933,9.971856 -37.62748,27.536329 -43.23507,27.536329 -4.45251,0 -14.31339,-5.29789 -26.62142,-14.302737 -16.36049,-11.96973 -13.16703,-15.87016 5.45863,-6.667043 17.26662,8.531589 28.20944,7.392242 41.13211,-4.28262 8.23767,-7.442243 18.89466,-22.5378477 19.79381,-28.0379098 0.43001,-2.6303626 1.16809,-6.6433126 1.64013,-8.9176792 0.7753,-3.735336 0.38426,-4.36127 -4.04375,-6.47284 -8.6138,-4.107636 -12.5013,-14.670688 -5.39924,-14.670688 4.65221,0 1.14737,-2.578922 -6.37223,-4.688817 -11.95169,-3.353477 -16.31233,-2.968456 -36.81102,3.250229 -10.13124,3.073501 -19.20084,5.288719 -20.15467,4.922697 -0.95384,-0.36601 -1.74366,-2.068292 -1.75518,-3.782829 -0.043,-6.416842 -3.03998,-7.661876 -12.10604,-5.029307 -1.25224,0.363615 -2.84719,-2.188643 -4.78246,-7.652947 l -2.90365,-8.198502 -0.47731,5.465668 c -0.26253,3.006133 0.26442,10.552604 1.171,16.76997 1.78929,12.271046 0.96861,20.806532 -2.00056,20.806532 -2.60023,0 -8.78028,-7.660156 -9.73093,-12.061465 -0.43388,-2.008788 -2.6663,-10.416116 -4.96094,-18.682941 -2.29464,-8.266835 -4.13183,-16.752578 -4.08262,-18.857194 0.1994,-8.530307 11.33432,-21.452142 18.4856,-21.452142 4.80725,0 13.89441,10.338677 15.07896,17.155667 0.51513,2.964618 2.30381,8.157232 3.97485,11.539113 4.02543,8.146806 6.5299,8.29971 31.99975,1.953809 19.54792,-4.870413 20.97456,-5.031114 42.34071,-4.769405 25.74947,0.315423 23.15699,1.815999 31.16263,-18.037653 3.16584,-7.851125 5.21439,-15.875229 6.24277,-24.452674 0.84188,-7.021758 2.6884,-17.071068 4.1034,-22.331788 1.415,-5.2607 3.52228,-15.08043 4.68284,-21.82161 l 2.11011,-12.25667 -6.38223,-12.68923 c -6.67749,-13.27621 -9.34186,-16.69627 -11.37014,-14.59507 -0.65846,0.6821 -3.63543,5.75685 -6.61554,11.2772 -5.5409,10.26402 -15.98221,20.7074 -20.70329,20.7074 -3.17916,0 -6.18955,-3.66172 -8.22848,-10.00885 -2.18081,-6.78878 -1.92578,-7.68661 8.70877,-30.65868 4.9619,-10.71844 9.02164,-21.32525 9.02164,-23.57071 0,-7.45991 -7.59512,-12.03546 -17.35034,-10.45241 -5.84223,0.94806 -10.58333,5.06143 -14.42907,12.51862 -2.74292,5.31869 -2.77427,6.18373 -1.16638,32.16927 1.63462,26.41766 1.05044,44.11569 -1.56541,47.42459 -2.37273,3.00136 -7.18201,1.8418 -11.70179,-2.82143 -4.69896,-4.84811 -7.0773,-11.07229 -7.0773,-18.52148 0,-8.6128 -5.51363,-28.52745 -9.39289,-33.92622 -2.05302,-2.85718 -5.67019,-8.57677 -8.03815,-12.71018 -5.6182,-9.80687 -16.29198,-21.86268 -19.35645,-21.86268 -4.36101,0 -6.8167,4.70848 -10.36868,19.88078 -3.91868,16.73861 -11.87889,40.90144 -15.6526,47.51277 -1.36357,2.38888 -3.17322,6.49551 -4.02147,9.12586 -0.84825,2.63036 -6.7446,11.23879 -13.10302,19.12986 -12.1177,15.03859 -13.74623,18.30128 -8.54233,17.11415 26.27508,-5.99408 33.71357,-7.03813 43.04213,-6.04138 5.36758,0.57353 19.58218,1.77136 31.58796,2.66183 l 21.82869,1.61907 17.52949,-5.58816 c 21.63148,-6.8958 24.21957,-7.26914 24.75501,-3.57097 0.32697,2.25829 -2.99789,4.79582 -17.75901,13.55362 -9.98871,5.92632 -18.4175,10.978608 -18.73064,11.227288 -1.8243,1.44883 2.75067,2.27209 14.59615,2.62651 14.93342,0.446829 18.39002,1.419907 23.99862,6.755919 l 3.86498,3.67713 -3.86498,4.040767 c -2.12575,2.222405 -3.67608,5.206632 -3.44522,6.631622 0.29438,1.816943 -0.62668,2.853518 -3.08341,3.470113 -5.75642,1.444765 -13.03685,-0.520922 -26.03112,-7.028334 -10.52308,-5.269819 -15.74855,-6.833771 -36.21009,-10.837371 -22.91787,-4.484228 -24.62263,-4.629778 -40.99254,-3.49997 -12.84769,0.886721 -25.03741,3.044786 -49.19106,8.708743 -50.84528,11.923103 -66.02507,15.972931 -69.71375,18.598935 -1.89336,1.347917 -4.81409,2.886081 -6.4905,3.41815 -1.97133,0.625678 -3.04801,2.060794 -3.04801,4.062672 0,3.662933 -7.09115,9.75916 -17.469,15.018021 -3.91959,1.986217 -7.12652,4.078633 -7.12652,4.649853 0,1.540151 -10.11623,15.422064 -14.3949,19.753277 -3.57866,3.622605 -8.118,4.948617 -9.06194,2.647133 -0.3732,-0.909914 -6.57205,-5.844434 -18.10949,-14.415879 -2.56622,-1.906515 -18.88849,10.320254 -21.72901,16.276853 -1.32803,2.7849176 -3.88516,11.86285479 -5.6825,20.1731345 -3.1901,14.7500715 -3.20809,15.1930235 -0.75585,18.6140925 8.48868,11.842435 14.92935,14.178273 36.09696,13.091287 18.61567,-0.955932 24.04922,0.04674 26.32453,4.857891 5.15478,10.899782 8.67589,20.4608 9.44695,25.651604 0.82019,5.52152 1.37257,6.167944 7.91361,9.260874 6.57655,3.109721 8.00511,3.268622 22.06247,2.454045 13.2365,-0.767025 16.55863,-1.502786 27.83228,-6.164185 z m -52.87886,-8.667096 c -2.05963,-3.490816 -2.35723,-5.004972 -1.15977,-5.900548 0.88595,-0.662605 8.61574,-4.153707 17.17729,-7.758019 15.29328,-6.438289 27.48038,-9.565063 25.63341,-6.576625 -1.19744,1.9375 -26.39084,19.846965 -31.90871,22.683227 -5.97597,3.071735 -6.57414,2.921415 -9.74222,-2.448035 z m 51.69173,-26.606253 c 0,-2.187485 -3.28869,-3.24307 -27.95247,-8.971944 l -21.7358,-5.048781 -2.5029,3.189938 -2.50289,3.189939 -2.71418,-3.225811 c -3.45501,-4.106332 -3.41922,-4.517149 0.7333,-8.418266 l 3.44745,-3.238705 22.69342,1.713583 c 12.48138,0.942466 26.14851,2.365593 30.3714,3.162516 4.90602,0.925841 17.19989,1.113195 34.05265,0.518999 l 26.37468,-0.929953 22.13316,-7.468794 c 22.98339,-7.7556963 72.08731,-18.0262395 78.0521,-16.32531101 3.63874,1.0375954 9.74003,8.74018671 8.14176,10.27857331 -0.663,0.6381559 -12.27344,3.1280587 -25.80098,5.5331137 -13.52753,2.405056 -26.25593,5.223126 -28.28531,6.262385 -2.02941,1.039248 -5.32122,1.889537 -7.31514,1.889537 -1.99394,0 -15.09085,3.778674 -29.10424,8.39706 l -25.47891,8.397064 -23.22911,0.189686 c -12.77601,0.104402 -24.6126,0.701588 -26.30355,1.327229 -2.05699,0.761095 -3.07444,0.62142 -3.07444,-0.422058 z M 250.87933,29.741809 c -1.301,-2.105082 -0.51833,-2.522413 8.1345,-4.337362 6.54841,-1.373549 7.98184,-1.321526 9.00044,0.326615 2.11021,3.414398 -1.25754,5.468069 -8.96692,5.468069 -3.99702,0 -7.67263,-0.655804 -8.16802,-1.457322 z m 23.9685,-1.302419 c 0,-0.970626 1.59932,-3.861585 3.55404,-6.424356 1.95472,-2.562772 3.22582,-4.987791 2.82466,-5.388951 -0.40114,-0.401147 -6.94368,-0.05324 -14.53897,0.772971 -20.92141,2.275997 -24.63376,2.080049 -24.63376,-1.300247 0,-3.336752 3.4689,-4.931903 22.21564,-10.2157308 9.11016,-2.567719 16.1669,-5.61889361 22.27724,-9.6321986 12.77996,-8.3938856 17.47726,-9.6681116 45.00751,-12.2089456 40.20635,-3.710758 56.18772,-7.448347 58.58747,-13.701958 1.91173,-4.981958 0.73168,-12.137885 -3.0082,-18.241975 -7.6114,-12.422996 -8.36152,-19.28099 -2.10895,-19.28099 2.35078,0 3.71096,1.083868 4.71565,3.757652 0.77659,2.066706 3.76468,6.21721 6.6402,9.223332 6.8538,7.165099 8.74671,13.360781 7.53601,24.666059 l -0.95734,8.939496 -8.17793,4.128199 c -11.00995,5.557814 -22.84508,8.3912556 -53.66198,12.8471346 -25.40062,3.67274879 -38.61979,7.0297861 -22.12659,5.619115 6.17475,-0.5281421 8.10563,-0.2328936 8.70581,1.331158 1.20316,3.135357 -3.31704,7.0532884 -11.70222,10.1430274 -4.21908,1.554624 -12.44442,5.577135 -18.27856,8.93892 -10.97504,6.324107 -22.86973,9.459459 -22.86973,6.028288 z m 245.95528,-8.171601 c 0,-0.751542 0.65118,-1.366428 1.44707,-1.366428 0.79588,0 1.06704,0.614886 0.60257,1.366428 -0.46449,0.751519 -1.11566,1.366406 -1.44707,1.366406 -0.33141,0 -0.60257,-0.614887 -0.60257,-1.366406 z M 424.5177,1.4795372 c 2.84234,-6.6461746 2.33505,-9.5139776 -2.30799,-13.0472762 -2.51415,-1.913214 -6.21685,-3.889194 -8.22825,-4.391061 -2.01141,-0.501867 -4.6341,-1.992062 -5.82822,-3.311552 -1.99239,-2.201586 -1.94443,-2.687249 0.58265,-5.899912 1.92173,-2.443087 2.75377,-5.552656 2.75377,-10.291695 0,-4.345365 0.73228,-7.398614 2.03347,-8.478489 2.5061,-2.079893 2.87555,-1.146311 4.05013,10.234719 0.77392,7.498957 1.41744,8.78148 7.54188,15.030599 8.60323,8.7783946 9.58976,12.5302916 4.79354,18.23029479 C 425.9581,4.2501369 422.8598,5.3561208 424.5177,1.4795372 Z M 401.40538,-52.742224 c -4.67634,-6.130998 -6.80745,-11.759785 -5.0991,-13.468133 2.83413,-2.834119 19.28263,8.1193 19.28263,12.840746 0,1.219503 -7.19364,5.316481 -9.3349,5.316481 -0.69965,0 -2.88153,-2.110084 -4.84863,-4.689094 z m 34.14127,133.012345 c 4.45827,-3.700028 2.13155,-5.194316 -7.66901,-4.925241 -7.33345,0.201328 -9.41195,0.688702 -8.88171,2.082627 0.38073,1.000873 0.69223,2.777463 0.69223,3.947978 0,1.756667 1.21798,1.983944 6.97677,1.301909 3.83723,-0.454471 7.83399,-1.53774 8.88172,-2.407273 z M 688.90799,50.969482 c 1.43257,-1.726114 1.30699,-2.406386 -0.71737,-3.88664 -2.97448,-2.174983 -1.93101,-8.181595 2.18827,-12.596847 1.5746,-1.687746 2.31611,-3.784719 1.80721,-5.110864 -0.89692,-2.337335 -16.67954,-12.593848 -17.74294,-11.530454 -0.33271,0.332715 0.62568,5.41662 2.12976,11.297532 1.50409,5.880925 2.73471,11.536312 2.73471,12.56752 0,3.681637 3.99456,11.352094 5.91185,11.352094 1.07362,0 2.73345,-0.941557 3.68851,-2.092341 z M 639.89243,32.341498 c 1.99484,-1.379824 5.27425,-2.508782 7.28757,-2.508782 2.31396,0 3.45609,-0.628324 3.10472,-1.708026 -0.59429,-1.826185 -9.28179,-6.958567 -14.36087,-8.484066 -2.9719,-0.892622 -3.07444,-0.62143 -3.07444,8.131026 0,9.670633 -0.1709,9.559747 7.04302,4.569848 z M 578.70461,9.5257015 c 1.26604,-1.3989698 4.70179,-3.6257778 7.63498,-4.9484621 4.7359,-2.1355937 5.15214,-2.6990946 3.71717,-5.03223411 -1.36944,-2.22657509 -1.09485,-3.02469969 1.8001,-5.23204269 1.87882,-1.432576 7.10537,-4.188047 11.61455,-6.1232886 6.58826,-2.827497 9.01128,-4.786519 12.33663,-9.974152 2.89182,-4.511324 4.94948,-6.364512 6.83209,-6.15318 4.72259,0.530116 9.39835,-2.332585 14.01024,-8.577657 4.90217,-6.638166 6.58002,-7.300301 9.32752,-3.680912 3.68477,4.854076 1.35626,14.005792 -3.56355,14.005792 -2.46914,0 -5.46568,3.625822 -5.46568,6.613466 0,1.621615 16.87271,9.6739786 22.5459,10.7598656 2.2546,0.431526 6.49887,1.985962 9.43177,3.454296 l 5.33248,2.6696917 -3.80904,-6.4996477 c -2.09498,-3.5748136 -5.10949,-8.9573966 -6.69892,-11.9612896 -1.58942,-3.003903 -5.41845,-7.999736 -8.50895,-11.10183 -9.54125,-9.577065 -10.12957,-11.6276 -8.686,-30.274017 0.69265,-8.947204 1.30667,-26.105855 1.36442,-38.13033 0.0658,-13.69605 1.27148,-31.49404 3.22769,-47.64649 1.71744,-14.18109 2.83971,-27.26381 2.49391,-29.07272 -0.34581,-1.80891 -3.47462,-5.72893 -6.95297,-8.71118 -18.07107,-15.49372 -18.95697,-16.06504 -26.40157,-17.02669 -6.34552,-0.8197 -18.78932,-3.52167 -26.03929,-5.65401 -2.59974,-0.76464 -3.42913,3.30445 -1.1614,5.69805 1.01685,1.07327 7.80103,13.54414 24.30483,44.67773 1.74642,3.2945 1.72115,7.88967 -0.2066,37.57769 -1.42148,21.891198 -3.08141,37.198225 -4.70508,43.387918 -3.27911,12.500478 -15.88771,42.871033 -19.31112,46.515122 -1.47306,1.567978 -2.67827,3.852117 -2.67827,5.075867 0,4.119437 -7.32482,22.1785396 -9.68825,23.8860447 -2.50201,1.80761499 -7.26791,14.0221733 -5.47121,14.0221733 0.58945,0 2.10757,-1.144615 3.37362,-2.5435735 z m 145.01161,-4.395631 c 8.92614,-5.72011201 10.53723,-7.7637705 9.57483,-12.1455489 -1.21926,-5.5512026 -2.16865,-5.8702426 -8.44502,-2.837812 -5.2773,2.549707 -16.84362,13.7607084 -16.84362,16.3261759 0,3.5636225 9.2972,2.7691356 15.71381,-1.342815 z M 650.09973,5.5787883 C 649.72882,5.0151432 644.22498,1.8117416 637.86896,-1.5398942 627.03531,-7.2526524 626.06833,-7.5173114 622.4073,-5.7717304 l -3.90529,1.86204 4.78247,1.1140806 c 2.63035,0.612746 9.39412,2.95708769 15.03059,5.2096162 10.71108,4.2805261 12.90696,4.8702356 11.78466,3.1647819 z m 57.29473,-16.8217763 c 3.24229,-3.58271 2.98236,-9.077049 -1.22187,-25.826821 l -3.24521,-12.929 -6.6858,-1.718486 c -3.6772,-0.945183 -10.22142,-2.124048 -14.54272,-2.619715 -9.77893,-1.121655 -9.8846,-0.476479 -2.44138,14.905412 9.30561,19.230615 13.35344,25.28272 18.85112,28.18525 6.40536,3.3817586 6.22852,3.3816926 9.28586,0.0022 z m -543.68607,-0.690118 c 1.02671,-2.675547 -3.99295,-8.000845 -22.76954,-24.155973 -23.70128,-20.392253 -23.278,-19.400842 -15.83844,-37.095608 2.56181,-6.093188 5.38372,-13.406267 6.27092,-16.251255 0.88718,-2.845033 5.64396,-13.605558 10.57055,-23.912328 9.22893,-19.30747 11.71453,-28.59206 8.36557,-31.24837 -2.05042,-1.62633 -19.14327,-7.30426 -21.98875,-7.30426 -3.14232,0 -22.90672,21.57922 -22.90672,25.01006 0,1.18722 3.56352,4.90063 7.91894,8.25205 13.85198,10.65885 20.21607,24.019708 10.9886,23.069618 -2.9899,-0.30786 -3.51665,0.0908 -2.9554,2.237015 0.79947,3.057208 -0.73214,4.238534 -9.10072,7.019327 -5.41646,1.799818 -6.61314,2.963121 -9.81895,9.544988 -4.634132,9.514388 -5.97993,17.967933 -3.604489,22.641743 2.110879,4.15331 57.907959,44.3326786 61.564779,44.3326786 1.36541,0 2.85205,-0.9628506 3.30365,-2.1396856 z M 87.648547,-24.196132 c 0,-0.406194 -1.34541,-2.558303 -2.989807,-4.78246 -2.207986,-2.986479 -4.110908,-4.043939 -7.277099,-4.043939 -2.850634,0 -5.39739,-1.186773 -7.599953,-3.541507 -3.685692,-3.94037 -8.103106,-6.699335 -8.080247,-5.046664 0.0078,0.590075 3.583531,4.91592 7.945245,9.612989 6.961209,7.496417 8.545813,8.540112 12.966122,8.540112 2.769657,0 5.035739,-0.332337 5.035739,-0.738531 z m 127.400333,-6.241999 c 9.61701,-1.560325 13.5962,-3.015383 15.92717,-5.824037 2.40657,-2.899746 0.009,-3.84717 -22.57961,-8.925633 -22.43024,-5.042682 -38.73716,-11.689344 -54.21698,-22.098694 -6.62099,-4.452251 -12.61614,-8.094999 -13.32258,-8.094999 -1.70288,0 -1.6256,2.275055 0.19267,5.672542 2.06415,3.856875 0.83524,4.451731 -4.01511,1.943527 -5.52289,-2.856013 -7.02693,-2.712116 -7.02693,0.672273 0,4.992971 2.59591,7.934209 13.36294,15.140535 5.80215,3.883338 15.52914,10.62829 21.61553,14.988762 l 11.06614,7.928154 12.16296,0.480106 c 6.68963,0.26406 13.70018,0.234668 15.57901,-0.06533 1.87882,-0.299973 6.94349,-1.117741 11.25479,-1.81722 z m 63.16363,-14.710595 c 2.22866,-1.116421 3.28269,-2.282763 2.34529,-2.595236 -0.93642,-0.312141 -2.67036,0.235633 -3.85317,1.217306 -1.18284,0.981662 -5.00453,2.770921 -8.49267,3.97615 -3.98039,1.375301 -6.52239,3.127648 -6.8263,4.705764 -0.42111,2.186602 0.38046,2.006525 6.14736,-1.380914 3.64738,-2.142448 8.45315,-4.807836 10.67949,-5.92307 z M 72.526678,-50.964367 c 3.208582,-5.276097 2.293855,-8.31089 -2.33671,-7.752424 -4.667921,0.562991 -6.334788,3.597306 -4.544376,8.272436 1.869948,4.882813 3.67855,4.746136 6.881086,-0.520012 z m 213.971872,0.442307 c -0.42071,-0.420712 -1.52327,-8.76e-4 -2.45016,0.932961 -1.33945,1.349503 -1.18251,1.506444 0.76491,0.764906 1.34759,-0.513124 2.10595,-1.277166 1.68525,-1.697867 z m 13.62802,-7.096001 c 0.46448,-0.751519 -0.11409,-1.366406 -1.28576,-1.366406 -1.17165,0 -2.13029,0.614887 -2.13029,1.366406 0,0.751542 0.57861,1.366428 1.28578,1.366428 0.70718,0 1.66581,-0.614886 2.13027,-1.366428 z m -50.54909,-2.135937 c 9.76528,-1.174761 22.98161,-2.15222 29.36961,-2.172117 14.11399,-0.04392 19.12986,-0.842612 19.12986,-3.045995 0,-1.442426 -47.00801,-29.203592 -53.63192,-31.672982 -2.98104,-1.11136 -3.13341,-5.487588 -0.22983,-6.601778 1.18874,-0.45618 5.52193,-0.8294 9.62927,-0.8294 6.13645,0 9.23583,0.97029 17.38383,5.442158 13.07243,7.174575 33.42425,12.484622 49.20635,12.838566 12.06482,0.27057 12.12654,0.290102 16.70002,5.280622 l 4.59046,5.009064 7.16164,-2.126798 7.16164,-2.126765 -4.35431,-3.618302 c -5.21887,-4.336759 -8.52536,-11.790707 -8.52536,-19.219135 0,-2.99228 1.84466,-14.72599 4.09927,-26.07494 3.96142,-19.94068 4.86994,-32.49653 2.8673,-39.62613 -0.78418,-2.79172 -1.19631,-3.04145 -2.25502,-1.36642 -0.71253,1.1273 -2.41361,2.92842 -3.78017,4.00251 -2.25377,1.7714 -2.96572,1.39438 -7.66048,-4.05663 l -5.17579,-6.00954 -12.15259,0.11834 c -7.27182,0.0708 -19.01243,1.53154 -29.23282,3.63705 -9.39413,1.93529 -22.02269,4.25513 -28.06352,5.15521 -10.22063,1.52283 -11.43735,1.43562 -17.52245,-1.25611 -3.59654,-1.59092 -6.1969,-3.44638 -5.77856,-4.12327 0.41833,-0.67687 3.45505,-1.90913 6.74829,-2.73839 3.2932,-0.82924 7.33383,-2.59776 8.97911,-3.93003 l 2.99145,-2.42234 -2.84483,-3.05356 c -6.3883,-6.85704 -12.14681,-5.25449 -17.26094,4.80351 -1.42367,2.79994 -4.58688,7.0184 -7.02935,9.37434 -5.27764,5.09067 -5.58378,8.58275 -1.19932,13.67999 l 3.24156,3.76851 18.96273,-3.90434 c 10.42952,-2.14738 20.58782,-4.17649 22.57397,-4.50912 6.79533,-1.13804 12.28826,3.13449 21.66753,16.85355 15.31568,22.40222 16.07298,23.86973 17.01087,32.96376 0.75812,7.351 0.51166,8.84198 -1.85233,11.20597 -2.72481,2.724798 -2.7329,2.724758 -11.00589,-0.0692 -10.02241,-3.38461 -16.53366,-10.73432 -9.50975,-10.73432 2.46823,0 2.73032,-0.58324 1.99566,-4.44087 -1.15772,-6.07924 -13.19393,-29.88139 -15.96379,-31.56921 -1.57335,-0.9587 -4.84388,-0.66532 -10.93136,0.98057 l -8.68633,2.34857 v 7.7411 7.7411 l -13.63624,5.5975 c -7.53702,3.09383 -15.69106,7.51731 -18.23029,9.88974 -4.04505,3.77929 -4.47634,4.83209 -3.60878,8.80917 0.5419,2.48428 2.74357,7.818848 4.8926,11.854576 2.41445,4.534194 3.65205,8.580196 3.23922,10.589738 -0.36745,1.788626 -0.97023,4.721435 -1.3395,6.517382 -1.43698,6.988561 -8.38031,5.318976 -21.46843,-5.162256 -7.26717,-5.819667 -12.15339,-11.767205 -9.66739,-11.767205 0.59563,0 4.96068,3.381882 9.70013,7.515305 4.73943,4.133412 9.19284,7.515294 9.89647,7.515294 3.45486,0 0.40801,-6.372775 -7.64429,-15.988737 -4.90795,-5.861039 -9.28182,-12.051847 -9.7197,-13.757377 -1.34082,-5.22248 2.02373,-10.58556 12.60641,-20.09461 5.57488,-5.00929 10.13613,-9.52738 10.13613,-10.04021 0,-0.51285 -3.68932,-3.2386 -8.19852,-6.05727 -5.93417,-3.7094 -8.1985,-4.55746 -8.1985,-3.07055 0,1.48371 -1.50928,2.05427 -5.43418,2.05427 -6.23737,0 -7.31289,-1.22879 -12.96181,-14.80891 -2.90285,-6.97853 -3.27718,-9.05176 -1.92787,-10.67759 3.51157,-4.23117 13.38666,1.85201 13.46137,8.2924 0.0166,1.44043 0.43762,2.21174 0.93534,1.71404 0.49769,-0.49772 0.12025,-7.0628 -0.83898,-14.58906 -1.34435,-10.54913 -1.37343,-14.13049 -0.12693,-15.63247 1.19841,-1.44401 1.22629,-2.67839 0.10769,-4.76855 -1.68932,-3.15651 -1.68458,-3.15459 -4.80927,-1.95554 -2.80439,1.07616 -15.7337,19.29547 -15.7337,22.17117 0,2.18008 -4.09941,20.64068 -7.7804,35.03697 -1.15295,4.50918 -3.54706,10.68426 -5.32023,13.72243 -3.587,6.14596 -12.84428,30.216138 -12.85466,33.423831 -0.004,1.129941 5.30772,5.434158 11.80305,9.56493 6.49534,4.130751 13.95845,9.201327 16.5847,11.267956 6.64164,5.226341 24.7323,10.83319 38.56008,11.95093 6.38801,0.516352 11.92577,1.036243 12.30614,1.155329 0.38038,0.119009 8.68136,-0.744709 18.44665,-1.919481 z m -6.49886,-29.401125 c -1.31518,-0.766016 -2.39124,-2.284538 -2.39124,-3.374495 0,-3.116284 2.14052,-2.318964 3.85064,1.434317 0.85605,1.878821 1.4159,3.397354 1.24413,3.374495 -0.17177,-0.02285 -1.38836,-0.668291 -2.70353,-1.434317 z m 72.76176,23.907906 c 0,-2.412997 -2.94156,-1.992772 -3.78611,0.540875 -0.29748,0.892422 0.43269,1.622624 1.62262,1.622624 1.18992,0 2.16349,-0.973588 2.16349,-2.163499 z m 402.91014,-3.825564 c 11.05075,-3.575313 13.2343,-4.75268 13.60085,-7.33352 0.2816,-1.982823 -0.27111,-3.074444 -1.55666,-3.074444 -2.46233,0 -32.52316,13.293624 -34.40686,15.215523 -2.05708,2.098826 7.102,0.129823 22.36267,-4.807559 z m -41.58269,0.07498 c 1.85284,-1.354826 3.27373,-6.503452 5.60681,-20.316533 1.71878,-10.176038 4.19025,-21.503446 5.49216,-25.172066 3.5983,-10.13941 1.84328,-23.61228 -3.93276,-30.19083 -3.85855,-4.39464 -4.39451,-6.085 -5.19547,-16.38568 -0.94853,-12.19851 -1.65575,-14.15538 -4.19731,-11.61382 -2.00802,2.00808 -3.51992,105.493709 -1.54123,105.493709 0.70731,0 2.40282,-0.816613 3.7678,-1.814713 z M 398.72165,-91.308308 c 2.29986,-2.299854 5.29606,-3.145944 13.66418,-3.858574 5.89511,-0.50202 12.21717,-1.36695 14.04903,-1.92205 4.55559,-1.38049 5.26474,-4.254538 1.04979,-4.254538 -1.84944,0 -4.12807,-0.92234 -5.06364,-2.04963 -2.11936,-2.55367 -6.46416,-2.55367 -10.93135,0 -10.97302,6.272738 -8.87399,-0.05 8.01914,-24.15534 13.7475,-19.6168 20.62753,-32.61677 22.65076,-42.79914 0.7553,-3.80121 0.69792,-3.87572 -0.78911,-1.02482 -0.88199,1.69093 -2.12455,3.07444 -2.76123,3.07444 -1.85949,0 -1.21921,-9.76821 1.02998,-15.71381 6.79996,-17.97526 6.62189,-16.61238 3.08895,-23.64121 -1.77481,-3.53101 -3.37805,-6.6736 -3.56275,-6.98356 -0.1847,-0.30996 -1.87565,0.13803 -3.75765,0.99552 -3.27578,1.49255 -3.42182,1.36632 -3.42182,-2.95744 0,-4.20114 -0.27526,-4.47611 -3.94234,-3.93788 -2.16828,0.31823 -5.19307,-0.0907 -6.72173,-0.9089 -4.25961,-2.27966 -24.95508,6.75109 -30.28251,13.21419 -6.43007,7.80077 -17.23688,31.17162 -21.94045,47.4484 -2.38886,8.26682 -6.74088,22.64131 -9.67112,31.94328 -5.9465,18.87713 -7.2419,33.771138 -3.22702,37.103185 2.98973,2.481252 13.53981,-2.688877 22.07114,-10.816085 21.89202,-20.85504 26.92632,-25.18081 27.45596,-23.59191 1.05534,3.16603 -14.81742,27.551618 -20.10702,30.890808 -9.27115,5.852622 -9.11262,6.898824 1.04476,6.894621 7.50481,-0.0022 9.62937,-0.522863 12.05605,-2.949557 z m 22.67721,-72.476922 c -8.58689,-22.61009 -9.1504,-27.0768 -1.99804,-15.83763 10.80848,16.98436 13.38964,25.10075 8.29131,26.0718 -1.67536,0.3191 -3.27047,-2.27489 -6.29327,-10.23417 z m 7.29053,-13.07383 c -0.4807,-3.20554 -2.08368,-7.66348 -3.5622,-9.90652 -3.92219,-5.95041 -3.58763,-11.32028 0.77349,-12.41486 1.91382,-0.48035 3.74801,-0.60504 4.07595,-0.27708 1.41148,1.41147 2.36508,28.42673 1.00342,28.42673 -0.77915,0 -1.80997,-2.62272 -2.29066,-5.82827 z m 24.98843,77.394418 c 6.27966,-1.255938 5.19646,-3.245248 -1.76707,-3.245248 -6.95372,0 -10.67568,1.11642 -9.58819,2.876008 0.88349,1.42954 5.33075,1.57415 11.35526,0.36924 z m 25.44954,-0.51241 c -0.46447,-0.751528 -2.68916,-1.366418 -4.94375,-1.366418 -2.38489,0 -3.74607,0.57145 -3.25476,1.366418 0.46448,0.75153 2.68914,1.36641 4.94374,1.36641 2.3849,0 3.74608,-0.57145 3.25477,-1.36641 z m -312.22656,-89.195818 17.08022,-14.01192 0.71215,-7.4937 c 0.39169,-4.12156 1.73236,-9.03096 2.97932,-10.90979 5.27436,-7.94704 10.44472,-40.63923 6.78493,-42.9011 -0.62598,-0.38687 -3.30867,0.77149 -5.96152,2.57416 -4.32084,2.93607 -5.13681,4.53138 -7.8316,15.31176 -4.7034,18.81566 -8.91453,27.04898 -15.94095,31.16675 -7.22375,4.23339 -12.1413,10.47854 -13.98514,17.76076 -2.07406,8.19142 -3.39731,22.54806 -2.07662,22.53043 0.63745,-0.008 8.84508,-6.32081 18.23921,-14.02735 z m 358.82471,-5.51827 c -6.59221,-16.35198 -8.03243,-18.40715 -6.91963,-9.8743 1.24456,9.54319 5.42796,22.32925 8.38034,25.61345 l 2.49861,2.77943 0.40887,-3.33454 c 0.22488,-1.83399 -1.7408,-8.6668 -4.36819,-15.18404 z m -167.86777,-9.69789 c 7.59159,-22.28452 8.25104,-25.39775 5.37971,-25.39775 -0.98668,0 -3.56128,-1.84467 -5.72131,-4.09925 -4.70302,-4.90889 -8.69797,-5.18658 -13.90094,-0.96625 -2.12437,1.72318 -5.58144,4.21525 -7.68237,5.53795 -6.14784,3.87057 -7.17937,7.72907 -3.82439,14.30537 3.10546,6.08721 3.89253,17.80533 1.36564,20.33222 -1.08393,1.08394 0.8926,2.80855 7.17369,6.25942 4.76842,2.61978 8.97731,4.83588 9.35307,4.92468 0.37576,0.0888 3.91137,-9.31459 7.8569,-20.89639 z m -46.20525,14.02892 c 15.82499,-4.17669 16.23625,-4.3803 14.48912,-7.17369 -0.98897,-1.58123 -2.52641,-5.17225 -3.41655,-7.98003 -2.31883,-7.31452 -3.92638,-7.48752 -3.12027,-0.33581 0.9231,8.18973 -1.37566,8.07524 -11.24366,-0.56003 -4.20107,-3.67626 -8.76656,-6.97914 -10.14554,-7.33976 -3.66255,-0.95776 -14.49393,3.21157 -19.2504,7.41007 -3.2228,2.84474 -4.12141,4.77442 -4.13601,8.88172 -0.0113,2.88605 -0.38942,6.63086 -0.84258,8.32179 -0.80494,3.00364 -0.56826,3.07446 10.27733,3.07446 8.08679,0 15.52397,-1.1673 27.38856,-4.29872 z m 138.09688,2.24909 c 0,-1.1273 -0.61489,-2.04963 -1.36643,-2.04963 -0.75151,0 -1.36641,0.92233 -1.36641,2.04963 0,1.12728 0.6149,2.04963 1.36641,2.04963 0.75154,0 1.36643,-0.92235 1.36643,-2.04963 z m 136.64182,-11.012 c 0,-1.08295 -0.61489,-1.96898 -1.36642,-1.96898 -0.75154,0 -1.36642,1.26607 -1.36642,2.81349 0,1.5474 0.61488,2.43345 1.36642,1.96897 0.75153,-0.46447 1.36642,-1.73054 1.36642,-2.81348 z m -340.03385,-2.62823 c -3.74243,-4.26242 -4.02715,-5.19143 -2.73074,-8.91028 1.9111,-5.48221 -0.45486,-8.48647 -6.23889,-7.92206 -3.89009,0.37963 -4.24762,0.85057 -4.62993,6.09858 -0.41355,5.67667 -0.3984,5.69619 8.19851,10.56866 4.73706,2.68484 8.83023,4.89098 9.09596,4.90257 0.26574,0.0113 -1.39697,-2.12028 -3.69491,-4.73747 z m -36.50029,-19.95494 c 11.6917,-7.81987 36.35686,-29.58788 42.17282,-37.21923 2.57293,-3.37599 4.92392,-5.02178 7.17369,-5.02178 1.84059,0 4.42257,-0.96257 5.73775,-2.13906 1.31518,-1.17648 7.04762,-5.15817 12.7388,-8.84818 5.69116,-3.69002 13.01157,-9.86849 16.2676,-13.72992 l 5.92,-7.02081 -4.65303,0.95899 c -2.55916,0.52742 -12.64659,4.64312 -22.41647,9.14597 -25.21982,11.62358 -64.389,40.08519 -69.94535,50.82459 -1.9719,3.81134 -5.83198,16.2791 -5.87464,18.97465 -0.0336,2.12239 2.7866,0.82489 12.87883,-5.92522 z m 410.01139,4.16338 c 22.31711,-3.23367 27.50134,-4.67237 28.32829,-7.86149 1.32484,-5.10923 -0.17213,-5.74888 -13.45445,-5.74888 -10.21504,0 -13.07417,-0.42784 -13.69651,-2.04962 -1.26033,-3.28436 -7.25421,-2.3807 -14.33123,2.16059 -3.60858,2.31563 -7.12079,3.86428 -7.80492,3.44148 -0.68412,-0.42282 -2.51678,2.29425 -4.07259,6.03791 l -2.82872,6.80667 4.36514,-0.007 c 2.40083,-0.004 12.97356,-1.25474 23.49499,-2.77926 z m -103.90993,-12.9584 c -0.0766,-15.12403 -2.40912,-20.59082 -9.3402,-21.89108 -5.05416,-0.94818 -9.85559,1.06783 -16.25294,6.82421 -4.99126,4.49116 -3.97353,8.56591 3.55076,14.2163 3.13911,2.35734 8.40614,6.46948 11.70447,9.1381 9.13688,7.39245 10.41218,6.37009 10.33791,-8.28753 z m -202.05659,-11.93556 c 0.81267,-1.68508 3.52243,-6.91169 6.02168,-11.6147 3.95821,-7.44836 4.33836,-9.00252 2.94824,-12.05345 -2.18645,-4.79877 -5.97595,-3.75263 -7.87626,2.17436 -0.8404,2.6212 -2.7732,5.40471 -4.29512,6.18559 -7.1122,3.64915 -9.18195,9.32517 -5.74335,15.75029 1.93493,3.61545 7.11137,3.35959 8.94481,-0.44209 z m 88.76035,-14.8276 c 7.48542,-2.33667 14.06161,-4.94994 14.61375,-5.80727 1.83462,-2.84867 1.12081,-9.13102 -1.13587,-9.99699 -2.80566,-1.07665 -28.81916,6.15694 -31.39118,8.72895 -1.07475,1.07475 -1.9541,4.06228 -1.9541,6.63896 0,6.02349 1.83989,6.0639 19.8674,0.43635 z m 205.52998,-5.7009 c 0.0602,-2.38044 -3.4419,-4.76598 -4.88226,-3.3256 -0.39974,0.39974 -0.27318,3.70386 0.28123,7.3425 l 1.00803,6.61573 1.76568,-4.09926 c 0.97113,-2.25459 1.79343,-5.1946 1.82732,-6.53337 z m -78.09397,-11.38532 c 0.3803,-3.89271 -0.41413,-4.79362 -9.90563,-11.23353 -17.24839,-11.70289 -26.71791,-15.44541 -26.71791,-10.55939 0,4.05893 29.72904,26.96723 34.16046,26.32301 1.20592,-0.17531 2.21982,-2.0401 2.46308,-4.53009 z m -347.06504,-7.2148 c 2.02434,-2.17471 8.59973,-6.49459 14.61197,-9.59971 12.1535,-6.27689 10.06386,-6.10264 -8.07659,0.6735 -12.82153,4.78932 -14.55342,6.11452 -13.45926,10.29863 0.93461,3.57395 2.63284,3.23733 6.92388,-1.37242 z" style="fill:#eb666f;fill-opacity:1;stroke-width:1.36641824"/> <path id="path832" d="m 521.24076,276.20277 c -8.10649,-10.39376 -38.67672,-42.27407 -50.99512,-53.18052 -10.44132,-9.24452 -17.51775,-18.19979 -24.80264,-31.38791 -6.99381,-12.66117 -7.00499,-12.67261 -21.96522,-22.44608 -18.26937,-11.93532 -29.01843,-22.59158 -35.79337,-35.48432 -2.82294,-5.37208 -5.98926,-10.09614 -7.03622,-10.4979 -1.04697,-0.40177 -4.83534,0.27139 -8.41856,1.49587 -9.26364,3.16563 -36.08373,4.24128 -55.74621,2.23574 -16.80258,-1.71381 -24.24422,-3.51287 -37.83676,-9.14724 -4.96989,-2.06011 -10.53478,-3.23976 -15.28325,-3.23976 -4.10715,0 -9.1985,-0.65605 -11.31413,-1.45789 -2.11564,-0.80183 -14.99896,-12.54764 -28.62961,-26.101785 l -24.78302,-24.643916 -0.62512,-8.400275 c -0.34383,-4.620148 -0.10981,-10.226957 0.52022,-12.459576 0.78951,-2.798124 0.60635,-4.598339 -0.58953,-5.794214 -1.00661,-1.0066 -13.07718,-3.160158 -28.75386,-5.130083 C 139.01671,26.77154 127.91007,23.88065 116.53063,16.85687 110.13788,12.911032 107.45754,12.069086 101.28579,12.068188 91.93463,12.067079 82.071855,7.5971034 63.482936,-5.0638104 44.943672,-17.690917 34.134827,-28.574428 26.757563,-42.042839 c -3.334932,-6.088473 -6.063507,-12.675454 -6.063507,-14.637747 0,-1.962282 1.308033,-7.063814 2.906733,-11.336721 l 2.906723,-7.768928 -5.58765,-5.316657 c -3.678028,-3.499626 -5.903417,-6.999729 -6.511549,-10.241407 -1.310805,-6.987173 1.281581,-25.961461 4.539873,-33.228241 1.516359,-3.38189 4.745004,-11.37544 7.17476,-17.76344 5.678009,-14.92793 19.659744,-40.07288 26.296047,-47.29113 2.839443,-3.08846 8.77671,-7.54167 13.193936,-9.89601 l 8.03129,-4.28064 0.60191,-7.25837 c 1.184144,-14.27915 7.63915,-22.53172 44.146821,-56.44074 17.70771,-16.44723 30.32438,-24.95237 44.36149,-29.90496 3.33317,-1.17602 7.10001,-3.07912 8.37076,-4.22913 1.27075,-1.15001 9.77582,-6.0181 18.90019,-10.81798 17.40509,-9.15597 26.76282,-12.10648 54.07804,-17.05092 16.96361,-3.07066 26.26992,-3.42031 33.98897,-1.27703 5.0484,1.40177 5.52416,1.24915 10.24814,-3.28731 2.72467,-2.61652 8.02838,-6.04264 11.78603,-7.6136 8.52545,-3.56425 40.60421,-8.67085 58.79381,-9.35935 l 13.70203,-0.51864 6.53696,4.99134 c 7.92208,6.04895 10.72055,5.71315 19.45065,-2.33399 l 6.08869,-5.61236 18.08447,0.75524 c 9.94646,0.41538 20.14795,1.5074 22.66998,2.4267 3.82398,1.39392 5.3437,1.30994 9.15081,-0.50555 15.08872,-7.1953 49.55623,-2.1625 61.74293,9.01544 2.79777,2.56617 3.52134,2.65335 8.46953,1.02028 12.70621,-4.19342 35.12098,4.69101 41.02311,16.26013 2.26436,4.4385 3.87801,5.76051 8.59524,7.04179 15.00107,4.07457 21.80095,6.87333 31.69409,13.04497 13.51989,8.43412 21.25486,15.14348 21.25486,18.43655 0,4.04761 9.35411,13.35995 17.68146,17.60252 11.08757,5.6488 16.34558,10.17556 27.78201,23.91817 11.2773,13.55141 18.86019,20.24643 24.52603,21.65427 2.04502,0.50815 4.43235,2.25831 5.30521,3.88925 0.87286,1.63095 5.18126,7.48835 9.57422,13.01642 16.04339,20.18892 26.57008,42.71995 33.97893,72.72766 2.45587,9.94692 6.63274,21.60374 11.28809,31.50311 12.15057,25.837418 17.43722,43.29653 17.43722,57.58629 0,3.791891 1.30307,11.184394 2.89571,16.427805 2.66951,8.788811 2.77266,10.566435 1.32058,22.7580116 -3.02529,25.4001984 -5.00938,32.9249774 -13.2783,50.3587754 -6.38926,13.470793 -9.64334,16.756003 -20.77491,20.973632 -5.7839,2.191447 -6.44406,2.901548 -7.13998,7.680308 -1.56301,10.732806 -5.12383,14.986983 -21.58064,25.78284 l -10.44658,6.853058 -0.94118,12.27679 c -1.66423,21.70783 -4.89986,30.93091 -14.90781,42.49418 -7.80573,9.01882 -15.95982,14.97058 -26.84653,19.59559 -15.21453,6.46359 -23.93363,8.00182 -51.14885,9.0237 l -25.52345,0.95836 -5.65014,6.94578 c -7.04322,8.65834 -16.19842,13.75299 -29.75085,16.5557 -5.77359,1.19401 -11.05834,2.73183 -11.74392,3.4174 -0.75103,0.75102 0.98467,11.46456 4.36674,26.95361 3.08727,14.13894 5.78447,28.39727 5.99377,31.68523 0.3652,5.73708 0.18501,6.04714 -4.46948,7.6905 -2.66751,0.94183 -7.3079,2.12768 -10.31196,2.6352 l -5.46195,0.92279 z m 22.17089,5.02709 c 4.60182,-1.7496 4.71352,-1.14491 -6.68315,-36.17811 -6.05313,-18.60723 -9.73212,-27.88099 -11.53577,-29.07857 -1.45651,-0.96708 -5.96074,-2.13572 -10.0094,-2.59695 -7.52343,-0.85707 -26.72639,-9.37617 -31.9705,-14.18321 -1.51065,-1.38473 -6.1748,-4.03381 -10.36478,-5.88681 -5.21256,-2.30526 -9.45527,-5.56334 -13.43602,-10.31794 -9.15347,-10.93279 -13.114,-8.40725 -6.05712,3.8625 1.98306,3.44789 12.60196,15.49226 23.59757,26.7652 19.82128,20.32122 34.47949,38.66305 46.8609,58.63703 6.01061,9.69644 6.73411,10.3671 11.184,10.3671 2.61672,0 6.40315,-0.62561 8.41427,-1.39024 z m 25.70208,-119.63229 c 7.65848,-1.95584 14.8294,-5.70611 22.05992,-11.537 1.50306,-1.21212 6.11473,-3.23236 10.24814,-4.48944 13.75396,-4.18296 35.89455,-16.19657 39.28453,-21.31601 4.1522,-6.27055 3.89414,-9.59466 -1.70803,-22.00224 -5.29149,-11.719444 -5.87086,-15.652116 -2.57754,-17.495169 1.82452,-1.021043 1.92304,-1.760711 0.57099,-4.287013 -1.75569,-3.280566 -1.0589,-5.128824 11.57148,-30.693431 4.6845,-9.481698 6.10037,-11.237559 9.90653,-12.285315 7.92485,-2.181555 4.53245,-8.907433 -7.57551,-15.019416 -9.93107,-5.013135 -31.35907,-11.326362 -41.91926,-12.350504 -8.42485,-0.817046 -11.56124,-2.1809675 -11.63153,-5.0581983 -0.0113,-0.4710999 3.18277,-2.234716 7.09836,-3.919174 11.34098,-4.8787421 17.69667,-3.5354396 41.49967,8.7711979 11.01223,5.6935594 21.13605,10.3519314 22.49734,10.3519314 4.4406,0 6.24852,3.599019 8.67923,17.277753 2.87143,16.158798 4.13395,19.615536 7.16429,19.615536 1.7372,0 12.09328,-5.119245 15.21212,-7.519686 1.16965,-0.900238 -1.68891,-4.627349 -4.54819,-5.930119 -1.8375,-0.837218 -3.34088,-2.150128 -3.34088,-2.917591 0,-2.206204 13.66582,-15.382054 21.17949,-20.420127 8.99688,-6.032597 23.91231,-20.62448221 23.91231,-23.3935957 0,-3.4725857 -4.23711,-14.9718803 -5.51664,-14.9718803 -0.63826,0 -1.96398,1.08674 -2.946,2.414981 -0.98201,1.328241 -3.63016,3.560838 -5.88475,4.961328 -2.25458,1.4005106 -8.71092,7.3163718 -14.34739,13.1463868 -5.63648,5.830015 -11.44887,11.2240002 -12.91643,11.9866442 -2.28429,1.187072 -2.40374,1.705376 -0.8301,3.601522 5.06725,6.105676 -5.58108,3.739474 -11.42585,-2.538982 -2.31308,-2.484723 -6.05028,-5.540933 -8.30487,-6.7916023 l -4.09926,-2.2739235 4.42845,0.8336388 c 3.20337,0.603019 6.59996,-0.1605011 12.27787,-2.7599299 l 7.84942,-3.59359101 -4.99762,-4.36916749 C 683.27115,-9.2433504 668.61095,-27.84183 663.08595,-37.498541 l -4.47529,-7.821977 1.48714,-54.998212 c 0.81791,-30.24903 2.04796,-58.3801 2.73342,-62.51353 3.07219,-18.52552 1.42975,-27.96547 -6.93113,-39.83706 -1.40493,-1.99483 -2.55441,-4.26065 -2.55441,-5.03512 0,-0.77446 -0.71347,-3.13911 -1.58547,-5.25473 -0.872,-2.11564 -1.43444,-7.31062 -1.24985,-11.54439 0.29197,-6.69689 -0.0744,-7.98497 -2.81782,-9.90653 -1.73439,-1.21483 -4.70756,-2.22225 -6.60706,-2.23876 -3.61004,-0.0315 -14.15351,-4.34314 -17.59276,-7.19461 -1.09928,-0.9114 -4.20911,-1.6571 -6.91074,-1.6571 h -4.91205 v -10.635 c 0,-11.32056 -1.02111,-13.21434 -7.14767,-13.25639 -3.49025,-0.0241 -5.2322,4.54224 -4.04144,10.59406 1.02202,5.19435 -4.84869,22.10686 -11.96767,34.47681 -3.24384,5.63648 -6.29969,11.97851 -6.79078,14.09343 -0.4911,2.1149 -4.84836,13.04063 -9.6828,24.27936 -6.36757,14.80285 -8.70782,21.83914 -8.49207,25.5327 0.28145,4.81883 0.0731,5.09864 -3.79551,5.09864 -3.53463,0 -4.3269,-0.71305 -5.80492,-5.2245 -1.67578,-5.11517 -1.53676,-5.54416 6.64192,-20.49628 4.59445,-8.39949 11.10962,-20.0397 14.4782,-25.86714 4.69159,-8.11626 6.38384,-12.68528 7.23236,-19.52725 2.00187,-16.14199 -1.5202,-21.90893 -14.55519,-23.8322 -4.39908,-0.64906 -10.03322,-1.91401 -12.52033,-2.81099 -4.00025,-1.44271 -4.86736,-1.30378 -7.51528,1.20409 -1.64633,1.55922 -4.47179,5.7826 -6.2788,9.38528 -5.39549,10.75711 -11.56643,20.89769 -12.71704,20.89769 -1.86599,0 -1.14012,-19.50978 0.98671,-26.52071 3.17228,-10.45711 3.0059,-10.83745 -4.37703,-10.00527 -5.76613,0.64993 -7.039,0.24383 -12.63935,-4.03244 -6.42939,-4.90929 -8.69417,-5.19348 -19.49118,-2.44576 -2.93931,0.74802 -4.75674,0.0693 -8.85146,-3.30599 -2.83397,-2.33602 -5.92719,-4.2473 -6.87381,-4.2473 -0.94661,0 -3.93279,4.3918 -6.63594,9.75954 -4.30408,8.54677 -4.84283,10.71168 -4.33552,17.42183 0.71232,9.42167 -2.27796,35.09606 -5.90554,50.70448 -1.48463,6.388 -5.4562,19.91554 -8.82568,30.0612 -5.86844,17.67013 -6.60544,19.05062 -17.5078,32.79403 -13.61238,17.15966 -22.02572,25.96195 -24.81475,25.96195 -1.12815,0 -2.05115,-0.32721 -2.05115,-0.72713 0,-0.39992 6.41207,-10.11075 14.24907,-21.57963 13.19564,-19.31087 18.86117,-30.34042 23.98697,-46.69735 0.94205,-3.00614 2.47757,-7.31035 3.41231,-9.56493 4.13881,-9.98293 6.46614,-33.83607 3.233,-33.13564 -2.14757,0.46523 -9.77271,-13.18486 -13.28599,-23.78385 -2.16238,-6.52355 -2.66133,-10.4377 -2.01633,-15.81801 0.49093,-4.09508 0.27373,-7.88948 -0.50839,-8.88173 -0.751,-0.95275 -1.78014,-3.46605 -2.28699,-5.58509 -0.73457,-3.07105 -2.6952,-4.68279 -9.66296,-7.9434 l -8.7414,-4.0906 -19.0439,4.98145 -19.04391,4.98145 -7.20141,-5.45054 c -10.2389,-7.74953 -13.36483,-9.26792 -15.23336,-7.39938 -2.01991,2.0199 3.25007,15.24395 7.76542,19.4859 3.39015,3.18487 7.48458,2.89876 7.48458,-0.52301 0,-1.81041 2.74676,-3.60511 5.51756,-3.60511 0.65713,0 1.37546,4.45793 1.59626,9.90653 0.38653,9.53774 0.53403,9.92191 3.96237,10.31992 5.41774,0.62894 34.26465,-8.99592 37.19255,-12.40941 1.62385,-1.89313 4.32334,-3.00137 7.73854,-3.17689 5.11851,-0.26309 5.21399,-0.18238 3.96559,3.35241 -0.70356,1.9921 -4.49334,7.07305 -8.42175,11.29101 -6.12517,6.57667 -8.87729,8.32521 -19.32157,12.27568 -14.55863,5.5067 -16.41597,7.60901 -28.25287,31.9792 -7.39834,15.2319 -8.21008,17.88247 -11.42409,37.30221 -3.33792,20.16853 -5.05709,26.23623 -7.43348,26.23623 -1.65082,0 -3.16865,-38.23315 -1.70875,-43.04217 0.68444,-2.2546 4.4812,-12.68997 8.43724,-23.18973 6.96253,-18.47938 10.83547,-30.84271 10.86902,-34.69654 0.0113,-1.32725 -1.26103,-1.67466 -4.42465,-1.20792 -2.4548,0.36217 -8.28234,-0.54898 -13.03047,-2.03734 -11.42581,-3.58154 -16.62077,-2.56211 -22.08192,4.33315 -5.02381,6.34308 -9.56652,15.97279 -9.60779,20.3668 -0.0279,2.98595 -0.39998,3.13202 -5.69625,2.23723 l -5.66625,-0.9573 0.78945,5.96126 0.78945,5.96127 -2.75247,-3.75764 c -1.51386,-2.06672 -3.34098,-3.75765 -4.06026,-3.75765 -0.71929,0 -3.01562,-1.26266 -5.10294,-2.8059 -4.95512,-3.66345 -16.48303,-4.80135 -28.11713,-2.77535 -8.11476,1.41312 -10.32191,1.27675 -19.32861,-1.1942 -5.59227,-1.53421 -11.90014,-2.78947 -14.01749,-2.78947 -5.79421,0 -15.61438,7.27263 -21.21976,15.71492 -4.98015,7.50065 -5.00187,7.51418 -12.07541,7.51418 -8.92659,0 -13.50427,3.02395 -26.85962,17.74307 -11.96379,13.18543 -15.21725,21.09274 -15.21725,36.98453 0,10.4683 -0.10947,10.79569 -10.93134,32.63899 -6.01223,12.13555 -10.93134,23.48004 -10.93134,25.210017 0,3.857673 1.56532,5.213997 17.08023,14.799712 17.25341,10.659801 21.24273,12.466285 38.25971,17.324919 21.4507,6.124565 39.88018,7.90941 52.36006,5.07092 13.48679,-3.0675 19.37689,-2.93984 19.37689,0.419981 0,1.440429 0.72212,2.859662 1.60473,3.153868 0.88257,0.294195 -0.80836,1.820791 -3.75766,3.392418 -16.47876,8.78128 -16.93174,9.138928 -17.81317,14.063844 -0.47076,2.630362 -2.55846,6.627141 -4.63932,8.881722 -7.53543,8.164507 -17.77671,33.4483349 -17.70728,43.715984 0.0415,6.111917 0.76332,7.739274 6.77049,15.260378 5.53987,6.936062 8.10813,8.936675 14.58161,11.358721 l 7.85743,2.939834 8.94281,-3.84342 c 10.08002,-4.332161 23.84278,-5.304299 27.86268,-1.968093 3.14663,2.611485 2.85287,10.895586 -0.56342,15.888111 -8.76704,12.812069 -7.44874,15.340969 11.45225,21.969012 14.61321,5.124438 16.24141,5.39529 37.1458,6.179187 12.02448,0.450925 23.15693,1.267904 24.73874,1.815512 2.32886,0.806221 3.40277,0.103037 5.64436,-3.696221 2.25852,-3.827911 4.65779,-5.381036 13.02938,-8.434326 8.1356,-2.967217 10.83965,-3.432811 13.0541,-2.247689 4.42401,2.367662 5.46625,1.854762 8.56206,-4.213501 2.27545,-4.460263 3.16685,-5.253086 4.07725,-3.626309 2.08955,3.733805 3.02519,13.02896 1.41184,14.026051 -4.59465,2.839662 3.01528,6.63015 9.63004,4.796687 2.51359,-0.696709 7.17299,-1.90767 10.3542,-2.691038 6.53887,-1.610159 9.80432,-5.705069 7.12445,-8.934106 -1.0732,-1.293138 -4.33397,-1.962286 -9.56216,-1.962286 -10.73316,0 -12.22804,-1.682403 -12.22804,-13.761786 0,-5.207024 0.36342,-9.467325 0.80761,-9.467325 0.44418,0 3.28285,2.11874 6.30818,4.708295 5.14922,4.407546 9.84233,6.578471 23.89758,11.05446 5.39205,1.71715 6.00426,1.629126 10.24815,-1.473326 8.95149,-6.543955 10.28602,-6.866034 17.63464,-4.256039 7.81199,2.774582 25.01781,4.972014 39.04674,4.98684 7.08458,0.0068 10.4053,0.606745 11.95617,2.157601 5.21424,5.214253 0.081,9.130941 -15.10304,11.523839 -5.16719,0.814318 -11.68163,2.08678 -14.47655,2.827721 -4.8023,1.273092 -5.03633,1.589008 -4.257,5.746758 0.45357,2.41978 1.71331,6.859166 2.79942,9.865277 1.08611,3.006122 3.22754,11.922006 4.75872,19.813076 2.67123,13.7663 2.68888,14.61963 0.43586,21.06923 -2.34461,6.71183 -2.34333,6.72567 0.86469,9.28676 6.85804,5.47505 9.0702,6.31443 20.95809,7.95235 7.93762,1.09364 13.9771,2.75769 17.08023,4.7061 2.64033,1.6578 5.72294,3.36975 6.85024,3.80432 3.84543,1.4824 12.57487,1.00884 20.98225,-1.13826 z m 29.10246,-90.33414 c -0.51054,-0.510535 -13.99054,-1.318348 -29.95555,-1.795146 -16.26198,-0.485666 -30.17137,-1.507159 -31.62881,-2.322788 -2.5437,-1.423535 -2.54139,-1.488071 0.1037,-2.903693 4.513,-2.415281 23.15125,-9.616415 39.31604,-15.190281 15.34584,-5.291467 31.04514,-14.139696 37.64466,-21.216782 5.97381,-6.406099 11.79307,-9.312112 15.10166,-7.541397 2.49138,1.333332 2.76108,2.312808 1.95337,7.093608 -3.02908,17.928961 -5.83739,21.977522 -11.61683,16.747201 -1.41915,-1.28431 -3.4483,-2.002021 -4.50922,-1.594911 -1.06095,0.407124 -5.08062,5.452309 -8.93261,11.211544 -6.59574,9.861468 -8.43835,14.341639 -5.89839,14.341639 0.60788,0 2.29883,0.902779 3.75765,2.006175 2.55381,1.931597 2.52119,2.007787 -0.87753,2.049627 -1.94145,0.02391 -3.94762,-0.374261 -4.45814,-0.884796 z M 317.2068,64.87455 c 0,-2.719473 1.91709,-4.108574 12.3779,-8.968869 6.80784,-3.163066 13.05435,-5.525522 13.88114,-5.24993 0.82682,0.275607 -1.20763,2.704402 -4.52098,5.397325 C 323.94533,68.243987 317.2068,70.978531 317.2068,64.87455 Z M 511.22495,47.126868 c -2.63764,-0.943663 -8.47907,-4.283024 -12.98098,-7.420799 -19.65906,-13.702159 -20.93155,-17.869947 -2.57456,-8.432372 9.80282,5.039759 12.9975,6.028774 19.47405,6.028774 10.98027,0 18.16544,-4.593872 37.25007,-23.816003 12.37539,-12.4645549 16.82524,-17.9786694 20.17824,-25.00423 4.33642,-9.086166 12.53585,-16.55207 15.17903,-13.821122 1.6361,1.690436 -4.96017,21.0266046 -8.20381,24.0485202 -1.4782,1.37716439 -3.05619,3.9723231 -3.50663,5.767039 -1.58417,6.3118288 -32.13829,31.4703768 -48.97678,40.3279368 -8.86655,4.664077 -9.16902,4.708431 -15.83863,2.322256 z M 363.23581,37.587465 c -8.79096,-3.3169 -48.44909,-11.984881 -51.78306,-11.318081 -5.15645,1.031292 -5.19923,-2.805748 -0.0531,-4.772632 4.4509,-1.701195 40.6004,1.917398 50.76236,5.081374 5.00494,1.558299 11.7144,1.777651 32.93076,1.076542 l 26.64514,-0.8805 24.98898,-8.011171 c 13.74393,-4.406168 35.5317,-10.2678148 48.41727,-13.0259258 21.16595,-4.530478 23.76599,-4.82520521 26.92526,-3.0519509 7.22613,4.0559289 5.22749,5.9576862 -9.07297,8.6331567 -28.88564,5.404201 -53.9366,11.785624 -74.40117,18.952746 l -21.40232,7.495537 -25.48511,0.473943 c -14.0168,0.260658 -26.82916,-0.03321 -28.47194,-0.653038 z m -117.08276,-22.4632 c 0,-1.48221 27.02466,-8.5206583 32.71574,-8.5206583 2.77162,0 2.92272,0.2689511 1.27041,2.2612794 -1.03142,1.2437149 -3.93613,3.1227129 -6.4549,4.1755809 -5.89288,2.463206 -27.53125,4.100993 -27.53125,2.083798 z m 347.4007,-18.4271875 c 0.79117,-2.4208379 22.31725,-11.3933295 30.07233,-12.5347495 5.27172,-0.775909 6.49049,-0.572152 6.49049,1.08501 0,3.288072 -7.00338,7.3513086 -17.85263,10.3577856 -11.62374,3.2211147 -19.55734,3.68411799 -18.71019,1.0919539 z M 313.12199,-4.9935584 c -3.91619,-4.718718 -0.92967,-5.6333896 28.61463,-8.7635326 27.54138,-2.917958 37.6613,-5.094057 47.60657,-10.23697 5.60111,-2.896441 7.09552,-9.858061 3.9775,-18.528928 -2.48265,-6.903934 -2.32,-7.512088 1.67043,-6.245559 4.15871,1.319912 5.70489,5.215373 6.56051,16.528503 l 0.76372,10.098063 -10.10184,4.729599 c -10.27134,4.808956 -22.69361,7.4358686 -58.31506,12.3317916 -18.85709,2.5917872 -18.69826,2.5911217 -20.77646,0.08707 z M 458.07446,-19.121807 c -1.81585,-3.392951 -1.99274,-11.638025 -0.22627,-10.546293 2.27342,1.405059 4.62097,10.434294 3.10659,11.948668 -0.9388,0.938806 -1.86999,0.48543 -2.88032,-1.402375 z m 122.85106,-13.851801 c -2.63036,-0.573649 -15.65944,-3.078138 -28.95348,-5.565512 l -24.17101,-4.522514 -10.83703,2.969931 c -11.47784,3.145527 -16.65716,3.709971 -16.65716,1.815279 0,-3.520722 11.25475,-8.833386 27.69542,-13.073297 6.94337,-1.790623 9.95476,-1.796545 25.27874,-0.04969 9.568,1.090667 20.85416,2.369241 25.08035,2.841273 l 7.68395,0.85825 6.33449,-16.232 c 7.1011,-18.196468 8.79981,-25.954205 13.8318,-63.166992 l 3.51482,-25.99297 -9.61798,-19.19934 c -5.84939,-11.67653 -9.61798,-20.89571 -9.61798,-23.52863 0,-4.21934 0.0683,-4.26745 2.6893,-1.89545 1.47913,1.3386 5.60243,8.35139 9.16286,15.58399 3.56045,7.2326 8.28633,16.13897 10.50193,19.79192 l 4.02836,6.64171 -1.56238,33.66761 c -0.97323,20.97227 -2.3599,36.759107 -3.67741,41.866129 -3.38687,13.12842 -17.01465,46.838011 -19.28786,47.710324 -2.52311,0.968209 -5.14286,0.848912 -11.41973,-0.519978 z m -177.5352,-21.412669 c -3.0067,-3.822425 -3.79015,-8.697441 -1.39773,-8.697441 2.81667,0 9.1821,4.040368 10.08906,6.403886 0.58864,1.533984 0.0589,3.03771 -1.46199,4.149805 -3.31087,2.42096 -4.00509,2.242702 -7.22934,-1.85625 z m 64.97879,-6.207882 c -1.00058,-2.496558 -2.19819,-5.615244 -2.66132,-6.930431 -1.32125,-3.751974 -5.10937,-2.802121 -6.81176,1.708027 -1.88982,5.006724 -6.01719,5.472145 -7.18719,0.81048 -0.84206,-3.35503 0.84238,-7.802246 4.57678,-12.083437 5.45456,-6.253223 14.86739,0.84423 16.2155,12.226825 1.00375,8.475206 -1.43593,10.995499 -4.13201,4.268536 z m -171.65859,-9.021749 c -3.44873,-1.209232 -35.80121,-19.381055 -42.69792,-23.982674 -3.5683,-2.38084 -6.48902,-4.78998 -6.49049,-5.35362 -0.007,-2.501848 9.41948,-0.597 21.60504,4.36608 20.64208,8.407363 34.99439,13.375312 41.46337,14.352272 9.58177,1.447083 18.91404,3.923278 18.91404,5.018603 0,2.06746 -5.95248,2.795056 -15.23781,1.862572 -8.40638,-0.84422 -9.90555,-0.635017 -12.52785,1.748232 -1.6383,1.488964 -3.90108,2.383805 -5.02838,1.988535 z m 48.20288,-3.490431 c 5.00958,-4.016943 35.26252,-13.469653 44.34583,-13.856104 3.22769,-0.137321 6.9203,-1.276878 8.36021,-2.579964 1.73783,-1.572736 6.7602,-2.780948 15.39832,-3.704348 7.05061,-0.753667 14.60199,-1.961427 16.78083,-2.683867 10.20514,-3.38377 12.12153,-0.25174 2.40386,3.928691 -12.09835,5.20457 -64.4532,17.926851 -82.20161,19.97509 -6.64964,0.767391 -7.23565,0.643047 -5.08744,-1.079498 z m -122.48207,-1.856827 c -0.48059,-0.480583 -0.88549,-1.847366 -0.8998,-3.037299 -0.0144,-1.189923 -4.3609,-7.347805 -9.65909,-13.684168 l -9.63306,-11.520677 0.84547,-6.92597 c 0.76937,-6.30254 1.60386,-7.63178 9.27086,-14.76715 11.22376,-10.44553 15.20185,-12.19288 26.62028,-11.69279 8.16357,0.35755 9.22669,0.71731 9.22669,3.12216 0,2.15893 -2.65722,3.77551 -12.91773,7.85867 -13.31525,5.2988 -21.92594,11.74106 -21.92594,16.40435 0,3.05485 2.90961,8.84573 9.2192,18.348668 3.80748,5.734475 4.52931,7.882059 3.78632,11.264883 -0.95847,4.363932 -2.44684,6.115703 -3.9332,4.629323 z m 319.78751,-6.797336 c -4.37924,-2.638415 -7.653,-5.106357 -7.27502,-5.484346 1.29354,-1.293526 15.43632,3.597861 17.72963,6.131929 5.49863,6.075941 0.15587,5.745001 -10.45461,-0.647583 z m 11.37832,-4.012695 -8.88172,-4.542668 7.55286,-0.04814 c 7.76951,-0.04947 13.62661,2.543263 13.62661,6.032064 0,3.483721 -3.46173,3.078004 -12.29775,-1.441283 z m -203.35815,-0.969318 c -2.73798,-2.914453 -4.15295,-9.135247 -2.07791,-9.135247 0.87135,0 11.40467,10.93715 11.40467,11.841917 0,1.85198 -6.93477,-0.160524 -9.32676,-2.70667 z m 174.61531,-15.342035 c -1.03339,-1.24516 -1.24164,-2.57463 -0.50893,-3.24903 2.2788,-2.09746 26.74072,-12.52141 31.09964,-13.2525 l 4.301,-0.72138 -3.22446,2.83204 c -4.82147,4.23466 -25.54844,16.498398 -27.884,16.498398 -1.11879,0 -2.82126,-0.948388 -3.78325,-2.107528 z m -224.43727,-1.47353 c -0.53553,-0.53551 -0.97369,-2.56796 -0.97369,-4.51652 0,-1.94857 -4.80929,-12.14547 -10.68728,-22.65977 l -10.6873,-19.1169 -7.41774,-0.68322 -7.41776,-0.68321 6.65959,-2.9023 c 7.1288,-3.10676 10.47953,-2.94629 13.51461,0.64729 1.04751,1.24025 6.90806,10.31739 13.02345,20.17139 8.81843,14.20949 11.19911,19.15692 11.50654,23.91232 0.357,5.52254 0.11382,6.02786 -3.07956,6.40027 -1.90697,0.22239 -3.90535,-0.0337 -4.44086,-0.56935 z m 152.06516,-4.47126 c 0,-2.7943 12.56804,-3.91753 18.38268,-1.6429 2.26,0.8841 1.97217,1.18339 -1.87883,1.95359 -6.53824,1.30765 -16.50385,1.12004 -16.50385,-0.31069 z m 71.67485,-29.46208 c -2.05776,-2.05773 -3.35395,-4.92489 -3.35395,-7.41888 0,-2.23572 -2.72009,-14.89568 -6.04465,-28.13322 -7.38169,-29.39209 -11.58766,-36.75366 -29.93287,-52.39065 -5.57343,-4.75065 -9.09208,-10.29367 -9.10586,-14.34468 -0.007,-1.85972 2.28954,-0.52674 9.21491,5.35015 5.07283,4.30481 13.39191,10.49977 18.48686,13.76656 5.09494,3.2668 9.77299,7.31556 10.39565,8.99725 0.62267,1.68169 3.73057,16.25307 6.90644,32.38085 3.17586,16.12779 6.95223,32.42232 8.39191,36.21009 1.43967,3.78776 2.61789,7.34802 2.61827,7.91167 10e-4,2.20577 -4.39257,0.85504 -7.57671,-2.32914 z m -303.39592,-2.50176 c -6.22435,-3.62961 -15.38682,-12.19799 -16.79812,-15.70892 -2.81147,-6.99422 -5.71562,-29.29842 -4.07261,-31.27812 2.08961,-2.51784 4.32059,-2.27096 8.38751,0.92808 2.66345,2.09506 4.02861,5.23849 5.78587,13.32258 3.23374,14.87649 5.25629,18.87809 11.54968,22.85094 6.34478,4.00527 7.09936,7.74577 2.02865,10.05613 -4.09566,1.86613 -3.35668,1.88445 -6.88098,-0.17069 z m 26.25319,-30.02374 c -2.36783,-1.76057 -1.98286,-2.17935 5.26134,-5.72362 7.30105,-3.57206 7.7643,-4.08315 7.02978,-7.75565 -0.91331,-4.56661 -0.57542,-4.70695 4.04435,-1.67997 2.85899,1.87329 5.80816,2.11733 17.55119,1.45232 7.76311,-0.43961 17.41678,-1.7452 21.45263,-2.90131 4.03584,-1.15609 11.15369,-2.97854 15.81744,-4.04984 8.32809,-1.91306 8.62098,-1.8809 16.39702,1.7997 10.06274,4.76298 12.24703,7.17089 9.23615,10.18175 -1.70494,1.70493 -2.80523,1.86332 -4.9543,0.71317 -1.51945,-0.81318 -7.18356,-1.81285 -12.5869,-2.2215 -9.78677,-0.74018 -10.63512,-0.61194 -56.19765,8.49542 -17.78677,3.55535 -20.29441,3.73915 -23.05105,1.68953 z m -2.07239,-19.77963 c -6.36889,-0.77768 -15.1859,-6.55248 -15.1859,-9.94613 0,-1.85196 0.91701,-2.7157 2.88316,-2.7157 3.54607,0 17.97146,7.55262 21.16465,11.08106 2.23256,2.46695 2.18991,2.57328 -0.94853,2.36444 -1.80743,-0.12025 -5.36845,-0.47293 -7.91338,-0.78367 z m 206.84535,303.86442 c -3.44981,-3.86789 -7.5777,-9.10753 -9.17306,-11.64365 -2.37615,-3.777318 -3.16693,-4.25789 -4.37325,-2.657637 -0.80991,1.074417 -5.7768,5.130247 -11.03751,9.012927 -16.46769,12.15405 -16.55417,12.23564 -14.83386,13.99461 0.85973,0.87905 5.47139,1.86187 10.24812,2.18403 4.77675,0.32216 13.29666,1.07108 18.93312,1.66428 9.74904,1.02602 10.40059,0.91781 13.37848,-2.22175 l 3.13034,-3.3003 z m -115.83444,-2.94586 c 7.42128,-2.2039 14.01283,-6.617 12.3605,-8.2755 -0.55235,-0.55441 -9.46822,-2.43269 -19.81307,-4.173943 -38.57064,-6.492284 -66.23681,-14.381979 -77.56475,-22.119527 -3.3251,-2.271206 -8.67657,-8.615253 -13.66419,-16.198534 -10.35338,-15.741507 -29.4452,-41.453145 -30.78047,-41.453145 -1.49361,0 -2.65694,5.321353 -2.67813,12.250478 -0.017,5.529048 1.46597,8.313371 15.8027,29.671978 16.79599,25.022397 27.03726,36.133713 38.79669,42.092673 7.8307,3.96811 26.08513,7.26689 48.54654,8.77289 9.01835,0.60467 17.6689,1.18836 19.22345,1.29712 1.55453,0.1088 5.95136,-0.73027 9.77073,-1.86449 z M 460.23104,83.396868 c -3.28122,-0.677237 -9.11526,0.820261 -9.11526,2.339733 0,0.657301 2.61328,0.515822 5.80728,-0.314387 3.57457,-0.929136 4.84638,-1.707817 3.30798,-2.025346 z M 171.44413,12.842577 C 171.5756,12.17818 166.45672,9.8813195 160.06871,7.73845 153.6807,5.5956026 139.75923,0.38332459 129.13212,-3.8443744 c -14.07537,-5.599484 -20.29021,-7.4437216 -22.88751,-6.7918456 -4.68947,1.1769676 -4.49784,2.5401236 0.94011,6.6878656 4.00983,3.05843939 18.04112,7.2944232 57.66645,17.4093014 4.74123,1.210263 6.25918,1.067885 6.59296,-0.61837 z M 708.52662,-8.4309294 c 4.42658,-4.8996926 4.94145,-6.2594886 4.94145,-13.0501256 0,-9.188062 6.81919,-27.964812 12.37957,-34.08738 7.87305,-8.669048 11.27746,-19.372826 8.06864,-25.368555 -1.8598,-3.475059 -2.81773,-3.359499 -10.52115,1.269291 -3.58104,2.151754 -17.11782,8.105348 -30.08171,13.230171 -14.36455,5.678553 -23.57071,10.042364 -23.57071,11.172748 0,4.824152 19.47964,38.641494 25.31964,43.955777 2.60787,2.3730786 4.74154,5.2221156 4.74154,6.3311946 0,3.5947219 3.66687,2.143091 8.72273,-3.453121 z m -540.2594,-1.8314166 c 0,-3.444302 -6.85979,-10.404014 -29.04273,-29.465742 -8.08243,-6.945205 -15.30738,-13.771257 -16.05541,-15.168973 -2.07728,-3.881453 -1.61744,-8.45217 1.29486,-12.870017 l 2.63694,-4.000162 0.85359,4.000162 c 2.04251,9.571907 4.71495,12.787775 20.10858,24.197732 8.48194,6.286929 16.25944,12.45424 17.28334,13.705119 1.02389,1.250902 3.91813,3.545334 6.43161,5.09876 4.32179,2.671011 5.33354,2.740387 18.63001,1.277265 23.92178,-2.632281 47.54653,-9.175373 47.54653,-13.168459 0,-2.835395 -6.51182,-5.116151 -26.41103,-9.250439 -29.67147,-6.164604 -40.43095,-10.915509 -63.99143,-28.255922 l -7.73418,-5.692318 -4.97707,3.076008 c -6.01619,3.718212 -7.65411,2.654508 -4.46606,-2.900367 1.30107,-2.26697 2.36557,-5.66459 2.36557,-7.550265 0,-1.885686 4.91911,-14.040846 10.93135,-27.011476 6.01224,-12.97064 10.93134,-24.59089 10.93134,-25.82276 0,-1.23189 -2.20664,-7.57046 -4.90365,-14.08573 -3.81964,-9.22731 -4.60895,-12.49276 -3.57054,-14.7718 0.73319,-1.6092 9.68263,-9.65953 19.88763,-17.88964 l 18.55453,-14.9638 3.41784,-10.93135 c 5.09407,-16.29243 8.97317,-34.13756 8.97317,-41.27947 0,-3.85866 0.84513,-7.26384 2.16466,-8.72193 1.99575,-2.20527 1.89378,-2.56944 -1.30649,-4.66634 -3.323,-2.17731 -3.7641,-2.11497 -10.33314,1.46034 -8.73646,4.75498 -9.47183,5.6247 -17.26031,20.41336 -17.50701,33.24207 -21.09108,41.55654 -22.55154,52.31566 -1.95437,14.39772 -2.49292,16.68846 -3.92357,16.68846 -1.65461,0 -3.58015,-6.45517 -6.15642,-20.63877 -2.04282,-11.24671 -2.01608,-12.13088 0.61612,-20.37034 1.51339,-4.73733 2.54365,-8.82129 2.28949,-9.07546 -0.25417,-0.25416 -1.90399,1.07267 -3.66627,2.94852 -1.76227,1.87587 -4.21111,3.41067 -5.44184,3.41067 -3.52744,0 -8.26648,7.63916 -9.56937,15.42549 -0.65529,3.91623 -3.027,10.5023 -5.27046,14.63571 -3.45355,6.36291 -4.41297,10.44321 -6.25688,26.6097 -1.22086,10.70391 -2.92254,19.78622 -3.87253,20.66882 -0.93208,0.86594 -4.92751,3.75835 -8.878721,6.4276 -6.278223,4.24121 -7.731295,4.69621 -11.524063,3.60846 -4.852989,-1.39182 -5.896706,-0.96767 -4.779953,1.94251 0.419016,1.09197 4.051969,2.94186 8.073227,4.11087 10.320462,3.00024 28.17645,15.91169 28.35033,20.4998 0.0751,1.98155 -10.23521,-0.28604 -21.317715,-4.68849 -5.728165,-2.27546 -11.042349,-3.92803 -11.809318,-3.67238 -0.766948,0.25566 2.232608,2.61348 6.665694,5.23962 7.995491,4.73646 11.059419,9.622378 7.008869,11.176728 -1.033459,0.39656 -6.392396,-1.16324 -11.908751,-3.466258 -9.266122,-3.86846 -10.298981,-4.03389 -13.565459,-2.17257 -3.164771,1.80338 -3.520821,2.80362 -3.393893,9.534608 0.273521,14.50474 1.168394,16.587251 8.59101,19.992458 5.01258,2.299555 6.902392,4.006606 7.555122,6.824421 0.478764,2.066784 2.154116,7.284042 3.723037,11.593882 l 2.852553,7.836096 25.461531,16.945955 c 28.76252,19.142925 35.44107,22.8646306 43.22496,24.0876936 6.65956,1.046391 7.5153,0.681889 7.5153,-3.2012496 z m 592.98108,-8.563813 c 2.86208,-2.722431 3.41058,-17.822439 1.47303,-40.550937 -1.76601,-20.716228 -4.69495,-31.388806 -8.83291,-32.1857 -2.36626,-0.455694 -2.45934,0.118332 -1.32783,8.187222 0.66925,4.772522 1.16295,22.060851 1.0971,38.418549 -0.11887,29.544402 -0.10082,29.735615 2.73284,28.889742 1.56891,-0.468338 3.7549,-1.709824 4.85777,-2.758876 z M 91.747798,-22.103606 c 0,-0.758385 -1.84466,-3.309134 -4.099251,-5.668349 -2.254592,-2.359193 -4.099251,-5.169466 -4.099251,-6.245005 0,-1.471473 -1.03744,-1.727681 -4.19102,-1.035033 -4.66303,1.024164 -9.473162,-2.094834 -9.473162,-6.142633 0,-2.691064 5.934273,-8.667251 7.275069,-7.326477 1.547027,1.547049 1.028711,-4.980637 -0.643602,-8.105391 -1.634447,-3.053981 -6.5944,-7.699652 -8.304401,-7.778189 -1.773765,-0.08141 -5.159162,7.913846 -5.159162,12.184445 0,5.054672 -0.86993,5.149813 -6.836589,0.747738 -6.447674,-4.756928 -8.109617,-2.424387 -3.67012,5.151054 4.629534,7.899705 20.28031,22.450664 25.890297,24.070915 6.044486,1.745737 13.311192,1.825948 13.311192,0.146925 z M 679.0442,-68.303305 c 2.35472,-2.199646 4.82236,-6.45088 5.75031,-9.906529 0.89403,-3.329376 2.26291,-7.248927 3.04196,-8.710141 1.34924,-2.530708 1.5632,-2.472711 4.50929,1.222054 2.07233,2.598941 3.84164,3.591472 5.3621,3.008007 1.2481,-0.478941 1.93422,-1.412867 1.52476,-2.075401 -0.40947,-0.662535 -1.66684,-14.348147 -2.79413,-30.412445 -2.21027,-31.49672 -4.14915,-41.29729 -10.55839,-53.36983 -4.58326,-8.63308 -6.48734,-9.99474 -10.19007,-7.28722 -3.12483,2.28492 -3.96202,13.28837 -5.38168,70.73373 -0.99913,40.427812 -0.98923,40.650934 1.80319,40.650934 1.5443,0 4.66398,-1.733936 6.93266,-3.853159 z M 208.26512,-219.18429 c 6.84769,-4.69009 18.8366,-14.37458 26.64204,-21.5211 20.7591,-19.0067 24.97059,-22.15647 28.45533,-21.28184 2.12433,0.53315 3.1614,0.0336 3.62703,-1.7469 0.35865,-1.37146 5.50166,-5.14593 11.42889,-8.38771 10.85642,-5.93768 30.01677,-18.35945 35.71394,-23.15356 3.79634,-3.19456 3.93656,-6.37397 0.36538,-8.28521 -1.97707,-1.0581 -5.05668,-0.90541 -11.39719,0.56506 -22.05774,5.11552 -47.18443,17.78399 -71.26704,35.93166 -21.9592,16.54755 -28.76657,24.64956 -33.86522,40.30576 -3.65169,11.21302 -4.54616,16.10123 -2.94632,16.10123 0.43604,0 6.39546,-3.83733 13.24316,-8.52739 z m 113.05237,-34.64663 c 7.37138,-14.91689 8.30604,-17.65004 7.00921,-20.49628 -2.76505,-6.06859 -12.16739,-3.73178 -17.952,4.46166 -1.87882,2.66123 -5.41442,7.15444 -7.8569,9.98493 -3.62223,4.19766 -4.44085,6.30626 -4.44085,11.43858 0,5.87917 0.33636,6.4698 5.12407,8.99732 2.81823,1.48781 6.1336,2.73227 7.36748,2.76547 1.53396,0.0413 4.93318,-5.38269 10.74899,-17.15168 z m 214.01284,-15.68652 c 0.85044,-2.57285 1.96997,-7.80259 2.48783,-11.62165 l 0.94157,-6.94374 -7.95349,-3.50465 c -12.62816,-5.56451 -35.34617,-12.51573 -37.81179,-11.56959 -2.2806,0.87515 -2.96786,5.69466 -1.39609,9.79058 1.65652,4.31683 37.71379,29.98895 40.7337,29.00165 0.79862,-0.26108 2.14784,-2.57976 2.99827,-5.1526 z m -306.40306,-28.69904 c 12.48029,-4.66562 22.69145,-8.97447 22.69145,-9.57524 0,-1.86723 -5.92112,-5.34655 -9.09877,-5.34655 -1.66377,0 -16.24782,4.91912 -32.409,10.93136 -16.16116,6.01224 -29.95074,10.93134 -30.64349,10.93134 -2.45102,0 -11.90658,8.4125 -13.52985,12.03734 -0.90552,2.02205 -1.67412,5.34212 -1.70802,7.37791 l -0.0616,3.70145 21.03392,-10.78735 c 11.56866,-5.93304 31.24507,-14.60466 43.72539,-19.27026 z" style="fill:#e25b65;fill-opacity:1;stroke-width:1.36641824"/> <path id="path830" d="m 536.46291,225.90285 c -2.93827,-10.85484 -4.89291,-12.18911 -23.10439,-15.77136 -10.75056,-2.11468 -26.7943,-13.66229 -34.02466,-24.48953 -3.02613,-4.53152 -2.84113,-5.87307 0.65678,-4.76287 2.72967,0.86636 2.85184,0.59282 1.94228,-4.34879 -1.58099,-8.58931 -5.37267,-13.07617 -16.0227,-18.96036 -9.70746,-5.36343 -16.16085,-12.13377 -16.16085,-16.9546 0,-1.22425 2.45955,-5.49928 5.46567,-9.50004 3.00612,-4.00078 5.46567,-8.31414 5.46567,-9.58526 0,-1.27113 -2.81607,-5.05245 -6.25795,-8.40292 -7.34841,-7.15331 -13.77416,-17.351593 -12.02993,-19.092727 1.51894,-1.516249 17.17236,-5.650293 18.05448,-4.768152 0.35915,0.359145 -1.5935,1.591658 -4.33926,2.738901 -2.74575,1.147243 -4.99227,2.836548 -4.99227,3.753981 0,0.917444 3.98966,5.392237 8.86589,9.943957 7.7352,7.22044 9.2979,9.54598 12.25315,18.23475 4.45996,13.11286 7.47878,17.75401 17.37035,26.70537 9.64843,8.73134 30.32937,18.47746 48.22963,22.72876 13.4188,3.18697 37.74633,5.35508 60.17094,5.36257 40.5379,0.0137 76.39173,-18.15867 89.64361,-45.43502 2.93127,-6.03346 2.98255,-6.75609 1.2634,-17.80719 -0.98551,-6.33521 -1.41985,-12.9818 -0.96519,-14.77023 0.45464,-1.788414 4.07692,-5.783607 8.04951,-8.878192 14.34341,-11.173307 21.35156,-18.278655 22.30352,-22.612879 0.56333,-2.564917 3.40666,-6.485089 7.15899,-9.870378 3.42346,-3.088583 7.81361,-7.408473 9.75587,-9.599757 1.94224,-2.19127 6.05797,-6.495487 9.14604,-9.564927 7.30996,-7.265806 8.37028,-10.705475 4.72758,-15.336401 -3.14052,-3.992553 -4.15875,-18.2559493 -1.30322,-18.2559493 1.93216,0 9.74905,8.3994313 15.25978,16.3970183 2.33029,3.381878 4.73383,6.353846 5.34125,6.604346 1.87214,0.772138 1.24814,4.06515 -2.44604,12.908281 -5.14868,12.324956 -9.01911,16.718619 -18.8685,21.419302 -7.88404,3.762707 -8.79317,4.632036 -9.65644,9.233668 -2.02523,10.795373 -6.14858,15.637825 -21.5259,25.279862 -10.48116,6.572006 -11.98686,9.356856 -11.98686,22.170256 0,9.48172 -2.78199,21.52235 -6.78629,29.37143 -4.39363,8.61224 -18.79548,22.12379 -28.81855,27.03706 -18.39802,9.01861 -24.04981,10.17165 -53.59964,10.93498 l -27.03248,0.69832 -6.98212,8.02749 c -8.11768,9.33311 -16.43414,13.70555 -31.0292,16.31384 -5.36553,0.95887 -10.41275,2.53536 -11.21608,3.5033 -1.03915,1.25209 -0.99984,3.97922 0.13623,9.45145 2.24265,10.8028 0.81665,10.76812 -2.11205,-0.0515 z m 10.70089,-17.86701 c 7.24892,-2.46997 15.77084,-10.90769 13.40549,-13.27305 -2.38692,-2.38691 -53.43037,-5.14903 -53.43037,-2.89129 0,0.4408 1.93797,3.50001 4.3066,6.79826 3.99814,5.56729 6.44669,7.05274 17.55611,10.65064 4.20954,1.36327 12.01042,0.81155 18.16217,-1.28456 z M 423.78742,168.2651 c -15.90247,-9.43791 -30.66232,-24.34022 -35.69545,-36.04004 -1.54934,-3.60152 -3.96802,-7.58989 -5.37486,-8.86306 -2.34451,-2.12177 -2.99622,-2.1395 -7.81213,-0.21256 -4.5914,1.83713 -14.54376,2.97588 -20.80489,2.38049 -1.12729,-0.10714 1.39285,-1.29625 5.60031,-2.64235 19.34256,-6.18828 42.97439,-16.904 47.00679,-21.31496 3.66569,-4.009819 8.72494,-7.518252 10.84152,-7.518252 0.42517,0 0.77304,1.434739 0.77304,3.188307 0,4.831205 1.08361,5.106585 8.70111,2.211313 12.11213,-4.603613 12.31763,-2.900433 0.73527,6.094062 -7.55953,5.87052 -8.80602,6.38562 -13.52394,5.58853 -4.99752,-0.84433 -8.47906,0.87571 -5.49966,2.71708 4.55957,2.81796 -5.34215,6.88168 -13.43606,5.51423 -8.87825,-1.49998 -9.30751,1.17937 -2.18992,13.66913 7.6784,13.47382 9.33952,15.26988 24.79942,26.81381 12.15833,9.07864 15.44804,12.10351 13.1338,12.07646 -0.608,-0.007 -3.87246,-1.6551 -7.25435,-3.66219 z M 314.47397,125.53852 c -10.14566,-1.29971 -21.21364,-3.39159 -24.59553,-4.64864 -3.38189,-1.25704 -7.00551,-2.5972 -8.05248,-2.97814 -4.08074,-1.4847 -0.19312,-2.01707 5.47994,-0.75041 3.29372,0.73543 12.25689,2.27221 19.91816,3.41509 13.17573,1.96551 14.33601,1.93815 21.43939,-0.50577 l 7.5098,-2.58374 0.4233,2.93852 c 0.23282,1.6162 1.96054,3.71347 3.83936,4.66062 2.98291,1.50373 3.06953,1.72699 0.68321,1.76088 -1.50305,0.0213 -3.96262,0.26737 -5.46567,0.54675 -1.50306,0.27937 -11.03383,-0.55545 -21.17948,-1.85516 z m -62.85525,-13.6473 c -2.63035,-1.39626 -7.95341,-5.82702 -11.829,-9.84614 -23.81349,-24.69535 -37.3869,-38.051911 -38.66968,-38.051911 -0.80775,0 -1.41779,-1.690942 -1.35566,-3.757651 0.0622,-2.066707 -0.30675,-6.298257 -0.81975,-9.403457 -0.513,-3.105199 -0.35357,-6.680719 0.3543,-7.9456 1.05886,-1.892065 2.05591,-0.857208 5.62394,5.83708 4.01062,7.524701 5.43541,12.536791 3.56385,12.536791 -0.42517,0 -1.96239,-0.636517 -3.41604,-1.414488 -5.21884,-2.793041 -2.42778,0.750341 10.72547,13.616521 24.0385,23.513821 34.57159,32.152835 41.28825,33.863695 9.66605,2.46211 13.89969,4.37165 12.98256,5.85561 -1.39804,2.26205 -13.32785,1.42757 -18.44824,-1.29045 z M 382.79487,90.686395 c 0,-6.170963 0.49471,-7.731988 2.84988,-8.992425 3.51907,-1.883349 3.89737,-1.519047 4.9114,4.729707 0.65549,4.039396 0.20258,5.654722 -2.34625,8.367825 -1.73722,1.849174 -3.66628,3.362128 -4.28679,3.362128 -0.62054,0 -1.12824,-3.360264 -1.12824,-7.467235 z m 79.25226,-10.227162 c -9.2273,-0.441722 -15.65101,-1.316298 -15.56172,-2.118672 0.0836,-0.75153 2.23577,-2.389087 4.78246,-3.639032 2.54671,-1.249931 7.06101,-4.785537 10.03176,-7.856906 5.62582,-5.816335 9.81565,-7.102354 11.21961,-3.443741 0.5289,1.378306 -0.82444,3.596179 -3.80054,6.228312 l -4.62195,4.087763 6.8321,-0.794628 c 3.75765,-0.437048 9.90654,-1.224037 13.66418,-1.748878 9.40343,-1.313387 29.45142,-0.821327 31.03446,0.76171 0.82115,0.821149 -2.63782,2.145604 -9.40202,3.600102 -5.8856,1.265564 -14.28637,3.183099 -18.66835,4.261188 -4.382,1.078077 -8.37878,1.837506 -8.88173,1.687597 -0.50296,-0.149898 -7.98566,-0.611064 -16.62826,-1.024815 z m 147.91906,-42.42801 c 2.75833,-5.259796 6.51227,-10.139669 9.20542,-11.966489 9.13236,-6.194666 6.4919,-0.752474 -6.13742,12.649697 l -7.72574,8.19851 z M 188.76348,32.575086 C 185.38161,31.9969 174.00617,30.478041 163.48475,29.199839 140.98381,26.46631 129.62313,23.274096 118.39295,16.529601 111.60647,12.453852 108.78222,11.572177 101.99487,11.410423 91.704232,11.165151 83.517808,7.512566 64.419435,-5.3548994 45.253971,-18.26755 33.681551,-29.735291 26.969184,-42.466413 c -5.819523,-11.037668 -6.57346,-17.533766 -2.866838,-24.70155 3.265124,-6.314058 2.528789,-9.564553 -3.40829,-15.045616 l -5.465668,-5.045876 0.103924,-13.532485 c 0.121616,-15.82187 1.482997,-20.31996 8.436166,-27.87229 5.388606,-5.85296 6.136632,-7.64082 3.556612,-8.50083 -4.622202,-1.54073 15.154144,-40.71797 26.489678,-52.47638 3.709484,-3.84787 9.686158,-8.37391 13.281501,-10.05788 6.438724,-3.01575 6.54866,-3.17485 7.313467,-10.58533 1.312125,-12.71311 6.123212,-20.25565 23.982306,-37.59802 18.148278,-17.6232 21.267458,-19.25131 41.292818,-21.55353 6.32614,-0.7273 11.94748,-1.32702 12.49182,-1.33273 0.54433,-0.006 1.94361,1.8343 3.10951,4.08889 2.5981,5.02416 4.28909,5.10254 11.0531,0.51236 5.19223,-3.52354 15.54808,-7.84389 16.50589,-6.88608 0.26815,0.26815 -3.05591,2.97476 -7.38683,6.0147 -10.90272,7.65275 -12.26255,9.4164 -21.186,27.47721 -8.69028,17.58888 -9.42952,14.69855 -1.4797,-5.78535 3.14152,-8.09455 4.2577,-12.59995 3.34713,-13.51052 -0.75136,-0.75136 -5.02362,-1.43527 -9.49386,-1.51979 -7.56089,-0.14294 -8.78959,0.29813 -17.61718,6.32393 -12.17962,8.31396 -21.97605,19.02838 -25.31105,27.68287 -1.448,3.75766 -3.59278,7.90113 -4.766168,9.20774 -1.758896,1.95858 -1.936855,4.11754 -1.013677,12.29777 0.615852,5.45716 1.025287,12.07422 0.909858,14.70458 -0.115471,2.63035 -0.478076,13.90223 -0.805822,25.04862 -0.327768,11.14635 -0.955687,20.62588 -1.395398,21.06559 -0.439712,0.43971 -0.799489,-7.27349 -0.799489,-17.14043 0,-14.87411 -0.494636,-19.29136 -2.894489,-25.84808 -4.225658,-11.54511 -4.890333,-11.98587 -12.921968,-8.56932 -9.485706,4.0351 -21.738373,16.49848 -25.480365,25.91854 -2.49821,6.28895 -3.04889,10.70364 -3.326337,26.66651 -0.182872,10.52143 -0.363115,19.89846 -0.400548,20.83788 -0.155377,3.8982 -2.80008,1.29484 -4.164412,-4.09926 -2.999712,-11.85994 -3.108117,-11.91515 -8.625382,-4.39153 -4.902444,6.68521 -4.973617,6.96945 -4.94834,19.76374 0.02939,14.889918 0.385553,16.893148 7.77413,43.725369 7.05544,25.62251 10.713848,33.674841 18.21753,40.097716 4.850238,4.151613 5.598563,5.363285 3.954422,6.402855 -1.115345,0.705235 -2.796498,1.291651 -3.735914,1.303152 -8.459202,0.103481 12.568446,17.0317993 28.518419,22.9585742 4.224282,1.5696749 14.36994,4.1226758 22.54589,5.6733182 19.69974,3.7362236 25.13941,5.3385956 24.75228,7.2913176 -0.45242,2.282065 20.66559,5.233252 23.73431,3.31681 1.61756,-1.010178 6.16577,-0.573361 16.13682,1.549821 7.63641,1.626049 14.93706,2.94839 16.22363,2.938513 1.4912,-0.01132 3.70219,-2.859765 6.0989,-7.856907 2.06781,-4.311426 3.75876,-8.2460724 3.75765,-8.7436582 -0.002,-1.491515 -10.83087,-2.9359699 -23.91435,-3.190314 C 170.38511,4.4267425 161.10622,3.3739854 156.5291,2.2188119 147.88295,0.03670159 117.48881,-11.90438 106.77834,-17.327002 99.868362,-20.825453 87.648491,-31.090306 87.648491,-33.396306 c 0,-0.829368 1.176103,-0.245548 2.613559,1.297386 4.543156,4.876502 11.60618,8.506006 40.05089,20.581136 30.3129,12.868186 37.93524,14.4915314 53.09907,11.30865959 13.59399,-2.85337359 20.32413,-3.63247699 22.06805,-2.55467569 1.1024,0.6813341 3.70959,-0.8160813 7.19512,-4.1324253 7.80149,-7.4228246 21.18124,-17.9277926 22.83391,-17.9277926 2.25092,0 -12.03776,18.3956206 -24.94963,32.1208042 -6.5679,6.9815838 -7.86646,9.2281678 -8.68801,15.0306098 -1.80387,12.740406 -1.21597,12.280798 -13.10802,10.24769 z M 37.825732,-57.27644 c -1.27792,-5.174335 -3.259479,-6.976682 -4.869892,-4.429437 -1.765878,2.793137 -1.662042,3.561027 0.816792,6.03985 3.334045,3.334045 5.100855,2.632037 4.0531,-1.610413 z M 219.05782,28.031245 c -3.32509,-3.539409 -3.94459,-6.686809 -1.10142,-5.595776 1.86517,0.715733 5.51406,7.306203 4.56862,8.251638 -0.27569,0.275688 -1.83592,-0.919451 -3.4672,-2.655862 z M 772.89831,9.0507197 c -0.42476,-1.7216913 -0.5965,-12.9685401 -0.38166,-24.9930157 l 0.39062,-21.862695 2.51933,5.465679 c 3.74195,8.118113 4.22692,14.540744 2.23463,29.5933133 -1.81544,13.7164767 -3.351,17.5197027 -4.76292,11.7967184 z M 745.97572,-32.368382 c 0.6328,-31.776933 0.5087,-34.051389 -2.40455,-44.066989 -1.68949,-5.808365 -4.45925,-13.020225 -6.15501,-16.026347 -1.69578,-3.006124 -3.81533,-7.730942 -4.71015,-10.499602 -1.87642,-5.80585 -8.35847,-11.91647 -20.43575,-19.26467 l -8.4952,-5.16872 0.40566,-8.49546 c 0.36807,-7.70843 0.69972,-8.5371 3.58003,-8.94517 3.02154,-0.42809 3.13077,-0.15891 2.26857,5.5907 -0.88133,5.87707 -0.78241,6.09128 3.65771,7.92154 2.50992,1.03462 9.96991,7.3011 16.57773,13.92552 6.60783,6.62442 12.58604,11.69101 13.28492,11.25907 0.69888,-0.43192 2.00577,-3.23881 2.9042,-6.2375 0.89843,-2.99868 2.12492,-4.96074 2.72552,-4.36014 1.28939,1.28938 10.7469,20.514158 10.7469,21.845768 0,0.5033 -2.11158,-1.1315 -4.6924,-3.63292 -9.01923,-8.741788 -9.95779,-3.667128 -4.14992,22.438059 2.70255,12.147512 2.26501,30.410671 -1.37545,57.410113 -1.11465,8.266824 -2.03864,16.1066464 -2.05332,17.4218331 -0.0146,1.31516449 -0.54868,2.3912243 -1.18671,2.3912243 -0.63802,0 -0.85978,-15.0778354 -0.49278,-33.5063094 z m 23.73727,-26.405828 c -1.73108,-8.526936 -2.85786,-15.793077 -2.50399,-16.146964 1.65221,-1.652183 6.96072,22.817782 6.14454,28.323634 -0.27125,1.829786 -1.9095,-3.649713 -3.64055,-12.17667 z m -25.18083,-64.7748 c -0.9575,-2.49522 -20.9429,-26.42562 -23.86319,-28.57364 -2.85418,-2.09938 -16.90847,-19.38192 -23.15448,-28.47304 -2.32354,-3.38188 -5.59765,-7.37866 -7.27583,-8.88172 -1.67819,-1.50306 -9.20842,-11.95616 -16.73385,-23.22911 -7.52545,-11.27295 -15.99012,-23.40683 -18.81039,-26.96416 -7.41746,-9.35597 -28.43442,-25.22406 -45.55676,-34.39601 l -14.83006,-7.94401 -7.96931,1.56786 c -4.38312,0.86233 -12.41699,3.08063 -17.85306,4.92956 -5.43607,1.84891 -10.23744,3.00799 -10.66971,2.57572 -0.43228,-0.43227 1.74138,-3.14343 4.83033,-6.02476 4.62098,-4.31041 6.973,-5.40835 13.2718,-6.19532 4.21053,-0.52608 11.82518,-2.04589 16.92144,-3.37737 l 9.26591,-2.42086 -4.87902,-4.6007 c -6.84911,-6.45844 -34.41063,-17.5817 -43.5644,-17.5817 -3.73745,0 -9.73883,-1.15527 -13.33643,-2.56728 -3.59758,-1.41202 -9.92294,-3.02003 -14.05637,-3.57337 -4.13341,-0.55335 -8.43763,-1.47615 -9.56493,-2.05068 -2.93873,-1.49775 -22.40666,1.87248 -26.56857,4.59947 -6.3259,4.14488 -15.73458,17.64332 -23.93309,34.33628 -4.42925,9.01837 -9,17.62679 -10.15727,19.12986 -4.04363,5.25191 4.02328,-17.71543 10.49563,-29.88219 5.1172,-9.61935 8.87185,-14.29657 20.60276,-25.66523 l 14.34519,-13.90216 -4.87797,-3.87652 c -2.68288,-2.1321 -5.89499,-3.87654 -7.13801,-3.87654 -1.24302,0 -12.3802,2.80308 -24.74925,6.22906 -17.43045,4.82789 -27.21704,8.51625 -43.50726,16.39702 -11.55993,5.59238 -21.70559,10.15143 -22.54589,10.13121 -2.43417,-0.0586 -11.18054,-7.84626 -10.065,-8.9618 0.55567,-0.55566 2.51362,-0.32533 4.35103,0.51185 2.85824,1.30228 4.6845,0.81252 12.64514,-3.39116 13.34363,-7.04621 22.28539,-13.09105 22.28539,-15.06545 0,-0.9396 -1.81174,-3.71644 -4.02607,-6.17078 l -4.02607,-4.46241 -8.6133,4.42027 c -4.73732,2.43114 -14.52824,8.32393 -21.75762,13.09509 -7.22937,4.77114 -16.12057,9.50812 -19.75825,10.5266 -3.99848,1.11951 -11.04735,5.19554 -17.82511,10.30745 -6.16611,4.65063 -14.14206,9.45433 -17.72426,10.6749 l -6.51312,2.21925 5.80319,-4.96731 c 3.19174,-2.73201 5.30157,-5.44767 4.68849,-6.03477 -0.61308,-0.58709 -5.98944,-3.62122 -11.94747,-6.74249 -10.66512,-5.58719 -10.99292,-5.66189 -21.17948,-4.826 -15.02822,1.2332 -23.08692,3.2454 -31.13974,7.77538 -3.92087,2.20562 -11.60697,5.24305 -17.08022,6.74984 -5.47326,1.50679 -19.17471,6.65554 -30.44765,11.44166 -11.27296,4.78612 -22.34095,9.10226 -24.59554,9.59142 l -4.09925,0.88936 3.41605,-2.77658 c 4.46223,-3.62693 9.23085,-5.6248 31.42761,-13.16693 20.47087,-6.9557 26.21186,-9.57274 30.13535,-13.73722 2.64031,-2.8025 2.63232,-2.84306 -1.29993,-6.6104 -3.50371,-3.35676 -4.95024,-3.78084 -12.63833,-3.70508 -12.78393,0.12594 -22.80699,3.23402 -44.69683,13.86013 -10.78992,5.2378 -20.4234,9.52328 -21.40775,9.52328 -5.45293,0 -31.99112,10.49302 -41.58099,16.44085 -12.89167,7.99567 -16.06084,8.64438 -9.58379,1.96177 4.55193,-4.69642 23.14929,-15.63888 30.01852,-17.66257 1.87883,-0.55349 7.44978,-3.40599 12.37991,-6.33888 9.53221,-5.67063 12.2434,-6.60923 9.4828,-3.28289 -2.3013,2.77289 -1.27428,2.59887 7.14342,-1.21039 15.38991,-6.9644 35.18067,-14.44097 54.69726,-20.66361 10.96323,-3.49548 13.15388,-3.74809 26.13068,-3.01322 l 14.16425,0.80212 3.93052,-4.15257 c 5.49278,-5.80308 16.20244,-10.21947 27.54417,-11.35846 l 9.63772,-0.96788 -0.75949,5.66234 c -0.65749,4.90195 -0.24099,6.20354 3.10144,9.69227 2.12348,2.21645 4.64655,4.02991 5.6068,4.02991 2.80416,0 4.8258,-5.22979 5.04988,-13.06353 0.263,-9.19389 2.33965,-10.3912 19.33808,-11.1494 l 12.29777,-0.54854 8.08764,5.46442 c 7.48543,5.05752 8.35026,5.32821 11.61456,3.6353 1.9398,-1.00601 5.73109,-3.97344 8.42509,-6.59428 l 4.89821,-4.76516 15.59807,0.57097 c 8.57893,0.31404 18.86505,1.27477 22.858,2.13497 6.21047,1.33791 8.25141,1.20746 14.11892,-0.90247 16.4503,-5.91545 46.13559,-1.15738 58.69086,9.40721 3.83897,3.23025 4.18865,3.27987 8.98703,1.27497 11.04375,-4.61437 33.48619,4.19169 39.82504,15.62672 2.78611,5.02603 4.11382,5.98005 10.93134,7.85453 16.9794,4.66852 20.7593,6.53447 42.49377,20.97708 5.39281,3.58354 7.8684,6.28002 9.10922,9.92199 2.16397,6.35154 10.2267,14.02763 19.01229,18.1006 8.88597,4.11949 18.09099,12.39771 25.80278,23.20479 7.57662,10.61768 19.13858,21.2328 24.23743,22.25257 6.85165,1.37032 32.0935,38.20806 40.24515,58.73337 4.07947,10.27191 11.5128,37.03371 11.5128,41.44896 0,1.95791 -2.31285,1.7102 -3.09637,-0.33163 z m -40.99464,-85.52561 c -10.4615,-13.35897 -50.43046,-48.25734 -52.68585,-46.00197 -0.63907,0.63908 10.99666,14.70581 18.65873,22.55701 2.567,2.63035 6.12594,6.96026 7.90876,9.62201 3.87977,5.79255 21.10303,21.56669 27.04058,24.76546 4.0656,2.19029 4.24307,2.17256 4.679,-0.46737 0.27429,-1.66102 -1.93634,-5.79524 -5.60122,-10.47514 z m -551.66732,38.7966 c 0,-2.0295 9.15133,-9.82033 10.24756,-8.7241 0.84633,0.84633 -7.42424,10.70419 -8.98061,10.70419 -0.69683,0 -1.26695,-0.89104 -1.26695,-1.98009 z m -11.62382,-36.51326 c -0.53581,-2.13487 -0.16059,-4.91994 0.91789,-6.81279 1.82135,-3.1967 1.82489,-3.19482 2.25019,1.20971 0.23429,2.42627 -0.17876,5.49201 -0.91789,6.81276 -1.18927,2.1251 -1.44815,1.98593 -2.25019,-1.20968 z m -25.26947,-30.96471 c 0,-0.62544 2.15211,-1.79767 4.78247,-2.60495 5.10813,-1.56773 6.52919,-0.0217 2.13945,2.32761 -3.17882,1.70125 -6.92192,1.85122 -6.92192,0.27734 z m 155.77167,-7.12701 c -7.13953,-2.94151 -13.93589,-5.35988 -15.10302,-5.37412 -1.16713,-0.0142 -4.85646,1.87532 -8.19851,4.19903 -5.13957,3.57353 -4.63034,2.83614 3.30261,-4.78246 5.15848,-4.95406 10.16366,-9.0074 11.12264,-9.0074 2.25108,0 16.57647,10.6678 21.7713,16.2126 5.21958,5.57122 3.17534,5.37343 -12.89502,-1.24765 z m 22.41327,-31.14736 c 0.56055,-0.90698 5.43137,-3.85005 10.82404,-6.54014 5.39267,-2.69009 9.18998,-4.29426 8.43846,-3.56481 -2.52641,2.45217 -20.29304,11.7724 -19.2625,10.10495 z" style="fill:#d3525e;fill-opacity:1;stroke-width:1.36641824"/> <path id="path828" d="m 568.62774,203.77448 c 0,-0.52786 1.95638,-2.9782 4.34748,-5.44519 2.3911,-2.467 3.90607,-4.92682 3.3666,-5.4663 -0.53948,-0.53948 -11.41388,-2.03307 -24.16533,-3.31908 -21.5707,-2.17548 -23.49324,-2.59805 -27.62051,-6.07093 -2.43985,-2.053 -4.43607,-4.41167 -4.43607,-5.24151 0,-2.17048 4.74526,-1.783 37.36178,3.05085 16.03982,2.37715 32.94925,4.43834 37.57652,4.58044 l 8.4132,0.25837 -7.79971,0.49132 c -7.68187,0.48391 -7.91672,0.62457 -15.53909,9.30657 -6.75661,7.69588 -11.50487,10.93797 -11.50487,7.85546 z m -81.15568,-16.23221 c -0.45618,-1.18877 -0.82939,-4.4279 -0.82939,-7.19811 0,-8.3918 -9.0389,-20.33189 -19.37477,-25.59345 -8.15881,-4.1533 -9.98157,-6.70217 -3.82609,-5.35019 4.2189,0.92661 4.41628,0.80079 3.52176,-2.24512 -0.8958,-3.05012 -2.45838,-11.44733 -4.41454,-23.72303 -0.47903,-3.00612 -1.47811,-6.23429 -2.22017,-7.17369 -0.85437,-1.08161 -0.86437,-1.70803 -0.0272,-1.70803 2.72732,0 5.60894,5.03963 7.31795,12.79831 2.1776,9.88599 9.20677,21.94329 16.25784,27.88748 2.92003,2.46165 6.01424,6.61215 6.87601,9.22333 1.04768,3.17454 2.41593,4.7476 4.12942,4.7476 3.35392,0 9.52324,2.83777 9.52324,4.38051 0,0.66496 -2.08736,0.81741 -4.63857,0.3388 -2.62049,-0.49161 -5.90669,-0.19154 -7.55329,0.68971 -2.58585,1.3839 -2.81348,2.32303 -2.01747,8.32358 0.56773,4.27994 0.3845,6.76368 -0.49903,6.76368 -0.76795,0 -1.76951,-0.97261 -2.22567,-2.16138 z m 141.84738,-1.75354 c 0.52712,-0.85292 2.33016,-1.55076 4.00674,-1.55076 4.34519,0 17.86314,-3.67154 26.78283,-7.27438 16.1156,-6.50937 30.35884,-21.10544 37.02283,-37.9399 2.45871,-6.21117 2.85154,-9.574 2.45766,-21.03904 l -0.4688,-13.64625 11.00957,-7.533241 c 17.21151,-11.776868 21.92889,-15.955923 23.48144,-20.80183 1.05713,-3.299626 1.47716,-3.721698 1.57957,-1.587286 0.34784,7.250298 -3.70628,12.466205 -15.89111,20.44499 -6.58954,4.31492 -12.69834,8.713047 -13.57511,9.773627 -0.87678,1.06057 -2.008,7.26116 -2.51384,13.77905 -1.15346,14.86277 -4.00153,26.41026 -8.09849,32.83521 -9.13889,14.3318 -23.91755,24.74639 -44.49988,31.3592 -11.37825,3.65567 -22.6253,5.33563 -21.29341,3.18061 z M 394.3995,116.74943 c -2.45492,-1.80642 -2.49736,-2.09109 -0.43105,-2.89246 3.602,-1.39697 8.63949,-0.19578 8.63949,2.0601 0,2.79176 -4.87394,3.28598 -8.20844,0.83236 z m -137.94828,-4.85068 c -0.47371,-0.76648 1.28669,-0.96423 4.3602,-0.4898 6.8616,1.05915 7.41175,1.77528 1.36381,1.77528 -2.71124,0 -5.28706,-0.57846 -5.72401,-1.28548 z m 467.9482,-45.003008 c 0,-3.085946 1.16709,-5.020098 4.61699,-7.651463 4.20626,-3.208269 5.59492,-3.487975 15.60925,-3.143978 10.13396,0.34808 10.83275,0.554409 8.94975,2.642447 -1.12337,1.245681 -5.12893,3.592642 -8.90129,5.215454 -6.4547,2.77674 -6.9606,2.811352 -8.58667,0.587547 -2.22368,-3.041033 -5.87505,-1.670297 -6.45798,2.424354 -0.24617,1.729215 -1.52364,3.349117 -2.83881,3.599788 -1.85045,0.352685 -2.39124,-0.478233 -2.39124,-3.674149 z M 199.69483,48.881922 c 0,-1.547413 0.61489,-2.433455 1.36643,-1.968981 0.75152,0.464473 1.36642,1.730542 1.36642,2.813482 0,1.082942 -0.6149,1.968982 -1.36642,1.968982 -0.75154,0 -1.36643,-1.266069 -1.36643,-2.813483 z M 173.67218,29.696876 c -4.91833,-0.636105 -11.37466,-1.726341 -14.3474,-2.422727 l -5.40495,-1.266172 4.53068,-0.137257 c 2.49188,-0.07555 5.60945,-0.714598 6.92793,-1.420215 2.70768,-1.449121 22.90917,4.036208 21.19129,5.754076 -0.547,0.547006 -1.66067,0.916773 -2.47484,0.821698 -0.81414,-0.0951 -5.50437,-0.693299 -10.42271,-1.329403 z M 146.07885,24.76705 c 1.6997,-0.326841 4.15927,-0.314427 5.46568,0.02764 1.30641,0.341997 -0.0843,0.60942 -3.09037,0.594253 -3.00612,-0.01518 -4.07501,-0.295003 -2.37531,-0.621834 z m 603.7455,-8.02707 c -0.45618,-1.188758 -0.82939,-3.108705 -0.82939,-4.266563 0,-1.749198 0.3592,-1.807072 2.12423,-0.34222 1.16831,0.969617 2.72717,2.889575 3.46411,4.266562 1.08367,2.024849 0.83606,2.503602 -1.29482,2.503602 -1.44909,0 -3.00796,-0.972612 -3.46413,-2.161381 z M 43.063964,-23.148344 c -6.538356,-6.169229 -11.143101,-11.985935 -14.005792,-17.692117 -2.345672,-4.67564 -4.264854,-8.90142 -4.264854,-9.390643 0,-2.019568 5.099436,3.643291 16.086561,17.863909 6.398951,8.282163 12.236286,15.827093 12.971856,16.766498 0.735571,0.939416 0.800942,1.693464 0.145262,1.675662 -0.655658,-0.01774 -5.575538,-4.168282 -10.933033,-9.223309 z m 733.525736,5.83962 c 0.0278,-2.25458 0.33409,-3.01149 0.68053,-1.682018 0.34644,1.329494 0.32366,3.174154 -0.0508,4.099262 -0.3743,0.925108 -0.65774,-0.162653 -0.62989,-2.417244 z m -753.663934,-63.623064 -6.650045,-6.628295 0.07132,-13.094217 c 0.08396,-15.43204 1.95027,-22.55183 5.911469,-22.55183 2.198359,0 2.531772,0.58866 1.741367,3.07444 -1.869138,5.87834 -1.676428,24.062448 0.262884,24.806638 2.507416,0.9622 10.437932,17.080203 9.546686,19.40275 -1.219403,3.177737 -3.913928,1.937527 -10.8837,-5.009486 z M 742.98272,-95.331192 c -0.48631,-1.26728 -0.57675,-2.61158 -0.20097,-2.98736 0.37575,-0.37576 1.08109,0.35367 1.56737,1.62094 0.48631,1.26727 0.57675,2.61157 0.20099,2.98734 -0.37577,0.375774 -1.0811,-0.35365 -1.56739,-1.62092 z m -7.43654,-59.140718 c -2.51186,-6.16798 -6.70443,-14.01461 -9.31678,-17.437 -2.61235,-3.42237 -4.48552,-6.48671 -4.16256,-6.80966 1.37215,-1.37215 7.93718,2.42099 9.11964,5.26914 6.04045,14.5494 9.66688,25.2359 9.32976,27.49329 -0.24342,1.63012 -2.21139,-1.74182 -4.97006,-8.51577 z m -699.821525,-4.26108 c 0.804413,-1.50308 1.770015,-2.73284 2.145775,-2.73284 0.375782,0 0.02507,1.22976 -0.779358,2.73284 -0.804414,1.50306 -1.770016,2.73282 -2.145776,2.73282 -0.375771,0 -0.02507,-1.22976 0.779359,-2.73282 z m 7.544652,-14.3474 c 3.501611,-7.99334 12.242131,-18.57108 17.734085,-21.4617 2.159063,-1.13642 1.981381,-0.6123 -0.846316,2.49635 -1.968549,2.16412 -6.838562,8.54641 -10.822299,14.18288 -9.834181,13.91418 -10.187991,14.19314 -6.06547,4.78247 z m 32.09626,-33.81886 c 0.01708,-5.10506 2.914076,-15.35104 5.948957,-21.03947 1.143705,-2.14371 8.823893,-10.5077 17.06707,-18.58664 11.254816,-11.03058 15.868446,-14.689 18.524296,-14.689 1.94518,0 3.53669,0.21526 3.53669,0.47834 0,0.26311 -6.21548,5.26522 -13.81219,11.11583 -10.966756,8.44605 -15.174535,12.72436 -20.425355,20.7678 -8.137623,12.4656 -9.182649,15.40655 -6.239248,17.55881 2.622021,1.91726 2.862224,4.91065 0.577376,7.1955 -3.010692,3.01069 -5.193002,1.83002 -5.177596,-2.80117 z m 623.099323,-12.60634 c -1.07776,-1.29862 -1.18143,-2.08266 -0.27536,-2.08266 1.65139,0 3.57672,2.59238 2.62912,3.53999 -0.34393,0.34393 -1.40312,-0.31187 -2.35376,-1.45733 z m -38.41451,-33.92368 c -11.11689,-8.38125 -22.66343,-14.61719 -27.06541,-14.61719 -4.50784,0 -25.72246,-9.967 -31.56318,-14.82893 -3.29565,-2.74338 -3.31375,-2.84518 -0.5134,-2.88905 1.59644,-0.0251 5.51682,0.87688 8.71191,2.00417 8.00668,2.82493 9.56493,2.6128 9.56493,-1.30213 0,-5.02278 -2.63253,-9.82806 -6.29956,-11.49887 -1.79596,-0.81829 -3.26537,-2.19088 -3.26537,-3.05018 0,-0.97439 1.15704,-0.7231 3.07443,0.6677 1.69095,1.22655 4.3959,2.79995 6.01101,3.49646 3.41456,1.47254 7.31068,6.58659 7.31358,9.59983 0.002,3.14572 12.41983,14.69011 18.53369,17.23151 7.07738,2.9419 17.4593,10.60954 20.36053,15.03741 3.4125,5.2081 1.90813,5.25428 -4.86316,0.14927 z m -492.46636,-43.31197 c 0.46447,-0.75153 1.45936,-1.36642 2.2109,-1.36642 0.75152,0 0.98639,0.61489 0.52192,1.36642 -0.46448,0.75153 -1.45937,1.36642 -2.2109,1.36642 -0.75153,0 -0.9864,-0.61489 -0.52192,-1.36642 z m 416.89933,-13.71813 c -7.43731,-2.94573 -13.87055,-5.70404 -14.29609,-6.12959 -0.42554,-0.42552 1.97021,-0.36003 5.32388,0.14554 7.78249,1.17324 18.20186,5.53727 21.24253,8.89718 1.29735,1.43357 2.10981,2.56964 1.80546,2.52462 -0.30438,-0.0451 -6.63845,-2.49201 -14.07578,-5.43775 z M 272.115,-317.82865 c 0,-1.07665 -1.22977,-2.34786 -2.73283,-2.82491 -4.38929,-1.39311 -3.15014,-3.41605 2.0925,-3.41605 3.02868,0 5.1182,-0.76316 5.61186,-2.04963 0.43259,-1.12729 2.2562,-2.04962 4.05245,-2.04962 1.8016,0 5.59586,-2.10496 8.46247,-4.69478 5.37361,-4.85474 19.40684,-11.32616 19.40684,-8.94946 0,0.74056 -0.72616,1.34647 -1.6137,1.34647 -2.10541,0 -19.59708,13.44836 -25.64111,19.71397 -4.80443,4.9806 -9.63848,6.4471 -9.63848,2.92401 z m 292.0719,-0.35077 c -2.84128,-0.74251 -3.21435,-3.15735 -0.48781,-3.15735 1.0469,0 2.25737,0.92233 2.68997,2.04963 0.43258,1.12729 0.65207,1.9783 0.48779,1.89112 -0.1643,-0.0872 -1.37478,-0.43971 -2.68995,-0.7834 z m -9.98698,-13.36203 c -1.45882,-1.1034 -2.00131,-2.02573 -1.20554,-2.04963 0.79578,-0.0238 2.64044,0.85932 4.09925,1.96272 1.45882,1.1034 2.00133,2.02572 1.20554,2.04962 -0.79577,0.0239 -2.64043,-0.85931 -4.09925,-1.96271 z m -40.2289,-2.86746 c 0,-1.17743 -1.6102,-4.25189 -3.57823,-6.83209 -4.24176,-5.56125 -2.44697,-6.13545 3.51002,-1.12296 3.37252,2.83779 5.00254,3.35294 7.96176,2.51627 5.85385,-1.65511 18.6251,-1.13064 22.54641,0.92588 3.30817,1.73495 2.80233,1.87678 -6.94548,1.94751 -7.12468,0.0517 -11.92306,0.82245 -14.8865,2.39122 -5.46161,2.89124 -8.60798,2.95489 -8.60798,0.17417 z m -74.50706,-5.71611 c 1.17987,-4.7055 5.18943,-8.54011 8.92971,-8.54011 1.57182,0 4.51822,-0.85024 6.54763,-1.88941 5.10213,-2.61264 16.66199,-3.99693 20.74973,-2.48477 3.13641,1.16024 3.18763,1.31385 0.68105,2.04281 -1.49072,0.43352 -7.01461,2.04929 -12.27533,3.59059 -5.2607,1.54131 -12.33191,4.65288 -15.71381,6.91461 -7.87328,5.26546 -10.17107,5.35983 -8.91898,0.36628 z m -69.65006,1.47287 c -1.50306,-0.33074 -4.5775,-1.32288 -6.83209,-2.20476 -2.25459,-0.88186 -5.17896,-1.42299 -6.4986,-1.2025 -2.99324,0.50013 -11.20056,-5.17552 -9.66208,-6.68169 0.62154,-0.60848 6.43614,-1.26711 12.92129,-1.46364 9.50167,-0.28789 12.55286,0.12732 15.71381,2.13842 5.12218,3.25892 10.07147,7.78208 10.07147,9.2043 0,1.15216 -10.77737,1.2961 -15.7138,0.20987 z m 28.82199,-7.62176 c 2.60682,-4.58225 5.42011,-6.49048 9.56886,-6.49048 7.02267,0 6.61321,2.12101 -1.02198,5.29406 -8.0274,3.33604 -9.91438,3.60019 -8.54688,1.19642 z m 38.13251,-3.75764 c -1.80196,-0.77432 -2.03469,-1.19994 -0.68321,-1.24946 1.12729,-0.0414 2.97195,0.52095 4.09925,1.24946 2.49778,1.61417 0.34037,1.61417 -3.41604,0 z" style="fill:#c94854;fill-opacity:1;stroke-width:1.36641824"/> </g> </svg>