<?xml version="1.0" encoding="UTF-8" standalone="no"?>
<!-- Created with Inkscape (http://www.inkscape.org/) -->

<svg
   width="340"
   height="256"
   viewBox="0 0 89.95833 67.733333"
   version="1.1"
   id="svg1"
   xml:space="preserve"
   inkscape:version="1.4 (86a8ad7, 2024-10-11)"
   sodipodi:docname="cells.svg"
   inkscape:export-filename="Cell1.png"
   inkscape:export-xdpi="96"
   inkscape:export-ydpi="96"
   xmlns:inkscape="http://www.inkscape.org/namespaces/inkscape"
   xmlns:sodipodi="http://sodipodi.sourceforge.net/DTD/sodipodi-0.dtd"
   xmlns:xlink="http://www.w3.org/1999/xlink"
   xmlns="http://www.w3.org/2000/svg"
   xmlns:svg="http://www.w3.org/2000/svg"><sodipodi:namedview
     id="namedview1"
     pagecolor="#505050"
     bordercolor="#ffffff"
     borderopacity="1"
     inkscape:showpageshadow="0"
     inkscape:pageopacity="0"
     inkscape:pagecheckerboard="1"
     inkscape:deskcolor="#505050"
     inkscape:document-units="mm"
     inkscape:zoom="2.3482885"
     inkscape:cx="140.52788"
     inkscape:cy="173.95648"
     inkscape:window-width="3440"
     inkscape:window-height="1377"
     inkscape:window-x="-8"
     inkscape:window-y="-8"
     inkscape:window-maximized="1"
     inkscape:current-layer="layer1" /><defs
     id="defs1"><linearGradient
       id="linearGradient2"
       inkscape:collect="always"><stop
         style="stop-color:#11a0ff;stop-opacity:1;"
         offset="0"
         id="stop2" /><stop
         style="stop-color:#25b0ff;stop-opacity:1;"
         offset="0.70473003"
         id="stop4" /><stop
         style="stop-color:#32b7ff;stop-opacity:1;"
         offset="1"
         id="stop3" /></linearGradient><radialGradient
       inkscape:collect="always"
       xlink:href="#linearGradient2"
       id="radialGradient3"
       cx="105.48035"
       cy="163.96051"
       fx="105.48035"
       fy="163.96051"
       r="99.621819"
       gradientTransform="matrix(0.20515734,0,0,0.19158442,-0.50963645,16.401476)"
       gradientUnits="userSpaceOnUse" /><radialGradient
       inkscape:collect="always"
       xlink:href="#linearGradient2"
       id="radialGradient4"
       gradientUnits="userSpaceOnUse"
       gradientTransform="matrix(-0.0446165,-0.24550854,0.22010517,-0.04339887,11.603186,58.784091)"
       cx="105.48035"
       cy="163.96051"
       fx="105.48035"
       fy="163.96051"
       r="99.621819" /><radialGradient
       inkscape:collect="always"
       xlink:href="#linearGradient2"
       id="radialGradient6"
       gradientUnits="userSpaceOnUse"
       gradientTransform="matrix(-0.15630788,-0.13288108,0.12408985,-0.14596679,62.454352,84.350936)"
       cx="105.48035"
       cy="163.96051"
       fx="105.48035"
       fy="163.96051"
       r="99.621819" /></defs><g
     inkscape:label="Layer 1"
     inkscape:groupmode="layer"
     id="layer1"><path
       style="fill:url(#radialGradient6);stroke:#0c94ff;stroke-width:3.07735;stroke-linecap:round;stroke-linejoin:round;stroke-dasharray:none;stroke-opacity:1;opacity:0.65"
       d="m 53.088652,32.885419 c -9.354131,9.83896 -8.567001,17.345099 -1.989328,23.537623 6.577677,6.192526 8.879203,5.403118 14.189421,6.828219 5.310215,1.425103 9.746456,-1.067838 11.614726,-3.770188 1.868273,-2.702351 4.147401,-3.768234 6.673146,-5.225154 2.525744,-1.456916 7.652014,-5.165303 0.521632,-14.745315 C 76.967868,29.930592 62.442784,23.046459 53.088652,32.885419 Z"
       id="path5"
       sodipodi:nodetypes="zzzzzzz" /><path
       id="path6"
       style="fill:#54c0ff;fill-opacity:1;stroke:none;stroke-width:3.07735;stroke-linecap:round;stroke-linejoin:round;stroke-dasharray:none;stroke-opacity:1;opacity:0.65"
       d="m 59.191915,52.208196 c 1.971846,1.686675 4.629439,2.038104 7.070166,2.57299 1.056624,0.23156 2.330912,0.778046 3.306465,0.06696 1.086072,-0.791639 1.707746,-2.046566 2.700483,-2.953459 2.031386,-1.855746 6.202684,-2.035495 6.710577,-4.721393 0.547699,-2.896388 -3.310644,-4.932902 -5.675845,-6.726344 -2.407478,-1.825497 -5.173768,-3.356624 -8.202264,-3.783636 -1.895709,-0.26729 -3.909419,0.252373 -5.329595,1.592974 -1.804968,1.703828 -3.357445,3.684034 -4.52778,5.865816 -0.620499,1.156758 -0.924206,2.628453 -0.192963,3.833774 1.040182,1.714551 2.641716,2.970069 4.140756,4.252316 z"
       sodipodi:nodetypes="sssssssssss" /><path
       style="fill:url(#radialGradient3);stroke:#0c94ff;stroke-width:3.07735;stroke-linecap:round;stroke-linejoin:round;stroke-dasharray:none;stroke-opacity:1;opacity:0.65"
       d="M 39.960411,49.546485 C 40.71453,35.991554 35.253071,30.782507 26.230671,30.324849 17.208268,29.867191 15.966055,31.95934 10.997195,34.313012 6.0283367,36.666681 4.2630833,41.439402 4.5899825,44.708387 4.916881,47.977374 3.8708057,50.265662 2.8901094,53.011611 1.9094135,55.757559 0.40567985,61.903253 12.043271,64.583823 23.680862,67.264393 39.206292,63.10142 39.960411,49.546485 Z"
       id="path1"
       sodipodi:nodetypes="zzzzzzz" /><path
       id="path2"
       style="fill:#54c0ff;fill-opacity:1;stroke:none;stroke-width:3.07735;stroke-linecap:round;stroke-linejoin:round;stroke-dasharray:none;stroke-opacity:1;opacity:0.65"
       d="m 22.794956,38.777707 c -2.594803,-0.0079 -4.847223,1.445685 -7.053243,2.619027 -0.955017,0.507955 -2.279847,0.916952 -2.562544,2.090591 -0.314724,1.306595 0.02445,2.665376 -0.144513,3.999329 -0.345726,2.729615 -3.4073833,5.568329 -2.054679,7.943657 1.458713,2.561485 5.717413,1.614028 8.68106,1.44849 3.016621,-0.168498 6.115953,-0.793679 8.699918,-2.429908 1.617452,-1.024212 2.815096,-2.724425 3.028805,-4.665672 0.271618,-2.467218 0.171853,-4.981467 -0.349623,-7.401779 -0.276483,-1.283225 -0.998313,-2.601211 -2.336132,-3.045909 -1.903028,-0.632574 -3.936427,-0.551824 -5.909049,-0.557826 z"
       sodipodi:nodetypes="sssssssssss" /><path
       style="fill:url(#radialGradient4);stroke:#0c94ff;stroke-width:3.67238;stroke-linecap:round;stroke-linejoin:round;stroke-dasharray:none;stroke-opacity:1"
       d="M 40.881209,2.8460231 C 25.144384,5.0141257 20.347606,12.72975 21.783961,23.630385 c 1.436354,10.900639 4.110108,11.91325 7.894767,17.326236 3.784653,5.412988 9.651774,6.444291 13.336314,5.312587 3.684541,-1.131704 6.540976,-0.398238 9.908986,0.153316 3.368005,0.551554 10.755618,0.958889 11.304358,-13.574851 C 64.777125,18.313934 56.618035,0.67792016 40.881209,2.8460231 Z"
       id="path3"
       sodipodi:nodetypes="zzzzzzz" /><path
       id="path4"
       style="fill:#54c0ff;fill-opacity:1;stroke:none;stroke-width:3.67238;stroke-linecap:round;stroke-linejoin:round;stroke-dasharray:none;stroke-opacity:1"
       d="m 32.242356,25.827059 c 0.555234,3.106947 2.715049,5.47311 4.542817,7.847227 0.791264,1.027788 1.549264,2.520545 2.959095,2.592988 1.569548,0.08064 3.056849,-0.633035 4.626129,-0.733016 3.211152,-0.204604 7.13829,2.81619 9.573051,0.659357 2.625572,-2.32586 0.610912,-7.207557 -0.223788,-10.716608 -0.849622,-3.571772 -2.241896,-7.139075 -4.683654,-9.860616 -1.528437,-1.70357 -3.742215,-2.751626 -6.018927,-2.567629 -2.893576,0.23385 -5.760419,0.922779 -8.427631,2.095087 -1.414127,0.621546 -2.771337,1.783904 -2.991294,3.485588 -0.312886,2.420617 0.222099,4.835661 0.644197,7.197629 z"
       sodipodi:nodetypes="sssssssssss" /></g></svg>
