<?xml version="1.0" encoding="UTF-8" standalone="no"?>
<svg
   viewBox="0 0 259.99998 128"
   version="1.1"
   id="svg8"
   sodipodi:docname="code.svg"
   inkscape:export-filename="discord-logo.png"
   inkscape:export-xdpi="566.18237"
   inkscape:export-ydpi="566.18237"
   inkscape:version="1.4 (86a8ad7, 2024-10-11)"
   width="260"
   height="128"
   xml:space="preserve"
   xmlns:inkscape="http://www.inkscape.org/namespaces/inkscape"
   xmlns:sodipodi="http://sodipodi.sourceforge.net/DTD/sodipodi-0.dtd"
   xmlns="http://www.w3.org/2000/svg"
   xmlns:svg="http://www.w3.org/2000/svg"><defs
     id="defs8" /><sodipodi:namedview
     id="namedview8"
     pagecolor="#505050"
     bordercolor="#ffffff"
     borderopacity="1"
     inkscape:showpageshadow="0"
     inkscape:pageopacity="0"
     inkscape:pagecheckerboard="1"
     inkscape:deskcolor="#505050"
     inkscape:zoom="3.1926395"
     inkscape:cx="219.88076"
     inkscape:cy="55.909851"
     inkscape:window-width="3440"
     inkscape:window-height="1377"
     inkscape:window-x="-8"
     inkscape:window-y="-8"
     inkscape:window-maximized="1"
     inkscape:current-layer="svg8"
     showguides="false" /><rect
     style="fill:#1e4f71;fill-opacity:1;stroke-width:1.76882;stroke-linecap:round;stroke-linejoin:round;paint-order:markers stroke fill"
     id="rect7"
     width="255.27467"
     height="122.4692"
     x="2.3626633"
     y="2.7652743"
     ry="7.3067269" /><path
     id="rect8"
     style="fill:#1d425b;fill-opacity:1;stroke-width:1.76882;stroke-linecap:round;stroke-linejoin:round;paint-order:markers stroke fill"
     d="m 9.67012,2.7646497 c -4.0479267,0 -7.3066406,3.2587139 -7.3066406,7.3066403 v 107.85742 c 0,4.04793 3.2587139,7.30664 7.3066406,7.30664 H 38.382915 V 2.7646497 Z"
     sodipodi:nodetypes="ssssccs" /><path
     style="font-weight:bold;font-size:25.9654px;line-height:1;font-family:'Source Code Pro';-inkscape-font-specification:'Source Code Pro Bold';letter-spacing:0.819007px;word-spacing:0px;fill:#cf6444;fill-opacity:1;stroke-width:0.717628;stroke-linecap:round;stroke-linejoin:round;paint-order:markers stroke fill"
     d="m 58.370195,57.810061 v -9.892817 h -5.19308 v -2.986021 h 9.009994 v 12.878838 z m 1.739682,-14.90414 q -1.090547,0 -1.817579,-0.623169 -0.727031,-0.649135 -0.727031,-1.687751 0,-1.064582 0.727031,-1.713717 0.727032,-0.6751 1.817579,-0.6751 1.116512,0 1.817578,0.6751 0.727031,0.649135 0.727031,1.713717 0,1.038616 -0.727031,1.687751 -0.701066,0.623169 -1.817578,0.623169 z m 12.970825,14.90414 V 44.593672 q 0,-1.480028 0.597204,-2.674436 0.62317,-1.220374 1.869509,-1.92144 1.272305,-0.701065 3.297606,-0.701065 1.116512,0 2.103197,0.233688 0.986685,0.207723 1.791613,0.467377 L 82.0128,42.80206 q -0.62317,-0.233689 -1.29827,-0.363516 -0.649135,-0.129827 -1.402132,-0.129827 -1.220374,0 -1.817578,0.545273 -0.597204,0.545274 -0.597204,1.713717 v 13.242354 z m -3.401468,-9.892817 v -2.830229 l 3.531295,-0.155792 h 8.12717 v 2.986021 z"
     id="text2"
     aria-label=" &#10;if" /><g
     id="text12"
     style="font-weight:bold;font-size:25.9654px;line-height:1;font-family:'Sitka Heading';-inkscape-font-specification:'Sitka Heading Bold';text-align:center;letter-spacing:0.819007px;word-spacing:0px;text-anchor:middle;fill:#5b839d;fill-opacity:1;stroke-width:0.717628;stroke-linecap:round;stroke-linejoin:round;paint-order:markers stroke fill"
     aria-label="1&#10;2&#10;3&#10;4"
     transform="translate(-0.14310046,-0.0537097)"><path
       style="font-family:'Source Code Pro';-inkscape-font-specification:'Source Code Pro Bold';text-align:start;text-anchor:start;fill:#5b839d;fill-opacity:1"
       d="m 15.133286,31.225157 v -3.089883 h 4.440083 v -9.529302 h -3.661121 v -2.362851 q 1.116512,-0.181758 1.921439,-0.363516 0.830893,-0.207723 1.480028,-0.467377 0.649135,-0.28562 1.272305,-0.675101 h 2.804263 v 13.398147 h 3.739018 v 3.089883 z"
       id="path12" /><path
       style="font-family:'Source Code Pro';-inkscape-font-specification:'Source Code Pro Bold';text-align:start;text-anchor:start;fill:#5b839d;fill-opacity:1"
       d="m 14.588012,57.863771 v -2.181093 q 2.362852,-1.999336 4.128499,-3.609191 1.791612,-1.63582 2.778298,-2.986021 0.986685,-1.376166 0.986685,-2.544609 0,-1.220374 -0.727031,-1.843544 -0.701066,-0.649135 -1.973371,-0.649135 -0.986685,0 -1.817578,0.519308 -0.804927,0.493343 -1.505993,1.168443 l -2.051267,-2.051267 q 1.272305,-1.324235 2.622506,-1.97337 1.376166,-0.649135 3.27164,-0.649135 1.713717,0 3.011987,0.649135 1.324235,0.649135 2.051266,1.843543 0.752997,1.168444 0.752997,2.752333 0,1.402132 -0.856858,2.830229 -0.830893,1.428097 -2.233025,2.882159 -1.376166,1.428097 -2.960055,2.830229 0.701065,-0.0779 1.531958,-0.129827 0.830893,-0.0779 1.454063,-0.0779 h 3.920775 v 3.219709 z"
       id="path13" /><path
       style="font-family:'Source Code Pro';-inkscape-font-specification:'Source Code Pro Bold';text-align:start;text-anchor:start;fill:#5b839d;fill-opacity:1"
       d="m 20.326366,84.813971 q -1.402132,0 -2.570575,-0.311585 -1.142478,-0.28562 -2.051267,-0.804928 -0.908789,-0.519308 -1.531958,-1.220374 l 1.765647,-2.414782 q 0.830893,0.727031 1.869509,1.194409 1.038616,0.467377 2.155128,0.467377 0.882824,0 1.583889,-0.207723 0.701066,-0.233689 1.090547,-0.675101 0.415447,-0.441412 0.415447,-1.064581 0,-0.727031 -0.441412,-1.246339 -0.441412,-0.545274 -1.531959,-0.830893 -1.064581,-0.28562 -3.011986,-0.28562 V 74.71343 q 1.63582,0 2.59654,-0.28562 0.96072,-0.285619 1.402131,-0.778962 0.441412,-0.493342 0.441412,-1.142477 0,-0.882824 -0.649135,-1.350201 -0.649135,-0.467377 -1.791612,-0.467377 -0.96072,0 -1.817578,0.389481 -0.830893,0.363515 -1.687751,1.064581 l -1.92144,-2.336886 q 1.220374,-0.986685 2.622505,-1.531959 1.402132,-0.571239 2.986021,-0.571239 1.791613,0 3.167779,0.545274 1.376167,0.519308 2.129163,1.531959 0.778962,0.986685 0.778962,2.440747 0,1.272305 -0.830893,2.181094 -0.830892,0.908789 -2.31092,1.480028 v 0.103861 q 1.038616,0.28562 1.869509,0.830893 0.856858,0.519308 1.324235,1.324236 0.493343,0.804927 0.493343,1.869508 0,1.531959 -0.908789,2.622506 -0.908789,1.064581 -2.388817,1.63582 -1.480028,0.545274 -3.245675,0.545274 z"
       id="path14" /><path
       style="font-family:'Source Code Pro';-inkscape-font-specification:'Source Code Pro Bold';text-align:start;text-anchor:start;fill:#5b839d;fill-opacity:1"
       d="m 21.93622,111.141 v -9.63316 q 0,-0.77897 0.05193,-1.791616 0.05193,-1.038616 0.0779,-1.817578 h -0.103861 q -0.415447,0.6751 -0.908789,1.376166 -0.467377,0.701066 -0.882824,1.428098 l -2.492678,3.58322 h 9.892817 v 2.90813 H 13.990808 v -2.62251 l 6.880831,-9.918779 H 25.49348 V 111.141 Z"
       id="path15" /></g><g
     id="text18"
     style="font-weight:bold;font-size:25.9654px;line-height:1;font-family:'Sitka Heading';-inkscape-font-specification:'Sitka Heading Bold';text-align:center;letter-spacing:0.819007px;word-spacing:0px;text-anchor:middle;fill:#7195ac;fill-opacity:1;stroke-width:0.717628;stroke-linecap:round;stroke-linejoin:round;paint-order:markers stroke fill"
     aria-label="     (    )&#10;   (    )&#10;      (    )"
     transform="translate(0.17012,-0.0537097)"><path
       style="font-family:'Source Code Pro';-inkscape-font-specification:'Source Code Pro Bold';text-align:start;text-anchor:start;fill:#7195ac;fill-opacity:1"
       d="m 143.15142,35.872964 q -2.51865,-2.25899 -3.99867,-5.219046 -1.48003,-2.986021 -1.48003,-6.647143 0,-3.661121 1.48003,-6.647142 1.48002,-2.986021 3.99867,-5.219046 l 2.12916,1.687751 q -2.33689,2.25899 -3.3755,4.673772 -1.03862,2.414783 -1.03862,5.504665 0,3.063918 1.03862,5.504665 1.03861,2.414783 3.3755,4.673772 z m 77.21365,0 -2.12916,-1.687752 q 2.33688,-2.258989 3.3755,-4.673772 1.03862,-2.440747 1.03862,-5.504665 0,-3.089882 -1.03862,-5.504665 -1.03862,-2.414782 -3.3755,-4.673772 l 2.12916,-1.687751 q 2.51864,2.233025 3.99867,5.219046 1.48003,2.986021 1.48003,6.647142 0,3.661122 -1.48003,6.647143 -1.48003,2.960056 -3.99867,5.219046 z"
       id="path19" /><path
       style="font-family:'Source Code Pro';-inkscape-font-specification:'Source Code Pro Bold';text-align:start;text-anchor:start;fill:#7195ac;fill-opacity:1"
       d="m 110.3549,62.511578 q -2.51864,-2.25899 -3.99867,-5.219046 -1.48003,-2.986021 -1.48003,-6.647142 0,-3.661122 1.48003,-6.647143 1.48003,-2.986021 3.99867,-5.219045 l 2.12916,1.687751 q -2.33688,2.25899 -3.3755,4.673772 -1.03861,2.414782 -1.03861,5.504665 0,3.063917 1.03861,5.504665 1.03862,2.414782 3.3755,4.673772 z m 77.21366,0 -2.12916,-1.687751 q 2.33689,-2.25899 3.3755,-4.673772 1.03862,-2.440748 1.03862,-5.504665 0,-3.089883 -1.03862,-5.504665 -1.03861,-2.414782 -3.3755,-4.673772 l 2.12916,-1.687751 q 2.51865,2.233024 3.99867,5.219045 1.48003,2.986021 1.48003,6.647143 0,3.661121 -1.48003,6.647142 -1.48002,2.960056 -3.99867,5.219046 z"
       id="path20" /><path
       style="font-family:'Source Code Pro';-inkscape-font-specification:'Source Code Pro Bold';text-align:start;text-anchor:start;fill:#7195ac;fill-opacity:1"
       d="m 159.54967,89.150192 q -2.51864,-2.258989 -3.99867,-5.219045 -1.48003,-2.986021 -1.48003,-6.647143 0,-3.661121 1.48003,-6.647142 1.48003,-2.986021 3.99867,-5.219046 l 2.12916,1.687751 q -2.33688,2.25899 -3.3755,4.673772 -1.03861,2.414783 -1.03861,5.504665 0,3.063918 1.03861,5.504665 1.03862,2.414783 3.3755,4.673772 z m 77.21366,0 -2.12917,-1.687751 q 2.33689,-2.258989 3.3755,-4.673772 1.03862,-2.440747 1.03862,-5.504665 0,-3.089882 -1.03862,-5.504665 -1.03861,-2.414782 -3.3755,-4.673772 l 2.12917,-1.687751 q 2.51864,2.233025 3.99867,5.219046 1.48003,2.986021 1.48003,6.647142 0,3.661122 -1.48003,6.647143 -1.48003,2.960056 -3.99867,5.219045 z"
       id="path21" /></g><g
     id="text24"
     style="font-weight:bold;font-size:25.9654px;line-height:1;font-family:'Sitka Heading';-inkscape-font-specification:'Sitka Heading Bold';text-align:center;letter-spacing:0.819007px;word-spacing:0px;text-anchor:middle;fill:#4aa3fa;fill-opacity:1;stroke-width:0.717628;stroke-linecap:round;stroke-linejoin:round;paint-order:markers stroke fill"
     aria-label="write&#10;&#10;  read"
     transform="translate(0.17012,-0.0537097)"><path
       style="font-family:'Source Code Pro';-inkscape-font-specification:'Source Code Pro Bold';text-align:start;text-anchor:start;fill:#4aa3fa;fill-opacity:1"
       d="M 53.188752,31.225157 51.085555,18.346318 h 3.687087 l 0.804927,5.972042 q 0.129827,0.934755 0.207723,1.895474 0.103862,0.934755 0.207724,1.92144 h 0.0779 q 0.129827,-0.986685 0.259654,-1.947405 0.155792,-0.96072 0.33755,-1.869509 l 0.804927,-4.258326 h 2.778298 l 0.830893,4.258326 q 0.181758,0.934755 0.33755,1.895474 0.181758,0.934755 0.311585,1.92144 h 0.103862 q 0.129827,-0.986685 0.181758,-1.92144 0.0779,-0.960719 0.181757,-1.895474 l 0.727032,-5.972042 h 3.531294 l -1.97337,12.878839 h -4.492015 l -0.701066,-4.18043 Q 59.18676,26.187869 59.056933,25.253115 58.953071,24.31836 58.823244,23.227813 h -0.103861 q -0.0779,0.804928 -0.181758,1.713717 -0.103862,0.882823 -0.259654,2.103197 l -0.675101,4.18043 z m 17.203186,0 V 18.346318 h 3.115848 l 0.311585,2.804263 h 0.0779 q 0.96072,-1.583889 2.310921,-2.336886 1.376166,-0.778962 2.908125,-0.778962 0.856858,0 1.376166,0.129827 0.545273,0.129827 1.116512,0.389481 l -0.778962,3.193745 q -0.597204,-0.181758 -1.090547,-0.259654 -0.467377,-0.103862 -1.194408,-0.103862 -1.194409,0 -2.362852,0.701066 -1.142477,0.701066 -1.97337,2.440747 v 6.699074 z m 20.604653,0 v -9.892818 h -5.19308 v -2.986021 h 9.009994 v 12.878839 z m 1.739682,-14.90414 q -1.090547,0 -1.817578,-0.62317 -0.727031,-0.649135 -0.727031,-1.687751 0,-1.064581 0.727031,-1.713716 0.727031,-0.675101 1.817578,-0.675101 1.116512,0 1.817578,0.675101 0.727031,0.649135 0.727031,1.713716 0,1.038616 -0.727031,1.687751 -0.701066,0.62317 -1.817578,0.62317 z m 17.514767,15.215725 q -2.05127,0 -3.27164,-0.701066 -1.19441,-0.727031 -1.73968,-1.999336 -0.54528,-1.272305 -0.54528,-2.960056 v -4.543945 h -3.21971 V 18.50211 l 3.40147,-0.155792 0.49334,-3.946741 h 3.14182 v 3.946741 h 5.45273 v 2.986021 h -5.45273 v 4.51798 q 0,0.96072 0.28562,1.557924 0.28562,0.597204 0.88282,0.882824 0.5972,0.259654 1.53196,0.259654 0.753,0 1.37617,-0.129827 0.62317,-0.129827 1.1944,-0.337551 l 0.6751,2.752333 q -0.85685,0.259654 -1.89547,0.467377 -1.01265,0.233689 -2.31092,0.233689 z m 14.89227,0 q -1.99934,0 -3.63516,-0.778962 -1.60985,-0.804928 -2.57057,-2.310921 -0.93476,-1.531959 -0.93476,-3.661122 0,-2.103197 0.96072,-3.60919 0.96072,-1.531959 2.49268,-2.336886 1.53196,-0.804928 3.24568,-0.804928 1.99933,0 3.34953,0.830893 1.3502,0.804927 2.0253,2.207059 0.70107,1.376166 0.70107,3.141814 0,0.519308 -0.0779,1.01265 -0.0519,0.467377 -0.10386,0.701066 h -9.76299 V 23.35764 h 7.19242 l -0.59721,0.727032 q 0,-1.557924 -0.6751,-2.336886 -0.64913,-0.804928 -1.92144,-0.804928 -0.93475,0 -1.63582,0.415447 -0.70106,0.415446 -1.09054,1.272304 -0.38948,0.856858 -0.38948,2.155128 0,1.324236 0.46737,2.181094 0.46738,0.830893 1.3502,1.246339 0.88283,0.415447 2.12917,0.415447 0.88282,0 1.66178,-0.233689 0.80493,-0.233688 1.66179,-0.6751 l 1.2723,2.31092 q -1.11651,0.701066 -2.46671,1.116513 -1.3502,0.389481 -2.64847,0.389481 z"
       id="path25" /><path
       style="font-family:'Source Code Pro';-inkscape-font-specification:'Source Code Pro Bold';text-align:start;text-anchor:start;fill:#4aa3fa;fill-opacity:1"
       d="M 86.790196,84.502386 V 71.623547 h 3.115848 l 0.311585,2.804263 h 0.0779 q 0.96072,-1.583889 2.310921,-2.336886 1.376166,-0.778962 2.908125,-0.778962 0.856858,0 1.376166,0.129827 0.545273,0.129827 1.116512,0.389481 l -0.778962,3.193744 q -0.597204,-0.181757 -1.090547,-0.259654 -0.467377,-0.103861 -1.194408,-0.103861 -1.194408,0 -2.362851,0.701066 -1.142478,0.701066 -1.973371,2.440747 v 6.699074 z m 21.954854,0.311585 q -1.99934,0 -3.63516,-0.778962 -1.60985,-0.804928 -2.57057,-2.310921 -0.93476,-1.531959 -0.93476,-3.661122 0,-2.103197 0.96072,-3.60919 0.96072,-1.531959 2.49268,-2.336886 1.53196,-0.804928 3.24567,-0.804928 1.99934,0 3.34954,0.830893 1.3502,0.804927 2.0253,2.207059 0.70107,1.376166 0.70107,3.141814 0,0.519308 -0.0779,1.01265 -0.0519,0.467377 -0.10386,0.701066 h -9.76299 v -2.570575 h 7.19242 L 111.03,77.361901 q 0,-1.557925 -0.6751,-2.336887 -0.64913,-0.804927 -1.92144,-0.804927 -0.93475,0 -1.63582,0.415446 -0.70106,0.415447 -1.09055,1.272305 -0.38948,0.856858 -0.38948,2.155128 0,1.324236 0.46738,2.181094 0.46738,0.830893 1.3502,1.246339 0.88283,0.415447 2.12916,0.415447 0.88283,0 1.66179,-0.233689 0.80493,-0.233689 1.66179,-0.6751 l 1.2723,2.31092 q -1.11651,0.701066 -2.46671,1.116513 -1.3502,0.389481 -2.64847,0.389481 z m 13.64593,0 q -1.29827,0 -2.25899,-0.519308 -0.93476,-0.519308 -1.45407,-1.402132 -0.5193,-0.882824 -0.5193,-1.973371 0,-2.155128 1.9474,-3.297605 1.97337,-1.142478 6.54328,-1.402132 -0.0779,-0.597204 -0.38948,-1.012651 -0.31158,-0.415446 -0.90879,-0.623169 -0.57124,-0.233689 -1.45406,-0.233689 -0.62317,0 -1.24634,0.155792 -0.62317,0.129827 -1.29827,0.415447 -0.64914,0.259654 -1.37617,0.623169 l -1.3502,-2.492678 q 0.88283,-0.519308 1.84355,-0.908789 0.98668,-0.389481 2.0253,-0.597204 1.06458,-0.233689 2.15513,-0.233689 1.81757,0 3.11584,0.649135 1.29827,0.62317 1.99934,1.92144 0.70107,1.272304 0.70107,3.245675 v 7.374174 h -3.11585 l -0.28562,-1.454063 h -0.10386 q -0.96072,0.727032 -2.12917,1.24634 -1.16844,0.519308 -2.44074,0.519308 z m 1.22037,-2.960056 q 0.85686,0 1.60985,-0.33755 0.753,-0.363516 1.4281,-0.882824 v -2.129163 q -1.89547,0.103862 -2.96005,0.389481 -1.03862,0.28562 -1.45407,0.727031 -0.41544,0.441412 -0.41544,1.012651 0,0.389481 0.20772,0.6751 0.23369,0.28562 0.62317,0.415447 0.41545,0.129827 0.96072,0.129827 z m 16.00877,2.960056 q -2.44074,0 -3.94674,-1.791613 -1.48003,-1.817578 -1.48003,-4.959392 0,-2.103197 0.77897,-3.60919 0.80492,-1.505994 2.07723,-2.310921 1.2723,-0.830893 2.64847,-0.830893 1.06458,0 1.84354,0.363516 0.77896,0.363515 1.40213,1.01265 h 0.10387 L 142.8658,70.688793 V 66.30064 h 3.81691 v 18.201746 h -3.11585 l -0.28562,-1.324236 h -0.0779 q -0.70107,0.701066 -1.66179,1.168443 -0.93475,0.467378 -1.92144,0.467378 z m 0.98669,-3.115849 q 0.64913,0 1.19441,-0.259654 0.57124,-0.285619 1.06458,-0.934754 v -5.219046 q -0.51931,-0.467377 -1.06458,-0.649135 -0.51931,-0.207723 -1.09055,-0.207723 -0.70107,0 -1.29827,0.389481 -0.5972,0.389481 -0.96072,1.194409 -0.33755,0.778962 -0.33755,1.999336 0,1.895474 0.64913,2.804263 0.64914,0.882823 1.84355,0.882823 z"
       id="path26" /></g><g
     id="text29"
     style="font-weight:bold;font-size:25.9654px;line-height:1;font-family:'Sitka Heading';-inkscape-font-specification:'Sitka Heading Bold';text-align:center;letter-spacing:0.819007px;word-spacing:0px;text-anchor:middle;fill:#f2f9ff;fill-opacity:1;stroke-width:0.717628;stroke-linecap:round;stroke-linejoin:round;paint-order:markers stroke fill"
     aria-label="      code&#10;    code&#10;       code&#10;"
     transform="translate(0.17012,-0.0537097)"><path
       style="font-family:'Source Code Pro';-inkscape-font-specification:'Source Code Pro Bold';text-align:start;text-anchor:start;fill:#f2f9ff;fill-opacity:1"
       d="m 158.27737,31.536742 q -2.0253,0 -3.66112,-0.778962 -1.60986,-0.804928 -2.57058,-2.310921 -0.93475,-1.531959 -0.93475,-3.661122 0,-2.129162 1.03861,-3.635156 1.03862,-1.531958 2.72637,-2.31092 1.71372,-0.804928 3.68709,-0.804928 1.53196,0 2.77829,0.493343 1.24634,0.467377 2.05127,1.246339 l -1.76565,2.362852 q -0.75299,-0.519308 -1.45406,-0.752997 -0.6751,-0.259654 -1.40213,-0.259654 -1.09055,0 -1.94741,0.441412 -0.85685,0.441412 -1.32423,1.272304 -0.46738,0.830893 -0.46738,1.947405 0,1.116513 0.44141,1.947405 0.46738,0.830893 1.27231,1.272305 0.83089,0.441412 1.89547,0.441412 1.01265,0 1.84355,-0.363516 0.85685,-0.363515 1.55792,-0.856858 l 1.53196,2.414782 q -1.14248,0.96072 -2.57058,1.428097 -1.40213,0.467378 -2.72636,0.467378 z m 15.28175,0 q -1.68775,0 -3.19375,-0.778962 -1.50599,-0.804928 -2.44074,-2.310921 -0.93476,-1.531959 -0.93476,-3.661122 0,-2.129162 0.93476,-3.635156 0.93475,-1.531958 2.44074,-2.31092 1.506,-0.804928 3.19375,-0.804928 1.68775,0 3.19374,0.804928 1.50599,0.778962 2.44075,2.31092 0.93475,1.505994 0.93475,3.635156 0,2.129163 -0.93475,3.661122 -0.93476,1.505993 -2.44075,2.310921 -1.50599,0.778962 -3.19374,0.778962 z m 0,-3.089883 q 0.88282,0 1.45406,-0.441412 0.5972,-0.441412 0.88282,-1.272305 0.31159,-0.830892 0.31159,-1.947405 0,-1.116512 -0.31159,-1.947405 -0.28562,-0.830892 -0.88282,-1.272304 -0.57124,-0.441412 -1.45406,-0.441412 -0.88283,0 -1.48003,0.441412 -0.57124,0.441412 -0.88282,1.272304 -0.28562,0.830893 -0.28562,1.947405 0,1.116513 0.28562,1.947405 0.31158,0.830893 0.88282,1.272305 0.5972,0.441412 1.48003,0.441412 z m 15.25578,3.089883 q -2.44075,0 -3.94674,-1.791613 -1.48003,-1.817578 -1.48003,-4.959392 0,-2.103197 0.77896,-3.60919 0.80493,-1.505994 2.07724,-2.310921 1.2723,-0.830893 2.64847,-0.830893 1.06458,0 1.84354,0.363516 0.77896,0.363515 1.40213,1.01265 h 0.10386 l -0.18175,-1.999335 v -4.388153 h 3.81691 v 18.201746 h -3.11585 l -0.28562,-1.324236 h -0.0779 q -0.70107,0.701066 -1.66179,1.168443 -0.93475,0.467378 -1.92144,0.467378 z m 0.98669,-3.115848 q 0.64913,0 1.19441,-0.259654 0.57123,-0.28562 1.06458,-0.934755 V 22.00744 q -0.51931,-0.467378 -1.06458,-0.649135 -0.51931,-0.207724 -1.09055,-0.207724 -0.70107,0 -1.29827,0.389481 -0.59721,0.389481 -0.96072,1.194409 -0.33755,0.778962 -0.33755,1.999336 0,1.895474 0.64913,2.804263 0.64914,0.882824 1.84355,0.882824 z m 17.33301,3.115848 q -1.99934,0 -3.63516,-0.778962 -1.60986,-0.804928 -2.57058,-2.310921 -0.93475,-1.531959 -0.93475,-3.661122 0,-2.103197 0.96072,-3.60919 0.96072,-1.531959 2.49268,-2.336886 1.53196,-0.804928 3.24567,-0.804928 1.99934,0 3.34954,0.830893 1.3502,0.804927 2.0253,2.207059 0.70107,1.376166 0.70107,3.141814 0,0.519308 -0.0779,1.01265 -0.0519,0.467377 -0.10386,0.701066 h -9.76299 V 23.35764 h 7.19242 l -0.59721,0.727032 q 0,-1.557924 -0.6751,-2.336886 -0.64913,-0.804928 -1.92144,-0.804928 -0.93475,0 -1.63582,0.415447 -0.70107,0.415446 -1.09055,1.272304 -0.38948,0.856858 -0.38948,2.155128 0,1.324236 0.46738,2.181094 0.46738,0.830893 1.3502,1.246339 0.88282,0.415447 2.12916,0.415447 0.88283,0 1.66179,-0.233689 0.80493,-0.233688 1.66178,-0.6751 l 1.27231,2.31092 q -1.11651,0.701066 -2.46671,1.116513 -1.3502,0.389481 -2.64847,0.389481 z"
       id="path30" /><path
       style="font-family:'Source Code Pro';-inkscape-font-specification:'Source Code Pro Bold';text-align:start;text-anchor:start;fill:#f2f9ff;fill-opacity:1"
       d="m 125.48086,58.175356 q -2.0253,0 -3.66112,-0.778962 -1.60986,-0.804927 -2.57058,-2.310921 -0.93475,-1.531958 -0.93475,-3.661121 0,-2.129163 1.03861,-3.635156 1.03862,-1.531959 2.72637,-2.310921 1.71372,-0.804927 3.68709,-0.804927 1.53196,0 2.7783,0.493342 1.24634,0.467378 2.05126,1.24634 l -1.76564,2.362851 q -0.753,-0.519308 -1.45407,-0.752997 -0.6751,-0.259654 -1.40213,-0.259654 -1.09055,0 -1.9474,0.441412 -0.85686,0.441412 -1.32424,1.272305 -0.46738,0.830893 -0.46738,1.947405 0,1.116512 0.44142,1.947405 0.46737,0.830893 1.2723,1.272305 0.83089,0.441411 1.89547,0.441411 1.01265,0 1.84355,-0.363515 0.85686,-0.363516 1.55792,-0.856858 l 1.53196,2.414782 q -1.14248,0.96072 -2.57057,1.428097 -1.40214,0.467377 -2.72637,0.467377 z m 15.28174,0 q -1.68775,0 -3.19374,-0.778962 -1.506,-0.804927 -2.44075,-2.310921 -0.93476,-1.531958 -0.93476,-3.661121 0,-2.129163 0.93476,-3.635156 0.93475,-1.531959 2.44075,-2.310921 1.50599,-0.804927 3.19374,-0.804927 1.68775,0 3.19374,0.804927 1.506,0.778962 2.44075,2.310921 0.93476,1.505993 0.93476,3.635156 0,2.129163 -0.93476,3.661121 -0.93475,1.505994 -2.44075,2.310921 -1.50599,0.778962 -3.19374,0.778962 z m 0,-3.089883 q 0.88282,0 1.45406,-0.441411 0.59721,-0.441412 0.88283,-1.272305 0.31158,-0.830893 0.31158,-1.947405 0,-1.116512 -0.31158,-1.947405 -0.28562,-0.830893 -0.88283,-1.272305 -0.57124,-0.441412 -1.45406,-0.441412 -0.88282,0 -1.48003,0.441412 -0.57124,0.441412 -0.88282,1.272305 -0.28562,0.830893 -0.28562,1.947405 0,1.116512 0.28562,1.947405 0.31158,0.830893 0.88282,1.272305 0.59721,0.441411 1.48003,0.441411 z m 15.25578,3.089883 q -2.44075,0 -3.94674,-1.791613 -1.48003,-1.817578 -1.48003,-4.959391 0,-2.103198 0.77896,-3.609191 0.80493,-1.505993 2.07723,-2.31092 1.27231,-0.830893 2.64847,-0.830893 1.06459,0 1.84355,0.363515 0.77896,0.363516 1.40213,1.012651 h 0.10386 l -0.18176,-1.999336 v -4.388153 h 3.81692 v 18.201746 h -3.11585 l -0.28562,-1.324235 h -0.0779 q -0.70106,0.701066 -1.66178,1.168443 -0.93476,0.467377 -1.92144,0.467377 z m 0.98668,-3.115848 q 0.64914,0 1.19441,-0.259654 0.57124,-0.285619 1.06458,-0.934754 v -5.219046 q -0.51931,-0.467377 -1.06458,-0.649135 -0.51931,-0.207723 -1.09055,-0.207723 -0.70106,0 -1.29827,0.389481 -0.5972,0.389481 -0.96072,1.194408 -0.33755,0.778962 -0.33755,1.999336 0,1.895474 0.64914,2.804263 0.64913,0.882824 1.84354,0.882824 z m 17.33302,3.115848 q -1.99934,0 -3.63516,-0.778962 -1.60985,-0.804927 -2.57057,-2.310921 -0.93476,-1.531958 -0.93476,-3.661121 0,-2.103198 0.96072,-3.609191 0.96072,-1.531958 2.49268,-2.336886 1.53196,-0.804927 3.24568,-0.804927 1.99933,0 3.34953,0.830893 1.3502,0.804927 2.02531,2.207059 0.70106,1.376166 0.70106,3.141813 0,0.519308 -0.0779,1.012651 -0.0519,0.467377 -0.10386,0.701066 h -9.76299 v -2.570575 h 7.19242 l -0.59721,0.727031 q 0,-1.557924 -0.6751,-2.336886 -0.64913,-0.804927 -1.92144,-0.804927 -0.93475,0 -1.63582,0.415446 -0.70106,0.415446 -1.09054,1.272305 -0.38948,0.856858 -0.38948,2.155128 0,1.324235 0.46737,2.181094 0.46738,0.830892 1.3502,1.246339 0.88283,0.415446 2.12917,0.415446 0.88282,0 1.66178,-0.233688 0.80493,-0.233689 1.66179,-0.675101 l 1.2723,2.310921 q -1.11651,0.701066 -2.46671,1.116512 -1.3502,0.389481 -2.64847,0.389481 z"
       id="path31" /><path
       style="font-family:'Source Code Pro';-inkscape-font-specification:'Source Code Pro Bold';text-align:start;text-anchor:start;fill:#f2f9ff;fill-opacity:1"
       d="m 174.67563,84.813971 q -2.0253,0 -3.66112,-0.778962 -1.60986,-0.804928 -2.57058,-2.310921 -0.93475,-1.531959 -0.93475,-3.661122 0,-2.129162 1.03861,-3.635156 1.03862,-1.531958 2.72637,-2.31092 1.71372,-0.804928 3.68709,-0.804928 1.53196,0 2.7783,0.493343 1.24634,0.467377 2.05126,1.246339 l -1.76564,2.362851 q -0.753,-0.519308 -1.45407,-0.752996 -0.6751,-0.259654 -1.40213,-0.259654 -1.09054,0 -1.9474,0.441412 -0.85686,0.441411 -1.32424,1.272304 -0.46738,0.830893 -0.46738,1.947405 0,1.116513 0.44142,1.947405 0.46737,0.830893 1.2723,1.272305 0.83089,0.441412 1.89547,0.441412 1.01266,0 1.84355,-0.363516 0.85686,-0.363515 1.55792,-0.856858 l 1.53196,2.414782 q -1.14248,0.96072 -2.57057,1.428097 -1.40214,0.467378 -2.72637,0.467378 z m 15.28175,0 q -1.68775,0 -3.19375,-0.778962 -1.50599,-0.804928 -2.44074,-2.310921 -0.93476,-1.531959 -0.93476,-3.661122 0,-2.129162 0.93476,-3.635156 0.93475,-1.531958 2.44074,-2.31092 1.506,-0.804928 3.19375,-0.804928 1.68775,0 3.19374,0.804928 1.506,0.778962 2.44075,2.31092 0.93476,1.505994 0.93476,3.635156 0,2.129163 -0.93476,3.661122 -0.93475,1.505993 -2.44075,2.310921 -1.50599,0.778962 -3.19374,0.778962 z m 0,-3.089883 q 0.88282,0 1.45406,-0.441412 0.59721,-0.441412 0.88283,-1.272305 0.31158,-0.830892 0.31158,-1.947405 0,-1.116512 -0.31158,-1.947405 -0.28562,-0.830893 -0.88283,-1.272304 -0.57124,-0.441412 -1.45406,-0.441412 -0.88282,0 -1.48003,0.441412 -0.57124,0.441411 -0.88282,1.272304 -0.28562,0.830893 -0.28562,1.947405 0,1.116513 0.28562,1.947405 0.31158,0.830893 0.88282,1.272305 0.59721,0.441412 1.48003,0.441412 z m 15.25578,3.089883 q -2.44075,0 -3.94674,-1.791613 -1.48003,-1.817578 -1.48003,-4.959392 0,-2.103197 0.77896,-3.60919 0.80493,-1.505994 2.07723,-2.310921 1.27231,-0.830893 2.64847,-0.830893 1.06458,0 1.84355,0.363516 0.77896,0.363515 1.40213,1.01265 h 0.10386 l -0.18176,-1.999335 V 66.30064 h 3.81691 v 18.201746 h -3.11584 l -0.28562,-1.324236 h -0.0779 q -0.70106,0.701066 -1.66178,1.168443 -0.93476,0.467378 -1.92144,0.467378 z m 0.98668,-3.115849 q 0.64914,0 1.19441,-0.259654 0.57124,-0.285619 1.06458,-0.934754 v -5.219046 q -0.51931,-0.467377 -1.06458,-0.649135 -0.51931,-0.207723 -1.09055,-0.207723 -0.70106,0 -1.29827,0.389481 -0.5972,0.389481 -0.96072,1.194409 -0.33755,0.778962 -0.33755,1.999336 0,1.895474 0.64914,2.804263 0.64913,0.882823 1.84354,0.882823 z m 17.33301,3.115849 q -1.99934,0 -3.63516,-0.778962 -1.60985,-0.804928 -2.57057,-2.310921 -0.93476,-1.531959 -0.93476,-3.661122 0,-2.103197 0.96072,-3.60919 0.96072,-1.531959 2.49268,-2.336886 1.53196,-0.804928 3.24568,-0.804928 1.99933,0 3.34953,0.830893 1.35021,0.804927 2.02531,2.207059 0.70106,1.376166 0.70106,3.141814 0,0.519308 -0.0779,1.01265 -0.0519,0.467377 -0.10387,0.701066 h -9.76299 v -2.570575 h 7.19242 l -0.5972,0.727032 q 0,-1.557925 -0.67511,-2.336887 -0.64913,-0.804927 -1.92143,-0.804927 -0.93476,0 -1.63583,0.415446 -0.70106,0.415447 -1.09054,1.272305 -0.38948,0.856858 -0.38948,2.155128 0,1.324236 0.46737,2.181094 0.46738,0.830893 1.35021,1.246339 0.88282,0.415447 2.12916,0.415447 0.88282,0 1.66178,-0.233689 0.80493,-0.233689 1.66179,-0.6751 l 1.2723,2.31092 q -1.11651,0.701066 -2.46671,1.116513 -1.3502,0.389481 -2.64847,0.389481 z"
       id="path32" /></g><g
     id="text35"
     style="font-weight:bold;font-size:25.9654px;line-height:1;font-family:'Sitka Heading';-inkscape-font-specification:'Sitka Heading Bold';text-align:center;letter-spacing:0.819007px;word-spacing:0px;text-anchor:middle;fill:#dbb343;fill-opacity:1;stroke-width:0.717628;stroke-linecap:round;stroke-linejoin:round;paint-order:markers stroke fill"
     aria-label="&#10;          {&#10; &#10;}"
     transform="translate(0.17012,-0.0537097)"><path
       style="font-family:'Source Code Pro';-inkscape-font-specification:'Source Code Pro Bold';text-align:start;text-anchor:start;fill:#dbb343;fill-opacity:1"
       d="m 225.84377,61.810512 q -2.49268,0 -3.66112,-0.804927 -1.16844,-0.804928 -1.16844,-2.88216 0,-0.934754 0.0519,-1.609855 0.0779,-0.701065 0.12982,-1.3502 0.0779,-0.649135 0.0779,-1.480028 0,-0.467377 -0.31158,-0.882824 -0.31159,-0.441412 -1.09055,-0.727031 -0.753,-0.28562 -2.15513,-0.311585 v -2.233024 q 1.40213,-0.02597 2.15513,-0.311585 0.77896,-0.28562 1.09055,-0.701066 0.31158,-0.441412 0.31158,-0.908789 0,-0.804927 -0.0779,-1.454062 -0.0519,-0.675101 -0.12982,-1.376167 -0.0519,-0.701066 -0.0519,-1.609855 0,-2.103197 1.16844,-2.882159 1.16844,-0.804927 3.66112,-0.804927 h 1.99934 v 2.025301 h -1.06458 q -1.06459,0 -1.63583,0.155792 -0.57123,0.155793 -0.80492,0.545274 -0.20773,0.389481 -0.20773,1.116512 0,1.038616 0.0519,2.051267 0.0779,1.01265 0.0779,2.181093 0,1.480028 -0.5972,2.155128 -0.59721,0.649135 -1.99934,0.882824 v 0.103862 q 1.40213,0.233688 1.99934,0.908789 0.5972,0.649135 0.5972,2.129163 0,1.168443 -0.0779,2.181093 -0.0519,1.012651 -0.0519,2.051267 0,0.727031 0.20773,1.116512 0.23369,0.389481 0.80492,0.545274 0.57124,0.155792 1.63583,0.155792 h 1.06458 v 2.025301 z"
       id="path35" /><path
       style="font-family:'Source Code Pro';-inkscape-font-specification:'Source Code Pro Bold';text-align:start;text-anchor:start;fill:#dbb343;fill-opacity:1"
       d="m 53.70806,115.08774 v -2.0253 h 1.064582 q 1.064581,0 1.63582,-0.15579 0.571239,-0.15579 0.778962,-0.54528 0.207723,-0.38948 0.207723,-1.11651 0,-1.03861 -0.05193,-2.05126 -0.05193,-1.01266 -0.05193,-2.1811 0,-1.48003 0.597204,-2.12916 0.597204,-0.6751 1.999336,-0.90879 v -0.10386 q -1.402132,-0.23369 -1.999336,-0.88283 -0.597204,-0.6751 -0.597204,-2.15512 0,-1.168447 0.05193,-2.181098 0.05193,-1.01265 0.05193,-2.051266 0,-0.727031 -0.207723,-1.116512 -0.207723,-0.389481 -0.778962,-0.545274 -0.571239,-0.155792 -1.63582,-0.155792 H 53.70806 v -2.025301 h 1.999336 q 2.492679,0 3.661122,0.804927 1.168443,0.778962 1.168443,2.882159 0,0.908789 -0.0779,1.609855 -0.05193,0.701066 -0.129827,1.376166 -0.0779,0.649136 -0.0779,1.454066 0,0.46737 0.311585,0.90879 0.311585,0.41544 1.090547,0.70106 0.778962,0.28562 2.181094,0.31159 v 2.23302 q -1.402132,0.026 -2.181094,0.31159 -0.778962,0.28562 -1.090547,0.72703 -0.311585,0.41544 -0.311585,0.88282 0,0.83089 0.0779,1.48003 0.0779,0.64913 0.129827,1.3502 0.0779,0.6751 0.0779,1.60985 0,2.07724 -1.168443,2.88216 -1.168443,0.80493 -3.661122,0.80493 z"
       id="path36" /></g></svg>
