<?xml version="1.0" encoding="UTF-8" standalone="no"?>
<!-- Created with Inkscape (http://www.inkscape.org/) -->

<svg
   width="320"
   height="256"
   viewBox="0 0 84.666656 67.733331"
   version="1.1"
   id="svg1"
   xml:space="preserve"
   inkscape:version="1.4 (86a8ad7, 2024-10-11)"
   sodipodi:docname="divorce.svg"
   inkscape:export-filename="Head-side1.png"
   inkscape:export-xdpi="96"
   inkscape:export-ydpi="96"
   xmlns:inkscape="http://www.inkscape.org/namespaces/inkscape"
   xmlns:sodipodi="http://sodipodi.sourceforge.net/DTD/sodipodi-0.dtd"
   xmlns="http://www.w3.org/2000/svg"
   xmlns:svg="http://www.w3.org/2000/svg"><sodipodi:namedview
     id="namedview1"
     pagecolor="#505050"
     bordercolor="#ffffff"
     borderopacity="1"
     inkscape:showpageshadow="0"
     inkscape:pageopacity="0"
     inkscape:pagecheckerboard="1"
     inkscape:deskcolor="#505050"
     inkscape:document-units="mm"
     inkscape:zoom="2"
     inkscape:cx="161"
     inkscape:cy="87.75"
     inkscape:window-width="3440"
     inkscape:window-height="1377"
     inkscape:window-x="-8"
     inkscape:window-y="-8"
     inkscape:window-maximized="1"
     inkscape:current-layer="layer1" /><defs
     id="defs1"><inkscape:path-effect
       effect="mirror_symmetry"
       start_point="396.875,0"
       end_point="396.875,1322.9167"
       center_point="396.875,661.45833"
       id="path-effect25"
       is_visible="true"
       lpeversion="1.2"
       lpesatellites=""
       mode="vertical"
       discard_orig_path="false"
       fuse_paths="false"
       oposite_fuse="false"
       split_items="false"
       split_open="false"
       link_styles="false" /><inkscape:path-effect
       effect="mirror_symmetry"
       start_point="351.80671,7.9670225"
       end_point="351.80671,1330.8837"
       center_point="351.80671,669.42536"
       id="path-effect24"
       is_visible="true"
       lpeversion="1.2"
       lpesatellites=""
       mode="vertical"
       discard_orig_path="false"
       fuse_paths="false"
       oposite_fuse="false"
       split_items="false"
       split_open="false"
       link_styles="false" /><inkscape:path-effect
       effect="mirror_symmetry"
       start_point="351.80671,7.9670225"
       end_point="351.80671,1330.8837"
       center_point="351.80671,669.42536"
       id="path-effect23"
       is_visible="true"
       lpeversion="1.2"
       lpesatellites=""
       mode="vertical"
       discard_orig_path="false"
       fuse_paths="false"
       oposite_fuse="false"
       split_items="false"
       split_open="false"
       link_styles="false" /><inkscape:path-effect
       effect="mirror_symmetry"
       start_point="351.80671,7.9670225"
       end_point="351.80671,1330.8837"
       center_point="351.80671,669.42536"
       id="path-effect22"
       is_visible="true"
       lpeversion="1.2"
       lpesatellites=""
       mode="vertical"
       discard_orig_path="false"
       fuse_paths="false"
       oposite_fuse="false"
       split_items="false"
       split_open="false"
       link_styles="false" /><inkscape:path-effect
       effect="mirror_symmetry"
       start_point="396.87502,-8.4338178"
       end_point="396.87502,1268.0465"
       center_point="396.87502,629.80636"
       id="path-effect20"
       is_visible="true"
       lpeversion="1.2"
       lpesatellites=""
       mode="vertical"
       discard_orig_path="false"
       fuse_paths="false"
       oposite_fuse="false"
       split_items="false"
       split_open="false"
       link_styles="false" /><inkscape:path-effect
       effect="mirror_symmetry"
       start_point="396.875,0"
       end_point="396.875,1322.9167"
       center_point="396.875,661.45833"
       id="path-effect19"
       is_visible="true"
       lpeversion="1.2"
       lpesatellites=""
       mode="vertical"
       discard_orig_path="false"
       fuse_paths="false"
       oposite_fuse="false"
       split_items="false"
       split_open="false"
       link_styles="false" /><inkscape:path-effect
       effect="mirror_symmetry"
       start_point="396.875,0"
       end_point="396.875,1322.9167"
       center_point="396.875,661.45833"
       id="path-effect17"
       is_visible="true"
       lpeversion="1.2"
       lpesatellites=""
       mode="vertical"
       discard_orig_path="false"
       fuse_paths="false"
       oposite_fuse="false"
       split_items="false"
       split_open="false"
       link_styles="false" /><inkscape:path-effect
       effect="mirror_symmetry"
       start_point="396.875,0"
       end_point="396.875,1322.9167"
       center_point="396.875,661.45833"
       id="path-effect16"
       is_visible="true"
       lpeversion="1.2"
       lpesatellites=""
       mode="vertical"
       discard_orig_path="false"
       fuse_paths="false"
       oposite_fuse="false"
       split_items="false"
       split_open="false"
       link_styles="false" /><inkscape:path-effect
       effect="mirror_symmetry"
       start_point="396.875,0"
       end_point="396.875,1322.9167"
       center_point="396.875,661.45833"
       id="path-effect15"
       is_visible="true"
       lpeversion="1.2"
       lpesatellites=""
       mode="vertical"
       discard_orig_path="false"
       fuse_paths="false"
       oposite_fuse="false"
       split_items="false"
       split_open="false"
       link_styles="false" /><inkscape:path-effect
       effect="mirror_symmetry"
       start_point="396.875,0"
       end_point="396.875,1322.9167"
       center_point="396.875,661.45833"
       id="path-effect14"
       is_visible="true"
       lpeversion="1.2"
       lpesatellites=""
       mode="vertical"
       discard_orig_path="false"
       fuse_paths="false"
       oposite_fuse="false"
       split_items="false"
       split_open="false"
       link_styles="false" /><inkscape:path-effect
       effect="mirror_symmetry"
       start_point="396.875,-51.166071"
       end_point="396.875,1271.7506"
       center_point="396.875,610.29226"
       id="path-effect7"
       is_visible="true"
       lpeversion="1.2"
       lpesatellites=""
       mode="vertical"
       discard_orig_path="false"
       fuse_paths="true"
       oposite_fuse="false"
       split_items="false"
       split_open="false"
       link_styles="false" /><inkscape:path-effect
       effect="mirror_symmetry"
       start_point="402.86785,-63.815361"
       end_point="402.86785,1259.1013"
       center_point="402.86785,597.64297"
       id="path-effect6"
       is_visible="true"
       lpeversion="1.2"
       lpesatellites=""
       mode="vertical"
       discard_orig_path="false"
       fuse_paths="true"
       oposite_fuse="false"
       split_items="false"
       split_open="false"
       link_styles="false" /><inkscape:path-effect
       effect="mirror_symmetry"
       start_point="412.49036,-64.054861"
       end_point="412.49036,1258.8618"
       center_point="412.49036,597.40347"
       id="path-effect5"
       is_visible="true"
       lpeversion="1.2"
       lpesatellites=""
       mode="vertical"
       discard_orig_path="false"
       fuse_paths="true"
       oposite_fuse="false"
       split_items="false"
       split_open="false"
       link_styles="false" /><inkscape:path-effect
       effect="mirror_symmetry"
       start_point="396.875,0"
       end_point="396.875,1322.9167"
       center_point="396.875,661.45833"
       id="path-effect4"
       is_visible="true"
       lpeversion="1.2"
       lpesatellites=""
       mode="vertical"
       discard_orig_path="false"
       fuse_paths="true"
       oposite_fuse="false"
       split_items="false"
       split_open="false"
       link_styles="false" /><inkscape:path-effect
       effect="mirror_symmetry"
       start_point="396.875,0"
       end_point="396.875,1322.9167"
       center_point="396.875,661.45833"
       id="path-effect3"
       is_visible="true"
       lpeversion="1.2"
       lpesatellites=""
       mode="vertical"
       discard_orig_path="false"
       fuse_paths="true"
       oposite_fuse="false"
       split_items="false"
       split_open="false"
       link_styles="false" /><inkscape:path-effect
       effect="mirror_symmetry"
       start_point="396.875,0"
       end_point="396.875,1322.9167"
       center_point="396.875,661.45833"
       id="path-effect2"
       is_visible="true"
       lpeversion="1.2"
       lpesatellites=""
       mode="vertical"
       discard_orig_path="false"
       fuse_paths="false"
       oposite_fuse="false"
       split_items="false"
       split_open="false"
       link_styles="false" /><inkscape:path-effect
       effect="mirror_symmetry"
       start_point="396.875,0"
       end_point="396.875,1322.9167"
       center_point="396.875,661.45833"
       id="path-effect1"
       is_visible="true"
       lpeversion="1.2"
       lpesatellites=""
       mode="vertical"
       discard_orig_path="false"
       fuse_paths="true"
       oposite_fuse="false"
       split_items="false"
       split_open="false"
       link_styles="false" /><inkscape:path-effect
       effect="mirror_symmetry"
       start_point="1500,0"
       end_point="1500,3000"
       center_point="1500,1500"
       id="path-effect865"
       is_visible="true"
       mode="vertical"
       discard_orig_path="false"
       fuse_paths="false"
       oposite_fuse="false"
       lpeversion="0"
       lpesatellites=""
       split_items="false"
       split_open="false"
       link_styles="false" /><inkscape:path-effect
       effect="mirror_symmetry"
       start_point="396.875,-496.75002"
       end_point="396.875,296.99998"
       center_point="396.875,-99.87502"
       id="path-effect854"
       is_visible="true"
       mode="vertical"
       discard_orig_path="false"
       fuse_paths="false"
       oposite_fuse="false"
       lpeversion="0"
       lpesatellites=""
       split_items="false"
       split_open="false"
       link_styles="false" /><inkscape:path-effect
       effect="mirror_symmetry"
       start_point="396.875,-496.75002"
       end_point="396.875,296.99998"
       center_point="396.875,-99.87502"
       id="path-effect843"
       is_visible="true"
       mode="vertical"
       discard_orig_path="false"
       fuse_paths="false"
       oposite_fuse="false"
       lpeversion="0"
       lpesatellites=""
       split_items="false"
       split_open="false"
       link_styles="false" /><inkscape:path-effect
       effect="mirror_symmetry"
       start_point="105,0"
       end_point="105,297"
       center_point="105,148.5"
       id="path-effect1-8"
       is_visible="true"
       lpeversion="1.2"
       lpesatellites=""
       mode="vertical"
       discard_orig_path="false"
       fuse_paths="false"
       oposite_fuse="false"
       split_items="false"
       split_open="false"
       link_styles="false" /></defs><g
     inkscape:label="Layer 1"
     inkscape:groupmode="layer"
     id="layer1"><g
       id="g74"
       transform="matrix(0.23375473,0,0,0.23375473,-6.1763553,11.55769)"><path
         style="fill:#f3a070;fill-opacity:1;stroke:none;stroke-width:3.74208;stroke-linecap:round;stroke-linejoin:round;stroke-opacity:0.740601;paint-order:markers stroke fill"
         d="m 70.243744,159.80291 c -2.178126,12.79652 2.450409,30.22156 10.346133,46.01303 8.010379,16.02076 59.420353,-22.97342 53.702753,-31.95822 -5.7176,-8.9848 -6.80664,-27.77119 -8.44026,-32.94426 -1.63359,-5.17306 -55.608626,18.88945 -55.608626,18.88945 z"
         id="path3"
         sodipodi:nodetypes="csssc" /><path
         id="path53"
         style="opacity:1;fill:#ec9563;fill-opacity:0.666667;stroke:none;stroke-width:3.74208;stroke-linecap:round;stroke-linejoin:round;stroke-opacity:0.740601;paint-order:markers stroke fill"
         d="m 124.08215,140.19652 c -9.64315,-0.0769 -53.838269,19.60614 -53.838269,19.60614 -0.933229,5.48274 -0.609292,11.81815 0.678135,18.50769 28.569297,-4.88551 43.679664,-14.52961 56.704484,-27.74034 -0.67498,-4.22504 -1.19349,-7.81843 -1.77393,-9.65649 -0.1531,-0.48497 -0.77286,-0.70903 -1.77042,-0.717 z"
         sodipodi:nodetypes="scccss" /><path
         id="path68"
         style="opacity:1;fill:#ee9867;fill-opacity:1;stroke:none;stroke-width:3.74208;stroke-linecap:round;stroke-linejoin:round;stroke-opacity:0.740601;paint-order:markers stroke fill"
         d="m 130.46977,164.49405 c -4.319,7.38023 -15.01534,19.19778 -25.3315,23.63615 -10.520264,4.52615 -17.698399,9.38958 -29.725304,5.83044 1.493993,3.98834 3.235099,7.9713 5.17703,11.85516 8.010362,16.02074 59.419874,-22.97364 53.702294,-31.95842 -1.60329,-2.51944 -2.83306,-5.81875 -3.82252,-9.36333 z"
         sodipodi:nodetypes="cscssc" /></g><g
       id="g1"
       transform="matrix(0.23375473,0,0,0.23375473,-6.1763553,11.55769)"><path
         id="path19"
         style="fill:#cc3333;fill-opacity:1;stroke:none;stroke-width:3.74208;stroke-linecap:round;stroke-linejoin:round;stroke-opacity:0.740601;paint-order:markers stroke fill"
         d="m 132.42654,167.56755 c -1.54209,0.23028 -2.28673,5.73027 -10.3172,12.93513 -10.70727,9.60647 -35.573271,22.15607 -45.824074,16.137 -1.894162,-1.11221 -13.803353,16.8719 -24.478092,40.72929 H 170.72756 c -7.27896,-32.52104 -29.20251,-59.49188 -36.19314,-68.14312 -0.99088,-1.22628 -1.59384,-1.73507 -2.10788,-1.6583 z"
         sodipodi:nodetypes="sssccss" /><path
         id="path67"
         style="fill:#a92a2a;fill-opacity:1;stroke:none;stroke-width:3.74208;stroke-linecap:round;stroke-linejoin:round;stroke-opacity:0.740601;paint-order:markers stroke fill"
         d="m 132.42651,167.56778 c -1.54209,0.23028 -2.2865,5.7302 -10.31698,12.93506 -10.70725,9.60645 -35.573379,22.15588 -45.824166,16.13683 -0.511383,-0.30027 -1.80925,0.91207 -3.56025,3.13024 6.785987,5.55845 20.326568,3.18114 37.933676,-4.21897 16.1566,-6.79045 22.83623,-15.79546 25.2591,-24.59156 -0.43244,-0.53705 -1.02581,-1.29047 -1.38367,-1.73333 -0.99087,-1.22628 -1.59369,-1.73504 -2.10771,-1.65827 z" /></g><path
       id="path1"
       style="fill:#f8b486;fill-opacity:1;stroke:none;stroke-width:0.54944;stroke-linecap:round;stroke-linejoin:round;stroke-opacity:0.740601;paint-order:markers stroke fill"
       d="m 15.312076,17.822192 c -0.280013,0.01535 -0.564952,0.03739 -0.854808,0.06612 -7.1997155,0.713754 -9.767166,6.396062 -10.6064874,15.006951 -0.3296857,3.382338 -3.31724604,5.736945 -2.7126817,7.790581 0.3521139,1.196092 2.3154573,1.131791 3.1962285,1.040094 0.1266764,3.485109 -0.2060688,5.990528 1.6975672,8.15657 1.9036305,2.166035 6.6269694,2.080357 12.3068544,-0.856507 C 27.961516,44.050414 29.189884,35.575072 28.498597,28.575564 27.966247,23.185386 23.992417,17.345923 15.312076,17.82219 Z"
       sodipodi:nodetypes="ssssczssss" /><path
       id="path52"
       style="fill:#f6aa75;fill-opacity:0.717647;stroke:none;stroke-width:0.874731;stroke-linecap:round;stroke-linejoin:round;stroke-opacity:0.740601;paint-order:markers stroke fill"
       d="m 28.246161,36.22148 c -1.270286,0.968208 -3.124879,2.697599 -5.818771,5.581824 -10.847748,11.614164 -16.2859467,7.882649 -17.8887469,4.639166 0.1804251,1.272644 0.576245,2.396442 1.4933423,3.439956 1.903628,2.166033 6.6268396,2.080482 12.3067166,-0.856379 6.268869,-3.241405 8.973661,-7.968213 9.907459,-12.804567 z" /><path
       style="fill:#3a1809;fill-opacity:1;stroke:none;stroke-width:0.874731;stroke-linecap:round;stroke-linejoin:round;stroke-opacity:0.740601;paint-order:markers stroke fill"
       d="M 8.7353113,22.976163 C 5.0536775,23.262957 4.1619757,21.074991 4.8207877,19.251577 5.4795909,17.428163 7.1482064,14.334655 16.917305,14.59441 c 4.884549,0.129877 8.127956,1.861092 10.882132,5.983059 4.172451,6.244579 2.109467,13.867133 -0.588201,19.709597 -2.159645,4.677243 -3.987195,6.602566 -4.980296,1.188968 -1.363765,-7.434182 -1.00447,-10.694667 -4.627792,-10.728702 -3.623317,-0.03403 -2.899246,4.950227 -5.124829,1.764785 -2.225586,-3.185442 1.336684,-9.931658 -3.7430077,-9.535954 z"
       id="path2"
       sodipodi:nodetypes="sssssszss" /><path
       id="path54"
       style="fill:#2a1107;fill-opacity:1;stroke:none;stroke-width:0.874731;stroke-linecap:round;stroke-linejoin:round;stroke-opacity:0.740601;paint-order:markers stroke fill"
       d="m 4.7229642,21.067605 c 0.332726,1.178019 1.5422758,2.101045 4.0123125,1.908632 5.0796873,-0.395702 1.5173733,6.350494 3.7429583,9.535932 0.378627,0.541924 0.670766,0.842962 0.914581,0.976915 -0.65806,-0.622011 -1.216365,-3.282956 -0.798377,-5.846639 0.477335,-2.927608 -0.158988,-5.250606 -1.781895,-5.377895 -1.5459006,-0.121246 -4.8193176,0.904939 -6.0895798,-1.196945 z m 12.6563668,9.042004 c -0.747223,0.0045 -1.459494,0.225763 -2.016375,0.683201 -1.422345,1.168353 -1.163576,2.273672 -1.388901,2.673159 0.722059,-0.509291 1.195704,-2.741423 3.629023,-2.718569 3.623315,0.03403 3.264048,3.294371 4.627813,10.728545 0.542874,2.959309 1.33551,3.722128 2.295022,3.044686 -1.446205,-0.0053 -2.013621,-8.877396 -2.989575,-11.500293 -0.700084,-1.881464 -2.51312,-2.920644 -4.157007,-2.910729 z" /><g
       id="g6"
       transform="matrix(-0.23375473,0,0,0.23375473,92.950722,11.55769)"><path
         style="fill:#f3a070;fill-opacity:1;stroke:none;stroke-width:3.74208;stroke-linecap:round;stroke-linejoin:round;stroke-opacity:0.740601;paint-order:markers stroke fill"
         d="m 70.243744,159.80291 c 3.386524,10.82571 12.661846,26.60501 10.346133,46.01303 -2.12213,17.7856 59.420353,-22.97342 53.702753,-31.95822 -5.7176,-8.9848 -6.80664,-27.77119 -8.44026,-32.94426 -1.63359,-5.17306 -55.608626,18.88945 -55.608626,18.88945 z"
         id="path4"
         sodipodi:nodetypes="csssc" /><path
         id="path5"
         style="opacity:1;fill:#ec9563;fill-opacity:0.666667;stroke:none;stroke-width:3.74208;stroke-linecap:round;stroke-linejoin:round;stroke-opacity:0.740601;paint-order:markers stroke fill"
         d="m 124.08254,140.19737 c 0.15031,0.001 0.27392,0.0173 0.40676,0.0284 0.1118,0.0103 0.23149,0.0161 0.33039,0.0337 0.24127,0.041 0.4478,0.10218 0.60925,0.18829 0.0234,0.0127 0.0495,0.0236 0.0711,0.0373 0.0374,0.0233 0.0691,0.0501 0.10124,0.0764 0.0349,0.0289 0.0674,0.0599 0.0959,0.0924 0.0185,0.0208 0.0375,0.0416 0.0533,0.0639 0.0425,0.0607 0.0786,0.12362 0.10124,0.19539 0.0932,0.29519 0.18469,0.64717 0.27532,1.02667 0.0232,0.0971 0.0462,0.19969 0.0693,0.30197 0.0479,0.21191 0.0962,0.44894 0.14388,0.68208 0.0715,0.34916 0.14475,0.74546 0.2167,1.13858 0.11954,0.65345 0.23993,1.37238 0.36413,2.13151 0.22421,1.36599 0.44576,2.75857 0.7034,4.37138 3.2e-4,0.002 0.001,0.003 0.002,0.005 -12.10676,12.27956 -26.02223,21.47403 -50.866728,26.63322 -2.307781,-6.71099 -4.999626,-12.55502 -6.515317,-17.40023 0,0 0.883676,-0.39251 1.91836,-0.84728 0.0115,-0.005 0.03636,-0.0162 0.04796,-0.0213 0.829121,-0.36344 2.178829,-0.94545 3.442389,-1.49206 0.608658,-0.26367 1.112673,-0.48244 1.808232,-0.78155 1.503805,-0.64549 3.34996,-1.42383 5.168913,-2.19013 1.007714,-0.42507 1.958807,-0.82704 3.039179,-1.27713 13.730244,-5.7114 32.517342,-13.0439 38.413372,-12.99689 z" /><path
         id="path6"
         style="opacity:1;fill:#ee9867;fill-opacity:1;stroke:none;stroke-width:3.74208;stroke-linecap:round;stroke-linejoin:round;stroke-opacity:0.740601;paint-order:markers stroke fill"
         d="m 130.46997,164.4966 c 0.23083,0.82682 0.47589,1.63557 0.73537,2.42814 0.0374,0.11481 0.0738,0.23065 0.1119,0.3446 0.11865,0.35367 0.23919,0.70355 0.36414,1.04799 0.004,0.0105 0.007,0.0215 0.0106,0.032 0.17418,0.48152 0.35469,0.95144 0.54176,1.41213 0.0821,0.20106 0.1658,0.39842 0.25046,0.59504 0.23602,0.55107 0.48167,1.08653 0.73892,1.59864 0.11764,0.23333 0.23837,0.46127 0.36058,0.68563 0.0516,0.095 0.10207,0.19267 0.15453,0.28598 0.18025,0.31992 0.36388,0.6317 0.5542,0.93076 4.28952,6.74068 -29.27741,31.3646 -45.417166,35.73477 -3.824692,0.26822 -6.800244,-0.80786 -8.284471,-3.77632 l -0.0018,-0.004 c 0.444224,-3.72523 0.458489,-7.31567 0.172297,-10.76413 9.019264,0.94813 15.512657,-3.10465 24.37738,-6.91853 10.31558,-4.43812 21.01175,-16.25281 25.33123,-23.63312 z" /></g><g
       id="g16"
       transform="translate(0.2037487,0.52861053)"><path
         id="path7"
         style="fill:#e55cc6;fill-opacity:1;stroke:none;stroke-width:0.874729;stroke-linecap:round;stroke-linejoin:round;stroke-opacity:0.740601;paint-order:markers stroke fill"
         d="m 61.791642,50.198787 c 0.360472,0.05383 0.534534,1.339475 2.411695,3.023646 2.502876,2.245558 7.375911,5.648842 9.772085,4.241857 0.442767,-0.259986 2.756841,4.472362 4.929158,9.050907 H 52.8386 c 1.701489,-7.601947 6.826224,-13.906507 8.460317,-15.928777 0.231622,-0.286649 0.372566,-0.405581 0.492725,-0.387633 z"
         sodipodi:nodetypes="sssccss" /><path
         id="path8"
         style="fill:#df3993;fill-opacity:1;stroke:none;stroke-width:0.874729;stroke-linecap:round;stroke-linejoin:round;stroke-opacity:0.740601;paint-order:markers stroke fill"
         d="m 61.791651,50.198839 c 0.360469,0.05383 0.534479,1.339461 2.411643,3.023632 2.502869,2.245552 7.375933,5.648798 9.772105,4.241816 0.119536,-0.07019 0.404402,0.251536 0.682762,0.708757 -1.586258,1.299313 -3.662458,0.296802 -7.778203,-1.433009 -3.776682,-1.5873 -5.338078,-3.692264 -5.904435,-5.748393 0.101086,-0.125538 0.23979,-0.301655 0.32344,-0.405176 0.23162,-0.286646 0.372531,-0.405571 0.492688,-0.387627 z"
         sodipodi:nodetypes="ssscscss" /></g><path
       id="path1-2"
       style="fill:#ff3349;fill-opacity:1;stroke:none;stroke-width:4.90622;stroke-dasharray:none;stroke-opacity:1;paint-order:markers stroke fill"
       d="M 53.474924,0.17772101 C 50.519402,-0.07058287 47.42591,1.5538696 45.91395,5.5792054 l 1.902144,4.5306716 -5.316708,6.268835 1.870092,12.531021 C 53.897383,23.058011 61.334125,14.887783 60.489207,7.4681592 59.997006,3.1458398 56.824513,0.45913198 53.474924,0.17772101 Z" /><path
       id="path9"
       style="fill:#f8b486;fill-opacity:1;stroke:none;stroke-width:0.519004;stroke-linecap:round;stroke-linejoin:round;stroke-opacity:0.740601;paint-order:markers stroke fill"
       d="m 71.20715,19.896723 c 0.264508,0.0145 0.533661,0.03532 0.807451,0.06246 6.800888,0.674215 9.512854,9.61545 10.087204,15.423631 0.225601,2.28144 1.853994,3.37046 1.440283,4.75567 -0.240947,0.806783 -1.168466,1.262611 -1.771172,1.200759 -0.08665,2.350762 -0.193622,6.435212 -2.324606,8.009798 -2.130987,1.574586 -5.732931,2.797114 -11.098164,0.02294 C 59.258432,44.672017 58.098113,36.666172 58.751104,30.054406 59.253962,24.96282 63.007661,19.446838 71.20715,19.896722 Z"
       sodipodi:nodetypes="ssssczssss" /><path
       id="path10"
       style="fill:#f6aa75;fill-opacity:0.717647;stroke:none;stroke-width:0.826273;stroke-linecap:round;stroke-linejoin:round;stroke-opacity:0.740601;paint-order:markers stroke fill"
       d="m 58.989547,37.276592 c 0.0508,0.263143 0.108771,0.526129 0.171002,0.788337 0.01117,0.04706 0.02257,0.09418 0.03412,0.141196 0.05753,0.234206 0.119843,0.467863 0.187084,0.700875 0.01037,0.03595 0.01998,0.07194 0.0306,0.107858 0.08031,0.271812 0.166489,0.542678 0.260819,0.812263 0.09097,0.259986 0.190256,0.51839 0.29494,0.775787 0.02016,0.04955 0.04168,0.09882 0.06236,0.148256 0.09048,0.216381 0.185966,0.431821 0.286704,0.645966 0.02799,0.05949 0.05513,0.119151 0.08393,0.178455 0.03893,0.08018 0.0784,0.160213 0.11884,0.240032 0.06792,0.134034 0.137996,0.267476 0.210223,0.400444 0.04005,0.07376 0.08097,0.147402 0.122369,0.220813 0.07403,0.131224 0.150238,0.261757 0.228657,0.391816 0.03996,0.0663 0.08008,0.13248 0.121193,0.198458 0.101323,0.162529 0.205274,0.324268 0.313766,0.484769 0.02806,0.04152 0.05774,0.08256 0.08629,0.123938 0.09419,0.136503 0.191045,0.272213 0.290627,0.407112 0.03952,0.05354 0.07886,0.107136 0.11923,0.160413 0.124327,0.164019 0.252122,0.327272 0.384757,0.488691 0.03121,0.038 0.06401,0.0755 0.0957,0.113348 0.114254,0.136458 0.231783,0.271881 0.352202,0.406328 0.04149,0.04634 0.08249,0.09275 0.124723,0.138841 0.143723,0.156805 0.29152,0.312103 0.443979,0.465944 0.04283,0.04322 0.08708,0.08606 0.130606,0.129037 0.130742,0.129074 0.264477,0.257148 0.401621,0.383971 0.04183,0.03869 0.08268,0.07762 0.125114,0.116094 0.169242,0.153423 0.343829,0.304683 0.522814,0.454569 0.04379,0.03667 0.08858,0.07297 0.132958,0.109426 0.164605,0.135197 0.333095,0.26912 0.505948,0.401229 0.03082,0.02356 0.06069,0.04753 0.09178,0.07099 0.196377,0.148169 0.398846,0.294051 0.605961,0.438096 0.05137,0.03574 0.103659,0.0712 0.155706,0.106681 0.198701,0.135414 0.401285,0.268937 0.609885,0.400444 0.01709,0.01078 0.03344,0.02181 0.0506,0.03255 0.224434,0.140585 0.456176,0.278283 0.692247,0.414172 0.05619,0.03235 0.112972,0.06441 0.169826,0.09648 0.241121,0.136007 0.486009,0.270648 0.739313,0.401622 5.365233,2.774176 8.967326,1.551838 11.098314,-0.02275 0.699212,-0.516651 1.177778,-1.306055 1.51196,-2.21323 -2.34905,2.359474 -6.721618,5.877305 -16.472348,-4.586483 -2.541523,-2.727381 -4.296489,-4.358273 -5.496405,-5.272846 z" /><path
       style="fill:#eea943;fill-opacity:1;stroke:none;stroke-width:0.802263;stroke-linecap:round;stroke-linejoin:round;stroke-opacity:0.740601;paint-order:markers stroke fill"
       d="m 77.606526,26.652334 c 2.975145,-1.609031 3.709758,-2.793835 3.105527,-4.466187 -0.604224,-1.672351 -2.134595,-4.509575 -11.094368,-4.271339 -4.479886,0.119117 -7.454585,1.706908 -9.980592,5.487387 -3.826781,5.72724 -12.112658,42.540633 -6.623207,40.372598 16.683072,-6.588905 11.347982,-16.171944 11.730375,-21.205396 0.389111,-5.121865 0.571201,-6.604307 3.140377,-8.170374 2.569175,-1.566069 2.766767,-0.27988 4.807965,-3.20142 2.041213,-2.921541 1.976146,-2.956447 4.913923,-4.545269 z"
       id="path14"
       sodipodi:nodetypes="sssssszss" /><path
       id="path13"
       style="fill:#db9230;fill-opacity:1;stroke:none;stroke-width:0.802263;stroke-linecap:round;stroke-linejoin:round;stroke-opacity:0.740601;paint-order:markers stroke fill"
       d="m 80.904622,23.090306 c -0.408226,2.325872 -3.374751,2.240295 -6.212919,4.481758 -2.877656,2.272649 -3.405015,3.497522 -4.986333,4.518697 -1.26658,0.817928 -4.3553,1.751968 -4.997376,3.477562 -0.447549,1.202801 -2.289112,7.654227 -1.811516,15.092664 0.450838,7.021707 -8.616333,12.383933 -10.541597,13.172997 0.193132,0.05426 0.411746,0.03869 0.659183,-0.05902 16.683072,-6.588905 11.347713,-16.171982 11.730107,-21.205434 0.38911,-5.121865 0.571369,-6.604602 3.140544,-8.17067 2.569176,-1.566069 2.766534,-0.279552 4.807733,-3.201093 2.041213,-2.921541 1.9762,-2.956533 4.913979,-4.545355 2.411528,-1.304213 3.350558,-2.329769 3.298195,-3.562101 z" /><path
       id="path17"
       style="fill:#ff3349;fill-opacity:1;stroke:none;stroke-width:4.90622;stroke-dasharray:none;stroke-opacity:1;paint-order:markers stroke fill"
       d="M 34.987938,0.11610199 C 31.635652,0.36380302 28.440098,3.0156534 27.913603,7.3346711 27.010129,14.746072 34.382079,22.985956 43.863424,28.927093 L 40.45801,16.787204 44.949222,9.7912014 42.503234,5.5829033 C 41.025776,1.5507459 37.94584,-0.10245766 34.987938,0.11610199 Z" /></g></svg>
