<?xml version='1.0' encoding='utf-8'?>
<svg xmlns="http://www.w3.org/2000/svg" width="3e3" height="3e3" version="1.1" viewBox="0 0 793.75 793.75"> <g transform="translate(0 496.75)"> <circle cx="396.9" cy="-99.871" r="389.39" fill="#003a8f" style="paint-order:normal"/> <path transform="matrix(.26458 0 0 .26458 0 -496.75)" d="m1500.1 28.316c-123.21 0.39482-245.88 16.26-365.13 47.223-15.04 7.7845-35.766 18.14-54.049 26.937-54.426 26.19-87.574 44.958-102.41 57.988-12.355 10.848-23.981 33.327-21.107 40.814 3.2102 8.3656 14.839 4.41 80.516-27.391 32.929-15.944 68.773-31.078 79.717-33.66 10.936-2.5806 30.897-7.4933 44.357-10.916 13.46-3.4227 42.367-8.9332 64.24-12.246 21.873-3.3129 42.522-6.8373 45.887-7.832 14.913-4.4084 50.996-21.475 73.922-34.961 30.617-18.011 43.512-22.5 87.211-30.369 44.8-8.0669 75.172-7.6803 121.84 1.5508 59.521 11.775 75.609 9.769 65.049-8.1074-0.6183-1.0468-1.1523-2.0915-1.6172-3.1055-39.376-3.5651-78.88-5.542-118.42-5.9258zm-520.52 95.775c-15.124 5.983-30.147 12.216-45.064 18.697 0.13966 0.0246 0.28325 0.0444 0.41211 0.0781 10.883 2.8461 28.859-4.2922 42.488-16.875 0.67548-0.6236 1.4069-1.2591 2.1641-1.9004zm-72.143 30.814c-14.436 6.1855-28.772 12.602-43.002 19.246-2.9392 5.7095 5.7808 4.1308 22.416-4.4941 10.832-5.6161 19.693-11.328 19.693-12.689 0-0.61472 0.32329-1.3136 0.89258-2.0625zm23.303 2679.4c-2.019 0.1312-2.7793 2.1195-2.7793 5.7715 0 4.9787 6.4011 13.034 16.281 21.756 18.212 7.0619 36.564 13.76 55.043 20.092-7.8678-3.6259-13.893-6.8073-17.791-9.4531-5.0476-3.4261-17.591-13.531-27.873-22.457-12.657-10.988-19.516-15.928-22.881-15.709zm1075.6 28.541-27.533 0.4199c-20.939 0.3194-42.039 3.8242-88.109 14.631-69.39 16.277-94.927 20.438-172.72 28.148l-55.875 5.5391-42.018-7.0469-42.018-7.0488-41.299 6.7676c-33.562 5.5001-48.634 6.4511-80.463 5.0742-44.624-1.9304-47.589-1.2481-84.73 19.553-14.301 8.0093-32.196 16.278-39.768 18.373-15.898 4.3984-20.026 7.1099-15.799 11.476 61.044 8.1741 122.54 12.508 184.13 12.977 173.18-0.3802 344.93-31.323 507.35-91.404 0.1102-1.6469 0.01-3.6224-0.2031-6.1387z" fill="#fff" style="paint-order:normal"/> <path transform="matrix(.26458 0 0 .26458 0 -496.75)" d="m1712.4 93.254c-2.1526-0.02037-4.118 0.0155-5.8711 0.10938-29.374 1.573-46.178 10.618-74.81 40.266-12.743 13.195-33.859 31.564-46.924 40.82-13.065 9.2561-25.108 19.362-26.766 22.459-5.8044 10.846-3.3492 21.608 7.3848 32.342 11.813 11.813 23.688 13.496 39.078 5.5371 7.9219-4.0965 10.061-4.2104 13.559-0.71289 9.6601 9.6602 11.894 52.362 3.3047 63.158-5.119 6.4338-24.022 15.218-86.842 40.354-59.196 23.685-90.912 40.011-95.996 49.418-1.9155 3.544-0.435 10.093 4.8359 21.416 9.1604 19.677 9.5196 28.502 1.6856 41.35-9.1031 14.929-16.496 17.425-52.217 17.615-29.916 0.15987-33.597 0.86868-52.289 10.068-34.558 17.008-59.932 44.291-65.34 70.254-2.704 12.982 6.8499 34.525 19.215 43.33 22.713 16.173 49.967 26.007 75.844 27.365 21.831 1.1458 27.177 0.34413 41.438-6.2109 23.705-10.896 33.115-20.057 57.674-56.137 26.067-38.295 46.165-55.484 80.338-68.709 35.412-13.705 61.519-19.009 95.559-19.42 29.084-0.351 31.495 0.12082 48.945 9.6113 10.095 5.4903 35.562 25.247 56.594 43.902 50.82 45.079 61.936 50.452 72.142 34.875 4.654-7.1029 4.5881-8.3615-0.9746-19.119-3.275-6.3338-17.529-21.323-31.678-33.309-14.148-11.985-25.725-23.686-25.725-26.002 0-5.9359 17.138-6.974 29.518-1.7871 16.605 6.9576 28.751 19.09 60.018 59.943 44.565 58.229 73.726 84.214 88.254 78.639 4.2364-1.6257 4.7266-4.7673 3.0137-19.342-1.1248-9.5697-2.8349-20.539-3.7988-24.379-2.5625-10.21 6.5543-12.559 16.727-4.3086 19.1 15.49 58.641 31.025 125.45 49.283 73.23 20.014 95.698 28.829 109.09 42.803 7.4935 7.8215 8.3048 10.589 7.0234 23.924-2.7805 28.937-19.517 41.634-67.414 51.146-23.926 4.7516-27.619 4.8137-38.109 0.63672-33.302-13.26-133.34-35.924-158.57-35.924-19.753 0-25.885 5.0455-25.885 21.295 0 6.947-2.3719 14.605-5.8535 18.9-4.9292 6.0819-8.5591 7.1958-23.004 7.0586-14.334-0.13622-21.792-2.5703-45.389-14.816-87.432-45.375-118.27-66.512-143.06-98.055-12.914-16.433-18.39-20.806-32.93-26.295-33.373-12.598-99.574-7.9623-183.97 12.885-32.859 8.1163-44.51 9.5421-80.406 9.8438l-41.976 0.35351-20.734 20.135c-11.404 11.074-40.005 37.156-63.56 57.959-59.632 52.665-111.2 105.47-128.66 131.72-35.396 53.243-66.766 129.38-74.889 181.75-5.3651 34.596-4.1118 86.298 2.7949 115.31 22.262 93.52 81.982 188.57 143.31 228.09 47.352 30.513 96.137 29.651 236.41-4.1738 71.92-17.343 100.38-22.604 122.26-22.604h20.631l15.088 16.059c8.2975 8.8334 18.932 21.156 23.633 27.381 10.148 13.439 30.091 23.861 45.658 23.861 18.576 0 21.449 7.7434 24.176 65.225 3.2286 68.068 5.7682 75.425 37.894 109.77 21.968 23.482 28.776 33.466 44.197 64.811 30.138 61.254 41.162 114.42 30.545 147.3-2.152 6.6645-13.711 33.456-25.688 59.535-21.308 46.398-21.772 47.942-21.672 71.889 0.097 23.109 1.1856 27.032 19.553 70.361 27.153 64.056 33.557 84.37 37.125 117.75 7.3229 68.505 27.493 159.04 42.228 189.55 11.02 22.82 18.158 27.178 50.535 30.857 45.706 5.1934 107.4-3.7223 139.98-20.232 21.041-10.662 30.851-20.08 93.775-90.025 59.421-66.052 85.365-91.528 107.16-105.24 17.407-10.946 20.812-20.428 22.814-63.506 2.7125-58.344 8.3242-65.944 73.182-99.119 39.567-20.239 54.434-32.727 65.225-54.781 16.048-32.802 16.048-76.868 0-132.22-12.475-43.03-15.732-72.904-11.295-103.59 6.6095-45.714 21.61-71.576 90.197-155.51 86.401-105.74 87.989-108.69 109.28-203.17 14.388-63.86 18.895-109.49 11.107-112.48-2.8693-1.101-17.625 3.9972-34.871 12.049-69.798 32.587-85.9 27.94-129.75-37.439-28.582-42.618-35.996-52.013-65.486-82.988-28.674-30.119-37.769-44.853-68.863-111.57-12.524-26.872-28.116-57.157-34.65-67.301-12.85-19.949-57.352-75.009-70.352-87.043-4.4066-4.079-8.0136-9.1397-8.0136-11.248 0-4.8776 14.638-16.516 20.773-16.516 7.8485 0 46.928 42.974 86.02 94.592 20.451 27.005 65.593 91.451 100.31 143.21 86.467 128.91 94.084 138.47 110.3 138.47 23.444 0 68.825-39.572 101.15-88.201 30.009-45.15 55.654-102.41 55.588-124.12-0.084-27.533-35.953-62.184-106.06-102.46-42.725-24.545-49.928-29.733-49.928-35.959 0-12.7 57.331 4.0762 121.8 35.643 76.921 37.663 132.19 80.116 162.23 124.62 42.409 62.829 82.831 159.14 116.87 278.43 6.371 22.329 11.292 34.414 14.012 34.414 2.3058 0 4.1934-1.376 4.1934-3.0586 0-1.6825 1.3761-3.0605 3.0586-3.0605s3.0606 3.675 3.0606 8.1641c0 15.174 6.7235 46.902 9.9394 46.902 2.104 0 2.5313-7.569 1.252-22.18-0.3167-3.6166-0.6667-7.0153-1.045-10.215l-0.096-0.7832c-2.7507-22.711-7.0902-34.722-13.113-36.297-4.0159-1.0502-5.6035-4.2535-5.5117-11.123 0.137-10.292-7.2407-52.394-21.791-124.37-3.4424-17.028-6.8685-39.04-9.7539-60.578-139.22-457.48-492.03-818.8-946.07-968.88-1.6471 1.8772-8.4729 3.9014-16.135 4.6856-10.617 1.0866-18.31 4.1164-25.232 9.9414-13.525 11.381-32.568 11.211-67.248-0.5996-32.97-11.228-107.42-23.925-139.71-24.23zm-400.65 44.576c-4.2516 0.0492-8.957 0.41946-13.98 1.1328-9.1011 1.2924-23.036 2.4494-30.969 2.5723-11.336 0.17548-15.152 1.5854-17.826 6.582-4.3354 8.1008-1.8877 14.448 6.9414 17.994 9.8314 3.9486 14.017 3.7762 34.606-1.4316 31.09-7.8644 44.662-13.867 43.617-19.291-0.9576-4.9724-9.6339-7.7064-22.389-7.5586zm-513.38 70.156c-204.74 110.7-380.3 268.38-512.27 460.1 11.494-13.002 25.547-29.446 34.062-39.928 60.667-74.673 92.079-107.04 111.37-114.76 7.0508-2.8212 18.452-12.265 28.258-23.404 19.212-21.826 32.135-28.348 65.189-32.898 37.905-5.2178 54.172-15.585 54.172-34.523 0-15.877 6.0044-26.629 23.605-42.266 17.995-15.987 41.503-27.398 56.518-27.438 21.199-0.0561 17.144 6.447-19.842 31.834-9.5995 6.5891-17.453 13.636-17.453 15.658 0 2.0224 8.0319 5.9309 17.85 8.6856 28.271 7.9324 34.375 4.4015 51.51-29.791 9.8648-19.685 20.187-34.468 34.912-50.004 22.309-23.538 31.581-38.611 35.016-56.92 1.7011-9.0675 7.1626-16.058 26.768-34.271 13.546-12.585 22.977-22.883 20.959-22.883s-10.642 3.5341-19.166 7.8535c-8.524 4.3194-16.204 7.1513-17.064 6.291-0.86026-0.8603 10.29-10.185 24.777-20.721 0.2902-0.21102 0.54638-0.40629 0.83204-0.61523zm626.43 19.428c-14.361 0-21.089 3.9193-25.658 14.949-3.022 7.2957-2.9542 10.699 0.3457 17.426 4.413 8.9964 7.0992 10.938 24.748 17.871 19.26 7.5665 15.504 16.786-13.608 33.398-7.905 4.5109-15.131 9.4279-16.057 10.926-0.9257 1.4978 3.4541 5.752 9.7305 9.4551l11.41 6.7344-6.8281 5.5273c-12.804 10.368-7.6401 11.734 16.117 4.2598 8.4126-2.6466 25.95-5.134 38.973-5.5254 20.098-0.60397 24.841-1.8016 31.358-7.9238 9.7125-9.124 9.7225-14.523 0.035-18.938-4.2041-1.9155-11.126-9.4222-15.379-16.68-4.5819-7.8184-13.195-16.396-21.139-21.051-7.3734-4.3212-14.215-9.9636-15.203-12.539-2.0423-5.3221 3.0128-16.477 7.4668-16.477 1.6234 0 2.9492-2.0641 2.9492-4.5879 0-3.0592-3.0575-4.5898-9.1758-4.5898-7.1379 0-9.1777-1.3585-9.1777-6.1172 0-4.9744-2.0395-6.1191-10.908-6.1191zm-44.648 45.889c-7.2597 0.0121-15.739 3.4026-24.508 10.08-7.2816 5.5451-15.004 13.739-17.16 18.209-2.1566 4.47-7.3197 10.8-11.473 14.066-9.3236 7.334-9.483 11.006-0.75 17.123 8.7917 6.158 8.6469 6.1791 22.6-3.4512 6.5442-4.5169 17.405-8.9901 24.135-9.9414 10.863-1.5355 12.35-2.7608 13.246-10.908 0.5553-5.0476 3.8797-12.259 7.3867-16.027 6.1799-6.6397 6.2049-7.0413 0.8106-13.002-3.7324-4.1242-8.6407-6.156-14.287-6.1484zm-1237.1 657.6c-3.2941 8.7634-6.5046 17.558-9.6309 26.383 0.39775 10.671-0.28754 20.496-2.0918 26.5-1.9646 6.5374-1.5149 8.4102 2.0176 8.4102 2.5002 0 5.9411-1.7191 7.6465-3.8223 3.3283-4.1047 4.6844-43.363 2.0586-57.471zm22.049 60.102c-1.3256-0.0483-2.7604 0.56638-4.3066 1.8496-7.873 6.5341-25.018 33.887-23.143 36.922 2.442 3.9513 27.366 0.8399 33.402-4.1699 3.6825-3.0563 4.401-7.0576 2.9258-16.283-1.9263-12.046-4.902-18.174-8.8789-18.318zm-63.164 196.98c-15.439 0-34.777 63.856-50.488 166.72-4.3688 28.603-10.672 65.517-14.008 82.031-5.1836 25.664-7.8322 54.988-8.2891 86.328 0.25128 24.743 1.1266 49.476 2.625 74.176 0.55913 6.9062 1.2099 13.847 1.9336 20.807 1.209 10.988 2.5418 21.962 3.998 32.92 15.656 112.61 51.19 224.46 95.01 275.88 20.919 24.543 22.188 27.293 57.246 123.84 38.522 106.09 55.612 147.12 89.172 214.11 57.24 114.26 129.68 217.97 207.62 300.12 48.681 46.519 100.5 89.643 155.08 129.07 10.045 6.1672 20.079 11.911 30.082 17.176 22.152 11.658 29.602 13.263 29.602 6.3789 0-1.4915-9.4069-7.6555-20.904-13.697-27.212-14.3-64.523-44.344-88.234-71.051-10.392-11.704-32.269-40.44-48.615-63.857s-35.717-49.264-43.051-57.438c-17.393-19.386-18.565-31.615-5.4961-57.404 10.302-20.33 9.4829-28.94-4.8516-51-17.574-27.045-18.067-32.79-4.8379-56.445 14.246-25.475 14.125-33.073-1.4922-93.252-11.14-42.933-12.367-51.112-11.133-74.273 1.0628-19.946 3.207-29.597 9.1758-41.299 10.756-21.087 20.968-29.775 51.432-43.76 41.606-19.1 47.019-29.886 47.111-93.875 0.0343-23.555-1.921-62.324-4.3418-86.154-5.8609-57.693-3.3184-71.254 24.283-129.51 32.536-68.675 40.304-105.9 27.826-133.38-8.8411-19.468-10.977-20.589-111.95-58.852-104.17-39.476-150.38-69.131-170.73-109.58-4.0973-8.1437-14.68-34.431-23.514-58.416-18.45-50.094-31.937-71.576-53.621-85.4-29.923-19.077-40.212-30.641-57.721-64.871-9.1951-17.976-19.455-35.16-22.801-38.188-3.3454-3.0276-15.081-7.558-26.078-10.066-16.799-3.8318-22.97-7.2149-38.607-21.168-10.237-9.1344-19.884-16.609-21.438-16.609zm-52.23 72.359c-2.4056 14.452-4.5953 28.94-6.5684 43.457 1.45 3.6767 2.8608 6.5336 4.0234 7.8125 4.4418 4.8855 9.4748-14.364 8.1348-31.113-0.71743-8.9669-2.4885-15.414-5.5898-20.156zm2535 558.96c-3.3407 0.2912-9.4404 8.5473-18.828 25.334-15.94 28.504-27.148 39.863-51.354 52.053-53.348 26.866-57.482 32.805-56.371 80.973l0.8027 34.758-12.932 17.99c-16.3 22.677-25.308 46.578-27.527 73.047-1.4709 17.546-0.8536 21.654 4.0625 27.086 4.7498 5.2485 8.3854 6.1564 20.156 5.0254 7.8987-0.759 17.817-3.6437 22.039-6.4102 4.2222-2.7665 16.084-19.839 26.359-37.94 28.161-49.609 80.971-156.56 88.203-178.62 10.602-32.345 13.968-71.43 7.8301-90.955-0.5193-1.6519-1.3278-2.4387-2.4414-2.3418z" fill="#5bc412" style="paint-order:normal"/> <path transform="matrix(.26458 0 0 .26458 0 -496.75)" d="m1495.8 28.469a1471.7 1471.7 0 0 0-1467.4 1471.5 1471.7 1471.7 0 0 0 1471.7 1471.7 1471.7 1471.7 0 0 0 2.2715-0.0801c-296.01-56.181-565.56-234.35-760.6-502.9-196.04-269.92-303.95-613.42-304.32-968.74 0.14035-354.38 107.26-697.15 302.19-966.96 193.71-268.12 461.58-446.79 756.18-504.58z" fill-opacity=".31373" style="paint-order:normal"/> </g> </svg>