<?xml version="1.0" encoding="UTF-8" standalone="no"?>
<!-- Created with Inkscape (http://www.inkscape.org/) -->

<svg
   width="64"
   height="128"
   viewBox="0 0 16.933333 33.866666"
   version="1.1"
   id="svg1"
   xml:space="preserve"
   inkscape:version="1.3 (0e150ed, 2023-07-21)"
   sodipodi:docname="fingernail.svg"
   xmlns:inkscape="http://www.inkscape.org/namespaces/inkscape"
   xmlns:sodipodi="http://sodipodi.sourceforge.net/DTD/sodipodi-0.dtd"
   xmlns="http://www.w3.org/2000/svg"
   xmlns:svg="http://www.w3.org/2000/svg"><sodipodi:namedview
     id="namedview1"
     pagecolor="#505050"
     bordercolor="#ffffff"
     borderopacity="1"
     inkscape:showpageshadow="0"
     inkscape:pageopacity="0"
     inkscape:pagecheckerboard="1"
     inkscape:deskcolor="#505050"
     inkscape:document-units="mm"
     inkscape:zoom="2.6003435"
     inkscape:cx="103.83244"
     inkscape:cy="73.067269"
     inkscape:current-layer="layer1"
     showguides="true"
     inkscape:lockguides="false" /><defs
     id="defs1" /><g
     inkscape:label="Layer 1"
     inkscape:groupmode="layer"
     id="layer1"><path
       style="fill:#f4b57f;fill-opacity:1;stroke:none;stroke-width:0.613178"
       d="M 15.46742,17.794225 C 14.862791,5.6494635 14.997915,1.7555137 8.8155205,1.548469 2.6331355,1.3414458 2.5915185,8.4499017 1.5664095,16.739323 0.54129945,25.028738 0.82390145,26.586034 0.54344245,33.037706 L 16.38995,33.0377 C 16.174234,26.448156 15.749468,23.459422 15.467427,17.794225 Z"
       id="path1"
       sodipodi:nodetypes="sssccss" /><path
       id="path3"
       style="fill:#f6c192;fill-opacity:1;stroke:none;stroke-width:0.613178"
       d="M 5.7929535,2.2548131 C 2.5804825,4.2315525 2.3867175,10.105287 1.5663075,16.739417 0.54119845,25.028825 0.82383545,26.585963 0.54338345,33.037627 l 2.30040405,7.3e-5 c 1.244273,-9.655972 0.67277,-26.8610192 3.14601,-30.6490555 z"
       sodipodi:nodetypes="cscccc" /><path
       style="fill:#f8d1af;fill-opacity:1;stroke:none;stroke-width:0.613178"
       d="m 13.52279,12.653218 c -3.189402,0.730439 -7.4548945,0.560891 -9.4378885,0.0728 -0.185959,-6.0061871 -0.35174,-6.8855406 0.127187,-8.9399227 0.88501,-3.79629618 7.9525055,-3.83512121 8.9381925,-0.7031413 0.42292,1.3438106 0.61887,3.3816009 0.372509,9.570261 z"
       id="path2"
       sodipodi:nodetypes="ccssc" /><path
       id="path4"
       style="fill:#f9e0c9;fill-opacity:1;stroke:none;stroke-width:0.613178"
       d="m 9.2785065,10.83188 c -2.22051,-0.02344 -4.516997,0.445361 -5.225347,0.976697 0.01143,0.339175 0.01998,0.539156 0.03169,0.917429 1.982986,0.488081 6.2484215,0.657738 9.4378235,-0.07269 0.0095,-0.240914 0.01407,-0.435766 0.02236,-0.664309 -0.849343,-0.821275 -2.534699,-1.13885 -4.2665295,-1.157122 z" /><path
       id="path5"
       style="fill:#ffffff;fill-opacity:0.262885;stroke:none;stroke-width:0.613178"
       d="m 6.5023625,1.3008535 c -1.120656,0.4687633 -2.011921,1.2908249 -2.290396,2.4853664 -0.478928,2.0543818 -0.313074,2.9336056 -0.127115,8.9397861 0.392526,0.09661 0.877203,0.180014 1.422549,0.247153 C 5.0380745,6.693084 4.8464825,2.3675079 6.5023625,1.3008535 Z" /></g></svg>
