<?xml version='1.0' encoding='utf-8'?>
<svg xmlns="http://www.w3.org/2000/svg" width="3e3" height="2650" version="1.1" viewBox="0 0 793.75 701.15"> <g transform="translate(0 404.15)"> <path d="m15.825-352.14c96.548 287.75 94.654 338.86 53.007 456.23-41.648 117.37 53.007 170.38 140.09 141.98 87.082-28.396 119.26-62.472 230.96-11.359 111.69 51.113 134.41 56.793 183.63 37.862s111.69 3.7862 128.73-13.252c17.038-17.038 48.794-57.453 0-60.579-36.169-2.3172-33.652-29.055-62.769-30.697-9.2358-0.52096 10.106-6.1253-27.442-9.3703-55.904-4.8314 1.2356 22.083-142.17-65.946-143.4-88.029-233.99-177.68-224.62-465.49-100.34-29.922-232.64-3.6159-279.42 20.609z" fill="#ebbc8a" stroke="#ecb675" stroke-linecap="round" stroke-linejoin="round" stroke-width="8.8538" style="paint-order:markers stroke fill"/> <path d="m195.4-386.1c-57.046-0.24828-112.77 9.9444-150.29 22.181 114.44 277.11 150.14 370.01 73.444 479.77-30.237 43.27-46.433 60.118-55.847 71.159 9.5582 32.9 35.335 54.133 67.36 62.522 54.716-20.806 101.69-34.731 157.15-61.396 69.608-33.465 160.63 14.725 208.82 56.222 48.19 41.497 103.07 18.741 145.91-4.0153 33.148-17.61 88.714 5.652 112.16 17.079 17.325-17.962 45.184-55.652-1.8741-58.667-36.169-2.3172-33.653-29.055-62.769-30.697-9.2358-0.52098 10.107-6.1253-27.441-9.3703-55.904-4.8315 1.2353 22.082-142.17-65.946-143.4-88.029-233.99-177.68-224.61-465.49-31.357-9.3508-65.836-13.21-99.85-13.358z" fill="#edc193" style="paint-order:normal"/> <path d="m103.15 184.12c4.6852-20.749 15.394-37.481 82.325-34.135 66.931 3.3466 158.63-71.616 213.51-37.481 54.883 34.135 218.19 91.026 220.87 96.38 2.6772 5.3545-73.624 12.048-145.24-18.741-71.616-30.788-91.695-50.867-206.15-29.45-114.45 21.418-157.96 41.497-165.32 23.426z" fill="#efc79e" style="paint-order:normal"/> <path d="m688.34 167.94-33.007 12.16 42.441-10.727c-2.4675-0.68392-5.2064-1.1447-8.3061-1.3195-0.44503-0.0252-0.80553-0.0655-1.1274-0.11351z" fill="#d8a473" style="paint-order:normal"/> <path d="m679.58 187.29c-4.6002-0.0124-7.5182 0.17672-7.5182 0.17672s25.641 2.9602 56.222 12.048c13.879 3.203 31.031 5.5952 46.67 7.3288-1.7545-2.0576-4.2794-3.8127-7.726-5.1701-5.8447-1.0357-11.703-2.0807-17.406-3.1195-3.6323-0.35931-6.8556-0.97602-9.7455-1.7954-13.029-2.4281-24.05-4.6116-29.194-5.9452-11.295-2.9282-23.635-3.5034-31.302-3.523z" fill="#d8a473" style="paint-order:normal"/> <path d="m198.03 87.07c20.235-3.1399 20.079-14.055 24.764-11.378 4.6852 2.6772-2.6772 22.087-22.087 23.426-19.41 1.3386-31.457-10.709-26.772-14.725 4.6852-4.0158 5.4701 5.5673 24.095 2.6772z" fill="#efc79e" style="paint-order:normal"/> <path d="m320.61 35.001c-170.39-108.95-106.82-294.26-83.296-363.47-36.385 8.2104-70.883 19.25-102.23 35.022 30.249 122.17 35.508 247.97 18.931 374.83 44.643-50.543 99.24-69.011 166.59-46.381z" fill="#efc79e" style="paint-order:normal"/> <path d="m739.15 196.49c-9.9505 1.4155-21.363 4.8349-13.543 13.066 11.744 12.362 28.061 11.586 51.047-0.20132-2.9432-5.6716-10.312-9.6944-24.42-10.598-5.0526-0.3237-9.3492-1.1248-13.084-2.2666z" fill="#e8b18b" style="paint-order:normal"/> </g> </svg>