<?xml version="1.0" encoding="UTF-8" standalone="no"?>
<svg
   height="128"
   viewBox="0 0 128 128"
   width="128"
   version="1.1"
   id="svg5"
   sodipodi:docname="google-logo.svg"
   inkscape:version="1.4 (86a8ad7, 2024-10-11)"
   inkscape:export-filename="google-logo.png"
   inkscape:export-xdpi="96"
   inkscape:export-ydpi="96"
   xmlns:inkscape="http://www.inkscape.org/namespaces/inkscape"
   xmlns:sodipodi="http://sodipodi.sourceforge.net/DTD/sodipodi-0.dtd"
   xmlns="http://www.w3.org/2000/svg"
   xmlns:svg="http://www.w3.org/2000/svg">
  <defs
     id="defs5" />
  <sodipodi:namedview
     id="namedview5"
     pagecolor="#505050"
     bordercolor="#ffffff"
     borderopacity="1"
     inkscape:showpageshadow="0"
     inkscape:pageopacity="0"
     inkscape:pagecheckerboard="1"
     inkscape:deskcolor="#505050"
     inkscape:zoom="4.3273462"
     inkscape:cx="10.167895"
     inkscape:cy="33.623379"
     inkscape:window-width="3440"
     inkscape:window-height="1377"
     inkscape:window-x="-8"
     inkscape:window-y="-8"
     inkscape:window-maximized="1"
     inkscape:current-layer="svg5" />
  <path
     d="m 124.25328,65.426453 c 0,-4.450526 -0.39941,-8.729878 -1.14116,-12.838056 H 64.000002 v 24.306719 h 33.778351 c -1.483509,7.816949 -5.934035,14.43568 -12.609824,18.886206 V 111.5864 h 20.369721 c 11.86807,-10.95514 18.71503,-27.045509 18.71503,-46.159947 z"
     fill="#4285f4"
     id="path1"
     style="stroke-width:5.7058" />
  <path
     d="m 64.000002,126.76382 c 16.946233,0 31.153681,-5.59167 41.538248,-15.17743 L 85.168529,95.781322 c -5.591686,3.765829 -12.723939,6.048158 -21.168527,6.048158 -16.318595,0 -30.183695,-11.012206 -35.147743,-25.847293 H 7.9690219 V 92.186666 C 18.296524,112.6705 39.465051,126.76382 64.000002,126.76382 Z"
     fill="#34a853"
     id="path2"
     style="stroke-width:5.7058" />
  <path
     d="M 28.852259,75.925129 C 27.596982,72.1593 26.855228,68.165238 26.855228,64.000002 c 0,-4.165236 0.741754,-8.159297 1.997031,-11.925127 V 35.870396 H 7.9690219 C 3.6896701,44.314984 1.236175,53.843674 1.236175,64.000002 c 0,10.156328 2.4534951,19.685019 6.7328469,28.129606 L 24.230559,79.462727 Z"
     fill="#fbbc05"
     id="path3"
     style="stroke-width:5.7058" />
  <path
     d="m 64.000002,26.22759 c 9.2434,0 17.459756,3.195249 24.021428,9.357516 L 105.9947,17.611828 C 95.096625,7.4554997 80.946235,1.236175 64.000002,1.236175 c -24.534951,0 -45.703478,14.093332 -56.0309801,34.634221 L 28.852259,52.074875 C 33.816307,37.239789 47.681407,26.22759 64.000002,26.22759 Z"
     fill="#ea4335"
     id="path4"
     style="stroke-width:5.7058" />
  <path
     d="M 1.236175,1.236175 H 126.76382 V 126.76382 H 1.236175 Z"
     fill="none"
     id="path5"
     style="stroke-width:5.7058" />
</svg>
