<?xml version="1.0" encoding="UTF-8" standalone="no"?>
<!-- Created with Inkscape (http://www.inkscape.org/) -->

<svg
   xmlns:dc="http://purl.org/dc/elements/1.1/"
   xmlns:cc="http://creativecommons.org/ns#"
   xmlns:rdf="http://www.w3.org/1999/02/22-rdf-syntax-ns#"
   xmlns:svg="http://www.w3.org/2000/svg"
   xmlns="http://www.w3.org/2000/svg"
   xmlns:sodipodi="http://sodipodi.sourceforge.net/DTD/sodipodi-0.dtd"
   xmlns:inkscape="http://www.inkscape.org/namespaces/inkscape"
   width="3000"
   height="3000"
   viewBox="0 0 793.74998 793.75002"
   version="1.1"
   id="svg8"
   inkscape:version="0.92.4 (5da689c313, 2019-01-14)"
   sodipodi:docname="Jupiter.svg"
   inkscape:export-filename="G:\Pictures\My Pictures\Vectors and SVGs\Space\Jupiter.png"
   inkscape:export-xdpi="96"
   inkscape:export-ydpi="96">
  <defs
     id="defs2" />
  <sodipodi:namedview
     id="base"
     pagecolor="#000720"
     bordercolor="#666666"
     borderopacity="1.0"
     inkscape:pageopacity="0"
     inkscape:pageshadow="2"
     inkscape:zoom="0.1767767"
     inkscape:cx="1427.997"
     inkscape:cy="1339.7584"
     inkscape:document-units="mm"
     inkscape:current-layer="layer1"
     showgrid="false"
     inkscape:pagecheckerboard="false"
     inkscape:showpageshadow="false"
     borderlayer="true"
     units="px"
     inkscape:snap-object-midpoints="true"
     inkscape:window-width="1600"
     inkscape:window-height="837"
     inkscape:window-x="-8"
     inkscape:window-y="-8"
     inkscape:window-maximized="1"
     inkscape:snap-page="true"
     inkscape:snap-global="false" />
  <metadata
     id="metadata5">
    <rdf:RDF>
      <cc:Work
         rdf:about="">
        <dc:format>image/svg+xml</dc:format>
        <dc:type
           rdf:resource="http://purl.org/dc/dcmitype/StillImage" />
        <dc:title />
      </cc:Work>
    </rdf:RDF>
  </metadata>
  <g
     inkscape:label="Layer 1"
     inkscape:groupmode="layer"
     id="layer1"
     transform="translate(0,496.75002)">
    <path
       style="fill:#b0bbc5;fill-opacity:1;stroke-width:3.030303"
       d="M 1500,37.03125 A 1462.9685,1462.9685 0 0 0 37.03125,1500 1462.9685,1462.9685 0 0 0 1500,2962.9688 1462.9685,1462.9685 0 0 0 2962.9688,1500 1462.9685,1462.9685 0 0 0 1500,37.03125 Z"
       transform="matrix(0.26458333,0,0,0.26458333,0,-496.75002)"
       id="path848"
       inkscape:connector-curvature="0" />
    <path
       style="fill:#a0aeb9;fill-opacity:1;stroke-width:3.030303"
       d="M 1500,37.03125 A 1462.9685,1462.9685 0 0 0 37.378906,1493.0566 c -0.02254,5.5346 -0.02763,11.077 -0.0059,16.6192 A 1462.9685,1462.9685 0 0 0 1500,2962.9688 1462.9685,1462.9685 0 0 0 2962.6348,1506.6895 c 0.014,-5.6438 0,-11.2862 -0.027,-16.9141 A 1462.9685,1462.9685 0 0 0 1500,37.03125 Z m 48.168,1341.76365 c 82.1943,0.01 119.5982,2.2376 232.1347,13.836 87.8846,9.0576 95.9251,10.7357 104.6504,21.8281 8.4247,10.7102 6.618,22.5895 -8.1699,53.7285 -12.4676,26.2534 -11.6526,32.657 4.3574,34.2598 22.3734,2.2398 19.2144,17.7713 -9.7031,47.705 -14.9309,15.4557 -21.555,19.9698 -35.0742,23.9082 -25.9262,7.553 -80.1921,13.5132 -153.0293,16.8067 -144.086,6.515 -364.3987,-2.5705 -483.334,-19.9317 -17.5,-2.5544 -53.6361,-10.085 -80.3027,-16.7343 -66.1946,-16.5057 -87.2076,-17.2411 -218.18168,-7.6446 -198.60351,14.5519 -376.29987,21.7083 -478.78906,19.2832 -68.80693,-1.628 -90.22971,-4.9456 -96.54101,-14.9511 -18.55482,-29.4155 166.13046,-77.4213 429.875,-111.7383 70.4962,-9.1726 77.79373,-9.5366 237.8789,-11.8906 178.03075,-2.618 176.50825,-2.4957 276.15035,-22.3282 98.9203,-19.6887 167.6421,-26.148 278.0782,-26.1367 z"
       transform="matrix(0.26458333,0,0,0.26458333,0,-496.75002)"
       id="path846"
       inkscape:connector-curvature="0" />
    <path
       style="fill:#8997a2;fill-opacity:1;stroke-width:3.030303"
       d="M 1500,37.03125 A 1462.9685,1462.9685 0 0 0 52.220703,1301.8066 c 17.701781,2.1739 95.407937,2.3373 420.505857,4.3321 392.98832,2.4114 1741.53064,1.1329 2194.97464,-2.0801 221.4566,-1.5692 268.6179,-1.9672 279.7617,-5.0898 A 1462.9685,1462.9685 0 0 0 1500,37.03125 Z M 1266.1523,1673.6328 c -256.057,0.01 -496.12368,0.5623 -681.30464,1.8145 -282.5,1.9102 -519.430342,4.2797 -526.513676,5.2656 -3.430945,0.4775 -6.109847,0.7044 -8.083984,1.4844 A 1462.9685,1462.9685 0 0 0 1500,2962.9688 1462.9685,1462.9685 0 0 0 2949.9297,1683.9629 c -51.1506,-5.6792 -935.6772,-10.3491 -1683.7774,-10.3301 z"
       transform="matrix(0.26458333,0,0,0.26458333,0,-496.75002)"
       id="path844"
       inkscape:connector-curvature="0" />
    <path
       style="fill:#a2846a;fill-opacity:1;stroke-width:3.030303"
       d="M 1500,37.03125 A 1462.9685,1462.9685 0 0 0 253.78125,737.19727 c 22.065,1.42596 113.29342,2.5646 246.97656,3.01953 138.75001,0.47221 701.93059,0.82112 1251.51369,0.77539 713.6278,-0.0596 961.5872,-0.78386 995.0293,-3.09961 A 1462.9685,1462.9685 0 0 0 1500,37.03125 Z m 771.2129,1016.01565 c -156.6667,0.01 -420.5319,1.9087 -586.3652,4.2207 -229.3268,3.1972 -454.2341,3.6948 -939.39262,2.082 -487.75214,-1.6214 -621.28824,-1.4409 -640.49414,1.2246 a 1462.9685,1462.9685 0 0 0 -52.060549,236.7344 c 20.350037,4.6934 94.727719,4.6658 349.261719,5.8769 v 0 c 585.54259,2.7864 1238.92129,2.7734 1908.31249,-0.039 519.5185,-2.1827 619.8003,-2.9776 636.7285,-6.3105 a 1462.9685,1462.9685 0 0 0 -52.3808,-232.8184 c -37.8406,-5.6259 -335.3676,-10.9866 -623.6094,-10.9687 z m -931.8184,625.0508 c -814.85303,0.027 -1243.431219,2.3275 -1288.80075,6.9199 a 1462.9685,1462.9685 0 0 0 87.64453,349.0781 c 6.22833,0.4657 34.30529,-0.1613 66.30664,-1.5234 57.93509,-2.4661 1465.62548,1.8399 1711.13668,5.2343 l 95.9844,1.3282 28.2578,13.2382 c 15.5421,7.2815 42.9627,22.3461 60.9356,33.4766 57.3702,35.5291 84.6871,46.958 127.9277,53.5195 8.3333,1.2646 31.3008,2.4699 51.0391,2.6778 73.0009,0.769 128.6996,-17.0778 244.416,-78.3106 l 50,-26.457 125.7578,-0.5176 c 115.085,-0.4731 149.2013,-1.1133 161.6074,-5.75 a 1462.9685,1462.9685 0 0 0 87.8848,-344.1484 c -47.5783,-5.1459 -710.4306,-8.7953 -1610.0977,-8.7656 z M 331.70898,2231.6699 c -56.21426,0.072 -85.2902,1.0673 -94.78515,2.9356 A 1462.9685,1462.9685 0 0 0 1500,2962.9688 1462.9685,1462.9685 0 0 0 2759.084,2241.8203 c -2.9199,-1.4802 -10.7899,-1.5109 -29.5391,-0.6328 -102.5674,4.8037 -339.1801,7.9816 -703.0586,9.4395 -408.5913,1.637 -530.6163,0.519 -1065.88083,-9.7559 -331.61272,-6.3656 -525.82613,-9.3333 -628.89649,-9.2012 z"
       transform="matrix(0.26458333,0,0,0.26458333,0,-496.75002)"
       id="path842"
       inkscape:connector-curvature="0" />
    <path
       style="fill:#828282;stroke-width:3.030303"
       d="M 1500,37.03125 A 1462.9685,1462.9685 0 0 0 594.10156,351.51562 c -2.427,1.92884 -4.84921,3.86506 -7.26562,5.81055 a 1462.9685,1462.9685 0 0 0 -95.77735,84.14063 c -6.85862,6.5632 -13.66674,13.19816 -20.41992,19.9082 A 1462.9685,1462.9685 0 0 0 257.63281,730.91406 c 1.1778,0.33437 2.42845,0.6427 3.75,0.89063 6.09451,1.14334 144.84516,1.43789 308.33399,0.65625 163.48883,-0.78176 269.97984,-0.63179 236.64648,0.33203 -33.33332,0.96385 186.89453,1.75195 489.39452,1.75195 302.5,0 501.5905,-0.70683 442.4238,-1.57226 -59.1666,-0.86544 113.334,-1.59451 383.334,-1.61719 309.874,-20.53032 561.4815,-2.14996 433.3321,1.67383 l -57.5743,1.71875 48.75,0.65625 c 26.8135,0.3609 81.7009,-0.24384 121.9707,-1.34375 52.2114,-1.42607 65.0358,-14.37012 71.2129,-8.90235 -4.5789,-6.932 -16.5655,-25.65483 -30.6074,-46.99023 a 1462.9685,1462.9685 0 0 0 -151.541,-188.78906 c -5.4358,-5.6681 -10.9095,-11.29038 -16.4219,-16.86524 a 1462.9685,1462.9685 0 0 0 -91.6152,-85.35156 c -4.2208,-3.61837 -8.4539,-7.21671 -12.709,-10.7832 A 1462.9685,1462.9685 0 0 0 1500,37.03125 Z M 2739.207,725.1582 c 1.5112,2.28777 2.3238,3.45933 2.0059,2.8086 -0.6074,-1.24322 -1.2628,-2.15087 -2.0059,-2.8086 z m -2325.42184,2.20899 c 24.16666,2.2e-4 48.20117,0.12173 66.26953,0.36328 36.13674,0.4831 5.70244,0.87763 -67.63086,0.87695 -73.33336,-7.2e-4 -102.89973,-0.39652 -65.70313,-0.8789 18.59832,-0.24121 42.89779,-0.36156 67.06446,-0.36133 z m -0.14844,152.71484 c -131.66668,-0.0592 -225.07617,0.72217 -207.57617,1.73633 l 31.81836,1.84375 -32.69922,0.59375 -30.69141,0.55469 a 1462.9685,1462.9685 0 0 0 -12.48242,25.83984 l 17.98633,1.62305 18.49219,1.66797 -19.69727,1.36132 c -10.83334,0.74964 70.98502,1.37942 181.81836,1.39454 110.83334,0.0166 181.74285,-0.82307 157.57617,-1.86524 -24.16664,-1.04235 61.0612,-1.63218 189.39453,-1.31055 128.33333,0.32153 208.78711,-0.24992 178.78711,-1.26953 -30,-1.0196 396.47852,-2.148 947.72852,-2.50781 544.3188,-0.35506 990.5996,-1.14913 1001.7441,-1.77539 a 1462.9685,1462.9685 0 0 0 -10.3476,-23.12305 l -1195.9844,-0.69726 c -658.72765,-0.3854 -1147.91338,-1.43414 -1087.08007,-2.33008 74.89651,-1.10298 33.31762,-1.66376 -128.78711,-1.73633 z M 2280.3027,1052.4473 c -125,0.012 -220.4544,1.0451 -212.1211,2.2968 8.3334,1.2532 -48.2578,1.831 -125.7578,1.2871 -77.5,-0.5438 -135.4537,0.1003 -128.7871,1.4336 6.6667,1.3335 -47.1973,2.0509 -119.6972,1.5938 -72.5,-0.4571 -119.545,0.044 -104.545,1.1152 15,1.0707 -210.6823,1.9473 -501.5156,1.9473 -290.83335,0 -512.42383,-0.711 -492.42382,-1.5801 20.00001,-0.869 -81.86153,-1.5496 -226.35742,-1.5156 -144.49591,0.036 -260.40346,0.9922 -257.57422,2.125 4.20778,1.6849 3.93481,2.0992 -1.4961,2.2734 -3.01674,0.097 -5.07073,0.3594 -6.84765,2.0313 a 1462.9685,1462.9685 0 0 0 -16.439456,63.4336 c 0.88232,-0.3249 2.098633,-1.2578 3.650391,-2.6621 9.50513,-8.6021 18.452115,-6.3464 23.587895,5.9453 6.09628,14.5905 3.9792,18.5494 -12.08985,22.5957 -16.938334,4.2651 -23.159639,9.6928 -30.874998,35.7129 a 1462.9685,1462.9685 0 0 0 -18.064453,106.5097 l 45.857422,0.416 c 26.489329,0.2401 219.300119,1.4103 428.466799,2.5997 410.04676,2.3315 1522.06376,1.2913 2078.02926,-1.9434 l 341.8086,-1.9883 a 1462.9685,1462.9685 0 0 0 -28.4765,-147.414 c -0.629,3.9548 -1.0641,13.221 -1.6036,25.9296 -1.6757,39.4771 -7.4678,53.2749 -25.1835,60.3633 -12.0402,4.8176 -33.3633,-0.1985 -33.3633,-3.7812 0,-0.9943 2.4564,-19.2892 9.3476,-27.0449 16.4751,-18.5421 23.1567,-23.906 23.2383,-42.8418 0.081,-18.9086 6.5032,-33.6807 13.9024,-37.6407 3.1335,-1.677 5.8634,-2.511 6.4472,-7.1289 a 1462.9685,1462.9685 0 0 0 -15.3769,-48.8281 c -3.4203,-0.9277 -8.9859,-1.3211 -18.2168,-1.543 l -21.7657,-0.5234 19.6973,-2.2188 c 11.3655,-1.2799 -9.7834,-1.8433 -50,-1.33 -41.308,0.5271 -64.1426,-0.098 -56.0605,-1.5371 7.9829,-1.4215 -13.375,-1.9559 -51.5157,-1.2872 -41.1148,0.721 -62.3569,0.1293 -57.5761,-1.6035 4.703,-1.7048 -28.0456,-2.322 -86.3633,-1.6289 -51.6667,0.6142 -87.8028,0.058 -80.3027,-1.2363 7.4999,-1.2944 -88.6368,-2.3434 -213.6368,-2.332 z m -1137.8789,11.5996 c 34.8769,0 69.7546,0.1155 96.2129,0.3476 52.9167,0.4643 9.6205,0.8457 -96.2129,0.8457 -105.8333,0 -149.12758,-0.3814 -96.2109,-0.8457 26.4583,-0.2321 61.334,-0.3476 96.2109,-0.3476 z m 254.627,20.6816 c 59.9573,0.1285 137.025,4.302 244.3125,2.6875 127.5156,-1.9189 285.6757,19.623 291.2734,25.2207 4.0031,4.0031 -53.2408,37.3138 -106.8789,42.9258 -44.7053,4.6774 -78.4245,17.1156 -248,27.0723 -192.4974,11.3026 -261.8273,11.3664 -308.8691,35.164 -17.6243,8.9158 -50.5707,-0.7458 -146.0391,-7.58 -84.8843,-6.0766 -117.6346,0.2649 -136.87304,9.5781 -21.02611,10.1785 -88.96003,28.1185 -198.90429,36.1679 -50.09874,3.6679 -152.51213,-17.1823 -156.67774,-21.3769 -1.3841,-1.3937 4.0117,-11.943 10.26172,-16.9609 6.24998,-5.0179 15.145,-5.7109 12.07031,-6.3477 -7.42461,-1.5376 0.25901,4.4656 -59.14258,28.1035 -19.41505,7.7259 -58.84907,12.6133 -68.61718,15.6152 -27.86801,8.5645 -66.03706,-1.5769 -74.10938,-7.3691 -27.45233,-19.6981 59.62952,-108.4946 125.8086,-122.3516 29.16015,-6.1057 63.42187,-8.8539 122.89062,6.1856 80.64828,20.3957 89.7639,18.0977 128.92578,1.5859 51.22371,-21.5974 138.90713,-37.6022 268.06838,-16.0215 85.7092,14.3206 71.6245,22.6382 119.8515,1.7598 30.9269,-13.3888 53.162,-21.1998 88.3731,-27.7949 26.4854,-4.9608 56.301,-6.3408 92.2754,-6.2637 z m 929.9531,13.0488 c 10.1391,0 33.7563,13.0217 59.5352,15.1426 l 42.248,3.4766 31.8184,1.539 c 39.4451,1.9072 58.178,-0.2417 85.25,19.6875 32.039,23.5858 54.9603,62.8935 42.0957,67.8301 -8.0149,3.0756 -62.6943,0.5015 -106.4004,-12.8945 -53.1638,-16.2949 -48.8774,-7.473 -80.9883,-4.0176 -35.7223,3.8441 -47.0397,6.566 -156.8242,33.1133 -99.2772,24.0065 -155.2927,29.039 -198.3848,33.9043 -31.261,3.5295 -81.5714,-4.9564 -102.5351,-8.4863 -34.6205,-5.8295 -69.2832,-28.6493 -69.2832,-41.2227 0,-10.0004 29.7893,-19.691 55.2128,-10.625 70.921,25.2902 81.7359,21.5671 182.8321,-15.498 31.4361,-11.5256 72.2331,-23.6221 88.0664,-27.3125 54.0374,-12.595 61.6797,-8.3527 83.1894,-27.8457 19.4115,-17.5915 26.8819,-26.7911 44.168,-26.7911 z m 464.2422,7.7129 c 3.133,-0.021 6.1152,0.3176 8.9121,1.0196 16.6894,4.1887 54.7973,52.7264 49.1504,61.8632 -0.987,1.597 -16.2958,10.8929 -22.7832,9.8555 -18.5443,-2.9653 -15.1828,0.729 -45.5723,28.7656 -18.9503,17.4831 -40.3675,26.5566 -53.2969,32.6192 -15.2111,7.1325 -29.431,7.9091 -47.373,8.6133 -28.9903,1.1378 -64.4766,-19.511 -64.4766,-29.3887 0,-6.301 22.635,-14.9335 43.9922,-17.3691 29.4667,-3.3605 35.1696,-14.1998 55.4453,-42.9239 24.7579,-35.0738 54.0709,-52.9065 76.002,-53.0547 z m -2437.44141,12.7032 c 22.36631,-0.1849 94.30466,26.1865 98.98828,39.5039 1.9324,5.495 -12.96075,26.7127 -14.97656,28.7285 -5.1752,5.1752 -34.3928,19.1403 -91.50196,24.2812 -30,2.7005 -41.80408,-8.1409 -44.8125,-7.2382 -11.69039,3.5074 -20.07078,0.3615 3.5293,3.4414 23.96601,3.1275 37.8644,19.5887 34.12109,23.332 -2.86848,2.8685 -70.06154,34.0244 -108.6875,39.0879 l -30.40625,-7.7774 c -33.50827,4.3926 -88.74562,-11.4271 -100.535152,-14.4824 -3.106984,-0.8052 -12.842406,-14.5639 -12.302735,-17.4277 0.651806,-3.459 22.576077,-17.6261 35.021487,-20.3809 34.40173,-7.6148 73.08223,-12.346 82.15234,-17.7168 7.79781,-4.6174 5.43017,1.5437 4.68359,-7.8613 -0.82426,-10.3838 6.80928,-12.8917 17.67774,-15.7227 6.31204,-1.6441 29.53125,-11.1736 52.03125,-13.83 65.93376,-7.7845 68.43359,-17.5796 68.43359,-32.8516 0,-2.1072 2.44208,-3.0517 6.58399,-3.0859 z m 988.61911,562.9492 c -845.37699,0.038 -1267.081042,2.3419 -1291.443331,7.0605 a 1462.9685,1462.9685 0 0 0 50.896481,237.8477 c 1.01471,-1.95 0.73114,-12.7755 -0.1582,-39.6875 -0.82615,-25 -2.361129,-49.7126 -3.412109,-54.916 -1.263054,-6.2535 -0.529384,-10.584 2.164059,-12.7735 22.12931,-17.989 26.98218,-23.5447 31.65235,-36.2402 9.16218,-24.9067 9.86596,-24.1796 14.9082,15.3594 3.63944,28.5388 -6.3698,89.0829 -22.87305,138.3418 -4.02876,12.025 -7.42143,24.5432 -8.5625,31.1992 a 1462.9685,1462.9685 0 0 0 18.43555,55.4805 c 2.35992,3.8346 4.4742,6.378 5.98633,6.7734 4.67174,1.2217 5.07948,2.1686 1.9043,4.4101 -2.81543,1.9877 -1.74097,2.3761 3.5332,1.2774 23.10018,-4.8122 270.66088,-5.4384 918.18162,-2.3242 397.5,1.9117 773.3186,4.0379 835.1524,4.7246 l 112.4238,1.248 28.4844,13.3438 c 15.6662,7.3395 43.1892,22.4515 61.1621,33.582 57.3702,35.5291 84.6871,46.958 127.9277,53.5195 8.3333,1.2646 31.3008,2.4699 51.0391,2.6778 73.0009,0.769 128.6996,-17.0778 244.416,-78.3106 l 50,-26.457 125.7578,-0.5176 c 69.1667,-0.2843 134.2162,-1.324 144.5547,-2.3105 l 16.3672,-1.5606 a 1462.9685,1462.9685 0 0 0 34.1426,-93.5351 c 0.7534,-4.467 1.1226,-8.242 1.0097,-11.0703 -0.3164,-7.9246 1.3203,-14.6954 4.3946,-18.1836 1.5269,-1.7326 3.2719,-4.8759 5.1582,-9.0977 a 1462.9685,1462.9685 0 0 0 43.582,-212.2715 c -35.34,-4.031 -789.2718,-7.6269 -1606.7852,-7.5898 z m 338.7227,37.5566 c 52.5792,-0.2247 108.5974,8.1064 138.5312,21.8106 16.9543,7.7619 23.0541,14.9401 17.4551,20.539 -1.6861,1.6862 -17.3345,4.3041 -34.7734,5.8184 -36.09,3.1337 -77.6442,13.1802 -120.1289,29.043 -88.8756,33.1839 -127.2261,68.4614 -101.9278,93.7597 9.1005,9.1004 9.4312,12.154 1.7559,16.2617 -15.3262,8.2023 -89.803,11.7812 -442.6641,21.2637 -96.2577,2.5868 -95.9898,2.5383 -153.03122,26.6485 -43.75684,18.495 -59.08984,22.1489 -59.08984,14.08 0,-15.3805 36.65241,-49.8692 81.89456,-77.0605 51.4979,-30.9512 63.3847,-32.786 236.2871,-36.4512 133.8883,-2.8381 166.8196,-5.6263 192.3125,-16.2871 16.851,-7.0469 22.2695,-12.7764 31.7519,-33.5723 20.3552,-44.6408 79.3318,-73.8233 168.916,-83.582 13.5348,-1.4744 27.9888,-2.2086 42.711,-2.2715 z M 628.58203,1733.334 c 27.10602,0 32.73907,0.9485 46.5918,7.8515 17.95691,8.9484 21.76159,16.9578 14.61719,30.7735 -22.00642,42.5557 -175.74914,124.7137 -243.60157,130.1777 -21.1274,1.7014 -22.61672,1.3736 -37.8789,-8.3437 -23.08974,-14.7011 -43.15339,-14.3541 -78.00782,1.3457 -14.16666,6.3812 -39.31029,16.3877 -55.875,22.2383 -22.2273,7.8505 -36.51682,10.9398 -54.54492,11.791 -21.99109,1.0383 -38.06445,-1.7075 -38.06445,-6.5039 0,-0.9759 11.93414,-14.3167 26.52148,-29.6446 24.35796,-25.5944 30.38507,-34.6891 47.38868,-71.5136 9.82014,-21.2675 31.93632,-24.6219 111.54492,-16.9258 35.0374,3.3873 62.23402,4.5511 73.47656,3.1465 16.71711,-2.0887 18.9372,-3.3617 35,-20.086 30.75768,-32.0243 93.46503,-54.3066 152.83203,-54.3066 z m 247.82031,0 c 7.84109,0 14.09785,5.4772 20.62305,18.0566 5.45839,10.5228 4.9323,45.2466 -0.85351,56.2774 l -4.72071,8.998 h -29.8164 c -27.05156,0 -31.12864,0.7713 -43.95704,8.3125 -17.06366,10.0309 -30.61265,25.3719 -46.60742,52.7676 -6.58817,11.2841 -15.16827,24.3167 -19.0664,28.9609 -8.96096,10.6762 -13.92575,10.6251 -24.8086,-0.2578 -22.39272,-22.3927 -14.22184,-36.7497 54.39453,-95.5605 28.12135,-24.1028 54.82262,-48.6648 59.33594,-54.5821 9.93695,-13.028 25.29535,-22.9726 35.47656,-22.9726 z m 2053.38086,27.4609 c 0.2578,0.072 0.4018,0.5419 0.4277,1.4219 0.2448,8.2996 -36.93,112.3487 -43.1171,120.6816 -3.8904,5.2396 -13.3813,19.7539 -21.0918,32.2539 -14.4154,23.3696 -32.668,43.7493 -32.668,36.4747 0,-2.2291 10.1624,-19.1901 22.584,-37.6895 24.2283,-36.0832 47.3733,-82.4229 60.6914,-121.5137 7.0898,-20.8096 11.7814,-32.0172 13.1738,-31.6289 z m -830.8418,2.5215 c 11.2541,0.037 21.0968,1.2448 28.6367,3.7656 24.949,8.3413 20.5677,12.1417 -44.3945,38.5157 -110.5383,44.8772 -132.2992,61.4727 -130.8516,99.789 0.6547,17.3276 0.052,19.1643 -9.5332,29.0645 -19.2714,19.9051 -65.2685,39.745 -113.2539,48.8476 -28.9369,5.4893 -52.6061,5.9151 -55.6426,1.002 -3.7731,-6.1051 26.257,-30.1787 61.2754,-49.1231 52.1976,-28.2379 63.9057,-40.0928 69.1621,-70.0254 4.6203,-26.3095 31.1405,-51.2527 79.254,-74.541 35.1179,-16.998 81.5852,-27.4071 115.3476,-27.2949 z m 552.5742,18.5586 c 15.9729,0 42.4239,3.5618 42.4239,5.7207 0,1.0465 -18.0691,10.916 -40.1524,21.9336 -22.0833,11.0176 -48.332,26.1618 -58.332,33.6523 -10,7.4906 -23.9226,16.5199 -30.9395,20.0664 -23.6269,11.9417 -25.2094,6.7091 -5.5449,-18.3398 26.7702,-34.1002 69.2405,-63.0272 92.5449,-63.0332 z m 222.1074,5.252 c 6.351,0.01 8.1954,6.1108 8.1954,21.0546 0,14.9049 -0.5209,16.0606 -7.2286,16.0606 -13.5178,0 -39.0216,10.2487 -49.0566,19.7129 -6.5919,6.217 -11.2831,14.5393 -13.7578,24.4062 -5.3395,21.2888 -27.7221,42.4102 -64.0488,60.4395 -36.5777,18.1538 -58.3416,20.1662 -93.9395,8.6875 -16.8857,-5.4449 -18.7371,-10.2149 -3.9668,-10.2149 29.0021,0 124.4977,-46.9893 134.8652,-66.3613 2.4522,-4.5819 2.0113,-7.1157 -1.9179,-11.0449 -4.3019,-4.3019 -8.798,-4.7744 -28.7813,-3.0313 -15.6137,1.362 -23.6836,0.9984 -23.6836,-1.0664 0,-4.5251 5.4249,-6.978 67.0899,-30.334 30.601,-11.5903 60.5458,-23.1458 66.5449,-25.6796 4.0247,-1.7 7.2004,-2.6317 9.6855,-2.6289 z M 406.41016,2024.5781 c 3.84469,0 7.80366,0.1564 10.94726,0.4844 6.28713,0.656 1.88544,1.2047 -9.78125,1.2168 -11.66668,0.014 -16.81115,-0.5239 -11.43164,-1.1934 2.68976,-0.3345 6.42093,-0.5034 10.26563,-0.5078 z m -52.25977,0.027 c 2.19697,0.011 4.28575,0.2067 5.73438,0.5859 2.89724,0.7585 -0.18685,1.352 -6.85352,1.3184 -6.66667,-0.034 -9.03896,-0.6541 -5.26953,-1.3789 1.88471,-0.3624 4.1917,-0.5365 6.38867,-0.5254 z m 512.22656,3.0078 c 6.04167,0 11.96401,0.1559 16.3086,0.4609 8.68913,0.61 0.80015,1.1018 -17.53321,1.0957 -18.33331,-0.01 -25.44301,-0.5042 -15.79882,-1.1074 4.82209,-0.3018 10.98176,-0.4514 17.02343,-0.4492 z m -654.25586,0.053 c 1.37311,0 2.74545,0.2106 3.78711,0.6309 2.08334,0.8406 0.37956,1.5293 -3.78711,1.5293 -4.16666,0 -5.87044,-0.6887 -3.78711,-1.5293 1.04167,-0.4203 2.41401,-0.6309 3.78711,-0.6309 z m 1224.24221,2.9805 c 6.8655,0 13.7311,0.1475 18.9394,0.4433 10.4167,0.5918 1.8939,1.0762 -18.9394,1.0762 -20.8333,0 -29.3562,-0.4844 -18.9395,-1.0762 5.2084,-0.2958 12.074,-0.4433 18.9395,-0.4433 z m 1384.8496,0.027 c 1.9223,0 3.8444,0.1912 5.3027,0.5723 2.9167,0.7622 0.5306,1.3848 -5.3027,1.3848 -5.8334,0 -8.2214,-0.6226 -5.3047,-1.3848 1.4584,-0.3811 3.3823,-0.5723 5.3047,-0.5723 z m -227.2734,3.0528 c 1.3731,0 2.7454,0.2105 3.7871,0.6308 2.0833,0.8407 0.3795,1.5293 -3.7871,1.5293 -4.1667,0 -5.8705,-0.6886 -3.7872,-1.5293 1.0417,-0.4203 2.414,-0.6308 3.7872,-0.6308 z M 331.70898,2231.6699 c -56.21426,0.072 -85.2902,1.0673 -94.78515,2.9356 A 1462.9685,1462.9685 0 0 0 1500,2962.9688 1462.9685,1462.9685 0 0 0 2759.084,2241.8203 c -2.9199,-1.4802 -10.7899,-1.5109 -29.5391,-0.6328 -102.5674,4.8037 -339.1801,7.9816 -703.0586,9.4395 -408.5913,1.637 -530.6163,0.519 -1065.88083,-9.7559 -331.61272,-6.3656 -525.82613,-9.3333 -628.89649,-9.2012 z"
       transform="matrix(0.26458333,0,0,0.26458333,0,-496.75002)"
       id="path840"
       inkscape:connector-curvature="0" />
    <path
       style="fill:#98846f;fill-opacity:1;stroke-width:3.030303"
       d="M 1500,37.03125 A 1462.9685,1462.9685 0 0 0 711.67773,267.73828 c -1.61811,1.05054 -3.24745,2.12153 -4.87109,3.18164 A 1462.9685,1462.9685 0 0 0 491.91016,440.71875 c -7.31841,6.98657 -14.55984,14.03715 -21.72852,21.14648 a 1462.9685,1462.9685 0 0 0 -84.88281,91.11524 c -2.39918,2.79128 -4.78677,5.59024 -7.16406,8.39648 A 1462.9685,1462.9685 0 0 0 253.35742,737.88672 c 12.67374,0.73572 42.25143,0.98548 76.50196,0.53906 45.70031,-0.59569 186.00252,0.10798 311.7832,1.56445 125.78067,1.45648 652.34242,2.53274 1170.13862,2.39063 684.5244,-0.18806 901.5139,-0.86982 936.2149,-3.27734 A 1462.9685,1462.9685 0 0 0 2554.6719,486.66211 c -3.6374,-3.78317 -7.2908,-7.5462 -10.961,-11.28516 a 1462.9685,1462.9685 0 0 0 -97.707,-91.02539 c -2.3754,-2.02098 -4.7573,-4.03219 -7.1445,-6.03711 A 1462.9685,1462.9685 0 0 0 1500,37.03125 Z M 610.71875,883.89453 c -240.61355,-0.002 -394.67573,0.12732 -404.10742,0.38867 l -32.30078,0.89649 a 1462.9685,1462.9685 0 0 0 -12.3086,25.47851 l 17.99024,1.85742 v -0.004 c 10.17065,1.04991 90.76627,1.3916 179.09961,0.75781 88.33334,-0.63379 681.8561,-1.98246 1318.9394,-2.99609 632.5672,-1.00641 1150.333,-2.19199 1157.6504,-2.64844 A 1462.9685,1462.9685 0 0 0 2825.668,885.25 l -1291.5332,-0.95898 c -355.6372,-0.26283 -682.8025,-0.39497 -923.41605,-0.39649 z M 2287.4707,1056.416 c -193.2213,-0.1603 -403.5268,1.2455 -566.2578,4.2735 -167.7141,3.1204 -360.0269,3.9399 -695.4551,2.9609 -755.54183,-2.2051 -915.49107,-1.9313 -922.53905,1.6953 a 1462.9685,1462.9685 0 0 0 -16.539062,63.7813 c 0.845206,-0.4294 2.043189,-1.3912 3.710937,-2.9004 9.50513,-8.6021 18.452115,-6.3464 23.587895,5.9453 6.09628,14.5905 3.9792,18.5494 -12.08985,22.5957 -16.938334,4.2651 -23.159639,9.6928 -30.874998,35.7129 a 1462.9685,1462.9685 0 0 0 -18.064453,106.5097 l 45.857422,0.416 c 26.489329,0.2401 219.300119,1.4103 428.466799,2.5997 410.04676,2.3315 1522.06376,1.2913 2078.02926,-1.9434 l 341.8086,-1.9883 a 1462.9685,1462.9685 0 0 0 -28.1699,-146.0508 c -0.2217,2.4632 0.047,9.3035 -0.4961,22.0918 -1.6757,39.4771 -7.9972,53.6284 -25.7129,60.7168 -12.0402,4.8176 -43.9707,2.8074 -43.9707,-0.7754 0,-0.9942 9.8803,-17.3458 16.7715,-25.1015 16.4751,-18.542 22.0961,-31.1541 22.1777,-50.0899 0.081,-18.9016 11.4543,-31.7356 18.8457,-35.6914 2.4946,-1.335 4.3692,-1.6693 4.9649,-4.2031 a 1462.9685,1462.9685 0 0 0 -15.5449,-49.4824 c -14.1393,-1.039 -74.0164,-3.5142 -144.7578,-5.9434 -94.3914,-3.2412 -270.5268,-4.9686 -463.7481,-5.1289 z m 83.7402,36.2637 c 6.4849,-0.06 12.9425,0.8316 18.9141,3.3125 l 34.6621,14.4004 36.8184,-1.7656 c 39.2176,-4.6404 72.7639,6.4066 99.8359,26.3359 32.039,23.5858 39.7436,73.6904 26.8789,78.6269 -8.0148,3.0756 -73.2255,2.5504 -116.9316,-10.8457 -53.1638,-16.2949 -43.6664,-17.7249 -75.7774,-14.2695 -35.7223,3.8441 -44.5241,4.9801 -154.3086,31.5274 -99.2772,24.0065 -149.2711,25.4276 -192.3632,30.2929 -31.2611,3.5296 -89.2082,8.03 -110.1719,4.5 -34.6205,-5.8294 -67.4199,-36.8719 -67.4199,-49.4453 0,-10.0004 30.0276,-30.9976 55.4511,-21.9316 70.9209,25.2902 83.1597,32.7916 184.2559,-4.2735 31.4361,-11.5255 69.862,-23.7256 85.6953,-27.416 54.0375,-12.595 58.2363,-10.5675 79.7461,-30.0605 19.4114,-17.5915 30.6651,-20.0762 47.9512,-20.0762 7.6043,0 27.3089,-8.7328 46.7636,-8.9121 z m -671.5214,6.2402 c 117.6213,-0.054 218.1994,12.3303 223.4472,17.5781 4.0031,4.0032 -39.4986,47.6361 -93.1367,53.2481 -44.7053,4.6774 -63.4538,-4.904 -233.0293,5.0527 -192.4975,11.3026 -274.8273,26.1946 -321.8691,49.9922 -17.6243,8.9158 -56.0766,3.3055 -151.545,-11.4551 -84.8843,-13.1241 -129.65602,-10.1184 -148.89449,9.9961 -21.02612,21.9837 -90.46003,12.6284 -200.4043,20.6778 -50.09873,3.6678 -119.10588,2.218 -123.27148,-1.9766 -1.3841,-1.3937 -11.15236,-20.6383 -4.90235,-25.6562 6.24998,-5.0179 9.11329,-3.4422 9.11329,-6.5821 0,-13.912 -9.77615,-5.3234 -69.17774,18.3145 -19.41505,7.7259 -47.04243,25.0019 -56.81055,28.0039 -27.868,8.5644 -67.40229,-3.659 -75.4746,-9.4512 -27.45234,-19.6981 59.37366,-95.6333 125.55273,-109.4902 29.16015,-6.1057 55.76172,-5.0063 115.23047,10.0332 80.64828,20.3957 88.30296,10.8555 127.46484,-5.6563 51.22371,-21.5973 121.40713,-46.4674 250.56838,0.1426 85.7092,30.9296 96.0893,21.4174 144.3164,0.5391 30.9268,-13.3888 50.162,-19.1999 85.373,-25.795 70.6277,-13.2286 202.0608,-14.7488 373.7207,-17.332 7.9698,-0.1199 15.8871,-0.18 23.7286,-0.1836 z m 1096.2988,9.2715 c 2.3254,0.01 4.5468,0.2684 6.6445,0.7949 16.6894,4.1888 53.0297,49.5429 47.3828,58.6797 -0.9869,1.597 -15.5888,8.7718 -22.0761,7.7344 -18.5444,-2.9654 -18.3644,-6.6968 -48.754,21.3398 -18.9502,17.4831 -37.1858,34.3359 -50.1152,40.3985 -15.2112,7.1325 -29.0775,12.1513 -47.0195,12.8554 -28.9903,1.1379 -65.5371,-17.0363 -65.5371,-26.914 0,-6.301 19.4533,-24.125 40.8105,-26.5606 29.4667,-3.3604 37.9977,0.2964 58.2735,-28.4277 25.642,-36.3265 57.9115,-59.967 80.3906,-59.9004 z m -2428.38088,3.2148 c 20.06191,-0.2491 91.72965,30.2524 96.5,43.8165 1.9324,5.495 -15.08184,40.5017 -17.09765,42.5175 -5.1752,5.1752 -13.53537,-1.3674 -70.64454,3.7735 -30,2.7005 -37.91346,4.2341 -40.92187,5.1367 -11.6904,3.5075 -2.03953,8.8459 21.56055,11.9258 23.96602,3.1275 30.7941,5.4481 27.05078,9.1914 -2.86847,2.8685 -125.92482,35.085 -164.55078,40.1484 l -23.33399,2.8281 c -33.50827,4.3926 -102.888199,-6.4778 -114.677732,-9.5332 -3.106984,-0.8052 4.835328,-18.4506 5.375,-21.3144 23.279222,-35.9859 23.636622,-40.962 36.082032,-43.7168 34.40173,-7.6148 46.56466,-16.9418 55.63476,-22.3125 7.79781,-4.6174 34.42236,1.5437 33.67579,-7.8613 -0.82427,-10.3838 -0.26104,-11.1241 10.60742,-13.9551 6.31204,-1.6442 29.88476,-5.1619 52.38476,-7.8184 65.93376,-7.7844 87.17188,-14.7514 87.17188,-30.0234 0,-1.8965 1.90073,-2.762 5.18359,-2.8028 z m 974.81638,569.7364 c -845.37699,0.038 -1267.081042,2.3419 -1291.443331,7.0605 a 1462.9685,1462.9685 0 0 0 7.207031,59.3828 c 0.313223,1.5593 0.614802,3.077 0.939453,4.6719 a 1462.9685,1462.9685 0 0 0 28.042969,124.9473 c 1.522301,6.3027 2.94225,12.0933 4.271484,17.4414 a 1462.9685,1462.9685 0 0 0 44.570314,134.1289 l 36.71484,-0.3828 c 111.67488,-1.1669 646.17436,-0.232 951.51564,1.664 192.5,1.1954 468.7655,2.421 613.9238,2.7246 l 263.9238,0.5528 17.8946,-11.5918 c 22.8042,-14.7718 44.5042,-33.1526 93.6523,-79.3281 67.4581,-63.378 109.3285,-92.6521 153.6426,-107.418 53.1005,-17.6936 108.7966,-11.9957 155.4473,15.9023 35.3528,21.1418 66.5687,56.1253 116.416,130.4668 10.4493,15.584 23.802,33.6511 29.6738,40.1504 l 10.6758,11.8184 103.4355,-0.014 c 56.8894,-0.01 120.8976,-0.9018 142.2403,-1.9902 21.5296,-1.098 31.6553,-0.588 38.3925,-5.668 a 1462.9685,1462.9685 0 0 0 85.6485,-336.9297 c -35.34,-4.031 -789.2718,-7.6269 -1606.7852,-7.5898 z m 996.4043,213.4297 c -4.7143,0 -9.574,0.1132 -14.5859,0.3261 -82.0027,3.4833 -140.2588,31.7702 -166.3887,80.795 -19.3723,36.3461 -14.4801,67.7684 14.8164,95.1718 21.6523,20.2532 60.3852,37.9148 92.4824,42.1719 77.4364,10.2706 167.3641,-27.206 195.1719,-81.3359 18.4664,-35.9461 10.5969,-81.5002 -18.2734,-105.793 -25.6156,-21.5541 -57.651,-31.374 -103.2227,-31.3359 z M 378.03125,2239.3984 c -70.71211,0 -129.40968,0.5954 -137.57617,1.3614 a 1462.9685,1462.9685 0 0 0 23.3164,40.6504 c 5.06061,7.7417 10.61979,16.1171 16.39454,24.7128 A 1462.9685,1462.9685 0 0 0 1500,2962.9688 1462.9685,1462.9685 0 0 0 2694.502,2343.0723 c 8.3846,-12.1296 17.2301,-25.1509 25.539,-37.5703 a 1462.9685,1462.9685 0 0 0 33.9297,-55.3438 c -3.7847,-1.6846 -26.4723,-1.8869 -71.3945,-0.6621 -356.2515,9.7133 -1115.2914,10.1171 -1593.1817,0.8477 -517.3222,-10.0344 -576.30093,-10.9423 -711.36325,-10.9454 z"
       transform="matrix(0.26458333,0,0,0.26458333,0,-496.75002)"
       id="path838"
       inkscape:connector-curvature="0" />
    <path
       style="fill:#727a80;fill-opacity:1;stroke-width:3.030303"
       d="m 1500,37.03125 a 1462.9685,1462.9685 0 0 0 -507.8418,92.02344 c 16.4105,0.14892 86.7246,-0.79313 170.0098,-2.3125 179.1292,-3.26786 437.2497,-1.69876 571.166,3.47265 118.3165,4.569 285.8223,12.34391 290.9082,13.50196 5.5267,1.25853 18.904,1.68266 24.4336,1.12304 A 1462.9685,1462.9685 0 0 0 1500,37.03125 Z m 790.9082,1022.06055 c -154.1667,0 -434.3932,1.9201 -622.7266,4.2676 -262.554,3.2726 -465.4105,3.6842 -869.69722,1.7656 -539.02991,-2.5579 -683.22745,-2.388 -695.56055,1.0293 a 1462.9685,1462.9685 0 0 0 -16.244142,62.9727 c 0.845206,-0.4294 2.043189,-1.3912 3.710937,-2.9004 11.950695,-10.8153 24.999495,-3.9057 25.820315,13.6718 0.42363,9.072 -0.6164,10.1643 -14.69532,15.4121 -8.333328,3.1063 -17.689466,8.1441 -20.791011,11.1954 -2.642813,2.5999 -7.173124,15.6803 -11.853515,32.3593 a 1462.9685,1462.9685 0 0 0 -15.921875,98.1172 l 73.130861,0.4258 c 41.48933,0.2413 265.66213,1.3974 498.16211,2.5684 623.81171,3.1418 2313.68751,-1.3863 2321.50981,-6.2207 0.3628,-0.2243 0.6668,-0.6588 0.9257,-1.25 a 1462.9685,1462.9685 0 0 0 -28.6132,-146.3887 c -0.9144,4.7602 -2.1482,17.0615 -3.043,31.0801 -2.2577,35.3696 -6.3905,45.0197 -22.0762,51.5566 -13.117,5.4665 -29.9499,6.8821 -31.4219,2.6426 -0.659,-1.8982 5.6756,-11.3044 14.0762,-20.9043 16.4743,-18.826 21.3271,-31.0582 21.3535,-53.8242 0.018,-15.5371 6.0395,-30.6008 13.3555,-33.4082 1.0378,-0.3983 1.7686,-0.956 2.1914,-1.9356 a 1462.9685,1462.9685 0 0 0 -15.6465,-51.1972 c -26.8372,-5.6821 -315.7516,-11.0352 -605.9453,-11.0352 z m 32.4922,47.5879 c 5.2767,0.013 12.0953,1.2162 24.4336,3.6191 14.5245,2.8287 35.8912,7.9454 47.4824,11.3711 18.7679,5.5467 25.9006,6.0104 65.1524,4.2344 l 44.0761,-1.9941 18.3028,8.8261 c 19.5023,9.4058 53.5617,38.7215 60.4394,52.0215 2.4304,4.6998 3.107,9.7124 1.6328,12.0977 -4.4151,7.1438 -40.606,1.4916 -95.1504,-14.8594 -59.197,-17.7458 -72.4117,-18.7125 -127.3613,-9.3184 -19.34,3.3064 -77.0898,16.1653 -128.332,28.5743 -95.9712,23.2405 -140.104,32.559 -179.5313,37.9062 -68.2109,9.251 -117.2136,4.7876 -151.623,-13.8066 -17.0092,-9.1915 -23.1511,-17.7171 -17.5899,-24.418 5.5602,-6.6995 26.0863,-3.5338 55.5762,8.5723 22.4868,9.2312 26.6568,9.9413 57.5762,9.7988 36.2055,-0.1667 39.1078,-0.9297 135.9121,-35.7246 21.4186,-7.6987 57.4149,-18.7311 79.9902,-24.5176 43.663,-11.1916 63.3735,-20.4857 74.0352,-34.9063 3.6244,-4.9023 12.5328,-11.1828 19.7969,-13.957 6.1706,-2.3567 9.9049,-3.5327 15.1816,-3.5195 z m -666.166,3.1484 c 106.758,-0.1497 224.7533,1.3092 234.4316,3.8457 20.9616,5.4938 3.851,11.1338 -53.7871,17.7305 -59.5541,6.816 -68.5163,7.4794 -212.1211,15.6719 -238.1159,13.5842 -320.3272,24.2079 -365.9687,47.2949 l -18.8809,9.5508 -68.1816,-2.6426 c -37.5,-1.4533 -94.7715,-2.6768 -127.2715,-2.7188 -54.56948,-0.07 -60.28543,0.4429 -74.68948,6.6934 -18.87968,8.1927 -56.53514,14.0793 -139.79492,21.8555 -112.32249,10.4905 -166.44901,11.3914 -179.65234,2.9922 -3.49164,-2.2213 -2.10978,-4.898 7.01562,-13.5938 15.37701,-14.6531 14.88703,-19.539 -1.95507,-19.539 -15.69789,0 -43.29244,8.1263 -85.16602,25.0761 -16.6667,6.7465 -39.75661,14.7733 -51.31055,17.8379 -11.55397,3.0646 -26.21348,5.5723 -32.57617,5.5723 -14.3966,0 -24.96839,-9.1692 -22.01953,-19.0957 8.59544,-28.9345 56.48661,-63.1607 106.51758,-76.125 30.60983,-7.9319 52.20705,-6.2053 111.9375,8.9551 33.8934,8.6025 64.31003,14.4108 81.39062,15.541 24.64691,1.6307 29.46088,1.0123 50,-6.42 48.62514,-17.5955 62.77649,-20.3263 106.06055,-20.4726 43.10079,-0.1458 57.37092,1.3952 150.00001,16.2031 77.7311,12.4263 107.537,11.5796 142.6367,-4.0547 66.9642,-29.8276 134.4831,-41.0443 289.1816,-48.0371 30.1405,-1.3624 90.1483,-2.0312 154.2032,-2.1211 z m 1136.4551,5.6485 c 7.1947,0.077 14.1217,2.1342 20.7148,6.2089 11.4974,7.1059 28.0195,30.575 28.0195,39.7989 0,5.146 -1.567,5.5351 -14.8867,3.7031 -18.3937,-2.5298 -23.0531,-0.2304 -49.1465,24.2578 -24.8982,23.3665 -44.6234,37.0941 -63.7441,44.3594 -9.7674,3.7113 -22.0836,5.4978 -36.6485,5.3164 -25.7998,-0.3215 -38.6538,-3.5332 -45.8125,-11.4434 -4.7104,-5.2049 -4.7549,-6.1904 -0.4746,-10.4707 2.599,-2.5989 11.1853,-5.5612 19.0821,-6.582 32.125,-4.1526 36.4456,-5.1511 45.1289,-10.4316 4.9779,-3.0274 14.3624,-13.5131 20.8535,-23.3028 27.0376,-40.7776 53.4112,-61.6656 76.9141,-61.414 z m -2419.46098,16.7695 c 15.60476,0.5614 49.56692,17.2068 58.21679,30.4082 4.9112,7.4954 4.85468,8.0461 -1.33789,13.0605 -8.89856,7.2057 -33.20116,11.5097 -102.64648,18.1797 -32.65447,3.1364 -60.14395,6.476 -61.08789,7.42 -3.43528,3.4352 2.27646,5.3052 25.55273,8.3652 28.47129,3.743 34.90783,6.3776 26.49805,10.8457 -7.5514,4.0121 -59.0557,14.6008 -107.07617,22.0137 -89.66686,13.8417 -149.893935,1.047 -73.78125,-15.6739 31.83388,-6.9934 63.3994,-17.0342 72.86132,-23.1777 5.63322,-3.6576 6.54804,-6.2514 5.03907,-14.2949 -1.68144,-8.9628 -1.00349,-10.1209 7.7207,-13.1621 5.26093,-1.834 21.4033,-4.8294 35.87109,-6.6563 85.23411,-10.7627 103.57813,-15.5195 103.57813,-26.8574 0,-3.0864 1.83883,-7.1374 4.08789,-9.0039 1.35337,-1.1232 3.61414,-1.5708 6.50391,-1.4668 z m 911.66798,550.1387 c -204.1762,0.045 -391.02502,0.8178 -622.25978,2.332 -322.5,2.1119 -592.648851,4.7099 -600.330079,5.7734 l -11.84961,1.6407 a 1462.9685,1462.9685 0 0 0 5.427735,44.7109 l 0.947265,5.582 c 1.064249,6.2664 2.147049,12.4379 3.246094,18.5313 a 1462.9685,1462.9685 0 0 0 26.730469,119.0898 c 0.450103,1.6049 0.897838,3.2186 1.351562,4.8028 l 6.080078,21.2324 A 1462.9685,1462.9685 0 0 0 96.542969,1910 l 0.230469,-20.6055 c 0.129864,-11.6666 -1.385011,-31.8666 -3.367188,-44.8886 l -3.603516,-23.6778 16.798826,-15.7168 c 11.9775,-11.2064 18.30009,-20.0662 22.03125,-30.8691 6.73545,-19.5014 8.58656,-23.0806 12.26367,-23.7188 11.61741,-2.016 15.68024,76.3072 6.41211,123.6094 -6.04826,30.8688 -21.50281,81.6106 -27.9414,91.7422 -1.30393,2.0518 -2.08939,3.7973 -2.23242,6.0918 a 1462.9685,1462.9685 0 0 0 14.74609,44.3809 l 3.57422,9.2793 48.18164,-1.4493 c 61.37506,-1.8469 867.86178,-0.091 1367.87888,2.9785 210.8334,1.2942 397.8515,2.1904 415.5957,1.9922 l 32.2617,-0.3613 21.5528,-14.7344 c 11.8542,-8.1043 39.3993,-31.2866 61.2109,-51.5156 85.4902,-79.2871 105.2903,-95.1721 145.9551,-117.0996 31.4476,-16.9574 55.74,-24.134 88.5742,-26.168 35.4018,-2.193 64.6571,3.9159 98.4863,20.5664 36.2012,17.818 72.5921,54.9139 114.6993,116.9219 17.2372,25.3839 36.453,51.9143 42.7011,58.9551 l 11.3594,12.8008 120.9238,-0.7032 c 118.496,-0.6888 151.6984,-1.6934 160.293,-6.4472 a 1462.9685,1462.9685 0 0 0 26.4785,-72.5391 c 1.4232,-6.5064 1.0398,-10.061 -0.4258,-14.1914 -4.6964,-13.2357 -4.5048,-14.0233 7.7911,-31.8984 3.9509,-5.7438 8.2064,-13.39 11.3535,-20.1328 a 1462.9685,1462.9685 0 0 0 20.8281,-81.5645 c 2.8948,-14.1925 4.7949,-25.0059 4.3672,-26.2891 -0.5773,-1.7317 -8.2517,18.7869 -17.0547,45.5958 -13.0357,39.6994 -19.6221,54.5432 -35.498,80.0078 -25.9121,41.5621 -41.8347,60.2539 -51.3301,60.2539 -11.8456,0 -9.187,-7.682 15.166,-43.8047 26.2544,-38.9431 45.0787,-75.7978 60.4336,-118.3164 15.2482,-42.2233 20.3587,-51.5577 28.0879,-51.3125 2.5081,0.08 4.1372,-0.4164 5.4433,-2.5957 a 1462.9685,1462.9685 0 0 0 7.7149,-51.045 v -1.6679 l -87.1211,-1.9512 c -47.9167,-1.0731 -430.0756,-3.5443 -849.2422,-5.4922 -300.5454,-1.3966 -522.0484,-2.0803 -726.2246,-2.0351 z m 403.8223,30.3632 c 73.7419,0.2892 140.7265,16.2328 155.0683,38.1211 4.281,6.5336 4.1663,7.5838 -1.4453,13.1954 -4.8347,4.8346 -12.3728,6.6418 -36.418,8.7304 -63.0452,5.4762 -144.8692,31.7771 -193.8613,62.3125 -36.225,22.5781 -42.4388,36.4837 -24.5508,54.9395 l 9.7246,10.0332 -6.5683,6.5683 c -11.0642,11.0642 -42.0152,14.3093 -167.4258,17.5528 -64.1667,1.6595 -141.8932,4.41 -172.7266,6.1133 -30.8333,1.7032 -82.8725,3.0797 -115.6426,3.0585 -73.627,-0.049 -92.6322,3.309 -145.4355,25.6915 -47.95064,20.3255 -63.9366,23.5427 -69.0918,13.9101 -4.78401,-8.939 3.21225,-21.4518 29.31446,-45.8691 33.95104,-31.7596 85.53744,-62.3625 117.01174,-69.416 23.9737,-5.3727 96.0733,-9.1126 176.5859,-9.1602 116.0594,-0.068 179.2297,-6.7444 203.0352,-21.457 7.0624,-4.3649 11.2893,-10.3592 14.8379,-21.043 17.5195,-52.7462 96.1016,-88.4215 204.5351,-92.8574 7.7223,-0.3159 15.4243,-0.4538 23.0528,-0.4239 z m -1061.12896,13.2071 c 27.63014,-0.1005 49.9039,6.1779 63.07618,18.7441 14.49652,13.8296 9.95999,29.2958 -15.60938,53.2129 -21.34961,19.97 -64.3076,47.1511 -110.9043,70.1719 -51.55358,25.4697 -90.38687,38.4838 -120.34961,40.332 -22.1755,1.3679 -24.13882,0.9549 -38.09375,-8 -26.61581,-17.0793 -36.19064,-16.1406 -94.58789,9.2637 -19.16666,8.338 -44.95279,17.7526 -57.30273,20.9219 -38.52804,9.8873 -75.86558,6.4826 -78.49219,-7.1563 -0.62247,-3.2322 9.722,-16.3921 27.42578,-34.8926 17.57295,-18.3637 31.01296,-35.4415 35.20508,-44.7343 15.16642,-33.62 16.99184,-36.1858 30.625,-43.0606 16.74566,-8.4443 34.1226,-8.7516 104.66211,-1.8516 68.70844,6.721 77.14139,5.3686 96.93164,-15.5429 19.09958,-20.1817 34.23537,-28.7701 74.33789,-42.1817 30.148,-10.0824 58.69665,-15.1378 83.07617,-15.2265 z m 246.49024,1.3183 c 9.89306,0 13.73268,1.7493 19.88476,9.0606 14.51331,17.2481 17.34769,56.3053 5.55469,76.5449 -5.73056,9.8349 -3.909,9.3741 -38.39844,9.6895 -21.80795,0.1994 -29.74192,1.5627 -39.59961,6.8027 -16.06938,8.5419 -30.79988,25.1175 -46.91601,52.793 -7.16837,12.3099 -16.45871,26.1315 -20.64453,30.7148 -4.18583,4.5833 -9.74086,8.3283 -12.34571,8.3223 -8.34277,-0.02 -23.98311,-11.5413 -29.09961,-21.4356 -11.0736,-21.4139 1.04427,-39.8623 57.69727,-87.8437 20.00001,-16.9388 48.79219,-42.9136 63.98438,-57.7227 25.53615,-24.8922 28.54869,-26.9258 39.88281,-26.9258 z m 1217.90232,29.8731 c 30.9297,0.2063 55.502,7.8298 55.502,18.7344 0,8.1153 -11.9418,14.9214 -59.0899,33.6816 -79.4496,31.6131 -113.9543,50.8043 -125.9922,70.0742 -4.8571,7.7752 -5.7323,12.8566 -4.3085,25.0156 1.4931,12.7517 0.6381,16.961 -5.2032,25.6289 -14.767,21.9128 -49.9424,40.923 -100.8594,54.5059 -13.3333,3.5569 -36.5156,7.239 -51.5156,8.1836 -25.268,1.5912 -27.7053,1.2364 -33.1445,-4.8262 l -5.8711,-6.5429 16.75,-15.8008 c 9.6279,-9.0828 31.8662,-24.132 52.3047,-35.3965 44.75,-24.6636 58.1369,-35.8872 62.6797,-52.5508 7.6536,-28.0744 9.4814,-32.4273 18.2344,-43.4414 27.3095,-34.3647 101.9621,-70.286 158.3085,-76.1738 7.5908,-0.7932 15.0675,-1.1394 22.2051,-1.0918 z m 562.3555,19.248 c 6.1437,-0.079 12.8975,0.3318 20.6055,1.1602 22.6355,2.4327 25.5722,3.4439 25.5722,8.8086 0,4.7702 -9.0919,10.5778 -42.6972,27.2734 -23.483,11.6667 -51.4374,27.8808 -62.1211,36.0313 -10.6838,8.1504 -24.8783,17.3237 -31.545,20.3867 -22.5828,10.3756 -31.3478,4.4307 -21.2128,-14.3887 7.554,-14.027 44.2886,-50.8075 63.207,-63.2871 16.8122,-11.0903 29.7603,-15.7469 48.1914,-15.9844 z m 221.4629,1.5059 5.539,6.8398 c 3.9341,4.8584 5.5391,11.903 5.5391,24.3145 0,18.4037 -4.3715,25.9002 -13.1406,22.5351 -6.8398,-2.6246 -33.9133,6.9909 -44.3067,15.7364 -4.8257,4.0605 -9.6893,11.7788 -10.8086,17.1504 -5.7424,27.5591 -37.3372,57.2618 -80.2285,75.4238 -24.3641,10.3168 -46.0555,13.018 -69.9394,8.709 -17.6003,-3.1754 -39.1524,-14.0631 -39.1524,-19.7774 0,-5.9206 9.6902,-10.7197 17.5137,-8.6738 14.462,3.7819 97.5737,-31.7089 120.3398,-51.3887 16.414,-14.1887 12.7543,-18.3863 -13.7109,-15.7285 -23.887,2.3989 -33.2324,0.3012 -33.2324,-7.457 0,-6.1885 14.0346,-13.5923 52.8711,-27.8887 13.4206,-4.9404 42.0217,-15.9148 63.5586,-24.3887 z m -537.4727,120.8906 c -2.424,-0.012 -4.925,-0.01 -7.5097,0.018 -83.7443,0.7467 -146.4619,30.7582 -171.7891,82.2051 -17.0648,34.6634 -11.9669,61.4347 16.7344,87.8906 23.4741,21.6377 55.4673,35.185 94.1093,39.8516 74.017,8.9385 159.4421,-27.646 185.7422,-79.5469 21.8019,-43.0239 6.1737,-90.2453 -37.4453,-113.1445 -24.4444,-12.833 -43.4815,-17.0949 -79.8418,-17.2735 z M 369.57812,2226.8984 c -66.59068,0 -122.61372,0.5193 -136.3789,1.2129 a 1462.9685,1462.9685 0 0 0 35.22656,61.4121 c 0.73412,1.0892 1.47969,2.1897 2.22266,3.2891 a 1462.9685,1462.9685 0 0 0 76.625,107.1523 c 2.91291,3.8832 5.25603,7.13 6.38672,8.9317 A 1462.9685,1462.9685 0 0 0 1500,2962.9688 1462.9685,1462.9685 0 0 0 2693.9121,2343.8496 c 7.8072,-11.2244 15.9089,-22.9837 23.7598,-34.4844 a 1462.9685,1462.9685 0 0 0 44.2226,-72.1308 c -6.6761,-1.2787 -29.3382,-1.3485 -70.3633,-0.2383 -358.9426,9.7133 -1123.7164,10.1171 -1605.2167,0.8477 -521.23023,-10.0344 -580.65374,-10.9423 -716.73638,-10.9454 z"
       transform="matrix(0.26458333,0,0,0.26458333,0,-496.75002)"
       id="path836"
       inkscape:connector-curvature="0" />
    <path
       style="fill:#9b6d45;fill-opacity:1;stroke-width:3.030303"
       d="m 2292.709,1049.1758 c -154.3226,0 -434.8337,0.1824 -623.3574,0.4043 -262.8196,0.3095 -465.8807,0.3494 -870.57621,0.1679 -493.87068,-0.2215 -656.37319,-0.227 -689.87109,0.022 a 1462.9685,1462.9685 0 0 0 -22.224612,79.3575 c 0.845206,-0.4294 2.043189,-1.3912 3.710937,-2.9004 11.950695,-10.8153 24.999495,-3.9057 25.820315,13.6718 0.42363,9.072 -0.6164,10.1643 -14.69532,15.4121 -8.333328,3.1063 -17.689466,8.1441 -20.791011,11.1954 -4.413367,4.3417 -11.669649,38.1117 -18.496093,69.082 a 1462.9685,1462.9685 0 0 0 -10.490235,69.4023 l 68.560549,0.3418 c 41.66412,0.2087 266.78216,1.1986 500.26172,2.2032 610.87725,2.6284 2239.49105,-1.0013 2327.33205,-5.0293 a 1462.9685,1462.9685 0 0 0 -29.8281,-156.3887 c -0.9144,4.7602 -2.1482,17.0615 -3.043,31.0801 -2.2577,35.3696 -6.3905,45.0197 -22.0762,51.5566 -13.117,5.4665 -29.9499,6.8821 -31.4219,2.6426 -0.659,-1.8982 5.6756,-11.3044 14.0762,-20.9043 16.4743,-18.826 21.3271,-31.0582 21.3535,-53.8242 0.018,-15.5371 6.0395,-30.6008 13.3555,-33.4082 1.0378,-0.3983 1.7686,-0.956 2.1914,-1.9356 a 1462.9685,1462.9685 0 0 0 -22.2969,-71.207 c -55.6914,-0.4972 -325.6787,-0.9414 -597.4941,-0.9414 z m 30.6914,57.5039 c 5.2767,0.013 12.0953,1.2162 24.4336,3.6191 14.5245,2.8287 35.8912,7.9454 47.4824,11.3711 18.7679,5.5467 25.9006,6.0104 65.1524,4.2344 l 44.0761,-1.9941 18.3028,8.8261 c 19.5023,9.4058 53.5617,38.7215 60.4394,52.0215 2.4304,4.6998 3.107,9.7124 1.6328,12.0977 -4.4151,7.1438 -40.606,1.4916 -95.1504,-14.8594 -59.197,-17.7458 -72.4117,-18.7125 -127.3613,-9.3184 -19.34,3.3064 -77.0898,16.1653 -128.332,28.5743 -95.9712,23.2405 -140.104,32.559 -179.5313,37.9062 -68.2109,9.251 -117.2136,4.7876 -151.623,-13.8066 -17.0092,-9.1915 -23.1511,-17.7171 -17.5899,-24.418 5.5602,-6.6995 26.0863,-3.5338 55.5762,8.5723 22.4868,9.2312 26.6568,9.9413 57.5762,9.7988 36.2055,-0.1667 39.1078,-0.9297 135.9121,-35.7246 21.4186,-7.6987 57.4149,-18.7311 79.9902,-24.5176 43.663,-11.1916 63.3735,-20.4857 74.0352,-34.9063 3.6244,-4.9023 12.5328,-11.1828 19.7969,-13.957 6.1706,-2.3567 9.9049,-3.5327 15.1816,-3.5195 z m -666.166,3.1484 c 106.758,-0.1497 224.7533,1.3092 234.4316,3.8457 20.9616,5.4938 3.851,11.1338 -53.7871,17.7305 -59.5541,6.816 -68.5163,7.4794 -212.1211,15.6719 -238.1159,13.5842 -320.3272,24.2079 -365.9687,47.2949 l -18.8809,9.5508 -68.1816,-2.6426 c -37.5,-1.4533 -94.7715,-2.6768 -127.2715,-2.7188 -54.56948,-0.07 -60.28543,0.4429 -74.68948,6.6934 -18.87968,8.1927 -56.53514,14.0793 -139.79492,21.8555 -112.32249,10.4905 -166.44901,11.3914 -179.65234,2.9922 -3.49164,-2.2213 -2.10978,-4.898 7.01562,-13.5938 15.37701,-14.6531 14.88703,-19.539 -1.95507,-19.539 -15.69789,0 -43.29244,8.1263 -85.16602,25.0761 -16.6667,6.7465 -39.75661,14.7733 -51.31055,17.8379 -11.55397,3.0646 -26.21348,5.5723 -32.57617,5.5723 -14.3966,0 -24.96839,-9.1692 -22.01953,-19.0957 8.59544,-28.9345 56.48661,-63.1607 106.51758,-76.125 30.60983,-7.9319 52.20705,-6.2053 111.9375,8.9551 33.8934,8.6025 64.31003,14.4108 81.39062,15.541 24.64691,1.6307 29.46088,1.0123 50,-6.42 48.62514,-17.5955 62.77649,-20.3263 106.06055,-20.4726 43.10079,-0.1458 57.37092,1.3952 150.00001,16.2031 77.7311,12.4263 107.537,11.5796 142.6367,-4.0547 66.9642,-29.8276 134.4831,-41.0443 289.1816,-48.0371 30.1405,-1.3624 90.1483,-2.0312 154.2032,-2.1211 z m 1136.4551,5.6485 c 7.1947,0.077 14.1217,2.1342 20.7148,6.2089 11.4974,7.1059 28.0195,30.575 28.0195,39.7989 0,5.146 -1.567,5.5351 -14.8867,3.7031 -18.3937,-2.5298 -23.0531,-0.2304 -49.1465,24.2578 -24.8982,23.3665 -44.6234,37.0941 -63.7441,44.3594 -9.7674,3.7113 -22.0836,5.4978 -36.6485,5.3164 -25.7998,-0.3215 -38.6538,-3.5332 -45.8125,-11.4434 -4.7104,-5.2049 -4.7549,-6.1904 -0.4746,-10.4707 2.599,-2.5989 11.1853,-5.5612 19.0821,-6.582 32.125,-4.1526 36.4456,-5.1511 45.1289,-10.4316 4.9779,-3.0274 14.3624,-13.5131 20.8535,-23.3028 27.0376,-40.7776 53.4112,-61.6656 76.9141,-61.414 z m -2419.46098,16.7695 c 15.60476,0.5614 49.56692,17.2068 58.21679,30.4082 4.9112,7.4954 4.85468,8.0461 -1.33789,13.0605 -8.89856,7.2057 -33.20116,11.5097 -102.64648,18.1797 -32.65447,3.1364 -60.14395,6.476 -61.08789,7.42 -3.43528,3.4352 2.27646,5.3052 25.55273,8.3652 28.47129,3.743 34.90783,6.3776 26.49805,10.8457 -7.5514,4.0121 -59.0557,14.6008 -107.07617,22.0137 -89.66686,13.8417 -149.893935,1.047 -73.78125,-15.6739 31.83388,-6.9934 63.3994,-17.0342 72.86132,-23.1777 5.63322,-3.6576 6.54804,-6.2514 5.03907,-14.2949 -1.68144,-8.9628 -1.00349,-10.1209 7.7207,-13.1621 5.26093,-1.834 21.4033,-4.8294 35.87109,-6.6563 85.23411,-10.7627 103.57813,-15.5195 103.57813,-26.8574 0,-3.0864 1.83883,-7.1374 4.08789,-9.0039 1.35337,-1.1232 3.61414,-1.5708 6.50391,-1.4668 z m 911.11718,536.8887 c -204.7044,0.045 -392.03812,0.8178 -623.87109,2.332 -323.3343,2.1119 -594.179763,4.7099 -601.88086,5.7734 l -9.78125,1.3516 a 1462.9685,1462.9685 0 0 0 7.294922,60.084 l 0.724609,3.748 c 1.064249,6.2664 2.147049,12.4379 3.246094,18.5313 a 1462.9685,1462.9685 0 0 0 26.730469,119.0898 c 0.450103,1.6049 0.897838,3.2186 1.351562,4.8028 l 6.080078,21.2324 A 1462.9685,1462.9685 0 0 0 96.542969,1910 l 0.230469,-20.6055 c 0.129864,-11.6666 -1.385011,-31.8666 -3.367188,-44.8886 l -3.603516,-23.6778 16.798826,-15.7168 c 11.9775,-11.2064 18.30009,-20.0662 22.03125,-30.8691 6.73545,-19.5014 8.58656,-23.0806 12.26367,-23.7188 11.61741,-2.016 15.68024,76.3072 6.41211,123.6094 -6.04826,30.8688 -21.50281,81.6106 -27.9414,91.7422 -1.56213,2.4581 -2.14525,4.3901 -1.80469,7.3809 a 1462.9685,1462.9685 0 0 0 21.98828,63.7714 l 45.78711,-0.789 c 61.28685,-1.1526 866.66701,-0.053 1365.99611,1.707 210.5432,0.7419 397.3036,1.2562 415.0234,1.1426 l 32.2188,-0.207 29.4218,-21.293 c 11.6329,-8.419 42.2275,-31.9937 64.0391,-52.2227 85.4902,-79.2871 100.3391,-90.9298 141.0039,-112.8574 31.4477,-16.9574 47.9627,-24.134 80.7969,-26.168 35.4018,-2.193 63.9481,3.2089 97.7773,19.8594 36.2012,17.818 69.0589,51.3807 111.166,113.3887 17.2373,25.3839 34.9728,51.9699 41.2852,58.9531 l 18.2441,20.1836 120.7559,-0.4043 c 128.3609,-0.4284 147.3216,-3.4473 157.7871,-5.2402 a 1462.9685,1462.9685 0 0 0 30.7539,-84.2559 c 1.4232,-6.5064 1.0398,-10.061 -0.4258,-14.1914 -4.6964,-13.2357 -4.5048,-14.0233 7.7911,-31.8984 3.9509,-5.7438 8.2064,-13.39 11.3535,-20.1328 a 1462.9685,1462.9685 0 0 0 20.8281,-81.5645 c 2.8948,-14.1925 4.7949,-25.0059 4.3672,-26.2891 -0.5773,-1.7317 -8.2517,18.7869 -17.0547,45.5958 -13.0357,39.6994 -19.6221,54.5432 -35.498,80.0078 -25.9121,41.5621 -41.8347,60.2539 -51.3301,60.2539 -11.8456,0 -9.187,-7.682 15.166,-43.8047 26.2544,-38.9431 45.0787,-75.7978 60.4336,-118.3164 15.2482,-42.2233 20.3587,-51.5577 28.0879,-51.3125 2.5081,0.08 4.1372,-0.4164 5.4433,-2.5957 a 1462.9685,1462.9685 0 0 0 9.9746,-65.9961 l -85.8554,-1.918 c -48.0407,-1.0732 -431.1885,-3.5443 -851.4395,-5.4922 -301.3229,-1.3966 -523.3991,-2.0803 -728.1035,-2.0351 z m 404.3731,43.6132 c 73.7419,0.2892 140.7265,16.2328 155.0683,38.1211 4.281,6.5336 4.1663,7.5838 -1.4453,13.1954 -4.8347,4.8346 -12.3728,6.6418 -36.418,8.7304 -63.0452,5.4762 -144.8692,31.7771 -193.8613,62.3125 -36.225,22.5781 -42.4388,36.4837 -24.5508,54.9395 l 9.7246,10.0332 -6.5683,6.5683 c -11.0642,11.0642 -42.0152,14.3093 -167.4258,17.5528 -64.1667,1.6595 -141.8932,4.41 -172.7266,6.1133 -30.8333,1.7032 -82.8725,3.0797 -115.6426,3.0585 -73.627,-0.049 -92.6322,3.309 -145.4355,25.6915 -47.95064,20.3255 -63.9366,23.5427 -69.0918,13.9101 -4.78401,-8.939 3.21225,-21.4518 29.31446,-45.8691 33.95104,-31.7596 85.53744,-62.3625 117.01174,-69.416 23.9737,-5.3727 96.0733,-9.1126 176.5859,-9.1602 116.0594,-0.068 179.2297,-6.7444 203.0352,-21.457 7.0624,-4.3649 11.2893,-10.3592 14.8379,-21.043 17.5195,-52.7462 96.1016,-88.4215 204.5351,-92.8574 7.7223,-0.3159 15.4243,-0.4538 23.0528,-0.4239 z m -1061.12896,13.2071 c 27.63014,-0.1005 49.9039,6.1779 63.07618,18.7441 14.49652,13.8296 9.95999,29.2958 -15.60938,53.2129 -21.34961,19.97 -64.3076,47.1511 -110.9043,70.1719 -51.55358,25.4697 -90.38687,38.4838 -120.34961,40.332 -22.1755,1.3679 -24.13882,0.9549 -38.09375,-8 -26.61581,-17.0793 -36.19064,-16.1406 -94.58789,9.2637 -19.16666,8.338 -44.95279,17.7526 -57.30273,20.9219 -38.52804,9.8873 -75.86558,6.4826 -78.49219,-7.1563 -0.62247,-3.2322 9.722,-16.3921 27.42578,-34.8926 17.57295,-18.3637 31.01296,-35.4415 35.20508,-44.7343 15.16642,-33.62 16.99184,-36.1858 30.625,-43.0606 16.74566,-8.4443 34.1226,-8.7516 104.66211,-1.8516 68.70844,6.721 77.14139,5.3686 96.93164,-15.5429 19.09958,-20.1817 34.23537,-28.7701 74.33789,-42.1817 30.148,-10.0824 58.69665,-15.1378 83.07617,-15.2265 z m 246.49024,1.3183 c 9.89306,0 13.73268,1.7493 19.88476,9.0606 14.51331,17.2481 17.34769,56.3053 5.55469,76.5449 -5.73056,9.8349 -3.909,9.3741 -38.39844,9.6895 -21.80795,0.1994 -29.74192,1.5627 -39.59961,6.8027 -16.06938,8.5419 -30.79988,25.1175 -46.91601,52.793 -7.16837,12.3099 -16.45871,26.1315 -20.64453,30.7148 -4.18583,4.5833 -9.74086,8.3283 -12.34571,8.3223 -8.34277,-0.02 -23.98311,-11.5413 -29.09961,-21.4356 -11.0736,-21.4139 1.04427,-39.8623 57.69727,-87.8437 20.00001,-16.9388 48.79219,-42.9136 63.98438,-57.7227 25.53615,-24.8922 28.54869,-26.9258 39.88281,-26.9258 z m 1217.90232,29.8731 c 30.9297,0.2063 55.502,7.8298 55.502,18.7344 0,8.1153 -11.9418,14.9214 -59.0899,33.6816 -79.4496,31.6131 -113.9543,50.8043 -125.9922,70.0742 -4.8571,7.7752 -5.7323,12.8566 -4.3085,25.0156 1.4931,12.7517 0.6381,16.961 -5.2032,25.6289 -14.767,21.9128 -49.9424,40.923 -100.8594,54.5059 -13.3333,3.5569 -36.5156,7.239 -51.5156,8.1836 -25.268,1.5912 -27.7053,1.2364 -33.1445,-4.8262 l -5.8711,-6.5429 16.75,-15.8008 c 9.6279,-9.0828 31.8662,-24.132 52.3047,-35.3965 44.75,-24.6636 58.1369,-35.8872 62.6797,-52.5508 7.6536,-28.0744 9.4814,-32.4273 18.2344,-43.4414 27.3095,-34.3647 101.9621,-70.286 158.3085,-76.1738 7.5908,-0.7932 15.0675,-1.1394 22.2051,-1.0918 z m 562.3555,19.248 c 6.1437,-0.079 12.8975,0.3318 20.6055,1.1602 22.6355,2.4327 25.5722,3.4439 25.5722,8.8086 0,4.7702 -9.0919,10.5778 -42.6972,27.2734 -23.483,11.6667 -51.4374,27.8808 -62.1211,36.0313 -10.6838,8.1504 -24.8783,17.3237 -31.545,20.3867 -22.5828,10.3756 -31.3478,4.4307 -21.2128,-14.3887 7.554,-14.027 44.2886,-50.8075 63.207,-63.2871 16.8122,-11.0903 29.7603,-15.7469 48.1914,-15.9844 z m 221.4629,1.5059 5.539,6.8398 c 3.9341,4.8584 5.5391,11.903 5.5391,24.3145 0,18.4037 -4.3715,25.9002 -13.1406,22.5351 -6.8398,-2.6246 -33.9133,6.9909 -44.3067,15.7364 -4.8257,4.0605 -9.6893,11.7788 -10.8086,17.1504 -5.7424,27.5591 -37.3372,57.2618 -80.2285,75.4238 -24.3641,10.3168 -46.0555,13.018 -69.9394,8.709 -17.6003,-3.1754 -39.1524,-14.0631 -39.1524,-19.7774 0,-5.9206 9.6902,-10.7197 17.5137,-8.6738 14.462,3.7819 97.5737,-31.7089 120.3398,-51.3887 16.414,-14.1887 12.7543,-18.3863 -13.7109,-15.7285 -23.887,2.3989 -33.2324,0.3012 -33.2324,-7.457 0,-6.1885 14.0346,-13.5923 52.8711,-27.8887 13.4206,-4.9404 42.0217,-15.9148 63.5586,-24.3887 z M 2340.582,1891.791 c -2.5221,-0.013 -5.1231,-0.01 -7.8125,0.018 -87.1326,0.7965 -152.3882,32.81 -178.7402,87.6875 -17.7552,36.9749 -12.4524,65.5299 17.4102,93.75 24.4239,23.0806 57.7124,37.5321 97.9179,42.5098 77.0118,9.5345 165.8935,-29.4898 193.2578,-84.8516 22.684,-45.8929 6.4229,-96.2632 -38.9609,-120.6895 -25.4335,-13.6886 -45.2408,-18.2333 -83.0723,-18.4238 z M 476.59766,2415.6016 c -66.87443,-0.044 -110.86045,0.5305 -115.5293,1.8203 a 1462.9685,1462.9685 0 0 0 486.69141,390.1933 c 0.30269,0.022 0.55373,0.016 0.72461,-0.035 26.09109,-7.8421 287.85592,-17.6997 554.54682,-20.8828 225.7688,-2.6948 646.4497,5.0709 732.8379,13.5273 l 29.0254,2.8399 a 1462.9685,1462.9685 0 0 0 469.1426,-380.4532 c -7.917,-0.1742 -42.1295,0.5409 -82.5215,1.7578 -200.6237,6.0442 -594.0168,9.7158 -851.5156,7.9473 -252.7939,-1.7362 -340.8498,-3.0602 -746.96875,-11.2266 -169.37331,-3.4058 -358.44743,-5.4102 -476.43359,-5.4882 z"
       transform="matrix(0.26458333,0,0,0.26458333,0,-496.75002)"
       id="path834"
       inkscape:connector-curvature="0" />
    <path
       inkscape:connector-curvature="0"
       id="path832"
       d="m 214.46263,241.78994 c -33.74298,-17.80935 -67.04902,-42.64558 -93.86177,-69.99249 -11.44384,-11.67181 -25.190506,-27.42964 -25.190506,-28.87591 0,-1.02612 85.044206,-0.53309 156.745576,0.90871 107.4523,2.16069 130.7507,2.51084 197.63574,2.9702 68.12989,0.46792 172.21501,-0.50351 225.29671,-2.1027 12.12674,-0.36535 22.16065,-0.56066 22.29759,-0.43404 0.57065,0.52764 -13.0557,16.04145 -23.49632,26.75091 -26.60224,27.28726 -59.50449,52.04173 -92.85774,69.86282 l -7.6291,4.07633 -8.28758,-0.81126 c -22.8569,-2.23743 -134.16215,-4.29187 -193.8968,-3.57889 -70.56197,0.84221 -139.82021,3.45023 -146.72348,5.5251 -0.66146,0.19881 -5.176,-1.73564 -10.03232,-4.29878 z"
       style="fill:#776857;fill-opacity:1;stroke-width:0.80176765" />
    <path
       style="opacity:1;fill:#000000;fill-opacity:0.31372549;fill-rule:nonzero;stroke:none;stroke-width:20.11227417;stroke-linecap:round;stroke-linejoin:round;stroke-miterlimit:4;stroke-dasharray:none;stroke-dashoffset:0;stroke-opacity:1;paint-order:normal"
       d="M 1487.2656,37.482422 A 1462.9685,1462.9685 0 0 0 37.03125,1500 1462.9685,1462.9685 0 0 0 1493.8828,2962.6621 C 1201.2436,2905.8654 934.88625,2729.1265 741.88867,2463.3926 546.93297,2194.9625 439.61978,1853.3553 439.24609,1500 439.38556,1147.5728 545.91087,806.70228 739.76367,538.38281 931.41604,273.10901 1196.0635,95.880143 1487.2656,37.482422 Z"
       transform="matrix(0.26458333,0,0,0.26458333,0,-496.75002)"
       id="path859"
       inkscape:connector-curvature="0" />
  </g>
</svg>
