<?xml version="1.0" encoding="UTF-8" standalone="no"?>
<!-- Created with Inkscape (http://www.inkscape.org/) -->

<svg
   width="175"
   height="128"
   viewBox="0 0 46.302084 33.866667"
   version="1.1"
   id="svg8"
   inkscape:version="1.4 (86a8ad7, 2024-10-11)"
   sodipodi:docname="landslide.svg"
   inkscape:export-filename="tree.png"
   inkscape:export-xdpi="96"
   inkscape:export-ydpi="96"
   xmlns:inkscape="http://www.inkscape.org/namespaces/inkscape"
   xmlns:sodipodi="http://sodipodi.sourceforge.net/DTD/sodipodi-0.dtd"
   xmlns="http://www.w3.org/2000/svg"
   xmlns:svg="http://www.w3.org/2000/svg"
   xmlns:rdf="http://www.w3.org/1999/02/22-rdf-syntax-ns#"
   xmlns:cc="http://creativecommons.org/ns#"
   xmlns:dc="http://purl.org/dc/elements/1.1/">
  <defs
     id="defs2">
    <inkscape:path-effect
       effect="simplify"
       id="path-effect945"
       is_visible="true"
       steps="26"
       threshold="0.001"
       smooth_angles="0"
       helper_size="5"
       simplify_individual_paths="false"
       simplify_just_coalesce="false"
       lpeversion="0" />
  </defs>
  <sodipodi:namedview
     id="base"
     pagecolor="#000000"
     bordercolor="#666666"
     borderopacity="1.0"
     inkscape:pageopacity="0.0"
     inkscape:pageshadow="2"
     inkscape:zoom="3.2017795"
     inkscape:cx="97.601974"
     inkscape:cy="28.890184"
     inkscape:document-units="mm"
     inkscape:current-layer="layer1"
     showgrid="false"
     units="px"
     inkscape:pagecheckerboard="true"
     inkscape:showpageshadow="false"
     borderlayer="true"
     inkscape:window-width="3440"
     inkscape:window-height="1377"
     inkscape:window-x="-8"
     inkscape:window-y="-8"
     inkscape:window-maximized="1"
     inkscape:snap-global="false"
     showguides="false"
     inkscape:object-paths="true"
     inkscape:deskcolor="#505050" />
  <metadata
     id="metadata5">
    <rdf:RDF>
      <cc:Work
         rdf:about="">
        <dc:format>image/svg+xml</dc:format>
        <dc:type
           rdf:resource="http://purl.org/dc/dcmitype/StillImage" />
      </cc:Work>
    </rdf:RDF>
  </metadata>
  <g
     inkscape:label="Layer 1"
     inkscape:groupmode="layer"
     id="layer1"
     transform="translate(0,179.25002)">
    <path
       style="fill:#7f6349;stroke-width:0.644603;stroke-linecap:round;stroke-linejoin:round;paint-order:markers stroke fill;fill-opacity:1"
       d="m 39.811252,-179.02332 c -4.325147,0 -11.723428,3.81296 -13.829092,8.65031 -2.105664,4.83732 -6.260083,14.96727 -12.975444,16.67457 -6.7153623,1.70729 -18.1542419,4.15442 -8.8779364,7.11374 9.2763054,2.95931 14.4550994,-1.76421 20.6013634,-1.76421 6.146264,0 13.544544,-1.87802 14.739649,-8.59339 1.19511,-6.71536 13.089268,-22.08102 0.34146,-22.08102 z"
       id="path1" />
    <g
       id="g13"
       transform="matrix(-0.04840443,0.04941375,0.04941375,0.04840443,72.512896,-191.95106)">
      <path
         sodipodi:nodetypes="ccccc"
         inkscape:connector-curvature="0"
         id="path8"
         d="m 734.45665,-256.24795 c -0.16992,20.84084 -1.34596,42.43625 -5.87994,56.66115 l 26.72697,2.67269 c -5.798,-21.09934 -8.01809,-33.90054 -8.01809,-59.86837 z"
         style="opacity:1;fill:#916b29;fill-opacity:1;fill-rule:nonzero;stroke:none;stroke-width:6;stroke-linecap:round;stroke-linejoin:round;stroke-miterlimit:4;stroke-dasharray:none;stroke-dashoffset:0;stroke-opacity:1;paint-order:markers stroke fill" />
      <path
         sodipodi:nodetypes="sssssssssssssssssssssss"
         inkscape:connector-curvature="0"
         id="path9"
         d="m 740.56464,-248.9698 c -4.49532,11.56989 -18.90384,-5.52522 -18.63164,3.54617 0.26306,8.76659 -5.5197,1.77128 -13.27094,-5.88316 -10.18235,-10.05523 -26.9285,12.30431 -22.12563,-6.86283 1.80576,-7.20636 -4.69076,-17.18277 1.90987,-22.40674 7.15997,-5.66664 4.80418,-15.24979 7.5759,-22.55687 3.23407,-8.52603 4.8905,-18.98118 -0.80963,-26.58655 -4.95276,-6.60822 -2.41826,-14.17718 6.14164,-15.0898 10.33989,-1.10241 12.13599,-14.35698 3.43625,-20.55518 -8.94673,-6.37417 2.00219,-15.56616 9.09739,-18.17345 10.15769,-3.73266 1.17788,-16.13401 8.41921,-22.53483 6.22199,-5.49982 10.54768,-18.07871 20.16033,-15.81664 6.13262,1.44314 7.85697,9.25547 11.43394,14.19351 3.2892,4.54076 8.73422,8.77635 8.15302,14.79496 -0.69739,7.22202 -0.92068,16.94724 7.12668,20.26164 9.85538,4.05908 -4.28894,17.10958 5.27787,21.20504 7.03893,3.0133 7.94586,9.25984 6.11936,16.98625 -1.91172,8.08705 8.50221,13.27318 8.12014,22.97452 -0.3149,7.99583 4.76151,15.57611 -3.04382,22.409 -7.05324,6.17449 5.4223,14.46178 5.57135,23.30369 0.16744,9.93245 -4.51591,16.55585 -14.61265,17.58086 -8.86818,0.90032 -16.74125,9.45533 -25.21105,1.79257 -2.78454,-2.51922 -9.39588,-6.2928 -10.83759,-2.58216 z"
         style="opacity:1;fill:#3e7738;fill-opacity:1;fill-rule:nonzero;stroke:none;stroke-width:7.70804;stroke-linecap:round;stroke-linejoin:round;stroke-miterlimit:4;stroke-dasharray:none;stroke-dashoffset:0;stroke-opacity:1;paint-order:markers stroke fill" />
      <path
         id="path10"
         transform="matrix(0.26458333,0,0,0.26458333,0,-496.75002)"
         d="m 2798.0137,281.91992 c -6.3164,-0.055 -11.992,1.66954 -17.2129,4.60742 -7.2638,11.54723 -13.6899,23.48721 -19.666,34.64649 -3.7051,18.97625 6.2247,50.34718 -20.4102,55.42187 -7.8435,3.0397 -15.6303,7.85105 -22.5078,13.84571 0.1714,15.97767 -1.392,30.58588 -20.0586,37.44531 -0.926,0.34028 -1.8711,0.71707 -2.8281,1.11523 -1.2657,9.19916 0.325,18.67476 5.9082,27.70313 18.138,10.68404 36.1093,42.23016 15.3535,58.48633 -10.6476,1.75292 -22.5433,5.782 -32.6914,11.95898 3.6968,18.73882 -4.4511,38.0405 -23.1172,44.83594 0.137,0.60444 0.2862,1.21084 0.4531,1.82422 5.8865,27.47595 33.0655,51.40149 19.2129,81.2539 -9.1074,42.66274 -13.7364,88.49063 -40.3105,124.31836 -11.9489,20.03456 -8.3577,43.40072 -3.1602,64.58985 -1.7458,20.51508 -3.635,53.96943 23.7617,57.46875 21.89,4.88092 48.4236,-22.92653 66.0606,-1.22071 14.4921,19.20798 45.2242,42.32629 66.4609,18.86328 5.5905,-7.74447 15.7949,7.05159 24.9727,5.29297 18.627,4.20703 39.8376,-2.40112 51.4433,-16.93359 22.5269,10.52288 43.8878,34.34881 71.25,22.97266 11.9883,-3.42473 23.9741,-7.09383 35.9161,-10.88672 9.4858,-11.49018 13.9397,-27.36506 13.6171,-46.5 -0.5633,-33.41825 -47.7165,-64.73952 -21.0586,-88.07618 29.5005,-25.82509 10.3157,-54.4768 11.5059,-84.69726 1.444,-36.66648 -37.9168,-56.2668 -30.6914,-86.83203 6.9033,-29.20218 3.4749,-52.81037 -23.1289,-64.19922 -36.158,-15.4789 17.3014,-64.80508 -19.9473,-80.14649 -30.4152,-12.52686 -29.5713,-49.2823 -26.9355,-76.57812 2.1966,-22.7475 -18.3829,-38.75604 -30.8145,-55.91797 -13.5192,-18.66346 -20.0364,-48.19014 -43.2148,-53.64453 -2.8384,-0.66793 -5.5547,-0.99485 -8.1621,-1.01758 z"
         style="opacity:1;fill:#34642f;fill-opacity:1;fill-rule:nonzero;stroke:none;stroke-width:29.1327;stroke-linecap:round;stroke-linejoin:round;stroke-miterlimit:4;stroke-dasharray:none;stroke-dashoffset:0;stroke-opacity:1;paint-order:markers stroke fill"
         inkscape:connector-curvature="0" />
      <path
         id="path11"
         transform="matrix(0.26458333,0,0,0.26458333,0,-496.75002)"
         d="m 2795.9121,349.96875 c -24.6902,12.67003 -35.8614,40.98624 -53.4668,60.44922 -2.9128,28.27608 1.748,68.3428 -31.1973,80.80273 -10.3838,5.525 -26.9105,10.88918 -32.7832,21.44532 2.5644,4.47398 4.3351,9.20785 5.3321,13.98828 25.2055,25.12787 34.9226,68.6788 7.4336,95.73632 -12.4077,14.84217 -33.6122,17.6013 -49.1485,24.4043 -1.4629,19.95685 20.9644,34.01482 20.7051,54.92774 7.3142,47.24904 -16.6619,91.53617 -21.0371,137.85742 -2.9948,19.87204 -23.1994,31.93335 -27.6602,49.76758 -0.4273,12.53954 2.1751,24.88113 3.6778,37.29296 18.1412,-7.3014 42.2045,-17.18642 60.6406,1.01954 18.3021,18.07355 33.7003,35.17362 42.4375,37.38476 1.928,-1.16457 3.9471,-2.00552 6.041,-2.5625 1.2682,-2.41842 1.8626,-6.49153 1.6797,-12.58789 -1.0288,-34.28557 53.4278,30.32638 70.418,-13.40234 5.449,-14.02447 30.4367,0.2383 40.9609,9.75976 32.0119,28.96162 61.7676,-3.3726 95.2852,-6.77539 13.04,-1.3238 23.6884,-5.12108 32.0351,-11.04101 1.5171,-17.51827 -7.3465,-36.8605 -19.2558,-49.33985 -14.5589,-23.73426 -10.5876,-57.131 11.8847,-74.13672 0.6066,-1.92747 1.0869,-3.86535 1.4785,-5.81054 0.1,-0.91032 0.2566,-1.81357 0.4844,-2.70703 3.3627,-21.80342 -5.0844,-44.51973 -6.998,-65.92188 -15.7299,-28.05615 -38.5342,-60.09373 -23.584,-93.44726 1.5505,-27.72964 -38.1847,-26.40857 -39.0137,-53.08399 -4.2473,-16.28783 7.3951,-35.16796 3.4238,-49.45117 -33.6457,-17.82996 -44.5341,-59.13495 -37.9335,-94.36914 -0.391,-27.37561 -30.3508,-38.96927 -36.9024,-64.09375 -5.5879,-9.75224 -12.2463,-26.33636 -24.9375,-26.10547 z"
         style="opacity:1;fill:#386e34;fill-opacity:1;fill-rule:nonzero;stroke:none;stroke-width:29.1327;stroke-linecap:round;stroke-linejoin:round;stroke-miterlimit:4;stroke-dasharray:none;stroke-dashoffset:0;stroke-opacity:1;paint-order:markers stroke fill"
         inkscape:connector-curvature="0" />
      <path
         id="path12"
         transform="matrix(0.26458333,0,0,0.26458333,0,-496.75002)"
         d="m 2811.9805,460.3125 c -11.5817,31.5885 -6.0531,71.4465 -35.1309,94.85742 -8.6268,7.92571 -20.4066,13.61741 -10.541,25.63086 16.8743,47.44248 -0.3182,107.05014 -44.4766,133.4043 21.7212,61.62259 -8.6305,124.75693 -18.3359,185.01953 -4.5403,12.45938 -12.0738,23.455 -18.5977,34.91211 0.5624,0.5652 1.1127,1.11845 1.668,1.67773 14.8821,2.49605 28.2099,10.35634 42.0195,16.22461 10e-4,-0.69542 0,-1.3876 -0.019,-2.14453 -1.0288,-34.28557 53.4278,30.32638 70.418,-13.40234 5.449,-14.02447 30.4367,0.2383 40.9609,9.75976 1.4605,1.32137 2.9174,2.51119 4.3692,3.58594 8.9963,1.64392 17.8326,4.52812 26.2656,8.30664 18.7638,-0.78456 37.421,-13.13283 57.2754,-17.45898 -15.3031,-30.05964 -21.8067,-66.10805 -2.8731,-95.94532 13.6872,-17.29107 14.1332,-40.0404 3.793,-58.59765 -14.2148,-31.99098 -32.305,-65.28942 -27.8516,-101.35352 -22.7816,-15.81282 -39.3616,-42.26701 -34.6953,-71.0664 2.4047,-11.42865 2.6033,-21.4873 -8.1933,-28.14649 -25.391,-29.84492 -25.0586,-71.63442 -31.6309,-107.40625 -4.8418,-5.19466 -10.0551,-16.69779 -14.4238,-17.85742 z"
         style="opacity:1;fill:#3e7939;fill-opacity:1;fill-rule:nonzero;stroke:none;stroke-width:29.1327;stroke-linecap:round;stroke-linejoin:round;stroke-miterlimit:4;stroke-dasharray:none;stroke-dashoffset:0;stroke-opacity:1;paint-order:markers stroke fill"
         inkscape:connector-curvature="0" />
      <path
         transform="matrix(0.26458333,0,0,0.26458333,0,-496.75002)"
         id="path13"
         d="m 2783.75,649.66797 c -4.7889,9.61629 -19.4505,15.32577 -10.9688,27.49805 10.5879,48.93528 -6.4413,103.04319 -43.8183,136.51367 9.2246,49.81216 -3.1729,98.67018 -16.2988,146.79492 10.327,7.81552 16.4382,7.27803 15.9023,-10.58008 -1.0288,-34.28557 53.4278,30.32638 70.418,-13.40234 5.449,-14.02447 30.4367,0.2383 40.9609,9.75976 6.08,5.50069 12.0786,8.78584 18.0371,10.48243 2.7082,-18.98654 9.3443,-37.38055 19.666,-53.41797 -5.1934,-39.53246 -37.4537,-71.50499 -34.0605,-112.99414 -9.7122,-19.84275 -29.5787,-34.19362 -32.4356,-57.61524 -4.193,-20.12572 -0.026,-41.88238 -15.9668,-57.51953 -4.773,-7.59859 -8.264,-19.35973 -11.4355,-25.51953 z"
         style="opacity:1;fill:#488940;fill-opacity:1;fill-rule:nonzero;stroke:none;stroke-width:29.1327;stroke-linecap:round;stroke-linejoin:round;stroke-miterlimit:4;stroke-dasharray:none;stroke-dashoffset:0;stroke-opacity:1;paint-order:markers stroke fill"
         inkscape:connector-curvature="0" />
    </g>
    <path
       style="fill:#6b5035;fill-opacity:1;stroke-width:0.468;stroke-linecap:round;stroke-linejoin:round;paint-order:markers stroke fill"
       d="m 29.428191,-171.49966 c -1.429031,3.76421 -3.254592,2.403 -3.08075,5.58116 0.144727,2.64589 -2.278146,3.55862 -4.099959,4.9608 -1.69031,1.30097 -2.222961,4.18976 -0.914146,4.48078 1.308807,0.29102 3.829939,-2.81111 5.722212,-6.5696 1.892273,-3.7585 2.396458,-2.64888 3.773125,-5.61773 1.127126,-2.4307 0.02855,-6.59961 -1.400482,-2.83541 z"
       id="path16"
       sodipodi:nodetypes="sssssss" />
    <g
       id="g7"
       transform="matrix(0.06025801,0.03396587,0.03396587,-0.06025801,-9.0540676,-201.5182)">
      <path
         sodipodi:nodetypes="ccccc"
         inkscape:connector-curvature="0"
         id="path2"
         d="m 734.45665,-256.24795 c -0.16992,20.84084 -1.34596,42.43625 -5.87994,56.66115 l 26.72697,2.67269 c -5.798,-21.09934 -8.01809,-33.90054 -8.01809,-59.86837 z"
         style="opacity:1;fill:#916b29;fill-opacity:1;fill-rule:nonzero;stroke:none;stroke-width:6;stroke-linecap:round;stroke-linejoin:round;stroke-miterlimit:4;stroke-dasharray:none;stroke-dashoffset:0;stroke-opacity:1;paint-order:markers stroke fill" />
      <path
         sodipodi:nodetypes="sssssssssssssssssssssss"
         inkscape:connector-curvature="0"
         id="path3"
         d="m 740.56464,-248.9698 c -4.49532,11.56989 -18.90384,-5.52522 -18.63164,3.54617 0.26306,8.76659 -5.5197,1.77128 -13.27094,-5.88316 -10.18235,-10.05523 -26.9285,12.30431 -22.12563,-6.86283 1.80576,-7.20636 -4.69076,-17.18277 1.90987,-22.40674 7.15997,-5.66664 4.80418,-15.24979 7.5759,-22.55687 3.23407,-8.52603 4.8905,-18.98118 -0.80963,-26.58655 -4.95276,-6.60822 -2.41826,-14.17718 6.14164,-15.0898 10.33989,-1.10241 12.13599,-14.35698 3.43625,-20.55518 -8.94673,-6.37417 2.00219,-15.56616 9.09739,-18.17345 10.15769,-3.73266 1.17788,-16.13401 8.41921,-22.53483 6.22199,-5.49982 10.54768,-18.07871 20.16033,-15.81664 6.13262,1.44314 7.85697,9.25547 11.43394,14.19351 3.2892,4.54076 8.73422,8.77635 8.15302,14.79496 -0.69739,7.22202 -0.92068,16.94724 7.12668,20.26164 9.85538,4.05908 -4.28894,17.10958 5.27787,21.20504 7.03893,3.0133 7.94586,9.25984 6.11936,16.98625 -1.91172,8.08705 8.50221,13.27318 8.12014,22.97452 -0.3149,7.99583 4.76151,15.57611 -3.04382,22.409 -7.05324,6.17449 5.4223,14.46178 5.57135,23.30369 0.16744,9.93245 -4.51591,16.55585 -14.61265,17.58086 -8.86818,0.90032 -16.74125,9.45533 -25.21105,1.79257 -2.78454,-2.51922 -9.39588,-6.2928 -10.83759,-2.58216 z"
         style="opacity:1;fill:#3e7738;fill-opacity:1;fill-rule:nonzero;stroke:none;stroke-width:7.70804;stroke-linecap:round;stroke-linejoin:round;stroke-miterlimit:4;stroke-dasharray:none;stroke-dashoffset:0;stroke-opacity:1;paint-order:markers stroke fill" />
      <path
         id="path4"
         transform="matrix(0.26458333,0,0,0.26458333,0,-496.75002)"
         d="m 2798.0137,281.91992 c -6.3164,-0.055 -11.992,1.66954 -17.2129,4.60742 -7.2638,11.54723 -13.6899,23.48721 -19.666,34.64649 -3.7051,18.97625 6.2247,50.34718 -20.4102,55.42187 -7.8435,3.0397 -15.6303,7.85105 -22.5078,13.84571 0.1714,15.97767 -1.392,30.58588 -20.0586,37.44531 -0.926,0.34028 -1.8711,0.71707 -2.8281,1.11523 -1.2657,9.19916 0.325,18.67476 5.9082,27.70313 18.138,10.68404 36.1093,42.23016 15.3535,58.48633 -10.6476,1.75292 -22.5433,5.782 -32.6914,11.95898 3.6968,18.73882 -4.4511,38.0405 -23.1172,44.83594 0.137,0.60444 0.2862,1.21084 0.4531,1.82422 5.8865,27.47595 33.0655,51.40149 19.2129,81.2539 -9.1074,42.66274 -13.7364,88.49063 -40.3105,124.31836 -11.9489,20.03456 -8.3577,43.40072 -3.1602,64.58985 -1.7458,20.51508 -3.635,53.96943 23.7617,57.46875 21.89,4.88092 48.4236,-22.92653 66.0606,-1.22071 14.4921,19.20798 45.2242,42.32629 66.4609,18.86328 5.5905,-7.74447 15.7949,7.05159 24.9727,5.29297 18.627,4.20703 39.8376,-2.40112 51.4433,-16.93359 22.5269,10.52288 43.8878,34.34881 71.25,22.97266 11.9883,-3.42473 23.9741,-7.09383 35.9161,-10.88672 9.4858,-11.49018 13.9397,-27.36506 13.6171,-46.5 -0.5633,-33.41825 -47.7165,-64.73952 -21.0586,-88.07618 29.5005,-25.82509 10.3157,-54.4768 11.5059,-84.69726 1.444,-36.66648 -37.9168,-56.2668 -30.6914,-86.83203 6.9033,-29.20218 3.4749,-52.81037 -23.1289,-64.19922 -36.158,-15.4789 17.3014,-64.80508 -19.9473,-80.14649 -30.4152,-12.52686 -29.5713,-49.2823 -26.9355,-76.57812 2.1966,-22.7475 -18.3829,-38.75604 -30.8145,-55.91797 -13.5192,-18.66346 -20.0364,-48.19014 -43.2148,-53.64453 -2.8384,-0.66793 -5.5547,-0.99485 -8.1621,-1.01758 z"
         style="opacity:1;fill:#34642f;fill-opacity:1;fill-rule:nonzero;stroke:none;stroke-width:29.1327;stroke-linecap:round;stroke-linejoin:round;stroke-miterlimit:4;stroke-dasharray:none;stroke-dashoffset:0;stroke-opacity:1;paint-order:markers stroke fill"
         inkscape:connector-curvature="0" />
      <path
         id="path5"
         transform="matrix(0.26458333,0,0,0.26458333,0,-496.75002)"
         d="m 2795.9121,349.96875 c -24.6902,12.67003 -35.8614,40.98624 -53.4668,60.44922 -2.9128,28.27608 1.748,68.3428 -31.1973,80.80273 -10.3838,5.525 -26.9105,10.88918 -32.7832,21.44532 2.5644,4.47398 4.3351,9.20785 5.3321,13.98828 25.2055,25.12787 34.9226,68.6788 7.4336,95.73632 -12.4077,14.84217 -33.6122,17.6013 -49.1485,24.4043 -1.4629,19.95685 20.9644,34.01482 20.7051,54.92774 7.3142,47.24904 -16.6619,91.53617 -21.0371,137.85742 -2.9948,19.87204 -23.1994,31.93335 -27.6602,49.76758 -0.4273,12.53954 2.1751,24.88113 3.6778,37.29296 18.1412,-7.3014 42.2045,-17.18642 60.6406,1.01954 18.3021,18.07355 33.7003,35.17362 42.4375,37.38476 1.928,-1.16457 3.9471,-2.00552 6.041,-2.5625 1.2682,-2.41842 1.8626,-6.49153 1.6797,-12.58789 -1.0288,-34.28557 53.4278,30.32638 70.418,-13.40234 5.449,-14.02447 30.4367,0.2383 40.9609,9.75976 32.0119,28.96162 61.7676,-3.3726 95.2852,-6.77539 13.04,-1.3238 23.6884,-5.12108 32.0351,-11.04101 1.5171,-17.51827 -7.3465,-36.8605 -19.2558,-49.33985 -14.5589,-23.73426 -10.5876,-57.131 11.8847,-74.13672 0.6066,-1.92747 1.0869,-3.86535 1.4785,-5.81054 0.1,-0.91032 0.2566,-1.81357 0.4844,-2.70703 3.3627,-21.80342 -5.0844,-44.51973 -6.998,-65.92188 -15.7299,-28.05615 -38.5342,-60.09373 -23.584,-93.44726 1.5505,-27.72964 -38.1847,-26.40857 -39.0137,-53.08399 -4.2473,-16.28783 7.3951,-35.16796 3.4238,-49.45117 -33.6457,-17.82996 -44.5341,-59.13495 -37.9335,-94.36914 -0.391,-27.37561 -30.3508,-38.96927 -36.9024,-64.09375 -5.5879,-9.75224 -12.2463,-26.33636 -24.9375,-26.10547 z"
         style="opacity:1;fill:#386e34;fill-opacity:1;fill-rule:nonzero;stroke:none;stroke-width:29.1327;stroke-linecap:round;stroke-linejoin:round;stroke-miterlimit:4;stroke-dasharray:none;stroke-dashoffset:0;stroke-opacity:1;paint-order:markers stroke fill"
         inkscape:connector-curvature="0" />
      <path
         id="path6"
         transform="matrix(0.26458333,0,0,0.26458333,0,-496.75002)"
         d="m 2811.9805,460.3125 c -11.5817,31.5885 -6.0531,71.4465 -35.1309,94.85742 -8.6268,7.92571 -20.4066,13.61741 -10.541,25.63086 16.8743,47.44248 -0.3182,107.05014 -44.4766,133.4043 21.7212,61.62259 -8.6305,124.75693 -18.3359,185.01953 -4.5403,12.45938 -12.0738,23.455 -18.5977,34.91211 0.5624,0.5652 1.1127,1.11845 1.668,1.67773 14.8821,2.49605 28.2099,10.35634 42.0195,16.22461 10e-4,-0.69542 0,-1.3876 -0.019,-2.14453 -1.0288,-34.28557 53.4278,30.32638 70.418,-13.40234 5.449,-14.02447 30.4367,0.2383 40.9609,9.75976 1.4605,1.32137 2.9174,2.51119 4.3692,3.58594 8.9963,1.64392 17.8326,4.52812 26.2656,8.30664 18.7638,-0.78456 37.421,-13.13283 57.2754,-17.45898 -15.3031,-30.05964 -21.8067,-66.10805 -2.8731,-95.94532 13.6872,-17.29107 14.1332,-40.0404 3.793,-58.59765 -14.2148,-31.99098 -32.305,-65.28942 -27.8516,-101.35352 -22.7816,-15.81282 -39.3616,-42.26701 -34.6953,-71.0664 2.4047,-11.42865 2.6033,-21.4873 -8.1933,-28.14649 -25.391,-29.84492 -25.0586,-71.63442 -31.6309,-107.40625 -4.8418,-5.19466 -10.0551,-16.69779 -14.4238,-17.85742 z"
         style="opacity:1;fill:#3e7939;fill-opacity:1;fill-rule:nonzero;stroke:none;stroke-width:29.1327;stroke-linecap:round;stroke-linejoin:round;stroke-miterlimit:4;stroke-dasharray:none;stroke-dashoffset:0;stroke-opacity:1;paint-order:markers stroke fill"
         inkscape:connector-curvature="0" />
      <path
         transform="matrix(0.26458333,0,0,0.26458333,0,-496.75002)"
         id="path7"
         d="m 2783.75,649.66797 c -4.7889,9.61629 -19.4505,15.32577 -10.9688,27.49805 10.5879,48.93528 -6.4413,103.04319 -43.8183,136.51367 9.2246,49.81216 -3.1729,98.67018 -16.2988,146.79492 10.327,7.81552 16.4382,7.27803 15.9023,-10.58008 -1.0288,-34.28557 53.4278,30.32638 70.418,-13.40234 5.449,-14.02447 30.4367,0.2383 40.9609,9.75976 6.08,5.50069 12.0786,8.78584 18.0371,10.48243 2.7082,-18.98654 9.3443,-37.38055 19.666,-53.41797 -5.1934,-39.53246 -37.4537,-71.50499 -34.0605,-112.99414 -9.7122,-19.84275 -29.5787,-34.19362 -32.4356,-57.61524 -4.193,-20.12572 -0.026,-41.88238 -15.9668,-57.51953 -4.773,-7.59859 -8.264,-19.35973 -11.4355,-25.51953 z"
         style="opacity:1;fill:#488940;fill-opacity:1;fill-rule:nonzero;stroke:none;stroke-width:29.1327;stroke-linecap:round;stroke-linejoin:round;stroke-miterlimit:4;stroke-dasharray:none;stroke-dashoffset:0;stroke-opacity:1;paint-order:markers stroke fill"
         inkscape:connector-curvature="0" />
    </g>
    <g
       id="g4793"
       transform="matrix(-0.07501566,0.02772687,0.02772687,0.07501566,94.702784,-166.48287)">
      <path
         sodipodi:nodetypes="ccccc"
         inkscape:connector-curvature="0"
         id="path4687"
         d="m 734.45665,-256.24795 c -0.16992,20.84084 -1.34596,42.43625 -5.87994,56.66115 l 26.72697,2.67269 c -5.798,-21.09934 -8.01809,-33.90054 -8.01809,-59.86837 z"
         style="opacity:1;fill:#916b29;fill-opacity:1;fill-rule:nonzero;stroke:none;stroke-width:6;stroke-linecap:round;stroke-linejoin:round;stroke-miterlimit:4;stroke-dasharray:none;stroke-dashoffset:0;stroke-opacity:1;paint-order:markers stroke fill" />
      <path
         sodipodi:nodetypes="sssssssssssssssssssssss"
         inkscape:connector-curvature="0"
         id="path4674"
         d="m 740.56464,-248.9698 c -4.49532,11.56989 -18.90384,-5.52522 -18.63164,3.54617 0.26306,8.76659 -5.5197,1.77128 -13.27094,-5.88316 -10.18235,-10.05523 -26.9285,12.30431 -22.12563,-6.86283 1.80576,-7.20636 -4.69076,-17.18277 1.90987,-22.40674 7.15997,-5.66664 4.80418,-15.24979 7.5759,-22.55687 3.23407,-8.52603 4.8905,-18.98118 -0.80963,-26.58655 -4.95276,-6.60822 -2.41826,-14.17718 6.14164,-15.0898 10.33989,-1.10241 12.13599,-14.35698 3.43625,-20.55518 -8.94673,-6.37417 2.00219,-15.56616 9.09739,-18.17345 10.15769,-3.73266 1.17788,-16.13401 8.41921,-22.53483 6.22199,-5.49982 10.54768,-18.07871 20.16033,-15.81664 6.13262,1.44314 7.85697,9.25547 11.43394,14.19351 3.2892,4.54076 8.73422,8.77635 8.15302,14.79496 -0.69739,7.22202 -0.92068,16.94724 7.12668,20.26164 9.85538,4.05908 -4.28894,17.10958 5.27787,21.20504 7.03893,3.0133 7.94586,9.25984 6.11936,16.98625 -1.91172,8.08705 8.50221,13.27318 8.12014,22.97452 -0.3149,7.99583 4.76151,15.57611 -3.04382,22.409 -7.05324,6.17449 5.4223,14.46178 5.57135,23.30369 0.16744,9.93245 -4.51591,16.55585 -14.61265,17.58086 -8.86818,0.90032 -16.74125,9.45533 -25.21105,1.79257 -2.78454,-2.51922 -9.39588,-6.2928 -10.83759,-2.58216 z"
         style="opacity:1;fill:#3e7738;fill-opacity:1;fill-rule:nonzero;stroke:none;stroke-width:7.70804;stroke-linecap:round;stroke-linejoin:round;stroke-miterlimit:4;stroke-dasharray:none;stroke-dashoffset:0;stroke-opacity:1;paint-order:markers stroke fill" />
      <path
         id="path4689"
         transform="matrix(0.26458333,0,0,0.26458333,0,-496.75002)"
         d="m 2798.0137,281.91992 c -6.3164,-0.055 -11.992,1.66954 -17.2129,4.60742 -7.2638,11.54723 -13.6899,23.48721 -19.666,34.64649 -3.7051,18.97625 6.2247,50.34718 -20.4102,55.42187 -7.8435,3.0397 -15.6303,7.85105 -22.5078,13.84571 0.1714,15.97767 -1.392,30.58588 -20.0586,37.44531 -0.926,0.34028 -1.8711,0.71707 -2.8281,1.11523 -1.2657,9.19916 0.325,18.67476 5.9082,27.70313 18.138,10.68404 36.1093,42.23016 15.3535,58.48633 -10.6476,1.75292 -22.5433,5.782 -32.6914,11.95898 3.6968,18.73882 -4.4511,38.0405 -23.1172,44.83594 0.137,0.60444 0.2862,1.21084 0.4531,1.82422 5.8865,27.47595 33.0655,51.40149 19.2129,81.2539 -9.1074,42.66274 -13.7364,88.49063 -40.3105,124.31836 -11.9489,20.03456 -8.3577,43.40072 -3.1602,64.58985 -1.7458,20.51508 -3.635,53.96943 23.7617,57.46875 21.89,4.88092 48.4236,-22.92653 66.0606,-1.22071 14.4921,19.20798 45.2242,42.32629 66.4609,18.86328 5.5905,-7.74447 15.7949,7.05159 24.9727,5.29297 18.627,4.20703 39.8376,-2.40112 51.4433,-16.93359 22.5269,10.52288 43.8878,34.34881 71.25,22.97266 11.9883,-3.42473 23.9741,-7.09383 35.9161,-10.88672 9.4858,-11.49018 13.9397,-27.36506 13.6171,-46.5 -0.5633,-33.41825 -47.7165,-64.73952 -21.0586,-88.07618 29.5005,-25.82509 10.3157,-54.4768 11.5059,-84.69726 1.444,-36.66648 -37.9168,-56.2668 -30.6914,-86.83203 6.9033,-29.20218 3.4749,-52.81037 -23.1289,-64.19922 -36.158,-15.4789 17.3014,-64.80508 -19.9473,-80.14649 -30.4152,-12.52686 -29.5713,-49.2823 -26.9355,-76.57812 2.1966,-22.7475 -18.3829,-38.75604 -30.8145,-55.91797 -13.5192,-18.66346 -20.0364,-48.19014 -43.2148,-53.64453 -2.8384,-0.66793 -5.5547,-0.99485 -8.1621,-1.01758 z"
         style="opacity:1;fill:#34642f;fill-opacity:1;fill-rule:nonzero;stroke:none;stroke-width:29.1327;stroke-linecap:round;stroke-linejoin:round;stroke-miterlimit:4;stroke-dasharray:none;stroke-dashoffset:0;stroke-opacity:1;paint-order:markers stroke fill"
         inkscape:connector-curvature="0" />
      <path
         id="path4706"
         transform="matrix(0.26458333,0,0,0.26458333,0,-496.75002)"
         d="m 2795.9121,349.96875 c -24.6902,12.67003 -35.8614,40.98624 -53.4668,60.44922 -2.9128,28.27608 1.748,68.3428 -31.1973,80.80273 -10.3838,5.525 -26.9105,10.88918 -32.7832,21.44532 2.5644,4.47398 4.3351,9.20785 5.3321,13.98828 25.2055,25.12787 34.9226,68.6788 7.4336,95.73632 -12.4077,14.84217 -33.6122,17.6013 -49.1485,24.4043 -1.4629,19.95685 20.9644,34.01482 20.7051,54.92774 7.3142,47.24904 -16.6619,91.53617 -21.0371,137.85742 -2.9948,19.87204 -23.1994,31.93335 -27.6602,49.76758 -0.4273,12.53954 2.1751,24.88113 3.6778,37.29296 18.1412,-7.3014 42.2045,-17.18642 60.6406,1.01954 18.3021,18.07355 33.7003,35.17362 42.4375,37.38476 1.928,-1.16457 3.9471,-2.00552 6.041,-2.5625 1.2682,-2.41842 1.8626,-6.49153 1.6797,-12.58789 -1.0288,-34.28557 53.4278,30.32638 70.418,-13.40234 5.449,-14.02447 30.4367,0.2383 40.9609,9.75976 32.0119,28.96162 61.7676,-3.3726 95.2852,-6.77539 13.04,-1.3238 23.6884,-5.12108 32.0351,-11.04101 1.5171,-17.51827 -7.3465,-36.8605 -19.2558,-49.33985 -14.5589,-23.73426 -10.5876,-57.131 11.8847,-74.13672 0.6066,-1.92747 1.0869,-3.86535 1.4785,-5.81054 0.1,-0.91032 0.2566,-1.81357 0.4844,-2.70703 3.3627,-21.80342 -5.0844,-44.51973 -6.998,-65.92188 -15.7299,-28.05615 -38.5342,-60.09373 -23.584,-93.44726 1.5505,-27.72964 -38.1847,-26.40857 -39.0137,-53.08399 -4.2473,-16.28783 7.3951,-35.16796 3.4238,-49.45117 -33.6457,-17.82996 -44.5341,-59.13495 -37.9335,-94.36914 -0.391,-27.37561 -30.3508,-38.96927 -36.9024,-64.09375 -5.5879,-9.75224 -12.2463,-26.33636 -24.9375,-26.10547 z"
         style="opacity:1;fill:#386e34;fill-opacity:1;fill-rule:nonzero;stroke:none;stroke-width:29.1327;stroke-linecap:round;stroke-linejoin:round;stroke-miterlimit:4;stroke-dasharray:none;stroke-dashoffset:0;stroke-opacity:1;paint-order:markers stroke fill"
         inkscape:connector-curvature="0" />
      <path
         id="path4717"
         transform="matrix(0.26458333,0,0,0.26458333,0,-496.75002)"
         d="m 2811.9805,460.3125 c -11.5817,31.5885 -6.0531,71.4465 -35.1309,94.85742 -8.6268,7.92571 -20.4066,13.61741 -10.541,25.63086 16.8743,47.44248 -0.3182,107.05014 -44.4766,133.4043 21.7212,61.62259 -8.6305,124.75693 -18.3359,185.01953 -4.5403,12.45938 -12.0738,23.455 -18.5977,34.91211 0.5624,0.5652 1.1127,1.11845 1.668,1.67773 14.8821,2.49605 28.2099,10.35634 42.0195,16.22461 10e-4,-0.69542 0,-1.3876 -0.019,-2.14453 -1.0288,-34.28557 53.4278,30.32638 70.418,-13.40234 5.449,-14.02447 30.4367,0.2383 40.9609,9.75976 1.4605,1.32137 2.9174,2.51119 4.3692,3.58594 8.9963,1.64392 17.8326,4.52812 26.2656,8.30664 18.7638,-0.78456 37.421,-13.13283 57.2754,-17.45898 -15.3031,-30.05964 -21.8067,-66.10805 -2.8731,-95.94532 13.6872,-17.29107 14.1332,-40.0404 3.793,-58.59765 -14.2148,-31.99098 -32.305,-65.28942 -27.8516,-101.35352 -22.7816,-15.81282 -39.3616,-42.26701 -34.6953,-71.0664 2.4047,-11.42865 2.6033,-21.4873 -8.1933,-28.14649 -25.391,-29.84492 -25.0586,-71.63442 -31.6309,-107.40625 -4.8418,-5.19466 -10.0551,-16.69779 -14.4238,-17.85742 z"
         style="opacity:1;fill:#3e7939;fill-opacity:1;fill-rule:nonzero;stroke:none;stroke-width:29.1327;stroke-linecap:round;stroke-linejoin:round;stroke-miterlimit:4;stroke-dasharray:none;stroke-dashoffset:0;stroke-opacity:1;paint-order:markers stroke fill"
         inkscape:connector-curvature="0" />
      <path
         transform="matrix(0.26458333,0,0,0.26458333,0,-496.75002)"
         id="path4740"
         d="m 2783.75,649.66797 c -4.7889,9.61629 -19.4505,15.32577 -10.9688,27.49805 10.5879,48.93528 -6.4413,103.04319 -43.8183,136.51367 9.2246,49.81216 -3.1729,98.67018 -16.2988,146.79492 10.327,7.81552 16.4382,7.27803 15.9023,-10.58008 -1.0288,-34.28557 53.4278,30.32638 70.418,-13.40234 5.449,-14.02447 30.4367,0.2383 40.9609,9.75976 6.08,5.50069 12.0786,8.78584 18.0371,10.48243 2.7082,-18.98654 9.3443,-37.38055 19.666,-53.41797 -5.1934,-39.53246 -37.4537,-71.50499 -34.0605,-112.99414 -9.7122,-19.84275 -29.5787,-34.19362 -32.4356,-57.61524 -4.193,-20.12572 -0.026,-41.88238 -15.9668,-57.51953 -4.773,-7.59859 -8.264,-19.35973 -11.4355,-25.51953 z"
         style="opacity:1;fill:#488940;fill-opacity:1;fill-rule:nonzero;stroke:none;stroke-width:29.1327;stroke-linecap:round;stroke-linejoin:round;stroke-miterlimit:4;stroke-dasharray:none;stroke-dashoffset:0;stroke-opacity:1;paint-order:markers stroke fill"
         inkscape:connector-curvature="0" />
    </g>
    <path
       style="fill:#6b5035;fill-opacity:1;stroke-width:0.468;stroke-linecap:round;stroke-linejoin:round;paint-order:markers stroke fill"
       d="m 31.443125,-155.07889 c -3.635999,1.72942 -4.751588,3.1815 -7.354633,2.68568 -2.603044,-0.49582 -3.305449,-1.1569 -5.123453,-0.0413 -1.817995,1.1156 -4.50368,1.48745 -3.759953,2.60305 0.743727,1.11559 4.710271,0.61977 8.676815,-0.78505 3.966545,-1.40482 3.562956,-0.25479 6.610907,-1.44613 2.495463,-0.97539 4.586316,-4.74567 0.950317,-3.01625 z"
       id="path14"
       sodipodi:nodetypes="sssssss" />
    <path
       style="fill:#6b5035;fill-opacity:1;stroke-width:0.468;stroke-linecap:round;stroke-linejoin:round;paint-order:markers stroke fill"
       d="m 40.088279,-172.65656 c -1.429031,3.76421 -3.254592,2.403 -3.08075,5.58116 0.144727,2.64589 -2.278146,3.55862 -4.099959,4.9608 -1.69031,1.30097 -2.222961,4.18976 -0.914146,4.48078 1.308807,0.29102 3.829939,-2.81111 5.722212,-6.5696 1.892273,-3.7585 2.396458,-2.64888 3.773125,-5.61773 1.127126,-2.4307 0.02855,-6.59961 -1.400482,-2.83541 z"
       id="path15"
       sodipodi:nodetypes="sssssss" />
    <path
       style="fill:#957453;fill-opacity:1;stroke-width:0.251244;stroke-linecap:round;stroke-linejoin:round;paint-order:markers stroke fill"
       d="m 34.480899,-159.95969 c -0.767171,2.0208 -2.707681,1.32 -3.2851,2.68253 -0.577419,1.36253 -1.745067,5.14613 -1.060597,5.38238 0.68447,0.23625 4.000993,-0.94448 5.016854,-2.96222 1.015861,-2.01774 0.349692,-2.69579 1.021769,-4.14516 0.672077,-1.44937 -0.925755,-2.97833 -1.692926,-0.95753 z"
       id="path17"
       sodipodi:nodetypes="zzzzzz" />
    <path
       style="fill:#957453;fill-opacity:1;stroke-width:0.251244;stroke-linecap:round;stroke-linejoin:round;paint-order:markers stroke fill"
       d="m 12.325046,-153.58723 c -1.934071,0.96517 -2.6608493,-0.57142 -4.2334946,-0.25569 -1.3947293,0.28 -1.2080111,1.91156 -2.4372862,1.80171 -1.1405526,-0.10191 -2.4022566,0.8441 -1.9917392,1.43536 0.4105214,0.59124 3.5812383,2.0186 5.6960207,1.2243 2.1147893,-0.7943 1.9377043,-1.68361 3.5616033,-2.354 1.329546,-0.54888 1.338966,-2.81685 -0.595104,-1.85168 z"
       id="path18"
       sodipodi:nodetypes="sssssss" />
  </g>
</svg>
