<?xml version="1.0" encoding="UTF-8" standalone="no"?>
<!-- Created with Inkscape (http://www.inkscape.org/) -->

<svg
   width="128"
   height="128"
   viewBox="0 0 33.866666 33.866668"
   version="1.1"
   id="svg8"
   inkscape:version="1.4 (86a8ad7, 2024-10-11)"
   sodipodi:docname="leaf.svg"
   xmlns:inkscape="http://www.inkscape.org/namespaces/inkscape"
   xmlns:sodipodi="http://sodipodi.sourceforge.net/DTD/sodipodi-0.dtd"
   xmlns="http://www.w3.org/2000/svg"
   xmlns:svg="http://www.w3.org/2000/svg"
   xmlns:rdf="http://www.w3.org/1999/02/22-rdf-syntax-ns#"
   xmlns:cc="http://creativecommons.org/ns#"
   xmlns:dc="http://purl.org/dc/elements/1.1/">
  <defs
     id="defs2" />
  <sodipodi:namedview
     id="base"
     pagecolor="#000000"
     bordercolor="#666666"
     borderopacity="1.0"
     inkscape:pageopacity="0.0"
     inkscape:pageshadow="2"
     inkscape:zoom="3.959798"
     inkscape:cx="137.75955"
     inkscape:cy="67.301413"
     inkscape:document-units="mm"
     inkscape:current-layer="layer1"
     showgrid="false"
     inkscape:pagecheckerboard="true"
     inkscape:showpageshadow="false"
     borderlayer="true"
     units="px"
     inkscape:object-nodes="false"
     inkscape:snap-nodes="false"
     inkscape:window-width="3440"
     inkscape:window-height="1377"
     inkscape:window-x="-8"
     inkscape:window-y="-8"
     inkscape:window-maximized="1"
     inkscape:deskcolor="#505050" />
  <metadata
     id="metadata5">
    <rdf:RDF>
      <cc:Work
         rdf:about="">
        <dc:format>image/svg+xml</dc:format>
        <dc:type
           rdf:resource="http://purl.org/dc/dcmitype/StillImage" />
      </cc:Work>
    </rdf:RDF>
  </metadata>
  <g
     inkscape:label="Layer 1"
     inkscape:groupmode="layer"
     id="layer1"
     transform="translate(0,496.75)">
    <g
       id="g834"
       transform="matrix(-0.02716457,-0.11791016,0.11791016,-0.02716457,53.075133,-441.06159)">
      <path
         sodipodi:nodetypes="ccccscscsccscscccscscccscscccscccccccccccccssc"
         inkscape:connector-curvature="0"
         id="path828"
         d="m 274.75307,-371.17382 c 33.40868,40.62496 46.23764,67.08466 46.50491,71.09369 -0.53456,14.43256 -33.67598,53.45391 -33.67598,53.45391 l 29.39965,-8.01809 c 0,0 1.86356,13.36405 -25.12332,37.95227 -0.19757,0.18001 5.34537,5.34541 5.34537,5.34541 0,0 -12.41205,20.01296 -14.43254,29.93416 0,0 47.03942,-31.53781 45.70309,-16.57071 -1.33635,31.00328 -23.25246,53.98845 -23.25246,53.98845 14.18013,-6.68207 8.8199,23.78699 8.8199,23.78699 13.09622,-8.8199 5.61265,18.4416 5.61265,18.4416 0,0 15.28932,-24.60071 20.04522,-23.51971 4.40815,1.00195 6.41448,10.95805 6.41448,10.95805 0,0 9.93359,-41.7918 25.65786,-42.22859 19.24341,-0.53454 6.68175,55.32479 6.68175,55.32479 0,0 3.74176,-8.55263 7.48355,-6.94902 3.74176,1.60364 2.67269,27.79604 2.67269,27.79604 0,0 17.23829,-30.26292 26.72696,-30.46873 9.02651,-0.19578 18.70885,25.123353 18.70885,25.123353 0,0 1.06907,-5.879941 5.3454,-5.879941 4.2763,0 16.5707,19.24341 16.5707,19.24341 0,0 2.93997,-11.225337 1.0691,-27.261502 7.75081,0.267275 14.43254,0 14.43254,0 0,0 -14.96606,-13.00873 -8.81989,-26.1924 3.3916,-7.27506 35.27956,-0.26727 35.27956,-0.26727 0,0 1.06021,-2.1286 -9.88896,-12.29441 -4.72034,-4.38262 1.06909,-9.88896 1.06909,-9.88896 -19.10379,-5.67338 -50.9187,-28.18125 -52.38483,-36.8832 -1.33636,-8.55263 20.84703,-10.15625 20.84703,-10.15625 0,0 -2.13818,-6.94901 9.62168,-7.48355 11.75988,-0.53454 18.70887,3.74179 18.70887,3.74179 l 2.67271,-7.48355 h 17.63977 c 0,0 -14.16528,-2.93997 -14.96708,-7.48356 -0.53455,-3.20722 5.34538,-6.41445 5.34538,-6.41445 0,0 -17.10523,0.80181 -20.31249,-6.94902 -1.87087,-6.41446 7.48356,-12.82893 7.48356,-12.82893 0,0 -78.04269,1.87088 -80.18087,-9.62171 -2.13815,-14.43255 36.88321,-33.67596 36.88321,-33.67596 l -26.72697,-0.53453 1.33635,-6.94901 c 0,0 -36.34866,4.81084 -42.49586,-0.80181 -4.54356,-4.00904 11.22535,-15.7689 11.22535,-15.7689 0,0 -54.46374,5.22313 -59.86838,-0.53454 -6.96248,-7.41727 -26.67106,-46.57087 -42.49585,-70.02461 -1.14556,-1.69782 -9.12166,4.81084 -6.68175,6.949 z"
         style="fill:#ff9529;fill-opacity:1;fill-rule:evenodd;stroke:none;stroke-width:1.565;stroke-linecap:butt;stroke-linejoin:miter;stroke-miterlimit:4;stroke-dasharray:none;stroke-opacity:1" />
      <path
         sodipodi:nodetypes="cccccccccccccccccccccccccccccccccccccccccccccccccccccc"
         inkscape:connector-curvature="0"
         id="path830"
         d="m 343.20239,-278.65774 -17.38691,-26.83631 -2.64583,7.55952 16.63094,22.3006 c -6.44783,41.72049 -14.96155,41.31701 -33.26191,52.1607 0,0 10.71142,-2.2262 17.00892,-6.42559 0,0 -28.71627,35.71102 -27.76781,36.72855 0.78995,0.96742 30.41365,-36.72855 30.41365,-36.72855 0,0 3.12589,13.99375 7.55954,18.52083 1.62668,0.63292 -7.75367,-15.91218 -4.91371,-23.43451 8.39457,-10.35011 12.71434,-22.33014 13.98513,-35.52977 l 17.76487,31.37203 c -2.92957,50.77709 -8.43611,78.63339 -47.24702,92.22618 0.006,1.8446 18.48527,-2.47666 30.61608,-13.60713 0,0 -17.80814,40.81445 -16.63094,41.57737 1.33378,0.34665 18.14285,-37.04167 18.14285,-37.04167 -0.41586,8.44147 0.53374,16.88294 1.51191,25.32441 2.72825,5.09414 -0.1346,-19.24912 3.06966,-39.04225 1.74,-9.25904 14.28615,-22.67486 14.31724,-63.01132 l 38.55355,62.74405 c -2.16022,28.10315 0.87351,33.91752 -15.11903,51.02678 -0.49656,1.78657 7.55951,-3.1325 11.33927,-9.44941 l -7.9375,33.639892 c 1.66236,0.641986 10.96132,-31.750002 10.96132,-31.750002 0.79823,5.64548 5.87588,13.80915 7.55952,13.98511 1.77791,-0.51509 -5.22932,-7.17738 -5.29167,-20.78868 1.31061,-10.04879 1.95794,-21.16667 1.13393,-31.75 0,0 44.59981,79.437487 45.89169,77.863088 2.93846,-1.289134 -44.37979,-81.642848 -44.37979,-81.642848 20.77091,16.0337 36.11399,15.36683 47.625,41.57739 1.46683,1.25228 -0.92886,-11.47174 -9.4494,-21.16667 0,0 34.39258,13.91219 35.1518,12.09522 0.1015,-2.22163 -32.88393,-13.98511 -32.88393,-13.98511 8.71554,0.0914 14.04535,-0.94586 18.52083,-2.26785 -0.0613,-1.82197 -12.1877,2.19809 -29.86013,-2.26787 l -32.12796,-17.38689 -35.52978,-63.12203 c 20.63547,11.25418 37.63084,14.50014 54.80656,18.14287 6.07113,3.35503 14.8702,10.68216 20.41072,18.52083 0.91084,-0.83461 -0.78568,-5.98195 -14.36311,-18.14287 0,0 55.21599,7.73584 55.56249,6.42559 -0.48801,-1.36383 -56.69642,-9.82737 -56.69642,-9.82737 21.20865,-6.68547 35.19204,-15.26938 34.39583,-16.25298 -0.84881,-1.29948 -15.87166,8.381 -40.44344,15.875 -18.71299,-3.60133 -34.66068,-7.93296 -57.83035,-20.78869 l -19.65478,-35.15178 c 12.13306,4.72112 24.9698,4.2713 37.79763,4.15773 11.70113,5.39715 15.08248,13.35715 16.25299,12.47322 1.09788,-1.36383 -3.73266,-8.56902 -10.58334,-11.71726 0,0 33.21794,-2.99013 32.88393,-4.53572 -0.30789,-1.33001 -36.66371,1.13393 -36.66371,1.13393 7.35558,-3.50148 11.50338,-8.24994 10.96132,-8.69345 -0.6419,-0.60557 -4.63914,3.74579 -15.11904,8.31548 -11.67872,0.53732 -23.93862,-0.3783 -37.04166,-3.40179 z"
         style="fill:#ffdc9e;fill-opacity:1;fill-rule:evenodd;stroke:none;stroke-width:0.264583px;stroke-linecap:butt;stroke-linejoin:miter;stroke-opacity:1" />
    </g>
  </g>
</svg>
