<?xml version="1.0" encoding="UTF-8" standalone="no"?>
<svg
   width="1000"
   height="2700"
   version="1.1"
   viewBox="0 0 264.58 714.375"
   id="svg40"
   sodipodi:docname="child.svg"
   inkscape:version="1.4 (86a8ad7, 2024-10-11)"
   xml:space="preserve"
   inkscape:export-filename="missing-child.png"
   inkscape:export-xdpi="4.5511112"
   inkscape:export-ydpi="4.5511112"
   xmlns:inkscape="http://www.inkscape.org/namespaces/inkscape"
   xmlns:sodipodi="http://sodipodi.sourceforge.net/DTD/sodipodi-0.dtd"
   xmlns="http://www.w3.org/2000/svg"
   xmlns:svg="http://www.w3.org/2000/svg"><defs
     id="defs40" /><sodipodi:namedview
     id="namedview40"
     pagecolor="#505050"
     bordercolor="#ffffff"
     borderopacity="1"
     inkscape:showpageshadow="0"
     inkscape:pageopacity="0"
     inkscape:pagecheckerboard="1"
     inkscape:deskcolor="#505050"
     inkscape:zoom="0.27695016"
     inkscape:cx="-1588.7335"
     inkscape:cy="1633.868"
     inkscape:window-width="3440"
     inkscape:window-height="1377"
     inkscape:window-x="-8"
     inkscape:window-y="-8"
     inkscape:window-maximized="1"
     inkscape:current-layer="svg40" /><path
     id="path40"
     style="fill:#ff1f1f;stroke-width:4.55762;fill-opacity:1"
     d="M 161.61896 7.992277 C 160.96891 7.992277 157.7123 9.7869755 154.38219 11.980147 C 147.99209 16.188515 134.82968 21.341017 108.97669 29.75529 C 89.029897 36.247299 76.331347 42.619469 69.273691 49.677071 C 67.545405 51.405604 67.374583 51.365108 67.374583 49.225936 C 67.374583 45.949602 70.477514 38.861669 72.730845 36.991541 C 75.638699 34.578246 74.949586 33.212543 71.594997 34.741032 C 69.93689 35.496504 68.580194 36.602337 68.580194 37.198246 C 68.580194 37.794383 68.117342 37.99585 67.551833 37.646281 C 66.986324 37.296803 64.977899 40.066142 63.088539 43.800427 L 59.65309 50.590194 L 58.642816 47.077747 C 58.086787 45.146092 57.943411 40.988316 58.323972 37.838 C 58.704716 34.687682 58.549722 32.110185 57.97929 32.110185 C 56.567249 32.110185 52.625251 36.636505 49.54673 41.793315 C 46.824675 46.352938 43.927576 61.166931 44.956313 65.265784 C 45.542063 67.599694 45.051652 67.753753 36.88187 67.802063 C 28.063531 67.854253 23.420757 69.566967 15.755511 75.596419 C 12.172503 78.414868 7.8384173 83.916054 8.6003923 84.678035 C 8.9240287 85.001674 11.02046 84.222984 13.259539 82.947392 C 17.547156 80.504827 29.992368 78.522558 29.992368 80.282438 C 29.992368 80.848901 28.192464 82.374456 25.992612 83.672412 C 18.921256 87.844602 11.133335 98.854086 8.519777 108.3722 C 7.0526383 113.71525 8.6092344 115.52174 10.592519 110.77773 C 12.056138 107.27674 18.288723 99.638879 19.681886 99.638879 C 20.413252 99.638879 16.089158 106.51549 14.3742 108.07971 C 13.418185 108.95172 13.011484 112.14013 12.281305 124.48646 C 11.390874 139.54241 15.286711 152.27239 25.99623 169.30129 C 28.194137 172.79612 29.992368 176.12165 29.992368 176.69154 C 29.992368 177.26143 28.342236 178.41153 26.325409 179.24694 C 17.454461 182.92144 12.174721 190.59678 11.055023 201.44559 C 10.518176 206.64711 10.962132 208.7703 13.733929 214.25462 C 15.561347 217.87034 18.374901 222.05689 19.986261 223.55793 C 28.123815 231.13843 43.392035 234.42232 52.869008 230.63037 C 57.506125 228.77515 57.838507 228.78344 58.451096 230.77248 C 60.436578 237.21955 66.33017 246.50849 71.825474 251.85129 C 79.644888 259.45363 85.359245 262.72326 97.898301 266.76925 C 112.7755 271.5697 114.42988 272.2656 113.71387 273.42414 C 113.35154 274.01039 110.78062 274.50473 108.00104 274.52743 C 103.43422 274.56112 102.55104 275.0906 98.834161 280.02322 C 94.984391 285.13211 89.758348 288.96066 86.633872 288.96066 C 84.193041 288.96066 68.113064 297.30153 62.370237 301.54645 C 58.987799 304.04663 55.905183 307.63486 54.601202 310.59034 C 53.412347 313.28498 52.001583 315.48979 51.465993 315.48979 C 50.930404 315.48979 50.492409 316.28469 50.492409 317.2566 C 50.492409 318.6666 38.573573 348.06044 32.139524 362.51844 C 31.401656 364.17649 30.665367 366.20942 30.502931 367.03548 C 30.340483 367.86155 28.748234 372.35591 26.964646 377.0235 C 24.17493 384.3244 23.780433 386.92527 24.14363 395.6389 C 24.551101 405.41449 24.4451 405.89415 21.095237 409.39258 C 17.430373 413.21998 17.357323 414.80623 20.491656 422.5215 C 21.889394 425.9621 21.816387 426.95583 19.906162 430.50292 C 16.981543 435.9336 17.742731 439.68087 22.407301 442.81638 C 24.536242 444.24747 26.054241 445.64196 25.780739 445.91542 C 25.202082 446.4941 26.360496 446.65739 38.189284 447.66466 L 46.989264 448.41397 L 53.262782 457.38087 C 62.661416 470.81441 66.168455 477.97332 66.168455 483.72396 C 66.168455 486.47903 65.76628 489.13514 65.274969 489.62644 C 64.783658 490.11776 64.277008 494.14244 64.14894 498.57008 C 64.02078 502.99771 63.654585 508.51937 63.335553 510.84065 C 61.677217 522.90262 54.146434 583.70267 53.440549 590.72932 C 52.901 596.10021 52.099298 598.86939 51.083587 598.86939 C 48.740958 598.86939 48.460178 600.78609 48.708022 615.08494 L 48.936948 628.2862 L 52.98528 631.66584 C 55.211781 633.52458 57.471053 635.04548 58.006162 635.04548 C 61.26773 635.04548 49.939891 661.14282 44.987319 665.03848 C 43.372504 666.30868 42.051064 667.97184 42.051064 668.73438 C 42.051064 669.49691 40.741866 671.5329 39.141681 673.25865 C 37.541492 674.98435 36.51444 677.1312 36.859132 678.02941 C 37.20382 678.92766 36.749368 679.66669 35.849375 679.67169 C 32.187832 679.69275 29.714599 691.51904 32.344163 696.43243 C 34.539982 700.53539 47.827412 705.37711 58.462465 705.94967 C 67.486914 706.43557 68.849667 706.18633 76.117201 702.71783 C 89.615907 696.27552 104.75628 680.3733 104.75628 672.63801 C 104.75628 670.61052 104.24819 668.63805 103.62715 668.2543 C 103.00614 667.87051 102.46249 666.61708 102.41689 665.46946 C 102.37233 664.3219 101.93055 658.13692 101.43555 651.72508 L 100.53587 640.06739 L 105.00381 638.73 C 110.7346 637.0146 113.19763 634.50167 113.19763 630.36979 C 113.19763 628.55626 114.33764 623.69577 115.73132 619.5689 C 118.61789 611.02131 118.13884 607.09485 113.97846 605.19924 C 111.86519 604.2364 111.20954 603.12287 111.54863 601.07339 C 118.3985 559.65932 130.63493 518.09062 137.70311 512.22455 C 140.00192 510.31675 140.47346 511.8329 146.27416 539.78152 C 153.61547 575.15289 155.98385 599.71984 152.43037 603.64636 C 150.87841 605.36126 150.87841 606.31298 152.43037 611.46965 C 153.40214 614.69867 154.19719 620.9688 154.19719 625.40317 C 154.19719 634.25649 155.58016 636.56094 161.82928 638.12074 L 165.24044 638.97237 L 164.42654 649.36863 C 163.97879 655.08684 163.07726 661.93594 162.42356 664.58889 C 159.81757 675.16476 159.85288 675.67066 163.57285 681.07522 C 167.51268 686.79923 178.04391 695.82292 181.73918 698.85295 C 183.767 700.51571 186.1511 701.43231 189.22399 703.20617 C 191.2323 704.36551 195.23374 705.53836 198.00175 706.02202 L 198.00227 706.0215 C 207.25414 707.63809 223.69712 703.61172 230.20444 698.1362 C 232.75179 695.99275 233.78458 694.04889 233.78458 691.39759 C 233.78458 686.0697 231.24834 679.78464 228.7823 679.00197 C 227.50288 678.59588 226.94825 677.61466 227.37257 676.50858 C 227.78001 675.44685 227.05583 673.9724 225.63986 672.98063 C 224.30197 672.04352 223.62768 669.55209 222.47829 668.37212 C 220.15515 665.98718 218.95894 665.88067 218.10853 664.48295 C 217.94209 664.20936 217.23198 662.56338 216.16085 660.92865 C 215.08995 659.29392 214.63112 657.95622 215.14179 657.95622 C 215.65247 657.95622 215.1397 656.92785 214.00233 655.67109 C 210.07864 650.06503 208.58018 643.15043 206.13355 636.85363 L 210.62372 634.91628 C 218.83298 631.37487 219.10945 630.33932 216.87347 611.53011 C 215.79272 602.43876 214.87849 598.9789 213.1569 597.46947 C 211.0306 595.60513 210.87332 593.39494 210.87332 565.34637 C 210.87332 548.77973 210.30345 525.66308 209.60724 513.97638 C 208.49855 495.36604 208.57353 492.39683 210.21031 490.06001 C 212.57861 486.67857 212.56645 484.97062 210.15656 482.56073 C 208.48359 480.88782 208.42877 479.82001 209.73644 474.33487 C 210.56296 470.86806 213.0934 463.14789 215.35935 457.17881 C 217.62531 451.2098 220.28841 444.07458 221.27733 441.32293 C 223.68576 434.62139 225.92989 432.88932 233.78458 431.66926 L 240.41673 430.63935 L 240.79759 425.30789 C 241.00719 422.37583 241.95701 418.86618 242.90805 417.50837 C 245.38693 413.96924 245.16484 413.06192 239.93563 405.35717 C 236.05465 399.63846 235.4003 397.85208 236.18443 395.118 C 237.99553 388.80291 236.84612 385.41692 224.69315 361.25547 C 220.50753 352.93394 215.35382 340.99584 213.2401 334.72634 C 211.12636 328.45678 207.80778 320.34262 205.86587 316.69488 C 200.18931 306.03181 202.50826 307.90342 175.90284 292.51289 C 171.84033 290.1628 162.7382 282.0268 163.41472 281.35027 C 163.71262 281.05238 162.57411 280.46155 160.88515 280.03769 C 159.19623 279.61378 157.81454 278.73493 157.81454 278.08432 C 157.81454 277.43373 157.06726 276.90144 156.15366 276.90144 C 155.23998 276.90144 153.87969 276.16319 153.13111 275.26123 C 152.02483 273.92825 152.86269 273.49189 157.60577 272.93011 C 165.25549 272.02414 176.78875 268.13466 187.75328 262.76277 C 199.61024 256.95363 209.41526 247.13339 213.90362 236.57264 C 216.37351 230.76123 217.87544 228.66666 219.57098 228.66666 C 223.59343 228.66666 235.1609 222.25219 238.10886 218.38719 C 243.65198 211.11983 246.00554 203.98117 245.14719 197.0381 C 243.75319 185.76155 236.66501 176.48443 228.23556 174.90302 C 225.98155 174.48017 224.13762 173.62849 224.13762 173.01063 C 224.13762 170.77543 234.0871 158.77061 235.31214 159.52773 C 236.0035 159.95508 236.23774 159.76868 235.83303 159.1138 C 235.42825 158.45886 236.51733 155.83255 238.25356 153.27747 C 246.3623 141.34458 250.16025 119.77208 246.56726 106.05451 C 244.36161 97.633627 238.64687 84.924772 235.50489 81.452909 C 233.00507 78.690623 232.86926 78.704744 240.30666 80.96095 C 246.51312 82.843745 256.73697 83.401344 256.63797 81.851851 C 256.60615 81.354431 253.7572 78.914981 250.30709 76.430477 C 246.85696 73.945993 239.15059 67.529454 233.18152 62.171916 C 220.97985 51.220282 215.00341 47.33582 204.51453 43.537911 L 197.28293 40.919466 L 201.70799 40.201164 C 206.73586 39.385258 218.09922 41.702822 218.12662 43.549797 C 218.13678 44.221863 218.64079 43.988293 219.24645 43.030965 C 220.4386 41.146801 220.25887 41.000243 210.13589 35.593176 C 195.94747 28.014632 190.02865 26.697452 170.21172 26.715682 C 152.01283 26.731316 151.87466 26.710987 153.64425 24.295675 C 160.64808 14.735889 163.94669 7.992277 161.61896 7.992277 z M 137.05663 51.692969 C 158.1157 51.692969 174.99534 57.77176 187.69592 69.929582 C 200.3965 82.087397 206.74695 97.339137 206.74695 115.68441 C 206.74695 128.71064 202.8931 139.78262 195.1859 148.90099 C 187.58727 158.01935 172.82411 167.40921 150.89662 177.07033 C 150.24531 183.36635 148.39998 187.97993 145.36052 190.91083 C 142.42962 193.73319 138.68473 195.14416 134.12555 195.14416 C 129.24071 195.14416 125.22415 193.46153 122.07615 190.09641 C 119.03669 186.62275 117.51726 180.86984 117.51726 172.837 C 117.51726 172.837 115.72233 155.8028 128.91139 150.75514 C 142.10046 145.70747 159.79786 136.25475 165.22546 130.82716 C 170.65306 125.39956 173.36708 119.86358 173.36708 114.21887 C 173.36708 106.29458 170.16448 99.455541 163.75991 93.702291 C 157.4639 87.949041 148.5084 85.072843 136.89334 85.072843 C 116.88878 85.072843 101.39731 88.331053 101.39731 98.424483 C 101.39731 106.62682 99.823123 112.04798 96.67512 115.52163 C 93.635664 118.88675 89.619116 120.56887 84.625726 120.56887 C 79.740888 120.56887 75.724338 118.88675 72.576332 115.52163 C 69.536876 112.15651 68.017437 106.45732 68.017437 98.424483 C 68.017437 98.424483 66.297054 87.586844 74.376739 75.002657 C 82.456431 62.418475 98.303289 58.20599 107.74731 55.600741 C 117.19132 52.995492 126.96129 51.692969 137.05663 51.692969 z M 134.28833 224.2907 C 140.42596 224.2907 144.79316 225.9186 147.38985 229.17516 C 150.06522 232.32316 151.40305 236.44818 151.40305 241.55011 C 151.40305 246.65206 150.06522 250.8313 147.38985 254.08785 C 144.79316 257.23587 140.42596 258.81004 134.28833 258.81004 C 128.15071 258.81004 123.74435 257.23587 121.06898 254.08785 C 118.47228 250.8313 117.17361 246.65206 117.17361 241.55011 C 117.17361 236.44818 118.47228 232.32316 121.06898 229.17516 C 123.66566 225.9186 128.07202 224.2907 134.28833 224.2907 z " /></svg>
