<?xml version="1.0" encoding="UTF-8" standalone="no"?>
<!-- Created with Inkscape (http://www.inkscape.org/) -->

<svg
   width="500"
   height="128"
   viewBox="0 0 132.29168 33.866667"
   version="1.1"
   id="svg8"
   inkscape:version="1.4 (86a8ad7, 2024-10-11)"
   sodipodi:docname="mt-everest.svg"
   inkscape:export-filename="G:\Pictures\My Pictures\Vectors and SVGs\Nature\Mt Everest.png"
   inkscape:export-xdpi="96"
   inkscape:export-ydpi="96"
   xmlns:inkscape="http://www.inkscape.org/namespaces/inkscape"
   xmlns:sodipodi="http://sodipodi.sourceforge.net/DTD/sodipodi-0.dtd"
   xmlns="http://www.w3.org/2000/svg"
   xmlns:svg="http://www.w3.org/2000/svg"
   xmlns:rdf="http://www.w3.org/1999/02/22-rdf-syntax-ns#"
   xmlns:cc="http://creativecommons.org/ns#"
   xmlns:dc="http://purl.org/dc/elements/1.1/">
  <defs
     id="defs2" />
  <sodipodi:namedview
     id="base"
     pagecolor="#000000"
     bordercolor="#666666"
     borderopacity="1.0"
     inkscape:pageopacity="0"
     inkscape:pageshadow="2"
     inkscape:zoom="1.4"
     inkscape:cx="176.07143"
     inkscape:cy="178.21429"
     inkscape:document-units="mm"
     inkscape:current-layer="layer1"
     showgrid="false"
     borderlayer="true"
     inkscape:showpageshadow="false"
     inkscape:pagecheckerboard="true"
     units="px"
     inkscape:window-width="3440"
     inkscape:window-height="1377"
     inkscape:window-x="-8"
     inkscape:window-y="-8"
     inkscape:window-maximized="1"
     inkscape:snap-global="false"
     showguides="true"
     inkscape:guide-bbox="true"
     inkscape:deskcolor="#505050" />
  <metadata
     id="metadata5">
    <rdf:RDF>
      <cc:Work
         rdf:about="">
        <dc:format>image/svg+xml</dc:format>
        <dc:type
           rdf:resource="http://purl.org/dc/dcmitype/StillImage" />
      </cc:Work>
    </rdf:RDF>
  </metadata>
  <g
     inkscape:label="Layer 1"
     inkscape:groupmode="layer"
     id="layer1"
     transform="translate(0,-45.64581)">
    <path
       style="opacity:1;fill:#fafafa;fill-opacity:1;fill-rule:nonzero;stroke:none;stroke-width:0.887509;stroke-linecap:round;stroke-linejoin:round;stroke-miterlimit:4;stroke-dasharray:none;stroke-dashoffset:0;stroke-opacity:1;paint-order:markers stroke fill"
       d="m 65.40591,45.977546 c 0.272798,0 0.56929,0.56929 1.565548,1.043697 0.996258,0.474392 2.324601,0.853936 2.846452,1.138581 0.521852,0.284666 0.853936,0.521851 1.660432,0.474392 0.806492,-0.04727 1.945072,0.521846 2.466919,0.853935 0.521851,0.332085 0.258824,-0.196867 1.298725,0.50758 1.039916,0.704461 1.039916,0.872189 1.274738,0.905736 0.234833,0.03339 0.436118,0.637367 0.670914,0.670914 0.234833,0.03339 0.73801,0.234833 1.140559,0.503213 0.40257,0.26838 1.039916,0.436066 1.308286,0.301928 0.26838,-0.134191 0.469614,0 1.241191,0.603819 0.771546,0.603824 1.375376,1.006373 2.515929,1.50956 1.140554,0.503213 1.744383,1.073464 2.348203,1.140559 0.603824,0.0671 0.436117,-0.13419 1.476013,-0.03339 1.039916,0.100642 1.341833,0.335475 1.878563,0.167737 0.536729,-0.167737 0.939284,-0.436066 1.44247,-0.201285 0.503162,0.234833 1.744373,1.375376 2.616567,1.945653 0.872189,0.570282 0.939284,-0.03339 1.576651,0.234832 0.637367,0.26838 0.40257,-0.100642 1.241191,0.100643 0.838641,0.201285 1.576651,-0.100643 1.845015,-0.369023 0.26838,-0.26838 0.905737,-0.03339 1.408924,-0.100642 0.503212,-0.06709 0.83864,-0.503213 1.24119,-0.503213 0.40257,0 0.26838,-0.03339 0.63737,-0.369022 0.36902,-0.335475 1.74437,-1.476014 2.14693,-1.476014 0.40257,0 1.71083,0.402571 2.07984,0.570277 0.36902,0.167738 1.03991,0.469614 1.50955,0.570277 0.46961,0.100643 0.87219,0.201285 1.03992,0.234833 0.16774,0.03339 0.77155,1.174106 1.57665,1.91211 0.8051,0.738004 2.07984,2.314655 2.48239,2.884936 0.40252,0.570277 0.90573,0.838642 1.20764,0.805099 0.30193,-0.03339 0.30193,0.03339 0.73801,0.503162 0.43606,0.469613 1.37537,1.57665 1.74438,1.610198 0.36902,0.03339 1.14055,0.335475 1.37537,0.771551 0.23483,0.436118 1.07346,1.073464 1.27474,1.107012 0.20129,0.03339 2.11338,0.436066 3.05266,1.107006 0.93929,0.670919 3.25394,4.226765 3.48876,4.226765 0.23484,0 4.52868,5.300228 5.40087,6.00469 0.87218,0.704462 1.27473,1.845015 1.27473,1.845015 H 0.79146488 c 0,0 2.09433802,-5.166044 3.10071182,-5.836958 1.0063718,-0.670919 2.8178426,-1.878562 3.6229401,-2.012747 0.8050986,-0.13419 1.4089213,-1.677288 2.0127456,-1.878563 0.6038226,-0.201285 3.9583976,-1.274733 4.2267646,-1.878558 0.268365,-0.603824 1.34183,-0.738009 1.610197,-1.207648 0.268365,-0.469614 0.939279,-1.341834 1.543103,-1.610198 0.603822,-0.268381 2.750752,-0.805094 3.153301,-1.341829 0.40255,-0.536729 2.214019,-0.738004 2.482387,-0.939279 0.268364,-0.201285 1.744378,-0.26838 2.012744,-0.872194 0.268364,-0.603819 1.476013,-0.670914 1.81147,-1.207643 0.335454,-0.536735 0.872189,-1.677288 1.207649,-1.476013 0.335454,0.201285 1.00637,-1.341829 1.610197,-2.012743 0.603819,-0.670919 1.683294,-2.673926 2.347464,-2.721371 0.664171,-0.04726 1.233464,-0.04726 1.470665,0.189778 0.237206,0.237195 0.806494,-0.616735 1.328344,-0.521852 0.521851,0.09489 0.901376,0.379555 1.375784,0.426973 0.474412,0.04726 0.853938,-0.379554 1.09114,-0.853935 0.237206,-0.474392 0.806494,0.142307 1.091139,0.332084 0.284651,0.189777 0.61673,0.142307 0.901376,-0.04726 0.28465,-0.189778 0.426968,0.189777 0.948819,0.237195 0.521851,0.04727 0.711613,0.142307 0.996258,-0.04726 0.284666,-0.189777 0.948819,0.189777 1.18602,0.284666 0.237195,0.09489 0.237195,-0.284666 0.90138,-0.09489 0.664173,0.189777 3.131092,0.85393 4.032472,0.996258 0.901374,0.142307 2.229722,0.379503 2.799012,0.09489 0.569286,-0.284666 1.850189,-0.664169 2.277159,-0.426973 0.426973,0.237196 2.514368,-0.04727 2.988775,-0.474392 0.474391,-0.426973 0.664173,-0.332084 0.948819,-0.56929 0.284665,-0.237196 -0.04727,-0.426973 0.56929,-0.853936 0.61673,-0.426973 0.901375,-0.948819 1.75531,-1.423226 0.853936,-0.474391 1.280904,-0.996258 1.518105,-1.518109 0.237195,-0.521846 1.802754,-0.948814 2.277161,-1.470665 0.474392,-0.521846 1.945078,-1.328343 2.134839,-1.612988 0.189777,-0.284666 1.008116,-0.853936 1.280904,-0.853936 z"
       id="path843"
       inkscape:connector-curvature="0"
       sodipodi:nodetypes="zcssccccccsscsccccscsscsccccccsccccscccssccccscccccsccccccscccsccccsscccz" />
    <path
       style="opacity:1;fill:#dbe8f3;fill-opacity:1;fill-rule:nonzero;stroke:none;stroke-width:0.887509;stroke-linecap:round;stroke-linejoin:round;stroke-miterlimit:4;stroke-dasharray:none;stroke-dashoffset:0;stroke-opacity:1;paint-order:markers stroke fill"
       d="m 37.064334,53.250661 c -0.105528,-0.0057 -0.198562,0.04161 -0.265272,0.175084 -0.237201,0.474391 -0.616674,0.901323 -1.091086,0.853884 -0.474407,-0.04726 -0.853956,-0.332033 -1.375806,-0.426921 -0.521852,-0.09489 -1.091183,0.759041 -1.32839,0.521835 -0.237201,-0.237195 -0.806479,-0.237247 -1.470651,-0.189777 -0.664169,0.04726 -1.743647,2.050431 -2.347468,2.721345 -0.603828,0.670914 -1.274717,2.214038 -1.610174,2.012758 -0.335459,-0.201285 -0.872215,0.939336 -1.20767,1.47607 -0.33546,0.536729 -1.543052,0.603752 -1.811418,1.207577 -0.268365,0.603824 -1.744393,0.670955 -2.012759,0.87223 -0.268364,0.201285 -2.079848,0.40257 -2.482397,0.939284 -0.402549,0.536729 -2.549466,1.073412 -3.153289,1.341771 -0.603823,0.26838 -1.274752,1.140626 -1.543117,1.610265 -0.268365,0.469665 -1.341805,0.603758 -1.61017,1.207582 -0.26837,0.603824 -3.622942,1.677288 -4.2267645,1.878563 -0.6038243,0.201285 -1.2076594,1.744378 -2.0127584,1.878563 -0.8050971,0.13419 -2.6165556,1.341838 -3.6229273,2.012758 -0.2165484,0.144362 -0.4836287,0.497664 -0.7692197,0.962027 0.5901381,-0.288262 1.6957479,-0.851464 1.8426048,-1.096228 0.2012747,-0.335475 2.0128103,-0.737968 2.5495422,-1.006332 0.5367323,-0.26838 1.2076475,-0.201285 1.8785622,-0.469614 0.6709157,-0.26838 1.1405687,0.335424 1.5431177,0.201234 0.40255,-0.134191 0.737941,0.603834 0.737941,0.603834 0,0 0.201337,-0.268329 0.670981,-0.670888 0.469639,-0.40257 1.006372,-1.878573 1.408921,-2.012758 0.40255,-0.13419 0.939242,0.939309 1.475974,0.738035 0.536733,-0.201285 1.140596,0.13419 1.811511,0.335423 0.670913,0.201285 1.543051,-5.1e-5 2.281057,-0.06715 0.738007,-0.0671 1.006411,-0.670873 1.341869,-1.006333 0.33546,-0.335475 0.603784,-0.469665 1.006335,-0.40257 0.402549,0.0671 1.140607,-0.335424 1.476065,-0.536693 0.33546,-0.201285 0.939227,0.536703 1.341778,0.201233 0.402549,-0.335475 0.939318,-0.134138 1.341867,0.201337 0.40255,0.335475 1.006372,0.0671 1.87856,0 0.872189,-0.06709 0.805034,-0.738071 1.207582,-1.61026 0.40255,-0.872189 1.140574,-1.610167 1.543122,-2.079812 0.40255,-0.469614 0.670938,4.1e-5 1.207671,-0.536688 0.536732,-0.536734 0.603869,-1.073479 1.341872,-1.073479 0.738006,0 1.006289,-0.805125 1.543021,-1.207674 0.536734,-0.40257 1.878589,-1.945653 2.616597,-2.348203 0.738007,-0.40257 0.670928,-1.408923 1.073476,-1.408923 0.40255,0 0.73803,-0.670888 0.73803,-1.140528 0,-0.469614 0.536683,-0.738045 0.872139,-1.341869 0.295968,-0.532738 0.852795,-1.639939 1.07201,-2.72263 -0.07213,0.0019 -0.136656,0.01747 -0.188493,0.05209 -0.284666,0.189777 -0.474494,0.09489 -0.996335,0.04726 -0.52185,-0.04726 -0.664171,-0.426973 -0.948819,-0.237196 -0.284646,0.189777 -0.616657,0.237196 -0.901305,0.04726 -0.204594,-0.136399 -0.556219,-0.493297 -0.82591,-0.507168 z"
       id="path845"
       inkscape:connector-curvature="0" />
    <path
       style="opacity:1;fill:#f0f5fa;fill-opacity:1;fill-rule:nonzero;stroke:none;stroke-width:0.887509;stroke-linecap:round;stroke-linejoin:round;stroke-miterlimit:4;stroke-dasharray:none;stroke-dashoffset:0;stroke-opacity:1;paint-order:markers stroke fill"
       d="m 23.40743,62.226206 c -0.38518,0.09566 -0.744284,0.158953 -0.863791,0.248601 -0.268365,0.201285 -2.079848,0.40257 -2.482397,0.939284 -0.40255,0.53673 -2.549466,1.073413 -3.153289,1.341772 -0.603824,0.26838 -1.274752,1.140626 -1.543118,1.610265 -0.268364,0.469665 -1.341805,0.603757 -1.610169,1.207582 -0.26837,0.603824 -3.622942,1.677288 -4.226765,1.878563 -0.6038243,0.201285 -1.2076594,1.744377 -2.0127585,1.878562 -0.805097,0.13419 -2.6165555,1.341839 -3.6229273,2.012758 -0.3527266,0.235141 -0.8391382,1.02304 -1.3221483,1.946619 l 9.7969581,-0.563475 9.630473,-5.076154 c 0,0 0.379601,-1.423267 0.284717,-1.802796 -0.09488,-0.379503 -0.427004,-0.664117 -0.142358,-0.853884 0.284645,-0.189777 0.189746,-0.806553 0.04742,-1.28096 -0.142322,-0.474391 0.426989,-1.233469 0.664193,-1.660437 0.217195,-0.39096 0.196928,-1.060579 0.555956,-1.826279 z"
       id="path847"
       inkscape:connector-curvature="0" />
    <path
       style="opacity:1;fill:#94aab8;fill-opacity:1;fill-rule:nonzero;stroke:none;stroke-width:0.887509;stroke-linecap:round;stroke-linejoin:round;stroke-miterlimit:4;stroke-dasharray:none;stroke-dashoffset:0;stroke-opacity:1;paint-order:markers stroke fill"
       d="m 43.651413,54.317261 c -0.550513,0.308966 -1.254363,0.799335 -1.254363,1.290778 0,0.806491 -0.426922,1.186061 -0.806461,1.091182 -0.379503,-0.09489 -1.091131,0.948804 -1.470655,1.47065 -0.379503,0.521851 -1.138565,1.565554 -1.233447,1.897643 -0.09489,0.332085 -0.284702,1.233408 -0.09494,1.565497 0.189767,0.332085 0.284661,0.569332 -0.04742,0.853977 -0.332089,0.284666 -0.426931,1.043651 -0.332048,1.565497 0.09488,0.521852 -4e-6,1.233526 -0.237206,1.755372 -0.237206,0.521852 0.189787,1.233449 0.426988,1.945062 0.237206,0.711613 0.284651,0.90137 0.237206,1.707861 -0.04742,0.806497 0.189767,0.474392 0.474412,0 0.284646,-0.474391 0.569258,-0.806476 0.569258,-0.284614 0,0.521846 0.284615,0.142256 0.569255,-0.09494 0.284614,-0.237196 0.189777,-1.09109 0.474391,-1.328296 0.284666,-0.237196 0.14241,0.237195 0.284718,0.711618 0.142307,0.474391 -0.474443,1.091069 -0.616771,1.612921 -0.142307,0.521851 0.332033,0.474391 0.569259,0 0.237196,-0.474392 0.189778,0.09489 0.474392,-0.04726 0.284666,-0.142307 -0.09484,-1.091106 0.142359,-1.518073 0.237195,-0.426973 0,-2.134814 0,-2.94131 0,-0.806491 0.237195,-1.470747 0.237195,-1.945154 0,-0.474392 0.237145,-1.565534 0.616684,-1.707861 0.379503,-0.142308 0.759072,0.474443 0.901395,1.138606 0.142307,0.664174 0.284666,0.569255 0.664194,0.569255 0.379555,0 0.237196,0.142358 0.237196,0.61677 0,0.474392 -0.901364,2.03993 -0.996243,2.229692 -0.09489,0.189777 -1.138606,0.806517 -1.375807,1.375807 -0.237196,0.569291 0.142358,1.138586 0.379554,1.423231 0.237196,0.284666 -0.332135,0.711655 -0.09494,0.616771 0.237196,-0.09489 0.759037,-0.711613 0.996243,-0.711613 0.237196,0 1.328425,0.664123 1.707948,0.853879 0.379503,0.189777 0.948819,-0.04726 1.186031,-0.426973 0.237195,-0.379554 0.142307,-0.948752 0.52183,-1.138514 0.379503,-0.189777 0.5218,-2.087461 0.142256,-1.755372 -0.379503,0.332085 -0.04726,-0.379451 -0.237196,-0.664102 -0.189777,-0.284665 -0.189674,-0.759093 0.04778,-1.328383 0.237195,-0.569291 0.09489,-0.711619 0,-0.948825 -0.09489,-0.237195 -0.711624,0.948825 -0.711624,0.948825 0,0 0.332085,-1.13855 0.04727,-1.280873 -0.284666,-0.142307 -1.280965,2.419474 -1.280965,2.419474 0,0 0.284665,-1.043723 0.711613,-2.087426 0.426973,-1.043697 -0.142307,-1.328347 -0.332033,-1.660432 -0.189777,-0.332084 -1.043682,-1.423231 -1.233449,-1.897643 -0.189777,-0.474391 -4.1e-5,-0.759057 0.332033,-0.948819 0.332084,-0.189777 -0.04726,-1.423159 -0.09484,-1.850127 -0.04727,-0.426973 0.237195,-0.616771 0.189777,-1.091178 -0.0411,-0.411303 0.02517,-0.859895 0.290933,-1.74446 -0.34801,-0.08944 -0.686018,-0.178474 -0.98175,-0.257951 z"
       id="path849"
       inkscape:connector-curvature="0" />
    <path
       style="opacity:1;fill:#809aab;fill-opacity:1;fill-rule:nonzero;stroke:none;stroke-width:0.887509;stroke-linecap:round;stroke-linejoin:round;stroke-miterlimit:4;stroke-dasharray:none;stroke-dashoffset:0;stroke-opacity:1;paint-order:markers stroke fill"
       d="m 48.217378,71.310722 c -0.21341,-0.0049 -0.573159,0.206731 -1.051188,0.08723 -0.805094,-0.201285 -0.469665,1.207674 -1.811509,2.146953 -1.341828,0.939284 -1.543088,-4.6e-5 -1.744362,-0.536786 -0.201286,-0.536729 -1.006359,-0.939278 -1.274729,-0.469613 -0.26838,0.469613 -1.744336,-0.134139 -1.945616,0.536785 -0.201285,0.670915 -1.610176,-0.40257 -1.74436,0.469614 -0.13418,0.872189 -1.006385,-0.670991 -1.073483,0.134087 -0.06708,0.805099 -1.274786,0.06715 -1.476061,-0.402518 -0.201275,-0.469614 -1.006302,-4.1e-5 -1.207581,0.536693 -0.20128,0.536729 -1.945683,0.536796 -2.616596,0.201336 -0.670921,-0.335475 -0.737975,-0.402621 -1.610169,-0.201336 -0.872192,0.201285 -1.61028,0 -1.27482,-0.469614 0.33546,-0.469665 -1.207646,-0.670893 -1.878561,-0.201233 -0.670915,0.469613 -1.140502,0.26838 -1.341777,-0.335424 -0.201274,-0.603824 -1.27479,-0.536719 -1.945706,0.13419 -0.670912,0.670914 -4.495064,-0.06715 -5.434346,-0.26838 -0.939279,-0.201285 -2.012731,0.06709 -2.683646,0.805089 -0.670914,0.738004 -1.34183,0.80515 -1.408921,1.476064 -0.06531,0.653134 -4.326394,2.577764 -6.8424427,4.226765 H 117.67053 c -1.66974,-2.002318 -1.50114,-0.102338 -2.33942,-1.811509 -0.40185,-0.819309 -1.47596,-0.469665 -2.28105,0.06704 -0.80511,0.536734 -1.20769,0.134241 -1.34187,-0.402519 -0.13419,-0.536729 -5.70275,-1.341864 -5.70275,-1.341864 0,0 -1.94567,-0.335475 -2.61659,-0.469614 -0.67091,-0.13419 -1.67724,-0.26838 -1.94561,0.469614 -0.26838,0.738004 -1.00639,1.00641 -1.677311,1.341864 -0.670914,0.335475 -1.34187,-0.536703 -1.811514,-1.140528 -0.469614,-0.603824 -1.543103,-0.469613 -2.348202,-0.939278 -0.805094,-0.469665 -0.670899,0.06704 -1.744363,0.536693 -1.073464,0.469614 -2.146891,-0.06709 -2.415256,-0.469665 -0.26838,-0.40257 -1.878547,0.670945 -2.214007,-0.201234 -0.335475,-0.872189 -1.207643,0.335475 -1.878563,0 -0.670909,-0.335475 -1.140569,-0.201285 -1.543118,0.201234 -0.40257,0.40257 -3.555872,0.536698 -4.025511,0.06704 -0.469614,-0.469613 -3.354607,-0.335475 -4.49516,0 -1.140554,0.335476 -1.073449,-0.603742 -1.744363,-0.603742 -0.670919,0 2.6e-5,-1.006373 -0.670888,-1.408923 -0.670914,-0.40257 -0.805063,0.737953 -1.006333,-0.06715 -0.201285,-0.805094 -1.07352,-0.603835 -1.476065,-0.603835 -0.40257,0 -2.079853,1.543119 -2.482397,2.482397 -0.40257,0.939284 -1.744398,0.536761 -2.012763,1.207675 -0.26838,0.670914 -0.939227,0.469665 -2.281061,0.13419 -1.341828,-0.335475 -0.872189,-0.80511 -1.878558,-1.073474 -1.006373,-0.26838 -1.274712,0.134138 -2.079806,-0.26838 -0.805104,-0.40257 -0.805104,-0.939264 -1.878563,-0.805084 -1.073474,0.13419 -0.805151,-0.805068 -0.536786,-1.140528 0.26838,-0.335475 -1.073489,-1.610249 -1.677319,-1.476064 -0.603814,0.13419 -1.207576,0.939294 -2.14686,1.073474 -0.939279,0.13419 -1.408944,0.536744 -2.146953,1.073479 -0.73801,0.536729 -2.5495,-0.0671 -3.086234,-0.60384 -0.53673,-0.536729 -1.744368,-0.26838 -1.744368,-1.207674 0,-0.381558 -0.07752,-0.486362 -0.22353,-0.489753 z"
       id="path851"
       inkscape:connector-curvature="0"
       sodipodi:nodetypes="scsssccccsssccscsccccsccccsccccscccccsscsscccccccsscss" />
    <path
       style="opacity:1;fill:#dbe8f3;fill-opacity:1;fill-rule:nonzero;stroke:none;stroke-width:0.887509;stroke-linecap:round;stroke-linejoin:round;stroke-miterlimit:4;stroke-dasharray:none;stroke-dashoffset:0;stroke-opacity:1;paint-order:markers stroke fill"
       d="m 65.405951,45.977561 c -0.272798,0 -1.091204,0.569245 -1.280965,0.853885 -0.189777,0.284665 -1.660437,1.091162 -2.13485,1.613013 -0.474391,0.521851 -2.039904,0.948809 -2.27711,1.470655 -0.237196,0.521851 -0.664235,1.043759 -1.518171,1.518166 -0.853935,0.474391 -1.13855,0.996268 -1.755279,1.423236 -0.616735,0.426973 -0.284615,0.616678 -0.56926,0.853884 -0.284666,0.237196 -0.474392,0.142308 -0.948819,0.569255 -0.407142,0.366402 -2.001425,0.627785 -2.715473,0.544672 1.065727,0.953329 1.601367,0.778851 2.051279,0.688864 0.474391,-0.09489 1.09111,-0.616771 1.518083,-0.616771 0.426973,0 0.948799,-0.52181 1.233444,-0.80646 0.284666,-0.284666 1.613013,-0.711649 1.85022,-0.616771 0.237195,0.09489 0.664209,-0.758995 0.853976,-0.616673 0.189777,0.142307 1.13856,0.04727 1.470655,-0.142358 0.332084,-0.189778 0.664153,-0.189778 0.759037,-0.474392 0.09489,-0.284666 0.379554,-0.237144 0.664189,-0.09484 0.284666,0.142307 0.521841,-0.427024 0.996243,-0.616771 0.474391,-0.189777 0.474391,-0.474443 0.521836,-0.9014 0.04726,-0.426973 0.379503,-0.569255 0.52183,-1.043662 0.142308,-0.474391 0.04726,-0.616775 0.237196,-0.853976 0.189777,-0.237196 0.284717,-0.474392 0.09494,-0.569255 -0.189777,-0.09489 0.189726,-1.18603 0.379452,-1.423231 0.154996,-0.193733 0.08913,-0.329361 0.05954,-0.758302 -0.004,-1.8e-4 -0.0082,-7.09e-4 -0.01182,-7.09e-4 z"
       id="path853"
       inkscape:connector-curvature="0" />
    <path
       style="opacity:1;fill:#94aab8;fill-opacity:1;fill-rule:nonzero;stroke:none;stroke-width:0.887509;stroke-linecap:round;stroke-linejoin:round;stroke-miterlimit:4;stroke-dasharray:none;stroke-dashoffset:0;stroke-opacity:1;paint-order:markers stroke fill"
       d="m 66.686813,67.658015 c 0.350117,0.375136 0.521846,0.474392 0.90138,0.237196 0.379503,-0.237196 1.043692,1.233459 1.328337,1.138581 0.284666,-0.09489 1.755316,-1.043703 1.992517,-1.375787 0.237196,-0.332084 0.04726,0.56929 0.521851,-0.09489 0.474392,-0.664173 0.142307,-0.90138 0.664169,-1.47067 0.521851,-0.56929 1.47067,-0.853936 1.850194,-1.992516 0.379502,-1.138581 2.229722,-2.182278 2.277161,-2.609246 0.04726,-0.426973 1.51811,-2.039956 1.612993,-1.992517 0.09489,0.04727 0.379503,2.372045 0.664169,2.656691 0.284665,0.284665 1.138581,0.521851 1.47067,0.332084 0.332084,-0.189777 1.470665,-0.142307 1.470665,-0.379554 0,-0.237196 -0.901375,-1.423221 -1.423231,-1.80275 -0.521846,-0.379554 -0.379503,-0.426973 -0.806491,-0.56929 -0.426973,-0.142307 -0.569291,-0.04726 -0.521852,-0.521852 0.04726,-0.474391 -0.09489,-0.948813 0.09489,-1.233459 0.189777,-0.284665 -0.284666,-0.332084 -0.04726,-0.56929 0.237195,-0.237196 -0.332085,-0.474392 -0.09489,-0.806497 0.237196,-0.332084 0.948814,-0.664168 0.759052,-0.996258 -0.189777,-0.332084 -0.569285,-0.901374 -0.85393,-0.948814 -0.284666,-0.04726 -0.806497,0.142308 -0.759052,-0.142307 0.04726,-0.284666 -0.474392,0 -0.09489,-0.616735 0.379554,-0.616729 0.426973,-0.474391 0.142307,-0.664168 -0.284666,-0.189777 -0.806496,1.375781 -1.091141,1.233459 -0.284666,-0.142307 -0.996259,1.043702 -0.996259,0.379554 0,-0.664174 -0.426973,-0.90138 -0.379503,-1.423226 0.04726,-0.521851 -0.806496,-0.853935 -0.85394,-1.470665 -0.04727,-0.616735 -0.664169,-0.759057 -0.474392,-1.091142 0.189777,-0.332084 0.379503,-0.426973 0.379503,-0.711613 0,-0.284665 0.09489,-0.521846 -0.189777,-0.284665 -0.284666,0.237195 -0.664174,0.474391 -0.90138,0.284665 -0.237196,-0.189777 -0.426973,-0.284665 -0.85393,-0.189777 -0.426973,0.09489 -1.043703,0.142307 -1.091142,-0.284665 -0.04727,-0.426973 -0.711613,0.806496 -1.043698,0.426972 -0.332084,-0.379554 -0.521851,0.521852 -0.379502,1.091137 0.142307,0.56929 -0.474392,0.759057 -0.04726,0.948819 0.426973,0.189777 0.189777,0.332084 -0.09489,0.56929 -0.284665,0.237196 0.189778,0.237196 -0.04726,0.61673 -0.237196,0.379554 -0.711613,0.142307 -0.569296,0.56929 0.142308,0.426973 0.569296,1.138581 0.426973,1.423226 -0.142307,0.284666 -0.189777,1.328348 -0.474391,0.948819 -0.284666,-0.379503 -0.759057,-0.711613 -0.806491,-0.284665 -0.04726,0.426973 -0.142308,1.280903 -0.521852,1.518109 -0.379503,0.237196 -0.664174,0.332084 -0.521851,1.091137 0.142307,0.759052 0.04726,1.091141 -0.332084,1.328342 -0.379555,0.237196 -0.521846,0.142307 -0.664174,0.616735 -0.142307,0.474391 -0.379503,0.474391 -0.332085,0.853935 0.04726,0.379503 0.332085,0.569286 -0.04726,0.806492 -0.379503,0.237196 -1.233464,2.0874 -1.328348,2.514367 -0.09489,0.426973 -1.043697,1.755311 -0.711608,1.518105 0.332085,-0.237196 1.660427,-1.518105 1.992517,-2.182278 0.332084,-0.664174 0.616724,-1.660427 0.996258,-2.229718 0.379503,-0.569295 1.328337,-2.941335 1.850189,-3.27342 0.521851,-0.332084 1.043702,-0.56929 1.375781,-0.332084 0.332085,0.237196 0.806497,0.90138 1.138586,1.043703 0.332085,0.142307 0.332085,0.379503 0.237196,-0.332085 -0.09489,-0.711613 -0.237196,-1.423221 -0.569295,-1.850194 -0.332085,-0.426972 -0.901375,-0.616729 -0.61673,-1.138575 0.284666,-0.521851 0.759052,-0.853936 1.233464,-0.711618 0.474392,0.142307 0.569286,1.186025 1.043698,1.138586 0.474391,-0.04727 2.0874,0.996253 2.466923,0.569285 0.379503,-0.426973 0,0.284666 0,0.996258 0,0.711613 0.09489,0.853936 -0.61673,1.091142 -0.711618,0.237195 -1.186019,0.379554 -1.186019,0.711613 0,0.332084 0.332084,0.616729 -0.09489,0.853935 -0.426973,0.237196 0.569285,0.284666 0.237196,0.521852 -0.332085,0.237195 0.04726,0.474391 -0.189777,0.711613 -0.237196,0.237195 -0.189778,1.043697 -0.521852,0.806491 -0.332084,-0.237196 -0.711613,-0.948814 -1.043702,-0.61673 -0.332085,0.332085 -0.996258,1.375782 -1.280898,1.707871 -0.284666,0.332085 -1.375787,1.80275 -1.802755,2.134839 -0.426973,0.332085 -2.18346,1.445677 -1.850194,1.80275 z"
       id="path857"
       inkscape:connector-curvature="0"
       sodipodi:nodetypes="scccscscsccsccccccccccscscccssccccccccccccsccccsccccccccccsscssscccccccs" />
    <path
       style="opacity:1;fill:#94aab8;fill-opacity:1;fill-rule:nonzero;stroke:none;stroke-width:0.887509;stroke-linecap:round;stroke-linejoin:round;stroke-miterlimit:4;stroke-dasharray:none;stroke-dashoffset:0;stroke-opacity:1;paint-order:markers stroke fill"
       d="m 59.263382,53.192418 c -0.147239,0.167737 -0.295712,0.324224 -0.404317,0.280761 -0.237196,-0.09489 -1.565574,0.332136 -1.85022,0.616771 -0.284665,0.284665 -0.806481,0.80646 -1.233443,0.80646 -0.426973,0 -1.043672,0.521887 -1.518084,0.616771 -0.20185,0.04059 -0.421116,0.09756 -0.697485,0.06262 0.108708,0.41228 0.284306,1.001678 0.460264,1.265645 0.284665,0.426973 0.09484,0.759037 0.09484,0.996243 0,0.237196 -0.616699,-0.379451 -0.806466,-0.853884 -0.189777,-0.474392 -0.142358,-0.521908 -0.426973,-0.806553 -0.241665,-0.241665 -0.517823,-0.553729 -0.885901,-1.396537 -0.02312,-0.0082 -0.04521,-0.01695 -0.06293,-0.02672 -0.426973,-0.237195 -1.707832,0.142359 -2.277118,0.426973 -0.384948,0.192449 -1.116854,0.146161 -1.829217,0.05209 0.04161,0.568515 0.142255,1.876333 0.216183,2.319951 0.09489,0.569291 1.423252,1.707841 2.087421,2.229692 0.664168,0.521851 0.996227,0.569352 1.280872,1.043759 0.284666,0.474391 0.853958,0.664189 0.901398,0.189777 0.04726,-0.474391 0.426921,0.04726 1.043666,0.426922 0.616735,0.379554 0.142359,0.806532 0.189777,1.328383 0.04727,0.521852 0.379503,-0.142307 0.759037,-0.52183 0.379503,-0.379555 0.379503,-0.99632 0.284614,-1.280965 -0.09489,-0.284666 0.332136,-0.806425 0.569352,-0.426922 0.237196,0.379554 0.948784,0.189726 1.043662,-0.142359 0.09489,-0.332084 0.616735,-0.142307 1.18603,-0.332033 0.56928,-0.189777 0.237196,-0.85394 -0.04726,-1.18603 -0.284666,-0.332084 0.379503,-0.806517 0.52183,-1.138601 0.142308,-0.332084 0.142359,0.379554 0.189777,0.9014 0.04726,0.521846 0.664179,0.996228 0.948825,1.280868 0.284665,0.284666 0.853956,0.379503 0.901395,0.996248 0.04726,0.616729 0.332033,1.280908 1.043667,1.897638 0.711613,0.616734 1.328296,0.759093 1.565497,0.61677 0.237196,-0.142307 -0.04727,-1.565594 -0.332033,-2.040001 -0.284666,-0.474392 -1.091111,-1.897644 -1.518074,-1.897644 -0.426973,0 -1.23349,-0.759016 -1.375807,-1.043661 -0.142307,-0.284666 -0.284615,-0.474392 -0.806461,-0.759042 -0.521851,-0.284666 -0.332135,-0.616714 -0.332135,-1.233449 0,-0.616729 0.379503,-0.09494 0.711613,-0.284717 0.332084,-0.189777 0.379503,0.237247 0.474391,0.616771 0.09489,0.379503 0.759073,3.6e-5 1.138602,0.142358 0.379503,0.142308 0.332084,1.043703 0.474391,0.711619 0.142307,-0.332085 0.616766,-0.948881 0.142359,-1.043759 -0.474392,-0.09489 -0.569332,-0.853941 -0.853977,-0.94882 -0.284666,-0.09489 -0.474443,-0.996206 -0.616771,-1.328296 -0.08872,-0.207039 -0.244902,-0.744313 -0.354689,-1.134748 z"
       id="path859"
       inkscape:connector-curvature="0" />
    <path
       style="opacity:1;fill:#94aab8;fill-opacity:1;fill-rule:nonzero;stroke:none;stroke-width:0.887509;stroke-linecap:round;stroke-linejoin:round;stroke-miterlimit:4;stroke-dasharray:none;stroke-dashoffset:0;stroke-opacity:1;paint-order:markers stroke fill"
       d="m 66.59193,50.152341 c 0.02826,0.616097 0.237195,1.091141 0,1.375786 -0.237196,0.284666 -0.569291,0.379503 -0.521846,0.664169 0.04726,0.284666 -0.04727,-0.04726 -0.332085,0.426973 -0.284666,0.474392 -0.379503,0.521846 -0.332084,0.948814 0.04726,0.426973 -0.711613,0.237196 -0.948819,0.61673 -0.237196,0.379554 -1.138581,0.853935 -1.138581,1.328347 0,0.474392 -0.09489,0.853936 -0.474392,1.043698 -0.379503,0.189777 -0.04726,0.948819 -0.426973,0.616729 -0.379502,-0.332084 0,-1.138581 -0.09489,-1.802749 -0.09489,-0.664174 0.04726,-1.612993 0.664179,-1.897638 0.616724,-0.284666 1.423221,-1.18602 1.565543,-1.565549 0.142308,-0.379503 0.237196,-1.280898 0.521852,-1.470665 0.284665,-0.189777 0.711613,-0.521851 0.664168,0.04726 -0.04726,0.569286 0.237196,0.61673 0.284666,0.332085 0.04726,-0.284666 0.549784,-1.093325 0.56929,-0.664174 z"
       id="path861"
       inkscape:connector-curvature="0"
       sodipodi:nodetypes="scccccsccscccscs" />
    <path
       style="opacity:1;fill:#94aab8;fill-opacity:1;fill-rule:nonzero;stroke:none;stroke-width:0.887509;stroke-linecap:round;stroke-linejoin:round;stroke-miterlimit:4;stroke-dasharray:none;stroke-dashoffset:0;stroke-opacity:1;paint-order:markers stroke fill"
       d="m 68.679329,48.871437 c 0.157617,1.796482 -0.332084,2.65669 -0.284665,3.178537 0.04726,0.521851 -0.569286,2.466928 -0.711608,3.036218 -0.142307,0.569291 -0.474392,0.61673 -0.664174,1.518105 -0.189777,0.90138 -0.474392,0.759052 -0.379503,1.18602 0.09489,0.426973 -0.379503,0.806496 -0.806491,1.375787 -0.426973,0.56929 -0.664169,1.423226 -0.901375,1.945077 -0.237196,0.521846 -1.043697,2.182278 -0.664174,0.474391 0.379554,-1.707871 0.759052,-2.134839 0.996258,-2.466923 0.237196,-0.332084 -0.474391,-0.521851 -0.379503,-0.806496 0.09489,-0.284666 1.091137,-1.091137 1.280904,-1.423226 0.189777,-0.332085 0.616729,-0.284666 0.616729,-0.996259 0,-0.711613 -0.04726,-1.280903 0.284666,-1.612987 0.332084,-0.332085 0.664169,-0.664174 0.664169,-1.138581 0,-0.474392 -0.237196,-1.660427 0,-1.945077 0.237196,-0.284666 0.332084,-0.806492 0.426973,-1.280904 0.09489,-0.474391 0.441358,-1.961306 0.521851,-1.043697 z"
       id="path863"
       inkscape:connector-curvature="0"
       sodipodi:nodetypes="sccccscscccscsscs" />
    <path
       style="opacity:1;fill:#94aab8;fill-opacity:1;fill-rule:nonzero;stroke:none;stroke-width:0.887509;stroke-linecap:round;stroke-linejoin:round;stroke-miterlimit:4;stroke-dasharray:none;stroke-dashoffset:0;stroke-opacity:1;paint-order:markers stroke fill"
       d="m 58.716747,62.724169 c -0.239559,0.663331 -0.616729,1.660426 -0.332084,1.897632 0.284666,0.237196 0.189777,0.711613 0.379503,0.94882 0.189777,0.237195 0.711613,0.806491 0.474392,1.186019 -0.237196,0.379555 -0.759053,-0.474391 -0.853931,0 -0.09489,0.474392 -0.332084,0.189778 -0.521851,0.569291 -0.189777,0.379554 -0.521851,0.996258 -0.521851,0.56929 0,-0.426973 0.284665,-0.996258 0,-1.375787 -0.284666,-0.379503 0.09489,-0.09489 0,-0.521851 -0.09489,-0.426973 -0.521852,0.04727 -0.426973,-0.426973 0.09489,-0.474391 0.142307,-1.802754 0.474391,-1.802754 0.332085,0 0.142307,-0.521846 0.569286,-0.61673 0.426972,-0.09489 1.164771,-1.550486 0.759052,-0.426973 z"
       id="path865"
       inkscape:connector-curvature="0"
       sodipodi:nodetypes="scscccssccsss" />
    <path
       style="opacity:1;fill:#dbe8f3;fill-opacity:1;fill-rule:nonzero;stroke:none;stroke-width:0.887509;stroke-linecap:round;stroke-linejoin:round;stroke-miterlimit:4;stroke-dasharray:none;stroke-dashoffset:0;stroke-opacity:1;paint-order:markers stroke fill"
       d="m 103.25466,55.02759 c -0.40257,0 -1.77786,1.14061 -2.14686,1.476064 -0.36903,0.335475 -0.23489,0.369023 -0.63741,0.369023 -0.23196,0 -0.44233,0.144465 -0.674649,0.280042 -0.110403,0.09643 -0.180992,0.173389 -0.197586,0.223068 -0.13419,0.40257 -0.301927,0.872204 -0.469665,1.308301 -0.167737,0.436118 -0.301876,0.503161 -0.670883,0.704457 -0.369023,0.201285 -0.301876,0.469613 -0.637315,0.570266 -0.335476,0.100643 -0.369023,0.838642 -0.402622,1.174101 -0.03339,0.335475 -0.670924,0.234833 -0.838652,0.738035 -0.167737,0.503161 -0.637397,0.771552 -0.503212,1.408918 0.13419,0.637372 3.254005,2.952042 3.254005,2.952042 0,0 -0.06715,-2.214048 0.301876,-2.616598 0.369023,-0.402518 0.503263,-0.872137 0.536783,-1.341776 0.0334,-0.469614 0.63735,-0.905763 1.0399,-1.207675 0.40257,-0.301927 0.40252,-0.301927 0.40252,-0.637408 0,-0.335475 0.10069,-0.436014 0.40257,-0.872137 0.30193,-0.436066 0.33548,-0.771536 0.13419,-1.039906 -0.20128,-0.26838 0.23478,-1.207669 0.16769,-1.442491 -0.0671,-0.234833 0.20133,-0.436118 0.53678,-0.234833 0.33547,0.201285 0.0671,-0.167738 0.33542,-0.369023 0.25107,-0.188287 0.14986,-0.318316 0.1907,-1.433141 -0.0462,-0.0057 -0.0893,-0.0092 -0.12366,-0.0092 z"
       id="path867"
       inkscape:connector-curvature="0" />
    <path
       sodipodi:nodetypes="ssssssssssssssssssssssssssssssss"
       inkscape:connector-curvature="0"
       id="path912"
       d="m 91.570674,63.451548 c 0.159517,-0.698224 0.869086,-0.825633 1.042901,-1.151542 0.173799,-0.32592 0.369382,-0.564903 0.499719,-0.391062 0.130388,0.173799 0.195531,-0.130389 0.412793,-0.304188 0.217263,-0.1738 0.543182,0.06519 0.217263,0.477987 -0.32592,0.412845 -0.543182,0.477988 -0.06519,0.391114 0.477987,-0.08693 0.890817,0.238994 0.847365,-0.152068 -0.04367,-0.391114 -0.49972,-0.02158 -0.412845,-0.412794 0.08692,-0.391114 0.152119,-0.586634 0.521455,-0.760455 0.369382,-0.173799 0.217263,-0.434525 0.521451,-0.52145 0.304188,-0.08693 0.782181,-0.782181 0.651818,-0.304188 -0.130388,0.477987 -0.08692,0.412793 -0.238994,0.847365 -0.15212,0.434524 -0.456256,0.06519 -0.521455,0.477987 -0.0652,0.412794 -0.08693,0.651813 0.217262,0.217263 0.304188,-0.434525 0.717002,-1.433999 0.695271,-0.890818 -0.02158,0.543182 -0.1738,0.999449 0.325919,0.347651 0.499719,-0.651818 0.695266,-0.630087 0.67354,-0.217262 -0.02158,0.412793 0.195531,0.477988 0.543182,-0.152069 0.34765,-0.630092 1.325357,-1.433994 0.760454,-0.456256 -0.564908,0.977722 -0.825638,0.738723 -0.477988,0.977722 0.347651,0.238994 0.412794,0.260726 0.217263,0.58664 -0.195531,0.325919 -0.217263,0.108605 -0.282457,0.630087 -0.06519,0.52145 0.1738,1.412268 -0.08692,1.651267 -0.260725,0.238994 -0.84736,1.194995 -1.194995,1.499173 -0.347651,0.304188 -0.803907,0.456256 -1.086364,0.130336 -0.282457,-0.325919 -0.543177,-0.456256 -0.412794,-0.977722 0.130389,-0.52145 0.347651,-0.782176 -0.02158,-0.630087 -0.369382,0.152069 -0.325919,0.412794 -0.564903,-0.238994 -0.238994,-0.651818 -0.298434,0.863831 -0.450554,0.537922 -0.15212,-0.32592 -0.410533,-0.629368 -0.953725,-0.303469 -0.543182,0.325919 -0.79018,-0.408273 -0.594639,-0.886281 0.195531,-0.477988 -0.890396,0.451889 -0.782175,-0.02158 z"
       style="opacity:1;fill:#94aab8;fill-opacity:1;fill-rule:nonzero;stroke:none;stroke-width:0.574829;stroke-linecap:round;stroke-linejoin:round;stroke-miterlimit:4;stroke-dasharray:none;stroke-dashoffset:0;stroke-opacity:1;paint-order:normal" />
    <path
       sodipodi:nodetypes="scccccccccsscscccssccccsccsscccccccsccsccccss"
       inkscape:connector-curvature="0"
       id="path914"
       d="m 112.86911,64.599685 c -0.58152,-1.324551 -1.58384,-1.765596 -1.73963,-2.181025 -0.15577,-0.415414 -1.32419,-1.583838 -1.84348,-1.999267 -0.5193,-0.415414 -0.38947,-0.389469 -0.67509,-0.856833 -0.28559,-0.467353 -1.19436,-1.479984 -1.35015,-1.402085 -0.15577,0.07788 0.46735,0.727004 0.77894,1.324191 0.31158,0.597187 -0.38947,0.38947 -0.72702,-0.545257 -0.33753,-0.934722 -0.54525,-0.727005 -0.44141,-0.259647 0.10388,0.467354 -0.15576,0.07788 -0.41541,0.311586 -0.25965,0.233703 0.2337,0.908758 -0.2337,1.324192 -0.46736,0.415413 -0.93472,0.441409 -0.38947,0.804898 0.54526,0.363526 -1.09051,-0.389469 -0.54525,0.259647 0.54525,0.649116 1.24629,0.70104 1.09051,0.986656 -0.15577,0.285591 0.38946,0.0262 0.28559,0.597182 -0.10388,0.571222 -0.0262,0.545257 0.38947,0.960691 0.41541,0.415414 0.33753,0.675076 0.25964,0.830864 -0.0779,0.155767 -0.2337,-0.38947 -0.54525,-0.727005 -0.31159,-0.33753 -0.72701,-0.986656 -0.70104,-0.778944 0.0262,0.207706 0.41541,0.649116 0.15577,0.623151 -0.25965,-0.0262 -0.49335,-0.181763 -0.38947,0.285591 0.10388,0.467353 0.72701,1.40208 0.8049,1.687691 0.0779,0.285642 0.33753,0.986656 0.0519,0.701045 -0.28559,-0.28559 -0.57122,-1.038585 -0.64912,-0.701045 -0.0779,0.33753 -0.0262,1.194368 -0.28559,1.012621 -0.25964,-0.181763 -0.46735,-0.882798 -0.77894,-0.701045 -0.31159,0.181762 -1.84348,-0.233703 -2.10313,-0.05194 -0.25964,0.181763 -0.88279,-0.623146 -1.29822,-0.545257 -0.41542,0.07788 -0.0519,1.116479 -0.77894,1.376125 -0.72701,0.259647 -1.557873,-0.05194 -1.869449,0.285591 -0.311586,0.33753 -1.609803,0.493349 -1.454015,0.129823 0.155767,-0.363525 -1.999267,-0.467353 -1.999267,-0.467353 l 0.363526,3.245564 c 0,0 10.489685,-0.493348 11.086865,-1.090504 0.59718,-0.597192 0.57122,-1.038586 0.93472,-0.934727 0.36353,0.103879 0.33753,-0.571222 0.54526,-0.285591 0.2077,0.285591 0.8828,-0.467353 0.98665,-0.207707 0.10388,0.259647 0.0519,-0.441409 0.33753,-0.181762 0.28565,0.259646 0.49335,-0.33753 0.77895,-0.181763 0.28559,0.155767 0.33753,-0.649116 0.85683,-0.649116 0.51928,0 1.32419,0 1.19436,-0.233702 -0.12982,-0.233651 -1.14243,-1.012616 -1.22033,-1.142439 -0.0779,-0.129824 0.0779,-0.44141 0.18176,-0.259647 0.10388,0.181763 0.0519,-0.33753 0.23371,-0.103879 0.18176,0.233702 -0.54526,-1.168404 0.36352,-0.233651 0.90876,0.934722 1.10785,0.782361 0.75297,-0.0262 z"
       style="opacity:1;fill:#94aab8;fill-opacity:1;fill-rule:nonzero;stroke:none;stroke-width:0.686938;stroke-linecap:round;stroke-linejoin:round;stroke-miterlimit:4;stroke-dasharray:none;stroke-dashoffset:0;stroke-opacity:1;paint-order:normal" />
    <path
       style="opacity:1;fill:#f0f5fa;fill-opacity:1;fill-rule:nonzero;stroke:none;stroke-width:0.887509;stroke-linecap:round;stroke-linejoin:round;stroke-miterlimit:4;stroke-dasharray:none;stroke-dashoffset:0;stroke-opacity:1;paint-order:markers stroke fill"
       d="m 96.097501,62.047249 c -0.219214,-0.0023 -0.663177,0.364604 -0.927355,0.628787 -0.301927,0.301927 -0.603808,0.234832 -0.805083,0.469614 -0.201285,0.234832 -0.939274,0.436117 -1.274728,0.26838 -0.335475,-0.167738 -0.369023,-0.335475 -0.73803,-0.167789 -0.369023,0.167737 -0.760563,0.241871 -1.543119,-0.06704 -0.493348,-0.19476 -1.878573,0.469614 -2.24758,0.469614 -0.369022,0 -1.140502,0.201285 -1.576594,0.469665 -0.436118,0.26838 -2.348202,0.201285 -2.583024,0.335424 -0.234833,0.13419 -1.576651,0.234781 -1.878563,0.201233 -0.301928,-0.03339 -0.805135,0.402622 -1.107047,0.536786 -0.301928,0.13419 -1.039896,-0.03339 -1.140528,0.335424 -0.100643,0.369022 -0.704477,0.234781 -1.073479,0.301876 -0.369023,0.06709 -0.838632,-0.167686 -1.039906,-0.436066 -0.201285,-0.26838 -1.107006,-0.368972 -1.408919,-0.201234 -0.301927,0.167738 -1.442455,0.100643 -1.744367,0.100643 -0.301928,0 -0.939253,0.503161 -1.140528,0.570266 -0.201285,0.0671 -1.174132,1.006374 -1.442497,1.174101 -0.26838,0.167738 -0.670903,0.872189 -1.039906,1.174101 -0.369022,0.301928 -1.274789,0.536771 -1.710881,0.637408 -0.436118,0.100643 -0.245519,0.265092 -0.758852,0.06668 -0.110609,-0.04264 -0.474392,-0.61675 -0.687863,-0.782792 -0.21346,-0.166042 -0.355768,-0.332033 -0.403238,-0.450657 -0.04726,-0.118623 -0.26093,0.09489 -0.545591,0.166042 -0.284666,0.07115 -0.166042,-0.04726 -0.355819,-0.21346 -0.189777,-0.166043 -0.166042,-0.260983 -0.426973,-0.09494 -0.260931,0.166042 -0.711634,-0.07115 -1.138602,-0.118624 -0.426973,-0.04726 -0.664122,0.189829 -1.09109,0.521928 -0.426973,0.332085 -0.521872,0.332085 -1.138601,0.237196 -0.61673,-0.09489 -1.043723,0.04727 -1.375808,-0.04726 -0.332084,-0.09489 -0.806429,0.616729 -1.138514,0.711613 -0.332084,0.09489 -1.091177,1.091167 -1.328383,1.613013 -0.237196,0.521851 -0.759022,0.521836 -1.280873,0.759037 -0.521846,0.237196 -0.616791,1.186066 -1.28096,1.091183 -0.664174,-0.09489 -1.233449,1.280908 -1.707866,0.948819 -0.474391,-0.332085 -0.569306,0.80646 -0.90139,0.80646 -0.332084,0 -0.332033,0.806461 -0.853889,0.806461 -0.521846,0 -0.759088,0.189828 -0.853972,0.759129 -0.09489,0.56929 -0.901366,0.806445 -1.470657,1.328296 -0.569285,0.521851 -1.091162,0.711654 -1.375807,1.091183 -0.284666,0.379503 -0.142256,0.901359 -1.091085,0.759037 -0.336195,-0.05035 -0.535004,0.125816 -0.652086,0.373954 h 70.887182 c -0.51107,-0.569095 -1.22125,-1.322794 -1.39846,-1.322794 -0.28467,0 -0.75906,-0.332084 -0.94882,-0.759032 -0.18978,-0.426973 -0.28457,-0.427024 -0.90131,-0.379554 -0.61673,0.04727 -1.23352,-0.616678 -1.51817,-1.328291 -0.28466,-0.711613 -2.37203,-1.470747 -2.89388,-1.945154 -0.52185,-0.474392 -1.70784,-0.474341 -1.99249,-0.664102 -0.28466,-0.189778 -0.75909,-0.521872 -0.85398,-0.901401 -0.0949,-0.379554 -0.28461,-0.284666 -0.85387,-0.474391 -0.5693,-0.189777 -0.33214,-0.142359 -0.61677,-0.66419 -0.28467,-0.521851 -3.36832,-1.612982 -4.03249,-2.182267 -0.66418,-0.569291 -0.98938,-0.400772 -2.39178,-1.455335 -0.19517,-0.146777 -0.805025,-1.543052 -0.972758,-1.811422 -0.167737,-0.26838 -1.710856,-1.710805 -1.912136,-1.84499 -0.201285,-0.13419 -1.073422,-1.241257 -1.24115,-1.375442 -0.02106,-0.01695 -0.04778,-0.02466 -0.07906,-0.02517 z"
       id="path869"
       inkscape:connector-curvature="0" />
    <path
       style="opacity:1;fill:#dbe8f3;fill-opacity:1;fill-rule:nonzero;stroke:none;stroke-width:0.887509;stroke-linecap:round;stroke-linejoin:round;stroke-miterlimit:4;stroke-dasharray:none;stroke-dashoffset:0;stroke-opacity:1;paint-order:markers stroke fill"
       d="m 96.097501,62.047249 c -0.219214,-0.0023 -0.663177,0.364604 -0.927355,0.628787 -0.301927,0.301927 -0.603808,0.234832 -0.805083,0.469614 -0.201285,0.234832 -0.939274,0.436117 -1.274728,0.26838 -0.335475,-0.167738 -0.369023,-0.335475 -0.73803,-0.167789 -0.369023,0.167737 -0.760563,0.241871 -1.543119,-0.06704 -0.493348,-0.19476 -1.878573,0.469614 -2.24758,0.469614 -0.369022,0 -1.140502,0.201285 -1.576594,0.469665 -0.436118,0.26838 -2.348202,0.201285 -2.583024,0.335424 -0.234833,0.13419 -1.576651,0.234781 -1.878563,0.201233 -0.301928,-0.03339 -0.805135,0.402622 -1.107047,0.536786 -0.301928,0.13419 -1.039896,-0.03339 -1.140528,0.335424 -0.100643,0.369022 -0.704477,0.234781 -1.073479,0.301876 -0.369023,0.06709 -0.838632,-0.167686 -1.039906,-0.436066 -0.201285,-0.26838 -1.107006,-0.368972 -1.408919,-0.201234 -0.301927,0.167738 -1.442455,0.100643 -1.744367,0.100643 -0.301928,0 -0.939253,0.503161 -1.140528,0.570266 -0.201285,0.0671 -1.174132,1.006374 -1.442497,1.174101 -0.26838,0.167738 -0.670903,0.872189 -1.039906,1.174101 -0.369022,0.301928 -1.274789,0.536771 -1.710881,0.637408 -0.436118,0.100643 -0.245519,0.265092 -0.758852,0.06668 -0.110609,-0.04264 -0.474392,-0.61675 -0.687863,-0.782792 -0.21346,-0.166042 -0.355768,-0.332033 -0.403238,-0.450657 -0.04726,-0.118623 -0.26093,0.09489 -0.545591,0.166042 -0.284666,0.07115 -0.166042,-0.04726 -0.355819,-0.21346 -0.189777,-0.166043 -0.166042,-0.260983 -0.426973,-0.09494 -0.260931,0.166042 -0.711634,-0.07115 -1.138602,-0.118624 -0.426973,-0.04726 -0.664122,0.189829 -1.09109,0.521928 -0.426973,0.332085 -0.521872,0.332085 -1.138601,0.237196 -0.61673,-0.09489 -1.043728,0.04727 -1.375808,-0.04726 -0.332084,-0.09489 -0.806429,0.616729 -1.138514,0.711613 -0.332084,0.09489 -1.091177,1.091167 -1.328383,1.613013 -0.237196,0.521851 -0.759022,0.521836 -1.280873,0.759037 -0.521846,0.237196 -0.616791,1.186066 -1.28096,1.091183 -0.664174,-0.09489 -1.233449,1.280908 -1.707866,0.948819 -0.474391,-0.332085 -0.569306,0.80646 -0.90139,0.80646 -0.332084,0 -0.332033,0.806461 -0.853889,0.806461 -0.521846,0 -0.759094,0.189828 -0.853972,0.759129 -0.09489,0.56929 -0.901366,0.806445 -1.470657,1.328296 -0.569285,0.521851 -1.091162,0.711654 -1.375807,1.091183 -0.284666,0.379503 -0.142256,0.901359 -1.091085,0.759037 -0.336195,-0.05035 -0.535004,0.125816 -0.652086,0.373954 h 38.704249 c 0.271771,-0.425945 0.642504,-1.040887 0.765181,-1.408923 0.201285,-0.603825 0.805104,-0.872266 0.939284,-1.274816 0.13419,-0.40257 2.146953,-0.06709 2.616592,-0.335423 0.469665,-0.268381 0.738015,-1.341829 0.603835,-1.878563 -0.13419,-0.536729 1.274682,-2.146876 1.341777,-2.750701 0.06709,-0.603819 0.603819,-1.140553 0.469665,-1.408923 -0.13419,-0.26838 1.14062,-1.408908 1.14062,-1.744362 0,-0.335475 0.469614,-0.872215 0.402519,-1.207675 -0.06709,-0.335475 1.207695,-1.073474 1.00642,-1.543118 -0.201285,-0.469614 -0.134241,-1.677288 -0.06715,-2.348202 0.05862,-0.586095 0.270743,-0.609193 0.3682,-1.231795 -0.0037,-4.11e-4 -0.0072,-6.83e-4 -0.0113,-9.55e-4 z"
       id="path902"
       inkscape:connector-curvature="0" />
    <path
       style="opacity:1;fill:#94aab8;fill-opacity:1;fill-rule:nonzero;stroke:none;stroke-width:0.887509;stroke-linecap:round;stroke-linejoin:round;stroke-miterlimit:4;stroke-dasharray:none;stroke-dashoffset:0;stroke-opacity:1;paint-order:markers stroke fill"
       d="m 73.997986,65.79878 c -0.05137,0.02928 -0.0972,0.05343 -0.129361,0.06412 -0.201285,0.06709 -1.174132,1.006374 -1.442496,1.174101 -0.254817,0.159261 -0.630514,0.801641 -0.983677,1.124663 -0.524805,0.722068 -1.39704,1.880156 -1.43479,2.295364 -0.04727,0.521851 -0.616771,1.423272 -0.379555,1.802796 0.237196,0.379554 -0.379503,0.569223 -0.04726,0.901308 0.332084,0.332084 0.256101,0.679416 0.948824,0.09494 0.82682,-0.697634 2.751594,-2.609257 3.03624,-3.795282 0.284665,-1.18602 0.42687,-1.707876 0.189674,-1.897638 -0.237196,-0.189777 0.427024,-0.426973 0.332136,-0.948824 -0.07362,-0.404882 0.08097,-0.809461 -0.0896,-0.815538 z"
       id="path855"
       inkscape:connector-curvature="0" />
    <path
       style="opacity:1;fill:#94aab8;fill-opacity:1;fill-rule:nonzero;stroke:none;stroke-width:0.493449;stroke-linecap:round;stroke-linejoin:round;stroke-miterlimit:4;stroke-dasharray:none;stroke-dashoffset:0;stroke-opacity:1;paint-order:normal"
       d="m 75.684835,73.977528 c -0.04521,-0.745612 0.186489,-0.932564 -0.0375,-1.081771 -0.223839,-0.149191 -0.410328,-0.149191 -0.298435,-0.410327 0.111894,-0.261137 0.111894,-0.634141 0.55954,-0.895262 0.447625,-0.261136 1.342887,-0.746049 1.678608,-0.820655 0.335732,-0.0746 1.342892,-0.671443 1.604008,-0.708746 0.261136,-0.0375 -0.0746,0.522236 0.0375,0.857958 0.111894,0.335732 0.186489,0.857953 0.596838,0.746049 0.410327,-0.111893 1.08177,-0.223838 1.342891,-0.522236 0.261137,-0.298434 0.932565,0.223838 1.044468,-0.0746 0.111894,-0.298434 0.149192,-0.746054 0.596843,-0.969867 0.447625,-0.223839 0.708746,0.447625 0.857953,-0.0746 0.149191,-0.522231 0.932564,-0.298434 0.969867,-0.671443 0.0375,-0.37303 0.932559,-0.37303 0.969862,-0.820655 0.0375,-0.447626 0.37303,-1.119074 0.410328,-1.678609 0.0375,-0.559539 0.0375,-0.261136 0.708751,-0.559539 0.671443,-0.298434 0.895256,-0.111894 1.044463,-0.522237 0.149191,-0.410327 1.119079,-1.044468 1.119079,-1.044468 l -2.350057,5.222353 c 0,0 1.492099,-2.424662 1.454796,-2.573869 -0.0375,-0.149192 0.149191,-0.708747 0.447625,-0.895261 0.298434,-0.18649 0.335732,-0.522232 0.559535,-0.895257 0.223838,-0.373029 0.484923,-0.111893 0.783357,-0.335731 0.298434,-0.223839 0.783347,-0.335732 0.783347,-0.55954 0,-0.223838 0.335732,-1.007165 0.55954,-1.268286 0.223838,-0.261136 0.820655,0.223839 0.783352,0.55954 -0.0375,0.335732 0.111894,0.746049 -0.335732,1.119074 -0.447625,0.373029 -0.410328,0.969862 -0.708751,1.268285 -0.298434,0.298435 -0.783347,0.37303 -0.783347,0.74605 0,0.37303 0.186489,0.783352 -0.335732,1.007165 -0.522237,0.223838 -0.969868,0.559539 -1.268286,0.783352 -0.298434,0.223838 -0.969862,0.708746 -0.783353,0.857958 0.186541,0.149192 0.0375,0.186489 -0.298434,0.484924 -0.335732,0.298434 -0.746049,0.857958 -0.783352,1.119073 -0.0375,0.261137 -0.223838,0.559535 -0.820655,0.895262 -0.596838,0.335732 -1.081771,0.783347 -1.342892,0.708746 -0.261136,-0.0746 -0.63414,-0.0746 -1.081771,0.37303 -0.447625,0.447625 -0.559534,0.932559 -1.081771,0.783352 -0.522236,-0.149191 -0.932559,-0.37303 -1.19368,-0.186489 -0.261136,0.186489 -0.522236,-0.0375 -0.820655,-0.37303 -0.298434,-0.335732 0.149191,-0.783352 0.410328,-1.081771 0.261136,-0.298434 0.410327,-0.522236 -0.0746,-0.410328 -0.484923,0.111894 -1.19368,-0.261136 -1.230983,0 -0.0375,0.261137 0,0.74605 -0.261136,1.044468 -0.261136,0.298435 -0.522232,1.119074 -0.820655,1.156377 -0.298434,0.0375 -1.156377,0.223839 -1.081771,-0.223838 0.07459,-0.447626 0.335732,-1.230983 0.373029,-1.417498 0.0375,-0.186489 -0.298434,-0.149191 -0.335731,0.111894 -0.0375,0.261136 -0.484924,1.268286 -0.74605,1.417492 -0.261136,0.149192 -0.791233,0.298948 -0.820655,-0.186489 z"
       id="path846"
       inkscape:connector-curvature="0"
       sodipodi:nodetypes="ssscsscscssccccscccssccsccscsssscscccscscsscssccss" />
    <path
       sodipodi:nodetypes="sscscscscccscssccccsss"
       inkscape:connector-curvature="0"
       id="path916"
       d="m 97.11472,65.937953 c -0.114668,0.447523 -0.06802,1.011013 0.307322,1.096757 0.375342,0.08574 0.730457,-0.0023 0.589116,0.266736 -0.141331,0.268894 0.279682,-0.221938 0.159466,0.512819 -0.120216,0.734773 0.192243,0.907571 0.216852,1.203632 0.02466,0.29607 0.171539,0.587805 -0.356796,0.842093 -0.528329,0.254304 -0.919202,0.263346 -0.961416,0.670175 -0.04213,0.406834 0.439149,0.290882 0.302544,0.828274 -0.136604,0.537397 -0.09951,1.054537 0.255588,0.9666 0.3551,-0.0879 0.599874,-0.09658 0.33306,-0.845968 -0.266787,-0.749409 -0.429695,-1.092436 -0.133213,-0.970925 0.296481,0.1215 0.320216,0.125405 0.443464,0.413256 0.123247,0.287851 1.131717,0.817881 0.845972,0.33306 -0.285744,-0.48482 -0.516765,-1.155349 -0.125919,-1.164417 0.390857,-0.0092 0.619699,-0.069 0.176677,-0.336143 -0.443002,-0.267147 -0.780491,-0.882114 -0.61114,-1.024766 0.169382,-0.142667 -0.428822,-0.800249 -0.06555,-0.789496 0.363269,0.01079 0.372362,0.401645 0.507272,0.618383 0.134909,0.216749 0.772301,0.78343 0.454663,0.196045 -0.317648,-0.587364 0.330543,-0.383972 -0.232315,-1.108819 -0.562858,-0.724832 -1.267926,-1.472921 -1.034789,-1.410444 0.233137,0.06247 -0.910422,-0.923327 -1.070915,-0.296893 z"
       style="opacity:1;fill:#94aab8;fill-opacity:1;fill-rule:nonzero;stroke:none;stroke-width:0.63542;stroke-linecap:round;stroke-linejoin:round;stroke-miterlimit:4;stroke-dasharray:none;stroke-dashoffset:0;stroke-opacity:1;paint-order:normal" />
    <path
       style="opacity:1;fill:#94aab8;fill-opacity:1;fill-rule:nonzero;stroke:none;stroke-width:0.493449;stroke-linecap:round;stroke-linejoin:round;stroke-miterlimit:4;stroke-dasharray:none;stroke-dashoffset:0;stroke-opacity:1;paint-order:normal"
       d="m 19.375218,66.143394 c -0.190861,-0.0062 -0.963098,1.320637 -1.120625,1.674195 -0.190225,0.426922 -0.343603,-0.08472 -0.581639,-0.25271 -0.238038,-0.167995 -0.456451,0.373543 -0.773164,0.623557 -0.316713,0.249988 -0.665979,1.026461 -1.057059,1.282429 -0.391077,0.255947 -1.222,1.557709 -1.5178,2.067975 -0.295793,0.510251 -0.605183,0.385463 -1.256197,1.597884 l 0.269859,1.077877 7.764112,-4.092385 c 0.09265,-0.382894 0.174329,-0.843178 0.336729,-1.325635 0.362523,-1.076968 -1.468723,2.213714 -0.875806,0.743994 0.592916,-1.46971 0.267224,-1.331312 -0.550452,-0.330029 -0.817676,1.001282 -0.639741,-0.509892 -0.229407,-0.991933 0.410332,-0.482046 -0.07897,-0.517577 -0.840217,0.254612 -0.761241,0.772209 0.306043,-0.847889 0.766835,-1.633373 0.460788,-0.78549 -0.425303,0.296122 -0.302148,-0.499617 0.02117,-0.136758 0.0066,-0.195531 -0.03303,-0.196867 z"
       id="path918"
       inkscape:connector-curvature="0" />
    <path
       sodipodi:nodetypes="scscccs"
       inkscape:connector-curvature="0"
       id="path923"
       d="m 32.198835,55.988656 c 0.569906,0.207964 0.841622,0.891516 0.802385,1.2017 -0.03925,0.310199 -0.07015,0.03134 -0.508849,0.01541 -0.438702,-0.01644 -0.919333,0.05086 -1.136949,0.317134 -0.217617,0.266326 -0.591962,0.50383 -0.832571,0.641606 -0.240612,0.137786 -0.49958,0.27886 -0.363325,-0.124481 0.136255,-0.40334 1.456881,-2.263737 2.039311,-2.051206 z"
       style="opacity:1;fill:#94aab8;fill-opacity:1;fill-rule:nonzero;stroke:none;stroke-width:0.493449;stroke-linecap:round;stroke-linejoin:round;stroke-miterlimit:4;stroke-dasharray:none;stroke-dashoffset:0;stroke-opacity:1;paint-order:normal" />
  </g>
</svg>
