<?xml version="1.0" encoding="UTF-8" standalone="no"?>
<svg
   width="85"
   height="128"
   version="1.1"
   viewBox="0 0 22.4895 33.866667"
   id="svg3"
   sodipodi:docname="phone-calling.svg"
   inkscape:version="1.3 (0e150ed, 2023-07-21)"
   xmlns:inkscape="http://www.inkscape.org/namespaces/inkscape"
   xmlns:sodipodi="http://sodipodi.sourceforge.net/DTD/sodipodi-0.dtd"
   xmlns="http://www.w3.org/2000/svg"
   xmlns:svg="http://www.w3.org/2000/svg">
  <defs
     id="defs3">
    <filter
       inkscape:collect="always"
       style="color-interpolation-filters:sRGB"
       id="filter7"
       x="-0.28197589"
       y="-0.31967678"
       width="1.6016527"
       height="1.6016527">
      <feGaussianBlur
         inkscape:collect="always"
         stdDeviation="32.981643"
         id="feGaussianBlur7" />
    </filter>
  </defs>
  <sodipodi:namedview
     id="namedview3"
     pagecolor="#505050"
     bordercolor="#ffffff"
     borderopacity="1"
     inkscape:showpageshadow="0"
     inkscape:pageopacity="0"
     inkscape:pagecheckerboard="1"
     inkscape:deskcolor="#505050"
     inkscape:zoom="2.5455844"
     inkscape:cx="47.140452"
     inkscape:cy="32.998316"
     inkscape:current-layer="svg3" />
  <rect
     x="0.32701418"
     y="8.2695227"
     width="13.856083"
     height="25.215624"
     ry="0.8512947"
     fill="#2d3642"
     id="rect1"
     style="stroke-width:0.032322" />
  <rect
     x="0.65395027"
     y="8.6215487"
     width="13.20221"
     height="22.286612"
     ry="0.55849046"
     fill="#6ca3c7"
     id="rect2"
     style="stroke-width:0.032322" />
  <circle
     cx="7.2551527"
     cy="32.224178"
     r="0.97638059"
     fill="#20262f"
     id="circle2"
     style="stroke-width:0.032322" />
  <path
     d="m 1.2124732,8.6215503 c -0.3094049,0 -0.55849048,0.2490908 -0.55849048,0.55849 V 27.622603 L 13.788964,8.9195261 C 13.695353,8.7429464 13.512023,8.6217786 13.297477,8.6217786 Z"
     fill="#7eafce"
     id="path2"
     style="stroke-width:0.032322" />
  <path
     d="m 7.6721057,31.341467 c 0.223322,0.91539 -0.2029426,1.496085 -0.7382648,1.8024 a 0.97638053,0.97638053 0 0 0 0.3211084,0.05675 0.97638053,0.97638053 0 0 0 0.9763806,-0.97638 0.97638053,0.97638053 0 0 0 -0.5592336,-0.882778 z"
     fill="#35424e"
     id="path3"
     style="stroke-width:0.032322" />
  <rect
     x="6.862442"
     y="31.831469"
     width="0.78532571"
     height="0.78532571"
     ry="0.22286609"
     fill="none"
     stroke="#c0dcf0"
     stroke-linecap="round"
     stroke-linejoin="round"
     stroke-opacity="0.24624"
     stroke-width="0.0941927"
     id="rect3" />
  <g
     id="g7"
     transform="matrix(0.02464986,0,0,0.02464986,3.3370941,8.1523979)">
    <path
       id="path7"
       style="fill:none;stroke:#2266dd;stroke-width:21.1667;stroke-opacity:1;filter:url(#filter7)"
       d="M 404.16745,-239.17139 A 280.71884,280.71884 0 0 1 684.88629,41.547451 M 404.16745,-160.00386 A 201.55132,201.55132 0 0 1 605.71877,41.547451 M 404.16745,-84.398891 A 125.94634,125.94634 0 0 1 530.11379,41.547451" />
    <path
       id="path6"
       style="fill:none;stroke:#aaddff;stroke-width:21.1667"
       d="M 404.16745,-239.17139 A 280.71884,280.71884 0 0 1 684.88629,41.547451 M 404.16745,-160.00386 A 201.55132,201.55132 0 0 1 605.71877,41.547451 M 404.16745,-84.398891 A 125.94634,125.94634 0 0 1 530.11379,41.547451" />
  </g>
</svg>
