<?xml version="1.0" encoding="UTF-8" standalone="no"?>
<svg
   width="70"
   height="128"
   version="1.1"
   viewBox="0 0 18.520765 33.866667"
   id="svg3"
   sodipodi:docname="phone.svg"
   inkscape:version="1.4 (86a8ad7, 2024-10-11)"
   inkscape:export-filename="phone.png"
   inkscape:export-xdpi="96"
   inkscape:export-ydpi="96"
   xmlns:inkscape="http://www.inkscape.org/namespaces/inkscape"
   xmlns:sodipodi="http://sodipodi.sourceforge.net/DTD/sodipodi-0.dtd"
   xmlns="http://www.w3.org/2000/svg"
   xmlns:svg="http://www.w3.org/2000/svg">
  <defs
     id="defs3" />
  <sodipodi:namedview
     id="namedview3"
     pagecolor="#505050"
     bordercolor="#ffffff"
     borderopacity="1"
     inkscape:showpageshadow="0"
     inkscape:pageopacity="0"
     inkscape:pagecheckerboard="1"
     inkscape:deskcolor="#505050"
     inkscape:zoom="7.2"
     inkscape:cx="60.763889"
     inkscape:cy="47.152778"
     inkscape:current-layer="svg3"
     inkscape:window-width="3440"
     inkscape:window-height="1377"
     inkscape:window-x="-8"
     inkscape:window-y="-8"
     inkscape:window-maximized="1" />
  <rect
     x="0.10101494"
     y="0.26490316"
     width="18.318735"
     height="33.336861"
     ry="1.1254727"
     fill="#2d3642"
     id="rect1"
     style="stroke-width:0.042732" />
  <rect
     x="0.53324789"
     y="0.73030674"
     width="17.454269"
     height="29.464499"
     ry="0.7383644"
     fill="#6ca3c7"
     id="rect2"
     style="stroke-width:0.042732" />
  <circle
     cx="9.2605114"
     cy="31.934675"
     r="1.2908452"
     fill="#20262f"
     id="circle2"
     style="stroke-width:0.042732" />
  <path
     d="m 1.2716553,0.73030893 c -0.40905554,0 -0.73836451,0.32931587 -0.73836451,0.73836377 V 25.851063 L 17.898678,1.1242543 C 17.774917,0.89080328 17.532542,0.73061076 17.248897,0.73061076 Z"
     fill="#7eafce"
     id="path2"
     style="stroke-width:0.042732" />
  <path
     d="M 9.8117528,30.767668 C 10.107,31.977879 9.5434479,32.745599 8.8357135,33.15057 A 1.2908451,1.2908451 0 0 0 9.2602419,33.2256 1.2908451,1.2908451 0 0 0 10.551087,31.934756 1.2908451,1.2908451 0 0 0 9.8117398,30.76766 Z"
     fill="#35424e"
     id="path3"
     style="stroke-width:0.042732" />
  <rect
     x="8.7413197"
     y="31.415485"
     width="1.0382569"
     height="1.0382569"
     ry="0.29464495"
     fill="none"
     stroke="#c0dcf0"
     stroke-linecap="round"
     stroke-linejoin="round"
     stroke-opacity="0.24624"
     stroke-width="0.12453"
     id="rect3" />
</svg>
