<?xml version="1.0" encoding="UTF-8" standalone="no"?>
<!-- Created with Inkscape (http://www.inkscape.org/) -->

<svg
   width="295"
   height="128"
   viewBox="0 0 78.052082 33.866667"
   version="1.1"
   id="svg8"
   inkscape:version="1.4 (86a8ad7, 2024-10-11)"
   sodipodi:docname="pond.svg"
   inkscape:export-filename="pond.png"
   inkscape:export-xdpi="96"
   inkscape:export-ydpi="96"
   xmlns:inkscape="http://www.inkscape.org/namespaces/inkscape"
   xmlns:sodipodi="http://sodipodi.sourceforge.net/DTD/sodipodi-0.dtd"
   xmlns="http://www.w3.org/2000/svg"
   xmlns:svg="http://www.w3.org/2000/svg"
   xmlns:rdf="http://www.w3.org/1999/02/22-rdf-syntax-ns#"
   xmlns:cc="http://creativecommons.org/ns#"
   xmlns:dc="http://purl.org/dc/elements/1.1/">
  <defs
     id="defs2">
    <inkscape:path-effect
       effect="simplify"
       id="path-effect945"
       is_visible="true"
       steps="26"
       threshold="0.001"
       smooth_angles="0"
       helper_size="5"
       simplify_individual_paths="false"
       simplify_just_coalesce="false"
       lpeversion="0" />
  </defs>
  <sodipodi:namedview
     id="base"
     pagecolor="#000000"
     bordercolor="#666666"
     borderopacity="1.0"
     inkscape:pageopacity="0.0"
     inkscape:pageshadow="2"
     inkscape:zoom="4.528"
     inkscape:cx="164.64223"
     inkscape:cy="83.149293"
     inkscape:document-units="mm"
     inkscape:current-layer="layer1"
     showgrid="false"
     units="px"
     inkscape:pagecheckerboard="true"
     inkscape:showpageshadow="false"
     borderlayer="true"
     inkscape:window-width="3440"
     inkscape:window-height="1377"
     inkscape:window-x="-8"
     inkscape:window-y="-8"
     inkscape:window-maximized="1"
     inkscape:snap-global="false"
     showguides="false"
     inkscape:object-paths="true"
     inkscape:deskcolor="#505050" />
  <metadata
     id="metadata5">
    <rdf:RDF>
      <cc:Work
         rdf:about="">
        <dc:format>image/svg+xml</dc:format>
        <dc:type
           rdf:resource="http://purl.org/dc/dcmitype/StillImage" />
      </cc:Work>
    </rdf:RDF>
  </metadata>
  <g
     inkscape:label="Layer 1"
     inkscape:groupmode="layer"
     id="layer1"
     transform="translate(0,179.25002)">
    <path
       style="opacity:1;fill:#45ae2d;fill-opacity:1;fill-rule:nonzero;stroke:none;stroke-width:0.409912;stroke-linecap:round;stroke-linejoin:round;stroke-miterlimit:4;stroke-dasharray:none;stroke-dashoffset:0;stroke-opacity:1;paint-order:markers stroke fill"
       d="m 35.248252,-164.8636 c -24.900526,-0.51718 -21.460481,4.51999 -27.4978666,6.17932 -6.0373797,1.65933 -13.3058044,5.49303 0.7692502,9.15457 14.1458694,3.67994 11.8279434,5.58848 41.3033194,1.87516 29.475379,-3.7133 38.122376,-12.53386 13.262442,-14.53795 -24.859928,-2.00403 -10.601458,-2.313 -27.837145,-2.6711 z"
       id="path938"
       inkscape:connector-curvature="0"
       sodipodi:nodetypes="ssssss" />
    <path
       style="opacity:1;fill:#5fcb46;fill-opacity:1;fill-rule:nonzero;stroke:none;stroke-width:0.409912;stroke-linecap:round;stroke-linejoin:round;stroke-miterlimit:4;stroke-dasharray:none;stroke-dashoffset:0;stroke-opacity:1;paint-order:markers stroke fill"
       d="m 47.247883,-149.05253 c 2.419412,-0.52366 4.49977,-1.37142 6.990768,-1.58034 2.602452,-0.21812 4.857933,-1.89543 7.528409,-1.63051 2.301433,0.22836 4.440552,-0.67332 6.339089,-1.85352 1.71433,-1.0657 6.426158,-1.61555 4.715899,-4.40434 -1.398717,-2.28083 -4.186436,-1.74642 -6.511289,-2.21735 -2.956778,-0.59892 -6.019807,-0.28342 -8.97293,-0.87209 -3.327471,-0.66301 -6.635406,-1.13517 -9.98906,-1.76816 -4.152432,-0.78384 -8.461661,0.16842 -12.678757,-0.40006 -2.442814,-0.32931 -4.943475,-0.28342 -7.396601,-0.0832 -2.481107,0.20245 -5.01579,-0.13986 -7.413137,0.47617 -3.296375,0.84716 -6.467037,2.43858 -8.816643,5.13855 -1.6911267,1.94331 -4.6155401,0.61405 -6.6444337,2.15137 -1.6666001,1.26275 -1.3663145,1.60595 -0.2436411,2.95339 1.5394721,1.84775 4.2365907,2.64071 6.4273248,3.14067 2.516117,0.5742 5.195475,0.83502 7.688658,1.88668 2.380757,1.0042 5.041623,1.43923 7.642856,1.41018 2.357088,-0.0269 4.497286,-0.0216 6.83168,-0.27372 2.633073,-0.28558 5.116702,-0.85784 7.692361,-1.33438 2.39165,-0.44269 4.22217,-0.17977 6.809441,-0.73946 z"
       id="path942"
       inkscape:connector-curvature="0"
       sodipodi:nodetypes="ssssssssssssssssssss" />
    <g
       id="g4968"
       transform="matrix(0.06831852,0,0,0.06831852,0.78024699,-149.05113)">
      <path
         inkscape:connector-curvature="0"
         id="path4899"
         d="m 245.91685,-257.90519 c -8.35521,-9.11093 6.31192,-16.14483 11.14399,-15.40681 3.74244,-11.85682 17.17699,-5.81194 25.72841,-8.10705 6.53171,-2.73705 9.49715,4.82039 10.45044,6.73763 6.69633,-3.58269 12.1615,-23.44635 19.31193,-8.9684 8.8466,12.33556 24.44974,3.29115 33.43552,-3.70182 13.27748,-4.9858 21.35359,9.5768 20.96856,20.50614 7.3819,10.5555 24.78873,0.0238 31.13053,12.20893 3.89496,6.17031 -11.54753,17.49563 2.75628,16.41608 8.7495,-0.0236 22.70011,-10.32707 27.54998,1.02419 0.58496,17.67745 17.36874,3.02812 26.32097,2.35025 13.46181,-4.46502 22.24654,9.80571 23.30714,19.29853 9.99886,1.31719 26.03586,-13.38448 30.74859,2.19475 1.59597,11.97386 -12.9096,19.27129 -23.24996,17.45722 -14.63837,1.45931 -29.30293,-4.1362 -40.56429,-13.3103 -17.27001,-6.82096 -32.70685,8.24624 -49.74066,8.4902 -35.6293,2.49176 -71.65073,-12.32048 -106.78065,-1.18333 -16.71042,4.35286 -36.15805,10.25753 -52.04299,0.305 -12.39436,-9.06541 -17.16298,-27.91867 -8.89292,-41.22779 6.64855,-5.04431 27.30356,7.01378 22.22316,-8.22154 -1.47841,-2.14744 -3.29605,-4.21676 -3.80403,-6.86188 z"
         style="opacity:1;fill:#3f9b38;fill-opacity:1;fill-rule:nonzero;stroke:none;stroke-width:3.76093;stroke-linecap:round;stroke-linejoin:round;stroke-miterlimit:4;stroke-dasharray:none;stroke-dashoffset:0;stroke-opacity:1;paint-order:markers stroke fill" />
      <path
         inkscape:connector-curvature="0"
         id="path4905"
         d="m 340.71688,-283.6105 c -4.98615,3.19954 -10.86366,5.96731 -16.35715,6.05906 -5.38908,3.24604 -10.79738,6.0873 -17.13899,3.67161 -2.56635,-1.95508 -5.85481,-4.27598 -9.2325,-5.63222 -1.5376,2.09114 -3.10584,3.95182 -4.74856,4.83072 -0.50739,-1.02049 -1.58509,-3.63895 -3.46697,-5.45238 -1.58133,0.59515 -3.04943,1.73297 -4.31964,3.59202 -1.64663,1.36698 -3.50755,6.98487 -5.57641,3.34347 -4.30107,-4.26953 -10.81635,-5.01252 -16.369,-3.46284 -1.56044,-0.15487 -3.1587,-0.19767 -4.75581,-0.11885 -0.68045,0.93951 -1.25269,2.07985 -1.69084,3.468 -4.83206,-0.73802 -19.49924,6.29588 -11.14402,15.40681 0.50798,2.64512 2.32548,4.71416 3.80389,6.8616 3.77238,11.31276 -6.64287,7.58003 -14.97891,6.97167 0.58693,1.57362 0.74544,3.19596 -0.045,4.89944 -2.78992,0.4352 -5.94928,0.14465 -9.0878,-0.001 -5.47706,12.91714 -0.51787,29.31527 10.78124,37.57961 15.88495,9.95254 35.33294,4.04747 52.04333,-0.3054 35.12992,-11.13716 71.15128,3.67514 106.78057,1.1834 17.03382,-0.24398 32.47062,-15.31088 49.74063,-8.48993 11.26136,9.17409 25.92607,14.7696 40.56446,13.31029 3.32177,0.58277 7.07168,0.22061 10.58127,-0.93017 5.72866,-8.48582 -3.12232,-22.80248 -13.57333,-18.68672 -5.18668,0.59372 -9.58856,4.39377 -14.90607,4.18166 -3.23601,-10.2992 -12.2817,-21.78607 -24.23935,-19.62464 -2.91407,1.21129 -5.78724,2.27582 -8.22688,2.42931 -5.20414,2.2466 -10.29457,5.03002 -15.82489,3.38274 -1.69251,-7.09757 -7.77774,-14.98683 -15.99022,-12.38891 -6.33844,0.77784 -12.51109,5.40139 -18.98645,3.01997 2.18215,-6.29167 4.79462,-15.35642 -2.52748,-19.43964 -7.18021,-5.57509 -17.71558,-0.4627 -24.63882,-6.28695 -2.10625,-9.19605 -5.75374,-22.10321 -16.47032,-23.3717 z"
         style="opacity:1;fill:#327b2d;fill-opacity:1;fill-rule:nonzero;stroke:none;stroke-width:3.76093;stroke-linecap:round;stroke-linejoin:round;stroke-miterlimit:4;stroke-dasharray:none;stroke-dashoffset:0;stroke-opacity:1;paint-order:markers stroke fill" />
      <path
         inkscape:connector-curvature="0"
         id="path4930"
         d="m 342.10491,-256.69432 c -10.66379,4.14163 -22.59406,8.87427 -34.08423,4.25969 -8.56832,-4.35052 -17.02086,8.6524 -25.47646,2.82619 -8.25736,-6.98486 -23.51911,-6.25937 -27.75956,4.87877 -2.74833,5.50518 0.6032,11.24483 0.33952,16.74626 -1.22182,8.38172 -9.98787,13.5204 -17.87488,11.86697 -4.18539,1.09884 -6.57006,4.27524 -7.37526,7.97832 1.83348,2.49484 4.01994,4.71837 6.51639,6.54431 15.88495,9.95254 35.33294,4.04747 52.04333,-0.3054 34.01243,-10.78289 68.86041,2.75894 103.37924,1.36993 1.79213,-6.07865 -3.64998,-13.10809 -9.62421,-14.88385 -4.15214,-5.54373 -1.46021,-16.23051 -9.90846,-18.35339 -9.17732,-1.82886 -19.62976,-6.33135 -21.34754,-16.7013 -1.59509,-3.42 -4.87598,-6.31927 -8.82788,-6.2265 z m 109.90287,44.35698 c -2.87703,0.0462 -5.12001,1.43009 -6.63216,3.46696 5.59705,4.48231 12.01058,8.08353 18.83191,10.38543 0.49932,-1.65246 0.53081,-3.47972 -0.0853,-5.38314 -0.94067,-5.1535 -6.06076,-8.67933 -11.16986,-8.43772 -0.32205,-0.0265 -0.63696,-0.0365 -0.94464,-0.0315 z"
         style="opacity:1;fill:#2d7028;fill-opacity:1;fill-rule:nonzero;stroke:none;stroke-width:3.76093;stroke-linecap:round;stroke-linejoin:round;stroke-miterlimit:4;stroke-dasharray:none;stroke-dashoffset:0;stroke-opacity:1;paint-order:markers stroke fill" />
    </g>
    <g
       id="g4821"
       transform="matrix(0.07244568,0,0,0.07244568,-36.754356,-148.34174)">
      <path
         style="opacity:1;fill:#916b29;fill-opacity:1;fill-rule:nonzero;stroke:none;stroke-width:6;stroke-linecap:round;stroke-linejoin:round;stroke-miterlimit:4;stroke-dasharray:none;stroke-dashoffset:0;stroke-opacity:1;paint-order:markers stroke fill"
         d="m 734.45665,-256.24795 c -0.16992,20.84084 -1.34596,42.43625 -5.87994,56.66115 l 26.72697,2.67269 c -5.798,-21.09934 -8.01809,-33.90054 -8.01809,-59.86837 z"
         id="path4809"
         inkscape:connector-curvature="0"
         sodipodi:nodetypes="ccccc" />
      <path
         style="opacity:1;fill:#3e7738;fill-opacity:1;fill-rule:nonzero;stroke:none;stroke-width:7.70804;stroke-linecap:round;stroke-linejoin:round;stroke-miterlimit:4;stroke-dasharray:none;stroke-dashoffset:0;stroke-opacity:1;paint-order:markers stroke fill"
         d="m 740.56464,-248.9698 c -4.49532,11.56989 -18.90384,-5.52522 -18.63164,3.54617 0.26306,8.76659 -5.5197,1.77128 -13.27094,-5.88316 -10.18235,-10.05523 -26.9285,12.30431 -22.12563,-6.86283 1.80576,-7.20636 -4.69076,-17.18277 1.90987,-22.40674 7.15997,-5.66664 4.80418,-15.24979 7.5759,-22.55687 3.23407,-8.52603 4.8905,-18.98118 -0.80963,-26.58655 -4.95276,-6.60822 -2.41826,-14.17718 6.14164,-15.0898 10.33989,-1.10241 12.13599,-14.35698 3.43625,-20.55518 -8.94673,-6.37417 2.00219,-15.56616 9.09739,-18.17345 10.15769,-3.73266 1.17788,-16.13401 8.41921,-22.53483 6.22199,-5.49982 10.54768,-18.07871 20.16033,-15.81664 6.13262,1.44314 7.85697,9.25547 11.43394,14.19351 3.2892,4.54076 8.73422,8.77635 8.15302,14.79496 -0.69739,7.22202 -0.92068,16.94724 7.12668,20.26164 9.85538,4.05908 -4.28894,17.10958 5.27787,21.20504 7.03893,3.0133 7.94586,9.25984 6.11936,16.98625 -1.91172,8.08705 8.50221,13.27318 8.12014,22.97452 -0.3149,7.99583 4.76151,15.57611 -3.04382,22.409 -7.05324,6.17449 5.4223,14.46178 5.57135,23.30369 0.16744,9.93245 -4.51591,16.55585 -14.61265,17.58086 -8.86818,0.90032 -16.74125,9.45533 -25.21105,1.79257 -2.78454,-2.51922 -9.39588,-6.2928 -10.83759,-2.58216 z"
         id="path4811"
         inkscape:connector-curvature="0"
         sodipodi:nodetypes="sssssssssssssssssssssss" />
      <path
         style="opacity:1;fill:#34642f;fill-opacity:1;fill-rule:nonzero;stroke:none;stroke-width:29.1327;stroke-linecap:round;stroke-linejoin:round;stroke-miterlimit:4;stroke-dasharray:none;stroke-dashoffset:0;stroke-opacity:1;paint-order:markers stroke fill"
         d="m 2798.0137,281.91992 c -6.3164,-0.055 -11.992,1.66954 -17.2129,4.60742 -7.2638,11.54723 -13.6899,23.48721 -19.666,34.64649 -3.7051,18.97625 6.2247,50.34718 -20.4102,55.42187 -7.8435,3.0397 -15.6303,7.85105 -22.5078,13.84571 0.1714,15.97767 -1.392,30.58588 -20.0586,37.44531 -0.926,0.34028 -1.8711,0.71707 -2.8281,1.11523 -1.2657,9.19916 0.325,18.67476 5.9082,27.70313 18.138,10.68404 36.1093,42.23016 15.3535,58.48633 -10.6476,1.75292 -22.5433,5.782 -32.6914,11.95898 3.6968,18.73882 -4.4511,38.0405 -23.1172,44.83594 0.137,0.60444 0.2862,1.21084 0.4531,1.82422 5.8865,27.47595 33.0655,51.40149 19.2129,81.2539 -9.1074,42.66274 -13.7364,88.49063 -40.3105,124.31836 -11.9489,20.03456 -8.3577,43.40072 -3.1602,64.58985 -1.7458,20.51508 -3.635,53.96943 23.7617,57.46875 21.89,4.88092 48.4236,-22.92653 66.0606,-1.22071 14.4921,19.20798 45.2242,42.32629 66.4609,18.86328 5.5905,-7.74447 15.7949,7.05159 24.9727,5.29297 18.627,4.20703 39.8376,-2.40112 51.4433,-16.93359 22.5269,10.52288 43.8878,34.34881 71.25,22.97266 11.9883,-3.42473 23.9741,-7.09383 35.9161,-10.88672 9.4858,-11.49018 13.9397,-27.36506 13.6171,-46.5 -0.5633,-33.41825 -47.7165,-64.73952 -21.0586,-88.07618 29.5005,-25.82509 10.3157,-54.4768 11.5059,-84.69726 1.444,-36.66648 -37.9168,-56.2668 -30.6914,-86.83203 6.9033,-29.20218 3.4749,-52.81037 -23.1289,-64.19922 -36.158,-15.4789 17.3014,-64.80508 -19.9473,-80.14649 -30.4152,-12.52686 -29.5713,-49.2823 -26.9355,-76.57812 2.1966,-22.7475 -18.3829,-38.75604 -30.8145,-55.91797 -13.5192,-18.66346 -20.0364,-48.19014 -43.2148,-53.64453 -2.8384,-0.66793 -5.5547,-0.99485 -8.1621,-1.01758 z"
         transform="matrix(0.26458333,0,0,0.26458333,0,-496.75002)"
         id="path4813"
         inkscape:connector-curvature="0" />
      <path
         style="opacity:1;fill:#386e34;fill-opacity:1;fill-rule:nonzero;stroke:none;stroke-width:29.1327;stroke-linecap:round;stroke-linejoin:round;stroke-miterlimit:4;stroke-dasharray:none;stroke-dashoffset:0;stroke-opacity:1;paint-order:markers stroke fill"
         d="m 2795.9121,349.96875 c -24.6902,12.67003 -35.8614,40.98624 -53.4668,60.44922 -2.9128,28.27608 1.748,68.3428 -31.1973,80.80273 -10.3838,5.525 -26.9105,10.88918 -32.7832,21.44532 2.5644,4.47398 4.3351,9.20785 5.3321,13.98828 25.2055,25.12787 34.9226,68.6788 7.4336,95.73632 -12.4077,14.84217 -33.6122,17.6013 -49.1485,24.4043 -1.4629,19.95685 20.9644,34.01482 20.7051,54.92774 7.3142,47.24904 -16.6619,91.53617 -21.0371,137.85742 -2.9948,19.87204 -23.1994,31.93335 -27.6602,49.76758 -0.4273,12.53954 2.1751,24.88113 3.6778,37.29296 18.1412,-7.3014 42.2045,-17.18642 60.6406,1.01954 18.3021,18.07355 33.7003,35.17362 42.4375,37.38476 1.928,-1.16457 3.9471,-2.00552 6.041,-2.5625 1.2682,-2.41842 1.8626,-6.49153 1.6797,-12.58789 -1.0288,-34.28557 53.4278,30.32638 70.418,-13.40234 5.449,-14.02447 30.4367,0.2383 40.9609,9.75976 32.0119,28.96162 61.7676,-3.3726 95.2852,-6.77539 13.04,-1.3238 23.6884,-5.12108 32.0351,-11.04101 1.5171,-17.51827 -7.3465,-36.8605 -19.2558,-49.33985 -14.5589,-23.73426 -10.5876,-57.131 11.8847,-74.13672 0.6066,-1.92747 1.0869,-3.86535 1.4785,-5.81054 0.1,-0.91032 0.2566,-1.81357 0.4844,-2.70703 3.3627,-21.80342 -5.0844,-44.51973 -6.998,-65.92188 -15.7299,-28.05615 -38.5342,-60.09373 -23.584,-93.44726 1.5505,-27.72964 -38.1847,-26.40857 -39.0137,-53.08399 -4.2473,-16.28783 7.3951,-35.16796 3.4238,-49.45117 -33.6457,-17.82996 -44.5341,-59.13495 -37.9335,-94.36914 -0.391,-27.37561 -30.3508,-38.96927 -36.9024,-64.09375 -5.5879,-9.75224 -12.2463,-26.33636 -24.9375,-26.10547 z"
         transform="matrix(0.26458333,0,0,0.26458333,0,-496.75002)"
         id="path4815"
         inkscape:connector-curvature="0" />
      <path
         style="opacity:1;fill:#3e7939;fill-opacity:1;fill-rule:nonzero;stroke:none;stroke-width:29.1327;stroke-linecap:round;stroke-linejoin:round;stroke-miterlimit:4;stroke-dasharray:none;stroke-dashoffset:0;stroke-opacity:1;paint-order:markers stroke fill"
         d="m 2811.9805,460.3125 c -11.5817,31.5885 -6.0531,71.4465 -35.1309,94.85742 -8.6268,7.92571 -20.4066,13.61741 -10.541,25.63086 16.8743,47.44248 -0.3182,107.05014 -44.4766,133.4043 21.7212,61.62259 -8.6305,124.75693 -18.3359,185.01953 -4.5403,12.45938 -12.0738,23.455 -18.5977,34.91211 0.5624,0.5652 1.1127,1.11845 1.668,1.67773 14.8821,2.49605 28.2099,10.35634 42.0195,16.22461 10e-4,-0.69542 0,-1.3876 -0.019,-2.14453 -1.0288,-34.28557 53.4278,30.32638 70.418,-13.40234 5.449,-14.02447 30.4367,0.2383 40.9609,9.75976 1.4605,1.32137 2.9174,2.51119 4.3692,3.58594 8.9963,1.64392 17.8326,4.52812 26.2656,8.30664 18.7638,-0.78456 37.421,-13.13283 57.2754,-17.45898 -15.3031,-30.05964 -21.8067,-66.10805 -2.8731,-95.94532 13.6872,-17.29107 14.1332,-40.0404 3.793,-58.59765 -14.2148,-31.99098 -32.305,-65.28942 -27.8516,-101.35352 -22.7816,-15.81282 -39.3616,-42.26701 -34.6953,-71.0664 2.4047,-11.42865 2.6033,-21.4873 -8.1933,-28.14649 -25.391,-29.84492 -25.0586,-71.63442 -31.6309,-107.40625 -4.8418,-5.19466 -10.0551,-16.69779 -14.4238,-17.85742 z"
         transform="matrix(0.26458333,0,0,0.26458333,0,-496.75002)"
         id="path4817"
         inkscape:connector-curvature="0" />
      <path
         style="opacity:1;fill:#488940;fill-opacity:1;fill-rule:nonzero;stroke:none;stroke-width:29.1327;stroke-linecap:round;stroke-linejoin:round;stroke-miterlimit:4;stroke-dasharray:none;stroke-dashoffset:0;stroke-opacity:1;paint-order:markers stroke fill"
         d="m 2783.75,649.66797 c -4.7889,9.61629 -19.4505,15.32577 -10.9688,27.49805 10.5879,48.93528 -6.4413,103.04319 -43.8183,136.51367 9.2246,49.81216 -3.1729,98.67018 -16.2988,146.79492 10.327,7.81552 16.4382,7.27803 15.9023,-10.58008 -1.0288,-34.28557 53.4278,30.32638 70.418,-13.40234 5.449,-14.02447 30.4367,0.2383 40.9609,9.75976 6.08,5.50069 12.0786,8.78584 18.0371,10.48243 2.7082,-18.98654 9.3443,-37.38055 19.666,-53.41797 -5.1934,-39.53246 -37.4537,-71.50499 -34.0605,-112.99414 -9.7122,-19.84275 -29.5787,-34.19362 -32.4356,-57.61524 -4.193,-20.12572 -0.026,-41.88238 -15.9668,-57.51953 -4.773,-7.59859 -8.264,-19.35973 -11.4355,-25.51953 z"
         id="path4819"
         transform="matrix(0.26458333,0,0,0.26458333,0,-496.75002)"
         inkscape:connector-curvature="0" />
    </g>
    <path
       style="opacity:1;fill:#5d8648;fill-opacity:1;fill-rule:nonzero;stroke:none;stroke-width:0.304233;stroke-linecap:round;stroke-linejoin:round;stroke-miterlimit:4;stroke-dasharray:none;stroke-dashoffset:0;stroke-opacity:1;paint-order:markers stroke fill"
       d="m 41.601054,-161.71445 c -16.450851,-0.84521 -32.937922,1.17033 -21.658509,3.92678 11.063902,2.70376 -19.80377245,2.51669 -10.862922,5.25836 7.036235,2.15767 14.76581,4.49762 29.254203,2.37831 13.55822,-1.98325 8.915207,-2.96958 22.004892,-4.48472 7.353618,-0.85115 15.760547,-4.22407 2.958053,-4.83736 -12.802498,-0.61329 -5.65402,-1.41715 -21.695717,-2.24137 z"
       id="path831"
       inkscape:connector-curvature="0"
       sodipodi:nodetypes="sssssss" />
    <path
       style="opacity:1;fill:#9bdef4;fill-opacity:1;fill-rule:nonzero;stroke:none;stroke-width:0.409912;stroke-linecap:round;stroke-linejoin:round;stroke-miterlimit:4;stroke-dasharray:none;stroke-dashoffset:0;stroke-opacity:1;paint-order:markers stroke fill"
       d="m 22.34198,-159.93515 c 11.045104,-1.61869 21.400087,-0.36496 26.512735,0.29207 5.112647,0.65734 -6.792519,2.1181 -14.680608,1.46076 -7.888085,-0.65734 -14.434704,-1.37146 -11.832127,-1.75288 z"
       id="path928"
       inkscape:connector-curvature="0"
       sodipodi:nodetypes="ssss" />
    <path
       sodipodi:nodetypes="ssss"
       inkscape:connector-curvature="0"
       id="path930"
       d="m 48.34345,-156.86758 c 11.045105,-1.61868 11.539978,-1.31468 16.652626,-0.65734 5.112647,0.65734 -18.259458,2.19115 -26.147547,1.53381 -7.888085,-0.65734 6.892344,-0.49506 9.494921,-0.87647 z"
       style="opacity:1;fill:#9bdef4;fill-opacity:1;fill-rule:nonzero;stroke:none;stroke-width:0.409912;stroke-linecap:round;stroke-linejoin:round;stroke-miterlimit:4;stroke-dasharray:none;stroke-dashoffset:0;stroke-opacity:1;paint-order:markers stroke fill" />
    <path
       style="opacity:1;fill:#9bdef4;fill-opacity:1;fill-rule:nonzero;stroke:none;stroke-width:0.409912;stroke-linecap:round;stroke-linejoin:round;stroke-miterlimit:4;stroke-dasharray:none;stroke-dashoffset:0;stroke-opacity:1;paint-order:markers stroke fill"
       d="m 15.679964,-153.48278 c 11.045105,-1.61868 10.744702,-0.13338 15.849214,0.5843 4.674416,0.65734 2.556321,1.16865 -5.550879,1.46078 -7.910295,0.28504 -12.900912,-1.66367 -10.298335,-2.04508 z"
       id="path932"
       inkscape:connector-curvature="0"
       sodipodi:nodetypes="ssss" />
    <path
       sodipodi:nodetypes="ssss"
       inkscape:connector-curvature="0"
       id="path934"
       d="m 32.529091,-154.59414 c 5.610924,-0.4929 10.549928,0.0324 13.100251,0.54202 2.33544,0.46752 -3.880073,0.87798 -7.972395,0.78859 -3.992927,-0.0874 -6.449967,-1.21444 -5.127856,-1.33061 z"
       style="opacity:1;fill:#9bdef4;fill-opacity:1;fill-rule:nonzero;stroke:none;stroke-width:0.206829;stroke-linecap:round;stroke-linejoin:round;stroke-miterlimit:4;stroke-dasharray:none;stroke-dashoffset:0;stroke-opacity:1;paint-order:markers stroke fill" />
    <path
       style="opacity:1;fill:#9bdef4;fill-opacity:1;fill-rule:nonzero;stroke:none;stroke-width:0.152211;stroke-linecap:round;stroke-linejoin:round;stroke-miterlimit:4;stroke-dasharray:none;stroke-dashoffset:0;stroke-opacity:1;paint-order:markers stroke fill"
       d="m 24.791693,-156.35568 c 2.917195,-0.98353 5.514629,-1.03956 6.960752,-0.76186 1.324282,0.25429 2.987075,0.55176 0.785964,0.82611 -2.147647,0.26777 -8.4341,0.16736 -7.746716,-0.0642 z"
       id="path936"
       inkscape:connector-curvature="0"
       sodipodi:nodetypes="ssss" />
    <path
       style="opacity:1;fill:#8bd9f2;fill-opacity:1;fill-rule:nonzero;stroke:none;stroke-width:0.304233;stroke-linecap:round;stroke-linejoin:round;stroke-miterlimit:4;stroke-dasharray:none;stroke-dashoffset:0;stroke-opacity:1;paint-order:markers stroke fill"
       d="m 33.993122,-161.39791 c -9.10659,-0.001 -16.778878,0.83867 -17.677108,2.1139 0.309828,0.46103 1.452105,0.96501 3.626525,1.49634 1.739487,0.42487 2.442198,0.7787 2.426305,1.08345 h 3.73e-4 c -0.0034,0.15117 -0.0054,0.39034 -0.01031,0.56335 v 2.8e-4 h -1.51e-4 c -0.412297,1.26074 -13.2590321,1.67768 -14.7806459,2.94238 0.2215619,0.20245 0.7024576,0.4238 1.501288,0.6689 7.0362349,2.15763 14.7657879,4.49762 29.2541809,2.37831 13.558214,-1.98325 8.915234,-2.96964 22.00492,-4.48472 4.261381,-0.49344 8.876315,-1.83332 9.512747,-2.99252 -0.384546,-0.62026 -2.29631,-1.12962 -6.554716,-1.33365 -12.8025,-0.61327 -5.654026,-1.41709 -21.695723,-2.24131 -2.570444,-0.1322 -5.141769,-0.19435 -7.607921,-0.19488 z"
       id="path4655"
       inkscape:connector-curvature="0"
       sodipodi:nodetypes="scsccccccssscsss" />
    <g
       transform="matrix(0.04479412,7.6193811e-4,-7.6193811e-4,0.04479412,-3.4133705,-150.33547)"
       id="g4889">
      <path
         style="opacity:1;fill:#3f9b38;fill-opacity:1;fill-rule:nonzero;stroke:none;stroke-width:3.09072;stroke-linecap:round;stroke-linejoin:round;stroke-miterlimit:4;stroke-dasharray:none;stroke-dashoffset:0;stroke-opacity:1;paint-order:markers stroke fill"
         d="m 391.1251,-310.58308 c 5.37577,-5.5378 3.43972,-14.17263 7.4386,-20.40453 3.85265,1.92736 11.30001,10.9746 13.24835,2.60222 1.22215,-7.12363 10.43588,-12.22916 16.53003,-7.38123 5.40824,3.66032 5.47747,12.51673 12.33907,14.37003 6.21576,0.55954 9.54346,-5.97931 14.17076,-8.96465 7.45378,-4.86302 17.55437,0.61439 21.01861,7.97186 3.19213,5.72485 2.4347,13.83521 -3.65363,17.20246 -4.4626,3.19853 -4.98325,11.88301 2.15238,11.16955 7.77253,-0.22978 12.80535,-9.43485 20.93526,-7.6284 8.9879,2.62547 2.16852,11.72428 1.78665,17.23335 1.02422,5.28757 2.72547,14.21795 -4.68529,15.38831 -5.81332,1.30491 -13.05223,-0.34219 -17.27441,4.95644 -6.45325,5.64865 -15.17235,8.55384 -23.71753,7.4089 -15.77412,-0.5914 -31.73847,-3.71893 -47.40736,-0.31262 -11.94158,1.73286 -25.90626,2.83128 -35.72609,-5.57342 -6.05998,-6.5893 -3.79975,-16.77089 0.19099,-23.82774 2.63001,-4.79541 3.55408,-13.04739 -3.01774,-14.93588 -8.11193,-1.65751 -1.31302,-11.53779 4.60546,-7.87334 6.9339,1.03513 14.84218,3.02421 21.06589,-1.40131 z"
         id="path4883"
         inkscape:connector-curvature="0" />
      <path
         inkscape:connector-curvature="0"
         style="opacity:1;fill:#327b2d;fill-opacity:1;fill-rule:nonzero;stroke:none;stroke-width:11.6814;stroke-linecap:round;stroke-linejoin:round;stroke-miterlimit:4;stroke-dasharray:none;stroke-dashoffset:0;stroke-opacity:1;paint-order:markers stroke fill"
         d="m 1557.6328,635.52734 c -0.34,0.006 -0.6796,0.0371 -1.0195,0.0527 -0.049,0.25369 -0.1145,0.50272 -0.1582,0.75781 -3.9001,16.75925 -13.6302,15.04978 -24.084,8.65234 -8.1071,6.37753 -14.1703,15.4594 -15.916,25.63477 -4.0122,17.24126 -14.1954,14.92531 -24.9883,8.07812 -2.487,9.12828 -6.207,17.71699 -13.1992,24.91993 -8.3321,5.92474 -17.4641,8.79825 -26.9473,9.87695 -2.4864,8.93666 -6.1919,17.34056 -13.0527,24.4082 -13.0365,9.26988 -28.0288,11.0895 -43.2656,10.20703 8.8918,12.648 5.0717,33.47289 -2.3536,47.01172 -15.0831,26.67156 -23.6265,65.15416 -0.7226,90.0586 37.1143,31.76579 89.8938,27.61384 135.0273,21.06445 59.221,-12.87424 119.559,-1.05357 179.1778,1.18164 32.2967,4.32733 65.2523,-6.65272 89.6425,-28.00195 11.6135,-14.57434 29.263,-15.24373 46.4825,-16.42969 -0.2027,-9.14327 -2.0262,-18.63939 -3.4864,-26.17773 1.4433,-20.82169 27.2181,-55.21173 -6.7519,-65.13477 -30.7272,-6.82753 -49.7485,27.96357 -79.125,28.83203 -26.9693,2.69654 -25.0033,-30.12591 -8.1367,-42.21484 23.011,-12.72662 25.8752,-43.38035 13.8105,-65.01758 -13.0932,-27.80776 -51.2696,-48.51078 -79.4414,-30.13086 -17.489,11.28317 -30.066,35.99761 -53.5586,33.88281 -25.9336,-7.0046 -26.1942,-40.47822 -46.6348,-54.3125 -6.478,-5.15331 -13.8897,-7.33017 -21.2988,-7.19922 z"
         transform="matrix(0.26458333,0,0,0.26458333,0,-496.75002)"
         id="path4885" />
      <path
         inkscape:connector-curvature="0"
         style="opacity:1;fill:#2d7028;fill-opacity:1;fill-rule:nonzero;stroke:none;stroke-width:11.6814;stroke-linecap:round;stroke-linejoin:round;stroke-miterlimit:4;stroke-dasharray:none;stroke-dashoffset:0;stroke-opacity:1;paint-order:markers stroke fill"
         d="m 1576.7891,757.06641 -0.9297,1.13086 c -12.4228,16.7015 -35.327,21.88648 -52.5508,26.45703 -14.6179,32.93831 -47.5735,55.07044 -82.1543,62.41992 -0.3876,19.50594 -14.6416,37.68935 -18.2617,55.91601 32.4951,11.6855 70.4017,8.14405 104.0605,3.25977 59.221,-12.87424 119.559,-1.05357 179.1778,1.18164 8.5292,1.1428 17.1036,1.20806 25.5546,0.30664 6.3018,-3.79439 12.3361,-8.06446 18.254,-12.14258 -46.6062,-9.1158 -69.0715,-64.58773 -52.4258,-106.66797 8.939,-15.13492 -3.6636,-4.31978 -11.9297,-1.97851 -37.4409,13.76262 -85.666,4.5689 -108.7949,-29.88281 z"
         transform="matrix(0.26458333,0,0,0.26458333,0,-496.75002)"
         id="path4887" />
    </g>
    <g
       id="g4793"
       transform="matrix(0.06831852,0,0,0.06831852,2.329614,-149.25773)">
      <path
         sodipodi:nodetypes="ccccc"
         inkscape:connector-curvature="0"
         id="path4687"
         d="m 734.45665,-256.24795 c -0.16992,20.84084 -1.34596,42.43625 -5.87994,56.66115 l 26.72697,2.67269 c -5.798,-21.09934 -8.01809,-33.90054 -8.01809,-59.86837 z"
         style="opacity:1;fill:#916b29;fill-opacity:1;fill-rule:nonzero;stroke:none;stroke-width:6;stroke-linecap:round;stroke-linejoin:round;stroke-miterlimit:4;stroke-dasharray:none;stroke-dashoffset:0;stroke-opacity:1;paint-order:markers stroke fill" />
      <path
         sodipodi:nodetypes="sssssssssssssssssssssss"
         inkscape:connector-curvature="0"
         id="path4674"
         d="m 740.56464,-248.9698 c -4.49532,11.56989 -18.90384,-5.52522 -18.63164,3.54617 0.26306,8.76659 -5.5197,1.77128 -13.27094,-5.88316 -10.18235,-10.05523 -26.9285,12.30431 -22.12563,-6.86283 1.80576,-7.20636 -4.69076,-17.18277 1.90987,-22.40674 7.15997,-5.66664 4.80418,-15.24979 7.5759,-22.55687 3.23407,-8.52603 4.8905,-18.98118 -0.80963,-26.58655 -4.95276,-6.60822 -2.41826,-14.17718 6.14164,-15.0898 10.33989,-1.10241 12.13599,-14.35698 3.43625,-20.55518 -8.94673,-6.37417 2.00219,-15.56616 9.09739,-18.17345 10.15769,-3.73266 1.17788,-16.13401 8.41921,-22.53483 6.22199,-5.49982 10.54768,-18.07871 20.16033,-15.81664 6.13262,1.44314 7.85697,9.25547 11.43394,14.19351 3.2892,4.54076 8.73422,8.77635 8.15302,14.79496 -0.69739,7.22202 -0.92068,16.94724 7.12668,20.26164 9.85538,4.05908 -4.28894,17.10958 5.27787,21.20504 7.03893,3.0133 7.94586,9.25984 6.11936,16.98625 -1.91172,8.08705 8.50221,13.27318 8.12014,22.97452 -0.3149,7.99583 4.76151,15.57611 -3.04382,22.409 -7.05324,6.17449 5.4223,14.46178 5.57135,23.30369 0.16744,9.93245 -4.51591,16.55585 -14.61265,17.58086 -8.86818,0.90032 -16.74125,9.45533 -25.21105,1.79257 -2.78454,-2.51922 -9.39588,-6.2928 -10.83759,-2.58216 z"
         style="opacity:1;fill:#3e7738;fill-opacity:1;fill-rule:nonzero;stroke:none;stroke-width:7.70804;stroke-linecap:round;stroke-linejoin:round;stroke-miterlimit:4;stroke-dasharray:none;stroke-dashoffset:0;stroke-opacity:1;paint-order:markers stroke fill" />
      <path
         id="path4689"
         transform="matrix(0.26458333,0,0,0.26458333,0,-496.75002)"
         d="m 2798.0137,281.91992 c -6.3164,-0.055 -11.992,1.66954 -17.2129,4.60742 -7.2638,11.54723 -13.6899,23.48721 -19.666,34.64649 -3.7051,18.97625 6.2247,50.34718 -20.4102,55.42187 -7.8435,3.0397 -15.6303,7.85105 -22.5078,13.84571 0.1714,15.97767 -1.392,30.58588 -20.0586,37.44531 -0.926,0.34028 -1.8711,0.71707 -2.8281,1.11523 -1.2657,9.19916 0.325,18.67476 5.9082,27.70313 18.138,10.68404 36.1093,42.23016 15.3535,58.48633 -10.6476,1.75292 -22.5433,5.782 -32.6914,11.95898 3.6968,18.73882 -4.4511,38.0405 -23.1172,44.83594 0.137,0.60444 0.2862,1.21084 0.4531,1.82422 5.8865,27.47595 33.0655,51.40149 19.2129,81.2539 -9.1074,42.66274 -13.7364,88.49063 -40.3105,124.31836 -11.9489,20.03456 -8.3577,43.40072 -3.1602,64.58985 -1.7458,20.51508 -3.635,53.96943 23.7617,57.46875 21.89,4.88092 48.4236,-22.92653 66.0606,-1.22071 14.4921,19.20798 45.2242,42.32629 66.4609,18.86328 5.5905,-7.74447 15.7949,7.05159 24.9727,5.29297 18.627,4.20703 39.8376,-2.40112 51.4433,-16.93359 22.5269,10.52288 43.8878,34.34881 71.25,22.97266 11.9883,-3.42473 23.9741,-7.09383 35.9161,-10.88672 9.4858,-11.49018 13.9397,-27.36506 13.6171,-46.5 -0.5633,-33.41825 -47.7165,-64.73952 -21.0586,-88.07618 29.5005,-25.82509 10.3157,-54.4768 11.5059,-84.69726 1.444,-36.66648 -37.9168,-56.2668 -30.6914,-86.83203 6.9033,-29.20218 3.4749,-52.81037 -23.1289,-64.19922 -36.158,-15.4789 17.3014,-64.80508 -19.9473,-80.14649 -30.4152,-12.52686 -29.5713,-49.2823 -26.9355,-76.57812 2.1966,-22.7475 -18.3829,-38.75604 -30.8145,-55.91797 -13.5192,-18.66346 -20.0364,-48.19014 -43.2148,-53.64453 -2.8384,-0.66793 -5.5547,-0.99485 -8.1621,-1.01758 z"
         style="opacity:1;fill:#34642f;fill-opacity:1;fill-rule:nonzero;stroke:none;stroke-width:29.1327;stroke-linecap:round;stroke-linejoin:round;stroke-miterlimit:4;stroke-dasharray:none;stroke-dashoffset:0;stroke-opacity:1;paint-order:markers stroke fill"
         inkscape:connector-curvature="0" />
      <path
         id="path4706"
         transform="matrix(0.26458333,0,0,0.26458333,0,-496.75002)"
         d="m 2795.9121,349.96875 c -24.6902,12.67003 -35.8614,40.98624 -53.4668,60.44922 -2.9128,28.27608 1.748,68.3428 -31.1973,80.80273 -10.3838,5.525 -26.9105,10.88918 -32.7832,21.44532 2.5644,4.47398 4.3351,9.20785 5.3321,13.98828 25.2055,25.12787 34.9226,68.6788 7.4336,95.73632 -12.4077,14.84217 -33.6122,17.6013 -49.1485,24.4043 -1.4629,19.95685 20.9644,34.01482 20.7051,54.92774 7.3142,47.24904 -16.6619,91.53617 -21.0371,137.85742 -2.9948,19.87204 -23.1994,31.93335 -27.6602,49.76758 -0.4273,12.53954 2.1751,24.88113 3.6778,37.29296 18.1412,-7.3014 42.2045,-17.18642 60.6406,1.01954 18.3021,18.07355 33.7003,35.17362 42.4375,37.38476 1.928,-1.16457 3.9471,-2.00552 6.041,-2.5625 1.2682,-2.41842 1.8626,-6.49153 1.6797,-12.58789 -1.0288,-34.28557 53.4278,30.32638 70.418,-13.40234 5.449,-14.02447 30.4367,0.2383 40.9609,9.75976 32.0119,28.96162 61.7676,-3.3726 95.2852,-6.77539 13.04,-1.3238 23.6884,-5.12108 32.0351,-11.04101 1.5171,-17.51827 -7.3465,-36.8605 -19.2558,-49.33985 -14.5589,-23.73426 -10.5876,-57.131 11.8847,-74.13672 0.6066,-1.92747 1.0869,-3.86535 1.4785,-5.81054 0.1,-0.91032 0.2566,-1.81357 0.4844,-2.70703 3.3627,-21.80342 -5.0844,-44.51973 -6.998,-65.92188 -15.7299,-28.05615 -38.5342,-60.09373 -23.584,-93.44726 1.5505,-27.72964 -38.1847,-26.40857 -39.0137,-53.08399 -4.2473,-16.28783 7.3951,-35.16796 3.4238,-49.45117 -33.6457,-17.82996 -44.5341,-59.13495 -37.9335,-94.36914 -0.391,-27.37561 -30.3508,-38.96927 -36.9024,-64.09375 -5.5879,-9.75224 -12.2463,-26.33636 -24.9375,-26.10547 z"
         style="opacity:1;fill:#386e34;fill-opacity:1;fill-rule:nonzero;stroke:none;stroke-width:29.1327;stroke-linecap:round;stroke-linejoin:round;stroke-miterlimit:4;stroke-dasharray:none;stroke-dashoffset:0;stroke-opacity:1;paint-order:markers stroke fill"
         inkscape:connector-curvature="0" />
      <path
         id="path4717"
         transform="matrix(0.26458333,0,0,0.26458333,0,-496.75002)"
         d="m 2811.9805,460.3125 c -11.5817,31.5885 -6.0531,71.4465 -35.1309,94.85742 -8.6268,7.92571 -20.4066,13.61741 -10.541,25.63086 16.8743,47.44248 -0.3182,107.05014 -44.4766,133.4043 21.7212,61.62259 -8.6305,124.75693 -18.3359,185.01953 -4.5403,12.45938 -12.0738,23.455 -18.5977,34.91211 0.5624,0.5652 1.1127,1.11845 1.668,1.67773 14.8821,2.49605 28.2099,10.35634 42.0195,16.22461 10e-4,-0.69542 0,-1.3876 -0.019,-2.14453 -1.0288,-34.28557 53.4278,30.32638 70.418,-13.40234 5.449,-14.02447 30.4367,0.2383 40.9609,9.75976 1.4605,1.32137 2.9174,2.51119 4.3692,3.58594 8.9963,1.64392 17.8326,4.52812 26.2656,8.30664 18.7638,-0.78456 37.421,-13.13283 57.2754,-17.45898 -15.3031,-30.05964 -21.8067,-66.10805 -2.8731,-95.94532 13.6872,-17.29107 14.1332,-40.0404 3.793,-58.59765 -14.2148,-31.99098 -32.305,-65.28942 -27.8516,-101.35352 -22.7816,-15.81282 -39.3616,-42.26701 -34.6953,-71.0664 2.4047,-11.42865 2.6033,-21.4873 -8.1933,-28.14649 -25.391,-29.84492 -25.0586,-71.63442 -31.6309,-107.40625 -4.8418,-5.19466 -10.0551,-16.69779 -14.4238,-17.85742 z"
         style="opacity:1;fill:#3e7939;fill-opacity:1;fill-rule:nonzero;stroke:none;stroke-width:29.1327;stroke-linecap:round;stroke-linejoin:round;stroke-miterlimit:4;stroke-dasharray:none;stroke-dashoffset:0;stroke-opacity:1;paint-order:markers stroke fill"
         inkscape:connector-curvature="0" />
      <path
         transform="matrix(0.26458333,0,0,0.26458333,0,-496.75002)"
         id="path4740"
         d="m 2783.75,649.66797 c -4.7889,9.61629 -19.4505,15.32577 -10.9688,27.49805 10.5879,48.93528 -6.4413,103.04319 -43.8183,136.51367 9.2246,49.81216 -3.1729,98.67018 -16.2988,146.79492 10.327,7.81552 16.4382,7.27803 15.9023,-10.58008 -1.0288,-34.28557 53.4278,30.32638 70.418,-13.40234 5.449,-14.02447 30.4367,0.2383 40.9609,9.75976 6.08,5.50069 12.0786,8.78584 18.0371,10.48243 2.7082,-18.98654 9.3443,-37.38055 19.666,-53.41797 -5.1934,-39.53246 -37.4537,-71.50499 -34.0605,-112.99414 -9.7122,-19.84275 -29.5787,-34.19362 -32.4356,-57.61524 -4.193,-20.12572 -0.026,-41.88238 -15.9668,-57.51953 -4.773,-7.59859 -8.264,-19.35973 -11.4355,-25.51953 z"
         style="opacity:1;fill:#488940;fill-opacity:1;fill-rule:nonzero;stroke:none;stroke-width:29.1327;stroke-linecap:round;stroke-linejoin:round;stroke-miterlimit:4;stroke-dasharray:none;stroke-dashoffset:0;stroke-opacity:1;paint-order:markers stroke fill"
         inkscape:connector-curvature="0" />
    </g>
    <g
       id="g5019"
       transform="matrix(0.07804535,0.00980333,-0.00980333,0.07804535,-31.10868,-142.68005)">
      <path
         inkscape:connector-curvature="0"
         id="path5011"
         d="m 489.38284,-237.28144 16.63096,17.3869 33.26188,18.8988 29.48215,-2.26785 24.19049,-8.31547 -11.3393,-29.48215 -31.75,-15.875 -55.18452,3.02381 z"
         style="opacity:1;fill:#5a5a5a;fill-opacity:1;fill-rule:nonzero;stroke:none;stroke-width:6;stroke-linecap:round;stroke-linejoin:round;stroke-miterlimit:4;stroke-dasharray:none;stroke-dashoffset:0;stroke-opacity:1;paint-order:markers stroke fill" />
      <path
         id="path5013"
         transform="matrix(0.26458333,0,0,0.26458333,0,-496.75002)"
         d="m 2078.207,906.38281 -208.5703,11.42774 -20,62.85742 25.9102,27.08983 92.2304,38.6074 101.0157,4.041 h 103.0351 l 41.166,-45.5781 -14.7871,-38.44529 z"
         style="opacity:1;fill:#797979;fill-opacity:1;fill-rule:nonzero;stroke:none;stroke-width:22.6772;stroke-linecap:round;stroke-linejoin:round;stroke-miterlimit:4;stroke-dasharray:none;stroke-dashoffset:0;stroke-opacity:1;paint-order:markers stroke fill"
         inkscape:connector-curvature="0" />
      <path
         id="path5015"
         transform="matrix(0.26458333,0,0,0.26458333,0,-496.75002)"
         d="m 2065.2344,907.09375 -195.5977,10.7168 -20,62.85742 62.8555,65.71483 125.7148,71.4277 25.9375,-1.9941 36.9727,-83.5937 4.041,-66.66997 z"
         style="opacity:1;fill:#ffffff;fill-opacity:0.191919;fill-rule:nonzero;stroke:none;stroke-width:22.6772;stroke-linecap:round;stroke-linejoin:round;stroke-miterlimit:4;stroke-dasharray:none;stroke-dashoffset:0;stroke-opacity:1;paint-order:markers stroke fill"
         inkscape:connector-curvature="0" />
      <path
         id="path5017"
         transform="matrix(0.26458333,0,0,0.26458333,0,-496.75002)"
         d="m 1993.2266,911.03906 -123.5899,6.77149 -20,62.85742 62.8555,65.71483 44.289,25.1641 2.3067,-0.1778 36.9726,-83.59371 4.0411,-66.66992 z"
         style="opacity:1;fill:#ffffff;fill-opacity:0.10101;fill-rule:nonzero;stroke:none;stroke-width:22.6772;stroke-linecap:round;stroke-linejoin:round;stroke-miterlimit:4;stroke-dasharray:none;stroke-dashoffset:0;stroke-opacity:1;paint-order:markers stroke fill"
         inkscape:connector-curvature="0" />
    </g>
    <g
       id="g4807"
       transform="matrix(-0.09583286,0,0,0.09583286,81.392913,-131.03168)">
      <path
         style="opacity:1;fill:#916b29;fill-opacity:1;fill-rule:nonzero;stroke:none;stroke-width:6;stroke-linecap:round;stroke-linejoin:round;stroke-miterlimit:4;stroke-dasharray:none;stroke-dashoffset:0;stroke-opacity:1;paint-order:markers stroke fill"
         d="m 734.45665,-256.24795 c -0.16992,20.84084 -1.34596,42.43625 -5.87994,56.66115 l 26.72697,2.67269 c -5.798,-21.09934 -8.01809,-33.90054 -8.01809,-59.86837 z"
         id="path4795"
         inkscape:connector-curvature="0"
         sodipodi:nodetypes="ccccc" />
      <path
         style="opacity:1;fill:#3e7738;fill-opacity:1;fill-rule:nonzero;stroke:none;stroke-width:7.70804;stroke-linecap:round;stroke-linejoin:round;stroke-miterlimit:4;stroke-dasharray:none;stroke-dashoffset:0;stroke-opacity:1;paint-order:markers stroke fill"
         d="m 740.56464,-248.9698 c -4.49532,11.56989 -18.90384,-5.52522 -18.63164,3.54617 0.26306,8.76659 -5.5197,1.77128 -13.27094,-5.88316 -10.18235,-10.05523 -26.9285,12.30431 -22.12563,-6.86283 1.80576,-7.20636 -4.69076,-17.18277 1.90987,-22.40674 7.15997,-5.66664 4.80418,-15.24979 7.5759,-22.55687 3.23407,-8.52603 4.8905,-18.98118 -0.80963,-26.58655 -4.95276,-6.60822 -2.41826,-14.17718 6.14164,-15.0898 10.33989,-1.10241 12.13599,-14.35698 3.43625,-20.55518 -8.94673,-6.37417 2.00219,-15.56616 9.09739,-18.17345 10.15769,-3.73266 1.17788,-16.13401 8.41921,-22.53483 6.22199,-5.49982 10.54768,-18.07871 20.16033,-15.81664 6.13262,1.44314 7.85697,9.25547 11.43394,14.19351 3.2892,4.54076 8.73422,8.77635 8.15302,14.79496 -0.69739,7.22202 -0.92068,16.94724 7.12668,20.26164 9.85538,4.05908 -4.28894,17.10958 5.27787,21.20504 7.03893,3.0133 7.94586,9.25984 6.11936,16.98625 -1.91172,8.08705 8.50221,13.27318 8.12014,22.97452 -0.3149,7.99583 4.76151,15.57611 -3.04382,22.409 -7.05324,6.17449 5.4223,14.46178 5.57135,23.30369 0.16744,9.93245 -4.51591,16.55585 -14.61265,17.58086 -8.86818,0.90032 -16.74125,9.45533 -25.21105,1.79257 -2.78454,-2.51922 -9.39588,-6.2928 -10.83759,-2.58216 z"
         id="path4797"
         inkscape:connector-curvature="0"
         sodipodi:nodetypes="sssssssssssssssssssssss" />
      <path
         style="opacity:1;fill:#34642f;fill-opacity:1;fill-rule:nonzero;stroke:none;stroke-width:29.1327;stroke-linecap:round;stroke-linejoin:round;stroke-miterlimit:4;stroke-dasharray:none;stroke-dashoffset:0;stroke-opacity:1;paint-order:markers stroke fill"
         d="m 2798.0137,281.91992 c -6.3164,-0.055 -11.992,1.66954 -17.2129,4.60742 -7.2638,11.54723 -13.6899,23.48721 -19.666,34.64649 -3.7051,18.97625 6.2247,50.34718 -20.4102,55.42187 -7.8435,3.0397 -15.6303,7.85105 -22.5078,13.84571 0.1714,15.97767 -1.392,30.58588 -20.0586,37.44531 -0.926,0.34028 -1.8711,0.71707 -2.8281,1.11523 -1.2657,9.19916 0.325,18.67476 5.9082,27.70313 18.138,10.68404 36.1093,42.23016 15.3535,58.48633 -10.6476,1.75292 -22.5433,5.782 -32.6914,11.95898 3.6968,18.73882 -4.4511,38.0405 -23.1172,44.83594 0.137,0.60444 0.2862,1.21084 0.4531,1.82422 5.8865,27.47595 33.0655,51.40149 19.2129,81.2539 -9.1074,42.66274 -13.7364,88.49063 -40.3105,124.31836 -11.9489,20.03456 -8.3577,43.40072 -3.1602,64.58985 -1.7458,20.51508 -3.635,53.96943 23.7617,57.46875 21.89,4.88092 48.4236,-22.92653 66.0606,-1.22071 14.4921,19.20798 45.2242,42.32629 66.4609,18.86328 5.5905,-7.74447 15.7949,7.05159 24.9727,5.29297 18.627,4.20703 39.8376,-2.40112 51.4433,-16.93359 22.5269,10.52288 43.8878,34.34881 71.25,22.97266 11.9883,-3.42473 23.9741,-7.09383 35.9161,-10.88672 9.4858,-11.49018 13.9397,-27.36506 13.6171,-46.5 -0.5633,-33.41825 -47.7165,-64.73952 -21.0586,-88.07618 29.5005,-25.82509 10.3157,-54.4768 11.5059,-84.69726 1.444,-36.66648 -37.9168,-56.2668 -30.6914,-86.83203 6.9033,-29.20218 3.4749,-52.81037 -23.1289,-64.19922 -36.158,-15.4789 17.3014,-64.80508 -19.9473,-80.14649 -30.4152,-12.52686 -29.5713,-49.2823 -26.9355,-76.57812 2.1966,-22.7475 -18.3829,-38.75604 -30.8145,-55.91797 -13.5192,-18.66346 -20.0364,-48.19014 -43.2148,-53.64453 -2.8384,-0.66793 -5.5547,-0.99485 -8.1621,-1.01758 z"
         transform="matrix(0.26458333,0,0,0.26458333,0,-496.75002)"
         id="path4799"
         inkscape:connector-curvature="0" />
      <path
         style="opacity:1;fill:#386e34;fill-opacity:1;fill-rule:nonzero;stroke:none;stroke-width:29.1327;stroke-linecap:round;stroke-linejoin:round;stroke-miterlimit:4;stroke-dasharray:none;stroke-dashoffset:0;stroke-opacity:1;paint-order:markers stroke fill"
         d="m 2795.9121,349.96875 c -24.6902,12.67003 -35.8614,40.98624 -53.4668,60.44922 -2.9128,28.27608 1.748,68.3428 -31.1973,80.80273 -10.3838,5.525 -26.9105,10.88918 -32.7832,21.44532 2.5644,4.47398 4.3351,9.20785 5.3321,13.98828 25.2055,25.12787 34.9226,68.6788 7.4336,95.73632 -12.4077,14.84217 -33.6122,17.6013 -49.1485,24.4043 -1.4629,19.95685 20.9644,34.01482 20.7051,54.92774 7.3142,47.24904 -16.6619,91.53617 -21.0371,137.85742 -2.9948,19.87204 -23.1994,31.93335 -27.6602,49.76758 -0.4273,12.53954 2.1751,24.88113 3.6778,37.29296 18.1412,-7.3014 42.2045,-17.18642 60.6406,1.01954 18.3021,18.07355 33.7003,35.17362 42.4375,37.38476 1.928,-1.16457 3.9471,-2.00552 6.041,-2.5625 1.2682,-2.41842 1.8626,-6.49153 1.6797,-12.58789 -1.0288,-34.28557 53.4278,30.32638 70.418,-13.40234 5.449,-14.02447 30.4367,0.2383 40.9609,9.75976 32.0119,28.96162 61.7676,-3.3726 95.2852,-6.77539 13.04,-1.3238 23.6884,-5.12108 32.0351,-11.04101 1.5171,-17.51827 -7.3465,-36.8605 -19.2558,-49.33985 -14.5589,-23.73426 -10.5876,-57.131 11.8847,-74.13672 0.6066,-1.92747 1.0869,-3.86535 1.4785,-5.81054 0.1,-0.91032 0.2566,-1.81357 0.4844,-2.70703 3.3627,-21.80342 -5.0844,-44.51973 -6.998,-65.92188 -15.7299,-28.05615 -38.5342,-60.09373 -23.584,-93.44726 1.5505,-27.72964 -38.1847,-26.40857 -39.0137,-53.08399 -4.2473,-16.28783 7.3951,-35.16796 3.4238,-49.45117 -33.6457,-17.82996 -44.5341,-59.13495 -37.9335,-94.36914 -0.391,-27.37561 -30.3508,-38.96927 -36.9024,-64.09375 -5.5879,-9.75224 -12.2463,-26.33636 -24.9375,-26.10547 z"
         transform="matrix(0.26458333,0,0,0.26458333,0,-496.75002)"
         id="path4801"
         inkscape:connector-curvature="0" />
      <path
         style="opacity:1;fill:#3e7939;fill-opacity:1;fill-rule:nonzero;stroke:none;stroke-width:29.1327;stroke-linecap:round;stroke-linejoin:round;stroke-miterlimit:4;stroke-dasharray:none;stroke-dashoffset:0;stroke-opacity:1;paint-order:markers stroke fill"
         d="m 2811.9805,460.3125 c -11.5817,31.5885 -6.0531,71.4465 -35.1309,94.85742 -8.6268,7.92571 -20.4066,13.61741 -10.541,25.63086 16.8743,47.44248 -0.3182,107.05014 -44.4766,133.4043 21.7212,61.62259 -8.6305,124.75693 -18.3359,185.01953 -4.5403,12.45938 -12.0738,23.455 -18.5977,34.91211 0.5624,0.5652 1.1127,1.11845 1.668,1.67773 14.8821,2.49605 28.2099,10.35634 42.0195,16.22461 10e-4,-0.69542 0,-1.3876 -0.019,-2.14453 -1.0288,-34.28557 53.4278,30.32638 70.418,-13.40234 5.449,-14.02447 30.4367,0.2383 40.9609,9.75976 1.4605,1.32137 2.9174,2.51119 4.3692,3.58594 8.9963,1.64392 17.8326,4.52812 26.2656,8.30664 18.7638,-0.78456 37.421,-13.13283 57.2754,-17.45898 -15.3031,-30.05964 -21.8067,-66.10805 -2.8731,-95.94532 13.6872,-17.29107 14.1332,-40.0404 3.793,-58.59765 -14.2148,-31.99098 -32.305,-65.28942 -27.8516,-101.35352 -22.7816,-15.81282 -39.3616,-42.26701 -34.6953,-71.0664 2.4047,-11.42865 2.6033,-21.4873 -8.1933,-28.14649 -25.391,-29.84492 -25.0586,-71.63442 -31.6309,-107.40625 -4.8418,-5.19466 -10.0551,-16.69779 -14.4238,-17.85742 z"
         transform="matrix(0.26458333,0,0,0.26458333,0,-496.75002)"
         id="path4803"
         inkscape:connector-curvature="0" />
      <path
         style="opacity:1;fill:#488940;fill-opacity:1;fill-rule:nonzero;stroke:none;stroke-width:29.1327;stroke-linecap:round;stroke-linejoin:round;stroke-miterlimit:4;stroke-dasharray:none;stroke-dashoffset:0;stroke-opacity:1;paint-order:markers stroke fill"
         d="m 2783.75,649.66797 c -4.7889,9.61629 -19.4505,15.32577 -10.9688,27.49805 10.5879,48.93528 -6.4413,103.04319 -43.8183,136.51367 9.2246,49.81216 -3.1729,98.67018 -16.2988,146.79492 10.327,7.81552 16.4382,7.27803 15.9023,-10.58008 -1.0288,-34.28557 53.4278,30.32638 70.418,-13.40234 5.449,-14.02447 30.4367,0.2383 40.9609,9.75976 6.08,5.50069 12.0786,8.78584 18.0371,10.48243 2.7082,-18.98654 9.3443,-37.38055 19.666,-53.41797 -5.1934,-39.53246 -37.4537,-71.50499 -34.0605,-112.99414 -9.7122,-19.84275 -29.5787,-34.19362 -32.4356,-57.61524 -4.193,-20.12572 -0.026,-41.88238 -15.9668,-57.51953 -4.773,-7.59859 -8.264,-19.35973 -11.4355,-25.51953 z"
         id="path4805"
         transform="matrix(0.26458333,0,0,0.26458333,0,-496.75002)"
         inkscape:connector-curvature="0" />
    </g>
    <g
       id="g4881"
       transform="matrix(0.04479412,7.6193811e-4,-7.6193811e-4,0.04479412,31.097003,-151.35797)">
      <path
         inkscape:connector-curvature="0"
         id="path4823"
         d="m 391.1251,-310.58308 c 5.37577,-5.5378 3.43972,-14.17263 7.4386,-20.40453 3.85265,1.92736 11.30001,10.9746 13.24835,2.60222 1.22215,-7.12363 10.43588,-12.22916 16.53003,-7.38123 5.40824,3.66032 5.47747,12.51673 12.33907,14.37003 6.21576,0.55954 9.54346,-5.97931 14.17076,-8.96465 7.45378,-4.86302 17.55437,0.61439 21.01861,7.97186 3.19213,5.72485 2.4347,13.83521 -3.65363,17.20246 -4.4626,3.19853 -4.98325,11.88301 2.15238,11.16955 7.77253,-0.22978 12.80535,-9.43485 20.93526,-7.6284 8.9879,2.62547 2.16852,11.72428 1.78665,17.23335 1.02422,5.28757 2.72547,14.21795 -4.68529,15.38831 -5.81332,1.30491 -13.05223,-0.34219 -17.27441,4.95644 -6.45325,5.64865 -15.17235,8.55384 -23.71753,7.4089 -15.77412,-0.5914 -31.73847,-3.71893 -47.40736,-0.31262 -11.94158,1.73286 -25.90626,2.83128 -35.72609,-5.57342 -6.05998,-6.5893 -3.79975,-16.77089 0.19099,-23.82774 2.63001,-4.79541 3.55408,-13.04739 -3.01774,-14.93588 -8.11193,-1.65751 -1.31302,-11.53779 4.60546,-7.87334 6.9339,1.03513 14.84218,3.02421 21.06589,-1.40131 z"
         style="opacity:1;fill:#3f9b38;fill-opacity:1;fill-rule:nonzero;stroke:none;stroke-width:3.09072;stroke-linecap:round;stroke-linejoin:round;stroke-miterlimit:4;stroke-dasharray:none;stroke-dashoffset:0;stroke-opacity:1;paint-order:markers stroke fill" />
      <path
         id="path4852"
         transform="matrix(0.26458333,0,0,0.26458333,0,-496.75002)"
         d="m 1557.6328,635.52734 c -0.34,0.006 -0.6796,0.0371 -1.0195,0.0527 -0.049,0.25369 -0.1145,0.50272 -0.1582,0.75781 -3.9001,16.75925 -13.6302,15.04978 -24.084,8.65234 -8.1071,6.37753 -14.1703,15.4594 -15.916,25.63477 -4.0122,17.24126 -14.1954,14.92531 -24.9883,8.07812 -2.487,9.12828 -6.207,17.71699 -13.1992,24.91993 -8.3321,5.92474 -17.4641,8.79825 -26.9473,9.87695 -2.4864,8.93666 -6.1919,17.34056 -13.0527,24.4082 -13.0365,9.26988 -28.0288,11.0895 -43.2656,10.20703 8.8918,12.648 5.0717,33.47289 -2.3536,47.01172 -15.0831,26.67156 -23.6265,65.15416 -0.7226,90.0586 37.1143,31.76579 89.8938,27.61384 135.0273,21.06445 59.221,-12.87424 119.559,-1.05357 179.1778,1.18164 32.2967,4.32733 65.2523,-6.65272 89.6425,-28.00195 11.6135,-14.57434 29.263,-15.24373 46.4825,-16.42969 -0.2027,-9.14327 -2.0262,-18.63939 -3.4864,-26.17773 1.4433,-20.82169 27.2181,-55.21173 -6.7519,-65.13477 -30.7272,-6.82753 -49.7485,27.96357 -79.125,28.83203 -26.9693,2.69654 -25.0033,-30.12591 -8.1367,-42.21484 23.011,-12.72662 25.8752,-43.38035 13.8105,-65.01758 -13.0932,-27.80776 -51.2696,-48.51078 -79.4414,-30.13086 -17.489,11.28317 -30.066,35.99761 -53.5586,33.88281 -25.9336,-7.0046 -26.1942,-40.47822 -46.6348,-54.3125 -6.478,-5.15331 -13.8897,-7.33017 -21.2988,-7.19922 z"
         style="opacity:1;fill:#327b2d;fill-opacity:1;fill-rule:nonzero;stroke:none;stroke-width:11.6814;stroke-linecap:round;stroke-linejoin:round;stroke-miterlimit:4;stroke-dasharray:none;stroke-dashoffset:0;stroke-opacity:1;paint-order:markers stroke fill"
         inkscape:connector-curvature="0" />
      <path
         id="path4857"
         transform="matrix(0.26458333,0,0,0.26458333,0,-496.75002)"
         d="m 1576.7891,757.06641 -0.9297,1.13086 c -12.4228,16.7015 -35.327,21.88648 -52.5508,26.45703 -14.6179,32.93831 -47.5735,55.07044 -82.1543,62.41992 -0.3876,19.50594 -14.6416,37.68935 -18.2617,55.91601 32.4951,11.6855 70.4017,8.14405 104.0605,3.25977 59.221,-12.87424 119.559,-1.05357 179.1778,1.18164 8.5292,1.1428 17.1036,1.20806 25.5546,0.30664 6.3018,-3.79439 12.3361,-8.06446 18.254,-12.14258 -46.6062,-9.1158 -69.0715,-64.58773 -52.4258,-106.66797 8.939,-15.13492 -3.6636,-4.31978 -11.9297,-1.97851 -37.4409,13.76262 -85.666,4.5689 -108.7949,-29.88281 z"
         style="opacity:1;fill:#2d7028;fill-opacity:1;fill-rule:nonzero;stroke:none;stroke-width:11.6814;stroke-linecap:round;stroke-linejoin:round;stroke-miterlimit:4;stroke-dasharray:none;stroke-dashoffset:0;stroke-opacity:1;paint-order:markers stroke fill"
         inkscape:connector-curvature="0" />
    </g>
    <g
       id="g4999"
       transform="matrix(0.04787335,0.00190705,-0.00190705,0.04787335,29.805135,-152.99997)">
      <path
         inkscape:connector-curvature="0"
         id="path4978"
         d="m 489.38284,-237.28144 16.63096,17.3869 33.26188,18.8988 29.48215,-2.26785 24.19049,-8.31547 -11.3393,-29.48215 -31.75,-15.875 -55.18452,3.02381 z"
         style="opacity:1;fill:#5a5a5a;fill-opacity:1;fill-rule:nonzero;stroke:none;stroke-width:6;stroke-linecap:round;stroke-linejoin:round;stroke-miterlimit:4;stroke-dasharray:none;stroke-dashoffset:0;stroke-opacity:1;paint-order:markers stroke fill" />
      <path
         id="path4980"
         transform="matrix(0.26458333,0,0,0.26458333,0,-496.75002)"
         d="m 2078.207,906.38281 -208.5703,11.42774 -20,62.85742 25.9102,27.08983 92.2304,38.6074 101.0157,4.041 h 103.0351 l 41.166,-45.5781 -14.7871,-38.44529 z"
         style="opacity:1;fill:#797979;fill-opacity:1;fill-rule:nonzero;stroke:none;stroke-width:22.6772;stroke-linecap:round;stroke-linejoin:round;stroke-miterlimit:4;stroke-dasharray:none;stroke-dashoffset:0;stroke-opacity:1;paint-order:markers stroke fill"
         inkscape:connector-curvature="0" />
      <path
         id="path4985"
         transform="matrix(0.26458333,0,0,0.26458333,0,-496.75002)"
         d="m 2065.2344,907.09375 -195.5977,10.7168 -20,62.85742 62.8555,65.71483 125.7148,71.4277 25.9375,-1.9941 36.9727,-83.5937 4.041,-66.66997 z"
         style="opacity:1;fill:#ffffff;fill-opacity:0.191919;fill-rule:nonzero;stroke:none;stroke-width:22.6772;stroke-linecap:round;stroke-linejoin:round;stroke-miterlimit:4;stroke-dasharray:none;stroke-dashoffset:0;stroke-opacity:1;paint-order:markers stroke fill"
         inkscape:connector-curvature="0" />
      <path
         id="path4990"
         transform="matrix(0.26458333,0,0,0.26458333,0,-496.75002)"
         d="m 1993.2266,911.03906 -123.5899,6.77149 -20,62.85742 62.8555,65.71483 44.289,25.1641 2.3067,-0.1778 36.9726,-83.59371 4.0411,-66.66992 z"
         style="opacity:1;fill:#ffffff;fill-opacity:0.10101;fill-rule:nonzero;stroke:none;stroke-width:22.6772;stroke-linecap:round;stroke-linejoin:round;stroke-miterlimit:4;stroke-dasharray:none;stroke-dashoffset:0;stroke-opacity:1;paint-order:markers stroke fill"
         inkscape:connector-curvature="0" />
    </g>
    <g
       id="g4897"
       transform="matrix(-0.03580027,4.8101629e-4,6.0895451e-4,0.02827884,69.371865,-154.36919)">
      <path
         inkscape:connector-curvature="0"
         id="path4891"
         d="m 391.1251,-310.58308 c 5.37577,-5.5378 3.43972,-14.17263 7.4386,-20.40453 3.85265,1.92736 11.30001,10.9746 13.24835,2.60222 1.22215,-7.12363 10.43588,-12.22916 16.53003,-7.38123 5.40824,3.66032 5.47747,12.51673 12.33907,14.37003 6.21576,0.55954 9.54346,-5.97931 14.17076,-8.96465 7.45378,-4.86302 17.55437,0.61439 21.01861,7.97186 3.19213,5.72485 2.4347,13.83521 -3.65363,17.20246 -4.4626,3.19853 -4.98325,11.88301 2.15238,11.16955 7.77253,-0.22978 12.80535,-9.43485 20.93526,-7.6284 8.9879,2.62547 2.16852,11.72428 1.78665,17.23335 1.02422,5.28757 2.72547,14.21795 -4.68529,15.38831 -5.81332,1.30491 -13.05223,-0.34219 -17.27441,4.95644 -6.45325,5.64865 -15.17235,8.55384 -23.71753,7.4089 -15.77412,-0.5914 -31.73847,-3.71893 -47.40736,-0.31262 -11.94158,1.73286 -25.90626,2.83128 -35.72609,-5.57342 -6.05998,-6.5893 -3.79975,-16.77089 0.19099,-23.82774 2.63001,-4.79541 3.55408,-13.04739 -3.01774,-14.93588 -8.11193,-1.65751 -1.31302,-11.53779 4.60546,-7.87334 6.9339,1.03513 14.84218,3.02421 21.06589,-1.40131 z"
         style="opacity:1;fill:#3f9b38;fill-opacity:1;fill-rule:nonzero;stroke:none;stroke-width:3.09072;stroke-linecap:round;stroke-linejoin:round;stroke-miterlimit:4;stroke-dasharray:none;stroke-dashoffset:0;stroke-opacity:1;paint-order:markers stroke fill" />
      <path
         id="path4893"
         transform="matrix(0.26458333,0,0,0.26458333,0,-496.75002)"
         d="m 1557.6328,635.52734 c -0.34,0.006 -0.6796,0.0371 -1.0195,0.0527 -0.049,0.25369 -0.1145,0.50272 -0.1582,0.75781 -3.9001,16.75925 -13.6302,15.04978 -24.084,8.65234 -8.1071,6.37753 -14.1703,15.4594 -15.916,25.63477 -4.0122,17.24126 -14.1954,14.92531 -24.9883,8.07812 -2.487,9.12828 -6.207,17.71699 -13.1992,24.91993 -8.3321,5.92474 -17.4641,8.79825 -26.9473,9.87695 -2.4864,8.93666 -6.1919,17.34056 -13.0527,24.4082 -13.0365,9.26988 -28.0288,11.0895 -43.2656,10.20703 8.8918,12.648 5.0717,33.47289 -2.3536,47.01172 -15.0831,26.67156 -23.6265,65.15416 -0.7226,90.0586 37.1143,31.76579 89.8938,27.61384 135.0273,21.06445 59.221,-12.87424 119.559,-1.05357 179.1778,1.18164 32.2967,4.32733 65.2523,-6.65272 89.6425,-28.00195 11.6135,-14.57434 29.263,-15.24373 46.4825,-16.42969 -0.2027,-9.14327 -2.0262,-18.63939 -3.4864,-26.17773 1.4433,-20.82169 27.2181,-55.21173 -6.7519,-65.13477 -30.7272,-6.82753 -49.7485,27.96357 -79.125,28.83203 -26.9693,2.69654 -25.0033,-30.12591 -8.1367,-42.21484 23.011,-12.72662 25.8752,-43.38035 13.8105,-65.01758 -13.0932,-27.80776 -51.2696,-48.51078 -79.4414,-30.13086 -17.489,11.28317 -30.066,35.99761 -53.5586,33.88281 -25.9336,-7.0046 -26.1942,-40.47822 -46.6348,-54.3125 -6.478,-5.15331 -13.8897,-7.33017 -21.2988,-7.19922 z"
         style="opacity:1;fill:#327b2d;fill-opacity:1;fill-rule:nonzero;stroke:none;stroke-width:11.6814;stroke-linecap:round;stroke-linejoin:round;stroke-miterlimit:4;stroke-dasharray:none;stroke-dashoffset:0;stroke-opacity:1;paint-order:markers stroke fill"
         inkscape:connector-curvature="0" />
      <path
         id="path4895"
         transform="matrix(0.26458333,0,0,0.26458333,0,-496.75002)"
         d="m 1576.7891,757.06641 -0.9297,1.13086 c -12.4228,16.7015 -35.327,21.88648 -52.5508,26.45703 -14.6179,32.93831 -47.5735,55.07044 -82.1543,62.41992 -0.3876,19.50594 -14.6416,37.68935 -18.2617,55.91601 32.4951,11.6855 70.4017,8.14405 104.0605,3.25977 59.221,-12.87424 119.559,-1.05357 179.1778,1.18164 8.5292,1.1428 17.1036,1.20806 25.5546,0.30664 6.3018,-3.79439 12.3361,-8.06446 18.254,-12.14258 -46.6062,-9.1158 -69.0715,-64.58773 -52.4258,-106.66797 8.939,-15.13492 -3.6636,-4.31978 -11.9297,-1.97851 -37.4409,13.76262 -85.666,4.5689 -108.7949,-29.88281 z"
         style="opacity:1;fill:#2d7028;fill-opacity:1;fill-rule:nonzero;stroke:none;stroke-width:11.6814;stroke-linecap:round;stroke-linejoin:round;stroke-miterlimit:4;stroke-dasharray:none;stroke-dashoffset:0;stroke-opacity:1;paint-order:markers stroke fill"
         inkscape:connector-curvature="0" />
    </g>
    <g
       transform="matrix(-0.07859628,0.00313091,0.00313091,0.07859628,108.59557,-142.88833)"
       id="g5009">
      <path
         style="opacity:1;fill:#5a5a5a;fill-opacity:1;fill-rule:nonzero;stroke:none;stroke-width:6;stroke-linecap:round;stroke-linejoin:round;stroke-miterlimit:4;stroke-dasharray:none;stroke-dashoffset:0;stroke-opacity:1;paint-order:markers stroke fill"
         d="m 489.38284,-237.28144 16.63096,17.3869 33.26188,18.8988 29.48215,-2.26785 24.19049,-8.31547 -11.3393,-29.48215 -31.75,-15.875 -55.18452,3.02381 z"
         id="path5001"
         inkscape:connector-curvature="0" />
      <path
         inkscape:connector-curvature="0"
         style="opacity:1;fill:#797979;fill-opacity:1;fill-rule:nonzero;stroke:none;stroke-width:22.6772;stroke-linecap:round;stroke-linejoin:round;stroke-miterlimit:4;stroke-dasharray:none;stroke-dashoffset:0;stroke-opacity:1;paint-order:markers stroke fill"
         d="m 2078.207,906.38281 -208.5703,11.42774 -20,62.85742 25.9102,27.08983 92.2304,38.6074 101.0157,4.041 h 103.0351 l 41.166,-45.5781 -14.7871,-38.44529 z"
         transform="matrix(0.26458333,0,0,0.26458333,0,-496.75002)"
         id="path5003" />
      <path
         inkscape:connector-curvature="0"
         style="opacity:1;fill:#ffffff;fill-opacity:0.191919;fill-rule:nonzero;stroke:none;stroke-width:22.6772;stroke-linecap:round;stroke-linejoin:round;stroke-miterlimit:4;stroke-dasharray:none;stroke-dashoffset:0;stroke-opacity:1;paint-order:markers stroke fill"
         d="m 2065.2344,907.09375 -195.5977,10.7168 -20,62.85742 62.8555,65.71483 125.7148,71.4277 25.9375,-1.9941 36.9727,-83.5937 4.041,-66.66997 z"
         transform="matrix(0.26458333,0,0,0.26458333,0,-496.75002)"
         id="path5005" />
      <path
         inkscape:connector-curvature="0"
         style="opacity:1;fill:#ffffff;fill-opacity:0.10101;fill-rule:nonzero;stroke:none;stroke-width:22.6772;stroke-linecap:round;stroke-linejoin:round;stroke-miterlimit:4;stroke-dasharray:none;stroke-dashoffset:0;stroke-opacity:1;paint-order:markers stroke fill"
         d="m 1993.2266,911.03906 -123.5899,6.77149 -20,62.85742 62.8555,65.71483 44.289,25.1641 2.3067,-0.1778 36.9726,-83.59371 4.0411,-66.66992 z"
         transform="matrix(0.26458333,0,0,0.26458333,0,-496.75002)"
         id="path5007" />
    </g>
    <g
       transform="matrix(-0.06898558,0.00722617,0.00699721,0.0589872,93.482269,-145.9085)"
       id="g4976">
      <path
         style="opacity:1;fill:#3f9b38;fill-opacity:1;fill-rule:nonzero;stroke:none;stroke-width:3.76093;stroke-linecap:round;stroke-linejoin:round;stroke-miterlimit:4;stroke-dasharray:none;stroke-dashoffset:0;stroke-opacity:1;paint-order:markers stroke fill"
         d="m 245.91685,-257.90519 c -8.35521,-9.11093 6.31192,-16.14483 11.14399,-15.40681 3.74244,-11.85682 17.17699,-5.81194 25.72841,-8.10705 6.53171,-2.73705 9.49715,4.82039 10.45044,6.73763 6.69633,-3.58269 12.1615,-23.44635 19.31193,-8.9684 8.8466,12.33556 31.23036,23.40962 40.21614,16.41665 13.27748,-4.9858 21.35359,9.5768 20.96856,20.50614 7.3819,10.5555 24.78873,0.0238 31.13053,12.20893 3.89496,6.17031 -11.54753,17.49563 2.75628,16.41608 8.7495,-0.0236 22.70011,-10.32707 27.54998,1.02419 0.58496,17.67745 17.36874,3.02812 26.32097,2.35025 13.46181,-4.46502 22.24654,9.80571 23.30714,19.29853 9.99886,1.31719 26.03586,-13.38448 30.74859,2.19475 1.59597,11.97386 -12.9096,19.27129 -23.24996,17.45722 -14.63837,1.45931 -29.30293,-4.1362 -40.56429,-13.3103 -17.27001,-6.82096 -32.70685,8.24624 -49.74066,8.4902 -35.6293,2.49176 -78.43135,-32.43895 -113.56127,-21.3018 -16.71042,4.35286 -36.15805,10.25753 -52.04299,0.305 -12.39436,-9.06541 -17.16298,-27.91867 -8.89292,-41.22779 6.64855,-5.04431 27.30356,7.01378 22.22316,-8.22154 -1.47841,-2.14744 -3.29605,-4.21676 -3.80403,-6.86188 z"
         id="path4970"
         inkscape:connector-curvature="0"
         sodipodi:nodetypes="ccccccccccccccccccccc" />
      <path
         style="opacity:1;fill:#327b2d;fill-opacity:1;fill-rule:nonzero;stroke:none;stroke-width:3.76093;stroke-linecap:round;stroke-linejoin:round;stroke-miterlimit:4;stroke-dasharray:none;stroke-dashoffset:0;stroke-opacity:1;paint-order:markers stroke fill"
         d="m 340.71688,-283.6105 c -4.98615,3.19954 -10.86366,5.96731 -16.35715,6.05906 -5.38908,3.24604 -10.79738,6.0873 -17.13899,3.67161 -2.56635,-1.95508 -5.85481,-4.27598 -9.2325,-5.63222 -1.5376,2.09114 -3.10584,3.95182 -4.74856,4.83072 -0.50739,-1.02049 -1.58509,-3.63895 -3.46697,-5.45238 -1.58133,0.59515 -3.04943,1.73297 -4.31964,3.59202 -1.64663,1.36698 -3.50755,6.98487 -5.57641,3.34347 -4.30107,-4.26953 -10.81635,-5.01252 -16.369,-3.46284 -1.56044,-0.15487 -3.1587,-0.19767 -4.75581,-0.11885 -0.68045,0.93951 -1.25269,2.07985 -1.69084,3.468 -4.83206,-0.73802 -19.49924,6.29588 -11.14402,15.40681 0.50798,2.64512 2.32548,4.71416 3.80389,6.8616 3.77238,11.31276 -6.64287,7.58003 -14.97891,6.97167 0.58693,1.57362 0.74544,3.19596 -0.045,4.89944 -2.78992,0.4352 -5.94928,0.14465 -9.0878,-0.001 -5.47706,12.91714 -0.51787,29.31527 10.78124,37.57961 15.88495,9.95254 35.33294,4.04747 52.04333,-0.3054 35.12992,-11.13716 77.9319,23.79361 113.56119,21.30187 17.03382,-0.24398 32.47062,-15.31088 49.74063,-8.48993 11.26136,9.17409 25.92607,14.7696 40.56446,13.31029 3.32177,0.58277 7.07168,0.22061 10.58127,-0.93017 5.72866,-8.48582 -3.12232,-22.80248 -13.57333,-18.68672 -5.18668,0.59372 -9.58856,4.39377 -14.90607,4.18166 -3.23601,-10.2992 -12.2817,-21.78607 -24.23935,-19.62464 -2.91407,1.21129 -5.78724,2.27582 -8.22688,2.42931 -5.20414,2.2466 -10.29457,5.03002 -15.82489,3.38274 -1.69251,-7.09757 -7.77774,-14.98683 -15.99022,-12.38891 -6.33844,0.77784 -12.51109,5.40139 -18.98645,3.01997 2.18215,-6.29167 4.79462,-15.35642 -2.52748,-19.43964 -7.18021,-5.57509 -17.71558,-0.4627 -24.63882,-6.28695 -2.10625,-9.19605 -12.53436,-42.22168 -23.25094,-43.49017 z"
         id="path4972"
         inkscape:connector-curvature="0"
         sodipodi:nodetypes="ccccccccccccccccccccccccccccccccc" />
      <path
         style="opacity:1;fill:#2d7028;fill-opacity:1;fill-rule:nonzero;stroke:none;stroke-width:3.76093;stroke-linecap:round;stroke-linejoin:round;stroke-miterlimit:4;stroke-dasharray:none;stroke-dashoffset:0;stroke-opacity:1;paint-order:markers stroke fill"
         d="m 342.10491,-256.69432 c -10.66379,4.14163 -22.59406,8.87427 -34.08423,4.25969 -8.56832,-4.35052 -17.02086,8.6524 -25.47646,2.82619 -8.25736,-6.98486 -23.51911,-6.25937 -27.75956,4.87877 -2.74833,5.50518 0.6032,11.24483 0.33952,16.74626 -1.22182,8.38172 -9.98787,13.5204 -17.87488,11.86697 -4.18539,1.09884 -6.57006,4.27524 -7.37526,7.97832 1.83348,2.49484 4.01994,4.71837 6.51639,6.54431 15.88495,9.95254 35.33294,4.04747 52.04333,-0.3054 34.01243,-10.78289 75.64103,22.87741 110.15986,21.4884 1.79213,-6.07865 -3.64998,-13.10809 -9.62421,-14.88385 -4.15214,-5.54373 -1.46021,-16.23051 -9.90846,-18.35339 -9.17732,-1.82886 -19.62976,-6.33135 -21.34754,-16.7013 -1.59509,-3.42 -11.6566,-26.43774 -15.6085,-26.34497 z m 116.68349,64.47545 c -2.87703,0.0462 -5.12001,1.43009 -6.63216,3.46696 5.59705,4.48231 12.01058,8.08353 18.83191,10.38543 0.49932,-1.65246 0.53081,-3.47972 -0.0853,-5.38314 -0.94067,-5.1535 -6.06076,-8.67933 -11.16986,-8.43772 -0.32205,-0.0265 -0.63696,-0.0365 -0.94464,-0.0315 z"
         id="path4974"
         inkscape:connector-curvature="0"
         sodipodi:nodetypes="ccccccccccccccccccccc" />
    </g>
  </g>
</svg>
