<?xml version="1.0" encoding="UTF-8" standalone="no"?>
<!-- Created with Inkscape (http://www.inkscape.org/) -->

<svg
   width="300"
   height="256"
   viewBox="0 0 79.375 67.733334"
   version="1.1"
   id="svg1"
   inkscape:version="1.4 (86a8ad7, 2024-10-11)"
   sodipodi:docname="satellite.svg"
   xml:space="preserve"
   inkscape:export-filename="how-many-satellites-are-above-you.png"
   inkscape:export-xdpi="96"
   inkscape:export-ydpi="96"
   xmlns:inkscape="http://www.inkscape.org/namespaces/inkscape"
   xmlns:sodipodi="http://sodipodi.sourceforge.net/DTD/sodipodi-0.dtd"
   xmlns:xlink="http://www.w3.org/1999/xlink"
   xmlns="http://www.w3.org/2000/svg"
   xmlns:svg="http://www.w3.org/2000/svg"><sodipodi:namedview
     id="namedview1"
     pagecolor="#000000"
     bordercolor="#ffffff"
     borderopacity="1"
     inkscape:showpageshadow="0"
     inkscape:pageopacity="0"
     inkscape:pagecheckerboard="true"
     inkscape:deskcolor="#505050"
     inkscape:document-units="mm"
     showgrid="true"
     inkscape:zoom="2.3749804"
     inkscape:cx="260.21267"
     inkscape:cy="148.84333"
     inkscape:window-width="3440"
     inkscape:window-height="1377"
     inkscape:window-x="-8"
     inkscape:window-y="-8"
     inkscape:window-maximized="1"
     inkscape:current-layer="layer1"
     inkscape:export-bgcolor="#00000000"><inkscape:grid
       id="grid1"
       units="px"
       originx="0"
       originy="0"
       spacingx="13.229167"
       spacingy="3.3072914"
       empcolor="#ffffff"
       empopacity="0.01960784"
       color="#0099e5"
       opacity="0.14901961"
       empspacing="1"
       enabled="false"
       visible="true"
       dotted="true" /></sodipodi:namedview><defs
     id="defs1"><linearGradient
       id="linearGradient26"
       inkscape:collect="always"><stop
         style="stop-color:#1988ff;stop-opacity:1;"
         offset="0"
         id="stop26" /><stop
         style="stop-color:#1988ff;stop-opacity:0;"
         offset="1"
         id="stop27" /></linearGradient><rect
       x="72.438164"
       y="327.73853"
       width="141.34276"
       height="39.752651"
       id="rect18" /><rect
       x="46.81979"
       y="452.29681"
       width="0"
       height="0"
       id="rect17" /><rect
       x="93.622917"
       y="21.017389"
       width="1137.1541"
       height="111.90165"
       id="rect2" /><marker
       inkscape:stockid="DotS"
       orient="auto"
       refY="0"
       refX="0"
       id="marker1488"
       style="overflow:visible"
       inkscape:isstock="true"><path
         id="path1486"
         d="m -2.5,-1 c 0,2.76 -2.24,5 -5,5 -2.76,0 -5,-2.24 -5,-5 0,-2.76 2.24,-5 5,-5 2.76,0 5,2.24 5,5 z"
         style="fill:#000000;fill-opacity:1;fill-rule:evenodd;stroke:#000000;stroke-width:1pt;stroke-opacity:1"
         transform="matrix(0.2,0,0,0.2,1.48,0.2)" /></marker><marker
       inkscape:stockid="DotS"
       orient="auto"
       refY="0"
       refX="0"
       id="marker1424"
       style="overflow:visible"
       inkscape:isstock="true"><path
         id="path1422"
         d="m -2.5,-1 c 0,2.76 -2.24,5 -5,5 -2.76,0 -5,-2.24 -5,-5 0,-2.76 2.24,-5 5,-5 2.76,0 5,2.24 5,5 z"
         style="fill:#000000;fill-opacity:1;fill-rule:evenodd;stroke:#000000;stroke-width:1pt;stroke-opacity:1"
         transform="matrix(0.2,0,0,0.2,1.48,0.2)" /></marker><marker
       inkscape:stockid="DotS"
       orient="auto"
       refY="0"
       refX="0"
       id="DotS"
       style="overflow:visible"
       inkscape:isstock="true"><path
         id="path963"
         d="m -2.5,-1 c 0,2.76 -2.24,5 -5,5 -2.76,0 -5,-2.24 -5,-5 0,-2.76 2.24,-5 5,-5 2.76,0 5,2.24 5,5 z"
         style="fill:#000000;fill-opacity:1;fill-rule:evenodd;stroke:#000000;stroke-width:1pt;stroke-opacity:1"
         transform="matrix(0.2,0,0,0.2,1.48,0.2)" /></marker><marker
       inkscape:stockid="Arrow1Sstart"
       orient="auto"
       refY="0"
       refX="0"
       id="Arrow1Sstart"
       style="overflow:visible"
       inkscape:isstock="true"><path
         id="path908"
         d="M 0,0 5,-5 -12.5,0 5,5 Z"
         style="fill:#000000;fill-opacity:1;fill-rule:evenodd;stroke:#000000;stroke-width:1pt;stroke-opacity:1"
         transform="matrix(0.2,0,0,0.2,1.2,0)" /></marker><marker
       inkscape:stockid="Arrow1Send"
       orient="auto"
       refY="0"
       refX="0"
       id="Arrow1Send"
       style="overflow:visible"
       inkscape:isstock="true"><path
         id="path911"
         d="M 0,0 5,-5 -12.5,0 5,5 Z"
         style="fill:#000000;fill-opacity:1;fill-rule:evenodd;stroke:#000000;stroke-width:1pt;stroke-opacity:1"
         transform="matrix(-0.2,0,0,-0.2,-1.2,0)" /></marker><marker
       inkscape:stockid="Arrow2Sstart"
       orient="auto"
       refY="0"
       refX="0"
       id="Arrow2Sstart"
       style="overflow:visible"
       inkscape:isstock="true"><path
         id="path926"
         style="fill:#000000;fill-opacity:1;fill-rule:evenodd;stroke:#000000;stroke-width:0.625;stroke-linejoin:round;stroke-opacity:1"
         d="M 8.7185878,4.0337352 -2.2072895,0.01601326 8.7185884,-4.0017078 c -1.7454984,2.3720609 -1.7354408,5.6174519 -6e-7,8.035443 z"
         transform="matrix(0.3,0,0,0.3,-0.69,0)" /></marker><marker
       inkscape:stockid="Club"
       orient="auto"
       refY="0"
       refX="0"
       id="Club"
       style="overflow:visible"
       inkscape:isstock="true"><path
         id="path1125"
         d="m -1.5971367,-7.0977635 c -1.8892507,0 -3.426382,1.5371314 -3.426382,3.4263822 0,0.6566798 0.2383531,1.2269257 0.5594092,1.7481542 -0.038751,0.032111 -0.079672,0.058463 -0.1165436,0.093235 -0.6224234,-0.8549928 -1.5893983,-1.4451409 -2.7271199,-1.4451409 -1.8892515,-1e-7 -3.426382,1.5371314 -3.426382,3.42638214 0,1.88925076 1.5371305,3.42638216 3.426382,3.42638216 0.9934462,0 1.868619,-0.4420611 2.4940326,-1.1188187 -0.124687,0.3548915 -0.2097783,0.7214874 -0.2097783,1.1188187 0,1.8892506 1.5371313,3.4263822 3.426382,3.4263822 1.88925064,0 3.4263821,-1.5371316 3.4263821,-3.4263822 0,-0.7933959 -0.3155586,-1.4938285 -0.7691878,-2.0744763 C 2.4152718,1.7663868 3.7718375,2.2973711 4.7661444,3.8340272 4.0279463,3.0958289 3.5540908,1.7534117 3.5540908,-0.05852936 l -0.6293354,-0.04661745 0.5827179,-0.0233087 c 0,-1.81194109 0.4505466,-3.15435829 1.188745,-3.89255659 -0.9590906,1.4822308 -2.2571634,2.0263625 -3.5662345,2.3075635 0.4041964,-0.5619092 0.6992616,-1.213407 0.6992616,-1.9579327 0,-1.8892506 -1.53713146,-3.4263822 -3.4263821,-3.4263822 z"
         style="fill:#000000;fill-opacity:1;fill-rule:evenodd;stroke:#000000;stroke-width:0.745879pt;stroke-opacity:1"
         transform="scale(0.6)" /></marker><marker
       inkscape:stockid="DotL"
       orient="auto"
       refY="0"
       refX="0"
       id="DotL"
       style="overflow:visible"
       inkscape:isstock="true"><path
         id="path957"
         d="m -2.5,-1 c 0,2.76 -2.24,5 -5,5 -2.76,0 -5,-2.24 -5,-5 0,-2.76 2.24,-5 5,-5 2.76,0 5,2.24 5,5 z"
         style="fill:#000000;fill-opacity:1;fill-rule:evenodd;stroke:#000000;stroke-width:1pt;stroke-opacity:1"
         transform="matrix(0.8,0,0,0.8,5.92,0.8)" /></marker><inkscape:perspective
       sodipodi:type="inkscape:persp3d"
       inkscape:vp_x="0 : -302.68335 : 1"
       inkscape:vp_y="0 : 1000.0001 : 0"
       inkscape:vp_z="529.16667 : -302.68335 : 1"
       inkscape:persp3d-origin="264.58334 : -390.87779 : 1"
       id="perspective863" /><marker
       inkscape:stockid="DotS"
       orient="auto"
       refY="0"
       refX="0"
       id="marker1488-4"
       style="overflow:visible"
       inkscape:isstock="true"><path
         id="path1486-8"
         d="m -2.5,-1 c 0,2.76 -2.24,5 -5,5 -2.76,0 -5,-2.24 -5,-5 0,-2.76 2.24,-5 5,-5 2.76,0 5,2.24 5,5 z"
         style="fill:#000000;fill-opacity:1;fill-rule:evenodd;stroke:#000000;stroke-width:1pt;stroke-opacity:1"
         transform="matrix(0.2,0,0,0.2,1.48,0.2)" /></marker><marker
       inkscape:stockid="DotS"
       orient="auto"
       refY="0"
       refX="0"
       id="marker1424-8"
       style="overflow:visible"
       inkscape:isstock="true"><path
         id="path1422-2"
         d="m -2.5,-1 c 0,2.76 -2.24,5 -5,5 -2.76,0 -5,-2.24 -5,-5 0,-2.76 2.24,-5 5,-5 2.76,0 5,2.24 5,5 z"
         style="fill:#000000;fill-opacity:1;fill-rule:evenodd;stroke:#000000;stroke-width:1pt;stroke-opacity:1"
         transform="matrix(0.2,0,0,0.2,1.48,0.2)" /></marker><marker
       inkscape:stockid="DotS"
       orient="auto"
       refY="0"
       refX="0"
       id="DotS-4"
       style="overflow:visible"
       inkscape:isstock="true"><path
         id="path963-5"
         d="m -2.5,-1 c 0,2.76 -2.24,5 -5,5 -2.76,0 -5,-2.24 -5,-5 0,-2.76 2.24,-5 5,-5 2.76,0 5,2.24 5,5 z"
         style="fill:#000000;fill-opacity:1;fill-rule:evenodd;stroke:#000000;stroke-width:1pt;stroke-opacity:1"
         transform="matrix(0.2,0,0,0.2,1.48,0.2)" /></marker><marker
       inkscape:stockid="Arrow1Sstart"
       orient="auto"
       refY="0"
       refX="0"
       id="Arrow1Sstart-5"
       style="overflow:visible"
       inkscape:isstock="true"><path
         id="path908-1"
         d="M 0,0 5,-5 -12.5,0 5,5 Z"
         style="fill:#000000;fill-opacity:1;fill-rule:evenodd;stroke:#000000;stroke-width:1pt;stroke-opacity:1"
         transform="matrix(0.2,0,0,0.2,1.2,0)" /></marker><marker
       inkscape:stockid="Arrow1Send"
       orient="auto"
       refY="0"
       refX="0"
       id="Arrow1Send-7"
       style="overflow:visible"
       inkscape:isstock="true"><path
         id="path911-1"
         d="M 0,0 5,-5 -12.5,0 5,5 Z"
         style="fill:#000000;fill-opacity:1;fill-rule:evenodd;stroke:#000000;stroke-width:1pt;stroke-opacity:1"
         transform="matrix(-0.2,0,0,-0.2,-1.2,0)" /></marker><marker
       inkscape:stockid="Arrow2Sstart"
       orient="auto"
       refY="0"
       refX="0"
       id="Arrow2Sstart-1"
       style="overflow:visible"
       inkscape:isstock="true"><path
         id="path926-5"
         style="fill:#000000;fill-opacity:1;fill-rule:evenodd;stroke:#000000;stroke-width:0.625;stroke-linejoin:round;stroke-opacity:1"
         d="M 8.7185878,4.0337352 -2.2072895,0.01601326 8.7185884,-4.0017078 c -1.7454984,2.3720609 -1.7354408,5.6174519 -6e-7,8.035443 z"
         transform="matrix(0.3,0,0,0.3,-0.69,0)" /></marker><marker
       inkscape:stockid="Club"
       orient="auto"
       refY="0"
       refX="0"
       id="Club-2"
       style="overflow:visible"
       inkscape:isstock="true"><path
         id="path1125-7"
         d="m -1.5971367,-7.0977635 c -1.8892507,0 -3.426382,1.5371314 -3.426382,3.4263822 0,0.6566798 0.2383531,1.2269257 0.5594092,1.7481542 -0.038751,0.032111 -0.079672,0.058463 -0.1165436,0.093235 -0.6224234,-0.8549928 -1.5893983,-1.4451409 -2.7271199,-1.4451409 -1.8892515,-1e-7 -3.426382,1.5371314 -3.426382,3.42638214 0,1.88925076 1.5371305,3.42638216 3.426382,3.42638216 0.9934462,0 1.868619,-0.4420611 2.4940326,-1.1188187 -0.124687,0.3548915 -0.2097783,0.7214874 -0.2097783,1.1188187 0,1.8892506 1.5371313,3.4263822 3.426382,3.4263822 1.88925064,0 3.4263821,-1.5371316 3.4263821,-3.4263822 0,-0.7933959 -0.3155586,-1.4938285 -0.7691878,-2.0744763 C 2.4152718,1.7663868 3.7718375,2.2973711 4.7661444,3.8340272 4.0279463,3.0958289 3.5540908,1.7534117 3.5540908,-0.05852936 l -0.6293354,-0.04661745 0.5827179,-0.0233087 c 0,-1.81194109 0.4505466,-3.15435829 1.188745,-3.89255659 -0.9590906,1.4822308 -2.2571634,2.0263625 -3.5662345,2.3075635 0.4041964,-0.5619092 0.6992616,-1.213407 0.6992616,-1.9579327 0,-1.8892506 -1.53713146,-3.4263822 -3.4263821,-3.4263822 z"
         style="fill:#000000;fill-opacity:1;fill-rule:evenodd;stroke:#000000;stroke-width:0.745879pt;stroke-opacity:1"
         transform="scale(0.6)" /></marker><marker
       inkscape:stockid="DotL"
       orient="auto"
       refY="0"
       refX="0"
       id="DotL-6"
       style="overflow:visible"
       inkscape:isstock="true"><path
         id="path957-1"
         d="m -2.5,-1 c 0,2.76 -2.24,5 -5,5 -2.76,0 -5,-2.24 -5,-5 0,-2.76 2.24,-5 5,-5 2.76,0 5,2.24 5,5 z"
         style="fill:#000000;fill-opacity:1;fill-rule:evenodd;stroke:#000000;stroke-width:1pt;stroke-opacity:1"
         transform="matrix(0.8,0,0,0.8,5.92,0.8)" /></marker><inkscape:perspective
       sodipodi:type="inkscape:persp3d"
       inkscape:vp_x="0 : -396.61044 : 1"
       inkscape:vp_y="0 : 1000.0001 : 0"
       inkscape:vp_z="529.16667 : -396.61044 : 1"
       inkscape:persp3d-origin="264.58334 : -484.80489 : 1"
       id="perspective863-4" /><rect
       x="72.438164"
       y="327.73853"
       width="141.34276"
       height="39.752651"
       id="rect21" /><rect
       x="72.438164"
       y="327.73853"
       width="141.34276"
       height="39.752651"
       id="rect22" /><rect
       x="72.438164"
       y="327.73853"
       width="141.34276"
       height="39.752651"
       id="rect23" /><rect
       x="72.438164"
       y="327.73853"
       width="141.34276"
       height="39.752651"
       id="rect24" /><rect
       x="72.438164"
       y="327.73853"
       width="141.34276"
       height="39.752651"
       id="rect25" /><rect
       x="72.438164"
       y="327.73853"
       width="141.34276"
       height="39.752651"
       id="rect30" /><rect
       x="72.438164"
       y="327.73853"
       width="141.34276"
       height="39.752651"
       id="rect31" /><rect
       x="72.438164"
       y="327.73853"
       width="141.34276"
       height="39.752651"
       id="rect32" /><rect
       x="72.438164"
       y="327.73853"
       width="141.34276"
       height="39.752651"
       id="rect33" /><rect
       x="72.438164"
       y="327.73853"
       width="141.34276"
       height="39.752651"
       id="rect34" /><rect
       x="72.438164"
       y="327.73853"
       width="130.39529"
       height="97.016281"
       id="rect35" /><rect
       x="72.438164"
       y="327.73853"
       width="135.44797"
       height="123.76374"
       id="rect36" /><rect
       x="72.438164"
       y="327.73853"
       width="130.39529"
       height="97.016281"
       id="rect37" /><rect
       x="72.438164"
       y="327.73853"
       width="135.44797"
       height="123.76374"
       id="rect38" /><rect
       x="72.438164"
       y="327.73853"
       width="135.44797"
       height="123.76374"
       id="rect39" /><rect
       x="72.438164"
       y="327.73853"
       width="135.44797"
       height="123.76374"
       id="rect40" /><rect
       x="72.438164"
       y="327.73853"
       width="135.44797"
       height="123.76374"
       id="rect41" /><rect
       x="93.622917"
       y="21.017389"
       width="1047.0481"
       height="127.05967"
       id="rect42" /><inkscape:path-effect
       effect="mirror_symmetry"
       start_point="1500,0"
       end_point="1500,3000"
       center_point="1500,1500"
       id="path-effect865"
       is_visible="true"
       mode="vertical"
       discard_orig_path="false"
       fuse_paths="false"
       oposite_fuse="false"
       lpeversion="0"
       lpesatellites=""
       split_items="false"
       split_open="false"
       link_styles="false" /><inkscape:path-effect
       effect="mirror_symmetry"
       start_point="396.875,-496.75002"
       end_point="396.875,296.99998"
       center_point="396.875,-99.87502"
       id="path-effect854"
       is_visible="true"
       mode="vertical"
       discard_orig_path="false"
       fuse_paths="false"
       oposite_fuse="false"
       lpeversion="0"
       lpesatellites=""
       split_items="false"
       split_open="false"
       link_styles="false" /><inkscape:path-effect
       effect="mirror_symmetry"
       start_point="396.875,-496.75002"
       end_point="396.875,296.99998"
       center_point="396.875,-99.87502"
       id="path-effect843"
       is_visible="true"
       mode="vertical"
       discard_orig_path="false"
       fuse_paths="false"
       oposite_fuse="false"
       lpeversion="0"
       lpesatellites=""
       split_items="false"
       split_open="false"
       link_styles="false" /><linearGradient
       inkscape:collect="always"
       xlink:href="#linearGradient26"
       id="linearGradient27"
       x1="107.61668"
       y1="72.190071"
       x2="129.04564"
       y2="149.90392"
       gradientUnits="userSpaceOnUse"
       gradientTransform="matrix(0.59792347,0,0,0.59792347,-47.811844,-27.917964)" /><linearGradient
       inkscape:collect="always"
       xlink:href="#linearGradient26"
       id="linearGradient28"
       gradientUnits="userSpaceOnUse"
       gradientTransform="matrix(0.61245384,0.2591574,-0.2591574,0.61245384,15.088172,-60.145905)"
       x1="107.61668"
       y1="72.190071"
       x2="127.31052"
       y2="146.98776" /><linearGradient
       inkscape:collect="always"
       xlink:href="#linearGradient26"
       id="linearGradient29"
       gradientUnits="userSpaceOnUse"
       gradientTransform="matrix(0.41547334,0.1053504,-0.1053504,0.41547334,7.1865615,-30.119466)"
       x1="107.61668"
       y1="72.190071"
       x2="129.8622"
       y2="147.96051" /></defs><g
     inkscape:label="Layer 1"
     inkscape:groupmode="layer"
     id="layer1"><g
       id="g19"
       transform="matrix(0.00297691,0.1296181,-0.1296181,0.00297691,59.952405,-8.3219007)"
       style="opacity:0.464039"><rect
         style="fill:#1988ff;fill-opacity:1;stroke-width:15;stroke-linejoin:round;paint-order:markers stroke fill"
         id="rect10"
         width="34.358391"
         height="138.92033"
         x="106.27982"
         y="51.302242"
         ry="3.623642" /><rect
         style="fill:#19cfff;fill-opacity:1;stroke-width:15;stroke-linejoin:round;paint-order:markers stroke fill"
         id="rect11"
         width="23.789999"
         height="33.242977"
         x="98.303818"
         y="104.14092"
         ry="3.623642" /><path
         id="path14"
         style="fill:#ffffff;stroke-width:15;stroke-linejoin:round;paint-order:markers stroke fill"
         d="m 167.55226,120.76241 c 0,22.51887 -6.08505,40.77402 -13.59134,40.77402 -7.50629,0 -33.42133,-18.25515 -33.42133,-40.77402 0,-22.518868 25.91504,-40.774016 33.42133,-40.774018 7.50629,2e-6 13.59134,18.25515 13.59134,40.774018 z"
         sodipodi:nodetypes="sssss" /><path
         id="path17"
         style="fill:#19cfff;fill-opacity:1;stroke-width:14.4476;stroke-linejoin:round;paint-order:markers stroke fill"
         d="m 166.84329,120.76241 a 12.882368,39.907498 0 0 1 -12.88237,39.9075 12.882368,39.907498 0 0 1 -12.88237,-39.9075 12.882368,39.907498 0 0 1 12.88237,-39.907495 12.882368,39.907498 0 0 1 12.88237,39.907495 z" /><rect
         style="fill:#ffffff;fill-opacity:1;stroke-width:15;stroke-linejoin:round;paint-order:markers stroke fill"
         id="rect19"
         width="20.336464"
         height="31.349098"
         x="98.303818"
         y="104.14092"
         ry="3.623642" /></g><path
       id="path28"
       style="opacity:0.182266;fill:url(#linearGradient29);fill-opacity:1;stroke-width:4.25851;stroke-linejoin:round;paint-order:markers stroke fill"
       d="m 43.512952,11.927872 c 0.559069,-0.560547 1.799024,-0.585752 2.276998,-0.03067 l 9.011334,31.446243 c -1.436253,4.586476 -17.321207,4.827972 -20.240035,0.272568 z"
       sodipodi:nodetypes="ccccc" /><g
       id="g4"
       transform="matrix(0.05304539,0.19796813,-0.19796813,0.05304539,33.213323,-20.251384)"><rect
         style="fill:#1988ff;fill-opacity:1;stroke-width:15;stroke-linejoin:round;paint-order:markers stroke fill"
         id="rect4"
         width="34.358391"
         height="138.92033"
         x="106.27982"
         y="51.302242"
         ry="3.623642" /><rect
         style="fill:#19cfff;fill-opacity:1;stroke-width:15;stroke-linejoin:round;paint-order:markers stroke fill"
         id="rect1"
         width="23.789999"
         height="33.242977"
         x="98.303818"
         y="104.14092"
         ry="3.623642" /><path
         id="path1"
         style="fill:#ffffff;stroke-width:15;stroke-linejoin:round;paint-order:markers stroke fill"
         d="m 167.55226,120.76241 c 0,22.51887 -6.08505,40.77402 -13.59134,40.77402 -7.50629,0 -33.42133,-18.25515 -33.42133,-40.77402 0,-22.518868 25.91504,-40.774016 33.42133,-40.774018 7.50629,2e-6 13.59134,18.25515 13.59134,40.774018 z"
         sodipodi:nodetypes="sssss" /><path
         id="ellipse1"
         style="fill:#19cfff;fill-opacity:1;stroke-width:14.4476;stroke-linejoin:round;paint-order:markers stroke fill"
         d="m 166.84329,120.76241 a 12.882368,39.907498 0 0 1 -12.88237,39.9075 12.882368,39.907498 0 0 1 -12.88237,-39.9075 12.882368,39.907498 0 0 1 12.88237,-39.907495 12.882368,39.907498 0 0 1 12.88237,39.907495 z" /><rect
         style="fill:#ffffff;fill-opacity:1;stroke-width:15;stroke-linejoin:round;paint-order:markers stroke fill"
         id="rect3"
         width="20.336464"
         height="31.349098"
         x="98.303818"
         y="104.14092"
         ry="3.623642" /></g><g
       id="g9"
       transform="matrix(-0.02578144,0.20332366,-0.20332366,-0.02578144,91.273895,-14.877408)"><rect
         style="fill:#1988ff;fill-opacity:1;stroke-width:15;stroke-linejoin:round;paint-order:markers stroke fill"
         id="rect5"
         width="34.358391"
         height="138.92033"
         x="106.27982"
         y="51.302242"
         ry="3.623642" /><rect
         style="fill:#19cfff;fill-opacity:1;stroke-width:15;stroke-linejoin:round;paint-order:markers stroke fill"
         id="rect6"
         width="23.789999"
         height="33.242977"
         x="98.303818"
         y="104.14092"
         ry="3.623642" /><path
         id="path8"
         style="fill:#ffffff;stroke-width:15;stroke-linejoin:round;paint-order:markers stroke fill"
         d="m 167.55226,120.76241 c 0,22.51887 -6.08505,40.77402 -13.59134,40.77402 -7.50629,0 -33.42133,-18.25515 -33.42133,-40.77402 0,-22.518868 25.91504,-40.774016 33.42133,-40.774018 7.50629,2e-6 13.59134,18.25515 13.59134,40.774018 z"
         sodipodi:nodetypes="sssss" /><path
         id="path9"
         style="fill:#19cfff;fill-opacity:1;stroke-width:14.4476;stroke-linejoin:round;paint-order:markers stroke fill"
         d="m 166.84329,120.76241 a 12.882368,39.907498 0 0 1 -12.88237,39.9075 12.882368,39.907498 0 0 1 -12.88237,-39.9075 12.882368,39.907498 0 0 1 12.88237,-39.907495 12.882368,39.907498 0 0 1 12.88237,39.907495 z" /><rect
         style="fill:#ffffff;fill-opacity:1;stroke-width:15;stroke-linejoin:round;paint-order:markers stroke fill"
         id="rect9"
         width="20.336464"
         height="31.349098"
         x="98.303818"
         y="104.14092"
         ry="3.623642" /></g><path
       id="rect20"
       style="opacity:0.621675;fill:url(#linearGradient27);fill-opacity:1;stroke-width:5.94061;stroke-linejoin:round;paint-order:markers stroke fill"
       d="m 15.725457,16.48299 c 0.563796,-0.949671 2.23181,-1.40889 3.068441,-0.822189 l 23.198748,41.123676 c -0.369515,6.694254 -21.766299,12.467328 -27.27505,7.30833 z"
       sodipodi:nodetypes="ccccc" /><path
       id="path27"
       style="opacity:0.621675;fill:url(#linearGradient28);fill-opacity:1;stroke-width:6.6073;stroke-linejoin:round;paint-order:markers stroke fill"
       d="m 60.92486,12.872962 c 0.989111,-0.728382 2.896712,-0.475797 3.499367,0.487785 l 7.075611,47.69007 C 68.219839,67.747588 43.800874,64.38697 40.394303,56.714938 Z"
       sodipodi:nodetypes="ccccc" /></g></svg>
