<?xml version="1.0" encoding="UTF-8" standalone="no"?>
<!-- Created with Inkscape (http://www.inkscape.org/) -->

<svg
   width="128"
   height="128"
   viewBox="0 0 33.866666 33.866666"
   version="1.1"
   id="svg1"
   xml:space="preserve"
   inkscape:version="1.4 (86a8ad7, 2024-10-11)"
   sodipodi:docname="security-camera.svg"
   xmlns:inkscape="http://www.inkscape.org/namespaces/inkscape"
   xmlns:sodipodi="http://sodipodi.sourceforge.net/DTD/sodipodi-0.dtd"
   xmlns="http://www.w3.org/2000/svg"
   xmlns:svg="http://www.w3.org/2000/svg"><sodipodi:namedview
     id="namedview1"
     pagecolor="#505050"
     bordercolor="#ffffff"
     borderopacity="1"
     inkscape:showpageshadow="0"
     inkscape:pageopacity="0"
     inkscape:pagecheckerboard="1"
     inkscape:deskcolor="#505050"
     inkscape:document-units="mm"
     inkscape:zoom="4.528"
     inkscape:cx="148.52032"
     inkscape:cy="59.518551"
     inkscape:window-width="3440"
     inkscape:window-height="1377"
     inkscape:window-x="-8"
     inkscape:window-y="-8"
     inkscape:window-maximized="1"
     inkscape:current-layer="layer1" /><defs
     id="defs1" /><g
     inkscape:label="Layer 1"
     inkscape:groupmode="layer"
     id="layer1"><path
       style="opacity:1;fill:#f8f8f8;fill-opacity:1;stroke-width:0.133575;stroke-linecap:round;stroke-linejoin:round;paint-order:markers stroke fill"
       d="m 33.04574,22.509044 c 0.102029,-1.721696 -0.663172,-2.601674 -1.951257,-2.601674 -1.288085,0 -3.532668,0 -4.616697,0 -1.084033,0 -1.912997,0.522885 -1.861984,1.759955 0.05101,1.237073 0.765199,9.01659 0.854471,10.113374 0.08928,1.096785 0.80346,1.58141 1.415618,1.58141 0.61216,0 2.805727,0 3.736718,0 0.930992,0 1.568658,-0.369845 1.632423,-1.35185 0.06377,-0.982004 0.790708,-9.501215 0.790708,-9.501215 z"
       id="path21" /><path
       style="opacity:1;fill:#dcdcdc;fill-opacity:1;stroke-width:0.133575;stroke-linecap:round;stroke-linejoin:round;paint-order:markers stroke fill"
       d="m 32.504663,22.509044 c 0.102029,-1.721696 -0.66317,-2.601674 -1.951256,-2.601674 -1.288085,0 -3.532668,0 -4.616697,0 -1.084032,0 -1.912997,0.522885 -1.861984,1.759955 0.05101,1.237073 0.765199,9.01659 0.854472,10.113374 0.08928,1.096785 0.803459,1.58141 1.415618,1.58141 0.612158,0 2.805725,0 3.736718,0 0.930991,0 1.568658,-0.369845 1.632423,-1.35185 0.06377,-0.982004 0.790706,-9.501215 0.790706,-9.501215 z"
       id="path17" /><path
       style="opacity:1;fill:#ebebeb;fill-opacity:1;stroke-width:0.121413;stroke-linecap:round;stroke-linejoin:round;paint-order:markers stroke fill"
       d="m 32.033806,22.797053 c 0.09062,-1.601513 -0.589026,-2.420059 -1.733104,-2.420059 -1.144072,0 -3.137709,0 -4.100541,0 -0.962838,0 -1.699123,0.486381 -1.653812,1.637095 0.0453,1.150715 0.679648,8.38716 0.758939,9.407382 0.0793,1.020219 0.713634,1.471014 1.257349,1.471014 0.543719,0 2.492044,0 3.318951,0 0.826903,0 1.393279,-0.344027 1.449913,-1.257477 0.05664,-0.913456 0.702305,-8.837955 0.702305,-8.837955 z"
       id="path18" /><path
       style="opacity:1;fill:#dcdcdc;fill-opacity:1;stroke-width:0.133575;stroke-linecap:round;stroke-linejoin:round;paint-order:markers stroke fill"
       d="m 20.7523,15.649649 0.378753,3.030032 v 3.444859 h -4.887729 v -3.300572 z"
       id="path7" /><path
       id="path9"
       style="opacity:1;fill:#000000;fill-opacity:0.06;stroke-width:0.133575;stroke-linecap:round;stroke-linejoin:round;paint-order:markers stroke fill"
       d="m 16.243336,19.282478 v 2.842045 h 3.750309 v -2.842045 z" /><path
       id="path11"
       style="opacity:1;fill:#ebebeb;fill-opacity:1;stroke-width:0.133575;stroke-linecap:round;stroke-linejoin:round;paint-order:markers stroke fill"
       d="m 20.752351,15.649721 -1.30384,0.917851 0.545134,2.714906 1.137468,-0.32596 v -0.276845 z" /><path
       id="path10"
       style="opacity:1;fill:#000000;fill-opacity:0.0605686;stroke-width:0.133575;stroke-linecap:round;stroke-linejoin:round;paint-order:markers stroke fill"
       d="m 20.752351,15.649721 -4.509015,3.174201 v 1.306198 l 4.592051,-3.815796 z" /><path
       id="path2"
       style="fill:#c8c8c8;fill-opacity:1;stroke-width:0.133575;stroke-linecap:round;stroke-linejoin:round;paint-order:markers stroke fill"
       d="m 24.125665,8.7992548 -17.778086,2.4231662 -4.7506047,1.549416 -0.68230331,0.682302 -0.031859,0.452802 0.45914611,0.975668 0.2833344,0.243955 2.0824554,-0.779651 1.2115085,-2.104281 6.5807006,-0.624929 0.939384,1.740271 -0.148671,0.05796 c 0,0 1.415612,7.167428 2.129798,7.167428 0.714184,0 0.9948,-0.03836 1.466674,-0.446463 0.471871,-0.408106 7.805041,-6.593384 7.805041,-6.593384 l 1.530388,-1.351922 z" /><path
       style="fill:#777777;fill-opacity:1;stroke-width:0.133575;stroke-linecap:round;stroke-linejoin:round;paint-order:markers stroke fill"
       d="m 13.671473,14.490559 c 0,0 1.731003,4.077713 1.871288,4.651611 0.140288,0.573899 -0.01276,0.99476 -0.382598,1.31359 -0.369846,0.318833 -2.053282,1.696191 -2.410375,1.989516 -0.357093,0.293327 -0.548391,0.701435 -1.696191,0.701435 -1.147797,0 -3.5454198,0 -4.1575785,0 -0.6121584,0 -1.6834361,0.03826 -2.1680615,-1.530398 C 4.2433306,20.047654 3.0445201,15.571246 2.9807535,14.984592 2.9169871,14.397941 2.572648,13.033335 3.9117453,12.663489 5.2508423,12.293644 11.589235,11.809017 11.589235,11.809017 Z"
       id="path3" /><path
       style="opacity:1;fill:#1c1c1c;fill-opacity:1;stroke-width:0.133575;stroke-linecap:round;stroke-linejoin:round;paint-order:markers stroke fill"
       d="m 12.53298,21.590805 c 0,0.586654 -0.24231,1.186058 -1.04577,1.262578 -0.803458,0.07652 -4.1830856,0.06377 -4.8462569,-0.01276 C 5.9777813,22.764096 5.238089,22.509035 4.8937495,21.539782 4.5494103,20.570531 3.286833,15.328922 3.1593,14.716764 3.0317672,14.104605 3.184808,13.020573 4.2943443,12.85478 5.4038823,12.688987 9.255381,12.77826 9.255381,12.77826 c 0,0 2.665443,-0.06376 2.741963,1.033016 0.07651,1.096785 0.586651,5.70073 0.535636,7.779518 z"
       id="path4" /><path
       style="fill:#dcdcdc;fill-opacity:1;stroke-width:0.133575;stroke-linecap:round;stroke-linejoin:round;paint-order:markers stroke fill"
       d="m 25.222523,12.191618 c 0.7652,-0.586654 0.84172,-2.015024 1.045773,-3.2648482 0.204053,-1.249824 0.408105,-5.7900017 0.459118,-6.8612795 C 26.778424,0.99421223 25.094991,0.58610653 22.16173,0.50958673 19.228468,0.43306673 17.672565,1.2492787 17.11142,1.6318777 16.550274,2.0144766 2.0625151,12.268139 1.144277,12.982322 c -0.91823811,0.714185 0.3570928,2.219077 0.3570928,2.219077 l 0.1238559,-0.07479 c 0,0 -0.82965191,-1.253495 -0.64929281,-1.587159 0.18035891,-0.333664 0.90179491,-0.676346 3.40878571,-0.856706 2.5069902,-0.180358 5.9879194,0.342682 6.7003374,0.757509 0.712417,0.414826 1.136263,1.659301 1.136263,1.659301 l 8.078427,-3.392562 3.392382,1.836476 z"
       id="path1" /><ellipse
       style="opacity:1;fill:#252525;fill-opacity:1;stroke-width:0.139956;stroke-linecap:round;stroke-linejoin:round;paint-order:markers stroke fill"
       id="path5"
       cx="0.93836349"
       cy="19.454748"
       rx="2.5761683"
       ry="2.9205077"
       transform="rotate(-22.956192)" /><ellipse
       style="opacity:1;fill:#101010;fill-opacity:1;stroke-width:0.121303;stroke-linecap:round;stroke-linejoin:round;paint-order:markers stroke fill"
       id="ellipse5"
       cx="0.93836349"
       cy="19.454748"
       rx="2.2328343"
       ry="2.5312827"
       transform="rotate(-22.956192)" /><ellipse
       style="opacity:1;fill:#030303;fill-opacity:1;stroke-width:0.0695272;stroke-linecap:round;stroke-linejoin:round;paint-order:markers stroke fill"
       id="ellipse7"
       cx="1.2378864"
       cy="19.389683"
       rx="1.279784"
       ry="1.4508444"
       transform="rotate(-22.956192)" /><path
       id="rect11"
       style="opacity:1;fill:#b4b4b4;fill-opacity:1;stroke-width:0.0853253;stroke-linecap:round;stroke-linejoin:round;paint-order:markers stroke fill"
       d="m 20.561619,17.633652 a 0.68536428,1.6232311 0 0 0 -0.685403,1.623162 0.68536428,1.6232311 0 0 0 0.685403,1.623309 h 0.504131 v -0.528171 a 0.68536428,1.6232311 0 0 0 0.181268,-1.095138 0.68536428,1.6232311 0 0 0 -0.181268,-1.099563 v -0.523599 z" /><ellipse
       style="opacity:1;fill:#c8c8c8;fill-opacity:1;stroke-width:0.133575;stroke-linecap:round;stroke-linejoin:round;paint-order:markers stroke fill"
       id="path8"
       cx="21.065315"
       cy="19.256832"
       rx="0.68536425"
       ry="1.6232312" /><ellipse
       style="opacity:1;fill:#dcdcdc;fill-opacity:1;stroke-width:0.10263;stroke-linecap:round;stroke-linejoin:round;paint-order:markers stroke fill"
       id="ellipse8"
       cx="21.065315"
       cy="19.256832"
       rx="0.50372344"
       ry="1.3037816" /><path
       style="opacity:1;fill:#c3c3c3;fill-opacity:1;stroke-width:0.133575;stroke-linecap:round;stroke-linejoin:round;paint-order:markers stroke fill"
       d="m 30.257216,27.102445 -0.673061,2.943806 h -2.984274 l -7.231128,-2.410376 2.308345,-1.045772 z"
       id="path15" /><rect
       style="opacity:1;fill:#f8f8f8;fill-opacity:1;stroke-width:0.133575;stroke-linecap:round;stroke-linejoin:round;paint-order:markers stroke fill"
       id="rect14"
       width="9.2163458"
       height="3.5891447"
       x="21.040871"
       y="23.513302"
       ry="0" /><path
       style="opacity:1;fill:#dcdcdc;fill-opacity:1;stroke-width:0.133575;stroke-linecap:round;stroke-linejoin:round;paint-order:markers stroke fill"
       d="m 29.584155,30.046251 -8.543284,-2.943806 0.636227,-0.97146 8.580118,0.97146 z"
       id="path16" /><ellipse
       style="opacity:1;fill:#939393;fill-opacity:1;stroke-width:0.158426;stroke-linecap:round;stroke-linejoin:round;paint-order:markers stroke fill"
       id="path19"
       cx="30.332306"
       cy="22.331951"
       rx="0.36365411"
       ry="0.45991552" /><ellipse
       style="opacity:1;fill:#939393;fill-opacity:1;stroke-width:0.158426;stroke-linecap:round;stroke-linejoin:round;paint-order:markers stroke fill"
       id="ellipse19"
       cx="26.003689"
       cy="22.331951"
       rx="0.36365411"
       ry="0.45991552" /><ellipse
       style="opacity:1;fill:#939393;fill-opacity:1;stroke-width:0.158426;stroke-linecap:round;stroke-linejoin:round;paint-order:markers stroke fill"
       id="ellipse20"
       cx="26.580835"
       cy="31.404009"
       rx="0.36365411"
       ry="0.45991552" /><ellipse
       style="opacity:1;fill:#939393;fill-opacity:1;stroke-width:0.158426;stroke-linecap:round;stroke-linejoin:round;paint-order:markers stroke fill"
       id="ellipse21"
       cx="29.91748"
       cy="31.404009"
       rx="0.36365411"
       ry="0.45991552" /><path
       id="path22"
       style="opacity:1;fill:#f8f8f8;fill-opacity:1;stroke-width:0.133575;stroke-linecap:round;stroke-linejoin:round;paint-order:markers stroke fill"
       d="M 21.627721,0.50542133 C 19.037796,0.53344353 17.637557,1.2731398 17.111483,1.6318264 16.550336,2.0144253 2.0625559,12.268125 1.1443178,12.982309 c -0.91823811,0.714183 0.3570811,2.219034 0.3570811,2.219034 l 0.1238941,-0.07478 c 0,0 -0.82977141,-1.25351 -0.64941241,-1.587174 0.18035901,-0.333664 0.90187031,-0.676281 3.40886111,-0.856641 2.5069899,-0.180357 5.9878993,0.342697 6.7003173,0.757524 0.07515,0.04376 0.146333,0.09833 0.214898,0.158113 l 0.326109,-0.185248 14.87173,-11.9740832 c -0.547798,-0.61060127 -2.065083,-0.87026037 -4.336,-0.92950177 -0.183329,-0.00478 -0.361413,-0.006 -0.534075,-0.004131 z" /><path
       id="path23"
       style="opacity:1;fill:#000000;fill-opacity:0.1;stroke-width:0.133575;stroke-linecap:round;stroke-linejoin:round;paint-order:markers stroke fill"
       d="M 25.946026,10.842774 12.531821,21.612425 c -0.0037,0.356194 -0.09734,0.714492 -0.353688,0.955462 0.134006,0.0293 0.308327,0.01527 0.533187,-0.08731 0.0131,-0.01139 0.025,-0.02415 0.0385,-0.03525 0.339766,-0.279091 1.825644,-1.49573 2.292929,-1.892041 0.313373,-0.04442 0.539736,-0.152882 0.844399,-0.416374 0.471871,-0.408106 7.805041,-6.593384 7.805041,-6.593384 l 1.530389,-1.351922 c 0.374718,-0.287285 0.583194,-0.777677 0.723454,-1.348824 z" /><path
       id="rect12"
       style="opacity:1;fill:#ebebeb;fill-opacity:1;stroke-width:0.133575;stroke-linecap:round;stroke-linejoin:round;paint-order:markers stroke fill"
       d="m 15.950858,21.743842 c -0.148371,0 -0.267846,0.119476 -0.267846,0.267847 v 1.084075 c 0,0.127641 0.08865,0.23328 0.207818,0.260474 -0.119188,0.02718 -0.207818,0.132964 -0.207818,0.26062 v 4.041902 c 0,0.14837 0.119475,0.267846 0.267846,0.267846 h 5.458425 c 0.148373,0 0.267849,-0.119476 0.267849,-0.267846 v -4.041902 c 0,-0.127656 -0.08864,-0.23344 -0.207817,-0.26062 0.119167,-0.0272 0.207817,-0.132833 0.207817,-0.260474 v -1.084075 c 0,-0.148371 -0.119476,-0.267847 -0.267849,-0.267847 z" /><path
       id="path28"
       style="opacity:1;fill:#000000;fill-opacity:0.1;stroke-width:0.133575;stroke-linecap:round;stroke-linejoin:round;paint-order:markers stroke fill"
       d="m 15.950858,21.743842 c -0.148371,0 -0.267846,0.119476 -0.267846,0.267847 v 1.084075 c 0,0.127641 0.08865,0.23328 0.207818,0.260474 -0.119188,0.02718 -0.207818,0.132964 -0.207818,0.26062 v 4.041902 c 0,0.14837 0.119475,0.267846 0.267846,0.267846 h 2.616046 c -0.04946,0 -0.0893,-0.119476 -0.0893,-0.267846 v -4.041902 c 0,-0.127656 0.02955,-0.233448 0.06929,-0.26062 -0.03973,-0.0272 -0.06929,-0.132833 -0.06929,-0.260474 v -1.084075 c 0,-0.148371 0.03983,-0.267847 0.0893,-0.267847 z"
       sodipodi:nodetypes="ssscssscsscsscs" /></g></svg>
