<?xml version="1.0" encoding="UTF-8" standalone="no"?>
<!-- Created with Inkscape (http://www.inkscape.org/) -->

<svg
   width="290"
   height="256"
   viewBox="0 0 76.729162 67.733333"
   version="1.1"
   id="svg1"
   xml:space="preserve"
   inkscape:version="1.4 (86a8ad7, 2024-10-11)"
   sodipodi:docname="shop.svg"
   inkscape:export-filename="shop.png"
   inkscape:export-xdpi="96"
   inkscape:export-ydpi="96"
   xmlns:inkscape="http://www.inkscape.org/namespaces/inkscape"
   xmlns:sodipodi="http://sodipodi.sourceforge.net/DTD/sodipodi-0.dtd"
   xmlns="http://www.w3.org/2000/svg"
   xmlns:svg="http://www.w3.org/2000/svg"><sodipodi:namedview
     id="namedview1"
     pagecolor="#505050"
     bordercolor="#ffffff"
     borderopacity="1"
     inkscape:showpageshadow="0"
     inkscape:pageopacity="0"
     inkscape:pagecheckerboard="1"
     inkscape:deskcolor="#505050"
     inkscape:document-units="mm"
     inkscape:zoom="1.4803312"
     inkscape:cx="61.472729"
     inkscape:cy="213.12798"
     inkscape:window-width="3440"
     inkscape:window-height="1377"
     inkscape:window-x="-8"
     inkscape:window-y="-8"
     inkscape:window-maximized="1"
     inkscape:current-layer="layer1" /><defs
     id="defs1"><inkscape:path-effect
       effect="fillet_chamfer"
       id="path-effect21"
       is_visible="true"
       lpeversion="1"
       nodesatellites_param="F,0,0,1,0,0.93523405,0,1 @ F,0,1,1,0,0.93523405,0,1 @ F,0,0,1,0,0,0,1 @ F,0,0,1,0,0,0,1"
       radius="0"
       unit="px"
       method="auto"
       mode="F"
       chamfer_steps="1"
       flexible="false"
       use_knot_distance="true"
       apply_no_radius="true"
       apply_with_radius="true"
       only_selected="false"
       hide_knots="false" /><inkscape:path-effect
       effect="fillet_chamfer"
       id="path-effect14"
       is_visible="true"
       lpeversion="1"
       nodesatellites_param="F,0,1,1,0,1.1184875,0,1 @ F,0,0,1,0,0,0,1 @ F,0,0,1,0,0,0,1 @ F,0,0,1,0,0,0,1 | F,0,0,1,0,0,0,1 @ F,0,0,1,0,0,0,1 @ F,0,0,1,0,0,0,1 @ F,0,0,1,0,1.1184875,0,1 | F,0,0,1,0,0,0,1 @ F,0,0,1,0,0,0,1 @ F,0,0,1,0,0,0,1 @ F,0,0,1,0,0,0,1 @ F,0,0,1,0,0,0,1 | F,0,0,1,0,0,0,1 @ F,0,0,1,0,0,0,1 @ F,0,0,1,0,0,0,1 @ F,0,0,1,0,0,0,1 @ F,0,0,1,0,0,0,1"
       radius="0"
       unit="px"
       method="auto"
       mode="F"
       chamfer_steps="1"
       flexible="false"
       use_knot_distance="true"
       apply_no_radius="true"
       apply_with_radius="true"
       only_selected="false"
       hide_knots="false" /><inkscape:path-effect
       effect="fillet_chamfer"
       id="path-effect13"
       is_visible="true"
       lpeversion="1"
       nodesatellites_param="F,0,0,1,0,0,0,1 @ F,0,0,1,0,0,0,1 @ F,0,0,1,0,0,0,1 @ F,0,0,1,0,0,0,1 | F,0,0,1,0,0,0,1 @ F,0,0,1,0,0,0,1 @ F,0,0,1,0,0,0,1 @ F,0,0,1,0,0,0,1 @ F,0,0,1,0,0,0,1"
       radius="0"
       unit="px"
       method="auto"
       mode="F"
       chamfer_steps="1"
       flexible="false"
       use_knot_distance="true"
       apply_no_radius="true"
       apply_with_radius="true"
       only_selected="false"
       hide_knots="false" /><inkscape:path-effect
       effect="fillet_chamfer"
       id="path-effect12"
       is_visible="true"
       lpeversion="1"
       nodesatellites_param="F,0,0,1,0,0,0,1 @ F,0,0,1,0,0,0,1 @ F,0,0,1,0,0,0,1 @ F,0,0,1,0,0,0,1 | F,0,0,1,0,0,0,1 @ F,0,0,1,0,0,0,1 @ F,0,0,1,0,0,0,1 @ F,0,0,1,0,0,0,1 @ F,0,0,1,0,0,0,1"
       radius="0"
       unit="px"
       method="auto"
       mode="F"
       chamfer_steps="1"
       flexible="false"
       use_knot_distance="true"
       apply_no_radius="true"
       apply_with_radius="true"
       only_selected="false"
       hide_knots="false" /></defs><g
     inkscape:label="Layer 1"
     inkscape:groupmode="layer"
     id="layer1"><path
       id="path14"
       style="fill:#ffffff;fill-opacity:1;stroke-width:4.18046;stroke-linecap:round;stroke-linejoin:round"
       d="M 9.7231072,1.0796648 A 2.3878398,2.3878398 0 0 0 7.335691,3.4670812 V 8.4988285 L 0.92663673,25.767181 c 4.365e-4,2.136947 1.42806587,4.111356 3.74467237,5.179628 1.2468167,0.575016 2.6488415,0.829779 4.0391817,0.785779 v 32.684418 c 0,1.238976 0.9980533,2.237029 2.2370292,2.237029 h 54.834129 c 1.238975,0 2.237027,-0.998053 2.237027,-2.237029 V 31.732588 c 1.390342,0.044 2.792367,-0.210763 4.039182,-0.785779 2.316606,-1.068272 3.744236,-3.042681 3.744672,-5.179628 L 69.393478,8.4988285 V 3.4670812 A 2.3878398,2.3878398 0 0 0 67.006062,1.0796648 H 56.98142 44.570614 32.158555 19.74775 Z" /><path
       id="path17"
       style="fill:#000000;fill-opacity:0.214737;stroke-width:4.18046;stroke-linecap:round;stroke-linejoin:round"
       d="M 9.7231072,1.0796648 A 2.3878398,2.3878398 0 0 0 7.335691,3.4670812 V 8.4988285 L 0.92663673,25.767181 c 4.365e-4,2.136947 1.42806587,4.111356 3.74467237,5.179628 1.2468167,0.575016 2.6488415,0.829779 4.0391817,0.785779 v 2.457598 c 2.2617052,-0.314655 4.4602452,-1.56948 5.8288052,-3.304787 3.527919,4.602227 11.467197,4.597197 14.96365,-0.03885 3.54389,4.661365 11.460646,4.518527 14.986207,0.03885 3.532517,4.647071 11.489389,4.521028 14.977433,0 1.944835,2.604408 5.346892,3.712401 8.55209,3.381233 v -2.534044 c 1.390342,0.044 2.792367,-0.210763 4.039182,-0.785779 2.316606,-1.068272 3.744236,-3.042681 3.744672,-5.179628 L 69.393478,8.4988285 V 3.4670812 A 2.3878398,2.3878398 0 0 0 67.006062,1.0796648 H 56.98142 44.570614 32.158555 19.74775 Z" /><path
       id="rect2"
       style="fill:#ff4141;fill-opacity:1;stroke-width:4.18046;stroke-linecap:round;stroke-linejoin:round"
       d="M 9.7235947,1.0792987 A 2.3878398,2.3878398 0 0 0 7.3362027,3.466693 V 8.49853 H 19.747556 V 1.0792987 Z m 22.4353113,0 V 8.49853 H 44.57026 V 1.0792987 Z m 24.822707,0 V 8.49853 H 69.392964 V 3.466693 A 2.3878398,2.3878398 0 0 0 67.005573,1.0792987 Z M 0.92642573,25.767411 c 4.365e-4,2.136948 1.42776047,4.1114 3.74436687,5.179672 2.3163833,1.068289 5.1701484,1.068289 7.4865314,0 2.316606,-1.068272 3.743931,-3.042724 3.744364,-5.179672 H 8.4140608 Z m 29.95052827,0 a 7.487309,5.9817098 0 0 0 3.744364,5.179672 7.487309,5.9817098 0 0 0 7.48653,0 7.487309,5.9817098 0 0 0 3.744365,-5.179672 h -7.487628 z m 29.950524,0 c 4.34e-4,2.136948 1.427758,4.1114 3.744365,5.179672 2.316383,1.068289 5.170148,1.068289 7.486531,0 2.316607,-1.068272 3.74393,-3.042724 3.744367,-5.179672 h -7.487633 z" /><path
       id="rect3"
       style="fill:#ff7373;fill-opacity:1;stroke-width:6.37747;stroke-linecap:round;stroke-linejoin:round"
       d="M 7.3362027,8.49853 0.92642573,25.767411 H 15.901688 L 19.747556,8.49853 Z m 24.8227033,0 -1.281952,17.268881 H 45.852213 L 44.57026,8.49853 Z m 24.822707,0 3.845865,17.268881 H 75.802741 L 69.392964,8.49853 Z" /><path
       id="path4"
       style="fill:#ebebeb;fill-opacity:1;stroke-width:4.18046;stroke-linecap:round;stroke-linejoin:round"
       d="M 19.747556,1.0792987 V 8.49853 h 12.41135 V 1.0792987 Z m 24.822704,0 V 8.49853 H 56.981613 V 1.0792987 Z M 15.901688,25.767411 c 4.37e-4,2.136948 1.427762,4.1114 3.744368,5.179672 2.316383,1.068289 5.170148,1.068289 7.486531,0 2.316607,-1.068272 3.74393,-3.042724 3.744367,-5.179672 h -7.487632 z m 29.950525,0 c 4.37e-4,2.136948 1.42776,4.1114 3.744366,5.179672 2.316384,1.068289 5.170149,1.068289 7.486532,0 2.316606,-1.068272 3.743931,-3.042724 3.744367,-5.179672 h -7.487631 z" /><path
       id="path5"
       style="fill:#ffffff;fill-opacity:1;stroke-width:6.37747;stroke-linecap:round;stroke-linejoin:round"
       d="M 19.747556,8.49853 15.901688,25.767411 H 30.876954 L 32.158906,8.49853 Z m 24.822704,0 1.281953,17.268881 H 60.827478 L 56.981613,8.49853 Z" /><path
       id="rect20"
       style="fill:#939ba1;fill-opacity:1;stroke-width:4;stroke-linecap:round;stroke-linejoin:round"
       d="m 37.459915,38.799572 h 4.322298 a 0.93523405,0.93523405 45 0 1 0.935234,0.935234 v 9.807387 h -6.192766 v -9.807387 a 0.93523405,0.93523405 135 0 1 0.935234,-0.935234 z"
       inkscape:path-effect="#path-effect21"
       inkscape:original-d="m 36.524681,38.799572 h 6.192766 v 10.742621 h -6.192766 z"
       transform="matrix(2.4251615,0,0,2.4251615,-43.767552,-53.49379)" /><rect
       style="fill:#8febff;fill-opacity:1;stroke-width:11.0332;stroke-linecap:round;stroke-linejoin:round"
       id="rect21"
       width="15.861332"
       height="15.861332"
       x="18.834898"
       y="36.770206"
       ry="2.2221186" /></g></svg>
