<?xml version="1.0" encoding="UTF-8" standalone="no"?>
<svg
   class="external-icon"
   viewBox="0 0 230 128"
   focusable="false"
   style="display:block"
   version="1.1"
   id="svg3"
   sodipodi:docname="social-media.svg"
   width="230"
   height="128"
   xml:space="preserve"
   inkscape:version="1.4 (86a8ad7, 2024-10-11)"
   xmlns:inkscape="http://www.inkscape.org/namespaces/inkscape"
   xmlns:sodipodi="http://sodipodi.sourceforge.net/DTD/sodipodi-0.dtd"
   xmlns="http://www.w3.org/2000/svg"
   xmlns:svg="http://www.w3.org/2000/svg"><defs
     id="defs3"><inkscape:path-effect
       effect="fillet_chamfer"
       id="path-effect3"
       is_visible="true"
       lpeversion="1"
       nodesatellites_param="F,0,1,1,0,2.6344155,0,1 @ F,0,0,1,0,2.6344155,0,1 @ F,0,1,1,0,2.6344155,0,1"
       radius="0"
       unit="px"
       method="auto"
       mode="F"
       chamfer_steps="1"
       flexible="false"
       use_knot_distance="true"
       apply_no_radius="true"
       apply_with_radius="true"
       only_selected="false"
       hide_knots="false" /><style
       id="style1">.cls-1{fill:none;}.cls-2{clip-path:url(#clippath);}</style><clipPath
       clipPathUnits="userSpaceOnUse"
       id="clipPath2"><path
         class="cls-1"
         d="m 128,23.814824 c 33.93231,0 37.95132,0.127088 51.35243,0.73914 12.39152,0.565285 19.12003,2.63325 23.59757,4.374854 5.93447,2.30689 10.16597,5.057059 14.61301,9.504099 4.44602,4.44704 7.20229,8.679556 9.5041,14.613009 1.7416,4.477541 3.80957,11.206052 4.37485,23.597574 0.61104,13.401105 0.73914,17.419098 0.73914,51.35243 0,33.93333 -0.12708,37.95031 -0.73914,51.35141 -0.56528,12.39153 -2.63325,19.12004 -4.37485,23.59758 -2.30689,5.93447 -5.05706,10.16597 -9.5041,14.61301 -4.44704,4.44602 -8.67956,7.20229 -14.61301,9.50409 -4.47754,1.74161 -11.20605,3.80957 -23.59757,4.37486 -13.40009,0.61103 -17.4191,0.73914 -51.35243,0.73914 -33.933336,0 -37.950312,-0.12709 -51.351416,-0.73914 -12.391523,-0.56529 -19.120034,-2.63325 -23.597575,-4.37486 -5.934469,-2.3079 -10.165969,-5.05807 -14.613009,-9.50409 -4.446023,-4.44704 -7.202292,-8.67956 -9.504098,-14.61301 -1.742621,-4.47754 -3.80957,-11.20605 -4.374854,-23.59758 -0.611036,-13.40008 -0.73914,-17.41909 -0.73914,-51.35141 0,-33.932316 0.127087,-37.950309 0.73914,-51.35243 0.565284,-12.391522 2.633249,-19.120033 4.374854,-23.597574 2.306889,-5.93447 5.057059,-10.165969 9.504098,-14.613009 4.44704,-4.446023 8.679556,-7.202293 14.613009,-9.504099 C 57.52855,27.187214 64.257061,25.119249 76.648584,24.553964 90.048671,23.948012 94.067681,23.814824 128,23.814824 Z m 0,-22.89401861 c -34.512854,0 -38.841957,0.14742131 -52.395566,0.76354061 C 62.076243,2.3004654 52.841569,4.4507829 44.758816,7.5923816 36.400536,10.84175 29.316181,15.18712 22.251142,22.251142 15.18712,29.316181 10.837684,36.400536 7.5923816,44.758816 4.4497662,52.842586 2.3004654,62.081326 1.684346,75.604434 1.0682267,89.15906 0.92080539,93.488163 0.92080539,128 c 0,34.51183 0.14742131,38.84195 0.76354061,52.39556 0.6161194,13.52819 2.7664369,22.76286 5.9080356,30.84562 3.2493684,8.35828 7.5947384,15.44263 14.6587604,22.50767 7.065039,7.06504 14.154478,11.40939 22.507674,14.65876 8.08377,3.14262 17.32251,5.29192 30.845618,5.90804 13.553609,0.61612 17.882712,0.76354 52.395566,0.76354 34.51285,0 38.84195,-0.14742 52.39556,-0.76354 13.52819,-0.61612 22.76286,-2.76644 30.84562,-5.90804 8.35828,-3.25038 15.44263,-7.59474 22.50767,-14.65876 7.06504,-7.06504 11.40939,-14.15448 14.65876,-22.50767 3.14262,-8.08276 5.29192,-17.32251 5.90804,-30.84562 0.61612,-13.55361 0.76354,-17.88271 0.76354,-52.39556 0,-34.512854 -0.14742,-38.841957 -0.76354,-52.395566 -0.61612,-13.528191 -2.76644,-22.762865 -5.90804,-30.845618 -3.25038,-8.35828 -7.59474,-15.442635 -14.65876,-22.507674 C 226.68381,15.18712 219.59437,10.84175 211.24118,7.5923816 203.15842,4.4497662 193.91867,2.3004654 180.39556,1.684346 166.84297,1.0682267 162.51285,0.92080539 128,0.92080539 Z m 0,61.82340861 c -36.040952,0 -65.255786,29.214834 -65.255786,65.255786 0,36.04095 29.214834,65.2568 65.255786,65.2568 36.04095,0 65.2568,-29.21585 65.2568,-65.2568 0,-36.040952 -29.21585,-65.255786 -65.2568,-65.255786 z m 0,107.618566 c -23.39322,0 -42.361767,-18.96245 -42.361767,-42.36177 0,-23.39931 18.968547,-42.36176 42.361767,-42.36176 23.39321,0 42.36176,18.96245 42.36176,42.36176 0,23.39932 -18.96855,42.36177 -42.36176,42.36177 z M 195.83413,44.917421 c -8.42437,0 -15.24946,6.825097 -15.24946,15.249462 0,8.424365 6.82509,15.250479 15.24946,15.250479 8.42436,0 15.25048,-6.826114 15.25048,-15.250479 0,-8.424365 -6.8251,-15.249462 -15.25048,-15.249462 z"
         id="path3"
         style="stroke-width:0.10167" /></clipPath><style
       id="style1-4">.cls-1{fill:#fff;}</style></defs><sodipodi:namedview
     id="namedview3"
     pagecolor="#505050"
     bordercolor="#ffffff"
     borderopacity="1"
     inkscape:showpageshadow="0"
     inkscape:pageopacity="0"
     inkscape:pagecheckerboard="1"
     inkscape:deskcolor="#505050"
     inkscape:zoom="3.671875"
     inkscape:cx="134.80851"
     inkscape:cy="75.029787"
     inkscape:window-width="3440"
     inkscape:window-height="1377"
     inkscape:window-x="-8"
     inkscape:window-y="-8"
     inkscape:window-maximized="1"
     inkscape:current-layer="svg3" /><g
     id="g3"
     transform="matrix(1.1634639,-0.31174921,0.31174921,1.1634639,-42.441753,17.131295)"><path
       d="m 83.559197,59.912201 c -0.717356,-2.680299 -2.823879,-4.78662 -5.504156,-5.5041 -4.853045,-1.301712 -24.322533,-1.301712 -24.322533,-1.301712 0,0 -19.469227,0 -24.322468,1.301712 -2.680277,0.71748 -4.786598,2.823801 -5.504078,5.5041 -1.301712,4.853219 -1.301712,14.985058 -1.301712,14.985058 0,0 0,10.131883 1.301712,14.985145 0.71748,2.680277 2.823801,4.786583 5.504078,5.503938 4.853241,1.301787 24.322468,1.301787 24.322468,1.301787 0,0 19.469488,0 24.322533,-1.301787 2.680277,-0.717355 4.7868,-2.823661 5.504156,-5.503938 1.301786,-4.853262 1.301786,-14.985145 1.301786,-14.985145 0,0 -0.0052,-10.131839 -1.301786,-14.985058 z"
       fill="#ff0000"
       id="path1"
       style="fill:none;stroke:#ffffff;stroke-width:4;stroke-dasharray:none;stroke-opacity:1" /><path
       d="m 49.782487,82.918385 11.611027,-6.703121 a 1.5208777,1.5208777 90.000205 0 0 9e-6,-2.634282 L 49.782478,66.877739 a 1.5210256,1.5210256 149.99926 0 0 -2.281505,1.317267 v 13.406096 a 1.5210382,1.5210382 30.000941 0 0 2.281514,1.317283 z"
       fill="#ffffff"
       id="path2"
       style="stroke-width:2.17909"
       inkscape:path-effect="#path-effect3"
       inkscape:original-d="M 47.500973,84.235518 63.675028,74.898131 47.500973,65.56059 Z" /></g><path
     class="cls-1"
     d="m 195.34785,54.753532 c -2.79136,-0.608546 -4.79163,-0.673034 -6.61051,-0.467334 -1.88097,0.207383 -3.56316,0.711272 -5.38569,1.76788 -1.82251,1.056615 -3.09405,2.264194 -4.21016,3.793309 -1.07973,1.478329 -2.01667,3.246492 -2.87745,5.971922 -0.86079,2.725426 -1.12528,3.604741 -2.99691,10.643635 -1.8716,7.038908 -2.07684,7.929104 -2.6837,10.728684 -0.60685,2.791244 -0.67275,4.790576 -0.46719,6.609966 0.20843,1.881257 0.71141,3.562641 1.76839,5.385812 1.057,1.823194 2.2641,3.092364 3.79708,4.210644 1.47705,1.07827 3.24518,2.01743 5.97037,2.87703 2.72519,0.85961 3.60527,1.12542 10.64208,2.99648 7.03684,1.87106 7.93067,2.07726 10.72902,2.68658 2.79837,0.60933 4.78869,0.66946 6.60777,0.46715 1.88167,-0.20996 3.56367,-0.71112 5.38597,-1.76892 1.82227,-1.05779 3.09357,-2.26654 4.20945,-3.79683 1.07982,-1.47664 2.01846,-3.2449 2.87646,-5.9683 0.86169,-2.732948 1.12676,-3.608226 2.99812,-10.646087 1.87132,-7.037871 2.07609,-7.928192 2.68521,-10.726045 0.60919,-2.797841 0.67303,-4.791618 0.46828,-6.611907 -0.20945,-1.881525 -0.71168,-3.561608 -1.76788,-5.38568 -1.0562,-1.824074 -2.26613,-3.09513 -3.79633,-4.209315 -1.4778,-1.0796 -3.24475,-2.018983 -5.97036,-2.877034 -2.7256,-0.858053 -3.60498,-1.126447 -10.64439,-2.998211 -7.03943,-1.871768 -7.9283,-2.077731 -10.72763,-2.683429 m -12.24643,46.914618 c -2.49649,-0.78666 -3.75555,-1.57385 -4.57541,-2.170048 -1.08542,-0.790657 -1.79656,-1.585411 -2.46574,-2.731556 -0.66917,-1.146156 -0.99691,-2.161386 -1.14582,-3.495795 -0.10997,-1.009093 -0.17041,-2.493593 0.38827,-5.051175 0.60303,-2.764498 0.79572,-3.591424 2.634,-10.512078 1.8383,-6.920659 2.08431,-7.732179 2.93556,-10.43128 0.78399,-2.494987 1.57423,-3.754897 2.16977,-4.574382 0.79107,-1.086974 1.58333,-1.797107 2.73141,-2.465209 1.14809,-0.668105 2.161,-0.997571 3.49645,-1.146213 1.00848,-0.111851 2.492,-0.16861 5.0491,0.387725 2.76685,0.602538 3.59246,0.795993 10.51208,2.633998 6.91963,1.838007 7.73344,2.083765 10.43439,2.936387 2.49443,0.786108 3.75597,1.572298 4.57387,2.16964 1.08593,0.790782 1.79752,1.58177 2.4652,2.731413 0.66769,1.149636 0.99852,2.159588 1.14645,3.497614 0.11311,1.006028 0.16997,2.489037 -0.38782,5.047415 -0.60202,2.766993 -0.79199,3.594082 -2.63244,10.512498 -1.84043,6.918406 -2.08481,7.73315 -2.93609,10.43114 -0.78722,2.496346 -1.57346,3.756216 -2.17046,4.576976 -0.7905,1.08491 -1.58384,1.79697 -2.73229,2.46441 -1.14848,0.66745 -2.16037,0.99719 -3.49631,1.1457 -1.00731,0.11165 -2.49267,0.16899 -5.04769,-0.3868 -2.76658,-0.60358 -3.59247,-0.79599 -10.51468,-2.63468 -6.92222,-1.83872 -7.7308,-2.0853 -10.43129,-2.93557 m 30.4853,-29.295247 a 3.2185008,3.2185008 0 1 0 3.93699,-2.282674 3.2185008,3.2185008 0 0 0 -3.93699,2.282674 m -27.71205,7.44269 c -1.95413,7.351101 2.42042,14.892441 9.76983,16.846722 7.3494,1.954301 14.89475,-2.418688 16.84946,-9.769649 1.95472,-7.350947 -2.42106,-14.894283 -9.77161,-16.848313 -7.35059,-1.954032 -14.89327,2.421312 -16.84768,9.77124 m 4.66885,1.241036 a 8.9404586,8.9404586 0 1 1 6.34355,10.93728 8.9393862,8.9393862 0 0 1 -6.34355,-10.93728"
     id="path1-0"
     style="stroke-width:0.0536415" /><g
     id="g4"
     transform="matrix(1.2045065,0,0,1.2045065,-591.02947,-643.95495)"><path
       fill="#ffffff"
       d="m 586.93292,589.42384 h -7.24222 l 33.33589,47.68373 h 7.24222 z m -13.65632,-3.54949 h 15.91503 l 13.79881,20.08188 17.27614,-20.08188 h 4.7149 l -19.89735,23.12888 21.63927,31.49242 h -15.91503 l -14.57223,-21.20747 -18.24438,21.20747 h -4.71516 l 20.86585,-24.25452 z"
       id="path1-9"
       style="stroke-width:0.044539" /></g><style
     type="text/css"
     id="style1-8">
	.st0{fill:url(#SVGID_1_);}
	.st1{fill:#FFFFFF;}
</style><g
     id="g5"
     transform="matrix(1.2045065,0,0,1.2045065,-38.027741,-74.533622)"><path
       class="st1"
       d="m 140.50851,88.512765 0.9,-5.6 h -5.3 v -3.9 c 0,-1.6 0.6,-2.8 3,-2.8 h 2.6 v -5.1 c -1.4,-0.2 -3,-0.4 -4.4,-0.4 -4.6,0 -7.8,2.8 -7.8,7.8 v 4.4 h -5 v 5.6 h 5 v 14.100005 c 1.1,0.2 2.2,0.3 3.3,0.3 1.1,0 2.2,-0.1 3.3,-0.3 V 88.512765 Z"
       id="path3-4" /><circle
       style="fill:none;stroke:#ffffff;stroke-width:4;stroke-linecap:round;stroke-linejoin:round;stroke-dasharray:none;stroke-opacity:1;paint-order:markers stroke fill"
       id="path5"
       cx="133.71915"
       cy="84.153183"
       r="19.880852" /></g></svg>
