<?xml version="1.0" encoding="UTF-8" standalone="no"?>
<!-- Created with Inkscape (http://www.inkscape.org/) -->

<svg
   width="290"
   height="128"
   viewBox="0 0 76.729165 33.866666"
   version="1.1"
   id="svg1"
   inkscape:version="1.4 (86a8ad7, 2024-10-11)"
   sodipodi:docname="the.svg"
   inkscape:export-filename="the.png"
   inkscape:export-xdpi="96"
   inkscape:export-ydpi="96"
   xmlns:inkscape="http://www.inkscape.org/namespaces/inkscape"
   xmlns:sodipodi="http://sodipodi.sourceforge.net/DTD/sodipodi-0.dtd"
   xmlns="http://www.w3.org/2000/svg"
   xmlns:svg="http://www.w3.org/2000/svg">
  <sodipodi:namedview
     id="namedview1"
     pagecolor="#505050"
     bordercolor="#ffffff"
     borderopacity="1"
     inkscape:showpageshadow="0"
     inkscape:pageopacity="0"
     inkscape:pagecheckerboard="1"
     inkscape:deskcolor="#505050"
     inkscape:document-units="mm"
     inkscape:zoom="2.6003436"
     inkscape:cx="88.834414"
     inkscape:cy="80.181711"
     inkscape:current-layer="layer1"
     inkscape:window-width="3440"
     inkscape:window-height="1377"
     inkscape:window-x="-8"
     inkscape:window-y="-8"
     inkscape:window-maximized="1" />
  <defs
     id="defs1" />
  <g
     inkscape:label="Layer 1"
     inkscape:groupmode="layer"
     id="layer1">
    <path
       d="m 10.506489,33.508594 q -1.4207366,0 -2.6692627,-0.322895 Q 6.6102266,32.884331 5.6845952,32.303121 4.7804901,31.700384 4.2638587,30.882384 3.7472272,30.042858 3.7472272,28.966542 V 14.199493 H 0.23843847 V 12.240599 Q 1.0994909,12.068388 1.8098592,11.874651 2.5202275,11.659388 3.0368589,11.293441 3.5534904,10.927494 3.8548588,10.324757 4.1562271,9.7220201 4.220806,8.7318098 L 4.3930165,5.8688104 9.9037522,5.0292843 v 6.4148407 h 7.6633668 l -0.495105,2.755368 H 9.9037522 v 13.174102 q 0,0.688842 0.4305258,1.227 0.452053,0.516632 1.076316,0.882579 0.624263,0.344421 1.313105,0.538158 0.710368,0.193736 1.227,0.193736 0.344421,0 0.731894,-0.04305 0.387474,-0.04305 0.753421,-0.0861 0.387474,-0.04305 0.710368,-0.107632 0.344421,-0.06458 0.581211,-0.107632 h 0.667316 v 1.657526 q -0.365948,0.193737 -1.05479,0.538158 -0.688842,0.322895 -1.592947,0.64579 -0.904105,0.322894 -2.001947,0.559684 -1.076315,0.236789 -2.238736,0.236789 z m 12.240763,-1.894315 2.281789,-0.818 q 0.430526,-0.172211 0.667315,-0.430526 0.258316,-0.258316 0.258316,-0.710369 V 5.2660737 q 0,-0.5166315 -0.301368,-0.8610525 Q 25.373462,4.0606003 24.792251,3.8453371 L 22.510462,2.9197058 V 1.5850745 L 32.111197,0.27196948 V 13.187756 l -0.06458,1.39921 q 0.904105,-1.270052 1.786684,-2.023473 0.904105,-0.774947 1.786684,-1.162421 0.882579,-0.409 1.722105,-0.538157 0.861052,-0.129158 1.722105,-0.129158 1.442262,0 2.733841,0.430526 1.291579,0.409 2.238737,1.334631 0.968684,0.904105 1.528368,2.346368 0.559684,1.442263 0.559684,3.465736 v 11.236735 q 0,0.516631 0.258315,0.796473 0.258316,0.279842 0.64579,0.452053 l 2.044999,0.818 v 1.485315 H 37.019196 v -1.485315 l 2.023473,-0.818 q 0.365948,-0.150684 0.624263,-0.430526 0.279842,-0.301369 0.279842,-0.818 v -9.019525 q 0,-1.485315 -0.150684,-2.583157 -0.150684,-1.119368 -0.559684,-1.851263 -0.387473,-0.753421 -1.140894,-1.119368 -0.731895,-0.387474 -1.937368,-0.387474 -0.495106,0 -1.05479,0.06458 -0.538157,0.04305 -1.097842,0.23679 -0.538157,0.17221 -1.033262,0.538158 -0.495106,0.344421 -0.861053,0.947157 v 13.260208 q 0,0.473579 0.258316,0.731895 0.258316,0.236789 0.667315,0.430526 l 1.743632,0.818 v 1.485315 H 22.747252 Z m 44.03511,1.98042 q -2.432473,0 -4.477473,-0.731894 -2.045,-0.731895 -3.530315,-2.152631 -1.463789,-1.442263 -2.281789,-3.530315 -0.818,-2.109579 -0.818,-4.864947 0,-2.346368 0.774947,-4.455946 0.796474,-2.109579 2.238737,-3.680999 1.463789,-1.592947 3.551841,-2.518579 2.088052,-0.947158 4.714262,-0.947158 2.281789,0 4.046947,0.731895 1.786684,0.731895 2.992157,1.915842 1.227,1.183947 1.851263,2.733841 0.645789,1.549895 0.645789,3.185894 0,0.193737 -0.02153,0.581211 0,0.365947 -0.04305,0.753421 -0.02153,0.387473 -0.04305,0.75342 -0.02153,0.344421 -0.04305,0.495106 H 62.046573 q 0.02153,3.917788 1.786684,5.962788 1.765158,2.023473 5.424631,2.023473 1.16242,0 2.131104,-0.193737 0.968684,-0.215263 1.765158,-0.495105 0.818,-0.279842 1.442263,-0.624263 0.645789,-0.344421 1.140894,-0.624263 h 0.710369 v 2.023473 q -0.796474,0.64579 -1.851263,1.291579 -1.054789,0.624263 -2.281789,1.162421 -1.227,0.538158 -2.62621,0.861052 -1.39921,0.344421 -2.906052,0.344421 z m 3.401157,-14.035155 q 0,-1.39921 -0.172211,-2.561631 -0.17221,-1.16242 -0.602736,-2.001947 -0.409,-0.839526 -1.119368,-1.313105 -0.710369,-0.473578 -1.765158,-0.473578 -0.99021,0 -1.786684,0.430526 -0.774947,0.430526 -1.334631,1.248526 -0.559684,0.818 -0.882579,2.001947 -0.322895,1.183947 -0.387473,2.669262 z"
       id="text1"
       style="font-weight:bold;font-size:48.4342px;line-height:1;font-family:'Sitka Heading';-inkscape-font-specification:'Sitka Heading Bold';text-align:center;letter-spacing:4.55584px;word-spacing:0px;text-anchor:middle;fill:#ffffff;stroke-width:1.33862;stroke-linecap:round;stroke-linejoin:round;paint-order:markers stroke fill"
       aria-label="the" />
  </g>
</svg>
