<?xml version="1.0" encoding="UTF-8" standalone="no"?>
<!-- Created with Inkscape (http://www.inkscape.org/) -->

<svg
   width="175"
   height="256"
   viewBox="0 0 46.302082 67.733332"
   version="1.1"
   id="svg1"
   xml:space="preserve"
   inkscape:version="1.4 (86a8ad7, 2024-10-11)"
   sodipodi:docname="toenail.svg"
   xmlns:inkscape="http://www.inkscape.org/namespaces/inkscape"
   xmlns:sodipodi="http://sodipodi.sourceforge.net/DTD/sodipodi-0.dtd"
   xmlns="http://www.w3.org/2000/svg"
   xmlns:svg="http://www.w3.org/2000/svg"><sodipodi:namedview
     id="namedview1"
     pagecolor="#505050"
     bordercolor="#ffffff"
     borderopacity="1"
     inkscape:showpageshadow="0"
     inkscape:pageopacity="0"
     inkscape:pagecheckerboard="1"
     inkscape:deskcolor="#505050"
     inkscape:document-units="mm"
     inkscape:zoom="2.6003435"
     inkscape:cx="183.4373"
     inkscape:cy="104.79385"
     inkscape:current-layer="layer1"
     showguides="true"
     inkscape:lockguides="false"
     inkscape:window-width="3440"
     inkscape:window-height="1377"
     inkscape:window-x="-8"
     inkscape:window-y="-8"
     inkscape:window-maximized="1" /><defs
     id="defs1" /><g
     inkscape:label="Layer 1"
     inkscape:groupmode="layer"
     id="layer1"><path
       style="fill:#f4b57f;fill-opacity:1;stroke:none;stroke-width:1.74463"
       d="M 45.599754,30.798355 C 44.37992,12.325597 44.856739,0.72109027 23.504239,0.2357981 2.1517719,-0.2494435 0.92288451,13.916227 0.40033636,33.721737 -0.1222173,53.52723 2.8507572,52.40951 4.0713515,67.509624 l 39.0919125,6e-6 c 1.539182,-15.63794 3.656322,-18.238513 2.43649,-36.711275 z"
       id="path1"
       sodipodi:nodetypes="zssccz" /><path
       id="path3"
       style="fill:#f6c192;fill-opacity:1;stroke:none;stroke-width:1.74463"
       d="M 13.065022,1.8913974 C 1.9699214,6.5246753 0.81823201,17.871415 0.40002298,33.72202 -0.12252997,53.527501 2.8505082,52.409385 4.0711243,67.509479 l 3.9037474,1.51e-4 C 12.272291,44.877004 5.2028987,11.083859 13.744874,2.2050847 Z"
       sodipodi:nodetypes="cscccc" /><path
       style="fill:#f8d1af;fill-opacity:1;stroke:none;stroke-width:1.98028"
       d="M 41.136453,36.635014 C 29.199691,38.670578 13.235512,38.19809 5.8138918,36.837884 5.1179149,20.10002 4.4974572,17.649464 6.2899059,11.924371 9.6021743,1.3449617 36.053222,1.2367654 39.74229,9.9648768 41.325121,13.70977 42.058493,19.388625 41.136453,36.635008 Z"
       id="path2"
       sodipodi:nodetypes="ccssc" /><path
       id="path4"
       style="fill:#f9e0c9;fill-opacity:1;stroke:none;stroke-width:1.98028"
       d="m 25.251654,31.559358 c -8.310556,-0.06532 -16.9054667,1.24112 -19.5565611,2.721833 0.042776,0.9452 0.074779,1.502504 0.1186013,2.556665 7.4215908,1.360166 23.3855558,1.832967 35.3223198,-0.202589 0.03554,-0.671374 0.05263,-1.214387 0.08371,-1.851281 C 38.040929,32.4953 31.733262,31.610291 25.25165,31.55937 Z" /><path
       id="path5"
       style="fill:#ffffff;fill-opacity:0.262885;stroke:none;stroke-width:1.98028"
       d="M 14.861563,4.9985702 C 10.667358,6.3049068 7.3316787,8.5958042 6.2894492,11.924718 4.4969971,17.64981 5.1177276,20.100006 5.8137041,36.837856 7.2827852,37.107085 9.0967537,37.339514 11.137785,37.526614 9.3812689,20.025484 8.6642103,7.9710923 14.861563,4.9985702 Z" /></g></svg>
