<?xml version="1.0" encoding="UTF-8" standalone="no"?>
<!-- Created with Inkscape (http://www.inkscape.org/) -->

<svg
   width="1260"
   height="256"
   viewBox="0 0 333.37499 67.733335"
   version="1.1"
   id="svg1427"
   inkscape:version="1.4 (86a8ad7, 2024-10-11)"
   sodipodi:docname="traffic-accident-deaths.svg"
   inkscape:export-filename="G:\Pictures\My Pictures\Vectors and SVGs\Car1.png"
   inkscape:export-xdpi="96"
   inkscape:export-ydpi="96"
   xml:space="preserve"
   xmlns:inkscape="http://www.inkscape.org/namespaces/inkscape"
   xmlns:sodipodi="http://sodipodi.sourceforge.net/DTD/sodipodi-0.dtd"
   xmlns="http://www.w3.org/2000/svg"
   xmlns:svg="http://www.w3.org/2000/svg"
   xmlns:rdf="http://www.w3.org/1999/02/22-rdf-syntax-ns#"
   xmlns:cc="http://creativecommons.org/ns#"
   xmlns:dc="http://purl.org/dc/elements/1.1/"><defs
     id="defs1421"><inkscape:path-effect
       effect="copy_rotate"
       starting_point="1033.7961,42.5"
       origin="1017.76,42.5"
       id="path-effect2076"
       is_visible="true"
       copies_to_360="true"
       fuse_paths="false"
       starting_angle="0"
       rotation_angle="72"
       num_copies="5"
       lpeversion="0"
       lpesatellites=""
       method="normal"
       gap="-0.01"
       mirror_copies="false"
       split_items="false"
       link_styles="false" /><inkscape:path-effect
       effect="copy_rotate"
       starting_point="1017.7624,-2.3418795"
       origin="1001.7263,-2.3418795"
       id="path-effect2072"
       is_visible="true"
       copies_to_360="true"
       fuse_paths="false"
       starting_angle="0"
       rotation_angle="60"
       num_copies="6"
       lpeversion="0"
       lpesatellites=""
       method="normal"
       gap="-0.01"
       mirror_copies="false"
       split_items="false"
       link_styles="false" /><inkscape:path-effect
       effect="copy_rotate"
       starting_point="1036.0361,50"
       origin="1020,50"
       id="path-effect2068"
       is_visible="true"
       copies_to_360="true"
       fuse_paths="false"
       starting_angle="0"
       rotation_angle="72"
       num_copies="5"
       lpeversion="0"
       lpesatellites=""
       method="normal"
       gap="-0.01"
       mirror_copies="false"
       split_items="false"
       link_styles="false" /><inkscape:path-effect
       effect="mirror_symmetry"
       start_point="1119.25,1463.4172"
       end_point="1119.25,1698.7584"
       center_point="1119.25,1581.0878"
       id="path-effect2012"
       is_visible="true"
       mode="free"
       discard_orig_path="false"
       fuse_paths="false"
       oposite_fuse="false"
       lpeversion="0"
       lpesatellites=""
       split_items="false"
       split_open="false"
       link_styles="false" /></defs><sodipodi:namedview
     id="base"
     pagecolor="#000000"
     bordercolor="#666666"
     borderopacity="1.0"
     inkscape:pageopacity="0"
     inkscape:pageshadow="2"
     inkscape:zoom="1.4142136"
     inkscape:cx="649.12403"
     inkscape:cy="90.156115"
     inkscape:document-units="mm"
     inkscape:current-layer="layer1"
     showgrid="false"
     units="px"
     borderlayer="false"
     inkscape:showpageshadow="false"
     inkscape:pagecheckerboard="true"
     inkscape:window-width="3440"
     inkscape:window-height="1377"
     inkscape:window-x="-8"
     inkscape:window-y="-8"
     inkscape:window-maximized="1"
     showguides="true"
     inkscape:guide-bbox="true"
     inkscape:object-paths="true"
     inkscape:snap-smooth-nodes="false"
     inkscape:snap-center="false"
     inkscape:snap-global="false"
     inkscape:deskcolor="#505050" /><metadata
     id="metadata1424"><rdf:RDF><cc:Work
         rdf:about=""><dc:format>image/svg+xml</dc:format><dc:type
           rdf:resource="http://purl.org/dc/dcmitype/StillImage" /></cc:Work></rdf:RDF></metadata><g
     inkscape:label="Layer 1"
     inkscape:groupmode="layer"
     id="layer1"
     transform="translate(0,200.41668)"><g
       id="g26"
       transform="matrix(1.8770405,0,0,1.8770405,47.797656,124.35371)"
       style="opacity:0.6"><path
         style="fill:#76a5de;fill-opacity:1;fill-rule:nonzero;stroke:none;stroke-width:0.225968;stroke-linecap:round;stroke-linejoin:round;stroke-miterlimit:4;stroke-dasharray:none;stroke-dashoffset:0;stroke-opacity:1;paint-order:markers stroke fill"
         d="m 86.762094,-157.22114 7.984644,-5.46765 10.312132,-4.31649 9.85,-1.09669 12.34973,0.27754 11.05784,8.63898 -2.93576,3.70554 -48.979084,0.6879 z"
         id="path2112"
         inkscape:connector-curvature="0" /><path
         inkscape:connector-curvature="0"
         id="path2093"
         d="m 74.183422,-139.97129 15.074016,-0.21171 1.222747,-11.01592 -17.775043,0.24965 z"
         style="fill:#1e1e1e;fill-opacity:1;fill-rule:nonzero;stroke:none;stroke-width:0.677911;stroke-linecap:round;stroke-linejoin:round;stroke-miterlimit:4;stroke-dasharray:none;stroke-dashoffset:0;stroke-opacity:1;paint-order:markers stroke fill" /><path
         style="fill:#1e1e1e;fill-opacity:1;fill-rule:nonzero;stroke:none;stroke-width:0.677911;stroke-linecap:round;stroke-linejoin:round;stroke-miterlimit:4;stroke-dasharray:none;stroke-dashoffset:0;stroke-opacity:1;paint-order:markers stroke fill"
         d="m 128.55664,-140.73496 15.07402,-0.21171 1.22275,-11.01592 -17.77505,0.24965 z"
         id="path2085"
         inkscape:connector-curvature="0" /><path
         style="opacity:0.294;fill:#ffffff;fill-opacity:1;fill-rule:nonzero;stroke:none;stroke-width:0.225968;stroke-linecap:round;stroke-linejoin:round;stroke-miterlimit:4;stroke-dasharray:none;stroke-dashoffset:0;stroke-opacity:1;paint-order:markers stroke fill"
         d="m 91.909861,-158.82359 c 16.747329,-5.72569 27.356179,-6.09063 41.348049,-4.44635 l 4.5352,5.81527 -46.767929,1.58299 z"
         id="path2038"
         inkscape:connector-curvature="0"
         sodipodi:nodetypes="ccccc" /><path
         style="fill:#3d3d3d;fill-opacity:1;fill-rule:nonzero;stroke:none;stroke-width:0.225968;stroke-linecap:round;stroke-linejoin:round;stroke-miterlimit:4;stroke-dasharray:none;stroke-dashoffset:0;stroke-opacity:1;paint-order:markers stroke fill"
         d="m 93.023084,-161.02626 -5.776239,2.84573 0.127464,2.15416 5.383248,-0.62004 z"
         id="path2036"
         inkscape:connector-curvature="0"
         sodipodi:nodetypes="ccccc" /><path
         style="fill:#3d3d3d;fill-opacity:1;fill-rule:nonzero;stroke:none;stroke-width:0.234599;stroke-linecap:round;stroke-linejoin:round;stroke-miterlimit:4;stroke-dasharray:none;stroke-dashoffset:0;stroke-opacity:1;paint-order:markers stroke fill"
         d="m 111.90539,-157.24373 0.37902,-10.22946 2.53575,-0.0605 0.10477,10.17225 z"
         id="path2034"
         inkscape:connector-curvature="0" /><path
         style="fill:#f2ab22;fill-opacity:1;fill-rule:nonzero;stroke:none;stroke-width:0.225968;stroke-linecap:round;stroke-linejoin:round;stroke-miterlimit:4;stroke-dasharray:none;stroke-dashoffset:0;stroke-opacity:1;paint-order:markers stroke fill"
         d="m 125.79187,-169.04404 -14.49212,0.28405 c -10.16354,0.19925 -25.45996,10.6659 -25.45996,10.6659 -3.320839,0.53363 -5.039351,1.74743 -7.22043,1.13145 -1.734854,-0.48997 -2.873418,2.75907 -3.811184,3.64646 -0.937766,0.88738 -4.270697,1.73449 -3.960819,3.7355 0.255447,1.64954 -1.260612,1.45179 -3.369852,3.25068 0,0 -0.708093,-0.14054 -0.94334,0.94795 -0.221792,1.02624 -1.869131,3.02563 -0.910522,3.64042 1.766693,1.13302 6.311367,1.80189 7.585448,1.784 l 0.97433,-0.0137 -0.04184,-2.9792 c -0.05846,-4.16256 3.268553,-7.58438 7.431134,-7.64284 4.162578,-0.0585 7.58442,3.26856 7.642883,7.43113 l 0.04184,2.9792 39.299202,-0.55196 -0.0418,-2.97919 c -0.0585,-4.16257 3.26854,-7.58438 7.43113,-7.64285 4.16257,-0.0585 7.58442,3.26856 7.64289,7.43113 l 0.0418,2.9792 0.5148,-0.007 c 1.07471,-0.0141 2.88353,-0.55387 4.67408,-1.74325 1.55207,-1.03098 2.36749,-3.55412 2.6006,-6.39218 0.19401,-2.36175 -1.14247,-2.50065 -1.14247,-2.50065 0,0 -0.32436,-6.74737 -0.82784,-7.33707 -0.50348,-0.5897 -4.27847,-0.72512 -4.27847,-0.72512 0,0 -13.09489,-9.51507 -19.37949,-9.39187 z m -2.67419,1.68849 c 2.83137,-0.0398 8.26392,3.42235 11.86476,7.60489 0.29812,0.43397 0.12894,1.17107 -0.64672,1.25735 l -19.3973,0.76655 -22.155996,0.82374 -4.165958,0.11891 c -0.600897,0.008 -0.75648,-0.69892 -0.05693,-1.18704 l 4.413002,-2.5988 c 7.508622,-4.84607 13.317532,-6.43144 17.204132,-6.48602 z"
         id="path1983"
         inkscape:connector-curvature="0"
         sodipodi:nodetypes="cccssscscscsssccsssccsscsccccccccccccc" /><path
         style="fill:#ffffff;fill-opacity:1;fill-rule:nonzero;stroke:none;stroke-width:0.225968;stroke-linecap:round;stroke-linejoin:round;stroke-miterlimit:4;stroke-dasharray:none;stroke-dashoffset:0;stroke-opacity:1;paint-order:markers stroke fill"
         d="m 149.66917,-158.26313 c -0.37084,0.0286 -0.42335,0.20508 -0.54598,0.44798 l -2.24506,5.00449 c -0.12757,0.34899 -0.0291,0.5689 0.53325,0.69718 l 2.86629,0.5235 c 0,0 -0.23215,-4.8286 -0.6085,-6.67315 z"
         id="path1990"
         inkscape:connector-curvature="0" /><path
         id="path1995"
         style="opacity:0.2;fill:#ffffff;fill-opacity:1;fill-rule:nonzero;stroke:none;stroke-width:0.225968;stroke-linecap:round;stroke-linejoin:round;stroke-miterlimit:4;stroke-dasharray:none;stroke-dashoffset:0;stroke-opacity:1;paint-order:markers stroke fill"
         d="m 148.91443,-158.35569 -72.2912,2.43964 c -0.208726,0.26578 -0.39475,0.54479 -0.58291,0.8382 l 72.05245,-1.57509 z" /><path
         id="path3"
         style="fill:#d48c18;fill-opacity:1;stroke-width:4;stroke-linecap:round;stroke-linejoin:round"
         d="m 77.663994,-156.8612 c -1.218204,0.59733 -2.102036,2.83189 -2.85564,3.545 -0.937765,0.88738 -4.270876,1.73468 -3.960998,3.73569 0.255448,1.64954 -1.260581,1.45156 -3.36982,3.25045 0,0 -0.708366,-0.14023 -0.943613,0.94826 -0.108458,0.50184 -0.555554,1.23598 -0.874364,1.92753 0.107904,-0.14818 0.226316,-0.26345 0.353983,-0.30851 0.56224,-0.19843 1.223698,-2.05052 2.017448,-2.64583 0.79375,-0.59532 0.595313,0.16537 2.38125,-0.33073 1.785938,-0.49609 2.61276,-2.41432 2.778125,-3.37343 0.165365,-0.95911 2.116667,-2.31512 3.307292,-2.97657 1.143384,-0.63521 0.461077,-2.18532 1.166337,-3.77186 z" /><path
         style="opacity:0.3;fill:#ffffff;fill-opacity:1;fill-rule:nonzero;stroke:none;stroke-width:0.227076;stroke-linecap:round;stroke-linejoin:round;stroke-miterlimit:4;stroke-dasharray:none;stroke-dashoffset:0;stroke-opacity:1;paint-order:markers stroke fill"
         d="m 81.559026,-153.25009 0.01519,1.0818 c 2.331136,-0.0327 4.17495,0.73486 5.93497,2.26377 0.677539,0.58857 1.226469,1.5379 1.248739,1.25397 0.04433,-0.56522 -0.430588,-1.57988 -1.139565,-2.23473 -1.332062,-1.23036 -3.441298,-2.40157 -6.059337,-2.36481 z m 0,0 0.01519,1.0818 c -2.331135,0.0327 -4.152663,0.85182 -5.869051,2.42956 -0.660741,0.60737 -1.182794,1.57173 -1.213029,1.28854 -0.06018,-0.56375 0.386048,-1.59135 1.076354,-2.26585 1.296982,-1.26729 3.372495,-2.49727 5.990533,-2.53405 z"
         id="circle2004"
         inkscape:connector-curvature="0" /><path
         id="path2019"
         d="m 135.90865,-154.01342 0.0152,1.08179 c 2.33113,-0.0327 4.17495,0.73486 5.93496,2.26377 0.67755,0.58858 1.22647,1.5379 1.24875,1.25397 0.0443,-0.56522 -0.4306,-1.57988 -1.13957,-2.23473 -1.33206,-1.23036 -3.44129,-2.40156 -6.05934,-2.3648 z m 0,0 0.0152,1.08179 c -2.33114,0.0327 -4.15267,0.85182 -5.86906,2.42956 -0.66074,0.60737 -1.1828,1.57174 -1.21303,1.28854 -0.0601,-0.56375 0.38605,-1.59135 1.07636,-2.26585 1.29698,-1.26729 3.37249,-2.49726 5.99053,-2.53404 z"
         style="opacity:0.3;fill:#ffffff;fill-opacity:1;fill-rule:nonzero;stroke:none;stroke-width:0.227076;stroke-linecap:round;stroke-linejoin:round;stroke-miterlimit:4;stroke-dasharray:none;stroke-dashoffset:0;stroke-opacity:1;paint-order:markers stroke fill"
         inkscape:connector-curvature="0" /><path
         style="opacity:0.2;fill:#ffffff;fill-opacity:1;fill-rule:nonzero;stroke:none;stroke-width:0.225968;stroke-linecap:round;stroke-linejoin:round;stroke-miterlimit:4;stroke-dasharray:none;stroke-dashoffset:0;stroke-opacity:1;paint-order:markers stroke fill"
         d="m 127.8298,-141.48983 -37.078515,0.52076 37.168775,-2.69645 z"
         id="path2021"
         inkscape:connector-curvature="0" /><rect
         style="opacity:0.5;fill:#313d4e;fill-opacity:1;fill-rule:nonzero;stroke:none;stroke-width:0.232923;stroke-linecap:round;stroke-linejoin:round;stroke-miterlimit:4;stroke-dasharray:none;stroke-dashoffset:0;stroke-opacity:1;paint-order:markers stroke fill"
         id="rect2023"
         width="3.3879545"
         height="1.224219"
         x="109.7114"
         y="-153.76251"
         ry="0.22776166"
         transform="rotate(-0.80466193)" /><rect
         ry="0.22776166"
         y="-153.76251"
         x="131.66193"
         height="1.224219"
         width="3.3879545"
         id="rect2025"
         style="opacity:0.5;fill:#313d4e;fill-opacity:1;fill-rule:nonzero;stroke:none;stroke-width:0.232923;stroke-linecap:round;stroke-linejoin:round;stroke-miterlimit:4;stroke-dasharray:none;stroke-dashoffset:0;stroke-opacity:1;paint-order:markers stroke fill"
         transform="rotate(-0.80466193)" /><path
         id="path2099"
         style="opacity:0.392;fill:none;fill-opacity:1;fill-rule:nonzero;stroke:#787878;stroke-width:0.225968;stroke-linecap:round;stroke-linejoin:round;stroke-miterlimit:4;stroke-dasharray:none;stroke-dashoffset:0;stroke-opacity:1;paint-order:markers stroke fill"
         d="m 113.81787,-141.42189 14.01728,-0.19687 0.0849,-2.04676 c 0.16399,-5.25611 3.22347,-7.38419 5.84937,-8.12748 1.01036,-0.28599 1.35072,-7.53737 1.35072,-7.53737 m -45.282858,0.6067 0.247684,17.63507 23.732894,-0.33333 -0.22829,-16.25472 0.093,-9.46055 m 9.43507,-0.21842 c 2.83137,-0.0398 8.26392,3.42236 11.86476,7.6049 0.29812,0.43397 0.12894,1.17107 -0.64672,1.25735 l -19.3973,0.76655 -22.155997,0.82374 -4.165958,0.11891 c -0.600897,0.008 -0.756479,-0.69892 -0.05693,-1.18705 l 4.413002,-2.5988 c 7.508623,-4.84606 13.317523,-6.43143 17.204133,-6.48601 z"
         inkscape:connector-curvature="0" /><path
         style="fill:#ff8d21;fill-opacity:1;fill-rule:nonzero;stroke:none;stroke-width:0.225968;stroke-linecap:round;stroke-linejoin:round;stroke-miterlimit:4;stroke-dasharray:none;stroke-dashoffset:0;stroke-opacity:1;paint-order:markers stroke fill"
         d="m 148.9915,-157.52162 -2.11337,4.71096 c -0.12757,0.34899 -0.0291,0.5689 0.53325,0.69718 l 1.71743,0.31367 z"
         id="path2102"
         inkscape:connector-curvature="0" /><path
         id="path1985"
         style="fill:#848484;fill-opacity:1;fill-rule:nonzero;stroke:none;stroke-width:0.225968;stroke-linecap:round;stroke-linejoin:round;stroke-miterlimit:4;stroke-dasharray:none;stroke-dashoffset:0;stroke-opacity:1;paint-order:markers stroke fill"
         d="m 75.646546,-153.07746 c -0.260039,6.5e-4 -0.857602,0.036 -1.595768,0.26769 -1.319453,0.74253 -3.455043,1.60444 -3.203422,3.22926 0.05464,0.35285 0.01328,0.61057 -0.08268,0.83199 0.04204,0.26046 0.09823,0.51999 0.185002,0.77825 3.617002,-1.6412 4.838981,-5.10408 4.838981,-5.10408 0,0 -0.05033,-0.003 -0.142109,-0.003 z" /><path
         style="fill:#3f3f3f;fill-opacity:1;fill-rule:nonzero;stroke:none;stroke-width:0.225968;stroke-linecap:round;stroke-linejoin:round;stroke-miterlimit:4;stroke-dasharray:none;stroke-dashoffset:0;stroke-opacity:1;paint-order:markers stroke fill"
         d="m 74.290665,-152.43106 c -0.645754,0.22222 -1.335189,0.63249 -2.075549,1.2367 0,0 0.31857,0.42259 0.122063,0.94706 -0.196508,0.52447 -0.715655,0.56056 -0.715655,0.56056 l 0.38554,1.14758 c 2.106187,-1.32248 3.18254,-3.2191 3.587103,-4.07943 -0.414888,-0.0305 -0.848456,0.0314 -1.303502,0.18753 z"
         id="path2107"
         inkscape:connector-curvature="0" /></g><g
       id="g25"
       inkscape:transform-center-x="-52.009958"
       inkscape:transform-center-y="-18.458308"
       transform="matrix(1.8765379,0.04343086,-0.04343086,1.8765379,41.546655,124.69436)"
       style="opacity:0.6"><path
         style="fill:#76a5de;fill-opacity:1;fill-rule:nonzero;stroke:none;stroke-width:0.225968;stroke-linecap:round;stroke-linejoin:round;stroke-miterlimit:4;stroke-dasharray:none;stroke-dashoffset:0;stroke-opacity:1;paint-order:markers stroke fill"
         d="m 39.780777,-157.22114 -7.984643,-5.46765 -10.312135,-4.31649 -9.849993,-1.0967 -12.34974082,0.27755 -11.05783118,8.63898 2.9357598,3.70553 48.9790822,0.68791 z"
         id="path4"
         inkscape:connector-curvature="0" /><path
         inkscape:connector-curvature="0"
         id="path5"
         d="m 52.359446,-139.97129 -15.074009,-0.21171 -1.222754,-11.01593 17.775049,0.24965 z"
         style="fill:#1e1e1e;fill-opacity:1;fill-rule:nonzero;stroke:none;stroke-width:0.677911;stroke-linecap:round;stroke-linejoin:round;stroke-miterlimit:4;stroke-dasharray:none;stroke-dashoffset:0;stroke-opacity:1;paint-order:markers stroke fill" /><path
         style="fill:#1e1e1e;fill-opacity:1;fill-rule:nonzero;stroke:none;stroke-width:0.677911;stroke-linecap:round;stroke-linejoin:round;stroke-miterlimit:4;stroke-dasharray:none;stroke-dashoffset:0;stroke-opacity:1;paint-order:markers stroke fill"
         d="m -2.0137748,-140.73496 -15.0740122,-0.21171 -1.222748,-11.01592 17.77504625,0.24965 z"
         id="path6"
         inkscape:connector-curvature="0" /><path
         style="opacity:0.294;fill:#ffffff;fill-opacity:1;fill-rule:nonzero;stroke:none;stroke-width:0.225968;stroke-linecap:round;stroke-linejoin:round;stroke-miterlimit:4;stroke-dasharray:none;stroke-dashoffset:0;stroke-opacity:1;paint-order:markers stroke fill"
         d="m 34.633015,-158.82359 c -16.74733,-5.72568 -27.3561811,-6.09063 -41.3480524,-4.44636 l -4.5352036,5.81528 46.767929,1.583 z"
         id="path7"
         inkscape:connector-curvature="0"
         sodipodi:nodetypes="ccccc" /><path
         style="fill:#3d3d3d;fill-opacity:1;fill-rule:nonzero;stroke:none;stroke-width:0.225968;stroke-linecap:round;stroke-linejoin:round;stroke-miterlimit:4;stroke-dasharray:none;stroke-dashoffset:0;stroke-opacity:1;paint-order:markers stroke fill"
         d="m 33.519782,-161.02626 5.776244,2.84573 -0.127461,2.15416 -5.383248,-0.62004 z"
         id="path8"
         inkscape:connector-curvature="0"
         sodipodi:nodetypes="ccccc" /><path
         style="fill:#3d3d3d;fill-opacity:1;fill-rule:nonzero;stroke:none;stroke-width:0.234599;stroke-linecap:round;stroke-linejoin:round;stroke-miterlimit:4;stroke-dasharray:none;stroke-dashoffset:0;stroke-opacity:1;paint-order:markers stroke fill"
         d="m 14.63748,-157.24374 -0.379015,-10.22945 -2.53576,-0.0605 -0.104756,10.17225 z"
         id="path9"
         inkscape:connector-curvature="0" /><path
         style="fill:#398ef3;fill-opacity:1;fill-rule:nonzero;stroke:none;stroke-width:0.225968;stroke-linecap:round;stroke-linejoin:round;stroke-miterlimit:4;stroke-dasharray:none;stroke-dashoffset:0;stroke-opacity:1;paint-order:markers stroke fill"
         d="M 0.75099805,-169.04405 15.243121,-168.76 c 10.16354,0.19926 25.459958,10.66591 25.459958,10.66591 3.320841,0.53362 5.039357,1.74743 7.220431,1.13145 1.73485,-0.48996 2.873421,2.75908 3.811185,3.64646 0.937765,0.88737 4.2707,1.73449 3.96082,3.7355 -0.255449,1.64954 1.260613,1.45179 3.369854,3.25067 0,0 0.708086,-0.14053 0.943335,0.94796 0.221794,1.02624 1.869135,3.02563 0.910524,3.64041 -1.766692,1.13302 -6.311367,1.80189 -7.585444,1.784 l -0.974339,-0.0137 0.04187,-2.97919 c 0.05847,-4.16258 -3.268554,-7.58439 -7.431135,-7.64285 -4.162572,-0.0585 -7.584416,3.26857 -7.642885,7.43113 l -0.04187,2.9792 -39.2992107,-0.55196 0.041846,-2.9792 c 0.058463,-4.16256 -3.2685408,-7.58437 -7.4311304,-7.64284 -4.1625689,-0.0585 -7.5844199,3.26856 -7.6428829,7.43113 l -0.04185,2.9792 -0.5148,-0.007 c -1.074708,-0.0141 -2.883536,-0.55387 -4.674079,-1.74325 -1.552075,-1.03097 -2.367492,-3.55411 -2.600608,-6.39217 -0.194002,-2.36175 1.14247,-2.50065 1.14247,-2.50065 0,0 0.324359,-6.74737 0.827841,-7.33707 0.503481,-0.5897 4.278474,-0.72512 4.278474,-0.72512 0,0 13.0948872,-9.51507 19.37948705,-9.39187 z m 2.67419115,1.6885 c -2.83137035,-0.0397 -8.2639171,3.42235 -11.8647595,7.60489 -0.2981239,0.43397 -0.1289388,1.17107 0.6467155,1.25735 l 19.3973118,0.76654 22.155994,0.82374 4.16595,0.11892 c 0.600899,0.008 0.75648,-0.69892 0.05694,-1.18704 l -4.413002,-2.5988 c -7.508606,-4.84607 -13.317523,-6.43144 -17.204123,-6.48602 z"
         id="path10"
         inkscape:connector-curvature="0"
         sodipodi:nodetypes="cccssscscscsssccsssccsscsccccccccccccc" /><path
         style="fill:#ffffff;fill-opacity:1;fill-rule:nonzero;stroke:none;stroke-width:0.225968;stroke-linecap:round;stroke-linejoin:round;stroke-miterlimit:4;stroke-dasharray:none;stroke-dashoffset:0;stroke-opacity:1;paint-order:markers stroke fill"
         d="m -23.126299,-158.26313 c 0.370835,0.0286 0.423353,0.20507 0.545983,0.44798 l 2.24506,5.00449 c 0.127562,0.34898 0.02911,0.5689 -0.533252,0.69718 l -2.866295,0.5235 c 0,0 0.232154,-4.8286 0.608504,-6.67315 z"
         id="path11"
         inkscape:connector-curvature="0" /><path
         id="path12"
         style="opacity:0.2;fill:#ffffff;fill-opacity:1;fill-rule:nonzero;stroke:none;stroke-width:0.225968;stroke-linecap:round;stroke-linejoin:round;stroke-miterlimit:4;stroke-dasharray:none;stroke-dashoffset:0;stroke-opacity:1;paint-order:markers stroke fill"
         d="m -22.371554,-158.35569 72.291199,2.43965 c 0.208723,0.26577 0.39475,0.54478 0.582909,0.83819 l -72.05245,-1.57509 z" /><path
         id="path13"
         style="fill:#306fb7;fill-opacity:1;stroke-width:4;stroke-linecap:round;stroke-linejoin:round"
         d="m 48.878879,-156.86121 c 1.218199,0.59734 2.102037,2.83189 2.855636,3.54501 0.937764,0.88737 4.270882,1.73468 3.961003,3.73569 -0.25545,1.64954 1.260579,1.45156 3.36982,3.25045 0,0 0.708361,-0.14023 0.94361,0.94827 0.108458,0.50182 0.555552,1.23597 0.874365,1.92752 -0.107901,-0.14818 -1.241287,1.36503 -1.329638,0.61753 -0.221584,-1.87474 -2.118933,-1.33953 -2.912682,-1.93484 -0.793748,-0.59533 1.275571,-1.47165 -0.510362,-1.96776 -1.785933,-0.49609 -4.167191,-1.78594 -4.332557,-2.74505 -0.165365,-0.95911 -0.562233,-2.9435 -1.75286,-3.60496 -1.143383,-0.6352 -0.461075,-2.18532 -1.166335,-3.77186 z"
         sodipodi:nodetypes="csscscsscssc" /><path
         style="opacity:0.3;fill:#ffffff;fill-opacity:1;fill-rule:nonzero;stroke:none;stroke-width:0.227076;stroke-linecap:round;stroke-linejoin:round;stroke-miterlimit:4;stroke-dasharray:none;stroke-dashoffset:0;stroke-opacity:1;paint-order:markers stroke fill"
         d="m 44.322389,-152.45635 -0.01521,1.0818 c -2.33113,-0.0328 -4.174941,0.73487 -5.934964,2.26378 -0.677541,0.58857 -1.226473,1.53789 -1.248743,1.25397 -0.04434,-0.56523 0.430586,-1.57989 1.139569,-2.23474 1.332063,-1.23036 3.441293,-2.40156 6.059337,-2.36481 z m 0,0 -0.01521,1.0818 c 2.33114,0.0328 4.152662,0.85182 5.869059,2.42956 0.660734,0.60737 1.182789,1.57174 1.213025,1.28854 0.06019,-0.56375 -0.386046,-1.59134 -1.076357,-2.26584 -1.296975,-1.26729 -3.372493,-2.49727 -5.990528,-2.53406 z"
         id="path14"
         inkscape:connector-curvature="0" /><path
         id="path15"
         d="m -9.3657826,-154.01343 -0.015199,1.0818 c -2.3311294,-0.0328 -4.1749514,0.73486 -5.9349664,2.26377 -0.677542,0.58858 -1.226469,1.5379 -1.248743,1.25397 -0.04427,-0.56522 0.430599,-1.57988 1.139566,-2.23473 1.332059,-1.23036 3.441296,-2.40156 6.0593376,-2.36481 z m 0,0 -0.015199,1.0818 c 2.3311411,0.0328 4.1526671,0.85182 5.8690594,2.42956 0.6607358,0.60737 1.1827944,1.57173 1.2130243,1.28854 0.060119,-0.56375 -0.3860502,-1.59134 -1.0763556,-2.26585 -1.2969812,-1.26729 -3.3724921,-2.49726 -5.9905339,-2.53405 z"
         style="opacity:0.3;fill:#ffffff;fill-opacity:1;fill-rule:nonzero;stroke:none;stroke-width:0.227076;stroke-linecap:round;stroke-linejoin:round;stroke-miterlimit:4;stroke-dasharray:none;stroke-dashoffset:0;stroke-opacity:1;paint-order:markers stroke fill"
         inkscape:connector-curvature="0" /><path
         style="opacity:0.2;fill:#ffffff;fill-opacity:1;fill-rule:nonzero;stroke:none;stroke-width:0.225968;stroke-linecap:round;stroke-linejoin:round;stroke-miterlimit:4;stroke-dasharray:none;stroke-dashoffset:0;stroke-opacity:1;paint-order:markers stroke fill"
         d="m -1.2869314,-141.48984 37.0785214,0.52077 -37.1687765,-2.69645 z"
         id="path16"
         inkscape:connector-curvature="0" /><rect
         style="opacity:0.5;fill:#313d4e;fill-opacity:1;fill-rule:nonzero;stroke:none;stroke-width:0.232923;stroke-linecap:round;stroke-linejoin:round;stroke-miterlimit:4;stroke-dasharray:none;stroke-dashoffset:0;stroke-opacity:1;paint-order:markers stroke fill"
         id="rect16"
         width="3.3879545"
         height="1.224219"
         x="-16.818987"
         y="-155.53963"
         ry="0.22776166"
         transform="matrix(-0.99990138,-0.01404354,-0.01404354,0.99990138,0,0)" /><rect
         ry="0.22776166"
         y="-155.53963"
         x="5.1315374"
         height="1.224219"
         width="3.3879545"
         id="rect17"
         style="opacity:0.5;fill:#313d4e;fill-opacity:1;fill-rule:nonzero;stroke:none;stroke-width:0.232923;stroke-linecap:round;stroke-linejoin:round;stroke-miterlimit:4;stroke-dasharray:none;stroke-dashoffset:0;stroke-opacity:1;paint-order:markers stroke fill"
         transform="matrix(-0.99990138,-0.01404354,-0.01404354,0.99990138,0,0)" /><path
         id="path17"
         style="opacity:0.392;fill:none;fill-opacity:1;fill-rule:nonzero;stroke:#787878;stroke-width:0.225968;stroke-linecap:round;stroke-linejoin:round;stroke-miterlimit:4;stroke-dasharray:none;stroke-dashoffset:0;stroke-opacity:1;paint-order:markers stroke fill"
         d="m 12.724996,-141.42189 -14.0172775,-0.19688 -0.084902,-2.04675 c -0.1639906,-5.25611 -3.2234771,-7.38419 -5.8493775,-8.12748 -1.0103539,-0.28599 -1.3507124,-7.53737 -1.3507124,-7.53737 m 45.2828594,0.60669 -0.247686,17.63508 -23.732901,-0.33333 0.228298,-16.25472 -0.09307,-9.46054 m -9.4350758,-0.21843 c -2.83137033,-0.0397 -8.2639169,3.42236 -11.8647593,7.6049 -0.2981249,0.43397 -0.1289388,1.17107 0.6467154,1.25735 l 19.3973107,0.76654 22.155993,0.82374 4.165951,0.11892 c 0.600898,0.008 0.756489,-0.69892 0.05694,-1.18705 l -4.413012,-2.5988 c -7.508606,-4.84606 -13.317513,-6.43143 -17.204123,-6.48601 z"
         inkscape:connector-curvature="0" /><path
         style="fill:#ff8d21;fill-opacity:1;fill-rule:nonzero;stroke:none;stroke-width:0.225968;stroke-linecap:round;stroke-linejoin:round;stroke-miterlimit:4;stroke-dasharray:none;stroke-dashoffset:0;stroke-opacity:1;paint-order:markers stroke fill"
         d="m -22.448625,-157.52162 2.113369,4.71096 c 0.127562,0.34898 0.02911,0.5689 -0.533252,0.69718 l -1.717435,0.31367 z"
         id="path18"
         inkscape:connector-curvature="0" /></g><g
       id="g2"
       transform="matrix(1.8770405,0,0,1.8770405,139.42656,129.81668)"
       style="opacity:0.6"><circle
         style="opacity:1;fill:#373737;fill-opacity:1;fill-rule:nonzero;stroke:none;stroke-width:0.153732;stroke-linecap:round;stroke-linejoin:round;stroke-miterlimit:4;stroke-dasharray:none;stroke-dashoffset:0;stroke-opacity:1;paint-order:markers stroke fill"
         id="circle2017"
         cx="87.234734"
         cy="-146.73039"
         r="6.68365" /><path
         style="opacity:1;fill:#ececec;fill-opacity:1;fill-rule:nonzero;stroke:none;stroke-width:0.0546398;stroke-linecap:round;stroke-linejoin:round;stroke-miterlimit:4;stroke-dasharray:none;stroke-dashoffset:0;stroke-opacity:1;paint-order:markers stroke fill"
         d="m 86.026827,-151.48145 c 0,1.00612 0.297355,1.0461 0.320502,2.54891 a 2.3755137,2.3755137 0 0 0 -0.930876,0.67362 c -1.419719,-0.48594 -1.366487,-0.78093 -2.322841,-1.09166 l -0.746512,2.29749 c 0.955628,0.31051 1.086549,0.0412 2.517723,0.48118 a 2.3755137,2.3755137 0 0 0 0.355842,1.09864 c -0.898738,1.19628 -1.162934,1.05559 -1.753408,1.86831 l 1.954375,1.41995 c 0.59039,-0.8126 0.375126,-1.02045 1.234674,-2.2444 a 2.3755137,2.3755137 0 0 0 0.578416,0.0745 2.3755137,2.3755137 0 0 0 0.578217,-0.0737 c 0.859015,1.22337 0.643911,1.43135 1.234199,2.24382 l 1.954381,-1.41995 c -0.590628,-0.81294 -0.854843,-0.67197 -1.754153,-1.86926 a 2.3755137,2.3755137 0 0 0 0.354906,-1.09696 c 1.433131,-0.44087 1.563673,-0.17114 2.519757,-0.4818 l -0.746487,-2.29754 c -0.956783,0.31089 -0.903031,0.60605 -2.324701,1.09237 a 2.3755137,2.3755137 0 0 0 -0.928772,-0.67424 c 0.0231,-1.5032 0.320509,-1.54309 0.320509,-2.5493 z"
         id="circle2059"
         inkscape:connector-curvature="0" /><path
         style="color:#000000;font-style:normal;font-variant:normal;font-weight:normal;font-stretch:normal;font-size:medium;line-height:normal;font-family:sans-serif;font-variant-ligatures:normal;font-variant-position:normal;font-variant-caps:normal;font-variant-numeric:normal;font-variant-alternates:normal;font-feature-settings:normal;text-indent:0;text-align:start;text-decoration:none;text-decoration-line:none;text-decoration-style:solid;text-decoration-color:#000000;letter-spacing:normal;word-spacing:normal;text-transform:none;writing-mode:lr-tb;direction:ltr;text-orientation:mixed;dominant-baseline:auto;baseline-shift:baseline;text-anchor:start;white-space:normal;shape-padding:0;clip-rule:nonzero;display:inline;overflow:visible;visibility:visible;opacity:1;isolation:auto;mix-blend-mode:normal;color-interpolation:sRGB;color-interpolation-filters:linearRGB;solid-color:#000000;solid-opacity:1;vector-effect:none;fill:#dbdbdb;fill-opacity:1;fill-rule:nonzero;stroke:none;stroke-width:0.677911;stroke-linecap:round;stroke-linejoin:round;stroke-miterlimit:4;stroke-dasharray:none;stroke-dashoffset:0;stroke-opacity:1;paint-order:markers stroke fill;color-rendering:auto;image-rendering:auto;shape-rendering:auto;text-rendering:auto;enable-background:accumulate"
         d="m 87.234683,-151.8243 c -2.809289,0 -5.093843,2.28455 -5.093843,5.09385 0,2.80929 2.284554,5.09399 5.093843,5.09399 2.809296,0 5.093991,-2.2847 5.093991,-5.09399 0,-2.8093 -2.284695,-5.09385 -5.093991,-5.09385 z m 0,0.6779 c 2.442929,0 4.416093,1.97302 4.416093,4.41595 0,2.44292 -1.973164,4.41609 -4.416093,4.41609 -2.442928,0 -4.415945,-1.97317 -4.415945,-4.41609 0,-2.44293 1.973017,-4.41595 4.415945,-4.41595 z"
         id="circle2055"
         inkscape:connector-curvature="0" /></g><g
       id="g1"
       transform="matrix(1.8770405,0,0,1.8770405,139.42656,129.81668)"
       style="opacity:0.6"><circle
         r="6.68365"
         cy="-146.73039"
         cx="32.879768"
         id="circle2087"
         style="opacity:1;fill:#373737;fill-opacity:1;fill-rule:nonzero;stroke:none;stroke-width:0.153732;stroke-linecap:round;stroke-linejoin:round;stroke-miterlimit:4;stroke-dasharray:none;stroke-dashoffset:0;stroke-opacity:1;paint-order:markers stroke fill" /><path
         id="path2089"
         d="m 31.671835,-151.48145 c 0,1.00612 0.297355,1.0461 0.3205,2.54891 a 2.3755137,2.3755137 0 0 0 -0.93087,0.67362 c -1.419716,-0.48594 -1.366488,-0.78093 -2.322836,-1.09166 l -0.746523,2.29749 c 0.95563,0.31051 1.086551,0.0412 2.517726,0.48118 a 2.3755137,2.3755137 0 0 0 0.355844,1.09864 c -0.89874,1.19628 -1.162936,1.05559 -1.753413,1.86831 l 1.954379,1.41995 c 0.590391,-0.8126 0.375125,-1.02045 1.234672,-2.2444 a 2.3755137,2.3755137 0 0 0 0.578414,0.0745 2.3755137,2.3755137 0 0 0 0.578216,-0.0737 c 0.85902,1.22337 0.643917,1.43135 1.234206,2.24382 l 1.95438,-1.41995 c -0.590627,-0.81294 -0.854847,-0.67197 -1.754154,-1.86926 a 2.3755137,2.3755137 0 0 0 0.354911,-1.09696 c 1.433126,-0.44087 1.563664,-0.17114 2.519751,-0.4818 l -0.746486,-2.29754 c -0.956776,0.31089 -0.903029,0.60605 -2.324702,1.09237 a 2.3755137,2.3755137 0 0 0 -0.92877,-0.67424 c 0.0231,-1.5032 0.320502,-1.54309 0.320502,-2.5493 z"
         style="opacity:1;fill:#ececec;fill-opacity:1;fill-rule:nonzero;stroke:none;stroke-width:0.0546398;stroke-linecap:round;stroke-linejoin:round;stroke-miterlimit:4;stroke-dasharray:none;stroke-dashoffset:0;stroke-opacity:1;paint-order:markers stroke fill"
         inkscape:connector-curvature="0" /><path
         inkscape:connector-curvature="0"
         id="path2091"
         d="m 32.879693,-151.8243 c -2.809292,0 -5.093847,2.28455 -5.093847,5.09385 0,2.80929 2.284555,5.09399 5.093847,5.09399 2.809298,0 5.093995,-2.2847 5.093995,-5.09399 0,-2.8093 -2.284697,-5.09385 -5.093995,-5.09385 z m 0,0.6779 c 2.442928,0 4.41609,1.97302 4.41609,4.41595 0,2.44292 -1.973162,4.41609 -4.41609,4.41609 -2.442925,0 -4.415942,-1.97317 -4.415942,-4.41609 0,-2.44293 1.973017,-4.41595 4.415942,-4.41595 z"
         style="color:#000000;font-style:normal;font-variant:normal;font-weight:normal;font-stretch:normal;font-size:medium;line-height:normal;font-family:sans-serif;font-variant-ligatures:normal;font-variant-position:normal;font-variant-caps:normal;font-variant-numeric:normal;font-variant-alternates:normal;font-feature-settings:normal;text-indent:0;text-align:start;text-decoration:none;text-decoration-line:none;text-decoration-style:solid;text-decoration-color:#000000;letter-spacing:normal;word-spacing:normal;text-transform:none;writing-mode:lr-tb;direction:ltr;text-orientation:mixed;dominant-baseline:auto;baseline-shift:baseline;text-anchor:start;white-space:normal;shape-padding:0;clip-rule:nonzero;display:inline;overflow:visible;visibility:visible;opacity:1;isolation:auto;mix-blend-mode:normal;color-interpolation:sRGB;color-interpolation-filters:linearRGB;solid-color:#000000;solid-opacity:1;vector-effect:none;fill:#dbdbdb;fill-opacity:1;fill-rule:nonzero;stroke:none;stroke-width:0.677911;stroke-linecap:round;stroke-linejoin:round;stroke-miterlimit:4;stroke-dasharray:none;stroke-dashoffset:0;stroke-opacity:1;paint-order:markers stroke fill;color-rendering:auto;image-rendering:auto;shape-rendering:auto;text-rendering:auto;enable-background:accumulate" /></g><g
       id="g22"
       transform="matrix(-1.8770405,0,0,1.8770405,193.69484,129.81668)"
       style="opacity:0.6"><circle
         style="opacity:1;fill:#373737;fill-opacity:1;fill-rule:nonzero;stroke:none;stroke-width:0.153732;stroke-linecap:round;stroke-linejoin:round;stroke-miterlimit:4;stroke-dasharray:none;stroke-dashoffset:0;stroke-opacity:1;paint-order:markers stroke fill"
         id="circle20"
         cx="87.234734"
         cy="-146.73039"
         r="6.68365" /><path
         style="opacity:1;fill:#ececec;fill-opacity:1;fill-rule:nonzero;stroke:none;stroke-width:0.0546398;stroke-linecap:round;stroke-linejoin:round;stroke-miterlimit:4;stroke-dasharray:none;stroke-dashoffset:0;stroke-opacity:1;paint-order:markers stroke fill"
         d="m 86.026827,-151.48145 c 0,1.00612 0.297355,1.0461 0.320502,2.54891 a 2.3755137,2.3755137 0 0 0 -0.930876,0.67362 c -1.419719,-0.48594 -1.366487,-0.78093 -2.322841,-1.09166 l -0.746512,2.29749 c 0.955628,0.31051 1.086549,0.0412 2.517723,0.48118 a 2.3755137,2.3755137 0 0 0 0.355842,1.09864 c -0.898738,1.19628 -1.162934,1.05559 -1.753408,1.86831 l 1.954375,1.41995 c 0.59039,-0.8126 0.375126,-1.02045 1.234674,-2.2444 a 2.3755137,2.3755137 0 0 0 0.578416,0.0745 2.3755137,2.3755137 0 0 0 0.578217,-0.0737 c 0.859015,1.22337 0.643911,1.43135 1.234199,2.24382 l 1.954381,-1.41995 c -0.590628,-0.81294 -0.854843,-0.67197 -1.754153,-1.86926 a 2.3755137,2.3755137 0 0 0 0.354906,-1.09696 c 1.433131,-0.44087 1.563673,-0.17114 2.519757,-0.4818 l -0.746487,-2.29754 c -0.956783,0.31089 -0.903031,0.60605 -2.324701,1.09237 a 2.3755137,2.3755137 0 0 0 -0.928772,-0.67424 c 0.0231,-1.5032 0.320509,-1.54309 0.320509,-2.5493 z"
         id="path21"
         inkscape:connector-curvature="0" /><path
         style="color:#000000;font-style:normal;font-variant:normal;font-weight:normal;font-stretch:normal;font-size:medium;line-height:normal;font-family:sans-serif;font-variant-ligatures:normal;font-variant-position:normal;font-variant-caps:normal;font-variant-numeric:normal;font-variant-alternates:normal;font-feature-settings:normal;text-indent:0;text-align:start;text-decoration:none;text-decoration-line:none;text-decoration-style:solid;text-decoration-color:#000000;letter-spacing:normal;word-spacing:normal;text-transform:none;writing-mode:lr-tb;direction:ltr;text-orientation:mixed;dominant-baseline:auto;baseline-shift:baseline;text-anchor:start;white-space:normal;shape-padding:0;clip-rule:nonzero;display:inline;overflow:visible;visibility:visible;opacity:1;isolation:auto;mix-blend-mode:normal;color-interpolation:sRGB;color-interpolation-filters:linearRGB;solid-color:#000000;solid-opacity:1;vector-effect:none;fill:#dbdbdb;fill-opacity:1;fill-rule:nonzero;stroke:none;stroke-width:0.677911;stroke-linecap:round;stroke-linejoin:round;stroke-miterlimit:4;stroke-dasharray:none;stroke-dashoffset:0;stroke-opacity:1;paint-order:markers stroke fill;color-rendering:auto;image-rendering:auto;shape-rendering:auto;text-rendering:auto;enable-background:accumulate"
         d="m 87.234683,-151.8243 c -2.809289,0 -5.093843,2.28455 -5.093843,5.09385 0,2.80929 2.284554,5.09399 5.093843,5.09399 2.809296,0 5.093991,-2.2847 5.093991,-5.09399 0,-2.8093 -2.284695,-5.09385 -5.093991,-5.09385 z m 0,0.6779 c 2.442929,0 4.416093,1.97302 4.416093,4.41595 0,2.44292 -1.973164,4.41609 -4.416093,4.41609 -2.442928,0 -4.415945,-1.97317 -4.415945,-4.41609 0,-2.44293 1.973017,-4.41595 4.415945,-4.41595 z"
         id="path22"
         inkscape:connector-curvature="0" /></g><g
       id="g24"
       transform="matrix(-1.8770405,0,0,1.8770405,193.69484,132.38391)"
       style="opacity:0.6"><path
         id="circle22"
         style="opacity:1;fill:#373737;stroke-width:0.153732;stroke-linecap:round;stroke-linejoin:round;paint-order:markers stroke fill"
         d="m 39.563418,-146.73039 c 0,3.69128 2.401624,4.69293 -5.261515,5.29459 -4.408135,0.34609 -8.105785,-1.60331 -8.105785,-5.29459 0,-3.69128 2.992372,-6.68365 6.68365,-6.68365 3.691278,0 6.68365,2.99237 6.68365,6.68365 z"
         sodipodi:nodetypes="sssss" /><path
         id="path23"
         d="m 31.671835,-151.48145 c 0,1.00612 0.297355,1.0461 0.3205,2.54891 a 2.3755137,2.3755137 0 0 0 -0.93087,0.67362 c -1.419716,-0.48594 -1.366488,-0.78093 -2.322836,-1.09166 l -0.746523,2.29749 c 0.95563,0.31051 1.086551,0.0412 2.517726,0.48118 a 2.3755137,2.3755137 0 0 0 0.355844,1.09864 c -0.89874,1.19628 -1.162936,1.05559 -1.753413,1.86831 l 1.954379,1.41995 c 0.590391,-0.8126 0.375125,-1.02045 1.234672,-2.2444 a 2.3755137,2.3755137 0 0 0 0.578414,0.0745 2.3755137,2.3755137 0 0 0 0.578216,-0.0737 c 0.85902,1.22337 0.643917,1.43135 1.234206,2.24382 l 1.95438,-1.41995 c -0.590627,-0.81294 -0.854847,-0.67197 -1.754154,-1.86926 a 2.3755137,2.3755137 0 0 0 0.354911,-1.09696 c 1.433126,-0.44087 1.563664,-0.17114 2.519751,-0.4818 l -0.746486,-2.29754 c -0.956776,0.31089 -0.903029,0.60605 -2.324702,1.09237 a 2.3755137,2.3755137 0 0 0 -0.92877,-0.67424 c 0.0231,-1.5032 0.320502,-1.54309 0.320502,-2.5493 z"
         style="opacity:1;fill:#ececec;fill-opacity:1;fill-rule:nonzero;stroke:none;stroke-width:0.0546398;stroke-linecap:round;stroke-linejoin:round;stroke-miterlimit:4;stroke-dasharray:none;stroke-dashoffset:0;stroke-opacity:1;paint-order:markers stroke fill"
         inkscape:connector-curvature="0" /><path
         inkscape:connector-curvature="0"
         id="path24"
         d="m 32.879693,-151.8243 c -2.809292,0 -5.093847,2.28455 -5.093847,5.09385 0,2.80929 2.284555,5.09399 5.093847,5.09399 2.809298,0 5.093995,-2.2847 5.093995,-5.09399 0,-2.8093 -2.284697,-5.09385 -5.093995,-5.09385 z m 0,0.6779 c 2.442928,0 4.41609,1.97302 4.41609,4.41595 0,2.44292 -1.973162,4.41609 -4.41609,4.41609 -2.442925,0 -4.415942,-1.97317 -4.415942,-4.41609 0,-2.44293 1.973017,-4.41595 4.415942,-4.41595 z"
         style="color:#000000;font-style:normal;font-variant:normal;font-weight:normal;font-stretch:normal;font-size:medium;line-height:normal;font-family:sans-serif;font-variant-ligatures:normal;font-variant-position:normal;font-variant-caps:normal;font-variant-numeric:normal;font-variant-alternates:normal;font-feature-settings:normal;text-indent:0;text-align:start;text-decoration:none;text-decoration-line:none;text-decoration-style:solid;text-decoration-color:#000000;letter-spacing:normal;word-spacing:normal;text-transform:none;writing-mode:lr-tb;direction:ltr;text-orientation:mixed;dominant-baseline:auto;baseline-shift:baseline;text-anchor:start;white-space:normal;shape-padding:0;clip-rule:nonzero;display:inline;overflow:visible;visibility:visible;opacity:1;isolation:auto;mix-blend-mode:normal;color-interpolation:sRGB;color-interpolation-filters:linearRGB;solid-color:#000000;solid-opacity:1;vector-effect:none;fill:#dbdbdb;fill-opacity:1;fill-rule:nonzero;stroke:none;stroke-width:0.677911;stroke-linecap:round;stroke-linejoin:round;stroke-miterlimit:4;stroke-dasharray:none;stroke-dashoffset:0;stroke-opacity:1;paint-order:markers stroke fill;color-rendering:auto;image-rendering:auto;shape-rendering:auto;text-rendering:auto;enable-background:accumulate" /></g><g
       inkscape:label="Layer 1"
       id="layer1-2"
       transform="matrix(2.0672376,0,0,2.0672376,136.05793,-201.40583)"><path
         id="path1"
         style="fill:#c7bfae;fill-opacity:1;stroke-width:7.3031"
         d="M 14.977175,0.71931303 C 12.323515,0.7461352 8.7536198,1.1674233 7.4986435,2.5748609 6.5123376,3.6809885 5.7634297,5.2650316 5.2795462,7.2189891 l 0.089684,0.7882573 -0.2827806,0.074705 c -0.2873547,1.4560342 -0.439857,3.0899916 -0.4436057,4.8689616 -0.00454,2.153076 0.081793,5.868953 0.1736621,9.254024 L 5.0711158,22.45277 4.8288086,22.701497 C 4.9317546,26.429873 5.0383088,29.62481 5.0383088,29.62481 11.93126,29.735437 18.871458,30.024532 24.86202,26.713025 25.296309,15.282545 26.675627,8.6184428 24.90731,5.5911277 24.058407,4.1378397 22.755582,3.0659938 21.444939,2.3068789 l -0.545413,0.188461 -0.09771,-0.5393515 C 19.605829,1.3521267 18.464609,1.0059897 17.724569,0.87157967 17.200426,0.77637921 16.183388,0.70712114 14.977175,0.71931303 Z" /><path
         id="path8-4"
         style="fill:#d8d0bc;fill-opacity:1;stroke-width:7.3031"
         d="M 14.977175,0.71931303 C 12.323519,0.7461352 8.7536184,1.1674247 7.4986435,2.5748609 6.5123386,3.6809885 5.7634293,5.2650351 5.2795462,7.2189891 l 0.089684,0.7882573 -0.2827806,0.074705 c -0.2873547,1.4560342 -0.439857,3.0899956 -0.4436057,4.8689616 -0.00454,2.153073 0.081794,5.868956 0.1736621,9.254024 l 0.2546098,0.247833 -0.2423072,0.248727 c 0.102946,3.728373 0.2095002,6.923313 0.2095002,6.923313 0.2377638,0.0038 0.4755352,0.0077 0.7133704,0.01177 -0.07653,-5.064134 0.336735,-6.834109 0.093072,-8.175857 C 5.595305,20.087137 5.3462541,9.7963983 5.9893505,8.8892858 6.6324478,7.9821739 6.9543338,3.5683579 8.2376886,2.8353543 9.5210426,2.1023515 13.523809,0.93407054 15.141032,1.0225981 c 1.093403,0.059854 3.853766,0.7245524 5.756529,1.4618657 L 20.801815,1.9559849 C 19.605829,1.3521236 18.464609,1.0059862 17.724569,0.87157623 17.20043,0.77637577 16.183388,0.7071177 14.977175,0.71930959 Z m 6.467762,1.58756587 -0.531508,0.1836468 c 0.904151,0.3514091 1.614074,0.7187098 1.850912,1.045006 0.735377,1.0131395 2.236414,2.4910797 2.412551,4.9682715 0.163485,2.2992848 -0.980455,15.1329678 -0.907357,18.5232038 0.198476,-0.100993 0.396012,-0.205374 0.592485,-0.313982 C 25.296309,15.282556 26.675623,8.6184392 24.907308,5.5911277 24.058405,4.1378432 22.755576,3.0659938 21.444937,2.3068789 Z" /><path
         style="fill:#aaa291;fill-opacity:1;stroke-width:7.3031"
         d="m 20.801815,1.9559884 -0.352107,1.40085 -2.276275,1.0084195 2.585689,-0.7173058 0.685815,-1.3410732 -0.545413,0.1884607 z"
         id="path4-5" /><path
         style="fill:#aaa291;fill-opacity:1;stroke-width:7.3031"
         d="M 5.2795455,7.2189891 6.6144027,8.8890819 6.9813438,11.195616 6.2095761,9.0154967 5.086449,8.0819522 5.3692299,8.0072473 Z"
         id="path5-5" /><path
         style="fill:#aaa291;fill-opacity:1;stroke-width:7.3031"
         d="m 4.8165059,22.204938 2.7181506,-1.338819 1.7133876,0.360603 -1.6492655,0.04466 -2.7699698,1.43012 0.2423065,-0.248727 z"
         id="path6-1" /><path
         id="path11-7"
         style="fill:#524d44;fill-opacity:0.121594;stroke-width:7.3031"
         d="m 9.3764785,25.560508 c -1.3044975,-0.0014 -2.7630992,0.07913 -4.4521018,0.299184 0.045309,1.461748 0.1139323,3.765119 0.1139323,3.765119 6.892944,0.110626 13.833153,0.399718 19.823711,-2.911786 0.01315,-0.34619 0.02964,-0.674184 0.0444,-1.011663 -2.140394,0.103819 -4.891869,0.431875 -7.920533,0.345542 -2.432728,-0.06934 -4.631032,-0.483484 -7.6094027,-0.486396 z" /><path
         style="fill:#cfc7b6;fill-opacity:1;stroke-width:7.3031"
         d="m 28.023002,26.188038 c -3.674232,-0.137635 -4.559369,0.455923 -6.780276,0.572218 -2.220904,0.116288 -8.050918,0.150083 -9.749035,-0.197784 -1.6981123,-0.347995 -4.3402077,0.182637 -6.809218,0.373569 -2.4690092,0.190931 -3.3192863,0.23537 -3.7048855,1.398912 -0.38559857,1.16354 -0.4827738,2.273322 -0.024011,2.791819 0.4587651,0.518497 -0.057554,2.085017 1.7029559,2.017239 1.7605103,-0.06777 9.3198726,-0.534217 10.9249506,-0.180767 1.60508,0.353447 9.53526,0.08369 11.939655,0.134478 2.404398,0.05078 3.115324,-1.062389 3.2634,-1.549934 0.148075,-0.487541 -0.377761,-1.574223 -0.02336,-2.41311 0.361129,-0.854838 0.383473,-2.904547 -0.740168,-2.94664 z"
         id="path9-1"
         sodipodi:nodetypes="sscsssssssss" /><path
         id="path10-1"
         style="fill:#b0a99b;fill-opacity:1;stroke-width:7.3031"
         d="m 25.968358,26.459129 c -0.337206,0.0027 -0.641455,0.05745 -0.870274,0.21271 -0.610178,0.413996 -3.53532,1.333346 -4.794789,1.358274 -1.259471,0.02491 -5.043712,-0.486303 -6.140227,-0.559676 -1.09652,-0.07337 -1.61401,-0.374562 -2.189858,0.173839 -0.575848,0.548397 -0.764122,0.287701 -1.160006,-0.356238 -0.395884,-0.643942 -1.4544653,-0.43419 -2.3299986,-0.260316 -0.8755344,0.173873 -5.0163074,0.308502 -5.5261693,0.704277 -0.509861,0.395774 -0.9933942,-0.2009 -1.2996143,0.605145 -0.3062208,0.806043 -0.88549666,1.820173 -0.5520107,2.153659 0.293951,0.293953 0.5326525,1.874615 1.2245508,2.643627 0.1002351,0.0098 0.2080653,0.01425 0.3286034,0.0096 1.7605086,-0.06777 9.3197777,-0.53424 10.9248567,-0.180794 1.605075,0.353446 9.535334,0.08366 11.939726,0.13444 1.222588,0.02581 2.005815,-0.249558 2.501344,-0.590346 0.131203,-0.126425 0.23121,-0.266327 0.291338,-0.419357 0.241602,-0.614909 0.253647,-1.936821 -0.174018,-2.133513 -0.444785,-0.204571 0.280867,-0.662747 0.29758,-1.82185 0,-0.765559 0.176118,-1.37634 -0.704637,-1.475418 -0.550467,-0.06192 -1.204385,-0.202466 -1.766397,-0.198088 z" /><path
         style="fill:#aaa291;fill-opacity:1;stroke-width:9.06016"
         d="m 20.104784,15.840772 3.260523,-1.560366 1.101011,-2.259832 -1.406885,1.85047 z"
         id="path12-5" /></g></g></svg>
