<?xml version="1.0" encoding="UTF-8" standalone="no"?>
<!-- Created with Inkscape (http://www.inkscape.org/) -->

<svg
   width="3000"
   height="2300"
   viewBox="0 0 793.74998 608.54169"
   version="1.1"
   id="svg8"
   sodipodi:docname="video-call.svg"
   inkscape:version="1.4 (86a8ad7, 2024-10-11)"
   inkscape:export-filename="G:\Pictures\My Pictures\Vectors and SVGs\Laptop1.png"
   inkscape:export-xdpi="96"
   inkscape:export-ydpi="96"
   xml:space="preserve"
   xmlns:inkscape="http://www.inkscape.org/namespaces/inkscape"
   xmlns:sodipodi="http://sodipodi.sourceforge.net/DTD/sodipodi-0.dtd"
   xmlns="http://www.w3.org/2000/svg"
   xmlns:svg="http://www.w3.org/2000/svg"
   xmlns:rdf="http://www.w3.org/1999/02/22-rdf-syntax-ns#"
   xmlns:cc="http://creativecommons.org/ns#"
   xmlns:dc="http://purl.org/dc/elements/1.1/"><defs
     id="defs2"><inkscape:path-effect
       effect="fillet_chamfer"
       id="path-effect4"
       is_visible="true"
       lpeversion="1"
       nodesatellites_param="F,0,1,1,0,1.7911784,0,1 @ F,0,1,1,0,1.7911784,0,1 @ F,0,1,1,0,1.7911784,0,1 @ F,0,0,1,0,0,0,1 @ F,0,0,1,0,0,0,1 @ F,0,1,1,0,1.7911784,0,1 @ F,0,1,1,0,1.7911784,0,1 @ F,0,0,1,0,1.7911784,0,1 @ F,0,1,1,0,1.7911784,0,1"
       radius="0"
       unit="px"
       method="auto"
       mode="F"
       chamfer_steps="1"
       flexible="false"
       use_knot_distance="true"
       apply_no_radius="true"
       apply_with_radius="true"
       only_selected="false"
       hide_knots="false" /><inkscape:path-effect
       effect="fillet_chamfer"
       id="path-effect2"
       is_visible="true"
       lpeversion="1"
       nodesatellites_param="F,0,1,1,0,1.7911784,0,1 @ F,0,1,1,0,1.7911784,0,1 @ F,0,1,1,0,1.7911784,0,1 @ F,0,0,1,0,0,0,1 @ F,0,0,1,0,0,0,1 @ F,0,1,1,0,1.7911784,0,1 @ F,0,1,1,0,1.7911784,0,1 @ F,0,0,1,0,1.7911784,0,1 @ F,0,1,1,0,1.7911784,0,1"
       radius="0"
       unit="px"
       method="auto"
       mode="F"
       chamfer_steps="1"
       flexible="false"
       use_knot_distance="true"
       apply_no_radius="true"
       apply_with_radius="true"
       only_selected="false"
       hide_knots="false" /></defs><sodipodi:namedview
     id="base"
     pagecolor="#000000"
     bordercolor="#666666"
     borderopacity="1.0"
     inkscape:pageopacity="0.0"
     inkscape:pageshadow="2"
     inkscape:zoom="0.0875"
     inkscape:cx="2057.1429"
     inkscape:cy="97.142857"
     inkscape:document-units="mm"
     inkscape:current-layer="layer1"
     showgrid="false"
     borderlayer="true"
     inkscape:showpageshadow="false"
     inkscape:pagecheckerboard="true"
     units="px"
     inkscape:window-width="3440"
     inkscape:window-height="1377"
     inkscape:window-x="-8"
     inkscape:window-y="-8"
     inkscape:window-maximized="1"
     inkscape:snap-global="false"
     inkscape:object-paths="false"
     inkscape:object-nodes="true"
     inkscape:deskcolor="#505050" /><metadata
     id="metadata5"><rdf:RDF><cc:Work
         rdf:about=""><dc:format>image/svg+xml</dc:format><dc:type
           rdf:resource="http://purl.org/dc/dcmitype/StillImage" /></cc:Work></rdf:RDF></metadata><g
     inkscape:label="Layer 1"
     inkscape:groupmode="layer"
     id="layer1"
     transform="translate(0,311.54169)"><rect
       style="opacity:1;fill:#6ca3c7;fill-opacity:1;fill-rule:nonzero;stroke:none;stroke-width:34.27155304;stroke-linecap:round;stroke-linejoin:round;stroke-miterlimit:4;stroke-dasharray:none;stroke-dashoffset:0;stroke-opacity:1;paint-order:markers stroke fill"
       id="rect847"
       width="588.20221"
       height="350.43668"
       x="102.77386"
       y="-273.93869" /><circle
       style="fill:#c8c8c8;fill-opacity:1;stroke-width:0.468;stroke-linecap:round;stroke-linejoin:round;paint-order:markers stroke fill"
       id="path4"
       cx="396.875"
       cy="-154.3036"
       r="71.059525" /><ellipse
       style="fill:#989898;fill-opacity:1;stroke-width:0.25714;stroke-linecap:round;stroke-linejoin:round;paint-order:markers stroke fill"
       id="circle5"
       cx="396.875"
       cy="-165.64288"
       rx="36.663692"
       ry="41.577381" /><path
       style="opacity:1;fill:#97bed7;fill-opacity:0.44421053;fill-rule:nonzero;stroke:none;stroke-width:50.61997604;stroke-linecap:round;stroke-linejoin:round;stroke-miterlimit:4;stroke-dasharray:none;stroke-dashoffset:0;stroke-opacity:1;paint-order:markers stroke fill"
       d="m 130.67648,-273.93856 -27.90222,6.21208 v 241.92134 l 419.21797,-248.13342 z"
       id="path856"
       inkscape:connector-curvature="0" /><path
       style="color:#000000;font-style:normal;font-variant:normal;font-weight:normal;font-stretch:normal;font-size:medium;line-height:normal;font-family:sans-serif;font-variant-ligatures:normal;font-variant-position:normal;font-variant-caps:normal;font-variant-numeric:normal;font-variant-alternates:normal;font-feature-settings:normal;text-indent:0;text-align:start;text-decoration:none;text-decoration-line:none;text-decoration-style:solid;text-decoration-color:#000000;letter-spacing:normal;word-spacing:normal;text-transform:none;writing-mode:lr-tb;direction:ltr;text-orientation:mixed;dominant-baseline:auto;baseline-shift:baseline;text-anchor:start;white-space:normal;shape-padding:0;clip-rule:nonzero;display:inline;overflow:visible;visibility:visible;opacity:1;isolation:auto;mix-blend-mode:normal;color-interpolation:sRGB;color-interpolation-filters:linearRGB;solid-color:#000000;solid-opacity:1;vector-effect:none;fill:#2d3642;fill-opacity:1;fill-rule:nonzero;stroke:none;stroke-width:32.5510788;stroke-linecap:round;stroke-linejoin:round;stroke-miterlimit:4;stroke-dasharray:none;stroke-dashoffset:0;stroke-opacity:1;paint-order:markers stroke fill;color-rendering:auto;image-rendering:auto;shape-rendering:auto;text-rendering:auto;enable-background:accumulate"
       d="m 101.26257,-297.69357 a 16.277166,16.277166 0 0 0 -16.275536,16.27554 V 83.977361 A 16.277166,16.277166 0 0 0 101.26257,100.2529 H 692.48742 A 16.277166,16.277166 0 0 0 708.76296,83.977361 V -281.41803 a 16.277166,16.277166 0 0 0 -16.27554,-16.27554 z m 16.27554,32.55108 H 676.21188 V 67.701822 H 117.53811 Z"
       id="rect826"
       inkscape:connector-curvature="0" /><path
       style="color:#000000;font-style:normal;font-variant:normal;font-weight:normal;font-stretch:normal;font-size:medium;line-height:normal;font-family:sans-serif;font-variant-ligatures:normal;font-variant-position:normal;font-variant-caps:normal;font-variant-numeric:normal;font-variant-alternates:normal;font-feature-settings:normal;text-indent:0;text-align:start;text-decoration:none;text-decoration-line:none;text-decoration-style:solid;text-decoration-color:#000000;letter-spacing:normal;word-spacing:normal;text-transform:none;writing-mode:lr-tb;direction:ltr;text-orientation:mixed;dominant-baseline:auto;baseline-shift:baseline;text-anchor:start;white-space:normal;shape-padding:0;clip-rule:nonzero;display:inline;overflow:visible;visibility:visible;opacity:1;isolation:auto;mix-blend-mode:normal;color-interpolation:sRGB;color-interpolation-filters:linearRGB;solid-color:#000000;solid-opacity:1;vector-effect:none;fill:#2d3642;fill-opacity:1;fill-rule:nonzero;stroke:none;stroke-width:22.17605209;stroke-linecap:round;stroke-linejoin:round;stroke-miterlimit:4;stroke-dasharray:none;stroke-dashoffset:0;stroke-opacity:1;paint-order:markers stroke fill;color-rendering:auto;image-rendering:auto;shape-rendering:auto;text-rendering:auto;enable-background:accumulate"
       d="m 108.71047,106.65284 c -8.761898,4.3e-4 -15.864906,3.46911 -15.865784,7.74869 L 30.535466,259.3863 8.9950305,261.78668 18.83041,275.31317 h 0.005 c 1.732205,4.46277 9.754138,7.83821 19.394883,7.83869 H 755.51977 c 9.64075,0 17.66267,-3.37592 19.3949,-7.83869 h 0.005 l 9.8354,-13.52649 -21.54044,-2.40038 -62.30905,-144.98477 c 0,-4.27958 -7.10391,-7.74826 -15.86581,-7.74869 z"
       id="path849"
       inkscape:connector-curvature="0"
       sodipodi:nodetypes="ccccccccccccccc" /><path
       style="color:#000000;font-style:normal;font-variant:normal;font-weight:normal;font-stretch:normal;font-size:medium;line-height:normal;font-family:sans-serif;font-variant-ligatures:normal;font-variant-position:normal;font-variant-caps:normal;font-variant-numeric:normal;font-variant-alternates:normal;font-feature-settings:normal;text-indent:0;text-align:start;text-decoration:none;text-decoration-line:none;text-decoration-style:solid;text-decoration-color:#000000;letter-spacing:normal;word-spacing:normal;text-transform:none;writing-mode:lr-tb;direction:ltr;text-orientation:mixed;dominant-baseline:auto;baseline-shift:baseline;text-anchor:start;white-space:normal;shape-padding:0;clip-rule:nonzero;display:inline;overflow:visible;visibility:visible;opacity:1;isolation:auto;mix-blend-mode:normal;color-interpolation:sRGB;color-interpolation-filters:linearRGB;solid-color:#000000;solid-opacity:1;vector-effect:none;fill:#d4dfe9;fill-opacity:1;fill-rule:nonzero;stroke:none;stroke-width:22.7491951;stroke-linecap:round;stroke-linejoin:round;stroke-miterlimit:4;stroke-dasharray:none;stroke-dashoffset:0;stroke-opacity:1;paint-order:markers stroke fill;color-rendering:auto;image-rendering:auto;shape-rendering:auto;text-rendering:auto;enable-background:accumulate"
       d="m 101.26257,74.66343 c -8.988359,4.39e-4 -16.274641,3.559268 -16.275536,7.949443 L 8.7051287,260.11038 c 0.00112,5.46393 9.0694793,9.89318 20.2562263,9.89372 H 764.78864 c 11.18675,-5.4e-4 20.2551,-4.42979 20.25623,-9.89372 L 708.76296,82.612873 c -8.9e-4,-4.390175 -7.28718,-7.949004 -16.27554,-7.949443 z"
       id="rect828"
       inkscape:connector-curvature="0"
       sodipodi:nodetypes="ccccccccc" /><path
       style="opacity:1;fill:#b7c9db;fill-opacity:1;fill-rule:nonzero;stroke:none;stroke-width:37.85010529;stroke-linecap:round;stroke-linejoin:round;stroke-miterlimit:4;stroke-dasharray:none;stroke-dashoffset:0;stroke-opacity:1;paint-order:markers stroke fill"
       d="m 306.83032,206.21186 h 176.60819 c 7.95258,0 11.94359,6.77663 14.35484,14.35485 l 6.08995,19.1398 c 2.40779,7.5673 -6.78208,14.35486 -15.20641,14.35486 H 301.59194 c -8.42433,0 -17.6142,-6.78756 -15.20641,-14.35486 l 6.08995,-19.1398 c 2.41125,-7.57822 6.40226,-14.35485 14.35484,-14.35485 z"
       id="rect838"
       inkscape:connector-curvature="0"
       sodipodi:nodetypes="sssssssss" /><path
       style="opacity:1;fill:#b7c9db;fill-opacity:1;fill-rule:nonzero;stroke:none;stroke-width:32.5510788;stroke-linecap:round;stroke-linejoin:round;stroke-miterlimit:4;stroke-dasharray:none;stroke-dashoffset:0;stroke-opacity:1;paint-order:markers stroke fill"
       d="m 115.38393,103.91084 h 566.20952 c 4.04549,0 5.86975,3.29865 7.30232,7.30231 l 27.63922,77.24457 c 1.49263,4.1715 -3.56679,7.99729 -7.9973,7.99729 H 88.439694 c -4.430495,0 -9.489925,-3.82579 -7.997295,-7.99729 l 27.639211,-77.24457 c 1.38516,-3.87114 3.25685,-7.30231 7.30232,-7.30231 z"
       id="rect844"
       inkscape:connector-curvature="0"
       sodipodi:nodetypes="sssssssss" /><circle
       style="fill:#f04646;fill-opacity:1;stroke-width:0.369474;stroke-linecap:round;stroke-linejoin:round;paint-order:markers stroke fill"
       id="path1"
       cx="333.75296"
       cy="-17.476219"
       r="45.35714" /><circle
       style="fill:#74e45b;fill-opacity:1;stroke-width:0.369474;stroke-linecap:round;stroke-linejoin:round;paint-order:markers stroke fill"
       id="circle1"
       cx="459.99701"
       cy="-17.476219"
       r="45.35714" /><path
       style="fill:#ffffff;fill-opacity:1;stroke-width:0.468;stroke-linecap:round;stroke-linejoin:round;paint-order:markers stroke fill"
       d="m 453.31475,-18.922668 -4.66168,-10.809008 a 2.8506983,2.8506983 34.528177 0 0 -2.49897,-1.719301 l -2.83522,-0.118127 c -0.98839,-0.04118 -2.46315,0.366017 -3.21734,1.005204 -2.86686,2.429728 -8.68019,8.872029 -4.18495,18.430897 5.81311,12.36120136 18.64205,30.001002 39.2218,32.740509 14.75198,1.963734 16.75185,-7.340126 16.93672,-11.3738053 0.0453,-0.9872709 -0.75544,-2.1350803 -1.64795,-2.5617407 L 479.96165,1.6689141 a 2.5682452,2.5682452 170.65697 0 0 -2.89935,0.4770214 l -5.05051,4.9176302 c -0.70877,0.690112 -2.0346,0.9684315 -2.94912,0.591346 -6.50039,-2.6803383 -15.18024,-7.60397979 -18.80169,-15.846464 -0.39779,-0.9053727 -0.23698,-2.3589527 0.2686,-3.2092407 l 2.57908,-4.337556 a 3.5104665,3.5104665 93.703011 0 0 0.20609,-3.184319 z"
       id="path2"
       sodipodi:nodetypes="cccssccccc"
       inkscape:path-effect="#path-effect2"
       inkscape:original-d="m 454.02409,-17.277931 -6.08036,-14.098482 -6.41448,-0.267255 c 0,0 -11.42576,7.149438 -5.61266,19.510665 5.81311,12.36120136 18.64205,30.001002 39.2218,32.740509 18.7215,2.492143 16.90479,-13.163009 16.90479,-13.163009 L 478.34563,0.89637711 470.72846,8.3131241 C 463.73588,5.6673267 452.98951,0.16026015 449.61415,-9.8612107 Z"
       transform="matrix(0.87769921,0,0,0.87769921,53.470983,-12.782448)" /><path
       style="fill:#ffffff;fill-opacity:1;stroke-width:0.468;stroke-linecap:round;stroke-linejoin:round;paint-order:markers stroke fill"
       d="m 453.31475,-18.922668 -4.66168,-10.809008 a 2.8506983,2.8506983 34.528177 0 0 -2.49897,-1.719301 l -2.83522,-0.118127 c -0.98839,-0.04118 -2.46315,0.366017 -3.21734,1.005204 -2.86686,2.429728 -8.68019,8.872029 -4.18495,18.430897 5.81311,12.36120136 18.64205,30.001002 39.2218,32.740509 14.75198,1.963734 16.75185,-7.340126 16.93672,-11.3738053 0.0453,-0.9872709 -0.75544,-2.1350803 -1.64795,-2.5617407 L 479.96165,1.6689141 a 2.5682452,2.5682452 170.65697 0 0 -2.89935,0.4770214 l -5.05051,4.9176302 c -0.70877,0.690112 -2.0346,0.9684315 -2.94912,0.591346 -6.50039,-2.6803383 -15.18024,-7.60397979 -18.80169,-15.846464 -0.39779,-0.9053727 -0.23698,-2.3589527 0.2686,-3.2092407 l 2.57908,-4.337556 a 3.5104665,3.5104665 93.703011 0 0 0.20609,-3.184319 z"
       id="path3"
       sodipodi:nodetypes="cccssccccc"
       inkscape:path-effect="#path-effect4"
       inkscape:original-d="m 454.02409,-17.277931 -6.08036,-14.098482 -6.41448,-0.267255 c 0,0 -11.42576,7.149438 -5.61266,19.510665 5.81311,12.36120136 18.64205,30.001002 39.2218,32.740509 18.7215,2.492143 16.90479,-13.163009 16.90479,-13.163009 L 478.34563,0.89637711 470.72846,8.3131241 C 463.73588,5.6673267 452.98951,0.16026015 449.61415,-9.8612107 Z"
       transform="matrix(-0.66010692,0.57845895,-0.57845895,-0.66010692,636.46549,-284.70502)" /><path
       id="ellipse5"
       style="fill:#989898;fill-opacity:1;stroke-width:0.318725;stroke-linecap:round;stroke-linejoin:round;paint-order:markers stroke fill"
       d="m 396.875,-132.00293 a 63.877975,36.663692 0 0 0 -56.8172,20.07423 71.059525,71.059525 0 0 0 56.8172,28.684555 71.059525,71.059525 0 0 0 56.87663,-28.764135 63.877975,36.663692 0 0 0 -56.87663,-19.99465 z" /></g></svg>
