<?xml version="1.0" encoding="UTF-8" standalone="no"?>
<svg
   width="3e3"
   height="2200"
   version="1.1"
   viewBox="0 0 793.75 582.08"
   id="svg63"
   sodipodi:docname="Voyager.svg"
   inkscape:version="1.3 (0e150ed, 2023-07-21)"
   xmlns:inkscape="http://www.inkscape.org/namespaces/inkscape"
   xmlns:sodipodi="http://sodipodi.sourceforge.net/DTD/sodipodi-0.dtd"
   xmlns="http://www.w3.org/2000/svg"
   xmlns:svg="http://www.w3.org/2000/svg">
  <defs
     id="defs63" />
  <sodipodi:namedview
     id="namedview63"
     pagecolor="#505050"
     bordercolor="#ffffff"
     borderopacity="1"
     inkscape:showpageshadow="0"
     inkscape:pageopacity="0"
     inkscape:pagecheckerboard="1"
     inkscape:deskcolor="#505050"
     inkscape:zoom="0.10253048"
     inkscape:cx="975.31973"
     inkscape:cy="1462.9796"
     inkscape:current-layer="svg63" />
  <g
     id="g63"
     transform="translate(0.52734541,-0.53235002)">
    <path
       d="m 198.34,148.65 5.475,15.208 -2.7375,46.233 -4.5625,15.208 8.2124,13.383 25.246,-0.30395 -3.9541,-98.245 -19.771,-2.1291 z"
       fill="#443022"
       id="path1" />
    <path
       d="m 309.96,263.43 a 1.1496,1.1496 0 0 0 -0.6915,0.53943 1.1496,1.1496 0 0 0 0.43007,1.5707 l 10.874,6.1878 -19.065,-3.044 a 1.1496,1.1496 0 0 0 -1.3188,0.95289 1.1496,1.1496 0 0 0 0.96002,1.3117 l 22.423,3.581 c -1.0039,0.81138 -1.9131,1.985 -2.6234,3.41 -0.28376,0.56928 -0.51405,1.1394 -0.69386,1.7014 l -19.329,-7.0599 a 1.1497,1.1497 0 0 0 -0.95289,2.084 l 199.35,111.17 0.61784,0.54891 a 1.1497,1.1497 0 0 0 0.43224,0.24234 l 0.79847,0.24233 120.31,67.094 0.19727,0.17336 a 1.1497,1.1497 0 0 0 0.41339,0.23544 l 0.2828,0.0902 121.37,67.681 0.96952,0.82698 a 1.1497,1.1497 0 0 0 0.36832,0.21612 l 1.421,0.49188 37.54,20.935 a 1.1497,1.1497 0 0 0 1.4899,-0.32328 l 4.3581,-5.9455 a 1.1496,1.1496 0 0 0 0.52994,-0.59167 1.1496,1.1496 0 0 0 0.0367,-0.42306 1.1497,1.1497 0 0 0 0.0102,-0.17842 1.1496,1.1496 0 0 0 0,-0.002 1.1496,1.1496 0 0 0 0,-0.002 1.1496,1.1496 0 0 0 0,-0.002 1.1496,1.1496 0 0 0 0,-0.002 1.1497,1.1497 0 0 0 -0.55607,-0.98851 l -39.247,-22.332 -0.16648,-0.13795 a 1.1497,1.1497 0 0 0 -0.35866,-0.19727 l -0.1614,-0.0571 -38.572,-21.947 -0.68438,-0.58453 a 1.1497,1.1497 0 0 0 -0.37569,-0.20693 l -0.47998,-0.16647 c -0.062,-0.0367 -0.12692,-0.0754 -0.19498,-0.10944 -0.13977,-0.0694 -0.28004,-0.12138 -0.42075,-0.15912 l -122.24,-69.558 -0.37521,-0.33018 a 1.1497,1.1497 0 0 0 -0.42996,-0.24233 l -0.42534,-0.12829 -77.83,-44.289 -1.7395,-1.5754 a 1.1497,1.1497 0 0 0 -0.43224,-0.24233 l -2.2527,-0.70101 -42.231,-24.031 c -0.10574,-0.0745 -0.21613,-0.14392 -0.33754,-0.20417 -0.0322,-0.0137 -0.0635,-0.0276 -0.0952,-0.0413 l -43.386,-24.687 -1.1668,-1.0575 a 1.1497,1.1497 0 0 0 -0.45845,-0.25198 l -1.3735,-0.39685 -86.542,-49.248 -0.22573,-0.20922 a 1.1497,1.1497 0 0 0 -0.60357,-0.28741 l -0.0618,-0.0102 -16.211,-9.2247 a 1.1496,1.1496 0 0 0 -0.87209,-0.10717 z m 16.235,12.314 c 0.0639,-0.001 0.10913,0.0102 0.13307,0.0184 0.0959,0.0478 0.34642,0.37798 0.33984,1.2546 -0.006,0.87673 -0.2959,2.0994 -0.90536,3.3221 -0.19401,0.38902 -0.41027,0.74853 -0.63447,1.0812 l -2.7066,-0.98856 c 0.14481,-0.4747 0.3373,-0.97008 0.58457,-1.4661 0.60944,-1.2227 1.414,-2.1903 2.1101,-2.7232 0.52216,-0.3996 0.88752,-0.4958 1.0788,-0.49902 z m 2.7612,1.623 9.6144,8.9633 -11.226,-4.0991 c 0.16675,-0.27728 0.32525,-0.56404 0.47526,-0.86496 0.6832,-1.3706 1.0687,-2.7482 1.1359,-3.9992 z m -15.215,2.3454 6.0714,2.217 c -0.006,0.1159 -0.0111,0.23084 -0.012,0.34442 -0.002,0.28327 0.0161,0.56925 0.0546,0.84836 z m 21.482,0.35177 24.744,14.082 -15.852,-5.791 z m -13.096,2.7114 1.2808,0.46575 c -0.54893,0.35777 -0.87344,0.34626 -0.95764,0.30396 -0.0756,-0.0368 -0.25421,-0.25291 -0.32317,-0.76991 z m 3.7593,1.3711 17.002,6.2092 14.98,13.965 -33.772,-18.834 c 0.33343,-0.16277 0.6538,-0.36741 0.9529,-0.59645 0.28665,-0.21934 0.56653,-0.46795 0.83644,-0.74379 z m 22.546,8.2338 19.759,7.2168 c -1.0326,0.81313 -1.96,2.0122 -2.6876,3.4717 -0.71292,1.4303 -1.1106,2.8627 -1.1525,4.1561 z m 22.311,8.4857 c 0.0636,-3.1e-4 0.10673,0.0137 0.13059,0.023 0.0957,0.0478 0.35822,0.37109 0.35178,1.2475 -0.004,0.87674 -0.30533,2.1041 -0.9149,3.3268 -0.60943,1.2227 -1.4071,2.1925 -2.103,2.7256 -0.69619,0.53291 -1.116,0.5278 -1.2119,0.47998 -0.0962,-0.0478 -0.35361,-0.3803 -0.34716,-1.2571 0.004,-0.87672 0.30301,-2.097 0.9125,-3.3197 0.60941,-1.2226 1.4094,-2.1996 2.1054,-2.7327 0.52214,-0.39958 0.88624,-0.49326 1.0764,-0.49422 z m 2.7565,1.7014 13.269,11.929 -16.736,-4.8429 c 0.88946,-0.79519 1.6919,-1.8755 2.3335,-3.1628 0.66956,-1.3433 1.0551,-2.6922 1.1335,-3.9233 z m 7.1882,3.372 24.314,13.835 -13.157,-3.8068 z m -7.1645,7.1146 17.164,4.964 13.495,12.133 z m 22.24,6.435 17.775,5.1423 0.14025,0.0783 c -0.15635,0.0988 -0.30948,0.206 -0.45617,0.31866 -1.0624,0.81364 -2.0257,2.0318 -2.7707,3.5264 -0.5388,1.0808 -0.89163,2.165 -1.0503,3.1889 z m 19.927,6.8627 c 0.0635,-3.2e-4 0.10902,0.0102 0.1329,0.023 0.0957,0.0478 0.35591,0.37339 0.34947,1.2499 -0.004,0.87674 -0.30533,2.1042 -0.91485,3.3268 -0.60947,1.2227 -1.4047,2.1926 -2.1006,2.7256 -0.15406,0.11818 -0.29385,0.20509 -0.42075,0.27589 l -1.0693,-0.33521 c -0.0414,-0.18348 -0.0736,-0.41615 -0.0713,-0.71762 0.004,-0.87674 0.30304,-2.097 0.91245,-3.3197 0.60947,-1.2227 1.4095,-2.1996 2.1054,-2.7327 0.52182,-0.40007 0.88615,-0.49336 1.0764,-0.49424 z m 2.7541,1.8487 12.734,11.53 -15.809,-4.9546 c 0.73456,-0.75023 1.3982,-1.6999 1.9462,-2.7992 0.64331,-1.2906 1.0287,-2.5853 1.1287,-3.7759 z m 6.9031,3.1509 25.626,14.581 -14.562,-4.5624 z m -6.7059,6.8555 16.603,5.2041 11.66,10.558 z m 21.836,6.8461 16.268,5.0995 c -0.83119,0.78252 -1.5788,1.8183 -2.1862,3.0369 -0.61297,1.2298 -0.99349,2.4612 -1.1145,3.6048 z m 19.072,5.9787 0.53704,0.16647 c 0.0979,0.1867 0.19405,0.5215 0.18992,1.067 -0.004,0.87674 -0.30074,2.097 -0.91011,3.3197 -0.60947,1.2227 -1.4095,2.202 -2.1054,2.7351 -0.19313,0.14808 -0.36419,0.24832 -0.51331,0.32327 l -0.95289,-0.29475 c -0.0561,-0.19222 -0.0974,-0.45432 -0.0953,-0.80794 0.004,-0.87672 0.30764,-2.1041 0.91726,-3.3268 0.60945,-1.2227 1.4047,-2.1926 2.1006,-2.7256 0.34812,-0.26671 0.62763,-0.39685 0.83171,-0.45617 z m 2.9632,2.1743 12.563,11.135 -15.66,-4.869 c 0.75905,-0.75958 1.4448,-1.7313 2.008,-2.8611 0.57719,-1.158 0.94607,-2.3189 1.0883,-3.4052 z m 7.4662,3.5478 23.261,13.238 -12.83,-3.9898 z m -6.7795,6.3042 16.059,4.9926 12.06,10.688 z m 21.396,6.6512 17.677,5.4963 c -0.0276,0.0183 -0.0529,0.0322 -0.0787,0.0524 -1.033,0.71483 -1.95,1.8142 -2.6282,3.1747 -0.62441,1.2527 -0.94538,2.5283 -0.95286,3.7023 z m 19.801,7.0552 c 0.12508,-0.0102 0.21842,0.0102 0.27819,0.0413 0.15912,0.0795 0.39225,0.38119 0.42306,1.143 0.0322,0.76157 -0.18946,1.8302 -0.71528,2.8848 -0.52564,1.0545 -1.2456,1.8736 -1.8725,2.3074 -0.6267,0.43362 -1.01,0.43087 -1.1691,0.35179 -0.15911,-0.0795 -0.40143,-0.38628 -0.43271,-1.1478 -0.0322,-0.76158 0.18945,-1.8302 0.71528,-2.8848 0.52563,-1.0546 1.248,-1.8737 1.8749,-2.3074 0.39177,-0.27131 0.68983,-0.37062 0.89819,-0.38717 z m 3.006,1.5517 13.233,11.984 -17.052,-5.1114 c 0.0814,-0.0502 0.16186,-0.10258 0.24003,-0.1568 1.0329,-0.71481 1.9381,-1.8118 2.6163,-3.1723 0.59591,-1.1955 0.92528,-2.4135 0.96241,-3.543 z m 8.4358,4.5339 22.325,12.704 -12.399,-3.7165 z m -4.4745,7.0718 13.233,3.966 9.8117,8.8826 z m 18.361,5.5011 14.258,4.2726 c -0.89494,0.70907 -1.6845,1.7066 -2.2883,2.918 -0.47401,0.95086 -0.77507,1.9125 -0.89586,2.8349 z m 16.912,5.5201 c 0.069,0.004 0.12417,0.0183 0.16418,0.0413 0.1591,0.0795 0.39224,0.38398 0.42304,1.1454 0.0322,0.76159 -0.18946,1.8302 -0.71527,2.8848 -0.52566,1.0546 -1.2457,1.8736 -1.8725,2.3074 -0.0895,0.062 -0.17197,0.11404 -0.25198,0.1591 l -1.2689,-0.3849 c -0.0413,-0.15403 -0.069,-0.34026 -0.0787,-0.57266 -0.0322,-0.76159 0.18946,-1.8302 0.71525,-2.8848 0.52563,-1.0545 1.2456,-1.8737 1.8725,-2.3074 0.47011,-0.32556 0.80597,-0.40236 1.0123,-0.38718 z m 2.8586,2.0222 10.144,9.1273 -12.613,-3.8139 c 0.58703,-0.6206 1.1098,-1.378 1.5399,-2.2408 0.51521,-1.0336 0.82969,-2.0792 0.9291,-3.0726 z m 6.4326,2.6924 19.913,11.335 -11.021,-3.3339 z m -5.4535,6.069 13.191,3.9874 9.8473,8.8564 z m 18.369,5.551 14.286,4.3177 c -0.81512,0.66161 -1.5412,1.6008 -2.1078,2.7375 -0.52476,1.0528 -0.83092,2.1085 -0.90302,3.0915 z m 16.451,5.7102 h 0.002 c 0.0276,0.0546 0.13566,0.24969 0.1306,0.7224 -0.004,0.63026 -0.22486,1.557 -0.68439,2.4784 -0.45936,0.92152 -1.0645,1.6447 -1.5636,2.0293 -0.37476,0.28833 -0.59861,0.32511 -0.6606,0.33752 -0.023,-0.0561 -0.12416,-0.25199 -0.11864,-0.72475 0.004,-0.63024 0.22027,-1.5498 0.67961,-2.4713 0.45937,-0.92147 1.0692,-1.6542 1.5684,-2.0388 0.37429,-0.28831 0.58781,-0.32142 0.64636,-0.33291 z m 2.3929,1.3545 12.478,10.936 -15.712,-5.1423 c 0.0413,-0.0322 0.0846,-0.0629 0.12601,-0.0952 0.86343,-0.66497 1.6279,-1.6339 2.2218,-2.8254 0.48463,-0.97233 0.78582,-1.9533 0.88634,-2.8729 z m 7.9439,3.9113 22.914,13.041 -12.827,-4.1989 z m -3.0226,6.9697 11.96,3.9137 8.6473,7.578 z m 17.511,5.7316 14.196,4.6456 c -0.61659,0.6166 -1.164,1.4008 -1.6159,2.3074 -0.55677,1.117 -0.87517,2.2319 -0.92199,3.265 z m 16.85,5.6056 h 0.002 v 0.002 c 0.0276,0.0539 0.12874,0.2451 0.1237,0.7176 -0.004,0.63027 -0.22486,1.557 -0.68438,2.4785 -0.45939,0.92148 -1.0641,1.6449 -1.5636,2.0293 -0.37476,0.28832 -0.59383,0.32604 -0.65347,0.33983 -0.0276,-0.0571 -0.13058,-0.25428 -0.12599,-0.72713 0.004,-0.63027 0.22992,-1.5474 0.68912,-2.469 0.45937,-0.92148 1.0595,-1.6567 1.5588,-2.0412 0.37476,-0.28832 0.59259,-0.32004 0.65348,-0.33017 z m 2.3691,1.4828 11.173,9.7594 -13.972,-4.4317 c 0.74424,-0.6498 1.4032,-1.532 1.9295,-2.5878 0.4619,-0.92672 0.75597,-1.8582 0.86967,-2.7398 z m 8.039,3.966 19.053,10.841 -10.427,-3.3054 z m -4.0516,5.9241 11.513,3.65 8.7685,7.6611 z m 17.005,5.3918 13.445,4.2631 c -0.64588,0.62506 -1.2238,1.4301 -1.6919,2.3691 -0.48468,0.97228 -0.78204,1.9458 -0.88161,2.8634 z m 16.026,5.2872 h 0.002 c 0.0276,0.0546 0.13519,0.24969 0.13059,0.7224 -0.004,0.63025 -0.23223,1.5522 -0.6915,2.4737 -0.45938,0.92152 -1.0572,1.6495 -1.5565,2.0341 -0.37476,0.28833 -0.59861,0.32511 -0.6606,0.33753 -0.023,-0.0561 -0.12417,-0.252 -0.11863,-0.72474 0.004,-0.63026 0.22024,-1.5498 0.67957,-2.4713 0.45939,-0.9215 1.0689,-1.6544 1.5684,-2.0389 0.37478,-0.28831 0.58782,-0.32096 0.64637,-0.33291 z m 2.3026,1.92 11.851,9.8972 -14.569,-5.0115 c 0.7392,-0.6498 1.3911,-1.5314 1.9153,-2.583 0.38627,-0.77497 0.65634,-1.5538 0.80316,-2.3026 z m 8.5499,4.1418 20.524,11.679 -11.126,-3.8258 z m -3.1699,5.9573 11.411,3.9256 8.7874,7.338 z m 17.508,6.0239 14.374,4.945 c -0.59186,0.60307 -1.1226,1.3561 -1.5588,2.2313 -0.47217,0.94721 -0.76881,1.9005 -0.87686,2.7993 z m 17,5.8528 0.1329,0.0736 c 0.0413,0.1053 0.0916,0.29245 0.0878,0.62495 -0.004,0.63021 -0.23222,1.5546 -0.6915,2.476 -0.45937,0.92152 -1.0596,1.6567 -1.5588,2.0412 -0.37431,0.28832 -0.59733,0.32005 -0.65821,0.33016 -0.0276,-0.0539 -0.12876,-0.24509 -0.1237,-0.71763 0.004,-0.63025 0.22486,-1.557 0.68438,-2.4784 0.45937,-0.92152 1.0692,-1.6542 1.5683,-2.0389 0.27407,-0.21107 0.45433,-0.28189 0.55843,-0.31132 z m 2.4357,1.6444 11.385,9.7285 -13.906,-4.8096 c 0.63935,-0.62465 1.2074,-1.4282 1.6729,-2.362 0.43131,-0.86556 0.71863,-1.7307 0.8483,-2.5569 z m 9.7048,5.2682 17.387,9.8925 -9.7594,-3.3743 z m -4.332,4.812 10.793,3.7332 7.711,6.587 z m 16.741,5.7886 13.124,4.5387 c -0.60193,0.60914 -1.1365,1.3791 -1.5802,2.2693 -0.39592,0.79457 -0.67104,1.5909 -0.81506,2.3573 z m 15.814,5.4702 c 0.0276,0.0539 0.12877,0.2451 0.1237,0.71763 -0.004,0.63026 -0.22026,1.5498 -0.6796,2.4714 -0.45937,0.92146 -1.0688,1.652 -1.5684,2.0365 -0.17244,0.13289 -0.30855,0.20922 -0.41339,0.25659 l -0.3182,-0.17842 c -0.023,-0.11082 -0.0413,-0.25705 -0.0367,-0.46098 0.004,-0.63026 0.22257,-1.5594 0.68199,-2.4808 0.45937,-0.92151 1.0645,-1.6447 1.5636,-2.0294 0.37476,-0.28832 0.59021,-0.32145 0.64873,-0.33294 z m 2.3288,1.7941 11.708,9.6857 -14.174,-4.9355 c 0.62574,-0.61993 1.1823,-1.4136 1.6396,-2.3312 0.40788,-0.81837 0.68806,-1.634 0.82697,-2.419 z m 9.7024,5.0377 17.882,10.175 -9.6382,-3.3553 z m -1.8678,5.7292 8.9372,3.1105 6.9578,5.7554 z m 15.173,5.2777 13.119,4.5649 -2.8706,3.9137 z"
       color="#000000"
       fill="#e8bf69"
       stroke-linecap="round"
       stroke-linejoin="round"
       stroke-width="4.5984"
       style="-inkscape-stroke:none"
       id="path2" />
    <ellipse
       cx="208.2"
       cy="189.37"
       rx="19.965"
       ry="23.013"
       fill="#dc821f"
       id="ellipse2" />
    <path
       d="m 153.98,199.1 -20.073,7.9125 a 0.68983,0.68983 0 0 0 -0.36823,0.3504 l -1.8322,3.9607 a 0.68983,0.68983 0 0 0 0.35025,0.9161 l 30.114,13.382 a 0.68976,0.68976 0 0 0 0.9071,-0.35038 0.68976,0.68976 0 0 0 -0.35025,-0.90714 l -29.476,-13.095 1.419,-3.0716 19.822,-7.8137 a 0.68976,0.68976 0 0 0 0.38616,-0.88912 0.68976,0.68976 0 0 0 -0.89811,-0.39502 z"
       color="#000000"
       fill="#e8bf69"
       stroke-linecap="round"
       stroke-linejoin="round"
       stroke-width="4.5984"
       style="-inkscape-stroke:none"
       id="path3" />
    <path
       d="m 182.51,131 -71.787,36.805 a 0.68983,0.68983 0 0 0 0.0898,1.2664 l 49.567,17.406 -45.993,23.001 a 0.68983,0.68983 0 0 0 -0.3772,0.70954 l 0.61072,4.2571 a 0.68983,0.68983 0 0 0 0.44907,0.55686 l 43.496,15.511 a 0.68976,0.68976 0 0 0 0.88015,-0.41293 0.68976,0.68976 0 0 0 -0.42212,-0.88915 l -43.101,-15.367 -0.476,-3.359 46.999,-23.504 a 0.68983,0.68983 0 0 0 -0.072,-1.2664 l -17.244,-6.0533 a 0.68976,0.68976 0 0 0 0.35926,-0.63768 l -0.28739,-4.7062 8.9812,-21.268 29.045,-20.872 a 0.68983,0.68983 0 0 0 -0.7185,-1.1765 z m -7.5891,5.4426 -21.699,15.6 a 0.68983,0.68983 0 0 0 -0.23351,0.29659 l -9.1249,21.591 a 0.68983,0.68983 0 0 0 -0.054,0.31407 l 0.30539,4.8678 a 0.68976,0.68976 0 0 0 0.11674,0.2336 l -31.443,-11.047 z"
       color="#000000"
       fill="#e8bf69"
       stroke-linecap="round"
       stroke-linejoin="round"
       stroke-width="4.5984"
       style="-inkscape-stroke:none"
       id="path4" />
    <g
       transform="matrix(4.5984,0,0,4.5984,-95.486,-400.37)"
       id="g10">
      <path
         d="m 65.668,115.81 -5.5193,-0.28067 -3.087,4.2095 -1.4967,7.7642 -1.7773,0.84189 0.74836,7.7642 1.4967,-1.029 -1.1225,2.4322 1.4032,1.9644 0.74836,-0.0935 1.029,1.5902 0.65481,-0.65481 5.6125,-0.0935 0.28079,-1.7774 -2.2451,-3.7418 0.09354,-10.196 1.4032,-5.2385 z"
         fill="#eb9333"
         id="path5" />
      <path
         d="m 65.668,115.81 -2.8065,4.3966 -1.403,7.8574 0.56121,7.7644 2.3384,4.3966 4.2096,-0.0935 0.12196,-2.0619 -3.7703,-0.83819 -1.9642,-2.7125 -0.2806,-6.7355 1.1224,-7.4833 1.9647,-2.5259 3.3672,0.0935 0.75654,-0.0543 0.08527,-1.4423 z"
         fill="#ed993e"
         id="path6" />
      <path
         d="m 57.062,119.74 -1.4967,7.7642 5.8934,0.56102 1.403,-7.8574 z"
         fill="#eea04b"
         id="path7" />
      <path
         d="m 62.02,135.83 -5.9869,-0.74831 -0.46772,-7.5771 5.8934,0.56102 z"
         fill="#ea8f2c"
         id="path8" />
      <path
         d="m 62.02,135.83 2.3384,4.3967 -5.6125,0.0935 -2.7128,-5.2385 z"
         fill="#e98222"
         id="path9" />
      <path
         d="m 65.418,137.98 -0.13229,4.0349 h -1.4552 l 0.13229,1.9844 4.7625,0.0661 -0.13229,-2.1828 -1.8521,0.0661 -0.06615,-3.9688 z"
         fill="#e98222"
         id="path10" />
    </g>
    <path
       d="m 253.98,122.2 -21.771,7.3498 c -14.015,2.7988 -24.795,30.45 -24.823,63.67 0.006,31.948 9.9841,58.996 23.383,63.385 v 0.0276 l 0.18537,0.0594 23.026,7.5446 v -26.74 c 4.8641,-11.883 7.594,-27.749 7.6183,-44.277 -0.0116,-16.57 -2.7422,-32.483 -7.6183,-44.396 z"
       fill="#262626"
       id="path11" />
    <g
       transform="matrix(4.5984,0,0,4.5984,-95.486,-400.37)"
       id="g22">
      <path
         d="m 63.189,103.09 -1.0758,0.51449 0.04677,1.1693 -0.88867,0.37418 0.37418,2.1048 1.7773,0.70158 1.6838,-0.98222 -0.04677,-2.0112 -0.79513,-0.28063 -0.14032,-1.2161 z"
         fill="#e98222"
         id="path12" />
      <path
         d="m 63.283,105.89 0.14031,2.058 1.6838,-0.98222 -0.04677,-2.0112 z"
         fill="#eea04b"
         id="path13" />
      <path
         d="m 63.283,105.89 -0.18709,-0.8419 1.1693,-0.37418 0.79513,0.28063 z"
         fill="#eb9333"
         id="path14" />
      <path
         d="m 63.283,105.89 -2.0112,-0.74836 0.88867,-0.37418 0.93544,0.28064 z"
         fill="#ea8f2c"
         id="path15" />
      <path
         d="m 63.096,105.05 0.02339,-1.1459 1.0056,-0.44434 0.14032,1.2161 z"
         fill="#eea04b"
         id="path16" />
      <path
         d="m 63.119,103.9 -1.0056,-0.30402 1.0758,-0.51449 0.93545,0.37417 z"
         fill="#ea8f2c"
         id="path17" />
      <path
         d="m 64.699,94.902 a 0.15002,0.15002 0 0 0 -0.14453,0.08789 l -0.92773,2.0508 a 0.15002,0.15002 0 0 0 -0.0039,0.10938 l 0.36328,1.0586 -2.584,-1.7598 a 0.15002,0.15002 0 0 0 -0.22656,0.17188 l 1.5996,4.6836 a 0.15002,0.15002 0 0 0 0.04492,0.13281 l 0.94531,2.7676 a 0.15002,0.15002 0 0 0 0.02148,0.0645 l 5.5898,16.363 a 0.15002,0.15002 0 0 0 0.26562,0.0352 l 1.5215,-2.25 a 0.15002,0.15002 0 0 0 0.01758,-0.13086 l -6.666,-19.453 0.04102,-0.07031 a 0.15002,0.15002 0 0 0 -0.04687,-0.19727 l -0.11133,-0.07617 -0.47266,-1.3809 0.74414,-1.6465 7.2207,21.861 a 0.15,0.15 0 0 0 0.18945,0.0957 0.15,0.15 0 0 0 0.0957,-0.18945 l -7.3418,-22.227 a 0.15002,0.15002 0 0 0 -0.13476,-0.10156 z m -3.0957,2.0469 2.543,1.7305 0.04297,0.12109 -1.2246,2.1309 z m 2.7148,2.2285 0.6875,2.0078 h -1.8418 z m -1.1641,2.3086 h 1.7676 l -0.99609,2.2578 z m 2.0176,0.18164 0.84961,2.4824 -1.9004,-0.10937 z m -1.041,2.6758 1.8477,0.10352 -1.0645,2.1875 z m 2.0703,0.33203 0.75,2.1875 -1.7637,-0.10742 z m -1.1465,2.3711 1.8516,0.11328 -1.0664,2.1855 z m 2.0762,0.33789 0.72852,2.1309 -1.7422,-0.0547 z m -1.1504,2.373 1.793,0.0547 -0.98242,2.3184 z m 2.043,0.23633 0.78711,2.2969 -1.7168,-0.11133 z m -1.1172,2.4727 1.7852,0.11718 -1.0254,2.1074 z m 2.0527,0.25195 0.8457,2.4727 -1.9121,-0.28321 z m -1.1172,2.4863 1.8594,0.27148 -0.98242,2.2969 z m 2.1172,0.43555 0.89258,2.6016 -1.9102,-0.23047 z m -1.0566,2.668 1.8242,0.22266 -1.1621,1.7188 z"
         color="#000000"
         fill="#e8bf69"
         stroke-linecap="round"
         stroke-linejoin="round"
         style="-inkscape-stroke:none"
         id="path18" />
      <path
         d="m 61.92,98.408 a 0.15,0.15 0 0 0 -0.15625,0.14062 0.15,0.15 0 0 0 0.14062,0.1582 l 2.416,0.13086 1.627,0.84375 -0.73047,1.5234 a 0.15002,0.15002 0 0 0 0.05859,0.19336 l 1.5469,0.92773 -0.61914,1.7363 a 0.15002,0.15002 0 0 0 0.05859,0.17578 l 1.6758,1.1172 -0.86719,1.7344 a 0.15002,0.15002 0 0 0 0.06641,0.20118 l 1.7129,0.85546 -0.8496,1.5156 a 0.15002,0.15002 0 0 0 0.05469,0.20312 l 1.6641,0.98633 -0.73047,1.4629 a 0.15002,0.15002 0 0 0 0.04883,0.19141 l 1.6211,1.1211 -0.68164,1.6738 a 0.15002,0.15002 0 0 0 0.04102,0.17188 l 1.5645,1.3144 -0.74219,1.5488 a 0.15,0.15 0 0 0 0.07031,0.20117 0.15,0.15 0 0 0 0.19922,-0.0703 l 0.79492,-1.6543 a 0.15002,0.15002 0 0 0 -0.03906,-0.17969 l -1.5703,-1.3184 0.68555,-1.6855 a 0.15002,0.15002 0 0 0 -0.05273,-0.17969 l -1.6133,-1.1172 0.73633,-1.4707 a 0.15002,0.15002 0 0 0 -0.05859,-0.19531 l -1.6602,-0.98438 0.85547,-1.5254 a 0.15002,0.15002 0 0 0 -0.06445,-0.20898 l -1.7188,-0.85938 0.85938,-1.7168 a 0.15002,0.15002 0 0 0 -0.05078,-0.1914 l -1.6875,-1.127 0.62109,-1.7402 a 0.15002,0.15002 0 0 0 -0.06445,-0.17969 l -1.5352,-0.92187 0.73438,-1.5313 A 0.15002,0.15002 0 0 0 66.21498,99.482 l -1.7852,-0.92578 a 0.15002,0.15002 0 0 0 -0.0625,-0.01758 z"
         color="#000000"
         fill="#e8bf69"
         stroke-linecap="round"
         stroke-linejoin="round"
         style="-inkscape-stroke:none"
         id="path19" />
      <path
         d="m 70.164,115.88 a 0.15,0.15 0 0 0 -0.11328,0.006 l -3.7715,1.7852 a 0.15002,0.15002 0 0 0 0.04883,0.28516 l 2.3809,0.26367 a 0.15,0.15 0 0 0 0.16602,-0.13281 0.15,0.15 0 0 0 -0.13281,-0.16406 l -1.8555,-0.20704 3.293,-1.5586 a 0.15,0.15 0 0 0 0.07031,-0.20117 0.15,0.15 0 0 0 -0.08594,-0.0762 z"
         color="#000000"
         fill="#e8bf69"
         stroke-linecap="round"
         stroke-linejoin="round"
         style="-inkscape-stroke:none"
         id="path20" />
      <path
         d="m 66.691,112.24 a 0.15,0.15 0 0 0 -0.08594,0.0762 l -3.7031,7.7402 a 0.15002,0.15002 0 0 0 0.12109,0.21289 l 6.1484,0.56445 -7.4277,6.916 a 0.15002,0.15002 0 0 0 -0.0098,0.20898 l 4.5645,5.1602 a 0.15,0.15 0 0 0 0.21094,0.0117 0.15,0.15 0 0 0 0.01367,-0.21094 l -4.4688,-5.0508 7.5664,-7.043 a 0.15002,0.15002 0 0 0 -0.08789,-0.25976 l -6.2676,-0.57618 3.6113,-7.543 a 0.15,0.15 0 0 0 -0.07031,-0.20118 0.15,0.15 0 0 0 -0.11524,-0.006 z"
         color="#000000"
         fill="#e8bf69"
         stroke-linecap="round"
         stroke-linejoin="round"
         style="-inkscape-stroke:none"
         id="path21" />
      <path
         d="m 65.973,115.77 a 0.15,0.15 0 0 0 -0.20898,0.0254 0.15,0.15 0 0 0 0.02539,0.21094 l 1.9277,1.5059 -4.7461,2.3418 a 0.15,0.15 0 0 0 -0.06836,0.20117 0.15,0.15 0 0 0 0.20117,0.0684 l 4.9609,-2.4473 a 0.15002,0.15002 0 0 0 0.02539,-0.25195 z"
         color="#000000"
         fill="#e8bf69"
         stroke-linecap="round"
         stroke-linejoin="round"
         style="-inkscape-stroke:none"
         id="path22" />
    </g>
    <path
       id="path23"
       style="fill:#e8bf69;fill-opacity:1;stroke:none;-inkscape-stroke:none"
       d="m 209.77734,257.01562 c -1.55776,0.0105 -2.19636,2.34627 -0.88086,3.16602 2.24315,1.53654 4.48845,3.07008 6.73243,4.60547 -21.12059,61.89138 -42.24521,123.78194 -63.36329,185.67383 -0.54,1.44623 1.37535,2.90924 2.61915,1.97461 1.05248,-0.90921 1.08235,-2.42409 1.6313,-3.62253 20.70428,-60.66163 41.40856,-121.32326 62.11284,-181.9849 1.15578,0.72548 2.19597,1.71674 3.49609,2.16407 1.47405,0.30209 2.66742,-1.7635 1.56836,-2.83985 -1.20654,-0.99923 -2.54763,-1.84785 -3.86423,-2.67666 -0.0447,-0.39845 0.30462,-0.90444 0.39072,-1.35408 0.31882,-1.08316 1.01663,-2.18896 0.76648,-3.34621 -0.38007,-1.09157 -1.67944,-1.28337 -2.68234,-1.23131 -2.84161,-0.18108 -5.68383,-0.39006 -8.52665,-0.52846 z m 7.15625,3.93946 c 0.003,0.88663 -1.36291,-0.4422 -0.18826,-0.0117 l 0.0998,0.006 z" />
    <path
       id="path24"
       style="fill:#e8bf69;fill-opacity:1;stroke:none;-inkscape-stroke:none"
       d="m 211.42969,257.92188 c -1.41517,0.0316 -1.89448,1.57829 -2.61719,2.52343 C 140.04102,365.01446 71.268505,469.58343 2.5,574.1543 c -0.8803745,1.23343 0.5254893,3.11615 1.9568439,2.60906 1.2503186,-0.5107 1.6338953,-1.92229 2.4130769,-2.88315 C 75.558752,469.43067 144.25568,364.98543 212.93945,260.5332 c 0.68615,-1.10913 -0.22857,-2.6215 -1.50976,-2.61132 z" />
    <path
       d="m 199.82,292.79 a 0.68983,0.68983 0 0 0 -0.66461,1.1945 l 10.921,7.8496 -23.899,11.658 a 0.68983,0.68983 0 0 0 0.12571,1.2843 l 21.905,5.6043 -21.555,3.9966 a 0.68976,0.68976 0 0 0 -0.54785,0.80834 0.68976,0.68976 0 0 0 0.79933,0.55684 l 24.635,-4.5625 a 0.68983,0.68983 0 0 0 0.054,-1.3472 l -23.127,-5.9276 23.252,-11.343 a 0.68983,0.68983 0 0 0 0.0987,-1.1766 l -6.9155,-4.9666 3.817,1.5986 a 0.68976,0.68976 0 0 0 0.89813,-0.36833 0.68976,0.68976 0 0 0 -0.36824,-0.90709 z"
       color="#000000"
       fill="#e8bf69"
       stroke-linecap="round"
       stroke-linejoin="round"
       stroke-width="4.5984"
       style="-inkscape-stroke:none"
       id="path25" />
    <path
       d="m 209.39,296.12 -10.041,3.0446 a 0.68983,0.68983 0 0 0 0.0719,1.3382 l 7.6251,1.446 -7.9214,1.455 a 0.68983,0.68983 0 0 0 -0.18862,1.2843 l 9.4213,4.8678 a 0.68976,0.68976 0 0 0 0.93405,-0.29659 0.68976,0.68976 0 0 0 -0.29638,-0.92507 l -7.634,-3.9427 9.574,-1.7603 a 0.68983,0.68983 0 0 0 0,-1.3562 l -8.4872,-1.6076 7.3466,-2.2273 a 0.68976,0.68976 0 0 0 0.45805,-0.8622 0.68976,0.68976 0 0 0 -0.86219,-0.458 z"
       color="#000000"
       fill="#e8bf69"
       stroke-linecap="round"
       stroke-linejoin="round"
       stroke-width="4.5984"
       style="-inkscape-stroke:none"
       id="path26" />
    <ellipse
       cx="218.97"
       cy="334.28"
       rx="15.512"
       ry="11.773"
       fill="#616161"
       id="ellipse26" />
    <path
       d="m 207.97,279.43 v 54.845 a 10.996,8.5472 0 0 0 10.995,8.5451 10.996,8.5472 0 0 0 10.995,-8.5451 V 279.43 Z"
       fill="#555555"
       id="path27" />
    <ellipse
       cx="218.97"
       cy="279.42999"
       rx="10.996"
       ry="8.5472002"
       fill="#616161"
       id="ellipse27" />
    <path
       d="m 207.97,294.3 v 4.4127 a 10.996,8.5472 0 0 0 10.995,8.5451 10.996,8.5472 0 0 0 10.995,-8.5451 V 294.3 A 10.996,8.5472 0 0 1 218.965,302.8475 10.996,8.5472 0 0 1 207.97,294.3 Z"
       fill="#414141"
       id="path28" />
    <path
       d="m 207.97,313.2 v 4.4128 a 10.996,8.5472 0 0 0 10.995,8.5451 10.996,8.5472 0 0 0 10.995,-8.5451 V 313.2 A 10.996,8.5472 0 0 1 218.965,321.7475 10.996,8.5472 0 0 1 207.97,313.2 Z"
       fill="#414141"
       id="path29" />
    <path
       d="m 125.95,133.44 34.066,15.208 -13.992,27.983 -33.762,-14.904 z"
       fill="#e98222"
       id="path30" />
    <path
       d="m 238.16,251.37 -18.25,0.61071 a 0.68983,0.68983 0 0 0 -0.62868,0.91609 l 4.4367,12.655 -4.8768,4.8768 a 0.68983,0.68983 0 0 0 0.61069,1.1676 l 5.9905,-1.1406 1.8501,5.281 -15.942,10.113 a 0.68976,0.68976 0 0 0 -0.21552,0.952 0.68976,0.68976 0 0 0 0.95201,0.21566 l 15.672,-9.9422 1.8681,5.3258 a 0.68983,0.68983 0 0 0 1.1047,0.2874 l 13.382,-11.864 a 0.68976,0.68976 0 0 0 0.0628,-0.96999 0.68976,0.68976 0 0 0 -0.97895,-0.0539 l -12.61,11.173 -1.6346,-4.6613 14.774,-9.3674 a 0.68983,0.68983 0 0 0 -0.50295,-1.2663 l -16.876,3.2063 -1.0418,-2.9728 13.364,-13.364 a 0.68983,0.68983 0 0 0 -0.51193,-1.1766 z m -1.6974,1.437 -11.658,11.658 -3.9068,-11.137 z m -12.241,14.19 0.7544,2.1465 -3.5835,0.68254 z m 15.717,0.70954 -11.451,7.2658 -1.6795,-4.778 z"
       color="#000000"
       fill="#e8bf69"
       stroke-linecap="round"
       stroke-linejoin="round"
       stroke-width="4.5984"
       style="-inkscape-stroke:none"
       id="path31" />
    <path
       d="m 232.51,83.878 -8.603,-0.3228 -3.1368,10.007 8.5137,11.931 6.6674,-0.2152 4.7317,-9.6784 z"
       fill="#e98222"
       id="path32" />
    <path
       d="m 232.51,83.878 -3.4412,10.324 6.8824,11.076 4.7317,-9.6784 z"
       fill="#eea04b"
       id="path33" />
    <path
       d="m 207.56,68.5 5.9146,-14.733 1.5055,-0.21507 -3.0111,-1.2905 1.8282,-4.3015 3.1186,0.32262 0.32263,2.0432 1.2905,0.96785 v 2.0432 h 2.1508 l 4.9467,4.194 1.2905,0.32262 1.398,7.7427 0.10749,6.3448 -3.0111,2.9035 0.43014,6.7749 -1.2904,3.7639 -3.3337,1.1829 -10.646,-4.0865 -1.5055,-9.3558 z"
       fill="#ea8f2c"
       id="path34" />
    <path
       d="m 215.3,65.596 2.0432,-2.796 1.0754,-3.2261 1.9357,1.2904 0.32263,5.0543 -3.0111,1.398 z"
       fill="#443022"
       id="path35" />
    <path
       d="m 223.15,76.135 1.0754,3.4412 -1.1829,2.6884 -3.8714,-1.6131 0.75276,-2.2583 z"
       fill="#443022"
       id="path36" />
    <path
       d="m 225.52,61.617 0.1076,6.7749 1.5055,3.1186 0.21506,-5.1618 z"
       fill="#443022"
       id="path37" />
    <g
       transform="matrix(4.5984,0,0,4.5984,-95.486,-400.37)"
       id="g53">
      <path
         d="M 80.76,103.75 A 10.198,25.335 0 0 0 70.562,129.085 10.198,25.335 0 0 0 80.76,154.42 h 0.74828 v -0.12195 a 10.198,25.335 0 0 0 9.4496,-25.213 10.198,25.335 0 0 0 -9.4496,-25.262 v -0.0739 z"
         fill="#c3c3c3"
         id="path38" />
      <ellipse
         cx="81.508003"
         cy="129.09"
         rx="10.198"
         ry="25.334999"
         fill="#ffffff"
         id="ellipse38" />
      <path
         d="m 87.623,129.81 -6.416,3.5996 -9.3066,-0.45117 a 0.25,0.25 0 0 0 -0.26172,0.23828 0.25,0.25 0 0 0 0.23828,0.26172 l 8.5078,0.41211 -2.3516,1.3184 a 0.25002,0.25002 0 0 0 0.1543,0.4668 l 11.131,-1.3574 a 0.25002,0.25002 0 0 0 -0.01758,-0.49804 l -7.1523,-0.34571 5.7188,-3.209 a 0.25,0.25 0 0 0 0.0957,-0.33984 0.25,0.25 0 0 0 -0.33984,-0.0957 z m -6.2969,4.1055 5.0137,0.24219 -6.959,0.84961 z"
         color="#000000"
         fill="#e0e0e0"
         stroke-linecap="round"
         stroke-linejoin="round"
         style="-inkscape-stroke:none"
         id="path39" />
      <path
         d="m 73.511,127.05 v 5.2e-4 a 0.93365,2.2581 0 0 0 -0.93173,2.2577 0.93365,2.2581 0 0 0 0.93173,2.2578 v 5.1e-4 h 1.4775 v -4.5165 h -1.4754 z"
         fill="#dadada"
         stroke-linecap="round"
         stroke-linejoin="round"
         stroke-opacity="0.24624"
         stroke-width="0.9851"
         id="path40" />
      <path
         d="m 74.989,127.05 a 0.93365,2.2581 0 0 0 -0.93379,2.2583 0.93365,2.2581 0 0 0 0.93379,2.2583 0.93365,2.2581 0 0 0 10e-4,0 0.93365,2.2581 0 0 0 0.0015,-5.1e-4 0.93365,2.2581 0 0 0 0.17777,-0.047 l 2.4314,-0.64854 v -3.1249 l -2.4097,-0.64182 a 0.93365,2.2581 0 0 0 -10e-4,-5.2e-4 0.93365,2.2581 0 0 0 -0.19999,-0.0532 0.93365,2.2581 0 0 0 -0.001,0 z"
         fill="#eaeaea"
         id="path41" />
      <ellipse
         cx="77.498001"
         cy="129.31"
         rx="0.65364999"
         ry="1.5809"
         fill="#f7f7f7"
         id="ellipse41" />
      <path
         d="m 79.649,128.01 -2.1513,0.30127 a 0.41387,1.001 0 0 0 -0.41393,1.001 0.41387,1.001 0 0 0 0.41393,1.001 l 2.1513,0.30127 z"
         fill="#e0e0e0"
         stroke-linecap="round"
         stroke-linejoin="round"
         stroke-opacity="0.24624"
         stroke-width="0.60679"
         id="path42" />
      <ellipse
         cx="79.649002"
         cy="129.31"
         rx="0.53836"
         ry="1.3020999"
         fill="#9a9a9a"
         id="ellipse42" />
      <path
         d="m 75.998,118.12 a 0.25,0.25 0 0 0 -0.34375,0.0762 0.25,0.25 0 0 0 0.07617,0.3457 l 12.201,7.7734 -16.176,5.9062 a 0.25,0.25 0 0 0 -0.14844,0.32031 0.25,0.25 0 0 0 0.32031,0.14844 l 16.65,-6.0801 a 0.25002,0.25002 0 0 0 0.04883,-0.44531 z"
         color="#000000"
         fill="#e0e0e0"
         stroke-linecap="round"
         stroke-linejoin="round"
         style="-inkscape-stroke:none"
         id="path43" />
      <path
         d="m 89.238,124.05 a 1.732,5.036 0 0 0 -1.7322,5.0359 1.732,5.036 0 0 0 1.7322,5.0359 h 0.59531 v -0.30747 a 1.732,5.036 0 0 0 1.1369,-4.7284 1.732,5.036 0 0 0 -1.1369,-4.7284 v -0.30747 z"
         fill="#ebebeb"
         stroke-linecap="round"
         stroke-linejoin="round"
         stroke-opacity="0.24624"
         stroke-width="0.18374"
         id="path44" />
      <ellipse
         cx="89.834"
         cy="129.09"
         rx="1.732"
         ry="5.0359998"
         fill="#f7f7f7"
         id="ellipse44" />
      <path
         d="m 90.056,126.63 v 0.006 c -0.01436,-0.002 -0.02887,-0.003 -0.04341,-0.003 -0.46536,0 -0.84233,1.0969 -0.84233,2.45 10e-7,1.3531 0.37696,2.45 0.84233,2.45 0.01454,0 0.02905,-9.8e-4 0.04341,-0.003 v 0.006 l 5.2348,-1.8686 v -1.1689 l -5.1919,-1.8531 z"
         fill="#cecece"
         stroke-linecap="round"
         stroke-linejoin="round"
         stroke-opacity="0.24624"
         stroke-width="0.63379"
         id="path45" />
      <ellipse
         cx="95.291"
         cy="129.09"
         rx="0.64061999"
         ry="1.3649"
         fill="#ffffff"
         id="ellipse45" />
      <ellipse
         cx="95.605003"
         cy="129.09"
         rx="0.46987"
         ry="0.78614002"
         fill="#e0e0e0"
         id="ellipse46" />
      <path
         d="m 64.228,94.126 -2.9104,-0.09922 -0.29766,0.56224 -6.0854,-0.42995 -0.39688,2.1167 6.4161,0.52917 0.39688,0.46302 2.8773,0.09922 z"
         fill="#e98222"
         id="path46" />
      <ellipse
         cx="64.227997"
         cy="95.746002"
         rx="0.95911002"
         ry="1.6206"
         fill="#eea04b"
         id="ellipse47" />
      <path
         d="m 60.358,93.1 0.66146,1.5544 0.03307,3.9688 -1.3229,0.42995 0.26458,0.82682 -8.632,2.4143 -0.7276,-1.7529 -0.09922,-4.0018 z"
         fill="#e98222"
         id="path47" />
      <path
         d="m 51.495,99.153 -1.8521,0.42995 0.16536,1.2898 0.62839,0.66145 0.09147,1.3462 a 1.65,2.1193 82.44 0 0 0.79685,1.049 l -0.0083,0.34933 a 0.69207,0.92405 83.497 0 0 -0.0047,0.19947 0.69207,0.92405 83.497 0 0 1.0335,0.54622 0.69207,0.92405 83.497 0 0 0.80047,-0.71675 h 5.17e-4 l 5.17e-4,-0.0114 a 0.69207,0.92405 83.497 0 0 0,-0.002 l 0.0036,-0.1633 a 1.65,2.1193 82.44 0 0 1.2402,-0.76687 1.65,2.1193 82.44 0 0 0.01395,0.007 l 0.07235,0.99891 a 1.0584,1.3887 83.059 0 0 0.01085,0.14986 1.0584,1.3887 83.059 0 0 1.5529,0.83561 1.0584,1.3887 83.059 0 0 1.202,-1.1374 h 0.0016 l -0.03617,-1.2423 a 1.65,2.1193 82.44 0 0 0.5178,-1.3395 l -0.01344,-1.6898 -3.8365,0.4961 -0.12144,0.66094 a 1.65,2.1193 82.44 0 0 -1.4077,-0.17467 1.65,2.1193 82.44 0 0 -0.37879,0.0884 z"
         fill="#ea8f2c"
         id="path48" />
      <path
         d="m 60.523,97.466 0.52916,1.1576 -1.3229,0.42995 0.26458,0.82682 -8.632,2.4143 -0.7276,-1.7529 z"
         fill="#ea8f2c"
         id="path49" />
      <path
         d="m 60.358,93.1 0.16536,4.3656 0.52916,1.1576 -0.03307,-4.0349 z"
         fill="#eea04b"
         id="path50" />
      <path
         d="m 55.959,95.415 -0.06615,-1.6206 0.49609,-0.29766 v -2.1167 l -0.7276,-1.1245 h -0.46302 l -0.69453,-1.1906 -4.2003,1.1245 -0.79375,-1.7529 -1.8852,0.56224 -4.068,5.5893 1.7859,4.5971 4.7625,-2.5797 0.76068,0.89297 z"
         fill="#e98222"
         id="path51" />
      <ellipse
         transform="rotate(-24.928)"
         cx="3.4012001"
         cy="104.26"
         rx="4.0349002"
         ry="3.8529999"
         fill="#e98222"
         id="ellipse51" />
      <ellipse
         transform="rotate(-19.942)"
         cx="17.614"
         cy="102.33"
         rx="1.0583"
         ry="0.8599"
         fill="#e98222"
         id="ellipse52" />
      <path
         d="m 48.816,98.425 -0.16197,-1.8142 -2.2528,0.36278 -0.03261,1.4514 z"
         fill="#e98222"
         id="path52" />
      <ellipse
         cx="47.591999"
         cy="98.425003"
         rx="1.2237"
         ry="1.0253"
         fill="#ea8f2c"
         id="ellipse53" />
    </g>
    <path
       d="m 162.7,190.39 0.0731,3.2253 23.491,1.8337 -0.0805,-3.5478 z"
       fill="#b4661f"
       id="path53" />
    <path
       d="m 162.92,195.23 0.0731,3.2253 23.491,1.8337 -0.0805,-3.5478 z"
       fill="#b4661f"
       id="path54" />
    <path
       d="m 162.92,200.07 0.0731,3.2253 23.491,1.8337 -0.0805,-3.5478 z"
       fill="#b4661f"
       id="path55" />
    <path
       d="m 162.93,204.91 0.0731,3.2253 23.491,1.8338 -0.0805,-3.5479 z"
       fill="#b4661f"
       id="path56" />
    <path
       d="m 163.14,209.53 0.0731,3.2253 23.491,1.8337 -0.0805,-3.5478 z"
       fill="#b4661f"
       id="path57" />
    <path
       d="m 163.25,214.26 0.0731,3.2253 23.491,1.8337 -0.0805,-3.5478 z"
       fill="#b4661f"
       id="path58" />
    <path
       d="m 164.97,223.68 1.1829,2.3658 23.551,2.6885 -1.0754,-2.581 z"
       fill="#b4661f"
       id="path59" />
    <path
       d="m 167.12,227.87 23.443,2.1508 1.1829,2.3659 -23.121,-2.2583 z"
       fill="#b4661f"
       id="path60" />
    <path
       d="m 169.27,231.31 1.1829,1.9357 22.26,2.3659 -0.86031,-1.7206 z"
       fill="#b4661f"
       id="path61" />
    <path
       d="m 170.99,235.08 23.013,2.2583 1.0754,2.0432 -22.691,-2.1508 z"
       fill="#b4661f"
       id="path62" />
    <path
       d="m 173.68,238.95 1.5055,2.6885 21.077,0.32233 -0.86032,-1.1829 z"
       fill="#b4661f"
       id="path63" />
  </g>
</svg>
