<?xml version="1.0" encoding="UTF-8" standalone="no"?>
<svg
   width="128"
   height="128"
   viewBox="0 0 33.866666 33.866668"
   version="1.1"
   id="svg8"
   sodipodi:docname="website.svg"
   inkscape:version="1.4 (86a8ad7, 2024-10-11)"
   inkscape:export-filename="website.png"
   inkscape:export-xdpi="96"
   inkscape:export-ydpi="96"
   xmlns:inkscape="http://www.inkscape.org/namespaces/inkscape"
   xmlns:sodipodi="http://sodipodi.sourceforge.net/DTD/sodipodi-0.dtd"
   xmlns="http://www.w3.org/2000/svg"
   xmlns:svg="http://www.w3.org/2000/svg">
  <sodipodi:namedview
     id="namedview1"
     pagecolor="#505050"
     bordercolor="#ffffff"
     borderopacity="1"
     inkscape:showpageshadow="0"
     inkscape:pageopacity="0"
     inkscape:pagecheckerboard="1"
     inkscape:deskcolor="#505050"
     inkscape:zoom="6.5619509"
     inkscape:cx="92.960159"
     inkscape:cy="56.004686"
     inkscape:current-layer="svg8"
     inkscape:window-width="3440"
     inkscape:window-height="1377"
     inkscape:window-x="-8"
     inkscape:window-y="-8"
     inkscape:window-maximized="1" />
  <defs
     id="defs2">
    <inkscape:path-effect
       effect="fillet_chamfer"
       id="path-effect7"
       is_visible="true"
       lpeversion="1"
       nodesatellites_param="F,0,1,1,0,0.44105342,0,1 @ F,0,1,1,0,0.44105342,0,1 @ F,0,1,1,0,0.44105342,0,1 @ F,0,1,1,0,0.44105342,0,1 @ F,0,1,1,0,0.44105342,0,1 @ F,0,0,1,0,0.44105342,0,1 @ F,0,1,1,0,0.44105342,0,1 @ F,0,1,1,0,0.44105342,0,1 @ F,0,1,1,0,0.44105342,0,1 @ F,0,1,1,0,0.44105342,0,1 @ F,0,1,1,0,0.44105342,0,1 @ F,0,1,1,0,0.44105342,0,1 @ F,0,1,1,0,0.44105342,0,1"
       radius="0"
       unit="px"
       method="auto"
       mode="F"
       chamfer_steps="1"
       flexible="false"
       use_knot_distance="true"
       apply_no_radius="true"
       apply_with_radius="true"
       only_selected="false"
       hide_knots="false" />
    <inkscape:path-effect
       effect="fillet_chamfer"
       id="path-effect3"
       is_visible="true"
       lpeversion="1"
       nodesatellites_param="F,0,1,1,0,0.44105342,0,1 @ F,0,1,1,0,0.44105342,0,1 @ F,0,1,1,0,0.44105342,0,1 @ F,0,1,1,0,0.44105342,0,1 @ F,0,1,1,0,0.44105342,0,1 @ F,0,0,1,0,0.44105342,0,1 @ F,0,1,1,0,0.44105342,0,1 @ F,0,1,1,0,0.44105342,0,1 @ F,0,1,1,0,0.44105342,0,1 @ F,0,1,1,0,0.44105342,0,1 @ F,0,1,1,0,0.44105342,0,1 @ F,0,1,1,0,0.44105342,0,1 @ F,0,1,1,0,0.44105342,0,1"
       radius="0"
       unit="px"
       method="auto"
       mode="F"
       chamfer_steps="1"
       flexible="false"
       use_knot_distance="true"
       apply_no_radius="true"
       apply_with_radius="true"
       only_selected="false"
       hide_knots="false" />
    <inkscape:path-effect
       effect="fillet_chamfer"
       id="path-effect1"
       is_visible="true"
       lpeversion="1"
       nodesatellites_param="F,0,1,1,0,0.44105342,0,1 @ F,0,1,1,0,0.44105342,0,1 @ F,0,1,1,0,0.44105342,0,1 @ F,0,1,1,0,0.44105342,0,1 @ F,0,1,1,0,0.44105342,0,1 @ F,0,0,1,0,0.44105342,0,1 @ F,0,1,1,0,0.44105342,0,1 @ F,0,1,1,0,0.44105342,0,1 @ F,0,1,1,0,0.44105342,0,1 @ F,0,1,1,0,0.44105342,0,1 @ F,0,1,1,0,0.44105342,0,1 @ F,0,1,1,0,0.44105342,0,1 @ F,0,1,1,0,0.44105342,0,1"
       radius="0"
       unit="px"
       method="auto"
       mode="F"
       chamfer_steps="1"
       flexible="false"
       use_knot_distance="true"
       apply_no_radius="true"
       apply_with_radius="true"
       only_selected="false"
       hide_knots="false" />
  </defs>
  <metadata
     id="metadata5" />
  <circle
     style="fill:none;stroke:#ffffff;stroke-width:2.05621;stroke-linecap:round;stroke-linejoin:round;stroke-dasharray:none;stroke-opacity:1"
     id="path2"
     cx="16.933334"
     cy="16.933334"
     r="15.470653" />
  <path
     style="fill:none;stroke:#ffffff;stroke-width:2.05621;stroke-linecap:round;stroke-linejoin:round;stroke-dasharray:none;stroke-opacity:1"
     d="M 24.453418,29.958496 22.197476,26.051088 M 11.669195,7.8155783 9.4132536,3.9081687"
     id="path5"
     sodipodi:nodetypes="cccc" />
  <path
     style="fill:none;stroke:#ffffff;stroke-width:2.05621;stroke-linecap:round;stroke-linejoin:round;stroke-dasharray:none;stroke-opacity:1"
     d="m 1.8931714,16.933334 2.2539175,0 m 25.5724941,0 2.253918,0"
     id="path3"
     sodipodi:nodetypes="cccc" />
  <path
     style="fill:none;stroke:#ffffff;stroke-width:2.05621;stroke-linecap:round;stroke-linejoin:round;stroke-dasharray:none;stroke-opacity:1"
     d="M 9.4132536,29.958496 11.669195,26.051088 M 22.197476,7.8155783 24.453418,3.9081687"
     id="path4"
     sodipodi:nodetypes="cccc" />
  <path
     style="font-weight:bold;font-size:11.4857px;line-height:1;font-family:'Source Code Pro';-inkscape-font-specification:'Source Code Pro Bold';letter-spacing:0.179464px;word-spacing:0px;fill:#ffffff;stroke-width:0.678291;stroke-linecap:round;stroke-linejoin:round"
     d="M 8.0252412,20.045376 7.1426558,13.431058 A 0.38611037,0.38611037 131.1998 0 1 7.525374,12.993879 h 0.8752052 a 0.46135174,0.46135174 43.71143 0 1 0.4608851,0.440607 l 0.2245086,4.987979 a 0.06040086,0.06040086 5.2208274 0 0 0.1191881,0.01089 L 9.9253036,15.318737 A 0.55466685,0.55466685 141.5094 0 1 10.465713,14.88902 h 0.197549 a 0.5499964,0.5499964 38.726843 0 1 0.536862,0.430521 l 0.692779,3.11301 a 0.05811106,0.05811106 174.95947 0 0 0.11478,-0.01012 l 0.214746,-4.987903 a 0.46045079,0.46045079 136.23262 0 1 0.460024,-0.440645 l 0.760349,0 a 0.39024409,0.39024409 48.497596 0 1 0.387339,0.43777 l -0.811428,6.613136 a 0.49847806,0.49847806 138.4976 0 1 -0.494767,0.43777 h -0.932635 a 0.52327718,0.52327718 40.126456 0 1 -0.515723,-0.434687 l -0.493859,-2.874964 a 0.07711616,0.07711616 0.17056282 0 0 -0.151927,-4.53e-4 l -0.5116597,2.87587 a 0.5264495,0.5264495 140.04411 0 1 -0.5183102,0.434234 l -0.8752023,0 A 0.5038148,0.5038148 41.1998 0 1 8.0252412,20.045376 Z"
     id="text1"
     aria-label="W"
     sodipodi:nodetypes="cccccccccccccc"
     inkscape:path-effect="#path-effect1"
     inkscape:original-d="M 8.0835764,20.482555 7.0843206,12.993879 h 1.757312 l 0.264172,5.869193 0.9188554,-3.974052 h 1.079655 l 0.884397,3.974052 0.252688,-5.869193 h 1.642455 l -0.918856,7.488676 h -1.814741 l -0.643199,-3.744338 -0.6661735,3.744338 z"
     transform="translate(-0.75009031,0.1951165)" />
  <path
     style="font-weight:bold;font-size:11.4857px;line-height:1;font-family:'Source Code Pro';-inkscape-font-specification:'Source Code Pro Bold';letter-spacing:0.179464px;word-spacing:0px;fill:#ffffff;stroke-width:0.678291;stroke-linecap:round;stroke-linejoin:round"
     d="M 8.0252412,20.045376 7.1426558,13.431058 A 0.38611037,0.38611037 131.1998 0 1 7.525374,12.993879 h 0.8752052 a 0.46135174,0.46135174 43.71143 0 1 0.4608851,0.440607 l 0.2245086,4.987979 a 0.06040086,0.06040086 5.2208274 0 0 0.1191881,0.01089 L 9.9253036,15.318737 A 0.55466685,0.55466685 141.5094 0 1 10.465713,14.88902 h 0.197549 a 0.5499964,0.5499964 38.726843 0 1 0.536862,0.430521 l 0.692779,3.11301 a 0.05811106,0.05811106 174.95947 0 0 0.11478,-0.01012 l 0.214746,-4.987903 a 0.46045079,0.46045079 136.23262 0 1 0.460024,-0.440645 l 0.760349,0 a 0.39024409,0.39024409 48.497596 0 1 0.387339,0.43777 l -0.811428,6.613136 a 0.49847806,0.49847806 138.4976 0 1 -0.494767,0.43777 h -0.932635 a 0.52327718,0.52327718 40.126456 0 1 -0.515723,-0.434687 l -0.493859,-2.874964 a 0.07711616,0.07711616 0.17056282 0 0 -0.151927,-4.53e-4 l -0.5116597,2.87587 a 0.5264495,0.5264495 140.04411 0 1 -0.5183102,0.434234 l -0.8752023,0 A 0.5038148,0.5038148 41.1998 0 1 8.0252412,20.045376 Z"
     id="path1"
     aria-label="W"
     sodipodi:nodetypes="cccccccccccccc"
     inkscape:path-effect="#path-effect3"
     inkscape:original-d="M 8.0835764,20.482555 7.0843206,12.993879 h 1.757312 l 0.264172,5.869193 0.9188554,-3.974052 h 1.079655 l 0.884397,3.974052 0.252688,-5.869193 h 1.642455 l -0.918856,7.488676 h -1.814741 l -0.643199,-3.744338 -0.6661735,3.744338 z"
     transform="translate(6.4471789,0.1951165)" />
  <path
     style="font-weight:bold;font-size:11.4857px;line-height:1;font-family:'Source Code Pro';-inkscape-font-specification:'Source Code Pro Bold';letter-spacing:0.179464px;word-spacing:0px;fill:#ffffff;stroke-width:0.678291;stroke-linecap:round;stroke-linejoin:round"
     d="M 8.0252412,20.045376 7.1426558,13.431058 A 0.38611037,0.38611037 131.1998 0 1 7.525374,12.993879 h 0.8752052 a 0.46135174,0.46135174 43.71143 0 1 0.4608851,0.440607 l 0.2245086,4.987979 a 0.06040086,0.06040086 5.2208274 0 0 0.1191881,0.01089 L 9.9253036,15.318737 A 0.55466685,0.55466685 141.5094 0 1 10.465713,14.88902 h 0.197549 a 0.5499964,0.5499964 38.726843 0 1 0.536862,0.430521 l 0.692779,3.11301 a 0.05811106,0.05811106 174.95947 0 0 0.11478,-0.01012 l 0.214746,-4.987903 a 0.46045079,0.46045079 136.23262 0 1 0.460024,-0.440645 l 0.760349,0 a 0.39024409,0.39024409 48.497596 0 1 0.387339,0.43777 l -0.811428,6.613136 a 0.49847806,0.49847806 138.4976 0 1 -0.494767,0.43777 h -0.932635 a 0.52327718,0.52327718 40.126456 0 1 -0.515723,-0.434687 l -0.493859,-2.874964 a 0.07711616,0.07711616 0.17056282 0 0 -0.151927,-4.53e-4 l -0.5116597,2.87587 a 0.5264495,0.5264495 140.04411 0 1 -0.5183102,0.434234 l -0.8752023,0 A 0.5038148,0.5038148 41.1998 0 1 8.0252412,20.045376 Z"
     id="path6"
     aria-label="W"
     sodipodi:nodetypes="cccccccccccccc"
     inkscape:path-effect="#path-effect7"
     inkscape:original-d="M 8.0835764,20.482555 7.0843206,12.993879 h 1.757312 l 0.264172,5.869193 0.9188554,-3.974052 h 1.079655 l 0.884397,3.974052 0.252688,-5.869193 h 1.642455 l -0.918856,7.488676 h -1.814741 l -0.643199,-3.744338 -0.6661735,3.744338 z"
     transform="translate(13.644448,0.1951165)" />
</svg>
