<?xml version="1.0" encoding="UTF-8" standalone="no"?>
<!-- Created with Inkscape (http://www.inkscape.org/) -->

<svg
   width="250"
   height="256"
   viewBox="0 0 66.145832 67.733331"
   version="1.1"
   id="svg1"
   xml:space="preserve"
   inkscape:version="1.4 (86a8ad7, 2024-10-11)"
   sodipodi:docname="wedding.svg"
   inkscape:export-filename="Person3.png"
   inkscape:export-xdpi="96"
   inkscape:export-ydpi="96"
   xmlns:inkscape="http://www.inkscape.org/namespaces/inkscape"
   xmlns:sodipodi="http://sodipodi.sourceforge.net/DTD/sodipodi-0.dtd"
   xmlns="http://www.w3.org/2000/svg"
   xmlns:svg="http://www.w3.org/2000/svg"><sodipodi:namedview
     id="namedview1"
     pagecolor="#505050"
     bordercolor="#ffffff"
     borderopacity="1"
     inkscape:showpageshadow="0"
     inkscape:pageopacity="0"
     inkscape:pagecheckerboard="1"
     inkscape:deskcolor="#505050"
     inkscape:document-units="mm"
     inkscape:zoom="2.8284271"
     inkscape:cx="184.55487"
     inkscape:cy="134.17351"
     inkscape:window-width="3440"
     inkscape:window-height="1377"
     inkscape:window-x="-8"
     inkscape:window-y="-8"
     inkscape:window-maximized="1"
     inkscape:current-layer="layer1"
     showguides="true" /><defs
     id="defs1"><inkscape:path-effect
       effect="mirror_symmetry"
       start_point="396.875,0"
       end_point="396.875,1322.9167"
       center_point="396.875,661.45833"
       id="path-effect25"
       is_visible="true"
       lpeversion="1.2"
       lpesatellites=""
       mode="vertical"
       discard_orig_path="false"
       fuse_paths="false"
       oposite_fuse="false"
       split_items="false"
       split_open="false"
       link_styles="false" /><inkscape:path-effect
       effect="mirror_symmetry"
       start_point="351.80671,7.9670225"
       end_point="351.80671,1330.8837"
       center_point="351.80671,669.42536"
       id="path-effect24"
       is_visible="true"
       lpeversion="1.2"
       lpesatellites=""
       mode="vertical"
       discard_orig_path="false"
       fuse_paths="false"
       oposite_fuse="false"
       split_items="false"
       split_open="false"
       link_styles="false" /><inkscape:path-effect
       effect="mirror_symmetry"
       start_point="351.80671,7.9670225"
       end_point="351.80671,1330.8837"
       center_point="351.80671,669.42536"
       id="path-effect23"
       is_visible="true"
       lpeversion="1.2"
       lpesatellites=""
       mode="vertical"
       discard_orig_path="false"
       fuse_paths="false"
       oposite_fuse="false"
       split_items="false"
       split_open="false"
       link_styles="false" /><inkscape:path-effect
       effect="mirror_symmetry"
       start_point="351.80671,7.9670225"
       end_point="351.80671,1330.8837"
       center_point="351.80671,669.42536"
       id="path-effect22"
       is_visible="true"
       lpeversion="1.2"
       lpesatellites=""
       mode="vertical"
       discard_orig_path="false"
       fuse_paths="false"
       oposite_fuse="false"
       split_items="false"
       split_open="false"
       link_styles="false" /><inkscape:path-effect
       effect="mirror_symmetry"
       start_point="396.87502,-8.4338178"
       end_point="396.87502,1268.0465"
       center_point="396.87502,629.80636"
       id="path-effect20"
       is_visible="true"
       lpeversion="1.2"
       lpesatellites=""
       mode="vertical"
       discard_orig_path="false"
       fuse_paths="false"
       oposite_fuse="false"
       split_items="false"
       split_open="false"
       link_styles="false" /><inkscape:path-effect
       effect="mirror_symmetry"
       start_point="396.875,0"
       end_point="396.875,1322.9167"
       center_point="396.875,661.45833"
       id="path-effect19"
       is_visible="true"
       lpeversion="1.2"
       lpesatellites=""
       mode="vertical"
       discard_orig_path="false"
       fuse_paths="false"
       oposite_fuse="false"
       split_items="false"
       split_open="false"
       link_styles="false" /><inkscape:path-effect
       effect="mirror_symmetry"
       start_point="396.875,0"
       end_point="396.875,1322.9167"
       center_point="396.875,661.45833"
       id="path-effect17"
       is_visible="true"
       lpeversion="1.2"
       lpesatellites=""
       mode="vertical"
       discard_orig_path="false"
       fuse_paths="false"
       oposite_fuse="false"
       split_items="false"
       split_open="false"
       link_styles="false" /><inkscape:path-effect
       effect="mirror_symmetry"
       start_point="396.875,0"
       end_point="396.875,1322.9167"
       center_point="396.875,661.45833"
       id="path-effect16"
       is_visible="true"
       lpeversion="1.2"
       lpesatellites=""
       mode="vertical"
       discard_orig_path="false"
       fuse_paths="false"
       oposite_fuse="false"
       split_items="false"
       split_open="false"
       link_styles="false" /><inkscape:path-effect
       effect="mirror_symmetry"
       start_point="396.875,0"
       end_point="396.875,1322.9167"
       center_point="396.875,661.45833"
       id="path-effect15"
       is_visible="true"
       lpeversion="1.2"
       lpesatellites=""
       mode="vertical"
       discard_orig_path="false"
       fuse_paths="false"
       oposite_fuse="false"
       split_items="false"
       split_open="false"
       link_styles="false" /><inkscape:path-effect
       effect="mirror_symmetry"
       start_point="396.875,0"
       end_point="396.875,1322.9167"
       center_point="396.875,661.45833"
       id="path-effect14"
       is_visible="true"
       lpeversion="1.2"
       lpesatellites=""
       mode="vertical"
       discard_orig_path="false"
       fuse_paths="false"
       oposite_fuse="false"
       split_items="false"
       split_open="false"
       link_styles="false" /><inkscape:path-effect
       effect="mirror_symmetry"
       start_point="396.875,-51.166071"
       end_point="396.875,1271.7506"
       center_point="396.875,610.29226"
       id="path-effect7"
       is_visible="true"
       lpeversion="1.2"
       lpesatellites=""
       mode="vertical"
       discard_orig_path="false"
       fuse_paths="true"
       oposite_fuse="false"
       split_items="false"
       split_open="false"
       link_styles="false" /><inkscape:path-effect
       effect="mirror_symmetry"
       start_point="402.86785,-63.815361"
       end_point="402.86785,1259.1013"
       center_point="402.86785,597.64297"
       id="path-effect6"
       is_visible="true"
       lpeversion="1.2"
       lpesatellites=""
       mode="vertical"
       discard_orig_path="false"
       fuse_paths="true"
       oposite_fuse="false"
       split_items="false"
       split_open="false"
       link_styles="false" /><inkscape:path-effect
       effect="mirror_symmetry"
       start_point="412.49036,-64.054861"
       end_point="412.49036,1258.8618"
       center_point="412.49036,597.40347"
       id="path-effect5"
       is_visible="true"
       lpeversion="1.2"
       lpesatellites=""
       mode="vertical"
       discard_orig_path="false"
       fuse_paths="true"
       oposite_fuse="false"
       split_items="false"
       split_open="false"
       link_styles="false" /><inkscape:path-effect
       effect="mirror_symmetry"
       start_point="396.875,0"
       end_point="396.875,1322.9167"
       center_point="396.875,661.45833"
       id="path-effect4"
       is_visible="true"
       lpeversion="1.2"
       lpesatellites=""
       mode="vertical"
       discard_orig_path="false"
       fuse_paths="true"
       oposite_fuse="false"
       split_items="false"
       split_open="false"
       link_styles="false" /><inkscape:path-effect
       effect="mirror_symmetry"
       start_point="396.875,0"
       end_point="396.875,1322.9167"
       center_point="396.875,661.45833"
       id="path-effect3"
       is_visible="true"
       lpeversion="1.2"
       lpesatellites=""
       mode="vertical"
       discard_orig_path="false"
       fuse_paths="true"
       oposite_fuse="false"
       split_items="false"
       split_open="false"
       link_styles="false" /><inkscape:path-effect
       effect="mirror_symmetry"
       start_point="396.875,0"
       end_point="396.875,1322.9167"
       center_point="396.875,661.45833"
       id="path-effect2"
       is_visible="true"
       lpeversion="1.2"
       lpesatellites=""
       mode="vertical"
       discard_orig_path="false"
       fuse_paths="false"
       oposite_fuse="false"
       split_items="false"
       split_open="false"
       link_styles="false" /><inkscape:path-effect
       effect="mirror_symmetry"
       start_point="396.875,0"
       end_point="396.875,1322.9167"
       center_point="396.875,661.45833"
       id="path-effect1"
       is_visible="true"
       lpeversion="1.2"
       lpesatellites=""
       mode="vertical"
       discard_orig_path="false"
       fuse_paths="true"
       oposite_fuse="false"
       split_items="false"
       split_open="false"
       link_styles="false" /><inkscape:path-effect
       effect="mirror_symmetry"
       start_point="1500,0"
       end_point="1500,3000"
       center_point="1500,1500"
       id="path-effect865"
       is_visible="true"
       mode="vertical"
       discard_orig_path="false"
       fuse_paths="false"
       oposite_fuse="false"
       lpeversion="0"
       lpesatellites=""
       split_items="false"
       split_open="false"
       link_styles="false" /><inkscape:path-effect
       effect="mirror_symmetry"
       start_point="396.875,-496.75002"
       end_point="396.875,296.99998"
       center_point="396.875,-99.87502"
       id="path-effect854"
       is_visible="true"
       mode="vertical"
       discard_orig_path="false"
       fuse_paths="false"
       oposite_fuse="false"
       lpeversion="0"
       lpesatellites=""
       split_items="false"
       split_open="false"
       link_styles="false" /><inkscape:path-effect
       effect="mirror_symmetry"
       start_point="396.875,-496.75002"
       end_point="396.875,296.99998"
       center_point="396.875,-99.87502"
       id="path-effect843"
       is_visible="true"
       mode="vertical"
       discard_orig_path="false"
       fuse_paths="false"
       oposite_fuse="false"
       lpeversion="0"
       lpesatellites=""
       split_items="false"
       split_open="false"
       link_styles="false" /><inkscape:path-effect
       effect="mirror_symmetry"
       start_point="396.875,0"
       end_point="396.875,1322.9167"
       center_point="396.875,661.45833"
       id="path-effect25-8"
       is_visible="true"
       lpeversion="1.2"
       lpesatellites=""
       mode="vertical"
       discard_orig_path="false"
       fuse_paths="false"
       oposite_fuse="false"
       split_items="false"
       split_open="false"
       link_styles="false" /><inkscape:path-effect
       effect="mirror_symmetry"
       start_point="351.80671,7.9670225"
       end_point="351.80671,1330.8837"
       center_point="351.80671,669.42536"
       id="path-effect24-8"
       is_visible="true"
       lpeversion="1.2"
       lpesatellites=""
       mode="vertical"
       discard_orig_path="false"
       fuse_paths="false"
       oposite_fuse="false"
       split_items="false"
       split_open="false"
       link_styles="false" /><inkscape:path-effect
       effect="mirror_symmetry"
       start_point="351.80671,7.9670225"
       end_point="351.80671,1330.8837"
       center_point="351.80671,669.42536"
       id="path-effect23-2"
       is_visible="true"
       lpeversion="1.2"
       lpesatellites=""
       mode="vertical"
       discard_orig_path="false"
       fuse_paths="false"
       oposite_fuse="false"
       split_items="false"
       split_open="false"
       link_styles="false" /><inkscape:path-effect
       effect="mirror_symmetry"
       start_point="351.80671,7.9670225"
       end_point="351.80671,1330.8837"
       center_point="351.80671,669.42536"
       id="path-effect22-4"
       is_visible="true"
       lpeversion="1.2"
       lpesatellites=""
       mode="vertical"
       discard_orig_path="false"
       fuse_paths="false"
       oposite_fuse="false"
       split_items="false"
       split_open="false"
       link_styles="false" /><inkscape:path-effect
       effect="mirror_symmetry"
       start_point="396.87502,-8.4338178"
       end_point="396.87502,1268.0465"
       center_point="396.87502,629.80636"
       id="path-effect20-5"
       is_visible="true"
       lpeversion="1.2"
       lpesatellites=""
       mode="vertical"
       discard_orig_path="false"
       fuse_paths="false"
       oposite_fuse="false"
       split_items="false"
       split_open="false"
       link_styles="false" /><inkscape:path-effect
       effect="mirror_symmetry"
       start_point="396.875,0"
       end_point="396.875,1322.9167"
       center_point="396.875,661.45833"
       id="path-effect19-5"
       is_visible="true"
       lpeversion="1.2"
       lpesatellites=""
       mode="vertical"
       discard_orig_path="false"
       fuse_paths="false"
       oposite_fuse="false"
       split_items="false"
       split_open="false"
       link_styles="false" /><inkscape:path-effect
       effect="mirror_symmetry"
       start_point="396.875,0"
       end_point="396.875,1322.9167"
       center_point="396.875,661.45833"
       id="path-effect17-1"
       is_visible="true"
       lpeversion="1.2"
       lpesatellites=""
       mode="vertical"
       discard_orig_path="false"
       fuse_paths="false"
       oposite_fuse="false"
       split_items="false"
       split_open="false"
       link_styles="false" /><inkscape:path-effect
       effect="mirror_symmetry"
       start_point="396.875,0"
       end_point="396.875,1322.9167"
       center_point="396.875,661.45833"
       id="path-effect16-7"
       is_visible="true"
       lpeversion="1.2"
       lpesatellites=""
       mode="vertical"
       discard_orig_path="false"
       fuse_paths="false"
       oposite_fuse="false"
       split_items="false"
       split_open="false"
       link_styles="false" /><inkscape:path-effect
       effect="mirror_symmetry"
       start_point="396.875,0"
       end_point="396.875,1322.9167"
       center_point="396.875,661.45833"
       id="path-effect15-1"
       is_visible="true"
       lpeversion="1.2"
       lpesatellites=""
       mode="vertical"
       discard_orig_path="false"
       fuse_paths="false"
       oposite_fuse="false"
       split_items="false"
       split_open="false"
       link_styles="false" /><inkscape:path-effect
       effect="mirror_symmetry"
       start_point="396.875,0"
       end_point="396.875,1322.9167"
       center_point="396.875,661.45833"
       id="path-effect14-1"
       is_visible="true"
       lpeversion="1.2"
       lpesatellites=""
       mode="vertical"
       discard_orig_path="false"
       fuse_paths="false"
       oposite_fuse="false"
       split_items="false"
       split_open="false"
       link_styles="false" /><inkscape:path-effect
       effect="mirror_symmetry"
       start_point="396.875,-51.166071"
       end_point="396.875,1271.7506"
       center_point="396.875,610.29226"
       id="path-effect7-5"
       is_visible="true"
       lpeversion="1.2"
       lpesatellites=""
       mode="vertical"
       discard_orig_path="false"
       fuse_paths="true"
       oposite_fuse="false"
       split_items="false"
       split_open="false"
       link_styles="false" /><inkscape:path-effect
       effect="mirror_symmetry"
       start_point="402.86785,-63.815361"
       end_point="402.86785,1259.1013"
       center_point="402.86785,597.64297"
       id="path-effect6-2"
       is_visible="true"
       lpeversion="1.2"
       lpesatellites=""
       mode="vertical"
       discard_orig_path="false"
       fuse_paths="true"
       oposite_fuse="false"
       split_items="false"
       split_open="false"
       link_styles="false" /><inkscape:path-effect
       effect="mirror_symmetry"
       start_point="412.49036,-64.054861"
       end_point="412.49036,1258.8618"
       center_point="412.49036,597.40347"
       id="path-effect5-7"
       is_visible="true"
       lpeversion="1.2"
       lpesatellites=""
       mode="vertical"
       discard_orig_path="false"
       fuse_paths="true"
       oposite_fuse="false"
       split_items="false"
       split_open="false"
       link_styles="false" /><inkscape:path-effect
       effect="mirror_symmetry"
       start_point="396.875,0"
       end_point="396.875,1322.9167"
       center_point="396.875,661.45833"
       id="path-effect4-6"
       is_visible="true"
       lpeversion="1.2"
       lpesatellites=""
       mode="vertical"
       discard_orig_path="false"
       fuse_paths="true"
       oposite_fuse="false"
       split_items="false"
       split_open="false"
       link_styles="false" /><inkscape:path-effect
       effect="mirror_symmetry"
       start_point="396.875,0"
       end_point="396.875,1322.9167"
       center_point="396.875,661.45833"
       id="path-effect3-1"
       is_visible="true"
       lpeversion="1.2"
       lpesatellites=""
       mode="vertical"
       discard_orig_path="false"
       fuse_paths="true"
       oposite_fuse="false"
       split_items="false"
       split_open="false"
       link_styles="false" /><inkscape:path-effect
       effect="mirror_symmetry"
       start_point="396.875,0"
       end_point="396.875,1322.9167"
       center_point="396.875,661.45833"
       id="path-effect2-4"
       is_visible="true"
       lpeversion="1.2"
       lpesatellites=""
       mode="vertical"
       discard_orig_path="false"
       fuse_paths="false"
       oposite_fuse="false"
       split_items="false"
       split_open="false"
       link_styles="false" /><inkscape:path-effect
       effect="mirror_symmetry"
       start_point="396.875,0"
       end_point="396.875,1322.9167"
       center_point="396.875,661.45833"
       id="path-effect1-2"
       is_visible="true"
       lpeversion="1.2"
       lpesatellites=""
       mode="vertical"
       discard_orig_path="false"
       fuse_paths="true"
       oposite_fuse="false"
       split_items="false"
       split_open="false"
       link_styles="false" /><inkscape:path-effect
       effect="mirror_symmetry"
       start_point="1500,0"
       end_point="1500,3000"
       center_point="1500,1500"
       id="path-effect865-3"
       is_visible="true"
       mode="vertical"
       discard_orig_path="false"
       fuse_paths="false"
       oposite_fuse="false"
       lpeversion="0"
       lpesatellites=""
       split_items="false"
       split_open="false"
       link_styles="false" /><inkscape:path-effect
       effect="mirror_symmetry"
       start_point="396.875,-496.75002"
       end_point="396.875,296.99998"
       center_point="396.875,-99.87502"
       id="path-effect854-2"
       is_visible="true"
       mode="vertical"
       discard_orig_path="false"
       fuse_paths="false"
       oposite_fuse="false"
       lpeversion="0"
       lpesatellites=""
       split_items="false"
       split_open="false"
       link_styles="false" /><inkscape:path-effect
       effect="mirror_symmetry"
       start_point="396.875,-496.75002"
       end_point="396.875,296.99998"
       center_point="396.875,-99.87502"
       id="path-effect843-2"
       is_visible="true"
       mode="vertical"
       discard_orig_path="false"
       fuse_paths="false"
       oposite_fuse="false"
       lpeversion="0"
       lpesatellites=""
       split_items="false"
       split_open="false"
       link_styles="false" /><inkscape:path-effect
       effect="mirror_symmetry"
       start_point="105,0"
       end_point="105,297"
       center_point="105,148.5"
       id="path-effect1-8"
       is_visible="true"
       lpeversion="1.2"
       lpesatellites=""
       mode="vertical"
       discard_orig_path="false"
       fuse_paths="false"
       oposite_fuse="false"
       split_items="false"
       split_open="false"
       link_styles="false" /></defs><g
     inkscape:label="Layer 1"
     inkscape:groupmode="layer"
     id="layer1"><path
       id="path44"
       style="opacity:1;fill:#ffffff;fill-opacity:1;stroke:none;stroke-width:1.83642;stroke-linecap:butt;stroke-linejoin:round;stroke-opacity:1"
       d="M 25.16462,1.7160313 C 21.56901,1.6805333 16.674904,2.3874458 13.0877,5.8038305 6.7104477,11.877404 6.5282417,20.866292 6.5282417,20.866292 c 4.7373873,-5.83063 7.9563813,-4.919595 8.1993233,-7.045345 0.242942,-2.125751 6.012836,-2.429429 7.591966,-4.9195942 1.106493,-1.7448539 2.807218,-1.9716751 3.97819,-2.8270585 1.170974,0.8553834 2.871698,1.0822046 3.978191,2.8270585 1.57913,2.4901652 7.349024,2.7938432 7.591966,4.9195942 0.242942,2.12575 3.461936,1.214715 8.199323,7.045345 0,0 -0.182206,-8.988888 -6.559458,-15.0624615 -3.981,-3.7914281 -9.570889,-4.2452048 -13.210022,-4.0512629 -0.359978,-0.019184 -0.738382,-0.03264 -1.133101,-0.036536 z"
       sodipodi:nodetypes="sscsscsscscs" /><path
       id="path45"
       style="fill:#e4e4e4;fill-opacity:1;stroke-width:0.918209;stroke-linejoin:round"
       d="m 27.746838,1.7155568 c -0.5089,-0.00125 -0.994225,0.012768 -1.449117,0.037011 C 25.937743,1.7333828 25.559339,1.7199288 25.16462,1.7160318 21.56901,1.6805338 16.674904,2.3874463 13.0877,5.803831 6.7104477,11.877405 6.5282417,20.866293 6.5282417,20.866293 c 0.461146,-0.567564 0.903261,-1.054386 1.334288,-1.503209 0.335159,-2.899515 1.458991,-5.839421 3.1724923,-8.262432 3.36071,-4.8857182 9.222373,-7.9000553 15.150718,-7.8064403 2.928934,-5.667e-4 5.950039,0.8068859 8.512492,2.2035682 3.985669,2.1578752 7.106422,5.8228441 8.58509,10.0716931 0.371417,1.015794 0.605429,2.052965 0.75635,3.102267 0.639749,0.605785 1.313886,1.316221 2.027529,2.194553 0,0 -0.182206,-8.988888 -6.559458,-15.062462 C 36.024369,2.4863315 31.30914,1.7243231 27.746838,1.7155568 Z" /><path
       style="fill:#ffffff;stroke-width:0.918209;stroke-linejoin:round"
       d="M 26.00815,0.47666147 C 14.695856,0.47704142 4.9290088,9.6597626 4.9287878,21.554232 v 45.70244 H 6.7652067 V 21.554232 C 6.7654087,10.663853 15.68818,2.313427 26.00815,2.3130804 36.328889,2.3134275 45.2491,10.664604 45.249302,21.554232 v 45.70244 h 1.836419 V 21.554232 C 47.085501,9.6605302 37.321227,0.47704197 26.00815,0.47666147 Z"
       id="rect43" /><g
       id="g69"
       transform="matrix(-0.0534765,0,0,0.0534765,20.524502,11.328542)"><path
         style="fill:#131313;fill-opacity:1;stroke:none;stroke-width:3.74208;stroke-linecap:round;stroke-linejoin:round;stroke-opacity:0.740601;paint-order:markers stroke fill"
         d="m 167.97272,1045.8391 c 5.44531,0 4.08399,-4.084 4.62852,-18.5141 0.54453,-14.4302 -2.72266,-24.7762 -2.72266,-24.7762 0,0 -69.972512,-31.3107 -74.873312,-22.05363 -4.900784,9.25706 -12.251994,11.7074 -28.587974,21.50903 -16.335997,9.8016 -22.598127,11.4352 -33.216526,13.3411 -10.618381,1.9059 -18.514123,7.0789 -20.147717,16.0637 -1.633595,8.9848 -2.722675,14.4301 6.534396,14.4301 9.257052,0 148.385273,0 148.385273,0 z"
         id="path6" /><path
         id="path62"
         style="opacity:1;fill:#0f0f0f;fill-opacity:1;stroke:none;stroke-width:3.74208;stroke-linecap:round;stroke-linejoin:round;stroke-opacity:0.740601;paint-order:markers stroke fill"
         d="m 99.62924,978.78525 c -2.382334,0.0301 -4.011674,0.55238 -4.62428,1.70953 -1.969117,3.71944 -4.375151,6.33422 -7.559365,8.77436 4.348324,0.82536 9.604314,1.92342 16.134185,3.47814 21.80953,5.19272 35.95907,20.52642 68.62589,22.64712 -0.78376,-7.8261 -2.32672,-12.8458 -2.32672,-12.8458 0,0 -53.57341,-23.9718 -70.24971,-23.76335 z" /><path
         id="path8"
         style="fill:#0f0f0f;fill-opacity:1;stroke:none;stroke-width:3.74208;stroke-linecap:round;stroke-linejoin:round;stroke-opacity:0.740601;paint-order:markers stroke fill"
         d="m 151.28393,1037.9503 c -30.38123,-0.059 -120.478054,6.3729 -138.797949,-3.3453 -1.17689,7.0634 -1.000124,11.2344 7.10109,11.2344 H 167.97257 c 5.44534,0 4.08417,-4.0847 4.6287,-18.5148 -9.00779,4.369 -13.38364,10.6411 -21.31734,10.6257 z"
         sodipodi:nodetypes="scsscs" /><path
         id="path63"
         style="opacity:1;fill:#000000;fill-opacity:0.211765;stroke:none;stroke-width:3.74208;stroke-linecap:round;stroke-linejoin:round;stroke-opacity:0.740601;paint-order:markers stroke fill"
         d="m 113.59124,981.26563 c -15.755889,31.45107 -34.467675,40.61447 -52.756608,40.61447 -20.294512,0 -29.035073,9.9628 -25.768602,23.9593 h 132.90653 c 5.44532,0 4.08416,-4.0847 4.62869,-18.5148 0.54454,-14.4301 -2.7223,-24.776 -2.7223,-24.776 0,0 -34.02984,-15.21367 -56.28771,-21.28297 z" /></g><g
       id="g70"
       transform="matrix(-0.0534765,0,0,0.0534765,20.524502,11.328542)"><path
         style="fill:#131313;fill-opacity:1;stroke:none;stroke-width:3.74208;stroke-linecap:round;stroke-linejoin:round;stroke-opacity:0.740601;paint-order:markers stroke fill"
         d="m 164.70551,502.93966 c 0,15.51919 1.63359,34.85014 -0.27228,43.01811 -1.90587,8.16803 -5.44532,24.23172 -9.25706,27.22667 -3.81172,2.99492 -0.8168,6.53438 -2.45039,12.52424 -1.6336,5.98986 -8.16799,22.87041 -8.16799,29.13252 0,6.26213 -1.63361,49.82479 -0.54455,60.1709 1.08908,10.34614 6.26215,50.09705 5.17307,53.9088 -1.08907,3.81172 5.98986,7.62343 9.25707,29.94928 3.26719,22.32586 8.71251,21.23681 7.62345,29.94934 -1.08906,8.71252 0,13.61332 2.17815,28.86027 2.17813,15.24689 5.44532,78.41275 3.26719,99.64951 -2.17813,21.23682 -1.08906,22.87041 -0.54453,32.672 0.54453,9.80162 -4.35628,20.14775 -3.26721,25.59308 1.08908,5.4453 3.26721,25.04852 4.90081,35.39462 -38.66185,-10.3461 -65.88851,-37.02825 -85.491697,-26.13756 9.801602,-21.78132 15.791457,-13.06879 14.702407,-20.14776 -1.08908,-7.07893 -4.900805,-3.81172 -6.534416,-22.32581 -1.633595,-18.51416 9.257066,-13.06884 5.989866,-23.95947 -3.267192,-10.89066 4.9008,-7.62346 3.2672,-27.77121 -1.6336,-20.14772 -9.801598,-63.16583 -13.613319,-81.13542 -3.811738,-17.9696 2.722658,-19.6032 -4.35627,-28.31573 -7.078926,-8.71252 -19.603185,-23.95945 -20.147717,-37.02824 -0.544532,-13.06879 4.356252,-13.06879 -4.9008,-20.1477 C 52.259423,716.94117 29.93358,581.35241 28.299968,506.75142 26.666373,432.15038 164.70551,502.93966 164.70551,502.93966 Z"
         id="path5" /><path
         id="path11"
         style="fill:#2a2a2a;fill-opacity:1;stroke:none;stroke-width:3.74208;stroke-linecap:round;stroke-linejoin:round;stroke-opacity:0.740601;paint-order:markers stroke fill"
         d="m 101.15684,973.49516 c -2.886297,0.0437 -5.5261,0.2827 -7.879881,0.62342 -1.829378,2.34966 -3.882598,5.65472 -6.167757,10.73286 19.603168,-10.89069 46.830258,15.79156 85.492068,26.13766 -0.46496,-2.9447 -0.99529,-7.2158 -1.51081,-11.12043 -30.46889,-9.67397 -44.02398,-23.67098 -60.6206,-25.83571 -3.321,-0.43324 -6.43873,-0.58173 -9.31302,-0.5378 z" /><path
         id="path61"
         style="opacity:1;fill:#000000;fill-opacity:0.211765;stroke:none;stroke-width:3.74208;stroke-linecap:round;stroke-linejoin:round;stroke-opacity:0.740601;paint-order:markers stroke fill"
         d="m 134.1404,489.36833 c -2.72623,79.4424 -15.16409,88.84306 -13.65912,105.39753 1.54015,16.9419 6.16025,127.06459 9.2406,133.22529 3.08035,6.16065 -16.17212,7.70049 -3.85076,14.63131 12.32133,6.93076 18.48227,31.57312 10.78143,33.88336 -7.70086,2.31027 -0.77012,7.70119 6.16068,10.01146 6.93077,2.31028 10.01099,130.91429 6.93068,144.7758 -3.08036,13.86153 5.39081,31.5742 -1.53996,32.34429 -6.93078,0.77005 -3.85073,5.39038 2.30994,13.86139 3.86278,5.31128 1.96543,17.12831 0.0187,25.54604 6.94435,2.9994 14.21194,5.8418 22.06882,7.9443 -1.63359,-10.3461 -3.81157,-29.94971 -4.90065,-35.39501 -1.08906,-5.44531 3.81162,-15.79128 3.26709,-25.59288 -0.54453,-9.80157 -1.6333,-11.43509 0.54482,-32.67189 2.17813,-21.23674 -1.08897,-84.40233 -3.26711,-99.6492 -2.17813,-15.24694 -3.26742,-20.14835 -2.17836,-28.86086 1.08906,-8.71252 -4.35662,-7.62288 -7.62382,-29.94872 -3.2672,-22.32585 -10.34555,-26.13787 -9.25649,-29.94959 1.08909,-3.81176 -4.08441,-43.5628 -5.17349,-53.90893 -1.08906,-10.3461 0.54481,-53.90903 0.54481,-60.17114 0,-6.26212 6.53416,-23.1421 8.16775,-29.13194 1.63359,-5.98987 -1.3614,-9.52956 2.45032,-12.52448 3.81174,-2.99495 7.3515,-19.0584 9.25738,-27.22643 1.90586,-8.16795 0.27196,-27.49882 0.27196,-43.01799 0,0 -12.84427,-6.55849 -30.56505,-13.57171 z" /><path
         id="path64"
         style="opacity:1;fill:#000000;fill-opacity:0.211765;stroke:none;stroke-width:3.74208;stroke-linecap:round;stroke-linejoin:round;stroke-opacity:0.740601;paint-order:markers stroke fill"
         d="m 81.55687,774.89347 c 1.774443,2.28203 3.545316,4.50214 5.008381,6.30285 2.121158,2.61065 2.950343,4.58684 3.271512,6.55628 4.404216,0.51805 9.889053,0.68082 12.382317,-1.11081 4.61071,-3.31325 -9.359832,-1.71935 -20.66221,-11.74832 z" /><path
         id="path65"
         style="opacity:1;fill:#000000;fill-opacity:0.211765;stroke:none;stroke-width:4.14509;stroke-linecap:round;stroke-linejoin:round;stroke-opacity:0.740601;paint-order:markers stroke fill"
         d="m 59.365313,720.53421 c 0.769552,1.70635 1.499222,2.98768 2.150992,3.48609 5.349577,4.09084 5.881925,6.0266 5.558484,9.27768 4.518254,0.41506 9.585227,0.36616 12.037943,-1.40309 4.745496,-3.42316 -11.897847,-0.75468 -19.747419,-11.36068 z" /><path
         id="path66"
         style="opacity:1;fill:#000000;fill-opacity:0.211765;stroke:none;stroke-width:3.74208;stroke-linecap:round;stroke-linejoin:round;stroke-opacity:0.740601;paint-order:markers stroke fill"
         d="m 98.702094,957.72746 c 1.310346,2.4462 2.558846,3.39466 3.109916,6.97658 0.0636,0.4128 0.0229,0.62052 0.0388,0.93511 1.63241,-0.45778 6.45055,0.27415 6.0194,-0.84681 -0.41964,-1.09113 -5.81474,-2.91493 -9.168169,-7.06488 z" /></g><g
       id="g74"
       transform="matrix(-0.0534765,0,0,0.0534765,20.524502,11.328542)"><path
         style="fill:#f3a070;fill-opacity:1;stroke:none;stroke-width:3.74208;stroke-linecap:round;stroke-linejoin:round;stroke-opacity:0.740601;paint-order:markers stroke fill"
         d="m 70.243744,159.80291 c -2.178126,12.79652 2.450409,30.22156 10.346133,46.01303 8.010379,16.02076 59.420353,-22.97342 53.702753,-31.95822 -5.7176,-8.9848 -6.80664,-27.77119 -8.44026,-32.94426 -1.63359,-5.17306 -55.608626,18.88945 -55.608626,18.88945 z"
         id="path3"
         sodipodi:nodetypes="csssc" /><path
         id="path53"
         style="opacity:1;fill:#ec9563;fill-opacity:0.666667;stroke:none;stroke-width:3.74208;stroke-linecap:round;stroke-linejoin:round;stroke-opacity:0.740601;paint-order:markers stroke fill"
         d="m 124.08215,140.19652 c -9.64315,-0.0769 -53.838269,19.60614 -53.838269,19.60614 -0.933229,5.48274 -0.609292,11.81815 0.678135,18.50769 28.569297,-4.88551 43.679664,-14.52961 56.704484,-27.74034 -0.67498,-4.22504 -1.19349,-7.81843 -1.77393,-9.65649 -0.1531,-0.48497 -0.77286,-0.70903 -1.77042,-0.717 z"
         sodipodi:nodetypes="scccss" /><path
         id="path68"
         style="opacity:1;fill:#ee9867;fill-opacity:1;stroke:none;stroke-width:3.74208;stroke-linecap:round;stroke-linejoin:round;stroke-opacity:0.740601;paint-order:markers stroke fill"
         d="m 130.46977,164.49405 c -4.319,7.38023 -15.01534,19.19778 -25.3315,23.63615 -10.520264,4.52615 -17.698399,9.38958 -29.725304,5.83044 1.493993,3.98834 3.235099,7.9713 5.17703,11.85516 8.010362,16.02074 59.419874,-22.97364 53.702294,-31.95842 -1.60329,-2.51944 -2.83306,-5.81875 -3.82252,-9.36333 z"
         sodipodi:nodetypes="cscssc" /></g><g
       id="g72"
       transform="matrix(-0.0534765,0,0,0.0534765,20.524502,11.328542)"><path
         style="fill:#0b0b0b;fill-opacity:1;stroke:none;stroke-width:3.74208;stroke-linecap:round;stroke-linejoin:round;stroke-opacity:0.740601;paint-order:markers stroke fill"
         d="m 76.284954,196.63981 c 10.250805,6.01909 35.117616,-6.53024 45.824926,-16.13672 10.70728,-9.60649 8.46034,-16.1819 12.42394,-11.27677 8.34682,10.32961 38.06742,46.74443 38.61195,87.5844 0.54453,40.83998 -1.05521,97.9835 -4.35628,156.281 -1.7909,31.62794 -1.82035,75.85796 -1.76973,92.57062 -34.85012,-5.44535 -83.991862,-17.41942 -144.979564,5.45099 0.462445,-14.86189 1.358988,-30.49953 4.626177,-102.92242 3.267207,-72.42288 0.169163,-62.10858 8.712521,-118.7082 6.534413,-43.29038 37.738352,-94.70289 40.90606,-92.8429 z"
         id="path4"
         sodipodi:nodetypes="sssssccsss" /><path
         style="fill:#131313;fill-opacity:1;stroke:none;stroke-width:3.74208;stroke-linecap:round;stroke-linejoin:round;stroke-opacity:0.740601;paint-order:markers stroke fill"
         d="M 122.14829,315.00275 C 110.95715,328.01723 60.725705,304.89792 73.512777,284.51804 84.494952,267.0148 137.25488,297.43486 122.14829,315.00275 Z"
         id="path18"
         sodipodi:nodetypes="sss" /><path
         id="path19"
         style="fill:#131313;fill-opacity:1;stroke:none;stroke-width:3.74208;stroke-linecap:round;stroke-linejoin:round;stroke-opacity:0.740601;paint-order:markers stroke fill"
         d="m 132.42653,167.56778 c -1.54209,0.23028 -2.28651,5.7302 -10.31698,12.93506 -10.70727,9.60647 -35.573365,22.1559 -45.824168,16.13683 -3.167692,-1.85999 -34.372348,49.55271 -40.906743,92.84304 -8.543342,56.59956 -5.445367,46.28507 -8.712556,118.70789 -3.26719,72.42281 -4.163595,88.06061 -4.62604,102.92249 11.888722,-4.45828 23.312162,-7.56025 34.282469,-9.67679 -1.346156,-28.6621 -1.495091,-82.39727 -0.528913,-120.75469 3.184946,-126.44286 37.946723,-133.86967 19.688371,-99.27908 32.38326,-8.02941 57.08734,16.10427 46.66635,33.60023 0,0 19.89485,-33.66207 20.66495,-72.1663 0.14438,-7.21952 0.64084,-9.97224 1.31654,-9.42514 2.92806,2.3708 9.224,66.70008 4.84414,97.98476 -4.71594,33.68527 -6.39928,142.26747 -6.7682,170.23535 8.88623,1.37405 17.24954,2.84892 24.81407,4.03089 -0.0506,-16.71264 -0.0214,-60.94228 1.76953,-92.57019 3.30105,-58.29745 4.90126,-115.44136 4.35674,-156.28129 -0.54455,-40.83994 -30.26502,-77.25518 -38.61185,-87.58479 -0.99088,-1.22628 -1.59367,-1.73504 -2.10771,-1.65827 z M 56.322512,501.4363 c 2.432195,-0.46927 4.834332,-0.87425 7.220306,-1.2468 -2.385427,0.37279 -4.787514,0.77741 -7.220306,1.2468 z m 35.368577,-3.72538 c -0.359718,0.007 -0.738317,0.0427 -1.099333,0.0521 0.603739,-0.0154 1.212672,-0.0396 1.812805,-0.0504 -0.241817,0.005 -0.471075,-0.007 -0.713472,-0.002 z m 10.777021,0.0318 c 0.0776,0.002 0.15737,9.8e-4 0.23488,0.004 -0.0776,-0.002 -0.15738,-0.002 -0.23488,-0.004 z m -20.922688,0.44858 c -1.072318,0.073 -2.141629,0.14352 -3.224729,0.23398 1.082366,-0.0902 2.152975,-0.1613 3.224729,-0.23398 z m -7.410144,0.61279 c -2.167856,0.22509 -4.360677,0.49558 -6.570398,0.79646 2.209106,-0.30037 4.402337,-0.57185 6.570398,-0.79646 z"
         sodipodi:nodetypes="sssssccsccsssccssssccccccccccccccccc" /><path
         id="path16"
         style="fill:#2a2a2a;fill-opacity:1;stroke:none;stroke-width:3.74208;stroke-linecap:round;stroke-linejoin:round;stroke-opacity:0.740601;paint-order:markers stroke fill"
         d="m 78.840117,274.0769 c -1.118886,2.90355 -3.508531,7.59178 -5.32734,10.44114 18.108168,-10.75252 55.918333,12.96925 48.635513,30.48471 0,0 4.30502,-4.34245 6.11044,-12.17787 0.61052,-15.4583 -31.706492,-34.05268 -49.418613,-28.74798 z"
         sodipodi:nodetypes="ccccc" /><path
         id="path67"
         style="fill:#2a2a2a;fill-opacity:1;stroke:none;stroke-width:3.74208;stroke-linecap:round;stroke-linejoin:round;stroke-opacity:0.740601;paint-order:markers stroke fill"
         d="m 132.42651,167.56778 c -1.54209,0.23028 -2.2865,5.7302 -10.31698,12.93506 -10.70725,9.60645 -35.573379,22.15588 -45.824166,16.13683 -0.511383,-0.30027 -1.80925,0.91207 -3.56025,3.13024 6.785987,5.55845 20.326568,3.18114 37.933676,-4.21897 16.1566,-6.79045 22.83623,-15.79546 25.2591,-24.59156 -0.43244,-0.53705 -1.02581,-1.29047 -1.38367,-1.73333 -0.99087,-1.22628 -1.59369,-1.73504 -2.10771,-1.65827 z" /><path
         id="path13"
         style="fill:#000000;fill-opacity:0.17;stroke:none;stroke-width:3.74208;stroke-linecap:round;stroke-linejoin:round;stroke-opacity:0.740601;paint-order:markers stroke fill"
         d="m 97.041195,486.52064 c -19.395288,0.14029 -39.777337,3.53821 -74.425437,10.9598 -0.173708,4.13686 -0.470203,10.24179 -0.575715,13.63265 60.98765,-22.87039 110.129707,-10.89612 144.979777,-5.45077 -0.009,-2.58937 -4.9e-4,-6.81617 0.002,-10.57745 -31.60082,-5.53926 -50.44799,-8.70542 -69.9804,-8.56423 z" /></g><g
       id="g75"
       transform="matrix(-0.0534765,0,0,0.0534765,20.524502,11.328542)"><path
         id="path1"
         style="fill:#f8b486;fill-opacity:1;stroke:none;stroke-width:2.3505;stroke-linecap:round;stroke-linejoin:round;stroke-opacity:0.740601;paint-order:markers stroke fill"
         d="m 91.927266,26.799468 c -1.19789,0.06567 -2.416867,0.159935 -3.65686,0.282867 -30.800308,3.05343 -41.783823,27.362278 -45.374437,64.199559 -1.410386,14.469606 -14.19114,24.542586 -11.60482,33.328016 1.506347,5.11687 9.905508,4.84179 13.673435,4.44951 0.541917,14.90926 -0.881557,25.62741 7.262169,34.89371 8.143709,9.26627 28.350104,8.89974 52.648577,-3.66413 41.16609,-21.2855 46.42103,-57.54292 43.46371,-87.48673 C 146.06166,49.743151 129.06166,24.761997 91.927266,26.799462 Z"
         sodipodi:nodetypes="ssssczssss" /><path
         id="path52"
         style="opacity:1;fill:#f6aa75;fill-opacity:0.717647;stroke:none;stroke-width:3.74208;stroke-linecap:round;stroke-linejoin:round;stroke-opacity:0.740601;paint-order:markers stroke fill"
         d="m 147.25913,105.51141 c -5.43427,4.14198 -13.3682,11.5403 -24.89264,23.87898 -46.406533,49.68526 -69.67109,33.72188 -76.52785,19.8463 0.771858,5.44435 2.465172,10.25195 6.388505,14.71609 8.143693,9.26626 28.34954,8.90028 52.647985,-3.66358 26.81815,-13.86669 38.38922,-34.08792 42.384,-54.77779 z" /><path
         style="fill:#3a1809;fill-opacity:1;stroke:none;stroke-width:3.74208;stroke-linecap:round;stroke-linejoin:round;stroke-opacity:0.740601;paint-order:markers stroke fill"
         d="M 63.791947,48.848094 C 48.041953,50.074999 44.227258,40.714909 47.045656,32.914361 c 2.818345,-7.800544 9.956666,-21.034536 51.74876,-19.923307 20.896044,0.555614 34.771294,7.961733 46.553634,25.595459 17.84969,26.714232 9.02427,59.323431 -2.51632,84.317427 -9.23894,20.00919 -17.05717,28.2457 -21.30565,5.08639 C 115.69191,96.186984 117.22897,82.238669 101.72844,82.09307 86.227934,81.947487 89.3255,103.27008 79.804486,89.642797 70.283454,76.015515 85.522802,47.155282 63.791947,48.848094 Z"
         id="path2"
         sodipodi:nodetypes="sssssszss" /><path
         id="path54"
         style="opacity:1;fill:#2a1107;fill-opacity:1;stroke:none;stroke-width:3.74208;stroke-linecap:round;stroke-linejoin:round;stroke-opacity:0.740601;paint-order:markers stroke fill"
         d="m 46.627158,40.683309 c 1.423406,5.039549 6.59784,8.988246 17.164636,8.165109 21.730837,-1.692816 6.491302,27.167336 16.012333,40.794601 1.619754,2.318343 2.869521,3.60618 3.912569,4.17923 C 80.901511,91.161293 78.513094,79.777802 80.301242,68.8104 82.34327,56.286123 79.62109,46.348364 72.678313,45.803826 66.064976,45.285136 52.061333,49.675144 46.627158,40.683309 Z m 54.143792,38.681584 c -3.196604,0.01931 -6.243694,0.965814 -8.626028,2.92273 -6.084766,4.998197 -4.977761,9.726743 -5.941695,11.435743 3.088953,-2.178741 5.115209,-11.727779 15.524913,-11.630006 15.5005,0.145582 13.96356,14.093282 19.79773,45.89659 2.32241,12.65989 5.7133,15.92322 9.81808,13.02513 -6.18685,-0.0227 -8.61425,-37.9774 -12.78937,-49.198121 -2.99495,-8.048876 -10.7511,-12.494476 -17.78363,-12.452066 z" /></g><g
       id="g73"
       transform="matrix(-0.04631201,0.02673825,0.02673825,0.04631201,12.249497,10.703321)"><g
         id="g43"><path
           id="path20"
           style="fill:#f3a070;fill-opacity:1;stroke:none;stroke-width:3.49604;stroke-linecap:round;stroke-linejoin:round;stroke-opacity:0.740601;paint-order:markers stroke fill"
           d="m 105.34314,286.0576 c -11.915781,0.11346 -25.704604,4.61191 -26.431711,13.85382 -2.156306,27.40801 -2.07528,69.44314 -2.587858,81.49762 -0.281869,6.62906 -1.544537,23.35838 -2.431374,29.66639 -5.004433,35.59543 -13.379827,93.27273 -19.061064,103.12021 -1.443911,2.50276 -5.967975,9.04865 -13.572552,15.40186 -7.604594,6.35322 -7.434185,12.04017 -10.983191,22.43527 -3.549024,10.39512 -3.263874,12.94306 -4.192268,20.0826 -0.92841,7.13949 2.476569,8.3468 7.069307,5.84472 4.592755,-2.50206 5.699555,-6.52279 7.079628,-10.85177 3.568435,-11.19333 7.084907,-23.32138 -0.610607,9.46422 -1.105313,4.70902 -6.545468,27.53069 -7.989379,36.2904 -1.443911,8.75972 2.695352,12.32089 5.871945,9.43311 3.176611,-2.88786 9.241026,-25.50881 6.256953,-14.43882 -2.98409,11.06996 -4.620129,19.34877 -2.694925,21.85159 1.92522,2.50276 5.679015,3.08 8.759357,-3.46578 1.528286,-3.24759 3.216987,-8.04776 4.301095,-11.343 -1.413889,5.55333 -1.601368,11.7762 1.378364,12.88296 3.369132,1.25136 6.064194,-3.85017 7.893144,-8.08563 1.828952,-4.23547 3.850816,-12.22546 3.465776,-10.20395 -0.385041,2.02145 -4.62e-4,5.67939 3.176149,6.06445 3.176593,0.38504 7.508736,-11.55094 15.78716,-33.49838 7.623526,-20.21123 10.321254,-36.95982 10.200414,-54.25858 -0.06612,-9.47204 18.677837,-95.36926 22.266297,-111.30075 4.85317,-21.54645 5.13648,-25.82809 6.91717,-33.39553 7.16299,-30.44054 7.32806,-60.3475 8.43674,-79.36764 0.7054,-12.1015 -14.80001,-17.80792 -28.30457,-17.67939 z"
           sodipodi:nodetypes="sssssssssssssssscssssssssss" /><path
           id="path56"
           style="opacity:1;fill:#e99666;fill-opacity:1;stroke:none;stroke-width:3.74208;stroke-linecap:round;stroke-linejoin:round;stroke-opacity:0.740601;paint-order:markers stroke fill"
           d="m 117.92058,287.71495 c -0.44177,32.81481 -2.81036,49.70863 -10.5289,92.16049 -8.712499,47.91887 -22.869995,135.5889 -21.780948,152.46937 1.089097,16.88055 -0.272095,36.21128 -6.534207,54.99767 -5.822975,17.46892 -6.635228,27.25007 -9.274141,28.15092 0.08441,0.0154 0.148829,0.0536 0.237527,0.0644 3.176577,0.38504 7.508736,-11.55096 15.787143,-33.49838 7.623527,-20.21121 10.321272,-36.95983 10.200431,-54.25858 -0.06612,-9.47205 18.678145,-95.36892 22.266605,-111.30039 4.85318,-21.54643 5.13585,-25.82851 6.91654,-33.39596 7.16297,-30.44051 7.32838,-60.34745 8.43706,-79.36758 0.48623,-8.34163 -6.7731,-13.5741 -15.72711,-16.02204 z" /><path
           id="path57"
           style="opacity:1;fill:#e99666;fill-opacity:1;stroke:none;stroke-width:3.74208;stroke-linecap:round;stroke-linejoin:round;stroke-opacity:0.740601;paint-order:markers stroke fill"
           d="m 72.381613,582.09657 c -0.09501,-0.0102 -0.406776,0.96718 -0.993376,3.23532 -2.887838,11.16621 -11.84045,42.93241 -15.787142,42.45111 -0.03913,-0.005 -0.0692,-0.004 -0.10594,-0.007 0.0034,9.7e-4 0.0068,0.005 0.01025,0.007 3.36913,1.25136 6.064192,-3.85017 7.893126,-8.08563 1.828951,-4.23547 3.850816,-12.22546 3.465775,-10.20395 2.914786,-12.11958 5.890435,-27.35715 5.517868,-27.39685 z" /><path
           id="path58"
           style="opacity:1;fill:#e99666;fill-opacity:1;stroke:none;stroke-width:3.74208;stroke-linecap:round;stroke-linejoin:round;stroke-opacity:0.740601;paint-order:markers stroke fill"
           d="m 60.352555,584.34661 c -0.115339,-0.0875 -2.224843,8.49375 -3.21152,12.53669 -3.780981,15.49288 -9.239948,33.62422 -13.669727,34.44319 1.919359,0.45875 4.283257,-0.68292 6.354075,-5.08345 1.528288,-3.24759 3.216988,-8.04776 4.301096,-11.343 2.044505,-8.09768 6.572089,-30.29098 6.226076,-30.55343 z"
           sodipodi:nodetypes="sscscs" /><path
           id="path59"
           style="opacity:1;fill:#e99666;fill-opacity:1;stroke:none;stroke-width:3.74208;stroke-linecap:round;stroke-linejoin:round;stroke-opacity:0.740601;paint-order:markers stroke fill"
           d="m 49.053731,581.96577 c 0.04647,-0.30955 -0.920073,1.49447 -2.172915,6.46545 -4.029513,15.98809 -8.635169,33.70106 -12.342811,34.67718 0.959184,0.27799 2.000984,0.0649 2.965995,-0.81235 2.488376,-2.2622 6.592525,-16.08325 6.887397,-16.88298 l 0.172186,-0.58455 c 2.787487,-12.97563 3.243951,-14.56398 4.490148,-22.86275 z"
           sodipodi:nodetypes="sscsccs" /><path
           id="path60"
           style="opacity:1;fill:#e99666;fill-opacity:1;stroke:none;stroke-width:3.74208;stroke-linecap:round;stroke-linejoin:round;stroke-opacity:0.740601;paint-order:markers stroke fill"
           d="m 44.854099,551.94389 c -0.585267,-0.005 -2.783283,3.98356 -4.173062,7.20527 -2.027948,4.70118 -7.14625,19.90447 -12.732858,19.66355 1.301439,0.605 3.116173,0.28466 5.204404,-0.85299 4.592738,-2.50206 5.699811,-6.52222 7.079884,-10.85118 2.003393,-6.28417 3.915883,-12.57217 3.911697,-11.33243 0.878806,-2.75603 1.010565,-3.82947 0.709935,-3.83222 z" /></g></g><g
       id="g6"
       transform="matrix(0.05380023,0,0,0.05380023,30.411932,12.27314)"><path
         style="fill:#f3a070;fill-opacity:1;stroke:none;stroke-width:3.74208;stroke-linecap:round;stroke-linejoin:round;stroke-opacity:0.740601;paint-order:markers stroke fill"
         d="m 70.243744,159.80291 c 3.386524,10.82571 12.661846,26.60501 10.346133,46.01303 -2.12213,17.7856 59.420353,-22.97342 53.702753,-31.95822 -5.7176,-8.9848 -6.80664,-27.77119 -8.44026,-32.94426 -1.63359,-5.17306 -55.608626,18.88945 -55.608626,18.88945 z"
         id="path4-9"
         sodipodi:nodetypes="csssc" /><path
         id="path5-5"
         style="opacity:1;fill:#ec9563;fill-opacity:0.666667;stroke:none;stroke-width:3.74208;stroke-linecap:round;stroke-linejoin:round;stroke-opacity:0.740601;paint-order:markers stroke fill"
         d="m 124.08254,140.19737 c 0.15031,0.001 0.27392,0.0173 0.40676,0.0284 0.1118,0.0103 0.23149,0.0161 0.33039,0.0337 0.24127,0.041 0.4478,0.10218 0.60925,0.18829 0.0234,0.0127 0.0495,0.0236 0.0711,0.0373 0.0374,0.0233 0.0691,0.0501 0.10124,0.0764 0.0349,0.0289 0.0674,0.0599 0.0959,0.0924 0.0185,0.0208 0.0375,0.0416 0.0533,0.0639 0.0425,0.0607 0.0786,0.12362 0.10124,0.19539 0.0932,0.29519 0.18469,0.64717 0.27532,1.02667 0.0232,0.0971 0.0462,0.19969 0.0693,0.30197 0.0479,0.21191 0.0962,0.44894 0.14388,0.68208 0.0715,0.34916 0.14475,0.74546 0.2167,1.13858 0.11954,0.65345 0.23993,1.37238 0.36413,2.13151 0.22421,1.36599 0.44576,2.75857 0.7034,4.37138 3.2e-4,0.002 0.001,0.003 0.002,0.005 -12.10676,12.27956 -26.02223,21.47403 -50.866728,26.63322 -2.307781,-6.71099 -4.999626,-12.55502 -6.515317,-17.40023 0,0 0.883676,-0.39251 1.91836,-0.84728 0.0115,-0.005 0.03636,-0.0162 0.04796,-0.0213 0.829121,-0.36344 2.178829,-0.94545 3.442389,-1.49206 0.608658,-0.26367 1.112673,-0.48244 1.808232,-0.78155 1.503805,-0.64549 3.34996,-1.42383 5.168913,-2.19013 1.007714,-0.42507 1.958807,-0.82704 3.039179,-1.27713 13.730244,-5.7114 32.517342,-13.0439 38.413372,-12.99689 z" /><path
         id="path6-4"
         style="opacity:1;fill:#ee9867;fill-opacity:1;stroke:none;stroke-width:3.74208;stroke-linecap:round;stroke-linejoin:round;stroke-opacity:0.740601;paint-order:markers stroke fill"
         d="m 130.46997,164.4966 c 0.23083,0.82682 0.47589,1.63557 0.73537,2.42814 0.0374,0.11481 0.0738,0.23065 0.1119,0.3446 0.11865,0.35367 0.23919,0.70355 0.36414,1.04799 0.004,0.0105 0.007,0.0215 0.0106,0.032 0.17418,0.48152 0.35469,0.95144 0.54176,1.41213 0.0821,0.20106 0.1658,0.39842 0.25046,0.59504 0.23602,0.55107 0.48167,1.08653 0.73892,1.59864 0.11764,0.23333 0.23837,0.46127 0.36058,0.68563 0.0516,0.095 0.10207,0.19267 0.15453,0.28598 0.18025,0.31992 0.36388,0.6317 0.5542,0.93076 4.28952,6.74068 -29.27741,31.3646 -45.417166,35.73477 -3.824692,0.26822 -6.800244,-0.80786 -8.284471,-3.77632 l -0.0018,-0.004 c 0.444224,-3.72523 0.458489,-7.31567 0.172297,-10.76413 9.019264,0.94813 15.512657,-3.10465 24.37738,-6.91853 10.31558,-4.43812 21.01175,-16.25281 25.33123,-23.63312 z" /></g><path
       id="path7-3"
       style="fill:#ffffff;fill-opacity:1;stroke:none;stroke-width:0.201325;stroke-linecap:round;stroke-linejoin:round;stroke-opacity:0.740601;paint-order:markers stroke fill"
       d="m 37.536678,21.28812 c -0.08297,0.01238 -0.123121,0.308466 -0.555162,0.696089 -0.576055,0.516829 -1.697626,1.300344 -2.24912,0.976517 -0.101906,-0.05984 -0.634551,1.029262 -1.134524,2.083045 -1.10508,2.063247 -2.69605,2.505652 -0.935236,5.232763 0.880407,1.363556 0.734481,4.220062 0.473859,8.806315 C 32.875875,43.6691 31.953937,51.867907 22.47564,67.256527 H 65.667136 C 43.46372,54.434325 40.669388,39.32998 39.596948,25.043771 39.20534,23.294133 38.026181,21.842765 37.650084,21.377326 c -0.05331,-0.06597 -0.08575,-0.09333 -0.113406,-0.0892 z"
       sodipodi:nodetypes="csscszcccscc" /><path
       id="path8-1"
       style="fill:#e2e2e2;fill-opacity:1;stroke:none;stroke-width:0.201325;stroke-linecap:round;stroke-linejoin:round;stroke-opacity:0.740601;paint-order:markers stroke fill"
       d="m 37.5365,21.288323 c -0.08296,0.01238 -0.123014,0.308285 -0.555056,0.695909 -0.576051,0.516828 -1.697619,1.300108 -2.249115,0.976282 -0.02751,-0.01615 -0.09308,0.05789 -0.157142,0.163125 0.365087,0.299046 0.84294,0.06832 1.790206,-0.329816 0.869228,-0.365329 1.228594,-0.849799 1.358945,-1.323032 -0.02327,-0.02889 -0.05519,-0.06942 -0.07444,-0.09325 -0.05331,-0.06597 -0.08574,-0.09335 -0.113397,-0.08921 z"
       sodipodi:nodetypes="ssscscss" /><path
       id="path9-2"
       style="fill:#f8b486;fill-opacity:1;stroke:none;stroke-width:0.119452;stroke-linecap:round;stroke-linejoin:round;stroke-opacity:0.740601;paint-order:markers stroke fill"
       d="m 35.416359,14.192424 c -0.0609,0.0034 -0.12283,0.0082 -0.185843,0.01438 -1.565267,0.155175 -2.189447,2.21306 -2.321638,3.549852 -0.05194,0.525088 -0.426709,0.775733 -0.331491,1.094548 0.05544,0.185687 0.268928,0.290599 0.407648,0.276363 0.01994,0.541045 0.04459,1.481108 0.535023,1.843509 0.490464,0.362402 1.319474,0.643775 2.554319,0.0053 2.092058,-1.081728 2.359114,-2.924326 2.208823,-4.44607 -0.115736,-1.171826 -0.979676,-2.441366 -2.866841,-2.337823 z"
       sodipodi:nodetypes="ssssczssss" /><path
       id="path10-3"
       style="fill:#f6aa75;fill-opacity:0.717647;stroke:none;stroke-width:0.190172;stroke-linecap:round;stroke-linejoin:round;stroke-opacity:0.740601;paint-order:markers stroke fill"
       d="m 38.228315,18.192517 c -0.01168,0.06058 -0.02502,0.121094 -0.03938,0.181441 -0.0026,0.01084 -0.0051,0.02167 -0.0079,0.0325 -0.01321,0.05391 -0.02756,0.107681 -0.04306,0.161311 -0.0026,0.0082 -0.0044,0.01655 -0.0071,0.02482 -0.01848,0.06255 -0.03829,0.124901 -0.06001,0.186947 -0.02095,0.05984 -0.04382,0.119311 -0.06788,0.178554 -0.0044,0.0114 -0.0095,0.02273 -0.01435,0.03413 -0.02082,0.0498 -0.04281,0.09939 -0.066,0.148675 -0.0065,0.01369 -0.0127,0.02743 -0.01931,0.04107 -0.009,0.01846 -0.01803,0.03686 -0.02737,0.05525 -0.01562,0.03085 -0.03175,0.06157 -0.04839,0.09216 -0.0092,0.01698 -0.01861,0.03392 -0.02814,0.05083 -0.01703,0.03021 -0.03462,0.06024 -0.05265,0.09018 -0.0092,0.01526 -0.01842,0.03049 -0.02788,0.04568 -0.02331,0.03741 -0.04725,0.07462 -0.07221,0.111573 -0.0066,0.0095 -0.01327,0.019 -0.01988,0.02852 -0.02166,0.03143 -0.04395,0.06265 -0.06688,0.0937 -0.009,0.01232 -0.01815,0.02467 -0.02744,0.03693 -0.02864,0.03775 -0.05805,0.07533 -0.08856,0.112477 -0.0072,0.0087 -0.01474,0.01738 -0.02202,0.02609 -0.02629,0.03142 -0.05335,0.06256 -0.08106,0.09352 -0.0095,0.01066 -0.01898,0.02135 -0.0287,0.03196 -0.0331,0.0361 -0.0671,0.07183 -0.102191,0.10724 -0.0098,0.0099 -0.02007,0.01981 -0.03005,0.0297 -0.0301,0.02972 -0.06084,0.05918 -0.09243,0.08838 -0.0096,0.0089 -0.01904,0.01786 -0.02877,0.02671 -0.03893,0.03531 -0.07914,0.07013 -0.120326,0.104623 -0.01011,0.0084 -0.02038,0.01681 -0.03061,0.02519 -0.03792,0.03112 -0.07665,0.06194 -0.116447,0.09235 -0.0072,0.0055 -0.01397,0.01093 -0.02115,0.01635 -0.04522,0.0341 -0.09179,0.06768 -0.139461,0.100831 -0.01181,0.0082 -0.02387,0.01639 -0.03582,0.02456 -0.04572,0.03116 -0.09236,0.0619 -0.140372,0.09216 -0.0039,0.0025 -0.0078,0.0051 -0.01163,0.0076 -0.05163,0.03236 -0.104996,0.06406 -0.159327,0.09532 -0.01296,0.0075 -0.02598,0.01482 -0.03905,0.0222 -0.05551,0.03129 -0.111856,0.0623 -0.170156,0.09244 -1.234844,0.638495 -2.063893,0.357165 -2.554351,-0.0053 -0.160928,-0.11891 -0.27107,-0.300597 -0.347984,-0.50939 0.540648,0.543049 1.547023,1.352701 3.791214,-1.05561 0.584951,-0.627725 0.988867,-1.003084 1.265036,-1.21358 z" /><path
       style="fill:#eea943;fill-opacity:1;stroke:none;stroke-width:0.184646;stroke-linecap:round;stroke-linejoin:round;stroke-opacity:0.740601;paint-order:markers stroke fill"
       d="m 33.943494,15.747273 c -0.684747,-0.370329 -0.853823,-0.643019 -0.714753,-1.027923 0.139062,-0.384903 0.49129,-1.037909 2.553442,-0.983076 1.031073,0.02742 1.715724,0.392855 2.2971,1.262958 0.880757,1.318162 2.78781,9.791011 1.524377,9.292024 -3.839723,-1.516481 -2.611814,-3.722081 -2.699823,-4.880564 -0.08956,-1.178831 -0.131466,-1.520025 -0.722781,-1.880466 -0.591315,-0.360442 -0.636792,-0.06441 -1.106584,-0.73683 -0.469804,-0.67241 -0.454823,-0.680444 -1.130978,-1.046123 z"
       id="path14-3"
       sodipodi:nodetypes="sssssszss" /><path
       id="path13-4"
       style="fill:#db9230;fill-opacity:1;stroke:none;stroke-width:0.184646;stroke-linecap:round;stroke-linejoin:round;stroke-opacity:0.740601;paint-order:markers stroke fill"
       d="m 33.184418,14.927448 c 0.09395,0.535317 0.776726,0.51562 1.429947,1.031508 0.662309,0.523063 0.783685,0.804977 1.147635,1.040008 0.291513,0.188251 1.002407,0.403227 1.150182,0.800384 0.10301,0.276833 0.526854,1.761672 0.416928,3.473678 -0.103759,1.616093 1.983112,2.850244 2.426224,3.031853 -0.04446,0.01248 -0.09477,0.0089 -0.151714,-0.01358 -3.839727,-1.516486 -2.611754,-3.722096 -2.699763,-4.880579 -0.08956,-1.178831 -0.131505,-1.520093 -0.72282,-1.880534 -0.591314,-0.36044 -0.636736,-0.06434 -1.106533,-0.736753 -0.469799,-0.672412 -0.454837,-0.680467 -1.130984,-1.046143 -0.555026,-0.300173 -0.77115,-0.536213 -0.759102,-0.819842 z" /><path
       style="opacity:1;fill:#f0f0f0;fill-opacity:1;stroke:none;stroke-width:1.83642;stroke-linecap:butt;stroke-linejoin:round;stroke-opacity:1"
       d="m 34.118355,27.80431 c 0.535745,-0.920412 1.363404,-2.387514 0.482062,-1.28009 -0.924293,1.161391 -0.651255,1.162971 -0.708619,1.921861 -0.06559,0.867725 0.295258,0.703253 0.295258,0.703253 z"
       id="path49"
       sodipodi:nodetypes="csscc" /><path
       style="fill:#e2e2e2;fill-opacity:1;stroke:none;stroke-width:0.184185;stroke-linecap:round;stroke-linejoin:round;stroke-opacity:0.740601;paint-order:markers stroke fill"
       d="m 36.522446,29.272182 c -0.572214,0.621542 -3.004628,-0.599502 -2.341625,-1.580698 0.569421,-0.842698 3.114038,0.741697 2.341625,1.580698 z"
       id="path28"
       sodipodi:nodetypes="sss" /><path
       id="path48"
       style="opacity:1;fill:#f0f0f0;fill-opacity:1;stroke:none;stroke-width:1.83642;stroke-linecap:butt;stroke-linejoin:round;stroke-opacity:1"
       d="m 31.876867,28.26751 c 2.08e-4,0.0089 0.0021,0.01894 0.0024,0.028 -2.35e-4,-0.0097 -0.0023,-0.01812 -0.0024,-0.028 z m 0.02752,0.269989 c 0.07055,0.470663 0.297562,1.025534 0.758247,1.739035 0.880407,1.363556 0.734646,4.219954 0.474023,8.806206 -0.26062,4.586252 -1.182721,12.785167 -10.661018,28.173787 h 2.005703 c 10.908447,-17.1544 9.499445,-27.379952 9.46908,-32.481753 -0.02834,-4.760211 -1.806785,-5.026791 -2.046035,-6.237275 z" /><g
       id="g42"
       transform="matrix(0.04262569,0.02460995,-0.02460995,0.04262569,38.160749,13.1341)"><path
         id="path37"
         style="fill:#f3a070;fill-opacity:1;stroke:none;stroke-width:3.49604;stroke-linecap:round;stroke-linejoin:round;stroke-opacity:0.740601;paint-order:markers stroke fill"
         d="m 105.34314,286.0576 c -11.915781,0.11346 -25.704604,4.61191 -26.431711,13.85382 -2.156306,27.40801 -2.07528,69.44314 -2.587858,81.49762 -0.281869,6.62906 -1.544537,23.35838 -2.431374,29.66639 -5.004433,35.59543 -13.379827,93.27273 -19.061064,103.12021 -1.443911,2.50276 -5.967975,9.04865 -13.572552,15.40186 -7.604594,6.35322 -7.434185,12.04017 -10.983191,22.43527 -3.549024,10.39512 -3.263874,12.94306 -4.192268,20.0826 -0.92841,7.13949 2.476569,8.3468 7.069307,5.84472 4.592755,-2.50206 5.699555,-6.52279 7.079628,-10.85177 3.568435,-11.19333 7.084907,-23.32138 -0.610607,9.46422 -1.105313,4.70902 -6.545468,27.53069 -7.989379,36.2904 -1.443911,8.75972 2.695352,12.32089 5.871945,9.43311 3.176611,-2.88786 9.241026,-25.50881 6.256953,-14.43882 -2.98409,11.06996 -4.620129,19.34877 -2.694925,21.85159 1.92522,2.50276 5.679015,3.08 8.759357,-3.46578 1.528286,-3.24759 3.216987,-8.04776 4.301095,-11.343 -1.413889,5.55333 -1.601368,11.7762 1.378364,12.88296 3.369132,1.25136 6.064194,-3.85017 7.893144,-8.08563 1.828952,-4.23547 3.850816,-12.22546 3.465776,-10.20395 -0.385041,2.02145 -4.62e-4,5.67939 3.176149,6.06445 3.176593,0.38504 7.508736,-11.55094 15.78716,-33.49838 7.623526,-20.21123 10.321254,-36.95982 10.200414,-54.25858 -0.06612,-9.47204 18.677837,-95.36926 22.266297,-111.30075 4.85317,-21.54645 5.13648,-25.82809 6.91717,-33.39553 7.16299,-30.44054 7.32806,-60.3475 8.43674,-79.36764 0.7054,-12.1015 -14.80001,-17.80792 -28.30457,-17.67939 z"
         sodipodi:nodetypes="sssssssssssssssscssssssssss" /><path
         id="path38"
         style="opacity:1;fill:#e99666;fill-opacity:1;stroke:none;stroke-width:3.74208;stroke-linecap:round;stroke-linejoin:round;stroke-opacity:0.740601;paint-order:markers stroke fill"
         d="m 117.92058,287.71495 c -0.44177,32.81481 -2.81036,49.70863 -10.5289,92.16049 -8.712499,47.91887 -22.869995,135.5889 -21.780948,152.46937 1.089097,16.88055 -0.272095,36.21128 -6.534207,54.99767 -5.822975,17.46892 -6.635228,27.25007 -9.274141,28.15092 0.08441,0.0154 0.148829,0.0536 0.237527,0.0644 3.176577,0.38504 7.508736,-11.55096 15.787143,-33.49838 7.623527,-20.21121 10.321272,-36.95983 10.200431,-54.25858 -0.06612,-9.47205 18.678145,-95.36892 22.266605,-111.30039 4.85318,-21.54643 5.13585,-25.82851 6.91654,-33.39596 7.16297,-30.44051 7.32838,-60.34745 8.43706,-79.36758 0.48623,-8.34163 -6.7731,-13.5741 -15.72711,-16.02204 z" /><path
         id="path39"
         style="opacity:1;fill:#e99666;fill-opacity:1;stroke:none;stroke-width:3.74208;stroke-linecap:round;stroke-linejoin:round;stroke-opacity:0.740601;paint-order:markers stroke fill"
         d="m 72.381613,582.09657 c -0.09501,-0.0102 -0.406776,0.96718 -0.993376,3.23532 -2.887838,11.16621 -11.84045,42.93241 -15.787142,42.45111 -0.03913,-0.005 -0.0692,-0.004 -0.10594,-0.007 0.0034,9.7e-4 0.0068,0.005 0.01025,0.007 3.36913,1.25136 6.064192,-3.85017 7.893126,-8.08563 1.828951,-4.23547 3.850816,-12.22546 3.465775,-10.20395 2.914786,-12.11958 5.890435,-27.35715 5.517868,-27.39685 z" /><path
         id="path40"
         style="opacity:1;fill:#e99666;fill-opacity:1;stroke:none;stroke-width:3.74208;stroke-linecap:round;stroke-linejoin:round;stroke-opacity:0.740601;paint-order:markers stroke fill"
         d="m 60.352555,584.34661 c -0.115339,-0.0875 -2.224843,8.49375 -3.21152,12.53669 -3.780981,15.49288 -9.239948,33.62422 -13.669727,34.44319 1.919359,0.45875 4.283257,-0.68292 6.354075,-5.08345 1.528288,-3.24759 3.216988,-8.04776 4.301096,-11.343 2.044505,-8.09768 6.572089,-30.29098 6.226076,-30.55343 z"
         sodipodi:nodetypes="sscscs" /><path
         id="path41"
         style="opacity:1;fill:#e99666;fill-opacity:1;stroke:none;stroke-width:3.74208;stroke-linecap:round;stroke-linejoin:round;stroke-opacity:0.740601;paint-order:markers stroke fill"
         d="m 49.053731,581.96577 c 0.04647,-0.30955 -0.920073,1.49447 -2.172915,6.46545 -4.029513,15.98809 -8.635169,33.70106 -12.342811,34.67718 0.959184,0.27799 2.000984,0.0649 2.965995,-0.81235 2.488376,-2.2622 6.592525,-16.08325 6.887397,-16.88298 l 0.172186,-0.58455 c 2.787487,-12.97563 3.243951,-14.56398 4.490148,-22.86275 z"
         sodipodi:nodetypes="sscsccs" /><path
         id="path42"
         style="opacity:1;fill:#e99666;fill-opacity:1;stroke:none;stroke-width:3.74208;stroke-linecap:round;stroke-linejoin:round;stroke-opacity:0.740601;paint-order:markers stroke fill"
         d="m 44.854099,551.94389 c -0.585267,-0.005 -2.783283,3.98356 -4.173062,7.20527 -2.027948,4.70118 -7.14625,19.90447 -12.732858,19.66355 1.301439,0.605 3.116173,0.28466 5.204404,-0.85299 4.592738,-2.50206 5.699811,-6.52222 7.079884,-10.85118 2.003393,-6.28417 3.915883,-12.57217 3.911697,-11.33243 0.878806,-2.75603 1.010565,-3.82947 0.709935,-3.83222 z" /></g><path
       id="path47"
       style="opacity:1;fill:#f0f0f0;fill-opacity:1;stroke:none;stroke-width:1.83642;stroke-linecap:butt;stroke-linejoin:round;stroke-opacity:1"
       d="m 39.596948,25.043771 c 0.943302,16.715611 3.494203,31.086257 20.500207,42.212756 h 5.570131 C 43.46387,54.434325 40.669388,39.32998 39.596948,25.043771 Z" /><path
       style="opacity:1;fill:#f0f0f0;fill-opacity:1;stroke:none;stroke-width:1.83642;stroke-linecap:butt;stroke-linejoin:round;stroke-opacity:1"
       d="m 36.629401,29.107621 c 0.686456,-1.806916 1.341552,-4.080463 1.336958,-1.171531 -0.0038,2.405873 0.527668,7.845989 1.377967,11.429397 -1.002139,-3.947822 -3.254944,-8.667099 -2.714925,-10.257866 z"
       id="path50"
       sodipodi:nodetypes="cscc" /><path
       id="path51"
       style="opacity:1;fill:#f0f0f0;fill-opacity:1;stroke:none;stroke-width:1.83642;stroke-linecap:butt;stroke-linejoin:round;stroke-opacity:1"
       d="m 41.316054,56.495389 c 1.245452,7.601554 3.933114,10.761138 3.933114,10.761138 h 4.957079 c -3.82225,-1.951288 -6.614022,-5.392808 -8.890193,-10.761138 z" /></g></svg>
