<?xml version="1.0" encoding="UTF-8" standalone="no"?>
<svg
   viewBox="0 0 128 128"
   version="1.1"
   id="svg6"
   sodipodi:docname="whatsapp-logo.svg"
   width="128"
   height="128"
   inkscape:version="1.4 (86a8ad7, 2024-10-11)"
   xmlns:inkscape="http://www.inkscape.org/namespaces/inkscape"
   xmlns:sodipodi="http://sodipodi.sourceforge.net/DTD/sodipodi-0.dtd"
   xmlns="http://www.w3.org/2000/svg"
   xmlns:svg="http://www.w3.org/2000/svg">
  <sodipodi:namedview
     id="namedview6"
     pagecolor="#505050"
     bordercolor="#ffffff"
     borderopacity="1"
     inkscape:showpageshadow="0"
     inkscape:pageopacity="0"
     inkscape:pagecheckerboard="1"
     inkscape:deskcolor="#505050"
     inkscape:zoom="4.7327883"
     inkscape:cx="85.361941"
     inkscape:cy="96.877352"
     inkscape:window-width="3440"
     inkscape:window-height="1377"
     inkscape:window-x="-8"
     inkscape:window-y="-8"
     inkscape:window-maximized="1"
     inkscape:current-layer="svg6" />
  <defs
     id="defs2">
    <linearGradient
       id="b"
       x1="85.915001"
       x2="86.535004"
       y1="32.567001"
       y2="137.092"
       gradientUnits="userSpaceOnUse"
       gradientTransform="matrix(0.76237053,0,0,0.76237053,-2.7893785,-2.9178318)">
      <stop
         offset="0"
         stop-color="#57d163"
         id="stop1" />
      <stop
         offset="1"
         stop-color="#23b33a"
         id="stop2" />
    </linearGradient>
    <filter
       id="a"
       width="1.1146948"
       height="1.1141825"
       x="-0.057347414"
       y="-0.05709127"
       color-interpolation-filters="sRGB">
      <feGaussianBlur
         stdDeviation="3.531"
         id="feGaussianBlur2" />
    </filter>
  </defs>
  <path
     fill="#ffffff"
     d="M 7.0955176,120.00526 15.053904,90.948278 A 55.973244,55.973244 0 0 1 7.5666626,62.914388 C 7.5796226,31.995689 32.7409,6.842036 63.660362,6.842036 c 15.004215,0.0076 29.087485,5.846619 39.679098,16.445857 10.59161,10.599237 16.41917,24.687845 16.41383,39.671475 C 119.73959,93.87578 94.574487,119.034 63.6596,119.034 h -0.0244 c -9.387068,-0.004 -18.61099,-2.35877 -26.804186,-6.82626 z"
     id="path3"
     style="stroke-width:0.762371" />
  <path
     fill="url(#linearGradient1780)"
     d="m 63.677134,16.31449 c -25.717045,0 -46.631156,20.906487 -46.640304,46.60371 a 46.489355,46.489355 0 0 0 7.127402,24.803725 l 1.109249,1.762601 -4.710687,17.198314 17.645828,-4.62683 1.703898,1.00938 c 7.156372,4.24717 15.361766,6.49387 23.729545,6.49845 h 0.01753 c 25.697223,0 46.611325,-20.908773 46.621235,-46.607521 A 46.31401,46.31401 0 0 0 96.638225,29.983031 46.31401,46.31401 0 0 0 63.677134,16.31449 Z"
     id="path4"
     style="stroke-width:0.762371" />
  <path
     fill="url(#b)"
     d="m 63.677134,16.31449 c -25.717045,0 -46.631156,20.906487 -46.640304,46.60371 a 46.489355,46.489355 0 0 0 7.127402,24.803725 l 1.109249,1.763363 -4.710687,17.197552 17.645828,-4.62683 1.703898,1.00938 c 7.156372,4.24717 15.361766,6.49311 23.729545,6.49768 h 0.01753 c 25.697223,0 46.611325,-20.908765 46.621235,-46.607514 A 46.31401,46.31401 0 0 0 96.638225,29.982269 46.31401,46.31401 0 0 0 63.677134,16.31449 Z"
     id="path5"
     style="fill:url(#b);stroke-width:0.762371" />
  <path
     fill="#ffffff"
     fill-rule="evenodd"
     d="m 49.640368,39.472257 c -1.050547,-2.333616 -2.155984,-2.380883 -3.153927,-2.421289 l -2.686594,-0.03278 c -0.934666,0 -2.453308,0.350691 -3.73714,1.753452 -1.283832,1.402762 -4.905854,4.793024 -4.905854,11.688665 0,6.895642 5.022497,13.55876 5.722353,14.494951 0.699856,0.936191 9.695828,15.537874 23.942246,21.155783 11.838852,4.668757 14.247943,3.740189 16.818657,3.506904 2.570713,-0.233285 8.292304,-3.390262 9.459493,-6.663118 1.16719,-3.272857 1.167952,-6.076856 0.818024,-6.663119 -0.349928,-0.586263 -1.284594,-0.934666 -2.687356,-1.636047 -1.402762,-0.701381 -8.292305,-4.091643 -9.576899,-4.559738 -1.284594,-0.468096 -2.218498,-0.700619 -3.153927,0.702143 -0.935428,1.402762 -3.61821,4.558213 -4.436234,5.493642 -0.818023,0.935429 -1.634522,1.052834 -3.037284,0.352215 -1.402762,-0.700618 -5.915995,-2.181142 -11.270886,-6.955868 -4.166355,-3.715032 -6.97874,-8.302978 -7.797526,-9.704977 -0.818786,-1.402 -0.08691,-2.161321 0.615996,-2.859652 0.628955,-0.628194 1.401237,-1.63681 2.10338,-2.454833 0.702143,-0.818024 0.933141,-1.402762 1.399712,-2.336666 0.466571,-0.933904 0.234048,-1.754215 -0.116643,-2.454833 -0.35069,-0.700619 -3.073878,-7.632091 -4.319591,-10.404071"
     id="path6"
     style="stroke-width:0.762371" />
</svg>
