<?xml version="1.0" encoding="UTF-8" standalone="no"?>
<!-- Created with Inkscape (http://www.inkscape.org/) -->

<svg
   width="515"
   height="64"
   viewBox="0 0 136.2604 16.933333"
   version="1.1"
   id="svg1"
   inkscape:version="1.4 (86a8ad7, 2024-10-11)"
   sodipodi:docname="where-am-i.svg"
   inkscape:export-filename="where-am-i.png"
   inkscape:export-xdpi="96"
   inkscape:export-ydpi="96"
   xmlns:inkscape="http://www.inkscape.org/namespaces/inkscape"
   xmlns:sodipodi="http://sodipodi.sourceforge.net/DTD/sodipodi-0.dtd"
   xmlns="http://www.w3.org/2000/svg"
   xmlns:svg="http://www.w3.org/2000/svg">
  <sodipodi:namedview
     id="namedview1"
     pagecolor="#505050"
     bordercolor="#ffffff"
     borderopacity="1"
     inkscape:showpageshadow="0"
     inkscape:pageopacity="0"
     inkscape:pagecheckerboard="1"
     inkscape:deskcolor="#505050"
     inkscape:document-units="mm"
     inkscape:zoom="2.6003436"
     inkscape:cx="208.43399"
     inkscape:cy="55.185015"
     inkscape:current-layer="layer1"
     inkscape:window-width="3440"
     inkscape:window-height="1377"
     inkscape:window-x="-8"
     inkscape:window-y="-8"
     inkscape:window-maximized="1" />
  <defs
     id="defs1" />
  <g
     inkscape:label="Layer 1"
     inkscape:groupmode="layer"
     id="layer1">
    <path
       d="M 2.0004709,7.4086539 Q 1.9166679,7.1886712 1.7385867,7.0524915 1.5605055,6.9058362 1.2986213,6.8010827 L 0.54439484,6.4763462 V 5.7535459 H 6.421076 v 0.7228003 l -1.5189284,0.4399655 1.6446328,4.9024713 0.42949,1.477027 h 0.073328 L 8.7780337,8.1733558 9.783669,5.7535459 h 1.550355 l 2.116024,6.0442871 0.450441,1.497977 0.06285,-0.01048 2.074123,-6.2014174 -1.477027,-0.6075714 V 5.7535459 h 4.284427 v 0.7228003 l -0.775177,0.4609161 q -0.240934,0.1466557 -0.42949,0.282835 -0.188557,0.125704 -0.27236,0.3561625 l -2.398859,6.5890062 -1.078963,2.262679 H 12.193004 L 10.202684,10.792197 9.7941444,9.1685156 H 9.7417675 L 8.076184,14.165266 6.9762704,16.427945 H 5.2583102 Z m 19.2604311,8.2126881 1.110389,-0.398064 q 0.209508,-0.0838 0.324737,-0.209508 0.125706,-0.125704 0.125706,-0.345687 V 2.7994922 q 0,-0.2514088 -0.146663,-0.4190147 Q 22.538887,2.212872 22.256056,2.108118 L 21.145673,1.6576771 V 1.0082043 L 25.817687,0.36920691 V 6.6544274 l -0.03144,0.680899 q 0.439967,-0.6180468 0.869455,-0.9846846 0.439967,-0.3771132 0.869457,-0.5656698 0.42949,-0.1990321 0.838029,-0.2618843 0.419015,-0.062853 0.838029,-0.062853 0.70185,0 1.330372,0.2095075 0.628522,0.1990318 1.089438,0.6494727 0.471392,0.4399654 0.743751,1.1418151 0.27236,0.7018495 0.27236,1.6865342 v 5.4681418 q 0,0.251409 0.125706,0.387588 0.125706,0.136179 0.314261,0.219983 l 0.995159,0.398064 v 0.722801 h -5.866198 v -0.7228 l 0.984685,-0.398064 q 0.17808,-0.07333 0.303786,-0.209508 0.136184,-0.146655 0.136184,-0.398063 v -4.389179 q 0,-0.7228006 -0.07333,-1.2570443 -0.07333,-0.5447192 -0.272362,-0.9008818 -0.188555,-0.3666378 -0.555194,-0.544719 -0.356162,-0.1885566 -0.942783,-0.1885566 -0.240933,0 -0.513293,0.031427 -0.261883,0.02095 -0.534243,0.1152292 -0.261884,0.083803 -0.502818,0.2618842 -0.240933,0.1676054 -0.419015,0.4609161 v 6.4528262 q 0,0.230458 0.125706,0.356162 0.125706,0.115229 0.324738,0.209507 l 0.848503,0.398064 v 0.722801 H 21.2609 Z m 21.428846,0.963734 q -1.183716,0 -2.178875,-0.356163 -0.995161,-0.356162 -1.717961,-1.047537 -0.712325,-0.701849 -1.110388,-1.71796 -0.398066,-1.026586 -0.398066,-2.367433 0,-1.1418148 0.377114,-2.1684008 0.387589,-1.0265859 1.089439,-1.7912878 0.712324,-0.7751772 1.728435,-1.225618 1.016111,-0.4609161 2.294105,-0.4609161 1.110389,0 1.969369,0.3561623 0.869455,0.3561626 1.456076,0.9323079 0.597097,0.5761451 0.900882,1.3303715 0.314261,0.7542265 0.314261,1.5503545 0,0.094278 -0.01051,0.2828349 0,0.1780816 -0.02096,0.3666376 -0.01051,0.188557 -0.02096,0.366638 -0.01051,0.167605 -0.02096,0.240933 h -6.955644 q 0.01051,1.906517 0.869457,2.901677 0.858979,0.984685 2.639792,0.984685 0.565669,0 1.037061,-0.09428 0.471391,-0.104754 0.85898,-0.240933 0.398064,-0.136179 0.70185,-0.303786 0.314261,-0.167605 0.555194,-0.303786 h 0.345688 v 0.984685 q -0.387589,0.314261 -0.900882,0.628522 -0.513293,0.303786 -1.110388,0.56567 -0.597098,0.261884 -1.277996,0.419015 -0.680898,0.167605 -1.414175,0.167605 z m 1.655108,-6.8299397 q 0,-0.680899 -0.08381,-1.2465688 Q 44.177251,7.9428976 43.967744,7.5343583 43.768712,7.125819 43.423025,6.895361 43.077337,6.6649028 42.564044,6.6649028 q -0.481866,0 -0.869455,0.2095073 -0.377114,0.2095075 -0.649474,0.6075714 -0.272359,0.3980639 -0.42949,0.9742092 -0.157123,0.5761453 -0.188557,1.2989456 z m 6.469998,5.8662057 1.141815,-0.398064 q 0.188555,-0.07333 0.314261,-0.209508 0.136184,-0.136179 0.136184,-0.356162 V 8.1838312 q 0,-0.1676054 -0.03142,-0.2933103 -0.02096,-0.1361808 -0.09427,-0.2304582 -0.06285,-0.1047543 -0.167602,-0.1780821 -0.104748,-0.073328 -0.272359,-0.125704 L 50.73105,6.9372623 V 6.2877896 l 4.54631,-0.743751 v 2.3255316 h 0.03142 q 0.324736,-0.5132931 0.659949,-0.9532585 0.33521,-0.4504409 0.722799,-0.7647019 0.387589,-0.3247363 0.838029,-0.5028177 0.450442,-0.1885566 0.984684,-0.1885566 0.282837,0 0.513295,0.031427 0.240933,0.020951 0.45044,0.073328 0.209507,0.052376 0.398064,0.125704 0.188557,0.073328 0.387589,0.1676054 v 3.2578397 h -1.36179 L 58.503773,8.3409617 Q 58.461873,8.2466837 58.346649,8.1628796 58.2419,8.0686016 58.095241,7.9952742 57.959057,7.9219462 57.78098,7.8800451 q -0.167602,-0.041901 -0.324736,-0.041901 -0.282836,0 -0.555196,0.041901 -0.261883,0.031426 -0.513293,0.1466556 -0.251408,0.1047543 -0.492341,0.2933102 -0.240933,0.178082 -0.492343,0.4923424 v 5.8452547 q 0,0.230458 0.125706,0.366638 0.125705,0.136179 0.324737,0.199032 l 1.414175,0.398064 v 0.7228 h -6.452826 z m 17.731022,0.963734 q -1.183716,0 -2.178876,-0.356163 -0.995161,-0.356162 -1.71796,-1.047537 -0.712325,-0.701849 -1.110389,-1.71796 -0.398063,-1.026586 -0.398063,-2.367433 0,-1.1418148 0.377112,-2.1684008 0.387589,-1.0265859 1.089438,-1.7912878 0.712325,-0.7751772 1.728436,-1.225618 1.016111,-0.4609161 2.294105,-0.4609161 1.110388,0 1.969369,0.3561623 0.869455,0.3561626 1.456076,0.9323079 0.597097,0.5761451 0.900881,1.3303715 0.314261,0.7542265 0.314261,1.5503545 0,0.094278 -0.01051,0.2828349 0,0.1780816 -0.02096,0.3666376 -0.01051,0.188557 -0.02096,0.366638 -0.01051,0.167605 -0.02096,0.240933 h -6.955644 q 0.01051,1.906517 0.869457,2.901677 0.858978,0.984685 2.639792,0.984685 0.565669,0 1.037061,-0.09428 0.471391,-0.104754 0.85898,-0.240933 0.398064,-0.136179 0.70185,-0.303786 0.314261,-0.167605 0.555194,-0.303786 h 0.345688 v 0.984685 q -0.387589,0.314261 -0.900882,0.628522 -0.513293,0.303786 -1.110389,0.56567 -0.597097,0.261884 -1.277995,0.419015 -0.680899,0.167605 -1.414175,0.167605 z m 1.655108,-6.8299397 q 0,-0.680899 -0.08381,-1.2465688 Q 70.033374,7.9428976 69.823872,7.5343583 69.62484,7.125819 69.279152,6.895361 68.933465,6.6649028 68.420172,6.6649028 q -0.481866,0 -0.869455,0.2095073 -0.377114,0.2095075 -0.649474,0.6075714 -0.27236,0.3980639 -0.42949,0.9742092 -0.157123,0.5761453 -0.188557,1.2989456 z m 17.612001,6.7985127 q -0.680899,0 -1.225618,-0.240933 -0.544719,-0.251409 -0.932308,-0.659948 -0.377112,-0.408539 -0.586621,-0.942783 -0.209507,-0.534244 -0.209507,-1.099914 0,-0.670423 0.230459,-1.204667 0.230458,-0.544719 0.618045,-0.953258 0.387589,-0.40854 0.890407,-0.70185 0.513293,-0.29331 1.058012,-0.471392 0.555194,-0.188556 1.110389,-0.272359 0.565671,-0.094278 1.058012,-0.094278 0.104749,0 0.303786,0.010478 0.209507,0.010478 0.42949,0.031427 0.219984,0.020952 0.419016,0.041901 0.209506,0.010479 0.314261,0.020952 l 0.01051,-1.3303727 q 0,-0.513293 -0.07333,-0.8694556 -0.06285,-0.3666364 -0.230456,-0.5761437 -0.157123,-0.2095075 -0.42949,-0.3037858 -0.27236,-0.094278 -0.670424,-0.094278 -0.42949,0 -0.921831,0.2095075 -0.492343,0.1990319 -0.97421,0.4923422 -0.481866,0.282835 -0.911356,0.597096 -0.429491,0.3037856 -0.722802,0.5028176 h -0.471427 l -0.303784,-2.27316 q 0.419013,-0.1676054 0.890405,-0.3247363 0.471391,-0.1676054 1.005636,-0.2933103 0.544719,-0.1361808 1.15229,-0.2199827 0.607572,-0.083803 1.298945,-0.083803 0.785653,0 1.571305,0.1676055 0.785653,0.1571305 1.4037,0.5551946 0.618047,0.3875884 1.005636,1.058012 0.387587,0.6599482 0.377112,1.6655835 l -0.0419,5.3214862 q 0,0.167606 0.05237,0.303786 0.06285,0.136179 0.167601,0.240933 0.115228,0.09428 0.27236,0.157131 0.157123,0.05238 0.366637,0.05238 0.146663,0 0.408539,-0.0419 0.261885,-0.05238 0.492343,-0.104754 h 0.261885 v 0.848504 q -0.167602,0.11523 -0.471392,0.27236 -0.293311,0.146656 -0.659948,0.282835 -0.366639,0.136179 -0.764703,0.230458 -0.398064,0.09428 -0.743751,0.09428 -0.523768,0 -0.953258,-0.09428 -0.419014,-0.09428 -0.722798,-0.293309 -0.293311,-0.209507 -0.460917,-0.555195 -0.15713,-0.345687 -0.15713,-0.838029 h -0.05238 q -0.398065,0.597096 -0.85898,0.953259 -0.450442,0.356162 -0.911357,0.544719 -0.460916,0.178082 -0.911358,0.230458 -0.439965,0.05238 -0.796128,0.05238 z m 1.665582,-1.71796 q 0.230459,0 0.471392,-0.0419 0.25141,-0.0419 0.492343,-0.146656 0.240933,-0.115229 0.45044,-0.282835 0.219983,-0.178082 0.387589,-0.439965 l 0.01051,-2.943578 q -0.754228,0 -1.372273,0.115229 -0.607573,0.115229 -1.047538,0.377113 -0.42949,0.251409 -0.670423,0.659948 -0.230458,0.40854 -0.230458,0.99516 0,0.502818 0.136184,0.827554 0.146663,0.324737 0.356162,0.523769 0.219982,0.199032 0.481867,0.282834 0.272359,0.07333 0.534242,0.07333 z m 9.413586,0.806603 1.120867,-0.408539 q 0.19903,-0.06285 0.31425,-0.209507 0.12571,-0.146656 0.12571,-0.366638 V 8.0162253 q 0,-0.2618843 -0.13618,-0.4085394 -0.13619,-0.1571305 -0.419017,-0.2723595 L 98.892153,6.9477378 V 6.298265 l 4.452027,-0.7542264 v 1.7389109 h 0.0524 q 0.42949,-0.5866205 0.85898,-0.9427831 0.42949,-0.3666378 0.8485,-0.5551944 0.41902,-0.1990321 0.82756,-0.2618843 0.41901,-0.062853 0.8066,-0.062853 0.52377,0 0.99516,0.1152292 0.48187,0.1152291 0.87993,0.3666378 0.39806,0.2409334 0.70185,0.628522 0.31426,0.3771133 0.48187,0.9218324 0.53424,-0.7228003 1.00563,-1.1208644 0.47139,-0.4085394 0.91136,-0.6075712 0.45044,-0.2095075 0.8485,-0.2514088 0.40854,-0.052376 0.79613,-0.052376 0.69138,0 1.29895,0.2095075 0.60757,0.2095073 1.05801,0.6599481 0.45044,0.4399655 0.71232,1.141815 0.26189,0.7018497 0.26189,1.6760589 v 5.5100428 q 0,0.230458 0.11523,0.356162 0.1257,0.125704 0.33521,0.209508 l 0.98468,0.398064 v 0.7228 h -5.84525 v -0.70185 l 0.96373,-0.408539 q 0.19904,-0.0838 0.31426,-0.219983 0.12571,-0.136179 0.12571,-0.377113 v -4.410129 q 0,-0.712325 -0.0628,-1.2465688 -0.0629,-0.544719 -0.25141,-0.9008815 -0.17808,-0.3666378 -0.5133,-0.5551945 -0.33521,-0.1885566 -0.8904,-0.1885566 -0.23046,0 -0.49234,0.031427 -0.26189,0.02095 -0.52377,0.1152292 -0.25141,0.083803 -0.49234,0.2618842 -0.24094,0.1780821 -0.41902,0.4818668 V 14.65761 q 0,0.240933 0.12571,0.356162 0.13618,0.115229 0.32473,0.209507 l 0.83803,0.398064 v 0.7228 h -5.62527 v -0.70185 l 0.95326,-0.408539 q 0.19903,-0.0838 0.31426,-0.209507 0.1257,-0.136179 0.1257,-0.366638 v -4.43108 q 0,-0.7123255 -0.0628,-1.2465693 -0.0629,-0.544719 -0.25141,-0.9008815 -0.17808,-0.3666378 -0.52377,-0.5551945 -0.33521,-0.1885566 -0.8904,-0.1885566 -0.25141,0 -0.51329,0.031427 -0.26189,0.02095 -0.5133,0.1152292 -0.25141,0.083803 -0.48187,0.2618842 -0.23045,0.1676054 -0.40853,0.4609161 V 14.65761 q 0,0.230458 0.1257,0.356162 0.13619,0.115229 0.32474,0.209507 l 0.8485,0.398064 v 0.7228 H 98.892153 Z M 132.41628,3.7737014 q -0.36664,0 -0.71233,-0.1361789 -0.33521,-0.136179 -0.59709,-0.3666379 -0.25141,-0.2304581 -0.40855,-0.5447191 -0.15712,-0.3247363 -0.15712,-0.6913743 0,-0.3666378 0.14666,-0.6704234 0.15713,-0.3142611 0.40854,-0.53424382 0.25141,-0.23045809 0.58662,-0.3561625 0.34569,-0.12570441 0.73328,-0.12570441 0.40854,0 0.75423,0.12570441 0.35616,0.12570441 0.61804,0.34568713 0.26189,0.20950739 0.39807,0.51329309 0.14666,0.2933102 0.14666,0.6599482 0,0.3771132 -0.15712,0.7018495 -0.14667,0.3247364 -0.40854,0.5656698 -0.26189,0.2409336 -0.61805,0.3771133 -0.34569,0.1361789 -0.73328,0.1361789 z m -3.07976,11.8476406 1.26752,-0.419015 q 0.2095,-0.06285 0.33521,-0.199032 0.1257,-0.136179 0.1257,-0.366638 V 8.0790775 q 0,-0.2514089 -0.13618,-0.4085394 -0.13618,-0.1676054 -0.43997,-0.2723595 L 129.37842,6.9686884 V 6.3192157 l 4.68249,-0.6389975 v 8.9564388 q 0,0.230458 0.1257,0.366638 0.13619,0.136179 0.32474,0.199032 l 1.20467,0.419015 v 0.7228 h -6.3795 z"
       id="text1"
       style="font-weight:bold;font-size:13.2261px;line-height:1;font-family:'Sitka Heading';-inkscape-font-specification:'Sitka Heading Bold';text-align:center;letter-spacing:1.24408px;word-spacing:0px;text-anchor:middle;fill:#ffffff;stroke-width:0.651416;stroke-linecap:round;stroke-linejoin:round;paint-order:markers stroke fill"
       aria-label="where am i" />
  </g>
</svg>
