<?xml version="1.0" encoding="UTF-8" standalone="no"?>
<!-- Created with Inkscape (http://www.inkscape.org/) -->

<svg
   width="200"
   height="128"
   viewBox="0 0 52.916666 33.866667"
   version="1.1"
   id="svg8"
   inkscape:version="1.4 (86a8ad7, 2024-10-11)"
   sodipodi:docname="wildfire.svg"
   inkscape:export-filename="tree.png"
   inkscape:export-xdpi="96"
   inkscape:export-ydpi="96"
   xmlns:inkscape="http://www.inkscape.org/namespaces/inkscape"
   xmlns:sodipodi="http://sodipodi.sourceforge.net/DTD/sodipodi-0.dtd"
   xmlns="http://www.w3.org/2000/svg"
   xmlns:svg="http://www.w3.org/2000/svg"
   xmlns:rdf="http://www.w3.org/1999/02/22-rdf-syntax-ns#"
   xmlns:cc="http://creativecommons.org/ns#"
   xmlns:dc="http://purl.org/dc/elements/1.1/">
  <defs
     id="defs2">
    <inkscape:path-effect
       effect="simplify"
       id="path-effect945"
       is_visible="true"
       steps="26"
       threshold="0.001"
       smooth_angles="0"
       helper_size="5"
       simplify_individual_paths="false"
       simplify_just_coalesce="false"
       lpeversion="0" />
  </defs>
  <sodipodi:namedview
     id="base"
     pagecolor="#000000"
     bordercolor="#666666"
     borderopacity="1.0"
     inkscape:pageopacity="0.0"
     inkscape:pageshadow="2"
     inkscape:zoom="4.528"
     inkscape:cx="153.59982"
     inkscape:cy="57.751767"
     inkscape:document-units="mm"
     inkscape:current-layer="layer1"
     showgrid="false"
     units="px"
     inkscape:pagecheckerboard="true"
     inkscape:showpageshadow="false"
     borderlayer="true"
     inkscape:window-width="3440"
     inkscape:window-height="1377"
     inkscape:window-x="-8"
     inkscape:window-y="-8"
     inkscape:window-maximized="1"
     inkscape:snap-global="false"
     showguides="false"
     inkscape:object-paths="true"
     inkscape:deskcolor="#505050" />
  <metadata
     id="metadata5">
    <rdf:RDF>
      <cc:Work
         rdf:about="">
        <dc:format>image/svg+xml</dc:format>
        <dc:type
           rdf:resource="http://purl.org/dc/dcmitype/StillImage" />
      </cc:Work>
    </rdf:RDF>
  </metadata>
  <g
     inkscape:label="Layer 1"
     inkscape:groupmode="layer"
     id="layer1"
     transform="translate(0,179.25002)">
    <g
       id="g42"
       transform="matrix(0.06801069,0,0,0.06801069,-18.929576,-140.65511)"
       style="opacity:1">
      <path
         sodipodi:nodetypes="ccccc"
         inkscape:connector-curvature="0"
         id="path37"
         d="m 734.45665,-256.24795 c -0.16992,20.84084 -1.34596,42.43625 -5.87994,56.66115 l 26.72697,2.67269 c -5.798,-21.09934 -8.01809,-33.90054 -8.01809,-59.86837 z"
         style="opacity:1;fill:#916b29;fill-opacity:1;fill-rule:nonzero;stroke:none;stroke-width:6;stroke-linecap:round;stroke-linejoin:round;stroke-miterlimit:4;stroke-dasharray:none;stroke-dashoffset:0;stroke-opacity:1;paint-order:markers stroke fill" />
      <path
         sodipodi:nodetypes="sssssssssssssssssssssss"
         inkscape:connector-curvature="0"
         id="path38"
         d="m 740.56464,-248.9698 c -4.49532,11.56989 -18.90384,-5.52522 -18.63164,3.54617 0.26306,8.76659 -5.5197,1.77128 -13.27094,-5.88316 -10.18235,-10.05523 -26.9285,12.30431 -22.12563,-6.86283 1.80576,-7.20636 -4.69076,-17.18277 1.90987,-22.40674 7.15997,-5.66664 4.80418,-15.24979 7.5759,-22.55687 3.23407,-8.52603 4.8905,-18.98118 -0.80963,-26.58655 -4.95276,-6.60822 -2.41826,-14.17718 6.14164,-15.0898 10.33989,-1.10241 12.13599,-14.35698 3.43625,-20.55518 -8.94673,-6.37417 2.00219,-15.56616 9.09739,-18.17345 10.15769,-3.73266 1.17788,-16.13401 8.41921,-22.53483 6.22199,-5.49982 10.54768,-18.07871 20.16033,-15.81664 6.13262,1.44314 7.85697,9.25547 11.43394,14.19351 3.2892,4.54076 8.73422,8.77635 8.15302,14.79496 -0.69739,7.22202 -0.92068,16.94724 7.12668,20.26164 9.85538,4.05908 -4.28894,17.10958 5.27787,21.20504 7.03893,3.0133 7.94586,9.25984 6.11936,16.98625 -1.91172,8.08705 8.50221,13.27318 8.12014,22.97452 -0.3149,7.99583 4.76151,15.57611 -3.04382,22.409 -7.05324,6.17449 5.4223,14.46178 5.57135,23.30369 0.16744,9.93245 -4.51591,16.55585 -14.61265,17.58086 -8.86818,0.90032 -16.74125,9.45533 -25.21105,1.79257 -2.78454,-2.51922 -9.39588,-6.2928 -10.83759,-2.58216 z"
         style="opacity:1;fill:#3e7738;fill-opacity:1;fill-rule:nonzero;stroke:none;stroke-width:7.70804;stroke-linecap:round;stroke-linejoin:round;stroke-miterlimit:4;stroke-dasharray:none;stroke-dashoffset:0;stroke-opacity:1;paint-order:markers stroke fill" />
      <path
         id="path39"
         transform="matrix(0.26458333,0,0,0.26458333,0,-496.75002)"
         d="m 2798.0137,281.91992 c -6.3164,-0.055 -11.992,1.66954 -17.2129,4.60742 -7.2638,11.54723 -13.6899,23.48721 -19.666,34.64649 -3.7051,18.97625 6.2247,50.34718 -20.4102,55.42187 -7.8435,3.0397 -15.6303,7.85105 -22.5078,13.84571 0.1714,15.97767 -1.392,30.58588 -20.0586,37.44531 -0.926,0.34028 -1.8711,0.71707 -2.8281,1.11523 -1.2657,9.19916 0.325,18.67476 5.9082,27.70313 18.138,10.68404 36.1093,42.23016 15.3535,58.48633 -10.6476,1.75292 -22.5433,5.782 -32.6914,11.95898 3.6968,18.73882 -4.4511,38.0405 -23.1172,44.83594 0.137,0.60444 0.2862,1.21084 0.4531,1.82422 5.8865,27.47595 33.0655,51.40149 19.2129,81.2539 -9.1074,42.66274 -13.7364,88.49063 -40.3105,124.31836 -11.9489,20.03456 -8.3577,43.40072 -3.1602,64.58985 -1.7458,20.51508 -3.635,53.96943 23.7617,57.46875 21.89,4.88092 48.4236,-22.92653 66.0606,-1.22071 14.4921,19.20798 45.2242,42.32629 66.4609,18.86328 5.5905,-7.74447 15.7949,7.05159 24.9727,5.29297 18.627,4.20703 39.8376,-2.40112 51.4433,-16.93359 22.5269,10.52288 43.8878,34.34881 71.25,22.97266 11.9883,-3.42473 23.9741,-7.09383 35.9161,-10.88672 9.4858,-11.49018 13.9397,-27.36506 13.6171,-46.5 -0.5633,-33.41825 -47.7165,-64.73952 -21.0586,-88.07618 29.5005,-25.82509 10.3157,-54.4768 11.5059,-84.69726 1.444,-36.66648 -37.9168,-56.2668 -30.6914,-86.83203 6.9033,-29.20218 3.4749,-52.81037 -23.1289,-64.19922 -36.158,-15.4789 17.3014,-64.80508 -19.9473,-80.14649 -30.4152,-12.52686 -29.5713,-49.2823 -26.9355,-76.57812 2.1966,-22.7475 -18.3829,-38.75604 -30.8145,-55.91797 -13.5192,-18.66346 -20.0364,-48.19014 -43.2148,-53.64453 -2.8384,-0.66793 -5.5547,-0.99485 -8.1621,-1.01758 z"
         style="opacity:1;fill:#34642f;fill-opacity:1;fill-rule:nonzero;stroke:none;stroke-width:29.1327;stroke-linecap:round;stroke-linejoin:round;stroke-miterlimit:4;stroke-dasharray:none;stroke-dashoffset:0;stroke-opacity:1;paint-order:markers stroke fill"
         inkscape:connector-curvature="0" />
      <path
         id="path40"
         transform="matrix(0.26458333,0,0,0.26458333,0,-496.75002)"
         d="m 2795.9121,349.96875 c -24.6902,12.67003 -35.8614,40.98624 -53.4668,60.44922 -2.9128,28.27608 1.748,68.3428 -31.1973,80.80273 -10.3838,5.525 -26.9105,10.88918 -32.7832,21.44532 2.5644,4.47398 4.3351,9.20785 5.3321,13.98828 25.2055,25.12787 34.9226,68.6788 7.4336,95.73632 -12.4077,14.84217 -33.6122,17.6013 -49.1485,24.4043 -1.4629,19.95685 20.9644,34.01482 20.7051,54.92774 7.3142,47.24904 -16.6619,91.53617 -21.0371,137.85742 -2.9948,19.87204 -23.1994,31.93335 -27.6602,49.76758 -0.4273,12.53954 2.1751,24.88113 3.6778,37.29296 18.1412,-7.3014 42.2045,-17.18642 60.6406,1.01954 18.3021,18.07355 33.7003,35.17362 42.4375,37.38476 1.928,-1.16457 3.9471,-2.00552 6.041,-2.5625 1.2682,-2.41842 1.8626,-6.49153 1.6797,-12.58789 -1.0288,-34.28557 53.4278,30.32638 70.418,-13.40234 5.449,-14.02447 30.4367,0.2383 40.9609,9.75976 32.0119,28.96162 61.7676,-3.3726 95.2852,-6.77539 13.04,-1.3238 23.6884,-5.12108 32.0351,-11.04101 1.5171,-17.51827 -7.3465,-36.8605 -19.2558,-49.33985 -14.5589,-23.73426 -10.5876,-57.131 11.8847,-74.13672 0.6066,-1.92747 1.0869,-3.86535 1.4785,-5.81054 0.1,-0.91032 0.2566,-1.81357 0.4844,-2.70703 3.3627,-21.80342 -5.0844,-44.51973 -6.998,-65.92188 -15.7299,-28.05615 -38.5342,-60.09373 -23.584,-93.44726 1.5505,-27.72964 -38.1847,-26.40857 -39.0137,-53.08399 -4.2473,-16.28783 7.3951,-35.16796 3.4238,-49.45117 -33.6457,-17.82996 -44.5341,-59.13495 -37.9335,-94.36914 -0.391,-27.37561 -30.3508,-38.96927 -36.9024,-64.09375 -5.5879,-9.75224 -12.2463,-26.33636 -24.9375,-26.10547 z"
         style="opacity:1;fill:#386e34;fill-opacity:1;fill-rule:nonzero;stroke:none;stroke-width:29.1327;stroke-linecap:round;stroke-linejoin:round;stroke-miterlimit:4;stroke-dasharray:none;stroke-dashoffset:0;stroke-opacity:1;paint-order:markers stroke fill"
         inkscape:connector-curvature="0" />
      <path
         id="path41"
         transform="matrix(0.26458333,0,0,0.26458333,0,-496.75002)"
         d="m 2811.9805,460.3125 c -11.5817,31.5885 -6.0531,71.4465 -35.1309,94.85742 -8.6268,7.92571 -20.4066,13.61741 -10.541,25.63086 16.8743,47.44248 -0.3182,107.05014 -44.4766,133.4043 21.7212,61.62259 -8.6305,124.75693 -18.3359,185.01953 -4.5403,12.45938 -12.0738,23.455 -18.5977,34.91211 0.5624,0.5652 1.1127,1.11845 1.668,1.67773 14.8821,2.49605 28.2099,10.35634 42.0195,16.22461 10e-4,-0.69542 0,-1.3876 -0.019,-2.14453 -1.0288,-34.28557 53.4278,30.32638 70.418,-13.40234 5.449,-14.02447 30.4367,0.2383 40.9609,9.75976 1.4605,1.32137 2.9174,2.51119 4.3692,3.58594 8.9963,1.64392 17.8326,4.52812 26.2656,8.30664 18.7638,-0.78456 37.421,-13.13283 57.2754,-17.45898 -15.3031,-30.05964 -21.8067,-66.10805 -2.8731,-95.94532 13.6872,-17.29107 14.1332,-40.0404 3.793,-58.59765 -14.2148,-31.99098 -32.305,-65.28942 -27.8516,-101.35352 -22.7816,-15.81282 -39.3616,-42.26701 -34.6953,-71.0664 2.4047,-11.42865 2.6033,-21.4873 -8.1933,-28.14649 -25.391,-29.84492 -25.0586,-71.63442 -31.6309,-107.40625 -4.8418,-5.19466 -10.0551,-16.69779 -14.4238,-17.85742 z"
         style="opacity:1;fill:#3e7939;fill-opacity:1;fill-rule:nonzero;stroke:none;stroke-width:29.1327;stroke-linecap:round;stroke-linejoin:round;stroke-miterlimit:4;stroke-dasharray:none;stroke-dashoffset:0;stroke-opacity:1;paint-order:markers stroke fill"
         inkscape:connector-curvature="0" />
      <path
         transform="matrix(0.26458333,0,0,0.26458333,0,-496.75002)"
         id="path42"
         d="m 2783.75,649.66797 c -4.7889,9.61629 -19.4505,15.32577 -10.9688,27.49805 10.5879,48.93528 -6.4413,103.04319 -43.8183,136.51367 9.2246,49.81216 -3.1729,98.67018 -16.2988,146.79492 10.327,7.81552 16.4382,7.27803 15.9023,-10.58008 -1.0288,-34.28557 53.4278,30.32638 70.418,-13.40234 5.449,-14.02447 30.4367,0.2383 40.9609,9.75976 6.08,5.50069 12.0786,8.78584 18.0371,10.48243 2.7082,-18.98654 9.3443,-37.38055 19.666,-53.41797 -5.1934,-39.53246 -37.4537,-71.50499 -34.0605,-112.99414 -9.7122,-19.84275 -29.5787,-34.19362 -32.4356,-57.61524 -4.193,-20.12572 -0.026,-41.88238 -15.9668,-57.51953 -4.773,-7.59859 -8.264,-19.35973 -11.4355,-25.51953 z"
         style="opacity:1;fill:#488940;fill-opacity:1;fill-rule:nonzero;stroke:none;stroke-width:29.1327;stroke-linecap:round;stroke-linejoin:round;stroke-miterlimit:4;stroke-dasharray:none;stroke-dashoffset:0;stroke-opacity:1;paint-order:markers stroke fill"
         inkscape:connector-curvature="0" />
    </g>
    <g
       id="g6"
       transform="matrix(0.09175496,0,0,0.09175496,-52.909275,-134.05126)"
       style="opacity:1">
      <path
         sodipodi:nodetypes="ccccc"
         inkscape:connector-curvature="0"
         id="path1"
         d="m 734.45665,-256.24795 c -0.16992,20.84084 -1.34596,42.43625 -5.87994,56.66115 l 26.72697,2.67269 c -5.798,-21.09934 -8.01809,-33.90054 -8.01809,-59.86837 z"
         style="opacity:1;fill:#916b29;fill-opacity:1;fill-rule:nonzero;stroke:none;stroke-width:6;stroke-linecap:round;stroke-linejoin:round;stroke-miterlimit:4;stroke-dasharray:none;stroke-dashoffset:0;stroke-opacity:1;paint-order:markers stroke fill" />
      <path
         sodipodi:nodetypes="sssssssssssssssssssssss"
         inkscape:connector-curvature="0"
         id="path2"
         d="m 740.56464,-248.9698 c -4.49532,11.56989 -18.90384,-5.52522 -18.63164,3.54617 0.26306,8.76659 -5.5197,1.77128 -13.27094,-5.88316 -10.18235,-10.05523 -26.9285,12.30431 -22.12563,-6.86283 1.80576,-7.20636 -4.69076,-17.18277 1.90987,-22.40674 7.15997,-5.66664 4.80418,-15.24979 7.5759,-22.55687 3.23407,-8.52603 4.8905,-18.98118 -0.80963,-26.58655 -4.95276,-6.60822 -2.41826,-14.17718 6.14164,-15.0898 10.33989,-1.10241 12.13599,-14.35698 3.43625,-20.55518 -8.94673,-6.37417 2.00219,-15.56616 9.09739,-18.17345 10.15769,-3.73266 1.17788,-16.13401 8.41921,-22.53483 6.22199,-5.49982 10.54768,-18.07871 20.16033,-15.81664 6.13262,1.44314 7.85697,9.25547 11.43394,14.19351 3.2892,4.54076 8.73422,8.77635 8.15302,14.79496 -0.69739,7.22202 -0.92068,16.94724 7.12668,20.26164 9.85538,4.05908 -4.28894,17.10958 5.27787,21.20504 7.03893,3.0133 7.94586,9.25984 6.11936,16.98625 -1.91172,8.08705 8.50221,13.27318 8.12014,22.97452 -0.3149,7.99583 4.76151,15.57611 -3.04382,22.409 -7.05324,6.17449 5.4223,14.46178 5.57135,23.30369 0.16744,9.93245 -4.51591,16.55585 -14.61265,17.58086 -8.86818,0.90032 -16.74125,9.45533 -25.21105,1.79257 -2.78454,-2.51922 -9.39588,-6.2928 -10.83759,-2.58216 z"
         style="opacity:1;fill:#3e7738;fill-opacity:1;fill-rule:nonzero;stroke:none;stroke-width:7.70804;stroke-linecap:round;stroke-linejoin:round;stroke-miterlimit:4;stroke-dasharray:none;stroke-dashoffset:0;stroke-opacity:1;paint-order:markers stroke fill" />
      <path
         id="path3"
         transform="matrix(0.26458333,0,0,0.26458333,0,-496.75002)"
         d="m 2798.0137,281.91992 c -6.3164,-0.055 -11.992,1.66954 -17.2129,4.60742 -7.2638,11.54723 -13.6899,23.48721 -19.666,34.64649 -3.7051,18.97625 6.2247,50.34718 -20.4102,55.42187 -7.8435,3.0397 -15.6303,7.85105 -22.5078,13.84571 0.1714,15.97767 -1.392,30.58588 -20.0586,37.44531 -0.926,0.34028 -1.8711,0.71707 -2.8281,1.11523 -1.2657,9.19916 0.325,18.67476 5.9082,27.70313 18.138,10.68404 36.1093,42.23016 15.3535,58.48633 -10.6476,1.75292 -22.5433,5.782 -32.6914,11.95898 3.6968,18.73882 -4.4511,38.0405 -23.1172,44.83594 0.137,0.60444 0.2862,1.21084 0.4531,1.82422 5.8865,27.47595 33.0655,51.40149 19.2129,81.2539 -9.1074,42.66274 -13.7364,88.49063 -40.3105,124.31836 -11.9489,20.03456 -8.3577,43.40072 -3.1602,64.58985 -1.7458,20.51508 -3.635,53.96943 23.7617,57.46875 21.89,4.88092 48.4236,-22.92653 66.0606,-1.22071 14.4921,19.20798 45.2242,42.32629 66.4609,18.86328 5.5905,-7.74447 15.7949,7.05159 24.9727,5.29297 18.627,4.20703 39.8376,-2.40112 51.4433,-16.93359 22.5269,10.52288 43.8878,34.34881 71.25,22.97266 11.9883,-3.42473 23.9741,-7.09383 35.9161,-10.88672 9.4858,-11.49018 13.9397,-27.36506 13.6171,-46.5 -0.5633,-33.41825 -47.7165,-64.73952 -21.0586,-88.07618 29.5005,-25.82509 10.3157,-54.4768 11.5059,-84.69726 1.444,-36.66648 -37.9168,-56.2668 -30.6914,-86.83203 6.9033,-29.20218 3.4749,-52.81037 -23.1289,-64.19922 -36.158,-15.4789 17.3014,-64.80508 -19.9473,-80.14649 -30.4152,-12.52686 -29.5713,-49.2823 -26.9355,-76.57812 2.1966,-22.7475 -18.3829,-38.75604 -30.8145,-55.91797 -13.5192,-18.66346 -20.0364,-48.19014 -43.2148,-53.64453 -2.8384,-0.66793 -5.5547,-0.99485 -8.1621,-1.01758 z"
         style="opacity:1;fill:#34642f;fill-opacity:1;fill-rule:nonzero;stroke:none;stroke-width:29.1327;stroke-linecap:round;stroke-linejoin:round;stroke-miterlimit:4;stroke-dasharray:none;stroke-dashoffset:0;stroke-opacity:1;paint-order:markers stroke fill"
         inkscape:connector-curvature="0" />
      <path
         id="path4"
         transform="matrix(0.26458333,0,0,0.26458333,0,-496.75002)"
         d="m 2795.9121,349.96875 c -24.6902,12.67003 -35.8614,40.98624 -53.4668,60.44922 -2.9128,28.27608 1.748,68.3428 -31.1973,80.80273 -10.3838,5.525 -26.9105,10.88918 -32.7832,21.44532 2.5644,4.47398 4.3351,9.20785 5.3321,13.98828 25.2055,25.12787 34.9226,68.6788 7.4336,95.73632 -12.4077,14.84217 -33.6122,17.6013 -49.1485,24.4043 -1.4629,19.95685 20.9644,34.01482 20.7051,54.92774 7.3142,47.24904 -16.6619,91.53617 -21.0371,137.85742 -2.9948,19.87204 -23.1994,31.93335 -27.6602,49.76758 -0.4273,12.53954 2.1751,24.88113 3.6778,37.29296 18.1412,-7.3014 42.2045,-17.18642 60.6406,1.01954 18.3021,18.07355 33.7003,35.17362 42.4375,37.38476 1.928,-1.16457 3.9471,-2.00552 6.041,-2.5625 1.2682,-2.41842 1.8626,-6.49153 1.6797,-12.58789 -1.0288,-34.28557 53.4278,30.32638 70.418,-13.40234 5.449,-14.02447 30.4367,0.2383 40.9609,9.75976 32.0119,28.96162 61.7676,-3.3726 95.2852,-6.77539 13.04,-1.3238 23.6884,-5.12108 32.0351,-11.04101 1.5171,-17.51827 -7.3465,-36.8605 -19.2558,-49.33985 -14.5589,-23.73426 -10.5876,-57.131 11.8847,-74.13672 0.6066,-1.92747 1.0869,-3.86535 1.4785,-5.81054 0.1,-0.91032 0.2566,-1.81357 0.4844,-2.70703 3.3627,-21.80342 -5.0844,-44.51973 -6.998,-65.92188 -15.7299,-28.05615 -38.5342,-60.09373 -23.584,-93.44726 1.5505,-27.72964 -38.1847,-26.40857 -39.0137,-53.08399 -4.2473,-16.28783 7.3951,-35.16796 3.4238,-49.45117 -33.6457,-17.82996 -44.5341,-59.13495 -37.9335,-94.36914 -0.391,-27.37561 -30.3508,-38.96927 -36.9024,-64.09375 -5.5879,-9.75224 -12.2463,-26.33636 -24.9375,-26.10547 z"
         style="opacity:1;fill:#386e34;fill-opacity:1;fill-rule:nonzero;stroke:none;stroke-width:29.1327;stroke-linecap:round;stroke-linejoin:round;stroke-miterlimit:4;stroke-dasharray:none;stroke-dashoffset:0;stroke-opacity:1;paint-order:markers stroke fill"
         inkscape:connector-curvature="0" />
      <path
         id="path5"
         transform="matrix(0.26458333,0,0,0.26458333,0,-496.75002)"
         d="m 2811.9805,460.3125 c -11.5817,31.5885 -6.0531,71.4465 -35.1309,94.85742 -8.6268,7.92571 -20.4066,13.61741 -10.541,25.63086 16.8743,47.44248 -0.3182,107.05014 -44.4766,133.4043 21.7212,61.62259 -8.6305,124.75693 -18.3359,185.01953 -4.5403,12.45938 -12.0738,23.455 -18.5977,34.91211 0.5624,0.5652 1.1127,1.11845 1.668,1.67773 14.8821,2.49605 28.2099,10.35634 42.0195,16.22461 10e-4,-0.69542 0,-1.3876 -0.019,-2.14453 -1.0288,-34.28557 53.4278,30.32638 70.418,-13.40234 5.449,-14.02447 30.4367,0.2383 40.9609,9.75976 1.4605,1.32137 2.9174,2.51119 4.3692,3.58594 8.9963,1.64392 17.8326,4.52812 26.2656,8.30664 18.7638,-0.78456 37.421,-13.13283 57.2754,-17.45898 -15.3031,-30.05964 -21.8067,-66.10805 -2.8731,-95.94532 13.6872,-17.29107 14.1332,-40.0404 3.793,-58.59765 -14.2148,-31.99098 -32.305,-65.28942 -27.8516,-101.35352 -22.7816,-15.81282 -39.3616,-42.26701 -34.6953,-71.0664 2.4047,-11.42865 2.6033,-21.4873 -8.1933,-28.14649 -25.391,-29.84492 -25.0586,-71.63442 -31.6309,-107.40625 -4.8418,-5.19466 -10.0551,-16.69779 -14.4238,-17.85742 z"
         style="opacity:1;fill:#3e7939;fill-opacity:1;fill-rule:nonzero;stroke:none;stroke-width:29.1327;stroke-linecap:round;stroke-linejoin:round;stroke-miterlimit:4;stroke-dasharray:none;stroke-dashoffset:0;stroke-opacity:1;paint-order:markers stroke fill"
         inkscape:connector-curvature="0" />
      <path
         transform="matrix(0.26458333,0,0,0.26458333,0,-496.75002)"
         id="path6"
         d="m 2783.75,649.66797 c -4.7889,9.61629 -19.4505,15.32577 -10.9688,27.49805 10.5879,48.93528 -6.4413,103.04319 -43.8183,136.51367 9.2246,49.81216 -3.1729,98.67018 -16.2988,146.79492 10.327,7.81552 16.4382,7.27803 15.9023,-10.58008 -1.0288,-34.28557 53.4278,30.32638 70.418,-13.40234 5.449,-14.02447 30.4367,0.2383 40.9609,9.75976 6.08,5.50069 12.0786,8.78584 18.0371,10.48243 2.7082,-18.98654 9.3443,-37.38055 19.666,-53.41797 -5.1934,-39.53246 -37.4537,-71.50499 -34.0605,-112.99414 -9.7122,-19.84275 -29.5787,-34.19362 -32.4356,-57.61524 -4.193,-20.12572 -0.026,-41.88238 -15.9668,-57.51953 -4.773,-7.59859 -8.264,-19.35973 -11.4355,-25.51953 z"
         style="opacity:1;fill:#488940;fill-opacity:1;fill-rule:nonzero;stroke:none;stroke-width:29.1327;stroke-linecap:round;stroke-linejoin:round;stroke-miterlimit:4;stroke-dasharray:none;stroke-dashoffset:0;stroke-opacity:1;paint-order:markers stroke fill"
         inkscape:connector-curvature="0" />
    </g>
    <g
       id="g4793"
       transform="matrix(0.10576356,0,0,0.10576356,-69.405985,-125.80009)">
      <path
         sodipodi:nodetypes="ccccc"
         inkscape:connector-curvature="0"
         id="path4687"
         d="m 734.45665,-256.24795 c -0.16992,20.84084 -1.34596,42.43625 -5.87994,56.66115 l 26.72697,2.67269 c -5.798,-21.09934 -8.01809,-33.90054 -8.01809,-59.86837 z"
         style="opacity:1;fill:#916b29;fill-opacity:1;fill-rule:nonzero;stroke:none;stroke-width:6;stroke-linecap:round;stroke-linejoin:round;stroke-miterlimit:4;stroke-dasharray:none;stroke-dashoffset:0;stroke-opacity:1;paint-order:markers stroke fill" />
      <path
         sodipodi:nodetypes="sssssssssssssssssssssss"
         inkscape:connector-curvature="0"
         id="path4674"
         d="m 740.56464,-248.9698 c -4.49532,11.56989 -18.90384,-5.52522 -18.63164,3.54617 0.26306,8.76659 -5.5197,1.77128 -13.27094,-5.88316 -10.18235,-10.05523 -26.9285,12.30431 -22.12563,-6.86283 1.80576,-7.20636 -4.69076,-17.18277 1.90987,-22.40674 7.15997,-5.66664 4.80418,-15.24979 7.5759,-22.55687 3.23407,-8.52603 4.8905,-18.98118 -0.80963,-26.58655 -4.95276,-6.60822 -2.41826,-14.17718 6.14164,-15.0898 10.33989,-1.10241 12.13599,-14.35698 3.43625,-20.55518 -8.94673,-6.37417 2.00219,-15.56616 9.09739,-18.17345 10.15769,-3.73266 1.17788,-16.13401 8.41921,-22.53483 6.22199,-5.49982 10.54768,-18.07871 20.16033,-15.81664 6.13262,1.44314 7.85697,9.25547 11.43394,14.19351 3.2892,4.54076 8.73422,8.77635 8.15302,14.79496 -0.69739,7.22202 -0.92068,16.94724 7.12668,20.26164 9.85538,4.05908 -4.28894,17.10958 5.27787,21.20504 7.03893,3.0133 7.94586,9.25984 6.11936,16.98625 -1.91172,8.08705 8.50221,13.27318 8.12014,22.97452 -0.3149,7.99583 4.76151,15.57611 -3.04382,22.409 -7.05324,6.17449 5.4223,14.46178 5.57135,23.30369 0.16744,9.93245 -4.51591,16.55585 -14.61265,17.58086 -8.86818,0.90032 -16.74125,9.45533 -25.21105,1.79257 -2.78454,-2.51922 -9.39588,-6.2928 -10.83759,-2.58216 z"
         style="opacity:1;fill:#3e7738;fill-opacity:1;fill-rule:nonzero;stroke:none;stroke-width:7.70804;stroke-linecap:round;stroke-linejoin:round;stroke-miterlimit:4;stroke-dasharray:none;stroke-dashoffset:0;stroke-opacity:1;paint-order:markers stroke fill" />
      <path
         id="path4689"
         transform="matrix(0.26458333,0,0,0.26458333,0,-496.75002)"
         d="m 2798.0137,281.91992 c -6.3164,-0.055 -11.992,1.66954 -17.2129,4.60742 -7.2638,11.54723 -13.6899,23.48721 -19.666,34.64649 -3.7051,18.97625 6.2247,50.34718 -20.4102,55.42187 -7.8435,3.0397 -15.6303,7.85105 -22.5078,13.84571 0.1714,15.97767 -1.392,30.58588 -20.0586,37.44531 -0.926,0.34028 -1.8711,0.71707 -2.8281,1.11523 -1.2657,9.19916 0.325,18.67476 5.9082,27.70313 18.138,10.68404 36.1093,42.23016 15.3535,58.48633 -10.6476,1.75292 -22.5433,5.782 -32.6914,11.95898 3.6968,18.73882 -4.4511,38.0405 -23.1172,44.83594 0.137,0.60444 0.2862,1.21084 0.4531,1.82422 5.8865,27.47595 33.0655,51.40149 19.2129,81.2539 -9.1074,42.66274 -13.7364,88.49063 -40.3105,124.31836 -11.9489,20.03456 -8.3577,43.40072 -3.1602,64.58985 -1.7458,20.51508 -3.635,53.96943 23.7617,57.46875 21.89,4.88092 48.4236,-22.92653 66.0606,-1.22071 14.4921,19.20798 45.2242,42.32629 66.4609,18.86328 5.5905,-7.74447 15.7949,7.05159 24.9727,5.29297 18.627,4.20703 39.8376,-2.40112 51.4433,-16.93359 22.5269,10.52288 43.8878,34.34881 71.25,22.97266 11.9883,-3.42473 23.9741,-7.09383 35.9161,-10.88672 9.4858,-11.49018 13.9397,-27.36506 13.6171,-46.5 -0.5633,-33.41825 -47.7165,-64.73952 -21.0586,-88.07618 29.5005,-25.82509 10.3157,-54.4768 11.5059,-84.69726 1.444,-36.66648 -37.9168,-56.2668 -30.6914,-86.83203 6.9033,-29.20218 3.4749,-52.81037 -23.1289,-64.19922 -36.158,-15.4789 17.3014,-64.80508 -19.9473,-80.14649 -30.4152,-12.52686 -29.5713,-49.2823 -26.9355,-76.57812 2.1966,-22.7475 -18.3829,-38.75604 -30.8145,-55.91797 -13.5192,-18.66346 -20.0364,-48.19014 -43.2148,-53.64453 -2.8384,-0.66793 -5.5547,-0.99485 -8.1621,-1.01758 z"
         style="opacity:1;fill:#34642f;fill-opacity:1;fill-rule:nonzero;stroke:none;stroke-width:29.1327;stroke-linecap:round;stroke-linejoin:round;stroke-miterlimit:4;stroke-dasharray:none;stroke-dashoffset:0;stroke-opacity:1;paint-order:markers stroke fill"
         inkscape:connector-curvature="0" />
      <path
         id="path4706"
         transform="matrix(0.26458333,0,0,0.26458333,0,-496.75002)"
         d="m 2795.9121,349.96875 c -24.6902,12.67003 -35.8614,40.98624 -53.4668,60.44922 -2.9128,28.27608 1.748,68.3428 -31.1973,80.80273 -10.3838,5.525 -26.9105,10.88918 -32.7832,21.44532 2.5644,4.47398 4.3351,9.20785 5.3321,13.98828 25.2055,25.12787 34.9226,68.6788 7.4336,95.73632 -12.4077,14.84217 -33.6122,17.6013 -49.1485,24.4043 -1.4629,19.95685 20.9644,34.01482 20.7051,54.92774 7.3142,47.24904 -16.6619,91.53617 -21.0371,137.85742 -2.9948,19.87204 -23.1994,31.93335 -27.6602,49.76758 -0.4273,12.53954 2.1751,24.88113 3.6778,37.29296 18.1412,-7.3014 42.2045,-17.18642 60.6406,1.01954 18.3021,18.07355 33.7003,35.17362 42.4375,37.38476 1.928,-1.16457 3.9471,-2.00552 6.041,-2.5625 1.2682,-2.41842 1.8626,-6.49153 1.6797,-12.58789 -1.0288,-34.28557 53.4278,30.32638 70.418,-13.40234 5.449,-14.02447 30.4367,0.2383 40.9609,9.75976 32.0119,28.96162 61.7676,-3.3726 95.2852,-6.77539 13.04,-1.3238 23.6884,-5.12108 32.0351,-11.04101 1.5171,-17.51827 -7.3465,-36.8605 -19.2558,-49.33985 -14.5589,-23.73426 -10.5876,-57.131 11.8847,-74.13672 0.6066,-1.92747 1.0869,-3.86535 1.4785,-5.81054 0.1,-0.91032 0.2566,-1.81357 0.4844,-2.70703 3.3627,-21.80342 -5.0844,-44.51973 -6.998,-65.92188 -15.7299,-28.05615 -38.5342,-60.09373 -23.584,-93.44726 1.5505,-27.72964 -38.1847,-26.40857 -39.0137,-53.08399 -4.2473,-16.28783 7.3951,-35.16796 3.4238,-49.45117 -33.6457,-17.82996 -44.5341,-59.13495 -37.9335,-94.36914 -0.391,-27.37561 -30.3508,-38.96927 -36.9024,-64.09375 -5.5879,-9.75224 -12.2463,-26.33636 -24.9375,-26.10547 z"
         style="opacity:1;fill:#386e34;fill-opacity:1;fill-rule:nonzero;stroke:none;stroke-width:29.1327;stroke-linecap:round;stroke-linejoin:round;stroke-miterlimit:4;stroke-dasharray:none;stroke-dashoffset:0;stroke-opacity:1;paint-order:markers stroke fill"
         inkscape:connector-curvature="0" />
      <path
         id="path4717"
         transform="matrix(0.26458333,0,0,0.26458333,0,-496.75002)"
         d="m 2811.9805,460.3125 c -11.5817,31.5885 -6.0531,71.4465 -35.1309,94.85742 -8.6268,7.92571 -20.4066,13.61741 -10.541,25.63086 16.8743,47.44248 -0.3182,107.05014 -44.4766,133.4043 21.7212,61.62259 -8.6305,124.75693 -18.3359,185.01953 -4.5403,12.45938 -12.0738,23.455 -18.5977,34.91211 0.5624,0.5652 1.1127,1.11845 1.668,1.67773 14.8821,2.49605 28.2099,10.35634 42.0195,16.22461 10e-4,-0.69542 0,-1.3876 -0.019,-2.14453 -1.0288,-34.28557 53.4278,30.32638 70.418,-13.40234 5.449,-14.02447 30.4367,0.2383 40.9609,9.75976 1.4605,1.32137 2.9174,2.51119 4.3692,3.58594 8.9963,1.64392 17.8326,4.52812 26.2656,8.30664 18.7638,-0.78456 37.421,-13.13283 57.2754,-17.45898 -15.3031,-30.05964 -21.8067,-66.10805 -2.8731,-95.94532 13.6872,-17.29107 14.1332,-40.0404 3.793,-58.59765 -14.2148,-31.99098 -32.305,-65.28942 -27.8516,-101.35352 -22.7816,-15.81282 -39.3616,-42.26701 -34.6953,-71.0664 2.4047,-11.42865 2.6033,-21.4873 -8.1933,-28.14649 -25.391,-29.84492 -25.0586,-71.63442 -31.6309,-107.40625 -4.8418,-5.19466 -10.0551,-16.69779 -14.4238,-17.85742 z"
         style="opacity:1;fill:#3e7939;fill-opacity:1;fill-rule:nonzero;stroke:none;stroke-width:29.1327;stroke-linecap:round;stroke-linejoin:round;stroke-miterlimit:4;stroke-dasharray:none;stroke-dashoffset:0;stroke-opacity:1;paint-order:markers stroke fill"
         inkscape:connector-curvature="0" />
      <path
         transform="matrix(0.26458333,0,0,0.26458333,0,-496.75002)"
         id="path4740"
         d="m 2783.75,649.66797 c -4.7889,9.61629 -19.4505,15.32577 -10.9688,27.49805 10.5879,48.93528 -6.4413,103.04319 -43.8183,136.51367 9.2246,49.81216 -3.1729,98.67018 -16.2988,146.79492 10.327,7.81552 16.4382,7.27803 15.9023,-10.58008 -1.0288,-34.28557 53.4278,30.32638 70.418,-13.40234 5.449,-14.02447 30.4367,0.2383 40.9609,9.75976 6.08,5.50069 12.0786,8.78584 18.0371,10.48243 2.7082,-18.98654 9.3443,-37.38055 19.666,-53.41797 -5.1934,-39.53246 -37.4537,-71.50499 -34.0605,-112.99414 -9.7122,-19.84275 -29.5787,-34.19362 -32.4356,-57.61524 -4.193,-20.12572 -0.026,-41.88238 -15.9668,-57.51953 -4.773,-7.59859 -8.264,-19.35973 -11.4355,-25.51953 z"
         style="opacity:1;fill:#488940;fill-opacity:1;fill-rule:nonzero;stroke:none;stroke-width:29.1327;stroke-linecap:round;stroke-linejoin:round;stroke-miterlimit:4;stroke-dasharray:none;stroke-dashoffset:0;stroke-opacity:1;paint-order:markers stroke fill"
         inkscape:connector-curvature="0" />
    </g>
    <g
       id="g12"
       transform="matrix(0.09175496,0,0,0.09175496,-43.852204,-131.30492)"
       style="opacity:1">
      <path
         sodipodi:nodetypes="ccccc"
         inkscape:connector-curvature="0"
         id="path7"
         d="m 734.45665,-256.24795 c -0.16992,20.84084 -1.34596,42.43625 -5.87994,56.66115 l 26.72697,2.67269 c -5.798,-21.09934 -8.01809,-33.90054 -8.01809,-59.86837 z"
         style="opacity:1;fill:#916b29;fill-opacity:1;fill-rule:nonzero;stroke:none;stroke-width:6;stroke-linecap:round;stroke-linejoin:round;stroke-miterlimit:4;stroke-dasharray:none;stroke-dashoffset:0;stroke-opacity:1;paint-order:markers stroke fill" />
      <path
         sodipodi:nodetypes="sssssssssssssssssssssss"
         inkscape:connector-curvature="0"
         id="path8"
         d="m 740.56464,-248.9698 c -4.49532,11.56989 -18.90384,-5.52522 -18.63164,3.54617 0.26306,8.76659 -5.5197,1.77128 -13.27094,-5.88316 -10.18235,-10.05523 -26.9285,12.30431 -22.12563,-6.86283 1.80576,-7.20636 -4.69076,-17.18277 1.90987,-22.40674 7.15997,-5.66664 4.80418,-15.24979 7.5759,-22.55687 3.23407,-8.52603 4.8905,-18.98118 -0.80963,-26.58655 -4.95276,-6.60822 -2.41826,-14.17718 6.14164,-15.0898 10.33989,-1.10241 12.13599,-14.35698 3.43625,-20.55518 -8.94673,-6.37417 2.00219,-15.56616 9.09739,-18.17345 10.15769,-3.73266 1.17788,-16.13401 8.41921,-22.53483 6.22199,-5.49982 10.54768,-18.07871 20.16033,-15.81664 6.13262,1.44314 7.85697,9.25547 11.43394,14.19351 3.2892,4.54076 8.73422,8.77635 8.15302,14.79496 -0.69739,7.22202 -0.92068,16.94724 7.12668,20.26164 9.85538,4.05908 -4.28894,17.10958 5.27787,21.20504 7.03893,3.0133 7.94586,9.25984 6.11936,16.98625 -1.91172,8.08705 8.50221,13.27318 8.12014,22.97452 -0.3149,7.99583 4.76151,15.57611 -3.04382,22.409 -7.05324,6.17449 5.4223,14.46178 5.57135,23.30369 0.16744,9.93245 -4.51591,16.55585 -14.61265,17.58086 -8.86818,0.90032 -16.74125,9.45533 -25.21105,1.79257 -2.78454,-2.51922 -9.39588,-6.2928 -10.83759,-2.58216 z"
         style="opacity:1;fill:#3e7738;fill-opacity:1;fill-rule:nonzero;stroke:none;stroke-width:7.70804;stroke-linecap:round;stroke-linejoin:round;stroke-miterlimit:4;stroke-dasharray:none;stroke-dashoffset:0;stroke-opacity:1;paint-order:markers stroke fill" />
      <path
         id="path9"
         transform="matrix(0.26458333,0,0,0.26458333,0,-496.75002)"
         d="m 2798.0137,281.91992 c -6.3164,-0.055 -11.992,1.66954 -17.2129,4.60742 -7.2638,11.54723 -13.6899,23.48721 -19.666,34.64649 -3.7051,18.97625 6.2247,50.34718 -20.4102,55.42187 -7.8435,3.0397 -15.6303,7.85105 -22.5078,13.84571 0.1714,15.97767 -1.392,30.58588 -20.0586,37.44531 -0.926,0.34028 -1.8711,0.71707 -2.8281,1.11523 -1.2657,9.19916 0.325,18.67476 5.9082,27.70313 18.138,10.68404 36.1093,42.23016 15.3535,58.48633 -10.6476,1.75292 -22.5433,5.782 -32.6914,11.95898 3.6968,18.73882 -4.4511,38.0405 -23.1172,44.83594 0.137,0.60444 0.2862,1.21084 0.4531,1.82422 5.8865,27.47595 33.0655,51.40149 19.2129,81.2539 -9.1074,42.66274 -13.7364,88.49063 -40.3105,124.31836 -11.9489,20.03456 -8.3577,43.40072 -3.1602,64.58985 -1.7458,20.51508 -3.635,53.96943 23.7617,57.46875 21.89,4.88092 48.4236,-22.92653 66.0606,-1.22071 14.4921,19.20798 45.2242,42.32629 66.4609,18.86328 5.5905,-7.74447 15.7949,7.05159 24.9727,5.29297 18.627,4.20703 39.8376,-2.40112 51.4433,-16.93359 22.5269,10.52288 43.8878,34.34881 71.25,22.97266 11.9883,-3.42473 23.9741,-7.09383 35.9161,-10.88672 9.4858,-11.49018 13.9397,-27.36506 13.6171,-46.5 -0.5633,-33.41825 -47.7165,-64.73952 -21.0586,-88.07618 29.5005,-25.82509 10.3157,-54.4768 11.5059,-84.69726 1.444,-36.66648 -37.9168,-56.2668 -30.6914,-86.83203 6.9033,-29.20218 3.4749,-52.81037 -23.1289,-64.19922 -36.158,-15.4789 17.3014,-64.80508 -19.9473,-80.14649 -30.4152,-12.52686 -29.5713,-49.2823 -26.9355,-76.57812 2.1966,-22.7475 -18.3829,-38.75604 -30.8145,-55.91797 -13.5192,-18.66346 -20.0364,-48.19014 -43.2148,-53.64453 -2.8384,-0.66793 -5.5547,-0.99485 -8.1621,-1.01758 z"
         style="opacity:1;fill:#34642f;fill-opacity:1;fill-rule:nonzero;stroke:none;stroke-width:29.1327;stroke-linecap:round;stroke-linejoin:round;stroke-miterlimit:4;stroke-dasharray:none;stroke-dashoffset:0;stroke-opacity:1;paint-order:markers stroke fill"
         inkscape:connector-curvature="0" />
      <path
         id="path10"
         transform="matrix(0.26458333,0,0,0.26458333,0,-496.75002)"
         d="m 2795.9121,349.96875 c -24.6902,12.67003 -35.8614,40.98624 -53.4668,60.44922 -2.9128,28.27608 1.748,68.3428 -31.1973,80.80273 -10.3838,5.525 -26.9105,10.88918 -32.7832,21.44532 2.5644,4.47398 4.3351,9.20785 5.3321,13.98828 25.2055,25.12787 34.9226,68.6788 7.4336,95.73632 -12.4077,14.84217 -33.6122,17.6013 -49.1485,24.4043 -1.4629,19.95685 20.9644,34.01482 20.7051,54.92774 7.3142,47.24904 -16.6619,91.53617 -21.0371,137.85742 -2.9948,19.87204 -23.1994,31.93335 -27.6602,49.76758 -0.4273,12.53954 2.1751,24.88113 3.6778,37.29296 18.1412,-7.3014 42.2045,-17.18642 60.6406,1.01954 18.3021,18.07355 33.7003,35.17362 42.4375,37.38476 1.928,-1.16457 3.9471,-2.00552 6.041,-2.5625 1.2682,-2.41842 1.8626,-6.49153 1.6797,-12.58789 -1.0288,-34.28557 53.4278,30.32638 70.418,-13.40234 5.449,-14.02447 30.4367,0.2383 40.9609,9.75976 32.0119,28.96162 61.7676,-3.3726 95.2852,-6.77539 13.04,-1.3238 23.6884,-5.12108 32.0351,-11.04101 1.5171,-17.51827 -7.3465,-36.8605 -19.2558,-49.33985 -14.5589,-23.73426 -10.5876,-57.131 11.8847,-74.13672 0.6066,-1.92747 1.0869,-3.86535 1.4785,-5.81054 0.1,-0.91032 0.2566,-1.81357 0.4844,-2.70703 3.3627,-21.80342 -5.0844,-44.51973 -6.998,-65.92188 -15.7299,-28.05615 -38.5342,-60.09373 -23.584,-93.44726 1.5505,-27.72964 -38.1847,-26.40857 -39.0137,-53.08399 -4.2473,-16.28783 7.3951,-35.16796 3.4238,-49.45117 -33.6457,-17.82996 -44.5341,-59.13495 -37.9335,-94.36914 -0.391,-27.37561 -30.3508,-38.96927 -36.9024,-64.09375 -5.5879,-9.75224 -12.2463,-26.33636 -24.9375,-26.10547 z"
         style="opacity:1;fill:#386e34;fill-opacity:1;fill-rule:nonzero;stroke:none;stroke-width:29.1327;stroke-linecap:round;stroke-linejoin:round;stroke-miterlimit:4;stroke-dasharray:none;stroke-dashoffset:0;stroke-opacity:1;paint-order:markers stroke fill"
         inkscape:connector-curvature="0" />
      <path
         id="path11"
         transform="matrix(0.26458333,0,0,0.26458333,0,-496.75002)"
         d="m 2811.9805,460.3125 c -11.5817,31.5885 -6.0531,71.4465 -35.1309,94.85742 -8.6268,7.92571 -20.4066,13.61741 -10.541,25.63086 16.8743,47.44248 -0.3182,107.05014 -44.4766,133.4043 21.7212,61.62259 -8.6305,124.75693 -18.3359,185.01953 -4.5403,12.45938 -12.0738,23.455 -18.5977,34.91211 0.5624,0.5652 1.1127,1.11845 1.668,1.67773 14.8821,2.49605 28.2099,10.35634 42.0195,16.22461 10e-4,-0.69542 0,-1.3876 -0.019,-2.14453 -1.0288,-34.28557 53.4278,30.32638 70.418,-13.40234 5.449,-14.02447 30.4367,0.2383 40.9609,9.75976 1.4605,1.32137 2.9174,2.51119 4.3692,3.58594 8.9963,1.64392 17.8326,4.52812 26.2656,8.30664 18.7638,-0.78456 37.421,-13.13283 57.2754,-17.45898 -15.3031,-30.05964 -21.8067,-66.10805 -2.8731,-95.94532 13.6872,-17.29107 14.1332,-40.0404 3.793,-58.59765 -14.2148,-31.99098 -32.305,-65.28942 -27.8516,-101.35352 -22.7816,-15.81282 -39.3616,-42.26701 -34.6953,-71.0664 2.4047,-11.42865 2.6033,-21.4873 -8.1933,-28.14649 -25.391,-29.84492 -25.0586,-71.63442 -31.6309,-107.40625 -4.8418,-5.19466 -10.0551,-16.69779 -14.4238,-17.85742 z"
         style="opacity:1;fill:#3e7939;fill-opacity:1;fill-rule:nonzero;stroke:none;stroke-width:29.1327;stroke-linecap:round;stroke-linejoin:round;stroke-miterlimit:4;stroke-dasharray:none;stroke-dashoffset:0;stroke-opacity:1;paint-order:markers stroke fill"
         inkscape:connector-curvature="0" />
      <path
         transform="matrix(0.26458333,0,0,0.26458333,0,-496.75002)"
         id="path12"
         d="m 2783.75,649.66797 c -4.7889,9.61629 -19.4505,15.32577 -10.9688,27.49805 10.5879,48.93528 -6.4413,103.04319 -43.8183,136.51367 9.2246,49.81216 -3.1729,98.67018 -16.2988,146.79492 10.327,7.81552 16.4382,7.27803 15.9023,-10.58008 -1.0288,-34.28557 53.4278,30.32638 70.418,-13.40234 5.449,-14.02447 30.4367,0.2383 40.9609,9.75976 6.08,5.50069 12.0786,8.78584 18.0371,10.48243 2.7082,-18.98654 9.3443,-37.38055 19.666,-53.41797 -5.1934,-39.53246 -37.4537,-71.50499 -34.0605,-112.99414 -9.7122,-19.84275 -29.5787,-34.19362 -32.4356,-57.61524 -4.193,-20.12572 -0.026,-41.88238 -15.9668,-57.51953 -4.773,-7.59859 -8.264,-19.35973 -11.4355,-25.51953 z"
         style="opacity:1;fill:#488940;fill-opacity:1;fill-rule:nonzero;stroke:none;stroke-width:29.1327;stroke-linecap:round;stroke-linejoin:round;stroke-miterlimit:4;stroke-dasharray:none;stroke-dashoffset:0;stroke-opacity:1;paint-order:markers stroke fill"
         inkscape:connector-curvature="0" />
    </g>
    <g
       id="g18"
       transform="matrix(0.06801069,0,0,0.06801069,-22.318673,-137.38288)"
       style="opacity:1">
      <path
         sodipodi:nodetypes="ccccc"
         inkscape:connector-curvature="0"
         id="path13"
         d="m 734.45665,-256.24795 c -0.16992,20.84084 -1.34596,42.43625 -5.87994,56.66115 l 26.72697,2.67269 c -5.798,-21.09934 -8.01809,-33.90054 -8.01809,-59.86837 z"
         style="opacity:1;fill:#916b29;fill-opacity:1;fill-rule:nonzero;stroke:none;stroke-width:6;stroke-linecap:round;stroke-linejoin:round;stroke-miterlimit:4;stroke-dasharray:none;stroke-dashoffset:0;stroke-opacity:1;paint-order:markers stroke fill" />
      <path
         sodipodi:nodetypes="sssssssssssssssssssssss"
         inkscape:connector-curvature="0"
         id="path14"
         d="m 740.56464,-248.9698 c -4.49532,11.56989 -18.90384,-5.52522 -18.63164,3.54617 0.26306,8.76659 -5.5197,1.77128 -13.27094,-5.88316 -10.18235,-10.05523 -26.9285,12.30431 -22.12563,-6.86283 1.80576,-7.20636 -4.69076,-17.18277 1.90987,-22.40674 7.15997,-5.66664 4.80418,-15.24979 7.5759,-22.55687 3.23407,-8.52603 4.8905,-18.98118 -0.80963,-26.58655 -4.95276,-6.60822 -2.41826,-14.17718 6.14164,-15.0898 10.33989,-1.10241 12.13599,-14.35698 3.43625,-20.55518 -8.94673,-6.37417 2.00219,-15.56616 9.09739,-18.17345 10.15769,-3.73266 1.17788,-16.13401 8.41921,-22.53483 6.22199,-5.49982 10.54768,-18.07871 20.16033,-15.81664 6.13262,1.44314 7.85697,9.25547 11.43394,14.19351 3.2892,4.54076 8.73422,8.77635 8.15302,14.79496 -0.69739,7.22202 -0.92068,16.94724 7.12668,20.26164 9.85538,4.05908 -4.28894,17.10958 5.27787,21.20504 7.03893,3.0133 7.94586,9.25984 6.11936,16.98625 -1.91172,8.08705 8.50221,13.27318 8.12014,22.97452 -0.3149,7.99583 4.76151,15.57611 -3.04382,22.409 -7.05324,6.17449 5.4223,14.46178 5.57135,23.30369 0.16744,9.93245 -4.51591,16.55585 -14.61265,17.58086 -8.86818,0.90032 -16.74125,9.45533 -25.21105,1.79257 -2.78454,-2.51922 -9.39588,-6.2928 -10.83759,-2.58216 z"
         style="opacity:1;fill:#3e7738;fill-opacity:1;fill-rule:nonzero;stroke:none;stroke-width:7.70804;stroke-linecap:round;stroke-linejoin:round;stroke-miterlimit:4;stroke-dasharray:none;stroke-dashoffset:0;stroke-opacity:1;paint-order:markers stroke fill" />
      <path
         id="path15"
         transform="matrix(0.26458333,0,0,0.26458333,0,-496.75002)"
         d="m 2798.0137,281.91992 c -6.3164,-0.055 -11.992,1.66954 -17.2129,4.60742 -7.2638,11.54723 -13.6899,23.48721 -19.666,34.64649 -3.7051,18.97625 6.2247,50.34718 -20.4102,55.42187 -7.8435,3.0397 -15.6303,7.85105 -22.5078,13.84571 0.1714,15.97767 -1.392,30.58588 -20.0586,37.44531 -0.926,0.34028 -1.8711,0.71707 -2.8281,1.11523 -1.2657,9.19916 0.325,18.67476 5.9082,27.70313 18.138,10.68404 36.1093,42.23016 15.3535,58.48633 -10.6476,1.75292 -22.5433,5.782 -32.6914,11.95898 3.6968,18.73882 -4.4511,38.0405 -23.1172,44.83594 0.137,0.60444 0.2862,1.21084 0.4531,1.82422 5.8865,27.47595 33.0655,51.40149 19.2129,81.2539 -9.1074,42.66274 -13.7364,88.49063 -40.3105,124.31836 -11.9489,20.03456 -8.3577,43.40072 -3.1602,64.58985 -1.7458,20.51508 -3.635,53.96943 23.7617,57.46875 21.89,4.88092 48.4236,-22.92653 66.0606,-1.22071 14.4921,19.20798 45.2242,42.32629 66.4609,18.86328 5.5905,-7.74447 15.7949,7.05159 24.9727,5.29297 18.627,4.20703 39.8376,-2.40112 51.4433,-16.93359 22.5269,10.52288 43.8878,34.34881 71.25,22.97266 11.9883,-3.42473 23.9741,-7.09383 35.9161,-10.88672 9.4858,-11.49018 13.9397,-27.36506 13.6171,-46.5 -0.5633,-33.41825 -47.7165,-64.73952 -21.0586,-88.07618 29.5005,-25.82509 10.3157,-54.4768 11.5059,-84.69726 1.444,-36.66648 -37.9168,-56.2668 -30.6914,-86.83203 6.9033,-29.20218 3.4749,-52.81037 -23.1289,-64.19922 -36.158,-15.4789 17.3014,-64.80508 -19.9473,-80.14649 -30.4152,-12.52686 -29.5713,-49.2823 -26.9355,-76.57812 2.1966,-22.7475 -18.3829,-38.75604 -30.8145,-55.91797 -13.5192,-18.66346 -20.0364,-48.19014 -43.2148,-53.64453 -2.8384,-0.66793 -5.5547,-0.99485 -8.1621,-1.01758 z"
         style="opacity:1;fill:#34642f;fill-opacity:1;fill-rule:nonzero;stroke:none;stroke-width:29.1327;stroke-linecap:round;stroke-linejoin:round;stroke-miterlimit:4;stroke-dasharray:none;stroke-dashoffset:0;stroke-opacity:1;paint-order:markers stroke fill"
         inkscape:connector-curvature="0" />
      <path
         id="path16"
         transform="matrix(0.26458333,0,0,0.26458333,0,-496.75002)"
         d="m 2795.9121,349.96875 c -24.6902,12.67003 -35.8614,40.98624 -53.4668,60.44922 -2.9128,28.27608 1.748,68.3428 -31.1973,80.80273 -10.3838,5.525 -26.9105,10.88918 -32.7832,21.44532 2.5644,4.47398 4.3351,9.20785 5.3321,13.98828 25.2055,25.12787 34.9226,68.6788 7.4336,95.73632 -12.4077,14.84217 -33.6122,17.6013 -49.1485,24.4043 -1.4629,19.95685 20.9644,34.01482 20.7051,54.92774 7.3142,47.24904 -16.6619,91.53617 -21.0371,137.85742 -2.9948,19.87204 -23.1994,31.93335 -27.6602,49.76758 -0.4273,12.53954 2.1751,24.88113 3.6778,37.29296 18.1412,-7.3014 42.2045,-17.18642 60.6406,1.01954 18.3021,18.07355 33.7003,35.17362 42.4375,37.38476 1.928,-1.16457 3.9471,-2.00552 6.041,-2.5625 1.2682,-2.41842 1.8626,-6.49153 1.6797,-12.58789 -1.0288,-34.28557 53.4278,30.32638 70.418,-13.40234 5.449,-14.02447 30.4367,0.2383 40.9609,9.75976 32.0119,28.96162 61.7676,-3.3726 95.2852,-6.77539 13.04,-1.3238 23.6884,-5.12108 32.0351,-11.04101 1.5171,-17.51827 -7.3465,-36.8605 -19.2558,-49.33985 -14.5589,-23.73426 -10.5876,-57.131 11.8847,-74.13672 0.6066,-1.92747 1.0869,-3.86535 1.4785,-5.81054 0.1,-0.91032 0.2566,-1.81357 0.4844,-2.70703 3.3627,-21.80342 -5.0844,-44.51973 -6.998,-65.92188 -15.7299,-28.05615 -38.5342,-60.09373 -23.584,-93.44726 1.5505,-27.72964 -38.1847,-26.40857 -39.0137,-53.08399 -4.2473,-16.28783 7.3951,-35.16796 3.4238,-49.45117 -33.6457,-17.82996 -44.5341,-59.13495 -37.9335,-94.36914 -0.391,-27.37561 -30.3508,-38.96927 -36.9024,-64.09375 -5.5879,-9.75224 -12.2463,-26.33636 -24.9375,-26.10547 z"
         style="opacity:1;fill:#386e34;fill-opacity:1;fill-rule:nonzero;stroke:none;stroke-width:29.1327;stroke-linecap:round;stroke-linejoin:round;stroke-miterlimit:4;stroke-dasharray:none;stroke-dashoffset:0;stroke-opacity:1;paint-order:markers stroke fill"
         inkscape:connector-curvature="0" />
      <path
         id="path17"
         transform="matrix(0.26458333,0,0,0.26458333,0,-496.75002)"
         d="m 2811.9805,460.3125 c -11.5817,31.5885 -6.0531,71.4465 -35.1309,94.85742 -8.6268,7.92571 -20.4066,13.61741 -10.541,25.63086 16.8743,47.44248 -0.3182,107.05014 -44.4766,133.4043 21.7212,61.62259 -8.6305,124.75693 -18.3359,185.01953 -4.5403,12.45938 -12.0738,23.455 -18.5977,34.91211 0.5624,0.5652 1.1127,1.11845 1.668,1.67773 14.8821,2.49605 28.2099,10.35634 42.0195,16.22461 10e-4,-0.69542 0,-1.3876 -0.019,-2.14453 -1.0288,-34.28557 53.4278,30.32638 70.418,-13.40234 5.449,-14.02447 30.4367,0.2383 40.9609,9.75976 1.4605,1.32137 2.9174,2.51119 4.3692,3.58594 8.9963,1.64392 17.8326,4.52812 26.2656,8.30664 18.7638,-0.78456 37.421,-13.13283 57.2754,-17.45898 -15.3031,-30.05964 -21.8067,-66.10805 -2.8731,-95.94532 13.6872,-17.29107 14.1332,-40.0404 3.793,-58.59765 -14.2148,-31.99098 -32.305,-65.28942 -27.8516,-101.35352 -22.7816,-15.81282 -39.3616,-42.26701 -34.6953,-71.0664 2.4047,-11.42865 2.6033,-21.4873 -8.1933,-28.14649 -25.391,-29.84492 -25.0586,-71.63442 -31.6309,-107.40625 -4.8418,-5.19466 -10.0551,-16.69779 -14.4238,-17.85742 z"
         style="opacity:1;fill:#3e7939;fill-opacity:1;fill-rule:nonzero;stroke:none;stroke-width:29.1327;stroke-linecap:round;stroke-linejoin:round;stroke-miterlimit:4;stroke-dasharray:none;stroke-dashoffset:0;stroke-opacity:1;paint-order:markers stroke fill"
         inkscape:connector-curvature="0" />
      <path
         transform="matrix(0.26458333,0,0,0.26458333,0,-496.75002)"
         id="path18"
         d="m 2783.75,649.66797 c -4.7889,9.61629 -19.4505,15.32577 -10.9688,27.49805 10.5879,48.93528 -6.4413,103.04319 -43.8183,136.51367 9.2246,49.81216 -3.1729,98.67018 -16.2988,146.79492 10.327,7.81552 16.4382,7.27803 15.9023,-10.58008 -1.0288,-34.28557 53.4278,30.32638 70.418,-13.40234 5.449,-14.02447 30.4367,0.2383 40.9609,9.75976 6.08,5.50069 12.0786,8.78584 18.0371,10.48243 2.7082,-18.98654 9.3443,-37.38055 19.666,-53.41797 -5.1934,-39.53246 -37.4537,-71.50499 -34.0605,-112.99414 -9.7122,-19.84275 -29.5787,-34.19362 -32.4356,-57.61524 -4.193,-20.12572 -0.026,-41.88238 -15.9668,-57.51953 -4.773,-7.59859 -8.264,-19.35973 -11.4355,-25.51953 z"
         style="opacity:1;fill:#488940;fill-opacity:1;fill-rule:nonzero;stroke:none;stroke-width:29.1327;stroke-linecap:round;stroke-linejoin:round;stroke-miterlimit:4;stroke-dasharray:none;stroke-dashoffset:0;stroke-opacity:1;paint-order:markers stroke fill"
         inkscape:connector-curvature="0" />
    </g>
    <g
       id="g24"
       transform="matrix(0.10576356,0,0,0.10576356,-42.234773,-128.8386)">
      <path
         sodipodi:nodetypes="ccccc"
         inkscape:connector-curvature="0"
         id="path19"
         d="m 734.45665,-256.24795 c -0.16992,20.84084 -1.34596,42.43625 -5.87994,56.66115 l 26.72697,2.67269 c -5.798,-21.09934 -8.01809,-33.90054 -8.01809,-59.86837 z"
         style="opacity:1;fill:#916b29;fill-opacity:1;fill-rule:nonzero;stroke:none;stroke-width:6;stroke-linecap:round;stroke-linejoin:round;stroke-miterlimit:4;stroke-dasharray:none;stroke-dashoffset:0;stroke-opacity:1;paint-order:markers stroke fill" />
      <path
         sodipodi:nodetypes="sssssssssssssssssssssss"
         inkscape:connector-curvature="0"
         id="path20"
         d="m 740.56464,-248.9698 c -4.49532,11.56989 -18.90384,-5.52522 -18.63164,3.54617 0.26306,8.76659 -5.5197,1.77128 -13.27094,-5.88316 -10.18235,-10.05523 -26.9285,12.30431 -22.12563,-6.86283 1.80576,-7.20636 -4.69076,-17.18277 1.90987,-22.40674 7.15997,-5.66664 4.80418,-15.24979 7.5759,-22.55687 3.23407,-8.52603 4.8905,-18.98118 -0.80963,-26.58655 -4.95276,-6.60822 -2.41826,-14.17718 6.14164,-15.0898 10.33989,-1.10241 12.13599,-14.35698 3.43625,-20.55518 -8.94673,-6.37417 2.00219,-15.56616 9.09739,-18.17345 10.15769,-3.73266 1.17788,-16.13401 8.41921,-22.53483 6.22199,-5.49982 10.54768,-18.07871 20.16033,-15.81664 6.13262,1.44314 7.85697,9.25547 11.43394,14.19351 3.2892,4.54076 8.73422,8.77635 8.15302,14.79496 -0.69739,7.22202 -0.92068,16.94724 7.12668,20.26164 9.85538,4.05908 -4.28894,17.10958 5.27787,21.20504 7.03893,3.0133 7.94586,9.25984 6.11936,16.98625 -1.91172,8.08705 8.50221,13.27318 8.12014,22.97452 -0.3149,7.99583 4.76151,15.57611 -3.04382,22.409 -7.05324,6.17449 5.4223,14.46178 5.57135,23.30369 0.16744,9.93245 -4.51591,16.55585 -14.61265,17.58086 -8.86818,0.90032 -16.74125,9.45533 -25.21105,1.79257 -2.78454,-2.51922 -9.39588,-6.2928 -10.83759,-2.58216 z"
         style="opacity:1;fill:#3e7738;fill-opacity:1;fill-rule:nonzero;stroke:none;stroke-width:7.70804;stroke-linecap:round;stroke-linejoin:round;stroke-miterlimit:4;stroke-dasharray:none;stroke-dashoffset:0;stroke-opacity:1;paint-order:markers stroke fill" />
      <path
         id="path21"
         transform="matrix(0.26458333,0,0,0.26458333,0,-496.75002)"
         d="m 2798.0137,281.91992 c -6.3164,-0.055 -11.992,1.66954 -17.2129,4.60742 -7.2638,11.54723 -13.6899,23.48721 -19.666,34.64649 -3.7051,18.97625 6.2247,50.34718 -20.4102,55.42187 -7.8435,3.0397 -15.6303,7.85105 -22.5078,13.84571 0.1714,15.97767 -1.392,30.58588 -20.0586,37.44531 -0.926,0.34028 -1.8711,0.71707 -2.8281,1.11523 -1.2657,9.19916 0.325,18.67476 5.9082,27.70313 18.138,10.68404 36.1093,42.23016 15.3535,58.48633 -10.6476,1.75292 -22.5433,5.782 -32.6914,11.95898 3.6968,18.73882 -4.4511,38.0405 -23.1172,44.83594 0.137,0.60444 0.2862,1.21084 0.4531,1.82422 5.8865,27.47595 33.0655,51.40149 19.2129,81.2539 -9.1074,42.66274 -13.7364,88.49063 -40.3105,124.31836 -11.9489,20.03456 -8.3577,43.40072 -3.1602,64.58985 -1.7458,20.51508 -3.635,53.96943 23.7617,57.46875 21.89,4.88092 48.4236,-22.92653 66.0606,-1.22071 14.4921,19.20798 45.2242,42.32629 66.4609,18.86328 5.5905,-7.74447 15.7949,7.05159 24.9727,5.29297 18.627,4.20703 39.8376,-2.40112 51.4433,-16.93359 22.5269,10.52288 43.8878,34.34881 71.25,22.97266 11.9883,-3.42473 23.9741,-7.09383 35.9161,-10.88672 9.4858,-11.49018 13.9397,-27.36506 13.6171,-46.5 -0.5633,-33.41825 -47.7165,-64.73952 -21.0586,-88.07618 29.5005,-25.82509 10.3157,-54.4768 11.5059,-84.69726 1.444,-36.66648 -37.9168,-56.2668 -30.6914,-86.83203 6.9033,-29.20218 3.4749,-52.81037 -23.1289,-64.19922 -36.158,-15.4789 17.3014,-64.80508 -19.9473,-80.14649 -30.4152,-12.52686 -29.5713,-49.2823 -26.9355,-76.57812 2.1966,-22.7475 -18.3829,-38.75604 -30.8145,-55.91797 -13.5192,-18.66346 -20.0364,-48.19014 -43.2148,-53.64453 -2.8384,-0.66793 -5.5547,-0.99485 -8.1621,-1.01758 z"
         style="opacity:1;fill:#34642f;fill-opacity:1;fill-rule:nonzero;stroke:none;stroke-width:29.1327;stroke-linecap:round;stroke-linejoin:round;stroke-miterlimit:4;stroke-dasharray:none;stroke-dashoffset:0;stroke-opacity:1;paint-order:markers stroke fill"
         inkscape:connector-curvature="0" />
      <path
         id="path22"
         transform="matrix(0.26458333,0,0,0.26458333,0,-496.75002)"
         d="m 2795.9121,349.96875 c -24.6902,12.67003 -35.8614,40.98624 -53.4668,60.44922 -2.9128,28.27608 1.748,68.3428 -31.1973,80.80273 -10.3838,5.525 -26.9105,10.88918 -32.7832,21.44532 2.5644,4.47398 4.3351,9.20785 5.3321,13.98828 25.2055,25.12787 34.9226,68.6788 7.4336,95.73632 -12.4077,14.84217 -33.6122,17.6013 -49.1485,24.4043 -1.4629,19.95685 20.9644,34.01482 20.7051,54.92774 7.3142,47.24904 -16.6619,91.53617 -21.0371,137.85742 -2.9948,19.87204 -23.1994,31.93335 -27.6602,49.76758 -0.4273,12.53954 2.1751,24.88113 3.6778,37.29296 18.1412,-7.3014 42.2045,-17.18642 60.6406,1.01954 18.3021,18.07355 33.7003,35.17362 42.4375,37.38476 1.928,-1.16457 3.9471,-2.00552 6.041,-2.5625 1.2682,-2.41842 1.8626,-6.49153 1.6797,-12.58789 -1.0288,-34.28557 53.4278,30.32638 70.418,-13.40234 5.449,-14.02447 30.4367,0.2383 40.9609,9.75976 32.0119,28.96162 61.7676,-3.3726 95.2852,-6.77539 13.04,-1.3238 23.6884,-5.12108 32.0351,-11.04101 1.5171,-17.51827 -7.3465,-36.8605 -19.2558,-49.33985 -14.5589,-23.73426 -10.5876,-57.131 11.8847,-74.13672 0.6066,-1.92747 1.0869,-3.86535 1.4785,-5.81054 0.1,-0.91032 0.2566,-1.81357 0.4844,-2.70703 3.3627,-21.80342 -5.0844,-44.51973 -6.998,-65.92188 -15.7299,-28.05615 -38.5342,-60.09373 -23.584,-93.44726 1.5505,-27.72964 -38.1847,-26.40857 -39.0137,-53.08399 -4.2473,-16.28783 7.3951,-35.16796 3.4238,-49.45117 -33.6457,-17.82996 -44.5341,-59.13495 -37.9335,-94.36914 -0.391,-27.37561 -30.3508,-38.96927 -36.9024,-64.09375 -5.5879,-9.75224 -12.2463,-26.33636 -24.9375,-26.10547 z"
         style="opacity:1;fill:#386e34;fill-opacity:1;fill-rule:nonzero;stroke:none;stroke-width:29.1327;stroke-linecap:round;stroke-linejoin:round;stroke-miterlimit:4;stroke-dasharray:none;stroke-dashoffset:0;stroke-opacity:1;paint-order:markers stroke fill"
         inkscape:connector-curvature="0" />
      <path
         id="path23"
         transform="matrix(0.26458333,0,0,0.26458333,0,-496.75002)"
         d="m 2811.9805,460.3125 c -11.5817,31.5885 -6.0531,71.4465 -35.1309,94.85742 -8.6268,7.92571 -20.4066,13.61741 -10.541,25.63086 16.8743,47.44248 -0.3182,107.05014 -44.4766,133.4043 21.7212,61.62259 -8.6305,124.75693 -18.3359,185.01953 -4.5403,12.45938 -12.0738,23.455 -18.5977,34.91211 0.5624,0.5652 1.1127,1.11845 1.668,1.67773 14.8821,2.49605 28.2099,10.35634 42.0195,16.22461 10e-4,-0.69542 0,-1.3876 -0.019,-2.14453 -1.0288,-34.28557 53.4278,30.32638 70.418,-13.40234 5.449,-14.02447 30.4367,0.2383 40.9609,9.75976 1.4605,1.32137 2.9174,2.51119 4.3692,3.58594 8.9963,1.64392 17.8326,4.52812 26.2656,8.30664 18.7638,-0.78456 37.421,-13.13283 57.2754,-17.45898 -15.3031,-30.05964 -21.8067,-66.10805 -2.8731,-95.94532 13.6872,-17.29107 14.1332,-40.0404 3.793,-58.59765 -14.2148,-31.99098 -32.305,-65.28942 -27.8516,-101.35352 -22.7816,-15.81282 -39.3616,-42.26701 -34.6953,-71.0664 2.4047,-11.42865 2.6033,-21.4873 -8.1933,-28.14649 -25.391,-29.84492 -25.0586,-71.63442 -31.6309,-107.40625 -4.8418,-5.19466 -10.0551,-16.69779 -14.4238,-17.85742 z"
         style="opacity:1;fill:#3e7939;fill-opacity:1;fill-rule:nonzero;stroke:none;stroke-width:29.1327;stroke-linecap:round;stroke-linejoin:round;stroke-miterlimit:4;stroke-dasharray:none;stroke-dashoffset:0;stroke-opacity:1;paint-order:markers stroke fill"
         inkscape:connector-curvature="0" />
      <path
         transform="matrix(0.26458333,0,0,0.26458333,0,-496.75002)"
         id="path24"
         d="m 2783.75,649.66797 c -4.7889,9.61629 -19.4505,15.32577 -10.9688,27.49805 10.5879,48.93528 -6.4413,103.04319 -43.8183,136.51367 9.2246,49.81216 -3.1729,98.67018 -16.2988,146.79492 10.327,7.81552 16.4382,7.27803 15.9023,-10.58008 -1.0288,-34.28557 53.4278,30.32638 70.418,-13.40234 5.449,-14.02447 30.4367,0.2383 40.9609,9.75976 6.08,5.50069 12.0786,8.78584 18.0371,10.48243 2.7082,-18.98654 9.3443,-37.38055 19.666,-53.41797 -5.1934,-39.53246 -37.4537,-71.50499 -34.0605,-112.99414 -9.7122,-19.84275 -29.5787,-34.19362 -32.4356,-57.61524 -4.193,-20.12572 -0.026,-41.88238 -15.9668,-57.51953 -4.773,-7.59859 -8.264,-19.35973 -11.4355,-25.51953 z"
         style="opacity:1;fill:#488940;fill-opacity:1;fill-rule:nonzero;stroke:none;stroke-width:29.1327;stroke-linecap:round;stroke-linejoin:round;stroke-miterlimit:4;stroke-dasharray:none;stroke-dashoffset:0;stroke-opacity:1;paint-order:markers stroke fill"
         inkscape:connector-curvature="0" />
    </g>
    <g
       id="g30"
       transform="matrix(0.10576356,0,0,0.10576356,-34.463222,-126.20912)">
      <path
         sodipodi:nodetypes="ccccc"
         inkscape:connector-curvature="0"
         id="path25"
         d="m 734.45665,-256.24795 c -0.16992,20.84084 -1.34596,42.43625 -5.87994,56.66115 l 26.72697,2.67269 c -5.798,-21.09934 -8.01809,-33.90054 -8.01809,-59.86837 z"
         style="opacity:1;fill:#916b29;fill-opacity:1;fill-rule:nonzero;stroke:none;stroke-width:6;stroke-linecap:round;stroke-linejoin:round;stroke-miterlimit:4;stroke-dasharray:none;stroke-dashoffset:0;stroke-opacity:1;paint-order:markers stroke fill" />
      <path
         sodipodi:nodetypes="sssssssssssssssssssssss"
         inkscape:connector-curvature="0"
         id="path26"
         d="m 740.56464,-248.9698 c -4.49532,11.56989 -18.90384,-5.52522 -18.63164,3.54617 0.26306,8.76659 -5.5197,1.77128 -13.27094,-5.88316 -10.18235,-10.05523 -26.9285,12.30431 -22.12563,-6.86283 1.80576,-7.20636 -4.69076,-17.18277 1.90987,-22.40674 7.15997,-5.66664 4.80418,-15.24979 7.5759,-22.55687 3.23407,-8.52603 4.8905,-18.98118 -0.80963,-26.58655 -4.95276,-6.60822 -2.41826,-14.17718 6.14164,-15.0898 10.33989,-1.10241 12.13599,-14.35698 3.43625,-20.55518 -8.94673,-6.37417 2.00219,-15.56616 9.09739,-18.17345 10.15769,-3.73266 1.17788,-16.13401 8.41921,-22.53483 6.22199,-5.49982 10.54768,-18.07871 20.16033,-15.81664 6.13262,1.44314 7.85697,9.25547 11.43394,14.19351 3.2892,4.54076 8.73422,8.77635 8.15302,14.79496 -0.69739,7.22202 -0.92068,16.94724 7.12668,20.26164 9.85538,4.05908 -4.28894,17.10958 5.27787,21.20504 7.03893,3.0133 7.94586,9.25984 6.11936,16.98625 -1.91172,8.08705 8.50221,13.27318 8.12014,22.97452 -0.3149,7.99583 4.76151,15.57611 -3.04382,22.409 -7.05324,6.17449 5.4223,14.46178 5.57135,23.30369 0.16744,9.93245 -4.51591,16.55585 -14.61265,17.58086 -8.86818,0.90032 -16.74125,9.45533 -25.21105,1.79257 -2.78454,-2.51922 -9.39588,-6.2928 -10.83759,-2.58216 z"
         style="opacity:1;fill:#3e7738;fill-opacity:1;fill-rule:nonzero;stroke:none;stroke-width:7.70804;stroke-linecap:round;stroke-linejoin:round;stroke-miterlimit:4;stroke-dasharray:none;stroke-dashoffset:0;stroke-opacity:1;paint-order:markers stroke fill" />
      <path
         id="path27"
         transform="matrix(0.26458333,0,0,0.26458333,0,-496.75002)"
         d="m 2798.0137,281.91992 c -6.3164,-0.055 -11.992,1.66954 -17.2129,4.60742 -7.2638,11.54723 -13.6899,23.48721 -19.666,34.64649 -3.7051,18.97625 6.2247,50.34718 -20.4102,55.42187 -7.8435,3.0397 -15.6303,7.85105 -22.5078,13.84571 0.1714,15.97767 -1.392,30.58588 -20.0586,37.44531 -0.926,0.34028 -1.8711,0.71707 -2.8281,1.11523 -1.2657,9.19916 0.325,18.67476 5.9082,27.70313 18.138,10.68404 36.1093,42.23016 15.3535,58.48633 -10.6476,1.75292 -22.5433,5.782 -32.6914,11.95898 3.6968,18.73882 -4.4511,38.0405 -23.1172,44.83594 0.137,0.60444 0.2862,1.21084 0.4531,1.82422 5.8865,27.47595 33.0655,51.40149 19.2129,81.2539 -9.1074,42.66274 -13.7364,88.49063 -40.3105,124.31836 -11.9489,20.03456 -8.3577,43.40072 -3.1602,64.58985 -1.7458,20.51508 -3.635,53.96943 23.7617,57.46875 21.89,4.88092 48.4236,-22.92653 66.0606,-1.22071 14.4921,19.20798 45.2242,42.32629 66.4609,18.86328 5.5905,-7.74447 15.7949,7.05159 24.9727,5.29297 18.627,4.20703 39.8376,-2.40112 51.4433,-16.93359 22.5269,10.52288 43.8878,34.34881 71.25,22.97266 11.9883,-3.42473 23.9741,-7.09383 35.9161,-10.88672 9.4858,-11.49018 13.9397,-27.36506 13.6171,-46.5 -0.5633,-33.41825 -47.7165,-64.73952 -21.0586,-88.07618 29.5005,-25.82509 10.3157,-54.4768 11.5059,-84.69726 1.444,-36.66648 -37.9168,-56.2668 -30.6914,-86.83203 6.9033,-29.20218 3.4749,-52.81037 -23.1289,-64.19922 -36.158,-15.4789 17.3014,-64.80508 -19.9473,-80.14649 -30.4152,-12.52686 -29.5713,-49.2823 -26.9355,-76.57812 2.1966,-22.7475 -18.3829,-38.75604 -30.8145,-55.91797 -13.5192,-18.66346 -20.0364,-48.19014 -43.2148,-53.64453 -2.8384,-0.66793 -5.5547,-0.99485 -8.1621,-1.01758 z"
         style="opacity:1;fill:#34642f;fill-opacity:1;fill-rule:nonzero;stroke:none;stroke-width:29.1327;stroke-linecap:round;stroke-linejoin:round;stroke-miterlimit:4;stroke-dasharray:none;stroke-dashoffset:0;stroke-opacity:1;paint-order:markers stroke fill"
         inkscape:connector-curvature="0" />
      <path
         id="path28"
         transform="matrix(0.26458333,0,0,0.26458333,0,-496.75002)"
         d="m 2795.9121,349.96875 c -24.6902,12.67003 -35.8614,40.98624 -53.4668,60.44922 -2.9128,28.27608 1.748,68.3428 -31.1973,80.80273 -10.3838,5.525 -26.9105,10.88918 -32.7832,21.44532 2.5644,4.47398 4.3351,9.20785 5.3321,13.98828 25.2055,25.12787 34.9226,68.6788 7.4336,95.73632 -12.4077,14.84217 -33.6122,17.6013 -49.1485,24.4043 -1.4629,19.95685 20.9644,34.01482 20.7051,54.92774 7.3142,47.24904 -16.6619,91.53617 -21.0371,137.85742 -2.9948,19.87204 -23.1994,31.93335 -27.6602,49.76758 -0.4273,12.53954 2.1751,24.88113 3.6778,37.29296 18.1412,-7.3014 42.2045,-17.18642 60.6406,1.01954 18.3021,18.07355 33.7003,35.17362 42.4375,37.38476 1.928,-1.16457 3.9471,-2.00552 6.041,-2.5625 1.2682,-2.41842 1.8626,-6.49153 1.6797,-12.58789 -1.0288,-34.28557 53.4278,30.32638 70.418,-13.40234 5.449,-14.02447 30.4367,0.2383 40.9609,9.75976 32.0119,28.96162 61.7676,-3.3726 95.2852,-6.77539 13.04,-1.3238 23.6884,-5.12108 32.0351,-11.04101 1.5171,-17.51827 -7.3465,-36.8605 -19.2558,-49.33985 -14.5589,-23.73426 -10.5876,-57.131 11.8847,-74.13672 0.6066,-1.92747 1.0869,-3.86535 1.4785,-5.81054 0.1,-0.91032 0.2566,-1.81357 0.4844,-2.70703 3.3627,-21.80342 -5.0844,-44.51973 -6.998,-65.92188 -15.7299,-28.05615 -38.5342,-60.09373 -23.584,-93.44726 1.5505,-27.72964 -38.1847,-26.40857 -39.0137,-53.08399 -4.2473,-16.28783 7.3951,-35.16796 3.4238,-49.45117 -33.6457,-17.82996 -44.5341,-59.13495 -37.9335,-94.36914 -0.391,-27.37561 -30.3508,-38.96927 -36.9024,-64.09375 -5.5879,-9.75224 -12.2463,-26.33636 -24.9375,-26.10547 z"
         style="opacity:1;fill:#386e34;fill-opacity:1;fill-rule:nonzero;stroke:none;stroke-width:29.1327;stroke-linecap:round;stroke-linejoin:round;stroke-miterlimit:4;stroke-dasharray:none;stroke-dashoffset:0;stroke-opacity:1;paint-order:markers stroke fill"
         inkscape:connector-curvature="0" />
      <path
         id="path29"
         transform="matrix(0.26458333,0,0,0.26458333,0,-496.75002)"
         d="m 2811.9805,460.3125 c -11.5817,31.5885 -6.0531,71.4465 -35.1309,94.85742 -8.6268,7.92571 -20.4066,13.61741 -10.541,25.63086 16.8743,47.44248 -0.3182,107.05014 -44.4766,133.4043 21.7212,61.62259 -8.6305,124.75693 -18.3359,185.01953 -4.5403,12.45938 -12.0738,23.455 -18.5977,34.91211 0.5624,0.5652 1.1127,1.11845 1.668,1.67773 14.8821,2.49605 28.2099,10.35634 42.0195,16.22461 10e-4,-0.69542 0,-1.3876 -0.019,-2.14453 -1.0288,-34.28557 53.4278,30.32638 70.418,-13.40234 5.449,-14.02447 30.4367,0.2383 40.9609,9.75976 1.4605,1.32137 2.9174,2.51119 4.3692,3.58594 8.9963,1.64392 17.8326,4.52812 26.2656,8.30664 18.7638,-0.78456 37.421,-13.13283 57.2754,-17.45898 -15.3031,-30.05964 -21.8067,-66.10805 -2.8731,-95.94532 13.6872,-17.29107 14.1332,-40.0404 3.793,-58.59765 -14.2148,-31.99098 -32.305,-65.28942 -27.8516,-101.35352 -22.7816,-15.81282 -39.3616,-42.26701 -34.6953,-71.0664 2.4047,-11.42865 2.6033,-21.4873 -8.1933,-28.14649 -25.391,-29.84492 -25.0586,-71.63442 -31.6309,-107.40625 -4.8418,-5.19466 -10.0551,-16.69779 -14.4238,-17.85742 z"
         style="opacity:1;fill:#3e7939;fill-opacity:1;fill-rule:nonzero;stroke:none;stroke-width:29.1327;stroke-linecap:round;stroke-linejoin:round;stroke-miterlimit:4;stroke-dasharray:none;stroke-dashoffset:0;stroke-opacity:1;paint-order:markers stroke fill"
         inkscape:connector-curvature="0" />
      <path
         transform="matrix(0.26458333,0,0,0.26458333,0,-496.75002)"
         id="path30"
         d="m 2783.75,649.66797 c -4.7889,9.61629 -19.4505,15.32577 -10.9688,27.49805 10.5879,48.93528 -6.4413,103.04319 -43.8183,136.51367 9.2246,49.81216 -3.1729,98.67018 -16.2988,146.79492 10.327,7.81552 16.4382,7.27803 15.9023,-10.58008 -1.0288,-34.28557 53.4278,30.32638 70.418,-13.40234 5.449,-14.02447 30.4367,0.2383 40.9609,9.75976 6.08,5.50069 12.0786,8.78584 18.0371,10.48243 2.7082,-18.98654 9.3443,-37.38055 19.666,-53.41797 -5.1934,-39.53246 -37.4537,-71.50499 -34.0605,-112.99414 -9.7122,-19.84275 -29.5787,-34.19362 -32.4356,-57.61524 -4.193,-20.12572 -0.026,-41.88238 -15.9668,-57.51953 -4.773,-7.59859 -8.264,-19.35973 -11.4355,-25.51953 z"
         style="opacity:1;fill:#488940;fill-opacity:1;fill-rule:nonzero;stroke:none;stroke-width:29.1327;stroke-linecap:round;stroke-linejoin:round;stroke-miterlimit:4;stroke-dasharray:none;stroke-dashoffset:0;stroke-opacity:1;paint-order:markers stroke fill"
         inkscape:connector-curvature="0" />
    </g>
    <g
       id="g36"
       transform="matrix(0.10576356,0,0,0.10576356,-57.953174,-126.67658)">
      <path
         sodipodi:nodetypes="ccccc"
         inkscape:connector-curvature="0"
         id="path31"
         d="m 734.45665,-256.24795 c -0.16992,20.84084 -1.34596,42.43625 -5.87994,56.66115 l 26.72697,2.67269 c -5.798,-21.09934 -8.01809,-33.90054 -8.01809,-59.86837 z"
         style="opacity:1;fill:#916b29;fill-opacity:1;fill-rule:nonzero;stroke:none;stroke-width:6;stroke-linecap:round;stroke-linejoin:round;stroke-miterlimit:4;stroke-dasharray:none;stroke-dashoffset:0;stroke-opacity:1;paint-order:markers stroke fill" />
      <path
         sodipodi:nodetypes="sssssssssssssssssssssss"
         inkscape:connector-curvature="0"
         id="path32"
         d="m 740.56464,-248.9698 c -4.49532,11.56989 -18.90384,-5.52522 -18.63164,3.54617 0.26306,8.76659 -5.5197,1.77128 -13.27094,-5.88316 -10.18235,-10.05523 -26.9285,12.30431 -22.12563,-6.86283 1.80576,-7.20636 -4.69076,-17.18277 1.90987,-22.40674 7.15997,-5.66664 4.80418,-15.24979 7.5759,-22.55687 3.23407,-8.52603 4.8905,-18.98118 -0.80963,-26.58655 -4.95276,-6.60822 -2.41826,-14.17718 6.14164,-15.0898 10.33989,-1.10241 12.13599,-14.35698 3.43625,-20.55518 -8.94673,-6.37417 2.00219,-15.56616 9.09739,-18.17345 10.15769,-3.73266 1.17788,-16.13401 8.41921,-22.53483 6.22199,-5.49982 10.54768,-18.07871 20.16033,-15.81664 6.13262,1.44314 7.85697,9.25547 11.43394,14.19351 3.2892,4.54076 8.73422,8.77635 8.15302,14.79496 -0.69739,7.22202 -0.92068,16.94724 7.12668,20.26164 9.85538,4.05908 -4.28894,17.10958 5.27787,21.20504 7.03893,3.0133 7.94586,9.25984 6.11936,16.98625 -1.91172,8.08705 8.50221,13.27318 8.12014,22.97452 -0.3149,7.99583 4.76151,15.57611 -3.04382,22.409 -7.05324,6.17449 5.4223,14.46178 5.57135,23.30369 0.16744,9.93245 -4.51591,16.55585 -14.61265,17.58086 -8.86818,0.90032 -16.74125,9.45533 -25.21105,1.79257 -2.78454,-2.51922 -9.39588,-6.2928 -10.83759,-2.58216 z"
         style="opacity:1;fill:#3e7738;fill-opacity:1;fill-rule:nonzero;stroke:none;stroke-width:7.70804;stroke-linecap:round;stroke-linejoin:round;stroke-miterlimit:4;stroke-dasharray:none;stroke-dashoffset:0;stroke-opacity:1;paint-order:markers stroke fill" />
      <path
         id="path33"
         transform="matrix(0.26458333,0,0,0.26458333,0,-496.75002)"
         d="m 2798.0137,281.91992 c -6.3164,-0.055 -11.992,1.66954 -17.2129,4.60742 -7.2638,11.54723 -13.6899,23.48721 -19.666,34.64649 -3.7051,18.97625 6.2247,50.34718 -20.4102,55.42187 -7.8435,3.0397 -15.6303,7.85105 -22.5078,13.84571 0.1714,15.97767 -1.392,30.58588 -20.0586,37.44531 -0.926,0.34028 -1.8711,0.71707 -2.8281,1.11523 -1.2657,9.19916 0.325,18.67476 5.9082,27.70313 18.138,10.68404 36.1093,42.23016 15.3535,58.48633 -10.6476,1.75292 -22.5433,5.782 -32.6914,11.95898 3.6968,18.73882 -4.4511,38.0405 -23.1172,44.83594 0.137,0.60444 0.2862,1.21084 0.4531,1.82422 5.8865,27.47595 33.0655,51.40149 19.2129,81.2539 -9.1074,42.66274 -13.7364,88.49063 -40.3105,124.31836 -11.9489,20.03456 -8.3577,43.40072 -3.1602,64.58985 -1.7458,20.51508 -3.635,53.96943 23.7617,57.46875 21.89,4.88092 48.4236,-22.92653 66.0606,-1.22071 14.4921,19.20798 45.2242,42.32629 66.4609,18.86328 5.5905,-7.74447 15.7949,7.05159 24.9727,5.29297 18.627,4.20703 39.8376,-2.40112 51.4433,-16.93359 22.5269,10.52288 43.8878,34.34881 71.25,22.97266 11.9883,-3.42473 23.9741,-7.09383 35.9161,-10.88672 9.4858,-11.49018 13.9397,-27.36506 13.6171,-46.5 -0.5633,-33.41825 -47.7165,-64.73952 -21.0586,-88.07618 29.5005,-25.82509 10.3157,-54.4768 11.5059,-84.69726 1.444,-36.66648 -37.9168,-56.2668 -30.6914,-86.83203 6.9033,-29.20218 3.4749,-52.81037 -23.1289,-64.19922 -36.158,-15.4789 17.3014,-64.80508 -19.9473,-80.14649 -30.4152,-12.52686 -29.5713,-49.2823 -26.9355,-76.57812 2.1966,-22.7475 -18.3829,-38.75604 -30.8145,-55.91797 -13.5192,-18.66346 -20.0364,-48.19014 -43.2148,-53.64453 -2.8384,-0.66793 -5.5547,-0.99485 -8.1621,-1.01758 z"
         style="opacity:1;fill:#34642f;fill-opacity:1;fill-rule:nonzero;stroke:none;stroke-width:29.1327;stroke-linecap:round;stroke-linejoin:round;stroke-miterlimit:4;stroke-dasharray:none;stroke-dashoffset:0;stroke-opacity:1;paint-order:markers stroke fill"
         inkscape:connector-curvature="0" />
      <path
         id="path34"
         transform="matrix(0.26458333,0,0,0.26458333,0,-496.75002)"
         d="m 2795.9121,349.96875 c -24.6902,12.67003 -35.8614,40.98624 -53.4668,60.44922 -2.9128,28.27608 1.748,68.3428 -31.1973,80.80273 -10.3838,5.525 -26.9105,10.88918 -32.7832,21.44532 2.5644,4.47398 4.3351,9.20785 5.3321,13.98828 25.2055,25.12787 34.9226,68.6788 7.4336,95.73632 -12.4077,14.84217 -33.6122,17.6013 -49.1485,24.4043 -1.4629,19.95685 20.9644,34.01482 20.7051,54.92774 7.3142,47.24904 -16.6619,91.53617 -21.0371,137.85742 -2.9948,19.87204 -23.1994,31.93335 -27.6602,49.76758 -0.4273,12.53954 2.1751,24.88113 3.6778,37.29296 18.1412,-7.3014 42.2045,-17.18642 60.6406,1.01954 18.3021,18.07355 33.7003,35.17362 42.4375,37.38476 1.928,-1.16457 3.9471,-2.00552 6.041,-2.5625 1.2682,-2.41842 1.8626,-6.49153 1.6797,-12.58789 -1.0288,-34.28557 53.4278,30.32638 70.418,-13.40234 5.449,-14.02447 30.4367,0.2383 40.9609,9.75976 32.0119,28.96162 61.7676,-3.3726 95.2852,-6.77539 13.04,-1.3238 23.6884,-5.12108 32.0351,-11.04101 1.5171,-17.51827 -7.3465,-36.8605 -19.2558,-49.33985 -14.5589,-23.73426 -10.5876,-57.131 11.8847,-74.13672 0.6066,-1.92747 1.0869,-3.86535 1.4785,-5.81054 0.1,-0.91032 0.2566,-1.81357 0.4844,-2.70703 3.3627,-21.80342 -5.0844,-44.51973 -6.998,-65.92188 -15.7299,-28.05615 -38.5342,-60.09373 -23.584,-93.44726 1.5505,-27.72964 -38.1847,-26.40857 -39.0137,-53.08399 -4.2473,-16.28783 7.3951,-35.16796 3.4238,-49.45117 -33.6457,-17.82996 -44.5341,-59.13495 -37.9335,-94.36914 -0.391,-27.37561 -30.3508,-38.96927 -36.9024,-64.09375 -5.5879,-9.75224 -12.2463,-26.33636 -24.9375,-26.10547 z"
         style="opacity:1;fill:#386e34;fill-opacity:1;fill-rule:nonzero;stroke:none;stroke-width:29.1327;stroke-linecap:round;stroke-linejoin:round;stroke-miterlimit:4;stroke-dasharray:none;stroke-dashoffset:0;stroke-opacity:1;paint-order:markers stroke fill"
         inkscape:connector-curvature="0" />
      <path
         id="path35"
         transform="matrix(0.26458333,0,0,0.26458333,0,-496.75002)"
         d="m 2811.9805,460.3125 c -11.5817,31.5885 -6.0531,71.4465 -35.1309,94.85742 -8.6268,7.92571 -20.4066,13.61741 -10.541,25.63086 16.8743,47.44248 -0.3182,107.05014 -44.4766,133.4043 21.7212,61.62259 -8.6305,124.75693 -18.3359,185.01953 -4.5403,12.45938 -12.0738,23.455 -18.5977,34.91211 0.5624,0.5652 1.1127,1.11845 1.668,1.67773 14.8821,2.49605 28.2099,10.35634 42.0195,16.22461 10e-4,-0.69542 0,-1.3876 -0.019,-2.14453 -1.0288,-34.28557 53.4278,30.32638 70.418,-13.40234 5.449,-14.02447 30.4367,0.2383 40.9609,9.75976 1.4605,1.32137 2.9174,2.51119 4.3692,3.58594 8.9963,1.64392 17.8326,4.52812 26.2656,8.30664 18.7638,-0.78456 37.421,-13.13283 57.2754,-17.45898 -15.3031,-30.05964 -21.8067,-66.10805 -2.8731,-95.94532 13.6872,-17.29107 14.1332,-40.0404 3.793,-58.59765 -14.2148,-31.99098 -32.305,-65.28942 -27.8516,-101.35352 -22.7816,-15.81282 -39.3616,-42.26701 -34.6953,-71.0664 2.4047,-11.42865 2.6033,-21.4873 -8.1933,-28.14649 -25.391,-29.84492 -25.0586,-71.63442 -31.6309,-107.40625 -4.8418,-5.19466 -10.0551,-16.69779 -14.4238,-17.85742 z"
         style="opacity:1;fill:#3e7939;fill-opacity:1;fill-rule:nonzero;stroke:none;stroke-width:29.1327;stroke-linecap:round;stroke-linejoin:round;stroke-miterlimit:4;stroke-dasharray:none;stroke-dashoffset:0;stroke-opacity:1;paint-order:markers stroke fill"
         inkscape:connector-curvature="0" />
      <path
         transform="matrix(0.26458333,0,0,0.26458333,0,-496.75002)"
         id="path36"
         d="m 2783.75,649.66797 c -4.7889,9.61629 -19.4505,15.32577 -10.9688,27.49805 10.5879,48.93528 -6.4413,103.04319 -43.8183,136.51367 9.2246,49.81216 -3.1729,98.67018 -16.2988,146.79492 10.327,7.81552 16.4382,7.27803 15.9023,-10.58008 -1.0288,-34.28557 53.4278,30.32638 70.418,-13.40234 5.449,-14.02447 30.4367,0.2383 40.9609,9.75976 6.08,5.50069 12.0786,8.78584 18.0371,10.48243 2.7082,-18.98654 9.3443,-37.38055 19.666,-53.41797 -5.1934,-39.53246 -37.4537,-71.50499 -34.0605,-112.99414 -9.7122,-19.84275 -29.5787,-34.19362 -32.4356,-57.61524 -4.193,-20.12572 -0.026,-41.88238 -15.9668,-57.51953 -4.773,-7.59859 -8.264,-19.35973 -11.4355,-25.51953 z"
         style="opacity:1;fill:#488940;fill-opacity:1;fill-rule:nonzero;stroke:none;stroke-width:29.1327;stroke-linecap:round;stroke-linejoin:round;stroke-miterlimit:4;stroke-dasharray:none;stroke-dashoffset:0;stroke-opacity:1;paint-order:markers stroke fill"
         inkscape:connector-curvature="0" />
    </g>
    <path
       style="opacity:1;fill:#fe9900;fill-opacity:1;stroke-width:0.162796;stroke-linecap:round;stroke-linejoin:round;paint-order:markers stroke fill"
       d="m 9.5244757,-167.56297 c -0.010166,2.15521 2.5407623,3.39445 3.5977193,1.13826 1.056957,-2.2562 -0.548805,-2.76435 0.06098,-5.26446 -0.89574,1.16386 -1.207915,1.42454 -1.727719,3.17087 0.0813,-3.55707 0.26424,-3.47576 0.83337,-5.12218 -1.890327,1.87 -2.7541828,3.92229 -2.7643493,6.07751 z"
       id="path43"
       sodipodi:nodetypes="zscccz" />
    <path
       style="opacity:1;fill:#ff4400;fill-opacity:1;stroke-width:0.138457;stroke-linecap:round;stroke-linejoin:round;paint-order:markers stroke fill"
       d="m 12.543316,-165.52912 c 0,3.30186 4.546546,3.87234 4.857716,1.45213 0.311171,-2.42022 -0.05186,-2.67953 0.311171,-4.4774 -1.054523,1.41755 -1.331119,2.42021 -1.331119,2.42021 0,0 -0.8125,-3.21543 0.172874,-5.49734 -1.676864,1.625 -2.230056,3.40558 -2.230056,3.40558 0,0 -1.244682,-0.93351 -0.622341,-1.91888 -1.365692,0.69149 -1.158245,3.00798 -1.158245,4.6157 z"
       id="path44" />
    <path
       style="opacity:1;fill:#ff4400;fill-opacity:1;stroke-width:0.138457;stroke-linecap:round;stroke-linejoin:round;paint-order:markers stroke fill"
       d="m 11.278855,-157.94143 c 0.957536,3.15997 5.47414,2.38745 5.070078,-0.019 -0.404059,-2.40646 -0.826688,-2.54935 -1.00064,-4.37524 -0.598117,1.66245 -0.572058,2.70223 -0.572058,2.70223 0,0 -1.710054,-2.84163 -1.428778,-5.31123 -1.133556,2.04146 -1.14661,3.90594 -1.14661,3.90594 0,0 -1.461915,-0.53243 -1.15207,-1.65594 -1.10647,1.05782 -0.23616,3.21461 0.230078,4.75323 z"
       id="path45" />
    <path
       style="opacity:1;fill:#ff4400;fill-opacity:1;stroke-width:0.138457;stroke-linecap:round;stroke-linejoin:round;paint-order:markers stroke fill"
       d="m 27.806123,-165.04816 c 0.957536,3.15997 5.47414,2.38745 5.070078,-0.019 -0.404059,-2.40646 -0.826688,-2.54935 -1.00064,-4.37524 -0.598117,1.66245 -0.572058,2.70223 -0.572058,2.70223 0,0 -1.710054,-2.84163 -1.428778,-5.31123 -1.133556,2.04146 -1.14661,3.90594 -1.14661,3.90594 0,0 -1.461915,-0.53243 -1.15207,-1.65594 -1.10647,1.05782 -0.23616,3.21461 0.230078,4.75323 z"
       id="path46" />
    <path
       style="opacity:1;fill:#fe9900;fill-opacity:1;stroke-width:0.162796;stroke-linecap:round;stroke-linejoin:round;paint-order:markers stroke fill"
       d="m 25.88647,-165.49706 c -0.01017,2.15521 2.540763,3.39445 3.59772,1.13826 1.056957,-2.2562 -0.548805,-2.76435 0.06098,-5.26446 -0.89574,1.16386 -1.207915,1.42454 -1.727719,3.17087 0.0813,-3.55707 0.26424,-3.47576 0.83337,-5.12218 -1.890327,1.87 -2.754183,3.92229 -2.764351,6.07751 z"
       id="path47"
       sodipodi:nodetypes="zscccz" />
    <path
       style="opacity:1;fill:#fe9900;fill-opacity:1;stroke-width:0.162796;stroke-linecap:round;stroke-linejoin:round;paint-order:markers stroke fill"
       d="m 38.116648,-164.42279 c -0.01017,2.15521 2.540763,3.39445 3.59772,1.13826 1.056957,-2.2562 -0.548805,-2.76435 0.06098,-5.26446 -0.89574,1.16386 -1.207915,1.42454 -1.727719,3.17087 0.0813,-3.55707 0.26424,-3.47576 0.83337,-5.12218 -1.890327,1.87 -2.754183,3.92229 -2.764351,6.07751 z"
       id="path48"
       sodipodi:nodetypes="zscccz" />
    <path
       style="opacity:1;fill:#fe9900;fill-opacity:1;stroke-width:0.162796;stroke-linecap:round;stroke-linejoin:round;paint-order:markers stroke fill"
       d="m 31.547059,-159.05143 c -0.01017,2.15521 2.540763,3.39445 3.59772,1.13826 1.056957,-2.2562 -0.548805,-2.76435 0.06098,-5.26446 -0.89574,1.16386 -1.207915,1.42454 -1.727719,3.17087 0.0813,-3.55707 0.26424,-3.47576 0.83337,-5.12218 -1.890327,1.87 -2.754183,3.92229 -2.764351,6.07751 z"
       id="path49"
       sodipodi:nodetypes="zscccz" />
    <path
       style="opacity:1;fill:#fe9900;fill-opacity:1;stroke-width:0.162796;stroke-linecap:round;stroke-linejoin:round;paint-order:markers stroke fill"
       d="m 21.506744,-165.82761 c -0.01017,2.15521 2.540763,3.39445 3.59772,1.13826 1.056957,-2.2562 -0.548805,-2.76435 0.06098,-5.26446 -0.89574,1.16386 -1.207915,1.42454 -1.727719,3.17087 0.0813,-3.55707 0.26424,-3.47576 0.83337,-5.12218 -1.890327,1.87 -2.754183,3.92229 -2.764351,6.07751 z"
       id="path50"
       sodipodi:nodetypes="zscccz" />
    <path
       style="opacity:1;fill:#fab900;fill-opacity:1;stroke-width:0.116342;stroke-linecap:round;stroke-linejoin:round;paint-order:markers stroke fill"
       d="m 20.328539,-168.19834 c 0,1.3661 1.807769,1.30446 1.96184,0.32868 0.154071,-0.97578 -0.616285,-2.18781 -0.400585,-3.42038 -1.191484,1.5818 -1.561255,1.91049 -1.561255,3.0917 z"
       id="path51" />
    <path
       style="opacity:1;fill:#fab900;fill-opacity:1;stroke-width:0.116342;stroke-linecap:round;stroke-linejoin:round;paint-order:markers stroke fill"
       d="m 18.345267,-162.70303 c 0,1.3661 1.807769,1.30446 1.96184,0.32868 0.154071,-0.97578 -0.616285,-2.18781 -0.400585,-3.42038 -1.191484,1.5818 -1.561255,1.91049 -1.561255,3.0917 z"
       id="path52" />
    <path
       style="opacity:1;fill:#ff6200;fill-opacity:1;stroke-width:0.138457;stroke-linecap:round;stroke-linejoin:round;paint-order:markers stroke fill"
       d="m 35.266561,-161.26316 c -0.845777,3.1917 3.402945,4.90776 4.323675,2.648 0.920738,-2.25977 0.636244,-2.60342 1.447689,-4.24832 -1.38245,1.10014 -1.906649,1.9985 -1.906649,1.9985 0,0 0.03825,-3.31628 1.575256,-5.26965 -2.037166,1.14126 -3.027997,2.72072 -3.027997,2.72072 0,0 -0.964042,-1.22118 -0.110054,-2.01427 -1.49725,0.31859 -1.890101,2.61094 -2.301915,4.16501 z"
       id="path53" />
    <path
       style="opacity:1;fill:#ff6200;fill-opacity:1;stroke-width:0.138457;stroke-linecap:round;stroke-linejoin:round;paint-order:markers stroke fill"
       d="m 20.474656,-159.48648 c -0.845777,3.1917 3.402945,4.90776 4.323675,2.648 0.920738,-2.25977 0.636244,-2.60342 1.447689,-4.24832 -1.38245,1.10014 -1.906649,1.9985 -1.906649,1.9985 0,0 0.03825,-3.31628 1.575256,-5.26965 -2.037166,1.14126 -3.027997,2.72072 -3.027997,2.72072 0,0 -0.964042,-1.22118 -0.110054,-2.01427 -1.49725,0.31859 -1.890101,2.61094 -2.301915,4.16501 z"
       id="path54" />
    <path
       style="opacity:1;fill:#fab900;fill-opacity:1;stroke-width:0.162796;stroke-linecap:round;stroke-linejoin:round;paint-order:markers stroke fill"
       d="m 34.067467,-162.81139 c -0.01017,2.15521 2.540763,3.39445 3.59772,1.13826 1.056957,-2.2562 -0.548805,-2.76435 0.06098,-5.26446 -0.89574,1.16386 -1.207915,1.42454 -1.727719,3.17087 0.0813,-3.55707 0.26424,-3.47576 0.83337,-5.12218 -1.890327,1.87 -2.754183,3.92229 -2.764351,6.07751 z"
       id="path55"
       sodipodi:nodetypes="zscccz" />
    <path
       style="opacity:1;fill:#fab900;fill-opacity:1;stroke-width:0.162796;stroke-linecap:round;stroke-linejoin:round;paint-order:markers stroke fill"
       d="m 32.621331,-168.14143 c -0.01017,2.15521 2.540763,3.39445 3.59772,1.13826 1.056957,-2.2562 -0.548805,-2.76435 0.06098,-5.26446 -0.89574,1.16386 -1.207915,1.42454 -1.727719,3.17087 0.0813,-3.55707 0.26424,-3.47576 0.83337,-5.12218 -1.890327,1.87 -2.754183,3.92229 -2.764351,6.07751 z"
       id="path56"
       sodipodi:nodetypes="zscccz" />
    <path
       style="opacity:1;fill:#fab900;fill-opacity:1;stroke-width:0.162796;stroke-linecap:round;stroke-linejoin:round;paint-order:markers stroke fill"
       d="m 4.4010216,-160.95207 c -0.01017,2.15521 2.540763,3.39445 3.59772,1.13826 1.056957,-2.2562 -0.548805,-2.76435 0.06098,-5.26446 -0.89574,1.16386 -1.207915,1.42454 -1.727719,3.17087 0.0813,-3.55707 0.26424,-3.47576 0.83337,-5.12218 -1.890327,1.87 -2.754183,3.92229 -2.764351,6.07751 z"
       id="path57"
       sodipodi:nodetypes="zscccz" />
    <path
       style="opacity:1;fill:#fab900;fill-opacity:1;stroke-width:0.162796;stroke-linecap:round;stroke-linejoin:round;paint-order:markers stroke fill"
       d="m 44.520964,-160.12571 c -0.01017,2.15521 2.540763,3.39445 3.59772,1.13826 1.056957,-2.2562 -0.548805,-2.76435 0.06098,-5.26446 -0.89574,1.16386 -1.207915,1.42454 -1.727719,3.17087 0.0813,-3.55707 0.26424,-3.47576 0.83337,-5.12218 -1.890327,1.87 -2.754183,3.92229 -2.764351,6.07751 z"
       id="path58"
       sodipodi:nodetypes="zscccz" />
    <path
       style="opacity:1;fill:#fab900;fill-opacity:1;stroke-width:0.116342;stroke-linecap:round;stroke-linejoin:round;paint-order:markers stroke fill"
       d="m 26.195719,-161.42216 c 0,1.3661 1.807769,1.30446 1.96184,0.32868 0.154071,-0.97578 -0.616285,-2.18781 -0.400585,-3.42038 -1.191484,1.5818 -1.561255,1.91049 -1.561255,3.0917 z"
       id="path59" />
    <path
       style="opacity:1;fill:#fab900;fill-opacity:1;stroke-width:0.116342;stroke-linecap:round;stroke-linejoin:round;paint-order:markers stroke fill"
       d="m 41.731351,-162.20721 c 0,1.3661 1.807769,1.30446 1.96184,0.32868 0.154071,-0.97578 -0.616285,-2.18781 -0.400585,-3.42038 -1.191484,1.5818 -1.561255,1.91049 -1.561255,3.0917 z"
       id="path60" />
    <path
       style="opacity:1;fill:#fab900;fill-opacity:1;stroke-width:0.116342;stroke-linecap:round;stroke-linejoin:round;paint-order:markers stroke fill"
       d="m 43.962532,-166.0498 c 0,1.3661 1.807769,1.30446 1.96184,0.32868 0.154071,-0.97578 -0.616285,-2.18781 -0.400585,-3.42038 -1.191484,1.5818 -1.561255,1.91049 -1.561255,3.0917 z"
       id="path61" />
    <path
       style="opacity:1;fill:#fab900;fill-opacity:1;stroke-width:0.116342;stroke-linecap:round;stroke-linejoin:round;paint-order:markers stroke fill"
       d="m 19.667449,-163.28149 c 0,1.3661 1.807769,1.30446 1.96184,0.32868 0.154071,-0.97578 -0.616285,-2.18781 -0.400585,-3.42038 -1.191484,1.5818 -1.561255,1.91049 -1.561255,3.0917 z"
       id="path62" />
    <path
       style="opacity:1;fill:#fab900;fill-opacity:1;stroke-width:0.116342;stroke-linecap:round;stroke-linejoin:round;paint-order:markers stroke fill"
       d="m 8.8834065,-162.6204 c 0,1.3661 1.8077685,1.30446 1.9618395,0.32868 0.154071,-0.97578 -0.616285,-2.18781 -0.400585,-3.42038 -1.1914835,1.5818 -1.5612545,1.91049 -1.5612545,3.0917 z"
       id="path63" />
  </g>
</svg>
