<?xml version="1.0" encoding="UTF-8" standalone="no"?>
<!-- Created with Inkscape (http://www.inkscape.org/) -->

<svg
   width="2000"
   height="3000"
   viewBox="0 0 529.16662 793.74997"
   version="1.1"
   id="svg1"
   xml:space="preserve"
   inkscape:version="1.4 (86a8ad7, 2024-10-11)"
   sodipodi:docname="yawn.svg"
   inkscape:export-filename="Head-side1.png"
   inkscape:export-xdpi="96"
   inkscape:export-ydpi="96"
   xmlns:inkscape="http://www.inkscape.org/namespaces/inkscape"
   xmlns:sodipodi="http://sodipodi.sourceforge.net/DTD/sodipodi-0.dtd"
   xmlns="http://www.w3.org/2000/svg"
   xmlns:svg="http://www.w3.org/2000/svg"><sodipodi:namedview
     id="namedview1"
     pagecolor="#505050"
     bordercolor="#ffffff"
     borderopacity="1"
     inkscape:showpageshadow="0"
     inkscape:pageopacity="0"
     inkscape:pagecheckerboard="1"
     inkscape:deskcolor="#505050"
     inkscape:document-units="mm"
     inkscape:zoom="0.31999999"
     inkscape:cx="1887.5001"
     inkscape:cy="1720.3126"
     inkscape:window-width="3440"
     inkscape:window-height="1377"
     inkscape:window-x="-8"
     inkscape:window-y="-8"
     inkscape:window-maximized="1"
     inkscape:current-layer="layer1" /><defs
     id="defs1"><inkscape:path-effect
       effect="mirror_symmetry"
       start_point="396.875,0"
       end_point="396.875,1322.9167"
       center_point="396.875,661.45833"
       id="path-effect25"
       is_visible="true"
       lpeversion="1.2"
       lpesatellites=""
       mode="vertical"
       discard_orig_path="false"
       fuse_paths="false"
       oposite_fuse="false"
       split_items="false"
       split_open="false"
       link_styles="false" /><inkscape:path-effect
       effect="mirror_symmetry"
       start_point="351.80671,7.9670225"
       end_point="351.80671,1330.8837"
       center_point="351.80671,669.42536"
       id="path-effect24"
       is_visible="true"
       lpeversion="1.2"
       lpesatellites=""
       mode="vertical"
       discard_orig_path="false"
       fuse_paths="false"
       oposite_fuse="false"
       split_items="false"
       split_open="false"
       link_styles="false" /><inkscape:path-effect
       effect="mirror_symmetry"
       start_point="351.80671,7.9670225"
       end_point="351.80671,1330.8837"
       center_point="351.80671,669.42536"
       id="path-effect23"
       is_visible="true"
       lpeversion="1.2"
       lpesatellites=""
       mode="vertical"
       discard_orig_path="false"
       fuse_paths="false"
       oposite_fuse="false"
       split_items="false"
       split_open="false"
       link_styles="false" /><inkscape:path-effect
       effect="mirror_symmetry"
       start_point="351.80671,7.9670225"
       end_point="351.80671,1330.8837"
       center_point="351.80671,669.42536"
       id="path-effect22"
       is_visible="true"
       lpeversion="1.2"
       lpesatellites=""
       mode="vertical"
       discard_orig_path="false"
       fuse_paths="false"
       oposite_fuse="false"
       split_items="false"
       split_open="false"
       link_styles="false" /><inkscape:path-effect
       effect="mirror_symmetry"
       start_point="396.87502,-8.4338178"
       end_point="396.87502,1268.0465"
       center_point="396.87502,629.80636"
       id="path-effect20"
       is_visible="true"
       lpeversion="1.2"
       lpesatellites=""
       mode="vertical"
       discard_orig_path="false"
       fuse_paths="false"
       oposite_fuse="false"
       split_items="false"
       split_open="false"
       link_styles="false" /><inkscape:path-effect
       effect="mirror_symmetry"
       start_point="396.875,0"
       end_point="396.875,1322.9167"
       center_point="396.875,661.45833"
       id="path-effect19"
       is_visible="true"
       lpeversion="1.2"
       lpesatellites=""
       mode="vertical"
       discard_orig_path="false"
       fuse_paths="false"
       oposite_fuse="false"
       split_items="false"
       split_open="false"
       link_styles="false" /><inkscape:path-effect
       effect="mirror_symmetry"
       start_point="396.875,0"
       end_point="396.875,1322.9167"
       center_point="396.875,661.45833"
       id="path-effect17"
       is_visible="true"
       lpeversion="1.2"
       lpesatellites=""
       mode="vertical"
       discard_orig_path="false"
       fuse_paths="false"
       oposite_fuse="false"
       split_items="false"
       split_open="false"
       link_styles="false" /><inkscape:path-effect
       effect="mirror_symmetry"
       start_point="396.875,0"
       end_point="396.875,1322.9167"
       center_point="396.875,661.45833"
       id="path-effect16"
       is_visible="true"
       lpeversion="1.2"
       lpesatellites=""
       mode="vertical"
       discard_orig_path="false"
       fuse_paths="false"
       oposite_fuse="false"
       split_items="false"
       split_open="false"
       link_styles="false" /><inkscape:path-effect
       effect="mirror_symmetry"
       start_point="396.875,0"
       end_point="396.875,1322.9167"
       center_point="396.875,661.45833"
       id="path-effect15"
       is_visible="true"
       lpeversion="1.2"
       lpesatellites=""
       mode="vertical"
       discard_orig_path="false"
       fuse_paths="false"
       oposite_fuse="false"
       split_items="false"
       split_open="false"
       link_styles="false" /><inkscape:path-effect
       effect="mirror_symmetry"
       start_point="396.875,0"
       end_point="396.875,1322.9167"
       center_point="396.875,661.45833"
       id="path-effect14"
       is_visible="true"
       lpeversion="1.2"
       lpesatellites=""
       mode="vertical"
       discard_orig_path="false"
       fuse_paths="false"
       oposite_fuse="false"
       split_items="false"
       split_open="false"
       link_styles="false" /><inkscape:path-effect
       effect="mirror_symmetry"
       start_point="396.875,-51.166071"
       end_point="396.875,1271.7506"
       center_point="396.875,610.29226"
       id="path-effect7"
       is_visible="true"
       lpeversion="1.2"
       lpesatellites=""
       mode="vertical"
       discard_orig_path="false"
       fuse_paths="true"
       oposite_fuse="false"
       split_items="false"
       split_open="false"
       link_styles="false" /><inkscape:path-effect
       effect="mirror_symmetry"
       start_point="402.86785,-63.815361"
       end_point="402.86785,1259.1013"
       center_point="402.86785,597.64297"
       id="path-effect6"
       is_visible="true"
       lpeversion="1.2"
       lpesatellites=""
       mode="vertical"
       discard_orig_path="false"
       fuse_paths="true"
       oposite_fuse="false"
       split_items="false"
       split_open="false"
       link_styles="false" /><inkscape:path-effect
       effect="mirror_symmetry"
       start_point="412.49036,-64.054861"
       end_point="412.49036,1258.8618"
       center_point="412.49036,597.40347"
       id="path-effect5"
       is_visible="true"
       lpeversion="1.2"
       lpesatellites=""
       mode="vertical"
       discard_orig_path="false"
       fuse_paths="true"
       oposite_fuse="false"
       split_items="false"
       split_open="false"
       link_styles="false" /><inkscape:path-effect
       effect="mirror_symmetry"
       start_point="396.875,0"
       end_point="396.875,1322.9167"
       center_point="396.875,661.45833"
       id="path-effect4"
       is_visible="true"
       lpeversion="1.2"
       lpesatellites=""
       mode="vertical"
       discard_orig_path="false"
       fuse_paths="true"
       oposite_fuse="false"
       split_items="false"
       split_open="false"
       link_styles="false" /><inkscape:path-effect
       effect="mirror_symmetry"
       start_point="396.875,0"
       end_point="396.875,1322.9167"
       center_point="396.875,661.45833"
       id="path-effect3"
       is_visible="true"
       lpeversion="1.2"
       lpesatellites=""
       mode="vertical"
       discard_orig_path="false"
       fuse_paths="true"
       oposite_fuse="false"
       split_items="false"
       split_open="false"
       link_styles="false" /><inkscape:path-effect
       effect="mirror_symmetry"
       start_point="396.875,0"
       end_point="396.875,1322.9167"
       center_point="396.875,661.45833"
       id="path-effect2"
       is_visible="true"
       lpeversion="1.2"
       lpesatellites=""
       mode="vertical"
       discard_orig_path="false"
       fuse_paths="false"
       oposite_fuse="false"
       split_items="false"
       split_open="false"
       link_styles="false" /><inkscape:path-effect
       effect="mirror_symmetry"
       start_point="396.875,0"
       end_point="396.875,1322.9167"
       center_point="396.875,661.45833"
       id="path-effect1"
       is_visible="true"
       lpeversion="1.2"
       lpesatellites=""
       mode="vertical"
       discard_orig_path="false"
       fuse_paths="true"
       oposite_fuse="false"
       split_items="false"
       split_open="false"
       link_styles="false" /><inkscape:path-effect
       effect="mirror_symmetry"
       start_point="1500,0"
       end_point="1500,3000"
       center_point="1500,1500"
       id="path-effect865"
       is_visible="true"
       mode="vertical"
       discard_orig_path="false"
       fuse_paths="false"
       oposite_fuse="false"
       lpeversion="0"
       lpesatellites=""
       split_items="false"
       split_open="false"
       link_styles="false" /><inkscape:path-effect
       effect="mirror_symmetry"
       start_point="396.875,-496.75002"
       end_point="396.875,296.99998"
       center_point="396.875,-99.87502"
       id="path-effect854"
       is_visible="true"
       mode="vertical"
       discard_orig_path="false"
       fuse_paths="false"
       oposite_fuse="false"
       lpeversion="0"
       lpesatellites=""
       split_items="false"
       split_open="false"
       link_styles="false" /><inkscape:path-effect
       effect="mirror_symmetry"
       start_point="396.875,-496.75002"
       end_point="396.875,296.99998"
       center_point="396.875,-99.87502"
       id="path-effect843"
       is_visible="true"
       mode="vertical"
       discard_orig_path="false"
       fuse_paths="false"
       oposite_fuse="false"
       lpeversion="0"
       lpesatellites=""
       split_items="false"
       split_open="false"
       link_styles="false" /></defs><g
     inkscape:label="Layer 1"
     inkscape:groupmode="layer"
     id="layer1"><g
       id="g74"
       transform="matrix(-3.3860835,0,0,3.3860835,606.02627,-26.883643)"><path
         style="fill:#f3a070;fill-opacity:1;stroke:none;stroke-width:3.74208;stroke-linecap:round;stroke-linejoin:round;stroke-opacity:0.740601;paint-order:markers stroke fill"
         d="m 70.243744,159.80291 c -2.178126,12.79652 2.450409,30.22156 10.346133,46.01303 8.010379,16.02076 59.420353,-22.97342 53.702753,-31.95822 -5.7176,-8.9848 -6.80664,-27.77119 -8.44026,-32.94426 -1.63359,-5.17306 -55.608626,18.88945 -55.608626,18.88945 z"
         id="path3"
         sodipodi:nodetypes="csssc" /><path
         id="path53"
         style="opacity:1;fill:#ec9563;fill-opacity:0.666667;stroke:none;stroke-width:3.74208;stroke-linecap:round;stroke-linejoin:round;stroke-opacity:0.740601;paint-order:markers stroke fill"
         d="m 124.08215,140.19652 c -9.64315,-0.0769 -53.838269,19.60614 -53.838269,19.60614 -0.933229,5.48274 -0.609292,11.81815 0.678135,18.50769 28.569297,-4.88551 43.679664,-14.52961 56.704484,-27.74034 -0.67498,-4.22504 -1.19349,-7.81843 -1.77393,-9.65649 -0.1531,-0.48497 -0.77286,-0.70903 -1.77042,-0.717 z"
         sodipodi:nodetypes="scccss" /><path
         id="path68"
         style="opacity:1;fill:#ee9867;fill-opacity:1;stroke:none;stroke-width:3.74208;stroke-linecap:round;stroke-linejoin:round;stroke-opacity:0.740601;paint-order:markers stroke fill"
         d="m 130.46977,164.49405 c -4.319,7.38023 -15.01534,19.19778 -25.3315,23.63615 -10.520264,4.52615 -17.698399,9.38958 -29.725304,5.83044 1.493993,3.98834 3.235099,7.9713 5.17703,11.85516 8.010362,16.02074 59.419874,-22.97364 53.702294,-31.95842 -1.60329,-2.51944 -2.83306,-5.81875 -3.82252,-9.36333 z"
         sodipodi:nodetypes="cscssc" /></g><g
       id="g1"
       transform="matrix(-3.3860835,0,0,3.3860835,606.02627,-26.883643)"><path
         id="path19"
         style="fill:#cc3333;fill-opacity:1;stroke:none;stroke-width:3.74208;stroke-linecap:round;stroke-linejoin:round;stroke-opacity:0.740601;paint-order:markers stroke fill"
         d="m 132.42654,167.56755 c -1.54209,0.23028 -2.28673,5.73027 -10.3172,12.93513 -10.70727,9.60647 -35.573271,22.15607 -45.824074,16.137 -1.894162,-1.11221 -13.803353,16.8719 -24.478092,40.72929 H 170.72756 c -7.27896,-32.52104 -29.20251,-59.49188 -36.19314,-68.14312 -0.99088,-1.22628 -1.59384,-1.73507 -2.10788,-1.6583 z"
         sodipodi:nodetypes="sssccss" /><path
         id="path67"
         style="fill:#a92a2a;fill-opacity:1;stroke:none;stroke-width:3.74208;stroke-linecap:round;stroke-linejoin:round;stroke-opacity:0.740601;paint-order:markers stroke fill"
         d="m 132.42651,167.56778 c -1.54209,0.23028 -2.2865,5.7302 -10.31698,12.93506 -10.70725,9.60645 -35.573379,22.15588 -45.824166,16.13683 -0.511383,-0.30027 -1.80925,0.91207 -3.56025,3.13024 6.785987,5.55845 20.326568,3.18114 37.933676,-4.21897 16.1566,-6.79045 22.83623,-15.79546 25.2591,-24.59156 -0.43244,-0.53705 -1.02581,-1.29047 -1.38367,-1.73333 -0.99087,-1.22628 -1.59369,-1.73504 -2.10771,-1.65827 z" /></g><path
       id="path1"
       style="fill:#f8b486;fill-opacity:1;stroke:none;stroke-width:7.95899;stroke-linecap:round;stroke-linejoin:round;stroke-opacity:0.740601;paint-order:markers stroke fill"
       d="M 283.16411 63.479846 C 165.46387 62.242976 111.20827 143.99094 103.73785 219.63104 C 93.724121 321.02328 111.51794 443.79377 250.90975 515.86825 C 333.18643 558.41056 401.60679 559.65161 429.18207 528.27525 C 436.82275 519.58134 441.9145 510.48839 445.41157 500.8423 C 429.15625 503.22433 413.13331 499.21699 403.48958 482.86458 C 385.34285 452.09404 393.58819 434.13618 453.28861 433.27433 C 453.40366 425.72801 453.47183 418.38889 453.7723 410.12225 C 466.53082 411.45055 494.97121 412.38214 500.0718 395.05599 C 508.8293 365.30779 465.55274 331.19977 460.77704 282.20448 C 448.61894 157.47037 411.42764 75.158467 307.13526 64.819299 C 302.93651 64.403041 298.80923 64.084099 294.75307 63.861735 C 290.82369 63.64614 286.96089 63.519745 283.16411 63.479846 z " /><path
       id="path52"
       style="fill:#f6aa75;fill-opacity:0.717647;stroke:none;stroke-width:12.671;stroke-linecap:round;stroke-linejoin:round;stroke-opacity:0.740601;paint-order:markers stroke fill"
       d="M 107.39448 330.38655 C 120.92114 400.44417 160.10178 468.915 250.91027 515.86877 C 333.18684 558.41105 401.6058 559.65054 429.18104 528.27421 C 436.81758 519.58502 441.90196 510.49182 445.38987 500.8454 C 441.71448 501.38271 438.05555 501.58341 434.47529 501.3973 C 399.18659 537.23838 322.68521 551.50105 191.68287 411.24312 C 152.66015 369.46332 125.79537 344.41164 107.39448 330.38655 z " /><path
       style="fill:#3a1809;fill-opacity:1;stroke:none;stroke-width:12.671;stroke-linecap:round;stroke-linejoin:round;stroke-opacity:0.740601;paint-order:markers stroke fill"
       d="m 390.02144,138.52008 c 53.33078,4.1544 66.24763,-27.53965 56.70433,-53.95295 -9.54317,-26.413293 -33.71411,-71.224694 -175.22562,-67.46198 -70.75576,1.881355 -117.73852,26.959092 -157.6345,86.66836 -60.440549,90.45662 -30.55694,200.87409 8.52047,285.50584 31.28382,67.75279 57.757,95.6423 72.1427,17.22294 19.75499,-107.68878 14.55038,-154.91894 67.03647,-155.41195 52.48601,-0.49296 41.99738,71.70712 74.23635,25.56401 32.239,-46.14312 -19.36271,-143.86628 54.2198,-138.13427 z"
       id="path2"
       sodipodi:nodetypes="sssssszss" /><path
       id="path54"
       style="fill:#2a1107;fill-opacity:1;stroke:none;stroke-width:12.671;stroke-linecap:round;stroke-linejoin:round;stroke-opacity:0.740601;paint-order:markers stroke fill"
       d="m 448.14281,110.87343 c -4.81975,17.06434 -22.34083,30.43496 -58.12087,27.64774 -73.58243,-5.73201 -21.98008,91.99087 -54.21908,138.13393 -5.48465,7.8501 -9.71647,12.21083 -13.24829,14.15122 9.53243,-9.01022 17.61982,-47.55567 11.565,-84.69221 -6.91449,-42.40825 2.30304,-76.05833 25.81187,-77.90218 22.39333,-1.75633 69.81082,13.10861 88.21137,-17.3385 z M 264.80742,241.85251 c 10.82399,0.0654 21.14169,3.27032 29.20846,9.8966 20.60354,16.92432 16.85511,32.93557 20.11909,38.72238 -10.45948,-7.37739 -17.32053,-39.71123 -52.56867,-39.38017 -52.48598,0.49296 -47.28178,47.72103 -67.03676,155.40969 -7.86388,42.86744 -19.34571,53.91735 -33.24484,44.10418 20.94919,-0.0769 29.16857,-128.59465 43.30587,-166.58895 10.14115,-27.25417 36.40412,-42.30734 60.21685,-42.16373 z" /></g></svg>
