<?xml version="1.0" encoding="UTF-8" standalone="no"?>
<svg
   height="128"
   viewBox="0 0 128 128"
   width="128"
   focusable="false"
   aria-hidden="true"
   style="display:inherit"
   version="1.1"
   id="svg1"
   sodipodi:docname="youtube-like.svg"
   inkscape:version="1.4 (86a8ad7, 2024-10-11)"
   xmlns:inkscape="http://www.inkscape.org/namespaces/inkscape"
   xmlns:sodipodi="http://sodipodi.sourceforge.net/DTD/sodipodi-0.dtd"
   xmlns="http://www.w3.org/2000/svg"
   xmlns:svg="http://www.w3.org/2000/svg">
  <defs
     id="defs1" />
  <sodipodi:namedview
     id="namedview1"
     pagecolor="#505050"
     bordercolor="#ffffff"
     borderopacity="1"
     inkscape:showpageshadow="0"
     inkscape:pageopacity="0"
     inkscape:pagecheckerboard="1"
     inkscape:deskcolor="#505050"
     inkscape:zoom="2.1636731"
     inkscape:cx="33.738923"
     inkscape:cy="105.14527"
     inkscape:window-width="3440"
     inkscape:window-height="1377"
     inkscape:window-x="-8"
     inkscape:window-y="-8"
     inkscape:window-maximized="1"
     inkscape:current-layer="svg1" />
  <path
     d="m 48.029896,4.92498 a 6.0480361,6.0480361 0 0 1 6.70727,-3.96751175 L 61.027127,2.0037785 A 24.192145,24.192145 0 0 1 80.695342,30.937584 l -3.761881,17.563497 h 24.561069 a 22.160005,22.160005 0 0 1 21.62778,17.345771 22.256774,22.256774 0 0 1 -3.8526,18.035244 l 0.12095,0.526152 a 23.073258,23.073258 0 0 1 -6.16899,21.549152 v 0.26007 l -0.0605,1.37291 a 17.055462,17.055462 0 0 1 -0.81649,4.00985 l -0.64109,1.70554 a 22.704328,22.704328 0 0 1 -20.889913,13.81977 h -21.80922 l -2.370829,-0.0422 a 72.588534,72.588534 0 0 1 -31.588916,-8.39477 l -2.074476,-1.14308 -1.63297,-0.9314 a 12.126313,12.126313 0 0 0 -5.219455,-1.57249 l -0.786245,-0.0244 H 13.429081 A 9.0720541,9.0720541 0 0 1 4.3570264,105.94533 V 69.66921 a 9.0720541,9.0720541 0 0 1 9.0720546,-9.072055 h 10.825984 l 0.949543,-0.07863 a 6.0480361,6.0480361 0 0 0 4.378778,-3.09659 L 29.96441,56.544967 Z M 41.377057,60.542723 A 18.144109,18.144109 0 0 1 24.255065,72.693228 h -7.801966 v 30.228082 h 8.878517 a 24.192145,24.192145 0 0 1 12.0114,3.19336 l 1.63297,0.93745 1.72369,0.94954 a 60.480361,60.480361 0 0 0 28.310859,7.02782 H 90.81975 c 4.560221,0 8.612407,-2.9212 10.05789,-7.25765 l 0.18145,-0.76205 a 4.9533417,4.9533417 0 0 0 0.0726,-0.79229 v -5.27389 l 3.5502,-3.544144 c 2.34664,-2.346638 3.48971,-5.606529 3.16312,-8.860376 l -0.22985,-1.391047 -0.12095,-0.526152 -1.27009,-5.443234 3.32642,-4.499738 A 10.057885,10.057885 0 0 0 101.49452,60.597183 H 76.933445 A 12.108169,12.108169 0 0 1 65.103504,45.973002 L 68.87143,28.409505 A 12.096073,12.096073 0 0 0 59.037322,13.942602 L 57.767235,13.730919 41.377057,60.548768 Z"
     id="path1"
     style="fill:#ffffff;fill-opacity:1;stroke:none;stroke-width:6.04802" />
</svg>
