<?xml version="1.0" encoding="UTF-8" standalone="no"?>
<svg
   enable-background="new 0 0 571.5 463.5"
   height="405.27344"
   viewBox="0 0 813.53324 659.79468"
   width="500"
   version="1.1"
   id="svg29"
   sodipodi:docname="deccan-herald.svg"
   inkscape:version="1.4 (86a8ad7, 2024-10-11)"
   xmlns:inkscape="http://www.inkscape.org/namespaces/inkscape"
   xmlns:sodipodi="http://sodipodi.sourceforge.net/DTD/sodipodi-0.dtd"
   xmlns="http://www.w3.org/2000/svg"
   xmlns:svg="http://www.w3.org/2000/svg">
  <defs
     id="defs29" />
  <sodipodi:namedview
     id="namedview29"
     pagecolor="#505050"
     bordercolor="#ffffff"
     borderopacity="1"
     inkscape:showpageshadow="0"
     inkscape:pageopacity="0"
     inkscape:pagecheckerboard="1"
     inkscape:deskcolor="#505050"
     inkscape:zoom="1.031784"
     inkscape:cx="140.53328"
     inkscape:cy="267.01324"
     inkscape:window-width="3440"
     inkscape:window-height="1377"
     inkscape:window-x="-8"
     inkscape:window-y="-8"
     inkscape:window-maximized="1"
     inkscape:current-layer="svg29" />
  <g
     fill="#0087a8"
     id="g29"
     transform="matrix(1.2979346,0,0,1.2979346,38.466936,30.593621)">
    <path
       d="m 332.8,373.8 c -0.1,-0.9 -0.1,-1 -0.3,-1 -0.1,0 -0.1,0 -0.2,0.1 -0.1,0.1 -0.1,0.2 -0.1,0.3 -0.5,1.9 -1.3,2.8 -1.4,2.8 -1.6,2 -4,3.2 -6.6,3.2 h -81 c -3.2,0 -6.1,-1.8 -7.5,-4.6 -0.1,-0.3 -0.5,-1.1 -0.5,-1.5 0,-0.1 0,-0.3 -0.3,-0.3 -0.2,0 -0.3,0.2 -0.4,1 0,0.5 -0.1,1 -0.1,1.3 0,4.6 3.9,8.4 8.7,8.4 h 81 c 4.8,0 8.7,-3.8 8.7,-8.4 0.1,-0.3 0.1,-0.9 0,-1.3"
       id="path1" />
    <path
       d="m 260.1,327.3 c 0.1,-0.2 0.3,-0.4 0.4,-0.7 0,-0.1 0.1,-0.1 0.1,-0.2 0.1,-0.2 0.3,-0.4 0.4,-0.6 0.2,0 0.5,0 0.7,-0.1 0.1,0 0.1,-0.1 0.1,-0.2 0,-0.1 -0.1,-0.1 -0.2,-0.1 -0.2,0 -0.3,-0.1 -0.5,-0.1 -0.2,-0.1 -0.3,-0.1 -0.5,-0.2 l -0.6,-0.3 c -0.2,-0.1 -0.4,-0.1 -0.6,-0.2 -0.4,-0.1 -0.8,-0.2 -1.3,-0.2 -0.5,0 -0.9,0 -1.3,0.1 -0.5,0.1 -0.9,0.3 -1.2,0.6 -0.3,0.3 -0.6,0.6 -0.9,1 -0.4,0.7 -0.7,1.4 -0.8,2.3 0,0.1 0,0.2 0.1,0.2 h 0.1 c 0.1,0 0.1,0 0.2,-0.1 0.1,-0.2 0.2,-0.3 0.3,-0.5 0.5,0.4 1,0.6 1.6,0.8 0.3,0.1 0.6,0.1 0.9,0.1 0.4,0 0.9,-0.1 1.3,-0.2 0.3,-0.1 0.7,-0.3 1,-0.5 0.2,-0.3 0.5,-0.6 0.7,-0.9 m -2,0.6 c -0.5,0.2 -1.1,0.3 -1.8,0.2 -0.5,-0.1 -1,-0.2 -1.5,-0.5 0.2,-0.3 0.3,-0.5 0.5,-0.8 0.3,0.8 1.1,1.2 1.9,0.9 0.8,-0.2 1.3,-1.1 1,-1.9 -0.1,-0.2 -0.1,-0.3 -0.3,-0.5 0.4,0 0.8,0 1.3,0.1 0.3,0 0.5,0.1 0.8,0.2 l 0.3,0.1 h 0.1 c -0.1,0.1 -0.2,0.3 -0.3,0.4 -0.1,0.1 -0.2,0.2 -0.3,0.4 -0.1,0.2 -0.2,0.3 -0.3,0.4 -0.4,0.5 -0.9,0.8 -1.4,1"
       id="path2" />
    <path
       d="m 304.1,349.3 c 0,-0.8 0.5,-1.6 1.2,-2.1 -0.4,-0.3 -0.8,-0.5 -1.2,-0.8 -0.6,0.3 -1,0.8 -1,1.4 0.1,0.7 0.4,1.2 1,1.5"
       id="path3" />
    <path
       d="m 305.9,350.8 c 0.1,-0.7 0.6,-1.4 1.3,-1.7 -0.3,-0.3 -0.7,-0.7 -1,-1 -0.1,-0.1 -0.1,-0.1 -0.2,-0.2 -0.6,0.2 -1.1,0.8 -1.1,1.5 0,0.6 0.4,1.2 1,1.4"
       id="path4" />
    <path
       d="m 307.5,352.5 c 0.1,-0.8 0.6,-1.4 1.3,-1.8 -0.3,-0.3 -0.6,-0.7 -0.9,-1 -0.7,0.2 -1.1,0.8 -1.1,1.5 0,0.5 0.2,1 0.7,1.3"
       id="path5" />
    <path
       d="m 309.3,354.3 c 0,-0.8 0.5,-1.5 1.2,-1.9 -0.3,-0.3 -0.7,-0.7 -1,-1 -0.7,0.2 -1.1,0.8 -1.1,1.5 -0.1,0.5 0.3,1.1 0.9,1.4"
       id="path6" />
    <path
       d="m 311.1,355.8 c 0,-0.8 0.5,-1.5 1.1,-1.9 -0.2,-0.2 -0.3,-0.3 -0.5,-0.5 -0.2,-0.2 -0.4,-0.3 -0.6,-0.5 -0.6,0.3 -1,0.8 -1,1.4 0,0.7 0.4,1.3 1,1.5"
       id="path7" />
    <path
       d="m 313.2,357.5 c 0,-0.2 -0.1,-0.4 -0.1,-0.5 0,-0.7 0.3,-1.3 0.8,-1.7 -0.3,-0.2 -0.7,-0.5 -1,-0.7 -0.6,0.3 -1,0.8 -1,1.4 0,0.7 0.6,1.3 1.3,1.5"
       id="path8" />
    <path
       d="m 315.4,358.5 c -0.1,-0.1 0,-0.2 -0.1,-0.4 0,0 0,0 0,-0.1 0,-0.1 -0.1,-0.3 -0.1,-0.4 0,-0.5 0.2,-1 0.5,-1.5 -0.4,-0.2 -0.7,-0.3 -1,-0.5 -0.4,0.3 -0.7,0.8 -0.7,1.3 0,0.8 0.6,1.5 1.4,1.6"
       id="path9" />
    <path
       d="m 317.7,359.3 h 0.3 c -0.3,-0.4 -0.4,-0.8 -0.4,-1.3 0,-0.3 0.1,-0.6 0.2,-0.9 -0.4,-0.1 -0.8,-0.3 -1.2,-0.4 -0.3,0.3 -0.5,0.7 -0.5,1.1 0,0.7 0.7,1.5 1.6,1.5"
       id="path10" />
    <path
       d="m 320.1,359.5 h 0.2 c -0.4,-0.4 -0.6,-1 -0.6,-1.6 0,-0.2 0,-0.4 0.1,-0.6 -0.3,0 -0.7,-0.1 -1.1,-0.2 -0.1,0.2 -0.2,0.5 -0.2,0.7 -0.1,1 0.7,1.7 1.6,1.7"
       id="path11" />
    <path
       d="m 322.1,359.5 c 0.4,0 0.7,-0.1 1,-0.4 -0.8,-0.3 -1.3,-1 -1.4,-1.8 -0.4,0.1 -0.8,0.1 -1.2,0.1 -0.1,0.2 -0.1,0.3 -0.1,0.5 0.1,0.9 0.8,1.6 1.7,1.6"
       id="path12" />
    <path
       d="m 324.1,358.5 c 0.8,0 1.5,-0.7 1.5,-1.6 0,-0.3 -0.1,-0.5 -0.2,-0.7 -0.9,0.5 -1.8,0.8 -2.8,1 0.1,0.8 0.7,1.3 1.5,1.3"
       id="path13" />
    <path
       d="m 242.5,377 c 0.8,0.2 1.6,0.4 2.3,0.4 h 0.4 c 1.6,0 2.7,-0.3 3.5,-0.5 0.4,-0.1 0.7,-0.2 0.9,-0.2 0.7,-0.1 1.8,-0.1 3.1,0 0.4,0.1 0.9,0.1 1.5,0.2 2.9,0.3 6.8,0.6 9.2,0.6 h 0.7 0.2 0.1 c 2.9,0 4.8,-1.3 5,-1.4 h 0.1 c 0.8,0.7 4.4,1.2 6.1,1.3 1,0 2,0.1 3.1,0.1 4.9,0 10.2,-0.5 13.1,-0.9 4.9,1 13.6,1.1 18.4,1.1 5.3,0 9.5,-0.2 10.2,-0.2 h 0.4 c 1.5,-0.2 5.1,-0.5 6.5,-3.6 0.6,-1.2 0.5,-2.5 -0.2,-3.8 -0.7,-1.3 0,-0.1 -0.1,-0.2 2.5,-2.7 2.9,-7.7 1.9,-11.1 -0.6,-2.3 -1.8,-4 -2.1,-4.3 -0.2,-0.5 -1.3,-3.3 -2.7,-5.6 -1.8,-3.3 -5.4,-5.5 -10.3,-6.6 -2.1,-0.4 -4.3,-0.7 -6.5,-0.7 -1.3,0 -2.6,0.1 -3.8,0.2 -0.2,0 -0.6,0.1 -1.2,0.2 -2.3,0.4 -6.7,1.1 -8.3,1.2 -0.4,0 -0.7,-0.2 -1,-0.5 -0.6,-0.8 -0.4,-2.4 -0.3,-2.9 0,-0.1 0,-0.1 0,-0.1 0.4,-2.1 -0.2,-3.8 -1.7,-5 -0.7,-0.5 -1.6,-0.8 -2.7,-0.8 -1,0 -2,0.2 -3,0.4 -0.3,0.1 -0.6,0.1 -0.8,0.2 -0.9,0.2 -1.8,0.4 -2.8,0.4 -0.5,0 -1,-0.1 -1.5,-0.2 -0.2,0 -0.3,-0.1 -0.6,-0.2 -2.2,-1.2 -6.2,-5.3 -6.6,-5.7 v -0.1 c 0.3,-0.5 0.4,-0.8 0.6,-1.3 0.1,-0.3 0.2,-0.6 0.4,-1.1 0.2,-0.4 0.8,-1.3 1,-1.7 0.1,-0.1 0.1,-0.3 0.1,-0.4 0,-0.1 -0.1,-0.3 -0.3,-0.3 -1.1,-0.6 -2.3,-0.7 -3.1,-0.7 h -0.2 l 0.1,-0.1 c 1.3,-1.9 2.5,-4.9 2.5,-5 0.1,-0.2 0,-0.3 -0.1,-0.5 -0.1,-0.1 -0.3,-0.2 -0.4,-0.2 -5.6,0.2 -7.9,1.4 -8.8,2.1 h -0.1 -0.1 c -0.5,-0.4 -1.2,-0.8 -2.3,-0.8 -0.4,0 -0.7,0 -1.1,0.1 -1.5,0.4 -2.2,1.5 -2.5,2.1 h -0.1 c -0.7,0.1 -2.7,0.7 -4.7,3.3 -2.7,3.5 -5.6,5.2 -7,6.1 -0.3,0.2 -0.5,0.3 -0.6,0.4 -1.7,1.3 -3.2,3.1 -1.2,6.8 1.5,2.7 5,3.6 7.7,3.6 0.8,0 1.5,-0.1 2.2,-0.2 h 0.1 v 0.1 c 0.3,0.4 1.1,1.6 0.6,3 -0.2,0.5 -0.5,1 -0.7,1.5 -0.1,0.1 -0.2,0.3 -0.2,0.4 -0.7,1.2 -1.3,2.2 -0.6,4.1 v 0.1 h -0.1 c -0.7,0.4 -1.9,1.4 -2.1,2.7 -0.1,0.7 -0.1,1.3 0.1,2 v 0.1 0.3 c -0.1,0.2 -0.4,0.2 -0.8,0.1 l -0.3,-0.1 c -0.1,0 -0.3,-0.1 -0.4,-0.1 -0.7,-0.2 -1.5,-0.4 -2.3,-0.4 -0.6,0 -1.1,0.1 -1.6,0.3 -1.6,0.6 -3.8,2.3 -5.6,7 -0.5,1.3 -0.9,2.4 -0.4,3.4 0.2,0.3 0.2,0.9 -0.9,1.5 -0.5,0.3 -0.9,0.9 -0.9,1.5 0,0.4 0.1,0.8 0.3,1.1 v 0.1 c 0.1,0.2 0.2,0.4 0,0.8 -0.2,0.3 -0.5,0.8 -0.7,1.2 -0.4,1 -0.4,1.2 -0.5,1.7 v 0.1 c 0.3,0.9 1.8,2.8 4.5,3.6 m 9.6,-2.5 c -2,0.3 -3.2,-0.5 -3,-1.7 0.2,-1.3 0.4,-2.6 0.5,-3.1 0.1,-0.5 0.2,-1.1 0.9,-1.5 0.6,-0.4 1.8,-0.4 3,0.5 1,0.7 1.8,1.7 2.4,2.4 1.6,2.5 -1.5,3 -3.8,3.4 m 41.8,-7.9 c -0.1,0.5 -0.4,1.7 -2.1,1.6 -1.7,-0.1 -1.8,-1.6 -1.8,-2 0.1,-0.4 0.1,-0.8 0.3,-1.9 0.2,-1.1 1.1,-1.4 2,-1.4 1.3,0 1.8,1.1 1.8,1.6 0.1,0.5 -0.1,1.6 -0.2,2.1 m 4.6,8.2 c -1.9,-0.1 -2.6,-0.6 -2.4,-1.8 0.2,-1.7 2.7,-0.4 2.9,-1 0.1,-0.4 -1,-0.5 -1.9,-0.8 -0.9,-0.4 -0.8,-1.7 1,-2.4 1.8,-0.7 3.3,0 4.1,0.6 0.8,0.5 0,0.7 0,0.7 -3.2,1.1 -3.4,3.9 -3.4,4.7 -0.1,0 -0.2,0 -0.3,0 m 8.1,1 c -0.1,0.1 -0.3,0.1 -0.3,0.1 -1.4,0.2 -2.5,0 -3,-0.1 -0.2,0 -0.3,-0.1 -0.3,-0.3 -0.1,-1 0.5,-2.2 0.7,-2.5 0.4,-0.6 -0.4,-1.2 -0.9,-0.4 -0.8,1 -1,2.3 -1,2.8 0,0.1 -0.1,0.2 -0.3,0.2 -0.8,-0.1 -1.3,-0.4 -1.6,-0.7 -0.1,-0.1 -0.2,-0.2 -0.1,-0.4 0.2,-2.6 2.3,-3.5 3,-3.7 0.2,0 0.3,0 0.4,0.1 0.8,1 3,1.2 4.2,1.3 0.3,0 0.8,0.2 0.7,0.5 -0.3,2.2 -1.1,2.9 -1.5,3.1 m 2.1,-4.4 c -0.1,-0.1 -0.8,-0.4 -1.9,-0.5 -2.6,-0.2 -2.9,-1.7 -2.9,-2.4 0,-1.1 0.8,-1.9 1.4,-2.2 0,0 0.2,0.7 0.8,1.2 -0.2,0.1 -0.7,0.5 -0.7,1 0,0.3 0,0.9 1.5,1 0.5,0 2.3,0.2 3,1 -0.9,0.2 -1.2,0.9 -1.2,0.9 m 4.5,3.5 c -1.2,0.1 -4,0.2 -3.8,-2.4 0.1,-0.9 0.8,-1.4 1.9,-1.5 1.5,-0.1 2.9,0.4 2.9,0.4 1.6,0.6 3.2,1.7 4.4,3.5 0,0 -4.2,-0.1 -5.4,0 m -4.9,-32.4 c 0.6,0 1.3,0.1 1.9,0.1 3.9,0.3 8.4,1.4 11.3,4.3 0.4,0.4 0.7,0.8 1,1.2 0.2,0.3 1,1.5 1.1,1.8 0.3,0.5 0.5,0.9 0.7,1.4 -0.1,0.1 -0.1,0.1 -0.2,0.2 -0.4,0.3 -1.9,1.3 -3.7,1.3 -0.1,0 -2.6,0 -5.5,-2.7 l -0.1,-0.1 c -1.3,-1.1 -2.5,-2.4 -3.6,-3.6 -0.6,-0.7 -1.2,-1.3 -1.7,-1.8 -1,-0.9 -2,-1.7 -3.1,-2.2 0.7,0.1 1.3,0.1 1.9,0.1 m -6.6,0.7 c 0.9,-0.2 1.6,-0.3 2.3,-0.4 1.5,0.6 3.2,1.6 4.6,3 0.5,0.5 1,1 1.6,1.7 1,1.1 2.3,2.5 3.7,3.7 3.3,3 6.2,3.1 6.6,3.1 2.2,0 3.9,-1.1 4.5,-1.6 0.2,0.3 0.3,0.7 0.5,1.1 -0.9,0.6 -2.7,1.7 -5,1.7 -0.6,0 -3.8,-0.2 -7.4,-3.4 -1.4,-1.2 -2.7,-2.6 -3.8,-3.7 -0.6,-0.7 -1.2,-1.2 -1.6,-1.6 -1.9,-2.2 -4.3,-3.1 -6,-3.6 z m -5.4,1.3 c 0.1,0 0.1,-0.1 0.2,-0.1 0.3,-0.1 0.6,-0.1 1,-0.3 0.9,-0.2 1.7,-0.1 2.5,0.1 0.6,0.1 1.2,0.3 1.7,0.4 1.4,0.5 3.4,1.3 5,2.9 0.4,0.4 0.9,0.9 1.5,1.6 1.1,1.1 2.4,2.6 3.9,3.9 3,2.8 6.3,3.8 8.3,3.8 2.5,0 4.5,-1 5.6,-1.8 0.4,0.6 1.3,2.2 1.8,3.9 0.9,3.1 0.5,7.5 -1.5,9.8 -1.5,1.6 -3,1.4 -3.5,1.2 -0.1,-0.1 -0.2,-0.2 -0.1,-0.2 0,0 0.1,0 0.1,-0.1 0.8,-0.4 1.4,-1 1.9,-1.5 0.1,-0.1 0.2,-0.2 0.2,-0.3 2.1,-2.5 1.6,-5.6 1.4,-6.5 -0.1,-0.3 -0.4,-0.5 -0.7,-0.4 -0.3,0.1 -0.5,0.4 -0.5,0.7 0.2,0.8 0.6,3.4 -1.1,5.5 -1.7,2 -4.9,3.1 -9.6,3.1 h -0.1 c -0.2,0 -0.5,0 -0.7,-0.1 -3.9,-0.3 -5.9,-2.2 -6.8,-3.3 -1,-1.4 -1.5,-3 -1.1,-4.4 0.7,-3 3.9,-4.3 4,-4.3 0.3,-0.1 0.5,-0.5 0.3,-0.8 -0.1,-0.3 -0.5,-0.4 -0.8,-0.3 -0.1,0 -0.7,0.3 -1.5,0.8 -1.4,0.8 -3,2.2 -3.8,4.6 -0.8,2.4 -1.4,4.9 -4.8,4.3 -1.6,-0.4 -3.7,-1.3 -3.7,-3.7 0.7,-6.1 -1.3,-14.3 -1.3,-14.7 -0.4,-2 0.7,-3.2 2.2,-3.8 m -2.1,12.7 c 0.1,0.8 0.2,2.1 0.2,2.7 0,0.6 -0.2,1.8 -2,1.8 -1.6,0 -1.8,-1.1 -1.8,-1.8 0,-0.6 -0.1,-1 -0.1,-2.2 0,-1.2 0.9,-1.9 1.9,-1.9 0.8,0.1 1.7,0.4 1.8,1.4 m -1.3,-7.5 c 0.4,0.9 0.7,2.3 0.7,3.1 0,0.9 0,1.5 -1.5,1.9 -1.5,0.3 -2.1,-0.7 -2.3,-1.2 -0.2,-0.6 -0.5,-1.3 -0.6,-1.7 -0.7,-1.5 0.1,-2.5 1,-2.9 0.8,-0.3 2.2,-0.5 2.7,0.8 m -12.8,-14.2 c 0.2,0.1 0.5,0.1 0.7,0.2 0.5,0.7 0.3,1.6 -0.2,2.1 -0.8,0.7 -1.9,0.7 -2.5,0.2 0.4,0.7 0.2,1.5 -0.5,2 -0.7,0.5 -1.6,0.4 -2.1,-0.1 0,0 0,0 -0.1,0 0.3,0.7 0,1.5 -0.7,1.9 -0.7,0.4 -1.5,0.2 -2.1,-0.3 0,0 0,0 -0.1,0 0.2,0.7 -0.1,1.4 -0.8,1.7 -0.8,0.3 -1.6,0.2 -2,-0.3 0,0 0,0 -0.1,0 0,0.4 -0.1,1.2 -1,1.5 -0.8,0.3 -1.7,0.1 -2,-0.3 -0.1,0.5 -0.5,1.1 -1.3,1.3 -0.9,0.2 -1.6,-0.1 -1.8,-0.3 -0.3,0.1 -0.6,0.2 -0.9,0.3 -0.3,0.1 -0.1,0.2 0,0.4 0.4,0 0.8,0.4 0.8,0.8 0,0.4 -0.4,0.8 -0.8,0.8 -0.4,0 -0.8,-0.3 -0.8,-0.8 0,-0.3 0.2,-0.5 0.4,-0.6 -0.1,-0.2 -0.1,-0.3 -0.1,-0.4 -0.5,0.1 -1.1,0.3 -1.7,0.4 v 0.1 c 0,0 -0.1,0.2 0,0.4 0.5,0 0.9,0.4 0.9,0.9 0,0.5 -0.4,0.9 -0.9,0.9 -0.5,0 -0.9,-0.4 -0.9,-0.9 0,-0.3 0.2,-0.6 0.5,-0.8 -0.1,-0.2 -0.1,-0.4 0,-0.5 -0.6,0.1 -1.3,0.3 -2,0.3 0,0 -0.1,0.2 0,0.4 0.6,0 1,0.5 1,1 0,0.6 -0.5,1 -1.1,1 -0.2,0 -0.3,0 -0.4,-0.1 -0.4,-0.1 -0.6,-0.5 -0.6,-0.9 0,-0.1 0,-0.1 0,-0.2 0,-0.1 0,-0.1 0.1,-0.2 0.1,-0.1 0.1,-0.1 0.1,-0.1 0,0 0,0 0.1,-0.1 0,0 0,0 0.1,-0.1 0,0 0.1,-0.1 0.1,-0.1 0.1,-0.1 0.2,-0.1 0.2,-0.2 -0.1,-0.2 -0.1,-0.3 0,-0.4 h -0.1 c 0,0 -0.5,0.1 -0.6,-0.4 0,-0.3 0.2,-0.4 0.5,-0.5 1.3,-0.2 3.7,-0.6 6.8,-1.5 1.9,-0.6 4.1,-1.4 6.5,-2.7 2.6,-1.3 5.3,-3 7.9,-5.1 0.4,-0.4 0.9,-0.8 1.3,-1.1 -0.2,0.2 0.1,0.4 0.2,0.4 m -1.5,-0.8 c -6.8,6 -14.2,8.4 -18.5,9.4 -0.3,0 -0.7,0 -0.8,-0.5 -0.1,-0.5 0.2,-0.7 0.4,-0.8 0.9,-0.2 2,-0.6 3.4,-1.2 0.3,-0.1 0.4,-0.5 0.3,-0.8 -0.2,-0.3 -0.5,-0.4 -0.8,-0.3 -0.6,0.3 -1.1,0.5 -1.6,0.7 -1.4,0.4 -2.7,0 -2.7,-1 0,-0.8 2,-0.9 2.8,-1.1 0.2,0 0.3,0 0.5,-0.1 2.4,-0.4 5,-0.9 6.3,-2.8 1.5,-2.1 0.2,-4.9 0.2,-4.9 2.2,0.2 3.9,-1.1 4.7,-1.9 0.9,1.1 3.7,3.9 5.8,5.3 m -5.5,-16.6 c -0.3,0.5 -0.7,1.4 -1.7,2.8 -1.9,2.6 -5.3,3.7 -6.5,2.2 -2.9,-4 8.2,-5 8.2,-5 m -17.6,20.5 c -1.1,0.1 -1.4,-0.5 -1.4,-0.5 -0.5,-0.6 -0.1,-1.1 0.2,-1.3 0.3,-0.2 1.1,-0.8 0.6,-1.4 -0.9,-1 -1.7,0.2 -1.9,0.6 -0.2,0.4 -0.3,1.4 -1.7,2.1 -0.9,0.4 -2.3,0.7 -3.2,0 -0.5,-0.4 -1,-0.9 -1.3,-1.5 -0.6,-0.9 -0.8,-1.7 -0.8,-2.4 0,-0.9 0.3,-1.9 1.4,-2.3 1.2,-0.5 1.4,-0.1 1.8,-0.4 0.2,-0.1 0.2,-0.4 0.3,-0.6 0.2,-1 2.4,-1.9 3.6,-3.4 0.9,-0.9 1.7,-1.9 2.5,-2.9 1.8,-2.4 3.4,-2.8 4,-2.9 0.6,-0.1 2,-0.3 2.9,0.7 0.9,1 1.1,2.7 0.5,3.9 -0.6,1.2 -0.2,1.5 0,1.6 0.2,0.2 1.1,0.9 2.3,-0.7 0,0 2.1,-2.7 5.4,-3.3 0.3,0 1.8,-0.3 3.4,0.3 -0.3,0.4 -0.6,1 -0.7,1.3 -0.2,0.5 -0.4,0.8 -0.5,1.1 -0.2,0.5 -0.3,0.9 -0.7,1.5 -0.2,0.2 -1.5,1.9 -3.5,2 -1,-0.1 -0.6,-1.4 -0.3,-2 0.3,-0.6 2.4,-2 2.7,-2.3 0.3,-0.2 0.2,-0.6 -0.4,-0.2 -0.6,0.3 -1.3,-0.2 -2.2,0.4 -0.9,0.6 -0.5,1.5 -0.5,1.5 0,0 -1,0.7 -1.8,1.2 -0.8,0.5 -0.1,1.5 0.2,2 0.3,0.4 1.7,2.8 0.5,4.7 -1,1.6 -3.3,1.9 -5.5,2.3 -0.8,0.1 -2,-0.1 -2.7,0.1 -1.2,0.3 -2.2,0.7 -3.2,0.8 m 0.6,11.6 c 1.4,-0.1 5.4,-0.5 10.3,-2.1 5,-1.6 11.8,-4.2 17,-10.4 5.2,-6.2 0,0 0,-0.1 l 0.2,-0.2 c 0.5,-0.6 1.9,-2.2 4,-2.6 1,-0.1 2.2,-0.1 3,0.5 1.2,1 1.7,2.5 1.1,4.6 -0.3,1.1 -1.9,2.2 -3.3,2.3 -1.6,0 -2.3,-1 -2.3,-1 -0.2,-0.3 -0.5,-0.4 -0.8,-0.2 -0.2,0.1 -0.3,0.4 -0.3,0.6 0,0.2 0.5,1.5 2.3,1.9 1.5,0.2 1.3,1.1 0.9,1.3 -10.2,4.6 -18.6,6.4 -24.1,7.2 -3.4,0.4 -6.1,0.5 -7.9,0.5 -0.5,-0.1 -1,-0.5 -1.1,-1.1 -0.2,-0.7 0.5,-1.1 1,-1.2 m 28.7,-2.9 c 0.1,-0.1 0.2,-0.2 0.4,-0.1 0.1,0.1 0.2,0.2 0.1,0.3 0,0 -0.1,0.2 0,0.5 0.7,0 1.3,0.6 1.3,1.2 0,0.7 -0.6,1.3 -1.3,1.3 -0.7,0 -1.3,-0.6 -1.3,-1.3 0,-0.5 0.3,-0.9 0.8,-1.1 -0.2,-0.4 0,-0.8 0,-0.8 m -3.3,1 c 0.1,-0.1 0.2,-0.2 0.4,-0.1 0.1,0.1 0.2,0.2 0.1,0.4 0,0 -0.1,0.3 0,0.5 0.7,0 1.3,0.6 1.3,1.2 0,0.7 -0.6,1.2 -1.3,1.2 -0.7,0 -1.3,-0.6 -1.3,-1.2 0,-0.5 0.3,-1 0.8,-1.1 -0.2,-0.5 0,-0.8 0,-0.9 m -3.1,0.9 c 0.1,-0.1 0.2,-0.2 0.4,-0.1 0.1,0.1 0.2,0.2 0.1,0.4 0,0 -0.1,0.3 0,0.5 0.7,0 1.3,0.6 1.3,1.2 0,0.7 -0.6,1.2 -1.3,1.2 -0.7,0 -1.3,-0.6 -1.3,-1.2 0,-0.5 0.3,-0.9 0.8,-1.1 -0.2,-0.4 0,-0.8 0,-0.9 m -3,1 c 0.1,-0.1 0.2,-0.2 0.4,-0.1 0.1,0.1 0.2,0.2 0.1,0.3 0,0 -0.1,0.2 0,0.5 0.7,0 1.3,0.6 1.3,1.2 0,0.7 -0.6,1.2 -1.3,1.2 -0.7,0 -1.3,-0.6 -1.3,-1.2 0,-0.5 0.3,-1 0.8,-1.1 -0.2,-0.4 0,-0.7 0,-0.8 m -3.1,1 c 0.1,-0.1 0.2,-0.2 0.4,-0.1 0.1,0.1 0.2,0.2 0.1,0.3 0,0 -0.1,0.3 0,0.5 0.7,0 1.3,0.6 1.3,1.3 0,0.7 -0.6,1.3 -1.3,1.3 -0.7,0 -1.3,-0.6 -1.3,-1.3 0,-0.5 0.3,-1 0.8,-1.1 -0.2,-0.5 -0.1,-0.8 0,-0.9 m -3.4,0.6 c 0.1,-0.1 0.2,-0.2 0.4,-0.1 0.1,0.1 0.2,0.2 0.1,0.4 0,0 -0.1,0.3 0,0.5 0.7,0 1.3,0.6 1.3,1.2 0,0.7 -0.6,1.2 -1.3,1.2 -0.7,0 -1.3,-0.6 -1.3,-1.2 0,-0.5 0.3,-0.9 0.8,-1.1 -0.1,-0.5 0,-0.9 0,-0.9 m -3.2,0.6 c 0.1,-0.1 0.2,-0.2 0.4,-0.1 0.1,0.1 0.2,0.2 0.1,0.4 0,0 -0.1,0.3 0,0.5 0.7,0 1.3,0.6 1.3,1.2 0,0.6 -0.6,1.2 -1.3,1.2 -0.7,0 -1.3,-0.6 -1.3,-1.2 0,-0.5 0.3,-0.9 0.8,-1.1 -0.2,-0.5 0,-0.8 0,-0.9 m -2.9,0.5 c 0.1,-0.1 0.2,-0.2 0.4,-0.1 0.1,0.1 0.2,0.2 0.1,0.3 0,0 -0.1,0.2 0,0.5 0.7,0 1.2,0.6 1.2,1.2 0,0.7 -0.6,1.2 -1.3,1.2 -0.7,0 -1.3,-0.6 -1.3,-1.2 0,-0.5 0.3,-1 0.8,-1.2 -0.1,-0.2 0.1,-0.6 0.1,-0.7 m -3,0.4 c 0.1,-0.1 0.2,-0.2 0.4,-0.1 0.1,0.1 0.2,0.2 0.1,0.3 0,0 -0.1,0.3 0,0.5 0.7,0 1.3,0.6 1.3,1.2 0,0.7 -0.6,1.3 -1.3,1.3 -0.7,0 -1.3,-0.6 -1.3,-1.3 0,-0.5 0.3,-0.9 0.8,-1.1 -0.2,-0.4 0,-0.8 0,-0.8 m -3,0.1 c 0.1,-0.1 0.2,-0.2 0.4,-0.1 0.1,0.1 0.2,0.2 0.1,0.4 0,0 -0.1,0.2 0,0.5 0.7,0 1.3,0.6 1.3,1.2 0,0.7 -0.6,1.3 -1.3,1.3 -0.7,0 -1.3,-0.6 -1.3,-1.3 0,-0.5 0.3,-1 0.8,-1.1 -0.2,-0.4 0,-0.8 0,-0.9 m -17.1,19.5 c 0.1,-0.6 0.4,-1.6 1,-2.4 0.5,-0.7 0.5,-1.1 0.3,-1.4 0,0 -0.1,-0.1 -0.1,-0.1 -0.1,-0.2 -0.2,-0.4 -0.3,-0.6 v -0.1 c 0,-0.1 0,-0.1 0,-0.1 0,-0.3 0.2,-0.5 0.4,-0.6 1.9,-1.1 1.7,-2.3 1.4,-2.9 -0.3,-0.6 0.4,-2.6 0.4,-2.6 1.6,-4.3 3.5,-5.9 4.9,-6.4 2.3,-0.9 6.2,1.9 6.6,2.1 1.3,0.8 5,3.1 5.9,3.7 0.6,0.4 1.6,1.1 2.2,1.5 0.2,0.1 0.4,0.2 0.5,0.3 1.8,1.1 3.4,1.9 3.8,1.2 0.4,-0.8 -2.7,-3.2 -4.1,-4.8 -1.2,-1.4 -1.3,-1.8 -1.3,-2.4 0,-0.6 0.5,-1.1 0.5,-1.1 0,0 0.5,1 1.9,0.7 1,-0.2 1.2,-0.9 1.2,-0.9 0,0 0.7,0.6 1.8,0.3 1.1,-0.3 1.2,-1.2 1.2,-1.2 0,0 0.6,0.9 2,0.6 1.3,-0.3 1.3,-1.3 1.3,-1.3 0,0 0.6,1 2.1,0.7 1.3,-0.3 1.2,-1.5 1.2,-1.5 0,0 0.7,0.8 2,0.5 1.2,-0.3 1.2,-1.3 1.2,-1.3 0,0 0.6,0.8 1.8,0.5 1.2,-0.3 1.2,-1.4 1.2,-1.4 0,0 0.8,0.9 2.2,0.4 0.8,-0.3 1,-1.2 1,-1.2 0,0 0.7,0.8 1.9,0.6 0.6,-0.2 1.1,-0.6 1.4,-0.9 0.4,0.6 3.2,4.9 1.8,13.1 -0.5,2.6 -1,4.6 -1.6,6 -0.3,0.7 -0.8,1.3 -2.1,2 -2.1,1.3 -6.8,1.1 -9,0.9 -0.2,0 -0.3,0 -0.5,0 -3.7,-0.4 -2.8,-5.1 -1.6,-6.3 1.2,-1.2 2.8,-3.5 3.1,-4.5 0.5,-1.4 0,-1.7 -0.4,-1.7 -0.4,0 -0.5,0.3 -0.8,1.2 -0.3,0.9 -1.9,3.5 -4.5,5.3 -1.2,0.8 -1.9,1.6 -2.3,2.6 -0.7,1.1 -0.5,1.7 -0.8,2.5 -0.2,0.9 -1.5,2.6 -4.2,2.2 -0.9,-0.1 -1.6,-0.5 -2.1,-1 -1.8,-1.9 -0.1,-4 0.6,-4.7 0.2,-0.2 0.2,-0.3 0,-0.3 -2.5,-0.7 -3.4,1.2 -4,2.2 -0.2,0.4 -0.5,0.7 -0.7,0.5 -1.1,-0.9 0.2,-3.2 0.7,-4.1 0.6,-0.9 0.5,-1.7 -1.5,-1.1 -1.6,0.5 -2.3,0.7 -4,0.1 -1.5,-0.5 -3.2,-2.1 -2,-4.8 0.2,-0.6 0.4,-1.1 0.4,-1.5 0.1,-0.9 -0.7,-0.9 -1.2,-0.5 -0.8,0.6 -1.3,1.3 -1.6,1.8 -0.5,0.7 -1.5,2 -2.7,1.4 -0.9,-0.5 -1.6,-0.6 -1.8,-0.1 -0.2,0.5 0.4,1.2 1.4,2.1 1.6,1.3 1.2,4.1 -0.9,3.9 -2.1,-0.1 -2.9,-0.1 -3,0.7 0,0.4 0.3,0.6 0.7,0.9 0.4,0.3 1.2,0.6 0.8,3.6 -0.1,1 -0.5,2.8 -2,2.2 -0.1,0 -0.2,-0.1 -0.3,-0.1 -0.4,-0.2 -0.4,-0.4 -0.3,-0.7 0.2,-1.3 0.7,-2.3 0.7,-2.4 0.1,-0.2 0.2,-0.7 -0.1,-0.9 -0.4,-0.2 -0.7,0.3 -0.8,0.5 0,0.1 -0.4,0.8 -0.6,1.9 -0.1,0.4 -0.4,0 -0.4,-0.4 0.1,-0.2 0.1,-0.3 0.1,-0.4"
       id="path14" />
    <g
       clip-rule="evenodd"
       fill-rule="evenodd"
       id="g28">
      <path
         d="m 320.6,403.9 v 29.7 c 0,0 0.7,1.9 5.2,2.1 v 1.3 h -19.2 v -1.3 c 0,0 3.9,0 5.2,-2.2 V 419 h -15 v 14.6 c 0,0 0.7,1.9 5.2,2.1 v 1.3 h -19.2 v -1.3 c 0,0 3.9,0 5.2,-2.2 v -29.7 c -1.3,-2.1 -5.2,-2.2 -5.2,-2.2 v -1.3 H 302 v 1.3 c -4.5,0.2 -5.2,2.1 -5.2,2.1 v 12.8 h 15 v -12.8 c -1.3,-2.1 -5.2,-2.2 -5.2,-2.2 v -1.3 h 19.2 v 1.3 c -4.5,0.5 -5.2,2.4 -5.2,2.4 m -31.2,0.2 h 1.4 v 29.5 h -1.4 z m 23.8,0 h 1.4 v 29.5 h -1.4 z"
         id="path15" />
      <path
         d="m 377.5,433.6 c 0,0 1.2,1.9 5.4,2.1 v 1.3 h -19.5 v -1.3 c 0,0 3.6,0 4.8,-2.2 v -29.7 c -1.2,-2.1 -4.8,-2.2 -4.8,-2.2 v -1.3 h 17.7 6.3 c 0,0 7.8,-0.3 10.5,6 0,0 1.1,3.4 0.1,5.9 -1.5,5.3 -8.6,7.2 -8.6,7.2 0,0 3,1.5 8.4,9.9 0,0 4.3,5.7 7.1,6.5 l 1.2,1.2 -12.9,-0.1 c -1.3,-0.5 -7,-8.9 -7,-8.9 -4.8,-7.6 -8.5,-7 -8.8,-7 v 12.6 z m 0,-30.3 c -0.1,0.3 0,0.6 0,0.6 v 14.6 c 0.5,0 9.1,0.5 11.7,-6 0.6,-1.9 0.5,-3.6 0.5,-3.6 -1,-8 -12.1,-5.6 -12.2,-5.6 z m 14.5,30 h 1.5 c -1.1,-1.2 -5.1,-7.2 -5.1,-7.2 -1.4,-2.5 -4.7,-5.1 -4.7,-5.1 l -1.4,0.1 c 0,0 3.5,2.8 5,5.6 0,0 3,4.7 4.7,6.6 m -3.6,-29.9 c 6.9,6.5 -0.1,13.1 -0.1,13.1 0,0 4.3,-2.2 4.3,-6.6 0,-4.6 -4.2,-6.5 -4.2,-6.5 m -18.2,0.7 h 1.3 v 29.5 h -1.3 z"
         id="path16" />
      <path
         d="m 341.9,403.6 v 13.1 h 7.9 c 1.1,-0.5 2.2,-5.4 2.4,-6.4 h 1.5 v 14.8 h -1.6 c -0.1,-0.8 -1.2,-6 -2.4,-6.2 h -7.9 v 12.5 c 0.1,0.6 0.5,2.7 2.5,2.8 0,0 7,1.2 13.2,-1.1 0,0 1.2,-1.2 2.5,-6.7 l 1.5,-0.1 -0.4,10.7 h -18.2 -2.6 -12.6 v -1.3 c 0,0 3.1,0 4.1,-2.2 v -29.7 c -1.1,-2.1 -4.1,-2.2 -4.1,-2.2 v -1.3 l 32.4,0.1 -0.1,10 h -1.5 c -1.3,-5.5 -2.7,-6.5 -2.7,-6.5 -5.1,-2.1 -12.7,-0.6 -13.9,-0.3 m -7.3,0.3 h 1.1 v 29.5 h -1.1 z"
         id="path17" />
      <path
         d="m 420.4,407.4 -6,15.9 h 12.7 z m 0.5,-3.4 h 1.2 l 12.3,29.3 h -1.5 z m -7.4,21.7 -2.9,7.6 c 0,0 0.9,2.2 5.1,2.3 v 1.5 h -13.8 v -1.5 c 0,0 4.3,0 5.4,-2.7 l 11.1,-28.8 c -1,-2.1 -5.2,-2.1 -5.2,-2.1 v -1.5 h 13.4 l 14,32.3 c 0,0 1.2,2.9 5.5,2.8 v 1.5 h -19.9 v -1.5 c 0,0 4.4,-0.3 5.2,-2.1 l -3.3,-7.8 z"
         id="path18" />
      <path
         d="m 466.3,400.4 v 1.4 c -4.3,0.3 -4.5,1.5 -5.1,2.2 v 27.4 c 0.1,0.6 0.4,2.7 2.2,2.8 0,0 7.2,0.9 12.9,-1.1 0,0 1.5,-2.3 2.6,-7.8 l 1.4,-0.1 -0.3,11.9 h -32.8 v -1.5 c 0,0 4.2,-0.1 5,-2.2 l 0.1,-29 c -0.8,-2.1 -5.1,-2.4 -5.1,-2.4 v -1.4 h 19.1 z m -12.3,3.8 h 1.2 v 29.4 H 454 Z"
         id="path19" />
      <path
         d="m 521.1,410.8 c -4.7,-10.7 -17.2,-10.4 -17.2,-10.4 h -22.4 v 1.4 c 0,0 4.5,0.2 5.2,2.4 v 29.2 c -0.7,2.2 -5.2,2.4 -5.2,2.4 v 1.4 h 20.1 c 9,-0.2 16.6,-4.4 19.7,-11 3.3,-7.9 -0.2,-15.4 -0.2,-15.4 m -7.4,1 c -1.5,-6.7 -5.3,-8.3 -5.3,-8.3 4.7,1.1 7.1,7.1 7.4,13.5 0.3,7 -2.1,14.5 -7.2,16 0,0 5.6,-3 5.8,-14.4 0,-0.1 0.1,-1.8 0,-3.2 -0.3,-1.9 -0.7,-3.6 -0.7,-3.6 m -1.2,6.6 c 0,0 0.2,6.6 -1.9,10.3 -3.2,6.8 -11.3,6.1 -11.3,6.1 -3.7,-0.3 -3.8,-2.7 -3.8,-2.7 v -28.8 c 0,0 2.3,-0.6 7,-0.5 0,0 4.3,-0.2 7.1,3.3 0,0 2.7,3.4 2.9,8.9 z M 488.1,404 h 1.4 v 29.4 h -1.4 z"
         id="path20" />
      <path
         d="m 83,410.8 c -4.6,-10.4 -16.6,-10 -16.6,-10 H 44.8 v 1.3 c 0,0 4.3,0.2 5,2.3 v 28.2 c -0.7,2.1 -5,2.3 -5,2.3 v 1.3 h 19.4 c 8.7,-0.2 16,-4.2 19,-10.7 3.1,-7.3 -0.2,-14.7 -0.2,-14.7 m -7.2,1 c -1.4,-6.5 -5.1,-8.1 -5.1,-8.1 4.5,1.1 6.9,6.9 7.1,13 0.3,6.8 -2,14 -7,15.5 0,0 5.4,-2.9 5.6,-14 0,-0.1 0.1,-1.7 0,-3.1 -0.2,-1.6 -0.6,-3.3 -0.6,-3.3 m -1.1,6.4 c 0,0 0.2,6.4 -1.9,9.9 -3.1,6.5 -10.9,5.9 -10.9,5.9 -3.6,-0.3 -3.7,-2.6 -3.7,-2.6 v -27.9 c 0,0 2.2,-0.6 6.8,-0.5 0,0 4.1,-0.1 6.8,3.2 0,0 2.6,3.3 2.8,8.6 z M 51.1,404.3 h 1.3 v 28.5 h -1.3 z"
         id="path21" />
      <path
         d="m 99.2,403.9 v 12.7 h 7.6 c 1.1,-0.4 2.1,-5.3 2.3,-6.2 h 1.5 v 14.4 h -1.5 c -0.1,-0.8 -1.2,-5.8 -2.3,-6 h -7.6 v 12.1 c 0.1,0.6 0.4,2.6 2.4,2.8 0,0 6.8,1.2 12.8,-1.1 0,0 1.2,-1.1 2.5,-6.5 l 1.4,-0.1 -0.4,10.3 H 100.3 97.8 85.7 V 435 c 0,0 3,0 4,-2.1 v -28.8 c -1,-2.1 -4,-2.1 -4,-2.1 v -1.3 l 31.3,0.1 -0.1,9.7 h -1.4 c -1.3,-5.4 -2.6,-6.3 -2.6,-6.3 -5.1,-2.1 -12.5,-0.6 -13.7,-0.3 m -7,0.3 h 1 v 28.6 h -1 z"
         id="path22" />
      <path
         d="m 205.5,407.7 -5.9,15.4 h 12.3 z m 0.4,-3.3 h 1.1 l 11.9,28.4 h -1.4 z m -7.2,21 -2.8,7.4 c 0,0 0.8,2.1 5,2.2 v 1.5 H 187.5 V 435 c 0,0 4.1,0 5.3,-2.7 l 10.8,-27.9 c -1,-2 -5.1,-2.1 -5.1,-2.1 V 401 h 13 l 13.6,31.3 c 0,0 1.2,2.8 5.3,2.8 v 1.5 h -19.3 v -1.5 c 0,0 4.3,-0.3 5,-2 l -3.2,-7.5 h -14.2 z"
         id="path23" />
      <path
         d="m 130.1,435.2 c 0,0 6.2,3.2 15.6,1.3 0,0 4.7,-0.8 9,-5.5 l -1.2,-1.6 c -8.9,7.5 -17.6,2.6 -17.6,2.6 -11.9,-6.7 -8.1,-31.6 8.3,-29 0,0 4.6,0.4 5.2,2.8 l 1.6,4.9 h 1.4 v -8.2 c 0,0 -6.8,-3.3 -17.6,-1.5 -8.7,1.7 -12.5,9.8 -12.5,9.8 0,0 -1.5,2.5 -1.9,7.4 -0.1,0.1 -1.3,11.7 9.7,17 M 123,420.3 c 0,0 -0.2,9.2 8.2,13.7 -6.2,-2.3 -8.4,-8.6 -8.4,-8.6 -1.8,-5.8 -0.5,-10.7 -0.5,-10.7 2.2,-8.7 8.8,-11.1 8.8,-11.1 -6.8,4.5 -7.7,11.3 -7.7,11.3 0,0 -0.4,1.6 -0.4,5.4"
         id="path24" />
      <path
         d="m 164.2,435.2 c 0,0 6.2,3.2 15.6,1.3 0,0 4.7,-0.8 8.9,-5.5 l -1.2,-1.6 c -8.9,7.5 -17.6,2.6 -17.6,2.6 -11.9,-6.7 -8.1,-31.6 8.3,-29 0,0 4.6,0.4 5.2,2.8 l 1.6,4.9 h 1.4 v -8.2 c 0,0 -6.7,-3.3 -17.6,-1.5 -8.7,1.7 -12.5,9.8 -12.5,9.8 0,0 -1.5,2.5 -1.9,7.4 -0.1,0.1 -1.3,11.7 9.8,17 M 157,420.3 c 0,0 -0.2,9.2 8.2,13.7 -6.2,-2.3 -8.4,-8.6 -8.4,-8.6 -1.8,-5.8 -0.5,-10.7 -0.5,-10.7 2.2,-8.7 8.8,-11.1 8.8,-11.1 -6.8,4.5 -7.7,11.3 -7.7,11.3 0,0 -0.4,1.6 -0.4,5.4"
         id="path25" />
      <path
         d="m 239.4,408 22,28.5 h 5.4 v -31.8 c 1.1,-2.1 5.1,-2.2 5.1,-2.2 V 401 h -13.2 v 1.5 c 3.9,0 5.1,2.1 5.1,2.1 v 20.6 L 245,401 h -13.7 v 1.5 c 0,0 3.4,-0.1 5,2.1 l 0.1,28.3 c -1.1,2.1 -5.1,2.2 -5.1,2.2 v 1.5 h 13.2 V 435 c -3.8,0 -5.1,-2.1 -5.1,-2.1 z m 22.7,24.9 -21.8,-28.3 h -1.5 l 21.8,28.3 z"
         id="path26" />
      <path
         d="M 263.2,99.1 C 237.1,21.8 168.3,24.3 168.3,24.3 H 44.8 v 9.9 c 0,0 24.7,1.5 28.5,17.2 V 261.8 C 69.5,277.6 44.8,279 44.8,279 v 9.9 h 110.9 c 50,-1.3 91.5,-31.5 108.7,-79.4 17.8,-55.8 -1.2,-110.4 -1.2,-110.4 m -40.9,7.5 C 214.1,58 193,46.6 193,46.6 c 25.9,8.2 39.4,51.6 40.9,97.3 1.6,50.8 -11.8,104.5 -39.8,115.8 0,0 30.8,-21.7 31.8,-104.2 0.2,-0.8 0.5,-13.1 -0.3,-23.2 -1,-13.5 -3.3,-25.7 -3.3,-25.7 m -6.4,47.2 c 0,0 1,47.9 -10.7,74.1 -17.5,48.8 -62.5,43.9 -62.5,43.9 -20.7,-2.1 -21,-19.2 -21,-19.2 l -0.1,-208 c 0,0 12.5,-4.5 38.8,-3.6 0,0 23.6,-1.1 39,24.1 0,0 14.9,24.4 15.9,64.1 z M 81.1,50.4 h 7.7 v 212.4 h -7.7 z"
         id="path27" />
      <path
         d="m 490.5,49 v 215.2 c 0,0 4.4,13.8 32.2,15.5 v 9.5 H 404.5 v -9.5 c 0,0 23.8,-0.2 32,-15.6 V 158.7 h -92.2 v 105.6 c 0,0 4.4,13.8 32.2,15.5 v 9.5 H 258.3 v -9.5 c 0,0 23.8,-0.2 32,-15.6 v -215 c -8.2,-15.4 -32,-15.6 -32,-15.6 v -9.5 h 118.2 v 9.5 c -27.8,1.7 -32.2,15.5 -32.2,15.5 v 92.4 h 92.2 V 49.1 c -8.2,-15.4 -32,-15.6 -32,-15.6 V 24 h 118.2 v 9.4 C 494.9,35.2 490.5,49 490.5,49 m -191.7,1.4 h 8.5 V 264 h -8.5 z m 146.5,-0.1 h 8.5 v 213.6 h -8.5 z"
         id="path28" />
    </g>
  </g>
</svg>
