<?xml version="1.0" encoding="UTF-8" standalone="no"?>
<svg
   width="500"
   height="250"
   viewBox="0 0 500 250"
   fill="none"
   version="1.1"
   id="svg74"
   sodipodi:docname="msn.svg"
   inkscape:version="1.4 (86a8ad7, 2024-10-11)"
   xmlns:inkscape="http://www.inkscape.org/namespaces/inkscape"
   xmlns:sodipodi="http://sodipodi.sourceforge.net/DTD/sodipodi-0.dtd"
   xmlns="http://www.w3.org/2000/svg"
   xmlns:svg="http://www.w3.org/2000/svg">
  <sodipodi:namedview
     id="namedview74"
     pagecolor="#505050"
     bordercolor="#ffffff"
     borderopacity="1"
     inkscape:showpageshadow="0"
     inkscape:pageopacity="0"
     inkscape:pagecheckerboard="1"
     inkscape:deskcolor="#505050"
     inkscape:zoom="2.1636731"
     inkscape:cx="291.6337"
     inkscape:cy="145.35467"
     inkscape:window-width="3440"
     inkscape:window-height="1377"
     inkscape:window-x="-8"
     inkscape:window-y="-8"
     inkscape:window-maximized="1"
     inkscape:current-layer="svg74" />
  <g
     clip-path="none"
     id="g23">
    <path
       d="m 496.95769,178.40201 h -18.90815 v -46.20228 c 0,-7.11859 -1.34382,-12.50051 -4.03312,-16.13995 -2.63697,-3.63944 -6.62026,-5.45749 -11.94653,-5.45749 -5.48657,0 -9.99475,2.05725 -13.52872,6.17176 -3.53479,4.05887 -5.30052,9.20159 -5.30052,15.42568 v 46.20228 H 424.25111 V 97.39084 h 18.98954 v 12.34021 h 0.31477 c 2.95425,-4.69423 6.64601,-8.22902 11.07779,-10.601053 4.48244,-2.426847 9.49394,-3.63944 15.03034,-3.63944 8.96571,0 15.74377,2.847102 20.33252,8.543793 4.64191,5.64437 6.96162,13.87256 6.96162,24.68623 z"
       fill="#212121"
       id="path1"
       style="fill:#ffffff;fill-opacity:1;stroke-width:8.30543"
       clip-path="none" />
    <path
       d="m 349.1451,169.46204 9.41503,-12.1824 c 3.0589,2.90192 6.32874,5.0904 9.81038,6.5671 3.48247,1.47505 7.14765,2.21506 10.99722,2.21506 4.37696,0 7.72737,-0.84466 10.04708,-2.53232 2.37452,-1.68684 3.56054,-4.16684 3.56054,-7.43586 0,-2.63697 -1.02821,-4.79971 -3.08547,-6.48903 -2.05725,-1.73999 -5.35285,-3.11205 -9.89011,-4.11202 -10.28295,-2.26987 -17.53525,-5.43424 -21.75441,-9.4956 -4.16684,-4.11202 -6.25067,-9.20242 -6.25067,-15.2687 0,-7.59366 2.87368,-13.68652 8.6227,-18.2761 5.80134,-4.641906 13.21394,-6.961613 22.23198,-6.961613 5.009,0 9.70406,0.737523 14.08269,2.215059 4.42928,1.477536 8.46489,3.770664 12.10433,6.882704 l -8.86106,11.78873 c -3.11205,-2.3222 -6.06629,-4.00903 -8.86107,-5.06382 -2.79394,-1.10711 -5.82792,-1.66109 -9.09694,-1.66109 -4.11451,0 -7.22655,0.81892 -9.33613,2.45343 -2.05726,1.58218 -3.08547,3.77066 -3.08547,6.56544 0,2.6893 1.08054,4.7723 3.24327,6.24984 2.16191,1.42521 6.14519,2.79727 11.94653,4.11451 8.64845,1.89945 15.11174,4.93259 19.38322,9.09943 4.32381,4.16434 6.48654,9.54626 6.48654,16.13745 0,7.8586 -2.89942,14.16159 -8.7016,18.91064 -5.74902,4.74655 -13.42407,7.11858 -23.02182,7.11858 -5.85699,0 -11.34107,-0.89698 -16.45721,-2.6893 -5.11698,-1.84712 -9.62517,-4.563 -13.52955,-8.15012 z"
       fill="#212121"
       id="path2"
       style="fill:#ffffff;fill-opacity:1;stroke-width:8.30543"
       clip-path="none" />
    <path
       d="m 337.83642,178.4045 h -18.98704 v -46.44065 c 0,-7.38435 -1.23834,-12.79202 -3.71834,-16.21884 -2.42685,-3.42931 -6.35532,-5.14272 -11.78956,-5.14272 -4.85121,0 -8.88681,2.13615 -12.10434,6.40764 -3.21669,4.27148 -4.82462,9.4931 -4.82462,15.66487 v 45.7297 h -18.98705 v -47.39079 c 0,-6.80381 -1.29399,-11.89421 -3.87864,-15.2687 -2.58465,-3.42931 -6.48571,-5.14272 -11.70733,-5.14272 -5.01233,0 -9.07368,2.03067 -12.18324,6.09286 -3.11204,4.05886 -4.66765,9.44078 -4.66765,16.13662 V 178.4045 H 215.99907 V 97.39084 h 18.98954 v 12.02543 h 0.31478 c 2.74162,-4.37945 6.32873,-7.78052 10.76051,-10.207371 4.42929,-2.479171 9.33614,-3.718342 14.71473,-3.718342 5.64438,0 10.46983,1.372888 14.47886,4.114511 4.00737,2.689302 6.90929,6.407632 8.7016,11.154192 3.11205,-5.11366 6.93504,-8.93913 11.47146,-11.471459 4.58958,-2.529835 9.86353,-3.797244 15.82268,-3.797244 8.65094,0 15.24462,2.742454 19.77855,8.229013 4.53726,5.43176 6.80464,13.60762 6.80464,24.52594 z"
       fill="#212121"
       id="path3"
       style="fill:#ffffff;fill-opacity:1;stroke-width:8.30543"
       clip-path="none" />
    <path
       d="m 90.626095,154.33869 c 0,0 -18.745856,39.90676 -47.579987,38.44334 -28.826906,-1.45677 -35.9959872,-52.22455 27.488817,-75.76961 0,0 26.199815,10.16252 20.083695,37.32627 z"
       fill="#6b6b6b"
       id="path4"
       style="stroke-width:8.30543"
       clip-path="none" />
    <path
       d="m 90.626095,154.33869 c 0,0 -18.745856,39.90676 -47.579987,38.44334 -28.826906,-1.45677 -35.9959872,-52.22455 27.488817,-75.76961 0,0 26.199815,10.16252 20.083695,37.32627 z"
       fill="url(#paint0_radial_916_90333)"
       id="path5"
       style="fill:url(#paint0_radial_916_90333);stroke-width:8.30543"
       clip-path="none" />
    <path
       d="m 90.626095,154.33869 c 0,0 -18.745856,39.90676 -47.579987,38.44334 -28.826906,-1.45677 -35.9959872,-52.22455 27.488817,-75.76961 0,0 26.199815,10.16252 20.083695,37.32627 z"
       fill="url(#paint1_radial_916_90333)"
       id="path6"
       style="fill:url(#paint1_radial_916_90333);stroke-width:8.30543"
       clip-path="none" />
    <path
       d="m 105.84414,154.92422 c 0,0 -8.307096,38.20166 15.07436,37.86363 17.63077,-0.25747 28.2285,-25.31828 12.78704,-62.76498 0,0 -13.12757,-6.24485 -27.8614,24.90135 z"
       fill="url(#paint2_radial_916_90333)"
       id="path7"
       style="fill:url(#paint2_radial_916_90333);stroke-width:8.30543"
       clip-path="none" />
    <path
       d="m 105.84414,154.92422 c 0,0 -8.307096,38.20166 15.07436,37.86363 17.63077,-0.25747 28.2285,-25.31828 12.78704,-62.76498 0,0 -13.12757,-6.24485 -27.8614,24.90135 z"
       fill="url(#paint3_radial_916_90333)"
       id="path8"
       style="fill:url(#paint3_radial_916_90333);stroke-width:8.30543"
       clip-path="none" />
    <path
       d="m 105.84414,154.92422 c 0,0 -8.307096,38.20166 15.07436,37.86363 17.63077,-0.25747 28.2285,-25.31828 12.78704,-62.76498 0,0 -13.12757,-6.24485 -27.8614,24.90135 z"
       fill="url(#paint4_radial_916_90333)"
       id="path9"
       style="fill:url(#paint4_radial_916_90333);stroke-width:8.30543"
       clip-path="none" />
    <path
       d="m 105.83833,154.91508 c 0,0 7.87687,-94.428011 49.15403,-102.881777 25.54917,-5.231923 36.98159,10.348235 36.98159,30.264077 0,27.1762 -28.68945,42.07531 -47.18564,47.56437 -20.77687,6.16595 -31.99668,15.91154 -38.94998,25.06081 z"
       fill="url(#paint5_radial_916_90333)"
       id="path10"
       style="fill:url(#paint5_radial_916_90333);stroke-width:8.30543"
       clip-path="none" />
    <path
       d="m 105.83833,154.91508 c 0,0 7.87687,-94.428011 49.15403,-102.881777 25.54917,-5.231923 36.98159,10.348235 36.98159,30.264077 0,27.1762 -28.68945,42.07531 -47.18564,47.56437 -20.77687,6.16595 -31.99668,15.91154 -38.94998,25.06081 z"
       fill="url(#paint6_radial_916_90333)"
       id="path11"
       style="fill:url(#paint6_radial_916_90333);stroke-width:8.30543"
       clip-path="none" />
    <path
       d="m 105.83833,154.91508 c 0,0 7.87687,-94.428011 49.15403,-102.881777 25.54917,-5.231923 36.98159,10.348235 36.98159,30.264077 0,27.1762 -28.68945,42.07531 -47.18564,47.56437 -20.77687,6.16595 -31.99668,15.91154 -38.94998,25.06081 z"
       fill="url(#paint7_radial_916_90333)"
       id="path12"
       style="fill:url(#paint7_radial_916_90333);stroke-width:8.30543"
       clip-path="none" />
    <path
       d="m 90.605331,154.34118 c 0,0 4.57131,-15.94892 -38.592846,-38.06545 C 8.8401073,94.150061 3.7958037,67.288885 3.109119,51.801914 2.4221767,36.314943 7.0799373,23.016785 14.91445,15.510253 26.011669,4.8746175 36.092801,2.980132 50.824642,4.2430393 70.407603,5.9223809 90.920107,25.973684 101.15904,57.334992 116.04238,102.91977 90.605331,154.34118 90.605331,154.34118 Z"
       fill="url(#paint8_linear_916_90333)"
       id="path13"
       style="fill:url(#paint8_linear_916_90333);stroke-width:8.30543"
       clip-path="none" />
    <path
       d="m 90.605331,154.34118 c 0,0 4.57131,-15.94892 -38.592846,-38.06545 C 8.8401073,94.150061 3.7958037,67.288885 3.109119,51.801914 2.4221767,36.314943 7.0799373,23.016785 14.91445,15.510253 26.011669,4.8746175 36.092801,2.980132 50.824642,4.2430393 70.407603,5.9223809 90.920107,25.973684 101.15904,57.334992 116.04238,102.91977 90.605331,154.34118 90.605331,154.34118 Z"
       fill="url(#paint9_radial_916_90333)"
       id="path14"
       style="fill:url(#paint9_radial_916_90333);stroke-width:8.30543"
       clip-path="none" />
    <path
       d="m 90.605331,154.34118 c 0,0 4.57131,-15.94892 -38.592846,-38.06545 C 8.8401073,94.150061 3.7958037,67.288885 3.109119,51.801914 2.4221767,36.314943 7.0799373,23.016785 14.91445,15.510253 26.011669,4.8746175 36.092801,2.980132 50.824642,4.2430393 70.407603,5.9223809 90.920107,25.973684 101.15904,57.334992 116.04238,102.91977 90.605331,154.34118 90.605331,154.34118 Z"
       fill="url(#paint10_radial_916_90333)"
       fill-opacity="0.2"
       id="path15"
       style="fill:url(#paint10_radial_916_90333);stroke-width:8.30543"
       clip-path="none" />
    <path
       d="m 90.605331,154.34118 c 0,0 4.57131,-15.94892 -38.592846,-38.06545 C 8.8401073,94.150061 3.7958037,67.288885 3.109119,51.801914 2.4221767,36.314943 7.0799373,23.016785 14.91445,15.510253 26.011669,4.8746175 36.092801,2.980132 50.824642,4.2430393 70.407603,5.9223809 90.920107,25.973684 101.15904,57.334992 116.04238,102.91977 90.605331,154.34118 90.605331,154.34118 Z"
       fill="url(#paint11_radial_916_90333)"
       id="path16"
       style="fill:url(#paint11_radial_916_90333);stroke-width:8.30543"
       clip-path="none" />
    <path
       d="m 90.605331,154.34118 c 0,0 4.57131,-15.94892 -38.592846,-38.06545 C 8.8401073,94.150061 3.7958037,67.288885 3.109119,51.801914 2.4221767,36.314943 7.0799373,23.016785 14.91445,15.510253 26.011669,4.8746175 36.092801,2.980132 50.824642,4.2430393 70.407603,5.9223809 90.920107,25.973684 101.15904,57.334992 116.04238,102.91977 90.605331,154.34118 90.605331,154.34118 Z"
       fill="url(#paint12_radial_916_90333)"
       id="path17"
       style="fill:url(#paint12_radial_916_90333);stroke-width:8.30543"
       clip-path="none" />
    <path
       d="m 90.605331,154.34118 c 0,0 4.57131,-15.94892 -38.592846,-38.06545 C 8.8401073,94.150061 3.7958037,67.288885 3.109119,51.801914 2.4221767,36.314943 7.0799373,23.016785 14.91445,15.510253 26.011669,4.8746175 36.092801,2.980132 50.824642,4.2430393 70.407603,5.9223809 90.920107,25.973684 101.15904,57.334992 116.04238,102.91977 90.605331,154.34118 90.605331,154.34118 Z"
       fill="url(#paint13_linear_916_90333)"
       id="path18"
       style="fill:url(#paint13_linear_916_90333);stroke-width:8.30543"
       clip-path="none" />
    <path
       d="m 90.605331,154.34118 c 0,0 4.57131,-15.94892 -38.592846,-38.06545 C 8.8401073,94.150061 3.7958037,67.288885 3.109119,51.801914 2.4221767,36.314943 7.0799373,23.016785 14.91445,15.510253 26.011669,4.8746175 36.092801,2.980132 50.824642,4.2430393 70.407603,5.9223809 90.920107,25.973684 101.15904,57.334992 116.04238,102.91977 90.605331,154.34118 90.605331,154.34118 Z"
       fill="url(#paint14_radial_916_90333)"
       id="path19"
       style="fill:url(#paint14_radial_916_90333);stroke-width:8.30543"
       clip-path="none" />
    <path
       d="m 90.605331,154.34118 c 0,0 4.57131,-15.94892 -38.592846,-38.06545 C 8.8401073,94.150061 3.7958037,67.288885 3.109119,51.801914 2.4221767,36.314943 7.0799373,23.016785 14.91445,15.510253 26.011669,4.8746175 36.092801,2.980132 50.824642,4.2430393 70.407603,5.9223809 90.920107,25.973684 101.15904,57.334992 116.04238,102.91977 90.605331,154.34118 90.605331,154.34118 Z"
       fill="url(#paint15_radial_916_90333)"
       fill-opacity="0.2"
       id="path20"
       style="fill:url(#paint15_radial_916_90333);stroke-width:8.30543"
       clip-path="none" />
    <path
       d="m 90.605331,154.34118 c 0,0 4.57131,-15.94892 -38.592846,-38.06545 C 8.8401073,94.150061 3.7958037,67.288885 3.109119,51.801914 2.4221767,36.314943 7.0799373,23.016785 14.91445,15.510253 26.011669,4.8746175 36.092801,2.980132 50.824642,4.2430393 70.407603,5.9223809 90.920107,25.973684 101.15904,57.334992 116.04238,102.91977 90.605331,154.34118 90.605331,154.34118 Z"
       fill="url(#paint16_radial_916_90333)"
       id="path21"
       style="fill:url(#paint16_radial_916_90333);stroke-width:8.30543"
       clip-path="none" />
    <path
       d="m 90.605331,154.34118 c 0,0 4.57131,-15.94892 -38.592846,-38.06545 C 8.8401073,94.150061 3.7958037,67.288885 3.109119,51.801914 2.4221767,36.314943 7.0799373,23.016785 14.91445,15.510253 26.011669,4.8746175 36.092801,2.980132 50.824642,4.2430393 70.407603,5.9223809 90.920107,25.973684 101.15904,57.334992 116.04238,102.91977 90.605331,154.34118 90.605331,154.34118 Z"
       fill="url(#paint17_radial_916_90333)"
       id="path22"
       style="fill:url(#paint17_radial_916_90333);stroke-width:8.30543"
       clip-path="none" />
    <path
       d="m 90.605331,154.34118 c 0,0 4.57131,-15.94892 -38.592846,-38.06545 C 8.8401073,94.150061 3.7958037,67.288885 3.109119,51.801914 2.4221767,36.314943 7.0799373,23.016785 14.91445,15.510253 26.011669,4.8746175 36.092801,2.980132 50.824642,4.2430393 70.407603,5.9223809 90.920107,25.973684 101.15904,57.334992 116.04238,102.91977 90.605331,154.34118 90.605331,154.34118 Z"
       fill="url(#paint18_radial_916_90333)"
       id="path23"
       style="fill:url(#paint18_radial_916_90333);stroke-width:8.30543"
       clip-path="none" />
  </g>
  <defs
     id="defs74">
    <radialGradient
       id="paint0_radial_916_90333"
       cx="0"
       cy="0"
       r="1"
       gradientUnits="userSpaceOnUse"
       gradientTransform="matrix(36.132077,-105.89187,69.32944,23.656365,40.267359,219.97318)">
      <stop
         offset="0.045"
         stop-color="#FFC800"
         stop-opacity="0.784314"
         id="stop23" />
      <stop
         offset="0.368273"
         stop-color="#98BD42"
         id="stop24" />
      <stop
         offset="0.587269"
         stop-color="#52B471"
         id="stop25" />
      <stop
         offset="0.767047"
         stop-color="#018D32"
         id="stop26" />
      <stop
         offset="0.878437"
         stop-color="#006523"
         id="stop27" />
    </radialGradient>
    <radialGradient
       id="paint1_radial_916_90333"
       cx="0"
       cy="0"
       r="1"
       gradientUnits="userSpaceOnUse"
       gradientTransform="matrix(36.132077,-105.89187,69.32944,23.656365,40.267359,219.97318)">
      <stop
         offset="0.045"
         stop-color="#FFC800"
         id="stop28" />
      <stop
         offset="0.257166"
         stop-color="#B5BA1E"
         id="stop29" />
      <stop
         offset="0.368273"
         stop-color="#98BD42"
         id="stop30" />
      <stop
         offset="0.587269"
         stop-color="#52B471"
         id="stop31" />
      <stop
         offset="0.767047"
         stop-color="#018D32"
         id="stop32" />
      <stop
         offset="0.878437"
         stop-color="#006523"
         id="stop33" />
    </radialGradient>
    <radialGradient
       id="paint2_radial_916_90333"
       cx="0"
       cy="0"
       r="1"
       gradientUnits="userSpaceOnUse"
       gradientTransform="matrix(-17.88675,-59.027753,55.366428,-16.777285,122.54055,196.72628)">
      <stop
         stop-color="#FFC800"
         id="stop34" />
      <stop
         offset="0.286785"
         stop-color="#FFB657"
         id="stop35" />
      <stop
         offset="0.64175"
         stop-color="#FF5F3D"
         id="stop36" />
      <stop
         offset="1"
         stop-color="#B43014"
         id="stop37" />
    </radialGradient>
    <radialGradient
       id="paint3_radial_916_90333"
       cx="0"
       cy="0"
       r="1"
       gradientUnits="userSpaceOnUse"
       gradientTransform="matrix(-18.380536,-57.531422,104.86416,-33.502728,122.7922,192.79034)">
      <stop
         stop-color="#FFB657"
         id="stop38" />
      <stop
         offset="0.642929"
         stop-color="#FF835C"
         id="stop39" />
      <stop
         offset="0.960593"
         stop-color="#CA2134"
         id="stop40" />
    </radialGradient>
    <radialGradient
       id="paint4_radial_916_90333"
       cx="0"
       cy="0"
       r="1"
       gradientUnits="userSpaceOnUse"
       gradientTransform="matrix(-5.5349201,69.58404,-59.181207,-4.707448,124.82288,129.51126)">
      <stop
         offset="0.706643"
         stop-color="#FFCD0F"
         stop-opacity="0"
         id="stop41" />
      <stop
         offset="1"
         stop-color="#FFCD0F"
         id="stop42" />
    </radialGradient>
    <radialGradient
       id="paint5_radial_916_90333"
       cx="0"
       cy="0"
       r="1"
       gradientUnits="userSpaceOnUse"
       gradientTransform="matrix(-39.708569,102.67233,-81.432023,-31.49387,177.27002,34.302537)">
      <stop
         offset="0.0661714"
         stop-color="#BD00FF"
         id="stop43" />
      <stop
         offset="1"
         stop-color="#FF5F3D"
         id="stop44" />
    </radialGradient>
    <radialGradient
       id="paint6_radial_916_90333"
       cx="0"
       cy="0"
       r="1"
       gradientUnits="userSpaceOnUse"
       gradientTransform="matrix(22.537764,-70.833075,152.15471,48.412791,108.58327,157.00888)">
      <stop
         stop-color="#FF9E3D"
         id="stop45" />
      <stop
         offset="1"
         stop-color="#E23694"
         stop-opacity="0"
         id="stop46" />
    </radialGradient>
    <radialGradient
       id="paint7_radial_916_90333"
       cx="0"
       cy="0"
       r="1"
       gradientUnits="userSpaceOnUse"
       gradientTransform="matrix(-2.146435,-110.18469,131.72904,-2.5661263,120.74741,157.72232)">
      <stop
         offset="0.0661714"
         stop-color="#BD00FF"
         id="stop47" />
      <stop
         offset="1"
         stop-color="#FF5F3D"
         id="stop48" />
    </radialGradient>
    <linearGradient
       id="paint8_linear_916_90333"
       x1="12.2697"
       y1="18.946301"
       x2="5.0995202"
       y2="-0.056229498"
       gradientUnits="userSpaceOnUse"
       gradientTransform="matrix(8.305431,0,0,8.305431,-1.3050598,-3.0184987)">
      <stop
         offset="0.38"
         stop-color="#0D91E1"
         id="stop49" />
      <stop
         offset="0.75"
         stop-color="#2FA2AA"
         id="stop50" />
    </linearGradient>
    <radialGradient
       id="paint9_radial_916_90333"
       cx="0"
       cy="0"
       r="1"
       gradientUnits="userSpaceOnUse"
       gradientTransform="matrix(-1.0733418,-137.73059,243.8633,-1.9004396,73.517488,129.10928)">
      <stop
         stop-color="#3DCBFF"
         id="stop51" />
      <stop
         offset="1"
         stop-color="#0D91E1"
         stop-opacity="0"
         id="stop52" />
    </radialGradient>
    <radialGradient
       id="paint10_radial_916_90333"
       cx="0"
       cy="0"
       r="1"
       gradientUnits="userSpaceOnUse"
       gradientTransform="matrix(5.0083721,-138.44652,240.15308,8.6876577,77.811313,142.3473)">
      <stop
         stop-color="white"
         id="stop53" />
      <stop
         offset="1"
         stop-color="#0D91E1"
         stop-opacity="0"
         id="stop54" />
    </radialGradient>
    <radialGradient
       id="paint11_radial_916_90333"
       cx="0"
       cy="0"
       r="1"
       gradientUnits="userSpaceOnUse"
       gradientTransform="matrix(1.788742,169.92801,-269.57936,2.8377189,71.371116,-25.077142)">
      <stop
         offset="0.015"
         stop-color="#0A308F"
         id="stop55" />
      <stop
         offset="0.205"
         stop-color="#2253CE"
         id="stop56" />
      <stop
         offset="1"
         stop-color="#2253CE"
         stop-opacity="0"
         id="stop57" />
    </radialGradient>
    <radialGradient
       id="paint12_radial_916_90333"
       cx="0"
       cy="0"
       r="1"
       gradientUnits="userSpaceOnUse"
       gradientTransform="matrix(-5.3661994,-106.96484,189.38976,-9.5012827,96.772113,167.03021)">
      <stop
         stop-color="#3DEE7B"
         id="stop58" />
      <stop
         offset="1"
         stop-color="#0D91E1"
         stop-opacity="0"
         id="stop59" />
    </radialGradient>
    <linearGradient
       id="paint13_linear_916_90333"
       x1="12.2697"
       y1="18.946301"
       x2="5.0995202"
       y2="-0.056229498"
       gradientUnits="userSpaceOnUse"
       gradientTransform="matrix(8.305431,0,0,8.305431,-1.3050598,-3.0184987)">
      <stop
         offset="0.38"
         stop-color="#0D91E1"
         id="stop60" />
      <stop
         offset="0.75"
         stop-color="#2FA2AA"
         id="stop61" />
    </linearGradient>
    <radialGradient
       id="paint14_radial_916_90333"
       cx="0"
       cy="0"
       r="1"
       gradientUnits="userSpaceOnUse"
       gradientTransform="matrix(4.6505943,146.3168,-259.06506,8.2342317,47.044591,7.8352046)">
      <stop
         stop-color="#3DCBFF"
         id="stop62" />
      <stop
         offset="1"
         stop-color="#0D91E1"
         stop-opacity="0"
         id="stop63" />
    </radialGradient>
    <radialGradient
       id="paint15_radial_916_90333"
       cx="0"
       cy="0"
       r="1"
       gradientUnits="userSpaceOnUse"
       gradientTransform="matrix(-3.5773717,105.89197,-183.68277,-6.2053953,44.540338,-5.4012438)">
      <stop
         stop-color="white"
         id="stop64" />
      <stop
         offset="1"
         stop-color="#0D91E1"
         stop-opacity="0"
         id="stop65" />
    </radialGradient>
    <radialGradient
       id="paint16_radial_916_90333"
       cx="0"
       cy="0"
       r="1"
       gradientUnits="userSpaceOnUse"
       gradientTransform="matrix(3.9351677,-171.71621,272.41638,6.2428825,50.622073,160.59101)">
      <stop
         offset="0.015"
         stop-color="#0A308F"
         id="stop66" />
      <stop
         offset="0.205"
         stop-color="#2253CE"
         id="stop67" />
      <stop
         offset="1"
         stop-color="#2253CE"
         stop-opacity="0"
         id="stop68" />
    </radialGradient>
    <radialGradient
       id="paint17_radial_916_90333"
       cx="0"
       cy="0"
       r="1"
       gradientUnits="userSpaceOnUse"
       gradientTransform="matrix(-12.367887,142.28367,-229.52219,-19.951022,66.804125,-10.26919)">
      <stop
         stop-color="#3BD5FF"
         id="stop69" />
      <stop
         offset="0.417149"
         stop-color="#0D91E1"
         id="stop70" />
      <stop
         offset="0.743961"
         stop-color="#2764E7"
         id="stop71" />
      <stop
         offset="1"
         stop-color="#2052CB"
         id="stop72" />
    </radialGradient>
    <radialGradient
       id="paint18_radial_916_90333"
       cx="0"
       cy="0"
       r="1"
       gradientUnits="userSpaceOnUse"
       gradientTransform="matrix(-3.935096,125.20983,-221.69372,-6.9673932,75.306229,-31.158877)">
      <stop
         stop-color="#3DEEDF"
         stop-opacity="0.7"
         id="stop73" />
      <stop
         offset="1"
         stop-color="#0D91E1"
         stop-opacity="0"
         id="stop74" />
    </radialGradient>
  </defs>
</svg>
