<?xml version="1.0" encoding="UTF-8" standalone="no"?>
<svg
   viewBox="0 0 120 33"
   fill-rule="evenodd"
   clip-rule="evenodd"
   stroke-linejoin="round"
   stroke-miterlimit="2"
   class="logo--JVgVN light--F+p2x"
   version="1.1"
   id="svg2"
   sodipodi:docname="pixabay.svg"
   inkscape:version="1.4 (86a8ad7, 2024-10-11)"
   xml:space="preserve"
   xmlns:inkscape="http://www.inkscape.org/namespaces/inkscape"
   xmlns:sodipodi="http://sodipodi.sourceforge.net/DTD/sodipodi-0.dtd"
   xmlns="http://www.w3.org/2000/svg"
   xmlns:svg="http://www.w3.org/2000/svg"><defs
     id="defs2" /><sodipodi:namedview
     id="namedview2"
     pagecolor="#505050"
     bordercolor="#ffffff"
     borderopacity="1"
     inkscape:showpageshadow="0"
     inkscape:pageopacity="0"
     inkscape:pagecheckerboard="1"
     inkscape:deskcolor="#505050"
     inkscape:zoom="9.5695118"
     inkscape:cx="59.041675"
     inkscape:cy="16.876514"
     inkscape:window-width="3440"
     inkscape:window-height="1377"
     inkscape:window-x="-8"
     inkscape:window-y="-8"
     inkscape:window-maximized="1"
     inkscape:current-layer="svg2" /><path
     id="path1"
     d="M 81.937662,5.9027159 V 15.961008 c -0.08486,1.525519 0.346026,3.091748 1.344901,4.268764 1.612323,2.027548 4.627522,2.742332 6.972484,1.63463 2.40067,-1.061062 3.856614,-3.845228 3.357823,-6.42339 -0.439842,-2.717434 -3.019835,-4.890287 -5.78067,-4.822919 H 84.269414 V 5.9027159 Z M 54.275463,10.561159 v 11.763773 h 2.303918 V 10.561159 Z m 20.669472,0 -0.0012,0.0012 c -1.593537,-0.01555 -3.161801,0.673518 -4.264968,1.815553 -1.478233,1.48795 -1.998552,3.798315 -1.370205,5.786997 0.683406,2.289252 2.870401,4.030706 5.25941,4.147306 2.081963,0.02591 4.163095,0.0062 6.242466,0.01265 v -4.93046 c 0.01489,-1.076609 0.02192,-2.186762 -0.427635,-3.19082 C 79.518665,12.04389 77.278948,10.515749 74.945,10.561092 Z m 25.520225,0 -0.002,0.0012 c -1.593534,-0.0149 -3.161179,0.674166 -4.263699,1.815553 -1.478233,1.48795 -1.999816,3.798315 -1.371471,5.786997 0.684703,2.289252 2.872901,4.030706 5.26321,4.147306 2.08067,0.02591 4.16184,0.0062 6.2412,0.01265 v -4.93046 c 0.0143,-1.076609 0.0207,-2.186762 -0.43016,-3.19082 -0.86414,-2.159695 -3.10194,-3.687836 -5.43654,-3.642493 z m -34.1033,0.0051 -2.77204,4.033438 h -0.0835 l -2.77204,-4.032173 h -2.856807 l 3.948671,5.71235 -4.452218,6.047628 h 2.856807 l 3.275587,-4.368715 h 0.0835 l 3.276853,4.368715 h 2.856807 l -4.453482,-6.050158 3.94867,-5.711085 z m 41.0391,0.02404 v 5.460577 c -0.11272,1.872081 0.68682,3.773567 2.15209,4.955764 2.00941,1.719206 5.21351,1.80529 7.27993,0.137906 0.024,1.259283 -0.67512,2.505135 -1.77634,3.123763 -0.88033,0.563569 -1.94405,0.462323 -2.93905,0.466857 v 2.330487 c 0.54479,-0.0039 1.0905,0.01458 1.63464,-0.01392 2.86513,-0.148989 5.32069,-2.716473 5.4049,-5.57318 0.0162,-3.628016 0.002,-7.257034 0.006,-10.886993 h -2.33176 v 3.680449 c -0.0265,0.966487 0.062,1.94111 -0.0696,2.899824 -0.30057,1.71208 -2.00522,3.017882 -3.73738,2.839095 -1.68099,-0.08356 -3.14801,-1.515014 -3.27432,-3.190819 -0.0389,-2.075485 -0.007,-4.153682 -0.0177,-6.229814 z m -60.100511,0.02657 c -0.294739,0 -0.592869,0.02303 -0.88437,0.06579 -2.679863,0.361461 -4.898274,2.786929 -4.976008,5.498533 -0.01555,3.637928 -0.0018,7.277516 -0.0063,10.916092 h 2.330487 v -4.716643 h 1.47142 c 1.506735,-0.03563 3.089026,0.178868 4.490173,-0.516199 2.310629,-1.017661 3.787636,-3.622928 3.42488,-6.13113 -0.301865,-2.853467 -2.989015,-5.179956 -5.850257,-5.115178 z m 27.644486,2.277349 c 1.758073,-0.04664 3.382441,1.422128 3.51977,3.174371 0.03948,1.306376 0.008,2.61443 0.01771,3.922102 h -1.972437 c -0.987863,-0.03627 -2.018865,0.132258 -2.952963,-0.274548 -1.515155,-0.59207 -2.428747,-2.322329 -2.122995,-3.911979 0.262351,-1.655076 1.838347,-2.951404 3.510912,-2.909946 z m 25.521495,0 c 1.75872,-0.04664 3.3825,1.422128 3.51724,3.174371 0.0382,1.306376 0.007,2.61443 0.0177,3.922102 h -1.97117 c -0.98657,-0.03627 -2.0189,0.132258 -2.951705,-0.274548 -1.514505,-0.59207 -2.427509,-2.322329 -2.120461,-3.911979 0.261055,-1.655076 1.837112,-2.951404 3.508386,-2.909946 z m -13.370573,0.05061 c 0.483729,-0.0023 0.96676,0.0073 1.446116,0.07338 1.732811,0.318708 3.028977,2.079443 2.808731,3.829742 -0.131499,1.761312 -1.748123,3.249494 -3.518504,3.202206 l 0.0012,-0.0051 c -1.765199,0.03628 -3.352218,-1.353099 -3.537483,-3.108582 -0.0596,-1.326651 -0.01232,-2.658617 -0.02656,-3.989155 h 1.375265 c 0.482596,0.01457 0.967448,-1.82e-4 1.451178,-0.0025 z m -39.877645,0.0012 c 0.412331,-0.01353 0.827355,0.04574 1.222177,0.185983 1.635643,0.502677 2.705875,2.305113 2.370974,3.981566 -0.252634,1.666736 -1.829278,2.977973 -3.510914,2.936514 H 43.764232 V 18.14724 c 0.04017,-1.122601 -0.172147,-2.326802 0.425105,-3.347703 0.579115,-1.118877 1.791879,-1.812912 3.028875,-1.853509 z"
     style="fill:#ffffff;fill-opacity:1;stroke:none;stroke-width:0.647779" /><g
     style="clip-rule:evenodd;fill:#00ab6b;fill-opacity:1;fill-rule:evenodd;stroke:none"
     id="g2"
     transform="matrix(0.12621522,0,0,0.12621522,0.68065059,0.34445177)"><path
       id="path48"
       style="fill:#00ab6b;fill-opacity:1;stroke:none;stroke-width:6.69937"
       d="m 14.568578,1.2156211 c -7.3693001,0 -13.3464162,5.9770488 -13.3464162,13.3464289 v 226.8759 c 0,7.36931 5.9771161,13.34643 13.3464162,13.34643 H 241.43143 c 7.3693,0 13.34641,-5.97712 13.34641,-13.34643 V 14.56205 c 0,-7.3693131 -5.97711,-13.3464289 -13.34641,-13.3464289 z M 123.87832,58.04254 h 23.48706 l 22.7805,34.229589 h 0.69349 L 193.63295,58.04254 h 23.47399 l -32.4501,48.50502 36.59795,51.35755 h -23.47398 l -26.94144,-37.09518 h -0.69349 l -26.92835,37.09518 h -23.48707 l 36.61104,-51.35755 z m -40.876662,0.196292 c 13.698006,0.354397 25.112902,5.207759 34.242712,14.576367 9.12321,9.354941 13.86063,21.108862 14.21,35.250241 -0.34938,14.15504 -5.08679,25.94487 -14.21,35.36795 -9.12981,9.4299 -20.544706,14.32634 -34.242712,14.69414 H 53.92741 v 40.02616 H 34.758299 v -90.08825 c 0.34274,-14.141379 5.048026,-25.8953 14.105328,-35.250241 9.063887,-9.368608 20.440025,-14.22197 34.138031,-14.576367 z m 0,19.810254 c -8.27945,0.21103 -15.13724,3.122981 -20.595348,8.753672 -5.451519,5.623858 -8.274569,12.717961 -8.4789,21.262682 v 30.25183 h 29.074248 c 8.378326,-0.20433 15.300644,-3.1355 20.778532,-8.77986 5.47788,-5.65789 8.32039,-12.81142 8.51816,-21.47197 -0.19777,-8.544721 -3.04028,-15.638824 -8.51816,-21.262682 -5.477888,-5.630691 -12.400206,-8.542642 -20.778532,-8.753672 z" /></g></svg>
