<?xml version="1.0" encoding="UTF-8" standalone="no"?>
<svg
   width="264"
   height="60"
   version="1.1"
   id="svg1"
   sodipodi:docname="spacecom.svg"
   inkscape:version="1.4 (86a8ad7, 2024-10-11)"
   xmlns:inkscape="http://www.inkscape.org/namespaces/inkscape"
   xmlns:sodipodi="http://sodipodi.sourceforge.net/DTD/sodipodi-0.dtd"
   xmlns="http://www.w3.org/2000/svg"
   xmlns:svg="http://www.w3.org/2000/svg">
  <defs
     id="defs1" />
  <sodipodi:namedview
     id="namedview1"
     pagecolor="#505050"
     bordercolor="#ffffff"
     borderopacity="1"
     inkscape:showpageshadow="0"
     inkscape:pageopacity="0"
     inkscape:pagecheckerboard="1"
     inkscape:deskcolor="#505050"
     inkscape:zoom="2.174889"
     inkscape:cx="180.69887"
     inkscape:cy="25.05875"
     inkscape:window-width="3440"
     inkscape:window-height="1377"
     inkscape:window-x="-8"
     inkscape:window-y="-8"
     inkscape:window-maximized="1"
     inkscape:current-layer="svg1" />
  <g
     fill="#ffffff"
     id="g1"
     transform="matrix(1.9830608,0,0,1.9830608,1.2211064,0.254088)">
    <path
       d="M 75.879,29.639 63.62,0.414 H 57.154 L 44.845,29.64 h 6.516 l 9,-21.518 9.053,21.518 z M 12.31,29.948 C 7.914,29.948 3.465,28.396 0,25.293 l 3.775,-4.5 c 2.586,2.172 5.329,3.518 8.64,3.518 2.585,0 4.189,-1.036 4.189,-2.743 v -0.103 c 0,-1.604 -0.983,-2.43 -5.846,-3.672 -5.844,-1.5 -9.62,-3.104 -9.62,-8.845 V 8.845 c 0,-5.277 4.24,-8.741 10.137,-8.741 4.243,0 7.81,1.344 10.76,3.671 l -3.31,4.81 C 16.138,6.828 13.604,5.741 11.172,5.741 c -2.43,0 -3.724,1.138 -3.724,2.534 v 0.053 c 0,1.913 1.241,2.534 6.259,3.827 5.897,1.552 9.207,3.673 9.207,8.69 v 0.103 c 0.05,5.741 -4.346,9 -10.603,9 z m 24.724,-9.155 h -4.862 v 8.742 H 25.81 V 0.518 h 11.844 c 6.93,0 11.12,4.086 11.12,10.034 v 0.103 c -0.05,6.673 -5.223,10.138 -11.74,10.138 z m 5.225,-10.138 c 0,-2.844 -1.966,-4.396 -5.173,-4.396 h -4.914 v 8.845 h 5.07 c 3.206,0 5.069,-1.915 5.069,-4.397 V 10.655 Z M 89.121,30 C 80.586,30 74.225,23.432 74.225,15.104 V 15 c 0,-8.225 6.207,-15 15.103,-15 5.483,0 8.74,1.81 11.43,4.5 L 96.725,9.207 C 94.5,7.189 92.225,5.948 89.328,5.948 c -4.914,0 -8.432,4.087 -8.432,9.052 v 0.104 c 0,4.965 3.466,9.103 8.432,9.103 3.31,0 5.327,-1.345 7.604,-3.414 l 4.033,4.086 C 98.068,28.035 94.707,30 89.12,30 Z m 15.207,-0.465 V 0.518 h 17.326 v 5.689 h -11.016 v 5.897 h 9.155 v 5.689 h -9.155 v 6.052 h 11.224 v 5.69 z m 20.69,-29.121 h 2.017 v 2.068 h -2.017 z m -0.157,6.621 c 0,-2.017 1.553,-3.517 3.518,-3.517 1.914,0 3.517,1.5 3.517,3.568 0,1.293 -0.414,2.07 -1.138,2.69 l -1.24,-1.19 c 0.464,-0.414 0.723,-0.879 0.723,-1.55 0,-0.984 -0.827,-1.657 -1.862,-1.657 -1.034,0 -1.861,0.673 -1.861,1.707 0,0.621 0.257,1.086 0.723,1.553 l -1.137,1.136 c -0.725,-0.62 -1.243,-1.396 -1.243,-2.74 z m 0,7.19 c 0,-2.121 1.553,-3.673 3.518,-3.673 1.966,0 3.517,1.552 3.517,3.673 0,2.12 -1.551,3.671 -3.517,3.671 -1.965,0 -3.518,-1.603 -3.518,-3.671 z m 3.518,1.757 c 0.983,0 1.862,-0.723 1.862,-1.757 0,-1.086 -0.827,-1.76 -1.862,-1.76 -0.983,0 -1.861,0.724 -1.861,1.76 0,1.086 0.827,1.757 1.86,1.757 z m -3.361,11.69 h 3.775 c 0.932,0 1.396,-0.413 1.396,-1.137 0,-0.724 -0.464,-1.19 -1.396,-1.19 h -3.775 v -1.913 h 3.775 c 0.932,0 1.396,-0.414 1.396,-1.139 0,-0.725 -0.464,-1.138 -1.396,-1.138 h -3.775 v -1.913 h 6.775 v 1.913 h -0.982 c 0.568,0.466 1.085,1.034 1.085,2.017 0,0.88 -0.414,1.553 -1.085,1.914 0.671,0.57 1.085,1.293 1.085,2.225 0,1.448 -0.878,2.275 -2.482,2.275 h -4.396 z"
       id="path1" />
  </g>
</svg>
