<?xml version="1.0" encoding="UTF-8" standalone="no"?>
<!-- Created with Inkscape (http://www.inkscape.org/) -->

<svg
   width="97.689842mm"
   height="29.025379mm"
   viewBox="0 0 97.689842 29.025379"
   version="1.1"
   id="svg1"
   xml:space="preserve"
   inkscape:version="1.3 (0e150ed, 2023-07-21)"
   sodipodi:docname="Atlantic_Salmon-side.svg"
   xmlns:inkscape="http://www.inkscape.org/namespaces/inkscape"
   xmlns:sodipodi="http://sodipodi.sourceforge.net/DTD/sodipodi-0.dtd"
   xmlns="http://www.w3.org/2000/svg"
   xmlns:svg="http://www.w3.org/2000/svg"><sodipodi:namedview
     id="namedview1"
     pagecolor="#505050"
     bordercolor="#ffffff"
     borderopacity="1"
     inkscape:showpageshadow="0"
     inkscape:pageopacity="0"
     inkscape:pagecheckerboard="1"
     inkscape:deskcolor="#505050"
     inkscape:document-units="mm"
     inkscape:zoom="0.91936027"
     inkscape:cx="52.210218"
     inkscape:cy="72.876763"
     inkscape:current-layer="layer1" /><defs
     id="defs1"><inkscape:path-effect
       effect="simplify"
       id="path-effect1"
       is_visible="true"
       lpeversion="1.3"
       threshold="23.711333"
       steps="1"
       smooth_angles="360"
       helper_size="10"
       simplify_individual_paths="false"
       simplify_just_coalesce="false" /></defs><g
     inkscape:label="Layer 1"
     inkscape:groupmode="layer"
     id="layer1"
     transform="translate(-56.090623,-133.4801)"><path
       style="fill:#ffffff;fill-opacity:1"
       d="m 101.81341,162.00778 c -1.834962,-0.62741 -3.370825,-2.30056 -5.302809,-2.34783 -4.254624,-0.1041 -8.502483,-0.46404 -12.747234,-0.77429 -3.192878,-0.23337 -6.352017,-0.70444 -9.527817,-1.16538 -3.895245,-0.56536 -7.614227,-0.98032 -11.260693,-2.34997 -2.005564,-0.75331 -4.039077,-1.50685 -6.003639,-2.32191 -1.071161,-0.4444 -1.370129,-1.30163 0.279215,-1.5214 0.912574,-0.1216 1.576812,0.29907 2.490117,0.40004 0.585694,0.0648 0.573651,0.054 0.143308,-0.37187 -0.690927,-0.68374 -1.6615,-1.14243 -2.616771,-0.94338 -1.058223,0.22051 -1.508563,-0.81233 -0.476644,-1.39641 2.97772,-1.68545 6.177067,-2.9572 9.398188,-4.09333 5.429484,-1.91505 11.063663,-3.14369 16.746083,-4.10548 2.730491,-0.46215 5.738939,-0.27433 8.127015,-1.8482 2.489728,-1.64087 3.8583,-5.63693 6.857034,-5.68804 1.168913,-0.0199 1.918761,1.24338 2.754277,1.96011 1.12562,0.96558 2.02341,2.36456 3.42297,2.85598 0.73925,0.25957 1.76217,1.9172 0.18457,2.02667 -1.05517,0.0732 1.07764,0.20443 1.39982,0.22433 5.83791,0.36056 11.67512,0.86721 17.44791,1.79436 1.82804,0.29359 3.53355,-0.24295 5.32079,-0.67994 0.94864,-0.23194 2.76069,1.18486 1.17496,1.62788 -1.18078,0.32988 0.98758,0.64464 1.39931,0.72617 2.0262,0.40123 4.05269,1.1815 6.11553,1.02897 2.42383,-0.17923 4.55585,-1.53165 6.54823,-2.80525 2.68859,-1.71864 5.73608,-2.75689 8.62657,-4.14254 0.86921,-0.41668 1.51438,-0.0961 1.23629,1.02433 -0.73457,2.9596 -2.23563,5.7495 -2.50318,8.79792 -0.15853,1.80627 0.66153,3.4884 1.07838,5.21046 0.40724,1.68234 1.81235,3.18407 1.64084,4.90921 -0.14259,1.43417 -2.02888,0.52604 -2.83902,0.18608 -2.64487,-1.10987 -4.2449,-1.89181 -6.06359,-2.72046 -2.01136,-0.91644 -3.93431,-2.13444 -6.08754,-2.63394 -1.8336,-0.42537 -3.74532,-0.24828 -5.6083,-0.16671 -1.54476,0.0676 -6.07145,0.28121 -4.57604,0.6567 0.83826,0.21048 2.87245,-0.10804 2.51354,0.69046 -0.72509,1.61319 -2.00159,2.97731 -2.5405,4.66431 -0.44745,1.4007 -2.17816,1.20303 -3.20801,0.76013 -2.08281,-0.89575 -4.18604,-1.76243 -6.33822,-2.48556 -1.33278,-0.44781 -2.55082,0.33133 -3.81419,0.59626 -3.57215,0.74909 -6.99859,1.46553 -10.81044,1.75657 -0.6435,0.0491 -1.18008,-0.12859 -0.66067,0.7618 0.37894,0.64959 2.22041,2.20333 1.01005,2.36683 -0.99221,0.13403 -1.99755,-0.15028 -2.92969,-0.46368 z"
       id="path1"
       sodipodi:nodetypes="csssssscsssssssssssssssssssssssssssssssssssc" /></g></svg>
