<?xml version="1.0" encoding="UTF-8" standalone="no"?>
<!-- Created with Inkscape (http://www.inkscape.org/) -->

<svg
   version="1.1"
   id="svg1"
   width="736.42798"
   height="198.90843"
   viewBox="0 0 736.42798 198.90843"
   sodipodi:docname="CARP.svg"
   inkscape:version="1.4 (86a8ad7, 2024-10-11)"
   xmlns:inkscape="http://www.inkscape.org/namespaces/inkscape"
   xmlns:sodipodi="http://sodipodi.sourceforge.net/DTD/sodipodi-0.dtd"
   xmlns="http://www.w3.org/2000/svg"
   xmlns:svg="http://www.w3.org/2000/svg">
  <defs
     id="defs1" />
  <sodipodi:namedview
     id="namedview1"
     pagecolor="#ffffff"
     bordercolor="#000000"
     borderopacity="0.25"
     inkscape:showpageshadow="2"
     inkscape:pageopacity="0.0"
     inkscape:pagecheckerboard="0"
     inkscape:deskcolor="#d1d1d1"
     inkscape:zoom="1.0107399"
     inkscape:cx="259.71073"
     inkscape:cy="83.602122"
     inkscape:window-width="1366"
     inkscape:window-height="705"
     inkscape:window-x="-8"
     inkscape:window-y="-8"
     inkscape:window-maximized="1"
     inkscape:current-layer="g1" />
  <g
     inkscape:groupmode="layer"
     inkscape:label="Image"
     id="g1"
     transform="translate(-60.572045,-65.037582)">
    <path
       style="fill:#ffffff;fill-opacity:1"
       d="m 388,261.86757 c -4.125,-1.10611 -12.225,-3.85421 -18,-6.10689 l -10.5,-4.09577 -26.5,-0.8207 c -27.14751,-0.84075 -72.56119,-3.81916 -97.5,-6.39444 -15.09682,-1.55896 -28.88208,-4.54305 -45.5,-9.84936 C 172.89618,229.13895 156.61026,225 152.22431,225 c -8.32757,0 -24.15175,-4.70096 -35.37506,-10.50903 -3.66731,-1.89784 -10.82338,-5.27929 -15.90236,-7.51434 -9.996129,-4.39888 -30.506723,-18.4334 -35.875445,-24.54804 -4.585651,-5.22277 -5.435645,-7.99217 -3.589076,-11.6937 C 62.317066,169.0617 63,167.06451 63,166.2967 63,162.98264 66.608637,158.61367 76.230519,150.27853 93.083341,135.67946 101.17475,130.40527 125,118.48929 152.14952,104.91071 180.24951,93.93389 201.59759,88.567637 213.98703,85.453312 234.74328,81.354664 242,80.589548 c 3.025,-0.318943 11.35,-1.249979 18.5,-2.068969 16.22459,-1.858431 51.16163,-3.49232 75.5,-3.530883 10.175,-0.01612 21.425,-0.464187 25,-0.995699 3.575,-0.531512 10.90223,-1.638807 16.28274,-2.460656 27.50286,-4.200944 60.88131,-6.51444 93.71726,-6.495645 22.29691,0.01276 26.9325,1.024552 26.98469,5.889829 0.0176,1.638958 -12.60266,13.756531 -15.23469,14.627894 C 481.7875,85.874065 481,87.004451 481,88.067388 481,89.130324 480.53118,90 479.95819,90 c -0.573,0 -2.01385,0.905583 -3.20188,2.012407 -1.96425,1.829972 -2.01752,2.15495 -0.5877,3.584777 0.89927,0.899264 7.51397,2.782156 15.45188,4.398418 7.63373,1.554328 19.05451,3.967918 25.37951,5.363548 6.325,1.39562 29.725,6.56949 52,11.49748 52.69747,11.6585 58.25331,12.5494 74,11.86623 22.18087,-0.96231 56.00104,-10.07447 99.8538,-26.90357 28.91097,-11.094986 35.2598,-12.812333 42.92306,-11.610614 3.10826,0.487422 5.73989,0.977369 5.84807,1.088773 0.10819,0.111403 0.494,1.794584 0.85738,3.740402 0.62992,3.373148 0.37788,3.783816 -5.41375,8.821229 -7.32302,6.36936 -8.5606,8.35302 -7.01412,11.24265 0.93984,1.7561 0.72013,2.53724 -1.336,4.75 -1.35345,1.45655 -2.76316,3.92884 -3.1327,5.49398 -0.36954,1.56515 -2.01719,4.07446 -3.66145,5.57626 -1.64426,1.50179 -3.45328,4.41 -4.02005,6.46266 -0.74139,2.68512 -3.91043,6.64718 -11.29618,14.12298 -12.50778,12.66027 -16.06753,17.52559 -15.23875,20.82771 0.33044,1.31658 4.94107,6.84223 10.24584,12.27923 5.30478,5.437 11.37652,12.21522 13.49276,15.06272 2.11625,2.8475 4.32152,5.4701 4.90059,5.82798 0.6,0.37083 0.79502,2.02515 0.4534,3.84615 -0.50601,2.69727 -0.12105,3.6217 2.46932,5.92973 1.68783,1.50386 3.06878,3.56803 3.06878,4.58704 0,1.019 1.19177,3.60303 2.64837,5.74228 1.4566,2.13925 3.26264,5.35205 4.01342,7.13955 0.87378,2.08035 2.06307,3.25 3.30458,3.25 3.74962,0 7.02411,2.34889 9.01887,6.46952 1.10812,2.28906 2.01476,4.84762 2.01476,5.68569 0,2.46543 -4.92011,4.10533 -13.87208,4.62366 -13.91222,0.80553 -23.82697,-2.03008 -51.62792,-14.76551 -10.45,-4.78708 -21.7,-9.869 -25,-11.29315 -28.90856,-12.47584 -46.5479,-20.34335 -55,-24.53114 -11.22627,-5.56232 -18.50857,-7.90707 -27.46521,-8.84322 -5.68344,-0.59404 -6.38894,-0.4317 -10.31769,2.37422 -5.72192,4.08661 -10.9029,6.5818 -19.2171,9.25509 -9.40485,3.02397 -21.80605,8.60577 -28.18381,12.68557 -2.87106,1.8366 -5.72923,3.33927 -6.35149,3.33927 -2.32733,0 -0.17765,2.49054 4.10384,4.75454 7.55012,3.99241 8.93146,5.18189 8.93146,7.69096 0,2.67417 -1.48781,3.34863 -13.5,6.11991 -4.8427,1.11724 -11.77688,1.61384 -22.5,1.61137 -15.02572,-0.003 -18.61071,-0.35502 -39.16045,-3.8403 -11.56113,-1.96079 -23.13594,-1.01009 -37.064,3.04426 -5.49204,1.59869 -13.27253,2.87974 -21,3.45762 -10.29665,0.77002 -13.24278,1.38096 -18.27546,3.78982 l -5.99991,2.87182 0.32429,4.22107 c 0.26397,3.43593 -0.14611,4.69147 -2.20464,6.75 -2.28632,2.28633 -3.27675,2.52311 -10.32438,2.46827 -4.46477,-0.0347 -10.99989,-0.91993 -15.29545,-2.07177 z"
       id="path1" />
  </g>
</svg>
