<svg xmlns="http://www.w3.org/2000/svg" width="256" height="45" viewBox="0 0 67.733 11.906"><path d="M26.36-227.503c-1.875 0-2.2.694-2.2 2.128 0 1.488.356 2.417 2.185 2.417h1.62V-224h-1.567c-.74 0-.972-.377-.987-.912h3.133v-.623c0-1.327-.378-1.968-2.184-1.968m.046.962c.687 0 .926.151.926.703v.054H25.41v-.054c0-.552.247-.703.995-.703M41.984-227.503c-1.875 0-2.2.694-2.2 2.128 0 1.488.356 2.417 2.184 2.417h1.62V-224h-1.566c-.74 0-.972-.377-.988-.912h3.133v-.623c0-1.327-.378-1.968-2.183-1.968m.046.962c.687 0 .926.151.926.703v.054h-1.922v-.054c0-.552.248-.703.996-.703M67.502-226.319v-1.077h-.825c-1.29 0-1.744.374-1.744 1.398v3.04h1.389v-2.96c0-.285.138-.4.532-.4zM62.095-227.503c-1.875 0-2.2.694-2.2 2.128 0 1.488.356 2.417 2.185 2.417h1.62V-224h-1.566c-.741 0-.973-.377-.988-.912h3.133v-.623c0-1.327-.378-1.968-2.184-1.968m.047.962c.687 0 .925.151.925.703v.054h-1.921v-.054c0-.552.247-.703.996-.703M55.144-222.958h1.235v-3.156h.841c.517 0 .656.17.656.57v2.586h1.358v-2.782c0-1.149-.494-1.656-2.014-1.656h-4.93v4.438h1.357v-3.156h1.497zM50.234-227.396v4.438h1.39v-4.438z" style="fill:#fff;" transform="translate(0 232.167)"/><path d="M48.056-222.958h1.513v-5.104h2.054v-1.407h-5.621v1.407h2.054z" style="fill:#fff;" transform="translate(0 232.167)"/><path d="M47.39-226.319v-1.077h-.825c-1.289 0-1.744.374-1.744 1.398v3.04h1.389v-2.96c0-.285.139-.4.532-.4zM37.73-229.47v2.074h-1.235c-1.528 0-2.006.704-2.006 2.236 0 1.54.478 2.202 2.006 2.202h2.624v-6.511zm-1.258 3.267h1.258v2.051h-1.258c-.517 0-.664-.35-.664-1.008 0-.65.147-1.043.664-1.043M29.197-222.958h1.39v-3.156h1.188c.517 0 .663.16.663.57v2.586h1.39v-2.782c0-1.149-.525-1.656-2.053-1.656h-2.578zM22.106-222.958h1.389v-6.511h-1.39zM15.823-229.47v6.512h3.534c1.28 0 2.191-.33 2.191-1.888 0-.784-.231-1.23-.594-1.47.301-.258.486-.677.486-1.354 0-1.478-.895-1.8-2.083-1.8zm1.474 1.337h2.075c.363 0 .64.152.64.668 0 .463-.215.642-.624.642h-2.091Zm0 2.396h2.122c.393 0 .64.151.64.677 0 .552-.286.695-.664.695h-2.098Z" style="fill:#fff;" transform="translate(0 232.167)"/><path d="m119.79-51.379 144.784-83.59 144.783 83.59v167.181l-144.783 83.59-144.783-83.59z" style="fill:#f1f1f1;" transform="translate(.332 5.171)scale(.02492)"/><path d="m6.39 31.382 129.065-223.549 129.119 57.198L119.79-51.38z" style="fill:#38c312;stroke:#1a1a1a;stroke-width:9.442;stroke-linecap:round;stroke-linejoin:round;" transform="translate(.332 5.171)scale(.02492)"/><path d="M135.455 254.93 6.389 31.382l113.402-82.76v167.18Z" style="fill:#f3b818;stroke:#1a1a1a;stroke-width:9.442;stroke-linecap:round;stroke-linejoin:round;" transform="translate(.332 5.171)scale(.02492)"/><path d="m264.574 199.393-144.783-83.59 15.664 139.127h258.131Z" style="fill:#f93131;stroke:#1a1a1a;stroke-width:9.442;stroke-linecap:round;stroke-linejoin:round;" transform="translate(.332 5.171)scale(.02492)"/><path d="m409.357 115.802-144.783 83.59 129.012 55.538L522.652 31.382Z" style="fill:#f356c7;stroke:#1a1a1a;stroke-width:9.442;stroke-linecap:round;stroke-linejoin:round;" transform="translate(.332 5.171)scale(.02492)"/><path d="M393.587-192.167 522.651 31.382l-113.295 84.42v-167.18Z" style="fill:#2053f8;stroke:#1a1a1a;stroke-width:9.442;stroke-linecap:round;stroke-linejoin:round;" transform="translate(.332 5.171)scale(.02492)"/><path d="m264.574-134.97-129.12-57.197h258.133l15.77 140.788z" style="fill:#29c4e5;stroke:#1a1a1a;stroke-width:9.442;stroke-linecap:round;stroke-linejoin:round;" transform="translate(.332 5.171)scale(.02492)"/><path d="M264.574 32.212 391.259-40.93M264.574 178.495V32.212L137.889-40.93" style="fill:none;stroke:#1a1a1a;stroke-width:9.44237;stroke-linecap:round;stroke-linejoin:round;" transform="translate(.332 5.171)scale(.02492)"/></svg>