<svg xmlns="http://www.w3.org/2000/svg" width="2000" height="2000" viewBox="0 0 529.167 529.167"><path d="m119.79-51.379 144.784-83.59 144.783 83.59v167.181l-144.783 83.59-144.783-83.59z" style="fill:#f1f1f1;" transform="translate(.063 233.202)"/><path d="m6.39 31.382 129.065-223.549 129.119 57.198L119.79-51.38z" style="fill:#38c312;stroke:#1a1a1a;stroke-width:9.442;stroke-linecap:round;stroke-linejoin:round;" transform="translate(.063 233.202)"/><path d="M135.455 254.93 6.389 31.382l113.402-82.76v167.18Z" style="fill:#f3b818;stroke:#1a1a1a;stroke-width:9.442;stroke-linecap:round;stroke-linejoin:round;" transform="translate(.063 233.202)"/><path d="m264.574 199.393-144.783-83.59 15.664 139.127h258.131Z" style="fill:#f93131;stroke:#1a1a1a;stroke-width:9.442;stroke-linecap:round;stroke-linejoin:round;" transform="translate(.063 233.202)"/><path d="m409.357 115.802-144.783 83.59 129.012 55.538L522.652 31.382Z" style="fill:#f356c7;stroke:#1a1a1a;stroke-width:9.442;stroke-linecap:round;stroke-linejoin:round;" transform="translate(.063 233.202)"/><path d="M393.587-192.167 522.651 31.382l-113.295 84.42v-167.18Z" style="fill:#2053f8;stroke:#1a1a1a;stroke-width:9.442;stroke-linecap:round;stroke-linejoin:round;" transform="translate(.063 233.202)"/><path d="m264.574-134.97-129.12-57.197h258.133l15.77 140.788z" style="fill:#29c4e5;stroke:#1a1a1a;stroke-width:9.442;stroke-linecap:round;stroke-linejoin:round;" transform="translate(.063 233.202)"/><path d="M264.574 32.212 391.259-40.93M264.574 178.495V32.212L137.889-40.93" style="fill:none;stroke:#1a1a1a;stroke-width:9.442;stroke-linecap:round;stroke-linejoin:round;" transform="translate(.063 233.202)"/></svg>