<?xml version="1.0" encoding="UTF-8" standalone="no"?>
<!-- Created with Inkscape (http://www.inkscape.org/) -->

<svg
   width="1024"
   height="132"
   viewBox="0 0 270.93332 34.925004"
   version="1.1"
   id="svg8"
   sodipodi:docname="logo-textonly.svg"
   inkscape:version="1.4 (86a8ad7, 2024-10-11)"
   inkscape:export-filename="logo-text.png"
   inkscape:export-xdpi="96"
   inkscape:export-ydpi="96"
   xml:space="preserve"
   xmlns:inkscape="http://www.inkscape.org/namespaces/inkscape"
   xmlns:sodipodi="http://sodipodi.sourceforge.net/DTD/sodipodi-0.dtd"
   xmlns="http://www.w3.org/2000/svg"
   xmlns:svg="http://www.w3.org/2000/svg"
   xmlns:rdf="http://www.w3.org/1999/02/22-rdf-syntax-ns#"
   xmlns:cc="http://creativecommons.org/ns#"
   xmlns:dc="http://purl.org/dc/elements/1.1/"><defs
     id="defs2"><marker
       inkscape:stockid="DotS"
       orient="auto"
       refY="0"
       refX="0"
       id="marker1488"
       style="overflow:visible"
       inkscape:isstock="true"><path
         id="path1486"
         d="m -2.5,-1 c 0,2.76 -2.24,5 -5,5 -2.76,0 -5,-2.24 -5,-5 0,-2.76 2.24,-5 5,-5 2.76,0 5,2.24 5,5 z"
         style="fill:#000000;fill-opacity:1;fill-rule:evenodd;stroke:#000000;stroke-width:1pt;stroke-opacity:1"
         transform="matrix(0.2,0,0,0.2,1.48,0.2)" /></marker><marker
       inkscape:stockid="DotS"
       orient="auto"
       refY="0"
       refX="0"
       id="marker1424"
       style="overflow:visible"
       inkscape:isstock="true"><path
         id="path1422"
         d="m -2.5,-1 c 0,2.76 -2.24,5 -5,5 -2.76,0 -5,-2.24 -5,-5 0,-2.76 2.24,-5 5,-5 2.76,0 5,2.24 5,5 z"
         style="fill:#000000;fill-opacity:1;fill-rule:evenodd;stroke:#000000;stroke-width:1pt;stroke-opacity:1"
         transform="matrix(0.2,0,0,0.2,1.48,0.2)" /></marker><marker
       inkscape:stockid="DotS"
       orient="auto"
       refY="0"
       refX="0"
       id="DotS"
       style="overflow:visible"
       inkscape:isstock="true"><path
         id="path963"
         d="m -2.5,-1 c 0,2.76 -2.24,5 -5,5 -2.76,0 -5,-2.24 -5,-5 0,-2.76 2.24,-5 5,-5 2.76,0 5,2.24 5,5 z"
         style="fill:#000000;fill-opacity:1;fill-rule:evenodd;stroke:#000000;stroke-width:1pt;stroke-opacity:1"
         transform="matrix(0.2,0,0,0.2,1.48,0.2)" /></marker><marker
       inkscape:stockid="Arrow1Sstart"
       orient="auto"
       refY="0"
       refX="0"
       id="Arrow1Sstart"
       style="overflow:visible"
       inkscape:isstock="true"><path
         id="path908"
         d="M 0,0 5,-5 -12.5,0 5,5 Z"
         style="fill:#000000;fill-opacity:1;fill-rule:evenodd;stroke:#000000;stroke-width:1pt;stroke-opacity:1"
         transform="matrix(0.2,0,0,0.2,1.2,0)" /></marker><marker
       inkscape:stockid="Arrow1Send"
       orient="auto"
       refY="0"
       refX="0"
       id="Arrow1Send"
       style="overflow:visible"
       inkscape:isstock="true"><path
         id="path911"
         d="M 0,0 5,-5 -12.5,0 5,5 Z"
         style="fill:#000000;fill-opacity:1;fill-rule:evenodd;stroke:#000000;stroke-width:1pt;stroke-opacity:1"
         transform="matrix(-0.2,0,0,-0.2,-1.2,0)" /></marker><marker
       inkscape:stockid="Arrow2Sstart"
       orient="auto"
       refY="0"
       refX="0"
       id="Arrow2Sstart"
       style="overflow:visible"
       inkscape:isstock="true"><path
         id="path926"
         style="fill:#000000;fill-opacity:1;fill-rule:evenodd;stroke:#000000;stroke-width:0.625;stroke-linejoin:round;stroke-opacity:1"
         d="M 8.7185878,4.0337352 -2.2072895,0.01601326 8.7185884,-4.0017078 c -1.7454984,2.3720609 -1.7354408,5.6174519 -6e-7,8.035443 z"
         transform="matrix(0.3,0,0,0.3,-0.69,0)" /></marker><marker
       inkscape:stockid="Club"
       orient="auto"
       refY="0"
       refX="0"
       id="Club"
       style="overflow:visible"
       inkscape:isstock="true"><path
         id="path1125"
         d="m -1.5971367,-7.0977635 c -1.8892507,0 -3.426382,1.5371314 -3.426382,3.4263822 0,0.6566798 0.2383531,1.2269257 0.5594092,1.7481542 -0.038751,0.032111 -0.079672,0.058463 -0.1165436,0.093235 -0.6224234,-0.8549928 -1.5893983,-1.4451409 -2.7271199,-1.4451409 -1.8892515,-1e-7 -3.426382,1.5371314 -3.426382,3.42638214 0,1.88925076 1.5371305,3.42638216 3.426382,3.42638216 0.9934462,0 1.868619,-0.4420611 2.4940326,-1.1188187 -0.124687,0.3548915 -0.2097783,0.7214874 -0.2097783,1.1188187 0,1.8892506 1.5371313,3.4263822 3.426382,3.4263822 1.88925064,0 3.4263821,-1.5371316 3.4263821,-3.4263822 0,-0.7933959 -0.3155586,-1.4938285 -0.7691878,-2.0744763 C 2.4152718,1.7663868 3.7718375,2.2973711 4.7661444,3.8340272 4.0279463,3.0958289 3.5540908,1.7534117 3.5540908,-0.05852936 l -0.6293354,-0.04661745 0.5827179,-0.0233087 c 0,-1.81194109 0.4505466,-3.15435829 1.188745,-3.89255659 -0.9590906,1.4822308 -2.2571634,2.0263625 -3.5662345,2.3075635 0.4041964,-0.5619092 0.6992616,-1.213407 0.6992616,-1.9579327 0,-1.8892506 -1.53713146,-3.4263822 -3.4263821,-3.4263822 z"
         style="fill:#000000;fill-opacity:1;fill-rule:evenodd;stroke:#000000;stroke-width:0.745879pt;stroke-opacity:1"
         transform="scale(0.6)" /></marker><marker
       inkscape:stockid="DotL"
       orient="auto"
       refY="0"
       refX="0"
       id="DotL"
       style="overflow:visible"
       inkscape:isstock="true"><path
         id="path957"
         d="m -2.5,-1 c 0,2.76 -2.24,5 -5,5 -2.76,0 -5,-2.24 -5,-5 0,-2.76 2.24,-5 5,-5 2.76,0 5,2.24 5,5 z"
         style="fill:#000000;fill-opacity:1;fill-rule:evenodd;stroke:#000000;stroke-width:1pt;stroke-opacity:1"
         transform="matrix(0.8,0,0,0.8,5.92,0.8)" /></marker><inkscape:perspective
       sodipodi:type="inkscape:persp3d"
       inkscape:vp_x="0 : -229.65836 : 1"
       inkscape:vp_y="0 : 1000.0001 : 0"
       inkscape:vp_z="529.16664 : -229.65836 : 1"
       inkscape:persp3d-origin="264.58333 : -317.85282 : 1"
       id="perspective863" /></defs><sodipodi:namedview
     id="base"
     pagecolor="#000000"
     bordercolor="#666666"
     borderopacity="1.0"
     inkscape:pageopacity="0.0"
     inkscape:pageshadow="2"
     inkscape:zoom="1.1382979"
     inkscape:cx="377.75701"
     inkscape:cy="313.18691"
     inkscape:document-units="mm"
     inkscape:current-layer="layer1"
     showgrid="false"
     inkscape:pagecheckerboard="true"
     inkscape:showpageshadow="false"
     borderlayer="true"
     units="px"
     inkscape:snap-object-midpoints="false"
     inkscape:snap-page="false"
     inkscape:window-width="3440"
     inkscape:window-height="1377"
     inkscape:window-x="-8"
     inkscape:window-y="-8"
     inkscape:window-maximized="1"
     inkscape:snap-center="true"
     inkscape:deskcolor="#505050"
     showguides="true"
     showborder="true" /><metadata
     id="metadata5"><rdf:RDF><cc:Work
         rdf:about=""><dc:format>image/svg+xml</dc:format><dc:type
           rdf:resource="http://purl.org/dc/dcmitype/StillImage" /></cc:Work></rdf:RDF></metadata><g
     inkscape:label="Layer 1"
     inkscape:groupmode="layer"
     id="layer1"
     transform="translate(0,232.16668)"><path
       id="path20"
       style="font-weight:bold;font-size:6.96718px;font-family:Toxigenesis;-inkscape-font-specification:'Toxigenesis Bold';text-align:center;letter-spacing:-0.870899px;word-spacing:0px;text-anchor:middle;fill:#ffffff;stroke:none;stroke-width:5.70569;stroke-linecap:butt;stroke-linejoin:miter;stroke-dasharray:none;stroke-opacity:1;paint-order:markers stroke fill"
       d="m 55.711859,-221.42561 c -9.772996,0 -11.463774,3.62016 -11.463774,11.09448 0,7.75298 1.851532,12.5958 11.383228,12.5958 h 8.444959 v -5.43361 h -8.164555 c -3.860927,0 -5.068262,-1.96504 -5.148699,-4.75049 h 16.329083 v -3.24837 c 0,-6.91732 -1.969211,-10.25785 -11.380242,-10.25781 z m 0.241587,5.01351 c 3.579404,0 4.823553,0.78884 4.823553,3.6673 v 0.27886 H 50.762982 v -0.27886 c 0,-2.87842 1.289304,-3.6673 5.190464,-3.6673 z"
       sodipodi:nodetypes="sssccsccssssccss" /><path
       id="path19"
       style="font-weight:bold;font-size:6.96718px;font-family:Toxigenesis;-inkscape-font-specification:'Toxigenesis Bold';text-align:center;letter-spacing:-0.870899px;word-spacing:0px;text-anchor:middle;fill:#ffffff;stroke:none;stroke-width:5.70569;stroke-linecap:butt;stroke-linejoin:miter;stroke-dasharray:none;stroke-opacity:1;paint-order:markers stroke fill"
       d="m 137.14146,-221.42561 c -9.77299,0 -11.46376,3.62016 -11.46376,11.09448 0,7.75298 1.85153,12.5958 11.38322,12.5958 h 8.44495 v -5.43361 h -8.16454 c -3.86093,0 -5.06827,-1.96504 -5.14871,-4.75049 h 16.32908 v -3.24837 c 0,-6.91732 -1.9692,-10.25785 -11.38024,-10.25781 z m 0.24163,5.01351 c 3.57941,0 4.82355,0.78884 4.82355,3.6673 v 0.27886 h -10.01401 v -0.27886 c 0,-2.87842 1.2893,-3.6673 5.19046,-3.6673 z"
       sodipodi:nodetypes="sssccsccssssccss" /><path
       style="font-weight:bold;font-size:6.96718px;font-family:Toxigenesis;-inkscape-font-specification:'Toxigenesis Bold';text-align:center;letter-spacing:-0.870899px;word-spacing:0px;text-anchor:middle;fill:#ffffff;stroke:none;stroke-width:5.70569;stroke-linecap:butt;stroke-linejoin:miter;stroke-dasharray:none;stroke-opacity:1;paint-order:markers stroke fill"
       d="m 270.14166,-215.25191 v -5.61738 h -4.30333 c -6.71644,0 -9.08929,1.94995 -9.08929,7.28867 v 15.84493 h 7.23925 v -15.42704 c 0,-1.48572 0.72392,-2.08926 2.77505,-2.08926 z"
       id="path18"
       sodipodi:nodetypes="ccssccssc" /><path
       id="path16"
       style="font-weight:bold;font-size:6.96718px;font-family:Toxigenesis;-inkscape-font-specification:'Toxigenesis Bold';text-align:center;letter-spacing:-0.870899px;word-spacing:0px;text-anchor:middle;fill:#ffffff;stroke:none;stroke-width:5.70569;stroke-linecap:butt;stroke-linejoin:miter;stroke-dasharray:none;stroke-opacity:1;paint-order:markers stroke fill"
       d="m 241.9618,-221.42561 c -9.77299,0 -11.46376,3.62016 -11.46376,11.09448 0,7.75298 1.85152,12.5958 11.38322,12.5958 h 8.44495 v -5.43361 h -8.16454 c -3.86094,0 -5.06827,-1.96504 -5.14871,-4.75049 h 16.32908 v -3.24837 c 0,-6.91732 -1.9692,-10.25785 -11.38024,-10.25781 z m 0.24163,5.01351 c 3.57941,0 4.82356,0.78884 4.82356,3.6673 v 0.27886 h -10.01401 v -0.27886 c 0,-2.87842 1.2893,-3.6673 5.19045,-3.6673 z"
       sodipodi:nodetypes="sssccsccssssccss" /><path
       style="font-weight:bold;font-size:6.96718px;font-family:Toxigenesis;-inkscape-font-specification:'Toxigenesis Bold';text-align:center;letter-spacing:-0.870899px;word-spacing:0px;text-anchor:middle;fill:#ffffff;stroke:none;stroke-width:5.70569;stroke-linecap:butt;stroke-linejoin:miter;stroke-dasharray:none;stroke-opacity:1;paint-order:markers stroke fill"
       d="m 205.73263,-197.73573 h 6.4349 v -16.44848 h 4.38376 c 2.69462,0 3.41854,0.88213 3.41854,2.97115 v 13.47733 h 7.07839 v -14.49865 c 0,-5.98876 -2.57395,-8.63507 -10.49693,-8.63507 h -25.69937 v 23.13368 h 7.0784 v -16.44848 h 7.80231 z"
       id="path15"
       sodipodi:nodetypes="cccssccsscccccc" /><path
       id="path13"
       style="font-weight:bold;font-size:6.96718px;font-family:Toxigenesis;-inkscape-font-specification:'Toxigenesis Bold';text-align:center;letter-spacing:-0.870899px;word-spacing:0px;text-anchor:middle;fill:#ffffff;stroke:none;stroke-width:5.70569;stroke-linecap:butt;stroke-linejoin:miter;stroke-dasharray:none;stroke-opacity:1;paint-order:markers stroke fill"
       d="m 180.14275,-220.86773 v 23.13248 h 7.2398 v -23.13248 z"
       sodipodi:nodetypes="ccccc" /><path
       style="font-weight:bold;font-size:6.96718px;font-family:Toxigenesis;-inkscape-font-specification:'Toxigenesis Bold';text-align:center;letter-spacing:-0.870899px;word-spacing:0px;text-anchor:middle;fill:#ffffff;stroke:none;stroke-width:5.70569;stroke-linecap:butt;stroke-linejoin:miter;stroke-dasharray:none;stroke-opacity:1;paint-order:markers stroke fill"
       d="m 168.79063,-197.73573 h 7.88274 v -26.60133 h 10.70916 v -7.33509 h -29.30106 v 7.33509 h 10.70916 z"
       id="path12"
       sodipodi:nodetypes="ccccccccc" /><path
       style="font-weight:bold;font-size:6.96718px;font-family:Toxigenesis;-inkscape-font-specification:'Toxigenesis Bold';text-align:center;letter-spacing:-0.870899px;word-spacing:0px;text-anchor:middle;fill:#ffffff;stroke:none;stroke-width:5.70569;stroke-linecap:butt;stroke-linejoin:miter;stroke-dasharray:none;stroke-opacity:1;paint-order:markers stroke fill"
       d="m 165.32126,-215.25191 v -5.61738 h -4.30334 c -6.71643,0 -9.08929,1.94995 -9.08929,7.28867 v 15.84493 h 7.23926 v -15.42704 c 0,-1.48572 0.72392,-2.08926 2.77504,-2.08926 z"
       id="path11"
       sodipodi:nodetypes="ccssccscc" /><path
       id="path7"
       style="font-weight:bold;font-size:6.96718px;font-family:Toxigenesis;-inkscape-font-specification:'Toxigenesis Bold';text-align:center;letter-spacing:-0.870899px;word-spacing:0px;text-anchor:middle;fill:#ffffff;stroke:none;stroke-width:5.70569;stroke-linecap:butt;stroke-linejoin:miter;stroke-dasharray:none;stroke-opacity:1;paint-order:markers stroke fill"
       d="m 114.96852,-231.67311 v 10.80538 h -6.43438 c -7.96319,0 -10.455511,3.66815 -10.455511,11.65313 0,8.03149 2.492321,11.47935 10.455511,11.47935 h 13.67418 v -33.9379 z m -6.55372,17.02414 h 6.55372 v 10.69167 h -6.55372 c -2.69461,0 -3.4603,-1.82183 -3.4603,-5.2573 0,-3.38884 0.76569,-5.43437 3.4603,-5.43437 z"
       sodipodi:nodetypes="ccssscccsccsss" /><path
       style="font-weight:bold;font-size:6.96718px;font-family:Toxigenesis;-inkscape-font-specification:'Toxigenesis Bold';text-align:center;letter-spacing:-0.870899px;word-spacing:0px;text-anchor:middle;fill:#ffffff;stroke:none;stroke-width:5.70569;stroke-linecap:butt;stroke-linejoin:miter;stroke-dasharray:none;stroke-opacity:1;paint-order:markers stroke fill"
       d="m 70.499112,-197.73573 h 7.239262 v -16.44848 h 6.193583 c 2.694603,0 3.458755,0.83566 3.458755,2.97115 v 13.47733 h 7.239261 v -14.49865 c 0,-5.98876 -2.734828,-8.63507 -10.698016,-8.63507 H 70.499112 Z"
       id="path6"
       sodipodi:nodetypes="cccssccsscc" /><path
       style="font-weight:bold;font-size:6.96718px;font-family:Toxigenesis;-inkscape-font-specification:'Toxigenesis Bold';text-align:center;letter-spacing:-0.870899px;word-spacing:0px;text-anchor:middle;fill:#ffffff;stroke:none;stroke-width:5.70569;stroke-linecap:butt;stroke-linejoin:miter;stroke-dasharray:none;stroke-opacity:1;paint-order:markers stroke fill"
       d="m 33.539444,-197.73573 h 7.239265 v -33.9365 h -7.239265 z"
       id="path3" /><path
       id="text1"
       style="font-weight:bold;font-size:6.96718px;font-family:Toxigenesis;-inkscape-font-specification:'Toxigenesis Bold';text-align:center;letter-spacing:-0.870899px;word-spacing:0px;text-anchor:middle;fill:#ffffff;stroke:none;stroke-width:5.70569;stroke-linecap:butt;stroke-linejoin:miter;stroke-dasharray:none;stroke-opacity:1;paint-order:markers stroke fill"
       d="m 0.7916709,-231.67311 v 33.9379 H 19.211852 c 6.676204,0 11.422014,-1.71679 11.422014,-9.84112 0,-4.0854 -1.206134,-6.40806 -3.096375,-7.66146 1.568493,-1.34636 2.53258,-3.52719 2.53258,-7.05551 0,-7.70655 -4.664629,-9.37981 -10.858219,-9.37981 z m 7.6812884,6.96591 H 19.292397 c 1.890246,0 3.338005,0.78864 3.338005,3.48121 0,2.41406 -1.125901,3.34362 -3.25746,3.34362 H 8.4729593 Z m 0,12.48558 H 19.534017 c 2.051128,0 3.338005,0.79045 3.338005,3.52948 0,2.87838 -1.489611,3.62248 -3.460309,3.62248 H 8.4729593 Z" /></g></svg>
