<svg xmlns="http://www.w3.org/2000/svg" width="1024" height="132" viewBox="0 0 270.933 34.925"><path d="M55.712-221.426c-9.773 0-11.464 3.62-11.464 11.095 0 7.753 1.852 12.596 11.383 12.596h8.445v-5.434h-8.164c-3.861 0-5.069-1.965-5.149-4.75h16.33v-3.249c0-6.917-1.97-10.258-11.381-10.258m.241 5.014c3.58 0 4.824.789 4.824 3.667v.28H50.763v-.28c0-2.878 1.29-3.667 5.19-3.667M137.141-221.426c-9.773 0-11.463 3.62-11.463 11.095 0 7.753 1.851 12.596 11.383 12.596h8.445v-5.434h-8.165c-3.86 0-5.068-1.965-5.148-4.75h16.329v-3.249c0-6.917-1.97-10.258-11.38-10.258m.242 5.014c3.58 0 4.824.789 4.824 3.667v.28h-10.014v-.28c0-2.878 1.289-3.667 5.19-3.667M270.142-215.252v-5.617h-4.304c-6.716 0-9.089 1.95-9.089 7.288v15.845h7.24v-15.427c0-1.485.723-2.089 2.774-2.089zM241.962-221.426c-9.773 0-11.464 3.62-11.464 11.095 0 7.753 1.852 12.596 11.383 12.596h8.445v-5.434h-8.164c-3.861 0-5.069-1.965-5.149-4.75h16.329v-3.249c0-6.917-1.97-10.258-11.38-10.258m.241 5.014c3.58 0 4.824.789 4.824 3.667v.28h-10.014v-.28c0-2.878 1.29-3.667 5.19-3.667M205.733-197.736h6.435v-16.448h4.383c2.695 0 3.419.882 3.419 2.97v13.478h7.078v-14.498c0-5.99-2.574-8.635-10.497-8.635h-25.7v23.133h7.08v-16.448h7.802zM180.143-220.868v23.133h7.24v-23.133z" style="fill:#fff;" transform="translate(0 232.167)"/><path d="M168.79-197.736h7.883v-26.601h10.71v-7.335H158.08v7.335h10.71z" style="fill:#fff;" transform="translate(0 232.167)"/><path d="M165.321-215.252v-5.617h-4.303c-6.717 0-9.09 1.95-9.09 7.288v15.845h7.24v-15.427c0-1.485.724-2.089 2.775-2.089zM114.969-231.673v10.805h-6.435c-7.963 0-10.455 3.668-10.455 11.653 0 8.032 2.492 11.48 10.455 11.48h13.674v-33.938zm-6.554 17.024h6.554v10.692h-6.554c-2.695 0-3.46-1.822-3.46-5.258 0-3.388.765-5.434 3.46-5.434M70.5-197.736h7.238v-16.448h6.194c2.695 0 3.459.835 3.459 2.97v13.478h7.239v-14.498c0-5.99-2.735-8.635-10.698-8.635H70.499ZM33.54-197.736h7.239v-33.936h-7.24zM.792-231.673v33.938h18.42c6.676 0 11.422-1.717 11.422-9.841 0-4.086-1.206-6.408-3.097-7.662 1.569-1.346 2.533-3.527 2.533-7.055 0-7.707-4.665-9.38-10.858-9.38zm7.681 6.966h10.82c1.89 0 3.337.788 3.337 3.481 0 2.414-1.125 3.344-3.257 3.344h-10.9Zm0 12.485h11.061c2.051 0 3.338.79 3.338 3.53 0 2.878-1.49 3.622-3.46 3.622H8.473Z" style="fill:#fff;" transform="translate(0 232.167)"/></svg>