<?xml version="1.0" encoding="UTF-8" standalone="no"?>
<!-- Created with Inkscape (http://www.inkscape.org/) -->

<svg
   width="3000"
   height="3000"
   viewBox="0 0 793.74998 793.75002"
   version="1.1"
   id="svg8"
   inkscape:version="1.3 (0e150ed6c4, 2023-07-21)"
   sodipodi:docname="Ceres.svg"
   inkscape:export-filename="G:\Pictures\My Pictures\Vectors and SVGs\Space\Ceres.png"
   inkscape:export-xdpi="96"
   inkscape:export-ydpi="96"
   xmlns:inkscape="http://www.inkscape.org/namespaces/inkscape"
   xmlns:sodipodi="http://sodipodi.sourceforge.net/DTD/sodipodi-0.dtd"
   xmlns="http://www.w3.org/2000/svg"
   xmlns:svg="http://www.w3.org/2000/svg"
   xmlns:rdf="http://www.w3.org/1999/02/22-rdf-syntax-ns#"
   xmlns:cc="http://creativecommons.org/ns#"
   xmlns:dc="http://purl.org/dc/elements/1.1/">
  <defs
     id="defs2" />
  <sodipodi:namedview
     id="base"
     pagecolor="#000720"
     bordercolor="#666666"
     borderopacity="1.0"
     inkscape:pageopacity="0"
     inkscape:pageshadow="2"
     inkscape:zoom="0.1767767"
     inkscape:cx="1071.9739"
     inkscape:cy="1609.375"
     inkscape:document-units="mm"
     inkscape:current-layer="layer1"
     showgrid="false"
     inkscape:pagecheckerboard="false"
     inkscape:showpageshadow="false"
     borderlayer="true"
     units="px"
     inkscape:snap-object-midpoints="true"
     inkscape:window-width="1600"
     inkscape:window-height="837"
     inkscape:window-x="-8"
     inkscape:window-y="-8"
     inkscape:window-maximized="1"
     inkscape:snap-page="true"
     inkscape:deskcolor="#505050" />
  <metadata
     id="metadata5">
    <rdf:RDF>
      <cc:Work
         rdf:about="">
        <dc:format>image/svg+xml</dc:format>
        <dc:type
           rdf:resource="http://purl.org/dc/dcmitype/StillImage" />
      </cc:Work>
    </rdf:RDF>
  </metadata>
  <g
     inkscape:label="Layer 1"
     inkscape:groupmode="layer"
     id="layer1"
     transform="translate(0,496.75002)">
    <path
       inkscape:connector-curvature="0"
       id="path845"
       d="M 385.62605,289.49457 C 349.14855,288.51106 310.15931,281.65041 275.03021,270.03385 213.8461,249.80135 159.07188,215.14136 114.71615,168.59044 43.664919,94.022783 4.9421224,-6.2574749 7.4484626,-109.20024 9.6477812,-199.53272 42.993793,-286.0334 101.99955,-354.46899 c 14.14721,-16.40811 28.56092,-30.53954 47.22129,-46.29653 0.80036,-0.67583 4.6699,-3.73109 8.59896,-6.78947 44.65038,-34.75579 97.84737,-59.86362 153.32604,-72.3666 88.15395,-19.86685 179.41655,-8.69707 260.54905,31.88903 86.21096,43.12657 154.10322,118.12025 188.79566,208.5433 29.92559,77.99863 34.05565,163.10048 11.80983,243.3470969 C 728.23395,162.81739 589.18252,276.74768 424.78438,288.59133 c -8.06913,0.58132 -26.04391,1.27765 -29.89792,1.15824 -0.7276,-0.0225 -4.89479,-0.13732 -9.26041,-0.255 z"
       style="fill:#b3aeab;fill-opacity:1;stroke-width:0.26458332" />
    <path
       inkscape:connector-curvature="0"
       id="path843"
       d="m 386.02292,288.97159 c -7.08914,-0.18859 -13.28473,-0.54446 -22.88646,-1.31466 -6.7629,-0.54247 -24.4971,-2.9119 -33.33749,-4.45418 -49.86457,-8.69918 -97.90468,-27.28217 -141.15521,-54.60201 -4.58391,-2.89549 -8.54009,-5.52236 -8.79151,-5.83745 -0.25143,-0.31509 -0.45979,-0.99986 -0.46303,-1.52167 -0.0112,-1.81221 -3.95656,-5.04854 -15.00475,-12.30834 -3.51996,-2.31296 -8.3383,-5.33649 -10.70744,-6.71893 -2.36914,-1.38245 -5.26371,-3.21853 -6.43238,-4.0802 -6.46225,-4.76456 -21.37807,-18.66691 -32.06273,-29.88421 C 70.876487,121.73588 38.787952,64.94608 21.724731,2.8508063 17.423912,-12.800436 13.271366,-33.102471 11.49654,-47.155444 11.128968,-50.065861 10.536386,-54.590236 10.179692,-57.209611 9.8229981,-59.828986 9.2089591,-66.139298 8.8151612,-71.232527 8.1288657,-80.108795 8.0995276,-81.272195 8.1079091,-99.278361 c 0.00866,-18.603169 0.016814,-18.888079 0.840572,-29.368749 4.0831549,-51.94993 17.2914729,-99.73178 40.2664909,-145.66638 4.321469,-8.64004 12.839505,-24.06068 15.923049,-28.82633 0.800335,-1.23693 3.000922,-4.68974 4.89019,-7.67292 4.838867,-7.64062 13.376984,-19.66753 19.963869,-28.12138 5.234381,-6.71799 15.52702,-18.9631 20.07043,-23.87768 1.0914,-1.18058 3.9489,-4.26619 6.35,-6.85692 13.80345,-14.89364 36.33906,-34.28453 55.82708,-48.03672 7.48775,-5.28391 8.80606,-6.1478 19.17915,-12.5681 37.08599,-22.95395 77.79824,-39.62514 119.91718,-49.10473 9.19728,-2.07 26.06876,-5.17211 31.42763,-5.77851 1.45521,-0.16467 3.19783,-0.41015 3.87249,-0.54551 2.98265,-0.59843 12.44521,-1.63355 20.60147,-2.25363 38.37228,-2.91723 77.38948,-0.0774 114.96145,8.36737 11.6808,2.62541 26.43715,6.68231 33.86667,9.31082 3.05594,1.08117 6.62781,2.29008 7.9375,2.68649 1.30969,0.39639 6.72703,2.39336 12.03854,4.43771 24.1789,9.30619 47.7759,21.15951 68.79167,34.55567 7.7488,4.93935 13.82376,9.06412 13.63205,9.25586 -0.0501,0.0501 -1.67929,-0.96959 -3.6204,-2.26595 -3.38659,-2.26166 -12.20468,-7.88425 -16.36165,-10.43251 -1.99493,-1.22291 -13.42001,-7.32374 -17.85938,-9.53665 -2.2153,-1.10427 -5.02028,-2.28772 -6.41614,-2.70704 -1.30987,-0.39348 -0.52073,0.67754 1.68762,2.29047 1.2556,0.91707 4.49667,3.31749 7.20233,5.33426 2.70568,2.01677 9.86258,6.95787 15.90423,10.98021 11.1433,7.41886 14.99256,10.2119 19.68331,14.28228 4.55858,3.9557 6.24475,6.56403 6.77476,10.47992 0.33856,2.50143 1.02211,4.08304 3.11595,7.20973 10.06152,15.0247 10.37357,15.44239 15.00206,20.08031 3.78931,3.79702 7.02746,6.40216 11.52609,9.27286 8.13406,5.19055 13.45899,7.70132 14.80521,6.98084 0.29734,-0.15913 0.5378,-0.4935 0.53436,-0.74305 -0.014,-1.01329 -1.38941,-3.67792 -4.61278,-8.93667 -3.92914,-6.4102 -6.49345,-11.42588 -6.49345,-12.70096 0,-1.03378 0.58229,-1.70254 1.4824,-1.70254 0.87705,0 1.06736,-0.64587 0.52531,-1.78257 -0.5062,-1.06151 -0.25432,-1.62202 0.53131,-1.18236 1.89357,1.0597 17.79077,17.12322 21.4808,21.70554 1.85375,2.30203 3.01377,4.30338 2.78636,4.80731 -0.15944,0.35331 -0.3918,6.35516 -0.35341,9.12813 0.0305,2.20531 2.45592,5.93354 6.52624,10.03193 3.53386,3.55822 6.77791,5.49543 10.51955,6.28179 4.36252,0.91685 7.89902,4.36006 14.78473,14.3948 1.52402,2.22098 4.89394,8.67453 14.49805,27.76439 15.06778,29.94983 14.39609,28.58891 16.78046,33.99896 5.7635,13.07703 8.57954,18.77247 11.48482,23.2281 2.35141,3.60615 5.31405,9.96674 7.23678,15.53682 2.18543,6.33106 6.52391,22.36325 8.80575,32.54029 4.03292,17.98685 6.83538,36.8849 8.3769,56.48854 0.80753,10.26956 0.8219,10.76344 0.82788,28.44271 0.005,16.026526 -0.0568,18.815287 -0.5696,25.532291 -0.31662,4.147344 -0.64439,8.612188 -0.72837,9.921875 -0.1389,2.16662 -1.06082,10.116794 -2.11703,18.25625 -0.86464,6.663161 -3.8608,22.871986 -5.91175,31.981696 -12.59131,55.92691 -37.5998,108.706814 -72.91625,153.888098 -16.18229,20.70245 -32.50767,37.85888 -52.25302,54.91305 -11.89722,10.2757 -32.30306,25.80868 -32.81561,24.97934 -0.22973,-0.37171 -1.61245,0.30641 -4.60253,2.25727 -1.17538,0.76686 -3.26816,2.04552 -4.65061,2.84146 -3.96301,2.28169 -12.36067,7.05104 -14.68437,8.33983 -7.37603,4.09085 -13.30127,7.98888 -12.96662,8.53032 0.0838,0.13565 0.62209,0.0723 1.24079,-0.14597 0.60103,-0.21203 1.14292,-0.33536 1.20425,-0.27405 0.4196,0.41963 -18.95909,10.09962 -30.06331,15.01716 -34.03558,15.07273 -71.00766,25.307 -108.37553,29.99949 -5.23875,0.65786 -12.56109,1.42571 -16.27187,1.70633 -3.71078,0.28064 -7.40172,0.57589 -8.20209,0.65614 -1.88886,0.18934 -23.1562,0.93075 -25.4,0.88545 -0.94588,-0.019 -5.23213,-0.12813 -9.525,-0.24233 z m 68.79167,-5.48902 c 0.65484,-0.15084 2.97656,-0.58494 5.15938,-0.96464 7.24497,-1.26024 11.66341,-2.2914 16.00729,-3.73573 4.2256,-1.40502 4.55287,-1.60737 4.96527,-3.06999 0.77997,-2.76617 5.68579,-5.36871 16.0691,-8.52466 5.95821,-1.811 9.01483,-2.9151 12.85563,-4.64371 5.30363,-2.38696 12.53916,-6.249 16.1676,-8.62957 4.40013,-2.88684 7.34531,-4.67579 10.39969,-6.31695 5.9513,-3.1977 14.47789,-8.02492 16.40416,-9.28698 2.45105,-1.60589 5.0073,-4.09366 5.87685,-5.71939 0.36883,-0.68959 0.60545,-1.58901 0.60545,-2.30151 0,-1.01756 -0.13563,-1.29855 -1.04376,-2.16244 -1.61901,-1.54011 -3.45305,-2.08613 -8.48124,-2.52497 -2.4011,-0.20955 -6.00041,-0.61878 -7.99846,-0.90937 -10.79556,-1.57014 -18.62868,-0.52417 -23.68445,3.16264 -1.57522,1.14872 -2.71293,2.79877 -2.71293,3.9347 0,0.85402 0.87461,2.70351 1.27847,2.70351 0.0973,0 0.68294,0.4625 1.30133,1.02778 0.98909,0.90411 1.12437,1.16464 1.12437,2.16543 0,4.12096 -6.30354,9.23171 -14.95623,12.12612 -3.29658,1.10273 -6.76262,1.61189 -10.97294,1.61189 -6.17074,0 -10.59727,-1.02423 -12.17054,-2.81609 -0.76144,-0.86725 -0.81298,-1.0455 -0.66558,-2.30206 0.31972,-2.72582 -1.24672,-4.16423 -5.13342,-4.71387 -3.79693,-0.53695 -11.56592,0.71551 -20.0314,3.22934 -11.56975,3.43567 -16.29661,4.34023 -22.58864,4.32271 -3.93017,-0.0109 -5.09138,-0.13398 -11.64167,-1.23359 -8.02568,-1.34731 -20.17818,-3.87559 -26.32604,-5.47703 -8.76906,-2.28426 -12.06495,-2.46997 -19.71146,-1.11075 -2.54661,0.45267 -7.42817,1.25238 -10.84791,1.77715 -9.67134,1.48402 -13.32969,2.56736 -16.92286,5.01132 -2.54931,1.73394 -3.39812,2.9311 -3.72755,5.25727 -0.45924,3.24281 -1.50914,4.6569 -5.9149,7.96657 -3.30829,2.48526 -3.70165,2.86473 -4.12549,3.9795 -0.78801,2.07261 0.81997,4.00756 5.23037,6.2939 3.11152,1.61298 3.81857,1.90551 9.85001,4.07525 8.35343,3.005 12.61711,4.09665 24.20493,6.19718 9.44745,1.71251 13.03811,1.83716 24.87528,0.86333 4.21613,-0.34684 6.17947,-0.36761 12.17083,-0.12877 3.92906,0.15663 9.54744,0.36041 12.48527,0.45286 2.93785,0.0925 7.28363,0.32467 9.65729,0.51602 4.99308,0.40253 21.08856,0.33078 22.9689,-0.1024 z m -13.89062,-60.64795 c 11.4831,-0.86696 23.79942,-4.65103 37.04166,-11.38073 6.052,-3.07562 9.65335,-4.63561 15.26053,-6.61025 1.61462,-0.56864 3.47747,-1.35136 4.13965,-1.73942 3.06615,-1.79689 5.07378,-4.74469 5.07378,-7.44987 0,-2.31333 -0.4736,-3.45895 -2.10632,-5.09506 -2.13146,-2.1359 -3.39995,-2.48076 -8.44354,-2.29555 -3.53251,0.1297 -15.23111,1.41026 -18.42202,2.01652 -0.7276,0.13825 -5.4901,0.85019 -10.58333,1.58213 -9.99561,1.43645 -14.96369,1.88804 -20.68708,1.88045 -13.85221,-0.0183 -23.36313,-4.84116 -34.41719,-17.45229 -12.05492,-13.75293 -17.95467,-19.24635 -23.68468,-22.05328 -2.99206,-1.46572 -4.69328,-1.92173 -10.50792,-2.81663 -5.82364,-0.8963 -11.9888,-2.04472 -19.1823,-3.57322 -10.26689,-2.18152 -15.97146,-1.36782 -20.76635,2.96209 -1.216,1.0981 -2.50843,2.76505 -4.57171,5.8965 -3.20132,4.85865 -4.97038,8.26839 -5.62821,10.84792 -0.55931,2.19326 -0.24228,3.82082 1.16975,6.00554 1.57366,2.43472 2.90041,3.51462 13.12777,10.68536 5.34819,3.74975 8.02379,6.03718 15.39582,13.1622 3.90157,3.77084 8.28439,7.89911 9.7396,9.17395 10.62712,9.30984 18.51967,12.89518 31.11394,14.13412 1.514,0.14893 6.3246,0.45431 10.69023,0.6786 4.36562,0.22429 11.33078,0.6436 15.47812,0.93181 4.14735,0.28819 8.13594,0.56258 8.86354,0.60976 3.13995,0.2036 8.47358,0.15851 11.90626,-0.10065 z M 703.05763,46.353254 c 1.97299,-0.66466 2.70055,-1.154668 5.05648,-3.405611 2.21059,-2.112089 4.1689,-4.792874 7.06371,-9.669754 7.80986,-13.1572 8.22293,-13.779791 15.97483,-24.0770827 2.86083,-3.8002104 5.96251,-7.5751002 7.72448,-9.40101621 4.1002,-4.24899669 7.37309,-9.39985209 10.1659,-15.99898409 1.5276,-3.609552 2.30987,-5.963867 4.74729,-14.2875 2.81871,-9.625674 4.49371,-14.086496 9.14008,-24.341667 4.31723,-9.528704 4.89688,-11.317843 6.98611,-21.563541 1.88929,-9.265153 1.86426,-8.981626 2.66153,-30.162498 0.27738,-7.36923 0.5747,-10.44049 1.86967,-19.31459 1.59171,-10.90766 1.65122,-11.48196 1.64479,-15.875 -0.013,-8.79393 -1.90281,-20.12592 -6.39845,-38.36458 -0.87879,-3.56526 -1.96212,-8.62542 -2.40739,-11.24479 -0.44527,-2.61938 -1.05302,-6.01266 -1.35054,-7.54063 -1.22764,-6.30446 -3.93255,-12.5862 -5.33387,-12.38707 -1.49092,0.21187 -1.09802,5.6139 0.91054,12.51937 2.23205,7.67376 2.35574,8.34522 2.41303,13.09687 0.0739,6.13341 -0.7021,9.19581 -3.39117,13.38218 -2.60273,4.05196 -4.85452,7.98721 -6.79468,11.87444 -2.48381,4.97647 -2.92246,5.60705 -4.92342,7.07787 -3.45599,2.54032 -5.66746,5.56353 -6.54,8.94051 -0.28295,1.09514 -0.46911,3.01715 -0.51255,5.29167 -0.0726,3.80166 -0.36796,5.02139 -1.80951,7.47313 -0.92229,1.56858 -2.89126,3.49398 -4.24146,4.1476 -1.64187,0.79481 -3.22937,0.70102 -6.46605,-0.38205 -3.44286,-1.15205 -6.00739,-2.34511 -10.92517,-5.08262 -7.5797,-4.21931 -9.24674,-4.8364 -13.04081,-4.82743 -3.45112,0.008 -5.65227,0.58039 -16.63827,4.32527 -14.63783,4.98973 -16.53498,5.91185 -21.94602,10.66703 -2.2546,1.9813 -6.27949,6.25824 -8.4623,8.99223 -5.34512,6.6947 -6.83017,8.74239 -10.3559,14.279379 -8.08562,12.698042 -11.95197,22.111414 -13.29701,32.374125 -0.37872,2.889621 -0.40997,5.211842 -0.24754,18.388542 0.15835,12.843325 0.11843,16.102065 -0.26898,21.960417 -0.94985,14.363938 0.22397,20.4288231 4.80973,24.8511483 2.47891,2.39056337 4.32975,3.3909265 10.34248,5.5899579 1.85539,0.6785769 4.86172,1.9488679 6.68073,2.8228925 2.93108,1.4083242 3.53428,1.8191163 5.30281,3.6112713 2.28232,2.312802 3.62595,4.791154 5.54114,10.220563 1.90593,5.403162 2.99871,7.377827 5.41954,9.792996 2.74339,2.736983 4.64683,3.809313 9.63258,5.426737 5.93749,1.926167 6.59471,2.33844 9.74095,6.110499 4.07371,4.88405 7.20543,6.164077 11.52269,4.709716 z M 41.468549,21.916469 C 42.395374,21.13661 42.7802,19.944821 43.013089,17.13312 43.425786,12.150566 40.906709,1.3218057 37.565477,-6.2845418 35.847212,-10.196169 32.435613,-16.872082 30.847145,-19.431106 c -3.4481,-5.554927 -5.196572,-5.928466 -6.619833,-1.414224 -0.855741,2.714175 -1.214373,5.930635 -1.447318,12.9805113 -0.130139,3.9385346 -0.309539,6.1612992 -0.53013,6.5682548 -0.398415,0.73501253 -0.276669,1.63816774 0.808734,5.9994535 1.455403,5.8480054 3.288011,10.9802084 3.920812,10.9802084 0.137443,0 0.377338,-0.238125 0.533099,-0.529167 0.615315,-1.14972 1.960718,-0.550651 4.969499,2.21279 3.335126,3.06316 6.496434,5.172921 7.776345,5.189722 0.243499,0.0032 0.788085,-0.284771 1.210196,-0.639974 z m 47.16271,-155.094019 c 5.582306,-0.93863 10.054854,-3.17957 17.211611,-8.62375 8.06142,-6.13235 12.15178,-8.42893 18.50714,-10.39108 2.03685,-0.62886 4.98382,-2.02108 6.79779,-3.21144 0.84512,-0.55456 3.62018,-3.04096 6.16679,-5.52532 2.54661,-2.48435 5.04693,-4.80218 5.55625,-5.15072 1.12432,-0.76943 3.40076,-2.69137 6.07632,-5.13008 3.49915,-3.1894 7.16886,-6.09156 11.51847,-9.10934 5.55037,-3.85086 6.41852,-4.52906 9.21336,-7.19762 4.40724,-4.2081 6.20993,-6.8697 11.57818,-17.09479 5.74446,-10.94165 9.68213,-17.37897 14.85851,-24.2907 1.68467,-2.24944 4.17086,-4.96098 8.38954,-9.14993 6.41502,-6.36981 8.21051,-8.63599 9.25338,-11.67923 0.96391,-2.81281 0.95265,-4.39221 -0.095,-13.3239 -1.07733,-9.18493 -1.45206,-11.68158 -3.31592,-22.0927 -1.5889,-8.87522 -2.29999,-13.67898 -2.64751,-17.88509 -0.34793,-4.21107 -0.82008,-6.56228 -1.95146,-9.71779 -0.96886,-2.70224 -1.82187,-4.02393 -4.81104,-7.45441 -3.88448,-4.45798 -4.8856,-6.21763 -4.8856,-8.58733 0,-2.74714 1.25173,-5.17868 4.35046,-8.45092 3.63743,-3.84112 6.36928,-5.60914 19.47776,-12.60574 20.03309,-10.69259 26.62974,-15.0408 28.40149,-18.72097 0.62595,-1.3002 0.66075,-1.60462 0.62622,-5.47775 -0.0304,-3.4091 0.0607,-4.4942 0.53988,-6.43123 1.69227,-6.84086 5.13128,-11.65861 11.15977,-15.63384 1.49605,-0.98651 4.32446,-2.98515 6.28531,-4.44143 6.34069,-4.70903 11.44323,-7.77624 16.20703,-9.74224 5.88282,-2.42783 12.19361,-2.92202 15.55387,-1.218 1.53046,0.77612 1.98623,1.26552 2.74569,2.94828 1.81105,4.01282 -0.41717,12.59263 -4.41418,16.99686 -2.16357,2.38401 -6.3396,5.64901 -12.56247,9.82188 -2.98317,2.00042 -6.79317,4.56379 -8.46666,5.69637 -1.67349,1.13259 -4.12488,2.69719 -5.44756,3.47689 -7.35003,4.33283 -7.72825,8.80511 -1.77734,21.01604 l 2.77228,5.68854 4.00412,3.83646 c 6.81093,6.52571 9.25388,9.03468 11.33536,11.64167 2.55191,3.19615 8.23188,11.81449 10.80897,16.40063 3.4444,6.12961 7.18503,9.28746 12.35535,10.43046 2.41075,0.53295 4.94626,0.53178 9.97813,-0.005 8.62539,-0.91945 16.46804,0.0476 25.21016,3.10844 6.3177,2.21202 10.03517,4.31966 13.19879,7.48314 4.49525,4.495 5.1684,8.64249 3.28843,20.2611 -1.417,8.75754 -1.59999,12.9448 -0.76941,17.60466 0.15468,0.8677 0.36984,5.44716 0.47813,10.17659 0.18571,8.11086 0.2317,8.68818 0.81031,10.17082 0.81497,2.0883 2.59445,3.873 4.52181,4.53501 2.74318,0.94226 10.62109,0.37275 13.23584,-0.95684 0.64267,-0.32678 2.45379,-1.41225 4.02471,-2.41212 5.89531,-3.75234 9.37339,-5.04963 14.94625,-5.57484 7.33923,-0.69168 15.2852,0.72622 32.1785,5.742 13.93417,4.13719 18.51506,6.305 34.75138,16.44523 11.77793,7.35579 17.02284,10.20183 23.74683,12.88569 5.56059,2.21945 8.3942,2.90271 11.49855,2.77259 5.73588,-0.24045 8.21383,-2.68306 12.70019,-12.519 3.48366,-7.63762 3.73835,-8.16496 5.17255,-10.70956 0.78105,-1.38578 2.86488,-4.72226 4.63074,-7.4144 8.71479,-13.28613 8.92029,-17.80477 1.37533,-30.24021 -4.86252,-8.01428 -9.96448,-12.99553 -18.08012,-17.65233 -2.79731,-1.60512 -9.68587,-4.69991 -12.89497,-5.79327 -5.75318,-1.96014 -12.2083,-2.07703 -23.19578,-0.42004 -6.66306,1.00484 -11.08605,1.28162 -14.78283,0.92507 -13.33564,-1.28618 -21.34206,-8.09438 -25.69025,-21.84547 -1.43835,-4.54872 -1.58271,-4.85912 -4.46627,-9.60284 -3.53338,-5.81274 -6.51637,-8.53753 -11.66929,-10.65924 -4.20537,-1.73155 -8.00037,-2.51303 -21.57595,-4.44298 -4.63227,-0.65854 -9.64711,-1.85093 -12.39248,-2.94662 -2.73163,-1.09019 -12.02253,-5.88034 -15.07889,-7.77427 -3.13254,-1.94115 -7.1547,-5.14252 -9.01295,-7.17369 -1.6746,-1.83044 -5.04381,-6.32186 -7.42882,-9.90327 -2.03917,-3.06206 -5.24282,-6.41393 -7.85876,-8.22231 -1.07156,-0.74077 -3.75991,-2.29979 -5.97413,-3.4645 -5.16556,-2.71715 -7.85143,-4.51048 -10.05374,-6.71279 -4.12504,-4.12503 -4.4572,-8.45729 -0.89405,-11.66086 1.62472,-1.46078 5.48063,-3.37175 11.949,-5.9219 7.02059,-2.76787 9.52101,-3.86811 12.17084,-5.35546 5.6243,-3.15693 9.37058,-6.19179 12.60242,-10.2092 3.00791,-3.73903 4.12662,-7.06995 3.31369,-9.86631 -0.23447,-0.80654 -0.74663,-1.93341 -1.13816,-2.50416 -1.0061,-1.46664 -1.58977,-3.11826 -2.31947,-6.56336 -0.73721,-3.48052 -1.32852,-4.7697 -3.01466,-6.5723 -5.14273,-5.498 -16.54101,-7.3116 -46.61778,-7.41744 -13.99667,-0.0493 -16.20176,0.0778 -22.225,1.28082 -4.8695,0.97256 -12.21198,3.24718 -17.38675,5.38622 -7.7965,3.22275 -16.10672,6.3483 -22.28393,8.38119 -3.26496,1.07448 -6.02606,1.9536 -6.13577,1.9536 -0.10971,0 -4.22493,1.53639 -9.14495,3.4142 -7.68287,2.9323 -21.76085,8.93013 -29.84756,12.71636 -3.392,1.58815 -5.54665,2.42253 -11.73772,4.54541 -9.29872,3.18847 -14.2212,5.37587 -18.82166,8.36375 -3.46937,2.25327 -12.21173,8.60479 -15.74271,11.43742 -1.74625,1.40088 -5.61578,4.44459 -8.59895,6.76378 -22.42134,17.43091 -41.40283,36.41563 -50.161279,50.16982 -3.485755,5.474 -5.593077,10.59053 -6.888125,16.7242 -0.783736,3.71197 -2.942548,10.49463 -5.189503,16.30464 -2.832037,7.32287 -3.699587,10.20255 -3.847362,12.77063 -0.116118,2.01797 -0.06851,2.39136 0.366109,2.87161 0.780643,0.8626 2.508295,0.56167 5.451242,-0.94953 5.763906,-2.95975 10.648895,-4.08561 21.340898,-4.91851 4.27361,-0.33291 7.41455,-0.20366 10.42945,0.42916 2.11809,0.44459 2.98226,0.85788 3.92613,1.87771 1.12197,1.21225 1.35981,1.92132 1.35537,4.0408 -0.005,2.45424 -0.62291,5.07902 -2.68592,11.41188 -0.87394,2.68274 -2.31236,7.49709 -3.19648,10.69855 -4.06243,14.71032 -6.80936,20.85734 -14.8752,33.28736 -7.400557,11.40481 -10.226457,17.91827 -11.730391,27.03764 -0.996985,6.04538 -2.41844,10.51911 -5.128083,16.13958 -2.332368,4.8379 -4.372354,8.2323 -8.348078,13.89062 -6.664232,9.48468 -9.51852,16.12813 -9.49189,22.09271 0.02402,5.38144 2.288958,9.02393 7.223564,11.61698 3.348128,1.7594 5.628172,1.97472 11.124547,1.0505 z M 558.97364,-392.24908 c 1.0156,-0.55922 1.4097,-1.13051 1.4097,-2.04352 0,-1.41328 -2.38874,-3.81663 -5.12397,-5.15534 -2.75712,-1.34942 -4.77563,-1.8523 -7.43493,-1.8523 -2.58672,0 -3.70353,0.29437 -4.68524,1.23492 -2.30915,2.21229 1.33302,6.295 7.05768,7.91133 1.6183,0.45692 7.89781,0.38888 8.77676,-0.0951 z"
       style="fill:#a9a4a1;fill-opacity:1;stroke-width:0.26458332" />
    <path
       inkscape:connector-curvature="0"
       id="path841"
       d="m 252.54063,241.76662 c -6.27398,-1.16049 -12.08664,-3.29859 -19.40996,-7.13965 -4.20979,-2.208 -10.63162,-5.85909 -12.47233,-7.09102 -2.60574,-1.74392 -12.55071,-9.19091 -15.5887,-11.67313 -1.10335,-0.90148 -3.43484,-2.69872 -5.18109,-3.99388 -2.02032,-1.49842 -5.1957,-4.3325 -8.73125,-7.79283 -3.72955,-3.65016 -6.29563,-5.92931 -7.80521,-6.93242 -2.32183,-1.54289 -7.57998,-4.26276 -12.43542,-6.43242 -9.21474,-4.11766 -19.66594,-10.27277 -27.96852,-16.4718 -7.84346,-5.8562 -12.77768,-8.93098 -17.4965,-10.903 -3.26069,-1.36266 -4.20692,-1.64888 -9.692,-2.93158 -6.65805,-1.55702 -9.7954,-3.54372 -15.842478,-10.03218 -6.488621,-6.96222 -16.746292,-20.53294 -21.787221,-28.82416 -1.354333,-2.22758 -1.669526,-2.95746 -1.669526,-3.86614 0,-1.8088 -3.540913,-12.83198 -5.695159,-17.729519 -3.142339,-7.143937 -7.594827,-18.932447 -8.068582,-21.362566 -0.302125,-1.549744 -0.177379,-1.892935 0.924338,-2.542963 0.732144,-0.431985 0.98933,-0.868045 1.606706,-2.724177 1.112819,-3.345682 2.545799,-5.560165 5.548569,-8.574537 2.718789,-2.729283 5.208807,-4.343982 6.718575,-4.356788 1.075119,-0.009 2.798559,-0.912495 3.42845,-1.797076 2.847517,-3.998966 4.098007,-19.067145 2.43038,-29.285645 -1.172001,-7.181532 -2.93634,-12.723336 -8.423526,-26.4583327 -2.487266,-6.225884 -4.474697,-12.2470598 -5.501934,-16.6687503 -0.631499,-2.71825 -0.740156,-3.764941 -0.755316,-7.276042 -0.01516,-3.511338 0.06854,-4.398671 0.582107,-6.17093 0.75161,-2.59371 1.124442,-3.323854 4.27958,-8.381153 1.407205,-2.255573 3.135757,-5.13752 3.841223,-6.404319 1.767917,-3.174656 4.386614,-6.588681 6.164884,-8.037248 2.726992,-2.221389 5.268005,-3.225456 11.969705,-4.729692 6.001435,-1.347046 7.952705,-1.895792 11.498675,-3.233764 6.69287,-2.525368 7.35456,-2.723171 9.12143,-2.726848 2.28197,-0.0048 3.52531,0.634232 5.68137,2.919756 2.82372,2.993311 8.67183,12.179935 14.05576,22.079823 3.42101,6.290496 4.41379,8.485955 5.98218,13.229167 0.72177,2.182812 1.6693,4.602321 2.10561,5.376677 1.83119,3.249957 4.45627,6.896497 6.54391,9.0902637 6.62026,6.956769 12.41826,9.5571733 22.92673,10.2826608 7.37128,0.5089261 11.17,2.3011342 15.79341,7.4512488 4.33576,4.8296777 6.26937,7.8963307 11.06003,17.5408167 3.85575,7.762319 5.21433,9.865598 8.46059,13.098224 3.13089,3.117744 6.18795,5.293863 12.31509,8.766334 6.92021,3.921919 12.00038,6.923378 15.61042,9.222951 7.5919,4.835949 11.26515,6.811513 17.40352,9.360059 8.09743,3.361875 9.9686,3.845534 17.52148,4.529085 8.49987,0.769223 13.28592,1.839119 17.82009,3.983566 5.59625,2.64676 9.42535,6.597439 11.01508,11.364781 0.71085,2.131801 1.0246,5.627026 0.71384,7.952687 -0.40399,3.023314 -1.50574,5.04174 -4.26191,7.80799 -2.6263,2.63591 -5.627,4.58573 -10.43429,6.78008 -6.4625,2.94991 -8.39041,4.39872 -9.88449,7.42815 -0.98938,2.00609 -0.99928,2.05787 -0.97192,5.07891 0.0259,2.86118 0.0952,3.2426 1.10638,6.09489 0.5933,1.67349 2.17017,5.36289 3.50414,8.19864 1.33398,2.83578 2.76516,6.17006 3.1804,7.4095 1.40587,4.19621 1.89093,8.94456 1.32461,12.96686 -0.9439,6.70399 -1.14334,9.44118 -0.84923,11.65492 1.09048,8.20783 6.34656,14.95412 17.76751,22.805 5.31421,3.65302 11.97091,7.27127 16.6918,9.07282 3.02715,1.15523 4.73964,2.03539 7.02886,3.61262 3.97701,2.74013 6.44121,6.24838 6.44163,9.17091 2.6e-4,1.81877 -0.54954,2.94656 -2.1286,4.36629 -2.04354,1.83732 -3.61908,2.22313 -13.08473,3.20426 -3.71912,0.3855 -22.56814,4.01585 -27.51667,5.29974 -2.88007,0.74723 -5.55696,1.88597 -6.97367,2.96656 -0.49599,0.3783 -1.88032,2.18776 -3.07629,4.021 -3.66818,5.62288 -5.54699,6.83461 -12.7531,8.22526 -3.25172,0.62752 -10.64571,0.69874 -13.70944,0.13206 z m 333.04882,-32.68753 c -2.84472,-0.56142 -4.42155,-2.02382 -4.71506,-4.37292 -0.24127,-1.93096 0.0175,-4.99198 0.722,-8.54393 0.79399,-4.00248 0.77446,-5.89563 -0.0794,-7.70623 -0.97853,-2.07491 -2.13897,-3.12917 -6.87033,-6.24176 -6.79963,-4.4732 -7.65016,-5.57241 -9.32064,-12.04592 -1.02227,-3.96163 -1.83464,-5.80546 -3.24609,-7.36777 -2.0865,-2.3095 -4.84579,-3.49427 -9.58482,-4.11552 -3.79635,-0.49765 -5.86528,-1.11482 -10.36799,-3.09271 -6.34563,-2.78744 -9.98831,-4.89455 -19.96379,-11.54803 -9.6829,-6.45835 -11.2798,-7.95528 -11.68292,-10.9515 -0.4785,-3.55643 3.34955,-11.04786 8.40804,-16.45452 5.62546,-6.01263 10.1904,-7.93287 24.56159,-10.33187 2.25557,-0.37653 5.88698,-1.03127 8.06979,-1.45497 2.18281,-0.42371 6.46906,-1.08151 9.525,-1.46183 10.44194,-1.29952 16.0905,-2.46681 20.55836,-4.248515 5.05423,-2.01549 7.65752,-3.82188 14.36791,-9.969633 8.04976,-7.374837 10.75722,-9.424246 15.31993,-11.596449 4.81089,-2.290366 9.08836,-3.081867 12.25756,-2.268088 4.75978,1.222164 7.30356,3.755655 10.79548,10.75182 0.97957,1.962574 2.26012,4.343824 2.84567,5.291667 2.15911,3.494987 5.2836,6.033823 8.91863,7.247017 2.26658,0.756444 8.55956,1.748421 11.1125,1.751651 2.61062,0.003 6.31582,0.52448 7.87442,1.10762 6.47208,2.42152 5.21177,8.9612 -4.32477,22.44098 -6.38482,9.02488 -7.43175,11.42307 -6.33891,14.52054 0.21217,0.60132 1.07537,2.24986 1.91823,3.66343 l 1.53249,2.57013 -0.0156,3.05054 c -0.0156,3.03408 -0.0241,3.07343 -1.54464,7.2839 -3.66802,10.15643 -7.67678,16.85576 -13.91129,23.24812 -6.2417,6.39974 -12.36467,11.32668 -21.41236,17.22974 -6.84442,4.46556 -18.37669,10.51746 -23.4089,12.28453 -4.06607,1.4278 -8.83026,1.95604 -11.99991,1.33048 z m 79.40493,-33.75236 c -0.63233,-1.50956 -0.35965,-4.20775 0.7039,-6.96564 0.84907,-2.2017 1.60213,-3.38846 7.37041,-11.61518 1.56615,-2.23361 4.29776,-6.4167 6.07026,-9.29571 6.4552,-10.48499 9.52571,-14.6254 24.92264,-33.60669 2.41982,-2.98317 5.63091,-7.0313 7.13571,-8.99583 4.99379,-6.519491 10.05281,-12.464467 16.77588,-19.713786 5.56979,-6.005803 8.01682,-9.444725 13.17709,-18.518505 2.28193,-4.012485 2.97416,-4.933579 3.54354,-4.715086 0.5801,0.22262 0.45254,2.659062 -0.25535,4.87672 -1.47632,4.62497 -5.38186,13.189162 -8.55337,18.756075 -5.98699,10.508932 -11.35049,19.486722 -13.59376,22.754162 -0.24977,0.36381 -1.21042,1.85209 -2.13477,3.30729 -0.92432,1.45521 -3.10647,4.61037 -4.8492,7.01146 -4.23619,5.83658 -9.91227,14.40786 -12.44386,18.79113 -4.1829,7.24239 -6.67538,10.71484 -13.76463,19.17658 -5.36175,6.39982 -8.51847,9.63031 -13.70653,14.02689 -4.64783,3.93874 -6.73938,5.25838 -8.84436,5.58019 -1.10945,0.16963 -1.1294,0.15865 -1.5536,-0.85407 z M 431.92813,147.10439 c -2.99328,-1.47092 -6.0099,-5.03798 -7.5429,-8.91921 -1.38567,-3.50827 -1.58327,-4.43047 -2.52296,-11.77396 -1.18785,-9.28259 -1.9902,-12.20232 -4.92136,-17.90872 -2.75074,-5.35509 -4.63875,-7.86894 -11.14292,-14.836613 -5.14067,-5.506985 -6.15027,-6.703881 -7.97584,-9.455706 -4.25947,-6.420617 -4.49773,-11.941228 -0.90781,-21.034375 1.43793,-3.642201 2.93491,-6.301925 6.76939,-12.027244 4.22942,-6.314996 5.48211,-8.830389 5.47402,-10.991506 -0.008,-2.056818 -0.4993,-2.961931 -2.89216,-5.325031 -2.8915,-2.855515 -6.22298,-4.97713 -15.74475,-10.026808 C 375.4094,16.791199 368.78214,11.766735 353.48865,-3.2706995 343.93396,-12.665419 340.605,-16.834935 338.78128,-21.691759 c -1.60417,-4.272015 -4.76914,-9.554765 -9.54911,-15.938685 -3.37518,-4.507759 -6.00289,-7.579095 -10.51597,-12.291325 -4.72397,-4.932441 -8.00192,-8.972682 -13.12738,-16.180144 -6.75343,-9.496768 -8.91413,-11.905218 -13.48086,-15.02664 -4.23042,-2.891551 -7.41416,-4.162345 -15.22566,-6.077373 -6.06086,-1.485847 -7.16973,-1.834621 -9.39271,-2.954496 -5.12915,-2.583894 -6.64627,-5.29336 -9.51504,-16.993158 -0.87307,-3.56063 -1.95777,-7.53157 -2.41046,-8.82433 -2.60164,-7.42955 -6.729,-11.8986 -12.77619,-13.83384 -1.32996,-0.42564 -4.77257,-1.26844 -7.65026,-1.87291 -6.92276,-1.45418 -9.32355,-2.16839 -12.49492,-3.71716 -3.15396,-1.54027 -5.2355,-3.15846 -7.42871,-5.77514 -8.47687,-10.11354 -8.12124,-27.38088 0.88481,-42.96188 3.28059,-5.6756 8.58199,-11.58536 13.07385,-14.57415 6.25107,-4.15932 17.36916,-7.72511 28.13046,-9.02202 1.89177,-0.22799 5.91027,-0.71514 8.92998,-1.08254 8.30927,-1.01098 13.09232,-1.26683 17.34754,-0.92795 7.50459,0.59767 12.77628,2.27007 17.89821,5.67809 2.84938,1.89592 5.31847,4.35345 8.12189,8.08384 2.43769,3.24369 6.51894,7.37624 10.40863,10.53936 2.99392,2.43467 13.72322,12.60038 16.33477,15.47672 5.04026,5.5513 7.82545,9.04484 11.53221,14.46517 3.37354,4.93308 3.84005,5.554 5.64216,7.50975 2.30753,2.50428 4.46095,4.06281 7.71387,5.58292 4.19497,1.9603 8.56649,2.86663 15.92699,3.30202 2.32833,0.13775 6.43599,0.38839 9.12813,0.55703 10.42633,0.6531 19.34636,-0.49226 27.86242,-3.57761 1.42711,-0.51705 4.34414,-1.64476 6.48229,-2.50606 6.2034,-2.49883 7.93102,-3.10189 11.16362,-3.89691 2.9269,-0.7198 3.29446,-0.74838 9.65729,-0.75047 5.81438,-0.003 6.96907,0.0697 9.54474,0.59187 7.12189,1.44381 11.47998,3.71626 15.76755,8.22175 3.69684,3.88474 6.07264,7.87749 8.76552,14.73134 3.79648,9.66258 4.57462,11.5585 5.75558,14.02291 3.25536,6.79321 6.46682,11.12965 13.22615,17.859378 5.91267,5.886741 7.44215,7.789968 9.24925,11.509375 1.61126,3.316367 1.96223,4.970886 1.93625,9.128125 -0.0345,5.524209 -0.80147,8.537284 -6.02766,23.680208 -4.00732,11.611213 -5.32974,17.28261 -5.61419,24.077083 -0.16396,3.91668 0.18944,8.787924 0.84048,11.585073 1.80763,7.7663674 4.92741,12.0590733 14.89979,20.5016099 7.83294,6.6312781 10.43208,9.7893711 14.57905,17.7144361 6.18834,11.82624 7.52287,13.745607 13.42554,19.308948 4.67318,4.404545 6.69044,6.780133 8.13064,9.5749 1.66093,3.223128 2.10932,4.94157 2.11307,8.098367 0.004,3.287289 -0.55335,5.628534 -2.0302,8.529082 -2.27301,4.464341 -4.92633,7.708503 -15.66156,19.149324 -9.81752,10.462789 -11.31644,11.761761 -15.51001,13.440941 -4.6166,1.84859 -15.84457,4.20322 -28.55788,5.98897 -11.68289,1.641 -16.62136,2.9327 -22.14837,5.79319 -5.11908,2.64935 -7.92748,5.68658 -9.43303,10.20162 -0.68768,2.06229 -0.76735,2.71491 -0.95983,7.86291 -0.27766,7.42688 -0.4594,8.06744 -2.98641,10.52563 -3.27387,3.18474 -7.75925,4.83338 -13.80239,5.07317 l -3.175,0.12597 z m -108.6028,-253.53097 c 0.95265,-0.49263 1.67809,-1.81301 1.46425,-2.66505 -0.14764,-0.58824 -1.33469,-1.43152 -2.01509,-1.43152 -0.71655,0 -2.15699,0.92318 -2.51219,1.61004 -0.53748,1.03936 -0.4843,1.48992 0.26421,2.23845 0.74335,0.74332 1.68047,0.8264 2.79882,0.24808 z m 420.1396,159.349782 c -1.78814,-0.9017 -2.1753,-1.856052 -2.01253,-4.960938 0.18984,-3.621378 1.23865,-7.345098 4.88109,-17.330208 3.95922,-10.853499 4.64735,-12.640284 6.52134,-16.933333 2.78249,-6.3743152 5.65203,-11.4832077 7.27461,-12.9516452 0.51642,-0.46733354 0.59333,-0.47336604 0.98902,-0.0776817 0.38422,0.3842279 0.39504,0.7280804 0.10369,3.2896175 -0.17897,1.5732919 -0.60365,4.110699 -0.94377,5.6386677 -0.60561,2.7206837 -4.60942,15.9281277 -6.33643,20.9020827 -0.48001,1.382448 -1.19864,3.882761 -1.59695,5.55625 -2.45697,10.32301 -4.00454,14.708691 -5.90523,16.734896 -0.82844,0.883179 -1.43253,0.910035 -2.97484,0.132292 z M 561.73377,-110.80758 c -4.57941,-0.51591 -6.51676,-1.31318 -12.9921,-5.34652 -5.63948,-3.51271 -9.16321,-5.88623 -11.19663,-7.54186 -5.59398,-4.55462 -10.5926,-11.82667 -11.60934,-16.88928 -0.63489,-3.1614 0.71766,-6.71132 3.82926,-10.05041 6.0438,-6.4856 17.6806,-12.28371 24.62808,-12.27109 3.04197,0.006 5.12305,0.56875 8.76842,2.3731 4.95155,2.45089 9.16853,5.69119 15.50054,11.91049 5.0115,4.92228 5.29193,5.78882 3.18003,9.82641 -1.52326,2.91224 -1.85092,4.34409 -2.80699,12.2663 -1.0178,8.43388 -1.86209,10.90773 -4.56605,13.379 -1.05437,0.96363 -1.86627,1.4339 -3.18622,1.84549 -2.09989,0.65482 -6.24155,0.87098 -9.549,0.49837 z m 46.66168,-8.70865 c -3.52375,-0.51774 -6.53584,-3.16498 -9.22721,-8.10951 -3.82892,-7.0345 -4.69262,-8.31789 -7.74668,-11.51094 -3.55804,-3.71999 -3.71269,-4.12493 -2.66303,-6.97293 0.37544,-1.01865 1.41726,-3.51414 2.31515,-5.54556 1.98303,-4.48633 4.73536,-12.62899 5.72731,-16.94403 0.64463,-2.80418 0.73101,-3.71578 0.73967,-7.8052 0.009,-4.19614 -0.0585,-4.90032 -0.71822,-7.51155 -0.72445,-2.86732 -2.34188,-7.20556 -4.94307,-13.25825 -1.57864,-3.67336 -2.31164,-5.05158 -6.89526,-12.96458 -4.80859,-8.30141 -7.4899,-13.41734 -11.63272,-22.19533 -4.63397,-9.81858 -8.21015,-16.96716 -11.00564,-21.99954 -1.21544,-2.18802 -3.39568,-6.72682 -4.84497,-10.08624 -2.88649,-6.69077 -4.85433,-10.74524 -6.87847,-14.17221 -5.12154,-8.67094 -12.38198,-15.08368 -24.41999,-21.56884 -5.41909,-2.91939 -19.00621,-9.3255 -31.30336,-14.75904 -6.69895,-2.95996 -10.06951,-5.2425 -12.50481,-8.4683 -1.82883,-2.42243 -2.5095,-4.19983 -2.64983,-6.9193 -0.10155,-1.96764 -0.0465,-2.28451 0.6051,-3.48168 1.13316,-2.08194 2.49825,-2.92607 8.19954,-5.07031 4.10282,-1.54306 5.91566,-2.39599 8.86355,-4.17022 4.05971,-2.44342 6.46615,-4.71668 11.10287,-10.48842 3.26395,-4.06293 5.33968,-6.14013 7.71144,-7.71687 6.32528,-4.20504 16.12603,-5.64775 30.53651,-4.49513 2.61607,0.20925 7.01866,0.45476 9.78355,0.54559 6.32106,0.20764 12.48947,0.71764 20.76979,1.7172 3.56526,0.43038 8.62542,0.96976 11.24479,1.19861 7.43662,0.64973 17.99797,1.92262 20.8238,2.50976 1.41213,0.29341 5.51979,1.37373 9.12812,2.40072 3.60831,1.02698 7.21543,2.03164 8.01579,2.23258 0.80037,0.20093 2.71579,0.71517 4.25654,1.14275 1.54072,0.42758 4.57682,1.09201 6.74688,1.47652 13.32015,2.36016 16.92986,3.56854 22.43343,7.50984 6.55196,4.69208 13.03894,12.54986 18.12661,21.95704 3.04234,5.62536 7.95914,13.62051 10.5814,17.20634 0.67257,0.9197 2.29441,3.08815 3.6041,4.81878 4.23191,5.59207 4.605,6.15842 6.35614,9.64862 1.90698,3.80089 2.92587,7.3019 4.19653,14.41979 1.08376,6.07106 1.3032,10.13848 1.14197,21.16667 -0.2172,14.85688 -1.1901,25.62177 -2.70317,29.91024 -1.11752,3.16741 -3.00112,5.05246 -10.04279,10.05054 -5.44304,3.8634 -9.03684,7.1445 -10.98095,10.02549 -0.63087,0.93491 -2.04086,3.55428 -3.13333,5.82083 -2.52177,5.23198 -2.59,5.84441 -1.37337,12.3231 2.11889,11.28313 1.14387,17.86351 -3.64601,24.60625 -2.01081,2.83068 -3.29052,4.21119 -14.43654,15.57399 -10.9528,11.16581 -13.35066,13.30351 -19.35348,17.25358 -8.13805,5.35517 -14.32832,8.33575 -20.50521,9.87314 -1.88193,0.46842 -6.88025,1.13954 -7.80521,1.04799 -0.14552,-0.0143 -0.86428,-0.11427 -1.59726,-0.22198 z M 35.114012,-175.80909 c -0.80059,-0.8868 -1.072396,-2.84843 -0.902065,-6.51029 0.266382,-5.7269 0.813911,-7.76528 5.020622,-18.69127 0.812411,-2.11006 2.440106,-6.45584 3.617103,-9.65729 4.641484,-12.62497 6.005382,-15.59579 7.812574,-17.01734 0.905663,-0.71239 1.454981,-0.72398 2.760009,-0.0582 2.371963,1.21008 6.06121,6.71211 6.655215,9.92537 0.375394,2.03071 -0.08475,5.67693 -1.098275,8.70286 -0.749612,2.23801 -3.355453,7.54597 -5.530368,11.26509 -0.557816,0.95385 -1.950487,2.8136 -3.094826,4.13279 -3.226625,3.71959 -4.519284,5.4248 -8.110138,10.69837 -3.662915,5.37941 -5.529366,7.67292 -6.244198,7.67292 -0.257204,0 -0.655746,-0.20836 -0.885653,-0.46302 z m 79.181828,-191.25186 c 0,-0.40401 7.71274,-8.24265 14.08109,-14.31094 13.66921,-13.02516 29.82014,-26.27646 44.89568,-36.83542 7.20233,-5.04454 9.31662,-6.4137 7.31555,-4.7374 -0.57427,0.48108 -2.00302,2.07711 -3.175,3.54675 -14.8431,18.61299 -24.77766,28.43645 -39.07071,38.63378 -6.72921,4.80094 -8.83439,6.13133 -12.80182,8.09025 -3.87093,1.91127 -7.62509,3.92422 -9.37836,5.0286 -1.10933,0.69875 -1.86643,0.9358 -1.86643,0.58438 z m 335.62396,-44.69062 c -1.01865,-0.20904 -2.94354,-0.91985 -4.27755,-1.57958 -3.7171,-1.83828 -5.49613,-4.18468 -6.27599,-8.27744 -0.41132,-2.15877 -0.24712,-3.7386 0.72173,-6.94373 0.90889,-3.00678 1.32675,-5.59534 1.12278,-6.95543 -0.22532,-1.50257 -1.4905,-3.64999 -2.72079,-4.61801 -3.56859,-2.80788 -6.95306,-3.95035 -26.14101,-8.8242 -5.09323,-1.29371 -12.53464,-3.30628 -16.53646,-4.47238 -14.52071,-4.23122 -14.94886,-4.33354 -20.6375,-4.93178 -7.49438,-0.78814 -29.48493,-0.75418 -59.46101,0.0918 -7.61939,0.21504 -15.6423,-0.94456 -19.29609,-2.78899 -1.90161,-0.95994 -3.26374,-2.40142 -3.26374,-3.45389 0,-0.83748 1.08612,-2.47198 2.34839,-3.53411 1.92289,-1.61801 7.48985,-4.61879 11.62463,-6.26609 5.30632,-2.11403 10.45834,-3.49829 22.14261,-5.94933 15.79451,-3.31327 19.25547,-4.12819 19.8193,-4.66669 0.14274,-0.13631 0.10277,-0.39488 -0.0985,-0.63743 -0.2772,-0.334 -0.27276,-0.40869 0.0243,-0.41139 0.19971,-0.002 2.20858,-0.23794 4.46416,-0.52473 2.25557,-0.28678 8.92307,-0.90076 14.81666,-1.36441 10.56886,-0.83144 10.95841,-0.84305 28.44271,-0.84818 16.79006,-0.005 18.23056,0.0327 27.25209,0.71253 19.71042,1.48521 40.08987,4.48885 58.34062,8.59858 11.58576,2.6089 30.4936,7.76339 31.3399,8.54361 0.15245,0.14056 0.0805,0.23173 -0.18283,0.23173 -1.73622,0 0.35266,1.41087 7.2722,4.91182 2.72773,1.38009 6.2996,3.31617 7.9375,4.30242 1.63791,0.98624 5.00209,2.90482 7.47594,4.2635 7.52414,4.13238 8.64624,4.79347 10.97433,6.46555 2.84126,2.04064 5.66735,4.69781 6.09529,5.73095 0.28424,0.68621 0.26596,0.86879 -0.13097,1.3074 -0.47392,0.52366 -1.26047,0.71961 -5.81705,1.4492 -2.59077,0.41483 -5.06616,1.31795 -6.04935,2.20704 -0.70308,0.63579 -1.39936,2.08795 -2.16837,4.52229 -0.50895,1.61113 -0.8777,2.28686 -1.58848,2.91094 -2.28465,2.00595 -4.00021,2.32566 -14.36648,2.67732 -10.92485,0.37062 -14.96568,1.16318 -24.25517,4.75738 -2.91042,1.12607 -6.3037,2.37689 -7.54063,2.7796 -1.23692,0.40272 -4.92786,1.77629 -8.20208,3.05237 -3.27422,1.27609 -7.14375,2.73974 -8.59896,3.25257 -1.45521,0.51282 -4.01505,1.42647 -5.68854,2.03033 -5.40078,1.94882 -7.76631,2.42023 -12.7,2.53094 -3.10163,0.0696 -4.90186,-0.0121 -6.21771,-0.28212 z"
       style="fill:#a09a96;fill-opacity:1;stroke-width:0.26458332" />
    <path
       style="fill:#000000;fill-opacity:0.313725;stroke-width:0.264583"
       d="m 396.51636,289.75856 c 28.72248,0.0148 57.56775,-3.15959 86.08777,-9.58701 55.47868,-12.50298 108.67567,-37.61085 153.32605,-72.36664 3.92906,-3.05839 7.7986,-6.11342 8.59896,-6.78925 18.66037,-15.75699 33.07419,-29.88881 47.2214,-46.29692 59.00576,-68.435588 92.3515,-154.93627686 94.55082,-245.268756 2.50634,-102.942764 -36.21612,-203.222624 -107.26735,-277.790274 -44.35573,-46.55092 -99.13014,-81.21091 -160.31425,-101.44342 -35.1291,-11.61655 -74.11834,-18.47731 -110.59583,-19.46081 -4.36563,-0.11769 -8.53282,-0.23278 -9.26042,-0.2553 -0.75316,-0.0233 -2.15564,-0.008 -3.80804,0.0243 78.78937,14.60913 150.57225,61.87128 202.44069,133.28774 51.86844,71.41649 80.41937,162.30169 80.51879,256.312722 C 677.97785,-6.1109324 649.63613,84.578245 598.06112,155.9653 546.48611,227.35235 475.0434,274.77879 396.51636,289.75852 Z"
       id="path824"
       inkscape:connector-curvature="0"
       sodipodi:nodetypes="cssssssscccscsc"
       inkscape:transform-center-x="-193.86068"
       inkscape:transform-center-y="-0.0011995816" />
  </g>
</svg>
