<?xml version="1.0" encoding="UTF-8" standalone="no"?>
<!-- Created with Inkscape (http://www.inkscape.org/) -->

<svg
   width="3000"
   height="3000"
   viewBox="0 0 793.74998 793.75002"
   version="1.1"
   id="svg8"
   inkscape:version="1.3 (0e150ed6c4, 2023-07-21)"
   sodipodi:docname="Mars.svg"
   inkscape:export-filename="G:\Pictures\My Pictures\Vectors and SVGs\Space\Mars.png"
   inkscape:export-xdpi="96"
   inkscape:export-ydpi="96"
   xmlns:inkscape="http://www.inkscape.org/namespaces/inkscape"
   xmlns:sodipodi="http://sodipodi.sourceforge.net/DTD/sodipodi-0.dtd"
   xmlns="http://www.w3.org/2000/svg"
   xmlns:svg="http://www.w3.org/2000/svg"
   xmlns:rdf="http://www.w3.org/1999/02/22-rdf-syntax-ns#"
   xmlns:cc="http://creativecommons.org/ns#"
   xmlns:dc="http://purl.org/dc/elements/1.1/">
  <defs
     id="defs2" />
  <sodipodi:namedview
     id="base"
     pagecolor="#000720"
     bordercolor="#666666"
     borderopacity="1.0"
     inkscape:pageopacity="0"
     inkscape:pageshadow="2"
     inkscape:zoom="0.1767767"
     inkscape:cx="1699.8847"
     inkscape:cy="1462.2968"
     inkscape:document-units="mm"
     inkscape:current-layer="layer1"
     showgrid="false"
     inkscape:pagecheckerboard="false"
     inkscape:showpageshadow="false"
     borderlayer="true"
     units="px"
     inkscape:snap-object-midpoints="true"
     inkscape:window-width="1600"
     inkscape:window-height="837"
     inkscape:window-x="-8"
     inkscape:window-y="-8"
     inkscape:window-maximized="1"
     inkscape:snap-page="true"
     inkscape:snap-global="false"
     inkscape:deskcolor="#505050" />
  <metadata
     id="metadata5">
    <rdf:RDF>
      <cc:Work
         rdf:about="">
        <dc:format>image/svg+xml</dc:format>
        <dc:type
           rdf:resource="http://purl.org/dc/dcmitype/StillImage" />
      </cc:Work>
    </rdf:RDF>
  </metadata>
  <g
     inkscape:label="Layer 1"
     inkscape:groupmode="layer"
     id="layer1"
     transform="translate(0,496.75002)">
    <circle
       style="opacity:1;fill:#fcfcfc;fill-opacity:1;fill-rule:nonzero;stroke:none;stroke-width:6.15225124;stroke-linecap:round;stroke-linejoin:round;stroke-miterlimit:4;stroke-dasharray:none;stroke-dashoffset:0;stroke-opacity:1;paint-order:normal"
       id="path891"
       cx="396.875"
       cy="-99.875023"
       r="388.58313" />
    <path
       style="fill:#ff9d5d;stroke-width:3.030303;fill-opacity:1"
       d="M 1621.2676 37.408203 C 1616.9936 37.952543 1613.0783 39.046317 1607.7363 40.726562 C 1592.3938 45.552377 1582.1673 45.705188 1476.6074 42.6875 C 1433.6109 41.458325 1391.1747 40.018353 1364.0137 38.914062 A 1468.6606 1468.6606 0 0 0 31.339844 1500 A 1468.6606 1468.6606 0 0 0 1494.8867 2968.4043 C 1501.2233 2967.9472 1507.8884 2967.4446 1515.1523 2966.8711 C 1538.7545 2965.0075 1574.8915 2964.2894 1598.7012 2965.166 A 1468.6606 1468.6606 0 0 0 2968.6602 1500 A 1468.6606 1468.6606 0 0 0 1621.2676 37.408203 z "
       transform="matrix(0.26458333,0,0,0.26458333,0,-496.75002)"
       id="path868" />
    <path
       style="fill:#e8663e;stroke-width:3.030303;fill-opacity:1"
       d="M 1629.1797 39.861328 C 1621.8254 39.792864 1616.6196 40.926226 1608.625 43.40625 C 1594.3248 47.842357 1578.6733 48.253703 1475.2383 46.910156 C 1410.7858 46.072991 1350.9298 44.037616 1342.2246 42.386719 C 1341.2854 42.208593 1340.2521 42.060087 1339.168 41.929688 A 1468.6606 1468.6606 0 0 0 482.14648 441.72852 C 478.6079 445.14656 475.09266 448.56657 471.60742 451.99219 A 1468.6606 1468.6606 0 0 0 377.75586 552.73633 C 377.11309 553.49366 376.47486 554.25342 375.83398 555.01172 A 1468.6606 1468.6606 0 0 0 31.339844 1500 A 1468.6606 1468.6606 0 0 0 668.28125 2710.2754 C 669.92271 2711.4013 671.56092 2712.5357 673.20508 2713.6543 A 1468.6606 1468.6606 0 0 0 1464.0977 2966.8633 C 1475.6447 2966.124 1489.5875 2965.0568 1507.5762 2963.6387 C 1532.5762 2961.6649 1573.4844 2960.7825 1598.4844 2961.6719 C 1608.8123 2962.0393 1619.7197 2962.0287 1631.123 2961.6758 A 1468.6606 1468.6606 0 0 0 1997.2168 2880.4668 C 2018.9654 2870.9057 2040.4216 2859.4416 2069.3789 2842.8516 C 2105.8211 2821.9733 2130.6763 2812.9571 2142.9473 2816.166 C 2145.3461 2816.7933 2150.3675 2815.5472 2157.3945 2812.8125 A 1468.6606 1468.6606 0 0 0 2288.0879 2738.9531 C 2291.7834 2736.5824 2295.4908 2734.1882 2299.2109 2731.7676 A 1468.6606 1468.6606 0 0 0 2902.2266 1936.3164 C 2902.9162 1933.9587 2903.607 1931.577 2904.3066 1929.1523 A 1468.6606 1468.6606 0 0 0 2937.8066 1797.957 C 2940.5898 1777.0896 2939.4376 1754.7471 2941.8105 1735.3047 L 2943.6602 1720.1523 L 2937.6504 1727.7285 C 2932.7193 1733.9444 2930.9297 1734.5975 2927.6875 1731.3691 C 2888.4099 1740.5207 2872.0589 1626.5493 2882.0195 1576.0605 C 2890.5473 1532.8348 2896.4586 1423.5009 2900.1816 1387.1484 C 2901.0372 1387.9946 2903.3061 1388.9069 2907.9766 1389.998 C 2911.371 1392.096 2959.343 1435.441 2965.0254 1397.3164 A 1468.6606 1468.6606 0 0 0 1735.3262 52.083984 C 1702.3479 48.322013 1666.5655 44.0323 1652.5645 42.136719 C 1641.9188 40.695424 1634.8997 39.914578 1629.1797 39.861328 z M 618.8457 464.91602 C 634.93967 464.67221 640.13033 468.16157 645.44336 474.91602 C 648.78329 479.16201 651.51562 483.81092 651.51562 485.24805 C 651.51562 490.35695 628.55872 513.15466 604.61133 531.82617 C 591.24227 542.24984 560.52996 561.3062 536.36328 574.17383 C 458.80363 615.47065 438.89093 627.85384 417.29297 648.22266 C 393.40824 670.74807 367.9338 701.18011 348.58398 730.30273 C 341.38601 741.13607 332.72731 753.06835 329.3418 756.81836 C 320.08683 767.0698 308.46314 765.65901 297.2832 752.92578 C 289.3018 743.83545 287.87891 739.7891 287.87891 726.20117 C 287.87891 705.95186 294.63664 682.85564 308.09766 657.0957 C 323.0509 628.48007 336.25036 614.37385 367.82227 593.27539 C 413.94286 562.45459 417.21272 559.24307 430.22461 531.98047 C 447.25233 496.30392 458.2276 488.89843 506.06055 480.80469 C 568.36044 470.26301 600.60588 465.19233 618.8457 464.91602 z M 1409.3203 564.41211 C 1422.4802 564.71763 1436.5033 568.81799 1452.1582 576.57617 C 1503.6634 602.10095 1542.4238 655.47342 1542.4238 700.86914 C 1542.4238 746.39771 1509.3184 782.83658 1458.1836 793.5918 C 1402.2643 805.35331 1317.7505 781.92404 1293.5625 747.95508 C 1274.8853 721.72542 1303.6546 639.68796 1347.1543 595.13281 C 1367.8511 573.93382 1387.3871 563.90291 1409.3203 564.41211 z M 569.68164 919.86133 C 581.87513 919.72857 590.3965 928.56657 600.02539 949.24219 C 603.71228 957.15886 607.91078 963.63672 609.35547 963.63672 C 610.80019 963.63672 614.00363 966.72105 616.47461 970.49219 C 620.43125 976.531 620.44637 982.2938 616.59961 1018.8008 C 614.1973 1041.599 610.9983 1065.7432 609.49023 1072.4551 C 603.52569 1099.0013 578.3464 1128.7028 550.29297 1142.2832 C 536.7067 1148.8602 530.38728 1149.335 510.02148 1145.3105 C 492.34267 1141.8171 485.88392 1137.7876 460.28125 1114.2793 L 437.87891 1093.709 L 437.98047 1075.9707 C 438.06392 1061.2698 439.79429 1055.4742 448.09375 1042.123 C 454.53187 1031.7663 459.62534 1018.0908 462.35352 1003.832 C 464.68749 991.63338 468.8333 977.25811 471.56836 971.88672 C 480.5645 954.21901 497.07174 933.7646 507.56836 927.27734 C 516.67479 921.64925 519.38301 921.30124 530.60938 924.32422 C 541.02273 927.12825 545.64371 926.8668 556.08594 922.87891 C 561.14341 920.94744 565.61715 919.90558 569.68164 919.86133 z M 1130.0469 1166.666 C 1162.4331 1166.666 1187.8235 1187.7332 1183.0039 1210.6055 C 1178.8524 1230.307 1163.9808 1250.9483 1147.877 1259.3613 C 1124.9011 1271.3645 1099.5316 1257.0265 1095.4375 1229.7246 C 1092.845 1212.437 1098.3704 1184.7063 1106.457 1174.4258 C 1111.7466 1167.7013 1114.8946 1166.666 1130.0469 1166.666 z M 175.82617 1236.8066 C 177.30903 1236.7726 178.69193 1238.0005 181.1543 1240.4629 C 185.37688 1244.6855 186.36328 1251.3444 186.36328 1275.6426 C 186.36328 1301.3894 185.46443 1306.8225 179.98242 1314.1719 C 165.96317 1332.9664 157.26199 1323.7837 156.91016 1289.8223 C 156.65483 1265.1769 160.99384 1248.7863 169.90625 1240.7207 C 172.76201 1238.1363 174.34331 1236.8407 175.82617 1236.8066 z M 2903.2969 1374.332 C 2904.348 1374.3447 2904.9473 1376.3614 2904.9473 1380.1211 C 2904.9473 1382.2633 2901.766 1383.7463 2900.3906 1385.1484 C 2901.0234 1379.3181 2901.599 1375.5065 2902.1016 1374.998 C 2902.5472 1374.5472 2902.9465 1374.3278 2903.2969 1374.332 z M 931.49609 1430.8145 C 933.3018 1430.83 935.19588 1430.9734 937.18555 1431.2402 C 954.99075 1433.6279 966.6907 1446.8352 966.59961 1464.4414 C 966.5213 1479.5429 957.43242 1501.1514 946.22461 1512.8789 C 940.35965 1519.0158 935.3232 1521.2129 927.11523 1521.2129 C 897.45913 1521.2129 885.41072 1486.0539 903.15039 1451.2812 C 910.49252 1436.8895 918.85613 1430.7057 931.49609 1430.8145 z M 298.32227 1842.9277 C 308.94108 1843.1602 316.81636 1853.4591 323.15625 1875.2676 C 328.28758 1892.9187 327.27811 1921.9974 321.13672 1933.4727 C 316.89175 1941.4044 314.12903 1940.9725 302.21484 1930.5117 C 269.15503 1901.4848 265.32508 1846.1114 296.16211 1843.0156 C 296.89478 1842.9421 297.61434 1842.9122 298.32227 1842.9277 z M 811.98438 2773.3691 C 818.0341 2773.2285 853.12836 2791.7628 865.15234 2801.6133 C 878.06521 2812.1919 868.80986 2810.9243 846.90625 2799.1152 C 822.6489 2786.0371 807.23251 2774.8613 811.49219 2773.4414 C 811.62515 2773.3971 811.78922 2773.3737 811.98438 2773.3691 z M 1115.4512 2865.3555 C 1128.0835 2865.4624 1143.1091 2866.8203 1153.5215 2869.3711 C 1169.8674 2873.3755 1193.9395 2890.8557 1193.9395 2898.7207 C 1193.9395 2903.6672 1184.3669 2903.9018 1163.6367 2899.4609 C 1122.0557 2890.5534 1089.0974 2876.5222 1091.7344 2868.8496 C 1092.5783 2866.3941 1102.8189 2865.2486 1115.4512 2865.3555 z M 1672.7266 2869.6973 C 1683.6122 2869.6973 1686.9612 2874.4147 1679.0723 2878.6367 L 1679.0723 2878.6348 C 1671.5767 2882.6465 1664.5453 2882.7097 1662.1211 2878.7871 C 1658.9498 2873.6559 1663.5688 2869.6973 1672.7266 2869.6973 z M 1829.8184 2891.8691 C 1833.7515 2891.884 1834.7797 2893.7046 1831.5215 2896.9629 C 1829.9139 2898.5706 1824.2083 2900.765 1818.8438 2901.8379 C 1805.4017 2904.5263 1806.2161 2898.3893 1819.9004 2893.873 C 1824.0529 2892.5026 1827.4585 2891.8602 1829.8184 2891.8691 z "
       transform="matrix(0.26458333,0,0,0.26458333,0,-496.75002)"
       id="path866" />
    <path
       style="fill:#bf4229;stroke-width:3.030303;fill-opacity:1"
       d="M 1623.1934 40.849609 C 1616.4437 40.944774 1613.1087 42.220617 1607.8398 44.509766 C 1596.998 49.220266 1587.1374 49.790277 1528.7871 49.082031 C 1492.1204 48.636992 1427.5135 47.008566 1385.2168 45.462891 C 1355.8286 44.388926 1337.5575 43.762088 1323.4453 43.837891 A 1468.6606 1468.6606 0 0 0 1099.1914 87.498047 C 1078.8637 94.837047 1055.9935 106.30831 1025.7559 124.19531 C 957.49083 164.57718 935.70471 175.61636 930.14453 172.64062 C 927.11705 171.02038 921.73099 169.69531 918.17578 169.69531 C 913.0908 169.69531 912.12159 168.40245 913.63477 163.63477 C 915.0977 159.02548 913.49356 157.07774 907.4707 158.1582 A 1468.6606 1468.6606 0 0 0 708.3418 263.0957 C 707.15061 263.85727 705.96033 264.62019 704.77148 265.38477 A 1468.6606 1468.6606 0 0 0 594.00586 344.59766 C 587.68615 350.13928 584.545 353.67885 586.02539 353.98438 C 594.11067 355.65304 615.8508 343.98795 642.42383 323.72266 C 676.76851 297.53038 692.32618 288.80127 712.18945 284.58203 C 729.68613 280.86551 750.24332 271.39981 780.24219 253.24609 C 808.88496 235.91299 817.27506 234.67373 851.26953 242.74805 C 867.23728 246.54069 888.48435 249.69671 898.48438 249.76172 C 925.84158 249.93985 933.80692 243.8277 950.41602 209.91211 C 965.46477 179.18262 983.32311 158.88389 1003.1973 149.92188 C 1016.7403 143.81484 1013.2023 142.81525 1051.5137 163.56641 C 1074.3135 175.91582 1093.0086 175.63587 1148.0566 162.11914 C 1202.7347 148.69509 1206.3774 148.69466 1218.5898 162.11523 C 1231.2466 176.02401 1248.2865 185.74222 1273.8027 193.60156 C 1301.9668 202.27649 1323.1686 201.81634 1351.2871 191.92188 C 1372.0985 184.59862 1379.3355 183.72507 1428.7871 182.56445 C 1510.5822 180.64472 1574.0316 188.05041 1598.1699 209.36914 C 1629.6181 237.14383 1646.4913 233.32659 1706.0098 236.61523 C 1777.3868 240.5591 1955.6549 278.0553 2028.2832 301.54688 C 2077.4201 317.4402 2084.8306 323.19186 2114.7598 368.65625 C 2140.7836 408.18814 2186.2719 459.50082 2212.6562 479.08984 C 2230.882 492.6215 2216.4959 517.13371 2218.0879 544.63477 C 2219.1835 563.56075 2211.6788 565.27356 2206.457 577.07812 C 2192.3904 608.87813 2168.2779 633.0609 2143.9316 639.7832 C 2134.8437 642.29251 2129.7792 641.89051 2119.1113 637.81641 C 2085.4718 624.96934 2041.6082 652.04165 2030.2324 692.67188 C 2023.6478 716.18961 2030.4642 730.04023 2061.5938 756.39453 C 2068.4443 762.19425 2072.7266 768.49208 2072.7266 772.77148 C 2072.7266 784.50144 2052.2407 800.14684 1999.8516 828.42383 C 1906.6974 878.7036 1878.7565 903.50691 1869.6875 943.97461 C 1865.169 964.13691 1870.0123 986.79859 1885.8711 1019.6973 C 1897.9444 1044.7431 1920.0765 1078.8875 1985.0586 1172.7266 C 2011.883 1211.4631 2039.2555 1262.535 2046.6641 1287.6719 C 2052.8728 1308.7348 2052.8588 1340.9702 2046.6328 1364.7148 C 2040.2641 1389.004 2040.411 1432.3346 2046.9473 1457.5762 C 2063.0242 1519.662 2105.565 1580.3257 2148.6035 1602.541 C 2168.4502 1612.7853 2177.7946 1625.3339 2191.8398 1660.6055 C 2210.0291 1706.2837 2221.2129 1759.0247 2221.2129 1799.123 L 2221.2129 1821.6934 C 2221.2129 1851.237 2220.8523 1862.544 2207.5508 1899.0098 C 2198.0525 1925.0488 2177.8192 1940.1793 2152.5508 1944.043 C 2145.33 1945.1471 2126.1417 1942.8545 2102.0215 1938.0039 C 1976.1562 1912.6924 1782.8211 1913.5064 1706.7812 1939.668 C 1675.9656 1950.2701 1671.4484 1960.4815 1690.7227 1975.9707 C 1705.4095 1987.7734 1707.6939 1993.1733 1701.0898 2000.4707 C 1692.5614 2009.8946 1661.8805 2017.2794 1564.3711 2033.3828 C 1407.3462 2059.315 1364.3248 2073.9347 1346.0293 2107.5762 C 1339.2391 2120.0617 1339.5647 2164.7994 1346.6348 2190.9082 C 1359.5424 2238.5748 1393.993 2296.5502 1430.1562 2331.4629 C 1458.5722 2358.8961 1479.9104 2368.4696 1518.1816 2370.9551 C 1571.1814 2374.3971 1616.8206 2390.4776 1643.5684 2415.1328 C 1668.3745 2437.9983 1665.3331 2457.6457 1634.8281 2471.6113 C 1603.5317 2485.9393 1580.1466 2489.0892 1504.5449 2489.1621 C 1443.626 2489.2209 1430.9755 2488.3826 1404.0977 2482.5 C 1357.6208 2472.328 1317.0721 2457.1708 1247.4863 2423.9629 C 1165.8396 2384.9992 1153.6612 2380.8104 1121.2129 2380.5273 C 1097.553 2380.321 1093.4245 2381.2383 1070.5352 2391.7988 C 1056.8299 2398.1221 1038.7718 2404.1069 1030.4062 2405.0977 C 998.87584 2408.8319 945.78706 2395.065 878.20117 2365.6289 C 820.02997 2340.2932 792.82246 2330.0166 768.18164 2324.0723 C 737.4537 2316.6596 728.18715 2316.7115 706.74219 2324.4121 C 676.21003 2335.3758 647.26373 2339.3959 598.97656 2339.377 C 532.30071 2339.351 475.4281 2329.5986 429.69922 2310.3516 C 392.16337 2294.5529 375.23839 2280.805 318.42578 2219.959 C 232.09054 2127.4943 229.20267 2125.6927 232.33008 2166.248 C 233.84768 2185.9279 233.32451 2190.1732 228.93945 2193.8125 C 224.8634 2197.1953 221.86567 2197.4015 214.9082 2194.7754 C 211.19246 2193.3729 207.99884 2192.856 206.69336 2193.3301 A 1468.6606 1468.6606 0 0 0 263.33594 2292.0762 C 263.90899 2292.9787 264.46463 2293.8461 265.03125 2294.7344 A 1468.6606 1468.6606 0 0 0 346.61719 2408.8223 C 348.72135 2411.4878 350.8338 2414.1479 352.95703 2416.8027 A 1468.6606 1468.6606 0 0 0 526.05273 2597.3848 C 529.43988 2599.1564 531.41794 2598.8691 533.58203 2597.5176 C 546.0697 2589.7189 582.24717 2596.737 639.39453 2618.043 C 705.20922 2642.5803 727.00042 2645.254 747.30469 2631.2852 C 765.16424 2618.9982 777.94597 2615.4282 804.54492 2615.3008 C 838.37086 2615.1388 849.03459 2618.8821 870.2168 2638.3555 C 880.21735 2647.5492 893.39495 2657.1611 899.50195 2659.7148 C 906.22622 2662.5267 927.33923 2665.3671 953.03125 2666.916 C 976.36462 2668.3227 1027.4993 2672.9115 1066.666 2677.1133 C 1200.2115 2691.4399 1279.3192 2692.6511 1302.2734 2680.7207 C 1318.3031 2672.3893 1315.9361 2662.7465 1292.4238 2640.582 C 1281.5905 2630.3697 1272.7266 2619.7177 1272.7266 2616.9121 C 1272.7266 2604.2856 1316.5291 2596.9688 1392.1172 2596.9688 C 1497.7086 2596.9688 1583.9336 2610.9378 1631.4609 2635.7422 C 1659.9522 2650.6118 1669.7256 2667.6744 1660.1348 2685.8047 C 1658.209 2689.4451 1651.9568 2698.1617 1646.2402 2705.1738 C 1640.5236 2712.1859 1636.6926 2719.2945 1637.7285 2720.9707 C 1641.6811 2727.3662 1663.7638 2730.2734 1709.0918 2730.3652 C 1763.7017 2730.4758 1812.1516 2734.5996 1823.7129 2740.123 C 1828.6227 2742.4687 1832.2305 2746.9716 1832.8652 2751.543 C 1833.4414 2755.6928 1835.3148 2760.7944 1837.0254 2762.8789 C 1838.738 2764.9613 1843.7518 2766.6641 1848.168 2766.6641 C 1859.0288 2766.6641 1907.7836 2739.0265 1977.2715 2693.4785 C 2081.8306 2624.942 2122.1791 2603.3122 2157.6699 2596.7773 C 2176.8212 2593.2511 2178.049 2593.4127 2195.5488 2601.7656 C 2221.3563 2614.0839 2245.8894 2613.4579 2302.5605 2599.0352 C 2361.5184 2584.0304 2367.6981 2587.6208 2345.375 2623.9004 C 2335.5802 2639.8189 2333.9179 2648.4824 2340.6562 2648.4824 C 2345.7811 2648.4824 2388.5188 2626.8098 2435.459 2600.4082 C 2472.1634 2579.7637 2484.4031 2576.9405 2472.6699 2591.8242 C 2465.672 2600.7012 2465.3782 2603.0275 2469.7734 2600.5098 A 1468.6606 1468.6606 0 0 0 2702.584 2341.8359 C 2712.0608 2327.7289 2722.3077 2312.034 2732.6055 2295.8867 A 1468.6606 1468.6606 0 0 0 2783.8242 2212.3457 C 2786.224 2208.2263 2788.4503 2204.3523 2790.5234 2200.6934 A 1468.6606 1468.6606 0 0 0 2858.0781 2057.2656 C 2859.4114 2052.115 2859.1241 2049.1579 2857.7832 2046.2148 C 2856.0018 2042.3052 2854.5449 2034.2867 2854.5449 2028.3945 C 2854.5449 2022.5023 2850.1407 2007.907 2844.7578 1995.9609 C 2836.3857 1977.381 2834.9607 1970.7358 2834.9082 1949.998 C 2834.8528 1928.1547 2835.8573 1923.8934 2845.0586 1906.9277 C 2856.0763 1886.6129 2860.475 1882.8215 2882.627 1874.5488 C 2891.4919 1871.2382 2900.122 1865.156 2904.9648 1858.8066 C 2909.3053 1853.116 2916.4086 1846.7585 2920.75 1844.6777 C 2923.601 1843.3113 2925.6414 1841.6748 2927.4023 1838.707 A 1468.6606 1468.6606 0 0 0 2951.6602 1710.5625 C 2950.287 1709.7034 2947.8207 1709.0898 2945.3809 1709.0898 C 2933.6755 1709.0898 2931.8071 1698.7236 2931.9961 1634.8457 C 2932.2397 1552.6021 2948.8535 1425.6693 2961.2441 1411.3828 C 2963.3065 1409.005 2964.585 1406.8866 2965.2559 1403.8359 A 1468.6606 1468.6606 0 0 0 2915.1621 1107.2344 C 2915.1435 1107.1674 2915.126 1107.1002 2915.1074 1107.0332 A 1468.6606 1468.6606 0 0 0 2651 587.84766 C 2650.6769 587.43193 2650.3895 587.05467 2650.0645 586.63672 A 1468.6606 1468.6606 0 0 0 1775.707 58.185547 C 1769.7851 57.570029 1763.3589 56.941712 1756.0605 56.255859 C 1744.3939 55.159532 1709.0576 50.857177 1677.5371 46.695312 C 1646.1951 42.55702 1631.8715 40.727255 1623.1934 40.849609 z M 2471.6113 1203.668 C 2489.0286 1203.6728 2501.6194 1208.3715 2511.6738 1217.7637 C 2529.6224 1234.5301 2528.0655 1240.5012 2482.3359 1330.3027 C 2472.3464 1349.9198 2445.2807 1371.9863 2419.2734 1381.7168 C 2385.7092 1394.2748 2359.3239 1388.0285 2324.3672 1359.2461 C 2303.9603 1342.4436 2282.1792 1330.6829 2245.6484 1316.7422 C 2202.6398 1300.3295 2189.7469 1288.2745 2197.3516 1271.584 C 2204.8763 1255.0691 2235.1475 1245.6875 2305.8164 1237.9668 C 2357.9166 1232.2748 2355.4503 1232.7891 2402.584 1217.7324 C 2431.9502 1208.351 2454.194 1203.6631 2471.6113 1203.668 z M 1990.9434 2243.1699 C 1997.0648 2243.1055 2002.6406 2243.8254 2007.3477 2245.3789 C 2036.7006 2255.0663 2022.4404 2279.8692 1976.7031 2298.6758 C 1955.1907 2307.5215 1943.9129 2307.8684 1931.1426 2300.082 C 1910.1306 2287.2705 1916.2553 2268.5889 1946.0957 2254.4766 C 1961.3723 2247.2519 1977.4763 2243.3117 1990.9434 2243.1699 z M 2343.6699 2308.3633 C 2346.1019 2308.343 2348.7817 2308.3497 2351.7617 2308.373 C 2406.7763 2308.8051 2415.6158 2319.8931 2396.8613 2364.9434 C 2391.8016 2377.0972 2382.9661 2392.5271 2377.2266 2399.2324 C 2360.4902 2418.7851 2301.7055 2444.634 2233.7598 2462.3164 C 2206.4983 2469.411 2178.9815 2471.9093 2174.748 2467.6758 C 2170.2094 2463.1371 2173.2663 2452.2431 2182.0781 2441.5527 C 2187.2211 2435.3134 2204.6078 2420.8346 2220.7148 2409.3789 C 2252.757 2386.5898 2258.6306 2380.9451 2271.4668 2360.6055 C 2287.2212 2335.6418 2297.4158 2324.2363 2311.1934 2316.1621 C 2321.7723 2309.9624 2326.646 2308.5052 2343.6699 2308.3633 z "
       transform="matrix(0.26458333,0,0,0.26458333,0,-496.75002)"
       id="path864" />
    <path
       inkscape:connector-curvature="0"
       id="path862"
       d="m 647.02652,21.424851 c -2.24584,-0.825781 -4.15989,-3.017998 -7.24061,-8.292924 -3.51154,-6.0125839 -5.39405,-7.1736237 -11.63135,-7.1736237 -2.40057,0 -9.87009,-0.5607483 -16.59894,-1.2461073 -26.26061,-2.674737 -38.56774,-5.33687834 -55.35663,-11.9741357 -17.54061,-6.9344243 -19.81437,-7.3842883 -26.6505,-5.2728253 -7.11651,2.198062 -16.13357,2.242256 -20.33343,0.09964 -4.12803,-2.105963 -7.66652,-6.319717 -10.43587,-12.427359 -4.1423,-9.135654 -8.71396,-10.708145 -67.79619,-23.319541 -13.65207,-2.914097 -25.37792,-5.610618 -26.05745,-5.992275 -2.68053,-1.505464 2.11714,-1.81214 21.47527,-1.372731 21.40275,0.485815 33.18182,1.877131 53.04863,6.265975 14.08831,3.112294 14.53297,3.11065 18.15244,-0.06727 3.86394,-3.392583 8.74287,-5.587863 12.4682,-5.610088 3.49956,-0.02085 4.65684,1.343201 8.82791,10.405373 3.15973,6.864911 6.93866,11.082947 10.57125,11.799639 2.29537,0.452862 7.99019,2.382436 44.59641,15.110538 6.83507,2.376576 13.42244,4.329538 14.6386,4.339905 1.21615,0.01034 8.6618,1.463338 16.54587,3.228822 22.67714,5.078092 19.74817,5.3204423 31.42315,-2.600084 5.49828,-3.730128 11.39203,-7.242496 13.09723,-7.805265 9.5633,-3.156198 30.93025,5.271895 30.93025,12.2002745 0,2.7766578 -1.86657,7.80358881 -4.37024,11.7696609 -2.68862,4.259054 -6.34025,6.5394496 -9.46951,5.9135979 -2.08943,-0.4178814 -2.86621,0.086863 -7.11881,4.6258147 -6.82591,7.285502 -9.22263,8.67936 -12.71568,7.394984 z M 682.90283,-231.7813 c -12.47049,-4.57956 -32.73769,-27.27381 -42.35817,-47.43067 -1.74645,-3.65919 -4.76904,-11.47178 -6.71684,-17.36132 -4.08473,-12.35086 -7.09732,-17.87007 -14.19284,-26.00194 -6.13828,-7.03483 -12.14935,-12.33141 -23.88367,-21.04484 -4.87156,-3.61741 -8.8717,-6.80932 -8.88921,-7.09312 -0.62399,-10.11416 -1.7116,-13.18743 -6.03523,-17.05384 -14.79678,-13.232 -20.74317,-20.0612 -30.27186,-34.76603 -4.5983,-7.09617 -7.49002,-9.39351 -16.12635,-12.81161 -15.35079,-6.07558 -66.31202,-16.24151 -86.24086,-17.20365 -10.04385,-0.4849 -12.226,-0.83862 -16.03535,-2.59928 -2.42516,-1.1209 -5.28712,-2.76063 -6.3599,-3.64385 l -1.95051,-1.60586 1.95051,-1.26303 c 2.82897,-1.83189 12.31045,-3.48239 33.21944,-5.78273 24.08363,-2.64959 26.05745,-3.01324 26.05745,-4.8007 0,-1.38435 -2.14282,-2.05322 -19.12615,-5.97006 -7.65306,-1.76502 -15.04937,-3.93904 -16.43623,-4.83116 -4.97725,-3.20167 -7.80965,-4.03402 -27.41607,-8.05662 -10.93648,-2.24381 -20.18209,-4.26358 -20.54582,-4.48837 -1.35318,-0.83631 -0.59584,-1.91763 1.34309,-1.91763 3.48307,0 2.29131,-2.23746 -2.00442,-3.76317 -2.20486,-0.7831 -4.00884,-1.66676 -4.00884,-1.96369 0,-0.29693 6.04332,-0.48284 13.42961,-0.41313 10.66495,0.10065 14.00357,-0.13142 16.2177,-1.12728 2.4585,-1.10577 3.69065,-1.12757 10.42298,-0.18443 4.19918,0.58827 15.39199,1.94339 24.87289,3.01139 30.83245,3.4732 44.60499,7.50134 71.35733,20.87033 17.68389,8.8372 30.15225,14.42769 37.68308,16.89614 15.00755,4.91916 37.20619,17.23414 53.31755,29.5786 4.85069,3.71659 11.1569,8.4472 14.0138,10.51248 12.30184,8.8931 21.37553,16.81402 35.29491,30.81083 8.15798,8.20337 15.34993,15.89906 15.98209,17.10155 1.06185,2.01981 1.01583,2.27989 -0.60414,3.41456 -2.20963,1.54769 -2.10844,1.75397 7.04598,14.36252 3.842,5.29166 8.79394,12.32717 11.00431,15.63447 7.14617,10.69255 8.04606,13.44319 4.85617,14.84347 -2.55513,1.12164 -2.13815,3.66767 3.43342,20.96431 5.74475,17.83424 7.30173,25.00118 7.46487,34.36135 0.11654,6.68691 -0.0726,7.6339 -2.51571,12.59887 -4.38593,8.91306 -8.43787,10.50446 -20.00463,7.85683 -4.51848,-1.03428 -5.3797,-1.01278 -8.81945,0.22009 -4.43391,1.5892 -4.47726,1.58993 -8.42493,0.14022 z"
       style="fill:#662f23;stroke-width:0.80176765;fill-opacity:1" />
    <path
       style="fill:#000000;fill-opacity:0.313725;stroke-width:0.264583"
       d="M 402.70979,288.50127 A 388.58311,388.58311 0 0 0 785.45801,-99.875021 388.58311,388.58311 0 0 0 401.32901,-488.2353 c 76.32089,15.90609 145.67914,62.5317 196.16735,132.04777 51.86844,71.41649 80.41918,162.30147 80.5186,256.312509 -0.0371,93.7641255 -28.37877,184.453142 -79.95378,255.840191 -50.21554,69.50536 -119.26651,116.29152 -195.35139,132.5361 z"
       id="path824"
       inkscape:transform-center-x="-196.51851"
       inkscape:transform-center-y="0.0080078884" />
    <ellipse
       style="opacity:0.43399999;fill:#ffb983;fill-opacity:1;fill-rule:nonzero;stroke:none;stroke-width:5;stroke-linecap:round;stroke-linejoin:round;stroke-miterlimit:4;stroke-dasharray:none;stroke-dashoffset:0;stroke-opacity:1;paint-order:normal"
       id="path870"
       cx="26.964556"
       cy="-262.51489"
       rx="5.1449385"
       ry="7.3900023"
       transform="rotate(26.568784)" />
    <path
       transform="rotate(-58.230893)"
       style="opacity:0.43399999;fill:#411916;fill-opacity:1;fill-rule:nonzero;stroke:none;stroke-width:5;stroke-linecap:round;stroke-linejoin:round;stroke-miterlimit:4;stroke-dasharray:none;stroke-dashoffset:0;stroke-opacity:1;paint-order:normal"
       d="m 640.98064,203.06651 a 2.5135417,5.8208332 0 0 1 -2.51354,5.82084 2.5135417,5.8208332 0 0 1 -2.51354,-5.82084 2.5135417,5.8208332 0 0 1 2.51354,-5.82083 2.5135417,5.8208332 0 0 1 2.51354,5.82083 z"
       id="path872" />
    <path
       id="path875"
       d="m 506.00095,-463.44987 c 5.07668,2.34103 8.79847,4.99738 8.31286,5.93314 -0.4856,0.93577 -4.62056,-0.67116 -9.69725,-3.01219 -5.07668,-2.34103 -9.17265,-4.52967 -8.68703,-5.46542 0.48561,-0.93576 4.99474,0.20344 10.07142,2.54447 z"
       style="opacity:0.43399999;fill:#411916;fill-opacity:1;fill-rule:nonzero;stroke:none;stroke-width:5.74290323;stroke-linecap:round;stroke-linejoin:round;stroke-miterlimit:4;stroke-dasharray:none;stroke-dashoffset:0;stroke-opacity:1;paint-order:normal"
       inkscape:connector-curvature="0"
       sodipodi:nodetypes="scscs" />
    <path
       id="path877"
       d="m 537.35137,-453.84368 a 15.283811,2.7791925 22.619713 0 1 13.74213,8.59093 15.283811,2.7791925 22.619713 0 1 -14.54375,-2.9101 15.283811,2.7791925 22.619713 0 1 -13.74209,-8.59091 15.283811,2.7791925 22.619713 0 1 14.54371,2.91008 z"
       style="opacity:0.43399999;fill:#411916;fill-opacity:1;fill-rule:nonzero;stroke:none;stroke-width:8.51941013;stroke-linecap:round;stroke-linejoin:round;stroke-miterlimit:4;stroke-dasharray:none;stroke-dashoffset:0;stroke-opacity:1;paint-order:normal"
       inkscape:connector-curvature="0" />
    <path
       id="path879"
       d="m 590.7339,-389.32752 c 3.30017,4.04656 6.23878,9.12143 4.71728,10.75806 -1.5215,1.63663 -6.92693,-0.78473 -10.22709,-4.83128 -3.30016,-4.04656 -5.58395,-9.3085 -4.06245,-10.94513 1.5215,-1.63662 6.27211,0.97181 9.57226,5.01835 z"
       style="opacity:0.43399999;fill:#411916;fill-opacity:1;fill-rule:nonzero;stroke:none;stroke-width:8.04658985;stroke-linecap:round;stroke-linejoin:round;stroke-miterlimit:4;stroke-dasharray:none;stroke-dashoffset:0;stroke-opacity:1;paint-order:normal"
       inkscape:connector-curvature="0"
       sodipodi:nodetypes="scscs" />
    <path
       sodipodi:nodetypes="sssss"
       inkscape:connector-curvature="0"
       style="opacity:0.43399999;fill:#411916;fill-opacity:1;fill-rule:nonzero;stroke:none;stroke-width:8.04096222;stroke-linecap:round;stroke-linejoin:round;stroke-miterlimit:4;stroke-dasharray:none;stroke-dashoffset:0;stroke-opacity:1;paint-order:normal"
       d="m 634.43757,-389.28381 c 4.63287,4.6809 8.8878,10.96399 8.26214,11.88592 -1.00647,1.48308 -6.85188,-2.83178 -11.48475,-7.51267 -4.63285,-4.68089 -9.11405,-9.52875 -8,-10.9328 0.59721,-0.75267 6.58976,1.87867 11.22261,6.55955 z"
       id="path881" />
    <path
       id="path883"
       d="m 650.72095,-317.97681 c 5.94239,4.26534 5.9062,9.55206 2.69817,12.59086 -1.64958,1.56256 -5.61351,-2.77365 -8.93572,-6.8939 -3.3222,-4.12024 -4.61904,-8.66162 -2.89659,-10.14346 1.72245,-1.48184 4.83437,1.3602 9.13414,4.4465 z"
       style="opacity:0.43399999;fill:#411916;fill-opacity:1;fill-rule:nonzero;stroke:none;stroke-width:8.20581341;stroke-linecap:round;stroke-linejoin:round;stroke-miterlimit:4;stroke-dasharray:none;stroke-dashoffset:0;stroke-opacity:1;paint-order:normal"
       inkscape:connector-curvature="0"
       sodipodi:nodetypes="ssscs" />
    <path
       inkscape:connector-curvature="0"
       style="opacity:0.43399999;fill:#411916;fill-opacity:1;fill-rule:nonzero;stroke:none;stroke-width:8.55892754;stroke-linecap:round;stroke-linejoin:round;stroke-miterlimit:4;stroke-dasharray:none;stroke-dashoffset:0;stroke-opacity:1;paint-order:normal"
       d="m 698.85745,-292.81187 c 2.43053,3.0476 4.12998,9.7143 0.4346,13.42902 -2.43391,2.44664 -6.05742,-1.01893 -8.83015,-3.75887 -3.75345,-3.70906 -3.34578,-7.99191 -1.22833,-10.71705 2.11745,-2.72512 7.19336,-2.00068 9.62388,1.0469 z"
       id="path885"
       sodipodi:nodetypes="ssscs" />
  </g>
</svg>
