<?xml version="1.0" encoding="UTF-8" standalone="no"?>
<!-- Created with Inkscape (http://www.inkscape.org/) -->

<svg
   width="3000"
   height="3000"
   viewBox="0 0 793.74998 793.75"
   version="1.1"
   id="svg1"
   inkscape:version="1.3 (0e150ed6c4, 2023-07-21)"
   sodipodi:docname="Asteroid.svg"
   inkscape:export-filename="Asteroid.png"
   inkscape:export-xdpi="96"
   inkscape:export-ydpi="96"
   xmlns:inkscape="http://www.inkscape.org/namespaces/inkscape"
   xmlns:sodipodi="http://sodipodi.sourceforge.net/DTD/sodipodi-0.dtd"
   xmlns="http://www.w3.org/2000/svg"
   xmlns:svg="http://www.w3.org/2000/svg">
  <sodipodi:namedview
     id="namedview1"
     pagecolor="#505050"
     bordercolor="#ffffff"
     borderopacity="1"
     inkscape:showpageshadow="0"
     inkscape:pageopacity="0"
     inkscape:pagecheckerboard="1"
     inkscape:deskcolor="#505050"
     inkscape:document-units="mm"
     inkscape:zoom="0.20756134"
     inkscape:cx="1563.3933"
     inkscape:cy="1481.4898"
     inkscape:window-width="1600"
     inkscape:window-height="837"
     inkscape:window-x="-8"
     inkscape:window-y="-8"
     inkscape:window-maximized="1"
     inkscape:current-layer="layer1" />
  <defs
     id="defs1" />
  <g
     inkscape:label="Layer 1"
     inkscape:groupmode="layer"
     id="layer1">
    <path
       style="fill:#a36948;stroke:none;stroke-width:2.7986;stroke-linecap:round;stroke-linejoin:round;paint-order:markers stroke fill;fill-opacity:1"
       d="M 29.953505,451.40232 C -4.2994753,367.26243 3.9640007,290.3755 18.526712,247.77681 33.089437,205.17812 179.71994,138.71504 213.79674,162.91228 c 34.0768,24.19723 158.17898,19.04555 206.0064,4.54907 47.82741,-14.49647 180.89687,35.17705 214.01668,20.88092 33.1198,-14.29614 194.26992,127.58334 144.60716,197.91751 C 728.76424,456.59394 589.37657,578.33839 497.32624,586.08207 405.27592,593.82574 238.4641,639.79626 183.89469,635.78034 129.32528,631.76443 64.206471,535.54221 29.953505,451.40232 Z"
       id="path1"
       sodipodi:nodetypes="zzzzzzzzz" />
    <path
       id="path2"
       style="fill:#986044;fill-opacity:1;stroke:none;stroke-width:2;stroke-linecap:round;stroke-linejoin:round;paint-order:markers stroke fill"
       d="M 196.21955 157.86427 C 145.12571 154.95786 31.268889 210.50279 18.526518 247.77661 C 3.963821 290.37525 -4.2992188 367.26262 29.953727 451.40242 C 42.05522 481.12885 58.052631 512.2993 76.033085 540.44298 C 146.04784 596.20877 141.19743 383.98859 163.16472 362.02131 C 186.10971 339.07631 242.19777 387.51571 297.01081 376.0432 C 349.23306 365.11298 298.45777 241.98759 225.19556 168.6357 C 220.82668 166.92681 216.84444 165.07662 213.79677 162.91254 C 209.53717 159.88788 203.51867 158.27947 196.21955 157.86427 z " />
    <path
       style="fill:#9e6146;fill-opacity:1;stroke:none;stroke-width:2;stroke-linecap:round;stroke-linejoin:round;paint-order:markers stroke fill"
       d="m 613.14205,246.02166 c -67.85094,-19.38599 -62.46145,-30.59338 -89.23065,-16.57141 -26.7692,14.02197 -53.53837,66.28561 -77.75813,66.28561 -24.21976,0 1.27471,61.18674 -31.86811,70.1098 -33.14282,8.92306 -76.48342,58.63731 -76.48342,72.65926 0,14.02195 115.99988,33.14281 130.02183,11.4725 14.02195,-21.67031 105.80205,7.64835 132.57125,-7.64834 26.7692,-15.29669 34.41753,-114.72512 75.20869,-130.02181 40.79116,-15.29669 5.38948,-46.89962 -62.46146,-66.28561 z"
       id="path3"
       sodipodi:nodetypes="zzzzzzzzz" />
    <path
       id="path4"
       style="fill:#000000;fill-opacity:0.18000001;stroke:none;stroke-width:2;stroke-linecap:round;stroke-linejoin:round;paint-order:markers stroke fill"
       d="M 441.37254 164.78271 C 433.09201 164.83973 425.78174 165.64904 419.80332 167.4611 C 392.96683 175.59523 342.11891 180.78229 296.63202 179.49809 C 355.78288 191.86318 397.55864 206.7101 424.48313 198.85711 C 455.07648 189.93406 507.34009 238.37342 507.34009 261.31842 C 507.34009 284.26342 446.15307 312.30725 435.9553 358.19726 C 425.75753 404.08726 424.48273 480.57084 449.97719 492.04335 C 473.28282 502.53086 479.50704 570.51239 428.80018 595.74607 C 453.75378 591.39994 477.45808 587.75345 497.32623 586.08206 C 589.37647 578.33838 728.76421 456.59372 778.4269 386.25963 C 828.08961 315.92553 666.93948 174.04638 633.81971 188.34251 C 604.83991 200.85161 499.33625 164.38357 441.37254 164.78271 z " />
  </g>
</svg>
