<?xml version="1.0" encoding="UTF-8" standalone="no"?>
<!-- Created with Inkscape (http://www.inkscape.org/) -->

<svg
   xmlns:dc="http://purl.org/dc/elements/1.1/"
   xmlns:cc="http://creativecommons.org/ns#"
   xmlns:rdf="http://www.w3.org/1999/02/22-rdf-syntax-ns#"
   xmlns:svg="http://www.w3.org/2000/svg"
   xmlns="http://www.w3.org/2000/svg"
   xmlns:sodipodi="http://sodipodi.sourceforge.net/DTD/sodipodi-0.dtd"
   xmlns:inkscape="http://www.inkscape.org/namespaces/inkscape"
   width="2996.2656"
   height="2996.2656"
   viewBox="0 0 792.76193 792.76196"
   version="1.1"
   id="svg8"
   inkscape:version="0.92.4 (5da689c313, 2019-01-14)"
   sodipodi:docname="Saturn_with_rings-top.svg"
   inkscape:export-filename="G:\Pictures\My Pictures\Vectors and SVGs\Space\Saturn.png"
   inkscape:export-xdpi="96"
   inkscape:export-ydpi="96">
  <defs
     id="defs2" />
  <sodipodi:namedview
     id="base"
     pagecolor="#000720"
     bordercolor="#666666"
     borderopacity="1.0"
     inkscape:pageopacity="0"
     inkscape:pageshadow="2"
     inkscape:zoom="0.1767767"
     inkscape:cx="1315.1321"
     inkscape:cy="1448.3223"
     inkscape:document-units="mm"
     inkscape:current-layer="layer1"
     showgrid="false"
     inkscape:pagecheckerboard="true"
     inkscape:showpageshadow="false"
     borderlayer="true"
     units="px"
     inkscape:snap-object-midpoints="true"
     inkscape:window-width="1600"
     inkscape:window-height="837"
     inkscape:window-x="-8"
     inkscape:window-y="-8"
     inkscape:window-maximized="1"
     inkscape:snap-page="true"
     inkscape:snap-global="false"
     inkscape:snap-center="false"
     fit-margin-top="0"
     fit-margin-left="0"
     fit-margin-right="0"
     fit-margin-bottom="0" />
  <metadata
     id="metadata5">
    <rdf:RDF>
      <cc:Work
         rdf:about="">
        <dc:format>image/svg+xml</dc:format>
        <dc:type
           rdf:resource="http://purl.org/dc/dcmitype/StillImage" />
        <dc:title></dc:title>
      </cc:Work>
    </rdf:RDF>
  </metadata>
  <g
     inkscape:label="Layer 1"
     inkscape:groupmode="layer"
     id="layer1"
     transform="translate(-0.49403334,251.51641)">
    <path
       style="opacity:1;fill:#555555;fill-opacity:1;fill-rule:nonzero;stroke:none;stroke-width:5;stroke-linecap:round;stroke-linejoin:round;stroke-miterlimit:4;stroke-dasharray:none;stroke-dashoffset:0;stroke-opacity:1;paint-order:markers stroke fill"
       d="M 540.05602,143.41331 A 143.20061,143.20061 0 0 1 396.85541,286.61392 143.20061,143.20061 0 0 1 253.6548,143.41331 143.20061,143.20061 0 0 1 396.85541,0.21270752 143.20061,143.20061 0 0 1 540.05602,143.41331 Z"
       id="path850"
       inkscape:connector-curvature="0" />
    <path
       style="opacity:1;fill:#555555;fill-opacity:1;fill-rule:nonzero;stroke:none;stroke-width:5;stroke-linecap:round;stroke-linejoin:round;stroke-miterlimit:4;stroke-dasharray:none;stroke-dashoffset:0;stroke-opacity:1;paint-order:markers stroke fill"
       d="M 396.875,-190.03024 A 337.07654,337.07654 0 0 0 59.798424,147.04634 337.07654,337.07654 0 0 0 396.875,484.12241 337.07654,337.07654 0 0 0 733.95157,147.04634 337.07654,337.07654 0 0 0 396.875,-190.03024 Z m 0,124.790836 A 212.2857,212.2857 0 0 1 609.16074,147.04634 212.2857,212.2857 0 0 1 396.875,359.33158 212.2857,212.2857 0 0 1 184.58925,147.04634 212.2857,212.2857 0 0 1 396.875,-65.239404 Z"
       id="path828"
       inkscape:connector-curvature="0" />
    <path
       style="opacity:1;fill:#555555;fill-opacity:1;fill-rule:nonzero;stroke:none;stroke-width:5;stroke-linecap:round;stroke-linejoin:round;stroke-miterlimit:4;stroke-dasharray:none;stroke-dashoffset:0;stroke-opacity:1;paint-order:markers stroke fill"
       d="M 396.875,-235.86465 A 382.91052,382.91052 0 0 0 13.964529,147.04634 382.91052,382.91052 0 0 0 396.875,529.95681 382.91052,382.91052 0 0 0 779.78547,147.04634 382.91052,382.91052 0 0 0 396.875,-235.86465 Z m 0,35.92132 A 346.98953,346.98953 0 0 1 743.86466,147.04634 346.98953,346.98953 0 0 1 396.875,494.0355 346.98953,346.98953 0 0 1 49.885334,147.04634 346.98953,346.98953 0 0 1 396.875,-199.94333 Z"
       id="path832"
       inkscape:connector-curvature="0" />
    <path
       style="opacity:1;fill:#555555;fill-opacity:1;fill-rule:nonzero;stroke:none;stroke-width:5;stroke-linecap:round;stroke-linejoin:round;stroke-miterlimit:4;stroke-dasharray:none;stroke-dashoffset:0;stroke-opacity:1;paint-order:markers stroke fill"
       d="M 396.875,-251.51641 A 396.38094,396.38094 0 0 0 0.49403334,144.86456 396.38094,396.38094 0 0 0 396.875,541.24553 396.38094,396.38094 0 0 0 793.25597,144.86456 396.38094,396.38094 0 0 0 396.875,-251.51641 Z m 0,12.09435 A 386.46798,386.46798 0 0 1 783.34288,147.04634 386.46798,386.46798 0 0 1 396.875,533.51422 386.46798,386.46798 0 0 1 10.407123,147.04634 386.46798,386.46798 0 0 1 396.875,-239.42206 Z"
       id="path845"
       inkscape:connector-curvature="0" />
  </g>
</svg>
