<?xml version="1.0" encoding="UTF-8" standalone="no"?>
<!-- Created with Inkscape (http://www.inkscape.org/) -->

<svg
   xmlns:dc="http://purl.org/dc/elements/1.1/"
   xmlns:cc="http://creativecommons.org/ns#"
   xmlns:rdf="http://www.w3.org/1999/02/22-rdf-syntax-ns#"
   xmlns:svg="http://www.w3.org/2000/svg"
   xmlns="http://www.w3.org/2000/svg"
   xmlns:sodipodi="http://sodipodi.sourceforge.net/DTD/sodipodi-0.dtd"
   xmlns:inkscape="http://www.inkscape.org/namespaces/inkscape"
   width="199.06537mm"
   height="105.3654mm"
   viewBox="0 0 199.06537 105.3654"
   version="1.1"
   id="svg1"
   xml:space="preserve"
   inkscape:export-filename="bagger293.svg"
   inkscape:export-xdpi="96"
   inkscape:export-ydpi="96"
   sodipodi:docname="bagger_293-side.svg"
   inkscape:version="0.92.4 (5da689c313, 2019-01-14)"><metadata
     id="metadata7"><rdf:RDF><cc:Work
         rdf:about=""><dc:format>image/svg+xml</dc:format><dc:type
           rdf:resource="http://purl.org/dc/dcmitype/StillImage" /><dc:title></dc:title></cc:Work></rdf:RDF></metadata><sodipodi:namedview
     id="namedview1"
     pagecolor="#505050"
     bordercolor="#eeeeee"
     borderopacity="1"
     inkscape:showpageshadow="0"
     inkscape:pageopacity="0"
     inkscape:pagecheckerboard="true"
     inkscape:deskcolor="#505050"
     inkscape:document-units="mm"
     showguides="true"
     showgrid="false"
     inkscape:zoom="1.4726737"
     inkscape:cx="215.6323"
     inkscape:cy="109.84159"
     inkscape:window-width="1366"
     inkscape:window-height="713"
     inkscape:window-x="0"
     inkscape:window-y="0"
     inkscape:window-maximized="1"
     inkscape:current-layer="layer1" /><defs
     id="defs1" /><g
     inkscape:label="Layer 1"
     inkscape:groupmode="layer"
     id="layer1"
     transform="translate(-5.5133586,-104.52385)"><path
       id="path805"
       style="fill:#ffffff;fill-opacity:1;stroke:none;stroke-width:0.26458299"
       d="m 139.1275,104.52385 0.40928,0.26924 -11.45305,4.02301 48.57533,50.39279 v -7.56802 h 26.45368 v 6.32778 h 1.19631 v 0.15296 h -0.004 v 1.56115 h 0.2744 v 0.75913 h -1.51722 v 0.68419 h -1.87172 v 5.48649 h -0.0506 l -74.45437,14.89573 -0.0481,-0.009 v 0.0589 h -0.01 v 4.17959 h 0.91517 v 3.52485 h 0.005 v 0.9834 h 1.76992 v 0.49971 h 16.00109 v 5.46375 h 1.9358 0.21084 v 1.49655 h 0.0232 v 0.58498 h -2.1699 v 0.0734 h -1.53582 l -0.0594,0.39429 -3.63337,0.61702 2.72128,5.08909 0.81855,-0.0232 4.74235,1.29966 0.44752,0.13126 0.38757,0.15348 c 0,0 0.13199,0.0583 0.33435,0.23306 0.1336,0.11541 0.26003,0.31141 0.38292,0.54622 0.14409,0.27533 0.26264,0.59948 0.30024,1.05058 0.10669,1.27988 -1.01751,1.7539 -1.01751,1.7539 l -0.53175,0.14779 -0.63769,0.0868 -0.82992,0.0351 -21.81366,-0.1509 c 0,0 -0.32572,0.0118 -0.60461,-0.0145 -0.27454,-0.0259 -0.50137,-0.0893 -0.56792,-0.12402 -0.1183,-0.0616 -0.27447,-0.14097 -0.41135,-0.26407 -0.22013,-0.19798 -0.44148,-0.48979 -0.54725,-0.75602 -0.14154,-0.35625 -0.10667,-0.25066 -0.17363,-0.5426 -0.009,-0.0406 -0.0323,-0.1525 -0.0393,-0.2217 -0.006,-0.0605 -0.007,-0.1304 -0.009,-0.2067 -0.0149,-0.44857 0.27297,-0.86407 0.51779,-1.1343 0.0948,-0.10462 0.3138,-0.22704 0.49816,-0.31884 0.16183,-0.0806 0.29663,-0.13746 0.29663,-0.13746 l 4.51962,-1.42679 h 1.28622 l 0.0677,-2.57245 h -15.99799 l 0.0982,2.52594 1.23921,0.0233 4.54856,1.12241 0.2775,0.0646 c 0,0 0.0482,-0.005 0.23099,0.0641 0.25288,0.0954 0.61841,0.30357 0.92398,0.75603 0.15895,0.23537 0.27274,0.54151 0.35656,0.93483 0.22628,1.06179 -0.29166,1.69498 -0.81493,2.00142 -0.27004,0.1581 -0.6687,0.21601 -0.6687,0.21601 l -0.75551,0.061 -20.515021,0.0858 c 0,0 -0.7276,0.0662 -2.46393,-0.0165 -0.47178,-0.0225 -0.77773,-0.12128 -1.03663,-0.23255 -0.21207,-0.0911 -0.36555,-0.19428 -0.47336,-0.30179 -0.0901,-0.0898 -0.15959,-0.17728 -0.20619,-0.25218 -0.0802,-0.1288 -0.11213,-0.22169 -0.11213,-0.22169 0,0 -0.0569,-0.1226 -0.15348,-0.67334 -0.007,-0.0389 -0.0116,-0.0806 -0.0186,-0.12403 -0.005,-0.0295 -0.0232,-0.45516 -0.0232,-0.47646 0,-0.0229 2e-4,-0.0332 10e-4,-0.0589 0.001,-0.0359 0.005,-0.0775 0.005,-0.0775 0,0 0.0843,-1.39806 2.18901,-1.81901 2.10475,-0.42095 4.724261,-1.12241 4.724261,-1.12241 l 2.8236,-5.10925 -0.27491,-5.2e-4 -0.12868,-0.24546 -2.67735,-0.0233 -0.10542,-0.2806 -2.560571,-0.0238 -0.34262,-0.4408 h -3.79666 V 190.967 l -2.69493,1.41852 -3.34036,4.06796 -0.72761,-0.7276 3.70417,-4.3987 13.831711,-7.1391 V 181.627 l -73.541251,6.16345 -0.003,-0.0103 -5.37538,0.008 -5.2e-4,-0.005 -0.0605,-0.004 0.0915,0.51418 -0.0434,0.67283 -0.21239,0.61082 -0.3359,0.54466 -0.49092,0.33487 0.0398,-0.57723 -0.44855,-0.66766 -0.49093,-0.53123 a 9.728611,9.588295 0 0 1 -0.65267,0.65267 9.728611,9.588295 0 0 1 -0.0114,0.008 l 0.13229,0.43977 0.0207,0.92294 -0.154,0.55862 -0.32711,0.5886 -0.45423,0.46095 -0.53744,0.34726 -0.58756,0.0915 0.28422,-0.50436 -0.11782,-0.7953 -0.24908,-0.79995 a 9.728611,9.588295 0 0 1 -1.02165,0.43821 l 0.24598,-0.0543 -0.0522,0.57103 -0.32556,0.86351 -0.3514,0.46096 -0.524,0.42374 -0.59324,0.25735 -0.62839,0.12196 -0.57878,-0.13488 0.45166,-0.36173 0.18758,-0.78187 0.0677,-0.83095 a 9.728611,9.588295 0 0 1 -1.17099,0.0915 l -0.0548,0.19482 -0.47904,0.7891 -0.43046,0.38861 -0.59273,0.32039 -0.63097,0.14366 -0.63975,0.004 -0.54416,-0.23926 0.51057,-0.27182 0.32814,-0.73432 0.23306,-0.85628 a 9.728611,9.588295 0 0 1 -0.87695,-0.23875 l -0.2744,0.31523 -0.7705,0.50901 -0.55448,0.16743 -0.67335,0.0362 -0.63148,-0.13901 -0.58033,-0.26975 -0.39016,-0.44856 0.57826,-0.0284 0.6103,-0.52348 0.5209,-0.60978 a 9.728611,9.588295 0 0 1 -0.78497,-0.56948 l -0.15089,0.0966 -0.88212,0.27285 -0.5792904,0.005 -0.65629,-0.15348 -0.56741,-0.31057 -0.48111,-0.42168 -0.24856,-0.54054 0.56276,0.13539 0.73277,-0.33124 0.59273,-0.38809 a 9.728611,9.588295 0 0 1 -0.58033,-0.82114 l -0.45423,0.0615 -0.91468,-0.12402 -0.52813,-0.23926 -0.5302,-0.416 -0.38396,-0.52089 -0.25838,-0.58498 0.002,-0.5948 0.4532,0.35967 0.80409,0.008 0.79633,-0.11576 a 9.728611,9.588295 0 0 1 -0.26562,-1.01337 l -0.44441,-0.0899 -0.82269,-0.41806 -0.42013,-0.39946 -0.36432,-0.56689 -0.1912,-0.61805 -0.0522,-0.63769 0.19741,-0.56069 0.31006,0.48835 0.75706,0.27233 0.85162,0.16381 a 9.728611,9.588295 0 0 1 0.12661,-1.13533 l -0.0413,-0.0207 -0.68523,-0.61805 -0.30076,-0.49557 -0.2036,-0.64234 -0.0233,-0.64647 0.11679,-0.62942 0.33693,-0.48938 0.17157,0.55242 0.65939,0.46044 0.63975,0.31316 a 9.728611,9.588295 0 0 1 0.38499,-0.77412 l -0.0305,-0.0346 -0.40617,-0.82941 -0.0946,-0.57154 0.0501,-0.67231 0.2191,-0.60823 0.3421,-0.54053 0.49558,-0.32918 -0.0465,0.57671 0.44028,0.67282 0.4056604,0.44855 a 9.728611,9.588295 0 0 1 0.7152,-0.69246 9.728611,9.588295 0 0 1 0.0765,-0.0579 l -0.14211,-0.45475 -0.031,-0.92242 0.14728,-0.56069 0.32091,-0.59222 0.44907,-0.4656 0.53381,-0.35347 0.58653,-0.0971 -0.27853,0.50695 0.1266,0.79426 0.27285,0.8444 a 9.728611,9.588295 0 0 1 0.91623,-0.39016 l 0.0124,-0.4501 0.27027,-0.88264 0.32091,-0.48265 0.49609,-0.45631 0.57568,-0.29455 0.61908,-0.16123 0.58653,0.0982 -0.42788,0.38964 -0.13798,0.7922 -0.015,0.87902 a 9.728611,9.588295 0 0 1 0.92759,-0.0749 l 0.15503,-0.4284 0.53433,-0.75292 0.45682,-0.35657 0.61392,-0.27699 0.63923,-0.0987 0.63872,0.0419 0.52607,0.2775 -0.52917,0.23513 -0.38033,0.70848 -0.30024,0.85576 -0.22531,-0.009 a 9.728611,9.588295 0 0 1 1.14256,0.29249 l 0.35399,-0.36897 0.79375,-0.47129 0.56224,-0.14056 0.67386,-0.004 0.62425,0.1695 0.56637,0.29766 0.36794,0.46715 h -0.57878 l -0.6351,0.49351 -0.5333,0.56638 a 9.728611,9.588295 0 0 1 0.75137,0.54157 l 0.28732,-0.15245 0.90124,-0.19947 0.57826,0.0424 0.6413,0.20722 0.54002,0.35605 0.44442,0.45992 0.20361,0.55862 -0.54984,-0.18087 -0.75758,0.26975 -0.59531,0.32298 a 9.728611,9.588295 0 0 1 0.67644,0.97565 l 5.1692,-1.39474 -0.004,-0.0186 0.37879,-0.0326 40.39805,-51.68574 a 1.9878172,2.0462823 0 0 1 -0.42426,-1.26297 1.9878172,2.0462823 0 0 1 0.006,-0.0884 l -1.05937,-1.82262 2.74505,-1.65365 0.9493,1.63711 a 1.9878172,2.0462823 0 0 1 0.32453,0.15193 L 123.98269,106.5134 a 2.0063426,1.9513022 0 0 1 1.12086,-0.3328 2.0063426,1.9513022 0 0 1 2.00195,1.88929 z m -15.76803,2.64532 -48.808901,14.19086 a 1.9878172,2.0462823 0 0 1 0.63975,1.49862 1.9878172,2.0462823 0 0 1 -0.0279,0.32556 l 0.38293,0.66043 46.341871,-13.77126 v -1.13119 h 0.008 v -0.004 h 1.38131 a 2.0063426,1.9513022 0 0 1 -0.17983,-0.80615 2.0063426,1.9513022 0 0 1 0.26251,-0.96273 z m 4.33152,1.7849 -0.74362,0.26097 49.1541,51.01239 0.55759,-0.0615 v -0.38602 z m -4.27261,0.23616 h -1.29966 v 0.81442 l 1.44694,-0.42994 v -0.19327 a 2.0063426,1.9513022 0 0 1 -0.14728,-0.19121 z m 3.21273,0.20464 a 2.0063426,1.9513022 0 0 1 -0.11369,0.11472 v 0.80099 l 0.29094,0.30179 h 0.68471 v 0.66146 h -0.047 l 47.33354,49.09933 0.85783,-0.0946 z m -3.06545,0.52607 -1.44694,0.42943 v 0.262 h 1.44694 z m -1.67845,0.49816 -46.181681,13.70201 0.11576,0.19947 h 5.42551 v 0.0351 h 0.047 v 1.35599 h 0.16382 v 0.72502 h -4.40904 l 30.212111,52.09242 h 1.4609 l 13.86271,-14.11903 -0.84077,-0.63717 h -0.004 v -0.70177 h 1.80092 v -8.9333 h -1.73064 v -0.65474 h -0.006 v -1.44694 -0.14056 h 1.73633 v -12.16257 h -1.7694 v -0.66146 h 0.0331 v -1.30483 h 5.1e-4 v -0.10076 h 1.73581 v -12.20391 h -1.65364 v -0.57878 h 0.0331 v -1.33945 h -0.0165 v -0.24805 h 1.63711 v -12.022 h -1.73633 v -0.66146 h 0.0827 z m 5.15782,0.85473 h -0.3824 v 12.022 h 0.78083 v 0.24805 1.33945 h 0.0496 v 0.57878 h -0.83044 v 12.21217 h 0.7891 v 0.1819 1.21543 h 0.0248 v 0.66146 h -0.81391 v 12.23543 h 0.52039 0.16381 v 1.44436 h 0.0992 v 0.72502 h -0.78342 v 11.55071 l 47.68856,-5.26789 z m 0.16692,12.27005 h -0.54932 v 0.51263 h 0.54932 z m -3.67109,0 h -1.38907 v 0.42995 h 1.38907 z m 0,0.62839 h -1.38907 v 0.71106 h 1.38907 z m 3.67109,0.0992 h -0.54932 v 0.61185 h 0.54932 z m -55.390931,0.0579 -40.03787,51.432 2.54248,-0.21704 38.56561,-49.89876 -0.54674,-0.94103 a 1.9878172,2.0462823 0 0 1 -0.52348,-0.37517 z m 9.25059,0.22479 h -1.47329 v 0.43254 h 1.47329 z m -1.71875,0 h -1.66037 v 0.43254 h 1.66037 z m -1.89446,0 h -1.50172 l 0.25063,0.43254 h 1.25109 z m 3.61321,0.63149 h -1.47329 v 0.52607 h 1.47329 z m -1.71875,0 h -1.66037 v 0.52607 h 1.66037 z m -1.89446,0 h -1.13533 l 0.30489,0.52607 h 0.83044 z m -4.36924,0.79995 -38.32376,49.52153 63.93201,-5.45393 z m 54.180671,11.87059 h -0.6072 v 0.57051 h 0.6072 z m -3.72897,0.0191 h -1.51877 v 0.45216 h 1.51877 z m 0,0.64233 h -1.51877 v 0.55397 h 1.51877 z m 3.72897,0.0744 h -0.6072 v 0.47955 h 0.6072 z m -3.72897,13.48548 h -1.57097 v 0.6904 h 1.57097 z m 3.64215,0.0667 h -0.52038 v 0.61392 h 0.52038 z m 0,0.76585 h -0.52038 v 0.50281 h 0.52038 z m -3.64215,0.015 h -1.57097 v 0.48783 h 1.57097 z m 80.61523,5.19658 h -1.04335 v 0.73174 h 1.04335 z m 0,0.88057 h -1.04335 v 0.68058 h 1.04335 z m -27.53837,2.09083 -11.10113,1.2516 5.98155,3.76153 5.18779,-4.98006 h -0.0682 z m 23.61199,0.0331 h -1.22421 v 3.21841 h 1.22421 z m -20.5021,0 h -1.32344 v 3.21841 h 1.32344 z m -2.08515,0.19379 -5.50457,5.18883 5.50457,3.4618 z m -13.88649,1.2237 -11.37915,1.28312 2.84996,2.19935 h 5.20226 z m 0.50281,0.38654 c -0.36973,0.40681 -1.49312,1.60426 -2.89698,3.09593 h 2.92489 z m 0.9307,0.0842 0.0367,3.0117 h 0.5488 v 3.69642 h 0.46044 v 0.10748 h -0.0139 v 1.07539 h 0.005 v 0.26097 l 4.71702,-4.52789 z m -14.3676,0.98754 -11.23549,1.2671 1.13585,0.75706 h 8.36073 z m 1.13275,0.40462 v 1.61954 h 2.06344 z m -0.93535,0.43253 -1.02319,1.18701 h 1.02319 z m 49.21043,0.39944 h -11.81064 v 2.67633 l 11.81064,-2.38281 z m -12.77183,0 h -7.58816 l 7.58816,2.80655 z m -9.05371,0.0713 v 4.62555 l 8.0207,-1.6185 -0.33228,-0.12661 h -5.1e-4 z m -40.41148,0.13849 -11.01483,1.2423 5.62549,5.3144 0.26097,-0.33951 h -0.13281 v -0.70177 h 0.0119 v -1.34462 -0.0935 h 0.8847 v -3.49953 h 3.78685 z m 1.17202,0.19379 -0.0191,0.38395 h 0.6134 z m -0.70797,0.0863 -0.29766,0.29765 h 0.29766 z m -14.91588,0.0687 -13.04934,13.21779 v 0.6134 h 7.75767 v -0.70383 h 2.28203 v -2.41432 h 2.64583 v -5.32474 h 2.01952 v -5.19348 h -1.65571 z m 48.03634,1.24075 -5.76916,5.43842 10.9089,-2.2009 z m -44.93989,0.36121 v 12.35842 l 5.5025,-7.15046 z m 6.99079,2.36058 h -0.73278 v 0.51418 h 0.73278 z m 32.46933,0.0703 h -0.32246 v 0.47078 h 0.32246 z m 11.54503,0.18759 -0.18293,0.108 0.18293,-0.0367 z m -11.54503,0.40721 h -0.32246 v 0.48059 h 0.32246 z m -32.46933,0.002 h -0.73278 v 0.53743 h 0.50902 l 0.22376,-0.29093 z m -34.566891,0.85524 -6.6492,0.55811 4.18527,2.89698 z m 66.662601,0.36691 h -0.42891 l 0.005,0.40669 z m -1.38596,0 h -1.22422 l 1.233,0.9586 z m -2.50631,0 h -5.77381 c -1.35947,1.43812 -3.117,3.2983 -3.2644,3.45405 l 10.72596,-2.16421 z m -6.77323,0 h -3.10782 v 3.25303 z m -4.03386,0 h -3.88038 l 3.88038,3.437 z m -5.07153,0 h -0.80305 l -5.2126,6.04769 10.52752,-2.1239 z m -1.70067,0 h -4.80332 v 5.59087 z m -5.76244,0 h -4.63951 l -0.68109,0.8909 5.3206,5.02657 z m -38.810551,0.0951 -2.45979,3.42357 4.859651,3.36361 1.47278,-0.12247 z m -9.448,0.27905 -9.89242,0.82993 5.23689,4.01267 z m 1.34721,0.14883 0.39687,7.2006 1.3994,-0.11627 2.81533,-3.94808 z m -0.8599,0.45631 -4.59455,4.65759 3.03031,2.32182 1.973,-0.16433 z m -12.59251,0.41082 -9.82679,0.82424 5.13664,3.92586 z m 54.581161,0.10542 -5.43223,7.10706 10.66654,-2.15232 z m -53.098051,0.006 0.47853,7.21197 2.31045,-0.19224 2.69337,-2.80138 z m -0.85059,0.39636 -4.70411,4.71444 3.07165,2.34766 2.08566,-0.17363 z m -12.48761,0.48628 -9.71155,0.81494 5.17281,3.93981 z m 1.46037,0.24236 0.46302,7.0776 1.87741,-0.15657 2.88613,-2.92334 z m -0.88625,0.31316 -4.56354,4.61781 3.12332,2.37866 1.93115,-0.16071 z m -12.52378,0.447 -9.71465,0.81494 5.22293,3.94601 z m 1.54409,0.0491 0.38964,7.26261 2.25826,-0.1881 2.78071,-2.91249 z m -0.68885,0.20981 -4.7966,4.91753 3.12797,2.36368 2.0252,-0.16847 z m 41.63726,0.4377 -2.47427,3.4432 6.715871,-0.55914 z m -54.36309,0.29921 -10.50892,0.88211 5.51852,4.00803 z m 1.5136,0.18448 0.39946,7.12205 2.30632,-0.19224 2.68355,-2.84479 z m -0.78755,0.20929 -5.11287,4.93458 3.09077,2.24483 2.45928,-0.20464 z m -11.91659,0.71882 0.55863,7.23832 2.3058,-0.19172 2.89336,-2.83549 z m 54.37188,0.64027 -2.27428,2.3058 4.7563,-0.39584 z m -12.05921,0.95963 -2.35128,2.35696 4.89893,-0.40824 z m 30.521651,0.5979 -0.75189,0.0636 1.31981,0.91364 z m -1.7539,0.14883 -8.773111,0.74465 -0.99839,1.25419 11.302671,-0.95808 z m -40.507601,0.16949 -2.39366,2.42208 5.009,-0.41703 z m 30.86013,0.64958 -0.66249,0.0563 0.0398,0.72761 z m -1.50637,0.12764 -0.85473,0.0724 0.9002,0.68988 z m -1.89756,0.16123 -7.02076,0.59583 -1.25729,1.27434 9.64696,-0.81752 z m -39.39553,0.11162 -2.30012,2.35851 4.87568,-0.40617 z m 31.44356,0.56327 -1.18236,0.10026 0.0698,1.05626 z m -2.05879,0.17467 -0.94878,0.0806 1.00459,0.76792 z m 11.97757,0.14521 -0.0109,0.008 0.0114,-0.001 z m -13.93094,0.0207 -7.22746,0.6134 -1.27176,1.27434 9.8733,-0.83664 z m -39.7092,0.17828 -2.39004,2.30632 4.97644,-0.41444 z m 31.34227,0.53175 -0.6966,0.0589 0.0398,0.60616 z m -1.54822,0.13126 -0.77618,0.0656 0.82579,0.62942 z m -1.7384,0.1478 -7.25847,0.61598 -1.35082,1.28003 9.97923,-0.84595 z m -8.20932,0.69711 -1.15083,0.0977 0.0501,0.93018 z m -1.87637,0.15917 -0.817,0.0692 0.85266,0.64441 z m -1.85725,0.15761 -7.27191,0.61753 -1.23713,1.26814 9.89087,-0.83819 z m -8.15661,0.69246 -1.14825,0.0977 0.0594,1.05678 z m -1.89084,0.16072 -1.19527,0.10128 1.25935,0.91468 z m 12.48761,0.0382 -0.0873,0.0119 0.0413,0.031 z m -14.64148,0.14469 -7.53856,0.63976 -1.31982,1.2733 10.2831,-0.87126 z m -8.6217,0.73174 -1.00304,0.0848 0.0646,0.83457 z m 70.229311,1.04593 -8.196401,4.31498 h 5.05447 v -1.48311 h 3.141931 z m 44.11927,10.03608 h -1.9358 v 0.53795 h 1.9358 z m 0,0.74828 h -1.9358 v 0.49092 h 1.9358 z"
       inkscape:connector-curvature="0" /></g></svg>