<?xml version="1.0" encoding="UTF-8" standalone="no"?>
<!-- Created with Inkscape (http://www.inkscape.org/) -->

<svg
   xmlns:dc="http://purl.org/dc/elements/1.1/"
   xmlns:cc="http://creativecommons.org/ns#"
   xmlns:rdf="http://www.w3.org/1999/02/22-rdf-syntax-ns#"
   xmlns:svg="http://www.w3.org/2000/svg"
   xmlns="http://www.w3.org/2000/svg"
   xmlns:sodipodi="http://sodipodi.sourceforge.net/DTD/sodipodi-0.dtd"
   xmlns:inkscape="http://www.inkscape.org/namespaces/inkscape"
   width="2848.8621"
   height="1797.2592"
   viewBox="0 0 753.7614 475.52484"
   version="1.1"
   id="svg8"
   inkscape:version="0.92.4 (5da689c313, 2019-01-14)"
   sodipodi:docname="Tree_Frog_Generic-side.svg"
   inkscape:export-filename="G:\Pictures\My Pictures\Vectors and SVGs\Animals\Tree Frog.png"
   inkscape:export-xdpi="96"
   inkscape:export-ydpi="96">
  <defs
     id="defs2" />
  <sodipodi:namedview
     id="base"
     pagecolor="#000720"
     bordercolor="#666666"
     borderopacity="1.0"
     inkscape:pageopacity="0"
     inkscape:pageshadow="2"
     inkscape:zoom="0.175"
     inkscape:cx="881.28528"
     inkscape:cy="771.00556"
     inkscape:document-units="mm"
     inkscape:current-layer="layer1"
     showgrid="false"
     borderlayer="true"
     inkscape:showpageshadow="false"
     inkscape:pagecheckerboard="true"
     units="px"
     inkscape:window-width="1600"
     inkscape:window-height="837"
     inkscape:window-x="-8"
     inkscape:window-y="-8"
     inkscape:window-maximized="1"
     inkscape:snap-global="false"
     fit-margin-top="0"
     fit-margin-left="0"
     fit-margin-right="0"
     fit-margin-bottom="0"
     showguides="false" />
  <metadata
     id="metadata5">
    <rdf:RDF>
      <cc:Work
         rdf:about="">
        <dc:format>image/svg+xml</dc:format>
        <dc:type
           rdf:resource="http://purl.org/dc/dcmitype/StillImage" />
        <dc:title></dc:title>
      </cc:Work>
    </rdf:RDF>
  </metadata>
  <g
     inkscape:label="Layer 1"
     inkscape:groupmode="layer"
     id="layer1"
     transform="translate(-3.5809588,276.28391)">
    <path
       style="opacity:1;fill:#555555;fill-opacity:1;fill-rule:nonzero;stroke:none;stroke-width:2.80898976;stroke-linecap:round;stroke-linejoin:round;stroke-miterlimit:4;stroke-dasharray:none;stroke-dashoffset:0;stroke-opacity:1;paint-order:normal"
       d="M 532.14648,33.257812 C 458.28399,33.288532 393.1809,81.74992 371.95898,152.49805 246.21191,161.07326 155.52397,163.97049 106.66211,193.74609 -8.3449132,263.82938 -6.2823767,400.93621 55.755859,425.35547 c 60.027851,23.62798 -3.831175,26.1824 67.052731,48.5332 71.97965,22.69629 199.87955,37.03891 268.84766,148.1543 85.54775,137.82689 186.52448,271.40938 399.6582,376.16992 133.31069,65.52561 265.20745,224.32541 380.66405,342.03911 -1.0338,2.1658 -2.0903,4.3524 -3.166,6.5605 -34.3181,70.4425 -64.7815,120.7493 -91.8747,174.9358 -27.0933,54.1865 -50.8786,74.6687 -118.75487,129.6319 -41.52689,33.6267 -85.84733,60.1688 -141.28262,58.907 -143.77797,-3.273 -114.44695,1.8393 -261.6879,1.9277 -14.54523,-17.3256 -36.81814,-27.4505 -60.4043,-27.4589 -42.39801,-10e-5 -76.76868,32.0712 -76.76953,71.6336 -0.001,39.5639 34.37012,71.6371 76.76953,71.6371 15.51079,-0.027 30.64878,-4.4391 43.41992,-12.6528 116.93143,24.6637 350.28726,9.001 370.26286,9.001 214.79931,0 271.79321,-46.7646 336.18291,-103.7691 89.7524,-89.579 95.3443,-98.5544 132.9864,-237.6624 34.3874,8.5426 40.334,11.4243 76.2547,16.4109 -28.4776,105.381 120.333,200.8893 120.333,200.8893 -40.027,-4.6714 -224.5089,14.2475 -250.1096,14.2475 -77.45,0 -96.7577,3.6383 -118.7861,1.0787 -6.254,-0.731 -12.3119,-1.329 -18.1875,-1.8086 -17.3787,-7.9362 -38.2733,-12.2186 -59.7226,-12.2403 -56.4291,-3e-4 -102.1741,28.8766 -102.1739,64.4981 0.027,8.3908 2.6465,16.6977 7.7129,24.4551 4.2476,8.6811 11.8742,16.1427 22.1485,21.0586 19.1529,12.14 45.1707,18.9705 72.3125,18.9843 22.7359,-0.01 44.817,-4.8066 62.748,-13.6308 45.8452,-3.6757 26.0593,-7.8037 101.871,-4.25 163.48,7.6631 227.6552,16.1624 244.0112,16.1624 163.6339,0 388.9888,1.6471 772.6815,1.6471 285.4885,0 316.1098,-40.4726 406.1403,-109.4647 140.4677,-107.643 169.2838,-201.1059 133.5225,-267.5197 -23.1151,-42.9279 -36.5407,-68.8358 -102.7394,-81.8496 -72.5237,-85.179 -51.5962,-59.2536 -133.6967,-134.9769 C 2450.3263,1087.5372 2326.5973,915.12788 2117.0762,752.56836 1907.555,590.00886 1510.1882,474.40963 1297.0547,380.48633 1154.4211,317.63088 1020.2003,220.22348 797.92383,173.33203 765.17802,124.89951 712.81273,93.293239 654.70117,86.886719 623.08444,52.746094 578.67815,33.314271 532.14648,33.257812 Z"
       transform="matrix(0.26458333,0,0,0.26458333,0,-285.08337)"
       id="circle878"
       inkscape:connector-curvature="0"
       sodipodi:nodetypes="ccssssscccsscccccsccccsccccccccssssccsssccc" />
  </g>
</svg>
