<?xml version="1.0" encoding="UTF-8" standalone="no"?>
<!-- Created with Inkscape (http://www.inkscape.org/) -->

<svg
   width="326.20901mm"
   height="28.1404mm"
   viewBox="0 0 326.20901 28.1404"
   version="1.1"
   id="svg1"
   xml:space="preserve"
   inkscape:version="1.3 (0e150ed, 2023-07-21)"
   sodipodi:docname="Viaduc de Millau-side.svg"
   xmlns:inkscape="http://www.inkscape.org/namespaces/inkscape"
   xmlns:sodipodi="http://sodipodi.sourceforge.net/DTD/sodipodi-0.dtd"
   xmlns="http://www.w3.org/2000/svg"
   xmlns:svg="http://www.w3.org/2000/svg"><sodipodi:namedview
     id="namedview1"
     pagecolor="#505050"
     bordercolor="#ffffff"
     borderopacity="1"
     inkscape:showpageshadow="0"
     inkscape:pageopacity="0"
     inkscape:pagecheckerboard="1"
     inkscape:deskcolor="#505050"
     inkscape:document-units="mm"
     showguides="true"
     inkscape:zoom="0.65008588"
     inkscape:cx="996.79138"
     inkscape:cy="103.06331"
     inkscape:current-layer="layer1" /><defs
     id="defs1" /><g
     inkscape:label="Layer 1"
     inkscape:groupmode="layer"
     id="layer1"
     transform="translate(11.935706,-104.62152)"><path
       id="path2"
       style="opacity:1;fill:#555555;stroke-width:0.899999;stroke-linecap:round;stroke-linejoin:round"
       d="m 14.393953,104.62152 c 5.5e-4,0 10e-4,10e-4 0.0016,10e-4 5.5e-4,0 0.001,-10e-4 0.0015,-10e-4 z m 0.0016,10e-4 c -0.12292,0.002 -0.245815,0.26736 -0.311092,0.80151 -0.027,0.22115 -0.074,0.87864 -0.127641,1.69395 l -18.8732668,8.88783 h -7.0192102 l 3.4369999,1.09967 H 13.409517 v 15.65641 h 2.177645 V 117.10551 H 57.96132 v 15.65641 h 2.177645 v -15.65641 h 42.374155 v 15.65641 h 2.17765 v -15.65641 h 42.37416 v 15.65641 h 2.17764 v -15.65641 h 42.37416 v 15.65641 h 2.17764 v -15.65641 h 42.37416 v 15.65641 h 2.17765 v -15.65641 h 42.37415 v 15.65641 h 2.17765 v -15.65641 h 27.93886 l 3.43648,-1.09967 h -13.13304 l -18.97817,-8.93692 c -0.0606,-0.73114 -0.12218,-1.4659 -0.1447,-1.64693 -0.0659,-0.52992 -0.18868,-0.79651 -0.31161,-0.79944 -0.12278,0.002 -0.24537,0.26793 -0.31057,0.80151 -0.027,0.22115 -0.074,0.87864 -0.12764,1.69395 l -18.87327,8.88783 h -5.80585 l -18.97817,-8.93692 c -0.0606,-0.73114 -0.12217,-1.4659 -0.14469,-1.64693 -0.0659,-0.52992 -0.18868,-0.79651 -0.31161,-0.79944 -0.12279,0.002 -0.24537,0.26793 -0.31058,0.80151 -0.027,0.22115 -0.074,0.87864 -0.12764,1.69395 l -18.87326,8.88783 h -5.80533 l -18.97817,-8.93692 c -0.0606,-0.73114 -0.12218,-1.4659 -0.1447,-1.64693 -0.0659,-0.52991 -0.18868,-0.7965 -0.31161,-0.79944 -0.12292,0.002 -0.24581,0.26735 -0.31109,0.80151 -0.027,0.22115 -0.074,0.87864 -0.12764,1.69395 l -18.87327,8.88783 h -5.80533 l -18.97817,-8.93692 c -0.0606,-0.73114 -0.12217,-1.4659 -0.14469,-1.64693 -0.0659,-0.52991 -0.18868,-0.7965 -0.31161,-0.79944 -0.12292,0.002 -0.24581,0.26735 -0.31109,0.80151 -0.027,0.22115 -0.074,0.87864 -0.12764,1.69395 l -18.87327,8.88783 h -5.80533 l -18.97817,-8.93692 c -0.0606,-0.73114 -0.12217,-1.4659 -0.14469,-1.64693 -0.0659,-0.52991 -0.18868,-0.7965 -0.31161,-0.79944 -0.12292,0.002 -0.24581,0.26735 -0.31109,0.80151 -0.027,0.22115 -0.074,0.87864 -0.12764,1.69395 l -18.873271,8.88783 h -5.80533 l -18.97817,-8.93692 c -0.0606,-0.73114 -0.122174,-1.4659 -0.144694,-1.64693 -0.06591,-0.52991 -0.188679,-0.7965 -0.311609,-0.79944 -0.122919,0.002 -0.245814,0.26736 -0.311092,0.80151 -0.027,0.22115 -0.074,0.87864 -0.127641,1.69395 l -18.873266,8.88783 h -5.805331 l -18.978169,-8.93692 c -0.0606,-0.73114 -0.122174,-1.4659 -0.144694,-1.64693 -0.06591,-0.52991 -0.18868,-0.7965 -0.311609,-0.79944 z m 44.551802,0 c 5.51e-4,0 10e-4,-10e-4 0.0016,-10e-4 h -0.0031 c 5.49e-4,0 10e-4,10e-4 0.0015,10e-4 z m 44.551805,0 c 5.5e-4,0 10e-4,-10e-4 0.002,-10e-4 h -0.003 c 5.5e-4,0 0.001,10e-4 0.002,10e-4 z m 44.5518,0 c 5.5e-4,0 0.001,-10e-4 0.002,-10e-4 h -0.003 c 5.5e-4,0 0.001,10e-4 0.002,10e-4 z m 44.5518,0 c 5.5e-4,0 0.001,-10e-4 0.002,-10e-4 h -0.003 c 5.5e-4,0 10e-4,10e-4 0.002,10e-4 z m 44.55129,0 c 6.8e-4,-10e-6 10e-4,-10e-4 0.002,-10e-4 h -0.004 c 5.5e-4,0 0.001,10e-4 0.002,10e-4 z m 44.5518,0 c 6.8e-4,-10e-6 10e-4,-10e-4 0.002,-10e-4 h -0.004 c 5.5e-4,0 0.001,10e-4 0.002,10e-4 z m -266.823505,2.7926 18.242814,8.59069 h -0.814421 l -17.426326,-8.57002 c -8.3e-4,-0.0102 -7.87e-4,-0.0105 -0.0021,-0.0207 z m 44.551802,0 18.242814,8.59069 h -0.81442 l -17.426327,-8.57002 c -8.3e-4,-0.0102 -7.87e-4,-0.0105 -0.0021,-0.0207 z m 44.551803,0 18.24282,8.59069 h -0.81443 l -17.42632,-8.57002 c -8.3e-4,-0.0102 -7.9e-4,-0.0105 -0.002,-0.0207 z m 44.5518,0 18.24282,8.59069 h -0.81442 l -17.42633,-8.57002 c -8.3e-4,-0.0102 -7.9e-4,-0.0105 -0.002,-0.0207 z m 44.55181,0 18.24281,8.59069 h -0.81494 l -17.42632,-8.57002 c -8.3e-4,-0.0102 -2.7e-4,-0.0105 -0.002,-0.0207 z m 44.5518,0 18.24281,8.59069 h -0.81493 l -17.42633,-8.57002 c -8.3e-4,-0.0102 -2.7e-4,-0.0105 -0.002,-0.0207 z m 44.55128,0 18.24282,8.59069 h -0.81442 l -17.42633,-8.57002 c -8.3e-4,-0.0102 -7.9e-4,-0.0105 -0.002,-0.0207 z m -268.258558,0.046 c -5.5e-4,0.009 -0.0011,0.0141 -0.0021,0.0227 l -17.3291747,8.52196 h -0.8139038 z m 44.551803,0 c -5.5e-4,0.009 -0.0011,0.0141 -0.0021,0.0227 l -17.329175,8.52196 h -0.81392 z m 44.551805,0 c -5.5e-4,0.009 -0.001,0.0141 -0.002,0.0227 l -17.329175,8.52196 h -0.813903 z m 44.5518,0 c -5.5e-4,0.009 -0.001,0.0141 -0.002,0.0227 l -17.32917,8.52196 h -0.8139 z m 44.5518,0 c -5.5e-4,0.009 -0.001,0.0141 -0.002,0.0227 L 174.81,116.00584 h -0.8139 z m 44.55181,0 c -5.5e-4,0.009 -10e-4,0.0141 -0.002,0.0227 l -17.32918,8.52196 h -0.8139 z m 44.5518,0 c -5.5e-4,0.009 -10e-4,0.0141 -0.002,0.0227 l -17.32917,8.52196 h -0.81391 z m -266.332066,0.32401 16.716809,8.22069 h -0.83044 l -15.884302,-8.20105 c -4.7e-4,-0.006 -0.0011,-0.0138 -0.0021,-0.0196 z m 44.551802,0 16.716809,8.22069 h -0.830957 l -15.884301,-8.20105 c -4.7e-4,-0.006 -5.51e-4,-0.0138 -0.0016,-0.0196 z m 44.551804,0 16.71681,8.22069 h -0.83096 l -15.8843,-8.20105 c -4.7e-4,-0.006 -5.5e-4,-0.0138 -0.002,-0.0196 z m 44.55129,0 16.7168,8.22069 h -0.83044 l -15.8843,-8.20105 c -4.7e-4,-0.006 -0.001,-0.0138 -0.002,-0.0196 z m 44.5518,0 16.71681,8.22069 h -0.83044 l -15.8843,-8.20105 c -4.7e-4,-0.006 -0.001,-0.0138 -0.002,-0.0196 z m 44.5518,0 16.71681,8.22069 h -0.83044 l -15.8843,-8.20105 c -4.7e-4,-0.006 -10e-4,-0.0138 -0.002,-0.0196 z m 44.5518,0 16.71681,8.22069 h -0.83044 l -15.8843,-8.20105 c -4.7e-4,-0.006 -10e-4,-0.0138 -0.002,-0.0196 z m -268.312302,0.0444 c -4e-4,0.006 -0.0011,0.0152 -0.0021,0.0217 l -15.794385,8.15454 h -0.8299235 z m 44.551802,0 c -4e-4,0.006 -0.0011,0.0152 -0.0021,0.0217 l -15.794384,8.15454 h -0.829924 z m 44.5518,0 c -4e-4,0.006 -0.001,0.0152 -0.002,0.0217 l -15.794389,8.15454 h -0.829923 z m 44.55181,0 c -4e-4,0.006 -0.001,0.0152 -0.002,0.0217 l -15.79439,8.15454 h -0.82992 z m 44.5518,0 c -4e-4,0.006 -0.001,0.0152 -0.002,0.0217 l -15.79438,8.15454 h -0.82993 z m 44.5518,0 c -4e-4,0.006 -0.001,0.0152 -0.002,0.0217 l -15.79438,8.15454 h -0.82992 z m 44.5518,0 c -4e-4,0.006 -10e-4,0.0152 -0.002,0.0217 l -15.79439,8.15454 h -0.82992 z m -266.279351,0.32557 15.201656,7.85068 H 29.2856 l -14.34176,-7.83156 c -4.7e-4,-0.006 -5.51e-4,-0.0132 -0.0016,-0.0191 z m 44.551803,0 15.201656,7.85068 h -0.858345 l -14.341761,-7.83156 c -4.7e-4,-0.006 -5.5e-4,-0.0132 -0.0016,-0.0191 z m 44.551288,0 15.20165,7.85068 h -0.85782 l -14.34176,-7.83156 c -4.7e-4,-0.006 -0.001,-0.0132 -0.002,-0.0191 z m 44.5518,0 15.20166,7.85068 h -0.85783 l -14.34176,-7.83156 c -4.7e-4,-0.006 -0.001,-0.0132 -0.002,-0.0191 z m 44.5518,0 15.20166,7.85068 h -0.85783 l -14.34181,-7.8315 c -4.7e-4,-0.006 -0.001,-0.0132 -0.002,-0.0191 z m 44.55181,0 15.20165,7.85068 h -0.85783 l -14.34176,-7.83156 c -4.7e-4,-0.006 -0.001,-0.0132 -0.002,-0.0191 z m 44.5518,0 15.20166,7.85068 h -0.85783 l -14.34176,-7.83156 c -4.7e-4,-0.006 -10e-4,-0.0132 -0.002,-0.0191 z m -268.3645,0.0429 c -4.1e-4,0.007 -6.63e-4,0.0146 -10e-4,0.0212 l -14.25907831,7.78661 H -1.2283488 Z m 44.551803,0 c -4.1e-4,0.007 -6.64e-4,0.0146 -10e-4,0.0212 l -14.259078,7.78661 h -0.856278 z m 44.551807,0 c -4.1e-4,0.007 -6.7e-4,0.0146 -10e-4,0.0212 l -14.259076,7.78661 h -0.856279 z m 44.5518,0 c -4.1e-4,0.007 -6.6e-4,0.0146 -0.001,0.0212 l -14.25908,7.78661 h -0.85628 z m 44.5518,0 c -4.1e-4,0.007 -6.6e-4,0.0146 -0.001,0.0212 l -14.25908,7.78661 h -0.85628 z m 44.5518,0 c -4.1e-4,0.007 -6.6e-4,0.0146 -0.001,0.0212 l -14.25908,7.78661 h -0.85628 z m 44.55181,0 c -4.1e-4,0.007 -6.7e-4,0.0146 -0.001,0.0212 l -14.25907,7.78661 h -0.85628 z m -266.226648,0.33279 13.686503,7.475 h -0.882634 l -12.802319,-7.45846 c -4.2e-4,-0.005 -5.5e-4,-0.0112 -0.0015,-0.0165 z m 44.551286,0 13.686503,7.475 h -0.882117 l -12.802319,-7.45846 c -4.2e-4,-0.005 -0.0011,-0.0112 -0.0021,-0.0165 z m 44.551802,0 13.6865,7.475 h -0.88211 l -12.80232,-7.45846 c -4.2e-4,-0.005 -0.001,-0.0112 -0.002,-0.0165 z m 44.5518,0 13.68651,7.475 h -0.88212 l -12.80232,-7.45846 c -4.2e-4,-0.005 -0.001,-0.0112 -0.002,-0.0165 z m 44.55181,0 13.6865,7.475 h -0.88212 l -12.80232,-7.45846 c -4.2e-4,-0.005 -10e-4,-0.0112 -0.002,-0.0165 z m 44.5518,0 13.6865,7.475 h -0.88211 l -12.80232,-7.45846 c -4.2e-4,-0.005 -0.001,-0.0112 -0.002,-0.0165 z m 44.5518,0 13.6865,7.475 h -0.88211 l -12.80232,-7.45846 c -4.2e-4,-0.005 -10e-4,-0.0112 -0.002,-0.0165 z m -268.416691,0.0408 c -3.9e-4,0.006 -6.73e-4,0.0136 -10e-4,0.0202 L 1.137915,116.00584 H 0.25528158 Z m 44.551803,0 c -3.9e-4,0.006 -6.74e-4,0.0136 -0.001,0.0202 l -12.726871,7.41402 h -0.882634 z m 44.551808,0 c -3.9e-4,0.006 -6.8e-4,0.0136 -0.001,0.0202 l -12.726871,7.41402 h -0.882633 z m 44.5518,0 c -3.9e-4,0.006 -6.8e-4,0.0136 -10e-4,0.0202 l -12.72687,7.41402 h -0.88263 z m 44.5518,0 c -3.9e-4,0.006 -6.7e-4,0.0136 -0.001,0.0202 l -12.72687,7.41402 h -0.88264 z m 44.5518,0 c -3.9e-4,0.006 -6.7e-4,0.0136 -10e-4,0.0202 l -12.72687,7.41402 h -0.88264 z m 44.55181,0 c -3.9e-4,0.006 -6.8e-4,0.0136 -0.001,0.0202 l -12.72687,7.41402 h -0.88263 z m -266.174456,0.33899 12.177551,7.09518 h -0.910538 l -11.265979,-7.08019 c -3.9e-4,-0.005 -6.84e-4,-0.0101 -10e-4,-0.015 z m 44.551803,0 12.177551,7.09518 H 70.821 l -11.265979,-7.08019 c -3.9e-4,-0.005 -6.83e-4,-0.0101 -0.001,-0.015 z m 44.551803,0 12.17755,7.09518 h -0.91054 l -11.26598,-7.08019 c -3.9e-4,-0.005 -6.8e-4,-0.0101 -0.001,-0.015 z m 44.5518,0 12.17755,7.09518 h -0.91053 l -11.26598,-7.08019 c -3.9e-4,-0.005 -6.9e-4,-0.0101 -0.001,-0.015 z m 44.55181,0 12.17755,7.09518 h -0.91054 l -11.26598,-7.08019 c -3.9e-4,-0.005 -6.8e-4,-0.0101 -10e-4,-0.015 z m 44.5518,0 12.17755,7.09518 h -0.91054 l -11.26598,-7.08019 c -3.9e-4,-0.005 -6.8e-4,-0.0101 -0.001,-0.015 z m 44.5518,0 12.17755,7.09518 h -0.91054 l -11.26598,-7.08019 c -3.9e-4,-0.005 -6.8e-4,-0.0101 -10e-4,-0.015 z m -268.469918,0.0398 c -3.6e-4,0.006 -7.04e-4,0.0121 -0.001,0.0181 l -11.1972492,7.0373 H 1.7342611 Z m 44.551802,0 c -3.6e-4,0.006 -7.03e-4,0.0121 -10e-4,0.0181 l -11.19725,7.0373 h -0.910538 z m 44.551806,0 c -3.6e-4,0.006 -7.1e-4,0.0121 -0.001,0.0181 l -11.197246,7.0373 h -0.910539 z m 44.5518,0 c -3.6e-4,0.006 -7e-4,0.0121 -0.001,0.0181 l -11.19725,7.0373 h -0.91054 z m 44.5518,0 c -3.6e-4,0.006 -7e-4,0.0121 -0.001,0.0181 l -11.19725,7.0373 h -0.91054 z m 44.55181,0 c -3.6e-4,0.006 -7.1e-4,0.0121 -0.001,0.0181 l -11.19725,7.0373 h -0.91054 z m 44.5518,0 c -3.6e-4,0.006 -7.1e-4,0.0121 -0.001,0.0181 l -11.19724,7.0373 h -0.91054 z m -266.121227,0.34778 10.672217,6.7076 h -0.935343 l -9.73584,-6.6952 c -3.2e-4,-0.004 -7.34e-4,-0.008 -10e-4,-0.0124 z m 44.551803,0 10.672217,6.7076 H 69.32135 l -9.73584,-6.6952 c -3.2e-4,-0.004 -7.33e-4,-0.008 -10e-4,-0.0124 z m 44.551804,0 10.67222,6.7076 h -0.93535 l -9.73584,-6.6952 c -3.2e-4,-0.004 -7.3e-4,-0.008 -0.001,-0.0124 z m 44.5518,0 10.67222,6.7076 h -0.93534 l -9.73584,-6.6952 c -3.2e-4,-0.004 -7.4e-4,-0.008 -10e-4,-0.0124 z m 44.5518,0 10.67222,6.7076 h -0.93534 l -9.73584,-6.6952 c -3.2e-4,-0.004 -7.4e-4,-0.008 -0.001,-0.0124 z m 44.55181,0 10.67221,6.7076 h -0.93534 l -9.73584,-6.6952 c -3.2e-4,-0.004 -7.3e-4,-0.008 -10e-4,-0.0124 z m 44.5518,0 10.67222,6.7076 h -0.93535 l -9.73584,-6.6952 c -3.2e-4,-0.004 -7.3e-4,-0.008 -10e-4,-0.0124 z M 13.819828,109.337 c -3.3e-4,0.005 -7.43e-4,0.0106 -10e-4,0.016 l -9.6738284,6.65282 H 3.2091064 Z m 44.551803,0 c -3.3e-4,0.005 -7.44e-4,0.0106 -10e-4,0.016 l -9.674345,6.65282 h -0.935343 z m 44.551799,0 c -3.3e-4,0.005 -7.4e-4,0.0106 -10e-4,0.016 l -9.674345,6.65282 h -0.935343 z m 44.55181,0 c -3.3e-4,0.005 -7.5e-4,0.0106 -0.001,0.016 l -9.67434,6.65282 h -0.93535 z m 44.5518,0 c -3.3e-4,0.005 -7.4e-4,0.0106 -0.001,0.016 l -9.67435,6.65282 h -0.93534 z m 44.5518,0 c -3.3e-4,0.005 -7.4e-4,0.0106 -0.001,0.016 l -9.67435,6.65282 h -0.93534 z m 44.5518,0 c -3.3e-4,0.005 -7.4e-4,0.0106 -0.001,0.016 l -9.67434,6.65282 h -0.93535 z m -266.06696,0.35656 9.176184,6.31228 h -0.966349 l -8.208801,-6.30091 c -3.1e-4,-0.004 -7.64e-4,-0.007 -0.001,-0.0114 z m 44.551803,0 9.176184,6.31228 h -0.96635 l -8.208801,-6.30091 c -3.1e-4,-0.004 -7.63e-4,-0.007 -10e-4,-0.0114 z m 44.551807,0 9.17618,6.31228 h -0.96635 l -8.2088,-6.30091 c -3.1e-4,-0.004 -7.6e-4,-0.007 -10e-4,-0.0114 z m 44.5518,0 9.17618,6.31228 h -0.96635 l -8.2088,-6.30091 c -3.1e-4,-0.004 -7.6e-4,-0.007 -0.001,-0.0114 z m 44.5518,0 9.17618,6.31228 h -0.96634 l -8.20881,-6.30091 c -3.1e-4,-0.004 -7.6e-4,-0.007 -0.001,-0.0114 z m 44.5518,0 9.17619,6.31228 h -0.96635 l -8.2088,-6.30091 c -3.1e-4,-0.004 -7.7e-4,-0.007 -0.001,-0.0114 z m 44.55181,0 9.17618,6.31228 h -0.96635 l -8.2088,-6.30091 c -3.1e-4,-0.004 -7.6e-4,-0.007 -0.001,-0.0114 z m -268.578443,0.0393 c -3e-4,0.005 -7.73e-4,0.009 -10e-4,0.0145 l -8.1529911,6.25853 H 4.6746501 Z m 44.551803,0 c -3e-4,0.005 -7.74e-4,0.009 -10e-4,0.0145 l -8.152991,6.25853 h -0.967382 z m 44.5518,0 c -3e-4,0.005 -7.7e-4,0.009 -10e-4,0.0145 l -8.152992,6.25853 h -0.967383 z m 44.5518,0 c -3e-4,0.005 -7.7e-4,0.009 -0.001,0.0145 l -8.15299,6.25853 h -0.96738 z m 44.55181,0 c -3e-4,0.005 -7.8e-4,0.009 -10e-4,0.0145 l -8.15299,6.25853 h -0.96738 z m 44.5518,0 c -3e-4,0.005 -7.7e-4,0.009 -0.001,0.0145 l -8.15299,6.25853 h -0.96739 z m 44.5518,0 c -3e-4,0.005 -7.7e-4,0.009 -0.001,0.0145 l -8.15299,6.25853 h -0.96738 z m -266.010634,0.37672 7.681702,5.89628 h -0.996322 l -6.684346,-5.88491 c -3.1e-4,-0.004 -7.64e-4,-0.007 -10e-4,-0.0114 z m 44.551803,0 7.681701,5.89628 h -0.996321 l -6.684347,-5.88491 c -3.1e-4,-0.004 -7.63e-4,-0.007 -10e-4,-0.0114 z m 44.551801,0 7.6817,5.89628 h -0.99632 l -6.68435,-5.88491 c -3.1e-4,-0.004 -7.6e-4,-0.007 -10e-4,-0.0114 z m 44.5518,0 7.68171,5.89628 h -0.99633 l -6.68434,-5.88491 c -3.1e-4,-0.004 -7.7e-4,-0.007 -0.001,-0.0114 z m 44.55181,0 7.6817,5.89628 h -0.99632 l -6.68435,-5.88491 c -3.1e-4,-0.004 -7.6e-4,-0.007 -0.001,-0.0114 z m 44.5518,0 7.6817,5.89628 h -0.99632 l -6.68435,-5.88491 c -3.1e-4,-0.004 -7.6e-4,-0.007 -0.001,-0.0114 z m 44.5518,0 7.6817,5.89628 h -0.99632 l -6.68434,-5.88491 c -3.1e-4,-0.004 -7.7e-4,-0.007 -0.001,-0.0114 z m -268.635798,0.0357 c -3.4e-4,0.006 -2.06e-4,0.0108 -5.16e-4,0.0165 l -6.6378381,5.84409 H 6.1360596 Z m 44.551803,0 c -3.4e-4,0.006 -7.24e-4,0.0108 -10e-4,0.0165 l -6.637837,5.84409 h -0.996322 z m 44.551805,0 c -3.4e-4,0.006 -7.3e-4,0.0108 -0.001,0.0165 l -6.637834,5.84409 h -0.996321 z m 44.5518,0 c -3.4e-4,0.006 -7.2e-4,0.0108 -0.001,0.0165 l -6.63784,5.84409 h -0.99632 z m 44.5518,0 c -3.4e-4,0.006 -7.2e-4,0.0108 -0.001,0.0165 l -6.63784,5.84409 h -0.99632 z m 44.55181,0 c -3.4e-4,0.006 -7.3e-4,0.0108 -0.001,0.0165 l -6.63784,5.84409 h -0.99632 z m 44.5518,0 c -3.4e-4,0.006 -7.3e-4,0.0108 -10e-4,0.0165 l -6.63783,5.84409 h -0.99633 z m -265.951211,0.40566 6.198588,5.45497 H 20.30057 l -5.168677,-5.44153 c -3.7e-4,-0.005 -7.04e-4,-0.009 -10e-4,-0.0134 z m 44.551803,0 6.198588,5.45497 h -1.028878 l -5.168677,-5.44153 c -3.7e-4,-0.005 -7.03e-4,-0.009 -10e-4,-0.0134 z m 44.551798,0 6.19859,5.45497 h -1.02888 l -5.16867,-5.44153 c -3.7e-4,-0.005 -7.1e-4,-0.009 -0.001,-0.0134 z m 44.55181,0 6.19859,5.45497 h -1.02888 l -5.16868,-5.44153 c -3.7e-4,-0.005 -7e-4,-0.009 -10e-4,-0.0134 z m 44.5518,0 6.19859,5.45497 h -1.02888 l -5.16868,-5.44153 c -3.7e-4,-0.005 -7e-4,-0.009 -0.001,-0.0134 z m 44.5518,0 6.19859,5.45497 h -1.02888 l -5.16867,-5.44153 c -3.7e-4,-0.005 -7.1e-4,-0.009 -0.001,-0.0134 z m 44.5518,0 6.19859,5.45497 h -1.02887 l -5.16868,-5.44153 c -3.7e-4,-0.005 -7.1e-4,-0.009 -10e-4,-0.0134 z m -268.696773,0.0331 c -4.3e-4,0.007 -6.43e-4,0.0134 -10e-4,0.0207 l -5.1299195,5.40122 H 7.58455 Z m 44.551803,0 c -4.3e-4,0.007 -6.43e-4,0.0134 -0.001,0.0207 l -5.130437,5.40122 h -1.028877 z m 44.5518,0 c -4.3e-4,0.007 -6.4e-4,0.0134 -0.001,0.0207 l -5.130437,5.40122 h -1.028878 z m 44.55181,0 c -4.3e-4,0.007 -6.5e-4,0.0134 -10e-4,0.0207 l -5.13043,5.40122 H 141.24 Z m 44.5518,0 c -4.3e-4,0.007 -6.5e-4,0.0134 -0.001,0.0207 l -5.13043,5.40122 h -1.02888 z m 44.5518,0 c -4.3e-4,0.007 -6.4e-4,0.0134 -10e-4,0.0207 l -5.13044,5.40122 h -1.02888 z m 44.5518,0 c -4.3e-4,0.007 -6.4e-4,0.0134 -10e-4,0.0207 l -5.13044,5.40122 h -1.02887 z m -265.88661,0.45785 4.715991,4.96404 h -1.0573 l -3.65559,-4.92787 c -9.9e-4,-0.0128 -0.0021,-0.0234 -0.0031,-0.0362 z m 44.551803,0 4.715991,4.96404 h -1.0573 l -3.655591,-4.92787 c -9.9e-4,-0.0128 -0.0021,-0.0234 -0.0031,-0.0362 z m 44.551807,0 4.71599,4.96404 h -1.0573 l -3.65559,-4.92787 c -9.9e-4,-0.0128 -0.002,-0.0234 -0.003,-0.0362 z m 44.5518,0 4.71599,4.96404 h -1.0573 l -3.65559,-4.92787 c -9.9e-4,-0.0128 -0.002,-0.0234 -0.003,-0.0362 z m 44.5518,0 4.71599,4.96404 h -1.0573 l -3.65559,-4.92787 c -9.9e-4,-0.0128 -0.002,-0.0234 -0.003,-0.0362 z m 44.5518,0 4.71599,4.96404 h -1.0573 l -3.65559,-4.92787 c -9.9e-4,-0.0128 -0.002,-0.0234 -0.003,-0.0362 z m 44.55181,0 4.71599,4.96404 h -1.0573 l -3.65559,-4.92787 c -9.9e-4,-0.0128 -0.002,-0.0234 -0.003,-0.0362 z m -268.763961,0.0295 c -9.2e-4,0.0158 -0.0021,0.0297 -0.0031,0.0455 L 10.086207,116.006 H 9.0289062 Z m 44.551802,0 c -9.2e-4,0.0158 -0.0021,0.0297 -0.0031,0.0455 l -3.626652,4.88911 h -1.0573 z m 44.551799,0 c -9.2e-4,0.0158 -0.002,0.0297 -0.003,0.0455 l -3.626649,4.88911 h -1.0573 z m 44.55181,0 c -9.2e-4,0.0158 -0.002,0.0297 -0.003,0.0455 l -3.62666,4.88911 h -1.0573 z m 44.5518,0 c -9.2e-4,0.0158 -0.002,0.0297 -0.003,0.0455 l -3.62665,4.88911 h -1.0573 z m 44.5518,0 c -9.2e-4,0.0158 -0.002,0.0297 -0.003,0.0455 l -3.62665,4.88911 h -1.0573 z m 44.5518,0 c -9.2e-4,0.0158 -0.002,0.0297 -0.003,0.0455 l -3.62665,4.88911 h -1.0573 z m -265.811161,0.5705 3.239595,4.36408 h -2.907316 c -0.03247,-0.43015 -0.162172,-2.15257 -0.332279,-4.36408 z m 44.551802,0 3.239596,4.36408 h -2.907316 c -0.03247,-0.43015 -0.162172,-2.15257 -0.33228,-4.36408 z m 44.551799,0 3.2396,4.36408 h -2.90732 c -0.0325,-0.43015 -0.16217,-2.15257 -0.33228,-4.36408 z m 44.55181,0 3.23959,4.36408 h -2.90731 c -0.0325,-0.43015 -0.16218,-2.15257 -0.33228,-4.36408 z m 44.5518,0 3.23959,4.36408 h -2.90731 c -0.0325,-0.43015 -0.16217,-2.15257 -0.33228,-4.36408 z m 44.5518,0 3.2396,4.36408 h -2.90732 c -0.0325,-0.43015 -0.16217,-2.15257 -0.33228,-4.36408 z m 44.5518,0 3.2396,4.36408 h -2.90732 c -0.0325,-0.43015 -0.16217,-2.15257 -0.33228,-4.36408 z m -268.845085,0.0233 c -0.126272,2.2078 -0.21935,3.9121 -0.242879,4.34082 h -2.979663 z m 44.551803,0 c -0.126272,2.2078 -0.21935,3.9121 -0.242879,4.34082 h -2.979663 z m 44.551802,0 c -0.12627,2.2078 -0.21935,3.9121 -0.24288,4.34082 h -2.979662 z m 44.5518,0 c -0.12627,2.2078 -0.21935,3.9121 -0.24288,4.34082 h -2.97966 z m 44.55181,0 c -0.12628,2.2078 -0.21935,3.9121 -0.24288,4.34082 H 188.666 Z m 44.5518,0 c -0.12627,2.2078 -0.21935,3.9121 -0.24288,4.34082 h -2.97966 z m 44.5518,0 c -0.12627,2.2078 -0.21935,3.9121 -0.24288,4.34082 h -2.97966 z" /></g></svg>
