<?xml version="1.0" encoding="UTF-8" standalone="no"?>
<!-- Created with Inkscape (http://www.inkscape.org/) -->

<svg
   width="1000"
   height="1000"
   viewBox="0 0 264.58333 264.58333"
   version="1.1"
   id="svg1"
   inkscape:version="1.3 (0e150ed, 2023-07-21)"
   sodipodi:docname="pointOnCircle-1.svg"
   xmlns:inkscape="http://www.inkscape.org/namespaces/inkscape"
   xmlns:sodipodi="http://sodipodi.sourceforge.net/DTD/sodipodi-0.dtd"
   xmlns="http://www.w3.org/2000/svg"
   xmlns:svg="http://www.w3.org/2000/svg">
  <sodipodi:namedview
     id="namedview1"
     pagecolor="#505050"
     bordercolor="#ffffff"
     borderopacity="1"
     inkscape:showpageshadow="0"
     inkscape:pageopacity="0"
     inkscape:pagecheckerboard="1"
     inkscape:deskcolor="#505050"
     inkscape:document-units="mm"
     inkscape:zoom="0.45968013"
     inkscape:cx="448.1377"
     inkscape:cy="367.64695"
     inkscape:current-layer="layer1" />
  <defs
     id="defs1">
    <rect
       x="829.56681"
       y="415.81063"
       width="170.43319"
       height="101.52505"
       id="rect3" />
    <rect
       x="829.56681"
       y="415.81063"
       width="170.43319"
       height="101.52505"
       id="rect4" />
    <rect
       x="829.56681"
       y="415.81063"
       width="170.43319"
       height="101.52505"
       id="rect5" />
    <rect
       x="829.56681"
       y="415.81063"
       width="170.43319"
       height="101.52505"
       id="rect6" />
    <rect
       x="829.56681"
       y="415.81063"
       width="170.43319"
       height="101.52505"
       id="rect7" />
  </defs>
  <g
     inkscape:label="Layer 1"
     inkscape:groupmode="layer"
     id="layer1">
    <path
       id="path1"
       style="fill:none;stroke:#f5f5f5;stroke-width:3.19604;stroke-linecap:round;stroke-linejoin:round;stroke-dasharray:none"
       d="M 223.40088,132.27515 A 91.129428,91.129428 0 0 1 132.27144,223.40459 91.129428,91.129428 0 0 1 41.142023,132.27515 91.129428,91.129428 0 0 1 132.27144,41.145733 91.129428,91.129428 0 0 1 223.40088,132.27515 Z" />
    <path
       style="fill:none;stroke:#f5f5f5;stroke-width:3.19604;stroke-linecap:round;stroke-linejoin:round;stroke-dasharray:none"
       d="M 132.33769,41.460616 V 71.729473"
       id="path2"
       sodipodi:nodetypes="cc"
       inkscape:transform-center-x="-0.32309447"
       inkscape:transform-center-y="-75.889487" />
    <path
       style="font-style:italic;font-weight:bold;font-size:40px;line-height:1.25;font-family:Monospace;-inkscape-font-specification:'Monospace Bold Italic';text-align:center;letter-spacing:0px;word-spacing:0px;text-anchor:middle;white-space:pre;fill:#55aaff"
       d="m 915.26172,436.65039 q 0.21484,-1.03516 1.05469,-1.73828 0.83984,-0.70313 1.85546,-0.70313 1.03516,0 1.60157,0.70313 0.5664,0.70312 0.35156,1.73828 -0.19531,1.01563 -1.05469,1.71875 -0.83984,0.70313 -1.875,0.70313 -1.01562,0 -1.58203,-0.6836 -0.56641,-0.70312 -0.35156,-1.73828 z m 4.47265,-10.25391 q -1.99218,0 -3.39843,2.44141 -1.40625,2.44141 -2.48047,7.8125 -1.07422,5.35156 -0.64453,7.79297 0.42968,2.44141 2.42187,2.44141 2.01172,0 3.41797,-2.44141 1.40625,-2.44141 2.48047,-7.79297 1.07422,-5.37109 0.64453,-7.8125 -0.42969,-2.44141 -2.44141,-2.44141 z m -11.67968,10.25391 q 1.52343,-7.57812 4.66797,-11.34766 3.16406,-3.78906 7.98828,-3.78906 4.84375,0 6.48437,3.76953 1.66016,3.76953 0.13672,11.36719 -1.52344,7.57813 -4.6875,11.34766 -3.14453,3.76953 -7.98828,3.76953 -4.82422,0 -6.46484,-3.76953 -1.64063,-3.78907 -0.13672,-11.34766 z"
       id="text3"
       transform="matrix(0.45140842,0,0,0.45140842,-180.96567,-64.828096)"
       aria-label="0" />
    <path
       style="font-style:italic;font-weight:bold;font-size:40px;line-height:1.25;font-family:Monospace;-inkscape-font-specification:'Monospace Bold Italic';text-align:center;letter-spacing:0px;word-spacing:0px;text-anchor:middle;white-space:pre;fill:#55aaff;stroke-width:0.451408"
       d="m 122.03397,242.5485 0.47609,-2.37166 q 0.61717,0.40556 1.21669,0.59953 0.59953,0.19396 1.19024,0.19396 1.40183,0 2.31876,-0.93455 0.92574,-0.94338 1.34893,-2.81249 -0.529,0.57308 -1.23432,0.86402 -0.69651,0.28213 -1.57817,0.28213 -1.77213,0 -2.52154,-1.1197 -0.74059,-1.12852 -0.32621,-3.1916 0.44083,-2.20414 1.76332,-3.41201 1.32248,-1.20787 3.30621,-1.20787 2.40693,0 3.17397,1.61343 0.76704,1.60461 0.0529,5.19296 -0.67887,3.41201 -2.35402,5.12243 -1.67515,1.7016 -4.33775,1.7016 -0.61716,0 -1.25195,-0.13225 -0.62598,-0.13225 -1.24314,-0.38793 z m 4.6816,-6.35675 q 0.83757,0 1.40183,-0.60834 0.57308,-0.61716 0.80231,-1.78095 0.23805,-1.15497 -0.0882,-1.76331 -0.32621,-0.61716 -1.16378,-0.61716 -0.84639,0 -1.41947,0.61716 -0.57308,0.60834 -0.81113,1.76331 -0.22923,1.15497 0.097,1.77213 0.33503,0.61716 1.18142,0.61716 z m 10.01562,-0.0353 q 0.097,-0.46728 0.4761,-0.78468 0.37911,-0.3174 0.83757,-0.3174 0.46728,0 0.72296,0.3174 0.25568,0.3174 0.1587,0.78468 -0.0882,0.45846 -0.4761,0.77586 -0.37911,0.31739 -0.84639,0.31739 -0.45846,0 -0.71414,-0.30858 -0.25568,-0.31739 -0.1587,-0.78467 z m 2.019,-4.6287 q -0.89929,0 -1.53409,1.10207 -0.63479,1.10207 -1.1197,3.52663 -0.48491,2.41574 -0.29095,3.51781 0.19397,1.10207 1.09326,1.10207 0.90811,0 1.5429,-1.10207 0.63479,-1.10207 1.1197,-3.51781 0.48491,-2.42456 0.29095,-3.52663 -0.19397,-1.10207 -1.10207,-1.10207 z m -5.27231,4.6287 q 0.68769,-3.42083 2.10716,-5.12243 1.42828,-1.71041 3.60597,-1.71041 2.18651,0 2.92711,1.70159 0.7494,1.7016 0.0617,5.13125 -0.68769,3.42083 -2.11597,5.12243 -1.41947,1.70159 -3.60598,1.70159 -2.17769,0 -2.91829,-1.70159 -0.74059,-1.71042 -0.0617,-5.12243 z"
       id="text4"
       aria-label="90" />
    <path
       style="font-style:italic;font-weight:bold;font-size:40px;line-height:1.25;font-family:Monospace;-inkscape-font-specification:'Monospace Bold Italic';text-align:center;letter-spacing:0px;word-spacing:0px;text-anchor:middle;white-space:pre;fill:#55aaff;stroke-width:0.451408"
       d="m 119.46394,32.402061 h 5.54563 l -0.45846,2.292306 H 116.193 l 0.44083,-2.221774 1.71041,-1.49882 q 3.05054,-2.671417 3.71178,-3.288578 0.81112,-0.758226 1.21668,-1.340119 0.41438,-0.590713 0.529,-1.163789 0.17633,-0.881655 -0.2645,-1.357751 -0.43201,-0.484912 -1.41065,-0.484912 -0.69651,0 -1.62225,0.28213 -0.92574,0.273314 -1.97491,0.802311 l 0.48491,-2.42456 q 1.01391,-0.343847 1.94846,-0.520176 0.94338,-0.18515 1.77214,-0.18515 2.08952,0 3.08579,0.97864 1.00509,0.969824 0.67006,2.65379 -0.15869,0.775858 -0.55544,1.454731 -0.39675,0.678878 -1.19906,1.507637 -0.58189,0.599524 -3.10343,2.697869 -1.36656,1.137337 -2.16888,1.816215 z M 129.87632,21.53123 h 8.32284 l -0.3703,1.842662 -6.72704,11.320475 h -2.65379 l 6.46255,-10.870831 h -5.49273 z m 12.69586,6.594792 q 0.097,-0.46728 0.47609,-0.784674 0.37911,-0.317399 0.83758,-0.317399 0.46727,0 0.72296,0.317399 0.25567,0.317394 0.15869,0.784674 -0.0882,0.458464 -0.47609,0.775859 -0.37911,0.317398 -0.84639,0.317398 -0.45846,0 -0.71414,-0.308582 -0.25568,-0.317395 -0.1587,-0.784675 z m 2.01899,-4.628701 q -0.89929,0 -1.53408,1.102073 -0.63479,1.102073 -1.11971,3.526628 -0.48491,2.41574 -0.29094,3.517813 0.19396,1.102073 1.09325,1.102073 0.90811,0 1.5429,-1.102073 0.63479,-1.102073 1.11971,-3.517813 0.48491,-2.424555 0.29094,-3.526628 -0.19396,-1.102073 -1.10207,-1.102073 z m -5.27231,4.628701 q 0.6877,-3.420827 2.10716,-5.122429 1.42829,-1.710414 3.60598,-1.710414 2.18651,0 2.9271,1.701598 0.74941,1.701598 0.0617,5.131245 -0.6877,3.420832 -2.11598,5.12243 -1.41947,1.701597 -3.60598,1.701597 -2.17769,0 -2.91828,-1.701597 -0.74059,-1.710419 -0.0617,-5.12243 z"
       id="text5"
       aria-label="270" />
    <path
       style="font-style:italic;font-weight:bold;font-size:40px;line-height:1.25;font-family:Monospace;-inkscape-font-specification:'Monospace Bold Italic';text-align:center;letter-spacing:0px;word-spacing:0px;text-anchor:middle;white-space:pre;fill:#55aaff"
       d="m 883.34766,446.12305 h 6.44531 l 3.78906,-18.92578 -6.28906,1.48437 1.03515,-5.19531 6.32813,-1.44531 h 5.56641 l -4.82422,24.08203 h 6.44531 l -1.01563,5.07812 h -18.49609 z m 34.02343,-7.92969 q -1.93359,0 -3.3789,1.23047 -1.42578,1.21094 -1.81641,3.22265 -0.41016,2.01172 0.52734,3.24219 0.95704,1.23047 2.89063,1.23047 1.93359,0 3.37891,-1.25 1.44531,-1.25 1.85546,-3.22266 0.39063,-2.01171 -0.5664,-3.22265 -0.9375,-1.23047 -2.89063,-1.23047 z m -3.78906,-2.44141 q -2.05078,-0.76172 -2.89062,-2.38281 -0.82032,-1.64062 -0.33204,-4.00391 0.72266,-3.63281 3.4961,-5.74218 2.79297,-2.10938 6.85547,-2.10938 4.08203,0 6.01562,2.10938 1.95313,2.10937 1.23047,5.74218 -0.46875,2.34375 -1.93359,3.98438 -1.46485,1.62109 -3.78907,2.40234 2.28516,0.74219 3.26172,2.65625 0.97657,1.91407 0.44922,4.58985 -0.83984,4.19922 -3.78906,6.48437 -2.92969,2.28516 -7.5,2.28516 -4.55078,0 -6.58203,-2.28516 -2.01172,-2.28515 -1.17188,-6.48437 0.54688,-2.69532 2.30469,-4.60938 1.77734,-1.91406 4.375,-2.63672 z m 1.79688,-5.91797 q -0.35157,1.71875 0.42968,2.73438 0.80078,0.99609 2.5,0.99609 1.71875,0 2.89063,-0.99609 1.1914,-1.01563 1.54297,-2.73438 0.33203,-1.69921 -0.46875,-2.67578 -0.78125,-0.99609 -2.5,-0.99609 -1.67969,0 -2.8711,0.99609 -1.1914,0.9961 -1.52343,2.67578 z m 23.96484,6.81641 q 0.21484,-1.03516 1.05469,-1.73828 0.83984,-0.70313 1.85547,-0.70313 1.03515,0 1.60156,0.70313 0.5664,0.70312 0.35156,1.73828 -0.19531,1.01563 -1.05469,1.71875 -0.83984,0.70313 -1.875,0.70313 -1.01562,0 -1.58203,-0.6836 -0.5664,-0.70312 -0.35156,-1.73828 z m 4.47266,-10.25391 q -1.99219,0 -3.39844,2.44141 -1.40625,2.44141 -2.48047,7.8125 -1.07422,5.35156 -0.64453,7.79297 0.42969,2.44141 2.42187,2.44141 2.01172,0 3.41797,-2.44141 1.40625,-2.44141 2.48047,-7.79297 1.07422,-5.37109 0.64453,-7.8125 -0.42969,-2.44141 -2.4414,-2.44141 z m -11.67969,10.25391 q 1.52344,-7.57812 4.66797,-11.34766 3.16406,-3.78906 7.98828,-3.78906 4.84375,0 6.48437,3.76953 1.66016,3.76953 0.13672,11.36719 -1.52344,7.57813 -4.6875,11.34766 -3.14453,3.76953 -7.98828,3.76953 -4.82422,0 -6.46484,-3.76953 -1.64063,-3.78907 -0.13672,-11.34766 z"
       id="text6"
       transform="matrix(0.45140842,0,0,0.45140842,-393.50457,-64.828096)"
       aria-label="180" />
    <circle
       style="fill:#f5f5f5;fill-opacity:1;stroke:none;stroke-width:0.926679;stroke-linecap:round;stroke-linejoin:round"
       id="path13"
       cx="132.27145"
       cy="132.27516"
       r="3.1062" />
    <path
       style="fill:none;stroke:#f5f5f5;stroke-width:3.19604;stroke-linecap:round;stroke-linejoin:round;stroke-dasharray:none"
       d="M 223.09824,132.22117 H 192.82937"
       id="path14"
       sodipodi:nodetypes="cc"
       inkscape:transform-center-x="-75.889487"
       inkscape:transform-center-y="0.3230879" />
    <path
       style="fill:none;stroke:#f5f5f5;stroke-width:3.19604;stroke-linecap:round;stroke-linejoin:round;stroke-dasharray:none"
       d="M 132.33769,222.98173 V 192.71287"
       id="path15"
       sodipodi:nodetypes="cc"
       inkscape:transform-center-x="0.32308867"
       inkscape:transform-center-y="75.889487" />
    <path
       style="fill:none;stroke:#f5f5f5;stroke-width:3.19604;stroke-linecap:round;stroke-linejoin:round;stroke-dasharray:none"
       d="M 41.577129,132.22117 H 71.845986"
       id="path16"
       sodipodi:nodetypes="cc"
       inkscape:transform-center-x="75.889491"
       inkscape:transform-center-y="-0.3230947" />
  </g>
</svg>
