<?xml version="1.0" encoding="UTF-8" standalone="no"?>
<!-- Created with Inkscape (http://www.inkscape.org/) -->

<svg
   xmlns:dc="http://purl.org/dc/elements/1.1/"
   xmlns:cc="http://creativecommons.org/ns#"
   xmlns:rdf="http://www.w3.org/1999/02/22-rdf-syntax-ns#"
   xmlns:svg="http://www.w3.org/2000/svg"
   xmlns="http://www.w3.org/2000/svg"
   xmlns:sodipodi="http://sodipodi.sourceforge.net/DTD/sodipodi-0.dtd"
   xmlns:inkscape="http://www.inkscape.org/namespaces/inkscape"
   width="231.72917mm"
   height="85.723663mm"
   viewBox="0 0 231.72917 85.723663"
   version="1.1"
   id="svg8"
   inkscape:version="0.92.4 (5da689c313, 2019-01-14)"
   sodipodi:docname="Maple_Seed-top.svg">
  <defs
     id="defs2" />
  <sodipodi:namedview
     id="base"
     pagecolor="#ffffff"
     bordercolor="#666666"
     borderopacity="1.0"
     inkscape:pageopacity="0.0"
     inkscape:pageshadow="2"
     inkscape:zoom="0.7"
     inkscape:cx="495.86551"
     inkscape:cy="69.52337"
     inkscape:document-units="mm"
     inkscape:current-layer="layer1"
     showgrid="false"
     fit-margin-top="0"
     fit-margin-left="0"
     fit-margin-right="0"
     fit-margin-bottom="0"
     inkscape:pagecheckerboard="true"
     inkscape:window-width="1600"
     inkscape:window-height="837"
     inkscape:window-x="-8"
     inkscape:window-y="-8"
     inkscape:window-maximized="1" />
  <metadata
     id="metadata5">
    <rdf:RDF>
      <cc:Work
         rdf:about="">
        <dc:format>image/svg+xml</dc:format>
        <dc:type
           rdf:resource="http://purl.org/dc/dcmitype/StillImage" />
        <dc:title></dc:title>
      </cc:Work>
    </rdf:RDF>
  </metadata>
  <g
     inkscape:label="Layer 1"
     inkscape:groupmode="layer"
     id="layer1"
     transform="translate(12.437143,-72.703816)">
    <path
       style="fill:#555555;fill-opacity:1;stroke-width:0.35277778"
       d="m -12.417443,149.35388 c 0.08399,-0.43401 1.162318,-2.26817 2.396302,-4.0759 1.233984,-1.80774 2.4853437,-3.71732 2.7808002,-4.24352 1.7325945,-3.08571 5.8301833,-8.49557 8.8957666,-11.74469 4.4795932,-4.74777 7.0107761,-6.44471 15.8447562,-10.62251 3.986573,-1.88535 8.179751,-4.00055 9.318174,-4.70044 3.542084,-2.17766 8.381376,-4.112 13.496398,-5.3947 6.7254,-1.68655 15.647125,-5.30868 28.15958,-11.432506 10.691907,-5.232817 36.168446,-15.662151 45.635146,-18.681665 9.76018,-3.11312 21.64055,-5.547407 27.93488,-5.723856 10.70828,-0.300187 25.0193,1.663152 32.78913,4.49837 9.64166,3.518252 19.02309,9.2003 25.00442,15.144427 5.34229,5.309052 13.60782,16.41388 15.42874,20.72867 4.27594,10.1321 4.81314,13.75949 3.15855,21.3279 -1.02223,4.67589 -1.11397,4.90658 -2.77356,6.97452 l -1.71639,2.13864 -4.00213,1.16846 c -2.94528,0.85991 -4.57874,1.57303 -6.18568,2.7005 -1.20094,0.84263 -2.61779,1.79279 -3.14854,2.1115 -0.53075,0.31869 -1.69568,1.26501 -2.58875,2.10292 -0.89306,0.83791 -2.2669,1.92756 -3.05298,2.42145 -0.78608,0.49388 -1.6201,1.13276 -1.85337,1.41973 -0.23327,0.28698 -0.57693,0.50196 -0.76369,0.47774 -0.18676,-0.0242 -1.43351,0.44262 -2.77055,1.03741 -3.74031,1.6639 -7.58177,1.87236 -12.92152,0.70118 -5.17674,-1.13542 -7.6641,-1.16099 -10.03766,-0.10321 -2.39679,1.06813 -5.52621,0.96263 -9.2938,-0.31335 -2.61312,-0.885 -4.13978,-1.10782 -7.92493,-1.15674 -3.14554,-0.0406 -4.49512,-0.25623 -8.85222,-1.41418 -1.54218,-0.40985 -4.89614,-0.93372 -7.45324,-1.16418 -5.56955,-0.50195 -9.05831,-1.2796 -19.24277,-4.28927 -19.256994,-5.69076 -21.535873,-6.23609 -28.220184,-6.75305 -9.011372,-0.69694 -18.826273,1.5811 -36.842349,8.55116 -8.067526,3.12116 -20.271691,6.40191 -25.783471,6.93117 -1.889495,0.18144 -9.688517,0.0772 -15.9186662,-0.21281 -1.3472566,-0.0627 -3.5152103,0.0884 -4.8176747,0.33581 -2.35279008,0.44693 -2.3751576,0.44217 -3.4554509,-0.73316 -3.2285763,-3.51268 -3.7519739,-3.88816 -6.5192689,-4.67688 -3.1627463,-0.90144 -4.9320073,-2.15582 -4.7038363,-3.33497 z"
       id="path1606"
       inkscape:connector-curvature="0" />
  </g>
</svg>
