<?xml version="1.0" encoding="UTF-8" standalone="no"?>
<!-- Created with Inkscape (http://www.inkscape.org/) -->

<svg
   width="232.12794mm"
   height="51.047535mm"
   viewBox="0 0 232.12794 51.047535"
   version="1.1"
   id="svg1"
   xml:space="preserve"
   inkscape:version="1.3 (0e150ed, 2023-07-21)"
   sodipodi:docname="40ft_Intermodal_Container-side.svg"
   xmlns:inkscape="http://www.inkscape.org/namespaces/inkscape"
   xmlns:sodipodi="http://sodipodi.sourceforge.net/DTD/sodipodi-0.dtd"
   xmlns="http://www.w3.org/2000/svg"
   xmlns:svg="http://www.w3.org/2000/svg"><sodipodi:namedview
     id="namedview1"
     pagecolor="#505050"
     bordercolor="#ffffff"
     borderopacity="1"
     inkscape:showpageshadow="0"
     inkscape:pageopacity="0"
     inkscape:pagecheckerboard="1"
     inkscape:deskcolor="#505050"
     inkscape:document-units="mm"
     inkscape:zoom="0.32504294"
     inkscape:cx="886.03678"
     inkscape:cy="206.12661"
     inkscape:current-layer="layer1" /><defs
     id="defs1" /><g
     inkscape:label="Layer 1"
     inkscape:groupmode="layer"
     id="layer1"
     transform="translate(-22.492684,-64.567635)"><path
       id="rect1"
       style="fill:#555555;stroke-width:0.3;stroke-linecap:round;stroke-linejoin:round"
       d="m 22.492684,64.567635 v 51.047535 h 3.863847 V 115.1785 H 250.75679 v 0.43667 h 3.86384 V 64.567635 h -3.86384 v 1.177189 h -4.07159 l -0.15038,-0.561206 h -2.42207 l -0.15038,0.561206 h -1.36684 l -0.15038,-0.561206 h -2.42207 l -0.15038,0.561206 h -1.36684 l -0.15038,-0.561206 h -2.42208 l -0.14986,0.561206 h -1.36736 l -0.15038,-0.561206 h -2.42207 l -0.14986,0.561206 h -1.36684 l -0.15038,-0.561206 h -2.42259 l -0.14986,0.561206 h -1.36685 l -0.15037,-0.561206 h -2.42208 l -0.15038,0.561206 h -1.36684 l -0.15038,-0.561206 h -2.42207 l -0.15038,0.561206 h -1.36684 l -0.15038,-0.561206 h -2.42207 l -0.15038,0.561206 h -1.36685 l -0.15037,-0.561206 h -2.42208 l -0.14986,0.561206 h -1.36736 l -0.15038,-0.561206 h -2.42207 l -0.14986,0.561206 h -1.36684 l -0.15038,-0.561206 h -2.42208 l -0.15038,0.561206 h -1.36684 l -0.15038,-0.561206 h -2.42207 l -0.15038,0.561206 h -1.36684 l -0.15038,-0.561206 h -2.42207 l -0.15038,0.561206 h -1.36684 l -0.15038,-0.561206 h -2.42208 l -0.15037,0.561206 h -1.36685 l -0.15037,-0.561206 h -2.42208 l -0.14986,0.561206 h -1.36684 l -0.15038,-0.561206 h -2.42259 l -0.14986,0.561206 h -1.36684 l -0.15038,-0.561206 h -2.42208 l -0.15038,0.561206 h -1.36684 l -0.15038,-0.561206 h -2.42207 l -0.15038,0.561206 h -1.36684 l -0.15038,-0.561206 h -2.42207 l -0.15038,0.561206 h -1.36684 l -0.15038,-0.561206 h -2.42208 l -0.14986,0.561206 h -1.36736 l -0.15037,-0.561206 h -2.42208 l -0.14986,0.561206 h -1.36684 l -0.15038,-0.561206 h -2.42259 l -0.14986,0.561206 h -1.36684 l -0.15038,-0.561206 h -2.42208 l -0.15038,0.561206 h -1.36684 l -0.15038,-0.561206 h -2.42207 l -0.15038,0.561206 h -1.36684 l -0.15038,-0.561206 h -2.42207 l -0.15038,0.561206 h -1.36684 l -0.15038,-0.561206 h -2.42208 l -0.14986,0.561206 h -1.36736 l -0.15037,-0.561206 h -2.42208 l -0.14986,0.561206 h -1.36684 l -0.15038,-0.561206 h -2.42207 l -0.15038,0.561206 h -1.36685 l -0.15037,-0.561206 h -2.42208 l -0.15038,0.561206 h -1.36684 l -0.15038,-0.561206 h -2.42207 l -0.15038,0.561206 h -1.36684 l -0.15038,-0.561206 h -2.42207 l -0.15038,0.561206 h -1.36684 l -0.15038,-0.561206 h -2.42208 l -0.14986,0.561206 h -1.36684 l -0.15038,-0.561206 h -2.42259 l -0.14986,0.561206 h -1.36684 l -0.15038,-0.561206 h -2.42208 l -0.15037,0.561206 h -1.36685 l -0.15037,-0.561206 h -2.42208 l -0.15038,0.561206 h -1.36684 l -0.15038,-0.561206 h -2.42207 l -0.15038,0.561206 h -1.366841 l -0.150378,-0.561206 h -2.422075 l -0.149862,0.561206 h -1.367358 l -0.150378,-0.561206 h -2.422075 l -0.149861,0.561206 H 91.28125 L 91.130872,65.183618 H 88.70828 l -0.149861,0.561206 h -1.366842 l -0.150378,-0.561206 h -2.422075 l -0.150378,0.561206 h -1.366842 l -0.150378,-0.561206 h -2.422075 l -0.150378,0.561206 H 79.012231 L 78.861853,65.183618 H 76.439779 L 76.2894,65.744824 H 74.922559 L 74.77218,65.183618 h -2.422074 l -0.149862,0.561206 h -1.367358 l -0.150379,-0.561206 h -2.422074 l -0.149862,0.561206 H 66.74373 l -0.150379,-0.561206 h -2.422074 l -0.150379,0.561206 h -1.366841 l -0.150379,-0.561206 h -2.422074 l -0.150378,0.561206 h -1.366842 l -0.150378,-0.561206 h -2.422075 l -0.150378,0.561206 H 54.474711 L 54.324333,65.183618 H 51.902258 L 51.75188,65.744824 H 50.385038 L 50.23466,65.183618 h -2.422075 l -0.149861,0.561206 h -1.366842 l -0.150378,-0.561206 h -2.422591 l -0.149862,0.561206 h -1.366842 l -0.150378,-0.561206 h -2.422074 l -0.150379,0.561206 h -1.366842 l -0.150378,-0.561206 h -2.422074 l -0.150379,0.561206 h -1.366841 l -0.150379,-0.561206 h -2.422074 l -0.150379,0.561206 h -4.947501 v -1.177189 z" /></g></svg>
