<?xml version="1.0" encoding="UTF-8" standalone="no"?>
<!-- Created with Inkscape (http://www.inkscape.org/) -->

<svg
   width="129.17554mm"
   height="53.316063mm"
   viewBox="0 0 129.17554 53.316063"
   version="1.1"
   id="svg1"
   xml:space="preserve"
   inkscape:version="1.3 (0e150ed, 2023-07-21)"
   sodipodi:docname="Tardigrade_Water_Bear-side.svg"
   xmlns:inkscape="http://www.inkscape.org/namespaces/inkscape"
   xmlns:sodipodi="http://sodipodi.sourceforge.net/DTD/sodipodi-0.dtd"
   xmlns="http://www.w3.org/2000/svg"
   xmlns:svg="http://www.w3.org/2000/svg"><sodipodi:namedview
     id="namedview1"
     pagecolor="#505050"
     bordercolor="#ffffff"
     borderopacity="1"
     inkscape:showpageshadow="0"
     inkscape:pageopacity="0"
     inkscape:pagecheckerboard="1"
     inkscape:deskcolor="#505050"
     inkscape:document-units="mm"
     inkscape:zoom="0.65008588"
     inkscape:cx="204.58835"
     inkscape:cy="170.74667"
     inkscape:current-layer="layer1" /><defs
     id="defs1" /><g
     inkscape:label="Layer 1"
     inkscape:groupmode="layer"
     id="layer1"
     transform="translate(-56.980469,-124.75043)"><path
       style="fill:#555555;stroke-width:2.065;stroke-linecap:round;stroke-linejoin:round"
       d="m 58.439705,156.36445 c 0.37895,-0.93731 -2.39455,-3.81199 -1.12329,-8.18615 1.27125,-4.37418 6.84889,-7.16331 9.05682,-9.96125 2.20793,-2.79795 4.96319,-2.60119 7.93516,-4.53182 2.97197,-1.93063 6.41911,-1.93867 9.11403,-2.94068 2.69493,-1.00202 4.8049,-3.06442 10.8347,-3.08025 6.029795,-0.0158 6.128915,-1.31806 10.061985,-2.01585 3.93306,-0.69779 5.15162,0.6759 9.11416,-0.30269 3.96254,-0.9786 8.47527,-0.66165 12.38267,0.30452 3.9074,0.96618 5.9462,-0.91683 9.61248,0.18531 3.66628,1.10214 8.44085,-0.36349 13.62357,2.05273 5.18271,2.41622 5.84682,2.91872 12.48584,4.15898 6.63902,1.24026 4.90981,3.79174 10.04472,5.41039 5.13491,1.61864 8.87171,7.61749 10.24814,10.22867 1.37643,2.61118 3.22593,2.97408 3.97707,6.49056 0.75113,3.51647 0.0733,5.77601 -0.0592,8.80801 -0.13243,3.03201 -2.16778,3.06287 -2.31393,4.03048 -0.14615,0.96762 1.2189,3.40624 -0.0981,3.13162 -1.31702,-0.27462 -2.20695,-1.05268 -3.54803,-1.25618 -1.34108,-0.20349 -3.5306,-1.10086 -3.74384,-2.54577 -0.21325,-1.44491 -2.51553,0.23721 -4.62786,-2.06847 -2.11233,-2.30567 -1.40677,-1.28824 -3.96494,-1.31713 -2.55817,-0.0289 -5.47061,-2.02323 -6.23732,-2.09239 -0.76671,-0.0692 -4.1482,1.06817 -6.88174,0.2116 -2.73355,-0.85658 -2.77212,-1.75056 -4.51061,-0.36097 -1.73849,1.38959 -0.5545,3.85429 -2.23811,5.37614 -1.68362,1.52185 -2.22621,2.77264 -2.71642,3.92704 -0.4902,1.15441 -1.00049,2.14413 -1.16016,3.94255 -0.15967,1.79841 -0.80792,3.98982 -3.13341,4.09157 -2.3255,0.10175 -2.84072,-0.42733 -1.16317,-3.4527 1.67755,-3.02536 0.0895,-2.47935 -1.08873,-3.70556 -1.17827,-1.2262 -2.57863,-5.73693 -1.76868,-6.91836 0.80994,-1.18143 0.46606,-2.84755 -0.16735,-3.10529 -0.63341,-0.25775 -5.34945,0.20952 -6.43515,-0.36569 -1.08571,-0.57522 -6.13333,1.11047 -7.2615,1.91109 -1.12818,0.80064 -1.90778,4.08437 -3.5179,5.39298 -1.61012,1.30861 -0.35678,2.81541 -2.24059,3.69989 -1.88381,0.88448 -1.5237,2.90737 -3.26965,1.91274 -1.74594,-0.99463 -1.53349,-2.23217 -2.42628,-0.29466 -0.89278,1.93752 -2.47826,2.27679 -1.76053,-0.0479 0.71772,-2.32466 2.16133,-2.44702 1.13133,-3.27352 -1.02999,-0.82649 -2.58919,-2.66467 -2.00524,-4.90763 0.58395,-2.24295 1.09079,-4.04426 -0.15216,-3.97459 -1.24294,0.0697 -3.55032,-0.69992 -4.55451,-0.80167 -1.00419,-0.10175 -4.278655,1.27147 -6.578955,1.4655 -2.30029,0.19403 -2.64638,0.83686 -4.01308,2.58932 -1.36671,1.75245 -2.67337,3.00049 -2.81337,4.0852 -0.13999,1.0847 -1.52431,1.02504 -1.37274,2.26085 0.15158,1.23581 -1.81683,3.26438 -2.47264,1.48441 -0.6558,-1.77997 -1.95968,-1.29599 -3.03895,-2.72313 -1.07927,-1.42715 -2.2882,-5.85397 -1.92558,-7.54184 0.36261,-1.68788 -3.58232,-1.55561 -5.14733,-0.96838 -1.565,0.58723 -7.02151,1.21467 -9.9032,0.56275 -2.88169,-0.65192 -2.90629,-1.29066 -3.97196,-0.14296 -1.06568,1.1477 -1.78196,2.22205 -3.8975,0.43671 -2.31933,-1.65633 -1.25939,-2.94206 -0.31897,-5.26813 z"
       id="path1"
       sodipodi:nodetypes="sssssssssssssssssssssscsssssssssssssssssssssssssssssssss" /></g></svg>
