<?xml version="1.0" encoding="UTF-8" standalone="no"?>
<!-- Created with Inkscape (http://www.inkscape.org/) -->

<svg
   width="59.669083mm"
   height="82.421509mm"
   viewBox="0 0 59.669083 82.421509"
   version="1.1"
   id="svg1"
   xml:space="preserve"
   inkscape:version="1.3 (0e150ed, 2023-07-21)"
   sodipodi:docname="V236-15.0MW_Wind_Turbine-front.svg"
   xmlns:inkscape="http://www.inkscape.org/namespaces/inkscape"
   xmlns:sodipodi="http://sodipodi.sourceforge.net/DTD/sodipodi-0.dtd"
   xmlns="http://www.w3.org/2000/svg"
   xmlns:svg="http://www.w3.org/2000/svg"><sodipodi:namedview
     id="namedview1"
     pagecolor="#505050"
     bordercolor="#ffffff"
     borderopacity="1"
     inkscape:showpageshadow="0"
     inkscape:pageopacity="0"
     inkscape:pagecheckerboard="1"
     inkscape:deskcolor="#505050"
     inkscape:document-units="mm"
     inkscape:zoom="1.3001718"
     inkscape:cx="38.456457"
     inkscape:cy="154.59496"
     inkscape:current-layer="layer1" /><defs
     id="defs1" /><g
     inkscape:label="Layer 1"
     inkscape:groupmode="layer"
     id="layer1"
     transform="translate(-71.260665,-115.70566)"><path
       style="fill:#555555;fill-opacity:1;stroke-width:4.99999;stroke-linecap:round;stroke-linejoin:round"
       d="m 105.42972,198.12097 v -9.66893 h 0.88951 v -0.97851 h -0.98521 l -0.0873,-36.34419 c 7.92642,6.42505 7.70535,5.95644 15.00752,12.26437 10.1453,8.76396 15.71895,13.40015 4.44214,2.73784 -9.34134,-8.83232 -11.95961,-13.16252 -18.72883,-16.44261 -0.16052,-1.7251 -0.14771,-1.26096 -0.19055,-1.57261 -0.0428,-0.31165 -0.0182,-1.46409 -0.0182,-1.46409 h -0.26408 c 1.17126,-4.84454 2.11664,-13.04605 4.109,-22.54057 1.99236,-9.49453 2.61934,-13.28757 -1.20884,1.29143 -3.82819,14.57901 -4.48016,14.49492 -4.58096,21.1581 h -1.1205 v 2.51234 c -14.389869,4.91096 -12.902701,5.07094 -21.459381,7.86758 -8.581028,2.8046 -15.631118,5.70012 -3.431618,1.89954 17.687936,-5.51041 18.481366,-3.7284 25.254369,-8.2757 0.2051,0.14548 0.14203,0.11372 0.14203,0.11372 l -0.65171,36.65939 h -2.48561 v 1.07958 l 2.17866,0.36758 h 0.2813 v 9.34194 z"
       id="path1"
       sodipodi:nodetypes="ccccccssccccsscccssccccccccc" /></g></svg>
