<?xml version="1.0" encoding="UTF-8" standalone="no"?>
<!-- Created with Inkscape (http://www.inkscape.org/) -->

<svg
   xmlns:dc="http://purl.org/dc/elements/1.1/"
   xmlns:cc="http://creativecommons.org/ns#"
   xmlns:rdf="http://www.w3.org/1999/02/22-rdf-syntax-ns#"
   xmlns:svg="http://www.w3.org/2000/svg"
   xmlns="http://www.w3.org/2000/svg"
   xmlns:sodipodi="http://sodipodi.sourceforge.net/DTD/sodipodi-0.dtd"
   xmlns:inkscape="http://www.inkscape.org/namespaces/inkscape"
   width="105.23239mm"
   height="114.95705mm"
   viewBox="0 0 105.23239 114.95705"
   version="1.1"
   id="svg8"
   inkscape:version="0.92.4 (5da689c313, 2019-01-14)"
   sodipodi:docname="Maple_Leaf_Generic-top.svg">
  <defs
     id="defs2" />
  <sodipodi:namedview
     id="base"
     pagecolor="#ffffff"
     bordercolor="#666666"
     borderopacity="1.0"
     inkscape:pageopacity="0.0"
     inkscape:pageshadow="2"
     inkscape:zoom="0.98994949"
     inkscape:cx="192.69259"
     inkscape:cy="218.07178"
     inkscape:document-units="mm"
     inkscape:current-layer="layer1"
     showgrid="false"
     fit-margin-top="0"
     fit-margin-left="0"
     fit-margin-right="0"
     fit-margin-bottom="0"
     inkscape:window-width="1366"
     inkscape:window-height="713"
     inkscape:window-x="0"
     inkscape:window-y="0"
     inkscape:window-maximized="1" />
  <metadata
     id="metadata5">
    <rdf:RDF>
      <cc:Work
         rdf:about="">
        <dc:format>image/svg+xml</dc:format>
        <dc:type
           rdf:resource="http://purl.org/dc/dcmitype/StillImage" />
        <dc:title></dc:title>
      </cc:Work>
    </rdf:RDF>
  </metadata>
  <g
     inkscape:label="Layer 1"
     inkscape:groupmode="layer"
     id="layer1"
     transform="translate(-39.321396,-85.414667)">
    <path
       style="fill:#ffffff;fill-opacity:1;stroke:none;stroke-width:0.08466666"
       d="m 144.42948,148.51147 c -0.33279,0.61333 -1.04026,0.34622 -2.22224,-0.83902 -0.96748,-0.97014 -1.05617,-1.02886 -1.95871,-1.29691 -0.34676,-0.10298 -1.31831,-0.43374 -2.159,-0.73502 -1.90494,-0.68268 -2.95519,-0.95533 -4.99985,-1.29801 -0.88477,-0.14829 -2.35162,-0.45431 -3.25967,-0.68007 -2.10008,-0.5221 -3.01239,-0.69001 -3.57402,-0.65776 -0.67802,0.0389 -0.64438,0.19903 0.25941,1.23426 0.79097,0.90602 1.00449,1.2663 1.24398,2.099 0.22493,0.78213 0.31752,0.90517 1.11343,1.47965 1.10347,0.79646 2.37911,1.83468 2.88337,2.34669 0.51123,0.5191 0.5576,0.75058 0.22863,1.14153 -0.27833,0.33078 -0.23944,0.51543 0.35004,1.66179 0.50723,0.98643 0.73885,1.84576 0.74852,2.77711 0.005,0.48915 -0.028,0.65353 -0.17053,0.84667 -0.28647,0.38826 -0.80919,0.62059 -1.7919,0.79642 -1.16511,0.20847 -1.33192,0.28087 -1.50955,0.65518 -0.23331,0.49169 -0.20814,4.92688 0.0448,7.88973 0.10535,1.23402 0.19707,2.70939 0.20386,3.27862 0.012,1.0093 0.007,1.04041 -0.20793,1.25548 -0.20846,0.20874 -0.24016,0.2152 -0.59266,0.12079 -0.20484,-0.0549 -0.71285,-0.27016 -1.12892,-0.47843 -1.18247,-0.59191 -1.52951,-0.50608 -1.52951,0.37828 0,0.44044 0.0407,0.54812 0.44575,1.17956 0.47062,0.73366 0.4859,0.79153 0.5659,2.14298 0.0235,0.39762 0.12116,1.25487 0.21693,1.905 0.0958,0.65013 0.17725,1.57665 0.18106,2.05893 0.008,0.99159 -0.0839,1.20915 -0.6178,1.4657 -0.54296,0.2609 -0.63654,0.5513 -0.45605,1.41526 0.27649,1.32349 0.2424,2.36081 -0.12553,3.81983 -0.0881,0.34925 -0.258,1.09914 -0.37762,1.66642 -0.25258,1.19786 -0.33636,1.42067 -0.90935,2.41806 -0.41351,0.71978 -0.42698,0.76473 -0.48988,1.63407 -0.0356,0.49166 -0.0857,0.91492 -0.11131,0.94057 -0.0431,0.0431 -0.12844,-0.22196 -0.27686,-0.85945 -0.0325,-0.1397 -0.14596,-0.42787 -0.2521,-0.64036 -0.20789,-0.41623 -0.31797,-0.93891 -0.45989,-2.18346 -0.1,-0.87677 -0.23857,-1.21168 -0.75945,-1.83537 -0.4599,-0.55067 -0.89938,-1.49068 -1.40407,-3.00315 -0.53746,-1.61068 -0.66937,-1.84254 -1.23334,-2.16793 -0.25065,-0.14462 -0.57304,-0.37926 -0.71643,-0.52143 -0.42728,-0.42362 -0.79405,-1.78658 -1.13317,-4.21097 -0.0977,-0.6985 -0.23732,-1.59385 -0.31024,-1.98967 -0.24109,-1.30861 -0.89501,-3.84593 -1.09102,-4.23333 -0.65138,-1.28738 -1.94775,-1.64832 -3.25164,-0.90532 -0.96091,0.54756 -1.28297,1.02152 -1.70365,2.50719 -0.28985,1.02362 -0.29737,1.12247 -0.24854,3.26646 0.0252,1.1056 0,1.41796 -0.19556,2.413 -0.12347,0.62865 -0.34257,1.905 -0.4869,2.83634 -0.39038,2.51908 -0.39363,2.53284 -0.89091,3.77986 -0.25336,0.63536 -0.46115,1.20686 -0.46175,1.27 -0.002,0.20262 -0.31867,1.13539 -0.57446,1.69172 -0.13649,0.29686 -0.44768,0.80645 -0.69155,1.13242 -0.24385,0.32596 -0.61069,0.92472 -0.81518,1.33056 -0.20449,0.40584 -0.62217,1.048 -0.92816,1.42702 -0.306,0.37902 -0.63773,0.85659 -0.73717,1.06127 -0.0994,0.20468 -0.20661,0.37215 -0.23817,0.37215 -0.0316,0 -0.14166,-0.20003 -0.24469,-0.4445 -0.45512,-1.07996 -0.90724,-2.01311 -1.24698,-2.57373 -0.20173,-0.33287 -0.44965,-0.80912 -0.55093,-1.05833 -0.26718,-0.65741 -0.69977,-1.32035 -1.19783,-1.83566 -1.00499,-1.03978 -1.75631,-1.04296 -2.71129,-0.0115 -0.37812,0.4084 -0.51821,0.65493 -0.8245,1.45076 -0.58332,1.5157 -1.26923,2.46196 -3.589,4.95123 -1.17855,1.26467 -1.42472,1.48646 -1.57999,1.42355 -0.0623,-0.0253 -0.29185,-0.35947 -0.51002,-0.7427 -0.54138,-0.95095 -1.32093,-1.87099 -1.61438,-1.90532 -0.39805,-0.0466 -0.92695,0.27853 -1.94756,1.19713 -0.54741,0.49268 -1.25226,1.07666 -1.56634,1.29772 -0.31407,0.22106 -0.78764,0.56941 -1.05238,0.77412 -0.41911,0.32408 -0.53416,0.37179 -0.88996,0.36903 -0.27668,-0.002 -0.59371,-0.0898 -0.98177,-0.27136 -0.71601,-0.33507 -0.83116,-0.29837 -1.60903,0.51275 -0.30791,0.32106 -0.6791,0.64543 -0.82487,0.72081 -0.14577,0.0754 -0.61092,0.17284 -1.03367,0.21658 -1.04492,0.10811 -1.30746,0.2002 -1.9566,0.68633 -0.65794,0.49273 -2.22602,2.14181 -2.74302,2.8847 -0.47152,0.67755 -0.66054,0.8736 -0.96315,0.99894 -0.30597,0.12673 -0.40228,0.0481 -0.24369,-0.19894 0.49271,-0.76752 0.88549,-1.56396 1.07324,-2.17626 0.12135,-0.39578 0.36573,-1.0748 0.54305,-1.50893 0.17732,-0.43414 0.36568,-1.00566 0.41859,-1.27006 0.21463,-1.07268 0.27185,-1.23244 0.63925,-1.78497 0.34437,-0.51788 0.39227,-0.65182 0.47909,-1.33968 0.0907,-0.7188 0.085,-0.79386 -0.096,-1.26151 -0.31404,-0.81142 -0.31368,-0.81769 0.0782,-1.33673 0.43137,-0.57135 0.51882,-1.03713 0.29822,-1.58847 -0.14288,-0.3571 -0.14202,-0.36557 0.086,-0.84266 0.12669,-0.26507 0.20929,-0.53681 0.18355,-0.60387 -0.0294,-0.0767 -0.22169,-0.13999 -0.51843,-0.17061 -0.42466,-0.0438 -1.15202,-0.34962 -1.15202,-0.48431 0,-0.0293 0.11785,-0.16514 0.26188,-0.30191 0.34715,-0.32963 1.22545,-1.49589 1.43315,-1.90302 0.27102,-0.53124 0.67115,-1.69265 0.68081,-1.97612 0.005,-0.14531 -0.0153,-0.39755 -0.0449,-0.56054 -0.0497,-0.2733 -0.0135,-0.34239 0.46612,-0.889 1.12671,-1.28402 2.11364,-2.79525 2.11364,-3.23649 0,-0.38782 -0.17528,-0.62438 -0.89497,-1.20787 -0.66984,-0.54309 -1.27358,-0.87601 -2.19536,-1.21063 -0.80416,-0.29192 -1.39166,-0.5576 -1.6781,-0.75888 -0.28725,-0.20184 -0.80287,-0.17375 -1.6874,0.0919 -0.31433,0.0944 -0.5715,0.13904 -0.5715,0.0992 0,-0.0399 0.21907,-0.19531 0.48683,-0.34543 1.04579,-0.58635 1.35995,-0.89142 2.39097,-2.32181 1.60125,-2.22149 2.30538,-2.96084 4.01482,-4.2156 2.32737,-1.70834 2.81478,-2.08728 3.69071,-2.86936 2.30436,-2.05746 4.02402,-3.21416 6.96493,-4.68481 1.16233,-0.58124 2.37452,-1.23044 2.69373,-1.44266 0.31922,-0.21222 0.97219,-0.79986 1.45104,-1.30587 0.47885,-0.50601 1.16335,-1.16962 1.52112,-1.47468 0.63549,-0.54187 1.08817,-1.09215 1.20465,-1.46436 0.11761,-0.3758 -0.13965,-0.38303 -2.07881,-0.0585 -2.89516,0.48454 -3.63292,0.80046 -5.45133,2.33433 -0.54933,0.46337 -1.42122,1.12366 -1.93755,1.46731 -0.51633,0.34366 -1.51028,1.0435 -2.20878,1.55521 -1.37718,1.0089 -2.99874,1.90356 -4.36033,2.4057 -0.92256,0.34023 -3.87032,1.16026 -4.16382,1.15832 -0.3594,-0.002 -0.4328,-0.13248 -0.63855,-1.13195 -0.15915,-0.77314 -0.60129,-0.65539 -1.8309,0.48763 -0.98109,0.91199 -1.36646,1.17326 -3.69606,2.50583 -3.19958,1.83022 -3.87607,2.11774 -4.59332,1.95225 -0.75354,-0.17386 -0.86284,-0.13885 -2.51922,0.80698 -1.96576,1.12249 -3.33611,1.80745 -3.74485,1.87184 -0.25386,0.04 -0.37099,0.008 -0.59267,-0.15929 -0.41415,-0.31352 -0.6464,-0.33741 -1.38682,-0.14268 -0.44614,0.11733 -0.79379,0.15921 -1.04846,0.12632 -0.25293,-0.0327 -0.62291,0.0111 -1.10066,0.13021 -0.41839,0.10432 -1.19816,0.20672 -1.86267,0.24461 -0.98593,0.0562 -1.23018,0.1004 -1.77743,0.32154 -0.34894,0.141 -0.6519,0.2389 -0.67323,0.21756 -0.0213,-0.0213 0.30508,-0.37084 0.72537,-0.77667 0.4203,-0.40584 0.82675,-0.87431 0.90324,-1.04105 0.0765,-0.16675 0.32707,-0.53837 0.55686,-0.82583 0.28721,-0.3593 0.45087,-0.66147 0.52363,-0.96683 0.0968,-0.40636 0.202,-0.54148 1.23533,-1.58717 1.64121,-1.66085 1.94193,-2.09655 2.48354,-3.59833 0.313,-0.86788 0.75073,-1.77137 1.12805,-2.32834 0.14196,-0.20955 0.89581,-1.03072 1.67521,-1.82483 1.40464,-1.43114 1.41875,-1.44927 1.60488,-2.06207 0.21091,-0.69437 0.19787,-1.39927 -0.0342,-1.84803 -0.30287,-0.58568 -1.28009,-0.7844 -3.85741,-0.7844 -0.9676,0 -1.78392,-0.0381 -1.93359,-0.0903 -0.14247,-0.0497 -0.36445,-0.24243 -0.49332,-0.42839 -0.30537,-0.44065 -0.41137,-0.48997 -1.26017,-0.58642 -0.75555,-0.0859 -2.33661,-0.59175 -3.19618,-1.0227 -0.27566,-0.1382 -0.62228,-0.24314 -0.80433,-0.2435 -0.43165,-8.7e-4 -1.36728,-0.15687 -1.56026,-0.26015 -0.14789,-0.0791 -0.14294,-0.10938 0.0928,-0.56757 0.13695,-0.26619 0.40374,-0.67448 0.59285,-0.90731 0.4812,-0.59242 0.70292,-1.07646 0.60746,-1.32613 -0.16817,-0.43982 -0.75744,-0.7353 -1.49209,-0.7482 -0.23283,-0.004 -0.55668,-0.0596 -0.71967,-0.12339 -0.78253,-0.30622 -1.0596,-0.3921 -1.66984,-0.51755 -0.36217,-0.0744 -0.717297,-0.18809 -0.789167,-0.25252 -0.34992,-0.31367 -1.640659,-0.8118 -2.635335,-1.01706 -0.574191,-0.11848 -1.348782,-0.30339 -1.721316,-0.4109 -0.909155,-0.26237 -1.640707,-0.39692 -2.455333,-0.45163 -0.517165,-0.0347 -0.70237,-0.081 -0.783212,-0.19575 -0.05823,-0.0827 -0.305883,-0.21447 -0.550333,-0.29291 -0.508488,-0.16318 -1.502788,-0.62324 -1.502788,-0.69535 0,-0.13641 0.749956,-0.71263 1.09059,-0.83794 1.434687,-0.52778 1.737766,-0.67647 1.871778,-0.91826 0.11727,-0.21159 0.22676,-0.26656 0.767376,-0.38531 0.969205,-0.21288 1.21812,-0.30989 2.493256,-0.97162 0.651933,-0.33831 1.394878,-0.68185 1.650998,-0.76341 0.695729,-0.22154 1.057429,-0.42633 1.325309,-0.75037 0.22297,-0.26971 0.31713,-0.30776 1.257017,-0.50801 0.5588,-0.11906 1.21598,-0.2936 1.4604,-0.38786 0.24442,-0.0943 0.81592,-0.21182 1.27,-0.26123 1.25606,-0.13669 1.45062,-0.20503 1.59976,-0.56198 0.14668,-0.35104 0.16672,-1.63589 0.0332,-2.13157 -0.0487,-0.18104 -0.27991,-0.53666 -0.53397,-0.82147 -0.67949,-0.76174 -1.07776,-1.24598 -1.07776,-1.31044 0,-0.0319 0.25718,-0.0794 0.5715,-0.10545 0.31433,-0.0261 1.23825,-0.12908 2.05317,-0.22891 1.11265,-0.13629 1.70417,-0.16799 2.37504,-0.12726 0.86277,0.0524 0.92949,0.0434 1.94733,-0.26139 0.8768,-0.26258 1.21762,-0.32191 2.02763,-0.35297 0.53551,-0.0205 1.1993,0.004 1.47509,0.0554 0.70048,0.12955 3.58879,0.30017 3.94624,0.23312 0.39987,-0.075 0.52485,-0.30814 0.52102,-0.97187 -0.004,-0.72004 -0.27797,-1.55679 -0.77663,-2.37326 -0.21741,-0.35598 -0.66817,-1.095 -1.00168,-1.64228 -0.72724,-1.19337 -0.94671,-1.79317 -0.94671,-2.58736 0,-0.7275 -0.19898,-1.32324 -0.79662,-2.3851 -0.67673,-1.20239 -0.79049,-1.44984 -0.97868,-2.12895 -0.0946,-0.34142 -0.34304,-0.96443 -0.55206,-1.38448 -0.39862,-0.80106 -0.79669,-2.02824 -0.6919,-2.13303 0.0883,-0.0883 0.7477,0.1042 1.51917,0.4434 0.78237,0.34399 2.01295,0.58131 2.69821,0.52036 0.52908,-0.047 0.55008,-0.0377 1.43014,0.63947 0.63677,0.48995 1.30156,0.80496 2.74807,1.30213 1.20096,0.4128 1.5685,0.45974 1.97076,0.25172 0.36848,-0.19055 0.96985,-0.1727 1.39812,0.0415 0.19605,0.0981 0.82291,0.44546 1.39302,0.772 l 1.03656,0.59372 0.61444,-0.0556 0.61444,-0.0556 0.635,0.47362 c 0.34925,0.26048 0.81617,0.6144 1.03761,0.78648 1.03563,0.80477 1.52578,0.80701 2.20789,0.0101 l 0.29917,-0.34951 0.28083,0.21272 c 0.15446,0.11698 0.80551,0.4615 1.44679,0.76558 1.308,0.62022 1.94778,0.98969 2.81337,1.62467 0.32597,0.23912 0.99272,0.6738 1.48167,0.96595 2.41309,1.44184 4.03026,2.81109 5.78173,4.89535 0.78903,0.93896 1.1835,1.24586 2.3124,1.79907 0.95269,0.46686 1.90817,0.72357 3.01611,0.81033 l 0.73857,0.0578 0.0963,-0.24429 c 0.18807,-0.47689 -0.19854,-1.71525 -0.87387,-2.79909 -0.63494,-1.01902 -2.07064,-2.19199 -4.1332,-3.37681 -1.60843,-0.92394 -2.02697,-1.08887 -2.98422,-1.17595 -0.74342,-0.0676 -1.29113,-0.27726 -2.28658,-0.87519 -1.68645,-1.013 -2.54773,-1.82384 -4.8945,-4.60789 -0.7736,-0.91775 -2.01365,-2.29662 -2.75567,-3.06416 -0.74203,-0.76754 -1.40337,-1.49686 -1.46965,-1.62071 -0.16065,-0.30017 -0.067,-0.36442 1.04026,-0.71349 1.18607,-0.37391 1.8408,-0.73596 2.73245,-1.51096 0.41736,-0.36275 0.90365,-0.7476 1.08065,-0.85521 0.93952,-0.57119 0.71195,-1.11946 -1.12173,-2.70252 -0.30512,-0.26341 -0.79199,-0.70401 -1.08194,-0.9791 -0.67734,-0.64262 -2.06645,-2.64786 -2.26405,-3.26823 -0.20965,-0.6582 -0.58278,-1.30087 -1.16307,-2.00321 -0.27548,-0.33342 -0.5843,-0.77133 -0.68628,-0.97313 -0.16014,-0.31691 -0.26044,-0.39789 -0.73575,-0.59405 -0.30268,-0.12492 -0.56137,-0.28044 -0.57487,-0.34561 -0.0151,-0.0728 0.23592,-0.25866 0.65092,-0.48202 0.37149,-0.19995 0.76194,-0.45561 0.86765,-0.56813 0.1897,-0.20194 0.19021,-0.20829 0.0389,-0.48928 -0.0843,-0.15658 -0.39317,-0.51532 -0.68633,-0.79721 -0.29316,-0.28188 -0.67663,-0.75247 -0.85215,-1.04577 -0.17552,-0.29329 -0.67482,-1.07402 -1.10955,-1.73495 -0.43473,-0.66093 -0.82521,-1.29318 -0.86772,-1.40499 -0.0425,-0.11181 -0.0566,-0.50596 -0.0312,-0.87587 0.0597,-0.87147 -0.0453,-1.07995 -1.12762,-2.23767 -0.45433,-0.48599 -0.98837,-1.13453 -1.18676,-1.44121 -0.19838,-0.30667 -0.61602,-0.8782 -0.92809,-1.27007 -0.31207,-0.39187 -0.62346,-0.84584 -0.69198,-1.00882 -0.0685,-0.16299 -0.25358,-0.43932 -0.41123,-0.61408 -0.2803,-0.31073 -0.35814,-0.48659 -0.21537,-0.48659 0.0392,0 0.44876,0.18735 0.91016,0.41633 0.46141,0.22898 1.27351,0.59017 1.80468,0.80263 0.53117,0.21247 1.21697,0.5377 1.524,0.72273 0.68501,0.41283 1.20282,0.64402 2.87778,1.28489 1.27283,0.48699 1.32328,0.49875 2.14039,0.49875 0.68813,0 0.92289,0.0357 1.32112,0.20089 0.26635,0.11049 0.63668,0.24852 0.82295,0.30674 0.18626,0.0582 0.82138,0.29096 1.41136,0.51718 1.85493,0.71127 3.69776,1.17652 4.66009,1.17652 0.46117,0 0.53255,-0.0254 0.78743,-0.28028 0.15415,-0.15415 0.32326,-0.4399 0.37579,-0.635 0.0525,-0.19509 0.12926,-0.35471 0.17051,-0.35471 0.0986,0 1.64732,0.53044 2.06586,0.70758 0.56629,0.23967 1.32894,0.74125 2.08916,1.37398 1.04567,0.87031 3.70144,3.48134 4.55686,4.4801 0.39884,0.46567 1.04577,1.19784 1.43764,1.62705 0.61335,0.67179 0.73493,0.76837 0.87371,0.6941 0.31402,-0.16806 0.67239,-0.798 0.93236,-1.63893 0.35413,-1.14549 0.57104,-1.6073 1.02708,-2.18664 0.26489,-0.33653 0.41389,-0.62563 0.47907,-0.92958 0.19572,-0.9126 0.61294,-1.51709 1.3442,-1.94752 l 0.25175,-0.1482 0.2323,0.4022 c 0.12777,0.2212 0.42666,0.57785 0.66423,0.79256 0.60402,0.54591 1.26231,1.50587 1.95809,2.85536 0.56559,1.09703 0.61214,1.1601 0.94741,1.28395 0.77719,0.2871 1.06342,0.78661 1.59088,2.77638 0.20625,0.77803 0.4536,1.6813 0.54965,2.00727 0.0961,0.32597 0.27087,1.21196 0.38847,1.96888 0.25881,1.66584 0.39474,2.07963 1.05336,3.20644 0.86069,1.47251 1.41495,3.45633 1.60558,5.74669 0.13797,1.65782 0.3904,2.32833 0.87654,2.32833 0.23946,0 0.86434,-0.39103 1.26477,-0.79147 0.60526,-0.60526 1.10155,-2.00813 1.44069,-4.07245 0.1826,-1.11146 0.20413,-1.17701 0.39108,-1.19078 0.37768,-0.0278 0.78075,-0.74709 1.44655,-2.5813 0.53261,-1.46727 1.02381,-2.47336 1.56788,-3.21135 0.22072,-0.29939 0.47446,-0.73754 0.56385,-0.97367 0.29997,-0.79232 0.83498,-1.77891 1.31176,-2.41899 0.7527,-1.0105 1.00567,-1.43878 1.24938,-2.11526 0.26616,-0.73875 0.44599,-1.0502 0.80439,-1.39308 l 0.25993,-0.24867 v 0.23646 c 0,0.13243 0.0988,0.35356 0.22449,0.50266 0.3948,0.46817 0.45284,0.7232 0.45284,1.9897 0,1.00765 0.0309,1.28511 0.21283,1.91299 0.11879,0.40993 0.30605,1.48962 0.42383,2.44365 0.26571,2.15232 0.27925,2.23114 0.40564,2.36268 0.36684,0.38175 0.47201,0.61162 0.52569,1.14902 0.0312,0.3125 0.11352,0.8261 0.18288,1.14131 0.15736,0.71515 0.11641,1.42196 -0.13573,2.34328 -0.2152,0.78629 -0.22174,0.76253 0.29423,1.06791 0.13217,0.0782 0.13992,0.13506 0.0609,0.44658 -0.12727,0.50142 -0.069,0.62912 0.41494,0.91009 0.69708,0.40468 0.79043,0.59981 0.78649,1.64403 -0.006,1.57463 -0.1938,4.42885 -0.3288,4.99533 -0.0721,0.30268 -0.26653,0.95038 -0.43201,1.43933 -0.34461,1.01825 -0.7175,2.90991 -0.7175,3.63981 0,0.83716 0.25257,1.0253 1.92348,1.43273 0.70749,0.17252 1.20143,0.37873 1.31372,0.54844 0.11485,0.1736 0.0663,0.55409 -0.13893,1.08797 -0.11205,0.29153 -0.37419,1.06345 -0.58255,1.71539 -0.20835,0.65193 -0.72487,1.93482 -1.14782,2.85087 -0.93605,2.02741 -1.10652,2.51916 -1.21302,3.49912 -0.13832,1.27265 -0.27554,1.66959 -0.92793,2.68419 -0.87869,1.36651 -1.13195,1.9432 -1.13195,2.57742 0,0.81021 0.10019,0.87503 1.82033,1.17766 0.44238,0.0778 1.39488,0.28645 2.11667,0.46362 1.64828,0.40456 2.79924,0.62733 4.14866,0.80298 1.33076,0.17322 2.66236,0.42407 3.429,0.64598 1.42492,0.41244 5.36911,1.72212 5.72913,1.90238 0.47493,0.23778 2.05693,1.48268 2.18262,1.71753 0.12003,0.22429 0.10754,0.42805 -0.0433,0.706 z"
       id="path826"
       inkscape:connector-curvature="0" />
  </g>
</svg>
