<?xml version="1.0" encoding="UTF-8" standalone="no"?>
<!-- Created with Inkscape (http://www.inkscape.org/) -->

<svg
   xmlns:dc="http://purl.org/dc/elements/1.1/"
   xmlns:cc="http://creativecommons.org/ns#"
   xmlns:rdf="http://www.w3.org/1999/02/22-rdf-syntax-ns#"
   xmlns:svg="http://www.w3.org/2000/svg"
   xmlns="http://www.w3.org/2000/svg"
   xmlns:sodipodi="http://sodipodi.sourceforge.net/DTD/sodipodi-0.dtd"
   xmlns:inkscape="http://www.inkscape.org/namespaces/inkscape"
   width="123.94592mm"
   height="51.115227mm"
   viewBox="0 0 123.94592 51.115227"
   version="1.1"
   id="svg8"
   inkscape:version="0.92.4 (5da689c313, 2019-01-14)"
   sodipodi:docname="elaz 75710 .svg">
  <defs
     id="defs2" />
  <sodipodi:namedview
     id="base"
     pagecolor="#ffffff"
     bordercolor="#666666"
     borderopacity="1.0"
     inkscape:pageopacity="0.0"
     inkscape:pageshadow="2"
     inkscape:zoom="0.98994949"
     inkscape:cx="267.21912"
     inkscape:cy="13.257674"
     inkscape:document-units="mm"
     inkscape:current-layer="layer1"
     showgrid="false"
     showguides="true"
     inkscape:guide-bbox="true"
     inkscape:snap-global="false"
     inkscape:window-width="1366"
     inkscape:window-height="713"
     inkscape:window-x="0"
     inkscape:window-y="0"
     inkscape:window-maximized="1"
     fit-margin-top="0"
     fit-margin-left="0"
     fit-margin-right="0"
     fit-margin-bottom="0" />
  <metadata
     id="metadata5">
    <rdf:RDF>
      <cc:Work
         rdf:about="">
        <dc:format>image/svg+xml</dc:format>
        <dc:type
           rdf:resource="http://purl.org/dc/dcmitype/StillImage" />
        <dc:title></dc:title>
      </cc:Work>
    </rdf:RDF>
  </metadata>
  <g
     inkscape:label="Layer 1"
     inkscape:groupmode="layer"
     id="layer1"
     transform="translate(-30.46894,-97.817283)">
    <path
       style="fill:#ffffff;fill-opacity:1;stroke:none;stroke:none;stroke-width:0.99999994px;stroke-linecap:butt;stroke-linejoin:miter;stroke-opacity:1"
       d="m 141.42188,369.70312 v 13.38477 h 97.47851 c 8.33376,0 15.40499,4.29308 18.05664,7.19727 2.65165,2.90419 16.16211,18.43554 16.16211,18.43554 v 3.03125 l 11.87109,19.69727 -8.71289,1.89453 -0.2539,2.39844 -1.13477,1.26172 0.125,3.41015 0.75781,1.13672 -0.75781,0.25195 -2.77734,2.9043 -1.89453,-8.45898 h -0.63086 v -5.8086 h 1.38867 v -3.66211 h -1.0332 v -3.18359 l -2.75391,-4.77148 h -4.54688 v -12.75391 h -4.04101 v -2.39844 h -11.23633 l -1.76953,-3.2832 h 1.13672 v -1.64063 h -1.26172 l -5.05078,-11.49218 h -22.60352 v 7.45117 h -1.64062 v 2.01953 h 1.64062 v 9.0918 h -23.48437 c 0,0 -2.65244,-10.22842 -3.03125,-12.375 -0.37881,-2.14659 -0.50557,-4.16602 -1.89453,-4.16602 h -2.52539 v -1.76758 h -2.14649 v 1.51563 H 167.9375 v -1.51563 h -2.27148 v 1.26367 l -3.58985,0.96094 -0.45117,1.68946 h -2.14648 v 1.13671 h 1.70898 v 1.23633 l -3.15234,11.75977 h -6.96289 v -10.44531 c 0,-2.32124 -2.13868,-1.78682 -2.13868,-0.17969 v 10.69726 c -0.82074,0 -2.20898,0.18987 -2.20898,1.70508 v 21.08594 h -2.01953 v -20.89649 c 0,-1.07331 -0.63121,-1.89453 -1.95703,-1.89453 h -8.52344 c -1.07329,0 -1.95703,0.31542 -1.95703,1.38867 0,-1.01013 -0.94698,-1.51562 -2.33594,-1.51562 h -8.27148 c -1.38897,0 -1.87891,0.82116 -1.87891,1.70508 v 3.38281 l -1.59375,-0.91992 v -4.35742 h -1.00977 v 80.05468 h -2.01953 v 32.83008 h 2.27149 v 26.76953 h 14.90039 v -32.83007 h 9.84961 c 0,0 57.32583,8.08184 70.96289,9.84961 13.63706,1.76774 15.90899,0.50449 18.93945,-4.79883 3.03046,-5.30329 16.1629,-36.61719 19.19336,-36.61719 v 4.29297 h 5.30273 v -1.51563 h 3.02735 a 45.961942,45.961942 0 0 0 -14.64258,33.58789 45.961942,45.961942 0 0 0 45.96094,45.96094 45.961942,45.961942 0 0 0 45.96289,-45.96094 45.961942,45.961942 0 0 0 -14.67188,-33.58789 h 2.04493 v -2.52539 h 19.69726 c 19.1929,0 21.46485,35.3549 23.99024,45.70899 2.52537,10.35405 10.35391,7.57714 14.39453,1.26367 4.04058,-6.31344 30.81138,-46.97266 38.89258,-46.97266 h 17.42382 v 3.53516 h 2.21094 a 45.961942,45.961942 0 0 0 -13.57422,32.57812 45.961942,45.961942 0 0 0 45.96094,45.96094 45.961942,45.961942 0 0 0 45.96289,-45.96094 45.961942,45.961942 0 0 0 -13.58984,-32.57812 h 6.26562 v -3.78711 l -6.82226,-0.75781 v -11.85352 l -1.00586,-0.26953 v -2.52539 l 6.5664,-7.07031 10.10157,-4.04102 -0.25391,-1.76758 9.59765,-1.26172 26.76758,-4.29296 12.375,-5.8086 3.78907,0.75781 8.08007,-2.52539 2.52539,-7.07226 h -2.77734 l -21.4668,-22.22266 H 318.95508 L 271.22656,371.97656 H 151.77539 v -2.27344 z m -19.81446,37.9961 H 131.25 v 9.28516 h -9.64258 z m 17.67774,0 h 3.92968 v 9.28516 h -3.92968 z m 8.57226,0 h 1.42774 v 9.28516 h -1.42774 z m 3.21485,0 h 6.4375 l -1.79493,7.05273 -1.42968,-1.16015 -1.33789,1.96289 0.0488,1.42969 h -1.92382 z m 44.19921,0 h 8.70899 v 9.28516 h -5.89063 z m 9.92579,0 h 11.1582 v 3.91406 H 218.25 v 5.3711 h -1.89453 -9.26367 -1.89453 z m -69.48243,1.96289 h 2.14258 v 7.32227 h -2.14258 z m -14.10742,9.28711 H 131.25 v 6.96289 h -9.64258 z m 14.10742,0 h 2.14258 v 5.35547 h -2.14258 z m 3.57032,0 h 3.92968 v 6.96289 h -3.92968 z m 8.57226,0 h 1.42774 v 6.96289 h -1.42774 z m 3.21485,0 h 1.70312 l -1.70312,5.28906 z m 48.8125,0 h 4.0957 v 6.96289 h -4.0957 z m 5.3125,0 h 11.1582 v 6.96289 h -11.1582 z m -83.22071,93.3125 h 8.20703 v 3.53516 h -8.20703 z m 0,4.67187 h 8.20703 v 2.01953 h -8.20703 z m 0,5.30274 h 8.20703 v 4.29297 h -8.20703 z m 0,7.32422 h 8.20703 v 4.29297 h -8.20703 z m 0,7.95507 h 8.20703 v 4.29297 h -8.20703 z"
       transform="scale(0.26458333)"
       id="path826"
       inkscape:connector-curvature="0" />
  </g>
</svg>
