<?xml version="1.0" encoding="UTF-8" standalone="no"?>
<!-- Created with Inkscape (http://www.inkscape.org/) -->

<svg
   xmlns:dc="http://purl.org/dc/elements/1.1/"
   xmlns:cc="http://creativecommons.org/ns#"
   xmlns:rdf="http://www.w3.org/1999/02/22-rdf-syntax-ns#"
   xmlns:svg="http://www.w3.org/2000/svg"
   xmlns="http://www.w3.org/2000/svg"
   xmlns:sodipodi="http://sodipodi.sourceforge.net/DTD/sodipodi-0.dtd"
   xmlns:inkscape="http://www.inkscape.org/namespaces/inkscape"
   width="307.10016mm"
   height="304.87088mm"
   viewBox="0 0 307.10016 304.87088"
   version="1.1"
   id="svg8"
   inkscape:version="0.92.4 (5da689c313, 2019-01-14)"
   sodipodi:docname="Coronavirus-front.svg">
  <defs
     id="defs2" />
  <sodipodi:namedview
     id="base"
     pagecolor="#ffffff"
     bordercolor="#666666"
     borderopacity="1.0"
     inkscape:pageopacity="0.0"
     inkscape:pageshadow="2"
     inkscape:zoom="0.35"
     inkscape:cx="941.86722"
     inkscape:cy="676.26261"
     inkscape:document-units="mm"
     inkscape:current-layer="layer1"
     showgrid="false"
     inkscape:pagecheckerboard="true"
     fit-margin-top="0"
     fit-margin-left="0"
     fit-margin-right="0"
     fit-margin-bottom="0"
     inkscape:window-width="1600"
     inkscape:window-height="837"
     inkscape:window-x="-8"
     inkscape:window-y="-8"
     inkscape:window-maximized="1" />
  <metadata
     id="metadata5">
    <rdf:RDF>
      <cc:Work
         rdf:about="">
        <dc:format>image/svg+xml</dc:format>
        <dc:type
           rdf:resource="http://purl.org/dc/dcmitype/StillImage" />
        <dc:title></dc:title>
      </cc:Work>
    </rdf:RDF>
  </metadata>
  <g
     inkscape:label="Layer 1"
     inkscape:groupmode="layer"
     id="layer1"
     transform="translate(266.2113,-22.890281)">
    <path
       style="fill:#ffffff;fill-opacity:1;stroke:none;stroke-width:0.35277778"
       d="m -94.55379,327.43414 c -1.98725,-0.67036 -3.78736,-2.79919 -4.35769,-5.15345 -0.79977,-3.30136 -0.20017,-9.73819 1.48408,-15.93208 0.62591,-2.30177 0.7938,-4.0583 0.91044,-9.525 0.0787,-3.68653 0.0158,-7.8934 -0.13956,-9.34861 l -0.28257,-2.64584 -1.23433,0.0697 c -2.77299,0.15656 -7.97175,0.55889 -8.46626,0.65521 -0.29104,0.0567 -1.0451,0.11521 -1.67569,0.13006 l -1.14653,0.027 v 2.31825 c 0,1.5903 0.16616,2.48442 0.52916,2.84742 0.71242,0.71242 0.66884,1.79253 -0.0882,2.18566 -0.33955,0.17633 -2.01227,0.30098 -3.71716,0.277 -2.33623,-0.0329 -3.18217,-0.17396 -3.43419,-0.57278 -0.47278,-0.7482 -0.42413,-1.96492 0.0958,-2.39529 0.29128,-0.2411 0.4004,-1.09409 0.32145,-2.51264 l -0.11953,-2.14762 -1.46797,-0.027 c -0.80739,-0.0149 -1.7061,-0.0723 -1.99714,-0.12766 -0.29104,-0.0554 -1.87854,-0.21533 -3.52778,-0.35548 -1.64923,-0.14015 -3.51455,-0.31986 -4.14514,-0.39935 -0.75008,-0.0945 -1.15362,0.007 -1.16703,0.29428 -0.0113,0.24135 -0.23191,2.34381 -0.49027,4.67215 -0.47236,4.25672 -0.48886,9.87599 -0.0357,12.17083 0.13408,0.6791 0.77731,3.45722 1.42938,6.17361 0.65208,2.71639 1.29394,5.87945 1.42635,7.02903 0.13242,1.14958 0.27376,2.31499 0.31409,2.58981 0.0403,0.27482 -0.0553,1.4404 -0.21256,2.59019 -0.43368,3.17118 -1.94951,5.69031 -4.09005,6.79723 -2.2492,1.16311 -5.1407,0.41194 -6.50206,-1.68913 -0.5211,-0.80423 -1.09211,-1.25858 -1.58525,-1.26137 -0.42394,-0.002 -1.17238,-0.15706 -1.66321,-0.34367 -0.57586,-0.21894 -0.96791,-0.21715 -1.10524,0.005 -0.35733,0.57817 -2.90654,1.74536 -3.81197,1.74536 -4.07414,0 -6.52993,-4.82991 -5.0479,-9.92791 0.77069,-2.6511 3.12085,-7.15758 6.03771,-11.57746 2.76247,-4.18594 5.22394,-9.90117 7.06679,-16.40824 0.65785,-2.32283 1.16512,-4.24009 1.12729,-4.26057 -0.0378,-0.0205 -1.89443,-0.48666 -4.12575,-1.03595 -2.23132,-0.54929 -4.91642,-1.29151 -5.96691,-1.64937 -1.05048,-0.35786 -1.95058,-0.61004 -2.00021,-0.56041 -0.49715,0.49715 -1.30881,3.60088 -1.26845,4.85047 0.0775,2.39852 -0.42006,2.57015 -3.90422,1.34685 -1.60138,-0.56225 -3.09324,-1.26143 -3.31525,-1.55373 -0.49825,-0.656 -0.23423,-1.78764 0.55097,-2.36155 0.3237,-0.2366 0.92862,-1.33022 1.34427,-2.43028 l 0.75573,-2.00009 -3.36884,-1.47746 c -1.85287,-0.8126 -4.29429,-1.93662 -5.4254,-2.49782 -1.13111,-0.5612 -2.18452,-1.01968 -2.34093,-1.01885 -0.42767,0.002 -5.2451,9.7256 -5.51484,11.13096 -0.0724,0.37707 -0.22818,0.92371 -0.34623,1.21475 -0.31602,0.77905 -0.83881,4.05091 -1.66287,10.40694 -1.09044,8.41072 -2.16951,11.58013 -4.81947,14.15559 -2.68446,2.609 -5.89536,2.88557 -8.08457,0.69636 -0.68169,-0.6817 -1.24427,-1.67937 -1.39249,-2.46946 -0.18175,-0.96882 -0.49786,-1.43148 -1.17435,-1.71881 -0.50911,-0.21624 -1.20412,-0.62578 -1.54445,-0.91009 -0.47252,-0.39473 -0.81182,-0.42897 -1.43537,-0.14487 -0.44912,0.20463 -1.55347,0.34275 -2.45411,0.30692 -3.94264,-0.15682 -5.71719,-4.78979 -3.58725,-9.36552 1.14123,-2.45168 4.95233,-6.232 10.56497,-10.47965 5.06754,-3.83512 8.74703,-7.83331 13.38403,-14.54328 l 1.55338,-2.24782 -4.68764,-3.12741 c -2.5782,-1.72008 -4.88381,-3.36379 -5.12359,-3.65271 -0.37186,-0.44806 -0.66317,-0.25424 -1.98139,1.31829 -0.84999,1.01396 -1.47371,2.04201 -1.38604,2.28455 0.232,0.64189 -0.16139,1.4692 -0.88201,1.85487 -0.49998,0.26757 -1.11984,-0.066 -3.0453,-1.63902 -1.32966,-1.08625 -2.53828,-2.18321 -2.68583,-2.43772 -0.39369,-0.67902 0.42891,-2.22277 1.25011,-2.34604 0.38982,-0.0585 1.32953,-0.84038 2.08824,-1.73746 l 1.37946,-1.63106 -4.43869,-4.37161 -4.4387,-4.37161 -4.35081,4.23878 c -4.80186,4.6782 -6.33111,6.8158 -9.72052,13.58739 -4.2414,8.47374 -7.15861,12.01996 -10.89262,13.2413 -2.12845,0.69618 -3.68165,0.50961 -5.40044,-0.64868 -1.54739,-1.04279 -2.06149,-2.13334 -2.06783,-4.38651 -0.003,-1.11041 -0.21374,-2.09608 -0.52767,-2.46944 -0.28736,-0.34177 -0.72392,-0.88885 -0.97014,-1.21574 -0.28063,-0.37258 -1.04,-0.62691 -2.03517,-0.68163 -2.79009,-0.15342 -4.58611,-2.05807 -4.58611,-4.86352 0,-2.44007 1.6185,-5.1012 4.18376,-6.87893 2.03707,-1.41169 7.07837,-3.50011 11.52098,-4.7727 5.56375,-1.59374 11.53688,-4.64493 17.68785,-9.0353 l 2.52453,-1.80193 -1.66334,-2.26638 c -1.24689,-1.69895 -4.47338,-6.3811 -5.52002,-8.01042 -0.20061,-0.3123 -4.02659,2.30935 -4.03236,2.76307 -0.01,0.78319 -0.72756,1.39347 -1.63851,1.39347 -0.58132,0 -1.05116,-0.48037 -1.81145,-1.85208 -0.5646,-1.01865 -1.33058,-2.3761 -1.70219,-3.01657 l -0.67564,-1.16449 0.97484,-0.85111 c 0.53616,-0.4681 1.20024,-0.76461 1.47572,-0.6589 0.38257,0.14681 2.92849,-1.02445 4.03407,-1.85588 0.0961,-0.0723 -4.68206,-10.7958 -5.03319,-11.29591 -0.0718,-0.10225 -4.18728,1.67514 -7.55262,3.2618 -4.855,2.289 -6.63422,3.62207 -13.12521,9.83393 -2.81777,2.69661 -6.26183,5.26031 -8.75537,6.51739 -3.29903,1.66313 -7.324,1.26563 -9.23611,-0.91215 -1.47668,-1.68184 -1.65524,-2.75117 -0.84539,-5.06289 0.63594,-1.81529 0.64556,-2.05632 0.13699,-3.43309 -0.42689,-1.15561 -0.89329,-1.66183 -2.12424,-2.30558 -3.79869,-1.9866 -3.64985,-6.81498 0.29053,-9.42499 3.1612,-2.09389 4.54101,-2.30568 14.49306,-2.22457 7.48963,0.061 9.56487,-0.037 12.7,-0.59987 4.19038,-0.75236 5.10141,-0.93891 6.04053,-1.23698 0.35706,-0.11333 0.93969,-0.2642 1.29474,-0.33528 2.46272,-0.49302 3.99693,-1.04865 3.99693,-1.44753 0,-0.25537 -0.16994,-0.91121 -0.37764,-1.45742 -0.56163,-1.47697 -2.44458,-8.96302 -2.44458,-9.7189 0,-0.55988 -0.19175,-0.62346 -1.32292,-0.43864 -2.98025,0.48694 -3.4602,0.64565 -3.91465,1.29448 -0.30687,0.4381 -0.79748,0.63993 -1.38552,0.56996 -0.85384,-0.10161 -0.94973,-0.31513 -1.54309,-3.43598 -0.66545,-3.49994 -0.57276,-4.01115 0.80663,-4.44895 0.37985,-0.12056 0.89393,-0.0505 1.14241,0.15575 0.58201,0.48302 4.8058,-0.21588 4.80653,-0.79532 3.6e-4,-0.35795 -0.39787,-4.66355 -0.92665,-10.01648 l -0.18296,-1.85208 -1.8267,3e-4 c -5.29618,7e-4 -12.4201,1.0995 -15.36803,2.37005 -0.70143,0.30232 -1.59283,0.67023 -1.98089,0.81758 -1.08253,0.41105 -2.97584,1.22943 -5.11527,2.21106 -6.28357,2.88307 -12.02938,3.6557 -15.28092,2.0548 -3.90432,-1.92229 -4.6483,-6.21281 -1.55077,-8.94327 0.49438,-0.43579 0.69808,-1.09133 0.72061,-2.31896 0.0278,-1.51367 -0.11495,-1.85777 -1.23523,-2.97805 -1.39709,-1.39708 -1.80387,-3.02605 -1.18787,-4.75688 1.04463,-2.93524 3.98042,-4.55054 7.95084,-4.37465 2.33595,0.10349 8.71698,1.98266 12.25209,3.60816 1.69697,0.78029 4.03977,1.72341 5.20623,2.09581 2.77785,0.88685 8.80524,1.99396 12.3514,2.26871 1.55223,0.12026 3.31313,0.30326 3.91313,0.40666 l 1.0909,0.188 0.41404,-4.52674 c 0.22773,-2.48971 0.51004,-5.3352 0.62736,-6.32331 l 0.21331,-1.79656 -2.24338,-0.36129 c -1.81379,-0.2921 -2.39163,-0.26416 -3.01752,0.14594 -0.93581,0.61317 -2.23256,0.0895 -2.23256,-0.90164 0,-1.39885 0.74882,-4.88309 1.27224,-5.91973 0.58663,-1.16182 1.45361,-1.25928 2.60832,-0.29321 0.5005,0.41875 4.55268,1.41809 4.72099,1.16429 0.0434,-0.0655 0.43969,-1.70651 0.88062,-3.64679 0.44094,-1.94028 1.11655,-4.54238 1.50135,-5.78244 0.38481,-1.24007 0.57125,-2.37346 0.41432,-2.51866 -0.34686,-0.32091 -8.34718,-2.59403 -11.05097,-3.1399 -1.23764,-0.24986 -5.6686,-0.35792 -12.17083,-0.29679 -9.17012,0.0862 -10.43022,0.0286 -12.21788,-0.55844 -6.18733,-2.0319 -7.9969,-8.51683 -3.07284,-11.01204 1.07279,-0.54362 1.71468,-1.10141 1.71468,-1.49001 0,-0.34162 0.25018,-0.9783 0.55595,-1.41485 0.51422,-0.73415 0.49779,-0.91388 -0.21886,-2.39427 -2.507,-5.17878 3.42673,-9.17081 9.54069,-6.41868 2.42382,1.09105 6.48752,4.17671 11.26959,8.55725 3.85789,3.53395 7.3037,5.79074 14.06799,9.21364 3.25144,1.64531 4.03617,1.9184 4.47233,1.55642 0.29094,-0.24145 0.52898,-0.59082 0.52898,-0.77636 0,-0.18554 1.03187,-2.47331 2.29305,-5.08394 2.35602,-4.87692 2.55238,-5.42843 1.93272,-5.42843 -0.19819,0 -0.95225,-0.39087 -1.6757,-0.86859 -0.85875,-0.56708 -1.68273,-0.82652 -2.37368,-0.74737 -1.24388,0.14247 -1.94028,-0.31554 -1.94028,-1.2761 0,-0.89891 2.72471,-5.55933 3.40228,-5.81934 0.70419,-0.27022 2.24216,0.46247 2.24216,1.06818 0,0.26719 0.96542,0.9643 2.14537,1.54914 1.87196,0.92783 2.17305,0.99052 2.36269,0.49191 0.27014,-0.71027 4.47109,-6.91364 5.60985,-8.28383 0.99255,-1.19427 0.91639,-1.32998 -1.97615,-3.52132 -6.28265,-4.75963 -9.30689,-6.283506 -16.85633,-8.493694 -9.51498,-2.785625 -13.61333,-5.094093 -15.39914,-8.673849 -1.14633,-2.297875 -0.44398,-6.08003 1.347,-7.253524 0.42017,-0.275301 1.53474,-0.606199 2.47683,-0.735326 1.36104,-0.186553 1.93605,-0.488989 2.7993,-1.472347 0.95413,-1.086876 1.07395,-1.455899 0.98404,-3.030615 -0.17989,-3.150676 1.68642,-5.173877 4.79485,-5.197954 2.08163,-0.01612 4.34731,0.905284 6.17762,2.512317 1.70468,1.49673 4.62496,5.95696 7.2168,11.022415 1.90129,3.715878 3.18975,5.849556 4.1265,6.833467 0.20041,0.210503 0.68189,0.828728 1.06994,1.373833 1.30834,1.837835 2.78378,3.520663 5.86388,6.688117 l 3.06607,3.15302 0.96005,-1.14094 c 1.07003,-1.271667 7.00894,-7.109853 7.61106,-7.481984 0.26438,-0.163397 0.21578,-0.445876 -0.15501,-0.900854 -0.29709,-0.36455 -0.94494,-1.158289 -1.43967,-1.763864 -0.49473,-0.605578 -1.3661,-1.194368 -1.93638,-1.308424 -1.78584,-0.35717 -1.78043,-1.508249 0.0147,-3.114792 0.84566,-0.756832 2.12321,-1.782875 2.83901,-2.280094 1.28269,-0.891015 1.31447,-0.894673 2.20626,-0.254004 0.57553,0.413466 0.84854,0.888436 0.75019,1.305123 -0.0992,0.420084 0.34329,1.173275 1.23332,2.099535 0.76337,0.794445 1.38795,1.572758 1.38795,1.729585 0,0.156828 0.75406,-0.27486 1.6757,-0.959305 0.92163,-0.684445 3.18381,-2.294939 5.02708,-3.57887 1.84326,-1.283935 3.41295,-2.38777 3.48819,-2.452963 0.30994,-0.268548 -6.12368,-9.325553 -7.96143,-11.207796 -1.09269,-1.119152 -4.14479,-3.642427 -6.78243,-5.607275 -7.65145,-5.699771 -10.47232,-8.845716 -11.31731,-12.621556 -1.05775,-4.726531 2.19432,-8.323707 6.38898,-7.066957 1.2286,0.368098 1.50262,0.333054 2.40168,-0.307132 0.55815,-0.39745 1.26814,-0.722637 1.57773,-0.722637 0.37096,0 0.56291,-0.312636 0.56291,-0.916824 0,-1.68475 1.08137,-3.360674 2.61907,-4.059068 1.76609,-0.802132 2.66753,-0.827253 4.35962,-0.121507 4.14643,1.729426 6.15167,6.249631 7.50397,16.915454 0.46119,3.63752 1.09874,6.836057 1.79311,8.995833 1.22696,3.816371 5.22007,13.141 5.55259,12.966305 0.48533,-0.254981 8.77379,-4.211013 10.00723,-4.776386 1.28332,-0.588239 1.30649,-0.631719 0.827,-1.551573 -0.27133,-0.520506 -0.60236,-1.44284 -0.73563,-2.049628 -0.15064,-0.685832 -0.54544,-1.218498 -1.04347,-1.407848 -0.44064,-0.16753 -0.90244,-0.568529 -1.02622,-0.891109 -0.4767,-1.242261 0.15161,-1.646044 5.32858,-3.424397 1.52934,-0.525346 2.72122,0.423538 2.42053,1.927017 -0.11608,0.580397 0.0948,1.764753 0.51328,2.883376 l 0.71028,1.898393 1.83989,-0.520241 c 1.01194,-0.286131 3.66458,-0.996986 5.89476,-1.579676 2.23018,-0.58269 4.09933,-1.103898 4.15367,-1.15824 0.14578,-0.145775 -1.15645,-5.557075 -2.19554,-9.123401 -1.1431,-3.923301 -2.20643,-6.018808 -6.20568,-12.229563 -3.86432,-6.001202 -5.1285,-8.476682 -5.87621,-11.506613 -0.97048,-3.932651 0.28726,-7.363166 3.20769,-8.748995 1.74546,-0.82828 3.09566,-0.707123 4.66035,0.418187 1.15677,0.831938 1.57245,0.946779 2.61057,0.72123 0.6791,-0.147546 1.47285,-0.2028 1.76389,-0.122788 0.33246,0.0914 0.88583,-0.440721 1.48864,-1.431464 1.00334,-1.649032 2.06337,-2.273141 3.86087,-2.273141 2.52444,0 5.11896,2.348916 6.00244,5.434231 0.86965,3.037006 0.20895,9.883525 -1.56928,16.261602 -0.7219,2.589319 -0.78599,3.570312 -0.77651,11.887179 0.006,4.985727 0.10915,9.16378 0.22993,9.28456 0.12078,0.120781 1.78301,0.04983 3.69384,-0.157677 4.78708,-0.519839 6.45992,-0.670514 7.79576,-0.702169 l 1.14653,-0.02717 V 62.55397 c 0,-1.590301 -0.16616,-2.484417 -0.52917,-2.847421 -0.62671,-0.626707 -0.69418,-1.746254 -0.1264,-2.097165 0.70209,-0.43391 5.73052,-0.508096 6.74098,-0.09945 0.7362,0.297727 0.97014,0.632202 0.97014,1.387048 0,0.547095 -0.15875,1.092828 -0.35277,1.212744 -0.19403,0.119916 -0.35278,1.240536 -0.35278,2.490266 v 2.272234 l 1.32291,0.04502 c 0.72761,0.02476 1.64042,0.08123 2.02848,0.125486 0.38805,0.04425 2.05493,0.189093 3.70416,0.321868 1.64924,0.132775 3.49813,0.329018 4.10866,0.4361 1.06051,0.186002 1.11959,0.134214 1.3241,-1.160642 0.23521,-1.489227 0.49021,-4.595023 0.77746,-9.469223 0.2012,-3.414056 -0.27608,-6.541639 -2.18033,-14.287499 -0.81613,-3.319745 -1.00044,-4.858248 -1.01432,-8.466667 -0.0145,-3.776156 0.081,-4.561778 0.66466,-5.468055 1.03791,-1.611541 2.38905,-3.007095 3.446,-3.559272 2.40144,-1.254571 5.78723,-0.03322 6.73183,2.428365 0.13561,0.353399 0.60904,0.60174 1.14712,0.60174 0.50391,0 1.2311,0.168525 1.61597,0.3745 0.56736,0.303647 1.00825,0.170159 2.33034,-0.705556 1.81257,-1.200597 2.93686,-1.332113 4.78534,-0.559772 2.40905,1.006568 3.64849,3.708011 3.32983,7.257641 -0.16871,1.879244 -2.18621,7.44214 -2.78731,7.6855 -0.15975,0.06468 -0.29046,0.267738 -0.29046,0.451249 0,0.183512 -1.05514,1.95622 -2.34475,3.939353 -1.28962,1.983133 -2.7458,4.320071 -3.23597,5.193196 -1.29307,2.303335 -3.81857,9.119058 -4.97551,13.427713 l -1.00057,3.726325 2.86799,0.646292 c 1.57739,0.355462 4.25369,1.080174 5.94733,1.610473 2.21874,0.694714 3.16305,0.852974 3.37883,0.566272 0.77586,-1.030828 1.45353,-3.653854 1.25603,-4.861677 -0.33234,-2.032578 0.47676,-2.202222 4.10384,-0.860446 2.83047,1.04708 3.00471,1.171744 3.10741,2.22317 0.0791,0.809918 -0.0758,1.212663 -0.56752,1.475843 -0.38334,0.205161 -0.87444,1.094027 -1.13368,2.05191 -0.25154,0.929478 -0.58853,1.861429 -0.74885,2.071 -0.18834,0.246196 0.36162,0.667 1.55405,1.18909 4.3522,1.905551 5.81926,2.581476 7.36133,3.391616 0.89939,0.472497 1.78313,0.859085 1.96388,0.859085 0.3551,0 2.68147,-4.547524 4.51888,-8.833372 1.4221,-3.317131 2.1053,-6.296928 2.78726,-12.156906 0.77685,-6.675257 0.85706,-7.120671 1.86427,-10.353604 1.59467,-5.118505 4.93563,-8.167214 8.42588,-7.688823 0.84883,0.116346 1.85233,0.404509 2.23,0.640366 0.85402,0.533347 2.15098,2.792299 2.15098,3.746433 0,0.471018 0.53732,1.027087 1.5867,1.642064 1.4446,0.846592 1.71009,0.892898 2.96458,0.517045 2.12585,-0.636923 3.68273,-0.176332 5.13366,1.518751 1.22865,1.435399 1.41581,2.130139 1.26242,4.686102 -0.20265,3.376873 -3.67495,7.532634 -10.7232,12.833861 -2.54864,1.916913 -5.03313,3.940986 -5.5211,4.497941 -4.12675,4.710106 -5.77126,6.715489 -7.67385,9.357826 -1.20926,1.679434 -2.19865,3.195147 -2.19865,3.368252 0,0.173101 1.92497,1.656517 4.27771,3.296482 2.35275,1.639962 4.59406,3.212038 4.98069,3.493502 0.65185,0.474535 0.81292,0.386799 2.21466,-1.20632 0.83142,-0.94494 1.43016,-1.93052 1.33052,-2.190172 -0.19313,-0.503287 0.77891,-2.230539 1.25527,-2.230539 0.48718,0 5.2529,3.840063 5.47096,4.408321 0.32558,0.848441 -0.50406,2.292029 -1.33019,2.314547 -0.4527,0.01235 -1.23538,0.674776 -2.02842,1.716807 l -1.2913,1.69672 4.38786,4.326255 4.38787,4.326257 0.77177,-0.66321 c 2.96473,-2.54768 7.6225,-7.355837 8.82716,-9.112151 0.79182,-1.154423 2.62225,-4.408798 4.06763,-7.231945 3.52219,-6.879639 5.97421,-10.583259 8.14036,-12.295501 3.27225,-2.586566 7.17709,-2.736112 9.45242,-0.362006 0.87666,0.914717 1.0003,1.311529 1.0003,3.210154 0,1.870146 0.13268,2.311986 0.97014,3.230816 0.53358,0.585421 0.97014,1.187768 0.97014,1.338556 0,0.150788 0.64289,0.274157 1.42863,0.274157 5.47034,0 6.7031,6.717383 1.97994,10.788798 -1.86582,1.608364 -6.89698,4.004504 -10.99329,5.235678 -1.74625,0.524845 -4.1275,1.27503 -5.29167,1.667076 -2.49251,0.839388 -8.91658,4.314048 -12.17083,6.582978 -1.26118,0.87932 -2.7971,1.94542 -3.41316,2.36911 l -1.12009,0.77034 1.85865,2.47068 c 1.02226,1.35888 2.63532,3.66934 3.58456,5.13435 l 1.72591,2.66368 2.02927,-1.11426 c 1.11609,-0.61285 2.03115,-1.36033 2.03345,-1.66107 0.006,-0.78203 0.72373,-1.39347 1.63575,-1.39347 0.58131,0 1.05115,0.48038 1.81144,1.85208 0.5646,1.01865 1.32651,2.35586 1.69313,2.97159 0.65236,1.09562 0.65243,1.13514 0.004,1.85208 -0.36464,0.40292 -1.0562,0.73258 -1.5368,0.73258 -0.85089,0 -3.30787,1.2748 -3.54487,1.83926 -0.0651,0.15499 -0.26352,0.19207 -0.44097,0.0824 -0.61511,-0.38016 -0.31605,0.57676 1.02806,3.28965 0.7429,1.4994 1.87682,3.94282 2.51984,5.42981 1.26559,2.92673 1.08589,2.84523 3.71417,1.68449 8.74061,-3.86015 10.47698,-4.93835 15.48169,-9.6134 1.96257,-1.83329 4.04456,-3.74146 4.62664,-4.24037 0.58209,-0.49891 1.61396,-1.39456 2.29306,-1.99034 1.70419,-1.4951 5.84779,-3.497 7.76476,-3.7514 4.98821,-0.66197 8.54781,3.11227 6.82082,7.23212 -0.64005,1.52688 -0.64724,1.71663 -0.11873,3.13421 0.44291,1.18799 0.88599,1.66894 2.08318,2.26126 4.87239,2.41067 3.05066,9.0369 -2.96809,10.79588 -3.48687,1.01903 -4.49136,1.09721 -12.07468,0.93975 -4.87571,-0.10123 -8.8181,-0.0163 -10.26728,0.22131 -1.29386,0.21211 -2.93303,0.45672 -3.64258,0.54358 -1.42699,0.17469 -9.48637,2.14928 -9.71807,2.38098 -0.0804,0.0804 0.11048,1.07599 0.4241,2.2125 0.31363,1.1365 0.98753,3.81262 1.49758,5.94692 0.51004,2.13431 0.93753,3.90283 0.94997,3.93004 0.0125,0.0272 1.0511,-0.10832 2.30812,-0.3012 1.59118,-0.24414 2.43211,-0.56001 2.76814,-1.03976 0.31574,-0.45079 0.8014,-0.65162 1.40441,-0.58075 0.86037,0.10112 0.96345,0.31623 1.54755,3.22925 0.66798,3.33132 0.52076,4.22937 -0.75995,4.63585 -0.38093,0.1209 -0.97731,0.0675 -1.32529,-0.11878 -0.5249,-0.28092 -4.12799,0.10221 -4.61921,0.49118 -0.0605,0.0479 0.075,1.73092 0.30105,3.74007 0.38951,3.46182 0.53683,5.17477 0.64397,7.48771 l 0.0469,1.01251 4.14514,-0.2374 c 7.83264,-0.4486 11.48849,-1.30055 17.47889,-4.07323 6.27708,-2.90538 12.12394,-4.46912 15.24982,-4.07857 2.2327,0.27896 4.83802,1.82272 5.61641,3.32795 1.11517,2.1565 0.58378,4.75834 -1.31935,6.45989 -0.47283,0.42274 -0.69029,1.13 -0.73194,2.38051 -0.0529,1.58793 0.0643,1.89562 1.09041,2.8635 2.13907,2.01763 2.09849,4.75253 -0.10448,7.04063 -3.33116,3.45991 -9.73184,2.69012 -21.31657,-2.56369 -2.14604,-0.97326 -3.01686,-1.21397 -7.9375,-2.19414 -6.51885,-1.29852 -12.16891,-1.82746 -12.17385,-1.13968 -0.004,0.49416 -0.61705,7.74181 -0.87389,10.3238 l -0.17807,1.79012 2.15011,0.39986 c 1.73508,0.32267 2.29654,0.30719 2.90874,-0.0802 0.85673,-0.54212 2.35075,-0.16745 2.33919,0.58664 -0.0208,1.35559 -1.03492,6.00463 -1.40783,6.45397 -0.54697,0.65905 -1.70907,0.6759 -2.43801,0.0353 -0.59579,-0.52356 -4.14449,-1.38819 -4.58363,-1.11679 -0.14496,0.0896 -0.46288,1.08295 -0.7065,2.20746 -0.24362,1.12452 -0.91168,3.67694 -1.48456,5.67206 -0.57289,1.99511 -0.95425,3.76884 -0.84747,3.9416 0.10678,0.17278 0.70825,0.43645 1.33662,0.58594 1.43562,0.34155 1.39162,0.32857 2.02443,0.59729 0.60331,0.25619 2.40136,0.70608 6.70278,1.67711 2.69354,0.60806 3.93176,0.65576 12.17083,0.46891 5.98462,-0.13573 9.89128,-0.0749 11.24129,0.17499 4.00747,0.74183 6.81241,2.80791 7.66205,5.64374 0.8022,2.67752 -0.28292,4.88706 -3.0434,6.19699 -0.69823,0.33133 -1.21966,0.83978 -1.21966,1.18928 0,0.33578 -0.25018,0.96769 -0.55595,1.40424 -0.51302,0.73244 -0.4994,0.91056 0.17639,2.30654 0.88237,1.82275 0.9158,2.73708 0.15842,4.33314 -0.78679,1.65802 -1.95815,2.4911 -4.13937,2.94392 -2.49742,0.51846 -5.54426,-0.42418 -8.94638,-2.76787 -2.46234,-1.69628 -3.48782,-2.55242 -7.49585,-6.25805 -1.07329,-0.99231 -2.40703,-2.21878 -2.96387,-2.7255 -1.82799,-1.66342 -14.44285,-8.69947 -15.5972,-8.69947 -0.18031,0 -0.54526,0.51593 -0.81099,1.14652 -0.26573,0.63059 -1.41573,3.10802 -2.55556,5.50541 -2.15363,4.52969 -2.31153,4.98973 -1.71263,4.98973 0.19788,0 1.00888,0.40976 1.80222,0.91057 1.0149,0.64068 1.70477,0.84472 2.32753,0.68842 0.58945,-0.14794 1.10692,-0.0214 1.54917,0.37883 0.86776,0.78531 0.84,1.07632 -0.23741,2.48887 -0.49582,0.65005 -0.81233,1.32617 -0.70336,1.50248 0.10897,0.17631 0.0723,0.37381 -0.0814,0.4389 -0.15374,0.0651 -0.64812,0.64315 -1.09862,1.2846 -0.6317,0.89946 -1.03234,1.14159 -1.75115,1.05834 -0.52558,-0.0609 -1.06914,-0.41979 -1.24641,-0.82303 -0.26291,-0.59805 -4.08201,-3.22009 -4.24187,-2.9123 -0.0284,0.0548 -0.68181,1.05307 -1.45191,2.21841 -0.77011,1.16535 -1.55894,2.38155 -1.75297,2.70268 -0.19402,0.32112 -1.12357,1.58846 -2.06566,2.81631 l -1.71289,2.23245 1.36011,1.18589 c 2.15728,1.88095 7.51142,5.51512 9.8652,6.69609 1.1853,0.59471 4.83655,1.89782 8.11389,2.8958 7.2923,2.22057 10.32081,3.48289 12.74227,5.3111 5.47042,4.13021 4.53172,11.6117 -1.45693,11.6117 -0.69828,0 -1.2696,0.13557 -1.2696,0.30127 0,0.16569 -0.43177,0.761 -0.9595,1.32291 -0.84876,0.90375 -0.94699,1.25247 -0.85112,3.02168 0.10025,1.85006 0.0201,2.09414 -1.06898,3.25533 -0.76575,0.81647 -1.73232,1.39508 -2.76484,1.6551 -1.3895,0.34992 -1.84626,0.30159 -3.66213,-0.38753 -1.14104,-0.43303 -2.6944,-1.34725 -3.4519,-2.03161 -1.86186,-1.68208 -4.71732,-6.05069 -7.54464,-11.54267 -2.62804,-5.10487 -5.16026,-8.52779 -10.29018,-13.90971 l -3.50288,-3.67496 -1.56094,1.70216 c -0.85852,0.9362 -2.86571,2.97065 -4.46042,4.52101 l -2.89948,2.81884 1.43302,1.71159 c 0.92948,1.11016 1.71044,1.71159 2.22251,1.71159 0.4909,0 0.97674,0.3499 1.28461,0.92517 0.46986,0.87794 0.43239,0.9785 -0.73414,1.9703 -3.1905,2.71262 -4.14992,3.45453 -4.4673,3.45453 -0.58243,0 -1.96511,-1.6891 -1.71454,-2.09451 0.13014,-0.21058 -0.40886,-1.04134 -1.19777,-1.84615 -0.78891,-0.80481 -1.43438,-1.59542 -1.43438,-1.75692 0,-0.16151 -0.91281,0.3939 -2.02847,1.23423 -1.11566,0.84033 -3.29847,2.36875 -4.85069,3.39649 -1.55223,1.02774 -2.95157,1.98425 -3.10966,2.12559 -0.25281,0.22602 0.97979,2.2573 4.90507,8.08338 1.6707,2.47973 4.73631,5.29253 10.71286,9.82942 6.50578,4.93863 9.14792,7.83071 10.03179,10.98079 0.8191,2.91924 0.4777,4.77317 -1.18758,6.44911 -1.56944,1.57948 -2.82763,1.94034 -4.8652,1.39537 -1.37804,-0.36857 -1.65457,-0.33623 -2.54473,0.29763 -0.54928,0.39112 -1.252,0.71113 -1.5616,0.71113 -0.36123,0 -0.5629,0.30774 -0.5629,0.85898 0,2.07498 -1.38609,3.8327 -3.52854,4.47459 -1.88177,0.56379 -3.81439,-0.0187 -5.69302,-1.71595 -2.70392,-2.44283 -4.06701,-6.39257 -5.22053,-15.12717 -0.38757,-2.93477 -0.86263,-6.03039 -1.05568,-6.87917 -0.51516,-2.26495 -2.29045,-6.9961 -4.30753,-11.47953 l -1.77218,-3.93907 -1.6936,0.78465 c -0.93148,0.43157 -2.10905,1.05687 -2.61682,1.38957 -0.50776,0.33271 -0.92321,0.52996 -0.92321,0.43836 0,-0.0916 -0.94359,0.30161 -2.09688,0.87381 -1.15328,0.5722 -2.17482,1.04037 -2.27009,1.04037 -0.0953,0 -0.5641,0.14862 -1.04186,0.33026 l -0.86865,0.33027 0.7972,2.20165 c 0.52039,1.43718 1.04825,2.29452 1.52022,2.46912 1.03571,0.38313 1.33689,1.62514 0.59332,2.44677 -0.33446,0.36958 -0.73856,0.59133 -0.89801,0.4928 -0.15944,-0.0985 -1.24469,0.2227 -2.41166,0.71387 -1.16698,0.49117 -2.34008,0.89304 -2.60689,0.89304 -0.83808,0 -1.75983,-1.31655 -1.53192,-2.18808 0.11566,-0.44228 -0.11384,-1.68628 -0.51311,-2.78131 l -0.72236,-1.98114 -2.35313,0.65727 c -1.29421,0.3615 -3.97227,1.07258 -5.95124,1.58017 l -3.59812,0.92289 0.20347,1.10135 c 0.11191,0.60574 0.74804,3.24447 1.41362,5.86385 1.36088,5.35568 3.03327,8.85068 7.14129,14.92402 4.87733,7.2107 6.46583,11.54944 5.63938,15.40306 -0.48648,2.26836 -2.44855,4.43537 -4.33663,4.78958 -1.42977,0.26822 -3.41178,-0.29504 -4.23361,-1.20315 -0.49958,-0.55203 -0.81797,-0.58758 -2.5121,-0.28051 -1.06701,0.1934 -1.94002,0.46233 -1.94002,0.59763 0,0.66173 -2.10103,2.49599 -3.35138,2.92584 -1.20599,0.4146 -1.62859,0.41175 -2.90717,-0.0195 z"
       id="path826"
       inkscape:connector-curvature="0" />
  </g>
</svg>
