<?xml version="1.0" encoding="UTF-8" standalone="no"?>
<!-- Created with Inkscape (http://www.inkscape.org/) -->

<svg
   xmlns:dc="http://purl.org/dc/elements/1.1/"
   xmlns:cc="http://creativecommons.org/ns#"
   xmlns:rdf="http://www.w3.org/1999/02/22-rdf-syntax-ns#"
   xmlns:svg="http://www.w3.org/2000/svg"
   xmlns="http://www.w3.org/2000/svg"
   xmlns:sodipodi="http://sodipodi.sourceforge.net/DTD/sodipodi-0.dtd"
   xmlns:inkscape="http://www.inkscape.org/namespaces/inkscape"
   width="265.99414mm"
   height="223.2496mm"
   viewBox="0 0 265.99414 223.24961"
   version="1.1"
   id="svg8"
   inkscape:version="0.92.4 (5da689c313, 2019-01-14)"
   sodipodi:docname="Lego_Car_01-front.svg">
  <defs
     id="defs2" />
  <sodipodi:namedview
     id="base"
     pagecolor="#ffffff"
     bordercolor="#666666"
     borderopacity="1.0"
     inkscape:pageopacity="0.0"
     inkscape:pageshadow="2"
     inkscape:zoom="0.35"
     inkscape:cx="460.64403"
     inkscape:cy="379.58537"
     inkscape:document-units="mm"
     inkscape:current-layer="layer1"
     showgrid="false"
     fit-margin-top="0"
     fit-margin-left="0"
     fit-margin-right="0"
     fit-margin-bottom="0"
     inkscape:pagecheckerboard="true"
     inkscape:window-width="1600"
     inkscape:window-height="837"
     inkscape:window-x="-8"
     inkscape:window-y="-8"
     inkscape:window-maximized="1" />
  <metadata
     id="metadata5">
    <rdf:RDF>
      <cc:Work
         rdf:about="">
        <dc:format>image/svg+xml</dc:format>
        <dc:type
           rdf:resource="http://purl.org/dc/dcmitype/StillImage" />
        <dc:title></dc:title>
      </cc:Work>
    </rdf:RDF>
  </metadata>
  <g
     inkscape:label="Layer 1"
     inkscape:groupmode="layer"
     id="layer1"
     transform="translate(317.40137,-77.546344)">
    <path
       style="fill:#ffffff;fill-opacity:1;stroke:none;stroke-width:0.35277778"
       d="m -289.22026,300.63701 c -0.0873,-0.0873 -5.63031,-0.26202 -12.31783,-0.38829 -6.68751,-0.12628 -12.26662,-0.33268 -12.39802,-0.45867 -0.13139,-0.12598 -0.96483,-2.38584 -1.85208,-5.02191 l -1.61318,-4.79285 0.0209,-48.3002 0.0209,-48.30021 1.65498,-4.57578 c 1.31417,-3.63346 1.83658,-4.66766 2.53675,-5.02189 0.64329,-0.32545 3.38611,-0.4475 10.14217,-0.4513 l 9.26044,-0.005 v -3.16784 -3.16784 l -7.31885,-0.0953 -7.31884,-0.0954 -0.42287,-1.2915 c -0.23257,-0.71031 -0.62064,-3.91072 -0.86237,-7.112 -0.37416,-4.95512 -0.35791,-6.74477 0.10929,-12.03696 0.30183,-3.41905 0.62453,-6.29219 0.7171,-6.38476 0.15618,-0.15618 20.79445,-3.33555 21.65985,-3.33674 0.21434,-3e-4 2.99246,2.51711 6.17361,5.59425 l 5.78391,5.59479 0.17639,-35.49271 0.17639,-35.492712 5.01661,-0.0978 5.01662,-0.0978 0.0987,-4.488297 0.0987,-4.488293 12.32354,-0.09284 c 9.6244,-0.0725 12.38548,0.0048 12.6064,0.352778 0.15558,0.245089 0.2853,2.310931 0.28827,4.590757 l 0.005,4.145135 h 55.03333 55.03334 v -4.190135 c 0,-3.115198 0.12386,-4.292921 0.48277,-4.590796 0.3446,-0.285987 3.95415,-0.374075 12.61181,-0.307778 l 12.12902,0.09288 0.17639,4.409723 0.17639,4.409716 4.938889,0.17639 4.93889,0.17639 0.17639,35.510552 0.17639,35.51054 5.73271,-5.61262 c 3.15298,-3.08695 6.01048,-5.60972 6.35,-5.60616 1.09361,0.0115 21.32485,3.12099 21.50991,3.30606 0.0983,0.0983 0.42528,2.846 0.72662,6.10601 0.46288,5.00748 0.48221,6.87262 0.12464,12.0191 -0.23277,3.35049 -0.61722,6.68424 -0.85429,7.40833 l -0.43106,1.31653 -7.31887,0.0954 -7.31883,0.0953 v 3.14711 3.1471 l 9.68939,0.10893 c 8.03977,0.0904 9.77925,0.19902 10.21737,0.6381 0.29037,0.29104 1.2483,2.58431 2.12866,5.09614 l 1.60069,4.56697 v 48.07328 48.07327 l -1.63925,4.86253 c -0.9016,2.67439 -1.73503,4.96432 -1.85209,5.08873 -0.26998,0.28692 -12.21821,0.58558 -35.14142,0.87839 -15.766339,0.20139 -18.049769,0.16422 -18.435109,-0.30008 -0.2419,-0.29147 -1.15309,-2.62376 -2.02487,-5.18287 l -1.58503,-4.65293 v -11.62818 -11.62818 l -13.31736,0.0924 -13.31736,0.0924 -0.10005,4.21984 c -0.0671,2.83221 -0.24113,4.3095 -0.52917,4.49251 -0.49724,0.31596 -88.58536,0.37867 -89.75954,0.0639 -0.74729,-0.20032 -0.78772,-0.40634 -0.88194,-4.49309 l -0.0987,-4.28315 -13.31736,-0.0924 -13.31736,-0.0924 v 11.57241 11.5724 l -1.57542,4.69711 c -0.86648,2.58341 -1.75904,4.91836 -1.98347,5.18878 -0.3365,0.40546 -2.89539,0.49167 -14.59356,0.49167 -7.80203,0 -14.25693,-0.0714 -14.34421,-0.1587 z"
       id="path827"
       inkscape:connector-curvature="0"
       sodipodi:nodetypes="cccsccccccccccccscscscccccccscccccscsccccccccccccccccccccccccccsccccccccccccccccscscc" />
  </g>
</svg>
