<?xml version="1.0" encoding="UTF-8" standalone="no"?>
<!-- Created with Inkscape (http://www.inkscape.org/) -->

<svg
   width="398.63605mm"
   height="76.119316mm"
   viewBox="0 0 398.63605 76.119316"
   version="1.1"
   id="svg1"
   xml:space="preserve"
   inkscape:version="1.3 (0e150ed, 2023-07-21)"
   sodipodi:docname="Mount_Kilimanjaro-front.svg"
   xmlns:inkscape="http://www.inkscape.org/namespaces/inkscape"
   xmlns:sodipodi="http://sodipodi.sourceforge.net/DTD/sodipodi-0.dtd"
   xmlns="http://www.w3.org/2000/svg"
   xmlns:svg="http://www.w3.org/2000/svg"><sodipodi:namedview
     id="namedview1"
     pagecolor="#505050"
     bordercolor="#ffffff"
     borderopacity="1"
     inkscape:showpageshadow="0"
     inkscape:pageopacity="0"
     inkscape:pagecheckerboard="1"
     inkscape:deskcolor="#505050"
     inkscape:document-units="mm"
     inkscape:zoom="0.45968013"
     inkscape:cx="828.83721"
     inkscape:cy="208.84087"
     inkscape:current-layer="layer1" /><defs
     id="defs1" /><g
     inkscape:label="Layer 1"
     inkscape:groupmode="layer"
     id="layer1"
     transform="translate(107.58353,-124.63926)"><path
       style="fill:#ffffff;stroke:none;stroke-width:4.99999;stroke-linecap:round;stroke-linejoin:round"
       d="m 256.86049,185.05696 c -1.62834,-1.77117 -16.6748,-8.50057 -18.92454,-12.1645 -2.24974,-3.66394 -6.89057,-5.39483 -12.07087,-9.57824 -5.1803,-4.18341 -9.08592,-7.74355 -14.92501,-9.74803 -5.83909,-2.00448 -15.95556,-7.01675 -18.02818,-7.66308 -2.07262,-0.64633 -3.65521,-0.26185 -4.57541,-0.79589 -0.92021,-0.53405 -0.90218,-0.39418 -2.69925,-1.03464 -1.79707,-0.64047 -4.31735,-1.25648 -4.88131,-1.60225 -0.56396,-0.34578 -1.2459,-0.1592 -1.91571,-0.0926 -0.66982,0.0666 -4.16904,0.0353 -4.80881,-0.44963 -0.63977,-0.48492 -1.01264,0.37478 -2.10383,0.50764 -1.09119,0.13285 -2.07933,0.77565 -4.15095,-0.18298 -2.07161,-0.95863 -8.73316,-3.06513 -10.92614,-3.20815 -2.19299,-0.14302 -7.31921,-2.90625 -8.52127,-3.71652 -1.20207,-0.81028 -5.06854,-1.72831 -6.82706,-2.08714 -1.75851,-0.35883 -7.97783,-3.69359 -10.53487,-4.19723 -2.55704,-0.50363 -8.84294,-3.36123 -10.00471,-3.42424 -1.16177,-0.063 -2.08965,0.30144 -3.35991,-0.33112 -1.27025,-0.63256 -2.23169,-0.90154 -3.70923,-0.35279 -1.47754,0.54874 -1.06374,0.21137 -2.76357,0.41744 -1.69983,0.20608 -1.68766,0.24118 -3.47033,0.45177 -1.78267,0.21059 -4.03043,0.65666 -4.94781,0.3835 -0.91738,-0.27316 -2.63727,-0.0635 -3.63582,-0.17489 -0.998551,-0.1114 -3.338491,-0.0901 -4.551016,-0.27644 -1.212527,-0.18632 -3.586077,-0.37903 -4.68045,-0.62209 -1.094372,-0.24306 -1.940049,-0.52513 -3.616624,-0.40913 -1.676572,0.116 -3.0617,0.43579 -4.13826,0.61433 -1.076561,0.17853 -1.246389,-0.38396 -2.525321,0.0944 -1.278932,0.47838 -4.4928,1.57835 -5.053655,1.44074 -0.560859,-0.13762 -2.628718,1.16668 -3.305845,1.1601 -0.677127,-0.007 -2.537449,1.73897 -3.595415,2.01472 -1.057965,0.27575 -7.881342,4.30806 -10.395013,5.0248 -2.513671,0.71674 -7.888094,2.62774 -9.10254,2.7368 -1.214442,0.10906 -1.557425,0.99099 -3.318105,1.18864 -1.76068,0.19765 -2.882598,0.0746 -6.170017,1.1369 -3.287419,1.06231 -7.628387,2.40176 -9.68697,2.19148 -2.05858,-0.21029 -2.432735,0.46024 -4.274086,0.67267 -1.841351,0.21243 -3.627789,0.15018 -5.401975,0.67025 -1.774186,0.52008 -2.302021,0.0787 -4.819576,0.84641 -2.517555,0.76774 -11.2407334,7.73454 -15.80973,8.93833 -4.5689967,1.2038 -17.862627,4.47429 -22.362419,6.74878 -4.499792,2.27449 -12.68319,7.14855 -16.961196,8.18493 -4.278008,1.03639 -15.374019,7.41077 -23.244418,10.48116 -7.870402,3.07039 -18.634009,11.73631 -24.49482,13.10577 -5.860812,1.36947 -15.773429,6.24684 -19.151979,8.80163 h 398.63604 c -11.32865,-6.37927 -32.56368,-13.93044 -34.19202,-15.70161 z"
       id="path1"
       sodipodi:nodetypes="ssssssssssssssssssssssssssssscssssssssssssssccs" /></g></svg>
