<?xml version="1.0" encoding="UTF-8" standalone="no"?>
<!-- Created with Inkscape (http://www.inkscape.org/) -->

<svg
   xmlns:dc="http://purl.org/dc/elements/1.1/"
   xmlns:cc="http://creativecommons.org/ns#"
   xmlns:rdf="http://www.w3.org/1999/02/22-rdf-syntax-ns#"
   xmlns:svg="http://www.w3.org/2000/svg"
   xmlns="http://www.w3.org/2000/svg"
   xmlns:sodipodi="http://sodipodi.sourceforge.net/DTD/sodipodi-0.dtd"
   xmlns:inkscape="http://www.inkscape.org/namespaces/inkscape"
   width="98.510376mm"
   height="220.8494mm"
   viewBox="0 0 98.510377 220.8494"
   version="1.1"
   id="svg8"
   inkscape:version="0.92.4 (5da689c313, 2019-01-14)"
   sodipodi:docname="Starlink_Satellite-front.svg">
  <defs
     id="defs2" />
  <sodipodi:namedview
     id="base"
     pagecolor="#ffffff"
     bordercolor="#666666"
     borderopacity="1.0"
     inkscape:pageopacity="0.0"
     inkscape:pageshadow="2"
     inkscape:zoom="0.7"
     inkscape:cx="212.48449"
     inkscape:cy="292.63779"
     inkscape:document-units="mm"
     inkscape:current-layer="layer1"
     showgrid="false"
     inkscape:pagecheckerboard="true"
     inkscape:showpageshadow="false"
     borderlayer="true"
     fit-margin-top="0"
     fit-margin-left="0"
     fit-margin-right="0"
     fit-margin-bottom="0"
     inkscape:window-width="1600"
     inkscape:window-height="837"
     inkscape:window-x="-8"
     inkscape:window-y="-8"
     inkscape:window-maximized="1" />
  <metadata
     id="metadata5">
    <rdf:RDF>
      <cc:Work
         rdf:about="">
        <dc:format>image/svg+xml</dc:format>
        <dc:type
           rdf:resource="http://purl.org/dc/dcmitype/StillImage" />
        <dc:title></dc:title>
      </cc:Work>
    </rdf:RDF>
  </metadata>
  <g
     inkscape:label="Layer 1"
     inkscape:groupmode="layer"
     id="layer1"
     transform="translate(-37.577054,-59.949875)">
    <path
       style="fill:#ffffff;fill-opacity:1;stroke:none;stroke-width:0.05491174"
       d="m 136.02009,279.40105 c -0.0378,0.0114 -1.03234,0.25886 -2.2102,0.54997 -1.17786,0.29111 -2.23139,0.55303 -2.34118,0.58204 -0.12786,0.0338 -0.21015,0.093 -0.22889,0.16466 -0.0266,0.10173 -0.0659,0.11042 -0.43186,0.0957 -0.38505,-0.0155 -0.40331,-0.0223 -0.41883,-0.15541 -0.0142,-0.12141 -0.15438,-0.20905 -1.09823,-0.68639 l -1.08201,-0.54722 -1.30415,-0.0173 c -0.71729,-0.01 -1.30416,-0.0392 -1.30416,-0.0659 0,-0.0839 0.92632,-0.69918 1.47689,-0.98102 0.81107,-0.41519 1.84935,-0.73844 2.72386,-0.84804 0.0906,-0.0114 -0.606,-0.0244 -1.54801,-0.0289 -1.21881,-0.006 -1.72378,0.01 -1.75099,0.0536 -0.025,0.0404 -0.15232,0.0515 -0.36731,0.032 l -0.32909,-0.0298 0.0264,0.33864 c 0.0145,0.18625 0.0174,0.36426 0.006,0.39558 -0.0116,0.0332 -0.15812,0.0506 -0.35165,0.0416 -0.18712,-0.009 -0.31841,0.006 -0.30115,0.0342 0.0585,0.0947 -0.0298,0.21253 -0.13804,0.18423 -0.0885,-0.0231 -0.10628,-0.0773 -0.10628,-0.3234 v -0.29561 h -2.22392 -2.22393 v -0.21965 -0.21964 h -4.2282 c -3.7218,0 -4.22821,0.01 -4.22821,0.0824 0,0.0671 -0.0915,0.0824 -0.4942,0.0824 -0.40269,0 -0.49421,-0.0152 -0.49421,-0.0824 0,-0.0458 -0.0488,-0.0824 -0.10982,-0.0824 -0.061,0 -0.10983,0.0366 -0.10983,0.0824 0,0.0595 -0.061,0.0824 -0.21964,0.0824 -0.15864,0 -0.21965,-0.0229 -0.21965,-0.0824 0,-0.0549 -0.0549,-0.0824 -0.16473,-0.0824 -0.10983,0 -0.16474,0.0274 -0.16474,0.0824 0,0.0671 -0.0915,0.0824 -0.49421,0.0824 -0.40268,0 -0.4942,-0.0152 -0.4942,-0.0824 0,-0.0723 -0.40269,-0.0824 -3.29471,-0.0824 -2.89202,0 -3.2947,0.0101 -3.2947,0.0824 0,0.0595 -0.061,0.0824 -0.21965,0.0824 -0.15863,0 -0.21965,-0.0229 -0.21965,-0.0824 0,-0.0716 -0.2471,-0.0824 -1.89445,-0.0824 -1.64735,0 -1.89446,0.0107 -1.89446,0.0824 0,0.0595 -0.061,0.0824 -0.21964,0.0824 -0.15864,0 -0.21965,-0.0229 -0.21965,-0.0824 0,-0.0659 -0.0824,-0.0824 -0.41184,-0.0824 -0.32947,0 -0.41184,0.0165 -0.41184,0.0824 0,0.0671 -0.0915,0.0824 -0.4942,0.0824 -0.40269,0 -0.49421,-0.0152 -0.49421,-0.0824 0,-0.0641 -0.0732,-0.0824 -0.32947,-0.0824 -0.25625,0 -0.32947,0.0183 -0.32947,0.0824 0,0.0671 -0.0915,0.0824 -0.4942,0.0824 -0.40269,0 -0.49421,-0.0152 -0.49421,-0.0824 0,-0.0549 -0.0549,-0.0824 -0.16473,-0.0824 -0.11343,0 -0.16474,0.027 -0.16474,0.0866 0,0.0778 -0.16331,0.0826 -1.60617,0.0473 -0.88339,-0.0216 -1.6144,-0.0606 -1.62447,-0.0866 -0.0101,-0.026 -0.32513,-0.0473 -0.70012,-0.0473 h -0.68183 v 0.68639 0.6864 h -3.21233 -3.21234 v -0.6864 -0.68639 h -1.31745 c -1.13485,0 -1.31789,0.0114 -1.31789,0.0824 0,0.0645 -0.075,0.0824 -0.34526,0.0824 -0.34217,0 -0.3477,0.002 -0.61776,0.27724 -0.34894,0.35502 -0.67627,0.56253 -1.12362,0.71232 -0.2987,0.10002 -0.45185,0.11629 -0.93882,0.0998 -0.55548,-0.0188 -0.60317,-0.0303 -1.05067,-0.25202 -0.35243,-0.17463 -0.54533,-0.31496 -0.77717,-0.56539 -0.16962,-0.1832 -0.3084,-0.3564 -0.3084,-0.38488 0,-0.0315 -0.79573,-0.0518 -2.03173,-0.0518 -1.76938,0 -2.03174,0.0106 -2.03174,0.0824 0,0.0595 -0.061,0.0824 -0.21965,0.0824 -0.15863,0 -0.21964,-0.0229 -0.21964,-0.0824 0,-0.0723 -0.40574,-0.0824 -3.32216,-0.0824 -2.916427,0 -3.322164,0.0101 -3.322164,0.0824 0,0.0688 -0.112874,0.0824 -0.686397,0.0824 -0.573522,0 -0.686396,-0.0135 -0.686396,-0.0824 0,-0.068 -0.100672,-0.0824 -0.576574,-0.0824 -0.475902,0 -0.576573,0.0144 -0.576573,0.0824 0,0.0674 -0.09457,0.0824 -0.521662,0.0824 -0.427091,0 -0.521661,-0.0149 -0.521661,-0.0824 0,-0.0677 -0.09762,-0.0824 -0.549118,-0.0824 -0.451496,0 -0.549117,0.0146 -0.549117,0.0824 0,0.0703 -0.152533,0.0824 -1.043323,0.0824 -0.890791,0 -1.043324,-0.012 -1.043324,-0.0824 0,-0.0722 -0.372179,-0.0824 -3.020146,-0.0824 h -3.020146 v 0.21964 0.21965 H 48.91633 46.582581 v -0.21965 -0.21964 h -0.548099 c -0.301454,0 -0.722677,0.0299 -0.936052,0.0665 -0.303791,0.0521 -0.411063,0.0521 -0.494479,0 -0.06114,-0.0382 -0.276453,-0.0637 -0.505382,-0.0598 l -0.398855,0.007 0.328315,0.0478 c 0.919876,0.13396 2.039208,0.51963 2.83884,0.97813 0.537677,0.3083 1.198329,0.77009 1.198329,0.83763 0,0.0247 -0.549075,0.0449 -1.220166,0.0449 h -1.220166 l -1.165771,0.55869 c -1.038383,0.49764 -1.16757,0.57415 -1.182223,0.70012 -0.01581,0.1359 -0.03223,0.14207 -0.41905,0.15766 -0.363266,0.0146 -0.405396,0.006 -0.431231,-0.0933 -0.02485,-0.095 -0.34739,-0.18782 -2.439085,-0.70181 -1.325749,-0.32578 -2.410452,-0.61867 -2.410452,-0.65086 0,-0.084 1.098587,-0.79971 1.639043,-1.06773 0.8674,-0.43017 1.99595,-0.74442 2.904904,-0.80889 l 0.453022,-0.0321 v -0.24562 -0.24561 l 0.892316,0.0362 0.892316,0.0362 0.101996,-0.14381 c 0.101932,-0.14373 0.101889,-0.14393 -0.06942,-0.31141 -0.205153,-0.20058 -0.257358,-0.3749 -0.191426,-0.6392 0.06272,-0.25142 0.340266,-0.44733 0.633721,-0.44733 0.132517,0 0.211595,-0.0256 0.211709,-0.0686 1.09e-4,-0.0382 0.335589,-0.19125 0.755036,-0.34458 l 0.754855,-0.27593 0.01587,-0.4791 0.01587,-0.47911 h 2.331611 2.331611 v 0.46675 0.46675 h 2.141558 2.141558 v -0.98841 -0.98841 h -1.674808 -1.674808 v -2.96696 c 0,-2.58664 -0.01056,-2.97101 -0.08237,-2.99856 -0.123029,-0.0472 -0.123029,-2.07915 0,-2.12636 0.122648,-0.0471 0.122648,-1.51767 0,-1.51767 -0.0704,0 -0.08237,-0.15559 -0.08237,-1.07078 0,-0.9152 0.01197,-1.07078 0.08237,-1.07078 0.07271,0 0.08237,-0.69879 0.08237,-5.95965 0,-5.24681 -0.0099,-5.96343 -0.08237,-5.99125 -0.123029,-0.0472 -0.123029,-2.07915 0,-2.12637 0.0676,-0.0259 0.08237,-0.16482 0.08237,-0.77464 0,-0.62386 -0.01321,-0.74303 -0.08237,-0.74303 -0.0704,0 -0.08237,-0.15558 -0.08237,-1.07078 0,-0.91519 0.01197,-1.07077 0.08237,-1.07077 0.07271,0 0.08237,-0.6988 0.08237,-5.95965 0,-5.24681 -0.0099,-5.96343 -0.08237,-5.99126 -0.06917,-0.0265 -0.08237,-0.19688 -0.08237,-1.06318 0,-0.8663 0.0132,-1.03663 0.08237,-1.06318 0.122648,-0.0471 0.122648,-1.51767 0,-1.51767 -0.0704,0 -0.08237,-0.15558 -0.08237,-1.07078 0,-0.9152 0.01197,-1.07078 0.08237,-1.07078 0.07271,0 0.08237,-0.69879 0.08237,-5.95964 0,-5.24681 -0.0099,-5.96343 -0.08237,-5.99126 -0.123048,-0.0472 -0.123048,-2.09434 0,-2.14156 0.121955,-0.0468 0.121955,-1.47553 0,-1.52233 -0.123508,-0.0474 -0.123508,-2.1217 0,-2.1217 0.07271,0 0.08237,-0.69879 0.08237,-5.95965 0,-5.2468 -0.0099,-5.96342 -0.08237,-5.99125 -0.123048,-0.0472 -0.123048,-2.09434 0,-2.14156 0.0675,-0.0259 0.08237,-0.16332 0.08237,-0.76116 0,-0.59784 -0.01487,-0.73527 -0.08237,-0.76117 -0.123508,-0.0474 -0.123508,-2.1217 0,-2.1217 0.07271,0 0.08237,-0.69879 0.08237,-5.95965 0,-5.2468 -0.0099,-5.96342 -0.08237,-5.99125 -0.123048,-0.0472 -0.123048,-2.09434 0,-2.14156 0.121955,-0.0468 0.121955,-1.47554 0,-1.52233 -0.123508,-0.0474 -0.123508,-2.1217 0,-2.1217 0.07271,0 0.08237,-0.69879 0.08237,-5.95965 0,-5.24681 -0.0099,-5.96343 -0.08237,-5.99126 -0.0692,-0.0266 -0.08237,-0.19772 -0.08237,-1.07077 0,-0.87306 0.01317,-1.04423 0.08237,-1.07078 0.121955,-0.0468 0.121955,-1.47554 0,-1.52233 -0.06922,-0.0266 -0.08237,-0.19838 -0.08237,-1.07666 0,-0.89232 0.01204,-1.04504 0.08237,-1.04504 0.07271,0 0.08237,-0.6988 0.08237,-5.95965 0,-5.24681 -0.0099,-5.96343 -0.08237,-5.99126 -0.123048,-0.0472 -0.123048,-2.09434 0,-2.14156 0.121955,-0.0468 0.121955,-1.47553 0,-1.52233 -0.123048,-0.0472 -0.123048,-2.09433 0,-2.14155 0.07251,-0.0278 0.08237,-0.74159 0.08237,-5.96553 0,-5.22393 -0.0099,-5.93769 -0.08237,-5.96552 -0.123048,-0.0472 -0.123048,-2.09434 0,-2.14156 0.121955,-0.0468 0.121955,-1.47553 0,-1.52233 -0.123048,-0.0472 -0.123048,-2.09434 0,-2.14155 0.07252,-0.0278 0.08237,-0.74445 0.08237,-5.99126 0,-5.26086 -0.0097,-5.95965 -0.08237,-5.95965 -0.123508,0 -0.123508,-2.07431 0,-2.1217 0.121955,-0.0468 0.121955,-1.47553 0,-1.52233 -0.123048,-0.0472 -0.123048,-2.09434 0,-2.14156 0.07252,-0.0278 0.08237,-0.74445 0.08237,-5.991252 0,-5.260858 -0.0097,-5.959648 -0.08237,-5.959648 -0.123508,0 -0.123508,-2.074308 0,-2.121702 0.121955,-0.0468 0.121955,-1.475533 0,-1.522329 -0.123048,-0.04722 -0.123048,-2.094339 0,-2.141558 0.07252,-0.02783 0.08237,-0.744449 0.08237,-5.991255 0,-5.260858 -0.0097,-5.959648 -0.08237,-5.959648 -0.123508,0 -0.123508,-2.074308 0,-2.121702 0.121955,-0.0468 0.121955,-1.475533 0,-1.522329 -0.123048,-0.04722 -0.123048,-2.094339 0,-2.141558 0.07181,-0.02755 0.08237,-0.411926 0.08237,-2.998565 v -2.966959 h 30.970222 30.97023 v 2.966959 c 0,2.586639 0.0106,2.97101 0.0824,2.998565 0.0692,0.02656 0.0824,0.197726 0.0824,1.070779 0,0.873053 -0.0132,1.044223 -0.0824,1.070779 -0.0675,0.0259 -0.0824,0.163324 -0.0824,0.761164 0,0.597841 0.0149,0.735263 0.0824,0.761165 0.0692,0.02657 0.0824,0.19838 0.0824,1.076654 0,0.892322 -0.012,1.045048 -0.0824,1.045048 -0.0727,0 -0.0824,0.69879 -0.0824,5.959648 0,5.246806 0.01,5.963426 0.0824,5.991255 0.12304,0.04722 0.12304,2.094339 0,2.141558 -0.0675,0.0259 -0.0824,0.163324 -0.0824,0.761164 0,0.597841 0.0149,0.735263 0.0824,0.761165 0.0692,0.02657 0.0824,0.19838 0.0824,1.076654 0,0.892322 -0.012,1.045048 -0.0824,1.045048 -0.0727,0 -0.0824,0.69879 -0.0824,5.959648 0,5.246802 0.01,5.963422 0.0824,5.991252 0.0692,0.0266 0.0824,0.19773 0.0824,1.07078 0,0.87305 -0.0132,1.04423 -0.0824,1.07078 -0.12196,0.0468 -0.12196,1.47553 0,1.52233 0.0692,0.0266 0.0824,0.19838 0.0824,1.07665 0,0.89233 -0.012,1.04505 -0.0824,1.04505 -0.0727,0 -0.0824,0.69879 -0.0824,5.95965 0,5.24681 0.01,5.96343 0.0824,5.99126 0.0692,0.0266 0.0824,0.19772 0.0824,1.07077 0,0.87306 -0.0132,1.04423 -0.0824,1.07078 -0.12196,0.0468 -0.12196,1.47554 0,1.52233 0.0692,0.0266 0.0824,0.19773 0.0824,1.07078 0,0.87305 -0.0132,1.04422 -0.0824,1.07078 -0.0725,0.0278 -0.0824,0.74159 -0.0824,5.96552 0,5.22394 0.01,5.9377 0.0824,5.96553 0.0692,0.0266 0.0824,0.19772 0.0824,1.07078 0,0.87305 -0.0132,1.04422 -0.0824,1.07077 -0.0675,0.0259 -0.0824,0.16333 -0.0824,0.76117 0,0.59784 0.0149,0.73526 0.0824,0.76116 0.12304,0.0472 0.12304,2.09434 0,2.14156 -0.0725,0.0278 -0.0824,0.74445 -0.0824,5.99126 0,5.26085 0.01,5.95965 0.0824,5.95965 0.0703,0 0.0824,0.15272 0.0824,1.04504 0,0.87828 -0.0131,1.05009 -0.0824,1.07666 -0.12196,0.0468 -0.12196,1.47553 0,1.52233 0.0692,0.0265 0.0824,0.19772 0.0824,1.07078 0,0.87305 -0.0132,1.04422 -0.0824,1.07077 -0.0725,0.0278 -0.0824,0.74445 -0.0824,5.99126 0,5.26086 0.01,5.95965 0.0824,5.95965 0.0703,0 0.0824,0.15272 0.0824,1.04504 0,0.87828 -0.0131,1.05009 -0.0824,1.07666 -0.12196,0.0468 -0.12196,1.47553 0,1.52233 0.12304,0.0472 0.12304,2.09434 0,2.14156 -0.0725,0.0278 -0.0824,0.74445 -0.0824,5.99125 0,5.26086 0.01,5.95965 0.0824,5.95965 0.0703,0 0.0824,0.15273 0.0824,1.04505 0,0.87827 -0.0131,1.05008 -0.0824,1.07665 -0.0675,0.0259 -0.0824,0.16333 -0.0824,0.76117 0,0.59784 0.0149,0.73526 0.0824,0.76116 0.0692,0.0266 0.0824,0.19773 0.0824,1.07078 0,0.87305 -0.0132,1.04422 -0.0824,1.07078 -0.0725,0.0278 -0.0824,0.74445 -0.0824,5.99125 0,5.26086 0.01,5.95965 0.0824,5.95965 0.0703,0 0.0824,0.15273 0.0824,1.04505 0,0.87827 -0.0131,1.05009 -0.0824,1.07665 -0.0675,0.0259 -0.0824,0.16333 -0.0824,0.76117 0,0.59784 0.0149,0.73526 0.0824,0.76116 0.0692,0.0266 0.0824,0.19773 0.0824,1.07078 0,0.87305 -0.0132,1.04422 -0.0824,1.07078 -0.0725,0.0278 -0.0824,0.74445 -0.0824,5.99126 0,5.26085 0.01,5.95964 0.0824,5.95964 0.0704,0 0.0824,0.15558 0.0824,1.07078 0,0.9152 -0.012,1.07078 -0.0824,1.07078 -0.0692,0 -0.0824,0.11917 -0.0824,0.74303 0,0.60982 0.0148,0.7487 0.0824,0.77464 0.0692,0.0265 0.0824,0.19688 0.0824,1.06318 0,0.8663 -0.0132,1.03664 -0.0824,1.06318 -0.0725,0.0278 -0.0824,0.74445 -0.0824,5.99126 0,5.26085 0.01,5.95965 0.0824,5.95965 0.0704,0 0.0824,0.15558 0.0824,1.07077 0,0.9152 -0.012,1.07078 -0.0824,1.07078 -0.0692,0 -0.0824,0.11917 -0.0824,0.74303 0,0.60982 0.0148,0.7487 0.0824,0.77464 0.0692,0.0266 0.0824,0.19689 0.0824,1.06319 0,0.86629 -0.0132,1.03663 -0.0824,1.06318 -0.0725,0.0278 -0.0824,0.74444 -0.0824,5.99125 0,5.26086 0.01,5.95965 0.0824,5.95965 0.0704,0 0.0824,0.15558 0.0824,1.07078 0,0.91519 -0.012,1.07078 -0.0824,1.07078 -0.0692,0 -0.0824,0.11916 -0.0824,0.74303 0,0.60981 0.0148,0.7487 0.0824,0.77464 0.0692,0.0265 0.0824,0.19688 0.0824,1.06318 0,0.8663 -0.0132,1.03663 -0.0824,1.06318 -0.0718,0.0275 -0.0824,0.41192 -0.0824,2.99856 v 2.96696 h -2.3858 -2.3858 l -0.48334,0.48732 c -0.26787,0.27007 -0.62527,0.56682 -0.80172,0.66567 l -0.31838,0.17835 0.0164,0.28156 c 0.0135,0.23284 0.033,0.27876 0.11246,0.26542 0.0528,-0.009 0.0961,0.01 0.0961,0.0412 0,0.0395 1.948,0.0573 6.25994,0.0573 h 6.25994 v -0.46675 -0.46675 h 2.33375 2.33375 l 7.7e-4,0.42557 c 0.001,0.65441 0.0101,0.67062 0.36198,0.65468 0.33183,-0.015 0.31644,-0.0392 0.29787,0.46826 l -0.0114,0.313 0.34809,0.0165 0.34809,0.0165 0.0155,0.65289 0.0155,0.6529 2.27702,-0.0268 2.27704,-0.0268 v 0.23069 0.2307 l 0.47052,0.0362 c 1.3311,0.10232 2.69326,0.59149 3.90604,1.4027 0.27504,0.18398 0.52715,0.33451 0.56024,0.33451 0.0833,0 0.0759,0.16343 -0.008,0.18887 z m -4.00856,-0.0212 -3.58299,0.003 1.01486,0.51168 c 0.9553,0.48164 1.02217,0.50688 1.13942,0.43006 0.0718,-0.0471 0.12456,-0.13704 0.12456,-0.21258 0,-0.0944 0.0307,-0.13096 0.10982,-0.13096 0.0795,0 0.10982,0.0366 0.10982,0.1328 0,0.0918 0.0577,0.16844 0.18686,0.24829 l 0.18687,0.11548 2.14688,-0.536 c 1.18079,-0.2948 2.14689,-0.54244 2.14689,-0.5503 0,-0.008 -1.61234,-0.013 -3.58299,-0.0114 z m -25.63006,-4.83515 c -0.54911,0 -0.87859,0.0206 -0.87859,0.0549 0,0.0302 0.0371,0.0549 0.0824,0.0549 0.0453,0 0.0824,0.0247 0.0824,0.0549 0,0.0339 0.28005,0.0549 0.73033,0.0549 0.69687,0 0.86211,-0.0337 0.86211,-0.17572 0,-0.0242 -0.39536,-0.0439 -0.87859,-0.0439 z m -0.63148,-1.75718 h -0.24711 v 0.72058 c 0,0.60865 0.0119,0.71074 0.0763,0.65728 0.0467,-0.0388 0.0844,-0.20769 0.0973,-0.43616 0.0152,-0.26887 0.0616,-0.44837 0.16622,-0.64356 0.0798,-0.14888 0.14722,-0.27686 0.14977,-0.28441 0.003,-0.008 -0.10658,-0.0137 -0.24248,-0.0137 z m -1.54223,0.27456 c -0.10277,0.38883 -0.31462,0.6893 -0.63562,0.90155 -0.21182,0.14006 -0.25915,0.20236 -0.27456,0.36142 l -0.0186,0.19219 -0.50793,0.0158 c -0.27937,0.009 -0.50794,0.029 -0.50794,0.0451 0,0.0161 0.0353,0.0646 0.0785,0.10777 0.061,0.061 0.262,0.0784 0.90604,0.0784 0.51512,0 0.8276,-0.0207 0.8276,-0.0549 0,-0.0302 0.0494,-0.0549 0.10982,-0.0549 0.10572,0 0.10969,-0.0354 0.10621,-0.94723 -0.004,-0.93359 -0.005,-0.94288 -0.0834,-0.64521 z m -3.05663,1.47095 -0.50793,-0.0158 -0.0171,-0.20592 c -0.009,-0.11325 -0.0376,-0.20592 -0.0627,-0.20592 -0.0251,0 -0.16994,-0.11174 -0.32184,-0.24831 -0.30571,-0.27486 -0.50446,-0.62737 -0.50446,-0.89472 v -0.17485 H 98.54485 97.3526 l -0.23545,0.23108 -0.23546,0.23108 v 0.69144 c 0,0.46457 0.0216,0.71305 0.0659,0.75733 0.0491,0.0491 0.6375,0.0659 2.30862,0.0659 2.21717,0 2.39199,-0.0128 2.40073,-0.1764 10e-4,-0.0215 -0.22649,-0.0462 -0.50585,-0.0549 z M 95.975,273.8275 c -0.6369,0.62614 -0.75407,0.71947 -0.82714,0.65883 -0.0738,-0.0613 0.0225,-0.17847 0.7276,-0.88473 l 0.81272,-0.81408 h -1.69243 c -0.93083,0 -1.68293,0.0185 -1.67132,0.0412 0.23545,0.45942 0.28813,0.62185 0.2902,0.89481 0.002,0.21339 0.0374,0.35986 0.11944,0.48951 0.20076,0.31708 0.16383,0.33168 -0.83931,0.33168 -0.49509,0 -0.90016,0.0158 -0.90016,0.0351 0,0.0193 0.0432,0.0679 0.0961,0.10807 0.13614,0.10335 4.42729,0.11071 4.54418,0.008 0.0601,-0.0529 0.0784,-0.24364 0.08,-0.83316 l 0.002,-0.76453 z m 0.27504,-0.43575 c -0.0754,0.0708 -0.13706,0.15379 -0.13706,0.18438 0,0.0306 0.0739,-0.0152 0.16416,-0.10166 0.0903,-0.0865 0.15197,-0.16948 0.13706,-0.18438 -0.0149,-0.0149 -0.0888,0.0308 -0.16416,0.10166 z m -4.83772,0.61236 c -0.0506,-0.0723 -0.12186,-0.11276 -0.16758,-0.0952 -0.0507,0.0195 -0.0653,0.007 -0.0402,-0.0331 0.0261,-0.0422 0.009,-0.0521 -0.0503,-0.0292 -0.0493,0.0189 -0.10658,0.007 -0.12732,-0.0266 -0.025,-0.0405 -0.0118,-0.0454 0.0394,-0.0145 0.0655,0.0395 0.0659,0.0326 0.002,-0.0458 -0.0412,-0.0508 -0.0973,-0.0784 -0.12484,-0.0614 -0.0719,0.0445 -0.56754,-0.38562 -0.77121,-0.66924 l -0.17338,-0.24144 h -3.12066 -3.12067 v 0.2471 0.24711 h 2.82796 2.82795 v 0.7413 0.74131 h 0.93026 c 0.60052,0 0.94311,-0.0208 0.96651,-0.0587 0.0199,-0.0323 0.0708,-0.0454 0.11307,-0.0292 0.11355,0.0436 0.10433,-0.50738 -0.0113,-0.6724 z M 78.2392,272.78752 h -4.31057 v 0.98841 0.98841 h 0.56928 0.56927 l 0.13743,-0.20592 c 0.39973,-0.59891 1.09464,-1.04788 1.80897,-1.16876 0.97955,-0.16575 2.08606,0.29331 2.62655,1.08967 l 0.19151,0.28218 1.27902,0.001 c 0.94673,10e-4 1.29927,-0.0164 1.35698,-0.0672 0.0613,-0.054 0.0784,-0.26476 0.08,-0.98841 l 0.002,-0.91977 z m -36.63986,6.5946 -3.610448,0.005 2.200522,0.55456 2.200522,0.55455 0.174411,-0.12419 c 0.114084,-0.0812 0.174411,-0.17038 0.174411,-0.25773 0,-0.0969 0.03011,-0.13354 0.109824,-0.13354 0.07986,0 0.109823,0.0366 0.109823,0.13416 0,0.0746 0.05187,0.1705 0.116799,0.21598 0.108923,0.0763 0.184828,0.0478 1.125691,-0.42177 0.554891,-0.27696 1.008892,-0.51006 1.008892,-0.51798 0,-0.008 -1.624701,-0.0121 -3.610447,-0.009 z"
       id="path856"
       inkscape:connector-curvature="0" />
  </g>
</svg>
