<?xml version="1.0" encoding="UTF-8" standalone="no"?>
<!-- Created with Inkscape (http://www.inkscape.org/) -->

<svg
   xmlns:dc="http://purl.org/dc/elements/1.1/"
   xmlns:cc="http://creativecommons.org/ns#"
   xmlns:rdf="http://www.w3.org/1999/02/22-rdf-syntax-ns#"
   xmlns:svg="http://www.w3.org/2000/svg"
   xmlns="http://www.w3.org/2000/svg"
   xmlns:sodipodi="http://sodipodi.sourceforge.net/DTD/sodipodi-0.dtd"
   xmlns:inkscape="http://www.inkscape.org/namespaces/inkscape"
   width="155.5515mm"
   height="304.39328mm"
   viewBox="0 0 155.5515 304.39328"
   version="1.1"
   id="svg8"
   inkscape:version="0.92.4 (5da689c313, 2019-01-14)"
   sodipodi:docname="Starlink_Satellite-top.svg">
  <defs
     id="defs2" />
  <sodipodi:namedview
     id="base"
     pagecolor="#ffffff"
     bordercolor="#666666"
     borderopacity="1.0"
     inkscape:pageopacity="0.0"
     inkscape:pageshadow="2"
     inkscape:zoom="0.35"
     inkscape:cx="250.61404"
     inkscape:cy="566.95251"
     inkscape:document-units="mm"
     inkscape:current-layer="layer1"
     showgrid="false"
     inkscape:pagecheckerboard="true"
     inkscape:showpageshadow="false"
     borderlayer="true"
     fit-margin-top="0"
     fit-margin-left="0"
     fit-margin-right="0"
     fit-margin-bottom="0"
     inkscape:window-width="1600"
     inkscape:window-height="837"
     inkscape:window-x="-8"
     inkscape:window-y="-8"
     inkscape:window-maximized="1" />
  <metadata
     id="metadata5">
    <rdf:RDF>
      <cc:Work
         rdf:about="">
        <dc:format>image/svg+xml</dc:format>
        <dc:type
           rdf:resource="http://purl.org/dc/dcmitype/StillImage" />
        <dc:title></dc:title>
      </cc:Work>
    </rdf:RDF>
  </metadata>
  <g
     inkscape:label="Layer 1"
     inkscape:groupmode="layer"
     id="layer1"
     transform="translate(-32.721463,-7.2974245)">
    <path
       style="fill:#ffffff;fill-opacity:1;stroke:none;stroke-width:0.17129764"
       d="m 32.769425,67.544404 0.0523,-0.81727 2.85971,-2.4417 c 1.57283,-1.34293 4.02329,-3.42147 5.44545,-4.61898 l 2.58575,-2.1773 5.42526,-0.0452 5.42527,-0.0453 -3.9427,-6.5422 c -2.35467,-3.90715 -3.94269,-6.71518 -3.94269,-6.97166 0,-0.29082 -0.1967,-0.57949 -0.60929,-0.89419 -0.53201,-0.40578 -0.8352,-0.48235 -2.39044,-0.60374 -2.89893,-0.22624 -4.94848,-1.30357 -6.50659,-3.42012 -1.01999,-1.38555 -1.4759,-2.66354 -1.5826,-4.43632 -0.15222,-2.52909 0.62445,-4.64152 2.32983,-6.33681 3.25249,-3.23323 8.22627,-3.43622 11.59254,-0.47311 0.92676,0.81577 1.98347,2.38223 2.49241,3.69477 0.35277,0.90976 0.51461,1.09081 1.74461,1.9516 1.2627,0.88368 1.39872,0.93882 1.9818,0.80332 0.34432,-0.08 1.39688,-0.14867 2.33902,-0.15256 l 1.71298,-0.007 3.76654,-4.10816 3.76656,-4.10818 6.8539,-0.005 6.8539,-0.005 1.98387,-1.6647 c 1.09112,-0.91559 2.64222,-2.22356 3.44687,-2.90661 0.80465,-0.68304 1.56922,-1.24385 1.69903,-1.24622 0.24359,-0.004 1.34946,-2.43678 1.34946,-2.9681 0,-0.1638 0.21111,-0.50629 0.46914,-0.76109 0.25802,-0.25481 0.80098,-0.91133 1.20659,-1.45893 4.08743,-5.5184102 11.306855,-8.3944102 18.129535,-7.2222202 4.79352,0.82356 9.11754,3.4426002 11.92384,7.2222202 0.40659,0.5476 0.94434,1.21325 1.19501,1.47922 0.25066,0.26597 0.45294,0.61285 0.44951,0.77084 -0.003,0.15799 0.27059,0.90863 0.60893,1.66807 0.33834,0.75945 0.77631,2.03133 0.97328,2.82641 0.38723,1.56311 0.98328,2.50855 1.21359,1.92499 0.0669,-0.16945 0.12701,-1.39948 0.13364,-2.73341 l 0.012,-2.42531 3.3403,-0.0197 3.34031,-0.0197 v 0.78845 c 0,0.43365 -0.0867,1.52342 -0.19262,2.4217 -0.15485,1.31301 -0.1492,1.66007 0.0288,1.7701 0.16395,0.10133 0.23465,0.90796 0.27226,3.10664 0.0279,1.63338 0.0535,3.01488 0.0568,3.07 0.003,0.0551 0.69976,0.66101 1.54769,1.34643 l 1.54168,1.24621 v 3.63917 3.63919 l 0.98496,0.91195 c 1.27702,1.18236 3.07959,2.87077 4.60076,4.30938 l 1.21191,1.14614 8.3779,0.0288 c 20.43448,0.0704 19.59653,0.0514 19.91355,0.45147 0.15613,0.19703 0.65003,0.77983 1.09754,1.2951 l 0.81367,0.93685 v 49.06244 49.062506 l -1.19909,2.12066 -1.19908,2.12066 v 1.76393 1.76393 l 0.77084,0.53036 c 0.42396,0.29169 0.77084,0.6049 0.77084,0.69601 0,0.0911 -0.23839,0.58806 -0.52974,1.10432 l -0.52975,0.93865 1.20392,-0.51231 c 1.8154,-0.77252 3.01176,-1.02759 4.8198,-1.02759 3.15559,0 5.7071,1.06532 7.98098,3.33227 1.54678,1.54207 2.22593,2.62078 2.91697,4.63307 0.64937,1.89097 0.6884,4.67214 0.0925,6.59496 -1.49289,4.81757 -5.39577,7.98719 -10.26006,8.33248 -1.7881,0.12693 -3.38066,-0.1109 -4.95019,-0.73923 -0.60601,-0.2426 -1.13232,-0.41061 -1.16958,-0.37335 -0.0373,0.0372 0.0538,0.31873 0.20241,0.62553 0.14858,0.30679 0.24019,0.57929 0.20359,0.60557 -0.0366,0.0263 -0.39416,0.30039 -0.79457,0.60912 l -0.72802,0.56134 v 1.7736 1.77361 l 1.19909,2.05299 1.19908,2.05298 v 33.37354 33.37356 l -2.43544,1.92696 -2.43545,1.92699 h -4.24232 -4.24232 l -0.0457,4.49656 -0.0457,4.49656 -10.66328,0.0441 -10.66328,0.0441 v 16.84762 16.8476 l -1.4975,1.43712 c -1.80306,1.73035 -3.81361,3.756 -4.12479,4.1558 -0.18114,0.23273 -0.1898,0.58937 -0.0433,1.7838 0.10071,0.82112 0.18332,1.85908 0.18359,2.3066 l 4.9e-4,0.81366 h -3.34031 -3.34031 v -2.20546 c 0,-1.21299 -0.0482,-2.44633 -0.10705,-2.74076 l -0.10707,-0.5353 h -7.77262 -7.77263 v 1.54167 1.54168 h -0.94214 c -0.72326,0 -0.94214,-0.0597 -0.94214,-0.25694 0,-0.21413 -0.3426,-0.25695 -2.05557,-0.25695 -1.74374,0 -2.05557,0.0403 -2.05557,0.26591 0,0.21312 -0.17843,0.25561 -0.89931,0.21412 l -0.89931,-0.0518 v -1.49873 -1.49873 l -1.08216,-1.2e-4 c -0.9929,-1.1e-4 -1.07346,0.0273 -0.97673,0.33204 0.1114,0.35097 -0.430325,0.79662 -0.682075,0.56112 -0.072,-0.0673 -0.0786,0.16662 -0.0148,0.51992 0.10638,0.58844 0.0831,0.64288 -0.27705,0.6484 -0.21625,0.003 -3.11473,0.008 -6.44106,0.01 l -6.04788,0.004 0.0525,0.54685 0.0525,0.54685 h -6.68061 -6.6806 l 0.0283,-1.15626 c 0.0191,-0.78068 -0.0366,-1.15711 -0.1713,-1.15888 -0.10975,-0.002 -0.31022,-0.0726 -0.44548,-0.15824 -0.20382,-0.12897 -0.20756,-0.20185 -0.0219,-0.42562 0.20224,-0.24369 -0.0177,-0.27 -2.25727,-0.27 h -2.48135 l -0.75145,-0.81663 c -0.4133,-0.44914 -1.5223,-1.65902 -2.46444,-2.68862 -0.94213,-1.02958 -2.1843,-2.37722 -2.76037,-2.99474 -0.57607,-0.61751 -1.24677,-1.35401 -1.49043,-1.63665 l -0.44303,-0.51389 -0.71261,0.3816 -0.71261,0.38158 -1.52231,-0.33909 -1.5223,-0.33908 -1.63491,1.13197 -1.63492,1.13199 -0.75236,1.60999 c -1.59765,3.4189 -4.32097,5.26106 -7.79811,5.27499 -6.25652,0.0251 -10.28202,-6.54761 -7.48572,-12.22234 0.63437,-1.28735 2.22989,-2.84522 3.60895,-3.5238 1.32529,-0.6521 3.13569,-1.10287 4.44832,-1.10758 0.71366,-0.002 1.00224,-0.12309 2.08202,-0.86954 l 1.25353,-0.86656 0.12279,-1.22269 c 0.11353,-1.13049 0.32794,-1.63337 2.84312,-6.66849 l 2.72032,-5.4458 -0.0432,-43.55052 -0.0432,-43.55052 -4.32335,-2.05951 -4.32335,-2.05953 0.002,-17.81495 0.002,-17.81495 1.87115,-1.02761 c 1.95326,-1.0727 2.0535,-1.18744 2.05775,-2.35553 0.002,-0.52322 -0.0595,-0.64236 -0.33131,-0.64236 -0.28171,0 -0.3417,0.13996 -0.38542,0.89931 l -0.0518,0.89931 -4.92481,0.0455 -4.92481,0.0455 v -9.76672 -9.76659 h 4.96758 4.96763 v 0.94214 0.94214 h 1.18875 1.18874 l 0.0532,0.58402 0.0532,0.58403 2.10354,-1.99723 2.10354,-1.99724 -0.005,-0.89931 -0.005,-0.89931 h -5.52535 -5.52535 l -5.47529,-5.47729 -5.47527,-5.47729 -0.005,-22.144446 c -0.003,-12.17945 0.0183,-22.51223 0.0471,-22.96172 z m 6.77664,-31.44159 c 0.77518,1.58931 2.54127,2.70546 4.28547,2.70835 1.42852,0.002 2.24223,-0.29317 3.21485,-1.16765 1.13253,-1.01823 1.55077,-1.87864 1.64974,-3.39379 0.0684,-1.04759 0.0186,-1.35441 -0.34786,-2.14122 -0.23525,-0.50513 -0.68806,-1.18062 -1.00626,-1.5011 -2.40787,-2.42513 -6.5878,-1.57467 -7.91538,1.61047 -0.37528,0.90037 -0.31064,3.00319 0.11944,3.88494 z m 0.16335,264.672536 c 1.56875,2.67688 5.08421,3.32163 7.33042,1.34445 2.60191,-2.29029 2.11556,-6.49215 -0.92314,-7.97561 -1.2282,-0.59958 -2.25481,-0.71384 -3.40629,-0.37909 -1.59106,0.46253 -2.79978,1.53678 -3.32846,2.95816 -0.3983,1.07083 -0.23493,3.09245 0.32747,4.05209 z M 170.20487,168.69083 c 0.21813,1.02724 0.96793,2.57092 1.57485,3.24229 0.6845,0.75719 2.12687,1.65345 3.13039,1.94519 1.16883,0.33978 3.02794,0.30816 4.1368,-0.0704 1.64421,-0.56127 3.18502,-2.05449 4.03047,-3.90594 0.29848,-0.65362 0.37407,-1.14326 0.37741,-2.44466 0.004,-1.47936 -0.0456,-1.73231 -0.54279,-2.78201 -0.31187,-0.65835 -0.90184,-1.50953 -1.37257,-1.98025 -3.65851,-3.65852 -9.90449,-1.96366 -11.25271,3.05343 -0.31167,1.15984 -0.3289,1.77889 -0.0819,2.94231 z"
       id="path826"
       inkscape:connector-curvature="0" />
  </g>
</svg>
