<?xml version="1.0" encoding="UTF-8" standalone="no"?>
<!-- Created with Inkscape (http://www.inkscape.org/) -->

<svg
   xmlns:dc="http://purl.org/dc/elements/1.1/"
   xmlns:cc="http://creativecommons.org/ns#"
   xmlns:rdf="http://www.w3.org/1999/02/22-rdf-syntax-ns#"
   xmlns:svg="http://www.w3.org/2000/svg"
   xmlns="http://www.w3.org/2000/svg"
   xmlns:sodipodi="http://sodipodi.sourceforge.net/DTD/sodipodi-0.dtd"
   xmlns:inkscape="http://www.inkscape.org/namespaces/inkscape"
   width="107.09544mm"
   height="172.15556mm"
   viewBox="0 0 107.09544 172.15556"
   version="1.1"
   id="svg8"
   inkscape:version="0.92.4 (5da689c313, 2019-01-14)"
   sodipodi:docname="Lego_Minifigure-front.svg">
  <defs
     id="defs2" />
  <sodipodi:namedview
     id="base"
     pagecolor="#ffffff"
     bordercolor="#666666"
     borderopacity="1.0"
     inkscape:pageopacity="0.0"
     inkscape:pageshadow="2"
     inkscape:zoom="0.7"
     inkscape:cx="280.47355"
     inkscape:cy="315.23226"
     inkscape:document-units="mm"
     inkscape:current-layer="layer1"
     showgrid="false"
     fit-margin-top="0"
     fit-margin-left="0"
     fit-margin-right="0"
     fit-margin-bottom="0"
     inkscape:window-width="1600"
     inkscape:window-height="837"
     inkscape:window-x="-8"
     inkscape:window-y="-8"
     inkscape:window-maximized="1" />
  <metadata
     id="metadata5">
    <rdf:RDF>
      <cc:Work
         rdf:about="">
        <dc:format>image/svg+xml</dc:format>
        <dc:type
           rdf:resource="http://purl.org/dc/dcmitype/StillImage" />
        <dc:title></dc:title>
      </cc:Work>
    </rdf:RDF>
  </metadata>
  <g
     inkscape:label="Layer 1"
     inkscape:groupmode="layer"
     id="layer1"
     transform="translate(-4.7291389,-80.676414)">
    <path
       style="fill:#ffffff;fill-opacity:1;stroke:none;stroke-width:0.35277778"
       d="m 24.929669,252.31443 c -0.22621,-0.5895 1.46999,-49.83783 2.09936,-60.95395 0.41326,-7.29901 0.41235,-7.32015 -0.31516,-7.32014 -0.65579,0 -0.80576,0.43097 -1.48221,4.25968 -0.41394,2.34281 -1.04669,4.76321 -1.40613,5.37866 -0.72711,1.24498 -2.68426,2.70889 -3.62161,2.70889 -0.57238,0 -0.56834,-0.22575 0.0675,-3.77046 0.77216,-4.30457 0.59499,-5.23528 -1.25812,-6.60924 -2.93639,-2.17715 -7.1916,-2.12545 -9.1852901,0.1116 -0.44371,0.49787 -0.90508,2.01407 -1.32001,4.33792 -0.35084,1.96489 -0.7192,3.65383 -0.81857,3.7532 -0.26735,0.26735 -1.93348,-1.38238 -2.50448,-2.47981 -0.68694,-1.32029 -0.61896,-2.91347 0.35097,-8.22479 0.92668,-5.07451 1.45952,-6.58567 2.82264,-8.00511 0.65605,-0.68316 0.91794,-1.33544 0.92065,-2.29306 0.002,-0.73607 0.63203,-4.96044 1.3998801,-9.38749 l 1.39609,-8.04917 2.03364,-3.4161 c 3.63805,-6.11118 8.58387,-13.24832 10.61823,-15.32282 2.26244,-2.30706 4.17019,-3.19543 6.94845,-3.23566 l 1.86988,-0.0271 0.22496,-1.67999 c 0.39041,-2.91557 -0.0821,-2.7237 6.85185,-2.78258 3.42323,-0.0291 5.7875,-0.119 5.25392,-0.19983 -0.94296,-0.14284 -0.97014,-0.21076 -0.97014,-2.42415 0,-2.51703 -0.16054,-2.69207 -2.87099,-3.13013 -1.82447,-0.29488 -3.5143,-1.55329 -4.53734,-3.37893 0,0 -0.88195,-1.33765 -0.88195,-2.54269 0,-1.81442 -0.10556,-10.92339 -0.10556,-10.92339 -0.0667,-7.518366 0.0303,-12.396789 0.26383,-13.264078 0.99501,-3.695169 3.40907,-5.359286 8.16812,-5.630635 l 3.13889,-0.178971 v -3.264714 c 0,-2.651557 0.1048,-3.30493 0.55802,-3.478845 0.30691,-0.117773 4.72016,-0.214133 9.80722,-0.214133 6.72346,0 9.36481,0.115603 9.67254,0.423334 0.26409,0.26409 0.42333,1.572706 0.42333,3.478845 v 3.055513 l 3.09843,0.176664 c 4.25854,0.242811 6.13432,1.223295 7.61064,3.978144 0.73296,1.367726 0.75621,1.801585 0.75621,14.111116 v 11.75506 c 0,1.11477 -0.88195,2.51878 -0.88195,2.51878 -1.05688,1.88602 -2.65895,3.04122 -4.68252,3.37639 -2.55571,0.42332 -2.72581,0.62005 -2.72581,3.15263 0,2.1916 -0.0282,2.26149 -0.97014,2.40418 -0.53357,0.0808 1.83069,0.17075 5.25393,0.19982 6.96935,0.0592 6.44085,-0.17504 6.84156,3.03214 0.14766,1.18181 0.36732,1.84792 0.52515,1.59253 0.35781,-0.57895 3.34133,-0.19276 5.36972,0.69507 2.50157,1.09493 5.94464,5.28226 11.18828,13.60673 4.715531,7.48608 4.423031,6.71195 5.994401,15.86464 0.78521,4.57355 1.42766,8.84322 1.42766,9.48814 0,0.74445 0.27131,1.41797 0.74309,1.84463 0.4087,0.36962 1.03663,1.24717 1.3954,1.9501 0.86179,1.68851 2.59764,11.56998 2.30577,13.12578 -0.23903,1.27413 -2.43911,4.10748 -2.86573,3.6906 -0.14071,-0.13749 -0.5526,-1.87261 -0.9153,-3.85581 -0.72747,-3.97771 -1.30768,-4.93506 -3.41171,-5.62946 -1.50194,-0.49568 -4.54539,-0.22586 -6.013041,0.53309 -0.59388,0.30711 -1.51556,1.12971 -2.04818,1.82801 l -0.96839,1.26962 0.64203,3.86016 c 0.35312,2.1231 0.54766,3.95455 0.4323,4.0699 -0.34941,0.34941 -2.20899,-0.58215 -3.16708,-1.58656 -1.18949,-1.247 -1.43148,-1.97998 -2.20449,-6.67715 -0.61258,-3.72226 -0.70374,-3.96875 -1.46785,-3.96875 -0.66129,0 -0.78192,0.14948 -0.64061,0.79375 0.35479,1.61748 2.16961,48.88476 2.39405,62.35348 l 0.0911,5.46805 h -15.3458 -15.34583 l -0.0917,-16.31597 -0.0917,-16.31597 h -2.46593 -2.46592 v 15.84614 c 0,8.71539 -0.0964,16.09726 -0.21413,16.40417 -0.19066,0.49685 -1.87411,0.55802 -15.3569,0.55802 -12.98417,0 -15.17109,-0.0738 -15.34139,-0.51758 z"
       id="path837"
       inkscape:connector-curvature="0"
       sodipodi:nodetypes="cscccsccccscsccscscccsccscccccscscscscscscccscccccscsccccsccccscccscccccccccscscc" />
  </g>
</svg>
