<?xml version="1.0" encoding="UTF-8" standalone="no"?>
<!-- Created with Inkscape (http://www.inkscape.org/) -->

<svg
   width="313.33801mm"
   height="237.00301mm"
   viewBox="0 0 313.33802 237.003"
   version="1.1"
   id="svg1"
   xml:space="preserve"
   inkscape:version="1.3 (0e150ed6c4, 2023-07-21)"
   sodipodi:docname="Pacific_Ocean-top.svg"
   xmlns:inkscape="http://www.inkscape.org/namespaces/inkscape"
   xmlns:sodipodi="http://sodipodi.sourceforge.net/DTD/sodipodi-0.dtd"
   xmlns="http://www.w3.org/2000/svg"
   xmlns:svg="http://www.w3.org/2000/svg"><sodipodi:namedview
     id="namedview1"
     pagecolor="#505050"
     bordercolor="#ffffff"
     borderopacity="1"
     inkscape:showpageshadow="0"
     inkscape:pageopacity="0"
     inkscape:pagecheckerboard="1"
     inkscape:deskcolor="#505050"
     inkscape:document-units="mm"
     inkscape:zoom="0.45254834"
     inkscape:cx="549.11261"
     inkscape:cy="480.61164"
     inkscape:window-width="1600"
     inkscape:window-height="837"
     inkscape:window-x="-8"
     inkscape:window-y="-8"
     inkscape:window-maximized="1"
     inkscape:current-layer="layer1" /><defs
     id="defs1"><inkscape:path-effect
       effect="simplify"
       id="path-effect9533"
       is_visible="true"
       lpeversion="1.3"
       threshold="2.2"
       steps="10"
       smooth_angles="360"
       helper_size="10"
       simplify_individual_paths="false"
       simplify_just_coalesce="false" /></defs><g
     inkscape:label="Layer 1"
     inkscape:groupmode="layer"
     id="layer1"
     transform="translate(47.077247,-24.482306)"><path
       style="fill:#ffffff;fill-opacity:1;fill-rule:evenodd;stroke:none;stroke-width:0.499999;stroke-linecap:round;stroke-linejoin:round"
       d="M 31.717376,261.48565 H 225.38338 c 6.28501,-5.5542 9.35443,-9.5006 9.35443,-9.5006 -3.21559,0.58465 -6.43117,0 -5.84652,-1.02314 0.58465,-1.02314 2.26553,-2.19245 2.99634,-2.63094 0.73082,-0.43849 0.58466,-1.1693 -0.51157,-0.80389 -1.09622,0.3654 -2.33861,1.90012 -2.48477,1.24238 -0.14616,-0.65773 1.68088,-2.19244 2.04628,-4.09256 0.36541,-1.90012 2.19245,-2.92326 2.41169,-3.87332 0.21925,-0.95006 0.73082,-1.9732 1.46164,-2.70402 0.73081,-0.73081 1.68087,-1.46163 0.73081,-1.31547 -0.95006,0.14617 -1.9732,0.14617 -0.73081,-0.73081 1.24238,-0.87698 2.48477,-1.9732 2.77709,-1.09622 0.29233,0.87698 1.60779,-0.51157 1.9732,-1.24239 0.36541,-0.73081 1.75396,-0.51157 1.6078,-1.24238 -0.14617,-0.73082 1.53471,-2.7771 2.3386,-3.72716 0.8039,-0.95006 2.11937,-2.04628 0.58466,-1.46163 -1.53471,0.58465 -1.09623,-1.38855 -0.0731,-2.41169 1.02315,-1.02314 2.26553,-1.82704 2.33861,-3.43483 0.0731,-1.6078 1.02314,-2.55786 2.33861,-3.65408 1.31547,-1.09622 4.53105,-4.60413 5.40803,-6.43117 0.87698,-1.82704 1.75396,-2.19245 1.9732,-4.38489 0.21925,-2.19245 1.24239,-1.46163 1.6078,-2.11936 0.36541,-0.65774 0.73081,-2.92327 1.82703,-4.09257 1.09623,-1.1693 1.97321,-1.90012 1.97321,-3.43483 0,-1.53471 1.02314,-0.8039 0.73081,-1.90012 -0.29232,-1.09622 0.58465,-1.31547 0.95006,-3.06942 0.36541,-1.75396 0.95006,-0.8039 1.60779,-2.70402 0.65772,-1.90012 1.2424,-2.85018 1.02314,-4.09256 -0.21923,-1.24239 1.02314,-1.75396 0.14616,-2.41169 -0.87697,-0.65774 -2.11936,-2.70402 -3.87331,-3.14251 -1.75396,-0.43849 -3.65408,-1.90012 -4.38489,-3.43483 -0.73082,-1.53471 -1.09622,-1.38855 -0.73082,-2.11936 0.36541,-0.73082 0,-1.90012 -1.31547,-3.72716 -1.31546,-1.82704 -1.24238,-4.60414 -2.3386,-6.57734 -1.09623,-1.9732 -1.24239,-2.55785 -2.26553,-3.06942 -1.02314,-0.51157 -1.09622,-1.02314 -0.8039,-1.60779 0.29233,-0.58466 -1.09622,-2.19245 -0.29232,-2.85018 0.80389,-0.65773 2.11936,-1.24239 2.55785,-1.82704 0.43849,-0.58465 -0.36541,-0.29233 -1.09622,-1.09622 -0.73082,-0.8039 -0.43849,-3.43483 0.0731,-4.09257 0.51157,-0.65773 0.87698,-0.14616 1.24239,-0.8039 0.3654,-0.65773 0.14616,-1.82703 1.31546,-2.19244 1.16931,-0.36541 1.16931,-0.8039 1.60779,-1.82704 0.43849,-1.02314 1.46163,-0.58465 2.04629,-1.75395 0.58465,-1.16931 0.51157,-1.31547 0.36541,-2.48477 -0.14617,-1.16931 0.51156,-2.11937 -0.0731,-3.28867 -0.58465,-1.16931 -1.60779,-1.46163 -1.60779,-2.41169 0,-0.95006 -0.0731,-1.16931 -0.73082,-1.68088 -0.65773,-0.51157 -1.24238,-1.60779 -1.90011,-0.95006 -0.65774,0.65774 -0.58466,1.46163 -1.16931,1.46163 -0.58465,0 1.16931,1.46163 -0.0731,1.46163 -1.24239,0 -1.90012,-1.31546 -3.21559,-1.46163 -1.31546,-0.14616 -4.60413,-1.24238 -4.96954,-2.41169 -0.36541,-1.1693 -0.65773,-0.14616 -1.75395,-0.73081 -1.09623,-0.58465 0.0731,-1.68088 -0.95007,-2.48477 -1.02314,-0.8039 -2.77709,-2.63094 -3.43483,-3.43483 -0.65773,-0.8039 -1.1693,0.14616 -2.63093,-0.29233 -1.46163,-0.43849 -6.06577,-1.53471 -6.43117,-2.55785 -0.36541,-1.02314 -2.63094,-2.7771 -4.01949,-2.85018 -1.38855,-0.0731 -1.82703,1.24238 -3.36175,1.1693 -1.53471,-0.0731 -7.60047,-2.55785 -9.0621,-3.58099 -1.46163,-1.02314 -3.65408,-1.82704 -4.67722,-1.75396 -1.02314,0.0731 -2.85018,-1.31546 -3.581,-2.19244 -0.73081,-0.87698 -1.53471,-1.53471 -1.24238,-2.7771 0.29233,-1.24239 -1.24239,-1.60779 -1.38855,-2.48477 -0.14616,-0.87698 -1.68087,-2.99634 -3.43483,-4.31181 -1.75396,-1.31547 -3.65407,-2.33861 -3.50791,-2.996343 0.14616,-0.657733 -2.04629,-1.607793 -3.14251,-2.704017 -1.09622,-1.096222 -4.01948,-3.215585 -4.16564,-4.38489 -0.14617,-1.169305 -1.09623,-2.996342 -2.48478,-3.142504 -1.38854,-0.146163 -1.68087,0 -1.31546,1.315466 0.36541,1.315466 1.9732,2.192446 2.63093,2.996343 0.65774,0.803897 3.14251,2.92326 3.80024,4.165645 0.65774,1.242385 2.48477,3.28867 2.85018,4.16565 0.36541,0.87697 0.29233,0.80389 1.24239,1.24238 0.95005,0.43849 2.04628,1.46163 1.68087,1.82704 -0.36541,0.36541 -1.31547,0.36541 -2.55785,-0.29233 -1.24239,-0.65773 -3.36175,-2.48477 -3.36175,-3.1425 0,-0.65773 0.14616,-1.38855 -1.02314,-2.119366 -1.16931,-0.730813 -3.43483,-1.169302 -3.94641,-1.827038 -0.51156,-0.657733 -0.65773,-1.900118 0.29233,-1.607791 0.95006,0.292325 0.95006,-0.730816 -0.58465,-1.534713 -1.53471,-0.803896 -3.14251,-2.630934 -3.50791,-3.434831 -0.36541,-0.803897 -1.9732,-3.87332 -2.92326,-4.604134 -0.95006,-0.730816 -2.19245,-1.680876 -3.50792,-1.973201 -1.31546,-0.292328 -2.3386,-0.292328 -3.06942,-1.534713 -0.73082,-1.242386 -2.85018,-1.973199 -3.21559,-3.142504 -0.3654,-1.169305 -1.02314,-2.777098 -2.26552,-3.507912 -1.24239,-0.730816 -1.02314,-2.192446 -2.11937,-2.996343 -1.09622,-0.803896 -0.14616,-1.973201 -1.31546,-3.727156 -1.16931,-1.753957 -0.21925,-2.850179 -0.58466,-4.165647 -0.3654,-1.315466 0.51157,-2.119363 -0.51157,-3.580993 -1.02314,-1.461632 -2.33861,-2.557854 -2.33861,-3.434831 0,-0.87698 2.63094,-1.096225 2.92327,-0.584653 0.29232,0.51157 1.24238,1.169305 0.95005,0.292325 -0.29232,-0.876977 -0.87697,-1.900118 -3.06942,-2.850179 -2.19244,-0.950058 -0.87698,-1.53471 -3.21558,-1.53471 -2.33861,0 -3.54446,-0.438489 -3.87332,-1.278927 -0.32887,-0.840438 -1.6078,-4.34835 -3.14251,-4.202187 -1.53471,0.146164 -2.04628,-1.753957 -2.99634,-2.777098 -0.95006,-1.023141 -0.87698,-2.119363 -1.75396,-2.192443 -0.87697,-0.07308 -2.04628,-0.584653 -2.7771,-1.753958 -0.73081,-1.169304 -0.80389,-2.046282 -2.11936,-2.119362 -1.31547,-0.07308 -0.95006,-1.242388 -2.26553,-0.438492 -1.31546,0.803897 -2.04628,0.438492 -3.50791,-0.511569 -1.46163,-0.95006 -3.65408,-2.33861 -5.26187,-2.119365 -1.60779,0.219247 -4.01948,0.07308 -5.1157,-0.657733 -1.09623,-0.730814 -1.6078,-1.46163 -2.99634,-1.315466 -1.38855,0.146161 -2.41169,0 -1.68088,0.803897 0.73081,0.803896 -0.73081,0.292324 -1.38855,0.950057 -0.65773,0.657736 -2.48477,2.192446 -2.92326,1.315469 -0.43849,-0.876977 -1.09622,-1.534713 -0.43849,-2.192446 0.65773,-0.657733 0.58465,-1.46163 -0.58465,-0.219244 -1.1693,1.242385 -2.70402,1.315466 -2.33861,2.046282 0.36541,0.730816 1.09622,1.388549 0.51157,1.827038 -0.58465,0.438488 -3.06942,0.730816 -3.43483,1.827038 -0.36541,1.096221 -2.04628,1.096221 -2.55785,1.900118 -0.51157,0.803897 -2.11936,1.315469 -3.21559,1.388549 -1.09622,0.07308 -1.60779,0.292328 -2.04628,0.950061 -0.43849,0.657733 -1.973203,1.023141 -2.704016,0.950058 -0.730816,-0.07308 0.511569,-1.023141 1.169305,-1.753955 0.657731,-0.730816 2.192441,-0.657733 2.850181,-1.096224 0.65773,-0.438489 2.19244,-0.950058 2.92326,-1.607791 0.73081,-0.657736 1.38855,-1.315469 1.38855,-2.192446 0,-0.87698 0.65773,-1.680874 -0.65774,-1.096224 -1.31547,0.584652 -1.9732,0.730816 -2.7771,0.146163 -0.80389,-0.584652 -1.31546,-0.292325 -1.82703,0.292328 -0.51157,0.58465 -0.8039,-0.146164 -1.09622,-1.534713 -0.29233,-1.388549 0,-1.827038 -1.096229,-0.950061 -1.096222,0.87698 -2.41169,0.511572 -2.630934,-0.657733 -0.219245,-1.169304 0.292327,-1.388549 -1.169303,-1.680874 -1.461632,-0.292327 -1.096224,-1.680874 -0.07308,-2.338609 1.023141,-0.657733 1.023141,-1.680874 1.753957,-1.753955 0.730814,-0.07308 1.242386,0.803897 1.680874,0.438489 0.438489,-0.365408 1.388545,-0.438489 2.338605,-1.023141 0.95006,-0.584653 -0.0731,-1.46163 0.29233,-2.046283 0.36541,-0.584652 -1.16931,-0.365408 -1.753957,0.438489 -0.584653,0.803897 -0.803897,0.438489 -2.046282,0.292325 -1.242386,-0.146161 -1.900119,-0.07308 -2.630935,0 -0.730814,0.07308 -1.607794,-0.950058 -1.169302,-1.315466 0.438488,-0.365408 -1.461633,-0.365408 -1.096225,-0.95006 0.365409,-0.584652 0.87698,-1.46163 0.87698,-1.46163 h -4.165647 c 1.169305,1.169304 -0.657733,1.680875 -1.53471,1.534712 -0.87698,-0.146163 -1.169305,0.07308 -1.023142,0.950058 0.146162,0.87698 -0.511571,1.753958 -1.169304,1.680877 -0.657733,-0.07308 -1.90544,-0.225914 -2.215499,-0.794356 -0.310058,-0.568441 -1.291911,-0.05167 -1.446941,-0.826823 -0.15503,-0.775147 -0.103351,-1.343587 -1.033528,-0.981852 -0.930175,0.361735 -1.912027,0.775147 -2.118733,-0.05168 -0.206706,-0.826823 0.258381,-1.498616 -0.723472,-1.343587 -0.98185,0.155029 -1.756997,1.188558 -1.653645,1.912029 0.103354,0.723469 -1.033529,1.29191 -1.963703,1.240235 -0.930178,-0.05168 -1.860352,-0.46509 -1.240235,0.568438 0.620117,1.033529 0.15503,1.240235 0.930175,2.015382 0.775147,0.775147 1.033528,1.550294 0.05168,1.653646 -0.981853,0.103354 -1.498618,-0.878499 -2.532147,-0.516763 -1.033529,0.361733 -2.89388,0.775144 -3.358968,1.343586 -0.465087,0.568441 -1.653645,-0.361736 -2.480468,0.516765 -0.826823,0.878499 -2.428793,0.568439 -3.100586,1.705322 -0.671793,1.13688 -0.878499,0.05168 -1.60197,0.826823 -0.723469,0.775147 -1.085205,0.568441 -1.653646,-0.258382 -0.568439,-0.826823 -1.653646,-0.775147 -2.325439,-0.31006 -0.671793,0.465087 -0.826823,1.188559 -1.808676,0.930177 -0.98185,-0.258384 -0.775144,-0.46509 -1.550291,0.05168 -0.775147,0.516763 -1.188559,-0.465087 -2.015382,0.103352 -0.826823,0.568441 -1.343586,0.31006 -1.860351,1.653645 -0.516763,1.343589 -1.343586,0.206706 -1.860352,1.240235 -0.516763,1.033528 1.033529,0.46509 0.930177,1.44694 -0.103354,0.981853 -0.981852,0.361736 -0.826823,1.085207 0.155028,0.723469 0.826823,1.343586 0.206706,1.601967 -0.620117,0.258384 -1.136883,-0.155027 -1.653646,0.258384 -0.516765,0.413412 -0.92366,0.130644 -0.850577,1.592274 0.07308,1.461632 -0.438491,1.827037 -1.023141,1.753957 -0.584652,-0.07308 -1.607793,-0.657733 -2.046282,-0.146164 -0.438491,0.511572 -1.023141,1.096224 -0.87698,1.900121 0.146164,0.803897 -2.265527,0.146161 -2.557851,0.730814 -0.292328,0.584652 0.146161,1.461629 -1.023142,2.119365 -1.169304,0.657733 -2.704017,2.557851 -2.923262,1.827038 -0.219244,-0.730816 -0.365405,-1.169305 -0.146161,-2.996343 0.219245,-1.827038 -0.07308,-2.704015 0.292325,-3.87332 0.365408,-1.169305 1.023141,-3.654076 1.680874,-3.9464 0.657736,-0.292328 1.827038,-0.584653 2.33861,-1.461633 0.511569,-0.876977 2.704015,-0.730813 3.434831,-1.46163 0.730814,-0.730813 2.192444,-2.046282 3.288668,-2.704015 1.096222,-0.657733 2.630934,-1.461629 3.580992,-1.827038 0.950061,-0.365408 1.827038,-0.584652 2.192446,-1.096221 0.365408,-0.511572 1.680874,-1.461633 1.680874,-2.192446 0,-0.730816 -1.242385,-1.023141 -1.53471,-0.365408 -0.292327,0.657733 -0.146164,1.680874 -0.95006,1.900118 -0.803897,0.219244 -1.680875,-0.292325 -2.265527,0.584653 -0.584652,0.876977 -1.973202,1.461629 -2.265526,0.876977 -0.292325,-0.58465 0.95006,-1.827035 0.584652,-2.046282 -0.365408,-0.219245 -1.534713,-0.219245 -2.850179,0.146163 -1.315469,0.365409 -1.753957,0.146164 -2.41169,1.169305 -0.657733,1.023141 -3.727157,1.023141 -3.946401,2.046283 -0.219244,1.023141 1.096222,1.461629 -0.292327,1.827037 -1.38855,0.365408 -3.800237,1.169305 -4.165645,0.292325 -0.365408,-0.876977 -0.803897,-1.096221 -1.607794,-1.169302 -0.803897,-0.07308 -1.388549,-0.730816 -1.973201,0.07308 -0.584653,0.803896 -3.215588,0.584652 -3.946402,0.584652 -0.730815,0 -2.92326,-0.876977 -3.87332,-0.292328 -0.950059,0.584653 -2.630934,0.657736 -3.434831,1.315469 -0.803896,0.657733 -2.92326,1.388549 -3.434831,2.192446 -0.51157,0.803897 -2.704016,1.169302 -4.238727,2.484771 -1.5347121,1.315466 -3.2886683,1.023141 -3.8733205,1.753955 -0.5846519,0.730816 -1.6077933,0.219244 0.073082,1.096224 1.6808746,0.876977 0.073081,1.242385 1.2423857,1.388549 1.1693041,0.146161 2.2655268,-1.827038 2.8501788,-1.023141 0.584652,0.803897 1.973201,1.096222 1.315467,3.142504 -0.657734,2.046282 -1.242386,1.753957 -1.973201,3.142504 -0.730815,1.388549 -1.0231407,0.95006 -1.4616297,2.630934 -0.4384891,1.680877 -1.2423856,2.119366 -2.6309343,3.288668 -1.3885489,1.169305 -2.704016,2.046285 -3.2155865,3.069426 -0.5115706,1.023141 -1.8270378,0.950058 -3.43483108,2.265526 -1.60779322,1.315466 -3.14250492,2.046282 -4.01948302,3.069424 -0.8769782,1.023141 -2.6309344,1.827037 -3.6540755,1.827037 -1.0231413,0 -1.4616303,-1.607793 -2.119364,-1.096224 -0.6577339,0.511572 -1.8270379,0.730816 -2.4847719,1.315469 -0.657733,0.584652 -1.607793,0.146163 -1.827038,1.315466 -0.219244,1.169305 -0.07308,1.753957 -1.388548,2.192446 -1.315467,0.438488 -3.288668,0.657733 -3.800239,1.607793 -0.51157,0.950061 -0.657733,0.511569 0.07308,1.607794 0.730815,1.096221 1.169304,1.900118 1.169304,2.777095 0,0.87698 0.438489,2.33861 -0.803897,3.507915 -1.242385,1.169302 -2.046282,0.657733 -3.215586,1.169302 -1.169304,0.511572 -2.41169,1.827038 -2.630935,0.657736 -0.219244,-1.169305 1.242386,-1.900121 0.876979,-2.850179 -0.365408,-0.950061 1.023141,-1.242385 1.169304,-2.046282 0.146163,-0.803897 0.365407,-1.023141 -0.95006,-1.242388 -1.315467,-0.219245 -2.265527,-0.292325 -1.096223,-1.534711 1.169305,-1.242385 1.023142,-1.753957 0.292326,-1.973201 -0.730815,-0.219245 -0.438489,-0.146161 -0.730815,-0.219245 -0.292326,-0.07308 -1.46163,-0.730813 -2.411691,0.146164 -0.950058,0.876978 -2.923259,2.119363 -2.630932,0.803897 0.292325,-1.315469 1.973199,-1.900118 1.973199,-2.33861 0,-0.438488 -0.876977,-1.315466 -1.607793,-0.803897 -0.730814,0.511572 -1.753955,1.607794 -2.704015,1.973202 -0.950061,0.365408 0,0.876977 -1.169305,1.169305 -1.169303,0.292325 -2.119363,-0.365408 -2.777096,0.438489 -0.657736,0.803896 -0.146164,0.657733 0.730813,1.169304 0.87698,0.51157 -0.438488,0.950058 0.219245,1.607794 0.657735,0.657733 1.096224,-1.388549 2.192446,-1.023141 1.096224,0.365405 3.434831,-0.219244 3.580995,0.876977 0.146161,1.096222 -2.192446,1.242386 -2.704018,1.827038 -0.511569,0.584653 -4.019481,1.900118 -4.092564,2.92326 -0.07308,1.023141 1.169305,0.438488 1.169305,1.607793 0,1.169305 0,2.192446 0.657733,3.215587 0.657735,1.023141 -0.365406,0.950061 -0.146162,1.973202 0.219245,1.023141 -0.87698,1.900118 -1.753957,1.973199 -0.876977,0.07308 1.159751,0.06043 1.469811,0.628869 0.310057,0.568439 -0.762228,3.035991 -1.950786,3.501078 -1.188559,0.465087 -1.085205,0.361736 -1.860352,1.550292 -0.775147,1.188558 -1.13688,1.705324 -1.705321,1.860351 -0.568442,0.15503 -0.878499,2.17041 -2.015382,2.73885 -1.13688,0.56844 -1.963703,0.62012 -2.58382,1.757 -0.620117,1.13688 -1.963706,0.8785 -1.963706,0.8785 2.945556,2.11873 8.009848,2.37712 8.061523,4.90926 0.05168,2.53215 -0.723468,5.4777 -0.723468,5.4777 0.723468,1.44694 0.826823,2.06706 0.206705,2.53215 -0.620117,0.46509 -1.44694,0.82682 -1.60197,1.44694 -0.15503,0.62012 -0.826822,0.41341 -0.516765,1.39526 0.31006,0.98185 -0.05168,1.29191 0.620117,1.29191 0.671796,0 2.118736,-0.36173 2.428793,0.20671 0.31006,0.56844 0.981853,1.0852 0.981853,1.49861 0,0.41342 1.085204,1.86036 0.206705,1.60197 -0.878498,-0.25838 -2.532144,-1.29191 -2.945555,-1.55029 -0.413412,-0.25838 -0.258385,-1.03353 -0.930178,-0.67179 -0.671792,0.36173 -1.085204,0.15503 -0.981852,0.82682 0.103354,0.67179 0.671795,1.70532 -0.103352,2.27376 0.723469,0.31006 1.188559,0.62012 1.188559,0.62012 0.98185,-0.41341 1.912027,0.41341 1.705321,1.03353 -0.206705,0.62012 1.653646,0.98185 0.671793,1.60197 -0.981853,0.62012 0,2.11873 -0.775147,2.53214 0.361736,0.6718 0.516766,0.8785 0.516766,0.8785 0.620117,-0.15503 0.413411,0.82683 1.033528,0.46509 0.620117,-0.36173 2.532145,-1.44694 2.687175,-2.11873 0.15503,-0.6718 1.13688,-0.8785 1.343586,0.15503 0.206705,1.03353 0,1.65364 0.413411,2.42879 0.413412,0.77515 0.775147,1.44694 0.258384,2.06706 -0.516765,0.62011 -1.188558,-0.0517 -1.653646,0.41341 -0.465089,0.46509 0.05168,0.56844 -0.05168,1.24023 -0.103352,0.6718 0.103354,1.03353 -0.930174,1.24024 0.05168,1.70532 -0.103355,3.10058 0.310057,3.41064 0.413411,0.31006 1.963706,-0.8785 2.377117,-1.13688 0.413411,-0.25838 6.666259,6.61458 8.629964,9.56014 0.826823,-0.15503 1.240234,-0.51676 1.44694,-0.82682 0.206706,-0.31006 0.8785,-0.36174 1.395264,-0.0517 0.516764,0.31006 0.465088,0.51676 1.240234,0.67179 0.775147,0.15503 1.291911,0 1.240235,0.93018 -0.05168,0.93017 -0.15503,1.39526 -0.258383,1.86035 -0.103353,0.46509 0.310059,0.46509 0.568441,0.72347 0.258382,0.25838 0.465088,0.8785 1.343587,1.0852 0.8785,0.20671 1.136882,0.25839 1.60197,-0.31005 0.465088,-0.56844 0.671793,-1.65365 1.395263,-1.60197 0.72347,0.0517 0.981852,-1.44694 1.705323,-1.44694 0.72347,0 2.118733,1.24023 5.3226725,1.9637 3.2039388,0.72347 6.2528482,2.01538 7.59643547,2.68718 1.34358723,0.67179 2.73885083,1.65364 2.79052743,2.32544 0.051676,0.67179 0.051676,0.56844 1.1885578,0.8785 1.1368815,0.31006 0.7751466,0.46508 1.7053224,0.51676 0.9301758,0.0517 1.4986164,1.39526 0.4134114,1.65365 -1.0852052,0.25838 -1.1368815,0.72347 -0.9301757,1.18855 0.2067057,0.46509 1.5502929,0.6718 2.2220864,1.65365 0.6717937,0.98185 0.5684409,1.34359 1.8086752,1.60197 1.2402341,0.25838 1.1368811,1.18856 1.7569981,1.55029 0.620117,0.36174 0.620117,0.41341 1.44694,0.62012 0.826823,0.20671 -0.310058,1.18856 -0.930175,1.0852 -0.620118,-0.10335 -0.413412,-0.56844 -1.4469402,-0.51676 -1.0335286,0.0517 -0.72347,-0.72347 -2.0153809,-0.67179 -1.2919107,0.0517 -1.3435872,-0.20671 -2.0670573,-0.82683 -0.72347,-0.62011 -1.808675,-2.11873 -2.4804687,-2.68717 -0.6717935,-0.56844 -1.3952637,-0.31006 -2.0670573,-1.08521 -0.67179359,-0.77514 -1.03352861,-0.67179 -1.91202795,-0.25838 -0.87849935,0.41341 -0.67179365,1.29191 -1.29191075,1.44694 -0.6201172,0.15503 0.6201171,1.24024 -0.051677,1.49862 -0.6717936,0.25838 -1.4469402,0.31006 -2.5321451,0.10335 -1.0852052,-0.20671 -1.2919109,0.20671 -1.2919109,0.20671 1.2402343,1.91203 2.2220866,3.25561 2.2220866,3.25561 0.5684407,-1.0852 0.8784994,-1.13688 1.2919108,0.15503 0.4134115,1.29191 1.34358726,1.757 1.65364585,3.15226 0.31005859,1.39527 0.31005859,2.48047 0.77514648,2.73885 0.46508788,0.25839 0.72347004,-0.77514 1.44694007,-0.25838 0.7234701,0.51677 1.4469401,1.03353 1.6019695,1.80868 0.1550292,0.77514 0.3100586,2.06705 0.7751464,2.53214 0.465088,0.46509 1.1368815,1.49862 1.2402343,2.22209 0.1033529,0.72347 0.3617352,1.86035 0.9301758,2.32544 0.5684409,0.46509 1.7053224,0.46509 2.8938802,1.44694 1.1885581,0.98185 1.8086751,0.46509 2.0153811,1.55029 0.206706,1.08521 0.620117,0.72347 1.085205,1.65365 0.465088,0.93017 0.103353,1.757 0.826823,1.80867 0.72347,0.0517 2.067057,-0.93017 2.222086,0.15503 0.15503,1.08521 0.206706,1.65365 0.516765,2.11874 0.310058,0.46508 1.860351,0.8785 3.048909,2.06705 1.188558,1.18856 1.705322,1.49862 1.653646,2.58382 -0.05168,1.08521 -0.05168,1.49862 0.775147,2.6355 0.826822,1.13688 0.930175,1.55029 0.930175,2.27377 0,0.72346 -0.72347,1.55029 -0.465088,2.79052 0.258383,1.24024 0.72347,1.03353 0.413412,2.32544 -0.310059,1.29191 -0.258382,1.18856 -1.188558,2.79053 -0.930176,1.60197 -1.033529,1.80868 -0.930176,2.94556 0.103353,1.13688 -0.826823,1.24023 -0.671794,2.63549 0.15503,1.39527 0.775147,2.48047 0.258383,3.15227 -0.516765,0.67179 -0.620117,0.31006 -1.808676,0.72347 -1.188557,0.41341 -1.240234,-0.20671 -2.067057,0.93017 -0.826823,1.13688 -0.671793,1.65365 -1.601969,1.29191 -0.930176,-0.36173 -1.60197,-1.60197 -2.480469,-1.49861 -0.878499,0.10335 -1.343587,0.41341 -1.7569985,1.24023 1.3952635,2.11874 2.7388505,3.46232 2.7388505,3.46232 1.343588,-0.46509 2.067058,0.62012 2.89388,0.46509 0.826823,-0.15503 1.653646,-0.10335 2.222087,-0.67179 0.568441,-0.56845 1.498617,0.31006 1.44694,1.60197 -0.05168,1.29191 0.465088,0.56844 0.413412,2.27376 -0.05168,1.70532 -0.620117,0.31006 -0.930176,0.77515 -0.310059,0.46508 -0.516764,0.51676 -0.568441,1.18855 2.32544,7.028 9.226176,23.41523 13.630625,30.38865 z"
       id="path1" /></g></svg>
