<?xml version="1.0" encoding="UTF-8" standalone="no"?>
<!-- Created with Inkscape (http://www.inkscape.org/) -->

<svg
   width="292.689mm"
   height="116.697mm"
   viewBox="0 0 292.68901 116.697"
   version="1.1"
   id="svg1"
   xml:space="preserve"
   inkscape:version="1.3 (0e150ed6c4, 2023-07-21)"
   sodipodi:docname="Pacific_Ocean_South-top.svg"
   xmlns:inkscape="http://www.inkscape.org/namespaces/inkscape"
   xmlns:sodipodi="http://sodipodi.sourceforge.net/DTD/sodipodi-0.dtd"
   xmlns="http://www.w3.org/2000/svg"
   xmlns:svg="http://www.w3.org/2000/svg"><sodipodi:namedview
     id="namedview1"
     pagecolor="#505050"
     bordercolor="#ffffff"
     borderopacity="1"
     inkscape:showpageshadow="0"
     inkscape:pageopacity="0"
     inkscape:pagecheckerboard="1"
     inkscape:deskcolor="#505050"
     inkscape:document-units="mm"
     inkscape:zoom="0.45254834"
     inkscape:cx="596.62135"
     inkscape:cy="54.137863"
     inkscape:window-width="1600"
     inkscape:window-height="837"
     inkscape:window-x="-8"
     inkscape:window-y="-8"
     inkscape:window-maximized="1"
     inkscape:current-layer="layer1" /><defs
     id="defs1"><inkscape:path-effect
       effect="simplify"
       id="path-effect9533"
       is_visible="true"
       lpeversion="1.3"
       threshold="2.2"
       steps="10"
       smooth_angles="360"
       helper_size="10"
       simplify_individual_paths="false"
       simplify_just_coalesce="false" /></defs><g
     inkscape:label="Layer 1"
     inkscape:groupmode="layer"
     id="layer1"
     transform="translate(26.428378,-144.78814)"><path
       id="path1"
       style="opacity:1;fill:#ffffff;fill-opacity:1;fill-rule:evenodd;stroke:none;stroke-width:0.499999;stroke-linecap:round;stroke-linejoin:round"
       d="m 51.302278,144.78814 v 3.36569 h -77.730656 c 0.696385,0.86199 1.366554,1.7098 1.778703,2.32802 0.826822,-0.15503 1.240234,-0.51676 1.44694,-0.82682 0.206706,-0.31006 0.8785,-0.36172 1.395263,-0.0517 0.516764,0.31006 0.46509,0.51676 1.240235,0.67179 0.775146,0.15503 1.29191,0 1.240234,0.93018 -0.05168,0.93017 -0.155029,1.39526 -0.258382,1.86035 -0.103353,0.46509 0.310059,0.46509 0.568441,0.72347 0.258381,0.25838 0.465089,0.87851 1.343587,1.08521 0.878499,0.20671 1.136882,0.25838 1.601969,-0.31006 0.465088,-0.56844 0.671795,-1.65365 1.395264,-1.60197 0.723469,0.0517 0.981852,-1.44694 1.705322,-1.44694 0.72347,0 2.118737,1.24023 5.3226728,1.9637 3.2039356,0.72347 6.2528497,2.01538 7.59643559,2.68718 1.34358591,0.67179 2.73885081,1.65364 2.79052731,2.32544 0.051676,0.67179 0.051677,0.56844 1.188558,0.8785 1.1368803,0.31006 0.7751474,0.46508 1.7053222,0.51676 0.9301749,0.0517 1.4986154,1.39526 0.4134115,1.65365 -1.0852041,0.25838 -1.1368814,0.72348 -0.9301758,1.18855 0.2067055,0.46509 1.5502938,0.6718 2.2220866,1.65365 0.671793,0.98185 0.5684421,1.34359 1.8086751,1.60197 1.2402327,0.25838 1.1368827,1.18856 1.7569987,1.55029 0.620116,0.36174 0.620118,0.41341 1.44694,0.62012 0.826822,0.20671 -0.310059,1.18857 -0.930176,1.08521 -0.620117,-0.10335 -0.413413,-0.56845 -1.4469398,-0.51677 -1.0335275,0.0517 -0.7234712,-0.72347 -2.0153808,-0.67179 -1.2919094,0.0517 -1.3435879,-0.20671 -2.0670573,-0.82683 -0.7234693,-0.62011 -1.8086757,-2.11873 -2.4804688,-2.68717 -0.6717928,-0.56844 -1.3952643,-0.31006 -2.0670572,-1.08521 -0.67179296,-0.77513 -1.03352958,-0.67179 -1.91202804,-0.25838 -0.87849846,0.41341 -0.67179436,1.29191 -1.29191076,1.44694 -0.6201166,0.15503 0.620117,1.24024 -0.051676,1.49862 -0.6717929,0.25838 -1.4469413,0.31006 -2.5321452,0.10335 -1.0852041,-0.20671 -1.2919108,0.20671 -1.2919108,0.20671 1.2402331,1.91203 2.2220866,3.25561 2.2220866,3.25561 0.5684402,-1.0852 0.8784998,-1.13688 1.2919108,0.15503 0.4134111,1.29191 1.34358758,1.75701 1.65364586,3.15226 0.31005828,1.39527 0.31005906,2.48048 0.77514649,2.73886 0.46508741,0.25839 0.72347079,-0.77515 1.44694015,-0.25839 0.7234693,0.51677 1.4469401,1.03353 1.6019694,1.80868 0.155029,0.77514 0.3100591,2.06705 0.7751464,2.53214 0.4650876,0.46509 1.1368817,1.49862 1.2402344,2.22209 0.1033528,0.72347 0.3617358,1.86035 0.9301758,2.32544 0.5684403,0.46509 1.7053236,0.46509 2.8938802,1.44694 1.1885576,0.98185 1.8086756,0.46509 2.0153816,1.55029 0.206706,1.08521 0.620117,0.72347 1.085205,1.65365 0.465087,0.93017 0.103353,1.757 0.826823,1.80867 0.723469,0.0517 2.067057,-0.93017 2.222086,0.15503 0.15503,1.08521 0.206706,1.65365 0.516765,2.11874 0.310057,0.46508 1.860352,0.87851 3.048909,2.06705 1.188557,1.18856 1.705322,1.49863 1.653646,2.58383 -0.05168,1.0852 -0.05168,1.49862 0.775146,2.63549 0.826822,1.13688 0.930176,1.55029 0.930176,2.27377 0,0.72346 -0.72347,1.5503 -0.465089,2.79052 0.258383,1.24024 0.72347,1.03353 0.413413,2.32544 -0.310059,1.29191 -0.258383,1.18856 -1.188559,2.79053 -0.930174,1.60197 -1.033529,1.80868 -0.930175,2.94556 0.103352,1.13688 -0.826822,1.24024 -0.671794,2.6355 0.15503,1.39526 0.775146,2.48046 0.258383,3.15226 -0.516765,0.67179 -0.620119,0.31006 -1.808676,0.72347 -1.188555,0.41341 -1.240236,-0.2067 -2.067057,0.93017 -0.826822,1.13688 -0.671794,1.65365 -1.601969,1.29191 -0.930175,-0.36172 -1.601971,-1.60197 -2.480469,-1.49861 -0.878498,0.10335 -1.343588,0.41341 -1.7569991,1.24023 1.3952621,2.11874 2.7388511,3.46232 2.7388511,3.46232 1.343587,-0.46509 2.067059,0.62012 2.893881,0.46509 0.826822,-0.15503 1.653645,-0.10335 2.222086,-0.67179 0.568441,-0.56845 1.498617,0.31006 1.44694,1.60197 -0.05168,1.29191 0.465088,0.56844 0.413412,2.27376 -0.05168,1.70532 -0.620117,0.31006 -0.930176,0.77515 -0.310059,0.46508 -0.516764,0.51677 -0.568441,1.18855 2.325438,7.028 9.226248,23.41492 13.630693,30.38833 H 225.38312 c 6.28501,-5.55419 9.35447,-9.50019 9.35447,-9.50019 -3.21558,0.58464 -6.4308,-6e-5 -5.84615,-1.0232 0.58465,-1.02314 2.26539,-2.19236 2.9962,-2.63085 0.73082,-0.43848 0.58463,-1.16949 -0.5116,-0.80408 -1.09622,0.3654 -2.33844,1.90004 -2.4846,1.2423 -0.14616,-0.65773 1.68098,-2.19214 2.04638,-4.09226 0.36541,-1.90011 2.19199,-2.9236 2.41123,-3.87366 0.21925,-0.95006 0.7311,-1.97289 1.46192,-2.70371 0.73081,-0.73081 1.68077,-1.46184 0.73071,-1.31568 -0.95006,0.14617 -1.9731,0.14627 -0.73071,-0.73071 1.24238,-0.87698 2.48477,-1.97303 2.77709,-1.09606 0.29233,0.87698 1.6076,-0.51199 1.97301,-1.24281 0.36541,-0.73081 1.75433,-0.5115 1.60817,-1.24231 -0.14617,-0.73081 1.53447,-2.77684 2.33836,-3.7269 0.8039,-0.95006 2.11917,-2.04658 0.58446,-1.46193 -1.53471,0.58465 -1.09599,-1.3886 -0.0729,-2.41174 1.02315,-1.02313 2.26528,-1.82662 2.33836,-3.43441 0.0731,-1.6078 1.0234,-2.55834 2.33887,-3.65456 1.31547,-1.09622 4.53096,-4.60409 5.40794,-6.43113 0.87698,-1.82704 1.75377,-2.19231 1.97301,-4.38475 0.21925,-2.19244 1.24276,-1.46152 1.60817,-2.11925 0.36541,-0.65774 0.73054,-2.92347 1.82676,-4.09277 1.09623,-1.1693 1.97352,-1.89971 1.97352,-3.43442 0,-1.5347 1.02304,-0.80392 0.73071,-1.90014 -0.29232,-1.09622 0.5844,-1.31563 0.94981,-3.06958 0.36541,-1.75396 0.95044,-0.80411 1.60817,-2.70423 0.65772,-1.90011 1.24194,-2.84987 1.02268,-4.09225 -0.21923,-1.24239 1.02322,-1.75401 0.14624,-2.41174 -0.87697,-0.65774 -2.1192,-2.70396 -3.87315,-3.14244 -1.75396,-0.43849 -3.65393,-1.90023 -4.38474,-3.43494 -0.73082,-1.53471 -1.09663,-1.38844 -0.73123,-2.11925 0.36541,-0.73082 3.1e-4,-1.90038 -1.31516,-3.72742 -1.31546,-1.82704 -1.24266,-4.60418 -2.33888,-6.57738 -1.09622,-1.97319 -1.24235,-2.55749 -2.26549,-3.06906 -1.02314,-0.51157 -1.09589,-1.02352 -0.80357,-1.60817 0.29233,-0.58466 -1.09639,-2.19222 -0.29249,-2.84995 0.80389,-0.65773 2.1195,-1.24263 2.55799,-1.82728 0.43848,-0.58465 -0.36577,-0.29217 -1.09658,-1.09606 -0.73082,-0.8039 -0.43821,-3.43503 0.0734,-4.09277 0.51157,-0.65773 0.87689,-0.14583 1.2423,-0.80357 0.097,-0.17457 0.13763,-0.41823 0.18914,-0.64027 h -17.01292 v -2.38384 h -5.54333 v 2.38384 H 55.760404 v -3.36569 z" /></g></svg>
