<?xml version="1.0" encoding="UTF-8" standalone="no"?>
<!-- Created with Inkscape (http://www.inkscape.org/) -->

<svg
   width="197.44901mm"
   height="128.80403mm"
   viewBox="0 0 197.44901 128.80403"
   version="1.1"
   id="svg1"
   xml:space="preserve"
   inkscape:version="1.3 (0e150ed6c4, 2023-07-21)"
   sodipodi:docname="Atlantic_Ocean_North-top.svg"
   xmlns:inkscape="http://www.inkscape.org/namespaces/inkscape"
   xmlns:sodipodi="http://sodipodi.sourceforge.net/DTD/sodipodi-0.dtd"
   xmlns="http://www.w3.org/2000/svg"
   xmlns:svg="http://www.w3.org/2000/svg"><sodipodi:namedview
     id="namedview1"
     pagecolor="#505050"
     bordercolor="#ffffff"
     borderopacity="1"
     inkscape:showpageshadow="0"
     inkscape:pageopacity="0"
     inkscape:pagecheckerboard="1"
     inkscape:deskcolor="#505050"
     inkscape:document-units="mm"
     inkscape:zoom="0.64"
     inkscape:cx="337.5"
     inkscape:cy="253.90625"
     inkscape:window-width="1600"
     inkscape:window-height="837"
     inkscape:window-x="-8"
     inkscape:window-y="-8"
     inkscape:window-maximized="1"
     inkscape:current-layer="layer1" /><defs
     id="defs1"><inkscape:path-effect
       effect="simplify"
       id="path-effect9533"
       is_visible="true"
       lpeversion="1.3"
       threshold="2.2"
       steps="10"
       smooth_angles="360"
       helper_size="10"
       simplify_individual_paths="false"
       simplify_just_coalesce="false" /></defs><g
     inkscape:label="Layer 1"
     inkscape:groupmode="layer"
     id="layer1"
     transform="translate(13.30467,-13.539225)"><path
       id="path1"
       style="opacity:1;fill:#ffffff;fill-opacity:1;fill-rule:evenodd;stroke:none;stroke-width:0.499999;stroke-linecap:round;stroke-linejoin:round"
       d="m 105.62668,13.539225 c -1.65365,0.723469 -1.34359,1.550294 -2.06706,2.480469 -0.72347,0.930175 -4.03076,2.273762 -4.650876,1.550293 -0.620118,-0.72347 -0.620118,-0.413411 -1.343588,0.310058 -0.723469,0.72347 -1.653646,-0.310057 -1.860351,0.310059 -0.206706,0.620116 -1.756998,0.413413 -1.240235,1.44694 0.516765,1.033528 0.930175,1.860352 -0.206705,2.273763 -1.136881,0.413412 -2.067058,1.136882 -2.067058,1.860352 0,0.723469 -0.620118,2.997234 -1.963704,4.857584 H 60.358125 c 1.550292,2.067055 1.240235,1.757 1.240235,2.687175 0,0.930175 0.620118,0.206706 0.826822,1.136881 0.206706,0.930174 0.930175,1.757 0.206706,2.377116 -0.723469,0.620117 0.516764,0.723471 1.136882,1.653646 0.620116,0.930175 2.273764,0.620117 2.997233,1.240234 0.723469,0.620117 1.343586,0.930176 0.620117,1.44694 -0.723469,0.516764 1.136881,0.310059 1.653646,0.930176 0.516763,0.620117 0.72347,0.516766 0.620117,1.550293 -0.103353,1.033528 0.723469,1.653646 -0.516764,2.273763 -1.240233,0.620117 -2.583823,1.343587 -3.617351,1.240235 -1.033527,-0.103353 -0.930178,1.033529 -2.583821,1.756998 -1.653645,0.72347 -3.927411,0.310059 -5.270996,0.206706 -1.343587,-0.103353 -4.547528,-1.033527 -5.374349,-0.103353 -0.826822,0.930175 -1.757001,1.136882 -3.100586,1.963705 -1.343587,0.826822 -0.310056,0.620116 1.756998,-0.103353 2.067056,-0.72347 4.134115,-0.206705 4.134115,0.413411 0,0.620118 -0.413413,1.343587 -1.343587,1.44694 -0.930175,0.103352 -1.343588,0.31006 -0.72347,0.826823 0.620116,0.516765 -0.620117,0.620119 0.206706,1.756999 0.826822,1.136881 1.343588,1.860351 2.89388,1.653646 1.550291,-0.206706 2.687174,-0.103352 2.583821,0.72347 -0.103353,0.826822 -0.620118,0.826824 -2.17041,1.343587 -1.550291,0.516764 -2.893881,0.31006 -3.824056,1.44694 -0.930175,1.136881 -2.89388,1.653645 -2.89388,0.72347 0,-0.930174 1.44694,-1.550293 1.44694,-2.273763 0,-0.723469 -0.723471,-1.136881 -1.860351,-0.413411 -1.13688,0.723469 -0.876457,1.346551 -2.776575,1.565796 -1.900117,0.219243 -2.192522,0.438243 -2.923336,0.949812 -0.730814,0.511571 -1.899979,0.950084 -1.607654,1.900143 0.292326,0.950058 1.242112,1.534735 0.438216,1.900142 -0.803896,0.365407 -4.23888,0.511731 -5.846671,1.681035 -1.607792,1.169302 -2.192467,3.288851 -3.288688,3.581176 -1.096222,0.292326 0.07308,1.53468 -1.388546,2.265495 -1.461629,0.730814 -1.169084,0.730649 -1.46141,2.484603 -0.292325,1.753954 -0.438568,2.630873 -1.53479,3.142444 -1.096222,0.51157 -2.192603,0.438487 -3.06958,1.388546 -0.876978,0.950058 -1.315083,0.365487 -2.557466,1.53479 -1.242385,1.169303 -1.242735,-0.219383 -2.48512,1.607653 -1.242384,1.827036 -2.119169,1.315899 -1.973006,2.631364 0.146164,1.315466 1.242437,3.80004 1.023193,4.750098 -0.219245,0.950059 -0.146298,1.534843 0.219108,2.557983 0.365408,1.02314 0.219136,1.899816 -0.657841,2.703711 -0.876978,0.803897 -1.315274,2.192633 -1.973006,0.804086 -0.657733,-1.388548 -2.703765,-3.654312 -2.338358,-4.60437 0.365407,-0.95006 0.876762,-1.753735 0.07286,-2.849956 -0.803896,-1.096222 -0.511433,-1.900197 -1.607653,-1.53479 -1.096222,0.365407 -1.388463,1.242385 -2.630848,0 -1.2423839,-1.242385 -0.730921,-1.095975 -2.0463863,-0.949813 -1.3154659,0.146163 -1.4616256,-0.219243 -2.7770915,0 -1.3154659,0.219245 -2.2658488,0.07283 -1.973523,0.949813 0.2923257,0.876977 1.169466,1.534573 0.2924886,1.607654 -0.8769772,0.07308 -2.6311728,0.804112 -3.2158243,-0.07286 -0.58465154,-0.876978 -0.51148708,-1.388464 -1.24230147,-1.242301 -0.73081438,0.146163 -1.53476173,1.169248 -2.41173913,0.365352 -0.8769772,-0.803895 -1.3150556,-0.657732 -2.0458699,0 -0.7308144,0.657734 -1.3155175,1.315247 -2.4117391,1.46141 -1.0962215,0.146163 -2.1923585,-0.145973 -2.6308472,0.804085 -0.4384886,0.950059 -2.1198227,1.388462 -1.7544147,2.630847 0.365406,1.242384 0.87714,1.973332 0.292488,2.557984 -0.584651,0.584651 -0.877112,0.219242 -1.169437,1.388545 -0.292326,1.169304 -1.315384,2.922954 -1.242302,4.092257 0.07308,1.169303 0.438759,2.338579 0.95033,3.654039 0.511569,1.31547 0.51165,2.48493 1.53479,3.06958 1.0231405,0.58465 1.6804079,1.60808 2.4112223,1.46192 0.7308144,-0.14616 1.5351972,-0.43889 2.2660116,-0.73122 0.7308143,-0.29232 1.5345989,-1.023 2.1192505,-0.21911 0.5846515,0.8039 0.5846499,0.73105 1.3885457,-0.0729 0.8038958,-0.8039 1.68073528,-1.82725 1.6076538,-2.70423 -0.073082,-0.87698 0.36548703,-1.90001 1.53479004,-2.11925 1.16930306,-0.21925 4.38493476,-0.877 5.18883056,-0.51159 0.8038958,0.3654 0.5842977,0.95014 0.2919718,1.53479 -0.2923257,0.58465 -1.1689209,1.02294 -1.1689209,1.973 0,0.95006 0.072675,1.89996 -0.7312215,2.4846 -0.8038958,0.58465 -1.4614095,0.5116 -1.4614095,1.90015 0,1.38855 -0.2925152,2.26574 -0.8040853,2.70422 -0.51157,0.43849 1.3155724,-0.51164 2.0463868,-0.14624 0.7308143,0.36541 2.1928205,0.146 2.9967163,-0.29249 0.8038958,-0.43849 3.8729308,0.51171 3.9460128,1.16944 0.07308,0.65773 1.4619,1.02335 0.950329,2.70423 -0.511569,1.68087 -1.242437,1.60754 -1.023193,2.33836 0.219245,0.73081 -0.365271,1.608 -0.219108,2.70422 0.146163,1.09622 -0.7308151,0.0732 0,1.16944 0.730814,1.09622 1.753679,2.8502 3.215307,3.28869 1.461629,0.43849 2.631038,-0.43854 3.434933,-1.02319 0.803896,-0.58465 1.608006,-0.73105 2.704227,0.0729 1.096222,0.8039 2.265223,2.55782 2.703711,2.26549 0.438489,-0.29233 0.804058,-1.60751 1.681035,-1.82676 0.876977,-0.21924 0.584324,-0.95044 0.803568,-1.60817 0.219245,-0.65773 -0.14611,-1.75368 1.023194,-1.82676 1.169302,-0.0731 2.557874,0.073 3.288688,-0.65784 0.730814,-0.73082 1.388436,-0.29233 2.11925,-1.38855 0.730816,-1.09622 1.534953,-0.95017 1.827279,-0.65784 0.292326,0.29232 0.877193,1.31579 -0.07286,1.97353 -0.950059,0.65772 -0.146189,0.87675 -0.511597,1.4614 -0.365406,0.58465 -0.804166,0.94993 -0.950329,1.60766 -0.146164,0.65773 -0.146218,1.24247 0.365352,1.53479 0.511571,0.29233 1.461845,0.21922 1.315682,-0.5116 -0.146163,-0.73081 -0.949948,-1.3885 -0.730705,-1.7539 0.219245,-0.36541 -2.8e-5,-1.09622 0.87695,-1.38854 0.876977,-0.29233 1.826761,-0.58449 1.826761,-1.09606 0,-0.51157 0.950194,-1.16954 1.169438,-0.43873 0.219245,0.73082 1.096003,-0.292 1.46141,0.58498 0.365407,0.87696 0.51165,1.68051 1.53479,1.68051 1.02314,0 2.631228,-0.80384 2.850472,-0.36535 0.219244,0.43849 1.24249,1.53463 2.046386,1.2423 0.803896,-0.29233 1.534681,-0.36516 2.265495,-0.94981 0.730814,-0.58465 3.288525,-0.65801 2.9962,-0.0734 -0.292326,0.58465 -0.584868,1.09652 0.07286,1.46193 0.657733,0.3654 2.046332,-0.21953 2.41174,0.43821 0.365406,0.65773 0.511678,1.09669 0.657841,1.75442 0.146162,0.65774 0.950164,-0.58493 2.046386,0.43821 1.096221,1.02314 2.92339,2.41184 2.557984,3.06958 -0.365408,0.65773 1.095947,0.36546 1.826762,1.0232 0.730814,0.65772 1.461518,0.80383 2.11925,0.36535 0.657733,-0.43849 4.23861,-0.21914 4.896342,0.65784 0.657733,0.87698 3.14285,1.68057 3.873665,2.70371 0.730815,1.02315 0.51146,1.24244 0.730705,2.41174 0.219244,1.16931 2.16e-4,1.46152 1.315682,2.11925 1.315466,0.65773 1.022868,1.53468 0.438216,2.26549 -0.482364,0.60296 0.405994,0.94348 1.296562,1.25419 H 178.10494 l 3.98271,1.57665 c 0.39537,-0.48783 1.51987,-0.7806 1.6738,-1.4733 0.20671,-0.93016 -1.24024,-1.24024 -0.62012,-2.48046 0.62011,-1.24024 1.34358,-2.37712 0.82682,-3.3073 -0.51677,-0.93017 -0.72347,-2.58382 -2.27376,-2.27376 -1.5503,0.31006 -2.58383,0 -3.514,0.41341 -0.93018,0.41341 -2.17041,0.20671 -2.58382,-1.13688 -0.41341,-1.34359 -0.51677,-2.48047 -2.17041,-2.68717 -1.65365,-0.20671 -2.37712,0 -3.20394,0.41341 -0.82682,0.41341 -1.44694,-0.41341 -2.06706,0.41341 -0.62012,0.82682 -2.17041,0 -3.41064,1.03353 -1.24024,1.03353 -2.06706,1.86035 -3.41065,1.24023 -1.34358,-0.62011 -1.65364,-1.03353 -3.41064,-0.72347 -1.757,0.31006 -3.30729,-0.31006 -3.92741,0.31006 -0.62012,0.62012 -1.65365,1.96371 -3.514,0.72347 -1.86035,-1.24023 -3.514,-2.58382 -5.06429,-3.30729 -1.55029,-0.72347 -4.65088,-3.10059 -4.65088,-4.13412 0,-1.03351 -1.03352,-2.79052 -2.06705,-3.20393 -1.03352,-0.41342 -1.5503,-1.13689 -1.65365,-1.96371 -0.10335,-0.82682 -2.27376,-0.93017 -2.58382,-1.757 -0.31006,-0.82682 -0.62012,-1.44694 -0.20671,-2.27376 0.41341,-0.82682 -2.37711,-2.58382 -1.86035,-3.10059 0.51676,-0.51676 1.34359,-0.82682 1.757,-3.30729 0.41341,-2.48047 1.86035,-3.61735 0.62012,-4.34082 -1.24024,-0.72347 -0.82683,-1.44694 -0.31006,-1.9637 0.51676,-0.51677 -1.24024,-0.72347 -1.34359,-1.5503 -0.10335,-0.82681 -0.31006,-2.273755 0.93018,-3.410636 1.24023,-1.13688 1.24024,-4.030762 2.06705,-4.030762 0.82683,0 0.20671,-1.136882 0.82683,-2.067057 0.62011,-0.930175 1.65364,-1.446941 2.17041,-2.377116 0.51676,-0.930175 0.62011,-2.17041 2.17041,-2.273763 1.55029,-0.103353 2.79052,-1.136883 3.30729,-1.860352 0.51676,-0.723469 0.72347,-1.343589 0.31006,-2.997233 -0.41342,-1.653643 0.72347,-2.273765 1.44694,-3.927409 0.72347,-1.653644 2.79052,-1.240235 3.30729,-1.963704 0.51676,-0.723469 1.65364,-2.273765 1.44694,-3.307292 -0.20671,-1.033528 -1.34359,-2.273762 -2.48047,-1.963704 -1.13688,0.310058 -3.20394,0.413411 -3.20394,-0.516765 0,-0.930175 0.31006,-2.17041 -0.72347,-2.377115 -1.03353,-0.206706 -0.62012,-0.826824 -0.10335,-1.963705 0.51676,-1.13688 0.72348,-1.963705 0.20671,-2.790527 -0.51676,-0.826822 -0.10336,-1.757001 -0.93018,-2.790528 -0.82683,-1.033528 -0.51676,-2.273763 0.51676,-2.17041 1.03353,0.103352 1.24024,-0.723469 2.79053,-0.413411 1.55029,0.310059 5.27101,1.033529 6.92464,0.620117 1.65365,-0.413411 2.06706,0.826821 2.17041,-0.413411 0.10335,-1.240233 1.03353,-1.963706 0.20671,-2.583822 -0.82683,-0.620116 0.2067,-1.653647 -0.93018,-1.756999 -1.13688,-0.103353 -0.41341,-1.343588 -1.757,-1.756998 -1.34357,-0.413412 -3.82405,-0.620118 -4.13411,-1.446941 -0.31006,-0.826822 -0.62011,-1.756998 0.51676,-2.067057 1.13688,-0.310058 2.27377,-0.206705 2.99724,0.206706 0.72347,0.413411 1.34358,0.103352 0.51676,-0.620117 -0.82682,-0.72347 -0.72347,-2.273762 0,-1.860352 0.72347,0.413412 1.44694,1.653645 2.37712,1.44694 0.93017,-0.206706 0.93017,-1.44694 1.86035,-1.343587 0.93017,0.103353 -0.20671,-1.963704 0.31006,-2.17041 0.51676,-0.206706 2.37711,0.206705 3.10058,-0.413412 0.72347,-0.620116 -0.10334,-2.790528 0.41342,-3.100586 0.51676,-0.310058 1.75699,-0.310059 2.27376,-1.033528 0.51676,-0.723469 1.9637,-0.103354 2.58382,-0.413412 0.62012,-0.310058 0.93017,-0.31006 0,-1.550293 -0.93018,-1.240233 -2.37712,-3.100586 -1.86035,-4.030761 0.51676,-0.930175 1.24023,-0.930177 1.9637,-1.240235 0.72347,-0.310058 2.48047,-0.72347 2.48047,-0.72347 -1.34359,-1.550291 -1.757,-2.58382 -2.58382,-2.273763 -0.82683,0.310059 -1.44693,1.756999 -2.27376,2.067057 -0.82682,0.310058 -3.61736,-0.206706 -4.13412,-1.033528 -0.51676,-0.826822 -1.44694,-1.860352 -1.86035,-2.997233 -0.41341,-1.13688 -1.03353,-1.550293 -1.03353,-1.550293 h -8.26823 c 0,0 -15.81299,-4.237469 -20.15381,-6.097819 -1.44693,0.620116 -2.27376,0.206706 -2.99723,1.136881 -0.72347,0.930174 -1.24024,0.72347 -2.79053,0.620117 -1.55028,-0.103352 -3.10057,-0.516765 -3.51399,-1.033528 -0.41341,-0.516764 -1.34358,-0.826825 -1.13688,-1.860352 0.2067,-1.033528 -0.93018,-0.310059 -1.44695,-1.240234 -1.24022,0.103353 -1.65364,0.103353 -1.65364,0.103353 z" /></g></svg>
