<?xml version="1.0" encoding="UTF-8" standalone="no"?>
<!-- Created with Inkscape (http://www.inkscape.org/) -->

<svg
   width="143.74899mm"
   height="112.768mm"
   viewBox="0 0 143.74899 112.768"
   version="1.1"
   id="svg1"
   xml:space="preserve"
   inkscape:version="1.3 (0e150ed6c4, 2023-07-21)"
   sodipodi:docname="Atlantic_Ocean_South-top.svg"
   xmlns:inkscape="http://www.inkscape.org/namespaces/inkscape"
   xmlns:sodipodi="http://sodipodi.sourceforge.net/DTD/sodipodi-0.dtd"
   xmlns="http://www.w3.org/2000/svg"
   xmlns:svg="http://www.w3.org/2000/svg"><sodipodi:namedview
     id="namedview1"
     pagecolor="#505050"
     bordercolor="#ffffff"
     borderopacity="1"
     inkscape:showpageshadow="0"
     inkscape:pageopacity="0"
     inkscape:pagecheckerboard="1"
     inkscape:deskcolor="#505050"
     inkscape:document-units="mm"
     inkscape:zoom="0.45254834"
     inkscape:cx="214.34174"
     inkscape:cy="-18.782524"
     inkscape:window-width="1600"
     inkscape:window-height="837"
     inkscape:window-x="-8"
     inkscape:window-y="-8"
     inkscape:window-maximized="1"
     inkscape:current-layer="layer1" /><defs
     id="defs1"><inkscape:path-effect
       effect="simplify"
       id="path-effect9533"
       is_visible="true"
       lpeversion="1.3"
       threshold="2.2"
       steps="10"
       smooth_angles="360"
       helper_size="10"
       simplify_individual_paths="false"
       simplify_just_coalesce="false" /></defs><g
     inkscape:label="Layer 1"
     inkscape:groupmode="layer"
     id="layer1"
     transform="translate(-50.5546,-140.86014)"><path
       id="path1"
       style="opacity:1;fill:#ffffff;fill-opacity:1;fill-rule:evenodd;stroke:none;stroke-width:0.499999;stroke-linecap:round;stroke-linejoin:round"
       d="m 74.251334,140.86014 c 0.103153,0.0355 0.193504,0.079 0.291972,0.1142 1.02314,0.3654 1.461628,0.73082 1.388546,1.38855 -0.07308,0.65774 1.023083,-0.80385 1.753898,-0.36536 0.730814,0.43849 2.411548,0.14592 2.996199,0.94982 0.584652,0.80389 2.046468,0.43841 2.192631,1.2423 0.146163,0.8039 0.803705,1.24241 0.584461,1.90014 -0.219244,0.65774 0.876839,-1.60741 1.607654,-1.16892 0.730815,0.43849 1.129649,1.42679 3.403409,1.22008 2.273761,-0.20671 4.237469,0.10335 5.064291,1.13688 0.826821,1.03353 2.48047,2.79053 4.134114,2.89388 1.653645,0.10336 2.273762,0.41341 2.687171,1.24024 0.41341,0.82682 1.96371,3.82405 1.24024,5.4777 -0.72347,1.65364 -2.79053,2.37712 -3.513999,3.82405 -0.72347,1.44694 -2.067058,3.20395 -2.687175,4.34082 -0.620116,1.13689 -1.033529,-0.51676 -1.550293,0.51677 -0.516763,1.03353 0.620117,4.54753 0.103353,6.51123 -0.516763,1.9637 -1.653646,2.68717 -1.550293,4.03076 0.103353,1.34359 -0.103353,2.89388 -1.033528,3.82406 -0.930175,0.93017 -1.136882,1.13688 -1.033529,1.9637 0.103353,0.82682 -0.723471,0.72347 -1.343587,1.65365 -0.620118,0.93017 -0.826825,0.51676 -2.377116,0.93017 -1.550292,0.41341 -1.860353,-1.13688 -3.100586,0.72347 -1.240234,1.86036 -1.34359,-0.10335 -2.997233,1.44694 -1.653645,1.5503 -2.89388,1.03353 -2.89388,2.37712 0,1.34359 -0.930175,1.86035 -0.516765,2.79053 0.413412,0.93017 1.136881,2.27376 0,3.20394 -1.13688,0.93016 -1.860351,1.96371 -2.273763,3.20393 -0.41341,1.24024 -2.067058,1.96371 -2.997233,3.3073 -0.930175,1.34357 -1.550294,2.99723 -2.273763,3.7207 -0.723469,0.72347 -0.516766,2.17041 -2.480469,1.86035 -1.963702,-0.31006 -3.617351,-1.24023 -4.237467,-1.13688 -0.620116,0.10335 0.206705,0.20671 0.72347,0.93017 0.516763,0.72347 -0.413411,1.24024 0.413411,1.86036 0.826823,0.62011 1.550293,0.62011 1.033529,1.65364 -0.516763,1.03353 -0.516765,3.30729 -1.860351,3.41065 -1.343586,0.10335 -2.893881,0.10335 -3.927409,0.41341 -1.033527,0.31006 -1.653647,-0.20671 -2.480469,-0.10335 -0.826822,0.10335 0.413411,0.82682 0.413411,1.44694 0,0.6201 -0.41341,0.93017 -0.206705,1.86035 0.206705,0.93017 -1.653647,1.44694 -2.893881,1.13688 -1.240232,-0.31006 -1.756997,-0.62012 -1.136881,1.03353 0.620116,1.65364 1.550294,-0.62012 1.860351,0.10335 0.310059,0.72347 0.826823,1.86035 -0.103352,2.27376 -0.930174,0.41341 -1.446941,0.41341 -1.343588,1.34359 0.103353,0.93018 1.033528,1.65365 0,2.06706 -1.033527,0.41341 -2.377116,0.51676 -2.377116,1.55029 0,1.03353 0.206707,1.24024 1.343588,1.65365 1.13688,0.41341 2.067057,0.10335 2.067057,1.13688 0,1.03353 0.620116,1.757 -0.516764,2.37711 -1.136881,0.62012 -1.860352,0.72347 -1.653646,1.757 0.206705,1.03353 -0.103354,1.44694 -0.826823,1.65365 -0.723469,0.2067 -1.343586,1.34359 -0.103353,2.06706 1.240233,0.72346 1.550294,2.17041 2.17041,3.10058 0.620117,0.93018 4.134117,2.79053 5.167643,2.99723 1.033528,0.20671 -0.723472,0.72348 -2.790527,0.62012 0.620117,1.5503 2.170412,6.92464 3.410645,9.30176 H 174.66639 c 11.98892,-21.29067 15.50294,-32.86623 19.63705,-46.9222 -2.27376,-1.24024 -3.7207,-3.3073 -2.99724,-3.92741 0.72347,-0.62012 1.03353,-1.757 0.62012,-3.10059 -0.41341,-1.34357 -0.62012,-4.54752 -1.65364,-5.4777 -1.03353,-0.93018 -2.06705,-3.82406 -1.757,-5.78776 0.31006,-1.9637 0.72346,-4.34082 0.10335,-5.4777 -1.03353,-3.41064 -1.55029,-4.65088 -2.48047,-5.89111 -0.93018,-1.24024 -1.24023,-1.34359 -0.93017,-2.99724 0.31006,-1.65363 0.2067,-3.51399 1.24023,-4.54752 1.03353,-1.03353 0.62012,-2.68718 1.34359,-3.72071 0.72347,-1.03351 2.17041,-0.93017 2.27376,-2.06705 0.10335,-1.13688 0.93017,-2.58382 -0.31006,-3.72071 -1.24023,-1.13687 -0.62012,-2.17041 0,-2.79052 0.62012,-0.62012 -0.72347,-2.48048 -1.24023,-3.30729 -0.51677,-0.82683 0.31005,-1.75701 -0.82683,-3.20394 -1.13687,-1.44694 -2.17041,-3.10059 -3.30729,-3.514 -1.13688,-0.41341 -1.96369,-3.30729 -2.37711,-4.23747 -0.0902,-0.20304 -0.0535,-0.36762 0.0398,-0.51676 l -3.94188,-1.56011 z" /></g></svg>
