<?xml version="1.0" encoding="UTF-8" standalone="no"?>
<!-- Created with Inkscape (http://www.inkscape.org/) -->

<svg
   width="156.20549mm"
   height="27.298599mm"
   viewBox="0 0 156.20549 27.298599"
   version="1.1"
   id="svg1"
   xml:space="preserve"
   inkscape:version="1.3 (0e150ed, 2023-07-21)"
   sodipodi:docname="Bell_206L4-top.svg"
   xmlns:inkscape="http://www.inkscape.org/namespaces/inkscape"
   xmlns:sodipodi="http://sodipodi.sourceforge.net/DTD/sodipodi-0.dtd"
   xmlns="http://www.w3.org/2000/svg"
   xmlns:svg="http://www.w3.org/2000/svg"><sodipodi:namedview
     id="namedview1"
     pagecolor="#505050"
     bordercolor="#ffffff"
     borderopacity="1"
     inkscape:showpageshadow="0"
     inkscape:pageopacity="0"
     inkscape:pagecheckerboard="1"
     inkscape:deskcolor="#505050"
     inkscape:document-units="mm"
     inkscape:zoom="0.91936027"
     inkscape:cx="224.06885"
     inkscape:cy="90.280168"
     inkscape:current-layer="layer1"
     showguides="true" /><defs
     id="defs1"><inkscape:path-effect
       effect="mirror_symmetry"
       start_point="0,148.5"
       end_point="210,148.5"
       center_point="105,148.5"
       id="path-effect1"
       is_visible="true"
       lpeversion="1.2"
       lpesatellites=""
       mode="horizontal"
       discard_orig_path="false"
       fuse_paths="false"
       oposite_fuse="true"
       split_items="false"
       split_open="false"
       link_styles="false" /></defs><g
     inkscape:label="Layer 1"
     inkscape:groupmode="layer"
     id="layer1"
     transform="translate(-36.324915,-134.85068)"><path
       id="path1"
       style="fill:#ffffff;fill-opacity:0.981938;stroke:none;stroke-width:4.99999;stroke-linecap:round;stroke-linejoin:round"
       d="m 80.85553,134.85068 c -1.239035,0 -0.717568,1.25936 0.203605,1.25936 h 6.794934 c 0,0 0.578776,2.5314 0.578776,4.17907 H 78.353874 c -4.248873,0 -8.553297,2.09858 -10.428304,5.05241 H 45.721757 c 0,-0.34036 -2.314587,-0.44992 -2.314587,0 h -7.082255 v 1.00355 l 1.718758,2.9776 h 28.972908 c 0.644905,4.12028 6.035003,7.38818 11.337293,7.38818 h 10.078971 c 0,1.64767 -0.578776,4.17907 -0.578776,4.17907 h -6.794934 c -0.921173,0 -1.44264,1.25936 -0.203605,1.25936 h 34.82888 c 1.18136,0 1.40689,-1.25316 0.49093,-1.25316 h -1.35186 c 0.18358,-1.00241 0.59537,-2.3652 0.60307,-4.53564 6.43804,-1.29349 11.58413,-3.47912 15.61816,-4.64778 h 20.67574 v 7.86102 c -0.82638,0 -0.82607,0.80072 0.0496,0.90279 0.87566,0.10207 6.61871,0.21659 7.48172,0.28887 0.86302,0.0723 0.26028,-0.48263 -0.52348,-0.60151 -0.78376,-0.11888 -1.43454,-0.24443 -1.43454,-0.24443 v -8.20674 h 4.97179 c 0,0.42878 2.21382,0.34944 2.21382,0 h 7.21144 v -1.29656 l -0.51831,-0.83457 c 5.09056,-0.15544 8.24601,-0.28371 8.24601,-0.28371 0.8615,0 1.51193,-0.0215 2.21071,-0.0382 v 2.096 h -4.35942 c -0.16691,0 -0.30127,0.13437 -0.30127,0.30127 0,0.16691 0.13436,0.30128 0.30127,0.30128 h 3.98115 a 0.92675525,0.6726048 0 0 0 -0.0165,0.11937 0.92675525,0.6726048 0 0 0 0.92655,0.67283 0.92675525,0.6726048 0 0 0 0.92708,-0.67283 0.92675525,0.6726048 0 0 0 -0.015,-0.11937 h 3.89847 c 0.16691,0 0.30128,-0.13437 0.30128,-0.30128 0,-0.1669 -0.13437,-0.30127 -0.30128,-0.30127 h -4.2757 v -2.1146 c 2.91217,-0.10535 4.25933,-0.32602 4.84466,-0.35967 0.71143,-0.0409 1.79059,-0.0852 1.79059,-0.38137 0,-0.29614 -1.07799,-0.38137 -1.79059,-0.38137 -0.71259,0 -2.53059,-1.1219 -2.53059,-1.1219 0,0 3.24837,-0.0541 6.01978,-0.0491 2.77143,0.005 1.30577,-0.78504 -1.17615,-0.82114 -2.48192,-0.0361 -9.2904,-0.22221 -10.47947,-0.22221 -1.18904,0 -1.2496,0.87385 0.48421,0.87385 l -0.43976,0.92449 c 0,0 -3.69679,-0.15048 -9.61389,-0.32401 l -0.12247,-0.19689 h -7.62434 c -1.58379,-0.0362 -3.00346,-0.074 -4.76405,-0.10748 v -9.99371 c 0,0 0.65078,-0.12555 1.43454,-0.24443 0.78376,-0.11888 1.3865,-0.67381 0.52348,-0.60151 -0.86301,0.0723 -6.60606,0.1868 -7.48172,0.28887 -0.87568,0.10207 -0.87599,0.90279 -0.0496,0.90279 v 9.08678 c -4.63212,0.0371 -14.64398,0.171 -18.9053,-0.76636 -4.26135,-0.93735 -9.96985,-3.61665 -17.3886,-5.10718 -0.008,-2.17044 -0.41949,-3.53323 -0.60307,-4.53564 h 1.35186 c 0.91596,0 0.69043,-1.25316 -0.49093,-1.25316 z m 8.90695,1.34566 h 22.94382 c 0.61987,1.51724 0.863,3.517 0.92139,4.12688 -1.3252,-0.25211 -2.09104,-0.26562 -2.91507,-0.26562 H 90.380013 c -0.04016,-1.4031 -0.617533,-3.86126 -0.617533,-3.86126 z m 23.86521,20.38325 c -0.0584,0.60988 -0.30152,2.60964 -0.92139,4.12688 H 89.76248 c 0,0 0.577373,-2.45816 0.617533,-3.86126 h 20.332607 c 0.82403,0 1.58987,-0.0135 2.91507,-0.26562 z" /></g></svg>
