<?xml version="1.0" encoding="UTF-8" standalone="no"?>
<!-- Created with Inkscape (http://www.inkscape.org/) -->

<svg
   width="49.597195mm"
   height="176.40089mm"
   viewBox="0 0 49.597195 176.40089"
   version="1.1"
   id="svg1"
   xml:space="preserve"
   inkscape:version="1.3 (0e150ed, 2023-07-21)"
   sodipodi:docname="California_Redwood-front.svg"
   xmlns:inkscape="http://www.inkscape.org/namespaces/inkscape"
   xmlns:sodipodi="http://sodipodi.sourceforge.net/DTD/sodipodi-0.dtd"
   xmlns="http://www.w3.org/2000/svg"
   xmlns:svg="http://www.w3.org/2000/svg"><sodipodi:namedview
     id="namedview1"
     pagecolor="#505050"
     bordercolor="#ffffff"
     borderopacity="1"
     inkscape:showpageshadow="0"
     inkscape:pageopacity="0"
     inkscape:pagecheckerboard="1"
     inkscape:deskcolor="#505050"
     inkscape:document-units="mm"
     showguides="true"
     inkscape:zoom="0.45968013"
     inkscape:cx="100.06958"
     inkscape:cy="432.90972"
     inkscape:current-layer="layer1" /><defs
     id="defs1" /><g
     inkscape:label="Layer 1"
     inkscape:groupmode="layer"
     id="layer1"
     transform="translate(-40.549116,-55.421439)"><path
       style="fill:#ffffff;fill-opacity:1"
       d="m 58.82137,231.82234 c 1.596805,-2.58368 3.533278,-11.3016 4.463936,-36.94148 0.56662,-15.61055 1.128269,-30.19692 1.248108,-32.41418 l 0.217889,-4.03137 -1.991738,0.0477 c -1.095456,0.0262 -2.162263,0.339 -2.370682,0.69503 -0.576607,0.98496 -4.604101,-0.66758 -4.644818,-1.90584 -0.01941,-0.58904 -0.237712,-1.75981 -0.485206,-2.60169 -0.355195,-1.20825 0.03723,-1.84399 1.862819,-3.01787 1.515439,-0.97444 1.890575,-1.47794 1.088098,-1.46044 -1.496436,0.0329 -1.694309,-2.24682 -0.300442,-3.46116 0.542969,-0.47304 1.874005,-0.81108 2.957858,-0.7512 4.198668,0.23194 4.519622,0.0239 4.22042,-2.73563 -0.234442,-2.16226 -0.600159,-2.64982 -2.29214,-3.05578 -1.655839,-0.3973 -2.070515,-0.24024 -2.336121,0.88488 -0.17761,0.75235 -0.872351,1.38108 -1.543866,1.39717 -0.941137,0.0225 -1.130188,0.44917 -0.824943,1.86164 0.293574,1.35847 0.142027,1.75051 -0.585939,1.51577 -0.540063,-0.17415 -1.995236,0.76486 -3.233719,2.08669 -1.238483,1.32182 -2.353834,2.40576 -2.478559,2.40874 -0.124725,0.003 -0.468051,-1.30182 -0.762946,-2.89957 -0.365364,-1.97955 -0.267286,-3.08022 0.307869,-3.45501 0.649396,-0.42317 0.648609,-0.77433 -0.0034,-1.52275 -1.07262,-1.2312 -0.447424,-1.89763 1.85869,-1.98129 1.752521,-0.0636 1.764724,-0.0962 0.40278,-1.0754 -0.772476,-0.55541 -1.832459,-0.83374 -2.355518,-0.61852 -2.863424,1.17823 -4.300681,1.27809 -4.3241,0.30048 -0.06339,-2.64607 4.143935,-4.0354 6.524172,-2.1544 0.924881,0.73089 1.657805,0.59829 4.354485,-0.78781 2.926318,-1.50416 3.093588,-1.71768 1.715747,-2.19018 -2.067843,-0.70913 -2.069034,-2.75131 -0.0015,-2.62342 3.258104,0.20155 4.394235,-0.25022 5.182675,-2.06087 0.446141,-1.02454 0.637394,-2.12949 0.425008,-2.45542 -0.757767,-1.16286 -2.445415,-0.51439 -3.188176,1.22504 -0.723367,1.694 -1.320804,2.0623 -3.073491,1.89468 -0.438573,-0.0419 -0.979346,0.43409 -1.201716,1.05785 -0.330285,0.92645 -1.336872,1.11753 -5.497721,1.04363 -3.930932,-0.0698 -5.477985,0.19284 -6.778429,1.15097 -0.92676,0.68278 -2.423141,1.25911 -3.325291,1.28072 -1.372506,0.0329 -1.611561,-0.27209 -1.464405,-1.86818 0.135499,-1.46966 0.694339,-2.06882 2.434681,-2.61032 1.242349,-0.38656 2.249515,-1.09109 2.238148,-1.56562 -0.01137,-0.47453 0.442305,-1.26612 1.008162,-1.7591 0.565856,-0.49297 1.014666,-1.48757 0.997354,-2.21023 -0.01786,-0.74546 0.45974,-1.32568 1.103912,-1.34111 0.939655,-0.0225 0.977817,-0.20805 0.221371,-1.07634 -1.110655,-1.27485 0.0024,-4.53062 1.561607,-4.56798 0.540696,-0.013 1.132697,-0.65731 1.315559,-1.43191 0.182861,-0.7746 0.798104,-1.41952 1.367206,-1.43315 0.5691,-0.0136 1.531712,-0.82442 2.139135,-1.80175 0.930343,-1.4969 1.647077,-1.78996 4.547588,-1.85944 2.77555,-0.0665 3.665551,0.21767 4.59001,1.4655 0.976206,1.31768 1.245301,1.38935 1.808717,0.48182 0.36404,-0.58639 0.54231,-2.63875 0.396157,-4.5608 -0.230103,-3.02604 -0.477582,-3.51956 -1.84564,-3.68053 -1.629891,-0.19179 -2.227825,1.51929 -0.819101,2.34397 0.390588,0.22865 0.721693,0.89719 0.73579,1.48564 0.02065,0.86204 -0.52513,0.99038 -2.809197,0.66054 -1.688429,-0.24383 -3.188482,-0.10127 -3.709348,0.35251 -0.52934,0.46116 -1.689935,0.5646 -2.940373,0.26208 -1.808893,-0.43764 -2.099389,-0.85629 -2.335486,-3.36578 -0.218455,-2.322 0.02809,-3.08654 1.298926,-4.02796 1.329383,-0.98481 1.406063,-1.25987 0.502881,-1.80387 -0.753871,-0.45406 -1.311368,-0.29623 -1.905395,0.53942 -0.965302,1.35796 -0.9515,1.36936 -2.145665,-1.772594 -0.767119,-2.018358 -0.735119,-2.491716 0.217969,-3.224294 0.78937,-0.606739 0.877189,-0.999075 0.299346,-1.337351 -1.40607,-0.823129 -0.928288,-1.664512 1.247799,-2.197392 3.392594,-0.830781 1.590255,-2.011234 -2.236474,-1.464794 -3.498374,0.499552 -4.413114,-0.244471 -2.617085,-2.12866 1.039376,-1.090395 4.899575,-1.210525 5.974466,-0.185932 0.610382,0.581823 1.655078,0.357501 4.144875,-0.890007 3.123483,-1.565014 3.227173,-1.703009 1.681076,-2.237235 -2.414555,-0.834305 -1.52967,-2.25599 1.515488,-2.434833 2.61882,-0.1538 3.85358,-1.189302 3.821715,-3.204982 -0.01288,-0.813343 -1.05955,-1.058487 -4.645439,-1.087994 -3.507509,-0.02886 -4.856234,-0.33393 -5.567514,-1.259308 -1.285724,-1.672732 -0.734208,-2.291862 2.102098,-2.359806 1.324399,-0.03173 2.400453,-0.372594 2.391233,-0.757483 -0.0092,-0.38489 -0.350258,-0.691811 -0.757862,-0.682046 -0.407605,0.0098 -0.554019,-0.301819 -0.325365,-0.692407 0.228656,-0.390588 1.063434,-0.725676 1.855063,-0.744639 2.435255,-0.05834 8.218403,-2.571806 8.194693,-3.561574 -0.0167,-0.697009 -0.305989,-0.637927 -1.135031,0.23181 -0.611942,0.64198 -1.52782,1.019218 -2.035282,0.838305 -0.507463,-0.180912 -1.020076,-0.01154 -1.13914,0.376382 -0.143882,0.468785 -1.291805,0.491238 -3.423029,0.06695 -1.763602,-0.351099 -4.358928,-0.422914 -5.767392,-0.159588 -1.408464,0.263326 -2.566098,0.259414 -2.572521,-0.0087 -0.03282,-1.370145 1.536192,-3.233287 2.74729,-3.262299 1.438352,-0.03446 4.119237,-2.393293 4.090355,-3.598989 -0.0092,-0.38489 0.264007,-0.706525 0.607172,-0.714746 0.343164,-0.0082 0.802669,-0.806954 1.021121,-1.774963 0.218453,-0.968009 0.873435,-1.771425 1.455516,-1.785369 0.582081,-0.01394 1.228277,-0.50206 1.435991,-1.084701 0.207714,-0.582642 0.973789,-1.073629 1.70239,-1.091082 0.7286,-0.01745 1.317183,-0.346644 1.307963,-0.731533 -0.0092,-0.384889 1.007715,-0.724341 2.259857,-0.754336 1.614675,-0.03868 2.858138,0.532747 4.276629,1.965302 1.100005,1.110911 2.423841,1.845443 2.941856,1.632293 0.518016,-0.213149 1.159508,-0.05352 1.425538,0.354728 0.26603,0.408249 -0.202592,1.015001 -1.041382,1.348337 -1.445746,0.574541 -1.386845,0.68322 1.132379,2.089375 1.922533,1.073101 2.898042,1.273709 3.527417,0.725397 1.116854,-0.973006 4.205324,0.05672 4.846932,1.616008 0.404804,0.983792 0.02416,1.092 -2.860875,0.813257 -2.822652,-0.272718 -3.085827,-0.203405 -1.733716,0.456606 1.75235,0.855381 2.026755,1.616531 0.857473,2.378477 -0.541243,0.352694 -0.504496,0.648586 0.126417,1.01793 0.568128,0.332588 0.696055,0.993542 0.354106,1.829544 -0.515201,1.259572 -0.71734,1.894953 -0.883691,2.777701 -0.0427,0.22664 -1.230156,-0.719176 -2.63877,-2.101812 -1.439428,-1.412883 -2.405857,-2.949387 -2.206619,-3.508255 0.205643,-0.576833 -0.07705,-0.984034 -0.673239,-0.969752 -0.565255,0.01354 -1.038583,-0.428174 -1.05184,-0.981587 -0.02771,-1.156666 -2.893282,-1.148309 -3.665076,0.01069 -0.758745,1.139402 -0.59215,1.798279 0.448387,1.773353 0.517682,-0.0124 1.526305,0.593618 2.241386,1.346709 0.994255,1.047105 1.068883,1.377319 0.317195,1.403525 -0.841992,0.02937 -0.839376,0.120414 0.01821,0.634982 0.550657,0.330391 1.423481,0.426952 1.939609,0.214579 1.279885,-0.526639 3.059664,0.991299 2.617272,2.232217 -0.197589,0.554242 -0.01065,0.999363 0.415416,0.989156 1.343796,-0.03219 1.018939,4.045552 -0.346151,4.345032 -2.457992,0.539247 -5.877705,-0.12996 -5.537701,-1.083678 0.181433,-0.508925 -0.132786,-1.290943 -0.698266,-1.737819 -0.565479,-0.446875 -1.049407,-1.700085 -1.075394,-2.784912 -0.02599,-1.084826 -0.388083,-2.171938 -0.804656,-2.415806 -1.212693,-0.709923 -1.324365,-0.0832 -0.509872,2.861467 0.420309,1.519561 0.860093,3.233177 0.977296,3.808034 0.411776,2.019663 1.381573,3.467908 2.307385,3.44573 0.514331,-0.01232 1.360339,0.539571 1.880019,1.226427 0.519679,0.686854 1.500886,1.441186 2.180461,1.676292 1.189888,0.411653 1.562564,1.54415 1.362042,4.139002 -0.06678,0.864203 0.237915,1.085416 1.040289,0.755261 0.760238,-0.312818 1.067688,-0.139157 0.931584,0.526199 -0.30542,1.49306 2.71272,4.772895 4.873022,5.295549 2.338512,0.56577 3.705791,3.337345 1.993886,4.041749 -0.62937,0.258969 -2.055541,-0.0235 -3.16927,-0.627704 -1.415689,-0.768022 -2.500506,-0.904597 -3.605468,-0.453916 -2.435075,0.993191 -6.801031,0.899073 -7.235154,-0.155971 -0.209774,-0.509813 -0.821816,-0.745716 -1.360092,-0.524229 -0.538277,0.221487 -0.820608,0.645288 -0.627402,0.941781 0.193205,0.296493 -0.104894,0.936499 -0.662444,1.422232 -1.571829,1.36939 -0.513725,2.11291 2.890789,2.03136 2.173181,-0.0521 3.114741,0.21546 3.13089,0.88956 0.04235,1.76787 2.117017,2.85505 3.59347,1.88308 2.195613,-1.4454 3.427289,-1.10033 3.476983,0.97413 0.0352,1.46957 0.227405,1.69837 0.864904,1.02958 1.078522,-1.13146 2.759478,-1.13064 4.389179,0.002 1.23847,0.86083 1.250272,1.0174 0.196155,2.60179 -1.387016,2.08478 -1.392799,3.44228 -0.01883,4.42154 0.715283,0.50981 0.855656,1.0863 0.435713,1.78942 -0.530986,0.88903 -0.826363,0.85895 -2.066501,-0.21047 -0.795828,-0.68628 -1.888583,-1.06606 -2.428344,-0.84396 -0.539761,0.2221 -1.329463,0.0721 -1.754895,-0.3335 -0.553639,-0.52774 -1.071738,-0.47751 -1.822674,0.17672 -1.411363,1.22958 -3.015949,0.5525 -3.344039,-1.41107 -0.201753,-1.20747 -0.874246,-1.70463 -2.728382,-2.01702 -1.353349,-0.22804 -3.174491,-0.61927 -4.046981,-0.8694 -2.142837,-0.61435 -2.097965,1.2588 0.06505,2.71556 1.506322,1.01448 1.530038,1.13775 0.399893,2.07857 -0.660766,0.55007 -1.197108,1.179 -1.19187,1.39764 0.0052,0.21863 1.739789,0.74144 3.854558,1.16179 3.038419,0.60394 4.058339,0.57844 4.861829,-0.12146 1.71395,-1.4932 5.058588,-1.74357 7.018603,-0.52539 2.850282,1.77149 2.262969,2.59759 -1.588759,2.23471 -2.398962,-0.22601 -3.81699,-0.0173 -4.709749,0.69323 -1.173084,0.93362 -1.066473,1.01336 1.306136,0.97698 2.597911,-0.0398 4.022687,0.85119 2.719236,1.70057 -1.041375,0.6786 -0.818389,1.77717 0.355022,1.74906 0.756648,-0.0181 1.027351,0.7984 1.036385,3.12607 0.01359,3.50204 -0.384506,3.81548 -2.293096,1.80544 -0.715081,-0.75309 -1.881159,-1.35534 -2.591285,-1.33833 -0.862147,0.0207 -1.303343,-0.47854 -1.327871,-1.50242 -0.03492,-1.45779 -0.0817,-1.46866 -0.949357,-0.22039 -1.160257,1.66923 -2.757326,0.84052 -2.182717,-1.13259 0.360995,-1.23961 0.19259,-1.38781 -1.141527,-1.00457 -1.092087,0.31371 -1.98488,-0.004 -2.954522,-1.05207 l -1.389527,-1.50162 0.446309,1.87195 c 0.245469,1.02956 0.164211,2.05577 -0.180576,2.28045 -0.984971,0.64184 0.923995,3.85979 2.274182,3.8336 0.660086,-0.0128 1.552314,0.59846 1.982727,1.35837 0.430414,0.75991 1.251649,1.37042 1.824969,1.35668 1.235385,-0.0296 2.614657,2.9728 2.068917,4.50361 -0.274541,0.77009 -0.06694,0.94356 0.734546,0.61376 0.781593,-0.3216 1.126652,-0.0672 1.148551,0.84696 0.04211,1.75779 3.349373,5.06398 5.025454,5.02383 1.285001,-0.0308 2.840192,1.79879 2.878215,3.38602 0.02634,1.09973 -2.936713,0.97718 -4.697481,-0.19428 -1.157986,-0.77042 -1.970945,-0.83568 -3.358745,-0.26964 -2.362043,0.96341 -6.633533,1.06749 -6.655214,0.16243 -0.0092,-0.38489 -0.646583,-0.68471 -1.416362,-0.66627 -2.148369,0.0515 -1.82689,4.47512 0.485395,6.67922 1.942682,1.85179 1.787649,3.76934 -0.308808,3.81956 -1.276013,0.0306 -1.301172,0.96456 -0.68415,25.39866 0.352314,13.95181 1.28225,28.67202 1.408191,34.15329 0.189054,8.22814 2.071208,11.94515 3.785539,16.13668 z m 15.449128,-90.76998 c 1.232394,-0.74422 1.391732,-1.04111 0.557533,-1.03885 -1.644524,0.004 -3.364272,0.79105 -3.346555,1.53067 0.02064,0.86154 0.76537,0.73021 2.789022,-0.49182 z m -15.07297,-15.39345 c -0.0092,-0.38489 -1.03969,-0.65315 -2.289933,-0.59613 -1.904935,0.0868 -2.044112,0.19566 -0.859164,0.67157 1.953239,0.78447 3.168998,0.75534 3.149097,-0.0754 z m 26.774,-14.36823 c -0.238107,-0.22696 -0.84228,-0.23737 -1.342606,-0.0232 -0.552901,0.23677 -0.383107,0.39862 0.432924,0.41267 0.738433,0.0127 1.147789,-0.16259 0.909681,-0.38956 z M 66.6373,96.638734 c 0.272324,-0.465184 0.117873,-0.961581 -0.343224,-1.103104 -0.461099,-0.141524 -1.189602,-0.877446 -1.618897,-1.635381 -0.620404,-1.095343 -0.522709,-1.583379 0.476188,-2.378817 0.6912,-0.550413 0.90141,-1.00226 0.467132,-1.004104 -0.434278,-0.0018 -1.167855,0.475296 -1.630171,1.060315 -0.531924,0.673101 -1.457257,0.924501 -2.520037,0.684661 -1.248543,-0.28176 -1.672545,-0.09021 -1.6525,0.746556 0.01579,0.659029 -0.553155,1.139459 -1.372636,1.159089 -0.769779,0.01844 -1.392978,0.309879 -1.384887,0.647641 0.02782,1.161496 1.822301,2.038866 4.614227,2.256023 1.538426,0.119659 3.173457,0.261516 3.633405,0.315236 0.459946,0.05372 1.059077,-0.282932 1.3314,-0.748115 z m 7.534574,-3.54777 c 0.228656,-0.390588 -0.214083,-0.695073 -0.983862,-0.676632 -0.769779,0.01844 -1.586679,0.353099 -1.815335,0.743687 -0.228654,0.390588 0.214085,0.695073 0.983864,0.676632 0.769779,-0.01844 1.586679,-0.353099 1.815333,-0.743687 z M 67.163359,78.204539 c -0.01383,-0.577335 -0.340055,-1.042155 -0.724945,-1.032935 -0.384889,0.0092 -0.688484,0.489128 -0.674653,1.066462 0.01383,0.577334 0.340055,1.042154 0.724945,1.032934 0.384889,-0.0092 0.688483,-0.489128 0.674653,-1.066461 z M 65.120494,65.999963 c -0.247095,-0.379192 -0.764173,-0.681895 -1.149062,-0.672675 -0.38489,0.0092 -0.497631,0.327011 -0.250537,0.706202 0.247096,0.379191 0.764174,0.681895 1.149063,0.672675 0.38489,-0.0092 0.497632,-0.327011 0.250536,-0.706202 z"
       id="path1"
       sodipodi:nodetypes="csscsscsscsssssssssssssssssssssssscssssssssssssssssssssssssssssssssssssssscssssssssssssssssssssssssssssssssssssssssssssssssssssssssssssssssssssssssssssssssssssssssscsssssssssssssccssssssssssssssssssccscssscssccsccssssssssssssssssssssssssssss" /></g></svg>
