<?xml version="1.0" encoding="UTF-8" standalone="no"?>
<!-- Created with Inkscape (http://www.inkscape.org/) -->

<svg
   width="197.20143mm"
   height="43.386082mm"
   viewBox="0 0 197.20143 43.386082"
   version="1.1"
   id="svg1"
   xml:space="preserve"
   sodipodi:docname="Scaled_Composites_Model_351_Stratolaunch-side.svg"
   inkscape:version="1.3 (0e150ed, 2023-07-21)"
   xmlns:inkscape="http://www.inkscape.org/namespaces/inkscape"
   xmlns:sodipodi="http://sodipodi.sourceforge.net/DTD/sodipodi-0.dtd"
   xmlns="http://www.w3.org/2000/svg"
   xmlns:svg="http://www.w3.org/2000/svg"><sodipodi:namedview
     id="namedview1"
     pagecolor="#505050"
     bordercolor="#ffffff"
     borderopacity="1"
     inkscape:showpageshadow="0"
     inkscape:pageopacity="0"
     inkscape:pagecheckerboard="1"
     inkscape:deskcolor="#505050"
     inkscape:document-units="mm"
     inkscape:zoom="0.45968013"
     inkscape:cx="379.61179"
     inkscape:cy="-180.56034"
     inkscape:current-layer="layer1" /><defs
     id="defs1" /><g
     inkscape:label="Layer 1"
     inkscape:groupmode="layer"
     id="layer1"
     transform="translate(-4.4033488,-196.0324)"><path
       id="path1"
       style="fill:#ffffff;stroke:none;stroke-width:0.264583"
       d="m 197.00658,196.03248 -1.08417,0.61288 -4.37028,0.31264 -3.36052,1.36374 -2.19211,1.41232 -3.74964,0.35502 -1.79059,0.41341 -1.10226,0.68885 -1.99729,2.13527 -6.06113,6.88743 -3.16828,3.37499 -3.44424,1.44642 -4.54597,1.24024 -6.12986,1.23972 -6.68125,0.77514 -13.84411,0.3266 h -9.36739 l -21.49016,-0.92966 -5.096849,-0.27544 -3.719153,-0.62011 -2.102197,-0.9369 -3.506763,-2.04535 1.26659,-2.72748 -13.977959,1.02267 -3.604431,2.38642 -20.065958,3.8964 -16.461528,3.01946 -21.867916,4.09122 -3.117122,1.2175 -5.4306765,4.60954 -0.3565674,0.35295 -0.1834513,0.54983 0.067696,0.39894 0.1152385,0.31471 0.3183268,0.25942 0.4041097,0.1757 0.9741007,0.0114 16.2672245,0.0491 16.481164,-0.1664 0.0052,0.68058 -0.664559,0.12868 -0.316776,0.39635 0.206188,0.48214 0.907955,0.28009 0.05891,0.6842 a 1.8166455,1.773597 0 0 0 -0.939995,0.5457 l -0.0062,0.007 a 1.8166455,1.773597 0 0 0 0.166398,2.50114 1.8166455,1.773597 0 0 0 2.562118,-0.15917 1.8166455,1.773597 0 0 0 -0.159681,-2.50165 1.8166455,1.773597 0 0 0 -1.049548,-0.43357 l 0.02325,-0.68264 0.417028,-0.0346 0.671794,-0.3948 -0.144694,-0.61495 -0.854211,-0.21704 -0.02842,-0.67593 1.950786,-0.0196 h 9.935311 11.06289 l 0.343132,0.71727 0.974101,0.92242 1.841748,0.43047 -0.267684,0.33435 -0.264584,0.2651 a 1.7533362,1.777688 0 0 0 -1.851566,0.51004 l -0.0062,0.007 a 1.7533362,1.777688 0 0 0 0.160713,2.50682 1.7533362,1.777688 0 0 0 2.472718,-0.15968 1.7533362,1.777688 0 0 0 0.425813,-1.38545 l 0.441834,-0.003 a 1.7533362,1.777688 0 0 0 0.580326,1.54823 1.7533362,1.777688 0 0 0 2.472718,-0.15968 1.7533362,1.777688 0 0 0 -0.153996,-2.50734 1.7533362,1.777688 0 0 0 -1.597836,-0.38706 l -1.198893,-1.18184 -0.182418,-1.45779 h 1.111561 l 4.087089,0.0444 0.321944,0.67283 0.9741,0.92242 1.841749,0.43047 -0.267684,0.33435 -0.264584,0.2651 a 1.7533362,1.777688 0 0 0 -1.851566,0.51004 l -0.0062,0.007 a 1.7533362,1.777688 0 0 0 0.160713,2.50682 1.7533362,1.777688 0 0 0 2.472717,-0.15968 1.7533362,1.777688 0 0 0 0.425814,-1.38545 l 0.441834,-0.003 a 1.7533362,1.777688 0 0 0 0.580326,1.54823 1.7533362,1.777688 0 0 0 2.472717,-0.15968 1.7533362,1.777688 0 0 0 -0.153995,-2.50734 1.7533362,1.777688 0 0 0 -1.597836,-0.38706 l -1.198893,-1.18184 -0.171049,-1.36839 5.415173,0.0589 0.272335,0.56896 0.974101,0.92242 1.841748,0.43047 -0.267684,0.33435 -0.264583,0.2651 a 1.7533362,1.777688 0 0 0 -1.851567,0.51004 l -0.0062,0.007 a 1.7533362,1.777688 0 0 0 0.160714,2.50682 1.7533362,1.777688 0 0 0 2.472717,-0.15968 1.7533362,1.777688 0 0 0 0.425814,-1.38545 l 0.441833,-0.003 a 1.7533362,1.777688 0 0 0 0.580327,1.54823 1.7533362,1.777688 0 0 0 2.472717,-0.15968 1.7533362,1.777688 0 0 0 -0.153996,-2.50734 1.7533362,1.777688 0 0 0 -1.597835,-0.38706 l -1.198893,-1.18184 -0.15813,-1.26504 0.170532,0.002 5.917468,0.0486 4.722709,-0.0599 8.265124,-1.10226 16.137,-2.34456 9.05888,-1.16892 13.10049,-1.03249 9.98492,-0.57464 6.28282,-0.34107 5.42861,-0.1173 5.57899,0.96428 6.26784,0.55087 h 5.85442 l 6.26783,-0.68833 12.60492,-31.53916 z M 63.512919,233.24261 h 3.03444 l -0.06356,1.45779 -0.159163,0.19896 -0.770496,-0.21653 -1.067635,-0.34416 -0.7922,-0.55087 z m 9.38444,0.0517 3.01377,0.0326 -0.05994,1.37356 -0.159163,0.19896 -0.770496,-0.21653 -1.067635,-0.34416 -0.7922,-0.55087 z m 9.580294,0.10335 2.974495,0.0326 -0.05529,1.2702 -0.159164,0.19896 -0.770495,-0.21653 -1.067635,-0.34416 -0.7922,-0.55087 z" /></g></svg>
