<?xml version="1.0" encoding="UTF-8" standalone="no"?>
<!-- Created with Inkscape (http://www.inkscape.org/) -->

<svg
   width="112.0457mm"
   height="54.077156mm"
   viewBox="0 0 112.0457 54.077157"
   version="1.1"
   id="svg1"
   xml:space="preserve"
   sodipodi:docname="Goldfish-side.svg"
   inkscape:version="1.3 (0e150ed, 2023-07-21)"
   xmlns:inkscape="http://www.inkscape.org/namespaces/inkscape"
   xmlns:sodipodi="http://sodipodi.sourceforge.net/DTD/sodipodi-0.dtd"
   xmlns="http://www.w3.org/2000/svg"
   xmlns:svg="http://www.w3.org/2000/svg"><sodipodi:namedview
     id="namedview1"
     pagecolor="#505050"
     bordercolor="#ffffff"
     borderopacity="1"
     inkscape:showpageshadow="0"
     inkscape:pageopacity="0"
     inkscape:pagecheckerboard="1"
     inkscape:deskcolor="#505050"
     inkscape:document-units="mm"
     inkscape:zoom="0.91936027"
     inkscape:cx="97.350302"
     inkscape:cy="135.96411"
     inkscape:current-layer="layer1" /><defs
     id="defs1" /><g
     inkscape:label="Layer 1"
     inkscape:groupmode="layer"
     id="layer1"
     transform="translate(-62.917271,-113.52161)"><path
       style="fill:#ffffff;stroke:none;stroke:none;stroke-width:0.899999;stroke-linecap:round;stroke-linejoin:round"
       d="m 65.32369,136.98719 c 1.200934,-0.87138 1.997037,-0.80123 2.440519,-0.87146 0.443488,-0.0703 0.953093,-1.69334 3.999294,-2.95253 3.046203,-1.25921 7.41031,-3.58972 13.453419,-5.42964 6.043109,-1.83993 16.296558,-2.23496 17.445908,-2.14559 1.14937,0.0894 1.96688,-1.23381 3.51696,-4.15408 1.55006,-2.92028 6.20995,-9.31131 10.10031,-7.637 3.89036,1.67431 3.07696,3.63737 7.49628,8.18287 4.41932,4.54549 10.74046,7.74222 12.07684,11.02581 1.33636,3.28359 -4.97661,0.97341 -5.83332,1.14949 -0.85672,0.17607 1.00725,1.10299 3.37116,1.34351 2.36392,0.24053 5.22321,0.7215 13.04002,-1.63133 7.81681,-2.35282 13.44223,-4.93245 19.22532,-5.8665 5.78308,-0.93406 11.90363,-0.78312 8.15669,1.73905 -3.74695,2.52217 -15.87493,12.24678 -16.36521,12.90997 -0.49028,0.6632 10.01284,12.46755 11.62996,14.9183 1.6171,2.45076 0.095,5.69772 -7.53786,2.46688 -7.63288,-3.23082 -14.4658,-9.00486 -20.96214,-11.37776 -6.49635,-2.37291 -8.45217,-1.58115 -6.96256,-1.45399 1.4896,0.12723 4.2805,2.91937 5.61411,4.49065 1.3336,1.57129 1.64179,2.84334 -2.6392,2.47428 -4.28099,-0.36905 -12.05317,-2.36141 -13.17643,-2.52095 -1.12327,-0.15955 -1.86536,0.73251 -6.65936,2.07605 -4.79402,1.34354 -8.31143,2.17991 -6.24362,2.12994 2.06781,-0.05 6.715,0.97498 7.14126,8.04922 0.39794,6.60432 -8.4183,2.54226 -9.9351,1.56544 -4.38823,-2.82603 -4.11743,-8.19924 -4.90206,-8.73752 -0.78464,-0.53828 -2.58241,-0.17805 -2.58241,-0.17805 0,0 0.62729,1.37452 0.1485,1.68625 -0.478747,0.31171 -2.604974,-0.0124 -4.431206,-0.70605 -1.826233,-0.69368 -2.457193,-1.95681 -2.457193,-1.95681 -2.597272,-0.75988 -2.965758,-0.73068 -2.965758,-0.73068 0,0 1.062123,2.51873 1.09547,3.94581 0.03334,1.42708 -1.262509,1.47827 -1.504611,-0.32413 -0.242106,-1.8024 -0.349807,-4.02927 -0.349807,-4.02927 0,0 -4.891332,-1.00018 -14.874902,-4.1347 -9.983573,-3.13451 -12.233863,-8.81644 -11.953162,-9.3433 0.280701,-0.52687 0.628199,-0.34918 0.258537,-1.08349 -0.369662,-0.73433 0.433303,-0.74636 0.697812,-1.07348 0.241566,-0.29875 -0.234383,-0.60934 1.427541,-1.81523 z"
       id="path1"
       sodipodi:nodetypes="ssssssssssssssssssssssssssscssccsscsssss" /></g></svg>
