<?xml version="1.0" encoding="UTF-8" standalone="no"?>
<!-- Created with Inkscape (http://www.inkscape.org/) -->

<svg
   width="139.82065mm"
   height="270.99835mm"
   viewBox="0 0 139.82065 270.99835"
   version="1.1"
   id="svg1"
   xml:space="preserve"
   inkscape:version="1.3 (0e150ed, 2023-07-21)"
   sodipodi:docname="Human_Baby_Male-front.svg"
   xmlns:inkscape="http://www.inkscape.org/namespaces/inkscape"
   xmlns:sodipodi="http://sodipodi.sourceforge.net/DTD/sodipodi-0.dtd"
   xmlns="http://www.w3.org/2000/svg"
   xmlns:svg="http://www.w3.org/2000/svg"><sodipodi:namedview
     id="namedview1"
     pagecolor="#505050"
     bordercolor="#ffffff"
     borderopacity="1"
     inkscape:showpageshadow="0"
     inkscape:pageopacity="0"
     inkscape:pagecheckerboard="1"
     inkscape:deskcolor="#505050"
     inkscape:document-units="mm"
     inkscape:zoom="0.45968013"
     inkscape:cx="188.17433"
     inkscape:cy="500.34792"
     inkscape:current-layer="layer1" /><defs
     id="defs1" /><g
     inkscape:label="Layer 1"
     inkscape:groupmode="layer"
     id="layer1"
     transform="translate(-42.259994,-15.426361)"><path
       style="fill:#ffffff;fill-opacity:1;stroke:none;stroke-width:1.1;stroke-linejoin:round"
       d="m 132.10629,71.530209 c 4.60115,0.755518 2.80858,2.411394 4.5682,3.233441 1.75962,0.82205 5.80645,0.339469 7.17369,1.567746 3.60166,-1.703601 4.92158,-1.414343 5.90878,-1.268211 -0.98699,-2.731706 -4.7678,-9.400625 -3.50114,-10.871898 -1.63127,-2.474471 -2.72789,-3.122285 -2.3011,-4.492276 0.4268,-1.369989 -0.74819,-4.392462 -1.23255,-5.787578 -0.48437,-1.395119 0.3416,-3.691784 -0.0157,-5.547696 -0.35733,-1.855909 -0.77021,-3.194224 1.63074,-2.338731 2.40096,0.85549 2.37551,2.120524 2.37551,2.120524 2.13199,-1.308616 3.99059,-0.02458 4.52937,0.93866 1.73494,-1.430724 3.66459,-1.005523 3.81613,-0.266965 2.40052,-1.146627 3.91286,-0.814803 4.26226,-0.346223 1.70515,-0.90238 4.85112,0.235085 5.85276,3.276023 1.64999,0.377346 5.71122,4.864169 4.43597,6.640039 2.27736,1.617903 12.75554,12.447743 5.89223,12.882607 4.02564,4.205097 8.59329,17.350502 5.6316,26.876703 -2.9617,9.526206 -15.68538,8.120216 -21.15233,12.743266 -5.46695,4.62305 -5.35117,12.6527 -7.08816,17.68376 -1.73699,5.03106 -1.29775,18.97644 -1.48735,27.08087 -0.18961,8.10443 1.60665,20.29825 3.91602,28.12501 2.30938,7.82676 4.07924,17.11774 6.7889,24.50324 2.70966,7.38549 2.12904,6.78974 1.50574,8.46602 -0.62329,1.67627 1.83434,3.20422 1.53287,6.49384 -0.30148,3.28963 -3.49374,4.86723 -4.66113,6.55227 -1.16739,1.68505 -4.70623,8.64921 -7.30272,11.24802 -2.59649,2.5988 0.40632,1.76694 -1.82828,6.99459 -2.23459,5.22765 -4.01761,4.29556 -7.19051,5.46103 -3.17289,1.16547 -4.52046,0.98372 -4.87335,2.59185 -0.35289,1.60812 -1.39705,1.28918 -1.68669,3.66828 -0.28964,2.3791 -0.36198,3.62495 -2.07144,4.43162 -1.70944,0.80667 -1.79093,2.67037 -5.32316,1.87292 -0.48927,1.40631 -1.29278,1.76003 -1.29278,1.76003 0.7265,3.98423 -0.88176,7.11944 -0.78126,7.90975 0.1005,0.79031 -0.50977,7.84246 -3.8249,7.54801 -1.02691,1.26105 -2.82585,1.84951 -3.63922,0.52472 -0.60965,1.45489 -3.50338,0.88519 -3.71415,-0.50279 -0.6591,0.74274 -6.86594,0.89358 -5.24553,-4.2966 1.62041,-5.19014 0.86875,-5.52058 1.59349,-7.43132 0.72473,-1.91077 -0.35815,-6.95346 0.01,-9.14885 -2.05707,-1.98079 -5.27982,-4.66719 -5.77909,-6.06907 -2.65278,4.77752 -2.68097,3.32723 -6.19144,9.94647 -3.510482,6.61921 -3.781331,8.14168 -4.357848,10.59235 -0.576516,2.45071 -2.375185,2.16167 -2.273437,3.81479 0.101748,1.65309 -0.27337,3.5119 -1.603092,4.45429 -1.329724,0.94236 -2.34405,2.10259 -4.651862,0.35838 -1.056029,0.91649 -1.760363,0.73117 -3.135643,-0.56246 -1.37528,-1.29362 -1.465218,-3.29197 -1.081749,-4.37337 0.383471,-1.08141 -0.552773,-2.45875 -0.206597,-4.08215 0.346178,-1.62343 0.305477,-8.38481 1.173906,-10.07465 -1.039882,-0.24656 0.17658,-5.89363 0.17658,-5.89363 -4.401084,3.16814 -8.231108,3.60646 -10.087232,2.31716 -1.856126,-1.2893 -4.183911,-8.04741 -5.957567,-13.00726 -1.773655,-4.95985 -5.528794,-4.73109 -13.379286,-15.07864 -7.850491,-10.34756 -8.802367,-17.57996 -6.590426,-23.26475 2.21194,-5.68479 10.749205,-17.63183 15.07763,-26.61302 4.328427,-8.98119 4.155556,-19.47722 4.367757,-24.77777 0.212204,-5.30056 -0.126428,-22.59669 -0.108137,-28.05304 0.01828,-5.45637 0.03969,-15.33017 0.746106,-21.30207 -3.262675,-2.68894 -3.924776,-5.96611 -6.207598,-7.42953 -2.282825,-1.46342 -9.226177,-7.055951 -13.602804,-8.406961 -4.376629,-1.351008 -8.091609,-7.900228 -7.270834,-14.445139 0.820777,-6.54491 4.109161,-16.830958 6.274477,-19.514428 -0.01725,-2.621883 2.725245,-7.720663 6.171647,-8.036359 3.446404,-0.315698 2.738033,-1.994934 2.789902,-3.622132 0.05187,-1.627198 1.313434,-5.555869 3.581405,-7.052009 2.267974,-1.496136 3.836519,-0.756224 3.836519,-0.756224 0.581848,-1.208061 2.417752,-1.5851 2.944042,-1.397815 0.517007,-1.04527 2.070063,-1.449892 3.360463,-1.329526 -0.260297,-2.717948 -0.412396,-2.737474 0.625885,-3.59384 -1.113028,-0.41728 -1.575009,-3.775469 0.919059,-3.266258 2.494071,0.509212 2.716985,2.218548 3.283598,3.92217 1.534949,-4.090834 12.37202,-24.103086 35.678066,-19.800595 23.30605,4.302492 25.45729,27.897806 23.20075,37.919386 2.35125,-1.310036 3.48701,0.593537 3.39313,2.19274 -0.0939,1.599202 -0.67095,4.533021 -1.6704,6.670286 -0.99945,2.137264 -1.42715,3.145779 -1.32666,4.527629 0.10048,1.381853 -0.37229,4.464963 -1.7397,3.606832 -1.36741,-0.858131 -1.55496,-1.282065 -1.55496,-1.282065 0.12327,1.369446 -0.0447,1.855646 -0.0351,1.866577 z"
       id="path1"
       sodipodi:nodetypes="cscccsssscccccccsssssssssssssssccscccssccsssscsssccssssssscssscsssccccscscssssccc" /></g></svg>
