<?xml version="1.0" encoding="UTF-8" standalone="no"?>
<svg
   width="528.95349"
   height="599.93335"
   version="1.1"
   id="svg22"
   sodipodi:docname="Stylised_atom_with_three_Bohr_model_orbits_and_stylised_nucleus.svg"
   inkscape:version="1.3 (0e150ed, 2023-07-21)"
   xmlns:inkscape="http://www.inkscape.org/namespaces/inkscape"
   xmlns:sodipodi="http://sodipodi.sourceforge.net/DTD/sodipodi-0.dtd"
   xmlns:xlink="http://www.w3.org/1999/xlink"
   xmlns="http://www.w3.org/2000/svg"
   xmlns:svg="http://www.w3.org/2000/svg">
  <sodipodi:namedview
     id="namedview22"
     pagecolor="#505050"
     bordercolor="#ffffff"
     borderopacity="1"
     inkscape:showpageshadow="0"
     inkscape:pageopacity="0"
     inkscape:pagecheckerboard="1"
     inkscape:deskcolor="#505050"
     inkscape:zoom="0.58169539"
     inkscape:cx="199.41709"
     inkscape:cy="283.65361"
     inkscape:current-layer="svg22" />
  <defs
     id="defs2">
    <linearGradient
       id="a">
      <stop
         stop-color="#fff"
         offset="0"
         id="stop1" />
      <stop
         stop-color="#fff"
         stop-opacity="0"
         offset="1"
         id="stop2" />
    </linearGradient>
    <radialGradient
       id="l"
       cx="16.035999"
       cy="140.06"
       r="13.006"
       gradientTransform="matrix(2.2879,0,0,2.2879,274.58,-6.77)"
       gradientUnits="userSpaceOnUse"
       xlink:href="#a" />
    <radialGradient
       id="k"
       cx="16.035999"
       cy="140.06"
       r="13.006"
       gradientTransform="matrix(2.2879,0,0,2.2879,235.07,-36.48)"
       gradientUnits="userSpaceOnUse"
       xlink:href="#a" />
    <radialGradient
       id="j"
       cx="16.035999"
       cy="140.06"
       r="13.006"
       gradientTransform="matrix(2.2879,0,0,2.2879,235.07,-76.08)"
       gradientUnits="userSpaceOnUse"
       xlink:href="#a" />
    <radialGradient
       id="h"
       cx="16.035999"
       cy="140.06"
       r="13.006"
       gradientTransform="matrix(2.2879,0,0,2.2879,195.46,-46.38)"
       gradientUnits="userSpaceOnUse"
       xlink:href="#a" />
    <radialGradient
       id="g"
       cx="16.035999"
       cy="140.06"
       r="13.006"
       gradientTransform="matrix(2.2879,0,0,2.2879,195.46,-6.77)"
       gradientUnits="userSpaceOnUse"
       xlink:href="#a" />
    <radialGradient
       id="f"
       cx="16.035999"
       cy="140.06"
       r="13.006"
       gradientTransform="matrix(2.2879,0,0,2.2879,234.97,13.03)"
       gradientUnits="userSpaceOnUse"
       xlink:href="#a" />
    <radialGradient
       id="i"
       cx="16.035999"
       cy="140.06"
       r="13.006"
       gradientTransform="matrix(2.2879,0,0,2.2879,274.68,-46.38)"
       gradientUnits="userSpaceOnUse"
       xlink:href="#a" />
  </defs>
  <path
     id="path10"
     style="fill:#ffffff;fill-opacity:1;stroke:none;stroke-width:7.9213"
     d="M 271.35601,0.00185384 C 257.9727,-0.15139003 245.88493,9.2053659 235.35405,24.617088 c -10.53089,15.411722 -19.87271,37.296407 -27.8457,64.244141 -6.40482,21.647471 -11.85033,46.682281 -16.2168,74.066401 -28.28531,-11.53591 -54.93363,-20.60642 -78.69336,-26.62304 -27.206887,-6.88955 -50.75276,-10.01285 -69.339835,-8.80274 -18.587065,1.21011 -32.765127,6.86389 -39.4082024,18.48438 -5.5249936,9.66071 -4.82509143,21.85681 0.3222657,35.16211 1.2868345,3.32632 2.8521032,6.74567 4.6875,10.25195 5.5062087,10.51885 13.4306357,21.82383 23.4726557,33.75586 l 6.058594,-5.10352 C 25.361058,204.57011 16.213225,190.32119 11.559136,178.29091 6.9050433,166.26063 6.7755852,156.82728 10.727105,149.91787 c 4.752011,-8.31254 15.790224,-13.39018 33.046875,-14.51367 17.256643,-1.12349 40.181212,1.81947 66.8789,8.58007 23.81487,6.03059 50.75043,15.2377 79.42969,27.01758 -3.61118,24.27064 -6.33833,50.28775 -8.03516,77.65625 -23.11852,14.78786 -44.61884,29.82825 -64.15234,44.80469 -7.36299,-5.67566 -14.52229,-11.33709 -21.267574,-16.94727 l -5.064453,6.08985 c 6.324393,5.26011 13.014707,10.56012 19.867187,15.87109 -22.966515,17.98897 -43.176936,35.78009 -59.607422,52.66992 -19.56997,20.11709 -34.047416,38.94651 -42.2929679,55.64844 -8.2455521,16.70193 -10.43937773,31.80778 -3.6972656,43.37109 6.7393675,11.56362 20.9753165,17.13294 39.6074215,18.25782 18.632105,1.12488 42.207194,-2.09327 69.425774,-9.08594 22.05847,-5.667 46.57964,-13.94969 72.57618,-24.39258 3.60204,27.57964 8.35607,52.8279 14.17187,74.68555 7.21652,27.122 15.94333,49.21269 26.04297,64.86328 10.09964,15.65058 21.93586,25.28676 35.32031,25.4375 11.12829,0.1273 21.44391,-6.41668 30.56445,-17.38672 2.28014,-2.74251 4.50724,-5.77466 6.67774,-9.08398 6.51148,-9.928 12.53077,-22.35132 18.07031,-36.92969 l -7.4043,-2.81055 c -7.18789,18.91629 -15.18706,33.84097 -23.43359,43.75977 -8.24655,9.91881 -16.42572,14.6223 -24.38476,14.53125 -9.57436,-0.10782 -19.37913,-7.28216 -28.75586,-21.8125 -9.37673,-14.53036 -17.96152,-35.99109 -25.04297,-62.60547 -5.85272,-21.99638 -10.62499,-47.66256 -14.2168,-75.78125 23.60861,-9.7721 48.35198,-21.35324 73.73633,-34.61133 23.27392,11.81797 45.91661,22.13618 67.60937,30.98633 -1.39134,9.32099 -2.87253,18.44871 -4.51367,27.18359 l 7.78516,1.46289 c 1.54761,-8.23707 2.94848,-16.8232 4.27539,-25.56445 25.51113,10.09842 49.56194,18.0886 71.23242,23.57617 27.2069,6.88955 50.75277,10.01285 69.33984,8.80274 18.58708,-1.21011 32.76514,-6.86193 39.40821,-18.48243 6.6447,-11.61827 4.34969,-26.73137 -3.99219,-43.42968 -8.34188,-16.69832 -22.91495,-35.50638 -42.58008,-55.58203 -15.15593,-15.47233 -33.4054,-31.68719 -54.10937,-48.11133 21.3786,-16.96427 40.21791,-33.71576 55.73437,-49.66602 19.56997,-20.11709 34.04742,-38.9465 42.29297,-55.64844 8.24555,-16.70192 10.43937,-31.80777 3.69727,-43.37109 -5.60393,-9.61514 -16.51688,-15.10783 -30.61329,-17.30273 -3.52409,-0.54873 -7.26843,-0.90277 -11.22265,-1.06641 -11.8627,-0.49091 -25.6143,0.72055 -40.96875,3.45117 l 1.38867,7.79883 c 19.92331,-3.54315 36.83842,-4.342 49.58398,-2.35742 12.74558,1.98458 20.98032,6.58997 24.98829,13.4668 4.82286,8.27163 3.70027,20.36855 -3.95508,35.875 -7.65535,15.50643 -21.66544,33.89027 -40.86914,53.63085 -15.59431,16.03029 -34.74896,32.98439 -56.54688,50.1875 -19.18348,-14.89059 -40.28999,-29.88434 -63.11914,-44.64843 -0.98043,-27.14481 -3.02458,-52.95063 -5.97266,-77.0586 6.04508,-2.4154 12.01947,-4.73246 17.875,-6.89257 l -2.74218,-7.43164 c -5.29632,1.95382 -10.67613,4.0157 -16.1211,6.17382 -3.5756,-26.88326 -8.26233,-51.49106 -13.95312,-72.878902 C 325.50277,63.182586 316.77597,41.091895 306.67632,25.441307 296.57668,9.7907193 284.74046,0.1525891 271.35601,0.00185384 Z m -0.0899,7.91992186 0.002,0.00195 c 9.57436,0.1078272 19.37717,7.2821473 28.7539,21.8125003 9.37674,14.530352 17.96152,35.991079 25.04297,62.605468 5.7276,21.526156 10.42868,46.550676 13.9961,73.958986 -22.58031,9.22727 -46.25979,20.13416 -70.55274,32.59766 -23.90376,-12.45609 -47.27988,-23.48992 -69.6582,-32.88477 4.36576,-27.82029 9.82947,-53.1839 16.25586,-74.904298 7.8244,-26.445495 17.00667,-47.707105 26.78907,-62.023434 C 251.67747,14.76951 261.6932,7.8121609 271.26616,7.9217757 Z M 399.95562,126.8456 a 19.804,19.804 0 0 0 -18.31836,19.89063 19.804,19.804 0 0 0 39.60742,0 19.804,19.804 0 0 0 -21.28906,-19.89063 z m -202.31446,47.24024 c 20.03432,8.46977 40.90841,18.29882 62.23047,29.25586 -12.66348,6.65139 -25.46053,13.69433 -38.33203,21.15234 -10.7224,6.21215 -21.08361,12.5385 -31.25391,18.9082 1.65399,-24.36281 4.16858,-47.52754 7.35547,-69.3164 z m 142.40821,0.37304 c 2.58661,21.65718 4.50053,44.63394 5.50781,68.81446 -12.42135,-7.869 -25.14422,-15.68054 -38.41602,-23.31641 -10.06814,-5.79263 -20.07168,-11.27811 -30.01953,-16.58203 21.64056,-10.94825 42.72693,-20.59498 62.92774,-28.91602 z m -71.5625,33.35938 c 11.48734,6.04289 23.04435,12.29611 34.70312,19.00391 14.78374,8.50576 28.93624,17.22193 42.64258,26.00976 0.5038,15.66821 0.75335,31.6373 0.52344,48.02734 -0.20483,14.64777 -0.71899,29.02526 -1.4961,43.08985 -12.76647,8.17682 -25.87792,16.29373 -39.57031,24.22656 -12.27084,7.10921 -24.43238,13.7177 -36.51367,20.08789 -14.573,-7.47088 -29.31467,-15.3752 -44.19336,-23.93555 -12.44368,-7.15865 -24.52682,-14.44897 -36.21484,-21.8164 -0.39255,-14.21457 -0.59816,-28.64127 -0.39063,-43.43555 0.21979,-15.66616 0.87947,-30.92412 1.75195,-45.91992 11.59455,-7.35395 23.44002,-14.65856 35.78125,-21.80859 14.45654,-8.37641 28.80257,-16.18464 42.97657,-23.5293 z m -5.01172,15.81445 a 29.7565,29.7565 0 0 0 -27.5332,29.67188 29.7565,29.7565 0 0 0 0.1289,1.72851 29.7565,29.7565 0 0 0 -39.73828,27.97266 29.7565,29.7565 0 0 0 7.59766,19.80469 29.7565,29.7565 0 0 0 -7.59766,19.80468 29.7565,29.7565 0 0 0 40.63281,27.69727 29.7565,29.7565 0 0 0 57.27539,-0.0391 29.7565,29.7565 0 0 0 40.71485,-27.65821 29.7565,29.7565 0 0 0 -7.54688,-19.74218 29.7565,29.7565 0 0 0 7.64649,-19.86719 29.7565,29.7565 0 0 0 -39.72852,-27.97656 29.7565,29.7565 0 0 0 0.12891,-1.72461 29.7565,29.7565 0 0 0 -31.98047,-29.67188 z M 61.840386,234.58779 a 19.804,19.804 0 0 0 -8.40039,2.53516 19.804,19.804 0 1 0 19.802734,34.30078 19.804,19.804 0 0 0 -11.402344,-36.83594 z m 292.068354,23.36328 c 20.31132,13.29642 39.06926,26.76075 56.36524,40.11328 -17.5379,13.54402 -36.62988,27.18559 -57.22852,40.66016 0.61518,-12.37341 1.05141,-24.9489 1.23047,-37.75391 0.20539,-14.64585 0.009,-28.93352 -0.36719,-43.01953 z m -172.41601,0.46094 c -0.69674,13.29088 -1.242,26.7571 -1.43555,40.55273 -0.18268,13.0231 -0.0467,25.76101 0.23242,38.34766 -19.95004,-12.84354 -38.7239,-25.87465 -55.91015,-38.8418 17.53002,-13.36679 36.64845,-26.79989 57.11328,-40.05859 z m 235.27343,44.6543 c 21.11473,16.65973 39.68498,33.07388 54.92383,48.63086 19.29863,19.70148 33.40728,38.06859 41.15625,53.58007 7.74898,15.51148 8.95602,27.64464 4.20313,35.95508 l -0.002,0.002 c -4.75202,8.31255 -15.79022,13.38628 -33.04687,14.50977 -17.25665,1.12349 -40.18121,-1.81557 -66.87891,-8.57617 -21.74179,-5.50563 -46.08057,-13.65222 -71.96094,-23.9707 3.31374,-23.44363 5.79422,-48.51787 7.34766,-74.72852 23.23503,-15.00579 44.74664,-30.25153 64.25781,-45.40234 z m -298.85156,0.41796 c 19.13482,14.51795 40.14343,29.10633 62.65235,43.42579 0.88805,28.13744 2.89223,54.91193 5.88476,79.86523 -26.46269,10.71634 -51.35894,19.18591 -73.55664,24.88867 -26.711298,6.86236 -49.670689,9.89649 -66.978512,8.85156 -17.307821,-1.04492 -28.419626,-6.06653 -33.240234,-14.33789 v -0.002 c -4.8228643,-8.27164 -3.6983215,-20.36855 3.957031,-35.875 7.655354,-15.50644 21.663486,-33.89028 40.867188,-53.63086 16.49873,-16.95999 37.011939,-34.95489 60.414057,-53.18555 z m 70.72656,48.50977 c 10.38829,6.47387 21.02961,12.89262 31.99219,19.19922 13.31268,7.65935 26.49961,14.75101 39.58203,21.55078 -22.74845,11.71895 -44.91814,22.03651 -66.15429,30.89648 -2.63414,-22.50255 -4.48861,-46.48003 -5.41993,-71.64648 z m 155.5918,1.75586 c -1.5082,23.17755 -3.72064,45.4527 -6.62305,66.36523 -19.38978,-7.96681 -39.52322,-17.03148 -60.24609,-27.40429 10.56774,-5.64695 21.19315,-11.48058 31.89648,-17.68164 12.04791,-6.98009 23.62665,-14.10523 34.97266,-21.2793 z m -16.72851,121.83203 a 19.804,19.804 0 0 0 -9.02735,36.6875 19.804084,19.804084 0 1 0 20.33399,-33.99023 19.804,19.804 0 0 0 -11.30664,-2.69727 z" />
</svg>
