<?xml version="1.0" encoding="UTF-8" standalone="no"?>
<!-- Created with Inkscape (http://www.inkscape.org/) -->

<svg
   width="20.7393mm"
   height="92.893044mm"
   viewBox="0 0 20.7393 92.893044"
   version="1.1"
   id="svg1"
   xml:space="preserve"
   inkscape:version="1.3 (0e150ed, 2023-07-21)"
   sodipodi:docname="AAA_Battery-front.svg"
   xmlns:inkscape="http://www.inkscape.org/namespaces/inkscape"
   xmlns:sodipodi="http://sodipodi.sourceforge.net/DTD/sodipodi-0.dtd"
   xmlns="http://www.w3.org/2000/svg"
   xmlns:svg="http://www.w3.org/2000/svg"><sodipodi:namedview
     id="namedview1"
     pagecolor="#505050"
     bordercolor="#ffffff"
     borderopacity="1"
     inkscape:showpageshadow="0"
     inkscape:pageopacity="0"
     inkscape:pagecheckerboard="1"
     inkscape:deskcolor="#505050"
     inkscape:document-units="mm"
     inkscape:zoom="0.91936027"
     inkscape:cx="-22.298114"
     inkscape:cy="203.40231"
     inkscape:current-layer="layer1" /><defs
     id="defs1" /><g
     inkscape:label="Layer 1"
     inkscape:groupmode="layer"
     id="layer1"
     transform="translate(-102.78959,-91.901367)"><path
       id="rect1"
       style="fill:#ffffff;fill-opacity:1;stroke:none;stroke-width:2.021;stroke-linejoin:round"
       d="m 110.77722,91.901367 c -0.53774,0 -0.97049,0.43275 -0.97049,0.970484 v 1.456241 h -6.04614 c -0.53773,0 -0.971,0.43275 -0.971,0.970484 v 84.653744 c 0,0.8454 0.3204,0.68268 0.3204,1.16789 0,0.48521 -0.3204,0.64258 -0.3204,1.21595 v 1.48776 c 0,0.53774 0.43327,0.97049 0.971,0.97049 h 18.7973 c 0.53774,0 0.971,-0.43275 0.971,-0.97049 v -1.48776 c 0,-0.57337 -0.32039,-0.73074 -0.32039,-1.21595 0,-0.48521 0.32039,-0.32249 0.32039,-1.16789 V 95.298576 c 0,-0.537734 -0.43326,-0.970484 -0.971,-0.970484 h -5.45599 v -1.456241 c 0,-0.537734 -0.43275,-0.970484 -0.97049,-0.970484 z" /></g></svg>
