<?xml version="1.0" encoding="UTF-8" standalone="no"?>
<!-- Created with Inkscape (http://www.inkscape.org/) -->

<svg
   width="3975.918"
   height="572.90723"
   viewBox="0 0 1051.9616 151.58169"
   version="1.1"
   id="svg1"
   xml:space="preserve"
   inkscape:version="1.3 (0e150ed, 2023-07-21)"
   sodipodi:docname="SR-71 Blackbird.svg"
   inkscape:export-filename="SR-71 Blackbird.png"
   inkscape:export-xdpi="96"
   inkscape:export-ydpi="96"
   xmlns:inkscape="http://www.inkscape.org/namespaces/inkscape"
   xmlns:sodipodi="http://sodipodi.sourceforge.net/DTD/sodipodi-0.dtd"
   xmlns="http://www.w3.org/2000/svg"
   xmlns:svg="http://www.w3.org/2000/svg"><sodipodi:namedview
     id="namedview1"
     pagecolor="#505050"
     bordercolor="#ffffff"
     borderopacity="1"
     inkscape:showpageshadow="0"
     inkscape:pageopacity="0"
     inkscape:pagecheckerboard="1"
     inkscape:deskcolor="#505050"
     inkscape:document-units="mm"
     inkscape:zoom="0.073384015"
     inkscape:cx="2493.7311"
     inkscape:cy="531.45089"
     inkscape:window-width="1600"
     inkscape:window-height="837"
     inkscape:window-x="-8"
     inkscape:window-y="-8"
     inkscape:window-maximized="1"
     inkscape:current-layer="layer1" /><defs
     id="defs1" /><g
     inkscape:label="Layer 1"
     inkscape:groupmode="layer"
     id="layer1"
     transform="translate(-3.1858673,-3.5841514)"><path
       id="rect2"
       style="fill:#ffffff;fill-opacity:1;stroke:none;stroke:none;stroke-width:12.2413;stroke-linecap:round;stroke-linejoin:round"
       d="M -895.86678 3.5841514 C -876.22238 3.5841514 -871.97486 4.646068 -867.72741 9.9553387 C -863.47998 15.26461 -794.99025 87.471021 -794.99025 87.471021 C -656.94858 89.594729 -619.78337 97.027543 -619.78337 97.027543 C -619.78337 97.027543 -359.09643 94.904301 -332.01903 94.373442 C -304.94162 93.842292 -203.53414 88.002033 -188.66809 91.18759 C -173.80208 94.373245 -152.56486 109.2392 -152.56486 109.2392 C -152.56486 109.2392 -76.204401 121.41919 -43.496068 132.86567 L -4.6457265 132.86567 C -3.8368555 132.86567 -3.1858673 133.51665 -3.1858673 134.32553 C -3.1858673 135.1344 -3.8368555 135.7859 -4.6457265 135.7859 L -49.576834 135.7859 C -85.632152 145.27113 -161.18647 150.81547 -243.37379 150.81547 L -577.30896 150.81547 L -577.83968 155.16456 C -577.83968 155.16456 -761.48645 148.84269 -793.02138 147.3268 C -800.53055 146.96555 -810.2685 149.33917 -854.1887 150.06462 C -916.70845 151.09725 -1023.8076 125.2912 -1055.1459 112.69015 C -1027.5851 105.01685 -991.96119 102.3054 -955.33085 100.2134 L -955.33085 85.878353 L -926.13005 85.878353 L -955.86208 81.099833 L -973.38246 69.419409 L -957.98547 3.5841514 L -895.86678 3.5841514 z "
       transform="scale(-1,1)" /></g></svg>
