<?xml version="1.0" encoding="UTF-8" standalone="no"?>
<!-- Created with Inkscape (http://www.inkscape.org/) -->

<svg
   width="211.04556mm"
   height="131.69113mm"
   viewBox="0 0 211.04556 131.69113"
   version="1.1"
   id="svg1"
   xml:space="preserve"
   inkscape:version="1.3 (0e150ed6c4, 2023-07-21)"
   sodipodi:docname="Grizzly-side.svg"
   xmlns:inkscape="http://www.inkscape.org/namespaces/inkscape"
   xmlns:sodipodi="http://sodipodi.sourceforge.net/DTD/sodipodi-0.dtd"
   xmlns="http://www.w3.org/2000/svg"
   xmlns:svg="http://www.w3.org/2000/svg"><sodipodi:namedview
     id="namedview1"
     pagecolor="#505050"
     bordercolor="#ffffff"
     borderopacity="1"
     inkscape:showpageshadow="0"
     inkscape:pageopacity="0"
     inkscape:pagecheckerboard="1"
     inkscape:deskcolor="#505050"
     inkscape:document-units="mm"
     inkscape:zoom="0.70710678"
     inkscape:cx="365.5742"
     inkscape:cy="263.75083"
     inkscape:window-width="1600"
     inkscape:window-height="837"
     inkscape:window-x="-8"
     inkscape:window-y="-8"
     inkscape:window-maximized="1"
     inkscape:current-layer="layer1" /><defs
     id="defs1" /><g
     inkscape:label="Layer 1"
     inkscape:groupmode="layer"
     id="layer1"
     transform="translate(0.52278639,-82.654433)"><path
       style="fill:#ffffff;fill-opacity:1;stroke:none;stroke:none;stroke-width:56.2527;stroke-linecap:round;stroke-linejoin:round;paint-order:markers stroke fill"
       d="m 41.138379,84.195333 c 18.115882,-2.07203 28.024058,2.17648 34.261441,0.20166 3.444696,-1.09065 15.458645,-3.7614 23.191705,0.966 12.363985,7.55844 32.861195,-3.22373 73.083785,3.39069 7.51787,1.23627 36.30517,11.536857 38.49278,34.284007 2.18762,22.74714 -6.3758,43.68308 -8.4415,53.75455 -2.06574,10.07147 -6.66999,31.57662 -7.05519,34.96872 -0.38519,3.39214 -16.68015,2.49427 -21.43551,2.43052 -4.75533,-0.0637 -3.68171,-4.1261 -0.60193,-5.78344 3.0798,-1.65738 5.12234,-1.96974 6.51741,-4.66886 1.39512,-2.69914 -14.27599,-21.00823 -16.07856,-43.94943 -19.93126,7.46126 -48.08656,1.66366 -51.69756,-1.36206 0.89545,22.16503 -3.64133,52.04622 -5.14686,54.31888 -1.50554,2.27264 -10.101156,1.30663 -14.851739,1.47375 -4.750575,0.16735 -6.095399,-2.00523 -3.93417,-3.66677 2.161238,-1.66149 4.877889,-5.56226 4.110774,-9.34044 -0.767106,-3.77819 -8.317715,-32.76811 -12.069431,-39.27691 -3.75171,-6.50879 -7.417037,-18.72996 -12.029133,-22.98387 -4.612097,-4.25392 -16.670128,-4.4011 -24.269565,-4.0941 -7.599433,0.30718 -12.729692,-1.07151 -16.516614,-0.60136 -3.786931,0.47015 -12.182787,4.61525 -18.3269327,1.69187 -6.1441459,-2.9234 -9.8319029,-7.84897 -8.64207789,-9.79999 1.189819,-1.95104 9.44497089,-9.57921 11.82460659,-13.48127 2.379643,-3.90206 3.694222,-10.61554 8.923658,-14.632707 5.229426,-4.01718 11.079348,-8.3766 11.079348,-8.3766 -1.496833,-5.64842 4.417055,-8.42462 9.611265,-5.46284 z"
       id="path1"
       sodipodi:nodetypes="csssssssssccsssssssssssscc" /></g></svg>
