<?xml version="1.0" encoding="UTF-8" standalone="no"?>
<!-- Created with Inkscape (http://www.inkscape.org/) -->

<svg
   width="155.76442mm"
   height="84.899185mm"
   viewBox="0 0 155.76442 84.899185"
   version="1.1"
   id="svg1"
   xml:space="preserve"
   inkscape:version="1.3 (0e150ed6c4, 2023-07-21)"
   sodipodi:docname="Polar_Bear-side.svg"
   xmlns:inkscape="http://www.inkscape.org/namespaces/inkscape"
   xmlns:sodipodi="http://sodipodi.sourceforge.net/DTD/sodipodi-0.dtd"
   xmlns="http://www.w3.org/2000/svg"
   xmlns:svg="http://www.w3.org/2000/svg"><sodipodi:namedview
     id="namedview1"
     pagecolor="#505050"
     bordercolor="#ffffff"
     borderopacity="1"
     inkscape:showpageshadow="0"
     inkscape:pageopacity="0"
     inkscape:pagecheckerboard="1"
     inkscape:deskcolor="#505050"
     inkscape:document-units="mm"
     inkscape:zoom="1.1741442"
     inkscape:cx="330.87929"
     inkscape:cy="109.44141"
     inkscape:window-width="1600"
     inkscape:window-height="837"
     inkscape:window-x="-8"
     inkscape:window-y="-8"
     inkscape:window-maximized="1"
     inkscape:current-layer="layer1" /><defs
     id="defs1" /><g
     inkscape:label="Layer 1"
     inkscape:groupmode="layer"
     id="layer1"
     transform="translate(-18.731156,-94.040132)"><path
       style="fill:#ffffff;stroke:none;stroke-width:20;stroke-linecap:round;stroke-linejoin:round;paint-order:markers stroke fill"
       d="m 135.59872,149.302 c -18.96151,3.66483 -30.59336,-1.27472 -33.93951,-2.86813 -3.824174,13.70328 -3.824174,20.71426 -2.708791,24.37909 1.115381,3.66483 -1.593406,8.12636 -3.027469,8.12636 H 77.280118 c -3.824171,0 -2.708788,-2.54945 0.47802,-3.82417 3.186811,-1.27472 6.373619,-1.43406 6.373619,-1.43406 0.796703,-4.14286 0.15934,-4.46154 -3.505491,-12.74724 -3.664831,-8.2857 -7.010979,-20.8736 -7.967022,-23.74172 -0.956042,-2.86813 -2.868128,-4.30219 -6.692299,-5.41758 -3.824171,-1.11538 -8.285702,-4.30219 -11.47251,-5.09889 -3.186811,-0.79671 -20.873601,-6.6923 -22.945027,-6.6923 -2.071425,0 -6.692298,-0.95605 -8.126362,-1.75275 -1.434064,-0.7967 -5.258235,-4.46153 -4.620873,-5.89559 0.637362,-1.43407 9.401087,-6.05494 11.313173,-6.85164 1.912085,-0.7967 0.956042,-3.02747 8.923064,-5.0989 7.967023,-2.071424 12.269214,-1.274721 18.324153,-2.071424 6.054936,-0.796703 12.906576,-1.593403 19.439532,-3.505488 6.53296,-1.912086 10.516471,0.15934 17.68679,1.752743 7.170325,1.593405 18.483495,3.664829 36.010945,-0.31868 17.52745,-3.983511 26.60985,4.620869 31.70875,8.285709 5.09889,3.66482 9.47399,8.41773 10.99449,12.58789 2.80461,7.69198 0.25109,9.54763 -0.28334,7.4995 -0.51383,-1.96921 -0.83204,-1.44456 -0.83204,2.22027 0,3.66483 -2.70879,14.49998 -7.17033,22.30766 -4.46153,7.80768 -7.64834,13.70328 -7.489,18.48349 0.15934,4.78022 0.31868,6.53296 0.95605,8.76373 0.63736,2.23076 -6.53296,2.39011 -11.15384,2.39011 h -15.13734 c -2.23077,0 -0.47802,-2.86814 2.86813,-4.46154 3.34615,-1.5934 6.6923,-1.91208 7.64834,-3.50549 0.95604,-1.5934 -3.34615,-13.70328 -7.01098,-21.51096 z"
       id="path1"
       sodipodi:nodetypes="ccsssscssssssssssssssssssssssssc" /></g></svg>
