<?xml version="1.0" encoding="UTF-8" standalone="no"?>
<!-- Created with Inkscape (http://www.inkscape.org/) -->

<svg
   width="159.26801mm"
   height="62.514999mm"
   viewBox="0 0 159.268 62.514999"
   version="1.1"
   id="svg1"
   xml:space="preserve"
   sodipodi:docname="Mauna_Kea-front.svg"
   inkscape:version="1.3 (0e150ed, 2023-07-21)"
   xmlns:inkscape="http://www.inkscape.org/namespaces/inkscape"
   xmlns:sodipodi="http://sodipodi.sourceforge.net/DTD/sodipodi-0.dtd"
   xmlns="http://www.w3.org/2000/svg"
   xmlns:svg="http://www.w3.org/2000/svg"><sodipodi:namedview
     id="namedview1"
     pagecolor="#505050"
     bordercolor="#ffffff"
     borderopacity="1"
     inkscape:showpageshadow="0"
     inkscape:pageopacity="0"
     inkscape:pagecheckerboard="1"
     inkscape:deskcolor="#505050"
     inkscape:document-units="mm"
     inkscape:zoom="0.45968013"
     inkscape:cx="303.47189"
     inkscape:cy="284.98077"
     inkscape:current-layer="layer1" /><defs
     id="defs1" /><g
     inkscape:label="Layer 1"
     inkscape:groupmode="layer"
     id="layer1"
     transform="translate(-15.345258,-129.27293)"><path
       style="fill:#ffffff;stroke:none;stroke:none;stroke-width:1.4;stroke-linecap:round;stroke-linejoin:round"
       d="M 174.61311,191.7876 H 15.345258 c 0,0 4.378949,-1.48573 9.170984,-2.23891 4.792034,-0.75318 8.732339,-2.15599 11.451179,-4.29934 2.71884,-2.14335 4.775819,-3.7585 7.336134,-6.96669 2.560312,-3.20818 5.333544,-3.2053 6.141442,-4.45462 0.807894,-1.24932 4.345098,-2.86586 5.430694,-3.65097 1.085599,-0.78512 0.87806,-1.85961 2.0773,-3.536 1.199239,-1.67639 4.589303,-4.03631 6.812348,-4.26769 2.223043,-0.23138 6.489515,1.18838 8.426617,1.56888 1.937104,0.38051 5.920737,-1.36181 7.699846,-3.98688 1.779111,-2.62507 3.284738,-3.91051 4.702799,-5.34416 1.418063,-1.43366 2.992808,-4.0515 4.536305,-5.31135 1.543497,-1.25984 1.654244,-2.13005 2.223079,-2.77222 0.568836,-0.64218 1.318538,-1.72508 2.75575,-3.54795 1.437211,-1.82287 1.388454,-0.98091 3.15578,-2.85002 1.76733,-1.86911 4.261615,-1.48236 6.483445,-3.41095 2.22183,-1.92859 2.24753,-3.10984 3.77297,-4.10637 1.52544,-0.99652 1.69326,-1.92518 2.38197,-1.89386 0.6887,0.0313 1.74024,-1.35136 4.1254,-1.44132 2.38515,-0.0899 4.84104,1.26701 5.25442,1.98805 0.41339,0.72104 1.98016,1.58287 4.61057,1.77539 2.63041,0.19253 3.55898,2.12818 5.82193,2.28534 2.26295,0.15716 2.85717,-0.0718 3.87515,0.81891 1.01797,0.89072 3.31007,2.81872 4.93655,4.74283 1.62648,1.9241 2.12462,2.69598 3.54144,3.5819 1.41682,0.88591 1.8146,1.16914 3.92698,3.01327 2.11237,1.84413 2.95118,2.4724 3.90171,4.41768 0.95052,1.94528 1.70253,3.04098 2.73744,3.77433 1.03491,0.73336 1.70657,5.11801 2.42424,6.30911 0.71767,1.19111 1.45515,2.63172 2.32002,5.2951 0.86487,2.66337 3.61516,5.95217 4.66416,7.91107 1.049,1.95889 1.83048,2.30486 3.21532,3.19365 1.38483,0.88879 2.99854,3.03086 3.64821,4.16203 0.64966,1.13116 1.63363,4.13397 3.1105,5.5651 1.47687,1.43113 2.59517,3.67666 2.59517,3.67666 z"
       id="path1" /></g></svg>
