<?xml version="1.0" encoding="UTF-8" standalone="no"?>
<!-- Generator: Adobe Illustrator 16.0.3, SVG Export Plug-In . SVG Version: 6.00 Build 0)  -->

<svg
   version="1.0"
   id="Warstwa_1"
   x="0px"
   y="0px"
   width="1183.9207"
   height="112.00024"
   viewBox="0 0 1183.9207 112.00025"
   xml:space="preserve"
   sodipodi:docname="Golden_Gate_Bridge-side.svg"
   inkscape:version="1.3 (0e150ed, 2023-07-21)"
   xmlns:inkscape="http://www.inkscape.org/namespaces/inkscape"
   xmlns:sodipodi="http://sodipodi.sourceforge.net/DTD/sodipodi-0.dtd"
   xmlns="http://www.w3.org/2000/svg"
   xmlns:svg="http://www.w3.org/2000/svg"><defs
   id="defs55">&#10;	&#10;	&#10;</defs><sodipodi:namedview
   id="namedview55"
   pagecolor="#505050"
   bordercolor="#ffffff"
   borderopacity="1"
   inkscape:showpageshadow="0"
   inkscape:pageopacity="0"
   inkscape:pagecheckerboard="1"
   inkscape:deskcolor="#505050"
   inkscape:zoom="0.25468695"
   inkscape:cx="620.36943"
   inkscape:cy="577.17915"
   inkscape:current-layer="Warstwa_1" />&#10;<path
   id="path1"
   style="fill:#ffffff;fill-opacity:1"
   d="m 270.92041,0 v 0.25 0.93164 l -0.23828,0.12891 C 222.01038,27.73141 174.37639,49.302655 125.16064,67.226555 l -2.02148,0.0137 c -0.0862,-0.11526 -0.18202,-0.21981 -0.28711,-0.3125 -0.44228,-0.39004 -1.02178,-0.5784 -1.59766,-0.57812 -0.57588,2.7e-4 -1.15546,0.18997 -1.59765,0.58008 -0.39167,0.34553 -0.66676,0.853 -0.72461,1.48632 l -3.11133,0.0937 -0.006,-0.004 -0.004,0.004 c -5.36695,0.161 -9.81659,0.29425 -13.55859,0.40625 v 0.004 c -5.191565,0.15686 -15.210785,0.45927 -25.302725,0.76367 -0.33845,-0.77838 -1.26512,-1.17001 -2.19532,-1.16992 -0.98234,9e-5 -1.96215,0.43676 -2.24804,1.30469 -7.99525,0.24117 -16.35111,0.4923 -20.41993,0.61523 v 0.002 l -18.333983,0.55468 -0.0098,-0.01 -0.0098,0.01 -13.988281,0.42383 -0.01563,-0.0137 -0.01172,0.0137 c -0.103,0.003 -3.593906,0.1017 -3.378906,0.0957 v 0.006 l -16.25000005,0.49219 c -0.03,2.06 -0.09189,6.25119 -0.087889997,5.99219 H 3.338076 v -2.07813 l 13,-0.34179 v 5.58593 h 3.667969 v -5.68164 l 13.498046,-0.35351 v 10.86914 h 4 v -10.97461 l 14.583984,-0.38281 v 12.02539 h 4.33399 v -12.14063 l 2.125,-0.0547 0.008,0.008 0.01,-0.008 13.85546,-0.36524 v 19.70508 c 0,2.44751 4.66601,2.44836 4.66601,0 v -0.125 l 0.11329,0.0234 0.0508,-0.24414 c 4.29295,-20.9449 39.189865,-20.7252 41.171865,1.4707 l 0.0234,0.25 0.47461,-0.043 v 4.02344 c 0,0.75243 0.29405,1.348225 0.73633,1.738275 0.44227,0.39004 1.02177,0.5784 1.59765,0.57812 0.57588,-2.7e-4 1.15547,-0.18996 1.59766,-0.58007 0.44219,-0.39012 0.73437,-0.984795 0.73437,-1.736325 v -26.92969 l 145.33399,-1.01367 v 21.02539 h -1.5 v 0.25 5.23437 l -0.75,6.015625 h -1.5 v 0.25 7 h 14.5 v -7.25 h -0.78516 l -0.96484,-6.017575 v -5.48242 h -2 v -21.07422 l 172.24023,-1.20117 0.0176,0.01 0.0176,-0.01 103.9668,-0.72461 52.02343,0.97461 0.0469,0.0293 0.043,-0.0273 116.85937,2.18945 0.0312,0.0176 0.0293,-0.0156 c 6.23757,0.11671 57.61541,1.07956 106.22461,1.99023 v 18.8418 h -1.5 v 0.25 5.23437 l -0.75,6.015625 h -1.5 v 0.25 7 h 14.5 v -7.25 h -0.78516 l -0.96484,-6.017575 v -5.48242 h -2 v -18.71094 c 67.32981,1.2614 136.29002,2.5541 145.00012,2.7168 v 6.74414 h 3 v 6 h 41.33404 v 1 h 5.5 v -12.61133 l 24.25,-0.92187 v 20.86523 h 6.0839 v -21.09766 l 23.9161,-0.9082 v 7.5625 h -0.084 v 0.5 h 0.084 v 3.75 h -0.084 v 0.5 h 0.084 v 8.69336 h 5.75 v -21.22461 l 23.5,-0.89258 v 19.45117 h 5.9179 v -19.67578 l 22.75,-0.86523 v 16.54101 h 6.125 v -16.77343 l 36.1328,-1.375 0.2403,-0.008 v -3.51953 l -70.916,2.40039 h -0.25 v 0.008 l -28.7989,0.97461 -0.4511,0.0137 -54.25,1.83594 v -2.38868 h -5.5 v 0.25 1.41602 h -38.83404 v -3 h -5.5 v 0.25 1.31445 l -0.041,-0.0195 c -15.1162,-6.86995 -30.8812,-13.13064 -46.12709,-19.18359 -10.62795,-4.219 -21.61725,-8.58138 -32.2832,-13.11133 C 877.99397,29.9937 855.30714,18.50034 831.67054,4.67804 V 1.00031 h -2.25 v 0.25 V 1.555 C 725.64546,45.814015 640.05371,65.160615 552.10959,64.246395 v 0.004 h -0.01 v -0.004 C 464.11621,65.180965 378.03183,45.607105 273.1699,0.8675 V 3.1e-4 Z m 2.25,1.9668 c 1.9218,0.81794 3.83888,1.62962 5.75,2.43164 v 61.755855 l -3,0.0215 v -22.17578 h -0.25 V 26.25002 h -1 v -11 h -1.5 z m -2.25,0.35156 V 15.25 h -1 v 0.25 10.75 h -0.5 v 0.25 17.499995 h -0.5 v 0.25 21.97266 l -3,0.0215 V 5.00392 c 1.66645,-0.8943 3.3311,-1.78155 5,-2.68554 z m 558.5,0.33984 V 16.25 h -1 v 0.25 10.75 h -0.5 v 0.25 17.499995 h -0.5 v 0.25 24.15625 l -1.92383,-0.0352 V 4.32027 c 1.30514,-0.55047 2.61407,-1.10559 3.92383,-1.66211 z m -4.57617,1.9375 v 64.763665 l -5.84961,-0.10937 V 7.03906 c 1.94395,-0.80699 3.89261,-1.61936 5.84961,-2.44336 z M 279.42041,4.6094 c 2.008,0.843 4.005,1.67015 6,2.49414 v 59.005855 l -6,0.041 z m -14,0.66407 v 60.974605 l -5.75,0.041 V 8.33791 c 1.915,-1.013 3.833,-2.03746 5.75,-3.06445 z m 566.25,0.56836 c 2.08885,1.21839 4.17402,2.43045 6.25,3.61328 v 60.146475 l -3.5,-0.0664 v -24.53516 h -0.25 V 27.25003 h -1 v -11 h -1.5 z m -13.32617,1.46679 v 61.927735 l -5.84961,-0.10743 V 9.71097 c 1.94395,-0.792 3.89361,-1.59235 5.84961,-2.40235 z m -532.42383,0.002 c 2.006,0.82799 4.007,1.64608 6,2.45507 v 56.296875 l -6,0.043 z m -26.75,1.28906 v 57.693355 l -5.75,0.0391 V 11.62511 c 1.915,-0.999 3.833,-2.0124 5.75,-3.02539 z m 579.25,1.14258 c 2.006,1.14199 4.006,2.266 6,3.375 v 56.609365 l -6,-0.11328 z m -546,0.22656 c 2.005,0.81299 4.00895,1.62302 6.00195,2.41601 l -0.004,53.634765 -5.99804,0.041 z m 519.42383,0.006 v 59.140615 l -5.84961,-0.10937 V 12.33419 c 1.94295,-0.77699 3.89361,-1.56338 5.84961,-2.35937 z m -558.92383,1.91211 v 54.449215 l -5.75,0.0391 V 14.84986 c 1.916,-0.984 3.832,-1.9639 5.75,-2.96289 z m 46.00195,0.69726 c 2.005,0.798 4.00605,1.59115 5.99805,2.36914 v 51.019535 l -6.00196,0.043 z m 506.42188,0.01 v 56.400385 l -5.84961,-0.10938 V 14.91059 c 1.94295,-0.76199 3.89361,-1.53541 5.84961,-2.3164 z m 39.57617,0.79883 c 2.005,1.11199 4.005,2.20811 6,3.28711 v 53.167965 l -6,-0.11329 z m -598.25,1.71484 v 51.271475 l -5.75,0.041 V 18.03948 c 1.916,-0.96899 3.833,-1.94764 5.75,-2.93164 z m 58.75,0.043 c 2.009,0.784 4.004,1.5475 6,2.3125 v 48.464835 l -6,0.043 z m 493.42383,0.0156 v 53.707035 l -5.84961,-0.10938 V 17.436 c 1.94295,-0.747 3.89461,-1.50454 5.84961,-2.26954 z m 52.57617,1.78516 c 2.004,1.082 4.004,2.14922 6,3.19922 v 49.818355 l -6,-0.11133 z m -539.5,0.70508 c 2.007,0.76799 4.005,1.52053 6,2.26953 v 45.957025 l -6,0.041 z m 480.42383,0.0273 v 51.066405 l -5.84961,-0.10938 V 19.91056 c 1.94295,-0.73099 3.89461,-1.47656 5.84961,-2.22656 z m -551.92383,0.60547 v 48.132805 l -5.68164,0.041 -0.0684,-0.041 V 21.184 c 1.916,-0.95399 3.833,-1.92553 5.75,-2.89453 z m 78,1.82227 c 2.006,0.75099 4.007,1.49456 6,2.22656 v 43.499995 l -6,0.041 z m 467.42383,0.041 v 48.476555 l -5.80664,-0.10937 -0.043,-0.0273 V 22.33052 c 1.94295,-0.715 3.89461,-1.44374 5.84961,-2.17774 z m 72.07617,0.25977 c 2.003,1.05199 4.003,2.08642 6,3.10742 v 46.572265 l -6,-0.11329 z m -623.75,1.02148 v 44.986325 l -0.0723,0.0469 -5.67773,0.0391 V 24.26218 c 1.917,-0.94 3.833,-1.87413 5.75,-2.82813 z m 90.75,1.08594 c 2.004,0.73399 4.008,1.46764 6,2.18164 v 41.089835 l -6,0.043 z m 454.42383,0.0469 v 45.939455 l -5.84961,-0.10938 V 24.69769 c 1.94295,-0.69899 3.89561,-1.41286 5.84961,-2.13086 z m 85.07617,1.20899 c 2.002,1.02099 4.002,2.02954 6,3.01953 v 43.417965 l -6,-0.11328 z m -636.5,0.73242 v 42.001945 l -5.75,0.0391 V 27.30515 c 1.916,-0.924 3.833,-1.85788 5.75,-2.79688 z m 103.5,0.37109 c 2.005,0.718 4.007,1.42996 6,2.12696 v 38.742185 l -6,0.041 z m 441.42383,0.0488 v 43.457025 l -5.84961,-0.11132 V 27.0043 c 1.94395,-0.68199 3.89461,-1.37417 5.84961,-2.07617 z m 98.07617,2.11328 c 2.008,0.993 4.01453,1.96765 6.01953,2.93164 h -0.0195 v 40.363285 l -6,-0.11328 z m -533,0.14063 c 2.008,0.702 4.004,1.38346 6,2.06445 v 36.455075 l -6,0.043 z m 428.42383,0.0508 v 41.031245 l -5.84961,-0.10937 V 29.25432 c 1.94395,-0.66499 3.89361,-1.33748 5.84961,-2.02148 z m -544.67383,0.3125 v 39.007805 l -5.75,0.041 V 30.30704 c 1.917,-0.91 3.833,-1.83772 5.75,-2.76172 z m 122.75,1.87305 c 2.009,0.68499 4.002,1.3399 6,2.0039 v 34.234375 l -6,0.043 z m 415.42383,0.0625 v 38.660145 l -5.84961,-0.10742 V 31.44768 c 1.94495,-0.64699 3.89361,-1.2998 5.84961,-1.96679 z m 117.57617,0.72461 c 2.001,0.95799 4.001,1.90499 6,2.83398 v 37.417965 l -6,-0.11328 z m -662,0.33789 v 36.054685 l -5.75,0.0391 V 33.23679 c 1.917,-0.895 3.833,-1.78437 5.75,-2.69336 z m 135.5,1.04492 c 2.005,0.665 4.006,1.32085 6,1.96484 v 32.056635 l -6,0.043 z m 402.42383,0.0781 v 36.353515 l -5.84961,-0.10937 V 33.58048 c 1.94495,-0.63 3.89361,-1.26407 5.84961,-1.91407 z m 130.57617,1.60352 c 2,0.92699 4,1.83929 6,2.73828 v 34.570305 l -6,-0.11328 z m -674.75,0.20312 v 33.167965 l -5.75,0.041 V 36.13319 c 1.917,-0.87999 3.833,-1.76716 5.75,-2.66016 z m 148.25,0.24024 c 2.003,0.646 4.008,1.29493 6,1.91992 v 29.931635 l -6,0.043 z m 389.42383,0.0801 v 34.103505 l -5.8125,-0.10742 -0.0371,-0.0234 V 35.6528 c 1.94495,-0.61099 3.89361,-1.22838 5.84961,-1.85937 z m -382.92383,2 c 2.008,0.628 4.002,1.22898 6,1.83593 v 27.890625 l -6,0.043 z m 376.42383,0.0664 v 31.916015 l -5.84961,-0.10938 V 37.66448 c 1.94495,-0.593 3.89461,-1.19169 5.84961,-1.80469 z m 150.07617,0.37305 c 1.999,0.896 3.998,1.78339 6,2.65234 v 31.816405 l -6,-0.11328 z m -687.5,0.12891 v 30.322255 l -5.70313,0.041 -0.0469,-0.0293 V 38.98868 c 1.917,-0.865 3.833,-1.74895 5.75,-2.62695 z m 167.5,1.42187 c 2.005,0.608 4.005,1.20597 6,1.792965 v 25.89844 l -6,0.043 z m 363.42383,0.0801 v 29.791015 l -5.84961,-0.10938 v -27.93359 c 1.94495,-0.573995 3.89461,-1.154045 5.84961,-1.748045 z m 163.07617,1.23633 c 1.219,0.527995 2.4392,1.054255 3.6582,1.572255 0.776,0.33 1.5618,0.65247 2.3418,0.98047 v 29.16797 l -6,-0.11133 z m -700.25,0.11133 v 27.515615 l -5.75,0.041 v -24.99414 c 1.917,-0.85 3.834,-1.6985 5.75,-2.562495 z m 180.25,0.509755 c 2.002,0.588 4.008,1.18496 6,1.75196 v 23.95703 l -6,0.041 z m 350.42383,0.084 v 27.72851 l -5.84961,-0.11133 v -25.92578 c 1.94495,-0.554 3.89461,-1.1164 5.84961,-1.6914 z m -343.92383,1.81054 c 2.005,0.569 4.004,1.12488 6,1.67188 v 22.09765 l -6,0.041 z m 337.42383,0.0684 v 25.72657 l -5.84961,-0.10938 v -23.98633 c 1.94495,-0.534 3.89461,-1.07586 5.84961,-1.63086 z m 182.57617,0.17774 c 1.995,0.838 3.991,1.673 6,2.5 v 26.58203 l -6,-0.11133 z m -713,0.13476 v 24.77344 l -5.75,0.041 v -22.29102 c 1.917,-0.835 3.834,-1.67444 5.75,-2.52344 z m 199.5,1.42969 c 2.005,0.549 4.004,1.08528 6,1.61328 v 20.30078 l -6,0.041 z m 324.42383,0.0703 v 23.79297 l -5.84961,-0.10937 v -22.11329 c 1.94495,-0.51495 3.89561,-1.03631 5.84961,-1.57031 z m 195.57617,1.06836 c 1.999,0.821 4.00095,1.63822 6.0039,2.44922 l -0.002,24.05078 -6.00195,-0.11133 z m -725.75,0.17188 v 22.07812 l -5.75,0.0391 v -19.625 c 1.918,-0.82095 3.834,-1.65818 5.75,-2.49218 z m 212.25,0.43359 c 2.004,0.528 4.004,1.04674 6,1.55274 v 18.57226 l -6,0.041 z m 311.42383,0.0703 v 21.92578 l -5.84961,-0.10937 v -20.30469 c 1.94595,-0.494 3.89561,-0.99772 5.84961,-1.51172 z m -304.92383,1.60938 c 2.004,0.507 4.005,1.00719 6,1.49219 v 16.90625 l -6,0.043 z m 298.42383,0.0684 v 20.12695 l -5.84961,-0.10937 v -18.56641 c 1.94595,-0.474 3.89561,-0.95717 5.84961,-1.45117 z m 215.08007,0.29883 c 2.002,0.80895 3.9991,1.6092 5.9961,2.4082 v 21.5625 l -5.99805,-0.11328 z m -738.5039,0.2246 v 19.41602 l -5.75,0.041 v -17.02539 c 1.917,-0.806 3.835,-1.61265 5.75,-2.43165 z m 231.5,1.01954 c 2.003,0.486 4.005,0.96764 6,1.43164 v 15.31054 l -6,0.043 z m 285.42383,0.0664 v 18.39649 l -5.84961,-0.10938 v -16.89844 c 1.94595,-0.453 3.89561,-0.91567 5.84961,-1.38867 z m 228.07617,1.29883 c 2.01,0.803 4.005,1.59863 6,2.39063 v 19.09179 l -6,-0.11133 z m -507,0.18164 c 2.004,0.464 4.004,0.91933 6,1.36133 v 13.78906 l -6,0.043 z m 272.42383,0.0586 v 16.73438 l -5.84961,-0.10938 v -15.30078 c 1.94595,-0.431 3.89561,-0.87222 5.84961,-1.32422 z m -516.67383,0.0176 v 16.81641 l -5.75,0.041 v -14.46874 c 1.917,-0.791 3.835,-1.58468 5.75,-2.38868 z m 250.75,1.39844 c 2.005,0.443 4.003,0.86806 6,1.28906 v 12.33985 l -6,0.043 z m 259.42578,0.0547 v 15.14258 h -0.002 l -5.78516,-0.10743 -0.0625,-0.041 v -13.73633 c 1.946,-0.41 3.89561,-0.82781 5.84961,-1.25781 z m 247.57422,0.8789 c 1.153,0.458 2.31689,0.92296 3.46289,1.37696 0.843,0.334 1.69111,0.67181 2.53711,1.00781 v 16.63086 l -6,-0.11328 z m -764,0.26368 v 14.26562 l -5.75,0.0391 v -11.94726 c 1.919,-0.777 3.834,-1.56842 5.75,-2.35742 z m 263.5,0.19921 c 2.004,0.42 4.003,0.82366 6,1.22266 v 10.96484 l -6,0.043 z m 246.42383,0.0527 v 13.59766 l -0.0449,0.0273 -5.75781,-0.10742 -0.0449,-12.32227 c 1.946,-0.388 3.89466,-0.78631 5.84766,-1.19531 z m -239.92383,1.27148 c 2.004,0.398 4.003,0.78221 6,1.15821 v 9.66015 l -6,0.041 z m 233.42773,0.0566 0.043,12.17774 -5.89453,-0.10938 v -10.9414 c 1.947,-0.366 3.89656,-0.73996 5.85156,-1.12696 z m 267.07227,0.73829 c 1.994,0.79195 3.99395,1.58962 5.99995,2.39062 v 14.16406 l -5.99995,-0.11328 z m -776.75,0.23828 v 11.7539 l -5.75,0.0391 v -9.49024 c 1.918,-0.762 3.835,-1.52773 5.75,-2.30273 z m 282.75,0.2207 c 2.003,0.375 4.003,0.7388 6,1.0918 v 8.42773 l -6,0.043 z m 220.42383,0.0527 v 10.80469 l -5.84961,-0.10937 v -9.63282 c 1.94695,-0.344 3.89561,-0.6975 5.84961,-1.0625 z m -213.92383,1.12696 c 2.003,0.353 4.003,0.69634 6,1.02734 v 7.26758 l -6,0.041 z m 207.42383,0.0527 v 9.50195 l -5.84961,-0.10937 v -8.39844 c 1.94695,-0.322 3.89661,-0.65114 5.84961,-0.99414 z m 286.57612,0.89844 c 1.997,0.798 3.996,1.60216 6,2.41016 v 11.67578 l -6,-0.11133 z m -789.49995,0.14844 v 9.29687 l -5.75,0.0391 v -7.07812 c 1.918,-0.748 3.835,-1.49881 5.75,-2.25781 z m 302,0.008 c 2.002,0.33 4.003,0.65198 6,0.95898 v 6.1836 l -6,0.041 z m 194.42383,0.0508 v 8.27539 l -5.84961,-0.10937 v -7.24024 c 1.94695,-0.299 3.89661,-0.60578 5.84961,-0.92578 z m -187.92383,0.98242 c 2.003,0.307 4.002,0.59882 6,0.88282 v 5.18164 l -6,0.041 z m 181.42383,0.0469 v 7.125 l -5.84961,-0.10938 v -6.15625 c 1.94795,-0.277 3.89661,-0.56237 5.84961,-0.85937 z m -174.92383,0.9082 c 2.002,0.284 4.002,0.5505 6,0.8125 v 4.25 l -6,0.043 z m 168.42383,0.0449 v 6.05078 l -5.84961,-0.10937 v -5.15039 c 1.94795,-0.254 3.89661,-0.51602 5.84961,-0.79102 z m -489.67383,0.41211 v 6.88672 l -5.75,0.041 v -4.69922 c 1.919,-0.734 3.834,-1.48252 5.75,-2.22852 z m 802.24995,0.01 c 1.999,0.808 4,1.62045 6,2.43945 v 9.15625 l -6,-0.11133 z m -474.49995,0.41211 c 2.002,0.26 4.002,0.50614 6,0.74414 v 3.39453 l -6,0.043 z m 155.42383,0.0449 v 5.05078 l -5.84961,-0.11133 v -4.2168 c 1.94795,-0.23095 3.89661,-0.47065 5.84961,-0.72265 z m -148.92383,0.76172 c 2.002,0.237 4.001,0.45883 6,0.67383 v 2.61328 l -6,0.043 z m 142.42383,0.0391 v 4.12695 l -5.92383,-0.11132 v -3.33399 h -0.16016 c 2.026,-0.216 4.05399,-0.44264 6.08399,-0.68164 z m -135.92383,0.68945 c 2.001,0.213 4.001,0.41252 6,0.60352 v 1.91016 l -6,0.043 z m 129.5,0.0274 v 3.28906 l -6,-0.11133 v -2.57031 c 1.999,-0.189 3.999,-0.39542 6,-0.60742 z m -476.5,0.43164 v 4.51367 l -5.75,0.041 v -2.38282 c 1.918,-0.719 3.836,-1.44087 5.75,-2.17187 z m 353.5,0.19336 c 2.001,0.189 4.001,0.3662 6,0.5332 v 1.2832 l -6,0.041 z m 116.5,0.0293 v 2.49219 l -0.0332,0.0215 -5.9668,-0.11329 v -1.875 c 1.999,-0.166 3.999,-0.33739 6,-0.52539 z m 344.99995,0.0137 c 2.002,0.82195 4.003,1.65032 6,2.48632 v 6.58985 l -6,-0.11328 z m -454.99995,0.53125 c 1.918,0.159 3.834,0.29554 5.75,0.43554 v 0.76172 l -5.75,0.0391 z m 103.5,0.0254 v 1.82226 l -5.75,-0.10937 v -1.27149 c 1.916,-0.138 3.833,-0.2844 5.75,-0.4414 z m -96.75,0.48632 c 1.834,0.13 3.667,0.24643 5.5,0.35743 v 0.2832 l -5.5,0.0371 z m 90,0.0215 v 1.1875 l -5.5,-0.10352 v -0.72461 c 1.833,-0.11 3.666,-0.23037 5.5,-0.35937 z m -83.5,0.39648 c 1.062,0.063 2.12359,0.13736 3.18554,0.19336 l -3.18554,0.0215 z m 77,0.0195 v 0.64844 l -5.5,-0.10156 v -0.25195 c 1.833,-0.089 3.666,-0.18793 5.5,-0.29493 z m -6.5,0.33985 v 0.1875 l -2.87696,-0.0527 c 0.959,-0.04 1.91796,-0.0898 2.87696,-0.13476 z m -450,0.30469 v 2.19726 l -5.75,0.0391 v -0.10742 c 1.918,-0.705 3.836,-1.41295 5.75,-2.1289 z m 412.72265,0.32031 c 0.074,0 0.11663,-10e-4 0.14063,0 0.26714,0.001 1.27273,0.007 4.63672,0.0254 v 2.49609 z m -2.47656,0.0176 -4.74609,2.5039 v -2.4707 z m 8.25391,0.0137 c 1.227,0.007 2.69347,0.0154 4.48047,0.0254 l -4.48047,2.45312 z m -14,0.0254 v 2.41601 l -4.01953,-2.38671 z m -7.9707,0.0566 -4.0293,2.4707 v -2.44336 z m 29.50585,0 4.46485,0.084 v 2.53125 z m -34.53515,0.0352 v 2.45703 l -4.14063,-2.42774 z m -7.98438,0.0547 -4.01562,2.41797 v -2.39062 z m 47.98438,0.0137 3.99023,0.0742 -3.99023,2.42383 z m -53,0.0215 v 2.39648 l -4.07813,-2.36914 z m 449.24995,0.0117 c 2.005,0.84 4.005,1.69087 6,2.54687 v 3.95508 l -6,-0.11133 z m -457.22847,0.0449 -4.27148,2.65234 v -2.625 z m -4.77148,0.0332 v 2.63477 l -4.40039,-2.60547 z m 73.70703,0.0371 4.07812,0.0762 -0.0566,2.4375 z m -40.45703,0.004 4.53711,2.69336 -4.53711,0.0332 z m -41.28711,0.0137 -4.46289,2.61133 v -2.58008 z m 40.28711,0 v 2.71875 l -4.48438,0.0312 z m -45.25,0.0352 v 2.64453 l -4.41406,-2.61524 z m 91.78515,0.043 4.1543,0.0781 -4.21094,2.34375 z m -99.94726,0.0137 -4.33789,2.51953 v -2.48828 z m 40.41211,0.002 v 2.7168 l -4.56446,0.0312 z m -45.25,0.0332 v 2.49219 l -4.36719,-2.46289 z m 46.25,0.0293 4.46289,2.61523 -4.46289,0.0313 z m 51,0.004 v 2.77539 l -4.43555,-0.082 z m -65,0.01 v 2.73047 l -4.44336,0.0312 z m -40.32617,0.0117 -4.42383,2.6543 v -2.62305 z m 28.07617,0.008 4.66797,2.76563 -4.66797,0.0312 z m 13.25,0.0254 4.55664,2.64649 -4.55664,0.0312 z m -46.25,0.002 v 2.63086 l -4.49414,-2.59961 z m 125.66015,0.01 4.08985,0.0762 v 2.41601 z m -14.41015,0.0254 4.46094,2.78711 -4.46094,-0.084 z m -14,0.004 v 2.4375 l -4.30469,-0.0801 z m -64.75,0.004 v 2.73047 l -4.72461,0.0332 z m -40.48242,0.0117 -4.51758,2.72657 v -2.69531 z m 27.48242,0.0117 v 2.79688 l -4.875,0.0352 z m 78.75,0.002 4.28125,2.50586 -4.28125,-0.0801 z m -78.25,0.004 4.6543,2.75586 -4.6543,0.0332 z m -33,0.0176 v 2.70508 l -4.61719,-2.67188 z m 143.75,0.0137 4.34961,0.082 -4.34961,2.49219 z m -151.79883,0.043 -4.45117,2.57617 v -2.54492 z m 105.29883,0.004 v 2.26172 l -4.3418,0.0312 z m 1,0 4.2168,2.22461 -4.2168,0.0293 z m -78.25,0.0176 4.875,2.74804 -4.875,0.0352 z m -33,0.0117 v 2.56055 l -4.64063,-2.52734 z m 32.5,0.006 v 2.76954 l -4.66797,0.0312 z m -40.3457,0.0488 -4.6543,2.63477 v -2.60156 z m 172.375,0.0156 4.4707,0.084 v 2.66797 z m -177.5293,0.0215 v 2.60547 l -4.67578,-2.57422 z m 33,0.0449 4.6582,2.69336 -4.6582,0.0312 z m 130.25,0.004 4.50586,2.74609 -4.50586,-0.084 z m -171.05274,0.006 -4.69726,2.70508 v -2.67188 z m 40.30274,0.002 v 2.7168 l -4.55078,0.0312 z m 150,0.0137 4.37109,0.082 -4.37109,2.6582 z m -20.25,0.0117 v 2.60938 l -4.53516,-0.084 z m -175.25,0.01 v 2.66016 l -4.44531,-2.62891 z m 32.5,0.041 v 2.73047 l -4.77344,0.0332 z m -40.55664,0.0137 -4.44336,2.69726 v -2.66601 z m -4.94336,0.0352 v 2.66602 l -4.4043,-2.63477 z m 46,0.0254 4.53125,2.62305 -4.53125,0.0312 z m 170.54101,0.0156 4.45899,0.082 v 2.75977 z m -224.73437,0.0156 -4.30664,2.49414 v -2.46484 z m -4.80664,0.0332 v 2.4707 l -4.38086,-2.43945 z m 234.5,0.043 4.55469,0.0859 -4.55469,2.48828 z m -242.60938,0.0137 -4.39062,2.6289 v -2.59765 z m 235.60938,0.006 v 2.84961 l -4.54883,-0.0859 z m -181.5,0.006 4.73437,2.57812 -4.73437,0.0332 z m -0.5,0.01 v 2.60352 l -4.65625,0.0332 z m -58.5,0.0137 v 2.59961 l -4.36719,-2.57031 z m 33,0 4.625,2.73633 -4.625,0.0332 z m 195.25,0.002 4.33984,2.66992 -4.33984,-0.082 z m -195.75,0.004 v 2.76563 l -4.60547,0.0332 z m 194.75,0.0371 v 2.5293 l -4.27344,-0.0801 z m -207.75,0.006 v 2.81445 l -4.91602,0.0332 z m -27.61719,0.006 -4.38281,2.67383 v -2.64258 z m 28.11719,0.004 4.625,2.76953 -4.625,0.0312 z m 221,0.004 4.47265,2.85157 -4.47265,-0.084 z m -195,0.0195 4.6582,2.56446 -4.6582,0.0332 z m -59,0.006 v 2.65039 l -4.43946,-2.61914 z m 58.5,0.006 v 2.58789 l -4.54688,0.0312 z m 210.04883,0.01 4.375,0.082 v 2.5332 z m -276.65235,0.043 -4.39648,2.59179 v -2.56054 z m 27.60352,0.0195 v 2.78711 l -4.70899,0.0332 z m -32.5,0.0137 v 2.56641 l -4.40235,-2.53516 z m 33,0.002 4.9082,2.73438 -4.9082,0.0332 z m 253.57617,0.0156 4.37305,0.082 -4.37305,2.39648 z m -266.57617,0.0312 4.72265,2.77734 -4.72265,0.0332 z m -28.14649,0.008 -4.35351,2.50195 v -2.4707 z m 27.64649,0.004 v 2.80273 l -4.64844,0.0332 z m -32.5,0.0293 v 2.47657 l -4.38281,-2.44532 z m -8.05274,0.0566 -4.44726,2.65039 v -2.61915 z m 315.47657,0.0176 4.5,0.084 v 2.58203 z m -320.42383,0.0176 v 2.62109 l -4.42578,-2.58984 z m 32.5,0 v 2.77344 l -4.75781,0.0332 z m 0.5,0 4.64258,2.73828 -4.64258,0.0312 z m 273.07617,0.0254 4.64063,2.77539 -4.64063,-0.0879 z m -314.13086,0.0293 -4.44531,2.70312 v -2.67187 z m 313.47852,0.0117 v 2.63476 l -4.66211,-0.0879 z m 20.15234,0.0117 4.37891,0.082 -4.37891,2.375 z m -306.07617,0.004 v 2.78321 l -4.90039,0.0332 z m 0.5,0 4.76562,2.7461 -4.76562,0.0332 z m -33,0.008 v 2.67578 l -4.44922,-2.64454 z m -8.05274,0.0566 -4.44726,2.70507 v -2.67382 z m -4.94726,0.0332 v 2.69531 l -4.75391,-2.66211 z m 33,0.004 4.90234,2.73243 -4.90234,0.0351 z m -0.5,0.0195 v 2.75195 l -4.66992,0.0332 z m 327.12109,0.0254 4.30274,0.082 v 2.51562 z m -367.41406,0.008 -4.70703,2.61133 v -2.58008 z m 352.21875,0.0117 v 2.69726 h -0.002 l -4.75586,-0.0898 z m -324.42578,0.0195 4.68359,2.74023 -4.68359,0.0332 z m -33,0.004 v 2.57812 l -3,-1.65625 v -0.90234 z m 32.5,0.01 v 2.76367 l -4.59766,0.0332 z m 345.07617,0.041 4.33984,0.082 -4.33984,2.44531 z m -387.57617,0.0195 v 0.58008 l -3,2.00976 v -2.56836 z m 368.07617,0.002 4.55273,2.69727 -4.55273,-0.084 z m -338.07813,0.0176 4.60547,2.73828 -4.60547,0.0332 z m -33.49804,0.004 v 2.52734 l -4.20313,-2.49805 z m 32.99804,0.01 v 2.76172 l -4.59179,0.0312 z m -40.81054,0.0449 -4.1875,2.5293 v -2.5 z m -4.6875,0.0332 v 2.58007 l -4.35156,-2.55078 z m 397.07617,0.0117 4.67969,2.82421 -4.67969,-0.0879 z m 14.5957,0.008 4.30274,0.082 0.01,2.58984 z m -15.24804,0.0273 v 2.6875 l -4.79102,-0.0898 z m -404.08594,0.006 -4.33789,2.58399 v -2.55274 z m -4.83789,0.0332 v 2.47266 l -4.04492,-2.44336 z m 429.125,0.0274 4.15625,0.0781 -4.14649,2.51367 z m -437.02539,0.0273 -4.09961,2.625 v -2.5957 z m -4.59961,0.0332 v 2.6211 l -4.4668,-2.58985 z m 31.75,0.0137 4.60156,2.73437 -4.60156,0.0312 z m -0.5,0.004 v 2.76563 l -4.63086,0.0312 z m 26.25,0.0156 v 2.5664 l -4.67969,0.0332 z m 377.57617,0 4.63086,2.87109 -4.63086,-0.0859 z m -377.07617,0.002 4.51562,2.5293 -4.51562,0.0312 z m -65.66016,0.0176 -4.33984,2.35937 v -2.32812 z m 442.08399,0.0215 v 2.73047 l -4.68946,-0.0879 z m -427.67383,0.006 4.70312,2.83985 -4.70312,0.0332 z m -19.25,0.008 v 2.51953 l -4.32422,-2.49024 z m 462.2832,0.004 4.14063,0.0781 v 2.52148 z m -443.5332,0.006 v 2.85938 l -4.51367,0.0312 z m -26.62891,0.043 -4.12109,2.51562 v -2.48632 z m -4.62109,0.0332 v 2.62696 l -4.13086,-2.59766 z m 479.57617,0.008 4.3457,0.082 -4.3457,2.33398 z m -7.15234,0.008 v 2.85937 l -4.57422,-0.0859 z m -428.17383,0.006 4.5039,2.63867 -4.5039,0.0312 z m -0.5,0.006 v 2.66796 l -4.53125,0.0332 z m 429.32617,0.002 4.69531,2.94531 -4.69531,-0.0879 z m -480.91602,0.0273 -4.16015,2.52735 v -2.5 z m -4.66015,0.0293 v 2.58594 l -4.40235,-2.55469 z m -7.74805,0.0566 -4.25195,2.49023 v -2.46289 z m 26.49805,0.004 v 2.81054 l -4.66211,0.0332 z m 481.48047,0.0156 4.19336,0.0781 v 2.49609 z m -512.73047,0.0117 v 2.4668 l -4.27344,-2.43555 z m 19.25,0.0195 4.47851,2.81641 -4.47851,0.0312 z m -26.91406,0.0352 -4.33594,2.65429 v -2.625 z m 51.41406,0.0234 v 2.61718 l -4.87891,0.0352 z m 473.82617,0 4.54102,0.0859 -4.54102,2.37891 z m -498.82617,0.006 v 2.78711 l -4.63477,0.0312 z m -31.25,0.004 v 2.64063 l -4.56055,-2.60938 z m 56.75,0.008 4.42578,2.56641 -4.42578,0.0312 z m -12.5,0.008 4.59375,2.64453 -4.59375,0.0312 z m -51.72461,0.0371 -4.52539,2.58789 v -2.55664 z m 531.05078,0.004 4.72461,2.89844 -4.72461,-0.0879 z m -536.07617,0.0312 v 2.54492 l -4.2793,-2.51562 z m 550.3457,0.0488 4.57813,0.0859 v 2.58008 z m -557.94531,0.004 -4.40039,2.65039 v -2.61914 z m 543.02344,0.0156 v 2.69922 l -4.85743,-0.0898 z m -504.17383,0.004 v 2.70898 l -4.67774,0.0332 z m -43.75,0.0137 v 2.61719 l -4.29297,-2.58789 z m -7.78906,0.0547 -4.21094,2.67968 v -2.65039 z m 52.03906,0.002 4.48828,2.60547 -4.48828,0.0293 z m 523.82617,0.004 4.44141,0.082 -4.44141,2.43554 z m -536.32617,0.0176 4.68164,2.66797 -4.68164,0.0332 z m -44.25,0.01 v 2.68359 l -3.88477,-2.1875 c 0.435,-0.159 0.87069,-0.31851 1.30469,-0.47851 z m 43.75,0.0117 v 2.68359 l -4.4336,0.0312 z m 796.74995,0.082 c 2.008,0.865 4.008,1.73809 6,2.62109 v 1.24024 l -6,-0.11328 z m -252.16206,0.0234 4.58594,0.0859 v 2.66601 z m -569.08789,0.0332 4.56445,2.68359 -4.56445,0.0312 z m -13,0.0215 v 2.78516 l -4.42383,0.0293 z m 587.32617,0.043 4.52344,0.0859 -4.52344,2.58399 z m -586.82617,0.0176 4.46094,2.68945 -4.46094,0.0313 z m 12,0 v 2.63672 l -4.42578,0.0312 z m 12.5,0.01 v 2.54101 l -4.49414,0.0293 z m 0.5,0 4.38086,2.50586 -4.38086,0.0293 z m 541.67383,0.0156 v 2.58008 l -4.75586,-0.0879 z m 0.65234,0.0332 4.53906,2.64453 -4.53906,-0.0859 z m 27.52148,0.0742 4.32618,0.0801 v 2.45703 z m -15.17382,0.0586 v 2.6582 l -4.6875,-0.0879 z m 20.15234,0.0351 4.35547,0.082 -4.35547,2.44726 z m -19.5,0.0664 4.41797,2.65039 -4.41797,-0.082 z m 27.75,0.0879 4.09766,0.0781 v 2.39062 z m -14.75,0.0176 4.76563,2.79687 -4.76563,-0.0898 z m -0.65234,0.0645 v 2.63086 l -4.45508,-0.084 z m 20.15234,0.008 4.33008,0.082 -4.33008,2.39648 z m -628.57617,0.006 v 1.9043 l -2.45508,-1.83008 z m 622.07617,0.0176 4.89258,2.94531 -4.89258,-0.0898 z m -472.07617,0.0742 v 1.2168 l -1.83399,0.0117 z m -153.64649,0.0195 -3.51953,3.38672 v -3.28125 z m 625.07032,0.0293 v 2.71875 l -4.6836,-0.0879 z m 15.21289,0.004 4.28711,0.0801 v 2.41016 z m -644.30274,0.0879 v 3.31054 l -3.75195,-3.19726 z m 649.24219,0.004 4.3418,0.082 -4.3418,2.4043 z m -484.57617,0.0684 1.71094,0.94336 -1.71094,0.0117 z m -160.16602,0.0391 v 3.21094 l -3.43359,0.0899 z m -9.27734,0.0332 -3.72266,3.22851 v -3.11523 z m 646.86719,0.002 v 2.72461 l -4.76368,-0.0898 z m 15.11914,0.008 4.38086,0.082 v 2.59766 z m -14.4668,0.006 4.8418,2.81446 -4.8418,-0.0918 z m 19.5,0.0879 4.26172,0.0801 -4.26172,2.45313 z m -671.24219,0.0234 v 3.13086 l -3.791005,-3.01562 z m 14,0.0371 2.66602,1.98828 v 0.94141 l -2.66602,0.0703 z m 1067.16611,0.0527 v 2.51954 l -0.666,0.0254 0.1914,-0.25391 -2.9024,-2.17773 z m -417.07626,0.0352 v 2.71875 l -4.75196,-0.0898 z m 15.31445,0.006 4.18555,0.0781 v 2.58399 z m -684.128905,0.0117 -3.77539,3.20312 v -3.08789 z m 669.466795,0.0156 4.54883,2.78125 -4.54883,-0.084 z m -643.41016,0.0195 2.87696,1.61914 -2.87696,0.0215 z m 662.91016,0.043 4.46094,0.082 -4.46094,2.52929 z m 392.18362,0.0274 -2.7402,1.95703 v -1.86328 z m -398.68362,0.01 4.60156,2.92774 -4.60156,-0.0859 z m -686.742185,0.0137 v 3.08985 l -3.67968,-2.97852 z m 13.999995,0.0156 3.40039,2.89648 -3.40039,0.0899 z m -0.5,0.008 v 2.99219 l -3.56054,0.0937 z m 672.58985,0.002 v 2.78906 l -4.69336,-0.0879 z m 400.05666,0.0508 3.0645,2.29687 -6.5254,0.24805 v -0.0723 z m -3.9609,0.0117 v 1.95703 l -3.7637,-1.83008 z m -380.90826,0.0117 4.3125,0.082 v 2.51562 z m -706.113285,0.0469 -3.66406,3.1582 v -3.04687 z m 711.078125,0.0469 4.64648,0.0859 -4.64648,2.45899 z m 370.60552,0.0742 -3.8301,2.38282 v -2.25196 z m -1085.847705,0.006 v 3.04102 l -3.50976,-2.93555 z m 14,0.043 3.556635,2.83008 -3.556635,0.0918 z m -0.5,0.0195 v 2.91602 l -3.54687,0.0937 z m 709.437495,0 4.65235,0.0879 v 2.59375 z m -14.19531,0.008 4.67773,2.81445 -4.67773,-0.0879 z m -0.65234,0.0527 v 2.66211 l -4.54688,-0.084 z m -712.761715,0.0176 -2.4961,2.21289 v -1.96875 c 0,-0.0577 -0.005,-0.11298 -0.01,-0.16797 z m 1086.189475,0 v 2.26562 l -3.8789,-2.13476 z m -353.27542,0.0215 4.35742,0.082 -4.35742,2.50196 z m 358.60942,0.0586 4.334,2.10546 v 0.041 l -8.7402,0.33398 3.9062,-2.43164 v 2.1836 h 0.5 z m -1081.851605,0.002 3.56446,2.88476 -3.56446,0.0937 z m -0.5,0.0215 v 2.97071 l -3.55468,0.0918 z m 731.855465,0.0703 4.23438,0.0801 v 2.34766 z m 339.82624,0.008 -3.832,2.37695 v -2.24805 z m -1088.013735,0.0351 c -1.3e-4,0.009 -0.002,0.0179 -0.002,0.0274 v 2.37109 l -2.85743,-2.31054 z m 753.074215,0.0488 1.92383,0.0371 v 1.29688 l -1.92383,1.13867 z m 330.60752,0.0605 v 2.26172 l -3.916,-2.12891 z m -1087.611425,0.008 -2.73828,2.78321 v -2.69922 z m 11.92774,0.0137 3.41601,2.85547 -3.41601,0.0898 z m 724.923825,0.0156 v 2.52539 l -4.61329,-0.0859 z m -725.423825,0.004 v 2.93945 l -2.83399,0.0723 v -0.49804 z m 726.076165,0.0215 4.50781,2.5957 -4.50781,-0.084 z m 12.34766,0.0117 v 2.73047 l -4.60743,-0.0859 z m 0.65234,0 4.94336,2.83594 -4.94336,-0.0918 z m -753.742185,0.0332 v 2.7207 l -2.83398,-2.63476 z m 769.166015,0 3.5,0.0645 v 2.6543 l -3.5,-2.11328 z m 327.01769,0.0195 3.9257,2.15821 -3.9257,0.14843 z m -0.5,0.004 v 2.32031 l -3.9825,0.15235 z m -9.959,0.043 -3.4317,2.52734 v -2.41015 z m -312.55869,0.008 4.33984,0.082 -4.33984,2.4375 z m -776.984375,0.041 -2.68164,2.88086 v -2.80079 z m 1085.611365,0.0859 v 2.48047 l -4.6054,-2.32617 1.9531,-0.0664 z m -1088.793005,0.01 v 2.74805 l -1.83398,-1.76954 v -0.92382 z m 788.216795,0.0137 4.44922,0.084 v 2.58593 z m -777.216795,0.0371 3.16602,2.5625 v 0.24414 l -3.16602,0.084 z m -13.33398,0.041 v 0.40625 l -0.41016,-0.39649 z m 795.499995,0.0137 4.47265,0.084 -4.47265,2.51367 z m -796.874995,0.0195 -1.95703,1.82226 v -1.77539 z m 14.20898,0.0137 v 2.81641 l -2.8457,0.0742 z m 1083.015705,0.0176 4,2.17383 -4,0.15234 z m -307.34969,0.004 v 2.8164 l -4.85156,-0.0918 z m -792.332025,0.0254 v 2.22656 l -0.33399,0.31055 v -2.52735 z m 1088.826215,0.01 -3.6465,2.18164 v -2.05664 z m -1089.660205,0.0176 v 2.66992 l -2.82812,-2.58594 z m 793.666015,0.0371 4.70508,2.82422 -4.70508,-0.0899 z m 14.63281,0.008 4.36719,0.082 v 2.60156 z m 291.71688,0.006 v 2.23828 l -3.2051,0.1211 z m -1089.515705,0.0332 v 2.8418 l -2.71289,0.0703 z m -14.18359,0.0274 -2.81641,2.75 v -2.66602 z m 1089.197295,0.0137 v 2.17578 l -3.8847,-2.04492 z m -272.34769,0.0117 4.51172,0.084 -4.51172,2.4043 z m 110.49995,0.0469 c 0.7981,0.354 1.5952,0.71136 2.3887,1.06836 l -2.3887,-0.0449 z m -912.665965,0.004 2.84766,2.64844 -2.84766,0.0762 z m -18,0.0234 v 2.60547 l -2.82422,-2.52149 z m 813.666015,0.008 4.69922,2.88476 -4.69922,-0.0879 z m 284.00199,0.01 4.4453,2.2461 -4.4453,0.16797 z m -0.5,0.0332 v 2.40039 l -4.1543,0.1582 v -0.0742 z m -284.00199,0.004 v 2.74024 l -4.71875,-0.0879 z m 15.0293,0.0215 4.4707,0.084 v 2.63477 z m 259.05279,0.0137 -3.9023,2.56445 v -2.43164 z m -1090.873105,0.0195 -3.125,2.74805 v -2.6543 z m 14.625,0.0156 0.66602,0.64257 v 2.09961 l -0.66602,0.0176 z m 822.166015,0.0449 4.52539,0.0859 -4.52539,2.49414 z m -822.666015,0.0195 v 2.70703 l -2.16601,0.0586 v -0.74804 z m 1072.345805,0.0508 v 2.44141 l -3.9356,-2.3086 z m -256.17979,0.0781 4.63672,2.8164 -4.63672,-0.0859 z m 14.64844,0.006 4.35156,0.082 v 2.63086 z m -851.267579,0.002 h 2.703124 v 2.50976 z m -1.056641,0.006 -2.490235,2.61914 v -2.54297 z m 837.17578,0.0195 v 2.6875 l -4.87305,-0.0918 z m 262.01369,0.0215 4.2891,2.25782 -4.2891,0.16211 z m -1084.179705,0.0195 2.8418,2.60157 -2.8418,0.0742 z m 1083.679705,0.0137 v 2.40625 l -3.8867,0.14843 z m -241.51369,0.008 4.49023,0.084 -4.49023,2.5 z m 231.53329,0 -3.2813,2.62109 v -2.50976 z m -1074.199305,0.004 v 2.66406 l -2.80273,0.0742 z m -17.5,0.004 v 2.60547 l -2.896484,-2.51758 z m 853.666015,0.0508 4.6582,2.90625 -4.6582,-0.0859 z m -857.285155,0.0586 -2.88086,2.64258 v -2.55469 z m 871.884765,0.0351 4.40039,0.0801 v 2.62109 z m -15.09961,0.0176 v 2.69922 l -4.73242,-0.0879 z m -842.166015,0.0137 2.88867,2.57813 -2.88867,0.0762 z m -18,0.0352 v 2.57031 l -2.9375,-2.48047 z m 880.166015,0.0254 4.36914,0.082 -4.36914,2.41406 z m -862.666015,0.008 v 2.59961 l -3.048828,0.0801 z m 1077.418005,0.0371 v 2.4336 l -4.4297,-2.42188 z m 4.5938,0.0176 3.9082,2.29102 -3.9082,0.14843 z m -1088.761805,0.0117 2.837891,2.63672 -2.837891,0.0742 z m 1078.296905,0.008 -4.0371,2.5293 v -2.39258 z m -215.38089,0.0176 4.66797,2.86523 -4.66797,-0.0879 z m -863.416015,0.0254 v 2.67187 l -2.605468,0.0684 z m 862.916015,0.0195 v 2.72461 l -4.73438,-0.0898 z m 225.84579,0 v 2.37695 l -3.1211,0.11915 z m -210.87509,0.004 4.5293,0.0859 v 2.67579 z m -892.193355,0.0215 -2.359375,2.66211 v -2.65625 z m -2.859375,0.0156 v 2.74218 l -2.929688,-2.65429 z m 1091.42582,0.0508 v 2.35547 l -3.8554,-2.22461 z m -191.34379,0.008 4.53906,0.084 -4.53906,2.60156 z m -903.996093,0.0586 -2.669922,2.60547 v -2.52343 z m 896.996093,0.0195 v 2.78906 l -4.88281,-0.0918 z m 203.83409,0.0371 4.2832,2.3418 -4.2832,0.16211 z m -0.5,0.0293 v 2.49414 l -4.2403,0.16211 z m -188.47081,0.002 4.63672,0.0859 v 2.72461 z m -915.029295,0.008 v 2.54492 l -2.761718,-2.46094 z m 1093.205105,0.0176 -3.8632,2.58398 v -2.45313 z m -1075.205105,0.008 2.832032,2.46289 -2.832032,0.0742 z m 882.666015,0 4.56445,2.7832 -4.56445,-0.0859 z m -883.166015,0.0195 v 2.53125 l -2.841796,0.0742 z m -6.75,0.0117 3.095704,2.61523 -3.095704,0.0801 z m 814.416015,0.0254 2.0957,1.26562 -2.0957,-0.0391 z m 95,0.006 4.50195,0.084 -4.50195,2.57227 z m -923.783202,0.0215 -2.300781,2.66602 v -2.5957 z m 1092.459092,0.0547 v 2.38281 l -3.9551,-2.25 z m -1078.591905,0.0156 v 2.58789 l -2.347656,0.0605 z m 36.91602,0.0137 1.62109,1.5625 -1.62109,0.041 z m -53.583988,0.002 v 3.00781 l -2.24804705,0.0605 v -3 c 0.103,-0.003 2.39304705,-0.0724 2.24804705,-0.0684 z m 934.630853,0.043 4.45308,0.082 v 2.57227 z m -15.04687,0.008 v 2.71094 l -4.58203,-0.0859 z m 181.00979,0.0234 4.1758,2.41016 -4.1758,0.1582 z m -1090.675805,0.0137 v 2.66016 l -2.804687,0.0742 z m 1090.175805,0.0215 v 2.55468 l -4.0488,0.1543 z m -160.50984,0.0254 4.5704,0.0859 -4.5704,2.5 z m -19.49995,0.004 4.48047,2.7168 -4.48047,-0.0859 z m 170.00589,0.004 -3.6718,2.63476 v -2.50976 z m -1079.671905,0.0723 2.703126,2.45118 -2.703126,0.0703 z m 935.749965,0.0449 0.1,0.002 5.4219,3.10156 -5.6055,-0.10547 v -2.95312 z m -13.58395,0.0137 v 2.73242 l -4.62891,-0.0879 z m 14.72265,0.008 4.7773,0.0879 v 2.64258 z m -14.22265,0.004 4.72655,2.81836 -4.72655,-0.0899 z m 152.83409,0.006 v 2.65429 l -4.4707,-2.50976 z m -1082.500105,0.0527 2.804688,2.50195 -2.804688,0.0742 z m 949.165965,0.0352 4.7852,0.0898 -4.7852,2.64648 z m -127.99995,0.0605 v 0.54297 l -0.88672,-0.0176 z m -708.5,0.0234 v 12.69336 c -0.77973,-1.35505 -1.6457,-2.61887 -2.66602,-3.69727 v -8.92578 z m 974.84189,0 4.2011,2.38867 -4.2011,0.16016 z m -10.4414,0.006 -4.0606,2.74805 v -2.60938 z m -122.11334,0.0195 0.2128,0.004 v 3 l -5.4648,-0.10352 z m 0.7128,0.0137 h 0.041 l 5.2559,3.09766 -5.2969,-0.0977 z m 131.34194,0.0176 v 2.51172 l -3.6992,0.14063 z m -130.28334,0.002 4.9414,0.0937 v 2.82032 z m -957.224565,0.0234 v 2.38672 l -2.109374,0.0566 z m 109.999995,0.002 v 8.40039 c -1.218,-1.198 -2.568,-2.21822 -4,-3.07422 v -5.19141 l 0.0332,-0.0312 z m 832.66597,0.0332 v 2.66797 l -4.7168,-0.0879 z m 20,0.043 4.8047,0.0898 -4.8047,2.64453 z m 110.33994,0 v 2.61718 l -4.0176,-2.48046 z m -967.53716,0.041 0.0312,0.0254 v 4.88867 c -1.285,-0.72495 -2.631,-1.31982 -4,-1.79882 v -3.01172 z m 863.00582,0.0684 0.1914,0.002 v 3.00195 l -5.4648,-0.10352 z m 0.6914,0.0117 0.1211,0.002 3.4571,3.06446 -3.5782,-0.0664 z m 0.8927,0.0176 2.8574,0.0547 v 2.48047 z m -869.05867,0.0215 v 2.82618 c -1.326,-0.435 -2.669,-0.75938 -4,-0.98438 v -1.73828 z m 966.79691,0.0156 -3.9589,2.53906 v -2.4043 z m 10.4532,0.0547 4.2226,2.36914 -4.2226,0.16015 z m -981.75011,0.0469 v 1.64063 c -1.506,-0.227 -2.708995,-0.30055 -3.999995,-0.31055 v -1.22656 z m 981.25011,0.0488 v 2.45312 l -3.8399,0.14454 z m -14.4121,0.002 v 2.45899 l -3.8477,-2.33008 z m -971.338005,0.0664 v 1.21289 c -1.321,0.014 -2.661,0.11841 -4,0.31641 v -1.42383 z m 966.101605,0.10937 -3.9316,2.75782 v -2.625 z m -970.601605,0.008 v 1.49218 c -1.346,0.223 -2.686,0.54294 -4,0.96094 v -2.34766 z m 981.171905,0.0176 3.959,2.44336 -3.959,0.15039 z m -0.5,0.002 v 2.61132 l -4.332,0.16407 z m -985.171905,0.0996 v 2.49804 c -1.375,0.467 -2.717,1.04238 -4,1.73438 v -4.12695 z m 970.670005,0.0234 v 1.13086 h -2.3945 l -1.5821,-0.99609 z m -975.170005,0.0937 v 4.39453 c -1.36,0.774 -2.64898,1.68066 -3.83398,2.72461 v -7.01757 z m 980.504005,0 4.2636,2.58008 -4.2636,0.16211 z M 52.088385,73.845695 v 0.29688 l -0.32813,0.008 z m 1002.140715,0.0332 -3.9727,2.83008 v -2.69531 z m 10.0293,0.004 v 2.67578 l -4.0332,0.1543 z m -984.336035,0.0293 v 7.46094 c -1.09551,1.02788 -1.96222,2.32134 -2.83594,3.60156 v -10.98828 z m 1067.125035,0 v 0.97656 h -5.125 v -0.78125 z m -97.291,0.11914 v 2.70312 l -3.9961,-2.56836 z m 5.334,0.17187 1.002,0.63086 h -1.002 z m -10.5098,0.002 -3.9922,2.89843 v -2.76367 z m 10.0098,0.0293 v 0.59961 h -0.8398 z m -14.502,0.1211 v 2.83008 l -4.0332,-2.69141 z m -5.1796,0.17578 -3.9883,2.74219 v -2.60743 z m 10.5136,0.01 4.0137,2.58204 -4.0137,0.15039 z m -989.501985,0.002 v 2.45703 h -3.33203 v -2.3711 z m 989.001985,0.0312 v 2.7207 l -3.9511,0.14844 z m -14.5019,0.10937 v 3.16211 l -1.166,0.0449 v -3.16796 z m 5.334,0.20899 3.8945,2.60156 -3.8945,0.14844 z m -0.5,0.008 v 2.76172 l -4.2481,0.16015 z m 18.25,0.10742 v 1.95899 l -2.9082,0.11132 z m 64.6679,0.002 v 11.87891 h -4.9179 v -3.25 h 4.916 v -0.5 h -4.916 v -3.75 h 4.916 v -0.5 h -4.916 v -3.69141 z m -1081.168005,0.0293 v 2.46094 h -3 v -2.38281 z m 60.75,0.11524 v 2.36914 c -1.322,0.022 -2.664,0.15762 -4,0.39062 v -2.4375 c 1.338,-0.202 2.679,-0.30926 4,-0.32226 z m 0.5,0.002 c 1.313,0.01 2.543995,0.0934 3.999995,0.31641 v 2.39648 c -1.921,-0.322 -2.981995,-0.33489 -3.999995,-0.33789 z m 955.750105,0.17773 h 0.5859 v 1.5918 l -0.5859,0.0234 z m 1.0859,0 h 1.7969 l 2.2011,1.38477 v 0.0371 l -3.998,0.15234 z m 2.7344,0 h 1.2636 v 0.79492 z m 84.0976,0.0547 h 5.125 v 3 h -5.125 z M 19.504395,75.498715 v 2.00195 H 16.83838 v -1.9336 z m 83.249995,0.0586 c 1.332,0.23 2.676,0.56091 4,1.00391 v 2.51757 c -1.317,-0.496 -2.662,-0.87886 -4,-1.13086 z m -9.499995,0.002 v 2.45117 c -1.354,0.264 -2.696,0.63496 -4,1.12696 v -2.59766 c 1.313,-0.427 2.653,-0.75247 4,-0.98047 z m -90.417968,0.375 v 1.56641 H 0.50830195 l 0.02344,-1.50391 z m 1085.918073,0.19531 v 3.25977 h -4.75 v -3.08008 z M 88.754395,76.703845 v 2.62305 c -1.4,0.565 -2.74,1.279 -4,2.125 v -2.96875 c 1.28,-0.709 2.622,-1.3013 4,-1.7793 z m 18.499995,0.0352 c 1.373,0.492 2.718,1.10556 4,1.85156 v 2.82422 c -1.261,-0.868 -2.606,-1.58644 -4,-2.14844 z m 951.83401,0.51758 v 3.13281 h -5.0839 v -2.93945 z M 52.588385,77.499995 h 3.33203 v 3.75 h -3.33203 z m -35.750005,0.5 h 2.666015 v 2.66601 H 16.83838 Z m 17.166015,0 h 3 v 3.375 h -3 z m 50.25,0.76953 v 3.01563 c -1.425,1.01895 -2.71698,2.23648 -3.83398,3.64648 v -3.83789 c 1.177,-1.084 2.46698,-2.02222 3.83398,-2.82422 z m 27.499995,0.11523 c 1.442,0.89 2.792,1.95699 4,3.20899 v 3.74609 c -1.13,-1.621 -2.49381,-2.97684 -4.00781,-4.08984 h 0.008 z m 1030.16801,0.004 h 5.125 v 3 h -5.125 z m -57.9179,1 h 4.75 v 12.25 h -4.75 v -3.5 h 4.666 v -0.5 h -4.666 v -3.75 h 4.666 v -0.5 h -4.666 z m -30,1 h 5.0839 v 4 h -5.0839 z M 52.588385,81.749995 h 3.33203 v 4.41797 h -3.33203 z m -18.58399,0.125 h 3 v 3.625 h -3 z m 45.91797,0.18945 v 4.00586 c -1.86657,2.586 -2.5042,4.69728 -2.83594,6.07031 v -6.33593 c 0.85174,-1.34729 1.73942,-2.6632 2.83594,-3.74024 z m 1062.000035,0.32422 h 5.125 v 7.7793 h -5.125 z m -1025.66801,0.23438 c 1.03832,1.16149 1.90925,2.52053 2.66602,3.99414 v 8.37304 c -0.05,-0.43396 -0.15657,-4.31221 -2.66602,-8.36914 z m 937.75011,2.76562 h 5.0839 v 3.75 h -5.0839 z m 59.25,2 h 4.9179 v 6.7793 h -4.9179 z m -59.25,2.25 h 5.0839 v 3.5 h -5.0839 z m 30,3 h 4.75 v 4.19531 h -4.75 z m -30,1 h 5.0839 v 4.19531 h -5.0839 z" />&#10;&#10;&#10;&#10;&#10;&#10;&#10;&#10;&#10;&#10;&#10;&#10;&#10;&#10;&#10;&#10;&#10;&#10;&#10;&#10;&#10;&#10;&#10;&#10;&#10;&#10;&#10;&#10;&#10;&#10;&#10;&#10;&#10;&#10;&#10;&#10;&#10;&#10;&#10;&#10;&#10;&#10;&#10;&#10;&#10;&#10;&#10;&#10;&#10;&#10;&#10;<linearGradient
   id="SVGID_1_"
   gradientUnits="userSpaceOnUse"
   x1="546.72662"
   y1="93.961197"
   x2="546.72662"
   y2="190.02029"
   gradientTransform="matrix(1,0,0,-1,59.0098,324.4009)">&#10;	<stop
   offset="0"
   style="stop-color:#F6D297"
   id="stop43" />&#10;	<stop
   offset="0.9831"
   style="stop-color:#545726"
   id="stop44" />&#10;</linearGradient>&#10;&#10;&#10;&#10;&#10;&#10;&#10;&#10;<linearGradient
   id="SVGID_2_"
   gradientUnits="userSpaceOnUse"
   x1="546.72662"
   y1="93.961197"
   x2="546.72662"
   y2="190.02029"
   gradientTransform="matrix(1,0,0,-1,59.0098,324.4009)">&#10;	<stop
   offset="0"
   style="stop-color:#F6D297"
   id="stop48" />&#10;	<stop
   offset="0.9831"
   style="stop-color:#545726"
   id="stop49" />&#10;</linearGradient>&#10;&#10;&#10;&#10;&#10;&#10;&#10;&#10;&#10;</svg>
