<?xml version="1.0" encoding="UTF-8" standalone="no"?>
<!-- Created with Inkscape (http://www.inkscape.org/) -->

<svg
   width="7.8217468mm"
   height="66.053848mm"
   viewBox="0 0 7.8217468 66.053848"
   version="1.1"
   id="svg1"
   xml:space="preserve"
   inkscape:version="1.3 (0e150ed, 2023-07-21)"
   sodipodi:docname="One_World_Trade_Center-front.svg"
   xmlns:inkscape="http://www.inkscape.org/namespaces/inkscape"
   xmlns:sodipodi="http://sodipodi.sourceforge.net/DTD/sodipodi-0.dtd"
   xmlns="http://www.w3.org/2000/svg"
   xmlns:svg="http://www.w3.org/2000/svg"><sodipodi:namedview
     id="namedview1"
     pagecolor="#505050"
     bordercolor="#ffffff"
     borderopacity="1"
     inkscape:showpageshadow="0"
     inkscape:pageopacity="0"
     inkscape:pagecheckerboard="1"
     inkscape:deskcolor="#505050"
     inkscape:document-units="mm"
     inkscape:zoom="1.3001718"
     inkscape:cx="14.613454"
     inkscape:cy="165.36277"
     inkscape:current-layer="layer1" /><defs
     id="defs1" /><g
     inkscape:label="Layer 1"
     inkscape:groupmode="layer"
     id="layer1"
     transform="translate(-95.195223,-93.46923)"><path
       id="rect1"
       style="fill:#ffffff;stroke:none;stroke-width:0.3;stroke-linecap:round;stroke-linejoin:round"
       d="m 99.050285,93.46923 -0.02067,1.652096 a 0.1611636,0.1611636 0 0 0 -0.07545,0.136942 0.1611636,0.1611636 0 0 0 0.07183,0.133842 l -0.0124,1.007174 a 0.1884128,0.1884128 0 0 0 -0.08682,0.158647 0.1884128,0.1884128 0 0 0 0.0832,0.155546 l -0.01344,1.068151 a 0.24360365,0.24360365 0 0 0 -0.12454,0.211874 0.24360365,0.24360365 0 0 0 0.119373,0.208773 l -0.01395,1.07642 a 0.29585081,0.29585081 0 0 0 -0.15813,0.261482 0.29585081,0.29585081 0 0 0 0.151929,0.257349 l -0.01085,0.865064 a 0.33338928,0.33338928 0 0 0 -0.178284,0.29456 0.33338928,0.33338928 0 0 0 0.171049,0.29042 l -0.01085,0.87953 a 0.33338928,0.33338928 0 0 0 -0.160197,0.28422 0.33338928,0.33338928 0 0 0 0.152962,0.2806 l -0.01344,1.05679 a 0.41514191,0.41514191 0 0 0 -0.221176,0.36638 0.41514191,0.41514191 0 0 0 0.212391,0.3607 l -0.03979,3.17035 H 96.405999 V 108.921 H 95.19522 v 50.60208 h 7.82175 V 108.921 h -1.21078 v -1.27486 h -2.467037 l -0.03979,-3.16001 a 0.41514191,0.41514191 0 0 0 0.230994,-0.37104 0.41514191,0.41514191 0 0 0 -0.240296,-0.37672 l -0.01292,-1.03611 a 0.33338928,0.33338928 0 0 0 0.171566,-0.29094 0.33338928,0.33338928 0 0 0 -0.1788,-0.29559 l -0.01085,-0.85783 a 0.33338928,0.33338928 0 0 0 0.189652,-0.30075 0.33338928,0.33338928 0 0 0 -0.197404,-0.30438 l -0.01033,-0.845425 a 0.29585081,0.29585081 0 0 0 0.170532,-0.267168 0.29585081,0.29585081 0 0 0 -0.17725,-0.270784 l -0.01344,-1.056783 a 0.24360365,0.24360365 0 0 0 0.137976,-0.219108 0.24360365,0.24360365 0 0 0 -0.14366,-0.222726 l -0.01292,-1.045931 a 0.1884128,0.1884128 0 0 0 0.101802,-0.166914 0.1884128,0.1884128 0 0 0 -0.105937,-0.169499 l -0.0124,-0.98547 a 0.1611636,0.1611636 0 0 0 0.09095,-0.144694 0.1611636,0.1611636 0 0 0 -0.09457,-0.146761 l -0.02067,-1.642277 z" /></g></svg>
