<svg xmlns="http://www.w3.org/2000/svg" width="4.9844" height="4.6911" viewBox="-0.00094015 0.000024095 4.9844 4.6911" version="1.1" color="#fff"><g transform="scale(0.0335,0.0332) translate(-27,-52.6)"><path d="m 80,193.9 c -7.34,-0.352 -12.9,-5.07 -19.2,-9.88 -5.77,-4.41 -11.9,-7.18 -17.66,-11.1 -6.68,-4.56 -12.89,-13.39 -8.64,-20.89 3.79,-6.68 -6.78,-2.3 -7.47,-9.58 -0.775,-8.23 6.35,-12.2 12.9,-10.64 4.34,1.056 3.69,-4.24 4.48,-7.09 0.88,-3.16 0.349,-9.73 -2.46,-10.09 -6.79,-0.874 -15.6,-1.005 -14.9,-10.25 0.478,-6.2 9.43,-5.26 8.37,-7.75 -3.23,-7.6 -1.09,-16.89 5.79,-21.48 6.37,-4.23 12.7,-7.85 19.38,-12.46 6.58,-4.55 11.9,-9.55 19.5,-10.04 7.22,-0.46 15.19,2.27 18.06,9.49 1.32,3.31 3.01,12.25 4.75,3.97 1.48,-7 7.2,-12.95 14.7,-13.38 8.89,-0.519 16.5,4.03 24.3,10.07 6.47,5 13.3,8.23 19.7,12.48 7.02,4.66 1.13,14.6 5.35,21.8 4.17,7.15 12.2,11.85 4.85,16.29 -3.71,2.24 -10.36,-1.04 -12,1.927 -1.868,3.38 -1.615,7.25 -1.14,11.4 0.703,6.19 4.06,5.45 8.3,5.1 7.74,-0.616 11.59,9.03 6.48,14.47 -2.728,2.9 -8.5,0.0589 -5.47,5.63 3.76,6.88 -0.81,15.5 -7.04,19.7 -6.15,4.14 -12.8,6.9 -18.98,11.9 -8.24,6.68 -16.78,11 -26.2,9.83 -8.3,-1.04 -9.7,-10.27 -13.97,-16.25 -1.548,-2.17 -3.73,11.77 -9.47,14.2 -3.92,1.685 -8.1,2.67 -12.28,2.47 z m 5.22,-12.3 c 3.2,-3.04 6.78,-15.79 4.57,-14.8 -5.27,2.308 -10.23,5.03 -15.3,8.17 -9.26,5.74 7.76,9.46 10.73,6.64 z m 38.5,0.3 c 4.78,-1.094 10.58,-4.13 3.69,-7.3 -5.04,-2.33 -15.4,-11.14 -15.89,-7.6 -0.84,6.36 2.038,17.2 12.2,14.9 z M 72.1,169.2 c 4.69,-1.044 7.7,-1.144 6.27,-7.08 -0.884,-3.65 10.64,-6.3 2.18,-5.43 -6.39,0.659 -12.1,-11.96 -16.4,-5.91 -3.82,5.38 2.02,13.3 4.88,19.2 0.46,0.955 2.04,-0.574 3.07,-0.804 z m 62.1,-0.979 c 0.758,-5.11 6.49,-14.26 2.9,-16.4 -6.34,-3.78 -15.26,-0.907 -18.5,4.7 -2.78,4.82 3.84,8.18 5.85,10.8 1.639,2.128 9.14,4.98 9.75,0.894 z M 54,160 c -0.604,-5.3 -3.13,-15.5 -8.15,-6.29 -4.14,7.62 5.29,11.75 9.84,15.28 0.99,0.768 -1.44,-6.82 -1.69,-8.99 z M 154.5,150.5 c -5.39,-3.31 -5.02,8.17 -6.39,11.74 -1.404,3.65 -3.45,9.8 1.639,4.52 3.25,-3.38 11.34,-6.72 7.4,-12.5 m -65.5,-8.5 c 0.333,-4.77 0.447,-6.1 -4.94,-4.76 -3.71,0.93 -5.89,1.48 -1.217,2.67 1.13,0.287 5.92,5.54 6.16,2.09 z m 20.28,0.876 c 2.6,-1.87 -0.927,-9.24 -1.263,-5.24 -0.1146,1.36 -0.683,6.65 1.263,5.24 z m -8.9,-17.9 c 3.21,-1.565 8.5,1.497 8.2,-4.36 -0.248,-4.62 -0.1707,-5.26 -4.85,-5.84 -4.75,-0.588 -7.99,0.433 -12.44,0.0342 -4.37,-0.392 -2.61,5.56 -2.337,8.17 3.79,0.98 10.5,2.56 11.43,2 z M 91.9,104.5 c 3.55,0 -0.281,-6.94 -2.81,-2.288 -2.038,3.74 -0.65,4.53 3.06,3.83 1.608,-0.304 -0.589,-1.148 -0.251,-1.546 0.000006,-0.00001 0.00003,0 0.00003,0 z m 24.6,0.95 c 8.53,-1.175 -5.1,-7.06 -5.6,-5.62 -1.24,3.64 -2.82,6.79 3.88,5.86 0,0 0.565,-0.0787 0.847,-0.1177 0.289,-0.04 0.868,-0.1196 0.868,-0.1196 z M 51.7,95.6 c 2.49,-5.88 10.06,-15.3 4.58,-18.6 -5.39,-3.23 -16,9.17 -9.9,16.7 1.82,2.25 3.55,6.04 5.31,1.88 z m 102.5,0.833 c 7.18,-3.79 3.05,-12.1 -3.24,-15.7 -2.54,-1.459 -6.49,-5.34 -3.87,-0.2458 2.15,4.19 1.559,18.9 7.1,15.96 z M 67.8,95.3 c 6.4,0.748 14.6,-2.85 13.2,-7.03 -2.038,-5.95 0.843,-8.5 -7.04,-10.4 -9.57,-2.309 -6.54,9.99 -9.37,15.3 -2.137,4.02 0.736,1.82 3.21,2.11 z m 70.1,-2.23 c -2.57,-4.7 -1.08,-16.78 -6.77,-15.97 -4.3,0.612 -8.89,1.088 -6.88,6.79 1.537,4.36 -11.03,6.69 -2.71,6.83 5.59,0.094 18.08,9.76 16.8,4.15 0,0 -0.1234,-0.552 -0.1886,-0.827 -0.078,-0.329 2.53,4.08 -0.242,-0.986 z M 90.7,78.6 C 88.6,72.1 87.6,62 77.6,64.8 c -6.1,1.71 -8.15,4.83 -1.56,7.64 5.34,2.27 16.45,13.2 15.2,7.7 0,0 -0.0669,-0.328 -0.1113,-0.49 -0.1037,-0.377 -0.361,-1.117 -0.361,-1.117 z m 21.97,1.18 c 3.8,-4.15 9.63,-5.22 14.75,-7.8 7.27,-3.66 1.28,-6.3 -3.88,-7.38 -9.4,-1.96 -9.58,8.67 -11.78,14.48 -2.2,5.82 -0.456,0.757 -0.212,0.99 0.281,0.268 -2.629,3.8 1.127,-0.297 z" fill="currentColor" stroke="none"/></g></svg>