<?xml version="1.0" encoding="UTF-8" standalone="no"?>
<!-- Created with Inkscape (http://www.inkscape.org/) -->

<svg
   width="208.46178mm"
   height="16.289799mm"
   viewBox="0 0 208.46178 16.289799"
   version="1.1"
   id="svg1"
   xml:space="preserve"
   inkscape:version="1.3 (0e150ed, 2023-07-21)"
   sodipodi:docname="Lacrymaria_Olor-side.svg"
   xmlns:inkscape="http://www.inkscape.org/namespaces/inkscape"
   xmlns:sodipodi="http://sodipodi.sourceforge.net/DTD/sodipodi-0.dtd"
   xmlns="http://www.w3.org/2000/svg"
   xmlns:svg="http://www.w3.org/2000/svg"><sodipodi:namedview
     id="namedview1"
     pagecolor="#505050"
     bordercolor="#ffffff"
     borderopacity="1"
     inkscape:showpageshadow="0"
     inkscape:pageopacity="0"
     inkscape:pagecheckerboard="1"
     inkscape:deskcolor="#505050"
     inkscape:document-units="mm"
     inkscape:zoom="0.45968013"
     inkscape:cx="160.98151"
     inkscape:cy="280.62992"
     inkscape:current-layer="layer1" /><defs
     id="defs1" /><g
     inkscape:label="Layer 1"
     inkscape:groupmode="layer"
     id="layer1"
     transform="translate(-5.8456068,-117.04568)"><path
       style="fill:#ffffff;stroke:none;stroke-width:0.3;stroke-linecap:round;stroke-linejoin:round"
       d="m 158.35263,126.09024 c 15.38448,-3.01186 8.73049,-6.0929 29.66778,-8.66934 20.93729,-2.57645 47.30434,8.72218 -0.98216,15.36929 -15.14979,2.08552 -15.64084,-2.52139 -27.82516,-1.98556 -12.18433,0.53584 -42.17401,4.50811 -71.463135,1.26344 -29.28911,-3.24466 -40.74295,0.45382 -59.70076,-3.36305 -18.9578097,-3.81688 -23.8315097,-6.28087 -21.7623597,-8.78076 2.06915,-2.4999 10.2495497,3.41857 19.0526197,5.48785 8.80306,2.06928 12.70158,2.93494 39.4604,2.83811 26.75881,-0.0968 39.508675,3.14352 70.350145,0.49086 8.79373,-0.75635 13.09174,-0.67141 23.20263,-2.65084 z"
       id="path1"
       sodipodi:nodetypes="sssssssssss" /></g></svg>
