<?xml version="1.0" encoding="UTF-8" standalone="no"?>
<!-- Created with Inkscape (http://www.inkscape.org/) -->

<svg
   width="148.59433mm"
   height="52.241402mm"
   viewBox="0 0 148.59433 52.241402"
   version="1.1"
   id="svg1"
   xml:space="preserve"
   inkscape:version="1.3 (0e150ed, 2023-07-21)"
   sodipodi:docname="Stentor-top.svg"
   xmlns:inkscape="http://www.inkscape.org/namespaces/inkscape"
   xmlns:sodipodi="http://sodipodi.sourceforge.net/DTD/sodipodi-0.dtd"
   xmlns="http://www.w3.org/2000/svg"
   xmlns:svg="http://www.w3.org/2000/svg"><sodipodi:namedview
     id="namedview1"
     pagecolor="#505050"
     bordercolor="#ffffff"
     borderopacity="1"
     inkscape:showpageshadow="0"
     inkscape:pageopacity="0"
     inkscape:pagecheckerboard="1"
     inkscape:deskcolor="#505050"
     inkscape:document-units="mm"
     inkscape:zoom="0.65008588"
     inkscape:cx="329.18728"
     inkscape:cy="35.379941"
     inkscape:current-layer="layer1" /><defs
     id="defs1" /><g
     inkscape:label="Layer 1"
     inkscape:groupmode="layer"
     id="layer1"
     transform="translate(-80.415237,-129.32241)"><path
       style="fill:#ffffff;stroke:none;stroke-width:0.247783;stroke-linecap:round;stroke-linejoin:round"
       d="m 226.93581,180.7026 c 3.94623,-7.64905 1.29645,-13.12498 -0.0863,-26.83856 -1.38275,-13.71359 -5.27598,-24.16033 -7.81089,-24.4242 -2.53491,-0.26385 -5.92522,-0.60988 -10.47594,5.41668 -4.55072,6.02658 -7.96534,12.99878 -19.68523,16.38771 -11.71989,3.38893 -32.82685,6.09736 -41.10066,5.49218 -8.27382,-0.60518 -25.60959,1.64521 -32.46712,1.64521 -6.85753,0 -15.858373,1.69028 -18.527193,1.12397 -2.66882,-0.56631 -16.798088,-5.50953 -16.357139,1.28039 0.440949,6.78994 5.12543,7.75494 8.067334,10.66955 2.941904,2.91461 8.179823,-8.81448 10.906243,-8.81448 2.726425,0 14.408205,2.00275 23.884125,1.94713 9.47594,-0.0557 15.35163,-1.19374 24.92697,0.27783 9.57535,1.47156 16.40624,-1.12462 25.79733,1.02725 9.39111,2.15187 21.16597,5.86807 31.35953,7.38417 10.19355,1.5161 19.6301,11.18325 21.56894,7.42517 z"
       id="path1"
       sodipodi:nodetypes="ssssssssssscssss" /></g></svg>
