<?xml version="1.0" encoding="UTF-8" standalone="no"?>
<!-- Created with Inkscape (http://www.inkscape.org/) -->

<svg
   width="198.61682mm"
   height="91.13707mm"
   viewBox="0 0 198.61682 91.137069"
   version="1.1"
   id="svg1"
   xml:space="preserve"
   inkscape:version="1.3 (0e150ed, 2023-07-21)"
   sodipodi:docname="Caterpillar_6090_FS-side.svg"
   xmlns:inkscape="http://www.inkscape.org/namespaces/inkscape"
   xmlns:sodipodi="http://sodipodi.sourceforge.net/DTD/sodipodi-0.dtd"
   xmlns="http://www.w3.org/2000/svg"
   xmlns:svg="http://www.w3.org/2000/svg"><sodipodi:namedview
     id="namedview1"
     pagecolor="#505050"
     bordercolor="#ffffff"
     borderopacity="1"
     inkscape:showpageshadow="0"
     inkscape:pageopacity="0"
     inkscape:pagecheckerboard="1"
     inkscape:deskcolor="#505050"
     inkscape:document-units="mm"
     inkscape:zoom="0.71677425"
     inkscape:cx="512.71373"
     inkscape:cy="181.36812"
     inkscape:window-width="1366"
     inkscape:window-height="715"
     inkscape:window-x="-8"
     inkscape:window-y="-8"
     inkscape:window-maximized="1"
     inkscape:current-layer="layer1" /><defs
     id="defs1" /><g
     inkscape:label="Layer 1"
     inkscape:groupmode="layer"
     id="layer1"
     transform="translate(-6.2316613,-93.824764)"><path
       id="path1"
       style="fill:#ffffff;fill-opacity:1;stroke:none;stroke-width:0.264999"
       d="m 94.900667,93.824764 -0.397391,0.912089 -0.498161,3.416846 -0.280087,0.290938 -0.0052,-0.001 -0.526066,3.344493 -0.152446,0.15193 -0.08165,0.26872 v 0.23409 l 0.198954,0.12868 2.303218,0.3855 0.772046,0.15245 0.385506,0.18707 0.128675,0.22221 0.06356,0.4873 -0.180351,0.0269 -0.327629,0.18707 -0.409277,0.52606 -0.198437,0.25735 -0.198955,0.43253 -0.08165,-0.1049 -0.21084,-0.43253 -0.409278,0.0935 -0.397391,0.22221 -0.642855,-0.19895 -0.502812,-0.56121 -0.198954,0.0233 -0.217558,0.77722 -0.264583,0.11575 v 0.13229 l 0.115755,0.11576 0.04961,0.34726 -0.286804,0.17002 -2.012797,-0.28732 -4.19871,-0.23099 h -1.291911 l -1.568896,-0.092 -1.753382,-0.23099 -1.891874,-0.41496 -1.430403,-0.46147 -1.291911,-0.50747 -1.476396,-0.69246 -1.153418,-0.36897 h -0.922941 l -1.061434,0.18448 -0.876432,0.41548 -0.738456,0.64596 -0.414962,0.23048 -0.50798,-0.32298 -28.146085,11.21223 -1.107426,0.0925 -0.691948,0.1385 -0.738456,0.18448 -0.276469,0.32298 -0.276985,0.50746 -0.138493,0.41548 0.0925,0.50746 0.01137,0.0258 -25.169006,10.05468 -1.507918,-0.28473 H 10.63656 l -0.8810831,0.13074 -0.6852295,0.45682 -0.4893758,0.6196 -0.3917074,0.84853 -0.1302246,1.0113 -0.1307414,0.75035 -0.2609659,0.97875 -0.5870443,0.58756 -0.4568197,0.26096 -0.326595,0.68523 -0.065112,0.65268 0.3260783,0.55448 0.5550048,0.55449 0.3260783,0.55501 0.065112,0.52193 0.098185,0.88057 0.2609659,1.63142 0.1632976,1.23972 0.6852295,0.71778 0.7503418,0.62012 0.6852295,0.32608 0.07441,-0.0114 0.02326,0.37052 0.260966,0.58705 0.521932,0.3917 13.507702,18.01027 0.163298,0.71779 0.358634,1.07642 0.326079,0.75034 0.946195,0.62012 0.913639,-0.42427 12.421981,16.99483 0.237195,1.76579 0.326595,0.6196 0.489376,0.50591 0.799434,0.31006 1.288294,0.40772 2.055688,0.50592 0.375171,-0.0982 0.521932,-0.42426 1.794723,-2.16938 9.891902,-2.59157 1.857768,0.6997 1.672249,0.38034 1.915129,0.0811 2.076359,-0.16175 3.091284,-0.39222 2.468583,-0.83044 1.614889,-0.96894 1.776636,-1.36115 1.96112,-1.62678 1.453141,-1.74149 0.519349,-1.07281 0.3576,-1.34979 0.149862,-1.32653 0.08061,-1.76475 -0.01137,-1.47691 0.0062,-0.36897 0.84801,-0.0656 0.01654,-1.64745 -1.043864,0.0651 -0.147277,-1.14205 1.04438,-0.22841 -0.260966,-1.92495 -1.239717,0.11421 -0.277503,-0.75035 1.011308,-0.53846 -0.652673,-1.61489 -0.994772,0.22841 -0.277502,-0.70125 0.701766,-0.60358 -0.766878,-1.58285 -0.864547,0.26096 -0.45682,-0.6196 0.782898,-0.66869 -1.109493,-1.63142 -0.733805,0.48937 -0.603581,-0.62012 0.766362,-0.81545 -1.272274,-1.48466 -0.929659,0.60358 -0.4408,-0.58705 0.587561,-0.75086 -1.435571,-1.25573 -0.636137,0.6196 -0.831991,-0.53795 0.587045,-0.79944 -1.337387,-1.10949 -0.799434,0.60358 -1.321366,-0.88108 0.326078,-0.60359 -2.479435,-3.06699 0.04858,-0.44028 -1.76165,-1.63143 -1.158069,-0.88057 -1.697054,-1.07693 -1.859318,-1.27228 -1.337903,-0.88108 -1.53324,-0.9462 -0.587561,0.68523 0.864547,1.14205 0.750342,1.27228 1.0604,1.69653 1.272791,1.58234 0.440283,0.76688 0.22841,0.81545 0.04909,0.79943 0.01602,0.76688 0.294039,0.45682 -0.294039,0.50591 -0.358634,0.0486 -0.08165,0.4408 0.195854,0.29352 0.310058,0.19586 0.04858,1.20716 -0.06511,1.14153 -0.179317,0.76688 -0.212391,0.53847 -0.342614,0.3917 v 0.29353 l 0.294039,0.22841 0.09767,0.27698 -0.22841,0.24495 -0.342614,0.0977 -0.195854,0.2775 -0.06511,0.2775 0.163297,0.27699 0.04858,0.1142 -0.04858,0.2775 -0.293522,0.96274 -0.538469,1.05988 -0.37517,0.63665 -0.375171,0.29352 -0.260966,0.016 -0.195854,0.71779 0.24443,0.34262 0.244946,0.50591 0.750342,0.26096 -1.092957,1.27228 -1.614888,2.16989 -2.545065,3.09955 -0.782898,0.97875 -0.466121,-0.72037 0.09095,-0.86196 -0.476456,-1.34048 -0.922941,-1.70739 -8.166944,-14.39602 -1.66088,-2.72232 -2.78691,-4.72943 39.233264,-8.79377 18.969385,10.66239 0.553454,0.96894 2.676323,1.56889 0.876949,-1.5229 10.028842,5.81101 v 3.83388 l 0.21498,0.0413 0.42995,0.20671 0.50436,0.19843 0.88728,0.11369 0.28112,0.43305 0.43253,0.21032 h 2.05776 l 0.1757,-0.19482 h 0.67541 l -0.11627,2.7125 1.82728,0.0325 -0.0615,2.26188 -0.42684,-0.1111 -2.16886,0.55397 -0.55346,0.55345 -1.08417,-0.25373 -2.93005,0.48473 -0.7612,0.50746 -1.22318,-0.0925 -2.99878,0.46147 -0.48473,0.43822 -1.19941,-0.0227 -3.114538,0.50746 -0.254248,0.41548 -1.291911,0.0227 -0.761194,0.27698 0.02325,0.0119 -2.030367,0.51883 -1.914612,1.01492 -2.122868,1.70739 -1.845365,2.51458 -0.807703,2.1456 -0.392224,1.52291 -0.115239,2.16834 0.322978,2.51458 0.530717,1.63814 0.876432,1.4764 1.015442,1.40766 1.822628,1.61489 2.653068,1.52239 2.007113,0.62322 0.01964,-0.0103 1.049031,0.1695 1.435572,0.0491 1.304838,0.14676 0.84852,-0.24443 0.86455,0.27699 3.34398,0.0326 0.88108,-0.42375 0.42427,0.42375 3.67057,-0.016 0.73381,-0.39171 0.42426,0.40773 3.99666,-0.0651 0.39171,-0.29352 0.57102,0.35915 3.73569,0.0486 0.53847,-0.34262 0.81545,0.40773 3.60547,-0.0811 0.48937,-0.35915 0.58705,0.34261 3.3445,0.0651 0.63613,-0.32607 0.58705,0.26096 3.50779,-0.016 0.48938,-0.35915 0.37517,0.24495 4.01319,0.016 0.5054,-0.27751 0.63613,0.39171 3.60547,-0.0326 0.71778,-0.1633 0.31006,0.22841 3.75223,0.0326 0.6196,-0.30954 0.42426,0.2279 3.81734,0.0165 0.68523,-0.26096 0.6196,0.32607 3.5078,-0.0486 0.83199,-0.3266 0.81545,0.29404 2.88768,-0.0739 0.63614,-0.18086 0.002,0.031 2.26498,-0.12195 1.68,-0.13385 1.2299,-0.26768 1.35133,-0.5116 1.2299,-0.62115 1.2299,-0.65732 1.07126,-0.85215 1.37614,-1.41231 0.69401,-1.0232 0.76688,-1.26607 0.46302,-1.08365 0.29197,-0.87644 0.17054,-0.9989 0.061,-1.22938 0.0243,-1.2423 -0.14624,-1.38803 -0.4992,-1.74098 -0.4749,-1.19321 -0.52348,-0.96222 -0.84026,-1.1684 -0.93741,-1.04748 -1.04697,-0.87643 -0.87695,-0.71831 -0.91312,-0.524 -0.88883,-0.4625 -0.99839,-0.34106 -1.38803,-0.38964 -1.54668,-0.15813 -1.21749,-0.4868 -0.80357,-0.0977 -1.4733,-0.37724 -1.31465,0.0362 -0.68213,-0.0971 -0.91312,-0.40204 -1.27847,0.0124 -0.54777,-0.30438 -1.82677,-0.13384 -0.99838,-0.24391 -1.82625,-0.37724 -2.08204,-0.0853 -0.41393,-0.34107 -2.00195,-0.52141 0.0171,-1.84227 h 1.42937 v -2.75022 h 42.96223 l 0.0346,1.52756 10.60865,0.031 0.0734,0.0248 -0.0971,-6.67246 -0.2434,-8.03621 -0.43873,-8.27959 -0.53537,-8.32869 h -4.09122 v -8.523 l -0.63304,-0.63303 -1.26659,-0.53589 -0.9741,0.0486 -0.77928,0.38964 -0.53536,0.53588 v 8.523 h -1.0232 v -7.25693 h -0.58446 v -2.97087 h -9.39943 v 3.06854 l -0.37672,0.21756 v -3.18844 h -9.16946 v 3.06803 h -1.36374 v -3.1166 h -9.20513 v 3.1166 l -0.59376,-0.15916 v -3.00653 h -6.45232 l -0.0889,-0.23875 -0.15813,-0.28629 -0.18087,-0.33899 -0.35708,-0.20464 -0.339,-0.11679 -0.43822,0.0698 -0.43253,0.15813 -0.21652,0.28629 -0.0935,0.25735 -0.0491,0.41651 h 5.2e-4 v 3.21221 h -0.38964 v 3.40909 h -0.77928 v -13.3935 -3.75015 h -3.11713 l -2.48408,5.69836 v 3.81682 h -1.46555 v -1.85157 l -0.0661,-0.34727 -0.19844,-0.3638 -0.31419,-0.34726 -0.39688,-0.28112 -0.3638,-0.11576 -0.31419,0.0165 -0.38034,0.1819 -0.38034,0.3638 -0.24805,0.39688 -0.13229,0.41341 -0.1819,0.66146 -0.0661,1.22369 0.14314,0.0858 -0.21704,0.0806 -0.29197,0.21033 -0.16382,0.17518 -0.1757,0.24598 -0.0816,0.57257 v 6.33553 h -0.22944 c 6.5e-4,-0.32437 0.0243,-7.25123 0.0243,-7.25123 l -0.0992,-0.30593 -0.30592,-0.17363 h -6.79132 V 100.0456 l -0.12919,-0.08268 -0.14883,-0.05788 h -25.4863 l 0.0155,-0.03204 -1.08417,-0.784449 -1.77663,-0.922941 -0.57671,-0.02274 -0.29973,0.16123 -0.30127,0.678512 0.0755,-0.574125 -0.0351,-0.607715 -0.37414,-0.433049 -3.95221,-2.537313 -1.09658,-0.1757 -1.273309,-0.272851 -2.073775,-0.252698 z m 0.397392,0.76016 1.754415,0.292489 -0.571541,3.429248 -2.051555,-0.291972 0.03876,-0.0155 0.362251,-1.823661 0.257349,-1.450041 z m 2.338875,0.362769 3.028236,0.490926 1.28623,0.677995 2.84169,1.719275 0.15193,0.630969 -1.73013,2.645832 -0.82114,-0.6289 -1.00872,-0.694532 -1.20717,-0.628386 -1.116206,-0.454752 -2.014348,-0.313676 z m -3.321761,3.643188 2.032434,0.09043 -0.06511,0.289388 -0.0021,-10e-4 -0.607715,3.426151 -1.871203,-0.39739 z m 2.571936,0.363286 0.07441,0.07441 0.727605,0.03307 1.44694,0.264583 0.975656,0.405143 1.81074,1.107937 1.2113,0.76791 0.0109,0.11059 -0.40928,0.53795 -1.71927,2.87631 -0.35037,0.60824 -0.44442,0.46767 -0.315744,0.14004 -0.438733,-0.009 -0.181901,-0.10077 -0.777214,-0.23151 -0.537435,-0.23978 -0.305924,-0.22324 -0.157096,-0.45476 -0.07442,-0.57051 -0.01654,-0.60358 -0.01705,0.003 -0.01602,-0.30024 -0.148828,-0.48783 -0.463021,-0.47955 -0.496094,-0.23978 0.590145,-3.206523 -0.0047,-0.0021 z m 9.629901,0.01912 2.1885,1.332223 -0.14366,0.33538 0.23151,0.29765 0.48317,0.13229 -1.57716,2.54817 -3.38016,-1.98128 1.85209,-2.618441 z m 3.47111,2.292883 2.16007,0.5917 0.53744,0.12867 0.65526,0.22221 c 0,0 0.14004,0.22245 0.14004,0.26923 0,0.003 0.0179,0.19755 0.0202,0.2248 l -2.08411,3.09541 -3.18637,-1.86758 z m -5.9092,0.91261 0.46405,0.27336 -0.0791,0.7891 1.39216,0.98754 -2.19728,3.81579 -0.48783,-0.2434 -0.14882,-0.21497 -0.42995,-0.0413 -0.28939,-0.24805 -0.006,0.003 -0.54416,-0.45992 -0.0935,-0.38602 0.14004,-0.50281 0.77205,-1.27434 1.50843,-2.49081 z m 1.19889,0.70693 1.00924,0.5948 -0.25941,0.45113 -0.73329,-0.48266 z m 8.30854,0.76791 c 0.10011,1.11997 0.23358,2.61276 0.23358,2.61276 l 0.0646,0.97824 -1.9358,-1.13482 z m -6.82026,0.10904 0.61857,0.36483 -2.62826,4.24522 -0.62994,-0.0951 -0.20412,-0.1018 z m 1.13378,0.66869 3.24063,1.90996 -2.96777,4.34237 -1.19321,-0.75757 -1.2392,-0.91209 -0.58136,-0.42788 z m -6.97735,1.85829 0.19896,0.19895 0.0584,0.339 c 0,0 0.3625,0.52618 0.40928,0.59634 0.0172,0.0258 0.0751,0.0608 0.13797,0.0951 l -0.35036,0.11679 -0.8847,-0.29766 -0.826826,-0.28112 -0.01912,-0.0703 c 0.05431,9.9e-4 0.101306,-2.1e-4 0.118856,-0.007 0.05847,-0.0234 0.63149,-0.19844 0.63149,-0.19844 l 0.32762,-0.36277 z m 10.78746,0.38757 2.22363,1.31051 0.0269,0.4067 0.18706,1.96474 0.0574,1.78128 -3.14503,0.22273 -0.0346,-0.0284 -1.09915,-0.50282 -0.56121,-0.52606 -0.6873,-0.34727 z m -42.637194,2.08979 -3.22926,2.75643 -2.906799,1.98437 -20.856091,11.48922 -1.937867,1.10743 -2.952791,1.66088 -2.953308,1.66088 -1.430404,0.83096 -0.83044,0.78444 -0.876432,0.96894 -0.184485,0.18448 0.192753,0.28732 -2.069641,-0.66972 -4.306714,-1.30535 -2.545064,-0.84801 -4.736662,-1.30896 22.148519,-8.62687 0.2682,0.6134 0.461471,0.23048 0.691947,-0.18449 0.507463,-0.46147 1.061434,-0.46147 1.014925,-0.41548 z m 86.689804,3.80752 0.30437,0.0295 0.2806,0.21601 0.15762,0.1757 0.046,0.19172 h -1.42007 l 0.0413,-0.24443 0.18707,-0.19276 0.19275,-0.13487 z m -20.70778,0.19327 h 2.53731 0.0641 v 3.32642 l -0.14573,0.006 h -2.42052 l -0.24598,-0.14056 -0.14005,-0.21033 v -2.67787 l 0.18707,-0.17518 z m 2.98173,0 h 3.60133 l 0.16381,0.0935 0.11679,0.15193 v 3.04581 h -3.88193 z m -23.81044,0.0264 0.0512,1.58026 -0.0832,-0.0749 c 0,0 -0.14368,-0.0872 -0.2067,-0.12557 l 0.0382,-1.37459 z m -0.55914,0.015 -0.0496,1.13999 c -0.26248,-0.1587 -0.53712,-0.32384 -0.59221,-0.3514 -0.11693,-0.0585 -0.94723,-0.39739 -0.94723,-0.39739 l -0.41134,-0.33849 z m 30.32115,0.0522 h 0.26872 v 3.32073 h -0.97049 v -2.90009 l 0.28061,-0.2806 z m 2.50837,0 h 1.46555 v 3.32073 h -1.46555 z m -12.37753,0.76274 v 2.28927 l 0.0997,0.339 0.18139,0.19843 0.26303,0.11731 h 2.85874 v -0.006 l 0.004,0.006 0.0744,0.10542 -0.0786,2.65462 h -4.2323 v -2.86132 l 0.13539,-0.23978 0.12196,-0.46561 z m 3.9119,3.14245 h 3.88762 v 3.07319 h -0.42116 v -0.51211 h -3.46646 z m 5.20899,0.14056 h 1.01699 v 2.93263 h -0.84284 l -0.19793,-2.74557 z m 3.25664,0 h 1.46555 v 1.88153 l 0.38964,0.43822 -0.34107,0.43822 5.2e-4,0.17466 h -1.51464 z m -51.768412,11.6427 2.768307,0.13849 2.214851,0.13849 3.183784,0.36897 3.92224,0.55346 2.32337,0.6413 v 14.92777 l -8.69094,-4.91029 0.92294,-2.03037 -1.29191,-0.73794 -1.291908,-0.41548 -1.661397,-0.41496 -12.763562,-7.20886 0.213423,-0.0357 1.706873,-0.32298 2.768823,-0.32297 3.137276,-0.27647 z m -80.04576,12.52895 0.978752,0.42374 1.07642,0.71779 1.403015,1.10949 1.370459,1.17461 16.965889,19.80447 0.02532,0.016 1.997294,3.96462 -0.195337,0.58704 -0.06563,0.91364 0.260966,1.89239 0.22841,2.18592 0.293522,2.18643 -9.885702,-13.57333 0.652674,-0.75035 -0.815971,-1.10949 -0.293522,-0.65216 -1.011308,-0.81597 -13.284977,-18.02939 z m 133.803722,19.90628 0.0119,0.12712 1.25419,0.0486 1.35134,0.35295 1.31516,0.24391 1.29036,0.15813 1.79008,0.36535 1.71669,0.36535 1.38803,0.19482 1.53427,0.19482 1.16892,0.231 0.80357,0.17053 1.17254,0.18965 0.38189,-0.0217 0.0212,1.09605 -5.69836,-0.0925 -0.55345,0.32298 -8.10907,-0.0687 -0.10438,-0.46199 -0.89969,-0.94567 v -0.34624 l 0.30024,-0.50746 -0.27699,-1.10742 -0.29145,-0.5054 z m -37.83904,1.43247 0.53072,0.89968 0.16123,0.57671 -0.0191,0.90021 -0.0501,-5.2e-4 -7.70547,0.11575 -1.19941,-0.59996 -0.42478,-0.10645 2.2934,-0.678 3.78323,-0.73845 z m -67.072906,8.88162 h 0.627352 l 0.595313,0.19586 0.676961,0.44028 0.726054,0.6935 0.766361,0.79117 0.244947,0.55448 0.424263,0.71779 0.766362,0.74259 2.757454,1.30948 1.14515,0.58446 -5.060673,1.17254 -3.654041,-6.68848 z m 73.024996,6.20634 1.59216,0.0693 0.0475,0.0253 -0.16227,0.24908 -0.14676,0.44855 -0.0326,0.6196 0.008,0.75861 0.0894,0.61185 0.45682,0.91364 0.46509,0.67696 -2.8143,-0.0243 -0.29352,-0.19586 v -0.14676 l 0.26924,-0.38344 0.34261,-0.6935 0.21187,-0.53846 0.0248,-0.70952 -0.0408,-0.66869 -0.19585,-0.56276 -0.21032,-0.31264 0.0889,0.002 z m 8.30544,0 h 1.01544 l 0.48214,0.25115 -0.0625,0.12506 -0.32608,0.5302 -0.0651,0.43201 0.008,0.79117 0.28525,1.00356 0.43253,0.61185 0.38344,0.6196 -3.21376,-0.0894 0.0894,-0.35916 0.58756,-0.66869 0.19586,-0.56276 0.0486,-0.8077 -0.13022,-1.03559 -0.16226,-0.64286 z m -17.53381,0.0233 h 2.51509 l 0.29921,0.005 -0.19999,0.35605 -0.17932,0.42374 -0.13074,0.62839 0.0574,0.79117 0.24443,0.75861 0.30179,0.65215 0.67696,0.56328 -0.48111,0.2036 -3.81733,-0.0326 -4.15996,0.1633 -0.39584,-0.22117 0.21704,-0.11576 1.40767,-0.48472 0.92242,-0.73794 1.17668,-0.92294 0.78444,-0.9462 0.62322,-0.94568 z m 33.75246,0.0233 0.99219,0.046 0.29972,0.13849 0.0806,-5.2e-4 -0.15244,0.46354 -0.0651,0.67696 0.13849,1.14205 0.15503,0.72605 0.8077,1.0604 -3.17293,-0.10593 -0.36742,-0.15503 0.33435,-0.31833 0.52244,-0.60358 0.22841,-0.58704 0.0651,-0.59532 -0.0982,-0.81597 -0.22479,-0.81649 0.13384,-0.002 z m 8.07496,0 1.36116,0.0925 0.10645,0.061 -0.25528,0.51057 -0.15503,0.62786 0.12247,0.82373 0.13849,0.79168 0.39119,0.75809 0.5793,0.59583 -3.36879,-0.0899 0.0248,-0.12247 0.2036,-0.23616 0.39171,-0.45682 0.2775,-0.86455 0.16278,-0.69349 -0.0817,-0.57103 -0.19533,-0.60358 -0.22531,-0.48369 0.1297,-10e-4 z m 8.06307,0.0362 0.76688,0.14676 0.0651,0.40772 0.0326,0.52194 0.555,0.63665 0.22841,0.17932 0.63614,-0.35915 0.6196,-0.016 0.47336,0.13022 1.0113,0.66921 0.22841,0.55449 -0.34261,0.40773 -0.0977,0.65267 0.0656,0.22996 -5.10615,0.0553 -0.0816,-0.25269 0.1633,-0.19586 0.26097,-0.35915 0.35088,-0.81545 0.15503,-0.62787 0.0568,-0.6041 -0.15503,-0.57878 -0.2098,-0.47128 0.0811,-0.002 z m -24.25898,0.0331 1.15393,0.046 0.26459,0.19896 -0.20154,0.29248 -0.15503,0.47336 0.0491,1.08469 0.13023,0.70952 0.41599,0.83199 0.4408,0.56327 h -3.29541 l 0.17105,-0.26148 0.43254,-0.46457 0.29352,-0.64441 0.14676,-0.57929 0.0899,-0.48938 -0.0248,-0.72605 -0.26097,-0.58705 -0.23151,-0.27595 z" /></g></svg>
