<?xml version="1.0" encoding="UTF-8" standalone="no"?>
<!-- Created with Inkscape (http://www.inkscape.org/) -->

<svg
   width="118.56486mm"
   height="51.047531mm"
   viewBox="0 0 118.56486 51.047531"
   version="1.1"
   id="svg1"
   xml:space="preserve"
   inkscape:version="1.3 (0e150ed, 2023-07-21)"
   sodipodi:docname="20ft_Intermodal_Container-side.svg"
   xmlns:inkscape="http://www.inkscape.org/namespaces/inkscape"
   xmlns:sodipodi="http://sodipodi.sourceforge.net/DTD/sodipodi-0.dtd"
   xmlns="http://www.w3.org/2000/svg"
   xmlns:svg="http://www.w3.org/2000/svg"><sodipodi:namedview
     id="namedview1"
     pagecolor="#505050"
     bordercolor="#ffffff"
     borderopacity="1"
     inkscape:showpageshadow="0"
     inkscape:pageopacity="0"
     inkscape:pagecheckerboard="1"
     inkscape:deskcolor="#505050"
     inkscape:document-units="mm"
     inkscape:zoom="0.32504295"
     inkscape:cx="199.97357"
     inkscape:cy="199.97357"
     inkscape:current-layer="layer1" /><defs
     id="defs1" /><g
     inkscape:label="Layer 1"
     inkscape:groupmode="layer"
     id="layer1"
     transform="translate(-22.49272,-64.567459)"><path
       id="rect1"
       style="fill:#ffffff;stroke:none;stroke-width:0.3;stroke-linecap:round;stroke-linejoin:round"
       d="m 22.49272,64.567459 v 51.047531 h 3.863847 v -0.43615 H 137.19425 v 0.43615 h 3.86333 V 64.567459 h -3.86333 v 1.177189 h -5.05448 l -0.15037,-0.560689 h -2.42208 l -0.14986,0.560689 h -1.36581 l -0.15038,-0.560689 h -2.42207 l -0.14986,0.560689 h -1.36581 l -0.14986,-0.560689 h -2.42259 l -0.14987,0.560689 h -1.3658 l -0.14987,-0.560689 h -2.42207 l -0.15038,0.560689 h -1.36581 l -0.14986,-0.560689 h -2.42207 l -0.15038,0.560689 h -1.36529 l -0.15038,-0.560689 h -2.42207 l -0.15038,0.560689 h -1.36529 l -0.15038,-0.560689 h -2.42208 l -0.15038,0.560689 h -1.36529 l -0.15038,-0.560689 h -2.42207 l -0.14986,0.560689 h -1.36581 l -0.150378,-0.560689 h -2.422074 l -0.149862,0.560689 h -1.365808 l -0.149862,-0.560689 h -2.422074 l -0.150379,0.560689 h -1.365808 l -0.149861,-0.560689 h -2.422075 l -0.150378,0.560689 h -1.365292 l -0.150378,-0.560689 h -2.422074 l -0.150379,0.560689 h -1.365291 l -0.150379,-0.560689 h -2.422074 l -0.150378,0.560689 H 78.995214 L 78.844836,65.183959 H 76.422762 L 76.2729,65.744648 h -1.365808 l -0.150379,-0.560689 h -2.422074 l -0.149862,0.560689 h -1.365808 l -0.149861,-0.560689 h -2.422592 l -0.149861,0.560689 h -1.365808 l -0.149862,-0.560689 h -2.422074 l -0.150379,0.560689 H 62.643241 L 62.492862,65.183959 H 60.070788 L 59.92041,65.744648 H 58.555118 L 58.40474,65.183959 h -2.422075 l -0.150378,0.560689 h -1.365291 l -0.150379,-0.560689 h -2.422074 l -0.150379,0.560689 H 50.378873 L 50.228495,65.183959 H 47.80642 l -0.149861,0.560689 h -1.365808 l -0.150379,-0.560689 h -2.422074 l -0.149862,0.560689 h -1.365808 l -0.149862,-0.560689 h -2.422074 l -0.150378,0.560689 h -1.365809 l -0.149861,-0.560689 h -2.422075 l -0.150378,0.560689 H 34.0269 l -0.150379,-0.560689 h -2.422074 l -0.150379,0.560689 h -4.947501 v -1.177189 z" /></g></svg>
