<?xml version="1.0" encoding="UTF-8" standalone="no"?>
<!-- Created with Inkscape (http://www.inkscape.org/) -->

<svg
   width="167.83693mm"
   height="136.20889mm"
   viewBox="0 0 167.83693 136.20889"
   version="1.1"
   id="svg1"
   xml:space="preserve"
   inkscape:version="1.3 (0e150ed6c4, 2023-07-21)"
   sodipodi:docname="Vesta-front.svg"
   xmlns:inkscape="http://www.inkscape.org/namespaces/inkscape"
   xmlns:sodipodi="http://sodipodi.sourceforge.net/DTD/sodipodi-0.dtd"
   xmlns="http://www.w3.org/2000/svg"
   xmlns:svg="http://www.w3.org/2000/svg"><sodipodi:namedview
     id="namedview1"
     pagecolor="#505050"
     bordercolor="#ffffff"
     borderopacity="1"
     inkscape:showpageshadow="0"
     inkscape:pageopacity="0"
     inkscape:pagecheckerboard="1"
     inkscape:deskcolor="#505050"
     inkscape:document-units="mm"
     inkscape:zoom="0.41512267"
     inkscape:cx="152.96683"
     inkscape:cy="256.55067"
     inkscape:window-width="1600"
     inkscape:window-height="837"
     inkscape:window-x="-8"
     inkscape:window-y="-8"
     inkscape:window-maximized="1"
     inkscape:current-layer="layer1" /><defs
     id="defs1" /><g
     inkscape:label="Layer 1"
     inkscape:groupmode="layer"
     id="layer1"
     transform="translate(-22.604574,-56.210931)"><path
       style="fill:#ffffff;stroke:none;stroke-width:0.1;paint-order:markers stroke fill"
       d="m 130.10148,185.55195 c 4.30172,-0.0633 3.90384,-1.83241 8.12636,-2.62911 4.22252,-0.79671 4.70054,-1.3544 7.88735,-1.67308 3.18681,-0.31868 1.91209,-0.87637 7.17032,-2.23077 5.25824,-1.35439 11.47251,-4.62087 13.70328,-6.77196 2.23077,-2.1511 3.90384,-2.9478 5.17856,-3.90385 1.27473,-0.95604 3.34616,-4.22252 4.22253,-5.3379 0.87637,-1.11538 2.23076,-0.95604 2.86813,-1.99176 0.63736,-1.03571 2.31043,-3.50549 2.3901,-4.5412 0.0797,-1.03571 2.07143,-5.73625 2.23077,-7.489 0.15934,-1.75275 1.51373,-5.01923 2.46978,-5.8956 0.95604,-0.87637 -0.15935,-3.18681 0.47802,-4.22252 0.63736,-1.03571 2.78845,-5.01922 2.86812,-9.87911 0.0797,-4.85988 -1.11538,-3.02747 0.31868,-7.01098 1.43407,-3.98351 -1.19505,-9.64009 -1.19505,-11.15383 0,-1.51373 -0.87637,-3.90384 -1.75274,-4.62087 -0.87638,-0.71703 -1.27473,-4.06318 -3.10714,-7.967022 -1.83242,-3.903843 -3.18681,-7.170323 -5.33791,-9.799439 -2.15109,-2.629117 -8.84339,-9.958777 -10.91482,-11.711522 -2.07142,-1.752746 -7.40933,-6.37362 -9.95878,-7.807682 -2.54944,-1.434066 -5.73625,-2.151097 -7.24999,-3.10714 -1.51373,-0.956043 -7.72801,-4.302191 -11.71152,-5.178565 -3.98351,-0.876372 -9.56043,-2.549446 -12.74723,-2.788457 -3.18681,-0.239011 -3.50549,-0.956043 -5.57692,-0.956043 -2.07143,0 -4.22252,-0.239011 -7.489,-0.31868 -3.26648,-0.07967 -5.73626,0.557692 -7.56867,0.15934 -1.83242,-0.398351 -4.93956,-0.796703 -6.931314,-0.239011 -1.991754,0.557691 -2.151094,-0.31868 -4.541202,0.07967 -2.390106,0.398352 -4.700543,0.717032 -5.656585,1.274723 -0.956043,0.557691 -2.071426,1.434063 -4.063183,1.513734 -1.991754,0.07967 -4.22252,1.354394 -5.576914,1.912086 -1.354394,0.557691 -3.266479,1.832414 -5.258236,2.151096 -1.991754,0.318681 -6.771968,2.469777 -8.445042,2.947797 -1.673075,0.478023 -5.178566,2.230766 -5.656588,2.9478 -0.47802,0.717031 -3.266477,4.06318 -4.22252,4.461531 -0.956043,0.398352 -5.178565,3.186811 -6.054939,3.824171 -0.876372,0.637363 -1.593403,3.664831 -2.788457,3.903843 -1.195054,0.239008 -2.868128,2.071425 -3.664831,3.186808 -0.7967,1.115383 -2.310434,1.035711 -3.266477,2.390105 -0.956043,1.354395 -2.78846,2.230769 -4.142854,3.903843 -1.354394,1.673074 -3.266477,3.266479 -4.381862,4.541202 -1.115383,1.274723 -2.549446,4.142851 -3.027469,5.736262 -0.47802,1.5934 -2.788457,7.40933 -2.947797,9.16207 -0.159341,1.75274 -0.796702,5.8956 -1.195053,8.76373 -0.398352,2.86813 -1.274724,7.96702 -0.876373,10.03844 0.398351,2.07143 0.717032,5.25824 0.478021,6.77197 -0.23901,1.51374 0.637362,3.34615 0.637362,4.3022 0,0.95604 1.035713,2.86812 1.035713,3.82417 0,0.95604 0.956043,4.70054 1.752745,7.01098 0.796702,2.31043 2.230765,6.29394 3.107139,6.85164 0.876372,0.55769 1.912086,1.27472 2.788457,3.58516 0.876374,2.31043 2.78846,5.01922 4.461534,5.49724 1.673074,0.47802 10.118119,3.82417 11.870862,3.98351 1.752745,0.15934 7.887353,4.70054 9.799439,5.41758 1.912085,0.71703 4.939553,1.67307 6.214276,1.67307 1.274723,0 1.513734,1.11539 2.868129,1.27473 1.354394,0.15934 2.549448,-0.5577 3.346148,0.31868 0.796703,0.87637 1.513737,1.35439 3.027471,1.27472 1.513734,-0.0797 3.027468,1.19505 3.983511,1.35439 0.956043,0.15935 3.505488,0 4.22252,0.63737 0.717034,0.63736 4.142853,2.94779 4.939553,3.10713 0.796703,0.15934 0.956043,0.71704 1.991757,0.63737 1.035714,-0.0797 2.708789,1.43406 3.58516,1.35439 0.876374,-0.0797 1.513734,1.03571 2.629117,1.03571 1.115385,0 2.230768,0.71703 3.10714,1.59341 0.876371,0.87637 5.656582,1.43406 6.532962,1.43406 0.87637,0 5.41757,0.31868 6.37361,-0.31868 0.95605,-0.63736 2.07143,1.11538 2.62912,0.39835 0.55769,-0.71703 2.54945,0.31868 3.90384,-0.55769 1.3544,-0.87637 4.14285,-0.71703 6.29395,-2.54945 2.15109,-1.83241 4.69782,-3.56872 5.81593,-3.58516 z"
       id="path1"
       sodipodi:nodetypes="sssssssssssssssssssssssssssssssssssssssssssssssssssssssssssssssssssssss" /></g></svg>
