<?xml version="1.0" encoding="UTF-8" standalone="no"?>
<!-- Created with Inkscape (http://www.inkscape.org/) -->

<svg
   width="145.31825mm"
   height="145.31825mm"
   viewBox="0 0 145.31825 145.31825"
   version="1.1"
   id="svg1"
   xml:space="preserve"
   inkscape:version="1.3 (0e150ed6c4, 2023-07-21)"
   sodipodi:docname="J1407b_Rings-top.svg"
   xmlns:inkscape="http://www.inkscape.org/namespaces/inkscape"
   xmlns:sodipodi="http://sodipodi.sourceforge.net/DTD/sodipodi-0.dtd"
   xmlns="http://www.w3.org/2000/svg"
   xmlns:svg="http://www.w3.org/2000/svg"><sodipodi:namedview
     id="namedview1"
     pagecolor="#505050"
     bordercolor="#ffffff"
     borderopacity="1"
     inkscape:showpageshadow="0"
     inkscape:pageopacity="0"
     inkscape:pagecheckerboard="1"
     inkscape:deskcolor="#505050"
     inkscape:document-units="mm"
     inkscape:zoom="1.1626443"
     inkscape:cx="194.81453"
     inkscape:cy="300.60785"
     inkscape:window-width="1600"
     inkscape:window-height="837"
     inkscape:window-x="-8"
     inkscape:window-y="-8"
     inkscape:window-maximized="1"
     inkscape:current-layer="layer1" /><defs
     id="defs1" /><g
     inkscape:label="Layer 1"
     inkscape:groupmode="layer"
     id="layer1"
     transform="translate(-21.670512,-81.741781)"><path
       id="path1"
       style="fill:#ffffff;fill-opacity:1;stroke:none;stroke-width:2.11667;paint-order:markers stroke fill"
       d="M 94.329643,81.741781 A 72.659241,72.659241 0 0 0 21.670512,154.40091 72.659241,72.659241 0 0 0 94.329643,227.06004 72.659241,72.659241 0 0 0 166.98877,154.40091 72.659241,72.659241 0 0 0 94.329643,81.741781 Z m 5.17e-4,5.457548 c 37.11326,0 67.20107,30.087801 67.20107,67.201061 0,37.11327 -30.08781,67.20314 -67.20107,67.20314 -37.113262,0 -67.203134,-30.08987 -67.203134,-67.20314 0,-37.11326 30.089872,-67.201061 67.203134,-67.201061 z m 0,0.198954 c -37.005174,10e-7 -67.002112,29.996937 -67.002112,67.002107 0,37.00518 29.996938,67.00212 67.002112,67.00212 37.00517,0 67.00211,-29.99694 67.00211,-67.00212 0,-37.00517 -29.99694,-67.002107 -67.00211,-67.002107 z m 0,3.86333 c 34.86913,0 63.13878,28.269657 63.13878,63.138777 0,34.86914 -28.26965,63.14085 -63.13878,63.14085 -34.869131,0 -63.140849,-28.27171 -63.140849,-63.14085 0,-34.86912 28.271718,-63.138777 63.140849,-63.138777 z m 0,0.287321 c -34.713485,0 -62.851461,28.137986 -62.851461,62.851456 0,34.71349 28.137976,62.85147 62.851461,62.85147 34.71348,0 62.85146,-28.13798 62.85146,-62.85147 0,-34.71347 -28.13798,-62.851456 -62.85146,-62.851456 z m 0,22.228616 c 22.4354,0 40.62284,18.18747 40.62284,40.62284 0,22.4354 -18.18744,40.62492 -40.62284,40.62492 -22.435392,0 -40.624911,-18.18952 -40.624911,-40.62492 0,-22.43537 18.189519,-40.62284 40.624911,-40.62284 z m 0,0.0992 c -22.381349,0 -40.525692,18.1423 -40.525692,40.52362 0,22.38136 18.144343,40.52518 40.525692,40.52518 22.38135,0 40.52311,-18.14382 40.52311,-40.52518 0,-22.38132 -18.14176,-40.52362 -40.52311,-40.52362 z m -5.17e-4,40.19341 a 0.33046457,0.33046457 0 0 1 0.330212,0.33073 0.33046457,0.33046457 0 0 1 -0.330212,0.33021 0.33046457,0.33046457 0 0 1 -0.330729,-0.33021 0.33046457,0.33046457 0 0 1 0.330729,-0.33073 z" /></g></svg>
