<?xml version="1.0" encoding="UTF-8" standalone="no"?>
<!-- Created with Inkscape (http://www.inkscape.org/) -->

<svg
   width="208.24649mm"
   height="128.34808mm"
   viewBox="0 0 208.24648 128.34808"
   version="1.1"
   id="svg1"
   xml:space="preserve"
   inkscape:version="1.3 (0e150ed6c4, 2023-07-21)"
   sodipodi:docname="Cats_Eye_Nebula-top.svg"
   xmlns:inkscape="http://www.inkscape.org/namespaces/inkscape"
   xmlns:sodipodi="http://sodipodi.sourceforge.net/DTD/sodipodi-0.dtd"
   xmlns="http://www.w3.org/2000/svg"
   xmlns:svg="http://www.w3.org/2000/svg"><sodipodi:namedview
     id="namedview1"
     pagecolor="#505050"
     bordercolor="#ffffff"
     borderopacity="1"
     inkscape:showpageshadow="0"
     inkscape:pageopacity="0"
     inkscape:pagecheckerboard="1"
     inkscape:deskcolor="#505050"
     inkscape:document-units="mm"
     inkscape:zoom="0.58707211"
     inkscape:cx="252.0985"
     inkscape:cy="191.62893"
     inkscape:window-width="1600"
     inkscape:window-height="837"
     inkscape:window-x="-8"
     inkscape:window-y="-8"
     inkscape:window-maximized="1"
     inkscape:current-layer="layer1" /><defs
     id="defs1" /><g
     inkscape:label="Layer 1"
     inkscape:groupmode="layer"
     id="layer1"
     transform="translate(-6.7482311,-74.790329)"><path
       id="path340"
       style="fill:#ffffff;fill-opacity:1"
       d="m 6.7482311,121.58846 c 0.4248873,5.5547 2.5110654,-2.8167 2.3204484,1.83105 -0.7302172,0.90415 -0.2827218,2.96962 0.7738416,3.53944 0.4147859,1.31446 -0.9282311,2.32764 -1.1138645,3.32272 -2.4100738,1.29998 -0.5894533,3.14164 -1.4041293,4.85081 0.2587096,1.73239 3.6414747,0.11395 2.4836397,2.75111 0.645889,2.05031 2.200226,-1.59797 3.43878,-1.82161 1.124776,-0.68243 0.551608,-2.70418 -0.236722,-3.65272 0.642281,1.45733 -3.585872,-1.2286 -1.436717,-1.35868 0.494393,-1.55942 -1.049958,-2.86025 1.242441,-2.27256 1.082638,1.64191 1.002449,-4.14937 -1.54872,-4.58205 -0.115662,-1.06794 1.897183,-2.18479 3.026628,-2.57314 -0.702543,-1.49252 1.14338,-4.35534 -2.293722,-4.30317 -1.802879,-0.60489 -3.9988153,4.47811 -3.6381555,4.03894 -0.4735712,0.3716 -1.0409429,-0.29753 -1.6137484,0.22986 z m 1.7914145,18.23349 c -0.7268691,1.39867 1.4214525,4.07508 4.3810734,3.95223 1.148839,-0.10167 1.988656,1.73673 3.921155,1.14309 2.834235,-1.93868 2.204811,0.21306 3.17425,0.26008 0.730205,1.60889 1.004865,-0.46242 2.414922,-0.59277 -1.612111,3.58685 2.930435,1.37166 4.340518,3.87537 -0.796535,0.84914 2.40353,-0.77666 2.464883,0.48931 2.838902,0.46072 0.27526,1.96486 1.365434,3.84524 -0.109402,0.96193 2.272323,2.4049 1.043158,3.33475 0.707112,1.97141 0.08077,2.7469 2.036666,5.30275 -1.042658,0.39418 -0.124072,0.84476 -0.657046,2.80314 0.125849,1.66904 -0.09551,1.97641 0.03614,3.79373 2.070636,0.41814 2.164543,3.58245 4.340291,4.57378 0.825239,1.22695 1.504524,1.16145 1.727975,2.72442 1.614541,1.1624 2.985615,2.73752 4.586632,4.24463 0.532481,1.92293 3.416072,3.09632 4.724556,4.96882 1.758315,2.12116 2.537137,3.48613 4.525156,4.07433 2.289606,1.40841 2.919936,3.31099 5.503212,4.78975 1.097717,0.1678 3.540511,1.20849 4.911246,1.98768 4.785037,2.32266 9.548162,4.70878 15.074818,5.21255 3.400112,0.98204 5.093461,0.52299 8.128124,0.9818 3.298879,-0.036 5.516079,-0.25367 7.82358,-0.5511 2.574396,-0.39347 3.136205,1.22365 4.962915,0.50303 -0.711151,1.77096 2.170616,-0.16599 3.557746,0.43891 2.18591,-1.2847 3.51793,-0.19637 4.5231,0.9644 1.50094,-0.26937 1.98579,-0.88646 2.13743,-1.46584 2.89671,1.82517 1.2382,0.0961 2.24754,0.3654 1.20006,-0.66844 1.99069,-0.008 3.11716,-0.0493 1.77856,0.47459 2.23974,0.85794 4.95549,0.22766 2.19044,0.91878 2.42228,0.35187 4.41089,0.72397 0.76594,-0.66534 3.75389,-0.47207 5.02721,0.39466 0.74643,-0.62597 4.3669,0.41855 5.5247,-0.55939 2.37039,-0.0589 4.67612,0.26015 6.49616,-0.45978 1.72314,-0.0647 4.08261,0.44973 5.52719,-1.11778 1.01884,-0.0422 3.33782,-0.15704 4.51938,-0.18695 -1.12191,0.13987 2.51496,-2.81209 3.75712,-1.39008 0.61725,-0.78831 4.36905,-0.32903 2.81318,-2.258 1.20793,2.26519 2.96663,-1.03736 4.1595,-0.42056 -0.14434,-1.47235 1.67787,-1.38457 2.15026,-2.89801 0.42615,-0.91216 2.81228,-2.16026 3.13442,-3.61145 1.42515,-0.83799 0.76831,2.64908 1.38627,-0.99937 1.60513,0.73092 1.8845,-2.59767 3.13972,-1.31475 -1.53723,-1.30349 0.99682,-0.45007 0.4331,-2.61748 0.13861,-1.462 3.47806,-2.35942 0.7854,-0.0911 -0.81231,1.98236 2.16304,1.07306 2.47102,0.60468 0.44563,-0.66097 0.92297,-3.48776 2.49945,-3.22025 0.06,-1.99516 0.93252,-0.8438 2.13476,-2.73198 1.51462,-1.46143 1.96189,-2.92915 2.10786,-4.88341 0.31697,-0.34555 1.85648,-1.99008 2.00262,-3.57434 1.67818,-1.63014 1.28004,-1.05463 1.87297,-3.2764 1.25902,-1.26271 3.83978,-3.04649 3.02482,-4.50924 1.02432,0.755 1.27113,-0.87813 1.78159,-2.19764 0.55528,-1.0124 0.054,-2.80679 1.50996,-2.64321 0.85983,-0.61874 1.08952,-1.52177 1.8435,0.0422 1.54721,-1.15208 -1.66485,-1.19867 -0.0803,-2.75046 1.60112,0.33345 1.07499,-0.76815 2.71784,-1.07693 -0.0821,-1.32315 1.74924,-0.8517 2.26258,-0.87694 -0.43499,0.40044 2.5362,-1.60178 3.4106,-0.39996 0.73119,-0.0451 1.2561,-1.46989 2.42058,-0.33878 0.90548,-0.12104 2.16685,0.008 3.74225,-0.11614 2.10896,-0.074 1.33355,-0.24621 2.49092,1.55529 1.50586,0.53163 -5.23466,2.52582 0.26698,2.0698 0.8302,-1.86446 3.05782,-1.96535 3.12102,-4.584 0.61105,-1.28786 -0.10474,-2.45025 -1.38467,-3.80312 -2.94938,0.12816 -1.70307,-3.87638 0.50344,-5.31481 0.61333,-2.14594 -1.08825,-6.01996 -0.26536,-6.58072 -2.28709,-1.41182 -4.46777,-0.96501 -6.56121,-2.11819 -3.08511,0.0491 -1.79109,-3.55356 -4.07334,-3.40221 -2.31163,-0.45192 -2.42096,-0.52923 -3.00755,-3.55515 -0.79759,-1.81396 -2.76223,-2.47307 -2.6261,-1.67008 -1.00198,-2.50512 -1.65544,-1.65882 -1.6098,-2.98792 1.06075,-1.93175 -0.0808,-3.44177 -0.5772,-5.39845 -1.24761,-1.68463 -1.88318,-3.61005 -3.8194,-5.4977 -1.03386,-3.36116 -2.48772,-6.40883 -4.65364,-8.63808 -0.30185,-0.84067 -2.73141,-2.97029 -4.05909,-4.276784 -1.30522,-1.899531 -1.88483,-3.019147 -3.60676,-4.691121 -1.44834,-1.923075 -3.28344,-4.000645 -5.17841,-4.413769 0.32805,-1.697416 -0.85203,0.09709 -1.76122,-1.535261 -0.54103,-0.993492 -3.64049,-2.37857 -3.47832,-1.621522 -1.76531,0.192128 -1.37044,-1.509602 -2.96233,-1.22672 -0.461,-0.0455 -1.4816,1.431579 -3.00645,-1.788682 -2.09783,0.644348 -2.13064,-2.357334 -3.67912,-1.744552 0.0268,-0.752697 -2.72813,-1.714772 -4.47729,-1.880073 -2.15263,-0.808864 -1.88781,0.02179 -3.07301,-0.504688 -0.67178,-0.382783 -2.61527,-1.065778 -2.10398,-1.065973 -0.81655,-0.698603 -2.94908,-0.227444 -5.06743,-1.094378 -3.306,-0.612827 -4.91398,-1.909263 -8.18815,-1.915274 -1.85322,-0.324137 -4.24097,0.236362 -6.1142,-0.657261 -1.30587,-0.49174 -3.31047,0.564119 -4.66367,0.191688 -2.3028,0.436101 -3.89577,0.203511 -6.89045,0.638285 -2.79241,0.720098 -2.33965,1.023675 -4.14259,1.331589 -0.35809,0.03064 -3.61117,0.969984 -5.4132,1.458292 -1.67015,1.729668 -1.82601,1.276418 -3.62554,2.486127 -0.84934,0.417489 -2.08023,-0.261817 -2.10354,0.814407 -2.14693,0.433767 -2.70199,-0.769039 -4.171018,0.761461 -2.411789,-0.371852 -3.862284,-0.53492 -5.724611,-0.323339 -1.289242,-0.919116 -2.992102,0.966769 -4.928869,0.0265 -0.307291,1.123487 -4.114483,0.156576 -5.475732,0.99444 -2.082471,0.132734 -4.199759,0.475403 -6.203875,1.276182 -0.841395,-0.539324 -2.024177,-0.379556 -3.88455,0.798359 -2.39097,-0.430213 -2.409714,0.0628 -4.149285,1.603979 0.176184,-0.817564 -3.535158,0.256835 -1.863752,0.60079 -1.842937,0.786767 -2.961942,0.971247 -4.897229,1.654261 -1.231223,0.359494 -2.358732,1.821653 -3.283737,2.03895 -0.595779,1.195742 -3.00696,0.776587 -1.652745,2.111384 -1.480591,0.717421 -2.561518,2.407331 -1.807408,1.557767 3.252947,1.101626 -2.042386,1.926018 -1.718881,3.212839 -1.702043,0.831721 -1.660324,2.751837 -2.435606,2.976377 -1.738548,0.89626 -2.838329,0.53856 -4.474268,1.5651 0.124424,1.11069 -1.383599,2.61359 -2.813763,2.03129 -0.249243,2.69175 -1.784095,1.95572 -1.278476,3.35031 -1.087709,1.20919 -3.460402,1.30762 -3.182701,2.22542 1.253466,0.69689 -1.254851,3.42357 -0.359142,1.05825 -1.370213,0.38303 -3.349149,1.76074 -3.574127,0.97541 -0.554077,0.37741 -1.446071,-0.65482 -1.012013,0.32551 -2.474052,-0.67879 2.552957,2.11085 -0.881761,1.83423 -2.286275,0.26513 -0.787148,1.98875 -1.301537,2.49716 1.133114,1.20602 0.638652,2.29889 -0.918613,2.80914 -0.275762,1.43589 -1.394976,1.94002 -1.828889,2.15681 0.929399,0.51307 -2.751181,2.11913 -1.63159,1.99954 -0.92404,1.17251 -1.548119,0.46526 -3.439173,2.23811 -1.732543,-0.35709 -1.518523,2.26257 -3.363176,1.83753 0.01994,0.9132 -2.755102,0.64547 -1.372144,2.00429 -0.946702,2.19849 -1.74379,2.61334 0.02841,4.69368 -0.151555,2.50419 -1.479297,2.8024 -3.55101,2.64907 -1.195359,1.0056 -3.589712,1.91511 -4.501705,1.85749 -4.3832943,-0.99889 -0.116912,0.80386 -2.9110492,0.57974 z" /></g></svg>
