<?xml version="1.0" encoding="UTF-8" standalone="no"?>
<!-- Created with Inkscape (http://www.inkscape.org/) -->

<svg
   xmlns:dc="http://purl.org/dc/elements/1.1/"
   xmlns:cc="http://creativecommons.org/ns#"
   xmlns:rdf="http://www.w3.org/1999/02/22-rdf-syntax-ns#"
   xmlns:svg="http://www.w3.org/2000/svg"
   xmlns="http://www.w3.org/2000/svg"
   xmlns:sodipodi="http://sodipodi.sourceforge.net/DTD/sodipodi-0.dtd"
   xmlns:inkscape="http://www.inkscape.org/namespaces/inkscape"
   width="207.2858"
   height="357.21484"
   viewBox="0 0 54.844367 94.513097"
   version="1.1"
   id="svg8"
   inkscape:version="0.92.4 (5da689c313, 2019-01-14)"
   sodipodi:docname="Human_Female-top.svg">
  <defs
     id="defs2">
    <inkscape:path-effect
       effect="mirror_symmetry"
       start_point="22.818895,246.70209"
       end_point="78.243936,246.70209"
       center_point="50.531415,246.70209"
       id="path-effect831"
       is_visible="true"
       mode="horizontal"
       discard_orig_path="false"
       fuse_paths="false"
       oposite_fuse="false" />
    <inkscape:path-effect
       oposite_fuse="false"
       fuse_paths="false"
       discard_orig_path="false"
       mode="horizontal"
       is_visible="true"
       id="path-effect827"
       center_point="58.152113,246.7021"
       end_point="30.314931,246.7021"
       start_point="85.989295,246.7021"
       effect="mirror_symmetry" />
    <inkscape:path-effect
       effect="mirror_symmetry"
       start_point="22.818895,246.70208"
       end_point="78.493259,246.70208"
       center_point="50.656077,246.70208"
       id="path-effect823"
       is_visible="true"
       mode="horizontal"
       discard_orig_path="false"
       fuse_paths="false"
       oposite_fuse="false" />
    <inkscape:path-effect
       effect="mirror_symmetry"
       start_point="1500,0"
       end_point="1500,3000"
       center_point="1500,1500"
       id="path-effect865"
       is_visible="true"
       mode="vertical"
       discard_orig_path="false"
       fuse_paths="false"
       oposite_fuse="false" />
    <inkscape:path-effect
       effect="mirror_symmetry"
       start_point="396.875,-496.75002"
       end_point="396.875,296.99998"
       center_point="396.875,-99.87502"
       id="path-effect854"
       is_visible="true"
       mode="vertical"
       discard_orig_path="false"
       fuse_paths="false"
       oposite_fuse="false" />
    <inkscape:path-effect
       effect="mirror_symmetry"
       start_point="396.875,-496.75002"
       end_point="396.875,296.99998"
       center_point="396.875,-99.87502"
       id="path-effect843"
       is_visible="true"
       mode="vertical"
       discard_orig_path="false"
       fuse_paths="false"
       oposite_fuse="false" />
  </defs>
  <sodipodi:namedview
     id="base"
     pagecolor="#ffffff"
     bordercolor="#666666"
     borderopacity="1.0"
     inkscape:pageopacity="0.0"
     inkscape:pageshadow="2"
     inkscape:zoom="1.0363281"
     inkscape:cx="-82.654476"
     inkscape:cy="135.85379"
     inkscape:document-units="mm"
     inkscape:current-layer="layer1"
     showgrid="false"
     inkscape:pagecheckerboard="true"
     inkscape:showpageshadow="false"
     borderlayer="true"
     units="px"
     showguides="true"
     inkscape:guide-bbox="true"
     inkscape:snap-page="true"
     inkscape:snap-object-midpoints="true"
     inkscape:snap-global="false"
     inkscape:window-width="1366"
     inkscape:window-height="713"
     inkscape:window-x="0"
     inkscape:window-y="0"
     inkscape:window-maximized="1"
     fit-margin-top="0"
     fit-margin-left="0"
     fit-margin-right="0"
     fit-margin-bottom="0"
     inkscape:object-paths="false"
     inkscape:snap-smooth-nodes="true" />
  <metadata
     id="metadata5">
    <rdf:RDF>
      <cc:Work
         rdf:about="">
        <dc:format>image/svg+xml</dc:format>
        <dc:type
           rdf:resource="http://purl.org/dc/dcmitype/StillImage" />
        <dc:title></dc:title>
      </cc:Work>
    </rdf:RDF>
  </metadata>
  <g
     inkscape:label="Layer 1"
     inkscape:groupmode="layer"
     id="layer1"
     transform="translate(-23.648648,-199.44554)">
    <path
       style="fill:#ffffff;fill-opacity:1;stroke:none;stroke:none;stroke-width:3.33597732;stroke-linecap:square;stroke-linejoin:round;stroke-miterlimit:4;stroke-dasharray:none;stroke-opacity:1"
       d="M 110.41016,0 C 88.280093,-4.4875687e-4 67.422607,23.596061 53.224609,61.998047 48.10738,64.666297 43.320015,68.029474 39.207031,73.875 c -8.656807,12.303458 -7.719176,28.94107 -12.560547,45.20898 -4.567454,15.34752 -11.325138,26.83664 -12.076172,43.85157 -0.632616,1.59905 -1.183416,3.19863 -1.636718,4.79687 -7.7424904,2.5783 -9.7974993,5.5759 -9.7975215,10.875 -2.66e-5,5.2991 2.0550198,8.2966 9.7975215,10.875 1.393367,4.91283 3.674086,9.84577 6.644531,14.69336 1.162091,4.79152 2.434462,9.50591 3.759766,14.14258 4.719526,16.5117 18.54629,29.86715 17.193359,56.46289 -0.616706,12.12317 8.230525,24.77365 17.683594,32.82422 13.885616,31.02851 32.539528,49.61459 52.195316,49.60937 24.83325,-0.007 46.85342,-27.40632 60.72461,-71.50781 1.74586,-2.99856 3.324,-6.577 4.69921,-10.92578 3.58718,-11.34365 19.38328,-17.03081 20.50391,-43.2207 0.008,-0.19053 0.0274,-0.38168 0.0371,-0.57227 8.85301,-8.15207 14.04688,-24.76619 14.04688,-51.95117 v -0.85938 c 0,-29.04247 -5.92779,-46.02181 -15.91211,-53.50585 -0.11113,-0.0833 -0.20311,-0.14337 -0.3125,-0.22461 -0.39253,-1.36326 -0.78816,-2.75625 -1.16993,-4.03907 C 188.18597,104.14025 191.774,94.785842 183.11719,82.482422 177.51429,74.519327 172.59928,65.8874 166.73047,58.914062 152.83517,22.263301 132.76586,4.5333245e-4 110.41016,0 Z"
       transform="matrix(0.26458333,0,0,0.26458333,22.818895,199.44554)"
       id="path830"
       inkscape:connector-curvature="0"
       sodipodi:nodetypes="sccsccscccscccsccccccsccs" />
  </g>
</svg>
