<?xml version="1.0" encoding="UTF-8" standalone="no"?>
<svg
   viewBox="0 0 325.7793 174.16016"
   version="1.1"
   id="svg2"
   sodipodi:docname="VTFS_352_Contact_Binary-front.svg"
   width="325.7793"
   height="174.16016"
   inkscape:version="1.3 (0e150ed, 2023-07-21)"
   xmlns:inkscape="http://www.inkscape.org/namespaces/inkscape"
   xmlns:sodipodi="http://sodipodi.sourceforge.net/DTD/sodipodi-0.dtd"
   xmlns="http://www.w3.org/2000/svg"
   xmlns:svg="http://www.w3.org/2000/svg">
  <defs
     id="defs2" />
  <sodipodi:namedview
     id="namedview2"
     pagecolor="#505050"
     bordercolor="#ffffff"
     borderopacity="1"
     inkscape:showpageshadow="0"
     inkscape:pageopacity="0"
     inkscape:pagecheckerboard="1"
     inkscape:deskcolor="#505050"
     inkscape:zoom="0.54457776"
     inkscape:cx="103.75011"
     inkscape:cy="69.778832"
     inkscape:current-layer="svg2" />
  <path
     id="ellipse1"
     style="fill:#ffffff"
     d="M 87.080078,0 A 87.080002,87.080002 0 0 0 0,87.08008 87.080002,87.080002 0 0 0 87.080078,174.16016 87.080002,87.080002 0 0 0 162.88867,129.48242 87.080002,87.080002 0 0 0 238.69922,174.16016 87.080002,87.080002 0 0 0 325.7793,87.08008 87.080002,87.080002 0 0 0 238.69922,0 87.080002,87.080002 0 0 0 162.88867,44.67969 87.080002,87.080002 0 0 0 87.080078,0 Z" />
</svg>
