<svg xmlns="http://www.w3.org/2000/svg" width="181.97" height="69.93" viewBox="0.106877 -0.000159414 181.97 69.93" version="1.1" color="#fff"><g transform="scale(0.334,0.285) translate(-127.3,246)"><path d="m 328.3,-246 c -4.1,-0.05 -7.9,3.2 -12.3,8.4 -5.87,6.94 -6.14,11.2 -6.14,11.2 h -15.76 c -3.47,-1.87 -21.6,-3.2 -54.5,-2.137 -32.8,1.069 -32,1.336 -40.8,1.87 -8.8,0.534 -35.5,6.94 -39.2,11.76 -3.74,4.8 -7.26,12.16 -7.26,12.16 -7.74,5.1 -14.9,19.27 -14.9,19.27 v 3.59 c 0,0 -4.34,4.53 -5.48,9.07 -1.133,4.53 -4.34,23 -4.34,47.5 0,24.4 3.21,42.9 4.34,47.5 1.133,4.53 5.48,9.07 5.48,9.07 v 3.59 c 0,0 7.18,14.17 14.9,19.27 0,0 3.52,7.35 7.26,12.16 3.74,4.8 30.4,11.2 39.2,11.76 8.8,0.534 8,0.8 40.8,1.87 32.8,1.069 51,-0.267 54.5,-2.138 h 15.76 c 0,0 0.2669,4.27 6.14,11.2 5.87,6.94 10.69,10.4 16.57,7.2 L 326.1,-19.9 h 68.4 c -0.267,1.6 13.89,2.138 15.5,0 l 89,-1.87 c 0,0 2.4,0.8 8.8,1.6 6.4,0.8 51.8,1.6 67.8,1.336 16,-0.267 28.3,-3.2 34.4,-4.8 6.14,-1.6 33.1,-4 41.6,-8.8 8.55,-4.8 10.15,-19.2 12.56,-22.18 2.4,-2.94 8.28,-15.5 8.28,-68.6 0,-53.1 -5.88,-65.7 -8.28,-68.6 -2.4,-2.94 -4,-17.37 -12.56,-22.18 -8.55,-4.8 -35.5,-7.2 -41.6,-8.8 -6.14,-1.6 -18.4,-4.54 -34.4,-4.8 -16,-0.267 -61.4,0.534 -67.8,1.336 -6.4,0.8 -8.8,1.6 -8.8,1.6 l -89,-1.87 c -1.6,-2.138 -15.76,-1.6 -15.5,0 h -68.4 l 6.4,-18.17 c -1.47,-0.8 -2.87,-1.186 -4.24,-1.2 z" fill="currentColor" stroke="none"/></g></svg>