<?xml version="1.0" encoding="UTF-8" standalone="no"?>
<!-- Created with Inkscape (http://www.inkscape.org/) -->

<svg
   xmlns:dc="http://purl.org/dc/elements/1.1/"
   xmlns:cc="http://creativecommons.org/ns#"
   xmlns:rdf="http://www.w3.org/1999/02/22-rdf-syntax-ns#"
   xmlns:svg="http://www.w3.org/2000/svg"
   xmlns="http://www.w3.org/2000/svg"
   xmlns:sodipodi="http://sodipodi.sourceforge.net/DTD/sodipodi-0.dtd"
   xmlns:inkscape="http://www.inkscape.org/namespaces/inkscape"
   width="2102.0784"
   height="2949.3315"
   viewBox="0 0 556.1749 780.34401"
   version="1.1"
   id="svg8"
   inkscape:version="0.92.4 (5da689c313, 2019-01-14)"
   sodipodi:docname="Giraffe-side.svg"
   inkscape:export-filename="G:\Pictures\My Pictures\Vectors and SVGs\Animals\Giraffe.png"
   inkscape:export-xdpi="96"
   inkscape:export-ydpi="96">
  <defs
     id="defs2" />
  <sodipodi:namedview
     id="base"
     pagecolor="#505050"
     bordercolor="#666666"
     borderopacity="1.0"
     inkscape:pageopacity="0"
     inkscape:pageshadow="2"
     inkscape:zoom="0.175"
     inkscape:cx="963.47102"
     inkscape:cy="1380.9025"
     inkscape:document-units="mm"
     inkscape:current-layer="layer1"
     showgrid="false"
     borderlayer="true"
     inkscape:showpageshadow="false"
     inkscape:pagecheckerboard="true"
     units="px"
     inkscape:window-width="1366"
     inkscape:window-height="713"
     inkscape:window-x="0"
     inkscape:window-y="0"
     inkscape:window-maximized="1"
     inkscape:snap-global="false"
     showguides="true"
     inkscape:guide-bbox="true"
     inkscape:object-paths="true"
     inkscape:snap-smooth-nodes="true"
     fit-margin-top="0"
     fit-margin-left="0"
     fit-margin-right="0"
     fit-margin-bottom="0" />
  <metadata
     id="metadata5">
    <rdf:RDF>
      <cc:Work
         rdf:about="">
        <dc:format>image/svg+xml</dc:format>
        <dc:type
           rdf:resource="http://purl.org/dc/dcmitype/StillImage" />
        <dc:title />
      </cc:Work>
    </rdf:RDF>
  </metadata>
  <g
     inkscape:label="Layer 1"
     inkscape:groupmode="layer"
     id="layer1"
     transform="translate(-6.3397881,491.68937)">
    <path
       style="opacity:1;fill:#ffffff;fill-opacity:1;fill-rule:nonzero;stroke:none;stroke:none;stroke-width:2.99733734;stroke-linecap:round;stroke-linejoin:round;stroke-miterlimit:4;stroke-dasharray:none;stroke-dashoffset:0;stroke-opacity:1;paint-order:normal"
       d="m 321.05469,19.126953 c -17.0645,5.61e-4 -30.89788,13.833934 -30.89844,30.898438 0.004,7.933028 3.05966,15.560493 8.5332,21.302734 -4.78566,14.800712 -11.42521,48.794025 -15.43554,80.851565 -52.50452,10.86805 -83.84806,35.37489 -105.25196,66.50781 -25.17733,36.62158 -61.79855,157.93028 -100.708981,185.39648 -38.910414,27.46613 -57.220275,57.22323 -52.642578,105.28907 4.577697,48.06584 20.598499,25.17642 29.753906,11.44336 9.155391,-13.73311 9.15601,6.86693 27.466797,4.57812 18.310796,-2.28884 86.975876,-68.66627 121.308596,-70.95508 34.33273,-2.28888 89.91245,-13.58723 128.17578,-41.19922 33.48077,-24.1607 94.7767,-47.51833 155.24805,100.59375 120.7669,295.79369 117.04815,517.11642 222.45898,676.48632 144.75969,218.8612 87.8638,210.2891 61.75195,333.0117 -8.17669,38.4296 -8.68337,81.5027 13.76953,134.0879 32.87544,76.9951 115.10772,188.6987 126.48243,272.7344 12.46699,92.1054 43.69859,56.6462 79.30468,218.4922 35.60621,161.8461 -9.71054,194.2154 9.71091,260.5723 19.4216,66.3569 17.8024,299.4152 3.2364,362.5351 -14.56623,63.1199 1.6181,106.8188 -19.42192,126.2402 -21.03995,19.4216 -61.50195,35.6045 -61.50195,51.7891 0,16.1846 -4.85404,17.8047 35.60742,17.8047 21.72391,0 46.55215,-0.4605 65.47075,-0.8926 12.201,0.661 27.9661,0.8809 47.8203,0.8809 93.8706,0 71.4048,-8.4741 63.3125,-21.4219 -8.0923,-12.9478 -14.7577,-61.0216 -0.1914,-98.2461 14.566,-37.2245 -14.567,-401.3787 -6.4746,-456.4062 8.0921,-55.0278 12.9476,-92.252 0,-124.6211 -12.4219,-31.0547 -6.9587,-272.1374 39.2382,-436.0157 184.3095,59.6076 266.7588,75.2191 349.5157,63.9688 35.5555,175.6472 124.2988,261.917 124.2988,308.7265 0,50.1723 -8.0921,97.1084 4.8555,150.5176 12.9477,53.4091 19.4216,69.5936 -32.3692,208.7813 -51.7907,139.1875 -61.5022,226.585 -113.293,284.8496 -51.7907,58.2645 -118.1474,118.0436 -59.8828,119.6621 58.2646,1.6184 110.742,2.5473 103.5821,-24.1738 -8.0923,-37.2247 1.6182,-50.1715 22.6582,-67.9746 21.04,-17.8031 46.9355,4.8557 46.9355,-87.3965 0,-92.2523 87.3966,-322.074 124.6211,-377.1016 35.515,-52.5005 45.9805,-56.4343 51.084,-121.3359 4.6909,15.424 10.236,31.1168 16.8906,47.0879 16.1846,38.843 3.2369,302.6511 4.8555,415.9433 1.6184,113.2922 -74.4497,173.1743 -98.7266,197.4512 -24.2769,24.2769 61.5022,17.8047 108.4375,17.8047 46.9354,0 37.2246,1.6179 32.3692,-33.9883 -4.8554,-35.606 6.4742,-29.1321 19.4218,-64.7383 12.9476,-35.606 16.184,-390.0491 40.461,-511.4336 24.2769,-121.3846 50.174,-67.9758 -9.709,-205.5449 -53.9704,-123.9859 22.1946,-247.9908 44.873,-465.5781 8.835,28.8681 17.7062,64.7303 26.3399,107.8984 22.6583,113.2922 80.9842,230.216 87.3965,267.4512 0.085,0.4969 0.2098,0.9661 0.3672,1.4121 -20.4421,35.1186 -5.2093,170.3034 -18.1719,199.1094 -14.5661,32.3691 -32.3682,55.0285 -16.1836,90.6347 16.1846,35.6061 24.2757,69.5941 6.4726,89.0157 -17.803,19.4215 -3.2362,64.738 6.4747,50.1718 9.7107,-14.5661 64.7388,-48.5546 61.5019,-85.7793 -3.237,-37.2245 -19.4222,-97.108 -1.6191,-131.0957 17.8031,-33.9877 29.1327,-67.9744 24.2773,-127.8574 -3.8735,-47.7738 -11.8699,-94.514 -33.8457,-98.3164 -16.704,-32.8875 -38.5333,-86.8589 -84.3027,-259.6016 -41.7178,-157.4508 -24.143,-189.582 -70.0645,-252.6933 -45.4129,-82.6274 -155.0803,-148.3519 -277.8125,-180.4961 -76.7086,-19.8451 -197.291,-25.1103 -276.416,-65.0254 -53.5436,-27.0104 -83.8317,-48.8119 -104.8379,-69.3281 -10.9603,-21.7238 -22.5976,-47.5983 -33.0273,-76.6524 C 1212.5615,1055.9751 1034.032,1012.4861 958.5,904.91016 882.96799,797.33426 795.99225,614.22764 713.59375,458.58594 631.19517,302.94427 551.08405,259.45666 530.48438,234.2793 c -17.98857,-21.98606 -23.762,-26.51621 -44.75,-12.07032 -4.26442,-3.20746 -8.52124,-6.32015 -12.76563,-9.33593 33.37357,-57.7345 68.72376,-134.590583 32.87305,-101.15039 -20.02882,20.31518 -44.90941,33.61597 -81.93946,70.15234 -36.26395,-20.0252 -69.40149,-31.75821 -94.75195,-34.04688 -3.89753,-21.89144 -2.60337,-49.257399 -1.71289,-67.605464 14.27761,-3.013824 24.5006,-15.605041 24.51758,-30.197265 -5.6e-4,-17.065266 -13.83512,-30.898954 -30.90039,-30.898438 z"
       transform="matrix(0.26458333,0,0,0.26458333,0,-496.75004)"
       id="path887"
       inkscape:connector-curvature="0"
       sodipodi:nodetypes="ccccssscccssssssscccsscsscccccscssccssscccssscssccccccsccsccsccscsssscccccccc" />
  </g>
</svg>
