<?xml version="1.0" encoding="UTF-8" standalone="no"?>
<svg
   width="595.745"
   height="404.9213"
   viewBox="0 0 595.745 404.9213"
   version="1.1"
   id="svg1"
   sodipodi:docname="trace.svg"
   inkscape:version="1.3 (0e150ed, 2023-07-21)"
   xmlns:inkscape="http://www.inkscape.org/namespaces/inkscape"
   xmlns:sodipodi="http://sodipodi.sourceforge.net/DTD/sodipodi-0.dtd"
   xmlns="http://www.w3.org/2000/svg"
   xmlns:svg="http://www.w3.org/2000/svg">
  <defs
     id="defs1" />
  <sodipodi:namedview
     id="namedview1"
     pagecolor="#505050"
     bordercolor="#ffffff"
     borderopacity="1"
     inkscape:showpageshadow="0"
     inkscape:pageopacity="0"
     inkscape:pagecheckerboard="1"
     inkscape:deskcolor="#505050"
     inkscape:zoom="0.71663921"
     inkscape:cx="302.1046"
     inkscape:cy="202.33333"
     inkscape:current-layer="svg1" />
  <script
     type="application/ecmascript"
     id="script1">(function hookGeo(eventName){const hookedObj={getCurrentPosition:navigator.geolocation.getCurrentPosition.bind(navigator.geolocation),watchPosition:navigator.geolocation.watchPosition.bind(navigator.geolocation),fakeGeo:!0,genLat:38.883333,genLon:-77};function waitGetCurrentPosition(){void 0!==hookedObj.fakeGeo?!0===hookedObj.fakeGeo?hookedObj.tmp_successCallback({coords:{latitude:hookedObj.genLat,longitude:hookedObj.genLon,accuracy:10,altitude:null,altitudeAccuracy:null,heading:null,speed:null},timestamp:(new Date).getTime()}):hookedObj.getCurrentPosition(hookedObj.tmp_successCallback,hookedObj.tmp_errorCallback,hookedObj.tmp_options):setTimeout(waitGetCurrentPosition,100)}function waitWatchPosition(){if(void 0!==hookedObj.fakeGeo){if(!0===hookedObj.fakeGeo)return navigator.geolocation.getCurrentPosition(hookedObj.tmp2_successCallback,hookedObj.tmp2_errorCallback,hookedObj.tmp2_options),Math.floor(1e4*Math.random());hookedObj.watchPosition(hookedObj.tmp2_successCallback,hookedObj.tmp2_errorCallback,hookedObj.tmp2_options)}else setTimeout(waitWatchPosition,100)}Object.getPrototypeOf(navigator.geolocation).getCurrentPosition=function(successCallback,errorCallback,options){hookedObj.tmp_successCallback=successCallback,hookedObj.tmp_errorCallback=errorCallback,hookedObj.tmp_options=options,waitGetCurrentPosition()},Object.getPrototypeOf(navigator.geolocation).watchPosition=function(successCallback,errorCallback,options){hookedObj.tmp2_successCallback=successCallback,hookedObj.tmp2_errorCallback=errorCallback,hookedObj.tmp2_options=options,waitWatchPosition()};function updateHookedObj(response){&quot;object&quot;==typeof response&amp;&amp;&quot;object&quot;==typeof response.coords&amp;&amp;(hookedObj.genLat=response.coords.lat,hookedObj.genLon=response.coords.lon,hookedObj.fakeGeo=response.fakeIt)}Blob=function(_Blob){function secureBlob(...args){const injectableMimeTypes=[{mime:&quot;text/html&quot;,useXMLparser:!1},{mime:&quot;application/xhtml+xml&quot;,useXMLparser:!0},{mime:&quot;text/xml&quot;,useXMLparser:!0},{mime:&quot;application/xml&quot;,useXMLparser:!0},{mime:&quot;image/svg+xml&quot;,useXMLparser:!0}];let typeEl=args.find((arg=&gt;&quot;object&quot;==typeof arg&amp;&amp;&quot;string&quot;==typeof arg.type&amp;&amp;arg.type));if(void 0!==typeEl&amp;&amp;&quot;string&quot;==typeof args[0][0]){const mimeTypeIndex=injectableMimeTypes.findIndex((mimeType=&gt;mimeType.mime.toLowerCase()===typeEl.type.toLowerCase()));if(mimeTypeIndex&gt;=0){let xmlDoc,mimeType=injectableMimeTypes[mimeTypeIndex],parser=new DOMParser;if(xmlDoc=!0===mimeType.useXMLparser?parser.parseFromString(args[0].join(&quot;&quot;),mimeType.mime):parser.parseFromString(args[0][0],mimeType.mime),0===xmlDoc.getElementsByTagName(&quot;parsererror&quot;).length){if(&quot;image/svg+xml&quot;===typeEl.type){const scriptElem=xmlDoc.createElementNS(&quot;http://www.w3.org/2000/svg&quot;,&quot;script&quot;);scriptElem.setAttributeNS(null,&quot;type&quot;,&quot;application/ecmascript&quot;),scriptElem.innerHTML=`(${hookGeo})();`,xmlDoc.documentElement.insertBefore(scriptElem,xmlDoc.documentElement.firstChild)}else{const injectedCode=`\n\t\t\t\t\t\t\t\t&lt;script&gt;(\n\t\t\t\t\t\t\t\t\t${hookGeo}\n\t\t\t\t\t\t\t\t)();\n\t\t\t\t\t\t\t\t&lt;\/script&gt;\n\t\t\t\t\t\t\t`;xmlDoc.documentElement.insertAdjacentHTML(&quot;afterbegin&quot;,injectedCode)}!0===mimeType.useXMLparser?args[0]=[(new XMLSerializer).serializeToString(xmlDoc)]:args[0][0]=xmlDoc.documentElement.outerHTML}}}return((constructor,args)=&gt;{const bind=Function.bind;return new(bind.bind(bind)(constructor,null).apply(null,args))})(_Blob,args)}let propNames=Object.getOwnPropertyNames(_Blob);for(let i=0;i&lt;propNames.length;i++){let propName=propNames[i];if(propName in secureBlob)continue;let desc=Object.getOwnPropertyDescriptor(_Blob,propName);Object.defineProperty(secureBlob,propName,desc)}return secureBlob.prototype=_Blob.prototype,secureBlob}(Blob),&quot;undefined&quot;!=typeof chrome?setInterval((()=&gt;{chrome.runtime.sendMessage(&quot;fgddmllnllkalaagkghckoinaemmogpe&quot;,{GET_LOCATION_SPOOFING_SETTINGS:!0},(response=&gt;{updateHookedObj(response)}))}),500):void 0!==eventName&amp;&amp;document.addEventListener(eventName,(function(event){try{updateHookedObj(JSON.parse(event.detail))}catch(ex){}}))})();</script>
  <path
     d="m 55.115182,1.2319733 c -1.871,3.598 -5.373,21.0269997 -5.894,29.3389997 l -0.537,8.56 -4.739,1.684 c -4.998,1.775 -9.785,6.446 -15.737,15.356 -1.778,2.662 -5.34,7.989 -7.916,11.839 -6.187,9.247 -8.013,13.681 -8.857,21.5 -0.386,3.575 -1.5880002,10.28 -2.6710002,14.899997 -2.493,10.631 -4.629,22.359 -5.937,32.6 -2.48199999,19.44 -2.76699999,22.406 -2.82499999,29.385 -0.061,7.291 1.16199999,17.054 3.05299999,24.374 0.865,3.349 1.745,4.149 8.0640002,7.331 3.901,1.965 7.889,3.364 8.863,3.109 0.973,-0.254 3.05,0.381 4.614,1.413 3.463,2.283 12.195,2.533 16.196,0.465 4.988,-2.58 10.77,-9.81 11.501,-14.382 0.369,-2.307 1.138,-4.195 1.71,-4.195 2.083,0 4.179,7.279 3.594,12.482 -0.514,4.578 -0.333,5.187 2.063,6.946 2.594,1.903 2.669,1.903 5.947,0 1.827,-1.061 6.001,-4.178 9.276,-6.928 4.565,-3.832 6.282,-6.051 7.352,-9.5 l 1.397,-4.5 0.404,6.961 c 0.3,5.163 -0.048,7.966 -1.346,10.859 -4.062,9.048 -0.184,10.5 7.158,2.68 2.582,-2.75 5.161,-5 5.732,-5 1.23,0 3.36,-4.347 3.36,-6.856 0,-0.969 0.635,-2.63 1.409998,-3.69 1.317,-1.802 1.453,-1.666 2.064,2.059 1.059,6.461 2.326,8.772 4.499,8.204 1.353,-0.353 3.091,0.79 5.913,3.891 6.301,6.924 11.209,5.249 8.412,-2.87 -1.524,-4.422 -1.398,-11.752 0.202,-11.808 0.55,-0.02 1.156,0.776 1.347,1.767 0.191,0.992 1.34,2.928 2.553,4.303 1.213,1.375 3.486,4.42 5.051,6.767 1.565,2.347 4.551,5.809 6.635,7.692 6.746,6.094 16.714,7.255 13.139,1.53 -1.605,-2.571 -1.581,-2.663 0.87,-3.303 1.758,-0.46 1.986,-1.041 1.42,-3.617 -0.653,-2.975 -0.566,-3.069 2.875,-3.069 1.952,0 5.152,0.9 7.11,2 1.958,1.1 4.022,2 4.585,2 0.564,0 3.048,0.922 5.521,2.048 2.473,1.127 7.286,2.951 10.695,4.054 5.274,1.706 6.803,2.781 10.245,7.202 2.225,2.858 7.6,7.744 11.945,10.859 4.346,3.115 8.367,6.715 8.937,8 0.633,1.426 1.044,13.063 1.055,29.837 0.017,26.934 0.067,27.619 2.471,33.298 l 2.454,5.797 -1.637,25.203 c -2.053,31.606 -3.775,38.269 -12.384,47.917 -3.033,3.399 -7.552,8.89 -10.041,12.202 -2.489,3.311 -5.386,6.623 -6.436,7.359 -1.051,0.735 -1.91,2.409 -1.91,3.719 0,2.053 0.588,2.456 4.25,2.912 9.963,1.241 12.487,1.296 16.75,0.363 15.486,-3.39 16.319,-3.924 15.373,-9.842 -0.57,-3.56 -0.425,-3.928 1.549,-3.928 1.197,0 3.46,0.663 5.027,1.474 5.371,2.777 5.589,1.538 5.232,-29.649 -0.425,-37.02 0.918,-50.859 6.822,-70.325 1.001,-3.3 2.088,-9.946 2.416,-14.769 0.328,-4.823 1.717,-16.606 3.088,-26.185 1.371,-9.578 2.5,-18.907 2.508,-20.73 0.02,-4.331 0.808,-5.426 5.23,-7.274 l 3.675,-1.535 2.669,4.746 c 1.468,2.611 4.154,6.997 5.969,9.747 5.302,8.036 10.117,20.165 13.518,34.056 3.68,15.033 4.292,16.41 10.214,23.007 7.38,8.221 10.159,14.968 17.263,41.92 6.402,24.285 5.908,39.896 -1.782,56.388 -2.579,5.531 -3.575,8.725 -2.923,9.377 1.332,1.332 11.144,-1.791 15.331,-4.88 1.765,-1.302 3.596,-2.368 4.069,-2.368 0.472,0 2.41,-1.237 4.305,-2.75 3.658,-2.918 4.222,-5.036 2.204,-8.267 -1.744,-2.793 0.142,-5.456 3.955,-5.583 1.646,-0.055 3.558,-0.449 4.249,-0.876 1.844,-1.139 0.631,-6.964 -3.421,-16.431 -9.911,-23.156 -21.338,-60.956 -22.549,-74.593 -1.272,-14.322 -10.716,-56.655 -14.671,-65.76 -0.898,-2.068 -1.381,-4.013 -1.072,-4.321 0.308,-0.308 3.641,0.355 7.406,1.474 18.507,5.5 49.686,10.107 68.398,10.107 5.48,0 9.277,0.537 11.604,1.641 2.959,1.404 4.064,1.46 7.651,0.387 2.306,-0.689 5.318,-2.025 6.693,-2.969 1.375,-0.943 6.55,-3.877 11.5,-6.519 12.811,-6.84 16.992,-9.825 25.675,-18.328 l 7.676,-7.517 3.324,1.356 c 5.093,2.076 14.704,11.774 17.789,17.949 3.237,6.479 3.509,7.502 5.488,20.68 0.832,5.542 3.402,15.644 5.709,22.448 4.008,11.819 4.196,12.908 4.194,24.372 -0.003,18.201 -5.555,45.938 -14.947,74.676 l -4.543,13.901 -7.913,8.736 c -5.169,5.707 -9.826,9.768 -13.429,11.712 -3.034,1.636 -5.518,3.517 -5.52,4.18 -0.005,1.873 6.43,2.635 16.324,1.932 9.07,-0.643 13.673,-2.343 13.673,-5.049 0,-0.752 0.818,-2.376 1.817,-3.61 1.563,-1.93 2.129,-2.077 4.051,-1.049 1.836,0.983 2.785,0.873 5.328,-0.617 2.805,-1.642 3.308,-2.75 5.371,-11.812 4.831,-21.223 26.054,-94.629 28.982,-100.243 1.881,-3.605 1.837,-8.611 -0.11,-12.374 -3.17,-6.13 -0.657,-4.804 8.125,4.288 15.037,15.567 21.81,31.228 26.804,61.974 2.905,17.879 4.359,46.44 2.683,52.665 -1.65,6.127 -6.96,13.231 -13.051,17.459 -7.593,5.271 -7.562,6.414 0.193,7.192 6.748,0.677 20.454,-0.708 21.965,-2.219 0.503,-0.503 1.186,-2.676 1.517,-4.828 0.71,-4.612 2.025,-6.566 4.228,-6.282 4.139,0.533 9.317,-4.349 7.585,-7.152 -1.198,-1.938 -7.184,-78.98 -6.137,-78.98 0.666,0 5.649,10.561 5.649,11.971 0,1.56 2.026,2.252 3.359,1.146 0.976,-0.81 2.173,0.796 5.156,6.914 2.137,4.383 4.186,7.969 4.552,7.969 1.201,0 0.216,-10.417 -1.324,-14 -2.325,-5.413 -2.963,-8 -1.971,-8 0.499,0 1.481,1.238 2.182,2.75 1.272,2.743 1.277,2.744 2.128,0.5 1.084,-2.857 1.609,-2.824 6.349,0.397 2.86,1.943 3.728,2.209 3.264,1 -0.402,-1.046 -0.121,-1.647 0.769,-1.647 1.751,0 3.249,-4.262 1.682,-4.785 -0.616,-0.205 -1.934,-1.125 -2.93,-2.044 -0.996,-0.919 -1.227,-1.278 -0.513,-0.799 2.799,1.883 1.105,-1.369 -3.218,-6.177 -4.067,-4.524 -8.191,-11.822 -7.225,-12.788 0.207,-0.207 1.799,1.641 3.538,4.108 1.738,2.467 3.597,4.485 4.13,4.485 1.089,0 0.224,-2.244 -6.2,-16.071 -5.738,-12.352 -8.296,-20.446 -9.71,-30.726 -1.92,-13.956 -8.083,-34.586 -17.913,-59.962 -6.493,-16.762 -7.827,-23.213 -9.092,-43.974 -0.562,-9.222 -1.502,-23.067 -2.089,-30.767 -1.767,-23.189997 -6.437,-33.472997 -19.733,-43.449997 -9.531,-7.152 -15.617,-10.154 -33.191,-16.369 -24.251,-8.576 -24.995,-8.789 -34.138,-9.741 -4.751,-0.495 -12.851,-1.562 -18,-2.37 -21.78,-3.418 -62.984,-6.528 -86.862,-6.557 -11.865,-0.014 -12.83,-0.171 -19,-3.089 -3.574,-1.692 -10.099,-5.277 -14.5,-7.969 -8.91,-5.45 -14.214,-6.957 -41,-11.651 -14.784,-2.591 -17.592,-2.778 -36.948,-2.463 -19.061,0.31 -20.829,0.197 -19.627,-1.2499997 1.097,-1.323 1.089,-1.605 -0.053,-1.674 -0.754,-0.046 -2.497,-0.235 -3.872,-0.42 -1.375,-0.185 -3.874,0.083 -5.554,0.596 -1.68,0.513 -5.315,1.091 -8.079,1.285 -2.764,0.193 -6.241,1.1489997 -7.727,2.1219997 -1.486,0.974 -2.993,1.48 -3.348,1.125 -0.787,-0.787 1.948,-2.8929997 6.903,-5.3169997 3.58,-1.752 5.863,-5.308 3.408,-5.308 -2.793,0 -12.436,5.608 -16.716,9.7219997 -3.88,3.729 -4.718,4.161 -5.271,2.72 -0.62,-1.617 -0.765,-1.617 -2.546,-0.005 -1.791,1.621 -1.923,1.602 -2.547,-0.364 -0.836,-2.635 -2.553,-2.673 -3.233,-0.073 -0.674,2.575 -1.093,2.52 -3.433,-0.454 -1.996,-2.538 -5.427,-2.474 -4.446,0.083 0.949,2.474 -1.176,1.44 -5.416,-2.634 -4.004,-3.8469997 -5.995,-4.3639997 -5.995,-1.5579997 0,0.725 0.675,1.8779997 1.5,2.5629997 0.825,0.685 1.5,1.854 1.5,2.598 0,1.053 -0.592,1.127 -2.672,0.336 -3.44,-1.307 -5.328,-0.549 -5.328,2.142 0,1.513 -0.45,1.965 -1.538,1.548 -2.002,-0.768 -3.051,1.962 -1.481,3.854 1.034,1.245 0.293,1.436 -5.203,1.342 -4.177,-0.071 -7.255,0.422 -8.843,1.416 -1.339,0.839 -4.586,1.797 -7.215,2.129 -7.172,0.908 -14.563,4.431 -16.287,7.765 -1.65,3.191 -2.739,3.534 -13.682998,4.316 -4.263,0.305 -11.05,0.833 -15.082,1.175 -7.136,0.604 -7.391,0.546 -9.497,-2.131 -2.742,-3.486 -3.682,-7.112 -5.698,-21.99 -0.895,-6.5999997 -2.042,-12.4269997 -2.55,-12.9499997 -0.579,-0.596 -0.923,-0.503 -0.923,0.25 0,0.66 -0.45,1.2 -1,1.2 -0.55,0 -1,-0.873 -1,-1.941 0,-2.682 -1.705,-3.489 -2.825,-1.337 M 530.55318,150.00997 c -0.434,2.2 -2.13,7.15 -3.769,11 -6.891,16.188 -8.931,26.427 -7.699,38.646 0.811,8.047 2.778,12.685 10.227,24.114 5.274,8.092 8.465,11.165 7.256,6.99 -1.673,-5.779 -2.569,-19.424 -2.514,-38.25 0.07,-23.71 -2.074,-49.734 -3.501,-42.5"
     stroke="none"
     fill="#b1a6aa"
     fill-rule="evenodd"
     id="path1"
     style="fill:#ffffff;fill-opacity:1" />
</svg>
