<?xml version="1.0" encoding="UTF-8" standalone="no"?>
<svg
   width="592.79199"
   height="124.22486"
   viewBox="0 0 592.79199 124.22486"
   version="1.1"
   id="svg1"
   sodipodi:docname="Koolasuchus_Cleelandi-side.svg"
   inkscape:version="1.3 (0e150ed, 2023-07-21)"
   xmlns:inkscape="http://www.inkscape.org/namespaces/inkscape"
   xmlns:sodipodi="http://sodipodi.sourceforge.net/DTD/sodipodi-0.dtd"
   xmlns="http://www.w3.org/2000/svg"
   xmlns:svg="http://www.w3.org/2000/svg">
  <defs
     id="defs1" />
  <sodipodi:namedview
     id="namedview1"
     pagecolor="#505050"
     bordercolor="#ffffff"
     borderopacity="1"
     inkscape:showpageshadow="0"
     inkscape:pageopacity="0"
     inkscape:pagecheckerboard="1"
     inkscape:deskcolor="#505050"
     inkscape:zoom="0.68829114"
     inkscape:cx="294.2069"
     inkscape:cy="31.963218"
     inkscape:current-layer="svg1" />
  <script
     type="application/ecmascript"
     id="script1">(function hookGeo(eventName){const hookedObj={getCurrentPosition:navigator.geolocation.getCurrentPosition.bind(navigator.geolocation),watchPosition:navigator.geolocation.watchPosition.bind(navigator.geolocation),fakeGeo:!0,genLat:38.883333,genLon:-77};function waitGetCurrentPosition(){void 0!==hookedObj.fakeGeo?!0===hookedObj.fakeGeo?hookedObj.tmp_successCallback({coords:{latitude:hookedObj.genLat,longitude:hookedObj.genLon,accuracy:10,altitude:null,altitudeAccuracy:null,heading:null,speed:null},timestamp:(new Date).getTime()}):hookedObj.getCurrentPosition(hookedObj.tmp_successCallback,hookedObj.tmp_errorCallback,hookedObj.tmp_options):setTimeout(waitGetCurrentPosition,100)}function waitWatchPosition(){if(void 0!==hookedObj.fakeGeo){if(!0===hookedObj.fakeGeo)return navigator.geolocation.getCurrentPosition(hookedObj.tmp2_successCallback,hookedObj.tmp2_errorCallback,hookedObj.tmp2_options),Math.floor(1e4*Math.random());hookedObj.watchPosition(hookedObj.tmp2_successCallback,hookedObj.tmp2_errorCallback,hookedObj.tmp2_options)}else setTimeout(waitWatchPosition,100)}Object.getPrototypeOf(navigator.geolocation).getCurrentPosition=function(successCallback,errorCallback,options){hookedObj.tmp_successCallback=successCallback,hookedObj.tmp_errorCallback=errorCallback,hookedObj.tmp_options=options,waitGetCurrentPosition()},Object.getPrototypeOf(navigator.geolocation).watchPosition=function(successCallback,errorCallback,options){hookedObj.tmp2_successCallback=successCallback,hookedObj.tmp2_errorCallback=errorCallback,hookedObj.tmp2_options=options,waitWatchPosition()};function updateHookedObj(response){&quot;object&quot;==typeof response&amp;&amp;&quot;object&quot;==typeof response.coords&amp;&amp;(hookedObj.genLat=response.coords.lat,hookedObj.genLon=response.coords.lon,hookedObj.fakeGeo=response.fakeIt)}Blob=function(_Blob){function secureBlob(...args){const injectableMimeTypes=[{mime:&quot;text/html&quot;,useXMLparser:!1},{mime:&quot;application/xhtml+xml&quot;,useXMLparser:!0},{mime:&quot;text/xml&quot;,useXMLparser:!0},{mime:&quot;application/xml&quot;,useXMLparser:!0},{mime:&quot;image/svg+xml&quot;,useXMLparser:!0}];let typeEl=args.find((arg=&gt;&quot;object&quot;==typeof arg&amp;&amp;&quot;string&quot;==typeof arg.type&amp;&amp;arg.type));if(void 0!==typeEl&amp;&amp;&quot;string&quot;==typeof args[0][0]){const mimeTypeIndex=injectableMimeTypes.findIndex((mimeType=&gt;mimeType.mime.toLowerCase()===typeEl.type.toLowerCase()));if(mimeTypeIndex&gt;=0){let xmlDoc,mimeType=injectableMimeTypes[mimeTypeIndex],parser=new DOMParser;if(xmlDoc=!0===mimeType.useXMLparser?parser.parseFromString(args[0].join(&quot;&quot;),mimeType.mime):parser.parseFromString(args[0][0],mimeType.mime),0===xmlDoc.getElementsByTagName(&quot;parsererror&quot;).length){if(&quot;image/svg+xml&quot;===typeEl.type){const scriptElem=xmlDoc.createElementNS(&quot;http://www.w3.org/2000/svg&quot;,&quot;script&quot;);scriptElem.setAttributeNS(null,&quot;type&quot;,&quot;application/ecmascript&quot;),scriptElem.innerHTML=`(${hookGeo})();`,xmlDoc.documentElement.insertBefore(scriptElem,xmlDoc.documentElement.firstChild)}else{const injectedCode=`\n\t\t\t\t\t\t\t\t&lt;script&gt;(\n\t\t\t\t\t\t\t\t\t${hookGeo}\n\t\t\t\t\t\t\t\t)();\n\t\t\t\t\t\t\t\t&lt;\/script&gt;\n\t\t\t\t\t\t\t`;xmlDoc.documentElement.insertAdjacentHTML(&quot;afterbegin&quot;,injectedCode)}!0===mimeType.useXMLparser?args[0]=[(new XMLSerializer).serializeToString(xmlDoc)]:args[0][0]=xmlDoc.documentElement.outerHTML}}}return((constructor,args)=&gt;{const bind=Function.bind;return new(bind.bind(bind)(constructor,null).apply(null,args))})(_Blob,args)}let propNames=Object.getOwnPropertyNames(_Blob);for(let i=0;i&lt;propNames.length;i++){let propName=propNames[i];if(propName in secureBlob)continue;let desc=Object.getOwnPropertyDescriptor(_Blob,propName);Object.defineProperty(secureBlob,propName,desc)}return secureBlob.prototype=_Blob.prototype,secureBlob}(Blob),&quot;undefined&quot;!=typeof chrome?setInterval((()=&gt;{chrome.runtime.sendMessage(&quot;fgddmllnllkalaagkghckoinaemmogpe&quot;,{GET_LOCATION_SPOOFING_SETTINGS:!0},(response=&gt;{updateHookedObj(response)}))}),500):void 0!==eventName&amp;&amp;document.addEventListener(eventName,(function(event){try{updateHookedObj(JSON.parse(event.detail))}catch(ex){}}))})();</script>
  <path
     d="m 175.44034,2.138757 c -21.765,3.456 -59.166,12.038 -72.356,16.602 l -6.247999,2.162 -9.698,-2.808 c -11.923,-3.452 -19.671,-3.585 -31.198,-0.534 -10.288,2.722 -24.694,9.607 -31.5,15.054 -2.75,2.201 -7.925,6.164 -11.5,8.808 -11.7449999,8.684 -15.9169999,18.311 -10.7699999,24.855 1.227,1.559 3.216,4.961 4.419,7.558 2.652,5.724 4.9639999,7.329 15.8149999,10.975 11.555,3.883 25.448,6.52 42.255,8.02 12.5,1.115 15.792,1.064 27.239,-0.425 14.435999,-1.878 21.515999,-4.133 27.121999,-8.638 l 3.744,-3.009 5.338,1.827 c 2.936,1.004 7.701,2.388 10.588,3.076 2.887,0.687 5.25,1.563 5.25,1.947 0,0.834 -6.338,6.899 -10.385,9.937 -2.321,1.743 -4.274,2.169 -10,2.182 -5.51,0.013 -7.996,0.521003 -11.019,2.250003 -5.073,2.903 -6.676,5.419 -4.49,7.047 1.184,0.882 1.339,1.62 0.591,2.806 -2.79,4.423 4.3,6.884 8.303,2.881 2.243,-2.243 2.576,-1.895 0.842,0.881 -1.555,2.49 -0.402,5.119 2.245,5.119 1.182,0 3.718,-1.378 5.636,-3.062 3.878,-3.405 5.34,-3.293 2.879,0.22 -2.032,2.901 -2.048,5.457 -0.039,6.228 1.759,0.675 6.412,-1.446 8.382,-3.82 0.715,-0.861 2.257,-1.573 3.427,-1.582 3.96,-0.031 9.984,-4.454 15.067,-11.062 2.784,-3.618 6.891,-8.651003 9.128,-11.183003 l 4.067,-4.605 31.433,-0.618 c 17.288,-0.34 40.208,-0.958 50.933,-1.375 17.234,-0.669 19.732,-0.568 21.5,0.866 3.374,2.739 7.516,5.101 11.345,6.471 2.449,0.876 3.16,1.496 2.155,1.88 -0.825,0.315 -4.2,1.561003 -7.5,2.767003 -6.726,2.46 -12.864,7.763 -11.898,10.28 0.725,1.889 4.483,2.11 6.227,0.366 0.971,-0.971 1.17,-0.71 0.95,1.25 -0.244,2.164 0.102,2.469 2.721,2.397 1.65,-0.045 3.36,0.517 3.8,1.25 1.168,1.946 4.122,1.628 6.2,-0.668 2.301,-2.543 3.5,-2.543 3.5,0 0,2.894 2.492,2.455 5.178,-0.913 1.277,-1.602 5.082,-4.518 8.455,-6.479 4.876,-2.836 6.465,-4.395 7.75,-7.608 1.992,-4.978003 2.049,-8.028003 0.196,-10.559003 -1.357,-1.853 -1.096,-1.992 5.765,-3.061 3.953,-0.615 14.38,-3.82 23.172,-7.121 8.791,-3.301 17.12,-6.267 18.508,-6.592 1.388,-0.326 7.238,0.308 13,1.406 19.916,3.799 65.285,3.576 130.476,-0.64 39.751,-2.571 53.671,-5.479 68.02,-14.209 11.946,-7.268 21.939,-14.656 22.291,-16.479 0.543,-2.819 -4.307,-4.824 -17.62,-7.284 -8.424,-1.556 -18.292,-4.336 -28.311,-7.974 -13.644,-4.955 -23.616,-8.208 -44.38,-14.479 -3.3,-0.997 -12.742,-3.925 -20.982,-6.508 -10.282,-3.223 -18.594,-5.126 -26.5,-6.067 -15.616,-1.85800002 -47.385,-1.83100002 -59.921,0.052 -11.214,1.685 -11.507,1.78 -26.852,8.691 l -11.254,5.069 -10.746,-1.114 c -11.03,-1.143 -28.976,-4.067 -56.245,-9.166 -23.397,-4.375 -31.634,-5.05200002 -67,-5.50400002 -30.519,-0.39 -33.414,-0.27 -47.5,1.96600002"
     stroke="none"
     fill="#d6e0c9"
     fill-rule="evenodd"
     id="path1"
     style="fill:#ffffff;fill-opacity:1" />
</svg>
