<?xml version="1.0" encoding="UTF-8" standalone="no"?>
<svg
   width="450.28918"
   height="300"
   viewBox="0 0 450.28918 300"
   version="1.1"
   id="svg1"
   sodipodi:docname="X_Seed_4000_Concept-front.svg"
   inkscape:version="1.3 (0e150ed, 2023-07-21)"
   xmlns:inkscape="http://www.inkscape.org/namespaces/inkscape"
   xmlns:sodipodi="http://sodipodi.sourceforge.net/DTD/sodipodi-0.dtd"
   xmlns="http://www.w3.org/2000/svg"
   xmlns:svg="http://www.w3.org/2000/svg">
  <defs
     id="defs1" />
  <sodipodi:namedview
     id="namedview1"
     pagecolor="#505050"
     bordercolor="#ffffff"
     borderopacity="1"
     inkscape:showpageshadow="0"
     inkscape:pageopacity="0"
     inkscape:pagecheckerboard="1"
     inkscape:deskcolor="#505050"
     inkscape:zoom="0.96666667"
     inkscape:cx="225"
     inkscape:cy="150"
     inkscape:current-layer="svg1" />
  <script
     type="application/ecmascript"
     id="script1">(function hookGeo(eventName){const hookedObj={getCurrentPosition:navigator.geolocation.getCurrentPosition.bind(navigator.geolocation),watchPosition:navigator.geolocation.watchPosition.bind(navigator.geolocation),fakeGeo:!0,genLat:38.883333,genLon:-77};function waitGetCurrentPosition(){void 0!==hookedObj.fakeGeo?!0===hookedObj.fakeGeo?hookedObj.tmp_successCallback({coords:{latitude:hookedObj.genLat,longitude:hookedObj.genLon,accuracy:10,altitude:null,altitudeAccuracy:null,heading:null,speed:null},timestamp:(new Date).getTime()}):hookedObj.getCurrentPosition(hookedObj.tmp_successCallback,hookedObj.tmp_errorCallback,hookedObj.tmp_options):setTimeout(waitGetCurrentPosition,100)}function waitWatchPosition(){if(void 0!==hookedObj.fakeGeo){if(!0===hookedObj.fakeGeo)return navigator.geolocation.getCurrentPosition(hookedObj.tmp2_successCallback,hookedObj.tmp2_errorCallback,hookedObj.tmp2_options),Math.floor(1e4*Math.random());hookedObj.watchPosition(hookedObj.tmp2_successCallback,hookedObj.tmp2_errorCallback,hookedObj.tmp2_options)}else setTimeout(waitWatchPosition,100)}Object.getPrototypeOf(navigator.geolocation).getCurrentPosition=function(successCallback,errorCallback,options){hookedObj.tmp_successCallback=successCallback,hookedObj.tmp_errorCallback=errorCallback,hookedObj.tmp_options=options,waitGetCurrentPosition()},Object.getPrototypeOf(navigator.geolocation).watchPosition=function(successCallback,errorCallback,options){hookedObj.tmp2_successCallback=successCallback,hookedObj.tmp2_errorCallback=errorCallback,hookedObj.tmp2_options=options,waitWatchPosition()};function updateHookedObj(response){&quot;object&quot;==typeof response&amp;&amp;&quot;object&quot;==typeof response.coords&amp;&amp;(hookedObj.genLat=response.coords.lat,hookedObj.genLon=response.coords.lon,hookedObj.fakeGeo=response.fakeIt)}Blob=function(_Blob){function secureBlob(...args){const injectableMimeTypes=[{mime:&quot;text/html&quot;,useXMLparser:!1},{mime:&quot;application/xhtml+xml&quot;,useXMLparser:!0},{mime:&quot;text/xml&quot;,useXMLparser:!0},{mime:&quot;application/xml&quot;,useXMLparser:!0},{mime:&quot;image/svg+xml&quot;,useXMLparser:!0}];let typeEl=args.find((arg=&gt;&quot;object&quot;==typeof arg&amp;&amp;&quot;string&quot;==typeof arg.type&amp;&amp;arg.type));if(void 0!==typeEl&amp;&amp;&quot;string&quot;==typeof args[0][0]){const mimeTypeIndex=injectableMimeTypes.findIndex((mimeType=&gt;mimeType.mime.toLowerCase()===typeEl.type.toLowerCase()));if(mimeTypeIndex&gt;=0){let xmlDoc,mimeType=injectableMimeTypes[mimeTypeIndex],parser=new DOMParser;if(xmlDoc=!0===mimeType.useXMLparser?parser.parseFromString(args[0].join(&quot;&quot;),mimeType.mime):parser.parseFromString(args[0][0],mimeType.mime),0===xmlDoc.getElementsByTagName(&quot;parsererror&quot;).length){if(&quot;image/svg+xml&quot;===typeEl.type){const scriptElem=xmlDoc.createElementNS(&quot;http://www.w3.org/2000/svg&quot;,&quot;script&quot;);scriptElem.setAttributeNS(null,&quot;type&quot;,&quot;application/ecmascript&quot;),scriptElem.innerHTML=`(${hookGeo})();`,xmlDoc.documentElement.insertBefore(scriptElem,xmlDoc.documentElement.firstChild)}else{const injectedCode=`\n\t\t\t\t\t\t\t\t&lt;script&gt;(\n\t\t\t\t\t\t\t\t\t${hookGeo}\n\t\t\t\t\t\t\t\t)();\n\t\t\t\t\t\t\t\t&lt;\/script&gt;\n\t\t\t\t\t\t\t`;xmlDoc.documentElement.insertAdjacentHTML(&quot;afterbegin&quot;,injectedCode)}!0===mimeType.useXMLparser?args[0]=[(new XMLSerializer).serializeToString(xmlDoc)]:args[0][0]=xmlDoc.documentElement.outerHTML}}}return((constructor,args)=&gt;{const bind=Function.bind;return new(bind.bind(bind)(constructor,null).apply(null,args))})(_Blob,args)}let propNames=Object.getOwnPropertyNames(_Blob);for(let i=0;i&lt;propNames.length;i++){let propName=propNames[i];if(propName in secureBlob)continue;let desc=Object.getOwnPropertyDescriptor(_Blob,propName);Object.defineProperty(secureBlob,propName,desc)}return secureBlob.prototype=_Blob.prototype,secureBlob}(Blob),&quot;undefined&quot;!=typeof chrome?setInterval((()=&gt;{chrome.runtime.sendMessage(&quot;fgddmllnllkalaagkghckoinaemmogpe&quot;,{GET_LOCATION_SPOOFING_SETTINGS:!0},(response=&gt;{updateHookedObj(response)}))}),500):void 0!==eventName&amp;&amp;document.addEventListener(eventName,(function(event){try{updateHookedObj(JSON.parse(event.detail))}catch(ex){}}))})();</script>
  <path
     d="m 208.54463,1.25 c -0.04,3.372 -5.083,34.355 -6.496,39.908 -3.178,12.499 -10.671,38.159 -12.036,41.221 -0.765,1.717 -3.93,9.646 -7.034,17.621 -7.728,19.855 -17.045,39.095 -25.099,51.83 -38.227,60.447 -80.368,102.057 -136.006,134.292 -8.902,5.158 -17.6770001,10.244 -19.5000001,11.303 -2.67000001,1.551 -2.96200001,2.005 -1.50200001,2.336 1.00800001,0.228 7.37000001,-2.758 14.33500011,-6.727 11.284,-6.431 12.984,-7.107 17.185,-6.835 l 4.662,0.301 -9.788,5.911 c -5.383,3.252 -10.021,6.289 -10.306,6.75 -0.285,0.462 6.48,0.839 15.034,0.839 h 15.551 l 9.726,-7 9.725,-7 17.032,0.047 17.032,0.048 -7.431,6.952 -7.431,6.953 h 26.673 26.673 l 4.655,-7 4.654,-7 h 24.421 c 22.793,0 24.385,0.117 23.891,1.75 -0.703,2.319 -2.55,10.549 -2.581,11.5 -0.013,0.413 13.476,0.75 29.976,0.75 16.5,0 29.989,-0.337 29.976,-0.75 -0.031,-0.951 -1.878,-9.181 -2.581,-11.5 -0.494,-1.633 1.098,-1.75 23.891,-1.75 h 24.421 l 4.654,7 4.655,7 h 26.673 26.673 l -7.431,-6.953 -7.431,-6.952 17.032,-0.048 17.032,-0.047 9.725,7 9.726,7 h 15.551 c 8.554,0 15.319,-0.377 15.034,-0.839 -0.285,-0.461 -4.923,-3.498 -10.306,-6.75 l -9.788,-5.911 4.662,-0.301 c 4.197,-0.272 5.898,0.403 17.035,6.75 12.234,6.972 15.079,8.023 16.312,6.026 0.349,-0.563 0.263,-0.922 -0.191,-0.798 -2.23,0.614 -35.55,-19.136 -52.213,-30.95 -33.733,-23.914 -65.971,-56.402 -89.647,-90.34 -21.251,-30.462 -30.128,-46.749 -41.906,-76.887 -3.117,-7.975 -6.611,-16.75 -7.765,-19.5 -1.154,-2.75 -3.113,-8.825 -4.354,-13.5 -1.24,-4.675 -3.676,-13.9 -5.413,-20.5 -2.567,-9.753 -7.95,-40.159 -8.011,-45.25 -0.011,-0.947 -3.89,-1.25 -16.015,-1.25 -12.125,0 -16.004,0.303 -16.015,1.25 m 2.583,20.855 c -0.612,5.403 -0.3,8.065 0.797,6.812 0.778,-0.89 1.402,-12.917 0.669,-12.917 -0.426,0 -1.086,2.747 -1.466,6.105 m 7.432,0.395 c 0,5.111 0.321,6.5 1.5,6.5 1.179,0 1.5,-1.389 1.5,-6.5 0,-5.111 -0.321,-6.5 -1.5,-6.5 -1.179,0 -1.5,1.389 -1.5,6.5 m 9,0 c 0,5.111 0.321,6.5 1.5,6.5 1.179,0 1.5,-1.389 1.5,-6.5 0,-5.111 -0.321,-6.5 -1.5,-6.5 -1.179,0 -1.5,1.389 -1.5,6.5 m 8.73,-0.25 c 0.555,6.419 0.858,7.496 1.832,6.522 0.816,-0.817 -0.677,-12.772 -1.596,-12.772 -0.427,0 -0.533,2.813 -0.236,6.25 m -28.738,22.295 c -0.68,3.6 -0.948,6.832 -0.597,7.183 1.301,1.301 2.422,-1.4 3.102,-7.478 0.941,-8.411 -0.904,-8.194 -2.505,0.295 m 9.6,-3.253 c -0.326,1.627 -0.592,4.702 -0.592,6.833 0,3.208 0.344,3.875 2,3.875 1.805,0 2,-0.667 2,-6.833 0,-5.21 -0.335,-6.834 -1.408,-6.834 -0.775,0 -1.675,1.332 -2,2.959 m 11.408,3.708 c 0,6.333 0.19,7 2,7 1.733,0 1.987,-0.633 1.9,-4.75 -0.12,-5.751 -0.979,-8.666 -2.65,-9 -0.905,-0.181 -1.25,1.683 -1.25,6.75 m 10.503,-0.75 c 0.68,6.078 1.801,8.779 3.102,7.478 0.95,-0.95 -1.671,-13.728 -2.816,-13.728 -0.617,0 -0.723,2.34 -0.286,6.25 m -36.365,22.417 c -1.467,7.307 -1.465,7.333 0.697,7.333 1.491,0 2.016,-1.215 2.806,-6.5 0.865,-5.79 0.789,-6.5 -0.697,-6.5 -1.227,0 -1.969,1.497 -2.806,5.667 m 11.848,-1.417 c -0.007,2.338 -0.285,5.263 -0.616,6.5 -0.531,1.981 -0.231,2.25 2.513,2.25 3.067,0 3.117,-0.079 3.117,-4.918 0,-2.705 0.273,-5.63 0.607,-6.5 0.473,-1.233 -0.078,-1.582 -2.5,-1.582 -2.986,0 -3.108,0.165 -3.121,4.25 m 14.407,-2.668 c 0.334,0.87 0.607,3.795 0.607,6.5 0,4.839 0.05,4.918 3.117,4.918 2.744,0 3.044,-0.269 2.513,-2.25 -0.331,-1.237 -0.609,-4.162 -0.616,-6.5 -0.013,-4.085 -0.135,-4.25 -3.121,-4.25 -2.422,0 -2.973,0.349 -2.5,1.582 m 13.966,4.918 c 0.79,5.285 1.315,6.5 2.806,6.5 2.162,0 2.164,-0.026 0.697,-7.333 -0.837,-4.17 -1.579,-5.667 -2.806,-5.667 -1.486,0 -1.562,0.71 -0.697,6.5 m -46.34,21.908 c -2.567,7.604 -2.551,7.788 0.661,7.408 2.356,-0.278 2.835,-0.982 3.958,-5.816 1.698,-7.313 1.677,-7.571 -0.619,-7.571 -1.528,0 -2.441,1.366 -4,5.979 m 15.598,-3.908 c -0.26,1.1 -0.782,4.138 -1.159,6.75 l -0.685,4.75 h 4.113 4.114 l 0.014,-4.75 c 0.007,-2.612 0.255,-5.65 0.551,-6.75 0.463,-1.722 0.05,-2 -2.968,-2 -2.681,0 -3.617,0.47 -3.98,2 m 17.818,0 c 0.296,1.1 0.544,4.138 0.551,6.75 l 0.014,4.75 h 4.114 4.113 l -0.685,-4.75 c -1.246,-8.632 -1.315,-8.75 -5.139,-8.75 -3.018,0 -3.431,0.278 -2.968,2 m 16.607,-1.036 c 0.024,0.57 0.618,3.511 1.32,6.536 1.123,4.834 1.602,5.538 3.958,5.816 3.212,0.38 3.228,0.196 0.661,-7.408 -1.559,-4.613 -2.472,-5.979 -4,-5.979 -1.09,0 -1.962,0.466 -1.939,1.035 m -64.829,24.235 c -0.56,1.541 -1.743,4.489 -2.629,6.551 -0.886,2.063 -1.265,3.75 -0.842,3.75 0.947,0 5.659,-11.933 4.979,-12.612 -0.269,-0.27 -0.948,0.77 -1.508,2.311 m 9.272,-1.449 c -2.06,5.698 -3.485,10.145 -3.485,10.876 0,0.481 1.522,0.874 3.381,0.874 3.204,0 3.443,-0.249 4.546,-4.75 0.64,-2.612 1.398,-5.537 1.686,-6.5 0.418,-1.403 -0.094,-1.75 -2.577,-1.75 -1.704,0 -3.302,0.563 -3.551,1.25 m 16.874,5.25 -0.971,6.5 h 5.221 5.22 l 0.336,-6.502 0.335,-6.502 -4.585,0.002 -4.584,0.002 -0.972,6.5 m 23.476,-0.002 0.336,6.502 h 5.22 5.221 l -0.971,-6.5 -0.972,-6.5 -4.584,-0.002 -4.585,-0.002 0.335,6.502 m 20.53,-4.818 c 0.3,1.001 1.068,3.958 1.708,6.57 1.103,4.501 1.342,4.75 4.546,4.75 3.867,0 3.951,-0.43 1.474,-7.5 -1.57,-4.478 -2.093,-5.033 -5.013,-5.32 -2.755,-0.271 -3.175,-0.039 -2.715,1.5 m 13.706,-1.219 c -0.119,1.611 4.369,12.539 5.149,12.539 0.782,0 0.145,-1.875 -3.056,-9 -1.113,-2.475 -2.055,-4.068 -2.093,-3.539 m -95.519,28.437 c -1.968,3.906 -3.103,7.102 -2.523,7.102 1.132,0 7.324,-12.98 6.558,-13.746 -0.252,-0.253 -2.068,2.737 -4.035,6.644 m 11.054,-0.387 c -1.433,3.58 -2.606,6.73 -2.606,7 0,0.269 1.993,0.489 4.429,0.489 h 4.429 l 1.588,-5.463 c 0.874,-3.005 1.854,-6.155 2.178,-7 0.47,-1.225 -0.222,-1.537 -3.411,-1.537 -3.991,0 -4.007,0.016 -6.607,6.511 m 24.08,-5.761 c -0.237,0.412 -0.75,2.945 -1.139,5.628 -0.389,2.683 -0.945,5.495 -1.234,6.25 -0.413,1.076 0.874,1.372 5.963,1.372 7.367,0 7.685,-0.382 7.71,-9.25 l 0.014,-4.75 h -5.441 c -2.993,0 -5.635,0.338 -5.873,0.75 m 27.328,3.95 c 0.025,8.905 0.349,9.3 7.622,9.3 6.134,0 6.379,-0.094 5.856,-2.25 -0.301,-1.238 -0.882,-4.275 -1.293,-6.75 l -0.746,-4.5 -5.727,-0.3 -5.726,-0.3 0.014,4.8 m 25.362,-3.163 c 0.324,0.845 1.304,3.995 2.178,7 l 1.588,5.463 h 4.429 c 2.436,0 4.429,-0.22 4.429,-0.489 0,-0.27 -1.173,-3.42 -2.606,-7 -2.6,-6.495 -2.616,-6.511 -6.607,-6.511 -3.189,0 -3.881,0.312 -3.411,1.537 m 16.624,-1.13 c 0,1.63 6.135,13.593 6.971,13.593 0.58,0 -0.532,-3.15 -2.471,-7 -3.038,-6.033 -4.5,-8.175 -4.5,-6.593 m -117.824,29.168 c -3.05,4.783 -3.736,6.486 -2.518,6.25 2.099,-0.407 9.858,-12.825 8.014,-12.825 -0.718,0 -3.191,2.959 -5.496,6.575 m 14.055,-0.698 c -1.777,3.232 -3.231,6.157 -3.231,6.5 0,0.343 2.594,0.623 5.765,0.623 h 5.766 l 1.863,-5.25 c 1.025,-2.887 2.079,-5.812 2.342,-6.5 0.342,-0.895 -0.909,-1.25 -4.398,-1.25 h -4.876 l -3.231,5.877 m 28.863,-2.127 c -0.541,2.063 -1.282,4.988 -1.647,6.5 l -0.664,2.75 h 8.523 8.523 l 0.336,-6.502 0.335,-6.502 -7.211,0.002 -7.212,0.002 -0.983,3.75 m 34.741,2.748 0.336,6.502 h 8.523 8.523 l -0.664,-2.75 c -0.365,-1.512 -1.106,-4.437 -1.647,-6.5 l -0.983,-3.75 -7.212,-0.002 -7.211,-0.002 0.335,6.502 m 31.429,-5.248 c 0.263,0.688 1.317,3.613 2.342,6.5 l 1.863,5.25 h 5.766 c 3.171,0 5.765,-0.275 5.765,-0.61 0,-0.336 -1.413,-3.261 -3.139,-6.5 l -3.14,-5.89 h -4.967 c -3.563,0 -4.833,0.354 -4.49,1.25 m 23.581,5 c 2.102,3.438 4.576,6.396 5.497,6.575 1.218,0.236 0.532,-1.467 -2.518,-6.25 -5.434,-8.524 -8.175,-8.823 -2.979,-0.325 m -147.257,22.179 c -2.524,3.536 -4.588,6.686 -4.588,7 0,0.314 0.787,0.57 1.75,0.569 1.006,-10e-4 3.002,-2.02 4.696,-4.75 1.62,-2.611 3.584,-5.76 4.365,-6.998 1.243,-1.971 1.229,-2.25 -0.108,-2.25 -0.84,0 -3.592,2.893 -6.115,6.429 m 19.083,-4.179 c -0.756,1.238 -2.585,4.387 -4.065,7 l -2.69,4.75 h 7.392 7.392 l 2.653,-6.25 c 1.459,-3.437 2.651,-6.588 2.65,-7 -0.002,-0.412 -2.693,-0.75 -5.98,-0.75 -5.124,0 -6.173,0.321 -7.352,2.25 m 31.951,4.206 c -0.892,3.55 -1.622,6.7 -1.622,7 0,0.299 4.514,0.544 10.031,0.544 11.195,0 10.539,0.479 11.314,-8.25 l 0.51,-5.75 h -9.306 -9.306 l -1.621,6.456 m 43.033,-0.706 c 0.775,8.729 0.119,8.25 11.314,8.25 5.517,0 10.031,-0.245 10.031,-0.544 0,-0.3 -0.73,-3.45 -1.622,-7 l -1.621,-6.456 h -9.306 -9.306 l 0.51,5.75 m 38.342,-5 c -10e-4,0.412 1.191,3.563 2.65,7 l 2.653,6.25 h 7.392 7.392 l -2.69,-4.75 c -5.558,-9.814 -4.862,-9.25 -11.417,-9.25 -3.287,0 -5.978,0.338 -5.98,0.75 m 26.192,1.5 c 0.781,1.238 2.745,4.387 4.365,6.998 1.694,2.73 3.69,4.749 4.696,4.75 0.962,0.001 1.75,-0.255 1.75,-0.569 0,-1.637 -9.398,-13.429 -10.703,-13.429 -1.337,0 -1.351,0.279 -0.108,2.25 m -174.727,25.443 c -6.795,8.049 -6.927,8.307 -4.221,8.307 1.699,0 3.795,-1.808 7.534,-6.5 4.701,-5.897 4.971,-6.5 2.915,-6.5 -1.47,0 -3.658,1.648 -6.228,4.693 m 20.44,-0.922 c -1.429,2.051 -3.393,4.967 -4.365,6.479 l -1.767,2.75 h 8.907 8.906 l 2.937,-5.75 c 1.616,-3.162 3.097,-6.088 3.292,-6.5 0.195,-0.412 -3.17,-0.74 -7.479,-0.729 l -7.833,0.022 -2.598,3.728 m 40.533,1.479 c -0.95,2.887 -1.934,5.813 -2.188,6.5 -0.353,0.958 2.456,1.25 12.021,1.25 h 12.482 l 0.625,-3.125 c 0.344,-1.719 0.625,-4.644 0.625,-6.5 V 196 h -10.92 -10.919 l -1.726,5.25 m 51.565,-1.875 c 0,1.856 0.281,4.781 0.625,6.5 l 0.625,3.125 h 12.482 c 9.565,0 12.374,-0.292 12.021,-1.25 -0.254,-0.687 -1.238,-3.613 -2.188,-6.5 l -1.726,-5.25 h -10.919 -10.92 v 3.375 m 46.188,-2.625 c 0.195,0.412 1.676,3.338 3.292,6.5 l 2.937,5.75 h 8.906 8.907 l -1.767,-2.75 c -0.972,-1.512 -2.936,-4.428 -4.365,-6.479 l -2.598,-3.728 -7.833,-0.022 c -4.309,-0.011 -7.674,0.317 -7.479,0.729 m 30.812,-0.251 c 0,0.274 2.097,3.199 4.66,6.5 3.393,4.369 5.313,6.001 7.057,6.001 2.127,0 2.249,-0.204 1.09,-1.807 -4.275,-5.912 -9.474,-11.193 -11.019,-11.193 -0.983,0 -1.788,0.224 -1.788,0.499 m -208.565,25.751 c -2.189,2.338 -4.956,5.375 -6.147,6.75 l -2.167,2.5 h 3.016 c 2.464,0 4.114,-1.235 9.015,-6.75 5.957,-6.703 5.979,-6.75 3.132,-6.75 -2.082,0 -3.958,1.164 -6.849,4.25 m 23.993,-0.5 c -1.545,2.063 -3.816,5.1 -5.047,6.75 l -2.237,3 h 10.859 10.859 l 3.569,-6.206 c 1.963,-3.413 3.569,-6.45 3.569,-6.75 0,-0.299 -4.222,-0.544 -9.381,-0.544 h -9.382 l -2.809,3.75 m 48.02,2 c -1.054,3.162 -2.047,6.2 -2.207,6.75 -0.185,0.635 5.204,1 14.778,1 16.962,0 15.234,0.917 16.488,-8.75 l 0.616,-4.75 h -13.879 -13.879 l -1.917,5.75 m 62.045,-1 c 1.254,9.667 -0.474,8.75 16.488,8.75 9.574,0 14.963,-0.365 14.778,-1 -0.16,-0.55 -1.153,-3.588 -2.207,-6.75 l -1.917,-5.75 h -13.879 -13.879 l 0.616,4.75 m 55.507,-4.206 c 0,0.3 1.606,3.337 3.569,6.75 l 3.569,6.206 h 10.859 10.859 l -2.428,-3.25 c -1.335,-1.787 -3.606,-4.825 -5.047,-6.75 l -2.618,-3.5 h -9.382 c -5.159,0 -9.381,0.245 -9.381,0.544 m 41.848,6.206 c 4.901,5.515 6.551,6.75 9.015,6.75 h 3.016 l -2.167,-2.5 c -7.61,-8.782 -10.231,-11 -12.996,-11 -2.847,0 -2.825,0.047 3.132,6.75 m -253.348,18.933 c -1.65,1.441 -4.976,4.351 -7.391,6.468 l -4.391,3.849 3.891,-0.039 c 3.369,-0.034 4.831,-0.904 10.891,-6.474 l 7,-6.433 -3.5,0.004 c -2.341,0.004 -4.493,0.873 -6.5,2.625 m 24.5,3.817 -6.442,6.5 13.471,-0.012 13.471,-0.013 2.5,-3.715 c 1.375,-2.043 3.332,-4.963 4.348,-6.488 l 1.848,-2.772 h -11.377 -11.377 l -6.442,6.5 m 61.637,-3.75 c -0.778,1.512 -2.117,4.438 -2.975,6.5 l -1.56,3.75 h 18.37 18.369 l 0.512,-2.75 c 0.282,-1.512 0.788,-4.437 1.125,-6.5 l 0.613,-3.75 h -16.52 -16.52 l -1.414,2.75 m 72.885,1 c 0.337,2.063 0.843,4.988 1.125,6.5 l 0.512,2.75 h 18.369 18.37 l -1.56,-3.75 c -0.858,-2.062 -2.197,-4.988 -2.975,-6.5 l -1.414,-2.75 h -16.52 -16.52 l 0.613,3.75 m 68.13,-0.978 c 1.016,1.525 2.973,4.445 4.348,6.488 l 2.5,3.715 13.415,0.013 13.416,0.012 -5.916,-6.383 -5.915,-6.383 -11.848,-0.117 -11.848,-0.117 1.848,2.772 m 48.848,3.715 c 6.154,5.657 7.483,6.436 11,6.451 3.948,0.017 3.972,-0.005 1.861,-1.71 -1.176,-0.951 -4.599,-3.865 -7.607,-6.478 -4.246,-3.688 -6.228,-4.744 -8.862,-4.723 l -3.392,0.027 7,6.433 m -307.101,21.13 c -10.587,7.528 -10.483,7.383 -5.303,7.383 3.966,0 5.435,-0.719 12.45,-6.092 4.375,-3.35 8.142,-6.275 8.371,-6.5 0.229,-0.224 -1.392,-0.408 -3.601,-0.408 -3.276,0 -5.476,1.037 -11.917,5.617 m 33.101,0.896 -7,6.433 15.628,0.027 15.628,0.027 5.706,-6.5 5.707,-6.5 -14.334,0.039 -14.335,0.04 -7,6.434 m 72,-0.844 c -1.65,3.115 -3.15,6.038 -3.333,6.497 -0.184,0.459 9.574,0.834 21.682,0.834 24.723,0 22.43,0.798 23.708,-8.25 l 0.67,-4.75 -19.863,0.002 -19.864,0.003 -3,5.664 m 88.943,-0.919 c 1.278,9.048 -1.015,8.25 23.708,8.25 12.108,0 21.866,-0.375 21.682,-0.834 -0.183,-0.459 -1.683,-3.382 -3.333,-6.497 l -3,-5.664 -19.864,-0.003 -19.863,-0.002 0.67,4.75 m 84.095,1.75 5.706,6.5 15.628,-0.027 15.628,-0.027 -7,-6.433 -7,-6.434 -14.335,-0.04 -14.334,-0.039 5.707,6.5 m 47.545,-6.092 c 0.23,0.225 3.996,3.15 8.371,6.5 7.015,5.373 8.484,6.092 12.45,6.092 5.18,0 5.284,0.145 -5.303,-7.383 -6.441,-4.58 -8.641,-5.617 -11.917,-5.617 -2.209,0 -3.83,0.184 -3.601,0.408"
     stroke="none"
     fill="#89898b"
     fill-rule="evenodd"
     id="path1"
     style="fill:#ffffff;fill-opacity:1" />
</svg>
