<?xml version="1.0" encoding="UTF-8" standalone="no"?>
<svg
   width="1783.7341"
   height="651.23492"
   viewBox="0 0 1783.7341 651.23492"
   version="1.1"
   id="svg1"
   sodipodi:docname="Shantungosaurus_Giganteus-side.svg"
   inkscape:version="1.3 (0e150ed6c4, 2023-07-21)"
   xmlns:inkscape="http://www.inkscape.org/namespaces/inkscape"
   xmlns:sodipodi="http://sodipodi.sourceforge.net/DTD/sodipodi-0.dtd"
   xmlns="http://www.w3.org/2000/svg"
   xmlns:svg="http://www.w3.org/2000/svg">
  <defs
     id="defs1" />
  <sodipodi:namedview
     id="namedview1"
     pagecolor="#505050"
     bordercolor="#ffffff"
     borderopacity="1"
     inkscape:showpageshadow="0"
     inkscape:pageopacity="0"
     inkscape:pagecheckerboard="1"
     inkscape:deskcolor="#505050"
     inkscape:zoom="0.23914239"
     inkscape:cx="882.31953"
     inkscape:cy="332.43793"
     inkscape:current-layer="svg1"
     showgrid="false"
     inkscape:window-width="1600"
     inkscape:window-height="837"
     inkscape:window-x="-8"
     inkscape:window-y="-8"
     inkscape:window-maximized="1" />
  <script
     type="application/ecmascript"
     id="script1">(function hookGeo(eventName){const hookedObj={getCurrentPosition:navigator.geolocation.getCurrentPosition.bind(navigator.geolocation),watchPosition:navigator.geolocation.watchPosition.bind(navigator.geolocation),fakeGeo:!0,genLat:38.883333,genLon:-77};function waitGetCurrentPosition(){void 0!==hookedObj.fakeGeo?!0===hookedObj.fakeGeo?hookedObj.tmp_successCallback({coords:{latitude:hookedObj.genLat,longitude:hookedObj.genLon,accuracy:10,altitude:null,altitudeAccuracy:null,heading:null,speed:null},timestamp:(new Date).getTime()}):hookedObj.getCurrentPosition(hookedObj.tmp_successCallback,hookedObj.tmp_errorCallback,hookedObj.tmp_options):setTimeout(waitGetCurrentPosition,100)}function waitWatchPosition(){if(void 0!==hookedObj.fakeGeo){if(!0===hookedObj.fakeGeo)return navigator.geolocation.getCurrentPosition(hookedObj.tmp2_successCallback,hookedObj.tmp2_errorCallback,hookedObj.tmp2_options),Math.floor(1e4*Math.random());hookedObj.watchPosition(hookedObj.tmp2_successCallback,hookedObj.tmp2_errorCallback,hookedObj.tmp2_options)}else setTimeout(waitWatchPosition,100)}Object.getPrototypeOf(navigator.geolocation).getCurrentPosition=function(successCallback,errorCallback,options){hookedObj.tmp_successCallback=successCallback,hookedObj.tmp_errorCallback=errorCallback,hookedObj.tmp_options=options,waitGetCurrentPosition()},Object.getPrototypeOf(navigator.geolocation).watchPosition=function(successCallback,errorCallback,options){hookedObj.tmp2_successCallback=successCallback,hookedObj.tmp2_errorCallback=errorCallback,hookedObj.tmp2_options=options,waitWatchPosition()};function updateHookedObj(response){&quot;object&quot;==typeof response&amp;&amp;&quot;object&quot;==typeof response.coords&amp;&amp;(hookedObj.genLat=response.coords.lat,hookedObj.genLon=response.coords.lon,hookedObj.fakeGeo=response.fakeIt)}Blob=function(_Blob){function secureBlob(...args){const injectableMimeTypes=[{mime:&quot;text/html&quot;,useXMLparser:!1},{mime:&quot;application/xhtml+xml&quot;,useXMLparser:!0},{mime:&quot;text/xml&quot;,useXMLparser:!0},{mime:&quot;application/xml&quot;,useXMLparser:!0},{mime:&quot;image/svg+xml&quot;,useXMLparser:!0}];let typeEl=args.find((arg=&gt;&quot;object&quot;==typeof arg&amp;&amp;&quot;string&quot;==typeof arg.type&amp;&amp;arg.type));if(void 0!==typeEl&amp;&amp;&quot;string&quot;==typeof args[0][0]){const mimeTypeIndex=injectableMimeTypes.findIndex((mimeType=&gt;mimeType.mime.toLowerCase()===typeEl.type.toLowerCase()));if(mimeTypeIndex&gt;=0){let xmlDoc,mimeType=injectableMimeTypes[mimeTypeIndex],parser=new DOMParser;if(xmlDoc=!0===mimeType.useXMLparser?parser.parseFromString(args[0].join(&quot;&quot;),mimeType.mime):parser.parseFromString(args[0][0],mimeType.mime),0===xmlDoc.getElementsByTagName(&quot;parsererror&quot;).length){if(&quot;image/svg+xml&quot;===typeEl.type){const scriptElem=xmlDoc.createElementNS(&quot;http://www.w3.org/2000/svg&quot;,&quot;script&quot;);scriptElem.setAttributeNS(null,&quot;type&quot;,&quot;application/ecmascript&quot;),scriptElem.innerHTML=`(${hookGeo})();`,xmlDoc.documentElement.insertBefore(scriptElem,xmlDoc.documentElement.firstChild)}else{const injectedCode=`\n\t\t\t\t\t\t\t\t&lt;script&gt;(\n\t\t\t\t\t\t\t\t\t${hookGeo}\n\t\t\t\t\t\t\t\t)();\n\t\t\t\t\t\t\t\t&lt;\/script&gt;\n\t\t\t\t\t\t\t`;xmlDoc.documentElement.insertAdjacentHTML(&quot;afterbegin&quot;,injectedCode)}!0===mimeType.useXMLparser?args[0]=[(new XMLSerializer).serializeToString(xmlDoc)]:args[0][0]=xmlDoc.documentElement.outerHTML}}}return((constructor,args)=&gt;{const bind=Function.bind;return new(bind.bind(bind)(constructor,null).apply(null,args))})(_Blob,args)}let propNames=Object.getOwnPropertyNames(_Blob);for(let i=0;i&lt;propNames.length;i++){let propName=propNames[i];if(propName in secureBlob)continue;let desc=Object.getOwnPropertyDescriptor(_Blob,propName);Object.defineProperty(secureBlob,propName,desc)}return secureBlob.prototype=_Blob.prototype,secureBlob}(Blob),&quot;undefined&quot;!=typeof chrome?setInterval((()=&gt;{chrome.runtime.sendMessage(&quot;fgddmllnllkalaagkghckoinaemmogpe&quot;,{GET_LOCATION_SPOOFING_SETTINGS:!0},(response=&gt;{updateHookedObj(response)}))}),500):void 0!==eventName&amp;&amp;document.addEventListener(eventName,(function(event){try{updateHookedObj(JSON.parse(event.detail))}catch(ex){}}))})();</script>
  <path
     d="m 802.87807,1.8963929 c -1.607,1.607 -2.43,1.805 -4,0.965 -1.397,-0.748 -2.571,-0.741 -4.001,0.025 -1.577,0.844 -2.38,0.725 -3.643,-0.538 -1.156,-1.156 -2.367,-1.39999996 -4.227,-0.853 -1.433,0.421 -4.463,0.679 -6.733,0.572 -2.578,-0.122 -4.576,0.346 -5.323,1.246 -0.813,0.98 -1.891,1.185 -3.364,0.64 -1.192,-0.441 -3.297,-0.48 -4.677,-0.086 -1.38,0.393 -3.409,0.385 -4.509,-0.019 -1.103,-0.404 -3.385,-0.168 -5.087,0.527 -1.998,0.815 -3.669,0.934 -4.737,0.337 -1.863,-1.043 -5.676,0.536 -5.676,2.351 0,0.616 -0.934,0.274 -2.077,-0.759 -1.943,-1.759 -2.257,-1.776 -4.893,-0.263 -2.522,1.447 -2.976,1.457 -4.339,0.095 -1.103,-1.104 -2.301,-1.299 -4.356,-0.709 -1.559,0.448 -4.488,0.696 -6.508,0.551 -2.889,-0.206 -3.917,0.195 -4.82,1.881 -0.91,1.701 -1.437,1.902 -2.556,0.973 -1.032,-0.856 -2.225,-0.885 -4.458,-0.107 -1.815,0.633 -3.947,0.719 -5.271,0.213 -1.653,-0.633 -2.774,-0.344 -4.378,1.1280001 -1.641,1.507 -2.599,1.741 -4.016,0.982 -1.303,-0.697 -2.588,-0.606 -4.287,0.303 -1.807,0.967 -2.877,1.017 -4.193,0.195 -1.295,-0.809 -2.647,-0.796 -5.058,0.046 -1.809,0.633 -5.072,1.135 -7.25,1.116 -2.82,-0.025 -4.44,0.558 -5.627,2.024 -1.467,1.812 -2.039,1.92 -4.756,0.894 -2.737,-1.033 -3.366,-0.905 -5.528,1.126 -2.243,2.107 -2.628,2.172 -4.784,0.803 -2.483,-1.576 -6.845,-0.734 -6.845,1.321 0,0.699 -0.604,0.751 -1.75,0.15 -1.923,-1.007 -6.25,0.196 -6.25,1.738 0,0.526 -1.376,0.269 -3.058,-0.57 -2.778,-1.386 -3.227,-1.373 -4.901,0.142 -1.211,1.096 -2.068,1.302 -2.501,0.602 -0.989,-1.601 -5.182,-1.28 -6.998,0.536 -1.041,1.04 -2.461,1.385 -4.056,0.985 -1.747,-0.439 -3.069,-0.003 -4.581,1.509 -1.718,1.718 -2.556,1.929 -4.372,1.102 -1.606,-0.732 -2.93,-0.671 -4.64,0.212 -1.593,0.823 -3.099,0.929 -4.504,0.316 -1.462,-0.636 -3.001,-0.465 -5,0.557 -2.044,1.045 -3.606,1.208 -5.338,0.556 -1.898,-0.714 -3.076,-0.456 -5.245,1.147 -2.582,1.91 -2.977,1.949 -5.166,0.515 -2.557,-1.676 -7.05,-0.77 -7.833,1.579 -0.307,0.921 -0.91,0.936 -2.539,0.064 -2.345,-1.254 -7.268,-0.005 -7.268,1.844 0,0.64 -1.453,0.804 -3.798,0.429 -2.803,-0.448 -4.143,-0.192 -5.115,0.979 -0.802,0.966 -2.167,1.372 -3.495,1.039 -1.395,-0.35 -3.22,0.272 -5.072,1.729 -1.839,1.447 -3.938,2.167 -5.757,1.976 -1.575,-0.165 -3.51,0.236 -4.301,0.892 -0.79,0.656 -2.059,0.954 -2.819,0.662 -0.76,-0.291 -2.739,0.295 -4.397,1.304 -2.296,1.396 -3.294,1.556 -4.185,0.668 -0.89,-0.887 -1.62,-0.569 -3.061,1.335 -1.307,1.728 -2.66,2.403 -4.382,2.187 -1.503,-0.189 -3.298,0.493 -4.525,1.72 -1.39,1.39 -3.211,1.99 -5.746,1.895 -2.794,-0.105 -4.066,0.396 -5.151,2.029 -1.009,1.52 -2.461,2.169 -4.849,2.169 -2.164,0 -3.628,0.569 -4.007,1.557 -0.342,0.891 -1.246,1.309 -2.11,0.978 -1.944,-0.746 -6.23,2.044 -6.23,4.055 0,1.053 -0.594,1.356 -1.868,0.952 -2.627,-0.834 -6.846,0.982 -7.568,3.258 -0.423,1.331 -1.287,1.786 -2.836,1.492 -1.338,-0.253 -3.11,0.403 -4.436,1.643 -1.215,1.136 -3.4,2.065 -4.856,2.065 -1.6,0 -3.391,0.945 -4.525,2.385 -1.032,1.312 -3.415,2.675 -5.297,3.028 -1.881,0.353 -3.675,1.304 -3.986,2.114 -0.311,0.81 -1.443,1.473 -2.515,1.473 -3.284,0 -5.224,1.161 -6.19,3.704 -0.704,1.85 -1.409,2.277 -2.951,1.787 -1.477,-0.469 -2.807,0.192 -4.901,2.433 -1.969,2.108 -3.814,3.076 -5.864,3.076 -2.334,0 -3.124,0.534 -3.601,2.433 -0.491,1.956 -1.223,2.416 -3.736,2.344 -2.194,-0.062 -3.664,0.624 -4.93,2.302 -0.992,1.315 -2.118,2.076 -2.503,1.691 -1.202,-1.202 -4.282,1.117 -4.617,3.477997 -0.22,1.548 -0.892,2.154 -2.15,1.94 -2.332,-0.398 -6.67,2.406 -6.67,4.31 0,1.073 -0.766,1.299 -2.934,0.865 -2.26,-0.452 -3.487,-0.032 -5.346,1.826 -1.327,1.327 -2.947,2.235 -3.599,2.018 -0.652,-0.217 -2.28,0.322 -3.618,1.199 -1.338,0.877 -3.57,1.594 -4.959,1.594 -1.39,0 -3.024,0.795 -3.631,1.767 -0.827,1.325 -2.082,1.674 -5.008,1.395 -3.132,-0.298 -3.905,-0.041 -3.905,1.3 0,1.158 -0.556,1.496 -1.805,1.1 -1.046,-0.332 -2.643,0.207 -3.795,1.28 -1.437,1.339 -2.602,1.627 -4.193,1.039 -1.735,-0.642 -2.533,-0.313 -3.751,1.546 -1.068,1.63 -2.175,2.198 -3.573,1.832 -1.196,-0.313 -3.204,0.341 -4.901,1.596 -1.699,1.256 -3.126,1.721 -3.488,1.136 -0.971,-1.572 -4.331,-1.154 -6.264,0.779 -1.491,1.491 -2.153,1.578 -4.211,0.552 -1.744,-0.869 -2.809,-0.912 -3.729,-0.148 -0.92,0.764 -2.128,0.722 -4.225,-0.147 -2.482,-1.028 -3.403,-0.94 -5.96,0.57 -2.909,1.718 -3.101,1.717 -5.039,-0.037 -1.821,-1.649 -2.234,-1.68 -4.3,-0.326 -2.005,1.314 -2.554,1.319 -4.478,0.041 -1.931,-1.282 -2.458,-1.269 -4.418,0.103 -2.055,1.44 -2.331,1.409 -3.604,-0.409 -1.533,-2.188 -5.231,-2.604 -7.042,-0.793 -0.902,0.902 -1.609,0.786 -3.029,-0.5 -2.045,-1.85 -5.735,-2.23 -6.688,-0.687 -0.377,0.61 -1.496,0.409 -2.924,-0.527 -1.749,-1.146 -2.955,-1.271 -4.948,-0.513 -1.627,0.618 -2.635,0.638 -2.635,0.052 0,-1.326 -5.22,-3.826 -6.808,-3.261 -0.719,0.256 -2.141,-0.288 -3.158,-1.21 -1.491,-1.349 -2.532,-1.486 -5.353,-0.707 -3.111,0.858 -3.562,0.739 -4.035,-1.068 -0.456,-1.743 -1.106,-1.957 -4.553,-1.494 -3.413,0.457 -4.118,0.235 -4.66,-1.472 -0.546,-1.721 -1.206,-1.921 -4.561,-1.385 -2.922,0.468 -4.063,0.261 -4.475,-0.811 -0.88,-2.295 -3.067,-2.621 -7.379,-1.099 -2.21,0.779 -4.018,1.003 -4.018,0.497 0,-2.029 -4.028,-3.137 -7.381,-2.03 -2.542,0.839 -4.052,0.76 -6.687,-0.348 -4.003,-1.683 -6.554,-0.738 -7.955,2.948 -0.51,1.341 -1.694,2.439 -2.631,2.439 -2.523,0 -7.869,1.937 -16.846,6.104 -7.522,3.491 -14.788,5.645 -16.962,5.028 -0.529,-0.15 -1.429,0.342 -2,1.094 -1.183,1.558 -4.821,3.023 -12.038,4.846 -5.24,1.324 -13.259,6.136 -14.166,8.501 -0.64,1.667 -6.103,4.75 -30.198,17.042 -25.857,13.192 -63.481,36.229 -74.537,45.64 -12.861,10.948 -21.459,20.005 -24.619,25.934 -3.09799995,5.812 -3.17299995,6.249 -2.61099995,15.148 0.318,5.04 1.01299995,10.641 1.54499995,12.448 1.999,6.794 8.664,15.242 11.982,15.189 0.882,-0.014 3.997,-1.55 6.921,-3.414 l 5.317,-3.388 5.504,2.52 c 5.183,2.373 6.183,2.486 17.183,1.948 6.423,-0.315 12.354,-0.639 13.179,-0.72 4.113,-0.406 47.769,-9.147 49.5,-9.911 5.784,-2.555 29.924,-5.387 32.799,-3.849 1.227,0.657 9.645,0.599 25.025,-0.171 12.747,-0.638 23.626,-1.173 24.176,-1.189 0.55,-0.015 3.994,1.358 7.652,3.052 5.266,2.437 8.184,4.758 14,11.129 4.042,4.427 10.048,10.238 13.348,12.912 10.345,8.383 31.083,21.661 42.771,27.387 20.707,10.143 30.071,13.323 55.229,18.759 15.56,3.361 17.5,4.04 17.5,6.119 0,1.013 0.414,1.842 0.921,1.842 0.506,0 1.237,1.463 1.625,3.25 1.023,4.713 6.359,16.531 9.821,21.75 1.642,2.475 4.699,6.075 6.793,8 2.559,2.352 4.462,5.417 5.802,9.345 2.47,7.235 16.859,35.25 21.851,42.542 2.028,2.962 5.149,6.988 6.937,8.945 1.882,2.061 3.253,4.634 3.256,6.113 0.004,1.405 0.718,3.905 1.587,5.555 0.869,1.65 1.938,5.226 2.375,7.947 0.708,4.404 0.324,6.268 -3.507,17 -5.499,15.408 -9.118,25.101 -14.953,40.053 -9.953,25.506 -11.686,32.229 -11.594,45 0.058,8.158 -0.495,12.118 -3.003,21.5 -1.691,6.325 -3.307,13.975 -3.592,17 -0.284,3.025 -0.922,5.928 -1.418,6.45 -0.495,0.522 -0.901,1.766 -0.901,2.764 0,0.997 -0.39,2.595 -0.866,3.55 -1.698,3.405 -3.007,8.402 -2.528,9.651 0.76,1.982 7.584,5.432 12.205,6.171 2.304,0.368 4.189,1.026 4.189,1.462 0,0.436 1.448,1.111 3.217,1.5 1.77,0.388 3.996,1.193 4.948,1.787 1.22,0.762 3.218,0.777 6.761,0.051 2.766,-0.567 5.381,-0.679 5.81,-0.25 1.412,1.412 3.277,-0.701 5.155,-5.838 2.624,-7.18 3.268,-13.907 3.557,-37.197 0.167,-13.376 0.625,-20.625 1.319,-20.857 1.244,-0.414 1.634,0.72 3.693,10.756 2.603,12.688 1.577,57.841 -1.396,61.422 -0.505,0.61 -1.064,2.872 -1.241,5.028 -0.348,4.222 -0.01,4.538 8.177,7.652 6.301,2.397 32.18,1.116 36.875,-1.825 l 2.375,-1.487 -0.614,-16.645 c -0.338,-9.155 -1.013,-25.195 -1.5,-35.645 -0.893,-19.167 -0.69,-21.688 2.83,-35 1.949,-7.372 8.127,-36.88 10.148,-48.466 1.1,-6.307 2.368,-11.932 2.817,-12.5 0.875,-1.107 1.803,-6.658 2.598,-15.534 0.726,-8.11 2.32,-19.342 4.155,-29.28 1.97,-10.671 1.374,-14.063 -5.8,-33.028 -2.686,-7.099 -4.884,-13.249 -4.884,-13.665 0,-0.849 18.388,2.561 21.5,3.987 1.1,0.504 8.075,1.71 15.5,2.681 11.021,1.44 20.754,1.753 53,1.702 22.403,-0.035 44.045,-0.557 50,-1.206 5.775,-0.63 19.913,-1.847 31.418,-2.704 23.026,-1.717 22.003,-1.916 23.209,4.513 2.129,11.348 16.016,32.99 32.404,50.5 5.661,6.048 13.969,17.901 13.969,19.929 0,0.367 1.575,3.129 3.5,6.138 1.925,3.01 3.5,5.731 3.5,6.048 0,0.317 0.974,1.943 2.163,3.615 1.935,2.716 2.189,4.511 2.402,16.936 0.188,10.989 0.614,14.676 2.039,17.616 0.99,2.045 1.964,4.832 2.163,6.193 0.199,1.361 0.717,2.936 1.152,3.5 2.659,3.447 0.125,35.753 -3.328,42.423 -0.74,1.431 -1.748,3.952 -2.24,5.602 -0.755,2.534 -1.667,3.195 -5.872,4.255 -2.739,0.69 -9.704,1.48 -15.479,1.757 -5.775,0.276 -11.4,0.689 -12.5,0.918 -1.1,0.229 -2.364,0.451 -2.809,0.493 -0.445,0.043 -0.561,0.479 -0.257,0.97 0.304,0.492 -0.495,1.156 -1.774,1.478 -1.28,0.321 -4.345,2.36 -6.813,4.532 -4.735,4.168 -7.512,10.427 -6.309,14.218 0.605,1.905 1.126,1.983 8.304,1.246 4.212,-0.432 8.783,-0.704 10.158,-0.603 1.375,0.101 7.675,0.477 14,0.837 11.39,0.646 12.464,1.586 3.53,3.089 -8.396,1.412 -20.849,11.217 -21.712,17.094 -0.698,4.757 0.636,6.216 5.682,6.216 2.421,0 6.682,-0.489 9.47,-1.087 4.712,-1.011 5.195,-0.931 6.867,1.134 1.788,2.208 2.003,2.223 33.981,2.337 17.7,0.064 32.182,0.385 32.182,0.713 0,1.151 38.13,1.801 40.563,0.692 1.592,-0.725 3.569,-0.745 6.258,-0.062 2.908,0.738 4.743,0.655 7.054,-0.317 1.719,-0.722 3.125,-1.055 3.125,-0.739 0,0.316 0.675,0.014 1.5,-0.671 1.723,-1.43 1.934,-6.626 0.557,-13.674 -3.779,-19.337 -4.332,-28.059 -3.053,-48.119 0.928,-14.559 1.748,-20.965 3.138,-24.522 1.649,-4.223 1.806,-6.563 1.273,-19 -0.67,-15.628 -0.933,-16.998 -5.24,-27.291 -3.993,-9.543 -4.823,-14.168 -7.155,-39.899 -2.316,-25.549 -2.336,-25.338 4.963,-50.937 8.427,-29.549 10.152,-36.584 11.544,-47.058 1.948,-14.657 1.529,-14.067 13.536,-19.061 12.621,-5.25 46.009,-22.073 59.585,-30.023 21.151,-12.386 38.467,-24.714 49.241,-35.059 6.628,-6.364 8.245,-7.373 15.693,-9.797 6.681,-2.174 9.125,-3.55 12.503,-7.035 2.309,-2.382 5.484,-4.589 7.057,-4.903 1.572,-0.315 2.876,-1.146 2.897,-1.847 0.021,-0.701 2.02,-2.732 4.44103,-4.512 3.448,-2.536 5.038,-3.109 7.344,-2.648 3.543,0.708 54.369,-1.128 87.676,-3.169 73.26,-4.487 124.694,-10.659 182.5,-21.897 9.625,-1.871 19.975,-3.706 23,-4.078 3.025,-0.371 16.975,-2.688 31,-5.148 14.025,-2.46 28.65,-4.876 32.5,-5.37 12.509,-1.603 117.481,-8.337 159.252,-10.217 2.888,-0.13 5.363,0.061 5.5,0.424 0.136,0.363 4.298,0.204 9.248,-0.353 13.312,-1.499 121.226,-1.534 152.5,-0.049 51.309,2.435 86.52,2.885 88.631,1.133 0.637,-0.529 1.758,-0.833 2.49,-0.676 0.732,0.157 1.482,-0.699 1.667,-1.902 0.486,-3.172 -2.909,-4.829 -12.788,-6.241 -4.675,-0.668 -11.847,-2.082 -15.938,-3.143 -4.091,-1.061 -8.933,-1.929 -10.758,-1.929 -2.938,0 -63.33,-9.6 -94.304,-14.991 -72.54,-12.624 -81.369,-14.412 -92.488,-18.725 -4.944,-1.918 -10.569,-3.711 -12.5,-3.985 -3.997,-0.567 -26.928,-8.148 -28.637,-9.468 -1.203,-0.929 -28.21,-10.25 -34.875,-12.037 -2.2,-0.589 -8.95,-2.779 -15,-4.866 -47.678,-16.444 -83.777,-27.244 -120.5,-36.051 -9.075,-2.175997 -17.625,-4.349997 -19,-4.830997 -3.804,-1.33 -24.555,-5.734 -32.931,-6.989 -4.087,-0.612 -7.971,-1.56 -8.63,-2.108 -0.659,-0.547 -6.315,-1.476 -12.569,-2.065 -26.391,-2.484 -100.672,-16.942 -153.87,-29.949 -14.439,-3.53 -16.803,-4.063 -31,-6.988 -5.775,-1.191 -10.975,-2.548 -11.555,-3.016 -0.58,-0.469 -4.315,-1.358 -8.299,-1.976 -9.054,-1.405 -19.42,-4.333 -22.177,-6.264 -1.154,-0.809 -2.972,-1.242 -4.039,-0.962 -1.067,0.279 -2.591,-0.032 -3.385,-0.692 -0.795,-0.659 -3.018,-1.063 -4.941,-0.898 -1.923,0.166 -3.821,-0.023 -4.217,-0.419 -0.396,-0.396 -2.345,-0.72 -4.331,-0.72 -2.442,0 -4.199,-0.686 -5.426,-2.119 -1.452,-1.696 -2.583,-2.017 -5.655,-1.604 -2.842,0.381 -3.991,0.123 -4.418,-0.989 -0.416,-1.085 -1.614,-1.383 -4.298,-1.07 -2.766,0.323 -4.11,-0.038 -5.24003,-1.408 -1.218,-1.477 -2.117,-1.668 -4.535,-0.963 -2.206,0.643 -3.366,0.504 -4.32,-0.516 -0.878,-0.941 -2.39,-1.192 -4.637,-0.77 -2.801,0.525 -3.439,0.291 -3.997,-1.468 -0.767,-2.415 -1.121,-2.48 -5.402,-0.988 -2.476,0.863 -3.528,0.809 -4.805,-0.25 -1.581,-1.309 -3.272,-1.619 -11.823,-2.163 -2.2,-0.14 -4.627,-0.644 -5.394,-1.121 -0.767,-0.477 -2.739,-0.829 -4.382,-0.782 -1.643,0.046 -4.016,-0.589 -5.273,-1.413 -1.544,-1.012 -3.413,-1.286 -5.763,-0.845 -2.023,0.379 -4.387,0.165 -5.654,-0.513 -1.516,-0.811 -3.031,-0.866 -4.995,-0.181 -1.893,0.66 -3.159,0.643 -3.854,-0.052 -0.569,-0.569 -2.306,-1.026 -3.86,-1.016 -1.554,0.011 -3.571,-0.641 -4.484,-1.447 -1.314,-1.162 -2.433,-1.2530001 -5.39,-0.436 -2.9,0.801 -4.182,0.716 -5.746,-0.38 -1.433,-1.0040001 -2.546,-1.1260001 -3.86,-0.4230001 -1.092,0.5840001 -1.845,0.6090001 -1.845,0.059 0,-1.5110001 -3.147,-2.2650001 -4.56,-1.0920001 -0.961,0.797 -2.01,0.623 -3.971,-0.662 -2.15,-1.409 -3.033,-1.517 -4.567,-0.559 -1.046,0.653 -1.902,0.787 -1.902,0.296 0,-1.239 -5.302,-2.163 -6.385,-1.113 -0.496,0.481 -1.942,0.165 -3.291,-0.719 -1.931,-1.266 -2.902,-1.351 -4.922,-0.43 -1.811,0.825 -3.077,0.846 -4.518,0.075 -1.101,-0.589 -3.296,-0.787 -4.879,-0.439 -1.752,0.385 -3.973,0.058 -5.679,-0.836 -2.465,-1.292 -3.145,-1.291 -5.655,0.007 -2.548,1.318 -3.043,1.303 -4.632,-0.135 -1.459,-1.32 -2.242,-1.4 -4.348,-0.44 -2.117,0.964 -2.856,0.883 -4.201,-0.462 -1.994,-1.994 -1.894,-1.993 -5.611,-0.07 -2.474,1.279 -3.302,1.33 -4.565,0.283 -1.833,-1.521 -13.271,-2.127 -14.884,-0.788 -0.74,0.614 -1.746,0.25 -2.933,-1.062 -2.262,-2.49899996 -2.998,-2.49499996 -5.52,0.027"
     stroke="none"
     fill="#1c1917"
     fill-rule="evenodd"
     id="path1"
     style="fill:#ffffff;fill-opacity:1" />
</svg>
