<?xml version="1.0" encoding="UTF-8" standalone="no"?>
<!-- Created with Inkscape (http://www.inkscape.org/) -->

<svg
   xmlns:dc="http://purl.org/dc/elements/1.1/"
   xmlns:cc="http://creativecommons.org/ns#"
   xmlns:rdf="http://www.w3.org/1999/02/22-rdf-syntax-ns#"
   xmlns:svg="http://www.w3.org/2000/svg"
   xmlns="http://www.w3.org/2000/svg"
   xmlns:sodipodi="http://sodipodi.sourceforge.net/DTD/sodipodi-0.dtd"
   xmlns:inkscape="http://www.inkscape.org/namespaces/inkscape"
   width="2934.0247"
   height="1010.9208"
   viewBox="0 0 776.294 267.4728"
   version="1.1"
   id="svg8"
   inkscape:version="0.92.4 (5da689c313, 2019-01-14)"
   sodipodi:docname="Great_White_Shark-side.svg"
   inkscape:export-filename="G:\Pictures\My Pictures\Vectors and SVGs\Shark1.png"
   inkscape:export-xdpi="96"
   inkscape:export-ydpi="96">
  <defs
     id="defs2" />
  <sodipodi:namedview
     id="base"
     pagecolor="#505050"
     bordercolor="#666666"
     borderopacity="1.0"
     inkscape:pageopacity="0"
     inkscape:pageshadow="2"
     inkscape:zoom="0.24748737"
     inkscape:cx="1162.1973"
     inkscape:cy="451.94879"
     inkscape:document-units="mm"
     inkscape:current-layer="layer1"
     showgrid="false"
     borderlayer="true"
     inkscape:showpageshadow="false"
     units="px"
     inkscape:snap-global="false"
     inkscape:window-width="1600"
     inkscape:window-height="837"
     inkscape:window-x="-8"
     inkscape:window-y="-8"
     inkscape:window-maximized="1"
     fit-margin-top="0"
     fit-margin-left="0"
     fit-margin-right="0"
     fit-margin-bottom="0"
     inkscape:pagecheckerboard="true" />
  <metadata
     id="metadata5">
    <rdf:RDF>
      <cc:Work
         rdf:about="">
        <dc:format>image/svg+xml</dc:format>
        <dc:type
           rdf:resource="http://purl.org/dc/dcmitype/StillImage" />
        <dc:title></dc:title>
      </cc:Work>
    </rdf:RDF>
  </metadata>
  <g
     inkscape:label="Layer 1"
     inkscape:groupmode="layer"
     id="layer1"
     transform="translate(-10.549515,-24.972111)">
    <path
       style="opacity:1;fill:#ffffff;fill-opacity:1;fill-rule:nonzero;stroke:none;stroke:none;stroke-width:3.13429499;stroke-linecap:round;stroke-linejoin:round;stroke-miterlimit:4;stroke-dasharray:none;stroke-dashoffset:0;stroke-opacity:1;paint-order:normal"
       d="m 394.58509,24.97371 c 0.58915,-0.008 1.17867,0.01397 1.76837,0.06718 6.07335,0.548013 4.81484,43.879498 21.87618,65.967034 21.33102,27.615056 19.23912,25.382306 60.3741,34.904326 38.8856,9.00133 56.59736,10.45562 72.19403,13.98984 21.75798,4.93038 29.5464,-7.61244 34.48162,-6.97787 4.93522,0.63459 -0.41488,13.9584 7.40368,16.1923 7.81855,2.23386 56.40503,13.12427 66.45744,7.53959 10.05243,-5.58467 37.97626,-34.62495 67.01658,-50.26205 29.04032,-15.637091 51.37856,-33.508028 58.08018,-33.508028 2.2605,0 2.99408,1.781278 2.41897,5.039484 -10e-4,0.0062 -0.002,0.01237 -0.003,0.01861 -0.0224,0.125857 -0.0507,0.258368 -0.077,0.388606 -0.0348,0.172466 -0.0727,0.348573 -0.1142,0.528649 -0.0256,0.11082 -0.0499,0.22067 -0.078,0.334346 -0.0681,0.275619 -0.14237,0.55785 -0.22531,0.850077 -0.0247,0.08715 -0.0535,0.178559 -0.0796,0.267168 -0.0686,0.233495 -0.14096,0.471646 -0.21859,0.715203 -0.039,0.122465 -0.0791,0.246049 -0.1204,0.371036 -0.0874,0.264462 -0.18009,0.534657 -0.27751,0.810286 -0.0262,0.07425 -0.0495,0.145609 -0.0765,0.220658 -0.12222,0.340172 -0.25423,0.690464 -0.39119,1.046966 -0.0528,0.137512 -0.10829,0.277633 -0.16329,0.417545 -0.10174,0.258802 -0.20715,0.522163 -0.31626,0.789098 -0.0537,0.131379 -0.10576,0.260964 -0.16123,0.394293 -0.15769,0.378978 -0.32216,0.765061 -0.49403,1.159618 -0.051,0.116986 -0.1049,0.237194 -0.1571,0.355534 -0.14069,0.318985 -0.28551,0.642795 -0.43511,0.971516 -0.0611,0.134175 -0.12195,0.268332 -0.18449,0.404111 -0.0803,0.174316 -0.16586,0.354288 -0.24856,0.531233 -0.24881,0.532302 -0.50838,1.076235 -0.77877,1.631942 -0.0682,0.140211 -0.13454,0.278453 -0.20412,0.420129 -0.33477,0.681686 -0.68273,1.37681 -1.04851,2.091862 -0.0472,0.09237 -0.0974,0.188722 -0.14521,0.281636 -0.31899,0.62057 -0.6507,1.254498 -0.99219,1.899111 -0.10519,0.198567 -0.21103,0.397602 -0.31833,0.598413 -0.3861,0.722569 -0.78177,1.45555 -1.19476,2.206583 -0.01,0.01749 -0.0188,0.03417 -0.0284,0.05168 -0.43169,0.784564 -0.88074,1.587871 -1.341,2.402435 -0.11741,0.20779 -0.23785,0.41817 -0.35709,0.62787 -0.38166,0.67121 -0.77186,1.35182 -1.17202,2.04226 -0.0949,0.16378 -0.18775,0.32504 -0.2837,0.48989 -0.49798,0.85553 -1.00906,1.72454 -1.53427,2.60811 -0.0735,0.12365 -0.14973,0.24994 -0.22376,0.37413 -0.46574,0.78133 -0.94262,1.57388 -1.42886,2.37609 -0.11623,0.19175 -0.23194,0.38326 -0.34933,0.57619 -0.56085,0.92178 -1.13045,1.85251 -1.71721,2.80034 -0.90744,1.46587 -1.85647,2.98495 -2.83807,4.54856 0,0 0,5.2e-4 0,5.2e-4 -3.92667,6.25486 -8.3772,13.21859 -12.7925,20.30677 -4.96738,7.97444 -9.89048,16.10615 -13.97434,23.5629 -0.45375,0.82852 -0.89718,1.64857 -1.32912,2.45928 -0.86388,1.62142 -1.68179,3.20537 -2.44533,4.74183 -0.95441,1.9206 -1.8236,3.76743 -2.59053,5.52318 -0.61355,1.4046 -1.16163,2.75067 -1.63556,4.02921 -0.35545,0.95892 -0.66909,1.87999 -0.93741,2.75901 -0.0894,0.293 -0.174,0.58099 -0.25322,0.86455 -0.0166,0.0596 -0.0303,0.11655 -0.0465,0.17569 -0.13789,0.50396 -0.26162,0.99489 -0.36535,1.4671 -0.17384,0.79141 -0.29853,1.53735 -0.37052,2.23345 -0.024,0.23204 -0.0421,0.45816 -0.0543,0.67903 -0.0122,0.22105 -0.0186,0.43637 -0.0186,0.64596 0,5.8639 -0.15334,13.00834 0.18552,21.06228 0,0 0,5.1e-4 0,5.1e-4 0.0484,1.1504 0.10687,2.31932 0.17725,3.50573 0,0 0,5.2e-4 0,5.2e-4 0.0704,1.18642 0.15297,2.39036 0.24908,3.61063 0,0 0,5.2e-4 0,5.2e-4 0.048,0.61005 0.0993,1.22416 0.15451,1.84226 0,0 0,5.2e-4 0,5.2e-4 0.0552,0.61811 0.11394,1.24014 0.17673,1.86604 0,0 0,5.1e-4 0,5.1e-4 0.12561,1.25197 0.26695,2.51932 0.42581,3.80081 0,0 0,5.1e-4 0,5.1e-4 0.15887,1.28149 0.33535,2.57723 0.53124,3.88607 0,0 0,5.1e-4 0,5.1e-4 0.48977,3.27237 1.10162,6.62681 1.86397,10.04642 0,0 0,5.2e-4 0,5.2e-4 0.4574,2.05171 0.96904,4.12687 1.54151,6.22184 0,0 0,5.2e-4 0,5.2e-4 0.6797,2.48743 1.30396,4.81242 1.87017,6.98458 0.0598,0.22937 0.11206,0.43973 0.17053,0.6656 0.21523,0.83151 0.42788,1.656 0.62477,2.44016 0.10255,0.40841 0.19295,0.78624 0.29042,1.18184 0.13753,0.5583 0.27898,1.12754 0.40617,1.66036 0.10532,0.44114 0.19751,0.85167 0.29559,1.27538 0.11017,0.47591 0.2247,0.96197 0.32557,1.41593 0.16315,0.73419 0.31396,1.43923 0.45216,2.11615 0.0193,0.0944 0.0396,0.19143 0.0584,0.28474 0.0442,0.21967 0.0857,0.43347 0.12712,0.64698 0.0314,0.16165 0.0632,0.32402 0.093,0.48215 0.0413,0.21923 0.0801,0.43246 0.11834,0.64492 0.0244,0.13548 0.0487,0.2719 0.0718,0.40462 0.037,0.21272 0.0717,0.42015 0.10542,0.62581 0.0224,0.13676 0.0452,0.27357 0.0661,0.40721 0.0296,0.18859 0.0571,0.37261 0.0837,0.555 0.0203,0.13911 0.0403,0.27791 0.0589,0.41341 0.0245,0.17843 0.0467,0.35234 0.0682,0.52452 0.0154,0.12315 0.0301,0.24591 0.0439,0.36587 0.0192,0.16719 0.037,0.33045 0.0532,0.49144 0.0123,0.12244 0.0241,0.24391 0.0346,0.36277 0.0138,0.15609 0.0254,0.30846 0.0362,0.45837 0.008,0.11074 0.0155,0.22026 0.0217,0.32763 0.009,0.14888 0.0153,0.29425 0.0207,0.43666 0.004,0.0952 0.007,0.18929 0.009,0.28164 0.003,0.14362 0.005,0.28401 0.004,0.42065 -2.5e-4,0.0896 -10e-4,0.17742 -0.003,0.26406 -0.003,0.12724 -0.007,0.25182 -0.0129,0.37259 -0.004,0.0857 -0.01,0.16918 -0.016,0.25166 -0.009,0.11724 -0.0184,0.23196 -0.0305,0.34262 -0.008,0.0707 -0.0166,0.13924 -0.0258,0.20722 -0.0155,0.11456 -0.0326,0.22636 -0.0522,0.33331 -0.0107,0.0584 -0.0227,0.11442 -0.0346,0.17054 -0.0219,0.10286 -0.0452,0.20341 -0.0713,0.29869 -0.0154,0.0559 -0.0323,0.10893 -0.0491,0.16226 -0.0279,0.0886 -0.0569,0.17543 -0.0889,0.25683 -0.0192,0.0488 -0.0403,0.0944 -0.061,0.14056 -0.0958,0.21424 -0.2049,0.40568 -0.3328,0.56431 0,0 0,5.2e-4 0,5.2e-4 -0.21887,0.27134 -0.48546,0.46123 -0.8015,0.5705 -5.7e-4,2e-4 -9.8e-4,8.4e-4 -0.002,10e-4 -3.65255,1.25889 -13.91652,-8.26166 -33.80621,-27.8567 -36.00764,-35.47422 -30.71582,-60.31446 -61.99001,-61.43139 -31.27419,-1.11693 -39.96878,0.53008 -43.2816,5.02605 -7.81855,10.61088 4.18872,20.10483 -11.44839,11.16934 -15.63709,-8.93548 -11.16933,-7.26011 -33.50803,-3.90932 -22.33871,3.3508 -25.13109,-0.27885 -26.24801,15.35824 -1.11696,15.63711 -6.17775,7.23992 -23.735,2.51302 -1.1045,-0.29737 -2.18969,-0.477 -3.30263,-0.55449 -4.66088,8.38744 -4.20434,9.70423 -8.18502,9.04079 -2.35101,-0.39184 -9.36686,-2.33918 -15.8409,-4.20181 -1.67248,0.41829 -3.42765,0.8498 -5.3418,1.30018 -13.91862,3.27495 -51.84092,17.27451 -115.53299,21.49378 19.98568,20.7916 43.78691,47.21638 42.3354,50.11942 -4.06569,8.13144 -48.5721,-1.1843 -90.82598,-36.33008 -5.99554,-4.98694 -11.15171,-9.31232 -15.7112,-13.18059 -0.13149,-0.006 -0.26315,-0.0117 -0.39481,-0.0176 -6.32645,28.52649 -11.17338,37.96331 -21.80434,36.497 -11.11395,-1.53297 -30.40943,-9.39073 -39.47977,-40.53396 -55.96088,-4.04777 -94.3497,-8.07356 -125.77887,-18.32705 -20.478456,-6.68092 -31.497082,-12.69948 -30.508228,-16.14785 0.01648,-0.16625 0.05958,-0.33736 0.128164,-0.51263 l -0.13073,-1.13792 0.547767,0.39584 c 0.121073,-0.16864 0.26027,-0.34036 0.416507,-0.51418 l 0.07234,-0.72088 0.355547,0.27802 c 0.424524,-0.41074 0.938953,-0.83279 1.511009,-1.25936 l 0.157109,-0.40101 0.251143,0.0992 c 0.598884,-0.42696 1.259575,-0.85751 1.958525,-1.28674 l 0.06255,-0.36174 0.32504,0.12713 c 1.209702,-0.72678 2.522882,-1.44456 3.85609,-2.13011 l 0.0016,-0.004 0.0026,0.002 c 2.60096,-1.33723 5.255181,-2.54331 7.302394,-3.42615 -10.913904,2.79766 -33.795282,7.35107 -50.253767,1.5906 C 19.136665,184.57956 12.763303,180.40391 10.596127,170.65164 8.1731259,159.74827 100.67281,124.26472 181.09217,110.86149 261.51153,97.458271 315.1245,104.16 330.76159,90.756775 346.0322,77.667689 370.03642,25.30663 394.58509,24.97371 Z"
       id="path878"
       inkscape:connector-curvature="0" />
  </g>
</svg>
