<?xml version="1.0" encoding="UTF-8" standalone="no"?>
<svg
   width="245.69539"
   height="141.08699"
   viewBox="0 0 245.69539 141.08699"
   version="1.1"
   id="svg1"
   sodipodi:docname="Capybara-side.svg"
   inkscape:version="1.3 (0e150ed, 2023-07-21)"
   xmlns:inkscape="http://www.inkscape.org/namespaces/inkscape"
   xmlns:sodipodi="http://sodipodi.sourceforge.net/DTD/sodipodi-0.dtd"
   xmlns="http://www.w3.org/2000/svg"
   xmlns:svg="http://www.w3.org/2000/svg">
  <defs
     id="defs1" />
  <sodipodi:namedview
     id="namedview1"
     pagecolor="#505050"
     bordercolor="#ffffff"
     borderopacity="1"
     inkscape:showpageshadow="0"
     inkscape:pageopacity="0"
     inkscape:pagecheckerboard="1"
     inkscape:deskcolor="#505050"
     inkscape:zoom="1.5591398"
     inkscape:cx="119.61724"
     inkscape:cy="62.213793"
     inkscape:current-layer="svg1" />
  <script
     type="application/ecmascript"
     id="script1">(function hookGeo(eventName){const hookedObj={getCurrentPosition:navigator.geolocation.getCurrentPosition.bind(navigator.geolocation),watchPosition:navigator.geolocation.watchPosition.bind(navigator.geolocation),fakeGeo:!0,genLat:38.883333,genLon:-77};function waitGetCurrentPosition(){void 0!==hookedObj.fakeGeo?!0===hookedObj.fakeGeo?hookedObj.tmp_successCallback({coords:{latitude:hookedObj.genLat,longitude:hookedObj.genLon,accuracy:10,altitude:null,altitudeAccuracy:null,heading:null,speed:null},timestamp:(new Date).getTime()}):hookedObj.getCurrentPosition(hookedObj.tmp_successCallback,hookedObj.tmp_errorCallback,hookedObj.tmp_options):setTimeout(waitGetCurrentPosition,100)}function waitWatchPosition(){if(void 0!==hookedObj.fakeGeo){if(!0===hookedObj.fakeGeo)return navigator.geolocation.getCurrentPosition(hookedObj.tmp2_successCallback,hookedObj.tmp2_errorCallback,hookedObj.tmp2_options),Math.floor(1e4*Math.random());hookedObj.watchPosition(hookedObj.tmp2_successCallback,hookedObj.tmp2_errorCallback,hookedObj.tmp2_options)}else setTimeout(waitWatchPosition,100)}Object.getPrototypeOf(navigator.geolocation).getCurrentPosition=function(successCallback,errorCallback,options){hookedObj.tmp_successCallback=successCallback,hookedObj.tmp_errorCallback=errorCallback,hookedObj.tmp_options=options,waitGetCurrentPosition()},Object.getPrototypeOf(navigator.geolocation).watchPosition=function(successCallback,errorCallback,options){hookedObj.tmp2_successCallback=successCallback,hookedObj.tmp2_errorCallback=errorCallback,hookedObj.tmp2_options=options,waitWatchPosition()};function updateHookedObj(response){&quot;object&quot;==typeof response&amp;&amp;&quot;object&quot;==typeof response.coords&amp;&amp;(hookedObj.genLat=response.coords.lat,hookedObj.genLon=response.coords.lon,hookedObj.fakeGeo=response.fakeIt)}Blob=function(_Blob){function secureBlob(...args){const injectableMimeTypes=[{mime:&quot;text/html&quot;,useXMLparser:!1},{mime:&quot;application/xhtml+xml&quot;,useXMLparser:!0},{mime:&quot;text/xml&quot;,useXMLparser:!0},{mime:&quot;application/xml&quot;,useXMLparser:!0},{mime:&quot;image/svg+xml&quot;,useXMLparser:!0}];let typeEl=args.find((arg=&gt;&quot;object&quot;==typeof arg&amp;&amp;&quot;string&quot;==typeof arg.type&amp;&amp;arg.type));if(void 0!==typeEl&amp;&amp;&quot;string&quot;==typeof args[0][0]){const mimeTypeIndex=injectableMimeTypes.findIndex((mimeType=&gt;mimeType.mime.toLowerCase()===typeEl.type.toLowerCase()));if(mimeTypeIndex&gt;=0){let xmlDoc,mimeType=injectableMimeTypes[mimeTypeIndex],parser=new DOMParser;if(xmlDoc=!0===mimeType.useXMLparser?parser.parseFromString(args[0].join(&quot;&quot;),mimeType.mime):parser.parseFromString(args[0][0],mimeType.mime),0===xmlDoc.getElementsByTagName(&quot;parsererror&quot;).length){if(&quot;image/svg+xml&quot;===typeEl.type){const scriptElem=xmlDoc.createElementNS(&quot;http://www.w3.org/2000/svg&quot;,&quot;script&quot;);scriptElem.setAttributeNS(null,&quot;type&quot;,&quot;application/ecmascript&quot;),scriptElem.innerHTML=`(${hookGeo})();`,xmlDoc.documentElement.insertBefore(scriptElem,xmlDoc.documentElement.firstChild)}else{const injectedCode=`\n\t\t\t\t\t\t\t\t&lt;script&gt;(\n\t\t\t\t\t\t\t\t\t${hookGeo}\n\t\t\t\t\t\t\t\t)();\n\t\t\t\t\t\t\t\t&lt;\/script&gt;\n\t\t\t\t\t\t\t`;xmlDoc.documentElement.insertAdjacentHTML(&quot;afterbegin&quot;,injectedCode)}!0===mimeType.useXMLparser?args[0]=[(new XMLSerializer).serializeToString(xmlDoc)]:args[0][0]=xmlDoc.documentElement.outerHTML}}}return((constructor,args)=&gt;{const bind=Function.bind;return new(bind.bind(bind)(constructor,null).apply(null,args))})(_Blob,args)}let propNames=Object.getOwnPropertyNames(_Blob);for(let i=0;i&lt;propNames.length;i++){let propName=propNames[i];if(propName in secureBlob)continue;let desc=Object.getOwnPropertyDescriptor(_Blob,propName);Object.defineProperty(secureBlob,propName,desc)}return secureBlob.prototype=_Blob.prototype,secureBlob}(Blob),&quot;undefined&quot;!=typeof chrome?setInterval((()=&gt;{chrome.runtime.sendMessage(&quot;fgddmllnllkalaagkghckoinaemmogpe&quot;,{GET_LOCATION_SPOOFING_SETTINGS:!0},(response=&gt;{updateHookedObj(response)}))}),500):void 0!==eventName&amp;&amp;document.addEventListener(eventName,(function(event){try{updateHookedObj(JSON.parse(event.detail))}catch(ex){}}))})();</script>
  <path
     d="m 160.70938,0.84098367 c -8.454,1.83400003 -18.856,3.71000003 -34.5,6.22300003 -12.425,1.995 -25.07,5.2390003 -27.499997,7.0530003 -0.55,0.411 -3.755,1.06 -7.121,1.442 -5.847,0.663 -6.558,0.489 -15.864,-3.889 -5.358,-2.5210003 -10.125,-4.5830003 -10.593,-4.5830003 -0.469,0 -1.287,-0.814 -1.82,-1.809 -0.844,-1.577 -2.229,-1.787 -10.785,-1.634 -5.399,0.096 -14.992,0.494 -21.317,0.884 -10.313,0.635 -12.254,1.071 -18.805,4.216 C 4.6923831,12.445984 4.3573831,12.865984 0.97738307,23.088984 c -1.208,3.653 -1.27,5.361 -0.331,9.061 1.40500003,5.53 4.78900003,10.497 8.39200003,12.314 4.2259999,2.132 15.2129999,5.377 20.5789999,6.08 2.7,0.353 5.738,1.086 6.752,1.629 2.09,1.118 4.189,5.612 5.238,11.218 1.449,7.735 7.691,17.227 18.852,28.67 5.912,6.061 10.75,11.831996 10.75,12.822996 0,0.992 0.4,2.231 0.889,2.753 1.389,1.483 4.111,11.88 4.111,15.699 0,3.899 -1.281,5.254 -8.333,8.812 -2.659,1.342 -5.686,3.619 -6.728,5.062 l -1.894,2.623 3.727,0.616 c 2.051,0.339 6.193,0.621 9.206,0.627 5.172,0.01 5.695,-0.226 9.35,-4.225 2.13,-2.329 4.745,-5.817 5.812,-7.75 1.918,-3.474 3.816,-6.208 9.047,-13.033 1.478,-1.928 2.921,-4.793 3.206,-6.366 0.286,-1.573 0.729997,-3.072 0.987997,-3.33 0.259,-0.258 7.816,-0.436 16.794,-0.395 8.979,0.041 19.025,-0.384 22.325,-0.946 9.1,-1.547 25.445,-2.521 30.5,-1.817 7.603,1.059 14.656,3.412 17.839,5.951 1.67,1.332 4.189,3.231 5.599,4.219 1.409,0.988 2.562,2.651 2.562,3.695 0,1.981 -7.235,9.373 -11.205,11.448 -4.26,2.227 -10.622,6.472 -11.27,7.519 -0.395,0.639 0.635,1.053 2.666,1.071 2.732,0.026 3.004,0.208 1.559,1.05 -3.718,2.166 -1.454,2.92 8.762,2.92 h 10.512 l 10.131,-9.5 c 5.572,-5.225 10.48,-9.5 10.907,-9.5 1.454,0 5.238,-7.214 5.338,-10.177 0.097,-2.874 5.007,-10.531 17.093,-26.659996 l 4.993,-6.663 -0.002,-14 c -0.002,-13.123 -0.179,-14.42 -2.835,-20.714 -5.066,-12.005 -24.977,-29.358 -43.837,-38.2050003 -10.12,-4.74600003 -28.189,-7.023 -38.312,-4.82700003"
     stroke="none"
     fill="#8e7766"
     fill-rule="evenodd"
     id="path1"
     style="fill:#ffffff;fill-opacity:1" />
</svg>
