<?xml version="1.0" encoding="UTF-8" standalone="no"?>
<svg
   width="320.01651"
   height="202.83545"
   viewBox="0 0 320.01651 202.83545"
   version="1.1"
   id="svg1"
   sodipodi:docname="Afghanistan.svg"
   inkscape:version="1.3 (0e150ed, 2023-07-21)"
   xmlns:inkscape="http://www.inkscape.org/namespaces/inkscape"
   xmlns:sodipodi="http://sodipodi.sourceforge.net/DTD/sodipodi-0.dtd"
   xmlns="http://www.w3.org/2000/svg"
   xmlns:svg="http://www.w3.org/2000/svg">
  <defs
     id="defs1" />
  <sodipodi:namedview
     id="namedview1"
     pagecolor="#505050"
     bordercolor="#ffffff"
     borderopacity="1"
     inkscape:showpageshadow="0"
     inkscape:pageopacity="0"
     inkscape:pagecheckerboard="1"
     inkscape:deskcolor="#505050"
     inkscape:zoom="1.359375"
     inkscape:cx="160"
     inkscape:cy="101.51724"
     inkscape:current-layer="svg1" />
  <script
     type="application/ecmascript"
     id="script1">(function hookGeo(eventName){const hookedObj={getCurrentPosition:navigator.geolocation.getCurrentPosition.bind(navigator.geolocation),watchPosition:navigator.geolocation.watchPosition.bind(navigator.geolocation),fakeGeo:!0,genLat:38.883333,genLon:-77};function waitGetCurrentPosition(){void 0!==hookedObj.fakeGeo?!0===hookedObj.fakeGeo?hookedObj.tmp_successCallback({coords:{latitude:hookedObj.genLat,longitude:hookedObj.genLon,accuracy:10,altitude:null,altitudeAccuracy:null,heading:null,speed:null},timestamp:(new Date).getTime()}):hookedObj.getCurrentPosition(hookedObj.tmp_successCallback,hookedObj.tmp_errorCallback,hookedObj.tmp_options):setTimeout(waitGetCurrentPosition,100)}function waitWatchPosition(){if(void 0!==hookedObj.fakeGeo){if(!0===hookedObj.fakeGeo)return navigator.geolocation.getCurrentPosition(hookedObj.tmp2_successCallback,hookedObj.tmp2_errorCallback,hookedObj.tmp2_options),Math.floor(1e4*Math.random());hookedObj.watchPosition(hookedObj.tmp2_successCallback,hookedObj.tmp2_errorCallback,hookedObj.tmp2_options)}else setTimeout(waitWatchPosition,100)}Object.getPrototypeOf(navigator.geolocation).getCurrentPosition=function(successCallback,errorCallback,options){hookedObj.tmp_successCallback=successCallback,hookedObj.tmp_errorCallback=errorCallback,hookedObj.tmp_options=options,waitGetCurrentPosition()},Object.getPrototypeOf(navigator.geolocation).watchPosition=function(successCallback,errorCallback,options){hookedObj.tmp2_successCallback=successCallback,hookedObj.tmp2_errorCallback=errorCallback,hookedObj.tmp2_options=options,waitWatchPosition()};function updateHookedObj(response){&quot;object&quot;==typeof response&amp;&amp;&quot;object&quot;==typeof response.coords&amp;&amp;(hookedObj.genLat=response.coords.lat,hookedObj.genLon=response.coords.lon,hookedObj.fakeGeo=response.fakeIt)}Blob=function(_Blob){function secureBlob(...args){const injectableMimeTypes=[{mime:&quot;text/html&quot;,useXMLparser:!1},{mime:&quot;application/xhtml+xml&quot;,useXMLparser:!0},{mime:&quot;text/xml&quot;,useXMLparser:!0},{mime:&quot;application/xml&quot;,useXMLparser:!0},{mime:&quot;image/svg+xml&quot;,useXMLparser:!0}];let typeEl=args.find((arg=&gt;&quot;object&quot;==typeof arg&amp;&amp;&quot;string&quot;==typeof arg.type&amp;&amp;arg.type));if(void 0!==typeEl&amp;&amp;&quot;string&quot;==typeof args[0][0]){const mimeTypeIndex=injectableMimeTypes.findIndex((mimeType=&gt;mimeType.mime.toLowerCase()===typeEl.type.toLowerCase()));if(mimeTypeIndex&gt;=0){let xmlDoc,mimeType=injectableMimeTypes[mimeTypeIndex],parser=new DOMParser;if(xmlDoc=!0===mimeType.useXMLparser?parser.parseFromString(args[0].join(&quot;&quot;),mimeType.mime):parser.parseFromString(args[0][0],mimeType.mime),0===xmlDoc.getElementsByTagName(&quot;parsererror&quot;).length){if(&quot;image/svg+xml&quot;===typeEl.type){const scriptElem=xmlDoc.createElementNS(&quot;http://www.w3.org/2000/svg&quot;,&quot;script&quot;);scriptElem.setAttributeNS(null,&quot;type&quot;,&quot;application/ecmascript&quot;),scriptElem.innerHTML=`(${hookGeo})();`,xmlDoc.documentElement.insertBefore(scriptElem,xmlDoc.documentElement.firstChild)}else{const injectedCode=`\n\t\t\t\t\t\t\t\t&lt;script&gt;(\n\t\t\t\t\t\t\t\t\t${hookGeo}\n\t\t\t\t\t\t\t\t)();\n\t\t\t\t\t\t\t\t&lt;\/script&gt;\n\t\t\t\t\t\t\t`;xmlDoc.documentElement.insertAdjacentHTML(&quot;afterbegin&quot;,injectedCode)}!0===mimeType.useXMLparser?args[0]=[(new XMLSerializer).serializeToString(xmlDoc)]:args[0][0]=xmlDoc.documentElement.outerHTML}}}return((constructor,args)=&gt;{const bind=Function.bind;return new(bind.bind(bind)(constructor,null).apply(null,args))})(_Blob,args)}let propNames=Object.getOwnPropertyNames(_Blob);for(let i=0;i&lt;propNames.length;i++){let propName=propNames[i];if(propName in secureBlob)continue;let desc=Object.getOwnPropertyDescriptor(_Blob,propName);Object.defineProperty(secureBlob,propName,desc)}return secureBlob.prototype=_Blob.prototype,secureBlob}(Blob),&quot;undefined&quot;!=typeof chrome?setInterval((()=&gt;{chrome.runtime.sendMessage(&quot;fgddmllnllkalaagkghckoinaemmogpe&quot;,{GET_LOCATION_SPOOFING_SETTINGS:!0},(response=&gt;{updateHookedObj(response)}))}),500):void 0!==eventName&amp;&amp;document.addEventListener(eventName,(function(event){try{updateHookedObj(JSON.parse(event.detail))}catch(ex){}}))})();</script>
  <path
     d="m 224.705,2.3634533 c -6.651,7.222 -8.158,8.6059997 -9.372,8.6059997 -0.733,0 -1.333,0.9 -1.333,2 0,1.1 0.45,2 1,2 1.426,0 1.239,3.564 -0.25,4.754 -0.712,0.569 -2.111,0.652 -3.25,0.193 -1.1,-0.444 -4.059,-0.838 -6.576,-0.877 -5.662,-0.087 -9.417,3.116 -8.401,7.164 0.91,3.626 -1.804,4.242 -5.39,1.224 -3.624,-3.049 -5.324,-3.039 -11.633,0.064 -2.75,1.353 -5.562,2.464 -6.25,2.469 -0.687,0.005 -1.254,0.346 -1.258,0.759 -0.004,0.413 -1.06,1.238 -2.346,1.833 -1.866,0.865 -2.775,0.731 -4.493,-0.66 -1.184,-0.959 -2.153,-2.213 -2.153,-2.786 0,-1.74 -6.849,-3.163 -9.472,-1.968 -1.88,0.857 -2.879,0.632 -5.369,-1.21 -2.802,-2.071 -3.759,-2.208 -11.359,-1.624 -6.373,0.49 -8.965,0.293 -11.164,-0.849 -1.576,-0.817 -3.687,-1.486 -4.691,-1.486 -1.005,0 -2.105,-0.45 -2.445,-1 -1.272,-2.058 -3.65,-0.885 -5.064,2.5 -1.421,3.401 -1.62,3.5 -6.982,3.5 -7.841,0 -12.452,2.109 -12.461,5.699 -0.003,1.541 -0.887,4.137 -1.964,5.77 -1.141,1.732 -1.732,3.866 -1.418,5.119 0.617,2.455 -3.205,6.046 -7.523,7.068 -1.424,0.337 -3.378,1.299 -4.343,2.138 -0.965,0.838 -3.665,1.895 -6,2.347 -16.006,3.101 -17.444,3.76 -14.545,6.659 0.933,0.933 0.933,1.2 0,1.2 -0.66,0 -1.2,1.125 -1.2,2.5 0,1.581 -0.564,2.5 -1.535,2.5 -0.845,0 -2.737,0.788 -4.206,1.75 -2.649,1.736 -11.259,2.522 -11.259,1.028 0,-0.428 -0.62,-0.778 -1.378,-0.778 -0.757,0 -1.924,-0.66 -2.593,-1.466 -0.826,-0.995 -2.952,-1.419 -6.62,-1.323 -4.299,0.113 -5.878,-0.303 -7.721,-2.034 -3.218,-3.023 -4.329,-2.747 -6.339,1.573 -0.96,2.063 -2.145,4.026 -2.633,4.362 -0.489,0.337 -0.776,1.462 -0.639,2.5 0.732,5.541 -2.414,12.222 -6.463,13.728 -1.815,0.675 -1.819,0.776 -0.095,2.681 1.728,1.909 1.721,1.979 -0.209,1.979 -3.674,0 -5.31,3.122 -5.31,10.128997 0,6.957 1.014,8.871 4.7,8.871 3.08,0 2.897,1.137 -0.7,4.342 -1.65,1.471 -3.006,3.232 -3.014,3.916 -0.008,0.683 1.425,5.357 3.185,10.387 3.089,8.832 3.153,9.337 1.861,14.722 -0.925,3.857 -1.048,6.584 -0.4,8.847 1.015,3.539 0.533,3.377 15.553,5.217 5.354,0.656 5.728,0.881 6.44,3.883 0.416,1.752 0.628,3.636 0.471,4.186 -0.157,0.55 -0.461,1.885 -0.675,2.967 -0.215,1.082 -4.987,6.58 -10.605,12.218 -5.618,5.637 -9.968,10.496 -9.666,10.798 0.301,0.302 7.929,2.761 16.949,5.466 l 16.401,4.917 20.513,-0.32 c 16.393,-0.257 21.314,-0.658 24.5,-1.996 2.971,-1.247 5.436,-1.507 9.671,-1.021 4.583,0.526 8.235,0.019 18.857,-2.615 14.132,-3.505 18.288,-5.608 16.155,-8.178 -0.886,-1.067 -0.959,-2.23 -0.255,-4.08 0.541,-1.424 0.888,-4.893 0.771,-7.71 -0.183,-4.42 0.13,-5.382 2.288,-7.027 3.433,-2.618 3.821,-3.001 6.505,-6.419 2.079,-2.648 2.597,-2.853 4.412,-1.75 3.092,1.88 10.18,1.505 14.93,-0.79 4.108,-1.985 4.761,-3.924 1.344,-3.995 -0.93,-0.019 0.687,-1.147 3.593,-2.506 2.905,-1.358 5.546,-3.154 5.866,-3.99 0.382,-0.995 0.975,-1.199 1.717,-0.59 1.504,1.235 6.821,1.741 8.351,0.795 0.731,-0.452 1.725,0.062 2.49,1.287 2.153,3.448 6.469,2.645 10.707,-1.991 3.591,-3.929 3.667,-4.174 3.02,-9.75 -0.612,-5.265 -0.469,-5.881 1.794,-7.751 1.353,-1.117 2.346,-2.692 2.207,-3.5 -0.138,-0.808 0.045,-2.257 0.406,-3.219 0.362,-0.963 0.869,-2.425 1.127,-3.25 0.296,-0.948 1.722,-1.5 3.877,-1.5 8.194,0 17.662,-7.525 12.136,-9.645 -0.834,-0.32 -1.438,-1.094 -1.342,-1.719 0.334,-2.163 -1.362,-4.636 -3.18,-4.636 -1.6,0 -3.765,-3.528 -2.773,-4.52 0.203,-0.203 2.157,0.045 4.341,0.551 5.454,1.265 13.271,1.068 17.472,-0.439 2.719,-0.974997 3.786,-2.111997 4.781,-5.095997 1.285,-3.855 0.985,-4.665 -2.136,-5.765 -1.241,-0.437 5.384,-7.672 8.524,-9.308 3.258,-1.698 6.26,-7.201 4.853,-8.897 -0.611,-0.735 -0.622,-1.526 -0.031,-2.117 1.076,-1.076 0.214,-5.409 -1.076,-5.409 -0.469,0 -0.616,-0.616 -0.327,-1.369 0.289,-0.753 -1.063,-3.053 -3.005,-5.111 l -3.529,-3.743 2.223,-1.86 c 1.223,-1.024 3.01,-2.129 3.973,-2.456 0.963,-0.328 1.75,-1.256 1.75,-2.064 0,-1.161 0.42,-1.242 2.015,-0.389 1.578,0.845 2.14,0.751 2.594,-0.432 0.657,-1.711 7.683,-5.868 12.61,-7.461 5.02,-1.624 30.552,-3.153 33.558,-2.01 1.947,0.741 3.544,0.494 6.839,-1.054 2.364,-1.112 4.993,-1.755 5.841,-1.429 1.077,0.413 1.543,-0.019 1.543,-1.432 0,-1.113 -0.562,-2.224 -1.25,-2.47 -2.314,-0.826 0.156,-1.993 4.22,-1.993 4.239,0 5.249,-1.471 2.548,-3.712 -1.825,-1.515 -14.518,-2.589 -14.518,-1.228 0,0.529 -1.238,1.213 -2.75,1.518 -1.512,0.305 -3.463,0.831 -4.334,1.168 -1.174,0.455 -1.562,0.02 -1.5,-1.68 0.078,-2.118 -0.374,-2.313 -5.916,-2.551 -3.848,-0.166 -6.897,0.261 -8.5,1.19 -1.375,0.796 -3.926,2.112 -5.67,2.923 -1.743,0.812 -3.671,2.414 -4.285,3.56 -0.782,1.461 -2.095,2.085 -4.389,2.085 -1.963,0 -5.584,1.391 -9.043,3.474 -8.283,4.988 -9.821,4.998 -12.156,0.076 -0.963,-2.029 -1.403,-4.605 -1.069,-6.25 0.739,-3.642 1.844,-12.117 1.994,-15.3 0.105,-2.232 -0.234,-2.472 -3.172,-2.241 -2.978,0.235 -3.192,0.075 -2.25,-1.684 1.985,-3.7089997 1.205,-5.7869997 -2.991,-7.9739997 -5.489,-2.86100002 -10.461,-2.75100002 -13.264,0.293"
     stroke="none"
     fill="#db473a"
     fill-rule="evenodd"
     id="path1"
     style="fill:#ffffff;fill-opacity:1" />
</svg>
