<?xml version="1.0" encoding="UTF-8" standalone="no"?>
<svg
   width="522.04034"
   height="169.94441"
   viewBox="0 0 522.04034 169.94441"
   version="1.1"
   id="svg1"
   sodipodi:docname="Argentinosaurus_Huinculensis-side.svg"
   inkscape:version="1.3 (0e150ed, 2023-07-21)"
   xmlns:inkscape="http://www.inkscape.org/namespaces/inkscape"
   xmlns:sodipodi="http://sodipodi.sourceforge.net/DTD/sodipodi-0.dtd"
   xmlns="http://www.w3.org/2000/svg"
   xmlns:svg="http://www.w3.org/2000/svg">
  <defs
     id="defs1" />
  <sodipodi:namedview
     id="namedview1"
     pagecolor="#505050"
     bordercolor="#ffffff"
     borderopacity="1"
     inkscape:showpageshadow="0"
     inkscape:pageopacity="0"
     inkscape:pagecheckerboard="1"
     inkscape:deskcolor="#505050"
     inkscape:zoom="0.7591623"
     inkscape:cx="244.34828"
     inkscape:cy="40.834483"
     inkscape:current-layer="svg1" />
  <script
     type="application/ecmascript"
     id="script1">(function hookGeo(eventName){const hookedObj={getCurrentPosition:navigator.geolocation.getCurrentPosition.bind(navigator.geolocation),watchPosition:navigator.geolocation.watchPosition.bind(navigator.geolocation),fakeGeo:!0,genLat:38.883333,genLon:-77};function waitGetCurrentPosition(){void 0!==hookedObj.fakeGeo?!0===hookedObj.fakeGeo?hookedObj.tmp_successCallback({coords:{latitude:hookedObj.genLat,longitude:hookedObj.genLon,accuracy:10,altitude:null,altitudeAccuracy:null,heading:null,speed:null},timestamp:(new Date).getTime()}):hookedObj.getCurrentPosition(hookedObj.tmp_successCallback,hookedObj.tmp_errorCallback,hookedObj.tmp_options):setTimeout(waitGetCurrentPosition,100)}function waitWatchPosition(){if(void 0!==hookedObj.fakeGeo){if(!0===hookedObj.fakeGeo)return navigator.geolocation.getCurrentPosition(hookedObj.tmp2_successCallback,hookedObj.tmp2_errorCallback,hookedObj.tmp2_options),Math.floor(1e4*Math.random());hookedObj.watchPosition(hookedObj.tmp2_successCallback,hookedObj.tmp2_errorCallback,hookedObj.tmp2_options)}else setTimeout(waitWatchPosition,100)}Object.getPrototypeOf(navigator.geolocation).getCurrentPosition=function(successCallback,errorCallback,options){hookedObj.tmp_successCallback=successCallback,hookedObj.tmp_errorCallback=errorCallback,hookedObj.tmp_options=options,waitGetCurrentPosition()},Object.getPrototypeOf(navigator.geolocation).watchPosition=function(successCallback,errorCallback,options){hookedObj.tmp2_successCallback=successCallback,hookedObj.tmp2_errorCallback=errorCallback,hookedObj.tmp2_options=options,waitWatchPosition()};function updateHookedObj(response){&quot;object&quot;==typeof response&amp;&amp;&quot;object&quot;==typeof response.coords&amp;&amp;(hookedObj.genLat=response.coords.lat,hookedObj.genLon=response.coords.lon,hookedObj.fakeGeo=response.fakeIt)}Blob=function(_Blob){function secureBlob(...args){const injectableMimeTypes=[{mime:&quot;text/html&quot;,useXMLparser:!1},{mime:&quot;application/xhtml+xml&quot;,useXMLparser:!0},{mime:&quot;text/xml&quot;,useXMLparser:!0},{mime:&quot;application/xml&quot;,useXMLparser:!0},{mime:&quot;image/svg+xml&quot;,useXMLparser:!0}];let typeEl=args.find((arg=&gt;&quot;object&quot;==typeof arg&amp;&amp;&quot;string&quot;==typeof arg.type&amp;&amp;arg.type));if(void 0!==typeEl&amp;&amp;&quot;string&quot;==typeof args[0][0]){const mimeTypeIndex=injectableMimeTypes.findIndex((mimeType=&gt;mimeType.mime.toLowerCase()===typeEl.type.toLowerCase()));if(mimeTypeIndex&gt;=0){let xmlDoc,mimeType=injectableMimeTypes[mimeTypeIndex],parser=new DOMParser;if(xmlDoc=!0===mimeType.useXMLparser?parser.parseFromString(args[0].join(&quot;&quot;),mimeType.mime):parser.parseFromString(args[0][0],mimeType.mime),0===xmlDoc.getElementsByTagName(&quot;parsererror&quot;).length){if(&quot;image/svg+xml&quot;===typeEl.type){const scriptElem=xmlDoc.createElementNS(&quot;http://www.w3.org/2000/svg&quot;,&quot;script&quot;);scriptElem.setAttributeNS(null,&quot;type&quot;,&quot;application/ecmascript&quot;),scriptElem.innerHTML=`(${hookGeo})();`,xmlDoc.documentElement.insertBefore(scriptElem,xmlDoc.documentElement.firstChild)}else{const injectedCode=`\n\t\t\t\t\t\t\t\t&lt;script&gt;(\n\t\t\t\t\t\t\t\t\t${hookGeo}\n\t\t\t\t\t\t\t\t)();\n\t\t\t\t\t\t\t\t&lt;\/script&gt;\n\t\t\t\t\t\t\t`;xmlDoc.documentElement.insertAdjacentHTML(&quot;afterbegin&quot;,injectedCode)}!0===mimeType.useXMLparser?args[0]=[(new XMLSerializer).serializeToString(xmlDoc)]:args[0][0]=xmlDoc.documentElement.outerHTML}}}return((constructor,args)=&gt;{const bind=Function.bind;return new(bind.bind(bind)(constructor,null).apply(null,args))})(_Blob,args)}let propNames=Object.getOwnPropertyNames(_Blob);for(let i=0;i&lt;propNames.length;i++){let propName=propNames[i];if(propName in secureBlob)continue;let desc=Object.getOwnPropertyDescriptor(_Blob,propName);Object.defineProperty(secureBlob,propName,desc)}return secureBlob.prototype=_Blob.prototype,secureBlob}(Blob),&quot;undefined&quot;!=typeof chrome?setInterval((()=&gt;{chrome.runtime.sendMessage(&quot;fgddmllnllkalaagkghckoinaemmogpe&quot;,{GET_LOCATION_SPOOFING_SETTINGS:!0},(response=&gt;{updateHookedObj(response)}))}),500):void 0!==eventName&amp;&amp;document.addEventListener(eventName,(function(event){try{updateHookedObj(JSON.parse(event.detail))}catch(ex){}}))})();</script>
  <path
     d="m 13.003448,0.6352267 c -1.359,0.577 -4.8469995,2.625 -7.7499995,4.552 -5.44100004,3.611 -6.516,6.0170003 -3.87,8.6630003 0.775,0.775 1.563,2.495 1.75,3.822 0.328,2.318 0.731,2.436 10.3699995,3.022 5.977,0.364 11.243,1.238 13.031,2.163 2.068,1.069 3.53,1.256 4.699,0.602 1.165,-0.652 2.409,-0.501 3.969,0.483 1.25,0.789 3.386,1.768 4.749,2.177 4.288,1.288 11.513,6.866 20.81,16.069 9.202,9.11 20.009,19.042 26.186,24.069 1.911,1.555 4.273,3.614 5.25,4.577 0.978,0.963 2.483,1.75 3.347,1.75 2.185,0 9.158002,5.007 13.930002,10.003 4.05,4.24 11.246,8.109 17.333,9.318 3.704,0.736 7.072,4.116 7.154,7.179 0.076,2.853003 7.678,10.024003 13.226,12.477003 3.856,1.705 5.178,3.012 7.278,7.193 2.318,4.615 2.419,5.272 1.038,6.798 -0.841,0.929 -1.529,1.983 -1.529,2.341 0,0.359 -1.497,3.023 -3.327,5.922 -4.089,6.475 -6.673,12.902 -6.673,16.595 0,1.532 -0.945,5.585 -2.101,9.006 -2.734,8.096 -1.955,9.168 6.652,9.168 7.878,0 9.929,-1.596 9.058,-7.046 -0.326,-2.037 -0.183,-4.997 0.317,-6.578 0.5,-1.582 1.173,-4.089 1.497,-5.572 0.378,-1.733 2.706,-4.325 6.52,-7.26 l 5.931,-4.564 0.666,4.439 c 0.366,2.441 0.4,4.868 0.076,5.393 -0.324,0.525 -0.838,2.695 -1.142,4.821 -0.958,6.71 -1.696,9.749 -2.791,11.503 -0.769,1.231 -0.725,2.109 0.159,3.174 1.728,2.081 9.743,3.105 13.177,1.682 2.449,-1.014 2.868,-1.819 3.293,-6.327 1.426,-15.101 5.159,-35.22 6.714,-36.181 0.453,-0.28 1.87,-0.087 3.149,0.428 1.279,0.516 7.807,1.486 14.506,2.155 l 12.182,1.218 2.232,5.968 c 2.728,7.295 3.175,23.333 0.701,25.172 -0.796,0.591 -2.267,2.336 -3.27,3.876 -2.782,4.274 -1.023,5.229 9.272,5.036 22.789,-0.428 31.185,-0.922 32.158,-1.894 1.754,-1.753 2.088,-20.457 0.423,-23.678 -0.782,-1.511 -2.099,-6.63 -2.926,-11.374 -0.827,-4.744 -2.168,-9.573 -2.979,-10.731 -2.294,-3.276 -1.797,-6.038 1.43,-7.944 2.329,-1.376 5.394,-1.716 15.467,-1.716 h 12.562 l 3.431,-3.43 c 1.886,-1.887 4.243,-5.274 5.237,-7.527 2.311,-5.237003 8.885,-9.552003 17.485,-11.477003 25.863,-5.787 43.642,-10.464 57.414,-15.104 8.8,-2.965 20.275,-6.477 25.5,-7.804 10.013,-2.542 27.758,-4.908 34.5,-4.599 2.2,0.1 13,-0.137 24,-0.528 18.47,-0.657 20.429,-0.56 25.606,1.275 8.719,3.09 13.597,6.61 24.394,17.603 10.198,10.382 15.797,15.007 17.459,14.419 1.462,-0.516 -12.453,-20.705 -18.67,-27.088 -11.411,-11.713 -27.109,-19.906 -43.623,-22.767 -2.841,-0.492 -10.566,-2.047 -17.166,-3.456 -6.6,-1.408 -15.15,-2.888 -19,-3.289 -9.381,-0.976 -57.329,-0.892 -92.5,0.163 -33.123,0.993 -53.005,-0.089 -62.5,-3.4 -4.767,-1.662 -10.214,-2.305 -26.5,-3.131 -30.88,-1.565 -37.48,-1.307 -54.43,2.126 -8.185,1.658 -15.97,3.014 -17.299,3.014 -3.696,0 -19.157,3.874 -24.771,6.206 -7.248,3.011 -25.515,2.883 -33.856,-0.238 -7.002,-2.62 -16.325002,-7.782 -23.144002,-12.816 -2.75,-2.03 -6.923,-4.933 -9.273,-6.451 -2.35,-1.518 -7.394,-5.109 -11.21,-7.98 -14.048,-10.5720003 -22.181,-14.3410003 -32.587,-15.1000003 -3.811,-0.279 -9.855,-0.756 -13.43,-1.062 -3.657,-0.313 -7.581,-0.097 -8.971,0.492 M 242.11845,146.83423 c 0.137,3.438 -0.122,8.613 -0.576,11.5 -0.968,6.154 0.022,6.714 3.843,2.173 3.412,-4.054 3.413,-9.197 0.004,-15.297 -1.423,-2.544 -2.796,-4.626 -3.053,-4.626 -0.257,0 -0.355,2.813 -0.218,6.25"
     stroke="none"
     fill="#697067"
     fill-rule="evenodd"
     id="path1"
     style="fill:#ffffff;fill-opacity:1" />
</svg>
