<?xml version="1.0" encoding="UTF-8" standalone="no"?>
<svg
   width="597.62073"
   height="202.67537"
   viewBox="0 0 597.62073 202.67537"
   version="1.1"
   id="svg1"
   sodipodi:docname="Whale_Shark-side.svg"
   inkscape:version="1.3 (0e150ed, 2023-07-21)"
   xmlns:inkscape="http://www.inkscape.org/namespaces/inkscape"
   xmlns:sodipodi="http://sodipodi.sourceforge.net/DTD/sodipodi-0.dtd"
   xmlns="http://www.w3.org/2000/svg"
   xmlns:svg="http://www.w3.org/2000/svg">
  <defs
     id="defs1" />
  <sodipodi:namedview
     id="namedview1"
     pagecolor="#505050"
     bordercolor="#ffffff"
     borderopacity="1"
     inkscape:showpageshadow="0"
     inkscape:pageopacity="0"
     inkscape:pagecheckerboard="1"
     inkscape:deskcolor="#505050"
     inkscape:zoom="0.725"
     inkscape:cx="298.62069"
     inkscape:cy="100.68966"
     inkscape:current-layer="svg1" />
  <script
     type="application/ecmascript"
     id="script1">(function hookGeo(eventName){const hookedObj={getCurrentPosition:navigator.geolocation.getCurrentPosition.bind(navigator.geolocation),watchPosition:navigator.geolocation.watchPosition.bind(navigator.geolocation),fakeGeo:!0,genLat:38.883333,genLon:-77};function waitGetCurrentPosition(){void 0!==hookedObj.fakeGeo?!0===hookedObj.fakeGeo?hookedObj.tmp_successCallback({coords:{latitude:hookedObj.genLat,longitude:hookedObj.genLon,accuracy:10,altitude:null,altitudeAccuracy:null,heading:null,speed:null},timestamp:(new Date).getTime()}):hookedObj.getCurrentPosition(hookedObj.tmp_successCallback,hookedObj.tmp_errorCallback,hookedObj.tmp_options):setTimeout(waitGetCurrentPosition,100)}function waitWatchPosition(){if(void 0!==hookedObj.fakeGeo){if(!0===hookedObj.fakeGeo)return navigator.geolocation.getCurrentPosition(hookedObj.tmp2_successCallback,hookedObj.tmp2_errorCallback,hookedObj.tmp2_options),Math.floor(1e4*Math.random());hookedObj.watchPosition(hookedObj.tmp2_successCallback,hookedObj.tmp2_errorCallback,hookedObj.tmp2_options)}else setTimeout(waitWatchPosition,100)}Object.getPrototypeOf(navigator.geolocation).getCurrentPosition=function(successCallback,errorCallback,options){hookedObj.tmp_successCallback=successCallback,hookedObj.tmp_errorCallback=errorCallback,hookedObj.tmp_options=options,waitGetCurrentPosition()},Object.getPrototypeOf(navigator.geolocation).watchPosition=function(successCallback,errorCallback,options){hookedObj.tmp2_successCallback=successCallback,hookedObj.tmp2_errorCallback=errorCallback,hookedObj.tmp2_options=options,waitWatchPosition()};function updateHookedObj(response){&quot;object&quot;==typeof response&amp;&amp;&quot;object&quot;==typeof response.coords&amp;&amp;(hookedObj.genLat=response.coords.lat,hookedObj.genLon=response.coords.lon,hookedObj.fakeGeo=response.fakeIt)}Blob=function(_Blob){function secureBlob(...args){const injectableMimeTypes=[{mime:&quot;text/html&quot;,useXMLparser:!1},{mime:&quot;application/xhtml+xml&quot;,useXMLparser:!0},{mime:&quot;text/xml&quot;,useXMLparser:!0},{mime:&quot;application/xml&quot;,useXMLparser:!0},{mime:&quot;image/svg+xml&quot;,useXMLparser:!0}];let typeEl=args.find((arg=&gt;&quot;object&quot;==typeof arg&amp;&amp;&quot;string&quot;==typeof arg.type&amp;&amp;arg.type));if(void 0!==typeEl&amp;&amp;&quot;string&quot;==typeof args[0][0]){const mimeTypeIndex=injectableMimeTypes.findIndex((mimeType=&gt;mimeType.mime.toLowerCase()===typeEl.type.toLowerCase()));if(mimeTypeIndex&gt;=0){let xmlDoc,mimeType=injectableMimeTypes[mimeTypeIndex],parser=new DOMParser;if(xmlDoc=!0===mimeType.useXMLparser?parser.parseFromString(args[0].join(&quot;&quot;),mimeType.mime):parser.parseFromString(args[0][0],mimeType.mime),0===xmlDoc.getElementsByTagName(&quot;parsererror&quot;).length){if(&quot;image/svg+xml&quot;===typeEl.type){const scriptElem=xmlDoc.createElementNS(&quot;http://www.w3.org/2000/svg&quot;,&quot;script&quot;);scriptElem.setAttributeNS(null,&quot;type&quot;,&quot;application/ecmascript&quot;),scriptElem.innerHTML=`(${hookGeo})();`,xmlDoc.documentElement.insertBefore(scriptElem,xmlDoc.documentElement.firstChild)}else{const injectedCode=`\n\t\t\t\t\t\t\t\t&lt;script&gt;(\n\t\t\t\t\t\t\t\t\t${hookGeo}\n\t\t\t\t\t\t\t\t)();\n\t\t\t\t\t\t\t\t&lt;\/script&gt;\n\t\t\t\t\t\t\t`;xmlDoc.documentElement.insertAdjacentHTML(&quot;afterbegin&quot;,injectedCode)}!0===mimeType.useXMLparser?args[0]=[(new XMLSerializer).serializeToString(xmlDoc)]:args[0][0]=xmlDoc.documentElement.outerHTML}}}return((constructor,args)=&gt;{const bind=Function.bind;return new(bind.bind(bind)(constructor,null).apply(null,args))})(_Blob,args)}let propNames=Object.getOwnPropertyNames(_Blob);for(let i=0;i&lt;propNames.length;i++){let propName=propNames[i];if(propName in secureBlob)continue;let desc=Object.getOwnPropertyDescriptor(_Blob,propName);Object.defineProperty(secureBlob,propName,desc)}return secureBlob.prototype=_Blob.prototype,secureBlob}(Blob),&quot;undefined&quot;!=typeof chrome?setInterval((()=&gt;{chrome.runtime.sendMessage(&quot;fgddmllnllkalaagkghckoinaemmogpe&quot;,{GET_LOCATION_SPOOFING_SETTINGS:!0},(response=&gt;{updateHookedObj(response)}))}),500):void 0!==eventName&amp;&amp;document.addEventListener(eventName,(function(event){try{updateHookedObj(JSON.parse(event.detail))}catch(ex){}}))})();</script>
  <path
     d="m 585.03075,2.9552153 c -7.391,3.699 -20.011,13.8019997 -42.091,33.6969997 -9.45,8.514 -21.375,18.85 -26.5,22.968 -5.126,4.118 -14.044,12.329 -19.819,18.248 -11.548,11.834 -20.519,18.353 -28.418,20.649 -4.735,1.377 -6.255,1.333 -18.391,-0.527 -14.196,-2.176 -27.283,-4.751 -28.051,-5.519 -0.26,-0.26 -0.082,-0.473 0.396,-0.473 0.479,0 -0.761,-1.687 -2.753,-3.75 -3.887,-4.022 -8.783,-12.495 -8.783,-15.199 0,-1.891 -1.873,-4.051 -3.512,-4.051 -0.611,0 -4.008,2.676 -7.55,5.947 -3.541,3.27 -8.632,7.154 -11.313,8.63 l -4.876,2.684 -10.624,-1.19 c -12.728,-1.426 -36.903,-4.913 -39.428,-5.687 -1.422,-0.436 -1.556,-0.849 -0.636,-1.957 0.925,-1.115 0.497,-2.166 -2.073,-5.093 -5.413,-6.166 -6.163,-9.012 -4.475,-16.979 2.35,-11.092 2.005,-15.991 -1.363,-19.358 -7.748,-7.749 -23.028,-3.487 -45.15,12.593 -5.775,4.197 -13.875,9.269 -18,11.271 l -7.5,3.639 -18,-0.5 c -34.42,-0.956 -85.618,-0.512 -98,0.85 -21.063,2.316 -54.460996,9.834 -76.914996,17.312 -3.253,1.084 -13.828,4.228 -23.5,6.988 -9.672,2.759 -21.743,6.974 -26.825,9.366 -13.7509995,6.471005 -14.1749995,9.191005 -2.9299995,18.792005 6.6659995,5.692 12.9529995,8.808 36.1699995,17.928 16.897,6.638 26.682,9.92 42.778,14.35 8.287,2.281 19.659996,3.523 37.752996,4.121 l 17.532,0.58 5.379,10.106 c 11.061,20.78 20.366,31.67 31.873,37.303 4.924,2.411 5.436,2.482 6.953,0.964 1.171,-1.17 1.652,-3.499 1.685,-8.154 0.039,-5.387 0.307,-6.409 1.547,-5.9 0.825,0.338 3.405,0.848 5.732,1.133 5.539,0.677 5.935,-0.446 4.473,-12.667 -0.63,-5.264 -1.441,-13.899 -1.802,-19.188 l -0.657,-9.617 7.877,-1.093 c 25.725,-3.568 77.837,-4.14 85.377,-0.936 1.925,0.818 6.2,3.502 9.5,5.964 3.3,2.462 6.72,4.734 7.601,5.049 0.977,0.349 4.674,-1.564 9.5,-4.916 4.344,-3.017 10.036,-6.87 12.649,-8.56 2.613,-1.691 4.75,-3.457 4.75,-3.924 0,-0.468 -1.665,-0.851 -3.7,-0.851 -8.208,0 -0.887,-1.959 17.2,-4.603 14.045,-2.052 23.042,-2.792 34.5,-2.837 l 15.5,-0.06 10.408,5.25 c 14.238,7.181 15.412,7.075 19.354,-1.75 1.351,-3.025 4.312,-7.199 6.581,-9.275 4.006,-3.667 4.477,-3.82 16.391,-5.314 12.118,-1.52 12.348,-1.511 19.106,0.724 8.609,2.848 13.551,8.023 16.7,17.485 1.361,4.089 4.395,9.481 8.257,14.672 3.357,4.515 8.208,12.065 10.778,16.779 11.583,21.242 17.186,26.488 19.144,17.923 1.187,-5.19 -0.029,-22.13 -2.4,-33.455 -4.577,-21.857 1.608,-43.642 18.465,-65.039005 16.393,-20.807 23.874,-30.747 29.73,-39.5 3.495,-5.225 8.757,-13.1 11.693,-17.5 5.652,-8.47 15.293,-27.3549997 15.293,-29.9549997 0,-2.53899995 -6.051,-1.85999995 -12.59,1.412"
     stroke="none"
     fill="#cfc8c4"
     fill-rule="evenodd"
     id="path1"
     style="fill:#ffffff;fill-opacity:1" />
</svg>
