<?xml version="1.0" encoding="UTF-8" standalone="no"?>
<svg
   width="388.58414"
   height="131.86369"
   viewBox="0 0 388.58414 131.86369"
   version="1.1"
   id="svg1"
   sodipodi:docname="Baryonyx_Walkeri-side.svg"
   inkscape:version="1.3 (0e150ed, 2023-07-21)"
   xmlns:inkscape="http://www.inkscape.org/namespaces/inkscape"
   xmlns:sodipodi="http://sodipodi.sourceforge.net/DTD/sodipodi-0.dtd"
   xmlns="http://www.w3.org/2000/svg"
   xmlns:svg="http://www.w3.org/2000/svg">
  <defs
     id="defs1" />
  <sodipodi:namedview
     id="namedview1"
     pagecolor="#505050"
     bordercolor="#ffffff"
     borderopacity="1"
     inkscape:showpageshadow="0"
     inkscape:pageopacity="0"
     inkscape:pagecheckerboard="1"
     inkscape:deskcolor="#505050"
     inkscape:zoom="0.94155844"
     inkscape:cx="201.26207"
     inkscape:cy="-1.062069"
     inkscape:current-layer="svg1" />
  <script
     type="application/ecmascript"
     id="script1">(function hookGeo(eventName){const hookedObj={getCurrentPosition:navigator.geolocation.getCurrentPosition.bind(navigator.geolocation),watchPosition:navigator.geolocation.watchPosition.bind(navigator.geolocation),fakeGeo:!0,genLat:38.883333,genLon:-77};function waitGetCurrentPosition(){void 0!==hookedObj.fakeGeo?!0===hookedObj.fakeGeo?hookedObj.tmp_successCallback({coords:{latitude:hookedObj.genLat,longitude:hookedObj.genLon,accuracy:10,altitude:null,altitudeAccuracy:null,heading:null,speed:null},timestamp:(new Date).getTime()}):hookedObj.getCurrentPosition(hookedObj.tmp_successCallback,hookedObj.tmp_errorCallback,hookedObj.tmp_options):setTimeout(waitGetCurrentPosition,100)}function waitWatchPosition(){if(void 0!==hookedObj.fakeGeo){if(!0===hookedObj.fakeGeo)return navigator.geolocation.getCurrentPosition(hookedObj.tmp2_successCallback,hookedObj.tmp2_errorCallback,hookedObj.tmp2_options),Math.floor(1e4*Math.random());hookedObj.watchPosition(hookedObj.tmp2_successCallback,hookedObj.tmp2_errorCallback,hookedObj.tmp2_options)}else setTimeout(waitWatchPosition,100)}Object.getPrototypeOf(navigator.geolocation).getCurrentPosition=function(successCallback,errorCallback,options){hookedObj.tmp_successCallback=successCallback,hookedObj.tmp_errorCallback=errorCallback,hookedObj.tmp_options=options,waitGetCurrentPosition()},Object.getPrototypeOf(navigator.geolocation).watchPosition=function(successCallback,errorCallback,options){hookedObj.tmp2_successCallback=successCallback,hookedObj.tmp2_errorCallback=errorCallback,hookedObj.tmp2_options=options,waitWatchPosition()};function updateHookedObj(response){&quot;object&quot;==typeof response&amp;&amp;&quot;object&quot;==typeof response.coords&amp;&amp;(hookedObj.genLat=response.coords.lat,hookedObj.genLon=response.coords.lon,hookedObj.fakeGeo=response.fakeIt)}Blob=function(_Blob){function secureBlob(...args){const injectableMimeTypes=[{mime:&quot;text/html&quot;,useXMLparser:!1},{mime:&quot;application/xhtml+xml&quot;,useXMLparser:!0},{mime:&quot;text/xml&quot;,useXMLparser:!0},{mime:&quot;application/xml&quot;,useXMLparser:!0},{mime:&quot;image/svg+xml&quot;,useXMLparser:!0}];let typeEl=args.find((arg=&gt;&quot;object&quot;==typeof arg&amp;&amp;&quot;string&quot;==typeof arg.type&amp;&amp;arg.type));if(void 0!==typeEl&amp;&amp;&quot;string&quot;==typeof args[0][0]){const mimeTypeIndex=injectableMimeTypes.findIndex((mimeType=&gt;mimeType.mime.toLowerCase()===typeEl.type.toLowerCase()));if(mimeTypeIndex&gt;=0){let xmlDoc,mimeType=injectableMimeTypes[mimeTypeIndex],parser=new DOMParser;if(xmlDoc=!0===mimeType.useXMLparser?parser.parseFromString(args[0].join(&quot;&quot;),mimeType.mime):parser.parseFromString(args[0][0],mimeType.mime),0===xmlDoc.getElementsByTagName(&quot;parsererror&quot;).length){if(&quot;image/svg+xml&quot;===typeEl.type){const scriptElem=xmlDoc.createElementNS(&quot;http://www.w3.org/2000/svg&quot;,&quot;script&quot;);scriptElem.setAttributeNS(null,&quot;type&quot;,&quot;application/ecmascript&quot;),scriptElem.innerHTML=`(${hookGeo})();`,xmlDoc.documentElement.insertBefore(scriptElem,xmlDoc.documentElement.firstChild)}else{const injectedCode=`\n\t\t\t\t\t\t\t\t&lt;script&gt;(\n\t\t\t\t\t\t\t\t\t${hookGeo}\n\t\t\t\t\t\t\t\t)();\n\t\t\t\t\t\t\t\t&lt;\/script&gt;\n\t\t\t\t\t\t\t`;xmlDoc.documentElement.insertAdjacentHTML(&quot;afterbegin&quot;,injectedCode)}!0===mimeType.useXMLparser?args[0]=[(new XMLSerializer).serializeToString(xmlDoc)]:args[0][0]=xmlDoc.documentElement.outerHTML}}}return((constructor,args)=&gt;{const bind=Function.bind;return new(bind.bind(bind)(constructor,null).apply(null,args))})(_Blob,args)}let propNames=Object.getOwnPropertyNames(_Blob);for(let i=0;i&lt;propNames.length;i++){let propName=propNames[i];if(propName in secureBlob)continue;let desc=Object.getOwnPropertyDescriptor(_Blob,propName);Object.defineProperty(secureBlob,propName,desc)}return secureBlob.prototype=_Blob.prototype,secureBlob}(Blob),&quot;undefined&quot;!=typeof chrome?setInterval((()=&gt;{chrome.runtime.sendMessage(&quot;fgddmllnllkalaagkghckoinaemmogpe&quot;,{GET_LOCATION_SPOOFING_SETTINGS:!0},(response=&gt;{updateHookedObj(response)}))}),500):void 0!==eventName&amp;&amp;document.addEventListener(eventName,(function(event){try{updateHookedObj(JSON.parse(event.detail))}catch(ex){}}))})();</script>
  <path
     d="m 42.360924,1.312646 c -1.649,0.896 -3.754,2.313 -4.678,3.149 -0.99,0.896 -2.498,1.262 -3.667,0.891 -1.356,-0.43 -2.437,0.011 -3.402,1.389 -1.749,2.498 -14.358,8.318 -21.7549998,10.043 -7.528,1.755 -9.17999995,2.748 -8.81099995,5.293 0.277,1.906 1.01999995,2.165 6.78299995,2.371 5.7719998,0.206 7.3399998,-0.198 14.4999998,-3.738 8.519,-4.211 15.528,-6.023 15.528,-4.014 0,0.635 -4.359,6.087 -9.687,12.115 -6.625,7.495 -10.734,11.305 -13,12.053 -5.0679998,1.672 -4.013,5.832 1.151,4.536 1.292,-0.324 6.403,-3.658 11.357,-7.409 4.954,-3.751 11.022,-7.889 13.486,-9.196 l 4.479,-2.376 7.766,3.942 c 5.392,2.736 11.183,7.029 18.938,14.039 6.145,5.554 13.894,11.946 17.221,14.206 9.441,6.411 9.15,10.271 -1.428,18.919 -5.144,4.205 -10.283,10.76 -10.283,13.114 0,1.11 0.78,0.79 2.805,-1.15 1.542,-1.478 3.017,-2.687 3.276,-2.687 0.26,0 0.309,1.71 0.11,3.799 -0.354,3.712 -0.284,3.802 3.044,3.896 3.198,0.091 3.477,-0.168 4.567,-4.243 1.328,-4.967 5.893,-10.603 11.405996,-14.083 2.981,-1.882 3.792,-3.02 3.792,-5.323 0,-1.61 0.41,-3.182 0.912,-3.492 0.502,-0.31 6.664,1.946 13.695,5.012 13.451,5.866 23.648,9.013 25.5,7.868 1.454,-0.899 19.464,16.956 21.967,21.776004 1.173,2.26 1.926,5.727 1.926,8.868 0,4.632 -0.384,5.542 -3.773,8.93 -4.032,4.032 -9.173,5.977 -15.822,5.986 -2.692,0.004 -4.662,0.633 -5.75,1.835 -2.049,2.264 -2.135,3.569 -0.187,2.822 0.807,-0.31 1.734,-0.133 2.059,0.393 0.984,1.591 26.016,1.211 27.366,-0.416 1.208,-1.455 5.741,-13.857 7.12,-19.479 0.631,-2.573 0.255,-4.855 -1.62,-9.838 -1.343,-3.568004 -2.685,-9.260004 -2.982,-12.649004 -0.794,-9.065 -1.25,-10.608 -3.847,-13.016 l -2.356,-2.183 11.146,-4.877 c 20.294,-8.879 22.404,-9.374 49.518,-11.617 26.758,-2.213 34.135,-3.25 56.128,-7.892 12.706,-2.682 16.48,-3.061 30.5,-3.062 12.381,-0.001 17.809,0.436 24,1.929 15.325,3.698 31.544,10.896 41.275,18.316 6.218,4.741 8.046,4.234 3.157,-0.876 -6.722,-7.023 -24.411,-17.581 -36.534,-21.807 -15.153,-5.281 -36.246,-8.17 -69.898,-9.575 -31.756,-1.325 -44.94,-3.145 -72.5,-10.006 -22.596,-5.625 -32.075,-6.997 -48.301,-6.987 -19.616,0.011 -35.569,1.79 -60.044996,6.695 -15.919,3.19 -17.459,2.733 -23.191,-6.883 -4.807,-8.063 -7.967,-11.492 -12.963,-14.062 -5.418,-2.78799996 -15.952,-3.44599996 -19.998,-1.249"
     stroke="none"
     fill="#504e4e"
     fill-rule="evenodd"
     id="path1"
     style="fill:#ffffff;fill-opacity:1" />
</svg>
