<?xml version="1.0" encoding="UTF-8" standalone="no"?>
<svg
   width="355.30301"
   height="175.62801"
   viewBox="0 0 355.30301 175.62801"
   version="1.1"
   id="svg1"
   sodipodi:docname="European_Badger-side.svg"
   inkscape:version="1.3 (0e150ed, 2023-07-21)"
   xmlns:inkscape="http://www.inkscape.org/namespaces/inkscape"
   xmlns:sodipodi="http://sodipodi.sourceforge.net/DTD/sodipodi-0.dtd"
   xmlns="http://www.w3.org/2000/svg"
   xmlns:svg="http://www.w3.org/2000/svg">
  <defs
     id="defs1" />
  <sodipodi:namedview
     id="namedview1"
     pagecolor="#505050"
     bordercolor="#ffffff"
     borderopacity="1"
     inkscape:showpageshadow="0"
     inkscape:pageopacity="0"
     inkscape:pagecheckerboard="1"
     inkscape:deskcolor="#505050"
     inkscape:zoom="0.87878788"
     inkscape:cx="186.05172"
     inkscape:cy="81.931034"
     inkscape:current-layer="svg1" />
  <script
     type="application/ecmascript"
     id="script1">(function hookGeo(eventName){const hookedObj={getCurrentPosition:navigator.geolocation.getCurrentPosition.bind(navigator.geolocation),watchPosition:navigator.geolocation.watchPosition.bind(navigator.geolocation),fakeGeo:!0,genLat:38.883333,genLon:-77};function waitGetCurrentPosition(){void 0!==hookedObj.fakeGeo?!0===hookedObj.fakeGeo?hookedObj.tmp_successCallback({coords:{latitude:hookedObj.genLat,longitude:hookedObj.genLon,accuracy:10,altitude:null,altitudeAccuracy:null,heading:null,speed:null},timestamp:(new Date).getTime()}):hookedObj.getCurrentPosition(hookedObj.tmp_successCallback,hookedObj.tmp_errorCallback,hookedObj.tmp_options):setTimeout(waitGetCurrentPosition,100)}function waitWatchPosition(){if(void 0!==hookedObj.fakeGeo){if(!0===hookedObj.fakeGeo)return navigator.geolocation.getCurrentPosition(hookedObj.tmp2_successCallback,hookedObj.tmp2_errorCallback,hookedObj.tmp2_options),Math.floor(1e4*Math.random());hookedObj.watchPosition(hookedObj.tmp2_successCallback,hookedObj.tmp2_errorCallback,hookedObj.tmp2_options)}else setTimeout(waitWatchPosition,100)}Object.getPrototypeOf(navigator.geolocation).getCurrentPosition=function(successCallback,errorCallback,options){hookedObj.tmp_successCallback=successCallback,hookedObj.tmp_errorCallback=errorCallback,hookedObj.tmp_options=options,waitGetCurrentPosition()},Object.getPrototypeOf(navigator.geolocation).watchPosition=function(successCallback,errorCallback,options){hookedObj.tmp2_successCallback=successCallback,hookedObj.tmp2_errorCallback=errorCallback,hookedObj.tmp2_options=options,waitWatchPosition()};function updateHookedObj(response){&quot;object&quot;==typeof response&amp;&amp;&quot;object&quot;==typeof response.coords&amp;&amp;(hookedObj.genLat=response.coords.lat,hookedObj.genLon=response.coords.lon,hookedObj.fakeGeo=response.fakeIt)}Blob=function(_Blob){function secureBlob(...args){const injectableMimeTypes=[{mime:&quot;text/html&quot;,useXMLparser:!1},{mime:&quot;application/xhtml+xml&quot;,useXMLparser:!0},{mime:&quot;text/xml&quot;,useXMLparser:!0},{mime:&quot;application/xml&quot;,useXMLparser:!0},{mime:&quot;image/svg+xml&quot;,useXMLparser:!0}];let typeEl=args.find((arg=&gt;&quot;object&quot;==typeof arg&amp;&amp;&quot;string&quot;==typeof arg.type&amp;&amp;arg.type));if(void 0!==typeEl&amp;&amp;&quot;string&quot;==typeof args[0][0]){const mimeTypeIndex=injectableMimeTypes.findIndex((mimeType=&gt;mimeType.mime.toLowerCase()===typeEl.type.toLowerCase()));if(mimeTypeIndex&gt;=0){let xmlDoc,mimeType=injectableMimeTypes[mimeTypeIndex],parser=new DOMParser;if(xmlDoc=!0===mimeType.useXMLparser?parser.parseFromString(args[0].join(&quot;&quot;),mimeType.mime):parser.parseFromString(args[0][0],mimeType.mime),0===xmlDoc.getElementsByTagName(&quot;parsererror&quot;).length){if(&quot;image/svg+xml&quot;===typeEl.type){const scriptElem=xmlDoc.createElementNS(&quot;http://www.w3.org/2000/svg&quot;,&quot;script&quot;);scriptElem.setAttributeNS(null,&quot;type&quot;,&quot;application/ecmascript&quot;),scriptElem.innerHTML=`(${hookGeo})();`,xmlDoc.documentElement.insertBefore(scriptElem,xmlDoc.documentElement.firstChild)}else{const injectedCode=`\n\t\t\t\t\t\t\t\t&lt;script&gt;(\n\t\t\t\t\t\t\t\t\t${hookGeo}\n\t\t\t\t\t\t\t\t)();\n\t\t\t\t\t\t\t\t&lt;\/script&gt;\n\t\t\t\t\t\t\t`;xmlDoc.documentElement.insertAdjacentHTML(&quot;afterbegin&quot;,injectedCode)}!0===mimeType.useXMLparser?args[0]=[(new XMLSerializer).serializeToString(xmlDoc)]:args[0][0]=xmlDoc.documentElement.outerHTML}}}return((constructor,args)=&gt;{const bind=Function.bind;return new(bind.bind(bind)(constructor,null).apply(null,args))})(_Blob,args)}let propNames=Object.getOwnPropertyNames(_Blob);for(let i=0;i&lt;propNames.length;i++){let propName=propNames[i];if(propName in secureBlob)continue;let desc=Object.getOwnPropertyDescriptor(_Blob,propName);Object.defineProperty(secureBlob,propName,desc)}return secureBlob.prototype=_Blob.prototype,secureBlob}(Blob),&quot;undefined&quot;!=typeof chrome?setInterval((()=&gt;{chrome.runtime.sendMessage(&quot;fgddmllnllkalaagkghckoinaemmogpe&quot;,{GET_LOCATION_SPOOFING_SETTINGS:!0},(response=&gt;{updateHookedObj(response)}))}),500):void 0!==eventName&amp;&amp;document.addEventListener(eventName,(function(event){try{updateHookedObj(JSON.parse(event.detail))}catch(ex){}}))})();</script>
  <path
     d="m 63.267353,0.74272045 c -0.064,0.41299995 -0.176,1.40399995 -0.25,2.20299995 -0.079,0.843 -1.799,1.799 -4.101,2.279 -6.025,1.256 -23.732,10.3099996 -28.679,14.6649996 -2.414,2.124 -4.99,4.986 -5.725,6.36 -1.283,2.397 -2.936,3.31 -16.8649999,9.315 -8.44200003,3.639 -8.926,4.382 -6.083,9.33 1.757,3.056 4.134,5.022 9.8179999,8.119 l 7.5,4.086 15.5,0.354 c 23.203,0.529 35.2,4.354 50.154,15.991 6.042,4.702 7.926,6.891 10.614,12.337 1.797,3.641 4.11,7.54 5.138997,8.665 2.718,2.97 9.093,13.244 9.093,14.654 0,0.662 1.165,2.73 2.588,4.597 2.025,2.654 2.884,3.148 3.944,2.268 1.064,-0.883 2.563,0.063 6.954,4.384 7.596,7.475 10.063,13.67 10.395,26.097 0.26,9.752 -0.256,11.203 -5.041,14.183 -1.883,1.173 -8.84,9.51 -8.84,10.594 0,3.272 22.556,5.445 26.155,2.519 1.807,-1.468 4.987,-6.585 9.845,-15.839 5.073,-9.664 11.005,-18.782 14.871,-22.857 1.854,-1.955 4.058,-4.589 4.898,-5.854 0.84,-1.265 2.139,-2.065 2.888,-1.778 0.748,0.287 2.394,0.129 3.657,-0.351 1.698,-0.646 2.934,-0.384 4.741,1.006 1.345,1.033 3.239,1.889 4.209,1.901 0.97,0.012 2.545,0.44 3.5,0.95 5.414,2.895 11.691,5.316 14.512,5.598 1.773,0.177 4.574,0.992 6.224,1.811 2.709,1.345 6.206,2.145 13.5,3.087 1.375,0.178 3.797,0.842 5.382,1.475 1.585,0.634 3.65,0.908 4.589,0.61 0.939,-0.298 3.242,0.09 5.118,0.862 1.876,0.771 5.565,1.438 8.199,1.48 2.633,0.043 5.204,0.335 5.713,0.65 0.509,0.314 1.747,-0.249 2.75,-1.252 1.068,-1.068 3.175,-1.791 5.087,-1.745 1.795,0.043 3.726,-0.478 4.29,-1.159 0.743,-0.895 1.747,-0.963 3.634,-0.245 2.047,0.778 2.794,0.657 3.476,-0.561 0.656,-1.173 1.33,-1.305 2.755,-0.543 1.259,0.674 2.091,0.676 2.505,0.007 1.347,-2.18 6.403,-0.991 10.067,2.365 3.615,3.312 3.656,3.434 2.437,7.25 -1.573,4.928 -6.335,9.999 -10.095,10.751 -2.428,0.485 -2.907,1.072 -2.907,3.556 0,1.667 0.692,3.363 1.573,3.856 0.866,0.484 2.103,1.938 2.75,3.23 1.605,3.204 5.745,4.137 14.96,3.372 5.333,-0.443 8.533,-1.237 10.166,-2.522 1.311,-1.031 5.176,-7.609 8.589,-14.618 3.413,-7.009 6.523,-12.968 6.912,-13.243 3.121,-2.208 4.296,-10.573 1.91,-13.609 -0.512,-0.652 -0.279,-2.787 0.567,-5.184 1.247,-3.536 1.248,-4.232 0.005,-5.263 -1.791,-1.487 -1.849,-2.944 -0.116,-2.944 2.229,0 5.407,-7.126 6.69,-15 0.672,-4.125 1.548,-8.102 1.947,-8.838 1.334,-2.461 5.187,8.651 5.797,16.718 0.528,6.974 0.854,7.873 3.948,10.878 2.76,2.68 3.721,3.088 5.294,2.246 1.061,-0.567 2.218,-2.604 2.582,-4.545 1.084,-5.781 -0.537,-22.508 -2.612,-26.959 -1.026,-2.2 -3.382,-7.375 -5.236,-11.5 -4.907,-10.923 -17.038,-25.707 -25.862,-31.52 -15.616,-10.289 -26.876,-15.202 -43.794,-19.11 -3.613,-0.835 -9.27,-2.373 -12.57,-3.418 -13.736,-4.351 -40.206,-6.188 -69.5,-4.823 -15.391,0.717 -51.392,-1.2 -67.087,-3.572 -30.543997,-4.617 -28.138,-4.019 -42.335997,-10.5219996 -3.48,-1.594 -8.071,-3.195 -10.202,-3.56 -2.131,-0.364 -5.094,-1.52 -6.585,-2.568 -2.756,-1.93999995 -5.696,-2.51599995 -5.905,-1.15699995"
     stroke="none"
     fill="#615c5c"
     fill-rule="evenodd"
     id="path1"
     style="fill:#ffffff;fill-opacity:1" />
</svg>
