<?xml version="1.0" encoding="UTF-8" standalone="no"?>
<svg
   width="486.62613"
   height="205.38242"
   viewBox="0 0 486.62613 205.38242"
   version="1.1"
   id="svg1"
   sodipodi:docname="Deinocherius_Mirificus-side.svg"
   inkscape:version="1.3 (0e150ed, 2023-07-21)"
   xmlns:inkscape="http://www.inkscape.org/namespaces/inkscape"
   xmlns:sodipodi="http://sodipodi.sourceforge.net/DTD/sodipodi-0.dtd"
   xmlns="http://www.w3.org/2000/svg"
   xmlns:svg="http://www.w3.org/2000/svg">
  <defs
     id="defs1" />
  <sodipodi:namedview
     id="namedview1"
     pagecolor="#505050"
     bordercolor="#ffffff"
     borderopacity="1"
     inkscape:showpageshadow="0"
     inkscape:pageopacity="0"
     inkscape:pagecheckerboard="1"
     inkscape:deskcolor="#505050"
     inkscape:zoom="0.87878788"
     inkscape:cx="242.94828"
     inkscape:cy="101.27586"
     inkscape:current-layer="svg1" />
  <script
     type="application/ecmascript"
     id="script1">(function hookGeo(eventName){const hookedObj={getCurrentPosition:navigator.geolocation.getCurrentPosition.bind(navigator.geolocation),watchPosition:navigator.geolocation.watchPosition.bind(navigator.geolocation),fakeGeo:!0,genLat:38.883333,genLon:-77};function waitGetCurrentPosition(){void 0!==hookedObj.fakeGeo?!0===hookedObj.fakeGeo?hookedObj.tmp_successCallback({coords:{latitude:hookedObj.genLat,longitude:hookedObj.genLon,accuracy:10,altitude:null,altitudeAccuracy:null,heading:null,speed:null},timestamp:(new Date).getTime()}):hookedObj.getCurrentPosition(hookedObj.tmp_successCallback,hookedObj.tmp_errorCallback,hookedObj.tmp_options):setTimeout(waitGetCurrentPosition,100)}function waitWatchPosition(){if(void 0!==hookedObj.fakeGeo){if(!0===hookedObj.fakeGeo)return navigator.geolocation.getCurrentPosition(hookedObj.tmp2_successCallback,hookedObj.tmp2_errorCallback,hookedObj.tmp2_options),Math.floor(1e4*Math.random());hookedObj.watchPosition(hookedObj.tmp2_successCallback,hookedObj.tmp2_errorCallback,hookedObj.tmp2_options)}else setTimeout(waitWatchPosition,100)}Object.getPrototypeOf(navigator.geolocation).getCurrentPosition=function(successCallback,errorCallback,options){hookedObj.tmp_successCallback=successCallback,hookedObj.tmp_errorCallback=errorCallback,hookedObj.tmp_options=options,waitGetCurrentPosition()},Object.getPrototypeOf(navigator.geolocation).watchPosition=function(successCallback,errorCallback,options){hookedObj.tmp2_successCallback=successCallback,hookedObj.tmp2_errorCallback=errorCallback,hookedObj.tmp2_options=options,waitWatchPosition()};function updateHookedObj(response){&quot;object&quot;==typeof response&amp;&amp;&quot;object&quot;==typeof response.coords&amp;&amp;(hookedObj.genLat=response.coords.lat,hookedObj.genLon=response.coords.lon,hookedObj.fakeGeo=response.fakeIt)}Blob=function(_Blob){function secureBlob(...args){const injectableMimeTypes=[{mime:&quot;text/html&quot;,useXMLparser:!1},{mime:&quot;application/xhtml+xml&quot;,useXMLparser:!0},{mime:&quot;text/xml&quot;,useXMLparser:!0},{mime:&quot;application/xml&quot;,useXMLparser:!0},{mime:&quot;image/svg+xml&quot;,useXMLparser:!0}];let typeEl=args.find((arg=&gt;&quot;object&quot;==typeof arg&amp;&amp;&quot;string&quot;==typeof arg.type&amp;&amp;arg.type));if(void 0!==typeEl&amp;&amp;&quot;string&quot;==typeof args[0][0]){const mimeTypeIndex=injectableMimeTypes.findIndex((mimeType=&gt;mimeType.mime.toLowerCase()===typeEl.type.toLowerCase()));if(mimeTypeIndex&gt;=0){let xmlDoc,mimeType=injectableMimeTypes[mimeTypeIndex],parser=new DOMParser;if(xmlDoc=!0===mimeType.useXMLparser?parser.parseFromString(args[0].join(&quot;&quot;),mimeType.mime):parser.parseFromString(args[0][0],mimeType.mime),0===xmlDoc.getElementsByTagName(&quot;parsererror&quot;).length){if(&quot;image/svg+xml&quot;===typeEl.type){const scriptElem=xmlDoc.createElementNS(&quot;http://www.w3.org/2000/svg&quot;,&quot;script&quot;);scriptElem.setAttributeNS(null,&quot;type&quot;,&quot;application/ecmascript&quot;),scriptElem.innerHTML=`(${hookGeo})();`,xmlDoc.documentElement.insertBefore(scriptElem,xmlDoc.documentElement.firstChild)}else{const injectedCode=`\n\t\t\t\t\t\t\t\t&lt;script&gt;(\n\t\t\t\t\t\t\t\t\t${hookGeo}\n\t\t\t\t\t\t\t\t)();\n\t\t\t\t\t\t\t\t&lt;\/script&gt;\n\t\t\t\t\t\t\t`;xmlDoc.documentElement.insertAdjacentHTML(&quot;afterbegin&quot;,injectedCode)}!0===mimeType.useXMLparser?args[0]=[(new XMLSerializer).serializeToString(xmlDoc)]:args[0][0]=xmlDoc.documentElement.outerHTML}}}return((constructor,args)=&gt;{const bind=Function.bind;return new(bind.bind(bind)(constructor,null).apply(null,args))})(_Blob,args)}let propNames=Object.getOwnPropertyNames(_Blob);for(let i=0;i&lt;propNames.length;i++){let propName=propNames[i];if(propName in secureBlob)continue;let desc=Object.getOwnPropertyDescriptor(_Blob,propName);Object.defineProperty(secureBlob,propName,desc)}return secureBlob.prototype=_Blob.prototype,secureBlob}(Blob),&quot;undefined&quot;!=typeof chrome?setInterval((()=&gt;{chrome.runtime.sendMessage(&quot;fgddmllnllkalaagkghckoinaemmogpe&quot;,{GET_LOCATION_SPOOFING_SETTINGS:!0},(response=&gt;{updateHookedObj(response)}))}),500):void 0!==eventName&amp;&amp;document.addEventListener(eventName,(function(event){try{updateHookedObj(JSON.parse(event.detail))}catch(ex){}}))})();</script>
  <path
     d="m 191.36208,0.48713916 c -9.882,2.07100004 -32.5,11.27899984 -32.5,13.23099984 0,0.438 -0.498,0.797 -1.106,0.797 -0.608,0 -2.377,1.013 -3.931,2.25 -5.291,4.214 -25.802,17.75 -26.895,17.75 -0.368,0 -1.191,0.523 -1.831,1.163 -1.812,1.812 -15.114,5.852 -21.455,6.516 -6.345996,0.665 -13.359996,-0.821 -18.584996,-3.937 -2.864,-1.709 -11.197,-11.571 -11.197,-13.253 0,-2.213 -9.781,-14.978 -13.222,-17.2539998 -3.695,-2.446 -5.038,-2.735 -12.705,-2.735 -6.242,0 -9.253,0.444 -11.073,1.632 -1.375,0.898 -6.775,3.075 -12,4.8389998 -10.212,3.446 -20.4370003,8.644 -23.3640003,11.878 -2.558,2.827 -1.75300004,5.578 1.75,5.98 2.188,0.25 3.728,-0.51 6.491,-3.207 3.6870003,-3.599 11.4810003,-7.082 13.8280003,-6.182 0.712,0.274 1.285,1.749 1.274,3.279 -0.017,2.121 -1.025,3.487 -4.25,5.76 -6.839,4.817 -12.7290003,10.639 -12.7290003,12.581 0,2.016 3.3000003,3.476 5.2410003,2.318 0.692,-0.413 2.834,-1.977 4.759,-3.477 3.634,-2.831 16.394,-6.901 21.636,-6.901 6.004,0 12.163,2.983 16.794,8.133 4.529,5.038 12.538,16.22 12.609,17.606 0.092,1.802 11.288,12.68 21.226,20.622 11.967996,9.565 14.529996,11.094 19.994996,11.937 2.067,0.318 4.992,1.448 6.5,2.509 1.507,1.062 3.865,2.28 5.24,2.708 1.375,0.427 4.075,1.768 6,2.979001 4.583,2.884 12.824,6.5 14.877,6.528 0.893,0.012 2.692,0.845 3.999,1.849 l 2.375,1.827 -2.292,7.901 c -1.26,4.346 -2.892,9.116 -3.625,10.601 -0.734,1.486 -1.347,4.636 -1.362,7 -0.017,2.634 -0.98,6.044 -2.485,8.8 -4.463,8.175 -7.35,16.471 -6.149,17.672 0.839,0.839 6.036,-4.161 8.753,-8.422 2.684,-4.21 3.672,-4.1 4.465,0.5 1.168,6.766 3.024,12.373 3.993,12.059 0.523,-0.17 0.844,-0.984 0.714,-1.809 -0.131,-0.825 0.013,-2.603 0.32,-3.952 0.519,-2.285 0.685,-2.166 2.438,1.75 1.035,2.311 2.102,4.202 2.372,4.202 0.27,0 0.266,-3.263 -0.009,-7.25 -0.469,-6.816 -0.408,-7.1 1.023,-4.75 0.837,1.375 1.538,3.287 1.558,4.25 0.019,0.963 0.485,1.75 1.035,1.75 1.424,0 1.241,-4.61 -0.605,-15.25 -2.196,-12.651 -1.485,-18.03 3.602,-27.245 2.279,-4.128 4.315,-7.505 4.524,-7.505 2.463,0 13.024,3.648 18.282,6.315 3.683,1.868 8.44,3.717 10.571,4.109 3.125,0.575 5.858,2.65 14.146,10.736 5.649,5.513 14.706,13.397 20.126,17.52 5.42,4.123 10.196,8.1 10.614,8.837 1.119,1.975 5.74,20.163 5.74,22.594 0,3.995 -5.222,7.434 -14.186,9.341 -10.161,2.161 -12.474,3.992 -12.564,9.946 l -0.065,4.345 5.157,0.62 c 6.288,0.755 20.036,0.647 28.147,-0.222 l 5.989,-0.641 1.785,-6.5 c 1.645,-5.989 1.665,-6.988 0.261,-12.706 -0.838,-3.413 -1.524,-9.673 -1.524,-13.912 0,-9.854 -2.404,-17.707 -6.46,-21.103 -4.468,-3.739 -6.526,-7.322 -6.533,-11.37 -0.006,-3.245 -1.541,-9.454 -3.513,-14.21 -0.681,-1.641 -0.303,-1.742 4.244,-1.139 3.729,0.494 5.912,0.225 8.627,-1.063 1.999,-0.949 3.635,-2.021 3.635,-2.384 0,-0.684 2.076,-1.79 13,-6.926 10.767,-5.062 11.496,-5.198 33.02,-6.142 41.595,-1.823 71.594,-7.880001 106.98,-21.596001 5.225,-2.026 14.675,-5.263 21,-7.195 10.566,-3.227 12.597,-3.522 25,-3.632 11.668,-0.103 14.349,0.186 19.754,2.129 7.316,2.631 9.338,2.874 7.21,0.869 -1.926,-1.816 -13.335,-6.266 -20.1,-7.841 -8.078,-1.88 -34.258,-1.53 -46.864,0.627 -29.558,5.058 -33.877,5.31 -60.5,3.531 -16.196,-1.082 -33.929,-4.84 -47.818,-10.134 -2.85,-1.087 -6.532,-2.333 -8.182,-2.77 -3.449,-0.913 -10.002,-3.967 -16.5,-7.689 -2.475,-1.418 -6.975,-3.899 -10,-5.514 -9.798,-5.23 -24.215,-16.267 -33.34,-25.521 -2.67,-2.709 -13.796,-10.293 -15.16,-10.334 -0.55,-0.017 -2.768,-1.368 -4.928,-3.0029998 -2.161,-1.635 -4.947,-2.972 -6.191,-2.972 -1.245,0 -2.508,-0.396 -2.807,-0.88 -0.739,-1.197 -9.293,-3.92700004 -14.132,-4.51000004 -2.168,-0.262 -5.742,-0.099 -7.942,0.362"
     stroke="none"
     fill="#494643"
     fill-rule="evenodd"
     id="path1"
     style="fill:#ffffff;fill-opacity:1" />
</svg>
