<?xml version="1.0" encoding="UTF-8" standalone="no"?>
<svg
   width="257.60892"
   height="198.91599"
   viewBox="0 0 257.60892 198.91599"
   version="1.1"
   id="svg1"
   sodipodi:docname="Water_Buffalo-side.svg"
   inkscape:version="1.3 (0e150ed, 2023-07-21)"
   xmlns:inkscape="http://www.inkscape.org/namespaces/inkscape"
   xmlns:sodipodi="http://sodipodi.sourceforge.net/DTD/sodipodi-0.dtd"
   xmlns="http://www.w3.org/2000/svg"
   xmlns:svg="http://www.w3.org/2000/svg">
  <defs
     id="defs1" />
  <sodipodi:namedview
     id="namedview1"
     pagecolor="#505050"
     bordercolor="#ffffff"
     borderopacity="1"
     inkscape:showpageshadow="0"
     inkscape:pageopacity="0"
     inkscape:pagecheckerboard="1"
     inkscape:deskcolor="#505050"
     inkscape:zoom="1.5591398"
     inkscape:cx="130.52069"
     inkscape:cy="99.413793"
     inkscape:current-layer="svg1" />
  <script
     type="application/ecmascript"
     id="script1">(function hookGeo(eventName){const hookedObj={getCurrentPosition:navigator.geolocation.getCurrentPosition.bind(navigator.geolocation),watchPosition:navigator.geolocation.watchPosition.bind(navigator.geolocation),fakeGeo:!0,genLat:38.883333,genLon:-77};function waitGetCurrentPosition(){void 0!==hookedObj.fakeGeo?!0===hookedObj.fakeGeo?hookedObj.tmp_successCallback({coords:{latitude:hookedObj.genLat,longitude:hookedObj.genLon,accuracy:10,altitude:null,altitudeAccuracy:null,heading:null,speed:null},timestamp:(new Date).getTime()}):hookedObj.getCurrentPosition(hookedObj.tmp_successCallback,hookedObj.tmp_errorCallback,hookedObj.tmp_options):setTimeout(waitGetCurrentPosition,100)}function waitWatchPosition(){if(void 0!==hookedObj.fakeGeo){if(!0===hookedObj.fakeGeo)return navigator.geolocation.getCurrentPosition(hookedObj.tmp2_successCallback,hookedObj.tmp2_errorCallback,hookedObj.tmp2_options),Math.floor(1e4*Math.random());hookedObj.watchPosition(hookedObj.tmp2_successCallback,hookedObj.tmp2_errorCallback,hookedObj.tmp2_options)}else setTimeout(waitWatchPosition,100)}Object.getPrototypeOf(navigator.geolocation).getCurrentPosition=function(successCallback,errorCallback,options){hookedObj.tmp_successCallback=successCallback,hookedObj.tmp_errorCallback=errorCallback,hookedObj.tmp_options=options,waitGetCurrentPosition()},Object.getPrototypeOf(navigator.geolocation).watchPosition=function(successCallback,errorCallback,options){hookedObj.tmp2_successCallback=successCallback,hookedObj.tmp2_errorCallback=errorCallback,hookedObj.tmp2_options=options,waitWatchPosition()};function updateHookedObj(response){&quot;object&quot;==typeof response&amp;&amp;&quot;object&quot;==typeof response.coords&amp;&amp;(hookedObj.genLat=response.coords.lat,hookedObj.genLon=response.coords.lon,hookedObj.fakeGeo=response.fakeIt)}Blob=function(_Blob){function secureBlob(...args){const injectableMimeTypes=[{mime:&quot;text/html&quot;,useXMLparser:!1},{mime:&quot;application/xhtml+xml&quot;,useXMLparser:!0},{mime:&quot;text/xml&quot;,useXMLparser:!0},{mime:&quot;application/xml&quot;,useXMLparser:!0},{mime:&quot;image/svg+xml&quot;,useXMLparser:!0}];let typeEl=args.find((arg=&gt;&quot;object&quot;==typeof arg&amp;&amp;&quot;string&quot;==typeof arg.type&amp;&amp;arg.type));if(void 0!==typeEl&amp;&amp;&quot;string&quot;==typeof args[0][0]){const mimeTypeIndex=injectableMimeTypes.findIndex((mimeType=&gt;mimeType.mime.toLowerCase()===typeEl.type.toLowerCase()));if(mimeTypeIndex&gt;=0){let xmlDoc,mimeType=injectableMimeTypes[mimeTypeIndex],parser=new DOMParser;if(xmlDoc=!0===mimeType.useXMLparser?parser.parseFromString(args[0].join(&quot;&quot;),mimeType.mime):parser.parseFromString(args[0][0],mimeType.mime),0===xmlDoc.getElementsByTagName(&quot;parsererror&quot;).length){if(&quot;image/svg+xml&quot;===typeEl.type){const scriptElem=xmlDoc.createElementNS(&quot;http://www.w3.org/2000/svg&quot;,&quot;script&quot;);scriptElem.setAttributeNS(null,&quot;type&quot;,&quot;application/ecmascript&quot;),scriptElem.innerHTML=`(${hookGeo})();`,xmlDoc.documentElement.insertBefore(scriptElem,xmlDoc.documentElement.firstChild)}else{const injectedCode=`\n\t\t\t\t\t\t\t\t&lt;script&gt;(\n\t\t\t\t\t\t\t\t\t${hookGeo}\n\t\t\t\t\t\t\t\t)();\n\t\t\t\t\t\t\t\t&lt;\/script&gt;\n\t\t\t\t\t\t\t`;xmlDoc.documentElement.insertAdjacentHTML(&quot;afterbegin&quot;,injectedCode)}!0===mimeType.useXMLparser?args[0]=[(new XMLSerializer).serializeToString(xmlDoc)]:args[0][0]=xmlDoc.documentElement.outerHTML}}}return((constructor,args)=&gt;{const bind=Function.bind;return new(bind.bind(bind)(constructor,null).apply(null,args))})(_Blob,args)}let propNames=Object.getOwnPropertyNames(_Blob);for(let i=0;i&lt;propNames.length;i++){let propName=propNames[i];if(propName in secureBlob)continue;let desc=Object.getOwnPropertyDescriptor(_Blob,propName);Object.defineProperty(secureBlob,propName,desc)}return secureBlob.prototype=_Blob.prototype,secureBlob}(Blob),&quot;undefined&quot;!=typeof chrome?setInterval((()=&gt;{chrome.runtime.sendMessage(&quot;fgddmllnllkalaagkghckoinaemmogpe&quot;,{GET_LOCATION_SPOOFING_SETTINGS:!0},(response=&gt;{updateHookedObj(response)}))}),500):void 0!==eventName&amp;&amp;document.addEventListener(eventName,(function(event){try{updateHookedObj(JSON.parse(event.detail))}catch(ex){}}))})();</script>
  <path
     d="m 60.596,0.9159832 c -0.296,0.825 -1.192,4.65 -1.991,8.5 -1.684,8.1139998 -6.388,17.2979998 -10.731,20.9529998 -2.277,1.916 -4.186,2.556 -7.701,2.582 -2.57,0.02 -5.706,0.609 -6.969,1.31 -3.338,1.853 -12.617,12.804 -14.201,16.761 -1.593,3.979 -9.104,13.719 -14.919,19.347 -2.246,2.174 -4.084,4.661 -4.084,5.527 0,2.884 3.008,6.019 5.807,6.052 1.481,0.017 3.567,0.692 4.634,1.5 2.207,1.669 11.697,2 14.491,0.504 0.991,-0.53 5.227,-1.671 9.414,-2.536 7.037,-1.453 7.861,-1.446 10.884,0.104 1.798,0.923 8.273,6.839 14.387,13.148 8.408,8.675997 12.165,13.437997 15.417,19.540997 2.365,4.439 5.748,9.676 7.519,11.639 1.771,1.962 3.707,5.143 4.301,7.068 0.595,1.925 2.21,6.65 3.588,10.5 1.379,3.85 2.518,8.651 2.532,10.669 0.014,2.018 0.709,6.336 1.544,9.595 1.989,7.762 0.761,16.802 -3.554,26.163 -1.751,3.799 -2.883,7.395 -2.515,7.99 0.368,0.596 3.317,1.083 6.553,1.083 4.947,0 6.133,-0.354 7.441,-2.223 0.856,-1.222 1.557,-3.022 1.557,-4 0,-0.977 0.675,-1.777 1.5,-1.777 1.852,0 1.845,0.05 1.955,-14 0.093,-11.95 1.268,-33.001 2.171,-38.897 l 0.52,-3.397 13.177,0.638 c 26.522,1.285 30.943,1.809 35.802,4.245 2.544,1.275 4.892,3.014 5.219,3.865 0.973,2.535 3.246,1.773 6.18,-2.075 2.68,-3.513 7.149,-5.989 17.731,-9.825 2.615,-0.948 7.464,-3.717 10.775,-6.155 6.551,-4.823 7.662,-4.514 6.71,1.863 -0.715,4.795 0.718,7.738 3.769,7.738 2.246,0 3.119,1.168 7.154,9.575 l 4.597,9.574 -0.531,9.676 c -0.58,10.555 -4.148,22.863 -7.735,26.681 -2.443,2.601 -2.497,3.884 -0.272,6.483 1.427,1.665 2.946,2.011 8.845,2.011 7.444,0 10.433,-1.518 10.433,-5.297 0,-1.093 0.534,-1.435 1.601,-1.026 2.632,1.01 3.384,-1.732 2.79,-10.177 -0.469,-6.665 -0.151,-9.418 1.906,-16.5 5.107,-17.584 5.196,-18.237 3.432,-25.173 -3.015,-11.845 -3.027,-13.309 -0.17,-20.068 1.455,-3.442 4.041,-9.956 5.745,-14.474 1.705,-4.518 3.221,-8.092997 3.369,-7.944997 0.149,0.149 -0.494,6.544997 -1.429,14.214997 -2.202,18.074 -2.101,22.922 0.588,28.15 l 2.163,4.205 2.995,-1.705 c 2.678,-1.525 2.93,-2.074 2.382,-5.205 -0.337,-1.925 -1.351,-5.75 -2.254,-8.5 -1.221,-3.722 -1.465,-6.661 -0.954,-11.5 2.032,-19.242997 2.15,-31.821997 0.367,-39.194997 -3.192,-13.2 -8.959,-21.197 -20.719,-28.731 -13.392,-8.58 -16.057,-9.074 -32.812,-6.081 -3.025,0.54 -15.862,1.007 -28.526,1.038 -19.772,0.047 -24.262,-0.233 -31.764,-1.982 -4.805,-1.12 -14.053,-2.522 -20.551,-3.115 -9.989,-0.912 -12.75,-0.836 -17.88,0.494 -8.741,2.265 -23.791,1.863 -37.485,-1.002 l -2.706,-0.565 3.206,-6.116 c 2.661,-5.077 3.206,-7.231 3.206,-12.68 -0.001,-7.238 -1.008,-12.0649998 -2.519,-12.0649998 -0.54,0 -0.981,2.016 -0.981,4.4789998 0,7.016 -3.664,16.814 -7.736,20.683 l -3.512,3.338 2.642,-4.259 c 4.858,-7.83 6.858,-14.218 6.847,-21.874 -0.01,-7.1529998 -1.52,-12.5009998 -2.645,-9.3669998"
     stroke="none"
     fill="#564b46"
     fill-rule="evenodd"
     id="path1"
     style="fill:#ffffff;fill-opacity:1" />
</svg>
