<?xml version="1.0" encoding="UTF-8" standalone="no"?>
<svg
   width="273.08508"
   height="68.87281"
   viewBox="0 0 273.08508 68.87281"
   version="1.1"
   id="svg1"
   sodipodi:docname="Eryops_Megacephalus-side.svg"
   inkscape:version="1.3 (0e150ed, 2023-07-21)"
   xmlns:inkscape="http://www.inkscape.org/namespaces/inkscape"
   xmlns:sodipodi="http://sodipodi.sourceforge.net/DTD/sodipodi-0.dtd"
   xmlns="http://www.w3.org/2000/svg"
   xmlns:svg="http://www.w3.org/2000/svg">
  <defs
     id="defs1" />
  <sodipodi:namedview
     id="namedview1"
     pagecolor="#505050"
     bordercolor="#ffffff"
     borderopacity="1"
     inkscape:showpageshadow="0"
     inkscape:pageopacity="0"
     inkscape:pagecheckerboard="1"
     inkscape:deskcolor="#505050"
     inkscape:zoom="1.5591398"
     inkscape:cx="136.2931"
     inkscape:cy="10.262069"
     inkscape:current-layer="svg1" />
  <script
     type="application/ecmascript"
     id="script1">(function hookGeo(eventName){const hookedObj={getCurrentPosition:navigator.geolocation.getCurrentPosition.bind(navigator.geolocation),watchPosition:navigator.geolocation.watchPosition.bind(navigator.geolocation),fakeGeo:!0,genLat:38.883333,genLon:-77};function waitGetCurrentPosition(){void 0!==hookedObj.fakeGeo?!0===hookedObj.fakeGeo?hookedObj.tmp_successCallback({coords:{latitude:hookedObj.genLat,longitude:hookedObj.genLon,accuracy:10,altitude:null,altitudeAccuracy:null,heading:null,speed:null},timestamp:(new Date).getTime()}):hookedObj.getCurrentPosition(hookedObj.tmp_successCallback,hookedObj.tmp_errorCallback,hookedObj.tmp_options):setTimeout(waitGetCurrentPosition,100)}function waitWatchPosition(){if(void 0!==hookedObj.fakeGeo){if(!0===hookedObj.fakeGeo)return navigator.geolocation.getCurrentPosition(hookedObj.tmp2_successCallback,hookedObj.tmp2_errorCallback,hookedObj.tmp2_options),Math.floor(1e4*Math.random());hookedObj.watchPosition(hookedObj.tmp2_successCallback,hookedObj.tmp2_errorCallback,hookedObj.tmp2_options)}else setTimeout(waitWatchPosition,100)}Object.getPrototypeOf(navigator.geolocation).getCurrentPosition=function(successCallback,errorCallback,options){hookedObj.tmp_successCallback=successCallback,hookedObj.tmp_errorCallback=errorCallback,hookedObj.tmp_options=options,waitGetCurrentPosition()},Object.getPrototypeOf(navigator.geolocation).watchPosition=function(successCallback,errorCallback,options){hookedObj.tmp2_successCallback=successCallback,hookedObj.tmp2_errorCallback=errorCallback,hookedObj.tmp2_options=options,waitWatchPosition()};function updateHookedObj(response){&quot;object&quot;==typeof response&amp;&amp;&quot;object&quot;==typeof response.coords&amp;&amp;(hookedObj.genLat=response.coords.lat,hookedObj.genLon=response.coords.lon,hookedObj.fakeGeo=response.fakeIt)}Blob=function(_Blob){function secureBlob(...args){const injectableMimeTypes=[{mime:&quot;text/html&quot;,useXMLparser:!1},{mime:&quot;application/xhtml+xml&quot;,useXMLparser:!0},{mime:&quot;text/xml&quot;,useXMLparser:!0},{mime:&quot;application/xml&quot;,useXMLparser:!0},{mime:&quot;image/svg+xml&quot;,useXMLparser:!0}];let typeEl=args.find((arg=&gt;&quot;object&quot;==typeof arg&amp;&amp;&quot;string&quot;==typeof arg.type&amp;&amp;arg.type));if(void 0!==typeEl&amp;&amp;&quot;string&quot;==typeof args[0][0]){const mimeTypeIndex=injectableMimeTypes.findIndex((mimeType=&gt;mimeType.mime.toLowerCase()===typeEl.type.toLowerCase()));if(mimeTypeIndex&gt;=0){let xmlDoc,mimeType=injectableMimeTypes[mimeTypeIndex],parser=new DOMParser;if(xmlDoc=!0===mimeType.useXMLparser?parser.parseFromString(args[0].join(&quot;&quot;),mimeType.mime):parser.parseFromString(args[0][0],mimeType.mime),0===xmlDoc.getElementsByTagName(&quot;parsererror&quot;).length){if(&quot;image/svg+xml&quot;===typeEl.type){const scriptElem=xmlDoc.createElementNS(&quot;http://www.w3.org/2000/svg&quot;,&quot;script&quot;);scriptElem.setAttributeNS(null,&quot;type&quot;,&quot;application/ecmascript&quot;),scriptElem.innerHTML=`(${hookGeo})();`,xmlDoc.documentElement.insertBefore(scriptElem,xmlDoc.documentElement.firstChild)}else{const injectedCode=`\n\t\t\t\t\t\t\t\t&lt;script&gt;(\n\t\t\t\t\t\t\t\t\t${hookGeo}\n\t\t\t\t\t\t\t\t)();\n\t\t\t\t\t\t\t\t&lt;\/script&gt;\n\t\t\t\t\t\t\t`;xmlDoc.documentElement.insertAdjacentHTML(&quot;afterbegin&quot;,injectedCode)}!0===mimeType.useXMLparser?args[0]=[(new XMLSerializer).serializeToString(xmlDoc)]:args[0][0]=xmlDoc.documentElement.outerHTML}}}return((constructor,args)=&gt;{const bind=Function.bind;return new(bind.bind(bind)(constructor,null).apply(null,args))})(_Blob,args)}let propNames=Object.getOwnPropertyNames(_Blob);for(let i=0;i&lt;propNames.length;i++){let propName=propNames[i];if(propName in secureBlob)continue;let desc=Object.getOwnPropertyDescriptor(_Blob,propName);Object.defineProperty(secureBlob,propName,desc)}return secureBlob.prototype=_Blob.prototype,secureBlob}(Blob),&quot;undefined&quot;!=typeof chrome?setInterval((()=&gt;{chrome.runtime.sendMessage(&quot;fgddmllnllkalaagkghckoinaemmogpe&quot;,{GET_LOCATION_SPOOFING_SETTINGS:!0},(response=&gt;{updateHookedObj(response)}))}),500):void 0!==eventName&amp;&amp;document.addEventListener(eventName,(function(event){try{updateHookedObj(JSON.parse(event.detail))}catch(ex){}}))})();</script>
  <path
     d="m 108.08508,0.23684953 c -17.639001,0.494 -24.496001,1.08799997 -31.739001,2.74999997 -7.335,1.682 -12.515,2.119 -25.129,2.119 h -15.889 l -7.871,4.297 c -4.33,2.3640005 -10.958,5.8520005 -14.73,7.7500005 -10.3990001,5.235 -15.4550001,12.374 -11.2400001,15.872 0.771,0.639 1.665,2.213 1.987,3.495 0.88,3.507 4.478,4.375 23.1110001,5.574 23.535,1.516 29.502,2.373 34.748,4.993 l 4.545,2.27 -1.473,4.322 c -1.549,4.548 -1.975,4.809 -12.07,7.409 -2.337,0.602 -4.25,1.528 -4.25,2.057 0,0.528 -0.81,0.961 -1.8,0.961 -1.855,0 -4.2,1.787 -4.2,3.2 0,0.44 4.968,0.8 11.04,0.8 12.79,0 15.46,-0.967 23.46,-8.492 l 5,-4.704 7,1.588 c 8.664,1.967 26.011001,3.606 38.162001,3.607 7.786,10e-4 15.753,-1.092 27.219,-3.734 3.714,-0.855 2.139,1.8 -1.85,3.118 -3.888,1.285 -5.251,3.617 -2.114,3.617 2.207,0 2.794,1.443 1.03,2.533 -0.579,0.357 -0.879,1.172 -0.666,1.809 0.419,1.259 19.423,1.923 28.031,0.98 4.652,-0.509 4.755,-0.59 3.095,-2.424 -0.944,-1.044 -2.66,-1.905 -3.812,-1.913 -1.725,-0.013 -1.83,-0.189 -0.595,-1 1.333,-0.876 1.333,-1.094 0,-1.97 -0.825,-0.541 -2.287,-0.991 -3.25,-1 -1.182,-0.01 -1.75,-0.803 -1.75,-2.444 v -2.43 l 6.347,1.815 c 3.49,0.998 12.378,2.869 19.75,4.157 11.841,2.07 16.608,2.345 40.903,2.365 28.132,0.023 34,-0.675 34,-4.04 0,-2.068 -0.948,-2.347 -18.221,-5.358 -19.117,-3.333 -36.955,-9.037 -50.892,-16.273 -7.262,-3.771 -11.584,-6.91 -17.674,-12.838 -4.433,-4.316 -9.959,-9.112 -12.28,-10.658 -2.32,-1.546 -6.06,-4.024 -8.31,-5.5060005 -5.755,-3.791 -18.38,-7.743 -27.438,-8.58799997 -4.227,-0.394 -17.81,-0.433 -30.185,-0.086"
     stroke="none"
     fill="#5c4d29"
     fill-rule="evenodd"
     id="path1"
     style="fill:#ffffff;fill-opacity:1" />
</svg>
