<svg xmlns="http://www.w3.org/2000/svg" width="90.894" height="40.937" viewBox="0.035145 -0.001097 90.894 40.937" version="1.1" color="#fff"><g transform="scale(0.1808,0.18)"><path d="m 179.7,2.069 c -3.85,1.11 -9.23,2.368 -11.96,2.789 -4.38,0.678 -5.59,1.456 -10.33,6.66 -3.09,3.4 -7.06,9.39 -9.36,14.15 l -3.99,8.25 h -4.28 c -4.29,0 -21.5,3.57 -31.2,6.5 -15,4.48 -44.5,18.3 -60.2,28.3 -3.57,2.26 -10.55,6.55 -15.5,9.53 -15.5,9.35 -26.2,18.7 -30.4,26.4 -2.01,3.78 -2.94,12.06 -1.776,15.86 2.939,9.57 35.6,31.4 62.6,41.8 17.47,6.74 58.7,19.56 68.7,21.3 8.65,1.55 10.66,2.259 11.98,4.22 2.71,4.03 26.5,27.8 31.2,31.2 4.35,3.15 12.59,6.83 18.25,8.16 2.45,0.575 2.91,0.255 4.25,-2.93 0.82,-1.968 1.495,-5.64 1.495,-8.16 0,-6.8 -2.81,-17.9 -5.57,-21.99 -1.335,-1.967 -2.42,-3.74 -2.42,-3.93 0,-0.199 2.36,-0.647 5.25,-0.996 6.57,-0.794 14.1,-1.85 33.6,-4.7 l 15.38,-2.248 2.359,2.94 c 1.297,1.62 2.36,3.46 2.36,4.09 0.003,0.629 2.68,3.62 5.96,6.65 4.6,4.26 7.04,5.74 10.75,6.5 5.49,1.135 33.7,-0.094 39.2,-1.71 1.92,-0.56 9.2,-2.59 16.19,-4.52 15.66,-4.32 19.3,-5.84 46.7,-19.57 13.57,-6.8 22.7,-11.99 24,-13.6 2.609,-3.31 2.64,-6.38 0.101,-9.6 -2.21,-2.81 -9.8,-6.72 -13.26,-6.8 l -2.26,-0.064 2.18,-0.879 c 5,-2.01 19,-2.28 28.6,-0.547 7.72,1.39 12.1,2.99 23.57,8.58 15.58,7.6 27.7,11.84 42.8,14.9 10.88,2.217 27.2,2.79 27.2,0.954 0,-0.599 -2.01,-3.44 -4.46,-6.32 -10.9,-12.79 -13.76,-26.3 -11.7,-55.9 1.85,-26.6 6.1,-41.7 14.77,-52.2 4.52,-5.5 4.03,-5.7 -12.4,-5.05 -10.83,0.438 -14.38,1.036 -24.3,4.1 -29,8.95 -36,11.8 -53.5,21.78 -11.8,6.75 -13,7.2 -19.9,7.65 -7.59,0.487 -13.1,-0.46 -19.9,-3.42 l -3.97,-1.72 4.66,-0.724 c 14.45,-2.24 22.8,-7.24 22.8,-13.6 0,-2.84 -0.804,-4.25 -4.25,-7.44 -5.74,-5.32 -16.05,-12 -22.7,-14.76 -3.02,-1.24 -10.64,-4.94 -16.9,-8.2 -11.16,-5.81 -31.3,-12.84 -36.8,-12.86 -1.48,-0.005 -5,-1.089 -7.84,-2.4 -2.83,-1.319 -7.47,-2.61 -10.3,-2.88 -3.41,-0.32 -5.94,-1.215 -7.45,-2.63 -2.8,-2.63 -8.53,-3.69 -11.47,-2.12 -1.85,0.993 -2.64,0.773 -5.32,-1.488 -2.68,-2.257 -3.75,-2.55 -7.17,-2.01 -2.9,0.464 -4.92,0.154 -7.28,-1.116 -2.78,-1.497 -3.9,-1.588 -7.54,-0.61 -2.65,0.714 -4.63,0.795 -5.22,0.214 -0.522,-0.515 -3.12,-0.936 -5.78,-0.936 -2.78,0 -5.89,-0.69 -7.3,-1.627 -1.82,-1.194 -3.74,-1.468 -7.2,-1.03 -3.37,0.424 -5.29,0.173 -6.67,-0.873 -2.478,-1.87 -5.68,-1.86 -10.2,0.038 -2.578,1.077 -3.97,1.205 -4.88,0.448 -0.7,-0.583 -3.67,-0.953 -6.6,-0.823 -2.93,0.13 -6,-0.045 -6.83,-0.389 -0.825,-0.343 -4.65,0.285 -8.5,1.398" stroke="none" fill="currentColor" fill-rule="evenodd"/></g></svg>