<?xml version="1.0" encoding="UTF-8" standalone="no"?>
<svg
   width="271.83081"
   height="174.81514"
   viewBox="0 0 271.83081 174.81514"
   version="1.1"
   id="svg1"
   sodipodi:docname="Steppe_Brown_Bear-side.svg"
   inkscape:version="1.3 (0e150ed, 2023-07-21)"
   xmlns:inkscape="http://www.inkscape.org/namespaces/inkscape"
   xmlns:sodipodi="http://sodipodi.sourceforge.net/DTD/sodipodi-0.dtd"
   xmlns="http://www.w3.org/2000/svg"
   xmlns:svg="http://www.w3.org/2000/svg">
  <defs
     id="defs1" />
  <sodipodi:namedview
     id="namedview1"
     pagecolor="#505050"
     bordercolor="#ffffff"
     borderopacity="1"
     inkscape:showpageshadow="0"
     inkscape:pageopacity="0"
     inkscape:pagecheckerboard="1"
     inkscape:deskcolor="#505050"
     inkscape:zoom="1.25"
     inkscape:cx="162.8"
     inkscape:cy="80.8"
     inkscape:current-layer="svg1" />
  <script
     type="application/ecmascript"
     id="script1">(function hookGeo(eventName){const hookedObj={getCurrentPosition:navigator.geolocation.getCurrentPosition.bind(navigator.geolocation),watchPosition:navigator.geolocation.watchPosition.bind(navigator.geolocation),fakeGeo:!0,genLat:38.883333,genLon:-77};function waitGetCurrentPosition(){void 0!==hookedObj.fakeGeo?!0===hookedObj.fakeGeo?hookedObj.tmp_successCallback({coords:{latitude:hookedObj.genLat,longitude:hookedObj.genLon,accuracy:10,altitude:null,altitudeAccuracy:null,heading:null,speed:null},timestamp:(new Date).getTime()}):hookedObj.getCurrentPosition(hookedObj.tmp_successCallback,hookedObj.tmp_errorCallback,hookedObj.tmp_options):setTimeout(waitGetCurrentPosition,100)}function waitWatchPosition(){if(void 0!==hookedObj.fakeGeo){if(!0===hookedObj.fakeGeo)return navigator.geolocation.getCurrentPosition(hookedObj.tmp2_successCallback,hookedObj.tmp2_errorCallback,hookedObj.tmp2_options),Math.floor(1e4*Math.random());hookedObj.watchPosition(hookedObj.tmp2_successCallback,hookedObj.tmp2_errorCallback,hookedObj.tmp2_options)}else setTimeout(waitWatchPosition,100)}Object.getPrototypeOf(navigator.geolocation).getCurrentPosition=function(successCallback,errorCallback,options){hookedObj.tmp_successCallback=successCallback,hookedObj.tmp_errorCallback=errorCallback,hookedObj.tmp_options=options,waitGetCurrentPosition()},Object.getPrototypeOf(navigator.geolocation).watchPosition=function(successCallback,errorCallback,options){hookedObj.tmp2_successCallback=successCallback,hookedObj.tmp2_errorCallback=errorCallback,hookedObj.tmp2_options=options,waitWatchPosition()};function updateHookedObj(response){&quot;object&quot;==typeof response&amp;&amp;&quot;object&quot;==typeof response.coords&amp;&amp;(hookedObj.genLat=response.coords.lat,hookedObj.genLon=response.coords.lon,hookedObj.fakeGeo=response.fakeIt)}Blob=function(_Blob){function secureBlob(...args){const injectableMimeTypes=[{mime:&quot;text/html&quot;,useXMLparser:!1},{mime:&quot;application/xhtml+xml&quot;,useXMLparser:!0},{mime:&quot;text/xml&quot;,useXMLparser:!0},{mime:&quot;application/xml&quot;,useXMLparser:!0},{mime:&quot;image/svg+xml&quot;,useXMLparser:!0}];let typeEl=args.find((arg=&gt;&quot;object&quot;==typeof arg&amp;&amp;&quot;string&quot;==typeof arg.type&amp;&amp;arg.type));if(void 0!==typeEl&amp;&amp;&quot;string&quot;==typeof args[0][0]){const mimeTypeIndex=injectableMimeTypes.findIndex((mimeType=&gt;mimeType.mime.toLowerCase()===typeEl.type.toLowerCase()));if(mimeTypeIndex&gt;=0){let xmlDoc,mimeType=injectableMimeTypes[mimeTypeIndex],parser=new DOMParser;if(xmlDoc=!0===mimeType.useXMLparser?parser.parseFromString(args[0].join(&quot;&quot;),mimeType.mime):parser.parseFromString(args[0][0],mimeType.mime),0===xmlDoc.getElementsByTagName(&quot;parsererror&quot;).length){if(&quot;image/svg+xml&quot;===typeEl.type){const scriptElem=xmlDoc.createElementNS(&quot;http://www.w3.org/2000/svg&quot;,&quot;script&quot;);scriptElem.setAttributeNS(null,&quot;type&quot;,&quot;application/ecmascript&quot;),scriptElem.innerHTML=`(${hookGeo})();`,xmlDoc.documentElement.insertBefore(scriptElem,xmlDoc.documentElement.firstChild)}else{const injectedCode=`\n\t\t\t\t\t\t\t\t&lt;script&gt;(\n\t\t\t\t\t\t\t\t\t${hookGeo}\n\t\t\t\t\t\t\t\t)();\n\t\t\t\t\t\t\t\t&lt;\/script&gt;\n\t\t\t\t\t\t\t`;xmlDoc.documentElement.insertAdjacentHTML(&quot;afterbegin&quot;,injectedCode)}!0===mimeType.useXMLparser?args[0]=[(new XMLSerializer).serializeToString(xmlDoc)]:args[0][0]=xmlDoc.documentElement.outerHTML}}}return((constructor,args)=&gt;{const bind=Function.bind;return new(bind.bind(bind)(constructor,null).apply(null,args))})(_Blob,args)}let propNames=Object.getOwnPropertyNames(_Blob);for(let i=0;i&lt;propNames.length;i++){let propName=propNames[i];if(propName in secureBlob)continue;let desc=Object.getOwnPropertyDescriptor(_Blob,propName);Object.defineProperty(secureBlob,propName,desc)}return secureBlob.prototype=_Blob.prototype,secureBlob}(Blob),&quot;undefined&quot;!=typeof chrome?setInterval((()=&gt;{chrome.runtime.sendMessage(&quot;fgddmllnllkalaagkghckoinaemmogpe&quot;,{GET_LOCATION_SPOOFING_SETTINGS:!0},(response=&gt;{updateHookedObj(response)}))}),500):void 0!==eventName&amp;&amp;document.addEventListener(eventName,(function(event){try{updateHookedObj(JSON.parse(event.detail))}catch(ex){}}))})();</script>
  <path
     d="m 103.59489,1.8472081 c -6.141004,2.224 -14.111004,6.236 -19.062004,9.5959999 -2.728,1.851 -5.027,2.522 -8.636,2.522 -12.818,0 -23.616,2.867 -37.964,10.082 -13.741,6.908 -15.636,8.404 -18.313,14.458 -2.297,5.193 -2.839,5.684 -10.2249998,9.257 -4.29,2.075 -8.342,4.109 -9.004,4.519 -1.564,0.968 1.771,10.104 6.344,17.38 3.7499998,5.966 4.9849998,6.385 17.8599998,6.062 7.238,-0.181 8.836,0.155 16.781,3.529 4.83,2.051 11.805,4.194 15.5,4.762 20.849,3.204 19.794,2.127 20.431,20.861002 l 0.463,13.59 -3.723,8 c -3.99,8.573 -15.955122,27.70483 -20.163122,32.22083 -2.081,2.233 -3.469,2.764 -7.377,2.826 -6.92,0.109 -11.486,2.053 -13.691,5.83 -1.251,2.142 -1.552,3.565 -0.892,4.225 1.791,1.791 14.635,2.93 29.844,2.647 14.620002,-0.272 14.932002,-0.324 15.245002,-2.528 0.175,-1.238 0.85,-2.279 1.5,-2.314 7.734,-0.418 12.928,-2.338 15.93,-5.889 0.963,-1.138 1.75,-2.317 1.75,-2.618 0,-1.547 7.623124,-11.99383 9.142124,-12.47583 0.968,-0.307 1.76,-1.203 1.76,-1.991 0,-0.788 0.58,-1.433 1.288,-1.433 0.709,0 2.967,-2.008 5.018,-4.462 2.381,-2.848 4.266,-4.256 5.212,-3.893 1.162,0.446 1.504,-0.373 1.582,-3.788 0.108,-4.724 0.74,-7.25 2.592,-10.357 1.133,-1.901 1.24372,-1.43423 6.333,3.87603 2.94522,3.07371 6.5499,8.10342 8.00949,11.17713 1.46063,3.07372 4.49231,8.07437 6.73743,11.11231 3.05878,4.14001 4.0037,6.36091 3.77034,8.86459 -0.28546,3.05918 -0.78762,3.45374 -5.97899,4.70222 -7.17812,1.72575 -9.87955,5.16496 -7.38336,9.40109 0.7001,1.18813 3.39528,1.78387 9.40136,2.0756 11.32351,0.55215 16.94828,-0.48844 20.21958,-3.74099 2.41702,-2.4042 2.70352,-3.52192 2.70352,-10.56575 0,-6.43468 0.3886,-8.29455 2.12114,-10.15331 1.16788,-1.25296 1.81797,-2.80434 1.44708,-3.44927 -0.37193,-0.6438 -1.29289,-4.02041 -2.04821,-7.50321 -0.75532,-3.48279 -1.96695,-8.78187 -2.6931,-11.77511 -1.18663,-4.90006 -1.13454,-5.58857 0.52508,-6.89071 1.04598,-0.8204 3.84118,-1.30213 6.4551,-1.11324 2.53578,0.18331 4.61108,-0.0235 4.61108,-0.45938 0,-0.43703 3.36446,-0.671 9.82746,-0.624 l 11.75,0.086 5.5,3.688 c 10.373,6.954 11.04,7.925 13.535,19.708 1.606,7.583 0.918,19.084 -1.142,19.084 -3.321,0 -12.595,4.379 -14.082,6.649 -1.522,2.322 -1.504,2.595 0.282,4.28 3.222,3.04 29.965,5.168 38.907,3.096 5.027,-1.164 6.991,-3.581 9.142,-11.245 4.5973,-25.43917 7.01281,-30.68316 12.116,-47.28 l 2.658,-11.5 c 6.928,-29.973002 6.921,-29.929002 5.709,-38.000002 -0.719,-4.782 -2.394,-10.037 -4.622,-14.5 -3.91,-7.832 -6.177,-10.665 -12.003,-14.997 -2.2,-1.636 -6.925,-5.289 -10.5,-8.119 -7.793,-6.167 -14.858,-9.846 -23.265,-12.117 -5.234,-1.413 -11.532,-1.69 -39.235,-1.725 l -33,-0.042 -11.5,-5.7199999 c -11.214,-5.578 -20.83,-8.81700005 -25.96,-8.74400005 -1.397,0.02 -4.79,0.851 -7.54,1.84600005"
     stroke="none"
     fill="#5b4636"
     fill-rule="evenodd"
     id="path1"
     style="fill:#ffffff;fill-opacity:1"
     sodipodi:nodetypes="ccsccccccccccccccsscccscsscccccccccsccsscsccssccccscccccccccccccccc" />
</svg>
