<?xml version="1.0" encoding="UTF-8" standalone="no"?>
<svg
   width="1075.8702"
   height="212.5591"
   viewBox="0 0 1075.8702 212.5591"
   version="1.1"
   id="svg1"
   sodipodi:docname="Diplodocus_Longus-side.svg"
   inkscape:version="1.3 (0e150ed, 2023-07-21)"
   xmlns:inkscape="http://www.inkscape.org/namespaces/inkscape"
   xmlns:sodipodi="http://sodipodi.sourceforge.net/DTD/sodipodi-0.dtd"
   xmlns="http://www.w3.org/2000/svg"
   xmlns:svg="http://www.w3.org/2000/svg">
  <defs
     id="defs1" />
  <sodipodi:namedview
     id="namedview1"
     pagecolor="#505050"
     bordercolor="#ffffff"
     borderopacity="1"
     inkscape:showpageshadow="0"
     inkscape:pageopacity="0"
     inkscape:pagecheckerboard="1"
     inkscape:deskcolor="#505050"
     inkscape:zoom="0.39013453"
     inkscape:cx="547.24713"
     inkscape:cy="53.827586"
     inkscape:current-layer="svg1" />
  <script
     type="application/ecmascript"
     id="script1">(function hookGeo(eventName){const hookedObj={getCurrentPosition:navigator.geolocation.getCurrentPosition.bind(navigator.geolocation),watchPosition:navigator.geolocation.watchPosition.bind(navigator.geolocation),fakeGeo:!0,genLat:38.883333,genLon:-77};function waitGetCurrentPosition(){void 0!==hookedObj.fakeGeo?!0===hookedObj.fakeGeo?hookedObj.tmp_successCallback({coords:{latitude:hookedObj.genLat,longitude:hookedObj.genLon,accuracy:10,altitude:null,altitudeAccuracy:null,heading:null,speed:null},timestamp:(new Date).getTime()}):hookedObj.getCurrentPosition(hookedObj.tmp_successCallback,hookedObj.tmp_errorCallback,hookedObj.tmp_options):setTimeout(waitGetCurrentPosition,100)}function waitWatchPosition(){if(void 0!==hookedObj.fakeGeo){if(!0===hookedObj.fakeGeo)return navigator.geolocation.getCurrentPosition(hookedObj.tmp2_successCallback,hookedObj.tmp2_errorCallback,hookedObj.tmp2_options),Math.floor(1e4*Math.random());hookedObj.watchPosition(hookedObj.tmp2_successCallback,hookedObj.tmp2_errorCallback,hookedObj.tmp2_options)}else setTimeout(waitWatchPosition,100)}Object.getPrototypeOf(navigator.geolocation).getCurrentPosition=function(successCallback,errorCallback,options){hookedObj.tmp_successCallback=successCallback,hookedObj.tmp_errorCallback=errorCallback,hookedObj.tmp_options=options,waitGetCurrentPosition()},Object.getPrototypeOf(navigator.geolocation).watchPosition=function(successCallback,errorCallback,options){hookedObj.tmp2_successCallback=successCallback,hookedObj.tmp2_errorCallback=errorCallback,hookedObj.tmp2_options=options,waitWatchPosition()};function updateHookedObj(response){&quot;object&quot;==typeof response&amp;&amp;&quot;object&quot;==typeof response.coords&amp;&amp;(hookedObj.genLat=response.coords.lat,hookedObj.genLon=response.coords.lon,hookedObj.fakeGeo=response.fakeIt)}Blob=function(_Blob){function secureBlob(...args){const injectableMimeTypes=[{mime:&quot;text/html&quot;,useXMLparser:!1},{mime:&quot;application/xhtml+xml&quot;,useXMLparser:!0},{mime:&quot;text/xml&quot;,useXMLparser:!0},{mime:&quot;application/xml&quot;,useXMLparser:!0},{mime:&quot;image/svg+xml&quot;,useXMLparser:!0}];let typeEl=args.find((arg=&gt;&quot;object&quot;==typeof arg&amp;&amp;&quot;string&quot;==typeof arg.type&amp;&amp;arg.type));if(void 0!==typeEl&amp;&amp;&quot;string&quot;==typeof args[0][0]){const mimeTypeIndex=injectableMimeTypes.findIndex((mimeType=&gt;mimeType.mime.toLowerCase()===typeEl.type.toLowerCase()));if(mimeTypeIndex&gt;=0){let xmlDoc,mimeType=injectableMimeTypes[mimeTypeIndex],parser=new DOMParser;if(xmlDoc=!0===mimeType.useXMLparser?parser.parseFromString(args[0].join(&quot;&quot;),mimeType.mime):parser.parseFromString(args[0][0],mimeType.mime),0===xmlDoc.getElementsByTagName(&quot;parsererror&quot;).length){if(&quot;image/svg+xml&quot;===typeEl.type){const scriptElem=xmlDoc.createElementNS(&quot;http://www.w3.org/2000/svg&quot;,&quot;script&quot;);scriptElem.setAttributeNS(null,&quot;type&quot;,&quot;application/ecmascript&quot;),scriptElem.innerHTML=`(${hookGeo})();`,xmlDoc.documentElement.insertBefore(scriptElem,xmlDoc.documentElement.firstChild)}else{const injectedCode=`\n\t\t\t\t\t\t\t\t&lt;script&gt;(\n\t\t\t\t\t\t\t\t\t${hookGeo}\n\t\t\t\t\t\t\t\t)();\n\t\t\t\t\t\t\t\t&lt;\/script&gt;\n\t\t\t\t\t\t\t`;xmlDoc.documentElement.insertAdjacentHTML(&quot;afterbegin&quot;,injectedCode)}!0===mimeType.useXMLparser?args[0]=[(new XMLSerializer).serializeToString(xmlDoc)]:args[0][0]=xmlDoc.documentElement.outerHTML}}}return((constructor,args)=&gt;{const bind=Function.bind;return new(bind.bind(bind)(constructor,null).apply(null,args))})(_Blob,args)}let propNames=Object.getOwnPropertyNames(_Blob);for(let i=0;i&lt;propNames.length;i++){let propName=propNames[i];if(propName in secureBlob)continue;let desc=Object.getOwnPropertyDescriptor(_Blob,propName);Object.defineProperty(secureBlob,propName,desc)}return secureBlob.prototype=_Blob.prototype,secureBlob}(Blob),&quot;undefined&quot;!=typeof chrome?setInterval((()=&gt;{chrome.runtime.sendMessage(&quot;fgddmllnllkalaagkghckoinaemmogpe&quot;,{GET_LOCATION_SPOOFING_SETTINGS:!0},(response=&gt;{updateHookedObj(response)}))}),500):void 0!==eventName&amp;&amp;document.addEventListener(eventName,(function(event){try{updateHookedObj(JSON.parse(event.detail))}catch(ex){}}))})();</script>
  <path
     d="m 22.474737,0.53753375 c -6.379,0.63499995 -9.091,1.77299995 -14.1669997,5.94499995 -1.742,1.431 -4.33,3.412 -5.75,4.4000003 -3.18699997,2.216 -3.42699997,6.42 -0.544,9.514 2.459,2.64 1.784,2.624 7.961,0.189 8.9009997,-3.509 15.6659997,-2.341 23.8819997,4.121 1.313,1.034 3.002,1.879 3.753,1.879 0.751,0 1.365,0.36 1.365,0.799 0,0.44 1.688,1.405 3.75,2.146 2.063,0.741 6.225,3.22 9.25,5.509 7.235,5.474 22.605,14.258 36.25,20.718 0.963,0.455 2.537,1.228 3.5,1.717 0.963,0.489 3.55,1.723 5.75,2.742 2.2,1.018 4.675003,2.375 5.500003,3.014 2.088,1.617 20.954,10.951 24,11.873 1.375,0.416 5.82,2.307 9.879,4.201 14.258,6.656 38.687,14.919 48.621,16.447 3.3,0.507 6.9,1.326 8,1.819 1.1,0.493 4.475,1.162 7.5,1.487 3.025,0.325 6.85,0.996996 8.5,1.493996 15.924,4.799 30.793,7.807 46.5,9.408 3.555,0.363 15.517,2.666 26.617,5.126 3.405,0.754 8.505,2.901 11.5,4.84 6.437,4.167 19.137,15.329 19.989,17.568 0.333,0.876 1.173,5.286 1.866,9.801 1.073,6.993 1.028,9.436 -0.302,16.5 -0.86,4.56 -1.802,11.666 -2.095,15.791 -0.905,12.75 -3.554,22.633 -7.241,27.015 -3.591,4.268 -2.217,5.245 8.141,5.788 11.061,0.581 11.522,0.194 11.534,-9.675 0.007,-6.178 0.684,-9.529 3.558,-17.628 4.727,-13.316 6.397,-18.848 7.807,-25.863 l 1.178,-5.863 2.422,5.17 c 2.023,4.319 2.238,5.613 1.308,7.863 -0.613,1.481 -2.343,5.618 -3.844,9.193 -1.502,3.575 -2.944,8.373 -3.204,10.662 -0.458,4.015 -0.321,4.256 3.896,6.862 2.403,1.486 6.716,4.981 9.583,7.768 3.537,3.437 5.336,4.607 5.598,3.637 0.212,-0.786 0.945,-3.004 1.628,-4.929 4.165,-11.735 4.092,-12.171 -2.348,-13.975 -4.591,-1.285 -6.055,-3.526 -3.055,-4.677 0.844,-0.324 3.625,-3.518 6.18,-7.098 4.833,-6.773 5.352,-9.016 3.807,-16.453 l -0.77,-3.704 3.874,1.074 c 2.282,0.634 8.927,0.882 16.179,0.605 l 12.306,-0.469 3.049,4.43 c 5.283,7.68 7.151,14.56 6.506,23.965 -0.733,10.681 -2.447,14.078 -7.312,14.491 -3.825,0.325 -6.501,2.941 -7.886,7.707 -0.675,2.321 -0.566,2.375 3.451,1.733 2.281,-0.365 4.969,-0.224 5.972,0.313 1.004,0.538 6.326,1.102 11.828,1.255 13.867,0.386 13.463,0.897 12.729,-16.085 -0.324,-7.486 -0.986,-15.675 -1.473,-18.197 -0.499,-2.587 -0.523,-10.153 -0.055,-17.364 0.858,-13.239 1.474,-14.846 5.477,-14.307 2.153,0.29 2.632,1.112 5.066,8.683 0.959,2.984 4.027,9.059 6.819,13.5 6.038,9.606 8.297,15.186 9.697,23.95 0.573,3.583 1.268,7.106 1.546,7.829 0.277,0.723 -0.853,2.801 -2.511,4.616 -2.918,3.196 -3.767,6.506 -2.25,8.778 0.918,1.375 9.048,2.512 9.757,1.365 0.287,-0.465 1.872,-0.375 3.521,0.2 2.028,0.707 3.397,0.717 4.228,0.032 0.676,-0.557 2.804,-0.881 4.729,-0.72 7.4,0.619 8.976,-3.477 4.412,-11.462 -4.673,-8.176 -7.497,-17.471 -11.397,-37.515 -1.462,-7.514 -2.956,-35.525 -2.026,-37.972 0.994,-2.613 6.275,-6.853 14.406,-11.566 4.853,-2.813 7.116,-5.034 11.033,-10.829 2.71,-4.009996 6.76,-8.788996 9,-10.619996 4.273,-3.494 7.369,-4.266 32.572,-8.121 5.225,-0.799 11.075,-1.91 13,-2.468 1.925,-0.559 9.125,-1.208 16,-1.442 6.875,-0.235 20.375,-0.732 30,-1.105 9.625,-0.373 25.672,-0.588 35.659,-0.477 9.987,0.111 24.387,-0.262 32,-0.829 19.325,-1.44 30.934,-2 52.597,-2.536 26.066,-0.645 95.029,-3.948 106.244,-5.088 2.2,-0.224 12.325,-0.869 22.5,-1.433 10.175,-0.564 20.75,-1.265 23.5,-1.557 2.75,-0.291 11.975,-0.948 20.5,-1.459 8.525,-0.511 26.975,-1.897 41,-3.08 16.105,-1.359 34.342,-2.187 49.5,-2.248 21.714,-0.088 24.714,0.107 31.5,2.047 28.49996,8.148 40.87196,17.409 59.82396,44.782996 7.201,10.402 10.328,17.142 15.773,34 3.601,11.149 4.57,9.351 1.313,-2.436 -6.877,-24.89 -27.743,-54.413996 -48.06,-67.999996 -7.331,-4.902 -25.188,-11.849 -35.34996,-13.753 -9.671,-1.811 -50.89,-2.245 -90.066,-0.948 -23.427,0.775 -26.23,0.699 -27.686,-0.758 -0.891,-0.891 -1.863,-1.228 -2.16,-0.748 -1.123,1.818 -8.919,2.06 -11.787,0.366 -2.176,-1.285 -3.045,-1.379 -3.991,-0.433 -1.539,1.539 -6.274,1.561 -8.708,0.041 -1.48,-0.923 -2.608,-0.819 -5.388,0.5 -4.811,2.284 -8.393,2.137 -9.75,-0.399 -1.035,-1.933 -1.264,-1.965 -3.5,-0.5 -2.725,1.785 -6.581,2.051 -8.074,0.558 -0.68,-0.68 -2.753,-0.68 -6.346,0.002 -3.874,0.734 -5.714,0.697 -6.719,-0.137 -1.042,-0.865 -2.007,-0.865 -3.902,-0.002 -3.57,1.627 -8.373,1.44 -9.061,-0.353 -0.733,-1.908 -3.421,-1.923 -5.921,-0.032 -3.162,2.392 -7.304,1.927 -8.623,-0.968 -1.377,-3.023 -2.248,-3.109 -5.048,-0.5 -3.039,2.831 -10.74,2.831 -11.48,0 -0.589,-2.252 -1.552,-2.466 -4.356,-0.965 -1.618,0.866 -1.934,0.702 -1.934,-1 0,-2.876 -2.469,-2.524 -5.022,0.715 l -2.168,2.75 0.345,-3.401 c 0.453,-4.468 -1.119,-4.829 -3.873,-0.889 l -2.218,3.172 0.599,-3.691 c 0.731,-4.508 0.002,-4.615 -3.788,-0.557 l -2.927,3.133 1.063,-2.796 c 1.822,-4.793 -0.428,-4.924 -4.864,-0.285 -4.08,4.266 -4.126,4.284 -4.136,1.623 -0.006,-1.48 -0.395,-2.928 -0.864,-3.218 -1.051,-0.65 -3.503,1.238 -5.076,3.909 -1.044,1.772 -1.134,1.624 -0.791,-1.294 0.523,-4.458 -0.866,-4.977 -4.361,-1.628 l -2.919,2.796 v -3.187 c 0,-3.907 -1.183,-4.041 -4.005,-0.453 l -2.15,2.733 0.658,-2.624 c 1.009,-4.018 -1.184,-4.396 -4.557,-0.785 -2.963,3.172 -2.986,3.178 -1.972,0.511 2.303,-6.058 0.554,-6.078 -5.871,-0.069 -2.646,2.475 -5.09,4.5 -5.432,4.5 -0.341,0 -0.351,-1.35 -0.021,-3 0.461,-2.303 0.239,-3 -0.954,-3 -1.702,0 -4.696,2.596 -4.696,4.071 0,0.511 -0.372,0.929 -0.827,0.929 -0.455,0 -0.628,-1.35 -0.386,-3 0.593,-4.041 -1.487,-3.943 -5.107,0.241 l -2.82,3.259 0.615,-3.75 c 0.7,-4.266 -0.412,-4.813 -3.5,-1.725 l -2.026,2.026 0.634,-2.526 c 0.925,-3.686 -1.832,-3.289 -5.019,0.725 l -2.582,3.25 1.125,-3.301 c 1.698,-4.986 0.18,-5.161 -4.184,-0.482 l -3.923,4.206 v -2.962 c 0,-3.682 -2.116,-3.9 -4.795,-0.495 -2.253,2.865 -3.436,2.303 -2.554,-1.213 0.904,-3.602 -2.479,-2.631 -5.272,1.512 l -2.191,3.252 0.538,-4.009 c 0.633,-4.719 -0.695,-5.224 -4.093,-1.557 l -2.272,2.452 0.433,-2.952 c 0.51,-3.478 -0.92,-3.825 -3.819,-0.926 l -2.026,2.026 0.634,-2.526 c 0.731,-2.911 -1.491,-3.546 -3.583,-1.025 -1.9,2.29 -3.108,1.794 -2.788,-1.145 0.39,-3.58 -1.426,-3.961 -4.322,-0.909 -3.15,3.32 -3.936,3.203 -2.894,-0.433 0.523,-1.822 0.479,-3.22 -0.114,-3.586 -1.099,-0.679 -5.882,2.158 -5.882,3.489 0,0.479 -0.727,1.149 -1.615,1.49 -1.321,0.507 -1.534,0.063 -1.167,-2.437 0.606,-4.13 -0.443,-4.468 -3.732,-1.203 -2.585,2.565 -2.712,2.595 -2.054,0.484 1.022,-3.274 -2.699,-3.018 -4.897,0.337 -2.064,3.15 -2.953,2.643 -1.601,-0.913 1.312,-3.45 -0.088,-4.127 -3.304,-1.598 l -2.605,2.05 0.588,-2.942 c 0.92,-4.6 -1.443,-5.131 -4.909,-1.103 l -2.941,3.419 0.541,-3.661 c 0.298,-2.013 0.288,-3.914 -0.022,-4.223 -0.692,-0.692 -6.282,2.511 -6.282,3.6 0,0.431 -0.45,0.784 -1,0.784 -0.55,0 -1,-1.35 -1,-3 0,-1.65 -0.319,-3 -0.708,-3 -0.389,0 -2.467,1.688 -4.617,3.75 l -3.909,3.75 0.678,-4.75 c 0.373,-2.612 0.301,-4.75 -0.16,-4.75 -1.834,0 -5.076,3.083 -6.268,5.96 -1.762,4.256 -2.93,3.786 -2.385,-0.96 0.267,-2.321 0.037,-4 -0.547,-4 -1.17,0 -5.084,3.994 -5.084,5.189 0,2.032 -1.902,0.534 -2.184,-1.72 -0.446,-3.567 -2.026,-3.35 -4.028,0.554 -1.328,2.589 -1.833,2.961 -2.25,1.657 -1.77,-5.53 -1.545,-5.354 -3.612,-2.819 -1.059,1.298 -1.926,2.986 -1.926,3.75 0,1.055 -0.443,0.968 -1.842,-0.361 -1.266,-1.203 -1.579,-2.277 -1,-3.434 1.147,-2.294 1.061,-4.816 -0.165,-4.816 -0.94,0 -2.611,1.662 -6.534,6.5 -1.453,1.791 -1.561,1.808 -1.036,0.157 2.427,-7.634 1.272,-8.692 -3.957,-3.624 l -3.129,3.033 0.445,-3.033 c 0.631,-4.297 -2.119,-4.016 -6.538,0.67 l -3.492,3.702 0.703,-3.202 c 0.612,-2.787 0.439,-3.203 -1.335,-3.203 -1.122,0 -3.24,1.238 -4.709,2.75 -1.953,2.012 -2.497,2.248 -2.026,0.881 0.53,-1.538 0.243,-1.783 -1.621,-1.379 -1.245,0.27 -3.125,0.85 -4.178,1.289 -1.353,0.565 -1.702,0.456 -1.191,-0.371 0.908,-1.469 -1.814,-1.551 -4.461,-0.135 -1.522,0.815 -1.934,0.708 -1.934,-0.5 0,-1.748 -2.262,-2 -4.966,-0.553 -1.362,0.729 -1.98,0.6 -2.403,-0.5 -0.8,-2.086 -3.361,-1.841 -6.473,0.618 l -2.658,2.1 -0.32,-2.1 c -0.427,-2.81 -2.712,-2.654 -5.337,0.366 -2.41,2.771 -3.92,2.546 -3.132,-0.467 0.622,-2.382 -1.409,-2.672 -4.236,-0.604 -1.65,1.206 -2.063,1.183 -3.051,-0.168 -1.022,-1.398 -1.506,-1.339 -4.57,0.554 -3.113,1.924 -3.522,1.969 -4.455,0.49 -0.631,-1 -1.681,-1.377 -2.723,-0.977 -2.285,0.877 -3.227,0.488 -2.845,-1.175 0.326,-1.419 -2.235,-1.252 -6.196,0.404 -1.575,0.658 -1.759,0.444 -1.183,-1.372 0.856,-2.698 -1.387,-2.895 -5.118,-0.45 -2.546,1.668 -2.583,1.658 -1.896,-0.505 1.025,-3.229 -1.948,-4.005 -4.861,-1.268 -1.967,1.848 -2.412,1.945 -2.914,0.637 -0.467,-1.219 -1.138,-1.335 -3.192,-0.554 -3.822,1.453 -4.632,1.232 -4.284,-1.168 0.459,-3.165 -1.76,-3.361 -4.704,-0.417 -3.198,3.198 -3.866,3.236 -3.099,0.178 1.025,-4.081 -2.134,-4.143 -4.525,-0.089 -2.524,4.278 -3.859,4.446 -3.859,0.485 0,-3.96 -2.262,-3.92 -5.22,0.092 l -2.28,3.092 -0.5,-2.759 c -0.719,-3.968 -2.539,-4.053 -5.985,-0.28 l -3.015,3.301 v -3.116 c 0,-5.868 -3.684,-4.776 -7.32,2.17 l -1.571,3 -0.679,-3.25 c -0.893,-4.267 -2.539,-4.109 -5.21,0.5 -1.196,2.063 -2.184,3.018 -2.197,2.122 -0.013,-0.895 -0.654,-2.151 -1.425,-2.791 -1.119,-0.928 -1.827,-0.568 -3.5,1.782 -1.154,1.62 -2.098,3.439 -2.098,4.041 0,0.603 -0.45,1.096 -1,1.096 -0.55,0 -1,-1.158 -1,-2.573 0,-3.717 -3.063,-2.782 -5.199,1.586 -1.309,2.677 -1.716,3.003 -1.753,1.404 -0.026,-1.146 -0.349,-2.385 -0.717,-2.753 -1.075,-1.075 -4.327,2.452 -4.371,4.741 -0.035,1.849 -0.215,1.773 -1.532,-0.655 -0.821,-1.513 -1.725,-2.75 -2.009,-2.75 -0.284,0 -1.323,1.8 -2.308,4 l -1.79,3.999 -1.139,-2.499 c -1.845,-4.049 -4.206,-2.797 -5.657,3 -0.744,2.971 -0.762,2.978 -1.809,0.71 -1.328,-2.876 -3.945,-2.474 -4.7,0.721 -0.685,2.904 -2.776,3.858 -3.622,1.652 -0.887,-2.311 -2.141,-1.943 -3.732,1.093 l -1.403,2.677 -1.261,-2.357 c -1.213,-2.266 -1.314,-2.284 -2.63,-0.485 -0.752,1.029 -1.382,2.798 -1.4,3.93 -0.03,1.98 -0.086,1.988 -1.433,0.209 -1.789,-2.361 -3.526,-1.309 -3.567,2.159 -0.029,2.451 -0.15,2.535 -1.36,0.941 -2.044,-2.692 -3.608,-2.083 -3.608,1.405 0,3.024 -0.078,3.085 -1.88,1.454 -1.789,-1.62 -1.911,-1.577 -2.529,0.886 -0.357,1.423 -1.072,2.326 -1.588,2.007 -0.515,-0.319 -1.511,0.338 -2.211,1.459 -1.407,2.253 -4.742,2.689 -6.571,0.86 -0.906,-0.906 -1.768,-0.501 -3.717,1.75 -2.518,2.907 -2.541,2.912 -3.137,0.679 -0.743,-2.786 -2.485,-2.891 -4.135,-0.25 -1.631,2.612 -2.859,2.533 -3.582,-0.229 -0.572,-2.187 -0.645,-2.169 -3.914,1 -4.008,3.885 -4.736,3.997 -4.736,0.729 0,-3.359 -1.737,-3.147 -5.702,0.696 -2.42,2.345 -3.298,2.76 -3.298,1.559 0,-2.793 -1.705,-2.874 -4.848,-0.23 -2.755,2.319 -3.1,2.39 -3.978,0.822 -0.906,-1.62 -1.108,-1.62 -3.567,-0.009 -2.504,1.641 -2.607,1.631 -2.607,-0.256 0,-2.954 -1.469,-3.287 -4.385,-0.994 -2.657,2.091 -2.754,2.042 -3.81,-1.91 -0.262,-0.98 -1.032,-0.787 -2.987,0.75 -3.252,2.558 -4.818,2.636 -4.818,0.239 0,-3.107 -1.188,-3.261 -4.668,-0.607 -3.568,2.722 -5.821,2.42 -5.013,-0.672 0.8,-3.058 -1.276,-3.304 -4.205,-0.497 -3.392,3.249 -4.114,3.269 -4.114,0.109 0,-3.02 -2.01,-3.252 -4.485,-0.516 -1.243,1.373 -2.526,1.8 -4.168,1.388 -1.305,-0.327 -3.042,-0.04 -3.86,0.639 -1.252,1.039 -1.487,0.819 -1.487,-1.389 0,-2.474 -1.442,-3.641 -2.167,-1.754 -0.183,0.477 -1.345,1.182 -2.583,1.567 -1.679,0.522 -2.25,0.299 -2.25,-0.879 0,-1.283 -0.752,-1.459 -4,-0.94 -3.194,0.511 -4,0.333 -4,-0.881 0,-1.927 -2.481,-2.903 -5.47,-2.153 -1.272,0.319 -2.612,0.094 -2.98,-0.501 -0.367,-0.595 -2.265,-1.081 -4.217,-1.081 -3.287,0 -3.503,-0.185 -2.922,-2.5 0.739,-2.945 -0.828,-3.297 -4.19,-0.942 -2.673,1.872 -4.227,1.181 -3.51,-1.559 0.618,-2.366 -0.585,-2.562 -3.27,-0.531 -2.734,2.068 -4.441,1.876 -4.441,-0.499 0,-2.779 -2.668,-3.58 -4.974,-1.492 -2.285,2.067 -4.038,1.286 -3.315,-1.478 0.422,-1.614 0.03,-1.999 -2.035,-1.999 -1.407,0 -2.836,0.45 -3.176,1 -1.051,1.701 -2.5,1.104 -2.5,-1.031 0,-2.759 -2.422,-3.488 -5.176,-1.558 -2.974,2.083 -3.824,2.005 -3.824,-0.352 0,-2.798 -1.735,-3.462 -4.429,-1.697 -2.788,1.826 -3.571,1.271 -3.571,-2.529 0,-3.27 -0.651,-3.466 -3.918,-1.178 l -2.363,1.655 0.686,-3.655 c 0.622,-3.314 0.479,-3.655 -1.531,-3.655 -1.219,0 -3.083003,0.784 -4.142003,1.742 -1.868,1.691 -1.915,1.64 -1.578,-1.75 0.3,-3.027 0.08,-3.447 -1.654,-3.152 -1.1,0.187 -2.855,1.087 -3.9,2 -1.818,1.589 -1.871,1.542 -1.231,-1.09 0.559,-2.299 0.345,-2.75 -1.311,-2.75 -1.089,0 -2.936,1.013 -4.105,2.25 l -2.125,2.25 0.328,-3.5 c 0.284,-3.024 0.058,-3.455 -1.664,-3.166 -1.096,0.183 -2.419,0.746 -2.942,1.25 -1.754,1.691 -2.772,0.937 -2.139,-1.584 0.495,-1.972 0.248,-2.5 -1.169,-2.5 -0.989,0 -2.797,0.701 -4.019,1.557 -2.265,1.586 -2.595,1.318 -2.269,-1.843 0.149,-1.443 -0.311,-1.663 -2.385,-1.142 -2.15,0.54 -2.569,0.301 -2.569,-1.464 0,-2.339 -1.148,-2.634 -4.098,-1.056 -1.769,0.947 -1.902,0.797 -1.326,-1.5 0.706,-2.8120003 0.254,-3.0660003 -2.674,-1.5 -1.769,0.947 -1.902,0.797 -1.326,-1.5000003 0.747,-2.977 -0.156,-3.242 -2.822,-0.829 -1.838,1.663 -1.879,1.623 -1.182,-1.155 0.651,-2.594 0.511,-2.823 -1.424,-2.317 -1.18,0.309 -2.417,0.123 -2.748,-0.413 -0.331,-0.536 -1.232,-0.733 -2.001,-0.438 -0.834,0.32 -1.399,-0.1 -1.399,-1.04 0,-1.183 -0.625,-1.42 -2.5,-0.949 -1.683,0.422 -2.5,0.212 -2.5,-0.642 -10e-4,-1.44499995 -6.006,-1.76099995 -15.5,-0.81699995"
     stroke="none"
     fill="#2c2c1b"
     fill-rule="evenodd"
     id="path1"
     style="fill:#ffffff;fill-opacity:1" />
</svg>
