<?xml version="1.0" encoding="UTF-8" standalone="no"?>
<!-- Created with Inkscape (http://www.inkscape.org/) -->

<svg
   width="414.66583mm"
   height="218.06073mm"
   viewBox="0 0 414.66583 218.06073"
   version="1.1"
   id="svg1"
   xml:space="preserve"
   inkscape:version="1.3 (0e150ed, 2023-07-21)"
   sodipodi:docname="RoboBee-front.svg"
   xmlns:inkscape="http://www.inkscape.org/namespaces/inkscape"
   xmlns:sodipodi="http://sodipodi.sourceforge.net/DTD/sodipodi-0.dtd"
   xmlns="http://www.w3.org/2000/svg"
   xmlns:svg="http://www.w3.org/2000/svg"><sodipodi:namedview
     id="namedview1"
     pagecolor="#505050"
     bordercolor="#ffffff"
     borderopacity="1"
     inkscape:showpageshadow="0"
     inkscape:pageopacity="0"
     inkscape:pagecheckerboard="1"
     inkscape:deskcolor="#505050"
     inkscape:document-units="mm"
     showguides="true"
     inkscape:zoom="0.22984007"
     inkscape:cx="994.16957"
     inkscape:cy="374.17323"
     inkscape:current-layer="layer1" /><defs
     id="defs1"><inkscape:path-effect
       effect="mirror_symmetry"
       start_point="-62.775971,363.20086"
       end_point="-62.775971,198.1734"
       center_point="-62.775971,280.68713"
       id="path-effect1"
       is_visible="true"
       lpeversion="1.2"
       lpesatellites=""
       mode="free"
       discard_orig_path="false"
       fuse_paths="false"
       oposite_fuse="false"
       split_items="false"
       split_open="false"
       link_styles="false" /></defs><g
     inkscape:label="Layer 1"
     inkscape:groupmode="layer"
     id="layer1"
     transform="translate(270.10894,-202.786)"><path
       id="path1"
       style="fill:#ffffff;fill-opacity:1;stroke-width:19.8438;stroke-linecap:round;stroke-linejoin:round"
       d="m -244.64863,202.79641 c -14.6332,0.13687 -21.88001,1.60924 -24.68118,3.60081 -5.60247,3.98314 19.98819,20.36224 45.36054,36.5342 25.37228,16.17203 51.32508,24.87663 71.41476,24.49618 20.08968,-0.38041 39.74019,-27.31112 52.4738,-31.56241 12.733563,-4.25128 16.114776,-5.3976 16.114776,-5.3976 l -0.162264,-7.70909 c 0,0 1.208835,0.11244 1.391646,-0.90227 0.182814,-1.01478 -0.495577,-1.29347 -0.495577,-1.29347 l 1.461926,-0.5674 0.898137,12.96871 h 0.629419 l 0.618567,0.61909 h 3.064412 c 0,0 0.434859,0.4439 1.040763,0.4439 0.605915,0 0.883667,-0.51315 0.883667,-0.51315 h 2.988965 l -0.148311,6.25957 -0.934827,0.0398 -0.719336,16.19229 1.138432,0.30334 -2.765723,106.68083 c 0,0 -0.214603,0.27811 -1.05885,0.0827 -0.844246,-0.19545 -1.016992,0.6718 -1.016992,0.6718 v 2.44739 h -1.97404 v 0.33073 h -3.201355 v 0.51521 l -73.140755,42.22792 c 0.13375,-2.05733 0.15711,-4.10915 -0.15245,-5.06274 -0.6475,-1.99474 -1.40922,-4.06333 -2.98896,-4.78059 -1.57974,-0.71726 -8.03445,-1.57588 -10.32754,-0.78755 -2.29306,0.78835 -2.73802,3.99872 -5.6813,3.99872 -2.94331,0 -1.56647,2.32536 -1.78232,5.1139 -0.21584,2.78858 -3.54023,7.20017 -1.81695,9.21185 1.72331,2.01168 5.3076,3.82302 8.36073,3.82302 8.17918,0 11.80459,-1.76694 12.58012,-2.54248 0.77551,-0.77552 0.98496,-2.00445 1.24746,-3.62769 0.12588,-0.7784 0.37179,-2.74948 0.52452,-4.80591 l 73.178996,-42.13179 h 3.199804 v 0.13952 h 15.728756 v 29.22354 c -3.384524,0.028 -7.799337,1.52945 -8.333341,2.39314 -0.742,1.20009 -0.549748,1.26691 -2.497006,2.51664 -1.947258,1.2497 -2.605515,9.26749 -2.709395,11.28665 -0.10388,2.01918 2.418608,5.93344 6.264734,6.75721 3.846116,0.82377 9.820397,0.90514 13.144934,0.72192 3.324527,-0.18322 5.405203,-4.72275 7.643461,-7.09466 2.238248,-2.37192 2.840359,-9.85353 1.026811,-11.55588 -1.781819,-1.67258 -8.552362,-2.23362 -11.201384,-4.16254 v -30.08602 h 13.632243 v -0.13952 h 3.204456 l 72.627608,41.8145 c 0.208319,0.4181 0.465059,0.84038 0.794784,1.25884 4.053136,5.1438 6.347271,9.14166 7.402132,9.23096 7.833502,0.66295 13.47711,1.13462 16.872355,0.70073 3.410604,-0.43585 3.746959,-6.65119 2.317171,-7.65121 -1.429785,-0.99999 -2.286736,-11.6561 -3.56309,-13.07465 -1.276351,-1.41862 -6.283797,-4.27804 -8.385018,-3.00137 -2.551739,1.5504 -5.918258,3.20336 -10.456209,3.01532 -3.130726,-0.12973 -5.412871,3.90869 -5.556767,4.65553 -0.107802,0.55952 -0.436644,2.25702 0.267684,4.16822 l -72.3191,-41.75353 v -0.51521 h -3.206006 v -0.33073 h -1.974039 v -2.44739 c 0,0 -0.172747,-0.86725 -1.016993,-0.6718 -0.844247,0.19547 -1.05885,-0.0827 -1.05885,-0.0827 l -2.765722,-106.68083 1.138948,-0.30334 -0.719853,-16.19229 -0.934826,-0.0398 -0.148312,-6.25957 h 2.988965 c 0,0 0.278276,0.51315 0.884184,0.51315 0.605904,0 1.040247,-0.4439 1.040247,-0.4439 h 3.064412 l 0.618567,-0.61909 h 0.629419 l 0.898653,-12.96871 1.461926,0.5674 c 0,0 -0.678907,0.27869 -0.496093,1.29347 0.182804,1.01471 1.391646,0.90227 1.391646,0.90227 l -0.162264,7.70909 c 0,0 3.381188,1.14632 16.114779,5.3976 12.733585,4.25129 32.3841194,31.182 52.473799,31.56241 20.089677,0.38045 46.042452,-8.32415 71.414763,-24.49618 25.372281,-16.17196 50.962941,-32.55106 45.360541,-36.5342 -5.60247,-3.98314 -28.98743,-5.88781 -93.681623,0.80977 -64.694165,6.69758 -66.621814,6.20679 -67.799479,7.18096 -1.177666,0.97418 -8.827368,9.20099 -8.827368,9.20099 l -0.138493,-2.57039 c 0,0 1.187238,0.67423 1.089339,-0.89814 -0.0979,-1.5723 -0.961698,-1.14721 -0.961698,-1.14721 l -0.565341,-0.5979 -13.68857,-1.70842 -0.343131,-0.99477 -1.217497,0.006 -0.162781,0.35553 -1.604036,-0.009 -0.604098,-1.03198 -3.080949,-0.37672 c 0,0 0.01056,-0.59996 -1.051098,-0.59996 -1.061649,0 -1.123963,0.60823 -1.123963,0.60823 h -1.930114 v -2.75487 h -3.664376 c 0.578731,-0.99867 0.867835,-1.70206 0.438216,-2.18385 -0.4875,-0.5467 -2.236942,-1.49018 -2.253609,-2.33577 -0.01667,-0.84559 -2.522683,-1.43867 -3.012219,-1.5627 -0.489541,-0.12405 -3.919035,0.89707 -4.289661,1.34152 -0.37062,0.44447 -2.452624,0.0716 -2.822567,0.33073 -0.36994,0.25903 -2.725823,1.77275 -1.887223,3.33416 0.173478,0.32302 0.430904,0.6935 0.731221,1.07591 h -4.965588 v 2.75487 h -1.930115 c 0,0 -0.06231,-0.60823 -1.123962,-0.60823 -1.061653,0 -1.051099,0.59996 -1.051099,0.59996 l -3.080949,0.37672 -0.604097,1.03198 -1.604037,0.009 -0.16278,-0.35553 -1.217497,-0.006 -0.343132,0.99477 -13.688053,1.70842 -0.565857,0.5979 c 0,0 -0.863798,-0.42509 -0.961698,1.14721 -0.0979,1.57237 1.089339,0.89814 1.089339,0.89814 l -0.138493,2.57039 c 0,0 -7.649184,-8.22681 -8.826854,-9.20099 -1.17767,-0.97417 -3.10586,-0.48338 -67.79999,-7.18096 -32.3471,-3.34882 -54.36731,-4.54745 -69.00044,-4.41058 z" /></g></svg>
