<?xml version="1.0" encoding="UTF-8" standalone="no"?>
<!-- Created with Inkscape (http://www.inkscape.org/) -->

<svg
   width="451.6824"
   height="2948.2439"
   viewBox="0 0 119.50763 780.0562"
   version="1.1"
   id="svg1"
   xml:space="preserve"
   inkscape:version="1.3 (0e150ed, 2023-07-21)"
   sodipodi:docname="Big_Fin_Squid-front.svg"
   inkscape:export-filename="Big Fin Squid Silhouette.png"
   inkscape:export-xdpi="96"
   inkscape:export-ydpi="96"
   xmlns:inkscape="http://www.inkscape.org/namespaces/inkscape"
   xmlns:sodipodi="http://sodipodi.sourceforge.net/DTD/sodipodi-0.dtd"
   xmlns="http://www.w3.org/2000/svg"
   xmlns:svg="http://www.w3.org/2000/svg"><sodipodi:namedview
     id="namedview1"
     pagecolor="#505050"
     bordercolor="#ffffff"
     borderopacity="1"
     inkscape:showpageshadow="0"
     inkscape:pageopacity="0"
     inkscape:pagecheckerboard="1"
     inkscape:deskcolor="#505050"
     inkscape:document-units="mm"
     inkscape:zoom="0.10378067"
     inkscape:cx="-510.69241"
     inkscape:cy="1570.62"
     inkscape:window-width="1600"
     inkscape:window-height="837"
     inkscape:window-x="-8"
     inkscape:window-y="-8"
     inkscape:window-maximized="1"
     inkscape:current-layer="layer1" /><defs
     id="defs1" /><g
     inkscape:label="Layer 1"
     inkscape:groupmode="layer"
     id="layer1"
     transform="translate(-6.3920156,-6.8468875)"><path
       id="path1"
       style="fill:#ffffff;fill-opacity:1;stroke-width:100.358;stroke-linecap:round;stroke-linejoin:round"
       d="M 66.015766 6.8468875 L 66.005948 6.8474043 C 60.746183 6.8590172 40.157506 21.793281 27.643432 31.48156 C 15.124482 41.173567 13.110405 49.253759 18.360277 62.984029 C 23.61015 76.714445 59.545898 80.349554 60.353063 82.772486 C 61.160228 85.195556 61.568831 94.078432 59.145902 96.501363 C 57.064762 98.582503 32.696709 109.28495 27.125117 114.05998 A 1.0752659 1.0752659 0 0 0 26.621789 114.5044 C 26.04258 115.08791 25.798752 115.56676 26.029577 115.88933 C 26.086927 115.97543 26.172999 116.04696 26.25902 116.1043 C 25.550779 119.85009 25.101966 125.99053 24.806912 134.30061 C 24.4829 143.41083 24.338063 154.64121 24.221935 166.52861 C 23.991112 190.30343 23.919631 216.65037 22.992036 233.45218 C 21.125232 267.22839 21.680346 326.02916 18.984012 388.24428 C 16.283522 450.53853 17.858612 535.07299 16.716967 598.43145 C 16.077542 633.90702 15.289961 670.51063 14.693834 703.60643 C 12.265027 728.34281 9.4102648 750.60263 6.4111359 767.13691 A 1.0752659 1.0752659 0 0 0 7.2782664 768.3973 A 1.0752659 1.0752659 0 0 0 8.5386546 767.52966 C 10.549258 756.44483 12.495415 742.74566 14.295409 727.60393 C 14.047381 744.11025 13.865461 759.53083 13.865461 772.06426 A 1.0752659 1.0752659 0 0 0 14.924828 773.16084 A 1.0752659 1.0752659 0 0 0 16.021402 772.06426 C 16.021402 753.80096 16.377043 729.88473 16.835823 703.99193 C 20.290576 668.84439 22.846937 628.58174 23.518619 591.31922 C 24.659833 527.93753 27.155635 445.82108 29.853116 383.59908 C 32.554611 321.29338 30.376361 261.60138 32.231265 228.02202 C 32.374634 225.49012 32.517844 221.07156 32.661213 218.19058 C 32.810316 229.26725 32.962326 240.42586 33.157307 251.98955 C 34.186693 313.06746 35.609548 376.70524 34.720519 397.20911 C 26.822771 525.08031 30.494082 629.2293 24.755753 760.81017 A 1.0752659 1.0752659 0 0 0 25.76396 761.92845 A 1.0752659 1.0752659 0 0 0 26.882238 760.89027 C 32.624869 629.21033 28.983299 525.09145 36.87646 397.31918 A 1.0753734 1.0753734 0 0 0 36.87646 397.31091 A 1.0753734 1.0753734 0 0 0 36.87646 397.30316 A 1.0753734 1.0753734 0 0 0 36.87646 397.29489 A 1.0753734 1.0753734 0 0 0 36.87646 397.28714 C 37.778248 376.49209 36.343209 313.02563 35.313248 251.95647 C 34.854468 224.74611 34.519034 198.6887 34.468855 176.48304 C 35.41222 152.76085 36.188658 134.38066 36.802562 121.3691 C 40.418894 118.17987 47.039783 111.35473 50.019844 108.11461 C 50.211957 122.05807 49.386157 152.52139 48.441645 195.50876 C 47.376416 243.9665 46.251214 307.12586 46.567341 376.65377 C 47.149419 504.67136 38.276052 647.32898 36.573119 778.19515 A 1.0752659 1.0752659 0 0 0 37.632486 779.29173 A 1.0752659 1.0752659 0 0 0 38.72906 778.22513 C 40.430989 647.43579 49.276191 504.77787 48.693826 376.65377 C 48.378417 307.15496 49.511226 244.01095 50.575882 195.56095 C 51.567993 150.40457 52.457872 118.90983 52.124108 105.8703 C 54.515783 103.47776 55.443085 103.91437 57.932539 104.98147 C 60.758908 106.19292 57.128265 114.67535 57.532563 117.50215 C 57.542723 117.57385 57.561125 117.61677 57.575455 117.67268 C 58.070076 128.94231 56.55212 161.90133 55.693916 209.42315 C 54.8165 257.99258 54.693364 321.54318 58.242597 392.30191 C 64.649885 520.06602 43.484005 624.13923 48.247859 755.91021 A 1.0752659 1.0752659 0 0 0 49.366137 756.94684 A 1.0752659 1.0752659 0 0 0 50.404316 755.82133 C 45.650213 624.32363 66.791137 520.28106 60.369083 392.22233 C 56.824006 321.53113 56.973301 257.99522 57.849857 209.45519 C 58.720105 161.26527 60.314209 128.07598 59.724678 116.84534 C 60.928974 115.38169 62.333809 113.11992 63.184415 111.8441 C 64.79975 109.42116 65.606593 100.53833 69.645002 100.53833 C 70.109517 100.53833 70.791707 100.72226 71.60819 101.02047 C 72.773778 124.47028 76.68838 237.29321 77.312751 374.58258 C 77.592319 436.21475 80.398106 500.17088 81.943476 564.21752 C 77.468654 639.38413 71.924504 715.27761 69.363366 785.78487 A 1.0752659 1.0752659 0 0 0 70.399995 786.90315 A 1.0752659 1.0752659 0 0 0 71.518273 785.86652 C 73.76701 723.95951 78.344787 657.80232 82.460757 591.65977 C 83.485843 651.59632 82.982868 711.37092 77.593354 769.18175 A 1.0752659 1.0752659 0 0 0 78.571072 770.33 A 1.0752659 1.0752659 0 0 0 79.749295 769.38277 C 85.969056 702.65916 85.765265 633.41577 84.091149 564.33689 C 87.854719 501.10931 90.876741 438.3603 90.610648 379.82102 C 90.293804 310.30171 89.416665 246.4523 88.091938 197.43887 C 87.429575 172.93215 86.678072 152.11954 85.794921 136.17594 C 85.026466 122.30833 84.162014 112.97203 83.216784 107.11829 C 83.725743 107.4208 84.169117 107.70898 84.676643 108.01436 C 86.135275 131.5162 94.506691 222.30586 100.65706 337.68664 C 100.77176 353.40229 100.92215 368.00454 100.99813 384.5768 C 101.4096 475.12427 98.394747 557.24918 100.15373 642.61015 C 97.693098 687.08224 94.440196 731.20352 90.448384 774.02745 A 1.0752659 1.0752659 0 0 0 91.426102 775.20567 A 1.0752659 1.0752659 0 0 0 92.604841 774.22124 C 95.833498 739.58524 98.576452 704.10637 100.82863 668.283 C 101.71321 695.34855 103.06611 722.77585 105.3405 751.09087 A 1.0752659 1.0752659 0 0 0 106.48875 752.07582 A 1.0752659 1.0752659 0 0 0 107.4737 750.89708 C 104.48977 713.75069 103.02961 678.05338 102.30244 642.84734 C 107.22428 553.76939 108.70867 463.135 104.81392 377.74621 C 104.19888 364.26727 103.5105 351.23782 102.82076 338.27214 C 102.45803 287.81986 101.96358 240.71315 101.22809 203.63229 C 100.39513 161.62513 99.322727 131.49437 98.005028 116.13427 C 100.34607 117.27979 103.41654 117.35301 105.71774 116.77093 C 106.40161 120.30382 107.1473 126.65248 107.88866 135.30778 C 108.71304 144.92194 109.55284 156.87381 110.3557 169.47004 C 111.96143 194.66264 113.46478 222.44117 114.60815 239.30505 C 116.89258 273.00084 120.89855 331.7758 118.61669 393.95608 C 116.32953 456.28186 119.74209 540.82364 120.88374 604.19544 C 122.02637 667.59392 123.74351 736.11404 123.74351 777.77554 A 1.0752659 1.0752659 0 0 0 124.80288 778.87263 A 1.0752659 1.0752659 0 0 0 125.89945 777.77554 C 125.89945 736.05512 124.18217 667.52388 123.03968 604.13601 C 121.89703 540.72134 118.46146 456.22079 120.74318 394.04496 C 123.03019 331.72319 119.02668 272.85971 116.74239 239.16449 C 115.60118 222.33302 114.11837 194.56673 112.51164 169.35893 C 111.70878 156.75496 110.87127 144.78021 110.0446 135.13725 C 109.27901 126.21556 108.53505 119.66279 107.77032 115.93377 C 108.94594 115.19255 109.39358 114.17773 108.41525 113.05901 C 105.58845 109.82834 75.301851 99.331132 76.513317 96.908057 C 77.724782 94.485125 76.509753 84.384301 75.298921 79.942167 C 74.087456 75.499886 80.549561 76.712624 92.664786 70.251286 C 104.77972 63.789805 118.9109 49.655431 117.69943 44.809428 C 116.48796 39.963424 107.2063 28.655779 95.495104 20.982976 C 83.787045 13.312179 74.897741 6.8504719 66.015766 6.8468875 z M 73.799787 101.95374 C 75.811679 102.89998 78.281432 104.26581 80.86809 105.7623 C 81.847298 111.02307 82.808303 121.30872 83.63898 136.31599 C 84.519264 152.22616 85.303806 173.0037 85.965453 197.49778 C 87.288745 246.48585 88.138578 310.31295 88.454707 379.8205 C 88.68553 430.67952 86.432247 484.75204 83.37233 539.56889 C 81.780938 483.78071 79.682216 428.22432 79.438203 374.55313 C 78.818851 238.34045 75.005087 126.77474 73.799787 101.95374 z M 43.891019 107.19994 C 44.048214 107.21423 44.151511 107.28551 44.201594 107.40716 C 44.782237 108.86078 39.973514 114.87035 36.903848 119.05399 C 36.989868 117.16539 37.166577 112.14375 37.245429 110.85243 C 40.259324 108.87437 42.962563 107.11737 43.891019 107.19994 z M 86.943688 109.40032 C 90.546645 111.6057 93.580851 113.48005 95.730232 114.79379 C 97.077895 129.29353 98.209184 160.23581 99.071113 203.68397 C 99.594413 230.0291 100.00183 261.18104 100.33874 294.79727 C 94.663224 201.2863 88.346583 130.95968 86.943688 109.40032 z M 35.022309 112.3004 C 34.936258 113.74688 34.771458 118.58144 34.67401 120.61669 A 1.0752659 1.0752659 0 0 0 34.103502 121.30657 C 33.406731 124.21952 32.99216 129.84614 32.702554 137.82804 C 32.41295 145.80995 32.276775 156.0788 32.258137 167.90011 C 32.253637 170.45924 32.301158 173.74396 32.315498 176.44274 C 31.57715 195.0418 30.809806 214.66847 30.077908 227.91143 C 28.209098 261.72292 30.39638 321.29217 27.699759 383.4885 C 25.001276 445.73499 22.507193 527.85633 21.365262 591.26083 C 20.889277 617.6646 19.441241 645.58731 17.4239 672.17217 C 17.901319 647.89569 18.403025 623.08665 18.846036 598.48416 C 19.988683 535.05629 18.449157 450.50808 21.143053 388.33368 C 23.843401 326.04703 23.293162 267.20841 25.151077 233.59377 C 26.08584 216.67455 26.150152 190.32273 26.380976 166.5591 C 26.49567 154.67727 26.643375 143.42526 26.965954 134.35332 C 27.272762 125.71478 27.773341 119.21364 28.448034 115.95702 C 30.196243 115.3295 32.611175 113.85709 35.022309 112.3004 z M 103.14632 391.719 C 105.89512 462.64304 105.12101 536.81961 101.76862 610.59712 C 101.20805 538.79982 103.34029 468.17793 103.14632 391.719 z " /></g></svg>
