<?xml version="1.0" encoding="UTF-8" standalone="no"?>
<svg
   width="618.7085"
   height="281.18362"
   viewBox="0 0 618.7085 281.18362"
   version="1.1"
   id="svg1"
   sodipodi:docname="CAMARASAURUS.svg"
   inkscape:version="1.4 (86a8ad7, 2024-10-11)"
   xmlns:inkscape="http://www.inkscape.org/namespaces/inkscape"
   xmlns:sodipodi="http://sodipodi.sourceforge.net/DTD/sodipodi-0.dtd"
   xmlns="http://www.w3.org/2000/svg"
   xmlns:svg="http://www.w3.org/2000/svg">
  <defs
     id="defs1" />
  <sodipodi:namedview
     id="namedview1"
     pagecolor="#ffffff"
     bordercolor="#000000"
     borderopacity="0.25"
     inkscape:showpageshadow="2"
     inkscape:pageopacity="0.0"
     inkscape:pagecheckerboard="0"
     inkscape:deskcolor="#d1d1d1"
     inkscape:zoom="1"
     inkscape:cx="297.5"
     inkscape:cy="111.5"
     inkscape:window-width="1366"
     inkscape:window-height="705"
     inkscape:window-x="-8"
     inkscape:window-y="-8"
     inkscape:window-maximized="1"
     inkscape:current-layer="svg1" />
  <path
     d="m 9.2699998,1.597337 c -5.253,2.481 -6.72,4.405 -7.652,10.037 -0.425,2.568 -1.07099998,6.168 -1.43599998,8 -0.665,3.344 0.494,6.847 3.44999998,10.419 1.833,2.216 3.237,2.198 8.4430002,-0.108 6.055,-2.683 33.613,-2.188 39.971,0.717 6.107,2.791 21.97,18.184 34.433,33.414 10.505,12.839 34.82,39.102003 49.277,53.227003 14.044,13.721 17.036,17.766 18.573,25.113 1.028,4.913 1.129,7.818 0.386,11.134 -0.553,2.467 -0.712,5.446 -0.353,6.62 1.098,3.592 8.981,14.827 14.477,20.633 l 5.207,5.5 0.268,14.5 c 0.148,7.975 0.758,16.616 1.356,19.202 0.978,4.23 0.721,6.035 -2.564,18 -2.694,9.811 -3.679,15.42 -3.757,21.393 -0.093,7.193 -0.409,8.494 -2.842,11.683 -4.191,5.495 -3.703,7.291 2.38,8.75 5.659,1.358 15.225,0.763 17.452,-1.085 1.086,-0.902 1.431,-3.899 1.431,-12.437 0,-9.575 0.344,-12.029 2.31,-16.483 l 2.309,-5.233 -0.183,9.855 c -0.101,5.42 -0.527,12.884 -0.946,16.587 -0.71,6.265 -0.618,6.785 1.32,7.502 3.49,1.291 16.914,-0.028 18.726,-1.841 1.475,-1.475 1.437,-2.122 -0.465,-7.915 -1.139,-3.469 -2.049,-8.371 -2.023,-10.893 0.046,-4.422 4.233,-19.722 9.02,-32.967 2.274,-6.289 2.283,-6.477 0.611,-13 -0.933,-3.64 -1.692,-7.63 -1.687,-8.868 0.008,-2.28 1.41,-3.027 2.468,-1.315 1.92,3.107 27.867,9.049 39.54,9.054 3.025,0.002 9.738,-0.684 14.919,-1.525 5.18,-0.84 9.76,-1.175 10.178,-0.745 0.419,0.429 1.876,5.056 3.24,10.281 3.935,15.081 7.68,27.112 9.633,30.952 1.466,2.883 6.03,16.224 6.03,17.628 0,0.792 -6.005,3.42 -7.815,3.42 -3.011,0 -7.185,3.837 -7.185,6.604 0,2.6 3.079,4.66 3.787,2.534 0.255,-0.763 0.84,-0.885 1.56,-0.324 1.828,1.422 5.597,2.085 6.211,1.092 0.308,-0.498 3.402,-0.906 6.876,-0.906 8.932,0 12.463,-0.913 14.285,-3.694 1.449,-2.211 1.437,-3.156 -0.137,-11.111 -3.3,-16.684 -4.473,-24.74 -4.527,-31.1 l -0.055,-6.405 2.135,1.905 c 1.174,1.048 4.568,4.942 7.541,8.654 2.974,3.712 9.234,10.654 13.912,15.427 9.766,9.967 10.481,12.382 3.974,13.434 -4.42,0.714 -7.562,3.831 -7.562,7.501 0,2.283 2.314,3.265 5.5,2.333 0.55,-0.16 2.534,-0.208 4.409,-0.106 4.957,0.27 19.309,-4.384 22.425,-7.272 4.402,-4.079 3.66,-7.507 -3.093,-14.285 -11.839,-11.886 -17.021,-20.191 -25.327,-40.592 -4.094,-10.054 -4.755,-12.572 -4.255,-16.214 0.55,-4.016 0.915,-4.447 5.323,-6.279 2.603,-1.082 7.033,-3.549 9.845,-5.483 10.846,-7.461 17.002,-9.704 29.876,-10.888 15.203,-1.398 23.314,0.116 42.223,7.882 20.289,8.332 22.424,9.117 33.435,12.299 22.566,6.52 37.043,6.342 71.233,-0.879 7.751,-1.637 20.399,-3.514 28.107,-4.172 15.937,-1.358 52.421,-0.832 56.413,0.814 3.191,1.316 4.238,3.705 2.801,6.389 -1.491,2.786 -0.337,3.534 2.079,1.348 2.861,-2.589 2.537,-6.623 -0.788,-9.808 -9.548,-9.148 -54.801,-13.687 -85.934,-8.619 -10.181,1.657 -16.019,2.005 -28.772,1.715 -15.935,-0.361 -16.051,-0.381 -28.41,-4.738 -6.825,-2.407 -13.238,-5.204 -14.25,-6.216 -1.012,-1.012 -2.709,-1.84 -3.771,-1.84 -2.028,0 -6.655,-2.636 -12.726,-7.25 -1.99,-1.512 -4.489,-2.75 -5.552,-2.75 -2.341,0 -9.807,-4.255 -12.299,-7.009 -0.991,-1.095 -2.562,-1.991 -3.492,-1.991 -0.93,0 -2.505,-0.9 -3.5,-2 -0.995,-1.1 -2.81,-2 -4.033,-2 -1.222,0 -2.743,-0.628 -3.38,-1.395 -0.637,-0.768 -2.672,-1.68 -4.522,-2.027 -1.85,-0.347 -3.914,-1.294 -4.587,-2.104 -0.673,-0.811 -2.241,-1.474 -3.486,-1.474 -1.245,0 -3.552,-0.672 -5.128,-1.494 -1.575,-0.821 -3.603,-1.496 -4.507,-1.5 -0.904,-0.003 -1.885,-0.636 -2.18,-1.406 -0.296,-0.771 -2.367,-1.71 -4.602,-2.087 -2.236,-0.378 -4.318,-1.098 -4.629,-1.6 -0.31,-0.502 -2.337,-0.913 -4.505,-0.913 -3.297,0 -3.941,-0.333 -3.941,-2.034 0,-1.864 -0.421,-1.979 -5,-1.372 -4.259,0.565 -5,0.417 -5,-0.997 0,-2.088 -2.614,-3.162 -4.297,-1.766 -2.039,1.692 -5.169,0.718 -5.529,-1.721 -0.3,-2.032 -0.701,-2.156 -5,-1.541 -2.571,0.367 -5.113,0.727 -5.65,0.8 -0.537,0.072 -1.122,-0.994 -1.299,-2.369 -0.594,-4.598 -1.097,-5.351 -2.689,-4.03 -0.792,0.657 -2.314,0.918 -3.383,0.579 -1.14,-0.362 -2.576,0.016 -3.476,0.917 -2.487,2.487 -2.904,1.822 -2.177,-3.466 0.74,-5.38 -0.248,-6.395 -3.277,-3.366 -1.071,1.071 -1.764,1.243 -2.012,0.5 -0.687,-2.062 -3.029,-1.181 -5.627,2.116 l -2.562,3.25 -0.011,-4.25 c -0.011,-4.371 -0.72,-5.141 -2.811,-3.05 -0.933,0.933 -1.2,0.933 -1.2,0 0,-1.964 -1.757,-1.375 -4.401,1.476 l -2.481,2.677 -0.978,-2.427 c -0.537,-1.334 -1.232,-3.233 -1.544,-4.219 -0.463,-1.465 -0.939,-1.594 -2.602,-0.704 -1.119,0.599 -2.504,0.8 -3.078,0.445 -0.573,-0.354 -1.837,0.076 -2.809,0.955 -1.636,1.48 -1.863,1.421 -3.052,-0.799 -1.005,-1.879 -2.072,-2.387 -4.919,-2.341 -2,0.032 -4.201,0.493 -4.892,1.025 -0.885,0.681 -1.844,0.219 -3.248,-1.566 -1.679,-2.135 -2.587,-2.452 -5.785,-2.023 -2.732,0.366 -4.167,0.059 -5.125,-1.095 -1.564,-1.885003 -5.185,-2.105003 -6.873,-0.417003 -0.915,0.915003 -1.768,0.640003 -3.734,-1.207 -2.219,-2.085 -2.921,-2.252 -5.449,-1.297 -2.29,0.864 -3.349,0.782 -5.02,-0.389 -1.241,-0.869 -3.106,-1.236 -4.503,-0.885 -1.311,0.329 -2.664,0.146 -3.006,-0.407 -0.359,-0.581 -2.287,-0.74 -4.561,-0.376 -2.377,0.38 -3.94,0.233 -3.94,-0.369 0,-0.549 -3.14,-1.308 -6.977,-1.686 -3.837,-0.378 -7.202,-1.051 -7.476,-1.495 -0.275,-0.444 -1.582,-0.601 -2.906,-0.348 -1.324,0.253 -2.711,-0.032 -3.083,-0.634 -0.372,-0.602 -1.973,-1.094 -3.558,-1.094 -1.585,0 -3.117,-0.381 -3.405,-0.847 -0.288,-0.466 -1.777,-0.892 -3.309,-0.947 -7.888,-0.283 -26.545,-6.833 -27.647,-9.705 -0.317,-0.826 -1.438,-1.501 -2.491,-1.501 -1.074,0 -2.144,-0.878 -2.438,-2 -0.359,-1.374 -1.364,-2 -3.21,-2 -1.846,0 -2.851,-0.626 -3.21,-2 -0.339,-1.294 -1.364,-2 -2.907,-2 -1.466,0 -2.383,-0.585 -2.383,-1.521 0,-0.837 -1.238,-2.054 -2.75,-2.705 -1.512,-0.651 -3.541,-1.976 -4.507,-2.944 -0.967,-0.969 -2.37,-1.527 -3.119,-1.239 -0.803,0.308 -1.581,-0.32 -1.899,-1.534 -0.368,-1.409 -1.355,-2.057 -3.131,-2.057 -1.611,0 -2.594,-0.555 -2.594,-1.465 0,-1.557 -3.36,-3.841 -4.287,-2.914 -0.303,0.303 -1.053,-0.388 -1.667,-1.535 -0.614,-1.147 -2.001,-2.086 -3.081,-2.086 -1.081,0 -1.965,-0.464 -1.965,-1.031 0,-0.568 -0.775,-1.329 -1.721,-1.692 -0.947,-0.364 -2.872,-1.838 -4.279,-3.277 -1.407,-1.439 -3.332,-2.913 -4.279,-3.277 -0.946,-0.363 -1.721,-1.124 -1.721,-1.692 0,-0.567 -0.689,-1.031 -1.531,-1.031 -0.843,0 -1.791,-0.675 -2.107,-1.5 -0.317,-0.825 -1.103,-1.5 -1.747,-1.5 -0.644,0 -1.889,-0.787 -2.768,-1.75 -3.717,-4.071 -7.775,-7.25 -9.257,-7.25 -0.875,0 -1.608,-0.562 -1.629,-1.25 -0.049,-1.575 -8.35,-7.75 -10.419,-7.75 -0.848,0 -1.542,-0.429 -1.542,-0.953 0,-0.524 -1.688,-1.745 -3.75,-2.712 -2.062,-0.968 -4.345,-2.339 -5.071,-3.047 -0.727,-0.708 -1.852,-1.291 -2.5,-1.294 -0.649,-0.004 -2.529,-0.738 -4.179,-1.632 -5.587,-3.028 -19.518,-5.43199999 -34.5,-5.95299999 -12.798,-0.445 -14.97,-0.283 -18.5000002,1.38499999"
     stroke="none"
     fill="#000000"
     fill-rule="evenodd"
     id="path1"
     style="fill:#ffffff;fill-opacity:1" />
</svg>
