<?xml version="1.0" encoding="UTF-8" standalone="no"?>
<svg
   width="352.27728"
   height="394.63385"
   viewBox="0 0 352.27728 394.63385"
   version="1.1"
   id="svg1"
   sodipodi:docname="TITANOHIERAX.svg"
   inkscape:version="1.4 (86a8ad7, 2024-10-11)"
   xmlns:inkscape="http://www.inkscape.org/namespaces/inkscape"
   xmlns:sodipodi="http://sodipodi.sourceforge.net/DTD/sodipodi-0.dtd"
   xmlns="http://www.w3.org/2000/svg"
   xmlns:svg="http://www.w3.org/2000/svg">
  <defs
     id="defs1" />
  <sodipodi:namedview
     id="namedview1"
     pagecolor="#ffffff"
     bordercolor="#000000"
     borderopacity="0.25"
     inkscape:showpageshadow="2"
     inkscape:pageopacity="0.0"
     inkscape:pagecheckerboard="0"
     inkscape:deskcolor="#d1d1d1"
     inkscape:zoom="1.3553922"
     inkscape:cx="98.495479"
     inkscape:cy="195.88427"
     inkscape:window-width="1366"
     inkscape:window-height="705"
     inkscape:window-x="-8"
     inkscape:window-y="-8"
     inkscape:window-maximized="1"
     inkscape:current-layer="svg1" />
  <path
     d="m 55.582177,0.64430586 c -13.272,2.14600004 -22.815,5.30700004 -28,9.27200004 -1.925,1.4730001 -6.638,4.1350001 -10.474,5.9170001 -12.0620001,5.602 -15.6020001,9.29 -16.92300008,17.634 -0.843,5.322 1.33499998,13.869 3.64699998,14.312 1.392,0.266 1.75,-0.368 1.75,-3.104 v -3.439 l 7.2500001,-0.536 c 6.815,-0.504 7.642,-0.331 13.783,2.875 7.412,3.871 11.967,9.6 11.967,15.053 0,7.684 -4.805,24.208 -10.929,37.587 -6.272,13.702004 -10.76,29.567004 -11.963,42.290004 -0.997,10.549 -0.908,13.262 0.757,22.962 2.937,17.112 12.12,38.924 22.945,54.5 13.018,18.733 26.225,33.29 39.69,43.749 11.09,8.614 13.778,12.953 17.5,28.251 3.503003,14.398 5.683003,20.226 9.811003,26.226 1.62,2.354 4.272,7.203 5.894,10.777 1.736,3.825 4.508,7.863 6.739,9.819 l 3.79,3.322 -2.065,6.178 c -5.4,16.151 -5.878,17.118 -9.816,19.894 -2.119,1.494 -6.253,3.43 -9.187,4.303 -4.823003,1.434 -5.782003,1.438 -10.000003,0.048 -6.69,-2.205 -20.966,-3.118 -25.478,-1.629 -2.011,0.664 -5.126,2.903 -6.922,4.976 -1.796,2.073 -4.465,4.541 -5.93,5.486 -2.71,1.747 -5.836,7.103 -5.836,10.001 0,2.43 1.537,1.911 2.845,-0.96 1.439,-3.159 9.31,-6.87 12.744,-6.008 1.718,0.431 2.411,1.301 2.411,3.027 0,1.332 0.563,2.786 1.25,3.231 0.688,0.445 8.788,0.645 18,0.446 16.212003,-0.352 16.750003,-0.3 16.750003,1.639 0,1.101 0.827,3.024 1.838,4.272 2.349,2.902 4.503,1.729 3.935,-2.142 -0.334,-2.272 -0.15,-2.634 0.895,-1.767 1.375,1.141 2.694,0.988 13.332,-1.547 3.575,-0.852 13.402,-1.856 21.839,-2.231 16.832,-0.748 18.794,-1.447 17.813,-6.353 -0.379,-1.895 0.049,-3.164 1.484,-4.392 2.799,-2.397 0.851,-4.693 -3.473,-4.091 -2.754,0.382 -2.645,0.264 0.837,-0.914 l 4,-1.354 -4.796,-0.749 c -5.381,-0.84 -10.523,-0.225 -17.275,2.067 -5.135,1.744 -7.432,0.832 -7.425,-2.947 0.004,-2.465 7.888,-25.602 10.326,-30.307 2.052,-3.959 5.152,-5.1 7.668,-2.823 1.647,1.49 2.491,1.536 7.529,0.408 3.122,-0.698 5.903,-1.863 6.181,-2.588 0.278,-0.725 1.133,-1.318 1.899,-1.318 0.766,0 1.393,-0.702 1.393,-1.559 0,-0.857 0.38,-1.324 0.844,-1.038 0.983,0.608 7.641,-0.991 10.906,-2.619 1.238,-0.617 2.25,-1.895 2.25,-2.839 0,-1.171 1.035,-1.874 3.25,-2.207 2.856,-0.43 3.765,0.069 7.5,4.115 4.369,4.732 5.439,4.346 2.689,-0.97 -1.478,-2.859 -1.464,-2.967 0.262,-2.043 1.002,0.536 2.656,1.897 3.676,3.025 1.021,1.127 4.711,3 8.201,4.161 3.49,1.161 7.846,3.093 9.68,4.293 6.788,4.441 9.635,5.681 13.045,5.681 2.81,0 4.461,0.931 8.428,4.75 7.79,7.499 9.617,8.974 12.019,9.702 1.633,0.496 2.25,0.274 2.25,-0.81 0,-1.293 0.656,-1.262 4.888,0.228 5.793,2.041 10.609,5.544 18.183,13.226 9.937,10.081 18.337,17.124 22.637,18.98 4.426,1.911 18.525,4.468 28.987,5.257 8.427,0.636 9.342,-0.196 9.486,-8.614 0.129,-7.588 0.117,-7.583 8.103,-3.553 2.082,1.05 4.246,1.624 4.81,1.276 0.634,-0.392 0.778,-2.794 0.377,-6.288 -0.817,-7.111 -5.381,-14.186 -13.837,-21.448 -11.153,-9.578 -28.634,-27.979 -28.634,-30.141 0,-0.4 -1.596,-2.676 -3.547,-5.057 l -3.547,-4.328 3.12,-0.686 c 3.614,-0.793 6.965,-5.503 6.97,-9.797 0.007,-4.857 -3.167,-17.083 -5.172,-19.921 -1.058,-1.499 -2.535,-4.874 -3.282,-7.5 -0.747,-2.627 -1.677,-5.788 -2.067,-7.026 -0.534,-1.698 -0.311,-2.25 0.908,-2.25 1.664,0 2.155,-2.652 0.852,-4.596 -0.404,-0.603 -3.885,-3.255 -7.735,-5.894 -9.542,-6.54 -12.217,-9.138 -15.689,-15.237 -1.905,-3.345 -5.151,-6.862 -9.014,-9.766 -5.252,-3.948 -9.705,-8.854 -13.287,-14.639 -9.568,-15.452 -24.251,-32.536 -34.51,-40.152 -5.671,-4.211 -13.257,-10.651 -28,-23.771 -10.53,-9.371 -21.849,-17.423 -37.746,-26.852 -13.412,-7.955 -18.609,-12.92 -26.968,-25.766004 -2.632,-4.046 -7.227,-10.837 -10.211,-15.091 -8.526,-12.159 -12.07,-18.502 -12.072,-21.608 -0.005,-4.911 -2.927,-22.681 -5.365,-32.628 -2.096,-8.549 -2.771,-9.937 -6.734003,-13.863 -11.349,-11.2440001 -25.604,-15.9350001 -40.904,-13.46000014 m 10.882,372.07300414 c -0.066,0.413 -0.068,1.08 -0.006,1.482 0.062,0.403 -1.123,1.005 -2.632,1.338 -4.762,1.05 -4.856,1.27 -0.576,1.351 2.293,0.043 4.885,0.354 5.762,0.69 1.166,0.448 1.427,0.18 0.974,-1 -0.34,-0.886 -0.168,-1.611 0.382,-1.611 0.55,0 1.259,-0.675 1.576,-1.5 0.432,-1.126 -0.165,-1.5 -2.393,-1.5 -1.633,0 -3.022,0.337 -3.087,0.75"
     stroke="none"
     fill="#000000"
     fill-rule="evenodd"
     id="path1"
     style="fill:#ffffff;fill-opacity:1" />
</svg>
