<?xml version="1.0" encoding="UTF-8" standalone="no"?>
<svg
   width="279.19446"
   height="181.63475"
   viewBox="0 0 279.19446 181.63475"
   version="1.1"
   id="svg1"
   sodipodi:docname="CAVEHYENA.svg"
   inkscape:version="1.4 (86a8ad7, 2024-10-11)"
   xmlns:inkscape="http://www.inkscape.org/namespaces/inkscape"
   xmlns:sodipodi="http://sodipodi.sourceforge.net/DTD/sodipodi-0.dtd"
   xmlns="http://www.w3.org/2000/svg"
   xmlns:svg="http://www.w3.org/2000/svg">
  <defs
     id="defs1" />
  <sodipodi:namedview
     id="namedview1"
     pagecolor="#ffffff"
     bordercolor="#000000"
     borderopacity="0.25"
     inkscape:showpageshadow="2"
     inkscape:pageopacity="0.0"
     inkscape:pagecheckerboard="0"
     inkscape:deskcolor="#d1d1d1"
     inkscape:zoom="1.2717718"
     inkscape:cx="124.62928"
     inkscape:cy="29.486423"
     inkscape:window-width="1366"
     inkscape:window-height="705"
     inkscape:window-x="-8"
     inkscape:window-y="-8"
     inkscape:window-maximized="1"
     inkscape:current-layer="svg1" />
  <path
     d="m 65.138,1.5803927 c -1.697,1.189 -2.601,1.321 -3.422,0.5 -0.614,-0.614 -2.631,-1.11599996 -4.483,-1.11599996 -2.979,0 -3.29,0.24599996 -2.693,2.12499996 1.086,3.422 -1.503,4.084 -4.875,1.246 -2.073,-1.744 -3.267,-2.169 -4.009,-1.427 -0.581,0.581 -2.316,1.056 -3.856,1.056 -1.54,0 -2.8,0.45 -2.8,1 0,0.55 -0.526,0.887 -1.168,0.75 -0.643,-0.138 -1.681,0.73 -2.307,1.929 -0.82,1.569 -1.542,1.923 -2.582,1.265 -0.793,-0.502 -1.781,-0.92 -2.193,-0.929 -1.274,-0.026 -0.829,4.8590003 0.795,8.7470003 1.427,3.414 1.412,3.796 -0.191,4.968 -0.955,0.699 -2.053,1.27 -2.439,1.27 -0.387,0 -2.957,2.137 -5.712,4.75 -3.656,3.466 -5.467,6.182 -6.703,10.05 -1.451,4.539 -2.755,6.185 -9.097,11.477 -4.072,3.398 -7.403,6.799 -7.403,7.557 0,2.884 6.049,9.085 9.493,9.731 2.56,0.48 3.627,1.339 4.394,3.54 0.571,1.638 2.13,3.331 3.573,3.88 3.109,1.182 13.32,0.443 15.177,-1.099 1.643,-1.363 19.66,0.506 20.19,2.095 0.187,0.56 2.102,1.019 4.256,1.019 3.203,0 3.917,0.352 3.917,1.93 0,1.694 0.39,1.819 3.184,1.017 3.643,-1.045 3.866,-0.939 4.082,1.94 0.1,1.318 0.844,2.113 1.978,2.113 1,0 2.064,0.639 2.364,1.42 0.332,0.867 1.469,1.252 2.917,0.99 1.808,-0.328 3.041,0.424 5.174,3.154 1.541,1.971 4.869,6.194 7.397,9.384 4.564,5.759997 4.6,5.866997 5.324,15.675997 1.433,19.423 2.219,52.863 1.272,54.126 -0.515,0.688 -2.261,1.25 -3.88,1.25 -4.897,0 -9.707,3.467 -9.78,7.049 -0.067,3.249 11.153,5.315 22.928,4.222 8.475,-0.787 11.503,-3.418 10.377,-9.021 -0.916,-4.561 -0.653,-9.791 0.61,-12.152 0.516,-0.962 1.034,-5.072 1.153,-9.133 0.118,-4.06 0.58,-8.751 1.026,-10.424 2.708,-10.163 6.874,-30.24 6.874,-33.13 0,-3.273 1.223,-4.478 2.48,-2.444 0.329,0.532 1.876,0.712 3.437,0.4 1.602,-0.321 3.137,-0.089 3.521,0.532 0.374,0.606 1.928,1.101 3.454,1.101 1.526,0 3.052,0.277 3.39,0.616 0.339,0.338 2.429,0.751 4.645,0.916 2.216,0.165 5.327,1.225 6.914,2.355 1.587,1.129 3.136,1.803 3.443,1.495 0.307,-0.307 1.972,0.486 3.698,1.763 3.055,2.258 3.223,2.274 6.168,0.584 1.665,-0.956 3.423,-1.493 3.907,-1.194 0.682,0.422 7.592,-2.141 10.945,-4.06 0.277,-0.158 0.637,1.808 0.8,4.369 0.729,11.441 1.918,18.865 3.142,19.621 0.394,0.244 0.658,3.797 0.586,7.896 -0.119,6.762 -0.487,8.041 -3.974,13.796 -6.54,10.794 -13.333,16.843 -18.917,16.843 -2.537,0 -7.639,4.98 -7.639,7.455 0,2.585 5.307,3.632 15.543,3.066 13.127,-0.726 14.412,-1.336 17.423,-8.264 2.347,-5.402 12.283,-18.848 15.893,-21.507 3.926,-2.893 6.141,-7.035 6.221,-11.635 0.132,-7.519 2.083,-13.4 4.92,-14.827 1.375,-0.692 2.05,-1.285 1.5,-1.317 -0.55,-0.033 0.688,-0.95 2.75,-2.039 2.063,-1.089 3.75,-2.371 3.75,-2.849 0,-2.058 3.337,-2 5.15,0.09 1.051,1.211 2.725,2.263 3.721,2.336 3.116,0.229 14.969,9.762 18.007,14.482 2.903,4.51 5.484,14.323 6.511,24.759 l 0.517,5.25 -4.203,0.022 c -4.447,0.024 -7.678,1.932 -9.586,5.662 -1.695,3.315 -1.363,5.316 0.883,5.316 1.1,0 2,0.45 2,1 0,2.26 22.674,-0.45 24.798,-2.964 0.993,-1.174 1.158,-4.716 0.702,-15.036 -0.328,-7.425 -0.862,-15.3 -1.188,-17.5 l -0.591,-4 2.585,2.373 c 1.422,1.305 2.722,3.521 2.889,4.923 0.168,1.402 0.837,2.724 1.487,2.938 2.539,0.833 3.57,-4.107 3.51,-16.818 -0.053,-11.306 -0.353,-13.476 -2.657,-19.236 -1.429,-3.571 -2.491,-6.872 -2.361,-7.336 0.131,-0.464 -0.618,-2.419 -1.664,-4.344 -1.045,-1.924997 -1.997,-3.949997 -2.115,-4.499997 -0.675,-3.149 -9.514,-20.302 -11.287,-21.905 -1.16,-1.048 -2.108,-2.455 -2.108,-3.128 0,-0.672 -0.67,-1.778 -1.489,-2.458 -0.819,-0.68 -1.247,-1.627 -0.952,-2.105 1.342,-2.171 -11.713,-15.904 -15.12,-15.904 -0.791,0 -1.439,-0.675 -1.439,-1.5 0,-0.825 -0.643,-1.5 -1.429,-1.5 -0.785,0 -2.151,-0.723 -3.035,-1.607 -0.888,-0.888 -2.487,-1.378 -3.571,-1.094 -1.895,0.495 -3.404,-0.724 -3.463,-2.799 -0.016,-0.55 -1.26,-0.982 -2.765,-0.961 -1.506,0.022 -2.737,-0.205 -2.737,-0.505 0,-0.3 -2.203,-0.585 -4.897,-0.635 -2.913,-0.053 -6.57,-0.962 -9.03,-2.244 -2.274,-1.185 -4.936,-2.155 -5.915,-2.155 -0.98,0 -2.813,-0.962 -4.075,-2.138 -1.874,-1.745 -2.456,-1.883 -3.174,-0.75 -0.483,0.764 -0.885,1.951 -0.894,2.638 -0.028,2.274 -1.965,1.297 -2.623,-1.323 -0.685,-2.73 -4.685,-4.912 -7.22,-3.94 -0.816,0.313 -2.425,-0.313 -3.577,-1.393 -1.446,-1.354 -3.334,-1.912 -6.095,-1.801 -3.114,0.125 -3.944,-0.183 -3.746,-1.394 0.199,-1.212 -0.461,-1.454 -3,-1.101 -1.79,0.249 -3.816,0.902 -4.504,1.45 -0.845,0.674 -1.714,0.612 -2.68,-0.19 -1.144,-0.95 -1.652,-0.774 -2.535,0.877 -1.706,3.188 -3.071,2.467 -1.867,-0.986 0.585,-1.678 0.805,-3.31 0.489,-3.626 -0.983,-0.982 -13.323,-0.572 -15.346,0.51 -2.178,1.166 -3.811,0.381 -3.811,-1.833 0,-1.084 -1.341,-1.585 -4.835,-1.808 -3.724,-0.238 -4.707,-0.64 -4.281,-1.75 0.565,-1.472 -1.402,-1.969 -6.163,-1.555 -1.253,0.109 -2.954,-0.477 -3.779,-1.302 -0.825,-0.825 -2.187,-1.236 -3.027,-0.914 -0.874,0.336 -2.391,-0.342 -3.55,-1.585 -1.24,-1.331 -2.711,-1.952 -3.802,-1.606 -1.008,0.32 -2.357,-0.13 -3.109,-1.0350003 -1.199,-1.445 -1.502,-1.375 -3.119,0.7270003 l -1.791,2.328 -0.022,-2.191 C 99.01,9.0683927 98.444,7.7383927 97.764,7.3183927 c -1.853,-1.145 -7.803,-0.375 -10.439,1.353 -1.337,0.876 -2.325,1.074 -2.325,0.467 0,-0.581 0.45,-1.334 1,-1.674 0.55,-0.34 1,-1.217 1,-1.95 0,-1.832 -6.764,-2.54 -8.163,-0.854 -1.508,1.818 -3.837,1.63 -3.837,-0.309 0,-1.226 -0.725,-1.508 -3.013,-1.172 -2.557,0.376 -2.925,0.166 -2.433,-1.386 0.732,-2.30399996 -1.291,-2.40199996 -4.416,-0.213"
     stroke="none"
     fill="#000000"
     fill-rule="evenodd"
     id="path1"
     style="fill:#ffffff;fill-opacity:1" />
</svg>
