<?xml version="1.0" encoding="UTF-8" standalone="no"?>
<!-- Created with Inkscape (http://www.inkscape.org/) -->

<svg
   width="162.56863mm"
   height="150.88702mm"
   viewBox="0 0 162.56863 150.88702"
   version="1.1"
   id="svg1"
   xml:space="preserve"
   inkscape:version="1.4 (86a8ad7, 2024-10-11)"
   sodipodi:docname="The_Andromeda_Galaxy-top.svg"
   xmlns:inkscape="http://www.inkscape.org/namespaces/inkscape"
   xmlns:sodipodi="http://sodipodi.sourceforge.net/DTD/sodipodi-0.dtd"
   xmlns="http://www.w3.org/2000/svg"
   xmlns:svg="http://www.w3.org/2000/svg"><sodipodi:namedview
     id="namedview1"
     pagecolor="#505050"
     bordercolor="#ffffff"
     borderopacity="1"
     inkscape:showpageshadow="0"
     inkscape:pageopacity="0"
     inkscape:pagecheckerboard="1"
     inkscape:deskcolor="#505050"
     inkscape:document-units="mm"
     inkscape:zoom="1.4803312"
     inkscape:cx="404.63917"
     inkscape:cy="279.32938"
     inkscape:window-width="3440"
     inkscape:window-height="1377"
     inkscape:window-x="-8"
     inkscape:window-y="-8"
     inkscape:window-maximized="1"
     inkscape:current-layer="layer1" /><defs
     id="defs1" /><g
     inkscape:label="Layer 1"
     inkscape:groupmode="layer"
     id="layer1"
     transform="translate(-4.8927246,-69.336814)"><path
       id="path5"
       style="fill:#ffffff;fill-opacity:1"
       d="m 98.569694,69.336853 c -10.796071,2.401946 -21.604948,5.089853 -32.683276,5.820317 -7.858721,-0.19644 -15.551284,2.363385 -22.028923,6.75579 -2.749187,6.958312 -8.952068,10.601698 -14.160244,15.661269 -8.194784,2.100403 -8.275539,10.439351 -9.853178,17.543081 -2.96069,6.29009 -4.239788,12.95589 -9.374966,17.6943 -0.256859,7.90406 11.545222,10.25299 10.531436,17.76671 -4.15576,5.73744 -15.4361013,-6.06495 -16.1078184,5.82919 1.1148184,5.9018 8.7158194,7.17637 8.8683174,13.80572 3.965187,3.23421 2.924176,11.3266 10.722735,10.15457 7.514212,-1.05778 15.020983,9.4374 7.931815,15.05647 -0.520222,10.28887 12.680024,2.61969 16.845483,9.46867 8.317747,1.58461 13.724885,8.13806 22.10044,9.5194 6.935758,1.84172 13.561371,6.47103 20.885567,5.73238 8.075238,0.5523 14.826868,-5.67821 22.728328,-5.24572 7.16562,-0.59821 13.92695,-6.05678 19.65742,-10.47256 5.35222,-6.07895 12.44293,-11.78178 13.60737,-20.25786 -0.30216,-12.44637 8.04337,10.29455 11.29942,-0.88317 4.34233,-6.86937 5.24721,-15.07739 7.92108,-22.60067 0.0278,-6.13727 -0.79429,-11.37301 -6.35834,-14.56347 -2.44213,-7.1965 1.2743,-14.85499 -1.88208,-21.92401 -2.78948,-6.37253 -7.95036,-11.85732 -4.91467,-19.11321 -4.31339,-6.975637 -13.21285,-8.702589 -18.98926,-14.311336 -7.06763,-5.599466 9.28221,-5.748456 2.16317,-10.872721 -5.85048,1.202926 -11.65034,0.673543 -15.08805,-5.2507 -6.98406,-2.750036 -14.33184,-3.308088 -21.56811,-4.733708 l -1.410206,-0.497181 -0.843401,-0.08159 z m -1.455208,4.625557 c 7.416364,1.2658 16.640804,4.980404 20.081464,11.867493 -3.76212,9.538777 11.74751,5.411403 12.00237,11.528495 -0.48646,4.470272 7.42446,6.079722 6.78694,11.733212 2.77818,5.84819 4.21873,0.25653 8.62296,3.66533 6.67637,3.27364 8.59507,13.19032 1.89493,17.44441 -2.39519,6.68468 7.23821,11.90549 4.9645,18.64228 -1.84139,7.31532 -7.04489,13.24709 -7.49224,21.14733 0.18429,9.55 -1.14877,20.26473 -8.63031,27.03629 -3.43775,9.23218 -13.58101,4.6737 -18.80867,10.28876 -4.09884,0.57139 -13.34014,5.11869 -14.95856,0.29638 6.99336,-2.48175 11.78643,-8.94738 15.51136,-15.29396 -0.64773,-6.72985 -11.59907,-3.03232 -13.55046,1.68263 -3.63613,9.9694 -13.213366,1.81 -20.008174,2.86155 -7.170618,0.20391 -15.603176,0.35762 -21.027942,-5.12196 -5.775354,-3.36032 -12.351503,-6.83256 -17.918942,-1.07274 -5.337259,-0.55341 -4.060715,-8.6415 -9.55529,-10.47111 -1.394187,-4.60678 1.386317,-9.38507 -3.348108,-13.17367 -1.765257,-6.74369 -1.618599,-13.66825 -3.215017,-20.41403 -1.451166,-6.97891 4.333462,0.58612 6.875556,2.12233 6.26347,3.40352 7.05527,-8.60897 7.150962,-12.68986 -2.145137,-11.0559 -11.95429,7.33739 -13.690614,-2.92831 1.515084,-5.48322 9.859283,-8.06427 3.418396,-14.37431 0.869865,-5.0247 5.502728,-9.75216 1.017072,-14.63573 1.781634,-5.934979 9.732056,-6.038431 13.903815,-9.976938 6.304519,-4.233981 7.844106,-15.02649 17.455683,-12.585772 4.892152,-0.616699 14.422983,1.62979 7.379801,6.905771 -1.314129,7.826622 9.072539,8.228261 11.098622,1.830085 -2.749763,-4.361462 -10.078129,-7.28323 -2.145803,-11.011623 4.486758,-3.888042 10.352409,-5.357194 16.185699,-5.302333 z m -0.411345,2.840654 c -4.468225,-1.536708 -15.674865,5.1343 -7.152018,6.995439 2.728668,1.46102 20.015617,-3.703269 7.152018,-6.995439 z m 8.289419,10.22935 c -4.62296,0.745034 -13.970617,0.718102 -15.628506,4.150652 3.82411,4.359105 12.355156,0.850638 16.523816,-0.05954 1.16442,-0.916896 2.18756,-4.521642 -0.89531,-4.091112 z m -39.697838,7.805725 c -4.291551,3.694752 -18.397921,1.240405 -12.408926,10.021731 5.081896,0.43997 6.529925,-7.294088 11.984663,-7.583637 0.208399,-0.223816 1.805048,-2.29914 0.424263,-2.438094 z m 19.828248,1.918229 c -6.326481,3.884022 -14.636393,1.253851 -19.709134,7.612222 -5.687888,1.16772 -16.368364,9.6571 -8.549676,14.11598 6.912371,0.68708 -2.565885,10.96676 -2.657818,15.01542 -1.446152,7.17839 -3.243258,14.67159 -0.735187,21.86827 -0.49343,6.9909 1.324955,15.24926 6.157758,20.50986 0.533926,2.62153 -3.223492,9.00958 3.142962,7.4781 4.012405,-7.43574 12.168663,-1.30958 18.412022,-2.14589 2.804655,0.59469 12.91792,-5.5619 11.066798,-0.13821 -4.255311,3.49742 -10.768255,9.08918 -15.839251,3.66885 -6.446361,-6.45802 -12.653128,8.11779 -3.045385,6.68193 5.24707,-3.60355 9.890214,2.07568 15.789734,0.48519 7.194931,3.93675 13.332797,-2.65357 19.127697,-5.85664 4.22846,-3.57803 9.7398,-5.58473 13.4946,-9.12428 2.9276,-7.57372 7.25167,-14.22748 9.19165,-22.04856 4.9916,-5.84307 10.19576,-14.73072 4.71292,-21.84282 -2.68028,-4.83718 -9.89456,-9.91732 -8.77087,-15.4993 6.76671,-1.39076 -1.12928,-10.07496 -2.30544,-13.80072 -5.05559,-4.648799 -13.08036,2.29125 -17.63009,-4.149423 -4.46729,-2.726941 -9.100412,3.755493 -12.332941,-1.43911 -3.349436,0.443653 -6.353044,-0.600635 -9.520349,-1.390869 z m 19.35954,11.015352 c 2.34935,2.41696 12.87172,-2.0513 9.6299,2.5889 -7.98867,2.58204 1.27795,8.95579 3.437,12.60078 6.27758,0.75945 11.17928,4.33908 14.20998,10.06254 5.45434,5.4964 -2.38283,14.21524 -8.60722,10.00963 -6.81693,-0.21495 2.86433,-9.10707 -4.44369,-10.06889 -6.27243,0.74114 -3.14611,11.28415 -2.25284,15.87819 0.23896,6.10273 5.84438,-0.66378 7.77298,2.96882 3.1172,4.94623 -2.56793,9.07497 -7.05021,7.09867 -2.30774,5.76615 -7.01599,14.37798 -14.54453,13.3582 -4.836877,-6.80698 -10.274899,4.14625 -16.032934,4.46505 -6.657242,2.52396 -14.411049,-0.8768 -20.674519,-3.39956 -5.977245,-5.59081 -0.756642,-13.60042 -2.700799,-20.22283 -6.163248,-4.66681 -3.410499,-11.89829 -3.361048,-18.29857 1.112871,-6.62609 11.426982,-4.82746 11.877312,-11.60503 0.51609,-3.33048 2.619953,-7.71127 6.634734,-6.07868 3.280501,0.45144 4.541577,-9.56626 9.118828,-5.91492 5.159769,5.39554 10.904941,-3.1792 16.987076,-3.44215 z m -11.621511,15.65124 c -3.66267,-0.93137 -4.013015,2.77581 -6.342778,3.80949 -4.562003,1.4853 -5.56278,7.37279 -10.273796,8.87233 -6.240666,3.77967 -3.199937,12.92094 -0.533964,18.17292 1.495529,2.98868 -1.368072,5.97819 2.7183,7.59763 4.924769,2.0138 10.451738,-0.4703 15.546337,1.14744 6.783872,-0.78723 10.769362,-8.11529 11.913002,-14.25391 0.44522,-2.30307 1.32073,-1.9862 2.54355,-2.6216 1.969,0.14694 1.59211,-4.8515 1.05466,-7.53551 -2.67207,-3.73212 1.99935,-7.17155 0.0772,-10.63967 -4.60542,-4.60544 -10.883092,-3.57656 -16.702531,-4.54912 z m 16.928681,32.52669 c -1.90356,0.78031 -1.0731,5.56758 1.06975,4.38583 0.91497,-1.40272 -0.0153,-4.20924 -1.06975,-4.38583 z m -0.50539,0.12093 c -0.36646,0.21073 -0.22199,0.32153 0,0 z m 22.64823,12.31914 c -7.37327,1.18753 -1.57994,13.99994 0.63428,4.66397 -0.0846,-1.41803 1.15415,-4.01296 -0.63428,-4.66397 z m -35.478976,18.07797 c 5.558286,1.50828 -7.974752,3.49347 -1.140724,0.0603 l 1.140727,-0.0603 z m 37.199276,1.60662 c -4.4698,1.03365 -6.83228,7.41857 -8.36771,11.00959 4.69432,1.69104 5.9043,-7.28886 9.4493,-9.45399 0.364,-1.23384 -0.44295,-1.08806 -1.08159,-1.5556 z" /></g></svg>
