<?xml version="1.0" encoding="UTF-8" standalone="no"?>
<!-- Created with Inkscape (http://www.inkscape.org/) -->

<svg
   width="95.864853mm"
   height="62.00145mm"
   viewBox="0 0 95.864856 62.00145"
   version="1.1"
   id="svg1"
   xml:space="preserve"
   inkscape:version="1.4 (86a8ad7, 2024-10-11)"
   sodipodi:docname="Wood_Pigeon-side.svg"
   xmlns:inkscape="http://www.inkscape.org/namespaces/inkscape"
   xmlns:sodipodi="http://sodipodi.sourceforge.net/DTD/sodipodi-0.dtd"
   xmlns="http://www.w3.org/2000/svg"
   xmlns:svg="http://www.w3.org/2000/svg"><sodipodi:namedview
     id="namedview1"
     pagecolor="#505050"
     bordercolor="#ffffff"
     borderopacity="1"
     inkscape:showpageshadow="0"
     inkscape:pageopacity="0"
     inkscape:pagecheckerboard="1"
     inkscape:deskcolor="#505050"
     inkscape:document-units="mm"
     showguides="true"
     inkscape:zoom="2.0935045"
     inkscape:cx="173.87113"
     inkscape:cy="71.889027"
     inkscape:window-width="3440"
     inkscape:window-height="1377"
     inkscape:window-x="-8"
     inkscape:window-y="-8"
     inkscape:window-maximized="1"
     inkscape:current-layer="layer1" /><defs
     id="defs1" /><g
     inkscape:label="Layer 1"
     inkscape:groupmode="layer"
     id="layer1"
     transform="translate(-52.748745,-130.7642)"><path
       style="fill:#f5f5f5;stroke-width:4.43399;stroke-opacity:0.268839;paint-order:markers stroke fill"
       d="m 75.23092,192.76565 c -0.469172,0 -0.424489,-0.36449 -0.424489,-0.53205 0,-0.16756 0.03351,-0.2681 0.03351,-0.2681 0,0 -0.54737,-0.11171 -0.98303,0.0112 -0.435661,0.12287 -0.983028,0.56971 -1.050052,0.58088 -0.06703,0.0112 -0.178734,-0.58088 0.379807,-1.00537 0.558538,-0.42449 1.764982,-0.44684 2.077765,-0.16757 0.189902,-0.0782 0.647903,-0.0559 1.608592,0.0112 0.960686,0.067 3.440602,0.0782 4.490654,-0.11171 1.050054,-0.1899 2.636306,-0.51385 3.261868,-1.08356 0.625565,-0.56971 1.184103,-0.63674 1.239956,-0.77079 0.05586,-0.13405 -0.06702,-0.2681 0.2681,-0.44683 0.335124,-0.17873 0.413319,-0.42449 0.659077,-0.58088 0.245756,-0.15639 0.469173,-0.50269 0.525026,-0.71493 0.05585,-0.21225 0.54737,-0.73727 0.54737,-1.65327 0,-0.91601 -0.469175,-0.40215 -0.647906,-0.70376 -0.178734,-0.30162 -0.212246,-0.52503 -0.804297,-0.70376 -0.592052,-0.17874 -1.407519,-0.79313 -1.910204,-1.39635 -0.502684,-0.60322 -0.983028,-0.87132 -1.284639,-0.81547 -0.301612,0.0559 -0.33859,-1.09927 -2.092153,-1.6048 -1.753563,-0.50554 -6.269933,-1.82464 -12.678526,-8.50448 -4.541143,-4.73335 -5.75759,-20.84797 -5.647005,-23.45462 0.110585,-2.60665 0.252764,-5.46606 -0.67931,-6.85628 -0.932074,-1.39021 -3.63351,-1.92734 -5.260692,-1.62718 -1.627179,0.30016 -1.49666,0.39151 -1.904394,0.68195 -0.407733,0.29044 -1.312569,0.87132 -1.748229,0.89367 -0.09495,0.25692 -0.189902,0.54736 -0.268097,0.44683 -0.0782,-0.10054 -0.223417,-0.19549 -0.184319,-0.9942 0.0391,-0.79871 0.262514,-1.46896 1.200859,-2.32911 0.938347,-0.86015 0.71493,-1.38518 1.424276,-1.82084 0.709345,-0.43566 0.793125,-0.37981 0.832223,-0.59205 0.0391,-0.21224 0.05027,-1.81525 1.323737,-3.72546 1.273468,-1.9102 4.054993,-2.04425 6.43437,-2.15596 2.379377,-0.11171 3.237182,0.98533 5.180319,2.7389 1.94314,1.75356 3.175373,5.46606 4.360214,7.81994 1.184839,2.35389 2.132711,3.22277 5.371275,4.54979 3.238566,1.32702 5.039521,2.48027 7.551385,3.99686 2.511862,1.5166 2.875211,1.94314 7.061647,3.68091 4.186436,1.73776 7.551382,4.54978 11.453462,6.38234 3.90207,1.83255 6.11378,3.04899 9.00478,4.94473 1.12165,0.25277 5.57665,1.84835 6.47713,2.03792 0.90048,0.18958 2.65405,1.39022 3.82309,1.5008 1.16904,0.11059 2.38548,0.63192 3.61771,0.7741 1.23224,0.14218 4.4234,1.01106 5.60825,1.485 1.18484,0.47394 1.02686,1.31122 -0.86889,1.32702 0.80569,0.36335 1.65878,0.67931 1.05846,1.62718 0.36335,0.34755 0.7109,1.20064 -0.86888,1.5324 -1.57979,0.33175 -3.36495,0.80569 -3.36495,0.80569 0,0 5.82941,2.66984 11.24808,4.70776 5.41868,2.03793 6.01899,1.94314 6.76149,2.55926 0.7425,0.61612 1.04266,0.80569 0.93208,1.09005 -0.11059,0.28436 1.02686,0.7267 -0.88468,0.53713 -1.91154,-0.18958 0.0158,0.61611 -0.33176,0.7109 -0.34755,0.0948 -2.78042,-0.17377 -5.38707,-0.88468 -2.60665,-0.7109 -4.72357,-1.75356 -8.00952,-2.40127 -3.28596,-0.64772 -2.32229,-0.86889 -9.35234,-1.5166 -7.03006,-0.64771 -7.69357,-0.61612 -8.07272,-0.34755 -0.37914,0.26856 -2.44867,-0.20538 -2.89101,0.41074 -0.44234,0.61612 -2.1643,1.21644 -3.6967,1.16904 -1.53239,-0.0474 -1.89574,-0.60032 -3.38074,0.20538 -1.485,0.80569 -4.56559,0.55292 -5.54506,0.64771 -0.979466,0.0948 -1.943136,0.23697 -3.112179,0.88468 -1.169043,0.64771 -3.301757,0.96367 -3.696703,1.4692 -0.394946,0.50553 -0.300159,1.70617 -1.10585,1.78516 -0.805693,0.079 -1.074256,0.22117 -1.169043,0.52133 -0.09479,0.30016 -0.442341,0.86888 -1.153244,1.07426 -0.710904,0.20537 -0.963671,0.7425 -1.327021,0.75829 -0.363352,0.0158 -0.331755,-0.0158 -0.789895,0.39495 -0.458139,0.41075 -0.995264,0.90048 -0.995264,0.90048 0,0 1.074253,0.45814 1.611381,0.45814 0.537128,0 1.579787,-0.12638 1.737767,-0.0632 0.157978,0.0632 0.229069,0.0513 0.30016,0.22117 0.315957,-0.13824 0.612166,-0.22512 1.192739,-0.0711 0.580572,0.15403 0.841237,0.67141 0.876781,0.97946 0.03554,0.30806 -0.03949,0.51738 -0.118483,0.4147 -0.07899,-0.10269 -0.363352,-0.46209 -0.706956,-0.52923 -0.343604,-0.0671 -0.774094,-0.0592 -0.88863,0.0197 0.09479,0.25276 0.106635,0.68419 -0.363352,0.68419 h -1.879946 c -0.331756,0 -0.327806,-0.19446 -0.458137,-0.24975 -0.130334,-0.0553 -0.406797,-0.17378 -1.078206,-0.22907 -0.671409,-0.0553 -1.090052,-0.17773 -1.25988,0.004 -0.169828,0.18168 -0.402847,0.3515 -0.758298,0.33965 -0.355452,-0.0119 -0.493684,-0.0158 -0.556874,0.0276 -0.06319,0.0435 -0.06319,0.10757 -0.410745,0.10757 h -9.485024 z"
       id="path1"
       sodipodi:nodetypes="cscccsccsssssssssscsssssscssssssssssssscssssccscsssssssssssssssssssscsscsssccsssscccscc" /></g></svg>
