<?xml version="1.0" encoding="UTF-8" standalone="no"?>
<!-- Created with Inkscape (http://www.inkscape.org/) -->

<svg
   width="163.92798mm"
   height="164.17961mm"
   viewBox="0 0 163.92798 164.17961"
   version="1.1"
   id="svg1"
   xml:space="preserve"
   inkscape:version="1.4 (86a8ad7, 2024-10-11)"
   sodipodi:docname="445-front.svg"
   xmlns:inkscape="http://www.inkscape.org/namespaces/inkscape"
   xmlns:sodipodi="http://sodipodi.sourceforge.net/DTD/sodipodi-0.dtd"
   xmlns="http://www.w3.org/2000/svg"
   xmlns:svg="http://www.w3.org/2000/svg"><sodipodi:namedview
     id="namedview1"
     pagecolor="#505050"
     bordercolor="#ffffff"
     borderopacity="1"
     inkscape:showpageshadow="0"
     inkscape:pageopacity="0"
     inkscape:pagecheckerboard="1"
     inkscape:deskcolor="#505050"
     inkscape:document-units="mm"
     inkscape:zoom="0.74016561"
     inkscape:cx="670.1203"
     inkscape:cy="443.81959"
     inkscape:window-width="3440"
     inkscape:window-height="1377"
     inkscape:window-x="-8"
     inkscape:window-y="-8"
     inkscape:window-maximized="1"
     inkscape:current-layer="layer1" /><defs
     id="defs1" /><g
     inkscape:label="Layer 1"
     inkscape:groupmode="layer"
     id="layer1"
     transform="translate(-2.0247882,-39.189875)"><path
       style="fill:#ffffff;fill-opacity:1;stroke-width:1.22058"
       d="M 75.903875,203.12718 C 73.868517,202.96771 70.622066,202.53474 68.689544,202.165 64.118502,201.29047 51.375411,196.87454 46.259227,194.39212 34.1137,188.49898 22.204428,177.45786 14.012691,164.49629 11.190248,160.03041 7.2586753,151.73893 5.6682631,146.89834 4.0691373,142.03122 3.3875142,137.72969 2.4006522,126.27737 1.8036968,119.34984 1.9157139,113.82716 2.7517275,108.96848 3.2275603,106.20307 5.5836699,97.445146 7.2736139,92.160115 9.8519452,84.096803 18.072239,71.358618 25.493815,63.92606 c 4.800549,-4.807653 8.27958,-7.683037 13.096849,-10.824414 9.860857,-6.430339 20.274117,-10.513213 31.974919,-12.536857 5.137593,-0.888544 13.362184,-1.553782 16.466657,-1.33189 3.847839,0.275025 15.96016,2.005266 18.4078,2.62955 6.3006,1.606998 17.76958,6.821396 23.58419,10.722608 7.90984,5.306964 15.05335,11.957751 20.24467,18.848319 6.29597,8.356785 8.95679,13.405524 12.176,23.103175 3.90552,11.765199 4.18206,13.309769 4.43948,24.797529 0.14466,6.45547 0.0743,8.88267 -0.3512,12.11039 -2.12939,16.15398 -6.89501,27.65897 -16.86797,40.72217 -5.31201,6.95799 -15.25631,15.6716 -23.27562,20.39509 -5.54778,3.26774 -16.14072,7.36084 -22.69456,8.76917 -8.193626,1.7607 -18.459861,2.44902 -26.791155,1.79628 z"
       id="path1"
       sodipodi:nodetypes="ssssssssssssssssscssss" /></g></svg>
