<?xml version="1.0" encoding="UTF-8" standalone="no"?>
<!-- Created with Inkscape (http://www.inkscape.org/) -->

<svg
   width="2960.0725"
   height="2887.1099"
   viewBox="0 0 783.18583 763.88117"
   version="1.1"
   id="svg8"
   inkscape:version="1.3 (0e150ed6c4, 2023-07-21)"
   sodipodi:docname="Mycoplasma_Gallisepticum-top.svg"
   inkscape:export-filename="G:\Pictures\My Pictures\Vectors and SVGs\Misc\Mycoplasma Gallisepticum.png"
   inkscape:export-xdpi="96"
   inkscape:export-ydpi="96"
   xmlns:inkscape="http://www.inkscape.org/namespaces/inkscape"
   xmlns:sodipodi="http://sodipodi.sourceforge.net/DTD/sodipodi-0.dtd"
   xmlns="http://www.w3.org/2000/svg"
   xmlns:svg="http://www.w3.org/2000/svg"
   xmlns:rdf="http://www.w3.org/1999/02/22-rdf-syntax-ns#"
   xmlns:cc="http://creativecommons.org/ns#"
   xmlns:dc="http://purl.org/dc/elements/1.1/">
  <defs
     id="defs2" />
  <sodipodi:namedview
     id="base"
     pagecolor="#505050"
     bordercolor="#666666"
     borderopacity="1.0"
     inkscape:pageopacity="0"
     inkscape:pageshadow="2"
     inkscape:zoom="0.12374369"
     inkscape:cx="1648.5689"
     inkscape:cy="1248.5485"
     inkscape:document-units="mm"
     inkscape:current-layer="layer1"
     showgrid="false"
     borderlayer="true"
     inkscape:showpageshadow="false"
     inkscape:pagecheckerboard="false"
     units="px"
     inkscape:window-width="1600"
     inkscape:window-height="837"
     inkscape:window-x="-8"
     inkscape:window-y="-8"
     inkscape:window-maximized="1"
     inkscape:snap-smooth-nodes="true"
     inkscape:snap-global="false"
     inkscape:object-paths="true"
     fit-margin-top="0"
     fit-margin-left="0"
     fit-margin-right="0"
     fit-margin-bottom="0"
     inkscape:deskcolor="#505050" />
  <metadata
     id="metadata5">
    <rdf:RDF>
      <cc:Work
         rdf:about="">
        <dc:format>image/svg+xml</dc:format>
        <dc:type
           rdf:resource="http://purl.org/dc/dcmitype/StillImage" />
      </cc:Work>
    </rdf:RDF>
  </metadata>
  <g
     inkscape:label="Layer 1"
     inkscape:groupmode="layer"
     id="layer1"
     transform="translate(-5.2820806,481.81559)">
    <path
       style="opacity:1;fill:#ffffff;fill-opacity:1;fill-rule:nonzero;stroke:none;stroke-width:13.49159908;stroke-linecap:round;stroke-linejoin:round;stroke-miterlimit:4;stroke-dasharray:none;stroke-dashoffset:0;stroke-opacity:1;paint-order:normal"
       d="m 180.30363,-481.81549 c -28.68183,-0.0657 -54.72882,32.21949 -67.88963,52.69188 -17.921108,27.87729 29.86833,47.78963 39.8245,41.81593 9.95618,-5.9737 23.89473,67.70168 -7.96504,115.49133 -31.85974,47.78957 -51.771909,81.64061 -95.579066,69.69321 -43.8071647,-11.94744 -51.7721964,43.80734 -35.842321,71.68463 15.929879,27.87728 37.83316,39.82493 59.736747,15.93009 21.90358,-23.89481 79.64937,-51.77251 97.57049,-31.86015 16.03391,17.81543 11.31082,46.03516 40.5017,141.6344521 28.60068,93.6663889 92.08308,135.1054479 140.87352,172.5995579 139.66255,107.32682 227.65282,98.29364 275.44243,88.33744 47.78964,-9.95616 82.80742,13.59669 112.67594,23.55286 29.86853,9.95616 47.78913,-13.93847 43.80668,-39.82452 -3.98248,-25.88604 25.88626,-37.83372 -25.88583,-65.71101 -45.7397,-24.62906 -27.42226,-96.379474 -52.35365,-251.387635 -10.11405,-62.883105 -32.35264,-123.145155 -78.83592,-166.686895 -46.48328,-43.54175 -107.82436,-65.58892 -171.47771,-67.78654 -225.09556,-7.77137 -236.95694,-59.73733 -223.01828,-79.64968 13.93864,-19.91235 19.91173,-35.84213 -19.91295,-75.66682 -10.57843,-10.57844 -21.29733,-14.83437 -31.67161,-14.85813 z"
       id="path828"
       inkscape:connector-curvature="0"
       sodipodi:nodetypes="ssssssssssssssssssss" />
  </g>
</svg>
