<?xml version="1.0" encoding="UTF-8" standalone="no"?>
<!-- Created with Inkscape (http://www.inkscape.org/) -->

<svg
   xmlns:dc="http://purl.org/dc/elements/1.1/"
   xmlns:cc="http://creativecommons.org/ns#"
   xmlns:rdf="http://www.w3.org/1999/02/22-rdf-syntax-ns#"
   xmlns:svg="http://www.w3.org/2000/svg"
   xmlns="http://www.w3.org/2000/svg"
   xmlns:sodipodi="http://sodipodi.sourceforge.net/DTD/sodipodi-0.dtd"
   xmlns:inkscape="http://www.inkscape.org/namespaces/inkscape"
   width="1283.1985"
   height="2975.0178"
   viewBox="0 0 339.51293 787.14015"
   version="1.1"
   id="svg8"
   inkscape:version="0.92.4 (5da689c313, 2019-01-14)"
   sodipodi:docname="Jellyfish_Generic-side.svg"
   inkscape:export-filename="G:\Pictures\My Pictures\Vectors and SVGs\Jellyfish1.png"
   inkscape:export-xdpi="96"
   inkscape:export-ydpi="96">
  <defs
     id="defs2">
    <inkscape:path-effect
       effect="powerstroke"
       id="path-effect830"
       is_visible="true"
       offset_points="0,0.13229166"
       sort_points="true"
       interpolator_type="CubicBezierJohan"
       interpolator_beta="0.2"
       start_linecap_type="zerowidth"
       linejoin_type="extrp_arc"
       miter_limit="4"
       end_linecap_type="zerowidth" />
    <inkscape:path-effect
       effect="spiro"
       id="path-effect828"
       is_visible="true" />
  </defs>
  <sodipodi:namedview
     id="base"
     pagecolor="#02162f"
     bordercolor="#666666"
     borderopacity="1.0"
     inkscape:pageopacity="0"
     inkscape:pageshadow="2"
     inkscape:zoom="0.12374369"
     inkscape:cx="278.71947"
     inkscape:cy="1857.0062"
     inkscape:document-units="mm"
     inkscape:current-layer="layer1"
     showgrid="false"
     inkscape:showpageshadow="false"
     borderlayer="true"
     inkscape:pagecheckerboard="true"
     units="px"
     inkscape:snap-global="false"
     inkscape:window-width="1600"
     inkscape:window-height="837"
     inkscape:window-x="-8"
     inkscape:window-y="-8"
     inkscape:window-maximized="1"
     fit-margin-top="0"
     fit-margin-left="0"
     fit-margin-right="0"
     fit-margin-bottom="0" />
  <metadata
     id="metadata5">
    <rdf:RDF>
      <cc:Work
         rdf:about="">
        <dc:format>image/svg+xml</dc:format>
        <dc:type
           rdf:resource="http://purl.org/dc/dcmitype/StillImage" />
        <dc:title></dc:title>
      </cc:Work>
    </rdf:RDF>
  </metadata>
  <g
     inkscape:label="Layer 1"
     inkscape:groupmode="layer"
     id="layer1"
     transform="translate(-2.5669113,494.11454)">
    <path
       style="color:#000000;font-style:normal;font-variant:normal;font-weight:normal;font-stretch:normal;font-size:medium;line-height:normal;font-family:sans-serif;font-variant-ligatures:normal;font-variant-position:normal;font-variant-caps:normal;font-variant-numeric:normal;font-variant-alternates:normal;font-feature-settings:normal;text-indent:0;text-align:start;text-decoration:none;text-decoration-line:none;text-decoration-style:solid;text-decoration-color:#000000;letter-spacing:normal;word-spacing:normal;text-transform:none;writing-mode:lr-tb;direction:ltr;text-orientation:mixed;dominant-baseline:auto;baseline-shift:baseline;text-anchor:start;white-space:normal;shape-padding:0;clip-rule:nonzero;display:inline;overflow:visible;visibility:visible;opacity:1;isolation:auto;mix-blend-mode:normal;color-interpolation:sRGB;color-interpolation-filters:linearRGB;solid-color:#000000;solid-opacity:1;vector-effect:none;fill:#ffffff;fill-opacity:1;fill-rule:nonzero;stroke:none;stroke:none;stroke-width:8.11009598;stroke-linecap:round;stroke-linejoin:round;stroke-miterlimit:4;stroke-dasharray:none;stroke-dashoffset:0;stroke-opacity:1;paint-order:normal;color-rendering:auto;image-rendering:auto;shape-rendering:auto;text-rendering:auto;enable-background:accumulate"
       d="M 589.25391,9.9609375 C 332.53143,10.060726 98.752436,108.53169 67.695312,411.33203 c -16.495672,160.8292 27.273995,209.44699 91.841798,222.3418 -8.38001,6.44225 -14.11655,14.27493 -15.06641,23.77344 -4.33515,43.35155 -65.027693,13.00586 -56.357419,56.35742 8.670312,43.35178 -69.362861,4.33462 -78.033203,73.69726 -4.9579751,39.66375 39.693429,11.29759 82.085938,-11.35937 0.243836,15.2965 5.127459,28.61863 16.267574,34.09961 -4.07631,36.03447 -1.52335,66.76126 5.25,94.79297 9.21572,38.13975 25.92638,71.06883 43.45899,106.04294 -4.41313,9.4694 -10.24679,20.3293 -17.89258,32.9844 a 4.0554535,4.0554535 0 1 0 6.9375,4.1973 c 6.27208,-10.3814 11.38528,-19.6242 15.55273,-27.9903 3.01028,6.0442 6.02553,12.1531 9.01758,18.3926 13.67569,28.5187 27.00765,59.5617 37.04297,96.7207 -19.84127,50.17 -56.9071,105.7018 -121.140624,170.9883 a 8.1109066,8.1109066 0 1 0 11.5625,11.375 c 57.111954,-58.0483 93.549304,-109.6106 115.685544,-156.9082 16.90258,80.209 17.90352,188.1963 -20.97656,353.1016 a 8.1133332,8.1133332 0 0 0 15.79297,3.7265 c 42.72654,-181.2193 37.43716,-296.8742 15.69531,-381.6797 19.92057,-53.0046 22.1781,-100.8213 16.42774,-146.82419 -6.89719,-55.17759 -24.45702,-107.39166 -35.79493,-163.83789 4.87745,-0.80743 9.52325,-1.61053 13.73047,-2.18164 9.74887,16.74518 23.00422,27.61151 38.18164,34.03125 -12.64935,93.25492 3.99336,136.29504 21.45508,180.88477 21.45607,54.7898 44.1322,112.1703 16.63281,274.1113 a 4.0576652,4.0576652 0 1 0 8,1.3633 c 27.67814,-162.9937 4.36801,-223.6364 -17.09179,-278.4355 -17.34555,-44.29317 -33.46694,-84.64737 -21.27735,-175.08598 13.539,4.27175 28.30158,5.43455 43.29688,4.375 7.18409,20.25348 13.57647,38.32135 19.30469,54.80273 -4.55519,14.12151 -4.43552,26.6739 3.59765,37.38477 36.12571,48.16768 -31.79106,48.02448 30.20899,78.70898 0.71555,4.1497 1.34054,8.2332 1.85351,12.2637 7.36539,57.8706 -5.31766,108.9478 -31.34961,241.2773 -26.33446,133.8668 9.86455,178.5779 33.67383,228.8418 11.90464,25.132 20.99163,51.8235 19.2168,94.8789 -1.77479,43.0552 -14.76414,102.4597 -48.1836,190.8594 a 8.1110162,8.1110162 0 1 0 15.17188,5.7324 c 33.7756,-89.3421 47.33184,-150.2456 49.21484,-195.9258 1.883,-45.6799 -8.26928,-76.1539 -20.75,-102.5019 -24.96124,-52.6962 -58.11326,-88.1895 -32.42578,-218.7676 19.39425,-98.5875 31.731,-153.1021 33.50195,-199.916 2.49747,10.6354 4.73924,21.4349 6.58008,32.5019 -6.71857,14.1861 -9.14368,28.588 4.73828,42.7696 1.93712,36.4503 -1.50439,76.5127 -14.42187,123.0156 a 4.0554535,4.0554535 0 1 0 7.80859,2.1699 c 2.00938,-7.2337 3.79024,-14.3176 5.36328,-21.2656 -2.73564,24.4799 -2.43185,50.2272 2.66797,79.1602 5.45758,30.9628 16.3018,65.4834 34.43555,106.1679 13.86291,77.9819 42.0983,162.5025 91.00195,262.7149 3.48538,7.1421 6.86274,14.2582 10.15821,21.3535 -23.03623,45.5831 -55.07887,89.5588 -38.06446,109.0039 6.09525,6.966 11.48993,13.3978 16.78321,19.2793 -28.42285,9.4197 -66.22781,-22.3113 -68.80469,24.0723 -4.33516,78.0329 -82.36843,56.3572 -56.35742,121.3847 26.01093,65.0273 -65.02788,86.7046 30.3457,182.0781 95.37358,95.3736 99.70827,26.0092 52.02148,-43.3535 -47.68679,-69.3626 -21.67428,-173.4051 73.69922,-177.7402 28.46766,-1.294 46.11637,-22.6778 57.91211,-51.6895 0.42288,1.525 0.83892,3.0477 1.25391,4.5684 0.98618,10.1693 2.1602,20.4872 3.5,30.9355 -27.67675,17.657 -90.84716,41.8337 -53.9961,72.543 52.02199,43.3515 -43.35237,86.7016 -4.33593,121.3828 39.01644,34.6815 -56.35597,91.0393 17.34179,125.7207 73.69773,34.6812 8.6695,52.0209 60.69141,82.3672 2.12559,1.2399 4.24228,2.3461 6.3457,3.3438 -5.30663,34.634 -10.66601,53.8652 -10.66601,53.8652 a 4.0554535,4.0554535 0 1 0 7.80859,2.1855 c 0,0 5.24603,-18.8844 10.52149,-52.9043 8.1216,2.8093 15.86187,3.8317 22.74804,3.3028 -0.87964,51.6755 8.41519,114.5437 33.5293,196.3437 a 8.1119006,8.1119006 0 1 0 15.50586,-4.7695 c -25.69093,-83.6794 -34.36845,-146.1238 -32.72852,-196.6894 12.62581,-8.0618 16.84886,-24.8395 4.72461,-46.3848 1.05721,-5.9986 2.26572,-11.8304 3.61133,-17.5215 0.33865,-1.4319 0.69678,-2.8485 1.05274,-4.2637 58.25582,242.3763 46.85543,404.7366 18.0625,508.9395 -16.8192,60.87 -39.55219,101.9727 -57.92383,127.7851 -18.37157,25.8125 -31.83789,35.9082 -31.83789,35.9082 a 8.1109066,8.1109066 0 1 0 9.81836,12.9082 c 0,0 15.80471,-12.1149 35.23046,-39.4082 19.42545,-27.2934 43.03132,-70.185 60.35157,-132.8671 30.70696,-111.1306 41.60647,-284.3906 -24.47657,-543.4825 16.01987,-44.8467 39.85763,-83.4351 61.41602,-130.5117 2.7774,-6.0649 5.50561,-12.2774 8.16992,-18.6484 13.24802,2.748 25.95728,3.6462 36.89844,3.0312 -2.97502,20.1556 -4.50966,42.2335 -4.18555,66.543 a 8.1109066,8.1109066 0 1 0 16.20117,-0.2227 c -0.33918,-25.4401 1.32827,-48.2067 4.55079,-68.7265 19.18429,-4.9445 25.95544,-16.5082 6.3789,-30.8164 16.21225,-62.3221 47.80255,-101.0694 76.96875,-133.1094 22.40104,52.6469 37.65651,108.6129 39.97461,169.9707 -27.00998,32.4599 -49.43359,47.3809 -49.43359,47.3809 a 8.1109066,8.1109066 0 1 0 8.99804,13.4941 c 0,0 17.60276,-11.7839 40.66211,-36.7559 -1.20098,66.6581 -17.81681,139.6922 -56.81835,221.5957 a 8.1109066,8.1109066 0 1 0 14.63476,6.9864 c 43.48929,-91.3277 59.628,-172.7109 57.80664,-246.6953 19.48018,-24.0999 40.68863,-56.4499 57.79492,-97.8086 43.6528,-105.5404 60.7848,-269.763 -41.78515,-503.2735 -26.69163,-60.7658 -49.71745,-112.1184 -69.16602,-156.582 1.89869,-18.8701 7.09034,-36.9444 18.38281,-52.5801 29.78774,-41.2445 8.70859,-64.326 -12.66601,-91.0019 4.37843,-9.6065 8.76377,-19.1101 13.01367,-28.6426 20.57378,-46.1469 38.03249,-93.79 35.4668,-163.5 -1.72505,-46.86897 -12.44342,-103.68444 -37.00391,-176.94142 24.3277,-21.42882 51.69498,-54.94375 78.77734,-96.85352 3.87957,0.76684 7.75147,2.17995 11.60747,4.3711 14.0187,17.7002 36.5582,27.17765 58.5449,27.75586 -6.3613,160.81203 -56.9492,254.30398 -80.8633,356.60348 -14.83839,63.4746 -18.96249,130.2428 5.09961,216.2481 24.06209,86.005 76.00589,191.2714 172.74999,333.6699 a 8.1109066,8.1109066 0 1 0 13.4199,-9.1055 c -96.1707,-141.5547 -147.1835,-245.4629 -170.5371,-328.9355 -23.35376,-83.4728 -19.34807,-146.4824 -4.9238,-208.1856 23.3356,-99.825 75.0884,-196.49998 81.3066,-361.53512 18.7256,-3.47237 35.2253,-14.07845 43.2168,-32.27734 -1.6392,19.6495 -6.9101,39.9921 -11.9023,60.58398 -6.5795,27.13947 -12.6551,54.75263 -8.2363,81.98828 4.4188,27.23573 19.6415,53.78131 54.2363,77.83789 a 4.0578478,4.0578478 0 1 0 4.625,-6.66797 c -33.2406,-23.11491 -46.7728,-47.2684 -50.8613,-72.46874 -4.0887,-25.20042 1.5609,-51.76049 8.1093,-78.77149 6.5484,-27.01107 13.9977,-54.42218 12.4825,-81.48242 -0.2252,-4.0205 -0.6625,-8.03038 -1.3301,-12.02539 2.9932,-8.773 8.8465,-10.01127 24.8926,-7.76172 25.732,3.60748 36.5831,-5.24058 41.0761,-20.01758 32.6348,26.75841 59.1202,59.77406 83.8535,40.53711 39.0164,-30.34624 -73.6992,-86.70255 -52.0234,-138.72461 17.7532,-42.6079 -25.5707,-18.33869 -98.9941,-27.21094 37.9609,-23.1575 62.2671,-55.78517 63.8672,-99.58398 C 1201.7417,361.65951 1083.8378,38.146254 654.90625,11.992188 632.92996,10.652183 611.01005,9.9524809 589.25391,9.9609375 Z M 134.16602,810.80273 c 2.94627,3.92653 6.29236,7.04035 9.93164,9.49415 -4.77293,22.49445 -6.37084,40.4882 -5.86133,55.29101 0.93542,27.17669 9.10342,43.68258 16.66406,56.86523 7.56056,13.18254 14.1126,22.69557 13.89063,37.96876 -0.0831,5.714 -1.15178,12.35095 -3.61133,20.33007 -14.8809,-29.96103 -28.15253,-58.21192 -35.72071,-89.5332 -6.31646,-26.1409 -8.83337,-54.61026 -5.05468,-88.49219 3.01552,-0.28297 6.26243,-0.90631 9.76172,-1.92383 z m 17.39453,13.4668 c 11.32065,4.68107 24.49096,4.73638 37.19922,3.37891 11.46981,57.98195 29.34343,110.31975 35.99414,163.52539 4.72233,37.77867 4.15013,76.19897 -7.98438,118.04887 -9.21732,-28.9737 -20.20989,-54.256 -31.39453,-77.5801 -5.07736,-10.5882 -10.15108,-20.7254 -15.11328,-30.6543 4.53233,-12.05535 6.5161,-21.88886 6.64062,-30.4551 0.25709,-17.68014 -7.56985,-29.24565 -14.95312,-42.11914 -7.38335,-12.87348 -14.73449,-27.39382 -15.61914,-53.0957 -0.46488,-13.50498 0.94277,-30.14909 5.23047,-51.04883 z M 365.375,850.9707 c -6.51881,10.32868 -12.98366,20.27912 -18.79102,29.76953 0.0961,-7.75574 0.46564,-15.68155 1.14454,-23.80273 6.01807,-1.7688 11.91948,-3.77584 17.64648,-5.9668 z m -25.89258,8.23633 c -0.89406,12.05862 -1.11006,23.6943 -0.79883,34.99805 -0.59671,1.07389 -1.17914,2.1425 -1.74804,3.20312 -3.86538,-10.97474 -7.98519,-22.58958 -12.40821,-35.0332 5.0126,-0.8566 10.00957,-1.92335 14.95508,-3.16797 z m 573.1211,7.07227 c 23.64546,71.22749 33.90174,126.36047 35.5664,171.5898 2.51138,68.2341 -14.32764,114.0885 -34.7539,159.9043 -3.66098,8.2116 -7.43975,16.4633 -11.23243,24.7871 -16.90675,-22.0878 -31.13459,-47.7249 -16.40039,-88.2441 34.68121,-95.3735 -78.03342,-99.709 -13.00586,-121.3848 29.04485,-9.6816 20.89404,-47.90174 5.69141,-82.98824 8.41326,-18.19736 17.84544,-37.84493 28.20898,-59.08984 1.95066,-1.43577 3.92553,-2.95963 5.92579,-4.57422 z m -60.07227,14.73632 c 7.59107,6.59743 17.55233,7.55497 29.20313,3.64258 -4.32027,8.94152 -8.46428,17.60682 -12.41016,25.98242 -5.85772,-11.43328 -11.8792,-21.75278 -16.79297,-29.625 z m -346.46094,74.49219 c 0.1075,8.07292 1.84101,16.98276 6.88867,27.07813 10.62754,21.25506 -2.7079,32.08526 -14.4707,42.71676 -5.61987,-15.92 -9.27327,-32.17614 -2.86914,-51.38864 2.88838,-8.6651 6.50012,-14.43258 10.45117,-18.40625 z m -127.3457,87.83989 c 47.67686,20.5051 29.64068,44.5979 15.00586,69.7617 -3.67368,-19.4833 -8.43571,-38.1647 -13.52149,-56.5117 -0.32006,-3.681 -0.71364,-7.3727 -1.1875,-11.0957 -0.0911,-0.7157 -0.20018,-1.437 -0.29687,-2.1543 z m 333.61523,69.2168 c 11.83192,14.2281 24.9007,30.9802 39.23438,52.2226 -7.41025,34.4048 -15.74651,67.2823 -24.60938,99.0723 -2.25666,-41.9334 13.65457,-94.7337 -14.58789,-151.2188 -0.0128,-0.026 -0.0243,-0.051 -0.0371,-0.076 z m -311.66601,61.7656 c 3.3282,2.3915 7.17543,4.7739 11.61523,7.1465 -1.58426,5.0396 -3.1383,10.0329 -4.63086,14.9804 -3.59922,11.9308 -6.88214,23.6822 -9.65039,35.4883 2.54029,-20.3109 3.26459,-39.4144 2.66602,-57.6152 z m 363.23437,9.4453 c 57.21866,92.6184 -9.65591,75.0649 3.38868,149.1074 -2.52124,-4.3142 -6.28759,-8.3823 -11.56836,-12.1543 -10.09517,-7.2108 -16.81848,-15.3863 -21.23438,-24.3965 10.53235,-35.9662 20.54274,-73.2646 29.41406,-112.5566 z m -337.39843,6.5488 c 0.83302,0.6271 1.63994,1.2651 2.43164,1.9082 -3.00775,20.0083 -5.54825,39.7242 -7.46875,59.3028 -4.44755,45.3402 -5.62006,89.9856 -2.07032,136.0625 -4.28969,-14.1871 -7.46818,-27.4678 -9.68164,-40.0254 -9.89249,-56.1235 -1.05014,-98.3222 13.46094,-146.4239 1.07713,-3.5704 2.19471,-7.1865 3.32813,-10.8242 z m 9.63085,8.5332 c 51.89346,54.3256 -11.38742,153.2555 50.8086,199.9024 69.36257,52.022 4.33469,182.0774 52.02148,242.7695 3.91407,4.9815 6.65231,10.3152 8.41211,15.9258 -4.9897,14.8389 -8.2505,35.3174 -8.83984,63.4961 -1.44893,3.4297 -3.00237,6.8676 -4.62305,10.3066 -2.43487,-5.1708 -4.90828,-10.352 -7.44336,-15.5469 -42.10374,-86.2782 -68.74559,-160.5585 -84.04492,-228.9785 14.60927,29.4384 32.71318,61.9398 54.93164,98.3321 a 8.1120763,8.1120763 0 1 0 13.8418,-8.461 c -38.20759,-62.5815 -63.88322,-113.1825 -80.35352,-155.8887 -7.31126,-57.7236 -6.80568,-112.4443 -1.3164,-168.4043 1.73111,-17.6478 3.96374,-35.422 6.60546,-53.4531 z m 116.15626,48.4981 c 3.75443,2.6409 7.94621,5.413 12.68359,8.3457 91.03835,56.357 13.00579,17.3389 56.35742,78.0312 3.2268,4.5175 5.67072,8.9865 7.47656,13.4043 l -1.92578,49.6094 c -13.0074,33.5973 -40.03329,62.4567 -9.88476,84.3828 2.59315,1.8859 4.68531,3.8257 6.38281,5.8086 l -0.16406,4.2031 c -24.49341,-17.2612 -45.40374,-40.0226 -23.56055,-83.709 47.68679,-95.3737 -73.69808,-43.3522 -34.68164,-91.039 32.00994,-39.1232 -8.91759,-37.404 -12.68359,-69.0371 z m 219.08203,102.8554 c 3.89754,13.472 9.99048,29.4037 19.03125,48.5489 49.18685,104.1603 -3.95531,102.1232 -46.04493,105.9941 -2.71023,-3.5229 -6.1047,-7.0587 -10.3125,-10.6191 -45.29568,-38.3272 35.40409,-99.0532 37.32618,-143.9239 z m 130.61132,63.3868 c 16.13966,36.4157 34.22311,76.8867 54.40039,122.8222 101.18268,230.3519 83.62678,389.0851 41.66016,490.5489 -13.2398,32.0101 -28.88572,58.277 -44.09961,79.2597 -4.69137,-58.9712 -20.65161,-113.1955 -42.75976,-164.082 7.19939,-7.7996 14.1125,-15.3421 20.37695,-22.8438 11.27766,-13.5052 20.66648,-27.0704 25.74023,-42.498 5.07353,-15.4274 5.50029,-32.6072 -0.44336,-51.75 -11.88665,-38.2855 -47.79675,-85.0368 -121.875,-154.7578 -27.05622,-25.4646 -49.63776,-50.5294 -68.63671,-75.4141 27.81686,-35.9141 59.07329,-63.2245 93.41601,-61.7324 4.58945,31.8147 11.37579,66.8062 20.8418,105.5937 a 4.0554535,4.0554535 0 1 0 7.87305,-1.916 c -9.30269,-38.1183 -16.01946,-72.4618 -20.60938,-103.6582 55.98486,-2.3377 38.39235,-59.2134 34.11523,-119.5722 z m -145.61718,194.7246 c 18.90725,24.4364 41.14484,48.99 67.49804,73.7929 73.31736,69.0043 107.30837,114.9177 117.50391,147.7559 5.09756,16.419 4.60747,29.434 0.51953,41.8633 -4.08775,12.4295 -12.10823,24.4012 -22.77734,37.1777 -4.6122,5.5233 -9.76134,11.2302 -15.16407,17.1367 -14.46115,-31.0672 -31.04469,-60.9261 -48.62304,-89.8593 -23.97286,-39.4585 -49.53031,-77.3123 -73.875,-114.5352 -6.56365,-34.8147 -14.92313,-72.4053 -25.2832,-113.0527 0.0668,-0.094 0.13432,-0.1859 0.20117,-0.2793 z m -12.44336,18.125 c 4.95232,19.989 9.41227,39.2137 13.38476,57.6797 -8.49288,-13.5249 -16.67973,-27.0038 -24.42773,-40.4825 3.6108,-5.7543 7.2815,-11.507 11.04297,-17.1972 z m -20.94531,33.2226 c 13.50997,22.9803 28.16031,45.8446 43.23632,68.8145 12.07034,64.9466 17.81637,119.9401 18.92188,167.248 1.41686,60.6282 -4.69925,108.6235 -14.91797,149.1543 -25.19132,-44.9177 -4.50915,-108.6416 -14.49609,-151.9179 -11.06119,-47.9316 -56.6141,-51.9684 -91.32422,-86.7735 -2.88604,-11.3563 -5.87544,-22.901 -8.38477,-34.6113 -1.40237,-6.5445 -1.84278,-12.3286 -1.52539,-17.5293 17.4155,-5.8791 40.44462,-48.2762 68.49024,-94.3848 z m 65.52734,102.5996 c 17.92104,27.0437 35.94328,54.3715 52.9414,82.3496 18.54698,30.5279 35.9353,61.7682 50.79493,94.209 -29.90239,32.7318 -65.28308,74.3253 -83.94336,140.8399 -0.18988,-0.096 -0.3625,-0.191 -0.55469,-0.2871 -10.33137,-5.1657 -18.59268,-11.2508 -25.21289,-18.0391 12.52449,-44.5396 20.41756,-97.8079 18.82422,-165.9863 -0.91261,-39.0471 -4.91574,-83.0164 -12.84961,-133.086 z m -144.20508,182.8848 c 15.1846,42.1682 12.14995,111.7945 59.40039,147.2324 13.30659,9.9799 28.20802,17.0781 43.05274,21.7735 -2.3122,5.4517 -4.67575,10.7911 -7.07813,16.0371 -17.7676,38.799 -37.85671,72.7298 -53.68945,110.4746 -6.71207,-24.9086 -14.06084,-50.5096 -22.2168,-76.9707 -16.68274,-54.1263 -28.99038,-104.452 -37.625,-151.7324 5.41012,-20.4806 -3.90996,-37.7657 18.15625,-66.8145 z m -30.33594,89.0918 c 5.1228,25.7143 11.29905,52.2863 18.64649,79.8301 6.0437,60.5874 6.38366,114.4075 4.11719,159.3105 -51.67522,-52.7897 -36.03716,-88.3865 -24.06641,-120.3086 13.00543,-34.6812 -43.35242,-73.6965 -4.33594,-112.7129 2.10108,-2.101 3.96513,-4.1356 5.63867,-6.1191 z m 29.92383,119.7676 c 1.42503,4.7892 2.8791,9.6061 4.37305,14.4531 10.51207,34.1057 19.70182,66.7943 27.8125,98.2695 -3.43283,10.081 -6.5279,20.5039 -9.11914,31.4629 -0.27442,1.1606 -0.53163,2.3381 -0.79492,3.5098 -4.11587,-4.6163 -8.91838,-9.3717 -14.48243,-14.2402 -2.56111,-2.241 -4.98907,-4.4482 -7.31836,-6.6309 2.09061,-36.5262 2.50701,-79.2142 -0.4707,-126.8242 z"
       transform="matrix(0.26458333,0,0,0.26458333,0,-496.75002)"
       id="path876"
       inkscape:connector-curvature="0" />
  </g>
</svg>
