<?xml version="1.0" encoding="UTF-8" standalone="no"?>
<!-- Created with Inkscape (http://www.inkscape.org/) -->

<svg
   xmlns:dc="http://purl.org/dc/elements/1.1/"
   xmlns:cc="http://creativecommons.org/ns#"
   xmlns:rdf="http://www.w3.org/1999/02/22-rdf-syntax-ns#"
   xmlns:svg="http://www.w3.org/2000/svg"
   xmlns="http://www.w3.org/2000/svg"
   xmlns:sodipodi="http://sodipodi.sourceforge.net/DTD/sodipodi-0.dtd"
   xmlns:inkscape="http://www.inkscape.org/namespaces/inkscape"
   width="2942.897"
   height="2899.2861"
   viewBox="0 0 778.64147 767.10281"
   version="1.1"
   id="svg8"
   inkscape:version="0.92.4 (5da689c313, 2019-01-14)"
   sodipodi:docname="Bernardinelli-Bernstein.svg"
   inkscape:export-filename="G:\Pictures\My Pictures\Vectors and SVGs\Space\Bernardinelli-Bernstein.png"
   inkscape:export-xdpi="96"
   inkscape:export-ydpi="96">
  <defs
     id="defs2" />
  <sodipodi:namedview
     id="base"
     pagecolor="#505050"
     bordercolor="#666666"
     borderopacity="1.0"
     inkscape:pageopacity="0"
     inkscape:pageshadow="2"
     inkscape:zoom="0.1767767"
     inkscape:cx="1546.2684"
     inkscape:cy="1324.288"
     inkscape:document-units="mm"
     inkscape:current-layer="layer1"
     showgrid="false"
     inkscape:pagecheckerboard="true"
     inkscape:showpageshadow="false"
     borderlayer="true"
     units="px"
     inkscape:snap-object-midpoints="true"
     inkscape:window-width="1600"
     inkscape:window-height="837"
     inkscape:window-x="-8"
     inkscape:window-y="-8"
     inkscape:window-maximized="1"
     inkscape:snap-page="true"
     inkscape:snap-global="false"
     fit-margin-top="0"
     fit-margin-left="0"
     fit-margin-right="0"
     fit-margin-bottom="0" />
  <metadata
     id="metadata5">
    <rdf:RDF>
      <cc:Work
         rdf:about="">
        <dc:format>image/svg+xml</dc:format>
        <dc:type
           rdf:resource="http://purl.org/dc/dcmitype/StillImage" />
        <dc:title></dc:title>
      </cc:Work>
    </rdf:RDF>
  </metadata>
  <g
     inkscape:label="Layer 1"
     inkscape:groupmode="layer"
     id="layer1"
     transform="translate(-7.5542558,483.4264)">
    <path
       inkscape:connector-curvature="0"
       id="path838"
       d="m 364.44268,283.28306 c -33.87722,-1.38951 -63.62631,-5.51862 -90.35521,-12.54117 -47.35523,-12.44168 -88.65467,-34.86719 -123.054,-66.818 -12.38331,-11.50187 -25.79314,-25.93584 -37.99232,-40.8939 C 67.160748,106.77367 33.482878,40.701048 17.976598,-23.477132 4.2060884,-80.471186 4.0803784,-136.92308 17.604848,-190.42225 c 10.26336,-40.59912 30.525,-83.7958 56.58544,-120.63703 18.6929,-26.42585 39.620942,-49.52784 63.636772,-70.2472 43.38777,-37.43225 93.69381,-64.49811 149.75416,-80.57134 11.29176,-3.23749 25.28936,-6.8049 34.39584,-8.76608 12.74836,-2.74549 14.82153,-3.1549 24.47396,-4.833 19.68021,-3.42147 40.20116,-5.84116 61.11875,-7.20669 10.26141,-0.66988 12.27926,-0.71838 30.82395,-0.74076 21.99312,-0.0265 26.86064,0.17898 49.60938,2.09464 40.81457,3.43697 72.48398,8.19962 99.48333,14.96096 36.16997,9.05789 64.33304,21.36981 88.10625,38.51698 6.55648,4.72906 8.92985,6.63707 14.83482,11.92599 4.51961,4.04808 8.15681,7.56588 10.18646,9.85202 1.73627,1.95569 4.65368,5.22991 6.48314,7.27605 5.45197,6.09771 13.96529,18.04084 19.89156,27.90542 6.31782,10.51633 13.01186,23.75832 17.90589,35.421 1.87573,4.46994 3.67186,8.72247 3.99137,9.45008 0.31951,0.7276 2.23398,6.00428 4.25437,11.72594 12.32042,34.89109 21.81743,77.27248 28.43977,126.91573 5.58207,41.8448 6.10169,83.83095 1.55538,125.677075 -1.01611,9.352836 -3.81916,29.468895 -4.59547,32.979466 -0.1401,0.633466 -0.92461,4.723659 -1.74339,9.089284 -3.14778,16.7833945 -8.64394,38.015969 -14.21144,54.901042 -7.6192,23.107491 -18.61179,48.075056 -30.15223,68.485073 -5.0872,8.99705 -4.95128,8.77043 -10.89623,18.16468 -20.30751,32.09004 -46.36008,62.25047 -74.519,86.2689 -52.52876,44.80488 -118.07991,68.37743 -205.97812,74.07087 -16.33781,1.05825 -30.52276,1.45833 -50.22562,1.41658 -9.77476,-0.0206 -21.64183,-0.19637 -26.37126,-0.39037 z"
       style="fill:#ffffff;fill-opacity:1;stroke:none;stroke-width:0.26458332" />
  </g>
</svg>
