<?xml version="1.0" encoding="UTF-8" standalone="no"?>
<!-- Created with Inkscape (http://www.inkscape.org/) -->

<svg
   xmlns:dc="http://purl.org/dc/elements/1.1/"
   xmlns:cc="http://creativecommons.org/ns#"
   xmlns:rdf="http://www.w3.org/1999/02/22-rdf-syntax-ns#"
   xmlns:svg="http://www.w3.org/2000/svg"
   xmlns="http://www.w3.org/2000/svg"
   xmlns:sodipodi="http://sodipodi.sourceforge.net/DTD/sodipodi-0.dtd"
   xmlns:inkscape="http://www.inkscape.org/namespaces/inkscape"
   width="2330.0686"
   height="2220.0107"
   viewBox="0 0 616.4973 587.37786"
   version="1.1"
   id="svg8"
   inkscape:version="0.92.4 (5da689c313, 2019-01-14)"
   sodipodi:docname="The Milky Way.svg"
   inkscape:export-filename="G:\Pictures\My Pictures\Vectors and SVGs\Space\The Milky Way.png"
   inkscape:export-xdpi="96"
   inkscape:export-ydpi="96">
  <defs
     id="defs2">
    <inkscape:path-effect
       effect="simplify"
       id="path-effect847"
       is_visible="true"
       steps="6"
       threshold="0.002"
       smooth_angles="40"
       helper_size="5"
       simplify_individual_paths="false"
       simplify_just_coalesce="false" />
  </defs>
  <sodipodi:namedview
     id="base"
     pagecolor="#505050"
     bordercolor="#666666"
     borderopacity="1.0"
     inkscape:pageopacity="0"
     inkscape:pageshadow="2"
     inkscape:zoom="0.16"
     inkscape:cx="1077.3038"
     inkscape:cy="1090.0045"
     inkscape:document-units="mm"
     inkscape:current-layer="layer1"
     showgrid="false"
     inkscape:pagecheckerboard="true"
     inkscape:showpageshadow="false"
     borderlayer="true"
     units="px"
     inkscape:snap-object-midpoints="true"
     inkscape:window-width="1600"
     inkscape:window-height="837"
     inkscape:window-x="-8"
     inkscape:window-y="-8"
     inkscape:window-maximized="1"
     inkscape:snap-page="true"
     inkscape:snap-global="false"
     fit-margin-top="0"
     fit-margin-left="0"
     fit-margin-right="0"
     fit-margin-bottom="0" />
  <metadata
     id="metadata5">
    <rdf:RDF>
      <cc:Work
         rdf:about="">
        <dc:format>image/svg+xml</dc:format>
        <dc:type
           rdf:resource="http://purl.org/dc/dcmitype/StillImage" />
        <dc:title></dc:title>
      </cc:Work>
    </rdf:RDF>
  </metadata>
  <g
     inkscape:label="Layer 1"
     inkscape:groupmode="layer"
     id="layer1"
     transform="translate(-87.672667,382.60447)">
    <path
       transform="matrix(0.26458333,0,0,0.26458333,0,-472.93752)"
       style="fill:#ffffff;fill-opacity:1;stroke:none;stroke-width:1.25061774"
       d="M 1394.457,341.8457 C 1193.8325,354.8 986.97934,378.31976 813.52278,507.07912 611.7722,656.84155 468.97745,880.47232 394.73653,1116.9131 c -101.19019,322.2682 -91.81336,706.0699 105.96204,982.2247 126.01465,175.9549 321.42525,285 512.99843,371.4119 316.5627,142.7902 680.3949,100.6631 1002.6442,-11.7391 204.6788,-71.393 355.8126,-232.8112 483.7433,-410.6511 81.8814,-113.8255 157.7459,-239.9901 154.9703,-390.1599 -5.1854,-280.5523 52.7965,-591.2221 -103.2135,-839.75049 -58.8166,-93.6965 -172.5769,-115.06382 -266.7521,-158.17089 -152.4888,-69.79908 -282.8227,-176.5223 -441.1575,-237.16652 -142.9353,-54.74601 -296.0779,-85.54503 -449.4747,-81.066 z m 42.002,146.93164 c 322.4746,13.68037 728.2231,135.98023 821.9139,438.77117 43.6509,141.07139 220.4923,214.38249 235.2528,353.96539 14.3712,135.9014 -41.5933,267.3955 -73.411,397.5481 -15.3792,62.9098 -73.9249,297.3794 24.0519,187.8137 31.3768,-35.0881 182.9393,-143.4965 117.4826,-34.9862 -76.2572,126.4147 -267.9574,143.1036 -334.7872,269.7284 -73.3299,138.9409 -227.6371,181.8485 -369.1897,225.6104 -366.8284,113.4074 -796.4254,33.4159 -1073.10228,-240.4402 -65.77933,-65.1087 -150.14048,-108.7232 -204.02725,-190.895 -63.19714,-96.3691 -94.50454,-208.5733 -112.38169,-319.8475 -28.03363,-174.4919 2.65284,-360.7419 83.3815,-514.4642 120.0406,-228.5795 328.22949,-401.48259 550.69482,-518.02196 102.6588,-53.77823 220.7935,-59.08324 334.1216,-54.7821 z m -128.2871,171.21289 c -261.9437,20.0374 -539.05935,148.27401 -662.0463,391.70347 -45.7593,90.5719 -107.33254,205.0249 57.1705,261.754 141.78929,48.8962 54.87338,205.4829 84.04299,304.2643 41.16397,139.3997 75.09289,291.3121 172.70462,398.1055 88.36519,96.6771 234.96029,169.3579 336.77619,217.6708 153.7533,-69.3944 318.1711,10.3195 481.2261,-41.2648 206.4172,-65.3024 415.6544,-187.0069 502.6898,-401.2073 45.0508,-110.8733 -117.5465,-170.8061 -157.4264,-119.9043 3.2278,-136.1845 46.7452,-259.2618 47.1447,-404.3712 0.3294,-119.6607 -45.0961,-283.83323 -177.0495,-265.5349 -79.8142,-116.57412 -199.9631,-190.77946 -321.872,-257.85185 -110.1993,-60.62996 -237.2862,-93.63913 -363.3607,-83.36372 z m -8.4824,33.23438 c 155.9606,-11.58114 304.8985,45.96903 439.0141,133.19144 162.0413,105.38398 260.9584,284.35805 283.3107,484.67175 15.8496,142.0389 -84.1371,263.628 -86.5231,403.242 56.3945,-18.2125 154.6616,-65.9531 80.8295,27.0954 -91.6398,115.491 -254.2079,111.2992 -371.7537,183.718 -28.2316,93.5838 163.2528,55.9558 221.15,38.4911 85.6966,-25.8504 272.3571,-194.7581 298.06,-35.2584 -73.8425,123.1789 -230.269,187.0332 -365.0087,215.867 -222.1614,47.5417 -502.8813,39.1882 -654.537,-132.9866 -137.5784,-156.1929 -225.31089,-366.5617 -205.33699,-577.3126 -62.14579,-8.124 -102.46565,33.9162 -65.41396,-63.6339 39.88628,-105.013 72.68331,-246.8434 204.01065,-272.0114 107.6352,-20.6276 187.3064,-111.41361 300.2169,-139.70304 90.851,-22.76249 196.5655,94.41824 273.0278,22.7964 -49.0281,-81.55327 -154.3861,-115.26852 -242.4235,-141.46227 -101.1606,-30.09828 -198.9864,19.06419 -298.1107,33.26508 -118.59911,16.99092 -269.60035,14.31287 -332.24802,133.43403 -26.69642,50.7618 -141.34693,103.7257 -77.13387,5.6755 94.34437,-144.05926 254.13397,-232.81629 412.09559,-286.09361 60.1108,-20.27418 123.2175,-32.58429 186.7743,-32.98588 z m 165.5644,16.54883 c -64.0994,46.14559 -239.3909,-48.47182 -233.7301,49.65917 129.9252,40.02708 273.2037,0.15056 396.9065,95.21857 149.2807,114.72509 257.5955,300.06072 253.1662,488.75902 -3.6411,155.1202 -109.2888,307.7529 -274.072,348.0028 -79.5056,19.42 -183.8962,-12.3451 -87.43,-108.4568 97.6567,-97.2978 246.7656,-189.8396 249.5396,-329.7528 2.826,-142.5346 -159.3208,-206.3264 -266.3864,-251.1483 -52.4634,-21.96326 -211.8513,-55.11811 -106.599,38.7481 73.6693,65.6998 -105.8821,38.7412 -158.0517,58.4943 -200.8024,76.0305 -296.11347,304.9513 -268.78725,511.3229 32.25595,243.6016 230.82185,436.6949 471.89165,504.1011 131.567,36.7878 269.9164,25.1848 398.7172,-7.5311 52.3705,-13.3023 184.9316,-56.704 48.0651,-52.3264 -179.4445,5.7395 -372.4169,1.4169 -530.6333,-83.4322 -148.2149,-79.4854 -235.6488,-242.869 -265.7778,-399.8375 -37.198,-193.7973 165.6549,-487.5382 344.6227,-381.1791 140.1258,83.2756 -76.8788,159.4917 -112.9062,237.5794 -46.2136,100.1659 -192.8768,161.3479 -160.1458,288.588 101.2855,68.9045 186.2132,230.3331 306.7737,242.5657 30.2877,-55.9836 -161.3619,-160.7181 -42.6884,-106.7361 102.068,46.4285 269.7045,70.7078 306.6974,-57.4924 279.5689,-145.1752 327.6469,-548.2559 148.7974,-797.79224 C 1781.7863,855.59943 1626.9227,765.91819 1465.2539,709.77344 Z m 406.8731,20.51562 c -37.3018,18.64713 32.2544,25.39458 0,0 z m -391.961,0.36914 c 25.8104,11.3924 -26.361,7.54776 0,0 z m -389.3848,15.95508 c -36.6613,81.46846 136.0502,8.19646 14.0544,0.84671 -4.6848,-0.28224 -9.3696,-0.56447 -14.0544,-0.84671 z m 806.5352,2.66016 c -23.9862,64.69804 169.995,205.19817 66.6891,81.51059 -22.4386,-26.8656 -54.3529,-47.26133 -66.6891,-81.51059 z m -850.8008,32.30273 c -91.75049,0.0758 24.859,72.49112 0,0 z m -150.38865,68.08008 c -88.43224,1.6009 30.55601,67.29015 0,0 z m 823.71685,18.50781 c 23.8123,13.5657 -26.2822,9.01406 0,0 z m -411.3067,1.44141 c 33.5025,-0.46708 -15.7895,22.51556 0,0 z m -499.03515,75.37109 c -57.57586,29.43912 53.27536,21.20993 0,0 z m -57.09961,22.0625 c -22.7733,5.07401 18.49098,10.6804 0,0 z m 1264.74416,9.13672 c -18.4488,23.94372 36.2922,-1.15403 0,0 z m -176.8789,3.14453 c 69.1312,17.22296 -34.1924,44.45529 0,0 z m 682.6875,43.62109 c 22.1151,4.2519 -18.9542,11.0587 0,0 z M 715.68945,1035.209 c -82.93511,6.3128 46.09211,67.7076 0,0 z m 779.39645,27.8047 c 26.5532,3.2363 -3.6428,42.2909 0,0 z m -599.48629,32.5234 c 15.83112,24.0403 -29.42236,0.142 0,0 z m 671.01369,0.2285 c 31.8524,-4.4216 -4.3085,34.0474 0,0 z m -188.0313,8.4707 c 48.938,106.5503 -197.6492,4.4202 -53.384,24.9974 19.6783,2.8068 49.1943,-0.3668 53.384,-24.9974 z m -283.1191,4.9825 c -122.42334,7.3671 1.5356,72.113 0,0 z m 368.7363,7.7636 c 116.4102,11.1793 276.0179,97.9007 164.4013,250.3304 -63.0393,86.0899 -100.2975,219.8091 -222.0153,235.1866 -95.0363,12.0066 24.5005,210.0497 -112.3763,121.7123 -130.58,-84.2736 8.3904,-232.5755 82.9588,-297.0406 82.9652,-71.7242 239.5447,-132.5427 80.6254,-281.2684 -8.6026,-8.0508 -2.8807,-23.7473 6.4061,-28.9203 z m 139.1914,9.7598 c 0,0 -0.7161,2.4462 -0.7161,2.4462 0,0 0.7161,-2.4462 0.7161,-2.4462 z m 9.4395,2.7598 c 36.2828,-3.7439 -14.1259,20.6196 0,0 z m -387.1211,26.0078 c 52.3441,56.6258 -82.7943,4.1054 0,0 z m 1322.1055,1.3261 c 84.9606,29.9223 -64.0236,57.3094 0,0 z m -1905.82817,5.0528 c 19.76424,17.1912 -25.75121,5.085 0,0 z m 297.625,44.0097 c -34.06403,-5.4932 3.07936,26.4041 0,0 z m 221.17777,37.3008 c 21.4672,51.9825 -56.1951,3.2774 0,0 z m 1413.3496,1.1875 c 92.9849,72.784 -73.4711,64.1664 0,0 z m -1143.7168,0.4824 c -147.5943,3.7474 -281.2328,152.9799 -249.116,301.3848 129.8578,-53.3311 131.4877,-241.1287 262.5959,-291.6833 0,0 -2.7882,-7.388 -2.7882,-7.388 0,0 -10.6917,-2.3135 -10.6917,-2.3135 z m -476.96292,1.2715 c -91.54324,41.4378 52.10492,75.8209 0,0 z m 137.16802,16.916 c 60.8763,72.8447 -91.44563,25.1111 0,0 z m 1036.1816,21.2911 c 9.6469,98.3583 5.9704,280.9781 -97.3797,299.9434 -7.7638,-68.2894 86.9613,-132.1355 36.4245,-190.3018 18.5089,-37.4815 36.1973,-75.7379 60.9552,-109.6416 z m -1182.15821,35.3027 c -30.6412,10.2845 25.72222,10.2705 0,0 z m 267.29491,15.4453 c -84.2787,15.0716 32.5171,71.824 0,0 z m -156.2246,4.6172 c 76.5297,31.0272 -64.83761,16.1804 0,0 z m 689.1934,0.8848 c -57.969,71.4722 -158.5415,303.8989 -173.7126,262.3741 101.652,-41.1456 202.8453,-143.5998 173.7126,-262.3741 z m 38.955,7.8222 c -88.0586,48.0474 76.344,62.9448 0,0 z m -882.19722,14.7559 c -67.77406,11.1414 14.84535,64.7932 0,0 z m 1674.97072,1.2676 c 27.4881,42.8906 -3.1614,267.4334 -29.2646,162.1008 -13.4962,-54.4603 -10.148,-118.5803 29.2646,-162.1008 z M 732.19141,1396.875 c -41.81099,20.4324 39.773,16.9816 0,0 z m 289.66599,0.5078 c 86.1465,27.4543 10.8335,156.6752 -5.9269,31.615 -1.5087,-11.2574 2.6402,-21.1112 5.9269,-31.615 z m 808.5567,1.2402 c -90.7215,-0.3522 1.4355,89.2006 0,0 z m 135.75,8.25 c 29.4777,35.6763 -47.2041,9.7001 0,0 z m -802.9434,11.6817 c -98.4707,35.3709 56.8649,74.5401 0,0 z m 756.2461,15.2539 c 12.7273,10.2561 -17.3368,1.711 0,0 z m -130.6172,16.8809 c -14.9478,78.1084 -207.917,139.4551 -139.3137,200.5076 76.4094,-34.5006 157.2656,-107.9252 139.3137,-200.5076 z m 154.9961,22 c 9.2737,31.4768 -32.9799,-7.0259 0,0 z m -1084.04882,10.7246 c 32.59231,4.9304 -20.8123,18.0325 0,0 z m 283.12692,12.4082 c -73.1388,63.1687 57.7525,93.4964 0,0 z m 580.836,1.8515 c -70.1624,36.787 65.2492,37.4566 0,0 z m -861.51175,25.4805 c 64.72264,44.5743 -73.62986,193.2907 -31.93319,65.5013 7.58456,-23.2447 21.2804,-43.6779 31.93319,-65.5013 z m 150.43555,20.2031 c 31.9695,20.7053 -35.37258,15.5772 0,0 z m 1045.9648,1.4688 c -67.9893,12.923 31.2409,52.1928 0,0 z m -165.9765,0 c 28.0595,12.7917 -26.2789,9.1697 0,0 z m -26.4531,42.6211 c 15.7059,-2.6352 -7.7986,9.7189 0,0 z m -854.754,27.0332 c 31.0047,51.6148 1.2198,190.1139 -10.9465,56.5951 -1.75878,-19.3017 0.6131,-39.7456 10.9465,-56.5951 z m 1106.961,34.8067 c -1.8022,12.8855 12.8789,-2.99 0,0 z m -311.3789,3.9668 c 70.1356,71.1882 -117.9502,130.265 -28.0733,27.805 8.7083,-9.9275 18.4025,-18.8381 28.0733,-27.805 z m -307.6914,1.4804 c -42.8836,-13.4745 16.121,27.2689 0,0 z m -455.9629,13.8555 c 34.4364,28.5565 -41.6895,23.3221 0,0 z m 148.0195,1.1973 c 70.2474,16.1827 -39.4625,66.7871 0,0 z m 371.4317,67.2675 c 96.4437,69.1306 -138.8861,19.6767 0,0 z m 107.4648,11.2422 c 42.6928,19.3525 -36.4096,6.0764 0,0 z m 271.1719,1.5664 c -121.8824,-0.3785 17.2291,93.7041 0,0 z m -861.0039,58.5332 c 66.1673,3.2915 -23.9018,64.6036 0,0 z m -165.30277,11.3164 c 87.27787,25.5091 -49.85041,82.0801 0,0 z m 223.88667,30.0957 c 40.518,2.9791 -15.0328,26.8589 0,0 z m 953.625,16.7129 c -8.8887,1.4035 6.9439,4.4833 0,0 z m 66.2012,16.2911 c -93.2961,-16.1548 6.4979,97.7428 0,0 z m -1007.623,2.0273 c 30.2412,43.4233 -49.5529,0.4562 0,0 z m -217.49612,16.6699 c 89.58382,-0.2757 -47.88545,76.2917 0,0 z m 1130.67972,35.8653 c -45.7571,25.7887 -177.2442,186.6236 -71.4192,121.6576 38.6304,-23.7152 111.8027,-67.747 71.4192,-121.6576 z m -517.2403,16.6289 c -24.1867,82.5453 93.4379,-2.8784 0,0 z m -562.8613,22.1035 c 38.5132,5.5376 -18.31436,26.0436 0,0 z m 674.6914,18.5625 c -30.9846,46.6355 54.7816,0.4386 0,0 z m -634.5703,52.0429 c 77.0923,-9.8588 -26.034,76.9324 0,0 z m 615.1543,40.875 c 18.1296,4.8179 -15.7025,7.3308 0,0 z m -409.418,67.2325 c 99.107,30.8988 -46.6879,71.9875 0,0 z m 2.7168,10.7812 c -20.1999,15.5183 26.827,5.1341 0,0 z m 326.4903,69.8106 c -19.6639,11.5311 22.0212,6.1051 0,0 z"
       id="path949"
       inkscape:connector-curvature="0" />
  </g>
</svg>
