<?xml version="1.0" encoding="UTF-8" standalone="no"?>
<!-- Created with Inkscape (http://www.inkscape.org/) -->

<svg
   xmlns:dc="http://purl.org/dc/elements/1.1/"
   xmlns:cc="http://creativecommons.org/ns#"
   xmlns:rdf="http://www.w3.org/1999/02/22-rdf-syntax-ns#"
   xmlns:svg="http://www.w3.org/2000/svg"
   xmlns="http://www.w3.org/2000/svg"
   xmlns:sodipodi="http://sodipodi.sourceforge.net/DTD/sodipodi-0.dtd"
   xmlns:inkscape="http://www.inkscape.org/namespaces/inkscape"
   width="140.69043mm"
   height="82.519943mm"
   viewBox="0 0 140.69043 82.519943"
   version="1.1"
   id="svg8"
   inkscape:version="0.92.4 (5da689c313, 2019-01-14)"
   sodipodi:docname="Liver_front.svg">
  <defs
     id="defs2" />
  <sodipodi:namedview
     id="base"
     pagecolor="#ffffff"
     bordercolor="#666666"
     borderopacity="1.0"
     inkscape:pageopacity="0.0"
     inkscape:pageshadow="2"
     inkscape:zoom="0.35"
     inkscape:cx="137.14191"
     inkscape:cy="179.60582"
     inkscape:document-units="mm"
     inkscape:current-layer="layer1"
     showgrid="false"
     inkscape:pagecheckerboard="true"
     inkscape:showpageshadow="false"
     borderlayer="true"
     fit-margin-top="0"
     fit-margin-left="0"
     fit-margin-right="0"
     fit-margin-bottom="0"
     inkscape:window-width="1366"
     inkscape:window-height="713"
     inkscape:window-x="0"
     inkscape:window-y="0"
     inkscape:window-maximized="1" />
  <metadata
     id="metadata5">
    <rdf:RDF>
      <cc:Work
         rdf:about="">
        <dc:format>image/svg+xml</dc:format>
        <dc:type
           rdf:resource="http://purl.org/dc/dcmitype/StillImage" />
        <dc:title></dc:title>
      </cc:Work>
    </rdf:RDF>
  </metadata>
  <g
     inkscape:label="Layer 1"
     inkscape:groupmode="layer"
     id="layer1"
     transform="translate(-41.11541,-70.065251)">
    <path
       style="fill:#ffffff;fill-opacity:1;stroke:none;stroke:none;stroke-width:0.26458332px;stroke-linecap:butt;stroke-linejoin:miter;stroke-opacity:1"
       d="m 140.41815,75.883928 c 20.59114,-1.116281 33.28988,1.440861 37.05117,2.456844 4.98247,1.345845 6.60508,8.693454 -0.19849,14.552083 -6.80357,5.858632 -5.85863,4.346726 -8.12649,9.260415 -2.26785,4.91369 -11.33928,21.54464 -18.89881,25.13542 -7.55952,3.59077 -29.48214,8.69345 -30.80506,9.4494 -1.32291,0.75596 -13.79613,11.71726 -39.12053,14.55209 -25.324406,2.83482 -35.340774,0.37797 -37.986607,-1.32292 -2.645833,-1.70089 -0.377976,-9.44941 1.133927,-15.11905 1.511906,-5.66964 -3.401785,-19.0878 -1.700892,-33.2619 1.700892,-14.174108 13.607142,-26.458334 31.938989,-30.049108 18.331843,-3.590774 31.372023,0.188987 39.120533,2.83482 7.74851,2.645833 4.46779,5.044062 14.35523,2.825325 4.88633,-1.096489 10.01825,-1.138924 13.23703,-1.313419 z"
       id="path826"
       inkscape:connector-curvature="0"
       sodipodi:nodetypes="ssscscssssssss" />
  </g>
</svg>
