<?xml version="1.0" encoding="UTF-8" standalone="no"?>
<!-- Created with Inkscape (http://www.inkscape.org/) -->

<svg
   xmlns:dc="http://purl.org/dc/elements/1.1/"
   xmlns:cc="http://creativecommons.org/ns#"
   xmlns:rdf="http://www.w3.org/1999/02/22-rdf-syntax-ns#"
   xmlns:svg="http://www.w3.org/2000/svg"
   xmlns="http://www.w3.org/2000/svg"
   xmlns:sodipodi="http://sodipodi.sourceforge.net/DTD/sodipodi-0.dtd"
   xmlns:inkscape="http://www.inkscape.org/namespaces/inkscape"
   width="2904.5981"
   height="2439.3579"
   viewBox="0 0 768.50824 645.41346"
   version="1.1"
   id="svg8"
   inkscape:version="0.92.4 (5da689c313, 2019-01-14)"
   sodipodi:docname="Human_Brain-side.svg"
   inkscape:export-filename="G:\Pictures\My Pictures\Vectors and SVGs\Brain1.png"
   inkscape:export-xdpi="96"
   inkscape:export-ydpi="96">
  <defs
     id="defs2" />
  <sodipodi:namedview
     id="base"
     pagecolor="#ffffff"
     bordercolor="#666666"
     borderopacity="1.0"
     inkscape:pageopacity="0.0"
     inkscape:pageshadow="2"
     inkscape:zoom="0.175"
     inkscape:cx="1246.0128"
     inkscape:cy="1058.8944"
     inkscape:document-units="mm"
     inkscape:current-layer="layer1"
     showgrid="false"
     borderlayer="true"
     inkscape:showpageshadow="false"
     inkscape:pagecheckerboard="true"
     units="px"
     inkscape:window-width="1600"
     inkscape:window-height="837"
     inkscape:window-x="-8"
     inkscape:window-y="-8"
     inkscape:window-maximized="1"
     fit-margin-top="0"
     fit-margin-left="0"
     fit-margin-right="0"
     fit-margin-bottom="0" />
  <metadata
     id="metadata5">
    <rdf:RDF>
      <cc:Work
         rdf:about="">
        <dc:format>image/svg+xml</dc:format>
        <dc:type
           rdf:resource="http://purl.org/dc/dcmitype/StillImage" />
        <dc:title></dc:title>
      </cc:Work>
    </rdf:RDF>
  </metadata>
  <g
     inkscape:label="Layer 1"
     inkscape:groupmode="layer"
     id="layer1"
     transform="translate(-12.62087,356.43591)">
    <path
       inkscape:connector-curvature="0"
       id="path836"
       d="m 528.24023,288.45633 c -0.79453,-0.57956 -5.38086,-6.28032 -10.19183,-12.66833 -4.81097,-6.388 -21.71518,-24.52721 -37.56493,-40.30933 -23.75523,-23.65391 -29.92717,-30.61513 -35.13322,-39.62614 -8.94974,-15.49079 -11.05956,-17.81787 -23.47968,-25.89744 -6.08526,-3.9586 -13.45165,-9.12588 -16.36974,-11.48286 -6.88589,-5.56177 -16.63187,-18.11518 -21.10382,-27.18296 -1.94581,-3.94553 -4.17837,-7.16474 -4.96123,-7.15382 -0.78284,0.0111 -4.03788,0.93069 -7.23342,2.04386 -3.19553,1.1132 -12.70215,2.62879 -21.12582,3.368 -22.03001,1.93321 -45.5885,-0.96335 -66.79892,-8.21308 -10.76428,-3.67921 -18.21669,-5.41881 -23.22911,-5.42228 -4.84708,-0.003 -8.78715,-0.88591 -11.47941,-2.57134 -2.25458,-1.41145 -15.03723,-13.395558 -28.40588,-26.631338 L 196.8566,62.644199 196.71593,49.615634 c -0.0773,-7.165716 -0.66022,-13.349659 -1.2952,-13.742096 -0.63499,-0.392448 -12.99583,-2.238288 -27.46857,-4.101877 -30.04391,-3.868599 -42.83707,-7.132624 -51.60884,-13.167346 -4.8212,-3.316821 -8.21415,-4.434462 -15.7138,-5.176076 C 89.430918,12.320857 81.887963,8.8597842 62.824339,-3.9186414 44.2273,-16.384281 32.282548,-28.484555 25.134917,-42.098705 18.0353,-55.621429 17.932185,-58.543014 24.046879,-72.925452 c 0.710958,-1.672258 -0.557068,-3.841957 -4.509616,-7.716234 -6.487215,-6.358756 -7.778145,-11.345971 -6.443338,-24.892114 1.510315,-15.32741 10.750727,-39.17352 25.267902,-65.20718 8.801488,-15.78369 16.780916,-24.7391 27.098885,-30.41338 6.05895,-3.33204 6.530349,-3.99172 7.352531,-10.28907 1.95769,-14.99444 6.092089,-20.57508 37.052597,-50.01387 20.63663,-19.62235 27.11279,-24.94032 36.6123,-30.06457 6.34753,-3.424 13.25475,-6.63143 15.34942,-7.12763 2.09467,-0.49617 6.70633,-2.93913 10.24814,-5.42874 11.79957,-8.2942 33.01613,-18.71894 43.70305,-21.47345 15.11334,-3.89542 40.71804,-8.06834 49.50415,-8.06795 4.13343,1.9e-4 9.89769,0.66185 12.8095,1.47034 5.0451,1.40084 5.52725,1.24705 10.24814,-3.2689 2.72467,-2.60641 7.97149,-6.04658 11.65959,-7.64485 8.57667,-3.71675 36.86308,-8.43551 55.87408,-9.32096 l 14.75508,-0.68722 8.25882,5.09763 c 9.43553,5.82393 10.85285,5.63463 20.05442,-2.67845 l 5.36306,-4.84518 14.86498,0.0202 c 8.29718,0.0113 18.66827,0.91684 23.473,2.0496 7.52173,1.77331 9.08979,1.78028 12.42569,0.0551 5.98102,-3.0929 16.04347,-3.83098 30.98842,-2.27297 14.04104,1.46376 22.77557,4.78533 30.28922,11.51839 2.78458,2.49528 3.54466,2.58104 8.46953,0.95569 13.13715,-4.33565 36.36937,5.16697 42.12122,17.22877 1.88327,3.94924 3.43029,5.02011 9.81969,6.79738 16.37608,4.55515 20.47444,6.33571 32.93249,14.3078 13.44845,8.60586 19.04201,13.90635 19.05353,18.05523 0.0113,3.78571 9.35115,12.40977 18.82948,17.38496 9.31884,4.89148 14.21283,9.30347 31.40544,28.31233 7.00922,7.74969 13.32158,13.37585 16.65954,14.84855 3.90464,1.72273 8.3215,6.13881 16.15169,16.14887 17.91842,22.90675 28.24154,44.63893 36.00799,75.80387 2.91869,11.71207 6.44498,21.52898 11.01626,30.66856 11.35809,22.708691 17.32483,41.892155 17.49416,56.244869 0.0443,3.757653 0.71573,9.291632 1.49201,12.297765 0.77629,3.006111 2.01815,7.876791 2.7597,10.823719 0.96387,3.830488 0.72041,11.414869 -0.85399,26.6026851 -2.18263,21.0553029 -2.26886,21.3847389 -9.67607,36.9678489 -4.11057,8.647775 -8.83404,17.208658 -10.49656,19.024191 -1.66251,1.815518 -6.8658,5.064683 -11.56288,7.220358 -7.19257,3.300967 -8.5401,4.464854 -8.5401,7.376268 0,8.653089 -7.14075,17.085406 -23.40369,27.636726 l -9.00448,5.84208 -0.93594,13.58927 c -1.48824,21.60821 -5.90576,32.19744 -18.90656,45.321 -9.42005,9.509 -17.70504,14.5131 -32.78986,19.805 -8.57535,3.00831 -13.88378,3.69774 -39.02358,5.06825 -16.9119,0.92195 -29.5014,2.18485 -30.06121,3.01554 -8.33742,12.37222 -17.7895,18.50061 -33.83844,21.93964 -5.96755,1.27874 -11.00329,2.4274 -11.19053,2.55259 -0.18724,0.12517 2.44111,12.59978 5.84078,27.72131 3.39966,15.12154 6.31984,29.82814 6.48931,32.68134 0.30226,5.08908 0.17831,5.23072 -6.52398,7.45453 -9.18907,3.04894 -16.08844,4.16501 -17.84162,2.88614 z"
       style="fill:#ffffff;fill-opacity:1;stroke:none;stroke-width:1.36641824"
       sodipodi:nodetypes="ccscsccccscccscccscscsccssscsscscccscscscccscssscsscsssssscscsccssccsssccscscscc" />
  </g>
</svg>
