<?xml version="1.0" encoding="UTF-8" standalone="no"?>
<!-- Created with Inkscape (http://www.inkscape.org/) -->

<svg
   xmlns:dc="http://purl.org/dc/elements/1.1/"
   xmlns:cc="http://creativecommons.org/ns#"
   xmlns:rdf="http://www.w3.org/1999/02/22-rdf-syntax-ns#"
   xmlns:svg="http://www.w3.org/2000/svg"
   xmlns="http://www.w3.org/2000/svg"
   xmlns:sodipodi="http://sodipodi.sourceforge.net/DTD/sodipodi-0.dtd"
   xmlns:inkscape="http://www.inkscape.org/namespaces/inkscape"
   width="152.28047mm"
   height="74.052322mm"
   viewBox="0 0 152.28047 74.052322"
   version="1.1"
   id="svg8"
   inkscape:version="0.92.4 (5da689c313, 2019-01-14)"
   sodipodi:docname="Concorde-front.svg">
  <defs
     id="defs2">
    <inkscape:path-effect
       effect="mirror_symmetry"
       start_point="396.8504,0"
       end_point="396.8504,1122.5197"
       center_point="396.8504,561.25985"
       id="path-effect842"
       is_visible="true"
       mode="vertical"
       discard_orig_path="false"
       fuse_paths="false"
       oposite_fuse="false" />
    <inkscape:path-effect
       effect="mirror_symmetry"
       start_point="684.62472,540.95703"
       end_point="684.62472,827.3418"
       center_point="684.62472,684.14942"
       id="path-effect832"
       is_visible="true"
       mode="free"
       discard_orig_path="false"
       fuse_paths="false"
       oposite_fuse="false" />
    <inkscape:path-effect
       effect="mirror_symmetry"
       start_point="105,0"
       end_point="105,297"
       center_point="105,148.5"
       id="path-effect825"
       is_visible="true"
       mode="vertical"
       discard_orig_path="false"
       fuse_paths="false"
       oposite_fuse="false" />
  </defs>
  <sodipodi:namedview
     id="base"
     pagecolor="#ffffff"
     bordercolor="#666666"
     borderopacity="1.0"
     inkscape:pageopacity="0.0"
     inkscape:pageshadow="2"
     inkscape:zoom="1.4"
     inkscape:cx="348.29328"
     inkscape:cy="-35.884592"
     inkscape:document-units="mm"
     inkscape:current-layer="layer1"
     showgrid="false"
     inkscape:pagecheckerboard="true"
     inkscape:showpageshadow="false"
     borderlayer="true"
     showguides="true"
     inkscape:guide-bbox="true"
     inkscape:window-width="1366"
     inkscape:window-height="713"
     inkscape:window-x="0"
     inkscape:window-y="0"
     inkscape:window-maximized="1"
     inkscape:snap-page="true"
     inkscape:snap-object-midpoints="true"
     inkscape:snap-global="true"
     fit-margin-top="0"
     fit-margin-left="0"
     fit-margin-right="0"
     fit-margin-bottom="0"
     inkscape:object-paths="false"
     inkscape:snap-smooth-nodes="true" />
  <metadata
     id="metadata5">
    <rdf:RDF>
      <cc:Work
         rdf:about="">
        <dc:format>image/svg+xml</dc:format>
        <dc:type
           rdf:resource="http://purl.org/dc/dcmitype/StillImage" />
        <dc:title />
      </cc:Work>
    </rdf:RDF>
  </metadata>
  <g
     inkscape:label="Layer 1"
     inkscape:groupmode="layer"
     id="layer1"
     transform="translate(-28.859813,-143.12821)">
    <path
       style="fill:#ffffff;fill-opacity:1;stroke:none;stroke:none;stroke-width:0.99999994px;stroke-linecap:butt;stroke-linejoin:miter;stroke-opacity:1"
       d="m 396.84961,540.95703 c -2.52246,0.003 -2.38924,5.53867 -2.47852,12.36719 -0.0254,1.94687 -0.26116,18.37283 -0.44531,31.35351 -4.85765,0.83912 -4.87054,5.95425 -0.0996,6.97071 -0.46055,32.41229 -1.01758,71.67578 -1.01758,71.67578 l -2.67968,0.26758 c -0.80356,-2.41074 -7.4986,-1.78569 -6.96289,2.5 -15.08927,7.58929 -22.1437,21.24917 -18.57227,42.67773 -26.42858,11.78574 -64.2863,9.46403 -91.96484,10.89258 -27.67857,1.42859 -102.94861,7.63617 -147.90039,20.51562 -44.951817,12.87946 21.21289,0 21.21289,0 0.50506,7.82869 8.333,8.83903 9.5957,-1.76757 17.17258,-3.03047 37.37544,-5.05179 54.04297,-6.31446 1.01015,7.32359 9.09196,9.59697 9.84961,-0.25195 14.89972,-0.5051 21.46484,-0.25195 21.46484,-0.25195 -0.50491,13.13197 -0.75644,16.66662 -0.50391,21.46484 0.25248,4.79822 1.26229,6.8178 6.06055,7.07031 4.79819,0.25248 44.95119,0 50.00195,0 5.05074,0 6.81836,-7.07031 6.81836,-7.07031 v 27.27344 h 3.03125 v 6.81836 l 1.25391,4.68357 -0.63476,2.36719 c -0.30124,-0.14608 -0.63571,-0.23438 -0.99415,-0.23438 h -5.76757 c -1.26441,0 -2.28321,1.01684 -2.28321,2.28125 v 22.31055 c 0,1.26441 1.0188,2.2832 2.28321,2.2832 h 5.76757 c 1.26441,0 2.28321,-1.01879 2.28321,-2.2832 v -7.41602 h 3.77344 v 7.41602 c -1e-5,1.26441 1.01879,2.2832 2.2832,2.2832 h 5.76758 c 1.26441,0 2.2832,-1.01879 2.2832,-2.2832 v -22.31055 c 0,-1.26441 -1.01879,-2.28125 -2.2832,-2.28125 h -5.76758 c -0.25986,0 -0.50594,0.0516 -0.73828,0.13086 L 312.80469,791.39256 314,786.92969 v -27.30664 l 45.58789,-23.73828 c 6.31347,4.04058 20.45508,4.54492 20.45508,4.54492 1.01015,12.37436 0.50623,10.60763 2.02148,11.36523 1.51521,0.75761 3.0295,-0.50587 3.78711,2.01953 0.75761,2.52537 5.55664,16.79297 5.55664,16.79297 l 2.91797,1.26367 v 10.08789 h -8.03515 v 3.48243 h 5.26757 l 2.76758,2.76757 v 10.45701 c -0.3262,-0.25669 -0.73249,-0.41602 -1.18164,-0.41602 h -4.84765 c -1.06277,0 -1.91797,0.85519 -1.91797,1.91797 v 18.75195 c 0,1.06278 0.8552,1.91993 1.91797,1.91993 h 4.84765 c 1.06278,0 1.91797,-0.85715 1.91797,-1.91993 v -7.49414 h 1.78711 V 591.61719 c 5.6e-4,-2.1e-4 0.001,2e-4 0.002,0 v 219.80856 h 1.78711 v 7.49414 c 0,1.06278 0.85519,1.91993 1.91797,1.91993 h 4.84766 c 1.06277,0 1.91797,-0.85715 1.91797,-1.91993 v -18.75195 c 0,-1.06278 -0.8552,-1.91797 -1.91797,-1.91797 h -4.84766 c -0.44915,0 -0.85544,0.15933 -1.18164,0.41602 v -10.45701 l 2.76758,-2.76757 h 5.26758 v -3.48243 H 399.375 v -10.08789 l 2.91797,-1.26367 c 0,0 4.79903,-14.2676 5.55664,-16.79297 0.75761,-2.5254 2.2719,-1.26192 3.78711,-2.01953 1.51525,-0.7576 1.01133,1.00913 2.02148,-11.36523 0,0 14.14161,-0.50434 20.45508,-4.54492 l 45.58789,23.73828 v 27.30664 l 1.19531,4.46287 -0.7246,2.70312 c -0.23234,-0.0793 -0.47843,-0.13086 -0.73829,-0.13086 h -5.76757 c -1.26441,0 -2.28321,1.01684 -2.28321,2.28125 v 22.31055 c 0,1.26441 1.0188,2.2832 2.28321,2.2832 h 5.76757 c 1.26441,0 2.28321,-1.01879 2.28321,-2.2832 v -7.41602 h 3.77343 v 7.41602 c 0,1.26441 1.0188,2.2832 2.28321,2.2832 h 5.76758 c 1.26441,0 2.2832,-1.01879 2.2832,-2.2832 v -22.31055 c 0,-1.26441 -1.01879,-2.28125 -2.2832,-2.28125 h -5.76758 c -0.35844,0 -0.6929,0.0883 -0.99414,0.23438 l -0.63477,-2.36719 1.25391,-4.68357 v -6.81836 h 3.03125 v -27.27344 c 0,0 1.76762,7.07031 6.81836,7.07031 5.05077,0 45.20376,0.25248 50.00195,0 4.79826,-0.25251 5.80807,-2.27209 6.06055,-7.07031 0.25254,-4.79822 10e-4,-8.33287 -0.50391,-21.46484 0,0 6.56512,-0.25315 21.46484,0.25195 0.75765,9.84892 8.83946,7.57554 9.84961,0.25195 16.66753,1.26267 36.87039,3.28399 54.04297,6.31446 1.2627,10.6066 9.09065,9.59626 9.59571,1.76757 0,0 66.1647,12.87946 21.21289,0 -44.95178,-12.87945 -120.22182,-19.08703 -147.90039,-20.51562 -27.67854,-1.42855 -65.53627,0.89316 -91.96485,-10.89258 3.57143,-21.42856 -3.48299,-35.08844 -18.57226,-42.67773 0.53571,-4.28569 -6.15933,-4.91074 -6.96289,-2.5 l -2.67969,-0.26758 c 0,0 -0.24834,-17.5744 -0.38477,-27.13672 5.61446,-0.70816 5.61554,-6.64209 -0.10156,-7.14062 -0.44108,-30.92589 -1.01477,-71.02072 -1.07617,-75.72266 -0.0893,-6.82852 0.0439,-12.3642 -2.47852,-12.36719 v 45.84961 c -4.7e-4,-8.2e-4 -0.001,-10e-4 -0.002,-0.002 z m -82.5918,191.76953 20.07617,1.26367 c 0,7.82869 1.89476,7.82762 5.17774,8.45899 l -25.25391,13.13281 z m 165.18555,0 v 22.85547 l -25.25391,-13.13281 c 3.28298,-0.63137 5.17774,-0.6303 5.17774,-8.45899 z"
       id="path823"
       inkscape:connector-curvature="0"
       transform="scale(0.26458333)"
       sodipodi:nodetypes="cccccccccscccccccsccccccssssssscccssssssccccccccccccccccsssssssccccccsssssssccccccccccccccccsssssssccsssssssccccccscccccccscccccccccccccccccccccc" />
  </g>
</svg>
