<?xml version="1.0" encoding="UTF-8" standalone="no"?>
<!-- Created with Inkscape (http://www.inkscape.org/) -->

<svg
   xmlns:dc="http://purl.org/dc/elements/1.1/"
   xmlns:cc="http://creativecommons.org/ns#"
   xmlns:rdf="http://www.w3.org/1999/02/22-rdf-syntax-ns#"
   xmlns:svg="http://www.w3.org/2000/svg"
   xmlns="http://www.w3.org/2000/svg"
   xmlns:sodipodi="http://sodipodi.sourceforge.net/DTD/sodipodi-0.dtd"
   xmlns:inkscape="http://www.inkscape.org/namespaces/inkscape"
   width="314.27274mm"
   height="281.49612mm"
   viewBox="0 0 314.27274 281.49612"
   version="1.1"
   id="svg8"
   inkscape:version="0.92.4 (5da689c313, 2019-01-14)"
   sodipodi:docname="Statue_of_Liberty-front.svg">
  <defs
     id="defs2" />
  <sodipodi:namedview
     id="base"
     pagecolor="#ffffff"
     bordercolor="#666666"
     borderopacity="1.0"
     inkscape:pageopacity="0.0"
     inkscape:pageshadow="2"
     inkscape:zoom="0.35"
     inkscape:cx="428.96435"
     inkscape:cy="286.49419"
     inkscape:document-units="mm"
     inkscape:current-layer="layer1"
     showgrid="false"
     inkscape:pagecheckerboard="true"
     inkscape:showpageshadow="false"
     borderlayer="true"
     inkscape:snap-global="false"
     fit-margin-top="0"
     fit-margin-left="0"
     fit-margin-right="0"
     fit-margin-bottom="0"
     inkscape:window-width="1366"
     inkscape:window-height="713"
     inkscape:window-x="0"
     inkscape:window-y="0"
     inkscape:window-maximized="1" />
  <metadata
     id="metadata5">
    <rdf:RDF>
      <cc:Work
         rdf:about="">
        <dc:format>image/svg+xml</dc:format>
        <dc:type
           rdf:resource="http://purl.org/dc/dcmitype/StillImage" />
        <dc:title></dc:title>
      </cc:Work>
    </rdf:RDF>
  </metadata>
  <g
     inkscape:label="Layer 1"
     inkscape:groupmode="layer"
     id="layer1"
     transform="translate(59.342408,-8.5243105)">
    <path
       style="fill:#ffffff;fill-opacity:1;stroke:none;stroke:none;stroke-width:0.28966686px;stroke-linecap:butt;stroke-linejoin:miter;stroke-opacity:1"
       d="m 85.54082,8.528153 c -0.224028,0.042005 -0.139741,0.4062126 -0.139741,0.4062126 0,0 8.1e-5,-0.1095842 -0.402252,-0.182739 -0.402335,-0.073152 -1.64635,1.2797394 -1.64635,1.2797394 0,0 -0.438773,-0.6947195 -0.914261,-0.5849916 -0.475489,0.1097278 0.402254,0.8774866 0.402254,0.8774866 0,0 -0.43886,0.47589 -1.243531,1.536593 -0.804672,1.060703 0.731522,2.450287 0.731522,2.450287 v 1.938845 c -2.26771,0.182879 -2.816333,0.512009 -2.816333,0.512009 0,0 -0.136894,-0.04753 -0.365478,-0.182739 -0.548635,-0.329185 -1.207068,-0.695454 -0.951035,-0.512575 0.256031,0.182881 1.097001,0.987809 1.097001,0.987809 v 1.938279 h -0.803374 v 0.61724 l 0.291364,0.07807 c 0,0 0.03647,8.6e-5 0.292497,0.32927 0.256031,0.329184 0.292755,0.475123 1.280305,0.76773 -0.07315,0.804673 0.255949,2.048407 1.133773,2.743349 -0.512061,0.109728 -1.243444,1.280194 -0.182739,1.572801 -0.512064,0.182878 -0.548693,1.170466 0.512009,1.572801 0,0 -0.256175,0.109732 -0.548782,0.731522 -0.292607,0.621791 0.695032,2.450571 1.060792,2.81633 0.365756,0.365762 0.311166,0.896157 0.311166,0.896157 l -0.317391,0.316823 0.233092,0.233092 -0.263643,0.456 v 0.877488 h 0.293061 l 0.402252,1.463043 c 3e-6,0 -0.18302,0.329131 0.182739,1.243531 -0.07315,1.097279 -0.219477,8.449143 0.621767,10.460822 0.841248,2.011678 0.658402,3.07223 0.84128,5.193637 -1.060702,0.877824 -1.865585,3.292282 -2.962864,6.035479 -1.097278,2.743198 0.03669,4.608369 0.439028,5.705647 0.40233,1.097276 0.841367,0.84117 1.902069,1.133774 1.060702,0.292607 -0.03632,0.987871 -0.475233,1.938844 -0.438915,0.950977 0.145853,1.316487 0.43846,1.206758 0.292604,-0.109728 0.658679,-0.365759 0.475801,0 -0.182881,0.36576 0.548698,1.170608 0.951034,1.39006 0.402336,0.219457 0.658398,0.548368 0.109758,1.828522 -0.548641,1.280162 -0.475769,1.462962 0.365475,1.865298 0,0 -0.585272,0.475517 -0.219512,0.84128 -0.182881,0.256025 -0.292471,0.878081 -0.914261,1.719329 -0.62179,0.841248 1.462815,1.535915 1.316513,1.828522 -0.146305,0.292607 0.804822,1.609349 1.280307,1.463044 0.475485,-0.146302 -0.255863,1.426902 0.658537,3.109394 -1.572766,1.536191 -1.682756,3.877015 -2.450851,5.632663 -0.768095,1.755648 -1.499223,4.8276 -0.657975,6.290638 0.841244,1.463035 2.926087,0.841276 2.926087,0.841276 l 0.03621,2.487631 c 0,-3e-6 -1.207125,2.523218 -1.902068,4.498316 -0.694943,1.97511 -0.329157,3.25529 0.109755,3.65761 0.438914,0.40234 0.475772,0.54898 0.366046,1.31708 -0.109729,0.7681 0.329212,3.2916 0.841276,3.40133 -0.219457,0.76809 0.03666,3.98691 0.329271,4.82816 0.29261,0.84124 0.25572,3.62083 0.25572,3.62083 0,0 0.0368,-0.21945 -0.584991,1.46305 -0.621793,1.68249 -0.841189,3.73085 0.219516,3.98688 -0.804672,0.54863 -0.512096,1.90182 -0.84128,3.10882 -0.329183,1.20701 -0.475433,2.56068 -0.512009,5.70621 -0.03658,3.14554 0.69489,4.7915 0.512009,5.23042 -0.182881,0.4389 -0.36595,0.4386 -0.03678,0.98724 0.329186,0.54864 -0.03649,0.58537 -0.402252,1.28031 -0.365759,0.69494 -0.329125,1.71896 0.219516,2.48705 0.548638,0.76811 0.365588,1.64587 -0.65854,4.16962 -1.024126,2.52373 -3.275727,4.59281 -3.275727,4.59281 h -2.637551 v 4.18999 l -2.470091,0.99969 0.349072,1.30236 h 0.293062 l 1.000255,1.73235 v 3.62083 l -1.189784,1.18979 v 2.89667 h -3.672886 v -0.98272 h -1.913383 v 10.03481 h 3.258752 v 3.67232 h -0.811296 v 1.1796 l 0.811296,0.21725 -0.362084,15.41458 -0.983285,0.98272 v 1.13773 h 0.931235 l -0.661367,10.51174 -0.60932,0.60932 v 1.52471 l -1.211848,0.69984 v 1.44833 h -0.672684 v 0.98272 l -2.379568,1.96544 v 3.3108 l 1.293317,1.8619 c -0.53474,1.4784 -0.819563,3.11299 -0.258551,5.27624 l -1.60335,1.49981 -0.983286,10.66563 H 55.55464 v 3.18238 l -0.328704,0.3287 v 5.85218 H 28.67163 v 3.80414 h -0.512009 v 9.21729 H -49.67421 l -9.668198,1.90207 v 26.77325 H 254.93032 v -27.65131 l -10.97283,-0.9697 h -76.53203 v -9.93127 h -0.5171 v -3.20671 h -24.9436 v -6.3721 l -0.35076,-0.0939 v -3.23725 h -11.40734 l -1.23165,-10.21642 -1.23221,-1.23165 c 0.643,-1.74239 0.59809,-3.63766 0,-5.65586 l 1.00082,-1.73293 v -3.18181 l -1.60957,-1.60957 -0.12787,-1.77365 -0.34737,-0.34737 -0.25629,-1.46248 -0.50805,-0.29362 v -1.13095 l -0.95499,-0.55105 -0.36548,-10.97283 0.3287,-0.32927 v -0.65853 h -0.43846 l -0.52728,-16.06973 0.91765,-0.91822 v -1.11228 h -0.9697 v -4.20243 l 1.02175,-1.02175 h 0.55331 v -1.89302 l 0.32588,-0.56406 0.15501,-1.60335 v -4.24147 h -1.93941 v 0.87918 h -2.80727 v -2.90855 l -1.15188,-1.15188 v -3.59594 l 0.83562,-1.4472 v -0.31909 l 0.43393,-0.25006 v -1.26729 h -2.06953 v -4.68107 h -0.62063 c 0,0 -0.0514,-0.10361 -0.129,-0.38811 -0.0776,-0.28449 -0.25879,-0.20714 -0.38811,-0.49164 -0.12931,-0.28449 -0.75019,-0.46505 -0.75019,-0.46505 0,0 0.0519,-0.0781 0.20707,-0.25911 0.15518,-0.18105 -0.18128,-2.19796 -0.49164,-4.91359 -0.31037,-2.71563 -0.41357,-7.60376 -0.41357,-7.60376 0,0 1.34495,-0.67285 1.37082,-1.60391 0.0259,-0.93108 -0.51709,-7.81026 -0.51709,-7.81026 l 0.43959,-0.20707 c 0,0 -0.23294,-0.80175 -0.20707,-1.44833 0,-0.10345 0.80168,-0.25864 0.80168,-0.72417 0,-0.46554 -0.23253,-3.36228 -0.23253,-3.36228 l 0.62063,-0.41357 c 0.31036,-0.20691 0.41357,-0.38804 0.23253,-0.8277 0,0 0.28466,-0.23301 0.20707,-0.67269 -0.0776,-0.43967 -0.64666,-4.88812 -0.64666,-4.88812 0,0 0.38786,-1.11204 0.0775,-2.79314 -0.31036,-1.68109 -1.16376,-9.6467 -1.16376,-9.6467 0,0 0.362,-0.6726 0.80167,-0.93123 0.43968,-0.25863 1.44842,0.28466 2.095,-0.69814 0.64657,-0.9828 1.78455,-4.164368 2.1725,-9.207674 0,0 1.13814,2.4e-4 2.19852,-0.594611 1.06039,-0.594854 3.15531,-4.034807 3.25876,-4.371027 0.10345,-0.336219 1.0085,-1.499654 1.06022,-1.654835 0.0517,-0.155177 -0.5689,-1.112358 -1.16376,-1.758935 l 1.5779,-2.664142 -0.54313,-0.33606 1.0342,-1.0342 -0.90521,-0.646659 -7.0346,-3.672886 -0.54313,1.396852 -0.46561,-0.414134 -2.27604,3.362285 -0.75019,-0.439592 v -0.517099 c 0,-3e-6 -0.43927,-0.181129 -0.74963,-0.284578 -0.31035,-0.103454 -1.11252,-1.060143 -1.78496,-1.499817 -0.36208,-0.85348 -0.41356,-1.215888 -1.13773,-2.224551 0.18104,-0.387945 -0.1808,-1.706964 -0.77565,-3.801878 -0.59485,-2.094912 -0.90529,-2.379405 -1.55187,-2.715627 -0.0259,-0.646577 -0.69847,-1.034606 -1.11228,-1.370826 -0.4138,-0.336228 -1.18994,-0.206587 -1.21581,-0.310033 -0.0259,-0.103455 -0.0773,-0.465863 -0.31003,-0.414134 -0.23277,0.05173 -0.49156,-0.206906 -0.20706,-0.362083 0.28449,-0.155178 0.0777,-0.775972 -0.62064,-0.8277 l -1.55187,-4.551504 c 0,0 0.8277,-0.698303 0.8277,-0.905209 0,-0.206904 -1.07719,-4.510206 -1.07719,-4.510206 0,0 0.38409,-0.01802 0.89615,-0.365476 0,0 -0.5175,-0.685294 -0.67268,-1.616364 0,0 0.31035,-0.724087 0.36208,-1.706886 l 7.96584,-0.568584 -7.96584,-0.672685 c 0,0 -0.10337,-0.724326 -0.25855,-1.293316 l 7.08666,-2.844619 -7.44874,1.758368 c 0,0 -0.51718,-0.827294 -1.3448,-1.396284 l 4.44853,-5.224753 -5.79333,4.500586 c 0,0 -0.46562,-0.362177 -2.27604,-0.465617 l -0.98272,-6.62104 -0.50861,6.549753 c 0,0 -0.731413,-0.146331 -2.487064,0.621767 l -6.108463,-4.425342 c 0,0 3.65807,4.169509 4.682195,5.193638 -0.9144,0.365759 -1.207322,1.390062 -1.207322,1.390062 0,0 -4.937888,-0.182902 -5.559681,-0.109758 0.109728,-1.097278 -0.402171,-4.426023 -0.804507,-6.327976 -0.402335,-1.90195 -1.426693,-5.047318 -1.609574,-7.278445 -0.182878,-2.231133 0.292662,-3.804062 0.219515,-5.669439 -0.07315,-1.865373 -0.695003,-2.816077 -0.951037,-3.291566 -0.256031,-0.475488 -0.840712,-0.65854 -0.840712,-0.65854 v -1.536026 c 0,0 0.292213,-0.07304 0.657973,-0.292496 0.365759,-0.219456 0.219793,-0.548927 -0.145963,-1.097566 2.56031,-0.07315 2.636985,-1.412126 2.636985,-1.412126 l 0.32531,-0.08769 v -0.621768 h -0.548218 v -2.121017 c 0,0 0.507119,-0.400355 0.932365,-0.65854 0.512064,-0.310895 -0.384122,0.07327 -1.005915,0.439026 -0.25603,-0.07315 -1.791865,-0.402252 -2.962295,-0.402252 v -1.90207 c 0,0 0.475152,-0.328988 0.877487,-0.694748 0.402333,-0.36576 1.134171,-2.889541 0.475801,-3.035845 0,0 -1.41e-4,-0.9509814 0.18274,-1.4630441 0.182878,-0.5120641 -0.365992,-0.5120928 -0.878053,-0.1097568 0.03658,-0.2560319 -0.256008,-0.438854 -0.621767,-0.5120088 -0.04572,-0.00915 -0.08398,-0.00996 -0.11598,-0.00396 z m 4.102859,39.359621 4.718404,0.658537 c 0,0 -0.07335,0.621715 -0.03678,1.133777 l -3.181808,0.329267 c 0,0 -0.219373,-0.36613 -0.402252,-0.695313 -0.182877,-0.329184 -1.097564,-0.255837 -1.097564,-1.426268 z m 2.048038,3.072051 c 0,0 1.207329,0.03678 2.670366,0.03678 0.548641,0.731519 0.694746,2.011826 0.694746,2.011826 0,0 0.146473,0.03666 -0.07298,0.32927 -0.219452,0.292607 -0.511955,0.767646 -0.292494,1.169982 0.219445,0.402336 0.255634,0.438915 -0.07355,0.731522 -0.329183,0.292607 -0.365394,1.024639 -0.76773,1.244096 -0.402336,0.219455 -0.950863,-0.293004 -1.024019,-0.805068 -0.07315,-0.512065 -0.512316,-0.584907 -0.256285,-0.987246 0.256027,-0.402333 0.109699,-1.682698 -0.109758,-2.231339 -0.219455,-0.548637 -0.365959,-0.21966 -0.768295,-1.499819 z m 13.240943,10.64356 c 0.10973,0.36576 0.43858,1.170918 0.87749,1.134342 -0.0366,0.402335 0.54878,1.389497 0.54878,1.389497 0,0 -0.18263,-0.03644 -0.47523,-0.182739 -0.29261,-0.146305 -0.6586,0.255891 -0.87806,0.182739 -0.21944,-0.07315 -0.32901,-1.572865 -0.073,-2.523839 z"
       id="path826"
       inkscape:connector-curvature="0"
       sodipodi:nodetypes="ccccscsccccccccccsccccscccccccccccscccccccccscccssccscccsccccscccccccccccccccccccccccccccccccccccccccccccccccccccccccccccccccccccccccccccccccccccccccccccccccccccccccccsccscccccscccsccccscsccccccccccccscccscccccccsccccccccccccccccccccscccccscccccccccccccccccccccccccccsccccccccccc" />
  </g>
</svg>
