<?xml version="1.0" encoding="UTF-8" standalone="no"?>
<!-- Created with Inkscape (http://www.inkscape.org/) -->

<svg
   xmlns:dc="http://purl.org/dc/elements/1.1/"
   xmlns:cc="http://creativecommons.org/ns#"
   xmlns:rdf="http://www.w3.org/1999/02/22-rdf-syntax-ns#"
   xmlns:svg="http://www.w3.org/2000/svg"
   xmlns="http://www.w3.org/2000/svg"
   xmlns:sodipodi="http://sodipodi.sourceforge.net/DTD/sodipodi-0.dtd"
   xmlns:inkscape="http://www.inkscape.org/namespaces/inkscape"
   width="1950.2303"
   height="2242.8052"
   viewBox="0 0 515.99843 593.40888"
   version="1.1"
   id="svg8"
   inkscape:version="0.92.4 (5da689c313, 2019-01-14)"
   sodipodi:docname="Hercules-Corona Borealis Great Wall.svg"
   inkscape:export-filename="G:\Pictures\My Pictures\Vectors and SVGs\Space\Hercules-Corona Borealis Great Wall.png"
   inkscape:export-xdpi="96"
   inkscape:export-ydpi="96">
  <defs
     id="defs2">
    <inkscape:path-effect
       effect="simplify"
       id="path-effect840"
       is_visible="true"
       steps="20"
       threshold="0.002"
       smooth_angles="0"
       helper_size="5"
       simplify_individual_paths="false"
       simplify_just_coalesce="false" />
  </defs>
  <sodipodi:namedview
     id="base"
     pagecolor="#505050"
     bordercolor="#666666"
     borderopacity="1.0"
     inkscape:pageopacity="0"
     inkscape:pageshadow="2"
     inkscape:zoom="0.16"
     inkscape:cx="531.26103"
     inkscape:cy="960.71273"
     inkscape:document-units="mm"
     inkscape:current-layer="layer1"
     showgrid="false"
     inkscape:pagecheckerboard="true"
     inkscape:showpageshadow="false"
     borderlayer="true"
     units="px"
     inkscape:snap-object-midpoints="true"
     inkscape:window-width="1600"
     inkscape:window-height="837"
     inkscape:window-x="-8"
     inkscape:window-y="-8"
     inkscape:window-maximized="1"
     inkscape:snap-page="true"
     inkscape:snap-global="false"
     fit-margin-top="0"
     fit-margin-left="0"
     fit-margin-right="0"
     fit-margin-bottom="0" />
  <metadata
     id="metadata5">
    <rdf:RDF>
      <cc:Work
         rdf:about="">
        <dc:format>image/svg+xml</dc:format>
        <dc:type
           rdf:resource="http://purl.org/dc/dcmitype/StillImage" />
        <dc:title></dc:title>
      </cc:Work>
    </rdf:RDF>
  </metadata>
  <g
     inkscape:label="Layer 1"
     inkscape:groupmode="layer"
     id="layer1"
     transform="translate(-73.777899,414.79495)">
    <path
       style="fill:#ffffff;fill-opacity:1;stroke:none;stroke-width:1.17403746"
       d="m 523.23267,-414.79482 c -0.30396,-0.007 -0.66575,0.2685 -1.12398,0.9586 -5.39004,4.81158 -11.75107,-2.0325 -16.59848,-0.18913 -0.0357,6.44096 3.44938,12.52348 5.86166,18.41437 2.5831,6.5455 -6.43519,-0.65859 -5.4007,5.50458 2.02126,7.91635 -6.00874,9.0192 -11.83698,8.72298 -7.71482,2.91541 -9.97553,13.19596 -6.85903,20.26336 5.54212,8.76398 7.07329,19.79106 4.12946,29.74289 -4.01334,7.29027 1.35112,15.84264 7.59542,19.97346 4.93678,0.69513 10.32589,2.38832 11.91606,8.28063 1.19068,-0.69457 1.91339,-2.00043 2.10839,-3.3383 -0.0791,-8.18103 -10.78913,-10.31939 -13.07206,-17.63871 -2.16146,-9.2207 0.18706,-18.66347 -0.063,-27.98693 2.28282,-6.46655 -5.46235,-14.1169 0.5488,-19.03449 7.20137,-4.03364 16.28217,1.11352 23.0296,-4.4664 6.90636,-4.15861 12.98479,-12.35885 21.92168,-11.16211 5.8688,0.92527 1.50775,-4.42327 -1.85674,-3.89485 -8.45021,1.99534 -6.18099,-8.13959 -0.70797,-10.10429 6.30258,-5.76833 -5.67812,-3.97978 -8.76433,-5.66374 2.36784,-3.26073 -1.81147,-10.21724 -4.91442,-4.0442 -4.31951,4.0053 -4.27207,-4.29811 -5.91333,-4.33772 z m -33.56695,1.80609 c -2.00246,0.0446 -3.50682,1.07362 -3.11196,3.62769 -5.1109,-1.50573 -10.11047,1.1376 -14.60014,3.28765 -3.40608,2.79139 -13.06386,1.40637 -10.18594,8.04189 6.0792,7.66202 -3.64371,13.93417 -10.90528,11.91969 -7.49623,-1.42937 -3.1192,9.56251 -10.00973,8.1411 -3.60189,-3.97795 -8.75371,-8.01431 -14.46888,-4.16822 -6.48312,4.41367 -13.58499,8.04008 -19.6696,13.03073 0.0137,3.2689 3.43124,8.80466 2.51716,13.51494 3.35115,6.02138 5.54408,13.61647 8.87439,20.09386 5.12725,4.69877 13.68467,3.35202 18.418,8.90798 2.8443,4.11408 -1.20776,12.38556 6.00429,14.19655 8.03813,1.32294 16.79019,2.5124 23.03993,8.27082 5.86583,4.37514 5.3518,12.33595 9.00307,18.04282 4.15689,6.38999 16.46092,-4.04112 18.94044,6.19756 0.63322,8.57682 -13.11971,-3.0231 -12.5615,5.9955 2.33139,8.20628 13.03261,7.30691 17.36069,13.72526 h -5e-4 c 3.34457,4.29063 5.67391,-2.55351 8.95914,-2.87941 5.95132,2.52122 4.96027,-3.88879 7.19645,-6.85126 4.38314,0.77311 12.59253,-1.81774 8.62066,-7.82588 -4.68062,-5.27918 -11.11211,0.9199 -13.82808,5.23947 -1.49601,3.97583 -9.28598,11.10083 -10.10327,3.59358 7.5987,-1.86199 9.10145,-10.08774 14.36967,-14.77016 5.46765,-0.60189 14.47237,-2.06631 12.38219,-10.00662 -1.53191,-7.50202 -7.39699,-2.90253 -11.35589,-1.06041 -5.36491,-3.1277 -10.60247,-9.58115 -18.09089,-7.19077 -9.79316,-1.2336 -8.61044,12.12584 -16.57057,13.47308 -9.28492,-1.81457 2.20477,-9.73278 0.091,-14.83889 -3.40628,-4.14019 -9.38804,-4.89606 -13.30823,-8.52403 -7.68196,-6.84694 3.43998,-12.55878 9.94461,-11.54606 6.98538,-0.32222 11.60623,-7.60435 9.92859,-14.16244 -1.60518,-6.68925 -0.28659,-13.90081 -3.6437,-20.14658 -1.80443,-3.59095 -7.34064,-13.55384 -10.92905,-8.30802 3.78946,8.25832 -6.86507,13.67706 -13.33511,8.71782 -6.78322,-3.69191 -1.46175,-10.02896 4.23592,-10.43658 8.09154,-0.79639 2.4285,-10.91127 9.14311,-12.63592 9.25631,3.79303 7.3389,-9.53789 0.20464,-10.56007 -5.67504,-4.15219 7.55751,-3.95313 7.76439,0.99994 -1.50527,8.43776 7.08076,5.1329 10.38644,1.18287 4.10443,2.22331 12.45857,0.65367 11.97084,-6.1681 2.16619,-5.43828 -4.36272,-6.99968 -6.3531,-2.26756 -5.26587,3.75551 -4.19846,-5.79378 -0.79478,-7.61142 5.6919,-3.67364 -1.12398,-8.34049 -5.52937,-8.2424 z m -77.82006,74.61715 c -5.51855,2.44461 8.16871,12.32168 1.05058,16.86874 1.63754,0.76018 3.59131,0.4419 5.07721,-0.50333 8.43335,-5.45688 -1.37113,-12.71525 -6.12779,-16.36541 z m 19.63188,13.57333 c -4.0392,-0.0303 -0.30245,10.66373 3.86126,12.26747 -1.18955,-3.66628 0.48011,-7.74598 -1.22163,-11.30422 -1.10959,-0.66612 -1.97868,-0.95828 -2.63963,-0.96325 z m 136.87278,68.04288 c -1.54043,-0.0409 -3.45551,4.92952 -4.40852,6.49521 2.71325,3.03892 5.72971,-1.51437 5.86992,-4.08554 -0.39598,-1.72433 -0.90422,-2.39486 -1.4614,-2.40967 z m -20.15123,1.22111 c -5.3749,0.15621 -0.71085,7.27161 3.62149,6.057 5.77707,-0.72776 1.27645,-6.58902 -2.40967,-5.99085 -0.45064,-0.056 -0.85349,-0.0766 -1.21182,-0.0661 z m 29.22252,6.65799 c -2.70116,0.0965 -7.0866,2.71841 -7.78558,5.28185 -2.41739,8.52009 -4.90537,-3.8737 -9.09918,-1.7017 -4.23291,8.30721 -1.54291,19.14669 5.45494,25.10183 l 1.00047,0.0212 c 8.20457,3.45697 12.83454,-4.0627 11.46339,-11.67061 1.24021,-7.24868 8.92308,0.75652 4.06022,4.13102 -0.31906,4.494 7.69099,-0.75767 7.04503,-4.71289 2.28254,-7.51698 -14.4187,-5.38137 -10.25673,-13.33873 0.75229,-2.31865 -0.26188,-3.16985 -1.88256,-3.11196 z m -19.11305,1.76062 c -2.10156,-0.0588 -6.228,3.43052 -1.69191,4.30827 0.64411,2.10016 2.63123,-0.24028 2.2991,-1.45005 0.88514,-2.07152 0.34806,-2.83149 -0.60719,-2.85822 z m -7.0771,11.0386 c -1.00717,0.0839 -2.47264,4.77811 -1.24849,6.63475 2.30859,7.03948 6.47816,14.70676 14.30766,16.6796 3.84672,-0.31703 1.76953,-4.855 -0.28371,-6.01308 -6.88716,-1.33165 -11.6218,-8.05757 -11.99256,-14.83577 -0.0652,-1.82534 -0.38878,-2.4983 -0.7829,-2.4655 z m 28.28303,22.533 c -2.2125,0.0518 -4.82026,1.67064 -2.25309,4.36304 0.34991,2.0692 2.99038,0.93125 3.35897,-0.50126 2.49073,-2.73346 0.84635,-3.9075 -1.10588,-3.86178 z m -240.96978,22.18624 c -3.5538,-0.0274 -7.1654,1.04492 -10.0335,3.02824 -6.23276,-0.34888 -12.85992,12.53794 -3.32641,11.89334 2.40975,-1.29765 4.76324,-2.70013 7.2161,-3.91708 4.38941,-5.75717 15.32505,1.46952 16.83721,-6.39651 -2.7127,-3.13317 -6.66576,-4.57692 -10.6934,-4.60799 z m 12.14241,11.92382 c -2.2137,-0.0354 -5.57204,1.6963 -6.05544,3.99614 -1.38936,2.27478 -5.14631,11.06148 -6.88124,5.194 3.51545,-2.75484 2.78843,-8.4437 -2.53059,-6.86935 -8.40071,3.19559 -17.37995,4.77859 -25.62893,8.41706 -6.78731,1.38155 -11.18316,7.89411 -11.84579,14.5097 -2.5365,6.62503 10.98726,2.3292 8.94623,10.13013 -3.4888,7.85061 6.45483,17.77119 14.11076,13.0979 6.57527,3.82209 4.32142,14.51788 11.96568,17.23927 5.15042,2.01772 5.21454,-2.2752 2.11408,-4.80591 -6.06369,-4.90342 -3.55571,-14.68017 2.28565,-18.64744 5.58845,-3.06687 12.83271,-7.6577 19.13268,-3.85247 2.92443,5.14729 9.35966,6.99374 12.71551,0.83508 2.12112,-8.10498 10.66986,-1.1235 14.60737,-7.17269 1.77944,-6.25719 -6.39425,-0.3252 -6.34431,-6.39702 1.86865,-7.63447 -1.50828,-15.42084 -6.59598,-21.04006 -3.39726,-5.12842 -10.98595,-3.72269 -14.67249,0.28784 -6.09205,3.41407 1.9903,9.38987 -2.42053,11.23341 -9.43239,0.56822 -7.29745,-10.69456 -1.02267,-13.9242 0.36419,-1.5526 -0.55177,-2.21012 -1.87999,-2.23139 z m 143.70544,13.88547 c -4.21598,-0.15222 -7.22535,9.5785 -0.94827,11.50678 4.865,6.08134 -4.08308,11.19232 -6.58409,16.19332 1.87064,1.98485 4.03374,-0.0572 4.79352,-1.96162 0.0667,-6.96008 11.96634,-6.25348 10.33166,-12.65402 -5.47626,-0.6197 -5.67912,-6.22019 -4.26744,-10.7487 -1.09767,-1.61602 -2.25073,-2.29698 -3.32538,-2.33576 z m -93.91675,0.12917 c -1.67036,0.0357 -3.57983,1.22166 -4.78213,3.82923 -3.86528,3.51459 -6.77444,11.72403 0.25683,14.50713 4.26848,-0.28408 8.99581,-3.83765 13.91077,-3.84267 3.27302,-2.11231 10.01894,4.08389 10.88254,0.30956 -4.47525,-2.18326 -6.10644,-14.82582 -12.65659,-8.87286 1.4882,4.30766 -4.12823,3.76008 -4.77387,0.43874 1.53411,-4.01593 -0.39625,-6.42123 -2.83755,-6.36913 z m 84.62739,7.07297 c -3.56376,0.19346 1.8627,10.31298 -2.9285,11.98943 6.68346,4.02839 12.15914,-6.49054 6.48074,-10.66291 -1.68593,-0.9792 -2.81259,-1.36668 -3.55224,-1.32652 z m -34.46508,11.8251 c -2.42926,-0.004 -4.68874,1.39782 -6.05596,4.34652 -1.5495,-1.46626 -5.94365,-1.62726 -9.12037,-0.19071 0.82549,-3.81876 -3.29538,-3.16553 -4.45348,-0.56118 -2.94069,6.54193 -4.61365,0.93025 -4.96145,-3.03083 -7.22689,0.99449 -5.04966,11.39719 -5.25756,16.85788 -2.2303,7.54787 -1.67829,15.54416 -0.29766,23.2115 -1.74072,6.680619 2.55646,11.793453 6.41822,16.872369 -5.29545,2.290206 -2.27666,12.411842 4.82812,11.775492 6.84453,4.817772 15.66836,7.175527 20.72587,14.258581 7.35835,4.439682 8.92252,13.786723 9.15448,21.688081 6.21687,-0.607139 0.7035,-10.663052 1.82108,-14.717448 3.67841,-7.385261 -2.64533,-13.351457 -10.06347,-12.731009 -7.82614,-3.194817 -0.85868,-15.05241 6.10196,-11.600338 4.60544,3.289987 13.47826,7.465853 17.10438,0.797374 0.28728,-7.577772 0.67769,-15.4795 2.77812,-23.014622 -2.2141,-6.85869 -3.45489,-14.11983 -7.01301,-20.47367 -2.21303,-7.51795 -10.4764,-8.36313 -15.48742,-13.01835 0.26211,-6.0589 8.96498,-0.41595 10.9678,2.82827 4.06199,8.47756 16.0154,0.0111 9.53895,-6.41356 -6.92448,-0.93871 -14.63572,-0.20327 -21.09225,-4.38991 -1.75486,-1.63766 -3.74692,-2.49129 -5.63635,-2.49444 z m -41.85842,2.04536 c -5.36397,0.069 -12.61626,2.2266 -18.15755,2.86907 -3.68869,6.37032 6.78421,6.34563 10.20196,8.78398 4.02577,7.20373 7.7909,15.17081 7.16752,23.64041 -2.06816,8.05932 4.40398,14.509143 9.60045,19.667513 0.35574,-0.131763 0.75324,-0.196586 1.09141,-0.360178 3.79704,-6.689672 -7.68667,-12.254815 -5.17282,-19.560035 2.74169,-5.82203 -0.94931,-12.0097 -4.91753,-16.22796 -8.83976,-6.06954 4.07821,-11.77385 3.55431,-18.4826 -0.99245,-0.25087 -2.12992,-0.3461 -3.36775,-0.3302 z m 126.57057,8.46254 c -2.77855,-0.0401 -4.89712,6.61646 -5.44206,9.40613 3.28157,-1.80817 6.49235,-4.98825 6.67091,-8.94829 -0.42121,-0.30986 -0.83193,-0.45212 -1.22885,-0.45784 z m -121.02931,2.30992 c -2.08934,-0.0104 -5.973,6.99506 -1.0728,8.29511 1.58109,-1.08413 2.04606,-3.12764 2.13527,-4.92839 0.21433,-2.44147 -0.30675,-3.36296 -1.06247,-3.36672 z m -63.8514,0.39481 c -5.92822,0.11623 -11.56545,3.55023 -15.99282,7.34735 7.04971,0.24902 16.07116,0.0296 20.13211,-6.86157 -1.38774,-0.36293 -2.77124,-0.51258 -4.13929,-0.48578 z m -33.91472,3.76412 c -0.5097,0.008 -1.05673,0.0834 -1.63866,0.2372 -5.24177,-0.15145 -12.00639,6.35347 -6.64869,10.82051 3.23493,1.19853 5.24393,-2.94886 7.83931,-3.00445 7.31931,1.04762 6.46246,-8.15171 0.44804,-8.05326 z m 165.53769,1.92805 c -3.25739,-0.0574 -7.12993,2.81606 -3.44165,6.37479 7.0598,4.72075 4.81398,14.20008 7.40627,21.15788 5.42081,6.37736 6.86308,15.186345 12.54342,21.386299 3.90969,-3.015747 0.88852,-14.341289 8.58345,-12.158424 -1.0409,4.294214 4.62616,2.821305 6.20996,0.710036 3.42651,-3.823732 13.81715,-10.097801 6.32055,-15.089531 -7.48321,-0.15486 -13.71283,7.224977 -21.36667,4.55734 -8.09283,-4.40394 -9.85255,-14.16034 -13.05139,-21.9847 0.96537,-3.50311 -0.97519,-4.9144 -3.20394,-4.95369 z m -131.29586,9.66555 c -4.03568,-0.0445 -9.87071,7.21569 -6.2885,11.40758 2.98706,-2.71523 8.2321,-3.68749 9.43095,-8.00107 -0.45822,-2.4184 -1.68273,-3.3904 -3.14245,-3.40651 z m 180.77244,5.71179 c -1.79994,0.009 -3.07078,1.13263 -3.02514,4.17547 3.27249,6.64721 -2.89235,12.770514 -8.03,16.184538 -0.22905,5.524024 1.24235,14.034797 0.21341,20.832313 3.28811,4.21087 4.94697,16.331723 -3.94756,14.203785 -6.48192,-5.497274 -15.49971,-6.894194 -21.55991,-12.955799 -3.5596,-3.801057 -11.81367,-9.916477 -15.02907,-2.567781 -0.82178,6.790743 -6.8014,7.233206 -10.76678,2.424139 -7.24293,2.195116 -0.74763,10.081207 3.80958,11.959987 1.57423,5.577496 -8.84588,11.378088 -3.00912,17.793732 4.05668,6.993625 -6.54233,4.303051 -8.66148,0.629417 -3.63071,-5.459915 -8.03561,0.680746 -4.74132,4.670001 4.02037,5.140855 7.05246,11.541681 6.30246,18.247466 0.0534,4.893522 -5.8222,9.7784178 -0.0842,13.6193211 4.86958,1.4738085 -1.72592,9.0202543 3.91087,7.2548749 3.3073,2.9798169 -6.60593,12.609909 0.20206,16.627925 8.50032,2.239089 14.57122,8.992684 20.99149,14.539145 l 1.01491,-0.884688 c 4.95366,-6.671019 12.55488,-6.020144 19.89336,-4.892198 3.01443,-7.017676 -8.21036,-4.326996 -10.78227,-8.34988 3.42585,-5.226526 13.32367,3.68644 18.72856,-1.109504 -2.54948,-4.724532 7.74065,-10.8281253 8.00314,-3.834897 3.42529,-3.836299 -1.37965,-8.4327203 -4.66744,-10.3394401 -7.13269,-2.5348406 -7.8495,-12.189354 -4.30826,-17.9394639 3.73137,-5.400781 10.67787,-8.599197 10.46035,-16.269282 -0.51027,-8.565277 7.5347,-12.485873 11.02001,-19.004015 2.82567,-8.410337 -9.61628,-8.17118 -10.3663,-0.799942 -0.16415,7.858046 -3.91215,14.990287 -6.34794,22.314906 0.096,9.08214 -13.31132,7.27067 -12.26023,-1.170464 2.09264,-7.352427 6.07912,-14.015164 8.01812,-21.420402 5.44637,-3.634184 9.37929,-11.723185 16.21089,-14.351053 2.9216,6.816805 11.7844,-3.542321 14.87921,2.568311 -2.99027,6.817095 7.54689,3.162591 4.81468,-1.684655 -5.70836,-7.200424 3.03365,-16.194643 -1.54358,-23.645574 -2.84703,-7.783751 -9.93672,-12.681241 -17.78029,-12.852453 1.41573,-3.11026 11.84357,-0.937683 9.04904,-7.42953 -1.81084,-2.51343 -7.175,-6.56079 -10.61122,-6.54431 z m 29.34033,14.289064 c -3.32052,0.05315 -6.9837,6.880728 -2.65255,9.741006 2.78505,8.800544 -7.88535,15.495138 -5.163,24.29465 0.90397,1.205971 2.36659,1.880764 3.84008,2.032423 7.96242,1.244495 2.12929,-6.679882 1.84743,-10.685144 0.0625,-7.558458 8.51201,-13.77323 5.36919,-21.690145 -0.69499,-2.697295 -1.94183,-3.713586 -3.24115,-3.69279 z m -39.64048,87.470112 c -0.76015,-0.0218 -1.59452,0.162718 -2.49338,0.6061601 -0.7588,3.1145691 0.28199,9.9715636 3.30573,13.0679294 0.22267,-0.2535238 0.4455,-0.5071269 0.66818,-0.7606771 5.51066,-2.48922641 3.8405,-12.7608804 -1.48053,-12.9134124 z M 307.7161,-8.7519177 c -1.34241,-0.0095 -2.66594,0.1431661 -3.8964,0.4557977 -10.01249,3.9416302 7.23157,7.96686866 5.65081,14.059085 -1.40021,7.000716 4.46089,-0.2091002 5.83686,-2.3709047 5.69063,3.9452549 -2.63465,8.2702137 -3.32693,12.5165377 1.08802,6.739784 8.91015,9.16141 11.10268,15.316385 -0.56271,6.389079 2.69065,11.59383 5.2927,17.19326 4.16211,6.83133 -7.23295,15.432907 -10.4774,6.938592 1.59674,-6.610747 2.08599,-15.325884 -5.28856,-18.954909 -3.4398,-4.899078 -6.95643,-10.130393 -12.33517,-13.082402 -6.48253,-2.917375 -13.93888,-3.309355 -20.91035,-2.136828 -6.60311,1.532573 -13.47594,0.596054 -20.01945,2.369873 -7.08527,1.633194 -14.41888,5.136489 -21.74389,3.086656 -4.64961,-3.967189 -13.52541,5.882507 -13.72939,-2.929017 2.08058,-5.119476 -7.7029,-10.399818 -6.23683,-3.133672 -0.003,6.310445 5.60667,12.766913 -0.0114,18.075381 -8.8531,5.649224 -1.72574,-9.128178 -8.67337,-9.655731 -3.00751,4.012433 -7.75313,11.318954 -14.82959,9.49915 -5.18549,-3.366082 -8.6462,0.271251 -5.0462,5.354717 -1.60746,5.999983 -9.66053,-0.574675 -11.22516,-4.245742 -4.38195,-7.804547 -12.67791,0.770625 -8.55865,6.8952 3.99951,3.97346 -2.5436,2.105581 -3.7145,5.847688 -0.67093,6.996351 1.60412,14.655615 2.05259,21.923216 2.66683,8.618009 12.20398,2.577889 17.01705,-0.470244 6.49553,-4.28535 15.14901,7.394655 19.88664,-1.53326 3.39563,-5.000969 9.09507,-11.059504 15.7303,-8.394303 5.40501,3.400213 11.25407,6.038876 16.94522,8.942599 4.624,2.267321 9.67567,10.287926 14.01155,2.794662 2.92985,-7.211034 -10.32416,-3.172831 -6.90965,-10.672736 4.88856,-5.252879 11.82012,4.136601 18.03249,3.478344 8.40458,-0.694848 14.65033,4.11443 19.59673,10.452603 8.96907,0.543295 2.71383,14.255591 -3.21272,7.911121 -3.18806,-6.816116 -11.06739,-8.755248 -17.85318,-9.834536 -4.94605,2.629323 3.90634,8.716618 8.12716,8.343159 7.98389,1.484709 11.0069,10.500069 15.99747,15.950456 0.18757,7.39463 11.24758,2.18565 6.23425,-2.76521 -9.16726,-2.415964 5.69461,-10.170319 4.82451,-1.8991 3.9418,7.05141 -3.28644,13.90769 -2.1978,21.12325 h 5.2e-4 c 2.83406,2.50854 4.4715,-3.03607 7.01197,-3.87056 4.74836,-5.21264 9.84946,-3.21178 15.89877,-3.1776 2.58277,3.28091 5.91602,2.75508 7.39645,-1.45777 4.65203,-2.98368 9.87507,-5.96091 9.93066,-12.631793 2.30986,-6.784895 12.99672,-12.572021 6.42596,-20.682981 -5.09997,-5.272564 -2.2598,2.905363 -4.90668,5.066347 -9.01594,3.033713 -8.08327,-8.62203 -8.01501,-14.22445 -4.84526,-3.689985 1.23788,-7.248128 4.4235,-3.589946 6.60704,0.597244 1.10077,-9.995005 0.83148,-13.98262 0.61776,-6.269328 2.75005,-12.548632 1.6738,-18.921836 -0.0919,-6.157568 -4.05982,-10.450009 -10.46655,-9.135374 C 315.79653,17.925755 320.99017,7.143455 320.23317,0.65476053 319.70815,-5.6271356 313.53323,-8.7107221 307.7161,-8.7519177 Z M 296.53539,3.030322 c -1.29932,-0.011668 -2.64586,0.4631002 -3.92018,1.5952522 -8.95355,5.1395312 1.57276,10.2046618 5.81205,13.9567708 1.80684,-0.263499 3.26835,-1.645126 4.01371,-3.257682 3.56275,-4.714902 -0.80826,-12.2485946 -5.90558,-12.294341 z m -35.43608,10.429346 c -2.09627,0.0079 -4.42786,0.569939 -5.70715,1.568873 -5.09669,-2.853743 -18.01908,0.287576 -13.31856,8.249629 2.50444,0.411004 1.4603,-2.669858 1.78645,-4.02971 5.38819,0.679423 13.97004,3.828521 19.79983,-0.664554 3.77331,-3.611298 0.93321,-5.137468 -2.56057,-5.124238 z M 91.63782,140.23744 c -5.142706,3.26993 -10.855658,13.46515 -5.809467,19.37092 -1.309462,7.69683 10.113674,11.13999 7.765418,19.00555 l 0.219109,-0.17931 0.267166,-0.2186 c 4.265149,-0.66815 8.792384,-3.64752 7.540104,-8.78705 4.35213,-5.37959 -0.81152,-11.43656 -1.45159,-17.30076 4.55064,-4.95253 6.3351,5.6906 4.96921,9.26094 -2.33339,6.01578 5.79517,8.50596 7.03988,2.14715 -0.82664,-6.73457 -0.38337,-14.34642 -2.8391,-20.87779 -4.52147,-2.67026 -11.950107,-2.11458 -17.70073,-2.42105 z m -13.102561,13.27828 c -3.223956,0.0258 -7.631885,5.11825 -2.185913,3.9367 5.940139,5.60436 3.940125,15.70437 10.701673,20.71863 0.02183,-0.234 0.0438,-0.46776 0.06563,-0.70176 -1.941586,-7.09676 -0.59812,-15.70278 -6.07043,-21.45657 -0.333952,-1.85306 -1.344846,-2.50634 -2.51096,-2.497 z"
       id="path1835"
       inkscape:connector-curvature="0" />
  </g>
</svg>
