<?xml version="1.0" encoding="UTF-8" standalone="no"?>
<svg
   width="3e3"
   height="3e3"
   version="1.1"
   viewBox="0 0 793.75 793.75"
   id="svg3"
   sodipodi:docname="nowstream-aroundtheworld.svg"
   xml:space="preserve"
   inkscape:version="1.3 (0e150ed, 2023-07-21)"
   xmlns:inkscape="http://www.inkscape.org/namespaces/inkscape"
   xmlns:sodipodi="http://sodipodi.sourceforge.net/DTD/sodipodi-0.dtd"
   xmlns="http://www.w3.org/2000/svg"
   xmlns:svg="http://www.w3.org/2000/svg"><defs
     id="defs3"><filter
       inkscape:collect="always"
       style="color-interpolation-filters:sRGB"
       id="filter11"
       x="-0.040278557"
       y="-0.040281618"
       width="1.0805571"
       height="1.0805632"><feGaussianBlur
         inkscape:collect="always"
         stdDeviation="13.128394"
         id="feGaussianBlur11" /></filter></defs><sodipodi:namedview
     id="namedview3"
     pagecolor="#505050"
     bordercolor="#ffffff"
     borderopacity="1"
     inkscape:showpageshadow="0"
     inkscape:pageopacity="0"
     inkscape:pagecheckerboard="1"
     inkscape:deskcolor="#505050"
     showguides="true"
     inkscape:zoom="0.22627417"
     inkscape:cx="2227.3864"
     inkscape:cy="804.33396"
     inkscape:current-layer="svg3" /><path
     id="circle1"
     style="fill:#003a8f;fill-opacity:1;stroke:none;stroke-width:0.870484;paint-order:normal"
     d="M 396.88173,57.904072 C 209.68044,57.904065 57.923808,209.6607 57.923818,396.86199 c -1.1e-5,187.20129 151.756622,338.95793 338.957912,338.95792 187.20129,10e-6 338.95793,-151.75663 338.95792,-338.95792 -0.027,-88.56704 -29.97459,-166.48996 -97.33443,-235.35196 -24.687,1.45857 -44.59812,2.66486 -69.28511,4.12363 -0.6868,-11.60436 -1.37332,-23.20904 -2.06012,-34.81341 13.14823,-0.77771 21.52032,-1.30289 34.66856,-2.08047 C 537.04461,78.097976 472.48439,57.941105 396.88173,57.904072 Z"
     sodipodi:nodetypes="csscccccc" /><path
     d="m 396.87848,57.906499 c -28.37683,0.09093 -56.6293,3.744885 -84.09409,10.876059 -3.46391,1.792869 -8.23737,4.177872 -12.44817,6.203934 -12.53501,6.03189 -20.16941,10.3544 -23.58633,13.355375 -2.84552,2.498432 -5.52313,7.675632 -4.86121,9.399984 0.73935,1.926699 3.41761,1.015679 18.54385,-6.308496 7.58398,-3.672106 15.83931,-7.157659 18.35984,-7.752327 2.51871,-0.594345 7.11598,-1.725803 10.21599,-2.514094 3.10001,-0.788292 9.75766,-2.05743 14.79529,-2.820409 5.03763,-0.763004 9.79336,-1.574718 10.56836,-1.80381 3.43465,-1.015311 11.74503,-4.945966 17.02518,-8.051964 7.05148,-4.148162 10.02137,-5.182036 20.0858,-6.994367 10.31801,-1.85791 17.31307,-1.768871 28.06131,0.357169 13.70845,2.711932 17.41371,2.249925 14.98161,-1.867238 -0.1424,-0.241091 -0.26539,-0.481699 -0.37246,-0.715236 -9.0688,-0.821088 -18.16707,-1.276393 -27.27363,-1.364788 z M 276.99609,79.964702 c -3.48325,1.377961 -6.94324,2.8135 -10.37882,4.306157 0.0322,0.0056 0.0652,0.01022 0.0949,0.01798 2.5065,0.655493 6.6466,-0.988549 9.78553,-3.886528 0.15557,-0.143623 0.32402,-0.289986 0.49842,-0.437686 z m -16.61545,7.096857 c -3.3248,1.424598 -6.62655,2.9024 -9.90391,4.432598 -0.67693,1.31497 1.33139,0.951377 5.1627,-1.035049 2.49474,-1.293459 4.53554,-2.608982 4.53554,-2.922437 0,-0.141578 0.0745,-0.30254 0.20558,-0.475021 z m 5.36697,617.099951 c -0.46499,0.0302 -0.6401,0.48815 -0.6401,1.32925 0,1.14665 1.47425,3.00189 3.74972,5.01068 4.19445,1.62645 8.42116,3.1691 12.67711,4.62745 -1.81206,-0.83509 -3.19974,-1.56781 -4.0975,-2.17718 -1.16252,-0.78906 -4.05144,-3.11635 -6.41951,-5.17212 -2.91507,-2.53068 -4.49478,-3.66843 -5.26978,-3.61799 z m 247.72439,6.57336 -6.3412,0.0967 c -4.82252,0.0735 -9.68211,0.88076 -20.29263,3.3697 -15.9814,3.7488 -21.86289,4.70713 -39.77962,6.48285 l -12.86871,1.27571 -9.67729,-1.62298 -9.67727,-1.62343 -9.5117,1.55866 c -7.72975,1.26675 -11.20102,1.48577 -18.53165,1.16866 -10.27748,-0.4446 -10.96035,-0.28746 -19.51439,4.5033 -3.29371,1.84465 -7.41515,3.74904 -9.15908,4.23153 -3.66152,1.01301 -4.61224,1.63751 -3.63872,2.64308 14.05922,1.8826 28.22253,2.88075 42.40749,2.98877 39.88556,-0.0876 79.44178,-7.21409 116.84917,-21.05151 0.0254,-0.37931 0.002,-0.83428 -0.0468,-1.41383 z"
     fill="#ffffff"
     style="stroke-width:0.230313;paint-order:normal"
     id="path1" /><path
     id="path2"
     style="fill:#5bc412;fill-opacity:1;stroke:none;stroke-width:0.230313;paint-order:normal"
     d="m 445.78118,72.861841 -0.007,4.85e-4 c -0.49577,-0.0047 -0.94833,0.0037 -1.35209,0.0253 -6.76521,0.362281 -10.63562,2.445676 -17.22993,9.273981 -2.93487,3.038973 -7.79804,7.269683 -10.80707,9.401456 -3.00904,2.131796 -5.78263,4.459153 -6.16449,5.17243 -1.33683,2.497967 -0.77122,4.976787 1.70095,7.448967 2.72068,2.72068 5.45555,3.10826 9.00006,1.27522 1.8245,-0.94347 2.317,-0.96997 3.12263,-0.16445 2.22484,2.22487 2.73966,12.0597 0.76143,14.54615 -1.17896,1.48179 -5.53303,3.5048 -20.00126,9.29393 -13.63357,5.45496 -20.93806,9.21513 -22.10897,11.38169 -0.44116,0.81623 -0.10026,2.32473 1.1137,4.93257 2.10976,4.53185 2.19253,6.56403 0.38826,9.52308 -2.09656,3.43834 -3.79936,4.01352 -12.02635,4.05728 -6.89003,0.0368 -7.7374,0.20014 -12.0424,2.31886 -7.95913,3.91716 -13.80322,10.20084 -15.04876,16.18045 -0.62276,2.98991 1.57775,7.95107 4.42558,9.97898 5.2311,3.72484 11.50805,5.98991 17.46785,6.30267 5.02795,0.2639 6.25903,0.0793 9.54352,-1.43044 5.45956,-2.50949 7.62685,-4.61921 13.28309,-12.92888 6.00356,-8.81982 10.63225,-12.7789 18.50272,-15.82479 8.15582,-3.15643 14.1689,-4.37812 22.00874,-4.47278 6.69841,-0.0809 7.25374,0.028 11.27269,2.21377 2.32501,1.26448 8.19005,5.81483 13.03398,10.11131 11.70449,10.38226 14.26485,11.61942 16.61542,8.03185 1.07188,-1.63589 1.05637,-1.92562 -0.22478,-4.40321 -0.75428,-1.45876 -4.03701,-4.91079 -7.29571,-7.67131 -3.25845,-2.7603 -5.92461,-5.45545 -5.92461,-5.98886 0,-1.3671 3.94718,-1.60621 6.79844,-0.41161 3.82435,1.60242 6.62149,4.39669 13.82267,13.80564 10.26388,13.41087 16.9803,19.39553 20.32628,18.11153 0.97569,-0.37441 1.08831,-1.09756 0.69381,-4.45429 -0.25906,-2.20402 -0.65281,-4.73078 -0.87481,-5.61518 -0.59017,-2.3515 1.50954,-2.89224 3.85244,-0.99207 4.39897,3.56754 13.50588,7.1455 28.89283,11.35055 16.86579,4.60947 22.0402,6.63944 25.12455,9.85783 1.72585,1.80139 1.91288,2.43888 1.61775,5.51009 -0.64038,6.66456 -4.49525,9.58894 -15.52653,11.77968 -5.51046,1.09435 -6.36076,1.10845 -8.77673,0.14644 -7.66988,-3.05393 -30.71004,-8.27364 -36.52084,-8.27364 -4.54935,0 -5.9616,1.16189 -5.9616,4.90434 0,1.59998 -0.54636,3.3639 -1.3482,4.35309 -1.13527,1.40074 -1.97113,1.65714 -5.29797,1.62554 -3.3013,-0.0314 -5.01917,-0.59178 -10.45384,-3.41212 -20.13669,-10.45043 -27.23871,-15.3186 -32.94815,-22.58334 -2.97427,-3.78473 -4.23548,-4.79182 -7.58422,-6.056 -7.68623,-2.90147 -22.93357,-1.83396 -42.37102,2.96743 -7.56785,1.86928 -10.25099,2.1978 -18.51829,2.26728 l -9.6676,0.0812 -4.77541,4.63773 c -2.62648,2.55048 -9.21357,8.55709 -14.63859,13.34828 -13.73399,12.12941 -25.61063,24.29117 -29.63188,30.33689 -8.15215,12.26252 -15.37709,29.7982 -17.24793,41.85966 -1.23564,7.96788 -0.947,19.87511 0.6437,26.55693 5.12721,21.53883 18.88144,43.43049 33.00605,52.53245 10.90576,7.02752 22.14134,6.82886 54.44797,-0.9614 16.56408,-3.99432 23.11891,-5.20601 28.15815,-5.20601 h 4.75157 l 3.47488,3.69869 c 1.91102,2.03444 4.36025,4.87238 5.44295,6.30608 2.33722,3.09517 6.93036,5.4955 10.51564,5.4955 4.27828,0 4.93992,1.78326 5.56799,15.02199 0.74358,15.67691 1.32863,17.37162 8.72759,25.2817 5.05951,5.4082 6.6278,7.70748 10.17944,14.92664 6.94116,14.10755 9.48013,26.35245 7.03491,33.92512 -0.49563,1.53493 -3.1579,7.70541 -5.91635,13.71173 -4.9075,10.68604 -5.01447,11.04175 -4.99144,16.55703 0.0223,5.3223 0.27319,6.22558 4.50344,16.20479 6.25367,14.75289 7.72825,19.43154 8.55001,27.11937 1.68655,15.77757 6.33232,36.62914 9.72598,43.65598 2.53803,5.25573 4.18174,6.25912 11.63857,7.10644 10.52666,1.19609 24.73568,-0.85723 32.23926,-4.65963 4.84601,-2.45558 7.10543,-4.62478 21.59761,-20.73399 13.6854,-15.21261 19.66068,-21.08003 24.68034,-24.23808 4.00905,-2.52099 4.79309,-4.70454 5.25417,-14.62594 0.62473,-13.43736 1.91723,-15.18795 16.8548,-22.82856 9.11278,-4.6613 12.53717,-7.5377 15.02247,-12.61701 3.69606,-7.55472 3.69606,-17.70345 0,-30.45171 -2.87315,-9.91035 -3.62343,-16.79072 -2.60154,-23.85808 1.52226,-10.52851 4.97696,-16.48479 20.77341,-35.81584 19.89923,-24.35325 20.26525,-25.03278 25.16883,-46.79271 3.31373,-14.70776 4.35143,-25.21682 2.55775,-25.90546 -0.66084,-0.25358 -4.05937,0.92032 -8.03135,2.77475 -16.07534,7.50519 -19.78374,6.43511 -29.88294,-8.6225 -6.58279,-9.81545 -8.2904,-11.9794 -15.08232,-19.11332 -6.60399,-6.93678 -8.69848,-10.33001 -15.85982,-25.69576 -2.88444,-6.18895 -6.4754,-13.16397 -7.98026,-15.50026 -2.95952,-4.5945 -13.20878,-17.27591 -16.20283,-20.04749 -1.0149,-0.93944 -1.84595,-2.10478 -1.84595,-2.59035 0,-1.12338 3.37121,-3.80378 4.78418,-3.80378 1.8076,0 10.80813,9.89762 19.81151,21.78589 4.71012,6.2196 15.10722,21.06197 23.10297,32.98271 19.91444,29.68958 21.66859,31.89138 25.40335,31.89138 5.39943,0 15.85127,-9.11376 23.29612,-20.31363 6.91145,-10.39861 12.81808,-23.58622 12.80288,-28.5863 -0.0193,-6.34119 -8.28082,-14.32172 -24.42734,-23.59779 -9.8401,-5.65301 -11.49894,-6.84798 -11.49894,-8.28191 0,-2.92498 13.20406,0.93872 28.05207,8.20894 17.71587,8.67426 30.44494,18.45179 37.36353,28.70161 9.76732,14.47031 19.07736,36.65179 26.91698,64.12578 1.46731,5.14264 2.6003,7.92626 3.22675,7.92626 0.53106,0 0.96578,-0.31699 0.96578,-0.70451 0,-0.3875 0.31702,-0.70501 0.70452,-0.70501 0.3875,0 0.70499,0.84659 0.70499,1.88049 0,3.49475 1.54853,10.80221 2.28919,10.80221 0.48457,0 0.58315,-1.74359 0.28852,-5.1087 -0.073,-0.83294 -0.15372,-1.61549 -0.24084,-2.35242 l -0.0219,-0.18051 c -0.63351,-5.23063 -1.63333,-7.99704 -3.02045,-8.35977 -0.92491,-0.24188 -1.29054,-0.97951 -1.26939,-2.56164 0.0315,-2.37039 -1.66757,-12.06675 -5.01868,-28.64372 -0.79284,-3.92176 -1.58183,-8.99162 -2.24637,-13.95208 -16.071,-52.80971 -41.93459,-95.11857 -82.75221,-136.82436 -24.55631,1.45083 -44.3367,2.64983 -68.89299,4.10088 -0.6868,-11.60436 -1.37332,-23.20905 -2.06013,-34.81342 12.96425,-0.76682 21.15237,-1.28095 34.11663,-2.04765 -32.9013,-25.66175 -60.9059,-41.19925 -98.3034,-53.560752 -0.37935,0.432342 -1.95105,0.89854 -3.71572,1.079151 -2.44523,0.250257 -4.21705,0.948097 -5.81126,2.289667 -3.11498,2.621187 -7.50087,2.581951 -15.4881,-0.138178 -7.59341,-2.585949 -24.7402,-5.510394 -32.17698,-5.580638 z m -92.28199,10.267013 c -0.97919,0.01134 -2.06307,0.09649 -3.21993,0.260787 -2.0961,0.297656 -5.30564,0.564303 -7.13271,0.592608 -2.61083,0.04042 -3.48959,0.365287 -4.10545,1.516066 -0.99849,1.865716 -0.43467,3.327678 1.59878,4.144367 2.2643,0.909412 3.22815,0.869546 7.97005,-0.329876 7.16042,-1.81127 10.28632,-3.193888 10.04564,-4.443104 -0.22054,-1.145206 -2.21871,-1.774889 -5.15638,-1.740848 z M 235.26116,99.28692 c -47.15417,25.49559 -87.58777,61.81143 -117.98211,105.96696 2.64721,-2.99453 5.8834,-6.78201 7.84452,-9.19614 13.97237,-17.19813 21.20706,-24.65242 25.65002,-26.43043 1.62389,-0.64976 4.25003,-2.82496 6.50848,-5.39041 4.42476,-5.0268 7.40097,-6.529 15.01371,-7.57692 8.73,-1.20172 12.47641,-3.58941 12.47641,-7.95107 0,-3.65667 1.38298,-6.13286 5.43662,-9.73425 4.14448,-3.68201 9.55881,-6.31049 13.01695,-6.31969 4.88239,-0.0129 3.94826,1.48525 -4.57009,7.33218 -2.21089,1.51755 -4.01981,3.14056 -4.01981,3.60625 0,0.46578 1.85004,1.36574 4.11128,2.00018 6.51116,1.82693 7.91696,1.01374 11.86336,-6.86122 2.27199,-4.5337 4.64923,-7.93833 8.0406,-11.51645 5.13803,-5.4211 7.2738,-8.89261 8.06492,-13.1094 0.39179,-2.08836 1.64961,-3.69849 6.16498,-7.89317 3.11981,-2.89849 5.29175,-5.27023 4.82699,-5.27023 -0.46478,0 -2.45122,0.81415 -4.41441,1.80897 -1.96318,0.99481 -3.73172,1.64706 -3.9298,1.44892 -0.19812,-0.19814 2.37011,-2.34592 5.70666,-4.77249 0.0667,-0.0485 0.12506,-0.0936 0.19072,-0.14159 z m 144.27486,4.47424 c -3.30752,0 -4.85725,0.90299 -5.90955,3.44326 -0.696,1.6803 -0.68025,2.46418 0.0798,4.01349 1.01636,2.07198 1.6351,2.5189 5.69984,4.11566 4.43582,1.74267 3.57056,3.86628 -3.1343,7.69223 -1.82062,1.03892 -3.48494,2.17137 -3.69822,2.5164 -0.21319,0.34496 0.79549,1.32441 2.24102,2.17728 l 2.6283,1.55109 -1.57299,1.27328 c -2.94892,2.38788 -1.75923,2.70228 3.71232,0.98087 1.93753,-0.60955 5.97636,-1.18264 8.97573,-1.27279 4.62881,-0.1391 5.72128,-0.41451 7.22223,-1.82453 2.23691,-2.10138 2.23901,-3.34502 0.008,-4.36185 -0.96826,-0.44117 -2.5625,-2.17018 -3.54203,-3.84174 -1.05527,-1.80068 -3.03873,-3.77629 -4.86833,-4.8484 -1.69819,-0.99522 -3.2741,-2.29448 -3.50165,-2.88762 -0.47037,-1.22575 0.69412,-3.79503 1.71993,-3.79503 0.37389,0 0.67921,-0.47551 0.67921,-1.05677 0,-0.70458 -0.70442,-1.05677 -2.11354,-1.05677 -1.64395,0 -2.11354,-0.31304 -2.11354,-1.40903 0,-1.14567 -0.4695,-1.40903 -2.51201,-1.40903 z m -10.28308,10.56916 c -1.67199,0.003 -3.62475,0.78341 -5.64437,2.32129 -1.67704,1.27711 -3.45564,3.1645 -3.95218,4.194 -0.4967,1.02949 -1.68585,2.48719 -2.64241,3.2394 -2.14735,1.68911 -2.18405,2.5346 -0.17272,3.94342 2.02482,1.41827 1.99144,1.42345 5.20502,-0.79452 1.50721,-1.0403 4.00875,-2.07057 5.55874,-2.28967 2.5019,-0.35365 2.84427,-0.6361 3.05063,-2.51251 0.1279,-1.16253 0.89324,-2.82308 1.70094,-3.6909 1.42331,-1.5292 1.42921,-1.62184 0.18684,-2.99467 -0.85963,-0.94986 -1.99008,-1.41759 -3.29049,-1.41584 z M 84.332844,265.78362 c -0.758673,2.01832 -1.49812,4.04391 -2.218147,6.07642 0.09161,2.45766 -0.06614,4.7204 -0.481676,6.10319 -0.452473,1.50565 -0.348931,1.93692 0.464648,1.93692 0.575827,0 1.368508,-0.39575 1.761283,-0.88014 0.766549,-0.94537 1.078646,-9.98714 0.473892,-13.23639 z m 5.078041,13.84261 c -0.305196,-0.011 -0.635612,0.1303 -0.991573,0.42572 -1.813251,1.50489 -5.761907,7.80479 -5.330071,8.50379 0.562424,0.91004 6.302554,0.19339 7.69272,-0.96043 0.848126,-0.70391 1.013617,-1.62555 0.673861,-3.75027 -0.443602,-2.77403 -1.128675,-4.18534 -2.04445,-4.21881 z m -14.547126,45.36666 c -3.555796,0 -8.009433,14.70705 -11.627873,38.39791 -1.00619,6.58763 -2.45794,15.08954 -3.226262,18.89293 -1.193848,5.91074 -1.803961,12.66407 -1.909191,19.88205 0.05788,5.69864 0.259671,11.39526 0.604772,17.08397 0.128775,1.59058 0.278508,3.18897 0.445186,4.79195 0.278448,2.53067 0.585157,5.05802 0.920538,7.58179 3.605772,25.93549 11.789943,51.69634 21.882237,63.539 4.817908,5.65257 5.110025,6.28562 13.184321,28.52159 8.872093,24.43387 12.808143,33.88388 20.537433,49.31252 13.18309,26.31551 29.86729,50.20143 47.81785,69.1216 11.21185,10.7139 23.14613,20.64574 35.71658,29.72627 2.31349,1.42039 4.62455,2.74348 6.92837,3.95608 5.10188,2.68497 6.81791,3.05436 6.81791,1.46887 0,-0.34351 -2.16691,-1.7633 -4.81482,-3.15474 -6.26727,-3.29347 -14.86047,-10.21293 -20.32141,-16.36388 -2.39341,-2.69557 -7.43162,-9.31349 -11.19631,-14.70671 -3.76468,-5.39323 -8.22613,-11.34651 -9.91524,-13.22908 -4.00582,-4.46484 -4.27591,-7.28129 -1.26599,-13.22082 2.37269,-4.68225 2.18383,-6.66541 -1.11759,-11.7461 -4.0475,-6.22881 -4.161,-7.55188 -1.11418,-12.99992 3.28104,-5.86721 3.25334,-7.61697 -0.34349,-21.47695 -2.56568,-9.888 -2.84829,-11.77158 -2.56408,-17.10585 0.24477,-4.59381 0.73884,-6.81679 2.11353,-9.5119 2.47725,-4.8566 4.82912,-6.85732 11.84537,-10.07824 9.58238,-4.39897 10.82918,-6.88349 10.85037,-21.62096 0.008,-5.42501 -0.44278,-14.35381 -1.00033,-19.84217 -1.34983,-13.28742 -0.76414,-16.41086 5.59281,-29.82795 7.49344,-15.81671 9.28256,-24.38984 6.40873,-30.71882 -2.03622,-4.48372 -2.52798,-4.74214 -25.78334,-13.55458 -23.99164,-9.09183 -34.63451,-15.92152 -39.32136,-25.23743 -0.94366,-1.8756 -3.38113,-7.93032 -5.41571,-13.45435 -4.24926,-11.53728 -7.35531,-16.48463 -12.34941,-19.66848 -6.89164,-4.39368 -9.26174,-7.05714 -13.294276,-14.94074 -2.117747,-4.14009 -4.480625,-8.09783 -5.251251,-8.79522 -0.770488,-0.6973 -3.473131,-1.74075 -6.005877,-2.31837 -3.869021,-0.88251 -5.29065,-1.66158 -8.892046,-4.87516 -2.357709,-2.10377 -4.579525,-3.82519 -4.937431,-3.82519 z m -12.02927,16.66553 c -0.55404,3.32848 -1.05823,6.66522 -1.51266,10.00866 0.333954,0.84679 0.658615,1.50469 0.926377,1.79923 1.023001,1.1252 2.182292,-3.30829 1.873673,-7.16579 -0.165233,-2.06519 -0.573122,-3.54996 -1.28739,-4.6421 z M 646.67738,470.39409 c -0.76939,0.067 -2.17447,1.96843 -4.33655,5.83462 -3.67118,6.56482 -6.25241,9.18088 -11.82736,11.98839 -12.2867,6.18759 -13.23877,7.55548 -12.98289,18.64917 l 0.18489,8.00508 -2.97861,4.1434 c -3.7541,5.2228 -5.8286,10.7275 -6.33965,16.82365 -0.33877,4.04106 -0.19662,4.98739 0.93562,6.23845 1.09394,1.20879 1.93118,1.41748 4.6421,1.15699 1.81917,-0.1748 4.10372,-0.83901 5.0761,-1.47617 0.97242,-0.63716 3.70412,-4.56893 6.07058,-8.73781 6.48583,-11.42558 18.64848,-36.05791 20.31411,-41.13861 2.44178,-7.44946 3.21725,-16.45122 1.80362,-20.94807 -0.1195,-0.38012 -0.30584,-0.56103 -0.56196,-0.53909 z"
     sodipodi:nodetypes="cccsscsscscscscsscssscsscssssccssscccssssscsccccsccscccccscccscccscscscsssccscssccssccsssssccscssscsssssssscsscsccccccscsscsssssccscccccssccsscscscsssscssccsscccssscsccsssssscsccsssssscccssscsscsssscscccccccccccsscscssccssscscccsccsscscccccsccsscccssssscsc" /><path
     d="M 395.88814,57.941737 A 338.95126,338.95126 0 0 0 57.927224,396.84693 338.95126,338.95126 0 0 0 396.87848,735.79819 a 338.95126,338.95126 0 0 0 0.52315,-0.0185 C 329.22676,722.84057 267.14596,681.80597 222.22576,619.95548 177.07525,557.78947 152.22221,478.67704 152.13699,396.84233 152.16931,315.2241 176.84034,236.2798 221.7352,174.13912 266.34907,112.38767 328.04295,71.237691 395.89309,57.927918 Z"
     fill-opacity="0.31373"
     style="stroke-width:0.230313;paint-order:normal"
     id="path3" /><path
     id="path11"
     style="color:#000000;mix-blend-mode:normal;fill:#00adfd;fill-opacity:1;stroke-width:0.960001;-inkscape-stroke:none;filter:url(#filter11)"
     d="m 672.93116,674.45038 c -9.14492,9.11846 -18.82244,17.86757 -29.02797,26.2034 C 480.61474,834.02725 240.71009,813.89432 101.95017,655.17124 -36.809764,496.4482 -24.709813,256.00345 129.28311,111.99713 276.95607,-26.099105 504.32561,-27.972428 654.20838,103.56341 l -2.54077,-43.001749 -0.59916,-10.142743 20.28486,-1.198313 0.59948,10.142404 3.43882,58.206441 0.59949,10.14242 0.59916,10.14277 -10.14278,0.59916 -10.14207,0.59915 -58.20677,3.43916 -10.14243,0.59949 -1.19865,-20.28521 10.14277,-0.59914 44.75956,-2.64496 C 499.4639,-6.026112 283.59285,-4.4828231 143.16322,126.8398 -2.9850083,263.51016 -14.441257,491.16156 117.24887,641.7977 248.939,792.43383 476.07825,811.49538 631.04845,684.91624 786.01867,558.33707 812.69111,331.96246 691.38243,172.84677 l 16.15919,-12.31944 c 119.8323,157.17918 102.56191,377.14503 -34.61046,513.92305 z"
     inkscape:transform-center-x="0.0065719783"
     inkscape:transform-center-y="0.013120239"
     transform="matrix(0.94151669,0,0,0.94151669,23.596804,22.405951)" /><path
     id="path4"
     style="color:#000000;fill:#45a5ff;fill-opacity:1;stroke-width:0.903857;-inkscape-stroke:none"
     d="m 657.17272,657.41224 c -8.6101,8.58518 -17.72164,16.82261 -27.33032,24.67094 C 476.1036,807.65652 250.22937,788.70103 119.58459,639.26061 -11.060203,489.82022 0.33210221,263.43747 145.31901,127.85312 284.35556,-2.1667915 498.42778,-3.9305564 639.54491,119.91263 l -2.39218,-40.486865 -0.56412,-9.549561 19.09853,-1.128232 0.56442,9.549242 3.23771,54.802336 0.56443,9.54926 0.56412,9.54958 -9.5496,0.56412 -9.54892,0.56411 -54.80265,3.23803 -9.54927,0.56443 -1.12855,-19.09886 9.54959,-0.5641 42.14187,-2.49028 C 493.8504,16.732266 290.6042,18.185298 158.38736,141.82774 20.786369,270.50516 10.000119,484.84276 133.98857,626.66919 257.97702,768.49562 471.83242,786.44239 617.73945,667.26602 763.64649,548.08962 788.75904,334.95415 674.5449,185.14407 l 15.21414,-11.59896 c 112.82411,147.98682 96.56375,355.08834 -32.58632,483.86713 z"
     inkscape:transform-center-x="0.0065740205"
     inkscape:transform-center-y="0.013117966" /></svg>
