<?xml version='1.0' encoding='utf-8'?>
<svg xmlns="http://www.w3.org/2000/svg" width="1e3" height="3e3" version="1.1" viewBox="0 0 264.58 793.75"> <g transform="translate(0 496.75)"> <path d="m125.16 255.22c4.7422 15.735 5.8199 19.4 4.3111 21.771-1.5089 2.3711-22.418 7.5444-28.669 12.718-6.251 5.1733-16.167 5.6044-29.315 4.5266-13.149-1.0778-19.184-0.21552-19.831-2.1555-0.64666-1.94 0.21556-9.0532 1.5089-10.778 1.2933-1.7244 27.16-16.166 28.884-31.255 1.7244-15.089 43.111 5.1733 43.111 5.1733z" fill="#935439" style="paint-order:normal"/> <path d="m146.29-404.59c0.86221 29.746-2.1556 26.298 11.209 29.746 13.364 3.4489 56.044 17.675 61.217 21.124 5.1733 3.4488 18.969 32.333 24.573 59.062 5.6044 26.729 12.502 64.235 13.795 84.497 1.2933 20.262-1.7244 39.231-13.795 61.648-12.071 22.418-12.933 33.626-18.969 43.111-6.0355 9.4843-9.4844 15.951-9.4844 15.951l-31.04-6.4666s5.6044-5.6044-0.43111-3.88c-6.0355 1.7244-8.8195 8.277-16.441 10.258-7.621 1.9815-12.346-1.6766-3.9629-8.5355 8.3831-6.8589 14.785-12.041 23.32-16.309 8.5355-4.2677 10.212-5.0298 14.48-4.8774 4.2677 0.15242 11.127-8.6879 14.175-25.759 3.0484-17.071 9.7548-57.31 8.5354-68.893-1.2193-11.584-10.974-16.461-13.413-37.8-2.4387-21.339-18.9-46.945-18.9-46.945h-129.86s-8.5355 23.777-10.364 48.164c-1.829 24.387-12.803 38.41-11.584 45.116 1.2194 6.7064 12.528 84.025 19.426 90.491 6.8977 6.4666 10.778-0.86222 17.244 7.3288 6.4666 8.191 19.725 17.409 23.536 21.219 3.8105 3.8105 3.9629 13.413-8.8403 6.2492-12.803-7.1637-10.517-13.413-13.26-10.212-2.7435 3.2008-25.606 8.9927-25.606 8.9927s-3.6581-9.1452-12.346-19.814c-8.6879-10.669-8.3831-21.034-23.32-50.908-14.937-29.874-7.621-106.39-3.3532-146.32 4.2677-39.934 21.948-49.689 48.164-61.577 26.216-11.889 33.532-13.718 34.752-16.461 1.2193-2.7435-1.2194-21.034-1.2194-21.034z" fill="#f3a070" style="paint-order:normal"/> <path d="m150.38 247.24c0 18.106-1.2933 17.891 1.94 20.478 3.2333 2.5866 13.795 6.8977 16.598 12.071 2.8022 5.1733 0.21553 8.6221 7.1132 11.209 6.8977 2.5866 20.909 5.1733 30.393 3.0178 9.4843-2.1556 12.287-1.5089 11.64-5.6044-0.64668-4.0955 0.43111-7.3288-2.3711-10.778-2.8022-3.4488-18.538-17.029-21.986-30.609-3.4489-13.58-43.326 0.21556-43.326 0.21556z" fill="#935439" style="paint-order:normal"/> <path d="m150.13 261.78c-0.0435 3.8485 0.2926 4.4286 2.1885 5.9453 3.2333 2.5866 13.795 6.8977 16.598 12.071 2.8022 5.1733 0.21579 8.622 7.1135 11.209 6.8977 2.5866 20.908 5.1733 30.393 3.0178 9.4843-2.1556 12.287-1.5085 11.64-5.604-0.49678-3.1463 0.018-5.7842-0.9843-8.4014-8.2278 10.003-43.662 5.7172-45.575-1.0833-1.8412-6.5466-9.7046-12.51-21.373-17.154z" fill="#3c2a23" style="paint-order:normal"/> <path d="m181.24 241.05c-10.713-0.0266-24.849 4.2491-29.319 5.6913-0.0833 0.0266-0.13755 0.0436-0.21453 0.0683-0.77719 0.25223-1.3274 0.43558-1.3274 0.43558 0 1.0958-5e-3 2.1215-0.0129 3.0849-5e-5 6e-3 3e-5 0.0133 0 0.0195-8e-3 0.86084-0.0187 1.6578-0.0307 2.4242-1e-3 0.0844-2e-3 0.18366-3e-3 0.26701-0.20028 12.289-0.85508 12.408 1.9869 14.682 3.2333 2.5866 13.795 6.8977 16.598 12.071 2.8022 5.1733 0.21579 8.622 7.1135 11.209 4.0565 1.5212 10.573 3.0411 17.183 3.5977 2.3145-7.7443 0.24622-17.883-16.296-27.263-4.6008-4.152-5.1746-11.046-8.6236-15.945 2.3118-0.82085 4.8066-1.8125 7.5562-2.9405 6.7477-2.7683 13.865-0.57847 18.985 2.0169-0.45233-1.1426-0.83815-2.291-1.1299-3.4398-1.1317-4.4559-6.1852-5.9639-12.465-5.9795z" fill-opacity=".21212" style="paint-order:normal"/> <path d="m129.46 270.24c-3.5097 4.2759-14.725 6.02-20.035 8.2608-15.304 6.4583-22.885 6.1744-38.8 5.1735-5.2862-0.33246-13.422-0.4799-18.231-0.57349-0.82397 2.7935-1.2423 7.4634-0.73675 8.9802 0.64666 1.94 6.6817 1.0777 19.83 2.1554 13.149 1.0778 23.064 0.64668 29.315-4.5266 6.251-5.1733 27.16-10.346 28.669-12.718 0.8195-1.2878 0.86796-2.9748-0.0112-6.7522z" fill="#3c2a23" style="paint-order:normal"/> <path d="m90.301 244.46c-4.5359 0.0617-7.7924 1.5755-8.2505 5.5834-0.21375 1.8701-0.79889 3.7303-1.6615 5.5575 4.0497-3.1042 7.0828-3.4501 12.883-3.6313 2.5797-0.0806 6.0971 1.5178 10.282 3.4869-0.87161 3.4969-0.94971 6.9028-3.1804 11.508-4.6245 9.5474-30.926 4.645-30.647 27.134 0.57767 0.042 1.1544 0.0834 1.7623 0.1332 13.149 1.0778 23.064 0.64668 29.315-4.5266 6.251-5.1733 27.16-10.346 28.669-12.718 1.2382-1.9457 0.69483-4.8783-2.146-14.521-4e-3 -0.0133-0.01-0.0326-0.0135-0.046-0.61816-2.0975-1.3068-4.4014-2.1513-7.2037 0 0-0.53535-0.25943-1.4075-0.66604-0.0597-0.0278-0.0776-0.036-0.14087-0.0655-0.42945-0.19963-0.93499-0.43046-1.5218-0.69547-0.0544-0.0245-0.0977-0.0446-0.15327-0.0696-1.6356-0.73665-3.7923-1.6734-6.283-2.68-0.0225-9e-3 -0.0435-0.018-0.066-0.0271-9.6e-4 -3.9e-4 -2e-3 -7.9e-4 -3e-3 -1e-3 -0.42852-0.17298-0.86542-0.34541-1.3114-0.52105-0.23267-0.0916-0.46914-0.1833-0.70609-0.27525-7.3445-2.8523-16.655-5.8462-23.267-5.7561z" fill-opacity=".21212" style="paint-order:normal"/> <path d="m208.37-119.2c25.004 67.253 8.191 181.06 4.3111 227.19-3.88 46.128-6.0355 76.737-11.209 84.497-5.1733 7.7599-3.0178 6.4666 0.43111 13.364 3.4488 6.8977 0.8622 21.986-2.1555 22.849-3.0178 0.86219-9.4844-3.4489-8.6221 0 0.8622 3.4488 6.4666 20.693 5.1733 20.262-1.2933-0.43109-7.7599-9.0532-23.711-3.4488-15.951 5.6044-19.831 9.0532-28.022 0.8622-0.64668-10.778 2.1555-10.778 4.311-15.52 2.1555-4.7421 1.2933-3.8799-1.7244-11.209-3.0178-7.3288 4.311-4.3111 0.8622-15.951-3.4488-11.64-4.3111-14.226 0.43111-27.591 4.7422-13.364 5.1733 0.86219 4.7422-29.746-0.43111-30.609 8.191-46.991 4.7422-62.942-3.4489-15.951-3.88-16.813-3.4489-36.213 0.43111-19.4-14.226-63.804-15.951-62.51-1.7244 1.2933-9.4844 72.426-8.6222 90.532 0.86222 18.106-3.0178 34.057-0.43109 39.231 2.5866 5.1732-0.43111 72.857 2.1555 80.186 2.5866 7.3288 3.88 28.022 1.7244 31.902-2.1555 3.88-8.191 3.4489-7.3288 10.347 0.86219 6.8977 4.5266 17.46 2.5866 21.555-3.4488 0.86222-9.0532 0.86222-20.693-5.1733-11.64-6.0355-20.693-8.191-28.453 0-1.5089-14.442 0.43111-18.106 3.0177-22.849 2.5866-4.7422-9.0532-5.6044-5.6044-15.089 3.4488-9.4844-1.2933-9.0532-0.86221-17.244 0.4311-8.191-8.191-79.324-7.3288-86.221 0.86221-6.8977 6.4666-6.4666 3.88-15.089-2.5866-8.6221 0-25.004 2.1555-29.746 2.1555-4.7422-3.4489-4.7422-5.6044-16.382-2.1555-11.64-12.502-65.528-13.364-91.395-0.86222-25.866-1.826-32.408-4.5696-39.724-2.7436-7.3161 10.72-34.381 10.72-34.381z" fill="#295a7e" style="paint-order:normal"/> <path d="m205.05-121.31-146.46 4.3569s-4.1477 8.3416-7.3699 17.014c6.1121 3.3036 13.088 6.1429 21.026 8.165 1.2821 0.32658 2.5888 0.62666 3.9083 0.91242-0.03584 0.46422 0.03367 0.89491 0.23281 1.2808 2.4142 4.6775 10.109 9.5059 16.296 13.127 6.1864 3.6213 12.524-0.90532 7.3935-8.1479l-6.1929-3.6861c21.181 1.7403 44.769-0.58912 65.773-6.0155-2.1403 10.42 9.5171 9.0531 18.127 2.2326 7.7232-6.118 16.447-7.0163 16.447-7.0163l-5.1237-5.8009c6.8571-3.3454 12.889-7.107 17.763-11.226-0.58031-1.7605-1.1852-3.4941-1.8183-5.1968z" fill-opacity=".21176" style="paint-order:normal"/> <path d="m203.59-289.39s-1.0411 4.3482-1.9757 10.303c3.7876 8.3498 7.3956 18.25 8.4385 27.375 0.26547 2.3228 0.62193 4.4402 1.0403 6.4027 13.901 0.60068 26.296 0.71065 39.553-11.303-1.4516-8.2123-3.0183-16.492-4.575-24.346z" fill="#e99666" style="paint-order:normal"/> <path d="m19.44-284.7s-4.7931 3.7027-8.8293 8.376c-0.48939 5.2914-0.96474 10.844-1.3992 16.559 9.7439 6.2973 25.163 8.3586 41.972 6.3555 0.4812-4.998 1.2173-9.9299 2.0818-14.597l0.31651-4.7441z" fill="#e99666" style="paint-order:normal"/> <path d="m163.64-373.12c-0.95126 14.138-17.139 35.585-38.058 39.005-22.041 3.6028-35.119-16.25-36.547-38.048-2.7707 1.2301-6.5448 2.8042-11.697 5.017l25.324 52.147 48.866-8.1084 24.924-46.044c-4.7211-1.5153-9.1356-2.8844-12.811-3.969z" fill="#ee9867" style="paint-order:normal"/> <path d="m166.16-373.34c-2.1339 22.863-26.81 41.63-44.186 41.021-17.376-0.60967-31.947-9.4698-34.386-39.954-40.874 15.966-54.995 23.527-64.68 37.817-6.1128 9.0197-11.343 22.945-14.454 68.724 11.537 8.5206 26.848 8.0705 43.696 7.9258 0.21556-3.6467 1.179-10.624 1.5242-7.9258 3.9313 30.727-0.75772 76.271 4.2677 158.21 16.57 19.273 44.85 19.072 74.99 14.632 33.589-4.9476 60.861-13.349 88.656-22.9-6.9888-20.519-17.279-39.105-21.286-61.236-4.9879-27.543-0.84592-87.748 2.7436-88.708 2.3558-0.62974 3.7158 10.51 5.1822 16.156 13.35 0.56435 30.825 0.0125 43.897-14.023-7.6613-30.808-10.095-60.323-32.082-90.7-19.138-7.8202-31.635-11.912-53.882-19.042z" fill="#c33" style="paint-order:normal"/> <ellipse transform="matrix(-.99719 -.07497 -.07497 .99719 0 0)" cx="-118.25" cy="-443.15" rx="5.2811" ry="13.149" fill="#f3a070" style="paint-order:normal"/> <ellipse transform="rotate(-4.2995)" cx="115.9" cy="-425.55" rx="5.2811" ry="13.149" fill="#f3a070" style="paint-order:normal"/> <path d="m146.29-404.59-51.764 7.1642s1.1542 8.6546 1.4776 14.95c22.329 16.761 38.277 7.6022 50.484-10.387-0.0224-3.2405-0.0577-6.9255-0.19685-11.727z" fill="#ec9563" fill-opacity=".66667" style="paint-order:normal"/> <path d="m150.11-437.48c0 14.513 0.0345 32.825-6.6404 42.336-6.675 9.5108-16.57 15.393-26.082 15.393-9.5122 0-19.407-5.8825-26.082-15.393-6.675-9.5108-6.6404-27.823-6.6404-42.336 0-29.026 13.698-38.286 32.722-38.286 19.024 0 32.722 9.26 32.722 38.286z" fill="#f8b486" style="paint-order:normal"/> <path d="m219.24-122.32c-27.954 9.4633-55.499 17.769-89.299 22.69-28.219 4.1089-54.842 4.6223-72.141-10.275 0.0474 0.79608 0.08984 1.5728 0.1391 2.3759 16.57 19.273 44.85 19.072 74.99 14.633 33.589-4.9476 60.861-13.349 88.656-22.9-0.74752-2.1948-1.5345-4.3662-2.3458-6.5235z" fill="#a92a2a" style="paint-order:normal"/> <path d="m9.087-274.27c-0.2201 2.7172-0.43171 5.5548-0.6342 8.5346 11.537 8.5206 26.848 8.071 43.696 7.9263 0.14019-2.3716 0.59668-6.1374 0.99373-7.7489-23.661 1.0998-36.115-3.3056-44.056-8.712z" fill="#a92a2a" style="paint-order:normal"/> <path d="m54.495-277.28c-2.2378-0.283-6.5582 15.991-6.6031 19.501 1.4126-0.0114 2.8203-0.0218 4.2567-0.0342 0.21556-3.6467 1.179-10.624 1.5242-7.9263 3.9313 30.727-0.75759 76.271 4.2679 158.21 5.1899 6.0363 11.529 10.162 18.714 12.845-2.8138-52.706-18.319-163.6-21.171-180.55-0.23119-1.3742-0.57403-1.994-0.98843-2.0464z" fill-opacity=".13725" style="paint-order:normal"/> <path d="m250.67-269.68c-14.484 12.517-29.218 12.789-43.958 13.067 0.52067 2.5254 1.0121 5.0983 1.5136 7.0292 13.35 0.56435 30.824 0.0127 43.896-14.022-0.50484-2.0301-0.98574-4.0543-1.4523-6.0738z" fill="#a92a2a" style="paint-order:normal"/> <path d="m202.35-277.42c-2.4595-0.10413-5.2849 13.134-6.9414 44.848-1.7187 32.906-2.1785 94.486-2.4985 126.1 9.6798-2.9108 19.151-6.0442 28.678-9.3179-6.9887-20.519-17.279-39.105-21.286-61.235-4.9879-27.543-0.84577-87.749 2.7437-88.708 2.3558-0.62975 3.7156 10.51 5.182 16.157 1.8434 0.0779 3.7673 0.13217 5.7455 0.13497-3.7957-13.108-4.2621-13.621-10.304-26.576-0.42058-0.90177-0.86363-1.3782-1.3191-1.3975z" fill-opacity=".13725" style="paint-order:normal"/> <path d="m182.32 238.84c-4.6889 0.0422-9.4912 1.793-16.465 4.4382-12.581 4.7723-13.052 4.0748-21.298-2.2297-0.11703 1.4254-0.12943 3.1567 1e-3 5.3335 8.191 8.191 12.071 4.7421 28.022-0.86233 15.951-5.6044 22.418 3.0181 23.711 3.4492 0.52186 0.17395-0.0855-2.544-1.045-6.0579-5.0604-2.911-8.9546-4.1068-12.926-4.071z" fill="#1e4561" style="paint-order:normal"/> <path d="m208.37-119.2-4.7506 0.14147c17.577 80.836 10.963 159.34 8.1132 186.7-3.0177 28.97-9.0532 22.331-5.4319 32.592 3.6213 10.26-5.7337 81.781-11.769 90.834-6.0355 9.0532-29.121 3.9231-17.654 9.9586 11.467 6.0355 22.916 0.74373 21.577 10.562-0.95848 7.0283-0.448 10.011-12.373 14.938-5.7299 2.3673 3.3844 13.11 4.5213 18.733 3.3381 1.4938 5.0884 3.5036 5.696 3.7062 1.2934 0.43112-4.311-16.813-5.1732-20.262-0.86223-3.4489 5.604 0.8622 8.6218 0 3.0177-0.86223 5.6043-15.951 2.1554-22.849-3.4489-6.8977-5.6041-5.6042-0.43085-13.364 5.1733-7.7599 7.3287-38.368 11.209-84.497 3.88-46.128 20.693-159.94-4.3109-227.19z" fill-opacity=".21176" style="paint-order:normal"/> <path d="m185.84-97.642c-4.7422 0.64664-6.3587 2.4792-2.9098 4.2036 3.4302 1.7151 20.185 8.5435 33.833 6.0726-0.59326-3.3124-1.243-6.5746-1.9615-9.7711z" fill-opacity=".21212" style="paint-order:normal"/> <path d="m94.126 242.37c-6.0979 0-11.364 2.2278-15.141 4.4877 0.072 1.8755 0.22603 3.9934 0.47976 6.4222 7.7599-8.191 16.813-6.0355 28.453 0 11.64 6.0355 17.245 6.0354 20.693 5.1732 0.51534-1.088 0.63261-2.6351 0.51453-4.4459-13.154-0.24963-23.423-11.637-35-11.637z" fill="#1e4561" style="paint-order:normal"/> <path d="m54.067-96.547c-2.3459 6.5334-4.0284 13.032-2.8828 16.087 2.7436 7.3161 3.7074 13.858 4.5696 39.724 0.86221 25.866 11.209 79.755 13.364 91.395 2.1555 11.64 7.7602 11.64 5.6046 16.382-2.1555 4.7422-4.7421 21.124-2.1554 29.747 2.5866 8.6221-3.0178 8.191-3.88 15.089-0.86221 6.8977 7.7597 78.03 7.3286 86.221-0.43111 8.191 4.3111 7.7598 0.8623 17.244-3.4489 9.4843 8.1913 10.347 5.6046 15.089-2.5866 4.7422-4.5266 8.4068-3.0177 22.849 1.2882-1.3597 2.6125-2.4285 3.9779-3.2476-0.18324-6.5492 1.0696-16.385 4.2443-18.857 3.453-2.6893-2.5714-2.8139-4.1164-6.2506-3.863-8.5932 1.1551-10.561 4.0085-14.767 1.1996-1.7682-6.0341-3.8359-6.6473-8.7102-1.015-8.0684-10.542-85.456-6.3284-91.981 5.0336-7.794 12.452-9.4967 6.807-9.5914-8.4053-0.14096-7.3847-27.421-2.1155-31.629 4.3136-3.4448 11.096-1.9206 1.2802-6.1883-9.8158-4.2677-10.136-33.075-15.257-73.192-4.8744-38.182-1.6402-55.498-11.251-85.412z" fill-opacity=".21176" style="paint-order:normal"/> <path d="m54.942-98.915c-2.7751 7.2779-5.0423 15.03-3.758 18.455 0.19076 0.50867 0.37108 1.015 0.5452 1.523 21.763-4.6434 28.263-8.2574 26.086-13.812z" fill-opacity=".21212" style="paint-order:normal"/> <path d="m39.346-205.38c1.2194 6.7064 12.528 84.025 19.426 90.491 6.8977 6.4666 10.778-0.86222 17.244 7.3288 6.4666 8.191 19.725 17.409 23.536 21.219 3.8105 3.8105 3.9629 13.413-8.8403 6.2492-12.803-7.1637-10.517-13.413-13.26-10.212-4.3312 4.9154-22.232 9.2964-25.606 8.9927 0 0-3.6581-9.1452-12.346-19.814-8.6879-10.669-8.3831-21.034-23.32-50.908m240.9-58.13c1.2933 20.262-1.7244 39.231-13.795 61.648-12.071 22.418-12.933 33.626-18.969 43.111-6.0355 9.4843-9.4844 15.951-9.4844 15.951-12.941 0.78433-22.367-2.4137-31.04-6.4666 0 0 5.6044-5.6044-0.43111-3.88-6.0355 1.7244-8.8195 8.277-16.441 10.258-7.621 1.9815-12.346-1.6766-3.9629-8.5355 8.3831-6.8589 14.785-12.041 23.32-16.309 8.5355-4.2677 10.212-5.0298 14.48-4.8774 4.2677 0.15242 11.127-8.6879 14.175-25.759 3.0484-17.071 9.7548-57.31 8.5354-68.893" fill="#f3a070" style="paint-order:normal"/> <path d="m51.671-257.81c-1.6842 0.0149-3.3498 0.0301-5.0005 0.04-4.0065 27.539-13.817 42.926-13.787 49.462 0.02209 4.8117 11.867 71.725 23.935 90.061-6.8931-16.422-16.363-81.03-17.473-87.134-1.2194-6.7064 9.7551-20.729 11.584-45.116 0.18388-2.4518 0.4374-4.8961 0.74147-7.3116z" fill="#e99666" style="paint-order:normal"/> <path d="m90.767-463.6c-3.8873 5.9629-6.105 14.438-6.105 26.112 0 14.513-0.03473 32.825 6.6402 42.336 6.675 9.5108 16.57 15.393 26.082 15.393 9.5122 0 19.407-5.8827 26.082-15.393 6.675-9.5108 6.6408-27.823 6.6408-42.336 0-1.9485-0.0635-3.8052-0.18448-5.5787l-0.10311 0.0324s-1.739 35.015-9.6024 46.518c-10.029 14.67-32.281 14.199-40.33 4.2676-5.6913-7.0217-16.604-21.039-9.1194-71.352z" fill="#f6aa75" fill-opacity=".71717" style="paint-order:normal"/> <path d="m85.681-430.65s-2.7436-6.7064-6.4016-18.9c-3.6581-12.194-2.1339-27.131 8.5355-34.447 10.669-7.3161 21.339-11.584 38.714-10.364 17.376 1.2194 26.826 15.547 28.045 23.473 1.2194 7.9258 3.0484 18.9 0 23.777-3.0484 4.8774-5.1822 11.279-5.1822 11.279s-0.91453-22.863-9.7548-29.569c-8.8403-6.7064-40.848-8.2306-46.335 0.30484-5.4871 8.5355-7.6209 34.447-7.6209 34.447z" fill="#3a1809" style="paint-order:normal"/> <path d="m166.16-373.34c-2.1339 22.863-26.811 41.63-44.186 41.02-17.376-0.60966-31.947-9.4695-34.386-39.953-2.1227 0.82919-4.1306 1.6229-6.1121 2.4089 0.34768 22.961 16.171 49.769 45.817 44.231 27.221-5.0845 41.411-26.579 45.071-45.714-2.0072-0.64635-4.0246-1.2951-6.2034-1.9934z" fill="#a92a2a" style="paint-order:normal"/> <path d="m140.76-26.904c-6.738 1.3091-8.062 1.5135-13.292 1.4808-16.97-0.10616 5.2062 3.2357 4.586 7.5718-3.8521 26.929-8.2196 76.101-8.7615 104.25-0.39059 20.294-30.9 9.8853-14.552 17.412 7.4148 3.4137 12.218 0.0226 13.164 4.1916 1.8407 8.1077 1.2546 16.547 1.4271 24.827 0.17244 8.2809 0.13574 16.564 0.17217 24.842 0.0365 8.2776 2.7111 30.582 3.1761 38.84 0.46501 8.2582-10.167 7.2728-0.87765 12.805 2.467 1.4694 4.8257 12.12-1.1181 15.976-8.1863 5.3099-24.243 1.8398-24.61 4.5861-0.36747 2.7463 22.59 1.2622 20.348 10.399-1.0406 4.2395-0.34279 7.182 3.1196 10.453 2.2708 2.1451 0.98783 5.8406 0.73784 7.9484-6e-3 0.0488-0.0124 0.0953-0.0184 0.14382 1.7874 0.0998 3.1957-0.0852 4.3522-0.37426 1.94-4.0955-1.7247-14.657-2.5869-21.555-0.8622-6.8977 5.1731-6.4664 7.3286-10.346 2.1556-3.88 0.86263-24.573-1.724-31.902-2.5866-7.3288 0.43057-75.013-2.1561-80.186-2.5867-5.1733 1.2937-21.124 0.43144-39.231-0.8622-18.106 6.8974-89.239 8.6218-90.532 1.7244-1.2933 16.382 43.111 15.951 62.51-0.43114 19.4 0 20.262 3.4492 36.213 3.4489 15.951-5.1734 32.333-4.7423 62.942 0.43111 30.609-1.8e-4 16.382-4.7423 29.746-4.7422 13.364-3.8797 15.951-0.43087 27.591 3.4489 11.64-3.88 8.6222-0.86229 15.951 3.0177 7.3288 3.8801 6.4666 1.7246 11.209-2.1555 4.7422-4.9582 4.7419-4.3115 15.52 2.3606 2.3606 4.3637 3.7505 6.4003 4.4046-0.34016-0.32791-0.64824-0.66206-0.91238-1.0044-3.2611-4.2259 0.81392-12.499 3.2877-13.209 40.926-11.74 1.5707-3.9047 0.68605-19.351-0.38935-6.7987-1.3651-16.946-3.7486-23.125-4.7915-12.42 10.02-19.066 10.099-30.861 0.12307-18.357-0.71708-36.695 3.3325-54.549 1.7429-7.6843 12.194-12.173 5.5361-15.887-11.39-6.3534-7.7075-22.04-7.8418-29.636-0.47384-26.807-6.805-53.209-14.905-78.178-1.4156-4.3636-3.0427-6.106-0.86757-8.2368 11.789-11.549 1.416-4.8753-4.8711-3.6538z" fill-opacity=".21176" style="paint-order:normal"/> <path d="m210.34-249.51c2.8342 19.48 11.948 24.42 13.124 35.592 1.2194 11.584-5.4874 51.823-8.5358 68.894-1.2484 6.9912-3.1364 12.599-5.2233 16.777 14.28-20.099 20.14-82.45 21.031-88.687 0.7717-5.4019-9.4158-15.195-14.123-32.545-2.1536 0.0542-4.2502 0.0303-6.2718-0.0307z" fill="#e99666" style="paint-order:normal"/> <path d="m237.27-136.35c-5.3111 7.9284-8.0262 16.218-12.107 24.257-4.0804 8.0397-9.149 14.245-13.66 22.76 1.0845-0.0097 2.1926-0.04659 3.3295-0.11552 0 0 3.4492-6.4661 9.4846-15.95 4.8301-7.5901 6.3522-16.292 12.952-30.951z" fill="#e99666" style="paint-order:normal"/> <path d="m173.03-95.842c-5.6216 4.7186-8.5005 7.3284-13.352 6.0349 1.4378 0.93964 4.0925 1.0884 7.2473 0.26819 7.621-1.9815 10.405-8.5342 16.44-10.259 6.0355-1.7244 0.43085 3.88 0.43085 3.88 0.385 0.17992 0.77351 0.35594 1.1617 0.53224 4.0423-5.0356 2.9131-7.1145 0.82164-7.0958-4.4868 0.0401-10.59 4.826-12.75 6.639z" fill="#e99666" style="paint-order:normal"/> <path d="m26.36-129.37c5.4205 13.637 7.1309 20.874 13.138 28.251 8.6879 10.669 12.346 19.815 12.346 19.815 0.65181 0.05864 1.8544-0.06135 3.3879-0.32242-1.4971-4.1104-4.1132-8.744-7.5292-14.445-6.3494-10.597-6.756-6.5674-21.343-33.298z" fill="#e99666" style="paint-order:normal"/> <path d="m78.923-92.812c-0.69001 0.03269-1.4558 1.4697-2.5023 3.4759 0.39606-0.31861 0.74439-0.6404 1.0303-0.96486 2.7435-3.2008 0.45718 3.0483 13.26 10.212 5.5249 3.0913 8.6359 3.0594 10.083 1.7193-4.7112 1.6156-11.523-5.4897-16.641-9.3244-2.2281-1.6693-4.289-5.1626-5.2301-5.118z" fill="#e99666" style="paint-order:normal"/> <path d="m77.565-459.14c0.19926 3.2608 0.79122 6.5135 1.7146 9.5914 2.9899 9.9664 5.2774 16.026 6.0467 17.995-1.52-17.197-6.2988-20.723-7.7613-27.586z" fill="#2a1107" style="paint-order:normal"/> <path d="m156.24-456.21c-1.4323 4.8333-5.9926 4.8431-6.4864 19.366 0.71304-1.9606 2.4897-6.5352 4.826-10.273 1.3283-2.1253 1.7302-5.4088 1.6603-9.0927z" fill="#2a1107" style="paint-order:normal"/> <path d="m105.37-473.84c-6.3828 0.53075-12.347 3.0773-13.903 5.8357-3.198 5.6692-6.7158 24.863-5.7196 36.578 0.34227-3.7668 2.5335-25.868 7.5509-33.673 5.4871-8.5355 37.495-7.0112 46.335-0.30473 5.5394 4.2023 7.9662 14.746 9.0067 22.035-1.5578-23.515-6.0565-29.342-19.451-30.974-7.6952-0.93741-16.56-0.10196-23.818 0.50159z" fill="#2a1107" style="paint-order:normal"/> </g> </svg>