<?xml version="1.0" encoding="UTF-8" standalone="no"?>
<!-- Created with Inkscape (http://www.inkscape.org/) -->

<svg
   width="180"
   height="128"
   viewBox="0 0 47.624999 33.866668"
   version="1.1"
   id="svg8"
   sodipodi:docname="nowstream-technology.svg"
   inkscape:version="1.3 (0e150ed, 2023-07-21)"
   inkscape:export-filename="G:\Pictures\My Pictures\Vectors and SVGs\Laptop1.png"
   inkscape:export-xdpi="96"
   inkscape:export-ydpi="96"
   xml:space="preserve"
   xmlns:inkscape="http://www.inkscape.org/namespaces/inkscape"
   xmlns:sodipodi="http://sodipodi.sourceforge.net/DTD/sodipodi-0.dtd"
   xmlns="http://www.w3.org/2000/svg"
   xmlns:svg="http://www.w3.org/2000/svg"
   xmlns:rdf="http://www.w3.org/1999/02/22-rdf-syntax-ns#"
   xmlns:cc="http://creativecommons.org/ns#"
   xmlns:dc="http://purl.org/dc/elements/1.1/"><defs
     id="defs2" /><sodipodi:namedview
     id="base"
     pagecolor="#000000"
     bordercolor="#666666"
     borderopacity="1.0"
     inkscape:pageopacity="0.0"
     inkscape:pageshadow="2"
     inkscape:zoom="1.4"
     inkscape:cx="115.71429"
     inkscape:cy="67.857143"
     inkscape:document-units="mm"
     inkscape:current-layer="layer1"
     showgrid="false"
     borderlayer="true"
     inkscape:showpageshadow="false"
     inkscape:pagecheckerboard="true"
     units="px"
     inkscape:window-width="1600"
     inkscape:window-height="837"
     inkscape:window-x="-8"
     inkscape:window-y="-8"
     inkscape:window-maximized="1"
     inkscape:snap-global="false"
     inkscape:object-paths="false"
     inkscape:object-nodes="true"
     inkscape:deskcolor="#505050" /><metadata
     id="metadata5"><rdf:RDF><cc:Work
         rdf:about=""><dc:format>image/svg+xml</dc:format><dc:type
           rdf:resource="http://purl.org/dc/dcmitype/StillImage" /></cc:Work></rdf:RDF></metadata><g
     inkscape:label="Layer 1"
     inkscape:groupmode="layer"
     id="layer1"
     transform="translate(0,311.54169)"><g
       id="g2"
       transform="matrix(1.0827159,0,0,1.0827159,0.2362934,23.519211)"><rect
         style="opacity:1;fill:#6ca3c7;fill-opacity:1;fill-rule:nonzero;stroke:none;stroke-width:1.53704;stroke-linecap:round;stroke-linejoin:round;stroke-miterlimit:4;stroke-dasharray:none;stroke-dashoffset:0;stroke-opacity:1;paint-order:markers stroke fill"
         id="rect847"
         width="26.380228"
         height="15.716702"
         x="39.686302"
         y="-301.69843"
         transform="rotate(-7.104072)" /><path
         style="opacity:1;fill:#7eafce;fill-opacity:1;fill-rule:nonzero;stroke:none;stroke-width:2.27025;stroke-linecap:round;stroke-linejoin:round;stroke-miterlimit:4;stroke-dasharray:none;stroke-dashoffset:0;stroke-opacity:1;paint-order:markers stroke fill"
         d="m 3.3117876,-304.44516 -1.2073223,0.43122 1.3418301,10.76662 17.2808466,-13.3683 z"
         id="path856"
         inkscape:connector-curvature="0" /><path
         style="color:#000000;font-style:normal;font-variant:normal;font-weight:normal;font-stretch:normal;font-size:medium;line-height:normal;font-family:sans-serif;font-variant-ligatures:normal;font-variant-position:normal;font-variant-caps:normal;font-variant-numeric:normal;font-variant-alternates:normal;font-feature-settings:normal;text-indent:0;text-align:start;text-decoration:none;text-decoration-line:none;text-decoration-style:solid;text-decoration-color:#000000;letter-spacing:normal;word-spacing:normal;text-transform:none;writing-mode:lr-tb;direction:ltr;text-orientation:mixed;dominant-baseline:auto;baseline-shift:baseline;text-anchor:start;white-space:normal;shape-padding:0;clip-rule:nonzero;display:inline;overflow:visible;visibility:visible;opacity:1;isolation:auto;mix-blend-mode:normal;color-interpolation:sRGB;color-interpolation-filters:linearRGB;solid-color:#000000;solid-opacity:1;vector-effect:none;fill:#2d3642;fill-opacity:1;fill-rule:nonzero;stroke:none;stroke-width:1.45988;stroke-linecap:round;stroke-linejoin:round;stroke-miterlimit:4;stroke-dasharray:none;stroke-dashoffset:0;stroke-opacity:1;paint-order:markers stroke fill;color-rendering:auto;image-rendering:auto;shape-rendering:auto;text-rendering:auto;enable-background:accumulate"
         d="m 1.8709738,-305.33923 a 0.73001313,0.73001313 0 0 0 -0.6340632,0.81461 l 2.0266848,16.26178 a 0.73001313,0.73001313 0 0 0 0.8146095,0.63406 l 26.3122311,-3.27926 a 0.73001313,0.73001313 0 0 0 0.634064,-0.81461 l -2.026684,-16.26178 a 0.73001313,0.73001313 0 0 0 -0.814611,-0.63406 z m 0.9048827,1.3584 24.8635585,-3.09871 1.846138,14.8131 -24.863558,3.09871 z"
         id="rect826"
         inkscape:connector-curvature="0" /><path
         style="color:#000000;font-style:normal;font-variant:normal;font-weight:normal;font-stretch:normal;font-size:medium;line-height:normal;font-family:sans-serif;font-variant-ligatures:normal;font-variant-position:normal;font-variant-caps:normal;font-variant-numeric:normal;font-variant-alternates:normal;font-feature-settings:normal;text-indent:0;text-align:start;text-decoration:none;text-decoration-line:none;text-decoration-style:solid;text-decoration-color:#000000;letter-spacing:normal;word-spacing:normal;text-transform:none;writing-mode:lr-tb;direction:ltr;text-orientation:mixed;dominant-baseline:auto;baseline-shift:baseline;text-anchor:start;white-space:normal;shape-padding:0;clip-rule:nonzero;display:inline;overflow:visible;visibility:visible;opacity:1;isolation:auto;mix-blend-mode:normal;color-interpolation:sRGB;color-interpolation-filters:linearRGB;solid-color:#000000;solid-opacity:1;vector-effect:none;fill:#2d3642;fill-opacity:1;fill-rule:nonzero;stroke:none;stroke-width:0.994574;stroke-linecap:round;stroke-linejoin:round;stroke-miterlimit:4;stroke-dasharray:none;stroke-dashoffset:0;stroke-opacity:1;paint-order:markers stroke fill;color-rendering:auto;image-rendering:auto;shape-rendering:auto;text-rendering:auto;enable-background:accumulate"
         d="m 4.4451694,-287.38525 c -0.389943,0.0486 -0.6868208,0.24238 -0.6631219,0.43285 l -1.9688827,6.79808 -0.94533418,0.22631 0.51274528,0.54744 2.226e-4,-3e-5 c 0.1018436,0.18901 0.4775785,0.29473 0.9066385,0.24128 l 31.922688,-3.97848 c 0.429059,-0.0535 0.767347,-0.24821 0.819687,-0.45643 l 2.22e-4,-3e-5 0.362695,-0.65654 -0.971963,0.0126 -3.577205,-6.10688 c -0.02374,-0.19047 -0.359134,-0.30544 -0.749081,-0.25686 z"
         id="path849"
         inkscape:connector-curvature="0"
         sodipodi:nodetypes="ccccccccccccccc" /><path
         style="color:#000000;font-style:normal;font-variant:normal;font-weight:normal;font-stretch:normal;font-size:medium;line-height:normal;font-family:sans-serif;font-variant-ligatures:normal;font-variant-position:normal;font-variant-caps:normal;font-variant-numeric:normal;font-variant-alternates:normal;font-feature-settings:normal;text-indent:0;text-align:start;text-decoration:none;text-decoration-line:none;text-decoration-style:solid;text-decoration-color:#000000;letter-spacing:normal;word-spacing:normal;text-transform:none;writing-mode:lr-tb;direction:ltr;text-orientation:mixed;dominant-baseline:auto;baseline-shift:baseline;text-anchor:start;white-space:normal;shape-padding:0;clip-rule:nonzero;display:inline;overflow:visible;visibility:visible;opacity:1;isolation:auto;mix-blend-mode:normal;color-interpolation:sRGB;color-interpolation-filters:linearRGB;solid-color:#000000;solid-opacity:1;vector-effect:none;fill:#d4dfe9;fill-opacity:1;fill-rule:nonzero;stroke:none;stroke-width:1.02028;stroke-linecap:round;stroke-linejoin:round;stroke-miterlimit:4;stroke-dasharray:none;stroke-dashoffset:0;stroke-opacity:1;paint-order:markers stroke fill;color-rendering:auto;image-rendering:auto;shape-rendering:auto;text-rendering:auto;enable-background:accumulate"
         d="m 3.9362728,-288.76762 c -0.4000221,0.0499 -0.7045562,0.24866 -0.6802449,0.44406 l -2.41039688,8.32256 c 0.030356,0.24316 0.45850688,0.38999 0.95637108,0.32796 l 32.7477069,-4.08131 c 0.49786,-0.0621 0.876875,-0.30949 0.84662,-0.55266 l -4.379396,-7.47636 c -0.02439,-0.19538 -0.368404,-0.31335 -0.768429,-0.26351 z"
         id="rect828"
         inkscape:connector-curvature="0"
         sodipodi:nodetypes="ccccccccc" /><path
         style="opacity:1;fill:#b7c9db;fill-opacity:1;fill-rule:nonzero;stroke:none;stroke-width:1.69754;stroke-linecap:round;stroke-linejoin:round;stroke-miterlimit:4;stroke-dasharray:none;stroke-dashoffset:0;stroke-opacity:1;paint-order:markers stroke fill"
         d="m 13.814625,-284.0533 7.859879,-0.97957 c 0.353926,-0.0441 0.569131,0.23534 0.718477,0.55924 l 0.37719,0.81803 c 0.14913,0.32342 -0.222214,0.67647 -0.597135,0.7232 l -8.326142,1.03768 c -0.374922,0.0467 -0.821562,-0.20439 -0.756376,-0.55452 l 0.16487,-0.88559 c 0.06528,-0.35064 0.205311,-0.67436 0.559237,-0.71847 z"
         id="rect838"
         inkscape:connector-curvature="0"
         sodipodi:nodetypes="sssssssss" /><path
         style="opacity:1;fill:#b7c9db;fill-opacity:1;fill-rule:nonzero;stroke:none;stroke-width:1.45988;stroke-linecap:round;stroke-linejoin:round;stroke-miterlimit:4;stroke-dasharray:none;stroke-dashoffset:0;stroke-opacity:1;paint-order:markers stroke fill"
         d="m 4.7269606,-287.5443 25.1989344,-3.14052 c 0.180043,-0.0224 0.279527,0.11425 0.365489,0.28449 l 1.658513,3.28443 c 0.08956,0.17737 -0.114381,0.3757 -0.31156,0.40027 l -27.5972189,3.43941 c -0.1971776,0.0246 -0.4435653,-0.11763 -0.400274,-0.31156 l 0.8016313,-3.59104 c 0.040171,-0.17997 0.104443,-0.34305 0.2844852,-0.36548 z"
         id="rect844"
         inkscape:connector-curvature="0"
         sodipodi:nodetypes="sssssssss" /></g><g
       id="g1"
       transform="matrix(0.92047742,0.18729199,-0.18729199,0.92047742,35.604466,-311.62222)"><rect
         x="0.32701418"
         y="8.2695227"
         width="13.856083"
         height="25.215624"
         ry="0.8512947"
         fill="#2d3642"
         id="rect1"
         style="stroke-width:0.032322" /><rect
         x="0.65395027"
         y="8.6215487"
         width="13.20221"
         height="22.286612"
         ry="0.55849046"
         fill="#6ca3c7"
         id="rect2"
         style="stroke-width:0.032322" /><circle
         cx="7.2551527"
         cy="32.224178"
         r="0.97638059"
         fill="#20262f"
         id="circle2"
         style="stroke-width:0.032322" /><path
         d="m 1.2124732,8.6215503 c -0.3094049,0 -0.55849048,0.2490908 -0.55849048,0.55849 V 27.622603 L 13.788964,8.9195261 C 13.695353,8.7429464 13.512023,8.6217786 13.297477,8.6217786 Z"
         fill="#7eafce"
         id="path2"
         style="stroke-width:0.032322" /><path
         d="m 7.6721057,31.341467 c 0.223322,0.91539 -0.2029426,1.496085 -0.7382648,1.8024 a 0.97638053,0.97638053 0 0 0 0.3211084,0.05675 0.97638053,0.97638053 0 0 0 0.9763806,-0.97638 0.97638053,0.97638053 0 0 0 -0.5592336,-0.882778 z"
         fill="#35424e"
         id="path3"
         style="stroke-width:0.032322" /><rect
         x="6.862442"
         y="31.831469"
         width="0.78532571"
         height="0.78532571"
         ry="0.22286609"
         fill="none"
         stroke="#c0dcf0"
         stroke-linecap="round"
         stroke-linejoin="round"
         stroke-opacity="0.24624"
         stroke-width="0.0941927"
         id="rect3" /></g></g></svg>
