<?xml version="1.0" encoding="UTF-8" standalone="no"?>
<!-- Created with Inkscape (http://www.inkscape.org/) -->

<svg
   width="24"
   height="24"
   viewBox="0 0 6.3499999 6.3499999"
   version="1.1"
   id="svg1"
   xml:space="preserve"
   sodipodi:docname="add-green.svg"
   inkscape:version="1.4 (86a8ad7, 2024-10-11)"
   xmlns:inkscape="http://www.inkscape.org/namespaces/inkscape"
   xmlns:sodipodi="http://sodipodi.sourceforge.net/DTD/sodipodi-0.dtd"
   xmlns="http://www.w3.org/2000/svg"
   xmlns:svg="http://www.w3.org/2000/svg"><sodipodi:namedview
     id="namedview1"
     pagecolor="#505050"
     bordercolor="#ffffff"
     borderopacity="1"
     inkscape:showpageshadow="0"
     inkscape:pageopacity="0"
     inkscape:pagecheckerboard="1"
     inkscape:deskcolor="#505050"
     inkscape:document-units="mm"
     inkscape:zoom="16"
     inkscape:cx="14.125"
     inkscape:cy="16.21875"
     inkscape:window-width="3440"
     inkscape:window-height="1377"
     inkscape:window-x="-8"
     inkscape:window-y="-8"
     inkscape:window-maximized="1"
     inkscape:current-layer="layer1"
     showgrid="false"
     showguides="true" /><defs
     id="defs1"><inkscape:perspective
       sodipodi:type="inkscape:persp3d"
       inkscape:vp_x="0 : 3.175 : 1"
       inkscape:vp_y="-1.8369095e-13 : 1000 : 0"
       inkscape:vp_z="6.3499999 : 3.175 : 1"
       inkscape:persp3d-origin="3.175 : 2.1166666 : 1"
       id="perspective1" /></defs><g
     inkscape:label="Layer 1"
     inkscape:groupmode="layer"
     id="layer1"><path
       id="path20"
       style="color:#000000;fill:#2bff2c;stroke-width:0.978469;stroke-linecap:round;stroke-linejoin:round;-inkscape-stroke:none;paint-order:markers stroke fill;fill-opacity:1"
       d="M 2.7612929,0.23998086 C 2.6513364,0.34999165 2.5896005,0.49918678 2.5896737,0.65472716 l -3.575e-4,1.93490484 -1.93458907,1e-7 C 0.33087004,2.5895924 0.06832209,2.8521403 0.06836176,3.1759975 0.06910867,3.4987383 0.33055608,3.7601858 0.65329699,3.7609326 H 2.5893162 l 3.575e-4,1.9343402 C 2.5896341,6.0191299 2.852182,6.2816779 3.1760391,6.2816382 3.49878,6.2808914 3.7602274,6.0194439 3.7609743,5.6967031 L 3.7606169,3.7609326 H 5.696703 C 6.0194439,3.7601858 6.2808914,3.4987383 6.2816382,3.1759974 6.2817115,3.020457 6.2199756,2.871262 6.1100191,2.7612512 6.0000083,2.6512946 5.8508133,2.5895587 5.6952728,2.589632 H 3.7606169 L 3.7609743,0.65329699 C 3.7602274,0.33055608 3.49878,0.06910867 3.1760391,0.06836176 3.0204988,0.06828844 2.8713037,0.13002433 2.7612929,0.23998086 Z"
       sodipodi:nodetypes="ccccccccccccccccccc" /></g></svg>
