<?xml version="1.0" encoding="UTF-8" standalone="no"?>
<!-- Created with Inkscape (http://www.inkscape.org/) -->

<svg
   width="64"
   height="64"
   viewBox="0 0 16.933333 16.933333"
   version="1.1"
   id="svg1"
   xml:space="preserve"
   inkscape:version="1.3 (0e150ed, 2023-07-21)"
   sodipodi:docname="vector.svg"
   xmlns:inkscape="http://www.inkscape.org/namespaces/inkscape"
   xmlns:sodipodi="http://sodipodi.sourceforge.net/DTD/sodipodi-0.dtd"
   xmlns="http://www.w3.org/2000/svg"
   xmlns:svg="http://www.w3.org/2000/svg"><sodipodi:namedview
     id="namedview1"
     pagecolor="#505050"
     bordercolor="#ffffff"
     borderopacity="1"
     inkscape:showpageshadow="0"
     inkscape:pageopacity="0"
     inkscape:pagecheckerboard="1"
     inkscape:deskcolor="#505050"
     inkscape:document-units="mm"
     inkscape:zoom="3.677441"
     inkscape:cx="31.543674"
     inkscape:cy="29.912104"
     inkscape:current-layer="layer1"
     showguides="true" /><defs
     id="defs1"><inkscape:path-effect
       effect="fillet_chamfer"
       id="path-effect3"
       is_visible="true"
       lpeversion="1"
       nodesatellites_param="F,0,0,1,0,1.396604,0,1 @ F,0,0,1,0,1.396604,0,1 @ F,0,1,1,0,0.81863797,0,1 @ F,0,0,1,0,0.81863797,0,1"
       radius="0"
       unit="px"
       method="auto"
       mode="F"
       chamfer_steps="1"
       flexible="false"
       use_knot_distance="true"
       apply_no_radius="true"
       apply_with_radius="true"
       only_selected="false"
       hide_knots="false" /><inkscape:path-effect
       effect="fillet_chamfer"
       id="path-effect2"
       is_visible="true"
       lpeversion="1"
       nodesatellites_param="F,0,1,1,0,4.9072151,0,1 @ F,0,0,1,0,4.9212034,0,1 @ F,0,0,1,0,0,0,1 @ F,0,0,1,0,0,0,1 @ F,0,0,1,0,0,0,1 @ F,0,0,1,0,0,0,1 @ F,0,0,1,0,0,0,1 @ F,0,0,1,0,0,0,1 @ F,0,0,1,0,0,0,1 @ F,0,0,1,0,0,0,1 @ F,0,0,1,0,4.9212034,0,1 @ F,0,0,1,0,4.9072151,0,1"
       radius="0"
       unit="px"
       method="auto"
       mode="F"
       chamfer_steps="1"
       flexible="false"
       use_knot_distance="true"
       apply_no_radius="true"
       apply_with_radius="true"
       only_selected="false"
       hide_knots="false" /></defs><g
     inkscape:label="Layer 1"
     inkscape:groupmode="layer"
     id="layer1"><path
       id="path1"
       style="opacity:1;fill:#ffffff;fill-opacity:1;stroke-width:2.24296;stroke-linecap:round;stroke-linejoin:round"
       d="M 13.42089,5.7084083 C 11.725304,7.4039943 9.8225758,7.2888203 8.2291611,7.3053903 7.5208803,10.112679 5.863809,15.327588 5.863809,15.327588 l 4.0229848,-4.022984 a 1.0282584,1.0282584 0 0 1 0.2360432,-1.086783 1.0282584,1.0282584 0 0 1 1.453962,10e-7 1.0282584,1.0282584 0 0 1 0,1.453961 1.0282584,1.0282584 0 0 1 -1.087602,0.236044 L 6.4666211,15.9304 c 0,0 5.2153219,-1.656659 8.0226109,-2.364941 0.01656,-1.593413 -0.0986,-3.49614 1.596981,-5.1917277 z" /><path
       id="path3"
       style="fill:#ffffff;stroke-linecap:round;stroke-linejoin:round"
       d="M 2.2381063 0.45888672 C 1.7725345 0.45902417 1.3095108 0.65109304 0.98030192 0.98030192 C 0.65109304 1.3095108 0.45902417 1.7725345 0.45888672 2.2381063 C 0.45845482 2.7040402 0.65103805 3.1662442 0.98030192 3.4959106 C 1.3095657 3.825577 1.7721721 4.0192556 2.2381063 4.0193929 A 0.18091504 0.18091504 0 0 0 2.2401733 4.0193929 C 2.8498316 4.0106529 3.4309417 3.6528964 3.7403402 3.129008 L 7.5742147 3.129008 C 5.3732151 4.4209618 3.909073 6.2517958 2.9998169 8.0703084 C 2.0531427 9.963657 1.6562659 11.830767 1.4841471 13.101526 C 1.1998726 13.236339 0.94678738 13.437369 0.76946208 13.697355 C 0.57058233 13.988942 0.46008305 14.340208 0.45888672 14.69316 C 0.45845465 15.159095 0.65103803 15.621298 0.98030192 15.950964 C 1.3095658 16.280631 1.7721719 16.47431 2.2381063 16.474447 C 2.7044028 16.47488 3.1682561 16.282753 3.4979777 15.953031 C 3.8276992 15.62331 4.0198255 15.159457 4.0193929 14.69316 C 4.0187867 14.129182 3.7209 13.584762 3.2638835 13.256038 C 3.4226693 12.130663 3.7739356 10.499089 4.5919678 8.8630249 C 5.9172379 6.212484 8.3066931 3.6359697 13.218831 3.1992879 C 13.540785 3.6897225 14.1053 4.0171642 14.69316 4.0193929 C 15.159457 4.0198255 15.62331 3.8276992 15.953031 3.4979777 C 16.282753 3.1682561 16.47488 2.7044028 16.474447 2.2381063 C 16.47431 1.7721719 16.280631 1.3095658 15.950964 0.98030192 C 15.621298 0.65103803 15.159095 0.45845465 14.69316 0.45888672 A 0.18091504 0.18091504 0 0 0 14.69161 0.45888672 C 14.078309 0.46391171 13.492906 0.82286672 13.181624 1.3497884 L 3.7615275 1.3497884 C 3.4479835 0.81926213 2.8557203 0.45940726 2.2381063 0.45888672 z M 2.238623 1.5115356 A 0.72768466 0.72768466 0 0 1 2.966744 2.238623 A 0.72768466 0.72768466 0 0 1 2.238623 2.966744 A 0.72768466 0.72768466 0 0 1 1.5115356 2.238623 A 0.72768466 0.72768466 0 0 1 2.238623 1.5115356 z M 14.693677 1.5115356 A 0.72768466 0.72768466 0 0 1 15.421798 2.238623 A 0.72768466 0.72768466 0 0 1 14.693677 2.966744 A 0.72768466 0.72768466 0 0 1 13.966589 2.238623 A 0.72768466 0.72768466 0 0 1 14.693677 1.5115356 z M 2.238623 13.966589 A 0.72768466 0.72768466 0 0 1 2.966744 14.693677 A 0.72768466 0.72768466 0 0 1 2.238623 15.421798 A 0.72768466 0.72768466 0 0 1 1.5115356 14.693677 A 0.72768466 0.72768466 0 0 1 2.238623 13.966589 z " /></g></svg>
