<?xml version="1.0" encoding="UTF-8" standalone="no"?>
<!-- Created with Inkscape (http://www.inkscape.org/) -->

<svg
   width="24"
   height="24"
   viewBox="0 0 6.3499999 6.3499999"
   version="1.1"
   id="svg1"
   xml:space="preserve"
   sodipodi:docname="checkmark.svg"
   inkscape:version="1.4 (86a8ad7, 2024-10-11)"
   xmlns:inkscape="http://www.inkscape.org/namespaces/inkscape"
   xmlns:sodipodi="http://sodipodi.sourceforge.net/DTD/sodipodi-0.dtd"
   xmlns="http://www.w3.org/2000/svg"
   xmlns:svg="http://www.w3.org/2000/svg"><sodipodi:namedview
     id="namedview1"
     pagecolor="#505050"
     bordercolor="#ffffff"
     borderopacity="1"
     inkscape:showpageshadow="0"
     inkscape:pageopacity="0"
     inkscape:pagecheckerboard="1"
     inkscape:deskcolor="#505050"
     inkscape:document-units="mm"
     inkscape:zoom="16"
     inkscape:cx="22.9375"
     inkscape:cy="9.90625"
     inkscape:window-width="3440"
     inkscape:window-height="1377"
     inkscape:window-x="-8"
     inkscape:window-y="-8"
     inkscape:window-maximized="1"
     inkscape:current-layer="layer1"
     showgrid="false"
     showguides="true" /><defs
     id="defs1"><inkscape:path-effect
       effect="fillet_chamfer"
       id="path-effect1"
       is_visible="true"
       lpeversion="1"
       nodesatellites_param="F,0,0,1,0,0,0,1 @ F,0,0,1,0,0,0,1 @ F,0,0,1,0,0,0,1 @ F,0,0,1,0,0,0,1 @ F,0,0,1,0,0,0,1 @ F,0,0,1,0,0,0,1 @ F,0,0,1,0,0.71943854,0,1 @ F,0,0,1,0,0,0,1 @ F,0,0,1,0,0,0,1"
       radius="0"
       unit="px"
       method="auto"
       mode="F"
       chamfer_steps="1"
       flexible="false"
       use_knot_distance="true"
       apply_no_radius="true"
       apply_with_radius="true"
       only_selected="false"
       hide_knots="false" /><inkscape:perspective
       sodipodi:type="inkscape:persp3d"
       inkscape:vp_x="0 : 3.175 : 1"
       inkscape:vp_y="-1.8369095e-13 : 1000 : 0"
       inkscape:vp_z="6.3499999 : 3.175 : 1"
       inkscape:persp3d-origin="3.175 : 2.1166666 : 1"
       id="perspective1" /></defs><g
     inkscape:label="Layer 1"
     inkscape:groupmode="layer"
     id="layer1"><path
       id="path20"
       style="fill:#f5f5f5;stroke-width:0.880203;stroke-linecap:round;stroke-linejoin:round;paint-order:markers stroke fill"
       d="m 5.6604861,1.1667694 c -0.1609302,3.98e-5 -0.3166054,0.061768 -0.4307926,0.176063 L 2.8153818,3.7590172 1.1203064,2.0639419 c -0.23683321,-0.2368913 -0.62475183,-0.2368913 -0.86158516,0 a 0.08086914,0.08086914 0 0 0 0,0.00187 c -0.23550236,0.2365951 -0.2355024,0.6193712 0,0.8559662 a 0.08086914,0.08086914 0 0 0 0,0.00187 L 2.3096687,4.9746015 c 0.2781818,0.278182 0.7332337,0.278162 1.0114261,0 C 4.0531917,4.242585 5.4843242,2.8093419 6.0912787,2.2025447 a 0.08086914,0.08086914 0 0 0 0,-0.00187 c 0.2355024,-0.236595 0.2355024,-0.6193711 0,-0.8559661 a 0.08086914,0.08086914 0 0 0 0,-0.00187 C 5.9770914,1.2285374 5.8214165,1.1668091 5.6604861,1.1667694 Z" /></g></svg>
