<?xml version="1.0" encoding="UTF-8" standalone="no"?>
<!-- Created with Inkscape (http://www.inkscape.org/) -->

<svg
   width="24"
   height="24"
   viewBox="0 0 6.3499999 6.35"
   version="1.1"
   id="svg1"
   inkscape:version="1.4 (86a8ad7, 2024-10-11)"
   sodipodi:docname="copy-spaced.svg"
   xml:space="preserve"
   xmlns:inkscape="http://www.inkscape.org/namespaces/inkscape"
   xmlns:sodipodi="http://sodipodi.sourceforge.net/DTD/sodipodi-0.dtd"
   xmlns="http://www.w3.org/2000/svg"
   xmlns:svg="http://www.w3.org/2000/svg"><sodipodi:namedview
     id="namedview1"
     pagecolor="#505050"
     bordercolor="#ffffff"
     borderopacity="1"
     inkscape:showpageshadow="0"
     inkscape:pageopacity="0"
     inkscape:pagecheckerboard="1"
     inkscape:deskcolor="#505050"
     inkscape:document-units="mm"
     showguides="true"
     inkscape:zoom="18.437048"
     inkscape:cx="11.335871"
     inkscape:cy="13.098626"
     inkscape:window-width="3440"
     inkscape:window-height="1377"
     inkscape:window-x="-8"
     inkscape:window-y="-8"
     inkscape:window-maximized="1"
     inkscape:current-layer="layer1" /><defs
     id="defs1" /><g
     inkscape:label="Layer 1"
     inkscape:groupmode="layer"
     id="layer1"><path
       id="rect8"
       style="fill:#f5f5f5;fill-opacity:0.994671;stroke:none;stroke-width:0.648196;stroke-linecap:round;stroke-linejoin:round;stroke-dasharray:none;stroke-dashoffset:0;stroke-opacity:1;paint-order:markers stroke fill"
       d="m 1.4871895,0.7190403 c -0.204839,0 -0.3698194,0.16498043 -0.3698194,0.3698195 v 3.0949979 c 0,0.2048391 0.1649804,0.3698195 0.3698194,0.3698195 h 0.1280763 v -2.827001 c 0,-0.23082 0.1858379,-0.4166579 0.4166579,-0.4166579 H 4.2563554 V 1.0888598 c 0,-0.20483907 -0.1649804,-0.3698195 -0.3698195,-0.3698195 z"
       sodipodi:nodetypes="sssscsscsss" /><path
       id="rect5"
       style="fill:#f5f5f5;fill-opacity:1;stroke:none;stroke-width:0.648196;stroke-linecap:round;stroke-linejoin:round;stroke-dasharray:none;stroke-dashoffset:0;stroke-opacity:1;paint-order:markers stroke fill"
       d="m 2.4634641,1.7963228 c -0.204839,0 -0.3698195,0.1649804 -0.3698195,0.3698195 v 3.094998 c 0,0.204839 0.1649805,0.3698194 0.3698195,0.3698194 h 2.3993464 c 0.204839,0 0.3698194,-0.1649804 0.3698194,-0.3698194 v -3.094998 c 0,-0.2048391 -0.1649804,-0.3698195 -0.3698194,-0.3698195 z"
       sodipodi:nodetypes="sssssssss" /></g></svg>
