<?xml version="1.0" encoding="UTF-8" standalone="no"?>
<!-- Created with Inkscape (http://www.inkscape.org/) -->

<svg
   width="24"
   height="24"
   viewBox="0 0 6.3499999 6.35"
   version="1.1"
   id="svg1"
   inkscape:version="1.4 (86a8ad7, 2024-10-11)"
   sodipodi:docname="copy.svg"
   xml:space="preserve"
   xmlns:inkscape="http://www.inkscape.org/namespaces/inkscape"
   xmlns:sodipodi="http://sodipodi.sourceforge.net/DTD/sodipodi-0.dtd"
   xmlns="http://www.w3.org/2000/svg"
   xmlns:svg="http://www.w3.org/2000/svg"><sodipodi:namedview
     id="namedview1"
     pagecolor="#505050"
     bordercolor="#ffffff"
     borderopacity="1"
     inkscape:showpageshadow="0"
     inkscape:pageopacity="0"
     inkscape:pagecheckerboard="1"
     inkscape:deskcolor="#505050"
     inkscape:document-units="mm"
     showguides="true"
     inkscape:zoom="18.437048"
     inkscape:cx="11.281633"
     inkscape:cy="13.098626"
     inkscape:window-width="3440"
     inkscape:window-height="1377"
     inkscape:window-x="-8"
     inkscape:window-y="-8"
     inkscape:window-maximized="1"
     inkscape:current-layer="layer1" /><defs
     id="defs1" /><g
     inkscape:label="Layer 1"
     inkscape:groupmode="layer"
     id="layer1"><path
       id="rect8"
       style="fill:#f5f5f5;fill-opacity:0.99467105;stroke:none;stroke-width:0.822422;stroke-linecap:round;stroke-linejoin:round;stroke-dasharray:none;stroke-dashoffset:0;stroke-opacity:1;paint-order:markers stroke fill"
       d="m 1.0335286,0.05891113 c -0.25989699,0 -0.46922196,0.20932497 -0.46922196,0.46922201 V 4.4550252 c 0,0.2598971 0.20932497,0.469222 0.46922196,0.469222 H 1.1960301 V 1.3373861 c 0,-0.2928614 0.2357886,-0.52864993 0.5286499,-0.52864993 H 4.5470093 V 0.52813314 c 0,-0.25989704 -0.209325,-0.46922201 -0.469222,-0.46922201 z"
       sodipodi:nodetypes="sssscsscsss" /><path
       id="rect5"
       style="fill:#f5f5f5;fill-opacity:1;stroke:none;stroke-width:0.822422;stroke-linecap:round;stroke-linejoin:round;stroke-dasharray:none;stroke-dashoffset:0;stroke-opacity:1;paint-order:markers stroke fill"
       d="m 2.2722127,1.4257528 c -0.259897,0 -0.469222,0.2093249 -0.469222,0.469222 v 3.9268921 c 0,0.259897 0.209325,0.469222 0.469222,0.469222 h 3.0442587 c 0.259897,0 0.469222,-0.209325 0.469222,-0.469222 V 1.8949748 c 0,-0.2598971 -0.209325,-0.469222 -0.469222,-0.469222 z"
       sodipodi:nodetypes="sssssssss" /></g></svg>
