<?xml version="1.0" encoding="UTF-8" standalone="no"?>
<!-- Created with Inkscape (http://www.inkscape.org/) -->

<svg
   width="24"
   height="24"
   viewBox="0 0 6.3499999 6.3499999"
   version="1.1"
   id="svg1"
   xml:space="preserve"
   sodipodi:docname="eye-open2.svg"
   inkscape:version="1.4 (86a8ad7, 2024-10-11)"
   xmlns:inkscape="http://www.inkscape.org/namespaces/inkscape"
   xmlns:sodipodi="http://sodipodi.sourceforge.net/DTD/sodipodi-0.dtd"
   xmlns="http://www.w3.org/2000/svg"
   xmlns:svg="http://www.w3.org/2000/svg"><sodipodi:namedview
     id="namedview1"
     pagecolor="#505050"
     bordercolor="#ffffff"
     borderopacity="1"
     inkscape:showpageshadow="0"
     inkscape:pageopacity="0"
     inkscape:pagecheckerboard="1"
     inkscape:deskcolor="#505050"
     inkscape:document-units="mm"
     inkscape:zoom="32"
     inkscape:cx="19.25"
     inkscape:cy="12.203125"
     inkscape:window-width="3440"
     inkscape:window-height="1377"
     inkscape:window-x="-8"
     inkscape:window-y="-8"
     inkscape:window-maximized="1"
     inkscape:current-layer="layer1"
     showgrid="false"
     showguides="true" /><defs
     id="defs1"><inkscape:perspective
       sodipodi:type="inkscape:persp3d"
       inkscape:vp_x="0 : 3.175 : 1"
       inkscape:vp_y="-1.8369095e-13 : 1000 : 0"
       inkscape:vp_z="6.3499999 : 3.175 : 1"
       inkscape:persp3d-origin="3.175 : 2.1166666 : 1"
       id="perspective1" /><inkscape:path-effect
       effect="mirror_symmetry"
       start_point="3.175,0"
       end_point="3.175,6.35"
       center_point="3.175,3.175"
       id="path-effect4"
       is_visible="true"
       lpeversion="1.2"
       lpesatellites=""
       mode="vertical"
       discard_orig_path="false"
       fuse_paths="false"
       oposite_fuse="false"
       split_items="false"
       split_open="false"
       link_styles="false" /><inkscape:perspective
       sodipodi:type="inkscape:persp3d"
       inkscape:vp_x="0 : 3.175 : 1"
       inkscape:vp_y="-1.8369095e-13 : 1000 : 0"
       inkscape:vp_z="6.3499999 : 3.175 : 1"
       inkscape:persp3d-origin="3.175 : 2.1166666 : 1"
       id="perspective1-8" /></defs><g
     inkscape:label="Layer 1"
     inkscape:groupmode="layer"
     id="layer1"><path
       id="circle2"
       style="fill:#ffffff;stroke-width:113.743;stroke-linecap:round;stroke-linejoin:round;paint-order:markers stroke fill;fill-opacity:1"
       d="m 3.175,1.1415324 c -1.8834124,0 -2.92695312,1.81463 -2.92695312,2.0334676 0,0.2188376 1.04354082,2.0334676 2.92695312,2.0334676 1.8834123,0 2.9269531,-1.81463 2.9269531,-2.0334676 0,-0.2188376 -1.0435408,-2.0334676 -2.9269531,-2.0334676 z m 0,0.6020304 c 0.7906303,0 1.4314372,0.6408069 1.4314372,1.4314372 0,0.7906303 -0.6408069,1.4314372 -1.4314372,1.4314372 -0.7906303,0 -1.4314372,-0.6408069 -1.4314372,-1.4314372 0,-0.7906303 0.6408069,-1.4314372 1.4314372,-1.4314372 z m 0,0.6655925 A 0.76593167,0.76593167 0 0 0 2.4091553,3.175 0.76593167,0.76593167 0 0 0 3.175,3.9408447 0.76593167,0.76593167 0 0 0 3.9408447,3.175 0.76593167,0.76593167 0 0 0 3.175,2.4091553 Z" /></g></svg>
