<?xml version="1.0" encoding="UTF-8" standalone="no"?>
<!-- Created with Inkscape (http://www.inkscape.org/) -->

<svg
   width="16"
   height="16"
   viewBox="0 0 4.2333333 4.2333333"
   version="1.1"
   id="svg1"
   inkscape:version="1.3 (0e150ed6c4, 2023-07-21)"
   sodipodi:docname="mute.svg"
   xmlns:inkscape="http://www.inkscape.org/namespaces/inkscape"
   xmlns:sodipodi="http://sodipodi.sourceforge.net/DTD/sodipodi-0.dtd"
   xmlns="http://www.w3.org/2000/svg"
   xmlns:svg="http://www.w3.org/2000/svg">
  <sodipodi:namedview
     id="namedview1"
     pagecolor="#505050"
     bordercolor="#ffffff"
     borderopacity="1"
     inkscape:showpageshadow="0"
     inkscape:pageopacity="0"
     inkscape:pagecheckerboard="1"
     inkscape:deskcolor="#505050"
     inkscape:document-units="mm"
     inkscape:zoom="20.59375"
     inkscape:cx="4.3945371"
     inkscape:cy="7.259484"
     inkscape:window-width="1600"
     inkscape:window-height="837"
     inkscape:window-x="-8"
     inkscape:window-y="-8"
     inkscape:window-maximized="1"
     inkscape:current-layer="layer1"
     showguides="true" />
  <defs
     id="defs1" />
  <g
     inkscape:label="Layer 1"
     inkscape:groupmode="layer"
     id="layer1">
    <path
       id="rect2"
       style="fill:#f5f5f5;stroke-width:0.464173;stroke-linecap:round;stroke-linejoin:round;paint-order:markers stroke fill"
       d="M 1.9146118 0.78909912 C 1.8416122 0.78464411 1.7633589 0.80864917 1.7001546 0.8604126 L 1.1544515 1.3074137 L 0.53846842 1.3074137 C 0.39829907 1.3074137 0.28577067 1.4204589 0.28577067 1.5606283 L 0.28577067 2.6727051 C 0.28577067 2.8128744 0.39829907 2.9259196 0.53846842 2.9259196 L 1.1544515 2.9259196 L 1.7001546 3.3729207 C 1.8684993 3.5107927 2.1435384 3.450844 2.1435384 3.1822347 L 2.1435384 1.0510986 C 2.1435384 0.88321787 2.0362779 0.79652414 1.9146118 0.78909912 z " />
    <path
       style="color:#000000;fill:#f5f5f5;stroke-linecap:round;stroke-linejoin:round;-inkscape-stroke:none;paint-order:markers stroke fill"
       d="m 2.7207031,1.3007812 a 0.19939651,0.19939651 0 0 0 -0.2734375,0.072266 0.19939651,0.19939651 0 0 0 0.074219,0.2734375 c 0.1683665,0.097206 0.2714844,0.2762902 0.2714844,0.4707031 0,0.1944129 -0.1031179,0.3734967 -0.2714844,0.4707031 A 0.19939651,0.19939651 0 0 0 2.4472656,2.859375 0.19939651,0.19939651 0 0 0 2.7207031,2.9316406 C 3.0119028,2.7635164 3.1914063,2.453436 3.1914063,2.1171875 c 0,-0.3362484 -0.1795035,-0.648282 -0.4707032,-0.8164063 z"
       id="path3" />
    <path
       style="color:#000000;fill:#f5f5f5;stroke-linecap:round;stroke-linejoin:round;-inkscape-stroke:none;paint-order:markers stroke fill"
       d="m 3.0703125,0.59570312 a 0.199397,0.199397 0 0 0 -0.2734375,0.0722656 0.199397,0.199397 0 0 0 0.074219,0.2734375 C 3.2913442,1.184038 3.5488281,1.631924 3.5488281,2.1171875 c 0,0.4852635 -0.2574838,0.9331495 -0.6777343,1.1757813 a 0.199397,0.199397 0 0 0 -0.074219,0.2714843 0.199397,0.199397 0 0 0 0.2734375,0.072266 c 0.543084,-0.3135497 0.8769531,-0.8924319 0.8769531,-1.5195313 0,-0.6270994 -0.3338691,-1.20793467 -0.8769531,-1.52148438 z"
       id="path4" />
  </g>
</svg>
