<?xml version="1.0" encoding="UTF-8" standalone="no"?>
<!-- Created with Inkscape (http://www.inkscape.org/) -->

<svg
   width="24"
   height="24"
   viewBox="0 0 6.3499999 6.3499999"
   version="1.1"
   id="svg1"
   xml:space="preserve"
   sodipodi:docname="trash.svg"
   inkscape:version="1.4 (86a8ad7, 2024-10-11)"
   xmlns:inkscape="http://www.inkscape.org/namespaces/inkscape"
   xmlns:sodipodi="http://sodipodi.sourceforge.net/DTD/sodipodi-0.dtd"
   xmlns="http://www.w3.org/2000/svg"
   xmlns:svg="http://www.w3.org/2000/svg"><sodipodi:namedview
     id="namedview1"
     pagecolor="#505050"
     bordercolor="#ffffff"
     borderopacity="1"
     inkscape:showpageshadow="0"
     inkscape:pageopacity="0"
     inkscape:pagecheckerboard="1"
     inkscape:deskcolor="#505050"
     inkscape:document-units="mm"
     inkscape:zoom="32"
     inkscape:cx="13.5"
     inkscape:cy="11.828125"
     inkscape:window-width="3440"
     inkscape:window-height="1377"
     inkscape:window-x="-8"
     inkscape:window-y="-8"
     inkscape:window-maximized="1"
     inkscape:current-layer="layer1"
     showgrid="false"
     showguides="true" /><defs
     id="defs1"><inkscape:path-effect
       effect="fillet_chamfer"
       id="path-effect6"
       is_visible="true"
       lpeversion="1"
       nodesatellites_param="F,0,0,1,0,0,0,1 @ F,0,0,1,0,0,0,1 @ F,0,1,1,0,0.54914562,0,1 @ F,0,0,1,0,0.54914562,0,1"
       radius="0"
       unit="px"
       method="auto"
       mode="F"
       chamfer_steps="1"
       flexible="false"
       use_knot_distance="true"
       apply_no_radius="true"
       apply_with_radius="true"
       only_selected="false"
       hide_knots="false" /><inkscape:path-effect
       effect="fillet_chamfer"
       id="path-effect5"
       is_visible="true"
       lpeversion="1"
       nodesatellites_param="F,0,1,1,0,0.2639047,0,1 @ F,0,0,1,0,0.2639047,0,1 @ F,0,0,1,0,0,0,1 @ F,0,0,1,0,0,0,1"
       radius="0"
       unit="px"
       method="auto"
       mode="F"
       chamfer_steps="1"
       flexible="false"
       use_knot_distance="true"
       apply_no_radius="true"
       apply_with_radius="true"
       only_selected="false"
       hide_knots="false" /><inkscape:perspective
       sodipodi:type="inkscape:persp3d"
       inkscape:vp_x="0 : 3.175 : 1"
       inkscape:vp_y="-1.8369095e-13 : 1000 : 0"
       inkscape:vp_z="6.3499999 : 3.175 : 1"
       inkscape:persp3d-origin="3.175 : 2.1166666 : 1"
       id="perspective1" /><inkscape:path-effect
       effect="mirror_symmetry"
       start_point="3.175,0"
       end_point="3.175,6.35"
       center_point="3.175,3.175"
       id="path-effect4"
       is_visible="true"
       lpeversion="1.2"
       lpesatellites=""
       mode="vertical"
       discard_orig_path="false"
       fuse_paths="false"
       oposite_fuse="false"
       split_items="false"
       split_open="false"
       link_styles="false" /><inkscape:perspective
       sodipodi:type="inkscape:persp3d"
       inkscape:vp_x="0 : 3.175 : 1"
       inkscape:vp_y="-1.8369095e-13 : 1000 : 0"
       inkscape:vp_z="6.3499999 : 3.175 : 1"
       inkscape:persp3d-origin="3.175 : 2.1166666 : 1"
       id="perspective1-8" /></defs><g
     inkscape:label="Layer 1"
     inkscape:groupmode="layer"
     id="layer1"><path
       id="path3"
       style="fill:#e05657;stroke-width:1.05108;stroke-linecap:round;stroke-linejoin:round;paint-order:markers fill stroke"
       d="m 2.6815398,0.45268551 c -0.3249168,-2e-8 -0.6091673,0.23565372 -0.6713449,0.55456569 l -0.08256,0.4225779 H 1.1025756 C 0.91083817,1.4297057 0.75537339,1.5851705 0.75549683,1.7769079 0.75537339,1.9686453 0.91083817,2.1241101 1.1025756,2.1239867 h 0.09451 v 2.8494137 c 10e-8,0.5062304 0.4176835,0.9239141 0.9239139,0.9239141 h 2.1080014 c 0.5062303,0 0.9239139,-0.4176837 0.9239139,-0.9239141 V 2.1239867 h 0.09451 C 5.4391618,2.1241101 5.5946266,1.9686453 5.5945032,1.7769079 5.5946266,1.5851705 5.4391618,1.4297057 5.2474244,1.4298291 H 4.3609883 L 4.2784281,1.0072512 C 4.2162504,0.68833923 3.9319999,0.45268549 3.6070832,0.45268551 Z m 0.00815,0.69415759 h 0.9092487 l 0.055402,0.282986 H 2.6342849 Z M 1.8912414,2.1239867 h 2.5680573 v 2.8494137 c 0,0.1313211 -0.098979,0.2297564 -0.2302996,0.2297564 H 2.1209993 c -0.1313211,0 -0.2297563,-0.098436 -0.2297563,-0.2297564 z M 2.644605,2.6595418 C 2.4528676,2.6594184 2.2974028,2.8148831 2.2975262,3.0066206 V 4.4438201 C 2.2977028,4.6353454 2.4530797,4.7904792 2.644605,4.7903558 2.8359182,4.7901794 2.9909642,4.6351333 2.9911406,4.4438201 V 3.0066206 C 2.991264,2.8150952 2.8361302,2.6597184 2.644605,2.6595418 Z m 1.0629627,0 C 3.5160425,2.6597184 3.3609087,2.8150952 3.3610321,3.0066206 V 4.4438201 C 3.3612085,4.6351333 3.5162545,4.7901794 3.7075677,4.7903558 3.8982443,4.7892842 4.0523011,4.6344996 4.0524739,4.4438201 V 3.0066206 C 4.0525998,2.8157291 3.8984562,2.6606145 3.7075677,2.6595418 Z"
       sodipodi:nodetypes="sccccccssssccccccsscccccccssssccccccccccccccc" /></g></svg>
