<?xml version="1.0" encoding="UTF-8" standalone="no"?>
<!-- Created with Inkscape (http://www.inkscape.org/) -->

<svg
   width="24"
   height="24"
   viewBox="0 0 6.3499999 6.3499999"
   version="1.1"
   id="svg1"
   xml:space="preserve"
   sodipodi:docname="videotype-longform.svg"
   inkscape:version="1.4 (86a8ad7, 2024-10-11)"
   xmlns:inkscape="http://www.inkscape.org/namespaces/inkscape"
   xmlns:sodipodi="http://sodipodi.sourceforge.net/DTD/sodipodi-0.dtd"
   xmlns="http://www.w3.org/2000/svg"
   xmlns:svg="http://www.w3.org/2000/svg"><sodipodi:namedview
     id="namedview1"
     pagecolor="#505050"
     bordercolor="#ffffff"
     borderopacity="1"
     inkscape:showpageshadow="0"
     inkscape:pageopacity="0"
     inkscape:pagecheckerboard="1"
     inkscape:deskcolor="#505050"
     inkscape:document-units="mm"
     inkscape:zoom="22.627417"
     inkscape:cx="16.042485"
     inkscape:cy="12.087107"
     inkscape:window-width="3440"
     inkscape:window-height="1377"
     inkscape:window-x="-8"
     inkscape:window-y="-8"
     inkscape:window-maximized="1"
     inkscape:current-layer="layer1"
     showgrid="false"
     showguides="true" /><defs
     id="defs1"><inkscape:perspective
       sodipodi:type="inkscape:persp3d"
       inkscape:vp_x="0 : 3.175 : 1"
       inkscape:vp_y="-1.8369095e-13 : 1000 : 0"
       inkscape:vp_z="6.3499999 : 3.175 : 1"
       inkscape:persp3d-origin="3.175 : 2.1166666 : 1"
       id="perspective1" /></defs><g
     inkscape:label="Layer 1"
     inkscape:groupmode="layer"
     id="layer1"><path
       id="rect1"
       style="fill:#ffffff;fill-opacity:1;stroke-width:0.673308;stroke-linecap:round;stroke-linejoin:round"
       d="m 1.309709,0.50285166 c -0.44706968,0 -0.80685734,0.35978766 -0.80685734,0.80685734 v 3.730582 c 0,0.4470697 0.35978766,0.8068574 0.80685734,0.8068574 h 3.730582 c 0.4470697,0 0.8068574,-0.3597877 0.8068574,-0.8068574 V 1.309709 c 0,-0.44706968 -0.3597877,-0.80685734 -0.8068574,-0.80685734 z M 1.282512,0.94390345 h 0.513125 c 0.1775708,0 0.3204764,0.14290565 0.3204764,0.32047645 v 0.5126717 c 0,0.1775709 -0.1429056,0.3204765 -0.3204764,0.3204765 H 1.282512 c -0.1775709,0 -0.32047652,-0.1429056 -0.32047652,-0.3204765 V 1.2643799 c 0,-0.1775708 0.14290562,-0.32047645 0.32047652,-0.32047645 z m 1.6359259,0 h 0.513125 c 0.1775708,0 0.3204765,0.14290565 0.3204765,0.32047645 v 0.5126717 c 0,0.1775709 -0.1429057,0.3204765 -0.3204765,0.3204765 h -0.513125 c -0.1775708,0 -0.3204765,-0.1429056 -0.3204765,-0.3204765 V 1.2643799 c 0,-0.1775708 0.1429057,-0.32047645 0.3204765,-0.32047645 z m 1.6359259,0 h 0.513125 c 0.1775709,0 0.3204765,0.14290565 0.3204765,0.32047645 v 0.5126717 c 0,0.1775709 -0.1429056,0.3204765 -0.3204765,0.3204765 h -0.513125 c -0.1775708,0 -0.3204764,-0.1429056 -0.3204764,-0.3204765 V 1.2643799 c 0,-0.1775708 0.1429056,-0.32047645 0.3204764,-0.32047645 z M 1.2825116,4.1441354 h 0.513125 c 0.1775708,0 0.3204764,0.1429057 0.3204764,0.3204765 v 0.5126717 c 0,0.1775708 -0.1429056,0.3204765 -0.3204764,0.3204765 h -0.513125 c -0.1775709,0 -0.32047652,-0.1429057 -0.32047652,-0.3204765 V 4.4646119 c 0,-0.1775708 0.14290562,-0.3204765 0.32047652,-0.3204765 z m 1.6359259,0 h 0.513125 c 0.1775708,0 0.3204765,0.1429057 0.3204765,0.3204765 v 0.5126717 c 0,0.1775708 -0.1429057,0.3204765 -0.3204765,0.3204765 h -0.513125 c -0.1775708,0 -0.3204765,-0.1429057 -0.3204765,-0.3204765 V 4.4646119 c 0,-0.1775708 0.1429057,-0.3204765 0.3204765,-0.3204765 z m 1.6359259,0 h 0.513125 c 0.1775709,0 0.3204765,0.1429057 0.3204765,0.3204765 v 0.5126717 c 0,0.1775708 -0.1429056,0.3204765 -0.3204765,0.3204765 h -0.513125 c -0.1775708,0 -0.3204764,-0.1429057 -0.3204764,-0.3204765 V 4.4646119 c 0,-0.1775708 0.1429056,-0.3204765 0.3204764,-0.3204765 z" /></g></svg>
