<?xml version="1.0" encoding="UTF-8" standalone="no"?>
<!-- Created with Inkscape (http://www.inkscape.org/) -->

<svg
   width="24"
   height="24"
   viewBox="0 0 6.3499999 6.3499999"
   version="1.1"
   id="svg1"
   xml:space="preserve"
   sodipodi:docname="x-spaced.svg"
   inkscape:version="1.4 (86a8ad7, 2024-10-11)"
   xmlns:inkscape="http://www.inkscape.org/namespaces/inkscape"
   xmlns:sodipodi="http://sodipodi.sourceforge.net/DTD/sodipodi-0.dtd"
   xmlns="http://www.w3.org/2000/svg"
   xmlns:svg="http://www.w3.org/2000/svg"><sodipodi:namedview
     id="namedview1"
     pagecolor="#505050"
     bordercolor="#ffffff"
     borderopacity="1"
     inkscape:showpageshadow="0"
     inkscape:pageopacity="0"
     inkscape:pagecheckerboard="1"
     inkscape:deskcolor="#505050"
     inkscape:document-units="mm"
     inkscape:zoom="22.627417"
     inkscape:cx="13.656"
     inkscape:cy="9.0377085"
     inkscape:window-width="3440"
     inkscape:window-height="1377"
     inkscape:window-x="-8"
     inkscape:window-y="-8"
     inkscape:window-maximized="1"
     inkscape:current-layer="layer1"
     showgrid="false"
     showguides="true" /><defs
     id="defs1"><inkscape:perspective
       sodipodi:type="inkscape:persp3d"
       inkscape:vp_x="0 : 3.175 : 1"
       inkscape:vp_y="-1.8369095e-13 : 1000 : 0"
       inkscape:vp_z="6.3499999 : 3.175 : 1"
       inkscape:persp3d-origin="3.175 : 2.1166666 : 1"
       id="perspective1" /></defs><g
     inkscape:label="Layer 1"
     inkscape:groupmode="layer"
     id="layer1"><path
       id="path20"
       style="color:#000000;fill:#f5f5f5;stroke-width:0.784264;stroke-linecap:round;stroke-linejoin:round;-inkscape-stroke:none;paint-order:markers stroke fill"
       d="M 5.0686128,0.81207243 A 0.46992738,0.46992738 0 0 0 4.7362836,0.94986764 L 3.1747401,2.5110057 1.6136018,0.94986764 a 0.46992738,0.46992738 0 0 0 -0.66465908,0 0.46992738,0.46992738 0 0 0 0,0.66303786 L 2.5108915,3.1748544 0.94975333,4.7363979 a 0.46992738,0.46992738 0 0 0 0,0.6646591 0.46992738,0.46992738 0 0 0 0.66303797,0 L 3.1747401,3.8387029 4.7370942,5.401057 a 0.46992738,0.46992738 0 0 0 0.6630382,0 A 0.46992738,0.46992738 0 0 0 5.5379277,5.0687274 0.46992738,0.46992738 0 0 0 5.4001324,4.7363979 L 3.8385886,3.1748544 5.4009426,1.6129055 a 0.46992738,0.46992738 0 0 0 0,-0.66303786 0.46992738,0.46992738 0 0 0 -0.3323298,-0.13779521 z" /></g></svg>
