<?xml version="1.0" encoding="UTF-8" standalone="no"?>
<!-- Created with Inkscape (http://www.inkscape.org/) -->

<svg
   xmlns:dc="http://purl.org/dc/elements/1.1/"
   xmlns:cc="http://creativecommons.org/ns#"
   xmlns:rdf="http://www.w3.org/1999/02/22-rdf-syntax-ns#"
   xmlns:svg="http://www.w3.org/2000/svg"
   xmlns="http://www.w3.org/2000/svg"
   xmlns:sodipodi="http://sodipodi.sourceforge.net/DTD/sodipodi-0.dtd"
   xmlns:inkscape="http://www.inkscape.org/namespaces/inkscape"
   width="996.16406"
   height="835.39844"
   viewBox="0 0 263.56841 221.03251"
   version="1.1"
   id="svg8"
   inkscape:version="0.92.4 (5da689c313, 2019-01-14)"
   sodipodi:docname="Toyota_Tacoma_2022-front.svg">
  <defs
     id="defs2">
    <inkscape:path-effect
       effect="mirror_symmetry"
       start_point="1500,0"
       end_point="1500,3000"
       center_point="1500,1500"
       id="path-effect865"
       is_visible="true"
       mode="vertical"
       discard_orig_path="false"
       fuse_paths="false"
       oposite_fuse="false" />
    <inkscape:path-effect
       effect="mirror_symmetry"
       start_point="396.875,-496.75002"
       end_point="396.875,296.99998"
       center_point="396.875,-99.87502"
       id="path-effect854"
       is_visible="true"
       mode="vertical"
       discard_orig_path="false"
       fuse_paths="false"
       oposite_fuse="false" />
    <inkscape:path-effect
       effect="mirror_symmetry"
       start_point="396.875,-496.75002"
       end_point="396.875,296.99998"
       center_point="396.875,-99.87502"
       id="path-effect843"
       is_visible="true"
       mode="vertical"
       discard_orig_path="false"
       fuse_paths="false"
       oposite_fuse="false" />
  </defs>
  <sodipodi:namedview
     id="base"
     pagecolor="#ffffff"
     bordercolor="#666666"
     borderopacity="1.0"
     inkscape:pageopacity="0.0"
     inkscape:pageshadow="2"
     inkscape:zoom="0.175"
     inkscape:cx="442.18528"
     inkscape:cy="1143.937"
     inkscape:document-units="mm"
     inkscape:current-layer="layer1"
     showgrid="false"
     inkscape:pagecheckerboard="true"
     inkscape:showpageshadow="false"
     borderlayer="true"
     units="px"
     showguides="true"
     inkscape:guide-bbox="true"
     inkscape:snap-page="true"
     inkscape:snap-object-midpoints="true"
     inkscape:snap-global="false"
     inkscape:window-width="1600"
     inkscape:window-height="837"
     inkscape:window-x="-8"
     inkscape:window-y="-8"
     inkscape:window-maximized="1"
     fit-margin-top="0"
     fit-margin-left="0"
     fit-margin-right="0"
     fit-margin-bottom="0" />
  <metadata
     id="metadata5">
    <rdf:RDF>
      <cc:Work
         rdf:about="">
        <dc:format>image/svg+xml</dc:format>
        <dc:type
           rdf:resource="http://purl.org/dc/dcmitype/StillImage" />
        <dc:title></dc:title>
      </cc:Work>
    </rdf:RDF>
  </metadata>
  <g
     inkscape:label="Layer 1"
     inkscape:groupmode="layer"
     id="layer1"
     transform="translate(-240.90032,143.12274)">
    <path
       style="opacity:1;fill:#555555;fill-opacity:1;fill-rule:nonzero;stroke:none;stroke-width:3;stroke-linecap:round;stroke-linejoin:round;stroke-miterlimit:4;stroke-dasharray:none;stroke-dashoffset:0;stroke-opacity:1;paint-order:normal"
       d="m 370.92703,-143.12274 -0.9633,5.13819 -57.9696,1.27641 c -11.7734,0 -18.2499,6.01535 -22.4508,16.03623 l -16.57056,41.426935 -2.67269,-0.53433 v -9.62165 c 0,-4.20799 -2.40054,-5.88026 -5.87976,-5.88026 h -12.29434 c -6.28147,0 -11.22566,6.74373 -11.22566,12.8292 0,6.08547 7.51901,9.12571 29.39976,10.15598 l -6.41461,14.96702 1.06918,5.34541 -9.0873,8.01812 c 0.40508,11.02923 1.42296,22.58779 3.17759,33.71424 -0.98459,1.2332198 -1.57406,2.7977798 -1.57406,4.5056598 V 70.693155 c 0,3.99783 3.21879,7.21661 7.21662,7.21661 h 25.12303 c 3.9978,0 7.2166,-3.21878 7.2166,-7.21661 v -32.59852 c 16.0314,2.61765 34.4517,3.46644 43.8319,3.46644 h 15.8099 a 18.898809,11.90625 0 0 0 16.0156,5.59657 18.898809,11.90625 0 0 0 15.9995,-5.59657 h 15.8259 c 9.3802,0 27.8006,-0.84879 43.832,-3.46644 v 32.59852 c 0,3.99783 3.2188,7.21661 7.2166,7.21661 h 25.123 c 3.9978,0 7.2166,-3.21878 7.2166,-7.21661 V -5.7455852 c 0,-1.70788 -0.5894,-3.27244 -1.574,-4.5056598 1.7546,-11.12645 2.7725,-22.68501 3.1776,-33.71424 l -9.0873,-8.01812 1.0691,-5.34541 -6.4146,-14.96702 c 21.8808,-1.03027 29.3998,-4.07051 29.3998,-10.15598 0,-6.08547 -4.9442,-12.8292 -11.2257,-12.8292 h -12.2943 c -3.4792,0 -5.8798,1.67227 -5.8798,5.88026 v 9.62165 l -2.6727,0.53433 -16.5705,-41.426935 c -4.2009,-10.02088 -10.6774,-16.03623 -22.4509,-16.03623 l -57.9696,-1.27641 -0.9632,-5.13819 z"
       id="path841"
       inkscape:connector-curvature="0" />
  </g>
</svg>
