<?xml version="1.0" encoding="UTF-8" standalone="no"?>
<svg
   viewBox="0 0 456.21042 456.21045"
   version="1.1"
   id="svg5"
   sodipodi:docname="Inner_Solar_System_Orbits-top.svg"
   width="456.21042"
   height="456.21045"
   inkscape:version="1.3 (0e150ed6c4, 2023-07-21)"
   xmlns:inkscape="http://www.inkscape.org/namespaces/inkscape"
   xmlns:sodipodi="http://sodipodi.sourceforge.net/DTD/sodipodi-0.dtd"
   xmlns="http://www.w3.org/2000/svg"
   xmlns:svg="http://www.w3.org/2000/svg">
  <defs
     id="defs5" />
  <sodipodi:namedview
     id="namedview5"
     pagecolor="#505050"
     bordercolor="#ffffff"
     borderopacity="1"
     inkscape:showpageshadow="0"
     inkscape:pageopacity="0"
     inkscape:pagecheckerboard="1"
     inkscape:deskcolor="#505050"
     inkscape:zoom="0.77014925"
     inkscape:cx="281.76357"
     inkscape:cy="243.4593"
     inkscape:current-layer="svg5"
     inkscape:window-width="1600"
     inkscape:window-height="837"
     inkscape:window-x="-8"
     inkscape:window-y="-8"
     inkscape:window-maximized="1" />
  <path
     style="color:#000000;fill:#ffffff;-inkscape-stroke:none;stroke:none;fill-opacity:1"
     d="m 228.10547,169.7207 c -32.22696,1e-5 -58.38476,26.15781 -58.38477,58.38477 0,32.22696 26.15781,58.38476 58.38477,58.38476 32.22696,0 58.38477,-26.1578 58.38476,-58.38476 0,-32.22696 -26.1578,-58.38476 -58.38476,-58.38477 z m 0,3 c 30.60564,1e-5 55.38476,24.77913 55.38476,55.38477 10e-6,30.60564 -24.77912,55.38476 -55.38476,55.38476 -30.60564,0 -55.38477,-24.77912 -55.38477,-55.38476 1e-5,-30.60564 24.77913,-55.38476 55.38477,-55.38477 z"
     id="ellipse2" />
  <path
     style="color:#000000;fill:#ffffff;-inkscape-stroke:none;stroke:none;fill-opacity:1"
     d="m 228.10547,119.5293 c -59.94698,0 -108.57617,48.62919 -108.57617,108.57617 0,59.94698 48.62919,108.57617 108.57617,108.57617 59.94698,0 108.57617,-48.62919 108.57617,-108.57617 0,-59.94698 -48.62919,-108.57617 -108.57617,-108.57617 z m 0,3 c 58.32566,0 105.57617,47.25051 105.57617,105.57617 0,58.32566 -47.25051,105.57617 -105.57617,105.57617 -58.32566,0 -105.57617,-47.25051 -105.57617,-105.57617 0,-58.32566 47.25051,-105.57617 105.57617,-105.57617 z"
     id="ellipse3" />
  <path
     style="color:#000000;fill:#ffffff;-inkscape-stroke:none;stroke:none;fill-opacity:1"
     d="m 228.10547,78.181641 c -82.78248,-3e-6 -149.923829,67.141349 -149.923829,149.923829 -6e-6,82.78248 67.141339,149.92383 149.923829,149.92383 82.78248,0 149.92383,-67.14135 149.92383,-149.92383 0,-82.78248 -67.14135,-149.923829 -149.92383,-149.923829 z m 0,3 c 81.16116,0 146.92383,65.762669 146.92383,146.923829 0,81.16116 -65.76267,146.92383 -146.92383,146.92383 -81.16117,0 -146.923835,-65.76266 -146.923829,-146.92383 0,-81.16116 65.762669,-146.923832 146.923829,-146.923829 z"
     id="ellipse4" />
  <path
     style="color:#000000;fill:#ffffff;-inkscape-stroke:none;stroke:none;fill-opacity:1"
     d="M 228.10547,0 C 102.14433,0 0,102.14433 0,228.10547 c -5.558616e-6,125.96114 102.14433,228.10547 228.10547,228.10547 125.96114,0 228.10547,-102.14433 228.10547,-228.10547 C 456.21094,102.14433 354.0666,0 228.10547,0 Z m 0,3 c 124.33982,0 225.10547,100.76565 225.10547,225.10547 0,124.33983 -100.76565,225.10547 -225.10547,225.10547 C 103.76565,453.21094 2.9999945,352.4453 3,228.10547 3,103.76565 103.76565,3 228.10547,3 Z"
     id="ellipse5" />
</svg>
