<?xml version="1.0" encoding="UTF-8" standalone="no"?>
<!-- Created with Inkscape (http://www.inkscape.org/) -->

<svg
   width="194.11592mm"
   height="112.59088mm"
   viewBox="0 0 194.11592 112.59088"
   version="1.1"
   id="svg1"
   xml:space="preserve"
   inkscape:version="1.3 (0e150ed6c4, 2023-07-21)"
   sodipodi:docname="james webb.svg"
   xmlns:inkscape="http://www.inkscape.org/namespaces/inkscape"
   xmlns:sodipodi="http://sodipodi.sourceforge.net/DTD/sodipodi-0.dtd"
   xmlns="http://www.w3.org/2000/svg"
   xmlns:svg="http://www.w3.org/2000/svg"><sodipodi:namedview
     id="namedview1"
     pagecolor="#505050"
     bordercolor="#eeeeee"
     borderopacity="1"
     inkscape:showpageshadow="0"
     inkscape:pageopacity="0"
     inkscape:pagecheckerboard="0"
     inkscape:deskcolor="#505050"
     inkscape:document-units="mm"
     inkscape:zoom="0.65386545"
     inkscape:cx="382.34166"
     inkscape:cy="872.50366"
     inkscape:window-width="1366"
     inkscape:window-height="715"
     inkscape:window-x="-8"
     inkscape:window-y="-8"
     inkscape:window-maximized="1"
     inkscape:current-layer="layer1" /><defs
     id="defs1" /><g
     inkscape:label="Layer 1"
     inkscape:groupmode="layer"
     id="layer1"
     transform="translate(-11.155474,-72.280885)"><path
       id="path1"
       style="fill:#555555;fill-opacity:1;stroke-width:0.264583"
       d="m 86.175182,72.280885 -0.170015,0.482658 0.08061,0.170015 -0.05374,0.303858 4.543909,7.820194 -67.269796,32.95458 0.001,0.45165 0.257865,0.31316 0.0584,0.8909 h 0.0062 v 6.504 h 0.01292 l 0.237195,0.15968 -0.0062,0.72967 64.986215,22.31647 0.0041,-0.009 1.013891,0.0506 -0.01912,0.0718 0.562756,0.70177 0.924492,0.0724 -0.449585,3.12642 0.679545,0.25063 0.447001,-3.00447 0.196887,0.0181 0.0016,-0.01 1.607653,1.52962 -0.321944,0.17002 0.0093,0.37569 0.205672,0.0982 0.160714,-0.32194 0.617016,0.12506 0.455787,-0.45579 1.037662,0.65267 -0.777213,2.56212 h -0.0057 l -0.19637,0.21911 -79.579122,4.1305 0.04909,-0.24133 -1.502234,-0.0357 -2.535246,12.7031 -0.02532,0.55656 h 0.0083 l -0.242363,0.9989 -0.03152,0.8599 1.239201,0.0129 -0.240296,0.85937 0.101286,0.9586 c 3.096337,0.008 2.387325,1.2e-4 2.878377,0.009 l 2.561084,-0.20257 2.570903,-0.0569 2.005562,-0.0103 0.02429,0.76946 0.578259,0.0481 0.579293,-0.0687 0.0057,-0.709 0.33228,-0.19896 6.312276,-0.23616 5.760372,-0.35243 7.106543,-0.27854 5.032768,-0.24029 1.491898,-0.12609 1.113111,-0.18966 1.706872,-0.31626 2.516643,-0.44286 2.402437,0.0506 3.287654,0.2403 6.246648,0.32866 5.235339,0.20257 7.460526,0.40463 0.138493,-4.41421 v -0.003 l 0.05013,0.0165 1.561145,-0.21962 0.780831,0.0119 -0.763777,0.56069 0.170532,0.34778 0.302824,0.0538 0.209289,-0.10697 -0.04857,-0.39378 0.615983,-0.45372 1.456241,0.0227 1.061434,1.61386 -0.0155,1.65312 0.03204,3.44786 0.353983,3.26233 1.7601,0.0176 c 0.0438,0.0623 0.09665,0.13719 0.159163,0.20774 0.116229,0.13117 0.29714,0.24288 0.29714,0.24288 l 0.21239,-0.0796 0.273368,-0.24598 0.188102,0.11368 c 0,0 0.255408,0.0301 0.356568,0.15658 0.101161,0.12645 0.454666,0.23283 0.593762,0.24547 0.139097,0.0127 0.456303,-0.0899 0.456303,-0.0899 l 0.147794,-0.52452 0.633037,0.006 -0.01757,1.18959 19.724375,-0.0253 2.65565,-0.0253 0.10128,0.80926 0.40463,0.27802 0.35398,-0.32867 -0.48059,-0.70796 1.1126,0.0248 0.0181,-0.0171 0.14625,0.16898 -0.30386,0.21446 c 0,0 -0.0716,0.28628 -0.0537,0.37569 0.0179,0.0894 0.21445,0.2682 0.21445,0.2682 l 0.28629,0.0357 0.14314,-0.21445 h 0.2682 l 0.12506,0.14314 0.16795,0.22117 0.22531,0.0413 0.10077,0.14469 -0.0594,0.10594 -0.14521,0.0114 -0.14624,-0.20258 -0.10749,-0.0894 -0.5364,0.0538 -0.0786,0.34675 -0.12713,-0.0439 -0.0444,-0.339 -0.45578,0.19121 -0.4377,0.35295 -0.37569,0.46973 -0.21704,0.49972 -0.12919,0.68212 0.0594,0.80874 0.25011,0.64389 c 0,0 -0.16081,0.3395 -0.21446,0.42891 -0.0537,0.0894 -0.60771,0.64389 -0.60771,0.64389 l -0.0181,0.37569 0.32195,0.6258 0.447,0.23255 0.55448,-0.0538 0.30386,-0.32194 0.17467,-0.3421 0.0455,-0.38241 0.17777,-0.1912 0.50488,-0.0331 0.39791,0.11472 0.65474,0.0295 0.72709,-0.25012 0.43408,-0.28577 0.62528,-0.48111 0.40721,-0.59221 c 0,0 0.18316,-0.47805 0.20722,-0.60255 0.0183,-0.0945 0.0853,-0.74 0.0853,-0.74 l -0.12919,-0.60513 -0.18138,-0.44907 c 0,0 -0.30417,-0.39311 -0.37569,-0.42892 -0.0332,-0.0166 -0.20093,-0.15294 -0.38396,-0.26923 -0.21113,-0.13415 -0.57877,-0.27854 -0.57877,-0.27854 0,0 -0.39934,-0.0984 -0.52452,-0.11627 -0.12518,-0.0179 -0.59014,-0.10749 -0.59014,-0.10749 l -0.14366,-0.47438 -0.21188,-0.3514 -0.3483,-0.33435 -0.062,-0.0863 0.30489,-0.2837 0.89865,0.0548 3.41892,-0.20257 0.0191,-3.63957 9.30744,-3.48713 0.68265,1.25833 10.32443,-5.3356 2.45308,-0.93534 0.13074,-0.0708 25.15971,-8.90746 -0.20258,-0.35399 -21.93044,7.67189 10.57507,-5.4715 -1.36581,-2.73162 0.30385,-0.20205 -0.22169,-0.43564 0.40463,-0.0894 0.49971,1.18236 6.47454,-2.73162 13.48342,-5.49165 2.44946,-0.9803 0.16795,0.42943 0.18138,0.30386 0.64337,-0.14728 0.39791,-0.3204 -0.19482,-0.58807 0.15968,-0.23772 5.1847,-2.12493 5.76244,-2.36161 3.88296,-1.65003 0.70022,-0.49093 0.24236,-0.42116 2.24173,-1.66088 0.86248,-0.27234 -0.26149,-0.5457 0.52814,-0.67748 0.59169,-0.6444 0.57413,-0.17312 0.49351,0.30489 1.13378,1.64021 3.4649,8.1685 0.55656,0.076 -3.54087,-8.37107 -1.15342,-1.60507 1.31103,-0.49764 -0.25838,-0.78806 -1.15807,-0.80771 -13.9423,-7.72304 -0.65112,0.17415 -0.64079,0.32814 0.42478,0.4036 2.27583,1.27175 -71.13261,20.30161 v -2.75901 h 0.58446 v -0.53692 h -0.58446 v -0.18758 l -0.0305,-3.83388 0.0284,-0.1049 0.22893,-0.29042 0.2682,-0.10749 0.2775,0.11628 0.39326,0.0537 0.41134,-0.12506 0.32195,-0.21497 0.22324,-0.6258 0.11627,-1.71669 0.20567,-0.77774 -0.0269,-10.06811 -0.0103,-0.007 -0.0341,-1.20045 -0.31471,-0.30127 0.35037,-0.45889 -0.0486,-0.43149 -0.12919,-0.49817 c 0,0 -0.26062,-0.41697 -0.77205,-0.76377 l -0.004,-0.19379 0.0785,-4.86275 -0.0114,-3.84525 0.0687,-5.01209 -1.01854,-0.80512 0.54983,-0.59531 -5.1e-4,-5.2e-4 0.2589,-0.31109 -9.3953,-7.46518 9.84178,-5.92057 h 0.17002 l 0.2682,-0.30386 -0.34882,-0.38447 -0.32143,0.23255 -0.001,0.20515 -9.96322,5.88956 -11.531068,-9.16274 -0.0016,-0.0057 -0.596346,0.3266 -0.112654,-0.72761 -0.240296,-2.02313 -0.341581,-1.64383 -0.752926,-4.0473 -1.017509,5.2e-4 -0.330212,0.16175 -0.379822,-0.17467 -0.905371,-1.59267 -1.216463,0.59583 -4.441589,-7.669813 0.04496,-0.170015 0.160714,-0.491443 -0.169499,-0.178801 z m 5.337142,10.387475 0.318843,0.54881 v 0.39532 l 0.02532,1.96009 0.3545,0.56896 v 1.12551 l -0.01912,-0.01292 -1.308964,0.27182 -0.01809,0.35295 0.233061,2.38487 0.17725,0.24029 0.02532,0.99891 0.246496,0.21497 -0.01757,0.55914 -5.350578,-0.8754 0.02532,0.37931 5.31182,0.92087 -5.17e-4,0.0088 0.252698,0.21497 0.0062,0.39171 -0.44235,0.26561 -0.03824,1.92857 0.234094,0.43615 0.01292,1.71359 0.119889,0.93534 0.04444,1.20148 -0.942061,0.02532 v 6.39186 l 0.821655,5.29838 -0.04289,2.56677 -8.612394,1.06919 0.03049,4.72322 8.569503,1.33946 0.04289,2.8391 0.07596,0.74621 -0.853695,4.38164 -0.03824,1.70067 v 4.56458 l 0.06976,1.91616 1.07487,0.20206 -0.05684,1.52394 -0.177251,0.29093 -0.233577,2.90164 -0.15813,0.94257 0.614433,0.35244 -0.134359,0.43408 -0.903821,-0.24288 -0.644922,0.41083 -0.0186,0.0703 -0.606165,-0.47646 0.0052,-0.0109 -65.05391,-22.60224 v -0.39946 l 1.336869,0.48886 0.561723,-0.32143 -0.01344,-5.5733 -0.6196,-0.27182 -1.265556,0.77618 v -0.20567 l 0.591178,-0.43305 34.440275,-16.88527 1.741496,0.2899 0.917257,-1.5937 z m 5.323706,7.7339 11.23187,8.95294 -0.7798,0.46096 -9.70948,-7.67447 -1.131714,-0.03204 -0.01344,-0.99684 -0.07028,-0.45424 z m 11.58792,9.23716 9.2015,7.33444 -0.5736,0.56017 -9.39995,-7.43004 z m 9.85314,23.46679 0.16227,0.11317 0.21135,0.2961 0.10956,0.54106 -0.18242,0.33279 -0.28887,-0.27647 0.004,-0.27543 z m 0.005,1.53737 0.60152,0.49041 -0.10646,0.75396 -0.0186,-0.0119 -0.48886,-0.38189 z m -0.0186,1.31051 0.3607,0.28836 0.0713,0.74207 0.009,0.61702 h -0.4501 l 0.005,-1.36788 z m 69.70324,1.11001 7.89357,4.41162 -10.13064,3.23443 -19.9931,5.86579 -14.87816,4.43487 -12.26798,3.79099 -12.55376,3.82715 -2.86236,0.86248 z m -69.71357,0.91313 h 0.45733 l 0.003,0.18758 -0.0181,2.76314 -0.004,0.33073 h -0.4501 z m 77.6087,3.49901 2.96054,1.65468 0.0305,0.27027 -0.40256,0.28732 -0.53589,-0.0248 -8.42894,3.44269 -8.80876,3.70003 -0.0889,0.3669 -2.1115,0.90382 -1.37149,0.5886 -0.004,-0.14056 0.43409,-0.47284 -0.13695,-0.41445 -0.32453,0.0687 -0.36173,0.22066 -0.27027,0.35967 0.16898,0.59066 -0.0946,0.0403 -2.77038,1.09915 -0.15554,0.37569 -0.31523,0.15917 -0.49403,-0.28577 -25.28476,9.93634 -6.25905,2.64687 -3.14761,1.64537 -9.33483,3.57653 -4.62762,1.10433 -0.69505,0.16433 -0.6072,0.0884 c 0,0 -0.89798,0.27854 -0.96118,0.27854 -0.0632,0 -0.75861,0.18965 -0.75861,0.18965 l -0.076,0.17673 0.0129,0.2403 -0.26561,0.30386 -0.53124,0.10077 -0.5333,-0.4377 0.4439,-0.65009 0.62477,-0.87488 1.40302,0.34881 0.89141,-0.10077 -0.60409,-0.25218 -1.39062,-0.37 -1.26814,-0.19069 -2.24637,-0.1788 -1.47226,0.14366 1.17977,0.38137 1.24747,0.046 1.78284,0.14107 -0.86817,1.32964 -0.0367,-0.03 -0.0134,-0.69609 -2.12235,0.002 c -0.24552,-0.14627 -0.54948,-0.33146 -0.83768,-0.48007 -0.42083,-0.217 -0.89659,-0.47077 -0.89659,-0.47077 l 0.0465,0.22789 0.1416,0.7245 -1.20355,0.001 0.25683,-0.36639 c 0,0 0.53655,-3.7e-4 0.50075,-0.21497 -0.0358,-0.21459 -0.0532,-0.63666 -0.0532,-0.63666 l -0.66197,-0.43614 -0.77308,-0.19121 -0.67955,0.25735 -0.40824,-0.03 -1.00873,0.0413 -1.40973,-0.0512 -0.15554,-0.20516 v -2.57503 l -2.22106,0.22582 2.55799,-0.8816 0.34261,0.40566 19.63549,-6.08024 14.44925,-4.50671 18.20509,-5.54384 17.20309,-5.82962 z m -77.62162,0.16691 h 0.44648 l -0.0176,1.38596 -0.009,2.0836 -0.006,0.22324 h -0.43149 l 0.017,-3.57653 z m -0.0419,4.02353 h 0.44752 l -0.004,0.15245 -0.15245,1.05471 c 0,0 -0.41998,1.10005 -0.45578,1.13585 -0.0358,0.0358 -0.66559,0.80512 -0.66559,0.80512 l -0.23668,-0.094 0.2036,-0.74983 z m -25.707471,8.46718 0.03669,0.0403 -0.02325,0.0124 -0.01395,-0.0403 z m 5.587772,1.43971 1.974039,0.56276 v 2.36161 h 0.0351 l 0.45217,0.15193 v 2.41432 l -0.25477,0.2682 -1.139977,0.0134 0.0088,-0.55914 -1.082105,0.0134 -0.02687,-0.84026 0.268717,-0.29972 -0.02687,-0.33951 -0.460437,0.0176 -0.116272,0.41134 -0.411344,-0.0269 -0.174666,-0.41134 -0.451652,-0.004 -0.06666,0.45578 0.415479,0.10749 0.08527,0.0806 0.0088,1.39009 -1.16272,0.0625 -0.186552,-0.006 0.946712,-2.84066 -0.859896,-0.67024 0.05064,-0.34158 z m 6.784599,1.93321 0.32142,0.0915 -0.21445,1.88309 h 0.008 l -0.13901,1.28313 -0.13694,0.0393 -0.18448,-2.3058 h 0.3452 z m 1.88825,0.53796 3.81114,1.08675 -3.61218,1.03095 -0.0677,-0.68988 h 0.001 z m -0.006,1.42833 0.0729,0.72709 -1.81539,0.5178 0.15761,-1.23765 z m -91.314317,6.27869 23.014616,1.42007 -23.477637,0.85524 z m -0.464571,2.28151 31.24047,0.99839 -31.755167,1.53066 z m -0.516248,2.53628 39.10459,0.0522 -39.427567,2.04845 66.209912,-1.41593 -66.792823,3.76411 z m 85.07026,0.7891 -0.05994,0.50591 -1.685168,-0.076 -2.717147,-0.0682 -0.929142,-0.0589 5.054988,-0.22635 z m -9.905339,0.38602 1.154969,0.0863 -0.7922,0.68472 -0.283187,-0.14935 c 0,0 -0.99005,0.5788 -2.248958,0.76533 -0.224122,0.0332 -0.566627,-0.26108 -0.905371,-0.16588 -0.266582,0.0749 -0.574261,0.25655 -0.858863,0.45062 l -0.744657,-0.0382 0.0047,0.0434 -0.01757,-0.045 -2.825668,0.6258 -0.482657,0.21446 0.0894,0.28628 3.278869,-0.69401 0.0088,0.0832 0.0041,0.82527 -0.502812,-0.005 -0.591179,-0.39997 -4.36149,0.82424 -5.17e-4,-0.0134 -3.578593,0.0755 -4.628141,0.24029 -8.548316,0.6072 -7.321517,0.59428 -3.553271,0.16433 -4.565096,0.29094 -7.296196,0.40463 -14.440462,0.632 -2.061373,0.31626 -0.139009,-0.35399 -1.378211,-0.0506 -0.347782,0.42323 -4.059184,0.22428 -0.378788,-0.13591 -4.446241,0.12609 0.745691,-3.66231 z m 0.817521,1.10898 1.138432,0.4992 h -0.08061 l -0.151929,0.35398 -2.730066,-0.14004 z m 35.282084,1.25626 2.81326,5.18469 -9.09557,3.42305 0.0289,-5.49579 -0.001,-0.0594 0.51935,-0.71158 -0.0124,-0.41755 -0.17725,-0.0124 -0.108,0.16226 -0.18035,0.0217 -0.0274,-0.20929 -0.0398,-0.15451 -0.017,-0.86403 0.18138,-0.20568 0.16071,0.73329 0.19689,0.0538 0.39326,-0.21446 0.37569,-0.16123 0.47387,0.15709 -0.14676,0.22996 0.12712,0.19379 0.22634,-0.0439 0.22118,-0.17364 0.26045,-0.077 1.89601,-0.64389 0.3576,-0.3576 z m -41.102917,1.08313 h 0.387573 l 0.0041,0.73433 -0.463021,-0.0522 -0.438216,-0.0977 -0.519865,0.0253 -1.382345,0.016 1.487765,-0.25579 0.453719,0.004 0.309025,-0.13539 z m 0.01137,1.26763 0.382922,0.006 0.0026,0.48576 z" /></g></svg>
