<?xml version="1.0" encoding="UTF-8" standalone="no"?>
<!-- Created with Inkscape (http://www.inkscape.org/) -->

<svg
   width="60.950237mm"
   height="104.05102mm"
   viewBox="0 0 60.950237 104.05102"
   version="1.1"
   id="svg1"
   xml:space="preserve"
   inkscape:version="1.3 (0e150ed6c4, 2023-07-21)"
   sodipodi:docname="Lightbulb-front.svg"
   xmlns:inkscape="http://www.inkscape.org/namespaces/inkscape"
   xmlns:sodipodi="http://sodipodi.sourceforge.net/DTD/sodipodi-0.dtd"
   xmlns="http://www.w3.org/2000/svg"
   xmlns:svg="http://www.w3.org/2000/svg"><sodipodi:namedview
     id="namedview1"
     pagecolor="#505050"
     bordercolor="#ffffff"
     borderopacity="1"
     inkscape:showpageshadow="0"
     inkscape:pageopacity="0"
     inkscape:pagecheckerboard="1"
     inkscape:deskcolor="#505050"
     inkscape:document-units="mm"
     showguides="true"
     inkscape:zoom="1.1741442"
     inkscape:cx="90.278518"
     inkscape:cy="227.82551"
     inkscape:window-width="1600"
     inkscape:window-height="837"
     inkscape:window-x="-8"
     inkscape:window-y="-8"
     inkscape:window-maximized="1"
     inkscape:current-layer="layer1" /><defs
     id="defs1"><inkscape:path-effect
       effect="mirror_symmetry"
       start_point="105,0"
       end_point="105,297"
       center_point="105,148.5"
       id="path-effect1"
       is_visible="true"
       lpeversion="1.2"
       lpesatellites="#path2"
       mode="vertical"
       discard_orig_path="false"
       fuse_paths="false"
       oposite_fuse="false"
       split_items="true"
       split_open="false"
       link_styles="false" /></defs><g
     inkscape:label="Layer 1"
     inkscape:groupmode="layer"
     id="layer1"
     transform="translate(-74.524709,-100.05177)"><path
       id="path1"
       style="fill:#555555;stroke-width:20;stroke-linecap:round;stroke-linejoin:round;paint-order:markers stroke fill"
       d="m 104.99101,100.05177 c -23.886169,0 -37.406976,23.66089 -26.815937,43.26558 10.59103,19.60468 9.239159,20.05537 9.689848,25.46356 0.45068,5.40819 4.112411,7.88686 4.112411,7.88686 0,0 -0.506855,-0.11275 -1.182874,0.56327 -0.676029,0.67602 0.901206,1.23961 1.126546,2.0283 0.22535,0.7887 -1.295675,1.91504 -0.281636,2.53473 1.014029,0.61969 -0.78873,2.36619 0.225309,2.92954 1.014029,0.56336 -1.053858,2.34862 0.129191,2.91197 1.183039,0.56334 -0.974218,2.18633 0.03979,2.80603 1.014039,0.61968 -1.014072,1.99975 0.281636,2.84478 1.295719,0.84503 -0.901389,2.02819 0.22531,2.81689 1.126709,0.78868 5.577351,4.28182 6.14071,4.84518 0.56335,0.56335 1.989766,3.15433 6.318476,3.15433 4.32872,0 5.75565,-2.59098 6.319,-3.15433 0.56336,-0.56336 5.014,-4.0565 6.14071,-4.84518 1.1267,-0.7887 -1.07041,-1.97186 0.22531,-2.81689 1.29571,-0.84503 -0.73241,-2.2251 0.28163,-2.84478 1.01401,-0.6197 -1.14325,-2.24269 0.0398,-2.80603 1.18305,-0.56335 -0.88483,-2.34861 0.12919,-2.91197 1.01404,-0.56335 -0.78871,-2.30985 0.22531,-2.92954 1.01404,-0.61969 -0.50698,-1.74603 -0.28163,-2.53473 0.22534,-0.78869 1.80257,-1.35228 1.12654,-2.0283 -0.67602,-0.67602 -1.18287,-0.56327 -1.18287,-0.56327 0,0 3.66173,-2.47867 4.11241,-7.88686 0.45069,-5.40819 -0.9017,-5.85888 9.68933,-25.46356 10.59104,-19.60469 -2.92925,-43.26558 -26.81542,-43.26558 0,0 -0.009,0.23797 -0.009,0.24082 -1.2e-4,-0.003 -0.009,-0.24082 -0.009,-0.24082 z" /></g></svg>
