<?xml version="1.0" encoding="UTF-8" standalone="no"?>
<!-- Created with Inkscape (http://www.inkscape.org/) -->

<svg
   width="32"
   height="32"
   viewBox="0 0 8.4666665 8.4666666"
   version="1.1"
   id="svg1"
   xml:space="preserve"
   sodipodi:docname="copy-link.svg"
   inkscape:version="1.3 (0e150ed6c4, 2023-07-21)"
   xmlns:inkscape="http://www.inkscape.org/namespaces/inkscape"
   xmlns:sodipodi="http://sodipodi.sourceforge.net/DTD/sodipodi-0.dtd"
   xmlns="http://www.w3.org/2000/svg"
   xmlns:svg="http://www.w3.org/2000/svg"><sodipodi:namedview
     id="namedview1"
     pagecolor="#505050"
     bordercolor="#ffffff"
     borderopacity="1"
     inkscape:showpageshadow="0"
     inkscape:pageopacity="0"
     inkscape:pagecheckerboard="1"
     inkscape:deskcolor="#505050"
     inkscape:document-units="mm"
     inkscape:zoom="16"
     inkscape:cx="15.46875"
     inkscape:cy="20.21875"
     inkscape:window-width="1600"
     inkscape:window-height="837"
     inkscape:window-x="-8"
     inkscape:window-y="-8"
     inkscape:window-maximized="1"
     inkscape:current-layer="layer1" /><defs
     id="defs1" /><g
     inkscape:label="Layer 1"
     inkscape:groupmode="layer"
     id="layer1"><path
       id="path1"
       style="fill:none;fill-opacity:1;stroke:#aaaaaa;stroke-width:0.611296;stroke-linecap:round;stroke-dasharray:none;stroke-opacity:1;paint-order:markers stroke fill"
       d="m 2.2227164,5.2381095 c -0.2777598,0.2777599 -0.2775546,0.7281895 2.233e-4,1.005844 0.277778,0.2776545 0.7279479,0.2776726 1.0056206,0 L 3.9565248,5.515989 c 0.2776724,-0.2776725 0.2776544,-0.7278425 0,-1.0056204 C 3.6788701,4.2325907 3.2284406,4.2323853 2.9506808,4.5101452 Z"
       sodipodi:nodetypes="szsszss" /><path
       id="path2"
       style="fill:none;fill-opacity:1;stroke:#aaaaaa;stroke-width:0.611296;stroke-linecap:round;stroke-dasharray:none;stroke-opacity:1;paint-order:markers stroke fill"
       d="m 4.5101452,2.9506808 c -0.2777599,0.2777597 -0.2775545,0.7281893 2.235e-4,1.0058438 0.2777778,0.2776546 0.7279478,0.2776726 1.0056203,0 L 6.2439535,3.2285603 c 0.2776726,-0.2776727 0.2776545,-0.7278428 0,-1.0056207 C 5.966299,1.9451618 5.5158694,1.9449566 5.2381095,2.2227164 Z"
       sodipodi:nodetypes="szsszss" /><path
       style="fill:none;fill-opacity:1;stroke:#aaaaaa;stroke-width:0.611296;stroke-linecap:round;stroke-dasharray:none;stroke-opacity:1;paint-order:markers stroke fill"
       d="M 3.3911308,5.0755391 5.0755391,3.3911308"
       id="path3"
       sodipodi:nodetypes="cc" /></g></svg>
