<?xml version="1.0" encoding="UTF-8" standalone="no"?>
<!-- Created with Inkscape (http://www.inkscape.org/) -->

<svg
   width="24"
   height="24"
   viewBox="0 0 6.3499999 6.3499999"
   version="1.1"
   id="svg1"
   xml:space="preserve"
   sodipodi:docname="download-png (copy).svg"
   inkscape:version="1.3 (0e150ed, 2023-07-21)"
   xmlns:inkscape="http://www.inkscape.org/namespaces/inkscape"
   xmlns:sodipodi="http://sodipodi.sourceforge.net/DTD/sodipodi-0.dtd"
   xmlns="http://www.w3.org/2000/svg"
   xmlns:svg="http://www.w3.org/2000/svg"><sodipodi:namedview
     id="namedview1"
     pagecolor="#505050"
     bordercolor="#ffffff"
     borderopacity="1"
     inkscape:showpageshadow="0"
     inkscape:pageopacity="0"
     inkscape:pagecheckerboard="1"
     inkscape:deskcolor="#505050"
     inkscape:document-units="mm"
     inkscape:zoom="16.000001"
     inkscape:cx="12.312499"
     inkscape:cy="12.437499"
     inkscape:window-width="1600"
     inkscape:window-height="837"
     inkscape:window-x="-8"
     inkscape:window-y="-8"
     inkscape:window-maximized="1"
     inkscape:current-layer="layer1"
     showgrid="false" /><defs
     id="defs1" /><g
     inkscape:label="Layer 1"
     inkscape:groupmode="layer"
     id="layer1"><path
       id="rect1"
       style="fill:none;stroke:#f5f5f5;stroke-width:0.463897;stroke-linecap:round;stroke-linejoin:round;stroke-dasharray:none;paint-order:markers stroke fill"
       d="M 4.4960058,1.9722138 3.1751814,3.2930382 1.854357,1.9722138"
       sodipodi:nodetypes="ccc" /><path
       style="fill:none;stroke:#f5f5f5;stroke-width:0.463897;stroke-linecap:round;stroke-linejoin:round;stroke-dasharray:none;stroke-opacity:1;paint-order:markers stroke fill"
       d="M 3.1751815,3.1936803 V 0.54146055"
       id="path2"
       sodipodi:nodetypes="cc" /><path
       id="text1-5"
       style="font-size:2.20745px;line-height:1.25;font-family:Serif;-inkscape-font-specification:Serif;letter-spacing:0px;word-spacing:0px;fill:#fefefe;stroke-width:0.066702"
       d="m 1.5249584,3.9130911 c -0.1721198,0 -0.3141241,0.039198 -0.4189671,0.1205249 -0.104828,0.081315 -0.16069974,0.2006827 -0.16069974,0.3405304 0,0.099526 0.0337811,0.1874962 0.0956543,0.2544412 0.062607,0.066646 0.1559836,0.1170585 0.2793114,0.1568735 l 0.1740917,0.059306 a 0.05310714,0.05310714 0 0 0 0.00191,0 c 0.1303488,0.041746 0.2123931,0.082665 0.2391366,0.1071332 a 0.05310714,0.05310714 0 0 0 0,0.00191 c 0.031178,0.02793 0.045914,0.058823 0.045914,0.1071332 0,0.063095 -0.020369,0.1025082 -0.063132,0.1339165 C 1.6746076,5.225694 1.6052448,5.2446 1.5039113,5.2446 1.391527,5.2446032 1.3130662,5.2215977 1.2647779,5.1814711 1.2171111,5.1412948 1.1913972,5.0817537 1.1882543,4.9882489 A 0.05310714,0.05310714 0 0 0 1.1346877,4.9365954 H 0.99694507 a 0.05310714,0.05310714 0 0 0 -0.0535666,0.053567 V 5.313475 a 0.05310714,0.05310714 0 0 0 0.0325224,0.047827 c 0.0879692,0.039497 0.17508063,0.069953 0.26400673,0.089916 0.089001,0.01998 0.1803206,0.030609 0.273572,0.030609 0.1839744,0 0.3358184,-0.04071 0.4476636,-0.1243509 0.1125179,-0.084388 0.1721783,-0.2072621 0.1721783,-0.3520089 0,-0.1073524 -0.035671,-0.2009951 -0.103307,-0.271659 C 1.9630706,4.6617915 1.860472,4.6060451 1.72392,4.5635424 L 1.5345239,4.5061497 C 1.4211021,4.470863 1.346904,4.4337442 1.3202576,4.4104951 c -0.02771,-0.025247 -0.040175,-0.054342 -0.040175,-0.1013939 0,-0.058651 0.015482,-0.08832 0.053566,-0.1147855 0.038933,-0.026604 0.1045242,-0.044001 0.1989615,-0.044001 0.093172,0 0.1592551,0.020824 0.206614,0.061219 0.047445,0.040468 0.071573,0.093961 0.074611,0.1721783 a 0.05310714,0.05310714 0 0 0 0.053566,0.051653 H 2.0051437 A 0.05310714,0.05310714 0 0 0 2.0587097,4.381799 V 4.0795302 a 0.05310714,0.05310714 0 0 0 -0.032521,-0.04974 c -0.088227,-0.03743 -0.1758736,-0.066146 -0.2601806,-0.08609 -0.084145,-0.019905 -0.1634415,-0.03061 -0.2410497,-0.03061 z m 2.911726,0 C 4.251483,3.9130913 4.0919033,3.9915807 3.9756292,4.136923 3.8591178,4.2825622 3.803451,4.4716888 3.803451,4.6974589 c 0,0.2257702 0.055873,0.4142165 0.1721782,0.5605359 0.1170865,0.1451871 0.2766503,0.2238317 0.4610552,0.2238317 0.113587,-1e-7 0.2128375,-0.022563 0.2946162,-0.068871 0.036985,-0.021135 0.068833,-0.049305 0.099481,-0.08035 v 0.026784 c 0,0.1632673 -0.032178,0.2759777 -0.086089,0.3405305 a 0.05310714,0.05310714 0 0 0 -0.00191,0 C 4.6895176,5.765255 4.6078199,5.7994 4.4768602,5.7994 4.3746643,5.7994 4.3017928,5.779941 4.2568546,5.747746 4.2118486,5.715503 4.1809146,5.663966 4.1669396,5.5832201 A 0.05310714,0.05310714 0 0 0 4.1152849,5.5392194 H 3.990934 a 0.05310714,0.05310714 0 0 0 -0.053566,0.053566 v 0.29079 a 0.05310714,0.05310714 0 0 0 0.032522,0.047827 c 0.079709,0.03442 0.1634682,0.06119 0.2506151,0.078437 0.086966,0.017212 0.1772168,0.026784 0.2716591,0.026784 0.2111936,0 0.382229,-0.058622 0.5031431,-0.1779176 C 5.1164822,5.7394542 5.177051,5.5680845 5.177051,5.3593887 V 4.1981419 h 0.1760044 a 0.05310714,0.05310714 0 0 0 0.053566,-0.053566 V 4.0049196 A 0.05310714,0.05310714 0 0 0 5.3530554,3.951353 H 4.8843479 A 0.05310714,0.05310714 0 0 0 4.8307809,4.00492 V 4.062313 C 4.8000788,4.0316179 4.7682695,4.0045611 4.7313006,3.9838759 4.6496629,3.9366639 4.5506174,3.9130911 4.4366844,3.9130911 Z m -2.2287521,0.038262 a 0.05310714,0.05310714 0 0 0 -0.053566,0.053566 v 0.1396557 a 0.05310714,0.05310714 0 0 0 0.053566,0.053566 H 2.3303701 L 2.825861,5.4091291 a 0.05310714,0.05310714 0 0 0 0.04974,0.034435 h 0.1760048 a 0.05310714,0.05310714 0 0 0 0.04974,-0.034435 L 3.5968371,4.1981419 h 0.1186116 a 0.05310714,0.05310714 0 0 0 0.053566,-0.053566 V 4.0049196 a 0.05310714,0.05310714 0 0 0 -0.053566,-0.053566 h -0.520361 a 0.05310714,0.05310714 0 0 0 -0.053566,0.053566 v 0.1396557 a 0.05310714,0.05310714 0 0 0 0.053566,0.053566 H 3.3232649 L 3.013344,4.9557263 2.7034231,4.1981419 H 2.8449919 A 0.05310714,0.05310714 0 0 0 2.898558,4.1445758 V 4.0049196 A 0.05310714,0.05310714 0 0 0 2.8449919,3.951353 Z m 2.3014496,0.218092 c 0.108699,0 0.1834982,0.034714 0.2372234,0.1090462 0.054688,0.074642 0.084176,0.1909077 0.084176,0.3500959 v 0.1377426 c 0,0.1600917 -0.029389,0.2753191 -0.084176,0.3500959 -0.053563,0.073374 -0.1282206,0.1071331 -0.2372234,0.1071331 -0.1092154,0 -0.1803076,-0.037298 -0.2353103,-0.1224379 -0.054262,-0.08516 -0.084176,-0.2183717 -0.084176,-0.4036624 0,-0.1861854 0.030282,-0.3217415 0.084176,-0.4055755 0.055037,-0.084441 0.1263437,-0.1224379 0.2353103,-0.1224379 z" /></g></svg>
