<?xml version="1.0" encoding="UTF-8" standalone="no"?>
<!-- Created with Inkscape (http://www.inkscape.org/) -->

<svg
   width="36"
   height="24"
   viewBox="0 0 9.5249999 6.3499999"
   version="1.1"
   id="svg1"
   xml:space="preserve"
   sodipodi:docname="like.svg"
   inkscape:version="1.3 (0e150ed6c4, 2023-07-21)"
   xmlns:inkscape="http://www.inkscape.org/namespaces/inkscape"
   xmlns:sodipodi="http://sodipodi.sourceforge.net/DTD/sodipodi-0.dtd"
   xmlns="http://www.w3.org/2000/svg"
   xmlns:svg="http://www.w3.org/2000/svg"><sodipodi:namedview
     id="namedview1"
     pagecolor="#505050"
     bordercolor="#ffffff"
     borderopacity="1"
     inkscape:showpageshadow="0"
     inkscape:pageopacity="0"
     inkscape:pagecheckerboard="1"
     inkscape:deskcolor="#505050"
     inkscape:document-units="mm"
     inkscape:zoom="11.313709"
     inkscape:cx="14.451495"
     inkscape:cy="14.71666"
     inkscape:window-width="1600"
     inkscape:window-height="837"
     inkscape:window-x="-8"
     inkscape:window-y="-8"
     inkscape:window-maximized="1"
     inkscape:current-layer="layer1"
     showgrid="false" /><defs
     id="defs1" /><g
     inkscape:label="Layer 1"
     inkscape:groupmode="layer"
     id="layer1"><path
       id="rect9"
       style="fill:#f5f5f5;stroke-width:0.981645;stroke-linecap:round;stroke-linejoin:round;paint-order:markers stroke fill"
       d="m 2.2102881,2.3537054 h 0.5165297 c 0.2054023,0 0.3707624,0.1653601 0.3707624,0.3707624 v 3.0326387 c 0,0.2054023 -0.1653601,0.3707624 -0.3707624,0.3707624 H 2.2102881 c -0.2054024,0 -0.3707624,-0.1653601 -0.3707624,-0.3707624 V 2.7244678 c 0,-0.2054023 0.16536,-0.3707624 0.3707624,-0.3707624 z" /><path
       style="fill:#f5f5f5;fill-opacity:1;stroke:none;stroke-width:1.14721;stroke-linecap:round;stroke-linejoin:round;stroke-dasharray:none;stroke-opacity:1;paint-order:markers stroke fill"
       d="m 3.4703409,2.5271557 c 0.6036489,0 0.6013487,-0.058933 0.9108119,-0.5770299 C 4.6650472,1.4748356 5.0016801,1.2991708 5.042616,0.51836629 5.0696017,0.00364469 5.6073245,-0.06219016 5.9186222,0.33667118 6.1392743,0.6193891 6.2094304,1.1447241 5.9434781,1.5865559 5.7773867,1.8624869 5.5834249,2.0594624 5.5714754,2.2254612 5.5609104,2.3722873 5.7569313,2.3806146 6.0839077,2.3806146 h 1.1927787 c 0.4882264,0 0.5464579,0.74544 0.1289048,0.9759627 C 7.9149866,3.7264286 7.6429748,4.3439722 7.2710945,4.4060175 7.5455452,4.5867121 7.495288,5.2694745 7.0629326,5.4100652 7.1983232,5.6331927 7.2361252,6.2694022 6.3193646,6.2713377 4.961157,6.2742018 4.6273341,5.964602 3.4368043,5.964602 c 0,-0.4695049 0.033535,-3.4374461 0.033537,-3.4374463 z"
       id="path9"
       sodipodi:nodetypes="cssssssscccscc" /></g></svg>
