<?xml version="1.0" encoding="UTF-8" standalone="no"?>
<!-- Created with Inkscape (http://www.inkscape.org/) -->

<svg
   width="24"
   height="24"
   viewBox="0 0 6.3499999 6.35"
   version="1.1"
   id="svg1"
   inkscape:version="1.3 (0e150ed, 2023-07-21)"
   sodipodi:docname="reset-when-closed.svg"
   xml:space="preserve"
   xmlns:inkscape="http://www.inkscape.org/namespaces/inkscape"
   xmlns:sodipodi="http://sodipodi.sourceforge.net/DTD/sodipodi-0.dtd"
   xmlns="http://www.w3.org/2000/svg"
   xmlns:svg="http://www.w3.org/2000/svg"><sodipodi:namedview
     id="namedview1"
     pagecolor="#505050"
     bordercolor="#ffffff"
     borderopacity="1"
     inkscape:showpageshadow="0"
     inkscape:pageopacity="0"
     inkscape:pagecheckerboard="1"
     inkscape:deskcolor="#505050"
     inkscape:document-units="mm"
     showguides="true"
     inkscape:zoom="9.3931535"
     inkscape:cx="11.550966"
     inkscape:cy="13.839868"
     inkscape:window-width="1600"
     inkscape:window-height="837"
     inkscape:window-x="-8"
     inkscape:window-y="-8"
     inkscape:window-maximized="1"
     inkscape:current-layer="layer1" /><defs
     id="defs1"><inkscape:perspective
       sodipodi:type="inkscape:persp3d"
       inkscape:vp_x="0 : 3.175 : 1"
       inkscape:vp_y="-1.8369095e-13 : 1000 : 0"
       inkscape:vp_z="6.3499999 : 3.175 : 1"
       inkscape:persp3d-origin="3.175 : 2.1166666 : 1"
       id="perspective1" /></defs><g
     inkscape:label="Layer 1"
     inkscape:groupmode="layer"
     id="layer1"><path
       id="path1"
       style="color:#000000;fill:#45a5ff;stroke-linecap:round;stroke-linejoin:round;-inkscape-stroke:none;paint-order:markers stroke fill"
       d="M 0.75444163 0.27116623 A 0.37429151 0.37429151 45 0 0 0.29508675 0.53595296 L -0.1528368 2.2076264 A 0.37432894 0.37432894 0 0 0 0.11298408 2.6651184 L 0.48186036 2.7639585 C 0.48844732 2.4530853 0.64735189 2.1411234 0.91803032 1.9847153 A 0.62610191 0.62610191 0 0 1 0.92002694 1.9852503 C 1.1232133 1.868093 1.3718545 1.8347017 1.5983052 1.8957526 C 1.6480596 1.9090022 1.6962934 1.927706 1.7428096 1.9494522 C 2.3821649 1.8249235 3.0542249 1.9940377 3.5626703 2.4333375 C 3.6047288 2.438078 3.6462866 2.4446542 3.6872731 2.4554898 C 3.9146159 2.5155245 4.1142445 2.6691038 4.231927 2.8726713 A 0.62610191 0.62610191 0 0 1 4.2339237 2.8732063 C 4.37014 3.1093391 4.3733747 3.4055969 4.2728626 3.6583109 C 4.369478 4.1564611 4.2914721 4.6860899 4.0233825 5.1504348 C 3.9553291 5.2683068 3.8764211 5.376569 3.7903769 5.4769417 C 3.7864603 5.5340424 3.777267 5.5905636 3.7622129 5.6459431 C 3.701141 5.8708579 3.5481381 6.0689622 3.346369 6.1856055 A 0.62610191 0.62610191 0 0 0 3.3462352 6.1861047 A 0.62610191 0.62610191 0 0 0 3.3461015 6.1866038 A 0.62610191 0.62610191 0 0 0 3.3459677 6.187103 C 3.0913829 6.3339636 2.7666492 6.3270175 2.5022397 6.201239 C 2.2060893 6.2496687 1.8965402 6.2379599 1.5919404 6.1563427 C 1.2834054 6.073671 1.0065266 5.9262843 0.77250419 5.7324078 C 0.47655213 5.7147645 0.18570135 5.5598992 0.035030089 5.3020799 A 0.62610191 0.62610191 0 0 1 0.032070991 5.299147 C -0.11683386 5.0410184 -0.10737046 4.7109702 0.023507003 4.4446072 C 0.0019402649 4.3218824 -0.0098959701 4.1961879 -0.0098959701 4.0681162 A 0.37429151 0.37429151 45 0 0 -0.38293817 3.695313 A 0.37429151 0.37429151 45 0 0 -0.75787173 4.0683193 C -0.75787173 5.3835432 0.12786388 6.5387155 1.3982726 6.8791206 C 2.6686813 7.2195256 4.0143354 6.6622522 4.6719473 5.523235 C 5.3295592 4.3842176 5.1390609 2.941627 4.2090571 2.0116232 C 3.7440553 1.5466213 3.1507214 1.2669703 2.5312122 1.1854104 C 1.954143 1.1094378 1.3553198 1.2051525 0.81563699 1.4843446 L 1.0178646 0.72962071 A 0.37429151 0.37429151 45 0 0 0.75444163 0.27116623 z "
       transform="rotate(-15)" /><path
       id="path20"
       style="color:#000000;fill:#f5f5f5;stroke-width:0.46806;stroke-linecap:round;stroke-linejoin:round;-inkscape-stroke:none;paint-order:markers stroke fill"
       sodipodi:type="inkscape:offset"
       inkscape:radius="0.11029877"
       inkscape:original="M 2.0703125 2.0625 A 0.28045928 0.28045928 0 0 0 1.8710938 2.1445312 A 0.28045928 0.28045928 0 0 0 1.8710938 2.5410156 L 2.8046875 3.4726562 L 1.8730469 4.4042969 A 0.28045928 0.28045928 0 0 0 1.8730469 4.8007812 A 0.28045928 0.28045928 0 0 0 2.2675781 4.8007812 L 3.2011719 3.8691406 L 4.1328125 4.8007812 A 0.28045928 0.28045928 0 0 0 4.5292969 4.8007812 A 0.28045928 0.28045928 0 0 0 4.6113281 4.6035156 A 0.28045928 0.28045928 0 0 0 4.5292969 4.4042969 L 3.5957031 3.4726562 L 4.5292969 2.5410156 A 0.28045928 0.28045928 0 0 0 4.5292969 2.1445312 A 0.28045928 0.28045928 0 0 0 4.3300781 2.0625 A 0.28045928 0.28045928 0 0 0 4.1328125 2.1445312 L 3.2011719 3.0761719 L 2.2695312 2.1445312 A 0.28045928 0.28045928 0 0 0 2.0703125 2.0625 z "
       d="m 2.0703125,1.953125 c -0.1026978,-3.719e-4 -0.2046841,0.040703 -0.2773438,0.1132813 -0.072277,0.07233 -0.1132812,0.173138 -0.1132812,0.2753906 0,0.1022525 0.041004,0.2050139 0.1132812,0.2773437 L 2.6484375,3.4726563 1.7949219,4.3261719 c -0.072277,0.07233 -0.1132813,0.1731381 -0.1132813,0.2753906 0,0.1022525 0.041004,0.2050139 0.1132813,0.2773437 0.072229,0.071471 0.1737777,0.1132813 0.2753906,0.1132813 0.1016129,0 0.2031614,-0.04181 0.2753906,-0.1132813 L 3.2011719,4.0253906 4.0546875,4.8789062 c 0.07233,0.072277 0.1750912,0.1132813 0.2773437,0.1132813 0.1022526,0 0.2030608,-0.041004 0.2753907,-0.1132813 C 4.6793586,4.8068883 4.720363,4.7053065 4.7207031,4.6035156 4.721075,4.5008178 4.6799998,4.3988316 4.6074219,4.3261719 L 3.7519531,3.4726563 4.6074219,2.6191406 c 0.072277,-0.07233 0.1132812,-0.1750912 0.1132812,-0.2773437 0,-0.1022526 -0.041004,-0.2030608 -0.1132812,-0.2753906 C 4.5347622,1.9938283 4.432776,1.952753 4.3300781,1.953125 4.2282873,1.9534651 4.1267055,1.9944695 4.0546875,2.0664063 L 3.2011719,2.9199219 2.3476563,2.0664063 C 2.2749966,1.9938283 2.1730103,1.9527531 2.0703125,1.953125 Z"
       transform="matrix(0.95782474,0,0,0.95782474,0.05168234,0.06871277)" /></g></svg>
