<?xml version="1.0" encoding="UTF-8" standalone="no"?>
<!-- Created with Inkscape (http://www.inkscape.org/) -->

<svg
   width="24"
   height="24"
   viewBox="0 0 6.3499999 6.35"
   version="1.1"
   id="svg1"
   inkscape:version="1.3 (0e150ed, 2023-07-21)"
   sodipodi:docname="source.svg"
   xml:space="preserve"
   xmlns:inkscape="http://www.inkscape.org/namespaces/inkscape"
   xmlns:sodipodi="http://sodipodi.sourceforge.net/DTD/sodipodi-0.dtd"
   xmlns="http://www.w3.org/2000/svg"
   xmlns:svg="http://www.w3.org/2000/svg"><sodipodi:namedview
     id="namedview1"
     pagecolor="#505050"
     bordercolor="#ffffff"
     borderopacity="1"
     inkscape:showpageshadow="0"
     inkscape:pageopacity="0"
     inkscape:pagecheckerboard="1"
     inkscape:deskcolor="#505050"
     inkscape:document-units="mm"
     showguides="true"
     inkscape:zoom="18.437048"
     inkscape:cx="11.227394"
     inkscape:cy="13.071507"
     inkscape:window-width="1600"
     inkscape:window-height="837"
     inkscape:window-x="-8"
     inkscape:window-y="-8"
     inkscape:window-maximized="1"
     inkscape:current-layer="layer1" /><defs
     id="defs1" /><g
     inkscape:label="Layer 1"
     inkscape:groupmode="layer"
     id="layer1"><path
       id="rect8"
       style="fill:#f5f5f5;fill-opacity:0.99467105;stroke:none;stroke-width:0.822422;stroke-linecap:round;stroke-linejoin:round;stroke-dasharray:none;stroke-dashoffset:0;stroke-opacity:1;paint-order:markers stroke fill"
       d="m 1.0335286,0.05891113 c -0.25989699,0 -0.46922196,0.20932497 -0.46922196,0.46922201 V 4.4550252 c 0,0.2598971 0.20932497,0.469222 0.46922196,0.469222 H 1.1960301 V 1.3373861 c 0,-0.2928614 0.2357886,-0.52864993 0.5286499,-0.52864993 H 4.5470093 V 0.52813314 c 0,-0.25989704 -0.209325,-0.46922201 -0.469222,-0.46922201 z"
       sodipodi:nodetypes="sssscsscsss" /><path
       id="rect5"
       style="fill:#f5f5f5;fill-opacity:1;stroke:none;stroke-width:0.822422;stroke-linecap:round;stroke-linejoin:round;stroke-dasharray:none;stroke-dashoffset:0;stroke-opacity:1;paint-order:markers stroke fill"
       d="m 2.2722127,1.4257528 c -0.259897,0 -0.469222,0.2093249 -0.469222,0.469222 v 3.9268921 c 0,0.259897 0.209325,0.469222 0.469222,0.469222 h 3.0442587 c 0.259897,0 0.469222,-0.209325 0.469222,-0.469222 V 1.8949748 c 0,-0.2598971 -0.209325,-0.469222 -0.469222,-0.469222 z m 1.4637422,0.626141 c 0.061544,-0.00242 0.1224059,1.418e-4 0.1824178,0.00723 0.4800941,0.056744 0.9501536,0.4195074 0.984436,0.9746175 0.031035,0.5025192 -0.2893452,0.8358246 -0.5193481,1.035079 -0.1150013,0.099627 -0.2112159,0.1825641 -0.2656169,0.2501139 -0.054401,0.067549 -0.07028,0.102683 -0.07028,0.1736328 3.53e-4,0.1748115 -0.1414483,0.3166129 -0.3162598,0.3162598 -0.1750133,6.4e-4 -0.3171308,-0.1412457 -0.3167765,-0.3162598 0,-0.2292744 0.097784,-0.4294856 0.2113566,-0.5705078 C 3.7394568,3.7810416 3.8659904,3.6834113 3.9710826,3.5923683 4.1812674,3.4102822 4.2893289,3.3222257 4.2739065,3.0725034 4.259983,2.8470484 4.0824578,2.7140913 3.8444754,2.6859636 3.6064928,2.6578361 3.3729328,2.7370942 3.2543305,3.0435646 3.1917975,3.2064928 3.0089119,3.2877495 2.8460867,3.2249488 2.6823138,3.1624255 2.6008694,2.9784216 2.6647024,2.8151547 2.8563612,2.3199053 3.3051479,2.0688196 3.7359549,2.0518938 Z m -0.0093,2.9724284 C 3.9089553,5.0244889 4.0566988,5.1722324 4.0568655,5.3545346 4.056984,5.5370386 3.909157,5.6850969 3.7266531,5.6852638 3.5439473,5.6853823 3.3958054,5.5372404 3.395924,5.3545346 3.3960909,5.1720307 3.5441491,5.0242037 3.7266531,5.0243222 Z"
       sodipodi:nodetypes="sssssssssssssscccsssscccsccccc" /></g></svg>
