<?xml version="1.0" encoding="UTF-8" standalone="no"?>
<!-- Created with Inkscape (http://www.inkscape.org/) -->

<svg
   width="32"
   height="32"
   viewBox="0 0 8.4666665 8.4666666"
   version="1.1"
   id="svg1"
   xml:space="preserve"
   inkscape:version="1.3 (0e150ed6c4, 2023-07-21)"
   sodipodi:docname="close.svg"
   xmlns:inkscape="http://www.inkscape.org/namespaces/inkscape"
   xmlns:sodipodi="http://sodipodi.sourceforge.net/DTD/sodipodi-0.dtd"
   xmlns="http://www.w3.org/2000/svg"
   xmlns:svg="http://www.w3.org/2000/svg"><sodipodi:namedview
     id="namedview1"
     pagecolor="#505050"
     bordercolor="#ffffff"
     borderopacity="1"
     inkscape:showpageshadow="0"
     inkscape:pageopacity="0"
     inkscape:pagecheckerboard="1"
     inkscape:deskcolor="#505050"
     inkscape:document-units="mm"
     inkscape:zoom="18.786307"
     inkscape:cx="13.014798"
     inkscape:cy="19.668581"
     inkscape:window-width="1600"
     inkscape:window-height="837"
     inkscape:window-x="-8"
     inkscape:window-y="-8"
     inkscape:window-maximized="1"
     inkscape:current-layer="layer1" /><defs
     id="defs1" /><g
     inkscape:label="Layer 1"
     inkscape:groupmode="layer"
     id="layer1"><path
       id="path1"
       style="color:#000000;fill:#ffffff;stroke-linecap:round;-inkscape-stroke:none;fill-opacity:0.5"
       d="M 2.841687 2.4923543 A 0.34999999 0.34999999 0 0 0 2.5957072 2.5957072 A 0.34999999 0.34999999 0 0 0 2.5957072 3.0897339 L 3.7393066 4.2333333 L 2.5957072 5.3769328 A 0.34999999 0.34999999 0 0 0 2.5957072 5.8709595 A 0.34999999 0.34999999 0 0 0 3.0897339 5.8709595 L 4.2333333 4.72736 L 5.3769328 5.8709595 A 0.34999999 0.34999999 0 0 0 5.8709595 5.8709595 A 0.34999999 0.34999999 0 0 0 5.8709595 5.3769328 L 4.72736 4.2333333 L 5.8709595 3.0897339 A 0.34999999 0.34999999 0 0 0 5.8709595 2.5957072 A 0.34999999 0.34999999 0 0 0 5.3769328 2.5957072 L 4.2333333 3.7393066 L 3.0897339 2.5957072 A 0.34999999 0.34999999 0 0 0 2.841687 2.4923543 z " /></g></svg>
