<?xml version="1.0" encoding="UTF-8" standalone="no"?>
<!-- Created with Inkscape (http://www.inkscape.org/) -->

<svg
   width="32"
   height="32"
   viewBox="0 0 8.4666665 8.4666666"
   version="1.1"
   id="svg1"
   inkscape:version="1.3 (0e150ed6c4, 2023-07-21)"
   sodipodi:docname="Code-Note.svg"
   xmlns:inkscape="http://www.inkscape.org/namespaces/inkscape"
   xmlns:sodipodi="http://sodipodi.sourceforge.net/DTD/sodipodi-0.dtd"
   xmlns="http://www.w3.org/2000/svg"
   xmlns:svg="http://www.w3.org/2000/svg">
  <sodipodi:namedview
     id="namedview1"
     pagecolor="#505050"
     bordercolor="#ffffff"
     borderopacity="1"
     inkscape:showpageshadow="0"
     inkscape:pageopacity="0"
     inkscape:pagecheckerboard="1"
     inkscape:deskcolor="#505050"
     inkscape:document-units="mm"
     inkscape:zoom="13.283925"
     inkscape:cx="16.222614"
     inkscape:cy="16.749567"
     inkscape:window-width="1600"
     inkscape:window-height="837"
     inkscape:window-x="-8"
     inkscape:window-y="-8"
     inkscape:window-maximized="1"
     inkscape:current-layer="layer1" />
  <defs
     id="defs1" />
  <g
     inkscape:label="Layer 1"
     inkscape:groupmode="layer"
     id="layer1">
    <path
       style="font-size:7.53609px;line-height:125%;font-family:'Arial Rounded MT Bold';-inkscape-font-specification:'Arial Rounded MT Bold, ';letter-spacing:0px;word-spacing:0px;fill:#ffffff;stroke-width:0.168006px;fill-opacity:0.75"
       d="m 2.5926432,3.1209454 q 0,-0.311731 0.2001641,-0.630025 Q 2.9929715,2.1693452 3.376893,1.9593368 3.7608145,1.7493285 4.2727098,1.7493285 q 0.4758002,0 0.8400334,0.1771945 0.3642332,0.1739132 0.561116,0.4758002 0.2001642,0.3018869 0.2001642,0.656276 0,0.2789174 -0.1148483,0.4889257 Q 5.6476082,3.7575332 5.4901019,3.9117581 5.335877,4.0627016 4.9322672,4.4236534 4.8207004,4.5253762 4.7517913,4.6041293 q -0.065628,0.075472 -0.098441,0.1410994 -0.032814,0.062346 -0.052502,0.1279738 -0.016407,0.062346 -0.052502,0.2231339 -0.062346,0.3412635 -0.3904843,0.3412635 -0.1706318,0 -0.2887614,-0.1115669 -0.1148488,-0.1115669 -0.1148488,-0.3314194 0,-0.275636 0.085316,-0.4758002 Q 3.9248835,4.3153679 4.0659829,4.1644244 4.2070822,4.0101995 4.446623,3.8001911 4.6566313,3.6164339 4.74851,3.5245552 4.84367,3.4293952 4.9060162,3.3145469 4.9716442,3.1996986 4.9716442,3.065162 q 0,-0.2625104 -0.1968829,-0.4429863 -0.1936014,-0.180476 -0.5020511,-0.180476 -0.3609518,0 -0.5315836,0.1837573 -0.1706322,0.1804759 -0.2887618,0.534865 -0.111567,0.370796 -0.4232981,0.370796 -0.1837573,0 -0.3117311,-0.1279739 Q 2.5926432,3.271889 2.5926432,3.1209454 Z m 1.6013135,3.5963928 q -0.2001642,0 -0.3511077,-0.1279738 -0.1476621,-0.1312552 -0.1476621,-0.3642332 0,-0.2067269 0.1443807,-0.3478263 0.1443808,-0.1410993 0.3543891,-0.1410993 0.206727,0 0.3478263,0.1410993 0.1410994,0.1410994 0.1410994,0.3478263 0,0.2296966 -0.1476622,0.3609518 -0.1476621,0.1312552 -0.3412635,0.1312552 z"
       id="text1"
       aria-label="?" />
  </g>
</svg>
