<?xml version="1.0" encoding="UTF-8" standalone="no"?>
<!-- Created with Inkscape (http://www.inkscape.org/) -->

<svg
   width="2000"
   height="1300"
   viewBox="0 0 529.16665 343.95833"
   version="1.1"
   id="svg1"
   xml:space="preserve"
   inkscape:version="1.3 (0e150ed, 2023-07-21)"
   sodipodi:docname="compare-submit-images.svg"
   xmlns:inkscape="http://www.inkscape.org/namespaces/inkscape"
   xmlns:sodipodi="http://sodipodi.sourceforge.net/DTD/sodipodi-0.dtd"
   xmlns="http://www.w3.org/2000/svg"
   xmlns:svg="http://www.w3.org/2000/svg"><sodipodi:namedview
     id="namedview1"
     pagecolor="#353535"
     bordercolor="#ffffff"
     borderopacity="1"
     inkscape:showpageshadow="0"
     inkscape:pageopacity="0"
     inkscape:pagecheckerboard="false"
     inkscape:deskcolor="#373737"
     inkscape:document-units="mm"
     inkscape:zoom="0.22984007"
     inkscape:cx="972.41531"
     inkscape:cy="435.08515"
     inkscape:current-layer="layer1" /><defs
     id="defs1"><inkscape:path-effect
       oposite_fuse="false"
       fuse_paths="false"
       discard_orig_path="false"
       mode="vertical"
       is_visible="true"
       id="path-effect1066"
       center_point="264.58333,-99.87502"
       end_point="264.58333,296.99998"
       start_point="264.58333,-496.75002"
       effect="mirror_symmetry" /><inkscape:path-effect
       effect="mirror_symmetry"
       start_point="1000,-2.1484127e-13"
       end_point="1000,3000"
       center_point="1000,1500"
       id="path-effect1041"
       is_visible="true"
       mode="vertical"
       discard_orig_path="false"
       fuse_paths="false"
       oposite_fuse="false" /><inkscape:path-effect
       effect="mirror_symmetry"
       start_point="1000,-2.1484127e-13"
       end_point="1000,3000"
       center_point="1000,1500"
       id="path-effect1034"
       is_visible="true"
       mode="vertical"
       discard_orig_path="false"
       fuse_paths="false"
       oposite_fuse="false" /><inkscape:path-effect
       oposite_fuse="false"
       fuse_paths="false"
       discard_orig_path="false"
       mode="vertical"
       is_visible="true"
       id="path-effect1022"
       center_point="329.65021,-58.290042"
       end_point="329.65021,338.58496"
       start_point="329.65021,-455.16504"
       effect="mirror_symmetry" /><inkscape:path-effect
       effect="mirror_symmetry"
       start_point="329.65021,-455.16504"
       end_point="329.65021,338.58496"
       center_point="329.65021,-58.290042"
       id="path-effect1014"
       is_visible="true"
       mode="vertical"
       discard_orig_path="false"
       fuse_paths="false"
       oposite_fuse="false" /><inkscape:path-effect
       oposite_fuse="false"
       fuse_paths="false"
       discard_orig_path="false"
       mode="vertical"
       is_visible="true"
       id="path-effect1010"
       center_point="329.65021,-58.290042"
       end_point="329.65021,338.58496"
       start_point="329.65021,-455.16504"
       effect="mirror_symmetry" /><inkscape:path-effect
       effect="mirror_symmetry"
       start_point="264.58333,-496.75002"
       end_point="264.58333,296.99998"
       center_point="264.58333,-99.87502"
       id="path-effect1005"
       is_visible="true"
       mode="vertical"
       discard_orig_path="false"
       fuse_paths="false"
       oposite_fuse="false" /><inkscape:path-effect
       effect="mirror_symmetry"
       start_point="264.58333,-496.75002"
       end_point="264.58333,296.99998"
       center_point="264.58333,-99.87502"
       id="path-effect997"
       is_visible="true"
       mode="vertical"
       discard_orig_path="false"
       fuse_paths="false"
       oposite_fuse="false" /><inkscape:path-effect
       effect="mirror_symmetry"
       start_point="1000,-2.1484127e-13"
       end_point="1000,3000"
       center_point="1000,1500"
       id="path-effect991"
       is_visible="true"
       mode="vertical"
       discard_orig_path="false"
       fuse_paths="false"
       oposite_fuse="false" /><inkscape:path-effect
       effect="mirror_symmetry"
       start_point="264.58333,-496.75002"
       end_point="264.58333,296.99998"
       center_point="264.58333,-99.87502"
       id="path-effect959"
       is_visible="true"
       mode="vertical"
       discard_orig_path="false"
       fuse_paths="false"
       oposite_fuse="false" /><inkscape:path-effect
       effect="mirror_symmetry"
       start_point="309.98724,-469.75827"
       end_point="235.57506,320.49605"
       center_point="272.78115,-74.631111"
       id="path-effect956"
       is_visible="true"
       mode="vertical"
       discard_orig_path="false"
       fuse_paths="false"
       oposite_fuse="false" /><inkscape:path-effect
       oposite_fuse="false"
       fuse_paths="false"
       discard_orig_path="false"
       mode="vertical"
       is_visible="true"
       id="path-effect943"
       center_point="329.65021,-58.290042"
       end_point="329.65021,338.58496"
       start_point="329.65021,-455.16504"
       effect="mirror_symmetry" /><inkscape:path-effect
       effect="mirror_symmetry"
       start_point="264.58333,-496.75002"
       end_point="264.58333,296.99998"
       center_point="264.58333,-99.87502"
       id="path-effect939"
       is_visible="true"
       mode="vertical"
       discard_orig_path="false"
       fuse_paths="false"
       oposite_fuse="false" /><inkscape:path-effect
       effect="mirror_symmetry"
       start_point="266.8284,-496.2823"
       end_point="266.8284,297.4677"
       center_point="266.8284,-99.407298"
       id="path-effect925"
       is_visible="true"
       mode="vertical"
       discard_orig_path="false"
       fuse_paths="false"
       oposite_fuse="false" /><inkscape:path-effect
       effect="mirror_symmetry"
       start_point="264.58333,-496.75002"
       end_point="264.58333,296.99998"
       center_point="264.58333,-99.87502"
       id="path-effect902"
       is_visible="true"
       mode="vertical"
       discard_orig_path="false"
       fuse_paths="false"
       oposite_fuse="false" /><inkscape:path-effect
       effect="mirror_symmetry"
       start_point="264.58333,-496.75002"
       end_point="264.58333,296.99998"
       center_point="264.58333,-99.87502"
       id="path-effect887"
       is_visible="true"
       mode="vertical"
       discard_orig_path="false"
       fuse_paths="false"
       oposite_fuse="false" /><inkscape:path-effect
       effect="mirror_symmetry"
       start_point="329.65021,-455.16504"
       end_point="329.65021,338.58496"
       center_point="329.65021,-58.290042"
       id="path-effect867"
       is_visible="true"
       mode="vertical"
       discard_orig_path="false"
       fuse_paths="false"
       oposite_fuse="false" /><filter
       inkscape:collect="always"
       style="color-interpolation-filters:sRGB"
       id="filter11"
       x="-0.32705493"
       y="-0.32705493"
       width="1.6551174"
       height="1.6551174"><feGaussianBlur
         inkscape:collect="always"
         stdDeviation="10.305895"
         id="feGaussianBlur11" /></filter><filter
       inkscape:collect="always"
       style="color-interpolation-filters:sRGB"
       id="filter12"
       x="-0.20730323"
       y="-0.15209295"
       width="1.4146031"
       height="1.3041883"><feGaussianBlur
         inkscape:collect="always"
         stdDeviation="9.1538255"
         id="feGaussianBlur12" /></filter></defs><g
     inkscape:label="Layer 1"
     inkscape:groupmode="layer"
     id="layer1"><path
       style="fill:#676767;fill-opacity:1;fill-rule:nonzero;stroke:none;stroke-width:1.44094;stroke-linecap:round;stroke-linejoin:round;stroke-miterlimit:4;stroke-dasharray:none;stroke-dashoffset:0;stroke-opacity:1;paint-order:normal"
       d="m 133.57083,150.96125 c -13.38939,3.58768 -25.20067,12.65735 -32.72216,25.68496 l -9.618647,16.65998 -0.81414,-0.47004 1.4052,-2.43387 3.26424,-17.52716 -0.002,-9e-4 a 1.406346,1.406346 0 0 0 -0.67807,-1.473 1.406346,1.406346 0 0 0 -1.61493,0.14914 l -0.002,-9e-4 -13.546963,11.59042 -44.65493,77.34461 c -7.701652,1.92489 -14.588235,3.25838 -15.973127,4.22337 -3.368152,2.34691 -5.566001,4.60254 -8.091802,8.09086 l 0.3703,0.25051 -3.0393661,3.79897 11.6411401,9.77788 -8.415925,14.57681 -6.8206301,6.40828 2.340719,1.35142 -1.186215,2.05458 12.5787101,7.26232 1.186215,-2.05458 2.340607,1.35135 2.139305,-9.11105 7.131665,-12.3524 1.583062,1.32961 c -0.93253,1.56839 -1.916451,3.23559 -2.985556,5.02314 l 2.175976,1.2563 c -0.0042,0.003 -0.0085,0.007 -0.0128,0.0102 a 2.2742125,0.47733422 42.274869 0 0 -0.0061,0.005 2.2742125,0.47733422 42.274869 0 0 0.777086,1.30789 c -0.810327,0.89787 -1.639184,1.98293 -2.385169,3.27501 a 4.3501373,1.0670484 30 0 0 3.233888,3.09909 4.3501373,1.0670484 30 0 0 4.300827,1.25108 c 0.3293,-0.57036 0.614944,-1.13451 0.864301,-1.68601 a 4.3501373,1.0670484 30 0 0 1.601518,1.13231 c -1.745655,3.57164 -3.03232,6.27687 -3.03232,6.27687 0,0 1.699578,-2.46713 3.920041,-5.76497 a 4.3501373,1.0670484 30 0 0 1.781464,0.8201 c -0.3532,0.49196 -0.69906,1.0218 -1.02858,1.59255 a 4.3501373,1.0670484 30 0 0 3.233897,3.09909 4.3501373,1.0670484 30 0 0 4.300706,1.25101 c 0.751315,-1.30131 1.278717,-2.57042 1.651578,-3.72775 a 2.2742125,0.47733422 17.725131 0 0 1.439219,0.001 v 0 a 2.2742125,0.47733422 17.725131 0 0 4.2e-4,-0.002 c 9.02e-4,-0.008 0.0024,-0.0142 0.0033,-0.0217 l 1.445656,0.83465 0.0015,-0.003 0.801912,0.46644 c 1.041,-1.80306 2.01983,-3.48845 2.924065,-5.07263 l 1.87747,0.68231 -7.13167,12.35241 -6.820739,6.40821 2.340719,1.35142 -1.186215,2.05458 12.578709,7.26232 1.186215,-2.05458 2.340607,1.35135 2.139413,-9.11098 8.41593,-14.57681 14.288459,5.19258 1.770438,-4.53157 0.40211,0.19543 c 1.75806,-3.93157 2.61258,-6.96278 2.96099,-11.05314 0.14324,-1.68186 -2.14531,-8.31261 -4.329142,-15.9449 l 44.655129,-77.34494 3.26412,-17.52722 -0.002,-0.001 a 1.406346,1.406346 0 0 0 -0.67817,-1.47306 v 0 a 1.406346,1.406346 0 0 0 -1.61447,0.1494 l -0.002,-10e-4 -13.54685,11.59048 -1.4052,2.43387 -0.81429,-0.47013 9.61865,-16.65998 c 7.52164,-13.02752 9.47057,-27.79122 5.88289,-41.18062 z m -44.311607,43.87829 0.81414,0.47004 -29.002642,50.23405 c -0.952459,1.01951 -1.882761,2.0003 -2.770438,2.91838 z m 27.653557,15.96579 0.81402,0.46997 -30.958946,53.62247 c 0.351244,-1.22779 0.735603,-2.52378 1.142285,-3.8584 z m -69.171028,102.25771 1.21e-4,7e-5 -1.864255,3.22898 a 4.3501373,1.0670484 30 0 1 -1.21e-4,-7e-5 z"
       id="rect1180"
       inkscape:connector-curvature="0" /><path
       id="path805"
       style="fill:#b3b3b3;fill-opacity:1;stroke:none;stroke-width:0.390749"
       d="m 126.74042,121.93269 -0.48094,0.54052 17.87581,1.36116 -50.031992,90.45383 -2.892774,-10.79598 -37.736839,10.11156 2.418708,9.02674 -1.706565,0.45727 0.05847,0.2182 0.0055,-0.002 0.596731,2.22703 -0.391438,0.10489 0.290166,1.08291 2.164364,-0.57994 0.26152,0.97601 2.670045,-0.71543 2.097139,7.82662 0.07222,-0.0193 111.904725,-7.21002 0.0651,-0.0313 0.0226,0.0841 0.0142,-0.004 1.59759,5.9623 -1.3055,0.34981 1.34733,5.02829 -0.008,0.002 0.37589,1.40284 -2.52483,0.67652 0.19101,0.71286 -22.82595,6.1162 2.08843,7.79417 -2.76147,0.73993 -0.30076,0.0806 0.57203,2.13486 -0.0331,0.009 0.2236,0.83449 3.0954,-0.82941 0.028,0.10469 2.1909,-0.58705 0.23548,0.53976 5.41895,-0.5086 -1.93675,8.29988 -1.17655,0.27974 -6.2683,3.66671 -0.58823,0.3583 -0.49422,0.36709 c 0,0 -0.166,0.1336 -0.38787,0.46025 -0.14646,0.21571 -0.25191,0.54364 -0.33747,0.92557 -0.10031,0.44785 -0.14551,0.95557 -0.0267,1.61344 0.33703,1.86657 2.12192,2.11304 2.12192,2.11304 l 0.81504,0.007 0.94286,-0.11992 1.19731,-0.26722 31.06005,-8.55323 c 0,0 0.46916,-0.10762 0.85697,-0.25174 0.38173,-0.14192 0.68107,-0.31901 0.76274,-0.39399 0.14523,-0.13301 0.33766,-0.306 0.48587,-0.53394 0.23835,-0.36656 0.44257,-0.86743 0.49168,-1.28765 0.0658,-0.5623 0.0563,-0.39833 0.0403,-0.84041 -0.003,-0.0613 -0.0121,-0.22991 -0.0288,-0.33126 -0.0142,-0.0887 -0.0399,-0.1887 -0.0662,-0.29828 -0.1502,-0.6456 -0.71967,-1.12827 -1.17222,-1.42019 -0.17522,-0.113 -0.53441,-0.20394 -0.8325,-0.26442 -0.26168,-0.0532 -0.4757,-0.0827 -0.4757,-0.0827 l -6.99272,-0.30779 -1.83482,0.49164 -1.07989,-3.64379 22.82154,-6.11501 0.82543,3.64086 -1.7589,0.50681 -6.0596,3.33978 -0.37117,0.19823 c 0,0 -0.0709,0.0104 -0.30502,0.17969 -0.32428,0.23275 -0.76614,0.66943 -1.0291,1.43166 -0.13679,0.39652 -0.1821,0.87673 -0.15131,1.46987 0.083,1.60116 1.06394,2.30644 1.92752,2.54356 0.44565,0.12232 1.0365,0.0525 1.0365,0.0525 l 1.10108,-0.2017 29.29798,-7.7192 c 0,0 1.06324,-0.18373 3.50857,-0.96529 0.6644,-0.21249 1.0631,-0.4703 1.38989,-0.72798 0.2677,-0.21102 0.4472,-0.41686 0.5599,-0.61145 0.0942,-0.16255 0.1599,-0.31389 0.19775,-0.43856 0.0652,-0.21438 0.0752,-0.35911 0.0752,-0.35911 0,0 0.0343,-0.19663 -0.0385,-1.01917 -0.005,-0.0583 -0.0143,-0.11944 -0.0209,-0.18405 -0.004,-0.0443 -0.14084,-0.65819 -0.14899,-0.68856 -0.008,-0.0327 -0.0129,-0.0472 -0.0234,-0.0838 -0.0146,-0.051 -0.0376,-0.10842 -0.0376,-0.10842 0,0 -0.65465,-1.96214 -3.81798,-1.75815 -3.16337,0.20402 -7.16831,0.20464 -7.16831,0.20464 l -5.98086,-6.20919 0.39196,-0.10582 0.0898,-0.39932 3.81039,-1.05671 0.0431,-0.44057 3.64365,-1.0127 0.32025,-0.75976 5.41604,-1.45123 -2.8276,-10.55271 4.3866,0.99346 6.32003,4.52624 0.75984,-1.31606 -6.96544,-4.85898 -22.46012,-4.89713 -0.97893,-3.65344 107.26435,-19.31782 5.2e-4,-0.0159 7.67116,-2.04323 -0.002,-0.008 0.0848,-0.0285 0.066,0.76845 0.31916,0.94319 0.53647,0.79018 0.68735,0.64859 0.82831,0.29004 -0.27744,-0.8082 0.38467,-1.12389 0.49725,-0.94547 a 14.16045,14.367675 75 0 0 1.18053,0.68158 14.16045,14.367675 75 0 0 0.0194,0.007 l -0.0206,0.67791 0.32331,1.3245 0.43321,0.73802 0.69161,0.71463 0.82416,0.48393 0.89941,0.28994 0.87314,-0.0941 -0.59824,-0.61085 -0.13591,-1.17956 0.0496,-1.23635 a 14.16045,14.367675 75 0 0 1.6249,0.23461 l -0.37164,0.0165 0.29267,0.79465 0.79449,1.10737 0.67747,0.52326 0.90947,0.40418 0.94464,0.14037 0.94304,-0.0662 0.77408,-0.41364 -0.78257,-0.34338 -0.56645,-1.04366 -0.41422,-1.15948 a 14.16045,14.367675 75 0 0 1.70542,-0.31707 l 0.15271,0.25695 0.98499,0.94258 0.76261,0.38982 0.968,0.23047 0.95501,-0.0362 0.91405,-0.23917 0.6848,-0.54932 -0.83223,-0.1926 -0.74879,-0.9221 -0.65976,-1.13242 a 14.16045,14.367675 75 0 0 1.15972,-0.67578 l 0.51194,0.34478 1.29369,0.43162 0.855,0.0269 0.97439,-0.20566 0.8477,-0.43969 0.72475,-0.60663 0.38512,-0.789 -0.83576,0.18058 -1.07069,-0.51348 -0.97616,-0.67076 a 14.16045,14.367675 75 0 0 0.9021,-1.11241 l 0.25218,0.0801 1.36265,0.0521 0.82853,-0.21339 0.87755,-0.46979 0.69072,-0.65993 0.52512,-0.78543 0.14796,-0.86611 -0.75103,0.40824 -1.17193,-0.19242 -0.99388,-0.32706 a 14.16045,14.367675 75 0 0 0.51399,-1.3932 l 0.67147,-0.0859 1.25742,-0.52654 0.66192,-0.54319 0.59734,-0.79609 0.34863,-0.88983 0.14497,-0.93325 -0.23092,-0.84754 -0.50902,0.68631 -1.144,0.31879 -1.18023,0.13925 a 14.16045,14.367675 75 0 0 -0.008,-1.54713 l 0.5996,-0.2981 1.01379,-0.91084 0.44663,-0.73043 0.30305,-0.94793 0.0365,-0.95475 -0.16935,-0.92963 -0.49591,-0.72438 -0.25566,0.81518 -0.97586,0.67785 -1.15225,0.55919 a 14.16045,14.367675 75 0 0 -0.61458,-1.57117 l 0.051,-0.0452 0.74125,-1.14359 0.23962,-0.82191 0.0449,-0.99412 -0.21388,-0.93112 -0.40717,-0.85324 -0.6677,-0.56933 -0.0336,0.85363 -0.76463,0.90887 -0.79292,0.69125 a 14.16045,14.367675 75 0 0 -0.84509,-0.95714 l 0.0302,-0.061 0.26238,-1.33843 -0.0835,-0.85148 -0.32844,-0.93992 -0.54504,-0.78389 -0.69462,-0.64034 -0.83278,-0.28015 0.2868,0.80492 -0.37089,1.12808 -0.40724,0.79493 a 14.16045,14.367675 75 0 0 -1.28493,-0.71444 14.16045,14.367675 75 0 0 -0.13128,-0.0534 l 0.0289,-0.70305 -0.30838,-1.32771 -0.42441,-0.74354 -0.68414,-0.72214 -0.81859,-0.49255 -0.89659,-0.30018 -0.87382,0.0856 0.59108,0.61672 0.12302,1.18142 -0.0665,1.30885 a 14.16045,14.367675 75 0 0 -1.45617,-0.20635 l -0.18981,-0.63732 -0.72293,-1.1558 -0.64229,-0.56585 -0.88208,-0.46132 -0.93382,-0.20014 -0.94476,0.006 -0.79917,0.36428 0.75931,0.39227 0.49965,1.07736 0.35742,1.2482 a 14.16045,14.367675 75 0 0 -1.35185,0.24775 l -0.38491,-0.55187 -1.05003,-0.86982 -0.78797,-0.33405 -0.98164,-0.16045 -0.9496,0.10354 -0.89515,0.3039 -0.64438,0.59692 0.84475,0.13314 0.81335,0.86531 0.75541,1.106 0.31797,-0.099 a 14.16045,14.367675 75 0 0 -1.51809,0.85398 l -0.64601,-0.39104 -1.31244,-0.36892 -0.85579,0.0144 -0.96272,0.25221 -0.82571,0.48042 -0.69416,0.64111 -0.34633,0.80703 0.82566,-0.22123 1.09462,0.46125 0.97726,0.6041 a 14.16045,14.367675 75 0 0 -0.86486,1.05976 l -0.46813,-0.10765 -1.36189,0.0599 -0.80867,0.28159 -0.83562,0.54074 -0.63426,0.71433 -0.45818,0.82596 -0.0769,0.87471 0.71522,-0.46819 1.18381,0.0952 0.97268,0.23319 a 14.16045,14.367675 75 0 0 -0.59204,1.65036 l -7.90711,-0.0138 -0.002,-0.0279 -0.55283,0.0983 -77.38499,-58.28941 a 3.0220471,2.9357029 75 0 0 0.12248,-1.96381 3.0220471,2.9357029 75 0 0 -0.0427,-0.12372 l 0.81454,-3.00495 -4.54797,-1.30972 -0.72843,2.69825 a 3.0220471,2.9357029 75 0 0 -0.40488,0.34076 l -76.61508,-1.74825 a 2.8817759,2.9630622 75 0 0 -1.72613,-0.0463 2.8817759,2.9630622 75 0 0 -2.13368,3.46032 z m 23.50461,-2.2535 75.05141,1.58709 a 3.0220471,2.9357029 75 0 0 -0.33981,2.38234 3.0220471,2.9357029 75 0 0 0.16428,0.45376 l -0.29382,1.0885 -71.37173,-1.9315 -0.43238,-1.61368 -0.0115,0.003 -0.002,-0.006 -1.97048,0.52799 a 2.8817759,2.9630622 75 0 0 -0.0516,-1.21872 2.8817759,2.9630622 75 0 0 -0.74247,-1.27303 z m -5.49677,4.20188 1.16057,0.088 -50.620788,91.55893 -0.81892,0.12543 -0.147552,-0.55067 z m 6.18528,-1.29626 1.854,-0.49679 0.31129,1.16179 -2.22844,-0.0603 -0.0739,-0.27569 a 2.8817759,2.9630622 75 0 0 0.13702,-0.32906 z m -4.50483,1.51993 a 2.8817759,2.9630622 75 0 0 0.20603,0.1202 l 0.30617,1.14263 -0.29969,0.54173 -0.97675,0.26171 0.25284,0.94361 0.067,-0.0179 -48.754968,88.134 -1.259885,0.19295 z m 4.57402,-0.42127 2.22825,0.0596 0.10014,0.37375 -2.0641,0.55307 z m 2.58477,0.0691 71.11673,1.89394 -0.0889,0.3288 -7.73963,2.07382 0.0134,0.05 -0.067,0.0179 0.51831,1.93436 -0.23367,0.0626 0.27713,1.03426 6.28961,-1.68529 -23.18673,85.85931 -2.08403,0.55841 -25.17231,-14.84231 0.95584,-1.23032 0.006,-0.002 -0.26824,-1.00109 -2.56907,0.68838 -3.41463,-12.74358 2.46879,-0.66151 -0.25026,-0.93401 0.009,-0.003 -0.55307,-2.06409 -0.0537,-0.20052 -2.47692,0.66368 -4.64898,-17.35021 2.52409,-0.67632 -0.25283,-0.9436 -0.0473,0.0127 -0.49874,-1.86136 -7.1e-4,1.8e-4 -0.0386,-0.14374 -2.4762,0.6635 -4.66477,-17.40919 2.35895,-0.63208 -0.22123,-0.82564 -0.0473,0.0127 -0.51199,-1.91077 0.0235,-0.006 -0.0948,-0.35385 -2.3354,0.62577 -4.59523,-17.14966 2.47692,-0.6637 -0.25284,-0.94359 -0.11798,0.0316 z m -7.03105,3.1908 0.5455,-0.14617 4.59524,17.14969 -1.11386,0.29846 0.0948,0.35384 0.51199,1.91075 -0.0707,0.019 0.22123,0.82564 1.18463,-0.31741 4.66794,17.42096 -1.12568,0.30163 0.0695,0.25948 0.46459,1.73384 -0.0354,0.009 0.25284,0.94361 1.16105,-0.31111 4.67683,17.45414 -0.74234,0.19891 -0.23369,0.0626 0.5521,2.06041 -0.14152,0.0379 0.27714,1.03426 1.11756,-0.29944 4.4151,16.47737 -70.042503,10.71352 z m 4.45194,17.56732 0.78361,-0.20996 0.19594,0.73127 -0.7836,0.20997 z m 5.2369,-1.40322 1.98154,-0.53095 0.16434,0.61332 -1.98154,0.53095 z m 0.24019,0.89641 1.98154,-0.53095 0.2718,1.01434 -1.98155,0.53096 z m -5.19897,1.54474 0.7836,-0.20997 0.23387,0.87282 -0.78361,0.20996 z m 79.03868,-21.08981 76.77421,58.06513 -3.70987,0.6622 -74.08793,-56.44066 0.42025,-1.55138 a 3.0220471,2.9357029 75 0 0 0.60334,-0.73529 z m -13.11028,3.85659 2.10169,-0.56315 0.16533,0.61703 -2.10169,0.56314 z m 2.45184,-0.65697 2.36857,-0.63466 0.16533,0.61702 -2.36857,0.63466 z m 2.7025,-0.72413 2.14224,-0.57402 -0.19218,0.71283 -1.78473,0.47821 z m -4.91296,2.28194 2.10169,-0.56315 0.20108,0.75046 -2.10169,0.56315 z m 2.45184,-0.65697 2.36857,-0.63466 0.20109,0.75046 -2.36857,0.63466 z m 2.7025,-0.72414 1.61958,-0.43396 -0.23385,0.86699 -1.18464,0.31743 z m 6.5386,-0.52893 73.59874,55.99497 -93.28531,16.65697 z m -72.75271,37.6435 0.86617,-0.23208 0.21807,0.81384 -0.86617,0.23209 z m 5.32674,-1.39819 2.16656,-0.58053 0.17282,0.64501 -2.16655,0.58053 z m 0.24552,0.91628 2.16655,-0.58052 0.21176,0.79025 -2.16657,0.58053 z m -5.29103,1.53149 0.86617,-0.23208 0.1833,0.68408 -0.86617,0.23209 z m 10.4741,17.81203 2.24104,-0.60049 0.2639,0.98491 -2.24104,0.60048 z m -5.17013,1.48732 0.74234,-0.19891 0.23467,0.87578 -0.74234,0.19891 z m 0.29274,1.0925 0.74234,-0.1989 0.19219,0.71727 -0.74233,0.19891 z m 5.20137,-1.37072 2.24104,-0.60048 0.18645,0.69588 -2.24103,0.60048 z m -113.013334,38.2271 1.488357,-0.3988 0.279698,1.04385 -1.488358,0.3988 z m 0.336585,1.25616 1.488358,-0.39881 0.260145,0.97088 -1.488358,0.3988 z m 40.083357,-7.54354 16.314462,-2.45782 -7.09504,7.65229 -9.304086,-5.12123 0.09727,-0.0261 z m -33.670429,9.0726 1.746369,-0.46794 1.2302,4.59115 -1.746378,0.46793 z m 29.246746,-7.83664 1.887929,-0.50587 1.230191,4.59115 -1.887919,0.50586 z m 3.048621,-0.52057 9.835754,5.29795 -6.529172,7.04238 z m 20.277144,-3.56228 16.72312,-2.51912 -3.22487,4.22678 -7.42115,1.98849 z m -0.56951,0.74359 c 0.68293,0.43901 2.74318,1.7178 5.31598,3.30911 l -4.17242,1.11799 z m -1.29549,0.47586 1.09884,4.3103 -0.78287,0.20978 1.41291,5.27303 -0.65683,0.17599 0.041,0.15333 0.0198,-0.006 0.41105,1.53406 -0.008,0.002 0.0998,0.37228 -8.45966,-4.65612 z m 20.87324,-4.08305 16.51203,-2.48706 -1.33095,1.51411 -11.92679,3.19578 z m -1.46125,1.01016 0.61905,2.31032 -2.94356,0.78872 z m 1.49962,0.25949 1.91333,1.30221 -1.45961,0.3911 z m -70.047222,19.37983 16.848176,-4.51445 1.022988,3.81784 -17.758972,1.11533 z m 18.219336,-4.88185 10.824701,-2.90047 -9.751937,6.90408 z m 12.94259,-3.35895 1.768053,6.59845 -12.060395,0.75698 0.425623,-0.30763 7.31e-4,-2e-4 z m 57.700926,-15.24918 16.18778,-2.43809 -5.99353,9.73137 -0.50206,-0.38455 0.18945,-0.0508 -0.26824,-1.0011 -0.0169,0.005 -0.51396,-1.91814 -0.0357,-0.13338 -1.26205,0.33817 -1.33765,-4.99217 -5.40203,1.44747 z m -1.59783,0.72444 0.1739,0.54042 -0.87502,0.23447 z m 1.04292,-0.14751 0.53839,0.31082 -0.42462,0.11378 z m 21.30412,-5.60346 23.66753,13.8676 0.23446,0.87502 -11.06652,2.96526 -0.26902,-1.00401 -3.25537,0.87227 -0.92284,-3.4441 -3.77434,1.01133 -2.03532,-7.59588 -2.88089,0.77194 -1.98514,-7.40863 2.36192,-0.63287 z m -68.0508,20.13121 10.30863,5.55286 -16.403095,1.03013 z m 64.24597,-16.66239 4.72383,17.6296 -10.58262,-8.09705 z m -9.07023,6.03957 1.04532,-0.2801 0.19653,0.73349 -1.04532,0.2801 z m -46.29147,12.51121 0.46,-0.12325 0.17995,0.67158 -0.46,0.12325 z m -16.397562,4.68053 0.302234,0.0841 -0.274974,0.0176 z m 16.624912,-3.83203 0.46001,-0.12326 0.1837,0.68558 -0.46001,0.12326 z m 46.31928,-12.40739 1.04533,-0.28009 0.20542,0.76666 -0.72613,0.19456 -0.43039,-0.32949 z m 49.63746,-11.99269 9.69856,-1.7454 -4.86304,5.73237 z m -94.95565,26.00428 0.61185,-0.16394 0.14741,0.5823 z m 1.97711,-0.52976 1.74638,-0.46794 -1.39249,1.83876 z m 3.57531,-0.958 8.23649,-2.20696 c 2.48901,1.53186 5.70721,3.51366 5.97701,3.67951 l -16.12809,1.01254 z m 9.66218,-2.58898 4.43339,-1.18792 1.24343,4.64052 z m 5.75442,-1.54188 5.53545,-1.48322 -4.22171,6.38617 z m 7.23466,-1.93853 1.14558,-0.30696 9.74755,6.63473 -15.82962,0.99421 z m 2.42604,-0.65005 6.85207,-1.83601 2.13702,7.9755 z m 8.22028,-2.20262 6.61836,-1.77339 1.31213,1.01055 -5.66863,9.20425 z m 55.40057,-14.69914 4.81757,3.94358 -5.64675,6.65581 -2.14776,0.38824 z m 13.58447,-3.21331 14.42902,-2.59733 -5.93678,7.72592 z m -1.86494,0.72727 2.18619,10.42352 -2.04073,0.36906 -5.52524,-4.55592 z m 1.40109,0.32224 8.33454,4.88798 -3.43533,4.47042 -2.87734,0.51973 z m 18.12055,-4.22726 14.33323,-2.58036 -5.82694,7.56375 z m -77.82109,21.01328 10.46577,8.06202 -16.03876,1.00679 z m 75.74809,-20.28706 2.07405,10.47096 -3.36941,0.60891 -4.91294,-2.96675 z m 1.36489,0.24028 8.51256,4.92719 -3.48442,4.52309 -3.04161,0.54953 z m 17.99977,-4.07953 14.16527,-2.54957 -5.87321,7.59747 z m -1.99062,0.90394 2.04481,10.27337 -2.73803,0.49424 -5.23454,-3.06702 z m 1.38395,0.10798 8.2751,4.84307 -3.54628,4.58705 -2.81626,0.50891 z m 18.03635,-4.14939 14.1697,-2.55076 -5.94233,7.62548 z m -2.18389,0.66032 2.2202,10.50923 -3.29337,0.59484 -5.08,-3.09184 z m 1.06286,0.036 8.72214,5.18153 -3.55866,4.56748 -2.9534,0.53378 z m -59.22929,16.53965 4.84572,3.96606 -9.79411,1.76943 z m 77.66468,-20.35271 15.32842,-2.75856 -6.34031,7.82696 z m -2.08868,0.84171 2.15247,10.31249 -3.36349,0.60732 -4.91554,-3.03242 z m 1.20347,-0.003 9.1798,5.08497 -3.551,4.38373 -3.58644,0.64809 z m 17.27407,-3.52954 1.96985,10.53917 -3.36256,0.60788 -5.21129,-2.93897 z m -77.31813,21.69626 4.12569,2.41997 -6.9363,1.25336 z m 17.56958,-3.24052 4.25508,2.4635 -7.1445,1.2902 z m -43.31138,12.51939 1.09691,-0.19667 -1.53353,1.80781 z m 2.55887,-0.45808 12.79971,-2.29115 1.90362,1.40752 -16.48975,2.95356 z m 57.84991,-15.2417 4.34043,2.54022 -7.30487,1.31971 z m -43.77446,12.7225 0.96658,-0.17292 0.22131,1.05318 z m 2.19767,-0.3937 1.24695,-0.22346 -1.02045,1.32822 z m 2.76856,-0.49533 10.24303,-1.83362 2.28065,1.33731 -14.07411,2.5212 z m 56.24136,-14.89915 4.18268,2.48528 -7.11052,1.28424 z m -44.63972,12.82237 1.72499,-0.30891 0.30413,1.53347 z m 3.00369,-0.53776 1.38425,-0.24768 -1.13955,1.47943 z m -17.03082,4.7854 0.0186,0.007 -0.0166,0.004 z m 19.88074,-5.29544 10.54462,-1.88757 2.30129,1.33176 -14.4043,2.58046 z m 56.71432,-14.92399 4.29101,2.37648 -7.25743,1.31095 z m -44.50729,12.73872 1.01624,-0.18222 0.17489,0.87993 z m 2.25875,-0.40455 1.13233,-0.20307 -0.93743,1.21353 z m 2.53637,-0.45364 10.58984,-1.89572 2.41625,1.30965 -14.55897,2.60765 z m 11.97727,-2.14345 1.67902,-0.3005 0.28409,1.34606 z m 2.73752,-0.49014 1.19192,-0.21358 -0.97004,1.24518 z m 2.70966,-0.48509 10.6096,-1.89866 2.24952,1.33615 -14.42996,2.58496 z m 11.90029,-2.12995 1.67536,-0.29952 0.31917,1.53025 z m 2.75877,-0.49346 1.74379,-0.3124 -1.44687,1.78619 z m -17.7993,4.82771 0.12909,-0.0164 -0.0471,0.06 z m 20.94175,-5.3901 10.99848,-1.96889 2.36946,1.31192 -15.00213,2.6877 z m 12.57877,-2.25167 1.46328,-0.26244 0.22683,1.21523 z m -99.7841,28.33624 13.34173,3.02244 -7.21035,1.93201 -0.5669,-2.1157 -4.48204,1.20096 z m -59.10108,31.18069 2.76146,-0.73993 0.20562,0.76739 -2.76146,0.73994 z m 0.28601,1.06743 2.76147,-0.73993 0.18765,0.70032 -2.76146,0.73993 z"
       inkscape:connector-curvature="0" /><path
       style="fill:#ffffff;fill-opacity:1;stroke-width:4.20989;stroke-linejoin:round;stroke:none"
       d="m 235.37508,102.01364 c -3.53175,5.9162 -6.80189,17.64709 -8.13348,20.0098 -1.33158,2.36272 -2.00533,8.00293 -2.40184,13.14547 -0.39652,5.14254 -1.53612,4.36545 -1.76015,7.80473 -0.22402,3.43927 -1.26372,3.38215 -2.08961,6.75781 -0.82588,3.37564 -5.98517,20.73989 -7.96942,26.54407 -1.98427,5.80419 -7.61412,10.37964 -5.32087,12.36288 2.29325,1.98321 24.69251,6.98062 28.24423,5.26715 3.55175,-1.71348 -1.37422,-3.53968 -2.9314,-5.55078 -1.55716,-2.01112 -2.56141,-10.3953 -0.0493,-17.40629 2.51214,-7.01096 4.64247,-20.38876 12.05193,-26.24519 7.40949,-5.8564 14.48018,-7.38771 14.48018,-7.38771 7.47411,11.2432 8.70705,14.83936 8.56852,16.61061 -0.13852,1.77123 2.64992,3.95582 2.03991,5.82143 -0.61,1.86562 1.68916,6.12675 2.72639,17.61893 1.03724,11.4922 -3.02014,16.02456 1.24409,16.88853 4.26423,0.86399 36.95123,2.62416 33.15815,-2.38649 -3.79311,-5.01061 -12.22515,-12.50154 -15.89456,-24.83434 -3.66942,-12.33278 -7.42055,-23.56183 -1.70785,-35.14949 19.52608,-0.38693 36.5334,0.22441 51.20076,-6.65837 14.66733,-6.88277 20.93918,-11.73703 20.93918,-11.73703 1.18792,8.5046 1.97598,10.19675 1.55184,17.16314 -0.42416,6.9664 0.46612,14.99474 -0.78377,27.04499 -1.24988,12.05024 -1.18076,21.87768 -0.97168,23.75561 0.20909,1.8779 -5.60921,7.14986 -5.74313,10.56047 -0.13394,3.41064 23.70751,4.14336 27.9254,2.63326 4.21787,-1.51013 2.138,-4.65297 -1.38306,-6.31435 -3.52106,-1.66137 -7.73811,-4.50834 -5.31313,-8.94902 2.42497,-4.44069 3.70374,-8.27371 3.83927,-13.59356 0.13561,-5.31982 7.2146,-28.0756 7.2146,-28.0756 16.21876,11.31172 27.37408,20.57672 28.74651,27.37607 1.37245,6.79937 0.0269,9.98717 -2.43346,14.85425 -2.46034,4.86708 -3.82004,9.06598 1.47084,10.40606 5.29087,1.34008 17.58344,2.19589 24.1547,-1.64537 6.57128,-3.84125 -4.02358,-8.7088 -6.51026,-10.422 -2.48667,-1.7132 -0.67463,-9.34337 -0.11854,-15.15553 0.55616,-5.81218 -0.718,-9.6473 -6.75123,-19.57811 -6.03319,-9.93079 -14.70666,-22.32197 -17.91157,-32.61112 -3.20488,-10.28914 -1.61206,-25.753057 -1.61206,-25.753057 1.99202,-0.2342 3.16097,-2.11064 3.16097,-2.11064 6.92778,3.92774 15.04121,7.14708 19.03466,6.67933 3.99344,-0.46775 3.73307,-3.23308 2.90376,-6.51002 -0.82933,-3.27691 -1.40394,-10.30026 -1.40394,-10.30026 5.11079,-0.28492 6.77398,0.96313 9.34123,2.1199 2.56724,1.15675 6.50429,0.2963 6.50429,0.2963 1.48437,2.81275 3.01672,3.34904 3.94138,3.64177 0.92465,0.29273 1.85195,4.97727 3.6803,4.63492 1.82836,-0.34238 3.16389,-3.39564 3.37333,-4.57368 0.20941,-1.17802 0.5534,0.92818 2.3717,1.13615 1.81831,0.2081 1.85856,-1.05692 3.66553,0.66483 1.80699,1.72176 0.92278,4.73064 2.46326,5.89035 1.54047,1.15972 1.46325,3.25027 2.42863,4.29915 0.96535,1.0489 -0.57145,2.25848 -0.73062,3.4138 -0.15914,1.15532 1.16619,1.99817 0.89547,3.08386 -0.27071,1.0857 0.44503,2.579117 0.31184,3.596387 -0.13311,1.01729 0.18852,11.74333 -0.34844,12.70841 -0.53695,0.96509 1.3821,2.16198 0.42635,2.66951 -0.95578,0.50752 0.89388,1.51876 0.0627,2.39856 -0.83127,0.87982 0.40264,2.69177 -0.0477,3.52239 -0.45039,0.83066 0.42817,2.11828 -0.0233,3.25298 -0.45142,1.13466 0.64424,3.18459 -0.1806,4.03097 -0.8248,0.84634 0.82168,2.80832 0.14102,3.53471 -0.68066,0.72639 -0.42626,1.95997 0.0685,2.66098 0.49487,0.70099 -1.13053,1.62228 -1.05558,2.40565 0.075,0.78339 1.17769,0.59472 0.55696,1.73779 -0.62073,1.14308 -1.10793,1.92106 -0.46716,2.35886 0.64077,0.43782 0.74053,1.37325 0.19915,2.1419 -0.54139,0.76863 -0.7879,1.97623 -0.15895,2.39447 0.62899,0.41822 0.51205,1.81057 0.10478,2.45813 -0.40723,0.64756 -0.0904,1.55155 0.24225,2.09453 0.33275,0.54295 0.10788,2.48139 -0.29841,2.90798 -0.4063,0.42662 -0.89992,2.65802 -0.0579,3.56101 0.84193,0.90299 -0.0925,0.73873 -0.0885,1.82705 0.004,1.08831 0.85791,1.76227 0.529,2.42796 -0.32892,0.66567 -0.59349,1.44679 -0.1277,1.72405 0.4659,0.27725 -0.688,1.69329 -0.14206,2.10317 0.54603,0.40988 1.31631,0.92699 0.947,2.02377 -0.36931,1.09676 -0.21013,3.03861 -0.64058,3.80569 -0.43045,0.76709 0.12248,0.97416 -0.74018,1.49014 -0.8626,0.51598 0.009,1.44957 -0.46863,1.77438 -0.47679,0.32481 -0.70725,1.2527 -1.60376,1.51926 -0.89653,0.26655 -2.62906,1.02015 -3.27406,1.02015 -0.645,0 -2.25843,1.16259 -2.37559,1.72774 -0.11708,0.56516 2.16235,0.3761 2.64989,0.82212 0.48754,0.44601 0.41898,1.98998 0.0188,2.54825 -0.40063,0.55826 -2.76328,1.59834 -2.66963,2.23638 0.0937,0.63805 3.47542,0.80692 5.0562,0.2031 1.58077,-0.6038 6.93093,-3.75599 9.76836,-8.88675 2.83744,-5.13077 3.04284,-9.37399 4.15976,-17.70207 1.11692,-8.32807 4.00128,-27.467 6.02815,-38.36975 2.02689,-10.90276 3.6186,-20.564677 4.25259,-24.451837 13.6951,4.709117 19.42848,5.115617 36.64662,-1.31069 1.48585,-0.49475 -0.29549,-1.82441 -3.62924,-0.5648 -3.33373,1.25961 -9.6668,1.58038 -15.62936,0.42223 8.23081,-0.0239 17.89443,-3.78137 16.68443,-4.59129 -1.20999,-0.80992 -3.5533,0.32673 -8.89765,0.5518 -5.34435,0.22508 -19.49606,-1.0739 -25.66527,-3.95406 0.12707,-9.39955 -3.53854,-22.2293 -8.86964,-29.17562 -5.33112,-6.94633 -5.98643,-11.12561 -8.82241,-18.23959 -2.836,-7.11398 -10.0545,-17.6244 -15.53665,-22.19474 -5.48214,-4.57036 -7.87811,-8.0660203 -14.2935,-8.7349803 -6.41543,-0.66896 -9.59963,-1.03893 -12.3593,0.37178 -2.75966,1.41075 -3.46604,-0.22459 -5.6402,-1.12581 -2.17417,-0.90122 -11.37267,-2.26536 -19.19303,-2.73207 -7.82033,-0.46669 -9.12655,-0.74702 -14.94493,3.25823 -5.72658,0.0614 -6.28322,0.13582 -9.15495,1.1624 -2.87173,1.02657 -11.19094,5.1208303 -16.92719,6.5811703 -5.73624,1.46034 -22.66054,7.58304 -29.14807,9.49536 -6.48754,1.91232 -17.1913,-0.58778 -21.99372,-3.36772 -4.80242,-2.77994 -18.06091,-5.95256 -35.45313,0.4573 -17.39222,6.40984 -27.62714,10.8033 -37.60111,26.08556 -9.97395,15.28226 -11.91108,26.74688 -12.14394,33.09468 -0.23287,6.34779 -2.38521,16.11145 -3.4739,23.521217 -1.08872,7.40975 -1.71972,12.17009 -3.20072,17.5946 -1.1079,4.058 -5.52374,21.18862 -6.94327,22.62775 -1.41951,1.43912 -4.62349,1.20578 -5.85823,6.1915 -1.23473,4.98573 0.56593,9.17206 -0.80574,12.05715 -1.37169,2.88507 -5.37345,9.632 -4.71112,14.00134 0.66233,4.36935 5.7895,4.62076 9.05584,1.17373 3.26634,-3.44703 10.43734,-23.15268 10.35198,-27.95208 -0.0854,-4.79942 -0.954,-9.40465 -1.66721,-11.27704 -0.71322,-1.87241 3.29149,-13.14273 5.1444,-19.24632 2.14005,-7.04942 4.97947,-19.18077 5.78351,-26.029567 0.80402,-6.8488 0.8417,-6.89538 1.6954,-5.3608 0.85371,1.53457 2.35093,2.67856 2.28619,4.40075 -0.0647,1.72218 0.18832,4.42138 0.51585,5.57745 0.32759,1.15606 0.83007,1.753467 0.24891,3.415547 z"
       id="path1"
       sodipodi:nodetypes="csssssssssscsssssscscsssssssscssssssssccsscscssscsssssssssssssssssssssssssssssssssssssssssccscsscssssssscsssssssssssssssssssssc" /><path
       id="path12"
       style="fill:#f6f6f6;fill-opacity:1;stroke:#0c8dff;stroke-width:10;stroke-linecap:round;stroke-linejoin:round;stroke-dasharray:none;stroke-opacity:1;filter:url(#filter12);opacity:0.41187024"
       d="m 361.50798,142.32759 19.15301,162.42313 35.81831,-30.51986 26.32252,45.41307 31.07154,-18.31562 -26.71178,-45.31547 44.44108,-13.90651 z"
       sodipodi:nodetypes="cccccccc" /><path
       id="path3"
       style="fill:#f6f6f6;fill-opacity:1;stroke:#48a9ff;stroke-width:10;stroke-linecap:round;stroke-linejoin:round;stroke-dasharray:none;stroke-opacity:1"
       d="m 361.50798,142.32759 19.15301,162.42313 35.81831,-30.51986 26.32252,45.41307 31.07154,-18.31562 -26.71178,-45.31547 44.44108,-13.90651 z"
       sodipodi:nodetypes="cccccccc" /><g
       id="g11"
       transform="translate(-24.752324,-14.588813)"><path
         id="path11"
         style="fill:#f6f6f6;fill-opacity:1;stroke:#007cc6;stroke-width:13.8483;stroke-linecap:round;stroke-linejoin:round;stroke-dasharray:none;stroke-opacity:1;filter:url(#filter11)"
         inkscape:transform-center-y="-64.999691"
         d="m 388.6363,63.855171 v 63.002419 z m -68.23632,28.264476 44.54963,44.549263 z m -28.26449,68.236333 h 63.0028 z"
         inkscape:transform-center-x="2.4039414e-06" /><path
         id="path4"
         style="fill:#f6f6f6;fill-opacity:1;stroke:#48bfff;stroke-width:13.8483;stroke-linecap:round;stroke-linejoin:round;stroke-dasharray:none;stroke-opacity:1"
         inkscape:transform-center-y="-64.999691"
         d="m 388.6363,63.855171 v 63.002419 z m -68.23632,28.264476 44.54963,44.549263 z m -28.26449,68.236333 h 63.0028 z"
         inkscape:transform-center-x="2.4039414e-06" /></g></g></svg>
