<?xml version="1.0" encoding="UTF-8" standalone="no"?>
<!-- Created with Inkscape (http://www.inkscape.org/) -->

<svg
   width="2000"
   height="1300"
   viewBox="0 0 529.16665 343.95833"
   version="1.1"
   id="svg1"
   xml:space="preserve"
   inkscape:version="1.3 (0e150ed, 2023-07-21)"
   sodipodi:docname="compare-recommend-object.svg"
   xmlns:inkscape="http://www.inkscape.org/namespaces/inkscape"
   xmlns:sodipodi="http://sodipodi.sourceforge.net/DTD/sodipodi-0.dtd"
   xmlns="http://www.w3.org/2000/svg"
   xmlns:svg="http://www.w3.org/2000/svg"><sodipodi:namedview
     id="namedview1"
     pagecolor="#353535"
     bordercolor="#ffffff"
     borderopacity="1"
     inkscape:showpageshadow="0"
     inkscape:pageopacity="0"
     inkscape:pagecheckerboard="false"
     inkscape:deskcolor="#373737"
     inkscape:document-units="mm"
     inkscape:zoom="0.16252147"
     inkscape:cx="821.42993"
     inkscape:cy="246.12133"
     inkscape:current-layer="layer1" /><defs
     id="defs1"><inkscape:path-effect
       oposite_fuse="false"
       fuse_paths="false"
       discard_orig_path="false"
       mode="vertical"
       is_visible="true"
       id="path-effect1066"
       center_point="264.58333,-99.87502"
       end_point="264.58333,296.99998"
       start_point="264.58333,-496.75002"
       effect="mirror_symmetry" /><inkscape:path-effect
       effect="mirror_symmetry"
       start_point="1000,-2.1484127e-13"
       end_point="1000,3000"
       center_point="1000,1500"
       id="path-effect1041"
       is_visible="true"
       mode="vertical"
       discard_orig_path="false"
       fuse_paths="false"
       oposite_fuse="false" /><inkscape:path-effect
       effect="mirror_symmetry"
       start_point="1000,-2.1484127e-13"
       end_point="1000,3000"
       center_point="1000,1500"
       id="path-effect1034"
       is_visible="true"
       mode="vertical"
       discard_orig_path="false"
       fuse_paths="false"
       oposite_fuse="false" /><inkscape:path-effect
       oposite_fuse="false"
       fuse_paths="false"
       discard_orig_path="false"
       mode="vertical"
       is_visible="true"
       id="path-effect1022"
       center_point="329.65021,-58.290042"
       end_point="329.65021,338.58496"
       start_point="329.65021,-455.16504"
       effect="mirror_symmetry" /><inkscape:path-effect
       effect="mirror_symmetry"
       start_point="329.65021,-455.16504"
       end_point="329.65021,338.58496"
       center_point="329.65021,-58.290042"
       id="path-effect1014"
       is_visible="true"
       mode="vertical"
       discard_orig_path="false"
       fuse_paths="false"
       oposite_fuse="false" /><inkscape:path-effect
       oposite_fuse="false"
       fuse_paths="false"
       discard_orig_path="false"
       mode="vertical"
       is_visible="true"
       id="path-effect1010"
       center_point="329.65021,-58.290042"
       end_point="329.65021,338.58496"
       start_point="329.65021,-455.16504"
       effect="mirror_symmetry" /><inkscape:path-effect
       effect="mirror_symmetry"
       start_point="264.58333,-496.75002"
       end_point="264.58333,296.99998"
       center_point="264.58333,-99.87502"
       id="path-effect1005"
       is_visible="true"
       mode="vertical"
       discard_orig_path="false"
       fuse_paths="false"
       oposite_fuse="false" /><inkscape:path-effect
       effect="mirror_symmetry"
       start_point="264.58333,-496.75002"
       end_point="264.58333,296.99998"
       center_point="264.58333,-99.87502"
       id="path-effect997"
       is_visible="true"
       mode="vertical"
       discard_orig_path="false"
       fuse_paths="false"
       oposite_fuse="false" /><inkscape:path-effect
       effect="mirror_symmetry"
       start_point="1000,-2.1484127e-13"
       end_point="1000,3000"
       center_point="1000,1500"
       id="path-effect991"
       is_visible="true"
       mode="vertical"
       discard_orig_path="false"
       fuse_paths="false"
       oposite_fuse="false" /><inkscape:path-effect
       effect="mirror_symmetry"
       start_point="264.58333,-496.75002"
       end_point="264.58333,296.99998"
       center_point="264.58333,-99.87502"
       id="path-effect959"
       is_visible="true"
       mode="vertical"
       discard_orig_path="false"
       fuse_paths="false"
       oposite_fuse="false" /><inkscape:path-effect
       effect="mirror_symmetry"
       start_point="309.98724,-469.75827"
       end_point="235.57506,320.49605"
       center_point="272.78115,-74.631111"
       id="path-effect956"
       is_visible="true"
       mode="vertical"
       discard_orig_path="false"
       fuse_paths="false"
       oposite_fuse="false" /><inkscape:path-effect
       oposite_fuse="false"
       fuse_paths="false"
       discard_orig_path="false"
       mode="vertical"
       is_visible="true"
       id="path-effect943"
       center_point="329.65021,-58.290042"
       end_point="329.65021,338.58496"
       start_point="329.65021,-455.16504"
       effect="mirror_symmetry" /><inkscape:path-effect
       effect="mirror_symmetry"
       start_point="264.58333,-496.75002"
       end_point="264.58333,296.99998"
       center_point="264.58333,-99.87502"
       id="path-effect939"
       is_visible="true"
       mode="vertical"
       discard_orig_path="false"
       fuse_paths="false"
       oposite_fuse="false" /><inkscape:path-effect
       effect="mirror_symmetry"
       start_point="266.8284,-496.2823"
       end_point="266.8284,297.4677"
       center_point="266.8284,-99.407298"
       id="path-effect925"
       is_visible="true"
       mode="vertical"
       discard_orig_path="false"
       fuse_paths="false"
       oposite_fuse="false" /><inkscape:path-effect
       effect="mirror_symmetry"
       start_point="264.58333,-496.75002"
       end_point="264.58333,296.99998"
       center_point="264.58333,-99.87502"
       id="path-effect902"
       is_visible="true"
       mode="vertical"
       discard_orig_path="false"
       fuse_paths="false"
       oposite_fuse="false" /><inkscape:path-effect
       effect="mirror_symmetry"
       start_point="264.58333,-496.75002"
       end_point="264.58333,296.99998"
       center_point="264.58333,-99.87502"
       id="path-effect887"
       is_visible="true"
       mode="vertical"
       discard_orig_path="false"
       fuse_paths="false"
       oposite_fuse="false" /><inkscape:path-effect
       effect="mirror_symmetry"
       start_point="329.65021,-455.16504"
       end_point="329.65021,338.58496"
       center_point="329.65021,-58.290042"
       id="path-effect867"
       is_visible="true"
       mode="vertical"
       discard_orig_path="false"
       fuse_paths="false"
       oposite_fuse="false" /><inkscape:path-effect
       effect="mirror_symmetry"
       start_point="105,0"
       end_point="105,297"
       center_point="105,148.5"
       id="path-effect12"
       is_visible="true"
       lpeversion="1.2"
       lpesatellites=""
       mode="vertical"
       discard_orig_path="false"
       fuse_paths="false"
       oposite_fuse="false"
       split_items="false"
       split_open="false"
       link_styles="false" /><inkscape:path-effect
       effect="fillet_chamfer"
       id="path-effect6"
       is_visible="true"
       lpeversion="1"
       nodesatellites_param="F,0,0,1,0,0,0,1 @ F,0,0,1,0,0,0,1 @ F,0,1,1,0,15.875,0,1 @ F,0,1,1,0,15.875,0,1"
       radius="60"
       unit="px"
       method="auto"
       mode="F"
       chamfer_steps="1"
       flexible="false"
       use_knot_distance="true"
       apply_no_radius="true"
       apply_with_radius="true"
       only_selected="true"
       hide_knots="false" /><inkscape:path-effect
       effect="fillet_chamfer"
       id="path-effect5"
       is_visible="true"
       lpeversion="1"
       nodesatellites_param="F,0,0,1,0,0,0,1 @ F,0,0,1,0,0,0,1 @ F,0,0,1,0,0,0,1 @ F,0,0,1,0,0,0,1"
       radius="0"
       unit="px"
       method="auto"
       mode="F"
       chamfer_steps="1"
       flexible="false"
       use_knot_distance="true"
       apply_no_radius="true"
       apply_with_radius="true"
       only_selected="true"
       hide_knots="false" /><inkscape:path-effect
       effect="fillet_chamfer"
       id="path-effect4"
       is_visible="true"
       lpeversion="1"
       nodesatellites_param="F,0,0,1,0,0,0,1 @ F,0,0,1,0,0,0,1 @ F,0,0,1,0,0,0,1 @ F,0,0,1,0,0,0,1"
       radius="0"
       unit="px"
       method="auto"
       mode="F"
       chamfer_steps="1"
       flexible="false"
       use_knot_distance="true"
       apply_no_radius="true"
       apply_with_radius="true"
       only_selected="false"
       hide_knots="false" /></defs><g
     inkscape:label="Layer 1"
     inkscape:groupmode="layer"
     id="layer1"><path
       d="m 204.95882,42.024678 c -18.85174,3.86871 -30.19254,22.84413 -46.6096,29.673125 -18.36046,8.680228 -41.58405,8.753415 -57.24514,21.538523 -20.836829,10.227764 -47.137427,17.636284 -57.448772,40.752744 0.484179,24.20312 -25.404651,31.90901 -37.9941496,47.34674 9.3768756,17.24259 30.3477916,35.15653 49.6623486,28.02625 15.672805,-5.78587 32.906107,-6.93067 46.230713,-15.03137 17.66185,-10.87133 39.3407,-6.73469 58.41898,-3.00202 15.86024,9.69904 28.65384,27.17571 29.71486,46.64269 2.95687,21.42937 18.74299,44.17258 7.74774,65.4305 -10.97784,-1.59384 -45.56947,15.60911 -27.9101,22.54244 17.1229,7.06617 40.16448,8.28203 55.90576,-3.51272 20.47253,-11.2866 18.01131,-39.38019 22.54051,-59.41194 2.92307,-7.14002 0.26969,-33.68855 4.38843,-13.96846 -0.092,25.02717 19.83526,37.16361 36.63276,50.81264 4.07736,9.53717 24.49067,32.21848 25.99166,16.81041 12.88684,-10.81782 -4.43609,-35.94916 -12.68123,-48.38676 -0.91153,-15.89118 -1.95078,-48.57146 22.85866,-40.62665 14.87945,-0.56113 29.55829,2.80211 44.4447,1.69872 -7.37688,21.45085 -2.74037,44.35549 -5.88261,66.4002 -9.56215,9.27401 -42.70826,-5.03569 -39.17536,16.52059 12.71317,14.08412 36.41206,15.68864 54.54426,13.46649 17.07721,-5.03606 30.4154,-17.49426 33.98366,-35.1835 6.17859,-10.47937 9.17333,-26.64781 16.55813,-35.80614 10.80007,-10.90616 18.91999,22.41232 28.87265,28.18026 10.0085,8.31658 24.1213,31.58079 0.80251,28.99085 -12.19877,1.59675 -27.66546,12.23869 -8.58466,17.23562 25.42112,11.13359 58.28831,1.17272 73.02806,-22.40372 0.24895,-20.15193 -9.71653,-40.75737 -14.94453,-60.77584 -9.29372,-18.41511 2.53569,-38.71174 1.44663,-58.10376 1.44725,-19.83585 -0.0125,-41.15514 -14.77329,-56.17439 C 480.11878,109.52406 455.61729,96.771588 432.30445,84.658592 413.74172,75.778537 394.42204,68.7725 373.77373,67.308752 c -27.23767,-4.480111 -54.91444,-4.867609 -82.36444,-7.177305 -18.8981,-1.901522 -40.5821,0.04038 -54.97295,-14.890898 -9.50662,-5.066644 -21.11865,-5.669914 -31.47771,-3.216051"
       stroke="none"
       fill="#a38b66"
       fill-rule="evenodd"
       id="path1"
       style="fill:#ffffff;fill-opacity:0.07094835;stroke:#ffffff;stroke-width:7;stroke-linecap:round;stroke-linejoin:round;stroke-dasharray:7, 21;stroke-dashoffset:0;stroke-opacity:0.24087645"
       sodipodi:nodetypes="cccccscccccccccccccccccccccccccccccc" /><g
       inkscape:label="Layer 1"
       id="layer1-6"
       transform="matrix(0.43648273,0,0,0.43648273,114.45146,-1.2499185)"><path
         id="path7"
         d="m 297.09318,729.43771 h 93.73025 v 27.4762 a 23.822218,24.05575 0 0 1 -23.82223,24.05568 h -46.08582 a 23.822218,24.05575 0 0 1 -23.8222,-24.05568 z"
         style="fill:#888888;fill-opacity:1;stroke-width:2.91766;stroke-linecap:round;stroke-linejoin:round;stroke-opacity:0.740601;paint-order:markers stroke fill" /><path
         id="path1-1"
         style="fill:#ffde05;fill-opacity:1;stroke-width:8.58833;stroke-linecap:round;stroke-linejoin:round;stroke-opacity:0.740601;paint-order:markers stroke fill"
         d="m 343.95728,127.99443 c -123.9655,9.1e-4 -224.45882,100.49517 -224.45862,224.46067 0.42008,135.16448 101.98506,171.39521 101.98506,269.23456 h 244.94917 c 0,-106.36342 101.98512,-139.08092 101.98512,-269.23456 2e-4,-123.9663 -100.49444,-224.46089 -224.46073,-224.46067 z"
         sodipodi:nodetypes="cccccc" /><path
         id="path11"
         style="fill:#787878;fill-opacity:1;stroke-width:2.91766;stroke-linecap:round;stroke-linejoin:round;stroke-opacity:0.740601;paint-order:markers stroke fill"
         d="m 374.88854,729.43799 v 27.49016 a 23.822218,24.262012 0 0 1 -21.34366,24.04097 h 13.45632 a 23.822218,24.05575 0 0 0 23.82208,-24.05518 v -27.47595 z" /><path
         style="fill:none;fill-opacity:1;stroke:#de9b00;stroke-width:13.2942;stroke-linecap:round;stroke-linejoin:round;stroke-dasharray:none;stroke-opacity:1;paint-order:markers stroke fill"
         d="M 382.54593,647.57489 V 387.62824 c 0,-36.67137 51.86435,-36.28046 51.86435,-2.07066 0,34.20985 -26.86947,33.51565 -58.11305,33.51565 h -64.67822 c -31.24358,0 -58.11306,0.6942 -58.11306,-33.51565 0,-34.2098 51.86435,-34.60071 51.86435,2.07066 v 259.94665"
         id="path12"
         sodipodi:nodetypes="csscczsc" /><path
         id="path6"
         style="fill:#fac800;fill-opacity:1;stroke-width:8.58833;stroke-linecap:round;stroke-linejoin:round;stroke-opacity:0.740601;paint-order:markers stroke fill"
         d="m 475.23922,170.44052 c 110.98236,113.27597 -37.74262,420.93063 -254.63599,436.24123 0.53896,4.85692 0.87952,9.83035 0.87952,15.00865 h 244.95112 c 0,-106.36334 101.98414,-139.08179 101.98414,-269.2353 10e-5,-74.93323 -36.75294,-141.24461 -93.17879,-182.01458 z"
         sodipodi:nodetypes="ccccsc" /><path
         id="path13"
         style="color:#000000;fill:#d68400;fill-opacity:1;stroke:none;stroke-width:3.92162;stroke-linecap:round;stroke-linejoin:round;-inkscape-stroke:none;paint-order:markers stroke fill"
         d="m 389.19396,529.70531 c -4.36868,3.95427 -8.74652,7.89557 -13.29623,11.61817 v 80.36692 h 13.29623 z m -77.17508,52.3944 c -4.38742,2.08292 -8.81064,4.08542 -13.2962,5.93376 v 33.65693 h 13.2962 z" /><path
         id="rect4"
         d="m 221.48371,620.38223 h 244.94918 v 71.80466 a 62.255614,62.865912 0 0 1 -62.25561,62.8659 H 283.73932 a 62.255614,62.865912 0 0 1 -62.25561,-62.8659 z"
         style="fill:#a3a3a3;fill-opacity:1;stroke-width:7.62483;stroke-linecap:round;stroke-linejoin:round;stroke-opacity:0.740601;paint-order:markers stroke fill" /><path
         style="fill:#8c8c8c;fill-opacity:1;stroke:none;stroke-width:13.2942;stroke-linecap:round;stroke-linejoin:round;stroke-dasharray:none;stroke-opacity:1;paint-order:markers stroke fill"
         d="m 466.43387,621.6904 -244.95016,-7.4e-4 v 33.87426 z"
         id="path14"
         sodipodi:nodetypes="cccc" /><path
         style="fill:#8c8c8c;fill-opacity:1;stroke:none;stroke-width:13.2942;stroke-linecap:round;stroke-linejoin:round;stroke-dasharray:none;stroke-opacity:1;paint-order:markers stroke fill"
         d="m 466.43387,655.56468 -244.95016,-7.6e-4 v 33.87427 z"
         id="path15"
         sodipodi:nodetypes="cccc" /><path
         id="path16"
         style="fill:#8c8c8c;fill-opacity:1;stroke:none;stroke-width:13.2942;stroke-linecap:round;stroke-linejoin:round;stroke-dasharray:none;stroke-opacity:1;paint-order:markers stroke fill"
         d="m 221.48275,689.43796 v 2.74798 a 62.255614,62.865912 0 0 0 7.70698,30.05985 l 237.24414,-32.80783 z" /><path
         id="path9"
         style="fill:#000000;fill-opacity:0.223195;stroke-width:7.62483;stroke-linecap:round;stroke-linejoin:round;stroke-opacity:0.740601;paint-order:markers stroke fill"
         d="m 436.4389,620.38124 v 71.9709 a 62.255614,65.199496 0 0 1 -46.06956,62.70144 h 13.80891 a 62.255614,62.865912 0 0 0 62.25562,-62.86764 v -71.8047 z" /><path
         id="path17"
         style="fill:#ffffff;fill-opacity:0.468271;stroke-width:13.7695;stroke-linecap:round;stroke-linejoin:round;paint-order:markers stroke fill"
         d="m 271.15867,191.39138 c -12.82195,3.31635 -23.1758,12.17244 -33.42653,20.10926 -32.61381,27.17188 -57.51363,64.32525 -67.71444,105.71542 -1.43222,5.16977 -1.84168,16.07628 6.27817,14.49969 6.76734,-2.91992 9.20519,-11.24556 13.63929,-16.72792 17.73522,-30.17427 37.83028,-59.05143 61.39413,-84.9895 8.72164,-10.04363 18.60258,-19.19079 26.00588,-30.3034 1.97323,-4.19578 -1.30315,-9.42312 -6.1765,-8.30355 z" /><g
         id="g42"
         transform="matrix(0.73478466,-0.42422813,0.42422813,0.73478466,20.446343,266.47373)"><path
           style="fill:none;stroke:#fac800;stroke-width:25;stroke-linecap:round;stroke-linejoin:round;stroke-dasharray:none;stroke-opacity:1"
           d="m 593.58144,276.62494 h 87.57309"
           id="path2"
           inkscape:transform-center-x="-350.52606"
           inkscape:transform-center-y="0.43377789" /><path
           style="fill:none;stroke:#ffde05;stroke-width:25;stroke-linecap:round;stroke-linejoin:round;stroke-dasharray:none;stroke-opacity:1"
           d="M 551.09007,117.17745 606.07803,85.43014"
           id="path10"
           inkscape:transform-center-x="-303.78136"
           inkscape:transform-center-y="-174.88737"
           sodipodi:nodetypes="cc" /><path
           style="fill:none;stroke:#fac800;stroke-width:25;stroke-linecap:round;stroke-linejoin:round;stroke-dasharray:none;stroke-opacity:1"
           d="m 433.8164,552.47855 43.78655,75.84052"
           id="path33"
           inkscape:transform-center-x="-174.88736"
           inkscape:transform-center-y="303.78136" /><path
           style="fill:none;stroke:#ffde05;stroke-width:25;stroke-linecap:round;stroke-linejoin:round;stroke-dasharray:none;stroke-opacity:1"
           d="m 550.6563,435.9562 54.98795,31.74731"
           id="path34"
           inkscape:transform-center-x="-303.34759"
           inkscape:transform-center-y="175.63869"
           sodipodi:nodetypes="cc" /><path
           style="fill:none;stroke:#fac800;stroke-width:25;stroke-linecap:round;stroke-linejoin:round;stroke-dasharray:none;stroke-opacity:1"
           d="m 434.56774,21.190136 43.78654,-75.840525"
           id="path35"
           inkscape:transform-center-x="-175.6387"
           inkscape:transform-center-y="-303.34758" /><path
           style="fill:none;stroke:#ffde05;stroke-width:25;stroke-linecap:round;stroke-linejoin:round;stroke-dasharray:none;stroke-opacity:1"
           d="m 275.23647,-21.735011 10e-6,-63.494616"
           id="path36"
           inkscape:transform-center-x="-0.43377268"
           inkscape:transform-center-y="-350.52606"
           sodipodi:nodetypes="cc" /><path
           style="fill:none;stroke:#fac800;stroke-width:25;stroke-linecap:round;stroke-linejoin:round;stroke-dasharray:none;stroke-opacity:1"
           d="M 115.78899,20.756357 72.00244,-55.084161"
           id="path37"
           inkscape:transform-center-x="174.88736"
           inkscape:transform-center-y="-303.78137" /><path
           style="fill:none;stroke:#ffde05;stroke-width:25;stroke-linecap:round;stroke-linejoin:round;stroke-dasharray:none;stroke-opacity:1"
           d="M -1.050911,137.27871 -56.038857,105.53139"
           id="path38"
           inkscape:transform-center-x="303.34759"
           inkscape:transform-center-y="-175.63869"
           sodipodi:nodetypes="cc" /><path
           style="fill:none;stroke:#fac800;stroke-width:25;stroke-linecap:round;stroke-linejoin:round;stroke-dasharray:none;stroke-opacity:1"
           d="M -37.956444,286.18368 H -125.52953"
           id="path39"
           inkscape:transform-center-x="350.52606"
           inkscape:transform-center-y="-0.433788" /></g></g></g></svg>
