<?xml version="1.0" encoding="UTF-8" standalone="no"?>
<!-- Created with Inkscape (http://www.inkscape.org/) -->

<svg
   width="200"
   height="200"
   viewBox="0 0 52.916665 52.916666"
   version="1.1"
   id="svg1"
   inkscape:version="1.3 (0e150ed, 2023-07-21)"
   sodipodi:docname="inventions.svg"
   xml:space="preserve"
   xmlns:inkscape="http://www.inkscape.org/namespaces/inkscape"
   xmlns:sodipodi="http://sodipodi.sourceforge.net/DTD/sodipodi-0.dtd"
   xmlns="http://www.w3.org/2000/svg"
   xmlns:svg="http://www.w3.org/2000/svg"><sodipodi:namedview
     id="namedview1"
     pagecolor="#505050"
     bordercolor="#ffffff"
     borderopacity="1"
     inkscape:showpageshadow="0"
     inkscape:pageopacity="0"
     inkscape:pagecheckerboard="1"
     inkscape:deskcolor="#505050"
     inkscape:document-units="mm"
     inkscape:zoom="1.8387205"
     inkscape:cx="68.797841"
     inkscape:cy="83.753893"
     inkscape:current-layer="layer1"
     showguides="true" /><defs
     id="defs1"><inkscape:path-effect
       effect="fillet_chamfer"
       id="path-effect2"
       is_visible="true"
       lpeversion="1"
       nodesatellites_param="F,0,1,1,0,4.9072151,0,1 @ F,0,0,1,0,4.9212034,0,1 @ F,0,0,1,0,0,0,1 @ F,0,0,1,0,0,0,1 @ F,0,0,1,0,0,0,1 @ F,0,0,1,0,0,0,1 @ F,0,0,1,0,0,0,1 @ F,0,0,1,0,0,0,1 @ F,0,0,1,0,0,0,1 @ F,0,0,1,0,0,0,1 @ F,0,0,1,0,4.9212034,0,1 @ F,0,0,1,0,4.9072151,0,1"
       radius="0"
       unit="px"
       method="auto"
       mode="F"
       chamfer_steps="1"
       flexible="false"
       use_knot_distance="true"
       apply_no_radius="true"
       apply_with_radius="true"
       only_selected="false"
       hide_knots="false" /><inkscape:path-effect
       effect="fillet_chamfer"
       id="path-effect2-5"
       is_visible="true"
       lpeversion="1"
       nodesatellites_param="F,0,1,1,0,4.9072151,0,1 @ F,0,0,1,0,4.9212034,0,1 @ F,0,0,1,0,0,0,1 @ F,0,0,1,0,0,0,1 @ F,0,0,1,0,0,0,1 @ F,0,0,1,0,0,0,1 @ F,0,0,1,0,0,0,1 @ F,0,0,1,0,0,0,1 @ F,0,0,1,0,0,0,1 @ F,0,0,1,0,0,0,1 @ F,0,0,1,0,4.9212034,0,1 @ F,0,0,1,0,4.9072151,0,1"
       radius="0"
       unit="px"
       method="auto"
       mode="F"
       chamfer_steps="1"
       flexible="false"
       use_knot_distance="true"
       apply_no_radius="true"
       apply_with_radius="true"
       only_selected="false"
       hide_knots="false" /></defs><g
     inkscape:label="Layer 1"
     inkscape:groupmode="layer"
     id="layer1"><g
       id="g4"
       transform="translate(14.900639,-0.53090833)"><path
         id="path2"
         style="fill:#c19547;fill-opacity:1;stroke:none;stroke-width:4.70001;stroke-linecap:round;stroke-linejoin:round;stroke-dasharray:none;stroke-opacity:1;paint-order:markers stroke fill"
         d="m 26.283106,4.6375254 c -2.93638,5.271638 -5.895098,10.6370766 -7.148918,10.6370756 -1.252325,0 -4.205655,-5.3529086 -7.138582,-10.6184726 a 16.283876,16.283876 0 0 0 -1.945101,1.118795 c 3.094283,5.1738546 6.25541,10.4096106 5.629114,11.4943886 -0.625598,1.083567 -6.727805,0.965568 -12.749093,0.872815 a 16.283876,16.283876 0 0 0 -0.080098,1.121895 16.283876,16.283876 0 0 0 0.080098,1.121895 c 6.021288,-0.09275 12.123495,-0.210752 12.749093,0.872815 0.626296,1.084778 -2.53483,6.320535 -5.629114,11.494389 a 16.283876,16.283876 0 0 0 1.945101,1.118795 c 2.932928,-5.265563 5.886257,-10.618473 7.138582,-10.618473 1.252325,0 4.205655,5.352909 7.138583,10.618473 a 16.283876,16.283876 0 0 0 1.9451,-1.118795 C 25.123588,27.579266 21.962461,22.34351 22.588758,21.258732 23.214356,20.175165 29.316562,20.293164 35.33785,20.385917 a 16.283876,16.283876 0 0 0 0.0801,-1.121895 16.283876,16.283876 0 0 0 -0.04341,-1.122412 c -6.033346,0.09284 -12.158897,0.213501 -12.785783,-0.872298 -0.627013,-1.086018 2.541781,-6.332334 5.639449,-11.5119586 a 16.283876,16.283876 0 0 0 -1.945101,-1.119828 z" /><circle
         style="fill:none;stroke:#e5b460;stroke-width:3.8;stroke-linecap:round;stroke-linejoin:round;stroke-dasharray:none;stroke-opacity:1;paint-order:markers stroke fill"
         id="path1"
         cx="19.13419"
         cy="19.264023"
         r="16.283876" /></g><path
       id="path2-3"
       style="fill:#4af240;fill-opacity:1;stroke:none;stroke-width:0.431214;stroke-linecap:round;stroke-linejoin:round"
       d="M 15.450649,25.700272 C 14.84043,25.536808 14.1941,25.78238 13.846391,26.309817 l -1.451447,2.201578 c -0.34875,0.528943 -0.996988,0.775179 -1.60896,0.611166 L 7.2706383,28.180627 C 5.9424824,27.824748 4.5867667,28.607475 4.2308894,29.935626 L 0.73794081,42.971488 C 0.3820653,44.299634 1.1647872,45.65535 2.492943,46.011228 l 22.976849,6.156628 c 1.32815,0.355878 2.683976,-0.426817 3.039852,-1.754963 l 3.492948,-13.035861 c 0.355878,-1.328153 -0.426954,-2.6839 -1.755105,-3.039777 L 26.78746,33.410144 C 26.175468,33.246197 25.737196,32.708831 25.699641,32.076378 L 25.543439,29.44403 c -0.03741,-0.630665 -0.474417,-1.166527 -1.084662,-1.330037 z m 2.948944,6.900439 c 4.00153,1.072167 6.376205,5.18521 5.303961,9.186718 -1.072206,4.001478 -5.185226,6.376089 -9.186699,5.303861 -4.001439,-1.0722 -6.3760488,-5.185148 -5.3038792,-9.1866 1.0721582,-4.001496 5.1851352,-6.376159 9.1866172,-5.303979 z m 10.032759,3.749546 c 0.624024,0.167227 0.994346,0.808643 0.827155,1.432677 -0.167225,0.624025 -0.808641,0.994342 -1.432673,0.827151 -0.624082,-0.167168 -0.994466,-0.808633 -0.827265,-1.432699 0.167235,-0.624066 0.808725,-0.994386 1.432783,-0.827129 z M 17.623269,35.497981 c -2.401333,-0.643435 -4.869581,0.781706 -5.513025,3.183044 -0.643426,2.401327 0.781602,4.869541 3.182928,5.512995 2.401361,0.643478 4.869656,-0.781543 5.51311,-3.182898 0.643438,-2.401376 -0.781635,-4.86973 -3.183013,-5.513141 z"
       sodipodi:nodetypes="ccccsssssssscccccccccccccccccccc" /></g></svg>
