<?xml version="1.0" encoding="UTF-8" standalone="no"?>
<!-- Created with Inkscape (http://www.inkscape.org/) -->

<svg
   width="512"
   height="80"
   viewBox="0 0 135.46666 21.166666"
   version="1.1"
   id="svg1"
   xml:space="preserve"
   inkscape:version="1.3 (0e150ed, 2023-07-21)"
   sodipodi:docname="nowstream.svg"
   xmlns:inkscape="http://www.inkscape.org/namespaces/inkscape"
   xmlns:sodipodi="http://sodipodi.sourceforge.net/DTD/sodipodi-0.dtd"
   xmlns="http://www.w3.org/2000/svg"
   xmlns:svg="http://www.w3.org/2000/svg"><sodipodi:namedview
     id="namedview1"
     pagecolor="#000000"
     bordercolor="#ffffff"
     borderopacity="1"
     inkscape:showpageshadow="false"
     inkscape:pageopacity="0"
     inkscape:pagecheckerboard="true"
     inkscape:deskcolor="#505050"
     inkscape:document-units="mm"
     inkscape:zoom="0.65008588"
     inkscape:cx="295.34559"
     inkscape:cy="193.82055"
     inkscape:current-layer="layer1"
     inkscape:clip-to-page="false" /><defs
     id="defs1"><filter
       inkscape:collect="always"
       style="color-interpolation-filters:sRGB"
       id="filter10"
       x="-0.20013879"
       y="-0.18584316"
       width="1.4002776"
       height="1.3716863"><feGaussianBlur
         inkscape:collect="always"
         stdDeviation="0.78247556"
         id="feGaussianBlur10" /></filter><filter
       inkscape:collect="always"
       style="color-interpolation-filters:sRGB"
       id="filter18"
       x="-0.6031105"
       y="-0.55775473"
       width="2.2621313"
       height="2.1155095"><feGaussianBlur
         inkscape:collect="always"
         stdDeviation="1.0194904"
         id="feGaussianBlur18" /></filter></defs><g
     inkscape:label="Layer 1"
     inkscape:groupmode="layer"
     id="layer1"><path
       sodipodi:type="star"
       style="fill:none;fill-opacity:1;stroke:#008cce;stroke-width:0.5;stroke-linecap:butt;stroke-linejoin:miter;stroke-dasharray:none;stroke-opacity:1;filter:url(#filter18)"
       id="path17"
       inkscape:flatsided="true"
       sodipodi:sides="3"
       sodipodi:cx="128.96194"
       sodipodi:cy="102.25354"
       sodipodi:r1="2.9809649"
       sodipodi:r2="3.9793282"
       sodipodi:arg1="0"
       sodipodi:arg2="1.0471976"
       inkscape:rounded="0"
       inkscape:randomized="0"
       d="m 131.94291,102.25354 -4.47145,2.58159 v -5.163181 z"
       transform="matrix(1.208303,0,0,1.208303,-58.518867,-111.09288)"
       inkscape:transform-center-y="5.5070555e-06"
       inkscape:transform-center-x="4.0699553e-06" /><path
       style="font-style:italic;font-weight:300;font-size:30.4931px;line-height:1.25;font-family:'Source Code Pro';-inkscape-font-specification:'Source Code Pro Light Italic';letter-spacing:0px;word-spacing:0px;fill:#00adfd;fill-opacity:1;stroke-width:0.501241;filter:url(#filter10)"
       d="m 18.035858,15.108831 q -1.223023,0 -2.105204,-0.52129 -0.862131,-0.54134 -1.323271,-1.48366 -0.46114,-0.94234 -0.46114,-2.16536 0,-1.24307 0.441091,-2.32575 0.44109,-1.0826695 1.202974,-1.8846595 0.761882,-0.82203 1.744311,-1.26312 1.002478,-0.46114 2.105204,-0.46114 1.223023,0 2.085154,0.54134 0.882181,0.52129 1.343321,1.46362 0.46114,0.9423295 0.46114,2.1653495 0,1.22302 -0.441091,2.32575 -0.44109,1.08268 -1.202973,1.88466 -0.741834,0.80198 -1.744312,1.26312 -0.982429,0.46114 -2.105204,0.46114 z m 0.06015,-0.72178 q 0.92228,0 1.744312,-0.40099 0.822032,-0.42105 1.463618,-1.12278 0.661635,-0.70174 1.022528,-1.62402 0.380941,-0.92227 0.380941,-1.96485 0,-1.6039695 -0.822032,-2.5663495 -0.822031,-0.98242 -2.305699,-0.98242 -0.90223,0 -1.744312,0.40099 -0.822032,0.40099 -1.463618,1.10272 -0.641586,0.7017395 -1.022528,1.6440695 -0.360891,0.92228 -0.360891,1.94481 0,1.62401 0.801982,2.60644 0.822032,0.96238 2.305699,0.96238 z"
       id="path10"
       transform="matrix(1.208303,0,0,1.208303,1.1831813,0.64149841)" /><path
       style="font-style:italic;font-weight:300;font-size:30.4931px;line-height:1.25;font-family:'Source Code Pro';-inkscape-font-specification:'Source Code Pro Light Italic';letter-spacing:0px;word-spacing:0px;fill:#ffffff;stroke-width:0.605651"
       d="m 119.03156,18.606827 2.3257,-11.628454 h 0.79946 l -0.21804,1.6231497 h 0.0728 q 0.79946,-0.9690349 1.59891,-1.4293379 0.79946,-0.4845175 1.62314,-0.4845175 0.82368,0 1.28398,0.4845175 0.48452,0.460303 0.48452,1.5746846 l -0.29071,0.3149446 q 1.06594,-1.3324324 1.98652,-1.8411641 0.92058,-0.5329826 1.72004,-0.5329826 0.8479,0 1.3082,0.4845175 0.48451,0.460303 0.48451,1.5262317 0,0.2907178 -0.0242,0.6056501 -0.0242,0.2907173 -0.12114,0.7752344 l -1.69582,8.527526 h -0.99325 l 1.69581,-8.503299 q 0.0485,-0.3391592 0.0728,-0.6056503 0.0485,-0.2907055 0.0485,-0.5329699 0,-0.7267702 -0.29071,-1.0417144 -0.2665,-0.3391706 -0.82369,-0.3391706 -0.82368,0 -1.59889,0.5814354 -0.75102,0.5814112 -1.55048,1.744258 l -1.74425,8.6971108 h -0.99328 l 1.72004,-8.503299 q 0.0728,-0.3391592 0.0969,-0.6056503 0.0243,-0.2907055 0.0243,-0.5329699 0,-0.7267702 -0.29071,-1.0417144 -0.2907,-0.3391706 -0.84791,-0.3391706 -0.82368,0 -1.57467,0.5814354 -0.7268,0.5814112 -1.57469,1.744258 l -1.72004,8.6971108 z"
       id="path9" /><path
       style="font-style:italic;font-weight:300;font-size:30.4931px;line-height:1.25;font-family:'Source Code Pro';-inkscape-font-specification:'Source Code Pro Light Italic';letter-spacing:0px;word-spacing:0px;fill:#ffffff;stroke-width:0.605651"
       d="m 109.80152,18.897545 q -1.81694,0 -2.95556,-1.114394 -1.13862,-1.13862 -1.13862,-3.318954 0,-1.550459 0.48452,-2.931332 0.50874,-1.40511 1.38088,-2.4952776 0.87213,-1.0901675 2.05921,-1.7200438 1.18706,-0.6298763 2.56795,-0.6298763 1.28397,0 2.253,0.5329826 0.99327,0.5087317 1.50201,1.3566463 h 0.0969 l 0.46027,-1.5989232 h 0.82367 l -2.32568,11.628454 h -0.8479 l 0.26648,-1.865391 h -0.0969 q -0.94481,0.944809 -2.13187,1.550459 -1.18706,0.60565 -2.39838,0.60565 z m 0.1938,-0.872129 q 1.1144,0 2.30148,-0.654103 1.21128,-0.678329 2.32569,-1.889629 l 1.21129,-5.8142204 q -0.751,-1.1386204 -1.67158,-1.6231378 -0.9206,-0.4845174 -1.93808,-0.4845174 -1.16286,0 -2.18034,0.5814112 -0.99325,0.5571969 -1.74427,1.5020174 -0.75101,0.944808 -1.16284,2.156107 -0.41184,1.2113 -0.41184,2.471053 0,1.913843 0.87214,2.834425 0.89636,0.920594 2.39835,0.920594 z"
       id="path8" /><path
       id="path7"
       style="font-style:italic;font-weight:300;font-size:30.4931px;line-height:1.25;font-family:'Source Code Pro';-inkscape-font-specification:'Source Code Pro Light Italic';letter-spacing:0px;word-spacing:0px;fill:#ffffff;stroke-width:0.605651"
       d="m 97.979166,6.6879695 c -0.872129,0 -1.703743,0.1854986 -2.495132,0.5569673 -0.775224,0.3553136 -1.469925,0.8638762 -2.083647,1.5260504 -0.613733,0.6460316 -1.098311,1.4132908 -1.453624,2.3015758 -0.355302,0.872129 -0.532621,1.833092 -0.532621,2.882889 0,1.017488 0.193715,1.897689 0.581327,2.640613 0.387612,0.742939 0.936567,1.316483 1.647183,1.720249 0.726782,0.387612 1.591215,0.581327 2.592547,0.581327 1.017488,0 1.95385,-0.186139 2.809836,-0.557595 0.855981,-0.387624 1.550695,-0.807232 2.083655,-1.259438 l -0.48454,-0.726807 c -0.54914,0.48453 -1.187038,0.888332 -1.913817,1.211348 -0.726783,0.306861 -1.509811,0.460194 -2.349642,0.460194 -0.823677,0 -1.534786,-0.169731 -2.132353,-0.5089 -0.597578,-0.339147 -1.049362,-0.823737 -1.356223,-1.453613 -0.306862,-0.629877 -0.46081,-1.356127 -0.46081,-2.179815 0,-0.350142 0.02393,-0.689434 0.06996,-1.017779 h 1.966261 v -0.84795 H 92.677969 C 92.738379,11.80222 92.809468,11.59177 92.89214,11.387253 93.199,10.61203 93.610403,9.9419407 94.127219,9.3766612 94.660202,8.7952499 95.250143,8.342837 95.896174,8.0198215 96.542182,7.6968179 97.204078,7.535292 97.882407,7.535292 c 1.049798,0 1.873214,0.3230518 2.470783,0.969071 0.59757,0.6298763 0.89665,1.4697068 0.89665,2.519493 0,0.193812 -0.0164,0.395719 -0.0487,0.605673 l 0.92099,0.53325 c 0.0646,-0.339172 0.0968,-0.6944 0.0968,-1.065869 0,-1.2597403 -0.36344,-2.3096833 -1.09022,-3.1495143 -0.72677,-0.839831 -1.776716,-1.2594262 -3.149509,-1.2594262 z"
       sodipodi:nodetypes="scccsscsccccssssccccccsscsccsss" /><path
       style="font-style:italic;font-weight:300;font-size:30.4931px;line-height:1.25;font-family:'Source Code Pro';-inkscape-font-specification:'Source Code Pro Light Italic';letter-spacing:0px;word-spacing:0px;fill:#ffffff;stroke-width:0.605651"
       d="M 77.823343,18.606827 80.149037,6.978373 h 0.847914 l -0.60565,3.440086 h 0.09691 q 0.678318,-0.9448078 1.526232,-1.7927219 0.847902,-0.8479025 1.841164,-1.3808729 0.993274,-0.5571969 2.083441,-0.5571969 0.775223,0 1.356647,0.1695854 0.581422,0.1695854 1.017487,0.4845174 L 87.828659,8.1896846 Q 87.36837,7.8747405 86.883852,7.7536081 86.423562,7.6324878 85.793685,7.6324878 q -1.453565,0 -2.907117,1.2355261 -1.429338,1.2112871 -2.737531,3.1251421 l -1.332419,6.613671 z"
       id="path6" /><path
       style="font-style:italic;font-weight:300;font-size:30.4931px;line-height:1.25;font-family:'Source Code Pro';-inkscape-font-specification:'Source Code Pro Light Italic';letter-spacing:0px;word-spacing:0px;fill:#ffffff;stroke-width:0.605651"
       d="m 68.011874,18.897545 q -1.671589,0 -2.495265,-0.896368 -0.79945,-0.896355 -0.79945,-2.301454 0,-0.411839 0.04846,-0.775236 0.07262,-0.363385 0.145346,-0.751009 l 1.3082,-6.322964 h -3.585433 l 0.145347,-0.775223 3.633888,-0.096906 0.872139,-3.7065661 h 0.872129 L 67.406226,6.978385 h 6.201846 L 73.41426,7.8505259 h -6.201833 l -1.356658,6.4925631 q -0.07262,0.314932 -0.09691,0.605637 -0.02417,0.290718 -0.02417,0.557209 0,1.235514 0.654103,1.889617 0.654103,0.629876 1.792711,0.629876 0.969035,0 1.768496,-0.242265 0.823688,-0.242253 1.502017,-0.60565 l 0.363386,0.750998 q -0.726783,0.460301 -1.695818,0.702555 -0.969046,0.266491 -2.107655,0.266491 z"
       id="path5" /><path
       style="font-style:italic;font-weight:300;font-size:30.4931px;line-height:1.25;font-family:'Source Code Pro';-inkscape-font-specification:'Source Code Pro Light Italic';letter-spacing:0px;word-spacing:0px;fill:#ffffff;stroke-width:0.605651"
       d="m 52.289281,18.897545 q -1.744268,0 -3.05247,-0.72677 -1.283976,-0.726782 -2.083431,-1.986535 l 0.77523,-0.581423 q 0.751004,1.162846 1.841172,1.792722 1.090167,0.605638 2.592176,0.605638 1.162845,0 2.083431,-0.436052 0.944812,-0.460303 1.477783,-1.283979 0.53297,-0.823689 0.53297,-1.93807 0,-1.041727 -0.557196,-1.768497 -0.557197,-0.726782 -1.502009,-1.259751 l -2.034979,-1.2113 q -0.993264,-0.5814237 -1.768494,-1.4777909 -0.77523,-0.8963555 -0.77523,-2.1803224 0,-1.1144058 0.581423,-2.0349756 0.581423,-0.9448205 1.598912,-1.5020173 1.041715,-0.5571968 2.398368,-0.5571968 1.477783,0 2.616402,0.6541027 1.138619,0.6298763 1.744264,1.5262317 l -0.702547,0.6056498 q -0.60565,-0.7752351 -1.574687,-1.33242 -0.944813,-0.5571968 -2.228788,-0.5571968 -1.017489,0 -1.768494,0.460291 -0.751004,0.4360645 -1.187071,1.1628345 -0.436067,0.7025558 -0.436067,1.4535644 0,1.0901673 0.629876,1.7684965 0.629874,0.6783171 1.42933,1.1386082 l 2.034979,1.211312 q 0.751004,0.436052 1.332426,0.969034 0.581423,0.53297 0.896361,1.235513 0.314937,0.67833 0.314937,1.574685 0,1.429339 -0.702552,2.471053 -0.678327,1.041714 -1.865398,1.623137 -1.162846,0.581424 -2.640627,0.581424 z"
       id="path4" /><path
       style="font-style:italic;font-weight:300;font-size:30.4931px;line-height:1.25;font-family:'Source Code Pro';-inkscape-font-specification:'Source Code Pro Light Italic';letter-spacing:0px;word-spacing:0px;fill:#ffffff;stroke-width:0.605651"
       d="M 33.320404,18.606827 32.642077,6.978373 h 1.01749 l 0.387615,7.606955 q 0.02423,0.799451 0.04846,1.574685 0.02423,0.750997 0.04846,1.526232 h 0.09691 q 0.314937,-0.775235 0.629873,-1.526232 0.339164,-0.751008 0.702553,-1.574685 l 3.34318,-7.4373577 h 1.235523 l 0.411835,7.4373577 q 0.04846,0.823677 0.07268,1.574685 0.02422,0.750997 0.04846,1.526232 h 0.09691 q 0.339162,-0.775235 0.654099,-1.526232 0.339163,-0.751008 0.678327,-1.550458 l 3.367384,-7.631182 h 1.065942 l -5.281267,11.628454 h -1.356652 l -0.387616,-7.219321 q -0.04846,-0.847914 -0.07268,-1.6231372 -0.02423,-0.7752345 -0.07268,-1.6231492 h -0.07268 q -0.218034,0.5814355 -0.460293,1.1386322 -0.218034,0.5571966 -0.460293,1.0901672 -0.218033,0.53297 -0.460293,1.041714 l -3.246276,7.195094 z"
       id="path3" /><path
       style="font-style:italic;font-weight:300;font-size:30.4931px;line-height:1.25;font-family:'Source Code Pro';-inkscape-font-specification:'Source Code Pro Light Italic';letter-spacing:0px;word-spacing:0px;fill:#45a5ff;fill-opacity:1;stroke-width:0.605651"
       d="m 22.975962,18.897545 q -1.477781,0 -2.543724,-0.629877 -1.041716,-0.654103 -1.598911,-1.792711 -0.557197,-1.138632 -0.557197,-2.61641 0,-1.502006 0.532971,-2.81021 0.532969,-1.3081948 1.453556,-2.2772411 0.920585,-0.9932613 2.107657,-1.5262317 1.211297,-0.5571969 2.543725,-0.5571969 1.477782,0 2.519497,0.6541028 1.065942,0.6298763 1.623139,1.768496 0.557197,1.1386199 0.557197,2.6163989 0,1.477779 -0.532971,2.810211 -0.532972,1.308205 -1.453557,2.27724 -0.896359,0.969035 -2.107657,1.526232 -1.187072,0.557197 -2.543725,0.557197 z m 0.07268,-0.872129 q 1.114394,0 2.107658,-0.484517 0.993264,-0.508757 1.768493,-1.356659 0.799456,-0.847915 1.235524,-1.962309 0.460292,-1.114381 0.460292,-2.374134 0,-1.9380808 -0.993264,-3.1009276 -0.993262,-1.187061 -2.785982,-1.187061 -1.090167,0 -2.107657,0.4845174 -0.993265,0.4845174 -1.768495,1.3324194 -0.77523,0.8479148 -1.235524,1.9865348 -0.436066,1.114393 -0.436066,2.349919 0,1.962297 0.969038,3.14937 0.993264,1.162847 2.785983,1.162847 z"
       id="path2" /><path
       style="font-style:italic;font-weight:300;font-size:30.4931px;line-height:1.25;font-family:'Source Code Pro';-inkscape-font-specification:'Source Code Pro Light Italic';letter-spacing:0px;word-spacing:0px;fill:#ffffff;stroke-width:0.605651"
       d="M 3.256081,18.606827 6.4539057,2.6419426 h 1.0901671 l 4.0215082,11.3861894 1.041715,3.197823 h 0.09691 q 0.09691,-0.581424 0.16958,-1.138621 0.09691,-0.581411 0.193809,-1.162847 0.09691,-0.581411 0.193806,-1.138608 0.12113,-0.557209 0.218033,-1.065953 l 1.9623,-10.0779834 h 1.017489 L 13.261397,18.606827 H 12.195456 L 8.1739478,7.2206499 7.1080072,4.0228154 H 7.0111012 Q 6.8899724,4.7980506 6.7688425,5.5490472 6.6477125,6.3000558 6.5023574,7.0510524 6.3812274,7.802061 6.2358722,8.5772962 L 4.2735699,18.606827 Z"
       id="text1" /><path
       style="fill:none;fill-opacity:1;stroke:#ffffff;stroke-width:1.02706;stroke-linecap:butt;stroke-linejoin:miter;stroke-dasharray:none;stroke-opacity:1"
       d="m 25.037544,8.5419896 -1.121263,4.3827074 1.762151,1.55429"
       id="path1"
       sodipodi:nodetypes="ccc" /><path
       sodipodi:type="star"
       style="fill:#45a5ff;fill-opacity:1;stroke:#45a5ff;stroke-width:0.85;stroke-linecap:butt;stroke-linejoin:miter;stroke-dasharray:none;stroke-opacity:1"
       id="path18"
       inkscape:flatsided="true"
       sodipodi:sides="3"
       sodipodi:cx="128.96194"
       sodipodi:cy="102.25354"
       sodipodi:r1="2.2036467"
       sodipodi:r2="3.9793282"
       sodipodi:arg1="0"
       sodipodi:arg2="1.0471976"
       inkscape:rounded="0"
       inkscape:randomized="0"
       d="m 131.16559,102.25354 -3.30547,1.90841 v -3.81682 z"
       transform="matrix(1.208303,0,0,1.208303,-58.518867,-111.09288)"
       inkscape:transform-center-y="5.5070555e-06"
       inkscape:transform-center-x="4.0643439e-06" /></g></svg>
