<?xml version="1.0" encoding="UTF-8" standalone="no"?>
<!-- Created with Inkscape (http://www.inkscape.org/) -->

<svg
   width="32"
   height="20"
   viewBox="0 0 8.4666665 5.2916666"
   version="1.1"
   id="svg1"
   inkscape:version="1.3 (0e150ed, 2023-07-21)"
   sodipodi:docname="redo.svg"
   xml:space="preserve"
   xmlns:inkscape="http://www.inkscape.org/namespaces/inkscape"
   xmlns:sodipodi="http://sodipodi.sourceforge.net/DTD/sodipodi-0.dtd"
   xmlns="http://www.w3.org/2000/svg"
   xmlns:svg="http://www.w3.org/2000/svg"><sodipodi:namedview
     id="namedview1"
     pagecolor="#505050"
     bordercolor="#ffffff"
     borderopacity="1"
     inkscape:showpageshadow="0"
     inkscape:pageopacity="0"
     inkscape:pagecheckerboard="1"
     inkscape:deskcolor="#505050"
     inkscape:document-units="mm"
     inkscape:zoom="7.9538073"
     inkscape:cx="17.035867"
     inkscape:cy="16.092922"
     inkscape:window-width="1600"
     inkscape:window-height="837"
     inkscape:window-x="-8"
     inkscape:window-y="-8"
     inkscape:window-maximized="1"
     inkscape:current-layer="g6" /><defs
     id="defs1" /><g
     inkscape:label="Layer 1"
     inkscape:groupmode="layer"
     id="layer1"><g
       id="g6"
       inkscape:transform-center-x="-0.82433105"
       inkscape:transform-center-y="-2.2662634"
       style="fill:none;stroke:#f5f5f5;stroke-width:0.6;stroke-dasharray:none;stroke-opacity:1"
       transform="rotate(-30,5.7265951,8.0652136)"><path
         id="path1"
         style="color:#000000;fill:#555555;stroke:none;stroke-width:0.790729;stroke-linecap:round;-inkscape-stroke:none"
         d="m 10.361457,1.8357561 a 0.5271521,0.5271521 0 0 1 0.150244,0.1402178 0.5271521,0.5271521 0 0 1 0.09049,0.3935385 l -0.341262,2.0662019 a 0.5271521,0.5271521 0 0 1 -0.0023,0.0081 0.5271521,0.5271521 0 0 1 -0.0112,0.049367 0.52715143,0.52715143 0 0 1 -0.0051,0.014337 0.5271521,0.5271521 0 0 1 -0.01378,0.041584 0.5271521,0.5271521 0 0 1 -0.0067,0.019737 0.5271521,0.5271521 0 0 1 -0.03864,0.064196 0.52715143,0.52715143 0 0 1 -0.01056,0.018284 0.5271521,0.5271521 0 0 1 -0.0023,0.00261 0.5271521,0.5271521 0 0 1 -0.107784,0.1131354 0.5271521,0.5271521 0 0 1 -0.06447,0.0422 0.5271521,0.5271521 0 0 1 -0.07025,0.031786 0.52715143,0.52715143 0 0 1 -0.01008,0.00519 0.52715143,0.52715143 0 0 1 -0.009,0.0019 0.5271521,0.5271521 0 0 1 -0.01962,0.00676 0.5271521,0.5271521 0 0 1 -0.292365,0.00106 0.52715143,0.52715143 0 0 1 -0.01046,-0.00367 0.5271521,0.5271521 0 0 1 -0.06284,-0.020553 L 7.616484,3.9682099 A 0.5271521,0.5271521 0 0 1 7.3532492,3.2704761 0.5271521,0.5271521 0 0 1 8.0509826,3.0072405 L 8.4692073,3.1968009 C 7.9703647,2.6174199 7.3178927,2.1759423 6.5717401,1.9353694 5.3261662,1.5337743 3.9678328,1.7332178 2.8909668,2.4769217 A 0.52715143,0.52715143 0 0 1 2.3303286,2.49453 L 3.1067065,1.1498036 C 4.2890731,0.61359488 5.64076,0.52747408 6.8967794,0.93243698 7.9330596,1.266552 8.8252056,1.9099886 9.4689589,2.7564195 l 0.09118,-0.5583804 a 0.5271521,0.5271521 0 0 1 0.6085311,-0.4342676 0.5271521,0.5271521 0 0 1 0.192784,0.071985 z" /></g></g></svg>
