<?xml version="1.0" encoding="UTF-8" standalone="no"?>
<!-- Created with Inkscape (http://www.inkscape.org/) -->

<svg
   width="128"
   height="128"
   viewBox="0 0 33.866666 33.866668"
   version="1.1"
   id="svg1"
   inkscape:version="1.3 (0e150ed, 2023-07-21)"
   sodipodi:docname="warning.svg"
   xmlns:inkscape="http://www.inkscape.org/namespaces/inkscape"
   xmlns:sodipodi="http://sodipodi.sourceforge.net/DTD/sodipodi-0.dtd"
   xmlns="http://www.w3.org/2000/svg"
   xmlns:svg="http://www.w3.org/2000/svg">
  <sodipodi:namedview
     id="namedview1"
     pagecolor="#505050"
     bordercolor="#ffffff"
     borderopacity="1"
     inkscape:showpageshadow="0"
     inkscape:pageopacity="0"
     inkscape:pagecheckerboard="1"
     inkscape:deskcolor="#505050"
     inkscape:document-units="mm"
     inkscape:zoom="1.3452676"
     inkscape:cx="73.591306"
     inkscape:cy="43.114099"
     inkscape:current-layer="layer1" />
  <defs
     id="defs1" />
  <g
     inkscape:label="Layer 1"
     inkscape:groupmode="layer"
     id="layer1"
     transform="translate(-32.916145,-84.146131)">
    <g
       id="path1"
       inkscape:transform-center-y="-3.5869169"
       transform="matrix(0.21641976,0,0,0.21641976,36.887752,84.542854)"
       style="fill:#ff0d05;fill-opacity:0.988235;stroke:#aa0600;stroke-width:9.16467;stroke-dasharray:none;stroke-opacity:0.988235">
      <path
         style="color:#000000;fill:#ff0d05;fill-opacity:0.988235;stroke:#aa0600;stroke-width:9.16467;stroke-linejoin:round;stroke-dasharray:none;stroke-opacity:0.988235"
         d="m 59.891294,26.6082 57.413616,99.4433 H 2.4776766 Z"
         id="path2" />
      <path
         style="color:#000000;fill:#ff0d05;fill-opacity:0.988235;stroke:#aa0600;stroke-width:9.16467;stroke-linejoin:round;stroke-dasharray:none;stroke-opacity:0.988235"
         d="m 47.203125,19.283203 -57.412109,99.443357 c -5.636135,9.76667 1.4112502,21.97266 12.6874996,21.97461 H 117.30469 c 11.27625,-0.002 18.32363,-12.20794 12.6875,-21.97461 L 72.578125,19.283203 c -5.707883,-9.8810658 -19.853727,-9.5569721 -25.375,0 z"
         id="path3"
         sodipodi:nodetypes="ccccccc" />
    </g>
    <path
       style="font-size:28.1922px;line-height:1.25;font-family:'Abyssinica SIL';-inkscape-font-specification:'Abyssinica SIL';letter-spacing:0px;word-spacing:0px;fill:#f2f2f2;stroke-width:0.704808"
       d="m 51.700974,96.276171 q 0,0.646989 -0.06883,1.252681 -0.06883,0.591926 -0.178955,1.335275 l -0.9636,6.992983 h -1.335275 l -0.894772,-6.45612 q -0.06883,-0.4818 -0.123892,-0.894772 -0.05506,-0.412971 -0.110126,-0.784646 -0.05506,-0.371674 -0.08259,-0.729583 -0.02753,-0.357909 -0.02753,-0.743349 0,-1.638121 0.495566,-2.395236 0.509331,-0.757115 1.431635,-0.757115 0.454268,0 0.798412,0.165189 0.344143,0.151423 0.57816,0.523098 0.247783,0.371674 0.357909,0.991132 0.123891,0.605691 0.123891,1.500463 z m 0.302846,13.049909 q 0,0.45427 -0.165189,0.85347 -0.165188,0.39921 -0.454268,0.68829 -0.289081,0.28908 -0.688287,0.46803 -0.38544,0.16519 -0.825943,0.16519 -0.454269,0 -0.853475,-0.16519 -0.399206,-0.17895 -0.688286,-0.46803 -0.28908,-0.28908 -0.468034,-0.68829 -0.165189,-0.3992 -0.165189,-0.85347 0,-0.44051 0.165189,-0.82595 0.178954,-0.3992 0.468034,-0.68828 0.28908,-0.28908 0.688286,-0.45427 0.399206,-0.16519 0.853475,-0.16519 0.440503,0 0.825943,0.16519 0.399206,0.16519 0.688287,0.45427 0.28908,0.28908 0.454268,0.68828 0.165189,0.38544 0.165189,0.82595 z"
       id="text3"
       aria-label="!" />
  </g>
</svg>
