<?xml version="1.0" encoding="UTF-8" standalone="no"?>
<!-- Created with Inkscape (http://www.inkscape.org/) -->

<svg
   width="257.1319mm"
   height="340.61847mm"
   viewBox="0 0 257.13189 340.61847"
   version="1.1"
   id="svg1"
   xml:space="preserve"
   inkscape:version="1.3 (0e150ed, 2023-07-21)"
   sodipodi:docname="SD_Card-top.svg"
   xmlns:inkscape="http://www.inkscape.org/namespaces/inkscape"
   xmlns:sodipodi="http://sodipodi.sourceforge.net/DTD/sodipodi-0.dtd"
   xmlns="http://www.w3.org/2000/svg"
   xmlns:svg="http://www.w3.org/2000/svg"><sodipodi:namedview
     id="namedview1"
     pagecolor="#505050"
     bordercolor="#ffffff"
     borderopacity="1"
     inkscape:showpageshadow="0"
     inkscape:pageopacity="0"
     inkscape:pagecheckerboard="1"
     inkscape:deskcolor="#505050"
     inkscape:document-units="mm"
     inkscape:zoom="0.36285714"
     inkscape:cx="828.14961"
     inkscape:cy="575.98425"
     inkscape:current-layer="layer1" /><defs
     id="defs1" /><g
     inkscape:label="Layer 1"
     inkscape:groupmode="layer"
     id="layer1"
     transform="translate(202.32678,53.426113)"><path
       style="fill:#ffffff;fill-opacity:1"
       d="m -181.33007,287.05993 -12.96458,-0.13998 -1.43776,-0.79375 c -2.25314,-1.24391 -4.34426,-3.42486 -5.0737,-5.29167 -0.61497,-1.57385 -0.62157,-1.70687 -0.76849,-15.47812 -0.0815,-7.63984 -0.17706,-47.19329 -0.21234,-87.89654 l -0.0641,-74.00591 0.64039,-0.4196 c 0.4657,-0.30514 1.49325,-0.447 3.76685,-0.52004 4.05804,-0.13038 3.91559,0.047 3.70575,-4.614851 -0.0878,-1.95116 -0.15969,-10.73202 -0.15969,-19.51302 V 62.420991 l -2.84427,-0.0041 c -1.56435,-0.0022 -2.98366,-0.09272 -3.15402,-0.201088 -0.17036,-0.10837 -0.38574,-0.499813 -0.47862,-0.869873 -0.10345,-0.412157 -0.46228,-0.783585 -0.92618,-0.958689 -0.62851,-0.237236 -0.78528,-0.482344 -0.92174,-1.44118 -0.0904,-0.63543 -0.12957,-6.750113 -0.087,-13.588186 l 0.0774,-12.432858 0.77484,-0.13485 c 0.58658,-0.102086 0.82636,-0.32763 0.98691,-0.928293 0.33212,-1.242536 0.85603,-1.455515 3.58049,-1.455515 2.31272,0 2.46297,-0.03334 2.46297,-0.546566 0,-0.522781 -0.12013,-0.54293 -2.76066,-0.46302 -2.73226,0.08268 -2.76886,0.07569 -3.55821,-0.680473 -0.49296,-0.472232 -0.87856,-1.17956 -1.00965,-1.852083 -0.11666,-0.598437 -0.15257,-17.1615042 -0.0798,-36.8068162 0.11989,-32.3727278 0.17323,-35.8254418 0.56934,-36.8576818 1.47474,-3.843091 4.68437,-5.800005 10.52567,-6.417527 1.67283,-0.176845 36.35248,-0.241951 102.278944,-0.192014 l 99.747915,0.07556 1.07665,0.661458 c 0.59216,0.363802 10.2602,9.895493 21.48454,21.181536 18.93592,19.040014 20.42744,20.604881 20.67886,21.6958328 0.17604,0.763822 0.27324,11.505555 0.27744,30.6594082 0.006,29.3691 0.004,29.488089 -0.5463,30.625521 l -0.55277,1.141869 -2.15921,0.0399 c -1.18756,0.02195 -2.46736,0.01691 -2.844,-0.01119 l -0.68478,-0.05109 -0.16969,8.143105 c -0.14232,6.829953 -0.10934,8.203449 0.2045,8.517289 0.25242,0.25241 1.23776,0.41576 3.02788,0.50196 2.20526,0.10619 2.73353,0.21608 3.12612,0.65024 0.45173,0.49956 0.46934,4.18183 0.40204,84.036443 -0.0387,45.93268 -0.13657,92.80085 -0.21744,104.15147 l -0.14704,20.6375 -0.8144,1.6604 c -1.53745,3.13457 -4.50991,5.33346 -7.74657,5.73057 -0.58208,0.0714 -19.15583,0.20118 -41.2750004,0.28838 -22.1191596,0.0872 -40.3952596,0.16994 -40.6135396,0.18388 -1.0802,0.069 -1.61595,-0.18111 -3.57187,-1.6674 l -2.11667,-1.60844 -31.88229,0.17988 -31.882289,0.17989 -1.14259,0.96601 c -0.62843,0.5313 -1.44082,1.20413 -1.80532,1.49517 -0.65369,0.52194 -1.06593,0.52927 -30.21054,0.53685 -16.25129,0.004 -35.38187,-0.0553 -42.51239,-0.13229 z"
       id="path1"
       sodipodi:nodetypes="ccsssscssssccssssscssssssssssscssscccsscsssssscssssscccsscsc" /></g></svg>
