<?xml version="1.0" encoding="UTF-8" standalone="no"?>
<!-- Created with Inkscape (http://www.inkscape.org/) -->

<svg
   width="3000"
   height="3000"
   viewBox="0 0 793.74998 793.75"
   version="1.1"
   id="svg1"
   inkscape:version="1.3 (0e150ed6c4, 2023-07-21)"
   sodipodi:docname="Asteroid2.svg"
   inkscape:export-filename="Asteroid2.png"
   inkscape:export-xdpi="96"
   inkscape:export-ydpi="96"
   xmlns:inkscape="http://www.inkscape.org/namespaces/inkscape"
   xmlns:sodipodi="http://sodipodi.sourceforge.net/DTD/sodipodi-0.dtd"
   xmlns="http://www.w3.org/2000/svg"
   xmlns:svg="http://www.w3.org/2000/svg">
  <sodipodi:namedview
     id="namedview1"
     pagecolor="#505050"
     bordercolor="#ffffff"
     borderopacity="1"
     inkscape:showpageshadow="0"
     inkscape:pageopacity="0"
     inkscape:pagecheckerboard="1"
     inkscape:deskcolor="#505050"
     inkscape:document-units="mm"
     inkscape:zoom="0.20756134"
     inkscape:cx="1563.3933"
     inkscape:cy="1481.4898"
     inkscape:window-width="1600"
     inkscape:window-height="837"
     inkscape:window-x="-8"
     inkscape:window-y="-8"
     inkscape:window-maximized="1"
     inkscape:current-layer="layer1"
     showguides="true" />
  <defs
     id="defs1" />
  <g
     inkscape:label="Layer 1"
     inkscape:groupmode="layer"
     id="layer1">
    <path
       style="fill:#a36948;fill-opacity:1;stroke:none;stroke-width:3.19341;stroke-linecap:round;stroke-linejoin:round;paint-order:markers stroke fill"
       d="M 9.2743818,486.05761 C 17.217003,589.41351 111.72144,591.49532 148.31015,627.55298 c 36.58872,36.05766 140.12316,103.25631 228.27389,46.23974 88.15073,-57.01656 119.22463,-87.10653 175.43854,-96.69855 56.21388,-9.59203 91.876,-27.35592 160.32672,-121.36279 68.45074,-94.00688 -2.75305,-97.94985 64.87611,-213.3197 C 844.85455,127.0418 515.59183,71.203726 417.6796,110.24052 319.76738,149.27732 126.04605,187.41774 72.39052,219.34499 18.734977,251.27222 1.3317466,382.7017 9.2743818,486.05761 Z"
       id="path1"
       sodipodi:nodetypes="zzzzzzzzz" />
    <path
       id="path5"
       style="fill:#9f5c3f;fill-opacity:1;stroke:none;stroke-width:2;stroke-linecap:round;stroke-linejoin:round;paint-order:markers stroke fill"
       d="M 467.97919 381.01809 C 465.85672 380.8687 463.68063 380.9031 461.44987 381.14211 C 425.75765 384.96629 382.41692 416.83452 372.21914 392.61479 C 362.02137 368.39507 295.73587 406.63661 275.3403 420.65856 C 254.94476 434.68051 280.4393 469.09853 271.51624 474.19741 C 262.59318 479.2963 262.59279 502.24088 214.15334 494.59255 C 165.7139 486.9442 147.86771 526.46066 145.31826 558.32871 C 143.13758 585.58724 156.71658 620.19609 142.37012 622.49017 C 144.44641 624.12419 146.50007 625.76893 148.31033 627.55291 C 184.89901 663.61053 288.43361 730.80898 376.58425 673.79246 C 464.73489 616.77596 495.80878 586.68598 552.02264 577.09397 C 563.25489 575.17736 573.64947 572.89239 583.66618 569.78021 C 435.56793 522.81885 544.19121 463.82592 531.5598 444.87879 C 519.60929 426.95301 499.81613 383.25883 467.97919 381.01809 z " />
    <path
       style="fill:#955e40;fill-opacity:1;stroke:none;stroke-width:2.43516;stroke-linecap:round;stroke-linejoin:round;paint-order:markers stroke fill"
       d="m 555.99106,163.66898 c -97.85051,-10.87228 -97.78103,12.41664 -116.40598,23.28121 -18.62496,10.86456 -82.26024,18.62495 -105.54144,26.38535 -23.2812,7.7604 -121.06223,26.38536 -150.55174,43.45824 -29.48952,17.07288 -69.84359,60.53111 18.62496,41.90616 88.46856,-18.62496 169.1767,-7.76042 206.42661,-20.17705 37.24991,-12.41664 99.33312,-60.53111 121.06224,-55.87487 21.72911,4.65624 124.23586,-48.10675 26.38535,-58.97904 z"
       id="path6"
       sodipodi:nodetypes="zzzzzzzz" />
    <path
       id="path7"
       style="fill:#000000;fill-opacity:0.19;stroke:none;stroke-width:2;stroke-linecap:round;stroke-linejoin:round;paint-order:markers stroke fill"
       d="M 569.62363 101.75193 C 669.36334 119.07836 656.2837 188.38472 616.96596 223.07682 C 573.6254 261.31848 581.27369 279.16436 523.91117 279.16436 C 466.54866 279.16436 480.57053 345.45007 449.97719 363.29617 C 419.38385 381.14227 449.97736 462.72456 378.59291 485.66958 C 309.53939 507.86535 292.97861 674.37499 338.12561 690.99607 C 351.09806 687.46752 363.99934 681.93248 376.58425 673.79246 C 464.73489 616.77596 495.80878 586.68598 552.02264 577.09397 C 608.23646 567.50195 643.89863 549.73813 712.34928 455.73136 C 780.79996 361.72457 709.59633 357.78129 777.22543 242.41156 C 822.29452 165.52731 691.14588 115.29867 569.62363 101.75193 z " />
  </g>
</svg>
