<?xml version="1.0" encoding="UTF-8" standalone="no"?>
<!-- Created with Inkscape (http://www.inkscape.org/) -->

<svg
   width="3000"
   height="3000"
   viewBox="0 0 793.74998 793.75002"
   version="1.1"
   id="svg8"
   inkscape:version="1.3 (0e150ed6c4, 2023-07-21)"
   sodipodi:docname="Earth.svg"
   inkscape:export-filename="G:\Pictures\My Pictures\Vectors and SVGs\Space\Earth.png"
   inkscape:export-xdpi="96"
   inkscape:export-ydpi="96"
   xmlns:inkscape="http://www.inkscape.org/namespaces/inkscape"
   xmlns:sodipodi="http://sodipodi.sourceforge.net/DTD/sodipodi-0.dtd"
   xmlns="http://www.w3.org/2000/svg"
   xmlns:svg="http://www.w3.org/2000/svg"
   xmlns:rdf="http://www.w3.org/1999/02/22-rdf-syntax-ns#"
   xmlns:cc="http://creativecommons.org/ns#"
   xmlns:dc="http://purl.org/dc/elements/1.1/">
  <defs
     id="defs2" />
  <sodipodi:namedview
     id="base"
     pagecolor="#000720"
     bordercolor="#666666"
     borderopacity="1.0"
     inkscape:pageopacity="0"
     inkscape:pageshadow="2"
     inkscape:zoom="0.1767767"
     inkscape:cx="1434.0125"
     inkscape:cy="1462.2968"
     inkscape:document-units="mm"
     inkscape:current-layer="layer1"
     showgrid="false"
     inkscape:pagecheckerboard="false"
     inkscape:showpageshadow="false"
     borderlayer="true"
     units="px"
     inkscape:snap-object-midpoints="true"
     inkscape:window-width="1600"
     inkscape:window-height="837"
     inkscape:window-x="-8"
     inkscape:window-y="-8"
     inkscape:window-maximized="1"
     inkscape:snap-page="true"
     inkscape:snap-global="false"
     inkscape:deskcolor="#505050" />
  <metadata
     id="metadata5">
    <rdf:RDF>
      <cc:Work
         rdf:about="">
        <dc:format>image/svg+xml</dc:format>
        <dc:type
           rdf:resource="http://purl.org/dc/dcmitype/StillImage" />
      </cc:Work>
    </rdf:RDF>
  </metadata>
  <g
     inkscape:label="Layer 1"
     inkscape:groupmode="layer"
     id="layer1"
     transform="translate(0,496.75002)">
    <circle
       style="opacity:1;fill:#003a8f;fill-opacity:1;fill-rule:nonzero;stroke:none;stroke-width:13.11801243;stroke-linecap:round;stroke-linejoin:round;stroke-miterlimit:4;stroke-dasharray:none;stroke-dashoffset:0;stroke-opacity:1;paint-order:normal"
       id="path886"
       cx="396.89572"
       cy="-99.870728"
       r="389.38721" />
    <path
       style="opacity:1;fill:#ffffff;fill-opacity:1;fill-rule:nonzero;stroke:none;stroke-width:49.5798912;stroke-linecap:round;stroke-linejoin:round;stroke-miterlimit:4;stroke-dasharray:none;stroke-dashoffset:0;stroke-opacity:1;paint-order:normal"
       d="m 1500.0781,28.316406 c -123.2071,0.394818 -245.8771,16.259816 -365.1308,47.222656 -15.0396,7.78451 -35.7663,18.139868 -54.0489,26.937498 -54.4265,26.19024 -87.57371,44.95829 -102.41402,57.98828 -12.35532,10.84804 -23.98062,33.32699 -21.10743,40.81446 3.21018,8.36557 14.83889,4.40998 80.51565,-27.39063 32.9294,-15.94439 68.7728,-31.07775 79.7168,-33.66015 10.9363,-2.58059 30.8973,-7.49328 44.3574,-10.91602 13.4602,-3.42274 42.3674,-8.93319 64.2402,-12.24609 21.8728,-3.31291 42.5216,-6.8373 45.8868,-7.83203 14.9127,-4.40837 50.9956,-21.47453 73.9218,-34.960942 30.6172,-18.01081 43.5117,-22.500392 87.211,-30.369141 44.7998,-8.06691 75.1724,-7.680337 121.8359,1.550781 59.5209,11.774589 75.6086,9.769025 65.0488,-8.107422 -0.6183,-1.046775 -1.1523,-2.091498 -1.6172,-3.105468 -39.3764,-3.565091 -78.8804,-5.541955 -118.416,-5.925782 z M 979.5625,124.0918 c -15.12377,5.98298 -30.14731,12.21626 -45.06445,18.69726 0.13966,0.0246 0.28325,0.0444 0.41211,0.0781 10.88349,2.8461 28.85866,-4.29216 42.48828,-16.875 0.67548,-0.6236 1.4069,-1.25914 2.16406,-1.90039 z m -72.14258,30.81445 c -14.43576,6.18551 -28.77158,12.60169 -43.00195,19.24609 -2.93918,5.70953 5.78085,4.13079 22.41601,-4.49414 10.8319,-5.61607 19.69336,-11.32776 19.69336,-12.68945 0,-0.61472 0.32329,-1.31361 0.89258,-2.0625 z m 23.30274,2679.40625 c -2.01896,0.1312 -2.7793,2.1195 -2.7793,5.7715 0,4.9787 6.40109,13.034 16.28125,21.7558 18.2125,7.0619 36.56379,13.7605 55.04297,20.0918 -7.86777,-3.6259 -13.89301,-6.8073 -17.79102,-9.4531 -5.04759,-3.4261 -17.59133,-13.5312 -27.87304,-22.457 -12.65726,-10.988 -19.51594,-15.9276 -22.88086,-15.709 z m 1075.56254,28.541 -27.5332,0.4199 c -20.9388,0.3194 -42.0389,3.8242 -88.1094,14.6309 -69.3898,16.2768 -94.9272,20.4378 -172.7246,28.1484 l -55.875,5.5391 -42.0176,-7.0469 -42.0176,-7.0488 -41.2988,6.7676 c -33.5616,5.5001 -48.6343,6.4511 -80.4629,5.0742 -44.6241,-1.9304 -47.5888,-1.2481 -84.7305,19.5527 -14.3014,8.0093 -32.1962,16.2783 -39.7676,18.3731 -15.8982,4.3984 -20.0263,7.1099 -15.7988,11.4765 61.0443,8.1741 122.5415,12.5081 184.1289,12.9766 173.1779,-0.3802 344.9295,-31.3229 507.3516,-91.4043 0.1102,-1.6469 0.01,-3.6224 -0.2031,-6.1387 z"
       transform="matrix(0.26458333,0,0,0.26458333,0,-496.75002)"
       id="circle817"
       inkscape:connector-curvature="0"
       sodipodi:nodetypes="cccccsscsccssccccccccccssccccccccccccccccscccccccc" />
    <path
       id="path831"
       transform="matrix(0.26458333,0,0,0.26458333,0,-496.75002)"
       d="m 1712.4492,93.253906 c -2.1526,-0.02037 -4.118,0.0155 -5.8711,0.109375 -29.3743,1.572964 -46.1784,10.618259 -74.8105,40.265629 -12.7432,13.19505 -33.859,31.56428 -46.9238,40.82031 -13.0647,9.2561 -25.1084,19.3623 -26.7657,22.45898 -5.8044,10.84562 -3.3492,21.60794 7.3848,32.3418 11.8131,11.81314 23.688,13.49566 39.0781,5.53711 7.9219,-4.09648 10.061,-4.21039 13.5586,-0.71289 9.6601,9.66017 11.8944,52.36232 3.3047,63.1582 -5.119,6.43378 -24.0219,15.21811 -86.8418,40.35352 -59.1956,23.68524 -90.9116,40.01148 -95.9961,49.41797 -1.9155,3.54398 -0.435,10.09338 4.8359,21.41601 9.1604,19.67709 9.5196,28.50152 1.6856,41.34961 -9.1031,14.92925 -16.4956,17.42475 -52.2168,17.61524 -29.9159,0.15987 -33.5973,0.86868 -52.2891,10.06835 -34.5575,17.00848 -59.932,44.29075 -65.3398,70.25391 -2.704,12.98226 6.8499,34.52544 19.2148,43.33008 22.7131,16.17309 49.9674,26.00706 75.8438,27.36523 21.8308,1.14584 27.1771,0.34413 41.4375,-6.21093 23.7047,-10.89638 33.1148,-20.05724 57.6738,-56.13672 26.0673,-38.29539 46.1654,-55.48427 80.3379,-68.70899 35.4125,-13.70456 61.5188,-19.00886 95.5586,-19.41992 29.0844,-0.351 31.4947,0.12082 48.9453,9.61133 10.0951,5.49033 35.5623,25.24678 56.5938,43.90234 50.8195,45.07866 61.9358,50.45225 72.1425,34.875 4.654,-7.1029 4.5881,-8.36151 -0.9746,-19.11914 -3.275,-6.33377 -17.5294,-21.32322 -31.6777,-33.30859 -14.1482,-11.98534 -25.7246,-23.6859 -25.7246,-26.00195 0,-5.93594 17.1385,-6.97399 29.5176,-1.78711 16.6051,6.95762 28.7512,19.08976 60.0175,59.94336 44.5646,58.22936 73.7257,84.21374 88.2539,78.63867 4.2364,-1.62569 4.7266,-4.76734 3.0137,-19.3418 -1.1248,-9.56973 -2.8349,-20.5386 -3.7988,-24.37891 -2.5625,-10.20978 6.5543,-12.55869 16.7266,-4.30859 19.0996,15.49047 58.6408,31.02457 125.4492,49.2832 73.2298,20.01355 95.6981,28.82892 109.0859,42.80274 7.4935,7.82154 8.3048,10.58882 7.0234,23.92383 -2.7805,28.93734 -19.5166,41.63417 -67.414,51.14648 -23.9256,4.75155 -27.619,4.8137 -38.1094,0.63672 -33.3022,-13.26002 -133.3421,-35.92383 -158.5723,-35.92383 -19.7529,0 -25.8847,5.04549 -25.8847,21.29492 0,6.94696 -2.3719,14.60466 -5.8535,18.90039 -4.9292,6.08191 -8.5591,7.19579 -23.0039,7.0586 -14.3345,-0.13622 -21.7924,-2.57032 -45.3887,-14.81641 -87.4323,-45.37546 -118.2703,-66.51222 -143.0586,-98.05469 -12.9142,-16.433 -18.39,-20.80617 -32.9297,-26.29492 -33.3731,-12.59837 -99.5737,-7.96231 -183.9746,12.88477 -32.8591,8.11627 -44.5095,9.54214 -80.4063,9.84375 l -41.9765,0.35351 -20.7344,20.13477 c -11.4035,11.07432 -40.0053,37.15563 -63.5605,57.95898 -59.6321,52.66515 -111.2044,105.46537 -128.6602,131.72266 -35.3961,53.24326 -66.7661,129.37537 -74.8887,181.75194 -5.3651,34.5962 -4.1118,86.2982 2.7949,115.3125 22.2624,93.5204 81.982,188.5688 143.3067,228.0859 47.3516,30.5131 96.1372,29.6511 236.4062,-4.1738 71.9198,-17.343 100.3799,-22.6035 122.2598,-22.6035 h 20.6309 l 15.0879,16.0586 c 8.2975,8.8334 18.9322,21.1562 23.6328,27.3809 10.1483,13.4391 30.0911,23.8613 45.6582,23.8613 18.5765,0 21.4493,7.7434 24.1758,65.2246 3.2286,68.0677 5.7682,75.4253 37.8945,109.7656 21.9682,23.4823 28.7757,33.4663 44.1972,64.8106 30.1375,61.2541 41.1616,114.419 30.545,147.2968 -2.152,6.6645 -13.7111,33.4561 -25.6875,59.5352 -21.3075,46.3975 -21.7717,47.9415 -21.6719,71.8887 0.097,23.1092 1.1856,27.0315 19.5527,70.3613 27.1529,64.0563 33.5568,84.3695 37.125,117.75 7.3229,68.505 27.4926,159.0401 42.2285,189.5547 11.0203,22.8204 18.1579,27.1784 50.5352,30.8574 45.7061,5.1934 107.3956,-3.7223 139.9766,-20.2324 21.0414,-10.6625 30.8514,-20.0797 93.7754,-90.0254 59.4213,-66.0521 85.3649,-91.5285 107.164,-105.2363 17.4066,-10.9457 20.8118,-20.4285 22.8145,-63.5059 2.7125,-58.3445 8.3242,-65.9438 73.1816,-99.1191 39.5669,-20.239 54.4344,-32.7266 65.2246,-54.7813 16.0485,-32.8016 16.0485,-76.868 0,-132.2246 -12.4748,-43.03 -15.7316,-72.9043 -11.2949,-103.5898 6.6095,-45.7137 21.6104,-71.5758 90.1973,-155.5118 86.4006,-105.7363 87.9894,-108.691 109.2754,-203.166 14.3882,-63.86 18.8954,-109.4938 11.1074,-112.4824 -2.8693,-1.101 -17.6252,3.9972 -34.8711,12.0488 -69.7985,32.5872 -85.8998,27.9403 -129.7461,-37.4394 -28.5817,-42.6182 -35.9962,-52.0126 -65.4863,-82.9883 -28.6743,-30.1188 -37.7692,-44.8533 -68.8633,-111.57031 -12.5239,-26.87195 -28.1164,-57.15732 -34.6504,-67.30078 -12.8503,-19.94922 -57.3515,-75.00948 -70.3516,-87.04297 -4.4066,-4.07898 -8.0136,-9.13967 -8.0136,-11.24805 0,-4.87759 14.6379,-16.51562 20.7734,-16.51562 7.8485,0 46.9282,42.97437 86.0195,94.5918 20.4514,27.0048 65.5928,91.45131 100.3125,143.21293 86.4671,128.9081 94.0837,138.4687 110.2989,138.4687 23.4438,0 68.8247,-39.5724 101.1464,-88.2012 30.0093,-45.1496 55.6537,-102.41152 55.5879,-124.12301 -0.084,-27.53341 -35.9534,-62.18444 -106.0605,-102.46094 -42.7249,-24.54535 -49.9278,-29.73316 -49.9278,-35.95898 0,-12.70035 57.3311,4.07619 121.8008,35.64257 76.9206,37.66266 132.1854,80.11619 162.2285,124.625 42.4088,62.82856 82.8309,159.13606 116.8672,278.42776 6.371,22.3286 11.2919,34.414 14.0117,34.414 2.3058,0 4.1934,-1.376 4.1934,-3.0586 0,-1.6825 1.3761,-3.0605 3.0586,-3.0605 1.6825,0 3.0606,3.675 3.0606,8.1641 0,15.1737 6.7235,46.9023 9.9394,46.9023 2.104,0 2.5313,-7.569 1.252,-22.1797 -0.3167,-3.6166 -0.6667,-7.0153 -1.045,-10.2148 l -0.096,-0.7832 c -2.7507,-22.7107 -7.0902,-34.7219 -13.1133,-36.2969 -4.0159,-1.0502 -5.6035,-4.2535 -5.5117,-11.1231 0.137,-10.2915 -7.2407,-52.394 -21.791,-124.3652 -3.4424,-17.0275 -6.8685,-39.0395 -9.7539,-60.5781 -139.2201,-457.48349 -492.0346,-818.80381 -946.0723,-968.88087 -1.6471,1.87723 -8.4729,3.90143 -16.1347,4.68555 -10.6171,1.08657 -18.3098,4.1164 -25.2324,9.9414 -13.525,11.38054 -32.5676,11.21062 -67.2481,-0.5996 -32.9702,-11.22775 -107.4229,-23.924903 -139.7129,-24.230474 z m -400.6504,44.576174 c -4.2516,0.0492 -8.957,0.41946 -13.9804,1.13281 -9.1011,1.29245 -23.036,2.44943 -30.9688,2.57227 -11.3361,0.17548 -15.1521,1.58545 -17.8262,6.58203 -4.3354,8.10081 -1.8877,14.44803 6.9414,17.99414 9.8314,3.94862 14.0174,3.77624 34.6055,-1.43164 31.0899,-7.86441 44.6617,-13.86721 43.6172,-19.29102 -0.9576,-4.97238 -9.6339,-7.70637 -22.3887,-7.55859 z M 798.42188,207.98633 C 593.68385,318.6877 418.12126,476.37032 286.14844,668.08789 c 11.49366,-13.00156 25.547,-29.44621 34.0625,-39.92773 60.66692,-74.67345 92.07906,-107.04257 111.37109,-114.76172 7.05075,-2.82116 18.45232,-12.26475 28.25781,-23.4043 19.21214,-21.82613 32.13469,-28.34815 65.18946,-32.89844 37.90465,-5.21782 54.17187,-15.58456 54.17187,-34.52343 0,-15.87727 6.00444,-26.62908 23.60547,-42.26563 17.99528,-15.98683 41.50329,-27.39781 56.51758,-27.4375 21.19884,-0.0561 17.14386,6.44697 -19.8418,31.83398 -9.59947,6.58912 -17.45312,13.63578 -17.45312,15.65821 0,2.02242 8.03194,5.93087 17.84961,8.68555 28.2709,7.93239 34.37478,4.40146 51.50976,-29.79102 9.8648,-19.68495 20.18692,-34.46763 34.91211,-50.00391 22.30908,-23.53799 31.5809,-38.61128 35.01563,-56.91992 1.70112,-9.0675 7.16256,-16.05802 26.76757,-34.27148 13.54632,-12.58481 22.97726,-22.88282 20.95899,-22.88282 -2.01827,0 -10.64205,3.53412 -19.16602,7.85352 -8.52397,4.31943 -16.20412,7.15131 -17.06445,6.29102 -0.86026,-0.8603 10.28955,-10.18546 24.77734,-20.72071 0.2902,-0.21102 0.54638,-0.40629 0.83204,-0.61523 z m 626.42772,19.42773 c -14.3614,0 -21.0894,3.91931 -25.6582,14.94922 -3.022,7.29574 -2.9542,10.69887 0.3457,17.42578 4.413,8.99637 7.0992,10.93759 24.7481,17.8711 19.2602,7.56653 15.504,16.78613 -13.6075,33.39843 -7.905,4.51091 -15.1308,9.42792 -16.0566,10.92579 -0.9257,1.49782 3.4541,5.75197 9.7305,9.45507 l 11.4101,6.73438 -6.8281,5.52734 c -12.8043,10.36827 -7.6401,11.73397 16.1172,4.25977 8.4126,-2.64665 25.9496,-5.13399 38.9726,-5.52539 20.0976,-0.60397 24.8406,-1.80164 31.3575,-7.92383 9.7125,-9.12401 9.7225,-14.52347 0.035,-18.9375 -4.2041,-1.9155 -11.1257,-9.42216 -15.3789,-16.67969 -4.5819,-7.81837 -13.1953,-16.39569 -21.1387,-21.05078 -7.3734,-4.32117 -14.2148,-9.96358 -15.2031,-12.53906 -2.0423,-5.32214 3.0128,-16.47657 7.4668,-16.47657 1.6234,0 2.9492,-2.06411 2.9492,-4.58789 0,-3.05915 -3.0575,-4.58984 -9.1758,-4.58984 -7.1379,0 -9.1777,-1.3585 -9.1777,-6.11719 0,-4.97435 -2.0395,-6.11914 -10.9082,-6.11914 z m -44.6484,45.88867 c -7.2597,0.0121 -15.7392,3.40256 -24.5078,10.08008 -7.2816,5.54506 -15.0037,13.73905 -17.1602,18.20899 -2.1566,4.46997 -7.3197,10.79972 -11.4727,14.0664 -9.3236,7.33399 -9.483,11.00615 -0.75,17.12305 8.7917,6.15795 8.6469,6.17906 22.5997,-3.45117 6.5442,-4.51692 17.4046,-8.99006 24.1347,-9.94141 10.8632,-1.53551 12.3496,-2.76082 13.2461,-10.9082 0.5553,-5.0476 3.8797,-12.25927 7.3867,-16.02735 6.1799,-6.63972 6.2049,-7.04129 0.8106,-13.00195 -3.7324,-4.12422 -8.6407,-6.15599 -14.2871,-6.14844 z M 143.0957,930.90234 c -3.29413,8.76344 -6.50456,17.55811 -9.63086,26.38282 0.39775,10.67085 -0.28754,20.49622 -2.09179,26.5 -1.96459,6.53737 -1.51489,8.41015 2.01757,8.41015 2.50018,0 5.94111,-1.71911 7.64649,-3.82226 3.32831,-4.10466 4.68444,-43.36303 2.05859,-57.47071 z m 22.04883,60.10157 c -1.32565,-0.0483 -2.76044,0.56638 -4.30664,1.84961 -7.87301,6.53408 -25.01808,33.88728 -23.14258,36.92188 2.44202,3.9513 27.36585,0.8399 33.40235,-4.1699 3.68253,-3.0563 4.40103,-7.0576 2.92578,-16.2832 -1.92627,-12.04626 -4.90198,-18.17364 -8.87891,-18.31839 z m -63.16406,196.97659 c -15.439031,0 -34.776548,63.8558 -50.488282,166.7226 -4.36876,28.603 -10.672188,65.5169 -14.007813,82.0313 -5.183621,25.6635 -7.832237,54.9881 -8.289063,86.3281 0.251277,24.7434 1.126555,49.4765 2.625,74.1758 0.559132,6.9062 1.209944,13.8472 1.933594,20.8066 1.209006,10.988 2.541772,21.962 3.998047,32.9199 15.655515,112.6089 51.190423,224.4648 95.009767,275.875 20.91924,24.5432 22.18826,27.2931 57.24609,123.8418 38.5217,106.0881 55.61173,147.1191 89.17188,214.1133 57.23958,114.2641 129.67931,217.9701 207.62109,300.1153 48.6806,46.5192 100.49634,89.6426 155.08203,129.0664 10.04461,6.1672 20.07901,11.9113 30.08203,17.1757 22.1517,11.6581 29.60157,13.2627 29.60157,6.3789 0,-1.4915 -9.40686,-7.6555 -20.9043,-13.6972 -27.21245,-14.2998 -64.52321,-44.3444 -88.23438,-71.0508 -10.39177,-11.7045 -32.26942,-40.44 -48.61523,-63.8574 -16.34581,-23.4174 -35.71729,-49.2636 -43.05078,-57.4375 -17.39297,-19.3864 -18.56464,-31.6148 -5.4961,-57.4043 10.30171,-20.3295 9.48294,-28.9397 -4.85156,-51 -17.57363,-27.0453 -18.06657,-32.7902 -4.83789,-56.4453 14.24629,-25.4748 14.12456,-33.0732 -1.49219,-93.252 -11.13981,-42.9328 -12.36694,-51.1117 -11.13281,-74.2734 1.06284,-19.9463 3.20696,-29.5967 9.17578,-41.2988 10.75578,-21.0872 20.96827,-29.7753 51.43164,-43.7598 41.60572,-19.0995 47.01949,-29.8862 47.11133,-93.875 0.0343,-23.5554 -1.92097,-62.3242 -4.3418,-86.1543 -5.86087,-57.693 -3.31838,-71.2538 24.28321,-129.5137 32.53572,-68.6746 40.3036,-105.9023 27.82617,-133.3769 -8.84111,-19.4676 -10.97651,-20.5893 -111.94727,-58.8516 -104.17262,-39.4756 -150.37774,-69.1312 -170.73046,-109.584 -4.09731,-8.1437 -14.67994,-34.4313 -23.51368,-58.416 -18.44985,-50.0937 -31.93679,-71.5758 -53.62109,-85.4004 -29.92335,-19.0773 -40.21151,-30.6408 -57.7207,-64.8711 -9.19507,-17.9762 -19.45535,-35.1599 -22.80078,-38.1875 -3.34545,-3.0276 -15.0809,-7.558 -26.07813,-10.0664 -16.79859,-3.8318 -22.96993,-7.2149 -38.60742,-21.168 -10.23711,-9.1344 -19.88412,-16.6093 -21.4375,-16.6093 z M 49.75,1260.3398 c -2.405643,14.4522 -4.59534,28.9395 -6.568359,43.4571 1.449991,3.6767 2.860774,6.5336 4.023437,7.8125 4.441754,4.8855 9.474816,-14.3643 8.134766,-31.1133 -0.717431,-8.9669 -2.488522,-15.4136 -5.589844,-20.1563 z m 2535.0371,558.959 c -3.3407,0.2912 -9.4404,8.5473 -18.8281,25.334 -15.9405,28.5042 -27.1481,39.8632 -51.3535,52.0527 -53.3478,26.8656 -57.4825,32.805 -56.3711,80.9727 l 0.8027,34.7578 -12.9316,17.9902 c -16.3005,22.6774 -25.3083,46.5783 -27.5274,73.0469 -1.4709,17.5461 -0.8536,21.6538 4.0625,27.086 4.7498,5.2485 8.3854,6.1564 20.1563,5.0254 7.8987,-0.759 17.8169,-3.6437 22.039,-6.4102 4.2222,-2.7665 16.0845,-19.8389 26.3594,-37.9395 28.1607,-49.6089 80.9713,-156.5565 88.2031,-178.6191 10.6024,-32.3453 13.9676,-71.4297 7.8301,-90.9551 -0.5193,-1.6519 -1.3278,-2.4387 -2.4414,-2.3418 z"
       style="opacity:1;fill:#5bc412;fill-opacity:1;fill-rule:nonzero;stroke:none;stroke-width:49.5798912;stroke-linecap:round;stroke-linejoin:round;stroke-miterlimit:4;stroke-dasharray:none;stroke-dashoffset:0;stroke-opacity:1;paint-order:normal"
       inkscape:connector-curvature="0"
       sodipodi:nodetypes="cssccccccscccccccscssccccccscccccssccsssscccsscccccscccsscccsscccccscccssssccccsscccssccssccscccssscsssssccccccccsccscccccccccsssccscccscsccssccccsccscccccsccccccsssssccccccccccccccsccccscccssccccccsscccsccscccscccscsssscssccccsccscccsscccccccsccccs" />
    <path
       style="opacity:1;fill:#000000;fill-opacity:0.313725;fill-rule:nonzero;stroke:none;stroke-width:13.118;stroke-linecap:round;stroke-linejoin:round;stroke-miterlimit:4;stroke-dasharray:none;stroke-dashoffset:0;stroke-opacity:1;paint-order:normal"
       d="M 397.98863,289.4676 A 389.38721,389.38721 0 0 0 786.24141,-99.879164 389.38721,389.38721 0 0 0 396.85434,-489.26677 a 389.38721,389.38721 0 0 0 -0.601,0.0212 c 78.31846,14.86453 149.63778,62.00399 201.24301,133.05806 51.86843,71.41649 80.41917,162.30147 80.51859,256.312504 C 677.97781,-6.1109108 649.63617,84.578105 598.06117,155.96516 546.80894,226.90544 475.9356,274.17837 397.98863,289.4676 Z"
       id="circle896"
       inkscape:transform-center-x="-194.37238"
       inkscape:transform-center-y="-0.024554483" />
  </g>
</svg>
