<?xml version="1.0" encoding="UTF-8" standalone="no"?>
<!-- Created with Inkscape (http://www.inkscape.org/) -->

<svg
   width="3000"
   height="3000"
   viewBox="0 0 793.74998 793.75002"
   version="1.1"
   id="svg8"
   inkscape:version="1.3 (0e150ed6c4, 2023-07-21)"
   sodipodi:docname="Eris.svg"
   inkscape:export-filename="G:\Pictures\My Pictures\Vectors and SVGs\Space\Eris.png"
   inkscape:export-xdpi="96"
   inkscape:export-ydpi="96"
   xmlns:inkscape="http://www.inkscape.org/namespaces/inkscape"
   xmlns:sodipodi="http://sodipodi.sourceforge.net/DTD/sodipodi-0.dtd"
   xmlns="http://www.w3.org/2000/svg"
   xmlns:svg="http://www.w3.org/2000/svg"
   xmlns:rdf="http://www.w3.org/1999/02/22-rdf-syntax-ns#"
   xmlns:cc="http://creativecommons.org/ns#"
   xmlns:dc="http://purl.org/dc/elements/1.1/">
  <defs
     id="defs2" />
  <sodipodi:namedview
     id="base"
     pagecolor="#000720"
     bordercolor="#666666"
     borderopacity="1.0"
     inkscape:pageopacity="0"
     inkscape:pageshadow="2"
     inkscape:zoom="0.125"
     inkscape:cx="1220"
     inkscape:cy="1556"
     inkscape:document-units="mm"
     inkscape:current-layer="layer1"
     showgrid="false"
     inkscape:pagecheckerboard="false"
     inkscape:showpageshadow="false"
     borderlayer="true"
     units="px"
     inkscape:snap-object-midpoints="true"
     inkscape:window-width="1600"
     inkscape:window-height="837"
     inkscape:window-x="-8"
     inkscape:window-y="-8"
     inkscape:window-maximized="1"
     inkscape:snap-page="true"
     inkscape:snap-global="false"
     inkscape:deskcolor="#505050" />
  <metadata
     id="metadata5">
    <rdf:RDF>
      <cc:Work
         rdf:about="">
        <dc:format>image/svg+xml</dc:format>
        <dc:type
           rdf:resource="http://purl.org/dc/dcmitype/StillImage" />
      </cc:Work>
    </rdf:RDF>
  </metadata>
  <g
     inkscape:label="Layer 1"
     inkscape:groupmode="layer"
     id="layer1"
     transform="translate(0,496.75002)">
    <path
       inkscape:connector-curvature="0"
       id="path836"
       d="m 384.83382,294.28334 c -17.07687,-0.47138 -37.79785,-2.58448 -55.45739,-5.6555 C 272.04331,278.65757 217.64133,256.14767 170.22955,222.7777 89.882696,166.22693 33.639306,82.249811 12.118716,-13.297878 -6.4440041,-95.713185 2.1554659,-182.95248 36.440986,-260.04063 76.247306,-349.54186 148.02973,-421.14856 237.56601,-460.6733 c 65.09058,-28.73347 136.73043,-39.31796 207.56564,-30.66696 96.68641,11.80817 186.96471,60.08187 250.29585,133.83844 42.72148,49.75419 71.81621,107.53446 86.10127,170.99162 1.17264,5.20909 2.61639,12.20885 3.20834,15.55501 0.59195,3.34616 1.35941,7.69128 1.70543,9.65581 1.08508,6.1603 3.01156,23.03921 3.6993,32.41146 4.73776,64.566174 -6.39332,128.89829312 -32.59506,188.383351 -9.78509,22.214789 -23.55742,46.636919 -37.59994,66.675009 -6.07925,8.67486 -5.83591,8.34615 -12.63388,17.06562 -39.60212,50.79598 -91.77203,91.38733 -151.12009,117.58055 -46.62416,20.57755 -97.4624,32.01213 -148.89664,33.48991 -10.09015,0.28993 -11.15954,0.28881 -22.46241,-0.0233 z"
       style="fill:#b3a497;fill-opacity:1;stroke-width:0.26458335" />
    <path
       inkscape:connector-curvature="0"
       id="path834"
       d="m 386.26186,293.76539 c -71.14303,-2.02779 -140.59259,-23.20661 -200.15731,-61.03848 -4.36563,-2.77278 -8.39175,-5.40242 -8.94694,-5.84364 -0.55519,-0.44122 -4.72238,-4.42542 -9.26042,-8.85381 -9.08932,-8.86968 -10.72808,-10.39204 -15.39473,-14.30123 -3.29303,-2.75852 -10.167,-8.96152 -14.25902,-12.86716 -2.8739,-2.74302 -14.35847,-15.30168 -18.14659,-19.84376 -6.5584,-7.86373 -11.36428,-12.85226 -14.38787,-14.93469 -0.76103,-0.52414 -2.2876,-1.29022 -3.39238,-1.70236 -3.818434,-1.42449 -8.690204,-5.84449 -17.386724,-15.77441 -5.78923,-6.61029 -7.67347,-8.88285 -10.52986,-12.7 -3.93475,-5.2582 -4.90723,-6.69319 -10.17989,-15.02166 -9.97063,-15.749196 -20.34921,-35.054917 -27.48386,-51.124175 -4.18861,-9.433958 -10.44944,-25.350366 -12.31317,-31.30283 -0.66933,-2.137702 -2.02932,-6.387069 -3.02221,-9.443007 -4.58674,-14.1172149 -9.55576,-34.505585 -12.4513701,-51.08914 -6.63631,-38.007187 -7.59549,-78.316118 -2.77592,-116.656708 0.65853,-5.23875 1.44166,-10.89422 1.74027,-12.56771 1.31858,-7.38947 1.65288,-8.99583 1.87212,-8.99583 0.13115,0 0.2312801,4.72472 0.2284801,10.78177 -0.005,10.62998 0.28691,16.22409 0.97306,18.65313 0.2746,0.9721 1.06656,0.49585 1.75988,-1.05834 2.03436,-4.56033 2.82078,-11.64886 2.82525,-25.46615 10e-4,-3.71078 0.20122,-10.37828 0.44449,-14.81666 0.47106,-8.59446 0.34395,-11.34806 -0.59743,-12.9417 -0.53544,-0.90644 -0.53735,-0.89749 2.69298,-12.5906 3.39346,-12.28354 12.03438,-37.03021 16.12134,-46.16979 4.5328,-10.13659 6.52504,-14.37176 10.49928,-22.31971 32.00786,-64.01142 81.206954,-118.33682 141.855224,-156.63585 60.19788,-38.0146 129.31928,-58.91796 200.806,-60.72678 14.47596,-0.36629 27.48005,0.0651 47.15378,1.56413 12.33773,0.94008 32.68292,4.1736 47.5488,7.55705 45.06537,10.25683 87.01276,27.58224 125.07255,51.6584 21.13854,13.37198 43.35605,30.37496 56.77242,43.44771 2.18281,2.12691 5.66295,5.47547 7.73363,7.44125 2.07071,1.96578 6.76151,6.71876 10.42403,10.56219 46.012,48.28479 79.37408,108.32673 95.84059,172.48495 0.6536,2.54661 1.32929,5.52317 1.50153,6.61458 0.64638,4.09596 4.7643,24.12029 5.15012,25.04369 0.64148,1.53527 1.86645,9.23811 3.14928,19.80319 6.95793,57.303356 1.23407,115.44314 -16.77503,170.391679 -3.33428,10.173415 -9.05672,25.340947 -12.17835,32.279169 -2.82078,6.26954 -2.91989,6.482292 -3.02001,6.482292 -0.0507,0 0.13346,-0.724985 0.40926,-1.611075 0.61775,-1.984877 0.62939,-2.421361 0.0616,-2.310924 -0.68159,0.132557 -2.2379,2.60776 -5.4102,8.604436 -4.74112,8.962232 -6.62093,12.938655 -11.60764,24.554023 -2.00869,4.678787 -4.88786,10.48351 -7.0621,14.23805 -1.11128,1.91897 -3.31743,5.73434 -4.90255,8.47863 -4.37864,7.5806 -11.32504,17.60971 -18.96515,27.38167 -2.5772,3.29634 -5.34693,6.88629 -6.15497,7.9777 -2.76649,3.73665 -11.89617,14.15388 -18.96034,21.63424 -31.61705,33.4799 -69.99224,61.94377 -109.85352,81.48116 -24.91629,12.21235 -47.13693,20.72281 -71.60734,27.42552 -15.0897,4.13319 -17.42668,4.53737 -30.05988,5.19878 -4.67428,0.24471 -9.74177,0.71329 -15.54321,1.43724 -5.11842,0.63873 -11.11001,1.01346 -13.71708,0.85791 -3.59709,-0.2146 -5.02047,-0.97502 -6.78813,-3.62651 -4.2419,-6.36286 -10.20411,-9.42451 -22.37269,-11.48855 -6.23872,-1.05826 -11.20818,-1.46011 -20.22523,-1.63558 -7.20458,-0.14018 -8.82954,-0.0927 -13.36146,0.39005 -5.98789,0.63791 -7.30549,1.01383 -8.89661,2.53841 l -1.15756,1.10914 v 2.83659 c 0,4.67379 -0.34893,4.96578 -6.13582,5.13491 -4.31233,0.12604 -6.42723,-0.20532 -12.38501,-1.94041 -5.02994,-1.46489 -16.01962,-6.23964 -22.75417,-9.88615 -1.38245,-0.74854 -4.65667,-2.44287 -7.27604,-3.76516 -6.26912,-3.16476 -9.80559,-5.12566 -14.06946,-7.80121 -6.23869,-3.91472 -9.69179,-5.42793 -17.13651,-7.50943 -4.81729,-1.34692 -8.73953,-2.17943 -14.30237,-3.03575 -8.82652,-1.35872 -15.13454,-2.50844 -18.65312,-3.39977 -3.06154,-0.77554 -13.75892,-4.57914 -21.82813,-7.76126 -4.30725,-1.6986 -8.14205,-3.01529 -12.25477,-4.2078 -2.22898,-0.6463 -5.62226,-1.65833 -7.54063,-2.24896 -7.27072,-2.23856 -12.50412,-3.25331 -13.6409,-2.64493 -0.93011,0.49779 -0.65212,1.25055 1.09098,2.95415 5.00234,4.88897 17.97862,13.44406 32.01896,21.10971 2.43988,1.33209 6.66659,3.74906 9.39271,5.37101 11.38777,6.77537 20.39163,10.68372 34.32532,14.89972 2.61937,0.79256 5.56673,1.62579 6.54968,1.85158 7.59381,1.74451 12.92667,2.71188 21.09928,3.82733 3.1287,0.42704 7.7126,1.08255 10.18646,1.45667 2.47385,0.37414 6.70057,0.98009 9.39271,1.34659 2.69213,0.36648 6.81373,0.9566 9.15911,1.31141 2.34537,0.35481 6.27443,0.88966 8.73125,1.18856 2.45681,0.2989 7.32443,0.95039 10.81693,1.44772 8.78139,1.2505 11.42143,1.4631 21.43125,1.72585 5.64701,0.14822 10.3804,0.41974 13.39985,0.76862 2.56773,0.29668 6.91351,0.72369 9.6573,0.94887 10.98738,0.90176 13.51259,1.44426 14.6635,3.15013 0.38243,0.56685 1.09281,1.23619 1.57863,1.48741 0.86781,0.44876 0.77685,0.45974 -5.18506,0.62579 -12.52797,0.34896 -15.80044,0.36899 -23.66317,0.14489 z M 581.25979,176.14563 c 6.90851,-1.0459 14.46514,-3.922 25.66892,-9.76972 11.62881,-6.06954 18.39315,-10.61992 23.44878,-15.77406 3.52714,-3.59585 5.28124,-5.93759 7.07623,-9.44676 2.25256,-4.40368 2.85454,-7.39765 1.7163,-8.53589 -0.4899,-0.4899 -0.77229,-0.54419 -2.18281,-0.41968 -0.89107,0.0787 -3.52513,0.75814 -5.85346,1.50998 -2.32833,0.75181 -7.26943,2.18474 -10.98021,3.18429 -8.0777,2.17582 -12.02812,3.5062 -19.57917,6.59368 -16.57876,6.77873 -18.27003,6.88758 -22.63791,1.45693 -2.24388,-2.78985 -3.22196,-3.69433 -4.74647,-4.38928 -3.77862,-1.72249 -10.23934,0.99475 -17.99166,7.56695 -4.38002,3.71327 -5.93715,4.54017 -13.19287,7.00603 -9.6869,3.29211 -13.17773,4.76946 -16.33879,6.91478 -2.68004,1.81888 -4.0495,3.96857 -4.03164,6.3286 0.0143,1.90127 0.72311,3.25922 2.59262,4.96787 3.64276,3.32928 9.5671,3.77635 21.935,1.65523 3.68456,-0.6319 4.98988,-0.65891 7.31589,-0.15142 1.63795,0.35738 5.74034,0.79457 14.81666,1.57901 4.56878,0.39486 9.17943,0.29652 12.96459,-0.27654 z M 449.31874,161.22839 c 2.72846,-0.68926 6.16709,-2.32185 7.58735,-3.60227 1.66425,-1.50043 2.375,-3.20265 2.37818,-5.69572 0.006,-4.99059 -2.99649,-15.95033 -6.18876,-22.5875 -3.31762,-6.89777 -6.61776,-10.77101 -16.56282,-19.439 -5.65867,-4.93202 -9.07798,-8.37805 -12.22584,-12.321324 -4.45984,-5.58681 -9.10511,-9.638719 -18.8627,-16.453196 -7.6245,-5.324793 -10.95211,-7.890166 -15.74271,-12.136623 -8.51519,-7.547981 -10.87835,-9.244596 -13.98098,-10.037552 -2.09135,-0.534485 -3.66173,-0.347901 -5.87293,0.697839 -6.12386,2.896129 -9.18475,11.984991 -7.23784,21.491576 0.74128,3.61958 3.08007,8.066141 7.00911,13.325953 2.84715,3.811534 4.71736,5.664567 8.70556,8.625597 15.90725,11.8104 23.83882,19.17619 29.05953,26.98655 2.27092,3.39736 3.18355,4.95488 6.45417,11.01482 3.30417,6.12214 4.65508,8.10369 7.25881,10.64726 2.6102,2.54987 5.63235,4.50805 10.75299,6.9673 4.45585,2.13997 5.95236,2.702 8.11525,3.04773 2.14857,0.34349 6.97613,0.0692 9.35363,-0.53144 z M 290.52488,131.29393 c 2.63581,-1.30908 2.90095,-1.52453 7.24512,-5.88698 5.55207,-5.57543 7.53263,-7.99592 8.8474,-10.81251 1.16223,-2.48986 1.59062,-4.45535 1.59636,-7.32417 0.005,-2.41787 -0.66323,-10.377093 -1.22293,-14.569628 -0.91879,-6.882342 -4.33184,-17.724968 -7.7016,-24.466446 -5.32021,-10.64358 -12.57215,-14.274007 -24.30235,-12.166124 -9.24605,1.661504 -14.82589,5.757624 -17.1302,12.575144 -0.22499,0.665665 -0.7772,4.118478 -1.22713,7.672917 -0.798,6.304227 -1.52013,9.81763 -3.81861,18.578699 -1.02493,3.906732 -1.1967,6.144868 -0.6682,8.706858 0.43268,2.09746 2.59052,6.418 4.40026,8.81041 5.17059,6.83538 15.08571,15.26196 21.63716,18.38884 2.95469,1.4102 4.56327,1.81345 7.31764,1.83438 2.24062,0.0169 2.35148,-0.0127 5.02708,-1.34139 z M 620.82556,92.031511 c 3.96544,-1.017244 9.24594,-4.228862 14.49752,-8.817426 3.27613,-2.8625 18.50359,-18.597378 23.84997,-24.644695 3.68361,-4.166553 7.43223,-9.56109 9.28476,-13.36146 2.09553,-4.298844 2.26785,-5.371492 2.50798,-15.610418 0.23273,-9.923092 0.32669,-10.646278 2.08474,-16.048462 2.28769,-7.0295824 5.62411,-10.3575912 11.60822,-11.578908 1.9567,-0.3993621 2.85276,-0.3609975 5.10402,0.218493 3.17588,0.8175096 4.65463,1.4731736 8.70744,3.860959 2.11006,1.2431714 4.48615,2.5034083 5.28019,2.8005354 1.87886,0.7030509 5.3114,0.9421549 7.46773,0.5201709 5.57234,-1.0904803 11.92652,-6.0612077 16.42094,-12.845707 2.3794,-3.5918249 5.88031,-10.8482353 7.08412,-14.6834503 1.10884,-3.532743 2.45887,-9.98908 2.9047,-13.891552 0.80735,-7.066783 0.56996,-15.963134 -0.53179,-19.928683 -1.5177,-5.462773 -4.1262,-8.384937 -8.72797,-9.777519 -2.24078,-0.6781 -3.5375,-0.819494 -10.07253,-1.098232 -5.25288,-0.224076 -5.53572,-0.26461 -8.12564,-1.164511 -5.13943,-1.785752 -6.74894,-1.823085 -16.32996,-0.378963 -9.52058,1.435021 -14.15439,1.08458 -19.56792,-1.479814 -2.84197,-1.346253 -3.8568,-2.18784 -6.09566,-5.054998 -1.92399,-2.463959 -3.88588,-4.376923 -5.18493,-5.055632 -1.42677,-0.745411 -3.84477,-0.642964 -5.32702,0.22569 -4.44108,2.602653 -7.49577,10.154206 -8.04725,19.893678 -0.17168,3.032575 0.17175,6.708908 0.79489,8.508842 0.54743,1.581177 1.36094,2.005489 4.53012,2.362756 3.99751,0.450665 5.01184,1.310243 5.70524,4.834731 0.4327,2.199349 0.17555,6.906314 -0.53555,9.802655 -0.71151,2.898193 -2.1872,5.702194 -3.50226,6.6548 -1.28376,0.929958 -3.26866,1.409462 -5.17872,1.251056 -4.9989,-0.414549 -9.22311,3.190611 -11.40441,9.733069 -1.46929,4.4068213 -1.64293,6.1189666 -1.89058,18.6387863 -0.15142,7.6553487 -0.36836,12.6168687 -0.64778,14.8166677 -0.87456,6.884935 -2.67065,13.035652 -5.42285,18.570577 -2.99815,6.02959 -5.27648,9.353815 -11.72051,17.101027 -5.0895,6.118728 -7.38233,9.702801 -9.30553,14.546078 -1.95585,4.925511 -2.81316,9.803528 -2.28772,13.016866 0.56057,3.427995 2.72777,6.465386 5.64253,7.908159 1.38536,0.685747 4.10655,0.751258 6.43147,0.154834 z M 346.03709,-136.42068 c 0.94144,-0.47731 2.90597,-1.88754 4.36563,-3.13384 6.20196,-5.29542 12.29516,-8.44036 22.62997,-11.68029 14.55401,-4.56264 16.47915,-5.28913 29.00704,-10.94674 10.42133,-4.7063 13.25533,-5.80766 18.22109,-7.08118 3.51597,-0.90172 10.33005,-0.9012 14.78637,0 2.76654,0.56018 3.36722,0.60233 4.99478,0.35039 4.29842,-0.66532 8.14401,-3.75005 10.35605,-8.30702 1.97872,-4.07628 2.37768,-6.23356 2.36501,-12.78845 -0.006,-3.05594 0,-9.18766 0.0109,-13.62604 0.0587,-21.89869 0.0472,-22.12581 -1.41859,-27.88989 -1.50381,-5.91374 -4.72173,-12.68483 -11.27541,-23.72561 -5.54791,-9.34635 -8.23063,-18.4735 -10.42209,-35.45781 -1.21328,-9.40301 -1.17592,-13.51274 0.16152,-17.7699 0.75886,-2.41548 2.44399,-5.18049 4.03112,-6.61437 4.1103,-3.71339 11.97845,-6.58067 33.50614,-12.21014 6.2411,-1.63204 12.51133,-3.54877 17.5948,-5.3785 2.82651,-1.01738 9.37241,-2.83495 11.64166,-3.2325 4.93176,-0.86399 11.12185,-0.61791 16.35972,0.65038 6.30603,1.52692 9.44251,2.76769 20.41737,8.07694 9.76725,4.72506 11.42974,5.27282 16.00729,5.27414 3.18003,7.9e-4 5.07752,-0.48817 9.07976,-2.34034 9.29611,-4.30207 13.89137,-5.68317 22.14076,-6.65435 2.5644,-0.3019 5.4175,-0.7821 6.34029,-1.06712 7.62037,-2.35369 7.93742,-8.77779 0.9996,-20.2538 -2.97752,-4.92519 -5.39824,-7.99479 -8.56996,-10.8671 -4.90715,-4.44393 -10.68012,-6.39247 -22.58211,-7.62212 -8.83068,-0.91233 -14.91115,-2.86187 -26.9875,-8.65279 -9.92307,-4.75837 -14.49658,-6.42446 -19.79544,-7.21126 -5.40359,-0.80236 -9.44772,-0.42386 -14.07123,1.31694 -3.9197,1.4758 -5.03516,1.72502 -7.81344,1.74571 -2.06478,0.0154 -2.90341,-0.10933 -4.62767,-0.68814 -5.29124,-1.77622 -8.90722,-5.24595 -12.96638,-12.44193 -2.63793,-4.67646 -3.45898,-5.88909 -5.25206,-7.75694 -4.09194,-4.26249 -8.53022,-6.16447 -16.56858,-7.1003 -5.38107,-0.62646 -17.15199,-0.36221 -24.05835,0.54009 -13.7943,1.8022 -21.47711,1.55358 -27.33374,-0.88454 -3.94457,-1.64213 -7.32742,-4.28321 -8.55581,-6.67973 -0.35067,-0.68415 -1.01351,-2.70822 -1.47298,-4.49792 -0.96912,-3.77482 -1.88172,-5.75577 -3.30923,-7.18328 -3.83778,-3.83779 -12.35083,-4.75505 -30.91677,-3.3312 -8.45921,0.64875 -24.94482,2.56469 -31.89876,3.70725 -7.1959,1.18231 -10.88128,2.43023 -13.88782,4.70256 -2.05996,1.55693 -2.86213,2.9065 -2.98005,5.01364 -0.12481,2.22998 0.32673,3.47579 2.66835,7.36222 2.18924,3.63349 2.85147,5.3078 3.02241,7.64148 0.16164,2.20669 -0.16031,3.7204 -2.16654,10.18646 -1.92847,6.21543 -2.34122,8.54223 -2.32323,13.09688 0.0251,6.36937 1.45619,10.37922 6.32643,17.72708 3.46326,5.22508 3.92091,6.0412 4.71612,8.4101 1.56459,4.66078 0.46754,9.47496 -3.32894,14.60866 -0.75329,1.01864 -3.58084,3.9952 -6.28343,6.61458 -9.4806,9.18871 -13.66242,13.50339 -15.05635,15.5347 -2.66179,3.87888 -4.01265,7.60331 -4.02339,11.09284 -0.0148,4.81369 2.35665,11.13153 6.88851,18.35163 5.93037,9.44821 6.18829,12.75987 1.66719,21.4067 -6.44871,12.33342 -6.7745,13.27033 -6.77084,19.47143 0.003,3.91102 0.24436,6.32856 2.18561,21.82812 0.29144,2.32694 0.9257,9.04095 1.18727,12.56771 0.32245,4.34819 1.2115,13.12466 1.58914,15.68797 0.44561,3.02461 1.62065,6.70875 2.92346,9.16599 2.11061,3.98087 4.32988,6.61241 12.9558,15.36271 4.6622,4.72943 9.07775,9.31334 9.81231,10.18646 3.86162,4.59007 6.98336,9.53424 10.95095,17.34392 3.88403,7.64516 5.43851,9.63483 8.38568,10.73324 1.68968,0.62977 4.39719,0.34092 6.42056,-0.68492 z M 105.86242,-287.09803 c 1.02097,-0.21636 2.93119,-0.96893 4.48405,-1.76658 2.2871,-1.17481 3.1512,-1.8204 5.58935,-4.17596 3.14118,-3.03477 5.15564,-5.45022 9.61648,-11.53069 1.60138,-2.18282 4.36311,-5.93329 6.13716,-8.33438 4.93648,-6.68128 6.65779,-10.43908 6.65779,-14.53467 0,-3.32369 -1.10021,-4.62648 -4.17883,-4.94826 -2.73567,-0.28593 -6.63567,1.31661 -11.26768,4.62999 -4.85454,3.47255 -10.44642,10.7678 -15.03544,19.61544 -1.24538,2.40109 -3.08685,5.85391 -4.09215,7.67292 -2.52712,4.5726 -3.779824,7.85471 -3.786934,9.92187 -0.004,1.24171 0.813734,2.57672 1.980824,3.23281 1.24343,0.699 1.54416,0.71579 3.89538,0.21751 z m 55.92734,-53.7213 c 2.90906,-0.97588 8.85227,-4.07663 12.16891,-6.34888 6.61273,-4.53041 11.32287,-9.63249 14.23214,-15.41643 2.01707,-4.01015 3.33272,-9.464 3.33614,-13.82949 0.003,-3.52971 -0.92631,-5.84005 -2.87894,-7.15912 -0.51911,-0.35068 -2.02728,-1.72252 -3.3515,-3.04852 -2.85813,-2.862 -4.09408,-3.43444 -6.92475,-3.20722 -3.16715,0.25423 -7.66232,3.1572 -10.64907,6.87713 -1.57495,1.96159 -3.77348,6.31786 -5.28113,10.46436 -1.40709,3.86989 -4.22754,10.93791 -6.56617,16.45477 -4.18131,9.86377 -4.57624,13.58268 -1.65314,15.56707 0.8486,0.57608 1.11637,0.61689 3.20189,0.48802 1.42841,-0.0883 3.05398,-0.40168 4.36562,-0.84169 z M 562.06397,-456.5963 c -0.21055,-0.34066 -0.87196,-0.63234 -8.45314,-3.72797 -8.7248,-3.56258 -25.40501,-9.55893 -30.32192,-10.90038 -10.88567,-2.96987 -11.46574,-3.09883 -23.91767,-5.31712 -14.66226,-2.61207 -23.75567,-3.49107 -25.34521,-2.44997 -1.45071,0.95016 -0.88445,1.88511 4.54076,7.49752 2.27465,2.35311 4.9096,5.10558 5.85549,6.1166 1.51032,1.61432 2.12265,2.03583 5.02708,3.46059 4.64863,2.28034 8.61306,3.22195 15.74271,3.7391 2.45118,0.1778 4.50967,0.18093 6.08542,0.009 1.30969,-0.14268 4.28625,-0.44269 6.61458,-0.66668 2.32834,-0.224 5.24537,-0.52032 6.4823,-0.65849 1.23692,-0.13818 5.16599,-0.25112 8.73125,-0.251 7.02252,2.5e-4 11.03982,0.35399 16.64076,1.4653 1.8344,0.36398 5.17363,0.89932 7.42047,1.18966 2.24687,0.29034 4.14195,0.58462 4.2113,0.65397 0.25646,0.25646 0.85669,0.11609 0.68582,-0.1604 z"
       style="fill:#a99888;fill-opacity:1;stroke-width:0.26458335" />
    <path
       inkscape:connector-curvature="0"
       id="path832"
       d="m 497.25457,274.61964 c -5.35866,-0.44506 -11.34623,-1.44116 -17.59479,-2.92709 -11.04554,-2.62668 -13.24179,-3.12073 -18.32488,-4.12231 -11.52901,-2.27166 -15.38508,-4.41074 -18.69605,-10.3713 -1.66462,-2.99678 -3.38537,-4.77298 -5.80932,-5.99657 -1.82237,-0.91993 -4.22653,-1.60166 -11.27705,-3.19768 -5.4076,-1.22412 -7.53343,-1.84541 -16.27187,-4.75557 -6.01893,-2.00448 -13.43925,-3.9235 -19.44688,-5.02925 -4.00833,-0.73779 -14.07242,-2.04094 -18.38854,-2.38106 -8.49778,-0.66966 -10.15871,-0.83765 -14.41979,-1.45828 -8.31956,-1.21179 -13.84372,-2.85819 -17.74164,-5.28765 -6.34476,-3.95451 -5.86687,-7.81277 2.34307,-18.91723 5.53696,-7.48906 11.58584,-10.71533 20.02877,-10.68263 6.74368,0.0262 13.24285,1.99959 21.75143,6.60474 10.01662,5.42136 15.33096,6.78577 31.8267,8.17118 6.8216,0.57293 14.839,1.59062 19.31459,2.45171 8.06228,1.55117 14.11248,0.80772 30.3067,-3.72407 10.16812,-2.84546 15.0776,-3.65122 18.94784,-3.1098 2.97053,0.41558 4.68469,1.05508 8.55001,3.18987 1.82283,1.00671 4.2667,2.16111 5.43087,2.56535 2.01747,0.70051 2.34609,0.73503 7.01146,0.73638 5.81022,0.003 6.70597,-0.15671 22.28294,-3.94012 8.45683,-2.05401 9.10373,-2.12302 19.25664,-2.05385 5.48072,0.0373 9.92103,-0.0519 11.11251,-0.22321 6.51219,-0.93644 20.89729,-5.80226 28.83958,-9.75505 5.05058,-2.51365 7.77793,-4.24101 14.0035,-8.86921 10.46311,-7.77838 14.03329,-9.80138 27.97643,-15.85248 10.59154,-4.59656 13.81057,-6.1346 17.67428,-8.44481 8.46111,-5.05913 11.68109,-8.26591 23.57109,-23.47442 6.78728,-8.68162 14.77087,-16.05653 26.8504,-24.80339 8.18901,-5.92969 11.11872,-8.56952 17.39942,-15.67786 4.08162,-4.61947 7.68684,-9.225311 9.25423,-11.822726 1.3589,-2.251974 4.70651,-10.475622 8.48871,-20.853322 4.8021,-13.176092 15.55789,-37.268497 18.44336,-41.312097 4.1474,-5.812077 6.08309,-2.974129 4.06077,5.953575 -1.76067,7.772586 -4.24939,14.310281 -9.63266,25.304355 -3.70943,7.57563 -9.26684,16.446686 -14.22617,22.708607 -6.00077,7.576873 -6.10648,7.772692 -8.87894,16.449782 -2.07105,6.481846 -3.74311,10.586796 -6.28039,15.418326 -2.45559,4.67606 -7.09218,12.36057 -11.05125,18.316 -3.29948,4.96326 -5.20485,8.3629 -5.20485,9.28669 0,0.24095 0.18629,0.59269 0.41396,0.78166 0.34364,0.28519 0.72573,0.24315 2.24933,-0.24757 1.00947,-0.32512 1.95427,-0.51763 2.09958,-0.42784 0.50048,0.3093 0.26246,2.20047 -0.50268,3.99402 -0.90705,2.12627 -2.16128,3.7447 -9.32249,12.02979 -28.17755,32.59974 -64.90278,62.58378 -102.62313,83.78585 -11.80674,6.63641 -14.4861,7.90498 -30.03021,14.21807 -2.61937,1.06384 -5.89359,2.43729 -7.27604,3.05213 -5.36522,2.38612 -7.018,3.05993 -15.21354,6.20231 -9.98242,3.82749 -11.96642,4.49321 -18.17201,6.09751 -10.43787,2.69848 -14.47062,3.1175 -23.103,2.40054 z M 205.15455,210.33538 c -4.91822,-0.94644 -10.57146,-2.91402 -13.56603,-4.72154 -5.0258,-3.03358 -11.27584,-8.77578 -14.94501,-13.73069 -2.74821,-3.7112 -3.42865,-4.87233 -7.42143,-12.66375 -4.54268,-8.86452 -5.77286,-10.64644 -10.88332,-15.76446 -4.39978,-4.40629 -7.05238,-6.65425 -11.12796,-9.43039 -1.30969,-0.89212 -4.05702,-2.94034 -6.10518,-4.5516 -2.04816,-1.61128 -5.14572,-4.02127 -6.88347,-5.35553 -6.67894,-5.12819 -11.50121,-11.00575 -13.22397,-16.11789 -0.62419,-1.85222 -0.68636,-2.34712 -0.5391,-4.29136 0.0916,-1.2087 0.40001,-3.24615 0.68545,-4.52763 0.89597,-4.02238 1.39881,-8.66137 1.23812,-11.42238 -0.25581,-4.39521 -1.06379,-7.53163 -3.60637,-13.999184 -4.08944,-10.402307 -5.20482,-14.471916 -6.23302,-22.742051 -0.94835,-7.627964 -1.59185,-10.222866 -4.10387,-16.548577 -2.03515,-5.124901 -7.73173,-17.508195 -11.075964,-24.077085 -5.69751,-11.191321 -7.69951,-17.662686 -7.69951,-24.8881924 0,-6.18408024 1.48432,-10.4436605 5.15706,-14.7993111 4.00474,-4.7494035 8.294234,-11.0096045 9.916164,-14.4719685 1.67642,-3.578649 2.2441,-6.132989 2.22289,-10.001992 -0.0315,-5.756831 -1.47149,-10.086102 -7.809524,-23.479867 -4.90462,-10.36463 -6.09715,-13.141273 -7.07461,-16.472219 -1.59308,-5.428827 -1.70281,-6.731159 -1.44907,-17.197918 0.34637,-14.287345 0.1999,-17.526745 -1.10659,-24.473965 -0.83686,-4.44994 -1.93156,-8.47995 -4.57783,-16.85269 -2.30442,-7.29112 -3.27908,-11.51466 -3.77366,-16.35252 -0.20035,-1.95985 -0.32389,-9.35148 -0.34712,-20.76979 -0.0378,-18.60169 -0.0508,-18.85948 -1.36159,-27.04052 -0.81644,-5.09567 -1.609,-7.61463 -3.64624,-11.58865 -1.33394,-2.6021 -1.98945,-3.54388 -3.63283,-5.21933 -1.37734,-1.4042 -2.49581,-2.27396 -3.57207,-2.7777 -1.48811,-0.69654 -1.76632,-0.73409 -5.53561,-0.74716 -3.26963,-0.0114 -4.14325,-0.0982 -4.95933,-0.49281 -2.21442,-1.0709 -3.54723,-3.43882 -5.46516,-9.70952 -0.72954,-2.38525 -1.60889,-5.05153 -1.95412,-5.92505 -0.81986,-2.07451 -2.4458,-7.50821 -2.84998,-9.52427 -0.69861,-3.48469 0.37828,-10.80701 2.54605,-17.31197 2.14504,-6.43671 5.91179,-12.98614 9.3152,-16.19673 2.23822,-2.11143 3.82062,-2.92439 5.78103,-2.97002 1.25802,-0.0293 1.51886,0.0544 1.95722,0.62768 0.27818,0.3638 0.64135,1.30578 0.80705,2.09328 0.44762,2.12736 0.37447,8.93756 -0.16905,15.73814 -0.7305,9.14003 -0.11203,12.95758 2.51489,15.52342 2.30014,2.24667 4.99064,2.38337 10.60016,0.5386 4.68125,-1.53949 7.65574,-2.08794 13.80438,-2.54529 10.742154,-0.79903 14.981694,-1.99589 25.307704,-7.1446 5.31342,-2.64935 8.64795,-4.73686 16.08059,-10.06692 6.26082,-4.48972 7.23496,-5.13027 11.74692,-7.72423 5.91355,-3.39974 14.36858,-7.52165 17.73242,-8.64474 5.06414,-1.69077 8.87018,-1.59129 12.1655,0.31797 0.65484,0.37941 3.33375,2.31804 5.95312,4.30809 5.58802,4.24543 12.99743,9.32171 16.07905,11.01594 5.01867,2.75919 10.79451,6.83537 16.72929,11.80637 5.56355,4.66006 9.00895,6.71689 13.15283,7.85198 1.06063,0.29053 4.48826,0.82208 7.61696,1.18123 6.72072,0.77148 10.07407,1.56731 13.34257,3.16651 4.3196,2.11347 7.15451,4.94368 9.29862,9.28321 1.7762,3.5949 2.29972,5.90251 2.31096,10.18646 0.0111,4.23201 -0.41802,6.27994 -2.47957,11.83315 -2.86754,7.72424 -3.1439,8.54972 -3.57555,10.68001 -0.86129,4.25061 -0.19566,9.52471 1.91709,15.18997 1.00686,2.69986 3.86767,8.25444 5.62313,10.91798 1.51035,2.29158 2.52034,3.60386 10.84056,14.08515 8.38586,10.56396 10.35614,14.381 12.30429,23.83739 0.96555,4.68673 1.64132,9.46447 2.39154,16.90844 2.1268,21.102854 1.92466,28.741587 -0.91069,34.416476 -2.05722,4.117447 -7.63088,10.323858 -12.84746,14.306022 -1.45793,1.112917 -4.66997,3.367194 -7.13782,5.009463 -2.46787,1.642269 -5.38001,3.638259 -6.47142,4.435554 -2.58294,1.886903 -6.10102,5.304632 -7.57349,7.357534 -3.92989,5.47894 -4.53769,11.869924 -1.89424,19.917994 0.93188,2.837154 4.27962,9.584162 7.62294,15.363218 2.30924,3.99161 3.8159,7.2128858 4.64067,9.9218753 0.7329,2.4072588 0.68019,7.40171933 -0.10051,9.5250008 -1.22528,3.3323215 -3.40341,5.5408516 -6.26205,6.3494713 -2.02651,0.5732198 -6.31751,1.1268869 -12.30832,1.5881086 -8.99529,0.692521 -13.91419,1.807395 -18.25625,4.137793 -4.78074,2.565823 -7.91862,5.637345 -14.96346,14.646964 -5.7011,7.291123 -9.35285,11.442833 -13.77121,15.656693 -4.71842,4.500007 -6.06454,6.157437 -7.2112,8.878862 -0.62701,1.488096 -0.69802,1.98546 -0.69017,4.833779 0.0124,4.505722 0.0779,4.689766 6.7094,18.861618 4.3642,9.32651 6.32641,14.403786 7.74178,20.032135 0.43913,1.74625 1.80312,6.243059 3.0311,9.992919 3.55789,10.86471 3.97272,13.20083 4.33331,24.40292 0.32497,10.09541 0.77128,12.03274 4.61772,20.04457 2.40706,5.01369 3.14319,7.40415 4.21571,13.6898 0.55945,3.27877 1.25496,6.36575 1.75853,7.80521 1.05608,3.01882 3.29999,7.29742 5.2662,10.04139 6.98846,9.75286 7.8931,15.96107 3.06357,21.02432 -0.91205,0.95621 -2.10538,1.85767 -3.12095,2.35763 -2.2909,1.12778 -7.36585,2.92295 -9.57929,3.38849 -2.6422,0.55568 -11.87307,0.72191 -14.2875,0.25728 z m -13.88343,-381.33497 c 4.17101,-4.32292 8.06115,-8.83118 8.2461,-9.55632 0.10092,-0.39574 0.42901,-2.848 0.72908,-5.44952 0.75041,-6.50584 1.45236,-9.03581 3.31482,-11.94731 1.86811,-2.92034 2.33432,-4.10467 2.4635,-6.25809 0.14665,-2.4447 0.006,-3.09502 -0.90327,-4.1756 -1.14764,-1.36387 -2.59075,-1.9463 -4.86159,-1.96207 -1.61064,-0.0111 -2.27104,0.11896 -3.50643,0.69085 -2.11573,0.97946 -4.24813,3.07465 -5.2953,5.20288 -0.82146,1.66949 -0.85175,1.84446 -0.76001,4.38927 0.2851,7.90784 0.18077,9.87468 -0.72307,13.6307 -1.67232,6.94966 -2.1998,9.905 -2.342,13.12178 -0.16069,3.63498 0.16142,5.31291 0.93905,4.89169 0.24363,-0.13197 1.45824,-1.2922 2.69912,-2.57826 z M 80.932666,113.89435 c -1.09141,-0.40754 -2.8327,-1.16967 -3.86954,-1.6936 -2.24699,-1.13546 -6.22551,-2.30219 -7.85039,-2.30219 -1.58512,0 -2.7391,-0.8812 -5.75532,-4.39478 -2.82322,-3.2888 -4.02009,-4.91371 -6.20496,-8.424151 -0.87313,-1.402847 -2.13376,-3.408495 -2.8014,-4.456986 -4.42108,-6.94309 -7.08092,-11.597138 -11.30422,-19.779564 -6.93576,-13.437659 -18.48279,-42.079706 -19.62112,-48.669525 -0.16339,-0.945886 -0.57932,-3.148542 -0.92429,-4.894792 -0.34496,-1.74625 -0.9367,-5.094579 -1.31496,-7.440719 -0.37826,-2.3461402 -1.229,-6.8705155 -1.89054,-10.0541676 -2.26718,-10.9108619 -2.78405,-14.7859764 -4.21121,-31.5722554 -0.81899,-9.633083 -0.85573,-13.724891 -0.14808,-16.491798 0.69933,-2.73431 1.03921,-3.311657 3.51089,-5.963682 2.39021,-2.564607 3.44247,-4.479185 4.03851,-7.348115 0.20879,-1.00494 0.56127,-5.112809 0.78329,-9.128575 0.44705,-8.085985 0.64557,-9.816704 1.63597,-14.262154 1.11093,-4.986444 2.8857,-8.486988 4.28782,-8.457301 1.88248,0.03987 3.79147,3.339941 5.64187,9.753124 1.73471,6.012233 1.8648,10.889457 0.49187,18.442227 -0.72042,3.963194 -1.57858,7.031514 -3.16539,11.317685 -0.742,2.004272 -1.48106,4.259448 -1.64235,5.0115 -0.87914,4.099269 1.12509,12.309476 4.33494,17.757909 1.29097,2.191279 4.55053,5.656633 7.47702,7.949063 3.92057,3.071124 6.13286,5.764504 8.80652,10.721631 1.60318,2.9723827 2.72536,6.2403046 5.61567,16.3535535 1.44278,5.0483035 3.16027,10.7453385 3.81666,12.6600755 2.37391,6.924993 6.5205,14.960098 9.897,19.17806 2.87478,3.59119 6.12804,6.372119 12.4824,10.670117 8.11543,5.489152 13.96857,11.646324 17.057634,17.943752 2.91838,5.949421 2.68242,9.508941 -1.017204,15.344406 -0.48128,0.759142 -1.33657,2.264595 -1.90063,3.345471 -1.36656,2.618661 -3.27702,4.606661 -6.11253,6.36061 -3.9432,2.439141 -4.93052,3.260302 -5.76631,4.795918 -1.16254,2.135955 -1.19898,4.404223 -0.17084,10.634163 0.88605,5.3689 0.99803,7.04908 0.5028,7.5443 -0.53141,0.53142 -2.61593,0.33258 -4.70958,-0.44921 z m 435.363254,-6.10791 c -3.55211,-0.37602 -7.14327,-1.05137 -12.69135,-2.38675 -2.91041,-0.70051 -6.36323,-1.47055 -7.67291,-1.71119 -5.24561,-0.96377 -8.97547,-2.52934 -18.25626,-7.662812 -12.54484,-6.938937 -15.57305,-8.799566 -21.20826,-13.031074 -8.66793,-6.508777 -13.85035,-14.985552 -12.76458,-20.878696 0.65103,-3.533458 1.67825,-4.813115 10.26583,-12.788663 1.7911,-1.663436 3.83487,-3.78841 4.54176,-4.722178 1.40319,-1.853565 3.03019,-4.965462 4.11149,-7.863814 0.38002,-1.018646 3.28819,-7.209896 6.46258,-13.758334 8.7107,-17.9692053 12.52932,-26.6873326 14.48621,-33.07292 2.12227,-6.925204 2.20673,-7.675748 2.442,-21.695835 0.25617,-15.267491 0.62076,-18.025693 3.88056,-29.356449 2.9704,-10.324836 3.5569,-13.665703 3.02591,-17.235912 -0.48763,-3.278584 -3.11256,-13.576327 -4.64704,-18.23056 -1.80689,-5.480583 -3.01881,-8.300983 -6.48025,-15.081253 -3.50475,-6.86512 -4.25056,-8.9344 -4.43831,-12.31432 -0.11287,-2.03239 -0.0308,-2.96111 0.4209,-4.7625 0.60849,-2.42665 2.54482,-6.66797 4.42923,-9.70169 2.75556,-4.43621 4.23423,-8.81544 4.85016,-14.3642 0.15346,-1.38245 0.4591,-5.25198 0.67924,-8.59896 1.30757,-19.88114 3.88556,-28.21842 13.5097,-43.69062 4.10049,-6.5921 5.15324,-8.74178 6.18022,-12.61976 1.4482,-5.46859 1.60552,-12.9926 0.46053,-22.02794 -0.84309,-6.65309 -0.89064,-9.07312 -0.2078,-10.57645 0.66032,-1.45375 2.47954,-2.95 4.25638,-3.50074 2.41138,-0.74742 9.43628,-0.58689 18.26334,0.41734 9.94016,1.13086 13.76688,1.37372 22.09271,1.40209 9.8161,0.0334 11.81219,-0.36061 21.56354,-4.25705 6.35762,-2.54038 8.83653,-3.29026 12.20685,-3.69267 4.09061,-0.48842 8.44775,0.28594 14.52245,2.58096 4.7821,1.80667 14.58608,6.11014 16.79467,7.37203 7.88749,4.50659 17.46514,14.24395 20.25711,20.59489 0.91617,2.08399 0.99107,4.86172 0.19304,7.15648 -0.98981,2.84617 -3.05372,5.82258 -5.99549,8.64616 -3.96229,3.80312 -7.34473,5.86962 -14.86675,9.0829 -8.58539,3.66753 -9.07699,4.1293 -16.52006,15.5179 -6.42551,9.83165 -12.46539,13.43927 -22.50014,13.43927 -1.6405,0 -5.22655,-0.19161 -7.96899,-0.42577 -6.16373,-0.52633 -10.99844,-0.37623 -13.84411,0.42982 -2.4429,0.69199 -6.94838,2.82911 -9.33482,4.42788 -3.25802,2.18268 -4.71641,4.32009 -4.7289,6.93071 -0.0135,2.82837 1.38034,4.61404 6.67351,8.54948 3.41538,2.53931 3.41969,2.54278 10.05713,8.13176 8.2903,6.98077 10.90851,9.91227 12.12657,13.57762 0.84153,2.53236 1.11525,5.40639 0.79145,8.31027 -0.68993,6.18747 -2.55222,10.87269 -9.12654,22.96094 -4.2091,7.739307 -5.65563,11.795105 -5.66571,15.885564 -0.007,2.754154 0.52179,4.359249 3.28753,9.982703 4.34988,8.844493 5.30431,12.396339 5.27749,19.640076 -0.0164,4.444603 -0.10078,5.239359 -1.2632,11.90625 -1.49202,8.55697 -1.75406,12.317758 -1.11342,15.979856 0.82886,4.738106 2.05644,7.009475 8.3802,15.505564 5.55955,7.4694257 8.05172,11.3765281 13.97749,21.9134014 3.87955,6.8984286 5.61943,10.4036026 6.52433,13.1438926 0.66789,2.02266 0.74374,2.621677 0.75364,5.953125 0.013,4.386448 -0.32041,5.859093 -2.21657,9.789584 -2.35702,4.885691 -5.21933,7.51684 -14.74301,13.552409 -9.7618,6.186462 -15.30133,12.361679 -20.04902,22.349806 -0.79279,1.667854 -2.38929,5.356887 -3.54774,8.197851 -3.95357,9.695445 -5.59597,12.389803 -10.33563,16.955612 -6.17951,5.952836 -10.01763,8.236746 -15.85807,9.436446 -1.96916,0.40449 -7.14965,0.55853 -9.70082,0.28847 z M 780.92957,-95.017384 c -0.46908,-0.46908 -0.65788,-1.312942 -2.03623,-9.100746 -1.61504,-9.12497 -2.5931,-13.82408 -3.56431,-17.1246 -1.1127,-3.78142 -3.98163,-10.99195 -4.66558,-11.72609 -0.70297,-0.75454 -1.25788,-0.42051 -2.61067,1.57157 -0.58976,0.86847 -1.6936,2.03337 -2.45296,2.58871 -1.57911,1.1548 -5.30693,3.4925 -5.56934,3.4925 -0.0966,0 -2.09955,0.84516 -4.45109,1.87812 -2.81413,1.23616 -5.45962,2.179 -7.73975,2.75836 -5.25272,1.33466 -7.11594,2.12897 -11.17497,4.76401 -1.18499,0.76927 -3.42117,2.12979 -4.96927,3.02339 -6.834,3.94475 -9.80276,4.94588 -13.96294,4.70868 -2.02424,-0.11541 -2.6367,-0.27088 -4.29374,-1.08981 -2.38291,-1.17772 -5.14458,-3.68155 -6.96478,-6.31455 -2.92629,-4.23307 -4.7688,-8.86026 -7.73838,-19.43412 -6.74775,-24.02685 -7.81769,-27.49839 -10.74388,-34.85995 -1.66129,-4.17935 -4.8137,-10.46035 -7.04633,-14.03934 -2.50471,-4.01516 -5.70225,-7.6893 -11.85855,-13.62605 -3.2444,-3.1287 -6.96677,-6.93121 -8.27193,-8.45 -4.95226,-5.76294 -9.0242,-11.74329 -10.83879,-15.91868 -0.80021,-1.84129 -0.84968,-2.13781 -0.83402,-5.00007 0.0151,-2.76011 0.0976,-3.26387 0.88826,-5.42396 0.47937,-1.30969 2.93018,-6.6675 5.44624,-11.90625 4.69029,-9.76583 5.09082,-10.73725 5.83615,-14.15521 0.23799,-1.0914 1.06598,-4.18822 1.83996,-6.8818 1.85291,-6.44837 2.53694,-10.00182 2.69886,-14.02028 0.30099,-7.4703 -1.52395,-12.72502 -8.00873,-23.06019 -5.5659,-8.87071 -6.99759,-11.94497 -6.99759,-15.02582 0,-2.94715 1.42658,-4.25406 4.62608,-4.23804 2.09719,0.0105 3.09443,0.21069 9.79371,1.96598 4.74001,1.24194 4.77687,1.24701 7.80521,1.07243 4.32895,-0.24955 6.77296,-0.59122 7.83543,-1.0954 2.01559,-0.95646 2.45652,-3.69126 1.3019,-8.0749 -0.78517,-2.98093 -1.08709,-3.78356 -4.16605,-11.07532 -4.32358,-10.23935 -7.35774,-17.02355 -8.70884,-19.47254 -1.83028,-3.3175 -4.23637,-6.44039 -7.01331,-9.10263 -2.30666,-2.21143 -3.40315,-3.11483 -13.98767,-11.52451 -11.88218,-9.44071 -24.70537,-23.76213 -23.80798,-26.58962 0.38619,-1.21675 1.59507,-1.19901 4.89027,0.0718 3.13113,1.20752 12.773,6.37882 14.15521,7.592 0.54776,0.48078 6.20135,4.45788 11.50937,8.09645 4.95171,3.39431 12.90596,9.46392 15.67392,11.9602 6.12714,5.52578 16.17967,15.2267 18.96584,18.3025 8.04862,8.88527 14.89141,17.75798 23.69225,30.72056 1.729,2.54661 4.43127,6.41615 6.00501,8.59896 2.42572,3.36455 7.1497,10.23482 12.82583,18.65312 3.09907,4.59626 10.09799,15.49802 11.08599,17.26795 5.24177,9.39004 8.46104,15.65964 11.44389,22.28727 5.11924,11.37447 5.73699,12.91547 9.46569,23.61194 1.48809,4.26887 2.56061,8.11782 4.46047,16.0073 3.9682,16.47862 5.42314,23.74638 6.76704,33.80264 0.43757,3.27422 1.02878,7.62 1.31384,9.65729 0.28506,2.03729 0.64739,5.13292 0.80518,6.87917 0.15777,1.74625 0.56949,6.09203 0.91491,9.65729 0.34538,3.56526 0.70429,7.79198 0.7975,9.39271 0.2327,3.99502 0.81473,8.0894 1.73011,12.17083 0.84754,3.77878 1.30011,7.04125 2.10611,15.18243 1.08741,10.98325 0.43937,27.030577 -1.22197,30.259764 -0.43498,0.845449 -0.46088,0.854287 -0.98058,0.334592 z M 29.485566,-238.79906 c -0.32677,-0.52872 1.02232,-5.41602 2.6357,-9.54824 2.40037,-6.1479 8.62159,-19.14268 10.60849,-22.15886 2.26754,-3.44218 2.50577,-2.16985 0.74677,3.98823 -1.2041,4.21541 -1.68966,5.40653 -5.29259,12.98322 -4.36454,9.1783 -6.21159,12.74663 -7.212,13.93289 -0.89454,1.06073 -1.21873,1.23582 -1.48637,0.80276 z M 224.4082,-301.52637 c -4.34648,-0.92189 -7.18411,-4.1488 -7.41494,-8.43216 -0.13863,-2.57234 0.47521,-4.61356 2.13309,-7.09329 4.4621,-6.67406 12.48351,-10.95679 18.48381,-9.86873 2.93116,0.53152 4.53022,1.76498 5.8056,4.47823 2.06763,4.3987 -3.3063,15.14965 -9.42162,18.84865 -3.01032,1.82087 -6.84688,2.64826 -9.58594,2.0673 z m -159.615124,-8.94482 c 0,-0.41966 4.60953,-7.9158 6.37792,-10.37195 4.99915,-6.94338 9.81556,-13.24621 10.81018,-14.14632 2.29076,-2.07311 -3.62814,7.0247 -10.59471,16.28488 -0.81202,1.07937 -2.00264,2.69912 -2.64583,3.59945 -0.64319,0.90034 -1.68551,2.35885 -2.31627,3.24115 -1.03982,1.45449 -1.63129,1.95948 -1.63129,1.39279 z M 592.1077,-397.44691 c -5.80898,-0.91051 -16.78527,-3.86161 -27.51666,-7.39817 -3.71079,-1.2229 -8.29469,-2.65393 -10.18646,-3.18006 -4.25016,-1.18203 -7.16114,-2.32764 -11.78156,-4.63661 -4.97308,-2.48519 -8.13591,-4.66263 -11.11792,-7.65407 -3.15077,-3.16071 -3.83514,-4.43227 -3.77381,-7.01178 0.066,-2.77618 0.57621,-5.00157 1.50048,-6.54493 0.663,-1.10706 1.14851,-1.54992 2.39993,-2.18911 1.43333,-0.73211 1.78745,-0.79994 4.10104,-0.78555 4.51808,0.0281 7.57204,1.1642 22.11142,8.22569 23.84306,11.5801 30.01693,15.01607 36.16638,20.12786 2.35193,1.95507 4.64095,4.47819 5.4075,5.96057 0.23624,0.45686 0.44426,1.45224 0.46222,2.21197 0.0418,1.76711 -0.65794,2.5977 -2.52587,2.9983 -1.60242,0.34365 -2.37971,0.32527 -5.24669,-0.12411 z m 59.63842,-2.30822 -0.50404,-0.59531 0.59532,0.50403 c 0.55943,0.47366 0.71575,0.6866 0.50403,0.6866 -0.0502,0 -0.31811,-0.26789 -0.59531,-0.59532 z m -344.99156,-51.52384 c -5.17695,-0.48152 -8.66233,-1.54309 -10.56497,-3.21788 -1.49117,-1.31257 -2.04629,-2.32483 -2.06815,-3.7712 -0.0475,-3.14458 2.94056,-5.84219 9.65888,-8.71985 3.31036,-1.41792 8.5293,-2.84853 16.99917,-4.65978 7.16256,-1.53169 11.72887,-2.62588 20.5032,-4.91299 19.75699,-5.14985 28.45811,-6.82709 41.14271,-7.93071 7.98163,-0.69444 12.47545,-1.52662 21.56354,-3.9932 1.92207,-0.52166 3.39789,-0.71609 6.27174,-0.82624 l 3.75822,-0.14406 0.6074,0.74678 c 2.8235,3.47129 5.41729,4.6508 15.68868,7.13443 7.32687,1.77164 13.12802,4.03325 15.65331,6.10256 1.41695,1.16107 1.62552,1.8653 0.90332,3.04994 -0.30105,0.4938 -0.5478,1.23389 -0.54835,1.64466 0,0.41077 0.75681,2.31577 1.68298,4.23334 2.2279,4.61255 2.65121,5.95206 2.47949,7.84582 -0.0752,0.82939 -0.33493,1.89126 -0.57718,2.35971 -0.57277,1.10759 -2.4742,2.29828 -4.34692,2.72208 -2.17887,0.49308 -7.99389,0.36332 -12.60081,-0.28118 -14.01755,-1.96105 -25.15085,-2.11509 -39.02605,-0.53997 -9.49894,1.07832 -11.92662,1.30478 -18.12396,1.69065 -8.31582,0.51777 -13.58865,0.88287 -17.33021,1.19998 -3.98364,0.33764 -13.05875,0.33129 -23.51386,-0.0164 -6.07182,-0.20193 -9.54691,-0.19823 -12.4913,0.0133 -5.69323,0.40906 -12.89688,0.53288 -15.72088,0.27022 z m 155.90574,-36.69149 c 0.1819,-0.0734 0.47956,-0.0734 0.66146,0 0.1819,0.0734 0.0331,0.13345 -0.33073,0.13345 -0.3638,0 -0.51263,-0.0601 -0.33073,-0.13345 z m -1.5875,-0.26459 c 0.1819,-0.0734 0.47956,-0.0734 0.66146,0 0.1819,0.0734 0.0331,0.13345 -0.33073,0.13345 -0.3638,0 -0.51263,-0.06 -0.33073,-0.13345 z m -1.5875,-0.26458 c 0.1819,-0.0734 0.47956,-0.0734 0.66146,0 0.1819,0.0734 0.0331,0.13345 -0.33073,0.13345 -0.3638,0 -0.51263,-0.0601 -0.33073,-0.13345 z m -3.90261,-0.48223 c -1.0914,-0.18061 -4.18078,-0.60473 -6.8653,-0.94251 -2.68451,-0.33777 -4.74255,-0.66027 -4.5734,-0.71665 0.65492,-0.2183 14.23657,1.58671 14.5887,1.93885 0.18032,0.1803 -1.00758,0.0748 -3.15,-0.27969 z m -13.03073,-1.89902 c 0.18191,-0.0734 0.47956,-0.0734 0.66146,0 0.1819,0.0734 0.0331,0.13345 -0.33073,0.13345 -0.3638,0 -0.51263,-0.06 -0.33073,-0.13345 z"
       style="fill:#a08b77;fill-opacity:1;stroke-width:0.26458335" />
    <path
       style="fill:#000000;fill-opacity:0.313725;stroke-width:0.264583"
       d="m 396.40594,294.47086 c 31.22009,0.0282 62.275,-3.63387 92.53595,-10.89287 50.36026,-12.25636 98.65184,-34.5815 140.33201,-64.84824 0.32005,-0.23352 0.64136,-0.46524 0.96067,-0.6997 0.30559,-0.22336 0.61031,-0.44758 0.91518,-0.67179 54.53338,-40.28368 98.23149,-94.28986 126.17318,-157.114443 34.28552,-77.088155 42.88527,-164.327257 24.32255,-246.742557 -18.47693,-82.03433 -62.55044,-155.53854 -125.49777,-210.47967 -0.10379,-0.0901 -0.20669,-0.18129 -0.31057,-0.2713 -39.92429,-34.58649 -86.36506,-60.89941 -137.12652,-77.55959 -17.55011,-5.76003 -36.04451,-10.36243 -54.71965,-13.68186 -17.5733,-3.03411 -38.11045,-5.12091 -55.06071,-5.5888 -7.16077,-0.19775 -10.22178,-0.26956 -14.06375,-0.22272 79.49698,15.3163 151.85394,62.97083 204.28313,134.61864 52.96332,72.37775 82.11723,164.48601 82.21876,259.762441 -0.038,95.0261878 -28.97836,186.935983 -81.64205,259.283909 -52.12033,71.60148 -124.11215,119.41318 -203.32041,135.10855 z"
       id="path841"
       inkscape:transform-center-x="-196.16095"
       inkscape:transform-center-y="-0.024423635" />
  </g>
</svg>
