<?xml version="1.0" encoding="UTF-8" standalone="no"?>
<!-- Created with Inkscape (http://www.inkscape.org/) -->

<svg
   width="3000"
   height="3000"
   viewBox="0 0 793.74998 793.75002"
   version="1.1"
   id="svg8"
   inkscape:version="1.3 (0e150ed6c4, 2023-07-21)"
   sodipodi:docname="Haumea.svg"
   inkscape:export-filename="G:\Pictures\My Pictures\Vectors and SVGs\Space\Haumea.png"
   inkscape:export-xdpi="96"
   inkscape:export-ydpi="96"
   xmlns:inkscape="http://www.inkscape.org/namespaces/inkscape"
   xmlns:sodipodi="http://sodipodi.sourceforge.net/DTD/sodipodi-0.dtd"
   xmlns="http://www.w3.org/2000/svg"
   xmlns:svg="http://www.w3.org/2000/svg"
   xmlns:rdf="http://www.w3.org/1999/02/22-rdf-syntax-ns#"
   xmlns:cc="http://creativecommons.org/ns#"
   xmlns:dc="http://purl.org/dc/elements/1.1/">
  <defs
     id="defs2" />
  <sodipodi:namedview
     id="base"
     pagecolor="#000720"
     bordercolor="#666666"
     borderopacity="1.0"
     inkscape:pageopacity="0"
     inkscape:pageshadow="2"
     inkscape:zoom="0.1767767"
     inkscape:cx="1292.5912"
     inkscape:cy="1756.4532"
     inkscape:document-units="mm"
     inkscape:current-layer="layer1"
     showgrid="false"
     inkscape:pagecheckerboard="false"
     inkscape:showpageshadow="false"
     borderlayer="true"
     units="px"
     inkscape:snap-object-midpoints="true"
     inkscape:window-width="1600"
     inkscape:window-height="837"
     inkscape:window-x="-8"
     inkscape:window-y="-8"
     inkscape:window-maximized="1"
     inkscape:snap-page="true"
     inkscape:snap-global="false"
     inkscape:deskcolor="#505050" />
  <metadata
     id="metadata5">
    <rdf:RDF>
      <cc:Work
         rdf:about="">
        <dc:format>image/svg+xml</dc:format>
        <dc:type
           rdf:resource="http://purl.org/dc/dcmitype/StillImage" />
      </cc:Work>
    </rdf:RDF>
  </metadata>
  <g
     inkscape:label="Layer 1"
     inkscape:groupmode="layer"
     id="layer1"
     transform="translate(0,496.75002)">
    <path
       inkscape:connector-curvature="0"
       id="path836"
       d="M 368.42379,99.778724 C 216.31363,94.176569 84.05746,44.332138 29.3391,-28.014787 -8.1097698,-77.528542 -5.3943498,-132.28933 36.92225,-180.94115 c 12.75775,-14.66773 29.89133,-29.19238 49.45571,-41.92513 64.52258,-41.99213 159.40394,-69.27046 263.12812,-75.64918 30.77007,-1.89226 65.6286,-1.84985 96.30834,0.11718 124.18012,7.96179 233.10289,45.18133 294.33583,100.57626 38.09505,34.46304 55.30522,73.94874 49.35405,113.234289 -4.44796,29.3624 -21.67998,58.019579 -50.26697,83.59491826 C 697.76718,36.108491 633.34362,65.808235 557.07171,82.986917 c -42.5827,9.590881 -85.49,14.999784 -133.33474,16.808212 -12.86756,0.486361 -41.89587,0.477761 -55.31318,-0.01641 z"
       style="fill:#726f6b;fill-opacity:1;stroke-width:0.26458332" />
    <path
       inkscape:connector-curvature="0"
       id="path834"
       d="M 348.44775,98.189293 C 343.28176,97.850864 336.3166,97.330561 332.96962,97.03309 329.62265,96.735593 324.68155,96.309243 321.98942,96.085644 292.35997,93.624595 251.2204,86.502488 219.46337,78.336256 178.62216,67.83407 143.12876,54.344686 110.98421,37.108352 94.67929,28.365434 75.92811,16.161528 66.29781,8.0249281 64.53606,6.5364352 62.14213,4.5591775 60.97796,3.6310192 43.52659,-10.282307 27.7183,-28.757023 17.88988,-46.724877 13.04923,-55.574317 9.0110602,-65.820756 6.7103202,-75.091888 c -3.12823,-12.605597 -3.8852,-26.807002 -2.09426,-39.290622 0.71502,-4.98407 2.79904,-14.03472 3.83816,-16.66875 0.31575,-0.80037 1.08632,-2.94349 1.7123798,-4.7625 3.83997,-11.15693 11.28286,-24.53005 19.97148,-35.88404 l 3.61925,-4.7295 0.99769,0.0607 c 1.22424,0.0745 2.32797,-0.46985 5.07222,-2.50148 5.03091,-3.72448 6.41607,-4.4932 7.27135,-4.03547 1.45309,0.77766 1.11942,2.71941 -1.09154,6.35214 -5.28891,8.68992 -6.66667,11.39359 -7.2813,14.28864 -0.48932,2.30476 -0.37436,4.25103 0.4214,7.13443 0.30121,1.09141 0.85602,3.47266 1.23292,5.29167 0.97999,4.72964 1.41115,5.43404 4.98747,8.14835 2.44911,1.85877 4.19206,3.89868 7.28009,8.5204 1.21539,1.81901 3.54324,4.97417 5.17301,7.01146 2.22921,2.78662 3.3383,4.45786 4.47742,6.74687 1.68212,3.38016 5.52508,9.8719 6.99608,11.81817 1.30158,1.72212 4.1579,4.07019 6.30628,5.18414 3.40297,1.76448 6.83486,2.571277 10.9527,2.574849 5.52929,0.0048 9.86977,-1.718129 13.54736,-5.377599 2.90917,-2.89486 5.29767,-6.2402 11.05755,-15.48728 1.18632,-1.90458 3.5281,-3.69335 9.32814,-7.12537 7.43652,-4.40033 10.05631,-7.36028 9.58136,-10.82537 -0.5172,-3.77341 -4.83824,-8.67637 -11.12513,-12.6234 -2.94049,-1.84611 -5.07436,-2.71897 -10.6889,-4.37235 -7.06898,-2.08169 -10.08416,-3.85889 -12.05141,-7.1034 -0.50683,-0.8359 -1.06694,-2.24711 -1.2554,-3.16304 -0.31232,-1.51786 -0.29169,-1.81896 0.25099,-3.66353 0.64655,-2.19763 1.68501,-3.86987 5.5033,-8.86211 1.73837,-2.27282 3.51033,-4.12895 6.84365,-7.16865 8.86465,-8.08381 10.2332,-10.24593 8.5586,-13.52132 -0.66012,-1.29114 -1.2749,-3.44262 -1.27942,-4.47746 -0.002,-0.39473 0.25329,-1.40306 0.56671,-2.24076 0.72804,-1.94585 2.40602,-3.63717 5.93209,-5.97934 5.79602,-3.84993 12.28595,-6.14095 21.54389,-7.60521 4.11702,-0.65114 9.25716,-1.92114 17.09774,-4.22434 10.27411,-3.01807 14.51853,-4.51149 24.77182,-8.71608 7.8657,-3.2255 10.89516,-4.24051 15.33143,-5.13675 6.32083,-1.27696 11.59278,-3.49124 19.68269,-8.26696 6.12975,-3.61857 8.40907,-4.7173 13.17028,-6.34861 8.71084,-2.98455 16.90545,-4.34157 26.22879,-4.34347 8.65543,-0.002 14.31154,-0.53378 26.59225,-2.5013 9.44742,-1.5136 14.21582,-2.17848 18.10856,-2.52496 4.44672,-0.39578 13.4548,-0.34492 20.91748,0.11811 17.18308,1.06615 29.26683,1.14345 40.48125,0.25895 6.30299,-0.49712 13.2906,-1.49013 16.6768,-2.36994 3.34441,-0.86895 7.18695,-2.70273 8.28579,-3.95424 1.02876,-1.17169 1.11766,-2.44121 0.23897,-3.41225 -1.1708,-1.29389 -4.95972,-2.9995 -10.38489,-4.67484 -9.2818,-2.86631 -10.15656,-3.63807 -7.94121,-7.00608 0.78587,-1.19474 1.18737,-2.07691 1.13811,-2.50073 -0.19643,-1.69076 -4.88471,-2.89067 -17.53857,-4.48879 -7.45701,-0.94178 -13.99312,-1.34227 -22.225,-1.3618 -10.62347,-0.0252 -19.12646,0.5446 -33.86666,2.26946 -5.871,0.68701 -12.26736,1.32267 -16.0073,1.59078 -15.25164,1.09337 -24.27464,2.27763 -44.3177,5.81667 -4.49106,0.79299 -10.2596,1.67576 -13.89063,2.12572 -4.13197,0.51202 15.29219,-3.98286 28.52392,-6.60064 16.65683,-3.2954 25.45857,-4.81157 38.41566,-6.61742 24.62864,-3.43253 49.47587,-5.6118 75.67084,-6.63684 9.99585,-0.39115 40.90733,-0.56651 46.64016,-0.2646 1.48755,0.0783 6.51463,0.26589 11.1713,0.41676 28.9701,0.93864 65.48426,4.55486 93.6625,9.27596 34.67891,5.81026 74.21282,15.85109 101.4677,25.7708 2.69214,0.97983 5.2283,1.89961 5.63589,2.04395 1.43113,0.50679 0.53594,0.44334 -1.15165,-0.0816 -2.1036,-0.65438 -6.09843,-1.83706 -13.34778,-3.95162 -14.78481,-4.31258 -21.33184,-5.91885 -37.28154,-9.14674 -6.32256,-1.27955 -7.6967,-1.47859 -7.2713,-1.0532 0.0647,0.0647 2.73367,0.89107 5.93106,1.83639 8.82591,2.60939 17.14148,5.62637 21.42386,7.77281 2.88447,1.44577 4.57666,2.71895 7.01146,5.27535 3.18561,3.34469 5.70193,4.95546 10.98021,7.0287 2.39498,0.94071 12.27503,4.02019 15.47813,4.82432 7.43656,1.86694 17.67091,5.19241 27.25208,8.8551 6.24869,2.38875 14.16238,4.765 17.69367,5.3129 1.6856,0.26153 2.10182,0.24106 3.137,-0.15428 1.63812,-0.62559 3.34651,-0.5293 7.16505,0.40385 1.79144,0.43779 3.50978,0.79597 3.81852,0.79597 0.55306,0 9.96352,5.38311 14.09097,8.06053 3.22138,2.08968 7.30197,5.43859 11.11353,9.12082 3.08549,2.98077 5.24817,4.93091 10.5347,9.49934 0.89932,0.77713 3.36151,2.79344 5.47156,4.48069 6.31997,5.05354 8.60864,7.07208 14.15886,12.48751 7.47988,7.29824 10.86085,10.25801 12.37578,10.834 1.29437,0.4921 3.53015,2.11029 4.82857,3.49475 2.33008,2.48449 6.64125,8.25373 10.00222,13.38509 12.19238,18.61465 18.58526,37.1851 20.01843,58.15081 1.21089,17.713962 -4.07326,39.212336 -14.19106,57.735763 -2.21564,4.05638 -5.69539,9.685628 -6.50716,10.526739 -0.14044,0.145521 0.65596,-1.534293 1.76977,-3.732927 1.54456,-3.048953 2.06097,-4.344961 2.17623,-5.461688 0.1398,-1.35472 0.10107,-1.496933 -0.51843,-1.902857 -0.86407,-0.566155 -4.26574,-0.325146 -6.01321,0.426032 -1.70349,0.732314 -5.74389,4.98983 -9.46679,9.975586 -8.86328,11.869763 -12.88508,16.038089 -20.48037,21.226541 -4.56985,3.121713 -8.25396,6.1240987 -13.52356,11.02106 -2.50315,2.3261108 -5.14647,4.73821119 -5.87407,5.36022014 -1.86256,1.59226256 -3.99074,4.10252336 -4.68911,5.53100876 -0.78203,1.599618 -0.78425,3.1959815 -0.006,4.1704421 1.50514,1.884125 1.47476,1.769322 0.85149,3.218127 -0.78709,1.829594 -0.65244,2.271924 0.72199,2.372016 0.64236,0.04675 1.44613,-0.09459 1.91415,-0.336603 1.03117,-0.533241 2.13334,-0.953187 2.13334,-0.812852 0,0.258497 -5.89314,4.361788 -11.50937,8.013779 -27.02878,17.575742 -59.27538,32.559889 -96.44063,44.813511 -9.46976,3.122216 -8.92768,2.953808 -19.44688,6.041602 -31.56034,9.264147 -70.58972,16.878167 -108.47916,21.162539 -14.19487,1.605121 -21.56899,2.215674 -24.47396,2.026364 -1.38245,-0.09009 -5.54964,-0.340228 -9.26042,-0.555863 -9.38059,-0.545121 -12.24092,-0.854075 -14.68437,-1.586071 -1.16417,-0.348774 -5.27182,-1.589167 -9.12813,-2.756429 -16.33058,-4.943131 -21.09478,-5.380435 -34.79271,-3.19368 -8.49685,1.356439 -12.56297,1.827662 -20.5052,2.376302 -12.16478,0.840343 -16.43055,1.472803 -16.6215,2.464303 -0.12007,0.623438 0.93112,1.027086 5.67494,2.179241 4.20055,1.02018 5.18459,1.442085 5.62666,2.412365 l 0.28146,0.617722 -3.36775,-0.03352 c -1.85226,-0.01852 -7.59449,-0.31041 -12.76048,-0.648838 z M 335.69449,81.039821 c 0.46585,-0.240903 0.84701,-0.61923 0.84701,-0.840713 0,-1.051057 -3.61556,-3.127481 -5.95313,-3.418893 -2.5496,-0.31787 -7.04643,0.812324 -7.45357,1.873276 -0.6408,1.669892 3.69527,3.087 8.92167,2.915762 1.92955,-0.06321 3.05244,-0.226616 3.63802,-0.529432 z m 8.61933,-9.79752 c 3.63461,-0.575205 5.81742,-1.857957 4.94678,-2.907004 -1.76942,-2.132039 -17.74417,-1.707039 -19.98284,0.531654 -0.59198,0.591952 -0.51869,0.789702 0.53361,1.440048 2.35035,1.452615 3.11137,1.598639 7.65617,1.469284 2.32834,-0.06625 5.40917,-0.306573 6.84628,-0.533982 z M 138.38172,27.295062 c 1.63062,-0.843227 0.64902,-2.215012 -4.1997,-5.86912 -5.38305,-4.056803 -8.31722,-6.45496 -10.5893,-8.654838 -5.81966,-5.6347261 -7.38774,-9.3277802 -5.097,-12.00414652 0.46218,-0.53996167 1.19348,-1.69613792 1.62513,-2.56926288 0.67453,-1.3644298 0.78484,-1.8884106 0.78502,-3.7288787 5.3e-4,-4.7333959 -2.2648,-8.6425079 -10.72632,-18.5101439 -5.73176,-6.684248 -7.092,-8.726329 -9.86012,-14.802644 -3.50045,-7.68387 -6.30642,-10.69287 -11.77638,-12.628536 -2.73529,-0.967951 -7.65567,-1.497065 -10.03778,-1.07942 -3.92222,0.687652 -6.68869,2.405591 -7.99761,4.966414 -0.73365,1.435365 -0.79799,1.778318 -0.79278,4.225793 0.005,2.47941 0.0822,2.864987 1.11184,5.574083 2.24039,5.894678 2.19286,6.364605 -0.99771,9.864301 -2.51253,2.75598 -3.69168,4.891723 -3.69168,6.68655 0,2.390484 1.73026,6.634375 5.22593,12.8178983 0.74039,1.3096875 1.90565,3.7504687 2.58946,5.4239583 0.68381,1.6734896 1.52256,3.59589913 1.86388,4.2720419 1.4606,2.8933246 5.31082,6.8392939 10.69365,10.9596245 5.91405,4.526941 11.53303,7.589864 17.71412,9.655995 3.5128,1.174221 5.02313,1.51384 11.70489,2.632048 2.66449,0.445903 6.69,1.162712 8.94557,1.592924 6.98321,1.331913 8.26384,1.520455 10.53033,1.550194 1.49976,0.01958 2.44343,-0.09914 2.97656,-0.374835 z m 184.85092,-73.553929 c 4.26011,-0.550465 8.70466,-1.661477 15.29313,-3.822911 13.77651,-4.519533 15.18687,-4.714664 36.38031,-5.032852 19.86301,-0.298211 25.58804,-0.684239 39.15447,-2.640065 11.83966,-1.706906 15.16735,-1.949794 21.02475,-1.534636 6.95465,0.492945 11.84936,-0.297762 16.72725,-2.702137 2.42265,-1.19417 2.95005,-1.594591 5.29166,-4.017698 4.04789,-4.188777 4.97721,-5.007372 7.48702,-6.595136 6.87774,-4.350994 17.40268,-5.48431 25.57063,-2.753413 3.62898,1.213326 5.21314,2.282428 8.83381,5.961565 2.85763,2.903829 3.50514,3.42855 4.7625,3.859583 2.12412,0.72816 6.21048,0.594783 16.13958,-0.526706 7.67702,-0.867146 29.21963,-3.072236 33.86667,-3.466597 5.01451,-0.42553 7.35475,-1.097571 14.2875,-4.102841 9.01779,-3.909087 10.551,-4.194652 24.20937,-4.509003 11.38645,-0.26207 13.01679,-0.442939 15.49358,-1.718892 1.61083,-0.829813 2.51534,-1.671029 3.13857,-2.91891 0.80158,-1.605015 0.67704,-3.793305 -0.35304,-6.202997 -1.28085,-2.996407 -1.46603,-3.638577 -1.9889,-6.896841 -0.60425,-3.765603 -1.55572,-6.035336 -3.1982,-7.629286 -2.30148,-2.23353 -6.56405,-3.63276 -10.31388,-3.38569 -4.66249,0.30724 -7.49613,2.4597 -10.99101,8.348875 -2.45141,4.130861 -5.8843,7.258606 -9.63774,8.781045 -4.06095,1.64719 -7.98568,1.68828 -14.16396,0.148325 -2.03729,-0.507788 -4.77573,-1.169458 -6.08542,-1.470342 -3.28774,-0.755385 -7.96115,-3.118459 -11.6318,-5.881555 -1.89939,-1.429782 -5.18707,-4.471938 -9.525,-8.813668 -6.96399,-6.97008 -8.0818,-7.88458 -14.74107,-12.06013 -5.4183,-3.39744 -10.20546,-5.75281 -16.8887,-8.30964 -3.21141,-1.22859 -6.55481,-2.61535 -7.42979,-3.08171 -4.83809,-2.57868 -5.8814,-6.46853 -2.52174,-9.40212 1.30918,-1.14316 3.98317,-2.43197 7.04331,-3.39477 7.66987,-2.41308 11.55414,-4.10368 13.54082,-5.89354 2.0111,-1.81186 2.86581,-4.71106 2.85988,-9.70079 -0.005,-4.5 -0.48477,-6.4507 -3.96108,-16.11735 -1.57165,-4.37031 -0.98067,-6.07844 2.99993,-8.6709 2.73711,-1.78261 6.98624,-3.10833 18.42712,-5.74916 10.76954,-2.48589 13.21826,-2.90753 19.44687,-3.34867 5.87933,-0.4164 7.50321,-0.75375 10.12016,-2.10244 3.32398,-1.71304 4.8288,-3.54327 4.8288,-5.87298 0,-2.49571 -1.38867,-4.67675 -4.46355,-7.01045 -2.70856,-2.05568 -5.91431,-3.4399 -12.0759,-5.21422 -16.54765,-4.76515 -23.72296,-5.99091 -42.72722,-7.29914 -15.85822,-1.09165 -23.56942,-0.80495 -42.46562,1.57884 -3.92906,0.49567 -9.82266,1.20256 -13.09688,1.57089 -7.69707,0.86585 -9.47187,1.12699 -12.03386,1.7707 -4.3811,1.10072 -7.09231,3.01633 -9.64744,6.81638 -1.81481,2.69898 -2.81419,3.60071 -5.57078,5.02645 -3.97137,2.05398 -7.78555,2.94915 -19.87645,4.66489 -8.90191,1.2632 -15.20902,2.41602 -17.86528,3.26536 -4.15409,1.32831 -7.45929,3.18137 -9.42758,5.28563 -1.48886,1.59171 -2.14259,2.85335 -2.85319,5.50624 -0.30495,1.13845 -0.99425,2.8438 -1.5318,3.78968 -0.53753,0.94589 -1.45092,2.77702 -2.02975,4.06916 -1.85116,4.1325 -3.59474,5.47346 -7.80283,6.00112 -4.6151,0.5787 -12.10032,-0.80584 -31.48187,-5.82316 -7.96303,-2.06139 -10.6971,-2.66607 -16.66875,-3.68668 -4.80436,-0.8211 -15.14988,-2.3482 -18.91771,-2.79244 -8.39303,-0.98956 -9.79109,-1.0573 -19.71146,-0.95488 -19.35998,0.1999 -25.9428,0.13402 -32.77128,-0.32795 -8.21932,-0.55605 -11.0407,-0.56647 -14.45684,-0.0535 -4.80749,0.72194 -8.45618,2.29354 -12.20272,5.25608 -3.4768,2.74923 -7.20203,7.61037 -10.7968,14.08893 -5.24985,9.46142 -5.39181,13.47671 -0.6351,17.96394 2.85096,2.68946 5.61696,4.13533 14.90337,7.79047 1.89177,0.74462 4.24034,1.82861 5.21905,2.40893 5.07217,3.00736 8.12792,8.01594 7.8198,12.81718 -0.1482,2.3092 -0.78642,3.74179 -3.11516,6.99235 -2.3371,3.26221 -3.01254,4.77513 -3.0063,6.73368 0.007,2.13495 0.88427,3.84363 2.96132,5.76662 2.08691,1.93209 4.21367,3.31726 10.01443,6.522426 8.00052,4.420606 10.26384,5.951855 13.33109,9.01909 2.63908,2.639087 3.56516,3.941419 7.54566,10.611433 4.08156,6.839373 6.35237,9.8933 9.93428,13.360188 4.38692,4.246086 13.67205,10.821405 18.88124,13.370877 5.05749,2.475204 9.94884,3.87993 15.47813,4.445106 3.92536,0.401214 14.20876,0.341022 17.64739,-0.103267 z M 555.6165,-264.28247 c 0,-0.60365 -1.71969,-1.21824 -3.54481,-1.26687 -1.29265,-0.0344 -1.6138,0.0405 -1.68606,0.39368 -0.12237,0.59796 1.75147,1.23579 3.70952,1.26267 1.20716,0.0166 1.52135,-0.0639 1.52135,-0.38948 z m 0.52917,-14.40629 c 0,-0.14552 -0.1261,-0.26459 -0.2802,-0.26459 -0.15412,0 -0.20661,0.11907 -0.11668,0.26459 0.0899,0.14552 0.21603,0.26458 0.2802,0.26458 0.0642,0 0.11668,-0.11906 0.11668,-0.26458 z m -0.79375,-0.13884 c 0,-0.26585 -1.47476,-0.70417 -4.49792,-1.33686 -3.34402,-0.69983 -3.96875,-0.76204 -3.96875,-0.39516 0,0.30886 2.19281,0.95322 4.91966,1.44563 2.24235,0.40493 3.54701,0.51027 3.54701,0.28639 z m 191.77558,89.10054 c -2.83782,-2.43597 -9.9359,-8.78655 -12.52037,-11.20185 -1.30969,-1.22396 -3.95883,-3.57865 -5.88698,-5.23267 -1.92816,-1.65401 -3.50573,-3.06668 -3.50573,-3.13923 0,-0.0725 0.14882,-0.0164 0.33073,0.12476 0.1819,0.14115 1.16416,0.89217 2.18281,1.66891 5.33146,4.06537 12.44356,10.21799 17.54793,15.18057 1.93432,1.88058 3.96116,4.13364 3.70711,4.12086 -0.0486,-0.003 -0.88358,-0.68704 -1.8555,-1.52135 z M 223.77939,-278.8695 c 0.191,-0.0764 0.4192,-0.067 0.50712,0.0209 0.0879,0.0879 -0.0683,0.15046 -0.34727,0.13897 -0.30822,-0.0127 -0.37092,-0.0754 -0.15985,-0.15985 z"
       style="fill:#66625e;fill-opacity:1;stroke-width:0.26458332" />
    <path
       inkscape:connector-curvature="0"
       id="path832"
       d="m 319.87275,95.687975 c -4.87378,-0.327925 -17.1019,-1.759929 -27.25208,-3.191431 -50.09738,-7.065248 -96.86876,-18.95221 -136.83918,-34.777759 -9.45877,-3.745018 -12.14963,-4.905296 -17.83469,-7.690194 -6.06376,-2.970424 -12.81911,-7.37489 -13.62727,-8.884946 -1.03699,-1.937624 2.57481,-1.601947 20.66364,1.920425 12.06537,2.349447 22.11774,5.022374 29.23645,7.773961 2.19006,0.846534 12.09561,3.850402 15.71637,4.766019 1.39694,0.353271 4.8616,1.072012 7.69926,1.597236 10.18059,1.88431 16.78777,3.88419 20.90208,6.326691 3.66899,2.178129 8.05304,5.307488 8.45995,6.038797 0.51774,0.93046 0.16615,1.544346 -1.0734,1.874202 -1.4867,0.395658 -9.0263,-0.004 -14.26571,-0.7561 -3.54186,-0.508449 -5.44328,-0.660082 -6.87917,-0.54856 -1.39293,0.108188 -2.97011,-0.0077 -5.29167,-0.3887 -4.42903,-0.726969 -7.01263,-0.939297 -6.7763,-0.556921 0.35833,0.579808 5.47139,2.027687 11.00964,3.117638 4.42968,0.871802 10.98188,2.406597 20.76979,4.865212 26.74783,6.718723 34.07718,8.135778 48.55104,9.386914 2.54661,0.220133 5.64224,0.518451 6.87917,0.662966 1.23692,0.144489 3.6777,0.390155 5.42395,0.545888 9.31773,0.83103 32.94727,5.003668 38.29844,6.762936 1.22608,0.403092 1.74088,1.160621 0.79375,1.168029 -0.25466,0.0026 -0.70114,0.04609 -0.99219,0.09803 -0.29104,0.05191 -1.89838,0.0026 -3.57187,-0.110331 z M 535.46964,65.138204 c -2.40712,-0.456618 -4.11935,-1.10445 -6.97293,-2.638239 -1.16417,-0.62574 -3.16386,-1.52654 -4.44376,-2.001811 -2.50401,-0.929826 -3.36145,-1.673305 -3.36145,-2.914703 0,-1.519185 2.89187,-3.318484 12.26714,-7.632542 6.21432,-2.859537 11.01619,-6.206675 11.01619,-7.67879 0,-1.196155 -0.89379,-1.441106 -5.68854,-1.558952 -8.49196,-0.208729 -30.49894,0.624655 -37.70312,1.427772 -10.92767,1.218194 -16.98578,2.904251 -25.13542,6.995503 -9.29412,4.665795 -12.47296,5.199698 -33.07292,5.554822 -9.38762,0.161819 -15.72466,0.403225 -20.37291,0.776049 -18.70615,1.500426 -28.51375,0.698712 -37.57084,-3.071204 -1.23692,-0.514879 -3.26099,-1.354058 -4.49791,-1.864889 -1.23693,-0.510831 -5.10646,-1.742572 -8.59896,-2.737194 -3.4925,-0.994622 -7.77875,-2.296372 -9.525,-2.892795 -6.43258,-2.197021 -12.94638,-5.920978 -15.99491,-9.144344 -2.79673,-2.957142 -1.86648,-3.829527 8.45428,-7.928557 3.19956,-1.270741 7.65458,-3.353515 11.72819,-5.48304 3.61283,-1.888675 7.93364,-4.082706 9.60181,-4.875636 5.35765,-2.546694 8.27267,-4.589595 9.25248,-6.484355 0.87085,-1.6840209 0.18044,-3.2413054 -1.80409,-4.0692661 -0.98052,-0.4090723 -2.12368,-0.47879 -8.67005,-0.5288491 -4.36462,-0.033391 -9.37938,-0.233389 -11.90625,-0.4748742 -11.75377,-1.123315 -14.81622,-1.3240544 -20.37292,-1.3353256 -8.25143,-0.016669 -11.47503,0.6680729 -16.10323,3.4211154 -5.00959,2.9799226 -7.28199,5.6595436 -7.28305,8.5881376 0,2.763387 1.28042,4.361444 7.1552,8.923443 1.91424,1.486456 3.72994,3.019848 4.0349,3.407569 0.63124,0.802481 0.72739,2.012817 0.195,2.454672 -0.59754,0.495882 -3.2253,1.308444 -7.83458,2.422604 -7.34489,1.775434 -10.7954,3.062473 -19.85642,7.406428 -3.06637,1.470052 -6.39967,2.874645 -7.46432,3.145367 -7.4041,1.882696 -20.37078,0.0794 -36.73026,-5.108125 -8.41084,-2.667027 -11.85441,-4.134591 -22.47574,-9.578525 -6.13335,-3.143621 -8.501,-3.966713 -19.38905,-6.740367 -5.06142,-1.289367 -10.30017,-2.780744 -11.64166,-3.314197 -7.28108,-2.895309 -13.10468,-7.742925 -15.86939,-13.2097466 -0.88552,-1.7510125 -1.22185,-3.0674469 -1.50066,-5.8739088 -0.12697,-1.27806979 -0.43417,-3.8506135 -0.68265,-5.7167991 -0.73094,-5.4896275 -0.0367,-8.4475105 2.26749,-9.6616565 1.15602,-0.609124 1.26642,-0.616665 6.73155,-0.460561 10.8182,0.308981 16.79265,-0.674581 22.62187,-3.724222 6.53131,-3.416961 13.02271,-9.605407 14.04053,-13.385297 0.80179,-2.977621 -1.41316,-4.93903 -7.22958,-6.402044 -4.76605,-1.1988 -9.47299,-1.667721 -26.6547,-2.655384 -9.85885,-0.566711 -12.62721,-1.327759 -15.9816,-4.393486 -2.70001,-2.467636 -4.72018,-7.527555 -4.74454,-11.883681 -0.0341,-6.097693 3.86143,-10.994946 9.9905,-12.559533 2.69402,-0.687705 5.64247,-0.934349 11.12557,-0.930672 2.91424,0.0026 8.34867,-0.139118 12.07653,-0.313451 13.43807,-0.628439 20.23764,0.72337 26.69164,5.306509 2.31504,1.643962 7.46589,6.659669 8.89708,8.663649 1.64726,2.306505 2.39762,4.161526 3.56292,8.808138 1.14034,4.54705 1.68751,5.609908 3.61762,7.027069 1.55984,1.145275 2.99534,1.689444 11.43928,4.336336 20.67642,6.481339 29.57356,8.230446 44.58229,8.764561 12.57869,0.447622 19.3479,0.794464 23.54792,1.2065 18.15039,1.780672 31.65147,5.719577 42.46562,12.389326 2.58718,1.595649 4.61151,3.202808 7.55227,5.9959605 3.45149,3.278214 4.20656,3.7342763 6.44816,3.8946667 2.48809,0.1780117 4.03106,-0.2224617 8.88513,-2.3061613 8.01846,-3.4420699 12.17832,-4.6201009 25.26861,-7.1557619 9.92976,-1.923441 12.5439,-2.585164 20.37292,-5.156914 11.69627,-3.842147 15.55366,-4.496541 25.26771,-4.286594 6.52182,0.14097 10.04527,0.510461 18.24564,1.913387 11.63372,1.990328 13.77997,2.611491 21.04498,6.090973 8.75353,4.19235 13.49174,5.432716 22.81753,5.973048 8.9012,0.5157257 18.55653,-0.313266 23.88143,-2.050415 3.24043,-1.057116 7.21315,-2.673297 8.79271,-3.577034 2.46139,-1.408271 5.65555,-3.917209 8.6881,-6.824372 1.61081,-1.544214 4.05159,-3.733059 5.42396,-4.864126 5.94471,-4.899475 6.49247,-5.867718 7.26868,-12.848273 0.74009,-6.655514 1.89458,-8.953658 5.37189,-10.693294 3.84463,-1.923388 7.06599,-1.901216 16.04841,0.11049 8.99385,2.014247 9.93963,2.290604 12.96138,3.787431 8.08895,4.006877 10.29925,8.330142 6.48171,12.678066 -1.2741,1.451108 -3.67602,3.053266 -7.21064,4.809728 -3.33152,1.655525 -4.81967,2.79154 -5.09529,3.889667 -0.2572,1.02481 0.53774,2.429271 2.15897,3.814339 0.78219,0.668231 2.4383,2.381726 3.68023,3.807777 2.23877,2.570639 5.43806,5.460074 7.86188,7.100464 2.4911,1.6858985 6.71594,2.0192735 13.37871,1.0556875 3.97129,-0.5743575 5.91915,-1.1889575 8.10897,-2.5586525 1.67355,-1.046745 8.3616,-7.247917 15.33864,-14.221937 5.66232,-5.659887 6.48922,-6.376246 11.52398,-9.983734 6.2888,-4.506039 12.59747,-9.710738 16.95257,-13.985981 5.3821,-5.283491 6.27097,-7.320677 4.9957,-11.4495 -0.77999,-2.525342 -2.9142,-7.355655 -4.33554,-9.812575 -1.13985,-1.970326 -2.78016,-6.540553 -3.20908,-8.941091 -0.26093,-1.460368 0.45411,-3.1192 1.81621,-4.213464 0.61068,-0.490616 1.89513,-1.444783 2.85432,-2.12037 4.32123,-3.043688 4.6427,-5.494867 0.72062,-5.494867 -1.99141,0 -4.07948,0.800126 -6.12457,2.346854 -2.79432,2.11336 -3.51716,2.468642 -5.31675,2.613105 -3.59199,0.288316 -8.62746,-1.202479 -15.49723,-4.58814 -6.40075,-3.154495 -8.59184,-4.94284 -9.41753,-7.686389 -0.69453,-2.30772 -0.0323,-3.94144 3.67769,-9.07285 3.54121,-4.89794 4.94609,-8.02256 4.94609,-11.00061 0,-2.36762 -2.41541,-5.442 -5.37311,-6.83892 -3.65233,-1.72503 -7.68331,-2.04735 -16.98225,-1.35787 -10.43345,0.77362 -17.24054,0.31036 -25.24405,-1.71794 -6.51992,-1.65229 -9.63764,-3.05347 -12.22865,-5.49584 -2.19509,-2.06915 -3.35359,-4.21093 -4.47289,-8.26908 -0.46109,-1.6718 -1.14906,-3.61579 -1.52881,-4.32004 -1.52554,-2.82889 -5.3943,-5.31571 -11.33941,-7.28892 -4.1529,-1.37838 -9.23967,-2.42221 -18.14351,-3.72314 -8.84748,-1.29268 -9.85343,-1.47905 -12.11755,-2.24507 -3.21079,-1.08627 -4.1594,-2.18501 -3.308,-3.83146 1.18628,-2.29401 10.03101,-6.99119 26.08238,-13.85157 7.35307,-3.14269 10.32606,-4.58372 12.4246,-6.02226 4.09755,-2.80882 5.61687,-6.00882 4.64815,-9.79006 -0.6812,-2.65904 -2.1013,-5.19181 -5.36681,-9.57191 -1.65785,-2.22372 -3.26874,-4.45982 -3.57976,-4.96914 -2.54445,-4.16674 -5.51371,-6.10653 -16.20679,-10.5877 -12.0755,-5.06053 -16.53646,-7.92086 -16.53646,-10.60307 0,-2.11778 2.6438,-3.15955 12.03854,-4.74373 7.13905,-1.20381 10.56371,-2.12213 14.8566,-3.98374 4.14274,-1.79651 5.305,-2.08967 8.29445,-2.09214 3.52478,-0.003 6.25004,0.49686 15.69238,2.87774 9.66497,2.43702 13.06116,3.64826 30.34512,10.82252 6.33015,2.62752 15.20031,6.22432 19.71145,7.9929 12.65376,4.96081 12.62322,4.94827 18.49827,7.59635 9.40115,4.23738 10.82037,5.06804 12.02663,7.03884 0.28324,0.46279 1.07575,2.32969 1.76112,4.1487 2.34905,6.23445 4.30081,9.62728 8.97991,15.61041 2.90494,3.71452 4.13192,6.04737 5.71288,10.862 0.57473,1.75024 1.34972,3.7837 1.72223,4.51874 1.41272,2.78788 5.64504,6.14158 13.25544,10.50361 6.42855,3.68461 11.97282,7.16947 16.09561,10.1169 8.79305,6.28623 12.45042,8.05452 18.30678,8.85111 4.07416,0.55414 4.92789,0.82367 6.0446,1.9082 1.61766,1.57104 3.93647,6.77211 6.91522,15.5108 3.0434,8.92826 5.48511,14.54621 7.8122,17.97444 1.38692,2.04317 3.93999,4.62275 4.73284,4.78195 0.3511,0.0705 1.51077,0.325884 2.57707,0.567502 1.82231,0.412908 1.96881,0.412035 2.44062,-0.01508 0.27604,-0.249822 0.87715,-1.448432 1.33577,-2.663562 1.66929,-4.42285 1.98202,-3.45355 1.73345,5.372658 -0.21982,7.804361 -0.82709,12.352787 -1.32014,9.887558 -0.11605,-0.580205 -0.31247,-0.810286 -0.69173,-0.810286 -0.73969,0 -1.13908,0.728821 -2.37966,4.3425 -1.24224,3.618548 -3.34936,7.617301 -4.9607,9.41414 -1.08392,1.208696 -1.17694,1.251796 -3.96875,1.838748 -7.79965,1.639835 -9.04634,2.291927 -11.52075,6.025938 -3.97359,5.996411 -5.77715,8.84309 -6.41713,10.128674 -1.54873,3.110971 -5.75053,10.345869 -6.88522,11.855317 -1.4373,1.912065 -3.95849,4.290193 -5.51566,5.202767 -2.66092,1.559401 -3.8584,1.796124 -9.43039,1.864254 -5.74881,0.07027 -7.55586,0.341075 -10.00755,1.499738 -2.2013,1.040315 -6.29562,4.97967 -9.30608,8.953817 -6.40652,8.457407 -10.30692,12.160541 -14.51351,13.779553 -2.01107,0.773986 -4.79845,0.76888 -9.1459,-0.01667 -3.0385,-0.549143 -3.92147,-0.600287 -7.9375,-0.459952 -2.48531,0.08686 -5.47122,0.280379 -6.63538,0.430054 -1.88664,0.242596 -5.51633,0.636825 -18.25625,1.982867 -7.29131,0.770387 -10.19942,1.7388673 -12.73329,4.2405027 -1.35887,1.3415963 -1.76082,1.9636052 -2.48742,3.8491319 -1.68945,4.3841723 -1.32723,5.9507173 1.71127,7.4008456 1.98064,0.9452769 3.46641,1.1523134 11.33417,1.5793509 5.05319,0.2742935 5.79024,0.4345781 6.60117,1.4356556 1.02068,1.2600781 0.31239,2.8915253 -2.06569,4.7579763 -2.30095,1.80594 -6.0194,3.922024 -16.11855,9.17276 -10.95369,5.695024 -13.23665,6.957007 -16.40416,9.068091 -5.11651,3.410029 -6.9854,5.286481 -6.63914,6.666018 0.18698,0.74504 1.76043,1.194303 4.18264,1.194303 2.08164,0 10.04216,-0.639419 14.62741,-1.174935 7.59164,-0.886645 9.94524,-0.819653 10.37304,0.295195 0.74041,1.929474 -12.78294,8.649097 -25.73094,12.785434 -9.32685,2.979553 -14.87675,4.00439 -29.35676,5.420995 -7.57619,0.741178 -15.74131,2.361354 -24.73854,4.908762 -13.71733,3.883819 -18.83461,4.733925 -29.50105,4.900904 -5.03287,0.07877 -7.09829,0.01164 -8.63748,-0.280221 z M 760.404,-90.545407 c 0,-0.986552 -1.44002,-1.510533 -1.77221,-0.644843 -0.10691,0.27858 0.0453,0.610897 0.4181,0.91276 0.6641,0.537766 1.35411,0.401241 1.35411,-0.267917 z M 31.33028,-34.236015 c -0.71971,-0.448786 -2.79759,-2.330926 -4.61749,-4.182507 -2.72398,-2.771404 -3.85017,-4.182348 -6.37068,-7.98142 -4.86894,-7.338775 -7.73262,-12.932887 -11.2046498,-21.887921 -0.79012,-2.037874 -2.57451,-8.709052 -3.16455,-11.831109 -0.21493,-1.137285 -0.90297,-8.008514 -1.21955,-12.179247 -0.14853,-1.956858 -0.45544,-4.422404 -0.68202,-5.478938 -1.28066,-5.971833 1.73988,-27.248963 4.69911,-33.101253 0.45278,-0.89543 1.4482898,-3.17587 2.2122398,-5.06764 2.98486,-7.39138 5.46781,-12.74173 6.69183,-14.4198 1.95123,-2.67501 2.95741,-3.0721 3.64069,-1.43676 0.39877,0.95438 1.00887,7.10977 0.99472,10.03572 -0.0141,2.90661 -1.05073,6.30579 -3.67143,12.03854 -2.52572,5.52498 -3.64948,8.65143 -5.32561,14.81667 l -1.54654,5.68854 -4.5e-4,4.36563 c -5e-4,4.79385 0.1333,5.43901 1.91217,9.220752 1.5524,3.300307 3.67554,5.110851 5.99327,5.110851 0.60151,0 2.06516,-0.248047 3.25255,-0.551233 2.98368,-0.761789 4.09924,-0.704771 6.95065,0.355335 5.08268,1.889681 7.0596,3.69832 9.56492,8.75075 1.96995,3.972798 2.74633,6.890597 2.54428,9.562042 -0.16353,2.162333 -0.71381,3.57333 -2.31061,5.924735 -1.21943,1.795674 -2.31502,4.087733 -3.03113,6.341348 -0.25433,0.800365 -1.30597,3.241146 -2.33699,5.423958 l -1.87458,3.96875 -0.10172,3.175 c -0.095,2.964683 -0.0389,3.415718 0.84615,6.808814 1.2599,4.829969 1.23662,7.346395 -0.068,7.346395 -0.25743,0 -1.05691,-0.367189 -1.77663,-0.816002 z M 150.93629,-167.68769 c -0.14552,-0.0452 -0.95668,-0.22458 -1.80258,-0.39868 -1.76922,-0.36414 -3.35679,-1.55207 -3.35679,-2.51182 0,-0.97576 0.99306,-1.95363 3.00403,-2.95812 6.36792,-3.1808 8.33517,-4.8918 12.27497,-10.6762 3.40562,-5.0001 3.35414,-4.94771 5.3585,-5.45288 5.57452,-1.40489 10.83807,1.56715 10.84644,6.12442 0.002,1.13882 -0.88911,2.63747 -3.16792,5.32722 -3.25897,3.84667 -6.07882,6.52865 -7.94311,7.55473 -3.67119,2.0206 -8.17437,3.13214 -12.53622,3.09438 -1.327,-0.0114 -2.5318,-0.0579 -2.67732,-0.10305 z m 170.39167,-29.69829 c -0.58209,-0.055 -4.68974,-0.56857 -9.12813,-1.14131 -4.43838,-0.57277 -11.16541,-1.34575 -14.94896,-1.71773 -13.79762,-1.35654 -17.59457,-2.19511 -20.72243,-4.5766 -0.48326,-0.36796 -2.02112,-2.28555 -3.41749,-4.2613 -3.31975,-4.69728 -4.07482,-5.61128 -7.88537,-9.54543 -4.60957,-4.75906 -5.67783,-6.56841 -5.67783,-9.6167 0,-2.35612 1.80829,-8.44578 3.03247,-10.21227 1.98725,-2.8676 7.61283,-5.00649 21.21196,-8.06493 15.71964,-3.53534 23.87055,-4.57064 40.9811,-5.20525 9.36443,-0.34732 25.70586,-0.16303 38.49114,0.43409 23.56096,1.10037 28.79375,0.83935 42.61837,-2.12585 8.69127,-1.86417 12.92391,-2.34942 20.61704,-2.36362 3.88255,-0.007 7.49036,0.12474 8.99584,0.3289 5.15236,0.69872 10.71612,1.11474 20.10833,1.50357 16.041,0.66409 20.37535,1.06921 25.61984,2.39457 4.2363,1.07058 6.65253,2.5176 7.08568,4.24347 0.0954,0.38 -0.19447,1.36233 -0.79338,2.68873 -0.51901,1.14949 -1.12432,2.94893 -1.34517,3.99876 -0.67212,3.19516 -1.51321,4.26095 -4.37415,5.5428 -5.53677,2.48075 -14.67239,3.12506 -34.09902,2.4049 -14.58505,-0.54069 -25.49337,0.61065 -31.64901,3.34046 -2.63551,1.16874 -4.86463,2.83191 -8.20592,6.12254 -6.76362,6.66107 -10.88355,9.33672 -18.45294,11.98417 -4.60343,1.61009 -8.25291,2.5007 -15.78663,3.85259 -14.87371,2.66899 -20.27618,3.89991 -27.40451,6.24404 -6.43295,2.11542 -11.04021,3.22275 -15.25725,3.66696 -2.36553,0.24916 -7.38203,0.29115 -9.61358,0.0804 z m 204.4618,-90.74655 c 0.25744,-0.0671 0.61462,-0.0627 0.79375,0.01 0.17915,0.0725 -0.0315,0.12736 -0.46805,0.12197 -0.43656,-0.005 -0.58312,-0.0647 -0.3257,-0.13177 z m -1.46024,-0.25646 c 0.1819,-0.0734 0.47956,-0.0734 0.66146,0 0.1819,0.0734 0.0331,0.13345 -0.33073,0.13345 -0.3638,0 -0.51263,-0.06 -0.33073,-0.13345 z m -1.30638,-0.2701 c 0.191,-0.0764 0.41921,-0.067 0.50713,0.0209 0.0879,0.0879 -0.0684,0.15045 -0.34727,0.13896 -0.30824,-0.0127 -0.37092,-0.0754 -0.15986,-0.15985 z m -1.86862,-0.25907 c 0.1819,-0.0734 0.47956,-0.0734 0.66146,0 0.1819,0.0734 0.0331,0.13345 -0.33073,0.13345 -0.3638,0 -0.51263,-0.06 -0.33073,-0.13345 z m -1.5875,-0.26458 c 0.1819,-0.0734 0.47956,-0.0734 0.66146,0 0.1819,0.0734 0.0331,0.13345 -0.33073,0.13345 -0.3638,0 -0.51263,-0.06 -0.33073,-0.13345 z m -244.33768,-0.27271 c 0.25744,-0.0671 0.61463,-0.0627 0.79375,0.01 0.17915,0.0725 -0.0315,0.12736 -0.46805,0.12197 -0.43656,-0.005 -0.58311,-0.0647 -0.3257,-0.13178 z m 242.75018,0.008 c 0.1819,-0.0734 0.47956,-0.0734 0.66146,0 0.1819,0.0734 0.0331,0.13346 -0.33073,0.13346 -0.3638,0 -0.51263,-0.0601 -0.33073,-0.13346 z m -241.36615,-0.2174 c 0.50713,-0.22926 8.2622,-1.44072 16.80105,-2.62459 24.04935,-3.3343 50.14105,-5.59058 75.67083,-6.54364 16.93476,-0.63219 40.97771,-0.36996 51.72604,0.56417 1.60073,0.13912 5.94651,0.43538 9.65729,0.65837 22.65006,1.36108 42.13056,3.53179 43.43919,4.84043 1.11286,1.11287 -6.67901,1.56718 -19.87407,1.15879 -14.98703,-0.46386 -21.00109,-0.4067 -28.03062,0.26643 -6.92624,0.66323 -16.07614,0.77208 -21.06679,0.25061 -1.74625,-0.18246 -8.53281,-0.90831 -15.08125,-1.613 -6.54844,-0.70468 -13.1564,-1.36109 -14.68437,-1.45869 -1.52797,-0.0976 -4.68313,-0.4126 -7.01146,-0.69999 -8.66082,-1.06905 -19.08747,-0.92445 -39.95209,0.55407 -10.65641,0.75514 -13.30369,0.98012 -25.13541,2.13615 -5.7418,0.56101 -7.12391,0.69943 -17.4625,1.74879 -7.96031,0.80798 -9.3595,0.92651 -8.99584,0.7621 z m 237.86042,-0.26374 c -0.87312,-0.18376 -1.34937,-0.34382 -1.05833,-0.35569 0.29104,-0.0119 1.30307,0.13727 2.24896,0.33141 0.94588,0.19415 1.42213,0.35421 1.05833,0.35569 -0.3638,0.002 -1.37583,-0.14765 -2.24896,-0.33141 z m -2.84427,-0.57719 c 0.1819,-0.0734 0.47956,-0.0734 0.66146,0 0.1819,0.0734 0.0331,0.13345 -0.33073,0.13345 -0.3638,0 -0.51263,-0.06 -0.33073,-0.13345 z m -1.71476,-0.27271 c 0.25744,-0.0671 0.61462,-0.0627 0.79375,0.01 0.17915,0.0725 -0.0315,0.12736 -0.46805,0.12197 -0.43656,-0.005 -0.58312,-0.0647 -0.3257,-0.13178 z m -2.1217,-0.26361 c 0.25466,-0.0665 0.67138,-0.0665 0.92604,0 0.25467,0.0666 0.0463,0.121 -0.46302,0.121 -0.50932,0 -0.71768,-0.0545 -0.46302,-0.121 z m -1.45521,-0.25743 c 0.18191,-0.0734 0.47956,-0.0734 0.66146,0 0.1819,0.0734 0.0331,0.13345 -0.33073,0.13345 -0.3638,0 -0.51263,-0.06 -0.33073,-0.13345 z"
       style="fill:#5c5852;fill-opacity:1;stroke-width:0.26458332" />
    <path
       style="fill:#000000;fill-opacity:0.313725;stroke-width:0.264583"
       d="m 400.066,100.1443 c 15.05421,-0.054 30.04725,-0.509751 44.17767,-1.378728 103.72419,-6.37872 198.60555,-33.657 263.12813,-75.649131 19.56438,-12.732755 36.69815,-27.2573482 49.4559,-41.925081 42.3166,-48.651821 45.03187,-103.41284 7.583,-152.9266 -54.71836,-72.34692 -186.97457,-122.19159 -339.08474,-127.79375 -6.50251,-0.23947 -16.67735,-0.36224 -26.89654,-0.37258 78.58596,7.79317 150.10695,31.95444 201.94427,68.2625 52.41591,36.71337 81.2682,83.43492 81.36867,131.763527 -0.0375,48.201711 -28.67825,94.8224583 -80.79765,131.520669 C 549.43768,67.912166 478.32155,92.147343 400.066,100.1443 Z"
       id="path841"
       inkscape:transform-center-x="-197.66766"
       inkscape:transform-center-y="-0.0036154354" />
  </g>
</svg>
