<?xml version="1.0" encoding="UTF-8" standalone="no"?>
<!-- Created with Inkscape (http://www.inkscape.org/) -->

<svg
   width="3000"
   height="3000"
   viewBox="0 0 793.74998 793.75002"
   version="1.1"
   id="svg8"
   inkscape:version="1.3 (0e150ed6c4, 2023-07-21)"
   sodipodi:docname="Makemake.svg"
   inkscape:export-filename="G:\Pictures\My Pictures\Vectors and SVGs\Space\Makemake.png"
   inkscape:export-xdpi="96"
   inkscape:export-ydpi="96"
   xmlns:inkscape="http://www.inkscape.org/namespaces/inkscape"
   xmlns:sodipodi="http://sodipodi.sourceforge.net/DTD/sodipodi-0.dtd"
   xmlns="http://www.w3.org/2000/svg"
   xmlns:svg="http://www.w3.org/2000/svg"
   xmlns:rdf="http://www.w3.org/1999/02/22-rdf-syntax-ns#"
   xmlns:cc="http://creativecommons.org/ns#"
   xmlns:dc="http://purl.org/dc/elements/1.1/">
  <defs
     id="defs2" />
  <sodipodi:namedview
     id="base"
     pagecolor="#000720"
     bordercolor="#666666"
     borderopacity="1.0"
     inkscape:pageopacity="0"
     inkscape:pageshadow="2"
     inkscape:zoom="0.1767767"
     inkscape:cx="1677.2572"
     inkscape:cy="1575.4339"
     inkscape:document-units="mm"
     inkscape:current-layer="layer1"
     showgrid="false"
     inkscape:pagecheckerboard="false"
     inkscape:showpageshadow="false"
     borderlayer="true"
     units="px"
     inkscape:snap-object-midpoints="true"
     inkscape:window-width="1600"
     inkscape:window-height="837"
     inkscape:window-x="-8"
     inkscape:window-y="-8"
     inkscape:window-maximized="1"
     inkscape:snap-page="true"
     inkscape:snap-global="false"
     inkscape:deskcolor="#505050" />
  <metadata
     id="metadata5">
    <rdf:RDF>
      <cc:Work
         rdf:about="">
        <dc:format>image/svg+xml</dc:format>
        <dc:type
           rdf:resource="http://purl.org/dc/dcmitype/StillImage" />
      </cc:Work>
    </rdf:RDF>
  </metadata>
  <g
     inkscape:label="Layer 1"
     inkscape:groupmode="layer"
     id="layer1"
     transform="translate(0,496.75002)">
    <path
       inkscape:connector-curvature="0"
       id="path836"
       d="M 386.16658,292.38663 C 316.03205,290.52873 246.52361,269.32579 186.93533,231.61287 64.897328,154.37605 -4.8855421,15.998391 5.4477879,-128.27232 16.285708,-279.58795 113.8745,-411.3585 255.64976,-466.11083 c 115.83512,-44.73448 246.16858,-31.87904 351.2351,34.64407 127.8382,80.94106 197.78374,228.46616 179.56726,378.732989 -9.37485,77.332761 -41.50297,150.055051 -92.36893,209.077851 -5.97323,6.93107 -15.56065,17.3007 -20.00657,21.63881 -6.60123,6.44115 -14.25242,13.48314 -20.68087,19.03426 -63.90156,55.18049 -144.21734,88.4069 -228.33542,94.46167 -7.73678,0.5569 -27.17297,1.30517 -30.11839,1.15951 -0.46082,-0.0227 -4.40973,-0.13605 -8.77536,-0.2517 z"
       style="fill:#8f6b5d;fill-opacity:1;stroke-width:0.26458332" />
    <path
       inkscape:connector-curvature="0"
       id="path834"
       d="m 381.1395,291.62524 c -21.77124,-0.79242 -47.6777,-4.2155 -70.21399,-9.27753 -16.71965,-3.75552 -36.73252,-9.68947 -50.5683,-14.99383 -7.61774,-2.9205 -7.67666,-3.04779 -0.39688,-0.85747 5.45974,1.6427 7.72584,1.93313 15.08125,1.93289 5.78356,-1.8e-4 8.5306,-0.29416 13.37387,-1.43124 1.85857,-0.43635 2.75926,-0.8215 4.15356,-1.7762 0.9792,-0.67048 2.73439,-1.62052 3.90044,-2.11119 2.65782,-1.11847 3.57473,-1.94458 3.57674,-3.22259 0.003,-0.83741 -0.24564,-1.17909 -2.2112,-3.05936 -2.48698,-2.37902 -3.96452,-3.33824 -7.77235,-5.04584 -3.59849,-1.61372 -6.90187,-2.39501 -12.74495,-3.01426 -7.1564,-0.75846 -11.52009,-1.7629 -18.85942,-4.34105 -12.56466,-4.41372 -23.96259,-10.81897 -37.89599,-21.29631 -6.05072,-4.54988 -13.99899,-8.88011 -22.63657,-12.33241 -6.38186,-2.55075 -7.95045,-3.35156 -19.29023,-9.84825 -4.4194,-2.5319 -8.73026,-4.95429 -9.57968,-5.3831 -3.27775,-1.6546 -6.86492,-2.49373 -8.30236,-1.94212 -0.23557,0.0904 -0.61414,0.52371 -0.84127,0.96292 -0.51081,0.9878 -0.33583,2.70071 0.60869,5.95868 1.27571,4.40037 3.01455,7.45654 6.53077,11.4785 2.64417,3.02445 10.19044,9.21552 17.37016,14.25072 1.52797,1.07159 4.80219,3.44874 7.27604,5.28259 2.47386,1.83386 6.04573,4.3887 7.9375,5.67743 4.94884,3.3713 7.8522,5.47852 7.72442,5.60629 -0.23423,0.23423 -12.25313,-6.78252 -19.86653,-11.59828 -43.26851,-27.3689 -81.2366,-63.41065 -110.459282,-104.85509 l -5.41021,-7.67291 -0.077,-1.66619 c -0.1098,-2.37641 0.26533,-2.69912 3.1391,-2.70042 3.81215,-0.003 4.69636,-1.03701 4.69636,-5.49875 0,-6.26327 1.60432,-7.73219 8.86354,-8.11549 3.7882,-0.2 5.47567,-0.6327 6.82392,-1.749765 1.44772,-1.199489 2.76712,-3.999204 3.40563,-7.226671 1.43239,-7.240217 -0.073,-21.493215 -3.11394,-29.483341 -1.65074,-4.337314 -3.51435,-8.662035 -5.20826,-12.086457 -3.69599,-7.471781 -5.83311,-12.520904 -10.24705,-24.209375 -4.98967,-13.213054 -7.73883,-19.4455259 -11.40368,-25.85270234 -3.09093,-5.40377056 -5.26608,-8.08280916 -11.8771,-14.62854766 -5.44772,-5.393902 -6.32027,-6.385851 -9.28872,-10.559812 -9.395,-13.210329 -14.83635,-15.188327 -19.01427,-6.911922 -0.89259,1.76821 -1.86172,4.902835 -2.76233,8.934688 -0.36517,1.634781 -0.84875,3.329702 -1.07461,3.766476 -0.55724,1.077595 -1.56411,1.302729 -2.77023,0.619495 -1.24759,-0.706755 -5.0061,-6.294384 -7.15184,-10.632387 -0.89072,-1.800754 -1.96839,-3.708241 -2.39482,-4.238889 -0.59063,-0.73496 -0.9978,-1.845892 -1.7092,-4.663414 -1.3119701,-5.196099 -3.3492201,-20.676711 -4.4039001,-33.464235 -0.83548,-10.129917 -0.84015,-10.286339 -0.84123,-28.178125 -10e-4,-17.756856 0.01,-18.131526 0.8344,-28.707296 0.45952,-5.89359 1.12998,-13.15641 1.48991,-16.13958 0.35994,-2.98318 0.84335,-7.03131 1.07426,-8.99584 1.112,-9.46081 6.1102501,-35.06737 8.3511301,-42.7837 0.28727,-0.98923 1.52318,-5.37046 2.74646,-9.73609 13.5824,-48.47271 37.03011,-94.79602 68.23507,-134.80521 59.675482,-76.51245 145.901052,-128.26283 241.575742,-144.98759 8.89947,-1.5557 17.39937,-2.76861 17.99463,-2.56778 0.15746,0.0531 -0.18997,0.18635 -0.77205,0.29606 -1.52477,0.2874 -2.77813,0.8619 -2.77813,1.27341 0,0.19562 0.57201,0.89554 1.27111,1.55538 1.74528,1.6472 2.16848,2.64676 2.16848,5.12159 0,1.87645 0.0569,2.0878 0.74845,2.77934 1.40361,1.40361 1.80298,1.44291 14.99425,1.47563 13.34752,0.0331 13.70629,0.0628 20.7698,1.71996 7.66508,1.79828 11.20714,2.2043 21.82812,2.50211 10.17818,0.2854 21.9691,1.34843 28.11788,2.53502 7.68969,1.48395 12.34993,4.32623 12.91799,7.87867 0.10549,0.65967 -0.006,2.0094 -0.28387,3.4406 -0.42093,2.16706 -0.42423,2.46929 -0.0415,3.78575 0.88685,3.05075 4.57681,7.33609 8.54281,9.92126 5.04695,3.28977 14.10152,6.93987 24.90359,10.03918 7.42267,2.1297 16.36958,4.37472 21.09311,5.29283 4.26757,0.82948 34.88023,0.70059 37.76104,-0.15899 2.05727,-0.61384 3.20297,-2.10751 3.79802,-4.95155 0.69337,-3.31391 1.72058,-4.51414 4.4782,-5.23241 3.52928,-0.91926 8.98128,-0.33503 15.48107,1.65893 17.41773,5.34331 35.77105,13.32831 50.19555,21.83863 10.2139,6.02612 22.85572,12.8396 26.05437,14.04236 2.30656,0.86732 8.50789,2.2687 10.03935,2.2687 0.64633,0 1.81737,0.88959 6.39596,4.85864 22.33893,19.36507 44.4418,43.98068 62.27704,69.35698 4.8686,6.92713 13.53603,20.2011 14.0284,21.48412 0.14139,0.36852 0.003,0.3419 -0.79788,-0.15253 -1.6423,-1.01501 -1.87613,-0.34501 -0.95845,2.74634 0.30226,1.01818 0.89162,3.04186 1.30971,4.49707 0.87297,3.03848 3.30613,9.65925 5.25074,14.2875 7.85042,18.6843 10.35251,26.10451 10.35251,30.70147 0,1.72266 -0.009,1.74447 -1.28519,3.02037 -1.60451,1.60452 -1.88981,2.63386 -1.88981,6.81833 0,3.4964 0.46275,7.68123 1.52773,13.81557 0.65894,3.79576 0.71427,4.67489 0.7085,11.26093 -0.009,10.29967 -0.36407,11.76332 -4.76031,19.62372 -2.19736,3.92885 -4.03762,6.40821 -6.7428,9.08452 -1.98371,1.96252 -3.9393,3.08825 -7.06625,4.06768 -3.24784,1.01727 -5.12908,1.24796 -12.10958,1.48503 -5.94754,0.20198 -6.55124,0.26948 -9.525,1.06497 -7.71554,2.06394 -8.2659,2.16318 -12.03854,2.17067 -3.00477,0.006 -3.98246,-0.10094 -6.15784,-0.67329 -4.82129,-1.26849 -9.31452,-3.97576 -14.67363,-8.8411 -2.68118,-2.43417 -4.6238,-4.80936 -7.58518,-9.2742 -2.50317,-3.77405 -2.86837,-4.59574 -6.25668,-14.07779 -5.48402,-15.34671 -9.51283,-21.32701 -26.46942,-39.29063 -6.43509,-6.81726 -8.15795,-8.5142 -15.71871,-15.48239 -10.74158,-9.89969 -13.1508,-12.67863 -14.60349,-16.84466 -0.66204,-1.89854 -0.71993,-2.38448 -0.70348,-5.90524 0.0138,-2.93886 0.15523,-4.45549 0.60468,-6.48229 1.60385,-7.2324 1.65293,-7.57563 1.55049,-10.84792 -0.0983,-3.13978 -0.11208,-3.19994 -1.24556,-5.42396 -1.00306,-1.96816 -1.62935,-2.73059 -5.01607,-6.10646 -6.57395,-6.55289 -11.84103,-10.22445 -26.35949,-18.37455 -11.14115,-6.25423 -17.18958,-8.85649 -20.58508,-8.85649 -3.45427,0 -6.38186,1.27496 -9.08884,3.95817 -2.63001,2.6069 -3.80944,5.42502 -4.33702,10.36295 -0.27184,2.54419 -0.25175,4.20679 0.1243,10.29761 0.24667,3.99496 0.55946,8.2756 0.69509,9.51252 0.53064,4.83957 0.26294,6.20722 -1.40153,7.1605 -1.6025,0.9178 -4.31752,0.86921 -8.66629,-0.15509 -2.7381,-0.64492 -3.8844,-0.77974 -6.66065,-0.78334 -3.82093,-0.005 -4.42487,0.2338 -5.36022,2.11909 -0.60206,1.21348 -0.67704,3.829 -0.3071,10.70884 0.37743,7.0188 -0.40243,9.79799 -3.61498,12.88284 -3.29335,3.16244 -6.71907,4.34121 -15.67476,5.3936 -2.47386,0.2907 -6.58151,0.87567 -9.12813,1.29991 -9.82286,1.63643 -10.58648,1.70946 -17.85937,1.70787 -6.46084,-10e-4 -7.08123,-0.0447 -10.20191,-0.71225 -4.13155,-0.88376 -7.83916,-2.15831 -12.28768,-4.22411 -9.59953,-4.45783 -11.77528,-5.19047 -19.05,-6.41466 -5.55445,-0.93471 -10.62937,-1.40701 -19.99329,-1.86072 -8.53128,-0.41336 -13.06163,-0.99191 -15.62187,-1.995 -0.78457,-0.3074 -4.25445,-1.98255 -7.71083,-3.72257 -10.56217,-5.31722 -13.04052,-5.92212 -24.27505,-5.92491 -9.24848,-0.002 -13.46578,0.47353 -20.08079,2.26567 -8.15266,2.20872 -13.3156,6.56981 -15.32628,12.946 -1.00851,3.19815 -1.22123,4.81273 -1.22002,9.26042 0,4.52372 0.41601,7.95322 1.85587,15.34583 1.62309,8.33324 4.28514,12.78854 9.05208,15.14981 l 2.26526,1.12207 h 3.7233 c 4.2455,0 5.82676,-0.37146 10.06607,-2.36463 6.74783,-3.17258 13.21707,-8.03517 21.73645,-16.33813 5.05031,-4.92202 7.57536,-6.76732 10.25141,-7.4917 1.45436,-0.39367 1.91902,-0.41737 2.97421,-0.15167 3.16674,0.79739 5.05142,3.42048 7.90371,11.00029 2.8865,7.67081 8.51445,18.79926 14.64135,28.95119 8.71107,14.43368 11.31433,20.69081 12.33747,29.65402 0.41302,3.6181 2.1358,8.83028 5.81565,17.59479 2.51489,5.98988 3.13425,8.18576 3.13433,11.1125 1.1e-4,4.23185 -1.32405,6.75907 -5.89179,11.24479 -5.27357,5.17885 -6.62416,7.35357 -6.61062,10.64422 0.0148,3.59148 1.81261,7.01722 5.58816,10.64823 6.7292,6.47153 13.60668,10.55063 26.68418,15.82666 10.87221,4.38632 14.32156,6.06171 19.29062,9.36975 8.37551,5.57583 13.42601,13.219245 15.36136,23.247985 0.30364,1.573398 0.78994,5.665549 1.08072,9.093703 0.67527,7.961339 1.14017,11.92903 1.98196,16.915209 1.82669,10.819844 5.12226,20.285472 8.53253,24.507375 1.73781,2.151407 3.56912,4.866587 4.31895,6.403499 0.90657,1.858195 1.01092,4.63386 0.23262,6.188366 -0.84325,1.684232 -2.21676,3.00863 -4.64685,4.480798 -6.25729,3.790659 -14.23821,13.2937253 -18.52703,22.0605883 -3.97435,8.1240577 -5.31571,15.0811707 -5.05213,26.2035657 0.26249,11.077522 1.17475,13.585984 7.15877,19.685212 3.44334,3.509592 6.91822,6.456151 12.60182,10.685886 6.58558,4.900956 9.06743,6.024377 13.30899,6.024377 3.60368,0 5.16771,-0.408411 9.05499,-2.364423 3.31116,-1.666107 10.18008,-6.229058 22.3506,-14.847226 10.82881,-7.668101 14.2875,-12.316221 14.2875,-19.200865 0,-4.23254 -1.05775,-7.86855 -3.87776,-13.329682 -2.32291,-4.498499 -5.33598,-8.6296762 -16.20935,-22.2244706 -4.08001,-5.1011404 -7.39823,-9.8915534 -8.53634,-12.3236304 -1.8802,-4.017936 -0.49535,-7.053024 4.93803,-10.822278 3.337,-2.314946 5.6161,-3.556186 11.25,-6.126957 9.64991,-4.403275 12.09445,-5.776489 17.59479,-9.883775 4.24096,-3.166851 7.01686,-5.019198 12.30194,-8.209015 11.17698,-6.745896 19.19737,-9.090104 27.07029,-7.912153 1.04653,0.15658 3.47599,0.697151 5.39879,1.201288 5.2179,1.368028 7.36558,1.688279 13.04044,1.944528 6.06195,0.273738 8.28429,0.792824 12.56771,2.935553 5.45153,2.72706 8.50233,5.293862 21.70898,18.264901 11.8699,11.658124 16.81025,15.977368 20.27627,17.727004 0.83121,0.419577 3.80939,1.547548 6.61823,2.506583 5.73974,1.959769 9.36686,3.406617 13.44131,5.361676 5.77083,2.7690233 8.00574,3.3755542 11.65879,3.1640727 1.82578,-0.105701 2.40197,-0.2797175 4.7992,-1.4494407 4.33549,-2.115502 9.73494,-6.456495 13.88641,-11.164199 1.10572,-1.253887 5.19804,-5.509922 9.09402,-9.457849 10.65065,-10.792698 12.08032,-11.596926 21.41575,-12.046982 3.83167,-0.184732 5.44952,-0.168143 6.28682,0.0645 2.7469,0.763244 5.32913,3.67075 8.01573,9.025494 2.03825,4.062465 3.98923,6.960314 5.05834,7.513161 0.50694,0.262149 1.16234,0.374835 1.68592,0.289877 1.0713,-0.173857 1.75345,0.282628 2.38387,1.595253 0.38417,0.799861 0.47644,1.613561 0.45852,4.04405 -0.0503,6.821646 -1.60245,13.1684713 -6.56767,26.8552084 -2.13021,5.8719776 -2.86912,7.6434156 -5.68365,13.6260416 -4.0454,8.599011 -5.10103,10.101527 -11.5408,16.426233 -3.97801,3.906917 -4.53105,4.342394 -10.54812,8.306064 -6.2897,4.143243 -6.39556,4.228465 -11.14777,8.973768 -6.57087,6.561349 -8.03339,8.878808 -10.62077,16.829352 -1.39409,4.283815 -2.34432,7.5946 -4.13859,14.419791 -2.21752,8.435208 -4.0604,13.576538 -10.02768,27.975513 -2.78791,6.72721 -5.80797,15.49365 -5.69063,16.51838 0.0664,0.58002 0.23953,0.76774 0.76435,0.82884 0.69408,0.0808 1.48148,-0.40328 4.77131,-2.93336 0.98499,-0.75753 1.74374,-1.17041 1.88714,-1.02701 0.35201,0.35201 -0.20441,1.50694 -3.01717,6.26264 -1.37708,2.32833 -3.3759,5.84068 -4.44177,7.80521 -1.0659,1.96453 -2.7967,5.00062 -3.8462,6.74687 -3.10938,5.17364 -3.47887,6.06716 -2.64163,6.38845 1.73784,0.66685 7.86967,-5.80372 16.83536,-17.76553 2.91206,-3.88517 11.57954,-16.61935 15.3075,-22.48959 1.20139,-1.89177 3.93911,-5.99942 6.0838,-9.12812 5.1163,-7.463632 9.0904,-14.220747 13.22697,-22.489584 3.04207,-6.081025 9.17117,-15.693999 10.94473,-17.165929 0.38925,-0.323056 0.40015,-0.274188 0.11925,0.533823 -0.84402,2.427605 -9.54845,19.313181 -14.13817,27.426471 -18.96494,33.524379 -42.40186,63.799429 -69.72266,90.065389 -4.90712,4.71767 -5.69058,5.36241 -8.24725,6.78701 -3.75107,2.09013 -5.41353,2.62681 -5.86658,1.89378 -0.64026,-1.03598 3.47621,-6.44081 11.38786,-14.952 5.5463,-5.96659 7.73848,-8.77044 9.30891,-11.90625 0.72221,-1.44206 0.81203,-1.91551 0.98049,-5.168 0.17571,-3.39188 0.15709,-3.60619 -0.35359,-4.06837 -1.0478,-0.94824 -2.90901,-0.49858 -7.74152,1.87034 -8.26825,4.05313 -13.54754,8.18838 -20.2275,15.8442 -2.41342,2.76596 -10.96261,12.14594 -16.43999,18.03758 -2.07291,2.22967 -5.21338,5.74825 -6.97884,7.8191 -11.49323,13.48126 -22.80623,22.88632 -35.25165,29.30641 -7.8204,4.03423 -13.91682,6.57945 -25.35841,10.58688 -7.34639,2.5731 -18.33785,5.36744 -28.52243,7.25122 -2.83765,0.52486 -7.54062,1.42251 -10.45104,1.99477 -7.03969,1.38417 -20.80847,3.57529 -26.72291,4.2526 -7.14447,0.81814 -14.3732,0.94131 -22.25011,0.37909 -10.67631,-0.76202 -16.81692,-0.3353 -24.84573,1.72662 -5.09399,1.30824 -8.42171,2.47703 -13.86797,4.87082 -2.41409,1.06106 -5.63918,2.37562 -7.16688,2.92124 -6.55405,2.34082 -10.18236,4.16875 -13.31992,6.7105 -3.29049,2.66565 -3.80158,3.96967 -2.24893,5.73804 1.27984,1.45764 3.04197,2.2433 8.87656,3.95759 3.24744,0.95414 10.03363,2.56971 12.24902,2.9161 1.27497,0.19934 6.51131,1.83092 7.10364,2.21337 0.64706,0.41786 0.19618,1.21349 -1.03384,1.82433 -1.81268,0.90022 -5.96548,1.85137 -10.70001,2.45073 -7.0626,0.89408 -10.00988,1.31569 -10.14548,1.45129 -0.38735,0.38733 0.625,0.50266 4.00683,0.45638 3.57285,-0.0489 5.47719,0.21249 5.47719,0.75166 0,0.13422 -0.32742,0.24524 -0.7276,0.24667 -0.40019,0.003 -3.7637,0.24098 -7.47448,0.53229 -7.69692,0.60423 -30.63457,0.90006 -40.87813,0.52723 z m -3.18159,-183.74672 c 7.22943,-2.99262 13.53849,-6.87305 19.19206,-11.804195 1.23867,-1.0804 4.12898,-3.377433 6.42289,-5.104527 6.9728,-5.249862 9.45555,-7.874635 11.7285,-12.39938 1.38512,-2.757355 2.28857,-5.365062 3.07097,-8.864018 0.50972,-2.279571 0.57774,-3.363013 0.57753,-9.198504 0,-7.743111 -0.23508,-9.012344 -2.50695,-13.551535 -2.12585,-4.247489 -6.29261,-8.362289 -12.14091,-11.989515 -5.59242,-3.468528 -10.61606,-5.891927 -16.10408,-7.768563 -4.46913,-1.528234 -7.11483,-2.121879 -13.7025,-3.074617 -6.29806,-0.910855 -39.62191,-6.487081 -46.00578,-7.69837 -4.78536,-0.907971 -5.59456,-1.097888 -14.95118,-3.50864 -11.74343,-3.0257215 -19.63018,-4.4341515 -25.00313,-4.4651342 -5.46094,-0.031459 -8.62271,1.1053233 -11.39123,4.0956442 -2.92066,3.15468 -5.27976,9.678564 -5.59165,15.463229 -0.29208,5.417 0.7222,8.26725 4.16819,11.713236 1.62142,1.62142 2.61726,2.360957 4.28826,3.184631 4.1474,2.044303 7.96396,2.306294 21.16751,1.452959 11.21767,-0.724958 17.04555,-0.117792 25.59122,2.666154 9.44462,3.076786 15.19645,7.53491 21.27258,16.48796 2.97352,4.381421 5.30838,10.094516 6.61558,16.18742 0.79645,3.712342 1.09387,5.878301 1.48789,10.835349 0.60656,7.630821 1.33855,9.589926 4.90061,13.116026 1.65449,1.6378 2.7251,2.42893 4.59129,3.39278 4.48088,2.31428 8.14348,2.56146 12.32233,0.83161 z M 226.89658,-82.523473 c 4.64126,-0.857991 7.89673,-4.825868 8.61479,-10.500016 1.15339,-9.114111 -3.94061,-20.465341 -12.1583,-27.093051 -4.76127,-3.84003 -12.53392,-6.2856 -20.01357,-6.297 -6.14558,-0.009 -9.38957,1.64386 -11.33011,5.77411 -0.71932,1.53101 -0.84017,2.11082 -0.92947,4.45937 -0.1178,3.09827 0.37513,5.16903 1.99995,8.40155 1.21601,2.41924 1.9043,3.40442 5.70045,8.159329 10.31076,12.914868 19.7349,18.645081 28.11626,17.095708 z M 96.836398,-158.56293 c 1.98558,-0.99991 4.393922,-3.22416 6.444062,-5.95143 1.9425,-2.58411 4.00443,-6.45509 7.47257,-14.02879 3.46582,-7.56862 4.75992,-10.21453 6.64126,-13.57871 0.66558,-1.1902 1.90143,-3.43551 2.74632,-4.98959 3.02421,-5.56268 5.95698,-9.48309 11.95954,-15.987 4.80139,-5.20242 6.32764,-7.27511 8.16285,-11.08533 2.4245,-5.03367 2.87213,-8.36407 2.88051,-21.43125 0.003,-4.36562 0.12449,-9.24718 0.27043,-10.84791 0.14593,-1.60073 0.43477,-5.17261 0.64187,-7.9375 0.59856,-7.991 2.69516,-16.89562 5.10573,-21.68493 2.04781,-4.06856 6.73036,-10.24786 10.5566,-13.93095 6.76686,-6.51369 10.31003,-11.51351 11.372,-16.04717 0.56654,-2.41866 0.39834,-5.89543 -0.35506,-7.33904 -0.66373,-1.2718 -1.7854,-2.37763 -2.80082,-2.76129 -1.09801,-0.41485 -3.84896,-0.34223 -5.49101,0.14497 -3.00467,0.89149 -6.44698,3.07221 -12.61224,7.98995 -6.45614,5.14976 -7.89345,6.16236 -20.17797,14.21554 -4.4151,2.89434 -8.45117,6.81938 -13.18503,12.82229 -6.8827,8.72781 -7.88045,9.86035 -11.95038,13.56486 -9.290222,8.45606 -18.541802,18.51362 -22.165482,24.09649 -3.48192,5.36445 -5.25128,11.51923 -5.52651,19.22407 -0.13599,3.8068 0.23358,8.08419 2.42314,28.04583 0.21549,1.96453 0.39442,5.23875 0.39764,7.27605 0.0136,8.60763 1.27632,17.53838 3.96551,28.04583 1.26746,4.95236 2.46112,8.26431 3.55772,9.87134 0.89641,1.31368 2.83359,2.79185 4.21531,3.21648 1.39349,0.42829 3.48325,0.0784 5.45144,-0.91281 z m 85.750992,-247.41936 c 3.69499,-1.09729 9.54783,-4.88089 13.24559,-8.56268 2.03796,-2.02915 2.76579,-2.9705 3.63802,-4.70529 1.17531,-2.33756 1.304,-3.11648 0.70598,-4.27293 -0.51496,-0.99581 -1.67715,-1.43056 -3.7307,-1.39557 -4.39482,0.0749 -11.6839,3.79474 -16.26165,8.29884 -3.14996,3.09927 -4.75867,5.87595 -4.75867,8.21358 0,0.84307 0.17833,1.22985 0.89958,1.95111 0.86138,0.86137 0.98296,0.89958 2.8624,0.89958 1.07954,0 2.6093,-0.19199 3.39945,-0.42664 z m 320.39858,-58.73728 c -2.64302,-0.78103 -4.90064,-1.92534 -4.90064,-2.484 0,-0.32275 0.39535,-0.39005 2.11667,-0.36035 3.3687,0.0581 8.59896,1.96937 8.59896,3.14223 0,0.64457 -3.1763,0.48186 -5.81499,-0.29788 z m 18.51499,-5.12075 c -1.23693,-0.26557 -3.0824,-0.72484 -4.10104,-1.02059 -9.60496,-2.78876 -23.10781,-6.2713 -32.01459,-8.25694 -3.34697,-0.74616 -7.57369,-1.71117 -9.3927,-2.14445 -1.81901,-0.43329 -4.25979,-0.96805 -5.42396,-1.18837 -1.16417,-0.22031 -5.20975,-1.05256 -8.99017,-1.84944 -6.42345,-1.35401 -17.11989,-3.23333 -23.81859,-4.18482 -4.18018,-0.59376 -18.52506,-1.7127 -25.79645,-2.01218 -3.41974,-0.14085 -8.12271,-0.37456 -10.45104,-0.51937 -2.32833,-0.14481 -5.36443,-0.27231 -6.74688,-0.28334 -1.38244,-0.011 -3.04932,-0.12538 -3.70416,-0.25412 -0.72658,-0.14283 3.65622,-0.18854 11.24479,-0.11728 15.07836,0.14159 28.23535,1.02319 43.19852,2.89455 23.92775,2.99251 50.40762,8.84942 71.38427,15.78901 6.16206,2.03856 8.05158,2.83621 8.05158,3.39895 0,0.37115 -0.81751,0.31135 -3.43958,-0.25161 z"
       style="fill:#895f4e;fill-opacity:1;stroke-width:0.26458332" />
    <path
       inkscape:connector-curvature="0"
       id="path832"
       d="m 339.40352,249.54766 c -2.30487,-0.36412 -6.18472,-1.74221 -8.40256,-2.9845 -2.73148,-1.53001 -6.23636,-5.02399 -7.35206,-7.32923 -1.60559,-3.31742 -1.70513,-6.09843 -0.49233,-13.75833 0.35711,-2.25557 0.91151,-6.04242 1.23198,-8.41521 0.64235,-4.75625 0.71405,-5.06544 2.49451,-10.75716 1.5453,-4.93988 1.85672,-6.42004 2.51826,-11.96888 0.59451,-4.98668 0.7685,-5.7355 1.70312,-7.33036 1.35025,-2.30399 3.37391,-3.22103 15.5435,-7.0436 13.79913,-4.33441 18.4268,-5.54916 24.60363,-6.45838 8.5475,-1.25814 22.50991,0.54856 31.54789,4.08223 5.77858,2.25933 15.01222,8.68694 20.0416,13.95117 2.33236,2.44123 3.50753,4.61092 3.9633,7.31731 0.36164,2.14741 0.23151,3.70316 -0.82862,9.90592 -0.43071,2.52008 -0.77896,5.37758 -0.77388,6.35 0.0201,3.87086 1.18213,7.83884 3.26419,11.14719 0.89406,1.42063 1.09151,1.98392 1.17943,3.36471 0.0899,1.412 0.006,1.82679 -0.56253,2.79161 -1.94474,3.29857 -6.89922,5.59478 -14.47366,6.70801 -5.3672,0.78883 -14.26196,0.11301 -19.38573,-1.47291 -2.99122,-0.92585 -5.93166,-2.29512 -10.57399,-4.92397 -8.03836,-4.55192 -9.95315,-5.24224 -14.49028,-5.22394 -4.41901,0.0177 -7.69813,1.13419 -9.63774,3.28113 -1.2896,1.42743 -1.8048,2.62017 -2.68004,6.2045 -0.96642,3.95777 -1.88994,5.89598 -3.72716,7.82212 -1.85034,1.93987 -3.80222,3.16111 -6.49951,4.06657 -2.30651,0.77427 -5.77469,1.05894 -8.21132,0.674 z M 228.94147,203.90973 c -3.61306,-0.83622 -10.66855,-3.21479 -14.03654,-4.73207 -15.80317,-7.11938 -24.13202,-13.08555 -27.37198,-19.60727 -1.22628,-2.46838 -1.88876,-4.5553 -2.85571,-8.99583 -0.44363,-2.03729 -1.34416,-5.49011 -2.00116,-7.67292 -1.21956,-4.0518 -1.95773,-7.95332 -1.9523,-10.31875 0.004,-1.67243 0.60616,-4.54334 1.26156,-6.0131 1.92536,-4.31769 7.96463,-8.07945 16.06249,-10.00509 2.26732,-0.53914 10.18322,-1.82999 15.29324,-2.49386 12.3348,-1.60247 18.8817,1.03717 36.69739,14.79606 3.71078,2.86581 7.99703,6.04446 9.525,7.06371 3.73175,2.48925 11.50445,6.28409 18.91771,9.2361 10.67091,4.24921 13.62604,5.99308 13.62604,8.04096 0,1.71148 -1.85409,2.94698 -12.05764,8.03478 -9.44306,4.70861 -13.98405,8.7779 -16.13931,14.46276 -0.50239,1.32514 -1.06633,2.301 -1.60351,2.77474 -0.7951,0.70123 -0.9715,0.73631 -4.36562,0.86868 -3.82616,0.1492 -4.04639,0.20251 -11.60684,2.80879 -7.31023,2.52002 -12.02372,2.9949 -17.39282,1.75231 z m 278.27199,-2.155 c -0.50932,-0.0672 -3.06917,-0.46525 -5.68854,-0.88464 -2.61938,-0.41936 -5.69114,-0.88839 -6.82612,-1.04225 -1.13498,-0.15385 -4.5878,-0.82359 -7.67292,-1.48833 -3.08512,-0.66474 -8.52633,-1.79094 -12.09159,-2.50264 -17.24178,-3.44181 -21.43392,-6.44065 -21.43019,-15.32988 0.003,-6.67049 2.01031,-12.79715 5.28191,-16.11998 1.55217,-1.57646 4.95149,-3.9634 7.36573,-5.1721 2.08677,-1.04473 12.32932,-5.18424 16.71796,-6.75656 4.97219,-1.78136 7.97417,-3.06657 12.77276,-5.46835 4.65656,-2.33066 8.1203,-3.73923 12.31136,-5.00653 13.68102,-4.13681 17.63165,-5.58469 22.1461,-8.11641 3.90094,-2.18763 5.41811,-3.32523 8.20208,-6.15003 4.24461,-4.30681 6.26142,-7.38555 9.44944,-14.42476 3.42789,-7.56881 5.65203,-12.01558 7.74173,-15.478124 3.32923,-5.516378 7.17114,-12.579244 9.04232,-16.623295 7.74814,-16.745188 14.37362,-27.582019 21.11539,-34.536777 7.09348,-7.317607 13.81882,-10.387568 25.01466,-11.418623 4.12954,-0.380285 6.33865,-0.184282 10.78177,0.956601 1.92816,0.495115 5.08331,1.305058 7.01146,1.799881 6.70073,1.719607 12.83132,1.917277 17.13177,0.552397 3.17527,-1.007771 6.7418,-2.92608 10.58334,-5.692404 4.34218,-3.126846 6.6572,-4.262173 9.0384,-4.432538 1.64047,-0.117369 1.97369,-0.05019 3.51565,0.708924 2.92188,1.438434 6.13622,5.511483 7.29541,9.24441 0.81018,2.60903 1.02084,4.445132 1.31014,11.419549 0.29379,7.083187 0.69437,10.172647 1.75546,13.539152 0.96128,3.049852 1.58543,4.188751 4.19571,7.656063 3.83339,5.092038 4.90381,7.859157 4.90381,12.676664 0,3.440879 -0.65749,6.276154 -2.23824,9.652079 -4.31231,9.209481 -20.54765,27.867921 -36.25864,41.670201 -11.26569,9.89703 -16.50031,14.90919 -20.86451,19.97771 -2.94386,3.41897 -4.16158,4.938 -9.43851,11.77396 -3.60796,4.67392 -8.66084,9.73566 -11.80491,11.82558 -5.12495,3.40667 -8.52517,4.20822 -19.40769,4.57517 -9.87343,0.33293 -14.15471,0.65569 -19.37554,1.46066 -9.41846,1.45217 -18.45678,4.1111 -29.1755,8.58293 -12.48378,5.20821 -18.06131,7.2736 -21.93658,8.12329 -1.84206,0.40388 -8.61541,0.69421 -10.47488,0.449 z M 115.36469,41.503404 C 111.34182,40.397895 106.88544,35.513846 101.89308,26.738887 98.210418,20.265961 89.892338,1.3380137 85.513688,-10.532729 c -4.39499,-11.915035 -8.43238,-21.812674 -10.92601,-26.785068 -2.56208,-5.108866 -4.54828,-7.916068 -9.50337,-13.431599 -6.79006,-7.558035 -10.95129,-13.116586 -15.42167,-20.600141 -3.14645,-5.267272 -7.90297,-11.943662 -9.82858,-13.795692 -0.90472,-0.870162 -1.05755,-0.921941 -2.53262,-0.858018 -1.46496,0.06347 -1.63813,0.0063 -2.59286,-0.856244 -1.8002,-1.626367 -2.95157,-4.475507 -5.33309,-13.197129 -2.54232,-9.3105 -4.70048,-14.54933 -7.35754,-17.86009 -1.72195,-2.14559 -2.50261,-2.72587 -3.87522,-2.8806 -1.08244,-0.122 -1.21913,-0.0553 -2.72526,1.32929 -0.87212,0.80177 -1.84453,1.53993 -2.16092,1.64034 -1.85454,0.58862 -3.6589901,-3.0698 -4.8420101,-9.81691 -0.51296,-2.92555 -0.5939,-4.28268 -0.57399,-9.62356 0.0208,-5.5902 0.46114,-12.51813 1.16502,-18.33084 0.54495,-4.50024 3.5368401,-21.02551 4.9171001,-27.15889 2.10417,-9.35014 2.90694,-12.41693 4.11831,-15.73305 1.43162,-3.91909 2.41223,-5.71395 3.54331,-6.48552 2.86249,-1.95268 4.9299,-6.16747 11.10855,-22.64691 1.35852,-3.62339 5.51329,-12.15816 7.40604,-15.21354 0.8564,-1.38245 2.64119,-3.94229 3.96621,-5.68854 2.84664,-3.75161 4.43275,-6.09584 6.8191,-10.07847 3.41916,-5.70632 7.45907,-10.76757 10.69239,-13.39558 2.26602,-1.84179 3.21383,-2.32283 4.57683,-2.32283 0.98796,0 1.11925,0.082 1.46834,0.91755 0.5068,1.21293 0.48241,1.95543 -0.15236,4.6387 -0.72499,3.06468 -1.76363,5.61847 -4.62713,11.37709 -4.1575,8.36093 -6.43709,14.53999 -9.09542,24.65413 -2.12129,8.07088 -2.68992,10.92476 -2.8647,14.37762 -0.19344,3.82141 0.19171,5.17232 2.17299,7.62199 1.76169,2.17818 3.30241,5.29262 4.21083,8.51188 1.13344,4.01669 2.81351,19.08466 3.5991,32.27917 0.50869,8.54376 1.66645,18.1665 2.67399,22.225 1.25369,5.04999 7.82793,26.39719 10.55207,34.26354 3.68867,10.6516 4.95622,15.315648 6.74725,24.826996 1.70662,9.06309 2.90945,12.573185 4.99413,14.573885 2.40941,2.312326 4.31387,0.246618 5.59704,-6.070944 0.27349,-1.346465 0.47753,-4.845235 0.63993,-10.972641 0.13112,-4.947709 0.36842,-9.829276 0.52733,-10.847916 1.0211,-6.54558 2.8816,-11.29263 6.3216,-16.12943 1.829602,-2.57252 6.396272,-7.23667 8.906522,-9.09664 2.78083,-2.06047 7.25298,-4.20267 9.78958,-4.68934 4.93732,-0.94724 6.0787,-1.26667 8.04806,-2.25235 2.34798,-1.1752 5.29467,-3.73787 7.07648,-6.15428 1.32255,-1.79356 2.14917,-4.18968 2.98116,-8.64151 1.87066,-10.00953 4.9042,-15.09493 9.63609,-16.15387 5.92685,-1.32638 9.22031,6.54828 7.32608,17.51664 -0.78569,4.54951 -2.29794,10.18614 -3.30368,12.31384 -1.70968,3.61696 -4.25857,6.83524 -7.12624,8.99776 -3.57209,2.69372 -4.40583,3.82313 -4.92148,6.66676 -0.33929,1.87108 -0.18702,3.73097 0.5438,6.64221 0.80204,3.19497 1.28584,4.26299 7.91026,17.462501 3.46903,6.912239 6.74969,13.639271 7.29035,14.948958 2.16645,5.24801 3.91663,8.140991 6.26628,10.358014 2.63397,2.485258 4.55028,3.167962 11.71867,4.174808 6.94646,0.975651 11.12339,2.347145 15.1461,4.973214 4.94139,3.225773 8.47324,7.900379 9.74677,12.900395 0.69337,2.722245 0.41883,6.917823 -0.63856,9.758574 -1.03418,2.77839 -2.71199,5.6524 -5.2337,8.96501 -3.52399,4.629229 -7.35896,8.174937 -10.70859,9.90084 -1.45295,0.748639 -2.02396,0.88818 -3.96445,0.968799 -4.59071,0.190738 -7.22771,-1.255184 -15.9742,-8.759032 -5.0518,-4.33406 -6.32017,-5.046397 -9.22475,-5.180673 -1.89428,-0.08758 -2.21032,-0.02434 -3.80297,0.759618 -2.29304,1.128845 -4.52295,3.374311 -5.67393,5.713439 -0.86,1.747811 -0.89216,1.925056 -0.8818,4.861296 0.0136,3.870007 0.36305,4.913206 4.59109,13.7072685 4.06976,8.4648146 4.94286,10.9766629 5.45137,15.6832565 0.52298,4.840526 -1.84487,9.447874 -5.76938,11.226033 -6.65425,3.015006 -7.11716,3.28668 -10.71238,6.286923 -2.58911,2.16064 -4.89044,4.781206 -7.75422,8.829887 -2.71828,3.84302 -4.13171,5.38808 -5.7011,6.232048 -1.61601,0.869051 -3.06762,1.077331 -4.59094,0.658707 z m 267.24539,-56.56625 c -6.4526,-0.747633 -14.19413,-4.396502 -18.6409,-8.786177 -3.01657,-2.977833 -4.94596,-6.402308 -6.11092,-10.846382 -1.70932,-6.520604 -1.56821,-12.987629 0.56099,-25.711283 0.90427,-5.403612 1.12102,-11.248443 0.51774,-13.960131 -1.61039,-7.238365 -7.48072,-13.580374 -19.4143,-20.974208 -6.42917,-3.983408 -7.73036,-5.318073 -7.72549,-7.924033 0.009,-4.6337 7.85212,-10.08216 16.74103,-11.62918 5.88952,-1.025 11.74499,-1.16248 24.00231,-0.56354 6.53389,0.31927 7.49195,0.42535 9.39271,1.03992 6.60085,2.13429 14.70456,9.1875 22.53681,19.615339 4.7969,6.386539 7.20294,10.390135 8.42733,14.022917 1.55527,4.614465 3.4553,7.254345 9.23586,12.832291 10.45189,10.085547 11.96594,11.766286 13.71505,15.22484 2.35524,4.657169 2.16606,9.821703 -0.52687,14.38402 -2.89607,4.906433 -10.04546,10.430377 -20.09052,15.522839 -12.49673,6.335342 -23.10152,8.85571 -32.62083,7.752768 z M 213.26138,-196.01891 c -4.63093,-0.28805 -10.42318,-1.73955 -14.72457,-3.6899 -4.29811,-1.94887 -9.60484,-6.25256 -11.90928,-9.6583 -3.42588,-5.06314 -4.67656,-10.2416 -4.66474,-19.31458 0.0106,-8.16758 0.90583,-15.76567 3.01134,-25.55924 0.69329,-3.22477 1.04543,-4.30278 1.83572,-5.61965 1.08987,-1.81609 4.13468,-5.18118 7.93069,-8.76494 8.52343,-8.04684 12.23931,-14.26941 13.90886,-23.29159 0.64635,-3.49286 0.39539,-10.70502 -0.52937,-15.21354 -1.17333,-5.72037 -1.23692,-7.51175 -0.93928,-26.45833 0.27217,-17.32455 0.3529,-19.08612 1.20043,-26.19375 0.6306,-5.28839 0.22728,-7.32248 -1.60357,-8.08746 -1.16872,-0.48833 -9.70929,-1.43576 -13.01692,-1.44401 -5.11472,-0.0128 -7.48681,-1.16112 -7.48681,-3.62443 0,-1.10263 1.74562,-3.86625 3.70416,-5.86432 3.14832,-3.21187 12.08789,-10.73317 15.36959,-12.93119 2.44594,-1.63825 9.80191,-6.04953 15.21714,-9.12554 2.19786,-1.24844 5.47208,-3.19206 7.27604,-4.31914 1.80397,-1.12709 4.96985,-3.09459 7.03529,-4.37223 2.06545,-1.27765 5.68318,-3.5862 8.0394,-5.13013 4.84533,-3.17492 10.8165,-6.74555 13.68158,-8.18128 3.20576,-1.60645 6.30846,-2.4827 12.69027,-3.58393 11.05659,-1.90792 16.6879,-3.34729 22.43137,-5.73345 1.30506,-0.54221 6.48052,-3.06157 11.50099,-5.59858 17.19363,-8.68852 23.7708,-11.20574 33.65204,-12.8793 4.32416,-0.73238 10.67625,-1.2226 13.70838,-1.05794 5.90171,0.32048 7.54406,0.44875 10.31875,0.80593 3.43024,0.44156 10.00024,1.90214 13.07798,2.90736 8.24436,2.69269 9.77837,5.56717 5.61239,10.51676 -0.60256,0.71593 -3.36089,3.36029 -6.1296,5.87638 -5.48756,4.98685 -7.86759,7.49237 -10.71483,11.27976 -3.44445,4.5818 -5.11355,8.57916 -6.22324,14.90418 -1.88481,10.7429 -3.20738,15.14368 -6.48078,21.56423 -1.96906,3.8622 -5.31209,9.23847 -7.18963,11.56239 -2.50904,3.10557 -6.54132,6.23298 -12.90854,10.01175 -8.98285,5.33107 -11.9356,8.00215 -14.33047,12.96338 -0.95864,1.98592 -1.36843,3.42929 -3.22781,11.36893 -1.34102,5.72614 -3.75283,9.46508 -11.25829,17.45316 -6.88922,7.33226 -8.75556,9.92108 -10.68837,14.82601 -2.33463,5.92466 -2.67671,8.82414 -2.6039,22.07004 0.0479,8.72037 -0.0204,11.2311 -0.37057,13.61012 -1.24632,8.46794 -3.69012,12.89219 -12.15157,21.99901 -7.25432,7.80762 -9.34792,10.4961 -12.89891,16.56392 -3.98909,6.81643 -8.61088,14.13957 -10.64251,16.86282 -2.67176,3.58129 -7.49697,8.38811 -10.73317,10.69223 -6.04951,4.30718 -13.75471,7.26874 -20.1459,7.74322 -3.90358,0.28977 -4.64302,0.30094 -7.62978,0.11517 z m -156.897922,-94.9144 c 0,-0.75141 4.49319,-9.44523 6.70296,-12.96947 4.07357,-6.49671 9.22788,-14.12513 14.42685,-21.35183 4.77037,-6.63093 6.99374,-9.57961 11.96131,-15.8633 0.81038,-1.02508 2.1768,-2.75675 3.0365,-3.84816 3.99818,-5.07579 10.749302,-12.36676 13.241612,-14.30046 1.97733,-1.53414 2.63005,-1.44816 4.02527,0.53026 0.61114,0.8666 1.58871,1.9594 2.17238,2.42846 2.12434,1.70716 2.96695,4.7695 2.39279,8.69622 -0.56475,3.86233 -1.82241,6.98064 -5.12196,12.69969 -4.83563,8.38152 -13.585842,17.21618 -21.175342,21.37974 -3.02369,1.65877 -3.98589,1.97652 -8.11445,2.67961 -4.69376,0.79934 -5.81336,1.17555 -7.6847,2.58226 -2.32683,1.74912 -7.73312,7.80758 -10.46103,11.72297 -3.70895,5.32351 -5.40219,7.08313 -5.40219,5.61401 z m 645.451042,-5.51131 c -0.95964,-0.48341 -2.81239,-2.19942 -6.74687,-6.24896 -2.98318,-3.0704 -8.57999,-8.80739 -12.43735,-12.74887 -5.62724,-5.74992 -7.49499,-7.84615 -9.44991,-10.60591 -4.04159,-5.70548 -5.20626,-8.47559 -6.45203,-15.34583 -1.11731,-6.1618 -0.72818,-10.07352 1.16015,-11.66244 0.71625,-0.60269 1.01354,-0.68194 2.19165,-0.58424 1.47222,0.12209 4.54295,1.45038 6.66353,2.8824 4.1719,2.81726 11.05048,8.96848 14.42564,12.90022 5.51603,6.42566 8.94911,11.56608 12.68272,18.99019 4.11059,8.17367 4.5548,9.56764 4.54136,14.25095 -0.0127,4.3878 -1.16197,7.37574 -3.25323,8.45718 -1.07474,0.55577 -1.7765,0.49569 -3.32566,-0.28469 z m -87.3125,-61.07064 c -0.43656,-0.1967 -1.92484,-1.27496 -3.30729,-2.39612 -1.38245,-1.12116 -3.16839,-2.35455 -3.96875,-2.74085 l -1.45521,-0.70238 -6.21771,0.067 c -5.93391,0.0639 -13.6744,-0.35409 -19.05,-1.02877 -9.81879,-1.23233 -19.4325,-5.25206 -24.20937,-10.12253 -2.70685,-2.75987 -4.35869,-6.68258 -4.35713,-10.34694 0,-2.10192 0.59031,-4.79226 1.39991,-6.38992 0.80012,-1.57897 2.96349,-3.6535 4.53474,-4.34854 3.22461,-1.42641 9.03986,-1.05231 14.68565,0.94474 1.68748,0.5969 9.11098,4.48618 12.80578,6.70913 1.72688,1.03897 5.59641,3.718 8.59896,5.95341 3.00254,2.2354 5.99495,4.40645 6.6498,4.82456 0.65484,0.41811 1.7264,1.22184 2.38125,1.78608 0.65484,0.56424 1.63237,1.25179 2.17228,1.5279 1.02441,0.52389 2.45647,0.66788 2.70137,0.27163 0.0783,-0.12672 0.71043,-0.28526 1.40467,-0.35231 2.50447,-0.2419 5.14308,-2.10911 5.64804,-3.99687 0.16316,-0.60993 0.46352,-1.425 0.66743,-1.81126 0.56886,-1.07744 0.44765,-2.55791 -0.44347,-5.41674 -0.97676,-3.13361 -1.11056,-5.70943 -0.38695,-7.44859 0.25911,-0.62271 0.68707,-1.24779 0.95105,-1.38906 1.50849,-0.80732 3.91665,0.31269 7.05315,3.28034 4.12954,3.90722 6.45941,7.60911 6.52375,10.36552 0.031,1.32831 -0.0459,1.55663 -0.72001,2.13725 -0.73376,0.63201 -0.85627,0.64793 -4.41026,0.57327 -3.45053,-0.0725 -3.69749,-0.0435 -4.40462,0.51739 -0.41204,0.3268 -1.18094,0.82774 -1.70871,1.11321 -0.52773,0.28547 -1.03375,0.71243 -1.12448,0.94881 -0.30448,0.79349 -0.16888,2.14423 0.37331,3.71853 1.04499,3.03431 1.37932,4.94304 1.33955,7.64819 -0.0774,5.26499 -1.45764,7.30656 -4.12673,6.10393 z"
       style="fill:#81513a;fill-opacity:1;stroke-width:0.26458332" />
    <path
       style="fill:#000000;fill-opacity:0.313725;stroke-width:0.264583"
       d="m 398.08938,292.655 c 47.30245,-0.13314 94.76301,-8.8196 140.0111,-26.294 2.21524,-0.85551 4.41954,-1.73021 6.61304,-2.6231 0.87088,-0.3545 1.73862,-0.714 2.60604,-1.07435 0.44372,-0.18476 0.88762,-0.36917 1.33067,-0.55552 0.29135,-0.12229 0.58185,-0.24603 0.87281,-0.36897 8.91072,-3.77283 17.68377,-7.86701 26.28935,-12.27006 0.0525,-0.0268 0.10517,-0.0532 0.15762,-0.0801 0.56413,-0.28895 1.12661,-0.58069 1.6893,-0.87229 0.57366,-0.29786 1.1469,-0.59607 1.71876,-0.89659 0.2412,-0.12648 0.48254,-0.25285 0.72347,-0.37982 C 698.89971,184.49418 778.57098,64.387261 788.30226,-71.477817 798.3102,-211.20546 733.16799,-345.4053 618.18707,-423.88628 c -0.10245,-0.0699 -0.20548,-0.13893 -0.30799,-0.20875 -0.77386,-0.52713 -1.54968,-1.05201 -2.32803,-1.57409 -0.20505,-0.1375 -0.41067,-0.27419 -0.61598,-0.41132 -0.70685,-0.47217 -1.41544,-0.94229 -2.12597,-1.41025 -0.20522,-0.13518 -0.4105,-0.27036 -0.61598,-0.40516 -0.7453,-0.48887 -1.49291,-0.9756 -2.24224,-1.45984 -0.1518,-0.0981 -0.30334,-0.19666 -0.45527,-0.29456 -0.82909,-0.53417 -1.66044,-1.06524 -2.49442,-1.59372 -0.0886,-0.0561 -0.17702,-0.11239 -0.26562,-0.16846 -59.57074,-37.68172 -129.0486,-58.86738 -199.15217,-60.72447 -4.36565,-0.11564 -8.31437,-0.22894 -8.7752,-0.25164 -0.51445,-0.0254 -1.65931,-0.0156 -3.02977,0.008 78.84089,15.24439 150.60082,62.67172 202.59744,133.97794 52.52714,72.03373 81.44059,163.70432 81.54128,258.527887 -0.0376,94.5745178 -28.73924,186.047381 -80.96922,258.051433 -51.70403,71.279 -123.12632,118.86944 -201.70551,134.47809 0.28231,-1.8e-4 0.56465,10e-4 0.84696,5.3e-4 z"
       id="path841"
       inkscape:transform-center-x="-195.66895"
       inkscape:transform-center-y="0.0010065718" />
  </g>
</svg>
