<?xml version="1.0" encoding="UTF-8" standalone="no"?>
<!-- Created with Inkscape (http://www.inkscape.org/) -->

<svg
   width="3000"
   height="3000"
   viewBox="0 0 793.74998 793.75002"
   version="1.1"
   id="svg8"
   inkscape:version="1.3 (0e150ed6c4, 2023-07-21)"
   sodipodi:docname="Mercury.svg"
   inkscape:export-filename="G:\Pictures\My Pictures\Vectors and SVGs\Space\Mercury.png"
   inkscape:export-xdpi="96"
   inkscape:export-ydpi="96"
   xmlns:inkscape="http://www.inkscape.org/namespaces/inkscape"
   xmlns:sodipodi="http://sodipodi.sourceforge.net/DTD/sodipodi-0.dtd"
   xmlns="http://www.w3.org/2000/svg"
   xmlns:svg="http://www.w3.org/2000/svg"
   xmlns:rdf="http://www.w3.org/1999/02/22-rdf-syntax-ns#"
   xmlns:cc="http://creativecommons.org/ns#"
   xmlns:dc="http://purl.org/dc/elements/1.1/">
  <defs
     id="defs2" />
  <sodipodi:namedview
     id="base"
     pagecolor="#000720"
     bordercolor="#666666"
     borderopacity="1.0"
     inkscape:pageopacity="0"
     inkscape:pageshadow="2"
     inkscape:zoom="0.1767767"
     inkscape:cx="1207.7384"
     inkscape:cy="1620.6887"
     inkscape:document-units="mm"
     inkscape:current-layer="layer1"
     showgrid="false"
     inkscape:pagecheckerboard="false"
     inkscape:showpageshadow="false"
     borderlayer="true"
     units="px"
     inkscape:snap-object-midpoints="true"
     inkscape:window-width="1600"
     inkscape:window-height="837"
     inkscape:window-x="-8"
     inkscape:window-y="-8"
     inkscape:window-maximized="1"
     inkscape:snap-page="true"
     inkscape:snap-global="false"
     inkscape:deskcolor="#505050" />
  <metadata
     id="metadata5">
    <rdf:RDF>
      <cc:Work
         rdf:about="">
        <dc:format>image/svg+xml</dc:format>
        <dc:type
           rdf:resource="http://purl.org/dc/dcmitype/StillImage" />
      </cc:Work>
    </rdf:RDF>
  </metadata>
  <g
     inkscape:label="Layer 1"
     inkscape:groupmode="layer"
     id="layer1"
     transform="translate(0,496.75002)">
    <path
       inkscape:connector-curvature="0"
       id="path836"
       d="M 366.83242,286.58303 C 274.11456,279.20879 187.81673,239.56494 122.67091,174.41911 61.456419,113.20463 22.393984,32.608812 12.104821,-53.707051 c -3.3430998,-28.04528 -3.3430998,-64.157999 0,-92.203279 8.219077,-68.9499 36.051026,-136.57827 78.860795,-191.62248 22.319504,-28.69812 53.130374,-58.31626 81.438144,-78.28559 26.4061,-18.62782 56.75559,-34.96452 84.98737,-45.74748 45.1153,-17.23152 90.33863,-25.4966 139.50758,-25.4966 43.99878,0 81.58652,6.04237 123.87311,19.91305 20.88046,6.84912 46.13337,18.32556 70.55555,32.06467 10.34011,5.817 32.34368,20.55175 42.0928,28.18756 25.33519,19.84328 50.72165,45.20321 70.26354,70.19012 6.5063,8.31916 19.1077,26.6672 24.76292,36.05559 13.58584,22.55422 29.29554,56.63234 36.59116,79.375 13.32223,41.52947 19.11471,78.33878 19.11471,121.467798 0,64.864087 -13.98136,121.9183 -43.91243,179.195076 -19.52358,37.360726 -40.04384,65.262756 -69.88831,95.029236 -30.69909,30.61887 -62.76323,53.69007 -102.27565,73.59069 -42.37163,21.34066 -91.67363,34.69668 -142.63064,38.63892 -11.86388,0.91784 -46.75638,0.88081 -58.61305,-0.0622 z"
       style="fill:#a4988a;stroke-width:0.80176765;fill-opacity:1" />
    <path
       inkscape:connector-curvature="0"
       id="path834"
       d="m 370.44038,285.90548 c -3.3073,-0.28639 -6.39117,-0.75486 -6.85308,-1.04104 -0.4619,-0.28617 -4.79144,-0.74133 -9.62121,-1.01145 C 328.22498,282.41334 286.1801,272.06166 252.98141,258.99002 241.711,254.5524 217.12196,242.78606 206.61464,236.80259 176.3056,219.54287 149.88169,199.2408 123.86545,173.22457 101.38998,150.74909 84.964778,130.27274 68.851669,104.64207 53.490095,80.206841 38.956775,49.365524 32.086646,26.622614 30.862372,22.569767 27.973875,13.120285 25.667764,5.6237572 14.982318,-29.111673 9.7063061,-66.828893 10.807365,-100.61046 c 0.903842,-27.73074 2.521057,-45.29427 6.05367,-65.74495 0.875986,-5.07118 1.595095,-9.49398 1.598019,-9.82844 0.0029,-0.33447 0.671192,-0.19228 1.48504,0.31597 1.207331,0.75399 1.958687,0.57076 4.081605,-0.99541 l 2.601881,-1.91952 1.761329,2.20486 c 0.968731,1.21268 2.15434,2.20487 2.634688,2.20487 1.477663,0 4.316337,-7.78324 4.824884,-13.22916 0.464165,-4.97063 0.406806,-5.19339 -1.526538,-5.92844 -1.104853,-0.42007 -2.239969,-1.36611 -2.522479,-2.10232 -0.991372,-2.58348 2.013521,-18.21166 6.817167,-35.4555 5.226146,-18.76052 12.664524,-38.86138 19.359542,-52.31564 16.20838,-32.57225 54.228757,-80.42866 85.964837,-108.2043 16.42999,-14.37964 37.35297,-29.73966 52.1149,-38.25867 36.85618,-21.26948 51.92956,-27.99344 85.78914,-38.26904 43.5901,-13.22858 74.68133,-18.12456 115.0975,-18.12456 59.23435,0 118.77248,13.85621 169.53002,39.45443 39.01193,19.67464 70.23747,41.73107 101.14828,71.44695 7.87869,7.57412 14.84288,15.77791 13.39385,15.77791 -0.2515,0 -4.11785,-3.54845 -8.59187,-7.88545 -9.51625,-9.22479 -19.27407,-16.61317 -33.92379,-25.68625 -16.94288,-10.49333 -19.36974,-11.42591 -31.81123,-12.22432 -5.80241,-0.37236 -14.04905,-1.28441 -18.32587,-2.02677 -6.36958,-1.10563 -8.00101,-1.16305 -9.01989,-0.31746 -1.68215,1.39607 -1.68001,1.41593 1.9287,17.96071 1.7449,7.99979 3.59404,17.23532 4.1092,20.5234 0.73799,4.71037 2.02068,8.05544 6.04778,15.77177 5.36949,10.28848 6.0109,12.87263 3.70804,14.93911 -2.62787,2.35814 -6.656,2.40319 -17.88214,0.19998 -11.90845,-2.33711 -22.98896,-3.33452 -27.54622,-2.47958 -4.91461,0.92199 -6.08522,2.75811 -6.08522,9.54479 0,7.6897 -1.71305,12.56 -5.67764,16.14176 -1.73053,1.56343 -3.51859,2.84261 -3.97347,2.84261 -0.45489,0 -4.93209,1.62358 -9.94933,3.60795 -7.79783,3.08413 -9.95108,3.60795 -14.83086,3.60795 -11.78061,0 -17.9778,-5.67816 -17.93861,-16.43623 0.0488,-13.40667 4.49095,-17.77049 23.38439,-22.97226 3.37433,-0.92902 7.57195,-2.09345 9.32806,-2.5876 4.41714,-1.24297 5.2144,-3.71471 3.41323,-10.58206 -2.35257,-8.96972 -6.35161,-16.25564 -14.38179,-26.20244 -4.1861,-5.18522 -10.39583,-13.55657 -13.79941,-18.60298 -9.53674,-14.13996 -12.21836,-15.9504 -28.55355,-19.27731 -19.42273,-3.95574 -36.67294,-11.09079 -39.09536,-16.17066 -1.16589,-2.44491 -1.15801,-3.01531 0.0967,-6.9958 0.96242,-3.05318 1.22789,-5.71939 0.89832,-9.02251 -0.72193,-7.23585 -0.9799,-7.95343 -3.22726,-8.97739 -3.75731,-1.71195 -13.07631,-2.01737 -19.98954,-0.65513 -11.16409,2.19985 -14.43838,2.28534 -52.22392,1.36346 -38.00034,-0.92713 -47.30596,-0.61737 -59.92612,1.99473 -3.03323,0.62782 -7.06325,1.891 -8.95561,2.80708 -4.17069,2.01899 -23.41178,20.9473 -24.10628,23.7144 -0.6611,2.63408 0.62337,3.94119 5.97784,6.08317 4.05304,1.62137 5.86303,1.81026 16.96452,1.77048 13.71061,-0.0491 17.19054,-0.59815 32.47159,-5.12292 13.39339,-3.96583 17.69216,-4.81616 24.34786,-4.81616 10.25467,0 16.49269,3.37659 20.47889,11.08505 1.94711,3.7653 8.04586,8.60011 12.68171,10.05348 2.32521,0.72897 9.45918,1.87009 15.85328,2.53583 14.8098,1.54197 19.33751,2.72236 29.41572,7.66879 9.36153,4.59469 14.76036,9.08005 20.06268,16.66815 5.06946,7.25485 8.20454,10.49273 16.92273,17.47756 8.11071,6.49813 12.1721,11.83073 12.1721,15.98196 0,5.54958 -1.24576,6.39914 -13.82311,9.42676 -13.68001,3.29305 -21.17451,8.06462 -25.68597,16.35366 -3.04131,5.58789 -3.39675,9.25087 -1.47419,15.19217 0.8871,2.74143 2.0191,7.97297 2.51554,11.62563 1.13515,8.35193 2.88552,12.34229 7.64679,17.43247 4.8188,5.15169 11.55156,9.37934 25.59633,16.0725 6.18083,2.94553 13.66728,6.84792 16.63657,8.67198 16.55682,10.17104 21.86694,11.73669 39.09941,11.52814 14.86212,-0.17986 14.56007,-0.23444 40.89015,7.38778 28.93923,8.37753 30.05129,8.8584 40.08838,17.33484 9.35237,7.89819 13.91521,9.90286 28.06187,12.32888 6.3941,1.09653 16.30493,3.45473 22.02408,5.24045 13.82465,4.31655 27.2023,7.25784 32.99355,7.25416 8.51881,-0.006 11.78711,-3.82905 14.19773,-16.61014 0.90076,-4.7758 2.37368,-8.73698 5.36489,-14.42791 3.55543,-6.76438 4.05615,-8.26886 3.63599,-10.92489 -0.62143,-3.92837 -2.85384,-8.30509 -7.83483,-15.36045 -7.97519,-11.29652 -32.11786,-48.19764 -33.57177,-51.31313 -0.82315,-1.76389 -1.50457,-4.12796 -1.51425,-5.25348 -0.0261,-3.0308 7.51031,-12.50031 10.81702,-13.59162 2.72302,-0.89867 3.86341,-0.61648 14.97654,3.70599 3.24066,1.26046 4.15322,1.32219 6.57896,0.44503 3.87279,-1.40042 6.17287,-0.0902 14.26299,8.12467 3.93959,4.00035 7.11482,6.56941 8.11947,6.56941 2.01268,0 7.37496,8.51838 17.16009,27.2601 29.79588,57.06879 44.32363,116.06551 44.32363,179.996838 0,41.513887 -5.4604,76.857057 -18.20896,117.859848 -5.79468,18.637275 -18.15368,48.586184 -20.35055,49.314405 -0.70251,0.232874 -2.37391,1.950436 -3.71422,3.816807 -3.24452,4.517993 -15.41553,27.317251 -19.14594,35.865002 -3.38248,7.7505 -11.40396,20.13789 -20.19184,31.18179 -4.9025,6.16105 -6.12536,7.29046 -6.72794,6.2137 -0.40504,-0.72377 -1.19302,-1.31594 -1.75108,-1.31594 -0.55804,0 -5.86185,5.12227 -11.78623,11.38283 -5.92437,6.26055 -17.44631,18.28039 -25.6043,26.71074 -8.15798,8.43036 -16.06117,17.11076 -17.56263,19.28978 -2.88368,4.18499 -5.21079,6.13675 -18.11414,15.19248 -32.00972,22.46481 -65.6,39.64012 -99.0202,50.6308 -27.0227,8.88678 -37.82375,11.28554 -75.36616,16.73778 -19.42798,2.8215 -57.84697,4.28178 -74.56439,2.83415 z m 48.6736,-14.47758 c 8.66732,-2.08266 14.40586,-4.50431 22.68372,-9.57246 3.74826,-2.29488 9.07,-5.23314 11.82607,-6.52944 2.75608,-1.2963 7.31974,-3.44032 10.14147,-4.76448 6.56598,-3.08124 10.40346,-7.25455 9.87018,-10.73397 -1.06512,-6.94943 -4.17045,-17.53902 -6.60887,-22.53712 -1.50596,-3.08681 -2.97224,-6.87516 -3.2584,-8.41856 -0.76281,-4.11421 -3.91986,-10.03763 -8.91266,-16.72242 -9.24044,-12.37192 -10.4582,-19.02376 -6.25918,-34.18983 1.55989,-5.63402 2.24249,-10.04379 2.29598,-14.8327 0.0814,-7.284 -0.82733,-10.03765 -4.41919,-13.39134 -4.15397,-3.87855 -7.24083,-4.49583 -25.52136,-5.10348 -13.47455,-0.44791 -18.37579,-0.91243 -22.44949,-2.12768 -8.02234,-2.39321 -16.96958,-6.38142 -24.0417,-10.71654 -3.53401,-2.16631 -9.30014,-5.70108 -12.81362,-7.85505 -3.51349,-2.15396 -9.37641,-6.670411 -13.02873,-10.036552 -8.92577,-8.226385 -14.67582,-11.075025 -22.43797,-11.116052 -6.3276,-0.03343 -12.27303,1.410486 -20.93223,5.083672 -16.29752,6.913322 -28.16694,4.111321 -44.81769,-10.580046 -5.23738,-4.62106 -11.07964,-8.904456 -14.97852,-10.981868 -10.34633,-5.512754 -17.66945,-12.474767 -22.07951,-20.990727 -5.14632,-9.937741 -23.51637,-57.515229 -26.42164,-68.430718 -2.62183,-9.850534 -6.07091,-16.703098 -15.42737,-30.650753 -10.95626,-16.332464 -10.92143,-18.941489 0.32114,-24.064896 7.30954,-3.331064 8.75634,-4.513535 10.69917,-8.744415 4.04436,-8.807362 -0.5343,-16.937165 -11.49458,-20.409625 -4.44226,-1.40741 -7.0417,-4.92901 -7.0417,-9.53978 0,-4.03342 1.38788,-6.73187 4.25029,-8.26378 0.96951,-0.51886 5.918,-1.18265 10.99666,-1.47508 8.99258,-0.5178 9.45481,-0.63824 17.68583,-4.60843 9.21357,-4.44411 14.37151,-8.98699 14.37151,-12.65777 0,-5.77177 -9.53363,-17.51152 -17.49837,-21.54756 -2.77955,-1.4085 -6.90265,-2.5014 -12.28795,-3.25715 -10.43071,-1.46379 -15.95686,-4.03991 -18.66197,-8.69962 -2.19833,-3.78676 -2.58537,-5.62631 -3.6126,-17.17014 -0.83909,-9.42938 -2.51535,-13.78642 -8.80348,-22.88253 -4.25012,-6.14801 -7.35506,-8.59523 -10.90531,-8.59523 -5.80862,0 -18.14056,9.89662 -22.37799,17.95875 -3.1107,5.9184 -2.80379,9.72218 1.45653,18.05176 6.9201,13.52983 8.2157,22.12111 5.76398,38.22161 -0.73017,4.79504 -0.96204,10.6934 -0.67848,17.25933 0.32839,7.60389 0.10634,11.57597 -0.93418,16.71114 -2.00232,9.88189 -3.42602,12.06257 -7.87531,12.06257 -2.35836,0 -8.13627,-6.31043 -11.03416,-12.05113 -4.42022,-8.75641 -4.72798,-11.44726 -4.55691,-39.84303 0.15185,-25.20509 0.11489,-25.87748 -1.51213,-27.5045 -1.44323,-1.44324 -1.95185,-1.53838 -3.77741,-0.7066 -4.588057,2.09046 -7.570954,8.45844 -12.174968,25.99149 -3.898828,14.84756 -5.827769,20.05557 -8.479624,22.89438 -4.175802,4.47022 -7.812995,2.89078 -10.703628,-4.64802 -2.846411,-7.42347 -7.182375,-12.98989 -11.96618,-15.36196 -3.677661,-1.82358 -4.163929,-1.87236 -9.620651,-0.96512 -8.838873,1.46956 -8.837367,1.46895 -10.802523,4.38267 -2.580213,3.82565 -4.533345,9.27315 -7.734586,21.57258 -3.831836,14.72222 -4.348511,18.66491 -5.463154,41.688672 -1.521143,31.420297 -1.279631,40.840418 1.340855,52.299931 4.460513,19.506029 10.818831,35.1766263 17.051286,42.0242915 4.203377,4.6183021 5.381316,4.1201558 8.510444,-3.59902277 3.391803,-8.36716733 6.846886,-11.28807073 10.511886,-8.88667273 1.014696,0.6648578 4.143783,5.6557173 6.953527,11.0907962 2.853587,5.5198898 6.654441,11.5451418 8.610551,13.6497588 3.515365,3.78225 3.951984,3.989964 15.44117,7.346068 4.875855,1.424292 10.326835,4.714923 13.769075,8.312077 4.30613,4.49993 14.2637,19.179518 18.14091,26.743595 5.55453,10.836355 6.32179,14.841481 4.64334,24.238407 -0.73246,4.100681 -1.33174,8.910781 -1.33174,10.68911 0,4.437199 3.4078,10.833189 11.60166,21.774779 3.7337,4.98574 7.12774,10.29349 7.54232,11.79499 0.41459,1.50149 0.56269,4.83755 0.32911,7.41346 -0.81684,9.00824 2.82667,13.07889 19.33308,21.59955 6.39572,3.3015 14.65783,8.54236 21.64772,13.7317 12.07831,8.96701 24.91706,17.60891 37.7226,25.39151 5.56698,3.38335 10.19634,7.09038 15.60336,12.49462 14.10102,14.09379 30.61494,24.82486 49.37987,32.088 2.20486,0.85341 9.42077,3.19448 16.03536,5.20239 14.99647,4.55229 22.54357,8.06108 33.71815,15.67621 9.41654,6.41707 12.69024,7.67518 25.82514,9.92482 17.99337,3.08176 37.83609,3.24124 49.66377,0.39916 z m 277.3788,-137.60816 c 7.88597,-8.36156 17.88816,-27.11084 15.65446,-29.34454 -4.26701,-4.26701 -20.64835,14.8426 -23.4877,27.39954 -1.25308,5.54165 3.36071,6.68726 7.83324,1.945 z m -590.30671,-26.2198 c 2.1194,-1.54974 2.52058,-7.42834 0.89149,-13.062969 -2.36715,-8.187347 -9.736825,-18.611009 -16.750223,-23.69149 -5.772102,-4.18129 -12.532158,-2.371709 -12.532158,3.354709 0,6.309101 6.880489,20.975212 12.962194,27.62957 5.708706,6.24623 11.708827,8.49022 15.428697,5.77018 z m 406.59393,-2.165 c 5.89826,-2.0293 11.31189,-5.07842 20.22154,-11.389365 13.5094,-9.569089 19.4401,-16.816564 19.4401,-23.756336 0,-2.004227 -0.96797,-4.981743 -2.68031,-8.244777 -1.47417,-2.809162 -5.05078,-9.617516 -7.94802,-15.129669 -2.89724,-5.512153 -5.70584,-11.645676 -6.24134,-13.630051 -0.58711,-2.175628 -1.01263,-9.814686 -1.07186,-19.242424 -0.0885,-14.08331407 -0.26574,-15.9964681 -1.78649,-19.2831624 -2.40395,-5.1954866 -5.96787,-8.9442146 -13.43801,-14.1348186 -8.02505,-5.576174 -11.36064,-6.870123 -15.0427,-5.835402 -4.27195,1.200487 -11.31428,7.333456 -13.92872,12.130144 -2.9595,5.4297385 -3.05989,11.7544908 -0.34146,21.510865 1.59606,5.728197 1.89919,8.669033 1.90078,18.440657 0.002,10.746341 -0.22068,12.504922 -2.94078,23.251263 -4.14861,16.389919 -4.83468,20.804772 -4.85925,31.268939 -0.0445,18.964997 4.69996,25.596727 18.3426,25.638957 3.65089,0.0113 7.36541,-0.55974 10.37392,-1.59482 z M 774.42403,-59.92075 c 1.25421,-3.991095 1.95349,-11.48363 1.3647,-14.622174 -0.66422,-3.540606 -2.5315,-3.66557 -3.14586,-0.210528 -0.88199,4.960063 -1.52834,14.933789 -1.04879,16.183496 0.77363,2.016037 1.94807,1.455449 2.82995,-1.350794 z m -256.36706,-2.547938 c 14.27676,-2.546606 22.33526,-9.596638 23.63786,-20.679737 1.52881,-13.007798 -7.12023,-24.826015 -17.21869,-23.527935 -7.11888,0.91507 -10.77787,4.72181 -14.85324,15.453052 -1.20711,3.17856 -2.98077,6.876553 -3.94147,8.217766 -0.96071,1.341213 -3.12785,4.376866 -4.81588,6.745913 -4.10546,5.761743 -4.72589,10.019827 -1.8753,12.870416 1.8216,1.8216 2.70843,2.062066 7.51375,2.037396 2.99661,-0.01539 8.19544,-0.517974 11.55297,-1.116871 z M 245.02396,-292.62672 c 7.47992,-4.38353 9.24414,-13.23626 2.6378,-13.23626 -3.45835,0 -5.91141,1.25245 -9.85626,5.03228 -2.8201,2.70213 -3.66563,4.08962 -3.66563,6.01519 0,4.51846 5.14373,5.55286 10.88409,2.18879 z m 440.16178,-62.71084 c -0.43511,-1.14268 -0.34302,-1.23477 0.44882,-0.44883 0.54795,0.54387 0.79429,1.19082 0.54744,1.43768 -0.24686,0.24685 -0.69518,-0.19813 -0.99626,-0.98885 z"
       style="fill:#988977;stroke-width:0.80176765;fill-opacity:1" />
    <path
       inkscape:connector-curvature="0"
       id="path832"
       d="m 370.84126,285.24506 c -6.495,-0.39601 -7.26701,-1.53677 -1.52547,-2.25413 7.28674,-0.91042 49.50022,0.96404 48.75795,2.16507 -0.40082,0.64854 -36.92658,0.71741 -47.23248,0.0891 z m -40.48927,-5.00625 C 272.68153,269.8353 221.53067,248.67839 174.40818,215.73765 128.85756,183.89573 89.761481,140.9487 61.961173,92.214667 48.790228,69.125954 32.192842,31.102523 34.628414,29.597252 c 2.645173,-1.634804 7.342644,7.114013 17.908055,33.352894 7.354162,18.263843 13.503355,28.769926 28.860314,49.308714 16.743467,22.39314 27.210967,32.65039 42.616227,41.76021 9.75152,5.76652 13.0967,8.36426 27.63931,21.46363 12.82868,11.55553 26.44228,22.18393 34.90087,27.24777 5.91086,3.53861 13.97515,7.26177 27.05373,12.49028 15.01948,6.00445 24.25519,10.82136 32.55947,16.98151 10.11664,7.50457 15.08233,10.20801 30.86824,16.80544 16.58235,6.93027 16.21235,6.73824 29.26433,15.1883 12.00349,7.77125 20.06734,11.59358 30.86806,14.63175 3.96875,1.11637 8.47869,2.39276 10.02209,2.8364 l 2.80619,0.80664 -3.60795,0.005 c -1.98438,0.002 -9.20029,-1.0039 -16.03536,-2.23692 z m 134.27916,-2.72905 c -1.23157,-0.90054 -1.33755,-1.34305 -0.54919,-2.29296 1.84847,-2.22727 16.30281,-7.9215 27.26656,-10.74155 13.68786,-3.52074 16.94009,-5.19655 18.57802,-9.57285 0.67323,-1.79879 2.66725,-5.36327 4.43113,-7.92108 l 3.20708,-4.65055 -0.25675,-12.52017 c -0.31002,-15.1187 -0.9337,-18.31748 -4.78596,-24.54669 -2.43549,-3.93824 -2.96497,-5.53758 -2.91979,-8.81944 0.10378,-7.53786 3.09686,-11.33475 16.30102,-20.67874 6.65144,-4.70693 9.70788,-7.42767 11.22475,-9.9919 7.65489,-12.94043 15.24587,-20.17919 30.54721,-29.12986 27.26316,-15.94784 32.21218,-21.29446 45.20719,-48.839026 3.90803,-8.283583 7.02565,-13.694151 21.17541,-36.74959 2.25595,-3.675808 5.40815,-10.054993 7.00489,-14.17595 1.59674,-4.120958 4.90601,-10.854949 7.35393,-14.964425 10.34847,-17.372622 12.37211,-24.434712 8.91332,-31.1055794 -2.72866,-5.2626906 -6.06166,-6.9177396 -13.08593,-6.4980056 -3.08681,0.184454 -7.77715,0.340871 -10.42298,0.347598 -8.99287,0.02285 -14.53898,-4.64557 -21.03471,-17.705909 l -3.68134,-7.401726 -0.63534,-16.493805 c -0.68954,-17.900529 -1.42302,-22.011305 -5.94339,-33.309614 -4.44668,-11.114108 -3.94575,-14.452558 3.73434,-24.887608 5.06079,-6.87616 6.70368,-10.72882 8.33496,-19.54591 1.62778,-8.79819 6.73444,-24.38157 10.56219,-32.23142 3.36802,-6.90706 8.96714,-12.54874 13.72576,-13.8301 6.24286,-1.68102 14.24785,1.72851 20.12873,8.57334 8.08735,9.413 16.58394,32.23141 19.24184,51.67586 0.88581,6.4803 2.14474,13.06083 2.79762,14.6234 1.73733,4.15801 5.13588,8.766362 12.45571,16.889672 8.75914,9.720583 11.21447,14.772689 11.83508,24.351897 0.26317,4.061875 0.009,13.310666 -0.56547,20.552857 -1.23306,15.553083 -0.95968,16.545382 3.88732,14.109933 1.61049,-0.809216 4.37134,-1.930176 6.13523,-2.49102 5.1951,-1.651842 10.74582,-4.70527 16.31962,-8.977353 6.23969,-4.782464 8.47143,-5.7586 10.58263,-4.628717 3.14296,1.682061 2.97229,7.437887 -0.44439,14.987804 -1.15024,2.541716 -4.51542,6.956136 -8.56396,11.234152 -6.33789,6.697142 -6.90449,7.604254 -11.40727,18.2625278 -2.60596,6.1684397 -6.4896,15.0950492 -8.6303,19.8369032 -5.09705,11.290428 -6.79043,18.253011 -5.548,22.811365 0.50535,1.85408 1.81315,4.433911 2.90623,5.732951 1.09307,1.299048 2.20518,3.450784 2.47135,4.781647 0.81966,4.098259 -2.53863,12.138305 -9.99683,23.933358 -3.8564,6.098846 -9.06403,14.579472 -11.57252,18.845822 -2.50848,4.26635 -8.52495,12.714461 -13.36994,18.773561 -11.48167,14.35889 -16.49991,23.96993 -18.09015,34.64661 -0.61101,4.10231 -1.9225,9.08374 -2.91441,11.06985 -2.81992,5.64635 -9.86828,12.81672 -17.83357,18.14228 -9.97797,6.67125 -15.52242,11.58978 -23.46866,20.81927 -8.80131,10.22264 -14.53581,18.6088 -15.18664,22.20902 -0.28664,1.5856 -0.9912,3.81285 -1.56571,4.94944 -2.01751,3.9914 -12.43035,11.49662 -25.85105,18.63255 -26.79388,14.24657 -62.45445,27.09325 -91.79418,33.06874 -11.01619,2.24361 -14.07353,2.40187 -16.21069,0.83914 z M 654.11477,125.4371 c 5.77391,-2.88526 11.00703,-8.42918 12.22451,-12.95051 1.66284,-6.17533 -0.044,-9.42448 -4.37927,-8.3364 -2.48825,0.62451 -15.28687,12.57855 -16.9868,15.86584 -2.1931,4.241 -1.03435,7.8773 2.51019,7.8773 0.94381,0 3.92792,-1.1053 6.63137,-2.45623 z M 297.99744,40.938112 c -7.15892,-2.943426 -40.94872,-21.939066 -44.62858,-25.088882 -6.48783,-5.55334 -7.79844,-10.7562672 -5.56401,-22.0884434 0.88722,-4.4996726 1.9421,-11.7891756 2.34418,-16.1988976 0.90897,-9.96873 3.73882,-18.260724 11.62447,-34.061785 8.12588,-16.282426 9.581,-20.411474 12.01308,-34.088468 1.17622,-6.614583 3.57575,-18.301216 5.3323,-25.970296 2.89383,-12.63456 3.11171,-14.33876 2.32042,-18.15036 -1.78101,-8.57907 -11.06766,-21.16975 -25.86113,-35.06206 -16.64426,-15.63037 -17.51102,-19.17367 -8.98169,-36.71724 6.21065,-12.77439 7.132,-15.76725 8.73087,-28.36127 1.90104,-14.97399 2.26375,-15.50312 24.42758,-35.63561 4.06591,-3.69326 10.74502,-10.72877 14.84248,-15.63447 9.57328,-11.46163 30.94305,-32.20776 36.66108,-35.59117 2.43409,-1.44027 6.40794,-3.03448 8.83077,-3.54267 3.89049,-0.81604 4.76729,-0.74427 7.50474,0.61427 5.32726,2.64379 6.41784,4.94542 6.35936,13.42114 -0.0279,4.04775 -0.34717,10.1104 -0.70943,13.47257 -1.48132,13.74801 0.78862,16.29149 21.77966,24.40435 12.58705,4.86478 17.07442,7.23108 28.64226,15.10378 10.43408,7.1011 12.68579,8.04319 32.86248,13.7494 11.06871,3.13037 31.42812,10.93112 39.3445,15.07494 15.86653,8.30531 26.80263,30.248 23.34359,46.83764 -1.58779,7.6151 -6.16773,16.17245 -11.98231,22.38825 -6.11949,6.54176 -8.45277,7.89601 -17.04177,9.89118 -11.51557,2.675 -16.72475,4.65258 -20.28682,7.70158 -6.16786,5.27946 -6.74546,8.57734 -4.40992,25.17903 1.88953,13.43129 1.20857,22.719448 -2.55465,34.844693 -2.9385,9.467962 -2.98684,9.838323 -3.03506,23.251263 -0.0269,7.496527 0.10011,18.139993 0.28236,23.652146 0.31446,9.510897 0.19673,10.470108 -2.30807,18.805413 -3.05241,10.1576424 -6.19858,16.76979632 -9.43633,19.8319476 -3.06816,2.9017656 -11.29792,6.6555777 -19.11774,8.7201054 -5.52861,1.459626 -9.74924,1.772492 -30.57126,2.266157 l -24.15711,0.572742 -5.10741,2.522522 c -3.19582,1.5784 -8.15469,5.313362 -13.2492,9.979153 -16.0694,14.717079 -26.79123,18.616083 -38.24369,13.90735 z M 20.932971,-13.685478 c 0.03847,-0.934019 0.228456,-1.123998 0.484401,-0.484404 0.231608,0.578772 0.203123,1.270305 -0.0633,1.536724 -0.266421,0.266419 -0.455918,-0.207129 -0.421105,-1.05232 z m -1.936772,-8.151307 c -4.475543,-21.33196 -7.883004,-51.610283 -7.637479,-67.865802 l 0.110259,-7.299918 0.64602,7.616793 c 0.945887,11.152308 2.960033,27.193418 5.603125,44.624545 2.332578,15.383292 3.741628,29.138081 2.984926,29.138081 -0.221753,0 -0.989836,-2.796165 -1.706851,-6.213699 z M 753.58305,-214.98574 c -0.6052,-0.72932 -3.29601,-2.31119 -5.97956,-3.51526 -4.14783,-1.86107 -5.12424,-2.71386 -6.51415,-5.68942 -2.63972,-5.6512 -9.05174,-27.98177 -9.05174,-31.52371 0,-6.35295 6.03696,-0.38265 15.32059,15.1514 9.1239,15.26678 12.94336,26.90303 8.83061,26.90303 -0.82795,0 -2.00053,-0.59672 -2.60575,-1.32604 z m -630.95174,-31.87262 c -1.57799,-0.54659 -4.64475,-2.35521 -6.81503,-4.01915 l -3.94598,-3.02534 -8.00243,0.27782 -8.002443,0.27783 -1.350402,-2.80619 c -2.64083,-5.48776 -3.341631,-12.35568 -2.855888,-27.98789 0.661811,-21.29817 1.158939,-22.76447 16.204343,-47.79481 10.63209,-17.68812 12.8024,-21.97665 11.6865,-23.09254 -3.34573,-3.34573 3.45484,-13.47779 21.54575,-32.10067 12.82669,-13.20386 35.3928,-30.58559 53.75118,-41.40227 8.54031,-5.03192 9.90476,-4.80998 5.18193,0.84287 -4.81063,5.75795 -3.28473,6.90531 9.41331,7.07808 5.91588,0.0805 8.3285,0.57264 15.92567,3.24868 4.92446,1.7346 10.80691,4.38184 13.07209,5.88277 9.30865,6.16795 12.60215,6.63979 34.99015,5.01278 30.61512,-2.22489 39.21002,-1.37775 40.55916,3.99766 0.89248,3.55593 -0.88833,5.73187 -9.11783,11.14091 -9.30659,6.11699 -12.45975,9.36158 -20.00475,20.58478 -8.71505,12.96364 -14.27378,17.58927 -35.0923,29.20167 -17.53402,9.78032 -39.75223,24.7933 -52.91667,35.7561 -6.61458,5.50836 -16.35606,13.46514 -21.64772,17.68172 -10.10805,8.05446 -14.86258,12.76289 -26.19083,25.93691 -8.85062,10.29269 -10.71596,12.00841 -15.10021,13.88911 -5.12149,2.19694 -7.99809,2.55861 -11.2876,1.41917 z m 447.23026,-186.9802 c -2.98676,-0.64105 -15.4342,-4.72391 -27.66099,-9.07301 -12.2268,-4.3491 -23.83772,-8.33891 -25.80206,-8.86625 -7.36266,-1.97653 -23.13641,-8.25898 -30.10271,-11.98946 -11.71219,-6.27193 -39.475,-16.73429 -50.11048,-18.88405 -13.20456,-2.66905 7.82237,-0.51164 27.14518,2.78515 37.33943,6.37073 77.38068,19.81468 107.55179,36.11076 16.31577,8.81252 15.82984,13.53355 -1.02073,9.91686 z m -354.13372,-6.23816 c 4.26251,-4.0675 47.26136,-22.86804 49.9982,-21.86089 1.40823,0.51822 -28.5615,14.98964 -39.71466,19.17694 -10.92084,4.10007 -12.08633,4.40426 -10.28354,2.68395 z m 118.13225,-40.25097 c 12.50909,-2.48646 45.42975,-5.68678 50.62684,-4.92159 1.6205,0.23859 1.09933,0.39222 -1.61916,0.47729 -2.20487,0.069 -14.65231,1.38345 -27.66099,2.921 -24.86495,2.9389 -30.4866,3.34006 -21.34669,1.5233 z m 90.90939,-4.09478 c 0.99732,-0.19177 2.4405,-0.18449 3.20707,0.0162 0.76656,0.20068 -0.0495,0.35759 -1.81333,0.34869 -1.76389,-0.009 -2.39107,-0.17309 -1.39374,-0.36487 z m -12.03587,-0.80054 c 0.99219,-0.1911 2.61577,-0.1911 3.60796,0 0.99218,0.1911 0.18039,0.34746 -1.80398,0.34746 -1.98438,0 -2.79617,-0.15636 -1.80398,-0.34746 z"
       style="fill:#8b7862;stroke-width:0.80176765;fill-opacity:1" />
    <path
       style="fill:#000000;fill-opacity:0.313725;stroke-width:0.801767"
       d="m 401.15535,287.28996 c 47.5098,-0.46998 91.40803,-8.74643 135.20364,-25.4739 28.23178,-10.78296 58.58096,-27.11977 84.98706,-45.74759 28.30777,-19.96934 59.11893,-49.58754 81.43844,-78.28566 42.80976,-55.044212 70.64174,-122.672524 78.86082,-191.62241 3.34309,-28.045278 3.34309,-64.15789 0,-92.20316 -10.28917,-86.31587 -49.35189,-166.91216 -110.56638,-228.12663 -65.14582,-65.14584 -151.44346,-104.78948 -244.16132,-112.1637 -5.59741,-0.44519 -16.33259,-0.68572 -27.3513,-0.72192 77.00801,15.31033 147.06198,62.00087 197.90006,131.99867 51.6395,71.10126 80.0646,161.58522 80.16358,255.181304 -0.037,93.350264 -28.25398,183.639106 -79.60134,254.711066 -50.51814,69.92419 -120.18278,116.75681 -196.87326,132.45393 z"
       id="path841"
       inkscape:transform-center-x="-194.98448"
       inkscape:transform-center-y="-0.0074944827" />
  </g>
</svg>
