<?xml version="1.0" encoding="UTF-8" standalone="no"?>
<!-- Created with Inkscape (http://www.inkscape.org/) -->

<svg
   width="3000"
   height="3000"
   viewBox="0 0 793.74998 793.75002"
   version="1.1"
   id="svg8"
   inkscape:version="1.3 (0e150ed6c4, 2023-07-21)"
   sodipodi:docname="Moon.svg"
   inkscape:export-filename="G:\Pictures\My Pictures\Vectors and SVGs\Space\Moon.png"
   inkscape:export-xdpi="96"
   inkscape:export-ydpi="96"
   xmlns:inkscape="http://www.inkscape.org/namespaces/inkscape"
   xmlns:sodipodi="http://sodipodi.sourceforge.net/DTD/sodipodi-0.dtd"
   xmlns="http://www.w3.org/2000/svg"
   xmlns:svg="http://www.w3.org/2000/svg"
   xmlns:rdf="http://www.w3.org/1999/02/22-rdf-syntax-ns#"
   xmlns:cc="http://creativecommons.org/ns#"
   xmlns:dc="http://purl.org/dc/elements/1.1/">
  <defs
     id="defs2" />
  <sodipodi:namedview
     id="base"
     pagecolor="#000720"
     bordercolor="#666666"
     borderopacity="1.0"
     inkscape:pageopacity="0"
     inkscape:pageshadow="2"
     inkscape:zoom="0.1767767"
     inkscape:cx="1349.1597"
     inkscape:cy="1326.5323"
     inkscape:document-units="mm"
     inkscape:current-layer="layer1"
     showgrid="false"
     inkscape:pagecheckerboard="false"
     inkscape:showpageshadow="false"
     borderlayer="true"
     units="px"
     inkscape:snap-object-midpoints="true"
     inkscape:window-width="1600"
     inkscape:window-height="837"
     inkscape:window-x="-8"
     inkscape:window-y="-8"
     inkscape:window-maximized="1"
     inkscape:snap-page="true"
     inkscape:snap-global="false"
     inkscape:deskcolor="#505050" />
  <metadata
     id="metadata5">
    <rdf:RDF>
      <cc:Work
         rdf:about="">
        <dc:format>image/svg+xml</dc:format>
        <dc:type
           rdf:resource="http://purl.org/dc/dcmitype/StillImage" />
      </cc:Work>
    </rdf:RDF>
  </metadata>
  <g
     inkscape:label="Layer 1"
     inkscape:groupmode="layer"
     id="layer1"
     transform="translate(0,496.75002)">
    <path
       style="fill:#b0b0b0;stroke-width:3.030303"
       d="M 1500 27.875 A 1472.1252 1472.1252 0 0 0 27.875 1500 A 1472.1252 1472.1252 0 0 0 1500 2972.125 A 1472.1252 1472.1252 0 0 0 2972.125 1500 A 1472.1252 1472.1252 0 0 0 1500 27.875 z "
       transform="matrix(0.26458333,0,0,0.26458333,0,-496.75002)"
       id="path836" />
    <path
       style="fill:#868686;stroke-width:3.030303"
       d="M 1741.0371 76.474609 C 1737.3676 76.560973 1734.1175 77.395316 1729.6328 78.804688 C 1722.5013 81.045872 1713.8509 85.368619 1710.4102 88.410156 C 1706.9694 91.451655 1701.8561 93.939453 1699.0469 93.939453 C 1693.1736 93.939453 1692.2975 100.17645 1697.4473 105.32617 C 1700.1042 107.98322 1700.0143 109.96764 1697.0762 113.50781 C 1691.2963 120.47212 1678.6262 119.17487 1665.5352 110.2793 L 1653.9082 102.37891 L 1645.3066 111.79492 C 1640.4742 117.08581 1633.6436 121.22707 1629.7168 121.24219 C 1625.8729 121.25848 1615.6452 124.568 1606.9902 128.59766 C 1598.3353 132.62731 1582.6543 138.12711 1572.1426 140.81836 C 1561.6308 143.50965 1545.53 149.18586 1536.3633 153.43359 C 1508.6978 166.25349 1492.6088 166.11073 1445.4551 152.625 C 1404.9478 141.04014 1404.0845 140.93248 1357.5762 141.70898 C 1331.7428 142.14027 1303.1061 141.23229 1293.9395 139.68945 C 1281.5255 137.60009 1271.8379 138.05963 1255.9727 141.49023 C 1233.1758 146.41972 1227.9964 145.35206 1205.498 131.09961 C 1197.6494 126.1276 1195.7024 126.36029 1150.9512 137.62695 C 1125.4276 144.05283 1094.7301 150.41502 1082.7344 151.76367 C 1070.6508 153.12222 1051.055 158.26561 1038.7949 163.29688 C 1026.6239 168.29156 1008.2367 175.8829 997.93359 180.16602 C 987.63049 184.44913 967.85767 189.43599 953.99414 191.24805 C 940.13061 193.0601 907.05642 199.83441 880.49609 206.30273 C 853.93577 212.77106 831.97859 217.74935 831.70117 217.36523 C 826.52923 210.19849 825.18037 203.90934 827.77539 199.06055 C 829.4357 195.95808 830.22037 192.84736 829.51953 192.14648 C 828.95455 191.5815 825.02989 192.96674 819.06641 195.59375 A 1472.1252 1472.1252 0 0 0 27.875 1500 A 1472.1252 1472.1252 0 0 0 141.61523 2064.0312 C 143.10969 2065.7628 144.26136 2065.8901 145.45508 2065.1523 C 149.74715 2062.4997 154.62224 2071.7659 164.80469 2101.9277 C 170.35479 2118.3679 183.46077 2148.8639 193.92969 2169.6973 C 202.17772 2186.111 211.97442 2206.5678 218.4668 2220.8105 A 1472.1252 1472.1252 0 0 0 813.37109 2801.1602 C 811.65523 2799.147 806.1558 2794.8483 799.28711 2790.2598 C 778.53917 2776.3994 755.52351 2755.6999 758.01758 2753.1426 C 759.0944 2752.0385 773.41276 2757.9773 789.83594 2766.3398 C 826.27255 2784.8931 874.94615 2796.5453 880.23828 2787.9824 C 881.23302 2786.3729 879.17281 2779.4225 875.66016 2772.5371 C 863.69746 2749.0883 869.22939 2748.0283 920.00977 2764.0332 C 952.6433 2774.3187 966.0625 2774.9422 976.58398 2766.666 C 990.54004 2755.6882 999.46254 2758.5093 1027.2734 2782.6914 C 1044.7189 2797.8606 1050.8051 2800.8861 1080.3027 2809.0508 C 1093.6361 2812.7413 1112.2288 2819.8215 1121.6191 2824.7832 C 1143.8973 2836.5547 1155.6781 2835.7517 1156.9805 2822.373 C 1157.7149 2814.8282 1154.8175 2809.0865 1142.5859 2793.8457 C 1125.8014 2772.9318 1123.3554 2761.8215 1131.8965 2745.3047 C 1138.2315 2733.0541 1147.755 2733.6884 1160.7695 2747.2285 C 1178.5328 2765.709 1197.8041 2772.0697 1206.0234 2762.166 C 1210.81 2756.3986 1208.978 2713.8257 1203.7168 2708.5645 C 1200.7348 2705.5825 1197.0148 2705.6754 1185.5879 2709.0176 C 1177.6809 2711.3302 1165.7585 2713.3159 1159.0918 2713.4297 C 1147.7082 2713.624 1146.5557 2712.8134 1140.1523 2700.1152 C 1129.9453 2679.8739 1131.1869 2673.4726 1149.873 2650.0234 C 1158.9698 2638.6078 1167.2587 2625.4144 1168.293 2620.7051 C 1170.8717 2608.9643 1165.1786 2593.1073 1149.7891 2569.1719 C 1139.5917 2553.3118 1134.7797 2540.9756 1127.4844 2511.9883 C 1115.9008 2465.9621 1115.8752 2456.9334 1127.2695 2432.8477 C 1135.3909 2415.6805 1136.3592 2410.5572 1136.3613 2384.6973 C 1136.3628 2366.2322 1137.6798 2354.4413 1140 2352.1211 C 1142 2350.1211 1150.6134 2348.4844 1159.1406 2348.4844 C 1179.0079 2348.4844 1208.0477 2343.1193 1219.0918 2337.4082 C 1223.826 2334.9601 1240.2462 2321.6243 1255.582 2307.7734 C 1286.6714 2279.6945 1313.7003 2261.2674 1356.252 2239.1406 C 1384.3126 2224.5491 1385.4598 2224.2422 1411.9512 2224.2422 C 1426.8277 2224.2422 1442.4921 2222.9155 1446.7598 2221.293 C 1451.0275 2219.6704 1466.3568 2208.7655 1480.8262 2197.0605 C 1514.252 2170.0208 1530.1961 2161.9497 1542.0332 2166.0762 C 1562.5874 2173.2414 1617.3356 2215.4395 1628.8965 2233.0273 C 1639.297 2248.8498 1642.7427 2268.1143 1645.0254 2323.2129 C 1646.7652 2365.2094 1647.8707 2373.0852 1652.7852 2378.5156 C 1660.3813 2386.9093 1663.7122 2386.5349 1677.2734 2375.7578 C 1697.7079 2359.5185 1718.5511 2367.1676 1700.627 2384.3281 C 1695.9759 2388.781 1687.63 2394.8431 1682.0801 2397.7988 C 1672.2751 2403.0207 1672.0277 2403.6202 1673.3613 2419.0098 C 1674.1162 2427.7207 1679.0544 2444.6223 1684.3359 2456.5684 C 1698.8675 2489.4362 1697.3789 2499.4719 1671.6816 2541.8535 C 1658.9353 2562.8757 1656.4102 2569.4546 1656.4102 2581.6465 C 1656.4102 2600.5023 1663.259 2610.8557 1678.8125 2615.5156 C 1685.5057 2617.521 1692.3517 2620.8149 1694.0273 2622.834 C 1701.2964 2631.5926 1687.1526 2642.4238 1668.4473 2642.4238 C 1656.8501 2642.4238 1644.3259 2651.1689 1637.7734 2663.8398 C 1635.2825 2668.6569 1625.7654 2680.9805 1616.623 2691.2266 C 1594.1527 2716.4096 1594.9981 2725.4733 1620.1836 2729.3613 C 1633.2146 2731.373 1645.5886 2737.0032 1659.0918 2747.0664 C 1673.1313 2757.5292 1680.1605 2758.4385 1705.3965 2753.0469 C 1718.2617 2750.2982 1737.651 2748.4867 1748.4844 2749.0234 C 1767.0135 2749.9414 1768.2348 2750.4564 1769.0781 2757.6875 C 1770.6108 2770.8291 1754.4852 2789.1818 1731.9609 2799.9316 C 1715.927 2807.5839 1712.1211 2810.7535 1712.1211 2816.4512 C 1712.1211 2827.8466 1719.7784 2832.244 1731.3027 2827.4668 C 1768.1925 2812.1748 1772.1361 2811.5009 1794.6992 2816.6328 C 1806.3814 2819.2899 1820.1 2823.6163 1825.1855 2826.2461 C 1830.2711 2828.876 1843.39 2832.3388 1854.3379 2833.9434 C 1865.2857 2835.5479 1878.5992 2837.5715 1883.9238 2838.4395 C 1891.4226 2839.6619 1902.01 2836.1059 1930.8926 2822.6641 C 1967.5994 2805.5809 1968.7253 2805.2791 2003.0391 2803.2969 C 2022.2107 2802.1894 2039.7484 2800.139 2042.0117 2798.7402 C 2044.275 2797.3414 2056.8848 2795.9252 2070.0332 2795.5938 C 2098.2043 2794.8837 2099.3771 2796.81 2084.4746 2819.3086 C 2079.2695 2827.1669 2075.8786 2834.4645 2076.9375 2835.5234 C 2080.761 2839.347 2146.6246 2809.1989 2190.7949 2783.4082 C 2220.1583 2766.2632 2227.884 2763.1734 2221.1777 2771.2539 C 2211.0478 2783.4597 2072.9046 2856.2444 2046.2422 2863.4238 C 2036.1764 2866.1343 2007.2506 2878.5863 1997.3516 2884.0684 A 1472.1252 1472.1252 0 0 0 2972.125 1500 A 1472.1252 1472.1252 0 0 0 2839.9004 894.66406 C 2836.4435 894.95699 2833.4281 901.04091 2833.3789 908.93945 C 2833.346 914.21121 2832.3934 915.42467 2830.0918 913.12305 C 2826.0735 909.10477 2804.7779 852.3068 2795.0625 819.69727 C 2790.7582 805.24969 2781.2681 782.57629 2770.543 760.0332 A 1472.1252 1472.1252 0 0 0 2455.7695 380.95117 C 2451.85 377.78117 2448.158 374.88847 2444.793 372.38086 C 2430.5867 361.79442 2414.4897 349.1141 2402.6914 339.33203 A 1472.1252 1472.1252 0 0 0 2234.4844 225.68945 C 2232.6363 225.19861 2231.3962 225.16822 2230.8867 225.67773 C 2229.9599 226.60455 2233.8078 232.11549 2239.4375 237.92383 C 2245.0672 243.73221 2248.6451 248.48438 2247.3887 248.48438 C 2246.1324 248.48438 2228.0318 240.92976 2207.1641 231.69531 C 2148.3733 205.67912 2136.3665 205.93466 2169.6719 232.49219 C 2188.3206 247.36255 2192.3364 254.54492 2181.998 254.54492 C 2168.7866 254.54492 2170.7801 270.8702 2186.8438 294.22266 C 2192.6725 302.69613 2196.6836 310.38674 2195.7578 311.3125 C 2194.8321 312.23826 2188.2494 310.88274 2181.1289 308.29883 C 2174.0084 305.71495 2160.3812 302.89383 2150.8477 302.0293 C 2129.7142 300.11296 2074.3199 275.84396 2036.3984 251.88867 C 2022.2126 242.92737 2001.7435 230.17487 1990.9102 223.54883 C 1958.31 203.60955 1942.4238 185.53208 1942.4238 168.37109 C 1942.4238 159.49979 1934.3096 153.73246 1886.625 128.71875 C 1854.0198 111.61518 1815.8309 96.598805 1770.543 83.074219 C 1754.4354 78.263943 1747.153 76.33067 1741.0371 76.474609 z M 2531.7539 1057.5762 C 2545.3192 1057.5762 2561.9853 1087.1674 2556.4883 1101.4922 C 2553.5382 1109.1799 2543.1388 1106.5931 2535.2109 1096.1992 C 2519.6043 1075.7378 2517.979 1057.5762 2531.7539 1057.5762 z M 65.783203 1298.3379 C 66.251825 1298.3636 66.721178 1298.5199 67.191406 1298.8105 C 71.130025 1301.2447 68.714385 1325.5216 63.365234 1337.2617 C 57.093944 1351.0257 53.57892 1346.841 55.316406 1327.6797 C 56.928338 1309.903 61.253196 1298.0893 65.783203 1298.3379 z M 1983.2148 1618.1816 C 1994.7231 1618.1816 2006.0732 1629.3087 2006.043 1640.5605 C 2006.0114 1652.5412 1999.7912 1669.4804 1992.0391 1678.6934 C 1978.4971 1694.787 1956.6278 1688.7786 1950.0605 1667.1602 C 1943.9109 1646.9166 1963.3623 1618.1816 1983.2148 1618.1816 z M 2071.0996 1801.6641 C 2093.6786 1801.8799 2104.8969 1810.0421 2121.9004 1838.627 C 2144.2924 1876.2705 2149.1916 1889.6161 2149.4414 1913.6367 C 2149.7356 1941.935 2141.1434 1961.9477 2125.9805 1968.2832 C 2113.2896 1973.5858 2113.0773 1973.5878 2101.5156 1968.4492 C 2089.3808 1963.0558 2083.4334 1956.0932 2056.5527 1915.8086 C 2030.0516 1876.0927 2025.9091 1865.5975 2028.1543 1843.8438 C 2031.3147 1813.2227 2043.3541 1801.3989 2071.0996 1801.6641 z M 248.68359 2024.5684 C 255.04652 2024.5252 263.59053 2027.631 276.15039 2034.1328 C 298.78775 2045.8514 322.90538 2074.5329 333.50195 2102.3398 C 341.57683 2123.5294 343.59009 2171.5561 336.75 2179.8223 C 326.462 2192.2552 305.41433 2181.928 276.50781 2150.2637 C 258.72598 2130.7854 242.13091 2098.95 234.40625 2069.498 C 229.00096 2048.8892 230.08385 2037.0158 238.09961 2029 C 240.99807 2026.1015 244.33002 2024.5979 248.68359 2024.5684 z M 2122.2461 2079.1855 C 2122.5877 2079.2021 2122.906 2079.2389 2123.2012 2079.2949 C 2131.1627 2080.806 2131.8285 2094.2212 2124.6406 2108.3105 C 2117.8711 2121.5799 2097.5283 2141.2098 2086.0078 2145.5898 C 2075.8243 2149.4616 2058.4187 2149.2694 2055.9395 2145.2578 C 2051.9793 2138.8503 2057.8837 2121.9426 2068.3535 2109.7109 C 2079.4523 2096.7445 2111.6563 2078.6725 2122.2461 2079.1855 z M 2546.0234 2166.9473 C 2556.5504 2166.9998 2562.9797 2169.4794 2581.8184 2178.6797 C 2605.2359 2190.1162 2609.0206 2191.0841 2623.4844 2189.3496 C 2638.8555 2187.5063 2639.3945 2187.693 2639.3945 2194.8457 C 2639.3945 2208.8367 2599.8733 2292.7004 2582.2266 2316.1562 C 2570.475 2331.7762 2517.6082 2378.8251 2503.7637 2385.9844 C 2499.1904 2388.3493 2487.2678 2391.303 2477.2695 2392.5469 C 2464.0715 2394.1889 2450.6035 2399.256 2428.1152 2411.041 C 2411.0791 2419.9688 2395.8186 2427.2734 2394.2031 2427.2734 C 2387.5618 2427.2734 2388.626 2421.003 2398.8789 2399.6992 C 2407.1028 2382.6113 2410.2074 2371.5011 2411.9238 2353.0293 C 2413.7927 2332.9171 2417.0701 2322.3336 2431.1562 2290.9082 C 2440.4946 2270.0749 2451.7728 2242.8027 2456.2188 2230.3027 C 2460.6647 2217.8027 2467.7532 2202.9817 2471.9727 2197.3672 C 2482.5746 2183.2601 2514.3715 2168.7283 2537.8789 2167.2461 C 2540.9476 2167.0526 2543.5941 2166.9352 2546.0234 2166.9473 z M 2660.8418 2254.5449 C 2666.8404 2254.5449 2663.132 2264.1764 2652.6777 2275.748 C 2641.3387 2288.2989 2636.3633 2290.7791 2636.3633 2283.8789 C 2636.3633 2279.0958 2656.8503 2254.5449 2660.8418 2254.5449 z M 1809.7227 2462.1816 C 1817.1458 2462.0061 1821.2129 2467.1134 1821.2129 2477.1602 C 1821.2129 2484.656 1819.0508 2489.1389 1813.2285 2493.7188 C 1803.63 2501.269 1800.432 2501.4819 1791.4121 2495.1641 C 1780.2811 2487.3676 1783.3619 2472.6788 1797.5859 2465.7266 C 1802.281 2463.4318 1806.3485 2462.2614 1809.7227 2462.1816 z M 2250.541 2493.957 C 2274.6105 2493.9311 2281.3907 2504.3535 2270.834 2525.1504 C 2257.2897 2551.8327 2223.5971 2581.1937 2186.3633 2598.7598 C 2174.6966 2604.2639 2160.3782 2609.583 2154.5449 2610.582 C 2139.7497 2613.1159 2130.3027 2606.0013 2130.3027 2592.3242 C 2130.3027 2583.0964 2134.6992 2577.5083 2170.4551 2541.2793 C 2213.9478 2497.2112 2219.3989 2493.991 2250.541 2493.957 z M 1499.9023 2766.6641 C 1493.3019 2766.8294 1486.7832 2768.3792 1482.4922 2771.3848 C 1474.4241 2777.0359 1473.6328 2789.371 1481.0605 2793.6973 C 1489.1838 2798.4286 1512.9622 2797.5576 1520.5371 2792.252 C 1528.878 2786.4097 1529.0804 2780.5941 1521.2129 2772.7266 C 1517.0114 2768.5251 1508.3886 2766.4515 1499.9023 2766.6641 z "
       transform="matrix(0.26458333,0,0,0.26458333,0,-496.75002)"
       id="path834" />
    <path
       style="fill:#424242;stroke-width:3.030303"
       d="M 672.74023 309.0918 C 665.94997 309.0918 553.84297 391.26651 502.58203 433.81836 C 459.66209 469.44626 358.00126 581.16547 308.62305 646.96875 C 243.06168 734.33835 190.3883 825.63852 169.39844 888.28906 C 156.30115 927.38185 121.74244 1076.7517 117.57227 1112.2949 C 113.14879 1149.9971 116.86901 1184.595 130.1582 1229.3281 C 143.4176 1273.961 159.82825 1346.0045 163.49414 1375.6777 C 165.23892 1389.8007 166.66602 1423.3725 166.66602 1450.2812 C 166.66602 1480.392 168.4328 1509.3358 171.25977 1525.5469 C 175.58826 1550.3683 207.99237 1643.9314 231.85742 1700.5176 C 243.08201 1727.1321 272.14884 1778.3477 294.6875 1811.2227 C 309.03854 1832.1551 384.52932 1906.9946 399.04297 1914.6777 C 409.43841 1920.1808 422.53933 1918.8787 454.07227 1909.207 C 484.89288 1899.7538 532.51193 1890.6245 552.43359 1890.3496 C 560.56056 1890.2374 566.24871 1892.1745 570.61523 1896.541 C 580.89014 1906.8159 578.80068 1920.087 562.64062 1947.1836 C 536.6213 1990.8118 527.6386 2039.1432 537.90039 2080.3027 C 550.70074 2131.6442 576.49441 2170.9472 626.63086 2215.5078 C 656.28224 2241.8615 677.22789 2251.5156 704.76367 2251.5156 C 725.91156 2251.5156 728.17009 2250.7717 764.58398 2231.8184 C 808.47178 2208.9749 819.70501 2207.1171 833.08008 2220.4922 C 837.75747 2225.1696 844.49092 2237.9985 848.33984 2249.5645 C 855.78468 2271.9362 869.03227 2289.7755 879.69141 2291.7832 C 897.02632 2295.0483 911.04129 2283.5037 926.26953 2253.4199 C 938.11729 2230.0142 959.66741 2206.7242 978.24609 2197.2461 C 995.46358 2188.4624 1025.4933 2188.8307 1063.0879 2198.2891 C 1104.25 2208.645 1140.3311 2213.0367 1164.7969 2210.666 C 1210.429 2206.2444 1257.3053 2185.2607 1286.5605 2156.1602 C 1312.5915 2130.2669 1314.274 2122.8858 1309.3535 2056.1289 C 1305.201 1999.7922 1305.8747 1990.3932 1317.5156 1942.4238 C 1327.4 1901.6931 1327.8915 1866.3201 1318.9043 1842.4238 C 1278.0657 1733.8375 1274.788 1726.7533 1244.8398 1682.3418 C 1218.5806 1643.4008 1212.2722 1629.6641 1212.1875 1611.2422 C 1212.0551 1582.361 1233.1884 1558.1425 1277.2734 1536.6504 C 1321.46 1515.1088 1338.7698 1511.0582 1381.8184 1512.1895 C 1463.7824 1514.3433 1467.9973 1514.0502 1481.2363 1505.2891 C 1497.6187 1494.4477 1504.4184 1476.6618 1502.2949 1450.207 C 1500.9678 1433.6738 1497.8384 1425.3207 1481.5801 1394.9121 C 1464.5176 1362.9995 1462.4122 1357.1663 1462.2754 1341.4551 C 1462.1287 1324.6194 1462.6884 1323.2916 1474.6172 1312.1582 C 1487.6191 1300.0232 1503.1069 1293.9744 1521.2129 1293.9668 C 1527.0463 1293.9637 1555.681 1298.7061 1584.8477 1304.5039 C 1673.5627 1322.1386 1703.2512 1319.2813 1772.7148 1286.4297 C 1823.0209 1262.6383 1831.7833 1260.1162 1846.5176 1265.1816 C 1866.7156 1272.1254 1871.4743 1279.0574 1901.6172 1345.4492 C 1941.2495 1432.7421 1969.8054 1465.7185 2040.3242 1505.6289 C 2102.7683 1540.9694 2113.675 1551.6635 2137.9785 1601.3809 C 2160.9592 1648.392 2167.7506 1656.0605 2186.4082 1656.0605 C 2209.5799 1656.0605 2212.6288 1651.6255 2264.5195 1542.4238 C 2294.4208 1479.498 2322.3579 1469.0012 2380.7012 1498.7715 C 2412.2517 1514.8705 2429.5191 1527.6116 2440.5117 1542.9043 C 2445.1343 1549.3352 2456.897 1579.4076 2467.9492 1613.0449 C 2482.4934 1657.3105 2493.8876 1684.9741 2513.8496 1724.4902 C 2545.1245 1786.4008 2554.8536 1797.6013 2595.9668 1819.0156 C 2628.5381 1835.9808 2640.086 1847.8551 2647.3555 1871.8594 C 2656.6528 1902.5595 2664.3905 1905.4177 2682.8613 1884.9727 C 2697.324 1868.9642 2702.0416 1853.5468 2709.041 1799.4219 C 2718.8254 1723.7618 2732.3276 1690.7301 2774.666 1638.875 C 2802.6367 1604.6171 2805.6661 1598.7501 2820.7656 1549.5723 C 2840.1082 1486.5754 2840.0796 1480.9347 2820.3652 1470.8086 C 2814.998 1468.0518 2800.3789 1457.9398 2787.8789 1448.3379 C 2775.3789 1438.736 2752.1966 1422.8208 2736.3633 1412.9707 C 2720.53 1403.1206 2695.567 1386.1688 2680.8906 1375.3008 C 2666.2142 1364.4328 2639.6244 1347.4763 2621.8008 1337.6191 C 2580.3088 1314.6724 2562.2029 1296.6178 2532.4082 1248.4844 C 2519.5124 1227.6511 2495.4509 1192.2889 2478.9395 1169.9004 C 2462.428 1147.5118 2439.0341 1113.4207 2426.9531 1094.1426 C 2402.8447 1055.6718 2364.4719 1014.1433 2344.4629 1004.8691 C 2338.0843 1001.9126 2323.766 998.18383 2312.6445 996.58203 C 2267.251 990.0439 2260.3887 987.80317 2246.4883 974.99023 C 2230.741 960.47485 2218.7606 936.50526 2198.4043 878.78711 C 2178.823 823.26642 2170.0101 805.39025 2145.0781 770.62695 C 2133.3556 754.28197 2120.4513 734.45507 2116.4023 726.56641 C 2107.83 709.86471 2100 681.76027 2100 667.69336 C 2100 662.29226 2098.5001 650.64844 2096.666 641.81641 C 2093.8259 628.14026 2090.7132 623.23576 2075.6895 608.76172 C 2056.1996 589.98495 2011.6381 565.04954 1992.168 562.02539 C 1976.597 559.60683 1971.6878 563.56816 1958.0156 589.58594 C 1940.0917 623.69481 1928.0955 626.33709 1848.4844 613.72266 C 1794.3888 605.15118 1778.0874 611.08052 1729.1035 657.13867 C 1711.2263 673.94816 1690.8953 690.06756 1682.7266 693.9082 C 1666.8175 701.38808 1645.6871 703.06855 1617.8105 699.07227 C 1592.9864 695.51354 1590.8948 698.49399 1590.9609 737.33789 C 1591.0327 779.51224 1595.3733 817.26861 1604.4629 854.78711 C 1613.2844 891.19927 1614.1208 917.12701 1607.3223 943.50195 C 1597.0265 983.44411 1574.9203 1009.3927 1533.4102 1030.2637 C 1491.1521 1051.5106 1463.9475 1056.3014 1446.377 1045.5879 C 1434.1186 1038.1135 1433.884 1036.5395 1432.3926 951.92188 C 1430.8991 867.19065 1428.8566 871.2012 1475.7578 866.76562 C 1515.7235 862.98602 1527.446 859.64597 1539.1562 848.70703 C 1552.3301 836.40085 1551.2277 828.47555 1534.3047 813.80664 C 1499.1749 783.35593 1491.459 773.92073 1489.1445 758.57422 C 1487.929 750.51441 1488.623 728.22606 1490.6875 708.96094 C 1496.7813 652.097 1495.8873 640.64327 1482.9648 610.06055 C 1471.7719 583.57097 1471.6671 582.94202 1471.2891 539.39453 C 1470.9366 498.79677 1470.3004 494.13665 1462.9375 478.12695 C 1458.5546 468.59687 1448.4271 453.80559 1440.4316 445.25781 C 1421.5841 425.10824 1381.5949 394.97275 1361.334 385.65039 C 1345.6042 378.41294 1345.1171 378.37907 1324.3711 383.09766 C 1292.0898 390.43988 1281.4767 389.3609 1248.8535 375.41992 C 1221.14 363.577 1218.4981 363.02497 1195.4551 364.28125 C 1174.1631 365.44206 1165.705 367.90296 1125.959 384.5 C 1072.1715 406.96045 1053.8549 412.10353 1027.3945 412.17383 C 999.30852 412.2484 969.99245 419.19188 942.98633 432.16602 C 922.91405 441.80899 913.97402 449.08785 878.26172 484.86523 C 813.60198 549.64278 781.57546 566.96024 738.81445 560.26953 C 710.65803 555.86396 707.04503 544.02521 718.33398 493.15039 C 729.47766 442.93037 739.34305 428.23919 788.52344 388.62891 C 817.85495 365.00501 837.02363 341.45435 835.76172 330.5918 C 834.97153 323.78982 833.21359 322.59436 822.73633 321.74219 C 804.69404 320.27479 772.44302 329.18899 733.33398 346.45508 C 703.45776 359.64502 695.6838 361.86066 678.85742 361.98047 C 654.13859 362.15682 652.63557 358.12303 668.0918 333.08203 C 678.21481 316.68145 679.68599 309.0918 672.74023 309.0918 z M 510.50195 870.45312 C 526.05836 870.51359 524.0633 903.41313 505.4043 916.48242 C 498.32638 921.43999 490.29184 922.61415 486.86914 919.19141 C 478.29819 910.62046 492.39469 875.54921 506.16797 871.17773 C 507.73896 870.67912 509.18361 870.448 510.50195 870.45312 z M 2679.9004 927.44727 C 2662.7075 927.71197 2647.3714 937.54813 2629.3398 957.60352 C 2612.1026 976.77547 2607.7849 989.34433 2610.0625 1013.7344 C 2612.0395 1034.9048 2623.5843 1083.2595 2635.3613 1119.6973 C 2654.2126 1178.0225 2686.4074 1225.0514 2716.4316 1238.125 C 2729.8449 1243.9656 2757.0643 1243.4493 2769.4824 1237.1172 C 2785.6834 1228.8561 2790.5376 1219.3985 2805.0684 1167.8086 C 2817.2405 1124.5922 2818.4591 1117.3833 2817.0312 1096.9688 C 2815.1705 1070.3641 2806.6131 1040.4362 2792.2227 1010.2051 C 2780.2021 984.95266 2761.3816 966.24152 2725.5273 943.89453 C 2707.7683 932.8258 2693.2726 927.24138 2679.9004 927.44727 z M 910.92188 1094.1523 C 971.01357 1093.9765 1061.5995 1103.1833 1106.0273 1116.377 C 1124.3991 1121.8328 1148.6275 1134.1887 1155.1875 1141.4492 C 1171.8836 1159.9285 1173.8782 1187.634 1160.4473 1214.5117 C 1149.007 1237.4057 1124.9076 1262.0556 1057.8027 1319.502 C 1002.6038 1366.756 1000.089 1369.562 983.73438 1402.1543 C 977.70361 1414.1727 970.12218 1425.4227 966.88672 1427.1543 C 956.81806 1432.5428 944.11005 1430.6625 924.54688 1420.8867 C 900.941 1409.0907 872.58012 1383.0964 860.97852 1362.623 C 850.52646 1344.1782 821.66937 1271.8104 811.83984 1239.3945 C 803.2407 1211.0361 802.57763 1175.6883 810.17188 1150.4355 C 816.97227 1127.8225 837.32536 1106.3708 858.98047 1098.9922 C 868.5629 1095.7271 887.40774 1094.2211 910.92188 1094.1523 z M 2917.1348 1110.1094 C 2916.5731 1110.2438 2916.2929 1112.017 2915.877 1115.2148 C 2914.6625 1124.5513 2924.1491 1166.428 2937.0703 1208.7656 C 2942.9627 1228.0728 2946.4966 1236.862 2947.7715 1236.7148 A 1472.1252 1472.1252 0 0 0 2920.7559 1116.3555 C 2918.8074 1112.012 2917.7691 1109.9575 2917.1348 1110.1094 z M 619.55859 1245.6836 C 634.87896 1245.2344 648.94213 1258.3985 655.91797 1282.3945 C 663.86613 1309.7353 655.65406 1336.2928 635.44141 1348.6172 C 606.47552 1366.2788 576.93491 1342.2468 577.54492 1301.5156 C 577.86252 1280.3084 583.23727 1268.3404 598.43555 1254.9961 C 605.37156 1248.9062 612.59479 1245.8878 619.55859 1245.6836 z M 2969.9707 1439.1797 C 2965.3105 1446.7016 2957.9019 1606.9989 2961.8086 1622.5645 C 2962.9757 1627.2145 2964.584 1630.3653 2965.3828 1629.5664 C 2965.476 1629.4732 2965.5697 1629.336 2965.6621 1629.1738 A 1472.1252 1472.1252 0 0 0 2972.125 1500 A 1472.1252 1472.1252 0 0 0 2969.9707 1439.1797 z M 2316.8828 1827.2734 C 2304.8215 1827.2734 2289.976 1840.155 2280.3594 1858.9668 C 2272.5071 1874.3272 2271.2225 1880.1371 2271.2891 1900.0254 C 2271.3813 1927.5394 2280.469 1948.8148 2296.8398 1959.8477 C 2320.6895 1975.9208 2345.8469 1961.7256 2351.8867 1928.7871 C 2355.9126 1906.8318 2353.441 1871.6031 2346.6914 1854.7344 C 2340.9371 1840.3529 2326.7395 1827.2734 2316.8828 1827.2734 z "
       transform="matrix(0.26458333,0,0,0.26458333,0,-496.75002)"
       id="path832" />
    <path
       style="fill:#000000;fill-opacity:0.313725;stroke-width:0.801767"
       d="M 403.54435,289.38868 A 389.49979,389.49979 0 0 0 786.37473,-99.874893 389.49979,389.49979 0 0 0 512.00338,-471.97002 c -0.018,-0.006 -0.0359,-0.0106 -0.0538,-0.0161 a 389.49979,389.49979 0 0 0 -35.89753,-9.16636 c -1.23004,-0.25415 -2.46157,-0.50231 -3.69435,-0.74517 a 389.49979,389.49979 0 0 0 -35.83244,-5.4157 c -0.47434,-0.0499 -0.94861,-0.10073 -1.42266,-0.14883 a 389.49979,389.49979 0 0 0 -38.22764,-1.91254 389.49979,389.49979 0 0 0 -1.59472,0.0563 c 79.01241,14.80645 150.97479,62.05664 203.02222,133.33463 52.22821,71.5256 80.97711,162.54954 81.07722,256.70422 -0.0374,93.9073705 -28.5755,184.735258 -80.50826,256.23138 -50.26003,69.19328 -119.25982,115.90035 -195.3271,132.43688 z"
       id="path849"
       inkscape:transform-center-x="-193.9525"
       inkscape:transform-center-y="-0.11805615" />
  </g>
</svg>
