<?xml version="1.0" encoding="UTF-8" standalone="no"?>
<!-- Created with Inkscape (http://www.inkscape.org/) -->

<svg
   width="3000"
   height="3000"
   viewBox="0 0 793.74998 793.75002"
   version="1.1"
   id="svg8"
   inkscape:version="1.3 (0e150ed6c4, 2023-07-21)"
   sodipodi:docname="Neptune.svg"
   inkscape:export-filename="G:\Pictures\My Pictures\Vectors and SVGs\Space\Neptune.png"
   inkscape:export-xdpi="96"
   inkscape:export-ydpi="96"
   xmlns:inkscape="http://www.inkscape.org/namespaces/inkscape"
   xmlns:sodipodi="http://sodipodi.sourceforge.net/DTD/sodipodi-0.dtd"
   xmlns="http://www.w3.org/2000/svg"
   xmlns:svg="http://www.w3.org/2000/svg"
   xmlns:rdf="http://www.w3.org/1999/02/22-rdf-syntax-ns#"
   xmlns:cc="http://creativecommons.org/ns#"
   xmlns:dc="http://purl.org/dc/elements/1.1/">
  <defs
     id="defs2" />
  <sodipodi:namedview
     id="base"
     pagecolor="#000720"
     bordercolor="#666666"
     borderopacity="1.0"
     inkscape:pageopacity="0"
     inkscape:pageshadow="2"
     inkscape:zoom="0.1767767"
     inkscape:cx="1705.5415"
     inkscape:cy="1518.8653"
     inkscape:document-units="mm"
     inkscape:current-layer="layer1"
     showgrid="false"
     inkscape:pagecheckerboard="false"
     inkscape:showpageshadow="false"
     borderlayer="true"
     units="px"
     inkscape:snap-object-midpoints="true"
     inkscape:window-width="1600"
     inkscape:window-height="837"
     inkscape:window-x="-8"
     inkscape:window-y="-8"
     inkscape:window-maximized="1"
     inkscape:snap-page="true"
     inkscape:snap-global="false"
     inkscape:deskcolor="#505050" />
  <metadata
     id="metadata5">
    <rdf:RDF>
      <cc:Work
         rdf:about="">
        <dc:format>image/svg+xml</dc:format>
        <dc:type
           rdf:resource="http://purl.org/dc/dcmitype/StillImage" />
      </cc:Work>
    </rdf:RDF>
  </metadata>
  <g
     inkscape:label="Layer 1"
     inkscape:groupmode="layer"
     id="layer1"
     transform="translate(0,496.75002)">
    <path
       inkscape:connector-curvature="0"
       id="path870"
       d="m 369.21402,284.11139 c -39.6344,-3.15229 -78.02006,-11.91438 -113.85101,-25.98815 -11.90736,-4.677 -38.71484,-17.64752 -50.51137,-24.4394 -51.73664,-29.7875 -96.18065,-71.62603 -129.057147,-121.49132 -84.9955917,-128.916713 -84.9955917,-295.21839 0,-424.1351 32.876497,-49.86529 77.320507,-91.70382 129.057147,-121.49132 11.79653,-6.79188 38.60401,-19.7624 50.51137,-24.4394 45.13358,-17.72768 93.21318,-26.85021 141.51199,-26.85021 48.29881,0 96.37841,9.12253 141.51199,26.85021 11.90736,4.677 38.71484,17.64752 50.51137,24.4394 51.73664,29.7875 96.18065,71.62603 129.05715,121.49132 84.99558,128.91671 84.99558,295.218387 0,424.1351 -32.8765,49.86529 -77.32051,91.70382 -129.05715,121.49132 -11.79653,6.79188 -38.60401,19.7624 -50.51137,24.4394 -36.51333,14.3418 -74.1764,22.86148 -115.01348,26.01696 -12.21497,0.94385 -42.13013,0.92794 -54.15949,-0.0288 z"
       style="fill:#2b4e9e;stroke-width:0.80176765;fill-opacity:1" />
    <path
       inkscape:connector-curvature="0"
       id="path868"
       d="M 201.43451,231.69441 C 151.6295,202.49354 107.92125,160.92065 75.794493,112.19252 16.187618,21.784035 -2.6490808,-88.702838 23.646551,-193.68185 c 11.449121,-45.70787 32.655409,-91.61135 60.004332,-129.88636 24.111917,-33.7448 55.608277,-65.23388 89.655727,-89.63497 l 6.93981,-4.97362 H 396.875 613.50358 l 6.93981,4.97362 c 28.93167,20.73473 57.16355,47.67827 78.79907,75.20315 65.20729,82.95722 93.6685,189.42987 78.46129,293.521566 -10.27925,70.360365 -39.76842,136.391153 -85.46114,191.360654 -27.34414,32.89569 -65.085,64.82226 -101.01773,85.45514 l -6.49293,3.7283 -187.93573,-0.009 -187.93574,-0.009 z"
       style="fill:#1d58a1;stroke-width:0.80176765;fill-opacity:1" />
    <path
       inkscape:connector-curvature="0"
       id="path866"
       d="M 201.43451,231.69441 C 151.6295,202.49354 107.92125,160.92065 75.794493,112.19252 c -84.9955917,-128.916713 -84.9955917,-295.21839 0,-424.1351 26.512617,-40.21291 62.987117,-77.70965 100.483917,-103.30011 l 4.56383,-2.93411 216.19838,0 216.19838,0 7.20439,4.97362 c 29.29223,20.22216 57.16355,47.67827 78.79907,75.20315 65.20729,82.95722 93.6685,189.42987 78.46129,293.521566 -10.27925,70.360365 -39.76842,136.391153 -85.46114,191.360654 -27.34414,32.89569 -65.085,64.82226 -101.01773,85.45514 l -6.49293,3.7283 -187.93573,-0.009 -187.93574,-0.009 z M 392.86616,44.424142 c 40.07662,-2.463896 60.48461,-8.129026 62.19871,-17.265979 3.74139,-19.9433294 -64.23062,-45.393841 -141.23262,-52.881212 -15.65822,-1.522541 -51.68341,-2.743433 -81.72051,-2.769498 -62.74966,-0.05444 -87.77713,6.060209 -87.79056,21.4487763 -0.009,10.6004912 13.66212,23.3432417 34.8739,32.5051127 25.29352,10.92487 59.57403,17.477766 99.0183,18.927859 25.17967,0.925681 99.79459,0.948419 114.65278,0.03496 z M 226.08991,28.860589 C 210.7487,23.20451 195.94577,10.471742 188.82187,-3.1956145 c -2.98811,-5.7327351 -3.47829,-8.5372305 -1.74378,-9.9767485 1.49012,-1.236694 2.6933,-0.10447 7.67961,7.2267094 7.06091,10.3813841 16.22522,17.8840056 33.02818,27.0394386 6.79777,3.70391 9.1608,5.85122 8.45711,7.685031 -0.58839,1.533309 -6.0957,1.577663 -10.15308,0.08177 z"
       style="fill:#2a64b3;fill-opacity:1;stroke-width:0.80176765"
       sodipodi:nodetypes="cssscccssssscccccssscssccccsssccc" />
    <path
       inkscape:connector-curvature="0"
       id="path864"
       d="M 93.706557,137.27103 C 76.507981,115.09218 64.097011,95.160682 51.264517,69.110921 c -52.2951348,-106.158297 -52.2951348,-231.813601 0,-337.971901 15.785604,-32.04453 32.575559,-57.46622 55.322303,-83.76354 l 6.24863,-7.00769 284.03955,0 284.03955,0 6.24863,7.00769 c 62.18822,69.74262 94.53995,159.99223 94.53995,252.74949 0,85.788452 -28.52353,168.622983 -81.65969,237.14606 l -5.11123,6.59131 H 396.875 98.817786 Z M 395.67235,44.398678 c 53.08966,-3.424703 70.89138,-13.481812 53.22903,-30.071828 -20.20754,-18.9806955 -82.0192,-36.315474 -147.43673,-41.347921 -18.19211,-1.399478 -105.90997,-1.418648 -117.68508,-0.02574 -27.45479,3.247761 -39.50063,9.17927 -39.65707,19.5276051 -0.23051,15.2484988 23.78505,31.8994099 60.32826,41.8278909 11.8903,3.23049 29.26491,6.463947 43.69634,8.131993 27.00813,3.121706 111.99875,4.249713 147.52525,1.957965 z M 225.65649,28.4522 C 209.09732,22.556361 190.32903,4.751651 186.82665,-8.3840857 c -0.7527,-2.8230163 -0.72802,-3.7285803 0.12486,-4.5811643 1.45242,-1.451929 2.11296,-0.858188 7.05084,6.3377972 7.67116,11.179167 16.02911,18.1348628 32.8979,27.3784338 8.49585,4.655456 10.29318,6.281954 8.85573,8.013981 -1.33673,1.610671 -5.01744,1.496684 -10.09949,-0.312762 z"
       style="fill:#2b77c7;fill-opacity:1;stroke-width:0.80176765"
       sodipodi:nodetypes="sssscccssscccscsscsssccssccscs" />
    <path
       inkscape:connector-curvature="0"
       id="path862"
       d="m 254.84437,57.249121 c -12.26096,-0.853193 -27.77654,-3.887643 -37.06718,-7.24939 -6.70703,-2.426887 -13.32643,-6.384148 -13.32643,-7.966909 0,-1.403887 7.79534,-0.859519 22.32646,1.559117 21.11839,3.515062 27.17026,4.057746 53.04408,4.756591 23.65314,0.638865 27.25572,1.121649 27.25572,3.652565 0,1.439959 -5.13368,3.433474 -11.38819,4.422278 -7.51327,1.187803 -29.30914,1.628446 -40.84446,0.825748 z M 225.29672,28.133586 c -12.09795,-4.368031 -25.2335,-14.59675 -32.5956,-25.3823534 -3.95245,-5.7904062 -5.88925,-10.1499057 -5.88925,-13.2560176 0,-4.444078 2.0793,-3.324682 6.75643,3.6373311 7.43267,11.0637044 16.10827,18.1407789 36.16623,29.5023969 5.01734,2.842018 6.04215,3.757275 5.83525,5.21149 -0.35589,2.501483 -3.86821,2.599659 -10.27306,0.287153 z m 4.8106,-63.037918 c -3.09057,-1.982073 4.39352,-4.769988 17.54847,-6.53702 4.43796,-0.59613 12.20555,-0.751545 21.73815,-0.434951 19.96332,0.663014 28.86364,2.24422 28.86364,5.127834 0,1.043444 -2.58089,1.123517 -20.24464,0.628104 -18.25302,-0.511936 -30.11146,-0.07905 -43.49589,1.587917 -1.76389,0.219677 -3.74827,0.05236 -4.40973,-0.371884 z"
       style="fill:#ffffff;stroke-width:0.80176765;fill-opacity:0.58823532" />
    <path
       style="fill:#000000;fill-opacity:0.313725;stroke-width:0.261888"
       d="m 402.82347,284.79093 c 46.29388,-0.71759 92.28302,-9.80276 135.56331,-26.8025 11.90736,-4.677 38.71511,-17.64745 50.51164,-24.43933 51.73664,-29.7875 96.18074,-71.626 129.05724,-121.49129 84.99559,-128.916702 84.99559,-295.21865 0,-424.13534 -32.8765,-49.86531 -77.3206,-91.70379 -129.05724,-121.4913 -11.79653,-6.79188 -38.60428,-19.76233 -50.51164,-24.43935 -35.83095,-14.07377 -74.21654,-22.83576 -113.85094,-25.98806 -5.18977,-0.41278 -13.71163,-0.64955 -22.70196,-0.71056 76.10467,15.45822 145.30538,61.75494 195.59322,130.99512 51.34012,70.68905 79.6006,160.64836 79.69901,253.70181 -0.0368,92.8090637 -28.08968,182.574237 -79.13935,253.23416 -50.10023,69.34572 -119.14202,115.8457 -195.16329,131.56664 z"
       id="path824"
       inkscape:transform-center-x="-194.89312"
       inkscape:transform-center-y="-0.015489925" />
  </g>
</svg>
