<?xml version="1.0" encoding="UTF-8" standalone="no"?>
<!-- Created with Inkscape (http://www.inkscape.org/) -->

<svg
   width="3000"
   height="3000"
   viewBox="0 0 793.74998 793.75002"
   version="1.1"
   id="svg8"
   inkscape:version="1.3 (0e150ed6c4, 2023-07-21)"
   sodipodi:docname="Pluto.svg"
   inkscape:export-filename="G:\Pictures\My Pictures\Vectors and SVGs\Space\Pluto.png"
   inkscape:export-xdpi="96"
   inkscape:export-ydpi="96"
   xmlns:inkscape="http://www.inkscape.org/namespaces/inkscape"
   xmlns:sodipodi="http://sodipodi.sourceforge.net/DTD/sodipodi-0.dtd"
   xmlns="http://www.w3.org/2000/svg"
   xmlns:svg="http://www.w3.org/2000/svg"
   xmlns:rdf="http://www.w3.org/1999/02/22-rdf-syntax-ns#"
   xmlns:cc="http://creativecommons.org/ns#"
   xmlns:dc="http://purl.org/dc/elements/1.1/">
  <defs
     id="defs2" />
  <sodipodi:namedview
     id="base"
     pagecolor="#000720"
     bordercolor="#666666"
     borderopacity="1.0"
     inkscape:pageopacity="0"
     inkscape:pageshadow="2"
     inkscape:zoom="0.1767767"
     inkscape:cx="1320.8754"
     inkscape:cy="1513.2085"
     inkscape:document-units="mm"
     inkscape:current-layer="layer1"
     showgrid="false"
     inkscape:pagecheckerboard="false"
     inkscape:showpageshadow="false"
     borderlayer="true"
     units="px"
     inkscape:snap-object-midpoints="true"
     inkscape:window-width="1600"
     inkscape:window-height="837"
     inkscape:window-x="-8"
     inkscape:window-y="-8"
     inkscape:window-maximized="1"
     inkscape:snap-page="true"
     inkscape:snap-global="false"
     inkscape:deskcolor="#505050" />
  <metadata
     id="metadata5">
    <rdf:RDF>
      <cc:Work
         rdf:about="">
        <dc:format>image/svg+xml</dc:format>
        <dc:type
           rdf:resource="http://purl.org/dc/dcmitype/StillImage" />
      </cc:Work>
    </rdf:RDF>
  </metadata>
  <g
     inkscape:label="Layer 1"
     inkscape:groupmode="layer"
     id="layer1"
     transform="translate(0,496.75002)">
    <path
       inkscape:connector-curvature="0"
       id="path838"
       d="m 381.19921,292.29744 c -15.05029,-0.54779 -35.04819,-2.68983 -51.60446,-5.52746 -30.13512,-5.16499 -62.60066,-14.95177 -90.34095,-27.23343 -16.37071,-7.24792 -37.10211,-18.21186 -49.87751,-26.37806 -2.91041,-1.86039 -6.54182,-4.17915 -8.06979,-5.15282 -1.52797,-0.97366 -6.27774,-4.24113 -10.55506,-7.26104 -20.43433,-14.4272 -40.65799,-31.82434 -57.56383,-49.51854 C 45.542328,100.42642 6.8398085,6.9109782 4.6091885,-91.127889 1.9460585,-208.17585 52.182698,-320.84399 141.09777,-397.23738 c 84.08741,-72.2456 194.60374,-105.60946 304.52748,-91.93403 76.9239,9.56998 148.92753,41.6291 208.04278,92.62963 14.78327,12.75399 26.99988,25.00194 40.216,40.31921 42.23314,48.94751 71.71786,107.51743 85.88455,170.60541 14.08006,62.70218 12.43835,128.553053 -4.75118,190.5732907 -3.97722,14.3499153 -7.56393,25.0237103 -14.0031,41.6718753 -4.80637,12.426738 -14.65188,32.804338 -22.73652,47.05858 -57.9578,102.187004 -158.70663,173.038664 -274.66086,193.155434 -12.40218,2.15162 -24.65544,3.65945 -37.96771,4.67212 -9.15403,0.69636 -11.91651,0.79682 -24.47396,0.89006 -7.78536,0.0578 -16.77458,0.01 -19.97604,-0.10676 z"
       style="fill:#b39d90;fill-opacity:1;stroke-width:0.26458332" />
    <path
       inkscape:connector-curvature="0"
       id="path836"
       d="m 382.52213,291.74578 c -21.37968,-0.62568 -49.34956,-4.22375 -71.83438,-9.24083 -24.96537,-5.57059 -51.20121,-14.25044 -72.36354,-23.94069 -22.82415,-10.4512 -46.2269,-23.42431 -56.32413,-31.2228 -15.33248,-11.84185 -17.47421,-13.55039 -22.38941,-17.86088 -4.39073,-3.85056 -10.03271,-8.72114 -13.72973,-11.85251 -1.25266,-1.06101 -3.29603,-2.61776 -4.54083,-3.45946 -2.147,-1.45174 -5.82203,-3.2104 -6.70871,-3.2104 -0.39623,0 -4.6585,-3.8667 -11.52015,-10.45104 -5.26092,-5.04827 -15.27167,-15.64275 -20.62353,-21.82606 -2.707012,-3.12756 -5.707062,-6.52084 -6.666782,-7.54062 -2.90516,-3.087 -13.79191,-17.27145 -19.52559,-25.44012 C 41.034128,75.464494 17.875888,17.391442 9.2061685,-42.536577 c -0.82249,-5.685261 -2.51305,-20.303676 -2.76912,-23.944792 -0.1484,-2.110052 -0.44795,-6.336771 -0.66567,-9.392708 -0.66357,-9.31381 -0.95949,-24.415833 -0.67877,-34.640253 0.91285,-33.24776 6.2971195,-67.79927 15.2185995,-97.65967 13.14009,-43.98017 31.53538,-82.20831 56.65204,-117.73133 14.30606,-20.23336 32.133122,-40.95328 48.428782,-56.28748 5.63851,-5.30583 6.30173,-5.87335 11.88297,-10.16833 1.73436,-1.33465 4.64166,-3.67495 6.46067,-5.20066 6.1138,-5.12801 7.29576,-6.11171 13.77988,-11.46851 11.08574,-9.15839 17.55087,-13.87737 28.95033,-21.13123 7.07578,-4.50256 10.97985,-6.79881 24.47396,-14.39479 1.23692,-0.69628 5.28505,-2.78403 8.99583,-4.63944 3.71078,-1.85542 7.10406,-3.58554 7.54062,-3.84471 0.43657,-0.25917 5.08001,-2.37511 10.31875,-4.70208 23.9376,-10.6327 49.74718,-19.20102 72.70555,-24.13692 9.27364,-1.99378 10.86747,-2.20509 19.89862,-2.63817 10.50716,-0.50387 18.40455,-1.38102 26.19375,-2.90931 4.04141,-0.79295 6.95899,-1.26599 15.74271,-2.55245 7.29996,-1.06915 8.84531,-1.20953 16.19906,-1.4716 22.65066,-0.80721 50.98383,1.32296 76.00823,5.71451 9.81988,1.7233 24.18152,4.81694 31.35313,6.75377 2.11005,0.56986 6.2177,1.65199 9.12812,2.40472 7.59394,1.96406 22.23215,6.85956 33.16632,11.0919 17.09716,6.61789 35.81074,15.41372 50.30597,23.64498 3.85836,2.19102 7.55099,4.27968 8.20584,4.64147 2.75722,1.52332 18.12136,11.44506 21.16666,13.66885 1.81901,1.32832 5.39089,3.88269 7.9375,5.67639 6.93404,4.88396 18.01686,13.6127 26.18579,20.62373 13.05631,11.20563 29.23418,27.15816 37.53781,37.01497 8.07318,9.58324 10.71938,12.78672 12.27778,14.86352 0.92819,1.23692 2.76193,3.67771 4.07503,5.42396 4.79515,6.37703 5.08114,6.8005 13.84864,20.5052 0.9775,1.52797 2.11254,3.37344 2.5223,4.10105 1.14628,2.03543 5.31413,8.93331 7.31483,12.1062 4.18862,6.64268 12.49974,22.2284 14.84889,27.84588 0.36513,0.87312 1.34374,3.13531 2.17469,5.02708 0.83095,1.89177 2.37935,5.7613 3.44091,8.59896 1.06153,2.83766 2.58969,6.77392 3.39587,8.74726 0.80621,1.97334 2.3504,6.20006 3.43152,9.39271 1.08111,3.19265 2.68155,7.76935 3.55647,10.17045 4.49011,12.3222 8.5757,24.76672 12.38578,37.72638 1.36591,4.64603 2.73669,15.64312 2.94886,23.65695 0.14325,5.41152 -0.0632,10.13074 -0.77546,17.72708 -0.15693,1.67349 -0.31219,7.26943 -0.34502,12.43542 -0.0655,10.30851 -0.24927,11.94162 -1.65293,14.69192 -0.68445,1.34114 -1.18724,1.78485 -3.54574,3.12922 -2.40035,1.36824 -3.42939,2.68386 -4.33056,5.53659 -1.92313,6.08778 -1.91432,14.32679 0.0265,24.664146 1.2455,6.634189 1.96213,10.876095 2.36903,14.022917 0.46569,3.601482 1.05474,6.318991 2.52338,11.641666 0.56214,2.037292 1.44839,6.085417 1.96943,8.995834 1.87235,10.458582 3.36151,17.759468 3.98949,19.559137 0.49332,1.413748 0.63929,2.376938 0.63929,4.218385 0,3.26345 -0.4667,9.07542 -1.08635,13.528728 -0.33549,2.411174 -0.61095,6.659562 -0.78912,12.1708327 -0.31023,9.5956967 -1.01759,16.9231998 -1.98358,20.5473833 -1.57319,5.902246 -6.54717,20.680918 -9.94725,29.555308 -18.50933,48.309979 -46.73807,92.939233 -82.3381,130.175393 -3.94647,4.12785 -7.36621,7.64019 -7.59941,7.80521 -0.23323,0.16502 -3.2098,2.97035 -6.61459,6.23403 -6.32177,6.05976 -18.00018,16.36081 -22.9916,20.27992 -5.24002,4.1143 -12.03928,9.27748 -13.63604,10.35481 -1.55528,1.04937 -6.70875,4.06011 -10.17646,5.94527 -10.31298,5.60641 -12.764,7.01289 -19.05,10.93137 -11.35197,7.07646 -25.97645,14.27059 -31.24129,15.36834 -2.24832,0.46879 -3.08057,0.27761 -4.41274,-1.01359 -0.77261,-0.74882 -1.07347,-0.85537 -2.6697,-0.94557 -2.11625,-0.11959 -8.26352,0.62106 -17.10648,2.061 -10.81516,1.7611 -19.85962,2.94191 -28.44271,3.71335 -10.24966,0.92125 -14.45969,1.84486 -16.29367,3.57455 -1.0513,0.99147 -1.04122,0.84233 -0.25506,3.77891 0.27472,1.02624 0.37568,1.99115 0.26294,2.51354 -0.53173,2.46412 -2.86451,5.12792 -7.52671,8.59475 -5.18049,3.85223 -8.20208,7.10552 -8.20208,8.83105 0,0.9569 0.74081,1.61592 2.27886,2.02729 0.72107,0.19286 1.14432,0.42998 1.00483,0.56293 -0.46278,0.44114 -14.60159,3.4416 -23.68735,5.02679 -26.5045,4.62426 -52.60589,6.40033 -81.59322,5.55199 z m 37.11228,-4.07736 c 7.89263,-0.64151 12.08765,-1.38237 14.38037,-2.53963 0.5265,-0.26574 1.59806,-1.06754 2.38125,-1.78175 1.71262,-1.56176 3.49467,-2.70788 6.84797,-4.40431 4.35404,-2.20271 8.27778,-5.11305 9.13914,-6.77871 1.11222,-2.15082 -0.14508,-3.88106 -3.55066,-4.88624 -2.51783,-0.74316 -13.76294,-2.58784 -20.00827,-3.28221 -1.30969,-0.1456 -5.41734,-0.44548 -9.12812,-0.66635 -7.95991,-0.47385 -9.95651,-0.84082 -19.44688,-3.57442 -10.7293,-3.09044 -11.91794,-3.39831 -17.4625,-4.52305 -2.91041,-0.59037 -5.94651,-1.23611 -6.74687,-1.43497 -5.26762,-1.30879 -16.43179,-3.06348 -22.88646,-3.59709 -4.75337,-0.39296 -19.54893,-0.15105 -24.60625,0.40233 -2.03729,0.22293 -6.18768,0.5348 -9.22309,0.69305 -3.0354,0.15824 -5.80665,0.39714 -6.15833,0.53086 -1.79009,0.68058 -0.59285,2.05285 3.71229,4.25495 3.46136,1.77048 10.78238,5.76154 13.6535,7.4432 5.64039,3.30364 8.03193,5.47386 11.01143,9.99231 2.03669,3.08867 3.41503,4.41926 5.83478,5.63258 2.96786,1.48818 9.31503,3.38945 13.84546,4.14737 7.95459,1.33072 23.09021,3.42379 30.55938,4.22595 5.92531,0.63635 20.85686,0.71472 27.85186,0.14613 z M 256.41857,252.07146 c 2.98764,-0.38783 4.57709,-1.24973 7.04106,-3.81812 1.93701,-2.01912 2.2706,-2.25364 3.93046,-2.76326 2.86295,-0.87897 8.3248,-0.68276 17.98683,0.64611 5.39316,0.74176 8.80816,0.84064 9.57852,0.27734 0.48152,-0.35208 0.48567,-0.4186 0.0785,-1.25677 -0.23643,-0.48675 -1.76308,-2.31375 -3.39254,-4.06 -5.26867,-5.64624 -7.22371,-8.64826 -9.80914,-15.06215 -1.76453,-4.37743 -2.7414,-6.02335 -4.65568,-7.84437 -2.21705,-2.10902 -4.54203,-3.38444 -11.0571,-6.0656 -9.07554,-3.73488 -11.07341,-4.84462 -17.87342,-9.92822 -11.13737,-8.32612 -17.42746,-10.96965 -26.10846,-10.97262 -3.81015,0 -6.48411,0.37973 -9.61029,1.36943 -3.21752,1.01862 -5.11014,2.0887 -8.0698,4.56261 -1.30968,1.09474 -3.14964,2.38054 -4.08879,2.85734 -1.54523,0.78452 -1.92249,0.86553 -3.96875,0.85236 -2.08187,-0.0135 -2.66499,-0.15394 -7.35226,-1.77216 -8.34027,-2.8794 -13.61561,-3.81852 -20.01614,-3.5633 -6.81645,0.27178 -9.08168,1.20761 -7.99761,3.30399 0.70398,1.36133 6.73272,6.8921 12.83792,11.77753 6.42391,5.14045 9.84284,8.04878 14.37586,12.22891 9.22416,8.50603 12.10453,10.7724 19.45524,15.30802 4.28188,2.64205 7.44465,4.22846 12.10037,6.06949 6.87667,2.71923 13.72096,4.84949 18.52083,5.7645 12.48843,2.38075 14.26571,2.58593 18.09436,2.08894 z m 207.10792,-85.30103 c 2.46475,-0.36558 6.85112,-1.21851 19.00814,-3.6962 6.75642,-1.377 10.273,-1.74842 16.62686,-1.75618 9.01521,-0.0111 12.46,-0.50781 16.49672,-2.37918 3.66083,-1.69709 5.00274,-2.78027 12.12017,-9.78321 12.76096,-12.5557 17.02914,-15.44034 44.77689,-30.26267 9.6969,-5.17988 16.32064,-9.54892 23.43692,-15.45905 3.19998,-2.65763 14.68623,-13.537537 19.36327,-18.341126 8.06426,-8.282464 12.18107,-14.518984 13.77656,-20.870016 0.66982,-2.666339 0.69131,-7.893791 0.0424,-10.31875 -0.65122,-2.433506 -2.33918,-5.740982 -4.16976,-8.170334 -3.99875,-5.306748 -9.30759,-8.682011 -17.29726,-10.997327 -2.49722,-0.723661 -5.50215,-1.353026 -17.61967,-3.690223 -10.19016,-1.965483 -9.62863,-1.879176 -19.06502,-2.929678 -14.63366,-1.629092 -19.98917,-2.856865 -27.13901,-6.22173 -6.39831,-3.01117 -10.94996,-6.989471 -15.0808,-13.1811715 -2.99688,-4.49199 -9.95449,-19.0054705 -11.90408,-24.8317545 -0.72858,-2.177335 -0.98446,-3.47472 -1.17165,-5.940901 -0.41511,-5.468832 -1.55654,-8.460211 -4.12329,-10.806059 -1.59197,-1.454971 -3.26454,-2.133548 -5.23775,-2.125001 -3.99214,0.0172 -6.60715,3.194261 -9.66848,11.74623 -1.8397,5.139293 -2.81231,6.575504 -11.96211,17.6638207 -8.19359,9.929495 -13.27679,18.0960453 -16.70751,26.8418203 -2.25829,5.757069 -3.23334,10.321105 -3.49723,16.370433 -0.37127,8.509899 -2.18602,14.614048 -7.24525,24.370241 -4.49577,8.669655 -9.58093,15.824042 -14.76293,20.770136 -4.83303,4.61301 -9.26396,7.693369 -22.42968,15.592928 -9.4474,5.668542 -11.9399,7.310592 -15.21354,10.022682 -4.10342,3.39952 -7.19632,7.52851 -8.52895,11.38605 -0.8722,2.52473 -0.83074,5.70368 0.10022,7.684 2.06574,4.39428 5.32943,6.50513 14.98471,9.69153 7.15335,2.36072 9.80691,3.61421 12.10095,5.7163 2.43703,2.23311 3.40829,3.70062 5.6214,8.49376 2.67443,5.79223 4.53083,8.26153 8.37961,11.14618 2.81361,2.10881 7.5496,3.98926 11.65977,4.62957 2.2012,0.34293 11.08115,0.11666 14.32936,-0.36512 z M 309.62942,132.72477 c 2.27597,-0.34427 3.9416,-0.8958 6.37442,-2.11069 2.67137,-1.33403 3.49356,-2.07219 4.45815,-4.00248 1.45981,-2.92134 1.01201,-6.21811 -1.30545,-9.61083 -1.1701,-1.71299 -4.67538,-5.18012 -7.01641,-6.94008 -3.66308,-2.75378 -8.66018,-4.82748 -11.63315,-4.82748 -2.751,0 -5.59411,1.70786 -6.72192,4.03789 -1.82444,3.76923 -0.8727,15.45931 1.56832,19.26328 1.06817,1.66463 2.63731,3.06382 4.17528,3.72306 2.16035,0.92604 5.91881,1.09992 10.10076,0.46733 z M 12.070988,-68.928765 c 0.41265,-1.539795 -0.0285,-7.034001 -0.77543,-9.657291 -0.47056,-1.652667 -1.06586,-1.84023 -1.3323395,-0.419762 -0.34318,1.829329 0.2706595,8.219863 0.9649695,10.046018 0.30143,0.792824 0.93405,0.809995 1.1428,0.03104 z m 126.361862,-1.508707 c 3.98716,-0.833384 6.9521,-2.437527 12.18298,-6.591406 2.72993,-2.167863 11.50215,-10.275623 14.71744,-13.602626 3.69845,-3.826986 5.52333,-6.43038 7.74849,-11.054076 2.0309,-4.22008 3.2857,-8.09935 5.17305,-15.99266 3.77301,-15.77965 4.54809,-18.31415 8.65765,-28.31042 6.74541,-16.40785 8.68154,-23.84266 8.68154,-33.3375 0,-6.80982 -1.05918,-11.9588 -3.36114,-16.33945 -2.01634,-3.83709 -4.52465,-5.73188 -9.27172,-7.00395 -2.30875,-0.61864 -3.08251,-0.69373 -7.34318,-0.7126 -6.52639,-0.0289 -8.56629,0.46014 -22.225,5.32823 -9.57641,3.41313 -17.34345,5.05135 -22.48958,4.74351 -4.6585,-0.27866 -8.16072,-1.44275 -11.15187,-3.70671 -5.65911,-4.28326 -6.82737,-6.84231 -7.51189,-16.45467 -0.32073,-4.50385 0.0319,-17.74672 0.68079,-25.56489 0.43417,-5.23141 0.52067,-16.64465 0.1413,-18.64507 -0.72605,-3.82842 -2.20228,-5.87126 -6.38681,-8.83815 -3.31004,-2.34687 -4.76739,-4.12008 -6.0776,-7.39479 -1.215622,-3.03829 -1.335012,-3.90928 -1.585162,-11.56429 -0.2725,-8.33859 -0.56874,-10.34481 -1.89587,-12.83916 -0.97046,-1.82399 -5.23316,-6.47487 -6.14398,-6.70347 -0.90169,-0.22631 -1.9252,0.30242 -4.09176,2.11375 -3.35805,2.80744 -7.1911,7.08122 -9.74833,10.86921 -2.45146,3.6313 -5.79018,11.22415 -8.55116,19.44687 -2.43948,7.26525 -3.71577,10.29221 -8.59005,20.37292 -1.93498,4.00182 -3.94854,8.31715 -4.47459,9.58962 -1.68179,4.06813 -4.3061,12.83453 -6.63391,22.16038 -1.63398,6.54614 -3.68724,13.32719 -7.53073,24.87083 -2.70332,8.11925 -5.6119,19.58737 -6.50914,25.66459 -0.57425,3.88961 -0.80401,13.34643 -0.39276,16.16633 0.49244,3.37666 2.30551,10.30261 3.31349,12.65761 2.88285,6.73537 5.17795,7.37828 11.38551,3.18948 3.28315,-2.21547 4.94612,-2.64893 6.69418,-1.74498 1.29446,0.66939 2.11538,1.89952 4.42182,6.62598 1.21123,2.48209 2.73263,5.17652 3.3809,5.98763 3.04335,3.80783 6.62146,4.65275 15.00241,3.54253 5.14166,-0.68111 9.86785,-0.10509 13.26994,1.61729 2.10771,1.0671 4.92458,4.04887 6.22984,6.59459 2.103652,4.10284 2.889212,6.94332 4.975762,17.991663 2.09766,11.107182 3.30454,14.132666 7.70824,19.323499 4.06762,4.794674 8.6808,7.192804 15.48718,8.050927 2.90881,0.366739 9.19286,0.103955 12.11372,-0.506571 z M 668.29128,-196.33924 c 1.37375,-0.70771 2.53617,-1.97453 3.44705,-3.75671 0.69868,-1.36705 0.7498,-1.69566 0.84362,-5.42396 0.0739,-2.9373 -0.0434,-5.11794 -0.45135,-8.3906 -0.90173,-7.23419 -0.65953,-10.48105 0.98158,-13.15844 0.97364,-1.58846 2.44739,-2.29783 6.15376,-2.96201 4.20846,-0.7542 5.82186,-1.63693 6.92512,-3.78897 0.45334,-0.88424 0.51562,-1.38019 0.39889,-3.175 -0.17047,-2.62066 -1.13737,-5.36384 -3.39495,-9.6317 -1.96787,-3.72021 -6.82017,-11.49766 -8.90834,-14.27866 -3.53348,-4.70585 -10.81614,-11.31514 -18.64667,-16.9226 -5.75574,-4.12169 -10.24556,-7.96499 -15.93977,-13.64443 -8.75154,-8.72888 -9.99138,-9.09583 -11.39306,-3.37194 -0.37047,1.51287 -0.88911,3.17974 -1.1525,3.70417 -0.26339,0.52443 -0.84034,1.66789 -1.28209,2.54101 -0.70329,1.39009 -2.87245,8.00195 -4.90432,14.94896 -2.28631,7.81708 -3.12975,15.8336 -2.1599,20.52902 1.56533,7.57823 6.101,15.71141 16.66008,29.87411 10.2916,13.80394 20.71605,24.7215 25.41312,26.6152 2.77302,1.11797 5.59139,1.22925 7.40973,0.29255 z m -410.93117,-46.10983 c 2.77657,-0.51328 10.65972,-4.17775 16.07031,-7.47029 3.22001,-1.95946 6.15088,-4.13471 8.76128,-6.50247 0.98933,-0.89734 5.09699,-4.44245 9.12813,-7.87802 8.33943,-7.10729 15.71117,-14.34514 20.03287,-19.66902 1.59473,-1.96453 4.27691,-5.00062 5.96041,-6.74687 1.97511,-2.04873 4.31482,-4.91135 6.59571,-8.0698 1.94414,-2.69213 4.62582,-6.32354 5.95932,-8.06979 3.5877,-4.69824 5.13628,-7.01886 7.28229,-10.91294 2.3758,-4.31106 3.87561,-6.21684 6.03459,-7.66804 2.69578,-1.81202 5.53955,-2.50598 14.36319,-3.50506 2.56268,-0.29016 5.48585,-0.70142 6.49595,-0.9139 5.76032,-1.21172 9.77283,-3.68279 13.10796,-8.07244 1.72738,-2.27354 4.74951,-8.39806 5.48013,-11.10578 1.38501,-5.13291 1.67666,-11.19828 0.80896,-16.82392 -0.99819,-6.47181 -2.23488,-10.22593 -4.25064,-12.90347 -1.27415,-1.69244 -2.36616,-2.70689 -9.35654,-8.69195 -6.27229,-5.37027 -7.19367,-6.37516 -14.66172,-15.99079 -3.6308,-4.67489 -6.03615,-6.93339 -8.87145,-8.32976 -3.35868,-1.65414 -6.67248,-2.38962 -11.53602,-2.56039 -6.67896,-0.23451 -12.70519,0.54104 -22.13669,2.8489 -6.97817,1.70755 -10.80463,2.88145 -15.16956,4.65378 -8.61193,3.4968 -12.23476,6.21102 -18.63929,13.96463 -6.20694,7.51441 -9.37133,10.08147 -18.1378,14.71411 -2.54661,1.34576 -6.83286,3.66861 -9.525,5.16191 -11.8363,6.56545 -24.18748,12.84024 -37.70312,19.15437 -10.29355,4.80885 -13.67076,6.89941 -17.19792,10.64585 -4.45385,4.73074 -7.32091,12.29419 -6.51353,17.18303 0.50059,3.03122 1.40443,4.4243 4.68858,7.22649 2.13897,1.82507 3.57625,3.50212 6.5923,7.69204 2.76875,3.84635 6.49022,7.64345 11.50149,11.73519 5.08575,4.15257 9.40312,8.30417 12.24557,11.77541 5.08862,6.2143 7.88013,9.50107 10.83052,12.75203 1.7242,1.89986 3.66004,4.15636 4.30186,5.01445 3.1286,4.18279 4.7863,8.35433 5.83766,14.6903 0.8055,4.85434 1.29648,6.86013 2.03226,8.30238 1.24754,2.44538 2.59517,3.59169 4.97183,4.22909 1.78887,0.47977 2.64151,0.50576 4.61611,0.14074 z m 302.86619,-165.7237 c 1.11146,-0.19824 3.19505,-0.86419 4.6302,-1.47989 3.42922,-1.47117 5.49151,-2.16781 10.28229,-3.47336 6.47526,-1.76459 7.68724,-2.66889 7.4521,-5.56027 -0.19905,-2.4478 -1.40488,-4.38166 -4.92752,-7.90242 -3.99878,-3.99666 -7.44286,-6.56917 -16.28291,-12.16227 -5.24047,-3.31565 -13.23427,-6.90335 -23.54792,-10.56855 -7.94014,-2.82172 -14.00005,-5.98168 -19.96437,-10.41047 -11.02463,-8.18633 -20.56955,-12.76135 -32.67017,-15.65928 -5.8997,-1.4129 -12.40708,-2.7299 -16.42171,-3.32351 -7.74075,-1.14457 -21.81844,-3.48381 -24.73854,-4.11072 -1.67349,-0.35928 -4.62232,-1.12676 -6.55293,-1.70552 -6.50939,-1.95137 -11.49041,-2.64303 -18.99433,-2.63752 -5.21597,0.004 -19.72707,1.82958 -23.53295,2.96087 -2.51364,0.74717 -4.91807,1.86094 -5.54513,2.56858 -1.13858,1.28492 0.25654,2.06866 8.32326,4.6758 8.53419,2.75822 13.90285,5.06795 22.35729,9.61863 4.21262,2.26748 7.46694,3.36794 17.19792,5.81549 4.07458,1.02485 8.86309,2.34312 10.64114,2.92949 7.59119,2.5034 15.19217,6.6466 23.6224,12.87625 8.69823,6.42768 14.13745,9.48633 30.29479,17.03573 7.57494,3.53933 11.9902,5.76469 17.85938,9.00142 12.85872,7.09132 17.29163,8.8106 26.85785,10.41664 9.36741,1.57267 10.48076,1.66191 13.65986,1.09488 z"
       style="fill:#a98f7f;fill-opacity:1;stroke-width:0.26458332" />
    <path
       inkscape:connector-curvature="0"
       id="path834"
       d="m 298.38463,279.40115 c -11.12338,-2.7558 -30.01187,-8.84225 -42.76614,-13.78059 -10.70958,-4.14663 -12.92234,-5.19546 -8.78284,-4.16298 0.8485,0.21164 3.00693,0.57081 4.79651,0.79817 3.81903,0.48514 4.29908,0.59214 10.35925,2.30865 2.53945,0.71929 8.07587,2.18802 12.30312,3.26387 16.21806,4.12753 19.54699,5.16678 20.52251,6.40694 0.66646,0.84727 0.65868,1.08085 -0.0616,1.84753 -0.83616,0.89003 -0.43198,1.36348 2.00644,2.3503 1.11956,0.45309 2.11135,0.89958 2.20398,0.99218 0.0926,0.0926 0.11877,0.1546 0.0582,0.13772 -0.0607,-0.0169 -0.34838,-0.0897 -0.63942,-0.16179 z m 242.62291,-43.21956 c -1.89177,-0.42238 -5.02419,-1.13046 -6.96097,-1.57348 -1.93675,-0.44304 -5.77122,-1.16096 -8.52107,-1.59538 -7.78936,-1.23058 -10.83847,-2.27611 -12.64785,-4.33689 -1.84541,-2.10183 -1.74667,-4.86741 0.32168,-9.01033 1.91913,-3.84398 5.71828,-7.8032 12.13779,-12.64918 4.59827,-3.47115 8.77496,-5.63102 19.63917,-10.15598 8.30369,-3.4585 14.63869,-6.87287 20.03256,-10.79693 4.51533,-3.28491 10.71631,-10.16299 16.07143,-17.82622 6.37728,-9.12598 10.43352,-13.26899 19.43555,-19.85132 4.18552,-3.06043 8.0931,-5.57517 11.40717,-7.34107 4.93445,-2.62933 7.12708,-5.82798 9.50642,-13.86819 2.26476,-7.653 4.12213,-12.04122 6.90396,-16.31125 4.42055,-6.78545 8.08257,-10.28734 18.7334,-17.914273 12.46243,-8.924184 17.01469,-13.366512 22.51803,-21.974122 3.51792,-5.502248 6.05763,-11.1878 9.5174,-21.306261 4.42735,-12.948152 6.70343,-16.581199 16.33712,-26.076883 7.89737,-7.784254 13.44166,-12.398799 17.00393,-14.1525101 2.11124,-1.0393362 4.24018,-1.1822642 5.35154,-0.3592777 1.54734,1.1458578 1.724,1.6674048 4.20394,12.4105458 0.53745,2.328334 1.31215,5.144956 1.72151,6.259169 1.42957,3.890936 3.48266,7.384441 5.23221,8.90315 1.67349,1.452694 4.53255,2.42906 7.13216,2.435622 0.68406,0.0026 1.8986,0.178911 2.69897,0.393726 0.80036,0.214815 2.02459,0.392007 2.72047,0.393726 3.23472,0.0079 4.9032,-1.689443 10.92623,-11.115992 1.71778,-2.688484 4.10951,-6.214401 5.31495,-7.835371 3.41606,-4.593643 5.69455,-5.740903 6.87353,-3.460988 1.6401,3.171587 0.5102,10.06176 -3.77436,23.016236 -1.52908,4.623277 -3.08432,9.08812 -3.45606,9.921875 -0.37177,0.833755 -1.78316,4.135306 -3.13648,7.336764 -3.85159,9.111536 -4.059,9.56601 -8.39071,18.388542 -2.25062,4.583906 -5.61504,11.013281 -7.47646,14.2875 -1.86145,3.274218 -3.88675,6.846093 -4.50067,7.9375 -0.61394,1.091406 -2.49327,4.246562 -4.17629,7.011462 -1.68301,2.76489 -3.80613,6.27723 -4.71807,7.8052 -1.79668,3.01033 -5.31024,8.28657 -7.48816,11.2448 -5.10244,6.93049 -7.12473,9.4992 -10.51923,13.36145 -5.68401,6.46729 -10.96772,11.42508 -19.92474,18.6957 -5.86679,4.76221 -10.72821,8.3216 -15.06463,11.02987 -6.2892,3.92787 -8.28537,3.92118 -7.6935,-0.0257 0.61947,-4.13078 6.19932,-16.98136 9.62178,-22.1592 2.91587,-4.4114 6.98953,-8.48098 14.72385,-14.70912 9.19467,-7.4041 12.09628,-10.33616 15.81643,-15.98255 3.3233,-5.04404 4.88061,-9.173 5.13929,-13.62604 0.19158,-3.297713 -0.16817,-4.897199 -1.85407,-8.243675 -1.68449,-3.343725 -2.7201,-4.22492 -5.17377,-4.402403 -3.42495,-0.247729 -7.04006,1.565328 -14.49236,7.268316 -6.85255,5.244012 -10.9755,7.006432 -17.50537,7.482972 -2.77198,0.2023 -3.50655,0.356 -4.96612,1.03902 -5.23475,2.44964 -11.84786,10.17045 -16.00327,18.68389 -2.64694,5.42298 -2.84284,7.16005 -1.55638,13.80144 0.7348,3.79349 0.80078,4.55348 0.69683,8.02669 -0.0723,2.41483 -0.27514,4.40552 -0.54745,5.37213 -1.79618,6.37598 -5.82287,13.10608 -15.703,26.24558 -9.42541,12.53479 -14.98205,18.97877 -20.99079,24.34278 -11.40317,10.17955 -19.34679,16.45994 -26.44434,20.90745 -10.74801,6.73494 -18.51935,10.60387 -27.03335,13.45838 -6.58228,2.20686 -11.08541,2.52412 -17.01978,1.19914 z M 433.16118,236.0742 c -4.59568,-0.41344 -8.20499,-1.06717 -14.72533,-2.66708 -9.84991,-2.41689 -17.58852,-6.20803 -20.42268,-10.00501 -2.00369,-2.68436 -2.26188,-3.42802 -2.26188,-6.51473 0,-2.66248 0.0378,-2.84779 0.90753,-4.45198 1.70984,-3.15363 5.65782,-6.03475 9.66525,-7.05343 3.277,-0.83298 7.38926,-0.35851 10.53047,1.21505 1.95543,0.97954 3.09817,1.87677 6.81019,5.34704 3.27014,3.05721 6.40395,5.25873 8.55832,6.01229 0.85071,0.29758 2.87478,0.72271 4.49792,0.94475 6.0779,0.83148 10.36608,2.41922 12.89788,4.77554 3.18505,2.96431 3.48797,6.87774 0.71435,9.22869 -1.37311,1.16391 -4.38452,2.42692 -6.83051,2.86481 -3.39617,0.60798 -6.08447,0.68701 -10.34151,0.30406 z M 129.10925,163.32918 c -4.16844,-1.71413 -11.52756,-7.16235 -19.50483,-14.44014 -3.98149,-3.63239 -5.05941,-4.49749 -5.60387,-4.49749 -0.26485,0 -0.48155,0.0668 -0.48155,0.14851 0,0.0817 0.71539,1.98196 1.58975,4.22288 1.99614,5.1159 2.31531,6.41109 1.85422,7.52427 -0.99484,2.40176 -3.12718,1.62103 -8.544112,-3.12843 -3.25984,-2.85814 -3.6301,-3.28562 -10.68743,-12.33911 -31.30359,-40.15774 -54.76669,-86.884745 -68.45912,-136.3370112 -2.34832,-8.4812981 -6.1138,-24.3814858 -5.91516,-24.9774338 0.11026,-0.330782 2.46957,7.036118 3.74464,11.6925724 0.49809,1.8190104 1.44566,5.0932291 2.10571,7.2760416 0.66005,2.18281256 1.7533,6.0523438 2.42945,8.5989584 2.09824,7.9027076 2.38464,8.9072776 4.85689,17.0359386 3.10613,10.212811 6.8913,20.27182 10.3845,27.596651 2.13788,4.482861 7.45366,13.858293 10.24759,18.073661 5.89499,8.894101 15.31959,18.608437 17.31178,17.843976 1.02564,-0.393594 1.22353,-3.160395 0.67262,-9.404429 -0.24131,-2.735051 -0.24533,-4.322895 -0.0168,-6.614584 0.47209,-4.733501 0.7477,-5.289761 4.16901,-8.414517 1.13836,-1.039707 2.41849,-3.673316 3.4461,-7.089669 1.37569,-4.573561 2.05138,-6.576404 2.56102,-7.591161 0.74996,-1.493308 2.71657,-3.488981 4.09637,-4.156921 1.40916,-0.682176 3.90861,-0.786395 6.16128,-0.256937 1.73149,0.406982 9.2685,4.242408 12.41716,6.318832 3.609122,2.380086 7.206822,6.244802 10.761522,11.560201 5.06725,7.577164 14.76721,26.514716 17.4369,34.042668 1.82551,5.147543 6.16749,13.551273 10.71472,20.737833 5.0201,7.93395 6.86747,11.30972 7.56797,13.82929 0.54763,1.96969 0.3431,3.20918 -0.70201,4.25429 -0.80831,0.8083 -0.85867,0.82325 -5.94105,1.76255 -6.3471,1.17303 -8.86354,3.88046 -8.86354,9.53627 0,4.80269 0.57268,7.45601 2.55255,11.82629 1.54713,3.41508 1.94189,4.9774 1.41739,5.60938 -0.48044,0.57888 -2.02166,0.47972 -3.77969,-0.24323 z M 355.66692,49.94305 c -10.40778,-1.903439 -18.17865,-6.471735 -20.04118,-11.781711 -0.70054,-1.997233 -0.55671,-5.29672 0.43833,-10.054166 1.07556,-5.142389 1.26183,-7.864713 0.71512,-10.451042 -1.21433,-5.744475 -4.71654,-9.6261505 -15.90498,-17.6283411 -6.05941,-4.3337957 -8.36189,-5.5970223 -16.8543,-9.2468436 -11.72258,-5.0380633 -13.97138,-6.9434603 -15.19613,-12.8755773 -0.48205,-2.33471 -0.94409,-3.634872 -2.20054,-6.192255 -4.94501,-10.065094 -20.02224,-28.772406 -27.89887,-34.61594 -6.91219,-5.128049 -14.27015,-8.772869 -27.54391,-13.644034 -7.58003,-2.781697 -12.27693,-5.522833 -16.26961,-9.495049 -4.59237,-4.568799 -7.44071,-10.081551 -9.0322,-17.481131 -0.50831,-2.36336 -0.5987,-3.58788 -0.60543,-8.20208 -0.009,-5.93071 0.30223,-8.34805 1.72534,-13.41623 3.06955,-10.93163 10.61444,-23.26521 18.71513,-30.59348 5.04099,-4.56033 9.95072,-7.16941 19.75427,-10.49761 7.55007,-2.56317 9.98117,-3.75152 12.17084,-5.94926 2.94428,-2.95515 3.80021,-5.47666 3.99691,-11.77467 0.075,-2.40109 0.26261,-4.96094 0.41691,-5.68854 0.38181,-1.80036 1.6894,-4.21029 2.82584,-5.20809 3.04924,-2.67729 7.86945,-3.03371 11.61198,-0.85862 0.69117,0.40171 2.65948,2.1844 4.37401,3.9615 3.5919,3.72306 4.99496,4.6097 8.37695,5.29383 6.88461,1.39264 18.24648,-2.01932 24.52285,-7.3642 3.85384,-3.28186 5.68783,-6.2948 8.16824,-13.41921 4.43651,-12.74273 7.83164,-16.97493 21.02009,-26.20273 12.77916,-8.94143 15.70593,-13.01644 23.15723,-32.24229 1.38369,-3.57021 2.57181,-5.98371 4.05612,-8.23943 2.86737,-4.35762 4.80155,-5.90756 14.84225,-11.89378 9.08738,-5.41783 12.02965,-7.47837 15.10874,-10.58092 4.22886,-4.26111 6.27306,-8.51048 7.5537,-15.70225 1.15974,-6.51277 1.42573,-7.49865 4.79509,-17.77298 4.95864,-15.12046 5.578,-17.92306 5.29175,-23.94479 -0.2114,-4.44715 -0.68927,-6.90817 -2.715,-13.98187 -0.94411,-3.29679 -2.29997,-8.31589 -3.01305,-11.15355 -2.00387,-7.97438 -3.51686,-11.79274 -6.17392,-15.58107 -0.65209,-0.92975 -3.37089,-4.13073 -6.04178,-7.1133 -2.67089,-2.98257 -5.3612,-6.0914 -5.97847,-6.90851 -0.61725,-0.81711 -2.24925,-3.74785 -3.62667,-6.51274 -2.84721,-5.71528 -4.70395,-8.3689 -9.28818,-13.27449 -4.35488,-4.66014 -9.38781,-10.62801 -9.80493,-11.62634 -1.13162,-2.70835 0.46366,-4.77239 5.47979,-7.08999 5.78123,-2.67109 15.78965,-3.84557 28.43625,-3.33695 11.97512,0.48161 20.76424,1.75297 28.67718,4.1482 7.16688,2.1694 13.01616,6.08933 15.21188,10.19433 1.95768,3.65993 3.87062,5.02168 14.16719,10.08512 9.9717,4.90367 12.85669,6.53836 21.21371,12.02003 3.97595,2.60796 9.25306,5.97495 11.72692,7.48219 6.48438,3.95072 8.56361,5.32395 17.85937,11.79528 10.27115,7.15034 12.08265,8.31303 15.45381,9.91883 4.79761,2.28525 9.09146,3.14837 15.71125,3.15817 5.87095,0.009 12.04601,1.01137 17.73661,2.87999 9.37972,3.08002 15.07397,7.73793 17.57135,14.37336 0.74777,1.98684 0.82566,2.48207 0.84362,5.36394 0.0323,5.17353 -0.94413,7.26665 -6.03541,12.93783 -3.48421,3.88107 -4.24161,5.37164 -5.70203,11.22152 -1.19846,4.80063 -2.1077,7.34142 -3.55034,9.9211 -1.87253,3.34842 -5.04896,6.17229 -8.99221,7.99419 -3.64164,1.68254 -5.7499,2.00853 -18.03352,2.78846 -8.83883,0.56122 -13.49328,2.03661 -18.18384,5.76402 -5.04211,4.00677 -13.90705,15.32136 -18.7925,23.98538 -4.80264,8.51712 -5.94334,17.07263 -3.10957,23.32237 2.17278,4.79197 9.56596,11.4433 15.08278,13.56933 3.6989,1.42546 8.84436,2.10264 16.14652,2.125 5.80059,0.0178 9.8199,0.81422 13.71692,2.7181 6.49643,3.17384 12.48596,9.84469 19.10681,21.28024 2.4887,4.29853 3.65501,5.87089 4.89278,6.59627 0.67223,0.39397 2.54918,0.95843 4.77684,1.43661 4.58139,0.98341 5.97115,1.37348 8.96118,2.51524 5.66025,2.16141 10.2585,5.84425 12.16186,9.74069 0.79494,1.6274 1.08394,3.15216 1.45214,7.66109 0.86241,10.56179 -0.30435,14.3824 -4.4845,14.68477 -2.608,0.18865 -7.18918,-1.32419 -11.26673,-3.72063 -3.17762,-1.86753 -7.05742,-5.701 -8.24677,-8.14829 -1.06966,-2.20099 -1.6451,-4.63748 -1.65264,-6.99746 -0.0119,-3.71679 -1.378,-9.18935 -2.88605,-11.56092 -0.99539,-1.56543 -1.9503,-2.06512 -3.94634,-2.06512 -1.2623,0 -1.92635,0.18073 -3.43249,0.93421 -2.05632,1.02873 -3.12338,2.08198 -4.22347,4.16878 -0.65968,1.25143 -0.7271,1.63753 -0.7271,4.16459 v 2.78527 l 1.41827,2.77098 c 0.78005,1.52403 2.29839,4.28072 3.37408,6.12598 3.64799,6.25787 4.45489,9.05489 4.26061,14.76894 -0.395,11.61827 -6.32624,22.65973 -14.3872,26.78287 -4.03756,2.0652 -7.30141,2.89054 -13.38683,3.38516 -5.60107,0.45524 -11.30006,-0.31319 -22.58518,-3.0453 -6.91702,-1.67463 -9.1437,-2.05005 -12.13958,-2.04677 -3.13256,0.003 -5.14488,0.55142 -8.65582,2.35712 -3.36576,1.73104 -9.05565,5.54281 -12.11672,8.11723 -3.61151,3.03737 -5.05625,3.61284 -9.52225,3.79294 -3.60019,0.14517 -7.80336,-0.31097 -16.27188,-1.76594 -13.04052,-2.24046 -18.81423,-2.47962 -25.39865,-1.05209 -9.53079,2.06635 -14.68694,6.31002 -18.09472,14.89255 -2.63446,6.63496 -3.3078,10.67544 -3.31422,19.88743 -0.004,6.001894 0.087,7.569629 0.71519,12.293289 0.39598,2.977753 0.78409,6.966346 0.86244,8.863541 0.19825,4.800706 0.48286,6.732799 2.10611,14.297343 3.42664,15.968768 4.54855,29.375576 3.17055,37.888201 -0.93035,5.747094 -3.46369,10.315972 -8.47963,15.293049 -2.86771,2.845461 -5.62449,4.837562 -12.68582,9.167071 -6.2615,3.8391042 -9.56733,6.01014277 -11.37708,7.4717011 -5.49979,4.4416133 -7.27604,7.4488939 -7.27604,12.3186559 0,2.963254 0.55983,5.128128 2.70639,10.465488 2.3731,5.900685 2.69243,7.133961 2.70611,10.451042 0.0101,2.45581 -0.0917,3.093244 -0.8777,5.494364 -1.83163,5.595302 -4.8037,8.504343 -10.22335,10.006489 -2.51571,0.697283 -9.57974,0.760545 -13.09687,0.117316 z M 150.87529,42.570859 c -2.90613,-1.529768 -3.8694,-6.543966 -2.52445,-13.14077 0.74225,-3.640613 1.85594,-5.509948 5.61974,-9.432819 3.19843,-3.333591 3.3732,-3.576029 4.99755,-6.932665 1.11726,-2.308728 2.5231,-6.0137151 4.1811,-11.018891 1.37384,-4.1473437 3.32825,-9.68375 4.34313,-12.303125 2.90169,-7.489137 3.22467,-8.69262 3.51373,-13.092879 0.55648,-8.471165 1.6433,-11.680402 4.29601,-12.685475 0.57647,-0.218413 0.91924,-0.189918 1.53306,0.127503 1.54254,0.797692 2.36008,2.864723 3.01665,7.627144 1.0987,7.969567 1.59065,9.389718 5.41924,15.644071 7.43434,12.14469252 8.50564,14.0603287 10.0242,17.9246742 1.29073,3.2845639 1.69357,5.4504438 1.57556,8.4712438 -0.0882,2.257161 -0.22723,2.970266 -0.83739,4.294135 -1.27929,2.775717 -3.34241,4.410287 -6.52483,5.169482 -1.97778,0.471832 -7.11299,0.414126 -12.56771,-0.141234 -12.28524,-1.250792 -14.98863,0.421587 -18.09868,11.196214 -1.237,4.285535 -1.96928,5.891477 -3.2428,7.111603 -0.91285,0.87458 -2.49419,1.66706 -3.32655,1.66706 -0.2616,0 -0.8905,-0.218387 -1.39756,-0.485272 z M 13.052388,-21.39195 c 0.0127,-0.30824 0.0754,-0.37092 0.15985,-0.159862 0.0764,0.191003 0.067,0.419206 -0.0209,0.507127 -0.0879,0.08792 -0.15045,-0.06837 -0.13896,-0.347265 z m 55.17589,-26.069132 c -1.69521,-0.39796 -4.07707,-1.824778 -5.61708,-3.364785 -2.59202,-2.592017 -4.2089,-6.909991 -4.52496,-12.084209 -0.45556,-7.457837 2.98742,-12.624409 9.05255,-13.58437 4.00021,-0.633121 7.53138,1.105376 9.46639,4.660636 0.39217,0.720539 1.04109,2.487506 1.44206,3.926575 0.67178,2.411068 0.72798,2.980028 0.71575,7.246699 -0.0123,4.284689 -0.0657,4.788165 -0.71624,6.746875 -0.88208,2.655941 -1.90776,4.284822 -3.30712,5.251979 -2.03582,1.407028 -4.05001,1.778424 -6.51135,1.2006 z M 739.44504,-71.202647 c -2.18175,-1.335722 -4.13369,-4.53853 -5.54862,-9.104312 -1.25712,-4.056592 -1.63754,-4.88614 -5.31985,-11.601001 -7.99171,-14.57322 -11.68027,-24.53735 -12.55231,-33.90842 -0.86937,-9.34204 2.40654,-18.28593 9.04396,-24.69179 2.66041,-2.56759 3.90157,-3.23813 6.88203,-3.71787 1.34628,-0.21672 3.3365,-0.63783 4.42274,-0.93586 4.80367,-1.31786 7.47996,0.34264 9.16919,5.68899 0.86321,2.73193 1.86164,8.21143 2.35395,12.91842 0.83389,7.97292 0.51295,28.80413 -0.64955,42.159579 -0.27866,3.201459 -0.63297,7.606771 -0.78738,9.789584 -0.38298,5.414724 -0.92112,8.381206 -1.90997,10.528908 -1.40417,3.049667 -3.18199,4.050612 -5.10419,2.873772 z M 5.4773385,-113.70949 c 0.19504,-14.50105 2.38338,-35.68584 5.5490195,-53.71876 2.5445,-14.49459 6.26585,-30.58189 9.05628,-39.14999 1.06927,-3.28322 2.96051,-7.49708 3.59982,-8.02074 0.94659,-0.77531 1.05428,0.35324 1.05343,11.03926 -10e-4,14.38812 -0.43366,18.59344 -2.95886,28.76902 -1.6396,6.60691 -2.34194,8.74104 -5.42308,16.47843 -4.35659,10.94034 -5.23311,13.92878 -6.09782,20.79028 -0.23841,1.89177 -1.1366695,7.01145 -1.9961495,11.37708 -0.94639,4.80708 -1.8222,10.23313 -2.2207,13.75833 l -0.65802,5.82084 z m 663.0028015,2.755 c -2.47999,-0.73385 -3.92268,-5.3901 -4.22981,-13.6515 -0.37531,-10.09533 1.61422,-14.62564 6.42686,-14.63431 1.45198,-0.003 4.84711,1.01552 6.80257,2.04001 2.52968,1.3253 5.47976,4.21077 6.45917,6.31767 1.05344,2.2661 1.1535,5.1389 0.26403,7.57976 -0.97026,2.66258 -2.2006,4.54334 -4.55375,6.96118 -3.87612,3.98264 -8.45383,6.19062 -11.16907,5.38719 z m 80.55065,-70.04913 c -1.17398,-0.77409 -1.98122,-2.02914 -4.1116,-6.39233 -3.54351,-7.2575 -4.86256,-9.05177 -7.90524,-10.75333 -1.53594,-0.85894 -1.91273,-0.94988 -4.73903,-1.14385 -3.62482,-0.24879 -4.06025,-0.47847 -5.32019,-2.80657 -0.98039,-1.81149 -1.62367,-4.36168 -2.59805,-10.29938 -0.86196,-5.25269 -1.43693,-7.75038 -2.66264,-11.56655 -4.19563,-13.0629 -10.07639,-22.79848 -27.15537,-44.95577 -7.82993,-10.15808 -15.01934,-20.63918 -21.39249,-31.18705 -2.9709,-4.91696 -8.02045,-12.46538 -11.85858,-17.72709 -4.31188,-5.91113 -5.8838,-8.67281 -7.75575,-13.62604 -2.06764,-5.4709 -2.71219,-7.52851 -4.05813,-12.95456 -2.3853,-9.61629 -6.05869,-18.54371 -13.99376,-34.00898 -2.94928,-5.74807 -5.57189,-11.08784 -5.828,-11.86616 -0.67443,-2.04931 -0.46001,-3.92284 0.75536,-6.60084 1.70569,-3.75842 1.59104,-5.50776 -0.6077,-9.27252 -1.42264,-2.43591 -3.27382,-4.42437 -5.63684,-6.05483 -3.57135,-2.4642 -13.53,-8.34154 -18.86149,-11.13155 -10.72054,-5.61015 -16.33119,-8.92828 -20.94301,-12.38568 -7.85717,-5.89035 -9.36673,-8.58406 -5.18459,-9.25157 1.20645,-0.19257 1.35726,-0.38303 0.7212,-0.91091 -0.70289,-0.58336 -0.21743,-0.58132 0.92972,0.004 0.60878,0.31058 4.69821,2.59689 9.08762,5.0807 13.41353,7.59025 24.89975,15.07429 31.39636,20.45682 2.40109,1.98934 5.08,4.16882 5.95312,4.84328 0.87313,0.67446 3.37344,2.71728 5.55625,4.53959 2.18281,1.82231 5.69278,4.62298 7.79992,6.22371 4.38004,3.32738 5.84052,4.64112 12.92463,11.62615 6.53219,6.44085 13.07277,13.85214 16.24187,18.40406 1.49932,2.15352 3.38254,5.59098 3.38254,6.17413 0,0.70552 -0.52298,0.53217 -3.18262,-1.0549 -5.96416,-3.55898 -11.55949,-5.78955 -13.13847,-5.23763 -1.85962,0.65001 -0.47934,3.4088 4.29527,8.58506 1.40941,1.52797 3.17376,3.47773 3.92076,4.3328 1.2201,1.39661 6.34698,6.19591 16.8171,15.7426 5.55403,5.06416 7.24517,6.76257 10.5709,10.61627 5.37988,6.23397 9.15792,11.07484 12.73566,16.31847 0.21609,0.31667 1.95673,2.75745 3.86816,5.42396 4.78668,6.67767 12.34509,18.16102 13.35381,20.28829 2.06809,4.36125 2.59808,6.50526 3.41972,13.83396 0.63838,5.69438 1.29413,9.12001 2.41636,12.62334 1.00213,3.12847 1.75773,4.84494 6.83069,15.51719 2.21353,4.65667 4.94996,10.60979 6.08095,13.22917 1.13101,2.61937 3.01291,6.90562 4.18203,9.525 4.17533,9.35479 7.63495,18.82433 8.69653,23.80387 0.57309,2.68822 0.69879,4.08943 0.80778,9.00446 0.11427,5.15387 0.0684,6.09367 -0.40013,8.20208 -0.73269,3.29708 -1.52205,5.26661 -2.54588,6.3522 -0.98583,1.04529 -1.7626,1.16377 -2.86475,0.43701 z M 148.5775,-233.66155 c -3.0111,-1.04043 -5.28924,-3.58178 -5.91876,-6.6026 -0.70227,-3.36994 0.16085,-8.56128 2.04571,-12.30423 4.65609,-9.24604 13.47125,-15.60759 21.65309,-15.62617 2.04552,-0.005 2.60946,0.0982 3.99983,0.72949 3.00232,1.36317 4.58452,3.6155 5.16566,7.35358 0.256,1.64664 0.23083,2.39993 -0.15797,4.72725 -0.98166,5.87617 -2.8441,9.73284 -6.6085,13.6846 -6.08267,6.3854 -14.85224,9.87865 -20.17906,8.03808 z m 53.46487,-151.79707 c -3.11657,-0.4239 -6.29612,-1.37434 -13.98899,-4.18163 -6.74723,-2.46219 -8.47206,-3.24205 -9.27127,-4.19185 -1.02307,-1.21585 -1.03946,-1.68607 -0.12361,-3.54642 1.52224,-3.09211 7.38093,-8.33204 13.15472,-11.7654 3.75318,-2.23181 13.28106,-6.97104 15.29016,-7.60542 1.01864,-0.32164 4.1738,-1.05372 7.01146,-1.62685 7.92787,-1.60121 16.02642,-4.31043 21.88475,-7.32116 4.03985,-2.07617 9.95845,-6.06549 11.98191,-8.07618 1.04623,-1.03963 2.13429,-2.47827 2.77813,-3.67327 3.51658,-6.52701 14.41331,-13.10908 30.43872,-18.38623 9.6239,-3.16913 14.75235,-3.75293 25.16463,-2.8646 5.60718,0.47838 8.6695,0.38913 13.58519,-0.39594 4.98062,-0.79543 6.96886,-0.90246 10.42765,-0.56135 3.75682,0.37051 6.3777,1.00506 9.21158,2.23027 4.318,1.86686 7.16735,4.12883 8.0229,6.36907 0.38685,1.01299 0.41183,1.37864 0.15312,2.24216 -0.60759,2.02797 -4.08017,4.29099 -9.95587,6.48809 -4.53105,1.69429 -14.19966,4.32259 -19.51692,5.30544 -11.71731,2.16584 -20.17315,5.18346 -41.46954,14.79918 -5.4305,2.45196 -10.84324,4.7786 -19.84375,8.5297 -9.06543,3.77817 -14.36292,7.26392 -23.28334,15.32048 -6.08857,5.49894 -9.14736,7.70822 -13.89062,10.03278 -6.04757,2.96377 -11.10788,3.78406 -17.76101,2.87913 z m 358.80892,-69.8834 c -3.59679,-1.51983 -14.07366,-5.52798 -18.52083,-7.08556 -2.61937,-0.91742 -6.54844,-2.34975 -8.73125,-3.18296 -2.18281,-0.83321 -6.70719,-2.49651 -10.05417,-3.69622 -6.26157,-2.24444 -16.59112,-6.25397 -16.45708,-6.388 0.40079,-0.4008 20.85181,6.4475 31.14146,10.42813 7.11346,2.7519 22.48384,9.31568 24.34167,10.39488 0.76335,0.44342 -0.14579,0.19482 -1.7198,-0.47027 z"
       style="fill:#a0806c;fill-opacity:1;stroke-width:0.26458332" />
    <path
       style="fill:#000000;fill-opacity:0.313725;stroke-width:0.264583"
       d="m 399.59164,292.41781 c 92.34778,-0.69625 182.11176,-33.97341 253.06051,-94.93063 88.91507,-76.39339 139.15196,-189.0615338 136.48883,-306.10947 -2.23062,-98.03886 -40.93311,-191.55436 -108.57839,-262.35403 -16.90584,-17.69419 -37.1296,-35.09121 -57.56393,-49.51841 -4.27731,-3.0199 -9.02694,-6.2874 -10.55491,-7.26107 -1.52797,-0.97366 -5.15938,-3.29226 -8.06979,-5.15265 -12.7754,-8.16621 -33.50686,-19.1303 -49.87757,-26.37822 -27.74029,-12.28166 -60.20615,-22.0685 -90.34126,-27.23348 -10.89316,-1.86703 -23.27,-3.42916 -34.75344,-4.43799 -6.6906,-0.54856 -13.33799,-0.918 -19.90368,-1.095 -1.67193,-0.0451 -2.11177,-0.0583 -3.54656,-0.0977 -2.73825,-0.0214 -5.80829,-0.0294 -9.02684,-0.0212 79.14463,14.845 151.2342,62.39869 203.35968,134.16904 52.25573,71.94976 81.01996,163.51363 81.12011,258.226608 -0.0373,94.4642661 -28.59105,185.830605 -80.55115,257.750682 -51.57298,71.38423 -122.86618,118.98132 -201.28384,134.44347 0.007,-5e-5 0.0148,6e-5 0.0222,0 z"
       id="path849"
       inkscape:transform-center-x="-196.20819"
       inkscape:transform-center-y="-0.003666878" />
  </g>
</svg>
