<?xml version="1.0" encoding="UTF-8" standalone="no"?>
<!-- Created with Inkscape (http://www.inkscape.org/) -->

<svg
   width="1400"
   height="3000"
   viewBox="0 0 370.41667 793.75002"
   version="1.1"
   id="svg8"
   inkscape:version="1.3 (0e150ed6c4, 2023-07-21)"
   sodipodi:docname="Uranus.svg"
   inkscape:export-filename="G:\Pictures\My Pictures\Vectors and SVGs\Space\Uranus.png"
   inkscape:export-xdpi="96"
   inkscape:export-ydpi="96"
   xmlns:inkscape="http://www.inkscape.org/namespaces/inkscape"
   xmlns:sodipodi="http://sodipodi.sourceforge.net/DTD/sodipodi-0.dtd"
   xmlns="http://www.w3.org/2000/svg"
   xmlns:svg="http://www.w3.org/2000/svg"
   xmlns:rdf="http://www.w3.org/1999/02/22-rdf-syntax-ns#"
   xmlns:cc="http://creativecommons.org/ns#"
   xmlns:dc="http://purl.org/dc/elements/1.1/">
  <defs
     id="defs2" />
  <sodipodi:namedview
     id="base"
     pagecolor="#000720"
     bordercolor="#666666"
     borderopacity="1.0"
     inkscape:pageopacity="0"
     inkscape:pageshadow="2"
     inkscape:zoom="0.1767767"
     inkscape:cx="449.7199"
     inkscape:cy="1371.7871"
     inkscape:document-units="mm"
     inkscape:current-layer="layer1"
     showgrid="false"
     inkscape:pagecheckerboard="false"
     inkscape:showpageshadow="false"
     borderlayer="true"
     units="px"
     inkscape:snap-object-midpoints="true"
     inkscape:window-width="1600"
     inkscape:window-height="837"
     inkscape:window-x="-8"
     inkscape:window-y="-8"
     inkscape:window-maximized="1"
     inkscape:snap-page="true"
     inkscape:snap-global="false"
     inkscape:snap-center="true"
     inkscape:deskcolor="#505050" />
  <metadata
     id="metadata5">
    <rdf:RDF>
      <cc:Work
         rdf:about="">
        <dc:format>image/svg+xml</dc:format>
        <dc:type
           rdf:resource="http://purl.org/dc/dcmitype/StillImage" />
      </cc:Work>
    </rdf:RDF>
  </metadata>
  <g
     inkscape:label="Layer 1"
     inkscape:groupmode="layer"
     id="layer1"
     transform="translate(0,496.75002)">
    <path
       inkscape:connector-curvature="0"
       id="path855"
       d="m 369.76025,-108.21213 c -1.81712,-29.88713 -9.65963,-57.34073 -23.31029,-81.60036 -16.47461,-29.27826 -40.19891,-53.30321 -69.02066,-69.89534 -21.15041,-12.17588 -45.29129,-20.31513 -68.79168,-23.19356 -15.84978,-1.94136 -30.99143,-1.94136 -46.84121,0 -30.46201,3.73112 -60.74267,15.86562 -86.061428,34.48777 -23.57684,17.34096 -42.38695,39.69776 -55.60197,66.08585 -11.6620804,23.28714 -17.9690404,47.57696 -19.33016042,74.44576 -0.98243,19.393443 1.61285002,40.722603 7.30262002,60.016003 16.9336604,57.4202498 60.1221004,102.7171 116.7012584,122.39844 29.26829,10.18113 60.58758,12.77007 91.45129,7.55967 28.17043,-4.75573 55.48257,-16.39917 78.8128,-33.59868 35.64485,-26.27809 60.83442,-65.13793 70.4095,-108.62039 2.78719,-12.65722 4.09202,-23.90612 4.28403,-36.93249 0.0723,-4.907173 0.0705,-9.925873 -0.004,-11.152673 z"
       style="fill:#2ccce3;fill-opacity:1;stroke-width:0.371756" />
    <path
       inkscape:connector-curvature="0"
       id="path853"
       d="m 369.20938,-114.90373 c -4.94049,-54.20004 -31.37791,-101.3898 -74.70667,-133.34846 -5.82087,-4.29338 -15.01025,-10.3351 -15.71956,-10.3351 -0.0934,0 0.8224,1.04557 2.03509,2.32348 13.27898,13.99322 23.34928,49.27827 27.24078,95.44826 1.98592,23.56166 2.05564,52.8125 0.17987,75.466403 -2.78048,33.58011 -8.75729,62.21487 -18.60319,89.1273898 -11.25232,30.7568202 -23.97944,49.3380902 -41.67646,60.8466302 -6.12753,3.98478 -13.50901,7.12686 -24.85317,10.57925 -5.94398,1.80894 -8.27978,2.64291 -18.74364,6.69217 -5.70566,2.20796 -5.3296,2.32152 3.78475,1.14289 32.75251,-4.23542 61.98425,-16.11793 88.14772,-35.83147 7.62925,-5.74847 12.88248,-10.3685 20.71662,-18.2196 21.21258,-21.2584502 36.52776,-47.35009 45.29397,-77.16486 2.73522,-9.3028 4.51381,-17.87197 6.05644,-29.17966 0.86037,-6.30663 0.97552,-8.49715 1.07496,-20.44656 0.0613,-7.360763 -0.0411,-15.056103 -0.22751,-17.100763 z m -313.582538,-2.41641 c -0.9818,-17.75634 -2.74733,-30.2393 -5.90798,-41.7716 -4.69405,-17.12724 -11.69588,-27.05106 -19.15219,-27.14477 -2.55858,-0.0321 -4.65935,0.94358 -7.5189,3.49226 -4.21087,3.75308 -6.99882,8.75233 -10.98517,19.69817 -5.3929404,14.8081 -8.6547304,29.27458 -10.5613804,46.84121 -0.75422002,6.94883 -0.63440002,28.698663 0.19557,35.502663 2.37992,19.51032 7.05911,37.19881 14.2504204,53.8701 3.06423,7.10368 5.98524,11.11037 9.35198,12.82795 5.23068,2.6685 10.39847,-1.14591 15.62971,-11.53649 6.93248,-13.76967 12.23274,-37.4723 14.16382,-63.34018 0.40846,-5.47154 0.76231,-24.312323 0.53412,-28.439313 z"
       style="fill:#36d7e6;fill-opacity:1;stroke-width:0.371756" />
    <path
       inkscape:connector-curvature="0"
       id="path851"
       d="m 369.18912,-113.97434 c -0.95127,-11.77836 -3.57019,-26.03664 -6.88614,-37.49033 -7.40098,-25.56396 -20.40589,-49.36668 -38.0133,-69.5753 -4.03769,-4.63418 -4.33432,-4.8989 -3.08514,-2.75336 5.67849,9.75323 10.56746,33.80762 13.63114,67.06709 0.51794,5.62281 1.10213,11.22702 1.29819,12.45381 0.5156,3.22629 2.13904,19.81673 2.61918,26.76641 2.50372,36.239233 0.41961,69.196223 -5.99199,94.754063 -0.6095,2.42959 -1.44355,6.10997 -1.85345,8.17862 -1.15,5.8038098 -3.5709,15.57157978 -5.03232,20.3043198 -3.32419,10.7651702 -8.72597,22.3909702 -12.35032,26.5805302 -0.53065,0.6134 0.75578,-0.55763 2.85872,-2.60229 12.30262,-11.96161 25.52822,-30.33423022 33.98642,-47.21297 10.19536,-20.34531 17.0388,-45.24008 18.84963,-68.57029 0.44862,-5.77985 0.4306,-22.189483 -0.0306,-27.900303 z m -335.508008,-6.50572 c -1.33033,-12.91581 -4.28686,-22.62258 -8.1244,-26.6737 -1.48133,-1.56376 -3.63933,-2.50912 -5.72767,-2.50912 -1.54294,0 -2.13897,0.22068 -3.63943,1.34749 -5.22526,3.92408 -9.1148404,11.12491 -12.0233704,22.25899 -3.81845002,14.6174 -4.37293002,31.360023 -1.67438,50.558773 0.99227,7.0595 1.28396,8.51049 2.59678,12.9177 3.02607,10.15865 6.1938904,14.7781 10.1341904,14.7781 3.07183,0 5.68383,-2.89819 9.21375,-10.22328 3.88463,-8.06116 6.78274,-19.44037 8.56857,-33.64389 0.55822,-4.43976 1.04577,-25.220613 0.67596,-28.811063 z"
       style="fill:#9cf5ff;fill-opacity:1;stroke-width:0.371756" />
    <path
       inkscape:connector-curvature="0"
       style="fill:#000000;fill-opacity:0.313725;stroke-width:0.125982"
       d="m 185.91138,-284.43064 c 2.47692,0.0119 4.9313,0.0788 7.35549,0.20161 26.86881,1.36112 51.15863,7.66824 74.44576,19.33032 26.38811,13.21502 48.74491,32.02508 66.08587,55.60192 18.62216,25.31876 30.75672,55.59941 34.48784,86.06143 1.94135,15.84978 1.94135,30.991427 0,46.841217 -2.87843,23.5004 -11.0177,47.64134 -23.19358,68.7917295 -7.19101,12.49132 -15.77897,24.0242505 -25.58483,34.4254105 -0.005,0.005 -0.009,0.009 -0.0138,0.0143 -0.25865,0.27325 -0.51789,0.54598 -0.77836,0.81781 -20.44369,21.33473 -45.52302,37.40825 -73.51542,47.13915 -16.18945,5.50243 -33.44728,8.83042 -51.60336,9.9343 v 0 c -0.99373,0.0605 -4.48273,0.0723 -8.37781,0.0365 36.79497,-7.37376 70.25761,-29.60373 94.56245,-62.88019 24.76697,-33.90921 38.39995,-77.06234 38.44743,-121.69964 -0.0177,-44.520057 -13.55071,-87.580057 -38.17757,-121.475277 -24.19885,-33.30614 -57.55777,-55.62672 -94.28508,-63.14061 0.0482,1.8e-4 0.0968,-2.4e-4 0.14497,0 z"
       id="path824"
       inkscape:transform-center-x="-92.272442"
       inkscape:transform-center-y="0.00068136574" />
    <path
       style="color:#000000;font-style:normal;font-variant:normal;font-weight:normal;font-stretch:normal;font-size:medium;line-height:normal;font-family:sans-serif;font-variant-ligatures:normal;font-variant-position:normal;font-variant-caps:normal;font-variant-numeric:normal;font-variant-alternates:normal;font-feature-settings:normal;text-indent:0;text-align:start;text-decoration:none;text-decoration-line:none;text-decoration-style:solid;text-decoration-color:#000000;letter-spacing:normal;word-spacing:normal;text-transform:none;writing-mode:lr-tb;direction:ltr;text-orientation:mixed;dominant-baseline:auto;baseline-shift:baseline;text-anchor:start;white-space:normal;shape-padding:0;clip-rule:nonzero;display:inline;overflow:visible;visibility:visible;opacity:1;isolation:auto;mix-blend-mode:normal;color-interpolation:sRGB;color-interpolation-filters:linearRGB;solid-color:#000000;solid-opacity:1;vector-effect:none;fill:#ffffff;fill-opacity:0.701961;fill-rule:nonzero;stroke:none;stroke-width:7.16138;stroke-linecap:round;stroke-linejoin:round;stroke-miterlimit:4;stroke-dasharray:none;stroke-dashoffset:0;stroke-opacity:1;paint-order:normal;color-rendering:auto;image-rendering:auto;shape-rendering:auto;text-rendering:auto;enable-background:accumulate"
       d="m 104.86796,-265.94758 c 14.21797,-132.11107 44.86476,-223.58169 80.35893,-223.58169 23.5548,0 46.14662,41.0544 62.80238,114.12688 16.65575,73.07247 26.01339,172.18728 26.01339,275.527368 0,103.3400837 -9.35764,202.454902 -26.01339,275.527362 -16.65576,73.07247 -39.24758,114.12688 -62.80238,114.12688 -23.55479,0 -46.14661,-41.05441 -62.80237,-114.12688 -7.30676,-32.05641 -13.20893,-69.12562 -17.53277,-109.363872 1.32768,0.641456 2.66395,1.269207 4.01008,1.880526 4.06042,35.499536 9.4181,68.264266 15.94011,96.877786 16.01549,70.26349 37.73564,109.73232 60.38495,109.73232 22.64931,0 44.36946,-39.46883 60.38496,-109.73232 16.01546,-70.263507 25.01192,-165.55419889 25.01192,-264.921802 0,-99.367608 -8.99646,-194.658308 -25.01192,-264.921818 -16.0155,-70.2635 -37.73565,-109.73232 -60.38496,-109.73232 -33.41671,0 -62.33255,84.09333 -76.36227,206.69953 -1.33963,0.6101 -2.67073,1.24019 -3.99666,1.88205 z"
       id="circle904"
       inkscape:connector-curvature="0" />
    <path
       style="color:#000000;font-style:normal;font-variant:normal;font-weight:normal;font-stretch:normal;font-size:medium;line-height:normal;font-family:sans-serif;font-variant-ligatures:normal;font-variant-position:normal;font-variant-caps:normal;font-variant-numeric:normal;font-variant-alternates:normal;font-feature-settings:normal;text-indent:0;text-align:start;text-decoration:none;text-decoration-line:none;text-decoration-style:solid;text-decoration-color:#000000;letter-spacing:normal;word-spacing:normal;text-transform:none;writing-mode:lr-tb;direction:ltr;text-orientation:mixed;dominant-baseline:auto;baseline-shift:baseline;text-anchor:start;white-space:normal;shape-padding:0;clip-rule:nonzero;display:inline;overflow:visible;visibility:visible;opacity:1;isolation:auto;mix-blend-mode:normal;color-interpolation:sRGB;color-interpolation-filters:linearRGB;solid-color:#000000;solid-opacity:1;vector-effect:none;fill:#ffffff;fill-opacity:0.701961;fill-rule:nonzero;stroke:none;stroke-width:4.05811;stroke-linecap:round;stroke-linejoin:round;stroke-miterlimit:4;stroke-dasharray:none;stroke-dashoffset:0;stroke-opacity:1;paint-order:normal;color-rendering:auto;image-rendering:auto;shape-rendering:auto;text-rendering:auto;enable-background:accumulate"
       d="m 111.63965,-269.06573 c 13.89661,-116.06065 41.63994,-195.24855 73.58724,-195.24855 45.86592,0 83.06832,163.21531 83.06832,364.439258 0,201.223952 -37.2024,364.439242 -83.06832,364.439242 -31.94039,0 -59.67833,-79.15352 -73.57792,-195.173089 0.76597,0.333058 1.53567,0.660109 2.30735,0.983404 13.75701,110.646175 40.51014,185.689945 71.27057,185.689945 44.81886,0 81.13096,-159.309294 81.13096,-355.939502 0,-196.630198 -36.3121,-355.939518 -81.13096,-355.939518 -30.76696,0 -57.52494,75.07546 -71.27935,185.76024 -0.77134,0.32414 -1.54054,0.65398 -2.30789,0.98857 z"
       id="path902"
       inkscape:connector-curvature="0" />
  </g>
</svg>
