<?xml version="1.0" encoding="UTF-8" standalone="no"?>
<!-- Created with Inkscape (http://www.inkscape.org/) -->

<svg
   width="3000"
   height="3000"
   viewBox="0 0 793.74998 793.75002"
   version="1.1"
   id="svg8"
   inkscape:version="1.3 (0e150ed6c4, 2023-07-21)"
   sodipodi:docname="Venus.svg"
   inkscape:export-filename="G:\Pictures\My Pictures\Vectors and SVGs\Space\Venus.png"
   inkscape:export-xdpi="96"
   inkscape:export-ydpi="96"
   xmlns:inkscape="http://www.inkscape.org/namespaces/inkscape"
   xmlns:sodipodi="http://sodipodi.sourceforge.net/DTD/sodipodi-0.dtd"
   xmlns="http://www.w3.org/2000/svg"
   xmlns:svg="http://www.w3.org/2000/svg"
   xmlns:rdf="http://www.w3.org/1999/02/22-rdf-syntax-ns#"
   xmlns:cc="http://creativecommons.org/ns#"
   xmlns:dc="http://purl.org/dc/elements/1.1/">
  <defs
     id="defs2" />
  <sodipodi:namedview
     id="base"
     pagecolor="#000720"
     bordercolor="#666666"
     borderopacity="1.0"
     inkscape:pageopacity="0"
     inkscape:pageshadow="2"
     inkscape:zoom="0.125"
     inkscape:cx="675.99998"
     inkscape:cy="1356"
     inkscape:document-units="mm"
     inkscape:current-layer="layer1"
     showgrid="false"
     inkscape:pagecheckerboard="false"
     inkscape:showpageshadow="false"
     borderlayer="true"
     units="px"
     inkscape:snap-object-midpoints="true"
     inkscape:window-width="1600"
     inkscape:window-height="837"
     inkscape:window-x="-8"
     inkscape:window-y="-8"
     inkscape:window-maximized="1"
     inkscape:snap-page="true"
     inkscape:deskcolor="#505050" />
  <metadata
     id="metadata5">
    <rdf:RDF>
      <cc:Work
         rdf:about="">
        <dc:format>image/svg+xml</dc:format>
        <dc:type
           rdf:resource="http://purl.org/dc/dcmitype/StillImage" />
      </cc:Work>
    </rdf:RDF>
  </metadata>
  <g
     inkscape:label="Layer 1"
     inkscape:groupmode="layer"
     id="layer1"
     transform="translate(0,496.75002)">
    <path
       inkscape:connector-curvature="0"
       id="path846"
       d="M 374.85626,288.36771 C 321.80306,285.49917 269.18219,271.50093 221.3255,247.52534 190.22727,231.94552 159.04234,210.26577 134.45654,187.13409 93.899038,148.97532 67.932896,114.20957 47.411112,70.59005 44.013137,63.367574 40.500266,56.017054 39.604733,54.255562 35.588028,46.354799 26.304994,19.883119 21.7752,3.412507 5.1880557,-56.899367 3.5072113,-122.35844 16.971442,-183.66582 c 3.343251,-15.22299 7.906347,-30.25985 17.54877,-57.82878 6.324816,-18.08346 20.00407,-45.18499 33.57135,-66.51201 18.194341,-28.60052 48.697208,-64.22093 73.048968,-85.30459 18.71273,-16.2014 44.99592,-34.65794 66.37402,-46.60907 29.59648,-16.5455 71.90267,-32.54298 105.28916,-39.8136 61.821,-13.46282 127.05844,-11.8047 187.35866,4.76205 57.49069,15.79488 109.11457,43.71503 153.32985,82.92662 21.51269,19.07817 35.49436,33.79321 50.58617,53.23952 28.27179,36.42918 46.76074,71.53362 63.00704,119.6297 22.84903,67.64303 24.72933,153.191353 4.90112,222.9862959 -8.53593,30.0462511 -21.55409,61.2199621 -36.74035,87.9795901 -2.4687,4.350092 -4.48856,8.028072 -4.48856,8.173294 0,0.59323 -11.75085,18.81899 -16.21673,25.15237 -9.51367,13.49205 -27.66528,35.1926 -39.75147,47.52356 -68.43982,69.82582 -159.11452,110.47411 -258.29792,115.79159 -16.86775,0.90432 -23.94247,0.89362 -41.63526,-0.063 z"
       style="fill:#e8a756;fill-opacity:1;stroke-width:0.80067801" />
    <path
       inkscape:connector-curvature="0"
       id="path844"
       d="m 317.09912,280.14256 c -45.78237,-9.98552 -92.85702,-29.02157 -129.2702,-52.2743 -14.33933,-9.1568 -42.00885,-29.67314 -42.84554,-31.76901 -0.14537,-0.36415 -2.24869,-2.38769 -4.67404,-4.49676 -7.17584,-6.24011 -31.22383,-30.01752 -36.93092,-36.5154 C 89.494575,139.27944 77.36737,122.4879 66.029479,103.37308 55.818123,86.157504 54.128901,83.052042 54.677441,82.503504 c 0.243338,-0.243336 1.660489,0.265891 3.149225,1.131623 6.496142,3.777625 12.957708,3.94303 62.839374,1.608555 30.93747,-1.44788 56.49148,-0.568478 177.19065,6.097772 67.96703,3.753836 100.92785,5.436666 133.09344,6.795149 116.22759,4.908747 193.72487,4.745487 242.9356,-0.5118 16.28456,-1.739716 40.57145,-1.740245 48.45461,-8.02e-4 3.2785,0.723307 6.24691,1.601098 6.59647,1.950661 0.34955,0.349554 -0.66969,2.790438 -2.26499,5.424178 -1.59531,2.63376 -3.76673,6.32777 -4.8254,8.20894 -2.88764,5.1311 -14.73976,21.28001 -21.61574,29.45217 -3.33927,3.96875 -8.21583,9.92187 -10.8368,13.22917 -6.06304,7.6507 -23.33723,25.16784 -34.75057,35.23928 -38.77842,34.21917 -81.04721,58.71876 -130.28725,75.51633 -10.42013,3.55468 -22.50786,6.70322 -28.46275,7.4138 -24.26945,2.89601 -42.50828,3.71257 -101.42361,4.5408 -29.76563,0.41844 -56.28409,1.08746 -58.92993,1.48669 -2.64583,0.39924 -6.25379,0.92947 -8.01767,1.17827 -1.89517,0.26733 -6.15886,-0.19143 -10.42298,-1.12147 z M 186.81187,65.239803 C 147.28634,64.431541 136.95609,63.360291 122.6358,58.584722 111.4961,54.86982 82.040853,51.426973 60.53346,51.325959 48.59122,51.269835 45.657889,51.486745 43.529256,52.583178 41.597841,53.57802 40.763681,53.675394 40.181543,52.97396 37.890233,50.213105 25.264205,13.650511 21.315516,-1.6584896 15.318524,-24.908726 14.317126,-30.154323 11.519705,-52.971621 10.816879,-58.70426 9.8955842,-66.100567 9.472384,-69.407858 8.4189527,-77.640377 8.4336803,-121.94991 9.4926366,-130.3422 c 2.5601104,-20.28901 3.4866324,-26.93713 4.9723894,-35.67866 2.013241,-11.84501 5.560575,-28.41375 6.456408,-30.15635 1.548666,-3.01249 19.226237,-4.58854 75.69157,-6.74831 46.675206,-1.78532 65.837806,-3.38692 82.181186,-6.86871 27.29137,-5.81414 41.59762,-6.69615 98.98127,-6.10247 44.52888,0.46069 60.56065,1.19929 125.1128,5.76411 100.80674,7.12857 107.60371,7.23707 176.38889,2.81567 32.5676,-2.09339 54.80252,-3.04211 94.2077,-4.01967 53.98099,-1.33914 69.90372,-3.36348 83.58815,-10.62697 3.80978,-2.02218 6.48793,-3.00673 6.91571,-2.54238 1.23201,1.33729 8.46782,24.84149 11.71069,38.04 2.99958,12.20833 4.10773,20.02378 8.41246,59.33081 0.92058,8.40584 0.98281,30.883609 0.12913,46.639426 -0.43077,7.950409 -0.85141,10.491571 -1.93485,11.688763 -1.52254,1.682389 -1.8404,4.63501 -0.58266,5.41234 1.63381,1.009747 0.12042,18.408362 -2.92909,33.674243 -1.05706,5.291666 -2.45373,12.526209 -3.10369,16.076765 -1.95414,10.6748306 -13.03453,46.154702 -16.34722,52.344533 -0.65193,1.218125 -2.60398,1.804178 -9.46529,2.841689 -18.87008,2.853387 -34.0034,3.731844 -77.59599,4.504283 -24.25348,0.429755 -65.56456,1.157512 -91.8024,1.617229 -46.77086,0.819479 -66.51533,1.514427 -91.40152,3.217077 -15.15027,1.036549 -31.26163,2.915227 -34.03129,3.968245 -2.25903,0.858885 -2.72442,2.792709 -0.8456,3.513683 0.66146,0.253823 1.20265,0.978028 1.20265,1.60934 0,2.386317 -12.7757,4.072458 -40.09785,5.292131 -20.15514,0.899736 -184.15295,0.881921 -228.49432,-0.02485 z M 113.45013,-144.78799 c 11.0243,-0.43723 32.67203,-1.68184 48.10606,-2.76577 15.43402,-1.08395 37.08175,-2.3928 48.10606,-2.90856 26.10689,-1.22139 116.944,-0.48926 167.56944,1.35057 45.24722,1.64437 129.74378,1.89745 166.36679,0.4983 13.89063,-0.53068 48.52699,-1.3263 76.9697,-1.76803 50.13208,-0.77858 86.08587,-1.9755 92.53832,-3.08065 4.19467,-0.71844 4.5326,-2.24768 0.71903,-3.25385 -6.53123,-1.72318 -47.78934,-6.20676 -92.45558,-10.04727 -54.69466,-4.70279 -118.20912,-6.49895 -202.04546,-5.71377 -58.34526,0.54645 -106.899,-0.32756 -128.68371,-2.31642 -25.18696,-2.29946 -49.51476,-3.15385 -91.00063,-3.19594 -44.4129,-0.0451 -55.01537,0.54807 -63.79522,3.56877 -7.37349,2.53686 -19.57268,4.57701 -42.926013,7.17881 -24.611261,2.74194 -32.383533,4.10272 -37.454651,6.55761 -3.746049,1.81343 -4.902481,3.45302 -3.455828,4.89967 0.499526,0.49953 0.908229,2.09054 0.908229,3.53558 0,4.68151 5.462492,6.40462 23.576625,7.43712 15.505452,0.88381 15.277742,0.88366 36.956838,0.0238 z m 142.31376,-97.88169 c -12.96783,-0.62907 -37.01956,-2.03505 -74.5644,-4.35877 -35.24039,-2.18109 -69.12246,-1.58754 -114.652773,2.00849 -27.617293,2.18124 -30.120906,2.24868 -29.824282,0.80332 0.658606,-3.2092 6.447405,-17.01543 11.304103,-26.96019 7.17487,-14.69153 26.739059,-47.15873 30.095723,-49.94451 0.845799,-0.70195 2.235578,-0.63318 5.792917,0.28667 6.268444,1.62088 26.552232,4.94637 37.953512,6.22241 15.51393,1.73633 38.8382,1.18102 68.55113,-1.63208 14.55209,-1.37772 42.15294,-3.77124 61.33523,-5.31891 59.28621,-4.78335 80.97854,-8.32841 80.97854,-13.23388 0,-2.48455 -4.92364,-4.35025 -18.89643,-7.16034 -25.95977,-5.22082 -58.77831,-9.18678 -106.58022,-12.87968 -17.63888,-1.36269 -38.56502,-3.19718 -46.50252,-4.07665 -20.66728,-2.28994 -42.70026,-6.96603 -43.45222,-9.22192 -0.34529,-1.03589 20.38956,-21.98612 26.78409,-27.06229 30.2837,-24.04011 54.30798,-39.85896 78.2117,-51.49873 6.46231,-3.14678 7.19886,-3.3351 9.22032,-2.35743 1.20833,0.5844 5.26373,1.4514 9.01199,1.92667 7.2704,0.92185 52.66737,4.02187 88.99622,6.07727 28.16725,1.59364 42.76059,2.66243 51.31313,3.75807 12.68486,1.62503 13.50941,3.18207 3.80839,7.19154 -4.94987,2.0458 -6.6745,3.14925 -6.85267,4.38445 -0.18844,1.30632 0.4222,1.84845 2.92754,2.59906 10.07123,3.01742 51.5122,6.33011 102.44504,8.1892 33.46078,1.22136 61.98084,-0.26157 94.10478,-4.89306 16.31461,-2.35217 20.57526,-3.92446 18.77332,-6.92787 -2.10283,-3.50494 -16.97213,-6.11024 -54.0511,-9.47051 -30.78854,-2.7902 -37.68308,-3.82303 -37.68308,-5.64509 0,-2.13558 3.70253,-3.20828 21.85753,-6.3326 19.11491,-3.2895 21.84664,-5.38149 11.41583,-8.74232 -6.34397,-2.04404 -13.66448,-3.39173 -37.68308,-6.9374 -27.5667,-4.06945 -32.92594,-5.20959 -48.57094,-10.33313 -21.14923,-6.92612 -42.41828,-11.08444 -61.58831,-12.04115 l -10.90767,-0.54437 7.21591,-0.69308 c 8.5911,-0.82517 42.59893,0.5726 57.32639,2.3562 32.56737,3.94414 60.86743,10.9512 93.00505,23.02793 42.08489,15.81474 82.93986,40.60769 117.45896,71.28032 31.65069,28.12383 51.73206,51.62954 72.9015,85.33287 6.88517,10.96171 23.71151,43.49989 23.71151,45.85249 0,0.90732 -0.6225,1.07927 -2.60575,0.71978 -5.46983,-0.9915 -21.02903,-2.08101 -41.49148,-2.90539 -23.44331,-0.94448 -37.49501,-1.86293 -55.91951,-3.65504 -13.59471,-1.32233 -20.75493,-2.6184 -30.27051,-5.47927 -9.8687,-2.96703 -18.81464,-3.70117 -44.49811,-3.65173 -21.99825,0.0423 -30.51455,0.53185 -31.81113,1.82842 -1.00702,1.00702 0.43494,1.44388 9.81797,2.97448 10.66115,1.7391 12.37195,2.17765 12.37195,3.17143 0,1.74304 -4.57478,2.64852 -38.34524,7.58966 -13.61404,1.99194 -29.04652,4.50607 -34.29437,5.58694 -5.24787,1.08088 -14.59271,2.51711 -20.76632,3.19162 -19.9772,2.18265 -71.86704,5.43574 -122.26958,7.66536 -20.72788,0.91693 -75.11732,0.87825 -94.60858,-0.0673 z m 116.46778,-244.2327 c 1.21873,-0.18429 3.02271,-0.17937 4.00884,0.0109 0.98612,0.19031 -0.0111,0.34109 -2.21589,0.33507 -2.20486,-0.006 -3.01169,-0.16172 -1.79295,-0.34601 z"
       style="fill:#d98b33;stroke-width:0.80176765;fill-opacity:1" />
    <path
       inkscape:connector-curvature="0"
       id="path842"
       d="m 412.10859,248.84168 c -136.92695,-0.49911 -163.87717,-0.96596 -184.62626,-3.19824 -4.31006,-0.4637 -9.23847,-1.33773 -10.952,-1.9423 -5.14864,-1.81655 -21.2507,-11.24253 -35.73172,-20.917 -13.8039,-9.2221 -34.87689,-25.37146 -34.87689,-26.72804 0,-1.23679 4.70989,-1.63312 39.28661,-3.30585 51.08065,-2.47116 64.68138,-4.06965 66.10089,-7.76884 0.72163,-1.88056 -1.42813,-3.78263 -8.33863,-7.37787 -12.10085,-6.29555 -18.05587,-6.96059 -72.19407,-8.06249 -40.33789,-0.821 -50.46148,-1.56993 -55.86527,-4.1328 -3.66242,-1.73699 -12.51817,-11.4199 -24.838288,-27.15828 C 81.87605,127.7788 72.159091,113.95882 72.159091,112.7719 c 0,-0.43714 3.776646,0.59351 8.392543,2.29035 19.682476,7.2354 58.967706,11.69652 96.206786,10.92497 21.6797,-0.44917 33.09113,-1.61071 57.75863,-5.8791 14.17706,-2.45316 17.52652,-3.43697 17.87573,-5.25052 0.20624,-1.07104 -1.62209,-1.9309 -9.00893,-4.23686 -9.95488,-3.10763 -11.63699,-4.6681 -6.26106,-5.80824 1.65365,-0.35071 17.07765,-0.60077 34.27557,-0.55568 30.18502,0.0791 48.57991,0.65857 192.02336,6.04868 85.32791,3.20634 124.70198,3.37628 177.99242,0.76823 27.89836,-1.36537 43.12316,-1.74591 56.92551,-1.42287 20.10343,0.47051 23.25126,0.83878 23.25126,2.72019 0,1.7898 -13.63735,21.01699 -16.4224,23.15382 -1.33053,1.02084 -4.04272,3.12804 -6.0271,4.68266 -1.98437,1.55463 -6.22372,4.86064 -9.42077,7.34669 -6.19099,4.81416 -7.05936,6.70752 -3.7648,8.20862 1.93376,0.88108 1.97835,1.03362 0.79939,2.73443 -2.33376,3.36678 -24.85702,25.68884 -34.11634,33.81159 -24.38864,21.39495 -51.64238,39.87499 -79.15854,53.6753 -6.96661,3.49399 -7.74195,3.7017 -13.22917,3.54389 -3.20586,-0.0922 -69.87002,-0.40106 -148.14259,-0.68637 z M 707.15909,28.605057 c -4.32375,-0.357716 -5.47081,-1.241866 -3.96504,-3.056226 3.2004,-3.856246 -6.61886,-4.800552 -48.14986,-4.630505 -45.76866,0.187397 -90.44436,1.709232 -125.47664,4.27424 -20.54367,1.50418 -76.23329,0.963347 -165.16414,-1.603985 -69.11624,-1.995311 -100.62184,-4.991348 -100.62184,-9.568688 0,-1.589488 1.44367,-2.267559 12.42739,-5.8368848 6.59043,-2.1416498 7.7163,-4.0102816 3.46922,-5.7578705 -1.4671,-0.603683 -7.53819,-1.89346259 -13.49131,-2.86616713 -14.38989,-2.35123987 -29.44086,-5.51184007 -32.66722,-6.85990017 -3.31244,-1.3840274 -3.36235,-3.2270904 -0.10504,-3.8785514 3.75744,-0.751489 30.6682,-0.599121 52.41557,0.296775 36.46819,1.5023358 59.48509,3.4189855 78.08842,6.5025599 11.05745,1.8328169 12.86769,2.3773935 16.92105,5.09040695 1.56845,1.04979455 5.10484,2.25141175 8.01767,2.72427825 27.96627,4.5400817 113.75622,7.7927329 170.93374,6.4808004 56.6592,-1.3000342 90.16785,-4.5744775 119.30616,-11.6585359 19.38945,-4.7139289 21.14411,-6.2877507 9.62121,-8.6296816 -10.8437,-2.203891 -34.56872,-4.36876 -71.35732,-6.511244 -35.56373,-2.07115 -95.0688,-7.630399 -121.06692,-11.310649 -16.42239,-2.324725 -26.00102,-4.438473 -34.87343,-7.695639 -19.04984,-6.99341 -46.20395,-8.666675 -142.3908,-8.774248 -61.40224,-0.06863 -83.94105,0.574602 -102.60041,2.928304 -11.56866,1.459273 -14.09879,2.323587 -15.66436,5.351061 -3.01883,5.837775 -13.7034,7.196058 -71.27971,9.061474 -20.72569,0.671497 -49.048138,1.801524 -62.938763,2.511185 -23.318948,1.191338 -44.304882,1.128656 -48.656954,-0.145329 -2.069804,-0.605895 -3.181216,-3.42111 -3.916557,-9.920672 l -0.536417,-4.741301 3.10326,1.106199 c 7.654731,2.72864 32.135247,0.217776 33.538843,-3.439936 0.68932,-1.796337 -1.621093,-3.786084 -9.279937,-7.99194 -7.461736,-4.097619 -9.111463,-5.83452 -8.368513,-8.81073 1.330325,-5.329197 1.065532,-6.098261 -2.364154,-6.866402 -1.763889,-0.395055 -7.05273,-0.533152 -11.752981,-0.306869 L 9.7673976,-65.518195 9.108885,-74.07761 c -0.7950208,-10.333759 -0.5996405,-47.23572 0.2915291,-55.06194 0.6380789,-5.60359 0.6428329,-5.61213 3.0356829,-5.4549 1.318133,0.0866 17.550014,1.08596 36.070847,2.22075 75.892936,4.65008 79.830786,5.03179 90.917336,8.81275 3.26148,1.1123 8.67341,2.42493 12.02652,2.91696 9.05251,1.32836 156.23018,1.93346 189.70135,0.77992 31.15628,-1.07375 40.92329,-1.6104 96.21212,-5.28637 75.50824,-5.02029 119.67286,-6.77239 171.57828,-6.80689 31.69732,-0.0211 53.4206,-0.96045 65.74495,-2.84304 16.41835,-2.50796 20.56019,-2.82551 42.89457,-3.28876 28.09754,-0.58277 32.35388,-0.0872 37.14571,4.32532 2.77376,2.55418 5.36253,3.74011 15.19076,6.95903 8.88099,2.90868 12.24338,4.38383 13.42961,5.89187 1.70941,2.17317 2.08323,6.57745 0.767,9.03685 -1.26205,2.35816 -6.85445,3.58016 -39.95376,8.73031 -11.17824,1.73931 -20.52886,3.367149 -20.77915,3.617428 -0.9945,0.994513 0.88337,1.497285 8.3191,2.227359 8.06398,0.791746 11.5373,1.674636 11.5373,2.932682 0,2.213111 -10.76012,3.041714 -58.52904,4.507097 -57.38886,1.760497 -84.86001,3.677179 -116.25632,8.111299 -13.82412,1.952384 -15.43678,3.440778 -5.43488,5.016075 3.20967,0.505523 14.31446,1.819812 24.67731,2.920631 35.21316,3.740631 41.69192,4.920408 41.69192,7.592091 0,1.504276 -3.8143,3.420252 -12.02652,6.041079 -7.69536,2.455878 -8.05893,3.799456 -1.38911,5.133301 9.14897,1.829642 31.94421,3.368779 78.35881,5.290817 32.72573,1.35518 51.27797,2.401976 64.94318,3.664359 16.13354,1.490406 20.84596,3.128994 20.84596,7.248477 0,3.072069 -2.12371,10.567538 -4.10729,14.4964 -1.14717,2.272178 -1.4555,4.434762 -1.31462,9.220329 0.15627,5.3077176 -0.34108,8.0924973 -3.29312,18.4389483 -1.91246,6.7028657 -3.8909,12.7475607 -4.39655,13.4326557 -0.54367,0.736616 -4.68717,2.063862 -10.13968,3.247936 -5.07118,1.101268 -14.45187,3.259964 -20.84596,4.797105 -14.13521,3.398108 -21.74423,4.403749 -28.86364,3.814738 z M 776.1439,-166.15697 c -4.28686,-1.86716 -12.70788,-3.22398 -28.89643,-4.65591 -47.50104,-4.20163 -66.88603,-6.71111 -80.97604,-10.48276 -10.37065,-2.77604 -13.24856,-4.89994 -10.13776,-7.48168 3.84952,-3.19481 28.42389,-8.39057 49.82277,-10.534 11.04243,-1.10607 33.04142,-1.12998 38.88573,-0.0423 4.10144,0.76335 26.23102,7.53652 28.81353,8.81892 1.60438,0.79668 7.06722,25.9741 5.5656,25.65105 -0.1672,-0.036 -1.55203,-0.60898 -3.0774,-1.27336 z M 40.890152,-254.73441 c 0,-0.506 3.423074,-7.94255 7.606832,-16.52566 6.995926,-14.35237 7.752511,-15.56928 9.42077,-15.15263 0.997666,0.24916 8.127858,0.8322 15.844872,1.29564 30.520734,1.8329 41.270354,4.04282 49.230574,10.12089 2.02735,1.548 3.68609,3.35949 3.68609,4.02555 0,3.06466 -13.57046,6.31514 -46.502522,11.13858 -10.80382,1.5824 -23.910857,3.58371 -29.126751,4.44735 -11.197948,1.85416 -10.159865,1.78771 -10.159865,0.65028 z m 690.321968,-30.0088 c -2.32367,-0.53247 -34.25475,-2.75494 -50.91225,-3.54358 -21.33241,-1.00998 -122.35426,-3.7891 -160.35353,-4.41135 -63.85671,-1.04565 -100.09134,-2.44002 -137.10227,-5.27595 -34.10409,-2.61319 -54.78513,-5.30385 -57.81924,-7.52245 -1.3208,-0.96579 -1.31246,-1.06929 0.14791,-1.83661 3.32099,-1.74492 14.32235,-2.99781 58.07221,-6.61359 61.09845,-5.04958 91.29965,-8.17535 108.93809,-11.27489 13.91641,-2.44547 15.41481,-3.98709 6.30174,-6.4835 -2.93673,-0.80448 -8.87035,-3.04724 -13.18582,-4.98391 -9.45261,-4.24211 -17.77121,-6.40286 -32.70111,-8.49413 -13.84849,-1.93978 -57.43458,-6.05525 -115.05366,-10.86354 -63.40512,-5.29113 -80.50605,-7.20146 -86.39047,-9.6506 -5.21574,-2.17083 -2.43142,-3.62179 10.62343,-5.53604 11.89521,-1.74421 27.33038,-2.68925 66.54671,-4.0744 35.88789,-1.26758 54.73958,-2.3319 55.5435,-3.13581 1.03867,-1.03867 -1.08457,-1.47908 -10.40618,-2.15848 -12.3295,-0.89864 -98.36218,-2.27653 -177.18852,-2.83784 -44.72628,-0.31849 -60.22517,-0.67003 -61.20741,-1.38826 -1.14603,-0.83799 -0.42119,-1.73028 5.63167,-6.93268 3.82084,-3.28399 7.73208,-6.379 8.69163,-6.8778 0.95957,-0.49879 10.22335,-1.50136 20.5862,-2.22793 10.36284,-0.72657 26.95944,-2.20858 36.88131,-3.29335 29.08603,-3.18001 45.79104,-3.84611 71.58419,-2.85435 45.87516,1.76394 70.15657,4.26917 102.24725,10.54939 20.32807,3.97825 64.72452,10.30095 83.53598,11.89675 5.51216,0.46761 21.74795,1.57839 36.07955,2.46843 27.7514,1.72344 44.16439,3.02843 47.10385,3.74521 2.8807,0.70245 2.09857,1.64736 -1.80398,2.17944 -1.98437,0.27056 -5.23153,0.71328 -7.21591,0.98384 -3.64991,0.49764 -4.59788,1.36195 -2.41324,2.20027 1.15644,0.44377 19.83695,1.20026 72.56792,2.93873 68.03083,2.24287 69.16602,2.31038 71.24211,4.2368 3.6024,3.34271 16.72995,18.632 24.36581,28.3782 12.4337,15.87001 33.47667,48.64954 33.47667,52.14801 0,0.94683 -3.40139,1.23637 -6.41414,0.54597 z"
       style="fill:#aa612d;stroke-width:0.80176765;fill-opacity:1" />
    <path
       style="fill:#000000;fill-opacity:0.313725;stroke-width:0.800677"
       d="m 400.44615,289.2182 c 27.01351,-0.2472 54.05493,-3.23611 80.4726,-8.98911 33.3865,-7.27062 75.6927,-23.26809 105.28918,-39.81359 21.3781,-11.95113 47.66099,-30.40764 66.37372,-46.60904 24.35176,-21.08366 54.85495,-56.70435 73.04929,-85.30487 13.56728,-21.327026 27.24626,-48.428249 33.57108,-66.511708 9.64242,-27.568937 14.20555,-42.60602733 17.5488,-57.829015 13.46423,-61.307397 11.7833,-126.766627 -4.80384,-187.078507 -4.5298,-16.4706 -13.8127,-42.94214 -17.82941,-50.84289 -0.89553,-1.76149 -4.40827,-9.11193 -7.80624,-16.33439 -20.52178,-43.61953 -46.48783,-78.38554 -87.04533,-116.54433 -24.5858,-23.13168 -55.77089,-44.81132 -86.86912,-60.39115 -47.85668,-23.97559 -100.47748,-37.97392 -153.53068,-40.84246 -8.56726,-0.4632 -14.6427,-0.70238 -20.54809,-0.72554 77.49603,15.30149 148.00519,62.235 199.15063,132.656 51.86844,71.41649 80.41918,162.30147 80.5186,256.312505 C 677.9502,-5.8657696 649.60857,84.823246 598.03356,156.2103 547.32634,226.39622 477.41394,273.41937 400.44615,289.2182 Z"
       id="path851"
       inkscape:transform-center-x="-195.11825"
       inkscape:transform-center-y="-0.0078017908" />
  </g>
</svg>
