<?xml version="1.0" encoding="UTF-8" standalone="no"?>
<!-- Created with Inkscape (http://www.inkscape.org/) -->

<svg
   width="172.6376mm"
   height="33.708031mm"
   viewBox="0 0 172.6376 33.708031"
   version="1.1"
   id="svg1"
   xml:space="preserve"
   inkscape:version="1.3 (0e150ed6c4, 2023-07-21)"
   sodipodi:docname="Nuclear_Submarine-side.svg"
   xmlns:inkscape="http://www.inkscape.org/namespaces/inkscape"
   xmlns:sodipodi="http://sodipodi.sourceforge.net/DTD/sodipodi-0.dtd"
   xmlns="http://www.w3.org/2000/svg"
   xmlns:svg="http://www.w3.org/2000/svg"><sodipodi:namedview
     id="namedview1"
     pagecolor="#505050"
     bordercolor="#ffffff"
     borderopacity="1"
     inkscape:showpageshadow="0"
     inkscape:pageopacity="0"
     inkscape:pagecheckerboard="1"
     inkscape:deskcolor="#505050"
     inkscape:document-units="mm"
     inkscape:zoom="0.83024534"
     inkscape:cx="272.81093"
     inkscape:cy="142.7289"
     inkscape:window-width="1600"
     inkscape:window-height="837"
     inkscape:window-x="-8"
     inkscape:window-y="-8"
     inkscape:window-maximized="1"
     inkscape:current-layer="layer1" /><defs
     id="defs1" /><g
     inkscape:label="Layer 1"
     inkscape:groupmode="layer"
     id="layer1"
     transform="translate(-18.92952,-97.76767)"><path
       id="path1"
       style="fill:#ffffff;stroke:none;stroke-width:20;stroke-linecap:round;stroke-linejoin:round;paint-order:markers stroke fill"
       d="M 58.533378,97.767676 A 0.2,0.2 0 0 0 58.33184,97.96663 v 10.19731 h -0.794784 v -6.535 a 0.30000001,0.30000001 0 0 0 -0.300756,-0.30076 0.30000001,0.30000001 0 0 0 -0.29869,0.30076 v 6.535 h -2.937805 v -2.19728 a 0.2,0.2 0 0 0 -0.198955,-0.19896 0.2,0.2 0 0 0 -0.201021,0.19896 v 2.19728 h -1.095023 v 4.73201 c 0,2.02808 -2.028513,2.70421 -4.169255,2.81688 -2.140741,0.11267 -17.012991,0.4509 -23.773226,2.14096 -6.760236,1.69006 -8.224954,9.01366 0,10.81639 0.450683,1.01404 0.506946,1.09813 0.506946,1.09813 l 5.802746,-0.33797 c 19.238504,2.16891 23.941129,1.62729 31.430123,1.62729 h 73.45598 c 11.15382,0 24.53856,-1.27489 32.90394,-2.62929 v 1.29449 h 3.90363 v -0.43821 l 0.93638,2.19108 h 4.02301 v -5.05913 c 2.48969,-0.57761 4.60127,-1.01544 4.60127,-1.01544 v 1.65313 c 0,0.6772 0.71672,0.75654 1.45366,0.75654 0.73695,0 6.47351,-1.23455 6.47351,-1.23455 v -2.5895 c 0,0 1.5136,-0.17902 1.5136,-0.67696 0,-0.49794 -1.5534,-0.87644 -1.5534,-0.87644 v -2.64893 c 0,0 -4.34201,-1.11556 -6.05492,-1.23507 -1.71291,-0.1195 -1.81281,0.45793 -1.81281,0.85628 v 1.5136 c 0,0 -3.0557,-0.84022 -4.37958,-1.06556 v -8.1871 h -3.04943 c 0,0 -0.0463,-0.25403 -0.478,-0.40721 -0.56128,-0.19917 -1.65543,6.53804 -1.8526,6.98872 -0.19717,0.45069 -0.75856,0.19786 -1.88723,0.0279 -1.82502,-0.27482 -9.395,-1.38665 -18.54408,-2.1549 v -0.4377 a 0.30000001,0.30000001 0 0 0 -0.29869,-0.29869 0.30000001,0.30000001 0 0 0 -0.30076,0.29869 v 0.39274 c -0.4832,-0.0395 -0.97982,-0.0739 -1.47071,-0.11111 v -0.36173 a 0.30000001,0.30000001 0 0 0 -0.30076,-0.29869 0.30000001,0.30000001 0 0 0 -0.30076,0.29869 v 0.31626 c -4.39785,-0.32279 -9.02359,-0.55707 -13.52527,-0.55707 -4.32235,0 -11.51076,0.002 -20.21117,0.004 v -0.16123 a 0.30000001,0.30000001 0 0 0 -0.30075,-0.29869 0.30000001,0.30000001 0 0 0 -0.30076,0.29869 v 0.16123 c -0.67316,1.2e-4 -0.86905,4e-4 -1.55288,5.2e-4 v -0.16175 a 0.30000001,0.30000001 0 0 0 -0.30075,-0.29869 0.30000001,0.30000001 0 0 0 -0.29869,0.29869 v 0.16175 c -12.46466,0.002 -18.901578,0.003 -28.158493,0.005 v -0.1664 a 0.30000001,0.30000001 0 0 0 -0.300757,-0.29869 0.30000001,0.30000001 0 0 0 -0.300756,0.29869 v 0.16692 c -1.165722,2.5e-4 -2.631327,3e-4 -3.625102,5.2e-4 v -0.16744 a 0.30000001,0.30000001 0 0 0 -0.29869,-0.29869 0.30000001,0.30000001 0 0 0 -0.300757,0.29869 v 0.16744 c -3.840462,8.2e-4 -14.459582,0.003 -14.459582,0.003 v -7.21093 h -2.403471 v -4.61057 a 0.70557189,0.62690258 0 0 0 5.17e-4,-0.006 0.70557189,0.62690258 0 0 0 -0.7059,-0.62735 0.70557189,0.62690258 0 0 0 -0.705384,0.62735 0.70557189,0.62690258 0 0 0 0.0047,0.0563 0.2,0.2 0 0 0 -0.0041,0.0155 v 4.54494 H 60.929614 V 97.96663 A 0.2,0.2 0 0 0 60.73066,97.767676 0.2,0.2 0 0 0 60.529122,97.96663 v 10.19731 h -1.79679 V 97.96663 a 0.2,0.2 0 0 0 -0.198954,-0.198954 z m 3.402376,6.343794 a 0.70557189,0.62690258 0 0 0 0.304375,0.0625 0.70557189,0.62690258 0 0 0 0.10542,-0.008 v 3.99769 h -0.409795 z" /></g></svg>
