<?xml version="1.0" encoding="UTF-8" standalone="no"?>
<!-- Created with Inkscape (http://www.inkscape.org/) -->

<svg
   width="97.220001mm"
   height="134.935mm"
   viewBox="0 0 97.220002 134.935"
   version="1.1"
   id="svg1"
   xml:space="preserve"
   inkscape:version="1.3 (0e150ed, 2023-07-21)"
   sodipodi:docname="Avocado-front.svg"
   xmlns:inkscape="http://www.inkscape.org/namespaces/inkscape"
   xmlns:sodipodi="http://sodipodi.sourceforge.net/DTD/sodipodi-0.dtd"
   xmlns="http://www.w3.org/2000/svg"
   xmlns:svg="http://www.w3.org/2000/svg"><sodipodi:namedview
     id="namedview1"
     pagecolor="#505050"
     bordercolor="#ffffff"
     borderopacity="1"
     inkscape:showpageshadow="0"
     inkscape:pageopacity="0"
     inkscape:pagecheckerboard="1"
     inkscape:deskcolor="#505050"
     inkscape:document-units="mm"
     inkscape:zoom="0.65008588"
     inkscape:cx="81.52769"
     inkscape:cy="307.65166"
     inkscape:current-layer="layer1" /><defs
     id="defs1" /><g
     inkscape:label="Layer 1"
     inkscape:groupmode="layer"
     id="layer1"
     transform="translate(-58.910829,-79.090056)"><path
       style="fill:#555555;fill-opacity:1;stroke:none;stroke-width:2.065;stroke-linecap:round;stroke-linejoin:round"
       d="m 152.01593,182.55629 c -0.47714,-1.17945 1.19792,-2.85375 1.74681,-3.8446 0.54889,-0.99084 -0.39745,-2.36279 0.24026,-3.05495 0.63771,-0.69215 1.21616,-2.07301 0.95334,-3.26762 -0.26281,-1.19461 -0.23532,-3.20982 0.27881,-3.76888 0.51414,-0.55906 -0.12566,-3.13022 0.64581,-4.68539 0.77146,-1.55517 -0.50808,-3.10388 -0.33814,-4.13604 0.16995,-1.03216 -1.28844,-7.41617 -0.7954,-8.3204 0.49304,-0.90424 -2.14209,-4.94111 -2.24383,-6.6675 -0.10176,-1.72639 -0.62934,-5.30243 -1.36582,-6.25237 -0.73649,-0.94995 -2.38148,-6.31794 -3.3381,-7.88895 -0.95661,-1.571 -1.77375,-3.64715 -1.72386,-4.80997 0.0499,-1.16281 -0.97089,-1.01712 -2.9696,-5.13345 -1.99871,-4.11632 -2.75228,-6.30549 -3.786,-8.1751 -1.03372,-1.86961 -4.07198,-7.92507 -4.39867,-8.67686 -0.32668,-0.75179 -2.85253,-3.901444 -3.0136,-5.355639 -0.16107,-1.454195 -3.89099,-5.545867 -3.89099,-6.570874 0,-1.025004 -2.99861,-4.032189 -5.00935,-6.243875 -2.01074,-2.211689 -7.61888,-4.506262 -9.40599,-4.556477 -1.7871,-0.05022 -3.63856,0.227272 -4.09879,-0.117303 -0.46022,-0.344578 -1.30751,-2.219423 -4.43924,-1.904487 -3.13173,0.314936 -2.65443,2.38342 -3.22067,2.38342 -0.56624,0 -6.366425,0.984168 -8.105354,2.909445 -1.738926,1.925281 -7.894992,9.933512 -8.5724,11.480753 -0.67741,1.547241 -2.176787,3.094579 -3.267231,5.165577 -1.090443,2.07099 -2.55497,5.73054 -2.629124,7.12329 -0.07415,1.39276 -2.078273,4.49644 -3.394501,6.95042 -1.316228,2.45398 -2.349868,4.10557 -3.143372,6.17298 -0.793504,2.0674 -2.85487,5.27916 -4.07221,8.1455 -1.217343,2.86634 -3.774376,7.46364 -4.578863,10.30862 -0.804487,2.84498 -2.305659,3.08954 -2.290329,4.15647 0.01532,1.06693 -1.014547,5.27463 -1.608098,8.45212 -0.593553,3.17749 -1.277003,9.55419 -0.723611,10.78441 0.553392,1.23023 -0.992751,2.65545 -0.415788,3.74554 0.576964,1.09009 0.138809,3.41261 0.64565,4.72407 0.506838,1.31146 0.04308,3.73467 0.657847,4.74588 0.614762,1.01122 -0.119412,2.58635 0.803918,3.52627 0.923329,0.9399 0.39598,2.69004 1.171371,3.71003 0.775393,1.01999 1.597549,2.9524 2.065261,4.14079 0.467711,1.18839 1.492549,1.77385 2.203452,2.8098 0.710906,1.03595 1.161106,2.29762 1.961523,3.75905 0.80042,1.46142 2.380914,2.3032 2.983958,3.32237 0.603043,1.01918 2.580031,1.82957 3.677139,3.61035 1.097111,1.78077 1.832814,1.15941 2.660142,2.15691 0.827328,0.99751 2.852412,0.80731 4.004789,2.66032 1.152374,1.853 3.917635,1.6525 4.776726,3.06087 0.859092,1.40836 2.861898,1.46338 4.356156,1.15404 1.494258,-0.30934 3.419276,2.49255 5.624018,2.4913 2.204743,-0.001 7.280051,1.36602 8.709831,1.24084 1.42978,-0.12517 3.68066,-0.13767 4.83302,-0.21974 1.15236,-0.0821 7.03516,-0.93348 7.69839,-1.40869 0.66324,-0.47521 5.74461,-0.63771 6.82319,-1.72956 1.07859,-1.09186 3.7172,-0.52725 4.00715,-1.47518 0.28994,-0.94792 3.15561,-1.6919 3.72821,-2.70553 0.5726,-1.01362 3.89039,-1.87138 4.18603,-2.83008 0.29563,-0.95869 2.31738,-1.26237 3.8055,-3.17089 1.48812,-1.90853 2.35341,-3.87755 4.60547,-5.77422 2.25206,-1.89667 4.16504,-2.66941 4.36726,-4.4341 0.20222,-1.7647 3.8671,-4.6248 2.6179,-7.71271 z"
       id="path1"
       sodipodi:nodetypes="ssssssssssssssssssssssssssssssssssssssssssssssscsssssssssss" /></g></svg>
