<?xml version="1.0" encoding="UTF-8" standalone="no"?>
<!-- Created with Inkscape (http://www.inkscape.org/) -->

<svg
   xmlns:dc="http://purl.org/dc/elements/1.1/"
   xmlns:cc="http://creativecommons.org/ns#"
   xmlns:rdf="http://www.w3.org/1999/02/22-rdf-syntax-ns#"
   xmlns:svg="http://www.w3.org/2000/svg"
   xmlns="http://www.w3.org/2000/svg"
   xmlns:sodipodi="http://sodipodi.sourceforge.net/DTD/sodipodi-0.dtd"
   xmlns:inkscape="http://www.inkscape.org/namespaces/inkscape"
   width="231.10143mm"
   height="134.27165mm"
   viewBox="0 0 231.10143 134.27165"
   version="1.1"
   id="svg8"
   inkscape:version="0.92.4 (5da689c313, 2019-01-14)"
   sodipodi:docname="Banana-side.svg">
  <defs
     id="defs2" />
  <sodipodi:namedview
     id="base"
     pagecolor="#ffffff"
     bordercolor="#666666"
     borderopacity="1.0"
     inkscape:pageopacity="0.0"
     inkscape:pageshadow="2"
     inkscape:zoom="0.35"
     inkscape:cx="249.80614"
     inkscape:cy="107.81584"
     inkscape:document-units="mm"
     inkscape:current-layer="layer1"
     showgrid="false"
     inkscape:showpageshadow="false"
     borderlayer="true"
     inkscape:pagecheckerboard="true"
     fit-margin-top="0"
     fit-margin-left="0"
     fit-margin-right="0"
     fit-margin-bottom="0"
     inkscape:window-width="1366"
     inkscape:window-height="713"
     inkscape:window-x="0"
     inkscape:window-y="0"
     inkscape:window-maximized="1" />
  <metadata
     id="metadata5">
    <rdf:RDF>
      <cc:Work
         rdf:about="">
        <dc:format>image/svg+xml</dc:format>
        <dc:type
           rdf:resource="http://purl.org/dc/dcmitype/StillImage" />
        <dc:title></dc:title>
      </cc:Work>
    </rdf:RDF>
  </metadata>
  <g
     inkscape:label="Layer 1"
     inkscape:groupmode="layer"
     id="layer1"
     transform="translate(7.3558955,-60.404438)">
    <path
       style="fill:#555555;fill-opacity:1;stroke:none;stroke-width:0.26458332px;stroke-linecap:butt;stroke-linejoin:miter;stroke-opacity:1"
       d="m 201.35571,102.62823 c 2.00431,-0.55177 1.5368,-7.951263 2.73952,-15.301176 1.20271,-7.349911 0.80181,-15.969354 1.33635,-17.439336 0.53453,-1.469983 2.27179,-0.868627 2.93996,-4.34313 0.66817,-3.474503 3.60814,-6.280832 4.40995,-4.677217 0.80181,1.603619 1.33634,2.539061 2.80633,1.202714 1.46998,-1.336349 1.46998,0.267269 2.00452,2.00452 0.53454,1.737252 2.00452,3.073601 3.0736,2.405425 1.06908,-0.668173 3.20723,-1.336347 3.0736,0.935445 -0.13364,2.271789 -0.80181,4.543581 -2.40543,7.884451 -1.60362,3.34087 -4.00904,15.367998 -3.4745,26.593314 0.53454,11.22532 10.69078,23.38608 -0.13364,42.09495 -10.82441,18.70887 -27.79603,33.14143 -62.2738,45.43582 -34.47777,12.2944 -93.890245,1.6291 -124.246315,-17.74999 -22.1637297,-14.14915 -41.46234,-42.6167 -38.2001597,-58.37045 0.47401,-2.2891 2.45685,-1.79539 3.11831,-3.49628 0.66146,-1.70089 2.92930997,-2.17336 3.77975997,-2.83482 0.85045,-0.66146 1.98437003,-0.47247 2.26786003,-1.41741 0.28348,-0.94494 1.03943,-1.03944 1.88988,-0.75596 0.85044,0.28349 12.3787197,3.02381 29.2931497,11.43379 16.91444,8.40996 56.08195,25.75078 86.149765,23.07809 30.06782,-2.6727 42.49586,-9.2208 60.93745,-23.51972 18.4416,-14.29892 16.36663,-11.91121 20.91384,-13.16303 z"
       id="path826"
       inkscape:connector-curvature="0"
       sodipodi:nodetypes="sssscsscssssssssscccsss" />
  </g>
</svg>
