<?xml version="1.0" encoding="UTF-8" standalone="no"?>
<!-- Created with Inkscape (http://www.inkscape.org/) -->

<svg
   width="47.507999mm"
   height="85.989998mm"
   viewBox="0 0 47.508 85.989998"
   version="1.1"
   id="svg1"
   xml:space="preserve"
   inkscape:version="1.3 (0e150ed, 2023-07-21)"
   sodipodi:docname="Jackfruit-front.svg"
   xmlns:inkscape="http://www.inkscape.org/namespaces/inkscape"
   xmlns:sodipodi="http://sodipodi.sourceforge.net/DTD/sodipodi-0.dtd"
   xmlns="http://www.w3.org/2000/svg"
   xmlns:svg="http://www.w3.org/2000/svg"><sodipodi:namedview
     id="namedview1"
     pagecolor="#505050"
     bordercolor="#ffffff"
     borderopacity="1"
     inkscape:showpageshadow="0"
     inkscape:pageopacity="0"
     inkscape:pagecheckerboard="1"
     inkscape:deskcolor="#505050"
     inkscape:document-units="mm"
     inkscape:zoom="1.3001718"
     inkscape:cx="46.532314"
     inkscape:cy="194.58967"
     inkscape:current-layer="layer1" /><defs
     id="defs1" /><g
     inkscape:label="Layer 1"
     inkscape:groupmode="layer"
     id="layer1"
     transform="translate(-37.57323,-90.293603)"><path
       style="fill:#555555;fill-opacity:1"
       d="m 83.788119,151.24155 c -0.103538,0.42708 -0.375045,1.35324 -0.60331,2.05815 -0.228275,0.7049 -0.570701,1.97785 -0.760951,2.82876 -0.19025,0.85092 -0.449707,1.59862 -0.576567,1.66156 -0.126852,0.063 -0.270609,0.28945 -0.319451,0.50335 -0.290176,1.27071 -0.686266,2.33879 -0.904474,2.43899 -0.138286,0.0635 -0.287128,0.40388 -0.330756,0.7564 -0.04363,0.35252 -0.20545,0.62535 -0.359594,0.60627 -0.155593,-0.0193 -0.237428,0.19533 -0.183945,0.48235 0.05298,0.28436 -0.0845,0.65833 -0.306244,0.83093 -0.221421,0.17265 -0.37339,0.45891 -0.337717,0.63614 0.0357,0.17723 -0.175817,0.5099 -0.469975,0.73926 -0.296311,0.23106 -0.529946,0.69381 -0.523894,1.03768 0.0079,0.44525 -0.147442,0.64179 -0.549616,0.69545 -0.308306,0.0411 -0.506222,0.19312 -0.439813,0.33775 0.06644,0.14463 -0.134408,0.55603 -0.446164,0.91423 -0.311794,0.3582 -0.71032,0.82904 -0.885622,1.04631 -0.854198,1.05871 -3.00465,3.10837 -3.351551,3.19447 -0.215365,0.0535 -0.404629,0.20271 -0.42059,0.33167 -0.06245,0.5046 -3.045812,2.34923 -3.290972,2.03482 -0.08183,-0.10495 -0.36852,0.0528 -0.637141,0.35049 -0.297118,0.32925 -0.638923,0.46105 -0.872687,0.3365 -0.229102,-0.12206 -0.566126,-0.003 -0.834662,0.29436 -0.279052,0.30922 -0.672789,0.4415 -1.034998,0.34768 -0.321531,-0.0833 -0.764722,-0.0426 -0.984856,0.0904 -0.699465,0.42257 -2.221458,0.62693 -2.852194,0.383 -0.335055,-0.12964 -0.774411,-0.1298 -0.976328,-5.2e-4 -0.396991,0.25424 -3.51477,-0.19785 -4.768222,-0.69141 -0.419451,-0.16515 -1.085471,-0.32597 -1.480052,-0.35737 -0.394571,-0.0314 -0.773311,-0.17884 -0.84164,-0.32765 -0.06834,-0.14881 -0.47545,-0.31404 -0.904716,-0.36716 -0.450205,-0.0557 -0.823652,-0.27051 -0.88249,-0.50758 -0.05606,-0.22605 -0.21184,-0.36056 -0.346087,-0.29892 -0.134262,0.0617 -0.722351,-0.17414 -1.30689,-0.52389 -0.584547,-0.34977 -1.260584,-0.73432 -1.502307,-0.85456 -0.241727,-0.1202 -0.423551,-0.34746 -0.404063,-0.50493 0.01949,-0.15748 -0.07999,-0.23332 -0.221073,-0.16855 -0.289947,0.13313 -2.24608,-1.43833 -2.204874,-1.77129 0.0147,-0.11876 -0.132203,-0.23561 -0.326451,-0.25965 -0.448727,-0.0555 -1.169533,-1.0623 -0.907081,-1.26694 0.108517,-0.0847 -0.05637,-0.18529 -0.366563,-0.22368 -0.382105,-0.0473 -0.590774,-0.28741 -0.647209,-0.74476 -0.04575,-0.37123 -0.185937,-0.62784 -0.311392,-0.57023 -0.125465,0.0576 -0.341369,-0.26987 -0.479783,-0.72773 -0.138424,-0.45785 -0.388399,-0.84938 -0.555514,-0.87006 -0.344086,-0.0426 -1.198046,-1.85454 -1.130657,-2.39906 0.0243,-0.19634 -0.05829,-0.40966 -0.18352,-0.47403 -0.125231,-0.0644 -0.238814,-0.35836 -0.252402,-0.65331 -0.01358,-0.29494 -0.153082,-0.71068 -0.309988,-0.92386 -0.156905,-0.21318 -0.264394,-0.5564 -0.238861,-0.76272 0.02553,-0.20631 -0.07174,-0.38973 -0.216154,-0.40761 -0.144418,-0.0179 -0.247027,-0.15823 -0.228008,-0.3119 0.01902,-0.15367 -0.180894,-0.96178 -0.444254,-1.79579 -0.263371,-0.83402 -0.458204,-1.68315 -0.43298,-1.88698 0.02522,-0.20383 -0.0707,-0.46422 -0.213164,-0.57865 -0.142463,-0.11443 -0.167545,-0.37976 -0.05573,-0.58963 0.111822,-0.20986 0.09487,-0.55083 -0.03758,-0.75771 -0.132484,-0.20688 -0.189536,-0.52865 -0.126777,-0.71505 0.06277,-0.1864 0.01402,-0.59124 -0.108336,-0.89964 -0.122348,-0.30841 -0.229559,-1.22146 -0.238262,-2.029 -0.0087,-0.80755 -0.104499,-1.98927 -0.21291,-2.62605 -0.121227,-0.71211 -0.09363,-1.2053 0.0717,-1.28122 0.168006,-0.0771 0.18489,-0.25452 0.04503,-0.47294 -0.269537,-0.42088 -0.264348,-0.54603 0.188324,-4.53955 0.383062,-3.37942 0.872561,-6.02535 1.752637,-9.47351 0.302848,-1.18658 0.545263,-2.23632 0.538707,-2.33274 -0.0066,-0.0965 0.07608,-0.34441 0.183638,-0.55104 0.340261,-0.65368 1.328154,-4.67243 1.771523,-7.20656 0.234858,-1.34245 0.503266,-2.53571 0.596427,-2.6517 0.25149,-0.3131 0.885704,-3.20695 1.16179,-5.30111 0.147315,-1.11709 0.39144,-1.95935 0.623432,-2.15056 0.222227,-0.18316 0.304506,-0.45108 0.197175,-0.6421 -0.24015,-0.42744 0.143966,-2.64555 0.469489,-2.71107 0.138024,-0.0278 0.243192,-0.39425 0.2337,-0.81437 -0.0095,-0.42013 0.128301,-0.83072 0.306294,-0.91243 0.240098,-0.11025 0.252429,-0.25963 0.0478,-0.57918 -0.19792,-0.30906 -0.187482,-0.47115 0.03701,-0.57421 0.172012,-0.079 0.442192,-0.47829 0.600402,-0.88737 0.158209,-0.40906 0.483453,-1.02746 0.722761,-1.37419 0.239308,-0.34673 0.454116,-0.77804 0.477351,-0.95845 0.02322,-0.18041 0.219475,-0.30609 0.436103,-0.27928 0.216627,0.0268 0.413884,-0.0388 0.438334,-0.14571 0.198795,-0.86947 0.465988,-1.2616 1.098725,-1.612571 0.403223,-0.22366 0.679702,-0.523009 0.614414,-0.665214 -0.125644,-0.273633 1.226743,-0.743248 1.727233,-0.599792 0.16219,0.04647 0.463421,-0.256898 0.669424,-0.674206 0.232654,-0.471273 0.556554,-0.736198 0.854948,-0.699269 0.264214,0.0327 0.771728,-0.09515 1.127802,-0.284105 0.356075,-0.188967 0.802776,-0.260777 0.992688,-0.159606 0.682411,0.363587 1.099217,-0.488472 1.436055,-2.935609 0.182019,-1.322598 0.503255,-2.645207 0.713799,-2.939134 0.908034,-1.267703 2.54186,-0.582851 4.167232,1.746765 1.003359,1.438101 1.379678,2.661432 1.569223,5.101184 0.04059,0.522501 0.185076,0.733554 0.45613,0.666286 0.218188,-0.05411 0.759114,0.139088 1.202055,0.429377 1.866061,1.223064 2.222321,1.426504 2.574296,1.470064 0.203696,0.0252 0.488703,0.30042 0.633341,0.61158 0.144639,0.31116 0.470869,0.59148 0.724971,0.62293 0.254102,0.0314 0.448171,0.16888 0.431273,0.30542 -0.0169,0.13655 0.275004,0.44372 0.64868,0.68264 0.38333,0.24508 0.684226,0.69528 0.690492,1.03309 0.0066,0.35998 0.194637,0.62146 0.471346,0.6557 0.425544,0.0527 1.638406,2.07359 1.57106,2.61777 -0.01627,0.13145 0.107584,0.25599 0.275225,0.27674 0.342061,0.0423 1.605094,1.76353 1.560213,2.12619 -0.01592,0.12864 0.392451,1.02736 0.9075,1.99716 0.515038,0.9698 1.08102,2.22141 1.257726,2.78135 0.176716,0.55994 0.405957,1.0682 0.509427,1.12946 0.103478,0.0613 0.606374,1.06291 1.117555,2.2259 0.511181,1.163 1.015064,2.16513 1.119753,2.22696 0.104689,0.0618 0.176337,0.22559 0.159218,0.36392 -0.01712,0.13831 0.540168,1.93642 1.238403,3.99579 0.698245,2.05936 1.261358,3.8103 1.251376,3.89096 -0.01764,0.14255 0.22702,0.96498 1.313243,4.4145 0.850296,2.70031 1.407502,5.64309 1.447335,7.64397 0.03431,1.72362 -0.854289,9.50009 -1.29169,11.30402 z"
       id="path1"
       sodipodi:nodetypes="ssssssssscsscsscssssssssssssssscssssssssscssssssssssssssssssssssscssscsssssssssssssssssscscssccssssscssssssssssssssss" /></g></svg>
