<?xml version="1.0" encoding="UTF-8" standalone="no"?>
<!-- Created with Inkscape (http://www.inkscape.org/) -->

<svg
   width="165.08757mm"
   height="256.41324mm"
   viewBox="0 0 165.08757 256.41324"
   version="1.1"
   id="svg1"
   xml:space="preserve"
   inkscape:version="1.3 (0e150ed, 2023-07-21)"
   sodipodi:docname="Strawberry-front.svg"
   xmlns:inkscape="http://www.inkscape.org/namespaces/inkscape"
   xmlns:sodipodi="http://sodipodi.sourceforge.net/DTD/sodipodi-0.dtd"
   xmlns="http://www.w3.org/2000/svg"
   xmlns:svg="http://www.w3.org/2000/svg"><sodipodi:namedview
     id="namedview1"
     pagecolor="#505050"
     bordercolor="#ffffff"
     borderopacity="1"
     inkscape:showpageshadow="0"
     inkscape:pageopacity="0"
     inkscape:pagecheckerboard="1"
     inkscape:deskcolor="#505050"
     inkscape:document-units="mm"
     inkscape:zoom="0.20756134"
     inkscape:cx="330.02293"
     inkscape:cy="260.16406"
     inkscape:window-width="1600"
     inkscape:window-height="837"
     inkscape:window-x="-8"
     inkscape:window-y="-8"
     inkscape:window-maximized="1"
     inkscape:current-layer="layer1" /><defs
     id="defs1" /><g
     inkscape:label="Layer 1"
     inkscape:groupmode="layer"
     id="layer1"
     transform="translate(-18.190248,-51.603457)"><path
       style="fill:#555555;fill-opacity:1"
       d="m 118.13358,305.03725 c -0.40868,0.0512 -1.60009,0.6153 -2.64757,1.2536 -1.63462,0.99604 -2.24684,1.21313 -4.31969,1.53163 -2.14343,0.32934 -2.80036,0.27834 -5.83894,-0.45341 -1.88298,-0.45391 -3.63409,-0.7582 -3.89111,-0.67728 -0.25702,0.081 -0.70245,-0.0558 -0.98981,-0.30402 -0.28739,-0.24819 -1.163315,-0.65392 -1.946531,-0.90163 -0.783209,-0.24773 -2.108205,-0.79403 -2.944423,-1.21407 -0.836198,-0.42003 -1.952199,-0.90323 -2.479974,-1.07376 -1.704945,-0.55091 -6.109136,-3.88074 -7.237162,-5.47172 -0.310663,-0.43816 -0.704572,-0.78841 -0.87535,-0.77833 -0.170758,0.0101 -0.666858,-0.48664 -1.102422,-1.10382 -0.435566,-0.61718 -1.868037,-2.24159 -3.183263,-3.6098 -1.315235,-1.36821 -2.64193,-2.84427 -2.94821,-3.28016 -0.306291,-0.43588 -0.754388,-0.827 -0.99579,-0.86916 -0.911114,-0.15905 -11.579685,-15.36155 -12.190618,-17.37133 -0.155923,-0.51294 -0.681832,-1.59857 -1.168696,-2.41252 -1.459302,-2.43969 -2.260453,-3.93286 -3.212979,-5.98828 -1.548375,-3.3412 -6.37027,-11.53077 -7.340651,-12.46747 -2.211282,-2.13453 -4.368275,-5.94279 -5.581083,-9.85363 -0.691752,-2.23064 -0.832532,-2.49398 -1.822119,-3.40854 -0.815379,-0.75354 -2.051031,-2.51259 -5.155008,-7.3385 -6.349013,-9.87125 -6.312868,-9.80095 -9.954038,-19.36033 -0.798413,-2.09611 -1.732981,-3.98797 -2.964541,-6.00117 -1.571486,-2.56885 -1.916874,-3.34679 -2.735771,-6.16193 -0.515472,-1.77204 -1.229548,-4.0351 -1.586826,-5.02903 -0.357285,-0.99393 -0.766877,-2.37957 -0.9102,-3.07921 -0.143333,-0.69963 -0.760006,-2.84728 -1.37039,-4.77257 -1.123431,-3.54353 -1.916399,-7.47526 -1.871557,-9.27966 0.0135,-0.54304 -0.16858,-2.15408 -0.404618,-3.58009 -0.250063,-1.51079 -0.342262,-3.80752 -0.220935,-5.50376 0.114518,-1.60106 0.267879,-3.84461 0.340803,-4.98565 0.07292,-1.14106 0.294092,-2.58466 0.491487,-3.20803 0.197396,-0.62335 0.60109,-2.17255 0.897099,-3.44265 0.646222,-2.77263 1.289539,-4.26213 2.715996,-6.28805 0.589257,-0.83688 1.6048,-2.52275 2.25676,-3.74637 0.651958,-1.2236 1.597552,-2.77717 2.101313,-3.45234 0.503764,-0.67519 1.348714,-1.9578 1.877664,-2.85024 3.63527,-6.13344 6.013633,-8.38709 17.276732,-16.37078 l 7.015359,-4.97273 4.179596,-0.95489 c 2.298777,-0.52519 4.542864,-1.11096 4.986857,-1.3017 0.726932,-0.3123 0.772681,-0.39748 0.459753,-0.85591 -0.347066,-0.50853 -0.346419,-0.50883 0.594795,-0.28196 0.518374,0.12447 1.156909,0.0763 1.419204,-0.10797 0.448302,-0.31501 0.43873,-0.34375 -0.159556,-0.47925 -0.349985,-0.0796 -0.705238,-0.24206 -0.789319,-0.36166 -0.08408,-0.11963 -0.853887,-0.36761 -1.710701,-0.55102 -0.856811,-0.18343 -1.861224,-0.48412 -2.232038,-0.66817 -0.370813,-0.18405 -2.456756,-0.62958 -4.635452,-0.98996 -3.201123,-0.52953 -4.368795,-0.86757 -6.085026,-1.76161 -1.168071,-0.6085 -2.507558,-1.4265 -2.976633,-1.8178 -0.644321,-0.53748 -1.196859,-0.70805 -2.259645,-0.69755 -2.271547,0.0224 -4.585376,-0.69376 -9.756327,-3.01989 -1.03848,-0.46715 -4.781612,-3.472779 -6.950138,-5.580751 -0.887857,-0.863077 -2.316131,-2.568031 -3.173939,-3.788807 -1.437418,-2.045635 -1.613429,-2.432359 -2.245865,-4.934437 -1.11335,-4.404746 -1.021473,-6.416008 0.417349,-9.136198 0.332884,-0.629339 0.797035,-2.255592 1.031447,-3.613897 0.43645,-2.529008 1.06687,-4.018647 1.967677,-4.649485 0.66651,-0.466751 2.456922,-0.575728 2.744113,-0.167019 0.288744,0.41092 -0.190551,1.36958 -0.778065,1.556244 -0.709963,0.225568 -1.862317,2.524616 -2.216547,4.422209 -0.378001,2.024941 -0.145514,4.029543 0.714721,6.16261 0.55715,1.38154 0.840711,1.761994 2.889724,3.877193 1.249574,1.289935 2.947864,3.107285 3.773977,4.038556 3.863565,4.355378 7.408275,7.257338 11.523702,9.434162 l 1.0477,0.55416 0.537982,-2.767463 c 0.295892,-1.522111 0.718637,-3.353876 0.939437,-4.070586 l 0.401455,-1.303107 -1.021773,-1.15955 c -1.737319,-1.971589 -8.2085,-11.465493 -8.987673,-13.18587 -0.397184,-0.876961 -1.024776,-2.254933 -1.394646,-3.06216 -0.369873,-0.807227 -0.820319,-2.455192 -1.000994,-3.662145 -0.180675,-1.206953 -0.418553,-2.640493 -0.528619,-3.185643 -0.110064,-0.545151 -0.229179,-1.334556 -0.264697,-1.754234 -0.03552,-0.419678 -0.295071,-2.161206 -0.576782,-3.870065 -0.286204,-1.736108 -0.421773,-3.85828 -0.307262,-4.809673 0.24134,-2.005049 1.412795,-4.303302 2.629101,-5.157971 0.494169,-0.347242 0.870433,-0.8157 0.894372,-1.113513 0.05972,-0.743058 0.56833,-0.995373 1.173953,-0.582381 0.517389,0.352821 2.474315,3.196587 5.949409,8.645563 1.65258,2.591255 4.285301,7.441203 4.315304,7.949557 0.0073,0.124526 0.513967,1.176781 1.125826,2.33837 0.61186,1.16159 2.121869,4.255615 3.355573,6.875614 1.233713,2.619993 2.583575,5.236651 2.999697,5.814792 l 0.756592,1.05116 0.03433,-0.961038 c 0.171872,-4.812148 1.207282,-9.342733 2.821119,-12.344219 1.22543,-2.27911 3.53323,-5.576867 4.246346,-6.067859 0.708695,-0.487962 2.084833,-0.39018 2.222517,0.157909 0.06062,0.241246 0.261034,0.429752 0.445404,0.418868 0.510512,-0.03012 1.484962,1.969102 1.908063,3.914728 0.204085,0.938483 0.725983,2.401853 1.159767,3.251942 0.879716,1.723989 1.671801,4.667184 2.424769,9.009875 0.276623,1.595379 0.594789,3.190778 0.707038,3.545328 0.265051,0.837187 0.446102,6.355421 0.299635,9.132811 -0.165328,3.135095 -0.389266,4.977527 -1.001342,8.23861 l -0.542392,2.88981 1.335427,0.27169 c 0.734496,0.14941 1.693074,0.50771 2.130204,0.79614 0.587711,0.3878 1.458192,0.49887 3.341211,0.42634 1.40054,-0.0539 3.294984,0.0353 4.209882,0.19831 1.950211,0.34749 6.995477,0.33914 7.056064,-0.0117 0.02297,-0.13294 -1.115604,-1.83345 -2.530145,-3.77892 -2.559793,-3.52064 -3.505074,-5.237848 -4.78777,-8.697921 -0.486873,-1.313358 -0.982105,-3.466292 -0.896481,-3.897269 0.0205,-0.103345 -0.07807,-1.052692 -0.219118,-2.109632 -0.515787,-3.864875 0.225884,-10.798281 1.606784,-15.020727 0.336731,-1.029634 0.813506,-2.828177 1.059498,-3.99675 0.42478,-2.017867 0.878095,-3.314104 2.417796,-6.913668 0.857775,-2.005331 1.190706,-2.548065 3.315879,-5.405467 1.107134,-1.488596 2.447084,-2.949121 3.662389,-3.991949 l 1.916482,-1.644495 1.426419,0.316584 c 1.768705,0.392564 2.469473,1.060539 3.833314,3.65394 1.114374,2.119034 2.539634,3.634407 2.914444,3.098762 0.39056,-0.558142 1.36735,-0.344313 3.15063,0.68971 1.03397,0.599532 2.26685,1.522042 2.73973,2.05002 1.47472,1.646553 3.17603,6.141636 4.13533,10.926118 0.94403,4.708324 0.99072,8.453975 0.1728,13.863088 -0.38047,2.516126 -0.37576,3.316362 0.0265,4.508575 1.48131,4.390183 1.5712,6.595412 0.50611,12.417081 l -0.67573,3.69346 0.77593,0.043 c 0.55037,0.0305 0.93646,-0.12987 1.32821,-0.55165 0.30378,-0.32701 0.87445,-0.86095 1.26821,-1.18646 0.39374,-0.32556 1.1736,-1.18306 1.73298,-1.90564 0.80735,-1.04288 1.60467,-1.71118 3.8667,-3.24101 2.77003,-1.873472 2.8705,-1.968143 3.59795,-3.393336 0.68357,-1.339209 3.53531,-5.811874 5.42267,-8.504892 0.42376,-0.604667 0.67051,-1.231717 0.5514,-1.401231 -0.38066,-0.541723 0.55479,-0.879954 1.73743,-0.628214 3.91545,0.833478 6.50121,1.594773 8.43671,2.483929 1.62693,0.747396 2.67551,2.152236 3.34742,4.484739 0.25167,0.873659 0.50916,1.66189 0.57223,1.751632 0.0631,0.08974 0.82897,0.375832 1.70204,0.635786 0.96278,0.286656 1.88983,0.778419 2.356,1.249741 0.42273,0.427409 1.48085,1.181637 2.35137,1.676049 1.39495,0.792271 1.62848,0.841729 1.96787,0.416745 0.21182,-0.265195 1.66636,-1.454523 3.23235,-2.64291 1.56598,-1.188382 3.3129,-2.533454 3.88205,-2.989027 0.56918,-0.455554 2.19988,-1.448279 3.62384,-2.205997 1.42397,-0.757716 3.77335,-2.073777 5.22085,-2.924562 1.4475,-0.850791 3.4518,-1.825102 4.45399,-2.165138 1.0022,-0.340029 2.27509,-0.936492 2.82865,-1.325462 0.63694,-0.44756 1.19184,-0.656807 1.51134,-0.569913 0.89988,0.244748 3.49268,3.820479 4.30046,5.930758 0.85594,2.236129 0.85608,2.98003 9.4e-4,5.175613 -0.71362,1.832185 -1.77029,3.293613 -3.47286,4.80311 -0.60171,0.53341 -1.50736,1.39549 -2.0126,1.91566 -0.50526,0.52016 -1.77018,1.5441 -2.81093,2.27541 -2.07788,1.46008 -2.17786,1.65546 -1.55007,3.02943 0.50357,1.10211 -0.0915,2.85902 -1.45372,4.29201 -0.79204,0.83318 -1.45695,1.25891 -3.3032,2.11494 -1.27134,0.58947 -2.80487,1.30161 -3.40783,1.58252 -2.16695,1.00957 -8.58339,2.00476 -11.51993,1.78674 -2.00028,-0.14851 -3.28075,-0.0311 -3.33392,0.30568 -0.011,0.0683 1.11804,0.4889 2.50846,0.93471 1.72443,0.55291 3.04357,1.18935 4.14976,2.00215 0.89194,0.65535 2.17837,1.35211 2.85872,1.54833 0.68036,0.19621 1.97566,0.78359 2.87847,1.30527 1.49076,0.86144 1.85884,1.22616 4.00969,3.97329 1.30253,1.66363 2.86512,3.47466 3.4724,4.02452 1.91295,1.73204 5.48328,8.17083 6.01479,10.84716 0.17225,0.86727 0.75582,2.02027 2.11961,4.18781 1.03507,1.64507 2.02415,3.36796 2.19799,3.82865 0.26583,0.70443 0.36584,0.78839 0.6291,0.52806 0.17474,-0.17278 0.46713,-0.16428 0.66187,0.0192 0.24365,0.22969 0.19851,0.53812 -0.14987,1.02319 -0.28376,0.39509 -0.46988,1.18322 -0.43181,1.82847 0.0368,0.62372 0.0306,2.03401 -0.0138,3.13397 -0.0444,1.09996 0.0125,4.11717 0.12645,6.70492 0.11396,2.58774 0.14486,5.33085 0.0687,6.0958 -0.0762,0.76495 -0.10682,1.97095 -0.0681,2.67997 0.11797,2.1589 -0.13497,7.74883 -0.40755,9.00602 -0.14118,0.65138 -0.54029,1.91984 -0.88678,2.81882 -1.31877,3.42143 -1.72493,4.77274 -2.46591,8.2042 -0.42,1.94521 -1.10374,4.39896 -1.51926,5.4528 -0.41555,1.05384 -1.11981,2.87935 -1.56503,4.05672 -0.44523,1.17736 -1.33838,3.11619 -1.98478,4.3085 -0.64641,1.19231 -1.17461,2.27235 -1.17379,2.40009 7.6e-4,0.12775 -0.30236,0.73386 -0.67377,1.34696 -0.3714,0.61309 -1.08984,2.28283 -1.59653,3.71052 -1.04671,2.94921 -1.98299,4.81343 -3.07492,6.12242 -0.41413,0.49643 -1.09756,1.79767 -1.51874,2.89164 -0.42117,1.09397 -1.43159,3.25107 -2.24536,4.79356 -0.81378,1.54248 -1.68624,3.61496 -1.93882,4.60551 -0.5104,2.00166 -2.21413,5.63688 -3.41205,7.28028 -0.4289,0.58839 -1.26957,2.5604 -1.86819,4.38223 -0.74202,2.25835 -1.4638,3.85728 -2.26809,5.02451 -0.91361,1.32588 -1.30778,2.27868 -1.74748,4.22406 -0.73577,3.25536 -1.14637,4.17214 -2.7277,6.09048 -1.19787,1.45317 -1.35302,1.81949 -1.88228,4.44443 -0.94793,4.70138 -1.69478,7.47917 -2.59059,9.63499 -0.46609,1.1217 -1.05254,2.59731 -1.30321,3.27915 -0.25072,0.68183 -0.83621,1.81588 -1.30121,2.52009 -0.46501,0.70422 -1.12241,1.81816 -1.4609,2.47544 -1.0727,2.08295 -4.50623,7.85 -4.79408,8.05227 -0.1521,0.10687 -0.3117,0.34099 -0.3547,0.52026 -0.043,0.17928 -0.78712,1.07727 -1.65365,1.99553 -3.49304,3.70164 -5.09682,5.43596 -5.32866,5.76242 -0.13409,0.18883 -1.50569,1.26625 -3.04799,2.39428 -2.44311,1.78687 -2.8592,2.1794 -3.23155,3.04869 -0.48101,1.12293 -1.53952,1.96368 -2.64688,2.10238 z"
       id="path1" /></g></svg>
