<?xml version="1.0" encoding="UTF-8" standalone="no"?>
<svg
   id="Layer_1"
   data-name="Layer 1"
   viewBox="0 0 500.00001 449.99998"
   version="1.1"
   sodipodi:docname="niehs.svg"
   width="500"
   height="450"
   xml:space="preserve"
   inkscape:version="1.4 (86a8ad7, 2024-10-11)"
   xmlns:inkscape="http://www.inkscape.org/namespaces/inkscape"
   xmlns:sodipodi="http://sodipodi.sourceforge.net/DTD/sodipodi-0.dtd"
   xmlns="http://www.w3.org/2000/svg"
   xmlns:svg="http://www.w3.org/2000/svg"
   xmlns:rdf="http://www.w3.org/1999/02/22-rdf-syntax-ns#"
   xmlns:cc="http://creativecommons.org/ns#"
   xmlns:dc="http://purl.org/dc/elements/1.1/"><sodipodi:namedview
     id="namedview76"
     pagecolor="#505050"
     bordercolor="#ffffff"
     borderopacity="1"
     inkscape:showpageshadow="0"
     inkscape:pageopacity="0"
     inkscape:pagecheckerboard="1"
     inkscape:deskcolor="#505050"
     inkscape:zoom="1.0928962"
     inkscape:cx="309.26999"
     inkscape:cy="255.74249"
     inkscape:window-width="3440"
     inkscape:window-height="1377"
     inkscape:window-x="-8"
     inkscape:window-y="-8"
     inkscape:window-maximized="1"
     inkscape:current-layer="Layer_1" /><defs
     id="defs1"><style
       id="style1">.cls-1{fill:#535557;}.cls-2{fill:#78a22f;}</style></defs><title
     id="title1">4color</title><path
     class="cls-1"
     d="M 394.04907,177.08356 326.2539,299.3279 H 77.755153 A 22.493961,22.493961 0 0 1 55.261191,276.83394 V 77.583812 A 22.493961,22.493961 0 0 1 77.755153,55.089851 H 326.50453 Z M 181.64091,232.03399 V 122.88502 H 163.4703 v 80.38928 h -0.31329 L 113.0312,122.82236 H 93.294157 v 109.21163 h 18.233263 v -80.26397 h 0.56392 l 49.68722,80.32663 z m 37.97031,0 V 122.88502 H 200.50075 V 232.03399 Z M 326.6925,122.88502 h -19.11047 v 43.42149 h -49.68722 v -43.42149 h -19.17312 v 109.14897 h 19.11047 v -49.18596 h 49.74987 v 49.24862 h 19.11047 z"
     id="path1"
     style="stroke-width:6.26573" /><path
     class="cls-1"
     d="M 343.23402,299.3279 410.90388,177.08356 343.48465,55.027194 h 16.85481 a 31.328637,31.328637 0 0 1 25.0629,14.724459 L 444.7388,177.08356 385.08908,284.35281 a 31.328637,31.328637 0 0 1 -25.06291,14.72447 z"
     id="path2"
     style="stroke-width:6.26573" /><path
     class="cls-2"
     d="M 343.23402,299.3279 410.90388,177.08356 343.42199,55.027194 h 16.91747 a 31.328637,31.328637 0 0 1 25.0629,14.724459 l 59.33645,107.331907 -59.64973,107.26925 a 31.328637,31.328637 0 0 1 -25.06291,14.72447 z"
     id="path3"
     style="stroke-width:6.26573" /><metadata
     id="metadata76"><rdf:RDF><cc:Work
         rdf:about=""><dc:title>4color</dc:title></cc:Work></rdf:RDF></metadata><path
     id="rect76"
     style="opacity:1;fill:#78a22f;fill-opacity:1;stroke-width:27.9407;stroke-linecap:round;stroke-linejoin:round"
     d="m 351.91539,315.79762 c -11.89503,-0.13415 -22.20813,4.66799 -26.13714,13.2536 -4.8357,10.56692 -5.0301,28.22232 25.07435,32.05822 29.3388,3.73834 21.28075,21.30093 3.40247,21.49142 -17.90924,0.19082 -17.91002,-13.61143 -17.91002,-13.61143 h -15.0443 c 0,25.96954 36.73328,33.49979 56.5958,17.91002 15.40263,-12.08927 5.5971,-34.87863 -19.70071,-38.32641 -30.73095,-4.18826 -21.49192,-20.0601 -6.0893,-20.0601 15.40263,0 16.47717,11.28399 16.47717,11.28399 h 15.22321 c 0,-11.82061 -8.23903,-20.06002 -23.46255,-23.10473 -2.85442,-0.57088 -5.68397,-0.86362 -8.42898,-0.89458 z m -296.041496,3.5814 v 73.43081 h 15.223218 v -50.32609 l 34.925468,50.32609 h 15.22322 v -73.43081 h -15.22322 v 50.3276 l -34.925468,-50.3276 z m 83.281936,0 v 73.43081 h 15.22322 v -73.43081 z m 32.23866,0 v 11.4629 17.91003 11.46137 32.59651 h 15.22322 41.90934 v -11.46139 h -41.90934 v -21.13512 h 38.8647 v -11.46137 h -38.8647 v -17.91003 h 41.90934 v -11.4629 h -41.90934 z m 71.64011,0 v 73.43081 h 15.22322 v -31.87931 h 35.28177 v 31.87931 h 15.22475 v -73.43081 h -15.22475 v 28.2979 h -35.28177 v -28.2979 z" /></svg>
