<?xml version="1.0" encoding="UTF-8" standalone="no"?>
<!-- Created with Inkscape (http://www.inkscape.org/) -->

<svg
   xmlns:dc="http://purl.org/dc/elements/1.1/"
   xmlns:cc="http://creativecommons.org/ns#"
   xmlns:rdf="http://www.w3.org/1999/02/22-rdf-syntax-ns#"
   xmlns:svg="http://www.w3.org/2000/svg"
   xmlns="http://www.w3.org/2000/svg"
   xmlns:sodipodi="http://sodipodi.sourceforge.net/DTD/sodipodi-0.dtd"
   xmlns:inkscape="http://www.inkscape.org/namespaces/inkscape"
   width="2397.2617"
   height="983.59821"
   viewBox="0 0 634.27548 260.2437"
   version="1.1"
   id="svg8"
   inkscape:version="0.92.4 (5da689c313, 2019-01-14)"
   sodipodi:docname="Toyota_Tacoma_2022-top.svg">
  <defs
     id="defs2">
    <inkscape:path-effect
       effect="mirror_symmetry"
       start_point="1500,0"
       end_point="1500,3000"
       center_point="1500,1500"
       id="path-effect865"
       is_visible="true"
       mode="vertical"
       discard_orig_path="false"
       fuse_paths="false"
       oposite_fuse="false" />
    <inkscape:path-effect
       effect="mirror_symmetry"
       start_point="396.875,-496.75002"
       end_point="396.875,296.99998"
       center_point="396.875,-99.87502"
       id="path-effect854"
       is_visible="true"
       mode="vertical"
       discard_orig_path="false"
       fuse_paths="false"
       oposite_fuse="false" />
    <inkscape:path-effect
       effect="mirror_symmetry"
       start_point="396.875,-496.75002"
       end_point="396.875,296.99998"
       center_point="396.875,-99.87502"
       id="path-effect843"
       is_visible="true"
       mode="vertical"
       discard_orig_path="false"
       fuse_paths="false"
       oposite_fuse="false" />
  </defs>
  <sodipodi:namedview
     id="base"
     pagecolor="#ffffff"
     bordercolor="#666666"
     borderopacity="1.0"
     inkscape:pageopacity="0.0"
     inkscape:pageshadow="2"
     inkscape:zoom="0.175"
     inkscape:cx="1051.3055"
     inkscape:cy="875.24473"
     inkscape:document-units="mm"
     inkscape:current-layer="layer1"
     showgrid="false"
     inkscape:pagecheckerboard="true"
     inkscape:showpageshadow="false"
     borderlayer="true"
     units="px"
     showguides="true"
     inkscape:guide-bbox="true"
     inkscape:snap-page="true"
     inkscape:snap-object-midpoints="true"
     inkscape:snap-global="false"
     inkscape:window-width="1600"
     inkscape:window-height="837"
     inkscape:window-x="-8"
     inkscape:window-y="-8"
     inkscape:window-maximized="1"
     fit-margin-top="0"
     fit-margin-left="0"
     fit-margin-right="0"
     fit-margin-bottom="0" />
  <metadata
     id="metadata5">
    <rdf:RDF>
      <cc:Work
         rdf:about="">
        <dc:format>image/svg+xml</dc:format>
        <dc:type
           rdf:resource="http://purl.org/dc/dcmitype/StillImage" />
        <dc:title></dc:title>
      </cc:Work>
    </rdf:RDF>
  </metadata>
  <g
     inkscape:label="Layer 1"
     inkscape:groupmode="layer"
     id="layer1"
     transform="translate(-79.737255,253.42542)">
    <path
       style="opacity:1;fill:#555555;fill-opacity:1;fill-rule:nonzero;stroke:none;stroke-width:3;stroke-linecap:round;stroke-linejoin:round;stroke-miterlimit:4;stroke-dasharray:none;stroke-dashoffset:0;stroke-opacity:1;paint-order:normal"
       d="m 82.471456,-123.30357 v -8.7571 l -2.734201,-2.88923 v -17.55087 l 2.595192,-3.16259 v -13.74283 l -2.015898,-2.69441 v -14.0317 c 2.484038,-5.2691 4.770276,-9.69618 13.096356,-10.95798 7.044525,-18.11039 12.781405,-34.47748 27.528555,-34.47748 1.63077,-2.64555 6.84028,-6.41459 11.22515,-6.41459 h 3.94705 c 1.28753,-1.9599 3.50414,-3.24993 6.03425,-3.24993 h 81.57332 c 2.53011,0 4.74673,1.29003 6.03426,3.24993 h 2.36988 c 4.77418,0 9.71491,3.64921 12.56202,7.21609 l 23.78666,3.20754 c 0,0 1.30115,-9.23031 6.14743,-16.83824 4.84628,-7.60794 11.42573,-9.76638 13.89787,-8.81962 2.47213,0.94678 0.35245,7.90125 -5.34542,25.41706 h 62.85456 c 0.1351,-1.6085 1.5284,-3.16002 3.05306,-3.16002 h 21.50771 c 2.67153,0 4.03471,1.71503 4.5253,3.01326 h 79.40239 c 0.45577,-2.35585 1.98863,-3.86128 3.86177,-3.86128 h 22.57952 c 2.0787,0 2.6674,1.65307 2.93521,3.44684 h 11.49233 c 6.35474,0 8.4699,2.95534 9.35448,6.94893 v -7.21611 h 4.5439 c 2.65607,-2.63493 7.43572,-7.06726 10.69081,-7.06726 h 9.14984 l 1.00614,-1.74305 h 3.15846 c 1.21547,-2.26224 3.60214,-3.79407 6.35982,-3.79407 h 81.57331 c 2.75759,0 5.14382,1.53194 6.35931,3.79407 h 3.80855 l 0.57049,2.12855 c 7.83953,2.96145 21.73727,4.42762 67.75247,4.67725 10.92247,0.0592 14.29938,5.77374 14.29938,14.29885 v 93.02999 93.029983 c 0,8.525113 -3.37691,14.23961 -14.29938,14.29885 -46.0152,0.249634 -59.91294,1.715797 -67.75247,4.677251 l -0.57049,2.1285467 h -3.80855 c -1.21549,2.2621346 -3.60172,3.794072 -6.35931,3.794072 h -81.57331 c -2.75768,0 -5.14435,-1.5318316 -6.35982,-3.794072 h -3.15846 l -1.00614,-1.7430487 h -9.14984 c -3.25509,0 -8.03474,-4.432326 -10.69081,-7.067259 h -4.5439 v -7.216113 c -0.88458,3.993594 -2.99974,6.948937 -9.35448,6.948937 h -11.49233 c -0.26781,1.793769 -0.85651,3.446833 -2.93521,3.446833 h -22.57952 c -1.87314,0 -3.406,-1.505426 -3.86177,-3.861276 h -79.40239 c -0.49059,1.298231 -1.85377,3.01326 -4.5253,3.01326 h -21.50771 c -1.52466,0 -2.91796,-1.551517 -3.05306,-3.160025 h -62.85456 c 5.69787,17.5158137 7.81755,24.4702807 5.34542,25.4170657 -2.47214,0.9467585 -9.05159,-1.2116858 -13.89787,-8.8196208 -4.84628,-7.6079349 -6.14743,-16.8382419 -6.14743,-16.8382419 l -23.78666,3.207544 c -2.84711,3.566874 -7.78784,7.2160868 -12.56202,7.2160868 h -2.36988 c -1.28753,1.959901 -3.50415,3.2499299 -6.03426,3.2499299 h -81.57332 c -2.53011,0 -4.74672,-1.2900289 -6.03425,-3.2499299 h -3.94705 c -4.38487,0 -9.59438,-3.7690428 -11.22515,-6.4145848 -14.74715,0 -20.48403,-16.367098 -27.528555,-34.477483 -8.32608,-1.261798 -10.612318,-5.688886 -13.096356,-10.957983 v -14.031701 l 2.015898,-2.694411 v -13.742828 l -2.595192,-3.162591 v -17.550871 l 2.734201,-2.88922 z"
       id="path858"
       inkscape:connector-curvature="0"
       sodipodi:nodetypes="ccccccccccscsscsccscccssccsscscccscccssccccsccccccsscccscccscssccsscccsccscsscscccccccccc" />
  </g>
</svg>
