<?xml version="1.0" encoding="UTF-8" standalone="no"?>
<!-- Created with Inkscape (http://www.inkscape.org/) -->

<svg
   xmlns:dc="http://purl.org/dc/elements/1.1/"
   xmlns:cc="http://creativecommons.org/ns#"
   xmlns:rdf="http://www.w3.org/1999/02/22-rdf-syntax-ns#"
   xmlns:svg="http://www.w3.org/2000/svg"
   xmlns="http://www.w3.org/2000/svg"
   xmlns:sodipodi="http://sodipodi.sourceforge.net/DTD/sodipodi-0.dtd"
   xmlns:inkscape="http://www.inkscape.org/namespaces/inkscape"
   width="1931.5338"
   height="616.06329"
   viewBox="0 0 511.05165 163.00009"
   version="1.1"
   id="svg8"
   inkscape:version="0.92.4 (5da689c313, 2019-01-14)"
   sodipodi:docname="Toyota_Corolla_2022-side.svg">
  <defs
     id="defs2">
    <inkscape:path-effect
       effect="mirror_symmetry"
       start_point="1500,0"
       end_point="1500,3000"
       center_point="1500,1500"
       id="path-effect865"
       is_visible="true"
       mode="vertical"
       discard_orig_path="false"
       fuse_paths="false"
       oposite_fuse="false" />
    <inkscape:path-effect
       effect="mirror_symmetry"
       start_point="396.875,-496.75002"
       end_point="396.875,296.99998"
       center_point="396.875,-99.87502"
       id="path-effect854"
       is_visible="true"
       mode="vertical"
       discard_orig_path="false"
       fuse_paths="false"
       oposite_fuse="false" />
    <inkscape:path-effect
       effect="mirror_symmetry"
       start_point="396.875,-496.75002"
       end_point="396.875,296.99998"
       center_point="396.875,-99.87502"
       id="path-effect843"
       is_visible="true"
       mode="vertical"
       discard_orig_path="false"
       fuse_paths="false"
       oposite_fuse="false" />
  </defs>
  <sodipodi:namedview
     id="base"
     pagecolor="#ffffff"
     bordercolor="#666666"
     borderopacity="1.0"
     inkscape:pageopacity="0.0"
     inkscape:pageshadow="2"
     inkscape:zoom="0.18319866"
     inkscape:cx="427.34127"
     inkscape:cy="139.77211"
     inkscape:document-units="mm"
     inkscape:current-layer="layer1"
     showgrid="false"
     inkscape:pagecheckerboard="true"
     inkscape:showpageshadow="false"
     borderlayer="true"
     units="px"
     showguides="true"
     inkscape:guide-bbox="true"
     inkscape:snap-page="true"
     inkscape:snap-object-midpoints="true"
     inkscape:snap-global="false"
     inkscape:window-width="1366"
     inkscape:window-height="713"
     inkscape:window-x="0"
     inkscape:window-y="0"
     inkscape:window-maximized="1"
     fit-margin-top="0"
     fit-margin-left="0"
     fit-margin-right="0"
     fit-margin-bottom="0" />
  <metadata
     id="metadata5">
    <rdf:RDF>
      <cc:Work
         rdf:about="">
        <dc:format>image/svg+xml</dc:format>
        <dc:type
           rdf:resource="http://purl.org/dc/dcmitype/StillImage" />
        <dc:title />
      </cc:Work>
    </rdf:RDF>
  </metadata>
  <g
     inkscape:label="Layer 1"
     inkscape:groupmode="layer"
     id="layer1"
     transform="translate(-64.816048,-95.992791)">
    <path
       style="fill:#555555;fill-opacity:1;stroke:none;stroke-width:0.99999994px;stroke-linecap:butt;stroke-linejoin:miter;stroke-opacity:1"
       d="m 1646.8457,83.644531 c -23.4099,-0.137887 -49.2267,4.86707 -57.041,16.744139 0,0 -20.4706,-4.094771 -118.7246,-10.917967 -98.254,-6.823192 -327.5136,-6.821487 -457.1543,21.835937 -129.64065,28.6574 -367.08791,170.57813 -367.08791,170.57813 0,0 -146.8432,1.08065 -239.80469,34.04882 -135.81877,48.16717 -154.57448,73.7575 -164.12695,81.94532 -9.55247,8.18781 -8.18777,38.21062 -17.74023,46.39843 -9.55247,8.18786 -15.01189,17.74124 -10.91797,24.56446 4.09392,6.82318 -4.09451,12.28033 -1.36524,19.10351 2.72928,6.82322 2.72971,55.95158 5.45899,61.41016 2.72928,5.45854 17.74023,32.75 17.74023,32.75 0,0 -15.01052,2.72936 -12.28125,13.64648 2.72928,10.91709 87.33664,16.37696 133.73438,16.37696 h 124.85156 a 137.98719,137.98719 0 0 0 128.42578,87.57617 137.98719,137.98719 0 0 0 127.46289,-85.26172 l 854.92771,-10.37891 a 137.98719,137.98719 0 0 0 131.1543,95.64063 137.98719,137.98719 0 0 0 134.6074,-108.10938 l 26.9668,-1.30273 c 0,0 218.3421,-17.73868 227.8946,-23.19727 9.5525,-5.45854 19.104,-20.46978 24.5625,-27.29297 5.4586,-6.82318 6.823,-103.71333 4.0937,-109.17187 -2.7293,-5.45858 -17.7402,-6.82227 -17.7402,-6.82227 0,0 1.3647,-5.2e-4 0,-19.10547 -1.3646,-19.10494 -5.459,-19.10546 -5.459,-19.10546 l -1.3633,-70.96094 c 0,0 6.8234,-10.91646 9.5528,-16.375 2.7292,-5.45855 1e-4,-42.30513 -4.0938,-47.76367 -4.0939,-5.45859 -177.4043,-30.02149 -177.4043,-30.02149 0,0 -199.2377,-98.25283 -292.0332,-109.16992 l 2.7305,-27.292968 c -3.1865,-0.224591 -6.4819,-0.349443 -9.8262,-0.369141 z"
       transform="matrix(0.26458333,0,0,0.26458333,8.6415078,73.862575)"
       id="path830"
       inkscape:connector-curvature="0" />
  </g>
</svg>
