<?xml version="1.0" encoding="UTF-8" standalone="no"?>
<!-- Created with Inkscape (http://www.inkscape.org/) -->

<svg
   width="4000"
   height="1200"
   viewBox="0 0 1058.3333 317.5"
   version="1.1"
   id="svg1"
   xml:space="preserve"
   inkscape:version="1.3 (0e150ed, 2023-07-21)"
   sodipodi:docname="airliner.svg"
   inkscape:export-filename="Airliner-With Landing Gear1.png"
   inkscape:export-xdpi="96"
   inkscape:export-ydpi="96"
   xmlns:inkscape="http://www.inkscape.org/namespaces/inkscape"
   xmlns:sodipodi="http://sodipodi.sourceforge.net/DTD/sodipodi-0.dtd"
   xmlns="http://www.w3.org/2000/svg"
   xmlns:svg="http://www.w3.org/2000/svg"><sodipodi:namedview
     id="namedview1"
     pagecolor="#505050"
     bordercolor="#ffffff"
     borderopacity="1"
     inkscape:showpageshadow="0"
     inkscape:pageopacity="0"
     inkscape:pagecheckerboard="1"
     inkscape:deskcolor="#505050"
     inkscape:document-units="mm"
     inkscape:zoom="0.125"
     inkscape:cx="1960"
     inkscape:cy="1040"
     inkscape:window-width="1600"
     inkscape:window-height="837"
     inkscape:window-x="-8"
     inkscape:window-y="-8"
     inkscape:window-maximized="1"
     inkscape:current-layer="layer1"
     showguides="true" /><defs
     id="defs1"><inkscape:path-effect
       effect="fillet_chamfer"
       id="path-effect90"
       is_visible="true"
       lpeversion="1"
       nodesatellites_param="F,0,0,1,0,0.079375,0,1 @ F,0,0,1,0,0.079375,0,1 @ F,0,0,1,0,0.079375,0,1 @ F,0,0,1,0,0.079375,0,1 @ F,0,0,1,0,0.079375,0,1"
       radius="0.3"
       unit="px"
       method="auto"
       mode="F"
       chamfer_steps="1"
       flexible="false"
       use_knot_distance="true"
       apply_no_radius="true"
       apply_with_radius="true"
       only_selected="false"
       hide_knots="false" /><inkscape:path-effect
       effect="fillet_chamfer"
       id="path-effect89"
       is_visible="true"
       lpeversion="1"
       nodesatellites_param="F,0,0,1,0,0.079375,0,1 @ F,0,0,1,0,0.079375,0,1 @ F,0,0,1,0,0.079375,0,1 @ F,0,0,1,0,0.079375,0,1"
       radius="0.3"
       unit="px"
       method="auto"
       mode="F"
       chamfer_steps="1"
       flexible="false"
       use_knot_distance="true"
       apply_no_radius="true"
       apply_with_radius="true"
       only_selected="false"
       hide_knots="false" /><inkscape:path-effect
       effect="fillet_chamfer"
       id="path-effect88"
       is_visible="true"
       lpeversion="1"
       nodesatellites_param="F,0,1,1,0,0.13229167,0,1 @ F,0,1,1,0,0.13229167,0,1 @ F,0,0,1,0,0,0,1 @ F,0,0,1,0,0,0,1"
       radius="0.5"
       unit="px"
       method="auto"
       mode="F"
       chamfer_steps="1"
       flexible="false"
       use_knot_distance="true"
       apply_no_radius="true"
       apply_with_radius="true"
       only_selected="true"
       hide_knots="false" /><inkscape:path-effect
       effect="fillet_chamfer"
       id="path-effect86"
       is_visible="true"
       lpeversion="1"
       nodesatellites_param="F,0,0,1,0,0.396875,0,1 @ F,0,0,1,0,0.396875,0,1 @ F,0,0,1,0,0.396875,0,1 @ F,0,0,1,0,0.396875,0,1"
       radius="1.5"
       unit="px"
       method="auto"
       mode="F"
       chamfer_steps="1"
       flexible="false"
       use_knot_distance="true"
       apply_no_radius="true"
       apply_with_radius="true"
       only_selected="false"
       hide_knots="false" /><inkscape:path-effect
       effect="fillet_chamfer"
       id="path-effect84"
       is_visible="true"
       lpeversion="1"
       nodesatellites_param="F,0,0,1,0,0.396875,0,1 @ F,0,0,1,0,0.396875,0,1 @ F,0,0,1,0,0.396875,0,1 @ F,0,0,1,0,0.396875,0,1"
       radius="1.5"
       unit="px"
       method="auto"
       mode="F"
       chamfer_steps="1"
       flexible="false"
       use_knot_distance="true"
       apply_no_radius="true"
       apply_with_radius="true"
       only_selected="false"
       hide_knots="false" /></defs><g
     inkscape:label="Layer 1"
     inkscape:groupmode="layer"
     id="layer1"><path
       id="path156"
       style="fill:#ff1a1a;fill-opacity:1;stroke:none;stroke-width:0.553199;stroke-linecap:round;stroke-linejoin:round;stroke-dasharray:none;stroke-opacity:0.199248;paint-order:markers stroke fill"
       d="M 60.144649 10.61899 C 58.986796 10.646042 57.818322 10.732161 56.606364 10.732161 L 17.823201 10.732161 L 75.015059 170.05215 C 73.021491 169.60265 71.395609 169.22467 70.457198 168.97987 C 62.492898 166.90217 54.528363 165.51703 38.253479 165.51703 L 14.360881 165.51703 L 42.566394 174.74334 C 42.10927 178.88953 42.448327 185.39082 43.447477 186.63977 C 44.832578 188.37116 63.531829 194.60407 99.198079 203.60721 C 134.86431 212.61034 171.22323 229.23174 234.24513 244.46777 C 297.26704 259.70386 350.2468 265.93674 388.68325 265.93674 L 439.93232 265.93674 L 439.93284 265.93674 C 441.75091 265.93678 446.05691 266.41269 451.88921 267.12685 L 451.88973 267.12685 C 457.73785 267.84294 465.12165 268.79827 473.06673 269.75304 C 480.9524 270.70057 489.39038 271.64692 497.4363 272.35857 C 501.52559 272.72032 505.50775 273.02043 509.26866 273.22983 C 512.93402 273.43393 516.38385 273.55115 519.50369 273.55281 C 519.52543 273.55282 519.5533 273.55488 519.575 273.55488 L 530.69784 273.55488 L 529.22351 282.29388 L 521.07414 284.63637 A 11.238567 11.238567 0 0 0 508.1018 292.85499 A 11.238567 11.238567 0 0 0 516.19123 306.53581 A 11.238567 11.238567 0 0 0 529.47414 299.63856 L 529.69583 299.63856 L 530.42085 301.0886 L 534.77149 300.84727 L 537.42973 299.27631 L 541.28169 299.81684 A 11.238567 11.238567 0 0 0 548.89363 306.53581 A 11.238567 11.238567 0 0 0 562.57496 298.44638 A 11.238567 11.238567 0 0 0 554.48553 284.76556 A 11.238567 11.238567 0 0 0 552.27533 284.45499 L 552.53888 280.70225 L 553.05151 279.84752 L 551.17721 277.06836 L 551.34257 276.94279 L 551.23612 275.74906 L 551.43559 273.55488 L 629.81324 273.55488 L 652.71778 278.22591 L 652.71778 283.42353 L 649.25546 283.42353 L 649.05237 284.94126 C 649.05237 284.94126 686.4094 289.82985 702.40829 289.82985 C 718.33692 289.82985 726.64747 289.82964 728.3788 287.75194 C 729.10194 286.88419 729.87661 279.1899 730.51872 270.36696 C 730.74964 270.33678 730.98223 270.30878 731.21273 270.27859 C 743.80592 268.629 755.71865 266.97551 760.92823 266.97544 L 760.92875 266.97544 L 765.22254 266.97544 L 829.49097 266.97544 C 872.75193 266.97544 904.03514 265.71464 928.90454 263.48211 L 928.89576 268.85542 L 927.57852 270.0662 L 927.33719 276.22913 L 927.46742 277.0973 L 921.23421 279.18968 L 921.17271 280.8211 L 922.32045 281.48566 L 925.51612 285.25184 A 11.238567 11.238567 0 0 0 918.81833 292.85499 A 11.238567 11.238567 0 0 0 926.90828 306.53581 A 11.238567 11.238567 0 0 0 940.5891 298.44638 A 11.238567 11.238567 0 0 0 933.14201 284.95315 L 932.47177 282.27114 L 932.48572 282.2112 L 933.01695 282.2112 L 933.8815 279.67337 L 935.43282 279.67337 L 936.27877 278.58558 L 941.77714 278.4042 L 941.77714 276.83323 L 935.916 276.5919 L 935.78991 276.01519 L 936.76298 275.26227 L 936.70148 274.11453 L 935.19098 273.50992 L 935.11346 272.38906 L 939.84031 271.67024 L 939.96691 271.42116 L 939.96381 271.41858 L 939.96381 262.4739 C 981.60799 257.83576 1002.1966 249.75048 1027.2138 238.75442 C 1042.2685 232.1373 1054.1473 219.8356 1030.8497 209.66731 C 1027.1541 208.05436 1022.1471 205.6372 1020.9232 204.75184 C 1019.6993 203.86647 1015.2915 199.54846 1011.3739 195.38601 C 1007.4562 191.22348 993.62507 183.17712 964.19179 177.6367 C 943.69221 173.77794 923.44703 171.3505 886.21516 170.17928 L 880.6894 162.74459 L 878.67712 162.74459 L 881.85625 169.99324 C 866.60239 169.57819 848.99313 169.3261 826.7206 169.3261 L 637.47737 169.3261 A 2.4394577 1.2197288 0 0 0 635.05788 168.26001 A 2.4394577 1.2197288 0 0 0 632.63839 169.3261 L 405.08173 169.3261 L 400.19004 162.74459 L 398.17776 162.74459 L 401.06441 169.3261 L 381.64079 169.3261 C 373.22467 163.01157 364.46356 156.52379 363.05898 155.8215 C 360.28878 154.43641 348.16945 155.47526 348.16945 155.47526 L 354.64502 169.3261 L 322.97357 169.3261 L 319.74431 164.98114 L 317.73203 164.98114 L 319.63785 169.3261 L 252.5975 169.3261 C 252.31069 169.3261 252.08134 169.32867 251.79445 169.32868 C 245.7255 165.66455 235.65634 165.96739 215.89225 155.12903 C 194.42325 143.35572 185.42048 132.96741 178.84128 126.04192 C 172.26207 119.11642 76.690057 22.505875 71.149662 15.926676 C 66.99437 10.992277 63.61821 10.537834 60.144649 10.61899 z M 927.7165 278.75715 L 927.88083 279.85424 L 928.8477 280.57977 L 929.27041 282.2112 L 929.81353 282.2112 L 929.81353 284.4369 A 11.238567 11.238567 0 0 0 927.06486 284.75523 L 924.31516 279.8532 L 927.7165 278.75715 z M 548.81043 279.02741 L 549.81967 279.27236 L 550.14626 279.76225 L 550.62582 284.49065 A 11.238567 11.238567 0 0 0 548.23785 284.96142 L 546.13049 282.6675 L 548.09574 281.72802 L 548.81043 279.02741 z M 522.7035 285.04668 L 527.31613 285.16502 L 528.48764 285.62029 L 528.36672 287.31218 L 527.95795 287.3344 L 526.31619 287.13441 A 11.238567 11.238567 0 0 0 522.7035 285.04668 z " /></g></svg>
