<?xml version="1.0" encoding="UTF-8" standalone="no"?>
<svg
   width="3e3"
   height="1100"
   version="1.1"
   viewBox="0 0 793.75 291.04"
   id="svg30"
   sodipodi:docname="ant.svg"
   inkscape:version="1.3 (0e150ed, 2023-07-21)"
   xmlns:inkscape="http://www.inkscape.org/namespaces/inkscape"
   xmlns:sodipodi="http://sodipodi.sourceforge.net/DTD/sodipodi-0.dtd"
   xmlns="http://www.w3.org/2000/svg"
   xmlns:svg="http://www.w3.org/2000/svg">
  <defs
     id="defs30" />
  <sodipodi:namedview
     id="namedview30"
     pagecolor="#505050"
     bordercolor="#ffffff"
     borderopacity="1"
     inkscape:showpageshadow="0"
     inkscape:pageopacity="0"
     inkscape:pagecheckerboard="1"
     inkscape:deskcolor="#505050"
     inkscape:zoom="0.39533333"
     inkscape:cx="1248.3137"
     inkscape:cy="313.65936"
     inkscape:current-layer="svg30" />
  <path
     d="m 172.32,69.512 c 0.87488,12.686 1.7498,21.216 3.7183,23.622 1.9685,2.406 11.592,2.6247 20.341,3.2808 8.7489,0.65613 17.716,2.8433 17.716,2.8433 l -6.7803,-16.404 z"
     fill="#1d1715"
     stroke-width="7.0445"
     style="stroke-linecap:round;stroke-linejoin:round;paint-order:markers stroke fill;fill:#554037;fill-opacity:1"
     id="path1" />
  <path
     d="m 172.32,69.513 c 0.26311,3.8152 0.52995,7.199 0.82283,10.209 3.066,2.5508 6.5879,4.6781 9.7549,6.9289 9.0695,5.5828 19.403,10.629 30.266,10.356 l -5.8478,-14.153 z"
     fill-opacity="0.07"
     stroke-width="7.0445"
     style="stroke-linecap:round;stroke-linejoin:round;paint-order:markers stroke fill"
     id="path2" />
  <path
     d="m 183.69,47.202 c -9.8424,11.592 -12.686,19.466 -11.592,22.747 1.0936,3.2808 19.466,18.81 38.057,21.435 18.591,2.6247 -26.465,-44.182 -26.465,-44.182 z"
     fill="#1d1715"
     stroke-width="7.0445"
     style="stroke-linecap:round;stroke-linejoin:round;paint-order:markers stroke fill;fill:#554037;fill-opacity:1"
     id="path3" />
  <path
     d="m 183.69,47.203 c -1.9842,2.337 -3.6697,4.5154 -5.1101,6.543 1.745,3.0114 4.3638,5.7828 5.9131,8.6966 5.864,8.3413 10.854,17.238 15.467,26.317 3.3194,1.2113 6.7548,2.1385 10.198,2.6245 18.591,2.6247 -26.467,-44.181 -26.467,-44.181 z"
     fill-opacity="0.07"
     stroke-width="7.0445"
     style="stroke-linecap:round;stroke-linejoin:round;paint-order:markers stroke fill"
     id="path4" />
  <path
     d="m 213,26.205 c -15.748,6.3429 -30.184,19.904 -30.621,21.653 -0.43743,1.7498 9.405,13.779 17.279,27.778 7.874,13.998 10.717,22.31 11.811,23.622 1.0936,1.3124 15.092,3.0621 26.247,0.87488 C 248.871,97.94578 213,26.20488 213,26.20488 Z"
     fill="#1d1715"
     stroke-width="7.0445"
     style="stroke-linecap:round;stroke-linejoin:round;paint-order:markers stroke fill;fill:#554037;fill-opacity:1"
     id="path5" />
  <path
     d="m 213,26.206 c -2.9379,1.1834 -5.8302,2.6173 -8.5944,4.1794 0.5503,1.6264 1.4072,3.1891 2.3437,4.5115 10.914,20.815 15.663,44.027 23.011,66.168 2.6749,-0.14001 5.3875,-0.42773 7.9532,-0.93061 11.155,-2.1871 -24.714,-73.928 -24.714,-73.928 z"
     fill-opacity="0.07"
     stroke-width="7.0445"
     style="stroke-linecap:round;stroke-linejoin:round;paint-order:markers stroke fill"
     id="path6" />
  <path
     d="m 265.05,8.2714 c -32.478,0.15483 -55.987,17.167 -55.677,18.868 0.30928,1.7012 7.127,11.313 14.782,35.373 7.6552,24.059 10.499,37.839 12.03,39.151 1.531,1.3123 26.465,0.21853 42.213,-4.8118 15.748,-5.0306 -13.348,-88.58 -13.348,-88.58 z"
     fill="#1d1715"
     stroke-width="7.0445"
     style="stroke-linecap:round;stroke-linejoin:round;paint-order:markers stroke fill;fill:#554037;fill-opacity:1"
     id="path7" />
  <path
     d="m 265.05,8.2708 c -3.4976,0.01645 -6.8839,0.23994 -10.155,0.60721 -2.7302,23.312 -1.5605,47.117 3.2999,70.069 1.825,7.1287 3.8406,14.659 8.0042,20.809 4.2902,-0.76706 8.499,-1.724 12.198,-2.9055 15.748,-5.0306 -13.347,-88.58 -13.347,-88.58 z"
     fill-opacity="0.07"
     stroke-width="7.0445"
     style="stroke-linecap:round;stroke-linejoin:round;paint-order:markers stroke fill"
     id="path8" />
  <path
     d="m 326.76,68.898 c -8.9981,-0.89042 -10.57,-0.53424 -6.5488,-13.217 4.0212,-12.682 10.261,-30.088 -17.578,-43.079 -27.839,-12.991 -41.139,-6.805 -41.758,-4.9491 -0.61862,1.8559 -3.0932,23.199 -0.30934,50.11 2.7839,26.911 10.208,41.139 12.991,41.449 2.7839,0.30912 18.559,-3.7119 27.839,-8.9703 9.2796,-5.2584 28.682,-3.8866 28.682,-3.8866 z"
     fill="#1d1715"
     stroke-width="7.0445"
     style="stroke-linecap:round;stroke-linejoin:round;paint-order:markers stroke fill;fill:#554037;fill-opacity:1"
     id="path9" />
  <path
     d="m 574.11,46.765 c 12.686,-3.0621 36.308,-8.7489 53.805,-10.499 17.497,-1.7501 26.684,-1.7498 38.932,-0.43761 12.248,1.3123 41.994,7.4366 67.804,10.061 25.809,2.6246 42.869,5.2493 52.056,13.123 9.1863,7.874 4.8119,12.248 -8.7489,5.6868 -13.561,-6.5617 -27.121,-8.7489 -43.307,-10.499 -16.186,-1.7501 -49.868,-6.1242 -59.492,-7.8739 -9.6237,-1.7498 -8.7488,-3.0621 -21.435,-3.937 -12.686,-0.87488 -45.931,1.3123 -76.99,10.499 -31.058,9.1863 -2.6246,-6.1242 -2.6246,-6.1242 z"
     fill="#2e221c"
     stroke-width="7.0445"
     style="stroke-linecap:round;stroke-linejoin:round;paint-order:markers stroke fill;fill:#413732;fill-opacity:1"
     id="path10" />
  <path
     d="m 506.16,24.665 c -17.631,-1.8559 -8.6609,-10.517 -35.262,-18.559 -26.601,-8.0423 -53.203,2.7839 -62.173,11.445 -8.9702,8.6609 -9.2796,14.847 -14.229,10.517 -4.9491,-4.3304 -28.148,-2.1652 -32.169,3.4025 -4.0212,5.5678 -11.754,23.199 -12.991,26.292 -1.2373,3.0932 -2.1652,3.0932 -2.1652,-0.61863 0,-3.7119 -0.61864,-15.466 -4.9491,-22.58 -4.3305,-7.1144 -11.135,12.682 -13.301,17.012 -2.1652,4.3305 -8.6609,13.301 -8.3516,18.25 0.30929,4.9491 1.2373,13.919 4.6398,17.631 3.4025,3.7119 26.911,4.9491 47.016,-0.61864 20.106,-5.5677 39.902,-12.991 47.326,-24.745 7.4236,-11.754 7.1143,-7.7329 9.8982,-6.805 2.7838,0.92797 8.3516,-4.3304 11.445,-3.4025 3.0932,0.92792 14.538,9.2796 27.839,5.5677 13.301,-3.7118 14.538,-9.2796 18.559,-10.517 4.0211,-1.2373 17.631,-2.1652 17.631,-2.1652 z"
     fill="#ae331a"
     stroke-width="7.0445"
     style="stroke-linecap:round;stroke-linejoin:round;paint-order:markers stroke fill;fill:#c24228;fill-opacity:1"
     id="path11" />
  <path
     d="m 486.92,39.076 c -6.0474,0.08454 -9.4056,1.5579 -13.852,2.9112 -7.1142,2.1652 -37.427,-3.7116 -42.376,-1.2371 -4.9491,2.4746 -20.723,8.3522 -27.528,16.085 -6.805,7.733 -34.336,17.938 -47.327,16.392 -12.665,-1.5077 -20.055,11.933 -33.027,9.7464 0.62273,1.7879 1.3952,3.3802 2.4061,4.4831 3.4025,3.7119 26.91,4.9492 47.015,-0.61852 20.106,-5.5677 39.901,-12.991 47.325,-24.745 7.4236,-11.754 7.1157,-7.7319 9.8996,-6.8041 2.7838,0.92797 8.3528,-4.3328 11.446,-3.4048 3.0932,0.92793 14.537,9.2816 27.838,5.5698 13.301,-3.7118 14.538,-9.2809 18.559,-10.518 4.0211,-1.2373 17.631,-2.1649 17.631,-2.1649 l 0.1757,-2.8601 -3.5779,-1.1605 c -6.3797,-1.2759 -10.978,-1.7248 -14.607,-1.674 z"
     fill-opacity="0.15"
     stroke-width="7.0445"
     style="stroke-linecap:round;stroke-linejoin:round;paint-order:markers stroke fill"
     id="path12" />
  <path
     d="m 648.88,38.316 c -23.917,0.4096 -54.063,6.9723 -72.367,11.948 l -0.94482,2.9508 c 0.41509,-0.12025 0.72459,-0.19657 1.1634,-0.32614 31.058,-9.1863 64.304,-11.373 76.989,-10.498 12.686,0.87488 11.813,2.1857 21.436,3.9355 9.6238,1.7498 43.306,6.1268 59.491,7.8765 16.185,1.7498 29.746,3.9366 43.307,10.498 7.5398,3.6483 12.227,3.9063 13.336,2.0713 -8.024,-4.8856 -23.72,-12.103 -50.08,-15.415 -41.776,-5.2493 -52.277,-8.7466 -76.992,-12.246 -4.6342,-0.65613 -9.8195,-0.88894 -15.339,-0.79445 z"
     fill-opacity="0.15"
     stroke-width="7.0445"
     style="stroke-linecap:round;stroke-linejoin:round;paint-order:markers stroke fill"
     id="path13" />
  <path
     d="M 501.49,23.58 C 514.191,0.841 532.986,2.583 545.234,9.144 c 12.248,6.5616 29.746,25.372 31.933,29.309 2.1872,3.937 2.6246,12.686 4.8118,20.122 2.1872,7.4366 5.6868,21.435 4.8118,34.558 -0.87488,13.123 -5.2493,22.31 -7.874,24.934 -2.6246,2.6247 -3.0621,0.4376 -4.3744,-4.3744 -1.3123,-4.8119 -6.9991,-11.373 -21.872,-15.31 -14.873,-3.937 -27.996,-14.436 -35.87,-23.184 -7.8739,-8.7488 -28.603,-27.82 -15.31,-51.618 z"
     fill="#251d1b"
     stroke-width="7.0445"
     style="stroke-linecap:round;stroke-linejoin:round;paint-order:markers stroke fill;fill:#554037;fill-opacity:1"
     id="path14" />
  <path
     d="m 529.36,4.8319 c -0.25641,-0.00312 -0.51721,0.027486 -0.77461,0.0329 -9.2257,5.0391 19.27,18.85 31.086,26.592 10.881,7.1287 20.792,39.031 24.498,35.547 -0.74663,-3.2581 -1.5266,-6.1699 -2.1904,-8.427 -2.1872,-7.4365 -2.625,-16.186 -4.8122,-20.123 -2.1872,-3.937 -19.683,-22.746 -31.932,-29.307 -4.5931,-2.4606 -10.107,-4.2447 -15.875,-4.3129 z"
     fill="#ffffff"
     fill-opacity="0.03"
     stroke-width="7.0445"
     style="stroke-linecap:round;stroke-linejoin:round;paint-order:markers stroke fill"
     id="path15" />
  <path
     d="m 570.17,50.264 c 20.578,0.11036 20.9,1.0025 28.323,4.2504 7.4237,3.2478 13.919,7.1143 14.847,8.9702 0.92791,1.856 0.15483,2.7839 0.15483,2.7839 19.642,7.733 52.474,21.178 75.878,36.27 23.403,15.092 25.153,32.152 24.934,40.901 -0.21852,8.7488 -5.9055,12.467 -8.3114,0 -2.4059,-12.467 -4.3744,-25.153 -25.372,-37.62 -20.997,-12.467 -50.743,-26.028 -70.209,-34.558 -1.9685,1.5311 -5.2493,0 -8.7489,-3.2808 -3.4995,-3.2808 -9.1863,-13.998 -21.216,-10.717 -12.78,3.4855 -15.916,-7.0293 -10.28,-6.999 z"
     fill="#2e221c"
     stroke-width="7.0445"
     style="stroke-linecap:round;stroke-linejoin:round;paint-order:markers stroke fill;fill:#413732;fill-opacity:1"
     id="path16" />
  <path
     d="m 521.32,43.843 c -3.7588,-11.12 1.5466,-18.25 13.61,-13.61 12.063,4.6398 12.682,27.22 2.7839,29.695 -9.8982,2.4745 -12.729,-5.2425 -16.394,-16.085 z"
     fill="#1d1715"
     stroke-width="7.0445"
     style="stroke-linecap:round;stroke-linejoin:round;paint-order:markers stroke fill"
     id="path17" />
  <path
     d="m 441.56,48.077 c -17.074,16.631 -22.747,33.246 -24.934,38.932 -2.1872,5.6867 -5.2493,17.06 8.7488,12.686 13.998,-4.3745 29.746,-12.686 37.62,-18.81 7.874,-6.1242 6.3429,-4.1557 6.1242,4.8119 -0.21854,8.9676 1.9685,37.839 3.937,42.213 1.9685,4.3744 5.468,3.937 4.1557,6.5616 -1.3123,2.6246 -1.0936,4.8118 0.43759,10.061 1.531,5.2494 0.65615,7.874 -0.87487,18.154 -1.5311,10.28 1.0936,15.967 1.3123,24.059 0.21852,8.0927 0.21852,12.03 1.0936,13.123 0.87489,1.0936 2.1872,-1.0936 2.6247,1.531 0.4376,2.6246 -3.937,5.6868 0,8.5301 3.937,2.8434 -4.3744,2.8434 -0.21853,9.1863 4.1557,6.3429 4.5932,5.0305 5.468,1.7498 0.87488,-3.2808 3.937,-7.2178 5.6867,-8.3114 1.7498,-1.0936 0.87488,-2.8433 -1.3123,-2.8433 -2.18718,0 1.0936,-1.9685 -0.65618,-5.0306 -1.7498,-3.0621 -4.1557,-4.8119 -3.7182,-6.999 0.43761,-2.1873 -0.6562,-7.4366 -2.8434,-15.967 -2.1872,-8.5304 -0.21853,-22.31 2.1872,-27.121 2.406,-4.8118 3.0621,-12.686 0.87489,-17.498 -2.1872,-4.8118 -2.1872,-5.9055 -0.4376,-9.6238 1.7498,-3.7182 -5.6867,-57.086 -7.6553,-69.991 -1.9685,-12.905 -12.03,-13.561 -27.34,-6.1242 -2.8912,-3.0708 -2.1963,-11.155 -10.28,-3.2808 z"
     fill="#281d18"
     stroke-width="7.0445"
     style="stroke-linecap:round;stroke-linejoin:round;paint-order:markers stroke fill;fill:#413732;fill-opacity:1"
     id="path18" />
  <path
     d="m 391.41,75.394 c 5.3141,3.4701 4.9491,21.652 2.7839,24.127 -2.1652,2.4745 -4.0212,-0.61863 -3.0932,4.9491 0.92798,5.5677 -3.0932,10.517 -0.61863,12.063 2.4745,1.5466 6.805,1.2373 8.9703,18.559 2.1652,17.322 -0.30913,22.58 0.92793,26.911 1.2373,4.3305 -2.7838,1.856 -2.4745,8.6609 0.30913,6.805 0.0971,11.358 -1.7589,23.422 -1.8559,12.063 -1.8559,14.538 -4.6398,14.229 -2.7839,-0.30913 -1.2373,4.6398 -0.61864,13.61 0.61864,8.9703 0.92792,37.118 -0.61863,34.953 -1.5466,-2.1652 -0.61863,13.301 0.92792,17.94 1.5466,4.6398 4.0211,10.517 2.4746,12.373 -1.5466,1.856 -12.682,-1.5466 -16.085,0 -3.4025,1.5466 -2.7839,-3.7118 -0.30913,-5.877 2.4745,-2.1652 -4.0211,-4.9491 -0.61864,-11.135 3.4025,-6.1864 4.9491,-11.445 3.0932,-12.063 -1.8559,-0.61864 1.856,-16.703 0.92798,-32.788 -0.92798,-16.085 0,-25.055 0,-34.953 0,-9.8982 5.4707,-17.235 5.78,-21.875 0.30913,-4.6398 0.92798,-6.4957 -0.92793,-12.373 -1.856,-5.877 -11.445,-25.673 -9.2796,-33.097 2.1653,-7.4237 0.30914,-5.2584 0,-10.517 -0.30912,-5.2584 2.4746,-8.9703 -2.4745,-8.6609 -4.9491,0.30913 -5.6326,-12.049 -5.2584,-20.724 0.50788,-11.772 15.26,-12.715 22.889,-7.733 z"
     fill="#281d18"
     stroke-width="7.0445"
     style="stroke-linecap:round;stroke-linejoin:round;paint-order:markers stroke fill;fill:#413732;fill-opacity:1"
     id="path19" />
  <path
     d="m 328.72,79.208 c -33.436,1.0426 -120.92,13.351 -139.3,9.7946 -5.626,-1.0889 -11.023,-3.2542 -15.864,-5.7542 0.61216,4.9678 1.3588,8.5188 2.477,9.8854 1.9685,2.406 11.592,2.6238 20.341,3.28 5.6321,0.42223 11.321,1.474 14.683,2.1734 0.15221,0.27948 0.29661,0.53533 0.40856,0.66959 1.0226,1.2272 13.328,2.8355 24.041,1.2513 0.25027,0.5846 0.47676,0.98464 0.6753,1.1548 1.347,1.1546 20.804,0.44309 36.188,-3.1693 0.44914,0.43211 0.85066,0.68089 1.1832,0.71784 2.7838,0.30914 18.558,-3.7134 27.838,-8.9718 9.2795,-5.2584 28.683,-3.8844 28.683,-3.8844 z"
     fill-opacity="0.15"
     stroke-width="7.0445"
     style="stroke-linecap:round;stroke-linejoin:round;paint-order:markers stroke fill"
     id="path20" />
  <path
     d="m 350.19,64.65 c -6.812,-0.0052 -17.059,7.3151 -16.179,14.509 0.88058,7.1938 3.38,17.182 -2.6867,19.122 -6.0667,1.9397 -20.152,-14.69 -53.66,-29.62 -33.508,-14.93 -54.727,-21.709 -59.96,-21.109 -5.2331,0.60073 -1.4281,3.327 -4.0378,3.846 -2.6098,0.51887 -11.129,1.0032 -36.47,23.457 -25.341,22.453 -50.163,47.517 -56.216,49.893 -6.0531,2.3769 -0.73825,4.3996 -1.36,5.5131 -0.62193,1.1134 -49.487,48.152 -61.62,52.031 -12.133,3.8793 -32.096,9.3154 -40.001,15.47 -7.9049,6.1546 -17.422,16.736 -15.578,19.742 1.8443,3.0061 1.8988,4.755 5.0622,0.93642 3.1636,-3.8185 10.003,-16.067 14.731,-18.84 4.7278,-2.7732 34.494,-9.609 36.441,-10.326 1.9471,-0.7172 10.002,-2.0623 32.125,-22.446 22.123,-20.384 34.408,-33.458 37.243,-33.766 2.8352,-0.30748 5.3829,4.2088 37.83,-28.97 32.447,-33.178 42.996,-45.761 46.043,-46.294 3.047,-0.53259 2.5069,3.2043 5.3421,2.8971 2.8352,-0.30692 8.731,-0.70961 24.6,9.9562 15.869,10.666 36.089,27.542 56.433,34.348 20.344,6.8063 34.656,9.6428 39.965,4.4444 5.3086,-5.1986 30.123,-14.239 30.096,-24.352 -0.0329,-12.658 -5.0973,-20.429 -18.143,-20.442 z"
     fill="#281d18"
     stroke-width="7.0445"
     style="stroke-linecap:round;stroke-linejoin:round;paint-order:markers stroke fill;fill:#413732;fill-opacity:1"
     id="path21" />
  <path
     d="m 451.23,3.2827 c -2.063,0.00521 -4.0846,0.13012 -6.0805,0.30363 0.0274,0.01645 0.0571,0.027486 0.0823,0.043936 6.1021,3.7775 34.309,14.923 50.014,17.285 -4.6356,-3.7098 -6.4319,-9.3965 -24.342,-14.811 -6.6503,-2.0106 -13.3,-2.8425 -19.674,-2.8232 z m -68.02,22.492 c -4.6185,0.03842 -9.7132,0.7218 -13.795,1.9039 3.0573,0.72603 7.02,1.3166 12.408,1.3166 5.8781,0 9.5902,-0.41235 12.138,-1.2797 -2.0731,-1.3612 -6.136,-1.9775 -10.751,-1.9408 z m -43.165,7.2637 c -0.73896,0.03842 -1.5078,0.55104 -2.2841,1.3591 2.6114,4.5306 5.7236,8.2415 8.217,10.913 -0.73521,-3.7712 -1.8836,-7.6819 -3.7482,-10.745 -0.67664,-1.1116 -1.4145,-1.5673 -2.1848,-1.5265 z"
     fill="#ffffff"
     fill-opacity="0.08"
     stroke-width="7.0445"
     style="stroke-linecap:round;stroke-linejoin:round;paint-order:markers stroke fill"
     id="path22" />
  <path
     d="m 497.17,40.132 c 0.42388,15.967 13.689,28.461 19.635,35.067 7.8739,8.7489 20.997,19.247 35.87,23.184 14.873,3.937 20.558,10.499 21.871,15.31 1.0388,3.8092 1.5463,5.9251 3.0076,5.3598 -1.0739,-6.8112 -3.2799,-18.827 -5.5045,-18.605 -3.0932,0.30912 -5.2584,-12.374 -20.724,-14.539 -14.304,-2.0027 -48.166,-24.113 -54.154,-45.778 z"
     fill-opacity="0.15"
     stroke-width="7.0445"
     style="stroke-linecap:round;stroke-linejoin:round;paint-order:markers stroke fill"
     id="path23" />
  <path
     d="m 525.22,29.231 c -4.8762,1.5568 -6.4062,7.194 -3.8986,14.613 3.6649,10.842 6.4934,18.56 16.392,16.085 0.63312,-0.15813 1.2237,-0.39917 1.7705,-0.71213 -0.18722,-5.2e-5 -0.39478,0.01104 -0.63839,0.03842 -8.1048,0.90058 -19.997,-19.754 -13.625,-30.022 z"
     fill-opacity="0.15"
     stroke-width="7.0445"
     style="stroke-linecap:round;stroke-linejoin:round;paint-order:markers stroke fill"
     id="path24" />
  <ellipse
     transform="matrix(0.98898888,-0.14798983,0.30043111,0.95380352,0,0)"
     cx="507.75058"
     cy="120.93956"
     rx="2.5410028"
     ry="4.5064831"
     fill="#ffffff"
     fill-opacity="0.08"
     stroke-width="8.03339"
     style="stroke-linecap:round;stroke-linejoin:round;paint-order:markers stroke fill"
     id="ellipse24" />
  <path
     d="m 581.75,53.47 c -3.3617,-0.0329 -7.9726,0.4151 -13.699,1.0243 1.3973,2.4299 5.4686,4.6595 12.399,2.7693 12.03,-3.2808 17.716,7.436 21.215,10.717 3.4996,3.2808 6.7792,4.8111 8.7476,3.28 19.466,8.5301 49.214,22.092 70.211,34.559 20.997,12.467 22.966,25.154 25.372,37.621 1.3016,6.7441 3.56,8.7229 5.3967,7.7602 -3.4855,-28.761 -11.592,-39.779 -32.633,-51.061 -21.343,-11.445 -63.409,-30.933 -66.812,-31.242 -3.4025,-0.30912 -12.682,-9.587 -19.487,-12.99 -3.4025,-1.7013 -6.4194,-2.3987 -10.711,-2.4373 z"
     fill-opacity="0.15"
     stroke-width="7.0445"
     style="stroke-linecap:round;stroke-linejoin:round;paint-order:markers stroke fill"
     id="path25" />
  <path
     d="m 287.57,6.9146 c -6.5758,0.42332 -8.5585,2.1855 0.89095,6.6054 24.915,11.654 29.895,32.142 35.288,24.211 -0.34849,-8.676 -5.0581,-17.638 -21.113,-25.131 -5.6188,-2.6221 -10.617,-4.4332 -15.066,-5.6861 z"
     fill="#ffffff"
     fill-opacity="0.08"
     stroke-width="7.0445"
     style="stroke-linecap:round;stroke-linejoin:round;paint-order:markers stroke fill"
     id="path26" />
  <path
     d="m 213.05,55.144 c -2.2966,0.01093 -3.7734,0.64137 -6.6168,2.4458 -5.6867,3.6089 -58.618,60.259 -70.866,66.383 -12.248,6.1242 -12.246,8.3117 -30.181,25.372 -17.935,17.06 -33.466,31.496 -42.215,35.215 -8.7488,3.7183 -34.556,8.5292 -42.43,13.56 -5.0918,3.2531 -12.445,13.914 -17.217,21.3 0.95096,1.6057 1.5717,1.9018 3.9581,-0.97888 3.1636,-3.8185 10.001,-16.067 14.729,-18.84 4.7278,-2.7732 34.496,-9.611 36.443,-10.328 1.9471,-0.71718 10.002,-2.0628 32.125,-22.446 22.123,-20.384 34.405,-33.458 37.241,-33.765 2.8352,-0.30747 5.3839,4.2089 37.831,-28.97 32.447,-33.178 42.995,-45.762 46.042,-46.295 3.047,-0.5326 2.5076,3.2042 5.3428,2.897 2.8352,-0.30692 8.7311,-0.7094 24.6,9.9564 15.869,10.666 36.088,27.543 56.433,34.349 20.344,6.8062 34.659,9.6418 39.967,4.4433 5.196,-5.0883 29.017,-13.859 30.002,-23.712 -9.1641,0.65537 -21.7,12.684 -31.665,16.15 -10.061,3.4995 -19.684,4.8139 -38.932,-4.3724 -19.247,-9.1863 -60.806,-39.81 -73.054,-41.122 -6.1242,-0.65613 -9.2402,-1.2564 -11.537,-1.2428 z"
     fill-opacity="0.15"
     stroke-width="7.0445"
     style="stroke-linecap:round;stroke-linejoin:round;paint-order:markers stroke fill"
     id="path27" />
  <path
     d="m 376.28,73.275 c -4.223,1.2938 -7.525,4.3994 -7.7602,9.8514 -0.37446,8.6749 0.30857,21.033 5.2576,20.724 4.9491,-0.30912 2.1651,3.4012 2.4742,8.6596 0.30912,5.2584 2.1652,3.0945 0,10.518 -2.1652,7.4236 7.4251,27.221 9.2811,33.098 1.8559,5.877 1.2369,7.7312 0.92781,12.371 -0.30912,4.6398 -5.7798,11.978 -5.7798,21.876 0,9.8982 -0.92797,18.869 0,34.954 0.92798,16.085 -2.7837,32.167 -0.92781,32.786 1.856,0.61864 0.30967,5.8781 -3.0927,12.065 -3.4025,6.1863 3.093,8.9715 0.61853,11.137 -2.4748,2.1652 -3.0932,7.4228 0.30911,5.8762 0.86495,-0.39314 2.2336,-0.46451 3.8134,-0.386 0.22127,-3.7295 0.37445,-8.2416 0.0164,-11.696 -0.65619,-6.3429 3.4997,-12.248 2.4061,-18.59 -1.0936,-6.3429 1.0924,-31.497 0.8739,-52.931 -0.21855,-21.435 4.5944,-19.686 6.5629,-37.402 1.9684,-17.716 -6.345,-25.15 -8.3135,-33.024 -1.9685,-7.874 -4.1557,-13.562 -2.6246,-21.655 1.5311,-8.0927 -1.3114,-8.9673 -5.9046,-10.498 -4.4205,-1.4735 -4.5665,-21.543 1.8613,-27.733 z"
     fill-opacity="0.15"
     stroke-width="7.0445"
     style="stroke-linecap:round;stroke-linejoin:round;paint-order:markers stroke fill"
     id="path28" />
  <path
     d="m 450.46,49.089 c -4.3536,5.8202 -20.328,27.254 -24.977,34.749 -5.3343,8.6002 16.314,-22.617 26.867,-32.718 -0.17242,0.08235 -0.33658,0.151 -0.51064,0.23554 -0.57377,-0.6094 -0.99106,-1.4267 -1.379,-2.2671 z"
     fill-opacity="0.15"
     stroke-width="7.0445"
     style="stroke-linecap:round;stroke-linejoin:round;paint-order:markers stroke fill"
     id="path29" />
  <path
     d="m 468.58,72.146 c -3.4025,-0.30913 -26.91,16.394 -35.725,21.034 -7.2376,3.8093 -14.05,5.0036 -17.03,2.0599 l 2.88,5.3002 c 1.5991,0.26629 3.7464,0.0692 6.6735,-0.84551 13.998,-4.3745 29.747,-12.685 37.621,-18.809 7.874,-6.1242 6.3418,-4.1554 6.1231,4.8122 -0.21852,8.9676 1.9698,37.837 3.9383,42.212 1.9685,4.3744 5.4663,3.9382 4.1539,6.5629 -1.3123,2.6247 -1.0942,4.812 0.43706,10.061 1.531,5.2493 0.65707,7.8737 -0.87395,18.154 -1.5311,10.28 1.095,15.965 1.3137,24.058 0.21853,8.0926 0.21743,12.032 1.0924,13.126 0.87489,1.0936 2.1872,-1.0953 2.6246,1.5293 0.43761,2.6247 -3.937,5.6887 0,8.532 2.6326,1.9014 -0.20096,2.5396 -1.1321,4.6448 l 4.9002,9.02 c 0.13671,0.005 0.25696,-0.0384 0.36897,-0.11365 -0.25807,-2.2672 -0.97668,-9.2408 -0.19602,-11.063 0.92798,-2.1652 -2.9382,-5.5667 -1.8556,-7.4226 1.0826,-1.8559 -0.46506,-5.876 -2.321,-7.4226 -1.8559,-1.5466 -0.46395,-7.1156 -1.8556,-20.88 -1.3919,-13.765 1.2383,-21.189 1.3931,-27.375 0.15484,-6.1863 -2.4758,-11.444 -1.0838,-15.31 1.3919,-3.8664 -2.938,-5.7225 -4.3299,-9.4343 -1.3919,-3.7118 -3.4021,-32.788 -2.7834,-40.521 0.61863,-7.7329 -0.93017,-11.599 -4.3327,-11.908 z m -52.755,23.093 -0.96757,-1.7762 c -0.0164,0.11586 -0.0164,0.22841 -0.0329,0.34317 0.25476,0.55862 0.59288,1.032 0.99874,1.4329 z"
     fill-opacity="0.15"
     stroke-width="7.0445"
     style="stroke-linecap:round;stroke-linejoin:round;paint-order:markers stroke fill"
     id="path30" />
</svg>
