<?xml version="1.0" encoding="UTF-8" standalone="no"?>
<svg
   width="165"
   height="128"
   version="1.1"
   viewBox="0 0 43.65625 33.866667"
   id="svg4"
   sodipodi:docname="asteroid.svg"
   inkscape:version="1.3 (0e150ed, 2023-07-21)"
   inkscape:export-filename="asteroid.png"
   inkscape:export-xdpi="96"
   inkscape:export-ydpi="96"
   xmlns:inkscape="http://www.inkscape.org/namespaces/inkscape"
   xmlns:sodipodi="http://sodipodi.sourceforge.net/DTD/sodipodi-0.dtd"
   xmlns="http://www.w3.org/2000/svg"
   xmlns:svg="http://www.w3.org/2000/svg">
  <defs
     id="defs4" />
  <sodipodi:namedview
     id="namedview4"
     pagecolor="#505050"
     bordercolor="#ffffff"
     borderopacity="1"
     inkscape:showpageshadow="0"
     inkscape:pageopacity="0"
     inkscape:pagecheckerboard="1"
     inkscape:deskcolor="#505050"
     inkscape:zoom="1.28"
     inkscape:cx="92.96875"
     inkscape:cy="107.03125"
     inkscape:current-layer="svg4" />
  <path
     d="m 0.87306229,21.754477 c 0.42940231,5.587974 5.53877471,5.700425 7.51694831,7.649944 1.9781174,1.949412 7.5753354,5.582566 12.3410074,2.499883 4.765726,-3.082522 6.445414,-4.709284 9.484847,-5.227858 3.03911,-0.518574 4.967111,-1.478953 8.667954,-6.561109 3.70068,-5.082321 -0.148843,-5.295491 3.507405,-11.5327636 C 46.047464,2.3453018 28.246667,-0.67358748 22.952798,1.43704 17.659363,3.5475052 7.1863461,5.6094762 4.2853154,7.3353361 1.3845001,9.0614119 0.44363819,16.167101 0.87306229,21.754533 Z"
     fill="#a36948"
     style="stroke-width:0.0540632;paint-order:markers stroke fill"
     id="path1" />
  <path
     d="m 25.672156,16.075679 c -0.114754,-0.0081 -0.232396,-0.0063 -0.352994,0.0067 -1.929624,0.206749 -4.272778,1.929623 -4.824114,0.620266 -0.551337,-1.30941 -4.134917,0.758075 -5.23759,1.516149 -1.102673,0.758075 0.275669,2.618822 -0.206744,2.894489 -0.482411,0.275665 -0.482427,1.516095 -3.101227,1.10262 -2.618766,-0.413498 -3.5836331,1.722886 -3.7214391,3.445773 -0.117904,1.473708 0.6162125,3.344728 -0.1593891,3.468749 0.1122527,0.08833 0.2232797,0.177261 0.3211449,0.273704 1.9781193,1.949412 7.5753373,5.582568 12.3410093,2.499883 4.765724,-3.082466 6.445413,-4.709228 9.484847,-5.227802 0.607237,-0.103614 1.169226,-0.227153 1.710776,-0.395408 -8.00676,-2.538863 -2.134145,-5.727997 -2.817018,-6.752495 -0.646109,-0.969136 -1.716181,-3.331373 -3.437392,-3.45253 z"
     fill="#9f5c3f"
     style="stroke-width:0.0540632;paint-order:markers stroke fill"
     id="path2" />
  <path
     d="M 30.43026,4.3250421 C 25.14012,3.7372671 25.143904,4.9963451 24.136762,5.5836871 23.129834,6.1710832 19.689521,6.5906152 18.430931,7.0101453 17.172338,7.4296754 11.886039,8.4366018 10.291715,9.3596239 8.6973925,10.282644 6.515726,12.632123 11.298643,11.625197 16.08156,10.618268 20.445055,11.205645 22.45891,10.534362 24.472764,9.86306 27.829169,7.2618634 29.003801,7.5135815 30.17854,7.7653104 35.720614,4.9127634 30.43026,4.3249881 Z"
     fill="#955e40"
     style="stroke-width:0.0540632;paint-order:markers stroke fill"
     id="path3" />
  <path
     d="m 31.167141,0.97744861 c 5.392263,0.93669909 4.685116,4.68365809 2.559459,6.55894699 -2.343152,2.0674862 -1.929624,3.0322974 -5.030852,3.0322974 -3.101226,0 -2.343152,3.583634 -3.997107,4.548445 -1.653957,0.964813 9e-6,5.375398 -3.859249,6.615715 -3.73328,1.199987 -4.628568,10.202267 -2.187775,11.100798 0.701308,-0.190768 1.398832,-0.490008 2.079217,-0.930104 4.765724,-3.082467 6.445414,-4.709229 9.484848,-5.227803 3.03911,-0.518574 4.967111,-1.478954 8.667953,-6.561111 C 42.584316,15.032314 38.734793,14.819142 42.39104,8.5818697 44.827614,4.4252755 37.737279,1.709897 31.167518,0.97734044 Z"
     fill-opacity="0.19"
     style="stroke-width:0.0540632;paint-order:markers stroke fill"
     id="path4" />
</svg>
