<?xml version="1.0" encoding="UTF-8" standalone="no"?>
<!-- Created with Inkscape (http://www.inkscape.org/) -->

<svg
   width="130"
   height="128"
   viewBox="0 0 34.395832 33.866666"
   version="1.1"
   id="svg1"
   inkscape:version="1.3 (0e150ed, 2023-07-21)"
   sodipodi:docname="bacteria.svg"
   xmlns:inkscape="http://www.inkscape.org/namespaces/inkscape"
   xmlns:sodipodi="http://sodipodi.sourceforge.net/DTD/sodipodi-0.dtd"
   xmlns="http://www.w3.org/2000/svg"
   xmlns:svg="http://www.w3.org/2000/svg">
  <sodipodi:namedview
     id="namedview1"
     pagecolor="#505050"
     bordercolor="#ffffff"
     borderopacity="1"
     inkscape:showpageshadow="0"
     inkscape:pageopacity="0"
     inkscape:pagecheckerboard="1"
     inkscape:deskcolor="#505050"
     inkscape:document-units="mm"
     inkscape:zoom="2.6003435"
     inkscape:cx="87.103876"
     inkscape:cy="86.911594"
     inkscape:current-layer="layer1" />
  <defs
     id="defs1" />
  <g
     inkscape:label="Layer 1"
     inkscape:groupmode="layer"
     id="layer1">
    <path
       id="path2"
       style="fill:#ff7777;fill-opacity:0.994671;stroke-width:0.24174;stroke-linecap:round;stroke-linejoin:round"
       d="M 7.3891122,0.81443917 C 6.8437235,0.82872419 6.4208852,1.0006089 6.4510619,1.3954231 6.538847,2.5439732 7.7047506,2.7265361 8.1885318,6.3835989 8.2575976,6.9056865 9.1185794,6.8110309 9.584116,6.3839253 10.149237,5.865434 8.9961375,3.0152187 9.5528057,2.0002326 9.9181176,1.3341477 8.4303083,0.78716861 7.3891122,0.81443917 Z M 14.579881,2.1749179 c -0.256579,-0.00499 -0.479313,0.079001 -0.611029,0.2938128 -0.602132,0.9819934 0.154935,2.3568312 -1.615601,4.0166008 -0.273728,0.2566033 0.319877,0.912782 1.130447,0.8182902 C 14.245471,7.2148183 14.981895,4.2297142 16.02786,3.7336964 16.845021,3.3461819 15.496237,2.1927633 14.579881,2.1749179 Z M 1.9461434,3.8376429 C 1.0870334,3.8878042 0.05557939,5.9773053 0.93788179,6.1227833 1.9209953,6.2848829 4.5409133,8.3963111 5.1389722,8.1117914 5.6316098,7.8774255 5.9901681,7.210413 5.5979822,6.9788148 H 5.5978767 C 2.8503946,5.357061 3.0888619,4.3491947 2.2048504,3.8919356 2.1219735,3.8490672 2.0350169,3.8324538 1.9461434,3.8376429 Z M 18.850551,5.1431966 c -0.466352,0.015641 -0.882947,0.2596326 -1.006047,0.8163925 -0.215105,0.9728902 -1.493629,2.4613436 -1.216683,3.0629481 0.228127,0.4955573 0.890648,0.8624722 1.127178,0.4732422 1.65635,-2.7268672 2.228162,-1.6138571 2.615007,-2.5308805 C 20.8125,5.9159648 19.740861,5.1133341 18.850551,5.1431966 Z m 4.677813,2.7915903 c -0.129776,-0.00466 -0.244429,0.048071 -0.329762,0.1764775 -0.551483,0.8298507 -3.55258,2.3517836 -3.538721,3.0139266 0.0114,0.54546 0.472425,1.146181 0.844645,0.883546 v 1.07e-4 c 2.606943,-1.839332 3.428019,-1.208042 4.207943,-1.826343 C 25.370537,9.6608113 24.22915,7.9599559 23.528364,7.9347869 Z M 5.6754679,12.169612 c -0.072619,-0.0032 -0.1449184,0.0179 -0.2131647,0.06926 -2.6207641,2.52881 -3.2583037,1.535614 -4.1498551,1.954643 -1.6171543,0.760065 0.5010223,2.935714 1.5768057,2.023799 C 3.6493112,15.57303 6.3679163,13.757575 6.3337265,13.096171 6.3108432,12.653478 5.9901532,12.183399 5.6754679,12.169612 Z m 21.1666431,0.211161 c -0.190148,2.05e-4 -0.387848,0.06003 -0.579086,0.199671 -0.638343,0.466145 0.331716,0.668039 -1.471383,2.427039 -0.257252,0.251178 0.151471,0.666924 0.578454,0.73722 0.518394,0.08535 1.432402,-1.15072 2.146298,-1.501323 0.984224,-0.483372 0.241891,-1.863806 -0.674283,-1.862607 z M 8.6867589,15.318585 c -0.081954,8.6e-5 -0.1647301,0.01023 -0.2429991,0.03163 -0.5067283,0.138713 -0.8216859,1.643471 -1.3242133,2.259945 -0.8366052,1.026313 1.1606582,2.190952 1.8328774,0.988336 C 9.3380844,17.908534 8.3721651,18.129986 9.27702,15.779076 9.3820041,15.506333 9.041892,15.318224 8.6867589,15.318589 Z m 19.9206541,2.64326 c -0.167908,0.0036 -0.304002,0.03476 -0.390906,0.109957 -0.327241,0.283173 -0.45831,0.851303 -0.107638,0.930881 h 1.07e-4 c 2.456736,0.556739 1.735211,1.236029 2.523079,1.299651 1.373267,0.110887 1.517331,-2.196633 0.199038,-2.07282 -0.618642,0.0581 -1.624009,-0.280617 -2.22368,-0.267669 z m -13.630088,1.183897 c -0.06042,0.0029 -0.12056,0.02331 -0.178376,0.06483 -2.591487,1.861044 -3.417709,1.236547 -4.192445,1.861342 -0.7747396,0.624794 0.991801,2.884919 1.531052,2.058587 0.544533,-0.83443 3.532806,-2.381337 3.513419,-3.043341 -0.01348,-0.460135 -0.34738,-0.957006 -0.67365,-0.941423 z m 2.972813,2.69945 c -0.08566,0.0019 -0.166356,0.03509 -0.234462,0.107744 -2.18117,2.328231 -2.512189,1.121491 -3.079182,1.939458 -0.988288,1.425739 1.581866,3.014336 2.26511,1.502801 0.410404,-0.90794 1.967446,-2.101962 1.820016,-2.74763 -0.09489,-0.415541 -0.465432,-0.808786 -0.771482,-0.802373 z m 15.026093,2.219252 c -1.097842,0.0081 -1.977465,1.214253 -4.199615,0.446569 -0.354629,-0.122513 -0.658342,0.708547 -0.196825,1.381564 0.433736,0.632502 3.417878,-0.107794 4.344362,0.586256 0.926483,0.694048 1.30855,-2.336506 0.159081,-2.411331 -0.03592,-0.0024 -0.07159,-0.0033 -0.107003,-0.0031 z m -13.426623,0.301509 c -0.113143,0.0094 -0.213335,0.06307 -0.285906,0.172893 -2.03317,3.077944 -3.161762,2.732702 -3.742608,3.727427 -0.580852,0.994729 3.111486,1.967534 3.054304,0.811331 -0.05718,-1.156201 2.225422,-3.216007 1.943677,-3.929312 -0.174074,-0.440704 -0.629958,-0.810459 -0.969467,-0.782339 z m 5.414927,2.722117 c -0.487216,-0.01183 -0.997668,0.271698 -0.849389,0.641602 1.758245,3.189218 0.633365,3.545833 0.805532,4.515777 0.31229,1.759365 2.964736,0.281517 2.364735,-0.994768 -0.423908,-0.901715 -1.467954,-3.999507 -2.115409,-4.138891 -0.06667,-0.01434 -0.135862,-0.02203 -0.205469,-0.02372 z" />
    <path
       id="path16"
       style="fill:#ff9494;fill-opacity:0.994671;stroke-width:0.24174;stroke-linecap:round;stroke-linejoin:round"
       d="M 7.3891122,0.81443917 C 6.8437239,0.82872368 6.4208852,1.0006093 6.4510619,1.3954231 c 0.012144,0.1589007 0.048444,0.2983415 0.0972,0.4320218 C 6.7602538,1.4591562 7.2234871,1.3057622 7.6315841,1.2824102 8.1089446,1.2571039 8.590634,1.3127045 9.0493072,1.447502 9.2256896,1.5028815 9.40588,1.5723989 9.5808479,1.6524436 9.39146,1.1548313 8.241422,0.79211579 7.3891122,0.81443917 Z M 14.579881,2.1749179 c -0.256578,-0.00499 -0.479313,0.079001 -0.611029,0.2938128 -0.602132,0.9819923 0.154934,2.3568331 -1.615601,4.0166008 -0.136166,0.1276477 -0.05711,0.3540557 0.15592,0.5378662 0.339666,-0.3425684 0.655334,-0.7177875 0.845278,-1.1658685 0.333632,-0.7020982 0.224964,-1.534888 0.459221,-2.2744926 0.103837,-0.4906553 0.545155,-0.94913 1.076365,-0.946484 0.423527,4.895e-4 0.833911,0.1327712 1.200131,0.3424125 C 15.773774,2.5763943 15.110131,2.1852441 14.579881,2.1749179 Z M 1.9461434,3.8376429 C 1.1973774,3.8813615 0.31867751,5.4733855 0.68918988,5.9781434 0.7551213,5.7758719 0.83985845,5.5786146 0.94399622,5.401271 1.2412099,4.8832242 1.6979852,4.3715198 2.3250323,4.2990778 2.4771985,4.2946652 2.6184339,4.325435 2.7505177,4.3786718 2.597453,4.1789922 2.4391097,4.0131074 2.2048504,3.8919356 2.1219737,3.8490672 2.0350167,3.8324538 1.9461434,3.8376429 Z M 18.850551,5.1431966 c -0.466352,0.015641 -0.882947,0.2596331 -1.006047,0.8163925 -0.215105,0.9728891 -1.493629,2.4613442 -1.216683,3.0629481 0.0191,0.041467 0.04512,0.080252 0.06979,0.1195493 0.285625,-0.8117342 0.8676,-1.5032859 1.120538,-2.3325804 C 17.92015,6.1620669 18.507017,5.6358095 19.161863,5.60558 19.537843,5.584326 19.915638,5.668679 20.252986,5.8347688 19.947793,5.3988356 19.37203,5.1257051 18.850551,5.1431966 Z M 4.6049013,6.3251946 c 0.3038131,0.2814492 0.6279166,0.5338281 0.9756862,0.7648411 0.055206,0.044579 0.1158912,0.082233 0.1764773,0.1199707 C 5.7409708,7.116107 5.6922293,7.0344708 5.5979822,6.9788148 H 5.5978767 C 5.2057258,6.7473403 4.8873379,6.5318408 4.6049013,6.3251946 Z M 23.528364,7.9347869 c -0.129776,-0.00466 -0.244429,0.048071 -0.329762,0.1764775 -0.551483,0.8298496 -3.55258,2.3517836 -3.538721,3.0139266 0.0034,0.160826 0.04886,0.324036 0.116597,0.470921 0.07865,-0.133931 0.179788,-0.257442 0.291072,-0.360754 0.874595,-0.821223 1.958034,-1.3749258 2.866967,-2.1541003 C 23.227205,8.8580864 23.403125,8.4418885 23.808155,8.399068 24.010008,8.386224 24.201242,8.43136 24.37849,8.5131352 24.111025,8.1865103 23.789293,7.9441583 23.528364,7.9347869 Z M 5.6754679,12.169612 c -0.072619,-0.0032 -0.1449184,0.0179 -0.2131647,0.06926 -2.6207615,2.528801 -3.2583045,1.535612 -4.1498551,1.954639 -0.60208213,0.28298 -0.68533195,0.762061 -0.49843792,1.205087 0.12139621,-0.273569 0.33393262,-0.509459 0.60164682,-0.64508 0.5067955,-0.304344 1.1191244,-0.177937 1.6728456,-0.286539 0.753645,-0.177397 1.3627182,-0.657793 1.9376674,-1.15132 0.3233005,-0.229094 0.5508929,-0.636858 0.9785327,-0.68314 0.068781,-0.0033 0.1349932,0.0021 0.1988269,0.01361 C 6.0772228,12.385768 5.8792964,12.178548 5.6754679,12.169618 Z m 21.1666431,0.211161 c -0.190148,2.05e-4 -0.387848,0.06003 -0.579086,0.199671 -0.638341,0.466145 0.331714,0.668041 -1.471383,2.427039 -0.165771,0.161857 -0.05354,0.390988 0.160454,0.553048 0.24216,-0.275026 0.50551,-0.533459 0.712339,-0.838005 0.206158,-0.256777 0.298906,-0.579179 0.327549,-0.902945 0.06888,-0.569923 0.640245,-0.938646 1.178625,-0.976634 0.212341,-0.01191 0.419888,0.02958 0.612925,0.108268 -0.207952,-0.320694 -0.554506,-0.570947 -0.941423,-0.570442 z M 8.6867589,15.318585 c -0.081954,8.6e-5 -0.1647301,0.01023 -0.2429991,0.03163 -0.5067278,0.138713 -0.8216864,1.643471 -1.3242133,2.259945 -0.2507187,0.30757 -0.2437823,0.626473 -0.09741,0.891454 0.015437,-0.03055 0.027722,-0.06223 0.046386,-0.09151 0.4128213,-0.522442 0.6043339,-1.170594 0.8986222,-1.759187 0.1772139,-0.411367 0.5063742,-0.836827 0.9884425,-0.869421 0.1034692,-0.0054 0.2102357,-2.05e-4 0.3163733,0.01255 0.00218,-0.0057 0.00285,-0.0092 0.00506,-0.01497 0.1049842,-0.272743 -0.2351284,-0.460852 -0.5902609,-0.460487 z m 19.9206541,2.64326 c -0.167908,0.0036 -0.304004,0.03476 -0.390906,0.109957 -0.309776,0.268058 -0.438385,0.78634 -0.154341,0.908953 0.181931,-0.307972 0.486939,-0.540936 0.852449,-0.55758 0.538605,-0.01426 1.062938,0.124618 1.590722,0.20958 0.376512,0.09869 0.783655,0.01306 1.158804,0.09773 -0.124612,-0.315243 -0.397271,-0.541895 -0.833048,-0.500968 -0.618642,0.0581 -1.624011,-0.280617 -2.22368,-0.267669 z m -13.630088,1.183897 c -0.06042,0.0029 -0.12056,0.02331 -0.178376,0.06483 -2.591485,1.861042 -3.41771,1.236547 -4.192445,1.861342 -0.233517,0.188321 -0.233622,0.525696 -0.108586,0.881859 0.231517,-0.462072 0.763433,-0.65237 1.239454,-0.750083 0.898189,-0.141756 1.753034,-0.495949 2.518652,-0.981589 0.366516,-0.187844 0.652254,-0.537495 1.072358,-0.612294 0.06755,-0.0045 0.132603,0.0012 0.196087,0.01234 -0.128397,-0.272394 -0.3349,-0.486545 -0.547144,-0.476405 z m 2.972813,2.69945 c -0.08566,0.0019 -0.166356,0.03509 -0.234462,0.107744 -2.181168,2.328229 -2.51219,1.121493 -3.079182,1.939458 -0.250335,0.36114 -0.271082,0.732281 -0.153285,1.06129 0.04802,-0.146287 0.113315,-0.287037 0.205047,-0.413047 0.192452,-0.326811 0.558212,-0.507208 0.92677,-0.543874 0.687632,-0.04935 1.240067,-0.517532 1.718387,-0.971574 0.310066,-0.24397 0.520742,-0.664869 0.950281,-0.715081 0.108819,-0.0093 0.216515,0.0062 0.320378,0.03595 -0.158585,-0.285646 -0.424374,-0.505672 -0.653934,-0.500863 z m 15.026093,2.219252 c -1.097842,0.0081 -1.977467,1.214253 -4.199615,0.446569 -0.292279,-0.100968 -0.54283,0.446317 -0.366026,1.018488 0.123298,-0.322673 0.406861,-0.596785 0.768214,-0.566224 0.487956,0.139286 0.98571,0.277401 1.505117,0.260816 0.964877,0.0031 1.769211,-0.691164 2.732028,-0.699059 0.08294,-0.0051 0.164449,0.0039 0.243946,0.02119 -0.112879,-0.268448 -0.299259,-0.460666 -0.576661,-0.478723 -0.03592,-0.0024 -0.07159,-0.0033 -0.107003,-0.0031 z m -13.426623,0.301509 c -0.113143,0.0094 -0.213335,0.06307 -0.285906,0.172893 -0.589475,0.892385 -1.09476,1.476971 -1.540857,1.909942 -0.181874,0.329062 -0.421435,0.637293 -0.780022,0.777492 -0.08783,0.03257 -0.177472,0.05439 -0.267666,0.07063 -0.506662,0.331533 -0.89565,0.526819 -1.154063,0.969361 -0.115836,0.198373 -0.05711,0.395056 0.103315,0.574975 0.208771,-0.330621 0.54743,-0.581158 0.874481,-0.786874 1.069799,-0.617361 1.92124,-1.547939 2.60984,-2.561349 0.187385,-0.306832 0.44081,-0.667944 0.841589,-0.667536 0.154468,-0.0023 0.302141,0.03135 0.441826,0.08687 -0.215876,-0.327521 -0.566463,-0.569272 -0.842537,-0.546404 z m 5.414927,2.722117 c -0.487216,-0.01183 -0.997668,0.271698 -0.849389,0.641602 0.05334,0.09675 0.09596,0.182887 0.144111,0.27452 0.256106,-0.318222 0.705052,-0.463518 1.107254,-0.456164 0.09385,-0.0064 0.185097,0.0062 0.273783,0.02909 -0.168418,-0.258432 -0.329062,-0.434933 -0.47029,-0.465336 -0.06667,-0.01434 -0.135862,-0.02203 -0.205469,-0.02372 z m 0.09836,4.079432 c -0.07916,0.403108 -0.210115,0.695421 -0.142216,1.077947 0.0093,0.05262 0.02711,0.09318 0.04049,0.140107 0.04255,-0.204949 0.09057,-0.410409 0.124714,-0.611663 0.01601,-0.205388 0.0049,-0.407212 -0.02298,-0.606391 z" />
    <path
       style="fill:#ff5252;fill-opacity:0.994671;stroke-width:0.142804;stroke-linecap:round;stroke-linejoin:round"
       d="M 13.026104,6.1902827 C 8.3001488,4.3867004 3.8278807,6.0672552 3.0193551,10.106067 c -0.8085255,4.038813 5.4813269,5.620826 9.3127189,8.037804 3.831392,2.416978 4.825105,5.244555 8.761472,9.267663 3.936367,4.023109 8.681986,0.806918 9.008857,-2.994783 0.326871,-3.801702 -1.424359,-7.794569 -6.42891,-11.540967 C 18.668938,9.1293875 17.752058,7.9938654 13.026104,6.1902827 Z"
       id="path1"
       sodipodi:nodetypes="zzzzzzz" />
    <path
       id="path17"
       style="fill:#ff6969;fill-opacity:0.994671;stroke-width:0.142804;stroke-linecap:round;stroke-linejoin:round"
       d="m 9.5825352,5.4732747 c -3.2894847,-0.098911 -5.9567962,1.60369 -6.5631897,4.6327963 -0.1718745,0.85856 -0.020584,1.605296 0.3572771,2.273438 -0.0062,-0.01851 -0.00957,-0.03382 -0.016235,-0.05282 C 2.2072303,9.0368733 8.5132017,5.4139614 13.680416,6.4551808 13.45884,6.3665258 13.266279,6.2819302 13.026058,6.1902537 11.84457,5.7393586 10.679029,5.506245 9.5825352,5.4732747 Z" />
    <path
       id="path18"
       style="fill:#ff4848;fill-opacity:0.994671;stroke-width:0.142804;stroke-linecap:round;stroke-linejoin:round"
       d="m 29.81524,21.021631 c 0.495861,2.565018 -0.955491,5.620255 -3.98898,5.892492 -2.717692,0.243896 -6.000446,-1.410013 -8.804791,-4.298924 1.113089,1.405086 2.288343,2.973291 4.072054,4.796307 3.936363,4.023104 8.682018,0.806959 9.008887,-2.994739 0.0962,-1.118826 0.0065,-2.254351 -0.28717,-3.395136 z" />
  </g>
</svg>
