<?xml version="1.0" encoding="UTF-8" standalone="no"?>
<svg
   width="3000"
   height="750"
   viewBox="0 0 793.74998 198.43752"
   version="1.1"
   id="svg1432"
   sodipodi:docname="book.svg"
   inkscape:version="1.3 (0e150ed, 2023-07-21)"
   xmlns:inkscape="http://www.inkscape.org/namespaces/inkscape"
   xmlns:sodipodi="http://sodipodi.sourceforge.net/DTD/sodipodi-0.dtd"
   xmlns="http://www.w3.org/2000/svg"
   xmlns:svg="http://www.w3.org/2000/svg">
  <sodipodi:namedview
     id="namedview1"
     pagecolor="#505050"
     bordercolor="#ffffff"
     borderopacity="1"
     inkscape:showpageshadow="0"
     inkscape:pageopacity="0"
     inkscape:pagecheckerboard="1"
     inkscape:deskcolor="#505050"
     inkscape:zoom="0.16"
     inkscape:cx="1762.5"
     inkscape:cy="475"
     inkscape:current-layer="svg1432" />
  <defs
     id="defs1426" />
  <metadata
     id="metadata1429" />
  <g
     id="layer1"
     transform="translate(0,-98.562483)">
    <path
       style="opacity:1;fill:#9f4b22;fill-opacity:1;fill-rule:nonzero;stroke:none;stroke-width:31.85046577;stroke-linecap:round;stroke-linejoin:round;stroke-miterlimit:4;stroke-dasharray:none;stroke-dashoffset:0;stroke-opacity:1;paint-order:normal"
       d="m 79.950782,186.80537 -61.764735,64.87814 378.688963,6.97609 378.68898,-6.97609 -61.76473,-64.87814 -318.478,2.51168 z"
       id="path2008" />
    <path
       style="opacity:1;fill:#eee9e7;fill-opacity:1;fill-rule:nonzero;stroke:none;stroke-width:31.85046577;stroke-linecap:round;stroke-linejoin:round;stroke-miterlimit:4;stroke-dasharray:none;stroke-dashoffset:0;stroke-opacity:1;paint-order:normal"
       d="M 735.70238,181.88062 682.32143,148.17221 C 601.64681,143.33067 563.28859,122.00052 489.43921,115.4269 415.58982,108.85328 396.8736,152.02458 396.8736,152.02458 l -30.03755,69.34305 100.16215,-9.63099 z"
       id="path1993" />
    <path
       id="path1995"
       d="m 58.044828,181.88062 53.380962,-33.70841 c 80.6746,-4.84154 119.03284,-26.17169 192.88221,-32.74531 73.84939,-6.57362 92.56561,36.59768 92.56561,36.59768 l 30.03755,69.34305 -100.16215,-9.63099 z"
       style="opacity:1;fill:#eee9e7;fill-opacity:1;fill-rule:nonzero;stroke:none;stroke-width:31.85046577;stroke-linecap:round;stroke-linejoin:round;stroke-miterlimit:4;stroke-dasharray:none;stroke-dashoffset:0;stroke-opacity:1;paint-order:normal" />
    <path
       style="opacity:1;fill:#ccc8c6;fill-opacity:1;fill-rule:nonzero;stroke:none;stroke-width:31.85046577;stroke-linecap:round;stroke-linejoin:round;stroke-miterlimit:4;stroke-dasharray:none;stroke-dashoffset:0;stroke-opacity:1;paint-order:normal"
       d="m 307.5484,148.4548 c -5.19251,0.0142 -10.66635,0.23071 -16.43416,0.68011 -84.37534,6.57361 -140.89595,27.90368 -233.069317,32.74522 L 36.198321,239.88557 324.20838,229.60056 c 1.69732,-0.24415 3.42295,-0.21257 5.11023,0.0935 1.53919,0.22531 3.03709,0.67491 4.44597,1.33449 40.7894,12.79898 85.33024,13.8793 126.29725,-0.0276 1.46821,-0.68064 3.03157,-1.13351 4.63622,-1.34307 0.89877,-0.1492 1.80866,-0.221 2.7197,-0.21462 0.62917,0.0125 1.25705,0.0621 1.88032,0.14878 l 288.251,10.29358 -21.84659,-58.00544 c -92.17336,-4.84159 -148.69464,-26.17166 -233.06996,-32.74527 -6.59181,-0.51359 -12.79895,-0.72356 -18.64166,-0.67417 -68.94415,0.58255 -87.11716,37.27213 -87.11716,37.27213 -0.003,-0.006 -18.17834,-36.68898 -87.11716,-37.27149 v 0 c -0.73033,-0.006 -1.46635,-0.008 -2.20814,-0.006 z"
       id="path1991" />
    <path
       style="color:#000000;font-style:normal;font-variant:normal;font-weight:normal;font-stretch:normal;font-size:medium;line-height:normal;font-family:sans-serif;font-variant-ligatures:normal;font-variant-position:normal;font-variant-caps:normal;font-variant-numeric:normal;font-variant-alternates:normal;font-feature-settings:normal;text-indent:0;text-align:start;text-decoration:none;text-decoration-line:none;text-decoration-style:solid;text-decoration-color:#000000;letter-spacing:normal;word-spacing:normal;text-transform:none;writing-mode:lr-tb;direction:ltr;text-orientation:mixed;dominant-baseline:auto;baseline-shift:baseline;text-anchor:start;white-space:normal;shape-padding:0;clip-rule:nonzero;display:inline;overflow:visible;visibility:visible;opacity:1;isolation:auto;mix-blend-mode:normal;color-interpolation:sRGB;color-interpolation-filters:linearRGB;solid-color:#000000;solid-opacity:1;vector-effect:none;fill:#672817;fill-opacity:1;fill-rule:nonzero;stroke:none;stroke-width:31.85046577;stroke-linecap:round;stroke-linejoin:round;stroke-miterlimit:4;stroke-dasharray:none;stroke-dashoffset:0;stroke-opacity:1;paint-order:normal;color-rendering:auto;image-rendering:auto;shape-rendering:auto;text-rendering:auto;enable-background:accumulate"
       d="m 467.41775,235.86756 a 15.926826,15.926826 0 0 0 -2.7197,0.21462 15.926826,15.926826 0 0 0 -4.63622,1.34308 c -38.6984,13.34216 -87.5851,13.35116 -126.29725,0.027 a 15.926826,15.926826 0 0 0 -4.44597,-1.33452 15.926826,15.926826 0 0 0 -5.11023,-0.0928 L 29.546175,246.54759 a 15.926826,15.926826 0 1 0 1.137001,31.83008 L 324.34797,267.89122 c 45.68639,15.50573 99.36386,15.50587 145.05015,0 l 293.66676,10.48645 a 15.926826,15.926826 0 1 0 1.13435,-31.83008 L 469.29807,236.01635 a 15.926826,15.926826 0 0 0 -1.88032,-0.14879 z"
       id="path1979" />
  </g>
</svg>
