<?xml version="1.0" encoding="UTF-8" standalone="no"?>
<!-- Created with Inkscape (http://www.inkscape.org/) -->

<svg
   width="3000"
   height="2300"
   viewBox="0 0 793.74998 608.54166"
   version="1.1"
   id="svg1"
   xml:space="preserve"
   inkscape:version="1.3 (0e150ed6c4, 2023-07-21)"
   sodipodi:docname="DSLR Camera1.svg"
   inkscape:export-filename="DSLR Camera1.png"
   inkscape:export-xdpi="96"
   inkscape:export-ydpi="96"
   xmlns:inkscape="http://www.inkscape.org/namespaces/inkscape"
   xmlns:sodipodi="http://sodipodi.sourceforge.net/DTD/sodipodi-0.dtd"
   xmlns="http://www.w3.org/2000/svg"
   xmlns:svg="http://www.w3.org/2000/svg"><sodipodi:namedview
     id="namedview1"
     pagecolor="#505050"
     bordercolor="#ffffff"
     borderopacity="1"
     inkscape:showpageshadow="0"
     inkscape:pageopacity="0"
     inkscape:pagecheckerboard="1"
     inkscape:deskcolor="#505050"
     inkscape:document-units="mm"
     inkscape:zoom="0.10378067"
     inkscape:cx="255.34621"
     inkscape:cy="1671.795"
     inkscape:window-width="1600"
     inkscape:window-height="837"
     inkscape:window-x="-8"
     inkscape:window-y="-8"
     inkscape:window-maximized="1"
     inkscape:current-layer="layer1"
     showguides="false" /><defs
     id="defs1" /><g
     inkscape:label="Layer 1"
     inkscape:groupmode="layer"
     id="layer1"><path
       sodipodi:type="star"
       style="fill:#1c1c1c;fill-opacity:1;stroke-width:0.799999;stroke-linecap:round;stroke-linejoin:round"
       id="path3"
       inkscape:flatsided="false"
       sodipodi:sides="32"
       sodipodi:cx="50.363808"
       sodipodi:cy="123.71244"
       sodipodi:r1="9.7217264"
       sodipodi:r2="9.395833"
       sodipodi:arg1="0"
       sodipodi:arg2="0.09817477"
       inkscape:rounded="0.7244983"
       inkscape:randomized="0"
       d="m 60.085534,123.71244 c 0,0.71937 -0.300626,0.20505 -0.371137,0.92095 -0.07051,0.71591 0.324679,0.27012 0.184337,0.97567 -0.140343,0.70554 -0.334852,0.14245 -0.543675,0.83085 -0.208822,0.68839 0.265744,0.32826 -0.0095,0.99287 -0.275292,0.66462 -0.35621,0.0744 -0.695319,0.70883 -0.33911,0.63442 0.196596,0.3738 -0.203065,0.97193 -0.399661,0.59814 -0.363879,0.003 -0.820243,0.55955 -0.456364,0.55609 0.119894,0.40498 -0.388779,0.91365 -0.508672,0.50867 -0.357564,-0.0676 -0.913645,0.38878 -0.556081,0.45636 0.03858,0.42058 -0.559552,0.82024 -0.598135,0.39966 -0.337508,-0.13604 -0.971936,0.20307 -0.634429,0.3391 -0.04421,0.42002 -0.708822,0.69531 -0.664612,0.2753 -0.304482,-0.19927 -0.992877,0.01 -0.688395,0.20882 -0.125303,0.40333 -0.830852,0.54368 -0.705548,0.14034 -0.259754,-0.25485 -0.975662,-0.18434 -0.715907,0.0705 -0.201581,0.37114 -0.920952,0.37114 -0.719371,0 -0.205046,-0.30063 -0.920953,-0.37114 -0.715907,-0.0705 -0.270113,0.32468 -0.975662,0.18434 -0.705549,-0.14035 -0.142456,-0.33486 -0.830852,-0.54368 -0.688395,-0.20882 -0.328265,0.26575 -0.992877,-0.01 -0.664612,-0.27529 -0.07439,-0.35621 -0.708821,-0.69531 -0.634429,-0.33911 -0.373802,0.19659 -0.971937,-0.20307 -0.598135,-0.39966 -0.0035,-0.36388 -0.559552,-0.82024 -0.556081,-0.45637 -0.404973,0.11989 -0.913645,-0.38878 -0.508672,-0.50867 0.06759,-0.35756 -0.388778,-0.91365 -0.456365,-0.55608 -0.420582,0.0386 -0.820243,-0.55955 -0.399662,-0.59813 0.136044,-0.33751 -0.203065,-0.97193 -0.339109,-0.63443 -0.420028,-0.0442 -0.695319,-0.70883 -0.275292,-0.66461 0.199275,-0.30448 -0.0095,-0.99287 -0.208822,-0.6884 -0.403332,-0.12531 -0.543674,-0.83085 -0.140343,-0.70555 0.254847,-0.25976 0.184336,-0.97567 -0.07051,-0.7159 -0.371137,-0.20158 -0.371137,-0.92095 0,-0.71937 0.300626,-0.20505 0.371137,-0.92095 0.07051,-0.71591 -0.324679,-0.27012 -0.184336,-0.97566 0.140342,-0.70555 0.334852,-0.14246 0.543674,-0.83086 0.208823,-0.68839 -0.265744,-0.32826 0.0095,-0.99287 0.275291,-0.66462 0.35621,-0.0744 0.695319,-0.70882 0.339109,-0.63443 -0.196597,-0.37381 0.203065,-0.97194 0.399661,-0.59814 0.363878,-0.003 0.820243,-0.55955 0.456364,-0.55608 -0.119894,-0.40498 0.388778,-0.91365 0.508672,-0.50867 0.357564,0.0676 0.913645,-0.38878 0.556082,-0.45636 -0.03858,-0.42058 0.559552,-0.82024 0.598135,-0.39966 0.337508,0.13604 0.971937,-0.20306 0.634428,-0.33911 0.04421,-0.42003 0.708821,-0.69532 0.664612,-0.27529 0.304482,0.19927 0.992877,-0.01 0.688396,-0.20882 0.125303,-0.40333 0.830852,-0.54368 0.705549,-0.14034 0.259755,0.25485 0.975662,0.18434 0.715907,-0.0705 0.201582,-0.37114 0.920953,-0.37114 0.719371,0 0.205045,0.30063 0.920952,0.37114 0.715908,0.0705 0.270114,-0.32468 0.975662,-0.18434 0.705549,0.14035 0.142457,0.33486 0.830852,0.54368 0.688395,0.20882 0.328265,-0.26574 0.992877,0.01 0.664613,0.27529 0.07439,0.35621 0.708822,0.69532 0.634428,0.3391 0.373801,-0.1966 0.971936,0.20306 0.598136,0.39966 0.0035,0.36388 0.559552,0.82024 0.556081,0.45637 0.404973,-0.11989 0.913645,0.38878 0.508673,0.50867 -0.06759,0.35757 0.388779,0.91365 0.456364,0.55608 0.420582,-0.0386 0.820243,0.55955 0.399661,0.59813 -0.136045,0.33751 0.203065,0.97194 0.339109,0.63442 0.420027,0.0442 0.695319,0.70882 0.275291,0.66461 -0.199275,0.30448 0.0095,0.99287 0.208823,0.6884 0.403332,0.12531 0.543675,0.83086 0.140342,0.70554 -0.254848,0.25975 -0.184337,0.97566 0.07051,0.7159 0.371137,0.20158 0.371137,0.92095 z"
       inkscape:transform-center-y="-1.5454369e-05"
       transform="matrix(4.8086324,0,0,4.8086324,-123.63086,-415.7757)" /><path
       style="fill:#1c1c1c;fill-opacity:1;stroke-width:3.69694;stroke-linecap:round;stroke-linejoin:round"
       d="m 288.57568,129.585 c 0,0 -0.52067,-31.761001 -2.60336,-33.323013 -2.08268,-1.562 -39.05038,-1.041342 -69.77001,1.562012 -30.71963,2.603381 -65.08397,7.289401 -67.16667,9.892791 -2.08268,2.60334 1.04136,33.84363 1.04136,33.84363 z"
       id="path2" /><path
       id="path13"
       style="fill:#2f2f2f;fill-opacity:1;stroke-width:3.69694;stroke-linecap:round;stroke-linejoin:round"
       d="m 271.08028,95.382486 c -14.0388,0 -35.6779,0.813509 -54.87766,2.440589 -30.71959,2.603375 -65.08392,7.290325 -67.16662,9.893715 -0.2975,0.37201 -0.48055,1.37531 -0.58984,2.74151 21.05613,-4.51693 96.8254,-14.320806 138.54816,-10.469281 -0.28961,-2.043724 -0.62737,-3.431697 -1.02208,-3.727719 -0.78102,-0.585789 -6.46868,-0.878814 -14.89196,-0.878814 z" /><path
       style="fill:#111111;fill-opacity:1;stroke-width:3.69694;stroke-linecap:round;stroke-linejoin:round"
       d="m 785.81719,533.1056 c 0,66.64598 -89.55553,65.60464 -132.25062,65.60464 H 56.876747 c -41.653746,0 -48.94315,-33.32301 -48.94315,-59.35657 V 221.74388 c 0,-37.48837 13.537472,-57.27391 60.397926,-68.72866 46.860457,-11.4548 186.400487,-22.90955 212.434067,-24.99227 26.0336,-2.08267 41.91409,-36.707334 44.51744,-45.819108 1.06346,-3.96885 7.68375,-3.64472 12.3698,6.768743 1.17151,2.603341 12.9815,-39.537892 31.963,-55.985406 23.62806,-20.473751 71.82041,-15.206464 104.97841,-15.672141 33.15799,-0.46563 83.65821,-2.574317 103.50142,13.255676 26.81602,21.392574 31.02994,57.858462 32.68667,55.833506 6.62706,-8.099777 11.4133,-6.627045 18.04036,8.099776 6.62709,14.726834 16.93588,36.817034 52.2802,44.916814 35.34442,8.09973 63.32534,9.94058 71.05695,21.35388 7.73155,11.41326 33.65735,117.72241 33.65735,179.16166 z"
       id="path1"
       sodipodi:nodetypes="ssssssscssssssssss" /><path
       id="rect19"
       style="opacity:1;fill:#ffffff;fill-opacity:0.152256;stroke-width:9.24236;stroke-linecap:round;stroke-linejoin:round"
       d="m 414.34725,33.2607 c 40.14272,-2.529057 80.71309,-3.344826 121.8372,0 4.88755,0.397514 8.85142,3.947735 8.85142,8.851426 0,4.903692 -3.95619,9.139744 -8.85142,8.851414 -39.65976,-2.335888 -80.21427,-2.57095 -121.8372,0 -4.89434,0.302328 -8.8514,-3.947722 -8.8514,-8.851414 0,-4.903691 3.95743,-8.543092 8.8514,-8.851426 z"
       sodipodi:nodetypes="sssssss" /><path
       id="path20"
       style="opacity:1;fill:#ffffff;fill-opacity:0.0507519;stroke:none;stroke-width:9.24236;stroke-linecap:round;stroke-linejoin:round;stroke-dasharray:none;stroke-opacity:1"
       d="m 196.98351,99.688127 c -24.32548,2.606303 -46.29655,5.964973 -47.94751,8.028663 -2.08268,2.60334 1.04121,33.84363 1.04121,33.84363 l 47.83764,-4.13615 z" /><path
       id="path29"
       style="opacity:1;fill:#000000;fill-opacity:0.152256;stroke:none;stroke-width:9.24236;stroke-linecap:round;stroke-linejoin:round;stroke-dasharray:none;stroke-opacity:1"
       d="m 221.03368,133.31203 c -52.3696,4.86652 -121.822727,12.1556 -152.702208,19.70393 -46.860408,11.45471 -60.398855,31.24007 -60.398855,68.72838 v 317.6098 c 0,26.03355 7.289618,59.35528 48.943321,59.35528 H 208.26471 c 12.42538,-50.56798 18.46926,-300.70373 12.76897,-465.39739 z" /><path
       id="path21"
       style="opacity:1;fill:#ffffff;fill-opacity:0.0958647;stroke:none;stroke-width:9.24236;stroke-linecap:round;stroke-linejoin:round;stroke-dasharray:none;stroke-opacity:1"
       d="m 118.55001,132.364 c -3.45918,0 -0.98493,1.44481 -4.42746,1.78386 -3.44254,0.33919 -1.29982,-1.5608 -4.69254,-0.88597 -3.39273,0.67487 -0.685,1.6108 -3.99523,2.61494 -3.31023,1.00413 -1.57787,-1.2784 -4.77374,0.0462 -3.195867,1.32378 -0.35943,1.71261 -3.410147,3.34328 -3.050729,1.63063 -1.797225,-0.94512 -4.673434,0.97669 -2.876209,1.92186 -0.01478,1.7506 -2.688958,3.94511 -2.673987,2.19445 -1.948018,-0.57617 -4.394032,1.86986 -2.446015,2.44599 0.324638,1.71764 -1.869854,4.39165 -2.194484,2.67395 -2.023255,-0.18484 -3.945075,2.69133 -0.138867,0.20796 -0.208092,0.35259 -0.303289,0.52057 0.558914,2.66203 1.70677,3.27504 3.81851,-0.0642 6.126933,-9.6891 20.527589,-19.04065 37.819729,-20.12899 -0.45726,-0.51465 -0.25393,-1.10325 -2.46448,-1.10325 z m 8.08598,0.75699 c -0.58454,-0.0277 -0.86646,0.0887 -1.06985,0.25092 1.04074,0.0231 2.09351,0.085 3.14985,0.17192 -0.26363,-0.098 -0.59598,-0.19225 -1.04596,-0.2819 -0.42409,-0.0842 -0.76123,-0.12754 -1.03404,-0.14094 z" /><path
       id="path5"
       style="fill:#141414;fill-opacity:1;stroke-width:3.69694;stroke-linecap:round;stroke-linejoin:round"
       d="M 201.33933,135.19146 C 152.14225,140.00258 95.417563,146.39487 68.331472,153.01596 21.471064,164.47067 7.932617,184.25603 7.932617,221.74434 v 317.6098 c 0,26.03355 7.289618,59.35528 48.943321,59.35528 H 181.54469 c 17.8966,-48.23557 11.58742,-347.85908 19.79464,-463.51796 z" /><path
       style="opacity:1;fill:#000000;fill-opacity:0.154135;stroke:none;stroke-width:8.59193;stroke-linecap:round;stroke-linejoin:round;stroke-dasharray:none;stroke-opacity:1"
       d="m 121.81476,175.52873 c -43.692813,7.56054 -79.328791,23.43766 -39.974273,29.48609 39.354523,6.04849 54.848423,8.31665 77.469533,-5.29235 22.62109,-13.60901 -12.08526,-29.48609 -37.49526,-24.19374 z"
       id="path24" /><path
       id="path10"
       style="fill:#121212;fill-opacity:1;stroke-width:3.69694;stroke-linecap:round;stroke-linejoin:round"
       d="M 116.513,226.81419 C 75.511225,226.31751 30.313385,232.72361 7.932617,253.13542 v 286.21872 c 0,26.03355 7.289659,59.35528 48.943321,59.35528 H 181.54469 c 13.7527,-37.06678 13.22549,-222.37137 15.9618,-358.77999 -9.62472,-6.45668 -43.48845,-12.66085 -80.99349,-13.11524 z" /><rect
       style="fill:#191919;fill-opacity:1;stroke-width:4.15769;stroke-linecap:round;stroke-linejoin:round"
       id="rect7"
       width="98.667259"
       height="82.857094"
       x="659.55438"
       y="317.90292"
       ry="25.928558"
       rx="0" /><rect
       style="fill:#121212;fill-opacity:1;stroke-width:3.69694;stroke-linecap:round;stroke-linejoin:round"
       id="rect6"
       width="87.733147"
       height="73.675034"
       x="655.38898"
       y="322.4939"
       ry="20.045862" /><path
       id="ellipse4"
       style="fill:#0c0c0c;fill-opacity:1;stroke-width:3.69694;stroke-linecap:round;stroke-linejoin:round"
       d="m 131.81569,178.83565 a 13.537466,32.281649 84.204786 0 0 -8.35819,0.38472 13.537466,32.281649 84.204786 0 0 -28.938523,11.49613 l -1.810148,0.1839 -6e-6,5.04833 a 13.537466,32.281649 84.204786 0 0 33.483017,10.20899 13.537466,32.281649 84.204786 0 0 30.74867,-16.7284 v -5.04834 l -2.82508,0.28654 a 13.537466,32.281649 84.204786 0 0 -22.29972,-5.83165 z" /><path
       id="path23"
       style="opacity:1;fill:#ffffff;fill-opacity:0.03;stroke:none;stroke-width:9.24236;stroke-linecap:round;stroke-linejoin:round;stroke-dasharray:none;stroke-opacity:1"
       d="m 106.19179,183.18909 a 13.537466,32.281649 84.204786 0 0 -11.672838,7.52721 l -1.810149,0.18391 v 5.04837 a 13.537466,32.281649 84.204786 0 0 25.955837,10.57908 l -0.31045,-7.4627 5.89135,-13.25373 z" /><ellipse
       style="fill:#0f0f0f;fill-opacity:1;stroke-width:3.69694;stroke-linecap:round;stroke-linejoin:round"
       id="path4"
       cx="105.23985"
       cy="199.28477"
       rx="32.281651"
       ry="13.537466"
       transform="rotate(-5.7952143)" /><rect
       style="fill:#181818;fill-opacity:1;stroke-width:3.27203;stroke-linecap:round;stroke-linejoin:round"
       id="rect8"
       width="77.649445"
       height="65.207115"
       x="660.43085"
       y="326.72794"
       ry="16.085096" /><path
       id="path18"
       style="opacity:0.297345;fill:#ffffff;fill-opacity:0.09;stroke:none;stroke-width:9.24236;stroke-linecap:round;stroke-linejoin:round;stroke-dasharray:none;stroke-opacity:1"
       d="m 720.07165,317.90206 c 12.20006,1.91552 35.21257,9.04106 38.14928,30.73196 v -4.80243 c 0,-14.36438 -11.56275,-25.92953 -25.92718,-25.92953 z" /><path
       id="path19"
       style="opacity:0.297345;fill:#ffffff;fill-opacity:0.0845865;stroke:none;stroke-width:9.24236;stroke-linecap:round;stroke-linejoin:round;stroke-dasharray:none;stroke-opacity:1"
       d="m 677.61192,326.72833 c 1.09308,0.7794 4.07454,1.23223 9.53793,1.23223 37.80348,0 48.89338,6.95183 50.93018,19.06389 v -4.21256 c 0,-8.91113 -7.17485,-16.08356 -16.08596,-16.08356 z" /><path
       id="path17"
       style="opacity:0.297345;fill:#000000;fill-opacity:0.5;stroke:none;stroke-width:9.24236;stroke-linecap:round;stroke-linejoin:round;stroke-dasharray:none;stroke-opacity:1"
       d="m 600.54462,181.59667 -259.98574,345.99119 110.2159,71.12156 h 202.79174 c 42.69504,0 132.25086,1.0411 132.25086,-65.60483 V 339.93668 c 0,-5.51099 -0.27126,-11.47504 -0.65672,-17.60716 C 742.70282,288.53343 699.3737,260.03244 600.54462,181.59667 Z"
       sodipodi:nodetypes="cccssscc" /><path
       id="path16"
       style="fill:#000000;fill-opacity:0.3;stroke-width:3.69694;stroke-linecap:round;stroke-linejoin:round"
       inkscape:transform-center-x="-6.2328292e-06"
       inkscape:transform-center-y="-2.7578676e-05"
       d="m 477.06828,137.99841 c -2.17413,-0.23013 -3.76876,2.49771 -5.63206,0.60473 -2.41106,-0.93445 -5.09694,-0.11038 -7.2206,1.05599 -2.83181,-1.36413 -6.36817,-1.10437 -8.91741,0.75814 -2.81812,-1.1069 -6.50163,-1.29406 -8.64668,1.20947 -2.91698,-1.44144 -6.563,-1.05336 -8.80007,1.42609 -2.87669,-1.52157 -6.41587,-0.46878 -8.70086,1.63364 -3.07156,-0.97109 -6.7076,-0.10627 -8.84521,2.25642 -2.96131,-1.22673 -6.40723,-0.11276 -8.24955,2.47308 -3.03723,-1.17393 -6.43292,0.29759 -8.45709,2.65357 -3.16656,-0.58906 -6.65274,0.70497 -8.50228,3.32148 -3.09609,-0.89883 -6.39497,0.67288 -7.90651,3.45687 -3.15507,-0.79402 -6.34577,1.06112 -8.06905,3.64639 -3.37508,-0.33689 -6.47663,1.84404 -8.25855,4.30528 -3.32324,-0.48744 -5.93947,1.77512 -7.40111,4.52186 -3.18029,-0.6373 -6.00023,1.79996 -7.34693,4.46777 -3.1614,0.21119 -6.30325,2.16016 -7.41016,5.20788 -3.23765,0.037 -6.12318,2.13757 -6.95885,5.2981 -3.26151,-0.0277 -5.87146,2.57677 -6.94982,5.47864 -3.26104,0.52491 -5.913,3.17558 -6.8686,6.14649 -3.17661,0.27866 -5.59856,2.91356 -6.07432,5.99311 -3.22832,0.38819 -5.53507,3.2583 -6.22775,6.2819 -3.07402,0.94766 -5.56202,3.71413 -5.97505,6.88667 -3.17501,0.64271 -5.32754,3.56057 -5.42448,6.7332 -3.17466,0.75422 -5.08784,3.90731 -5.43349,6.98593 -2.9138,1.32901 -5.08598,4.33426 -5.09052,7.54551 -3.06772,1.03505 -4.87285,4.17639 -4.58508,7.34698 -3.02963,1.15193 -4.59813,4.47474 -4.54898,7.5726 -2.71282,1.67809 -4.52428,4.89992 -4.12476,8.10508 -2.93451,1.3913 -4.32708,4.73144 -3.6825,7.85241 -2.87047,1.52107 -4.01097,5.00257 -3.60128,8.07806 -2.46596,1.98798 -3.93992,5.38497 -3.09583,8.5203 -2.7609,1.70138 -3.76821,5.24874 -2.71674,8.24949 -2.68438,1.84168 -3.39377,5.46128 -2.61747,8.46619 -2.2909,2.28412 -3.16467,5.88892 -2.103,8.89939 -2.46502,2.04186 -3.08587,5.61995 -1.62463,8.43905 -2.44978,2.14007 -2.75394,5.844 -1.58853,8.7279 -2.21041,2.59035 -2.13891,6.40855 -1.1553,9.26944 -2.28399,2.41123 -1.88304,5.76399 -0.53252,8.51129 -1.97528,2.38175 -2.10608,5.98248 -0.43324,8.69179 -1.60506,2.72349 -1.82927,6.4098 0.0632,9.0528 -1.88526,2.73629 -1.54009,6.13739 0.35477,8.76 -1.61117,2.58283 -1.35844,6.28038 0.63807,8.75899 -1.30833,2.90742 -1.0065,6.62608 1.19139,9.02573 -1.58587,2.80279 -0.92793,6.40319 1.44413,8.55639 -1.5268,2.87419 -0.49956,6.42099 1.60657,8.70986 -1.19546,3.2266 0.33084,6.74059 2.2023,9.10697 -1.129,2.93005 0.073,6.19603 2.53622,8.02389 -1.16873,3.03528 0.31975,6.41548 2.67163,8.43005 -0.53877,3.13242 0.59591,6.66489 3.33049,8.44807 -0.96703,3.09948 0.66644,6.4008 3.42076,7.95171 -0.76994,3.15442 1.05773,6.35593 3.66445,8.05999 -0.34894,3.38903 1.85523,6.49692 4.31431,8.28564 -0.50026,3.28377 1.70134,5.81724 4.38651,7.30183 -0.2452,3.06787 1.65778,6.14904 4.58509,7.41011 0.20369,3.17573 2.1594,6.32118 5.21687,7.43725 0.002,3.33385 2.24075,6.03211 5.36129,7.03102 -0.0824,3.2207 2.5031,5.82353 5.3974,6.81445 0.47116,3.39277 3.38279,5.87194 6.18263,7.05811 0.24058,3.32712 3.30825,5.33659 6.01115,6.15559 0.46915,3.13585 3.30149,5.32135 6.24581,6.01115 0.97283,3.00469 3.59488,5.57888 6.81444,5.92089 0.77727,3.25632 3.60743,5.23455 6.83249,5.54176 0.7946,3.0089 3.7986,5.14938 6.93178,5.32522 1.26385,3.12004 4.57419,4.96505 7.64477,5.30715 1.12005,3.17951 4.32256,4.52825 7.47333,4.48578 0.9211,3.08903 4.3605,4.53213 7.36501,4.44969 1.66746,2.7741 4.9687,4.53033 8.15024,4.18794 1.37757,2.91329 4.72691,4.31835 7.81631,3.62838 1.4882,2.89941 5.00492,4.02661 8.07805,3.61931 1.97524,2.78869 5.7171,3.57392 8.71888,3.33953 1.77934,2.81564 5.41949,3.1944 8.19534,2.66259 1.87245,2.56794 5.39093,3.15096 8.32173,2.42793 2.28915,2.21067 5.84811,3.26744 8.86328,2.05785 2.03185,2.50361 5.63277,3.13658 8.46615,1.66978 2.14441,2.45282 5.83077,2.74609 8.71887,1.58852 2.52886,1.91239 6.1776,2.55981 9.02578,0.9748 2.15785,2.16895 5.99907,2.44302 8.66471,0.6679 2.42649,2.17204 6.10411,1.97204 8.82714,0.4964 2.83561,1.86982 6.60303,1.36514 9.33266,0.0277 2.63852,1.88253 6.07178,1.35575 8.52932,-0.55057 2.58994,1.95327 6.21502,1.24749 8.68273,-0.55057 3.01088,1.51694 6.72859,0.65181 9.24236,-1.1102 2.93917,1.67297 6.22946,0.50741 8.55644,-1.59753 2.73141,1.70618 6.27266,0.527 8.44808,-1.55244 3.19583,1.14124 6.77289,-0.17977 9.07992,-2.20228 2.94421,1.14943 6.25921,-0.0139 8.08708,-2.51817 3.03704,1.15816 6.41706,-0.32486 8.43905,-2.67164 3.12749,0.55551 6.65252,-0.61726 8.43907,-3.33049 3.11865,0.9472 6.41429,-0.65925 7.98781,-3.42979 3.13597,0.79059 6.31946,-1.06588 8.01483,-3.64639 3.21052,0.19409 6.53888,-1.48114 8.04192,-4.33236 3.32711,0.62285 6.20865,-1.66861 7.61774,-4.43162 3.16222,0.45888 6.04312,-1.79671 7.35599,-4.53093 3.18063,-0.19917 6.30916,-2.16719 7.4372,-5.21689 3.42503,0.0472 5.98771,-2.35357 7.09425,-5.43349 3.20456,0.18807 5.77791,-2.48227 6.74226,-5.33424 3.12669,-0.59881 6.05343,-2.91481 6.75122,-6.1104 3.24101,-0.22967 5.76109,-2.89447 6.25485,-6.03821 3.21954,-0.39604 5.50874,-3.25304 6.21873,-6.26388 3.10701,-0.94466 5.56404,-3.77361 6.02021,-6.91376 3.14854,-0.65199 5.31628,-3.55853 5.37932,-6.72414 3.15645,-0.75389 5.11634,-3.88783 5.43349,-6.9679 2.8832,-1.33367 5.11847,-4.29871 5.05442,-7.54551 3.0869,-0.99374 4.88949,-4.19363 4.62118,-7.356 3.04116,-1.15515 4.5947,-4.4868 4.54895,-7.59061 2.6686,-1.66418 4.52451,-4.80362 4.12477,-7.99682 2.68903,-1.63359 4.43176,-4.60306 3.66447,-7.78022 1.1375,-1.43418 3.345,-2.52648 3.4749,-4.7746 -0.13033,-2.5374 0.48725,-4.22436 2.3007,-5.99455 1.07927,-1.76649 1.49005,-3.98729 0.94859,-6.00064 2.74308,-1.71226 3.7638,-5.24768 2.71674,-8.24956 2.69808,-1.84347 3.37327,-5.45753 2.60842,-8.46614 2.50399,-2.28707 2.89587,-6.069 2.23841,-9.03478 2.48222,-2.10901 2.76947,-5.60674 1.53438,-8.43906 2.49608,-2.05878 2.69354,-5.74335 1.52535,-8.56546 2.21221,-2.58041 2.21114,-6.39645 1.15529,-9.26944 2.1385,-2.34146 2.18716,-5.84076 0.50543,-8.43905 2.1964,-2.41546 1.97107,-6.10264 0.50546,-8.82716 1.66377,-2.75048 1.723,-6.46045 -0.0901,-9.11601 1.92029,-2.5843 1.65661,-6.2008 -0.41498,-8.61957 1.8817,-2.66291 1.23242,-6.31526 -0.56859,-8.83621 1.2881,-2.90533 1.01606,-6.61425 -1.20045,-8.99868 1.61511,-2.67401 0.92156,-6.39969 -1.42604,-8.55639 1.52087,-2.87785 0.47422,-6.42332 -1.6427,-8.70082 0.97336,-3.06277 0.13725,-6.68532 -2.25642,-8.8362 1.24216,-2.95627 0.10488,-6.41859 -2.46407,-8.26761 1.18002,-3.04079 -0.31193,-6.42867 -2.66259,-8.4571 0.57456,-3.15857 -0.66951,-6.65394 -3.32146,-8.4842 0.91199,-3.10668 -0.67405,-6.38028 -3.43882,-7.93364 0.79097,-3.14689 -1.07183,-6.33269 -3.65544,-8.04193 0.35029,-3.39532 -1.88368,-6.48014 -4.31428,-8.29464 0.49511,-3.31944 -1.77824,-5.91207 -4.51287,-7.37408 0.59142,-3.15787 -1.75517,-6.03451 -4.46776,-7.33792 -0.20426,-3.14934 -2.13521,-6.2805 -5.16273,-7.4011 -0.14603,-3.30252 -2.21516,-6.0805 -5.38835,-7.02202 0.0323,-3.16708 -2.45768,-5.88304 -5.42447,-6.85053 -0.56264,-3.20474 -3.04647,-6.01049 -6.14655,-6.83251 -0.24631,-3.20562 -2.8728,-5.70655 -6.00213,-6.14654 -0.37524,-3.23876 -3.2583,-5.55886 -6.2909,-6.24581 -0.87668,-3.23879 -3.95939,-5.42572 -6.92276,-6.15554 -0.75191,-3.07943 -3.56797,-5.1553 -6.6881,-5.253 -0.7649,-3.16448 -3.90721,-5.08532 -6.98589,-5.41546 -1.3344,-2.87456 -4.27348,-5.13871 -7.52749,-5.05442 -0.99018,-3.08501 -4.19478,-4.9009 -7.35599,-4.62118 -1.15636,-3.04426 -4.49308,-4.59734 -7.59967,-4.54895 -1.65798,-2.77951 -4.95992,-4.48897 -8.13217,-4.17894 -1.37563,-2.89854 -4.71874,-4.31932 -7.79824,-3.60124 -1.48752,-2.90607 -5.0077,-4.05023 -8.08707,-3.62836 -1.98439,-2.56249 -5.49481,-3.84552 -8.59253,-3.17706 -1.7188,-2.726 -5.21154,-3.68225 -8.18633,-2.64457 -1.83271,-2.69254 -5.45664,-3.37942 -8.45713,-2.60842 -2.27728,-2.42959 -6.03744,-2.98852 -8.97161,-2.19326 -1.99788,-2.47959 -5.5951,-2.91015 -8.36688,-1.55244 -2.14413,-2.46494 -5.81848,-2.70339 -8.70982,-1.57947 -2.53919,-2.01697 -6.25237,-2.44008 -9.09795,-1.01994 -2.31928,-2.24554 -5.94976,-2.35371 -8.59253,-0.61375 -2.48564,-2.31405 -6.27524,-1.82523 -9.03473,-0.51448 -1.4341,-0.80856 -3.02771,-1.48681 -4.71148,-1.3448 z" /><path
       sodipodi:type="star"
       style="fill:#121212;fill-opacity:1;stroke-width:0.799999;stroke-linecap:round;stroke-linejoin:round"
       id="path6"
       inkscape:flatsided="false"
       sodipodi:sides="156"
       sodipodi:cx="128.42841"
       sodipodi:cy="163.00528"
       sodipodi:r1="46.898674"
       sodipodi:r2="46.504211"
       sodipodi:arg1="0.52359878"
       sodipodi:arg2="0.54373719"
       inkscape:rounded="0.27192884"
       inkscape:randomized="0"
       d="m 169.04385,186.45462 c -0.13866,0.24017 -0.67454,0.37172 -0.81801,0.60905 -0.14347,0.23733 -0.0109,0.77296 -0.15914,1.00735 -0.14822,0.23439 -0.68896,0.34426 -0.84187,0.57562 -0.15291,0.23136 -0.042,0.77189 -0.19957,1.00012 -0.15754,0.22824 -0.70227,0.31624 -0.86437,0.54126 -0.1621,0.22501 -0.0731,0.76957 -0.23968,0.99128 -0.1666,0.2217 -0.71443,0.2877 -0.88546,0.506 -0.17103,0.21831 -0.10401,0.76601 -0.2794,0.98083 -0.17539,0.21482 -0.72543,0.2587 -0.90511,0.46994 -0.17969,0.21125 -0.13477,0.7612 -0.31867,0.96878 -0.1839,0.20758 -0.73526,0.22929 -0.92331,0.43312 -0.18804,0.20384 -0.16531,0.75516 -0.35742,0.95516 -0.19211,0.20001 -0.74389,0.19949 -0.93999,0.39559 -0.1961,0.1961 -0.19558,0.74789 -0.39559,0.94 -0.20001,0.19211 -0.75133,0.16937 -0.95516,0.35742 -0.20384,0.18804 -0.22554,0.7394 -0.43312,0.9233 -0.20758,0.1839 -0.75754,0.13899 -0.96878,0.31867 -0.21124,0.17968 -0.25513,0.72972 -0.46994,0.90512 -0.21482,0.17539 -0.76252,0.10837 -0.98083,0.2794 -0.21831,0.17103 -0.2843,0.71885 -0.50601,0.88546 -0.2217,0.1666 -0.76626,0.0776 -0.99128,0.23968 -0.22501,0.1621 -0.31302,0.70682 -0.54125,0.86436 -0.22824,0.15754 -0.76877,0.0467 -1.00013,0.19957 -0.23136,0.15291 -0.34122,0.69365 -0.57562,0.84187 -0.23439,0.14822 -0.77002,0.0157 -1.00735,0.15914 -0.23733,0.14347 -0.36888,0.67935 -0.60905,0.81801 -0.24017,0.13867 -0.77003,-0.0154 -1.01294,0.11845 -0.24291,0.1338 -0.39593,0.66394 -0.64149,0.79282 -0.24556,0.12888 -0.76879,-0.0463 -1.01689,0.0776 -0.24811,0.12391 -0.42235,0.64746 -0.6729,0.76635 -0.25055,0.11888 -0.7663,-0.0773 -1.01919,0.0366 -0.25289,0.11382 -0.44808,0.62993 -0.70321,0.73864 -0.25513,0.1087 -0.76256,-0.10806 -1.01983,-0.005 -0.25727,0.10355 -0.47308,0.61138 -0.73239,0.70972 -0.2593,0.0983 -0.75759,-0.13867 -1.01882,-0.0456 -0.26123,0.0931 -0.49731,0.59183 -0.76037,0.67965 -0.26305,0.0878 -0.75139,-0.16906 -1.01616,-0.0866 -0.26477,0.0825 -0.52074,0.57133 -0.78711,0.64849 -0.26638,0.0771 -0.74398,-0.19919 -1.01186,-0.12741 -0.26787,0.0718 -0.54332,0.5499 -0.81259,0.61626 -0.26926,0.0664 -0.73535,-0.22898 -1.0059,-0.16804 -0.27055,0.0609 -0.56502,0.52757 -0.83674,0.58304 -0.27173,0.0555 -0.72554,-0.2584 -0.99833,-0.20841 -0.27278,0.05 -0.5858,0.50439 -0.85954,0.54888 -0.27373,0.0445 -0.71454,-0.28741 -0.98912,-0.24845 -0.27457,0.039 -0.60564,0.4804 -0.88094,0.51383 -0.27531,0.0334 -0.7024,-0.31595 -0.97832,-0.28807 -0.27592,0.0279 -0.62449,0.45562 -0.90092,0.47794 -0.27642,0.0223 -0.6891,-0.34398 -0.96592,-0.32723 -0.27682,0.0167 -0.64234,0.4301 -0.91944,0.44127 -0.2771,0.0112 -0.67469,-0.37144 -0.95196,-0.36586 -0.27727,0.006 -0.65913,0.40389 -0.93645,0.40389 -0.27733,0 -0.65919,-0.3983 -0.93646,-0.40389 -0.27727,-0.006 -0.67486,0.37703 -0.95196,0.36586 -0.2771,-0.0112 -0.64262,-0.42453 -0.91944,-0.44127 -0.27682,-0.0168 -0.68949,0.34954 -0.96592,0.32723 -0.27643,-0.0223 -0.625,-0.45006 -0.90092,-0.47794 -0.27592,-0.0279 -0.70301,0.3215 -0.97831,0.28807 -0.27531,-0.0334 -0.60638,-0.47486 -0.88095,-0.51383 -0.27458,-0.039 -0.71539,0.29293 -0.98912,0.24845 -0.27373,-0.0445 -0.58676,-0.49889 -0.85954,-0.54888 -0.27279,-0.05 -0.7266,0.26388 -0.99832,0.20841 -0.27172,-0.0555 -0.5662,-0.52211 -0.83675,-0.58304 -0.27055,-0.0609 -0.73664,0.23441 -1.0059,0.16804 -0.26927,-0.0664 -0.54471,-0.54448 -0.81259,-0.61626 -0.26788,-0.0718 -0.74548,0.20456 -1.01185,0.12741 -0.26638,-0.0772 -0.52235,-0.56598 -0.78712,-0.64849 -0.26477,-0.0825 -0.75311,0.17438 -1.01616,0.0866 -0.26306,-0.0878 -0.49914,-0.58655 -0.76037,-0.67965 -0.26123,-0.0931 -0.75952,0.14391 -1.01882,0.0456 -0.25931,-0.0983 -0.47511,-0.60617 -0.73238,-0.70972 -0.25728,-0.10354 -0.76471,0.11322 -1.01984,0.005 -0.25513,-0.10871 -0.45032,-0.62482 -0.70321,-0.73864 -0.25289,-0.11382 -0.76864,0.0823 -1.01919,-0.0366 -0.25055,-0.11889 -0.42479,-0.64244 -0.67289,-0.76635 -0.24811,-0.12391 -0.77134,0.0513 -1.01689,-0.0776 -0.24556,-0.12888 -0.39858,-0.65902 -0.6415,-0.79282 -0.24291,-0.1338 -0.77277,0.0202 -1.01294,-0.11845 -0.24017,-0.13866 -0.37172,-0.67454 -0.60905,-0.81801 -0.23733,-0.14347 -0.77296,-0.0109 -1.00735,-0.15914 -0.2344,-0.14822 -0.34426,-0.68896 -0.57562,-0.84187 -0.23136,-0.15291 -0.77189,-0.042 -1.00013,-0.19957 -0.22823,-0.15754 -0.31624,-0.70226 -0.54125,-0.86436 -0.22502,-0.16211 -0.76957,-0.0731 -0.99128,-0.23969 -0.22171,-0.1666 -0.287704,-0.71442 -0.506009,-0.88545 -0.218306,-0.17104 -0.766008,-0.10401 -0.980825,-0.2794 -0.214817,-0.1754 -0.258703,-0.72544 -0.469945,-0.90512 -0.211242,-0.17968 -0.761198,-0.13477 -0.968779,-0.31867 -0.207581,-0.1839 -0.229283,-0.73526 -0.433118,-0.9233 -0.203836,-0.18805 -0.755155,-0.16531 -0.955162,-0.35742 -0.200008,-0.19211 -0.199491,-0.7439 -0.39559,-0.94 -0.196098,-0.1961 -0.747885,-0.19558 -0.939995,-0.39559 -0.19211,-0.2 -0.169376,-0.75132 -0.357419,-0.95516 -0.188043,-0.20383 -0.739403,-0.22554 -0.923304,-0.43312 -0.1839,-0.20758 -0.138985,-0.75753 -0.318669,-0.96878 -0.179683,-0.21124 -0.729722,-0.25512 -0.905115,-0.46994 -0.175393,-0.21482 -0.10837,-0.76252 -0.279401,-0.98083 -0.171032,-0.2183 -0.718858,-0.2843 -0.885459,-0.50601 -0.166601,-0.2217 -0.07758,-0.76626 -0.239681,-0.99127 -0.162103,-0.22502 -0.706827,-0.31302 -0.864365,-0.54126 -0.157539,-0.22823 -0.04666,-0.76876 -0.199572,-1.00012 -0.152911,-0.23136 -0.69365,-0.34123 -0.841871,-0.57562 -0.14822,-0.23439 -0.01567,-0.77002 -0.159139,-1.00735 -0.14347,-0.23733 -0.679347,-0.36888 -0.818009,-0.60905 -0.138663,-0.24017 0.01535,-0.77003 -0.118448,-1.01295 -0.133798,-0.24291 -0.663943,-0.39593 -0.792823,-0.64149 -0.128879,-0.24556 0.04634,-0.76879 -0.07756,-1.01689 -0.123908,-0.2481 -0.647462,-0.42235 -0.766349,-0.6729 -0.118887,-0.25055 0.07726,-0.76629 -0.03656,-1.01919 -0.113817,-0.25289 -0.62993,-0.44807 -0.738632,-0.70321 -0.108703,-0.25513 0.108055,-0.76256 0.0045,-1.01983 -0.103542,-0.25727 -0.611377,-0.47308 -0.709718,-0.73238 -0.09834,-0.25931 0.138672,-0.7576 0.04557,-1.01883 -0.0931,-0.26123 -0.591833,-0.49731 -0.679653,-0.76036 -0.08782,-0.26305 0.169066,-0.7514 0.08656,-1.01617 -0.0825,-0.26476 -0.571328,-0.52073 -0.648485,-0.78711 -0.07716,-0.26638 0.199184,-0.74398 0.127407,-1.01186 -0.07178,-0.26787 -0.549897,-0.54332 -0.616265,-0.81258 -0.06637,-0.26927 0.228979,-0.73536 0.168047,-1.00591 -0.06093,-0.27055 -0.527574,-0.56502 -0.583046,-0.83674 -0.05547,-0.27172 0.258404,-0.72554 0.208415,-0.99832 -0.04999,-0.27278 -0.504395,-0.58581 -0.548881,-0.85954 -0.04449,-0.27374 0.287409,-0.71455 0.248444,-0.98912 -0.03897,-0.27458 -0.480397,-0.60565 -0.513825,-0.88095 -0.03343,-0.2753 0.315947,-0.70239 0.28807,-0.97831 -0.02788,-0.27592 -0.455621,-0.6245 -0.477936,-0.90093 -0.02232,-0.27642 0.343973,-0.6891 0.327229,-0.96592 -0.01675,-0.27682 -0.430106,-0.64233 -0.441272,-0.91943 -0.01117,-0.2771 0.371442,-0.67469 0.365857,-0.95196 -0.0056,-0.27727 -0.403892,-0.65914 -0.403892,-0.93646 0,-0.27733 0.398308,-0.65919 0.403892,-0.93646 0.0056,-0.27727 -0.377024,-0.67486 -0.365857,-0.95196 0.01117,-0.2771 0.424527,-0.64262 0.441272,-0.91944 0.01674,-0.27681 -0.349545,-0.68949 -0.327229,-0.96592 0.02232,-0.27642 0.450059,-0.625 0.477936,-0.90092 0.02788,-0.27592 -0.321498,-0.70301 -0.28807,-0.97831 0.03343,-0.2753 0.47486,-0.60637 0.513825,-0.88095 0.03896,-0.27457 -0.29293,-0.71538 -0.248444,-0.98912 0.04449,-0.27373 0.498891,-0.58676 0.548881,-0.85954 0.04999,-0.27278 -0.263887,-0.7266 -0.208415,-0.99832 0.05547,-0.27172 0.522113,-0.5662 0.583046,-0.83674 0.06093,-0.27055 -0.234415,-0.73664 -0.168047,-1.00591 0.06637,-0.26926 0.544488,-0.54471 0.616265,-0.81259 0.07178,-0.26787 -0.204564,-0.74548 -0.127407,-1.01185 0.07716,-0.26638 0.56598,-0.52235 0.648485,-0.78712 0.0825,-0.26476 -0.174381,-0.75311 -0.08656,-1.01616 0.08782,-0.26305 0.586554,-0.49913 0.679653,-0.76036 0.0931,-0.26124 -0.143914,-0.75953 -0.04557,-1.01883 0.09834,-0.2593 0.606176,-0.47511 0.709718,-0.73238 0.103543,-0.25727 -0.113214,-0.7647 -0.0045,-1.01983 0.108702,-0.25514 0.624815,-0.45032 0.738633,-0.70321 0.113817,-0.2529 -0.08233,-0.76864 0.03655,-1.01919 0.118888,-0.25055 0.642441,-0.4248 0.76635,-0.6729 0.123908,-0.24811 -0.05132,-0.77133 0.07756,-1.01689 0.12888,-0.24556 0.659025,-0.39858 0.792823,-0.6415 0.133798,-0.24291 -0.02021,-0.77277 0.118448,-1.01294 0.138662,-0.24017 0.674539,-0.37172 0.81801,-0.60905 0.14347,-0.23733 0.01092,-0.77296 0.159139,-1.00735 0.14822,-0.23439 0.688959,-0.34426 0.84187,-0.57562 0.152911,-0.23136 0.04203,-0.77189 0.199572,-1.00012 0.157538,-0.22824 0.702263,-0.31624 0.864365,-0.54126 0.162103,-0.22501 0.07308,-0.76957 0.239681,-0.99128 0.166601,-0.2217 0.714427,-0.2877 0.885459,-0.50601 0.171031,-0.2183 0.104008,-0.766 0.279401,-0.98082 0.175393,-0.21482 0.725433,-0.2587 0.905116,-0.46995 0.179683,-0.21124 0.134768,-0.76119 0.318668,-0.96877 0.183901,-0.20758 0.735261,-0.22929 0.923304,-0.43312 0.188044,-0.20384 0.16531,-0.75516 0.357419,-0.95516 0.19211,-0.20001 0.743897,-0.1995 0.939996,-0.39559 0.196098,-0.1961 0.195582,-0.74789 0.395589,-0.94 0.200008,-0.19211 0.751326,-0.16937 0.955162,-0.35742 0.203835,-0.18804 0.225538,-0.7394 0.433119,-0.9233 0.20758,-0.1839 0.757536,-0.13899 0.968778,-0.31867 0.211242,-0.17968 0.255128,-0.72972 0.469945,-0.90512 0.214818,-0.17539 0.762519,-0.10837 0.980825,-0.2794 0.218306,-0.17103 0.284299,-0.71886 0.506009,-0.88546 0.22171,-0.1666 0.76626,-0.0776 0.99128,-0.23968 0.22502,-0.1621 0.31302,-0.70682 0.54125,-0.86436 0.22824,-0.15754 0.76877,-0.0467 1.00013,-0.19957 0.23136,-0.15292 0.34123,-0.69365 0.57562,-0.84187 0.23439,-0.14823 0.77002,-0.0157 1.00735,-0.15914 0.23733,-0.14347 0.36888,-0.67935 0.60905,-0.81801 0.24017,-0.13867 0.77003,0.0153 1.01294,-0.11845 0.24292,-0.1338 0.39594,-0.66394 0.6415,-0.79282 0.24555,-0.12888 0.76878,0.0463 1.01689,-0.0776 0.2481,-0.12391 0.42234,-0.64746 0.67289,-0.76635 0.25055,-0.11889 0.7663,0.0773 1.01919,-0.0365 0.25289,-0.11382 0.44808,-0.62993 0.70321,-0.73864 0.25514,-0.1087 0.76257,0.10806 1.01984,0.005 0.25727,-0.10355 0.47307,-0.61138 0.73238,-0.70972 0.2593,-0.0983 0.75759,0.13867 1.01882,0.0456 0.26123,-0.0931 0.49731,-0.59183 0.76037,-0.67965 0.26305,-0.0878 0.75139,0.16906 1.01616,0.0866 0.26477,-0.0825 0.52074,-0.57133 0.78712,-0.64849 0.26637,-0.0772 0.74397,0.19919 1.01185,0.12741 0.26788,-0.0718 0.54332,-0.5499 0.81259,-0.61626 0.26927,-0.0664 0.73535,0.22898 1.0059,0.16804 0.27055,-0.0609 0.56503,-0.52757 0.83675,-0.58304 0.27172,-0.0555 0.72554,0.2584 0.99832,0.20841 0.27278,-0.05 0.58581,-0.50439 0.85954,-0.54888 0.27373,-0.0445 0.71455,0.28741 0.98912,0.24844 0.27457,-0.039 0.60564,-0.48039 0.88095,-0.51382 0.2753,-0.0334 0.70239,0.31595 0.97831,0.28807 0.27592,-0.0279 0.62449,-0.45562 0.90092,-0.47794 0.27643,-0.0223 0.6891,0.34398 0.96592,0.32723 0.27682,-0.0167 0.64234,-0.4301 0.91944,-0.44127 0.2771,-0.0112 0.67469,0.37144 0.95196,0.36586 0.27727,-0.006 0.65913,-0.40389 0.93646,-0.40389 0.27732,0 0.65918,0.3983 0.93645,0.40389 0.27727,0.006 0.67487,-0.37703 0.95197,-0.36586 0.2771,0.0112 0.64261,0.42453 0.91943,0.44127 0.27682,0.0168 0.6895,-0.34954 0.96592,-0.32723 0.27643,0.0223 0.625,0.45006 0.90092,0.47794 0.27592,0.0279 0.70301,-0.3215 0.97832,-0.28807 0.2753,0.0334 0.60637,0.47486 0.88094,0.51382 0.27458,0.039 0.71539,-0.29292 0.98912,-0.24844 0.27374,0.0445 0.58676,0.49889 0.85954,0.54888 0.27279,0.05 0.72661,-0.26388 0.99833,-0.20841 0.27172,0.0555 0.56619,0.52211 0.83674,0.58304 0.27055,0.0609 0.73664,-0.23441 1.0059,-0.16804 0.26927,0.0664 0.54472,0.54448 0.81259,0.61626 0.26788,0.0718 0.74548,-0.20456 1.01186,-0.12741 0.26637,0.0772 0.52234,0.56598 0.78711,0.64849 0.26477,0.0825 0.75311,-0.17438 1.01616,-0.0866 0.26306,0.0878 0.49914,0.58655 0.76037,0.67965 0.26123,0.0931 0.75952,-0.14391 1.01882,-0.0456 0.25931,0.0983 0.47512,0.60617 0.73239,0.70972 0.25727,0.10354 0.7647,-0.11322 1.01983,-0.005 0.25513,0.10871 0.45032,0.62482 0.70321,0.73864 0.25289,0.11381 0.76864,-0.0823 1.01919,0.0365 0.25055,0.11889 0.42479,0.64244 0.6729,0.76635 0.2481,0.12391 0.77133,-0.0513 1.01689,0.0776 0.24556,0.12888 0.39858,0.65902 0.64149,0.79282 0.24291,0.1338 0.77277,-0.0202 1.01294,0.11845 0.24017,0.13866 0.37172,0.67454 0.60905,0.81801 0.23733,0.14347 0.77296,0.0109 1.00735,0.15914 0.2344,0.14822 0.34426,0.68896 0.57562,0.84187 0.23136,0.15291 0.7719,0.042 1.00013,0.19957 0.22823,0.15754 0.31624,0.70226 0.54125,0.86436 0.22502,0.16211 0.76958,0.0731 0.99128,0.23968 0.22171,0.1666 0.28771,0.71443 0.50601,0.88546 0.21831,0.17103 0.76601,0.10401 0.98083,0.2794 0.21481,0.1754 0.2587,0.72544 0.46994,0.90512 0.21124,0.17968 0.7612,0.13477 0.96878,0.31867 0.20758,0.1839 0.22928,0.73526 0.43312,0.9233 0.20383,0.18805 0.75515,0.16531 0.95516,0.35742 0.20001,0.19211 0.19949,0.7439 0.39559,0.94 0.1961,0.19609 0.74788,0.19558 0.93999,0.39559 0.19211,0.2 0.16938,0.75132 0.35742,0.95516 0.18805,0.20383 0.73941,0.22554 0.92331,0.43312 0.1839,0.20758 0.13898,0.75753 0.31867,0.96878 0.17968,0.21124 0.72972,0.25512 0.90511,0.46994 0.17539,0.21482 0.10837,0.76252 0.2794,0.98082 0.17103,0.21831 0.71886,0.28431 0.88546,0.50601 0.1666,0.22171 0.0776,0.76627 0.23968,0.99128 0.16211,0.22502 0.70683,0.31302 0.86437,0.54126 0.15754,0.22823 0.0467,0.76876 0.19957,1.00012 0.15291,0.23136 0.69365,0.34123 0.84187,0.57562 0.14822,0.23439 0.0157,0.77002 0.15914,1.00735 0.14347,0.23733 0.67935,0.36888 0.81801,0.60905 0.13866,0.24017 -0.0153,0.77003 0.11845,1.01295 0.13379,0.24291 0.66394,0.39593 0.79282,0.64149 0.12888,0.24556 -0.0463,0.76878 0.0776,1.01689 0.12391,0.2481 0.64747,0.42235 0.76635,0.6729 0.11889,0.25055 -0.0773,0.76629 0.0366,1.01919 0.11382,0.25289 0.62993,0.44807 0.73863,0.70321 0.1087,0.25513 -0.10805,0.76256 -0.005,1.01983 0.10354,0.25727 0.61138,0.47308 0.70972,0.73238 0.0983,0.2593 -0.13867,0.7576 -0.0456,1.01883 0.0931,0.26123 0.59184,0.49731 0.67966,0.76036 0.0878,0.26305 -0.16907,0.7514 -0.0866,1.01616 0.0825,0.26477 0.57132,0.52074 0.64848,0.78712 0.0772,0.26638 -0.19918,0.74398 -0.12741,1.01185 0.0718,0.26788 0.5499,0.54333 0.61627,0.81259 0.0664,0.26927 -0.22898,0.73536 -0.16805,1.00591 0.0609,0.27054 0.52758,0.56502 0.58305,0.83674 0.0555,0.27172 -0.25841,0.72554 -0.20842,0.99832 0.05,0.27278 0.5044,0.58581 0.54888,0.85954 0.0445,0.27374 -0.2874,0.71455 -0.24844,0.98912 0.039,0.27458 0.4804,0.60565 0.51383,0.88095 0.0334,0.2753 -0.31595,0.70239 -0.28807,0.97831 0.0279,0.27592 0.45562,0.6245 0.47793,0.90092 0.0223,0.27643 -0.34397,0.68911 -0.32723,0.96593 0.0168,0.27681 0.43011,0.64233 0.44127,0.91943 0.0112,0.2771 -0.37144,0.67469 -0.36585,0.95196 0.006,0.27727 0.40389,0.65913 0.40389,0.93646 0,0.27732 -0.39831,0.65919 -0.40389,0.93646 -0.006,0.27727 0.37702,0.67486 0.36585,0.95196 -0.0112,0.2771 -0.42452,0.64262 -0.44127,0.91943 -0.0167,0.27682 0.34955,0.6895 0.32723,0.96593 -0.0223,0.27642 -0.45006,0.625 -0.47793,0.90092 -0.0279,0.27592 0.32149,0.70301 0.28807,0.97831 -0.0334,0.2753 -0.47486,0.60637 -0.51383,0.88095 -0.039,0.27457 0.29293,0.71538 0.24844,0.98912 -0.0445,0.27373 -0.49889,0.58676 -0.54888,0.85954 -0.05,0.27278 0.26389,0.7266 0.20842,0.99832 -0.0555,0.27172 -0.52211,0.56619 -0.58305,0.83674 -0.0609,0.27055 0.23442,0.73664 0.16805,1.00591 -0.0664,0.26926 -0.54449,0.54471 -0.61627,0.81259 -0.0718,0.26787 0.20457,0.74547 0.12741,1.01185 -0.0772,0.26638 -0.56598,0.52235 -0.64848,0.78711 -0.0825,0.26477 0.17438,0.75312 0.0866,1.01617 -0.0878,0.26305 -0.58656,0.49913 -0.67966,0.76036 -0.0931,0.26123 0.14392,0.75953 0.0456,1.01883 -0.0983,0.2593 -0.60618,0.47511 -0.70972,0.73238 -0.10354,0.25727 0.11321,0.7647 0.005,1.01983 -0.1087,0.25514 -0.62481,0.45032 -0.73863,0.70321 -0.11382,0.2529 0.0823,0.76864 -0.0366,1.01919 -0.11888,0.25055 -0.64244,0.4248 -0.76635,0.6729 -0.1239,0.2481 0.0513,0.77133 -0.0776,1.01689 -0.12888,0.24556 -0.65903,0.39858 -0.79282,0.64149 -0.1338,0.24292 0.0202,0.77278 -0.11845,1.01295 z"
       inkscape:transform-center-x="-2.6391268e-06"
       inkscape:transform-center-y="-1.5459385e-06"
       transform="matrix(4.6211811,0,0,4.6211811,-115.98628,-393.69014)" /><circle
       style="fill:#0d0d0d;fill-opacity:1;stroke-width:3.69694;stroke-linecap:round;stroke-linejoin:round"
       id="path11"
       cx="477.50461"
       cy="359.58676"
       r="201.75745" /><circle
       style="fill:#080808;fill-opacity:1;stroke-width:3.25169;stroke-linecap:round;stroke-linejoin:round"
       id="circle11"
       cx="477.50461"
       cy="359.58676"
       r="177.45819" /><circle
       style="fill:#000000;fill-opacity:1;stroke-width:2.41515;stroke-linecap:round;stroke-linejoin:round"
       id="circle12"
       cx="477.50461"
       cy="359.58676"
       r="131.80505" /><ellipse
       style="fill:#ffffff;fill-opacity:0.881579;stroke-width:3.69694;stroke-linecap:round;stroke-linejoin:round"
       id="path14"
       cx="520.04193"
       cy="18.545275"
       rx="27.595604"
       ry="34.364338"
       transform="rotate(33.00199)" /><path
       id="path15"
       style="fill:#ffffff;fill-opacity:0.03;stroke-width:3.40318;stroke-linecap:round;stroke-linejoin:round"
       d="M 477.50433,182.1288 A 177.45821,177.45821 0 0 0 300.04746,359.58566 177.45821,177.45821 0 0 0 347.84928,480.25681 C 350.36413,395.16876 406.55483,242.24385 523.3312,188.19687 A 177.45821,177.45821 0 0 0 477.50433,182.1288 Z" /><path
       style="fill:none;fill-opacity:1;stroke:#212121;stroke-width:9.24236;stroke-linecap:round;stroke-linejoin:round;stroke-dasharray:none;stroke-opacity:1"
       id="circle15"
       sodipodi:type="arc"
       sodipodi:cx="477.50461"
       sodipodi:cy="359.58676"
       sodipodi:rx="189.35329"
       sodipodi:ry="189.35329"
       sodipodi:start="3.6651914"
       sodipodi:end="5.2359878"
       sodipodi:arc-type="arc"
       d="m 313.51985,264.91012 a 189.35329,189.35329 0 0 1 114.97652,-88.22459 189.35329,189.35329 0 0 1 143.68489,18.91648"
       sodipodi:open="true" /><ellipse
       style="fill:#ffffff;fill-opacity:0.881579;stroke-width:3.69694;stroke-linecap:round;stroke-linejoin:round"
       id="ellipse15"
       cx="520.04193"
       cy="18.545275"
       rx="27.595604"
       ry="34.364338"
       transform="rotate(33.00199)" /><path
       id="path28"
       style="opacity:1;fill:#ffffff;fill-opacity:0.04;stroke:none;stroke-width:9.24236;stroke-linecap:round;stroke-linejoin:round;stroke-dasharray:none;stroke-opacity:1"
       d="m 433.03624,17.08032 c -24.29074,0.369971 -48.65227,3.110799 -63.41976,15.906871 -18.9815,16.447514 -30.7927,58.58906 -31.9642,55.985719 -1.05537,-2.345253 -2.21074,-4.111748 -3.37673,-5.49972 0.19904,2.347014 0.552,4.137807 1.11522,5.139129 6.62706,11.781471 64.06149,-25.03406 86.1517,-25.03406 18.76505,0 30.08089,-7.989294 24.48958,-46.497939 -4.29724,-0.04206 -8.63814,-0.06637 -12.99581,0 z" /><path
       style="fill:#171717;fill-opacity:1;stroke-width:3.69694;stroke-linecap:round;stroke-linejoin:round"
       d="m 334.13446,84.546872 c 0.51086,-2.554218 4.94638,-30.19896 9.63242,-42.17441 4.68602,-11.97545 24.21126,-32.5419902 86.9522,-32.5419902 h 84.86947 c 62.48062,0 87.21254,17.7028382 90.85722,37.4883732 3.64472,19.785523 8.07044,35.405667 6.50843,39.050399 -1.562,3.64467 -3.75253,2.603341 -5.05424,-1.562049 -1.30169,-4.165353 -18.69234,-49.991513 -37.62551,-56.377377 -44.23099,-14.9184 -181.2545,-8.500595 -197.08963,2.7482 -19.98055,14.193588 -33.06263,61.178939 -35.14533,60.137598 -2.08268,-1.041342 -4.42571,-4.165391 -3.90503,-6.768744 z"
       id="path8"
       sodipodi:nodetypes="sssssssssss" /><path
       style="fill:#0d0d0d;fill-opacity:1;stroke-width:3.69694;stroke-linecap:round;stroke-linejoin:round"
       d="m 600.84175,121.74859 c 11.78144,-12.51776 1.84086,-36.080711 -2.57718,-44.180438 -4.41808,-8.099776 -8.46794,-11.045115 -19.88124,-11.781469 -11.41325,-0.736341 -15.83134,-1.84084 -22.82656,-4.049876 -6.99527,-2.209023 -156.84067,-1.472669 -163.09954,0 -6.25889,1.472682 -14.35866,4.049876 -23.93107,4.78623 -9.57245,0.736341 -16.93588,4.786191 -19.88125,13.990479 -2.94534,9.204238 -13.62228,38.289714 2.20902,41.603244 15.83134,3.31357 186.29432,12.14964 249.98782,-0.36831 z"
       id="path9" /><path
       id="path22"
       style="opacity:1;fill:#ffffff;fill-opacity:0.0657895;stroke:none;stroke-width:9.24236;stroke-linecap:round;stroke-linejoin:round;stroke-dasharray:none;stroke-opacity:1"
       d="m 114.22046,175.71446 a 13.537466,32.281649 84.204786 0 0 -21.511657,15.1857 13.537466,32.281649 84.204786 0 0 25.134347,10.59343 c -0.27372,-0.0734 -0.47377,-0.14557 -0.77851,-0.21952 -25.60583,-6.2373 -16.36706,-18.31453 -2.84418,-25.55943 z" /><path
       id="path25"
       style="opacity:1;fill:#ffffff;fill-opacity:0.0300752;stroke:none;stroke-width:9.24236;stroke-linecap:round;stroke-linejoin:round;stroke-dasharray:none;stroke-opacity:1"
       d="m 327.70599,79.99141 c -1.18293,0.228282 -2.09267,0.975249 -2.42388,2.211333 -2.60335,9.111761 -18.48228,43.737077 -44.51586,45.819747 -26.03355,2.08272 -165.57437,13.53867 -212.434778,24.99347 -46.860408,11.45471 -60.398855,31.24007 -60.398855,68.72838 v 317.6098 c 0,20.02505 4.384452,44.30168 25.332557,54.4693 -0.125327,-0.11088 -0.208924,-0.20795 -0.339103,-0.32024 -30.1989334,-26.03357 -1.041336,-269.70734 0,-339.47728 1.041342,-69.76994 116.629289,-109.34195 192.647309,-110.38333 73.01992,-1.00031 94.11857,-14.59651 102.13261,-63.651405 z" /><path
       id="path26"
       style="opacity:1;fill:#ffffff;fill-opacity:0.04;stroke:none;stroke-width:9.24236;stroke-linecap:round;stroke-linejoin:round;stroke-dasharray:none;stroke-opacity:1"
       d="m 415.72995,10.30778 c -50.85813,3.009835 -67.67706,21.108371 -71.96424,32.064494 -4.68603,11.97545 -9.12019,39.621354 -9.63105,42.175572 -0.52068,2.603341 1.82179,5.726428 3.90448,6.76777 2.08268,1.041341 15.16457,-45.944996 35.14508,-60.138572 1.76751,-1.255564 5.11528,-2.445971 9.6048,-3.558212 8.91014,-7.398734 19.75597,-13.584962 32.94093,-17.311052 z" /></g></svg>
