<?xml version='1.0' encoding='utf-8'?>
<svg xmlns="http://www.w3.org/2000/svg" width="3000" height="1870" viewBox="0 0 793.74998 494.77085" version="1.1" id="svg8"> <defs id="defs2"/> <metadata id="metadata5"> </metadata> <g id="layer1" transform="translate(0,197.77085)"> <path style="opacity:1;fill:#ffa73b;fill-opacity:1;fill-rule:nonzero;stroke:none;stroke-width:8.10550499;stroke-linecap:round;stroke-linejoin:round;stroke-miterlimit:4;stroke-dasharray:none;stroke-dashoffset:0;stroke-opacity:1;paint-order:markers stroke fill" d="m 786.8376,49.614573 c 0,0 -174.59221,241.010107 -389.96261,241.010107 -215.3704,0 -389.9625882,-241.010107 -389.9625882,-241.010107 0,0 174.5921882,-241.010123 389.9625882,-241.010123 215.3704,0 389.96261,241.010123 389.96261,241.010123 z" id="path815"/> <path style="opacity:1;fill:#ffb55a;fill-opacity:1;fill-rule:nonzero;stroke:none;stroke-width:7.83054066;stroke-linecap:round;stroke-linejoin:round;stroke-miterlimit:4;stroke-dasharray:none;stroke-dashoffset:0;stroke-opacity:1;paint-order:markers stroke fill" d="m 394.8177,-152.62648 c -86.19295,1.30605 -166.59221,39.48658 -233.22326,88.353252 C 115.80519,-31.000108 74.301824,7.3657087 37.903686,49.53769 108.29918,130.23064 196.10956,201.21653 301.93078,236.86248 c 71.2228,23.00954 152.43982,18.84854 220.32699,-11.34475 91.21034,-37.0358 165.86692,-101.1867 229.70877,-171.027885 4.74192,-2.464632 3.78101,-8.007247 -0.75725,-10.089003 C 683.69507,-31.624764 600.74447,-98.74223 500.75671,-134.36432 466.93558,-146.21059 430.73965,-152.87797 394.8177,-152.62648 Z" id="path820"/> <path style="opacity:1;fill:#ffffff;fill-opacity:1;fill-rule:nonzero;stroke:none;stroke-width:7.428617;stroke-linecap:round;stroke-linejoin:round;stroke-miterlimit:4;stroke-dasharray:none;stroke-dashoffset:0;stroke-opacity:1;paint-order:markers stroke fill" d="m 395.63037,-109.70429 c -81.87243,1.5303 -157.55507,34.488832 -220.28172,76.465482 -37.05281,24.8148223 -71.5108,52.411051 -102.252493,82.7218 C 139.28753,114.61421 221.5003,171.3946 319.19797,198.81468 c 77.36567,21.15334 164.14657,6.51851 233.06232,-28.52064 64.26272,-31.4227 119.89769,-73.789784 168.49267,-120.782238 -66.83763,-64.79408 -148.41948,-122.290594 -246.86662,-149.01519 -25.29167,-6.622752 -51.5758,-10.420332 -78.25597,-10.200902 z" id="path840"/> <circle style="opacity:1;fill:#27a9e2;fill-opacity:1;fill-rule:nonzero;stroke:none;stroke-width:11.738307;stroke-linecap:round;stroke-linejoin:round;stroke-miterlimit:4;stroke-dasharray:none;stroke-dashoffset:0;stroke-opacity:1;paint-order:markers stroke fill" id="path862" cx="396.875" cy="49.614574" r="158.66499"/> <g id="g904" style="stroke:#1a90c4;stroke-width:21.24962044;stroke-miterlimit:4;stroke-dasharray:none;stroke-opacity:1" transform="matrix(1.2714746,0,0,1.2714746,-81.789771,31.465801)"> <path id="path868" d="M 376.50097,14.159122 V -84.660899" style="opacity:1;fill:none;fill-opacity:1;fill-rule:nonzero;stroke:#1a90c4;stroke-width:21.24962044;stroke-linecap:round;stroke-linejoin:round;stroke-miterlimit:4;stroke-dasharray:none;stroke-dashoffset:0;stroke-opacity:1;paint-order:markers stroke fill"/> <path style="opacity:1;fill:none;fill-opacity:1;fill-rule:nonzero;stroke:#1a90c4;stroke-width:21.24962044;stroke-linecap:round;stroke-linejoin:round;stroke-miterlimit:4;stroke-dasharray:none;stroke-dashoffset:0;stroke-opacity:1;paint-order:markers stroke fill" d="m 376.55339,14.192823 49.41002,-85.580648" id="path870"/> <path id="path872" d="M 376.58194,14.248219 462.1626,-35.161786" style="opacity:1;fill:none;fill-opacity:1;fill-rule:nonzero;stroke:#1a90c4;stroke-width:21.24962044;stroke-linecap:round;stroke-linejoin:round;stroke-miterlimit:4;stroke-dasharray:none;stroke-dashoffset:0;stroke-opacity:1;paint-order:markers stroke fill"/> <path style="opacity:1;fill:none;fill-opacity:1;fill-rule:nonzero;stroke:#1a90c4;stroke-width:21.24962044;stroke-linecap:round;stroke-linejoin:round;stroke-miterlimit:4;stroke-dasharray:none;stroke-dashoffset:0;stroke-opacity:1;paint-order:markers stroke fill" d="m 376.57897,14.310468 98.82003,1.1e-5" id="path874"/> <path id="path876" d="m 376.54527,14.362893 85.58065,49.410024" style="opacity:1;fill:none;fill-opacity:1;fill-rule:nonzero;stroke:#1a90c4;stroke-width:21.24962044;stroke-linecap:round;stroke-linejoin:round;stroke-miterlimit:4;stroke-dasharray:none;stroke-dashoffset:0;stroke-opacity:1;paint-order:markers stroke fill"/> <path style="opacity:1;fill:none;fill-opacity:1;fill-rule:nonzero;stroke:#1a90c4;stroke-width:21.24962044;stroke-linecap:round;stroke-linejoin:round;stroke-miterlimit:4;stroke-dasharray:none;stroke-dashoffset:0;stroke-opacity:1;paint-order:markers stroke fill" d="m 376.48987,14.391444 49.41001,85.580661" id="path878"/> <path id="path880" d="m 376.42762,14.38847 -10e-6,98.82003" style="opacity:1;fill:none;fill-opacity:1;fill-rule:nonzero;stroke:#1a90c4;stroke-width:21.24962044;stroke-linecap:round;stroke-linejoin:round;stroke-miterlimit:4;stroke-dasharray:none;stroke-dashoffset:0;stroke-opacity:1;paint-order:markers stroke fill"/> <path style="opacity:1;fill:none;fill-opacity:1;fill-rule:nonzero;stroke:#1a90c4;stroke-width:21.24962044;stroke-linecap:round;stroke-linejoin:round;stroke-miterlimit:4;stroke-dasharray:none;stroke-dashoffset:0;stroke-opacity:1;paint-order:markers stroke fill" d="M 376.3752,14.354769 326.96517,99.935421" id="path882"/> <path id="path884" d="M 376.34665,14.299374 290.76598,63.709377" style="opacity:1;fill:none;fill-opacity:1;fill-rule:nonzero;stroke:#1a90c4;stroke-width:21.24962044;stroke-linecap:round;stroke-linejoin:round;stroke-miterlimit:4;stroke-dasharray:none;stroke-dashoffset:0;stroke-opacity:1;paint-order:markers stroke fill"/> <path style="opacity:1;fill:none;fill-opacity:1;fill-rule:nonzero;stroke:#1a90c4;stroke-width:21.24962044;stroke-linecap:round;stroke-linejoin:round;stroke-miterlimit:4;stroke-dasharray:none;stroke-dashoffset:0;stroke-opacity:1;paint-order:markers stroke fill" d="m 376.34962,14.237125 -98.82003,-1.7e-5" id="path886"/> <path id="path888" d="M 376.38332,14.184701 290.80267,-35.225328" style="opacity:1;fill:none;fill-opacity:1;fill-rule:nonzero;stroke:#1a90c4;stroke-width:21.24962044;stroke-linecap:round;stroke-linejoin:round;stroke-miterlimit:4;stroke-dasharray:none;stroke-dashoffset:0;stroke-opacity:1;paint-order:markers stroke fill"/> <path style="opacity:1;fill:none;fill-opacity:1;fill-rule:nonzero;stroke:#1a90c4;stroke-width:21.24962044;stroke-linecap:round;stroke-linejoin:round;stroke-miterlimit:4;stroke-dasharray:none;stroke-dashoffset:0;stroke-opacity:1;paint-order:markers stroke fill" d="M 376.43872,14.156151 327.02871,-71.424515" id="path890"/> </g> <circle r="90.785873" cy="49.614574" cx="396.875" id="circle864" style="opacity:1;fill:#030c14;fill-opacity:1;fill-rule:nonzero;stroke:none;stroke-width:6.71649361;stroke-linecap:round;stroke-linejoin:round;stroke-miterlimit:4;stroke-dasharray:none;stroke-dashoffset:0;stroke-opacity:1;paint-order:markers stroke fill"/> <circle style="opacity:1;fill:#ffffff;fill-opacity:1;fill-rule:nonzero;stroke:none;stroke-width:2.22891665;stroke-linecap:round;stroke-linejoin:round;stroke-miterlimit:4;stroke-dasharray:none;stroke-dashoffset:0;stroke-opacity:1;paint-order:markers stroke fill" id="circle866" cx="432.98096" cy="-19.708775" r="30.127939"/> </g> </svg>