<?xml version='1.0' encoding='utf-8'?>
<svg xmlns="http://www.w3.org/2000/svg" width="2000" height="3000" viewBox="0 0 529.16665 793.75002" version="1.1" id="svg8"> <defs id="defs2"/> <metadata id="metadata5"> </metadata> <g id="layer1" transform="translate(0,496.75002)"> <path style="opacity:1;fill:#007df2;fill-opacity:1;fill-rule:nonzero;stroke:none;stroke-width:1.08120084;stroke-linecap:round;stroke-linejoin:round;stroke-miterlimit:4;stroke-dasharray:none;stroke-dashoffset:0;stroke-opacity:1;paint-order:normal" d="m 121.28492,-395.77341 c -30.301146,-17.8178 -53.561606,-11.30479 -68.548126,19.61963 -0.28077,16.17998 6.06449,116.86749 -2.44665,140.99713 -8.51115,24.12962 -37.50427,29.4068 -23.50277,88.60893 14.00151,59.202152 41.7713,124.423482 42.40561,154.4921138 0.63443,30.0686272 21.12634,163.0907562 15.8818,198.8376562 -5.24455,35.74692 -31.13151,61.88714 16.212646,65.02082 47.34418,3.13365 41.34501,15.74624 46.81759,-99.76501 5.47262,-115.511229 71.73417,-384.59941 28.57911,-429.27858 -43.15508,-44.67921 -56.02836,-35.65409 -55.39921,-138.53269 z" id="path845"/> <path style="opacity:1;fill:#178fff;fill-opacity:1;fill-rule:nonzero;stroke:none;stroke-width:1.08120084;stroke-linecap:round;stroke-linejoin:round;stroke-miterlimit:4;stroke-dasharray:none;stroke-dashoffset:0;stroke-opacity:1;paint-order:normal" d="m 91.401754,-405.55237 c -16.06777,-0.20475 -29.06439,9.58768 -38.66514,29.39863 -0.28077,16.18001 6.06448,116.86769 -2.44665,140.99732 -8.51115,24.12961 -37.50423,29.4068 -23.50273,88.60892 14.00151,59.202158 41.77136,124.423261 42.40565,154.4918916 0.63443,30.0686294 21.12666,163.0904984 15.8821,198.8374184 -5.24455,35.74691 -31.13199,61.88747 16.212156,65.02115 12.42669,0.82249 21.17431,2.29457 27.42302,1.9349 0.52763,-49.50271 -7.52488,-226.190872 -8.99935,-312.315685 -1.72238,-100.607285 15.78124,-176.603305 -6.79158,-208.208685 -20.716176,-29.00581 -15.158876,-57.61442 -20.469106,-158.73649 -0.35067,-0.0138 -0.70058,-0.025 -1.04838,-0.0294 z" id="path896"/> <path style="opacity:1;fill:#4db4ff;fill-opacity:1;fill-rule:nonzero;stroke:none;stroke-width:1.08120084;stroke-linecap:round;stroke-linejoin:round;stroke-miterlimit:4;stroke-dasharray:none;stroke-dashoffset:0;stroke-opacity:1;paint-order:normal" d="m 65.451404,-394.71359 c -4.73839,4.67429 -8.98328,10.85995 -12.71479,18.55985 -0.28077,16.18001 6.06448,116.86769 -2.44665,140.99732 -8.51115,24.12961 -37.50423,29.4068 -23.50273,88.60892 14.00151,59.202158 41.77136,124.423261 42.40565,154.4918916 0.63443,30.0686294 21.12666,163.0904984 15.8821,198.8374184 -5.24455,35.74691 -31.13199,61.88747 16.212156,65.02115 0.0457,0.003 0.089,0.006 0.13452,0.01 17.85549,-130.89928 -55.443476,-455.06829 -35.573426,-470.86137 18.31151,-14.55434 13.20227,-86.16188 -0.39683,-195.66475 z" id="path891"/> <path style="opacity:1;fill:#e23a3a;fill-opacity:1;fill-rule:nonzero;stroke:none;stroke-width:1.08120084;stroke-linecap:round;stroke-linejoin:round;stroke-miterlimit:4;stroke-dasharray:none;stroke-dashoffset:0;stroke-opacity:1;paint-order:normal" d="M 307.1926,-180.22082 C 426.75724,-272.81631 540.79083,-168.32321 496.59763,62.863738 452.40441,294.05069 354.90453,344.89621 188.90374,205.57813 22.902944,66.260071 4.0488437,-141.66791 97.988584,-160.34499 191.92833,-179.02206 189.0175,-121.19694 307.1926,-180.22082 Z" id="path837"/> <path style="opacity:1;fill:#f55f5f;fill-opacity:1;fill-rule:nonzero;stroke:none;stroke-width:1.08120084;stroke-linecap:round;stroke-linejoin:round;stroke-miterlimit:4;stroke-dasharray:none;stroke-dashoffset:0;stroke-opacity:1;paint-order:normal" d="m 361.71914,-209.30225 c -17.66644,5.1517 -36.03005,14.7572 -54.52651,29.08158 -118.1751,59.02388 -115.26421,1.19856 -209.203946,19.87561 -93.9397403,18.67711 -75.08597,226.60536 90.914816,365.92342 70.92562,59.52515 129.34605,84.33332 176.44686,75.19516 100.0192,-154.99398 174.664,-473.60453 -3.63122,-490.07577 z" id="path855"/> <path style="opacity:1;fill:#ff8989;fill-opacity:1;fill-rule:nonzero;stroke:none;stroke-width:1.08120084;stroke-linecap:round;stroke-linejoin:round;stroke-miterlimit:4;stroke-dasharray:none;stroke-dashoffset:0;stroke-opacity:1;paint-order:normal" d="m 267.27226,-162.88349 c -79.09508,28.11861 -87.38182,-13.74522 -169.283576,2.53843 -93.9397403,18.67711 -75.08597,226.60536 90.914816,365.92342 7.81356,6.5576 15.47515,12.69261 22.98677,18.40865 129.4492,4.42806 201.40496,-387.24109 55.38199,-386.8705 z" id="path860"/> <path style="opacity:1;fill:#e55353;fill-opacity:1;fill-rule:nonzero;stroke:none;stroke-width:1.08120084;stroke-linecap:round;stroke-linejoin:round;stroke-miterlimit:4;stroke-dasharray:none;stroke-dashoffset:0;stroke-opacity:1;paint-order:normal" d="m 60.702334,-44.1067 c 28.86258,33.430862 32.43635,32.663439 39.14564,50.8501706 6.709336,18.1867064 9.324956,15.5688284 6.075856,29.1645804 -3.2491,13.595782 2.30682,21.188325 -3.88257,24.573657 -6.189366,3.385302 -9.570166,7.662908 -9.570166,7.662908 0,0 9.445286,-1.280546 12.762486,-4.983722 3.31722,-3.703202 3.95976,6.252949 8.68465,10.846199 4.72495,4.593216 9.19327,6.250685 9.19327,6.250685 0,0 -10.02424,-9.250044 -12.00638,-17.61001 -1.98214,-8.359992 -0.52447,-32.039048 2.157,-29.99787 2.68145,2.041177 6.13488,18.123133 16.85846,21.054381 10.72355,2.931217 12.76701,5.483259 13.28242,16.588282 0.51538,11.105022 13.41408,25.906423 13.41408,25.906423 0,0 -8.1125,-16.016109 -7.92403,-22.97294 0.18846,-6.956798 1.08077,-9.76543 10.71903,-7.535792 9.63829,2.229665 20.16887,1.650671 20.16887,1.650671 0,0 -32.61801,-10.006107 -47.62145,-21.551618 C 117.15602,34.24379 115.16709,10.18329 108.20571,-0.47218354 101.24437,-11.127654 101.37151,-12.276525 115.79603,-11.261598 c 14.42448,1.014926 19.21295,5.0337275 22.72771,15.3077256 3.51471,10.2740244 5.8783,15.1873844 5.8783,15.1873844 0,0 2.73825,-14.2337599 -2.24323,-21.7627297 -4.98147,-7.5289943 4.91561,2.86991014 14.74462,3.37624079 9.829,0.50633061 13.01905,-2.04800189 13.01905,-2.04800189 0,0 -5.16991,-0.5721692 -14.74463,-3.3762419 -9.57469,-2.8040715 -22.97973,-7.7764713 -20.93856,-10.4579233 2.04118,-2.681482 9.76091,-9.386247 18.50462,-9.5815 8.74368,-0.195284 23.67905,1.457653 23.67905,1.457653 0,0 -20.36412,-10.394349 -32.4886,-5.921486 -12.12448,4.472893 -15.31226,12.260691 -25.01412,10.605489 -9.70185,-1.6552 -29.807146,-3.880306 -44.558586,-22.957054 -14.75143,-19.076777 -13.65932,-2.674658 -13.65932,-2.674658 z" id="path918"/> <path style="opacity:1;fill:#ff6472;fill-opacity:1;fill-rule:nonzero;stroke:none;stroke-width:1.08120084;stroke-linecap:round;stroke-linejoin:round;stroke-miterlimit:4;stroke-dasharray:none;stroke-dashoffset:0;stroke-opacity:1;paint-order:normal" d="m 402.35395,-325.52374 c -33.09024,-68.78713 -69.9768,-61.24001 -66.42118,-103.87548 3.55565,-42.63547 13.50954,-48.51153 13.50954,-48.51153 l -37.83755,-4.45766 c 0,0 13.49554,69.95687 -26.34505,58.99052 -33.65425,-9.26353 -24.91642,-58.57895 -24.91642,-58.57895 l -27.69561,8.5643 c 0,0 17.38293,53.09343 1.6847,58.33374 -15.69825,5.24031 -20.95669,-52.32599 -20.95669,-52.32599 l -28.42363,10.68065 c 0,0 28.3146,32.33626 10.20054,59.40517 -18.11411,27.06889 -66.71196,108.91136 -27.10993,181.908 39.60202,72.99664 58.7605,99.53881 58.7605,99.53881 l 64.16443,-96.40089 c 0,0 -72.64693,-37.11367 -52.63013,-91.88268 20.01677,-54.76903 80.28038,-21.35175 96.25106,12.97824 15.97069,34.32999 67.76542,-34.36625 67.76542,-34.36625 z" id="path847"/> <path style="opacity:1;fill:#ff7682;fill-opacity:1;fill-rule:nonzero;stroke:none;stroke-width:1.08120084;stroke-linecap:round;stroke-linejoin:round;stroke-miterlimit:4;stroke-dasharray:none;stroke-dashoffset:0;stroke-opacity:1;paint-order:normal" d="m 311.6045,-482.36859 c 0,0 13.49601,69.95721 -26.34458,58.99087 -33.65425,-9.26353 -24.91676,-58.57897 -24.91676,-58.57897 l -27.69547,8.56437 c 0,0 17.38319,53.09309 1.68496,58.3334 -15.69825,5.24031 -20.95712,-52.326 -20.95712,-52.326 l -28.42325,10.68066 c 0,0 28.31428,32.3362 10.20022,59.4051 -18.1141,27.06891 -66.71207,108.91135 -27.11004,181.908 24.60264,45.34894 41.30242,72.74634 50.43286,87.01163 46.48351,-24.31805 20.44097,20.59125 -1.84777,-18.72344 -39.11972,-160.41402 -22.80639,-178.50499 16.83774,-207.5789 57.96655,-42.51104 135.78555,-3.94397 167.45898,35.61271 8.56764,4.94746 10.82146,4.30131 1.42977,-6.45434 -33.09025,-68.78713 -69.97674,-61.24014 -66.4211,-103.87559 3.55563,-42.63548 13.5092,-48.51152 13.5092,-48.51152 z" id="path873"/> <path style="opacity:1;fill:#ff8b95;fill-opacity:1;fill-rule:nonzero;stroke:none;stroke-width:1.08120084;stroke-linecap:round;stroke-linejoin:round;stroke-miterlimit:4;stroke-dasharray:none;stroke-dashoffset:0;stroke-opacity:1;paint-order:normal" d="m 311.6045,-482.36859 c 0,0 0.18092,0.97755 0.42331,2.50395 0.0297,0.187 0.0471,0.27398 0.0789,0.48036 0.0152,0.0986 0.0326,0.2229 0.0483,0.32576 0.35844,2.3645 0.82025,5.82881 1.16537,9.93435 0.10801,1.28512 0.20449,2.63076 0.28238,4.0213 0.0519,0.92701 0.0956,1.87386 0.12901,2.8362 0.0164,0.48119 0.0309,0.96611 0.0421,1.4544 0,1.8e-4 -7e-5,2.9e-4 -7e-5,5.7e-4 0.0112,0.48811 0.0198,0.97984 0.0252,1.47391 0.0108,0.98846 0.01,1.98784 -0.006,2.99323 -0.0159,1.0054 -0.0465,2.01664 -0.093,3.02975 -0.31462,6.83851 -1.37608,13.74757 -3.81187,19.3114 -0.0903,0.20607 -0.18231,0.41021 -0.27633,0.6125 -8e-5,1.5e-4 2e-5,2.8e-4 -7e-5,5.6e-4 -0.28205,0.60691 -0.58137,1.19637 -0.89876,1.76684 -0.42322,0.7606 -0.87869,1.48694 -1.36832,2.17468 -0.24484,0.34388 -0.49796,0.67799 -0.76018,1.00193 -0.26218,0.32392 -0.53339,0.63753 -0.81346,0.94036 -0.14006,0.15141 -0.28255,0.30036 -0.42716,0.44629 -0.1446,0.14593 -0.29117,0.28878 -0.44041,0.42906 -0.14934,0.1404 -0.30086,0.2777 -0.45487,0.41231 -0.15406,0.1346 -0.31047,0.26629 -0.46925,0.39496 -0.15859,0.1285 -0.31956,0.25414 -0.48296,0.37658 -0.32705,0.24506 -0.66366,0.47773 -1.01037,0.69766 -0.34671,0.21994 -0.70352,0.42709 -1.07042,0.62075 -0.36687,0.19365 -0.74422,0.37408 -1.1318,0.54031 -0.38743,0.16616 -0.78523,0.31827 -1.19385,0.45587 -1.5e-4,5e-5 10e-6,-7e-5 0,0 -0.8174,0.27522 -1.67799,0.49263 -2.5832,0.64669 -0.45269,0.077 -0.91645,0.13823 -1.3919,0.18324 -0.47541,0.045 -0.96282,0.0737 -1.46147,0.0856 -0.79337,0.0186 -1.61789,-0.008 -2.4717,-0.0762 15.29189,9.24862 32.58102,0.38318 48.33079,-46.18504 1.31413,-3.88561 2.48992,-7.24977 3.55318,-10.18337 z m 37.17101,5.00592 c -0.25406,0.24271 -0.57328,0.58005 -0.94381,1.03612 0.37077,-0.45638 0.68962,-0.79328 0.94381,-1.03612 z m -88.43235,-4.59402 -27.69547,8.56437 c 0,0 0.0679,0.20722 0.19134,0.59737 0.1235,0.39014 0.30243,0.96289 0.52476,1.69389 0.22239,0.73113 0.48795,1.62 0.78457,2.64287 0.14825,0.51128 0.30434,1.05574 0.46653,1.63068 0.48665,1.72492 1.02899,3.72232 1.58557,5.90928 0.18551,0.72892 0.37263,1.47848 0.55974,2.2464 0.18716,0.76809 0.37384,1.55395 0.55953,2.35489 0.37131,1.60152 0.73677,3.26233 1.08371,4.95826 0.69389,3.39184 1.31426,6.9236 1.76286,10.39732 0.11213,0.86843 0.21377,1.7331 0.30289,2.59125 0.0445,0.42908 0.0858,0.85656 0.12406,1.28191 0.0764,0.8507 0.14008,1.69294 0.1889,2.52411 0.0732,1.24675 0.11335,2.46828 0.1156,3.65376 0.001,0.79031 -0.0137,1.56433 -0.0476,2.31971 10e-6,2e-4 -3e-5,3e-4 -7e-5,5.8e-4 -0.0337,0.7552 -0.0858,1.49163 -0.15809,2.20576 -0.0361,0.35716 -0.0784,0.70853 -0.12359,1.05438 -0.0927,0.69144 -0.20602,1.35939 -0.3417,2.00049 -0.0679,0.32056 -0.14138,0.63453 -0.22052,0.94134 -0.2376,0.92071 -0.52701,1.77742 -0.87364,2.56054 -0.17318,0.39123 -0.36034,0.7641 -0.56266,1.11709 -1.3e-4,2.2e-4 -3e-5,2.9e-4 -7e-5,5.7e-4 -0.0674,0.11751 -0.13627,0.23335 -0.20695,0.34642 -0.14165,0.22657 -0.29016,0.44404 -0.44546,0.65226 -0.31058,0.41642 -0.64895,0.79539 -1.01647,1.13375 -0.092,0.0847 -0.18564,0.16645 -0.2813,0.246 -0.0955,0.0795 -0.19281,0.1566 -0.292,0.23077 -0.29785,0.22277 -0.61289,0.42173 -0.94513,0.59583 -0.1106,0.058 -0.22309,0.11319 -0.3376,0.16555 -0.11467,0.0524 -0.23178,0.10228 -0.35042,0.14899 -0.11846,0.0467 -0.23888,0.0906 -0.36138,0.13144 -0.16742,0.0559 -0.33373,0.10207 -0.49879,0.14381 -0.0765,0.0194 -0.15334,0.0398 -0.22937,0.0561 -0.12035,0.0258 -0.23963,0.048 -0.3587,0.0665 -0.11884,0.0185 -0.237,0.0334 -0.3546,0.0446 -0.11757,0.0111 -0.23473,0.0189 -0.35105,0.023 -0.11616,0.003 -0.2321,0.004 -0.34701,0.002 -0.11488,-0.003 -0.22934,-0.01 -0.343,-0.0195 -0.11401,-0.01 -0.22737,-0.0231 -0.34018,-0.04 -0.11258,-0.0166 -0.22427,-0.0368 -0.33566,-0.0602 -0.22273,-0.0468 -0.44299,-0.10704 -0.66083,-0.17994 -0.10909,-0.0364 -0.21736,-0.0762 -0.32521,-0.11919 -0.21543,-0.0856 -0.42811,-0.18356 -0.6387,-0.29384 -0.31571,-0.16537 -0.62622,-0.35808 -0.93118,-0.57639 -1.3e-4,-9e-5 0,7e-5 0,0 -0.10174,-0.0729 -0.20268,-0.14846 -0.30319,-0.22694 -0.10045,-0.0785 -0.20026,-0.15994 -0.29958,-0.24395 -0.29797,-0.25202 -0.59061,-0.52866 -0.87801,-0.82851 -0.38322,-0.3998 -0.7569,-0.84085 -1.12162,-1.31923 -0.18245,-0.2393 -0.36253,-0.48748 -0.54037,-0.74505 -0.35561,-0.51492 -0.70215,-1.06554 -1.03971,-1.64802 -0.50636,-0.87373 -0.99259,-1.81925 -1.45928,-2.82436 -0.31115,-0.67005 -0.61357,-1.36663 -0.9075,-2.08589 -0.29388,-0.71925 -0.57936,-1.46136 -0.85635,-2.22247 -0.27701,-0.76111 -0.54572,-1.54101 -0.80608,-2.33663 -8e-5,-1.7e-4 9e-5,-2.7e-4 6e-5,-5.7e-4 -0.13018,-0.39765 -0.25845,-0.79905 -0.3845,-1.20392 -5e-5,-1.7e-4 1.1e-4,-2.9e-4 5e-5,-5.9e-4 -1.00885,-3.2403 -1.88751,-6.69781 -2.64605,-10.13754 -5e-5,-1.8e-4 8e-5,-2.9e-4 6e-5,-5.8e-4 -0.94816,-4.29969 -1.70896,-8.57157 -2.30154,-12.35641 -3e-5,-1.7e-4 1e-4,-2.7e-4 6e-5,-5.6e-4 -0.23705,-1.51398 -0.44705,-2.94989 -0.63164,-4.27863 -0.18458,-1.32874 -0.34339,-2.55013 -0.47804,-3.63484 -0.26923,-2.16912 -0.44144,-3.79154 -0.52614,-4.63234 -4e-5,-3e-4 9e-5,-2.1e-4 6e-5,-5.8e-4 -0.0424,-0.42035 -0.0629,-0.645 -0.0629,-0.645 l -28.42326,10.68066 c 0,0 0.11022,0.12626 0.31324,0.3697 0.30438,0.36509 0.81663,0.99357 1.47545,1.85534 0.43898,0.57418 0.94276,1.2514 1.49342,2.02313 1.1e-4,1.3e-4 -1.5e-4,5.6e-4 -7e-5,5.8e-4 0.55065,0.77164 1.14854,1.63747 1.77436,2.58826 0.93886,1.42637 1.94165,3.04369 2.94713,4.82157 10e-5,1.4e-4 -1.5e-4,5.6e-4 -7e-5,5.6e-4 0.50269,0.88884 1.00645,1.818 1.50267,2.78307 0.33085,0.64346 0.65849,1.3026 0.98076,1.97708 8e-5,1.4e-4 -10e-5,2.8e-4 -5e-5,5.7e-4 0.32223,0.67436 0.63928,1.36376 0.94839,2.06683 0.77291,1.75805 1.49756,3.60206 2.13854,5.51458 4e-5,1.5e-4 -1.1e-4,2.8e-4 -7e-5,5.6e-4 0.25633,0.76485 0.49959,1.54064 0.72686,2.32619 4e-5,1.5e-4 -9e-5,2.7e-4 -6e-5,5.6e-4 0.34088,1.17839 0.64681,2.37865 0.90943,3.59715 2e-5,1.6e-4 -9e-5,2.7e-4 -7e-5,5.6e-4 0.61277,2.84341 0.9914,5.78541 1.03829,8.7769 8e-4,0.0473 -2e-4,0.0948 -2.9e-4,0.14223 0.0108,0.80806 -0.002,1.61901 -0.0434,2.4332 -0.0428,0.85799 -0.11491,1.71931 -0.21829,2.58191 -4.1e-4,0.003 -7.6e-4,0.006 -8.6e-4,0.0108 l -6e-5,5.7e-4 c -0.15617,1.29929 -0.38347,2.60259 -0.68972,3.90585 -6e-5,1.7e-4 -3e-5,2.8e-4 -7e-5,5.6e-4 -0.20416,0.86879 -0.44348,1.7374 -0.72002,2.60508 -8e-5,1.7e-4 -10e-6,2.9e-4 -7e-5,5.7e-4 -0.96819,3.03731 -2.39408,6.06104 -4.37522,9.02153 -1.13204,1.69168 -2.38323,3.59759 -3.72444,5.70162 -1.1e-4,1.4e-4 6e-5,2.9e-4 -7e-5,5.6e-4 -1.0059,1.57803 -2.06286,3.26754 -3.15788,5.06221 -1e-4,1.4e-4 5e-5,2.8e-4 -7e-5,5.6e-4 -0.72999,1.19642 -1.47721,2.43937 -2.23776,3.72722 -6e-5,1.5e-4 7e-5,2.9e-4 -6e-5,5.6e-4 -1.90154,3.21988 -3.88741,6.71939 -5.90074,10.46828 -0.80528,1.49948 -1.61507,3.03922 -2.42556,4.61653 -8e-5,1.6e-4 2e-5,2.9e-4 -6e-5,5.7e-4 -0.4052,0.78858 -0.81091,1.58658 -1.21608,2.39391 -8e-5,1.5e-4 2e-5,2.8e-4 -7e-5,5.6e-4 -0.81038,1.61482 -1.6199,3.26653 -2.4246,4.95336 -8e-5,1.6e-4 2e-5,2.9e-4 -7e-5,5.6e-4 -0.8048,1.68699 -1.60487,3.40875 -2.39676,5.16388 -0.79192,1.75512 -1.57561,3.5433 -2.34738,5.3627 -0.38587,0.9097 -0.76887,1.82713 -1.14836,2.75218 -0.75897,1.85008 -1.5044,3.73055 -2.23236,5.63908 -0.72789,1.90835 -1.4383,3.84512 -2.12797,5.80802 -5e-5,1.8e-4 2e-5,2.9e-4 -6e-5,5.8e-4 -0.68971,1.96308 -1.35842,3.95205 -2.00263,5.9658 -1.28842,4.02752 -2.47868,8.15264 -3.54165,12.35956 -0.26573,1.05173 -0.52364,2.10862 -0.77305,3.17034 -0.37406,1.5926 -0.72935,3.19621 -1.0641,4.80994 -0.11157,0.53791 -0.22094,1.07681 -0.32791,1.61695 -0.32094,1.62042 -0.62065,3.25077 -0.89816,4.89013 -0.0924,0.54645 -0.18258,1.09403 -0.27004,1.64246 -0.1749,1.09688 -0.33957,2.19747 -0.4936,3.30191 -0.61611,4.41778 -1.06163,8.89397 -1.30742,13.4135 -2e-5,1.7e-4 -2e-5,0 0,0 -0.0308,0.56474 -0.0582,1.13031 -0.0826,1.69639 -0.0489,1.13252 -0.0852,2.26784 -0.10817,3.40525 -0.0575,2.84354 -0.0328,5.70149 0.0814,8.57035 0.0228,0.57378 0.0492,1.14812 0.0791,1.72272 0.0851,1.62936 0.20085,3.26229 0.34561,4.89736 0.009,0.0947 0.0156,0.18911 0.0243,0.28378 1e-5,1.7e-4 -6e-5,-10e-6 0,0 0.10455,1.15329 0.22438,2.30828 0.35978,3.4638 0.13542,1.1557 0.28639,2.31222 0.45357,3.46969 0.14883,1.03029 0.31279,2.06155 0.48745,3.09286 0.0215,0.12712 0.041,0.25418 0.0628,0.38135 0.0296,0.17164 0.0622,0.34336 0.0925,0.51503 0.14256,0.80688 0.29332,1.61386 0.45216,2.42112 0.0355,0.18039 0.0685,0.36076 0.10476,0.54115 4e-5,1.7e-4 -3e-5,-1e-5 0,0 0.11662,0.57958 0.23774,1.15929 0.36294,1.73896 3e-5,1.8e-4 -5e-5,-1e-5 0,0 0.12523,0.5797 0.25492,1.15929 0.38881,1.73901 3e-5,1.7e-4 -6e-5,-1e-5 0,0 0.13389,0.5797 0.27252,1.15939 0.41519,1.7391 4e-5,1.8e-4 -5e-5,0 0,0 0.42811,1.73947 0.89608,3.4788 1.40528,5.21703 5e-5,1.4e-4 -8e-5,-1e-5 0,0 0.67895,2.31767 1.43178,4.63328 2.26125,6.94531 0.069,0.19227 0.14161,0.38436 0.21163,0.57657 0.27939,0.76666 0.56719,1.53291 0.86371,2.2986 0.0762,0.19669 0.14969,0.39346 0.22701,0.59008 6e-5,1.5e-4 -7e-5,0 0,0 0.4537,1.1538 0.92708,2.30634 1.42069,3.45754 9e-5,2.1e-4 0,0 0,0 0.49357,1.15111 1.00758,2.30103 1.54193,3.44903 0.53446,1.14823 1.08934,2.29502 1.6655,3.43968 0.28809,0.57231 0.58123,1.14385 0.87993,1.71521 1.1e-4,2.2e-4 0,0 0,0 0.29857,0.57111 0.60251,1.14196 0.91175,1.71201 2.47514,4.56227 4.87043,8.94291 7.18614,13.14714 7e-5,1.3e-4 -9e-5,-1e-5 0,0 1.1578,2.10197 2.29608,4.15976 3.41414,6.17404 1.76938,3.18771 3.47464,6.23572 5.14478,9.20775 0.44062,0.7841 0.89245,1.59172 1.32618,2.36105 0.43561,0.77261 0.85305,1.50726 1.2817,2.26503 1.61608,2.85693 3.19723,5.63921 4.71478,8.28828 3.83994,6.70322 7.36461,12.74871 10.57701,18.17523 1.60616,2.71327 3.1345,5.27163 4.58474,7.68029 5.07583,8.43036 9.19831,15.02501 12.38106,19.99218 0.90935,1.41917 1.74211,2.70513 2.49835,3.8635 7e-5,9e-5 -9e-5,-1e-5 0,0 0.75609,1.15818 1.43608,2.18834 2.03973,3.09545 2.41505,3.62915 3.61224,5.28813 3.61224,5.28813 -20.53554,-37.74255 -34.92514,-71.67178 -43.78228,-101.84287 -8.85712,-30.17112 -12.18185,-56.58423 -10.58697,-79.29528 1.59488,-22.71104 18.12908,-57.64107 34.0511,-67.61973 58.02122,-36.36313 51.05779,-70.7651 54.44784,-87.4152 6e-5,-1.6e-4 5e-5,-2.8e-4 7e-5,-5.8e-4 -0.0216,-0.10033 -0.0456,-0.20053 -0.0667,-0.30081 -0.0896,-0.42519 -0.17479,-0.85045 -0.25522,-1.27508 -0.1608,-0.84924 -0.30363,-1.69662 -0.43003,-2.53954 -0.11425,-0.76214 -0.21303,-1.52019 -0.30157,-2.27293 -0.01,-0.0798 -0.0206,-0.16026 -0.0296,-0.23995 -0.0476,-0.41557 -0.091,-0.82894 -0.13143,-1.24056 -0.12093,-1.23501 -0.21037,-2.45043 -0.27313,-3.63746 -0.0209,-0.39544 -0.0389,-0.78762 -0.0542,-1.17637 -10e-6,-1.8e-4 7e-5,-2.9e-4 7e-5,-5.7e-4 -0.0157,-0.38872 -0.028,-0.77409 -0.038,-1.15546 -1e-5,-1.9e-4 6e-5,-2.8e-4 6e-5,-5.7e-4 -0.0202,-0.76309 -0.0292,-1.51059 -0.0303,-2.2401 -0.003,-2.18853 0.0708,-4.21358 0.18077,-6.0016 0.0733,-1.19203 0.16246,-2.27835 0.2549,-3.23782 3e-5,-1.9e-4 5e-5,-2.8e-4 6e-5,-5.6e-4 0.0923,-0.95924 0.18845,-1.79127 0.27387,-2.47458 3e-5,-2.4e-4 1e-5,-2.8e-4 6e-5,-5.6e-4 0.0866,-0.68329 0.16409,-1.21712 0.21989,-1.58057 0.0557,-0.36346 0.0897,-0.55614 0.0897,-0.55614 z m 10.58444,50.22407 c 0.31343,0.32437 0.6353,0.64332 0.96511,0.95564 -0.32999,-0.3125 -0.65151,-0.63107 -0.96511,-0.95564 z m 1.67879,1.60801 c 0.20254,0.17987 0.40824,0.35731 0.61676,0.53259 -0.20852,-0.17528 -0.41422,-0.35273 -0.61676,-0.53259 z m 1.9202,1.57007 c 0.30709,0.23018 0.62196,0.45431 0.94111,0.67474 -0.31926,-0.22049 -0.63392,-0.44447 -0.94111,-0.67474 z m 9.18648,4.71332 c 0.50533,0.16395 1.02101,0.31876 1.54685,0.4635 -0.52584,-0.14474 -1.04152,-0.29955 -1.54685,-0.4635 z m 3.45262,0.93469 c 0.55082,0.1209 1.09097,0.22562 1.62015,0.31421 -0.52918,-0.0887 -1.06933,-0.19331 -1.62015,-0.31421 z m 60.91234,28.49773 c 0.0892,1.13073 0.1855,2.24918 0.29758,3.33999 1.85479,18.05077 33.52824,40.49572 41.57394,49.72668 8.04573,9.23095 12.40449,15.81863 12.40449,15.81863 -0.51711,-1.07494 -1.03498,-2.13113 -1.55377,-3.16927 -0.5186,-1.03779 -1.0381,-2.05761 -1.55803,-3.05957 -1.1e-4,-2.3e-4 4e-5,-2.9e-4 6e-5,-5.7e-4 -0.52007,-1.00219 -1.04024,-1.98637 -1.56132,-2.95369 -0.52121,-0.96757 -1.04292,-1.91754 -1.56479,-2.85121 -0.52162,-0.9332 -1.04336,-1.84977 -1.56532,-2.75007 -1.4e-4,-2.3e-4 5e-5,-2.8e-4 7e-5,-5.6e-4 -0.52207,-0.9005 -1.04387,-1.78436 -1.56594,-2.6529 -1.04418,-1.73708 -2.08812,-3.41121 -3.13023,-5.02623 -2.08432,-3.23014 -4.16157,-6.22392 -6.22156,-9.01211 -0.24944,-0.33764 -0.49773,-0.66278 -0.74666,-0.99443 -0.5259,-0.70073 -1.05058,-1.38868 -1.57382,-2.06352 -0.25166,-0.32455 -0.50412,-0.65526 -0.7551,-0.974 -0.50975,-0.64737 -1.01814,-1.28278 -1.52483,-1.90688 -1.7e-4,-2.1e-4 3e-5,-2.8e-4 6e-5,-5.8e-4 -0.50685,-0.62428 -1.012,-1.23696 -1.51547,-1.83895 -2.01409,-2.40808 -3.99969,-4.64117 -5.94623,-6.73085 -0.48658,-0.52239 -0.97025,-1.03581 -1.4518,-1.54072 -1.44461,-1.51473 -2.86578,-2.95285 -4.25873,-4.32758 -0.72653,-0.71703 -1.44317,-1.4119 -2.15373,-2.09622 -0.19767,-0.19039 -0.3968,-0.38469 -0.59318,-0.57271 -1.4e-4,-1e-4 -10e-6,10e-5 0,0 -0.9023,-0.86393 -1.79035,-1.70345 -2.66362,-2.52255 -1.74654,-1.63817 -3.43258,-3.1941 -5.04676,-4.69923 -1.61419,-1.50514 -3.15666,-2.95921 -4.6169,-4.39309 -0.36516,-0.35856 -0.72511,-0.71579 -1.07979,-1.07233 -0.28927,-0.29075 -0.57265,-0.58091 -0.85475,-0.8709 -0.0638,-0.0655 -0.12961,-0.13126 -0.19296,-0.19674 -0.19613,-0.20273 -0.38613,-0.40502 -0.57864,-0.60763 z" id="path868"/> <path style="opacity:1;fill:#007df2;fill-opacity:1;fill-rule:nonzero;stroke:none;stroke-width:1.08120084;stroke-linecap:round;stroke-linejoin:round;stroke-miterlimit:4;stroke-dasharray:none;stroke-dashoffset:0;stroke-opacity:1;paint-order:normal" d="m 501.42614,-334.78061 c -14.07705,-1.56118 -53.28799,-2.5027 -76.09914,1.33259 -104.2796,17.53273 -70.81701,61.9397 -120.86793,30.81565 -19.70347,-12.25256 -40.52864,-15.97638 -58.54145,-15.99031 -2.90795,3.91734 -5.46846,8.70979 -7.57998,14.48723 -7.78814,21.30944 -1.54467,39.94217 8.98571,54.7601 12.18694,1.5675 21.96324,4.65876 23.33711,10.45326 3.96428,16.71996 -79.22262,106.36336 -82.53755,115.30006 -3.31492,8.93667 17.25126,43.775693 39.46582,53.211923 22.21462,9.436204 78.7549,-7.565585 131.19895,-50.605163 22.32359,-33.5807 7.48549,-48.42618 8.74791,-80.84893 1.26241,-32.42277 38.29691,-50.00926 68.2857,-68.78628 29.9888,-18.77702 51.121,-7.95689 67.23155,-14.37296 8.4396,-17.25176 11.50787,-32.19183 -1.6267,-49.75717 z" id="path843"/> <path style="opacity:1;fill:#c82d2d;fill-opacity:1;fill-rule:nonzero;stroke:none;stroke-width:1.08120084;stroke-linecap:round;stroke-linejoin:round;stroke-miterlimit:4;stroke-dasharray:none;stroke-dashoffset:0;stroke-opacity:1;paint-order:normal" d="m 391.54789,-200.44291 c -36.33717,97.15473 -39.08447,90.4545 -61.91893,123.397186 -22.83446,32.942682 -18.61587,47.364903 -23.97428,53.749558 -5.35836,6.384629 -23.40886,32.879112 -31.13085,34.350384 -7.72198,1.471271 -34.59109,2.567923 -40.97121,7.676531 -6.38011,5.108638 -15.56203,25.025444 -15.56203,25.025444 0,0 7.52446,-15.44847 19.07451,-19.984939 11.55004,-4.536438 30.82432,-5.310659 32.29333,-2.822194 1.46904,2.488466 -7.90136,29.362128 -15.04436,41.363989 -7.14301,12.00186 -16.32948,21.45168 -16.32948,21.45168 0,0 23.86298,-15.966157 27.24149,-25.477288 3.37853,-9.511129 4.33215,-18.127659 6.69346,-18.447797 2.36132,-0.320167 13.02586,13.652531 14.69238,30.118192 1.66655,16.465665 -0.62666,26.678385 -0.62666,26.678385 0,0 7.96947,-19.469523 4.83619,-33.190188 -3.1333,-13.720637 -15.07384,-26.671586 -13.35281,-31.714353 1.72105,-5.042799 22.76863,-37.6017681 29.34172,-39.2001927 6.5731,-1.5984213 40.04707,68.9755997 33.99841,102.6130657 -6.04864,33.637467 -11.52736,56.871507 -27.60024,81.258937 -16.07291,24.38744 -15.87991,27.89765 -15.87991,27.89765 0,0 21.05207,-22.09194 32.78605,-44.05222 11.73398,-21.96032 7.45863,-20.10757 10.90523,-19.72613 3.44662,0.38144 21.70825,19.26521 27.78183,43.1963 6.07358,23.9311 6.841,27.50487 6.841,27.50487 0,0 3.11742,-22.91392 -5.57177,-44.2271 -8.68921,-21.31321 -25.79744,-29.60283 -24.65082,-34.70918 1.1466,-5.10637 7.58351,-26.48991 5.72169,-51.699316 -1.86177,-25.209371 -6.26657,-27.441275 -1.09662,-26.869102 5.16992,0.572168 14.17473,13.779679 14.49713,21.374515 0.3224,7.594807 -0.62892,21.444898 -0.62892,21.444898 0,0 8.29185,-11.87475 6.56402,-22.532458 -1.72783,-10.657735 9.83127,5.739824 18.96549,23.031951 9.13422,17.292162 8.05571,32.291082 8.05571,32.291082 0,0 3.62828,-22.27588 -1.92992,-35.101944 -5.55816,-12.826066 1.40091,-7.404117 14.22924,-7.72878 12.82835,-0.324674 16.65641,-3.389835 16.65641,-3.389835 0,0 -10.40343,-0.569907 -22.46661,-1.904971 -12.06317,-1.335061 -8.55525,-6.761571 -28.47435,-21.176996 -19.91909,-14.415427 -27.06889,-18.114069 -31.7325,-28.515245 -4.66359,-10.40117 -26.94856,-34.9634735 -11.64309,-62.924668 15.30549,-27.961221 20.78423,-51.195255 71.43461,-109.551661 50.65038,-58.35636 50.65038,-58.35636 50.65038,-58.35636 z" id="path916"/> <path style="opacity:1;fill:#178fff;fill-opacity:1;fill-rule:nonzero;stroke:none;stroke-width:1.08120084;stroke-linecap:round;stroke-linejoin:round;stroke-miterlimit:4;stroke-dasharray:none;stroke-dashoffset:0;stroke-opacity:1;paint-order:normal" d="m 501.42598,-334.7807 c -3.51925,-0.3903 -8.60925,-0.74184 -14.62126,-0.9897 -3.00603,-0.12395 -6.24228,-0.22192 -9.62813,-0.28589 -0.84664,-0.016 -1.70253,-0.0302 -2.56659,-0.0417 -1.72774,-0.0232 -3.48729,-0.0371 -5.2694,-0.0413 -2.67335,-0.006 -5.39614,0.01 -8.1349,0.0525 -1.82567,0.0282 -3.65853,0.0673 -5.48794,0.12051 -10.97631,0.31401 -21.83658,1.08054 -30.39074,2.51877 -104.2796,17.53273 -70.81702,61.9397 -120.86794,30.81565 -19.70347,-12.25256 -40.52864,-15.97638 -58.54145,-15.99031 -2.90795,3.91734 -5.46846,8.70979 -7.57998,14.48723 -7.78814,21.30944 -1.54467,39.94217 8.98571,54.7601 12.18694,1.5675 21.96324,4.65876 23.33711,10.45326 3.96428,16.71996 -79.22262,106.36336 -82.53754,115.30006 -3.18893,8.59706 15.7228,41.160918 36.9417,52.024718 37.13501,-21.407298 82.92435,-137.020538 101.63128,-169.264078 20.38655,-35.13845 99.99532,-64.70296 183.46281,-73.26624 -0.0422,-0.4138 -0.0921,-0.82793 -0.14971,-1.24259 -4.6e-4,-0.003 -8.3e-4,-0.006 -10e-4,-0.009 -6.1e-4,-0.004 -0.001,-0.009 -0.002,-0.0131 -0.1131,-0.81106 -0.25676,-1.62431 -0.43097,-2.43959 -0.008,-0.0338 -0.0141,-0.0675 -0.0213,-0.10131 -0.0854,-0.39407 -0.17802,-0.78847 -0.27824,-1.18373 -0.009,-0.0316 -0.0168,-0.0634 -0.0249,-0.0949 -0.2061,-0.80363 -0.44355,-1.61007 -0.71261,-2.4196 -0.0121,-0.0365 -0.0239,-0.0732 -0.0361,-0.10969 -0.13573,-0.40419 -0.27861,-0.80876 -0.43053,-1.21464 -0.001,-0.004 -0.003,-0.008 -0.004,-0.0117 -0.003,-0.009 -0.006,-0.0169 -0.01,-0.0253 -0.15268,-0.40669 -0.31312,-0.81464 -0.48242,-1.22319 -0.004,-0.0113 -0.009,-0.0227 -0.0136,-0.0341 -0.002,-0.004 -0.003,-0.009 -0.005,-0.0136 -0.16524,-0.39732 -0.34028,-0.79571 -0.52153,-1.19492 -0.0236,-0.0519 -0.0472,-0.1038 -0.071,-0.15571 -0.18193,-0.39648 -0.37047,-0.79375 -0.56849,-1.19225 -0.0161,-0.0324 -0.0331,-0.0652 -0.0493,-0.0976 -0.18873,-0.37746 -0.3854,-0.7561 -0.58881,-1.13548 -0.0262,-0.0489 -0.0518,-0.0974 -0.0782,-0.14639 -0.20959,-0.3875 -0.42782,-0.77597 -0.65294,-1.16562 -0.0418,-0.0723 -0.0843,-0.14455 -0.12666,-0.21695 -0.22801,-0.38996 -0.46214,-0.78093 -0.70606,-1.17319 -0.0203,-0.0328 -0.0417,-0.0657 -0.0622,-0.0985 -0.23744,-0.37998 -0.48319,-0.76109 -0.7358,-1.14331 -0.0401,-0.0608 -0.0794,-0.12118 -0.11981,-0.18191 -0.25931,-0.38901 -0.52665,-0.77939 -0.80189,-1.17086 -0.0571,-0.0811 -0.11547,-0.16224 -0.17316,-0.24346 -0.28355,-0.39901 -0.57243,-0.79894 -0.87281,-1.20063 z" id="path883"/> <path style="opacity:1;fill:#a21c1c;fill-opacity:1;fill-rule:nonzero;stroke:none;stroke-width:1.08120084;stroke-linecap:round;stroke-linejoin:round;stroke-miterlimit:4;stroke-dasharray:none;stroke-dashoffset:0;stroke-opacity:1;paint-order:normal" d="m 500.69836,-194.85633 c 3.56585,96.711894 -78.70929,112.235377 -123.76967,109.57431 -45.06036,-2.661065 -6.52539,-35.61055 -7.30644,-70.58535 -0.78102,-34.97479 -18.40462,-54.36945 19.87605,-85.02119 38.28066,-30.65173 108.62169,-23.89686 111.20006,46.03223 z" id="path839"/> <path style="opacity:1;fill:#a21c1c;fill-opacity:1;fill-rule:nonzero;stroke:none;stroke-width:1.08120084;stroke-linecap:round;stroke-linejoin:round;stroke-miterlimit:4;stroke-dasharray:none;stroke-dashoffset:0;stroke-opacity:1;paint-order:normal" d="m 192.31431,-172.00169 c -20.06667,-60.3681 -27.85447,-63.55588 -62.82927,-62.77486 -34.974806,0.78102 -99.298126,25.06174 -106.554696,69.61351 -7.25654,44.55174 -6.84337,114.374226 17.54181,125.213597 24.38518,10.8394 48.38891,25.12541 86.542426,-4.377458 38.15352,-29.502867 64.57764,-26.57844 78.35051,-56.453699 13.7729,-29.87522 9.30453,-31.53268 -13.05078,-71.22109 z" id="path841"/> <path style="opacity:1;fill:#4db4ff;fill-opacity:1;fill-rule:nonzero;stroke:none;stroke-width:1.08120084;stroke-linecap:round;stroke-linejoin:round;stroke-miterlimit:4;stroke-dasharray:none;stroke-dashoffset:0;stroke-opacity:1;paint-order:normal" d="m 501.42598,-334.7807 c -14.07705,-1.56117 -53.28783,-2.50261 -76.09898,1.33268 -104.2796,17.53273 -70.81701,61.9397 -120.86793,30.81565 -19.70347,-12.25256 -40.52864,-15.97638 -58.54145,-15.99031 -2.19585,2.95806 -4.19339,6.41573 -5.94928,10.41907 16.59758,0.41751 33.39614,2.62652 46.74899,8.2594 41.1097,17.34212 15.5939,48.24334 54.76914,20.01651 33.94043,-24.45501 76.32818,-38.37243 165.40605,-45.84013 -1.36452,-2.94155 -3.16638,-5.9368 -5.46654,-9.01287 z" id="path878"/> <path style="opacity:1;fill:#c82323;fill-opacity:1;fill-rule:nonzero;stroke:none;stroke-width:1.08120084;stroke-linecap:round;stroke-linejoin:round;stroke-miterlimit:4;stroke-dasharray:none;stroke-dashoffset:0;stroke-opacity:1;paint-order:normal" d="m 147.76321,-234.31526 c -5.19154,-0.61483 -11.17376,-0.61989 -18.278,-0.46128 -34.974816,0.78103 -99.298456,25.06146 -106.555016,69.61319 -2.28176,14.00903 -3.80394,30.51698 -4.0622,46.90377 26.91118,56.857435 62.72073,73.101698 115.530336,28.231897 38.57976,-32.779347 60.96322,-48.428827 72.6943,-55.707837 -3.45926,-6.67972 -8.38382,-14.91352 -14.77846,-26.26619 -15.99062,-48.10584 -24.18408,-59.90156 -44.55096,-62.31355 z" id="path904"/> <path style="opacity:1;fill:#c82323;fill-opacity:1;fill-rule:nonzero;stroke:none;stroke-width:1.08120084;stroke-linecap:round;stroke-linejoin:round;stroke-miterlimit:4;stroke-dasharray:none;stroke-dashoffset:0;stroke-opacity:1;paint-order:normal" d="m 447.56998,-257.77469 c -20.06662,-2.3187 -41.92224,3.95479 -58.07187,16.886 -38.28067,30.65173 -20.65702,50.0467 -19.87602,85.0215 0.18668,8.36043 -1.8742,16.6036 -4.50177,24.34655 8.82207,19.65001 25.84852,22.30966 51.36496,14.56535 27.78822,-8.43381 61.12818,-24.16665 83.90677,-60.7168 0.41689,-5.42164 0.52917,-11.14478 0.30651,-17.18432 -1.49061,-40.42775 -25.62995,-59.7408 -53.12858,-62.91828 z" id="path909"/> </g> </svg>