<?xml version="1.0" encoding="UTF-8" standalone="no"?>
<!-- Created with Inkscape (http://www.inkscape.org/) -->

<svg
   width="180"
   height="128"
   viewBox="0 0 47.624999 33.866666"
   version="1.1"
   id="svg1"
   inkscape:version="1.3 (0e150ed, 2023-07-21)"
   sodipodi:docname="letters.svg"
   xmlns:inkscape="http://www.inkscape.org/namespaces/inkscape"
   xmlns:sodipodi="http://sodipodi.sourceforge.net/DTD/sodipodi-0.dtd"
   xmlns="http://www.w3.org/2000/svg"
   xmlns:svg="http://www.w3.org/2000/svg">
  <sodipodi:namedview
     id="namedview1"
     pagecolor="#505050"
     bordercolor="#ffffff"
     borderopacity="1"
     inkscape:showpageshadow="0"
     inkscape:pageopacity="0"
     inkscape:pagecheckerboard="1"
     inkscape:deskcolor="#505050"
     inkscape:document-units="mm"
     inkscape:zoom="2.6003436"
     inkscape:cx="88.834414"
     inkscape:cy="79.989429"
     inkscape:current-layer="layer1" />
  <defs
     id="defs1" />
  <g
     inkscape:label="Layer 1"
     inkscape:groupmode="layer"
     id="layer1">
    <path
       style="font-size:28.5783px;line-height:1.25;font-family:FreeSerif;-inkscape-font-specification:FreeSerif;letter-spacing:0px;word-spacing:0px;fill:#f5f5f5;stroke-width:0.714457"
       d="m 33.686303,26.021233 v 0.542987 h -7.287466 v -0.542987 q 1.143132,-0.02858 1.571806,-0.228627 0.428675,-0.200048 0.428675,-0.743035 0,-0.68588 -0.542988,-1.914747 l -1.17171,-2.743516 h -7.487515 l -1.314602,3.343661 q -0.228626,0.600144 -0.228626,1.114553 0,1.171711 1.943324,1.171711 v 0.542987 h -5.658503 v -0.542987 q 1.057397,-0.05716 1.628963,-0.800193 0.600144,-0.771614 1.914746,-3.886649 L 23.426693,7.3024459 h 0.571566 l 7.115997,16.2324751 q 0.685879,1.571806 1.143132,2.000481 0.457253,0.428674 1.428915,0.485831 z M 19.682936,19.219597 h 6.601587 l -3.315082,-7.859032 z"
       id="text1"
       aria-label="A" />
    <path
       style="font-size:19.9447px;line-height:1.25;font-family:FreeSerif;-inkscape-font-specification:FreeSerif;letter-spacing:0px;word-spacing:0px;fill:#f5f5f5;stroke-width:0.498617"
       d="m 10.228342,3.4448389 v 6.1030782 q 0.29917,-0.7379539 1.077013,-1.2166267 0.777844,-0.4786728 1.6953,-0.4786728 1.495852,0 2.493087,1.2565161 1.01718,1.2365713 1.01718,3.0714843 0,2.134082 -1.35624,3.590046 -1.336294,1.455963 -3.31082,1.455963 -1.196682,0 -2.2537509,-0.398894 Q 8.5529867,16.408894 8.5529867,15.950166 V 5.5988665 q 0,-0.6182857 -0.199447,-0.8177327 -0.1795023,-0.199447 -0.7778433,-0.199447 -0.2193917,0 -0.3390599,0.019945 V 4.2825163 Q 8.7723784,3.903567 10.128618,3.4049495 Z m 0,7.1601471 v 5.026065 q 0,0.378949 0.578396,0.67812 0.578396,0.279225 1.356239,0.279225 1.236572,0 1.914692,-0.917456 0.678119,-0.917456 0.678119,-2.572866 0,-1.814968 -0.698064,-2.891982 -0.67812,-1.0969583 -1.854857,-1.0969583 -0.777843,0 -1.376184,0.4587281 -0.598341,0.4587282 -0.598341,1.0371242 z"
       id="text2"
       transform="rotate(-9.7635504)"
       aria-label="b" />
    <path
       style="font-size:17.6857px;line-height:1.25;font-family:FreeSerif;-inkscape-font-specification:FreeSerif;letter-spacing:0px;word-spacing:0px;fill:#f5f5f5;stroke-width:0.442141"
       d="m -3.2353099,26.367811 v -0.300657 q 1.2733703,-0.353714 2.47599789,-0.795857 l 0.1237999,0.03537 v 1.326427 q 1.09651336,-0.831228 1.62708435,-1.096513 0.53057096,-0.265286 1.11419906,-0.265286 1.3971703,0 1.8746841,1.485599 1.3794846,-1.485599 2.8827691,-1.485599 2.0515411,0 2.0515411,3.148055 v 3.643254 q 0,0.990399 0.7604851,1.043456 l 0.4598283,0.03537 v 0.265285 H 6.2619107 v -0.265285 q 0.7781708,-0.08843 0.9727134,-0.300657 0.1945427,-0.212229 0.1945427,-0.972714 v -3.731682 q 0,-1.096514 -0.2829711,-1.52097 -0.2829712,-0.424457 -1.0434563,-0.424457 -1.1672562,0 -1.9277413,1.078827 v 4.456797 q 0,0.831228 0.2475998,1.114199 0.2652855,0.282971 1.0257706,0.300657 v 0.265285 H 1.4867718 v -0.265285 q 0.7604851,-0.05306 0.9727135,-0.282971 0.2299141,-0.229915 0.2299141,-0.972714 v -3.837797 q 0,-1.856998 -1.1672562,-1.856998 -0.4951996,0 -1.11419905,0.2476 -0.60131378,0.247599 -0.97271347,0.795856 v 4.987367 q 0,0.512886 0.2475998,0.707428 0.24759979,0.176857 0.95502777,0.212229 v 0.265285 H -3.288367 v -0.265285 q 0.7427993,-0.01769 0.9903991,-0.265286 0.2475998,-0.2476 0.2475998,-0.972713 v -4.474482 q 0,-0.636685 -0.1414856,-0.884285 -0.1237999,-0.2476 -0.4775139,-0.2476 -0.2652854,0 -0.5659423,0.07074 z"
       id="text3"
       transform="rotate(-7.9154425)"
       aria-label="m" />
    <path
       style="font-size:25.7482px;line-height:1.25;font-family:FreeSerif;-inkscape-font-specification:FreeSerif;letter-spacing:0px;word-spacing:0px;fill:#f5f5f5;stroke-width:0.643703"
       d="m 41.676,16.493653 q 0.0515,1.622136 0.43772,2.806554 0.386223,1.158669 1.004179,1.750877 0.617957,0.566461 1.235914,0.823943 0.643705,0.231733 1.338906,0.231733 1.235914,0 2.137101,-0.617956 0.926935,-0.617957 1.85387,-2.085605 l 0.411971,0.180238 q -0.798194,2.085604 -2.214345,3.192777 -1.416151,1.107172 -3.244273,1.107172 -2.214345,0 -3.527503,-1.544892 -1.28741,-1.57064 -1.28741,-4.222705 0,-2.85805 1.493395,-4.583179 1.519144,-1.750878 3.887979,-1.750878 1.956863,0 3.038287,1.184418 1.081424,1.158668 1.364655,3.527503 z m 0.0515,-0.823943 h 5.252632 q -0.257482,-1.673633 -0.798194,-2.317338 -0.540712,-0.643704 -1.725129,-0.643704 -2.317338,0 -2.729309,2.961042 z"
       id="text4"
       transform="rotate(11.273906)"
       aria-label="e" />
    <path
       style="font-size:11.8029px;line-height:1.25;font-family:FreeSerif;-inkscape-font-specification:FreeSerif;letter-spacing:0px;word-spacing:0px;fill:#f5f5f5;stroke-width:0.295073"
       d="m 38.693371,1.1878676 v 0.2242551 q -0.460313,0.035409 -0.790794,0.3068754 -0.330481,0.2596638 -0.838006,1.0386552 l -1.746829,2.6674555 v 2.2897627 q 0,0.6727653 0.212452,0.8616117 0.212452,0.1770435 1.003246,0.2006493 V 9.0013876 H 32.921753 V 8.7771325 Q 33.72435,8.7417238 33.913197,8.5528774 34.113846,8.3522281 34.113846,7.5850396 V 5.5313349 L 32.567666,3.265178 Q 31.977521,2.4035663 31.670646,2.0376764 31.36377,1.6599836 31.163121,1.5419546 30.962472,1.4239256 30.655596,1.4121227 V 1.1878676 h 3.304812 v 0.2242551 q -0.838006,0.059014 -0.838006,0.354087 0,0.2242551 0.20065,0.5193276 l 1.746829,2.6202439 1.687815,-2.6674555 q 0.16524,-0.2714667 0.16524,-0.4367073 0,-0.2124522 -0.177043,-0.2950725 -0.177044,-0.08262 -0.637357,-0.094423 V 1.1878676 Z"
       id="text5"
       transform="rotate(13.492766)"
       aria-label="Y" />
    <path
       style="font-size:11.8029px;line-height:1.25;font-family:FreeSerif;-inkscape-font-specification:FreeSerif;letter-spacing:0px;word-spacing:0px;fill:#f5f5f5;stroke-width:0.295073"
       d="m 7.8839715,11.753373 q 0.5075247,0 0.9678378,0.08262 0.4603131,0.08262 0.944232,0.295072 0.4957217,0.20065 0.7907947,0.637357 0.295072,0.436707 0.295072,1.062261 0,1.569786 -2.0773103,1.959282 -0.035409,0.0118 -0.059014,0.0118 l 2.4313978,2.986134 q 0.247861,0.295073 0.460313,0.413102 0.224255,0.118029 0.566539,0.141635 v 0.224255 h -1.900267 l -2.8090903,-3.635294 -0.6609624,0.02361 v 2.325171 q 0,0.637357 0.1888464,0.826204 0.1888464,0.188846 0.8734147,0.236058 v 0.224255 H 4.626371 v -0.224255 q 0.6609624,-0.04721 0.826203,-0.247861 0.1770435,-0.212453 0.1770435,-0.944232 v -5.110656 q 0,-0.625554 -0.1770435,-0.802597 -0.1652406,-0.188847 -0.826203,-0.259664 v -0.224255 z m -1.0504582,3.765125 q 1.428151,-0.02361 2.0891134,-0.377693 0.6727653,-0.354087 0.6727653,-1.333728 0,-0.826203 -0.5311305,-1.215698 -0.5193276,-0.401299 -1.6288003,-0.401299 -0.354087,0 -0.4839189,0.09442 -0.118029,0.08262 -0.118029,0.330481 z"
       id="text6"
       transform="rotate(10.404294)"
       aria-label="R" />
    <path
       style="font-size:15.6997px;line-height:1.25;font-family:FreeSerif;-inkscape-font-specification:FreeSerif;letter-spacing:0px;word-spacing:0px;fill:#f5f5f5;stroke-width:0.392493"
       d="m 37.28459,25.990491 q 0.439592,0 0.800685,-0.0785 0.361093,-0.0785 0.596589,-0.156997 0.251195,-0.0785 0.455291,-0.298294 0.219796,-0.219796 0.313994,-0.329694 0.109898,-0.109898 0.235495,-0.423892 0.125598,-0.329694 0.156997,-0.423892 0.0314,-0.0942 0.141298,-0.455291 h 0.361093 l -0.376793,2.763147 h -8.854631 v -0.235496 l 6.860769,-9.561117 h -3.469634 q -0.800684,0 -1.318774,0.156997 -0.518091,0.156997 -0.784985,0.50239 -0.251196,0.345394 -0.345394,0.627988 -0.0942,0.282595 -0.188396,0.800685 h -0.408193 l 0.313995,-2.684649 h 8.258042 v 0.235496 l -6.782271,9.561117 z"
       id="text7"
       transform="rotate(-20.888107)"
       aria-label="Z" />
  </g>
</svg>
