<?xml version="1.0" encoding="UTF-8" standalone="no"?>
<!-- Created with Inkscape (http://www.inkscape.org/) -->

<svg
   width="61"
   height="128"
   viewBox="0 0 16.139582 33.866667"
   version="1.1"
   id="svg1"
   xml:space="preserve"
   inkscape:version="1.3 (0e150ed, 2023-07-21)"
   sodipodi:docname="lightning-bolt.svg"
   inkscape:export-filename="lightning-bolt.png"
   inkscape:export-xdpi="96"
   inkscape:export-ydpi="96"
   xmlns:inkscape="http://www.inkscape.org/namespaces/inkscape"
   xmlns:sodipodi="http://sodipodi.sourceforge.net/DTD/sodipodi-0.dtd"
   xmlns="http://www.w3.org/2000/svg"
   xmlns:svg="http://www.w3.org/2000/svg"><sodipodi:namedview
     id="namedview1"
     pagecolor="#505050"
     bordercolor="#ffffff"
     borderopacity="1"
     inkscape:showpageshadow="0"
     inkscape:pageopacity="0"
     inkscape:pagecheckerboard="1"
     inkscape:deskcolor="#505050"
     inkscape:document-units="mm"
     inkscape:zoom="3.3209814"
     inkscape:cx="34.026086"
     inkscape:cy="59.018699"
     inkscape:window-width="1600"
     inkscape:window-height="837"
     inkscape:window-x="-8"
     inkscape:window-y="-8"
     inkscape:window-maximized="1"
     inkscape:current-layer="layer1" /><defs
     id="defs1"><filter
       inkscape:collect="always"
       style="color-interpolation-filters:sRGB"
       id="filter4"
       x="-0.12149037"
       y="-0.040694887"
       width="1.2429807"
       height="1.0813898"><feGaussianBlur
         inkscape:collect="always"
         stdDeviation="6.0464724"
         id="feGaussianBlur4" /></filter><filter
       inkscape:collect="always"
       style="color-interpolation-filters:sRGB"
       id="filter5"
       x="-0.39391641"
       y="-0.13194777"
       width="1.7878328"
       height="1.2638955"><feGaussianBlur
         inkscape:collect="always"
         stdDeviation="19.604886"
         id="feGaussianBlur5" /></filter></defs><g
     inkscape:label="Layer 1"
     inkscape:groupmode="layer"
     id="layer1"><path
       style="fill:#2c7db9;fill-opacity:1;stroke:none;stroke-width:19.8438;stroke-linecap:round;stroke-linejoin:round;filter:url(#filter5)"
       d="m 208.88708,274.4507 -33.24219,61.14506 -0.7709,55.86667 10.34514,43.76164 -30.85469,59.70915 22.4388,49.75027 -44.66379,86.36076 53.58037,-85.13658 -22.95997,-51.91246 27.36123,-50.40742 42.36084,38.35214 19.10349,38.71357 -16.73274,-42.90081 -39.9901,-42.53938 -11.09746,-45.05659 2.10269,-51.89358 37.18671,-59.92241 z"
       id="path5"
       transform="matrix(0.07448979,0,0,0.07448979,-6.2220007,-16.791731)"
       sodipodi:nodetypes="cccccccccccccccccc" /><path
       style="fill:#2c7db9;fill-opacity:1;stroke:none;stroke-width:19.8438;stroke-linecap:round;stroke-linejoin:round;filter:url(#filter4)"
       d="m 208.88708,274.4507 -33.24219,61.14506 -0.7709,55.86667 10.34514,43.76164 -30.85469,59.70915 22.4388,49.75027 -44.66379,86.36076 53.58037,-85.13658 -22.95997,-51.91246 27.36123,-50.40742 42.36084,38.35214 19.10349,38.71357 -16.73274,-42.90081 -39.9901,-42.53938 -11.09746,-45.05659 2.10269,-51.89358 37.18671,-59.92241 z"
       id="path4"
       transform="matrix(0.07448979,0,0,0.07448979,-6.2220007,-16.791731)"
       sodipodi:nodetypes="cccccccccccccccccc" /><path
       style="fill:#fdfeff;fill-opacity:1;stroke:none;stroke-width:1.47816;stroke-linecap:round;stroke-linejoin:round"
       d="m 9.3379535,3.6520433 -2.4762033,4.5546822 -0.057425,4.1614955 0.7706072,3.259796 -2.2983593,4.447722 1.6714615,3.705887 -3.3269962,6.432995 3.9911903,-6.341807 -1.7102832,-3.866948 2.0381323,-3.754838 3.1554502,2.856844 1.423015,2.883765 L 11.272124,18.795965 8.2932707,15.627216 7.4666232,12.27096 7.6232521,8.4054183 10.393282,3.9418107 Z"
       id="path1"
       sodipodi:nodetypes="cccccccccccccccccc" /></g></svg>
