<?xml version="1.0" encoding="UTF-8" standalone="no"?>
<svg
   width="70"
   height="128"
   version="1.1"
   viewBox="0 0 18.520765 33.866667"
   id="svg3"
   sodipodi:docname="mobile-message.svg"
   inkscape:version="1.3 (0e150ed, 2023-07-21)"
   xmlns:inkscape="http://www.inkscape.org/namespaces/inkscape"
   xmlns:sodipodi="http://sodipodi.sourceforge.net/DTD/sodipodi-0.dtd"
   xmlns="http://www.w3.org/2000/svg"
   xmlns:svg="http://www.w3.org/2000/svg">
  <defs
     id="defs3" />
  <sodipodi:namedview
     id="namedview3"
     pagecolor="#505050"
     bordercolor="#ffffff"
     borderopacity="1"
     inkscape:showpageshadow="0"
     inkscape:pageopacity="0"
     inkscape:pagecheckerboard="1"
     inkscape:deskcolor="#505050"
     inkscape:zoom="1.8"
     inkscape:cx="8.8888889"
     inkscape:cy="72.222223"
     inkscape:current-layer="svg3" />
  <rect
     x="0.15977654"
     y="0.37183675"
     width="18.201212"
     height="33.122993"
     ry="1.1182523"
     fill="#2d3642"
     id="rect1"
     style="stroke-width:0.0424579" />
  <rect
     x="0.58923656"
     y="0.83425462"
     width="17.342293"
     height="29.275471"
     ry="0.7336275"
     fill="#6ca3c7"
     id="rect2"
     style="stroke-width:0.0424579" />
  <circle
     cx="9.2605104"
     cy="31.838434"
     r="1.2825638"
     fill="#20262f"
     id="circle2"
     style="stroke-width:0.0424579" />
  <path
     d="m 9.8082158,30.678913 c 0.2933532,1.202448 -0.2665834,1.965243 -0.9697773,2.367615 a 1.2825638,1.2825638 0 0 0 0.4218048,0.07455 1.2825638,1.2825638 0 0 0 1.2825637,-1.282563 1.2825638,1.2825638 0 0 0 -0.7346036,-1.159608 z"
     fill="#35424e"
     id="path3"
     style="stroke-width:0.0424579" />
  <rect
     x="8.7446499"
     y="31.322575"
     width="1.0315961"
     height="1.0315961"
     ry="0.29275468"
     fill="none"
     stroke="#c0dcf0"
     stroke-linecap="round"
     stroke-linejoin="round"
     stroke-opacity="0.24624"
     stroke-width="0.123731"
     id="rect3" />
  <path
     id="rect4"
     style="fill:#faf393;stroke:#ffb82c;stroke-width:0.237817;stroke-linecap:round;stroke-linejoin:round"
     d="M 2.2562596,26.277084 H 15.248249 v 2.832051 H 1.380399 C 2.056301,28.800081 2.2562596,28.35296 2.2562596,27.69311 Z"
     sodipodi:nodetypes="cccccc" />
  <path
     id="path5"
     style="fill:#d5f6fd;fill-opacity:1;stroke:#5aeaff;stroke-width:0.237817;stroke-linecap:round;stroke-linejoin:round;stroke-opacity:1"
     d="M 16.394121,21.463198 H 3.402132 v 2.832051 h 13.86785 C 16.59408,23.986195 16.394121,23.539074 16.394121,22.879224 Z"
     sodipodi:nodetypes="cccccc" />
  <path
     id="path6"
     style="fill:#faf393;stroke:#ffb82c;stroke-width:0.237817;stroke-linecap:round;stroke-linejoin:round"
     d="M 2.2562596,16.649312 H 15.248249 v 2.832051 H 1.380399 c 0.675902,-0.309054 0.8758606,-0.756175 0.8758606,-1.416025 z"
     sodipodi:nodetypes="cccccc" />
  <path
     id="path7"
     style="fill:#d5f6fd;fill-opacity:1;stroke:#5aeaff;stroke-width:0.237817;stroke-linecap:round;stroke-linejoin:round;stroke-opacity:1"
     d="M 16.394121,11.835426 H 3.402132 v 2.832051 h 13.86785 C 16.59408,14.358423 16.394121,13.911302 16.394121,13.251452 Z"
     sodipodi:nodetypes="cccccc" />
  <path
     id="path8"
     style="fill:#faf393;stroke:#ffb82c;stroke-width:0.237817;stroke-linecap:round;stroke-linejoin:round"
     d="M 2.2562596,7.0215405 H 15.248249 v 2.832051 H 1.380399 c 0.675902,-0.309054 0.8758606,-0.756175 0.8758606,-1.416025 z"
     sodipodi:nodetypes="cccccc" />
  <path
     id="path9"
     style="fill:#d5f6fd;fill-opacity:1;stroke:#5aeaff;stroke-width:0.237817;stroke-linecap:round;stroke-linejoin:round;stroke-opacity:1"
     d="M 16.394121,2.2076546 H 3.402132 v 2.832051 h 13.86785 C 16.59408,4.7306516 16.394121,4.2835306 16.394121,3.6236806 Z"
     sodipodi:nodetypes="cccccc" />
  <path
     d="m 1.3229067,0.83425677 c -0.40643124,0 -0.73362754,0.32720323 -0.73362754,0.73362693 V 25.793851 L 17.84326,1.2256748 C 17.720293,0.99372148 17.479473,0.83455666 17.197647,0.83455666 Z"
     fill="#7eafce"
     id="path2"
     style="stroke-width:0.0424579;fill:#d3e3ee;fill-opacity:0.21603635" />
</svg>
