<?xml version="1.0" encoding="UTF-8" standalone="no"?>
<svg
   width="180"
   height="128"
   version="1.1"
   viewBox="0 0 47.625 33.866667"
   id="svg3"
   sodipodi:docname="red-blood-cell.svg"
   inkscape:version="1.3 (0e150ed, 2023-07-21)"
   xmlns:inkscape="http://www.inkscape.org/namespaces/inkscape"
   xmlns:sodipodi="http://sodipodi.sourceforge.net/DTD/sodipodi-0.dtd"
   xmlns="http://www.w3.org/2000/svg"
   xmlns:svg="http://www.w3.org/2000/svg">
  <sodipodi:namedview
     id="namedview3"
     pagecolor="#505050"
     bordercolor="#ffffff"
     borderopacity="1"
     inkscape:showpageshadow="0"
     inkscape:pageopacity="0"
     inkscape:pagecheckerboard="1"
     inkscape:deskcolor="#505050"
     inkscape:zoom="2.752"
     inkscape:cx="82.303779"
     inkscape:cy="69.767442"
     inkscape:current-layer="svg3" />
  <defs
     id="defs1">
    <filter
       id="a"
       x="-0.27120119"
       y="-0.27120119"
       width="1.5424024"
       height="1.5424024"
       color-interpolation-filters="sRGB">
      <feGaussianBlur
         stdDeviation="39.584074"
         id="feGaussianBlur1" />
    </filter>
  </defs>
  <g
     transform="matrix(0.01376799,0,0,0.01376799,6.8651953,10.593028)"
     id="g3">
    <circle
       cx="396.88"
       cy="-99.875"
       r="396.64001"
       fill="#db1c1c"
       style="paint-order:normal"
       id="circle1" />
    <circle
       cx="396.88"
       cy="-99.875"
       r="219.73"
       fill="#f65757"
       style="paint-order:normal"
       id="circle2" />
    <circle
       transform="matrix(1.427,0,0,1.427,-1.2133,210.76)"
       cx="278.97"
       cy="-217.67999"
       r="175.14999"
       fill="#fc7171"
       filter="url(#a)"
       style="paint-order:normal"
       id="circle3" />
  </g>
  <g
     transform="matrix(0.01037433,0,0,0.01037433,4.1355675,24.833454)"
     id="g6"
     style="opacity:0.62404328">
    <circle
       cx="396.88"
       cy="-99.875"
       r="396.64001"
       fill="#db1c1c"
       style="paint-order:normal"
       id="circle4" />
    <circle
       cx="396.88"
       cy="-99.875"
       r="219.73"
       fill="#f65757"
       style="paint-order:normal"
       id="circle5" />
    <circle
       transform="matrix(1.427,0,0,1.427,-1.2133,210.76)"
       cx="278.97"
       cy="-217.67999"
       r="175.14999"
       fill="#fc7171"
       filter="url(#a)"
       style="paint-order:normal"
       id="circle6" />
  </g>
  <g
     transform="matrix(0.01037433,0,0,0.01037433,27.681515,11.205018)"
     id="g9"
     style="opacity:0.624043">
    <circle
       cx="396.88"
       cy="-99.875"
       r="396.64001"
       fill="#db1c1c"
       style="paint-order:normal"
       id="circle7" />
    <circle
       cx="396.88"
       cy="-99.875"
       r="219.73"
       fill="#f65757"
       style="paint-order:normal"
       id="circle8" />
    <circle
       transform="matrix(1.427,0,0,1.427,-1.2133,210.76)"
       cx="278.97"
       cy="-217.67999"
       r="175.14999"
       fill="#fc7171"
       filter="url(#a)"
       style="paint-order:normal"
       id="circle9" />
  </g>
  <g
     transform="matrix(0.01037433,0,0,0.01037433,31.769967,24.017375)"
     id="g12"
     style="opacity:0.624043">
    <circle
       cx="396.88"
       cy="-99.875"
       r="396.64001"
       fill="#db1c1c"
       style="paint-order:normal"
       id="circle10" />
    <circle
       cx="396.88"
       cy="-99.875"
       r="219.73"
       fill="#f65757"
       style="paint-order:normal"
       id="circle11" />
    <circle
       transform="matrix(1.427,0,0,1.427,-1.2133,210.76)"
       cx="278.97"
       cy="-217.67999"
       r="175.14999"
       fill="#fc7171"
       filter="url(#a)"
       style="paint-order:normal"
       id="circle12" />
  </g>
  <g
     transform="matrix(0.01376799,0,0,0.01376799,33.825927,14.999986)"
     id="g15">
    <circle
       cx="396.88"
       cy="-99.875"
       r="396.64001"
       fill="#db1c1c"
       style="paint-order:normal"
       id="circle13" />
    <circle
       cx="396.88"
       cy="-99.875"
       r="219.73"
       fill="#f65757"
       style="paint-order:normal"
       id="circle14" />
    <circle
       transform="matrix(1.427,0,0,1.427,-1.2133,210.76)"
       cx="278.97"
       cy="-217.67999"
       r="175.14999"
       fill="#fc7171"
       filter="url(#a)"
       style="paint-order:normal"
       id="circle15" />
  </g>
  <g
     transform="matrix(0.01708668,0,0,0.01708668,18.061997,19.568755)"
     id="g18">
    <circle
       cx="396.88"
       cy="-99.875"
       r="396.64001"
       fill="#db1c1c"
       style="paint-order:normal"
       id="circle16" />
    <circle
       cx="396.88"
       cy="-99.875"
       r="219.73"
       fill="#f65757"
       style="paint-order:normal"
       id="circle17" />
    <circle
       transform="matrix(1.427,0,0,1.427,-1.2133,210.76)"
       cx="278.97"
       cy="-217.67999"
       r="175.14999"
       fill="#fc7171"
       filter="url(#a)"
       style="paint-order:normal"
       id="circle18" />
  </g>
</svg>
