<?xml version="1.0" encoding="UTF-8" standalone="no"?>
<!-- Created with Inkscape (http://www.inkscape.org/) -->

<svg
   width="3000"
   height="1300"
   viewBox="0 0 793.74998 343.95833"
   version="1.1"
   id="svg1"
   inkscape:version="1.3 (0e150ed6c4, 2023-07-21)"
   sodipodi:docname="Road1.svg"
   inkscape:export-filename="Road1.png"
   inkscape:export-xdpi="96"
   inkscape:export-ydpi="96"
   xmlns:inkscape="http://www.inkscape.org/namespaces/inkscape"
   xmlns:sodipodi="http://sodipodi.sourceforge.net/DTD/sodipodi-0.dtd"
   xmlns="http://www.w3.org/2000/svg"
   xmlns:svg="http://www.w3.org/2000/svg">
  <sodipodi:namedview
     id="namedview1"
     pagecolor="#505050"
     bordercolor="#ffffff"
     borderopacity="1"
     inkscape:showpageshadow="0"
     inkscape:pageopacity="0"
     inkscape:pagecheckerboard="1"
     inkscape:deskcolor="#505050"
     inkscape:document-units="mm"
     inkscape:zoom="0.20756134"
     inkscape:cx="1442.947"
     inkscape:cy="720.26902"
     inkscape:window-width="1600"
     inkscape:window-height="837"
     inkscape:window-x="-8"
     inkscape:window-y="-8"
     inkscape:window-maximized="1"
     inkscape:current-layer="layer1" />
  <defs
     id="defs1" />
  <g
     inkscape:label="Layer 1"
     inkscape:groupmode="layer"
     id="layer1">
    <path
       style="fill:#2a2a2a;fill-opacity:1;stroke:none;stroke-width:16.0781;stroke-linecap:round;stroke-linejoin:round"
       d="M 558.02693,8.2170875 C 216.01057,34.303047 160.94013,153.13928 343.5421,170.5299 526.14405,187.92058 350.78821,232.8465 4.4241704,274.87393 L 424.69853,335.74125 C 760.91811,295.16304 953.66457,167.63147 602.95278,135.7486 252.24112,103.86572 458.03064,51.693732 668.16784,15.463152 Z"
       id="path1"
       sodipodi:nodetypes="csccscc" />
    <path
       style="fill:#f5f5f5;fill-opacity:1;stroke:none;stroke-width:16.0781;stroke-linecap:round;stroke-linejoin:round"
       d="M 558.02693,8.2170875 C 216.01057,34.303047 160.94013,153.13928 343.5421,170.5299 526.14405,187.92058 350.78821,232.8465 4.4241704,274.87393 l 25.9612126,3.75989 C 366.60492,238.0556 567.58335,189.77477 342.09282,165.45765 170.20781,146.92144 239.42346,38.053611 564.67727,8.6546039 Z"
       id="path2"
       sodipodi:nodetypes="csccscc" />
    <path
       style="fill:#f5f5f5;fill-opacity:1;stroke:none;stroke-width:16.0781;stroke-linecap:round;stroke-linejoin:round"
       d="M 654.41408,14.558278 C 297.90544,76.150212 350.61661,124.33516 602.95285,141.54545 927.85522,163.70501 755.36249,296.28239 397.40466,331.78836 l 27.29387,3.95289 C 760.91811,295.16304 953.66457,167.63147 602.95278,135.7486 252.24112,103.86572 458.03064,51.693732 668.16784,15.463152 Z"
       id="path3"
       sodipodi:nodetypes="csccscc" />
    <path
       id="path4"
       style="fill:#fbd01a;fill-opacity:1;stroke:none;stroke-width:16.0781;stroke-linecap:round;stroke-linejoin:round"
       d="m 593.53695,10.551687 c -4.93719,0.838697 -9.71585,1.768331 -14.60982,2.635517 l 14.03815,1.093374 c 4.45877,-0.854325 10.38167,-2.088092 14.3273,-2.821573 z m -31.07743,5.606616 c -10.62979,1.973229 -21.01751,4.01971 -31.32991,6.111789 l 15.21133,1.365928 c 11.32873,-2.400456 20.47503,-4.187436 30.47913,-6.171599 z m -47.07633,9.298976 c -10.33491,2.192985 -20.27843,4.46681 -30.14348,6.759864 l 16.15846,1.429083 c 10.12918,-2.3692 20.08286,-4.633828 29.84771,-6.769832 z m -45.25182,10.286042 c -10.04569,2.449654 -19.77698,4.945356 -29.14979,7.477719 l 16.12527,1.395834 c 9.74665,-2.568632 19.57527,-5.034561 29.45223,-7.431222 z m -43.14808,11.459164 c -9.74142,2.784978 -19.29316,5.583334 -28.04642,8.431532 l 15.30107,1.272869 c 9.21398,-2.854115 18.6767,-5.63665 28.52831,-8.35841 z m -32.48319,16.015621 -18.31874,0.299053 c -6.94683,2.593714 -13.33376,5.197525 -19.27589,7.806738 l 16.11863,-0.196152 c 6.63776,-2.66703 13.88169,-5.302419 21.476,-7.909767 z m -52.23434,15.078399 c -7.7951,4.096049 -14.08233,8.17512 -18.8671,12.216889 l 12.45621,0.395521 c 4.49733,-3.699757 10.49457,-7.410447 17.78035,-11.100235 z m -13.77228,20.754794 -13.1907,0.378799 c -4.91644,8.453342 -1.7821,16.586652 11.08031,24.091572 l 16.90961,-1.35268 c -15.34971,-7.3442 -19.26226,-15.15248 -14.79922,-23.117755 z m 31.89162,29.545321 -16.9362,2.46927 c 8.93327,3.1558 19.93135,6.16214 33.26088,8.98655 l 19.40883,-2.80826 c -14.28208,-2.76723 -26.17683,-5.6537 -35.73351,-8.64756 z m 52.27754,11.64856 -19.77441,2.9612 c 9.79109,1.74009 20.76996,3.38102 32.5829,4.95191 l 19.37559,-2.99438 c -3.87238,-0.57173 -7.44592,-1.15775 -11.46915,-1.72157 -7.41198,-1.03877 -14.166,-2.11253 -20.71493,-3.19716 z m 47.03317,7.14542 -18.5381,2.89804 c 10.93355,1.42426 21.18427,2.90106 30.87466,4.42011 l 16.17516,-2.48592 c -8.94951,-1.63681 -18.47069,-3.24687 -28.51172,-4.83223 z m 42.63296,7.5774 -14.72944,2.23337 c 11.02055,1.91335 20.83595,3.91269 30.07698,5.94889 l 13.22396,-1.9342 c -8.70988,-2.1169 -18.2753,-4.19882 -28.5715,-6.24806 z m 42.70939,9.9138 -12.42963,1.7581 c 11.30661,2.87341 21.11571,5.84104 29.26607,8.90012 l 13.00459,-0.93388 c -8.30741,-3.29929 -18.27048,-6.5423 -29.84103,-9.72434 z m 42.93867,15.65001 -13.13089,0.64473 c 11.97932,5.98805 18.69262,12.23476 20.32281,18.63448 l 12.95802,-2.06719 c -2.54471,-5.82644 -9.32824,-11.5793 -20.14994,-17.21202 z m 20.42912,28.17604 -15.69657,3.09413 c -5.21804,7.95601 -17.53352,16.0142 -35.66701,23.97188 l 16.6271,-0.11962 c 19.18204,-8.91387 31.35263,-17.96364 34.73648,-26.94633 z m -69.59926,34.32102 c -9.84492,3.56541 -20.86933,7.09364 -33.00165,10.56856 l 16.16187,0.89729 c 12.55864,-3.75783 23.89825,-7.56846 33.97874,-11.41929 z m -51.21405,15.52376 c -11.44656,2.96955 -23.69301,5.88528 -36.69727,8.74396 l 18.27221,1.09009 c 12.44003,-2.9109 24.17226,-5.87049 35.19178,-8.87355 z m -55.10908,12.66559 c -11.90667,2.43442 -24.41338,4.81256 -37.38857,7.13539 l 21.20015,1.30946 c 12.21383,-2.38566 24.07603,-4.80773 35.35797,-7.28163 z M 376.301,281.61057 c -12.25501,2.06166 -24.89041,4.07335 -37.95023,6.02208 l 25.15503,1.58529 c 12.07311,-2.02776 23.84903,-4.09437 35.25493,-6.20819 z m -57.13639,8.79046 c -12.58498,1.77084 -25.48217,3.48965 -38.70798,5.14466 l 29.91751,1.91432 c 12.00076,-1.75778 23.96921,-3.52084 35.46763,-5.36403 z m -58.23645,7.51759 c -12.94352,1.52658 -26.17507,2.98744 -39.6485,4.39363 l 36.40484,2.35627 c 11.97902,-1.53957 24.15401,-3.0338 35.74347,-4.65943 z m -47.71115,7.19526 19.44539,2.81495 c 2.71493,-0.32799 5.23844,-0.70139 7.93635,-1.03363 z" />
  </g>
</svg>
