<?xml version='1.0' encoding='utf-8'?>
<svg xmlns="http://www.w3.org/2000/svg" width="3000" height="1050" viewBox="0 0 793.74998 277.8125" version="1.1" id="svg8"> <defs id="defs2"/> <metadata id="metadata5"> </metadata> <g id="layer1" transform="translate(0,-19.1875)"> <path style="opacity:1;fill:#963645;fill-opacity:1;fill-rule:nonzero;stroke:none;stroke-width:3.13429499;stroke-linecap:round;stroke-linejoin:round;stroke-miterlimit:4;stroke-dasharray:none;stroke-dashoffset:0;stroke-opacity:1;paint-order:normal" d="m 722.08092,202.79736 c 3.80045,-4.06783 -19.93099,-13.51113 -20.05545,-13.47098 l -4.46776,-3.07158 -4.74697,5.5847 5.58469,10.47125 z" id="path878"/> <path style="opacity:1;fill:#ccd3d8;fill-opacity:1;fill-rule:nonzero;stroke:none;stroke-width:3.13429499;stroke-linecap:round;stroke-linejoin:round;stroke-miterlimit:4;stroke-dasharray:none;stroke-dashoffset:0;stroke-opacity:1;paint-order:normal" d="m 698.79042,190.23636 2.56682,-0.9379 0.93684,2.7523 2.74984,-0.9992 0.68797,2.89687 3.14729,-1.51607 1.1199,3.43048 2.96981,-1.63065 1.36167,3.11086 2.82109,-1.10395 0.39635,2.29008 1.87577,-0.74044 0.88852,2.27065 1.13531,-0.88852 0.14808,1.48088 0.88852,-0.64173 -0.14808,1.28342 -1.72767,0.54299 -21.37375,-9.52687 z" id="path882"/> <path style="opacity:1;fill:#4b6e86;fill-opacity:1;fill-rule:nonzero;stroke:none;stroke-width:5.22382498;stroke-linecap:round;stroke-linejoin:round;stroke-miterlimit:4;stroke-dasharray:none;stroke-dashoffset:0;stroke-opacity:1;paint-order:normal" d="M 786.79689,170.6516 C 789.21988,159.74823 696.72003,124.2649 616.30067,110.86167 535.88132,97.458451 482.26842,104.16006 466.63134,90.756836 450.99423,77.353612 426.19919,22.770844 401.03944,25.041067 c -6.07335,0.548013 -4.81472,43.879403 -21.87605,65.966938 -21.33102,27.615055 -19.23908,25.382215 -60.37404,34.904235 -38.88562,9.00133 -56.59762,10.45554 -72.19429,13.98976 -21.75798,4.93038 -29.54604,-7.61254 -34.48126,-6.97796 -4.93522,0.63458 0.41474,13.95878 -7.40382,16.19268 -7.81855,2.23386 -56.40523,13.12398 -66.45764,7.5393 C 128.19991,151.07135 100.27653,122.03103 71.236214,106.39393 42.195895,90.756836 19.85719,72.885871 13.155578,72.885871 c -6.7016148,0 0,15.637095 14.520159,39.092739 14.520158,23.45563 39.651204,60.59374 39.651204,73.99696 0,13.40322 0.801324,33.49868 -5.305444,55.84676 -10.943272,40.04755 -7.818547,39.09276 29.878017,1.95463 36.007646,-35.47422 30.715726,-60.31449 61.989916,-61.43142 31.27419,-1.11693 39.96842,0.53023 43.28124,5.0262 7.81855,10.61088 -4.18851,20.10483 11.4486,11.16934 15.63709,-8.93548 11.16935,-7.26005 33.50805,-3.90926 22.33871,3.3508 25.13104,-0.27922 26.24797,15.35786 1.11696,15.63711 6.17766,7.24 23.73489,2.5131 7.26009,-1.95462 13.68245,1.11694 32.67036,5.5847 18.9879,4.46772 82.64333,28.89661 195.46367,21.22175 82.09477,-5.58467 132.35685,-8.65624 171.72882,-21.50101 22.32423,-7.28309 33.4094,-13.77914 29.94868,-17.01633 -5.71204,-5.34309 -23.84377,-8.794 -22.54246,-11.76169 0,0 34.19963,11.18629 56.53833,3.36776 22.33872,-7.81855 28.71213,-11.99409 30.87931,-21.74636 z" id="path826"/> <path style="opacity:1;fill:#2f4b5e;fill-opacity:1;fill-rule:nonzero;stroke:none;stroke-width:5.22382498;stroke-linecap:round;stroke-linejoin:round;stroke-miterlimit:4;stroke-dasharray:none;stroke-dashoffset:0;stroke-opacity:1;paint-order:normal" d="m 292.14597,206.37772 c 8.29282,13.42649 6.71323,15.40096 11.452,14.61118 4.73876,-0.78981 28.43252,-7.89792 28.43252,-7.89792 z" id="path828"/> <path style="opacity:1;fill:#2f4b5e;fill-opacity:1;fill-rule:nonzero;stroke:none;stroke-width:5.22382498;stroke-linecap:round;stroke-linejoin:round;stroke-miterlimit:4;stroke-dasharray:none;stroke-dashoffset:0;stroke-opacity:1;paint-order:normal" d="m 503.41548,233.23069 c 7.10813,33.96106 11.8469,45.01816 23.29891,43.4386 11.45197,-1.57959 31.5917,-9.87242 40.27939,-43.4386 8.68773,-33.5662 -63.5783,0 -63.5783,0 z" id="path832"/> <circle style="opacity:1;fill:#233144;fill-opacity:1;fill-rule:nonzero;stroke:none;stroke-width:5.22382498;stroke-linecap:round;stroke-linejoin:round;stroke-miterlimit:4;stroke-dasharray:none;stroke-dashoffset:0;stroke-opacity:1;paint-order:normal" id="path853" cx="728.55267" cy="163.63687" r="3.6300399"/> <path style="opacity:1;fill:#95a5af;fill-opacity:1;fill-rule:nonzero;stroke:none;stroke-width:5.22382498;stroke-linecap:round;stroke-linejoin:round;stroke-miterlimit:4;stroke-dasharray:none;stroke-dashoffset:0;stroke-opacity:1;paint-order:normal" d="m 185.91441,173.30208 c -19.01077,0.0619 -33.98106,1.31118 -40.27472,4.64312 -3.76073,1.99097 -7.89297,6.21415 -11.89394,11.26064 4.86309,-4.13019 10.90833,-6.53063 20.14358,-6.86046 31.27419,-1.11693 39.96859,0.53046 43.2814,5.02644 7.81855,10.61086 -4.18859,20.10487 11.44851,11.16938 15.6371,-8.93548 11.16948,-7.2602 33.50819,-3.9094 22.33871,3.35079 25.13071,-0.27916 26.24764,15.35792 1.11696,15.63711 6.17774,7.24013 23.73497,2.51323 7.26009,-1.95462 13.68236,1.11692 32.67026,5.58471 18.98791,4.4677 82.64353,28.89658 195.46386,21.22172 82.09477,-5.58467 132.35695,-8.65663 171.72892,-21.50141 22.32422,-7.28309 33.40935,-13.77875 29.94865,-17.01593 -5.71205,-5.3431 -21.88902,-8.51474 -22.54236,-11.76165 0,0 34.19935,11.18585 56.53806,3.36733 18.82835,-6.58995 26.31439,-10.59229 29.49997,-17.52669 -39.69774,0.70984 -81.20431,0.88485 -96.4008,5.44379 -15.79583,4.73877 -94.44808,17.75823 -132.35811,24.07658 -37.91002,6.31833 -91.84982,4.25698 -127.57931,-1.444 -32.90456,-5.25024 -52.24992,-7.6718 -88.36109,-5.25762 -36.46311,2.4377 -33.96094,-18.16512 -81.3485,-21.3243 -25.17463,-1.67834 -51.90964,-3.13347 -73.45518,-3.0634 z" id="path855"/> <path style="opacity:1;fill:#4f758e;fill-opacity:1;fill-rule:nonzero;stroke:none;stroke-width:5.22382498;stroke-linecap:round;stroke-linejoin:round;stroke-miterlimit:4;stroke-dasharray:none;stroke-dashoffset:0;stroke-opacity:1;paint-order:normal" d="m 533.42762,207.16752 c -1.71007,-5.06273 -50.52107,-2.26626 -67.1324,7.10814 -5.74951,3.24468 -70.6864,70.68642 -68.31703,75.42519 4.06568,8.13143 48.57224,-1.1847 90.82613,-36.33048 42.25392,-35.14575 46.60447,-40.33754 44.6233,-46.20285 z" id="path830"/> <path style="color:#000000;font-style:normal;font-variant:normal;font-weight:normal;font-stretch:normal;font-size:medium;line-height:normal;font-family:sans-serif;font-variant-ligatures:normal;font-variant-position:normal;font-variant-caps:normal;font-variant-numeric:normal;font-variant-alternates:normal;font-feature-settings:normal;text-indent:0;text-align:start;text-decoration:none;text-decoration-line:none;text-decoration-style:solid;text-decoration-color:#000000;letter-spacing:normal;word-spacing:normal;text-transform:none;writing-mode:lr-tb;direction:ltr;text-orientation:mixed;dominant-baseline:auto;baseline-shift:baseline;text-anchor:start;white-space:normal;shape-padding:0;clip-rule:nonzero;display:inline;overflow:visible;visibility:visible;opacity:1;isolation:auto;mix-blend-mode:normal;color-interpolation:sRGB;color-interpolation-filters:linearRGB;solid-color:#000000;solid-opacity:1;vector-effect:none;fill:#00243b;fill-opacity:0.22222224;fill-rule:nonzero;stroke:none;stroke-width:3.13429499;stroke-linecap:round;stroke-linejoin:round;stroke-miterlimit:4;stroke-dasharray:none;stroke-dashoffset:0;stroke-opacity:1;paint-order:normal;color-rendering:auto;image-rendering:auto;shape-rendering:auto;text-rendering:auto;enable-background:accumulate" d="m 522.41162,133.84607 a 1.5673042,1.5673042 0 0 0 -1.42022,2.08545 c 9.1182,27.23708 14.73296,54.22318 15.55719,81.64471 a 1.5673042,1.5673042 0 1 0 3.13226,-0.0938 c -0.83523,-27.78712 -6.52325,-55.08585 -15.71637,-82.54668 a 1.5673042,1.5673042 0 0 0 -1.55286,-1.08966 z" id="path845"/> <path style="color:#000000;font-style:normal;font-variant:normal;font-weight:normal;font-stretch:normal;font-size:medium;line-height:normal;font-family:sans-serif;font-variant-ligatures:normal;font-variant-position:normal;font-variant-caps:normal;font-variant-numeric:normal;font-variant-alternates:normal;font-feature-settings:normal;text-indent:0;text-align:start;text-decoration:none;text-decoration-line:none;text-decoration-style:solid;text-decoration-color:#000000;letter-spacing:normal;word-spacing:normal;text-transform:none;writing-mode:lr-tb;direction:ltr;text-orientation:mixed;dominant-baseline:auto;baseline-shift:baseline;text-anchor:start;white-space:normal;shape-padding:0;clip-rule:nonzero;display:inline;overflow:visible;visibility:visible;opacity:1;isolation:auto;mix-blend-mode:normal;color-interpolation:sRGB;color-interpolation-filters:linearRGB;solid-color:#000000;solid-opacity:1;vector-effect:none;fill:#00243b;fill-opacity:0.22222224;fill-rule:nonzero;stroke:none;stroke-width:3.13429499;stroke-linecap:round;stroke-linejoin:round;stroke-miterlimit:4;stroke-dasharray:none;stroke-dashoffset:0;stroke-opacity:1;paint-order:normal;color-rendering:auto;image-rendering:auto;shape-rendering:auto;text-rendering:auto;enable-background:accumulate" d="m 547.00237,131.05256 a 1.5673042,1.5673042 0 0 0 -1.50798,1.76711 c 3.56436,31.2001 4.18379,52.047 2.22625,80.69381 a 1.5676813,1.5676813 0 1 0 3.12817,0.21222 c 1.9677,-28.79567 1.33711,-49.94472 -2.24053,-81.26108 a 1.5673042,1.5673042 0 0 0 -1.60591,-1.41206 z" id="path847"/> <path style="color:#000000;font-style:normal;font-variant:normal;font-weight:normal;font-stretch:normal;font-size:medium;line-height:normal;font-family:sans-serif;font-variant-ligatures:normal;font-variant-position:normal;font-variant-caps:normal;font-variant-numeric:normal;font-variant-alternates:normal;font-feature-settings:normal;text-indent:0;text-align:start;text-decoration:none;text-decoration-line:none;text-decoration-style:solid;text-decoration-color:#000000;letter-spacing:normal;word-spacing:normal;text-transform:none;writing-mode:lr-tb;direction:ltr;text-orientation:mixed;dominant-baseline:auto;baseline-shift:baseline;text-anchor:start;white-space:normal;shape-padding:0;clip-rule:nonzero;display:inline;overflow:visible;visibility:visible;opacity:1;isolation:auto;mix-blend-mode:normal;color-interpolation:sRGB;color-interpolation-filters:linearRGB;solid-color:#000000;solid-opacity:1;vector-effect:none;fill:#00243b;fill-opacity:0.22222224;fill-rule:nonzero;stroke:none;stroke-width:3.13429499;stroke-linecap:round;stroke-linejoin:round;stroke-miterlimit:4;stroke-dasharray:none;stroke-dashoffset:0;stroke-opacity:1;paint-order:normal;color-rendering:auto;image-rendering:auto;shape-rendering:auto;text-rendering:auto;enable-background:accumulate" d="m 565.43268,132.72785 a 1.5673042,1.5673042 0 0 0 -1.5141,1.459 c -2.56851,30.65619 -5.30587,47.84913 -4.4729,77.24323 a 1.5673042,1.5673042 0 1 0 3.13226,-0.0878 c -0.82649,-29.16532 1.88893,-46.15097 4.46473,-76.89429 a 1.5673042,1.5673042 0 0 0 -1.60999,-1.72019 z" id="path849"/> <path style="color:#000000;font-style:normal;font-variant:normal;font-weight:normal;font-stretch:normal;font-size:medium;line-height:normal;font-family:sans-serif;font-variant-ligatures:normal;font-variant-position:normal;font-variant-caps:normal;font-variant-numeric:normal;font-variant-alternates:normal;font-feature-settings:normal;text-indent:0;text-align:start;text-decoration:none;text-decoration-line:none;text-decoration-style:solid;text-decoration-color:#000000;letter-spacing:normal;word-spacing:normal;text-transform:none;writing-mode:lr-tb;direction:ltr;text-orientation:mixed;dominant-baseline:auto;baseline-shift:baseline;text-anchor:start;white-space:normal;shape-padding:0;clip-rule:nonzero;display:inline;overflow:visible;visibility:visible;opacity:1;isolation:auto;mix-blend-mode:normal;color-interpolation:sRGB;color-interpolation-filters:linearRGB;solid-color:#000000;solid-opacity:1;vector-effect:none;fill:#00243b;fill-opacity:0.22222224;fill-rule:nonzero;stroke:none;stroke-width:3.13429499;stroke-linecap:round;stroke-linejoin:round;stroke-miterlimit:4;stroke-dasharray:none;stroke-dashoffset:0;stroke-opacity:1;paint-order:normal;color-rendering:auto;image-rendering:auto;shape-rendering:auto;text-rendering:auto;enable-background:accumulate" d="m 579.49415,132.72785 a 1.5673042,1.5673042 0 0 0 -1.61815,1.51613 c -1.45463,30.68714 -2.50651,45.06305 -1.6753,74.39461 a 1.5673042,1.5673042 0 1 0 3.13225,-0.0897 c -0.82827,-29.22784 0.21743,-43.44551 1.67326,-74.15789 a 1.5673042,1.5673042 0 0 0 -1.51206,-1.66306 z" id="path851"/> <path style="opacity:1;fill:#58788d;fill-opacity:1;fill-rule:nonzero;stroke:none;stroke-width:3.13429499;stroke-linecap:round;stroke-linejoin:round;stroke-miterlimit:4;stroke-dasharray:none;stroke-dashoffset:0;stroke-opacity:1;paint-order:normal" d="m 402.80788,24.973954 c -0.58918,-0.0079 -1.17902,0.01374 -1.76869,0.06695 -6.07336,0.548014 -4.81423,43.879811 -21.87558,65.967348 -21.33102,27.615048 -19.23905,25.381798 -60.37401,34.903808 -38.88562,9.00133 -56.59785,10.45559 -72.19452,13.98982 -21.75798,4.93039 -29.54585,-7.6122 -34.48108,-6.97763 -4.93521,0.63459 0.4144,13.9587 -7.40415,16.1926 -7.81855,2.23386 -56.40516,13.12382 -66.45757,7.53913 -2.30816,-1.28232 -5.56808,-3.8108 -9.55781,-7.12016 0.16574,0.55529 0.37229,1.06839 0.62252,1.53545 16.75401,31.27419 92.70545,10.05228 218.91914,-12.28643 123.88943,-21.92734 242.40649,-20.1732 437.93011,29.54749 -8.454,-12.93042 -94.46928,-44.90438 -169.86571,-57.47044 C 535.88119,97.45867 482.26837,104.15988 466.63129,90.756657 451.36066,77.66757 427.35654,25.306875 402.80788,24.973954 Z" id="path868"/> <path style="opacity:1;fill:#627f93;fill-opacity:1;fill-rule:nonzero;stroke:none;stroke-width:3.13429499;stroke-linecap:round;stroke-linejoin:round;stroke-miterlimit:4;stroke-dasharray:none;stroke-dashoffset:0;stroke-opacity:1;paint-order:normal" d="m 402.80788,24.973954 c -0.58918,-0.0079 -1.17902,0.01374 -1.76869,0.06695 -6.07336,0.548014 -4.81423,43.879811 -21.87558,65.967348 -21.33102,27.615048 -19.23905,25.381798 -60.37401,34.903808 -38.88562,9.00133 -56.59785,10.45559 -72.19452,13.98982 -21.75798,4.93039 -29.54585,-7.6122 -34.48108,-6.97763 -4.93521,0.63459 0.4144,13.9587 -7.40415,16.1926 -0.53141,0.15183 -1.28287,0.34945 -2.16607,0.57338 26.16984,-2.21564 63.05345,-5.85287 114.41827,-15.37303 160.3745,-29.72443 255.12673,-33.49836 455.26404,24.14095 C 743.32253,143.25263 676.43689,120.88462 616.30053,110.86189 535.88119,97.45867 482.26837,104.15988 466.63129,90.756657 451.36066,77.66757 427.35654,25.306875 402.80788,24.973954 Z" id="path873"/> <ellipse ry="0.93739784" rx="42.659492" cy="79.829498" cx="624.4234" id="ellipse2633" style="opacity:1;fill:#00243b;fill-opacity:0.22352941;fill-rule:nonzero;stroke:none;stroke-width:9.14787674;stroke-linecap:round;stroke-linejoin:round;stroke-miterlimit:4;stroke-dasharray:none;stroke-dashoffset:0;stroke-opacity:1;paint-order:normal" transform="matrix(0.99308401,0.11740595,-0.30696653,0.95172031,0,0)"/> <ellipse transform="matrix(0.99992809,-0.01199203,-0.18132571,0.9834231,0,0)" style="opacity:1;fill:#00243b;fill-opacity:0.22352941;fill-rule:nonzero;stroke:none;stroke-width:9.14787674;stroke-linecap:round;stroke-linejoin:round;stroke-miterlimit:4;stroke-dasharray:none;stroke-dashoffset:0;stroke-opacity:1;paint-order:normal" id="ellipse2635" cx="666.31769" cy="171.31258" rx="42.659489" ry="0.9373979"/> <ellipse ry="0.9373979" rx="42.659489" cy="170.61768" cx="517.07544" id="ellipse2637" style="opacity:1;fill:#00243b;fill-opacity:0.22352941;fill-rule:nonzero;stroke:none;stroke-width:9.14787674;stroke-linecap:round;stroke-linejoin:round;stroke-miterlimit:4;stroke-dasharray:none;stroke-dashoffset:0;stroke-opacity:1;paint-order:normal" transform="matrix(0.99992809,-0.01199203,-0.18132571,0.9834231,0,0)"/> <ellipse ry="0.76185322" rx="35.009048" cy="132.97369" cx="546.72131" id="ellipse2639" style="opacity:1;fill:#00243b;fill-opacity:0.22352941;fill-rule:nonzero;stroke:none;stroke-width:7.47095728;stroke-linecap:round;stroke-linejoin:round;stroke-miterlimit:4;stroke-dasharray:none;stroke-dashoffset:0;stroke-opacity:1;paint-order:normal" transform="matrix(0.99671054,0.08104385,-0.24695877,0.96902599,0,0)"/> <ellipse transform="matrix(0.98866588,-0.15013251,-0.01770449,0.99984326,0,0)" style="opacity:1;fill:#00243b;fill-opacity:0.22352941;fill-rule:nonzero;stroke:none;stroke-width:7.47095728;stroke-linecap:round;stroke-linejoin:round;stroke-miterlimit:4;stroke-dasharray:none;stroke-dashoffset:0;stroke-opacity:1;paint-order:normal" id="ellipse2641" cx="641.4151" cy="273.34436" rx="35.009048" ry="0.76185322"/> <ellipse ry="0.93739784" rx="42.659489" cy="-129.64607" cx="559.76569" id="ellipse2645" style="opacity:1;fill:#00243b;fill-opacity:0.22352941;fill-rule:nonzero;stroke:none;stroke-width:9.14787674;stroke-linecap:round;stroke-linejoin:round;stroke-miterlimit:4;stroke-dasharray:none;stroke-dashoffset:0;stroke-opacity:1;paint-order:normal" transform="matrix(0.88050552,0.47403589,-0.63514435,0.77239346,0,0)"/> <ellipse ry="0.59463102" rx="24.748747" cy="77.606285" cx="536.02069" id="ellipse2651" style="opacity:1;fill:#00243b;fill-opacity:0.22352941;fill-rule:nonzero;stroke:none;stroke-width:5.54946136;stroke-linecap:round;stroke-linejoin:round;stroke-miterlimit:4;stroke-dasharray:none;stroke-dashoffset:0;stroke-opacity:1;paint-order:normal" transform="matrix(0.99033757,0.13867767,-0.27794114,0.96059811,0,0)"/> <ellipse transform="matrix(0.99033757,0.13867767,-0.27794114,0.96059811,0,0)" style="opacity:1;fill:#00243b;fill-opacity:0.22352941;fill-rule:nonzero;stroke:none;stroke-width:5.54946136;stroke-linecap:round;stroke-linejoin:round;stroke-miterlimit:4;stroke-dasharray:none;stroke-dashoffset:0;stroke-opacity:1;paint-order:normal" id="ellipse2653" cx="602.5321" cy="97.164894" rx="24.748747" ry="0.59463102"/> <ellipse ry="0.59463102" rx="24.748747" cy="57.75679" cx="630.90186" id="ellipse2655" style="opacity:1;fill:#00243b;fill-opacity:0.22352941;fill-rule:nonzero;stroke:none;stroke-width:5.54946136;stroke-linecap:round;stroke-linejoin:round;stroke-miterlimit:4;stroke-dasharray:none;stroke-dashoffset:0;stroke-opacity:1;paint-order:normal" transform="matrix(0.99033757,0.13867767,-0.27794114,0.96059811,0,0)"/> <ellipse transform="matrix(0.87847971,0.47777965,-0.6312867,0.77554955,0,0)" style="opacity:1;fill:#00243b;fill-opacity:0.22352941;fill-rule:nonzero;stroke:none;stroke-width:4.21321058;stroke-linecap:round;stroke-linejoin:round;stroke-miterlimit:4;stroke-dasharray:none;stroke-dashoffset:0;stroke-opacity:1;paint-order:normal" id="ellipse929" cx="500.08319" cy="-69.848488" rx="19.610369" ry="0.4325532"/> <ellipse transform="matrix(0.99671054,0.08104385,-0.24695877,0.96902599,0,0)" style="opacity:1;fill:#00243b;fill-opacity:0.22352941;fill-rule:nonzero;stroke:none;stroke-width:7.47095728;stroke-linecap:round;stroke-linejoin:round;stroke-miterlimit:4;stroke-dasharray:none;stroke-dashoffset:0;stroke-opacity:1;paint-order:normal" id="ellipse931" cx="448.23615" cy="143.24803" rx="35.009048" ry="0.76185322"/> <circle r="0.90750986" cy="163.00859" cx="730.0885" id="circle933" style="opacity:1;fill:#c9d6e0;fill-opacity:1;fill-rule:nonzero;stroke:none;stroke-width:1.30595613;stroke-linecap:round;stroke-linejoin:round;stroke-miterlimit:4;stroke-dasharray:none;stroke-dashoffset:0;stroke-opacity:1;paint-order:normal"/> <path style="opacity:1;fill:#466780;fill-opacity:1;fill-rule:nonzero;stroke:none;stroke-width:3.13429499;stroke-linecap:round;stroke-linejoin:round;stroke-miterlimit:4;stroke-dasharray:none;stroke-dashoffset:0;stroke-opacity:1;paint-order:normal" d="m 10.578996,76.732286 c 0.484718,6.00961 6.839132,18.675824 17.096924,35.246114 14.520158,23.45562 39.651136,60.59402 39.651136,73.99724 0,13.40322 0.801196,33.49836 -5.305571,55.84644 -5.335547,19.52575 -7.325624,29.3028 -3.596254,29.89303 18.773735,-41.98649 17.547003,-73.27242 17.114972,-88.21314 -0.373824,-12.92775 -19.240006,-55.076 -64.961207,-106.769684 z" id="path935"/> </g> </svg>