<?xml version="1.0" encoding="UTF-8" standalone="no"?>
<!-- Created with Inkscape (http://www.inkscape.org/) -->

<svg
   width="160"
   height="128"
   viewBox="0 0 42.333332 33.866666"
   version="1.1"
   id="svg1"
   inkscape:version="1.3 (0e150ed, 2023-07-21)"
   sodipodi:docname="skin-cells.svg"
   xmlns:inkscape="http://www.inkscape.org/namespaces/inkscape"
   xmlns:sodipodi="http://sodipodi.sourceforge.net/DTD/sodipodi-0.dtd"
   xmlns="http://www.w3.org/2000/svg"
   xmlns:svg="http://www.w3.org/2000/svg">
  <sodipodi:namedview
     id="namedview1"
     pagecolor="#505050"
     bordercolor="#ffffff"
     borderopacity="1"
     inkscape:showpageshadow="0"
     inkscape:pageopacity="0"
     inkscape:pagecheckerboard="1"
     inkscape:deskcolor="#505050"
     inkscape:document-units="mm"
     inkscape:zoom="1.3001718"
     inkscape:cx="119.21502"
     inkscape:cy="103.83244"
     inkscape:current-layer="layer1" />
  <defs
     id="defs1" />
  <g
     inkscape:label="Layer 1"
     inkscape:groupmode="layer"
     id="layer1">
    <path
       style="fill:#f4cd76;fill-opacity:1;stroke:#edac52;stroke-width:0.365527;stroke-linecap:round;stroke-linejoin:round;stroke-dasharray:none;stroke-opacity:1"
       d="m 19.655701,4.8223515 c -4.040282,0.062107 -5.065891,1.0362622 -5.892646,1.9860815 -0.826755,0.9498194 -1.433967,3.310564 -1.07587,4.097566 0.358097,0.787002 -0.331212,1.799199 -0.479526,3.277867 -0.148315,1.478668 0.673574,2.476443 1.456987,2.76775 2.733908,1.016586 3.388745,-0.494878 5.781064,0.09111 2.392319,0.585984 3.14732,-0.660193 5.058279,-0.966623 1.910959,-0.306433 3.142442,-1.514676 3.442625,-2.950561 0.300183,-1.435887 -1.692015,-1.868998 -2.284717,-3.3370707 -0.592702,-1.4680735 -0.95665,-5.0437425 -6.006196,-4.9661166 z"
       id="path1"
       sodipodi:nodetypes="ssssssssss" />
    <path
       style="fill:#f4cd76;fill-opacity:1;stroke:#edac52;stroke-width:0.365527;stroke-linecap:round;stroke-linejoin:round;stroke-dasharray:none;stroke-opacity:1"
       d="m 37.668547,5.8850651 c -3.32655,-0.9954542 -5.109004,1.9762905 -8.175354,0.894574 -3.066351,-1.0817166 -5.425335,5.0220079 -2.99957,5.6018519 2.425767,0.579843 1.726986,3.638464 3.789551,4.14809 2.062563,0.509625 6.607159,3.196544 8.345924,0.639536 1.738768,-2.557012 3.712435,-4.01487 2.156843,-6.07703 -1.555595,-2.0621594 0.679145,-4.0709242 -3.117394,-5.2070219 z"
       id="path2"
       sodipodi:nodetypes="sssssss" />
    <path
       style="fill:#f4cd76;fill-opacity:1;stroke:#edac52;stroke-width:0.365527;stroke-linecap:round;stroke-linejoin:round;stroke-dasharray:none;stroke-opacity:1"
       d="M 5.3308696,1.1244852 C 2.0251271,2.4797281 0.22922331,5.2767051 1.2855527,6.6750501 2.341883,8.073397 3.7155209,11.188529 6.6461242,10.743045 9.5767283,10.297558 11.19775,11.985456 12.871621,11.568207 14.545491,11.150959 17.233397,7.9805746 16.403104,6.1819785 15.572812,4.3833829 16.387299,2.7369945 13.495679,2.0014465 10.604064,1.2658985 7.6793931,0.16167038 5.3308696,1.1244852 Z"
       id="path3"
       sodipodi:nodetypes="sssssss" />
    <path
       style="fill:#f4cd76;fill-opacity:1;stroke:#edac52;stroke-width:0.365527;stroke-linecap:round;stroke-linejoin:round;stroke-dasharray:none;stroke-opacity:1"
       d="m 28.616207,19.185858 c -3.991441,-0.725802 -3.31598,1.077507 -4.277708,1.615203 -0.961727,0.537699 1.096002,3.998076 1.931419,4.339693 0.835414,0.341616 2.94488,1.558417 4.438368,0.944793 1.49349,-0.613625 0.06407,-2.729402 1.022506,-3.437894 0.958438,-0.708493 -0.600432,-3.004622 -3.114585,-3.461795 z"
       id="path4"
       sodipodi:nodetypes="ssssss" />
    <path
       style="fill:#f4cd76;fill-opacity:1;stroke:#edac52;stroke-width:0.365527;stroke-linecap:round;stroke-linejoin:round;stroke-dasharray:none;stroke-opacity:1"
       d="m 9.3767595,17.905941 c 1.3818255,0.541264 4.7883015,1.006178 5.1277835,1.808502 0.339482,0.802323 -2.288063,2.334448 -1.902637,2.982488 0.385426,0.64804 -0.696407,2.395383 -2.7653073,2.542635 -2.0688999,0.147251 -4.9446884,-2.304867 -4.0086218,-3.739548 0.9360675,-1.43468 1.3357185,-4.460935 3.5487826,-3.594077 z"
       id="path5"
       sodipodi:nodetypes="ssssss" />
    <path
       style="fill:#f4cd76;fill-opacity:1;stroke:#edac52;stroke-width:0.365527;stroke-linecap:round;stroke-linejoin:round;stroke-dasharray:none;stroke-opacity:1"
       d="m 22.915883,28.935969 c -1.385614,-0.233758 -2.257313,0.254688 -2.331597,0.967842 -0.07428,0.713155 -0.10106,2.262876 0.628915,2.543824 0.729974,0.280949 1.664694,0.125851 2.297321,0.560693 0.632626,0.434843 1.603052,-0.455641 1.866831,-1.172402 0.26378,-0.71676 -0.878635,-2.632925 -2.46147,-2.899957 z"
       id="path6"
       sodipodi:nodetypes="ssssss" />
  </g>
</svg>
