<?xml version="1.0" encoding="UTF-8" standalone="no"?>
<!-- Created with Inkscape (http://www.inkscape.org/) -->

<svg
   width="139"
   height="128"
   viewBox="0 0 36.777082 33.866666"
   version="1.1"
   id="svg1"
   inkscape:version="1.3 (0e150ed, 2023-07-21)"
   sodipodi:docname="supernova.svg"
   inkscape:export-filename="supernova.png"
   inkscape:export-xdpi="96"
   inkscape:export-ydpi="96"
   xmlns:inkscape="http://www.inkscape.org/namespaces/inkscape"
   xmlns:sodipodi="http://sodipodi.sourceforge.net/DTD/sodipodi-0.dtd"
   xmlns="http://www.w3.org/2000/svg"
   xmlns:svg="http://www.w3.org/2000/svg">
  <sodipodi:namedview
     id="namedview1"
     pagecolor="#505050"
     bordercolor="#ffffff"
     borderopacity="1"
     inkscape:showpageshadow="0"
     inkscape:pageopacity="0"
     inkscape:pagecheckerboard="1"
     inkscape:deskcolor="#505050"
     inkscape:document-units="mm"
     inkscape:zoom="2.6003435"
     inkscape:cx="74.79781"
     inkscape:cy="79.220302"
     inkscape:current-layer="layer1" />
  <defs
     id="defs1">
    <filter
       inkscape:collect="always"
       style="color-interpolation-filters:sRGB"
       id="filter4"
       x="-0.11182482"
       y="-0.12411991"
       width="1.2236496"
       height="1.2482398">
      <feGaussianBlur
         inkscape:collect="always"
         stdDeviation="1.2178676"
         id="feGaussianBlur4" />
    </filter>
  </defs>
  <g
     inkscape:label="Layer 1"
     inkscape:groupmode="layer"
     id="layer1">
    <g
       id="g4"
       transform="matrix(1.1363806,0,0,1.1363806,-0.85416975,-2.3093774)">
      <path
         style="fill:#59b8fe;fill-opacity:0.303258;stroke-width:4.51045;stroke-linecap:round;stroke-linejoin:round;filter:url(#filter4)"
         d="M 10.183929,9.0892094 C 6.6439941,10.707312 3.9328444,10.886923 3.8654787,13.474675 c -0.067365,2.587748 2.7951639,5.962624 4.6981391,7.778903 1.9029752,1.816278 1.5268362,5.616084 3.6773422,7.06553 2.150506,1.449447 7.55948,-1.63569 10.927691,-1.448319 3.368213,0.187373 5.393523,-4.345218 4.659111,-7.207598 C 26.806922,15.684449 30.241,14.535499 29.9891,11.037188 29.737201,7.5388777 24.640524,6.997284 22.784459,6.7766065 20.928393,6.5559313 19.98757,5.2194874 17.423387,5.1600253 14.859201,5.1005631 13.837211,7.4192966 10.183929,9.0892094 Z"
         id="path4"
         sodipodi:nodetypes="ssssssssss" />
      <path
         style="fill:#59c8fe;fill-opacity:0.303258;stroke-width:4.51045;stroke-linecap:round;stroke-linejoin:round"
         d="M 10.183929,9.0892094 C 6.6439941,10.707312 3.9328444,10.886923 3.8654787,13.474675 c -0.067365,2.587748 2.7951639,5.962624 4.6981391,7.778903 1.9029752,1.816278 1.5268362,5.616084 3.6773422,7.06553 2.150506,1.449447 7.55948,-1.63569 10.927691,-1.448319 3.368213,0.187373 5.393523,-4.345218 4.659111,-7.207598 C 26.806922,15.684449 30.241,14.535499 29.9891,11.037188 29.737201,7.5388777 24.640524,6.997284 22.784459,6.7766065 20.928393,6.5559313 19.98757,5.2194874 17.423387,5.1600253 14.859201,5.1005631 13.837211,7.4192966 10.183929,9.0892094 Z"
         id="path1"
         sodipodi:nodetypes="ssssssssss" />
      <path
         style="fill:#96ecfe;fill-opacity:0.425185;stroke-width:2.8207;stroke-linecap:round;stroke-linejoin:round"
         d="m 11.282165,11.984659 c -2.2137716,1.011914 -1.7329356,2.322853 -1.7750641,3.941157 -0.042128,1.618302 2.1162761,2.503969 3.3063401,3.639816 1.190065,1.135848 -0.159443,3.581589 1.18542,4.48803 1.344863,0.906442 4.065329,0.05972 6.171709,0.176902 2.106382,0.117178 5.058184,-2.909864 4.598904,-4.699912 -0.638403,-2.488188 0.486083,-4.096853 0.328552,-6.284594 C 24.940495,11.058317 22.240998,10.965817 21.080269,10.827812 19.919541,10.689808 18.117985,9.6413926 16.514421,9.6042067 14.910854,9.5670208 13.56682,10.940345 11.282165,11.984659 Z"
         id="path2"
         sodipodi:nodetypes="ssssssssss" />
      <path
         style="fill:#ffffff;fill-opacity:0.643636;stroke-width:0.903377;stroke-linecap:round;stroke-linejoin:round"
         d="m 15.581524,15.362267 c -0.708998,0.324083 -1.252002,0.360057 -1.265495,0.878347 -0.0135,0.518289 0.559832,1.194227 0.94097,1.558002 0.381139,0.363775 0.305804,1.124822 0.736519,1.415125 0.430716,0.290304 1.514056,-0.327606 2.18866,-0.290078 0.674605,0.03753 1.080246,-0.870285 0.933153,-1.443578 -0.204459,-0.796885 0.483337,-1.027003 0.432886,-1.727665 -0.05045,-0.700662 -1.071244,-0.809135 -1.442987,-0.853334 -0.371743,-0.0442 -0.560177,-0.311868 -1.073746,-0.323777 -0.51357,-0.01191 -0.718259,0.452499 -1.44996,0.786958 z"
         id="path3"
         sodipodi:nodetypes="ssssssssss" />
    </g>
  </g>
</svg>
