<?xml version='1.0' encoding='utf-8'?>
<svg xmlns="http://www.w3.org/2000/svg" width="3e3" height="2500" version="1.1" viewBox="0 0 793.75 661.46"><g fill-rule="evenodd"><path d="m393.57 653.36c233.77 0 390.13-113.01 393.23-331.3 3.0963-218.29-162.56-270.93-373.1-270.93-210.55 0-388.59 20.126-405.61 255.44-17.03 235.32 154.81 346.79 385.49 346.79z" fill="#e10e0e"/><path d="m413.69 51.13c-80.559 0-156.31 2.9982-220.16 19.817 188.03 17.865 144.42 65.389 226.35 49.85 89.239-16.925 274.76 27.426 351.51 306.08 9.5237-31.712 14.857-66.616 15.399-104.82 3.0963-218.29-162.56-270.93-373.1-270.93z" fill="#ff7878" fill-opacity=".16165"/><path d="m662.02 283.84c-39.737-96.262-92.807-115.07-135.5-123.91-65.126-13.481-1.0081-58.449 82.248-41.216 47.58 9.8484 96.79 50.565 114.82 103.87 18.033 53.3-21.784 157.65-61.573 61.258z" fill="#ff7878" fill-opacity=".30451"/><path d="m454.83 126.31c54.188 34.483 45.978 77.724 45.978 77.724 0.3046-6.4526-58.406-61.802-94.692-63.493-26.217 9.0105-59.661 32.294-60.209 88.124-27.368-32.294-3.8315-85.387 11.494-111.66-33.389-24.631-92.503-40.504-148.33-34.483 46.525-31.746 128.63-33.936 156 2.1894-2.1894-30.104-5.4735-31.746-53.093-61.304 75.535 3.8315 83.745 15.326 96.882 47.62 33.389-8.2103 79.366-22.441 95.239-23.536-44.883 36.673-45.978 34.483-57.472 48.714 66.23-20.252 122.06-1.0947 158.73 35.578-81.556-27.915-89.766-24.084-150.52-5.4736z" fill="#3cb218"/><path d="m425.11 108.62c0 5.7035-1.8505 14.984-19.303 12.232-11.326-1.7857-19.51-1.237-19.51-6.9405 0-5.7034 2.4704-9.057 13.93-9.057 11.46 2e-5 24.882-1.9379 24.882 3.7655z" fill-opacity=".14" stroke-linecap="round" stroke-linejoin="round" stroke-width="4.7407"/><path d="m417.17 109.96c-3.3519 10.493-20.9 8.9019-20.9 1.9352 0-6.9666 25.932-85.535 34.446-99.081 8.5148-13.546 33.285 5.8056 31.737 11.611-1.5481 5.8056-13.933 5.8056-26.318 35.607-12.385 29.802-13.414 32.553-18.965 49.928z" fill="#2e8a13"/><path d="m13.487 263.15c-2.4562 13.607-4.2959 28.031-5.41 43.426-17.03 235.32 154.81 346.79 385.49 346.79 131.56 0 238.6-35.799 307.61-106.01-86.162 69.985-336.81 89.673-466.17 41.852-129.37-47.822-217.96-156.96-221.52-326.06z" fill-opacity=".18985"/><path d="m313.55 24.397c43.971 27.287 48.957 30.635 51.188 56.907 4.5642-13.254 1.874-41.378-51.188-56.907z" fill-opacity=".1391"/><path d="m436.24 8.5535c-2.1675 0.63267-4.081 1.9662-5.5229 4.2602-8.5148 13.546-34.446 92.115-34.446 99.082 0 2.6727 2.5892 4.5428 5.9623 5.2544 7.8985-31.64 36.709-87.847 36.173-93.74-0.48385-5.3237-5.2321-8.515-2.1665-14.857z" fill-opacity=".1391"/><path d="m442.81 8.4706c0.1404 0.5479 0.31626 1.1462 0.52971 1.8025 5.1087 15.719 6.5486 19.305 14.45 19.268 2.4286-1.889 4.1652-3.2256 4.6694-5.1163 1.0416-3.9061-9.8298-13.929-19.649-15.954z" fill="#fff" fill-opacity=".1391"/><path d="m240.06 78.449c-10.75 0.13967-21.144 1.3499-30.66 3.8585-0.10915 0.07384-0.22517 0.14172-0.33389 0.2159 55.043-5.936 113.23 9.4289 146.86 33.467-13.929-18.113-68.265-38.159-115.86-37.541z" fill-opacity=".1391"/><path d="m521.58 107.44c-22.457 0.13151-43.449 6.4342-64.076 18.063 57.797-17.731 67.649-21.079 146.64 5.8845-30.391-16.485-57.399-24.094-82.561-23.947z" fill-opacity=".1391"/><path d="m393.54 135.98c-21.086-0.0389-54.746 23.234-48.346 91.779 0.24382 0.30119 0.46048 0.61341 0.71296 0.9113 0.54735-55.83 33.991-79.113 60.208-88.124 0.19432 0.0103 0.40126 0.0389 0.59748 0.0525-2.8269-2.9162-7.5334-4.6094-13.172-4.6192z" fill="#fff" fill-opacity=".1391"/><path d="m458.2 128.55c27.708 33.308 29.008 40.957 42.677 74.939 0.46298-2.8115 5.9365-42.079-42.677-74.939z" fill="#fff" fill-opacity=".1391"/><path d="m504.09 47.493c-0.29827 0.02042-0.77529 0.1184-1.0946 0.14812-13.057 7.6617-58.382 35.249-55.317 47.307 10.489-12.743 13.042-12.018 56.412-47.455z" fill="#fff" fill-opacity=".14"/><path d="m100.97 249.29c-67.955 86.076-15.481 212.1 122.3 266.28 137.79 54.185 323.56 24.77 368.46 4.6444 44.896-20.126-19.006-88.585-159.46-94.437-260.09-10.837-259.71-267.18-331.3-176.49z" fill="#ff7878" fill-opacity=".11842"/></g></svg>