<?xml version="1.0" encoding="UTF-8" standalone="no"?>
<!-- Created with Inkscape (http://www.inkscape.org/) -->

<svg
   xmlns:dc="http://purl.org/dc/elements/1.1/"
   xmlns:cc="http://creativecommons.org/ns#"
   xmlns:rdf="http://www.w3.org/1999/02/22-rdf-syntax-ns#"
   xmlns:svg="http://www.w3.org/2000/svg"
   xmlns="http://www.w3.org/2000/svg"
   xmlns:sodipodi="http://sodipodi.sourceforge.net/DTD/sodipodi-0.dtd"
   xmlns:inkscape="http://www.inkscape.org/namespaces/inkscape"
   width="107.5573mm"
   height="94.82634mm"
   viewBox="0 0 107.5573 94.82634"
   version="1.1"
   id="svg8"
   inkscape:version="0.92.4 (5da689c313, 2019-01-14)"
   sodipodi:docname="Tomato-front.svg">
  <defs
     id="defs2" />
  <sodipodi:namedview
     id="base"
     pagecolor="#ffffff"
     bordercolor="#666666"
     borderopacity="1.0"
     inkscape:pageopacity="0.0"
     inkscape:pageshadow="2"
     inkscape:zoom="0.98994949"
     inkscape:cx="188.35095"
     inkscape:cy="180.90398"
     inkscape:document-units="mm"
     inkscape:current-layer="layer1"
     showgrid="false"
     inkscape:window-width="1366"
     inkscape:window-height="713"
     inkscape:window-x="0"
     inkscape:window-y="0"
     inkscape:window-maximized="1"
     fit-margin-top="0"
     fit-margin-left="0"
     fit-margin-right="0"
     fit-margin-bottom="0" />
  <metadata
     id="metadata5">
    <rdf:RDF>
      <cc:Work
         rdf:about="">
        <dc:format>image/svg+xml</dc:format>
        <dc:type
           rdf:resource="http://purl.org/dc/dcmitype/StillImage" />
        <dc:title></dc:title>
      </cc:Work>
    </rdf:RDF>
  </metadata>
  <g
     inkscape:label="Layer 1"
     inkscape:groupmode="layer"
     id="layer1"
     transform="translate(-59.224728,-116.49447)">
    <path
       style="fill:#555555;fill-opacity:1;stroke:none;stroke-width:0.26458332px;stroke-linecap:butt;stroke-linejoin:miter;stroke-opacity:1"
       d="m 109.14062,211.10491 c 12.17382,0.68419 23.5587,0.63611 43.20301,-14.33099 19.64431,-14.96709 15.63527,-41.82768 8.95353,-52.51846 -6.68174,-10.69078 -13.22984,-19.51067 -30.33509,-19.77794 7.34991,-1.87089 13.36347,-3.20724 19.37704,-3.47451 -10.82442,-0.8018 -26.86059,1.87089 -29.66692,4.27632 -4.27631,0.8018 -4.81085,0.66817 -4.81085,0.66817 -0.13364,-2.80633 -1.33635,-5.07812 -0.66817,-6.81537 0.66817,-1.73726 -1.33635,-0.93545 -3.07361,-2.00452 -1.73725,-1.06908 -2.40542,-0.80181 -2.80632,0.93544 -0.40091,1.73725 -1.87089,5.34539 -1.46999,7.88445 -4.27631,0.80181 -9.08716,0.66818 -9.08716,0.66818 -6.147199,-5.07813 -12.02713,-6.28084 -15.635268,-7.34992 5.078121,2.93997 11.492589,4.94449 12.160763,7.48355 -8.953529,-0.13363 -28.731474,2.93996 -34.210498,23.11881 -5.479026,20.17885 -1.304791,58.46187 48.069533,61.23679 z"
       id="path826"
       inkscape:connector-curvature="0"
       sodipodi:nodetypes="ssscccccccccccss" />
  </g>
</svg>
