<?xml version="1.0" encoding="UTF-8" standalone="no"?>
<!-- Created with Inkscape (http://www.inkscape.org/) -->

<svg
   xmlns:dc="http://purl.org/dc/elements/1.1/"
   xmlns:cc="http://creativecommons.org/ns#"
   xmlns:rdf="http://www.w3.org/1999/02/22-rdf-syntax-ns#"
   xmlns:svg="http://www.w3.org/2000/svg"
   xmlns="http://www.w3.org/2000/svg"
   xmlns:sodipodi="http://sodipodi.sourceforge.net/DTD/sodipodi-0.dtd"
   xmlns:inkscape="http://www.inkscape.org/namespaces/inkscape"
   width="149.45288mm"
   height="200.84583mm"
   viewBox="0 0 149.45288 200.84583"
   version="1.1"
   id="svg8"
   inkscape:version="0.92.4 (5da689c313, 2019-01-14)"
   sodipodi:docname="Cessna_172_Skyhawk-top.svg">
  <defs
     id="defs2">
    <inkscape:path-effect
       effect="mirror_symmetry"
       start_point="105,0"
       end_point="105,297"
       center_point="105,148.5"
       id="path-effect820"
       is_visible="true"
       mode="vertical"
       discard_orig_path="false"
       fuse_paths="false"
       oposite_fuse="false" />
  </defs>
  <sodipodi:namedview
     id="base"
     pagecolor="#ffffff"
     bordercolor="#666666"
     borderopacity="1.0"
     inkscape:pageopacity="0.0"
     inkscape:pageshadow="2"
     inkscape:zoom="0.49497475"
     inkscape:cx="260.13359"
     inkscape:cy="294.38149"
     inkscape:document-units="mm"
     inkscape:current-layer="layer1"
     showgrid="false"
     inkscape:pagecheckerboard="true"
     inkscape:showpageshadow="false"
     borderlayer="true"
     inkscape:snap-global="true"
     inkscape:window-width="1366"
     inkscape:window-height="713"
     inkscape:window-x="0"
     inkscape:window-y="0"
     inkscape:window-maximized="1"
     inkscape:snap-object-midpoints="true"
     inkscape:snap-page="true"
     showguides="true"
     inkscape:guide-bbox="true"
     inkscape:snap-smooth-nodes="false"
     fit-margin-top="0"
     fit-margin-left="0"
     fit-margin-right="0"
     fit-margin-bottom="0" />
  <metadata
     id="metadata5">
    <rdf:RDF>
      <cc:Work
         rdf:about="">
        <dc:format>image/svg+xml</dc:format>
        <dc:type
           rdf:resource="http://purl.org/dc/dcmitype/StillImage" />
        <dc:title></dc:title>
      </cc:Work>
    </rdf:RDF>
  </metadata>
  <g
     inkscape:label="Layer 1"
     inkscape:groupmode="layer"
     id="layer1"
     transform="translate(-30.273705,-45.344358)">
    <path
       style="fill:#555555;fill-opacity:1;stroke:none;stroke-width:0.26458332px;stroke-linecap:butt;stroke-linejoin:miter;stroke-opacity:1"
       d="m 179.72659,145.76671 c 0,-0.64566 -0.49624,-0.64198 -1.01596,-0.63975 0,-0.28348 -5.66942,-0.87356 -13.27619,-0.84078 0,-0.28348 -0.49056,-0.3633 -1.09192,-0.3607 2.03793,-0.67695 7.85107,-2.53988 8.01811,-2.67426 0.16705,-0.13435 -4.42239,-25.93809 -4.65863,-26.45678 -0.23623,-0.51871 -7.53546,-0.91904 -10.87633,-0.77101 -3.34087,0.14804 -3.60795,0.75081 -3.87522,2.28875 -0.26727,1.53796 -4.47673,25.74365 -4.47673,25.74365 l -50.848058,-6.66316 c 0,0 0.200504,-34.54513 0.200504,-36.349204 0,-1.804069 -6.280964,-48.549133 -6.414595,-49.617643 -0.133638,-1.06849 -0.267166,-2.872025 -0.267166,-3.607015 0,-0.73499 -0.668345,-0.398211 -1.937866,-0.392741 l -15.368053,0.06615 -0.447519,0.777214 c -1.891191,0.009 -2.626093,0.639239 -2.893364,3.045809 -0.267269,2.40658 -3.0734,46.652136 -3.207038,48.323147 -0.133631,1.67101 -0.467673,37.753763 -0.467673,37.753763 0,0 -19.94821,0.76272 -27.128059,2.92334 -1.102479,0.33177 -1.269228,0.60636 -1.469679,1.94355 -0.200448,1.33721 -0.133707,2.43949 -0.300757,2.64066 -0.167039,0.20117 -0.300754,0.20206 -0.300754,0.20206 v 0.8015 l -0.4346,0.002 v -0.60152 l -0.33383,0.002 c 0,0 0.200322,-5.78018 0.06666,-10.75749 -0.13363,-4.97732 -0.801915,-7.88115 -1.069184,-0.12919 -0.267271,7.75198 -0.06666,11.12542 -0.06666,11.12542 -2.63929,0.81318 -5.512324,1.82171 -5.512324,2.22261 0,0.4009 2.873034,1.40994 5.512324,2.22312 0,0 -0.200607,3.37344 0.06666,11.12541 0.267269,7.75197 0.935554,4.84815 1.069184,-0.12919 0.13366,-4.97731 -0.06666,-10.758 -0.06666,-10.758 l 0.33383,0.002 v -0.601 l 0.4346,0.002 v 0.8015 c 0,0 0.133715,7.9e-4 0.300754,0.20206 0.16705,0.20117 0.100309,1.30294 0.300757,2.64015 0.200451,1.33719 0.3672,1.61229 1.469679,1.94406 7.179849,2.16062 27.128059,2.92334 27.128059,2.92334 0,0 0.334042,36.08276 0.467673,37.75377 0.133638,1.67101 2.939769,45.91656 3.207038,48.32314 0.267271,2.40657 1.002173,3.03681 2.893364,3.04581 l 0.447519,0.7767 15.368053,0.0667 c 1.269521,0.005 1.937866,0.34225 1.937866,-0.39274 0,-0.73499 0.133528,-2.53852 0.267166,-3.60701 0.133631,-1.06851 6.414595,-47.81358 6.414595,-49.61765 0,-1.80407 -0.200504,-36.34971 -0.200504,-36.34971 l 50.848058,-6.66284 c 0,0 4.20946,24.20568 4.47673,25.74364 0.26727,1.53794 0.53435,2.14071 3.87522,2.28875 3.34087,0.14803 10.6401,-0.2523 10.87633,-0.77101 0.23624,-0.51869 4.82568,-26.32295 4.65863,-26.4573 -0.16704,-0.13437 -5.98018,-1.99679 -8.01811,-2.67374 0.60136,0.003 1.09192,-0.0777 1.09192,-0.36121 7.60677,0.0328 13.27619,-0.55679 13.27619,-0.84027 0.50417,0 1.01596,0.004 1.01596,-0.6413 z"
       id="path818"
       inkscape:connector-curvature="0"
       sodipodi:nodetypes="zccccccsccscscccccccccccccccscscscccccccccccccccscsccsccccccz" />
  </g>
</svg>
