<?xml version="1.0" encoding="UTF-8" standalone="no"?>
<!-- Created with Inkscape (http://www.inkscape.org/) -->

<svg
   xmlns:dc="http://purl.org/dc/elements/1.1/"
   xmlns:cc="http://creativecommons.org/ns#"
   xmlns:rdf="http://www.w3.org/1999/02/22-rdf-syntax-ns#"
   xmlns:svg="http://www.w3.org/2000/svg"
   xmlns="http://www.w3.org/2000/svg"
   xmlns:sodipodi="http://sodipodi.sourceforge.net/DTD/sodipodi-0.dtd"
   xmlns:inkscape="http://www.inkscape.org/namespaces/inkscape"
   width="150.28345mm"
   height="49.987648mm"
   viewBox="0 0 150.28345 49.987648"
   version="1.1"
   id="svg8"
   inkscape:version="0.92.4 (5da689c313, 2019-01-14)"
   sodipodi:docname="Cessna_172_Skyhawk-side.svg">
  <defs
     id="defs2" />
  <sodipodi:namedview
     id="base"
     pagecolor="#ffffff"
     bordercolor="#666666"
     borderopacity="1.0"
     inkscape:pageopacity="0.0"
     inkscape:pageshadow="2"
     inkscape:zoom="0.98994949"
     inkscape:cx="298.4941"
     inkscape:cy="56.115147"
     inkscape:document-units="mm"
     inkscape:current-layer="layer1"
     showgrid="false"
     inkscape:pagecheckerboard="true"
     inkscape:showpageshadow="false"
     borderlayer="true"
     inkscape:snap-global="false"
     inkscape:window-width="1366"
     inkscape:window-height="713"
     inkscape:window-x="0"
     inkscape:window-y="0"
     inkscape:window-maximized="1"
     fit-margin-top="0"
     fit-margin-left="0"
     fit-margin-right="0"
     fit-margin-bottom="0" />
  <metadata
     id="metadata5">
    <rdf:RDF>
      <cc:Work
         rdf:about="">
        <dc:format>image/svg+xml</dc:format>
        <dc:type
           rdf:resource="http://purl.org/dc/dcmitype/StillImage" />
        <dc:title></dc:title>
      </cc:Work>
    </rdf:RDF>
  </metadata>
  <g
     inkscape:label="Layer 1"
     inkscape:groupmode="layer"
     id="layer1"
     transform="translate(-32.473471,-16.872355)">
    <path
       style="fill:#555555;fill-opacity:1;stroke:none;stroke-width:0.99999994px;stroke-linecap:butt;stroke-linejoin:miter;stroke-opacity:1"
       d="m 647.29883,63.769531 c -1.7192,0 -2.56836,1.756263 -2.56836,4.087891 0,0 -5.68234,0.06329 -8.33399,3.09375 -4.47458,5.113841 -25.75981,29.293428 -43.4375,48.486328 -17.67768,19.1929 -33.55955,17.23477 -49.0996,18.75 -14.65588,1.42902 -110.36213,10.5461 -118.44336,10.04102 -8.0812,-0.50507 -11.75782,-1.01172 -11.75782,-1.01172 -16.16243,-10.6066 -38.89258,-16.91992 -38.89258,-16.91992 10e-6,0 1.01017,-1.76739 0,-3.53516 -1.01014,-1.76776 -19.69689,-11.61582 -25.75781,-13.88867 -6.0609,-2.27284 -63.32811,-7.32823 -71.21679,-5.55664 -5.41797,1.21672 -6.57192,0.0897 -16.66602,11.61718 -10.6066,3.283 -23.7389,9.59673 -33.58789,23.48633 -47.72971,1.26269 -74.49903,9.34259 -75.76172,9.84766 -1.26268,0.50508 -1.95756,3.09458 -1.95756,3.09458 l -1.26193,-0.44273 c 0,0 1.41754,-8.31748 2.20972,-37.62841 0.88389,-32.703697 -3.03047,-25.631345 -5.05078,2.40039 -2.0203,28.03174 -1.00976,34.84961 -1.00976,34.84961 0,0 -21.9707,3.78848 -21.9707,6.5664 -1e-5,2.77791 20.70703,9.5957 20.70703,9.5957 0,0 -2.20855,4.22937 -3.0293,37.375 -1.00666,40.65324 3.78693,18.94209 5.55469,-5.80664 1.76777,-24.74874 1.21903,-31.08343 1.21903,-31.08343 l 1.00976,-0.18945 c 0,0 -0.71316,-0.5478 1.81222,2.98773 2.52538,3.53554 1.26291,3.5348 5.8086,12.12109 4.54569,8.5863 8.83869,11.61701 11.86914,15.91016 3.03046,4.29315 11.61701,6.31367 18.43554,8.33398 -0.25254,4.54568 4.03927,3.78906 4.79688,1.26367 5.55584,0.25253 11.22461,-0.16601 11.22461,-0.16601 l -0.71485,3.92773 c 0,0 -1.42802,-8.3e-4 -1.78515,1.42774 -0.35715,1.42857 1.42969,2.5 1.42969,2.5 l -0.35743,2.5 -1.78711,-0.35547 -0.71289,3.57031 c 0,0 -2.85686,-0.71484 -14.64257,1.78516 -11.78572,2.5 -13.21485,4.64314 -13.21485,7.85742 0,2.8679 9.0901,7.1505 15.61719,8.80273 1.47446,5.44789 6.41666,9.23197 12.06055,9.23438 5.01625,-4.1e-4 9.54639,-2.99948 11.50586,-7.61719 3.9239,-0.91295 16.4171,-3.83434 20.10156,-5.0625 4.28571,-1.42857 2.85713,-6.07142 2.5,-7.5 -0.35715,-1.42857 -9.99972,-5.71372 -24.64258,-6.78515 0,0 5,-1.78627 5,-3.21485 0,-1.42857 -6.07227,-6.07031 -6.07227,-6.07031 l 5,-2.85742 c 0,0 33.21426,2.49859 50,3.21289 16.78572,0.71428 50.35743,-1.78516 50.35743,-1.78516 l -1.42774,5 c 0,0 -12.14396,2.7e-4 -21.42969,2.85742 -9.28571,2.85714 -11.07031,6.42802 -11.07031,9.28516 0,2.68429 9.77173,7.88931 19.54297,9.99023 2.07378,6.28757 7.94372,10.5383 14.56445,10.54688 5.93229,-0.009 11.32913,-3.4331 13.86328,-8.79688 4.3139,-1.08646 19.11196,-4.83099 23.45704,-6.38281 5,-1.78571 5.35854,-4.64341 4.28711,-8.21484 -1.07143,-3.57143 -17.14342,-8.57061 -33.21485,-8.92774 l 2.5,-5.35742 c 0,0 274.64229,-25.71373 286.78516,-26.78515 1.78571,6.07141 5.35687,3.21456 4.64258,0.35742 -0.7143,-2.85714 1.07281,-1.07172 1.78711,-5.35742 1.07142,3.92856 2.85601,3.21454 6.07031,2.85742 3.21426,-0.35715 23.92827,-5.35826 29.64258,-6.42969 5.71426,-1.07143 6.78711,-3.57172 6.78711,-10.35742 0,-6.78572 -0.35743,-9.64258 -0.35743,-9.64258 0,0 26.13038,-73.101401 27.5,-78.212891 1.36963,-5.111494 1.58887,-5.388196 3.21289,-6.25 1.57614,-0.836421 3.27791,-3.366626 -0.35546,-4.822266 -4.92847,-1.974497 -34.82255,-3.035156 -38.92969,-3.035156 0,-1.428571 -0.62452,-3.572266 -2.34375,-3.572266 z"
       id="path826"
       transform="scale(0.26458333)"
       inkscape:connector-curvature="0"
       sodipodi:nodetypes="sccssccccsccccccsscccsscccsccccccccccssccccccscccccssccccscccccccscccscs" />
  </g>
</svg>
