<?xml version="1.0" encoding="UTF-8" standalone="no"?>
<!-- Created with Inkscape (http://www.inkscape.org/) -->

<svg
   xmlns:dc="http://purl.org/dc/elements/1.1/"
   xmlns:cc="http://creativecommons.org/ns#"
   xmlns:rdf="http://www.w3.org/1999/02/22-rdf-syntax-ns#"
   xmlns:svg="http://www.w3.org/2000/svg"
   xmlns="http://www.w3.org/2000/svg"
   xmlns:sodipodi="http://sodipodi.sourceforge.net/DTD/sodipodi-0.dtd"
   xmlns:inkscape="http://www.inkscape.org/namespaces/inkscape"
   width="349.09186mm"
   height="72.482399mm"
   viewBox="0 0 349.09186 72.482399"
   version="1.1"
   id="svg8"
   inkscape:version="0.92.4 (5da689c313, 2019-01-14)"
   sodipodi:docname="Concorde-side.svg">
  <defs
     id="defs2" />
  <sodipodi:namedview
     id="base"
     pagecolor="#ffffff"
     bordercolor="#666666"
     borderopacity="1.0"
     inkscape:pageopacity="0.0"
     inkscape:pageshadow="2"
     inkscape:zoom="0.35"
     inkscape:cx="1203.5432"
     inkscape:cy="8.1046153"
     inkscape:document-units="mm"
     inkscape:current-layer="layer1"
     showgrid="false"
     inkscape:pagecheckerboard="true"
     inkscape:showpageshadow="false"
     borderlayer="true"
     showguides="true"
     inkscape:guide-bbox="true"
     inkscape:window-width="1366"
     inkscape:window-height="713"
     inkscape:window-x="0"
     inkscape:window-y="0"
     inkscape:window-maximized="1"
     fit-margin-top="0"
     fit-margin-left="0"
     fit-margin-right="0"
     fit-margin-bottom="0" />
  <metadata
     id="metadata5">
    <rdf:RDF>
      <cc:Work
         rdf:about="">
        <dc:format>image/svg+xml</dc:format>
        <dc:type
           rdf:resource="http://purl.org/dc/dcmitype/StillImage" />
        <dc:title></dc:title>
      </cc:Work>
    </rdf:RDF>
  </metadata>
  <g
     inkscape:label="Layer 1"
     inkscape:groupmode="layer"
     id="layer1"
     transform="translate(80.88705,-32.269348)">
    <path
       style="fill:#555555;fill-opacity:1;stroke:none;stroke-width:0.99999994px;stroke-linecap:butt;stroke-linejoin:miter;stroke-opacity:1"
       d="M 897.01562,121.96289 C 785.89887,229.03906 730.84511,223.98838 673.77148,239.14062 c 0,10e-6 -107.07623,-1.00976 -122.22851,-1.00976 -13.63707,-2.52538 -148.49221,-6.56483 -158.59375,-3.0293 l -38.89063,-1.01172 5.55664,-7.57617 h -10.60742 l -11.61719,7.57617 c 10e-6,0 -162.21464,-2.06944 -285.548823,-3.20898 l 5.123047,-9.07617 h -7.322266 l -14.382812,8.92969 c -6.651152,-0.0584 -13.793804,-0.12857 -20.107422,-0.17969 -124.753834,-1.01016 -181.321604,19.19303 -216.171874,32.83008 l -104.69531,20.56445 c 0,0 73.5777,10.33276 113.24414,12.77148 37.82277,2.32538 104.586933,7.06954 163.175778,9.08985 58.588845,2.0203 138.937502,4.5664 138.937502,4.5664 v 10.35743 h 2.36719 v 11.91992 l 1.65039,1.65039 v 1.875 l -1.33789,1.33984 v 4.10742 h -1.96485 v 4.82227 l 2.14258,3.39258 -1.78516,1.42773 v 8.57227 l 3.03516,3.03515 -1.96484,2.14258 v 9.76367 a 11.25,11.25 0 0 0 -5.89258,9.87891 11.25,11.25 0 0 0 11.25,11.25 11.25,11.25 0 0 0 11.25,-11.25 11.25,11.25 0 0 0 -7.88477,-10.73242 c 0.97821,-1.35478 2.16992,-3.19362 2.16992,-4.26758 0,-1.78571 -2.5,-5 -2.5,-5 l 1.69141,-1.69141 -1.18164,-1.17968 0.91992,-1.5918 v -5.17969 h -2.66211 v -3.75195 l 14.64649,-29.79883 3.03125,-0.75781 4.29297,-9.84961 156.9414,2.37305 c 0,0 8.74944,7.67857 10.53516,8.75 1.78572,1.07139 11.78638,0.40625 14.73047,0.40624 2.94408,0 3.48354,-2.01367 1.16211,-2.01367 H 317.5 l -4.64258,-7.5 198.03516,3.21485 4.10742,4.10742 v 33.125 h 2.76758 l 2.41015,2.41016 -6.1582,8.38867 3.30274,5.71875 v 3.58203 a 14.532995,14.532995 0 0 0 -12.1543,-6.57813 14.532995,14.532995 0 0 0 -14.5332,14.53321 14.532995,14.532995 0 0 0 14.5332,14.5332 14.532995,14.532995 0 0 0 13.79492,-10 h 11.05273 a 14.532995,14.532995 0 0 0 13.79102,10 14.532995,14.532995 0 0 0 14.5332,-14.5332 14.532995,14.532995 0 0 0 -14.5332,-14.53321 14.532995,14.532995 0 0 0 -12.35742,6.91797 v -2.88672 l 3.29687,-5.71093 -5.08789,-8.8125 1.76953,-3.06446 h 2.94336 l 8.08008,-20.70898 c 0,0 51.01435,5.55625 120.71485,6.5664 69.7005,1.01015 106.06445,-2.69726 106.06445,-2.69726 v -1.84766 l 9.0918,-1.51562 v -25.25391 l 144.95703,-20.20312 25.75976,20.70703 c 0,0 3.02896,-1.01016 9.08985,-2.52539 6.06092,-1.51523 3.03121,-1.51486 -2.01953,-3.53516 -5.05074,-2.02031 -5.05155,-5.0504 -5.55665,-8.58594 -0.50505,-3.53553 -6.56445,-9.5957 -6.56445,-9.5957 l 38.89063,-7.07227 c 0,0 30.80859,-5.55468 30.80859,-8.08007 0,-2.52538 -29.29297,-5.55664 -29.29297,-5.55664 l -0.50586,-9.0918 -26.76953,-131.82422 c 0,0 -34.34464,-7.9e-4 -60.10352,-0.50586 z m 42.0918,163.05664 6.07031,10.89258 -8.21289,-5.35742 -2.85742,0.53711 -2.5,-4.28711 z M 126.96484,309.48438 H 135 l -16.78516,35.17773 V 321.0918 h 8.75 z"
       transform="scale(0.26458333)"
       id="path826"
       inkscape:connector-curvature="0" />
  </g>
</svg>
