<?xml version="1.0" encoding="UTF-8" standalone="no"?>
<!-- Created with Inkscape (http://www.inkscape.org/) -->

<svg
   width="2914.782"
   height="1734.6188"
   viewBox="0 0 771.20272 458.95122"
   version="1.1"
   id="svg1"
   xml:space="preserve"
   inkscape:version="1.3 (0e150ed, 2023-07-21)"
   sodipodi:docname="Giant_Isopod-top.svg"
   inkscape:export-filename="Giant Isopod Silhouette.png"
   inkscape:export-xdpi="96"
   inkscape:export-ydpi="96"
   xmlns:inkscape="http://www.inkscape.org/namespaces/inkscape"
   xmlns:sodipodi="http://sodipodi.sourceforge.net/DTD/sodipodi-0.dtd"
   xmlns="http://www.w3.org/2000/svg"
   xmlns:svg="http://www.w3.org/2000/svg"><sodipodi:namedview
     id="namedview1"
     pagecolor="#505050"
     bordercolor="#ffffff"
     borderopacity="1"
     inkscape:showpageshadow="0"
     inkscape:pageopacity="0"
     inkscape:pagecheckerboard="1"
     inkscape:deskcolor="#505050"
     inkscape:document-units="mm"
     inkscape:zoom="0.073384014"
     inkscape:cx="967.51317"
     inkscape:cy="1035.6479"
     inkscape:window-width="1600"
     inkscape:window-height="837"
     inkscape:window-x="-8"
     inkscape:window-y="-8"
     inkscape:window-maximized="1"
     inkscape:current-layer="layer1" /><defs
     id="defs1" /><g
     inkscape:label="Layer 1"
     inkscape:groupmode="layer"
     id="layer1"
     transform="translate(147.47638,-167.39939)"><path
       style="fill:#f8f7f6;fill-opacity:1;stroke-width:12.6579"
       d="m 617.02629,403.53893 c -7.7979,0 -9.05141,8.42764 -1.67451,11.25832 7.21133,2.76727 6.19693,8.83611 -1.47692,8.83611 -9.22281,0 -12.33868,6.93146 -5.39746,12.00703 6.88577,5.03493 4.17242,11.43654 -4.84734,11.43654 -9.26318,0 -11.2644,5.81099 -3.44283,9.99696 9.55242,5.11227 8.45004,8.9285 -3.25536,11.26958 -10.71466,2.14299 -13.31029,7.83309 -5.02354,11.01301 8.54953,3.2808 5.5529,10.13759 -5.86086,13.41092 -10.41657,2.98752 -10.90504,3.88079 -11.363,20.77833 -0.26329,9.71114 -1.26845,18.44662 -2.23399,19.41216 -0.9658,0.9658 -6.73819,2.00628 -12.8279,2.31248 -9.87861,0.49746 -11.6811,2.18159 -16.72046,15.62771 -4.6976,12.53486 -6.95931,14.91303 -13.44016,14.13279 -12.72588,-1.53186 -56.16324,-24.43899 -63.12522,-33.28978 -3.54623,-4.50837 -7.92283,-7.28551 -9.72557,-6.17136 -1.80261,1.11389 -4.83152,-0.64303 -6.73071,-3.9056 -2.90335,-4.98721 -3.46928,-4.25495 -3.55485,4.60051 -0.10126,10.29595 -0.36455,10.47253 -11.82362,7.88803 -9.94987,-2.24399 -11.72172,-1.75464 -11.72172,3.2374 0,4.56634 -1.99805,5.4991 -8.93762,4.17255 l -8.93749,-1.70856 8.7018,15.56922 c 4.78595,8.56306 7.13944,15.56921 5.22999,15.56921 -1.90944,0 -12.72967,-4.32672 -24.04495,-9.61494 -26.1049,-12.20019 -37.66828,-15.27935 -32.07639,-8.54142 3.31447,3.99369 1.53388,4.76013 -11.05871,4.76013 h -15.00936 l 5.80871,17.58258 c 3.19473,9.67039 5.39075,18.06295 4.88013,18.65003 -1.29845,1.49237 -34.37836,-22.51715 -35.68339,-25.89908 -0.58606,-1.52022 -11.41401,-3.85218 -24.0609,-5.18228 -13.72572,-1.44363 -22.23031,-1.18224 -21.09895,0.64809 1.04301,1.68666 2.78955,13.50522 3.88243,26.26338 l 1.98704,23.19662 -13.48409,-15.07088 c -7.41613,-8.28891 -14.41317,-18.40776 -15.54896,-22.48614 -2.2645,-8.13207 -5.43683,-9.53836 -29.02888,-12.86853 l -15.90807,-2.24563 v 10.17201 c 0,5.59454 -1.79489,17.9479 -3.98863,27.4517 l -3.98863,17.27969 -9.24964,-17.86144 c -5.08734,-9.8238 -9.32077,-21.81337 -9.40773,-26.64337 -0.13544,-7.51715 -1.96679,-9.07192 -12.71702,-10.79542 -6.90742,-1.10756 -17.45702,-2.99562 -23.44345,-4.19584 -9.65583,-1.93577 -10.88453,-1.34629 -10.88453,5.22202 0,7.05209 -22.78473,43.54622 -27.239677,43.62951 -2.94499,0.0506 -7.34614,-43.51951 -4.66621,-46.19944 1.19617,-1.19618 -7.28222,-5.33177 -18.84015,-9.19091 l -21.01465,-7.01653 -7.25488,8.617 c -3.99027,4.73937 -13.66711,12.21829 -21.50425,16.61982 l -14.2492604,8.00283 2.4553804,-16.3754 c 1.3506,-9.0066 3.83914,-18.96115 5.53024,-22.12133 2.40994,-4.50331 1.07086,-6.78414 -6.19136,-10.54797 -5.0964504,-2.64119 -16.4578104,-11.13895 -25.24771,-18.88407 -11.49983,-10.13316 -17.13475,-13.13295 -20.09442,-10.69719 -2.26209,1.8616 -11.64831,4.39191 -20.85832,5.62277 -26.445399,3.53434 -26.295656,3.357 -16.248699,19.249 15.206449,24.05331 51.249569,102.7618 47.982569,104.78086 -1.68996,1.04428 -11.57085,-15.11759 -21.95767,-35.91566 -19.254566,-38.55483 -48.874692,-90.29592 -57.413973,-100.29161 -3.94268,-4.6152 -4.06622,-9.09863 -0.73795,-26.79261 2.19817,-11.68742 6.104654,-24.64076 8.681044,-28.78521 6.900582,-11.10073 -0.270879,-9.23255 -14.740514,3.84028 -6.92526,6.25655 -17.7365,22.01083 -24.02482,35.00948 -6.28832,12.99866 -12.6655,22.87246 -14.17141,21.94172 -1.50591,-0.93036 1.56895,-10.27999 6.83311,-20.77605 5.26417,-10.49606 10.68707,-22.85144 12.05083,-27.45638 1.36389,-4.60507 8.57092,-13.72054 16.01567,-20.2567 12.5174,-10.98984 13.577122,-13.26763 14.08483,-30.27466 0.534164,-17.90258 0.165819,-18.698 -13.90433,-29.96392 -7.94929,-6.36515 -14.45444,-13.08713 -14.45596,-14.93772 -0.001,-1.85058 -4.52267,-12.91916 -10.04721,-24.59709 -14.10938,-29.82479 -12.25513,-37.3527 2.1945,-8.90913 13.09232,25.77174 24.61798,39.71062 38.605217,46.68842 l 9.155335,4.56722 -6.20136,-8.88243 c -3.410798,-4.88544 -7.901702,-18.08599 -9.979622,-29.33469 l -3.77813,-20.45226 18.799395,-29.78378 c 10.339734,-16.38122 28.500408,-49.06203 40.356938,-72.62421 11.85666,-23.56205 22.99156,-41.95399 24.74417,-40.87085 2.01299,1.24427 2.00299,4.07066 -0.0253,7.67512 -1.76768,3.13802 -11.40034,23.037 -21.40603,44.21988 -10.0057,21.18287 -22.184877,44.93125 -27.064751,52.77409 -9.89481,15.90275 -10.047844,15.72542 16.656531,19.29431 9.20989,1.23035 18.59611,3.76117 20.85833,5.62277 2.95954,2.43575 8.59446,-0.56454 20.09442,-10.69707 8.7897696,-7.74512 20.1511296,-16.243 25.24758,-18.8842 7.2626,-3.76383 8.6013,-6.04465 6.19148,-10.54796 -1.69122,-3.16017 -4.17976,-13.11472 -5.53023,-22.12133 l -2.4555104,-16.3754 14.2720404,8.00283 c 7.84954,4.40154 17.47158,11.87122 21.38211,16.59945 l 7.10994,8.59674 18.89699,-6.43983 18.89698,-6.43996 2.32045,-24.76304 c 1.27629,-13.61965 3.37674,-24.76303 4.66785,-24.76303 4.048377,0 27.222847,37.46055 27.222847,44.00444 0,7.23525 -0.89998,7.17108 25.00404,1.78476 18.08485,-3.76028 20.19151,-5.09683 22.20399,-14.08736 1.22275,-5.46315 5.67744,-17.46829 9.89923,-26.6783 l 7.67576,-16.74527 4.38368,16.74527 c 2.41095,9.21001 4.41267,21.84058 4.44812,28.06801 0.0633,11.2125 0.18733,11.3025 12.62372,9.24685 6.90742,-1.14174 15.11582,-2.09247 18.2408,-2.11273 3.12701,-0.0253 11.01187,-8.06688 17.53537,-17.89485 6.51946,-9.8219 14.97772,-20.68542 18.79623,-24.14128 l 6.94286,-6.28313 -0.72403,18.28029 c -0.39873,10.05417 -1.97198,21.71096 -3.49713,25.90402 -2.75765,7.58157 -2.64854,7.61119 19.78392,5.3629 12.40627,-1.24301 23.04334,-3.49586 23.63775,-5.00545 1.44212,-3.66167 34.09508,-27.54498 35.49846,-25.96452 0.60505,0.681 -1.51465,9.15027 -4.7095,18.82066 l -5.80859,17.58271 h 14.79684 c 9.01179,0 13.98774,1.30933 12.72714,3.34903 -4.02838,6.51793 10.34442,3.01701 33.49066,-8.15777 12.89385,-6.22503 23.8423,-10.93301 24.32963,-10.46226 0.48733,0.47087 -3.15967,8.09473 -8.10448,16.9421 l -8.99065,16.08604 9.3776,-2.35374 c 8.29068,-2.0807 9.1699,-1.55894 7.585,4.50179 -1.53464,5.86871 -0.61771,6.56059 6.36958,4.80683 16.50528,-4.14255 19.72443,-3.33877 18.61231,4.64697 -1.04934,7.53057 -0.97972,7.54373 8.78205,1.67464 5.41151,-3.25358 16.83894,-10.90364 25.39441,-17.00007 16.94691,-12.07576 52.15208,-25.69326 55.85895,-21.60628 1.27149,1.40199 4.05736,8.01701 6.1906,14.70001 3.38308,10.5982 5.55568,12.41917 17.00121,14.24938 11.57667,1.85122 13.34801,3.37852 15.0381,12.96701 1.05313,5.97782 1.21895,14.19773 0.36707,18.26649 -1.25186,5.98187 0.65315,8.19384 9.95481,11.55728 11.52958,4.16914 15.90858,12.86107 6.47933,12.86107 -9.25862,0 -5.14569,9.18558 5.02367,11.21946 10.71466,2.14285 13.31029,7.83309 5.02354,11.013 -8.25321,3.16701 -5.84618,11.25832 3.34903,11.25832 9.19533,0 11.60236,8.09119 3.34915,11.25832 -7.6917,2.95157 -5.98263,8.46776 3.34903,10.80985 9.3628,2.34994 10.98073,7.28285 3.34903,10.21138 -7.37677,2.83069 -6.12326,11.25832 1.67464,11.25832 4.46533,0 6.69805,2.23273 6.69805,6.69819 0,4.46532 -2.23272,6.69805 -6.69805,6.69805 z m -670.651257,57.36511 c -4.14445,-2.22741 -11.121488,-9.54051 -15.504414,-16.2511 l -7.968909,-12.2012 -6.124147,11.49894 c -6.545908,12.29057 -8.55902,44.77328 -3.290801,53.09699 2.392343,3.77978 6.820078,1.36946 21.532485,-11.72185 10.186576,-9.06394 18.604206,-17.35563 18.706106,-18.42585 0.10126,-1.0696 -3.20587,-3.76839 -7.35032,-5.99593 z M -64.944678,308.37176 C -82.272334,293.17343 -83.986847,292.39294 -87.247903,298.22 c -5.312269,9.49266 -2.747524,40.9197 4.283055,52.48042 l 6.145032,10.10467 7.829672,-11.9888 c 4.306345,-6.59376 11.220727,-13.81129 15.365177,-16.0387 4.14445,-2.22754 7.51639,-4.9257 7.4931,-5.99593 -0.0253,-1.06959 -8.48903,-9.35469 -18.812811,-18.4099 z"
       id="path1" /></g></svg>
