<?xml version="1.0" encoding="UTF-8" standalone="no"?>
<!-- Created with Inkscape (http://www.inkscape.org/) -->

<svg
   width="369.85135mm"
   height="161.08514mm"
   viewBox="0 0 369.85135 161.08514"
   version="1.1"
   id="svg1"
   xml:space="preserve"
   inkscape:version="1.3 (0e150ed, 2023-07-21)"
   sodipodi:docname="Japanese_Spider_Crab-front.svg"
   xmlns:inkscape="http://www.inkscape.org/namespaces/inkscape"
   xmlns:sodipodi="http://sodipodi.sourceforge.net/DTD/sodipodi-0.dtd"
   xmlns="http://www.w3.org/2000/svg"
   xmlns:svg="http://www.w3.org/2000/svg"><sodipodi:namedview
     id="namedview1"
     pagecolor="#505050"
     bordercolor="#ffffff"
     borderopacity="1"
     inkscape:showpageshadow="0"
     inkscape:pageopacity="0"
     inkscape:pagecheckerboard="1"
     inkscape:deskcolor="#505050"
     inkscape:document-units="mm"
     inkscape:zoom="0.35907738"
     inkscape:cx="466.47327"
     inkscape:cy="409.38251"
     inkscape:current-layer="layer1" /><defs
     id="defs1"><inkscape:path-effect
       effect="simplify"
       id="path-effect2"
       is_visible="true"
       lpeversion="1.3"
       threshold="7.0978987"
       steps="1"
       smooth_angles="360"
       helper_size="10"
       simplify_individual_paths="false"
       simplify_just_coalesce="false" /><inkscape:path-effect
       effect="simplify"
       id="path-effect1"
       is_visible="true"
       lpeversion="1.3"
       threshold="4.0602278"
       steps="1"
       smooth_angles="360"
       helper_size="10"
       simplify_individual_paths="false"
       simplify_just_coalesce="false" /></defs><g
     inkscape:label="Layer 1"
     inkscape:groupmode="layer"
     id="layer1"
     transform="translate(65.584536,-7.7865338)"><path
       style="fill:#ffffff;fill-opacity:1"
       d="m 108.18054,168.45123 c -1.69468,-0.73553 -3.26571,-1.74199 -4.99416,-2.38694 -2.63178,-0.98202 -5.24972,-2.0342 -7.744309,-3.32696 -1.291054,-0.66905 -2.355912,-1.67145 -3.753642,-2.24495 -1.3967,-0.57308 -2.350083,-1.84403 -3.768773,-2.38374 -1.298159,-0.49386 -2.209526,-1.51239 -3.524349,-2.09349 -2.542952,-1.12388 -5.079612,-2.24214 -7.550389,-3.54063 -1.518549,-0.79805 -2.671655,-2.38899 -4.342459,-2.73762 -1.472794,-0.30732 -2.184543,-1.75753 -3.391098,-2.48461 -0.977727,-0.58918 -1.906337,-1.26947 -2.952604,-1.74578 -1.344806,-0.61223 -1.873562,-2.25546 -2.989564,-3.16025 -1.296382,-1.05104 -2.37063,-2.30589 -3.540628,-3.51348 -3.211087,-3.31425 -6.311652,-6.73365 -9.550322,-10.0232 -1.703235,-1.73 -3.07435,-3.73896 -4.72575,-5.51676 -1.02821,-1.10691 -1.969288,-2.34851 -2.372275,-3.80273 -0.394925,-1.42513 -1.807151,-1.52955 -2.738308,-0.15234 -1.415655,2.09379 -3.843433,3.79502 -4.24068,6.28775 -0.288519,1.81045 -1.661252,2.35918 -2.615934,3.93327 -0.798791,1.31706 -1.513409,2.71481 -1.647018,4.28631 -0.207454,2.44005 0.517173,4.87274 0.41579,7.30653 -0.05,1.2003 1.713368,3.96013 0.721431,3.46183 -1.302153,-0.65414 -1.611741,-2.74539 -2.094264,-4.12403 -1.077339,-3.07812 -1.54199,-6.44074 -0.69425,-9.68819 0.422737,-1.61938 0.05832,-3.3901 1.11224,-4.88158 1.82786,-2.58673 4.618189,-4.54843 5.852746,-7.47374 0.454407,-1.07673 2.583237,-2.2925 1.54891,-3.23242 -1.230661,-1.11833 -1.896234,-2.78954 -3.454735,-3.56636 -1.385622,-0.69065 -2.105541,-2.10827 -3.122882,-3.21782 -1.928268,-2.10304 -3.984101,-4.06477 -6.297732,-5.79463 -0.781753,-0.5845 -1.300547,-2.58193 -2.451325,-1.17488 -3.175453,3.88261 -5.746065,8.20627 -8.57416,12.33853 -1.517361,2.21708 -2.170868,5.06259 -4.100156,6.92637 -0.9656305,0.93284 -0.575256,2.51686 -1.3572201,3.38023 -1.0928661,1.20664 -1.500351,2.87957 -1.9410629,4.40879 -0.3264892,1.13287 -1.2747221,1.37909 -1.7774568,2.73965 -1.0066719,2.72438 -1.4316035,5.72252 -0.7862732,8.60075 0.6540724,2.91721 4.9633566,7.52828 2.2115536,8.69022 -1.0462274,0.44177 -1.5010864,-1.85882 -1.8526277,-2.719 -1.235157,-3.02228 -3.0284735,-5.86709 -3.3320495,-9.23689 -0.2011803,-2.23318 -0.2401922,-4.46559 0.00687,-6.69299 0.1306719,-1.17808 0.458794,-2.25941 1.1729039,-3.23702 2.8395362,-3.88729 4.9731532,-8.22264 7.5585577,-12.27496 2.54718,-3.99241 4.520196,-8.31236 6.956502,-12.36671 0.914569,-1.52197 1.620748,-3.0942 2.477002,-4.72641 0.818344,-1.559944 -0.81209,-2.690191 -1.739871,-3.694371 -3.077812,-3.331257 -7.814467,-5.501797 -9.5451999,-9.69098 -0.7693977,-1.862301 -1.6266723,0.859604 -1.9244799,1.638503 -3.0257164,7.913585 -5.0676421,16.167718 -7.9909565,24.113468 -1.5734377,4.2767 -2.3020377,8.79863 -3.2631739,13.24202 -0.3183397,1.47171 -0.6032765,2.83297 -0.8661758,4.4265 -0.2599827,1.57586 -0.6530866,3.1311 -0.9419315,4.73732 -0.5697682,3.1684 -1.6327234,6.6773 -0.2164655,9.69082 1.1766597,2.5037 4.0137083,4.87461 3.3745954,7.57984 -0.3128291,1.32414 -1.4004355,-0.82311 -1.7176335,-1.32772 -2.0629068,-3.28171 -4.4386906,-6.60841 -4.8495628,-10.5857 -0.2992321,-2.8966 0.5091081,-6.00991 -0.5985631,-8.71074 -0.509684,-1.24276 1.843107,-2.10313 1.1426148,-2.95348 -0.5823233,-0.70691 -1.5796498,-1.20779 -0.9573048,-2.53157 1.2637025,-2.68799 2.0940228,-5.54372 2.875445,-8.40254 1.4698918,-5.37757 3.2272247,-10.67137 4.5933767,-16.080435 0.9205886,-3.644928 2.38202857,-7.143659 3.18470569,-10.812632 C 0.84914616,86.314492 1.762667,84.808136 1.7770311,83.139609 1.7892442,81.720937 0.77740711,80.253209 1.5612725,78.872742 2.4964848,77.225738 0.82038293,76.065661 -0.07797585,74.926301 -1.0557366,73.686237 -2.6018032,73.244737 -3.2599691,71.64986 c -0.4426322,-1.072593 -0.9656247,-2.914079 -2.3854222,-1.269305 -1.5675183,1.815902 -3.1038936,3.716006 -3.8425728,6.105007 -0.5762759,1.863765 -2.1749759,3.243605 -3.8411749,4.089947 -2.261249,1.148597 -4.863765,2.126042 -6.312505,4.192839 -0.807041,1.151339 -1.888514,2.016085 -3.017413,2.864972 -2.238881,1.683547 -4.330289,3.544707 -6.151231,5.70603 -0.780042,0.925852 -1.58767,1.832916 -2.374178,2.720438 -1.12554,1.270097 -2.065878,2.696377 -3.114791,4.034292 -3.794055,4.83941 -7.47374,9.75952 -11.138802,14.70626 -1.245265,1.68074 -2.482597,3.35699 -3.609688,5.12836 -1.42903,2.24592 -2.938764,4.39415 -4.242485,6.76718 -0.803923,1.4633 -2.275901,2.4751 -2.850682,4.08931 -1.051908,2.95417 -2.174631,5.8862 -3.433454,8.75808 -1.212778,2.76683 -2.287348,5.60684 -3.031813,8.533 -0.390242,1.53386 0.05157,3.20477 -0.658585,4.65749 -0.719955,1.47278 0.04006,3.72792 -1.268048,4.64376 -1.476158,1.0335 -0.97852,-1.67887 -0.942192,-2.53982 0.153156,-3.62965 0.1557,-7.28529 0.69088,-10.87965 0.646167,-4.33976 2.408576,-8.41034 3.185656,-12.71885 0.297112,-1.64733 -0.756495,-3.48885 -0.01127,-4.97706 0.642375,-1.28284 1.022937,-2.72845 2.08555,-3.81472 2.031758,-2.07699 4.072228,-4.1466 5.881894,-6.42945 3.144109,-3.96623 6.090699,-8.08845 9.379159,-11.93958 1.419504,-1.66239 2.357383,-3.67231 3.731469,-5.360187 1.160659,-1.425707 2.224563,-2.924609 3.387419,-4.348757 2.049343,-2.509829 4.163022,-4.970474 6.402888,-7.310623 2.727079,-2.849175 5.570323,-5.586438 8.277037,-8.454095 1.219793,-1.292323 1.970189,-2.892138 2.808546,-4.471618 1.522533,-2.868483 4.312244,-4.685858 6.341522,-7.164058 0.939883,-1.147806 4.0427252,-1.545143 3.3616944,-2.881018 -0.4815334,-0.944551 -1.6427124,-1.545632 -2.5552444,-2.13735 -1.032269,-0.669358 -1.356484,-1.90355 -2.083034,-2.851345 -1.165571,-1.520502 -2.59282,-2.888148 -3.313796,-4.68621 -0.582462,-1.452616 -1.587941,-2.667499 -2.348612,-4.032926 -1.697801,-3.047604 -3.644927,-5.996294 -6.159632,-8.388293 -0.900331,-0.856398 -2.929079,-1.027836 -2.614883,-2.620727 0.253083,-1.283065 -0.876516,-1.914591 -0.331085,-3.395551 0.488924,-1.327533 -0.140759,-2.665582 -0.90199,-3.746234 -0.932441,-1.323705 -0.810752,-3.457379 0.726261,-4.35315 1.382244,-0.805571 2.80822,-1.549404 3.862916,-2.844442 1.11778,-1.372497 2.789891,-2.039195 4.422891,-2.661478 2.255097,-0.859343 4.483079,-1.759009 6.862869,-2.298607 1.83695,-0.416513 3.61411,0.200066 5.6467255,0.176121 1.4468069,-0.01704 3.379772,1.665713 4.2300003,0.548817 0.8476095,-1.113456 2.7032521,-1.263881 3.5942317,-0.235422 0.99820551,1.152229 2.1172976,1.500296 3.7812348,0.710977 1.1869296,-0.563041 1.8041579,1.019752 1.9591026,1.935581 0.1719768,1.016502 0.4207949,2.050233 1.3126988,2.772499 2.5127505,2.034833 5.3263533,3.632041 7.9924723,5.473931 1.797191,1.241592 3.625848,2.432744 5.566185,3.454458 3.633302,1.913171 7.189651,3.965329 10.727913,6.050057 3.896073,2.29555 8.018096,4.168948 11.974585,6.350868 3.128109,1.725085 6.36712,3.236407 9.440044,5.068454 2.019296,1.203884 4.294845,1.884976 6.358332,3.001652 2.713328,1.468344 5.325057,3.123602 8.113548,4.462392 4.647478,2.231311 8.939145,5.345977 13.956808,6.678389 1.076591,0.285883 1.647881,0.356049 2.579781,1.580319 1.044304,1.37194 2.796783,1.244977 4.436463,1.032393 1.509486,-0.195705 3.029997,-0.285983 4.546686,-0.217331 1.192412,0.05397 0.225595,-0.962855 0.757011,-1.69076 0.732489,-1.003323 -0.664227,-2.148625 -0.03744,-2.953549 0.887891,-1.140236 0.0364,-3.195932 1.223843,-3.856163 0.993521,-0.552407 1.424698,-1.630407 2.171465,-2.431071 0.792028,-0.849191 1.363611,-1.866133 2.546223,-2.382416 1.009322,-0.440631 1.342668,-1.149252 2.504318,-1.907039 1.28897,-0.840843 2.73394,-1.424546 4.13376,-2.08025 1.0936,-0.512264 2.12536,-1.156818 3.37836,-1.268481 1.80483,-0.160838 3.44039,-0.939081 5.06302,-1.678631 1.30887,-0.596548 2.79098,-0.152549 4.18362,-0.422738 2.28452,-0.443221 3.38126,-3.867203 5.61625,-3.594629 1.17808,0.143674 1.78616,-1.022291 3.0989,-0.805942 1.01329,0.166997 2.21477,0.373949 3.16913,-0.150366 1.35807,-0.746109 2.59344,1.142579 3.70592,0.531251 1.11887,-0.614843 1.8454,0.113712 2.98602,0.567251 1.71916,0.683575 4.70053,-0.825351 5.36814,0.957571 0.33979,0.90747 -1.48453,0.05142 -0.71757,1.269992 0.56128,0.891777 1.46029,1.807146 2.59886,1.582527 1.48549,-0.293059 0.78872,0.82304 0.32518,1.875442 -0.76755,1.742646 1.32443,2.842738 2.79715,3.138908 1.21851,0.245041 0.94595,1.813672 1.86386,2.377908 1.39155,0.855378 1.21314,2.592164 1.75577,3.947061 0.47361,1.182577 -0.1147,3.34745 1.11392,3.613311 1.58751,0.34352 1.22046,2.032358 1.65628,3.198153 0.42049,1.124775 1.09917,2.52814 0.31793,3.526926 -0.96444,1.232996 -0.59378,2.732168 -1.27394,4.44356 -0.49278,1.239892 0.38673,1.655492 1.54934,1.146585 1.83974,-0.805308 3.74197,-1.568778 5.75545,-1.674158 1.36579,-0.07148 2.43932,-0.845626 3.41613,-1.803816 4.40673,-4.322705 9.54523,-7.789572 14.77302,-11.039991 5.69183,-3.538942 11.21486,-7.335592 16.71453,-11.167817 5.01939,-3.497563 10.16512,-6.842638 14.81392,-10.834109 2.54453,-2.18474 5.07362,-4.427072 7.93074,-6.178151 2.43592,-1.492941 4.51411,-3.452712 6.70856,-5.263764 1.75607,-1.449262 3.5223,-2.874487 5.4151,-4.154977 1.92961,-1.305402 4.0618,-2.894036 4.46504,-5.392418 0.31188,-1.932298 0.15765,-4.066606 1.14762,-5.782029 0.98703,-1.710329 3.00424,0.352949 4.29565,-0.628213 1.08192,-0.821993 1.75488,-2.0323255 2.79177,-2.9483133 1.3856,-1.2240202 3.39606,-1.5258602 5.09878,-0.896945 1.53308,0.5662619 3.4901,0.9469213 4.30511,2.4208563 0.80673,1.458945 0.52507,3.32509 1.40141,4.700313 0.67602,1.060863 1.04894,2.346666 0.51055,3.529971 -0.80866,1.777358 3.00195,2.035253 1.59842,3.423024 -1.10298,1.090588 -2.60575,1.553407 -4.05503,2.1484 -1.34342,0.551533 -2.40211,1.57026 -3.57555,2.410383 -1.50544,1.077823 -2.73939,2.48046 -4.16346,3.656339 -0.98736,0.815277 -0.90975,2.326563 -1.76826,3.182084 -0.9712,0.967812 -1.75899,2.054623 -2.62564,3.150692 -1.10974,1.403526 -1.65336,3.142009 -2.76748,4.560087 -1.26802,1.613965 -2.43238,3.297298 -3.3662,5.12284 -0.56449,1.103553 -1.80693,1.716574 -2.33103,2.83362 -0.62748,1.337421 -2.58562,2.013811 -2.60234,3.461612 -0.0159,1.380714 -1.45001,1.981075 -1.80272,3.202143 -0.45381,1.571046 -1.54275,2.808021 -2.6441,3.961833 -1.46411,1.533833 -2.21309,3.549199 -3.66131,5.118688 -1.11679,1.210305 -2.86236,2.115444 -3.26338,3.710869 -0.40625,1.616192 -4.12016,3.347961 -2.62312,3.94391 1.32695,0.528238 3.14495,-0.110644 4.56128,-0.527321 1.46661,-0.431469 2.91572,0.234618 3.63479,1.726185 0.62085,1.28783 2.14901,1.084498 3.31862,1.297872 1.57303,0.286968 3.17176,-0.105546 4.73023,-0.329529 2.60034,-0.373721 5.26853,-0.201731 7.83966,-0.719954 1.50638,-0.303617 3.32686,-2.217611 4.51931,-0.929461 0.86494,0.934345 1.92527,0.838762 3.15443,1.016097 2.16982,0.313045 3.58773,2.141056 4.94157,3.667799 2.42248,2.731868 4.98648,5.326368 7.52679,7.952588 1.51073,1.561824 3.61446,2.480816 4.98385,4.154279 0.87008,1.063276 2.09025,1.99792 2.32698,3.469542 0.29052,1.806024 2.6121,1.200402 3.24153,2.514647 0.53131,1.1094 1.71277,1.702888 2.62548,2.48467 3.34514,2.865286 6.76448,5.647256 9.99362,8.642636 3.04294,2.82265 6.09639,5.63077 9.19765,8.39162 3.62737,3.22919 6.74147,7.07464 10.69869,9.8877 1.10026,0.78214 2.01276,1.73179 2.55638,3.11241 0.51239,1.30134 1.07222,2.4725 0.73503,4.04045 -0.8565,3.9828 -1.01243,8.07598 -1.88197,12.05547 -0.87415,4.00059 -2.53408,7.78676 -4.54718,11.31488 -0.79404,1.39163 -1.64942,5.40896 -2.56446,4.11426 -0.93389,-1.32136 0.50204,-3.06418 1.1316,-4.34526 0.71991,-1.46495 0.75978,-3.11266 1.2488,-4.66101 1.22852,-3.88981 1.39606,-8.0463 1.10979,-12.07298 -0.12618,-1.77494 0.38846,-3.72405 -0.38508,-5.33492 -0.31102,-0.64768 -0.2385,-1.74318 -0.93071,-1.87004 -1.63662,-0.29991 -2.0029,-2.42381 -2.98181,-3.69378 -4.85336,-6.29635 -10.68753,-11.7381 -16.68458,-16.90764 -3.32307,-2.86454 -6.63478,-5.79461 -10.34447,-8.13757 -1.94044,-1.22555 -3.88175,-2.46886 -5.93237,-3.498608 -2.0685,-1.038717 -4.83356,-1.046155 -6.31662,-2.893586 -1.0029,-1.24931 -0.93096,-2.909309 -1.6594,-4.258449 -1.25095,-2.316905 -2.79424,-4.464425 -4.32991,-6.598322 -0.7108,-0.987708 -1.33722,-2.009274 -1.72347,-3.19116 -0.65154,-1.993637 -2.62585,-0.06048 -3.7925,0.332773 -1.66914,0.562627 -3.37493,0.01753 -5.05388,-0.167834 -1.96671,-0.217139 -4.25767,-1.301764 -5.92827,-0.247113 -0.99792,0.629994 0.62754,1.992122 1.11587,2.668718 1.70491,2.362219 3.31192,4.885542 5.56184,6.725929 0.86457,0.707194 1.66523,1.364269 2.32539,2.397411 0.6991,1.094088 0.55694,2.49425 1.29951,3.525211 2.15943,2.99805 4.859,5.55262 7.20445,8.40729 1.27871,1.55631 3.14761,2.49397 4.26779,4.32492 1.60305,2.62019 3.81318,4.82912 5.98862,6.98099 1.39537,1.38024 2.71079,2.8384 3.94522,4.35524 1.71942,2.11279 3.32693,4.45176 5.60346,5.95509 0.89138,0.58863 2.92814,1.66072 1.77619,2.8133 -0.56427,0.56459 -0.81054,1.01408 0.30021,1.26915 1.61321,0.37045 1.72114,1.73433 1.74159,3.22407 0.0394,2.86946 0.0627,5.8617 -0.99652,8.55157 -0.92592,2.35131 -2.70373,4.31491 -3.46274,6.72005 -0.17066,0.54078 -1.08244,1.78815 -0.84986,0.42876 0.54967,-3.21277 2.37727,-6.05192 2.61044,-9.38142 0.14564,-2.07967 -0.91293,-3.94362 -1.39245,-5.95299 -0.37145,-1.55652 -2.40348,-1.85804 -2.84088,-3.22519 -0.47357,-1.4802 -1.63676,-2.55566 -2.53148,-3.78354 -2.86941,-3.93792 -5.87133,-7.79533 -9.22064,-11.33087 -5.82841,-6.15246 -11.65805,-12.34351 -18.09364,-17.853308 -1.37737,-1.179228 -2.86892,-2.297627 -3.61749,-4.083977 -1.20634,-2.878809 -2.82255,-5.562834 -4.20485,-8.357159 -0.70926,-1.433762 -1.02013,-3.698551 -2.57198,-4.020601 -2.47652,-0.513939 -5.06637,-0.307428 -7.59507,-0.334288 -3.12207,-0.03316 -6.25989,0.04102 -9.33564,0.580428 -1.43182,0.251105 -3.77308,-0.352251 -4.18256,1.501858 -0.32181,1.457144 -1.51532,2.187822 -2.44397,3.36025 -1.05232,1.328572 -1.45852,3.194546 -2.79258,4.235506 -1.04919,0.818687 -1.32713,2.099698 -2.23054,3.036415 -1.09068,1.130881 -2.19008,2.269123 -2.77227,3.802459 -0.45643,1.202137 -0.99987,2.067237 -2.06938,2.970477 -0.97376,0.82238 -1.79072,1.77364 -2.95424,2.5228 -1.67218,1.07666 -0.21407,3.11304 0.52713,4.31779 1.21717,1.97841 2.38693,3.98488 3.46665,6.04196 1.79155,3.41324 3.49633,6.92712 5.96004,9.90221 0.86553,1.04517 1.29932,2.45521 2.00547,3.51591 0.8572,1.28762 1.3416,3.12434 1.46405,4.74402 0.22421,2.96566 0.62319,6.09831 -0.77953,8.89976 -0.92252,1.84244 -1.51087,3.97137 -3.01793,5.38562 -1.26174,1.18404 -0.43204,-1.14185 -0.16763,-1.73963 1.50215,-3.39615 2.3809,-7.34484 1.10409,-10.95913 -0.48218,-1.36492 -1.56131,-2.42904 -2.04517,-3.7866 -0.62713,-1.75954 -1.23593,-3.52074 -2.05116,-5.21477 -2.24605,-4.66728 -5.50503,-8.75985 -7.91999,-13.32707 -0.63075,-1.19288 -1.80512,-2.92759 -3.02516,-0.96755 -1.37537,2.20958 -1.97756,5.13749 -4.08592,6.66015 -1.00511,0.72589 -1.19714,1.81508 -1.87902,2.91347 -0.7653,1.23273 -3.3134,2.73623 -2.31297,3.93457 1.30466,1.56276 2.56612,3.16615 3.4202,5.07225 0.88555,1.97634 1.87822,3.894 2.39069,6.03843 0.59126,2.47407 0.0859,5.01115 0.22987,7.57694 0.0431,0.76788 -0.30167,1.44717 -0.56656,0.33425 -0.74909,-3.14729 -0.85562,-6.51753 -2.32406,-9.44571 -1.09529,-2.18409 -3.57017,-3.32954 -4.74055,-5.48279 -0.33344,-0.61346 -0.97681,-2.25915 -1.5192,-0.95379 -0.59858,1.4406 -1.49099,2.682 -2.48662,3.85534 -1.09471,1.29008 -1.83289,2.44876 -2.74983,4.19014 -0.76058,1.44444 -1.11493,3.17819 -2.21656,4.41581 -1.20456,1.35326 -1.81984,2.99049 -2.63251,4.5321 -0.71007,1.34697 -1.25406,2.78109 -2.13907,4.0457 -1.91987,2.74337 -4.06779,5.30405 -6.30571,7.80574 -2.77673,3.10402 -6.39199,5.22682 -9.61977,7.81107 -1.67684,1.34254 -3.28,2.83279 -5.1561,3.87533 -1.36068,0.75612 -1.82767,-0.92423 -1.20797,-2.02387 0.79877,-1.4174 2.63876,-1.70682 3.50704,-3.08904 0.72266,-1.15042 2.26849,-1.81776 2.49263,-3.16088 0.20821,-1.24767 2.79336,-2.37818 2.00335,-3.14553 -0.71573,-0.69523 0.53471,-0.94969 0.98993,-1.93911 0.53979,-1.17325 2.1356,-1.92484 2.08739,-3.19787 -0.0588,-1.55236 0.9644,-2.37421 1.54374,-3.91168 0.35346,-0.93797 2.89626,-1.05815 1.97653,-1.93179 -0.9665,-0.91808 0.19222,-1.52886 0.13356,-3.06102 -0.0525,-1.37137 -1.01916,-2.08298 -2.28693,-2.77115 -1.12725,-0.61191 -1.93978,-1.25088 -3.5961,-0.24946 -0.97762,0.59107 -1.84334,1.72377 -3.00464,1.82358 -1.25835,0.10816 -2.43504,0.67469 -3.15954,1.7951 -0.9321,1.44143 -2.13034,1.18313 -3.57221,2.30536 -1.24455,0.96865 -2.89734,1.29812 -4.27498,2.04077 -1.22697,0.66143 -2.47828,1.28261 -3.77166,1.81691 -1.55769,0.6435 -3.14233,1.27103 -4.80694,1.55534 -0.97786,0.16702 -3.74959,1.23463 -3.32696,0.32119 0.81705,-1.76594 3.75613,-1.75881 4.1272,-3.55389 0.29938,-1.44829 1.49225,-2.13874 2.52245,-3.09787 3.45141,-3.21326 6.46164,-6.88545 9.99042,-10.01221 1.56925,-1.39046 3.02145,-2.9124 4.63696,-4.25026 1.18667,-0.98272 2.3315,-1.9378 3.79871,-2.55251 1.09315,-0.458 1.93577,-1.11767 2.49621,-2.2851 1.57761,-3.28628 4.00438,-7.06715 7.62422,-7.58029 1.25467,-0.17786 2.25747,-0.94249 3.40011,-1.41611 1.48146,-0.61407 3.03407,-1.34193 3.93854,-2.68926 0.51123,-0.76153 -0.90647,-1.74454 -1.43213,-2.42371 -1.82812,-2.36199 -4.41855,-4.32113 -5.44,-7.12553 -1.06775,-2.9315 -1.82057,-6.10866 -3.72623,-8.578468 -0.95813,-1.241775 -2.89933,-0.497959 -4.05934,-1.414798 -1.73375,-1.370303 -3.9637,-1.828598 -6.05962,-2.331089 -2.0168,-0.483522 -3.98325,-1.432108 -6.07821,-1.379755 -1.35682,0.03391 -2.51929,-0.504421 -3.97892,-0.467361 -1.11349,0.02827 -2.01258,0.437421 -3.29498,0.954198 -1.39175,0.560847 -2.60891,-0.07096 -3.94628,-0.660257 -1.02373,-0.451091 -2.281,-0.307015 -3.03236,0.629563 -0.86346,1.076325 -1.7458,2.219498 -3.12886,2.680655 -1.19021,0.396854 -2.24446,0.944178 -3.20067,1.911435 -0.79856,0.807789 -1.56974,2.707559 -2.67042,2.257405 -1.36765,-0.559334 -1.75825,-2.081319 -2.46861,-3.253913 -0.65381,-1.079266 -1.7086,-1.848684 -2.58477,-2.742649 -0.75104,-0.766285 -1.90155,-0.891014 -2.70919,-1.542101 -1.00876,-0.813204 -1.48831,-1.92897 -3.21535,-1.730023 -1.2076,0.139111 -2.28165,-0.646703 -3.44783,-0.680991 -1.330689,-0.03912 -2.754792,0.733899 -3.98164,0.230277 -0.739795,-0.303686 -1.091207,-1.408978 -2.22475,-0.714428 -1.03716,0.635494 -2.194296,0.108802 -3.253887,-0.401363 -1.788556,-0.861143 -3.84984,-0.749812 -5.781071,-0.729196 -6.290801,0.06716 -12.535515,1.055072 -18.700971,2.252719 -2.442326,0.474425 -4.774102,1.562531 -7.250547,1.747455 -1.622335,0.121145 -3.726,0.500081 -4.256919,2.268185 -0.760939,2.534136 -1.787824,5.064309 -1.921441,7.70928 -0.06011,1.18981 -0.138261,2.43823 -1.053336,3.39342 -0.935832,0.97685 -2.013498,1.78182 -3.077499,2.60776 -1.685981,1.30877 0.411279,2.93341 1.612176,3.64532 1.490578,0.88364 2.281146,2.5078 3.548797,3.74885 2.938489,2.87681 5.890093,5.74958 9.002173,8.43858 1.248768,1.079 2.766784,1.78289 3.84169,3.0922 0.782317,0.95292 1.860384,1.5129 2.893121,2.27102 1.122456,0.82397 2.169546,1.74615 3.404254,2.44407 1.697828,0.95969 3.16141,2.2206 4.614944,3.5781 1.242699,1.1606 2.96946,0.87166 4.429748,2.23123 1.180104,1.09871 0.231515,2.88247 0.977525,4.10405 1.111757,1.82048 1.574422,4.96712 3.696275,5.23659 0.80493,0.10223 1.071611,1.27168 1.759049,1.89828 1.831239,1.66917 3.863317,3.14478 5.540344,4.97087 2.118608,2.30692 4.423025,4.45156 6.863155,6.4086 2.41162,1.93418 4.96377,3.69549 7.71141,5.13083 1.48617,0.77636 2.84186,1.92147 3.61085,3.39182 0.78274,1.49666 -1.27291,1.52558 -2.29143,1.59786 -0.79055,0.0561 -1.619,-0.0175 -2.32555,-0.40377 z m 60.72754,-57.36808 c 0.95885,-1.19799 2.11288,-2.11782 3.30324,-3.20969 1.71775,-1.57563 2.91811,-3.53105 4.59235,-5.21129 0.98723,-0.99076 2.37647,-1.59931 2.74151,-3.022816 0.42896,-1.67276 -0.9298,-3.309586 -1.61618,-4.832442 -0.85485,-1.896633 -0.76335,-4.91672 -2.72186,-5.622167 -1.44604,-0.520858 -2.84931,-1.096013 -4.32067,-1.7012 -1.72643,-0.710102 -3.5652,-1.367403 -5.46261,-1.047123 -3.24902,0.548431 -6.55989,-0.313574 -9.80209,0.540942 -1.37876,0.363385 -3.30644,0.03253 -4.1033,1.214881 -0.73388,1.088898 1.51595,1.32886 2.27765,1.475351 1.4146,0.272055 2.87535,1.026846 3.47928,2.270164 0.57507,1.183869 1.21508,2.336921 1.78564,3.537206 0.87804,1.847163 2.11044,3.493285 2.987,5.350244 0.73089,1.54835 1.56688,3.07768 1.95861,4.75928 0.37462,1.60819 2.0354,2.55506 2.28202,4.2099 0.16813,1.12813 0.72451,2.52359 2.20118,1.5614 0.13943,-0.0909 0.27798,-0.18306 0.41823,-0.27264 z M 46.470204,104.6342 c 0.600827,-1.29656 0.367639,-2.78127 1.211161,-4.03662 1.044645,-1.554659 1.547401,-3.387742 2.208569,-5.124659 0.916191,-2.406875 1.604616,-5.046466 3.315484,-6.967258 0.78122,-0.877077 1.44748,-1.502306 2.579995,-2.151405 1.231977,-0.706106 2.60738,-0.340938 4.011275,-0.715188 3.048694,-0.812721 6.421676,-2.874047 9.329579,-1.637478 0.47809,0.203305 2.715715,-0.453468 1.185708,-0.540392 -6.179182,-0.351057 -12.358074,-0.845624 -18.556933,-0.636607 -3.810251,0.128477 -7.630707,0.223333 -11.42307,0.624364 -1.344957,0.142225 -2.547303,0.560444 -3.880562,0.940071 -1.17603,0.334859 -2.202597,0.120922 -3.435209,0.189484 -1.325318,0.07372 -1.891001,1.430188 -2.74511,2.23286 -0.858463,0.806765 -1.582918,2.11692 -0.37363,3.148257 1.376474,1.173922 2.696028,2.382221 3.927562,3.738412 1.961375,2.159906 4.26933,4.009164 6.075496,6.297348 1.133078,1.435471 2.182065,3.199891 4.11033,3.662151 0.959898,0.23012 1.523748,2.69557 2.070711,1.79655 0.158086,-0.25984 0.223241,-0.56393 0.388644,-0.81989 z M 183.98366,94.15398 c 0.59877,-1.50391 1.93942,-2.490818 2.97655,-3.693376 1.08116,-1.2536 1.90969,-2.695538 2.89079,-4.016803 0.61622,-0.829885 3.19378,-2.416632 2.23968,-2.403961 -4.67624,0.0621 -9.77358,-1.659938 -14.03363,0.283157 -0.89529,0.408363 0.61385,1.611814 0.98172,2.212032 1.5463,2.522967 3.35902,4.948094 4.33552,7.742475 0.14642,0.419014 0.66607,0.364302 0.60937,-0.123524 z M 27.324,83.478698 c 0.94341,-1.48966 1.715953,-4.097421 3.458635,-3.965379 1.757537,0.133167 2.165257,-2.388401 3.903198,-2.031831 2.515044,0.516007 5.029604,-0.159715 7.550926,-0.242528 4.878618,-0.160239 9.77469,-0.156599 14.637839,0.238507 4.92924,0.400477 9.984833,-0.665112 14.838191,0.532335 0.818019,0.201826 2.595678,0.244066 1.398506,-0.997169 C 71.986521,75.846461 70.34559,75.426339 68.909128,74.748845 63.705651,72.294674 58.295305,70.296819 52.84204,68.48235 45.854913,66.157518 38.764558,63.996023 31.431526,63.054601 28.34508,62.65836 25.275406,62.190363 22.190287,61.748986 18.906119,61.279131 15.557285,60.446955 12.248958,60.9709 c -1.361564,0.215633 -1.10021,1.806488 -1.187017,2.808909 -0.190036,2.194476 -1.6330203,4.604172 -0.586822,6.606529 0.611691,1.170739 1.677775,2.024231 2.626981,2.917022 1.68722,1.58694 2.986232,3.72607 5.056057,4.763961 1.382677,0.693327 1.949726,2.15558 3.016063,3.209162 1.291193,1.275748 2.341096,2.814988 3.802711,3.897092 1.275555,0.944354 1.868271,-0.875044 2.347069,-1.694877 z m 147.92841,-7.31293 c 6.58312,-0.783522 13.17277,-1.681918 19.80029,-1.889147 1.35323,-0.04231 3.31492,0.651297 4.04466,-0.525428 0.84182,-1.357454 1.81116,-2.651392 2.85873,-3.885228 1.06552,-1.254971 1.25206,-3.320936 2.81388,-4.030619 1.46113,-0.663931 2.16104,-2.276282 2.90805,-3.622401 0.7884,-1.420702 1.87169,-2.583057 2.89649,-3.845682 1.08145,-1.332406 1.97082,-2.809584 3.11076,-4.094533 0.84633,-0.953981 1.36781,-2.151395 2.25096,-3.070702 1.50189,-1.563389 2.29189,-3.623432 3.71277,-5.260802 1.52798,-1.760772 3.49482,-3.346096 4.19896,-5.582246 0.22437,-0.71253 1.76954,-2.633003 1.26563,-2.128526 -1.5925,1.59427 -3.60245,2.668472 -5.44664,3.940048 -3.47477,2.395862 -6.63682,5.257783 -10.32356,7.325419 -1.49511,0.838505 -2.56446,1.940391 -3.9523,2.971099 -2.48224,1.843494 -4.98752,3.666904 -7.54026,5.415543 -3.97033,2.719694 -7.94335,5.433795 -11.99677,8.032682 -3.08743,1.979533 -6.22726,3.880513 -9.15866,6.089733 -2.03629,1.534621 -5.32629,1.612189 -6.5639,3.835908 -0.7585,1.362876 1.80914,0.745177 2.5501,0.650026 0.8567,-0.110014 1.71389,-0.21824 2.57081,-0.325144 z M 6.1743061,63.36102 C 6.4874126,62.350703 8.149913,60.283563 6.1373178,60.144992 4.6345079,60.041521 1.6577131,59.105055 1.9614034,61.297983 c 0.1493314,1.078313 1.1392353,1.866318 1.625074,2.830749 0.696818,1.383241 1.8829661,1.982804 2.4205879,-0.109122 0.056377,-0.219369 0.1120904,-0.438909 0.1672408,-0.65859 z M 44.283661,57.853995 C 43.157838,56.7578 41.638293,56.183555 40.239129,55.511156 36.254128,53.596076 32.307715,51.593159 28.251606,49.83426 25.94087,48.832229 23.825477,47.47708 21.642282,46.201381 18.576268,44.409827 15.129666,43.429948 11.874884,42.052366 8.7004154,40.708777 5.7868575,38.815694 2.5681516,37.553584 c -2.19898674,-0.86226 -4.4976145,-1.460151 -6.7314458,-2.230118 -2.4318971,-0.838238 -5.4336622,-0.739708 -7.2932418,-2.562555 -1.093187,-1.071594 -2.341621,0.128452 -3.047329,1.04651 -0.659289,0.857674 -1.251487,1.71207 -1.964335,2.555507 -0.814368,0.963554 0.09617,2.148757 0.615145,3.006627 1.11679,1.846076 2.183563,3.73286 3.45089,5.479937 2.137137,2.946156 4.686929,5.579915 6.6486664,8.657312 0.702577,1.10214 1.171761,2.857099 2.4717575,2.990571 1.2038891,0.123604 2.1471384,-1.710551 3.25782787,-2.404245 1.27350963,-0.795384 2.63754283,-2.646072 4.06777703,-2.032964 1.2521054,0.536748 2.2988388,-0.03234 3.6218627,-0.204184 1.7887354,-0.232336 3.4009505,0.874606 5.1964215,0.746544 1.723684,-0.122942 3.367463,0.174552 5.072504,0.570618 2.530083,0.587718 5.081979,1.059666 7.626114,1.593245 3.76856,0.790377 7.589509,1.248205 11.361579,2.048168 2.407888,0.510654 4.848202,1.06329 7.300442,1.186485 0,0 0.04277,-0.05591 0.04277,-0.05591 z"
       id="path1" /></g></svg>
