<?xml version="1.0" encoding="UTF-8" standalone="no"?>
<!-- Created with Inkscape (http://www.inkscape.org/) -->

<svg
   width="113.98732mm"
   height="134.57877mm"
   viewBox="0 0 113.98732 134.57877"
   version="1.1"
   id="svg1"
   xml:space="preserve"
   inkscape:version="1.3 (0e150ed, 2023-07-21)"
   sodipodi:docname="Japanese_Spider_Crab-top.svg"
   xmlns:inkscape="http://www.inkscape.org/namespaces/inkscape"
   xmlns:sodipodi="http://sodipodi.sourceforge.net/DTD/sodipodi-0.dtd"
   xmlns="http://www.w3.org/2000/svg"
   xmlns:svg="http://www.w3.org/2000/svg"><sodipodi:namedview
     id="namedview1"
     pagecolor="#505050"
     bordercolor="#ffffff"
     borderopacity="1"
     inkscape:showpageshadow="0"
     inkscape:pageopacity="0"
     inkscape:pagecheckerboard="1"
     inkscape:deskcolor="#505050"
     inkscape:document-units="mm"
     inkscape:zoom="0.45968013"
     inkscape:cx="117.47299"
     inkscape:cy="367.64695"
     inkscape:current-layer="layer1" /><defs
     id="defs1" /><g
     inkscape:label="Layer 1"
     inkscape:groupmode="layer"
     id="layer1"
     transform="translate(-60.458767,-25.459449)"><path
       style="fill:#555555;fill-opacity:1"
       d="m 174.19725,60.082159 c -0.50092,2.06066 -4.43256,8.86455 -7.05638,12.21139 -0.7797,0.99455 -1.41763,2.12833 -1.41763,2.51951 0,0.40115 -0.20338,0.71124 -0.4665,0.71124 -0.25658,0 -1.91267,1.93839 -3.6802,4.30754 -2.69265,3.60915 -5.07733,6.62457 -6.1808,7.8156 -0.13099,0.14139 -0.51437,0.44677 -0.85194,0.67862 -0.54561,0.37475 -0.61376,0.86642 -0.61376,4.42842 0,3.56199 0.0682,4.05367 0.61376,4.42841 1.01579,0.69766 2.17195,2.10685 6.70215,8.168921 1.77038,2.36903 3.50202,4.45887 3.84809,4.64408 0.34606,0.18521 0.6292,0.67465 0.6292,1.08766 0,0.413 0.30736,1.02907 0.68301,1.36903 2.37648,2.15069 7.76953,11.94216 7.76953,14.10615 0,0.71846 -0.10972,1.30236 -0.24382,1.29756 -0.1341,-0.005 -0.68271,-0.99047 -1.21912,-2.19036 -1.62591,-3.63699 -7.65667,-12.23447 -9.12566,-13.0096 -0.4344,-0.22922 -0.78982,-0.6893 -0.78982,-1.02241 0,-0.33311 -1.99861,-3.07145 -4.44137,-6.0852 -4.2418,-5.23332 -4.88635,-5.950901 -5.35545,-5.962211 -0.33487,-0.008 -0.0652,3.860441 0.29999,4.303371 0.18391,0.22306 1.82272,4.13067 3.64181,8.68357 1.9715,4.9344 3.55931,8.45444 3.93103,8.7148 0.69779,0.48875 0.814,1.37988 0.2531,1.94078 -0.27728,0.27727 -0.0728,0.99746 0.81274,2.86209 0.90328,1.90206 1.18325,2.90336 1.18325,4.2319 0,1.8593 1.92431,9.89871 2.75286,11.50096 0.49801,0.96304 0.69363,4.65913 0.30079,5.68287 -0.44232,1.15266 -0.96374,0.48295 -0.96374,-1.23783 0,-0.96363 -0.18152,-1.97079 -0.40339,-2.23812 -0.44994,-0.54214 -0.78896,-1.70659 -2.63925,-9.06498 -0.70397,-2.79965 -1.42132,-5.3598 -1.59411,-5.68921 -0.17278,-0.32942 -0.70815,-1.57985 -1.18971,-2.77875 -0.48156,-1.1989 -1.08134,-2.35059 -1.33284,-2.55931 -0.2515,-0.20873 -0.45727,-0.81092 -0.45727,-1.33821 0,-1.86923 -7.07377,-19.60539 -7.81929,-19.60539 -0.31113,0 -0.68789,1.02974 -1.18946,3.25098 -0.68482,3.03277 -0.71201,3.56738 -0.4051,7.96489 0.58175,8.33583 1.29044,15.08857 1.61786,15.41599 0.4151,0.4151 0.41091,1.71886 -0.006,1.97674 -0.46508,0.28744 -0.39164,2.55839 0.1682,5.20144 0.65035,3.07034 0.61487,3.56188 -0.33074,4.58221 -0.50298,0.54273 -0.81322,1.26157 -0.81399,1.88607 -0.002,1.29454 -0.74477,5.86934 -1.65379,10.18013 -0.65457,3.10416 -0.82875,3.50636 -2.15939,4.98635 -1.44664,1.60901 -2.36244,2.04319 -2.36244,1.12005 0,-0.26938 0.36574,-0.80779 0.81275,-1.19646 0.53473,-0.46495 0.81383,-1.04804 0.81592,-1.70462 0.002,-0.54886 0.36123,-1.76702 0.79886,-2.70701 0.93187,-2.0016 1.33335,-4.04907 1.80546,-9.20743 0.24396,-2.66548 0.24311,-4.03109 -0.003,-4.67811 -0.27882,-0.73334 -0.24319,-1.02892 0.18045,-1.49703 0.44297,-0.48949 0.49141,-1.04414 0.30124,-3.44933 -0.12584,-1.5917 -0.44075,-3.20459 -0.70823,-3.62741 -0.39069,-0.61759 -0.40877,-0.93722 -0.0958,-1.69292 0.29644,-0.71568 0.29861,-1.9331 0.009,-5.25296 -0.20709,-2.37677 -0.45325,-7.83244 -0.54702,-12.12373 -0.0938,-4.29129 -0.23514,-8.00513 -0.31416,-8.25297 -0.22847,-0.71663 -1.21704,0.35009 -4.11437,4.43959 -2.35773,3.32788 -9.04825,11.48422 -14.83591,18.08631 -1.23886,1.41319 -2.18411,2.74754 -2.10058,2.96524 0.2798,0.72913 -0.79252,1.42491 -1.91975,1.24564 -0.94291,-0.14996 -1.43303,0.13533 -4.64347,2.70288 -1.97412,1.57879 -4.38797,3.48703 -5.36412,4.24052 -0.97615,0.75349 -4.03443,3.4344 -6.79619,5.95759 -5.40874,4.94151 -6.229115,5.51379 -7.904251,5.51379 -1.416889,0 -2.133015,-0.56006 -2.390221,-1.86932 -0.222648,-1.13334 0.164993,-1.3931 0.849002,-0.56892 0.22259,0.26821 0.612066,0.48765 0.865502,0.48765 0.799584,0 3.126598,-1.32951 5.148808,-2.94171 1.50629,-1.20088 8.0035,-7.67865 10.99907,-10.96617 0.20864,-0.22897 1.62285,-1.23655 3.14268,-2.23906 3.64671,-2.40543 3.90117,-2.64901 3.90117,-3.73441 0,-0.83956 0.10455,-0.9249 1.1331,-0.9249 1.01409,0 1.49092,-0.36911 4.53974,-3.51416 5.95433,-6.14225 14.79109,-17.39321 14.8025,-18.84651 0.008,-1.05149 -0.96826,-1.33612 -1.55455,-0.45312 -0.25824,0.38893 -0.61809,0.70714 -0.79968,0.70714 -0.18158,0 -1.49827,1.24851 -2.92596,2.77447 -4.30646,4.60284 -14.24882,13.45958 -19.99117,17.80832 -1.79376,1.35842 -3.62145,2.92995 -4.06154,3.49228 -0.68288,0.87256 -0.89053,0.96725 -1.41669,0.64601 -0.522,-0.3187 -1.18973,-0.0498 -4.35515,1.75404 -2.05624,1.17175 -4.03121,2.133 -4.38882,2.13612 -0.3576,0.003 -1.747396,0.35432 -3.088424,0.78046 -1.341028,0.42615 -4.559496,1.09327 -7.15215,1.48251 -5.427298,0.8148 -13.927078,2.52299 -19.247368,3.86811 -3.217827,0.81356 -3.993711,0.89855 -6.272802,0.68711 -3.545482,-0.32893 -5.794762,-1.30965 -5.2023,-2.26827 0.126266,-0.2043 0.547542,-0.14428 1.140884,0.16255 1.096869,0.56721 1.298086,0.59562 1.298086,0.18326 0,-0.16675 -0.292588,-0.39605 -0.650196,-0.50955 -1.337042,-0.42436 -0.57758,-0.79748 1.544214,-0.75867 1.206926,0.0221 2.999027,-0.18649 3.982447,-0.46349 0.983421,-0.277 2.812096,-0.6027 4.063722,-0.72377 3.373076,-0.32629 16.747933,-2.61646 22.004169,-3.76776 3.726698,-0.81628 4.885603,-1.21127 6.193428,-2.11089 0.88487,-0.60869 2.21711,-1.26307 2.96052,-1.45419 3.3335,-0.85696 4.46226,-1.37124 5.33585,-2.43105 0.61787,-0.74959 1.33767,-1.19182 2.28711,-1.40514 1.93104,-0.43388 4.30149,-2.27078 15.27277,-11.83517 4.08741,-3.56326 5.56737,-5.04215 5.44179,-5.43783 -0.12051,-0.37968 0.29401,-0.87534 1.37531,-1.64453 1.55976,-1.10955 4.31114,-3.7399 4.31114,-4.12151 0,-0.11316 -0.22777,-0.45743 -0.50615,-0.76504 -0.41247,-0.45577 -0.67438,-0.4958 -1.415,-0.21624 -1.27792,0.48236 -1.89483,0.13766 -2.51138,-1.403261 -0.54862,-1.37114 -1.39585,-1.93612 -2.90333,-1.93612 -0.6628,0 -0.79158,-0.15867 -0.79158,-0.9753 0,-0.86692 -0.10836,-0.97529 -0.97529,-0.97529 -0.74723,0 -0.97529,-0.14692 -0.97529,-0.62829 0,-0.34556 0.29258,-0.72115 0.65019,-0.83465 0.84729,-0.26892 0.82824,-0.97627 -0.0427,-1.58632 -0.88641,-0.62087 -0.58124,-1.50211 0.52018,-1.50211 0.69766,0 0.82295,-0.14849 0.82295,-0.97529 0,-0.87158 0.10599,-0.97529 0.99667,-0.97529 1.5001,0 2.23108,-0.54211 2.9302,-2.17308 0.66572,-1.55306 0.69815,-1.56365 2.79107,-0.91096 0.52131,0.16257 0.79831,0.0425 1.06898,-0.46322 0.30576,-0.57131 0.22124,-0.86324 -0.51819,-1.78994 -0.48594,-0.60902 -1.80916,-1.80649 -2.94049,-2.66105 -1.41183,-1.06645 -2.00509,-1.71717 -1.89159,-2.0748 0.11681,-0.36801 -1.76837,-2.20239 -6.41847,-6.24552 -10.18377,-8.85448 -12.97199,-10.98964 -14.35094,-10.98964 -0.52584,0 -1.27808,-0.45977 -2.08391,-1.2737 -0.99266,-1.00263 -1.85572,-1.45912 -4.05528,-2.1449 -1.53684,-0.47916 -3.53401,-1.34781 -4.43817,-1.93032 -1.28091,-0.82525 -2.677328,-1.28364 -6.323764,-2.07584 -5.170422,-1.12329 -18.969612,-3.46219 -22.35904,-3.78974 -1.190071,-0.11501 -2.859129,-0.41838 -3.709017,-0.67416 -0.849889,-0.25578 -2.582633,-0.46831 -3.850543,-0.47228 l -2.30529,-0.007 0.812744,-0.63574 c 0.760013,-0.59449 0.769505,-0.63621 0.146294,-0.64297 -0.366547,-0.004 -0.842003,0.16833 -1.056567,0.38289 -0.303425,0.30343 -0.480422,0.29856 -0.79649,-0.0219 -0.54794,-0.55554 0.362252,-1.21965 2.519508,-1.83835 2.820053,-0.80878 5.425117,-0.6585 10.403126,0.60012 5.266597,1.33159 13.019683,2.87408 18.324842,3.64575 2.032495,0.29563 4.665786,0.82455 5.851759,1.17536 1.185972,0.35082 2.741488,0.76481 3.456708,0.92 1.22368,0.26551 5.81481,2.61862 7.66745,3.92983 0.75884,0.53708 0.88926,0.54593 1.34399,0.0912 0.45472,-0.45473 0.67287,-0.33449 2.24803,1.2391 0.95944,0.95847 3.37189,2.98441 5.36101,4.50208 4.29144,3.27431 13.69855,11.67601 18.01659,16.09104 4.64681,4.75117 4.50352,4.6316 4.86687,4.06108 0.17081,-0.26821 0.31281,-0.75296 0.31555,-1.07724 0.005,-0.64478 -3.81431,-6.18721 -5.96257,-8.65164 -0.74094,-0.84998 -2.46956,-2.92206 -3.84138,-4.60463 -1.37183,-1.68257 -3.8757,-4.41244 -5.56415,-6.06637 -2.55256,-2.50038 -3.24165,-3.00716 -4.089,-3.00716 -0.91182,0 -1.01908,-0.10097 -1.01908,-0.95937 0,-0.83402 -0.36527,-1.21896 -2.79559,-2.94619 -1.53758,-1.09275 -3.1398,-2.11769 -3.56051,-2.27764 -0.4207,-0.15995 -0.97942,-0.69941 -1.2416,-1.1988 -0.61318,-1.16797 -8.91591,-9.3331 -11.2726,-11.08579 -1.52253,-1.13231 -3.76676,-2.33846 -4.35108,-2.33846 -0.08818,0 -0.443173,0.3036 -0.788875,0.67467 -0.739037,0.79326 -1.139666,0.39392 -0.832519,-0.82985 0.249773,-0.99517 1.289959,-1.7954 2.333771,-1.7954 1.269298,0 3.242693,1.22215 5.698103,3.52893 3.7828,3.55381 9.04944,8.18738 10.16175,8.94026 0.56657,0.3835 2.52137,1.90419 4.34399,3.37932 3.04669,2.46582 3.43112,2.68205 4.76823,2.68205 1.35536,0 1.46761,0.0663 1.6491,0.97374 0.10774,0.53869 1.11872,2.02747 2.26281,3.33225 5.7589,6.56774 12.47381,14.75728 14.59542,17.80066 2.46183,3.53141 3.57226,4.87646 4.02584,4.87646 0.14492,0 0.35166,-3.54762 0.45942,-7.88362 0.10776,-4.33599 0.36552,-9.97183 0.57279,-12.52409 0.29699,-3.65709 0.2912,-4.84726 -0.0273,-5.61624 -0.33914,-0.81877 -0.32333,-1.06594 0.0983,-1.53637 0.33008,-0.36829 0.58178,-1.58638 0.73365,-3.55043 0.19294,-2.49519 0.14686,-3.07412 -0.2785,-3.49948 -0.40437,-0.40436 -0.44048,-0.70818 -0.17477,-1.47039 0.23291,-0.66813 0.22071,-2.22608 -0.0401,-5.11561 -0.45445,-5.03575 -0.81899,-6.8292 -1.82896,-8.99824 -0.42477,-0.91224 -0.77373,-2.03542 -0.77548,-2.49596 -0.002,-0.46968 -0.36004,-1.17261 -0.81592,-1.60088 -0.86466,-0.81231 -1.09287,-1.95059 -0.39108,-1.95059 0.38522,0 2.12427,1.66674 3.10278,2.97377 0.48417,0.64672 2.22778,9.33313 2.53332,12.6206 0.17138,1.84403 0.39721,2.56664 1.04134,3.33215 l 0.82251,0.97749 -0.55417,3.29573 c -0.63047,3.74956 -0.68011,4.95904 -0.2153,5.24631 0.41215,0.25472 0.42349,1.55934 0.0171,1.96684 -0.27243,0.27318 -1.37807,11.38686 -1.74487,17.53902 -0.13993,2.34699 0.83888,8.46832 1.45554,9.10274 0.20916,0.21518 0.46034,0.12969 0.74292,-0.25284 0.81496,-1.10326 7.09428,-17.31034 7.26125,-18.7415 0.0924,-0.79149 0.50185,-1.93118 0.91002,-2.53265 0.40817,-0.60147 0.98426,-1.78256 1.2802,-2.62465 0.29595,-0.8421 0.67246,-1.75052 0.83669,-2.01873 0.42209,-0.68931 0.40784,-0.64044 1.70733,-5.85176 0.6465,-2.59265 1.34254,-5.37224 1.54676,-6.17685 0.20422,-0.80462 0.66256,-2.09748 1.01853,-2.87304 0.46796,-1.01952 0.59089,-1.7624 0.44383,-2.68205 -0.15545,-0.97213 -0.0957,-1.27196 0.25331,-1.27196 0.6459,0 0.85139,0.73239 0.8512,3.03374 -1e-4,1.23368 -0.25637,2.67938 -0.66603,3.75719 -1.03273,2.71716 -2.58478,9.43506 -2.58478,11.18796 0,1.14515 -0.32198,2.24719 -1.17427,4.01919 -0.86175,1.79163 -1.07806,2.53764 -0.81275,2.80295 0.54496,0.54496 0.43571,1.36398 -0.26675,1.9997 -0.34556,0.31272 -1.97794,3.95617 -3.62751,8.09655 -1.64957,4.14038 -3.29317,8.11314 -3.65245,8.82836 -0.75234,1.49771 -1.01389,4.71391 -0.38334,4.71391 0.61098,0 9.59197,-11.26068 9.59197,-12.02674 0,-0.40506 0.30545,-0.78429 0.77571,-0.96308 1.28028,-0.48677 7.90192,-9.94035 9.51089,-13.57852 0.61299,-1.38608 0.88691,-1.72435 1.11035,-1.37121 0.33526,0.52988 0.33553,0.72605 0.003,2.09429 z"
       id="path1"
       sodipodi:nodetypes="cssssssscsssssssssscssssssssssssssssssscsscsssscsscsssccssssssssssssssssssscssssssssssssssssssssssssssssssssssssssssssssssssssssssccssssssssssssssscsssssssssssssssssssssssssssscscssssscsssssscssssssssssssssssssssscc" /></g></svg>
