<?xml version="1.0" encoding="UTF-8" standalone="no"?>
<svg
   id="Layer_2"
   viewBox="0 0 255.99999 255.99999"
   version="1.1"
   sodipodi:docname="instagram.svg"
   width="256"
   height="256"
   inkscape:version="1.4 (86a8ad7, 2024-10-11)"
   xml:space="preserve"
   xmlns:inkscape="http://www.inkscape.org/namespaces/inkscape"
   xmlns:sodipodi="http://sodipodi.sourceforge.net/DTD/sodipodi-0.dtd"
   xmlns="http://www.w3.org/2000/svg"
   xmlns:svg="http://www.w3.org/2000/svg"><sodipodi:namedview
     id="namedview1"
     pagecolor="#505050"
     bordercolor="#ffffff"
     borderopacity="1"
     inkscape:showpageshadow="0"
     inkscape:pageopacity="0"
     inkscape:pagecheckerboard="1"
     inkscape:deskcolor="#505050"
     inkscape:zoom="2"
     inkscape:cx="121"
     inkscape:cy="147.25"
     inkscape:window-width="3440"
     inkscape:window-height="1377"
     inkscape:window-x="-8"
     inkscape:window-y="-8"
     inkscape:window-maximized="1"
     inkscape:current-layer="Layer_2" /><defs
     id="defs1"><style
       id="style1">.cls-1{fill:none;}.cls-2{clip-path:url(#clippath);}</style><clipPath
       clipPathUnits="userSpaceOnUse"
       id="clipPath2"><path
         class="cls-1"
         d="m 128,23.814824 c 33.93231,0 37.95132,0.127088 51.35243,0.73914 12.39152,0.565285 19.12003,2.63325 23.59757,4.374854 5.93447,2.30689 10.16597,5.057059 14.61301,9.504099 4.44602,4.44704 7.20229,8.679556 9.5041,14.613009 1.7416,4.477541 3.80957,11.206052 4.37485,23.597574 0.61104,13.401105 0.73914,17.419098 0.73914,51.35243 0,33.93333 -0.12708,37.95031 -0.73914,51.35141 -0.56528,12.39153 -2.63325,19.12004 -4.37485,23.59758 -2.30689,5.93447 -5.05706,10.16597 -9.5041,14.61301 -4.44704,4.44602 -8.67956,7.20229 -14.61301,9.50409 -4.47754,1.74161 -11.20605,3.80957 -23.59757,4.37486 -13.40009,0.61103 -17.4191,0.73914 -51.35243,0.73914 -33.933336,0 -37.950312,-0.12709 -51.351416,-0.73914 -12.391523,-0.56529 -19.120034,-2.63325 -23.597575,-4.37486 -5.934469,-2.3079 -10.165969,-5.05807 -14.613009,-9.50409 -4.446023,-4.44704 -7.202292,-8.67956 -9.504098,-14.61301 -1.742621,-4.47754 -3.80957,-11.20605 -4.374854,-23.59758 -0.611036,-13.40008 -0.73914,-17.41909 -0.73914,-51.35141 0,-33.932316 0.127087,-37.950309 0.73914,-51.35243 0.565284,-12.391522 2.633249,-19.120033 4.374854,-23.597574 2.306889,-5.93447 5.057059,-10.165969 9.504098,-14.613009 4.44704,-4.446023 8.679556,-7.202293 14.613009,-9.504099 C 57.52855,27.187214 64.257061,25.119249 76.648584,24.553964 90.048671,23.948012 94.067681,23.814824 128,23.814824 Z m 0,-22.89401861 c -34.512854,0 -38.841957,0.14742131 -52.395566,0.76354061 C 62.076243,2.3004654 52.841569,4.4507829 44.758816,7.5923816 36.400536,10.84175 29.316181,15.18712 22.251142,22.251142 15.18712,29.316181 10.837684,36.400536 7.5923816,44.758816 4.4497662,52.842586 2.3004654,62.081326 1.684346,75.604434 1.0682267,89.15906 0.92080539,93.488163 0.92080539,128 c 0,34.51183 0.14742131,38.84195 0.76354061,52.39556 0.6161194,13.52819 2.7664369,22.76286 5.9080356,30.84562 3.2493684,8.35828 7.5947384,15.44263 14.6587604,22.50767 7.065039,7.06504 14.154478,11.40939 22.507674,14.65876 8.08377,3.14262 17.32251,5.29192 30.845618,5.90804 13.553609,0.61612 17.882712,0.76354 52.395566,0.76354 34.51285,0 38.84195,-0.14742 52.39556,-0.76354 13.52819,-0.61612 22.76286,-2.76644 30.84562,-5.90804 8.35828,-3.25038 15.44263,-7.59474 22.50767,-14.65876 7.06504,-7.06504 11.40939,-14.15448 14.65876,-22.50767 3.14262,-8.08276 5.29192,-17.32251 5.90804,-30.84562 0.61612,-13.55361 0.76354,-17.88271 0.76354,-52.39556 0,-34.512854 -0.14742,-38.841957 -0.76354,-52.395566 -0.61612,-13.528191 -2.76644,-22.762865 -5.90804,-30.845618 -3.25038,-8.35828 -7.59474,-15.442635 -14.65876,-22.507674 C 226.68381,15.18712 219.59437,10.84175 211.24118,7.5923816 203.15842,4.4497662 193.91867,2.3004654 180.39556,1.684346 166.84297,1.0682267 162.51285,0.92080539 128,0.92080539 Z m 0,61.82340861 c -36.040952,0 -65.255786,29.214834 -65.255786,65.255786 0,36.04095 29.214834,65.2568 65.255786,65.2568 36.04095,0 65.2568,-29.21585 65.2568,-65.2568 0,-36.040952 -29.21585,-65.255786 -65.2568,-65.255786 z m 0,107.618566 c -23.39322,0 -42.361767,-18.96245 -42.361767,-42.36177 0,-23.39931 18.968547,-42.36176 42.361767,-42.36176 23.39321,0 42.36176,18.96245 42.36176,42.36176 0,23.39932 -18.96855,42.36177 -42.36176,42.36177 z M 195.83413,44.917421 c -8.42437,0 -15.24946,6.825097 -15.24946,15.249462 0,8.424365 6.82509,15.250479 15.24946,15.250479 8.42436,0 15.25048,-6.826114 15.25048,-15.250479 0,-8.424365 -6.8251,-15.249462 -15.25048,-15.249462 z"
         id="path3"
         style="stroke-width:0.10167" /></clipPath><style
       id="style1-4">.cls-1{fill:#fff;}</style></defs><path
     class="cls-1"
     d="M 75.579669,2.3118329 C 62.112218,2.9472401 52.915353,5.0964681 44.875386,8.2557509 36.554425,11.498567 29.501728,15.850176 22.484484,22.892742 15.467227,29.935307 11.145998,36.993063 7.9259543,45.326693 4.8097066,53.384372 2.6984546,62.58882 2.1035596,76.063879 1.5086646,89.538925 1.3770233,93.870284 1.4428439,128.24267 c 0.065807,34.37238 0.2177113,38.68095 0.8708318,52.18386 0.642989,13.46491 2.7846218,22.65924 5.9439045,30.70174 3.2478888,8.32097 7.5944258,15.37113 14.6395268,22.39091 7.045102,7.01979 14.097799,11.33089 22.451665,14.55599 8.050097,3.11119 17.257081,5.23256 30.729591,5.8224 13.472523,0.58983 17.808941,0.72653 52.171207,0.66071 34.36228,-0.0658 38.68856,-0.21771 52.18893,-0.85816 13.50037,-0.64047 22.64659,-2.79729 30.69161,-5.94138 8.32097,-3.25549 15.3762,-7.59443 22.39092,-14.64207 7.01472,-7.04762 11.33341,-14.11044 14.55092,-22.44913 3.11879,-8.05009 5.23763,-17.25708 5.8224,-30.71947 0.58983,-13.51049 0.72907,-17.82412 0.66325,-52.19145 C 254.4918,93.389304 254.33736,89.08073 253.6969,75.582898 253.05643,62.085067 250.91228,52.918582 247.75552,44.871021 244.50257,36.550059 240.16109,29.504957 233.11853,22.480105 226.07596,15.455266 219.00807,11.139097 210.67192,7.929184 202.61676,4.8129362 193.41485,2.68903 179.94233,2.1067892 166.46981,1.5245484 162.13339,1.375194 127.75847,1.4410146 93.383538,1.5068218 89.080037,1.6536535 75.579669,2.3118329 M 77.05805,231.12693 c -12.340945,-0.53667 -19.041767,-2.58716 -23.50729,-4.3035 -5.913524,-2.27834 -10.12591,-5.03258 -14.576243,-9.43987 -4.450333,-4.40732 -7.184325,-8.63488 -9.493039,-14.53575 -1.734055,-4.46552 -3.822521,-11.15875 -4.399703,-23.49969 -0.627812,-13.33835 -0.75944,-17.34316 -0.832856,-51.13583 -0.07342,-33.792682 0.05566,-37.792416 0.640467,-51.13582 0.526538,-12.330827 2.589696,-19.039244 4.303501,-23.502231 2.278333,-5.921119 5.022456,-10.12591 9.439886,-14.573707 4.417416,-4.447811 8.632325,-7.186861 14.538267,-9.495575 4.460464,-1.74165 11.153677,-3.812403 23.489563,-4.399703 13.348477,-0.632871 17.348211,-0.75944 51.135837,-0.832856 33.78762,-0.07342 37.79748,0.05313 51.15101,0.640467 12.33083,0.536669 19.04177,2.579564 23.49971,4.303501 5.91606,2.278333 10.1259,5.014861 14.57371,9.439886 4.44779,4.425011 7.18939,8.62473 9.49809,14.543326 1.74419,4.44781 3.81494,11.1385 4.39718,23.481982 0.6354,13.348476 0.77969,17.350733 0.84046,51.13582 0.0607,33.78508 -0.0582,37.79748 -0.64301,51.13583 -0.5392,12.34094 -2.58463,19.0443 -4.30351,23.51488 -2.27832,5.911 -5.02498,10.12591 -9.44493,14.57117 -4.41997,4.44528 -8.62981,7.18434 -14.53827,9.49304 -4.45541,1.73913 -11.15623,3.81494 -23.48198,4.40224 -13.34848,0.62781 -17.34821,0.75944 -51.14848,0.83286 -33.800291,0.0734 -37.787357,-0.0633 -51.135834,-0.64047 M 180.24357,60.350999 A 15.188859,15.188859 0 1 0 195.40206,45.136826 15.188859,15.188859 0 0 0 180.24357,60.350999 M 63.010881,128.12622 c 0.07088,35.89633 29.223366,64.92984 65.112119,64.86149 35.88875,-0.0684 64.9425,-29.2183 64.87416,-65.11464 C 192.92876,91.97673 163.76872,62.935636 127.87493,63.006516 91.981109,63.077396 62.942538,92.23494 63.010881,128.12622 m 22.798481,-0.0455 A 42.192118,42.192118 0 1 1 128.08503,170.1893 42.187057,42.187057 0 0 1 85.809362,128.08072"
     id="path1"
     style="stroke-width:0.253147" /></svg>
