<?xml version="1.0" encoding="UTF-8" standalone="no"?>
<svg
   width="256"
   height="256"
   clip-rule="evenodd"
   fill-rule="evenodd"
   version="1.1"
   viewBox="0 0 256 256"
   xml:space="preserve"
   id="svg58"
   sodipodi:docname="pixabay-white.svg"
   inkscape:version="1.4 (86a8ad7, 2024-10-11)"
   xmlns:inkscape="http://www.inkscape.org/namespaces/inkscape"
   xmlns:sodipodi="http://sodipodi.sourceforge.net/DTD/sodipodi-0.dtd"
   xmlns="http://www.w3.org/2000/svg"
   xmlns:svg="http://www.w3.org/2000/svg"><defs
   id="defs58">



                    
                    
                    



    
                        
                    </defs><sodipodi:namedview
   id="namedview58"
   pagecolor="#505050"
   bordercolor="#ffffff"
   borderopacity="1"
   inkscape:showpageshadow="0"
   inkscape:pageopacity="0"
   inkscape:pagecheckerboard="1"
   inkscape:deskcolor="#505050"
   inkscape:zoom="2.758216"
   inkscape:cx="160.61106"
   inkscape:cy="149.19064"
   inkscape:window-width="3440"
   inkscape:window-height="1377"
   inkscape:window-x="-8"
   inkscape:window-y="-8"
   inkscape:window-maximized="1"
   inkscape:current-layer="svg58" />
    
    
    
    
    
    
    
    
    
    
    
    <path
   id="path48"
   style="fill:#ffffff;fill-opacity:1;stroke-width:6.69937"
   d="m 14.568578,1.2156211 c -7.3693001,0 -13.3464162,5.9770488 -13.3464162,13.3464289 v 226.8759 c 0,7.36931 5.9771161,13.34643 13.3464162,13.34643 H 241.43143 c 7.3693,0 13.34641,-5.97712 13.34641,-13.34643 V 14.56205 c 0,-7.3693131 -5.97711,-13.3464289 -13.34641,-13.3464289 z M 123.87832,58.04254 h 23.48706 l 22.7805,34.229589 h 0.69349 L 193.63295,58.04254 h 23.47399 l -32.4501,48.50502 36.59795,51.35755 h -23.47398 l -26.94144,-37.09518 h -0.69349 l -26.92835,37.09518 h -23.48707 l 36.61104,-51.35755 z m -40.876662,0.196292 c 13.698006,0.354397 25.112902,5.207759 34.242712,14.576367 9.12321,9.354941 13.86063,21.108862 14.21,35.250241 -0.34938,14.15504 -5.08679,25.94487 -14.21,35.36795 -9.12981,9.4299 -20.544706,14.32634 -34.242712,14.69414 H 53.92741 v 40.02616 H 34.758299 v -90.08825 c 0.34274,-14.141379 5.048026,-25.8953 14.105328,-35.250241 9.063887,-9.368608 20.440025,-14.22197 34.138031,-14.576367 z m 0,19.810254 c -8.27945,0.21103 -15.13724,3.122981 -20.595348,8.753672 -5.451519,5.623858 -8.274569,12.717961 -8.4789,21.262682 v 30.25183 h 29.074248 c 8.378326,-0.20433 15.300644,-3.1355 20.778532,-8.77986 5.47788,-5.65789 8.32039,-12.81142 8.51816,-21.47197 -0.19777,-8.544721 -3.04028,-15.638824 -8.51816,-21.262682 -5.477888,-5.630691 -12.400206,-8.542642 -20.778532,-8.753672 z" />
    
    
    
    
</svg>
