<?xml version="1.0" encoding="UTF-8" standalone="no"?>
<!-- Created with Inkscape (http://www.inkscape.org/) -->

<svg
   xmlns:dc="http://purl.org/dc/elements/1.1/"
   xmlns:cc="http://creativecommons.org/ns#"
   xmlns:rdf="http://www.w3.org/1999/02/22-rdf-syntax-ns#"
   xmlns:svg="http://www.w3.org/2000/svg"
   xmlns="http://www.w3.org/2000/svg"
   xmlns:sodipodi="http://sodipodi.sourceforge.net/DTD/sodipodi-0.dtd"
   xmlns:inkscape="http://www.inkscape.org/namespaces/inkscape"
   width="2969.24"
   height="1890.7817"
   viewBox="0 0 785.61139 500.26935"
   version="1.1"
   id="svg8"
   inkscape:version="0.92.4 (5da689c313, 2019-01-14)"
   sodipodi:docname="Ladybug-side.svg"
   inkscape:export-filename="G:\Pictures\My Pictures\Vectors and SVGs\Animals\Ladybug.png"
   inkscape:export-xdpi="96"
   inkscape:export-ydpi="96">
  <defs
     id="defs2" />
  <sodipodi:namedview
     id="base"
     pagecolor="#000720"
     bordercolor="#666666"
     borderopacity="1.0"
     inkscape:pageopacity="0"
     inkscape:pageshadow="2"
     inkscape:zoom="0.24748737"
     inkscape:cx="2176.3688"
     inkscape:cy="564.48442"
     inkscape:document-units="mm"
     inkscape:current-layer="layer1"
     showgrid="false"
     borderlayer="true"
     inkscape:showpageshadow="false"
     inkscape:pagecheckerboard="true"
     units="px"
     inkscape:window-width="1600"
     inkscape:window-height="837"
     inkscape:window-x="-8"
     inkscape:window-y="-8"
     inkscape:window-maximized="1"
     inkscape:snap-global="false"
     fit-margin-top="0"
     fit-margin-left="0"
     fit-margin-right="0"
     fit-margin-bottom="0" />
  <metadata
     id="metadata5">
    <rdf:RDF>
      <cc:Work
         rdf:about="">
        <dc:format>image/svg+xml</dc:format>
        <dc:type
           rdf:resource="http://purl.org/dc/dcmitype/StillImage" />
        <dc:title></dc:title>
      </cc:Work>
    </rdf:RDF>
  </metadata>
  <g
     inkscape:label="Layer 1"
     inkscape:groupmode="layer"
     id="layer1"
     transform="translate(-4.0692526,207.1348)">
    <path
       style="opacity:1;fill:#555555;fill-opacity:1;fill-rule:nonzero;stroke:none;stroke-width:16.72101784;stroke-linecap:round;stroke-linejoin:round;stroke-miterlimit:4;stroke-dasharray:none;stroke-dashoffset:0;stroke-opacity:1;paint-order:normal"
       d="m 455.61346,-207.13463 c 79.88478,-0.0682 160.69799,20.96765 219.20832,75.08378 124.86934,115.491519 114.65708,237.42065 114.65708,237.42065 -44.19824,27.21866 -148.9097,45.97945 -255.43453,52.57353 0.1303,0.32993 0.24268,0.66153 0.33693,0.99478 7.63683,3.93964 32.16263,-1.10482 48.51177,5.37331 10.33643,4.09567 13.38172,6.57625 13.23123,10.49653 29.52551,15.01912 76.94142,54.22254 68.19067,62.57755 -0.62346,0.59529 -1.24827,1.18618 -1.8743,1.76684 18.71699,17.07991 23.97384,20.86782 16.44085,29.87053 -7.4519,8.90574 -10.68427,0.87712 -26.0413,-23.15879 -5.72966,2.12349 -12.02236,0.27344 -19.61069,-10.92028 -11.50883,-16.97691 -25.31329,-43.73396 -38.86378,-53.73005 -0.31999,0.84984 -0.65902,1.73902 -1.02474,2.71817 -3.98662,10.67363 -12.59476,1.65756 -40.49055,-9.32294 -10.9391,-4.30591 -16.82185,-5.39888 -20.47472,-5.56607 -2.79021,4.2041 -7.71457,7.63808 -13.14699,8.91316 -10.5967,2.48724 -25.22598,0.1275 -50.47083,-17.5214 -45.78273,0.63111 -89.61223,-1.20579 -126.59641,-5.8198 3.33243,4.87923 7.08309,9.67449 11.2267,13.95624 2.69639,2.78627 4.99557,5.68756 6.97219,8.64391 0.43479,-1.7294 0.85358,-3.17778 1.24436,-4.21989 3.79212,-10.11222 12.63994,-1.9e-4 20.22409,8.21602 4.11158,4.45419 6.92153,18.00956 6.31796,30.69789 13.12439,44.20306 18.08401,52.46499 9.92447,53.32232 4.86794,20.47968 16.75916,21.8729 10.93422,25.95036 -6.32013,4.4241 -10.74401,0.63212 -13.27208,-4.42402 -1.74728,-3.49459 -5.90722,-15.13787 -6.43371,-22.20692 -7.76132,-2.15014 -8.62269,-9.55186 -8.71884,-30.15319 -0.77981,0.71469 -1.62658,1.32016 -2.54403,1.79885 -4.95276,2.58403 -9.68441,3.91962 -13.74695,4.13411 -5.48846,2.00904 -11.70072,2.34683 -16.58969,-0.3421 -12.0609,-6.63348 -36.78005,-49.51683 -51.64855,-93.51314 -26.79967,-6.52913 -46.19183,-15.43696 -54.54808,-26.95806 -13.59956,-18.7502 -21.50211,-36.121521 -26.06765,-52.891341 -1.85082,2.252927 -3.58304,4.559855 -5.2064,6.894168 6.58802,11.215502 23.20134,39.935603 26.23611,49.545793 3.79209,12.00825 -18.96038,51.82489 -31.60064,72.04935 -11.48593,18.37751 -18.27588,24.7505 -28.42979,22.91644 -2.28611,16.37635 -7.4589,28.63291 -18.33947,32.06884 -4.22148,1.33311 -9.45663,3.13238 -14.36346,4.38682 -1.79432,13.47939 -8.25508,24.73053 -15.97318,22.15782 -9.48021,-3.16005 -21.4883,-10.11192 -10.74405,-16.43208 4.32129,-2.54193 7.8218,-5.9959 11.16521,-9.02115 0.0122,-0.52409 0.0787,-1.09503 0.21085,-1.72289 2.09259,-9.93976 27.56852,-21.61169 38.79246,-35.37407 -2.90999,-3.46409 0.89093,-9.48984 2.28875,-27.19576 1.89604,-24.01654 13.27227,-37.92079 30.33665,-60.04128 13.22766,-17.14693 12.01299,-20.61816 -3.91551,-18.37047 1.12781,9.50325 -0.73152,19.27069 -8.33956,29.80491 -9.28783,12.86007 -27.14432,24.5726 -47.17386,31.03997 -7.22244,12.97257 -28.66843,32.42955 -45.781702,41.35818 -8.232696,4.29533 -16.034438,4.43082 -23.120032,2.13424 0.599651,10.11327 1.21232,22.89619 1.697566,38.424 1.264021,40.44897 -17.06409,44.24096 -14.536049,31.60067 2.294969,-11.4749 8.232298,-20.47653 1.662933,-75.86514 C 54.49825,202.78255 49.464949,197.28851 45.439023,191.92059 35.310852,178.41639 33.948804,154.55647 30.818201,139.89792 21.069972,130.06378 12.628785,125.6386 7.6625026,122.55583 -1.4902814,116.87425 7.4821891,108.48754 27.316096,122.20444 25.318439,104.52403 28.061507,78.788857 58.287321,60.650559 56.950567,52.372064 56.67712,45.193881 57.058464,41.761799 c 0.893789,-8.04427 35.752034,-60.778614 55.415736,-92.955564 16.82364,-27.529512 34.30169,-41.968039 50.75452,-24.295158 2.22318,-0.652828 4.18351,-0.835258 5.92677,-0.69143 -0.005,-4.32e-4 -0.0103,-0.0011 -0.0155,-0.0016 8.45876,-65.485487 146.02923,-130.832907 286.47348,-130.952727 z m -286.0425,130.995618 c 0.0193,0.0022 0.0386,0.0044 0.0579,0.0067 -0.0192,-0.0023 -0.0386,-0.0045 -0.0579,-0.0067 z"
       id="path922"
       inkscape:connector-curvature="0" />
  </g>
</svg>
