<?xml version="1.0" encoding="UTF-8" standalone="no"?>
<!-- Created with Inkscape (http://www.inkscape.org/) -->

<svg
   width="60.956707mm"
   height="36.841553mm"
   viewBox="0 0 60.956709 36.841553"
   version="1.1"
   id="svg1"
   xml:space="preserve"
   inkscape:version="1.4 (86a8ad7, 2024-10-11)"
   sodipodi:docname="mosquito-side.svg"
   xmlns:inkscape="http://www.inkscape.org/namespaces/inkscape"
   xmlns:sodipodi="http://sodipodi.sourceforge.net/DTD/sodipodi-0.dtd"
   xmlns="http://www.w3.org/2000/svg"
   xmlns:svg="http://www.w3.org/2000/svg"><sodipodi:namedview
     id="namedview1"
     pagecolor="#505050"
     bordercolor="#ffffff"
     borderopacity="1"
     inkscape:showpageshadow="0"
     inkscape:pageopacity="0"
     inkscape:pagecheckerboard="1"
     inkscape:deskcolor="#505050"
     inkscape:document-units="mm"
     showguides="true"
     inkscape:zoom="2.9606624"
     inkscape:cx="119.9056"
     inkscape:cy="75.489862"
     inkscape:window-width="3440"
     inkscape:window-height="1377"
     inkscape:window-x="-8"
     inkscape:window-y="-8"
     inkscape:window-maximized="1"
     inkscape:current-layer="layer1" /><defs
     id="defs1" /><g
     inkscape:label="Layer 1"
     inkscape:groupmode="layer"
     id="layer1"
     transform="translate(-73.380181,-155.92403)"><path
       id="path1"
       style="fill:#f5f5f5;stroke-width:4.43399;stroke-opacity:0.268839;paint-order:markers stroke fill"
       d="m 107.06584,155.92597 c -0.70688,-0.0431 -1.96947,0.62183 -3.51244,3.14503 -1.86178,3.04456 -4.622233,6.54328 -8.708,11.87834 -0.220257,-0.0398 -0.450103,-0.0701 -0.700215,-0.077 -0.484798,-0.0133 -1.025053,0.0421 -1.617473,0.19223 -2.369683,0.60032 -4.502138,2.65391 -5.134053,3.74396 -0.631915,1.09005 -0.08732,1.76934 0.465604,2.18798 0.552927,0.41865 0.300541,0.31627 0.340031,0.70332 0.03949,0.38705 -0.19779,0.39459 -0.979785,0.32349 -0.781995,-0.0711 -1.19849,-0.0344 -1.583882,0.21136 -0.385393,0.24576 -0.670214,0.80407 -0.580844,1.35702 0.04431,0.27418 0.06858,0.38416 0.06356,0.43098 -0.358058,-0.11025 -0.37806,-0.45118 -0.519348,-0.46819 -0.144636,-0.017 -0.05471,0.44115 -0.141076,0.37724 -0.08636,-0.0639 -0.371828,-0.608 -0.476974,-0.59479 -0.105152,0.0132 -0.228312,0.19559 -0.06253,0.43821 0.165789,0.24263 -0.162552,0.1521 -0.295073,-0.13746 -0.132524,-0.28953 -0.276157,-0.0717 -0.241845,0.11627 0.03431,0.18795 -0.186983,0.12648 -0.248047,-0.10438 -0.06107,-0.23086 -0.09688,-0.36264 -0.409794,-0.47284 -0.312916,-0.11024 -0.177091,0.10677 0.03204,0.29766 0.209131,0.1909 0.03106,0.30434 -0.07545,0.25011 -0.106506,-0.0543 -0.09204,-0.33396 -0.218591,-0.23616 -0.12656,0.0977 -0.152597,-0.13744 -0.341581,-0.33797 -0.188985,-0.20054 -0.436955,-0.30478 -0.327629,0.0269 0.109335,0.33162 0.145456,0.41988 0.01705,0.33279 -0.12844,-0.0871 0.01873,-0.52931 -0.222725,-0.58084 -0.241464,-0.0515 0.08134,0.3637 -0.01499,0.447 -0.09633,0.0833 -0.06849,-0.23376 -0.269751,-0.447 -0.201259,-0.21324 0.126339,0.37934 0.04134,0.38292 -0.08502,0.003 -0.230809,-0.55842 -0.414445,-0.63148 -0.183599,-0.0732 0.117325,0.452 -5.17e-4,0.47749 -0.117851,0.0255 -0.238106,-0.25134 -0.321944,-0.46509 -0.08383,-0.21377 -0.274451,-0.31451 -0.236678,-0.18397 0.03777,0.13053 0.23959,0.62828 0.128674,0.53898 -0.11091,-0.0893 -0.285289,-0.14223 -0.337963,-0.27801 -0.05267,-0.1358 -0.145477,0.033 -0.224793,-0.003 -0.0793,-0.0363 -0.03248,-0.43038 -0.133325,-0.52451 -0.100835,-0.0941 -0.006,0.49197 -0.169499,0.40927 -0.163486,-0.0827 -0.200426,-0.26316 -0.357084,-0.60306 -0.156656,-0.33989 -0.358522,-0.36101 -0.311092,-0.21032 0.04744,0.15069 0.302137,0.59249 0.162781,0.56017 -0.139356,-0.0324 -0.365724,-0.53097 -0.437183,-0.58963 -0.07146,-0.0587 0.03663,0.3577 0.06305,0.46767 0.02643,0.10992 -0.254577,-0.21955 -0.351399,-0.44907 -0.09683,-0.22951 -0.16801,0.0234 -0.126091,0.15658 0.04192,0.1332 -0.04936,-0.0113 -0.176733,-0.20412 -0.12747,-0.19294 -0.183699,5.9e-4 -0.160714,0.10335 0.02299,0.10287 -0.206929,-0.0847 -0.220658,-0.21394 -0.01371,-0.1292 -0.20932,-0.60056 -0.231511,-0.43666 -0.02221,0.16392 0.02981,0.5376 -0.09922,0.33228 -0.129027,-0.20533 -0.09358,-0.62553 -0.214974,-0.54984 -0.121401,0.0757 0.04137,0.38784 -0.05064,0.39688 -0.09201,0.009 -0.234163,-0.15944 -0.251665,-0.37879 -0.01751,-0.21933 -0.172648,-0.35105 -0.24908,-0.21808 -0.07644,0.13298 0.02242,0.35755 -0.07493,0.26407 -0.09734,-0.0935 -0.0052,-0.52342 -0.190686,-0.41703 -0.185507,0.10639 -0.225638,0.069 -0.221175,-0.19585 0.0045,-0.2649 -0.22263,0.11084 -0.300757,0.03 -0.07812,-0.0808 -0.05151,-0.30812 -0.171049,-0.23771 -0.119547,0.0705 -0.07146,-0.14942 -0.232544,-0.12919 -0.161089,0.0202 0.09948,-0.13082 -0.0057,-0.28629 -0.105137,-0.15545 -0.300576,0.0121 -0.342098,-0.0382 -0.04156,-0.0501 -0.02983,-0.23511 -0.131775,-0.2651 -0.10209,-0.0296 -0.109722,0.2275 -0.208256,0.20464 -0.09854,-0.0229 -0.32151,-0.0124 -0.178284,0.0853 0.143196,0.0979 0.0032,0.14311 -0.177767,0.0853 -0.181115,-0.0574 -0.236629,0.10027 0.05994,0.21652 0.296573,0.11629 0.67425,0.0187 0.610815,0.11473 -0.06346,0.0961 -0.592087,-0.0845 -0.51263,0.12712 0.07947,0.21154 0.497816,0.0155 0.638204,0.0708 0.140255,0.0557 -0.378224,0.11566 -0.343131,0.23461 0.03509,0.11895 0.304424,-0.0229 0.542085,0.0253 0.237668,0.0481 0.150435,0.0763 -0.06356,0.19637 -0.214005,0.12007 -0.08376,0.27263 0.02532,0.29921 0.10909,0.0265 0.323095,-0.2117 0.532267,-0.14987 0.20918,0.0618 0.297659,0.0633 -0.04806,0.13695 -0.345708,0.0737 -0.323318,0.21178 -0.198438,0.24391 0.124889,0.0321 0.601167,-0.24451 0.727605,-0.19999 0.126437,0.0445 -0.508051,0.24842 -0.377238,0.34778 0.130808,0.0994 0.684523,-0.24541 0.780314,-0.16433 0.09578,0.0812 -0.314231,0.0849 -0.233578,0.22583 0.08065,0.14091 0.274785,-0.057 0.415479,-0.0191 0.140692,0.0376 -0.224209,0.11614 -0.207739,0.18707 0.01649,0.0709 0.316208,-0.10761 0.471805,-0.0114 0.155597,0.0963 -0.439371,0.136 -0.255281,0.21859 0.18411,0.0826 0.206466,0.0541 0.441317,0.0599 0.234848,0.006 0.589677,0.006 0.439766,0.0956 -0.149892,0.0893 -0.466843,0.0487 -0.324528,0.19947 0.142331,0.15073 0.479038,-0.0324 0.594279,-0.0568 0.115227,-0.0246 0.456192,-0.0171 0.244946,0.045 -0.211258,0.0617 -0.702289,0.1435 -0.75861,0.23616 -0.05632,0.0927 0.113838,0.16413 0.376205,0.10852 0.262383,-0.0557 0.33137,-0.26797 0.56844,-0.18448 0.237069,0.0835 0.253346,0.15048 0.214974,0.22582 -0.03837,0.0754 -0.484467,0.0306 -0.404109,0.18914 0.08036,0.15856 0.313253,0.11987 0.611849,0.0119 0.298596,-0.10804 0.731867,-0.056 0.562756,0.0207 -0.169106,0.0766 -0.730276,0.13992 -0.596346,0.26406 0.133932,0.12413 0.648615,-0.22777 0.778764,-0.19378 0.130162,0.0339 -0.507784,0.26533 -0.429948,0.3638 0.07784,0.0985 0.586913,-0.25527 0.715202,-0.21601 0.12843,0.0388 -0.457351,0.32441 -0.266134,0.40359 0.191208,0.0792 0.512431,-0.22818 0.66766,-0.21497 0.155231,0.0132 0.727875,-0.0988 0.545186,0.0501 -0.182691,0.14884 -0.724513,0.20687 -0.620634,0.33227 0.103871,0.12542 0.432134,-0.0671 0.582393,-0.0734 0.150264,-0.007 -0.648604,0.22772 -0.534851,0.29146 0.113732,0.0638 0.859206,-0.33726 1.02371,-0.35037 0.164495,-0.0131 -0.33592,0.21354 -0.272334,0.31885 0.06358,0.10534 0.567089,-0.11434 0.687296,-0.11938 0.12021,-0.005 -0.156797,0.29425 -0.01395,0.30903 0.142827,0.0149 0.205186,-0.12887 0.373104,-0.13488 0.167898,-0.006 0.681261,-0.068 0.273369,0.13178 -0.407895,0.19981 -0.277223,0.26771 -0.215491,0.37827 0.06172,0.11057 0.457949,-0.12044 0.713135,-0.27337 0.255185,-0.15292 0.123196,-0.23579 0.272334,-0.0708 0.149138,0.16503 0.192835,0.17462 0.343649,0.032 0.15078,-0.14232 0.159739,-0.2517 0.235128,-0.11265 0.06398,0.11803 -0.168647,0.30593 -0.146762,0.4222 -0.03581,0.0897 -0.01617,0.23174 0.151929,0.35501 0.236966,0.17378 -0.102323,0.19756 -0.323494,-0.0315 -0.22117,-0.22907 -0.28444,0.0238 -0.189653,0.18965 0.09479,0.16588 -0.134435,0.18146 -0.268717,-0.016 -0.134283,-0.19748 -0.205163,-0.32401 -0.536918,-0.32401 -0.331756,0 -0.268935,0.18965 -0.0083,0.30024 0.260665,0.11059 0.260594,0.26074 0.142111,0.24495 -0.118483,-0.0158 -0.197334,-0.28414 -0.284221,-0.14986 -0.08689,0.13428 -0.189732,-0.0793 -0.434599,-0.20568 -0.244866,-0.12638 -0.512993,-0.14211 -0.299723,0.13436 0.213273,0.27646 0.276171,0.34749 0.126091,0.308 -0.150079,-0.0395 -0.157694,-0.50548 -0.40256,-0.47388 -0.244867,0.0316 0.197032,0.31575 0.133842,0.42633 -0.06319,0.11059 -0.141894,-0.19748 -0.402559,-0.33176 -0.260665,-0.13429 0.24487,0.31618 0.165881,0.34778 -0.07899,0.0316 -0.403006,-0.45047 -0.60048,-0.45837 -0.197472,-0.008 0.260817,0.38743 0.15813,0.45062 -0.102687,0.0632 -0.308291,-0.15799 -0.45837,-0.33176 -0.15008,-0.17378 -0.36321,-0.20567 -0.284221,-0.0951 0.07899,0.11058 0.434522,0.51352 0.300241,0.46613 -0.134281,-0.0474 -0.316041,-0.0393 -0.410828,-0.14987 -0.09479,-0.11059 -0.126538,0.0787 -0.213424,0.0708 -0.08689,-0.008 -0.173342,-0.39481 -0.299723,-0.4501 -0.126383,-0.0553 0.157917,0.46604 -0.02377,0.44235 -0.181675,-0.0237 -0.27677,-0.18154 -0.537435,-0.4501 -0.260665,-0.26857 -0.458073,-0.22146 -0.363285,-0.0951 0.09479,0.12638 0.481695,0.45808 0.339514,0.47388 -0.142181,0.0158 -0.521344,-0.37872 -0.608232,-0.41032 -0.08689,-0.0316 0.153534,0.32518 0.214974,0.42013 0.06144,0.0949 -0.313029,-0.12263 -0.480591,-0.30695 -0.167562,-0.18432 -0.150955,0.0779 -0.06718,0.18965 0.08378,0.11171 -0.05029,0.006 -0.234611,-0.13384 -0.184318,-0.13964 -0.17316,0.0615 -0.117306,0.15089 0.05585,0.0894 -0.223198,-0.0114 -0.279052,-0.12867 -0.05585,-0.1173 -0.396799,-0.49735 -0.363286,-0.33538 0.03351,0.16198 0.206953,0.49755 0.01705,0.34675 -0.189903,-0.15081 -0.296141,-0.55872 -0.385507,-0.44701 -0.08937,0.1117 0.167498,0.35159 0.08372,0.39068 -0.08378,0.0391 -0.273401,-0.0723 -0.362768,-0.27337 -0.08937,-0.20107 -0.279548,-0.27379 -0.307475,-0.12299 -0.02793,0.15081 0.139927,0.32974 0.01705,0.27389 -0.122879,-0.0559 -0.178693,-0.49168 -0.318327,-0.3297 -0.139635,0.16197 -0.190104,0.13972 -0.273885,-0.11162 -0.08378,-0.25134 -0.173348,0.17843 -0.273885,0.12816 -0.100537,-0.0503 -0.150412,-0.27356 -0.239779,-0.16744 -0.08937,0.10612 -0.117296,-0.11703 -0.262516,-0.0444 -0.14522,0.0726 0.05004,-0.15649 -0.100769,-0.2682 -0.150805,-0.11171 -0.27901,0.11154 -0.334863,0.078 -0.05585,-0.0335 -0.106268,-0.21228 -0.21239,-0.2067 -0.106123,0.006 -0.02814,0.25134 -0.128675,0.26251 -0.100537,0.0112 -0.307088,0.0949 -0.139526,0.13953 0.167562,0.0447 0.05038,0.13445 -0.139526,0.14004 -0.189903,0.006 -0.19021,0.1728 0.128157,0.18397 0.318367,0.0112 0.64236,-0.20623 0.614433,-0.0946 -0.02793,0.11171 -0.586537,0.11728 -0.441317,0.29043 0.14522,0.17314 0.474997,-0.1508 0.625802,-0.14522 0.150805,0.006 -0.31859,0.23433 -0.24598,0.33487 0.07261,0.10054 0.279693,-0.12307 0.519865,-0.15658 0.240172,-0.0335 0.16713,0.0223 0.0052,0.2067 -0.161977,0.18432 0.01128,0.28506 0.12299,0.27389 0.111708,-0.0112 0.234855,-0.30716 0.452685,-0.31833 0.21783,-0.0112 0.301611,-0.0391 0,0.14521 -0.301611,0.18431 -0.234917,0.30728 -0.106453,0.29611 0.128465,-0.0112 0.486068,-0.43047 0.620117,-0.43047 0.134049,0 -0.295918,0.28511 -0.139527,0.33538 0.156391,0.0503 0.463551,-0.34078 0.580844,-0.2961 0.117293,0.0447 -0.26809,0.1843 -0.145211,0.29042 0.122878,0.10612 0.240286,-0.14489 0.385506,-0.15606 0.14522,-0.0112 -0.173456,0.18402 -0.134359,0.24546 0.0391,0.0614 0.262585,-0.20653 0.441317,-0.16743 0.178733,0.0391 -0.614486,0.50259 -0.413412,0.51935 0.201074,0.0167 0.458197,-0.24572 0.681613,-0.31833 0.223416,-0.0726 0.558709,-0.18991 0.447001,-0.0558 -0.111708,0.13405 -0.424614,0.20116 -0.240296,0.29611 0.184318,0.0949 0.441032,-0.19023 0.541569,-0.25167 0.100537,-0.0614 0.424712,-0.16722 0.24598,-0.0388 -0.178733,0.12847 -0.614312,0.36827 -0.636653,0.47439 -0.02234,0.10612 0.161672,0.11737 0.390673,-0.0222 0.229001,-0.13964 0.223565,-0.36277 0.474907,-0.36277 0.251343,0 0.592014,0.0278 0.580843,0.11163 -0.01117,0.0838 -0.446791,0.18976 -0.318327,0.31264 0.128464,0.12287 0.21778,0.0781 0.463538,-0.12299 0.245758,-0.20108 0.485965,-0.33466 0.351916,-0.20619 -0.134048,0.12846 -0.642468,0.37387 -0.474906,0.44648 0.167562,0.0726 0.536194,-0.43014 0.670243,-0.44131 0.134051,-0.0112 -0.39086,0.41925 -0.284737,0.48627 0.106121,0.067 0.469016,-0.43574 0.603064,-0.44132 0.134052,-0.006 -0.323967,0.45806 -0.117306,0.46923 0.206658,0.0112 0.407819,-0.38568 0.558623,-0.42478 0.150807,-0.0391 0.653595,-0.33492 0.530717,-0.13385 -0.12288,0.20107 -0.614543,0.43557 -0.474907,0.51935 0.139634,0.0838 0.385397,-0.20666 0.525033,-0.26251 0.139634,-0.0559 -0.536193,0.43034 -0.407727,0.45268 0.128463,0.0224 0.698238,-0.60322 0.849043,-0.67024 0.150804,-0.067 -0.245848,0.31247 -0.150895,0.39067 0.09495,0.0782 0.497041,-0.29587 0.608749,-0.34055 0.111707,-0.0447 -0.05024,0.32962 0.0894,0.29611 0.139637,-0.0335 0.151085,-0.19022 0.307475,-0.25166 0.15639,-0.0614 0.620158,-0.29035 0.30179,0.0336 -0.318368,0.32395 -0.480457,0.34616 -0.385506,0.42994 0.09495,0.0838 0.58059,-0.18389 0.770495,-0.41289 0.189902,-0.229 0.156427,-0.34643 0.351917,-0.2403 0.195487,0.10612 0.240426,0.10062 0.33538,-0.0837 0.09495,-0.18431 0.06667,-0.29061 0.183968,-0.18449 0.117292,0.10612 -0.122917,0.44107 0.05581,0.48576 0.178734,0.0447 0.324342,-0.16721 0.430464,-0.30127 0.106122,-0.13404 0.02228,-0.33549 0.201022,-0.34107 0.178731,-0.006 -0.173125,0.30739 -0.02791,0.4191 0.145219,0.11171 0.368553,-0.0894 0.374138,-0.29042 0.0047,-0.16789 -0.0082,-0.19707 0.124023,-0.24391 0.09514,0.15573 0.266424,0.23856 0.452686,0.17311 0.292259,-0.10268 0.419016,0.22915 0.229443,0.18965 -0.189574,-0.0395 -0.252773,0.0238 -0.331763,0.15813 -0.07899,0.13429 0.323491,0.41061 0.268201,0.45011 -0.05529,0.0395 -0.394823,-0.0631 -1.003039,-0.0631 -0.608219,0 -0.782163,0.10247 -0.987537,0.48162 -0.205373,0.37915 0.576645,0.49772 1.050582,0.24495 0.473935,-0.25276 0.774113,-0.27647 0.774113,-0.27647 0,0 -3.412231,3.1675 -4.960421,4.45503 -1.548192,1.28753 -3.530551,3.04907 -4.304647,3.87056 -0.774096,0.82149 -1.145591,1.38249 -1.066601,1.48518 0.07899,0.10269 0.402799,-0.30011 1.247985,-1.24798 0.845186,-0.94788 1.800856,-1.69824 2.053622,-1.91151 0.03949,0.10268 0.229003,0.16573 0.363285,0.11833 0.134282,-0.0474 2.598897,-2.26706 3.286105,-2.87527 0.687208,-0.60822 0.939852,-0.69505 1.279508,-0.86093 0.339654,-0.16588 1.904066,-0.4264 2.385901,-0.5054 0.481835,-0.079 0.75832,-0.19748 0.8847,-0.44235 0.126387,-0.24487 0.118195,-1.97492 0.181385,-2.09341 0.06319,-0.11848 0.679191,-0.22915 1.334802,-0.46612 0,0 -0.0869,0.095 -0.497644,1.12189 -0.410745,1.02687 -0.473651,1.27922 -0.568441,1.4056 -0.09479,0.12639 -3.617695,2.92257 -5.813599,4.59714 -2.195903,1.67458 -5.031668,3.14429 -5.395019,3.34967 -0.363348,0.20537 -0.465948,0.4802 0.02377,0.4842 0.599944,0.005 5.573523,-3.0372 11.563635,-8.16229 h 5.17e-4 c 0.597561,-0.19386 0.608304,-0.37608 0.898653,-1.31413 0.290441,-0.93835 1.753898,-3.9765 1.753898,-3.9765 0,0 0.334804,0.15598 0.681096,0.6475 0.346295,0.49151 0.480551,0.48042 0.536401,0.70384 0.05585,0.22341 0.513738,1.47489 1.217497,1.27382 0.70376,-0.20108 0.33538,-1.17305 0.33538,-1.17305 0,0 0.234109,0.0108 0.613916,-0.045 0,0 -0.145211,0.24595 -0.145211,0.68161 0,0.43566 0.648262,0.5136 1.273824,0.18965 0.625565,-0.32395 0.536233,-0.48016 0.614433,-0.42426 0.0782,0.0558 0.189505,0.22357 0.647506,0.0672 0.458002,-0.15639 0.670434,-0.80424 2.022098,-2.73679 1.050054,0.93835 3.128046,1.93238 3.831806,2.08877 0.40215,1.68679 1.11676,5.22774 1.35134,5.81979 0.23459,0.59205 0.33506,0.29043 0.49145,0.37983 0.15639,0.0894 1.6868,2.14489 6.64662,3.99924 4.95983,1.85436 10.66846,1.98075 11.50627,1.98075 0.83786,0 1.04988,-0.23814 0.89349,-0.34985 -0.15639,-0.11171 -0.31266,-0.12299 -2.41277,-0.21239 -2.1001,-0.0894 -5.52939,-0.49156 -9.11521,-1.66449 -3.58582,-1.17294 -6.76986,-3.80913 -7.2502,-4.2783 -0.48035,-0.46918 -1.3924,-5.23519 -1.2976,-5.40897 0.41075,0.57663 1.25606,0.55287 2.67787,0.86093 1.42181,0.30805 1.86391,0.0157 2.17197,-0.0791 0.30806,-0.0948 0.86891,0.10262 1.49293,-0.0238 0.38704,0.41075 0.91638,1.01869 1.18494,0.95549 4.07586,0.7899 7.63052,1.15363 13.00179,0.39533 5.37128,-0.7583 10.56053,-2.4488 11.03447,-2.62258 0.47393,-0.17377 0.3948,-0.67933 -0.10284,-0.60823 -0.49763,0.0711 -2.37737,0.76616 -6.79287,1.91151 -4.41551,1.14533 -6.89583,1.16131 -9.68416,1.20871 -2.78832,0.0474 -6.49301,-0.71866 -6.94325,-0.78186 -0.45024,-0.0632 -0.3314,-0.16589 -0.65525,-0.55294 1.50079,0.16588 2.45626,0.0865 2.9223,0.0233 0.46594,-0.0632 0.19741,-0.34734 0.47387,-0.37104 0.27646,-0.0237 1.36679,0.0314 2.28307,-0.0713 0.91628,-0.10268 0.46614,-0.41864 1.18494,-0.49764 0.7188,-0.079 1.73752,-0.5291 2.00608,-0.83716 0.26856,-0.30816 0.37939,-8e-5 1.12189,-0.30024 0.7425,-0.30016 0.82898,-0.65557 0.74208,-1.41387 -0.0869,-0.7583 -0.57613,-0.8689 -1.21595,-1.05058 -0.63981,-0.18168 -1.88827,-0.26037 -2.49649,-0.12609 -0.60822,0.13428 -0.49757,0.10239 -1.0821,-0.20567 -0.58452,-0.30806 -1.34286,-0.53722 -2.15646,-0.6873 -0.81359,-0.15008 -0.26844,-0.15792 -1.16892,-0.58446 -0.90048,-0.42653 -1.90334,-0.41835 -2.70113,-0.51315 -0.45814,-0.41075 -0.60072,-0.45821 -1.44591,-0.52141 -0.84518,-0.0632 -1.69034,0.0711 -2.07739,0.0791 -0.38705,0.008 -0.26864,-0.14218 -0.68729,-0.38705 -0.41864,-0.24486 -1.1293,-0.25269 -2.44843,-0.30799 0,0 -1.22415,-1.71405 -1.42162,-1.96681 -0.19748,-0.25277 -0.34787,-0.28428 -0.53744,-0.14211 -0.18958,0.14219 -0.83716,0.96325 -0.83716,0.96325 0,0 -0.10269,-0.23652 -0.27646,-0.29972 -0.173791,-0.0632 -0.378958,0.33169 -0.979276,0.86092 -1.429708,0.25277 -2.267045,0.52917 -2.267045,0.52917 0,0 0.663144,-0.78993 0.157613,-1.54822 -0.105581,-0.15838 -0.260316,-0.32263 -0.453719,-0.47956 0.456973,-0.17585 1.076893,-0.28744 2.469617,-0.63562 2.59162,-0.6479 5.94283,-3.17261 8.42274,-7.06004 2.47995,-3.88744 0.6256,-7.52926 0.0894,-7.90907 -0.10053,-0.0712 -0.23426,-0.11873 -0.39739,-0.12868 z m -5.58415,16.48892 c 0.001,10e-6 0.002,1.4e-4 0.004,5.1e-4 0.0711,0.0237 0.44235,0.82941 0.44235,0.82941 0,0 -0.45042,-0.095 -1.04284,-0.12661 0,0 0.51302,-0.70391 0.59687,-0.70331 z m -17.059426,7.73958 c 0.01626,-9.5e-4 0.03502,0.001 0.05633,0.008 0.168491,0.053 -0.254362,0.22801 -0.168465,0.38033 0.01793,0.12701 0.104134,0.30628 0.03411,0.28474 -0.05971,-0.0184 -0.236212,-0.16667 -0.39274,-0.27905 0.08034,-0.037 0.158865,-0.09 0.224275,-0.13126 0.126542,-0.0798 0.132674,-0.25641 0.246497,-0.26303 z m 0.452685,0.061 c -0.01444,0.0836 -0.01643,0.20417 -0.03824,0.38137 -0.0038,0.0311 0.007,0.055 0.0078,0.0842 -0.09517,-0.0214 -0.16989,-0.0648 -0.23306,-0.11007 0.06605,-0.0397 0.123403,-0.10047 0.150895,-0.17208 0.04604,-0.11995 0.05064,-0.16746 0.112654,-0.18345 z m 1.210262,1.81332 c 0.0391,0.003 0.06966,0.0401 0.06408,0.13229 -0.02793,1.08915 -0.01666,1.93815 -0.111621,1.98283 -0.09495,0.0447 -1.558203,0.35727 -2.150256,0.51366 -0.59205,0.15639 -0.720491,0.18423 -0.698149,0.11162 0.02233,-0.0726 1.066431,-0.9101 1.55236,-1.46864 0.485931,-0.55854 1.17301,-1.12846 1.228866,-1.20665 0.02792,-0.0391 0.07562,-0.0686 0.114721,-0.0651 z" /></g></svg>
