<?xml version="1.0" encoding="UTF-8" standalone="no"?>
<!-- Created with Inkscape (http://www.inkscape.org/) -->

<svg
   xmlns:dc="http://purl.org/dc/elements/1.1/"
   xmlns:cc="http://creativecommons.org/ns#"
   xmlns:rdf="http://www.w3.org/1999/02/22-rdf-syntax-ns#"
   xmlns:svg="http://www.w3.org/2000/svg"
   xmlns="http://www.w3.org/2000/svg"
   xmlns:sodipodi="http://sodipodi.sourceforge.net/DTD/sodipodi-0.dtd"
   xmlns:inkscape="http://www.inkscape.org/namespaces/inkscape"
   width="615.07025mm"
   height="223.22028mm"
   viewBox="0 0 615.07025 223.22028"
   version="1.1"
   id="svg8"
   inkscape:version="0.92.4 (5da689c313, 2019-01-14)"
   sodipodi:docname="Lego_Car_01-side.svg">
  <defs
     id="defs2" />
  <sodipodi:namedview
     id="base"
     pagecolor="#ffffff"
     bordercolor="#666666"
     borderopacity="1.0"
     inkscape:pageopacity="0.0"
     inkscape:pageshadow="2"
     inkscape:zoom="0.35"
     inkscape:cx="1363.2373"
     inkscape:cy="484.26552"
     inkscape:document-units="mm"
     inkscape:current-layer="layer1"
     showgrid="false"
     fit-margin-top="0"
     fit-margin-left="0"
     fit-margin-right="0"
     fit-margin-bottom="0"
     inkscape:pagecheckerboard="true"
     inkscape:window-width="1600"
     inkscape:window-height="837"
     inkscape:window-x="-8"
     inkscape:window-y="-8"
     inkscape:window-maximized="1" />
  <metadata
     id="metadata5">
    <rdf:RDF>
      <cc:Work
         rdf:about="">
        <dc:format>image/svg+xml</dc:format>
        <dc:type
           rdf:resource="http://purl.org/dc/dcmitype/StillImage" />
        <dc:title />
      </cc:Work>
    </rdf:RDF>
  </metadata>
  <g
     inkscape:label="Layer 1"
     inkscape:groupmode="layer"
     id="layer1"
     transform="translate(492.83275,-77.17226)">
    <path
       style="fill:#555555;fill-opacity:1;stroke-width:0.35277778"
       d="m -373.23888,300.0366 c -7.33793,-0.82884 -16.39003,-3.78779 -22.57778,-7.38024 -10.24539,-5.9482 -18.20371,-14.43879 -23.49044,-25.06151 -2.68594,-5.39692 -4.63312,-11.46953 -5.29027,-16.4986 -0.26924,-2.06049 -0.22383,-2.02362 -2.87501,-2.3341 l -1.84601,-0.21619 -0.0943,8.91898 -0.0943,8.91899 -30.86805,0.097 c -16.97743,0.0534 -31.22573,0.0105 -31.66288,-0.0952 l -0.79483,-0.19219 0.0382,-22.30621 c 0.028,-16.32702 0.14648,-22.37567 0.44205,-22.56538 0.22209,-0.14255 4.2535,-0.26162 8.95867,-0.26459 l 8.55486,-0.005 v -4.56529 c 0,-2.66299 0.147,-4.65614 0.35278,-4.78332 0.4659,-0.28794 0.4659,-8.17872 0,-8.46666 -0.46875,-0.2897 -0.46875,-9.23531 0,-9.525 0.472,-0.29172 0.46168,-8.04027 -0.0113,-8.51328 -0.22252,-0.22252 -0.3254,-2.06766 -0.26458,-4.74487 l 0.0995,-4.38074 8.73125,-0.0944 8.73125,-0.0944 0.0109,-4.49175 0.0109,-4.49176 2.72315,-2.32308 c 6.94153,-5.92173 20.9559,-14.14391 33.75992,-19.80683 9.71561,-4.29699 25.8799,-9.72774 35.99101,-12.09199 5.55265,-1.29835 18.45414,-3.79231 26.43108,-5.10934 15.57978,-2.57228 36.33762,-5.26168 36.82857,-4.77153 0.13219,0.13198 0.31972,6.07189 0.41673,13.19981 l 0.17639,12.95985 9.87778,-6.92275 c 5.43278,-3.80752 17.02153,-11.90748 25.75278,-17.99993 8.73125,-6.09245 24.36812,-17.03751 34.74861,-24.322357 l 18.87361,-13.245182 5.29166,-0.176389 5.29167,-0.176389 0.0527,-3.97456 c 0.029,-2.186009 0.14385,-4.212132 0.25527,-4.5025 0.17546,-0.457221 1.84589,-0.51551 12.47093,-0.435162 l 12.26836,0.09278 0.17639,4.409723 0.17639,4.409722 5.02708,0.09788 5.02709,0.09788 V 121.7339 c 0,23.23524 -0.12139,35.49868 -0.35278,35.64169 -0.19403,0.11992 -0.35278,0.36741 -0.35278,0.54999 0,0.20405 8.90366,0.33196 23.10695,0.33196 h 23.10694 l 0.0406,2.20486 c 0.0339,1.84584 0.0804,2.00186 0.28487,0.95815 0.64276,-3.28037 -0.25443,-3.16301 24.18129,-3.16301 h 21.0016 v 4.53409 4.53409 l 14.72847,-8.81615 c 26.48811,-15.85521 28.77778,-17.18536 29.58253,-17.18536 0.55637,0 0.82939,-0.23861 0.9082,-0.79375 l 0.11274,-0.79375 h 68.08611 68.08611 v 8.11388 8.11389 l -0.97014,0.11163 c -1.12592,0.12955 -1.43164,1.47587 -0.33514,1.47587 1.40064,0 1.48167,0.52469 1.48167,9.59556 v 8.74889 h 8.64306 8.64305 v 22.57172 22.57172 l 8.90764,0.0942 8.90764,0.0943 v 22.57778 22.57778 H 90.6639 59.09029 l -0.0943,-8.91899 -0.0943,-8.91898 -1.84598,0.21619 c -2.65,0.31034 -2.60227,0.27124 -2.84738,2.33302 -0.58296,4.90352 -2.58558,11.02283 -5.52048,16.86881 -6.32706,12.60268 -16.48943,22.15567 -29.46149,27.69483 -19.33856952,8.25771 -41.85041,5.46352 -58.71277,-7.28747 -2.67994,-2.02655 -7.3297,-6.4562 -9.62924,-9.17353 -4.09117,-4.83434 -8.7146,-13.18162 -10.71231,-19.34027 -0.53495,-1.64924 -1.00905,-3.04939 -1.0535,-3.11146 -0.0445,-0.0621 -1.35834,0.73169 -2.91973,1.76389 l -2.83888,1.87674 -0.10569,2.99861 -0.10565,2.99861 -4.51785,0.0989 -4.51785,0.0989 -7.12248,4.75182 -7.12244,4.75181 h -95.0763 -95.07631 l -7.12248,-4.75181 -7.12247,-4.75182 -4.51784,-0.0989 -4.51784,-0.0989 -0.10071,-3.00262 -0.1007,-3.00261 -2.88971,-1.86298 -2.88972,-1.86297 -1.13418,3.42954 c -4.83453,14.61871 -15.58498,27.06334 -29.34315,33.9674 -10.20657,5.12181 -22.02114,7.25132 -33.21544,5.98691 z m 315.31449,-81.73277 c 1.43052,-3.48421 3.76502,-7.58615 6.42962,-11.29747 l 2.10587,-2.93312 v -2.64458 -2.64459 l -1.39975,1.6173 c -3.16117,3.65244 -7.00888,9.59259 -9.14894,14.12422 -0.8878,1.87995 -2.50408,5.9645 -2.50408,6.32815 0,0.0242 0.7651,0.0724 1.70028,0.10704 l 1.70025,0.063 z"
       id="path826"
       inkscape:connector-curvature="0"
       sodipodi:nodetypes="cssccccccccccccsccccccccccsscscscssscccccscccccsssscccscccsscccccccssccccccccccccccccsccccccccccccccccccccccssccccccccsccc" />
  </g>
</svg>
