<?xml version="1.0" encoding="UTF-8" standalone="no"?>
<!-- Created with Inkscape (http://www.inkscape.org/) -->

<svg
   xmlns:dc="http://purl.org/dc/elements/1.1/"
   xmlns:cc="http://creativecommons.org/ns#"
   xmlns:rdf="http://www.w3.org/1999/02/22-rdf-syntax-ns#"
   xmlns:svg="http://www.w3.org/2000/svg"
   xmlns="http://www.w3.org/2000/svg"
   xmlns:sodipodi="http://sodipodi.sourceforge.net/DTD/sodipodi-0.dtd"
   xmlns:inkscape="http://www.inkscape.org/namespaces/inkscape"
   width="106.45965mm"
   height="106.45965mm"
   viewBox="0 0 106.45965 106.45965"
   version="1.1"
   id="svg8"
   inkscape:version="0.92.4 (5da689c313, 2019-01-14)"
   sodipodi:docname="Lego_Stud-top.svg">
  <defs
     id="defs2" />
  <sodipodi:namedview
     id="base"
     pagecolor="#ffffff"
     bordercolor="#666666"
     borderopacity="1.0"
     inkscape:pageopacity="0.0"
     inkscape:pageshadow="2"
     inkscape:zoom="0.49497475"
     inkscape:cx="-113.55264"
     inkscape:cy="97.819274"
     inkscape:document-units="mm"
     inkscape:current-layer="layer1"
     showgrid="false"
     inkscape:snap-global="false"
     inkscape:pagecheckerboard="true"
     inkscape:showpageshadow="false"
     borderlayer="true"
     fit-margin-top="0"
     fit-margin-left="0"
     fit-margin-right="0"
     fit-margin-bottom="0"
     inkscape:window-width="1600"
     inkscape:window-height="837"
     inkscape:window-x="-8"
     inkscape:window-y="-8"
     inkscape:window-maximized="1" />
  <metadata
     id="metadata5">
    <rdf:RDF>
      <cc:Work
         rdf:about="">
        <dc:format>image/svg+xml</dc:format>
        <dc:type
           rdf:resource="http://purl.org/dc/dcmitype/StillImage" />
        <dc:title></dc:title>
      </cc:Work>
    </rdf:RDF>
  </metadata>
  <g
     inkscape:label="Layer 1"
     inkscape:groupmode="layer"
     id="layer1"
     transform="translate(-52.713021,-85.981763)">
    <path
       style="opacity:1;fill:#555555;fill-opacity:1;stroke-width:0.10473087"
       d="M 105.94285,85.981763 A 53.229798,53.229798 0 0 0 52.713021,139.21159 53.229798,53.229798 0 0 0 105.94285,192.44141 53.229798,53.229798 0 0 0 159.17267,139.21159 53.229798,53.229798 0 0 0 105.94285,85.981763 Z M 100.9478,116.9561 c 5.60034,0 6.17241,0.0159 6.65954,0.18603 0.90552,0.31618 1.30018,0.89198 1.30018,1.8986 0,0.7785 -0.34572,1.39879 -0.95343,1.71152 -0.67361,0.34662 -2.00188,0.43783 -6.45387,0.44183 l -3.79408,0.004 -0.152963,0.23564 c -0.25128,0.38804 -0.859702,2.53683 -1.801958,6.3624 -1.767046,7.17423 -1.896671,7.82978 -1.584915,8.03156 0.072,0.0466 1.144358,0.10865 2.382801,0.13745 2.012492,0.0468 2.290829,0.0747 2.618444,0.26407 0.521634,0.30149 0.837671,0.97481 0.837671,1.78439 0,1.12988 -0.402881,1.83432 -1.167367,2.04018 -0.219949,0.0592 -1.579258,0.10164 -3.096968,0.0966 -1.487586,-0.005 -2.781433,0.0217 -2.875794,0.0579 -0.234936,0.0901 -0.335632,0.38111 -0.75706,2.19728 -0.200488,0.86403 -0.909349,3.78318 -1.575096,6.48642 -0.66575,2.70324 -1.210263,5.11941 -1.210263,5.3697 0,0.39697 0.0366,0.47056 0.287838,0.57723 0.19753,0.0839 1.752148,0.14077 4.948534,0.18087 4.539577,0.0569 4.671641,0.0642 5.089613,0.28783 0.777913,0.41625 1.123533,1.34332 0.889863,2.38745 -0.17148,0.76627 -0.51709,1.16176 -1.188553,1.36116 v -5.2e-4 c -0.454637,0.13505 -1.532692,0.15793 -7.192326,0.15193 -7.107434,-0.008 -7.491188,-0.033 -7.883756,-0.5178 -0.27977,-0.34549 -0.238966,-1.30639 0.115756,-2.72179 0.166012,-0.66242 1.930873,-7.77906 3.921723,-15.81454 1.990852,-8.03548 4.042492,-16.31563 4.559413,-18.40043 0.516919,-2.0848 1.017376,-3.95367 1.112076,-4.15323 0.310515,-0.6544 0.198342,-0.64389 6.964947,-0.64389 z m -24.386622,0.26458 c 1.012682,0.004 1.883942,0.61339 2.036051,1.4242 0.03853,0.20523 0.04005,0.66334 0.0036,1.01803 -0.03643,0.35469 -1.787385,7.59627 -3.891235,16.09256 -5.106879,20.6239 -4.68417,18.69178 -4.164603,19.03243 0.257178,0.16865 0.712243,0.19063 4.948534,0.23823 4.550521,0.0511 4.675714,0.0577 5.094264,0.28163 0.518184,0.27728 0.739558,0.59371 0.899168,1.2852 0.267729,1.15985 -0.302713,2.2484 -1.310513,2.50217 -0.335463,0.0845 -2.477953,0.11824 -7.211962,0.11524 -8.29509,-0.006 -7.892669,0.071 -7.880141,-1.49138 0.0062,-0.77007 0.490638,-2.81003 4.630208,-19.50217 2.542733,-10.25315 4.720624,-18.92512 4.840015,-19.27066 0.442849,-1.28167 0.964229,-1.72948 2.006597,-1.72548 z m 61.723362,0.10387 c 2.30794,0 4.23165,0.80774 5.76554,2.42104 1.99877,2.10226 2.53719,4.86987 1.68155,8.64289 -0.77308,3.40897 -4.9353,21.1041 -5.19606,22.09012 -0.74477,2.81618 -1.51936,4.45195 -2.70578,5.71541 -0.92035,0.98011 -1.98698,1.67378 -3.24321,2.10892 -0.77489,0.26842 -1.09776,0.32056 -2.16731,0.35036 -0.81977,0.0229 -1.47528,-0.0153 -1.88516,-0.11007 -3.11908,-0.72099 -5.56397,-3.25147 -6.28851,-6.50813 -0.23168,-1.04138 -0.16295,-3.08871 0.15762,-4.70668 0.25141,-1.26891 4.0715,-17.28301 4.99659,-20.94601 0.32004,-1.26724 0.69992,-2.63433 0.84388,-3.03754 1.36186,-3.81436 4.30832,-6.02031 8.04085,-6.02031 z m -19.27066,5.2e-4 c 3.73488,0.003 6.71238,2.31273 7.66362,5.94434 0.21839,0.83376 0.26869,1.27435 0.27647,2.43189 0.0108,1.61262 -0.11616,2.05661 -0.6904,2.41846 -0.71575,0.45102 -2.85128,0.0192 -3.23495,-0.65423 -0.0912,-0.16004 -0.15907,-0.79252 -0.19533,-1.81642 -0.0512,-1.44477 -0.0799,-1.62402 -0.35709,-2.23087 -0.3701,-0.81024 -1.08696,-1.48723 -1.92236,-1.81488 -0.8376,-0.32859 -2.24015,-0.32953 -3.07475,-0.002 -1.75514,0.68864 -2.36522,1.71238 -3.22667,5.40949 -0.2416,1.03683 -1.42211,5.98538 -2.6231,10.99675 -1.20099,5.01137 -2.29031,9.65323 -2.42104,10.31565 -0.31022,1.57196 -0.33606,3.46716 -0.0579,4.26485 0.52128,1.49478 2.20172,2.38582 4.01474,2.12907 1.85297,-0.26242 2.96953,-1.40813 3.73156,-3.82819 0.40469,-1.28521 2.17528,-8.91967 2.23397,-9.63248 0.0287,-0.34892 0.004,-0.70117 -0.0548,-0.78807 -0.0828,-0.12201 -0.5275,-0.18272 -1.99161,-0.27182 -1.66646,-0.10143 -1.94315,-0.14454 -2.38641,-0.37259 -0.66286,-0.34104 -0.9687,-0.86981 -0.971,-1.67896 -0.003,-1.04953 0.3787,-1.62046 1.29811,-1.94149 0.47511,-0.16588 0.97209,-0.18603 4.58318,-0.18603 3.94965,0 4.05802,0.005 4.34496,0.21962 0.45511,0.33967 0.51272,0.80181 0.25786,2.06809 -0.44934,2.2326 -2.85613,12.31501 -3.20394,13.42192 -0.66951,2.13079 -1.50942,3.59366 -2.7404,4.77284 -1.25424,1.20145 -2.802,1.9403 -4.57543,2.18384 -3.66678,0.50356 -7.00718,-1.32025 -8.23257,-4.49533 -0.79938,-2.07125 -0.84735,-4.34281 -0.1633,-7.69772 0.18573,-0.9109 4.20629,-17.72826 4.86999,-20.37033 0.8889,-3.53858 1.45922,-4.78413 2.87269,-6.2699 1.56584,-1.64595 3.65098,-2.52743 5.97586,-2.52543 z m 19.32182,4.01371 c -0.66215,-0.003 -1.34217,0.1399 -1.97197,0.44803 -1.305,0.63847 -1.94546,1.69181 -2.5709,4.22868 -0.7224,2.9301 -5.17987,21.63673 -5.36557,22.51749 -0.10525,0.49918 -0.18964,1.35008 -0.19223,1.93735 -0.004,0.96357 0.0217,1.10305 0.32659,1.74667 0.54788,1.15644 1.45351,1.98158 2.57865,2.3492 0.73784,0.24109 1.83269,0.13196 2.63292,-0.26199 1.12705,-0.55484 1.76522,-1.52755 2.35851,-3.59617 0.2529,-0.8818 4.55668,-19.12814 5.52783,-23.43578 0.36513,-1.61954 0.39342,-3.28314 0.0677,-3.9889 -0.56389,-1.2218 -1.93478,-1.93733 -3.39152,-1.94458 z"
       id="path837"
       inkscape:connector-curvature="0" />
  </g>
</svg>
