<?xml version="1.0" encoding="UTF-8" standalone="no"?>
<!-- Created with Inkscape (http://www.inkscape.org/) -->

<svg
   xmlns:dc="http://purl.org/dc/elements/1.1/"
   xmlns:cc="http://creativecommons.org/ns#"
   xmlns:rdf="http://www.w3.org/1999/02/22-rdf-syntax-ns#"
   xmlns:svg="http://www.w3.org/2000/svg"
   xmlns="http://www.w3.org/2000/svg"
   xmlns:sodipodi="http://sodipodi.sourceforge.net/DTD/sodipodi-0.dtd"
   xmlns:inkscape="http://www.inkscape.org/namespaces/inkscape"
   width="567.37848mm"
   height="244.8279mm"
   viewBox="0 0 567.37848 244.8279"
   version="1.1"
   id="svg8"
   inkscape:version="0.92.4 (5da689c313, 2019-01-14)"
   sodipodi:docname="Lego_Car_01-top.svg">
  <defs
     id="defs2" />
  <sodipodi:namedview
     id="base"
     pagecolor="#ffffff"
     bordercolor="#666666"
     borderopacity="1.0"
     inkscape:pageopacity="0.0"
     inkscape:pageshadow="2"
     inkscape:zoom="0.24748737"
     inkscape:cx="1341.9619"
     inkscape:cy="206.63357"
     inkscape:document-units="mm"
     inkscape:current-layer="layer1"
     showgrid="false"
     fit-margin-top="0"
     fit-margin-left="0"
     fit-margin-right="0"
     fit-margin-bottom="0"
     inkscape:pagecheckerboard="true"
     inkscape:window-width="1600"
     inkscape:window-height="837"
     inkscape:window-x="-8"
     inkscape:window-y="-8"
     inkscape:window-maximized="1" />
  <metadata
     id="metadata5">
    <rdf:RDF>
      <cc:Work
         rdf:about="">
        <dc:format>image/svg+xml</dc:format>
        <dc:type
           rdf:resource="http://purl.org/dc/dcmitype/StillImage" />
        <dc:title></dc:title>
      </cc:Work>
    </rdf:RDF>
  </metadata>
  <g
     inkscape:label="Layer 1"
     inkscape:groupmode="layer"
     id="layer1"
     transform="translate(576.2469,236.20393)">
    <path
       style="fill:#ffffff;fill-opacity:1;stroke:none;stroke-width:0.35277778"
       d="m -509.7899,7.0473009 -4.23333,-1.519181 -0.094,-9.3881716 -0.094,-9.3881713 h -6.19219 -6.19218 l -7.91317,-6.196556 -7.91315,-6.196552 v -2.093726 -2.093722 l 14.1993,-0.06886 14.19931,-0.06886 -16.75695,-0.233363 c -9.21632,-0.128347 -17.79403,-0.256109 -19.06159,-0.283915 l -2.30465,-0.05055 -4.1104,-7.496528 c -4.57397,-8.341971 -10.10221,-20.506831 -12.44639,-27.38821 -5.4098,-15.880584 -8.37205,-38.426605 -7.34022,-55.867345 0.88759,-15.00271 3.51946,-29.65836 7.34022,-40.87429 2.34418,-6.88138 7.87242,-19.04624 12.44639,-27.38821 l 4.1104,-7.49653 2.30465,-0.0506 c 1.26756,-0.0278 9.84527,-0.15557 19.06159,-0.28391 l 16.75695,-0.23337 -14.19931,-0.0689 -14.1993,-0.0689 v -2.09372 -2.09373 l 7.91315,-6.19655 7.91317,-6.19656 h 6.19218 6.19219 l 0.094,-9.38651 0.094,-9.38652 4.39736,-1.54959 4.39738,-1.5496 h 45.00186 45.00186 l 4.57577,1.53015 4.57576,1.53014 0.18508,9.49416 0.18509,9.49416 0.0795,-7.32014 0.0795,-7.32014 h 0.86112 c 0.47362,0 0.95924,-0.15875 1.07916,-0.35277 0.13187,-0.21337 2.64949,-0.35278 6.37082,-0.35278 3.86667,0 6.15279,0.13108 6.15279,0.35278 0,0.19402 0.47625,0.35277 1.05833,0.35277 h 1.05833 l 0.0201,9.08403 0.0201,9.08403 1.73696,1.32292 c 1.72581,1.31441 1.75857,1.32291 5.09519,1.32291 h 3.35822 v 2.60264 c 0,1.88308 0.1463,2.72406 0.52917,3.04181 0.35915,0.29806 0.52916,1.09705 0.52916,2.48677 0,1.65345 -0.11883,2.07866 -0.61736,2.20894 -0.33955,0.0887 20.61545,0.17975 46.56667,0.20225 l 47.18402,0.0409 v -5.11528 -5.11528 h 12.52361 12.52361 v 2.11667 2.11666 h -3.35138 -3.35139 v 2.99862 2.99861 l 43.47986,-0.0841 c 23.91392,-0.0462 37.09017,-0.12742 29.28055,-0.18039 l -14.1993,-0.0963 v -2.08463 -2.08465 l 7.93637,-6.20163 7.9364,-6.20164 h 6.16896 6.16895 l 0.094,-9.40584 0.0939,-9.40583 4.57577,-1.53028 4.57578,-1.53027 h 45.00184 45.001853 l 4.397375,1.5496 4.397375,1.54959 0.09395,9.38652 0.09398,9.38651 h 6.192167 6.192202 l 7.913158,6.19656 7.913158,6.19655 v 2.09373 2.09372 l -14.199305,0.0689 -14.199305,0.0689 16.756944,0.23337 c 9.216319,0.12834 17.815736,0.25611 19.10983,0.28391 l 2.352887,0.0506 4.056591,7.32014 c 4.398539,7.93722 10.190515,20.64864 12.520859,27.4791 3.845102,11.27018 6.5764129,26.60471 7.4526776,41.84174 0.9491133,16.50315 -2.1779796,39.610391 -7.4526776,55.070901 -2.330344,6.830452 -8.12232,19.541875 -12.520859,27.479093 l -4.056591,7.320139 -2.352887,0.05055 c -1.294094,0.0278 -9.893511,0.155568 -19.10983,0.283915 l -16.756944,0.233363 14.199305,0.06886 14.199305,0.06886 v 2.093722 2.093726 l -7.913158,6.196552 -7.913158,6.196556 h -6.192202 -6.192167 l -0.09398,9.3865168 -0.09395,9.386517 -4.397375,1.5495941 -4.397375,1.549594 h -45.001853 -45.00184 l -4.57578,-1.5302724 -4.57577,-1.5302724 -0.0939,-9.4058387 -0.094,-9.4058384 h -6.16895 -6.16896 l -7.9364,-6.201636 -7.93637,-6.201636 v -2.084641 -2.084638 l 14.1993,-0.09631 c 7.80962,-0.05297 -5.36663,-0.134148 -29.28055,-0.180393 l -43.47986,-0.08408 v 2.998611 2.998612 h 3.35139 3.35138 v 2.116666 2.116667 h -12.52361 -12.52361 v -5.115278 -5.115278 l -47.18402,0.04092 c -25.95122,0.02251 -46.90622,0.113523 -46.56667,0.202258 0.49853,0.130277 0.61736,0.555484 0.61736,2.208935 0,1.389723 -0.17001,2.188708 -0.52916,2.486773 -0.38287,0.317751 -0.52917,1.158724 -0.52917,3.041805 v 2.60264 h -3.35822 c -3.33662,0 -3.36938,0.0085 -5.09519,1.322916 l -1.73696,1.322917 -0.0201,9.0840278 -0.0201,9.0840278 h -1.05833 c -0.58208,0 -1.05833,0.15875 -1.05833,0.3527777 0,0.2216997 -2.28612,0.3527778 -6.15279,0.3527778 -3.72133,0 -6.23895,-0.1394107 -6.37082,-0.3527778 -0.11992,-0.1940277 -0.60554,-0.3527777 -1.07916,-0.3527777 h -0.86112 l -0.0795,-7.3201389 -0.0795,-7.3201387 -0.18509,9.4941599 -0.18508,9.4941637 -4.57576,1.5301419 -4.57577,1.5301454 -45.1659,-0.028759 -45.1659,-0.028762 z m 279.84096,-79.1211619 -20.72569,-0.09389 v -2.995789 -2.995792 h -37.92361 -37.92361 v 3.175 3.175 l 58.6493,-0.08532 c 32.25712,-0.04693 49.32274,-0.127571 37.92361,-0.179207 z m -20.72569,-41.716029 c 0,-6.79097 -0.13734,-12.34722 -0.30522,-12.34722 -0.16786,0 -2.18871,0.78018 -4.49076,1.73373 l -4.1855,1.73372 -1.83991,4.43989 -1.83991,4.43988 1.84051,4.44136 1.84051,4.44136 4.04919,1.70524 c 2.22701,0.93788 4.24758,1.71739 4.49012,1.73225 0.34487,0.0211 0.44097,-2.66321 0.44097,-12.32021 z m -73.15463,4.47588 1.85482,-4.47588 -1.85482,-4.47588 c -1.02016,-2.46174 -2.04332,-4.53872 -2.27371,-4.61551 -0.31621,-0.1054 -0.41888,2.12301 -0.41888,9.09139 0,6.96838 0.10267,9.19679 0.41888,9.09139 0.23039,-0.0768 1.25355,-2.15377 2.27371,-4.61551 z m 73.15463,-43.10223 v -2.99579 l 20.72569,-0.0939 c 11.39913,-0.0516 -5.66649,-0.13228 -37.92361,-0.17921 l -58.6493,-0.0853 v 3.175 3.175 h 37.92361 37.92361 z"
       id="path828"
       inkscape:connector-curvature="0"
       sodipodi:nodetypes="ccccccccccccsccsssssccccccccccccccccccccccccscsssccccscscscsccccccccccccscccccccccccccccccccccccccccccccccccscccccccccccccccccccccccccsscccccccccccscssscsccccssscsccccccccccccccccccsccssccccccccsccccscccccscccccc" />
  </g>
</svg>
