<?xml version="1.0" encoding="UTF-8" standalone="no"?>
<!-- Created with Inkscape (http://www.inkscape.org/) -->

<svg
   xmlns:dc="http://purl.org/dc/elements/1.1/"
   xmlns:cc="http://creativecommons.org/ns#"
   xmlns:rdf="http://www.w3.org/1999/02/22-rdf-syntax-ns#"
   xmlns:svg="http://www.w3.org/2000/svg"
   xmlns="http://www.w3.org/2000/svg"
   xmlns:sodipodi="http://sodipodi.sourceforge.net/DTD/sodipodi-0.dtd"
   xmlns:inkscape="http://www.inkscape.org/namespaces/inkscape"
   width="6206.8828"
   height="1014.3979"
   viewBox="0 0 1642.2377 268.39279"
   version="1.1"
   id="svg8"
   inkscape:version="0.92.4 (5da689c313, 2019-01-14)"
   sodipodi:docname="Mt_Saint_Helens-side.svg"
   inkscape:export-filename="G:\Pictures\My Pictures\Vectors and SVGs\Nature\Mt Saint Helens.png"
   inkscape:export-xdpi="96"
   inkscape:export-ydpi="96">
  <defs
     id="defs2" />
  <sodipodi:namedview
     id="base"
     pagecolor="#000720"
     bordercolor="#666666"
     borderopacity="1.0"
     inkscape:pageopacity="0"
     inkscape:pageshadow="2"
     inkscape:zoom="0.12374369"
     inkscape:cx="3359.3321"
     inkscape:cy="345.17768"
     inkscape:document-units="mm"
     inkscape:current-layer="layer1"
     showgrid="false"
     borderlayer="true"
     inkscape:showpageshadow="false"
     inkscape:pagecheckerboard="true"
     units="px"
     inkscape:window-width="1600"
     inkscape:window-height="837"
     inkscape:window-x="-8"
     inkscape:window-y="-8"
     inkscape:window-maximized="1"
     inkscape:snap-global="true"
     fit-margin-top="0"
     fit-margin-left="0"
     fit-margin-right="0"
     fit-margin-bottom="0" />
  <metadata
     id="metadata5">
    <rdf:RDF>
      <cc:Work
         rdf:about="">
        <dc:format>image/svg+xml</dc:format>
        <dc:type
           rdf:resource="http://purl.org/dc/dcmitype/StillImage" />
        <dc:title></dc:title>
      </cc:Work>
    </rdf:RDF>
  </metadata>
  <g
     inkscape:label="Layer 1"
     inkscape:groupmode="layer"
     id="layer1"
     transform="translate(-5.7040614,-23.897333)">
    <path
       style="opacity:1;fill:#555555;fill-opacity:1;fill-rule:nonzero;stroke:none;stroke-width:5;stroke-linecap:round;stroke-linejoin:round;stroke-miterlimit:4;stroke-dasharray:none;stroke-dashoffset:0;stroke-opacity:1;paint-order:normal"
       d="m 934.3229,29.974633 c 21.80425,16.98807 52.43542,29.63611 58.04807,36.58513 6.5576,0.99586 12.75073,-0.88008 14.35433,0.72353 3.7769,4.06046 7.8291,-2.32714 17.1835,5.69093 9.3544,8.0181 28.8651,25.925146 47.0394,28.597867 18.1744,2.67269 28.0996,3.59311 30.1347,4.54357 18.9469,8.84894 52.4505,30.04344 84.2162,38.76377 22.6786,6.04761 131.5357,53.67261 247.9523,82.39879 116.4166,28.72621 214.6904,65.01191 214.6904,65.01191 H 5.7040614 c 0,0 95.1384186,-35.36293 170.9603186,-68.3086 71.97926,-31.27599 158.7581,-56.66114 226.64456,-87.66441 67.88646,-31.00327 69.12704,-33.20407 82.92317,-39.062691 13.79614,-5.85864 56.12948,-31.372056 64.25597,-33.828896 8.12648,-2.45684 8.12648,-3.40177 15.875,-8.31548 7.74851,-4.91368 17.19791,-12.4732 22.30059,-13.60712 5.10268,-1.13393 11.33929,-1.8899 14.17411,-5.29167 2.83482,-3.4018 10.01637,-8.50448 18.70982,-10.01638 8.69345,-1.51191 6.99256,-3.77976 10.96131,-0.94494 3.96875,2.83483 6.99256,5.66965 10.01637,7.18156 3.02381,1.51188 21.35565,15.11903 21.35565,15.11903 0,0 12.28423,-8.31548 13.41816,-8.31548 1.13392,0 3.59076,2.07888 7.18156,1.7009 3.59076,-0.37798 5.85861,-2.83482 9.63837,-2.64583 3.77976,0.18899 6.99257,1.88989 10.01638,1.88989 3.02379,0 8.12649,2.07886 9.63838,1.88987 1.51191,-0.189 3.02381,-0.37796 7.18156,1.13392 4.15774,1.51191 5.29166,0.75597 8.50447,0.75597 3.21278,0 14.55208,0.56695 19.84375,-1.32292 5.29167,-1.88989 15.11903,-4.15774 17.00893,-3.4018 1.88986,0.75597 19.27677,0.75597 22.1116,0.18899 2.83482,-0.56695 12.28423,-0.37796 14.36309,0.56698 2.07888,0.94493 4.15774,-0.75597 7.55951,-0.75597 3.4018,0 11.15031,-4.34671 14.55209,-3.40177 3.4018,0.94493 8.31548,-1.51191 10.20537,0 1.88987,1.5119 8.12649,0.75594 12.28421,1.32291 4.15774,0.56698 5.29167,0.94494 7.18156,1.7009 1.88989,0.75594 3.59076,-0.94496 7.9375,-0.18899 4.34673,0.75594 8.50447,0.75594 10.96131,-0.56697 2.45685,-1.32292 16.064,-1.51191 17.57588,-0.75595 1.51191,0.75595 9.07145,5.10268 16.06399,4.34674 6.99257,-0.75597 14.36309,-3.02382 14.93007,-1.7009 0.56697,1.32291 0.94493,2.45684 0.94493,2.45684 0,0 9.60073,-13.82778 11.3393,-12.47323 z"
       id="path839"
       inkscape:connector-curvature="0"
       sodipodi:nodetypes="sccscscsccsscscccccccscssccsccccsccccccccccs" />
  </g>
</svg>
