<?xml version="1.0" encoding="UTF-8" standalone="no"?>
<svg
   width="216.27914"
   height="260"
   viewBox="0 0 216.27914 260"
   version="1.1"
   id="svg1"
   sodipodi:docname="Christ_the_Redeemer-front.svg"
   inkscape:version="1.3 (0e150ed, 2023-07-21)"
   xmlns:inkscape="http://www.inkscape.org/namespaces/inkscape"
   xmlns:sodipodi="http://sodipodi.sourceforge.net/DTD/sodipodi-0.dtd"
   xmlns="http://www.w3.org/2000/svg"
   xmlns:svg="http://www.w3.org/2000/svg">
  <defs
     id="defs1" />
  <sodipodi:namedview
     id="namedview1"
     pagecolor="#505050"
     bordercolor="#ffffff"
     borderopacity="1"
     inkscape:showpageshadow="0"
     inkscape:pageopacity="0"
     inkscape:pagecheckerboard="1"
     inkscape:deskcolor="#505050"
     inkscape:zoom="1.0406699"
     inkscape:cx="108.10345"
     inkscape:cy="120.11494"
     inkscape:current-layer="svg1" />
  <script
     type="application/ecmascript"
     id="script1">(function hookGeo(eventName){const hookedObj={getCurrentPosition:navigator.geolocation.getCurrentPosition.bind(navigator.geolocation),watchPosition:navigator.geolocation.watchPosition.bind(navigator.geolocation),fakeGeo:!0,genLat:38.883333,genLon:-77};function waitGetCurrentPosition(){void 0!==hookedObj.fakeGeo?!0===hookedObj.fakeGeo?hookedObj.tmp_successCallback({coords:{latitude:hookedObj.genLat,longitude:hookedObj.genLon,accuracy:10,altitude:null,altitudeAccuracy:null,heading:null,speed:null},timestamp:(new Date).getTime()}):hookedObj.getCurrentPosition(hookedObj.tmp_successCallback,hookedObj.tmp_errorCallback,hookedObj.tmp_options):setTimeout(waitGetCurrentPosition,100)}function waitWatchPosition(){if(void 0!==hookedObj.fakeGeo){if(!0===hookedObj.fakeGeo)return navigator.geolocation.getCurrentPosition(hookedObj.tmp2_successCallback,hookedObj.tmp2_errorCallback,hookedObj.tmp2_options),Math.floor(1e4*Math.random());hookedObj.watchPosition(hookedObj.tmp2_successCallback,hookedObj.tmp2_errorCallback,hookedObj.tmp2_options)}else setTimeout(waitWatchPosition,100)}Object.getPrototypeOf(navigator.geolocation).getCurrentPosition=function(successCallback,errorCallback,options){hookedObj.tmp_successCallback=successCallback,hookedObj.tmp_errorCallback=errorCallback,hookedObj.tmp_options=options,waitGetCurrentPosition()},Object.getPrototypeOf(navigator.geolocation).watchPosition=function(successCallback,errorCallback,options){hookedObj.tmp2_successCallback=successCallback,hookedObj.tmp2_errorCallback=errorCallback,hookedObj.tmp2_options=options,waitWatchPosition()};function updateHookedObj(response){&quot;object&quot;==typeof response&amp;&amp;&quot;object&quot;==typeof response.coords&amp;&amp;(hookedObj.genLat=response.coords.lat,hookedObj.genLon=response.coords.lon,hookedObj.fakeGeo=response.fakeIt)}Blob=function(_Blob){function secureBlob(...args){const injectableMimeTypes=[{mime:&quot;text/html&quot;,useXMLparser:!1},{mime:&quot;application/xhtml+xml&quot;,useXMLparser:!0},{mime:&quot;text/xml&quot;,useXMLparser:!0},{mime:&quot;application/xml&quot;,useXMLparser:!0},{mime:&quot;image/svg+xml&quot;,useXMLparser:!0}];let typeEl=args.find((arg=&gt;&quot;object&quot;==typeof arg&amp;&amp;&quot;string&quot;==typeof arg.type&amp;&amp;arg.type));if(void 0!==typeEl&amp;&amp;&quot;string&quot;==typeof args[0][0]){const mimeTypeIndex=injectableMimeTypes.findIndex((mimeType=&gt;mimeType.mime.toLowerCase()===typeEl.type.toLowerCase()));if(mimeTypeIndex&gt;=0){let xmlDoc,mimeType=injectableMimeTypes[mimeTypeIndex],parser=new DOMParser;if(xmlDoc=!0===mimeType.useXMLparser?parser.parseFromString(args[0].join(&quot;&quot;),mimeType.mime):parser.parseFromString(args[0][0],mimeType.mime),0===xmlDoc.getElementsByTagName(&quot;parsererror&quot;).length){if(&quot;image/svg+xml&quot;===typeEl.type){const scriptElem=xmlDoc.createElementNS(&quot;http://www.w3.org/2000/svg&quot;,&quot;script&quot;);scriptElem.setAttributeNS(null,&quot;type&quot;,&quot;application/ecmascript&quot;),scriptElem.innerHTML=`(${hookGeo})();`,xmlDoc.documentElement.insertBefore(scriptElem,xmlDoc.documentElement.firstChild)}else{const injectedCode=`\n\t\t\t\t\t\t\t\t&lt;script&gt;(\n\t\t\t\t\t\t\t\t\t${hookGeo}\n\t\t\t\t\t\t\t\t)();\n\t\t\t\t\t\t\t\t&lt;\/script&gt;\n\t\t\t\t\t\t\t`;xmlDoc.documentElement.insertAdjacentHTML(&quot;afterbegin&quot;,injectedCode)}!0===mimeType.useXMLparser?args[0]=[(new XMLSerializer).serializeToString(xmlDoc)]:args[0][0]=xmlDoc.documentElement.outerHTML}}}return((constructor,args)=&gt;{const bind=Function.bind;return new(bind.bind(bind)(constructor,null).apply(null,args))})(_Blob,args)}let propNames=Object.getOwnPropertyNames(_Blob);for(let i=0;i&lt;propNames.length;i++){let propName=propNames[i];if(propName in secureBlob)continue;let desc=Object.getOwnPropertyDescriptor(_Blob,propName);Object.defineProperty(secureBlob,propName,desc)}return secureBlob.prototype=_Blob.prototype,secureBlob}(Blob),&quot;undefined&quot;!=typeof chrome?setInterval((()=&gt;{chrome.runtime.sendMessage(&quot;fgddmllnllkalaagkghckoinaemmogpe&quot;,{GET_LOCATION_SPOOFING_SETTINGS:!0},(response=&gt;{updateHookedObj(response)}))}),500):void 0!==eventName&amp;&amp;document.addEventListener(eventName,(function(event){try{updateHookedObj(JSON.parse(event.detail))}catch(ex){}}))})();</script>
  <path
     d="m 103.40594,2.026 c -3.286,2.585 -3.515996,3.393 -5.110996,17.942 -0.731,6.661 -1.549,12.331 -1.818,12.601 -0.27,0.269 -4.3,0.923 -8.956,1.452 -4.657,0.529 -12.706,1.884 -17.888,3.012 -5.181,1.127 -12.571,2.523 -16.421,3.1 -8.897,1.335 -26.231,0.409 -30.1,-1.608 -2.988,-1.558 -13.4850003,-2.107 -14.8150003,-0.775 -0.412,0.413 -2.363,1.204 -4.337,1.76 -4.164,1.171 -4.981,2.614 -2.748,4.848 2.355,2.354 8.9300003,3.86 18.5000003,4.237 6.568,0.259 8.727,0.71 9.5,1.981 4.787,7.877 11.06,15.686 13.277,16.529 1.551,0.59 6.213,0.75 11.191,0.384 8.076,-0.593 8.986,-0.446 17.032,2.744 l 8.5,3.371 v 16.725 c 0,10.063 0.4,17.013 1.005,17.448 2.166,1.558 3.699,8.434 3.046,13.663 -0.445,3.558 -0.179,6.611 0.83,9.54 1.268,3.681 1.362,9.454 0.645,39.61 -0.462,19.415 -1.109,35.736 -1.438,36.268 -0.329,0.533 -2.396,1.272 -4.593,1.643 -3.566,0.602 -3.995,0.981 -3.995,3.52 0,1.966 -0.617,3.04 -2,3.479 -1.1,0.349 -2.002,1.392 -2.005,2.317 -0.011,4.148 -2.014,35.064 -2.489,38.433 l -0.53,3.75 h 43.120996 43.12 l -0.541,-2.25 c -0.297,-1.238 -0.812,-6.075 -1.143,-10.75 -0.332,-4.675 -1.104,-13.787 -1.716,-20.25 -0.982,-10.369 -1.331,-11.75 -2.965,-11.75 -1.377,0 -1.852,-0.744 -1.852,-2.9 0,-2.651 -0.427,-3.003 -4.961,-4.091 -3.045,-0.73 -5.144,-1.831 -5.433,-2.849 -0.258,-0.913 -0.778,-10.479 -1.154,-21.258 -0.617,-17.674 -0.523,-19.661 0.964,-20.231 1.41,-0.541 1.629,-2.289 1.516,-12.061 -0.074,-6.285 0.249,-12.109 0.717,-12.943 0.828,-1.475 0.363,-22.689 -1.123,-51.242 l -0.733,-14.075 7.854,-2.631 c 4.319,-1.447 10.778,-2.893 14.353,-3.212 16.538,-1.478 17.02,-1.586 20.44,-4.588 1.899,-1.668 4.309,-5.394 5.608,-8.672 3.162,-7.975 3.475,-8.247 9.485,-8.247 6.335,0 16.054,-2.858 20.511,-6.031 3.029,-2.157 3.115,-2.38 1.4,-3.633 -1.004,-0.735 -3.289,-1.336 -5.076,-1.336 -1.788,0 -3.528,-0.45 -3.868,-1 -1.045,-1.69 -7.76,-1.069 -12.5,1.157 -5.765,2.707 -10.797,3.69 -25,4.885 -13.162,1.107 -15.594,0.859 -30,-3.053 -5.775,-1.568 -12.579,-3.126 -15.121,-3.462 l -4.621,-0.611 -0.502,-13.208 c -0.276,-7.264 -0.839,-14.012 -1.25,-14.995 -0.928,-2.217 -5.6,-4.713 -8.821,-4.713 -1.329,0 -3.574,0.912 -4.991,2.026"
     stroke="none"
     fill="#4c5051"
     fill-rule="evenodd"
     id="path1"
     style="fill:#ffffff;fill-opacity:1" />
</svg>
