<?xml version="1.0" encoding="UTF-8" standalone="no"?>
<!-- Created with Inkscape (http://www.inkscape.org/) -->

<svg
   width="56.998375mm"
   height="146.20927mm"
   viewBox="0 0 56.998375 146.20927"
   version="1.1"
   id="svg1"
   xml:space="preserve"
   inkscape:version="1.3 (0e150ed6c4, 2023-07-21)"
   sodipodi:docname="Statue_of_Unity-front.svg"
   xmlns:inkscape="http://www.inkscape.org/namespaces/inkscape"
   xmlns:sodipodi="http://sodipodi.sourceforge.net/DTD/sodipodi-0.dtd"
   xmlns="http://www.w3.org/2000/svg"
   xmlns:svg="http://www.w3.org/2000/svg"><sodipodi:namedview
     id="namedview1"
     pagecolor="#505050"
     bordercolor="#ffffff"
     borderopacity="1"
     inkscape:showpageshadow="0"
     inkscape:pageopacity="0"
     inkscape:pagecheckerboard="1"
     inkscape:deskcolor="#505050"
     inkscape:document-units="mm"
     showguides="true"
     inkscape:zoom="0.58707211"
     inkscape:cx="-14.47863"
     inkscape:cy="258.06029"
     inkscape:window-width="1600"
     inkscape:window-height="837"
     inkscape:window-x="-8"
     inkscape:window-y="-8"
     inkscape:window-maximized="1"
     inkscape:current-layer="layer1" /><defs
     id="defs1" /><g
     inkscape:label="Layer 1"
     inkscape:groupmode="layer"
     id="layer1"
     transform="translate(-78.299218,-67.696082)"><path
       style="fill:#555555;fill-opacity:1;stroke:none;stroke-width:2.11667;paint-order:markers stroke fill"
       d="m 108.22022,213.90535 h 13.80216 c 0.9577,0 0.61969,-1.01404 0.11267,-1.29572 -0.50702,-0.28167 -1.63372,-1.63372 -2.36608,-1.80273 -0.73236,-0.169 -2.19708,-1.23938 -2.42242,-1.9154 -0.22534,-0.67602 -0.22534,-1.35205 0.0563,-1.40838 0.28168,-0.0563 0.84503,0.22534 0.84503,-0.39435 0,-0.61969 -0.28168,-5.68987 0.0563,-5.97155 0.33801,-0.28168 0.73236,0.11267 0.67602,-1.29571 -0.0563,-1.40839 -0.22534,-3.94348 0.16901,-3.6618 0.39434,0.28168 0.56335,-0.11267 0.61969,-1.63373 0.0563,-1.52105 0.11267,-2.25341 0.56335,-2.14074 0.45068,0.11267 0.22534,-1.57739 -0.33801,-1.9154 -0.56336,-0.33801 0.61969,-0.84503 0.67602,-1.63373 0.0563,-0.78869 0.61969,-1.23937 0.7887,-1.9154 0.169,-0.67602 0.56335,-1.74639 0.11267,-2.7041 -0.45068,-0.9577 -1.18304,-1.85906 -1.12671,-2.25341 0.0563,-0.39435 -0.169,-2.76043 0.45068,-3.26745 0.61969,-0.50702 0.56336,-2.81677 0.61969,-3.8308 0.0563,-1.01404 0.0563,-2.36609 -0.45068,-2.64777 -0.50702,-0.28167 -0.90137,-1.69006 -0.78869,-2.53509 0.11267,-0.84503 -0.16901,-2.7041 0.50701,-2.92944 0.67603,-0.22534 1.46472,-0.22534 2.53509,-0.50701 1.07038,-0.28168 2.64777,-0.11267 2.81677,-0.90137 0.16901,-0.78869 0.11267,-2.42242 -0.0563,-3.04211 -0.16901,-0.61969 -1.29572,-3.71813 -1.52106,-4.6195 -0.22534,-0.90136 -0.78869,-3.88714 -0.73236,-4.39416 0.0563,-0.50702 1.63373,-1.01403 2.36609,-1.69006 0.73236,-0.67602 2.36608,-1.9154 2.81677,-2.76043 0.45068,-0.84503 2.0844,-2.98577 1.52105,-3.88714 -0.56335,-0.90137 0.39435,-1.52105 0.90137,-1.57739 0.50701,-0.0563 0.73235,-0.84503 0.61968,-1.46472 -0.11267,-0.61969 1.91541,-1.9154 2.47876,-3.15478 0.56335,-1.23938 1.01404,-3.8308 0.61969,-5.29552 -0.39435,-1.46472 -1.18304,-4.90118 -2.19708,-6.81658 -1.01404,-1.9154 -2.25341,-6.98559 -2.7041,-8.73198 -0.45068,-1.7464 -2.19708,-8.84465 -2.59142,-10.64738 -0.39435,-1.80273 -0.73236,-4.73217 -1.35205,-7.492604 -0.61969,-2.760433 -0.50702,-4.337823 -1.7464,-5.182855 -1.23938,-0.845028 -2.64776,-1.971735 -4.56316,-2.929437 -1.9154,-0.957702 -2.98577,-1.352047 -3.26745,-1.802731 -0.28168,-0.450683 -1.9154,-3.436458 -2.53509,-3.830804 -0.61969,-0.394348 -1.07038,-0.450683 -1.23938,-0.676023 -0.16901,-0.225343 -0.50702,-3.661799 0.169,-3.380124 0.67603,0.281678 1.12671,0.507018 1.35205,-0.33801 0.22534,-0.845032 1.40839,-3.267451 1.18305,-4.225153 -0.22534,-0.957701 -1.18305,-1.915403 -1.63373,-2.140743 -0.45068,-0.225341 -0.45068,-0.901367 -0.33801,-1.915401 0.11267,-1.014037 0.22534,-2.985775 -1.12671,-3.661799 -1.35205,-0.676024 -4.28148,-2.366087 -6.59124,-1.915404 -2.30975,0.450684 -6.196884,1.746396 -6.647568,4.337823 -0.450683,2.591427 0.11267,4.732171 -0.394348,4.619501 -0.507018,-0.112671 -1.295712,0.169005 -1.070372,2.366084 0.225343,2.197078 2.028074,4.056144 2.197078,3.718134 0.16901,-0.338014 1.01404,2.197078 0.73236,2.929437 -0.28168,0.732362 0.39435,0.507019 -1.014034,1.690061 -1.408385,1.183044 -4.394158,2.985775 -5.915213,3.549128 -1.521055,0.563354 -4.056145,1.352048 -5.239187,3.211116 -1.183044,1.859066 -3.661799,7.492604 -4.563165,10.816384 -0.901367,3.32379 -2.647762,7.77428 -3.661799,10.81639 -1.014034,3.04211 -2.028071,5.29553 -2.084406,6.59124 -0.05634,1.29571 0.22534,2.64776 1.126707,3.77447 0.901364,1.1267 1.633725,1.63372 1.69006,2.76043 0.05634,1.12671 -2.197079,8.61931 -2.591427,9.80235 -0.394348,1.18305 -0.22534,2.30975 0.788694,2.7041 1.014037,0.39435 1.690063,0.56335 1.35205,1.80273 -0.338013,1.23938 -1.070372,2.25341 -1.070372,5.35186 0,3.09844 -0.05633,3.38012 1.126707,4.22515 1.183042,0.84503 2.366084,2.42242 2.929438,2.30975 0.563353,-0.11267 -1.577388,2.64776 -2.084406,4.33782 -0.507019,1.69006 -1.746399,2.30975 -1.014037,3.26745 0.732358,0.9577 8.450302,1.69007 9.238998,1.91541 0.788694,0.22534 1.295712,4.50682 0.676024,6.14055 -0.619689,1.63372 -1.295712,3.71813 -0.676024,4.28149 0.619689,0.56335 0.957699,2.36608 0.450684,3.38012 -0.507019,1.01403 -0.563357,2.92944 -0.225343,4.39415 0.338013,1.46472 0.338013,4.33783 0.563353,5.52087 0.225343,1.18304 -0.450683,3.49279 -0.845029,4.05615 -0.394348,0.56335 1.126707,1.46472 1.352047,2.47875 0.225341,1.01404 1.126707,2.7041 1.014037,3.6618 -0.11267,0.9577 0.169005,2.59143 0.957702,3.60546 0.788694,1.01404 1.352047,1.97174 1.352047,2.53509 0,0.56336 -0.05634,4.50683 -0.394348,4.78851 -0.338011,0.28168 -3.492791,2.8731 -4.563163,3.26745 -1.070372,0.39435 -0.450683,1.12671 0.788697,1.12671 h 12.506448 c 1.07037,0 0.33801,-3.4928 0.56335,-4.50683 0.22534,-1.01404 0.61969,-2.42242 0.45068,-3.71814 -0.169,-1.29571 -0.95769,-1.52105 -0.84502,-2.47875 0.11267,-0.9577 0.169,-3.94348 0.56335,-4.50683 0.39435,-0.56335 1.63372,-4.73217 1.80273,-5.85888 0.16901,-1.1267 0.84503,-0.61968 1.23938,0.56336 0.39435,1.18304 0.78869,5.7462 1.40838,6.19689 0.61969,0.45068 1.07037,3.71813 0.73236,4.90117 -0.33801,1.18304 -0.84503,2.36609 -0.50702,2.92944 0.33802,0.56335 0.28168,2.08441 0,2.76043 -0.28167,0.67603 -0.67602,3.71814 0.0563,3.71814 z"
       id="path1"
       sodipodi:nodetypes="cssssssssssssssssssssssssssssssssssssssssssssssssssssssssssssssssssssssssssssssssssssssssssssssssc" /></g></svg>
