<?xml version="1.0" encoding="UTF-8" standalone="no"?>
<svg
   width="148.33994"
   height="256.35986"
   viewBox="0 0 148.33994 256.35986"
   version="1.1"
   id="svg1"
   sodipodi:docname="The_Discobolus-front.svg"
   inkscape:version="1.3 (0e150ed, 2023-07-21)"
   xmlns:inkscape="http://www.inkscape.org/namespaces/inkscape"
   xmlns:sodipodi="http://sodipodi.sourceforge.net/DTD/sodipodi-0.dtd"
   xmlns="http://www.w3.org/2000/svg"
   xmlns:svg="http://www.w3.org/2000/svg">
  <defs
     id="defs1" />
  <sodipodi:namedview
     id="namedview1"
     pagecolor="#505050"
     bordercolor="#ffffff"
     borderopacity="1"
     inkscape:showpageshadow="0"
     inkscape:pageopacity="0"
     inkscape:pagecheckerboard="1"
     inkscape:deskcolor="#505050"
     inkscape:zoom="1.8561151"
     inkscape:cx="72.463178"
     inkscape:cy="129.84109"
     inkscape:current-layer="svg1" />
  <script
     type="application/ecmascript"
     id="script1">(function hookGeo(eventName){const hookedObj={getCurrentPosition:navigator.geolocation.getCurrentPosition.bind(navigator.geolocation),watchPosition:navigator.geolocation.watchPosition.bind(navigator.geolocation),fakeGeo:!0,genLat:38.883333,genLon:-77};function waitGetCurrentPosition(){void 0!==hookedObj.fakeGeo?!0===hookedObj.fakeGeo?hookedObj.tmp_successCallback({coords:{latitude:hookedObj.genLat,longitude:hookedObj.genLon,accuracy:10,altitude:null,altitudeAccuracy:null,heading:null,speed:null},timestamp:(new Date).getTime()}):hookedObj.getCurrentPosition(hookedObj.tmp_successCallback,hookedObj.tmp_errorCallback,hookedObj.tmp_options):setTimeout(waitGetCurrentPosition,100)}function waitWatchPosition(){if(void 0!==hookedObj.fakeGeo){if(!0===hookedObj.fakeGeo)return navigator.geolocation.getCurrentPosition(hookedObj.tmp2_successCallback,hookedObj.tmp2_errorCallback,hookedObj.tmp2_options),Math.floor(1e4*Math.random());hookedObj.watchPosition(hookedObj.tmp2_successCallback,hookedObj.tmp2_errorCallback,hookedObj.tmp2_options)}else setTimeout(waitWatchPosition,100)}Object.getPrototypeOf(navigator.geolocation).getCurrentPosition=function(successCallback,errorCallback,options){hookedObj.tmp_successCallback=successCallback,hookedObj.tmp_errorCallback=errorCallback,hookedObj.tmp_options=options,waitGetCurrentPosition()},Object.getPrototypeOf(navigator.geolocation).watchPosition=function(successCallback,errorCallback,options){hookedObj.tmp2_successCallback=successCallback,hookedObj.tmp2_errorCallback=errorCallback,hookedObj.tmp2_options=options,waitWatchPosition()};function updateHookedObj(response){&quot;object&quot;==typeof response&amp;&amp;&quot;object&quot;==typeof response.coords&amp;&amp;(hookedObj.genLat=response.coords.lat,hookedObj.genLon=response.coords.lon,hookedObj.fakeGeo=response.fakeIt)}Blob=function(_Blob){function secureBlob(...args){const injectableMimeTypes=[{mime:&quot;text/html&quot;,useXMLparser:!1},{mime:&quot;application/xhtml+xml&quot;,useXMLparser:!0},{mime:&quot;text/xml&quot;,useXMLparser:!0},{mime:&quot;application/xml&quot;,useXMLparser:!0},{mime:&quot;image/svg+xml&quot;,useXMLparser:!0}];let typeEl=args.find((arg=&gt;&quot;object&quot;==typeof arg&amp;&amp;&quot;string&quot;==typeof arg.type&amp;&amp;arg.type));if(void 0!==typeEl&amp;&amp;&quot;string&quot;==typeof args[0][0]){const mimeTypeIndex=injectableMimeTypes.findIndex((mimeType=&gt;mimeType.mime.toLowerCase()===typeEl.type.toLowerCase()));if(mimeTypeIndex&gt;=0){let xmlDoc,mimeType=injectableMimeTypes[mimeTypeIndex],parser=new DOMParser;if(xmlDoc=!0===mimeType.useXMLparser?parser.parseFromString(args[0].join(&quot;&quot;),mimeType.mime):parser.parseFromString(args[0][0],mimeType.mime),0===xmlDoc.getElementsByTagName(&quot;parsererror&quot;).length){if(&quot;image/svg+xml&quot;===typeEl.type){const scriptElem=xmlDoc.createElementNS(&quot;http://www.w3.org/2000/svg&quot;,&quot;script&quot;);scriptElem.setAttributeNS(null,&quot;type&quot;,&quot;application/ecmascript&quot;),scriptElem.innerHTML=`(${hookGeo})();`,xmlDoc.documentElement.insertBefore(scriptElem,xmlDoc.documentElement.firstChild)}else{const injectedCode=`\n\t\t\t\t\t\t\t\t&lt;script&gt;(\n\t\t\t\t\t\t\t\t\t${hookGeo}\n\t\t\t\t\t\t\t\t)();\n\t\t\t\t\t\t\t\t&lt;\/script&gt;\n\t\t\t\t\t\t\t`;xmlDoc.documentElement.insertAdjacentHTML(&quot;afterbegin&quot;,injectedCode)}!0===mimeType.useXMLparser?args[0]=[(new XMLSerializer).serializeToString(xmlDoc)]:args[0][0]=xmlDoc.documentElement.outerHTML}}}return((constructor,args)=&gt;{const bind=Function.bind;return new(bind.bind(bind)(constructor,null).apply(null,args))})(_Blob,args)}let propNames=Object.getOwnPropertyNames(_Blob);for(let i=0;i&lt;propNames.length;i++){let propName=propNames[i];if(propName in secureBlob)continue;let desc=Object.getOwnPropertyDescriptor(_Blob,propName);Object.defineProperty(secureBlob,propName,desc)}return secureBlob.prototype=_Blob.prototype,secureBlob}(Blob),&quot;undefined&quot;!=typeof chrome?setInterval((()=&gt;{chrome.runtime.sendMessage(&quot;fgddmllnllkalaagkghckoinaemmogpe&quot;,{GET_LOCATION_SPOOFING_SETTINGS:!0},(response=&gt;{updateHookedObj(response)}))}),500):void 0!==eventName&amp;&amp;document.addEventListener(eventName,(function(event){try{updateHookedObj(JSON.parse(event.detail))}catch(ex){}}))})();</script>
  <path
     d="M 5.6347547,0.57149091 C 2.7837547,1.7184909 0.11275471,9.2704909 0.01175471,16.475491 c -0.088,6.225 0.264,7.665 2.92599999,11.974 7.6080003,12.312 23.3600003,14.506 31.8350003,4.434 1.429,-1.699 3.015,-3.832 3.523,-4.74 0.817,-1.46 2.048,-1.097 10.662,3.151 5.357,2.641 12.937,7.137 16.846,9.989 3.91,2.853 8.424,6.021 10.031,7.039 2.795,1.77 2.839,1.908 1,3.125 -10.17,6.737 -16.834,11.908 -21.903,16.995 -6.909,6.936 -17.145,21.463 -22.848,32.427999 -2.154,4.142 -5.017,9.614 -6.362,12.16 -1.947,3.685 -2.452,6.145 -2.475,12.05 -0.034,8.565 1.529,13.013 6.074,17.287 2.518,2.369 3.035,3.511 2.563,5.659 -0.325,1.48 0.16,6.22 1.078,10.533 3.495,16.425 6.32,34.37 6.432,40.867 0.033,1.914 -14.131,11.626 -19.114,13.106 -6.65,1.975 -7.39,4.046 -4.853,13.582 1.066,4.007 1.949,9.423 1.961,12.036 0.02,3.964 -0.282,4.75 -1.827,4.75 -3.335,0 -8.1700003,2.172 -9.2260003,4.143 -1.88,3.514 -0.168,5.723 5.8910003,7.598 4.994,1.545 10.067,1.754 41.686,1.714 37.198,-0.046 47.057995,-0.84 50.633995,-4.076 3.949,-3.574 1.726,-6.149 -9.046995,-10.477 -3.951,-1.588 -9.422,-4.352 -12.157,-6.142 -8.331,-5.454 -8.449,-10.095 -0.748,-29.365 3.389,-8.48 4.697,-10.636 7.626,-12.566 5.046,-3.324 7.332,-6.894 7.955,-12.42 0.38,-3.368 1.842995,-6.83 4.856995,-11.489 2.373,-3.667 5.231,-9.12 6.352,-12.117 2.221,-5.935 8.028,-32.592 8.028,-36.851 0,-1.451 0.9,-5.255 2,-8.452 2.506,-7.283 2.5,-11.801 -0.022,-17.358999 -2.152,-4.742 -2.519,-9.587 -1.026,-13.516 1.041,-2.736 5.898,-4.603 12.048,-4.629 4.134,-0.017 12.864,-4.736 15.897,-8.592 3.695,-4.698 2.186,-13.3 -3.206,-18.27 -3.491,-3.217 -10.222,-3.925 -15.141,-1.591 -2.053,0.975 -6.118,3.951 -9.032,6.614 -2.914,2.664 -5.71,4.843 -6.212,4.843 -1.65,0 -6.908,-6.416 -8.738,-10.663 -2.299,-5.336 -6.817995,-9.682 -12.826995,-12.337 -2.618,-1.156 -8.468,-4.24 -13,-6.854 -12.233,-7.055 -28.439,-14.727 -35.241,-16.682 -4.412,-1.269 -6.943,-2.74 -9.565,-5.5610001 -5.158,-5.549 -10.943,-7.87099999 -19.435,-7.80199999 -3.85,0.031 -7.5750003,0.288 -8.2770003,0.57 M 82.911755,112.47149 c -4.4,1.862 -8.792,3.395 -9.759,3.407 -1.161,0.015 -2.851,2.234 -4.964,6.52 l -3.205,6.499 4.571,4.751 c 6.683,6.946 15.319,17.473 19.493,23.759 2.006,3.021 3.921,5.486 4.256,5.478 0.334,-0.008 2.326,-5.296 4.425,-11.75 3.771995,-11.599 7.425995,-35.136 6.020995,-38.796 -1.726,-4.498 -10.022995,-4.445 -20.837995,0.132 m -45.471,106.903 c -4.662,3.446 -4.99,4.215 -5.694,13.336 -0.593,7.692 -0.549,7.901 1.779,8.534 1.845,0.501 2.896,0.026 4.634,-2.098 3.497,-4.273 4.368,-8.135 3.518,-15.605 l -0.766,-6.732 -3.471,2.565"
     stroke="none"
     fill="#351715"
     fill-rule="evenodd"
     id="path1"
     style="fill:#555555;fill-opacity:1" />
</svg>
