<?xml version="1.0" encoding="UTF-8" standalone="no"?>
<!-- Created with Inkscape (http://www.inkscape.org/) -->

<svg
   width="17.566364mm"
   height="235.26936mm"
   viewBox="0 0 17.566364 235.26936"
   version="1.1"
   id="svg1"
   xml:space="preserve"
   inkscape:version="1.3 (0e150ed, 2023-07-21)"
   sodipodi:docname="Falcon_9-front.svg"
   xmlns:inkscape="http://www.inkscape.org/namespaces/inkscape"
   xmlns:sodipodi="http://sodipodi.sourceforge.net/DTD/sodipodi-0.dtd"
   xmlns="http://www.w3.org/2000/svg"
   xmlns:svg="http://www.w3.org/2000/svg"><sodipodi:namedview
     id="namedview1"
     pagecolor="#505050"
     bordercolor="#ffffff"
     borderopacity="1"
     inkscape:showpageshadow="0"
     inkscape:pageopacity="0"
     inkscape:pagecheckerboard="1"
     inkscape:deskcolor="#505050"
     inkscape:document-units="mm"
     showguides="true"
     inkscape:zoom="0.32504294"
     inkscape:cx="-98.448531"
     inkscape:cy="439.94187"
     inkscape:current-layer="layer1" /><defs
     id="defs1"><inkscape:path-effect
       effect="mirror_symmetry"
       start_point="105,0"
       end_point="105,297"
       center_point="105,148.5"
       id="path-effect3"
       is_visible="true"
       lpeversion="1.2"
       lpesatellites=""
       mode="vertical"
       discard_orig_path="false"
       fuse_paths="false"
       oposite_fuse="false"
       split_items="false"
       split_open="false"
       link_styles="false" /><inkscape:path-effect
       effect="mirror_symmetry"
       start_point="105,0"
       end_point="105,297"
       center_point="105,148.5"
       id="path-effect1"
       is_visible="true"
       lpeversion="1.2"
       lpesatellites=""
       mode="vertical"
       discard_orig_path="false"
       fuse_paths="false"
       oposite_fuse="false"
       split_items="false"
       split_open="false"
       link_styles="false" /></defs><g
     inkscape:label="Layer 1"
     inkscape:groupmode="layer"
     id="layer1"
     transform="translate(-96.216866,-32.823319)"><path
       id="path1"
       style="fill:#ffffff;stroke:none;stroke-width:1.1;stroke-linejoin:round"
       d="m 104.99979,32.823319 c -1.82731,0 -8.782924,8.174492 -8.782924,18.950782 v 22.15782 l 2.66392,4.066419 v 0.621151 l -0.487309,0.595312 v 28.239107 c -0.340459,0.29807 -0.299723,0.89783 -0.299723,1.30328 v 4.05246 c 0,0.85659 0.540326,1.10381 0.773596,1.10381 v 15.54117 l -0.464054,0.11782 v 99.63216 l -0.35295,0.56896 v 30.5754 h 0.291972 v 0.87695 h 0.49506 v 2.33939 h 1.063501 c -0.677649,1.00107 -0.971751,1.82375 -1.07797,3.93567 h 4.355811 l -0.0553,0.5917 h 1.87637 1.87689 l -0.0553,-0.5917 h 4.3558 c -0.10622,-2.11192 -0.40032,-2.9346 -1.07797,-3.93567 h 1.06299 v -2.33939 h 0.49557 v -0.87695 h 0.29198 v -30.5754 l -0.35295,-0.56896 v -99.63216 l -0.46406,-0.11782 v -15.54117 c 0.23327,0 0.77308,-0.24722 0.77308,-1.10381 v -4.05246 c 0,-0.40545 0.0413,-1.00521 -0.29921,-1.30328 V 79.214803 l -0.4873,-0.595312 V 77.99834 l 2.66392,-4.066419 v -22.15782 c 0,-10.77629 -6.95614,-18.950782 -8.78345,-18.950782 z"
       sodipodi:nodetypes="sscccccsscccccccccccccccccccccccccccccsscccccss" /></g></svg>
