<?xml version="1.0" encoding="UTF-8" standalone="no"?>
<!-- Created with Inkscape (http://www.inkscape.org/) -->

<svg
   width="59.429417mm"
   height="243.13777mm"
   viewBox="0 0 59.429417 243.13777"
   version="1.1"
   id="svg1"
   xml:space="preserve"
   inkscape:version="1.3 (0e150ed, 2023-07-21)"
   sodipodi:docname="Falcon_9_unfolded-front.svg"
   xmlns:inkscape="http://www.inkscape.org/namespaces/inkscape"
   xmlns:sodipodi="http://sodipodi.sourceforge.net/DTD/sodipodi-0.dtd"
   xmlns="http://www.w3.org/2000/svg"
   xmlns:svg="http://www.w3.org/2000/svg"><sodipodi:namedview
     id="namedview1"
     pagecolor="#505050"
     bordercolor="#ffffff"
     borderopacity="1"
     inkscape:showpageshadow="0"
     inkscape:pageopacity="0"
     inkscape:pagecheckerboard="1"
     inkscape:deskcolor="#505050"
     inkscape:document-units="mm"
     showguides="true"
     inkscape:zoom="0.32504294"
     inkscape:cx="-18.4591"
     inkscape:cy="439.94187"
     inkscape:current-layer="layer1" /><defs
     id="defs1"><inkscape:path-effect
       effect="mirror_symmetry"
       start_point="105,0"
       end_point="105,297"
       center_point="105,148.5"
       id="path-effect3"
       is_visible="true"
       lpeversion="1.2"
       lpesatellites=""
       mode="vertical"
       discard_orig_path="false"
       fuse_paths="false"
       oposite_fuse="false"
       split_items="false"
       split_open="false"
       link_styles="false" /><inkscape:path-effect
       effect="mirror_symmetry"
       start_point="105,0"
       end_point="105,297"
       center_point="105,148.5"
       id="path-effect1"
       is_visible="true"
       lpeversion="1.2"
       lpesatellites=""
       mode="vertical"
       discard_orig_path="false"
       fuse_paths="false"
       oposite_fuse="false"
       split_items="false"
       split_open="false"
       link_styles="false" /></defs><g
     inkscape:label="Layer 1"
     inkscape:groupmode="layer"
     id="layer1"
     transform="translate(-75.285352,-32.823319)"><path
       id="path1"
       style="fill:#555555;stroke-width:1.1;stroke-linejoin:round"
       d="m 104.99979,32.823319 c -1.82731,0 -8.782924,8.174492 -8.782924,18.950782 v 22.15782 l 2.66392,4.066419 v 0.621151 l -0.487309,0.595312 v 28.239107 c -0.340459,0.29807 -0.299723,0.89783 -0.299723,1.30328 v 4.05246 c 0,0.85659 0.540326,1.10381 0.773596,1.10381 v 15.54117 l -0.464054,0.11782 v 99.63216 l -0.35295,0.56896 v 30.5754 h 0.291972 v 0.87695 h 0.49506 v 2.33939 h 1.063501 c -0.677649,1.00107 -0.971751,1.82375 -1.07797,3.93567 h 4.355811 l -0.0553,0.5917 h 1.87637 1.87689 l -0.0553,-0.5917 h 4.3558 c -0.10622,-2.11192 -0.40032,-2.9346 -1.07797,-3.93567 h 1.06299 v -2.33939 h 0.49557 v -0.87695 h 0.29198 v -30.5754 l -0.35295,-0.56896 v -99.63216 l -0.46406,-0.11782 v -15.54117 c 0.23327,0 0.77308,-0.24722 0.77308,-1.10381 v -4.05246 c 0,-0.40545 0.0413,-1.00521 -0.29921,-1.30328 V 79.214803 l -0.4873,-0.595312 V 77.99834 l 2.66392,-4.066419 v -22.15782 c 0,-10.77629 -6.95614,-18.950782 -8.78345,-18.950782 z"
       sodipodi:nodetypes="sscccccsscccccccccccccccccccccccccccccsscccccss" /><path
       id="path2"
       style="fill:#555555;fill-opacity:0.98702;stroke-width:1.1;stroke-linejoin:round"
       d="m 99.512789,245.92573 -5.434294,6.65179 0.0832,0.19172 -4.511869,5.47253 0.03411,0.14986 -5.099947,6.36706 0.0083,0.19895 -5.862692,7.14788 -0.04548,0.24133 c 0,0 -2.040263,1.15628 -2.762622,1.58544 -0.722349,0.42913 -0.679147,1.85584 -0.583427,1.95543 0.0957,0.0996 3.098607,0.096 3.264917,0 0.16632,-0.096 18.491577,-10.15971 22.454445,-12.26902 1.04786,-0.55775 1.42987,-2.06194 1.4304,-3.96668 l -2.794143,0.72295 h -1.304313 l -16.525089,9.94307 3.517098,-4.66587 0.217558,-0.0703 5.157824,-6.48591 0.182935,-0.0553 4.235917,-5.31906 0.24753,-0.0346 4.744933,-5.7459 c -0.369493,-1.18453 -0.654743,-2.01538 -0.654743,-2.01538 z m 10.974011,0 c 0,0 -0.28525,0.83085 -0.65474,2.01538 l 4.74493,5.7459 0.24753,0.0346 4.23591,5.31906 0.18294,0.0553 5.15782,6.48591 0.21756,0.0703 3.5171,4.66587 -16.52509,-9.94307 h -1.30431 l -2.79415,-0.72295 c 5.3e-4,1.90474 0.38255,3.40893 1.4304,3.96668 3.96287,2.10931 22.28813,12.17302 22.45445,12.26902 0.16631,0.096 3.16921,0.0996 3.26491,0 0.0957,-0.0996 0.13893,-1.5263 -0.58342,-1.95543 -0.72236,-0.42916 -2.76262,-1.58544 -2.76262,-1.58544 l -0.0455,-0.24133 -5.86269,-7.14788 0.008,-0.19895 -5.09995,-6.36706 0.0341,-0.14986 -4.51187,-5.47253 0.0832,-0.19172 -5.4343,-6.65179 z" /></g></svg>
