<?xml version="1.0" encoding="UTF-8" standalone="no"?>
<!-- Created with Inkscape (http://www.inkscape.org/) -->

<svg
   xmlns:dc="http://purl.org/dc/elements/1.1/"
   xmlns:cc="http://creativecommons.org/ns#"
   xmlns:rdf="http://www.w3.org/1999/02/22-rdf-syntax-ns#"
   xmlns:svg="http://www.w3.org/2000/svg"
   xmlns="http://www.w3.org/2000/svg"
   xmlns:sodipodi="http://sodipodi.sourceforge.net/DTD/sodipodi-0.dtd"
   xmlns:inkscape="http://www.inkscape.org/namespaces/inkscape"
   width="1347.8066"
   height="2973.918"
   viewBox="0 0 356.60716 786.84915"
   version="1.1"
   id="svg8"
   inkscape:version="0.92.4 (5da689c313, 2019-01-14)"
   sodipodi:docname="Space_Shuttle_Fully_Assembled-front.svg"
   inkscape:export-filename="G:\Pictures\My Pictures\Vectors and SVGs\Spacecraft\Space Shuttle.png"
   inkscape:export-xdpi="96"
   inkscape:export-ydpi="96">
  <defs
     id="defs2">
    <inkscape:path-effect
       oposite_fuse="false"
       fuse_paths="false"
       discard_orig_path="false"
       mode="vertical"
       is_visible="true"
       id="path-effect1066"
       center_point="264.58333,-99.87502"
       end_point="264.58333,296.99998"
       start_point="264.58333,-496.75002"
       effect="mirror_symmetry" />
    <inkscape:path-effect
       effect="mirror_symmetry"
       start_point="1000,-2.1484127e-13"
       end_point="1000,3000"
       center_point="1000,1500"
       id="path-effect1041"
       is_visible="true"
       mode="vertical"
       discard_orig_path="false"
       fuse_paths="false"
       oposite_fuse="false" />
    <inkscape:path-effect
       effect="mirror_symmetry"
       start_point="1000,-2.1484127e-13"
       end_point="1000,3000"
       center_point="1000,1500"
       id="path-effect1034"
       is_visible="true"
       mode="vertical"
       discard_orig_path="false"
       fuse_paths="false"
       oposite_fuse="false" />
    <inkscape:path-effect
       oposite_fuse="false"
       fuse_paths="false"
       discard_orig_path="false"
       mode="vertical"
       is_visible="true"
       id="path-effect1022"
       center_point="329.65021,-58.290042"
       end_point="329.65021,338.58496"
       start_point="329.65021,-455.16504"
       effect="mirror_symmetry" />
    <inkscape:path-effect
       effect="mirror_symmetry"
       start_point="329.65021,-455.16504"
       end_point="329.65021,338.58496"
       center_point="329.65021,-58.290042"
       id="path-effect1014"
       is_visible="true"
       mode="vertical"
       discard_orig_path="false"
       fuse_paths="false"
       oposite_fuse="false" />
    <inkscape:path-effect
       oposite_fuse="false"
       fuse_paths="false"
       discard_orig_path="false"
       mode="vertical"
       is_visible="true"
       id="path-effect1010"
       center_point="329.65021,-58.290042"
       end_point="329.65021,338.58496"
       start_point="329.65021,-455.16504"
       effect="mirror_symmetry" />
    <inkscape:path-effect
       effect="mirror_symmetry"
       start_point="264.58333,-496.75002"
       end_point="264.58333,296.99998"
       center_point="264.58333,-99.87502"
       id="path-effect1005"
       is_visible="true"
       mode="vertical"
       discard_orig_path="false"
       fuse_paths="false"
       oposite_fuse="false" />
    <inkscape:path-effect
       effect="mirror_symmetry"
       start_point="264.58333,-496.75002"
       end_point="264.58333,296.99998"
       center_point="264.58333,-99.87502"
       id="path-effect997"
       is_visible="true"
       mode="vertical"
       discard_orig_path="false"
       fuse_paths="false"
       oposite_fuse="false" />
    <inkscape:path-effect
       effect="mirror_symmetry"
       start_point="1000,-2.1484127e-13"
       end_point="1000,3000"
       center_point="1000,1500"
       id="path-effect991"
       is_visible="true"
       mode="vertical"
       discard_orig_path="false"
       fuse_paths="false"
       oposite_fuse="false" />
    <inkscape:path-effect
       effect="mirror_symmetry"
       start_point="264.58333,-496.75002"
       end_point="264.58333,296.99998"
       center_point="264.58333,-99.87502"
       id="path-effect959"
       is_visible="true"
       mode="vertical"
       discard_orig_path="false"
       fuse_paths="false"
       oposite_fuse="false" />
    <inkscape:path-effect
       effect="mirror_symmetry"
       start_point="309.98724,-469.75827"
       end_point="235.57506,320.49605"
       center_point="272.78115,-74.631111"
       id="path-effect956"
       is_visible="true"
       mode="vertical"
       discard_orig_path="false"
       fuse_paths="false"
       oposite_fuse="false" />
    <inkscape:path-effect
       oposite_fuse="false"
       fuse_paths="false"
       discard_orig_path="false"
       mode="vertical"
       is_visible="true"
       id="path-effect943"
       center_point="329.65021,-58.290042"
       end_point="329.65021,338.58496"
       start_point="329.65021,-455.16504"
       effect="mirror_symmetry" />
    <inkscape:path-effect
       effect="mirror_symmetry"
       start_point="264.58333,-496.75002"
       end_point="264.58333,296.99998"
       center_point="264.58333,-99.87502"
       id="path-effect939"
       is_visible="true"
       mode="vertical"
       discard_orig_path="false"
       fuse_paths="false"
       oposite_fuse="false" />
    <inkscape:path-effect
       effect="mirror_symmetry"
       start_point="266.8284,-496.2823"
       end_point="266.8284,297.4677"
       center_point="266.8284,-99.407298"
       id="path-effect925"
       is_visible="true"
       mode="vertical"
       discard_orig_path="false"
       fuse_paths="false"
       oposite_fuse="false" />
    <inkscape:path-effect
       effect="mirror_symmetry"
       start_point="264.58333,-496.75002"
       end_point="264.58333,296.99998"
       center_point="264.58333,-99.87502"
       id="path-effect902"
       is_visible="true"
       mode="vertical"
       discard_orig_path="false"
       fuse_paths="false"
       oposite_fuse="false" />
    <inkscape:path-effect
       effect="mirror_symmetry"
       start_point="264.58333,-496.75002"
       end_point="264.58333,296.99998"
       center_point="264.58333,-99.87502"
       id="path-effect887"
       is_visible="true"
       mode="vertical"
       discard_orig_path="false"
       fuse_paths="false"
       oposite_fuse="false" />
    <inkscape:path-effect
       effect="mirror_symmetry"
       start_point="329.65021,-455.16504"
       end_point="329.65021,338.58496"
       center_point="329.65021,-58.290042"
       id="path-effect867"
       is_visible="true"
       mode="vertical"
       discard_orig_path="false"
       fuse_paths="false"
       oposite_fuse="false" />
  </defs>
  <sodipodi:namedview
     id="base"
     pagecolor="#505050"
     bordercolor="#666666"
     borderopacity="1.0"
     inkscape:pageopacity="0"
     inkscape:pageshadow="2"
     inkscape:zoom="0.125"
     inkscape:cx="587.66533"
     inkscape:cy="1120.0859"
     inkscape:document-units="mm"
     inkscape:current-layer="layer1"
     showgrid="false"
     borderlayer="true"
     inkscape:showpageshadow="false"
     inkscape:pagecheckerboard="true"
     units="px"
     inkscape:window-width="1600"
     inkscape:window-height="837"
     inkscape:window-x="-8"
     inkscape:window-y="-8"
     inkscape:window-maximized="1"
     inkscape:snap-global="false"
     inkscape:snap-object-midpoints="true"
     inkscape:snap-page="true"
     showguides="true"
     inkscape:guide-bbox="true"
     inkscape:snap-smooth-nodes="true"
     inkscape:snap-intersection-paths="false"
     inkscape:object-paths="false"
     fit-margin-top="0"
     fit-margin-left="0"
     fit-margin-right="0"
     fit-margin-bottom="0" />
  <metadata
     id="metadata5">
    <rdf:RDF>
      <cc:Work
         rdf:about="">
        <dc:format>image/svg+xml</dc:format>
        <dc:type
           rdf:resource="http://purl.org/dc/dcmitype/StillImage" />
        <dc:title></dc:title>
      </cc:Work>
    </rdf:RDF>
  </metadata>
  <g
     inkscape:label="Layer 1"
     inkscape:groupmode="layer"
     id="layer1"
     transform="translate(-4.2586547,493.29958)">
    <path
       style="opacity:1;fill:#ffffff;fill-opacity:1;fill-rule:nonzero;stroke:none;stroke:none;stroke-width:21.14165497;stroke-linecap:round;stroke-linejoin:round;stroke-miterlimit:4;stroke-dasharray:none;stroke-dashoffset:0;stroke-opacity:1;paint-order:normal"
       d="M 690,13.041016 C 546.18796,156.8531 462.64453,358.74453 462.64453,579.45703 v 282.25195 h -13.79297 v -41.23437 l -87.10351,-246.6543 h -0.0254 A 20.634081,20.634081 0 0 0 342.30078,560.07812 20.634081,20.634081 0 0 0 322.875,573.82031 h -0.0254 l -87.10547,246.6543 V 2130.8398 c -83.73941,80.9583 -161.460678,148.4227 -171.978515,170.8438 -25.580118,54.5299 -36.959462,99.3145 -43.462891,162.168 l 6.542969,0.4668 -10.75,70.5683 219.648437,38.8418 v 246.959 l -39.6543,131.4629 h 39.65625 v 34.8086 h 213.10743 v -34.8086 h 39.65429 l -39.65625,-131.4629 v -209.2734 l 29.86914,5.2812 c -0.34317,26.7698 -0.6154,55.1721 -1.08593,85.7285 H 514.5 c -0.0277,0.075 -0.0562,0.1475 -0.084,0.2227 a 33.367525,7.0035063 12.274869 0 0 -0.043,0.1094 33.367525,7.0035063 12.274869 0 0 19.46875,10.9179 c -3.70961,17.3533 -6.28125,37.2211 -6.28125,59.1114 a 63.82575,15.655865 0 0 0 63.82617,15.6543 63.82575,15.655865 0 0 0 63.82617,-15.6543 c 0,-9.663 -0.50946,-18.9269 -1.38672,-27.7637 a 63.82575,15.655865 0 0 0 28.65625,2.6387 c 4.02085,58.1891 7.51758,102.0019 7.51758,102.0019 0,0 3.49649,-43.8166 7.51758,-102.0098 a 63.82575,15.655865 0 0 0 28.65234,-2.6484 c -0.87835,8.8421 -1.38672,18.1118 -1.38672,27.7813 a 63.82575,15.655865 0 0 0 63.82618,15.6543 63.82575,15.655865 0 0 0 63.82421,-15.6543 c 0,-22.0468 -2.60878,-42.0417 -6.36132,-59.4825 a 7.0035063,33.367525 77.725131 0 0 18.29492,-10.5449 v 0 a 7.0035063,33.367525 77.725131 0 0 -0.0137,-0.033 c -0.0371,-0.1009 -0.0742,-0.1982 -0.11133,-0.2989 h 24.49219 v -0.049 l 13.61132,0.049 c 0,-30.5473 0.0647,-59.1434 -0.0605,-85.9062 l 28.86132,-5.1035 v 209.2734 l -39.65625,131.4629 h 39.65625 v 34.8086 h 213.10746 v -34.8086 h 39.6543 l -39.6543,-131.4629 v -246.959 l 219.6484,-38.8418 -10.748,-70.5683 6.543,-0.4668 c -6.5035,-62.8535 -17.8828,-107.6381 -43.4629,-162.168 -10.5179,-22.4212 -88.2409,-89.8854 -171.9805,-170.8438 V 820.47461 l -87.1055,-246.6543 h -0.025 a 20.634081,20.634081 0 0 0 -19.4238,-13.74219 v 0 a 20.634081,20.634081 0 0 0 -19.418,13.74219 h -0.027 l -87.10356,246.6543 v 41.23437 H 917.35547 V 579.45703 C 917.35547,358.74453 833.81208,156.8531 690,13.041016 Z M 448.85156,895.65039 h 13.79297 v 851.06051 c -4.62329,19.9415 -9.24898,39.2286 -13.79297,57.4063 z m 468.50391,0 h 13.79101 v 908.46681 c -4.54398,-18.1777 -9.16772,-37.4648 -13.79101,-57.4063 z M 788.60742,2702.4238 h 0.002 v 54.7051 a 63.82575,15.655865 0 0 1 -0.002,0 z"
       transform="matrix(0.26458333,0,0,0.26458333,0,-496.75002)"
       id="rect1180"
       inkscape:connector-curvature="0" />
  </g>
</svg>
