<?xml version="1.0" encoding="UTF-8" standalone="no"?>
<!-- Created with Inkscape (http://www.inkscape.org/) -->

<svg
   width="24"
   height="24"
   viewBox="0 0 6.3499999 6.3499999"
   version="1.1"
   id="svg1"
   xml:space="preserve"
   sodipodi:docname="download-png.svg"
   inkscape:version="1.3 (0e150ed, 2023-07-21)"
   xmlns:inkscape="http://www.inkscape.org/namespaces/inkscape"
   xmlns:sodipodi="http://sodipodi.sourceforge.net/DTD/sodipodi-0.dtd"
   xmlns="http://www.w3.org/2000/svg"
   xmlns:svg="http://www.w3.org/2000/svg"><sodipodi:namedview
     id="namedview1"
     pagecolor="#505050"
     bordercolor="#ffffff"
     borderopacity="1"
     inkscape:showpageshadow="0"
     inkscape:pageopacity="0"
     inkscape:pagecheckerboard="1"
     inkscape:deskcolor="#505050"
     inkscape:document-units="mm"
     inkscape:zoom="16.000001"
     inkscape:cx="12.374999"
     inkscape:cy="12.499999"
     inkscape:window-width="1600"
     inkscape:window-height="837"
     inkscape:window-x="-8"
     inkscape:window-y="-8"
     inkscape:window-maximized="1"
     inkscape:current-layer="layer1"
     showgrid="false" /><defs
     id="defs1" /><g
     inkscape:label="Layer 1"
     inkscape:groupmode="layer"
     id="layer1"><path
       id="text1"
       style="font-size:2.20745px;line-height:1.25;font-family:Serif;-inkscape-font-specification:Serif;letter-spacing:0px;word-spacing:0px;fill:#fefefe;stroke-width:0.0663178;fill-opacity:1"
       d="m 1.6130168,3.9234206 c -0.1130204,0 -0.2128034,0.023024 -0.2957324,0.070412 v -0.00234 c -0.034969,0.019802 -0.06455,0.048356 -0.093883,0.077454 v -0.05164 a 0.05542225,0.05542225 0 0 0 -0.05633,-0.056325 H 0.70000182 a 0.05542225,0.05542225 0 0 0 -0.05633,0.056329 v 0.138478 a 0.05542225,0.05542225 0 0 0 0.05633,0.05633 H 0.87368585 V 5.7517978 H 0.70000182 a 0.05542225,0.05542225 0 0 0 -0.05633,0.05633 v 0.1384778 a 0.05542225,0.05542225 0 0 0 0.05633,0.05633 H 1.3923911 a 0.05542225,0.05542225 0 0 0 0.056329,-0.05633 V 5.8081278 a 0.05542225,0.05542225 0 0 0 -0.056329,-0.05633 h -0.16899 V 5.3434054 c 0.029235,0.028921 0.059272,0.055091 0.093883,0.075108 a 0.05542225,0.05542225 0 0 0 0,0.00234 c 0.08244,0.046126 0.1824112,0.068066 0.2957325,0.068066 0.1840925,0 0.3416996,-0.077996 0.4576811,-0.2229729 C 2.1868406,5.1198364 2.2443821,4.9298654 2.2443821,4.7049987 2.2443821,4.480132 2.1868581,4.2915945 2.0706982,4.1463932 1.9547165,4.0014168 1.7971093,3.9234206 1.6130168,3.9234206 Z m 1.6875524,0 c -0.1023391,0 -0.196485,0.025825 -0.2769558,0.0798 -0.031211,0.021192 -0.058196,0.051037 -0.084494,0.0798 V 4.0173039 A 0.05542225,0.05542225 0 0 0 2.8827884,3.9609744 H 2.4180662 a 0.05542225,0.05542225 0 0 0 -0.05633,0.056329 v 0.1384779 a 0.05542225,0.05542225 0 0 0 0.05633,0.05633 h 0.171337 V 5.2002334 H 2.4298015 a 0.05542225,0.05542225 0 0 0 -0.05633,0.05633 v 0.1384779 a 0.05542225,0.05542225 0 0 0 0.05633,0.05633 h 0.6618774 a 0.05542225,0.05542225 0 0 0 0.05633,-0.05633 V 5.2565634 a 0.05542225,0.05542225 0 0 0 -0.05633,-0.05633 H 2.9391184 v -0.572688 c 0,-0.14764 0.027067,-0.2525195 0.075108,-0.3192033 0.048051,-0.067416 0.1120238,-0.098577 0.2088904,-0.098577 0.093577,0 0.1415923,0.022829 0.1713369,0.068066 0.028682,0.043021 0.053983,0.1532816 0.053983,0.316856 v 0.605547 H 3.2982222 a 0.05542225,0.05542225 0 0 0 -0.056329,0.05633 V 5.395042 a 0.05542225,0.05542225 0 0 0 0.056329,0.05633 h 0.6571832 a 0.05542225,0.05542225 0 0 0 0.05633,-0.05633 V 5.256563 a 0.05542225,0.05542225 0 0 0 -0.05633,-0.05633 H 3.8004976 V 4.5195795 c 0,-0.1920473 -0.038211,-0.3415793 -0.1220483,-0.4435986 C 3.5946349,3.9739897 3.4632967,3.9234206 3.3005692,3.9234206 Z m 1.4387614,0 c -0.1848806,0 -0.3417904,0.078109 -0.457681,0.2229729 -0.1159143,0.144893 -0.1760314,0.3333372 -0.176031,0.5586055 0,0.2252684 0.060133,0.4151466 0.176031,0.5609528 0.1166952,0.1447024 0.2735885,0.2229728 0.457681,0.2229728 0.1133208,0 0.2118589,-0.0219 0.2933853,-0.068066 a 0.05542225,0.05542225 0 0 0 0,-0.00234 c 0.034985,-0.019992 0.066477,-0.046113 0.096231,-0.075108 v 0.021123 c 1e-7,0.1620554 -0.031258,0.271888 -0.084495,0.3356328 -0.052407,0.064286 -0.1359637,0.098577 -0.2652203,0.098577 -0.1012389,0 -0.1717584,-0.017642 -0.2159315,-0.049289 -0.044321,-0.031753 -0.075385,-0.082184 -0.089189,-0.1619486 a 0.05542225,0.05542225 0 0 0 -0.053983,-0.04695 H 4.2957322 a 0.05542225,0.05542225 0 0 0 -0.05633,0.056329 V 5.885576 a 0.05542225,0.05542225 0 0 0 0.035206,0.051637 c 0.080214,0.034638 0.1626947,0.058066 0.2487908,0.075106 0.085982,0.017017 0.1754111,0.028164 0.2699144,0.028164 0.2111154,0 0.3857985,-0.058168 0.50697,-0.1783782 C 5.4214488,5.7428685 5.4786617,5.5722025 5.4786617,5.3645291 V 4.2121118 h 0.1713369 a 0.05542225,0.05542225 0 0 0 0.05633,-0.056329 V 4.0173039 a 0.05542225,0.05542225 0 0 0 -0.05633,-0.056329 H 5.1852763 a 0.05542225,0.05542225 0 0 0 -0.05633,0.056329 v 0.049288 c -0.029807,-0.029102 -0.060952,-0.055366 -0.096231,-0.075106 v 0.00234 C 4.9507011,3.9464028 4.8523516,3.9234206 4.7393306,3.9234206 Z M 1.5402572,4.1839468 c 0.1069456,0 0.1741624,0.036471 0.2276671,0.1197008 0.053783,0.082515 0.084494,0.2164869 0.084494,0.4013511 0,0.1839733 -0.030502,0.3177721 -0.084494,0.4013512 -0.053471,0.083919 -0.1204592,0.1197006 -0.2276671,0.1197006 -0.1078305,0 -0.1811499,-0.033243 -0.2347082,-0.1056187 C 1.2524722,5.046998 1.2234008,4.9319847 1.2234008,4.7730643 V 4.6369336 c 0,-0.1580209 0.028897,-0.2713442 0.082147,-0.3450211 C 1.3593293,4.218508 1.432879,4.1839462 1.5402572,4.1839468 Z m 3.2718331,0 c 0.1073771,0 0.1792775,0.034521 0.232361,0.1079663 0.054158,0.073921 0.084494,0.1873328 0.084494,0.3450211 v 0.1361307 c 0,0.1585897 -0.030512,0.2736898 -0.084494,0.3473683 -0.052862,0.072414 -0.1245306,0.1056187 -0.232361,0.1056187 -0.1081734,0 -0.1757226,-0.035662 -0.2300141,-0.1197008 C 4.5286201,5.0224564 4.4975807,4.8888056 4.4975807,4.705 c 0,-0.184697 0.031248,-0.3185215 0.084496,-0.4013512 0.054328,-0.083352 0.1221004,-0.1197007 0.2300141,-0.1197007 z" /><path
       id="rect1"
       style="fill:none;stroke:#f5f5f5;stroke-width:0.463897;stroke-linecap:round;stroke-linejoin:round;stroke-dasharray:none;paint-order:markers stroke fill"
       d="M 4.4960058,1.9722138 3.1751814,3.2930382 1.854357,1.9722138"
       sodipodi:nodetypes="ccc" /><path
       style="fill:none;stroke:#f5f5f5;stroke-width:0.463897;stroke-linecap:round;stroke-linejoin:round;stroke-dasharray:none;stroke-opacity:1;paint-order:markers stroke fill"
       d="M 3.1751815,3.1936803 V 0.54146055"
       id="path2"
       sodipodi:nodetypes="cc" /></g></svg>
