<?xml version="1.0" encoding="UTF-8" standalone="no"?>
<!-- Created with Inkscape (http://www.inkscape.org/) -->

<svg
   width="16"
   height="16"
   viewBox="0 0 4.2333333 4.2333333"
   version="1.1"
   id="svg1"
   inkscape:version="1.3 (0e150ed, 2023-07-21)"
   sodipodi:docname="easytype-enabled.svg"
   xmlns:inkscape="http://www.inkscape.org/namespaces/inkscape"
   xmlns:sodipodi="http://sodipodi.sourceforge.net/DTD/sodipodi-0.dtd"
   xmlns="http://www.w3.org/2000/svg"
   xmlns:svg="http://www.w3.org/2000/svg">
  <sodipodi:namedview
     id="namedview1"
     pagecolor="#505050"
     bordercolor="#ffffff"
     borderopacity="1"
     inkscape:showpageshadow="0"
     inkscape:pageopacity="0"
     inkscape:pagecheckerboard="1"
     inkscape:deskcolor="#505050"
     inkscape:document-units="mm"
     inkscape:zoom="20.59375"
     inkscape:cx="7.4537178"
     inkscape:cy="8.6433991"
     inkscape:window-width="1600"
     inkscape:window-height="837"
     inkscape:window-x="-8"
     inkscape:window-y="-8"
     inkscape:window-maximized="1"
     inkscape:current-layer="layer1" />
  <defs
     id="defs1" />
  <g
     inkscape:label="Layer 1"
     inkscape:groupmode="layer"
     id="layer1">
    <path
       id="rect3"
       style="fill:#06ac06;fill-opacity:0.30000001;stroke-width:0.3;stroke-linecap:round;stroke-linejoin:round;stroke:#33d733;stroke-opacity:1;stroke-dasharray:none"
       d="M 0.52968343 0.1694987 C 0.33019624 0.1694987 0.1694987 0.33019624 0.1694987 0.52968343 L 0.1694987 3.7036499 C 0.1694987 3.9031371 0.33019624 4.0638346 0.52968343 4.0638346 L 3.7036499 4.0638346 C 3.9031371 4.0638346 4.0638346 3.9031371 4.0638346 3.7036499 L 4.0638346 0.52968343 C 4.0638346 0.33019624 3.9031371 0.1694987 3.7036499 0.1694987 L 0.52968343 0.1694987 z M 1.2107788 0.49299316 L 2.4742676 0.49299316 C 2.6737548 0.49299316 2.8344523 0.6536907 2.8344523 0.8531779 L 2.8344523 2.732133 C 2.8344523 2.9316202 2.6737548 3.0923177 2.4742676 3.0923177 L 1.2107788 3.0923177 C 1.0112916 3.0923177 0.85059408 2.9316202 0.85059408 2.732133 L 0.85059408 0.8531779 C 0.85059408 0.6536907 1.0112916 0.49299316 1.2107788 0.49299316 z " />
    <rect
       style="fill:#333333;fill-opacity:1;stroke:none;stroke-width:0.3;stroke-linecap:round;stroke-linejoin:round;stroke-opacity:1"
       id="rect2"
       width="1.9562286"
       height="2.442265"
       x="0.88352859"
       y="0.55240655"
       ry="0" />
    <path
       id="rect1"
       style="fill:#3fff3f;fill-opacity:1;stroke:none;stroke-width:0.293616;stroke-linecap:round;stroke-linejoin:round;stroke-dasharray:none;stroke-opacity:1"
       d="m 0.52201865,0.1694987 c -0.19524208,0 -0.35251995,0.15727787 -0.35251995,0.35251995 V 3.1343078 c 0,0.1952421 0.15727787,0.35252 0.35251995,0.35252 H 3.2865438 c 0.1952421,0 0.35252,-0.1572779 0.35252,-0.35252 V 0.52201865 c 0,-0.19524208 -0.1572779,-0.35251995 -0.35252,-0.35251995 z M 1.1129632,0.71427378 H 2.5265067 V 1.1473797 H 1.6307866 V 1.5224208 H 2.3941952 V 1.9560027 H 1.6307866 v 0.4302502 h 0.928084 V 2.8198347 H 1.1129632 Z"
       sodipodi:nodetypes="sssssssssccccccccccccc" />
  </g>
</svg>
