<?xml version="1.0" encoding="UTF-8" standalone="no"?>
<!-- Created with Inkscape (http://www.inkscape.org/) -->

<svg
   width="36"
   height="24"
   viewBox="0 0 9.5249999 6.3499999"
   version="1.1"
   id="svg1"
   xml:space="preserve"
   sodipodi:docname="eye.svg"
   inkscape:version="1.3 (0e150ed6c4, 2023-07-21)"
   xmlns:inkscape="http://www.inkscape.org/namespaces/inkscape"
   xmlns:sodipodi="http://sodipodi.sourceforge.net/DTD/sodipodi-0.dtd"
   xmlns="http://www.w3.org/2000/svg"
   xmlns:svg="http://www.w3.org/2000/svg"><sodipodi:namedview
     id="namedview1"
     pagecolor="#505050"
     bordercolor="#ffffff"
     borderopacity="1"
     inkscape:showpageshadow="0"
     inkscape:pageopacity="0"
     inkscape:pagecheckerboard="1"
     inkscape:deskcolor="#505050"
     inkscape:document-units="mm"
     inkscape:zoom="8"
     inkscape:cx="11.4375"
     inkscape:cy="19.0625"
     inkscape:window-width="1600"
     inkscape:window-height="837"
     inkscape:window-x="-8"
     inkscape:window-y="-8"
     inkscape:window-maximized="1"
     inkscape:current-layer="layer1"
     showgrid="false" /><defs
     id="defs1" /><g
     inkscape:label="Layer 1"
     inkscape:groupmode="layer"
     id="layer1"><path
       id="path6"
       style="fill:none;stroke:#f5f5f5;stroke-width:0.8;stroke-linecap:round;stroke-linejoin:round;stroke-dasharray:none;stroke-opacity:1;paint-order:markers stroke fill"
       d="m 8.9510975,3.1749999 c 0,0 -1.2575429,2.7092585 -4.187491,2.7092585 -2.8464175,0 -4.18749114,-2.7092585 -4.18749114,-2.7092585 0,0 1.34107364,-2.70925829 4.18749114,-2.70925829 2.8443903,0 4.187491,2.70925829 4.187491,2.70925829 z"
       sodipodi:nodetypes="cscsc" /><path
       id="path7"
       style="fill:#f5f5f5;fill-opacity:1;stroke:none;stroke-width:2.28409;stroke-linecap:round;stroke-linejoin:round;stroke-dasharray:none;stroke-opacity:1;paint-order:markers stroke fill"
       d="M 4.7625,1.4484904 A 1.7266561,1.7266561 0 0 0 4.2667926,1.5220583 0.97929976,0.97929976 0 0 1 4.5085157,2.166069 0.97929976,0.97929976 0 0 1 3.5293622,3.1452225 0.97929976,0.97929976 0 0 1 3.047084,3.0161868 1.7266561,1.7266561 0 0 0 3.0359904,3.175 1.7266561,1.7266561 0 0 0 4.7625,4.9015096 1.7266561,1.7266561 0 0 0 6.4890096,3.175 1.7266561,1.7266561 0 0 0 4.7625,1.4484904 Z" /></g></svg>
