<?xml version="1.0" encoding="UTF-8" standalone="no"?>
<!-- Created with Inkscape (http://www.inkscape.org/) -->

<svg
   width="24"
   height="24"
   viewBox="0 0 6.3499999 6.35"
   version="1.1"
   id="svg1"
   inkscape:version="1.4 (86a8ad7, 2024-10-11)"
   sodipodi:docname="labels.svg"
   xmlns:inkscape="http://www.inkscape.org/namespaces/inkscape"
   xmlns:sodipodi="http://sodipodi.sourceforge.net/DTD/sodipodi-0.dtd"
   xmlns="http://www.w3.org/2000/svg"
   xmlns:svg="http://www.w3.org/2000/svg">
  <sodipodi:namedview
     id="namedview1"
     pagecolor="#505050"
     bordercolor="#ffffff"
     borderopacity="1"
     inkscape:showpageshadow="0"
     inkscape:pageopacity="0"
     inkscape:pagecheckerboard="1"
     inkscape:deskcolor="#505050"
     inkscape:document-units="mm"
     showguides="true"
     inkscape:zoom="26.56785"
     inkscape:cx="23.599952"
     inkscape:cy="13.569032"
     inkscape:window-width="3440"
     inkscape:window-height="1377"
     inkscape:window-x="-8"
     inkscape:window-y="-8"
     inkscape:window-maximized="1"
     inkscape:current-layer="layer1" />
  <defs
     id="defs1" />
  <g
     inkscape:label="Layer 1"
     inkscape:groupmode="layer"
     id="layer1">
    <rect
       style="fill:#ffffff;fill-opacity:0.202648;stroke:none;stroke-width:0.7;stroke-linecap:round;stroke-linejoin:round;stroke-dasharray:none;paint-order:markers stroke fill"
       id="rect5"
       width="6.2278166"
       height="3.8331997"
       x="0.06109171"
       y="1.2584001"
       ry="0.3239283" />
    <path
       id="text1"
       style="font-weight:bold;font-size:2.47294px;font-family:Sans;-inkscape-font-specification:'Sans Bold';text-align:center;letter-spacing:0px;word-spacing:0px;text-anchor:middle;fill:#f5f5f5;stroke-width:3.44285;stroke-opacity:0.268839;paint-order:markers stroke fill"
       d="m 1.6265346,1.9379561 c -0.017039,-2.97e-5 -0.032415,0.010222 -0.038942,0.025961 L 0.7049178,4.354929 c -0.0104888,0.02741 0.009596,0.056866 0.0389416,0.057115 h 0.6204688 c 0.017695,-3.817e-4 0.033259,-0.01179 0.038941,-0.028558 L 1.561632,3.929168 h 0.8229649 l 0.1583625,0.4543182 c 0.00569,0.016761 0.021247,0.028175 0.038942,0.028557 h 0.6360453 c 0.029346,-2.484e-4 0.04943,-0.029705 0.038942,-0.057113 L 2.3742125,1.9639175 c -0.00653,-0.01574 -0.021903,-0.025991 -0.038942,-0.025961 z m 1.9340975,0 c -0.022819,2.907e-4 -0.041247,0.018718 -0.041538,0.041538 v 2.3910115 c 2.907e-4,0.02282 0.018719,0.041247 0.041538,0.041538 h 1.0436337 c 0.1756339,-2e-7 0.3210156,-0.012734 0.4387417,-0.044134 0.1190369,-0.031444 0.2290789,-0.087435 0.327109,-0.1609584 0.086226,-0.063535 0.1535108,-0.1446054 0.202496,-0.2414376 0.050435,-0.097432 0.075287,-0.205963 0.075287,-0.3271092 3e-7,-0.1674478 -0.048136,-0.3071329 -0.147978,-0.4127806 C 5.4193669,3.1393822 5.3093262,3.0815079 5.1831974,3.0438964 5.2661225,2.9960451 5.3370079,2.9385383 5.3882897,2.8647653 5.4538434,2.7693111 5.4895379,2.6585011 5.4895379,2.5350602 5.4895381,2.4291917 5.4657459,2.3333151 5.4168479,2.2494887 5.3684499,2.1633189 5.2928182,2.0984771 5.1961775,2.0495889 5.1047946,2.0038972 5.0105634,1.9722633 4.9157983,1.9587252 4.823255,1.9453455 4.6837922,1.9379564 4.4900372,1.9379564 Z m 0.6542182,0.521817 h 0.018173 c 0.1208061,0 0.2125235,4.863e-4 0.277783,0.00259 8.637e-4,2.66e-5 0.00173,2.66e-5 0.00259,0 0.06347,0.00101 0.1138917,0.010992 0.1531701,0.025961 0.042893,0.016428 0.066228,0.038203 0.080479,0.067498 8.637e-4,2.66e-5 0.00173,2.66e-5 0.00259,0 0.01781,0.034683 0.025961,0.069326 0.025961,0.1012481 0,0.046531 -0.00867,0.085423 -0.023365,0.1194211 -0.012162,0.025915 -0.040201,0.051431 -0.088267,0.07269 -0.031223,0.014347 -0.082419,0.025486 -0.1479779,0.028557 -0.067746,0.00318 -0.1472353,0.0052 -0.2440339,0.0052 H 4.2148419 Z M 1.9718165,2.7193833 2.2080619,3.4073509 H 1.735571 Z m 2.2430338,0.6594104 h 0.093459 c 0.092347,0 0.1809981,-0.00106 0.2648025,0 0.082031,0.00104 0.1470647,0.011099 0.1895157,0.023365 0.064734,0.018636 0.1059031,0.044512 0.1272089,0.075288 -2.66e-5,8.637e-4 -2.66e-5,0.00173 0,0.00259 0.022519,0.030562 0.036346,0.07724 0.036346,0.1479779 0,0.052082 -0.010541,0.097348 -0.031153,0.1349974 C 4.8777874,3.795144 4.8425734,3.824027 4.7833974,3.848683 4.7257454,3.87311 4.6614229,3.88662 4.5912857,3.887625 4.5164737,3.888695 4.3931365,3.890215 4.2200428,3.890215 h -0.0052 z"
       sodipodi:nodetypes="cccccccccccccccccccscccscccscccsccscccccscccscccccccsscccsccsscc" />
  </g>
</svg>
