<?xml version="1.0" encoding="UTF-8" standalone="no"?>
<!-- Created with Inkscape (http://www.inkscape.org/) -->

<svg
   width="24"
   height="24"
   viewBox="0 0 6.3499999 6.3499999"
   version="1.1"
   id="svg1"
   xml:space="preserve"
   sodipodi:docname="x.svg"
   inkscape:version="1.3 (0e150ed6c4, 2023-07-21)"
   xmlns:inkscape="http://www.inkscape.org/namespaces/inkscape"
   xmlns:sodipodi="http://sodipodi.sourceforge.net/DTD/sodipodi-0.dtd"
   xmlns="http://www.w3.org/2000/svg"
   xmlns:svg="http://www.w3.org/2000/svg"><sodipodi:namedview
     id="namedview1"
     pagecolor="#505050"
     bordercolor="#ffffff"
     borderopacity="1"
     inkscape:showpageshadow="0"
     inkscape:pageopacity="0"
     inkscape:pagecheckerboard="1"
     inkscape:deskcolor="#505050"
     inkscape:document-units="mm"
     inkscape:zoom="22.627417"
     inkscape:cx="13.700194"
     inkscape:cy="10.84967"
     inkscape:window-width="1600"
     inkscape:window-height="837"
     inkscape:window-x="-8"
     inkscape:window-y="-8"
     inkscape:window-maximized="1"
     inkscape:current-layer="layer1"
     showgrid="false"
     showguides="true" /><defs
     id="defs1"><inkscape:perspective
       sodipodi:type="inkscape:persp3d"
       inkscape:vp_x="0 : 3.175 : 1"
       inkscape:vp_y="-1.8369095e-13 : 1000 : 0"
       inkscape:vp_z="6.3499999 : 3.175 : 1"
       inkscape:persp3d-origin="3.175 : 2.1166666 : 1"
       id="perspective1" /></defs><g
     inkscape:label="Layer 1"
     inkscape:groupmode="layer"
     id="layer1"><path
       id="path6"
       style="fill:none;stroke:#f5f5f5;stroke-width:0;stroke-linecap:round;stroke-linejoin:round;stroke-dasharray:none;stroke-opacity:1;paint-order:markers stroke fill"
       d="M 1.9999019,1.2297692 0.90296852,1.863084 0.90266945,4.4869302 3.1751364,5.7985944 5.4470309,4.4869155 5.4473299,1.8630694 4.3815015,1.2295611"
       sodipodi:nodetypes="ccccccc" /><path
       id="path20"
       style="color:#000000;fill:#f5f5f5;stroke-linecap:round;stroke-linejoin:round;-inkscape-stroke:none;paint-order:markers stroke fill"
       d="M 5.5898397 0.162264 A 0.599195 0.599195 0 0 0 5.1660929 0.33796387 L 3.175 2.32854 L 1.1844238 0.33796387 A 0.599195 0.599195 0 0 0 0.33693034 0.33796387 A 0.599195 0.599195 0 0 0 0.33693034 1.1833903 L 2.32854 3.175 L 0.33796387 5.1660929 A 0.599195 0.599195 0 0 0 0.33796387 6.0135864 A 0.599195 0.599195 0 0 0 1.1833903 6.0135864 L 3.175 4.02146 L 5.1671265 6.0135864 A 0.599195 0.599195 0 0 0 6.0125529 6.0135864 A 0.599195 0.599195 0 0 0 6.1882528 5.5898397 A 0.599195 0.599195 0 0 0 6.0125529 5.1660929 L 4.02146 3.175 L 6.0135864 1.1833903 A 0.599195 0.599195 0 0 0 6.0135864 0.33796387 A 0.599195 0.599195 0 0 0 5.5898397 0.162264 z " /></g></svg>
