<?xml version="1.0" encoding="UTF-8" standalone="no"?>
<!-- Created with Inkscape (http://www.inkscape.org/) -->

<svg
   xmlns:dc="http://purl.org/dc/elements/1.1/"
   xmlns:cc="http://creativecommons.org/ns#"
   xmlns:rdf="http://www.w3.org/1999/02/22-rdf-syntax-ns#"
   xmlns:svg="http://www.w3.org/2000/svg"
   xmlns="http://www.w3.org/2000/svg"
   xmlns:sodipodi="http://sodipodi.sourceforge.net/DTD/sodipodi-0.dtd"
   xmlns:inkscape="http://www.inkscape.org/namespaces/inkscape"
   width="156.55751mm"
   height="521.80487mm"
   viewBox="0 0 156.55751 521.80487"
   version="1.1"
   id="svg8"
   inkscape:version="0.92.4 (5da689c313, 2019-01-14)"
   sodipodi:docname="Ponderosa_Pine-front.svg">
  <defs
     id="defs2" />
  <sodipodi:namedview
     id="base"
     pagecolor="#ffffff"
     bordercolor="#666666"
     borderopacity="1.0"
     inkscape:pageopacity="0.0"
     inkscape:pageshadow="2"
     inkscape:zoom="0.24748737"
     inkscape:cx="59.030486"
     inkscape:cy="942.38034"
     inkscape:document-units="mm"
     inkscape:current-layer="layer1"
     showgrid="false"
     showguides="true"
     inkscape:guide-bbox="true"
     fit-margin-top="0"
     fit-margin-left="0"
     fit-margin-right="0"
     fit-margin-bottom="0"
     inkscape:window-width="1366"
     inkscape:window-height="713"
     inkscape:window-x="0"
     inkscape:window-y="0"
     inkscape:window-maximized="1" />
  <metadata
     id="metadata5">
    <rdf:RDF>
      <cc:Work
         rdf:about="">
        <dc:format>image/svg+xml</dc:format>
        <dc:type
           rdf:resource="http://purl.org/dc/dcmitype/StillImage" />
        <dc:title></dc:title>
      </cc:Work>
    </rdf:RDF>
  </metadata>
  <g
     inkscape:label="Layer 1"
     inkscape:groupmode="layer"
     id="layer1"
     transform="translate(6.9140444,96.91638)">
    <path
       style="fill:#ffffff;fill-opacity:1;stroke:none;stroke:none;stroke-width:0.26458332px;stroke-linecap:butt;stroke-linejoin:miter;stroke-opacity:1"
       d="m 74.300928,424.88847 c 0,-33.54234 -1.603618,-108.3778 -0.53454,-128.69029 3.741775,-0.26726 7.750818,0.80182 8.018087,2.40543 0.267269,1.60362 -1.603619,1.06908 2.939965,2.40544 4.543581,1.33633 3.207234,2.67268 2.672694,4.2763 -0.534538,1.60361 -0.6516,6.45573 -2.352493,7.40066 -1.700892,0.94493 -5.291666,4.53572 -4.91369,5.85864 0.377975,1.32292 -3.96875,3.21278 -1.700893,4.15772 2.267858,0.94496 1.889882,7.55954 3.401785,5.66965 1.511906,-1.88987 1.511906,2.83482 3.401788,4.15774 1.889879,1.32291 2.267857,4.15774 1.700892,6.04761 -0.566965,1.88989 -1.13393,6.99256 -0.188989,7.55954 0.944941,0.56695 -2.267858,9.82736 -2.267858,10.96129 0,1.13395 1.511906,3.59079 4.346729,3.77978 2.83482,0.18897 -0.377979,-1.51191 1.133927,-3.02381 1.511906,-1.51191 1.889882,-1.51191 1.889882,-1.51191 0,0 -1.889882,-3.96875 0.566962,-4.15774 2.456847,-0.189 4.346729,-1.88987 5.669645,-0.94494 1.322917,0.94494 1.700893,5.48066 3.590769,5.85862 1.88988,0.37798 7.55953,3.21281 8.69346,1.7009 1.13392,-1.51191 1.32291,-0.37798 3.77976,1.32292 2.45684,1.7009 7.18155,2.45684 7.18155,4.34673 0,1.88987 3.40178,-0.75597 5.10267,-1.13393 1.7009,-0.37798 2.45685,1.13393 3.2128,3.40178 0.75595,2.26785 3.96875,5.10267 3.2128,6.80357 -0.75595,1.7009 0.75595,5.10268 3.40178,4.7247 2.64584,-0.37796 6.04762,-1.32292 4.34673,-2.8348 -1.70089,-1.51191 1.51191,-2.64584 0.37798,-5.48066 -1.13393,-2.83483 3.96875,-7.37055 0.56696,-7.37055 -3.40178,0 0.75595,-2.26785 -3.02381,-2.45684 -3.77976,-0.189 -0.18899,-1.88987 -1.70089,-3.02382 -1.51191,-1.13393 -1.13393,-8.88243 -3.59077,-6.80355 -2.45685,2.07886 -3.96875,2.64583 -6.80358,-0.37798 -2.83482,-3.02382 0.94494,-4.53573 -2.07886,-5.66965 -3.02381,-1.13393 -2.83483,-5.66965 -5.48066,-6.61459 -2.64583,-0.94493 -0.56696,-5.29166 -4.34673,-6.80357 -3.77976,-1.51191 -1.88988,-3.21278 -1.5119,-5.29167 0.37798,-2.07886 5.48065,-2.45684 3.2128,-7.9375 -2.26786,-5.48066 -6.04762,-4.5357 -5.29167,-9.63837 0.75595,-5.1027 -2.07887,-3.5908 -0.75595,-8.69347 1.32291,-5.10267 4.53571,-1.88987 5.85863,0 1.32292,1.88989 5.10268,2.83482 6.61458,0.75597 1.51191,-2.07889 3.77976,-8.31549 2.45685,-8.12649 -1.32292,0.18899 -4.15774,0.75594 -6.99256,0.75594 -2.83482,0 -2.26786,-1.88987 -0.75595,-2.83483 1.5119,-0.94493 0.56696,-3.21278 2.83482,-4.34671 2.26785,-1.13395 5.10268,-1.88989 4.91369,-3.96875 -0.18899,-2.07888 -1.88988,-3.02381 -3.02381,-2.83482 -1.13393,0.18899 1.88988,-4.53573 -1.70089,-5.48066 -3.59078,-0.94493 -1.32292,-3.21281 -3.59078,-4.15774 -2.26786,-0.94493 -4.15774,-3.21281 -6.04762,-3.40178 -1.88988,-0.18899 -5.29166,-3.77977 -3.02381,-5.10269 2.26786,-1.32291 3.96875,-6.61458 0.37798,-5.48065 -3.59077,1.13393 -4.7247,3.59077 -6.23661,1.70089 -1.5119,-1.88988 -3.779759,-6.42559 -4.913689,-3.40178 -1.133927,3.02381 -2.83482,4.34672 -3.96875,0.56696 -1.133927,-3.77976 -5.858631,-8.50446 -7.370535,-11.1503 -1.511905,-2.64583 -3.779763,-8.88244 -3.779763,-8.88244 3.590774,0.94494 3.023812,-1.70089 2.267858,-2.83482 -0.755952,-1.13393 2.07887,-0.18899 2.834822,-1.5119 0.755952,-1.32292 2.645833,-1.32292 0.188987,-3.2128 -2.456844,-1.88988 -5.102678,-2.26786 -6.80357,-4.34673 -1.700893,-2.07887 -6.236608,-5.66964 -4.157739,-6.99256 2.078871,-1.32291 5.669642,-4.53571 7.9375,-2.07887 2.267857,2.45685 7.181548,4.9137 6.803572,6.80358 -0.377976,1.88988 0.944941,1.32291 1.511903,3.77976 0.566965,2.45684 2.078871,5.10268 1.889882,7.74851 -0.188987,2.64583 -1.511903,4.53571 -1.133927,5.66964 0.377975,1.13393 2.267857,7.74851 3.212795,9.07143 0.944941,1.32292 3.212799,7.37054 5.858634,6.04762 2.64583,-1.32292 2.26786,2.64583 4.91369,1.88988 2.64583,-0.75595 3.02381,0 5.10268,-0.18899 2.07887,-0.18899 1.70089,-1.32291 1.70089,-2.64583 0,-1.32292 -6.80357,-0.18899 -6.4256,-1.88988 0.37798,-1.70089 -0.37797,-6.80357 3.2128,-4.34673 3.59078,2.45685 3.2128,6.80357 5.10268,6.61459 1.88988,-0.18899 0.94494,-5.66965 -0.94494,-7.18155 -1.88988,-1.51191 -2.45684,-3.59078 -0.37798,-4.34673 2.07887,-0.75595 4.53572,-2.07887 4.34673,-3.2128 -0.18899,-1.13392 0.56696,-3.96875 1.13393,-6.04761 0.56696,-2.07887 1.88988,-9.44941 -1.13393,-10.20536 -3.02381,-0.75595 -4.91369,0.56696 -6.42559,-1.51191 -1.51191,-2.07887 -6.23661,-6.04762 -4.53572,-7.37053 1.70089,-1.32292 4.7247,-1.32292 6.99256,2.26786 2.26786,3.59077 5.10268,5.29166 7.9375,5.29166 2.83482,0 0.94494,2.07887 5.10268,-0.18899 4.15774,-2.26785 -0.56697,-0.56696 -3.02381,-2.26785 -2.45685,-1.7009 -5.85863,-4.91369 -2.64583,-5.29167 3.21279,-0.37798 2.64583,3.02381 5.66964,2.83482 3.02381,-0.18899 5.10268,2.45685 7.55952,0.18899 2.45685,-2.26786 2.64584,-5.10268 -0.37797,-3.96875 -3.02381,1.13393 -8.12649,0.75595 -6.99256,-0.75595 1.13393,-1.51191 3.21279,-0.94494 5.85863,-5.29167 2.64583,-4.34673 -1.88988,-5.66964 -5.66964,-5.29167 -3.77977,0.37798 0.18898,-0.75595 0.56696,-3.59077 0.37798,-2.83482 -2.83482,-3.02381 -2.83482,-4.7247 0,-1.7009 4.15774,-2.83482 2.83482,-5.85863 -1.32292,-3.02381 -3.2128,1.70089 -4.34673,-0.18899 -1.13393,-1.88988 3.2128,-1.88988 2.26786,-4.34673 -0.94494,-2.45684 -2.45684,-4.7247 0.37798,-5.66964 2.83482,-0.94494 7.18154,-0.94494 8.31547,-2.45685 1.13393,-1.5119 2.45685,-0.56696 1.32292,-3.59077 -1.13393,-3.02381 1.5119,-0.18899 3.59077,-2.26785 2.07887,-2.07888 5.10268,-5.29167 2.26786,-5.48066 -2.83482,-0.18899 -5.85863,-1.32292 -7.37054,0.75595 -1.5119,2.07887 -3.96875,-2.26786 -4.91369,0.56697 -0.94494,2.83482 -4.34672,-1.51191 -3.21279,-2.83483 1.13393,-1.32291 6.04762,-7.55952 2.83482,-7.74851 -3.2128,-0.18899 -4.34673,3.59078 -4.34673,3.59078 0,0 0.37798,-3.77977 -1.70089,-2.07887 -2.07887,1.70089 -3.02381,-1.51191 -1.32292,-2.64583 1.7009,-1.13393 1.7009,-0.37798 5.29167,-1.13393 3.59077,-0.75596 1.88988,2.07886 6.23661,2.07886 4.34672,0 5.66964,-1.32291 5.85863,-2.26785 0.18898,-0.94494 -4.53572,-2.07887 -4.15774,-3.59078 0.37797,-1.5119 -3.02381,-4.53571 1.5119,-4.53571 4.53572,0 6.99256,1.32292 8.31548,0.37798 1.32292,-0.94495 6.04762,-2.26786 2.83482,-3.77977 -3.2128,-1.5119 -3.77976,1.13393 -4.91369,0.75596 -1.13393,-0.37798 5.66964,-9.6384 2.26786,-8.50447 -3.40179,1.13393 -2.45685,6.61458 -5.85863,4.72471 -3.40179,-1.88989 -2.83482,-3.02382 -2.26786,-5.85864 0.56696,-2.83482 2.83482,-1.13393 -1.88988,-1.88988 -4.7247,-0.75595 -3.59078,-6.04762 -6.61458,-2.64583 -3.02381,3.40178 -5.66965,2.45685 -5.85864,1.32292 -0.18898,-1.13393 3.02381,-3.59078 2.83483,-4.72471 -0.18899,-1.13393 0.56696,-3.77976 4.15773,-1.88988 3.59078,1.88988 2.64584,-1.32291 2.45685,-2.83482 -0.18899,-1.5119 -3.02381,1.13393 -2.64583,-0.94494 0.37797,-2.07887 3.96875,-1.32292 2.83482,-3.96875 -1.13393,-2.64583 0.94494,-1.32292 2.07887,-3.2128 1.13392,-1.88988 4.15773,1.13393 5.29166,-1.70089 1.13393,-2.83482 -2.45684,-4.53571 -4.53571,-4.15774 -2.07887,0.37798 -5.48066,-0.56696 -5.48066,-2.645832 0,-2.078868 1.88988,-3.590774 0.94494,-5.291666 -0.94494,-1.700893 -5.29166,0.188989 -3.77976,-4.157737 1.51191,-4.346726 3.96875,-4.913691 -0.56696,-5.480656 -4.53572,-0.566965 -9.07143,-2.267857 -4.91369,-3.212798 4.15774,-0.944938 5.10268,2.456847 7.37053,0 2.26786,-2.456844 4.53572,-3.401785 0.37798,-4.535712 -4.15774,-1.13393 -3.40179,0 -6.04762,-2.078871 -2.64583,-2.078869 -0.56696,-4.346726 2.64583,-3.212796 3.2128,1.133927 4.15774,2.456844 5.48066,1.700892 1.32292,-0.755951 0.56696,-3.401784 3.2128,-3.023809 2.64583,0.377976 2.45684,0.377976 3.02381,-2.267857 0.56696,-2.645833 -0.37798,-6.047618 -1.32292,-6.614583 -0.94494,-0.566965 -1.51191,-2.834823 -3.59077,0.566965 -2.07887,3.401785 -1.51191,2.456844 -3.40179,0.755951 -1.88988,-1.700892 -3.40179,-1.13393 -5.66964,0 -2.26786,1.133928 -9.26042,-0.566965 -5.85863,-1.889881 3.40178,-1.322917 6.42559,0 8.88244,-1.322917 2.45684,-1.322917 4.34672,-1.889882 2.45684,-3.590774 -1.88988,-1.700893 -7.55952,0.188989 -9.26041,-1.133928 -1.7009,-1.322916 -3.02381,-3.779763 -2.26786,-4.724701 0.75595,-0.944941 2.07887,0 3.96875,-1.511906 1.88988,-1.511906 3.96875,-2.645833 4.91369,-3.590774 0.94494,-0.944941 3.59077,-3.023809 2.83482,-6.614583 -0.75595,-3.590775 -3.02381,0.188989 -2.83482,-2.83482 0.18899,-3.023812 0.75595,-5.291667 -1.13393,-2.456847 -3.05572,4.230389 -5.46115,3.829485 -5.32751,0.88952 0.13363,-2.939965 -0.93545,-4.409947 -2.27179,-2.939965 -1.33635,1.469983 -2.80633,2.138156 -2.93997,-1.202713 -0.13363,-3.340869 2.00452,-2.405426 2.53906,-6.147199 0.53454,-3.741773 -1.87088,-5.34539 0.26727,-5.87993 2.13816,-0.534539 4.27631,0 5.47903,-2.405425 1.20271,-2.405426 -1.06908,-2.939965 -3.47451,-0.801809 -2.40542,2.138156 -4.27631,1.469983 -4.00904,-1.069078 0.26727,-2.53906 0,-1.870887 0.66817,-4.5435819 0.66818,-2.6726953 2.6727,-1.8708867 3.60814,-3.0735996 0.93545,-1.2027129 1.46998,-4.2763124 -2.27179,-2.9399648 -3.74177,1.3363476 -1.46998,-1.0690781 -0.26727,-4.543582 1.20271,-3.4745038 -1.20271,-2.9399648 -3.0736,-1.6036171 -1.87088,1.3363476 -3.34087,-4.8108515 -5.47902,-2.8063301 -2.13816,2.0045215 -3.34087,-2.80633 -4.54359,-1.8708867 -1.20271,0.9354434 -1.60361,-3.3408688 -0.8018,-5.4790248 0.8018,-2.138157 1.33634,3.073599 3.60813,-1.603618 2.2718,-4.677216 -2.93996,0.668174 -4.81085,-1.202713 -1.87088,-1.870886 2.6727,-3.207234 4.14268,-3.875408 1.46998,-0.668174 0,-3.875408 1.06908,-6.681738 1.06908,-2.80633 -1.46998,-1.069078 -0.13364,-6.280834 1.33635,-5.211756 -1.60361,1.069078 -3.74177,0.935444 -2.13816,-0.133635 -2.80633,-1.069079 -2.40542,-2.672696 0.4009,-1.603617 -0.93545,-3.875408 -2.138161,-3.608138 -1.202713,0.267269 -5.211756,-3.0736 -5.078121,-0.133635 0.133635,2.939965 -5.34539,-1.336348 -2.405426,-2.405426 2.939965,-1.069078 6.681739,-0.668174 6.949008,-2.138156 0.26727,-1.469982 -6.548103,1.469982 -6.414469,-2.004522 0.133635,-3.474503 1.603618,-2.138156 2.80633,-4.543582 1.202713,-2.405425 4.142678,-3.608138 2.405426,-5.746294 -1.737252,-2.138157 -3.875408,-3.875409 -3.608138,-1.069078 0.267269,2.80633 -0.935444,6.280833 -2.405426,5.746294 -1.469983,-0.534539 -0.26727,-3.474503 -2.138156,-4.276312 -1.870887,-0.801809 -2.939965,0.267269 -2.672696,-2.004522 0.26727,-2.271791 -1.202713,-1.336347 -1.336347,-3.608138 -0.133635,-2.271791 -1.202713,-3.474504 0.400904,-4.543582 1.603617,-1.069078 -1.603617,-5.078121 0.534539,-6.949008 2.138156,-1.870887 4.009043,-3.207234 0.935443,-5.211756 -3.073599,-2.004521 -5.078121,-1.870886 -4.944486,-0.267269 0.133635,1.603617 -3.474504,-1.469983 -4.409947,-0.133635 -0.935443,1.336348 -0.534539,2.939965 -2.271791,0.801809 -1.737252,-2.138157 0.668174,-2.672696 -0.801809,-3.474504 -1.469982,-0.801809 3.741774,-4.543582 0.534539,-4.944486 -3.207234,-0.400905 -3.875408,0.534539 -4.142677,2.53906 -0.26727,2.004522 -4.276313,2.138156 -2.138157,-2.405426 2.138157,-4.543582 4.543582,-3.073599 3.741774,-5.211755 -0.801809,-2.138157 -4.142678,-1.870887 -3.741774,-4.009043 0.400905,-2.138157 1.202713,-3.0736 -3.207234,-2.138157 -4.409947,0.935444 -2.271791,1.336348 -3.875408,2.405426 -1.603617,1.069078 -4.677217,0.935443 -4.009043,2.405426 0.668174,1.469982 -0.801809,2.405426 -0.400904,5.211756 0.400904,2.80633 -0.400905,5.61266 -1.870887,3.875408 -1.469982,-1.737252 -1.737252,-5.078121 -3.608139,-2.939965 -1.870886,2.138156 -0.668173,4.276312 0.400905,5.87993 1.069078,1.603617 0.668174,6.147199 -1.336348,4.142677 -2.004521,-2.004521 -1.603617,-7.483546 -4.009043,-5.746295 -2.405426,1.737252 -2.271791,4.009043 -1.737252,5.87993 0.534539,1.870887 2.539061,4.810852 2.138156,6.949008 -0.400904,2.138156 2.939965,8.41899 0.400905,7.082642 -2.539061,-1.336347 -5.078121,-3.608138 -5.61266,-0.534539 -0.534539,3.0736 4.276312,3.875408 1.469982,5.61266 -2.80633,1.737252 -6.815373,-0.668174 -5.87993,1.603617 0.935444,2.271791 1.737252,5.612661 1.603618,8.151721 -0.133635,2.539061 -0.400905,4.810852 2.939964,6.414469 3.34087,1.603617 3.207235,2.80633 1.069079,2.53906 -2.138157,-0.267269 -6.815373,-3.340869 -7.082643,-4.944486 -0.267269,-1.603617 -2.53906,-2.405426 -2.672695,0.133635 -0.133635,2.53906 1.069078,5.61266 2.80633,5.479025 1.737252,-0.133635 -3.474504,0.801809 -3.207235,2.405426 0.26727,1.603617 3.741774,2.80633 6.681739,2.271791 2.939964,-0.534539 4.944486,-2.405426 8.552625,-1.336348 3.608138,1.069078 5.61266,4.142678 2.939964,5.078121 -2.672695,0.935444 -5.211755,6.548104 -6.414468,4.142678 -1.202713,-2.405426 -1.469983,-5.345391 -3.207235,-3.741774 -1.737252,1.603618 -4.810851,0.400905 -5.34539,-0.935443 -0.534539,-1.336348 -2.539061,-0.267269 -3.741774,2.004522 -1.202712,2.271791 -3.207234,7.216277 0.133635,7.483546 3.340869,0.26727 4.944486,2.004522 2.939965,3.207235 -2.004521,1.202713 -4.810851,1.202713 -5.078121,-0.534539 -0.26727,-1.737252 -3.207234,-6.548104 -3.875408,-3.875409 -0.668174,2.672696 -0.935444,5.612661 1.870887,6.414469 2.80633,0.801809 5.211755,3.207234 2.53906,3.0736 -2.672695,-0.133635 -7.082642,-4.810852 -7.216277,-3.340869 -0.133635,1.469982 4.810851,4.543582 3.474504,5.4790249 -1.336348,0.9354434 -1.737252,0.9354434 -3.608139,-1.0690779 -1.870887,-2.004522 -5.61266,-8.552625 -6.681738,-5.61266 -1.069078,2.939965 -0.26727,5.211756 2.004521,6.4144684 2.271791,1.2027129 6.815373,2.5390605 8.018086,4.6772168 1.202713,2.1381562 -2.672695,1.3363476 -1.603617,3.3408691 1.069078,2.00452141 1.469982,1.33634759 3.875408,1.60361712 C 32.339613,0.46445894 31.1369,3.6716933 29.399648,3.5380585 27.662396,3.4044237 26.994222,-0.87188869 24.321527,-0.07008011 21.648832,0.73172847 21.648832,2.2017109 22.851545,3.6716933 c 1.202712,1.4699824 3.608138,1.4699824 6.548103,1.6036171 2.939965,0.1336348 6.414469,1.8708867 7.483547,3.2072344 1.069078,1.3363476 5.479025,2.0045212 4.142678,3.7417732 -1.336348,1.737252 -3.741774,-1.069078 -3.608139,0.935444 0.133635,2.004521 3.608139,5.879929 1.603617,6.414468 -2.004521,0.534539 -2.80633,-4.009043 -5.078121,-3.608138 -2.271791,0.400904 -5.211756,-0.935444 -5.345391,-3.474504 -0.133634,-2.5390608 -0.801808,-3.2072346 -2.53906,-1.469983 -1.737252,1.737252 1.737252,4.276313 0.668174,4.810852 -1.069078,0.534539 -4.409947,-3.207235 -6.548104,-1.737252 -2.138156,1.469982 -1.336347,3.073599 1.202713,4.677217 2.539061,1.603617 6.013565,2.004521 3.474504,3.474503 -2.53906,1.469983 -2.672695,-4.543582 -6.013564,-2.405425 -3.340869,2.138156 -0.534539,-0.400905 -4.142678,-1.737252 -3.608139,-1.336348 -3.875408,2.53906 -2.138156,4.276312 1.737252,1.737252 5.746295,2.271791 5.479025,3.207235 -0.267269,0.935443 -6.147199,-3.34087 -4.677217,0.801808 1.469983,4.142678 3.474504,2.405426 6.414469,2.004522 2.939965,-0.400905 8.018086,3.875408 5.211756,4.677216 -2.80633,0.801809 -5.746295,-3.207234 -6.681738,-0.133634 -0.935444,3.073599 0.400904,4.409947 2.939964,4.142677 2.539061,-0.267269 1.603618,2.672696 -0.935443,3.0736 -2.53906,0.400904 -3.608139,-1.336348 -4.810851,0.668174 -1.202713,2.004521 -5.345391,5.879929 -0.668174,6.414468 4.677217,0.534539 10.824416,-1.069078 11.22532,-0.267269 0.400904,0.801808 -1.737252,3.474504 -3.340869,4.142677 -1.603617,0.668174 3.474504,3.0736 5.879929,-0.133634 2.405426,-3.207235 3.875409,2.405425 5.211756,1.737252 1.336348,-0.668174 2.405426,2.405425 0.26727,2.271791 -2.138156,-0.133635 -4.142678,-2.539061 -4.543582,-0.935444 -0.400904,1.603617 -3.340869,4.142678 -7.082643,2.405426 -3.741773,-1.737252 -2.672695,-4.009043 -5.61266,-3.474504 -2.939965,0.534539 0.400905,7.617182 2.80633,8.018086 2.405426,0.400904 3.741774,1.737252 4.276313,3.207234 0.534539,1.469983 1.469982,3.608139 -0.668174,2.405426 -2.138156,-1.202713 -2.405426,-0.801809 -4.409947,-1.202713 -2.004522,-0.400904 -0.400905,-4.142677 -2.939965,-3.875408 -2.539061,0.26727 -0.801809,5.479025 0.935443,6.681738 1.737252,1.202713 -0.534539,2.271791 -1.336347,2.405426 -0.801809,0.133635 -2.539061,-3.474504 -4.142678,-2.80633 -1.6036172,0.668174 -3.8754082,1.469982 -4.8108516,-2.138156 -0.9354433,-3.608139 -3.6081386,1.870886 -0.9354433,5.211756 2.6726953,3.340869 -1.3363477,3.207234 -0.6681738,5.211755 0.6681738,2.004522 1.6036171,5.078121 3.3408691,4.677217 1.7372516,-0.400904 -1.3363477,3.0736 -3.2072344,1.469982 C 3.2072343,80.645317 4.6772167,78.908065 2.4054257,79.0417 0.13363476,79.175335 0.13363476,75.433561 -2.9399648,76.636274 c -3.0735996,1.202713 -3.4745039,2.539061 -0.1336348,4.677217 3.34086913,2.138156 4.2763125,2.539061 3.87540818,4.543582 -0.40090429,2.004522 -2.67269528,2.80633 -0.53453905,4.677217 2.13815617,1.870886 1.33634767,4.009043 4.14267767,4.677217 2.80633,0.668173 5.078121,-1.069079 7.4835468,-0.668174 2.405426,0.400904 6.815373,0.267269 5.078121,1.202713 -1.737252,0.935443 -2.672695,-1.603618 -5.87993,0.400904 -3.2072339,2.004521 -4.9444859,0.534539 -7.3499116,2.138156 -2.4054258,1.603617 -4.00904293,-2.405426 -5.4790253,-1.202713 -1.4699824,1.202713 -2.8063301,3.474507 0.6681738,4.677217 3.4745038,1.20271 1.46998239,4.14268 4.8108515,2.6727 3.3408691,-1.46999 2.6726953,0.8018 1.8708867,2.40542 -0.8018086,1.60362 -2.1381562,4.67722 -4.0090429,3.87541 -1.87088673,-0.80181 -2.53906055,-1.60362 -3.0735996,-4.14268 -0.5345391,-2.53906 -3.0735996,-5.34539 -3.6081386,-3.20723 -0.5345391,2.13815 -1.737252,5.61266 2.271791,8.28535 4.0090429,2.6727 -1.3363477,2.6727 2.00452142,4.27631 3.34086908,1.60362 4.00904288,2.00453 2.13815618,2.53907 -1.87088666,0.53453 -4.0090429,0.53453 -2.80633,2.00452 1.20271287,1.46998 -0.5345391,4.54358 -1.0690781,2.27179 -0.5345391,-2.27179 -2.4054258,-5.7463 -3.8754082,-2.93997 -1.4699824,2.80633 0.6681739,5.87993 1.737252,6.41447 1.0690781,0.53454 1.0690781,4.54358 3.87540812,4.00904 2.80633008,-0.53453 2.40542578,-1.60361 4.00904288,2.13816 1.6036172,3.74177 3.6081387,2.80633 4.9444863,3.87541 1.3363476,1.06908 3.8754084,3.34087 1.4699824,3.4745 -2.4054258,0.13364 -3.4745039,-3.60814 -6.1471991,-2.53906 -2.67269532,1.06908 -4.543582,1.33635 -0.9354434,3.60814 3.6081386,2.27179 5.8799296,-0.13363 6.6817382,0.40091 0.8018083,0.53453 3.2072343,1.46998 5.4790253,-0.13364 2.271791,-1.60362 1.336348,-3.74177 4.810852,-3.74177 3.474503,0 -1.870887,1.46998 -0.935444,3.34087 0.935444,1.87088 4.276313,1.73725 1.069078,3.60813 -3.207234,1.87089 -0.935443,5.7463 1.336348,5.87993 2.271791,0.13364 -2.672695,2.6727 -4.677217,1.33635 -2.004521,-1.33635 -3.073599,3.87541 1.336348,3.34087 4.409947,-0.53454 4.409947,2.53906 2.138156,3.34087 -2.271791,0.80181 -3.741773,-3.4745 -5.87993,-2.13816 -2.138156,1.33635 1.737252,4.00905 0.801809,4.40995 -0.935443,0.40091 -2.405426,-6.1472 -4.543582,-4.27631 -2.1381562,1.87089 -3.340869,5.34539 -0.534539,6.94901 2.80633,1.60361 7.483547,2.53906 9.354433,1.60361 1.870887,-0.93544 3.34087,1.20272 0.935444,1.87089 -2.405426,0.66817 -1.870887,-1.06908 -3.741774,0.4009 -1.870886,1.46999 -4.810851,-2.93996 -6.013564,0.40091 -1.2027128,3.34087 -2.1381562,-0.66817 -3.340869,1.06908 -1.2027129,1.73725 -3.8754082,-3.47451 -6.68173824,-1.60362 -2.80633006,1.87089 -2.27179096,5.74629 1.33634764,6.68174 3.6081386,0.93544 4.1426777,3.74177 6.4144687,2.27179 2.2717909,-1.46998 0.9354433,3.87541 3.3408689,1.20271 2.405426,-2.67269 5.211756,-1.33635 6.414469,-1.73725 1.202713,-0.4009 2.80633,-4.67722 3.207234,-2.6727 0.400904,2.00453 -2.672695,2.40543 -2.672695,5.7463 0,3.34087 -1.870887,2.80633 -4.543582,2.13816 -2.672695,-0.66818 -6.5481035,-0.93545 -3.207234,2.27179 3.340869,3.20723 4.276312,-0.66818 5.746294,0.66817 1.469983,1.33635 -0.935443,0.13364 -2.672695,1.87089 -1.737252,1.73725 -1.603617,3.60814 0.668174,4.67721 2.271791,1.06908 4.009043,3.0736 4.944486,1.60362 0.935444,-1.46998 0.534539,2.27179 2.405426,1.06908 1.870887,-1.20271 -3.875408,2.80633 -1.202713,4.54358 2.672695,1.73725 0.400904,-2.00452 3.474504,-3.87541 3.0736,-1.87088 5.87993,0.13364 6.147199,-2.13815 0.26727,-2.27179 1.603617,-0.26727 2.539061,2.00452 0.935443,2.27179 4.810851,2.27179 5.879929,4.40995 1.069078,2.13815 -0.133635,4.40994 -3.207234,2.00452 -3.0736,-2.40543 0.267269,2.93996 -2.138156,3.87541 -2.405426,0.93544 -2.939965,-1.20272 -3.875408,0.93544 -0.935444,2.13815 -2.672696,-2.40543 -4.142678,-0.80181 -1.469983,1.60362 0.935443,2.40543 0.935443,3.87541 0,1.46998 -4.543582,-1.87089 -4.409947,0.4009 0.133635,2.27179 0,5.34539 3.340869,6.01357 4.142678,1.06907 -0.668174,0.4009 -0.133635,2.27179 0.534539,1.87088 2.80633,1.46998 3.875408,0.53454 1.069079,-0.93545 -1.336347,3.74177 -3.474503,3.34087 -2.138157,-0.40091 -3.474504,-2.27179 -5.211756,0 -1.737252,2.27179 -1.737252,-2.13816 -4.276313,-1.46999 -2.53906,0.66818 -3.875408,3.60814 -0.534539,4.54359 3.340869,0.93544 -0.267269,0.4009 0.400905,3.0736 0.668173,2.67269 0,4.81085 3.340869,3.4745 3.340869,-1.33635 0.801808,2.00452 3.340869,0.80181 2.53906,-1.20272 0.133635,-1.06908 0.801808,-2.6727 0.668174,-1.60361 2.271791,-5.21175 3.0736,-2.93996 0.801809,2.27179 -1.469982,3.74177 0.668174,4.40994 2.138156,0.66818 3.608138,3.87541 4.543582,2.2718 0.935443,-1.60362 -0.400905,-2.53906 0,-3.47451 0.400904,-0.93544 1.870886,2.13816 2.80633,-0.13363 0.935443,-2.27179 2.939965,0.53454 1.469982,1.73725 -1.469982,1.20271 2.138156,-0.66817 4.009043,-0.66817 1.870887,0 -0.935443,1.60361 0,3.34086 0.935443,1.73726 1.469983,4.27632 -0.133635,3.60814 -1.603617,-0.66817 -3.474504,-4.81085 -4.543582,-2.40542 -1.069078,2.40542 -1.603617,5.34539 -2.53906,3.60814 -0.935443,-1.73726 -3.340869,-3.0736 -2.80633,-0.53454 0.534539,2.53906 2.672695,1.73725 1.603617,3.60814 -1.069078,1.87088 -2.004521,-0.13364 -0.935443,2.40542 1.069078,2.53906 2.80633,7.21628 1.737252,6.01357 -1.069079,-1.20272 -4.009043,-6.41447 -5.479026,-4.81086 -1.469982,1.60362 -1.336347,2.53906 0.668174,4.67722 2.004522,2.13816 2.405426,6.41447 1.202713,5.34539 -1.202713,-1.06908 -1.469982,0.40091 0.267269,2.93997 1.737252,2.53906 -2.271791,2.53906 -3.207234,-0.40091 -0.935443,-2.93996 -2.53906,-6.68174 -2.672695,-3.87541 -0.133635,2.80633 -0.935443,1.33635 -0.26727,3.20724 0.668174,1.87088 -1.469982,2.67269 -1.069078,3.87541 0.400905,1.20271 -6.013564,-1.87089 -5.211756,0.26727 0.801809,2.13815 -0.935443,3.20723 1.336348,4.67721 2.271791,1.46998 2.138156,3.0736 5.61266,2.80633 3.474504,-0.26727 -0.133635,1.20272 2.004522,2.53906 2.138156,1.33635 -2.138157,0.40091 -1.870887,4.00905 0.267269,3.60813 -1.336348,2.80633 -1.202713,4.67721 0.133635,1.87089 1.336348,-0.13363 3.474504,1.60362 2.138156,1.73725 -0.935443,1.33635 -1.870887,2.93996 -0.935443,1.60362 -4.276312,3.34087 -4.009043,4.67722 0.26727,1.33635 -4.009043,0.40091 -5.61266,2.6727 -1.603617,2.27179 -5.8799294,2.13815 -5.8799294,3.34087 0,1.20271 -5.2117558,1.46998 -5.078121,4.54358 0.1336347,3.0736 -4.4099472,5.87993 0.534539,5.74629 4.9444863,-0.13363 7.0826424,0.26727 7.8844514,1.33635 0.801808,1.06908 3.741773,-0.13363 4.810851,1.73725 1.069078,1.87089 -1.469982,3.87541 0.26727,5.7463 1.737252,1.87088 -1.870887,2.00452 -0.534539,5.47902 1.336347,3.47451 4.276312,7.34991 -0.400905,7.48355 -4.677216,0.13363 -3.340869,4.14268 0,6.01356 3.340869,1.87089 5.61266,-1.87088 8.151721,-2.53906 2.53906,-0.66817 4.677217,0.26727 5.746295,-1.06908 1.069078,-1.33634 -0.133635,-3.34086 3.608138,-3.8754 3.741774,-0.53454 3.0736,-1.60362 4.142678,-3.34087 1.069078,-1.73725 0.801809,-0.13364 1.737252,1.33635 0.935443,1.46998 4.276312,2.13815 5.87993,-0.13364 1.603617,-2.27179 5.746295,-3.34087 4.810851,-5.61266 -0.935443,-2.27179 1.870887,-1.33635 0.801809,-3.87541 -1.069078,-2.53906 2.80633,-2.13815 0.801808,-4.94448 -2.004521,-2.80633 0.668174,-3.47451 -0.935443,-6.81538 -1.603617,-3.34087 -2.405426,-2.93996 -0.935443,-6.01356 1.469982,-3.0736 -1.202713,-3.20724 1.603617,-6.1472 2.80633,-2.93997 -0.534539,-4.40995 3.474504,-4.81085 4.009043,-0.40091 5.078121,-4.40995 6.147199,-2.80633 -0.26727,21.9161 -1.327921,61.12604 -1.327921,84.74955 0,23.62352 0,50.02535 -1.700893,58.90779 8.315476,0 16.659559,0 16.659559,0 z"
       id="path826"
       inkscape:connector-curvature="0"
       sodipodi:nodetypes="ccccssscccccsccccccccscsscccsccccccsccsccccsccssssccscssccccssccscsscsssscscccccscccscssscscccsssscscscscccsccccsccscccscssccccscscscsscsscsscsscscscccsccssssccccscccsccssccccccsscsccsssssssssssssssssssssssssssssssssssssssssssssssssssssssssssssssssssssssssssssssssssssssssssssssssssssssssssssssssssssssssssssscssscccccssscsscsscsscccsssccsccscssscscsssccsscssscssccccsssccccsccssccscccsssccccscsccssssscccsscssscsssscscccccccsscsssssscccsccc" />
  </g>
</svg>
