<?xml version="1.0" encoding="UTF-8" standalone="no"?>
<!-- Created with Inkscape (http://www.inkscape.org/) -->

<svg
   xmlns:dc="http://purl.org/dc/elements/1.1/"
   xmlns:cc="http://creativecommons.org/ns#"
   xmlns:rdf="http://www.w3.org/1999/02/22-rdf-syntax-ns#"
   xmlns:svg="http://www.w3.org/2000/svg"
   xmlns="http://www.w3.org/2000/svg"
   xmlns:sodipodi="http://sodipodi.sourceforge.net/DTD/sodipodi-0.dtd"
   xmlns:inkscape="http://www.inkscape.org/namespaces/inkscape"
   width="171.32552mm"
   height="290.34753mm"
   viewBox="0 0 171.32552 290.34753"
   version="1.1"
   id="svg8"
   inkscape:version="0.92.4 (5da689c313, 2019-01-14)"
   sodipodi:docname="Spruce-front.svg">
  <defs
     id="defs2">
    <inkscape:path-effect
       effect="simplify"
       id="path-effect5708"
       is_visible="true"
       steps="7"
       threshold="0.002"
       smooth_angles="0"
       helper_size="5"
       simplify_individual_paths="false"
       simplify_just_coalesce="false" />
    <inkscape:path-effect
       effect="simplify"
       id="path-effect829"
       is_visible="true"
       steps="7"
       threshold="0.002"
       smooth_angles="30"
       helper_size="5"
       simplify_individual_paths="false"
       simplify_just_coalesce="false" />
  </defs>
  <sodipodi:namedview
     id="base"
     pagecolor="#ffffff"
     bordercolor="#666666"
     borderopacity="1.0"
     inkscape:pageopacity="0.0"
     inkscape:pageshadow="2"
     inkscape:zoom="0.49497475"
     inkscape:cx="431.44565"
     inkscape:cy="528.46948"
     inkscape:document-units="mm"
     inkscape:current-layer="layer1"
     showgrid="false"
     inkscape:pagecheckerboard="true"
     inkscape:showpageshadow="false"
     borderlayer="true"
     fit-margin-top="0"
     fit-margin-left="0"
     fit-margin-right="0"
     fit-margin-bottom="0"
     inkscape:window-width="1600"
     inkscape:window-height="837"
     inkscape:window-x="-8"
     inkscape:window-y="-8"
     inkscape:window-maximized="1" />
  <metadata
     id="metadata5">
    <rdf:RDF>
      <cc:Work
         rdf:about="">
        <dc:format>image/svg+xml</dc:format>
        <dc:type
           rdf:resource="http://purl.org/dc/dcmitype/StillImage" />
        <dc:title></dc:title>
      </cc:Work>
    </rdf:RDF>
  </metadata>
  <g
     inkscape:label="Layer 1"
     inkscape:groupmode="layer"
     id="layer1"
     transform="translate(-21.698823,-5.0442425)">
    <path
       style="fill:#555555;fill-opacity:1;stroke-width:0.14692046"
       d="m 104.80915,285.15563 c -0.026,-3.96118 -0.10109,-7.57998 -0.72114,-11.8619 -3.45068,-1.947 -6.282938,1.93411 -7.761129,3.80631 -3.562879,-0.6175 -3.484344,-8.85572 -7.848432,-5.8245 -1.459374,1.72077 -3.36037,0.18127 -4.628211,2.02597 -2.60129,0.61969 -4.558741,-4.64787 -5.400021,-4.34381 1.109071,1.71155 -2.062118,5.90318 -2.451468,2.34155 -2.462374,-0.97447 -1.670026,-2.50853 0.313201,-3.006 0.723399,-3.29216 4.124827,-6.79229 0.879189,-10.04986 -3.176551,-1.45486 -6.623239,-2.85328 -9.996963,-4.07939 -3.595627,-1.04412 4.314145,-3.78694 -0.196539,-4.6436 -3.18172,-1.93336 -6.295473,1.38038 -8.824311,1.37016 -1.047093,-3.26024 -5.289444,-1.63919 -5.381315,-5.34327 -1.061669,-3.55771 4.757566,-3.21874 2.291878,-6.4394 -2.146746,-3.09852 -5.192357,-6.79537 -9.217363,-5.27501 0.556626,-2.92493 -2.267622,-5.32083 -4.442787,-7.35412 -1.624043,-2.34726 -6.226045,-3.66626 -6.564888,0.36905 -1.92124,1.77602 -2.688981,-4.74074 -5.577031,-1.88043 -1.683859,0.77676 -3.51635,0.002 -2.69955,-1.82302 -1.935802,-1.7229 -4.381888,-4.2171 -1.207484,-6.15275 1.095627,-2.61749 -2.223262,-3.96544 -3.640579,-4.14201 -0.435683,-3.23248 3.265881,-2.84188 4.845414,-1.45019 2.041623,0.9926 8.584061,2.50041 6.64754,-1.56859 -2.545147,-0.88961 -5.988992,-2.02856 -4.661901,-5.48817 0.960225,-3.77536 0.466652,-8.19463 -3.300896,-10.08567 -2.156682,-3.43282 1.750636,-5.95282 4.075378,-7.08795 0.6945,-1.64895 3.696418,-3.90945 4.047103,-0.76404 3.201028,-0.99236 0.774588,-5.56538 -0.903833,-7.16341 -1.851428,-3.82496 3.953388,-6.40342 6.381672,-3.51206 3.623257,1.6553 7.649394,0.38512 11.384349,-0.002 2.995989,0.74198 5.728816,5.18502 8.827282,1.87475 2.587828,-1.68425 7.115619,1.68377 8.303427,-2.07796 0.389605,-3.15172 -2.622453,-5.38199 -5.110251,-6.68242 -3.886331,-2.74594 -6.079191,2.51963 -9.121668,3.79897 0.117422,-3.91688 -3.22859,-8.69316 -7.547839,-7.19939 -4.203075,-2.06122 -0.398323,-6.41943 -0.617377,-9.5128 0.325666,-2.91161 -0.728843,-5.74035 -1.243319,-8.25958 2.970816,-2.68417 6.063777,2.30053 9.12141,0.58677 2.192934,-2.05303 -0.437067,-5.51513 1.871212,-7.89412 2.668091,-3.42807 0.252972,-8.39494 -4.229792,-6.65834 -4.462443,-0.2331 -1.985242,-4.34242 -1.139631,-6.62679 -1.122323,-1.54162 -2.129959,-3.66265 0.84885,-3.36585 2.849259,-0.34676 4.019494,-4.0406 7.454881,-2.72801 2.957501,-0.16217 5.245245,2.37887 8.112358,2.15982 3.041075,-0.91501 6.522068,-5.0756 3.768021,-7.9361 -1.057063,0.61038 -2.952209,2.68569 -2.859027,-0.0991 0.97098,-2.63863 0.283477,-8.00955 -3.594011,-5.43955 -3.90806,1.03338 -4.564542,-4.71395 -3.282024,-7.28813 0.958535,-2.600182 -0.899385,-4.924923 -2.057787,-6.666071 1.194702,-4.129662 5.696544,-0.62993 7.987761,-0.368456 3.544594,-0.957015 5.926549,-4.573907 9.843201,-4.533022 3.985184,-0.466993 0.270071,-5.352049 -2.046119,-2.574567 -2.057981,2.263431 -4.48045,-1.52885 -1.241944,-1.837273 4.175446,-1.726103 3.426766,-6.319952 1.159673,-9.218177 -1.469271,-4.021445 5.192088,-5.090404 6.625867,-1.806846 0.809567,2.816735 6.600781,4.920003 5.828489,0.394008 2.172332,-2.648222 3.568515,-6.614641 6.7552,-8.530736 3.772646,-3.132428 -3.537751,-3.260501 -5.624557,-3.043713 -3.323846,-1.504058 -2.625706,-6.019012 -4.386069,-8.758967 -1.317432,-3.255488 1.407218,-6.95393 4.893237,-5.309556 4.256971,0.469871 3.892925,-3.826386 1.773177,-6.013852 1.978211,-0.585331 4.911976,2.919274 6.665842,-0.247694 0.698057,-1.460246 0.255794,-5.622715 -1.591823,-5.342348 -0.213696,2.006356 -2.442184,3.671828 -2.426554,0.582837 -0.603161,-5.98182 2.49128,-11.42051 5.01333,-16.604307 0.835997,-3.255369 6.136471,-2.844517 5.504341,-6.440663 -1.01576,-2.369019 0.72412,-3.802664 2.92119,-2.459018 3.75179,0.905079 7.66925,-2.884576 4.97355,-6.2819667 0.87948,-3.6192413 5.77069,-2.5089497 6.84321,0.4601793 3.77488,2.3034624 4.10197,6.6362564 6.31538,9.9280424 2.10527,1.921188 6.12866,3.390427 3.76367,6.852569 0.53026,2.82414 2.33977,5.693019 3.99279,8.33463 3.00875,2.980969 -0.0339,6.525023 -1.47293,9.414451 -1.20329,3.429206 1.73442,6.473262 3.38824,9.144444 2.89045,-0.09439 7.28372,-2.863624 8.71674,1.608511 0.2897,3.262372 0.79071,8.367646 -2.15967,10.40512 -1.78824,0.685418 -2.74017,-3.246069 -3.35958,-0.596673 -2.13135,2.433072 -8.85667,-0.06843 -8.4949,4.32888 3.1215,0.869463 7.40178,-0.01326 9.20261,3.504651 1.06421,3.087091 4.16711,6.138028 6.74817,2.534745 2.21834,-2.805737 7.92154,-1.678447 7.85834,2.191036 -0.18979,3.12351 -5.84609,1.282652 -3.96982,5.307753 0.10393,2.652251 -1.24005,4.967507 0.28587,7.581401 -1.42318,-1.25627 -4.70526,-3.245746 -4.80729,0.364347 -0.28455,3.231695 2.76681,8.068394 6.3299,5.995796 2.20841,-1.645325 6.00106,0.247528 6.1725,2.914165 -1.01656,2.110535 -5.84891,2.300319 -3.75031,5.70153 2.33366,2.65393 6.3136,-2.10711 8.83684,1.39427 2.60902,2.16811 1.58407,6.54029 -1.41086,7.77351 -2.75107,0.96106 -5.56285,3.66833 -3.17032,6.5341 1.71314,3.30772 4.95683,5.52335 8.0424,7.38622 3.28092,0.88954 7.53484,2.59215 7.73879,6.55344 -0.61407,1.71201 -1.82866,4.75499 1.36503,4.46972 4.02422,1.75236 -0.0884,7.14025 -3.4324,6.19477 -1.56867,1.50377 -3.00306,1.35851 -3.11778,-1.03915 -2.76672,-1.19021 -0.39108,3.75549 0.0237,5.02079 2.00852,2.95322 -0.55943,6.43086 0.46898,9.09253 1.85477,-0.11639 3.39825,-2.68062 5.49564,-3.15314 1.64494,3.56122 7.65275,1.3115 8.44076,5.61437 1.51351,2.01718 -1.47059,6.17081 -2.67941,2.54528 -3.2614,-1.88045 -8.3326,3.83035 -5.64979,6.43959 3.23892,0.46787 3.00263,5.89698 -0.38121,4.69674 -2.55603,-3.30238 -3.88853,0.93678 -5.76501,2.38615 -2.87078,-0.0562 -7.02685,-1.67179 -9.47357,1.19656 -1.42818,2.76206 2.9619,3.33121 3.95654,5.3609 2.96383,0.41506 6.22223,-1.44935 8.63652,-2.754 0.33973,-1.58888 2.46295,-3.98836 1.96212,-0.80661 -1.30372,2.10235 -0.74656,6.30506 2.35248,3.9317 3.71136,-1.77187 7.85562,1.33778 11.57837,-0.56058 3.08464,-0.54397 7.29787,4.05008 2.7513,5.27355 -0.98034,2.00722 -3.03275,3.80635 -5.0887,2.23445 -3.99938,2.33267 1.72754,7.97247 5.10178,5.78613 4.50043,-0.22875 5.51638,4.85607 2.84664,7.63484 -0.37298,2.68095 3.58438,6.12689 0.2938,8.12163 -3.46157,0.7648 1.02581,6.14925 -3.44596,5.61422 -1.99346,0.52433 -4.67153,1.62892 -6.41458,0.30067 -2.44117,1.95479 -5.74598,-1.17766 -7.7957,0.91052 -0.84122,1.57045 -3.8676,1.3788 -3.99297,1.21623 1.44718,3.28512 -1.85507,6.16564 -4.71871,7.09105 -5.09085,1.94913 2.3383,7.62608 5.18601,4.45072 1.27804,1.11435 1.86452,4.37168 3.76503,1.46125 2.80563,-3.48575 7.46067,-3.1944 10.70565,-0.63367 2.49383,1.64096 9.98635,3.14009 7.17662,7.16917 -1.14429,1.77289 -3.40981,1.44145 -2.9161,-0.87189 -3.07051,-3.38285 -2.8051,4.69673 -6.3313,3.57979 -2.76214,-0.3685 -5.47911,-0.92865 -7.45965,1.41338 -2.11917,1.3406 -6.82127,-1.33053 -5.16308,2.79217 1.516,2.35806 0.35346,4.85848 0.32933,7.16842 2.83505,2.56126 3.2267,-4.29476 6.04055,-0.71221 2.54373,1.34753 2.74733,-4.65971 5.9353,-2.42716 3.9493,0.93518 1.87051,7.82194 -1.46438,4.19799 -2.7735,-3.79777 -6.84995,2.75166 -2.75516,4.19451 1.76054,1.45902 7.55549,0.61222 6.12264,3.77348 -2.71798,1.5916 -4.38391,-1.07912 -4.73833,-3.30751 -2.5664,0.0267 -2.81514,4.29312 -0.24047,4.64458 1.22126,2.92166 -3.05899,3.59 -3.71992,0.99587 -2.71918,-0.22164 -4.12509,3.67381 -6.99302,2.6769 -0.25106,1.66121 1.05646,4.91035 -2.20412,3.61776 -2.66418,0.20822 -6.12612,-5.24661 -7.74312,-1.97189 0.28796,2.87847 -1.9888,4.12925 -4.45524,2.78136 -2.11282,-0.50317 -4.60632,1.49209 -3.32489,3.69471 -2.90792,0.0264 -6.7244,-2.96873 -8.76615,0.56168 -3.14309,4.13949 -5.63759,-2.60768 -9.19785,-2.53534 -3.76212,-1.00074 -6.15418,2.96185 -9.77091,3.08643 -2.17861,0.30877 -4.12748,-1.15164 -6.05378,0.15324 -3.883,-3.19226 -4.34582,-2.94018 -3.97498,1.11762 0.43864,4.79974 -0.47179,12.91598 0.82108,18.56508 -4.42019,0 -5.85194,0 -9.82738,0 0.67035,-4.43695 0.51001,-6.8203 0.48759,-10.23614 z"
       id="path5706"
       inkscape:connector-curvature="0"
       sodipodi:nodetypes="sccccccccccccccccccccccccccccccccccccccccccccccccccccccccccccccccccccccccccccccccccccccccccccccccccccccccccccccccccccccccccccccccccccccccccccccccsccs" />
  </g>
</svg>
