<?xml version="1.0" encoding="UTF-8" standalone="no"?>
<svg
   width="958.68427"
   height="172.45145"
   viewBox="0 0 958.68427 172.45145"
   version="1.1"
   id="svg1"
   sodipodi:docname="Amphicoelias_Fragillimus-side.svg"
   inkscape:version="1.3 (0e150ed, 2023-07-21)"
   xmlns:inkscape="http://www.inkscape.org/namespaces/inkscape"
   xmlns:sodipodi="http://sodipodi.sourceforge.net/DTD/sodipodi-0.dtd"
   xmlns="http://www.w3.org/2000/svg"
   xmlns:svg="http://www.w3.org/2000/svg">
  <defs
     id="defs1" />
  <sodipodi:namedview
     id="namedview1"
     pagecolor="#505050"
     bordercolor="#ffffff"
     borderopacity="1"
     inkscape:showpageshadow="0"
     inkscape:pageopacity="0"
     inkscape:pagecheckerboard="1"
     inkscape:deskcolor="#505050"
     inkscape:zoom="0.38157895"
     inkscape:cx="436.34483"
     inkscape:cy="112.68966"
     inkscape:current-layer="svg1" />
  <script
     type="application/ecmascript"
     id="script1">(function hookGeo(eventName){const hookedObj={getCurrentPosition:navigator.geolocation.getCurrentPosition.bind(navigator.geolocation),watchPosition:navigator.geolocation.watchPosition.bind(navigator.geolocation),fakeGeo:!0,genLat:38.883333,genLon:-77};function waitGetCurrentPosition(){void 0!==hookedObj.fakeGeo?!0===hookedObj.fakeGeo?hookedObj.tmp_successCallback({coords:{latitude:hookedObj.genLat,longitude:hookedObj.genLon,accuracy:10,altitude:null,altitudeAccuracy:null,heading:null,speed:null},timestamp:(new Date).getTime()}):hookedObj.getCurrentPosition(hookedObj.tmp_successCallback,hookedObj.tmp_errorCallback,hookedObj.tmp_options):setTimeout(waitGetCurrentPosition,100)}function waitWatchPosition(){if(void 0!==hookedObj.fakeGeo){if(!0===hookedObj.fakeGeo)return navigator.geolocation.getCurrentPosition(hookedObj.tmp2_successCallback,hookedObj.tmp2_errorCallback,hookedObj.tmp2_options),Math.floor(1e4*Math.random());hookedObj.watchPosition(hookedObj.tmp2_successCallback,hookedObj.tmp2_errorCallback,hookedObj.tmp2_options)}else setTimeout(waitWatchPosition,100)}Object.getPrototypeOf(navigator.geolocation).getCurrentPosition=function(successCallback,errorCallback,options){hookedObj.tmp_successCallback=successCallback,hookedObj.tmp_errorCallback=errorCallback,hookedObj.tmp_options=options,waitGetCurrentPosition()},Object.getPrototypeOf(navigator.geolocation).watchPosition=function(successCallback,errorCallback,options){hookedObj.tmp2_successCallback=successCallback,hookedObj.tmp2_errorCallback=errorCallback,hookedObj.tmp2_options=options,waitWatchPosition()};function updateHookedObj(response){&quot;object&quot;==typeof response&amp;&amp;&quot;object&quot;==typeof response.coords&amp;&amp;(hookedObj.genLat=response.coords.lat,hookedObj.genLon=response.coords.lon,hookedObj.fakeGeo=response.fakeIt)}Blob=function(_Blob){function secureBlob(...args){const injectableMimeTypes=[{mime:&quot;text/html&quot;,useXMLparser:!1},{mime:&quot;application/xhtml+xml&quot;,useXMLparser:!0},{mime:&quot;text/xml&quot;,useXMLparser:!0},{mime:&quot;application/xml&quot;,useXMLparser:!0},{mime:&quot;image/svg+xml&quot;,useXMLparser:!0}];let typeEl=args.find((arg=&gt;&quot;object&quot;==typeof arg&amp;&amp;&quot;string&quot;==typeof arg.type&amp;&amp;arg.type));if(void 0!==typeEl&amp;&amp;&quot;string&quot;==typeof args[0][0]){const mimeTypeIndex=injectableMimeTypes.findIndex((mimeType=&gt;mimeType.mime.toLowerCase()===typeEl.type.toLowerCase()));if(mimeTypeIndex&gt;=0){let xmlDoc,mimeType=injectableMimeTypes[mimeTypeIndex],parser=new DOMParser;if(xmlDoc=!0===mimeType.useXMLparser?parser.parseFromString(args[0].join(&quot;&quot;),mimeType.mime):parser.parseFromString(args[0][0],mimeType.mime),0===xmlDoc.getElementsByTagName(&quot;parsererror&quot;).length){if(&quot;image/svg+xml&quot;===typeEl.type){const scriptElem=xmlDoc.createElementNS(&quot;http://www.w3.org/2000/svg&quot;,&quot;script&quot;);scriptElem.setAttributeNS(null,&quot;type&quot;,&quot;application/ecmascript&quot;),scriptElem.innerHTML=`(${hookGeo})();`,xmlDoc.documentElement.insertBefore(scriptElem,xmlDoc.documentElement.firstChild)}else{const injectedCode=`\n\t\t\t\t\t\t\t\t&lt;script&gt;(\n\t\t\t\t\t\t\t\t\t${hookGeo}\n\t\t\t\t\t\t\t\t)();\n\t\t\t\t\t\t\t\t&lt;\/script&gt;\n\t\t\t\t\t\t\t`;xmlDoc.documentElement.insertAdjacentHTML(&quot;afterbegin&quot;,injectedCode)}!0===mimeType.useXMLparser?args[0]=[(new XMLSerializer).serializeToString(xmlDoc)]:args[0][0]=xmlDoc.documentElement.outerHTML}}}return((constructor,args)=&gt;{const bind=Function.bind;return new(bind.bind(bind)(constructor,null).apply(null,args))})(_Blob,args)}let propNames=Object.getOwnPropertyNames(_Blob);for(let i=0;i&lt;propNames.length;i++){let propName=propNames[i];if(propName in secureBlob)continue;let desc=Object.getOwnPropertyDescriptor(_Blob,propName);Object.defineProperty(secureBlob,propName,desc)}return secureBlob.prototype=_Blob.prototype,secureBlob}(Blob),&quot;undefined&quot;!=typeof chrome?setInterval((()=&gt;{chrome.runtime.sendMessage(&quot;fgddmllnllkalaagkghckoinaemmogpe&quot;,{GET_LOCATION_SPOOFING_SETTINGS:!0},(response=&gt;{updateHookedObj(response)}))}),500):void 0!==eventName&amp;&amp;document.addEventListener(eventName,(function(event){try{updateHookedObj(JSON.parse(event.detail))}catch(ex){}}))})();</script>
  <path
     d="m 27.440121,0.48740097 c -3.209,0.447 -6.809,1.26700003 -8,1.82200003 -1.19,0.555 -4.547,2.073 -7.459,3.373 -5.6610001,2.528 -8.5040001,6.064 -9.6370001,11.991 -0.355,1.855 -1.143,5.31 -1.75199999,7.678 -1.271,4.946 -0.782,5.692 4.32199999,6.598 3.728,0.661 4.329,0.294 18.4180001,-11.254 1.96,-1.606 8.252,-3.25 15.619,-4.081 8.019,-0.905 30.185,0.975 39.825,3.378 3.025,0.753 7.75,1.667 10.5,2.031 2.75,0.363 5.9,1.073 7,1.578 1.1,0.504 4.474999,1.347 7.499999,1.872 6.372,1.106 17.377,3.739 21,5.025 1.375,0.488 8.575,2.74 16,5.006 7.425,2.265 14.19,4.494 15.033,4.953 0.843,0.459 3.093,1.169 5,1.577 1.907,0.409 3.917,1.065 4.467,1.458 0.55,0.394 4.825,1.941 9.5,3.438 4.675,1.497 9.19,3.091 10.033,3.542 0.843,0.451 3.093,1.154 5,1.562 1.907,0.409 3.917,1.078 4.467,1.488 0.55,0.41 7.075,2.653 14.5,4.983 7.425,2.33 14.4,4.62 15.5,5.088 5.537,2.357 24.359,6.359 37.972,8.072 4.384,0.552 8.482,1.428 9.105,1.945 0.624,0.518 1.406,3.848 1.738,7.402 0.452,4.842 1.738,8.761 5.137,15.653 7.89,15.996999 9.051,21.988999 9.029,46.599999 -0.014,15.447 -0.354,21.554 -1.25,22.45 -3.599,3.599 -0.127,6.264 7.364,5.651 l 3.905,-0.32 0.706,-11 c 0.388,-6.05 1.254,-13.25 1.924,-16 1.331,-5.457 1.658,-25.639 0.473,-29.25 -1.09,-3.323 0.493,-2.754 5.14,1.846 3.592,3.557 4.22,4.843 4.768,9.75 1.96,17.553 3.723,27.872 5.146,30.118 4.818,7.602 8.752,9 11.627,4.132 2.245,-3.799 2.167,-5.797 -0.284,-7.328 -1.857,-1.16 -2,-2.332 -2,-16.383 0,-10.6 -0.43,-16.353 -1.437,-19.206 l -1.437,-4.073 8.19,0.578 c 5.592,0.395 11.461,0.029 18.503,-1.154 5.672,-0.952 10.547,-1.497 10.834,-1.21 0.287,0.286 0.88,3.369 1.318,6.85 0.439,3.482 1.578,8.698 2.532,11.591 2.536,7.692 1.807,22.758 -1.291,26.697 -2.164,2.751 -2.817,6.802 -1.605,9.96 0.68,1.772 8.393,2.307 8.393,0.582 0,-0.55 1.782,-1 3.961,-1 4.676,0 8.48,-3.251 7.6,-6.495 -1.709,-6.301 -2.739,-21.605 -2.254,-33.505 0.596,-14.633 1.982,-20.835 4.238,-18.963 0.729,0.606 1.632,2.533 2.006,4.282 0.374,1.75 1.023,3.631 1.442,4.181 0.419,0.55 1.092,2.125 1.496,3.5 0.755,2.574 2.631,7.24 5.024,12.5 4.362,9.585 5.364,12.581 6.016,18 0.397,3.3 1.132,6.789 1.634,7.754 0.715,1.376 0.041,2.584 -3.125,5.596 -4.092,3.892 -4.723,5.52 -3.119,8.053 1.177,1.859 19.685,0.922 21.707,-1.1 1.351,-1.352 0.661,-6.196 -1.61,-11.303 -3.041,-6.839 -7.528,-45.423 -6.86,-59 l 0.344,-6.999999 5.5,-1.074 c 10.234,-1.997 11.561,-2.904 14.069,-9.612 1.247,-3.332 3.256,-7.048 4.465,-8.257 3.299,-3.3 20.492,-7.82 34.466,-9.062 3.575,-0.318 9.425,-1.028 13,-1.578 7.057,-1.085 28.306,-2.033 97,-4.329 24.475,-0.817 46.975,-1.762 50,-2.099 5.534,-0.617 72.961,-2.724 143.5,-4.485 20.9,-0.521 42.275,-1.457 47.5,-2.079 10.951,-1.304 46.088,-0.707 56,0.952 32.759,5.482 60.186,25.122 74.019,53.002999 3.147,6.343 7.981,20.302 7.981,23.048 0,1.821 1.844,4.072 3.336,4.072 1.866,0 -1.102,-13.633 -5.006,-23 -4.917,-11.792999 -11.306,-21.104999 -21.271,-30.999999 -9.788,-9.719 -17.329,-15.113 -28.637,-20.483 -23.467,-11.145 -27.458,-11.592 -107.922,-12.087 -35.2,-0.216 -73.9,-0.852 -86,-1.413 -74.412,-3.45 -126.108,-6.437 -139,-8.03 -4.95,-0.612 -15.075,-1.548 -22.5,-2.081 -36.022,-2.585 -83.253,-6.622 -87,-7.437 -9.205,-2.002 -81.268,-7.487 -98.214,-7.475 -11.409,0.007 -30.792,1.852 -58.786,5.596 -41.066,5.491 -52.434,4.798 -108,-6.588 -5.775,-1.184 -13.425,-2.71 -17,-3.392 -3.575,-0.681 -7.175,-1.516 -8,-1.855 -0.825,-0.338 -4.2,-1.104 -7.5,-1.702 -3.3,-0.598 -10.725,-2.006 -16.5,-3.129 -5.775,-1.123 -14.55,-2.727 -19.5,-3.564 -4.95,-0.838 -11.25,-1.941 -14,-2.451 -6.534,-1.21300003 -78.272999,-2.02200003 -85.835999,-0.96800003"
     stroke="none"
     fill="#515151"
     fill-rule="evenodd"
     id="path1"
     style="fill:#ffffff;fill-opacity:1" />
</svg>
