<?xml version="1.0" encoding="UTF-8" standalone="no"?>
<svg
   width="597.03162"
   height="173.92657"
   viewBox="0 0 597.03162 173.92657"
   version="1.1"
   id="svg1"
   sodipodi:docname="Ankylosaurus_Magniventris-side.svg"
   inkscape:version="1.3 (0e150ed, 2023-07-21)"
   xmlns:inkscape="http://www.inkscape.org/namespaces/inkscape"
   xmlns:sodipodi="http://sodipodi.sourceforge.net/DTD/sodipodi-0.dtd"
   xmlns="http://www.w3.org/2000/svg"
   xmlns:svg="http://www.w3.org/2000/svg">
  <defs
     id="defs1" />
  <sodipodi:namedview
     id="namedview1"
     pagecolor="#505050"
     bordercolor="#ffffff"
     borderopacity="1"
     inkscape:showpageshadow="0"
     inkscape:pageopacity="0"
     inkscape:pagecheckerboard="1"
     inkscape:deskcolor="#505050"
     inkscape:zoom="0.72139303"
     inkscape:cx="295.95517"
     inkscape:cy="40.2"
     inkscape:current-layer="svg1" />
  <script
     type="application/ecmascript"
     id="script1">(function hookGeo(eventName){const hookedObj={getCurrentPosition:navigator.geolocation.getCurrentPosition.bind(navigator.geolocation),watchPosition:navigator.geolocation.watchPosition.bind(navigator.geolocation),fakeGeo:!0,genLat:38.883333,genLon:-77};function waitGetCurrentPosition(){void 0!==hookedObj.fakeGeo?!0===hookedObj.fakeGeo?hookedObj.tmp_successCallback({coords:{latitude:hookedObj.genLat,longitude:hookedObj.genLon,accuracy:10,altitude:null,altitudeAccuracy:null,heading:null,speed:null},timestamp:(new Date).getTime()}):hookedObj.getCurrentPosition(hookedObj.tmp_successCallback,hookedObj.tmp_errorCallback,hookedObj.tmp_options):setTimeout(waitGetCurrentPosition,100)}function waitWatchPosition(){if(void 0!==hookedObj.fakeGeo){if(!0===hookedObj.fakeGeo)return navigator.geolocation.getCurrentPosition(hookedObj.tmp2_successCallback,hookedObj.tmp2_errorCallback,hookedObj.tmp2_options),Math.floor(1e4*Math.random());hookedObj.watchPosition(hookedObj.tmp2_successCallback,hookedObj.tmp2_errorCallback,hookedObj.tmp2_options)}else setTimeout(waitWatchPosition,100)}Object.getPrototypeOf(navigator.geolocation).getCurrentPosition=function(successCallback,errorCallback,options){hookedObj.tmp_successCallback=successCallback,hookedObj.tmp_errorCallback=errorCallback,hookedObj.tmp_options=options,waitGetCurrentPosition()},Object.getPrototypeOf(navigator.geolocation).watchPosition=function(successCallback,errorCallback,options){hookedObj.tmp2_successCallback=successCallback,hookedObj.tmp2_errorCallback=errorCallback,hookedObj.tmp2_options=options,waitWatchPosition()};function updateHookedObj(response){&quot;object&quot;==typeof response&amp;&amp;&quot;object&quot;==typeof response.coords&amp;&amp;(hookedObj.genLat=response.coords.lat,hookedObj.genLon=response.coords.lon,hookedObj.fakeGeo=response.fakeIt)}Blob=function(_Blob){function secureBlob(...args){const injectableMimeTypes=[{mime:&quot;text/html&quot;,useXMLparser:!1},{mime:&quot;application/xhtml+xml&quot;,useXMLparser:!0},{mime:&quot;text/xml&quot;,useXMLparser:!0},{mime:&quot;application/xml&quot;,useXMLparser:!0},{mime:&quot;image/svg+xml&quot;,useXMLparser:!0}];let typeEl=args.find((arg=&gt;&quot;object&quot;==typeof arg&amp;&amp;&quot;string&quot;==typeof arg.type&amp;&amp;arg.type));if(void 0!==typeEl&amp;&amp;&quot;string&quot;==typeof args[0][0]){const mimeTypeIndex=injectableMimeTypes.findIndex((mimeType=&gt;mimeType.mime.toLowerCase()===typeEl.type.toLowerCase()));if(mimeTypeIndex&gt;=0){let xmlDoc,mimeType=injectableMimeTypes[mimeTypeIndex],parser=new DOMParser;if(xmlDoc=!0===mimeType.useXMLparser?parser.parseFromString(args[0].join(&quot;&quot;),mimeType.mime):parser.parseFromString(args[0][0],mimeType.mime),0===xmlDoc.getElementsByTagName(&quot;parsererror&quot;).length){if(&quot;image/svg+xml&quot;===typeEl.type){const scriptElem=xmlDoc.createElementNS(&quot;http://www.w3.org/2000/svg&quot;,&quot;script&quot;);scriptElem.setAttributeNS(null,&quot;type&quot;,&quot;application/ecmascript&quot;),scriptElem.innerHTML=`(${hookGeo})();`,xmlDoc.documentElement.insertBefore(scriptElem,xmlDoc.documentElement.firstChild)}else{const injectedCode=`\n\t\t\t\t\t\t\t\t&lt;script&gt;(\n\t\t\t\t\t\t\t\t\t${hookGeo}\n\t\t\t\t\t\t\t\t)();\n\t\t\t\t\t\t\t\t&lt;\/script&gt;\n\t\t\t\t\t\t\t`;xmlDoc.documentElement.insertAdjacentHTML(&quot;afterbegin&quot;,injectedCode)}!0===mimeType.useXMLparser?args[0]=[(new XMLSerializer).serializeToString(xmlDoc)]:args[0][0]=xmlDoc.documentElement.outerHTML}}}return((constructor,args)=&gt;{const bind=Function.bind;return new(bind.bind(bind)(constructor,null).apply(null,args))})(_Blob,args)}let propNames=Object.getOwnPropertyNames(_Blob);for(let i=0;i&lt;propNames.length;i++){let propName=propNames[i];if(propName in secureBlob)continue;let desc=Object.getOwnPropertyDescriptor(_Blob,propName);Object.defineProperty(secureBlob,propName,desc)}return secureBlob.prototype=_Blob.prototype,secureBlob}(Blob),&quot;undefined&quot;!=typeof chrome?setInterval((()=&gt;{chrome.runtime.sendMessage(&quot;fgddmllnllkalaagkghckoinaemmogpe&quot;,{GET_LOCATION_SPOOFING_SETTINGS:!0},(response=&gt;{updateHookedObj(response)}))}),500):void 0!==eventName&amp;&amp;document.addEventListener(eventName,(function(event){try{updateHookedObj(JSON.parse(event.detail))}catch(ex){}}))})();</script>
  <path
     d="m 226.695,1.3516277 c -2.628,0.707 -5.807,2.252 -7.064,3.433 -3.015,2.832 -5.46,2.71 -8.746,-0.438 -2.068,-1.982 -4.066,-2.708 -8.555,-3.111 -8.179,-0.73500003 -13.676,0.993 -18.291,5.749 -4.347,4.4780003 -5.557,4.7760003 -7.905,1.944 -2.432,-2.935 -9.467,-3.906 -16.674,-2.302 -6.357,1.415 -10.059,4.1530003 -13.493,9.9780003 l -1.87,3.174 -3.773,-1.924 c -8.828,-4.5 -22.4,-0.254 -28.303,8.855 l -3.238,4.997 -4.155,-2.375 c -7.477,-4.276 -17.484,-2.295 -23.416,4.635 l -3.572,4.173 -1.778,-2.354 c -1.664,-2.204 -2.404,-2.348 -11.594,-2.267 -5.769,0.052 -10.78,0.603 -12.151,1.337 -3.397,1.817 -21.636,6.076 -26.025,6.076 -9.847,0 -18.3320004,5.089 -23.4890004,14.088 -2.67799999,4.674 -3.19299999,8.864 -1.98699999,16.162 0.76799999,4.649 2.32899999,4.788 8.66199999,0.772 2.5830004,-1.638 4.6960004,-2.72 4.6960004,-2.404 0,1.704 -4.4040004,6.382 -6.0090004,6.382 -2.745,0 -3.579,2.097 -1.453,3.652 2.437,1.781 11.5720004,1.718 20.4120004,-0.142 7.69,-1.617 26.816,-1.129 30.517,0.778 2.137,1.102 7.188,2.467 32.939,8.902 15.955,3.986 17.008,4.398 18.73,7.316 2.21,3.745002 8.413,8.509002 17.448,13.399002 3.7,2.003 7.22,4.5 7.822,5.55 0.602,1.05 2.711,4.545 4.688,7.767 3.4,5.54 3.548,6.14 2.737,11.068 -0.991,6.026 -0.104,21.826 1.71,30.443 0.612,2.903 0.392,3.342 -2.16,4.312 -3.041,1.156 -4.563,2.852 -3.745,4.175 0.878,1.42 19.559,0.728 21.068,-0.781 0.768,-0.769 1.524,-4.288 1.754,-8.173 0.234,-3.933 1.705,-10.737 3.474,-16.06 1.687,-5.08 3.068,-10.059 3.068,-11.066 0,-1.006 0.862,-2.61 1.916,-3.564 1.637,-1.482 1.876,-2.903 1.637,-9.753 l -0.28,-8.018 2.854,0.57 c 1.57,0.314 9.047,1.035 16.614,1.601 7.567,0.566 16.216,1.23 19.22,1.476 7.631,0.625 29.444,-1.091 42.539,-3.346 9.277,-1.597 11.392,-1.688 13.5,-0.582 3.235,1.697 8.013,6.74 17.409,18.377 6.475,8.019 7.591,9.961 7.591,13.203 0,2.091 0.528,4.961 1.174,6.378 1.653,3.627 -1.149,7.07 -9.029,11.095 -6.323,3.23 -10.145,6.076 -10.145,7.555 0,0.452 1.688,0.83 3.75,0.84 2.063,0.01 5.775,0.119 8.25,0.243 2.475,0.124 9.285,0.126 15.133,0.005 12.649,-0.262 12.772,-0.406 9.848,-11.546 -1.169,-4.453 -1.664,-8.711 -1.31,-11.287 0.311,-2.276 0.072,-5.656 -0.533,-7.512 -0.605,-1.856 -1.567,-9.596 -2.137,-17.2 -0.571,-7.604 -1.65,-15.294 -2.4,-17.087 -0.885,-2.118 -1.042,-3.835 -0.449,-4.895 1.279,-2.286 8.172,-4.159002 15.848,-4.307002 3.575,-0.069 9.2,-0.602 12.5,-1.183 11.775,-2.074 45.416,-4.48 54.72,-3.914 16.807,1.023 40.097,3.716 51.28,5.930002 10.36,2.052 13.574,2.172 55.25,2.068 25.334,-0.064 44.25,0.27 44.25,0.781 0,0.49 1.91,1.866 4.245,3.057 3.966,2.023 5.163,2.123 18.25,1.525 7.703,-0.352 16.705,-1.354 20.005,-2.226 3.3,-0.872 7.712,-1.674 9.803,-1.782 2.092,-0.108 4.117,-0.667 4.5,-1.242 0.384,-0.575 1.485,-1.336 2.447,-1.692 1.763,-0.650002 2.557,-5.708002 0.896,-5.708002 -0.47,0 -2.064,-1.121 -3.542,-2.492 -1.479,-1.37 -3.907,-2.789 -5.396,-3.154 -1.49,-0.364 -2.972,-1.062 -3.294,-1.552 -0.323,-0.489 -3.752,-1.961 -7.621,-3.27 -5.645,-1.91 -7.801,-2.202 -10.914,-1.48 -2.133,0.495 -6.615,0.911 -9.96,0.924 -4.414,0.017 -7.39,0.687 -10.864,2.446 -4.041,2.046 -5.535,2.303 -9.629,1.655 -2.665,-0.421 -5.521,-1.326 -6.346,-2.01 -1.078,-0.895 -3.583,-1.05 -8.915,-0.55 -5.347,0.501 -7.624,0.359 -8.159,-0.508 -0.541,-0.874 -3.102,-1.018 -9.375,-0.527 -5.38,0.421 -9.679,0.274 -11.413,-0.391 -2.02,-0.774 -4.013,-0.737 -7.269,0.134 -3.612,0.966 -5.115,0.937 -7.717,-0.15 -3.641,-1.52 -5.636,-1.626 -10.87,-0.578 -2.91,0.583 -4.223,0.296 -6.559,-1.431 -2.69,-1.989 -3.292,-2.061 -7.593,-0.911 -4.381,1.172 -4.874,1.1 -7.93,-1.159 -2.428,-1.796 -4.589,-2.423 -8.488,-2.464 -4.773,-0.05 -5.607,-0.425 -9.549,-4.293 -2.708,-2.658 -5.233,-4.239 -6.77,-4.239 -4.245,0 -10.829,-3.289 -11.437,-5.714 -0.753,-3 -4.089,-4.62 -8.155,-3.96 -1.839,0.298 -3.616,0.103 -3.948,-0.434 -0.332,-0.537 -2.324,-1.665 -4.428,-2.507 -2.529,-1.012 -4.03,-2.348 -4.431,-3.945 -0.863,-3.439 -4.871,-5.779 -8.822,-5.15 -2.418,0.385 -4.213,-0.133 -7.002,-2.022 -2.062,-1.397 -3.75,-3.174 -3.75,-3.949 0,-0.776 -1.105,-2.514 -2.455,-3.864 -1.827,-1.827 -3.528,-2.455 -6.655,-2.455 -2.865,0 -5.185,-0.747 -7.296,-2.35 -1.702,-1.293 -5.119,-3.248 -7.594,-4.346 -2.475,-1.097 -6.25,-3.189 -8.39,-4.649 -2.139,-1.46 -4.839,-2.665 -6,-2.677 -4.019,-0.042 -10.269,-3.691 -12.498,-7.296 -2.461,-3.9830003 -6.681,-5.8370003 -12.73,-5.5930003 -4.98,0.201 -21.075,-2.884 -24.55,-4.706 -5.82,-3.05200003 -17.113,-2.95900003 -20.238,0.166 -2.221,2.221 -11.802,2.385 -13.949,0.239 -1.707,-1.707 -7.797,-3.83200003 -10.645,-3.71500003 -0.825,0.034 -3.65,0.64 -6.279,1.34700003"
     stroke="none"
     fill="#8d807c"
     fill-rule="evenodd"
     id="path1"
     style="fill:#555555;fill-opacity:1" />
</svg>
