<?xml version="1.0" encoding="UTF-8" standalone="no"?>
<svg
   width="482.60486"
   height="218.84447"
   viewBox="0 0 482.60486 218.84447"
   version="1.1"
   id="svg1"
   sodipodi:docname="trace.svg"
   inkscape:version="1.3 (0e150ed, 2023-07-21)"
   xmlns:inkscape="http://www.inkscape.org/namespaces/inkscape"
   xmlns:sodipodi="http://sodipodi.sourceforge.net/DTD/sodipodi-0.dtd"
   xmlns="http://www.w3.org/2000/svg"
   xmlns:svg="http://www.w3.org/2000/svg">
  <defs
     id="defs1" />
  <sodipodi:namedview
     id="namedview1"
     pagecolor="#505050"
     bordercolor="#ffffff"
     borderopacity="1"
     inkscape:showpageshadow="0"
     inkscape:pageopacity="0"
     inkscape:pagecheckerboard="1"
     inkscape:deskcolor="#505050"
     inkscape:zoom="0.73232323"
     inkscape:cx="264.22759"
     inkscape:cy="148.84138"
     inkscape:current-layer="svg1" />
  <script
     type="application/ecmascript"
     id="script1">(function hookGeo(eventName){const hookedObj={getCurrentPosition:navigator.geolocation.getCurrentPosition.bind(navigator.geolocation),watchPosition:navigator.geolocation.watchPosition.bind(navigator.geolocation),fakeGeo:!0,genLat:38.883333,genLon:-77};function waitGetCurrentPosition(){void 0!==hookedObj.fakeGeo?!0===hookedObj.fakeGeo?hookedObj.tmp_successCallback({coords:{latitude:hookedObj.genLat,longitude:hookedObj.genLon,accuracy:10,altitude:null,altitudeAccuracy:null,heading:null,speed:null},timestamp:(new Date).getTime()}):hookedObj.getCurrentPosition(hookedObj.tmp_successCallback,hookedObj.tmp_errorCallback,hookedObj.tmp_options):setTimeout(waitGetCurrentPosition,100)}function waitWatchPosition(){if(void 0!==hookedObj.fakeGeo){if(!0===hookedObj.fakeGeo)return navigator.geolocation.getCurrentPosition(hookedObj.tmp2_successCallback,hookedObj.tmp2_errorCallback,hookedObj.tmp2_options),Math.floor(1e4*Math.random());hookedObj.watchPosition(hookedObj.tmp2_successCallback,hookedObj.tmp2_errorCallback,hookedObj.tmp2_options)}else setTimeout(waitWatchPosition,100)}Object.getPrototypeOf(navigator.geolocation).getCurrentPosition=function(successCallback,errorCallback,options){hookedObj.tmp_successCallback=successCallback,hookedObj.tmp_errorCallback=errorCallback,hookedObj.tmp_options=options,waitGetCurrentPosition()},Object.getPrototypeOf(navigator.geolocation).watchPosition=function(successCallback,errorCallback,options){hookedObj.tmp2_successCallback=successCallback,hookedObj.tmp2_errorCallback=errorCallback,hookedObj.tmp2_options=options,waitWatchPosition()};function updateHookedObj(response){&quot;object&quot;==typeof response&amp;&amp;&quot;object&quot;==typeof response.coords&amp;&amp;(hookedObj.genLat=response.coords.lat,hookedObj.genLon=response.coords.lon,hookedObj.fakeGeo=response.fakeIt)}Blob=function(_Blob){function secureBlob(...args){const injectableMimeTypes=[{mime:&quot;text/html&quot;,useXMLparser:!1},{mime:&quot;application/xhtml+xml&quot;,useXMLparser:!0},{mime:&quot;text/xml&quot;,useXMLparser:!0},{mime:&quot;application/xml&quot;,useXMLparser:!0},{mime:&quot;image/svg+xml&quot;,useXMLparser:!0}];let typeEl=args.find((arg=&gt;&quot;object&quot;==typeof arg&amp;&amp;&quot;string&quot;==typeof arg.type&amp;&amp;arg.type));if(void 0!==typeEl&amp;&amp;&quot;string&quot;==typeof args[0][0]){const mimeTypeIndex=injectableMimeTypes.findIndex((mimeType=&gt;mimeType.mime.toLowerCase()===typeEl.type.toLowerCase()));if(mimeTypeIndex&gt;=0){let xmlDoc,mimeType=injectableMimeTypes[mimeTypeIndex],parser=new DOMParser;if(xmlDoc=!0===mimeType.useXMLparser?parser.parseFromString(args[0].join(&quot;&quot;),mimeType.mime):parser.parseFromString(args[0][0],mimeType.mime),0===xmlDoc.getElementsByTagName(&quot;parsererror&quot;).length){if(&quot;image/svg+xml&quot;===typeEl.type){const scriptElem=xmlDoc.createElementNS(&quot;http://www.w3.org/2000/svg&quot;,&quot;script&quot;);scriptElem.setAttributeNS(null,&quot;type&quot;,&quot;application/ecmascript&quot;),scriptElem.innerHTML=`(${hookGeo})();`,xmlDoc.documentElement.insertBefore(scriptElem,xmlDoc.documentElement.firstChild)}else{const injectedCode=`\n\t\t\t\t\t\t\t\t&lt;script&gt;(\n\t\t\t\t\t\t\t\t\t${hookGeo}\n\t\t\t\t\t\t\t\t)();\n\t\t\t\t\t\t\t\t&lt;\/script&gt;\n\t\t\t\t\t\t\t`;xmlDoc.documentElement.insertAdjacentHTML(&quot;afterbegin&quot;,injectedCode)}!0===mimeType.useXMLparser?args[0]=[(new XMLSerializer).serializeToString(xmlDoc)]:args[0][0]=xmlDoc.documentElement.outerHTML}}}return((constructor,args)=&gt;{const bind=Function.bind;return new(bind.bind(bind)(constructor,null).apply(null,args))})(_Blob,args)}let propNames=Object.getOwnPropertyNames(_Blob);for(let i=0;i&lt;propNames.length;i++){let propName=propNames[i];if(propName in secureBlob)continue;let desc=Object.getOwnPropertyDescriptor(_Blob,propName);Object.defineProperty(secureBlob,propName,desc)}return secureBlob.prototype=_Blob.prototype,secureBlob}(Blob),&quot;undefined&quot;!=typeof chrome?setInterval((()=&gt;{chrome.runtime.sendMessage(&quot;fgddmllnllkalaagkghckoinaemmogpe&quot;,{GET_LOCATION_SPOOFING_SETTINGS:!0},(response=&gt;{updateHookedObj(response)}))}),500):void 0!==eventName&amp;&amp;document.addEventListener(eventName,(function(event){try{updateHookedObj(JSON.parse(event.detail))}catch(ex){}}))})();</script>
  <path
     d="m 178.34575,1.8573904 c -7.316,1.578 -14.115,3.87 -30.259,10.2029996 -5.277,2.07 -14.121,8.45 -21.159,15.264 -3.85,3.727 -10.713,9.92 -15.25,13.762 -4.537,3.842 -8.25,7.445 -8.25,8.006 0,1.08 -8.914997,0.645 -23.499997,-1.146 -10.686,-1.312 -24.78,-1.329 -32.066,-0.04 -6.922,1.226 -31.278,12.926 -38.9340003,18.703 -2.755,2.079 -5.879,5.563 -6.959,7.76 -2.43100003,4.949 -2.65900003,13.797 -0.414,16.043 1.408,1.408 2.022,1.309 6.447,-1.044 2.6890003,-1.43 6.0230003,-2.468 7.4080003,-2.306 2.097,0.245 2.465,0.749 2.2,3.014 -0.429,3.677 6.896,11.486 14.581,15.546 5.432,2.869 19.994,7.269 28.737,8.684 8.591,1.39 25.5,7.728 25.5,9.558 0,0.457 -0.723,3.654 -1.608,7.106 -0.915,3.573 -1.422,8.506 -1.178,11.457 0.964,11.623 11.056,24.939 22.285997,29.403 3.3,1.312 12.287,5.731 19.97,9.819 22.272,11.851 39.54,18.637 61.53,24.181 4.675,1.179 14.125,3.69 21,5.579 13.693,3.764 38.199,7.454 49.385,7.435 12.695,-0.021 21.615,-3.572 21.615,-8.605 0,-3.754 -4.087,-13.559 -6.637,-15.923 -1.3,-1.204 -2.363,-3.096 -2.363,-4.204 0,-2.233 -10.015,-12.087 -19.539,-19.223 -3.279,-2.456 -7.986,-6.197 -10.461,-8.312 -2.475,-2.115 -5.092,-4.313 -5.816,-4.884 -2.326,-1.836 -0.516,-2.036 7.18,-0.794 15.839,2.555 31.682,-0.33 32.471,-5.914 0.328,-2.317 0.496,-2.355 7.414,-1.673 6.454,0.636 36.086,-0.593 56.488,-2.344 4.673,-0.4 9,-0.304 10,0.223 2.884,1.519 8.174,6.793 12.812,12.772 4.982,6.425 5.67,6.749 22.157,10.462 13.644,3.073 13.927,3.016 17.269,-3.502 1.006,-1.962 3.972,-5.735 6.592,-8.384 3.985,-4.031 5.185,-4.713 7.348,-4.182 4.279,1.052 9.975,4.821 22.416,14.83 13.594,10.936 26.984,18.238 36.095,19.682 3.957,0.627 6.339,0.597 7.167,-0.09 0.683,-0.567 1.495,-4.044 1.806,-7.727 0.311,-3.683 0.651,-7.596 0.755,-8.696 0.366,-3.852 -3.683,-21.152 -7.437,-31.776 -0.54,-1.527 -2.384,-3.748 -4.099,-4.937 -1.715,-1.188 -5.593,-4.246 -8.618,-6.794 -3.025,-2.549 -6.625,-5.428 -8,-6.399 l -2.5,-1.764 4.147,0.656 c 7.077,1.118 7.134,-3.38 0.103,-8.033 -6.264,-4.145 -23.248,-12.614 -31.75,-15.831 -9.209,-3.485 -24,-10.721 -24,-11.742 0,-0.412 0.441,-1.909 0.979,-3.325 2.1,-5.524 -1.928,-9.742 -19.156,-20.055 -2.756,-1.65 -8.906,-5.513 -13.667,-8.584 -8.308,-5.359 -16.781,-10.528 -29.656,-18.091 -5.639,-3.313 -21.116,-8.958 -33.5,-12.22 -3.025,-0.796 -12.25,-3.523 -20.5,-6.058 -27.956,-8.5919996 -47.706,-12.6049996 -81.474,-16.55599957 -11.316,-1.324 -14.976,-1.176 -25.108,1.00999997"
     stroke="none"
     fill="#707674"
     fill-rule="evenodd"
     id="path1"
     style="fill:#ffffff;fill-opacity:1" />
</svg>
