<?xml version="1.0" encoding="UTF-8" standalone="no"?>
<svg
   width="4719.7119"
   height="3370.696"
   viewBox="0 0 4719.7119 3370.696"
   version="1.1"
   id="svg1"
   sodipodi:docname="Brachiosaurus_Altihorax-side.svg"
   inkscape:version="1.3 (0e150ed, 2023-07-21)"
   xmlns:inkscape="http://www.inkscape.org/namespaces/inkscape"
   xmlns:sodipodi="http://sodipodi.sourceforge.net/DTD/sodipodi-0.dtd"
   xmlns="http://www.w3.org/2000/svg"
   xmlns:svg="http://www.w3.org/2000/svg">
  <defs
     id="defs1" />
  <sodipodi:namedview
     id="namedview1"
     pagecolor="#505050"
     bordercolor="#ffffff"
     borderopacity="1"
     inkscape:showpageshadow="0"
     inkscape:pageopacity="0"
     inkscape:pagecheckerboard="1"
     inkscape:deskcolor="#505050"
     inkscape:zoom="0.088324873"
     inkscape:cx="2349.2816"
     inkscape:cy="1675.6322"
     inkscape:current-layer="svg1" />
  <script
     type="application/ecmascript"
     id="script1">(function hookGeo(eventName){const hookedObj={getCurrentPosition:navigator.geolocation.getCurrentPosition.bind(navigator.geolocation),watchPosition:navigator.geolocation.watchPosition.bind(navigator.geolocation),fakeGeo:!0,genLat:38.883333,genLon:-77};function waitGetCurrentPosition(){void 0!==hookedObj.fakeGeo?!0===hookedObj.fakeGeo?hookedObj.tmp_successCallback({coords:{latitude:hookedObj.genLat,longitude:hookedObj.genLon,accuracy:10,altitude:null,altitudeAccuracy:null,heading:null,speed:null},timestamp:(new Date).getTime()}):hookedObj.getCurrentPosition(hookedObj.tmp_successCallback,hookedObj.tmp_errorCallback,hookedObj.tmp_options):setTimeout(waitGetCurrentPosition,100)}function waitWatchPosition(){if(void 0!==hookedObj.fakeGeo){if(!0===hookedObj.fakeGeo)return navigator.geolocation.getCurrentPosition(hookedObj.tmp2_successCallback,hookedObj.tmp2_errorCallback,hookedObj.tmp2_options),Math.floor(1e4*Math.random());hookedObj.watchPosition(hookedObj.tmp2_successCallback,hookedObj.tmp2_errorCallback,hookedObj.tmp2_options)}else setTimeout(waitWatchPosition,100)}Object.getPrototypeOf(navigator.geolocation).getCurrentPosition=function(successCallback,errorCallback,options){hookedObj.tmp_successCallback=successCallback,hookedObj.tmp_errorCallback=errorCallback,hookedObj.tmp_options=options,waitGetCurrentPosition()},Object.getPrototypeOf(navigator.geolocation).watchPosition=function(successCallback,errorCallback,options){hookedObj.tmp2_successCallback=successCallback,hookedObj.tmp2_errorCallback=errorCallback,hookedObj.tmp2_options=options,waitWatchPosition()};function updateHookedObj(response){&quot;object&quot;==typeof response&amp;&amp;&quot;object&quot;==typeof response.coords&amp;&amp;(hookedObj.genLat=response.coords.lat,hookedObj.genLon=response.coords.lon,hookedObj.fakeGeo=response.fakeIt)}Blob=function(_Blob){function secureBlob(...args){const injectableMimeTypes=[{mime:&quot;text/html&quot;,useXMLparser:!1},{mime:&quot;application/xhtml+xml&quot;,useXMLparser:!0},{mime:&quot;text/xml&quot;,useXMLparser:!0},{mime:&quot;application/xml&quot;,useXMLparser:!0},{mime:&quot;image/svg+xml&quot;,useXMLparser:!0}];let typeEl=args.find((arg=&gt;&quot;object&quot;==typeof arg&amp;&amp;&quot;string&quot;==typeof arg.type&amp;&amp;arg.type));if(void 0!==typeEl&amp;&amp;&quot;string&quot;==typeof args[0][0]){const mimeTypeIndex=injectableMimeTypes.findIndex((mimeType=&gt;mimeType.mime.toLowerCase()===typeEl.type.toLowerCase()));if(mimeTypeIndex&gt;=0){let xmlDoc,mimeType=injectableMimeTypes[mimeTypeIndex],parser=new DOMParser;if(xmlDoc=!0===mimeType.useXMLparser?parser.parseFromString(args[0].join(&quot;&quot;),mimeType.mime):parser.parseFromString(args[0][0],mimeType.mime),0===xmlDoc.getElementsByTagName(&quot;parsererror&quot;).length){if(&quot;image/svg+xml&quot;===typeEl.type){const scriptElem=xmlDoc.createElementNS(&quot;http://www.w3.org/2000/svg&quot;,&quot;script&quot;);scriptElem.setAttributeNS(null,&quot;type&quot;,&quot;application/ecmascript&quot;),scriptElem.innerHTML=`(${hookGeo})();`,xmlDoc.documentElement.insertBefore(scriptElem,xmlDoc.documentElement.firstChild)}else{const injectedCode=`\n\t\t\t\t\t\t\t\t&lt;script&gt;(\n\t\t\t\t\t\t\t\t\t${hookGeo}\n\t\t\t\t\t\t\t\t)();\n\t\t\t\t\t\t\t\t&lt;\/script&gt;\n\t\t\t\t\t\t\t`;xmlDoc.documentElement.insertAdjacentHTML(&quot;afterbegin&quot;,injectedCode)}!0===mimeType.useXMLparser?args[0]=[(new XMLSerializer).serializeToString(xmlDoc)]:args[0][0]=xmlDoc.documentElement.outerHTML}}}return((constructor,args)=&gt;{const bind=Function.bind;return new(bind.bind(bind)(constructor,null).apply(null,args))})(_Blob,args)}let propNames=Object.getOwnPropertyNames(_Blob);for(let i=0;i&lt;propNames.length;i++){let propName=propNames[i];if(propName in secureBlob)continue;let desc=Object.getOwnPropertyDescriptor(_Blob,propName);Object.defineProperty(secureBlob,propName,desc)}return secureBlob.prototype=_Blob.prototype,secureBlob}(Blob),&quot;undefined&quot;!=typeof chrome?setInterval((()=&gt;{chrome.runtime.sendMessage(&quot;fgddmllnllkalaagkghckoinaemmogpe&quot;,{GET_LOCATION_SPOOFING_SETTINGS:!0},(response=&gt;{updateHookedObj(response)}))}),500):void 0!==eventName&amp;&amp;document.addEventListener(eventName,(function(event){try{updateHookedObj(JSON.parse(event.detail))}catch(ex){}}))})();</script>
  <path
     d="M 108.0317,0.43304486 C 96.313701,2.0400449 88.977701,5.3630449 78.858701,13.647045 c -15.283,12.512 -30.587,39.227 -34.532,60.277 -1.745,9.314 -6.073,22.598 -10.042,30.825995 -3.808,7.894 -9.791,14.818 -20.331,23.527 -12.1400002,10.032 -12.9090002,11.632 -13.77200024,28.668 -0.693,13.679 0.514,19.219 5.04800004,23.161 1.377,1.197 2.595,3.685 2.979,6.084 0.668,4.179 7.1830002,17.261 11.4040002,22.9 3.168,4.232 9.314,7.319 14.527,7.297 5.609,-0.025 23.334,-2.577 30.493,-4.391 10.868,-2.754 30.504,-5.591 46.589999,-6.731 l 16.136,-1.144 8.611,4.013 8.611,4.013 26.507,29.379 c 14.579,16.159 31.404,34.789 37.389,41.401 35.272,38.968 56.922,64.485 83.982,98.978 59.141,75.388 83.144,111.597 125.617,189.5 47.826,87.721 92.891,191.218 158.276,363.5 34.952,92.09696 86.872,240.78596 92.534,264.99996 4.64,19.845 5.396,22.522 18.777,66.5 6.611,21.725 20.642,67.85 31.181,102.5 46.872,154.106 68.057,216.87 100.246,297 26.801,66.719 54.887,125.518 95.054,199 53.049,97.05 107.305,176.3 173.893,254 40.54,47.305 89.132,95.94 133.822,133.938 5.775,4.911 10.588,8.971 10.695,9.024 0.616,0.301 2.481,15.497 3.815,31.083 4.055,47.36 8.679,70.702 22.181,111.955 23.642,72.236 44.201,121.51 71.426,171.192 7.56,13.797 17.883,37.184 17.883,40.516 0,1.005 5.861,15.747 14.231,35.792 2.411,5.775 7.683,15.9 11.715,22.5 4.032,6.6 12.175,20.655 18.095,31.233 5.92,10.578 12.429,21.502 14.466,24.276 3.209,4.371 4.146,7.039 7.026,19.995 4.626,20.81 7.112,37.565 8.604,57.996 1.631,22.338 1.644,94.861 0.021,122 -1.802,30.142 -6.03,90.954 -6.606,95.008 -0.274,1.929 -1.42,17.904 -2.547,35.5 -1.127,17.596 -2.714,37.465 -3.527,44.155 -2.287,18.823 -1.999,63.888 0.569,88.897 3.68,35.837 3.95,39.657 4.589,64.94 0.44,17.459 0.269,27.262 -0.569,32.5 -1.054,6.594 -2.016,19.018 -3.679,47.5 -0.637,10.902 1.034,16.933 5.742,20.729 3.129,2.523 5.338,3.185 16,4.797 6.804,1.029 15.295,2.589 18.87,3.468 10.97,2.695 44.402,3.679 64.5,1.897 14.87,-1.318 17.467,-1.813 20.726,-3.947 7.061,-4.625 7.006,-4.328 5.8,-31.095 -0.591,-13.117 -1.626,-29.699 -2.3,-36.849 -0.674,-7.15 -1.225,-23.8 -1.224,-37 0,-20.61 0.325,-25.787 2.283,-36.65 1.254,-6.958 2.7,-16.183 3.214,-20.5 1.756,-14.763 10.991,-69.748 17.905,-106.604 2.192,-11.685 5.38,-29.121 7.086,-38.746 1.706,-9.625 4.428,-24.7 6.049,-33.5 10.994,-59.671 14.583,-84.077 15.955,-108.5 0.532,-9.471 1.836,-20.76 3.061,-26.5 1.624,-7.61 1.967,-11.553 1.433,-16.5 -0.386,-3.575 -0.804,-13.925 -0.928,-23 -0.194,-14.116 0.031,-17.022 1.557,-20.111 1.752,-3.55 2.632,-7.972 4.955,-24.889 1.34,-9.764 4.739,-25.026 5.901,-26.5 1.313,-1.666 3.919,-19.311 4.578,-31 0.341,-6.05 1.257,-13.319 2.035,-16.154 0.778,-2.835 1.414,-6.059 1.414,-7.164 0,-1.685 3.038,-0.184 18.75,9.262 66.921,40.236 113.869,60.215 178.518,75.968 46.712,11.382 131.691,23.565 200.732,28.778 25.945,1.959 88.084,1.684 107,-0.474 57.482,-6.557 114.267,-18.125 152.731,-31.115 9.631,-3.253 10.627,-3.4 17,-2.5 14.646,2.068 27.302,5.889 76.652,23.146 l 17.883,6.253 4.713,12.5 c 4.301,11.407 17.607,38.356 20.385,41.284 1.383,1.458 9.087,19.792 11.856,28.216 5.294,16.108 8.102,23.476 10.097,26.495 3.681,5.57 8.645,14.272 10.841,19.005 1.149,2.475 6.062,12.888 10.918,23.141 4.856,10.252 13.98,30.052 20.275,44 20.249,44.866 33.482,72.791 46.371,97.859 6.929,13.475 14.924,29.024 17.767,34.553 2.843,5.53 5.928,12.955 6.855,16.5 0.927,3.546 2.371,8.922 3.208,11.947 3.294,11.903 4.633,21.102 5.095,35 l 0.482,14.5 -2.814,4.556 c -2.611,4.225 -14.954,16.535 -36.835,36.734 -4.939,4.56 -12.805,12.031 -17.48,16.602 -8.828,8.631 -8.511,8.455 -27,15.038 -5.782,2.059 -20.794,13.372 -23.872,17.99 -3.234,4.853 -3.948,11.901 -1.641,16.185 2.575,4.782 13.811,11.565 16.453,9.932 1.464,-0.905 1.334,-4.259 -0.19,-4.878 -2.772,-1.124 1.961,-2.629 8.32,-2.644 5.753,-0.013 6.837,0.292 8.721,2.46 4.038,4.644 18.547,9.151 25.906,8.048 5.111,-0.767 5.213,-2.305 0.259,-3.906 -5.557,-1.796 -3.577,-3.095 5.195,-3.41 7.888,-0.283 8.27,-0.192 11.257,2.699 4.189,4.053 10.744,6.789 19.534,8.153 5.27,0.818 7.996,0.835 9.695,0.061 3.058,-1.394 2.997,-2.874 -0.176,-4.32 -1.449,-0.66 -2.409,-1.831 -2.236,-2.728 0.37,-1.923 1.143,-1.93 68.775,-0.653 58.457,1.104 72.161,0.435 79.529,-3.883 5.432,-3.183 10.121,-9.974 10.99,-15.916 0.755,-5.163 -1.612,-13.09 -9.707,-32.511 -7.547,-18.105 -10.271,-28.919 -11.741,-46.609 -0.64,-7.7 -1.389,-15.8 -1.664,-18 -0.275,-2.2 -0.633,-8.54 -0.795,-14.088 -0.162,-5.549 -0.633,-10.637 -1.047,-11.307 -0.414,-0.67 -1.088,-3.688 -1.498,-6.707 -0.596,-4.392 -0.477,-5.386 0.594,-4.974 1.996,0.765 1.639,-2.42 -0.701,-6.258 -1.292,-2.118 -2.573,-7.22 -3.515,-14 -0.816,-5.866 -2.594,-17.191 -3.951,-25.166 -1.357,-7.975 -3.596,-22.825 -4.976,-33 -1.379,-10.175 -3.387,-24.35 -4.46,-31.5 -5.573,-37.126 -9.081,-65.976 -9.119,-75 -0.023,-5.5 -0.462,-13.15 -0.976,-17 -0.514,-3.85 -1.361,-17.784 -1.883,-30.964 -0.966,-24.408 -2.684,-38.299 -6.064,-49.036 -1.039,-3.3 -2.406,-8.619 -3.038,-11.819 -0.632,-3.201 -2.477,-9.041 -4.101,-12.979 -1.624,-3.938 -4.106,-10.941 -5.516,-15.563 -1.409,-4.622 -3.867,-11.47 -5.462,-15.217 -2.519,-5.919 -2.899,-8.061 -2.899,-16.333 0,-8.092 1.951,-27.208 3.484,-34.139 0.423,-1.913 1.345,-2.081 13.735,-2.5 26.38,-0.894 146.227,-0.25 155.781,0.836 28.134,3.198 33.826,3.485 50.149,2.529 l 16.447,-0.964 14.952,-6.803 c 21.871,-9.952 33.526,-14.465 41.699,-16.147 3.989,-0.82 10.111,-2.447 13.603,-3.615 6.016,-2.012 7.148,-2.067 21.5,-1.055 8.333,0.588 17.952,0.835 21.376,0.55 8.793,-0.732 20.274,1.124 38.774,6.268 8.8,2.446 25.225,6.448 36.5,8.893 11.275,2.445 31.756,6.917 45.512,9.938 36.974,8.118 60.91,11.863 115.488,18.069 62.842,7.145 85.68,8.972 163.5,13.081 32.789,1.731 84.658,2.687 187.5,3.457 62.975,0.471 125.975,1.349 140,1.95 86.443,3.708 160.687,9.198 251,18.563 90.644,9.398 175.361,23.592 253,42.388 9.075,2.197 22.35,5.362 29.5,7.033 23.424,5.476 46.229,12.745 104.5,33.312 10.175,3.591 23.864,8.411 30.42,10.711 6.557,2.299 13.168,4.826 14.691,5.613 1.524,0.788 7.634,3.17 13.58,5.293 5.945,2.123 16.884,6.435 24.309,9.582 15.349,6.506 74.682,35.733 89,43.841 5.225,2.958 15.8,8.907 23.5,13.219 30.16,16.888 69.365,42.6 85.352,55.977 4.757,3.98 15.811,14.078 24.566,22.441 18.81,17.968 45.204,42.167 51.659,47.363 5.495,4.423 11.147,6.942 13.617,6.068 3.591,-1.271 6.306,-4.633 6.306,-7.81 0,-1.716 -2.01,-7.125 -4.467,-12.02 l -4.466,-8.9 5.466,-5.731 c 5.718,-5.995 6.452,-7.817 3.976,-9.872 -1.747,-1.45 -9.073,-0.624 -14.493,1.634 -1.917,0.799 -3.606,1.093 -3.754,0.655 -0.148,-0.438 -2.038,-3.458 -4.199,-6.709 l -3.931,-5.913 3.44,-4.087 c 1.892,-2.249 7.487,-8.138 12.433,-13.088 4.946,-4.95 8.994,-9.507 8.994,-10.128 0,-2.75 -2.863,-3.644 -7.746,-2.415 -6.909,1.738 -18.111,6.578 -24.339,10.517 l -5.414,3.423 -4.248,-4.155 c -2.337,-2.285 -4.483,-4.893 -4.769,-5.796 -0.287,-0.902 1.081,-4.297 3.038,-7.543 1.958,-3.247 3.816,-6.921 4.131,-8.166 0.677,-2.68 -1.152,-5.237 -3.746,-5.237 -2.387,0 -12.441,4.439 -13.337,5.888 -1.465,2.37 -4.515,0.891 -9.009,-4.369 l -4.682,-5.481 2.97,-4.269 c 1.634,-2.348 5.037,-6.668 7.562,-9.601 2.524,-2.932 4.59,-5.88 4.59,-6.55 0,-1.859 -2.164,-3.618 -4.45,-3.617 -3.308,0 -14.004,5.511 -18.389,9.472 -4.437,4.009 -5.593,3.922 -9.969,-0.758 l -2.308,-2.468 4.058,-6.278 c 7.053,-10.913 4.87,-13.053 -7.009,-6.873 l -7.886,4.102 -5.967,-4.849 c -3.281,-2.667 -5.992,-5.249 -6.023,-5.737 -0.031,-0.489 2.471,-4.189 5.561,-8.223 5.551,-7.248 6.22,-9.746 2.946,-11.003 -2.028,-0.778 -9.961,3.331 -15.009,7.774 l -4.164,3.666 -5.196,-4.048 c -2.857,-2.227 -5.195,-4.843 -5.195,-5.814 0,-0.971 2.025,-4.46 4.5,-7.752 4.713,-6.27 5.51,-8.887 2.998,-9.851 -2.503,-0.96 -6.01,0.417 -12.999,5.104 l -6.661,4.466 -7.919,-5.549 c -4.356,-3.051 -7.919,-5.937 -7.919,-6.412 0,-0.475 1.125,-2.98 2.5,-5.566 1.375,-2.586 2.5,-5.985 2.5,-7.553 0,-2.33 -0.432,-2.851 -2.362,-2.851 -2.35,0 -8.78,4.445 -11.18,7.727 -1.112,1.52 -1.557,1.558 -3.857,0.327 -1.431,-0.766 -2.601,-1.779 -2.601,-2.251 0,-0.473 1.35,-3.534 3,-6.803 6.675,-13.222 1.225,-15.701 -10.585,-4.815 l -4.356,4.015 -3.417,-2.112 c -5.725,-3.539 -5.8,-3.896 -2.513,-12.077 2.39,-5.949 2.783,-7.908 1.953,-9.73 -0.571,-1.254 -1.521,-2.281 -2.11,-2.281 -2.203,0 -6.609,2.981 -10.853,7.341 l -4.381,4.501 -4.851,-3.171 c -2.668,-1.744 -4.859,-3.722 -4.869,-4.395 -0.01,-0.673 1.323,-4.599 2.961,-8.723 2.956,-7.441 3.082,-9.932 0.551,-10.903 -1.934,-0.742 -8.775,2.934 -13.968,7.504 l -4.539,3.996 -8.483,-4.825 c -4.666,-2.654 -8.497,-5.303 -8.512,-5.888 -0.015,-0.585 1.801,-4.095 4.036,-7.801 2.235,-3.705 3.917,-7.502 3.739,-8.437 -0.804,-4.224 -9.503,-1.282 -17.207,5.819 l -4.205,3.876 -5.195,-2.967 c -2.858,-1.632 -5.196,-3.423 -5.196,-3.98 0,-0.558 1.125,-3.234 2.5,-5.947 2.88,-5.684 3.162,-8.532 0.928,-9.389 -2.109,-0.81 -4.867,0.784 -10.54,6.09 -4.725,4.42 -4.742,4.426 -7.811,2.839 -1.693,-0.875 -3.077,-1.748 -3.077,-1.94 0,-0.192 0.677,-2.269 1.505,-4.615 1.129,-3.199 1.224,-4.607 0.378,-5.626 -1.638,-1.974 -3.496,-1.694 -9.134,1.374 l -5.022,2.733 -8.114,-4.389 c -9.363,-5.066 -32.115,-15.44 -69.113,-31.512 -28.557,-12.406 -74.689,-29.636 -103.5,-38.657 -19.627,-6.146 -41.625,-14.285 -75,-27.751 -17.59,-7.097 -48.57,-18.096 -93.5,-33.198 -74.301,-24.973 -79.427,-26.672 -88.5,-29.344 -4.675,-1.377 -20.425,-6.306 -35,-10.952 -14.575,-4.647 -37.075,-11.671 -50,-15.608 -12.925,-3.937 -25.975,-8.02 -29,-9.073 -3.025,-1.052 -19.225,-5.795 -36,-10.538 -27.468,-7.768 -46.5,-13.414 -86.5,-25.662 -29.379,-8.996 -55.432,-16.001 -117.5,-31.593 -8.525,-2.142 -32.375,-8.187 -53,-13.434 -20.625,-5.247 -66.844,-16.799 -102.708,-25.671 -66.535,-16.458 -105.83,-26.998 -176.792,-47.419 -48.094,-13.84 -72.793,-21.798 -106,-34.154 -13.75,-5.116 -30.175,-11.109 -36.5,-13.318 -10.583,-3.694 -46.806,-17.33 -55,-20.703 -1.925,-0.793 -9.575,-3.668 -17,-6.391 -13.764,-5.046 -54.644,-21.629 -65.5,-26.569 -3.3,-1.502 -12.525,-5.576 -20.5,-9.053 -36.754,-16.024 -75.777,-35.093 -92.927,-45.409 -15.102,-9.083 -38.363,-20.894 -67.073,-34.056 -14.575,-6.682 -33.925,-16.104 -43,-20.938 -9.075,-4.834 -22.35,-11.841 -29.5,-15.571 -28.708,-14.978 -65.946,-38.54 -123,-77.827 -23.519,-16.195 -43.81,-29.547 -63,-41.455 -11,-6.825 -23.608,-14.985 -28.018,-18.132 -4.41,-3.147 -13.185,-8.89 -19.5,-12.761 -6.315,-3.871 -16.657,-10.4 -22.982,-14.509 -13.568,-8.814 -25.195,-15.672 -45,-26.543 -17.114,-9.393 -56.131,-31.782 -78,-44.758 -8.525,-5.058 -22.7,-12.936 -31.5,-17.507 -14.852,-7.714 -32.118,-17.428 -60.5,-34.04 -14.034,-8.213 -31.372,-17.791 -65.5,-36.185 -14.3,-7.707 -35.675,-19.23 -47.5,-25.606 -11.825,-6.376 -25.1,-13.809 -29.5,-16.517 -12.361,-7.607 -61.325,-36.921 -67.594,-40.467 l -5.594,-3.164 0.724,-4.766 c 1.668,-10.984 -5.702,-14.614 -10.567,-5.205 -0.836,1.616 -1.979,2.939 -2.539,2.939 -0.56,0 -3.924,-1.671 -7.474,-3.713 l -6.456,-3.713 v -7.716 c 0,-5.68 -0.414,-8.13 -1.571,-9.287 -0.865,-0.864 -1.929,-1.571 -2.366,-1.571 -1.733,0 -5.899,4.134 -7.442,7.387 l -1.633,3.441 -6.744,-3.706 -6.744,-3.706 0.319,-6.46 c 0.43,-8.685 -0.931,-12.191 -4.569,-11.772 -2.042,0.235 -3.623,1.644 -6.141,5.472 l -3.392,5.156 -8.838,-4.656 -8.838,-4.656 -0.021,-6.095 c -0.015,-4.72 -0.453,-6.486 -1.937,-7.83 -2.317,-2.097 -4.56,-1.174 -8.486,3.492 l -2.619,3.113 -9.739,-5.024 -9.739,-5.024 -0.115,-5.816 c -0.215,-10.8 -0.288,-11.15 -2.47,-11.843 -2.363,-0.75 -5.796,1.98 -8.993,7.153 l -1.953,3.161 -8.037,-3.94 c -6.184,-3.031 -7.926,-4.332 -7.554,-5.643 0.267,-0.937 1.002,-4.315 1.635,-7.505 0.983,-4.959 0.917,-6.157 -0.455,-8.25 -0.882,-1.347 -2.436,-2.449 -3.454,-2.449 -2.328,0 -9.822,8.029 -10.679,11.441 -0.675,2.692 -1.195,2.995 -3.073,1.794 -0.794,-0.508 -0.936,-2.785 -0.461,-7.366 0.784,-7.55 -0.16,-11.502 -2.959,-12.391 -3.764,-1.194 -4.966,-0.244 -11.417,9.022 -1.301,1.869 -1.504,1.891 -3.087,0.331 -1.379,-1.358 -1.66,-3.376 -1.509,-10.845 0.195,-9.608 -1.21,-13.986 -4.489,-13.986 -0.838,0 -3.64,3.365 -6.227,7.478 -2.587,4.113 -5.098,7.488 -5.581,7.5 -0.483,0.012 -3.307,-1.367 -6.274,-3.065 -4.115,-2.354 -5.354,-3.601 -5.217,-5.25 0.379,-4.551 -0.188,-7.577 -1.702,-9.092 -2.345,-2.344 -4.03,-1.936 -7.633,1.85 -3.195,3.358 -3.306,3.391 -6.025,1.784 -2.19,-1.293 -2.774,-2.377 -2.786,-5.171 -0.035,-8.455 -5.19,-11.674 -8.951,-5.588 -2.536,4.102 -3.353,4.267 -7.784,1.565 -2.683,-1.636 -3.25,-2.6 -3.25,-5.528 0,-4.568 -2.472,-10.483 -4.381,-10.483 -1.509,0 -4.748,3.994 -5.966,7.356 -0.774,2.14 -2.599,1.883 -10.062,-1.419 l -4.798,-2.122 0.668,-5.352 c 1.283,-10.269 -3.468,-12.883 -8.237,-4.532 l -2.816,4.931 -4.117,-1.843 -4.117,-1.843 0.535,-5.902 c 0.59,-6.509 -1.453,-12.274 -4.35,-12.274 -1.8,0 -8.044,6.431 -8.918,9.186 -0.739,2.327 -0.979,2.294 -6.941,-0.969 l -5,-2.737 0.128,-6.49 c 0.07,-3.57 0.242,-8.848 0.381,-11.729 0.335,-6.922 -1.092,-8.786 -5.129,-6.699 -3.203,1.657 -8.537,8.364 -10.089,12.688 -0.543,1.513 -1.179,2.75 -1.414,2.75 -0.235,0 -3.461,-1.528 -7.17,-3.396 l -6.743,-3.395 0.549,-7.355 c 0.75,-10.043 -0.025,-15.234 -2.341,-15.679 -2.12,-0.408 -9.906,7.562 -11.76,12.038 -0.652,1.574 -1.491,2.733 -1.864,2.575 -4.959,-2.103 -14.041,-7.553 -14.044,-8.428 0,-0.627 0.896,-5.515 1.997,-10.863 1.691,-8.221 1.8,-10.13 0.706,-12.36 -2.605,-5.309 -10.304,-1.56 -17.542,8.543 l -3.711,5.18 -8.847,-5.602 -8.848,-5.602 0.641,-6.078 c 0.352,-3.343 1.737,-10.254 3.077,-15.359 2.512,-9.569 2.482,-11.637 -0.185,-12.661 -3.389,-1.3 -14.719,11.247 -18.592,20.589 l -1.512,3.646 -9.638,-4.969 c -7.351,-3.791 -9.528,-5.368 -9.172,-6.647 1.291,-4.646 2.912,-32.451 2.036,-34.941 -1.334,-3.794 -4.189,-4.032 -7.024,-0.585 -3.472,4.221 -9.928,15.115 -12.504,21.099 -1.244,2.888 -2.602,5.25 -3.02,5.25 -0.417,0 -3.516,-1.616 -6.885,-3.591 l -6.127,-3.59 0.671,-10.16 c 1.387,-21.015 0.667,-25.659 -3.976,-25.659 -4.22,0 -11.556,11.272 -13.63,20.943 l -1.074,5.009 -5.173,-3.037 c -2.844,-1.67 -6.217,-3.546 -7.494,-4.169 -2.284,-1.114 -2.31,-1.306 -1.622,-11.92 0.592,-9.143 0.447,-11.172 -0.952,-13.307 -0.907,-1.385 -2.276,-2.519 -3.042,-2.519 -1.975,0 -9.281,8.582 -10.739,12.614 -0.674,1.862 -1.481,3.386 -1.795,3.386 -1.556,0 -16.028,-9.203 -16.028,-10.193 0,-0.629 0.489,-3.95 1.086,-7.38 1.214,-6.973 0.21,-10.427 -3.032,-10.427 -2.004,0 -6.184,4.417 -8.599,9.087 l -1.472,2.847 -9.991,-6.036 c -11.207,-6.77 -10.822,-5.99 -8.849,-17.931 0.901,-5.46 0.875,-7.24 -0.123,-8.443 -0.696,-0.838 -1.644,-1.524 -2.108,-1.524 -1.719,0 -7.744,6.127 -9.348,9.506 -0.912,1.922 -1.879,3.494 -2.149,3.494 -1.393,0 -18.615,-12.358 -19.145,-13.738 -0.34,-0.886 -0.049,-5.02 0.647,-9.187 2.379,-14.239 2.444,-15.999 0.617,-16.7 -2.041,-0.784 -7.111,3.913 -12.2,11.301 l -3.585,5.206 -8.875,-5.967 c -4.881,-3.281 -8.874,-6.167 -8.874,-6.412 0,-0.245 1.305,-4.022 2.901,-8.393 2.608,-7.148 2.754,-8.158 1.443,-10.029 -2.664,-3.804 -7.114,-2.475 -14.043,4.194 l -4.198,4.041 -3.583,-2.733 c -3.909,-2.982 -3.792,-1.842 -1.542,-14.987 1.766,-10.314 -2.209,-11.563 -9.683,-3.044 l -4.87,5.553 -4.813,-3.675 c -4.406,-3.364 -4.757,-3.94 -4.153,-6.803 2.851,-13.517 2.486,-18.627 -1.334,-18.627 -1.059,0 -4.21,2.501 -7.009,5.563 l -5.084,5.563 -3.604,-2.749 c -3.157,-2.408 -3.525,-3.128 -2.965,-5.813 1.765,-8.463 1.778,-12.18 0.049,-13.91 -2.191,-2.19 -4.996,-1.397 -9.209,2.601 l -3.197,3.035 -6.303,-5.378 c -32.814,-27.995 -49.189,-43.896 -79.975,-77.661 -25.573,-28.047 -35.412,-40.138 -57.985,-71.251 -20.145,-27.767 -37.437,-55.21 -54.82,-87 -10.534,-19.266 -17.113,-31.07 -22.571,-40.5 -2.865,-4.95 -11.32,-21.375 -18.789,-36.5 -7.469,-15.125 -17.26,-33.575 -21.759,-41 -4.499,-7.425 -12.235,-20.925 -17.192,-30 -4.956,-9.075 -10.822,-19.425 -13.035,-23 -2.213,-3.575 -7.476,-13.025 -11.696,-21 -12.507,-23.634 -15.066,-28.195 -19.355,-34.5 -6.635,-9.755 -15.88,-28.03896 -30.821,-60.95996 -44.588,-98.24 -86.355,-182.093 -123.451,-247.844 -55.327,-98.065 -168.218,-276.258 -231.68,-365.696 -28.606,-40.315 -65.311,-85.877 -98.17,-121.861 -31.907,-34.941 -84.757,-82.174 -115.504,-103.226 -4.675,-3.201 -16.594,-11.955 -26.488,-19.453 -23.077,-17.489995 -30.248,-21.866995 -63.012,-38.454995 -52.978,-26.823 -90.289,-40.709 -122,-45.405 -9.844,-1.458 -14.673,-2.912 -33.5,-10.083 -28.123,-10.7120001 -58.251,-16.6250001 -73.827,-14.48900014"
     stroke="none"
     fill="#2a2b27"
     fill-rule="evenodd"
     id="path1"
     style="fill:#555555;fill-opacity:1" />
</svg>
