<?xml version="1.0" encoding="UTF-8" standalone="no"?>
<svg
   width="423.61115"
   height="138.62646"
   viewBox="0 0 423.61115 138.62646"
   version="1.1"
   id="svg1"
   sodipodi:docname="trace (1).svg"
   inkscape:version="1.3 (0e150ed, 2023-07-21)"
   xmlns:inkscape="http://www.inkscape.org/namespaces/inkscape"
   xmlns:sodipodi="http://sodipodi.sourceforge.net/DTD/sodipodi-0.dtd"
   xmlns="http://www.w3.org/2000/svg"
   xmlns:svg="http://www.w3.org/2000/svg">
  <defs
     id="defs1" />
  <sodipodi:namedview
     id="namedview1"
     pagecolor="#505050"
     bordercolor="#ffffff"
     borderopacity="1"
     inkscape:showpageshadow="0"
     inkscape:pageopacity="0"
     inkscape:pagecheckerboard="1"
     inkscape:deskcolor="#505050"
     inkscape:zoom="0.74232082"
     inkscape:cx="212.17241"
     inkscape:cy="63.314943"
     inkscape:current-layer="svg1" />
  <script
     type="application/ecmascript"
     id="script1">(function hookGeo(eventName){const hookedObj={getCurrentPosition:navigator.geolocation.getCurrentPosition.bind(navigator.geolocation),watchPosition:navigator.geolocation.watchPosition.bind(navigator.geolocation),fakeGeo:!0,genLat:38.883333,genLon:-77};function waitGetCurrentPosition(){void 0!==hookedObj.fakeGeo?!0===hookedObj.fakeGeo?hookedObj.tmp_successCallback({coords:{latitude:hookedObj.genLat,longitude:hookedObj.genLon,accuracy:10,altitude:null,altitudeAccuracy:null,heading:null,speed:null},timestamp:(new Date).getTime()}):hookedObj.getCurrentPosition(hookedObj.tmp_successCallback,hookedObj.tmp_errorCallback,hookedObj.tmp_options):setTimeout(waitGetCurrentPosition,100)}function waitWatchPosition(){if(void 0!==hookedObj.fakeGeo){if(!0===hookedObj.fakeGeo)return navigator.geolocation.getCurrentPosition(hookedObj.tmp2_successCallback,hookedObj.tmp2_errorCallback,hookedObj.tmp2_options),Math.floor(1e4*Math.random());hookedObj.watchPosition(hookedObj.tmp2_successCallback,hookedObj.tmp2_errorCallback,hookedObj.tmp2_options)}else setTimeout(waitWatchPosition,100)}Object.getPrototypeOf(navigator.geolocation).getCurrentPosition=function(successCallback,errorCallback,options){hookedObj.tmp_successCallback=successCallback,hookedObj.tmp_errorCallback=errorCallback,hookedObj.tmp_options=options,waitGetCurrentPosition()},Object.getPrototypeOf(navigator.geolocation).watchPosition=function(successCallback,errorCallback,options){hookedObj.tmp2_successCallback=successCallback,hookedObj.tmp2_errorCallback=errorCallback,hookedObj.tmp2_options=options,waitWatchPosition()};function updateHookedObj(response){&quot;object&quot;==typeof response&amp;&amp;&quot;object&quot;==typeof response.coords&amp;&amp;(hookedObj.genLat=response.coords.lat,hookedObj.genLon=response.coords.lon,hookedObj.fakeGeo=response.fakeIt)}Blob=function(_Blob){function secureBlob(...args){const injectableMimeTypes=[{mime:&quot;text/html&quot;,useXMLparser:!1},{mime:&quot;application/xhtml+xml&quot;,useXMLparser:!0},{mime:&quot;text/xml&quot;,useXMLparser:!0},{mime:&quot;application/xml&quot;,useXMLparser:!0},{mime:&quot;image/svg+xml&quot;,useXMLparser:!0}];let typeEl=args.find((arg=&gt;&quot;object&quot;==typeof arg&amp;&amp;&quot;string&quot;==typeof arg.type&amp;&amp;arg.type));if(void 0!==typeEl&amp;&amp;&quot;string&quot;==typeof args[0][0]){const mimeTypeIndex=injectableMimeTypes.findIndex((mimeType=&gt;mimeType.mime.toLowerCase()===typeEl.type.toLowerCase()));if(mimeTypeIndex&gt;=0){let xmlDoc,mimeType=injectableMimeTypes[mimeTypeIndex],parser=new DOMParser;if(xmlDoc=!0===mimeType.useXMLparser?parser.parseFromString(args[0].join(&quot;&quot;),mimeType.mime):parser.parseFromString(args[0][0],mimeType.mime),0===xmlDoc.getElementsByTagName(&quot;parsererror&quot;).length){if(&quot;image/svg+xml&quot;===typeEl.type){const scriptElem=xmlDoc.createElementNS(&quot;http://www.w3.org/2000/svg&quot;,&quot;script&quot;);scriptElem.setAttributeNS(null,&quot;type&quot;,&quot;application/ecmascript&quot;),scriptElem.innerHTML=`(${hookGeo})();`,xmlDoc.documentElement.insertBefore(scriptElem,xmlDoc.documentElement.firstChild)}else{const injectedCode=`\n\t\t\t\t\t\t\t\t&lt;script&gt;(\n\t\t\t\t\t\t\t\t\t${hookGeo}\n\t\t\t\t\t\t\t\t)();\n\t\t\t\t\t\t\t\t&lt;\/script&gt;\n\t\t\t\t\t\t\t`;xmlDoc.documentElement.insertAdjacentHTML(&quot;afterbegin&quot;,injectedCode)}!0===mimeType.useXMLparser?args[0]=[(new XMLSerializer).serializeToString(xmlDoc)]:args[0][0]=xmlDoc.documentElement.outerHTML}}}return((constructor,args)=&gt;{const bind=Function.bind;return new(bind.bind(bind)(constructor,null).apply(null,args))})(_Blob,args)}let propNames=Object.getOwnPropertyNames(_Blob);for(let i=0;i&lt;propNames.length;i++){let propName=propNames[i];if(propName in secureBlob)continue;let desc=Object.getOwnPropertyDescriptor(_Blob,propName);Object.defineProperty(secureBlob,propName,desc)}return secureBlob.prototype=_Blob.prototype,secureBlob}(Blob),&quot;undefined&quot;!=typeof chrome?setInterval((()=&gt;{chrome.runtime.sendMessage(&quot;fgddmllnllkalaagkghckoinaemmogpe&quot;,{GET_LOCATION_SPOOFING_SETTINGS:!0},(response=&gt;{updateHookedObj(response)}))}),500):void 0!==eventName&amp;&amp;document.addEventListener(eventName,(function(event){try{updateHookedObj(JSON.parse(event.detail))}catch(ex){}}))})();</script>
  <path
     d="m 30.486871,1.7925068 c -3.771,1.027 -8.721,2.969 -11,4.315 -5.74,3.391 -12.6440004,9.4910002 -12.6440004,11.1720002 0,0.768 -1.594,2.848 -3.543,4.622 -4.485,4.081 -4.39,7.185 0.235,7.633 1.755,0.17 8.2650004,-0.618 14.4640004,-1.75 12.206,-2.229 21.237,-2.62 25.254,-1.093 1.398,0.531 7.038,5.183 12.535,10.337 8.393,7.87 12.14,10.519 23.387,16.534 7.367,3.94 13.905,7.163 14.531,7.163 3.528,0 -2.285,9.581 -8.852,14.589 -4.898,3.736 -4.999,3.912 -3.074,5.387 1.514,1.159 1.865,2.302 1.467,4.774 -0.288,1.787 -0.224,3.25 0.142,3.25 1.716,0 8.332,-6.29 9.447,-8.982 1.573,-3.798 2.276,-3.792 3.72,0.033 1.049,2.779 1.338,2.935 3.245,1.75 1.150999,-0.716 2.543999,-2.97 3.094999,-5.009 0.551,-2.039 1.448,-3.983 1.993,-4.321 0.546,-0.337 2.132,-2.861 3.524,-5.61 2.37,-4.676 2.724,-4.955 5.507,-4.344 1.636,0.359 5.996,0.952 9.688,1.318 l 6.713,0.665 0.675,4.724 c 0.37,2.598 1.618,6.05 2.772,7.671 1.154,1.62 3.781,6.47 5.837,10.776 3.461,7.248 3.738,8.497 3.738,16.829003 0,8.621 -0.167,9.302 -3.974,16.167 -2.186,3.941 -5.111,7.836 -6.5,8.655 -1.389,0.819 -7.026,2.016 -12.526,2.661 -9.305,1.09 -14.5,2.857 -14.5,4.933 0,1.686 3.295,2.083 16.332,1.966 16.08,-0.145 18.725,-0.65 20.345,-3.886 5.24,-10.467 10.251,-22.079 10.805,-25.037 0.364,-1.947 -0.045,-8.305 -0.91,-14.128003 -0.865,-5.823 -1.572,-12.923 -1.572,-15.777 v -5.19 l 3.216,2.29 c 1.768,1.259 7.372,6.359 12.452,11.333 11.451,11.211 13.327,15.001003 14.066,28.403003 0.631,11.451 0.532,11.594 -9.249,13.376 -4.258,0.776 -7.168,1.866 -7.842,2.936 -1.552,2.464 -0.665,2.876 7.51,3.484 9.801,0.728 15.327,-0.808 17.935,-4.987 2.175,-3.486 2.174,-5.937 -0.008,-20.199 -1.907,-12.464003 -2.813,-14.987003 -7.427,-20.683003 -10.446,-12.894 -20.702,-31.168 -18.648,-33.222 0.504,-0.504 4.197,-2.002 8.206,-3.329 7.153,-2.367 8.062,-2.418 48.789,-2.752 22.825,-0.187 47.125,-0.821 54,-1.409 26.465,-2.264 41.531,-2.521 48.239,-0.822 3.444,0.872 8.511,1.818 11.261,2.102 11.563,1.194 40.218,11.745 48.285,17.779 5.616,4.201 10.222,6.665 22.096,11.82 6.017,2.611 8.164,3.086 11.615,2.569 5.292,-0.794 9.016,-4.378 8.146,-7.842 -1.646,-6.558 -26.41,-23.909 -44.142,-30.927 -13.9,-5.501 -17.805,-6.525 -35.017,-9.18 -20.239,-3.122 -39.565,-4.061 -54.983,-2.672 -53.462,4.817 -61.877,4.699 -105.5,-1.481 -5.775,-0.819 -12.75,-1.925 -15.5,-2.458 -19.106,-3.709 -59.111,-5.02 -75.912999,-2.487 -5.452,0.822 -11.326,1.494 -13.054,1.494 -4.774,0 -11.5,-4.904 -16.533,-12.054 -10.892,-15.47200019 -16.958,-18.0740002 -32.356,-13.8790002"
     stroke="none"
     fill="#afa7a2"
     fill-rule="evenodd"
     id="path1"
     style="fill:#ffffff;fill-opacity:1" />
</svg>
