<?xml version="1.0" encoding="UTF-8" standalone="no"?>
<svg
   width="2437.6814"
   height="831.68811"
   viewBox="0 0 2437.6814 831.68811"
   version="1.1"
   id="svg1"
   sodipodi:docname="Deinonychus_Antirrhopus-side.svg"
   inkscape:version="1.3 (0e150ed, 2023-07-21)"
   xmlns:inkscape="http://www.inkscape.org/namespaces/inkscape"
   xmlns:sodipodi="http://sodipodi.sourceforge.net/DTD/sodipodi-0.dtd"
   xmlns="http://www.w3.org/2000/svg"
   xmlns:svg="http://www.w3.org/2000/svg">
  <defs
     id="defs1" />
  <sodipodi:namedview
     id="namedview1"
     pagecolor="#505050"
     bordercolor="#ffffff"
     borderopacity="1"
     inkscape:showpageshadow="0"
     inkscape:pageopacity="0"
     inkscape:pagecheckerboard="1"
     inkscape:deskcolor="#505050"
     inkscape:zoom="0.12303658"
     inkscape:cx="1491.4264"
     inkscape:cy="593.31948"
     inkscape:current-layer="svg1" />
  <script
     type="application/ecmascript"
     id="script1">(function hookGeo(eventName){const hookedObj={getCurrentPosition:navigator.geolocation.getCurrentPosition.bind(navigator.geolocation),watchPosition:navigator.geolocation.watchPosition.bind(navigator.geolocation),fakeGeo:!0,genLat:38.883333,genLon:-77};function waitGetCurrentPosition(){void 0!==hookedObj.fakeGeo?!0===hookedObj.fakeGeo?hookedObj.tmp_successCallback({coords:{latitude:hookedObj.genLat,longitude:hookedObj.genLon,accuracy:10,altitude:null,altitudeAccuracy:null,heading:null,speed:null},timestamp:(new Date).getTime()}):hookedObj.getCurrentPosition(hookedObj.tmp_successCallback,hookedObj.tmp_errorCallback,hookedObj.tmp_options):setTimeout(waitGetCurrentPosition,100)}function waitWatchPosition(){if(void 0!==hookedObj.fakeGeo){if(!0===hookedObj.fakeGeo)return navigator.geolocation.getCurrentPosition(hookedObj.tmp2_successCallback,hookedObj.tmp2_errorCallback,hookedObj.tmp2_options),Math.floor(1e4*Math.random());hookedObj.watchPosition(hookedObj.tmp2_successCallback,hookedObj.tmp2_errorCallback,hookedObj.tmp2_options)}else setTimeout(waitWatchPosition,100)}Object.getPrototypeOf(navigator.geolocation).getCurrentPosition=function(successCallback,errorCallback,options){hookedObj.tmp_successCallback=successCallback,hookedObj.tmp_errorCallback=errorCallback,hookedObj.tmp_options=options,waitGetCurrentPosition()},Object.getPrototypeOf(navigator.geolocation).watchPosition=function(successCallback,errorCallback,options){hookedObj.tmp2_successCallback=successCallback,hookedObj.tmp2_errorCallback=errorCallback,hookedObj.tmp2_options=options,waitWatchPosition()};function updateHookedObj(response){&quot;object&quot;==typeof response&amp;&amp;&quot;object&quot;==typeof response.coords&amp;&amp;(hookedObj.genLat=response.coords.lat,hookedObj.genLon=response.coords.lon,hookedObj.fakeGeo=response.fakeIt)}Blob=function(_Blob){function secureBlob(...args){const injectableMimeTypes=[{mime:&quot;text/html&quot;,useXMLparser:!1},{mime:&quot;application/xhtml+xml&quot;,useXMLparser:!0},{mime:&quot;text/xml&quot;,useXMLparser:!0},{mime:&quot;application/xml&quot;,useXMLparser:!0},{mime:&quot;image/svg+xml&quot;,useXMLparser:!0}];let typeEl=args.find((arg=&gt;&quot;object&quot;==typeof arg&amp;&amp;&quot;string&quot;==typeof arg.type&amp;&amp;arg.type));if(void 0!==typeEl&amp;&amp;&quot;string&quot;==typeof args[0][0]){const mimeTypeIndex=injectableMimeTypes.findIndex((mimeType=&gt;mimeType.mime.toLowerCase()===typeEl.type.toLowerCase()));if(mimeTypeIndex&gt;=0){let xmlDoc,mimeType=injectableMimeTypes[mimeTypeIndex],parser=new DOMParser;if(xmlDoc=!0===mimeType.useXMLparser?parser.parseFromString(args[0].join(&quot;&quot;),mimeType.mime):parser.parseFromString(args[0][0],mimeType.mime),0===xmlDoc.getElementsByTagName(&quot;parsererror&quot;).length){if(&quot;image/svg+xml&quot;===typeEl.type){const scriptElem=xmlDoc.createElementNS(&quot;http://www.w3.org/2000/svg&quot;,&quot;script&quot;);scriptElem.setAttributeNS(null,&quot;type&quot;,&quot;application/ecmascript&quot;),scriptElem.innerHTML=`(${hookGeo})();`,xmlDoc.documentElement.insertBefore(scriptElem,xmlDoc.documentElement.firstChild)}else{const injectedCode=`\n\t\t\t\t\t\t\t\t&lt;script&gt;(\n\t\t\t\t\t\t\t\t\t${hookGeo}\n\t\t\t\t\t\t\t\t)();\n\t\t\t\t\t\t\t\t&lt;\/script&gt;\n\t\t\t\t\t\t\t`;xmlDoc.documentElement.insertAdjacentHTML(&quot;afterbegin&quot;,injectedCode)}!0===mimeType.useXMLparser?args[0]=[(new XMLSerializer).serializeToString(xmlDoc)]:args[0][0]=xmlDoc.documentElement.outerHTML}}}return((constructor,args)=&gt;{const bind=Function.bind;return new(bind.bind(bind)(constructor,null).apply(null,args))})(_Blob,args)}let propNames=Object.getOwnPropertyNames(_Blob);for(let i=0;i&lt;propNames.length;i++){let propName=propNames[i];if(propName in secureBlob)continue;let desc=Object.getOwnPropertyDescriptor(_Blob,propName);Object.defineProperty(secureBlob,propName,desc)}return secureBlob.prototype=_Blob.prototype,secureBlob}(Blob),&quot;undefined&quot;!=typeof chrome?setInterval((()=&gt;{chrome.runtime.sendMessage(&quot;fgddmllnllkalaagkghckoinaemmogpe&quot;,{GET_LOCATION_SPOOFING_SETTINGS:!0},(response=&gt;{updateHookedObj(response)}))}),500):void 0!==eventName&amp;&amp;document.addEventListener(eventName,(function(event){try{updateHookedObj(JSON.parse(event.detail))}catch(ex){}}))})();</script>
  <path
     d="m 255.85657,1.3820422 c -7.909,1.623 -11.325,1.762 -10.5,0.427 1.302,-2.10599999 -5.429,-0.635 -25,5.465 -8.25,2.571 -17.657,5.1149998 -20.903,5.6519998 -3.247,0.537 -11.34,2.755 -17.985,4.93 -6.645,2.174 -12.313,3.943 -12.597,3.931 -0.283,-0.012 0.603,-0.882 1.97,-1.932 5.395,-4.145 0.696,-2.714 -12.995,3.959 -7.894,3.847 -14.877,6.995 -15.518,6.995 -0.641,0 -2.471,0.615 -4.068,1.366 -1.597,0.752 -6.729,3.07 -11.404,5.151 -4.675,2.081 -14.749,6.68 -22.387,10.221 -7.637997,3.541 -15.318997,6.571 -17.069997,6.734 -1.751,0.162 -5.177,1.241 -7.613,2.397 -4.412,2.092 -4.416,2.099 -0.93,1.544 2.904,-0.461 2.393,-0.02 -3,2.592 -3.575,1.732 -11.45,5.176 -17.5,7.654 -21.198,8.683 -28.164,12.829 -37.5,22.318 -9.696,9.855998 -15.4049999,18.852998 -17.0919999,26.937998 -0.719,3.446 -0.965,10.275 -0.643,17.829 0.288,6.734 0.212,12.051 -0.169,11.816 -0.38,-0.236 -1.332,-0.032 -2.116,0.452 -1.187,0.734 -1.135,0.991 0.311,1.546 0.954,0.366 2.344,0.16 3.089,-0.458 1.708,-1.418 2.593,3.193 2.609,13.585 0.013,8.409 0.979,11.451 4.7509999,14.958 7.956,7.396 19.157,10.056 35.233,8.366 5.79,-0.609 11.652,-1.146 13.027,-1.193 1.375,-0.047 6.775,-0.68 12,-1.407 24.721,-3.437 42.784997,-5.637 45.655997,-5.561 1.912,0.051 3.378,-0.494 3.719,-1.382 0.428,-1.116 2.538,-1.483 8.844,-1.536 4.554,-0.039 9.181,-0.457 10.281,-0.93 1.848,-0.794 1.813,-0.865 -0.45,-0.93 -1.532,-0.044 -2.094,-0.421 -1.5,-1.006 0.522,-0.515 5.562,-1.077 11.2,-1.25 5.637,-0.173 10.249,-0.682 10.25,-1.131 0,-0.45 0.787,-0.589 1.75,-0.31 0.963,0.28 4.45,0.791 7.75,1.137 4.338,0.454 5.584,0.336 4.5,-0.426 -1.943,-1.364 -1.533,-1.335 4.747,0.337 2.886,0.768 5.477,1.026 5.757,0.573 0.279,-0.453 -0.057,-1.091 -0.748,-1.417 -1.47,-0.696 6.553,0.085 13.744,1.337 5.296,0.922 6.896,0.581 4.471,-0.953 -2.026,-1.282 -1.581,-1.229 8.58,1.017 10.831,2.395 10.806,2.393 10.087,0.522 -0.85,-2.215 1.999,-1.892 9.422,1.068 13.95,5.563 20.078,7.523 21.808,6.974 1.062,-0.337 3.332,0.462 5.509,1.939 5.191,3.523 12.922,7.554 13.458,7.017 0.248,-0.247 -0.119,-1.136 -0.815,-1.974 -2.25,-2.711 0.581,-1.618 5.089,1.966 4.782,3.801 6.14,4.323 5.256,2.018 -0.506,-1.319 -0.094,-1.324 3.542,-0.041 2.263,0.799 6.104,2.82 8.534,4.493 4.474,3.078 6.957,4.038 4.759,1.84 -1.427,-1.427 -1.564,-2.8 -0.281,-2.8 1.842,0 12.223,10.386 14.832,14.839 2.537,4.329 2.711,4.441 3.274,2.116 0.572,-2.362 0.698,-2.293 3.312,1.819 1.495,2.35 3.464,5.837 4.376,7.75 1.867,3.916 3.381,4.641 2.557,1.226 -1.221,-5.066 1.643,0.059 3.394,6.073 1.013,3.477 2.223,6.177 2.689,6 1.177,-0.448 4.148,7.731 5.596,15.409 1.488,7.885 2.549,9.926 3.538,6.809 l 0.706,-2.223 1.252,2.414 c 0.689,1.328 2.044,5.644 3.012,9.591 0.967,3.947 2.077,7.177 2.466,7.177 0.388,0 1.484,1.631 2.435,3.624 0.95,1.993 2.017,3.335 2.37,2.981 0.354,-0.353 1.578,1.504 2.721,4.126 3.054,7.01 4.546,9.39 5.511,8.793 0.473,-0.292 2.104,2.639 3.624,6.513 1.864,4.75 3.196,6.878 4.09,6.535 0.729,-0.28 1.326,0.066 1.326,0.768 0,0.703 0.706,2.151 1.568,3.219 1.493,1.847 1.54,1.796 0.974,-1.059 l -0.593,-3 1.993,2.5 c 1.097,1.375 2.744,4.859 3.661,7.743 0.916,2.884 2.267,6.034 3,7 1.253,1.651 1.336,1.636 1.369,-0.243 0.029,-1.617 0.404,-1.395 1.962,1.16 1.06,1.738 4.024,5.338 6.586,8 2.562,2.662 5.278,5.965 6.035,7.34 0.757,1.375 4.388,5.425 8.069,9 3.681,3.575 6.37,5.938 5.976,5.25 -0.395,-0.687 -0.534,-1.25 -0.308,-1.25 0.225,0 1.86,2.334 3.634,5.187 1.952,3.141 3.501,4.739 3.927,4.051 0.871,-1.409 6.698,3.917 11.309,10.339 2.709,3.772 3.376,4.24 3.901,2.743 0.544,-1.551 0.865,-1.383 2.268,1.187 0.899,1.646 2.805,4.343 4.234,5.993 2.522,2.91 2.579,2.925 1.905,0.5 -0.881,-3.171 -0.126,-2.423 6.559,6.5 4.816,6.428 5.193,6.725 4.609,3.628 -0.542,-2.87 -0.421,-3.193 0.813,-2.169 0.797,0.662 2.818,3.629 4.491,6.592 1.673,2.964 4.315,6.048 5.872,6.853 1.558,0.805 3.416,2.169 4.131,3.03 1.823,2.196 3.389,1.951 2.765,-0.434 -0.287,-1.1 -0.364,-2 -0.169,-2 0.194,0 2.715,3.383 5.602,7.518 4.926,7.055 7.538,8.91 7.218,5.124 -0.281,-3.323 2.076,-1.717 6.028,4.108 1.586,2.337 3.298,4.25 3.806,4.25 0.508,0 0.645,-0.45 0.305,-1 -0.34,-0.55 -0.179,-1 0.358,-1 0.536,0 1.125,0.356 1.309,0.791 0.183,0.436 2.016,2.061 4.073,3.611 2.571,1.939 4.449,2.642 6.008,2.251 4.293,-1.078 4.697,0.143 5.095,15.395 0.425,16.288 2.548,28.121 8.13,45.316 1.94,5.975 3.527,12.871 3.527,15.324 0,6.156 4.12,17.923 10.439,29.812 2.923,5.5 6.147,12.648 7.163,15.885 1.017,3.237 3.074,7.198 4.572,8.802 1.501,1.606 2.474,3.566 2.168,4.364 -0.306,0.797 -0.058,1.449 0.551,1.449 0.609,0 1.107,0.984 1.107,2.186 0,8.059 6.528,24.58 14.558,36.841 4.667,7.127 19.421,22.973 21.39,22.973 2.435,0 1.79,-2.39 -1.905,-7.064 -2.224,-2.814 -4.043,-5.525 -4.043,-6.026 0,-0.5 -0.788,-1.712 -1.75,-2.693 -12.464,-12.699 -15.384,-26.812 -8.682,-41.967 1.338,-3.024 2.432,-6.793 2.432,-8.374 0,-1.582 0.357,-2.876 0.794,-2.876 0.436,0 3.609,4.091 7.05,9.09 3.442,5 5.672,8.748 4.957,8.329 -1.249,-0.732 1.522,2.962 3.8,5.065 2.108,1.946 6.172,8.031 6.846,10.252 0.373,1.23 1.888,3.499 3.366,5.042 1.478,1.543 3.505,4.339 4.505,6.213 1.1,2.062 2.091,2.966 2.51,2.288 1.052,-1.703 6.267,3.288 10.68,10.221 6.299,9.897 21.489,23.289 30.492,26.882 2.475,0.988 5.063,2.261 5.75,2.83 0.871,0.72 1.25,0.693 1.25,-0.09 0,-0.617 -0.408,-1.122 -0.906,-1.122 -0.499,0 -2.598,-2.362 -4.665,-5.25 -2.067,-2.887 -5.867,-7.725 -8.444,-10.75 -4.99,-5.857 -7.094,-9.72 -4.504,-8.27 0.798,0.446 5.68,4.852 10.85,9.791 9.751,9.314 12.741,11.704 26.169,20.92 26.344,18.08 47.138,28.504 66.91,33.543 13.509,3.443 20.59,2.474 20.59,-2.818 0,-2.265 0.649,-2.999 3.593,-4.063 3.465,-1.253 3.58,-1.454 3.247,-5.649 -0.38,-4.777 0.42,-5.413 6.839,-5.44 3.343,-0.015 6.321,-2.175 6.321,-4.585 0,-0.786 -0.91,-2.339 -2.023,-3.452 -1.888,-1.888 -1.904,-2.06 -0.25,-2.593 6.474,-2.086 7.273,-2.669 7.273,-5.305 0,-1.474 -0.491,-3.17 -1.092,-3.771 -0.789,-0.789 -0.11,-1.416 2.452,-2.262 6.268,-2.068 5.55,-7.184 -1.414,-10.068 l -2.909,-1.205 4.232,-2.137 c 4.475,-2.259 5.931,-5.485 3.693,-8.182 -0.963,-1.16 -0.578,-2.01 1.999,-4.418 2.488,-2.324 3.038,-3.483 2.497,-5.258 -0.909,-2.981 -3.233,-5.572 -5.701,-6.355 -1.902,-0.604 -1.891,-0.672 0.284,-1.776 7.201,-3.651 3.832,-11.013 -6.47,-14.136 -1.59,-0.483 -1.195,-0.948 2.259,-2.657 7.64,-3.78 6.599,-10.36 -2.351,-14.854 -6.193,-3.11 -6.269,-3.171 -4.662,-3.743 0.725,-0.257 2.48,-1.469 3.902,-2.691 3.629,-3.122 2.577,-7.03 -2.495,-9.263 -2.048,-0.902 -5.554,-2.464 -7.79,-3.472 -2.236,-1.007 -5.149,-1.831 -6.472,-1.831 h -2.407 l 2.222,-1.557 c 3.104,-2.174 2.814,-5.543 -0.678,-7.883 -2.733,-1.83 -2.811,-2.071 -1.381,-4.252 0.833,-1.271 1.279,-3.211 0.992,-4.31 -0.288,-1.099 -0.115,-1.998 0.384,-1.998 1.767,0 0.891,-4.992 -1.094,-6.232 -1.1,-0.687 -2,-2.311 -2,-3.609 0,-1.35 -1.455,-3.814 -3.4,-5.759 -3.121,-3.121 -3.398,-3.842 -1.35,-3.518 1.017,0.16 0.943,-0.653 -0.266,-2.912 -0.559,-1.045 -2.809,-2.437 -5,-3.093 -2.599,-0.779 -3.984,-1.78 -3.984,-2.88 0,-2.375 -2.894,-4.649 -7,-5.5 -6.032,-1.252 -6.932,-2.242 -3.229,-3.551 3.372,-1.192 5.782,-4.242 4.716,-5.967 -0.923,-1.494 0.851,-1.18 5.654,0.999 4.58,2.078 14.859,2.785 14.859,1.022 0,-0.55 -0.525,-1 -1.167,-1 -0.641,0 -0.901,-0.265 -0.577,-0.589 0.324,-0.324 5.461,0.317 11.416,1.426 17.257,3.211 19.658,3.505 18.924,2.319 -1.034,-1.674 5.957,-2.981 16.148,-3.018 10.226,-0.037 14.941,1.487 25.509,8.247 3.028,1.937 5.735,3.294 6.014,3.015 0.926,-0.926 15.167,6.62 19.233,10.192 2.2,1.932 3.057,3.061 1.905,2.508 -1.153,-0.553 -3.403,-1.231 -5,-1.507 -2.732,-0.473 -2.789,-0.416 -0.964,0.952 2.537,1.901 0.35,1.97 -5.065,0.158 -2.132,-0.713 -5.001,-1.231 -6.376,-1.151 -1.375,0.081 -4.075,0.228 -6,0.329 -3.303,0.172 -3.391,0.265 -1.559,1.651 2.301,1.74 1.705,1.854 -2.11,0.404 -3.082,-1.172 -11.331,0.504 -11.331,2.302 0,0.539 -1.072,0.71 -2.381,0.381 -2.961,-0.743 -8.619,1.133 -8.619,2.858 0,0.704 -1.463,1.857 -3.25,2.562 -5.916,2.332 -9.347,5.701 -12.661,12.432 -3.131,6.359 -3.274,7.165 -3.353,18.836 -0.071,10.573 0.281,13.385 2.65,21.162 1.503,4.932 3.194,9.525 3.759,10.206 0.565,0.68 0.699,1.768 0.298,2.416 -0.4,0.649 -0.868,9.435 -1.039,19.524 -0.273,16.123 -0.073,19.033 1.647,24.034 4.195,12.191 10.469,18.987 22.636,24.515 10.103,4.59 24.313,5.27 24.313,1.162 0,-0.899 -3.561,-4.944 -7.914,-8.987 -4.685,-4.353 -8.812,-9.207 -10.115,-11.898 -1.21,-2.5 -2.036,-4.634 -1.835,-4.743 3.566,-1.936 4.406,-2.758 4.884,-4.783 0.384,-1.628 0.811,-1.998 1.332,-1.155 0.421,0.682 1.418,1.24 2.214,1.24 0.797,0 6.558,2.456 12.802,5.458 10.324,4.963 11.675,5.369 14.9,4.479 2.935,-0.811 4.144,-0.627 7.017,1.068 4.61,2.721 15.48,4.918 21.428,4.333 12.605,-1.241 24.605,-6.123 24.079,-9.796 -0.254,-1.774 -1.203,-2.108 -7.224,-2.542 l -6.932,-0.5 7.432,-1.825 c 11.638,-2.858 27.218,-10.961 33.876,-17.619 5.763,-5.763 8.78,-12.034 8.206,-17.056 -0.45,-3.934 -1.63,-4.309 -4.901,-1.556 -1.671,1.406 -3.479,2.556 -4.019,2.556 -0.54,0 -3.479,1.105 -6.531,2.454 -7.511,3.322 -19.939,5.716 -27.762,5.349 -6.418,-0.302 -6.437,-0.312 -6.437,-3.303 0,-2.558 -0.348,-2.962 -2.358,-2.743 -4.36,0.476 -44.02,-15.934 -50.142,-20.747 l -2.5,-1.966 2.264,-0.022 c 1.245,-0.012 3.072,-0.527 4.061,-1.145 1.386,-0.866 2.518,-0.751 4.937,0.5 1.726,0.893 5.186,1.623 7.688,1.623 4.232,0 6.686,1.856 2.8,2.118 -0.962,0.064 0.5,0.518 3.25,1.008 2.75,0.49 6.523,0.63 8.384,0.312 2.73,-0.467 3.273,-0.291 2.812,0.912 -0.462,1.205 0.86,1.625 6.891,2.19 4.105,0.385 8.785,0.436 10.4,0.113 1.614,-0.323 3.204,-0.152 3.533,0.38 0.329,0.532 1.642,0.967 2.917,0.967 1.275,0 3.87,0.648 5.766,1.44 3.443,1.439 8.077,1.457 17.06,0.066 4.148,-0.642 4.683,-0.528 4.143,0.879 -0.622,1.621 4.058,1.948 29.93,2.089 l 4.836,0.026 -3.298,2.75 c -3.495,2.914 -2.83,3.5 1.811,1.594 1.548,-0.636 3.613,-1.056 4.589,-0.933 0.975,0.122 3.424,-0.797 5.441,-2.044 2.017,-1.246 4.548,-2.331 5.625,-2.41 1.855,-0.137 9.456,-7.485 14.456,-13.976 1.263,-1.64 2.024,-2.418 1.691,-1.731 -1.328,2.743 1.205,1.039 2.972,-2 1.04,-1.788 2.236,-3.486 2.659,-3.774 0.42303,-0.288 1.35303,-2.763 2.06603,-5.5 0.714,-2.737 1.87,-5.576 2.569,-6.309 0.847,-0.889 1.079,-2.888 0.696,-6 -0.316,-2.567 -0.757,-6.242 -0.978,-8.167 -0.753,-6.532 -1.62,-8.458 -6.24403,-13.872 -2.54,-2.973 -4.675,-6.167 -4.743,-7.098 -0.069,-0.931 -2.681,-4.855 -5.804,-8.722 -3.124,-3.866 -5.68,-7.583 -5.68,-8.261 0,-0.677 -0.932,-2.417 -2.072,-3.865 -2.798,-3.558 -1.281,-3.755 5.573,-0.724 6.633,2.933 7.936,3.124 7.137,1.042 -0.704,-1.836 -0.841,-1.836 4.392,0.011 5.33903,1.883 6.02603,1.317 2.335,-1.928 -1.991,-1.751 -2.389,-2.529 -1.303,-2.551 1.896,-0.039 4.36703,3.23 9.42303,12.468 4.09,7.474 7.365,11.71 8.507,11.005 0.386,-0.239 1.981,0.901 3.544,2.533 1.737,1.812 3.099,2.552 3.502,1.901 0.376,-0.609 4.019,2.635 8.487,7.557 4.306,4.743 8.745,9.113 9.865,9.712 2.005,1.074 2.008,1.049 0.243,-1.646 -3.108,-4.743 -1.187,-3.733 3.429,1.802 5.745,6.889 8.77,9.204 10.183,7.791 0.76,-0.76 0.663,-1.589 -0.337,-2.863 -1.156,-1.471 6.449,4.767 8.092,6.639 0.275,0.313 1.582,1.469 2.905,2.569 l 2.405,2 -1.791,-2.781 c -0.984,-1.53 -1.585,-2.986 -1.335,-3.237 0.251,-0.25 4.187,2.014 8.747,5.032 7.892,5.222 10.901,6.642 9.594,4.526 -1.025,-1.658 24.118,9.882 30.621,14.054 5.256,3.373 8.657,4.314 10.389,2.877 0.803,-0.667 1.948,-0.398 3.574,0.839 2.785,2.119 19.554,12.19 20.298,12.19 0.277,0 2.164,1.126 4.193,2.503 2.611,1.772 4.046,2.206 4.914,1.485 1.283,-1.064 7.969,3.514 17.738,12.144 5.241,4.631 7.035,4.778 3.512,0.288 l -2.264,-2.885 4,2.351 c 2.2,1.293 6.313,4.812 9.14,7.819 5.695,6.059 10.641,9.357 9.673,6.451 -1.481,-4.449 4.998,6.563 7.414,12.599 1.528,3.819 3.28,6.756 3.904,6.544 0.622,-0.212 1.413,0.741 1.759,2.118 0.642,2.56 5.844,8.17 10.976,11.836 l 2.865,2.048 -1.15,-2.15 c -3.579,-6.688 8.471,3.612 14.832,12.678 1.284,1.83 3.404,4.397 4.711,5.704 1.307,1.307 2.383,2.959 2.391,3.672 0.012,0.995 0.218,0.975 0.892,-0.088 0.638,-1.009 1.079,-0.467 1.626,2 0.604,2.724 0.88,3.015 1.42,1.496 0.539,-1.519 1.587,-0.415 5.378,5.668 6.276,10.069 9.147,16.641 7.841,17.947 -0.559,0.559 -0.793,1.597 -0.52,2.308 0.63,1.641 -6.365,6.464 -9.374,6.464 -1.242,0 -5.444,-2.043 -9.339,-4.539 -3.895,-2.497 -8.512,-4.822 -10.261,-5.167 -1.748,-0.345 -4.303,-1.454 -5.678,-2.463 -1.427,-1.048 -5.933,-2.33 -10.5,-2.989 -26.416,-3.811 -53.843,15.482 -55.336,38.925 -0.296,4.651 -0.04,6.692 0.914,7.281 1.933,1.195 2.922,0.208 2.922,-2.911 0,-3.371 4.548,-10.738 8.879,-14.382 6.115,-5.145 18.659,-7.159 28.755,-4.617 3.215,0.81 4.776,1.81 5.404,3.463 1.712,4.502 6.267,10.424 9.604,12.486 2.636,1.63 4.247,1.939 7.366,1.412 7.794,-1.317 11.524,0.116 18.359,7.052 6.823,6.926 9.666,8.449 15.764,8.449 4.69,0 7.208,-1.142 11.528,-5.228 l 3.159,-2.988 0.707,6.608 c 1.416,13.224 -1.979,27.694 -8.968,38.22 -4.583,6.903 -8.123,8.768 -14.911,7.856 -2.83,-0.381 -5.699,-1.139 -6.375,-1.685 -0.823,-0.665 -2.311,-0.593 -4.5,0.218 -1.799,0.667 -6.663,1.539 -10.809,1.938 -9.504,0.917 -18.563,5.198 -26.834,12.684 -8.698,7.871 -11.704,15.102 -9.111,21.921 0.818,2.151 1.291,2.445 2.425,1.504 0.775,-0.643 2.231,-1.03 3.234,-0.859 1.342,0.229 1.766,-0.253 1.606,-1.825 -0.177,-1.736 0.566,-2.336 3.968,-3.199 4.971,-1.262 5.448,-1 3.427,1.885 -2.855,4.076 0.368,6.768 3.698,3.089 0.926,-1.024 3.508,-2.684 5.736,-3.689 3.439,-1.551 4.531,-1.642 7.22,-0.6 4.729,1.831 50.212,2.785 59.169,1.24 9.519,-1.641 16.546,-5.04 22.281,-10.778 11.907,-11.914 23.834,-35.233 28.289,-55.312 2.037,-9.178 2.528,-23.296 0.955,-27.435 -0.751,-1.973 -0.662,-2.565 0.383,-2.565 1.935,0 2.671,-3.778 1.052,-5.397 -0.749,-0.749 -2.948,-1.66 -4.886,-2.023 -7.216,-1.354 -10.259,-3.257 -10.851,-6.786 -0.304,-1.812 -0.861,-4.072 -1.237,-5.022 -0.543,-1.374 0.542,-1.097 5.286,1.35 3.384,1.745 7.512,3.078 9.532,3.078 7.383,0 7.673,-2.932 0.617,-6.237 -6.914,-3.238 -10.623,-7.672 -11.434,-13.671 -1.273,-9.401 -2.462,-11.503 -11.621,-20.537 -4.876,-4.81 -8.866,-9.198 -8.866,-9.75 0,-0.553 -0.563,-0.893 -1.25,-0.755 -0.687,0.137 -1.157,-0.254 -1.043,-0.87 0.114,-0.617 -1.438,-3.092 -3.447,-5.5 -2.471,-2.962 -2.781,-3.595 -0.957,-1.956 3.762,3.382 3.421,0.848 -0.644,-4.79 -4.748,-6.586 -5.374,-7.992 -2.32,-5.21 3.961,3.609 3.254,1.498 -2.487,-7.424 -2.83,-4.4 -6.223,-10.475 -7.539,-13.5 -1.316,-3.025 -3.554,-7.685 -4.973,-10.355 l -2.58,-4.856 2.37,0.73 2.37,0.729 -2.5,-2.735 c -3.699,-4.048 -12.418,-9.656 -21.764,-14 -8.298,-3.857 -13.752,-7.78 -7.635,-5.492 2.272,0.849 1.046,-0.821 -5.665,-7.719 -4.71,-4.841 -10.335,-11.05 -12.5,-13.798 -2.165,-2.747 -6.062,-7.352 -8.661,-10.233 -2.599,-2.88 -4.51,-5.807 -4.248,-6.504 0.263,-0.697 -2.447,-4.642 -6.021,-8.767 -3.574,-4.125 -6.5,-8.103 -6.502,-8.841 0,-0.737 -2.092,-3.784 -4.645,-6.772 -2.72,-3.184 -3.879,-5.14 -2.801,-4.726 1.667,0.639 1.642,0.431 -0.273,-2.228 -1.161,-1.613 -3.77,-4.508 -5.798,-6.433 -4.622,-4.388 -12.487,-14.466 -12.487,-16.001 0,-2.597 -37.678,-40.054 -44,-43.742 -7.521,-4.387 -11.738,-8.105 -12.254,-10.805 -0.34,-1.781 -0.109,-2.422 0.755,-2.09 0.854,0.328 0.649,-1.094 -0.651,-4.516 -1.044,-2.746 -1.437,-4.709 -0.874,-4.361 1.366,0.844 1.305,-2.091 -0.097,-4.712 -0.617,-1.152 -1.295,-4.937 -1.506,-8.412 -0.212,-3.474 -1.306,-8.654 -2.432,-11.511 l -2.048,-5.195 2.804,-2.439 c 1.541,-1.342 4.252,-3.558 6.024,-4.924 2.052,-1.583 3.141,-3.239 3,-4.562 -0.302,-2.839 4.405,-5.891 13.456,-8.725 4.028,-1.261 7.816,-2.894 8.42,-3.63 0.603,-0.735 3.528,-1.991 6.5,-2.79 2.971,-0.8 4.728,-1.517 3.903,-1.595 -2.144,-0.203 5.003,-2.82 8,-2.929 3.381,-0.124 5.912,-1.794 4.301,-2.838 -1.193,-0.774 11.268,-4.95 13.107,-4.393 0.5,0.152 1.269,-0.308 1.71,-1.02 0.44,-0.713 4.081,-2.043 8.091,-2.956 4.01,-0.913 6.166,-1.751 4.791,-1.862 -2.106,-0.17 -1.87,-0.409 1.5,-1.52 2.2,-0.725 5.35,-1.36 7,-1.41 4.347,-0.134 6.208,-1.504 4.629,-3.407 -1.071,-1.29 -0.441,-1.596 4.564,-2.212 3.194,-0.394 6.707,-1.076 7.807,-1.516 1.707,-0.683 1.56,-0.824 -1,-0.963 -2.958,-0.161 -2.965,-0.175 -0.5,-0.964 1.375,-0.44 4.862,-0.845 7.75,-0.9 5.531,-0.105 7.178,-1.675 2.5,-2.384 -1.513,-0.229 0.513,-0.484 4.5,-0.566 6.619,-0.137 9.77,-1.489 5.5,-2.361 -0.963,-0.196 2.748,-1.465 8.246,-2.819 5.498,-1.355 10.786,-3.252 11.75,-4.216 0.965,-0.965 2.317,-1.747 3.004,-1.74 1.842,0.022 14.85,-4.036 17.75,-5.537 1.375,-0.711 4.192,-1.611 6.261,-1.999 4.628,-0.867 5.617,-2.194 2.553,-3.423 -1.273,-0.511 -2.025,-0.957 -1.671,-0.992 4.624,-0.455 16.595,-3.526 17.357,-4.451 0.55,-0.669 4.15,-2.045 8,-3.06 3.85,-1.014 8.575,-2.616 10.5,-3.56 1.925,-0.944 7.325,-2.968 12,-4.499 8.35,-2.735 13.902,-5.493 11.056,-5.493 -2.774,0 -0.181,-1.067 9.972,-4.105 5.695,-1.703 13.306,-3.42 16.913,-3.815 6.477,-0.709 6.515,-0.731 3.059,-1.748 l -3.5,-1.029 4,-1.146 c 2.2,-0.63 4.9,-1.155 6,-1.167 1.623,-0.017 1.723,-0.196 0.529,-0.951 -1.84,-1.164 -1.743,-1.247 5.135,-4.365 6.498,-2.947 14.338,-5.264 20.836,-6.158 6.167,-0.85 12.206,-3.538 11.584,-5.157 -0.512,-1.334 7.008,-3.987 18.416,-6.497 5.934,-1.305 8.298,-2.571 7.43,-3.975 -0.301,-0.488 0.439,-0.887 1.645,-0.887 1.206,0 4.021,-0.548 6.256,-1.217 3.557,-1.066 3.772,-1.287 1.726,-1.77 -1.8,-0.424 0.398,-1.627 9.553,-5.227 6.539,-2.572 14.59,-5.426 17.89,-6.344 3.3,-0.917 7.35,-2.45 9,-3.407 1.65,-0.957 7.5,-2.774 13,-4.039 10.495,-2.412 13.969,-3.975 8.95,-4.026 -4.654,-0.048 -1.336,-1.393 12.05,-4.883 6.6,-1.72 13.092,-3.595 14.426,-4.167 1.335,-0.571 6.723,-1.922 11.974,-3.002 11.373,-2.34 13.843,-3.918 6.133,-3.918 -7.354,0 -5.873,-0.854 4.355,-2.509 9.105,-1.474 14.892,-3.672 16.897,-6.416 1.093,-1.496 11.541,-4.46 20.465,-5.804 3.413,-0.514 4.504,-2.219 1.5,-2.344 -3.298,-0.138 9.246,-4.128 15.75,-5.01 17.056,-2.313 17.713,-2.471 15,-3.613 -2.312,-0.973 -1.946,-1.218 4.878,-3.259 11.001,-3.29 19.405,-4.854 31.475,-5.858 5.97,-0.497 11.146,-1.376 11.503,-1.953 0.357,-0.578 2.335,-1.367 4.396,-1.754 2.062,-0.386 3.748,-1.045 3.748,-1.463 0,-0.418 4.891,-1.077 10.869,-1.464 6.41,-0.416 12.051,-1.321 13.75,-2.207 2.88,-1.503 22.077,-3.577 23.786,-2.57 0.497,0.293 0.615,0.065 0.261,-0.508 -0.87,-1.407 2.655,-2.238 9.564,-2.254 3.151,-0.008 7.426,-0.653 9.5,-1.434 5.743,-2.164 25.541,-4.814 37.012,-4.954 5.633,-0.069 10.245,-0.26 10.25,-0.424 0,-0.164 -1.444,-0.909 -3.218,-1.655 l -3.226,-1.357 4.476,-0.664 c 2.462,-0.365 6.501,-0.194 8.976,0.381 2.475,0.574 5.625,1.036 7,1.027 2.326,-0.017 2.256,-0.152 -1,-1.934 -4.366,-2.39 -1.741,-2.659 5.25,-0.537 4.574,1.388 6.485,0.607 3.122,-1.275 -2.903,-1.624 0.391,-2.47 11.026,-2.832 5.556,-0.189 11.227,-0.625 12.602,-0.969 4.137,-1.035 15.002,-2.436 23.5,-3.03 4.918,-0.343 8.639,-1.126 9.659,-2.03 1.127,-1 5.532,-1.744 13.742,-2.32 8.807,-0.618 12.511,-1.276 13.662,-2.427 1.254,-1.254 3.92,-1.58 12.925,-1.58 6.596,0 11.485,-0.414 11.679,-0.99 0.533,-1.584 10.052,-1.549 12.962,0.048 1.447,0.793 4.978,3.357 7.847,5.697 2.869,2.34 6.411,4.526 7.87,4.857 1.46,0.331 4.554,1.488 6.877,2.571 2.322,1.083 5.087,1.695 6.145,1.359 1.057,-0.335 3.607,0.193 5.667,1.174 3.486,1.661 3.818,1.669 4.8,0.113 0.976,-1.545 1.35,-1.52 4.985,0.334 2.161,1.103 4.805,1.776 5.875,1.496 1.07,-0.28 3.493,0.404 5.384,1.52 3.58,2.112 6.421,1.886 6.421,-0.512 0,-1.057 1.117,-0.83 4.616,0.942 3.588,1.817 5.053,2.103 6.578,1.287 1.167,-0.625 1.727,-1.658 1.384,-2.554 -0.425,-1.106 0.361,-0.925 2.965,0.685 2.229,1.377 4.502,2.006 6.125,1.696 1.7,-0.325 3.782,0.321 6.096,1.892 4.065,2.758 5.091,2.927 5.844,0.964 0.453,-1.18 1.086,-1.102 3.729,0.457 3.726,2.199 6.242,1.287 5.394,-1.956 -0.507,-1.938 -0.195,-1.859 3.554,0.898 4.406,3.24 7.459,3.853 8.299,1.665 0.431,-1.124 1.286,-1.082 4.967,0.241 3.651,1.313 4.808,1.373 6.47,0.335 1.485,-0.928 2.557,-0.98 4.021,-0.197 1.097,0.588 3.899,0.991 6.227,0.898 2.327,-0.094 5.481,0.329 7.008,0.94 2.792,1.117 7.688,1.362 21.973,1.099 1.238,-0.023 4.982,0.25 8.321,0.607 5.062,0.541 6.369,0.351 7.857,-1.137 0.982,-0.982 2.75,-1.912 3.929,-2.066 1.179,-0.155 4.731,-0.58 7.893,-0.946 3.892,-0.45 5.75,-1.109 5.75,-2.041 0,-0.94 1.276,-1.376 4.031,-1.376 2.661,0 4.227,-0.51 4.607,-1.5 0.345,-0.897 1.851,-1.5 3.747,-1.5 1.744,0 3.914,-0.787 4.822,-1.75 2.891,-3.063 4.664,-4.25 6.344,-4.25 0.9,0 1.872,-0.9 2.159,-2 0.391,-1.495 1.364,-2 3.857,-2 1.833,0 3.693,-0.615 4.133,-1.367 0.505,-0.863 4.853,-1.898 11.8,-2.809 7.492,-0.983 10.918,-1.829 10.743,-2.654 -0.164,-0.773 0.56,-1.033 2,-0.718 1.241,0.271 6.082,0.751 10.757,1.067 12.275,0.828 14.025,1.097 18.796,2.889 3.162,1.188 4.808,1.339 6.239,0.573 1.463,-0.783 2.563,-0.636 4.438,0.593 1.371,0.899 4.863,1.719 7.76,1.822 2.897,0.104 7.023,0.963 9.169,1.909 6.041,2.663 10.977,3.174 12.824,1.327 1.35,-1.351 2.356,-1.404 7.212,-0.386 4.422,0.928 6.071,0.917 7.618,-0.049 1.604,-1.001 2.544,-0.938 5.013,0.339 4.073,2.106 12.438,3.071 13.382,1.543 0.397,-0.642 -0.048,-2.342 -0.989,-3.778 -1.238,-1.889 -1.331,-2.447 -0.336,-2.019 14.381,6.191 24.725,9.913 28.934,10.411 5.149,0.61 5.225,0.581 4.762,-1.844 l -0.471,-2.465 5.042,1.308 c 6.4,1.66 8.128,1.644 9.863,-0.09 1.197,-1.198 2.171,-1.198 6.789,0 10.227,2.652 17.955,1.455 17.955,-2.782 0,-1.975 0.396,-2.077 6.25,-1.596 8.648,0.71 11.261,-0.127 11.206,-3.59 -0.036,-2.275 0.308,-2.66 2,-2.239 4.339,1.078 15.498,1.833 17.96,1.215 2.563,-0.643 3.628,-3.847 1.678,-5.052 -0.521,-0.322 -0.414,-1.618 0.25,-3.051 0.997,-2.149 1.818,-2.492 5.979,-2.499 6.412,-0.011 6.037,-1.973 -1.527,-7.988 -3.126,-2.486 -5.372,-4.593 -4.99,-4.683 0.382,-0.089 1.932,-0.435 3.444,-0.769 2.069,-0.456 2.75,-1.201 2.75,-3.01 0,-1.863 -1.521,-3.406 -6.75,-6.85 -3.713,-2.445 -7.693,-4.933 -8.846,-5.53 -1.447,-0.748 -2.126,-2.105998 -2.191,-4.380998 -0.131,-4.635 -3.364,-7.025 -14.398,-10.645 -17.317,-5.683 -34.57,-9.154 -46.065,-9.267 -3.713,-0.037 -6.75,-0.314 -6.75,-0.616 0,-0.301 0.787,-1.146 1.75,-1.877 1.478,-1.122 -0.838,-1.333 -14.893,-1.36 -13.851,-0.027 -16.74,-0.284 -17.219,-1.532 -0.475,-1.239 -3.149,-1.503 -15.357,-1.515 -10.252,-0.01 -16.047,-0.455 -18.914,-1.454 -3.184,-1.11 -7.604,-1.322 -19.258,-0.926 -12.579,0.428 -15.219,0.272 -15.678,-0.925 -0.407,-1.061 -2.709,-1.505 -8.742,-1.688 -4.504,-0.136 -9.989,-0.394 -12.189,-0.574 -3.273,-0.267 -20.654,-0.87 -38.372,-1.33 -2.936,-0.077 -3.205,-0.29 -2.081,-1.645 1.152,-1.388 0.705,-1.486 -4.127,-0.9 -2.981,0.362 -8.341,1.306 -11.912,2.099 -3.94,0.875 -8.466,1.195 -11.515,0.814 -2.763,-0.345 -8.616,-0.126 -13.008,0.487 -12.622,1.763 -32.564,2.548 -33.328,1.312 -0.459,-0.744 -3.361,-0.661 -9.657,0.274 -4.95,0.736 -11.173,1.599 -13.828,1.917 -2.656,0.319 -6.706,1.012 -9,1.542 -2.295,0.53 -5.297,0.937 -6.672,0.904 -2.032,-0.047 -1.564,-0.517 2.5,-2.505 l 5,-2.446 -5,0.494 c -4.259,0.42 -21.894,2.955 -36,5.175 -3.811,0.6 -3.906,0.553 -2,-0.998 1.903,-1.549 1.781,-1.605 -2.5,-1.144 -2.475,0.266 -6.924,0.944 -9.886,1.508 -6.522,1.24 -6.363,1.236 -5.679,0.129 0.305,-0.493 -0.021,-1.116 -0.723,-1.385 -1.224,-0.47 -9.551,0.56 -14.637,1.81 -2.065,0.507 -2.24,0.374 -1.185,-0.898 1.064,-1.281 0.769,-1.449 -2.075,-1.177 -6.405,0.611 -18.829,2.689 -22.055,3.69 -1.793,0.556 -7.142,1.317 -11.886,1.691 -6.737,0.532 -8.52,0.405 -8.143,-0.578 0.94,-2.448 -9.438,-1.607 -33.231,2.694 -2.75,0.498 -8.225,0.926 -12.166,0.953 -3.942,0.027 -9.117,0.481 -11.5,1.01 -5.794,1.284 -13.822,2.226 -22.334,2.62 -3.85,0.178 -9.821,0.552 -13.27,0.831 -3.773,0.305 -6.039,0.134 -5.691,-0.43 0.737,-1.192 -1.792,-1.186 -8.622,0.021 -2.979,0.526 -12.167,1.688 -20.417,2.583 -8.25,0.894 -16.35,1.998 -18,2.453 -7.777,2.145 -8.932,2.232 -7.552,0.57 1.098,-1.323 1.008,-1.563 -0.582,-1.563 -1.034,0 -3.451,0.461 -5.373,1.025 -1.921,0.564 -7.89,1.455 -13.265,1.979 -5.375,0.524 -12.282,1.683 -15.349,2.574 -7.427,2.159 -16.742,3.385 -17.439,2.296 -0.316,-0.495 -3.052,-0.416 -6.283,0.182 -3.148,0.582 -6.506,0.809 -7.463,0.506 -1.619,-0.514 -5.236,0.232 -9.485,1.957 -1.248,0.506 -1.703,0.31 -1.5,-0.646 0.364,-1.719 -0.854,-1.476 -10.209,2.033 -9.649,3.619998 -17.234,4.866998 -16.402,2.697998 0.615,-1.602998 -1.389,-1.275998 -7.913,1.289 -3.414,1.343 -4.717,1.413 -2.714,0.146 4.577,-2.894998 -2.201,-1.555 -22.559,4.458 -6.326,1.869 -6.488,1.866 -5.729,-0.112 0.472,-1.232 0.168,-1.481 -1.282,-1.048 -1.045,0.312 -3.251,0.878 -4.901,1.257 -1.65,0.38 -4.731,1.557 -6.847,2.618 -4.029,2.019 -6.439,1.814 -2.631,-0.224 1.34,-0.717 1.834,-1.532 1.269,-2.097 -0.807,-0.807 -18.121,4.892 -23.936,7.879 -1.02,0.524 -3.193,1.274 -4.828,1.667 -2.873,0.689 -2.915,0.649 -1.248,-1.193 4.714,-5.209 -5.721,-3.593 -24.279,3.759 -9.897,3.922 -23.163,5.688 -21.41,2.852 0.594,-0.961 -3.039,-0.319 -7.489,1.323 -2.123,0.784 -2.247,0.702 -1.075,-0.709 1.176,-1.417 0.997,-1.515 -1.601,-0.885 -1.609,0.391 -7.17,2.519 -12.357,4.73 -5.188,2.211 -10.138,3.984 -11,3.94 -0.863,-0.043 -3.818,0.52 -6.568,1.252 -2.75,0.732 -7.25,1.614 -10,1.959 -4.116,0.518 -16.737,4.44 -26,8.081 -1.596,0.627 -1.495,0.355 0.5,-1.347 3.16,-2.696 1.775,-2.717 -7.263,-0.114 -3.98,1.146 -11.062,3.183 -15.737,4.526 -4.675,1.343 -9.284,2.248 -10.242,2.011 -0.959,-0.237 -3.843,0.201 -6.409,0.974 -6.273,1.887 -7.33,1.739 -4.349,-0.611 l 2.5,-1.97 -5,1.58 c -2.75,0.869 -7.421,2.006 -10.38,2.527 -2.958,0.52 -6.155,1.362 -7.104,1.869 -0.948,0.508 -4.113,1.865 -7.034,3.016 -4.118,1.623 -5.024,1.748 -4.035,0.557 1.123,-1.353 0.755,-1.469 -3.086,-0.976 -2.399,0.308 -5.936,1.01 -7.861,1.559 -3.121,0.889 -11.886,2.177 -23.48,3.449 -2.188,0.24 -7.138,1.392 -11,2.56 -16.09,4.867 -19.277,5.754 -24.465,6.804 -2.995,0.607 -9.613,2.664 -14.707,4.571 -9.91,3.712 -12.585,4.33 -8.01,1.851 1.562,-0.846 2.681,-1.696 2.489,-1.888 -0.51,-0.51 -18.161,4.167 -26.327,6.976 -3.85,1.324 -8.125,2.626 -9.5,2.894 -4.282,0.833 -9,2.791 -9,3.734 0,0.496 -0.734,0.902 -1.631,0.902 -2.246,0 -18.821,5.746 -24.615,8.532 -2.61,1.256 -5.543,2.074 -6.518,1.82 -0.975,-0.255 -4.914,1.135 -8.754,3.09 -7.863,4.003 -32.628,10.619 -33.21,8.873 -0.21,-0.629 -2.269,-0.89 -5.063,-0.642 -4.892,0.435 -7.31,0.999 -18.209,4.248 -3.575,1.066 -7.625,2.241 -9,2.612 -2.431,0.655 -2.445,0.63 -0.5,-0.898 2.74,-2.153 1.223,-2.049 -11.31,0.77 -5.879,1.323 -13.39,2.693 -16.69,3.046 -5.657,0.605 -5.857,0.555 -3.5,-0.869 2.234,-1.35 2.287,-1.514 0.5,-1.538 -1.1,-0.015 -6.95,0.635 -13,1.445 -12.754,1.707 -22.896,1.96 -22.024,0.55 0.735,-1.19 -13.534,-0.616 -21.976,0.884 -3.3,0.586 -8.193,1.068 -10.872,1.071 -4.218,0.005 -4.706,-0.195 -3.628,-1.494 1.086,-1.309 0.304,-1.518 -6.128,-1.64 -4.054,-0.077 -9.113,-0.033 -11.241,0.098 -2.602,0.16 -3.648,-0.122 -3.191,-0.86 0.76,-1.231 -1.536,-1.523 -8.44,-1.074 -6.655,0.434 -9.143,0.333 -12.766,-0.515 -2.409,-0.565 -3.001,-1.084 -2.257,-1.981 0.784,-0.945 -2.243,-1.216 -13.579,-1.216 -10.729,0.001 -14.795,-0.336 -15.373,-1.272 -0.592,-0.957 -3.361,-1.138 -11.15603,-0.73 -5.703,0.299 -9.356,0.32 -8.119,0.047 5.15,-1.136 1.583,-3.357 -5.391,-3.357 -2.462,0 -4.242,-0.38 -3.955,-0.845 0.287,-0.464 -3.399,-1.415 -8.191,-2.112 -4.792,-0.697 -14.113,-2.337 -20.713,-3.644 -6.6,-1.306 -15.507,-2.381 -19.794,-2.387 -6.781,-0.01 -7.756,-0.233 -7.5,-1.713 0.225,-1.301 -0.746,-1.883 -4.133,-2.478 -2.436,-0.427 -4.686,-1.154 -5,-1.616 -0.567,-0.829 -13.442,-4.038 -19.934,-4.968 -2.373,-0.34 -2.961,-0.735 -2,-1.344 0.968,-0.613 0.619,-0.867 -1.211,-0.878 -1.414,-0.008 -4.564,-0.653 -7,-1.432 -2.435,-0.779 -8.253,-1.668 -12.928,-1.976 -4.675,-0.308 -10.709,-1.245 -13.409,-2.083 -2.7,-0.838 -7.65,-1.565 -11,-1.614 -5.973,-0.089 -6.023,-0.112 -2.591,-1.221 3.195,-1.033 2.543,-1.188 -7.5,-1.783 -12.522,-0.742 -11.793,-0.623 -11.068,-1.796 0.792,-1.281 -4.951,-2.072 -12.026,-1.656 -3.351,0.196 -6.726,-0.043 -7.5,-0.533 -1.096,-0.694 -0.965,-0.897 0.594,-0.921 1.652,-0.025 1.739,-0.196 0.5,-0.98 -0.835,-0.529 -4.713,-0.679 -8.75,-0.338 -5.141,0.433 -7.25,0.278 -7.25,-0.535 0,-0.631 0.45,-1.147 1,-1.147 0.55,0 1,-0.431 1,-0.958 0,-0.581 -4.032,-0.761 -10.25,-0.456 -9.282,0.455 -9.967,0.372 -7.25,-0.881 2.712,-1.25 2.808,-1.445 1,-2.029 -1.1,-0.356 -6.363,-0.736 -11.695,-0.846 -5.331,-0.11 -9.456,-0.586 -9.164,-1.058 0.291,-0.471 -3.896,-0.826 -9.306,-0.789 -5.409,0.037 -11.185,-0.098 -12.835,-0.301 -1.65,-0.203 -4.575,-0.484 -6.5,-0.625 -3.174,-0.233 -3.268,-0.321 -1.01,-0.949 1.369,-0.382 2.044,-0.968 1.5,-1.303 -1.036,-0.638 -17.516,0.783 -20.986,1.809 -1.951,0.577 -1.954,0.555 -0.103,-0.858 3.124,-2.383 0.431,-2.72 -5.382,-0.673 -6.558,2.31 -8.197,2.39 -5.519,0.271 1.866,-1.477 1.583,-1.548 -4.25,-1.063 -3.438,0.286 -6.02,0.146 -5.738,-0.311 0.282,-0.456 -7.807,-0.83 -17.975,-0.83 -10.169,0 -19.436,-0.3 -20.593,-0.668 -1.157,-0.367 -4.999,-0.092 -8.538,0.612 -4.058,0.806 -6.784,0.928 -7.383,0.329 -0.523,-0.523 -4.104,-0.714 -7.986,-0.426 -3.87,0.288 -7.037,0.124 -7.037,-0.365 0,-0.899 -6.287,-0.214 -9.663,1.053 -1.618,0.607 -1.673,0.488 -0.465,-0.998 1.197,-1.471 1.133,-1.685 -0.5,-1.672 -1.029,0.008 -4.752,0.693 -8.272,1.523 -3.52,0.83 -9.595,1.734 -13.5,2.01 -3.905,0.275 -9.8,1.188 -13.1,2.029 -3.3,0.84 -8.925,1.79 -12.5,2.11 -3.575,0.321 -12.35,2.025 -19.5,3.787 -10.02,2.469 -14.438,3.098 -19.274,2.743 -5.637,-0.414 -6.094,-0.606 -4.5,-1.892 1.561,-1.26 0.846,-1.355 -5.976,-0.793 -4.935,0.407 -7.75,0.275 -7.75,-0.363 0,-0.551 0.563,-1.204 1.25,-1.451 0.688,-0.246 -1.9,-0.764 -5.75,-1.151 -8.255,-0.828 -17.014,-3.276 -18.61,-5.2 -0.624,-0.752 -1.776,-1.367 -2.56,-1.367 -0.784,0 -2.506,-1.166 -3.827,-2.591 -1.32,-1.425 -4.959,-3.63 -8.085,-4.901 -3.799,-1.544 -5.059,-2.436 -3.801,-2.69 1.384,-0.278 0.463,-1.157 -3.471,-3.314 -2.944,-1.614 -4.857,-3.1 -4.25,-3.303 2.27,-0.756 0.94,-2.257 -4.646,-5.239 -3.163,-1.689 -4.962,-2.835 -4,-2.548 3.322,0.993 1.724,-1.192 -5.791,-7.918 -7.315,-6.547 -8.918,-8.882 -4.459,-6.496 3.459,1.851 3.784,0.073 0.5,-2.739 -8.906,-7.627 -12.782,-11.444 -11,-10.833 1.299,0.445 0.503,-0.845 -2.273,-3.681998 -2.349,-2.402 -3.994,-4.646 -3.654,-4.986 0.34,-0.339 -0.888,-2.029 -2.728,-3.753 -2.392,-2.242 -2.704,-2.822 -1.095,-2.036 4.021,1.965 2.414,-0.269 -6.98,-9.702 -5.077,-5.098 -8.677,-9.269 -8,-9.269 1.953,0 1.431,-2.377 -0.995,-4.528 -1.224,-1.084 -5.386,-4.108 -9.25,-6.719 -3.864,-2.612 -6.462,-4.749 -5.775,-4.75 2.38,-0.005 1.224,-1.518 -3.752,-4.91 -2.749,-1.873 -4.998,-3.529 -4.998,-3.68 0,-0.15 1.46,0.145 3.243,0.657 1.784,0.511 3.472,0.928 3.75,0.925 1.478,-0.014 -8.856,-7.338 -20.993,-14.878 l -2.5,-1.553 2.936,-0.532 c 2.829,-0.513 2.641,-0.724 -5.175,-5.802 -9.153,-5.946 -12.405,-7.431 -20.261,-9.248 -3.025,-0.7 -5.725,-1.57 -6,-1.933 -1.527,-2.0179998 -16.387,-6.0989998 -24.393,-6.6989998 -7.905,-0.593 -8.683,-0.821 -7,-2.052 1.693,-1.23799999 1.417,-1.33599999 -2.607,-0.929 -2.475,0.251 -6.356,0.769 -8.624,1.151 -2.439,0.411 -4.376,0.289 -4.739,-0.298 -0.361,-0.584 -3.3,-0.778 -7.125,-0.471 -4.504,0.362 -6.512,0.172 -6.512,-0.61399999 0,-1.337 -0.475,-1.314 -9,0.43599999 m 307.045,547.1269978 c 0.796,3.529 5.1,8.212 5.777,6.285 0.292,-0.832 -5.45,-9.985 -6.265,-9.985 -0.19,0 0.029,1.665 0.488,3.7"
     stroke="none"
     fill="#e1b21f"
     fill-rule="evenodd"
     id="path1"
     style="fill:#ffffff;fill-opacity:1"
     sodipodi:nodetypes="ccccccccscsscccccccccccccccscccccscsccccccccccccscccccccsscsccccccccccsccccccsccccccccssscscccsccccccccccscccssscccscsccccsscscsccsscsscscccccsscccccsscccsscssccccccccccscccccscccccsssscccscscssssccssscccccccccscscscccccccscccccsccccsccssccsccscccsscscscccsssccsccsccccsccsccsccccscccccccccccccsscsccccccccsssccscsccccccccssccsccssscsccscsscccscssccccscccsssccscscccccsscsccscccscssccccscccccscscccscccccsccscccccccccssccccccssccccscscccccscccccccscsccccccccccccsccccscccccscsscssscccsccscccscccccccscssccsssccsscccccscsscccscscsscccccssssccsscscscsscsccssscsccccssccscsccscscsscssccssccccssscsccscccccssccccscsccssccsccccscccscsscccccssscccccccscsccsccssscscscccccsccsssscccsccccscsccccsccssccsccccccscscccccsscccsccccscsccsccscccssccsccscccssscccscssccsscccscsccscscccscccccccscccscccccccssccccccssccccsccccccccccccccscccsc" />
</svg>
