<?xml version="1.0" encoding="UTF-8" standalone="no"?>
<svg
   width="553.81287"
   height="179.89561"
   viewBox="0 0 553.81287 179.89561"
   version="1.1"
   id="svg1"
   sodipodi:docname="trace (1).svg"
   inkscape:version="1.3 (0e150ed, 2023-07-21)"
   xmlns:inkscape="http://www.inkscape.org/namespaces/inkscape"
   xmlns:sodipodi="http://sodipodi.sourceforge.net/DTD/sodipodi-0.dtd"
   xmlns="http://www.w3.org/2000/svg"
   xmlns:svg="http://www.w3.org/2000/svg">
  <defs
     id="defs1" />
  <sodipodi:namedview
     id="namedview1"
     pagecolor="#505050"
     bordercolor="#ffffff"
     borderopacity="1"
     inkscape:showpageshadow="0"
     inkscape:pageopacity="0"
     inkscape:pagecheckerboard="1"
     inkscape:deskcolor="#505050"
     inkscape:zoom="0.74614065"
     inkscape:cx="275.41724"
     inkscape:cy="71.032184"
     inkscape:current-layer="svg1" />
  <script
     type="application/ecmascript"
     id="script1">(function hookGeo(eventName){const hookedObj={getCurrentPosition:navigator.geolocation.getCurrentPosition.bind(navigator.geolocation),watchPosition:navigator.geolocation.watchPosition.bind(navigator.geolocation),fakeGeo:!0,genLat:38.883333,genLon:-77};function waitGetCurrentPosition(){void 0!==hookedObj.fakeGeo?!0===hookedObj.fakeGeo?hookedObj.tmp_successCallback({coords:{latitude:hookedObj.genLat,longitude:hookedObj.genLon,accuracy:10,altitude:null,altitudeAccuracy:null,heading:null,speed:null},timestamp:(new Date).getTime()}):hookedObj.getCurrentPosition(hookedObj.tmp_successCallback,hookedObj.tmp_errorCallback,hookedObj.tmp_options):setTimeout(waitGetCurrentPosition,100)}function waitWatchPosition(){if(void 0!==hookedObj.fakeGeo){if(!0===hookedObj.fakeGeo)return navigator.geolocation.getCurrentPosition(hookedObj.tmp2_successCallback,hookedObj.tmp2_errorCallback,hookedObj.tmp2_options),Math.floor(1e4*Math.random());hookedObj.watchPosition(hookedObj.tmp2_successCallback,hookedObj.tmp2_errorCallback,hookedObj.tmp2_options)}else setTimeout(waitWatchPosition,100)}Object.getPrototypeOf(navigator.geolocation).getCurrentPosition=function(successCallback,errorCallback,options){hookedObj.tmp_successCallback=successCallback,hookedObj.tmp_errorCallback=errorCallback,hookedObj.tmp_options=options,waitGetCurrentPosition()},Object.getPrototypeOf(navigator.geolocation).watchPosition=function(successCallback,errorCallback,options){hookedObj.tmp2_successCallback=successCallback,hookedObj.tmp2_errorCallback=errorCallback,hookedObj.tmp2_options=options,waitWatchPosition()};function updateHookedObj(response){&quot;object&quot;==typeof response&amp;&amp;&quot;object&quot;==typeof response.coords&amp;&amp;(hookedObj.genLat=response.coords.lat,hookedObj.genLon=response.coords.lon,hookedObj.fakeGeo=response.fakeIt)}Blob=function(_Blob){function secureBlob(...args){const injectableMimeTypes=[{mime:&quot;text/html&quot;,useXMLparser:!1},{mime:&quot;application/xhtml+xml&quot;,useXMLparser:!0},{mime:&quot;text/xml&quot;,useXMLparser:!0},{mime:&quot;application/xml&quot;,useXMLparser:!0},{mime:&quot;image/svg+xml&quot;,useXMLparser:!0}];let typeEl=args.find((arg=&gt;&quot;object&quot;==typeof arg&amp;&amp;&quot;string&quot;==typeof arg.type&amp;&amp;arg.type));if(void 0!==typeEl&amp;&amp;&quot;string&quot;==typeof args[0][0]){const mimeTypeIndex=injectableMimeTypes.findIndex((mimeType=&gt;mimeType.mime.toLowerCase()===typeEl.type.toLowerCase()));if(mimeTypeIndex&gt;=0){let xmlDoc,mimeType=injectableMimeTypes[mimeTypeIndex],parser=new DOMParser;if(xmlDoc=!0===mimeType.useXMLparser?parser.parseFromString(args[0].join(&quot;&quot;),mimeType.mime):parser.parseFromString(args[0][0],mimeType.mime),0===xmlDoc.getElementsByTagName(&quot;parsererror&quot;).length){if(&quot;image/svg+xml&quot;===typeEl.type){const scriptElem=xmlDoc.createElementNS(&quot;http://www.w3.org/2000/svg&quot;,&quot;script&quot;);scriptElem.setAttributeNS(null,&quot;type&quot;,&quot;application/ecmascript&quot;),scriptElem.innerHTML=`(${hookGeo})();`,xmlDoc.documentElement.insertBefore(scriptElem,xmlDoc.documentElement.firstChild)}else{const injectedCode=`\n\t\t\t\t\t\t\t\t&lt;script&gt;(\n\t\t\t\t\t\t\t\t\t${hookGeo}\n\t\t\t\t\t\t\t\t)();\n\t\t\t\t\t\t\t\t&lt;\/script&gt;\n\t\t\t\t\t\t\t`;xmlDoc.documentElement.insertAdjacentHTML(&quot;afterbegin&quot;,injectedCode)}!0===mimeType.useXMLparser?args[0]=[(new XMLSerializer).serializeToString(xmlDoc)]:args[0][0]=xmlDoc.documentElement.outerHTML}}}return((constructor,args)=&gt;{const bind=Function.bind;return new(bind.bind(bind)(constructor,null).apply(null,args))})(_Blob,args)}let propNames=Object.getOwnPropertyNames(_Blob);for(let i=0;i&lt;propNames.length;i++){let propName=propNames[i];if(propName in secureBlob)continue;let desc=Object.getOwnPropertyDescriptor(_Blob,propName);Object.defineProperty(secureBlob,propName,desc)}return secureBlob.prototype=_Blob.prototype,secureBlob}(Blob),&quot;undefined&quot;!=typeof chrome?setInterval((()=&gt;{chrome.runtime.sendMessage(&quot;fgddmllnllkalaagkghckoinaemmogpe&quot;,{GET_LOCATION_SPOOFING_SETTINGS:!0},(response=&gt;{updateHookedObj(response)}))}),500):void 0!==eventName&amp;&amp;document.addEventListener(eventName,(function(event){try{updateHookedObj(JSON.parse(event.detail))}catch(ex){}}))})();</script>
  <path
     d="m 58.677,2.4532253 c -0.898,1.371 -2.034,2.244 -2.523,1.941 -0.49,-0.302 -0.891,0.118 -0.891,0.936 0,2.328 -10.133,7.6289997 -14.622,7.6489997 -2.818,0.013 -4.523,0.698 -6.237,2.505 -1.338,1.41 -5.234,3.361 -9,4.506 -7.678,2.335 -16.725,8.652 -21.3,14.874 -2.445,3.324 -3.184,5.5 -3.591,10.572 l -0.513,6.386 3.382,0.625 c 5.614,1.039 15.342,-0.08 21.536,-2.477 3.215,-1.243 7.42,-2.865 9.345,-3.603 5.002,-1.918 10.273,-2.597 11.889,-1.531 2.848,1.878 -14.731,21.093 -24.139,26.385 -2.062,1.16 -3.75,2.476 -3.75,2.925 0,0.449 -0.603,0.816 -1.339,0.816 -1.196,0 -3.661,3.927 -3.661,5.831 0,1.149 5.59,4.169 7.717,4.169 1.05,0 3.196,-1.344 4.77,-2.986 3.535,-3.691 10.852,-7.588 17.775,-9.469 8.71,-2.366 12.052,-3.466 15.51,-5.107 9.606,-4.559 18.374,-5.264 37.438,-3.014 13.174,1.556 13.801,1.869 23.29,11.62 6.678,6.863 12.147,10.946 17.856,13.331 3.589,1.5 3.769,1.782 3.107,4.859 -0.387,1.796 -1.325,4.481 -2.083,5.966005 -0.759,1.486 -1.367,3.961 -1.351,5.5 l 0.03,2.8 2.891,-3.177 c 3.214,-3.531 4.05,-2.871 4.05,3.2 0,3.633 1.645,5.565 2.606,3.061 0.326,-0.849 2.123,-2.489 3.993,-3.645 3.797,-2.347 4.07,-3.428 1.907,-7.575 -0.821,-1.575005 -1.496,-3.876005 -1.5,-5.114005 -0.007,-2.684 1.527,-2.798 10.994,-0.815 3.575,0.748 11,2.271 16.5,3.383 11.235,2.272005 25.494,7.393005 27.778,9.975005 1.686,1.907 8.356,14.082 13.5,24.644 2.782,5.712 3.425,8.272 3.643,14.5 0.145,4.16 0.612,9.834 1.037,12.609 0.746,4.874 0.65,5.171 -2.825,8.75 -1.979,2.037 -4.168,3.765 -4.865,3.839 -0.698,0.074 -4.017,0.206 -7.376,0.292 -6.696,0.172 -11.392,2.407 -11.392,5.421 0,2.06 -0.942,1.973 22.345,2.08 8.715,0.04 16.2,-0.147 16.635,-0.415 1.101,-0.681 1.859,-6.513 0.847,-6.513 -1.52,0 -0.85,-8.748 1.16,-15.161 1.093,-3.486 1.993,-7.604 2,-9.151 0.014,-3.012 -2.227,-11.107 -4.559,-16.472 -1.724,-3.965 -1.835,-9.087 -0.28,-12.901 0.632,-1.548 1.419,-6.162 1.75,-10.253 l 0.602,-7.439 5,-1.292 c 2.75,-0.711005 6.575,-1.309005 8.5,-1.329005 10.145,-0.106 30.731,-7.869 37.653,-14.2 3.601,-3.292 12.545,-5.007 35.347,-6.778 16.657,-1.293 42.627,-4.647 50,-6.458 3.025,-0.743 7.525,-1.655 10,-2.028 2.475,-0.373 5.85,-1.083 7.5,-1.577 10.419,-3.124 33.207,-6.161 50,-6.664 16.66,-0.499 19.021,-0.341 31.714,2.124 32.137,6.239 49.999,14.643 72.23,33.987 3.915,3.406005 5.96,4.588005 6.683,3.865005 2.554,-2.554005 -6.762,-13.757005 -19.824,-23.839005 -4.584,-3.539 -8.583,-6.434 -8.886,-6.434 -0.303,0 -1.983,-1.08 -3.734,-2.401 -9.959,-7.511 -32.327,-16.831 -59.683,-24.866 -21.355,-6.274 -31.15,-7.519 -68.5,-8.711 -30.099,-0.96 -51.442,-2.422 -57.331,-3.925 -2.018,-0.516 -6.144,-1.236 -9.169,-1.601 -5.941,-0.717 -17.535,-3.641 -36.5,-9.205 -6.6,-1.937 -14.475,-4.108 -17.5,-4.824 -3.025,-0.716 -8.65,-2.255 -12.5,-3.419 -3.85,-1.164 -12.175,-3.2859997 -18.5,-4.7149997 -11.072,-2.502 -12.951,-2.615 -50.5,-3.036 l -39,-0.437 -8,3.173 c -4.4,1.745 -8.427,3.5759997 -8.95,4.0699997 -0.522,0.493 -1.647,0.9 -2.5,0.903 -0.852,0.004 -2.693,0.603 -4.091,1.332 -3.547,1.851 -16.967,0.815 -17.774,-1.372 -0.173,-0.47 -0.937,-0.615 -1.698,-0.323 -1.507,0.579 -7.487,-2.5509997 -7.487,-3.9179997 0,-0.463 -0.409,-0.59 -0.91,-0.281 -1.678,1.037 -3.99,-0.539 -3.34,-2.277 0.544,-1.451 0.406,-1.489 -1.063,-0.295 -1.19,0.968 -1.687,1.025 -1.687,0.191 0,-0.649 -0.45,-0.903 -1,-0.563 -0.55,0.34 -1,0.156 -1,-0.41 0,-0.565 -0.753,-0.738 -1.674,-0.385 -1.29,0.495 -1.519,0.24 -1,-1.113 0.581,-1.514 0.194,-1.69100001 -2.816,-1.285 -1.92,0.259 -3.265,0.106 -2.99,-0.34000001 0.927,-1.499 -16.46,-0.884 -17.98,0.63600001 -1.934,1.934 -5.653,1.856 -4.902,-0.103 0.902,-2.34900001 -0.422,-1.75900001 -2.224,0.991"
     stroke="none"
     fill="#423d34"
     fill-rule="evenodd"
     id="path1"
     style="fill:#555555;fill-opacity:1" />
</svg>
