<?xml version="1.0" encoding="UTF-8" standalone="no"?>
<!-- Created with Inkscape (http://www.inkscape.org/) -->

<svg
   width="82.150009mm"
   height="101.60757mm"
   viewBox="0 0 82.150012 101.60757"
   version="1.1"
   id="svg1"
   xml:space="preserve"
   inkscape:version="1.4 (86a8ad7, 2024-10-11)"
   sodipodi:docname="Leatherback_Sea_Turtle-top.svg"
   xmlns:inkscape="http://www.inkscape.org/namespaces/inkscape"
   xmlns:sodipodi="http://sodipodi.sourceforge.net/DTD/sodipodi-0.dtd"
   xmlns="http://www.w3.org/2000/svg"
   xmlns:svg="http://www.w3.org/2000/svg"><sodipodi:namedview
     id="namedview1"
     pagecolor="#505050"
     bordercolor="#ffffff"
     borderopacity="1"
     inkscape:showpageshadow="0"
     inkscape:pageopacity="0"
     inkscape:pagecheckerboard="1"
     inkscape:deskcolor="#505050"
     inkscape:document-units="mm"
     showguides="true"
     inkscape:zoom="2.8284271"
     inkscape:cx="199.40411"
     inkscape:cy="161.75068"
     inkscape:window-width="3440"
     inkscape:window-height="1377"
     inkscape:window-x="-8"
     inkscape:window-y="-8"
     inkscape:window-maximized="1"
     inkscape:current-layer="layer1" /><defs
     id="defs1"><inkscape:path-effect
       effect="simplify"
       id="path-effect7"
       is_visible="true"
       lpeversion="1.3"
       threshold="19.495802"
       steps="1"
       smooth_angles="360"
       helper_size="10"
       simplify_individual_paths="false"
       simplify_just_coalesce="false" /></defs><g
     inkscape:label="Layer 1"
     inkscape:groupmode="layer"
     id="layer1"
     transform="translate(-62.491323,-134.16679)"><path
       style="fill:#ffffff;fill-opacity:1;stroke-width:0.227926"
       d="m 144.52482,184.25166 c -0.89187,1.90126 -2.88411,2.84775 -4.65253,3.72359 -1.10988,0.54969 -2.90213,0.8017 -3.09063,2.02552 -0.13882,0.90128 0.69679,1.35086 1.55816,1.91064 1.12356,0.73017 1.46752,1.67699 1.67819,3.11888 0.15664,1.07206 1.29834,1.71003 1.32184,2.75453 0.0274,1.21802 -0.43641,2.33893 -0.48226,3.59489 -0.0504,1.37931 0.94695,3.3671 -0.3075,4.16354 -1.17423,0.7455 -2.70617,0.2317 -3.86866,-0.31811 -2.55259,-1.20727 -3.567,-3.99901 -5.15223,-6.13676 -0.87427,-1.17898 -1.90647,-3.4996 -3.22579,-2.90626 -8.76837,3.47856 -19.58184,6.25391 -28.973061,6.98342 -1.98452,0.14147 -4.02802,0.6835 -5.97462,0.21341 -1.0497,-0.2535 -1.8747,-1.09093 -2.9906,-1.31731 -0.87902,-0.17832 -1.6017,-2.2331 -2.26394,-0.51342 -0.66492,1.72663 -0.58092,3.62989 -0.76831,5.44744 -0.17537,1.70088 0.48055,3.28213 0.9837,4.86653 0.65656,2.06749 1.01684,4.20592 1.47631,6.32447 0.60243,2.77772 1.00569,5.59733 0.98919,8.45457 -0.011,1.90565 0.22038,3.80106 0.15443,5.71077 -0.0375,1.08549 -0.0828,2.59373 -1.08382,3.13064 -1.10418,0.59222 -2.47662,0.24394 -3.36807,-0.69427 -1.583,-1.66603 -2.42589,-3.84369 -3.65622,-5.75528 -1.01123,-1.57117 -1.78782,-3.26677 -2.61321,-4.9424 -1.30634,-2.652 -2.0227,-5.58627 -1.95034,-8.5796 0.0732,-3.02843 -0.46455,-6.02749 -0.55004,-9.04613 -0.0651,-2.29774 0.76445,-4.49219 1.39751,-6.66739 0.36544,-1.25567 0.92896,-2.44017 1.38441,-3.65863 0.50998,-1.36435 -0.41474,-2.48408 -1.31723,-3.35211 -1.27336,-1.22475 -2.95539,-2.02826 -4.65387,-2.35448 -1.99131,-0.38246 -3.9381,-0.92338 -5.87382,-1.62329 -1.25662,-0.45437 -3.06606,0.1454 -3.81403,-1.17689 -0.6583,-1.16375 -2.33542,-1.8908 -2.3464,-3.19928 -0.0107,-1.27747 1.514,-1.73074 1.94988,-2.8356 0.50069,-1.26911 1.93407,-1.13615 3.05443,-1.27169 1.98583,-0.24025 3.71275,-1.34822 5.71328,-1.64037 1.83327,-0.26773 3.66608,-0.5769 5.32021,-1.68527 1.19295,-0.79935 1.64355,-2.26649 1.77151,-3.63007 0.16922,-1.80327 -0.85189,-3.37514 -1.34691,-5.04892 -0.95712,-3.23618 -0.92115,-6.64833 -0.55246,-9.99164 0.36128,-3.27614 0.49304,-6.59835 1.35994,-9.79776 0.71692,-2.6459 1.96941,-5.12585 3.39991,-7.44567 1.48823,-2.41343 2.82616,-5.20795 5.28105,-6.67853 1.14589,-0.68643 2.39885,0.2103 2.84245,1.25294 0.57004,1.33985 -0.27247,2.74216 -0.29376,4.10715 -0.0286,1.8356 0.49671,3.62747 0.20523,5.48207 -0.63174,4.01948 -1.32321,8.03182 -2.69197,11.91059 -0.25531,0.72349 -0.50944,1.42432 -0.57534,2.2117 -0.14968,1.78861 -0.58657,4.01549 0.65541,5.30332 0.35936,0.37263 -0.12831,2.13835 0.3605,1.78659 1.80283,-1.29736 4.04957,-1.81266 6.26394,-1.72799 10.584591,-0.0126 20.074631,3.79524 30.218731,6.01091 1.05906,0.21814 2.39425,1.58068 3.18674,1.01233 1.36247,-0.97712 2.84147,-1.82461 3.90162,-3.17685 0.62584,-0.79826 1.14724,-1.80382 1.85025,-2.60242 1.44391,-1.64024 3.59111,-2.62735 5.92793,-2.38169 1.55348,0.16331 0.80388,1.7703 1.16877,2.75005 0.39668,1.06513 0.1935,2.20142 0.28937,3.32579 0.10486,1.22977 -0.62648,2.29004 -1.47813,3.12105 -0.84243,0.82201 -0.77847,2.35284 -2.02642,2.78786 -0.87758,0.30592 -3.0396,1.39088 -2.40566,1.99662 0.99294,0.94878 2.29108,1.45059 3.48547,2.09676 1.05132,0.56878 2.20547,0.98964 3.16473,1.71191 0.87666,0.66009 2.46229,1.35064 2.09498,2.69839 l -0.0616,0.16728 z m -6.39328,-9.4723 c 0.0409,0.13712 0.32916,0.11262 0,0 z"
       id="path7"
       sodipodi:nodetypes="ssssssssssssssssssscssssssssssssssssssssssscscscssscsssssssccsssssss" /></g></svg>
