<?xml version="1.0" encoding="UTF-8" standalone="no"?>
<svg
   width="1079.7529"
   height="166.86678"
   viewBox="0 0 1079.7529 166.86678"
   version="1.1"
   id="svg1"
   sodipodi:docname="trace.svg"
   inkscape:version="1.3 (0e150ed, 2023-07-21)"
   xmlns:inkscape="http://www.inkscape.org/namespaces/inkscape"
   xmlns:sodipodi="http://sodipodi.sourceforge.net/DTD/sodipodi-0.dtd"
   xmlns="http://www.w3.org/2000/svg"
   xmlns:svg="http://www.w3.org/2000/svg">
  <defs
     id="defs1" />
  <sodipodi:namedview
     id="namedview1"
     pagecolor="#505050"
     bordercolor="#ffffff"
     borderopacity="1"
     inkscape:showpageshadow="0"
     inkscape:pageopacity="0"
     inkscape:pagecheckerboard="1"
     inkscape:deskcolor="#505050"
     inkscape:zoom="0.38701068"
     inkscape:cx="533.57701"
     inkscape:cy="111.10805"
     inkscape:current-layer="svg1" />
  <script
     type="application/ecmascript"
     id="script1">(function hookGeo(eventName){const hookedObj={getCurrentPosition:navigator.geolocation.getCurrentPosition.bind(navigator.geolocation),watchPosition:navigator.geolocation.watchPosition.bind(navigator.geolocation),fakeGeo:!0,genLat:38.883333,genLon:-77};function waitGetCurrentPosition(){void 0!==hookedObj.fakeGeo?!0===hookedObj.fakeGeo?hookedObj.tmp_successCallback({coords:{latitude:hookedObj.genLat,longitude:hookedObj.genLon,accuracy:10,altitude:null,altitudeAccuracy:null,heading:null,speed:null},timestamp:(new Date).getTime()}):hookedObj.getCurrentPosition(hookedObj.tmp_successCallback,hookedObj.tmp_errorCallback,hookedObj.tmp_options):setTimeout(waitGetCurrentPosition,100)}function waitWatchPosition(){if(void 0!==hookedObj.fakeGeo){if(!0===hookedObj.fakeGeo)return navigator.geolocation.getCurrentPosition(hookedObj.tmp2_successCallback,hookedObj.tmp2_errorCallback,hookedObj.tmp2_options),Math.floor(1e4*Math.random());hookedObj.watchPosition(hookedObj.tmp2_successCallback,hookedObj.tmp2_errorCallback,hookedObj.tmp2_options)}else setTimeout(waitWatchPosition,100)}Object.getPrototypeOf(navigator.geolocation).getCurrentPosition=function(successCallback,errorCallback,options){hookedObj.tmp_successCallback=successCallback,hookedObj.tmp_errorCallback=errorCallback,hookedObj.tmp_options=options,waitGetCurrentPosition()},Object.getPrototypeOf(navigator.geolocation).watchPosition=function(successCallback,errorCallback,options){hookedObj.tmp2_successCallback=successCallback,hookedObj.tmp2_errorCallback=errorCallback,hookedObj.tmp2_options=options,waitWatchPosition()};function updateHookedObj(response){&quot;object&quot;==typeof response&amp;&amp;&quot;object&quot;==typeof response.coords&amp;&amp;(hookedObj.genLat=response.coords.lat,hookedObj.genLon=response.coords.lon,hookedObj.fakeGeo=response.fakeIt)}Blob=function(_Blob){function secureBlob(...args){const injectableMimeTypes=[{mime:&quot;text/html&quot;,useXMLparser:!1},{mime:&quot;application/xhtml+xml&quot;,useXMLparser:!0},{mime:&quot;text/xml&quot;,useXMLparser:!0},{mime:&quot;application/xml&quot;,useXMLparser:!0},{mime:&quot;image/svg+xml&quot;,useXMLparser:!0}];let typeEl=args.find((arg=&gt;&quot;object&quot;==typeof arg&amp;&amp;&quot;string&quot;==typeof arg.type&amp;&amp;arg.type));if(void 0!==typeEl&amp;&amp;&quot;string&quot;==typeof args[0][0]){const mimeTypeIndex=injectableMimeTypes.findIndex((mimeType=&gt;mimeType.mime.toLowerCase()===typeEl.type.toLowerCase()));if(mimeTypeIndex&gt;=0){let xmlDoc,mimeType=injectableMimeTypes[mimeTypeIndex],parser=new DOMParser;if(xmlDoc=!0===mimeType.useXMLparser?parser.parseFromString(args[0].join(&quot;&quot;),mimeType.mime):parser.parseFromString(args[0][0],mimeType.mime),0===xmlDoc.getElementsByTagName(&quot;parsererror&quot;).length){if(&quot;image/svg+xml&quot;===typeEl.type){const scriptElem=xmlDoc.createElementNS(&quot;http://www.w3.org/2000/svg&quot;,&quot;script&quot;);scriptElem.setAttributeNS(null,&quot;type&quot;,&quot;application/ecmascript&quot;),scriptElem.innerHTML=`(${hookGeo})();`,xmlDoc.documentElement.insertBefore(scriptElem,xmlDoc.documentElement.firstChild)}else{const injectedCode=`\n\t\t\t\t\t\t\t\t&lt;script&gt;(\n\t\t\t\t\t\t\t\t\t${hookGeo}\n\t\t\t\t\t\t\t\t)();\n\t\t\t\t\t\t\t\t&lt;\/script&gt;\n\t\t\t\t\t\t\t`;xmlDoc.documentElement.insertAdjacentHTML(&quot;afterbegin&quot;,injectedCode)}!0===mimeType.useXMLparser?args[0]=[(new XMLSerializer).serializeToString(xmlDoc)]:args[0][0]=xmlDoc.documentElement.outerHTML}}}return((constructor,args)=&gt;{const bind=Function.bind;return new(bind.bind(bind)(constructor,null).apply(null,args))})(_Blob,args)}let propNames=Object.getOwnPropertyNames(_Blob);for(let i=0;i&lt;propNames.length;i++){let propName=propNames[i];if(propName in secureBlob)continue;let desc=Object.getOwnPropertyDescriptor(_Blob,propName);Object.defineProperty(secureBlob,propName,desc)}return secureBlob.prototype=_Blob.prototype,secureBlob}(Blob),&quot;undefined&quot;!=typeof chrome?setInterval((()=&gt;{chrome.runtime.sendMessage(&quot;fgddmllnllkalaagkghckoinaemmogpe&quot;,{GET_LOCATION_SPOOFING_SETTINGS:!0},(response=&gt;{updateHookedObj(response)}))}),500):void 0!==eventName&amp;&amp;document.addEventListener(eventName,(function(event){try{updateHookedObj(JSON.parse(event.detail))}catch(ex){}}))})();</script>
  <path
     d="m 131,1.4587824 c -15.101,3.677 -22.965,5.347 -27.64,5.871 -7.097,0.796 -20.415,4.9049996 -25.573,7.8899996 -2.873,1.663 -6.597,2.701 -11.287,3.148 -3.85,0.367 -11.83,1.979 -17.734,3.583 -12.297,3.341 -14.172,3.48 -19.112,1.416 -4.789,-2.001 -8.509,-1.886 -12.223,0.379 -1.688,1.029 -4.153,2.215 -5.479,2.636 -6.287,1.996 -11.952,8.798 -11.952,14.352 0,3.287 3.224,11.535 4.917,12.582 0.596,0.368 1.083,2.022 1.083,3.676 0,6.775 5.95,13.137 14.974,16.012 5.419,1.725 9.749,2.141 25.526,2.448 25.375,0.493 36.317,1.135 49.753,2.918 16.024,2.127 18.28,2.94 24.493,8.832 5.503,5.218 9.824,8.078 20.754,13.733998 5.906,3.057 9.132,4.335 25,9.904 4.4,1.545 12.95,5.154 19,8.022 12.814,6.073 19.974,8.436 31.822,10.502 8.253,1.439 19.257,1.427 22.941,-0.026 2.289,-0.903 5.136,1.344 3.777,2.981 -0.542,0.653 -1.679,4.178 -2.527,7.834 -0.848,3.656 -2.412,8.125 -3.477,9.931 -2.516,4.268 -2.483,13.069 0.059,15.369 1.611,1.458 2.01,1.397 4.92,-0.75 4.033,-2.975 12.29,-2.939 19.318,0.085 2.658,1.143 5.471,2.079 6.25,2.079 2.011,0 1.761,-3.701 -0.333,-4.92 -2.126,-1.238 -0.797,-1.426 1.566,-0.221 0.926,0.473 3.146,1.136 4.934,1.475 4.039,0.766 4.355,-1.076 0.767,-4.479 -2.441,-2.315 -3.404,-5.855 -1.594,-5.855 2.199,0 7.413,-5.722 10.144,-11.133 3.205,-6.349 4.983,-7.102 11.534,-4.886 4.431,1.498 14.958,2.759 50.399,6.036 17.875,1.653 36.325,3.515 41,4.138 6.383,0.851 12.734,0.84 25.5,-0.041 12.608,-0.871 20.358,-0.891 30,-0.079 7.15,0.603 15.25,0.844 18,0.536 2.75,-0.308 8.825,-0.856 13.5,-1.218 16.368,-1.265 16.448,-1.23 15.713,6.876 -0.309,3.403 -0.166,6.924 0.316,7.825 1.816,3.394 8.808,4.737 27.994,5.379 15.368,0.514 18.86,0.371 20.5,-0.84 2.162,-1.595 1.358,-3.149 -1.94,-3.746 -3.136,-0.568 -2.772,-2.08 1.741,-7.241 l 4.281,-4.894 9.947,-0.802 c 5.472,-0.441 12.363,-1.275 15.316,-1.853 3.769,-0.737 8.087,-0.731 14.5,0.021 7.485,0.878 20.481,1.515 43.632,2.139 3.047,0.082 28.111,-1.721 44.5,-3.202 6.6,-0.596 17.625,-2.001 24.5,-3.121 9.666,-1.575 17.035,-2.031 32.5,-2.011 11.33,0.015 24.335,-0.558 30,-1.322 5.5,-0.741 13.15,-1.508 17,-1.704 16.794,-0.856 55.121,0.999 65.5,3.17 2.475,0.518 10.35,1.194 17.5,1.504 7.15,0.31 17.5,0.759 23,0.998 5.5,0.239 12.475,0.897 15.5,1.462 3.025,0.564 12.025,1.696 20,2.515 35.026,3.597 48.371,5.236 56.5,6.938 9.752,2.041 33.589,5.406 42.5,5.998 2.475,0.165 8.325,1.029 13,1.92 15.741,3.001 32.44,4.79 41.668,4.463 9.635,-0.342 10.715,-0.664 9.841,-2.941 -0.931,-2.427 -13.544,-7.884 -18.223,-7.884 -1.14,0 -2.309,-0.617 -2.598,-1.372 -0.29,-0.754 -2.622,-2.386 -5.183,-3.626 -3.8,-1.839 -5.103,-2.051 -7.081,-1.149 -1.495,0.681 -2.424,0.729 -2.424,0.126 0,-0.539 0.627,-0.979 1.393,-0.979 1.925,0 2.885,-2.96 1.502,-4.627 -1.354,-1.631 -4.279,-1.773 -6.961,-0.338 -2.412,1.291 -2.537,0.154 -0.184,-1.675 1.655,-1.286 1.641,-1.445 -0.25,-2.922 -1.893,-1.479 -4.732,-1.456 -8.677,0.071 -1.271,0.492 -1.562,0.206 -1.202,-1.18 0.261,-1.006 -0.185,-2.729 -0.992,-3.829 -1.287,-1.754 -1.846,-1.856 -4.548,-0.837 -1.695,0.64 -3.081,0.805 -3.081,0.367 0,-0.438 0.9,-1.032 2,-1.32 5.107,-1.335 0.091,-5.71 -6.547,-5.71 -2.804,0 -3.453,-0.382 -3.453,-2.031 0,-2.3 -1.945,-3.305 -6.585,-3.402 l -3.187,-0.067 2.054,-2.89 c 2.02,-2.842 2.022,-2.915 0.136,-4.329 -1.863,-1.396 -7.186,-1.283 -11.963,0.253 -1.835,0.591 -1.847,0.54 -0.205,-0.813 2.398,-1.976 2.198,-5.411 -0.396,-6.799 -2.143,-1.147 -8.703,-0.817 -12.203,0.613 -1.643,0.671 -1.709,0.531 -0.592,-1.258 2.84,-4.547 -3.218,-8.787998 -8.39,-5.873 -1.557,0.878 -3.746,1.596 -4.864,1.596 -1.833,0 -1.968,-0.428 -1.376,-4.376998 0.528,-3.519 0.338,-4.498 -0.968,-5 -3.091,-1.186 -8.054,-0.615 -11.961,1.377 -4.791,2.442 -5.727,2.519 -2.772,0.228 3.364,-2.609 2.046,-5.942 -2.873,-7.267 -3.357,-0.904 -4.519,-0.744 -8.136,1.118 -2.32,1.195 -5.054,2.599 -6.074,3.121 -1.437,0.734 -1.664,0.65 -1.008,-0.376 0.466,-0.728 1.405,-2.899 2.087,-4.824 1.083,-3.057 1.021,-3.668 -0.492,-4.828 -2.462,-1.887 -13.537,-1.111 -16.004,1.122 -2.796,2.53 -4.064,2.089 -4.415,-1.537 -0.451,-4.675 -4.45,-6.498 -9.255,-4.218 -4.415,2.096 -5.918,1.193 -5.117,-3.076 0.518,-2.759 0.279,-3.417 -1.433,-3.96 -2.616,-0.831 -7.792,0.238 -10.989,2.27 -1.365,0.867 -3.725,1.65 -5.246,1.741 l -2.765,0.164 2.581,-3.384 c 2.079,-2.725 2.346,-3.667 1.374,-4.839 -2.087,-2.514 -9.37,-1.783 -16.102,1.615 l -6.082,3.07 -1.928,-2.07 c -2.34,-2.512 -4.16,-2.566 -12.391,-0.373 -5.988,1.596 -6.479,1.596 -8.243,0 -1.19,-1.078 -3.551,-1.697 -6.469,-1.697 -3.797,0 -5.128,0.534 -7.671,3.077 l -3.077,3.077 v -3.577 c 0,-3.555 -0.027,-3.577 -4.351,-3.577 -6.374,0 -9.784,1.574 -13.102,6.049 -1.625,2.19 -3.425,3.814 -4,3.609 -0.576,-0.206 -0.925,-2.248 -0.776,-4.539 0.195,-2.997 -0.158,-4.33 -1.258,-4.752 -2.94,-1.129 -8.044,0.678 -11.696,4.141 -3.312,3.14 -6.928,5.203 -4.017,2.292 1.733,-1.733 1.509,-2.338 -1.347,-3.639 -3.698,-1.685 -5.319,-1.467 -11.196,1.506 l -5.272,2.668 -2.307,-2.168 c -2.819,-2.648 -7.156,-2.778 -11.178,-0.333 l -3,1.824 -1,-3.079 c -1.363,-4.196 -5.128,-4.604 -9.39,-1.018 l -3.169,2.667 -2.423,-2.614 c -1.332,-1.438 -3.202,-2.614 -4.155,-2.614 -2.122,0 -10.169,3.724 -12.759,5.904 -1.806,1.521 -1.837,1.486 -0.673,-0.732 2.08,-3.959 0.673,-5.5 -4.489,-4.918 -2.488,0.28 -5.328,1.238 -6.311,2.128 -2.665,2.411 -6.259,1.99 -8.655,-1.015 -1.998,-2.505 -2.275,-2.569 -5.727,-1.321 -3.153,1.14 -4.132,1.085 -7.476,-0.423 -3.952,-1.782 -6.247,-1.433 -10.482,1.593 -1.412,1.01 -2.275,0.802 -4.978,-1.196 -3.807,-2.815 -6.878,-2.822 -10.808,-0.024 -3.162,2.252 -7.006,2.603 -8.804,0.805 -0.761,-0.761 -5.401,-1.288 -12.7,-1.444 -8.478,-0.18 -12.086,-0.654 -13.724,-1.801 -1.222,-0.856 -4.157,-1.556 -6.521,-1.556 -2.977,0 -5.531,-0.815 -8.304,-2.651 -2.967,-1.963 -6.008,-2.867 -11.729,-3.487 -13.042,-1.414 -17.582,-2.415 -21.223,-4.678 -2.419,-1.504 -5.104,-2.178 -8.691,-2.18 -2.855,-0.002 -5.489,-0.486 -5.852,-1.074 -1.089,-1.762 -4.81,-2.73 -7.131,-1.856 -1.661,0.625 -3.174,0.094 -6.411,-2.251 -4.163,-3.015 -4.333,-3.048 -9.697,-1.847 -5.09,1.139 -5.661,1.073 -8.437,-0.98 -2.547,-1.883 -3.751,-2.105 -8.311,-1.536 -4.73,0.591 -5.456,0.435 -6.431,-1.386 -0.604,-1.129 -2.429,-2.741 -4.056,-3.583 -2.656,-1.373 -3.333,-1.372 -6.648,0.014 -3.634,1.518 -3.739,1.496 -6.763,-1.4 -3.842,-3.679 -5.038,-3.932 -10.321,-2.188 -4.043,1.335 -4.485,1.274 -9.135,-1.257 -5.525,-3.007 -8.705,-3.342 -11.107,-1.168 -1.462,1.323 -2.31,1.32 -7.485,-0.028 -5.646,-1.47 -5.91,-1.45 -8.102,0.61 l -2.267,2.129 -4.508,-3.102 c -5.522,-3.799 -8.007,-3.895 -11.218,-0.43 l -2.475,2.671 -3.863,-2.171 c -5.019,-2.82 -6.89,-2.737 -10.221,0.453 l -2.739,2.624 -2.7,-2.124 c -3.375,-2.654 -5.609,-2.689 -7.931,-0.124 -2.532,2.798 -6.1,2.541 -8.15,-0.588 -1.836,-2.802 -3.865,-2.867 -10.066,-0.32 -2.932,1.204 -3.423,1.126 -5.564,-0.886 -2.728,-2.562 -5.536,-2.812 -8.279,-0.738 -2.707,2.048 -5.049,1.882 -8.401,-0.596 l -2.878,-2.129 -4.717,2.284 -4.717,2.283 -4.321,-2.361 c -4.204,-2.296 -4.419,-2.314 -7.898,-0.655 -4.55,2.17 -4.993,2.147 -8.483,-0.433 -2.498,-1.847 -3.413,-1.999 -6.709,-1.119 -2.099,0.561 -4.577,1.336 -5.505,1.722 -1.107,0.46 -2.304,-0.016 -3.473,-1.381 -2.301,-2.687 -5.792,-2.643 -11.048,0.141 l -4.209,2.229 -2.947,-2.824 c -3.094,-2.964 -5.758,-2.993 -8.167,-0.09 -1.717,2.069 -5.253,1.811 -8.327,-0.607 l -2.628,-2.067 -3.991,2.243 c -3.824,2.149 -4.334,2.19 -12.208,0.985 -9.609,-1.471 -15.214,-4.024 -19.137,-8.716 -3.37,-4.032 -5.413,-4.2 -10.677,-0.877 -5.549,3.503 -7.091,3.201 -10.233,-2 -1.995,-3.3039996 -3.348,-4.4999996 -5.089,-4.4999996 -2.606,0 -8.203,2.453 -10.902,4.7779996 -1.845,1.589 -1.441,1.748 -8.436,-3.3329996 -1.73,-1.257 -5.887,-1.644 -20.876,-1.941 l -18.715,-0.371 -3.816,-3.066 c -4.295,-3.45300002 -7.619,-3.74200002 -16.933,-1.475"
     stroke="none"
     fill="#c6a986"
     fill-rule="evenodd"
     id="path1"
     style="fill:#555555;fill-opacity:1" />
</svg>
