<?xml version="1.0" encoding="UTF-8" standalone="no"?>
<!-- Created with Inkscape (http://www.inkscape.org/) -->

<svg
   version="1.1"
   id="svg1"
   width="717.50641"
   height="183.72447"
   viewBox="0 0 717.50641 183.72447"
   sodipodi:docname="SHONISAURUS.svg"
   inkscape:version="1.4 (86a8ad7, 2024-10-11)"
   xmlns:inkscape="http://www.inkscape.org/namespaces/inkscape"
   xmlns:sodipodi="http://sodipodi.sourceforge.net/DTD/sodipodi-0.dtd"
   xmlns="http://www.w3.org/2000/svg"
   xmlns:svg="http://www.w3.org/2000/svg">
  <defs
     id="defs1" />
  <sodipodi:namedview
     id="namedview1"
     pagecolor="#ffffff"
     bordercolor="#000000"
     borderopacity="0.25"
     inkscape:showpageshadow="2"
     inkscape:pageopacity="0.0"
     inkscape:pagecheckerboard="0"
     inkscape:deskcolor="#d1d1d1"
     inkscape:zoom="0.79749593"
     inkscape:cx="318.49692"
     inkscape:cy="78.370306"
     inkscape:window-width="1366"
     inkscape:window-height="705"
     inkscape:window-x="-8"
     inkscape:window-y="-8"
     inkscape:window-maximized="1"
     inkscape:current-layer="g1" />
  <g
     inkscape:groupmode="layer"
     inkscape:label="Image"
     id="g1"
     transform="translate(-16.366947,-92.139383)">
    <path
       style="fill:#ffffff;fill-opacity:1"
       d="m 229.35622,271.29361 c -2.44508,-2.58852 -5.8464,-7.20102 -7.55847,-10.25 -1.71207,-3.04899 -4.99289,-8.24361 -7.2907,-11.54361 -2.29781,-3.3 -6.75391,-10.725 -9.90244,-16.5 -3.14853,-5.775 -6.19825,-11.36249 -6.77715,-12.41666 -1.59829,-2.91039 -7.86981,-19.61628 -8.85338,-23.58334 -0.47728,-1.925 -1.89761,-4.175 -3.1563,-5 -1.25869,-0.825 -4.62657,-3.39239 -7.48417,-5.70532 C 167.528,177.54869 149.45662,170.25085 121,163.1414 c -6.875,-1.71761 -16.55,-4.22758 -21.5,-5.5777 -12.672473,-3.45645 -29.414492,-5.45214 -55.5,-6.61573 -12.375,-0.55201 -23.454683,-1.40514 -24.621519,-1.89583 -2.55483,-1.07441 -3.941054,-5.66935 -2.305052,-7.64062 1.889225,-2.27637 7.548194,-3.20965 23.426571,-3.86352 24.463378,-1.00739 61.43807,-4.51174 68.5,-6.49224 3.575,-1.00259 11,-2.84827 16.5,-4.1015 10.18006,-2.31963 19.83908,-4.77793 31.5,-8.01702 3.575,-0.99303 9.875,-2.73375 14,-3.86826 4.125,-1.1345 11.55,-3.17918 16.5,-4.54373 4.95,-1.36455 15.075,-3.60813 22.5,-4.98574 35.19759,-6.530405 68.30792,-7.112603 139.76318,-2.45753 19.02601,1.23948 19.70195,1.12961 29.84581,-4.851432 6.30903,-3.719939 14.51772,-6.462492 18.10848,-6.050109 3.4426,0.395367 4.13855,3.495867 1.86169,8.293991 -1.97085,4.15326 -1.99071,5.93913 -0.0836,7.52187 1.64824,1.36791 19.79746,3.50961 67.50446,7.96586 17.325,1.61831 35.775,3.59719 41,4.39751 5.225,0.80032 16.025,2.16115 24,3.02405 26.86755,2.90711 33.47287,3.6584 40.5,4.60645 18.95518,2.55731 25.89292,0.47929 41.46891,-12.42089 11.59281,-9.60128 17.08339,-12.60069 19.45825,-10.62973 0.84647,0.70251 1.49526,4.27842 1.78389,9.83224 0.43429,8.35659 0.64192,9.00496 4.87645,15.22821 2.43256,3.575 5.60729,7.85 7.05496,9.5 1.44767,1.65 4.91759,5.77447 7.71095,9.16548 6.80293,8.25846 14.86004,14.27825 26.46833,19.77551 5.29486,2.50745 9.8718,4.55901 10.17097,4.55901 0.91079,0 24.67165,11.83428 30.00729,14.94536 2.75,1.60345 5.9,3.34506 7,3.87024 3.06029,1.4611 5.71382,4.83568 5.33765,6.78808 -0.74884,3.88666 -8.52261,3.94732 -29.83765,0.23281 -22.29817,-3.88584 -35.02931,-8.42884 -69.5,-24.80048 -12.92754,-6.13986 -15.99379,-7.38608 -25.5,-10.36404 -15.12125,-4.73694 -17.34031,-4.93339 -49.3937,-4.37273 -29.12591,0.50946 -39.50774,1.38793 -60.1063,5.08598 -4.4,0.78993 -11.2625,1.99859 -15.25,2.68591 -3.9875,0.68732 -7.25,1.39573 -7.25,1.57425 0,0.17852 1.34113,2.50418 2.98028,5.16815 1.63915,2.66396 4.07645,7.75581 5.4162,11.31522 1.33976,3.55941 4.8893,11.39906 7.88788,17.42145 8.59849,17.26937 12.20519,25.73389 14.16829,33.25143 1.74064,6.66564 0.81341,9.19837 -3.36751,9.19837 -4.65385,0 -13.66815,-7.90685 -30.11006,-26.41093 -1.91129,-2.151 -7.23508,-7.551 -11.83063,-12 -7.90844,-7.65622 -17.97701,-20.01538 -19.42087,-23.83907 -0.36344,-0.9625 -1.17348,-1.75 -1.80007,-1.75 -0.6266,0 -7.72822,3.48623 -15.78139,7.74717 -8.05317,4.26094 -17.56712,9.01334 -21.14212,10.56087 -3.575,1.54754 -7.4,3.23553 -8.5,3.75109 -1.1,0.51556 -8.525,3.23469 -16.5,6.0425 -38.81354,13.66536 -45.71807,15.1327 -71.5,15.195 -20.09612,0.0486 -27.80132,-0.88673 -48.5,-5.88709 -11.96345,-2.89012 -26.04211,-7.27504 -27.45,-8.54954 -1.85495,-1.67922 -3.59811,-0.91272 -3.1611,1.39 0.98829,5.20763 3.80516,17.83611 5.7437,25.75 6.98128,28.50026 7.72742,35.93418 3.81677,38.0271 -2.99109,1.60078 -3.94659,1.18564 -8.59315,-3.73349 z"
       id="path1" />
  </g>
</svg>
