<?xml version="1.0" encoding="UTF-8" standalone="no"?>
<!-- Created with Inkscape (http://www.inkscape.org/) -->

<svg
   width="205.95563mm"
   height="72.610901mm"
   viewBox="0 0 205.95563 72.610901"
   version="1.1"
   id="svg1"
   xml:space="preserve"
   inkscape:version="1.3 (0e150ed6c4, 2023-07-21)"
   sodipodi:docname="Spinosaurus_Aegyptiacus-side.svg"
   xmlns:inkscape="http://www.inkscape.org/namespaces/inkscape"
   xmlns:sodipodi="http://sodipodi.sourceforge.net/DTD/sodipodi-0.dtd"
   xmlns="http://www.w3.org/2000/svg"
   xmlns:svg="http://www.w3.org/2000/svg"><sodipodi:namedview
     id="namedview1"
     pagecolor="#505050"
     bordercolor="#ffffff"
     borderopacity="1"
     inkscape:showpageshadow="0"
     inkscape:pageopacity="0"
     inkscape:pagecheckerboard="1"
     inkscape:deskcolor="#505050"
     inkscape:document-units="mm"
     inkscape:zoom="0.41512267"
     inkscape:cx="-44.56514"
     inkscape:cy="167.42039"
     inkscape:window-width="1600"
     inkscape:window-height="837"
     inkscape:window-x="-8"
     inkscape:window-y="-8"
     inkscape:window-maximized="1"
     inkscape:current-layer="layer1" /><defs
     id="defs1" /><g
     inkscape:label="Layer 1"
     inkscape:groupmode="layer"
     id="layer1"
     transform="translate(-0.95431708,-105.01624)"><path
       id="path1"
       style="fill:#555555;stroke-width:0.1;paint-order:markers stroke fill"
       d="m 81.43999,105.01633 c -0.795736,0.007 -1.640797,0.44326 -2.964677,1.34462 -2.647759,1.80273 -5.577157,4.28175 -7.548893,5.40846 -1.971736,1.12669 -5.014313,1.74625 -7.605737,0.95756 -2.591425,-0.7887 -8.506192,-2.366 -10.365259,-0.56327 -1.859063,1.80273 -3.324234,8.22499 -4.112927,10.64741 -0.788696,2.42242 -2.591318,6.64752 -4.394047,7.66155 -1.802731,1.01404 -4.731787,0.95784 -6.309176,-0.95757 -1.577388,-1.9154 -4.619838,-7.94363 -8.506974,-12.05611 -3.887134,-4.11248 -9.520371,-4.50656 -13.013159,-1.8588 -3.492789,2.64776 -3.154791,3.21119 -3.549138,3.15485 -0.394347,-0.0563 -2.986189,-1.52108 -4.3382362,0.2253 -1.3520473,1.7464 -1.6899313,0.73208 -0.901237,1.97146 0.788694,1.23938 2.02838,1.91557 1.4650268,2.47892 -0.5633529,0.56336 -3.7749235,4.5634 -4.0565999,5.57744 -0.2816765,1.01403 -2.0839906,4.28127 -2.9290202,5.06997 -0.8450294,0.78869 -1.80308659,1.74652 -1.127063,2.76056 0.6760236,1.01403 1.9156054,1.85888 2.1972819,1.29552 0.042346,-0.0847 0.068189,-0.22602 0.098702,-0.34985 l 1.0841716,0.0119 -0.945162,-0.67851 c 0.00349,-0.0214 0.00679,-0.0415 0.010335,-0.0631 l 0.8361247,0.009 -0.730188,-0.52452 c 0.097001,-0.45821 0.2274342,-0.90233 0.4909261,-1.16582 0.444003,-0.444 1.2899735,-0.60505 2.0257161,-0.94723 l 0.2775025,0.27854 -0.06873,-0.39326 c 0.2097837,-0.11381 0.4149818,-0.23515 0.5823934,-0.40256 0.011795,-0.0118 0.037861,-0.0514 0.050126,-0.0641 l 0.4082438,0.40928 -0.1333252,-0.76326 c 0.2003875,-0.23185 0.4391932,-0.55452 0.6872965,-0.8847 l 0.6903972,0.0424 -0.4464844,-0.35605 c 0.5060704,-0.69472 0.8275555,-1.18252 1.1983765,-1.78387 l 0.5110798,0.15193 -0.3384806,-0.42685 c 0.097334,-0.16497 0.2839542,-0.42982 0.3426146,-0.54725 l 0.529167,0.20257 -0.329179,-0.48783 c 0.05608,-0.0917 0.156311,-0.21228 0.244946,-0.32607 l 0.506946,0.1943 -0.309025,-0.45785 c 0.120001,-0.13908 0.241091,-0.27114 0.383956,-0.42272 l 0.401526,0.19327 -0.215491,-0.38395 c 0.221615,-0.2287 0.427857,-0.45135 0.665076,-0.67748 l 0.12764,0.0615 -0.06563,-0.11679 c 0.764972,-0.72447 1.521164,-1.36205 1.737879,-1.44332 0.450682,-0.169 1.520837,-0.33801 1.520837,0 0,0.33801 -1.182817,2.14069 -1.577165,3.94343 -0.171545,0.78421 -0.394715,2.05115 -0.619083,3.24115 l -0.711585,0.0729 0.630453,0.35243 c -0.03326,0.17239 -0.06529,0.30129 -0.0987,0.46819 l -0.754993,-0.0837 0.650606,0.57309 c -0.01594,0.0755 -0.03165,0.15021 -0.04754,0.22324 l -0.872815,0.0718 0.762744,0.44597 c -0.0404,0.17011 -0.07784,0.27465 -0.117305,0.41961 l -0.941028,0.078 0.766361,0.44804 c -0.02458,0.0632 -0.05166,0.18028 -0.07545,0.22686 l -0.859896,0.0713 0.609782,0.35708 c -0.01948,0.0289 -0.05567,0.0836 -0.077,0.11473 l -0.433565,-0.0119 0.295072,0.21911 c -0.396444,0.57061 -0.851121,1.23964 -1.263489,2.03915 l -0.803568,-0.15296 0.571541,0.58756 c -0.108048,0.25094 -0.181254,0.48709 -0.225309,0.71003 l -0.4196125,0.0233 0.3886068,0.24133 c -0.00218,0.0438 -0.017913,0.0948 -0.01602,0.13642 0.00864,0.19006 0.048306,0.34997 0.078549,0.51987 l -0.5643068,0.0315 0.6769608,0.42065 c 0.236171,0.6491 0.694134,0.98194 1.442289,0.5488 1.070371,-0.61968 2.084555,-1.4084 2.591573,-3.49281 0.507018,-2.08441 3.098367,-4.90084 4.168738,-5.97121 1.070371,-1.07038 4.000017,-3.54934 5.802747,-2.14096 1.802729,1.40838 2.872837,4.28155 5.520593,6.87297 2.64776,2.59143 7.098591,5.01388 8.506974,7.04195 1.408384,2.02807 6.590897,5.6336 9.633004,6.81663 3.042105,1.18304 3.887055,1.12672 4.225065,3.54914 0.338013,2.42242 1.802991,6.30939 1.802991,8.45013 0,2.14075 0.619608,3.88738 0.563273,5.52111 -0.05633,1.63372 0.168903,3.32376 0.732255,0.16898 0.563354,-3.15477 0,-3.26739 0,-4.05608 0,-0.7887 -0.394363,-2.42266 0.112655,-1.91565 0.507018,0.50701 1.521312,3.15466 1.80299,4.50671 0.281675,1.35204 0.901204,2.36607 1.126547,3.71812 0.22534,1.35204 0.619615,0.28188 0.506945,-1.40819 -0.112672,-1.69006 -1.295482,-4.84504 -1.633492,-5.85907 -0.338013,-1.01404 -0.281709,-1.63366 0.22531,-0.45062 0.507017,1.18305 1.577149,3.09843 1.689819,3.71812 0.11267,0.61969 0.6196,1.85925 0.6196,2.30994 0,0.45068 0.338481,-0.84533 0.338481,-1.52136 0,-0.67602 -0.1694,-2.25341 -0.845426,-3.60546 -0.676023,-1.35205 -1.01381,-2.81673 -1.577165,-3.94343 -0.563352,-1.12671 -0.112616,-3.37999 -0.394291,-4.61936 -0.281678,-1.23938 -0.450658,-3.26747 -0.168982,-3.49281 0.281678,-0.22534 4.900987,1.52131 12.224577,1.85932 7.323588,0.33801 11.379636,-0.28174 11.604976,0.45062 0.225343,0.73236 2.816697,7.71808 4.112411,9.97148 1.29571,2.25341 2.81689,6.4222 2.760555,7.43624 -0.05634,1.01404 1.93e-4,2.64736 -1.351856,2.81637 -1.352047,0.169 -2.985743,0.78908 -3.830774,0.90175 -0.845027,0.11267 -2.028201,0.22527 -2.704228,0.45062 -0.676022,0.22534 -1.18285,0.67588 -1.351855,0.95756 -0.169005,0.28167 0.844861,-0.16898 1.182874,-0.16898 0.338012,0 1.070314,-0.39441 0.394291,0.39429 0.929531,-0.14084 2.281443,-0.36613 2.78846,-0.28163 0.507017,0.0845 0.309899,0.25346 1.436605,0.28163 1.126709,0.0282 2.056372,-0.28163 2.704228,-0.28163 0.647858,0 1.549385,0.11282 2.478918,-1.07022 0.929533,-1.18304 1.492712,-1.32406 1.239201,-2.36627 -0.253508,-1.04219 -0.25323,-2.98596 -0.14056,-4.0845 0.112671,-1.09854 -0.05676,-2.92911 -0.620117,-4.14032 -0.563354,-1.21121 -1.013915,-3.46492 -0.84491,-5.12682 0.169008,-1.66188 0.366409,-2.95727 0.197404,-4.14031 -0.169008,-1.18305 -0.394378,-1.66216 0.225309,-1.74666 0.619689,-0.0845 5.182906,-1.09829 8.703862,-1.80248 3.520962,-0.70419 10.844162,-1.12709 17.238232,-0.95808 6.39405,0.169 13.66175,0.0285 18.70376,-0.36587 5.04201,-0.39435 14.47774,-1.60552 19.40709,-2.0562 4.92933,-0.45069 11.52073,-0.92947 17.12608,-0.45062 5.60537,0.47885 14.3094,2.4787 22.0555,5.83065 7.74612,3.35196 13.3234,7.68969 13.97125,7.88686 0.64785,0.19718 -0.1128,-1.23953 -0.92966,-2.59158 -0.81686,-1.35205 -0.95784,-1.37996 -0.87334,-1.74614 0.0845,-0.36618 0.90124,-2.73249 0.95757,-3.8592 0.0563,-1.12671 0.53515,-2.61943 -1.54926,-4.67568 -2.08441,-2.05624 -6.92877,-5.35203 -10.59057,-7.85895 -3.66179,-2.50692 -11.46449,-6.95729 -21.88652,-8.11217 -10.42203,-1.15487 -16.84411,-0.0564 -21.04109,0.45062 -4.19698,0.50702 -9.68976,1.46503 -17.63303,1.4087 -7.94329,-0.0563 -12.22503,-0.2258 -16.39383,-0.39481 -4.16882,-0.16901 -10.75971,-2.02781 -13.2948,-1.80247 -2.53509,0.22533 -3.5496,1.12657 -3.943949,0.95756 -0.394344,-0.16901 -2.309466,-5.40798 -5.633248,-12.39356 -3.323782,-6.98557 -7.492763,-14.25316 -9.746175,-15.88688 -1.126706,-0.81686 -1.872835,-1.23901 -2.668571,-1.23197 z" /></g></svg>
