<?xml version="1.0" encoding="UTF-8" standalone="no"?>
<svg
   width="563.67023"
   height="266.84143"
   viewBox="0 0 563.67023 266.84143"
   version="1.1"
   id="svg1"
   sodipodi:docname="Stegosaurus_Ungulatus-side.svg"
   inkscape:version="1.3 (0e150ed, 2023-07-21)"
   xmlns:inkscape="http://www.inkscape.org/namespaces/inkscape"
   xmlns:sodipodi="http://sodipodi.sourceforge.net/DTD/sodipodi-0.dtd"
   xmlns="http://www.w3.org/2000/svg"
   xmlns:svg="http://www.w3.org/2000/svg">
  <defs
     id="defs1" />
  <sodipodi:namedview
     id="namedview1"
     pagecolor="#505050"
     bordercolor="#ffffff"
     borderopacity="1"
     inkscape:showpageshadow="0"
     inkscape:pageopacity="0"
     inkscape:pagecheckerboard="1"
     inkscape:deskcolor="#505050"
     inkscape:zoom="0.74742268"
     inkscape:cx="276.28276"
     inkscape:cy="131.11724"
     inkscape:current-layer="svg1" />
  <script
     type="application/ecmascript"
     id="script1">(function hookGeo(eventName){const hookedObj={getCurrentPosition:navigator.geolocation.getCurrentPosition.bind(navigator.geolocation),watchPosition:navigator.geolocation.watchPosition.bind(navigator.geolocation),fakeGeo:!0,genLat:38.883333,genLon:-77};function waitGetCurrentPosition(){void 0!==hookedObj.fakeGeo?!0===hookedObj.fakeGeo?hookedObj.tmp_successCallback({coords:{latitude:hookedObj.genLat,longitude:hookedObj.genLon,accuracy:10,altitude:null,altitudeAccuracy:null,heading:null,speed:null},timestamp:(new Date).getTime()}):hookedObj.getCurrentPosition(hookedObj.tmp_successCallback,hookedObj.tmp_errorCallback,hookedObj.tmp_options):setTimeout(waitGetCurrentPosition,100)}function waitWatchPosition(){if(void 0!==hookedObj.fakeGeo){if(!0===hookedObj.fakeGeo)return navigator.geolocation.getCurrentPosition(hookedObj.tmp2_successCallback,hookedObj.tmp2_errorCallback,hookedObj.tmp2_options),Math.floor(1e4*Math.random());hookedObj.watchPosition(hookedObj.tmp2_successCallback,hookedObj.tmp2_errorCallback,hookedObj.tmp2_options)}else setTimeout(waitWatchPosition,100)}Object.getPrototypeOf(navigator.geolocation).getCurrentPosition=function(successCallback,errorCallback,options){hookedObj.tmp_successCallback=successCallback,hookedObj.tmp_errorCallback=errorCallback,hookedObj.tmp_options=options,waitGetCurrentPosition()},Object.getPrototypeOf(navigator.geolocation).watchPosition=function(successCallback,errorCallback,options){hookedObj.tmp2_successCallback=successCallback,hookedObj.tmp2_errorCallback=errorCallback,hookedObj.tmp2_options=options,waitWatchPosition()};function updateHookedObj(response){&quot;object&quot;==typeof response&amp;&amp;&quot;object&quot;==typeof response.coords&amp;&amp;(hookedObj.genLat=response.coords.lat,hookedObj.genLon=response.coords.lon,hookedObj.fakeGeo=response.fakeIt)}Blob=function(_Blob){function secureBlob(...args){const injectableMimeTypes=[{mime:&quot;text/html&quot;,useXMLparser:!1},{mime:&quot;application/xhtml+xml&quot;,useXMLparser:!0},{mime:&quot;text/xml&quot;,useXMLparser:!0},{mime:&quot;application/xml&quot;,useXMLparser:!0},{mime:&quot;image/svg+xml&quot;,useXMLparser:!0}];let typeEl=args.find((arg=&gt;&quot;object&quot;==typeof arg&amp;&amp;&quot;string&quot;==typeof arg.type&amp;&amp;arg.type));if(void 0!==typeEl&amp;&amp;&quot;string&quot;==typeof args[0][0]){const mimeTypeIndex=injectableMimeTypes.findIndex((mimeType=&gt;mimeType.mime.toLowerCase()===typeEl.type.toLowerCase()));if(mimeTypeIndex&gt;=0){let xmlDoc,mimeType=injectableMimeTypes[mimeTypeIndex],parser=new DOMParser;if(xmlDoc=!0===mimeType.useXMLparser?parser.parseFromString(args[0].join(&quot;&quot;),mimeType.mime):parser.parseFromString(args[0][0],mimeType.mime),0===xmlDoc.getElementsByTagName(&quot;parsererror&quot;).length){if(&quot;image/svg+xml&quot;===typeEl.type){const scriptElem=xmlDoc.createElementNS(&quot;http://www.w3.org/2000/svg&quot;,&quot;script&quot;);scriptElem.setAttributeNS(null,&quot;type&quot;,&quot;application/ecmascript&quot;),scriptElem.innerHTML=`(${hookGeo})();`,xmlDoc.documentElement.insertBefore(scriptElem,xmlDoc.documentElement.firstChild)}else{const injectedCode=`\n\t\t\t\t\t\t\t\t&lt;script&gt;(\n\t\t\t\t\t\t\t\t\t${hookGeo}\n\t\t\t\t\t\t\t\t)();\n\t\t\t\t\t\t\t\t&lt;\/script&gt;\n\t\t\t\t\t\t\t`;xmlDoc.documentElement.insertAdjacentHTML(&quot;afterbegin&quot;,injectedCode)}!0===mimeType.useXMLparser?args[0]=[(new XMLSerializer).serializeToString(xmlDoc)]:args[0][0]=xmlDoc.documentElement.outerHTML}}}return((constructor,args)=&gt;{const bind=Function.bind;return new(bind.bind(bind)(constructor,null).apply(null,args))})(_Blob,args)}let propNames=Object.getOwnPropertyNames(_Blob);for(let i=0;i&lt;propNames.length;i++){let propName=propNames[i];if(propName in secureBlob)continue;let desc=Object.getOwnPropertyDescriptor(_Blob,propName);Object.defineProperty(secureBlob,propName,desc)}return secureBlob.prototype=_Blob.prototype,secureBlob}(Blob),&quot;undefined&quot;!=typeof chrome?setInterval((()=&gt;{chrome.runtime.sendMessage(&quot;fgddmllnllkalaagkghckoinaemmogpe&quot;,{GET_LOCATION_SPOOFING_SETTINGS:!0},(response=&gt;{updateHookedObj(response)}))}),500):void 0!==eventName&amp;&amp;document.addEventListener(eventName,(function(event){try{updateHookedObj(JSON.parse(event.detail))}catch(ex){}}))})();</script>
  <path
     d="m 388.35626,0.6061146 c -2.802,0.608 -12.878,4.185 -20,7.099 -7.874,3.2230004 -18.249,9.2850004 -27.318,15.9620004 -4.025,2.963 -8.075,5.653 -9,5.977 -0.925,0.324 -2.915,1.728 -4.422,3.12 -1.506,1.391 -3.081,2.188 -3.5,1.769 -0.418,-0.419 -0.6,-6.124 -0.405,-12.677 l 0.356,-11.9160004 h -3.083 c -6.174,0 -24.93,8.3520004 -33.821,15.0600004 l -5.193,3.919 1.532,-5.158 c 0.842,-2.836 1.941,-6.236 2.443,-7.554 1.024,-2.693 1.224,-7.2670004 0.318,-7.2670004 -0.325,0 -5.613,1.5820004 -11.75,3.5150004 -10.844,3.417 -40.161,16.821 -43.604,19.937 -0.941,0.851 -2.253,1.548 -2.916,1.548 -2.279,0 -14.662,-13.505 -17.648,-19.248 -4.236,-8.1460004 -5.722,-7.8160004 -14.63,3.248 -3.912,4.859 -8.859,14.021 -8.859,16.408 0,3.642 -2.344,1.957 -9.29,-6.678 -9.394,-11.681 -10.211,-12.389 -12.288,-10.665 -4.783,3.969 -12.422,26.985 -12.422,37.425 0,1.866 -0.44,3.664 -0.977,3.996 -0.537,0.332 -4.793,-3.06 -9.456,-7.537 l -8.48,-8.141 -2.011,3.308 c -2.733,4.494 -5.124,15.467 -5.806,26.654 -0.541,8.852 -0.661,9.241 -2.668,8.609 -1.156,-0.364 -3.667,-1.948 -5.58,-3.52 -4.135,-3.399 -5.658,-3.58 -6.548,-0.777 -0.871,2.744 0.336,15.18 2.055,21.168 0.75,2.611995 1.192,4.749995 0.982,4.749995 -0.209,0 -1.531,-0.437 -2.937,-0.972 -3.434,-1.306 -4.977,-0.552 -7.157,3.497 -1.737,3.224 -1.934,3.317 -3.677,1.74 -1.728003,-1.564 -2.123003,-1.515 -6.375003,0.784 -2.493,1.348 -6.271,4.328 -8.397,6.622 l -3.864,4.172 -1.247,-7.422 c -0.686,-4.081 -1.599,-7.421 -2.029,-7.421 -1.443,0 -3.688,4.45 -5.436,10.776 -0.954,3.452 -2.22,6.116 -2.813,5.919 -0.658,-0.218 -1.19,-4.526 -1.363,-11.026 -0.156,-5.868 -0.678,-10.668995 -1.161,-10.668995 -1.701,0 -6.028,6.155995 -7.766,11.047995 -1.956,5.507 -3.267,6.374 -3.331,2.202 -0.065,-4.215 -2.403,-13.334995 -3.45,-13.456995 -1.949,-0.227 -4.807,5.262995 -5.275,10.132995 -0.268,2.79 -0.835,5.074 -1.26,5.074 -0.425,0 -1.519,-3.488 -2.432,-7.75 -2.418,-11.291995 -2.347,-11.183995 -4.794,-7.318995 -1.351,2.132995 -2.301,5.582995 -2.573,9.339995 l -0.431,5.957 -5.121,2.233 c -2.817,1.228 -6.133,2.639 -7.368,3.136 -3.013,1.211 -14.5159997,9.899 -19.9899997,15.098 -3.19099997,3.03 -4.32699997,4.835 -4.08999997,6.5 0.399,2.809 1.05399997,2.746 11.57599967,-1.116 8.249,-3.027 10.596,-2.846 5.595,0.431 -3.5,2.293 -10.3169997,9.67 -10.3329997,11.181 -0.022,2.117 1.858,2.428 4.9649997,0.821 9.315,-4.817 34.724,-3.874 51.992,1.93 14.135,4.751 25.221,7.2 41.031003,9.064 16.217,1.913 22.907,3.665 25.633,6.713 1.122,1.254 3.06,5.206 4.306,8.781 3.333,9.563 6.38,14.27 12.918,19.957 9.132,7.943 10.765,11.89 11.524,27.86 0.831,17.465 -1.239,30.417 -5.271,32.978 -2.704,1.718 -4.068,3.19 -4.095,4.416 -0.06,2.813 23.177,3.714 24.876,0.965 0.444,-0.718 1.355,-5.214 2.024,-9.991 0.67,-4.777 1.356,-9.585 1.524,-10.685 0.168,-1.1 1.732,-6.842 3.476,-12.76 2.56,-8.687 4.441,-20.553 5.051,-31.864 0.019,-0.343 7.796,-0.86 17.284,-1.149 18.452,-0.562 27.282,-1.954 42.834,-6.753 5.301,-1.636 9.909,-2.974 10.242,-2.974 1.094,0 2.554,3.59 4.667,11.474 1.146,4.275 3.855,11.205 6.02,15.4 5.255,10.182 9.312,25.901 8.42,32.626 -0.887,6.681 -2.339,9.21 -6.473,11.273 -2.218,1.107 -3.46,2.445 -3.46,3.727 0,1.707 0.88,2.094 6,2.641 3.3,0.353 10.355,0.691 15.679,0.75 11.469,0.129 13.319,-0.885 12.367,-6.777 -1.075,-6.656 -2.44,-61.653 -1.617,-65.156 1.811,-7.708 7.471,-22.216 12.32,-31.577 2.352,-4.539 3.16,-5.247 7.144,-6.25 2.471,-0.622 5.373,-1.131 6.448,-1.131 1.076,0 4.414,-1.293 7.418,-2.873 13.628,-7.169 27.496,-9.556 55.241,-9.508 23.214,0.04 35.744,1.26 51.5,5.016 13.218,3.15 19.551,5.448 29,10.521 16.555,8.889 39.801,31.047 49.979,47.639 3.568,5.817 5.354,6.238 5.834,1.378 0.173,-1.745 0.398,-3.168 0.5,-3.162 0.103,0.006 2.396,0.681 5.096,1.5 5.239,1.589 18.24,1.998 20.379,0.641 0.831,-0.527 -0.705,-1.263 -4.337,-2.076 -9.649,-2.159 -24.331,-10.81 -24.429,-14.393 -0.012,-0.45 0.766,-0.574 1.728,-0.276 0.962,0.299 6.977,1.024 13.365,1.611 13.613,1.253 23.133,0.178 26.278,-2.967 2.809,-2.808 1.423,-3.539 -3.888,-2.052 -6.983,1.955 -19.987,-0.419 -33.112,-6.045 l -4.502,-1.93 6.099,-6.175 c 3.354,-3.396 5.878,-6.749 5.609,-7.451 -0.269,-0.703 -2.712,-2.066 -5.428,-3.031 l -4.938,-1.754 3.875,-2.806 c 2.131,-1.544 4.273,-2.807 4.761,-2.807 0.487,0 1.453,-0.683 2.147,-1.519 1.027,-1.237 0.96,-1.85 -0.358,-3.306 -2.007,-2.218 -11.546,-6.667 -17.979,-8.387 l -4.821,-1.288 7.571,-8.828 c 4.164,-4.855 7.571,-9.232 7.571,-9.727 0,-3.143 -11.108,-5.945 -23.572,-5.945 h -8.474 l 1.753,-2.75 c 4.714,-7.393 12.381,-17.061995 15.34,-19.342995 5.9,-4.551 2.094,-7.674 -13.317,-10.927 -9.477,-2.001 -22.02,-2.434 -31.48,-1.086 l -5.25,0.747 0.007,-5.07 c 0.014,-10.226 2.612,-22.974 6.247,-30.652 4.706,-9.942 4.088,-10.683 -7.406,-8.895 -4.571,0.711 -12.819,2.811 -18.329,4.667 -5.511,1.857 -10.807,3.638 -11.769,3.959 -1.342,0.447 -1.75,0.025 -1.75,-1.81 0,-4.137 2.016,-19.222 2.937,-21.98 1.778,-5.321 -2.731,-6.175 -14.855,-2.816 -7.299,2.023 -12.48,4.563 -20.943,10.266 l -4.361,2.939 0.709,-5.375 c 0.39,-2.956 1.565,-9.104 2.611,-13.663 1.046,-4.5590004 1.902,-9.6210004 1.902,-11.2500004 0,-3.069 -1.117,-3.463 -6.5,-2.295"
     stroke="none"
     fill="#513b29"
     fill-rule="evenodd"
     id="path1"
     style="fill:#ffffff;fill-opacity:1" />
</svg>
