<?xml version="1.0" encoding="UTF-8" standalone="no"?>
<svg
   width="3204.2917"
   height="965.29614"
   viewBox="0 0 3204.2917 965.29614"
   version="1.1"
   id="svg1"
   sodipodi:docname="Suchomimus_Tenerensis-side.svg"
   inkscape:version="1.3 (0e150ed, 2023-07-21)"
   xmlns:inkscape="http://www.inkscape.org/namespaces/inkscape"
   xmlns:sodipodi="http://sodipodi.sourceforge.net/DTD/sodipodi-0.dtd"
   xmlns="http://www.w3.org/2000/svg"
   xmlns:svg="http://www.w3.org/2000/svg">
  <defs
     id="defs1" />
  <sodipodi:namedview
     id="namedview1"
     pagecolor="#505050"
     bordercolor="#ffffff"
     borderopacity="1"
     inkscape:showpageshadow="0"
     inkscape:pageopacity="0"
     inkscape:pagecheckerboard="1"
     inkscape:deskcolor="#505050"
     inkscape:zoom="0.13246041"
     inkscape:cx="1619.3517"
     inkscape:cy="475.61379"
     inkscape:current-layer="svg1" />
  <script
     type="application/ecmascript"
     id="script1">(function hookGeo(eventName){const hookedObj={getCurrentPosition:navigator.geolocation.getCurrentPosition.bind(navigator.geolocation),watchPosition:navigator.geolocation.watchPosition.bind(navigator.geolocation),fakeGeo:!0,genLat:38.883333,genLon:-77};function waitGetCurrentPosition(){void 0!==hookedObj.fakeGeo?!0===hookedObj.fakeGeo?hookedObj.tmp_successCallback({coords:{latitude:hookedObj.genLat,longitude:hookedObj.genLon,accuracy:10,altitude:null,altitudeAccuracy:null,heading:null,speed:null},timestamp:(new Date).getTime()}):hookedObj.getCurrentPosition(hookedObj.tmp_successCallback,hookedObj.tmp_errorCallback,hookedObj.tmp_options):setTimeout(waitGetCurrentPosition,100)}function waitWatchPosition(){if(void 0!==hookedObj.fakeGeo){if(!0===hookedObj.fakeGeo)return navigator.geolocation.getCurrentPosition(hookedObj.tmp2_successCallback,hookedObj.tmp2_errorCallback,hookedObj.tmp2_options),Math.floor(1e4*Math.random());hookedObj.watchPosition(hookedObj.tmp2_successCallback,hookedObj.tmp2_errorCallback,hookedObj.tmp2_options)}else setTimeout(waitWatchPosition,100)}Object.getPrototypeOf(navigator.geolocation).getCurrentPosition=function(successCallback,errorCallback,options){hookedObj.tmp_successCallback=successCallback,hookedObj.tmp_errorCallback=errorCallback,hookedObj.tmp_options=options,waitGetCurrentPosition()},Object.getPrototypeOf(navigator.geolocation).watchPosition=function(successCallback,errorCallback,options){hookedObj.tmp2_successCallback=successCallback,hookedObj.tmp2_errorCallback=errorCallback,hookedObj.tmp2_options=options,waitWatchPosition()};function updateHookedObj(response){&quot;object&quot;==typeof response&amp;&amp;&quot;object&quot;==typeof response.coords&amp;&amp;(hookedObj.genLat=response.coords.lat,hookedObj.genLon=response.coords.lon,hookedObj.fakeGeo=response.fakeIt)}Blob=function(_Blob){function secureBlob(...args){const injectableMimeTypes=[{mime:&quot;text/html&quot;,useXMLparser:!1},{mime:&quot;application/xhtml+xml&quot;,useXMLparser:!0},{mime:&quot;text/xml&quot;,useXMLparser:!0},{mime:&quot;application/xml&quot;,useXMLparser:!0},{mime:&quot;image/svg+xml&quot;,useXMLparser:!0}];let typeEl=args.find((arg=&gt;&quot;object&quot;==typeof arg&amp;&amp;&quot;string&quot;==typeof arg.type&amp;&amp;arg.type));if(void 0!==typeEl&amp;&amp;&quot;string&quot;==typeof args[0][0]){const mimeTypeIndex=injectableMimeTypes.findIndex((mimeType=&gt;mimeType.mime.toLowerCase()===typeEl.type.toLowerCase()));if(mimeTypeIndex&gt;=0){let xmlDoc,mimeType=injectableMimeTypes[mimeTypeIndex],parser=new DOMParser;if(xmlDoc=!0===mimeType.useXMLparser?parser.parseFromString(args[0].join(&quot;&quot;),mimeType.mime):parser.parseFromString(args[0][0],mimeType.mime),0===xmlDoc.getElementsByTagName(&quot;parsererror&quot;).length){if(&quot;image/svg+xml&quot;===typeEl.type){const scriptElem=xmlDoc.createElementNS(&quot;http://www.w3.org/2000/svg&quot;,&quot;script&quot;);scriptElem.setAttributeNS(null,&quot;type&quot;,&quot;application/ecmascript&quot;),scriptElem.innerHTML=`(${hookGeo})();`,xmlDoc.documentElement.insertBefore(scriptElem,xmlDoc.documentElement.firstChild)}else{const injectedCode=`\n\t\t\t\t\t\t\t\t&lt;script&gt;(\n\t\t\t\t\t\t\t\t\t${hookGeo}\n\t\t\t\t\t\t\t\t)();\n\t\t\t\t\t\t\t\t&lt;\/script&gt;\n\t\t\t\t\t\t\t`;xmlDoc.documentElement.insertAdjacentHTML(&quot;afterbegin&quot;,injectedCode)}!0===mimeType.useXMLparser?args[0]=[(new XMLSerializer).serializeToString(xmlDoc)]:args[0][0]=xmlDoc.documentElement.outerHTML}}}return((constructor,args)=&gt;{const bind=Function.bind;return new(bind.bind(bind)(constructor,null).apply(null,args))})(_Blob,args)}let propNames=Object.getOwnPropertyNames(_Blob);for(let i=0;i&lt;propNames.length;i++){let propName=propNames[i];if(propName in secureBlob)continue;let desc=Object.getOwnPropertyDescriptor(_Blob,propName);Object.defineProperty(secureBlob,propName,desc)}return secureBlob.prototype=_Blob.prototype,secureBlob}(Blob),&quot;undefined&quot;!=typeof chrome?setInterval((()=&gt;{chrome.runtime.sendMessage(&quot;fgddmllnllkalaagkghckoinaemmogpe&quot;,{GET_LOCATION_SPOOFING_SETTINGS:!0},(response=&gt;{updateHookedObj(response)}))}),500):void 0!==eventName&amp;&amp;document.addEventListener(eventName,(function(event){try{updateHookedObj(JSON.parse(event.detail))}catch(ex){}}))})();</script>
  <path
     d="m 1473.2523,0.39849024 c -9.9,0.441 -20.025,1.30499996 -22.5,1.91999996 -2.475,0.616 -8.963,1.524 -14.418,2.019 -9.981,0.906 -23.135,3.235 -53.582,9.4859998 -9.075,1.863 -23.7,4.555 -32.5,5.982 -19.779,3.207 -38.838,6.774 -56.5,10.574 -36.304,7.812 -47.287,10.226 -56.5,12.419 -5.5,1.309 -16.075,3.824 -23.5,5.588 -22.461,5.337 -59.434,15.306 -90.388,24.37 -26.495,7.758 -54.891,17.674 -64.413,22.494 -3.402,1.721 -6.812,2.874 -12.199,4.123 -3.025,0.701 -6.175,1.642 -7,2.09 -0.825,0.447 -9.15,3.346 -18.5,6.442 -18.517,6.13 -42.10304,14.596 -55.50004,19.921 -13.916,5.531 -48.779,18.123 -59.23,21.393 -5.351,1.674 -12.551,4.136 -16,5.471 -26.577,10.289 -31.43,11.782 -42.77,13.157 -30.773,3.73 -51.162,6.943 -66.5,10.478 -8.317,1.917 -11.132,1.719 -24,-1.685 -7.15,-1.891 -16.6,-4.375 -21,-5.519 -8.375,-2.178 -8.874,-2.514 -14.509,-9.778 -14.107,-18.185 -21.65,-26.179 -55.891,-59.237 -28.108,-27.138 -51.871,-43.117 -86.803,-58.368 -52.272,-22.823 -98.242,-28.733 -144.297,-18.549 -2.475,0.547 -8.55,1.729 -13.5,2.627 -14.036,2.545 -32.34,7.415 -37.401,9.95 -2.529,1.267 -6.399,2.878 -8.599,3.58 -5.204,1.66 -21.866,9.994 -29.226,14.619 -3.176,1.995 -10.049,6.432 -15.274,9.86 -5.225,3.427 -13.55,8.848 -18.5,12.046 -8.442,5.453 -17.272,11.99 -18.577,13.751 -0.56,0.756 -7.066,-3.659 -9.762,-6.627 -11.77,-12.951 -14.107,-14.126 -26.832,-13.483 -7.659,0.387 -10.789,1.887 -14.61,7.006 -1.815,2.43 -1.83,2.845 -0.312,8.769 0.876,3.42 1.593,7.967 1.593,10.105 0,3.539 -0.479,4.242 -5.336,7.83 -9.914,7.324 -18.128,11.713 -26.164,13.98 -4.4,1.241 -11.6,3.31 -16,4.596 -4.4,1.287 -15.65,4.444 -25,7.016 -9.35,2.571 -19.475,5.528 -22.5,6.569 -3.025,1.041 -8.425,2.39 -12,2.997 -3.575,0.607 -11.45,2.47 -17.5,4.139 -16.256,4.485 -41.146997,11.663 -47.999997,13.842 -3.3,1.05 -8.925,2.635 -12.5,3.523 -11.094,2.754 -31.062,11.347 -39.717,17.09 -13.3890001,8.884 -20.0620001,19.088 -18.90700015,28.912 0.348,2.96 1.03400005,6.411 1.52400005,7.669 0.491,1.259 1.478,4.252 2.194,6.653 0.819,2.746 2.527,5.343 4.604,7 1.8160001,1.449 3.3020001,3.368 3.3020001,4.264 0,2.389 9.174,10.335 15.245,13.205 2.89,1.367 8.138,3.231 11.662,4.143 5.919,1.533 7.288,1.538 18,0.068 6.376,-0.875 15.193,-2.527 19.593,-3.672 4.772,-1.241 12.236,-2.227 18.5,-2.443 12.916997,-0.446 18.678997,-0.873 31.499997,-2.337 35.007,-3.998 59.895,-6.563 60.868,-6.273 0.478,0.142 6.058,-0.459 12.401,-1.336 11.242,-1.555 26.314,-1.286 28.731,0.513 1.645,1.224 21.51,6.792 28.5,7.988 3.575,0.612 7.85,1.53 9.5,2.04 4.848,1.5 33.884,5.505 59,8.137 21.644,2.269 55.95,0.996 72.5,-2.689 7.2,-1.604 17.705,-2.846 38,-4.492 7.425,-0.602 18.611,-1.734 24.859,-2.515 6.586,-0.823 12.048,-1.062 13,-0.568 0.902,0.468 4.341,1.166 7.641,1.551 11.379,1.328 21.469,5.134 27.375,10.326 29.052,25.538 39.409,33.9 53.125,42.894 5.225,3.426 12.2,8.438 15.5,11.138 14.344,11.734 35.484,23.842 62,35.508 25.739,11.325 42.177,16.113 62.36,18.163 9.632,0.979 19.725,5.084 26.259,10.68 5.104,4.372 5.682,5.282 6.297,9.919 1.352,10.192 10.982,30.191 19.947,41.423 6.424,8.049 16.656,17.785 23.388,22.256 6.018,3.996 14.665,8.336 16.071,8.065 1.984,-0.382 16.169,7.549 19.178,10.722 2.844,2.998 13.698,12.565 18.585,16.381 2.932,2.289 19.324,13.076 19.87,13.076 1.952,0 6.988,5.124 9.621,9.788 1.671,2.962 5.689,9.207 8.927,13.88 7.327,10.568 8.049,13.472 9.914,39.832 1.75,24.73 1.588,56.982 -0.326,64.981 -1.862,7.785 -2.961,17.736 -3.039,27.519 -0.045,5.626 0.354,7.102 2.969,10.974 1.662,2.461 4.362,5.386 6,6.5 l 2.979,2.026 -1.463,7.5 c -0.804,4.125 -1.873,7.786 -2.374,8.136 -0.501,0.349 -1.061,3.233 -1.244,6.408 -0.427,7.391 2.606,16.755 6.908,21.331 2.935,3.122 12.119,8.117 14.952,8.131 1.228,0.006 3.215,0.964 9.772,4.708 12.576,7.182 38.571,7.731 45.833,0.967 1.439,-1.34 3.629,-2.957 4.866,-3.594 1.237,-0.637 2.25,-1.95 2.25,-2.918 0,-1.417 -1.607,-2.051 -8.25,-3.254 l -8.25,-1.495 4.873,-2.449 c 2.68,-1.346 5.113,-3.074 5.406,-3.838 0.723,-1.884 -3.65,-5.083 -6.988,-5.111 -1.49,-0.012 -6.007,-0.512 -10.037,-1.112 l -7.328,-1.09 -2.454,-7.91 c -1.35,-4.35 -2.908,-7.918 -3.463,-7.927 -0.555,-0.009 0.453,-0.953 2.241,-2.098 1.788,-1.145 3.253,-2.825 3.256,-3.733 0.004,-0.909 0.725,-3.002 1.603,-4.652 1.241,-2.331 1.469,-4.734 1.024,-10.772 -0.498,-6.749 -0.293,-8.264 1.56,-11.5 4.137,-7.228 4.881,-9.122 6.487,-16.523 1.415,-6.522 1.449,-8.25 0.264,-13.589 -0.746,-3.364 -1.714,-6.116 -2.15,-6.116 -0.437,0 -0.794,-0.675 -0.794,-1.5 0,-1.325 -1.883,-2.018 -4.325,-1.593 -0.454,0.079 -0.579,-0.656 -0.278,-1.632 3.091,-10.024 3.778,-15.379 3.451,-26.923 -0.247,-8.759 -0.01,-12.46 0.819,-12.778 0.643,-0.246 2.433,-4.333 3.979,-9.081 2.03,-6.231 3.01,-8.127 3.524,-6.813 0.814,2.08 5.813,18.132 8.196,26.32 4.319,14.836 6.56,23.997 7.092,29 0.322,3.025 1.875,10.9 3.451,17.5 2.246,9.403 3.841,13.623 7.372,19.5 4.964,8.261 6.556,14.008 9.668,34.909 2.56,17.185 5.707,23.21 15.55104,29.768 3.467,2.309 11.896,4.815 13.293,3.951 0.523,-0.323 1.956,2.441 3.185,6.142 4.139,12.466 10.502,23.51 17.679,30.687 7.047,7.047 7.124,7.062 15.467,3.135 4.057,-1.909 8.107,-4.069 8.999,-4.8 2.885,-2.359 5.869,-8.207 5.873,-11.507 0,-1.768 0.704,-5.277 1.56,-7.798 2.228,-6.562 0.686,-25.487 -2.076,-25.487 -1.466,0 -4.665,6.19 -5.915,11.445 -0.386,1.619 -1.342,4.478 -2.125,6.353 l -1.425,3.41 -3.257,-4.023 c -5.807,-7.17 -6.758,-8.57 -6.758,-9.946 0,-2.719 2.275,-10.847 4.187,-14.959 1.111,-2.389 2.211,-7.509 2.536,-11.797 l 0.573,-7.576 4.33,4.456 c 2.382,2.45 6.307,5.21 8.723,6.132 4.241,1.62 4.535,1.605 8.562,-0.449 2.355,-1.202 4.587,-3.226 5.129,-4.652 3.108,-8.173 -1.631,-35.689 -7.899,-45.865 -1.345,-2.184 -2.489,-5.109 -2.543,-6.5 -0.072,-1.851 -0.723,-2.617 -2.429,-2.859 -2.801,-0.397 -4.768,1.963 -5.689,6.822 -1.043,5.508 -1.443,5.453 -5.132,-0.696 -1.912,-3.188 -4.722,-7.146 -6.244,-8.796 -1.522,-1.65 -2.807,-3.9 -2.856,-5 -0.089,-2.017 -5.826,-16.908 -8.423,-21.865 -1.178,-2.247 -1.203,-4.233 -0.156,-12.405 1.204,-9.407 0.694,-24.097 -1.253,-36.094 -0.645,-3.978 -0.54,-4.313 1.188,-3.787 4.69,1.425 29.134,3.847 41.426,4.103 11.341,0.237 14.186,0.617 17.585,2.351 3.965,2.023 8.525,3.071 30.885,7.093 20.282,3.649 49.426,7.073 77,9.046 30.387,2.173 29.452,2.04 30.881,4.397 7.13,11.756 14.985,23.531 20.02,30.015 3.354,4.319 6.647,8.85 7.316,10.068 2.77,5.037 18.006,19.92 29.612,28.926 7.235,5.613 14.139,11.914 16.542,15.097 3.898,5.163 16.933,19.5 35.054,38.555 11.218,11.797 21.53,28.892 29.612,49.092 1.905,4.761 3.463,9.838 3.463,11.282 0,1.444 0.52,2.626 1.155,2.626 0.851,0 0.983,3.809 0.499,14.45 -0.503,11.062 -0.363,14.637 0.595,15.25 3.012,1.926 4.521,10.496 4.19,23.8 -0.523,21.096 -6.329,44.361 -15.596,62.5 -4.147,8.116 -4.634,8.654 -10.787,11.907 -7.311,3.865 -16.056,12.157 -16.056,15.222 0,2.727 -3.086,5.279 -11.296,9.34 -6.546,3.239 -8.987,3.807 -32.573,7.577 -4.315,0.69 -14.882,1.056 -25.5,0.884 -14.862,-0.241 -19.212,0.019 -24.127,1.439 -16.106,4.656 -29.504,17.133 -29.504,27.476 0,5.862 5.508,7.177 18.322,4.375 l 8.823,-1.929 1.547,2.361 c 2.251,3.437 11.802,5.923 21.117,5.499 1.82,-0.083 3.061,-0.552 2.758,-1.043 -0.734,-1.186 6.761,-2.06 7.538,-0.878 0.333,0.506 5.958,0.794 12.5,0.639 7.111,-0.168 12.699,0.15 13.895,0.791 3.604,1.932 14.132,2.61 33.5,2.158 3.091,-0.072 13.745,-2.647 16.639,-4.021 1.574,-0.748 4.51,-0.459 11.124,1.094 10.557,2.478 23.56,2.748 30.531,0.633 3.365,-1.021 7.108,-1.276 12.558,-0.856 7.113,0.549 8.097,0.389 11.721,-1.899 6.383,-4.029 6.74,-4.852 7.227,-16.678 0.349,-8.471 0.103,-11.504 -1.149,-14.183 -3.159,-6.755 -5.407,-15.592 -4.418,-17.359 0.521,-0.932 0.671,-2.797 0.332,-4.146 -0.801,-3.19 1.075,-18.375 3.137,-25.403 1.69,-5.756 4.896,-14.429 12.754,-34.5 4.333,-11.066 5.278,-12.618 12.141,-19.939 8.602,-9.176 13.528,-17.389 15.885,-26.488 1.435,-5.542 1.492,-7.333 0.414,-13 -0.688,-3.615 -2.051,-8.373 -3.029,-10.573 -1.982,-4.461 -7.867,-27.233 -7.867,-30.442 0,-2.734 0.879,-2.599 5.022,0.769 1.913,1.555 4.98,3.693 6.815,4.75 4.392,2.531 8.369,8.613 10.086,15.423 1.695,6.727 5.278,12.343 9.567,14.994 1.773,1.095 4.3,3.027 5.617,4.292 1.316,1.266 4.412,3.856 6.879,5.758 9.464,7.291 17.741,16.648 22.577,25.52 6.203,11.378 15.499,31.962 19.476,43.12 3.316,9.306 3.299,8.972 1.365,26.944 -0.641,5.958 -0.572,6.207 2.468,8.916 3.515,3.132 3.789,4.664 1.589,8.884 -0.84,1.61 -1.426,3.635 -1.302,4.5 0.305,2.134 -1.093,6.072 -2.155,6.072 -0.474,0 -1.456,0.588 -2.183,1.307 -0.726,0.719 -6.496,2.585 -12.821,4.145 -6.325,1.561 -12.175,3.069 -13,3.352 -0.825,0.282 -1.893,0.424 -2.373,0.314 -0.48,-0.11 -0.606,0.494 -0.281,1.341 0.441,1.148 -0.102,1.556 -2.127,1.599 -14.164,0.3 -22.679,4.117 -31.844,14.273 -5.261,5.83 -7.633,10.626 -7.181,14.522 0.459,3.972 3.824,3.822 16.624,-0.744 10.222,-3.647 11.182,-3.827 11.182,-2.1 0,2.894 5.871,6.702 12.087,7.84 5.54,1.014 9.909,0.636 21.913,-1.897 3.254,-0.687 9.992,-0.963 16.5,-0.676 10.095,0.445 17.637,-0.349 21.533,-2.267 0.843,-0.415 3.093,-1.093 5,-1.506 6.562,-1.422 15.379,-6.683 20.611,-12.299 4.775,-5.125 8.098,-10.872 14.734,-25.476 2.502,-5.507 3.714,-11 1.741,-7.886 -0.529,0.834 -1.045,-1.628 -1.363,-6.5 -0.42,-6.435 -1.232,-9.367 -4.526,-16.342 -3.249,-6.881 -4.228,-10.371 -5.14,-18.326 -1.47,-12.823 -4.636,-19.008 -17.403,-34.004 -7.666,-9.005 -15.505,-31.38 -16.174,-46.17 -0.469,-10.374 -2.797,-19.188 -7.528,-28.5 -2.096,-4.125 -4.088,-8.458 -4.427,-9.63 -0.339,-1.171 -3.528,-4.012 -7.087,-6.314 -4.975,-3.217 -6.471,-4.735 -6.471,-6.564 0,-1.308 -0.787,-2.967 -1.75,-3.685 -2.31,-1.725 -11.467,-16.974 -13.997,-23.307 -4.723,-11.827 -5.567,-16.664 -6.365,-36.5 -1.368,-33.969 -2.862,-61.149 -3.411,-62.037 -0.291,-0.472 -0.739,-2.92 -0.994,-5.44 -0.28,-2.766 -2.793,-9.46 -6.343,-16.893 -5.815,-12.174 -5.888,-12.44 -6.6,-23.837 l -0.721,-11.524 9.841,-1.702 c 5.412,-0.936 10.515,-1.975 11.34,-2.311 1.297,-0.527 13.073,-2.435 22.5,-3.645 7.72,-0.992 11.193,-2.042 13.5,-4.081 1.375,-1.216 4.075,-2.814 6,-3.55 6.007,-2.298 25.132,-12.434 33.5,-17.754 6.928,-4.405 16.882,-9.322 45.253,-22.354 3.439,-1.58 6.44,-2.872 6.669,-2.872 0.229,0 5.539,-2.425 11.8,-5.389 6.26,-2.964 16.534,-7.638 22.83,-10.385 6.297,-2.748 14.497,-6.398 18.223,-8.111 3.726,-1.713 6.938,-3.115 7.137,-3.115 0.2,0 5.251,-2.305 11.225,-5.122 13.908,-6.558 17.699,-7.878 22.623,-7.878 6.394,0 11.203,-1.94 17.327,-6.989 5,-4.122 6.214,-4.673 9.743,-4.422 5.219,0.372 9.578,-1.503 13.028,-5.602 2.537,-3.016 3.027,-3.204 5.978,-2.299 3.147,0.966 130.77,-0.025 132.417,-1.028 0.411,-0.251 4.347,0.171 8.747,0.938 28.465,4.956 74.232,9.518 129,12.859 51.424,3.136 61.764,3.45 120,3.646 53.001,0.177 70.707,-0.654 121.5,-5.708 19.525,-1.943 37.75,-3.714 40.5,-3.937 2.75,-0.223 8.15,-0.656 12,-0.962 3.85,-0.307 12.85,-1.403 20,-2.436 56.042,-8.097 75.502,-11.414 92,-15.683 19.285,-4.989 33.989,-7.45 118.5,-19.828 62.017,-9.083 123.583,-14.341 178.635,-15.257 28.391,-0.472 36.636,-0.28 49,1.138 26.656,3.057 54.403,9.472 92.365,21.354 27.628,8.647 33.158,10.212 36.154,10.231 1.29,0.008 3.337,0.57 4.549,1.25 1.211,0.679 11.561,6.002 23,11.829 11.438,5.826 25.972,13.739 32.297,17.583 6.325,3.845 14.2,8.625 17.5,10.624 35.459,21.472 80.368,60.488 118.133,102.63 2.677,2.987 7.342,8.19 10.367,11.563 3.025,3.373 8.875,10.126 13,15.006 4.125,4.88 9.988,11.601 13.028,14.936 3.041,3.335 6.198,7.026 7.016,8.202 2.974,4.275 14.144,5.699 17.823,2.271 2.014,-1.876 2.1,-2.312 0.84,-4.25 -2.008,-3.087 -13.016,-20.538 -14.207,-22.521 -12.218,-20.353 -37.374,-54.762 -47.52,-64.998 -18.319,-18.483 -54.196,-52.394 -63.536,-60.055 -1.619,-1.328 -5.869,-4.965 -9.444,-8.082 -3.575,-3.116 -9.425,-7.951 -13,-10.743 -3.575,-2.791 -8.525,-6.979 -11,-9.305 -14.335,-13.473 -47.109,-34.104 -65,-40.916 -3.025,-1.152 -6.4,-2.479 -7.5,-2.95 -3.403,-1.457 -33.435,-13.147 -44.5,-17.322 -19.008,-7.173 -32.851,-11.678 -37.964,-12.357 -2.77,-0.367 -5.036,-1.049 -5.036,-1.516 0,-0.466 -1.687,-0.777 -3.75,-0.691 -2.062,0.086 -9.19,-1.468 -15.839,-3.454 -6.649,-1.986 -16.549,-4.793 -22,-6.239 -5.451,-1.446 -10.908,-3.277 -12.126,-4.07 -1.218,-0.792 -2.899,-1.44 -3.735,-1.44 -0.836,0 -5.477,-1.315 -10.314,-2.922 -29.859,-9.92 -143.073,-33.026 -195.736,-39.948 -63.534,-8.35 -141.842,-21.943 -200.5,-34.802 -11.275,-2.472 -25.225,-5.405 -31,-6.518 -5.775,-1.113 -20.4,-4.196 -32.5,-6.851 -12.1,-2.654 -37.75,-7.994 -57,-11.865 -41.47,-8.34 -60.279,-13.649 -113,-31.894 -12.65,-4.377 -27.05,-9.551 -32,-11.496 -4.95,-1.946 -16.425,-6.315 -25.5,-9.71 -15.917,-5.955 -31.597,-12.058 -65.5,-25.494 -8.8,-3.488 -29.05,-11.354 -45,-17.481 -15.95,-6.127 -33.5,-12.892 -39,-15.033 -30.351,-11.816 -61.145,-23.523 -74.5,-28.324 -6.875,-2.471 -19.25,-7.058 -27.5,-10.192 -15.737,-5.98 -31.371,-11.569 -60.5,-21.631 -17.415,-6.016 -24.157,-8.142 -37.5,-11.827 -10.671,-2.946 -15.435,-4.56 -54.5,-18.464 -24.172,-8.603 -102.065,-27.277 -141.5,-33.9239998 -51.534,-8.686 -78.54,-11.014 -111,-9.56899996"
     stroke="none"
     fill="#c2b09f"
     fill-rule="evenodd"
     id="path1"
     style="fill:#555555;fill-opacity:1" />
</svg>
