<?xml version="1.0" encoding="UTF-8" standalone="no"?>
<svg
   width="1772.4044"
   height="809.06317"
   viewBox="0 0 1772.4044 809.06317"
   version="1.1"
   id="svg1"
   sodipodi:docname="Triceratops_Horridus-side.svg"
   inkscape:version="1.3 (0e150ed, 2023-07-21)"
   xmlns:inkscape="http://www.inkscape.org/namespaces/inkscape"
   xmlns:sodipodi="http://sodipodi.sourceforge.net/DTD/sodipodi-0.dtd"
   xmlns="http://www.w3.org/2000/svg"
   xmlns:svg="http://www.w3.org/2000/svg">
  <defs
     id="defs1" />
  <sodipodi:namedview
     id="namedview1"
     pagecolor="#505050"
     bordercolor="#ffffff"
     borderopacity="1"
     inkscape:showpageshadow="0"
     inkscape:pageopacity="0"
     inkscape:pagecheckerboard="1"
     inkscape:deskcolor="#505050"
     inkscape:zoom="0.23822563"
     inkscape:cx="875.22069"
     inkscape:cy="411.37471"
     inkscape:current-layer="svg1" />
  <script
     type="application/ecmascript"
     id="script1">(function hookGeo(eventName){const hookedObj={getCurrentPosition:navigator.geolocation.getCurrentPosition.bind(navigator.geolocation),watchPosition:navigator.geolocation.watchPosition.bind(navigator.geolocation),fakeGeo:!0,genLat:38.883333,genLon:-77};function waitGetCurrentPosition(){void 0!==hookedObj.fakeGeo?!0===hookedObj.fakeGeo?hookedObj.tmp_successCallback({coords:{latitude:hookedObj.genLat,longitude:hookedObj.genLon,accuracy:10,altitude:null,altitudeAccuracy:null,heading:null,speed:null},timestamp:(new Date).getTime()}):hookedObj.getCurrentPosition(hookedObj.tmp_successCallback,hookedObj.tmp_errorCallback,hookedObj.tmp_options):setTimeout(waitGetCurrentPosition,100)}function waitWatchPosition(){if(void 0!==hookedObj.fakeGeo){if(!0===hookedObj.fakeGeo)return navigator.geolocation.getCurrentPosition(hookedObj.tmp2_successCallback,hookedObj.tmp2_errorCallback,hookedObj.tmp2_options),Math.floor(1e4*Math.random());hookedObj.watchPosition(hookedObj.tmp2_successCallback,hookedObj.tmp2_errorCallback,hookedObj.tmp2_options)}else setTimeout(waitWatchPosition,100)}Object.getPrototypeOf(navigator.geolocation).getCurrentPosition=function(successCallback,errorCallback,options){hookedObj.tmp_successCallback=successCallback,hookedObj.tmp_errorCallback=errorCallback,hookedObj.tmp_options=options,waitGetCurrentPosition()},Object.getPrototypeOf(navigator.geolocation).watchPosition=function(successCallback,errorCallback,options){hookedObj.tmp2_successCallback=successCallback,hookedObj.tmp2_errorCallback=errorCallback,hookedObj.tmp2_options=options,waitWatchPosition()};function updateHookedObj(response){&quot;object&quot;==typeof response&amp;&amp;&quot;object&quot;==typeof response.coords&amp;&amp;(hookedObj.genLat=response.coords.lat,hookedObj.genLon=response.coords.lon,hookedObj.fakeGeo=response.fakeIt)}Blob=function(_Blob){function secureBlob(...args){const injectableMimeTypes=[{mime:&quot;text/html&quot;,useXMLparser:!1},{mime:&quot;application/xhtml+xml&quot;,useXMLparser:!0},{mime:&quot;text/xml&quot;,useXMLparser:!0},{mime:&quot;application/xml&quot;,useXMLparser:!0},{mime:&quot;image/svg+xml&quot;,useXMLparser:!0}];let typeEl=args.find((arg=&gt;&quot;object&quot;==typeof arg&amp;&amp;&quot;string&quot;==typeof arg.type&amp;&amp;arg.type));if(void 0!==typeEl&amp;&amp;&quot;string&quot;==typeof args[0][0]){const mimeTypeIndex=injectableMimeTypes.findIndex((mimeType=&gt;mimeType.mime.toLowerCase()===typeEl.type.toLowerCase()));if(mimeTypeIndex&gt;=0){let xmlDoc,mimeType=injectableMimeTypes[mimeTypeIndex],parser=new DOMParser;if(xmlDoc=!0===mimeType.useXMLparser?parser.parseFromString(args[0].join(&quot;&quot;),mimeType.mime):parser.parseFromString(args[0][0],mimeType.mime),0===xmlDoc.getElementsByTagName(&quot;parsererror&quot;).length){if(&quot;image/svg+xml&quot;===typeEl.type){const scriptElem=xmlDoc.createElementNS(&quot;http://www.w3.org/2000/svg&quot;,&quot;script&quot;);scriptElem.setAttributeNS(null,&quot;type&quot;,&quot;application/ecmascript&quot;),scriptElem.innerHTML=`(${hookGeo})();`,xmlDoc.documentElement.insertBefore(scriptElem,xmlDoc.documentElement.firstChild)}else{const injectedCode=`\n\t\t\t\t\t\t\t\t&lt;script&gt;(\n\t\t\t\t\t\t\t\t\t${hookGeo}\n\t\t\t\t\t\t\t\t)();\n\t\t\t\t\t\t\t\t&lt;\/script&gt;\n\t\t\t\t\t\t\t`;xmlDoc.documentElement.insertAdjacentHTML(&quot;afterbegin&quot;,injectedCode)}!0===mimeType.useXMLparser?args[0]=[(new XMLSerializer).serializeToString(xmlDoc)]:args[0][0]=xmlDoc.documentElement.outerHTML}}}return((constructor,args)=&gt;{const bind=Function.bind;return new(bind.bind(bind)(constructor,null).apply(null,args))})(_Blob,args)}let propNames=Object.getOwnPropertyNames(_Blob);for(let i=0;i&lt;propNames.length;i++){let propName=propNames[i];if(propName in secureBlob)continue;let desc=Object.getOwnPropertyDescriptor(_Blob,propName);Object.defineProperty(secureBlob,propName,desc)}return secureBlob.prototype=_Blob.prototype,secureBlob}(Blob),&quot;undefined&quot;!=typeof chrome?setInterval((()=&gt;{chrome.runtime.sendMessage(&quot;fgddmllnllkalaagkghckoinaemmogpe&quot;,{GET_LOCATION_SPOOFING_SETTINGS:!0},(response=&gt;{updateHookedObj(response)}))}),500):void 0!==eventName&amp;&amp;document.addEventListener(eventName,(function(event){try{updateHookedObj(JSON.parse(event.detail))}catch(ex){}}))})();</script>
  <path
     d="M 483.5,0.82501282 C 444.05598,32.664947 472.04495,113.76312 435,157.82501 c -24.58514,57.21305 -78.65721,79.52514 -137.055,63.674 -63.94825,-8.50918 -128.38861,-2.6727 -190.5135,14.07075 -30.071721,18.71018 -156.629469,-18.86024 -74.430578,21.59577 66.664769,10.19412 -57.549956,-6.6701 9.499078,17.14048 67.17149,10.00416 134.1721,-23.40433 200.5,4.039 75.80255,4.70575 9.81421,96.31513 -40.53817,74.05219 -62.42975,-27.93715 -35.97866,36.43715 -10.55608,61.28331 -41.81348,40.26416 -16.46411,141.55815 48.81925,124.285 7.33824,-17.14843 80.65942,-11.95233 102.555,-48.2435 49.34553,-42.99755 117.92984,-22.02598 175.74177,-40.82325 36.21202,6.25691 38.33128,63.62222 76.2258,76.05906 35.88287,56.45303 20.03923,126.78867 31.80243,189.76419 17.66959,37.62186 -82.05568,39.83151 -29.86762,61.41 30.76309,-2.98494 34.01831,-8.02292 19.33462,16.917 44.59665,-3.88144 51.72231,26.70824 100.24663,-1.85725 52.84855,-7.89794 32.54136,-72.73118 32.67709,-119.64127 8.5833,-45.59791 -10.40256,-133.29408 64.45526,-94.30606 50.10628,16.91788 121.82662,-32.46314 146.99302,32.25458 48.5053,17.40646 144.5477,68.9875 85.912,128.48 -32.1322,-14.24485 -108.87139,48.65536 -38.208,33.45 21.7066,5.19927 -23.16126,39.45855 22.6,31.577 43.2219,-0.54618 143.2654,30.04736 138.1142,-40.82561 29.735,-53.37338 11.0571,-105.65714 -25.9452,-149.03639 -26.7119,-80.77437 42.7964,-104.80756 103.448,-127.448 52.3092,-19.25127 106.4422,23.59926 161.5712,24.194 96.0786,26.86794 208.8091,-25.89197 293.8173,40.72983 19.5894,14.48624 96.8101,89.54437 55.8685,22.47514 -70.8094,-98.42401 -199.0006,-113.90109 -296.5674,-173.91366 -93.7199,-74.42334 -164.9983,-175.84191 -272.1126,-233.53106 -37.5917,-22.72669 -83.1551,-41.84041 -126.305,-55.12525 -80.7565,-17.305871 -165.23719,-18.103969 -245.746,2.316 -48.07364,5.83691 -98.19307,30.77374 -141.96663,53.36288 C 636.30671,192.50497 526.62676,228.85264 569.89233,143.03798 591.09923,80.581348 540.04062,16.150091 483.5,0.82501282 Z"
     stroke="none"
     fill="#918884"
     fill-rule="evenodd"
     id="path1"
     style="fill:#ffffff;fill-opacity:1" />
</svg>
