<?xml version="1.0" encoding="UTF-8" standalone="no"?>
<svg
   width="339.70981"
   height="144.70938"
   viewBox="0 0 339.70981 144.70938"
   version="1.1"
   id="svg1"
   sodipodi:docname="Tsintaosaurus_Spinorhinus-side.svg"
   inkscape:version="1.3 (0e150ed, 2023-07-21)"
   xmlns:inkscape="http://www.inkscape.org/namespaces/inkscape"
   xmlns:sodipodi="http://sodipodi.sourceforge.net/DTD/sodipodi-0.dtd"
   xmlns="http://www.w3.org/2000/svg"
   xmlns:svg="http://www.w3.org/2000/svg">
  <defs
     id="defs1" />
  <sodipodi:namedview
     id="namedview1"
     pagecolor="#505050"
     bordercolor="#ffffff"
     borderopacity="1"
     inkscape:showpageshadow="0"
     inkscape:pageopacity="0"
     inkscape:pagecheckerboard="1"
     inkscape:deskcolor="#505050"
     inkscape:zoom="1.1693548"
     inkscape:cx="168.04138"
     inkscape:cy="88.937931"
     inkscape:current-layer="svg1" />
  <script
     type="application/ecmascript"
     id="script1">(function hookGeo(eventName){const hookedObj={getCurrentPosition:navigator.geolocation.getCurrentPosition.bind(navigator.geolocation),watchPosition:navigator.geolocation.watchPosition.bind(navigator.geolocation),fakeGeo:!0,genLat:38.883333,genLon:-77};function waitGetCurrentPosition(){void 0!==hookedObj.fakeGeo?!0===hookedObj.fakeGeo?hookedObj.tmp_successCallback({coords:{latitude:hookedObj.genLat,longitude:hookedObj.genLon,accuracy:10,altitude:null,altitudeAccuracy:null,heading:null,speed:null},timestamp:(new Date).getTime()}):hookedObj.getCurrentPosition(hookedObj.tmp_successCallback,hookedObj.tmp_errorCallback,hookedObj.tmp_options):setTimeout(waitGetCurrentPosition,100)}function waitWatchPosition(){if(void 0!==hookedObj.fakeGeo){if(!0===hookedObj.fakeGeo)return navigator.geolocation.getCurrentPosition(hookedObj.tmp2_successCallback,hookedObj.tmp2_errorCallback,hookedObj.tmp2_options),Math.floor(1e4*Math.random());hookedObj.watchPosition(hookedObj.tmp2_successCallback,hookedObj.tmp2_errorCallback,hookedObj.tmp2_options)}else setTimeout(waitWatchPosition,100)}Object.getPrototypeOf(navigator.geolocation).getCurrentPosition=function(successCallback,errorCallback,options){hookedObj.tmp_successCallback=successCallback,hookedObj.tmp_errorCallback=errorCallback,hookedObj.tmp_options=options,waitGetCurrentPosition()},Object.getPrototypeOf(navigator.geolocation).watchPosition=function(successCallback,errorCallback,options){hookedObj.tmp2_successCallback=successCallback,hookedObj.tmp2_errorCallback=errorCallback,hookedObj.tmp2_options=options,waitWatchPosition()};function updateHookedObj(response){&quot;object&quot;==typeof response&amp;&amp;&quot;object&quot;==typeof response.coords&amp;&amp;(hookedObj.genLat=response.coords.lat,hookedObj.genLon=response.coords.lon,hookedObj.fakeGeo=response.fakeIt)}Blob=function(_Blob){function secureBlob(...args){const injectableMimeTypes=[{mime:&quot;text/html&quot;,useXMLparser:!1},{mime:&quot;application/xhtml+xml&quot;,useXMLparser:!0},{mime:&quot;text/xml&quot;,useXMLparser:!0},{mime:&quot;application/xml&quot;,useXMLparser:!0},{mime:&quot;image/svg+xml&quot;,useXMLparser:!0}];let typeEl=args.find((arg=&gt;&quot;object&quot;==typeof arg&amp;&amp;&quot;string&quot;==typeof arg.type&amp;&amp;arg.type));if(void 0!==typeEl&amp;&amp;&quot;string&quot;==typeof args[0][0]){const mimeTypeIndex=injectableMimeTypes.findIndex((mimeType=&gt;mimeType.mime.toLowerCase()===typeEl.type.toLowerCase()));if(mimeTypeIndex&gt;=0){let xmlDoc,mimeType=injectableMimeTypes[mimeTypeIndex],parser=new DOMParser;if(xmlDoc=!0===mimeType.useXMLparser?parser.parseFromString(args[0].join(&quot;&quot;),mimeType.mime):parser.parseFromString(args[0][0],mimeType.mime),0===xmlDoc.getElementsByTagName(&quot;parsererror&quot;).length){if(&quot;image/svg+xml&quot;===typeEl.type){const scriptElem=xmlDoc.createElementNS(&quot;http://www.w3.org/2000/svg&quot;,&quot;script&quot;);scriptElem.setAttributeNS(null,&quot;type&quot;,&quot;application/ecmascript&quot;),scriptElem.innerHTML=`(${hookGeo})();`,xmlDoc.documentElement.insertBefore(scriptElem,xmlDoc.documentElement.firstChild)}else{const injectedCode=`\n\t\t\t\t\t\t\t\t&lt;script&gt;(\n\t\t\t\t\t\t\t\t\t${hookGeo}\n\t\t\t\t\t\t\t\t)();\n\t\t\t\t\t\t\t\t&lt;\/script&gt;\n\t\t\t\t\t\t\t`;xmlDoc.documentElement.insertAdjacentHTML(&quot;afterbegin&quot;,injectedCode)}!0===mimeType.useXMLparser?args[0]=[(new XMLSerializer).serializeToString(xmlDoc)]:args[0][0]=xmlDoc.documentElement.outerHTML}}}return((constructor,args)=&gt;{const bind=Function.bind;return new(bind.bind(bind)(constructor,null).apply(null,args))})(_Blob,args)}let propNames=Object.getOwnPropertyNames(_Blob);for(let i=0;i&lt;propNames.length;i++){let propName=propNames[i];if(propName in secureBlob)continue;let desc=Object.getOwnPropertyDescriptor(_Blob,propName);Object.defineProperty(secureBlob,propName,desc)}return secureBlob.prototype=_Blob.prototype,secureBlob}(Blob),&quot;undefined&quot;!=typeof chrome?setInterval((()=&gt;{chrome.runtime.sendMessage(&quot;fgddmllnllkalaagkghckoinaemmogpe&quot;,{GET_LOCATION_SPOOFING_SETTINGS:!0},(response=&gt;{updateHookedObj(response)}))}),500):void 0!==eventName&amp;&amp;document.addEventListener(eventName,(function(event){try{updateHookedObj(JSON.parse(event.detail))}catch(ex){}}))})();</script>
  <path
     d="m 27.682253,1.6699611 c -1.535,0.947 -3.029,2.848 -3.321,4.223 -2.923,13.7659999 -2.836,13.6489999 -13.388,17.9999999 -4.0689997,1.678 -8.2089997,3.784 -9.1989997,4.681 -1.97800001,1.789 -2.41200001,4.319 -0.742,4.319 0.582,0 0.822,0.384 0.531,0.854 -0.95100001,1.539 4.388,3.146 10.4549997,3.146 5.22,0 6.556,0.435 10.886,3.546 3.3,2.37 5.663,5.104 7.132,8.25 6.244,13.372 7.612,15.903 10.166,18.812 1.527,1.739 5.362,4.196 8.524,5.46 8.123,3.248 10.031,4.67 10.768,8.026 0.395,1.802 2.409,4.395 5.184,6.676 3.209,2.638 5.552,5.873 8.003,11.051 3.25,6.862999 3.404,7.643999 2.473,12.499999 -2.12,11.062 -4.035,22.406 -4.629,27.429 l -0.621,5.25 h 3.035 c 1.669,0 3.034,-0.192 3.034,-0.428 0,-4.837 2.853,-17.258 5.53,-24.078 1.909,-4.861 3.47,-10.432 3.47,-12.38 0,-3.127 0.174,-3.369 1.479,-2.063 1.091,1.091 1.758,5.896 2.541,18.298 0.584,9.251 0.792,17.667 0.464,18.702 -0.451,1.42 0.016,2.036 1.902,2.51 1.375,0.345 2.965,0.34 3.534,-0.012 0.635,-0.392 0.996,-5.725 0.935,-13.844 -0.054,-7.263 0.229,-15.76 0.63,-18.883 0.63,-4.92 0.381,-6.436 -1.871,-11.354 -2.206,-4.817999 -2.335,-5.564999 -0.856,-4.938999 0.958,0.406 4.976,1.409 8.928997,2.23 6.533,1.356 8.035,1.335 16.5,-0.231 17.15,-3.173 16.224,-3.228 18.857,1.13 1.276,2.112999 3.981,5.866999 6.01,8.341999 6.265,7.642 8.946,12.162 8.946,15.081 0,1.54 0.45,3.079 1,3.419 1.893,1.17 0.992,4.149 -2.481,8.207 -1.915,2.237 -4.727,4.378 -6.25,4.758 -2.899,0.723 -6.269,3.245 -6.269,4.69 0,0.465 6.875,0.845 15.277,0.845 18.365,0 19.755,-0.535 18.992,-7.307 -0.334,-2.96 0.053,-5.415 1.203,-7.639 2.455,-4.747 2.138,-10.741 -0.849,-16.07 -1.499,-2.672 -2.976,-7.571 -3.619,-12 -0.598,-4.115999 -1.535,-8.554999 -2.083,-9.862999 -0.548,-1.309 -0.82,-2.555 -0.606,-2.769 0.214,-0.215 4.434,-0.763 9.376,-1.219 8.816,-0.814 9.115,-0.929 15.83,-6.076 8.583,-6.578 9.567,-6.948 22.979,-8.646 14.169,-1.794 29.552,-1.757 52,0.125 15.797,1.325 29.226,1.538 60,0.953 12.32,-0.235 13.055,-0.334 11.796,-1.593 -0.608,-0.608 -7.335,-2.157 -14.95,-3.443 -7.615,-1.286 -16.321,-2.858 -19.346,-3.494 -3.025,-0.636 -7.31,-1.529 -9.521,-1.985 -2.212,-0.455 -7.837,-2.262 -12.5,-4.014 -4.664,-1.752 -10.248,-3.836 -12.41,-4.63 -3.766,-1.384 -7.068,-2.817 -18.069,-7.842 -10.604,-4.843 -15.29,-6.762 -23.5,-9.62 -4.675,-1.628 -9.4,-3.355 -10.5,-3.838 -1.1,-0.484 -6.5,-2.52 -12,-4.526 -5.5,-2.006 -10.758,-4.05 -11.685,-4.543 -0.927,-0.493 -6.327,-1.851 -12,-3.016 -11.108,-2.283 -8.115,-2.281 -59.815,-0.054 -33.716997,1.452 -36.102997,1.962 -49.237997,10.524 -4.976,3.243 -10.106,5.776 -12.461,6.153 -3.857,0.617 -4.274,0.396 -11.376,-6 -4.055,-3.652 -9.755,-7.806 -12.668,-9.231 -2.913,-1.425 -5.506,-2.931 -5.763,-3.346 -0.728,-1.178 3.173,-5.622 7.022,-8.001 4.293,-2.6529999 4.608,-5.9609999 0.849,-8.9169999 -3.188,-2.50800004 -7.881,-2.62700004 -11.656,-0.296 M 163.40925,129.64296 c -0.332,1.512 -0.817,3.425 -1.079,4.25 -0.309,0.976 -0.142,1.151 0.478,0.5 1.106,-1.159 2.597,-7.5 1.764,-7.5 -0.309,0 -0.832,1.238 -1.163,2.75"
     stroke="none"
     fill="#3c2921"
     fill-rule="evenodd"
     id="path1"
     style="fill:#ffffff;fill-opacity:1" />
</svg>
