<?xml version="1.0" encoding="UTF-8" standalone="no"?>
<!-- Created with Inkscape (http://www.inkscape.org/) -->

<svg
   xmlns:dc="http://purl.org/dc/elements/1.1/"
   xmlns:cc="http://creativecommons.org/ns#"
   xmlns:rdf="http://www.w3.org/1999/02/22-rdf-syntax-ns#"
   xmlns:svg="http://www.w3.org/2000/svg"
   xmlns="http://www.w3.org/2000/svg"
   xmlns:sodipodi="http://sodipodi.sourceforge.net/DTD/sodipodi-0.dtd"
   xmlns:inkscape="http://www.inkscape.org/namespaces/inkscape"
   width="283.22711mm"
   height="141.31198mm"
   viewBox="0 0 283.22711 141.31198"
   version="1.1"
   id="svg8"
   inkscape:version="0.92.4 (5da689c313, 2019-01-14)"
   sodipodi:docname="Tyrannosaurus_Rex_TRex-side.svg">
  <defs
     id="defs2" />
  <sodipodi:namedview
     id="base"
     pagecolor="#ffffff"
     bordercolor="#666666"
     borderopacity="1.0"
     inkscape:pageopacity="0.0"
     inkscape:pageshadow="2"
     inkscape:zoom="0.49497475"
     inkscape:cx="402.48472"
     inkscape:cy="268.76549"
     inkscape:document-units="mm"
     inkscape:current-layer="layer1"
     showgrid="false"
     inkscape:pagecheckerboard="true"
     inkscape:showpageshadow="false"
     borderlayer="true"
     fit-margin-top="-0.3"
     fit-margin-left="0"
     fit-margin-right="0"
     fit-margin-bottom="0"
     inkscape:window-width="1366"
     inkscape:window-height="713"
     inkscape:window-x="0"
     inkscape:window-y="0"
     inkscape:window-maximized="1" />
  <metadata
     id="metadata5">
    <rdf:RDF>
      <cc:Work
         rdf:about="">
        <dc:format>image/svg+xml</dc:format>
        <dc:type
           rdf:resource="http://purl.org/dc/dcmitype/StillImage" />
        <dc:title></dc:title>
      </cc:Work>
    </rdf:RDF>
  </metadata>
  <g
     inkscape:label="Layer 1"
     inkscape:groupmode="layer"
     id="layer1"
     transform="translate(18.698992,-41.670118)">
    <path
       style="fill:#555555;fill-opacity:1;stroke-width:0.26458332"
       d="m 85.183718,182.77748 c -0.08175,-0.21303 -0.03593,-0.78032 0.101828,-1.26064 0.137755,-0.48032 0.250462,-0.91197 0.250462,-0.95922 0,-0.0472 -0.358587,0.16943 -0.796861,0.4815 -0.438272,0.31208 -0.729745,0.67601 -0.647716,0.80874 0.08203,0.13273 -0.04178,0.16806 -0.275127,0.0785 -0.430411,-0.16516 -0.379717,-0.97982 0.148188,-2.38142 0.345712,-0.91787 1.767742,-2.38406 2.77655,-2.86277 1.338789,-0.6353 5.729918,-1.72015 8.038537,-1.98597 2.811669,-0.32374 6.044501,-1.98327 7.461051,-3.83003 0.56475,-0.73626 1.13166,-1.46828 1.25981,-1.62673 0.56534,-0.69898 2.62822,-4.56874 2.93057,-5.49745 0.81008,-2.48824 -0.0835,-4.79668 -3.77124,-9.7422 -3.01358,-4.04146 -4.651232,-6.51499 -5.767189,-8.71084 -1.424511,-2.80299 -1.372134,-6.08454 0.197454,-12.37054 1.035539,-4.14722 0.670245,-6.30172 -1.361777,-8.03176 -0.703976,-0.59935 -1.613265,-0.91632 -8.207875,-2.86118 -3.055937,-0.90125 -7.907734,-2.4471 -10.781771,-3.43522 l -5.225521,-1.79658 v 2.51442 c 0,2.46137 -0.01701,2.53031 -0.806341,3.26766 -0.44349,0.41428 -1.782943,1.11983 -2.976563,1.56788 -6.489636,2.43607 -6.454726,2.41586 -6.165226,3.56933 0.23869,0.95102 2.14064,2.72649 3.24835,3.03235 1.038917,0.28686 1.580828,0.0948 3.246325,-1.15055 0.527888,-0.39472 1.010645,-0.58359 1.145915,-0.44832 0.318268,0.31827 -0.669517,2.19275 -1.835748,3.48363 l -0.945369,1.04641 h 0.824537 c 1.268608,0 1.009782,0.6489 -0.521592,1.30768 -1.632188,0.70215 -4.657758,1.01285 -5.495758,0.56436 -1.01987,-0.54582 -3.47686,-6.69584 -3.47686,-8.70284 0,-0.79483 0.21756,-1.1468 1.38906,-2.24723 1.56123,-1.46652 5.30775,-4.02422 7.011458,-4.78663 0.618463,-0.27676 1.124479,-0.64511 1.124479,-0.81854 0,-0.32845 -1.646738,-2.86536 -2.743247,-4.22615 l -0.63286,-0.7854 -0.47742,1.51455 c -0.27619,0.87616 -0.71818,1.6723 -1.0486,1.8888 -0.92634,0.60697 -3.43404,0.94557 -7.00283,0.94557 -3.81177,0 -4.34334,0.2351 -4.6339,2.04948 -0.0875,0.54627 -0.20556,1.21946 -0.26239,1.49597 -0.0568,0.27651 0.007,1.0843 0.14176,1.79509 0.31208,1.64557 1.57866,3.24652 3.23188,4.08508 1.95958,0.99395 1.69931,1.26367 -1.12448,1.16532 -1.40423,-0.0489 -3.22657,-0.52809 -3.50168,-0.92077 -0.12124,-0.17305 -0.19553,-0.1779 -0.19744,-0.0129 -0.003,0.24144 0.53567,1.14582 1.37084,2.30241 0.42125,0.58336 0.141,0.84634 -0.68184,0.63983 -0.81327,-0.20412 -4.08639,-3.45566 -4.28826,-4.25999 -0.12412,-0.49451 1.6825,-6.9399 2.53369,-9.03934 0.13461,-0.33201 0.92858,-0.89751 1.9134,-1.36282 1.89272,-0.89427 6.5676,-2.32061 8.47369,-2.58539 1.52062,-0.21123 1.892684,-0.57208 0.59603,-3.3093 -1.038188,-2.1916 -1.378215,-3.19621 -2.21882,-4.91502 -0.724348,-1.4811 -1.48312,-3.71502 -2.21966,-6.574555 -0.3254,-1.263324 -0.41786,-1.361494 -2.05252,-2.179294 -0.94147,-0.471 -2.96192,-1.35296 -4.48989,-1.95991 -7.21349,-2.865337 -12.7858,-5.912607 -16.13958,-8.826044 -3.90537,-3.392599 -5.86336,-3.761754 -11.15404,-2.102948 -3.69761,1.159324 -4.67563,1.380778 -8.06247,1.825593 -2.34708,0.308258 -2.9797578,0.4143 -4.6327298,1.483362 -1.2429167,0.803858 -2.5598295,1.544192 -3.79265,2.16586 -2.3397037,1.179831 -4.52808001,1.8293 -6.78648,1.97508 -2.085,0.13459 -2.41542,0.0861 -3.83646,-0.56329 -1.66489,-0.7608 -2.88154,-1.77937 -4.1013502,-3.433597 -1.07907,-1.46336 -0.99322,-1.843725 0.5620102,-2.490052 1.17085,-0.486579 1.32292,-0.640911 1.32292,-1.342575 0,-0.929384 0.3931,-1.284761 0.73847,-0.66761 0.19654,0.351195 0.27268,0.277902 0.40653,-0.391311 0.20358,-1.017931 0.58392,-1.058069 0.90817,-0.09584 0.24067,0.714197 0.24871,0.716637 0.43675,0.132291 0.20489,-0.636701 0.67286,-0.812657 0.70368,-0.264583 0.0102,0.181901 0.11152,0.0926 0.2251,-0.198437 0.11358,-0.291042 0.3731,-0.534578 0.57671,-0.541192 0.20362,-0.0066 0.34045,-0.155443 0.30407,-0.33073 -0.0799,-0.38482 0.36588,-0.425341 0.59531,-0.05412 0.34774,0.562663 0.53886,0.219625 0.44222,-0.79375 -0.11627,-1.21924 -0.0117,-1.283369 0.75502,-0.463021 l 0.55639,0.595313 -0.1833,-1.389063 c -0.22386,-1.6965 0.2284,-1.873258 1.15066,-0.449702 0.65037999,1.00388 1.11546999,0.99925 1.11546999,-0.01111 0,-0.379804 0.19443,-0.689724 0.49195,-0.784151 0.27057,-0.08588 1.01471001,-1.132721 1.65364001,-2.32632 1.17866,-2.201862 3.89409,-5.385768 5.30325,-6.218179 0.56681,-0.334817 0.75227,-0.643665 0.74933,-1.247799 -0.007,-1.488112 -0.7921,-4.161025 -1.51856,-5.171664 -0.87517,-1.21752 -2.61969,-2.314919 -4.0414,-2.54226 -1.0328,-0.165137 -1.05071,-0.154162 -1.05071,0.643948 0,1.002999 -0.40557,1.303923 -0.78979001,0.58601 -0.41738,-0.77988 -0.79771,-0.657265 -0.79771,0.257172 0,1.04021 -0.31821,1.002827 -1.09037999,-0.128098 -0.60235,-0.882213 -0.63681,-0.896432 -0.80148,-0.330729 -0.0946,0.325115 -0.18393,1.033868 -0.19843,1.575004 -0.019,0.709268 -0.12584,0.945716 -0.38272,0.84714 -0.37156,-0.142579 -1.4713,-2.146652 -1.52886,-2.786046 -0.0625,-0.693905 -0.45682,2.012825 -0.47644,3.270125 -0.0323,2.069169 -1.0982,1.43124 -2.39938,-1.435989 l -0.51902,-1.143698 -0.006,1.256771 c -0.003,0.691223 -0.11677,1.25677 -0.25238,1.25677 -0.33856,0 -1.16611,-1.237681 -1.68062,-2.513541 l -0.4268,-1.058334 -0.0136,0.992188 c -0.0202,1.468496 -0.6146302,1.247865 -1.4257502,-0.529167 l -0.69442,-1.521354 -0.005,1.653646 c -0.003,0.909505 -0.11602,1.653646 -0.25163,1.653646 -0.39391,0 -1.38032,-1.53761 -1.75503,-2.735726 -0.22431,-0.717235 -0.35042,-0.893323 -0.36195,-0.50542 -0.01,0.327422 -0.11831,0.595312 -0.24128,0.595312 -0.3292,0 -1.03331,-0.841274 -1.33322,-1.592939 l -0.26174,-0.656019 -0.0168,0.727604 c -0.0251,1.08725 -0.47985,0.881243 -1.14469,-0.518522 -0.32553,-0.685369 -0.81358,-1.472621 -1.08455,-1.749446 -0.72674,-0.742437 -0.4939,-3.032781 0.52977,-5.211173 1.79187,-3.813153 5.78678,-6.574639 11.7046402,-8.090849 3.23744,-0.829461 5.22304999,-0.819849 7.72494,0.0374 1.21583,0.416592 3.0497,0.770067 4.81175,0.92746 l 2.84717,0.25432 2.6401298,-1.377765 c 2.19997,-1.148061 2.9233,-1.395793 4.33857,-1.485913 1.7465,-0.111207 3.6643,0.347877 5.31862,1.27317 1.14729,0.641701 2.20091,0.784399 3.70417,0.501676 2.22732,-0.418902 6.45111,-0.335357 8.47621,0.167653 4.85733,1.2065 8.84184,4.237879 12.27064,9.335384 2.01271,2.992225 6.11161,6.735966 9.28336,8.478964 1.93763,1.064805 5.35242,2.665031 6.74687,3.161702 4.595297,1.636723 10.208822,2.506837 14.594767,2.262235 3.239931,-0.180689 8.343249,0.218358 12.65732,0.989719 14.628562,2.615605 15.630072,2.698239 21.835352,1.801627 4.99283,-0.721423 9.14071,-0.567666 14.48345,0.536885 5.44766,1.126244 9.44092,2.586069 16.33329,5.970989 3.34697,1.643743 6.62119,3.165748 7.27604,3.382232 1.23156,0.407149 4.2105,1.157158 12.83229,3.230804 16.06854,3.864665 42.03498,12.260451 52.38757,16.938585 0.43656,0.19728 1.56766,0.676105 2.51354,1.064055 6.31103,2.58853 18.63064,8.59239 26.45834,12.89428 11.46955,6.30336 21.53671,12.87266 21.01656,13.71427 -0.0801,0.12968 -0.73451,0.23577 -1.45415,0.23577 -1.17255,0 -4.29879,-0.74599 -15.99054,-3.81571 -7.04696,-1.85021 -18.96184,-4.43042 -26.9875,-5.84423 -19.73712,-3.47691 -26.77604,-4.23772 -37.17396,-4.018 -9.39848,0.1986 -14.43854,1.04168 -18.57921,3.10787 -3.18653,1.59007 -5.11623,2.05775 -9.73122,2.35845 -4.47973,0.29188 -8.26968,0.85611 -9.92187,1.47712 -0.692,0.26011 -1.37887,0.82543 -1.98438,1.63323 -0.50932,0.67948 -1.7497,1.84992 -2.33717,2.89333 -1.25755,2.23355 -2.01096,2.45734 -3.51646,4.13111 -1.07555,1.19577 -2.36813,2.63777 -2.87752,3.19986 -1.33587,1.47408 -4.73286,4.76116 -5.17752,5.01 -0.73943,0.41381 -0.35718,0.9175 1.32461,1.74544 0.9369,0.46123 2.0157,1.2097 2.39734,1.66325 1.04585,1.24292 2.16437,3.6247 2.74722,5.84996 0.28675,1.09479 0.72167,2.38852 0.96649,2.87496 0.53557,1.06414 2.48173,3.13337 2.947,3.13337 0.61107,0 2.28546,1.70651 2.78712,2.84057 0.35013,0.79153 0.48094,1.6465 0.44526,2.91042 -0.0452,1.60254 0.32632,3.71858 0.77882,4.43547 0.0919,0.14552 0.18149,0.58315 0.1992,0.97251 0.0177,0.38935 0.2494,0.92514 0.51489,1.19062 0.45068,0.45067 0.45237,0.48855 0.0256,0.57076 -0.25143,0.0484 -0.7787,-0.12688 -1.17173,-0.38957 -0.39303,-0.26269 -0.80389,-0.45115 -0.91303,-0.41878 -0.10914,0.0324 -0.21063,-0.14952 -0.22552,-0.40418 -0.0149,-0.25467 -0.13225,-0.0463 -0.26079,0.46302 -0.12853,0.50932 -0.17126,1.34276 -0.095,1.85208 0.33789,2.25536 -0.74926,6.70164 -2.11229,8.6389 -0.49647,0.70564 -1.28599,1.96783 -1.75448,2.80488 -0.46849,0.83705 -1.38333,2.01186 -2.03299,2.61069 -1.12992,1.04153 -1.24026,1.08304 -2.54252,0.95661 -1.09159,-0.10598 -1.51369,-0.0241 -2.13014,0.41322 l -0.76879,0.54539 0.13976,-1.03953 0.13976,-1.03954 -2.70969,0.0892 c -2.34381,0.0772 -2.8573,0.0139 -3.80275,-0.4684 -0.60117,-0.3067 -1.09304,-0.67427 -1.09304,-0.81684 0,-0.46197 -0.49119,-0.27638 -1.41478,0.53455 -0.49722,0.43656 -0.9931,0.79375 -1.10195,0.79375 -0.10886,0 -0.13816,-0.53021 -0.0651,-1.17824 l 0.1328,-1.17824 -0.89214,0.68048 -0.89215,0.68047 0.006,-0.75901 c 0.007,-0.91111 0.92994,-2.60895 1.40456,-3.23638 0.33335,-0.44068 0.55313,-0.5738 1.60108,-1.20505 0.59092,-0.35595 1.98261,-0.8305 3.07402,-1.08632 2.7433,-0.643 3.62527,-1.14664 5.47986,-3.1292 1.90678,-2.03836 2.35591,-3.18607 2.70956,-6.92401 0.28602,-3.02304 0.0571,-4.51266 -0.9224,-6.00252 -0.60423,-0.91903 -3.2133,-3.12032 -3.69837,-3.12032 -0.12083,0 -0.40767,-0.16651 -0.63741,-0.37002 -0.22974,-0.20352 -0.89396,-0.63469 -1.47604,-0.95816 -8.94585,-4.97132 -11.25982,-6.85112 -12.42618,-10.09465 -0.253,-0.70359 -0.5473,-1.33319 -0.65399,-1.39913 -0.10669,-0.0659 -0.62894,0.0136 -1.16056,0.17676 l -0.96658,0.29666 1.0658,0.91228 c 0.58618,0.50175 1.38665,1.524 1.77882,2.27167 0.76284,1.45435 0.81899,2.44434 0.54978,9.69376 -0.10037,2.70276 -0.0711,2.79867 1.73997,5.70949 0.63195,1.01568 0.77656,1.54374 0.78359,2.86126 0.01,1.87305 -0.3386,2.42592 -2.46849,5.45185 -0.94786,1.34662 -2.85177,4.73015 -3.03002,5.89211 -0.46077,3.00355 -1.3358,5.76849 -2.08056,6.53025 -1.57065,1.6065 -2.95715,1.77806 -13.47217,1.66702 l -6.263556,-0.0661 -0.809141,-0.68084 c -0.920554,-0.7746 -1.47479,-0.70783 -2.481553,0.29893 -0.522605,0.5226 -0.688266,0.57816 -0.806363,0.2704 z"
       id="path828"
       inkscape:connector-curvature="0"
       sodipodi:nodetypes="ccscccccscccsscccscsccccscscsscsccsccccscccccccccccccsssccsssssccccsccccccccccccccsccccscscscccccccccsccccccsccsccccccssscccscscccssssccsccscssssccccsscccccssccccccscccccsccccccccscscccccssccccsccccccccsccssccccccc" />
  </g>
</svg>
