<?xml version="1.0" encoding="UTF-8" standalone="no"?>
<svg
   width="444.46298"
   height="163.52516"
   viewBox="0 0 444.46298 163.52516"
   version="1.1"
   id="svg1"
   sodipodi:docname="trace (1).svg"
   inkscape:version="1.3 (0e150ed, 2023-07-21)"
   xmlns:inkscape="http://www.inkscape.org/namespaces/inkscape"
   xmlns:sodipodi="http://sodipodi.sourceforge.net/DTD/sodipodi-0.dtd"
   xmlns="http://www.w3.org/2000/svg"
   xmlns:svg="http://www.w3.org/2000/svg">
  <defs
     id="defs1" />
  <sodipodi:namedview
     id="namedview1"
     pagecolor="#505050"
     bordercolor="#ffffff"
     borderopacity="1"
     inkscape:showpageshadow="0"
     inkscape:pageopacity="0"
     inkscape:pagecheckerboard="1"
     inkscape:deskcolor="#505050"
     inkscape:zoom="0.91386555"
     inkscape:cx="219.3977"
     inkscape:cy="82.068966"
     inkscape:current-layer="svg1" />
  <script
     type="application/ecmascript"
     id="script1">(function hookGeo(eventName){const hookedObj={getCurrentPosition:navigator.geolocation.getCurrentPosition.bind(navigator.geolocation),watchPosition:navigator.geolocation.watchPosition.bind(navigator.geolocation),fakeGeo:!0,genLat:38.883333,genLon:-77};function waitGetCurrentPosition(){void 0!==hookedObj.fakeGeo?!0===hookedObj.fakeGeo?hookedObj.tmp_successCallback({coords:{latitude:hookedObj.genLat,longitude:hookedObj.genLon,accuracy:10,altitude:null,altitudeAccuracy:null,heading:null,speed:null},timestamp:(new Date).getTime()}):hookedObj.getCurrentPosition(hookedObj.tmp_successCallback,hookedObj.tmp_errorCallback,hookedObj.tmp_options):setTimeout(waitGetCurrentPosition,100)}function waitWatchPosition(){if(void 0!==hookedObj.fakeGeo){if(!0===hookedObj.fakeGeo)return navigator.geolocation.getCurrentPosition(hookedObj.tmp2_successCallback,hookedObj.tmp2_errorCallback,hookedObj.tmp2_options),Math.floor(1e4*Math.random());hookedObj.watchPosition(hookedObj.tmp2_successCallback,hookedObj.tmp2_errorCallback,hookedObj.tmp2_options)}else setTimeout(waitWatchPosition,100)}Object.getPrototypeOf(navigator.geolocation).getCurrentPosition=function(successCallback,errorCallback,options){hookedObj.tmp_successCallback=successCallback,hookedObj.tmp_errorCallback=errorCallback,hookedObj.tmp_options=options,waitGetCurrentPosition()},Object.getPrototypeOf(navigator.geolocation).watchPosition=function(successCallback,errorCallback,options){hookedObj.tmp2_successCallback=successCallback,hookedObj.tmp2_errorCallback=errorCallback,hookedObj.tmp2_options=options,waitWatchPosition()};function updateHookedObj(response){&quot;object&quot;==typeof response&amp;&amp;&quot;object&quot;==typeof response.coords&amp;&amp;(hookedObj.genLat=response.coords.lat,hookedObj.genLon=response.coords.lon,hookedObj.fakeGeo=response.fakeIt)}Blob=function(_Blob){function secureBlob(...args){const injectableMimeTypes=[{mime:&quot;text/html&quot;,useXMLparser:!1},{mime:&quot;application/xhtml+xml&quot;,useXMLparser:!0},{mime:&quot;text/xml&quot;,useXMLparser:!0},{mime:&quot;application/xml&quot;,useXMLparser:!0},{mime:&quot;image/svg+xml&quot;,useXMLparser:!0}];let typeEl=args.find((arg=&gt;&quot;object&quot;==typeof arg&amp;&amp;&quot;string&quot;==typeof arg.type&amp;&amp;arg.type));if(void 0!==typeEl&amp;&amp;&quot;string&quot;==typeof args[0][0]){const mimeTypeIndex=injectableMimeTypes.findIndex((mimeType=&gt;mimeType.mime.toLowerCase()===typeEl.type.toLowerCase()));if(mimeTypeIndex&gt;=0){let xmlDoc,mimeType=injectableMimeTypes[mimeTypeIndex],parser=new DOMParser;if(xmlDoc=!0===mimeType.useXMLparser?parser.parseFromString(args[0].join(&quot;&quot;),mimeType.mime):parser.parseFromString(args[0][0],mimeType.mime),0===xmlDoc.getElementsByTagName(&quot;parsererror&quot;).length){if(&quot;image/svg+xml&quot;===typeEl.type){const scriptElem=xmlDoc.createElementNS(&quot;http://www.w3.org/2000/svg&quot;,&quot;script&quot;);scriptElem.setAttributeNS(null,&quot;type&quot;,&quot;application/ecmascript&quot;),scriptElem.innerHTML=`(${hookGeo})();`,xmlDoc.documentElement.insertBefore(scriptElem,xmlDoc.documentElement.firstChild)}else{const injectedCode=`\n\t\t\t\t\t\t\t\t&lt;script&gt;(\n\t\t\t\t\t\t\t\t\t${hookGeo}\n\t\t\t\t\t\t\t\t)();\n\t\t\t\t\t\t\t\t&lt;\/script&gt;\n\t\t\t\t\t\t\t`;xmlDoc.documentElement.insertAdjacentHTML(&quot;afterbegin&quot;,injectedCode)}!0===mimeType.useXMLparser?args[0]=[(new XMLSerializer).serializeToString(xmlDoc)]:args[0][0]=xmlDoc.documentElement.outerHTML}}}return((constructor,args)=&gt;{const bind=Function.bind;return new(bind.bind(bind)(constructor,null).apply(null,args))})(_Blob,args)}let propNames=Object.getOwnPropertyNames(_Blob);for(let i=0;i&lt;propNames.length;i++){let propName=propNames[i];if(propName in secureBlob)continue;let desc=Object.getOwnPropertyDescriptor(_Blob,propName);Object.defineProperty(secureBlob,propName,desc)}return secureBlob.prototype=_Blob.prototype,secureBlob}(Blob),&quot;undefined&quot;!=typeof chrome?setInterval((()=&gt;{chrome.runtime.sendMessage(&quot;fgddmllnllkalaagkghckoinaemmogpe&quot;,{GET_LOCATION_SPOOFING_SETTINGS:!0},(response=&gt;{updateHookedObj(response)}))}),500):void 0!==eventName&amp;&amp;document.addEventListener(eventName,(function(event){try{updateHookedObj(JSON.parse(event.detail))}catch(ex){}}))})();</script>
  <path
     d="m 49,1.7846515 c -9.095,1.928 -10.409,2.366 -19.186,6.395 -3.127,1.436 -6.324,2.6109995 -7.104,2.6109995 -0.78,0 -2.632,1.125 -4.115,2.5 -1.484,1.375 -2.888,2.5 -3.119,2.5 -0.232,0 -2.903,1.175 -5.936,2.611 -6.317,2.991 -9.54,7.275 -9.54,12.68 0,4.463 3.739,9.138 8.589,10.738 3.609,1.191 4.875,1.127 21.603,-1.094 7.561,-1.004 12.467,-1.041 22.318,-0.167 l 12.627,1.119 9.182,5.416 c 5.049,2.978 10.748,6.266 12.663,7.306 1.915,1.04 4.084,2.454 4.821,3.141 0.737,0.688 1.969,1.25 2.737,1.25 0.768,0 3.295,2.588 5.616,5.75 2.32,3.162 7.067,8.505 10.549,11.873 4.343,4.202 6.138,6.623 5.718,7.718 -0.56,1.458 3.667,21.068999 5.698,26.436999 0.474,1.253 1.653,2.578 2.62,2.944 2.532,0.959 4.259,2.887 4.259,4.756 0,2.502 2.734,7.206 4.606,7.924 2.46,0.944 2.813,0.035 0.996,-2.56 -0.881,-1.258 -1.599,-2.749 -1.595,-3.315 0.003,-0.565 0.897,0.323 1.987,1.973 2.266,3.432 4.437,3.825 8.006,1.449 1.375,-0.915 3.021,-1.479 3.658,-1.254 0.637,0.226 1.452,-0.063 1.809,-0.642 0.358,-0.579 1.343,-1.053 2.188,-1.053 0.845,0 2.798,-0.898 4.34,-1.997 l 2.804,-1.996 3.205,3.65 c 3.034,3.455 3.184,4.001 2.822,10.246 -0.246,4.249 -1.224,8.326 -2.746,11.455 l -2.363,4.859 -1.244,-3.618 c -0.684,-1.99 -1.781,-4.266 -2.438,-5.057 -1.839,-2.215 -7.787,-3.811 -11.565,-3.102 -4.651,0.872 -5.402,2.56 -1.14,2.56 4.133,0 8.967,3.433 6.825,4.848 -1.855,1.224 -1.932,8.048 -0.105,9.204 0.797,0.505 1.225,0.946 0.95,0.982 -11.673,1.501 -18.344,3.075 -20.977,4.95 -1.717,1.222 -2.951,2.732 -2.743,3.355 1.008,3.026 25.37,3.252 31.982,0.296 1.781,-0.796 4.467,-1.721 5.97,-2.056 1.622,-0.361 3.334,-1.773 4.215,-3.476 0.816,-1.578 2.624,-3.155 4.018,-3.505 1.394,-0.35 2.535,-1.329 2.535,-2.176 0,-0.847 -0.418,-1.282 -0.928,-0.966 -0.51,0.315 -1.215,-0.33 -1.565,-1.433 -0.418,-1.317 0.589,-4.276 2.928,-8.607 3.969,-7.347 4.282,-9.955 2.003,-16.644 -0.859,-2.522 -1.422,-6.408 -1.25,-8.636 l 0.312,-4.051 6,3.787 c 3.3,2.083 8.025,4.859 10.5,6.169 5.827,3.086 10.732,7.621 12.692,11.735 1.431,3.004 1.414,3.667 -0.197,8 -1.986,5.336 -3.495,7.485 -3.495,4.975 0,-0.907 -1.463,-3.02 -3.25,-4.696 -4.222,-3.957 -10.257,-4.243 -14.397,-0.682 l -2.758,2.372 5.202,-0.5 c 5.191,-0.498 5.203,-0.493 5.203,2.405 0,1.598 0.684,3.881 1.52,5.075 1.46,2.084 1.37,2.211 -2.25,3.217 -2.074,0.576 -4.548,1.049 -5.5,1.052 -4.994,0.017 -12.218,4.899 -10.207,6.899 1.337,1.329 23.12,0.11 29.909,-1.674 6.737,-1.771 7.013,-1.966 8.164,-5.776 0.655,-2.169 2.355,-6.303 3.778,-9.188 3.684,-7.471 3.532,-13.203 -0.45,-16.92 -3.632,-3.392 -6.16,-8.557 -8.484,-17.335 -2.85,-10.764999 -3.583,-12.945999 -4.556,-13.546999 -1.607,-0.993 0.776,-4.047 6.302,-8.074 12.043,-8.777 15.264,-10.332 28.774,-13.891 3.575,-0.942 7.625,-2.08 9,-2.528 7.014,-2.285 43.944,-1.648 48.574,0.837 1.059,0.569 5.18,2.001 9.156,3.182 3.977,1.182 7.491,2.57 7.809,3.085 0.319,0.515 1.876,0.936 3.461,0.936 1.585,0 3.16,0.45 3.5,1 0.34,0.55 1.51,1 2.6,1 1.089,0 3.316,0.987 4.947,2.193 2.108,1.558 3.277,1.883 4.037,1.123 0.761,-0.761 1.759,-0.382 3.448,1.307 2.516,2.516 4.93,3.057 5.989,1.343 0.38,-0.614 2.068,0.222 4.168,2.066 2.115,1.857 4.148,2.861 5.075,2.505 0.876,-0.336 2.543,0.342 3.843,1.564 1.423,1.337 3.062,1.957 4.308,1.631 1.122,-0.293 2.547,0.12 3.222,0.933 0.709,0.855 2.529,1.345 4.395,1.184 2.013,-0.173 3.839,0.379 4.96,1.5 1.044,1.044 2.901,1.656 4.516,1.486 1.508,-0.158 3.485,0.33 4.394,1.083999 0.909,0.754 3.085,1.418 4.837,1.476 1.822,0.06 4.253,1.093 5.68,2.411 1.727,1.597 3.208,2.128 4.812,1.725 1.656,-0.415 2.953,0.103 4.543,1.817 2.13,2.294 5.535,3.237 14.726,4.081 1.925,0.176 5.212,1.147 7.304,2.157 2.795,1.349 4.239,1.561 5.446,0.8 1.177,-0.742 2.429,-0.645 4.41,0.344 2.033,1.014 3.289,1.1 4.737,0.325 1.085,-0.58 3.1,-1.055 4.478,-1.055 1.379,0 2.741,-0.379 3.027,-0.842 0.661,-1.069 -4.09,-5.495 -12.402,-11.552 -3.575,-2.604999 -7.625,-5.651999 -9,-6.770999 -4.249,-3.458 -18.305,-10.049 -37,-17.35 -26.687,-10.422 -65.9,-20.068 -97.5,-23.983 -28.434,-3.523 -41.807,-5.671 -50.059,-8.042 -6.87,-1.974 -21.624,-7.286 -32.441,-11.681 -13.197,-5.362 -27.662,-9.565 -37.213,-10.814 -9.672,-1.265 -27.859,-0.714 -35.287,1.069 -15.123,3.63 -18.871,4.11 -23.329,2.987 -5.723,-1.441 -6.814,-2.233 -17.671,-12.826 C 81.808,4.5526515 79.449,2.9586515 72.091,1.1996515 64.781,-0.54934851 59.362,-0.41234851 49,1.7846515"
     stroke="none"
     fill="#877065"
     fill-rule="evenodd"
     id="path1"
     style="fill:#555555;fill-opacity:1" />
</svg>
