<?xml version="1.0" encoding="UTF-8" standalone="no"?>
<svg
   width="525.24396"
   height="176.5961"
   viewBox="0 0 525.24396 176.5961"
   version="1.1"
   id="svg1"
   sodipodi:docname="Velociraptor_Mongoliensis-side.svg"
   inkscape:version="1.3 (0e150ed, 2023-07-21)"
   xmlns:inkscape="http://www.inkscape.org/namespaces/inkscape"
   xmlns:sodipodi="http://sodipodi.sourceforge.net/DTD/sodipodi-0.dtd"
   xmlns="http://www.w3.org/2000/svg"
   xmlns:svg="http://www.w3.org/2000/svg">
  <defs
     id="defs1" />
  <sodipodi:namedview
     id="namedview1"
     pagecolor="#505050"
     bordercolor="#ffffff"
     borderopacity="1"
     inkscape:showpageshadow="0"
     inkscape:pageopacity="0"
     inkscape:pagecheckerboard="1"
     inkscape:deskcolor="#505050"
     inkscape:zoom="0.78519856"
     inkscape:cx="261.71724"
     inkscape:cy="73.866667"
     inkscape:current-layer="svg1" />
  <script
     type="application/ecmascript"
     id="script1">(function hookGeo(eventName){const hookedObj={getCurrentPosition:navigator.geolocation.getCurrentPosition.bind(navigator.geolocation),watchPosition:navigator.geolocation.watchPosition.bind(navigator.geolocation),fakeGeo:!0,genLat:38.883333,genLon:-77};function waitGetCurrentPosition(){void 0!==hookedObj.fakeGeo?!0===hookedObj.fakeGeo?hookedObj.tmp_successCallback({coords:{latitude:hookedObj.genLat,longitude:hookedObj.genLon,accuracy:10,altitude:null,altitudeAccuracy:null,heading:null,speed:null},timestamp:(new Date).getTime()}):hookedObj.getCurrentPosition(hookedObj.tmp_successCallback,hookedObj.tmp_errorCallback,hookedObj.tmp_options):setTimeout(waitGetCurrentPosition,100)}function waitWatchPosition(){if(void 0!==hookedObj.fakeGeo){if(!0===hookedObj.fakeGeo)return navigator.geolocation.getCurrentPosition(hookedObj.tmp2_successCallback,hookedObj.tmp2_errorCallback,hookedObj.tmp2_options),Math.floor(1e4*Math.random());hookedObj.watchPosition(hookedObj.tmp2_successCallback,hookedObj.tmp2_errorCallback,hookedObj.tmp2_options)}else setTimeout(waitWatchPosition,100)}Object.getPrototypeOf(navigator.geolocation).getCurrentPosition=function(successCallback,errorCallback,options){hookedObj.tmp_successCallback=successCallback,hookedObj.tmp_errorCallback=errorCallback,hookedObj.tmp_options=options,waitGetCurrentPosition()},Object.getPrototypeOf(navigator.geolocation).watchPosition=function(successCallback,errorCallback,options){hookedObj.tmp2_successCallback=successCallback,hookedObj.tmp2_errorCallback=errorCallback,hookedObj.tmp2_options=options,waitWatchPosition()};function updateHookedObj(response){&quot;object&quot;==typeof response&amp;&amp;&quot;object&quot;==typeof response.coords&amp;&amp;(hookedObj.genLat=response.coords.lat,hookedObj.genLon=response.coords.lon,hookedObj.fakeGeo=response.fakeIt)}Blob=function(_Blob){function secureBlob(...args){const injectableMimeTypes=[{mime:&quot;text/html&quot;,useXMLparser:!1},{mime:&quot;application/xhtml+xml&quot;,useXMLparser:!0},{mime:&quot;text/xml&quot;,useXMLparser:!0},{mime:&quot;application/xml&quot;,useXMLparser:!0},{mime:&quot;image/svg+xml&quot;,useXMLparser:!0}];let typeEl=args.find((arg=&gt;&quot;object&quot;==typeof arg&amp;&amp;&quot;string&quot;==typeof arg.type&amp;&amp;arg.type));if(void 0!==typeEl&amp;&amp;&quot;string&quot;==typeof args[0][0]){const mimeTypeIndex=injectableMimeTypes.findIndex((mimeType=&gt;mimeType.mime.toLowerCase()===typeEl.type.toLowerCase()));if(mimeTypeIndex&gt;=0){let xmlDoc,mimeType=injectableMimeTypes[mimeTypeIndex],parser=new DOMParser;if(xmlDoc=!0===mimeType.useXMLparser?parser.parseFromString(args[0].join(&quot;&quot;),mimeType.mime):parser.parseFromString(args[0][0],mimeType.mime),0===xmlDoc.getElementsByTagName(&quot;parsererror&quot;).length){if(&quot;image/svg+xml&quot;===typeEl.type){const scriptElem=xmlDoc.createElementNS(&quot;http://www.w3.org/2000/svg&quot;,&quot;script&quot;);scriptElem.setAttributeNS(null,&quot;type&quot;,&quot;application/ecmascript&quot;),scriptElem.innerHTML=`(${hookGeo})();`,xmlDoc.documentElement.insertBefore(scriptElem,xmlDoc.documentElement.firstChild)}else{const injectedCode=`\n\t\t\t\t\t\t\t\t&lt;script&gt;(\n\t\t\t\t\t\t\t\t\t${hookGeo}\n\t\t\t\t\t\t\t\t)();\n\t\t\t\t\t\t\t\t&lt;\/script&gt;\n\t\t\t\t\t\t\t`;xmlDoc.documentElement.insertAdjacentHTML(&quot;afterbegin&quot;,injectedCode)}!0===mimeType.useXMLparser?args[0]=[(new XMLSerializer).serializeToString(xmlDoc)]:args[0][0]=xmlDoc.documentElement.outerHTML}}}return((constructor,args)=&gt;{const bind=Function.bind;return new(bind.bind(bind)(constructor,null).apply(null,args))})(_Blob,args)}let propNames=Object.getOwnPropertyNames(_Blob);for(let i=0;i&lt;propNames.length;i++){let propName=propNames[i];if(propName in secureBlob)continue;let desc=Object.getOwnPropertyDescriptor(_Blob,propName);Object.defineProperty(secureBlob,propName,desc)}return secureBlob.prototype=_Blob.prototype,secureBlob}(Blob),&quot;undefined&quot;!=typeof chrome?setInterval((()=&gt;{chrome.runtime.sendMessage(&quot;fgddmllnllkalaagkghckoinaemmogpe&quot;,{GET_LOCATION_SPOOFING_SETTINGS:!0},(response=&gt;{updateHookedObj(response)}))}),500):void 0!==eventName&amp;&amp;document.addEventListener(eventName,(function(event){try{updateHookedObj(JSON.parse(event.detail))}catch(ex){}}))})();</script>
  <path
     d="m 43.804488,1.6526302 c -4.102,1.11 -10.852,3.316 -15,4.902 -4.148,1.585 -11.242,3.37 -15.765,3.9669998 -11.9010003,1.569 -14.8150003,4.021 -12.10000032,10.182 1.76600002,4.007 5.34900002,4.883 24.17800032,5.914 12.651,0.693 16.382,1.278 22.646,3.555 9.7,3.525 14.369,6.711 19.762,13.483 11.686,14.674 12.876,15.738 27.42,24.5 0.913,0.55 4.991,4.021 9.062002,7.714 6.627,6.012 16.132,11.75 19.506,11.776 0.688,0.006 1.25,0.46 1.25,1.01 0,0.55 -0.395,1 -0.879,1 -0.483,0 -1.426,1.321 -2.094,2.936 -0.942,2.274 -0.952,4.02 -0.043,7.75 0.645,2.648 1.635,7.064 2.2,9.814 0.566,2.75 1.43,5.781 1.922,6.736 0.492,0.955 0.894,3.148 0.894,4.873 0,2.674 0.221,2.953 1.5,1.891 0.825,-0.685 1.537,-2.652 1.582,-4.372 l 0.081,-3.128 1.521,3.494 c 0.837,1.922 1.761,5.072 2.054,7 0.293,1.928 1.112,4.181 1.819,5.006 0.708,0.825 1.595,2.734 1.972,4.243 0.888,3.559 2.793,2.403 2.241,-1.359 -0.376,-2.558 -0.247,-2.724 1.153,-1.483 2.451,2.171 8.902,5.563 13.632,7.169 5.496,1.866 18.445,2.898 18.445,1.47 0,-0.572 0.664,-1.04 1.475,-1.04 1.159,0 1.396,-1.125 1.109,-5.25 -0.2,-2.887 -0.687,-6.15 -1.081,-7.25 -1.75,-4.884 -3.625,-8.161 -5.858,-10.24 -3.333,-3.103 -3.687,-5.359 -1.55,-9.876 1.01,-2.136 1.852,-4.76 1.871,-5.83 0.023,-1.321 1.032,-0.371 3.144,2.959 1.711,2.697 7.861,10.098 13.666,16.446 6.637,7.256 11.472,13.54 13.024,16.924 l 2.469,5.384 -2.041,4.201 c -3.115,6.412 -9.166,15.532 -10.304,15.532 -0.619,0 -0.757,-1.372 -0.355,-3.517 0.386,-2.058 0.149,-4.75 -0.572,-6.491 -1.937,-4.675 -10.515,-8.915 -15.097,-7.46 -2.384,0.756 -1.515,2.468 1.255,2.468 4.826,0 9.999,6.551 6.755,8.556 -1.252,0.774 -0.328,7.222 1.322,9.218 0.579,0.701 0.876,1.397 0.661,1.548 -2.16,1.504 -7.631,3.056 -13.34,3.786 -6.693,0.854 -9.657,2.122 -8.25,3.528 0.917,0.917 24.913,1.778 27.995,1.004 1.575,-0.395 2.721,-1.579 3.139,-3.244 0.635,-2.53 0.725,-2.56 2.61,-0.853 1.908,1.726 1.953,1.669 1.953,-2.469 0,-3.59 0.909,-5.487 5.952,-12.429 7.438,-10.238 8.325,-14.167 4.788,-21.229 -4.901,-9.785 -11.743,-29.746 -10.591,-30.898 0.233,-0.234 3.473,0.682 7.198,2.034 4.773,1.733 11.262,2.891 21.964,3.921 15.788,1.52 24.421,3.664 25.439,6.318 0.603,1.571 -4.182,11.641 -7.696,16.194 -2.365,3.065 -3.874,2.023 -1.656,-1.143 3.99,-5.696 0.361,-14.446 -6.998,-16.875 -3.296,-1.088 -6.62,-0.302 -3.457,0.818 2.625,0.929 6.057,5.088 6.057,7.341 0,1.219 -0.774,3.072 -1.72,4.117 -3.263,3.605 -2.174,12.757 1.518,12.757 0.95,0 2.172,0.844 2.715,1.875 0.543,1.032 1.864,3.394 2.936,5.25 1.09,1.887 2.238,6.357 2.604,10.135 0.423,4.368 1.292,7.464 2.456,8.75 2.53,2.796 3.348,2.489 3.355,-1.26 0.003,-1.787 0.086,-6.222 0.183,-9.855 0.098,-3.633 -0.322,-7.541 -0.934,-8.684 -1.485,-2.775 -1.406,-4.261 0.193,-3.647 0.976,0.375 1.26,-0.706 1.126,-4.281 -0.151,-4.034 0.365,-5.531 3.301,-9.562 3.944,-5.416 6.619,-13.092 5.766,-16.543 -0.653,-2.646 -7.819,-6.329 -16.931,-8.702 -6.268,-1.633 -9.417,-3.406 -14.568,-8.201 -1.925,-1.791 -3.778,-3.262 -4.118,-3.266 -0.34,-0.005 -0.544,-4.261 -0.452,-9.458 0.188,-10.58 0.994,-12.194 7.837,-15.686 3.753,-1.916 21.495,-5.877 44.149,-9.857 6.554,-1.152 20.279,-4.332 30.5,-7.068 10.221,-2.736 26.459,-6.753 36.084,-8.928 9.625,-2.175 25.52,-5.767 35.322,-7.984 23.484,-5.309 39.544,-6.996 62.386,-6.552 10.015,0.195 18.646,0.625 19.181,0.955 0.535,0.331 1.26,0.137 1.611,-0.431 0.351,-0.568 1.068,-0.767 1.593,-0.442 1.728,1.068 11.907,1.289 11.907,0.258 0,-0.603 1.567,-0.727 4,-0.316 2.2,0.372 4,0.299 3.999,-0.162 0,-0.461 2.812,-0.749 6.25,-0.64 7.542,0.24 28.178,-2.331 31.985,-3.985 1.504,-0.653 2.941,-1.726 3.194,-2.385 0.542,-1.413 -2.743,-1.814 -27.428,-3.347 -60.39,-3.751 -87.161,-1.04 -178.401,18.069 -37.697,7.895 -64.966,9.841 -90.099,6.431 -26.096,-3.541 -35.937,-4.467 -59.33,-5.584 -29.376,-1.402 -42.34,-0.276 -61.005,5.298 -4.652,1.389 -9.359002,0.266 -12.387002,-2.957 -1.415,-1.506 -4.359,-7.322 -6.541,-12.925 -2.183,-5.603 -5.405,-11.999 -7.159,-14.215 -7.461,-9.4189998 -23.794,-13.2269998 -39.037,-9.1009998"
     stroke="none"
     fill="#594e4d"
     fill-rule="evenodd"
     id="path1"
     style="fill:#555555;fill-opacity:1" />
</svg>
