<?xml version="1.0" encoding="UTF-8" standalone="no"?>
<!-- Created with Inkscape (http://www.inkscape.org/) -->

<svg
   width="136.64851mm"
   height="60.903259mm"
   viewBox="0 0 136.64851 60.903259"
   version="1.1"
   id="svg1"
   xml:space="preserve"
   sodipodi:docname="Footbal_Field-top.svg"
   inkscape:version="1.3 (0e150ed, 2023-07-21)"
   xmlns:inkscape="http://www.inkscape.org/namespaces/inkscape"
   xmlns:sodipodi="http://sodipodi.sourceforge.net/DTD/sodipodi-0.dtd"
   xmlns="http://www.w3.org/2000/svg"
   xmlns:svg="http://www.w3.org/2000/svg"><sodipodi:namedview
     id="namedview1"
     pagecolor="#505050"
     bordercolor="#ffffff"
     borderopacity="1"
     inkscape:showpageshadow="0"
     inkscape:pageopacity="0"
     inkscape:pagecheckerboard="1"
     inkscape:deskcolor="#505050"
     inkscape:document-units="mm"
     inkscape:zoom="1.1831131"
     inkscape:cx="243.00297"
     inkscape:cy="131.0103"
     inkscape:current-layer="layer1" /><defs
     id="defs1" /><g
     inkscape:label="Layer 1"
     inkscape:groupmode="layer"
     id="layer1"
     transform="translate(-36.822559,-120.08983)"><path
       id="rect1"
       style="fill:#ffffff;fill-opacity:1;stroke-width:1.993;stroke-linecap:round;stroke-linejoin:round;paint-order:markers stroke fill"
       d="m 36.822559,120.08983 v 60.90326 h 10.898559 v -60.90326 z m 11.899015,0 v 60.90326 h 4.650879 v -60.90326 z m 5.552116,0 v 60.90326 h 4.785237 v -60.90326 z m 5.686474,0 v 60.90326 h 4.784721 v -60.90326 z m 5.686475,0 v 60.90326 h 4.784721 v -60.90326 z m 5.685958,0 v 60.90326 h 4.785237 v -60.90326 z m 5.686474,0 v 60.90326 h 4.785238 v -60.90326 z m 5.686475,0 v 60.90326 h 4.784721 v -60.90326 z m 5.685958,0 v 60.90326 h 4.785238 v -60.90326 z m 5.686475,0 v 60.90326 h 4.785237 v -60.90326 z m 5.686474,0 v 60.90326 h 4.784717 v -60.90326 z m 5.686477,0 v 60.90326 h 4.78472 v -60.90326 z m 5.68596,0 v 60.90326 h 4.78523 v -60.90326 z m 5.68647,0 v 60.90326 h 4.78472 v -60.90326 z m 5.68647,0 v 60.90326 h 4.78473 v -60.90326 z m 5.68596,0 v 60.90326 h 4.78524 v -60.90326 z m 5.68648,0 v 60.90326 h 4.78472 v -60.90326 z m 5.68647,0 v 60.90326 h 4.78472 v -60.90326 z m 5.68596,0 v 60.90326 h 4.78524 v -60.90326 z m 5.68647,0 v 60.90326 h 4.78473 v -60.90326 z m 5.68648,0 v 60.90326 h 4.65088 v -60.90326 z m 5.65082,0 v 60.90326 h 11.1926 v -60.90326 z" /></g></svg>
