<?xml version="1.0" encoding="UTF-8" standalone="no"?>
<!-- Created with Inkscape (http://www.inkscape.org/) -->

<svg
   xmlns:dc="http://purl.org/dc/elements/1.1/"
   xmlns:cc="http://creativecommons.org/ns#"
   xmlns:rdf="http://www.w3.org/1999/02/22-rdf-syntax-ns#"
   xmlns:svg="http://www.w3.org/2000/svg"
   xmlns="http://www.w3.org/2000/svg"
   xmlns:sodipodi="http://sodipodi.sourceforge.net/DTD/sodipodi-0.dtd"
   xmlns:inkscape="http://www.inkscape.org/namespaces/inkscape"
   width="398.31992"
   height="1245.2328"
   viewBox="0 0 105.38881 329.46785"
   version="1.1"
   id="svg8"
   inkscape:version="0.92.4 (5da689c313, 2019-01-14)"
   sodipodi:docname="Human_Female-front.svg">
  <defs
     id="defs2">
    <inkscape:path-effect
       effect="mirror_symmetry"
       start_point="89.213738,-37.767219"
       end_point="89.213738,293.9646"
       center_point="89.213738,128.09869"
       id="path-effect859"
       is_visible="true"
       mode="vertical"
       discard_orig_path="false"
       fuse_paths="false"
       oposite_fuse="false" />
    <inkscape:path-effect
       effect="mirror_symmetry"
       start_point="251.65989,0.16796977"
       end_point="251.65989,1253.9575"
       center_point="251.65989,627.06275"
       id="path-effect841"
       is_visible="true"
       mode="vertical"
       discard_orig_path="false"
       fuse_paths="false"
       oposite_fuse="false" />
    <inkscape:path-effect
       effect="mirror_symmetry"
       start_point="89.213735,-37.811661"
       end_point="89.213735,293.95736"
       center_point="89.213735,128.07285"
       id="path-effect835"
       is_visible="true"
       mode="vertical"
       discard_orig_path="false"
       fuse_paths="false"
       oposite_fuse="false" />
    <inkscape:path-effect
       effect="mirror_symmetry"
       start_point="89.213735,-37.811661"
       end_point="89.213735,293.95736"
       center_point="89.213735,128.07285"
       id="path-effect830"
       is_visible="true"
       mode="vertical"
       discard_orig_path="false"
       fuse_paths="false"
       oposite_fuse="false" />
    <inkscape:path-effect
       effect="mirror_symmetry"
       start_point="1500,0"
       end_point="1500,3000"
       center_point="1500,1500"
       id="path-effect865"
       is_visible="true"
       mode="vertical"
       discard_orig_path="false"
       fuse_paths="false"
       oposite_fuse="false" />
    <inkscape:path-effect
       effect="mirror_symmetry"
       start_point="396.875,-496.75002"
       end_point="396.875,296.99998"
       center_point="396.875,-99.87502"
       id="path-effect854"
       is_visible="true"
       mode="vertical"
       discard_orig_path="false"
       fuse_paths="false"
       oposite_fuse="false" />
    <inkscape:path-effect
       effect="mirror_symmetry"
       start_point="396.875,-496.75002"
       end_point="396.875,296.99998"
       center_point="396.875,-99.87502"
       id="path-effect843"
       is_visible="true"
       mode="vertical"
       discard_orig_path="false"
       fuse_paths="false"
       oposite_fuse="false" />
    <inkscape:path-effect
       oposite_fuse="false"
       fuse_paths="false"
       discard_orig_path="false"
       mode="vertical"
       is_visible="true"
       id="path-effect865-9"
       center_point="1500,1500"
       end_point="1500,3000"
       start_point="1500,0"
       effect="mirror_symmetry" />
    <inkscape:path-effect
       oposite_fuse="false"
       fuse_paths="false"
       discard_orig_path="false"
       mode="vertical"
       is_visible="true"
       id="path-effect854-4"
       center_point="396.875,-99.87502"
       end_point="396.875,296.99998"
       start_point="396.875,-496.75002"
       effect="mirror_symmetry" />
    <inkscape:path-effect
       oposite_fuse="false"
       fuse_paths="false"
       discard_orig_path="false"
       mode="vertical"
       is_visible="true"
       id="path-effect843-5"
       center_point="396.875,-99.87502"
       end_point="396.875,296.99998"
       start_point="396.875,-496.75002"
       effect="mirror_symmetry" />
    <inkscape:path-effect
       effect="mirror_symmetry"
       start_point="1500,0"
       end_point="1500,3000"
       center_point="1500,1500"
       id="path-effect865-5"
       is_visible="true"
       mode="vertical"
       discard_orig_path="false"
       fuse_paths="false"
       oposite_fuse="false" />
    <inkscape:path-effect
       effect="mirror_symmetry"
       start_point="396.875,-496.75002"
       end_point="396.875,296.99998"
       center_point="396.875,-99.87502"
       id="path-effect854-9"
       is_visible="true"
       mode="vertical"
       discard_orig_path="false"
       fuse_paths="false"
       oposite_fuse="false" />
    <inkscape:path-effect
       effect="mirror_symmetry"
       start_point="396.875,-496.75002"
       end_point="396.875,296.99998"
       center_point="396.875,-99.87502"
       id="path-effect843-3"
       is_visible="true"
       mode="vertical"
       discard_orig_path="false"
       fuse_paths="false"
       oposite_fuse="false" />
  </defs>
  <sodipodi:namedview
     id="base"
     pagecolor="#ffffff"
     bordercolor="#666666"
     borderopacity="1.0"
     inkscape:pageopacity="0.0"
     inkscape:pageshadow="2"
     inkscape:zoom="0.35355339"
     inkscape:cx="138.03864"
     inkscape:cy="609.33683"
     inkscape:document-units="mm"
     inkscape:current-layer="layer1"
     showgrid="false"
     inkscape:pagecheckerboard="true"
     inkscape:showpageshadow="false"
     borderlayer="true"
     units="px"
     showguides="true"
     inkscape:guide-bbox="true"
     inkscape:snap-page="true"
     inkscape:snap-object-midpoints="true"
     inkscape:snap-global="false"
     inkscape:window-width="1600"
     inkscape:window-height="837"
     inkscape:window-x="-8"
     inkscape:window-y="-8"
     inkscape:window-maximized="1"
     fit-margin-top="0"
     fit-margin-left="0"
     fit-margin-right="0"
     fit-margin-bottom="0" />
  <metadata
     id="metadata5">
    <rdf:RDF>
      <cc:Work
         rdf:about="">
        <dc:format>image/svg+xml</dc:format>
        <dc:type
           rdf:resource="http://purl.org/dc/dcmitype/StillImage" />
        <dc:title></dc:title>
      </cc:Work>
    </rdf:RDF>
  </metadata>
  <g
     inkscape:label="Layer 1"
     inkscape:groupmode="layer"
     id="layer1"
     transform="translate(-36.519286,35.503275)">
    <path
       style="fill:#555555;fill-opacity:1;stroke:none;stroke-width:0.96795344px;stroke-linecap:butt;stroke-linejoin:miter;stroke-opacity:1"
       d="m 178.74609,8.5566406 c -51.58042,0 -66.73987,61.4852044 -64.95117,101.3046894 1.56288,34.79271 -8.67185,64.26716 -10.1914,85.50195 -22.048408,11.11541 -70.907377,16.80562 -81.986332,48.59375 -8.869512,25.44877 -16.0491847,79.14366 -18.5625005,87.3457 0.8467423,0.3251 6.4934209,3.16233 13.0605465,6.49024 l -0.826172,0.97851 c 0,0 0.655231,3.49212 0.994141,22.79102 0.559295,31.83761 -4.520591,27.50114 -4.972656,72.37109 -0.452035,44.86997 3.16401,74.78283 7.232422,96.97657 4.068412,22.19376 6.330078,43.42311 6.330078,50.17773 0,6.75462 -1.809488,51.62364 -1.357422,64.65039 0.426554,12.29257 6.486396,19.85335 10.966797,23.09961 -1.29022,10.69811 -2.263495,21.46453 -2.798828,32.18555 -3.182134,63.72843 -9.124919,122.64585 -20.251953,233.22851 -7.4067354,73.60975 -35.885313,235.27105 -31.361329,239.13085 9.04793,7.7196 34.112703,10.9139 77.341797,12.8438 2.326304,0.1038 4.397107,0.2184 6.388672,0.3359 1.065453,6.2895 2.524729,13.3335 2.234375,20.4609 -0.159813,3.9233 -3.736344,11.1169 -4.953125,14.8399 -1.917857,5.8682 -1.470771,32.9127 2.076172,31.8984 h 55.939457 c 4.48514,0 3.30895,-28.0384 1.75781,-33.0918 -1.4668,-4.7791 -3.99533,-14.6696 -1.75781,-21.834 1.22981,-3.9378 2.09542,-8.6365 2.84179,-14.3574 15.93318,-1.246 30.94342,1.541 56.80664,1.541 25.86427,0 40.8747,-2.7873 56.8086,-1.541 0.74635,5.7208 1.61004,10.4196 2.83984,14.3574 2.23752,7.1644 -0.29105,17.0549 -1.75781,21.834 -1.55116,5.0534 -2.72732,33.0918 1.75781,33.0918 h 55.93945 c 3.54698,1.0143 3.9941,-26.0302 2.07618,-31.8984 -1.21675,-3.723 -4.79337,-10.9166 -4.95313,-14.8399 -0.29036,-7.1274 1.16892,-14.1714 2.23438,-20.4609 1.99156,-0.1175 4.06236,-0.2321 6.38867,-0.3359 43.22909,-1.9299 68.29387,-5.1242 77.3418,-12.8438 4.52398,-3.8598 -23.9546,-165.5211 -31.36133,-239.13085 -11.12704,-110.58266 -17.06982,-169.50008 -20.25196,-233.22851 -0.53533,-10.72102 -1.5086,-21.48744 -2.79882,-32.18555 4.48032,-3.24675 10.54028,-10.80816 10.96679,-23.09961 0.45207,-13.02675 -1.35742,-57.89577 -1.35742,-64.65039 0,-6.75462 2.26164,-27.98397 6.33008,-50.17773 4.0684,-22.19374 7.68246,-52.1066 7.23047,-96.97657 -0.45211,-44.86995 -5.52992,-40.53348 -4.97071,-72.37109 0.33903,-19.2989 0.99219,-22.79102 0.99219,-22.79102 l -1.2539,-0.75976 c 6.76504,-3.4297 12.62532,-6.37692 13.49023,-6.70899 -2.51332,-8.20204 -9.69299,-61.89693 -18.5625,-87.3457 -11.07896,-31.78813 -59.93792,-37.47834 -81.98633,-48.59375 -1.51956,-21.23479 -11.75428,-50.70924 -10.1914,-85.50195 C 245.48597,70.041845 230.32652,8.5566406 178.74609,8.5566406 Z M 70.378906,378.91211 c 1.296408,10.0524 4.778465,10.79558 5.039063,38.33008 0.447401,47.26948 3.579387,49.74346 -0.457031,73.84375 -2.006574,11.98063 -9.188447,35.30001 -17.160157,64.82031 -0.09058,-2.36687 -0.233699,-4.98595 -0.626953,-8.34375 -1.917861,-16.37563 3.841472,-51.67758 7.03125,-66.18555 7.007792,-31.87332 0.177422,-85.48901 5.113281,-95.52539 0,0 0.602027,-3.9315 1.060547,-6.93945 z m 216.734374,0 c 0.45852,3.00795 1.06055,6.93945 1.06055,6.93945 4.93587,10.03638 -1.89446,63.65207 5.11328,95.52539 3.18985,14.50797 8.9491,49.80992 7.03125,66.18555 -0.39315,3.35691 -0.53636,5.97537 -0.62695,8.3418 -7.9715,-29.51936 -15.15363,-52.838 -17.16016,-64.81836 -4.03642,-24.10029 -0.90443,-26.57427 -0.45703,-73.84375 0.2606,-27.5345 3.74265,-28.27768 5.03906,-38.33008 z"
       transform="matrix(0.26458333,0,0,0.26458333,41.920454,-37.767219)"
       id="path828"
       inkscape:connector-curvature="0" />
  </g>
</svg>
