<?xml version="1.0" encoding="UTF-8" standalone="no"?>
<!-- Created with Inkscape (http://www.inkscape.org/) -->

<svg
   xmlns:dc="http://purl.org/dc/elements/1.1/"
   xmlns:cc="http://creativecommons.org/ns#"
   xmlns:rdf="http://www.w3.org/1999/02/22-rdf-syntax-ns#"
   xmlns:svg="http://www.w3.org/2000/svg"
   xmlns="http://www.w3.org/2000/svg"
   xmlns:sodipodi="http://sodipodi.sourceforge.net/DTD/sodipodi-0.dtd"
   xmlns:inkscape="http://www.inkscape.org/namespaces/inkscape"
   width="2914.8425"
   height="2560.5146"
   viewBox="0 0 771.21873 677.46953"
   version="1.1"
   id="svg8"
   inkscape:version="0.92.4 (5da689c313, 2019-01-14)"
   sodipodi:docname="Human_Foot-side.svg"
   inkscape:export-filename="G:\Pictures\My Pictures\Vectors and SVGs\Foot1.png"
   inkscape:export-xdpi="96"
   inkscape:export-ydpi="96">
  <defs
     id="defs2" />
  <sodipodi:namedview
     id="base"
     pagecolor="#ffffff"
     bordercolor="#666666"
     borderopacity="1.0"
     inkscape:pageopacity="0.0"
     inkscape:pageshadow="2"
     inkscape:zoom="0.175"
     inkscape:cx="1239.8901"
     inkscape:cy="853.64813"
     inkscape:document-units="mm"
     inkscape:current-layer="layer1"
     showgrid="false"
     units="px"
     borderlayer="true"
     inkscape:showpageshadow="false"
     inkscape:pagecheckerboard="true"
     inkscape:window-width="1600"
     inkscape:window-height="837"
     inkscape:window-x="-8"
     inkscape:window-y="-8"
     inkscape:window-maximized="1"
     fit-margin-top="0"
     fit-margin-left="0"
     fit-margin-right="0"
     fit-margin-bottom="0" />
  <metadata
     id="metadata5">
    <rdf:RDF>
      <cc:Work
         rdf:about="">
        <dc:format>image/svg+xml</dc:format>
        <dc:type
           rdf:resource="http://purl.org/dc/dcmitype/StillImage" />
        <dc:title></dc:title>
      </cc:Work>
    </rdf:RDF>
  </metadata>
  <g
     inkscape:label="Layer 1"
     inkscape:groupmode="layer"
     id="layer1"
     transform="translate(-11.396427,390.54518)">
    <path
       style="color:#000000;font-style:normal;font-variant:normal;font-weight:normal;font-stretch:normal;font-size:medium;line-height:normal;font-family:sans-serif;font-variant-ligatures:normal;font-variant-position:normal;font-variant-caps:normal;font-variant-numeric:normal;font-variant-alternates:normal;font-feature-settings:normal;text-indent:0;text-align:start;text-decoration:none;text-decoration-line:none;text-decoration-style:solid;text-decoration-color:#000000;letter-spacing:normal;word-spacing:normal;text-transform:none;writing-mode:lr-tb;direction:ltr;text-orientation:mixed;dominant-baseline:auto;baseline-shift:baseline;text-anchor:start;white-space:normal;shape-padding:0;clip-rule:nonzero;display:inline;overflow:visible;visibility:visible;opacity:1;isolation:auto;mix-blend-mode:normal;color-interpolation:sRGB;color-interpolation-filters:linearRGB;solid-color:#000000;solid-opacity:1;vector-effect:none;fill:#555555;fill-opacity:1;fill-rule:nonzero;stroke:none;stroke-width:8.85384369;stroke-linecap:round;stroke-linejoin:round;stroke-miterlimit:4;stroke-dasharray:none;stroke-dashoffset:0;stroke-opacity:1;paint-order:markers stroke fill;color-rendering:auto;image-rendering:auto;shape-rendering:auto;text-rendering:auto;enable-background:accumulate"
       d="m 598.59556,-390.54102 c 20.60162,-0.0865 41.01237,1.17922 60.47071,3.39649 51.88889,5.91272 96.8361,18.48279 121.15624,31.07812 1.93856,1.00354 2.85637,3.27028 2.16211,5.33985 -48.24587,143.79163 -71.79982,228.31791 -78.11914,291.042966 -6.31931,62.7250606 4.32261,103.787896 25.08594,162.302734 21.24768,59.87983 7.67571,104.96433 -23.11328,130.53906 -30.78899,25.57474 -77.7571,31.72729 -122.51953,17.13086 -43.88445,-14.31016 -73.63733,-29.81772 -105.63086,-35.34179 -31.99352,-5.52407 -44.28481,-3.13875 -122.11133,23.80078 -58.08616,20.10644 -89.61473,39.90052 -116.16992,45.5039 -26.55518,5.60339 -45.92902,2.06546 -70.89062,-7.53515 -23.47073,-9.0272 -50.77836,-8.2274 -74.625005,-7.04688 -11.92333,0.59026 -22.95697,1.26674 -32.41211,0.67774 -9.45514,-0.58901 -17.67063,-2.32103 -23.23438,-7.88477 -8.78405,-8.78404 -21.31956,-23.12527 -25.77929,-37.30859 -2.22987,-7.09167 -2.30178,-14.84845 2.48046,-20.78907 4.78225,-5.94061 13.31007,-9.20691 26.14649,-10.02929 16.99385,-1.08874 23.83859,-7.31646 31.25781,-14.38867 7.23716,-6.89867 15.28251,-14.95281 30.441415,-16.17969 0.14683,-0.48371 0.28764,-0.9723 0.5625,-1.48047 1.47968,-2.73565 4.15225,-3.99289 8.23242,-5.11133 4.08017,-1.11844 10.08882,-2.07691 19.61719,-2.90039 14.26278,-1.23265 21.76163,-0.41969 26.44922,0.043 4.68758,0.46266 5.60385,0.75243 10.35742,-1.42969 9.50714,-4.36427 31.67302,-19.87564 103.42578,-63.921903 71.48391,-43.881198 129.19106,-87.7784984 168.0625,-156.240235 38.87144,-68.461732 59.11294,-161.905472 54.44336,-305.328122 -0.0645,-2.0096 1.23332,-3.81031 3.16015,-4.38477 31.88901,-9.50939 66.75773,-13.41059 101.09375,-13.55469 z"
       id="path848"
       inkscape:connector-curvature="0"
       sodipodi:nodetypes="csccssssssssscsscssccssccssccc" />
  </g>
</svg>
