<?xml version="1.0" encoding="UTF-8" standalone="no"?>
<!-- Created with Inkscape (http://www.inkscape.org/) -->

<svg
   width="149.58099mm"
   height="21.462635mm"
   viewBox="0 0 149.581 21.462635"
   version="1.1"
   id="svg1"
   xml:space="preserve"
   inkscape:version="1.3 (0e150ed6c4, 2023-07-21)"
   sodipodi:docname="Human_Sperm-top.svg"
   xmlns:inkscape="http://www.inkscape.org/namespaces/inkscape"
   xmlns:sodipodi="http://sodipodi.sourceforge.net/DTD/sodipodi-0.dtd"
   xmlns="http://www.w3.org/2000/svg"
   xmlns:svg="http://www.w3.org/2000/svg"><sodipodi:namedview
     id="namedview1"
     pagecolor="#505050"
     bordercolor="#ffffff"
     borderopacity="1"
     inkscape:showpageshadow="0"
     inkscape:pageopacity="0"
     inkscape:pagecheckerboard="1"
     inkscape:deskcolor="#505050"
     inkscape:document-units="mm"
     inkscape:zoom="0.68754692"
     inkscape:cx="398.51825"
     inkscape:cy="233.43861"
     inkscape:window-width="1600"
     inkscape:window-height="837"
     inkscape:window-x="-8"
     inkscape:window-y="-8"
     inkscape:window-maximized="1"
     inkscape:current-layer="layer1" /><defs
     id="defs1" /><g
     inkscape:label="Layer 1"
     inkscape:groupmode="layer"
     id="layer1"
     transform="translate(-30.19135,-147.63956)"><path
       style="fill:#555555;fill-opacity:1"
       d="m 43.642785,168.89619 c 1.74138,0.29096 5.21424,0.27009 6.60994,-0.0397 2.06358,-0.36104 3.64813,-1.44569 4.86414,-3.08061 0.23025,-0.2877 0.49237,-1.00401 0.62688,-1.71312 l 0.14664,-0.773 0.73404,0.0159 c 0.49751,0.0108 0.75331,0.0661 0.79386,0.17181 0.14298,0.37261 0.95514,0.68206 1.66671,0.63505 0.21696,-0.0143 0.79689,-0.5238 0.79689,-0.70007 0,-0.18595 0.22973,-0.14358 0.30652,0.0565 0.0993,0.25877 0.65798,0.51444 1.16781,0.53441 0.50369,0.0197 0.95701,-0.23107 1.1839,-0.65501 0.16882,-0.31544 0.39838,-0.37326 0.54275,-0.13671 0.29751,0.4875 1.24861,0.70266 1.80448,0.40823 0.27376,-0.14501 0.65686,-0.54238 0.65686,-0.68133 0,-0.0475 0.1768,0.0905 0.39289,0.30657 0.34176,0.34176 0.46789,0.3929 0.96906,0.3929 0.51312,0 0.62186,-0.047 0.9938,-0.42997 0.22969,-0.23649 0.41763,-0.36859 0.41763,-0.29357 0,0.075 0.14247,0.2685 0.3166,0.42997 0.44635,0.41388 1.36316,0.41906 1.80434,0.0102 0.16817,-0.15586 0.30576,-0.33786 0.30576,-0.40445 0,-0.21671 0.2418,-0.12818 0.5837,0.21372 0.58039,0.58039 1.7934,0.493 2.15623,-0.15535 0.0875,-0.15631 0.15104,-0.13219 0.43622,0.16546 0.29062,0.30335 0.4146,0.34844 0.95807,0.34844 0.57906,0 0.66041,-0.0356 1.12355,-0.49112 0.27462,-0.27011 0.67298,-0.64101 0.88527,-0.82422 l 0.38597,-0.33309 1.84892,0.077 c 4.72714,0.19686 10.18009,0.7758 12.71132,1.34957 2.60633,0.59079 2.80934,0.65602 3.15656,1.01418 0.23441,0.24179 0.33479,0.26657 0.8089,0.19967 1.57895,-0.22279 1.51955,-0.22884 2.73688,0.27865 2.606165,1.08648 3.850625,1.39953 5.566385,1.40027 2.17685,9.4e-4 3.68989,-0.54634 4.93847,-1.78629 0.72504,-0.72004 2.37981,-2.99776 2.37981,-3.27572 0,-0.0831 0.0402,-0.15116 0.0893,-0.15116 0.0491,0 0.19128,-0.195 0.31594,-0.43334 0.12466,-0.23833 0.36726,-0.67715 0.53911,-0.97515 0.17185,-0.29799 0.82102,-1.54601 1.44261,-2.77338 1.92743,-3.80579 2.58811,-4.69266 4.0216,-5.39836 2.67611,-1.31745 4.843,-0.66395 5.71093,1.72232 0.2531,0.69586 0.49074,1.96552 0.76782,4.10229 0.36697,2.82997 1.15403,4.88995 2.26675,5.9328 0.97336,0.91224 3.12611,1.43557 4.95543,1.20467 1.21491,-0.15335 2.05026,-0.52031 3.13138,-1.37558 0.879,-0.69538 1.44929,-1.34256 2.68437,-3.04628 0.48378,-0.66735 0.93262,-1.27616 0.99743,-1.35293 0.0648,-0.0768 0.11782,-0.16444 0.11782,-0.19484 0,-0.0511 0.95485,-1.42098 2.07342,-2.9746 0.25786,-0.35816 0.46884,-0.67502 0.46884,-0.70413 0,-0.10921 0.77969,-0.98401 1.58539,-1.77878 1.0975,-1.08263 1.45046,-1.24697 2.69024,-1.25262 2.11572,-0.01 3.076,0.92912 4.42821,4.32894 1.07636,2.70623 2.30539,4.17878 4.27694,5.12437 1.83568,0.88041 4.18017,0.84032 6.89512,-0.11792 0.91516,-0.32301 2.01132,-0.74203 2.38639,-0.91224 0.20028,-0.0909 0.38938,-0.16525 0.42022,-0.16525 0.0309,0 0.543,-0.22664 1.13812,-0.50364 0.59511,-0.277 1.57603,-0.72581 2.17982,-0.99736 0.60379,-0.27155 1.4618,-0.66176 1.9067,-0.86714 0.44489,-0.20537 1.17291,-0.51331 1.6178,-0.6843 0.4449,-0.17099 0.91291,-0.35632 1.04002,-0.41183 0.43721,-0.19096 1.73454,-0.56106 2.46236,-0.70246 0.84415,-0.16401 3.96089,-0.081 4.70221,0.12526 0.25422,0.0707 0.59223,0.15446 0.75112,0.18608 l 0.2889,0.0575 -0.25632,-0.22552 c -0.72278,-0.63591 -4.11277,-0.84526 -6.33046,-0.39094 -1.56817,0.32126 -5.12736,1.52288 -9.47572,3.19911 -4.08084,1.57311 -6.18723,2.00525 -7.87739,1.61611 -2.64321,-0.60857 -3.8009,-1.8631 -4.955,-5.36948 -0.86516,-2.62849 -1.741,-3.82135 -3.37582,-4.59772 -0.84532,-0.40144 -0.94175,-0.42071 -2.10347,-0.42019 -1.9725,8.8e-4 -2.75451,0.35608 -4.50367,2.04566 -0.84658,0.81774 -2.66509,3.05885 -2.66509,3.28442 0,0.0823 -0.039,0.1498 -0.0867,0.14993 -0.0477,1.2e-4 -0.26867,0.27312 -0.49112,0.60667 -0.22245,0.33355 -0.43313,0.63246 -0.46818,0.66424 -0.0351,0.0318 -0.24305,0.31778 -0.46223,0.63556 -0.21917,0.31779 -0.42584,0.60379 -0.45926,0.63557 -0.0334,0.0318 -0.24106,0.29178 -0.46141,0.57779 -0.22036,0.286 -0.81702,0.94021 -1.32593,1.45379 -0.71352,0.72008 -1.15007,1.0475 -1.90752,1.43067 -0.86523,0.43769 -1.07868,0.49818 -1.79179,0.50779 -0.61001,0.008 -0.94292,-0.0518 -1.3506,-0.24341 -1.52898,-0.7187 -2.18135,-2.10897 -2.34515,-4.99776 -0.0414,-0.73091 -0.15,-1.79692 -0.24123,-2.36893 -0.15227,-0.95472 -0.24037,-1.32654 -0.62972,-2.65783 -0.39505,-1.35077 -1.39149,-2.60059 -2.52561,-3.16784 -1.34464,-0.67254 -2.23761,-0.86967 -3.94279,-0.87043 -1.63602,-7.3e-4 -2.63706,0.20372 -3.73159,0.7621 -1.47323,0.75159 -3.40956,2.81907 -4.60506,4.91698 -0.51861,0.91006 -1.8324,3.61918 -1.8324,3.7785 0,0.0913 -0.0432,0.18331 -0.0959,0.20449 -0.0528,0.0212 -0.27138,0.37653 -0.48585,0.78965 -1.03526,1.99419 -2.48737,3.51846 -3.74143,3.92737 -0.63426,0.20681 -2.15794,0.0908 -2.95694,-0.22507 -0.71206,-0.28153 -1.87605,-0.83646 -1.96448,-0.93655 -0.0318,-0.036 -0.29178,-0.2267 -0.577785,-0.42385 -0.52465,-0.36164 -1.01432,-0.83471 -1.79612,-1.73523 -0.44926,-0.51748 -0.9837,-0.66559 -1.17409,-0.32537 -0.0777,0.13876 -0.29026,0.10313 -1.30577,-0.2188 -2.8158,-0.89264 -7.5351,-1.94636 -11.15096,-2.48977 -0.88979,-0.13372 -2.08581,-0.31595 -2.65782,-0.40495 -0.57201,-0.089 -1.72708,-0.24328 -2.56682,-0.34282 l -1.52681,-0.181 -0.52501,-0.51757 c -0.28876,-0.28467 -0.62944,-0.51758 -0.75708,-0.51758 -0.12764,0 -0.37861,-0.164 -0.55771,-0.36445 -0.27634,-0.30927 -0.42606,-0.37277 -0.98905,-0.41946 -0.63242,-0.0524 -1.15628,0.0895 -1.35741,0.36771 -0.0414,0.0573 -0.21743,-0.008 -0.39115,-0.14426 -0.40251,-0.31662 -1.41744,-0.34324 -1.91353,-0.0502 -0.18459,0.10904 -0.33562,0.23904 -0.33562,0.28889 0,0.15785 -0.24257,0.0984 -0.53407,-0.13089 -0.46829,-0.36835 -1.11912,-0.41568 -1.71953,-0.12503 -0.28588,0.13839 -0.51978,0.30361 -0.51978,0.36715 0,0.0635 -0.15999,-0.0191 -0.35554,-0.18365 -0.52847,-0.44468 -1.41109,-0.44934 -2.08417,-0.011 -0.37067,0.2414 -0.43683,0.25248 -0.59041,0.0989 -0.2603,-0.26029 -1.00789,-0.3952 -1.48525,-0.26802 -0.22719,0.0605 -0.56412,0.2611 -0.74873,0.44571 l -0.33565,0.33565 -0.34329,-0.28886 c -0.30374,-0.25558 -0.42674,-0.28355 -1.06757,-0.24275 -0.5608,0.0357 -0.78956,0.10746 -1.01351,0.31785 -0.24906,0.23397 -0.31551,0.24993 -0.47829,0.11483 -0.40476,-0.33592 -0.68802,-0.40582 -1.30775,-0.32271 -0.51674,0.0693 -0.70523,0.16397 -1.10217,0.55354 -0.41995,0.41215 -0.54425,0.46993 -1.01083,0.46993 -0.48234,0 -0.53935,-0.0293 -0.61075,-0.31377 -0.0724,-0.28849 -0.26444,-0.74995 -0.72452,-1.74103 -0.3409,-0.73434 -1.44393,-1.69618 -2.57295,-2.24359 -1.95543,-0.94811 -5.51626,-1.1469 -8.89793,-0.49675 -4.70007,0.95098 -9.59917,3.15451 -12.34312,7.2964 -0.64879,1.10416 -0.75066,1.53657 -0.69341,2.94347 0.18826,4.62869 7.30384,7.91761 13.43771,8.94249 z"
       id="path2"
       sodipodi:nodetypes="sssscscssssssssssssssssssssscsssssssssssssssssssssssscssssssssssscscsssssssssssssssssccssssssssssssssscsssscssscscsssssssssscssssssssssssss" /><path
       style="fill:none;fill-opacity:1;stroke-width:2;stroke-linejoin:round"
       d="m 30.735571,159.0682 c 34.013799,-1.36056 60.952729,1.63266 68.0276,3.80954 7.074869,2.17689 9.251749,0.81633 11.156529,-2.99321 1.90477,-3.80955 4.62587,-12.51708 9.52386,-11.42864 4.89799,1.08844 4.35377,12.78919 9.25175,13.60552 4.89799,0.81633 7.6191,-7.34698 14.14975,-10.34019 6.53064,-2.99322 5.71431,9.52386 13.87762,9.52386 8.16332,0 12.24497,-6.25854 20.95251,-6.25854"
       id="path3" /></g></svg>
