<?xml version="1.0" encoding="UTF-8" standalone="no"?>
<!-- Created with Inkscape (http://www.inkscape.org/) -->

<svg
   width="160.36465mm"
   height="139.82561mm"
   viewBox="0 0 160.36465 139.82561"
   version="1.1"
   id="svg1"
   xml:space="preserve"
   inkscape:version="1.3 (0e150ed, 2023-07-21)"
   sodipodi:docname="Keratinocyte_Skin_Cell-top.svg"
   xmlns:inkscape="http://www.inkscape.org/namespaces/inkscape"
   xmlns:sodipodi="http://sodipodi.sourceforge.net/DTD/sodipodi-0.dtd"
   xmlns="http://www.w3.org/2000/svg"
   xmlns:svg="http://www.w3.org/2000/svg"><sodipodi:namedview
     id="namedview1"
     pagecolor="#505050"
     bordercolor="#ffffff"
     borderopacity="1"
     inkscape:showpageshadow="0"
     inkscape:pageopacity="0"
     inkscape:pagecheckerboard="1"
     inkscape:deskcolor="#505050"
     inkscape:document-units="mm"
     inkscape:zoom="0.65008588"
     inkscape:cx="351.49202"
     inkscape:cy="289.19256"
     inkscape:current-layer="layer1" /><defs
     id="defs1" /><g
     inkscape:label="Layer 1"
     inkscape:groupmode="layer"
     id="layer1"
     transform="translate(-26.068235,-88.825121)"><path
       style="fill:#555555;stroke-width:0.3;stroke-linecap:round;stroke-linejoin:round"
       d="m 35.598568,184.29189 c 4.487656,20.19278 5.086252,16.96756 8.106793,20.8898 3.020545,3.92224 27.171811,20.08278 41.581446,22.72891 14.409634,2.64613 40.758383,-1.58157 53.773713,-16.2754 13.01532,-14.69383 16.83468,-13.36776 28.15603,-21.65529 11.32136,-8.28753 25.46624,-29.8892 16.23934,-47.63898 -9.2269,-17.74977 -11.60891,-13.38509 -16.9643,-25.12159 -5.35539,-11.7365 -9.56683,-19.006389 -12.48772,-18.814963 -2.9209,0.191426 -22.91592,-1.973966 -33.7789,-6.112383 C 109.362,88.153575 100.69594,88.146788 89.650751,90.050452 78.605567,91.954116 60.84953,96.84524 54.865444,95.379465 c -5.984084,-1.465779 -8.743273,1.454126 -12.050921,6.124665 -3.307652,4.67054 -9.578057,18.15958 -14.115169,34.85309 -4.537113,16.6935 -3.794176,13.1894 6.899214,47.93467 z"
       id="path1" /></g></svg>
