<?xml version="1.0" encoding="UTF-8" standalone="no"?>
<!-- Created with Inkscape (http://www.inkscape.org/) -->

<svg
   width="155.92999mm"
   height="91.739998mm"
   viewBox="0 0 155.93 91.739998"
   version="1.1"
   id="svg1"
   xml:space="preserve"
   inkscape:version="1.3 (0e150ed, 2023-07-21)"
   sodipodi:docname="African_Elephant-side.svg"
   xmlns:inkscape="http://www.inkscape.org/namespaces/inkscape"
   xmlns:sodipodi="http://sodipodi.sourceforge.net/DTD/sodipodi-0.dtd"
   xmlns="http://www.w3.org/2000/svg"
   xmlns:svg="http://www.w3.org/2000/svg"><sodipodi:namedview
     id="namedview1"
     pagecolor="#505050"
     bordercolor="#ffffff"
     borderopacity="1"
     inkscape:showpageshadow="0"
     inkscape:pageopacity="0"
     inkscape:pagecheckerboard="1"
     inkscape:deskcolor="#505050"
     inkscape:document-units="mm"
     inkscape:zoom="5.5664597"
     inkscape:cx="530.49877"
     inkscape:cy="226.89466"
     inkscape:current-layer="layer1" /><defs
     id="defs1" /><g
     inkscape:label="Layer 1"
     inkscape:groupmode="layer"
     id="layer1"
     transform="translate(-22.787037,-130.31588)"><path
       style="fill:#555555;stroke-width:2.021;stroke-linejoin:round"
       d="m 162.64114,177.22804 c 1.69545,2.84014 3.26532,8.47167 3.90456,9.60592 0.63924,1.13425 0.96268,3.84189 1.15303,6.31062 0.19035,2.46873 0.73743,2.09568 0.84498,3.74674 0.10754,1.65106 0.60666,1.62364 1.00314,3.24416 0.39647,1.62051 2.87324,9.9564 3.8258,12.74276 0.95257,2.78636 3.65524,4.98286 2.55434,5.93493 -1.1009,0.95206 -11.8539,3.35112 -13.55894,2.52855 -1.70505,-0.82257 0.65971,-1.69926 1.40725,-2.66471 0.74753,-0.96546 1.22963,-4.99037 0.0237,-8.35607 -1.20598,-3.36569 -2.22867,-9.78784 -5.78566,-12.59928 -3.557,-2.81143 -6.95136,-3.54655 -6.95136,-3.54655 -3.58803,5.39742 -4.17991,7.12379 -4.11341,7.9741 0.0665,0.8503 -1.27212,1.89903 -0.97928,2.79464 0.29284,0.89561 -0.8109,2.94121 -1.30883,8.45815 -0.49794,5.51695 1.44985,7.69276 -0.59724,8.10752 -2.04709,0.41476 -17.73883,1.25975 -15.91792,-1.14566 1.82092,-2.4054 5.86881,-6.0015 7.63035,-11.92199 1.76154,-5.92048 3.56231,-11.3111 0.81987,-16.87388 -9.3737,-0.18575 -17.53824,0.10773 -24.57946,-3.19642 -7.04121,-3.30415 -10.05208,-5.63449 -10.05208,-5.63449 -0.57027,4.08273 -0.94859,4.89506 -0.74497,8.23935 0.20362,3.34429 -0.22377,7.19838 0.37625,12.98323 0.60002,5.78485 0.56684,10.50261 0.46647,11.40413 -0.10038,0.90151 2.69276,3.43237 2.75705,5.06967 0.0643,1.63731 -11.381036,1.98906 -13.405879,1.26412 -2.024843,-0.72495 -1.026375,-2.23371 0.663945,-3.03127 1.69032,-0.79756 3.714766,-2.16428 2.550628,-4.29607 -1.164137,-2.1318 -1.778023,-3.97188 -1.843079,-6.52573 -0.06506,-2.55384 -3.463442,-13.47799 -3.463442,-13.47799 -7.785989,5.43031 -13.141224,9.87807 -13.800076,13.14217 -0.658852,3.26411 -0.01288,4.79445 1.168215,7.13094 1.181105,2.33649 1.833853,4.35222 -0.706089,4.99554 -2.539941,0.64332 -8.441118,1.05416 -11.595727,-0.78988 -3.154608,-1.84403 1.931565,-4.18075 3.12532,-5.00319 1.193752,-0.82244 0.323868,-4.48538 0.05688,-7.27557 -0.266983,-2.7902 0.344697,-4.63129 3.241,-9.39868 2.896307,-4.76738 7.060097,-10.7159 8.598641,-15.65531 1.538542,-4.93941 0.773893,-12.36303 0.773893,-12.36303 -0.956286,-0.11243 -1.517462,-1.01323 -1.517462,-1.01323 -3.325744,1.88555 -7.220686,3.43103 -9.137785,3.20648 -1.917097,-0.22455 -1.792102,-1.55207 -1.393978,-3.1252 0.398121,-1.57312 0.673975,-4.94475 0.673975,-4.94475 -2.453486,-0.13678 -3.251924,0.46236 -4.484359,1.01768 -1.232434,0.55531 -3.122448,0.14224 -3.122448,0.14224 -0.712597,1.35029 -1.448216,1.60774 -1.892102,1.74827 -0.443886,0.14053 -0.889053,2.38939 -1.766771,2.22504 -0.877715,-0.16436 -1.518864,-1.63011 -1.619395,-2.19564 -0.100532,-0.56552 -0.265677,0.44558 -1.138569,0.54542 -0.872892,0.0999 -0.892212,-0.50739 -1.759675,0.31916 -0.867463,0.82655 -0.442986,2.27099 -1.18251,2.82772 -0.739523,0.55674 -0.702455,1.56033 -1.165889,2.06386 -0.463436,0.50353 0.274333,1.0842 0.350737,1.63883 0.0764,0.55462 -0.559837,0.95924 -0.429876,1.48044 0.129958,0.5212 -0.213641,1.23813 -0.149702,1.72648 0.06394,0.48836 -0.09051,5.63751 0.16727,6.10081 0.257773,0.4633 -0.663493,1.03788 -0.204669,1.28152 0.458828,0.24364 -0.429119,0.7291 -0.03006,1.15146 0.399058,0.42236 -0.193294,1.29221 0.02291,1.69096 0.21622,0.39876 -0.205539,1.0169 0.01116,1.56162 0.216713,0.54471 -0.309279,1.5288 0.08667,1.93511 0.395944,0.4063 -0.394464,1.34817 -0.06771,1.69688 0.326755,0.34871 0.204628,0.9409 -0.03294,1.27743 -0.23757,0.33652 0.542718,0.77879 0.506743,1.15486 -0.03597,0.37607 -0.565367,0.2855 -0.267378,0.83424 0.297987,0.54875 0.531874,0.92223 0.224261,1.1324 -0.30761,0.21018 -0.355494,0.65924 -0.09559,1.02824 0.259898,0.36899 0.378243,0.94871 0.07629,1.14949 -0.301951,0.20077 -0.245809,0.86918 -0.05031,1.18005 0.195498,0.31087 0.04344,0.74484 -0.116289,1.0055 -0.159735,0.26065 -0.05179,1.19122 0.143256,1.39601 0.195048,0.2048 0.432019,1.27601 0.02784,1.7095 -0.40418,0.43349 0.04445,0.35463 0.04253,0.87709 -0.0019,0.52246 -0.41185,0.846 -0.253955,1.16557 0.157898,0.31956 0.284909,0.69455 0.06125,0.82765 -0.223657,0.1331 0.330285,0.81288 0.06816,1.00965 -0.262128,0.19677 -0.631907,0.44501 -0.454621,0.97153 0.177287,0.52651 0.100878,1.45872 0.307518,1.82696 0.206642,0.36825 -0.05876,0.46766 0.355338,0.71536 0.414096,0.2477 -0.0039,0.69588 0.22497,0.85181 0.228885,0.15593 0.339513,0.60137 0.7699,0.72934 0.43039,0.12796 1.262107,0.48973 1.571747,0.48973 0.309642,0 1.08418,0.55811 1.140431,0.82942 0.05625,0.27131 -1.038061,0.18055 -1.272112,0.39467 -0.23405,0.21411 -0.201139,0.95531 -0.0088,1.22331 0.192317,0.268 1.326536,0.7673 1.281583,1.0736 -0.04495,0.3063 -1.668412,0.38737 -2.427285,0.0975 -0.758872,-0.28986 -3.327273,-1.8031 -4.689409,-4.26618 -1.362135,-2.46308 -1.460738,-4.50008 -1.996929,-8.49806 -0.536191,-3.99798 -1.920856,-13.18583 -2.893883,-18.41981 -0.973024,-5.23398 -1.737143,-9.87229 -2.041498,-11.73836 -6.574483,2.26066 -9.326854,2.45581 -17.592597,-0.62921 -0.71329,-0.23751 0.141862,-0.87583 1.742256,-0.27114 1.600394,0.60469 4.640647,0.75868 7.503044,0.2027 -3.951293,-0.0115 -8.590409,-1.81529 -8.009543,-2.2041 0.580866,-0.38881 1.705804,0.15685 4.271412,0.2649 2.565609,0.10805 9.359291,-0.51554 12.320875,-1.89819 -0.06097,-4.51235 1.698723,-10.67141 4.257977,-14.00606 2.559254,-3.33466 2.873849,-5.34097 4.235291,-8.75611 1.361442,-3.41514 4.826765,-8.46078 7.458525,-10.65482 2.631759,-2.19405 3.781973,-3.87218 6.861754,-4.19332 3.079782,-0.32114 4.608397,-0.49875 5.933202,0.17848 1.324806,0.67724 1.663913,-0.10782 2.707642,-0.54046 1.043729,-0.43264 5.45957,-1.08751 9.213808,-1.31156 3.754238,-0.22404 4.381308,-0.35861 7.174479,1.56415 2.749109,0.0295 3.016325,0.0652 4.394929,0.55802 1.378604,0.49282 5.372331,2.45831 8.126076,3.15936 2.75374,0.70105 10.87843,3.64032 13.99284,4.55835 3.11441,0.91803 8.25286,-0.28217 10.55831,-1.61671 2.30546,-1.33454 8.67033,-2.85759 17.01965,0.21953 8.34932,3.07711 13.2627,5.18624 18.05081,12.52265 4.7881,7.33641 5.71804,12.84012 5.82983,15.88745 0.11179,3.04732 1.14504,7.73447 1.66768,11.29161 0.52265,3.55713 0.82557,5.84238 1.53654,8.44647 0.53186,1.94809 2.65173,10.17182 3.33319,10.86269 0.68145,0.69087 2.21955,0.57885 2.8123,2.9723 0.59275,2.39345 -0.27168,4.40314 0.38681,5.78816 0.65849,1.38501 2.57958,4.62394 2.26162,6.72149 -0.31796,2.09755 -2.77931,2.21824 -4.34735,0.56346 -1.56804,-1.65478 -5.01056,-11.11469 -4.96958,-13.41869 0.041,-2.30401 0.45798,-4.5148 0.80036,-5.41366 0.34239,-0.89887 -1.58011,-6.30931 -2.46962,-9.2394 -1.02735,-3.38415 -2.39045,-9.20793 -2.77643,-12.49577 -0.38598,-3.28784 -0.40407,-3.3102 -0.8139,-2.57351 -0.40983,0.73669 -1.12859,1.28587 -1.09751,2.11263 0.0311,0.82675 -0.0904,2.12253 -0.24764,2.67751 -0.15726,0.55498 -0.39848,0.84177 -0.11949,1.63967 z"
       id="path1"
       sodipodi:nodetypes="csssssssssscsssssscscsssssssscssssssssccsscscssscsssssssssssssssssssssssssssssssssssssssssccscsscssssssscsssssssssssssssssssssc" /></g></svg>
