<?xml version="1.0" encoding="UTF-8" standalone="no"?>
<!-- Created with Inkscape (http://www.inkscape.org/) -->

<svg
   width="156.75417mm"
   height="97.248688mm"
   viewBox="0 0 156.75417 97.248688"
   version="1.1"
   id="svg1"
   xml:space="preserve"
   inkscape:version="1.4 (86a8ad7, 2024-10-11)"
   sodipodi:docname="American_Bison-side.svg"
   xmlns:inkscape="http://www.inkscape.org/namespaces/inkscape"
   xmlns:sodipodi="http://sodipodi.sourceforge.net/DTD/sodipodi-0.dtd"
   xmlns="http://www.w3.org/2000/svg"
   xmlns:svg="http://www.w3.org/2000/svg"><sodipodi:namedview
     id="namedview1"
     pagecolor="#505050"
     bordercolor="#ffffff"
     borderopacity="1"
     inkscape:showpageshadow="0"
     inkscape:pageopacity="0"
     inkscape:pagecheckerboard="1"
     inkscape:deskcolor="#505050"
     inkscape:document-units="mm"
     showguides="true"
     inkscape:zoom="1.0467522"
     inkscape:cx="470.9806"
     inkscape:cy="198.2322"
     inkscape:window-width="3440"
     inkscape:window-height="1377"
     inkscape:window-x="-8"
     inkscape:window-y="-8"
     inkscape:window-maximized="1"
     inkscape:current-layer="layer1" /><defs
     id="defs1" /><g
     inkscape:label="Layer 1"
     inkscape:groupmode="layer"
     id="layer1"
     transform="translate(-18.092367,-95.516964)"><path
       style="fill:#f5f5f5;stroke-width:4.43399;stroke-opacity:0.268839;paint-order:markers stroke fill"
       d="m 86.667127,192.76564 h -6.413936 c 0,0 -0.252767,-0.97947 0.252767,-2.11692 0.505531,-1.13745 1.16904,-1.86415 1.137446,-4.13904 -0.0316,-2.27489 -0.126383,-2.97 -0.947872,-3.6967 -0.821489,-0.72671 -2.148512,-5.43447 -2.68564,-7.58298 -0.537128,-2.14851 0.505534,-1.39021 -1.832552,-3.09638 -2.338086,-1.70618 -3.064788,-1.42181 -3.064788,-2.52766 0,-1.10585 0.537128,-4.42341 0.126384,-4.13905 -0.410745,0.28437 -2.559256,2.05373 -2.906808,2.87522 -0.347554,0.82148 -0.410747,-0.22118 -1.169043,-0.31596 -0.758298,-0.0948 -3.570319,-0.63192 -3.538725,-1.45341 0.0316,-0.82148 -1.137446,-2.43287 -2.053722,-2.11691 -0.916276,0.31596 -1.674575,-0.0316 -2.622447,-0.7583 -0.947873,-0.7267 -3.380745,-1.4534 -3.728297,-2.27489 -0.347554,-0.82149 -0.06319,-2.74883 -1.074256,-2.11692 -1.011065,0.63192 -2.148512,0.15798 -3.191171,-0.6951 -1.042659,-0.85309 -2.085319,-1.42181 -3.285956,-1.64298 -1.200639,-0.22117 -1.800957,-0.94787 -3.696702,-0.7583 -1.895745,0.18957 -3.001598,0.0316 -3.665107,0.94787 -0.663511,0.91628 -1.169042,2.62245 -1.295426,4.42341 -0.126383,1.80095 -0.726702,3.75989 -1.832552,4.86574 -1.105852,1.10585 -0.442341,2.52766 -3.285958,2.9384 -2.843617,0.41075 -4.739362,-0.50553 -5.244894,-1.29542 -0.505531,-0.78989 -2.306489,-3.38074 -2.685639,-5.24489 -0.379148,-1.86415 -1.074254,-3.85469 -1.10585,-5.15011 -0.0316,-1.29543 0.252767,-1.57979 -0.505532,-1.67457 -0.758298,-0.0948 -2.780426,-0.91628 -3.254362,-1.39022 -0.473936,-0.47393 -0.631915,-0.12638 -1.169042,-0.12638 -0.537128,0 -2.74883,-1.64298 -3.507128,-3.12798 -0.758298,-1.485 0.0316,-3.06479 0.06319,-6.19276 0.0316,-3.12798 1.358617,-5.52926 1.579788,-7.01426 0.22117,-1.485 0.44234,-1.57979 -0.315958,-2.33809 -0.758298,-0.75829 -0.884681,-2.71723 -0.916276,-5.52925 -0.0316,-2.81202 -0.379149,-3.0016 0.189574,-3.98106 0.568724,-0.97947 -0.252766,-0.44234 0.726702,-3.88628 0.979468,-3.44394 3.064787,-5.56085 4.360213,-7.01426 1.295425,-1.4534 4.139043,-3.94946 5.592447,-5.65563 1.453404,-1.70617 4.360212,-3.41234 5.782022,-3.60192 1.421807,-0.18957 3.85468,0.91628 5.624041,2.43287 1.769361,1.5166 2.654043,2.11692 3.85468,1.29543 1.20064,-0.82149 1.611384,-5.30809 4.834149,-7.77255 3.222768,-2.464472 5.150107,-3.127984 10.363407,-3.475535 5.213297,-0.347554 10.07904,-0.410745 13.396594,-1.485001 3.317553,-1.074256 8.151702,-2.022128 13.238618,-1.485 5.086913,0.537128 12.037978,1.485 17.75681,2.243299 5.71883,0.758296 7.89893,1.548191 16.90372,2.274897 9.00479,0.7267 13.68096,2.74883 19.87373,4.51819 6.19276,1.76936 11.72202,4.20223 14.28127,5.71883 2.55926,1.51659 5.52926,2.14851 6.98266,2.97 1.4534,0.82149 2.18011,2.55925 4.04425,3.98106 1.86416,1.42181 2.93841,3.09638 4.10745,3.63351 1.16904,0.53713 1.45341,1.10585 2.2749,4.17064 0.82149,3.06479 0.34755,5.33968 1.10585,7.77255 0.7583,2.43287 0.44234,6.28756 0.6951,7.93053 0.25277,1.64298 -1.29542,5.05532 -2.81202,3.7283 -1.51659,-1.32702 -2.59085,-3.00159 -2.74883,-3.57032 -0.15798,-0.56872 -0.85308,0.31596 -1.64298,2.55926 -0.78989,2.2433 -1.16904,7.01425 -1.73776,7.51978 -0.56873,0.50554 -2.55926,2.2433 -2.30649,3.82309 0.25276,1.57979 -0.53713,4.89734 0.60032,6.12957 1.13744,1.23224 1.26383,0.25277 1.4534,2.40128 0.18958,2.14851 1.16904,6.28756 0.97947,9.13117 -0.18957,2.84362 -0.34755,2.74883 0.22117,7.425 0.56872,4.67617 1.13744,7.80415 1.70617,9.32075 0.56872,1.51659 0.31595,3.41234 0.31595,3.41234 h -8.8784 c 0,0 0.15798,-1.07426 0.7583,-1.92734 0.60032,-0.85309 1.35862,-1.5166 0.97947,-3.31756 -0.37915,-1.80095 -0.12638,-6.85627 -0.97947,-9.98425 -0.85308,-3.12798 -2.1801,-6.98266 -4.20223,-9.73149 -2.02213,-2.74883 -2.14851,-1.99053 -3.47553,-3.12798 -1.32702,-1.13745 -5.2449,-4.64458 -5.65564,-6.25596 -0.41075,-1.61138 -3.53873,-5.75042 -3.94947,-6.28755 -0.41075,-0.53713 -0.25277,-0.66351 -0.97947,0.0632 -0.7267,0.7267 -5.65564,5.05532 -7.83574,5.81362 -2.18011,0.75829 -4.32862,3.60191 -7.14064,4.32861 -2.81202,0.72671 -6.41394,-0.63191 -6.03479,-0.94787 0.37915,-0.31596 -10.23702,-0.6951 -12.54351,-1.29542 -2.30649,-0.60032 -3.53872,-1.57979 -7.45659,-1.61139 -3.917879,-0.0316 -5.592453,-0.28436 -6.224368,0.37915 -0.631915,0.66351 0.758298,3.63351 0.600318,6.76149 -0.157977,3.12798 -1.484997,6.91947 -0.789892,8.43607 0.695105,1.51659 -2.338086,2.9068 -1.674574,3.82308 0.663511,0.91628 -2.148512,1.29543 -2.338086,2.33809 -0.189574,1.04266 -2.338083,2.9068 -3.380745,2.02212 -1.04266,-0.88468 -0.789893,1.16905 -0.695106,2.21171 0.09479,1.04266 0.979469,3.79148 0.663512,4.83414 -0.315958,1.04267 -0.916279,2.18011 -0.947873,3.47554 z"
       id="path1"
       sodipodi:nodetypes="ccsssssssssssssssssssssssssssssssssssssssssssssssssssssssssssssssccssssssssssssssssssssssc" /></g></svg>
