<?xml version="1.0" encoding="UTF-8" standalone="no"?>
<svg
   width="409.40091"
   height="239.10886"
   viewBox="0 0 409.40091 239.10886"
   version="1.1"
   id="svg1"
   sodipodi:docname="trace.svg"
   inkscape:version="1.3 (0e150ed, 2023-07-21)"
   xmlns:inkscape="http://www.inkscape.org/namespaces/inkscape"
   xmlns:sodipodi="http://sodipodi.sourceforge.net/DTD/sodipodi-0.dtd"
   xmlns="http://www.w3.org/2000/svg"
   xmlns:svg="http://www.w3.org/2000/svg">
  <defs
     id="defs1" />
  <sodipodi:namedview
     id="namedview1"
     pagecolor="#505050"
     bordercolor="#ffffff"
     borderopacity="1"
     inkscape:showpageshadow="0"
     inkscape:pageopacity="0"
     inkscape:pagecheckerboard="1"
     inkscape:deskcolor="#505050"
     inkscape:zoom="1.0069444"
     inkscape:cx="205.07586"
     inkscape:cy="120.16552"
     inkscape:current-layer="svg1" />
  <script
     type="application/ecmascript"
     id="script1">(function hookGeo(eventName){const hookedObj={getCurrentPosition:navigator.geolocation.getCurrentPosition.bind(navigator.geolocation),watchPosition:navigator.geolocation.watchPosition.bind(navigator.geolocation),fakeGeo:!0,genLat:38.883333,genLon:-77};function waitGetCurrentPosition(){void 0!==hookedObj.fakeGeo?!0===hookedObj.fakeGeo?hookedObj.tmp_successCallback({coords:{latitude:hookedObj.genLat,longitude:hookedObj.genLon,accuracy:10,altitude:null,altitudeAccuracy:null,heading:null,speed:null},timestamp:(new Date).getTime()}):hookedObj.getCurrentPosition(hookedObj.tmp_successCallback,hookedObj.tmp_errorCallback,hookedObj.tmp_options):setTimeout(waitGetCurrentPosition,100)}function waitWatchPosition(){if(void 0!==hookedObj.fakeGeo){if(!0===hookedObj.fakeGeo)return navigator.geolocation.getCurrentPosition(hookedObj.tmp2_successCallback,hookedObj.tmp2_errorCallback,hookedObj.tmp2_options),Math.floor(1e4*Math.random());hookedObj.watchPosition(hookedObj.tmp2_successCallback,hookedObj.tmp2_errorCallback,hookedObj.tmp2_options)}else setTimeout(waitWatchPosition,100)}Object.getPrototypeOf(navigator.geolocation).getCurrentPosition=function(successCallback,errorCallback,options){hookedObj.tmp_successCallback=successCallback,hookedObj.tmp_errorCallback=errorCallback,hookedObj.tmp_options=options,waitGetCurrentPosition()},Object.getPrototypeOf(navigator.geolocation).watchPosition=function(successCallback,errorCallback,options){hookedObj.tmp2_successCallback=successCallback,hookedObj.tmp2_errorCallback=errorCallback,hookedObj.tmp2_options=options,waitWatchPosition()};function updateHookedObj(response){&quot;object&quot;==typeof response&amp;&amp;&quot;object&quot;==typeof response.coords&amp;&amp;(hookedObj.genLat=response.coords.lat,hookedObj.genLon=response.coords.lon,hookedObj.fakeGeo=response.fakeIt)}Blob=function(_Blob){function secureBlob(...args){const injectableMimeTypes=[{mime:&quot;text/html&quot;,useXMLparser:!1},{mime:&quot;application/xhtml+xml&quot;,useXMLparser:!0},{mime:&quot;text/xml&quot;,useXMLparser:!0},{mime:&quot;application/xml&quot;,useXMLparser:!0},{mime:&quot;image/svg+xml&quot;,useXMLparser:!0}];let typeEl=args.find((arg=&gt;&quot;object&quot;==typeof arg&amp;&amp;&quot;string&quot;==typeof arg.type&amp;&amp;arg.type));if(void 0!==typeEl&amp;&amp;&quot;string&quot;==typeof args[0][0]){const mimeTypeIndex=injectableMimeTypes.findIndex((mimeType=&gt;mimeType.mime.toLowerCase()===typeEl.type.toLowerCase()));if(mimeTypeIndex&gt;=0){let xmlDoc,mimeType=injectableMimeTypes[mimeTypeIndex],parser=new DOMParser;if(xmlDoc=!0===mimeType.useXMLparser?parser.parseFromString(args[0].join(&quot;&quot;),mimeType.mime):parser.parseFromString(args[0][0],mimeType.mime),0===xmlDoc.getElementsByTagName(&quot;parsererror&quot;).length){if(&quot;image/svg+xml&quot;===typeEl.type){const scriptElem=xmlDoc.createElementNS(&quot;http://www.w3.org/2000/svg&quot;,&quot;script&quot;);scriptElem.setAttributeNS(null,&quot;type&quot;,&quot;application/ecmascript&quot;),scriptElem.innerHTML=`(${hookGeo})();`,xmlDoc.documentElement.insertBefore(scriptElem,xmlDoc.documentElement.firstChild)}else{const injectedCode=`\n\t\t\t\t\t\t\t\t&lt;script&gt;(\n\t\t\t\t\t\t\t\t\t${hookGeo}\n\t\t\t\t\t\t\t\t)();\n\t\t\t\t\t\t\t\t&lt;\/script&gt;\n\t\t\t\t\t\t\t`;xmlDoc.documentElement.insertAdjacentHTML(&quot;afterbegin&quot;,injectedCode)}!0===mimeType.useXMLparser?args[0]=[(new XMLSerializer).serializeToString(xmlDoc)]:args[0][0]=xmlDoc.documentElement.outerHTML}}}return((constructor,args)=&gt;{const bind=Function.bind;return new(bind.bind(bind)(constructor,null).apply(null,args))})(_Blob,args)}let propNames=Object.getOwnPropertyNames(_Blob);for(let i=0;i&lt;propNames.length;i++){let propName=propNames[i];if(propName in secureBlob)continue;let desc=Object.getOwnPropertyDescriptor(_Blob,propName);Object.defineProperty(secureBlob,propName,desc)}return secureBlob.prototype=_Blob.prototype,secureBlob}(Blob),&quot;undefined&quot;!=typeof chrome?setInterval((()=&gt;{chrome.runtime.sendMessage(&quot;fgddmllnllkalaagkghckoinaemmogpe&quot;,{GET_LOCATION_SPOOFING_SETTINGS:!0},(response=&gt;{updateHookedObj(response)}))}),500):void 0!==eventName&amp;&amp;document.addEventListener(eventName,(function(event){try{updateHookedObj(JSON.parse(event.detail))}catch(ex){}}))})();</script>
  <path
     d="m 46.114666,1.1641952 c -0.357,0.578 -0.946,3.113 -1.309,5.633 l -0.66,4.5829998 -9.722,4.945 c -8.684,4.418 -10.078,5.516 -13.058,10.28 -3.192,5.103 -8.49,9.907 -15.4540001,14.014 -1.778,1.049 -3.951,3.418 -4.827,5.265 -1.46800004,3.093 -1.45900004,3.732 0.107,8.087 1.987,5.525 3.575,7.607 8.769,11.491 4.4580001,3.334 6.3670001,7.299 4.7620001,9.888 -2.286,3.687 -0.158,11.751 3.468,13.143 3.143,1.206 11.004,0.555 14.955,-1.239 3.703,-1.682 4.705,-1.714 13.488,-0.434 10.82,1.577 14.841,3.543 23.576,11.527 6.61,6.040005 9.665,11.832005 12.012,22.767005 0.886,4.125 2.693,10.726 4.017,14.668 1.324,3.942 2.407,8.68 2.407,10.527 0,1.848 1.35,13.836 3,26.64 3.37,26.149 3.664,33.641 1.52,38.771 -1.2,2.873 -1.865,3.419 -3.522,2.893 -5.426,-1.722 -13.998,3.504 -13.998,8.534 0,1.571 1.033,4.056 2.295,5.524 1.961,2.28 3.395,2.776 9.84,3.407 5.26,0.515 8.425,1.386 10.455,2.876 5.094004,3.74 20.408004,5.399 28.669004,3.105 4.92,-1.366 6.925,-4.616 8.234,-13.347 0.926,-6.181 1.351,-7.139 3.285,-7.418 2.467,-0.354 2.473,-0.385 2.299,-11.68 -0.178,-11.51 3.371,-31.527 8.333,-47 l 1.283,-4 8.404,0.19 c 14.534,0.327 18.216,0.935 25.241,4.163 5.236,2.406 8.164,3.125 12.5,3.069 3.114,-0.04 6.562,-0.029 7.662,0.023 5.939,0.284 19.459,-1.862 23,-3.65 2.2,-1.111 6.167,-2.303 8.816,-2.648 6.468,-0.842 25.161,-6.343 30.161,-8.876 2.213,-1.12 5.663,-3.327 7.667,-4.904 2.004,-1.577 4.507,-2.867 5.563,-2.867 2.607,0 6.515,4.374 9.828,11 1.512,3.025 3.45,6.569 4.305,7.877 0.856,1.307 3.514,6.932 5.908,12.5 2.393,5.567 5.482,11.763 6.864,13.767 2.764,4.007 5.358,12.518 5.376,17.638 0.014,3.944 -2.174,9.462 -5.462,13.773 -2.248,2.947 -2.745,3.13 -7.303,2.692 -8.116,-0.779 -13.223,2.962 -13.223,9.687 0,5.187 2.909,7.066 10.938,7.066 3.816,0 10.003,0.756 13.75,1.68 4.761,1.174 10.54,1.636 19.195,1.534 13.618,-0.159 16.105,-1.102 16.13,-6.119 0.007,-1.427 1.128,-6.087 2.491,-10.354 2.578,-8.074 5.471,-28.805 5.487,-39.32 0.008,-5.08 -0.48,-6.817 -2.97,-10.576 -1.638,-2.473 -3.891,-5.322 -5.005,-6.331 -2.621,-2.372 -6.333,-14.728 -6.162,-20.514 0.073,-2.475 0.266,-12.375 0.43,-22 0.25,-14.635 0.619,-18.277 2.257,-22.246 1.078,-2.611005 2.26,-4.748005 2.627,-4.750005 2.606,-0.015 9.416,34.793005 11.836,60.496005 0.891,9.468 1.365,12.514 3.951,25.416 0.598,2.978 3.131,10.261 5.631,16.183 4.768,11.295 8.198,15.55 16.803,20.844 4.547,2.796 11.742,3.075 16.458,0.636 8.495,-4.393 13.263,-17.14 7.14,-19.083 -2.849,-0.904 -5.735,1.089 -7.997,5.523 -1.108,2.173 -3.113,4.671 -4.453,5.549 -6.937,4.545 -16.801,-6.622 -20.819,-23.568 -2.549,-10.746 -2.676,-12.432 -3.135,-41.5 -0.567,-35.926 -3.324,-57.243005 -8.536,-66.000005 -0.982,-1.65 -2.566,-5.1 -3.52,-7.666 -3.062,-8.237 -13.636,-19.07 -24.027,-24.613 -23.742,-12.666 -50.338,-17.116 -85.5,-14.304 -7.425,0.594 -20.475,1.538 -29,2.098 -14.174,0.93 -29.123,2.555 -47.5,5.162 -11.21,1.59 -15.712,1.203 -23.679,-2.038 -4.027,-1.637 -8.446,-3.297 -9.821,-3.688 -1.375,-0.392 -5.023,-1.977 -8.107,-3.524 -3.084,-1.546 -9.384,-3.773 -14,-4.948 -4.616,-1.175 -14.267,-4.126 -21.446004,-6.558 -7.179,-2.431 -13.615,-4.421 -14.303,-4.421 -0.687,0 -2.906,-1.125 -4.929,-2.5 -2.985,-2.028 -4.897,-2.5 -10.131,-2.5 -7.541,0 -15.084,-3.0039998 -15.084,-6.0069998 0,-4.23599995 -2.829,-6.697 -4.531,-3.943 M 327.72767,216.4822 c -2.568,4.154 -2.582,4.632 -0.141,4.632 2.276,0 2.594,-0.429 3.521,-4.75 0.914,-4.262 -0.708,-4.206 -3.38,0.118"
     stroke="none"
     fill="#97979a"
     fill-rule="evenodd"
     id="path1"
     style="fill:#ffffff;fill-opacity:1" />
</svg>
