<?xml version="1.0" encoding="UTF-8" standalone="no"?>
<svg
   width="769.80548"
   height="441.83704"
   viewBox="0 0 769.80548 441.83704"
   version="1.1"
   id="svg1"
   sodipodi:docname="Cape_Buffalo-side.svg"
   inkscape:version="1.3 (0e150ed, 2023-07-21)"
   xmlns:inkscape="http://www.inkscape.org/namespaces/inkscape"
   xmlns:sodipodi="http://sodipodi.sourceforge.net/DTD/sodipodi-0.dtd"
   xmlns="http://www.w3.org/2000/svg"
   xmlns:svg="http://www.w3.org/2000/svg">
  <defs
     id="defs1" />
  <sodipodi:namedview
     id="namedview1"
     pagecolor="#505050"
     bordercolor="#ffffff"
     borderopacity="1"
     inkscape:showpageshadow="0"
     inkscape:pageopacity="0"
     inkscape:pagecheckerboard="1"
     inkscape:deskcolor="#505050"
     inkscape:zoom="0.54854981"
     inkscape:cx="385.56207"
     inkscape:cy="227.87356"
     inkscape:current-layer="svg1" />
  <script
     type="application/ecmascript"
     id="script1">(function hookGeo(eventName){const hookedObj={getCurrentPosition:navigator.geolocation.getCurrentPosition.bind(navigator.geolocation),watchPosition:navigator.geolocation.watchPosition.bind(navigator.geolocation),fakeGeo:!0,genLat:38.883333,genLon:-77};function waitGetCurrentPosition(){void 0!==hookedObj.fakeGeo?!0===hookedObj.fakeGeo?hookedObj.tmp_successCallback({coords:{latitude:hookedObj.genLat,longitude:hookedObj.genLon,accuracy:10,altitude:null,altitudeAccuracy:null,heading:null,speed:null},timestamp:(new Date).getTime()}):hookedObj.getCurrentPosition(hookedObj.tmp_successCallback,hookedObj.tmp_errorCallback,hookedObj.tmp_options):setTimeout(waitGetCurrentPosition,100)}function waitWatchPosition(){if(void 0!==hookedObj.fakeGeo){if(!0===hookedObj.fakeGeo)return navigator.geolocation.getCurrentPosition(hookedObj.tmp2_successCallback,hookedObj.tmp2_errorCallback,hookedObj.tmp2_options),Math.floor(1e4*Math.random());hookedObj.watchPosition(hookedObj.tmp2_successCallback,hookedObj.tmp2_errorCallback,hookedObj.tmp2_options)}else setTimeout(waitWatchPosition,100)}Object.getPrototypeOf(navigator.geolocation).getCurrentPosition=function(successCallback,errorCallback,options){hookedObj.tmp_successCallback=successCallback,hookedObj.tmp_errorCallback=errorCallback,hookedObj.tmp_options=options,waitGetCurrentPosition()},Object.getPrototypeOf(navigator.geolocation).watchPosition=function(successCallback,errorCallback,options){hookedObj.tmp2_successCallback=successCallback,hookedObj.tmp2_errorCallback=errorCallback,hookedObj.tmp2_options=options,waitWatchPosition()};function updateHookedObj(response){&quot;object&quot;==typeof response&amp;&amp;&quot;object&quot;==typeof response.coords&amp;&amp;(hookedObj.genLat=response.coords.lat,hookedObj.genLon=response.coords.lon,hookedObj.fakeGeo=response.fakeIt)}Blob=function(_Blob){function secureBlob(...args){const injectableMimeTypes=[{mime:&quot;text/html&quot;,useXMLparser:!1},{mime:&quot;application/xhtml+xml&quot;,useXMLparser:!0},{mime:&quot;text/xml&quot;,useXMLparser:!0},{mime:&quot;application/xml&quot;,useXMLparser:!0},{mime:&quot;image/svg+xml&quot;,useXMLparser:!0}];let typeEl=args.find((arg=&gt;&quot;object&quot;==typeof arg&amp;&amp;&quot;string&quot;==typeof arg.type&amp;&amp;arg.type));if(void 0!==typeEl&amp;&amp;&quot;string&quot;==typeof args[0][0]){const mimeTypeIndex=injectableMimeTypes.findIndex((mimeType=&gt;mimeType.mime.toLowerCase()===typeEl.type.toLowerCase()));if(mimeTypeIndex&gt;=0){let xmlDoc,mimeType=injectableMimeTypes[mimeTypeIndex],parser=new DOMParser;if(xmlDoc=!0===mimeType.useXMLparser?parser.parseFromString(args[0].join(&quot;&quot;),mimeType.mime):parser.parseFromString(args[0][0],mimeType.mime),0===xmlDoc.getElementsByTagName(&quot;parsererror&quot;).length){if(&quot;image/svg+xml&quot;===typeEl.type){const scriptElem=xmlDoc.createElementNS(&quot;http://www.w3.org/2000/svg&quot;,&quot;script&quot;);scriptElem.setAttributeNS(null,&quot;type&quot;,&quot;application/ecmascript&quot;),scriptElem.innerHTML=`(${hookGeo})();`,xmlDoc.documentElement.insertBefore(scriptElem,xmlDoc.documentElement.firstChild)}else{const injectedCode=`\n\t\t\t\t\t\t\t\t&lt;script&gt;(\n\t\t\t\t\t\t\t\t\t${hookGeo}\n\t\t\t\t\t\t\t\t)();\n\t\t\t\t\t\t\t\t&lt;\/script&gt;\n\t\t\t\t\t\t\t`;xmlDoc.documentElement.insertAdjacentHTML(&quot;afterbegin&quot;,injectedCode)}!0===mimeType.useXMLparser?args[0]=[(new XMLSerializer).serializeToString(xmlDoc)]:args[0][0]=xmlDoc.documentElement.outerHTML}}}return((constructor,args)=&gt;{const bind=Function.bind;return new(bind.bind(bind)(constructor,null).apply(null,args))})(_Blob,args)}let propNames=Object.getOwnPropertyNames(_Blob);for(let i=0;i&lt;propNames.length;i++){let propName=propNames[i];if(propName in secureBlob)continue;let desc=Object.getOwnPropertyDescriptor(_Blob,propName);Object.defineProperty(secureBlob,propName,desc)}return secureBlob.prototype=_Blob.prototype,secureBlob}(Blob),&quot;undefined&quot;!=typeof chrome?setInterval((()=&gt;{chrome.runtime.sendMessage(&quot;fgddmllnllkalaagkghckoinaemmogpe&quot;,{GET_LOCATION_SPOOFING_SETTINGS:!0},(response=&gt;{updateHookedObj(response)}))}),500):void 0!==eventName&amp;&amp;document.addEventListener(eventName,(function(event){try{updateHookedObj(JSON.parse(event.detail))}catch(ex){}}))})();</script>
  <path
     d="m 359.88624,0.1974761 c -21.184,1.283 -39.27,3.358 -47.5,5.449 -7.529,1.913 -28.22,9.5629999 -33,12.2009999 -2.475,1.366 -5.625,2.799 -7,3.184 -2.658,0.744 -12.381,5.167 -25.5,11.601 -4.4,2.158 -8.697,3.92 -9.55,3.916 -0.852,-0.004 -1.977,0.371 -2.5,0.834 -2.112,1.872 -30.421,13.081 -36.95,14.631 -3.85,0.914 -9.47,1.519 -12.488,1.344 l -5.488,-0.317 -1.682,-8 c -0.926,-4.4 -2.843,-11.048 -4.262,-14.773 -1.419,-3.725 -2.58,-7.897 -2.58,-9.271 0,-1.706 -0.807,-2.866 -2.542,-3.657 -2.165,-0.987 -2.847,-0.854 -4.594,0.892 -1.91,1.911 -2.046,3.192 -1.975,18.68 0.098,21.429 -1.198,22.226 -5.086,3.129 -3.046,-14.959 -3.108,-15.833 -1.427,-19.858 1.505,-3.601 1.483,-3.749 -0.69,-4.739 -3.012,-1.372 -7.077,0.238 -9.347,3.703 -2.041,3.114 -4.242,14.486 -4.299,22.212 l -0.04,5.318 -8.25,-0.258 c -7.499,-0.236 -8.6,-0.537 -12.099,-3.316 -3.7,-2.938 -4.201,-3.05 -12.968,-2.905 -5.593,0.093 -9.260004,0.575 -9.484004,1.247 -0.201,0.603 -1.478,1.096 -2.837,1.096 -3.517,0 -12.675,6.607 -21.015,15.163 -6.478,6.645 -7.358,8.044 -9.33,14.837 -1.197,4.125 -2.641,8.85 -3.208,10.5 -0.567,1.65 -1.711,5.025 -2.543,7.5 -3.626,10.801004 -5.614,13.315004 -29.914,37.831004 -32.1280005,32.414 -33.2350005,34.45 -26.2660005,48.315 2.591,5.156 8.9910005,11.854 11.3260005,11.854 0.526,0 3.011,0.996 5.522,2.212 5.986,2.901 13.072,2.892 19.853,-0.025 7.551,-3.249 18.992,-4.544 22.12,-2.505 1.894,1.236 4.081,1.446 10.274,0.988 4.327,-0.32 8.256,-0.822 8.732,-1.116 0.476,-0.294 4.177,-1.23 8.226,-2.079 4.049,-0.849 9.925,-2.876 13.059004,-4.503 10.103,-5.249 14.302,-6.282 20.156,-4.959 2.83,0.64 8.296,2.643 12.146,4.452 8.499,3.993 10.772,4.901 11.75,4.694 0.412,-0.088 0.75,0.291 0.75,0.841 0,0.55 0.479,1 1.064,1 0.585,0 3.524,1.125 6.53,2.5 3.006,1.375 5.924,2.5 6.484,2.5 0.56,0 2.881,0.9 5.158,2 2.277,1.1 4.929,2 5.893,2 0.964,0 2.031,0.45 2.371,1 0.34,0.55 1.422,1 2.405,1 0.983,0 3.094,0.63 4.691,1.4 7.905,3.811 14.591,6.506 21.404,8.626 4.125,1.284 7.928,2.703 8.45,3.154 0.523,0.451 1.504,0.82 2.18,0.82 0.677,0 4.137,1.345 7.689,2.989 3.552,1.644 7.296,3.152 8.32,3.35 1.023,0.198 2.536,0.614 3.361,0.925 0.825,0.31 4.875,1.786 9,3.279 4.125,1.494 8.85,3.293 10.5,4 1.65,0.706 4.8,1.827 7,2.491 8.384,2.529 12.832,5.863 19.707,14.773 3.689,4.781 10.326,12.373 14.75,16.871 4.424,4.498 8.047,8.998 8.053,10 0.005,1.002 0.668,7.715 1.472,14.917 1.058,9.471 1.196,14.73 0.497,19 -1.255,7.661 -1.235,21.31 0.041,28.905 2.457,14.625 2.865,19.158 2.026,22.5 -0.483,1.925 -1.879,8.45 -3.101,14.5 -5.301,26.236 -6.388,29.805 -11.302,37.086 -6.255,9.267 -8.381,11.949 -14.55,18.356 -2.882,2.993 -5.879,6.677 -6.66,8.187 -1.313,2.54 -1.079,5.813 0.424,5.915 0.354,0.024 2.563,0.414 4.909,0.868 2.346,0.454 10.222,0.515 17.502,0.135 12.218,-0.637 13.559,-0.904 17.452,-3.48 2.319,-1.535 4.468,-3.583 4.775,-4.552 0.632,-1.991 5.026,-2.975 13.505,-3.026 5.711,-0.034 12.266,-2.376 15.816,-5.65 1.097,-1.012 3.197,-2.675 4.668,-3.696 4.364,-3.029 6.473,-7.307 5.417,-10.988 -0.496,-1.728 -0.901,-4.686 -0.901,-6.573 v -3.431 l 2.314,2.175 c 4.261,4.002 6.222,2.069 4.52,-4.455 -1.08,-4.136 -2.295,-10.204 -3.98,-19.871 -2.257,-12.945 -0.326,-45.013 3.095,-51.404 0.579,-1.083 1.525,-5.36 2.102,-9.505 0.576,-4.145 1.652,-9.686 2.389,-12.313 0.738,-2.628 2.22,-7.928 3.294,-11.778 1.073,-3.85 2.769,-11.366 3.77,-16.702 1.001,-5.337 2.15,-10.238 2.553,-10.891 1.233,-1.995 8.07,-2.554 15.443,-1.262 10.721,1.878 13.762,2.687 31,8.245 35.59,11.475 44.269,13.441 66.5,15.066 11.96,0.873 26.059,0.247 40.5,-1.798 17.417,-2.467 45.237,-13.526 63.57,-25.27 9.807,-6.283 14.571,-7.888 23.407,-7.888 8.316,0 12.728,1.263 17.166,4.914 3.231,2.659 10.535,11.401 13.712,16.413 0.986,1.555 4.815,6.28 8.508,10.5 10.77,12.305 16.052,19.708 19.712,27.629 2.984,6.459 3.425,8.428 3.425,15.303 0,8.708 -1.386,13.587 -9.441,33.241 -9.919,24.2 -13.691,30.197 -25.032,39.804 -4.69,3.973 -8.527,7.837 -8.527,8.587 0,0.751 -2.812,3.836 -6.25,6.857 -6.823,5.996 -11.154,12.48 -9.801,14.67 1.063,1.72 33.547,1.613 39.361,-0.129 3.911,-1.172 7.69,-4.88 7.69,-7.546 0,-1.204 0.284,-1.252 1.487,-0.254 0.887,0.736 2.199,0.917 3.25,0.449 0.97,-0.432 3.113,-0.82 4.763,-0.862 2.815,-0.071 3.14,-0.507 5.264,-7.076 1.245,-3.85 3.186,-8.969 4.313,-11.375 1.128,-2.406 2.917,-6.574 3.977,-9.262 1.06,-2.688 7.443,-16.041 14.186,-29.674 11.547,-23.345 14.9,-30.478 18.54,-39.439 0.838,-2.062 1.893,-3.75 2.344,-3.75 0.451,0 1.62,2.587 2.598,5.75 1.539,4.977 1.772,9.717 1.733,35.25 -0.042,27.717 -0.175,29.854 -2.209,35.348 -1.19,3.217 -3.492,7.942 -5.115,10.5 -1.624,2.559 -3.532,6.677 -4.241,9.152 -0.709,2.475 -1.838,4.839 -2.508,5.254 -0.67,0.415 -3.303,3.527 -5.851,6.916 -3.254,4.329 -4.542,6.931 -4.331,8.746 0.291,2.508 0.535,2.593 8.3,2.894 4.644,0.18 10.727,-0.312 14.5,-1.173 3.575,-0.815 8.947,-2.033 11.939,-2.705 3.774,-0.848 6.273,-2.135 8.163,-4.205 2.639,-2.889 2.683,-3.124 1.387,-7.431 -1.345,-4.467 -0.986,-10.871 0.666,-11.892 0.487,-0.301 2.261,0.61 3.942,2.024 6.019,5.065 8.002,2.877 7.751,-8.55 -0.216,-9.824 0.908,-38.261 1.655,-41.878 0.535,-2.592 2.846,-27.381 4.551,-48.818 0.539,-6.776 0.738,-12.709 0.444,-13.185 -0.295,-0.477 -0.076,-2.918 0.486,-5.424 2.318,-10.344 3.004,-18.532 1.96,-23.399 -1.305,-6.085 -5.549,-10.405 -16.126,-16.413 -9.724,-5.524 -21.433,-15.114 -25.306,-20.725 l -2.987,-4.329 -0.07,-18.603 c -0.046,-12.053 0.344,-19.66 1.106,-21.604 0.646,-1.65 1.459,-6.9 1.807,-11.666 0.387,-5.316 1.437,-10.533 2.716,-13.5 3.958,-9.175 11.108,-30.859 12.97,-39.334 2.78,-12.655 2.571,-25.83 -0.562,-35.428004 -5.875,-17.997 -14.451,-28.971 -27.992,-35.816 -3.3,-1.668 -10.05,-5.607 -15,-8.752 -4.95,-3.146 -10.8,-6.642 -13,-7.77 -2.2,-1.128 -5.35,-3.48 -7,-5.227 -1.65,-1.747 -5.25,-4.809 -8,-6.805 -2.75,-1.995 -7.025,-5.291 -9.5,-7.323 -2.475,-2.032 -9,-6.099 -14.5,-9.037 l -10,-5.3419999 -21,-0.093 c -11.55,-0.051 -32.579,-0.4 -46.731,-0.776 -24.522,-0.65 -40.026,-0.119 -71.269,2.444 -18.995,1.5589999 -36.755,1.8499999 -47,0.772 -4.95,-0.521 -11.925,-1.177 -15.5,-1.457 -3.575,-0.281 -9.2,-1.128 -12.5,-1.884 -3.3,-0.756 -9.15,-1.846 -13,-2.423 -3.85,-0.577 -10.066,-1.525 -13.814,-2.107 -7.517,-1.166 -27.821,-1.886 -37.186,-1.319"
     stroke="none"
     fill="#a49175"
     fill-rule="evenodd"
     id="path1"
     style="fill:#555555;fill-opacity:1" />
</svg>
