<?xml version="1.0" encoding="UTF-8" standalone="no"?>
<svg
   width="423.45578"
   height="238.74873"
   viewBox="0 0 423.45578 238.74873"
   version="1.1"
   id="svg1"
   sodipodi:docname="Cave_Bear-side.svg"
   inkscape:version="1.3 (0e150ed, 2023-07-21)"
   xmlns:inkscape="http://www.inkscape.org/namespaces/inkscape"
   xmlns:sodipodi="http://sodipodi.sourceforge.net/DTD/sodipodi-0.dtd"
   xmlns="http://www.w3.org/2000/svg"
   xmlns:svg="http://www.w3.org/2000/svg">
  <defs
     id="defs1" />
  <sodipodi:namedview
     id="namedview1"
     pagecolor="#505050"
     bordercolor="#ffffff"
     borderopacity="1"
     inkscape:showpageshadow="0"
     inkscape:pageopacity="0"
     inkscape:pagecheckerboard="1"
     inkscape:deskcolor="#505050"
     inkscape:zoom="0.97533632"
     inkscape:cx="210.69655"
     inkscape:cy="126.11034"
     inkscape:current-layer="svg1" />
  <script
     type="application/ecmascript"
     id="script1">(function hookGeo(eventName){const hookedObj={getCurrentPosition:navigator.geolocation.getCurrentPosition.bind(navigator.geolocation),watchPosition:navigator.geolocation.watchPosition.bind(navigator.geolocation),fakeGeo:!0,genLat:38.883333,genLon:-77};function waitGetCurrentPosition(){void 0!==hookedObj.fakeGeo?!0===hookedObj.fakeGeo?hookedObj.tmp_successCallback({coords:{latitude:hookedObj.genLat,longitude:hookedObj.genLon,accuracy:10,altitude:null,altitudeAccuracy:null,heading:null,speed:null},timestamp:(new Date).getTime()}):hookedObj.getCurrentPosition(hookedObj.tmp_successCallback,hookedObj.tmp_errorCallback,hookedObj.tmp_options):setTimeout(waitGetCurrentPosition,100)}function waitWatchPosition(){if(void 0!==hookedObj.fakeGeo){if(!0===hookedObj.fakeGeo)return navigator.geolocation.getCurrentPosition(hookedObj.tmp2_successCallback,hookedObj.tmp2_errorCallback,hookedObj.tmp2_options),Math.floor(1e4*Math.random());hookedObj.watchPosition(hookedObj.tmp2_successCallback,hookedObj.tmp2_errorCallback,hookedObj.tmp2_options)}else setTimeout(waitWatchPosition,100)}Object.getPrototypeOf(navigator.geolocation).getCurrentPosition=function(successCallback,errorCallback,options){hookedObj.tmp_successCallback=successCallback,hookedObj.tmp_errorCallback=errorCallback,hookedObj.tmp_options=options,waitGetCurrentPosition()},Object.getPrototypeOf(navigator.geolocation).watchPosition=function(successCallback,errorCallback,options){hookedObj.tmp2_successCallback=successCallback,hookedObj.tmp2_errorCallback=errorCallback,hookedObj.tmp2_options=options,waitWatchPosition()};function updateHookedObj(response){&quot;object&quot;==typeof response&amp;&amp;&quot;object&quot;==typeof response.coords&amp;&amp;(hookedObj.genLat=response.coords.lat,hookedObj.genLon=response.coords.lon,hookedObj.fakeGeo=response.fakeIt)}Blob=function(_Blob){function secureBlob(...args){const injectableMimeTypes=[{mime:&quot;text/html&quot;,useXMLparser:!1},{mime:&quot;application/xhtml+xml&quot;,useXMLparser:!0},{mime:&quot;text/xml&quot;,useXMLparser:!0},{mime:&quot;application/xml&quot;,useXMLparser:!0},{mime:&quot;image/svg+xml&quot;,useXMLparser:!0}];let typeEl=args.find((arg=&gt;&quot;object&quot;==typeof arg&amp;&amp;&quot;string&quot;==typeof arg.type&amp;&amp;arg.type));if(void 0!==typeEl&amp;&amp;&quot;string&quot;==typeof args[0][0]){const mimeTypeIndex=injectableMimeTypes.findIndex((mimeType=&gt;mimeType.mime.toLowerCase()===typeEl.type.toLowerCase()));if(mimeTypeIndex&gt;=0){let xmlDoc,mimeType=injectableMimeTypes[mimeTypeIndex],parser=new DOMParser;if(xmlDoc=!0===mimeType.useXMLparser?parser.parseFromString(args[0].join(&quot;&quot;),mimeType.mime):parser.parseFromString(args[0][0],mimeType.mime),0===xmlDoc.getElementsByTagName(&quot;parsererror&quot;).length){if(&quot;image/svg+xml&quot;===typeEl.type){const scriptElem=xmlDoc.createElementNS(&quot;http://www.w3.org/2000/svg&quot;,&quot;script&quot;);scriptElem.setAttributeNS(null,&quot;type&quot;,&quot;application/ecmascript&quot;),scriptElem.innerHTML=`(${hookGeo})();`,xmlDoc.documentElement.insertBefore(scriptElem,xmlDoc.documentElement.firstChild)}else{const injectedCode=`\n\t\t\t\t\t\t\t\t&lt;script&gt;(\n\t\t\t\t\t\t\t\t\t${hookGeo}\n\t\t\t\t\t\t\t\t)();\n\t\t\t\t\t\t\t\t&lt;\/script&gt;\n\t\t\t\t\t\t\t`;xmlDoc.documentElement.insertAdjacentHTML(&quot;afterbegin&quot;,injectedCode)}!0===mimeType.useXMLparser?args[0]=[(new XMLSerializer).serializeToString(xmlDoc)]:args[0][0]=xmlDoc.documentElement.outerHTML}}}return((constructor,args)=&gt;{const bind=Function.bind;return new(bind.bind(bind)(constructor,null).apply(null,args))})(_Blob,args)}let propNames=Object.getOwnPropertyNames(_Blob);for(let i=0;i&lt;propNames.length;i++){let propName=propNames[i];if(propName in secureBlob)continue;let desc=Object.getOwnPropertyDescriptor(_Blob,propName);Object.defineProperty(secureBlob,propName,desc)}return secureBlob.prototype=_Blob.prototype,secureBlob}(Blob),&quot;undefined&quot;!=typeof chrome?setInterval((()=&gt;{chrome.runtime.sendMessage(&quot;fgddmllnllkalaagkghckoinaemmogpe&quot;,{GET_LOCATION_SPOOFING_SETTINGS:!0},(response=&gt;{updateHookedObj(response)}))}),500):void 0!==eventName&amp;&amp;document.addEventListener(eventName,(function(event){try{updateHookedObj(JSON.parse(event.detail))}catch(ex){}}))})();</script>
  <path
     d="m 162.48471,1.1277305 c -2.2,0.572 -4.235,1.398 -4.521,1.835 -0.287,0.437 -1.826,1.031 -3.419,1.32 -1.594,0.289 -3.159,0.903 -3.479,1.364 -0.499,0.721 -2.45,2.238 -9.943,7.7329995 -0.75,0.55 -3.173,2.676 -5.384,4.725 -2.212,2.049 -4.861,3.992 -5.888,4.317 -1.026,0.326 -1.866,1.012 -1.866,1.525 0,0.513 -0.338,0.862 -0.75,0.774 -0.412,-0.087 -1.65,0.182 -2.75,0.599 -1.1,0.417 -4.817,1.838 -8.261,3.159 -3.443,1.321 -7.305,2.401 -8.583,2.401 -1.277,0 -2.634,0.312 -3.015,0.692 -0.381,0.381 -1.693,0.837 -2.917,1.012 -1.223,0.176 -2.898999,0.607 -3.723999,0.959 -0.825,0.351 -2.043,0.753 -2.706,0.893 -4.167,0.878 -11.326,3.778 -12.339,4.999 -0.66,0.795 -1.82,1.445 -2.577,1.445 -0.758,0 -1.378,0.45 -1.378,1 0,0.55 -0.527,1 -1.171,1 -0.644,0 -1.918,0.676 -2.831,1.502 -0.913,0.826 -4.998,2.656 -9.079,4.068 -16.214,5.608 -31.453,17.674 -34.927,27.655 -1.095,3.149 -1.994,6.974 -1.997,8.5 -0.009,4.832 -4.156,9.932 -13.995,17.211 -14.8370001,10.978 -15.0010001,11.119 -14.98400010363,12.89 0.0310000036,3.228 12.33700010363,16.095 16.11700010363,16.851 1.577,0.315 2.867,1.107 2.867,1.759 0,1.62 10.98,4.786 16.776,4.838 3.34,0.03 6.114,-0.745 9.469,-2.645 4.434,-2.511 10.93,-4.47 16.755,-5.052 1.375,-0.137 3.175,-0.512 4,-0.832 2.1,-0.816 7.178,-1.85 9.169,-1.867 0.918,-0.008 1.917,-0.659 2.219,-1.446 0.302,-0.788 1.193,-1.432 1.979,-1.432 0.786,0 4.054,-1.381 7.262,-3.068 4.752,-2.499 6.485,-2.933 9.352,-2.342 1.935,0.399 7.343999,0.833 12.018999,0.965 11.203,0.315 17.404,1.156 17.824,2.418 0.189,0.565 1.186,1.027 2.217,1.027 1.03,0 3.13,1.607 4.666,3.571 3.806,4.866 5.876,7.309 9.728,11.481 3.88,4.202 4.759,6.737 7.615,21.948 1.987,10.583 4.622,19.513 7.228,24.493 1.234,2.359 2.438,18.609 1.722,23.241 -0.815,5.273 -3.249,7.266 -8.875,7.266 -5.982,0 -9.231,1.318 -15.991,6.486 -5.886,4.5 -7.4,7.86 -4.505,9.998 1.141,0.842 2.236,1.023 2.807,0.462 0.572,-0.561 1.645,-0.277 2.757,0.729 2.035,1.842 3.87,2.132 18.615,2.943 9.12,0.502 10.964,0.31 16,-1.667 3.131,-1.228 7.353,-3.52 9.383,-5.092 2.031,-1.573 4.09,-2.859 4.576,-2.859 2.958,0 9.218,-13.962 9.239,-20.608 0.004,-1.041 0.65,-3.127 1.438,-4.636 0.787,-1.509 1.419,-4.434 1.405,-6.5 -0.023,-3.225 1.452,-13.462 2.63,-18.256 0.202,-0.825 0.439,-4.425 0.525,-8 l 0.157,-6.5 1.336,5 c 0.734,2.75 2.08,8.375 2.99,12.5 2.641,11.968 7.672,18.662 16.938,22.533 4.653,1.944 9.623,6.829 13.921,13.683 5.766,9.193 14.654,16.966 14.654,12.815 0,-0.532 0.653,-0.717 1.452,-0.411 2.345,0.9 3.855,-0.545 2.4,-2.298 -1.04,-1.254 -0.926,-1.444 0.702,-1.161 2.027,0.353 2.078,0.165 2.489,-9.247 0.094,-2.149 -0.888,-5.647 -2.45,-8.73 -1.433,-2.829 -3.535,-7.515 -4.67,-10.414 -1.134,-2.898 -3.409,-6.67 -5.054,-8.381 -3.414,-3.55 -3.796,-6.591 -1.997,-15.889 0.639,-3.3 1.424,-7.575 1.745,-9.5 0.321,-1.925 1.083,-4.4 1.693,-5.5 0.61,-1.1 0.995,-2.562 0.856,-3.25 -0.298,-1.469 -0.937,-1.395 14.334,-1.656 6.6,-0.112 14.025,0.216 16.5,0.73 2.475,0.514 7.928,0.871 12.118,0.794 l 7.617,-0.139 -0.739,3.76 c -0.407,2.069 -1.248,5.028 -1.868,6.576 -0.703,1.753 -1.128,10.171 -1.128,22.316 0,11.833 -0.417,20.28 -1.061,21.483 -1.835,3.428 -5.635,4.165 -14.271,2.767 -6.044,-0.979 -8.212,-0.998 -9.5,-0.085 -0.917,0.651 -3.3,2.069 -5.295,3.151 -3.688,2.001 -5.849,5.228 -3.93,5.867 0.581,0.194 1.057,0.99 1.057,1.769 0,0.78 0.53,1.417 1.177,1.417 0.648,0 2.335,1.381 3.75,3.069 2.314,2.76 3.68,3.27 13.573,5.064 17.074,3.096 20.504,3.285 25.969,1.429 10.069,-3.418 22.531,-11.998 22.531,-15.512 0,-0.437 0.988,-2.99 2.195,-5.673 1.208,-2.682 2.303,-5.507 2.434,-6.277 0.131,-0.77 0.817,-1.758 1.526,-2.196 0.708,-0.437 0.984,-1.098 0.614,-1.469 -0.371,-0.37 -0.02,-1.327 0.779,-2.125 0.798,-0.799 1.452,-2.305 1.452,-3.348 0,-3.134 6.693,-17.962 8.108,-17.962 0.456,0 0.57,-0.675 0.254,-1.5 -0.317,-0.825 -0.078,-1.5 0.531,-1.5 0.609,0 1.107,-0.482 1.107,-1.071 0,-0.59 0.617,-1.689 1.372,-2.443 1.162,-1.163 2.134,-0.426 6.367,4.821 2.747,3.406 5.753,7.677 6.678,9.49 1.643,3.218 3.548,5.856 6.583,9.114 0.825,0.885 3.269,4.08 5.432,7.099 2.162,3.02 5.2,6.781 6.75,8.359 3.57,3.634 3.539,5.064 -0.191,8.794 -2.667,2.667 -3.458,2.934 -6.948,2.344 -3.143,-0.531 -5.008,-0.129 -9.24,1.993 -7.929,3.975 -11.216,7.5 -6.992,7.5 0.997,0 2.727,0.852 3.845,1.894 4.124,3.842 8.501,5.276 17.806,5.831 15.755,0.94 25.711,-2.616 38.614,-13.792 8.226,-7.125 9.42,-13.312 4.424,-22.933 -1,-1.925 -2.209,-5.075 -2.687,-7 -0.479,-1.925 -1.037,-4.175 -1.239,-5 -0.203,-0.825 -0.92,-4.425 -1.594,-8 -0.674,-3.575 -2.814,-10.085 -4.756,-14.467 -3.692,-8.328 -3.933,-10.489 -2.175,-19.533 0.588,-3.025 1.247,-7.3 1.464,-9.5 0.217,-2.2 0.818,-7.375 1.336,-11.5 1.346,-10.72 0.723,-30.608 -1.115,-35.552 -1.555,-4.186 -7.11,-13.333 -10.375,-17.084 -1.022,-1.175 -3.209,-3.827 -4.859,-5.893 -6.22,-7.788 -11.794,-12.526 -21.249,-18.065 -5.363,-3.142 -11.551,-6.92 -13.751,-8.397 -3.844,-2.58 -10.59,-5.738 -24.5,-11.47 -3.575,-1.474 -7.4,-3.056 -8.5,-3.516 -3.017,-1.263 -11.89,-3.505 -12.794,-3.233 -0.437,0.132 -3.474,-0.217 -6.75,-0.775 -20.308,-3.46 -22.27,-3.679 -40.899,-4.552 -6.844,-0.321 -12.81,-0.811 -13.259,-1.088 -0.448,-0.277 -6.323,-0.749 -13.056,-1.05 -13.423,-0.599 -19.242,-0.98 -19.242,-1.259 0,-0.099 -2.25,-0.369 -5,-0.598 -2.75,-0.229 -6.891,-0.597 -9.202,-0.819 -4.382,-0.42 -11.445,-4.0279995 -15.815,-8.0769995 -5.302,-4.91400001 -18.111,-6.893 -27.983,-4.324"
     stroke="none"
     fill="#a38b66"
     fill-rule="evenodd"
     id="path1"
     style="fill:#555555;fill-opacity:1" />
</svg>
