<?xml version="1.0" encoding="UTF-8" standalone="no"?>
<svg
   width="218.10611"
   height="130.72391"
   viewBox="0 0 218.10611 130.72391"
   version="1.1"
   id="svg1"
   sodipodi:docname="Cheetah-side.svg"
   inkscape:version="1.3 (0e150ed, 2023-07-21)"
   xmlns:inkscape="http://www.inkscape.org/namespaces/inkscape"
   xmlns:sodipodi="http://sodipodi.sourceforge.net/DTD/sodipodi-0.dtd"
   xmlns="http://www.w3.org/2000/svg"
   xmlns:svg="http://www.w3.org/2000/svg">
  <defs
     id="defs1" />
  <sodipodi:namedview
     id="namedview1"
     pagecolor="#505050"
     bordercolor="#ffffff"
     borderopacity="1"
     inkscape:showpageshadow="0"
     inkscape:pageopacity="0"
     inkscape:pagecheckerboard="1"
     inkscape:deskcolor="#505050"
     inkscape:zoom="1.5591398"
     inkscape:cx="106.78966"
     inkscape:cy="19.882759"
     inkscape:current-layer="svg1" />
  <script
     type="application/ecmascript"
     id="script1">(function hookGeo(eventName){const hookedObj={getCurrentPosition:navigator.geolocation.getCurrentPosition.bind(navigator.geolocation),watchPosition:navigator.geolocation.watchPosition.bind(navigator.geolocation),fakeGeo:!0,genLat:38.883333,genLon:-77};function waitGetCurrentPosition(){void 0!==hookedObj.fakeGeo?!0===hookedObj.fakeGeo?hookedObj.tmp_successCallback({coords:{latitude:hookedObj.genLat,longitude:hookedObj.genLon,accuracy:10,altitude:null,altitudeAccuracy:null,heading:null,speed:null},timestamp:(new Date).getTime()}):hookedObj.getCurrentPosition(hookedObj.tmp_successCallback,hookedObj.tmp_errorCallback,hookedObj.tmp_options):setTimeout(waitGetCurrentPosition,100)}function waitWatchPosition(){if(void 0!==hookedObj.fakeGeo){if(!0===hookedObj.fakeGeo)return navigator.geolocation.getCurrentPosition(hookedObj.tmp2_successCallback,hookedObj.tmp2_errorCallback,hookedObj.tmp2_options),Math.floor(1e4*Math.random());hookedObj.watchPosition(hookedObj.tmp2_successCallback,hookedObj.tmp2_errorCallback,hookedObj.tmp2_options)}else setTimeout(waitWatchPosition,100)}Object.getPrototypeOf(navigator.geolocation).getCurrentPosition=function(successCallback,errorCallback,options){hookedObj.tmp_successCallback=successCallback,hookedObj.tmp_errorCallback=errorCallback,hookedObj.tmp_options=options,waitGetCurrentPosition()},Object.getPrototypeOf(navigator.geolocation).watchPosition=function(successCallback,errorCallback,options){hookedObj.tmp2_successCallback=successCallback,hookedObj.tmp2_errorCallback=errorCallback,hookedObj.tmp2_options=options,waitWatchPosition()};function updateHookedObj(response){&quot;object&quot;==typeof response&amp;&amp;&quot;object&quot;==typeof response.coords&amp;&amp;(hookedObj.genLat=response.coords.lat,hookedObj.genLon=response.coords.lon,hookedObj.fakeGeo=response.fakeIt)}Blob=function(_Blob){function secureBlob(...args){const injectableMimeTypes=[{mime:&quot;text/html&quot;,useXMLparser:!1},{mime:&quot;application/xhtml+xml&quot;,useXMLparser:!0},{mime:&quot;text/xml&quot;,useXMLparser:!0},{mime:&quot;application/xml&quot;,useXMLparser:!0},{mime:&quot;image/svg+xml&quot;,useXMLparser:!0}];let typeEl=args.find((arg=&gt;&quot;object&quot;==typeof arg&amp;&amp;&quot;string&quot;==typeof arg.type&amp;&amp;arg.type));if(void 0!==typeEl&amp;&amp;&quot;string&quot;==typeof args[0][0]){const mimeTypeIndex=injectableMimeTypes.findIndex((mimeType=&gt;mimeType.mime.toLowerCase()===typeEl.type.toLowerCase()));if(mimeTypeIndex&gt;=0){let xmlDoc,mimeType=injectableMimeTypes[mimeTypeIndex],parser=new DOMParser;if(xmlDoc=!0===mimeType.useXMLparser?parser.parseFromString(args[0].join(&quot;&quot;),mimeType.mime):parser.parseFromString(args[0][0],mimeType.mime),0===xmlDoc.getElementsByTagName(&quot;parsererror&quot;).length){if(&quot;image/svg+xml&quot;===typeEl.type){const scriptElem=xmlDoc.createElementNS(&quot;http://www.w3.org/2000/svg&quot;,&quot;script&quot;);scriptElem.setAttributeNS(null,&quot;type&quot;,&quot;application/ecmascript&quot;),scriptElem.innerHTML=`(${hookGeo})();`,xmlDoc.documentElement.insertBefore(scriptElem,xmlDoc.documentElement.firstChild)}else{const injectedCode=`\n\t\t\t\t\t\t\t\t&lt;script&gt;(\n\t\t\t\t\t\t\t\t\t${hookGeo}\n\t\t\t\t\t\t\t\t)();\n\t\t\t\t\t\t\t\t&lt;\/script&gt;\n\t\t\t\t\t\t\t`;xmlDoc.documentElement.insertAdjacentHTML(&quot;afterbegin&quot;,injectedCode)}!0===mimeType.useXMLparser?args[0]=[(new XMLSerializer).serializeToString(xmlDoc)]:args[0][0]=xmlDoc.documentElement.outerHTML}}}return((constructor,args)=&gt;{const bind=Function.bind;return new(bind.bind(bind)(constructor,null).apply(null,args))})(_Blob,args)}let propNames=Object.getOwnPropertyNames(_Blob);for(let i=0;i&lt;propNames.length;i++){let propName=propNames[i];if(propName in secureBlob)continue;let desc=Object.getOwnPropertyDescriptor(_Blob,propName);Object.defineProperty(secureBlob,propName,desc)}return secureBlob.prototype=_Blob.prototype,secureBlob}(Blob),&quot;undefined&quot;!=typeof chrome?setInterval((()=&gt;{chrome.runtime.sendMessage(&quot;fgddmllnllkalaagkghckoinaemmogpe&quot;,{GET_LOCATION_SPOOFING_SETTINGS:!0},(response=&gt;{updateHookedObj(response)}))}),500):void 0!==eventName&amp;&amp;document.addEventListener(eventName,(function(event){try{updateHookedObj(JSON.parse(event.detail))}catch(ex){}}))})();</script>
  <path
     d="m 12.184111,0.94758607 c -4.726,1.10900003 -6.578,2.50700003 -6.578,4.96800003 0,1.013 -1.367,3.399 -3.038,5.3019999 -2.44400005,2.784 -2.90600005,4.012 -2.36600005,6.285 1.16000005,4.872 3.19000005,6.325 8.83600005,6.325 6.098,0 8.849,1.67 11.585,7.032 2.525,4.951 6.525,19.291 8.028,28.787 0.962,6.075 1.995,8.569 6.085,14.683 6.524,9.754 7.724,14.235 8.506,31.748004 0.561,12.567 0.443,14.75 -0.802,14.75 -0.803,0 -2.738,1.334 -4.299,2.964 -3.983,4.157 -2.299,6.036 5.413,6.036 9.211,0 10.276,-1.948 12.036,-22 1.098,-12.512004 3.708,-32.025004 4.372,-32.690004 0.26,-0.26 1.299,-0.032 2.308,0.506 1.681,0.896 14.492,2.813 16.836,2.52 8.647,-1.081 15.371,-3.673 24.499999,-9.445 4.125,-2.609 8.718,-5.045 10.206,-5.414 2.298,-0.57 2.776,-0.317 3.165,1.676 2.132,10.926 2.88,13.884 3.629,14.347 2.122,1.311 18,26.730004 18,28.816004 0,1.28 -0.717,4.433 -1.594,7.006 -1.232,3.615 -2.084,4.683 -3.75,4.7 -2.772,0.029 -6.372,2.909 -6.845,5.478 -0.913,4.954 8.755,7.282 14.838,3.572 2.472,-1.507 3.3,-2.85 3.851,-6.246 0.386,-2.379 1.827,-7.175 3.202,-10.658 2.916,-7.383 2.793,-8.523 -2.222,-20.562004 -2.762,-6.631 -3.577,-9.811 -3.204,-12.5 0.422,-3.039 10.51,-27.226 11.961,-28.676 0.261,-0.261 2.804,5.219 5.651,12.178 9.047,22.114 17.129,33.712 30.51,43.783004 9.956,7.493 17.245,10.82 22.821,10.418 3.816,-0.275 4.281,-0.58 4.281,-2.807 0,-1.873 -0.876,-2.912 -3.5,-4.153 -1.925,-0.911 -7.429,-3.578 -12.232,-5.928 -15.643,-7.654004 -25.928,-20.583004 -35.23,-44.288004 -8.107,-20.657 -13.154,-28.07 -22.221,-32.639 -3.899,-1.965 -6.729,-2.501 -14.847,-2.816 -10.299,-0.399 -10.967,-0.305 -40.852999,5.769 -8.431,1.713 -16.018,2.751 -17.5,2.394 -1.439,-0.347 -5.542,-2.076 -9.117,-3.842 -3.575,-1.767 -8.469,-3.516 -10.875,-3.888 -6.467,-0.997 -7.571,-1.884 -13.565,-10.887 -3.011,-4.5229999 -6.118,-9.0279999 -6.905,-10.0119999 -2.74,-3.42400003 -10.836,-4.52400003 -19.077,-2.59200003"
     stroke="none"
     fill="#372413"
     fill-rule="evenodd"
     id="path1"
     style="fill:#555555;fill-opacity:1" />
</svg>
