<?xml version="1.0" encoding="UTF-8" standalone="no"?>
<!-- Created with Inkscape (http://www.inkscape.org/) -->

<svg
   xmlns:dc="http://purl.org/dc/elements/1.1/"
   xmlns:cc="http://creativecommons.org/ns#"
   xmlns:rdf="http://www.w3.org/1999/02/22-rdf-syntax-ns#"
   xmlns:svg="http://www.w3.org/2000/svg"
   xmlns="http://www.w3.org/2000/svg"
   xmlns:sodipodi="http://sodipodi.sourceforge.net/DTD/sodipodi-0.dtd"
   xmlns:inkscape="http://www.inkscape.org/namespaces/inkscape"
   width="115.79184mm"
   height="93.994202mm"
   viewBox="0 0 115.79184 93.994202"
   version="1.1"
   id="svg8"
   inkscape:version="0.92.4 (5da689c313, 2019-01-14)"
   sodipodi:docname="Domestic_Cat_Generic-side.svg">
  <defs
     id="defs2">
    <inkscape:path-effect
       effect="simplify"
       id="path-effect829"
       is_visible="true"
       steps="4"
       threshold="0.002"
       smooth_angles="0"
       helper_size="5"
       simplify_individual_paths="false"
       simplify_just_coalesce="false" />
  </defs>
  <sodipodi:namedview
     id="base"
     pagecolor="#ffffff"
     bordercolor="#666666"
     borderopacity="1.0"
     inkscape:pageopacity="0.0"
     inkscape:pageshadow="2"
     inkscape:zoom="0.98994949"
     inkscape:cx="184.37229"
     inkscape:cy="193.34678"
     inkscape:document-units="mm"
     inkscape:current-layer="layer1"
     showgrid="false"
     showguides="false"
     inkscape:snap-global="false"
     fit-margin-top="0"
     fit-margin-left="0"
     fit-margin-right="0"
     fit-margin-bottom="0"
     inkscape:pagecheckerboard="true"
     inkscape:showpageshadow="false"
     borderlayer="true"
     inkscape:window-width="1366"
     inkscape:window-height="713"
     inkscape:window-x="0"
     inkscape:window-y="0"
     inkscape:window-maximized="1" />
  <metadata
     id="metadata5">
    <rdf:RDF>
      <cc:Work
         rdf:about="">
        <dc:format>image/svg+xml</dc:format>
        <dc:type
           rdf:resource="http://purl.org/dc/dcmitype/StillImage" />
        <dc:title></dc:title>
      </cc:Work>
    </rdf:RDF>
  </metadata>
  <g
     inkscape:label="Layer 1"
     inkscape:groupmode="layer"
     id="layer1"
     transform="translate(21.567273,-66.216652)">
    <path
       style="fill:#555555;fill-opacity:1;stroke-width:0.26458332"
       d="m 94.220491,154.91972 c -0.207282,-2.9883 -0.521383,-5.96479 -1.482822,-8.80376 -0.896312,-2.64667 -1.703674,-5.3268 -2.689173,-7.94017 -0.689685,-1.82892 -2.229733,-3.15026 -3.24313,-4.83875 -0.989207,-1.64818 -2.826245,-2.60929 -3.554173,-4.51553 -0.688527,-1.80306 -1.031981,-3.66508 -1.546166,-5.50627 -0.355841,-1.27419 -0.746838,-2.6738 -0.347705,-3.94588 0.432739,-1.37919 0.112552,-2.82744 -0.334121,-4.07807 -0.562324,-1.57444 -0.717135,-3.18094 -1.710817,-4.59204 -0.998746,-1.41829 -0.79065,-3.59783 0.353344,-4.69538 1.077009,-1.03328 1.749658,-1.98025 2.596872,-2.78397 1.749882,-1.66005 2.20475,-1.97864 4.590451,-4.454148 1.004889,-1.042715 1.559753,-2.030403 2.472119,-3.10174 0.576111,-0.676493 1.309718,-2.155582 1.621243,-3.3457 0.30698,-1.172753 1.233207,-2.092329 1.485434,-3.392114 0.3926,-2.023163 0.620782,-4.052141 0.900997,-6.098433 0.224509,-1.639491 -0.07818,-3.058335 -0.26488,-4.613678 -0.264667,-2.204863 -0.91137,-4.30651 -2.017018,-6.288537 -1.026932,-1.840919 -1.782681,-2.162917 -3.328728,-3.549857 -0.896814,-0.804522 -1.689762,-1.178093 -2.725012,-1.612149 -1.811758,-0.759626 -3.216884,-0.56884 -4.938599,-0.365281 -2.14462,0.253559 -3.139131,1.012576 -4.806871,1.540962 -2.132476,0.675627 -3.76621,3.104435 -2.891505,5.187605 0.787598,1.875719 3.313715,0.783213 4.771021,0.310472 1.579508,-0.512382 3.397211,-1.334581 4.96236,-0.271765 2.60415,1.768351 3.406217,5.104542 3.083215,8.070095 -0.456355,4.189897 -2.743604,7.861863 -5.345761,11.056512 -2.047427,2.513612 -3.810177,5.414317 -6.660182,7.112856 -1.594147,0.95008 -3.136817,2.116 -4.925906,2.62718 -1.970877,0.56312 -3.961573,-0.3912 -5.976577,-0.39466 -5.845371,-0.01 -11.690174,0.13698 -17.525581,0.42854 -4.040454,0.20188 -8.080712,0.62284 -12.012538,1.62728 -3.995911,1.02081 -8.068158,1.8906 -12.216768,1.87425 -2.190828,-0.009 -4.411643,0.14826 -6.477947,0.97893 -2.251596,0.90515 -4.7163333,0.91805 -7.1170973,0.91406 -4.016555,-0.007 -7.976775,-0.76855 -11.876116,-1.70823 -2.220495,-0.53511 -4.134072,-1.77894 -5.7558317,-3.30053 -1.108494,-1.04002 -1.779737,-0.36798 -1.129812,2.71547 -1.266552,-0.51551 -3.035625,-2.35735 -2.659173,0.76714 0.216551,1.79734 -1.547916,2.745 -2.735972,3.70519 -1.707205,1.37977 -2.239881,3.60788 -2.741734,5.65518 -0.383332,1.5638 -1.839191,2.94702 -1.549167,4.58037 0.346915,1.95375 2.368362,3.0614 3.923556,4.11531 1.654171,1.12099 3.653821,-0.21288 5.477175,-0.33068 1.605007,-0.10369 2.9438957,0.72702 4.3666197,1.24895 1.969482,0.72251 3.955678,1.43871 5.668259,2.68182 1.61279099,1.17067 3.04177399,2.7897 3.535314,4.70834 0.577905,2.24661 -0.57006401,4.52638 -1.46641901,6.57943 -0.512754,1.17443 -1.51733699,1.94275 -2.14712999,3.03935 -1.66471,2.89862 -3.188726,6.00096 -5.722488,8.23202 -1.144019,1.00735 -3.2405547,0.58406 -4.0158697,2.13759 -0.660418,1.3233 0.278208,2.7704 1.652452,3.04803 1.2388187,0.25027 2.5045287,0.0454 3.7568937,0.0808 1.283516,0.0362 2.54411,-0.59357 3.205953,-1.76387 0.857695,-1.51661 2.33333699,-2.5357 3.72227699,-3.57587 2.22356101,-1.66522 4.67450201,-2.97105 6.74584201,-4.84032 1.46631,-1.32326 3.1569083,-2.36312 4.8122623,-3.44279 1.316572,-0.8587 2.348049,-2.13778 3.691287,-2.9279 1.273013,-0.74881 3.120457,-0.17962 4.213715,0.74365 1.562277,1.31937 1.926825,3.45829 2.182999,5.3991 0.257023,1.94724 1.415154,3.76969 1.216004,5.75733 -0.14473,1.4445 -1.045958,3.08366 -2.647253,3.23503 -1.596145,0.15088 -2.724973,2.26669 -1.484393,3.46671 1.255219,1.21418 3.055062,0.63829 4.589383,0.91785 1.701102,0.30995 3.391145,-0.76256 3.975638,-2.36236 0.53914,-1.47567 1.022793,-2.95767 1.647855,-4.41082 0.957396,-2.22576 1.355435,-4.65962 1.785928,-7.038 0.45881,-2.53483 0.436386,-5.36082 1.931541,-7.5107 0.861872,-1.23929 2.89741,-1.0156 4.18043,-0.50449 1.49204,0.59438 2.791585,-0.92099 4.10953,-0.35238 1.181777,0.50986 2.965022,0.46771 4.278643,1.41029 1.163083,0.83456 2.599086,0.64312 4.225229,0.0629 2.139038,-0.76321 2.179292,1.69506 2.440389,2.95187 0.352731,1.6979 1.59892,3.13693 2.568212,4.55904 1.266934,1.8588 0.453615,4.33628 -1.222287,5.67554 -1.290486,1.03126 -2.419517,2.66898 -4.297568,2.51761 -1.602274,-0.12914 -3.702628,1.38112 -3.170495,3.13119 0.468725,1.54154 2.477783,1.58482 3.875172,1.68029 2.14227,0.14636 4.520809,0.12298 6.225979,-1.32011 1.111439,-0.94061 2.492216,-1.42709 3.452464,-2.51295 1.914373,-2.1648 3.762049,-4.37831 5.715186,-6.51588 1.275226,-1.39564 1.032653,-3.42329 1.397015,-5.2394 0.239889,-1.19569 -0.180526,-3.8279 1.621441,-3.05798 1.394669,0.59589 2.752655,1.08223 4.100454,1.78588 1.292741,0.67491 2.598407,1.43402 4.007494,1.77456 1.739757,0.42046 3.354531,1.21758 5.093598,1.58316 1.944104,0.40868 3.656712,1.56858 4.507205,3.35747 0.849765,1.78736 1.330498,3.67831 1.910354,5.54739 0.476642,1.53638 0.492082,3.15996 0.752694,4.73249 0.25445,1.53534 1.931009,1.885 3.557745,1.88116 1.024728,-0.002 1.873874,-4.27714 1.803542,-5.2911 z"
       id="path826"
       inkscape:connector-curvature="0"
       sodipodi:nodetypes="ssssssssssssssssssssssssssssssssssssscsssssssssssssssssssssssssssssssssssssssssssssssssssss" />
  </g>
</svg>
