<?xml version="1.0" encoding="UTF-8" standalone="no"?>
<!-- Created with Inkscape (http://www.inkscape.org/) -->

<svg
   xmlns:dc="http://purl.org/dc/elements/1.1/"
   xmlns:cc="http://creativecommons.org/ns#"
   xmlns:rdf="http://www.w3.org/1999/02/22-rdf-syntax-ns#"
   xmlns:svg="http://www.w3.org/2000/svg"
   xmlns="http://www.w3.org/2000/svg"
   xmlns:sodipodi="http://sodipodi.sourceforge.net/DTD/sodipodi-0.dtd"
   xmlns:inkscape="http://www.inkscape.org/namespaces/inkscape"
   width="238.25055mm"
   height="187.12582mm"
   viewBox="0 0 238.25055 187.12582"
   version="1.1"
   id="svg8"
   inkscape:version="0.92.4 (5da689c313, 2019-01-14)"
   sodipodi:docname="German_Shepherd-side.svg">
  <defs
     id="defs2">
    <inkscape:path-effect
       effect="mirror_symmetry"
       start_point="105,0"
       end_point="105,297"
       center_point="105,148.5"
       id="path-effect832"
       is_visible="true"
       mode="vertical"
       discard_orig_path="false"
       fuse_paths="false"
       oposite_fuse="false" />
  </defs>
  <sodipodi:namedview
     id="base"
     pagecolor="#ffffff"
     bordercolor="#666666"
     borderopacity="1.0"
     inkscape:pageopacity="0.0"
     inkscape:pageshadow="2"
     inkscape:zoom="0.49497474"
     inkscape:cx="353.07871"
     inkscape:cy="174.52576"
     inkscape:document-units="mm"
     inkscape:current-layer="layer1"
     showgrid="false"
     inkscape:pagecheckerboard="true"
     borderlayer="true"
     inkscape:showpageshadow="false"
     inkscape:snap-page="true"
     showguides="true"
     inkscape:guide-bbox="true"
     inkscape:snap-object-midpoints="true"
     inkscape:snap-global="true"
     inkscape:window-width="1600"
     inkscape:window-height="837"
     inkscape:window-x="-8"
     inkscape:window-y="-8"
     inkscape:window-maximized="1"
     fit-margin-top="0"
     fit-margin-left="0"
     fit-margin-right="0"
     fit-margin-bottom="0" />
  <metadata
     id="metadata5">
    <rdf:RDF>
      <cc:Work
         rdf:about="">
        <dc:format>image/svg+xml</dc:format>
        <dc:type
           rdf:resource="http://purl.org/dc/dcmitype/StillImage" />
        <dc:title />
      </cc:Work>
    </rdf:RDF>
  </metadata>
  <g
     inkscape:label="Layer 1"
     inkscape:groupmode="layer"
     id="layer1"
     transform="translate(-58.261502,-42.005139)">
    <path
       style="opacity:1;fill:#555555;fill-opacity:1;fill-rule:nonzero;stroke:none;stroke-width:5;stroke-linecap:round;stroke-linejoin:round;stroke-miterlimit:4;stroke-dasharray:none;stroke-dashoffset:0;stroke-opacity:1;paint-order:markers stroke fill"
       d="m 90.543176,58.678701 c 0.189,-7.9375 -0.37795,-17.3869 0.94496,-16.63095 1.32292,0.75595 12.095224,19.0878 14.174104,20.97768 2.07886,1.88988 10.39434,10.77232 13.41816,18.70982 3.02379,7.9375 5.48066,15.875 14.1741,19.654759 8.69344,3.77976 21.92261,9.82738 49.3259,13.60714 27.40327,3.77976 40.25445,9.07143 51.59375,16.25298 11.33927,7.18155 27.78125,18.33184 30.80504,25.13541 3.02382,6.80358 10.01638,26.83631 11.90625,29.29316 1.88989,2.45684 5.66965,5.10268 8.50448,6.04762 2.83482,0.94494 5.10267,2.45684 6.0476,4.5357 0.94496,2.07889 3.21281,5.29167 4.53573,6.4256 1.32292,1.13395 0.37798,8.31548 -4.72469,8.88246 -5.1027,0.56694 -9.07145,-0.37799 -9.07145,-0.37799 0,0 -0.18897,8.02366 0.37798,8.7796 0.56698,0.75594 2.26785,4.72469 1.51191,6.2366 -0.75594,1.51191 0.18899,2.89967 -2.07886,2.89967 -2.26787,0 -13.98513,0.023 -15.30805,0.023 -1.32292,0 -0.37798,-5.37946 1.88989,-7.08036 2.26785,-1.70087 3.77976,-0.56695 3.77976,-2.26785 0,-1.7009 1.33635,-7.23457 -1.15293,-12.46533 -5.96377,-2.95898 -9.12514,-6.72367 -11.50929,-9.73243 -5.85861,1.13393 -9.26041,0 -9.26041,0 3.21281,4.15774 1.7009,15.58318 -5.10268,19.55193 -6.80357,3.96875 -15.87492,11.97503 -18.14285,11.97503 h -15.11906 c -1.70087,0 -2.45684,-3.47056 -1.32291,-4.22653 1.13395,-0.75594 4.15774,-5.66962 8.12649,-5.29166 3.96875,0.37798 3.77976,2.64583 8.31548,-1.32292 4.53573,-3.96875 10.01636,-14.44922 8.50448,-16.52811 -1.51191,-2.07885 -10.39437,-3.40177 -17.5759,-7.7485 -7.18156,-4.34673 -17.76489,-11.71727 -23.43452,-24.94643 -13.41816,3.77976 -15.30805,5.85863 -31.18305,8.12648 -15.875,2.26786 -13.79611,1.7009 -23.24552,2.07887 -0.75597,12.66221 -2.83483,28.72618 -4.72472,29.10417 -1.88987,0.37798 -2.45684,0 -3.40177,3.02381 -0.94494,3.02382 -4.34674,17.74752 -7.55952,17.74752 h -16.06399 c -2.26988,0 -3.4018,-5.27432 1.13392,-8.86508 4.5357,-3.59077 5.10268,-2.26785 6.80358,-3.02382 1.70087,-0.75594 4.91368,-12.66219 2.07886,-27.78124 -2.83483,-15.11905 -5.85862,-22.30059 -7.37053,-23.8125 -1.51191,-1.5119 -10.39434,-6.04762 -16.063994,-13.98512 -5.66965,-7.9375 -9.6384,-12.85119 -10.20535,-15.875 -0.56697,-3.02381 0.94493,-24.94643 1.51188,-28.15922 0.56698,-3.2128 -0.18896,-3.77977 -2.26785,-3.59078 -2.07885,0.18899 -6.48652,4.27187 -9.96103,4.27187 -0.66818,3.20723 -2.53907,5.07812 -3.60815,2.53906 -1.06907,-2.53906 -2.27179,-5.74629 2.13815,-10.28987 -9.35442,0.26726 -11.09168,-2.138159 -14.03165,-6.280839 -2.93994,-4.14268 11.4926,-10.15624 13.63075,-12.16076 2.13816,-2.00452 4.00905,-3.34087 4.40995,-6.28084 0.40092,-2.93996 2.27179,-6.28083 6.41448,-8.95353 -2.53908,-6.949 -2.80633,-10.28987 -3.60815,-12.16076 -0.8018,-1.87089 -2.27179,-5.87993 -1.06908,-5.61266 1.20272,0.26727 7.91721,4.9771 12.11032,9.57119 z"
       id="path835"
       inkscape:connector-curvature="0"
       sodipodi:nodetypes="ccccsscccccccccssscscccsssccccccscccssccscscccccccccccccc" />
  </g>
</svg>
