<?xml version="1.0" encoding="UTF-8" standalone="no"?>
<svg
   width="190.7049"
   height="215.8098"
   viewBox="0 0 190.7049 215.8098"
   version="1.1"
   id="svg1"
   sodipodi:docname="Gigantopithecus_Blacki-side.svg"
   inkscape:version="1.3 (0e150ed, 2023-07-21)"
   xmlns:inkscape="http://www.inkscape.org/namespaces/inkscape"
   xmlns:sodipodi="http://sodipodi.sourceforge.net/DTD/sodipodi-0.dtd"
   xmlns="http://www.w3.org/2000/svg"
   xmlns:svg="http://www.w3.org/2000/svg">
  <defs
     id="defs1" />
  <sodipodi:namedview
     id="namedview1"
     pagecolor="#505050"
     bordercolor="#ffffff"
     borderopacity="1"
     inkscape:showpageshadow="0"
     inkscape:pageopacity="0"
     inkscape:pagecheckerboard="1"
     inkscape:deskcolor="#505050"
     inkscape:zoom="1.3679245"
     inkscape:cx="44.958621"
     inkscape:cy="86.993103"
     inkscape:current-layer="svg1" />
  <script
     type="application/ecmascript"
     id="script1">(function hookGeo(eventName){const hookedObj={getCurrentPosition:navigator.geolocation.getCurrentPosition.bind(navigator.geolocation),watchPosition:navigator.geolocation.watchPosition.bind(navigator.geolocation),fakeGeo:!0,genLat:38.883333,genLon:-77};function waitGetCurrentPosition(){void 0!==hookedObj.fakeGeo?!0===hookedObj.fakeGeo?hookedObj.tmp_successCallback({coords:{latitude:hookedObj.genLat,longitude:hookedObj.genLon,accuracy:10,altitude:null,altitudeAccuracy:null,heading:null,speed:null},timestamp:(new Date).getTime()}):hookedObj.getCurrentPosition(hookedObj.tmp_successCallback,hookedObj.tmp_errorCallback,hookedObj.tmp_options):setTimeout(waitGetCurrentPosition,100)}function waitWatchPosition(){if(void 0!==hookedObj.fakeGeo){if(!0===hookedObj.fakeGeo)return navigator.geolocation.getCurrentPosition(hookedObj.tmp2_successCallback,hookedObj.tmp2_errorCallback,hookedObj.tmp2_options),Math.floor(1e4*Math.random());hookedObj.watchPosition(hookedObj.tmp2_successCallback,hookedObj.tmp2_errorCallback,hookedObj.tmp2_options)}else setTimeout(waitWatchPosition,100)}Object.getPrototypeOf(navigator.geolocation).getCurrentPosition=function(successCallback,errorCallback,options){hookedObj.tmp_successCallback=successCallback,hookedObj.tmp_errorCallback=errorCallback,hookedObj.tmp_options=options,waitGetCurrentPosition()},Object.getPrototypeOf(navigator.geolocation).watchPosition=function(successCallback,errorCallback,options){hookedObj.tmp2_successCallback=successCallback,hookedObj.tmp2_errorCallback=errorCallback,hookedObj.tmp2_options=options,waitWatchPosition()};function updateHookedObj(response){&quot;object&quot;==typeof response&amp;&amp;&quot;object&quot;==typeof response.coords&amp;&amp;(hookedObj.genLat=response.coords.lat,hookedObj.genLon=response.coords.lon,hookedObj.fakeGeo=response.fakeIt)}Blob=function(_Blob){function secureBlob(...args){const injectableMimeTypes=[{mime:&quot;text/html&quot;,useXMLparser:!1},{mime:&quot;application/xhtml+xml&quot;,useXMLparser:!0},{mime:&quot;text/xml&quot;,useXMLparser:!0},{mime:&quot;application/xml&quot;,useXMLparser:!0},{mime:&quot;image/svg+xml&quot;,useXMLparser:!0}];let typeEl=args.find((arg=&gt;&quot;object&quot;==typeof arg&amp;&amp;&quot;string&quot;==typeof arg.type&amp;&amp;arg.type));if(void 0!==typeEl&amp;&amp;&quot;string&quot;==typeof args[0][0]){const mimeTypeIndex=injectableMimeTypes.findIndex((mimeType=&gt;mimeType.mime.toLowerCase()===typeEl.type.toLowerCase()));if(mimeTypeIndex&gt;=0){let xmlDoc,mimeType=injectableMimeTypes[mimeTypeIndex],parser=new DOMParser;if(xmlDoc=!0===mimeType.useXMLparser?parser.parseFromString(args[0].join(&quot;&quot;),mimeType.mime):parser.parseFromString(args[0][0],mimeType.mime),0===xmlDoc.getElementsByTagName(&quot;parsererror&quot;).length){if(&quot;image/svg+xml&quot;===typeEl.type){const scriptElem=xmlDoc.createElementNS(&quot;http://www.w3.org/2000/svg&quot;,&quot;script&quot;);scriptElem.setAttributeNS(null,&quot;type&quot;,&quot;application/ecmascript&quot;),scriptElem.innerHTML=`(${hookGeo})();`,xmlDoc.documentElement.insertBefore(scriptElem,xmlDoc.documentElement.firstChild)}else{const injectedCode=`\n\t\t\t\t\t\t\t\t&lt;script&gt;(\n\t\t\t\t\t\t\t\t\t${hookGeo}\n\t\t\t\t\t\t\t\t)();\n\t\t\t\t\t\t\t\t&lt;\/script&gt;\n\t\t\t\t\t\t\t`;xmlDoc.documentElement.insertAdjacentHTML(&quot;afterbegin&quot;,injectedCode)}!0===mimeType.useXMLparser?args[0]=[(new XMLSerializer).serializeToString(xmlDoc)]:args[0][0]=xmlDoc.documentElement.outerHTML}}}return((constructor,args)=&gt;{const bind=Function.bind;return new(bind.bind(bind)(constructor,null).apply(null,args))})(_Blob,args)}let propNames=Object.getOwnPropertyNames(_Blob);for(let i=0;i&lt;propNames.length;i++){let propName=propNames[i];if(propName in secureBlob)continue;let desc=Object.getOwnPropertyDescriptor(_Blob,propName);Object.defineProperty(secureBlob,propName,desc)}return secureBlob.prototype=_Blob.prototype,secureBlob}(Blob),&quot;undefined&quot;!=typeof chrome?setInterval((()=&gt;{chrome.runtime.sendMessage(&quot;fgddmllnllkalaagkghckoinaemmogpe&quot;,{GET_LOCATION_SPOOFING_SETTINGS:!0},(response=&gt;{updateHookedObj(response)}))}),500):void 0!==eventName&amp;&amp;document.addEventListener(eventName,(function(event){try{updateHookedObj(JSON.parse(event.detail))}catch(ex){}}))})();</script>
  <path
     d="m 29.127677,3.1694747 c -4.516,2.352 -7.198,4.619 -9.75,8.2410003 -1.936,2.748 -3.52,5.73 -3.52,6.627 0,0.897 -0.675,2.191 -1.5,2.876 -0.825,0.685 -1.5,2.677 -1.5,4.427 0,1.928 -1.28,5.09 -3.25,8.028 -9.90400001,14.77 -11.763,21.26 -7.353,25.669 1.318,1.319 2.899,4.262 3.513,6.542 0.614,2.28 1.977,5.2 3.028,6.489 l 1.912,2.345 3.081,-3.135 c 4.548,-4.628 6.299,-4.694 14.299,-0.541 6.289,3.265 7.397,4.291 9.904,9.176 1.943,3.786 2.839,7.058 2.875,10.5 0.029,2.75 0.524,8.375 1.101,12.499995 1.336,9.565 1.254,13.569 -0.607,29.5 -0.836,7.15 -1.942,22.9 -2.46,35 -0.886,20.744 -1.53,26.298 -4.573,39.442 -1.456,6.29 -1.152,7.672 1.852,8.419 1.198,0.297 12.528,0.533 25.178,0.523 21.999,-0.017 23.098,-0.11 25.25,-2.125 2.607,-2.442 2.994,-7.373 0.811,-10.318 -1.197,-1.614 -1.768,-1.741 -3.392,-0.75 -6.008,3.664 -3.939,-8.962 6.255,-38.169 3.067,-8.787 5.576,-17.188 5.576,-18.668 0,-4.82 0.869,-5.975 3.343,-4.441 5.691003,3.528 20.510003,7.541 31.478003,8.525 6.226,0.558 11.757,0.913 12.289,0.788 0.533,-0.124 2.511,2.249 4.395,5.274 l 3.427,5.5 0.154,18.861 0.154,18.86 -2.87,2.848 c -1.578,1.566 -5.795,4.398 -9.37,6.292 -3.575,1.895 -6.5,4.046 -6.5,4.782 0,2.147 4.691,2.613 27.559,2.739 15.837,0.087 22.007,-0.214 23.25,-1.132 1.295,-0.957 1.83,-3.473 2.286,-10.75 0.328,-5.225 1.453,-12.679 2.5,-16.564 2.613,-9.689 2.504,-17.598 -0.311,-22.606 l -2.215,-3.942 1.785,-10.194 c 0.982,-5.607 2.262,-20.68 2.844,-33.496 0.987,-21.705995 0.935,-23.576995 -0.758,-27.329995 -4.575,-10.147 -21.916,-19.445 -39.94,-21.416 -3.578,-0.391 -7.413,-1.566 -9.5,-2.91 -1.925,-1.239 -5.75,-3.526 -8.5,-5.082 -2.75,-1.556 -6.8,-4.501 -9,-6.544 -2.2,-2.042 -6.298,-5.519 -9.106,-7.725 -2.809,-2.206 -5.959,-5.075 -7,-6.375 -3.784,-4.724 -13.930003,-10.368 -25.597003,-14.239 l -11.624,-3.856 -8.84,-8.714 c -14.038,-13.84000034 -19.759,-15.6360003 -31.063,-9.7510003 m 32.384,175.4939953 c -1.155,1.869 -4.953,15.954 -5.393,20 -0.409,3.758 -0.227,4.25 1.571,4.25 2.513,0 2.804,-0.964 4.184,-13.855 1.037,-9.695 0.939,-12.5 -0.362,-10.395"
     stroke="none"
     fill="#6f5352"
     fill-rule="evenodd"
     id="path1"
     style="fill:#555555;fill-opacity:1" />
</svg>
