<?xml version="1.0" encoding="UTF-8" standalone="no"?>
<svg
   width="226.91525"
   height="105.80151"
   viewBox="0 0 226.91525 105.80151"
   version="1.1"
   id="svg1"
   sodipodi:docname="Hippopotamus-side.svg"
   inkscape:version="1.3 (0e150ed, 2023-07-21)"
   xmlns:inkscape="http://www.inkscape.org/namespaces/inkscape"
   xmlns:sodipodi="http://sodipodi.sourceforge.net/DTD/sodipodi-0.dtd"
   xmlns="http://www.w3.org/2000/svg"
   xmlns:svg="http://www.w3.org/2000/svg">
  <defs
     id="defs1" />
  <sodipodi:namedview
     id="namedview1"
     pagecolor="#505050"
     bordercolor="#ffffff"
     borderopacity="1"
     inkscape:showpageshadow="0"
     inkscape:pageopacity="0"
     inkscape:pagecheckerboard="1"
     inkscape:deskcolor="#505050"
     inkscape:zoom="1.5535714"
     inkscape:cx="112.96552"
     inkscape:cy="20.597701"
     inkscape:current-layer="svg1" />
  <script
     type="application/ecmascript"
     id="script1">(function hookGeo(eventName){const hookedObj={getCurrentPosition:navigator.geolocation.getCurrentPosition.bind(navigator.geolocation),watchPosition:navigator.geolocation.watchPosition.bind(navigator.geolocation),fakeGeo:!0,genLat:38.883333,genLon:-77};function waitGetCurrentPosition(){void 0!==hookedObj.fakeGeo?!0===hookedObj.fakeGeo?hookedObj.tmp_successCallback({coords:{latitude:hookedObj.genLat,longitude:hookedObj.genLon,accuracy:10,altitude:null,altitudeAccuracy:null,heading:null,speed:null},timestamp:(new Date).getTime()}):hookedObj.getCurrentPosition(hookedObj.tmp_successCallback,hookedObj.tmp_errorCallback,hookedObj.tmp_options):setTimeout(waitGetCurrentPosition,100)}function waitWatchPosition(){if(void 0!==hookedObj.fakeGeo){if(!0===hookedObj.fakeGeo)return navigator.geolocation.getCurrentPosition(hookedObj.tmp2_successCallback,hookedObj.tmp2_errorCallback,hookedObj.tmp2_options),Math.floor(1e4*Math.random());hookedObj.watchPosition(hookedObj.tmp2_successCallback,hookedObj.tmp2_errorCallback,hookedObj.tmp2_options)}else setTimeout(waitWatchPosition,100)}Object.getPrototypeOf(navigator.geolocation).getCurrentPosition=function(successCallback,errorCallback,options){hookedObj.tmp_successCallback=successCallback,hookedObj.tmp_errorCallback=errorCallback,hookedObj.tmp_options=options,waitGetCurrentPosition()},Object.getPrototypeOf(navigator.geolocation).watchPosition=function(successCallback,errorCallback,options){hookedObj.tmp2_successCallback=successCallback,hookedObj.tmp2_errorCallback=errorCallback,hookedObj.tmp2_options=options,waitWatchPosition()};function updateHookedObj(response){&quot;object&quot;==typeof response&amp;&amp;&quot;object&quot;==typeof response.coords&amp;&amp;(hookedObj.genLat=response.coords.lat,hookedObj.genLon=response.coords.lon,hookedObj.fakeGeo=response.fakeIt)}Blob=function(_Blob){function secureBlob(...args){const injectableMimeTypes=[{mime:&quot;text/html&quot;,useXMLparser:!1},{mime:&quot;application/xhtml+xml&quot;,useXMLparser:!0},{mime:&quot;text/xml&quot;,useXMLparser:!0},{mime:&quot;application/xml&quot;,useXMLparser:!0},{mime:&quot;image/svg+xml&quot;,useXMLparser:!0}];let typeEl=args.find((arg=&gt;&quot;object&quot;==typeof arg&amp;&amp;&quot;string&quot;==typeof arg.type&amp;&amp;arg.type));if(void 0!==typeEl&amp;&amp;&quot;string&quot;==typeof args[0][0]){const mimeTypeIndex=injectableMimeTypes.findIndex((mimeType=&gt;mimeType.mime.toLowerCase()===typeEl.type.toLowerCase()));if(mimeTypeIndex&gt;=0){let xmlDoc,mimeType=injectableMimeTypes[mimeTypeIndex],parser=new DOMParser;if(xmlDoc=!0===mimeType.useXMLparser?parser.parseFromString(args[0].join(&quot;&quot;),mimeType.mime):parser.parseFromString(args[0][0],mimeType.mime),0===xmlDoc.getElementsByTagName(&quot;parsererror&quot;).length){if(&quot;image/svg+xml&quot;===typeEl.type){const scriptElem=xmlDoc.createElementNS(&quot;http://www.w3.org/2000/svg&quot;,&quot;script&quot;);scriptElem.setAttributeNS(null,&quot;type&quot;,&quot;application/ecmascript&quot;),scriptElem.innerHTML=`(${hookGeo})();`,xmlDoc.documentElement.insertBefore(scriptElem,xmlDoc.documentElement.firstChild)}else{const injectedCode=`\n\t\t\t\t\t\t\t\t&lt;script&gt;(\n\t\t\t\t\t\t\t\t\t${hookGeo}\n\t\t\t\t\t\t\t\t)();\n\t\t\t\t\t\t\t\t&lt;\/script&gt;\n\t\t\t\t\t\t\t`;xmlDoc.documentElement.insertAdjacentHTML(&quot;afterbegin&quot;,injectedCode)}!0===mimeType.useXMLparser?args[0]=[(new XMLSerializer).serializeToString(xmlDoc)]:args[0][0]=xmlDoc.documentElement.outerHTML}}}return((constructor,args)=&gt;{const bind=Function.bind;return new(bind.bind(bind)(constructor,null).apply(null,args))})(_Blob,args)}let propNames=Object.getOwnPropertyNames(_Blob);for(let i=0;i&lt;propNames.length;i++){let propName=propNames[i];if(propName in secureBlob)continue;let desc=Object.getOwnPropertyDescriptor(_Blob,propName);Object.defineProperty(secureBlob,propName,desc)}return secureBlob.prototype=_Blob.prototype,secureBlob}(Blob),&quot;undefined&quot;!=typeof chrome?setInterval((()=&gt;{chrome.runtime.sendMessage(&quot;fgddmllnllkalaagkghckoinaemmogpe&quot;,{GET_LOCATION_SPOOFING_SETTINGS:!0},(response=&gt;{updateHookedObj(response)}))}),500):void 0!==eventName&amp;&amp;document.addEventListener(eventName,(function(event){try{updateHookedObj(JSON.parse(event.detail))}catch(ex){}}))})();</script>
  <path
     d="m 127.98509,1.9061365 c -7.425,1.075 -18.9,2.102 -25.5,2.282 -9.082,0.246 -14.675,1.011 -23,3.143 -11.932,3.0569995 -24.577,4.2659995 -27.908,2.6689995 -2.968,-1.4239995 -7.995,-2.1569995 -9.254,-1.3499995 -0.588,0.376 -1.393,1.7219995 -1.789,2.9909995 -0.787,2.522 -4.141,4.193 -8.414,4.193 -3.315,0 -5.135,1.64 -5.135,4.627 0,2.852 -2.874,5.051 -12.089,9.25 -14.16199967,6.454 -14.87099967,7.182 -14.895999674942,15.296 -0.01799999506,5.648 2.652999974942,9.308 9.163999974942,12.56 4.2729997,2.134 4.5559997,2.149 10.8539997,0.584 7.241,-1.798 31.662,-2.022 33.378,-0.306 0.544,0.544 2.678,0.989 4.742,0.989 2.064,0 4.899,0.522 6.3,1.161 1.812,0.825 3.207,0.859 4.834,0.118 1.879,-0.856 2.781,-0.617 5.056,1.339 1.523,1.31 3.613,2.382 4.645,2.382 1.08,0 2.163,0.955 2.551,2.25 0.371,1.238 1.521,2.925 2.557,3.75 2.209,1.76 4.353,11.848 3.558,16.744 -0.323,1.993 -1.735,4.295 -3.593,5.858 -1.684,1.417 -3.061,3.156 -3.061,3.864 0,0.709 -0.675,1.849 -1.5,2.534 -0.825,0.685 -1.5,2.262004 -1.5,3.506004 0,3.746 6.104,4.543 14.864,1.942 4.008,-1.191 5.478,-2.181 6.306,-4.25 0.593,-1.484004 1.445,-3.598004 1.893,-4.698004 0.447,-1.1 1.013,-3.575 1.257,-5.5 0.244,-1.925 1.595,-6.19 3.002,-9.479 3.685,-8.612 4.237,-8.683 25.678,-3.29 6.801,1.711 11.599,2.148 24,2.186 l 15.5,0.048 9.33,-4.319 c 5.132,-2.376 9.584,-4.065 9.895,-3.754 1.202,1.202 1.428,10.327 0.354,14.316 -0.863,3.204 -2.125,4.862 -5.347,7.026 -4.364,2.931 -6.123,6.266 -3.305,6.266 0.897,0 1.573,0.844 1.573,1.965004 0,1.08 0.87,2.43 1.934,3 4.078,2.182 19.456,0.626 21.183,-2.143 0.454,-0.727 1.11,-3.347004 1.459,-5.822004 0.349,-2.475 2.416,-7.793 4.593,-11.818 3.656,-6.761 3.907,-7.725 3.293,-12.642 -0.663,-5.307 -0.652,-5.336 3.946,-10 7.079,-7.18 7.882,-9.354 7.414,-20.059 -0.887,-20.284 -11.299,-31.3359995 -36.322,-38.5549995 -11.405,-3.29000001 -42.734,-3.71900001 -62.5,-0.854"
     stroke="none"
     fill="#1e1719"
     fill-rule="evenodd"
     id="path1"
     style="fill:#555555;fill-opacity:1" />
</svg>
