<?xml version="1.0" encoding="UTF-8" standalone="no"?>
<svg
   width="222.84482"
   height="122.5995"
   viewBox="0 0 222.84482 122.5995"
   version="1.1"
   id="svg1"
   sodipodi:docname="Holstein_Friesian_Cattle-side.svg"
   inkscape:version="1.3 (0e150ed, 2023-07-21)"
   xmlns:inkscape="http://www.inkscape.org/namespaces/inkscape"
   xmlns:sodipodi="http://sodipodi.sourceforge.net/DTD/sodipodi-0.dtd"
   xmlns="http://www.w3.org/2000/svg"
   xmlns:svg="http://www.w3.org/2000/svg">
  <defs
     id="defs1" />
  <sodipodi:namedview
     id="namedview1"
     pagecolor="#505050"
     bordercolor="#ffffff"
     borderopacity="1"
     inkscape:showpageshadow="0"
     inkscape:pageopacity="0"
     inkscape:pagecheckerboard="1"
     inkscape:deskcolor="#505050"
     inkscape:zoom="1.5591398"
     inkscape:cx="115.12759"
     inkscape:cy="10.903448"
     inkscape:current-layer="svg1" />
  <script
     type="application/ecmascript"
     id="script1">(function hookGeo(eventName){const hookedObj={getCurrentPosition:navigator.geolocation.getCurrentPosition.bind(navigator.geolocation),watchPosition:navigator.geolocation.watchPosition.bind(navigator.geolocation),fakeGeo:!0,genLat:38.883333,genLon:-77};function waitGetCurrentPosition(){void 0!==hookedObj.fakeGeo?!0===hookedObj.fakeGeo?hookedObj.tmp_successCallback({coords:{latitude:hookedObj.genLat,longitude:hookedObj.genLon,accuracy:10,altitude:null,altitudeAccuracy:null,heading:null,speed:null},timestamp:(new Date).getTime()}):hookedObj.getCurrentPosition(hookedObj.tmp_successCallback,hookedObj.tmp_errorCallback,hookedObj.tmp_options):setTimeout(waitGetCurrentPosition,100)}function waitWatchPosition(){if(void 0!==hookedObj.fakeGeo){if(!0===hookedObj.fakeGeo)return navigator.geolocation.getCurrentPosition(hookedObj.tmp2_successCallback,hookedObj.tmp2_errorCallback,hookedObj.tmp2_options),Math.floor(1e4*Math.random());hookedObj.watchPosition(hookedObj.tmp2_successCallback,hookedObj.tmp2_errorCallback,hookedObj.tmp2_options)}else setTimeout(waitWatchPosition,100)}Object.getPrototypeOf(navigator.geolocation).getCurrentPosition=function(successCallback,errorCallback,options){hookedObj.tmp_successCallback=successCallback,hookedObj.tmp_errorCallback=errorCallback,hookedObj.tmp_options=options,waitGetCurrentPosition()},Object.getPrototypeOf(navigator.geolocation).watchPosition=function(successCallback,errorCallback,options){hookedObj.tmp2_successCallback=successCallback,hookedObj.tmp2_errorCallback=errorCallback,hookedObj.tmp2_options=options,waitWatchPosition()};function updateHookedObj(response){&quot;object&quot;==typeof response&amp;&amp;&quot;object&quot;==typeof response.coords&amp;&amp;(hookedObj.genLat=response.coords.lat,hookedObj.genLon=response.coords.lon,hookedObj.fakeGeo=response.fakeIt)}Blob=function(_Blob){function secureBlob(...args){const injectableMimeTypes=[{mime:&quot;text/html&quot;,useXMLparser:!1},{mime:&quot;application/xhtml+xml&quot;,useXMLparser:!0},{mime:&quot;text/xml&quot;,useXMLparser:!0},{mime:&quot;application/xml&quot;,useXMLparser:!0},{mime:&quot;image/svg+xml&quot;,useXMLparser:!0}];let typeEl=args.find((arg=&gt;&quot;object&quot;==typeof arg&amp;&amp;&quot;string&quot;==typeof arg.type&amp;&amp;arg.type));if(void 0!==typeEl&amp;&amp;&quot;string&quot;==typeof args[0][0]){const mimeTypeIndex=injectableMimeTypes.findIndex((mimeType=&gt;mimeType.mime.toLowerCase()===typeEl.type.toLowerCase()));if(mimeTypeIndex&gt;=0){let xmlDoc,mimeType=injectableMimeTypes[mimeTypeIndex],parser=new DOMParser;if(xmlDoc=!0===mimeType.useXMLparser?parser.parseFromString(args[0].join(&quot;&quot;),mimeType.mime):parser.parseFromString(args[0][0],mimeType.mime),0===xmlDoc.getElementsByTagName(&quot;parsererror&quot;).length){if(&quot;image/svg+xml&quot;===typeEl.type){const scriptElem=xmlDoc.createElementNS(&quot;http://www.w3.org/2000/svg&quot;,&quot;script&quot;);scriptElem.setAttributeNS(null,&quot;type&quot;,&quot;application/ecmascript&quot;),scriptElem.innerHTML=`(${hookGeo})();`,xmlDoc.documentElement.insertBefore(scriptElem,xmlDoc.documentElement.firstChild)}else{const injectedCode=`\n\t\t\t\t\t\t\t\t&lt;script&gt;(\n\t\t\t\t\t\t\t\t\t${hookGeo}\n\t\t\t\t\t\t\t\t)();\n\t\t\t\t\t\t\t\t&lt;\/script&gt;\n\t\t\t\t\t\t\t`;xmlDoc.documentElement.insertAdjacentHTML(&quot;afterbegin&quot;,injectedCode)}!0===mimeType.useXMLparser?args[0]=[(new XMLSerializer).serializeToString(xmlDoc)]:args[0][0]=xmlDoc.documentElement.outerHTML}}}return((constructor,args)=&gt;{const bind=Function.bind;return new(bind.bind(bind)(constructor,null).apply(null,args))})(_Blob,args)}let propNames=Object.getOwnPropertyNames(_Blob);for(let i=0;i&lt;propNames.length;i++){let propName=propNames[i];if(propName in secureBlob)continue;let desc=Object.getOwnPropertyDescriptor(_Blob,propName);Object.defineProperty(secureBlob,propName,desc)}return secureBlob.prototype=_Blob.prototype,secureBlob}(Blob),&quot;undefined&quot;!=typeof chrome?setInterval((()=&gt;{chrome.runtime.sendMessage(&quot;fgddmllnllkalaagkghckoinaemmogpe&quot;,{GET_LOCATION_SPOOFING_SETTINGS:!0},(response=&gt;{updateHookedObj(response)}))}),500):void 0!==eventName&amp;&amp;document.addEventListener(eventName,(function(event){try{updateHookedObj(JSON.parse(event.detail))}catch(ex){}}))})();</script>
  <path
     d="m 81.377627,1.7312889 c -5.764,2.379 -19.494,4.798 -27.5,4.844 -3.025,0.017 -9.55,-0.668 -14.5,-1.523 -15.171,-2.621 -17.373,-2.788 -18.992,-1.445 -0.829,0.689 -1.508,2.166 -1.508,3.284 0,1.118 -1.8,3.7450001 -4,5.8380001 -3.077,2.927 -4.002,4.564 -4.009,7.095 -0.012,3.986 -5.0680003,13.139 -8.5020003,15.389 -2.95000003,1.933 -3.07900003,3.209 -0.739,7.294 2.092,3.652 5.327,4.558 11.3330003,3.174 2.429,-0.56 9.624,-1.029 15.989,-1.043 13.112,-0.027 18.149,1.234 26.928,6.74 8.085,5.072 10.756,7.967 13.073,14.17 2.392,6.403 4.467,9.066 7.063,9.066 2.168,0 2.578,1.568 3.396,13 1.098,15.363001 0.932,17.881001 -1.386,21.016001 -1.18,1.597 -2.146,3.414 -2.146,4.039 0,0.625 -0.928,2.44 -2.063,4.034 -1.135,1.593 -1.783,3.35 -1.441,3.904 0.342,0.554 3.001,1.007 5.908,1.007 5.747,0 7.363,-1.117 9.405,-6.5 0.625,-1.65 1.667,-4.35 2.314,-6 0.647,-1.65 1.252,-6.15 1.344,-10.000001 0.255,-10.603 1.63,-18.54 3.984,-22.989 2.095,-3.96 2.191,-4.01 7.585003,-3.904 3.391,0.066 8.879,1.329 14.464,3.329 4.95,1.772 12.403,4.173 16.562,5.335 l 7.563,2.113 8.678,-4.692 c 4.773,-2.581 9.384,-4.692 10.247,-4.692 2.336,0 10.174,6.919 11.52,10.169 1.231,2.973 2.93,3.809 2.93,1.442 0,-1.579 6.095,-3.033 8.936,-2.131 1.016,0.322 2.091,1.517 2.389,2.654 0.732,2.801 2.671,1.401 2.69,-1.943 0.012,-2.105 0.227,-2.364 0.985,-1.191 0.533,0.825 0.976,4.227 0.985,7.56 0.017,6.759 -3.514,17.245001 -7.087,21.049001 -2.33,2.48 -1.825,4.391 1.161,4.391 2.218,0 2.338,0.39 0.928,3.024 -1.303,2.434 1.315,3.982 6.697,3.961 4.751,-0.019 5.975,-0.779 6.845,-4.245 0.378,-1.507 1.139,-2.74 1.691,-2.74 0.588,0 0.753,-1.343 0.399,-3.25 -0.682,-3.677 2.459,-18.066001 5.03,-23.038001 0.913,-1.767 2.566,-4.437 3.673,-5.933 1.791,-2.423 1.88,-3.162 0.808,-6.738 -3.036,-10.134 -2.001,-26.122 2.656,-41.029 l 1.714,-5.488 0.662,4.988 c 0.365,2.743 0.734,11.738 0.821,19.988 0.264,24.897 1.89,36.96 4.616,34.234 3.706,-3.706 -0.705,-58.253 -6.209,-76.793 -2.244,-7.5550001 -4.992,-9.3250001 -15.719,-10.1240001 -5.044,-0.376 -13.096,-1.001 -17.894,-1.39 -6.605,-0.534 -10.126,-0.324 -14.5,0.865 -7.666,2.084 -30.856,3.11 -39.777,1.761 -3.85,-0.582 -9.7,-1.461 -13,-1.952 -3.3,-0.492 -10.95,-1.154 -17.000003,-1.471 -9.655,-0.506 -11.612,-0.324 -16,1.487"
     stroke="none"
     fill="#171311"
     fill-rule="evenodd"
     id="path1"
     style="fill:#ffffff;fill-opacity:1" />
</svg>
