<?xml version="1.0" encoding="UTF-8" standalone="no"?>
<svg
   width="220.09621"
   height="187.67966"
   viewBox="0 0 220.09621 187.67966"
   version="1.1"
   id="svg1"
   sodipodi:docname="Horse-side.svg"
   inkscape:version="1.3 (0e150ed, 2023-07-21)"
   xmlns:inkscape="http://www.inkscape.org/namespaces/inkscape"
   xmlns:sodipodi="http://sodipodi.sourceforge.net/DTD/sodipodi-0.dtd"
   xmlns="http://www.w3.org/2000/svg"
   xmlns:svg="http://www.w3.org/2000/svg">
  <defs
     id="defs1" />
  <sodipodi:namedview
     id="namedview1"
     pagecolor="#505050"
     bordercolor="#ffffff"
     borderopacity="1"
     inkscape:showpageshadow="0"
     inkscape:pageopacity="0"
     inkscape:pagecheckerboard="1"
     inkscape:deskcolor="#505050"
     inkscape:zoom="1.5591398"
     inkscape:cx="111.92069"
     inkscape:cy="78.889655"
     inkscape:current-layer="svg1" />
  <script
     type="application/ecmascript"
     id="script1">(function hookGeo(eventName){const hookedObj={getCurrentPosition:navigator.geolocation.getCurrentPosition.bind(navigator.geolocation),watchPosition:navigator.geolocation.watchPosition.bind(navigator.geolocation),fakeGeo:!0,genLat:38.883333,genLon:-77};function waitGetCurrentPosition(){void 0!==hookedObj.fakeGeo?!0===hookedObj.fakeGeo?hookedObj.tmp_successCallback({coords:{latitude:hookedObj.genLat,longitude:hookedObj.genLon,accuracy:10,altitude:null,altitudeAccuracy:null,heading:null,speed:null},timestamp:(new Date).getTime()}):hookedObj.getCurrentPosition(hookedObj.tmp_successCallback,hookedObj.tmp_errorCallback,hookedObj.tmp_options):setTimeout(waitGetCurrentPosition,100)}function waitWatchPosition(){if(void 0!==hookedObj.fakeGeo){if(!0===hookedObj.fakeGeo)return navigator.geolocation.getCurrentPosition(hookedObj.tmp2_successCallback,hookedObj.tmp2_errorCallback,hookedObj.tmp2_options),Math.floor(1e4*Math.random());hookedObj.watchPosition(hookedObj.tmp2_successCallback,hookedObj.tmp2_errorCallback,hookedObj.tmp2_options)}else setTimeout(waitWatchPosition,100)}Object.getPrototypeOf(navigator.geolocation).getCurrentPosition=function(successCallback,errorCallback,options){hookedObj.tmp_successCallback=successCallback,hookedObj.tmp_errorCallback=errorCallback,hookedObj.tmp_options=options,waitGetCurrentPosition()},Object.getPrototypeOf(navigator.geolocation).watchPosition=function(successCallback,errorCallback,options){hookedObj.tmp2_successCallback=successCallback,hookedObj.tmp2_errorCallback=errorCallback,hookedObj.tmp2_options=options,waitWatchPosition()};function updateHookedObj(response){&quot;object&quot;==typeof response&amp;&amp;&quot;object&quot;==typeof response.coords&amp;&amp;(hookedObj.genLat=response.coords.lat,hookedObj.genLon=response.coords.lon,hookedObj.fakeGeo=response.fakeIt)}Blob=function(_Blob){function secureBlob(...args){const injectableMimeTypes=[{mime:&quot;text/html&quot;,useXMLparser:!1},{mime:&quot;application/xhtml+xml&quot;,useXMLparser:!0},{mime:&quot;text/xml&quot;,useXMLparser:!0},{mime:&quot;application/xml&quot;,useXMLparser:!0},{mime:&quot;image/svg+xml&quot;,useXMLparser:!0}];let typeEl=args.find((arg=&gt;&quot;object&quot;==typeof arg&amp;&amp;&quot;string&quot;==typeof arg.type&amp;&amp;arg.type));if(void 0!==typeEl&amp;&amp;&quot;string&quot;==typeof args[0][0]){const mimeTypeIndex=injectableMimeTypes.findIndex((mimeType=&gt;mimeType.mime.toLowerCase()===typeEl.type.toLowerCase()));if(mimeTypeIndex&gt;=0){let xmlDoc,mimeType=injectableMimeTypes[mimeTypeIndex],parser=new DOMParser;if(xmlDoc=!0===mimeType.useXMLparser?parser.parseFromString(args[0].join(&quot;&quot;),mimeType.mime):parser.parseFromString(args[0][0],mimeType.mime),0===xmlDoc.getElementsByTagName(&quot;parsererror&quot;).length){if(&quot;image/svg+xml&quot;===typeEl.type){const scriptElem=xmlDoc.createElementNS(&quot;http://www.w3.org/2000/svg&quot;,&quot;script&quot;);scriptElem.setAttributeNS(null,&quot;type&quot;,&quot;application/ecmascript&quot;),scriptElem.innerHTML=`(${hookGeo})();`,xmlDoc.documentElement.insertBefore(scriptElem,xmlDoc.documentElement.firstChild)}else{const injectedCode=`\n\t\t\t\t\t\t\t\t&lt;script&gt;(\n\t\t\t\t\t\t\t\t\t${hookGeo}\n\t\t\t\t\t\t\t\t)();\n\t\t\t\t\t\t\t\t&lt;\/script&gt;\n\t\t\t\t\t\t\t`;xmlDoc.documentElement.insertAdjacentHTML(&quot;afterbegin&quot;,injectedCode)}!0===mimeType.useXMLparser?args[0]=[(new XMLSerializer).serializeToString(xmlDoc)]:args[0][0]=xmlDoc.documentElement.outerHTML}}}return((constructor,args)=&gt;{const bind=Function.bind;return new(bind.bind(bind)(constructor,null).apply(null,args))})(_Blob,args)}let propNames=Object.getOwnPropertyNames(_Blob);for(let i=0;i&lt;propNames.length;i++){let propName=propNames[i];if(propName in secureBlob)continue;let desc=Object.getOwnPropertyDescriptor(_Blob,propName);Object.defineProperty(secureBlob,propName,desc)}return secureBlob.prototype=_Blob.prototype,secureBlob}(Blob),&quot;undefined&quot;!=typeof chrome?setInterval((()=&gt;{chrome.runtime.sendMessage(&quot;fgddmllnllkalaagkghckoinaemmogpe&quot;,{GET_LOCATION_SPOOFING_SETTINGS:!0},(response=&gt;{updateHookedObj(response)}))}),500):void 0!==eventName&amp;&amp;document.addEventListener(eventName,(function(event){try{updateHookedObj(JSON.parse(event.detail))}catch(ex){}}))})();</script>
  <path
     d="m 29.522256,2.8607794 c 0.336,1.925 0.89,4.449 1.23,5.609 0.508,1.7319996 0.101,2.2129996 -2.278,2.6879996 -2.127,0.426 -4.335,2.521 -8.315,7.891 -2.98,4.022 -8.279,10.603 -11.7759998,14.626 -8.73,10.044 -9.524,11.725 -7.383,15.616 2.965,5.389 4.38,6.57 7.873,6.57 2.3509998,0 4.0169998,-0.765 5.5809998,-2.565 1.227,-1.41 3.713,-3.481 5.526,-4.601 3.864,-2.388 14.619,-5.815 18.285,-5.826 4.077,-0.013 8.167,5.32 15.718,20.492 5.292,10.631 7.099,15.351 7.512,19.614 0.764,7.893 5.236,18.719001 9.329,22.585001 1.863,1.759 3.387,3.596 3.387,4.081 0,0.484 0.893,5.795 1.985,11.801 1.091,6.005 2.007,12.719 2.035,14.919 0.028,2.2 0.703,6.7 1.5,10 2.179,9.023 1.92,18.705 -0.637,23.79 -1.164,2.315 -2.808,4.997 -3.654,5.96 -0.847,0.962 -1.212,1.75 -0.811,1.75 0.4,0 -0.206,1.186 -1.345,2.635 -2.963,3.766 -2.588,5.027 1.697,5.712 6.039,0.966 9.669,-0.445 10.067,-3.913 0.185,-1.614 0.933,-3.272 1.662,-3.685 0.729,-0.412 1.639,-2.662 2.022,-5 0.383,-2.337 1.264,-4.924 1.957,-5.749 0.861,-1.024 1.439,-7.208 1.821,-19.5 0.308,-9.9 1.116,-22.78 1.796,-28.621 l 1.235,-10.621 18.085004,-0.559 c 20.74,-0.641 34.09,-2.642 43.991,-6.595 l 6.923,-2.763001 7.086,7.398001 c 4.145,4.329 9.131,11.001 12.015,16.08 4.739,8.344 4.969,9.111 5.919,19.744 1.167,13.069 -0.449,21.758 -5.521,29.69 -3.376,5.278 -3.172,7.747 0.641,7.747 2.989,0 3.054,0.273 0.86,3.621 -2.312,3.528 -0.576,4.464 7.671,4.137 l 6.5,-0.258 -0.132,-3 c -0.073,-1.65 -0.456,-3.987 -0.852,-5.194 -0.537,-1.636 -0.059,-2.854 1.882,-4.795 2.552,-2.552 2.602,-2.866 2.602,-16.468 0,-8.045 0.617,-17.091 1.469,-21.545 l 1.469,-7.678 -2.969,-5.881 c -4.25,-8.419 -4.012,-13.438 1.062,-22.439 2.17,-3.850001 3.968,-6.325001 3.995,-5.500001 0.027,0.825 0.232,3.075 0.454,5 0.427,3.692001 2.12,21.410001 3.005,31.441001 0.288,3.268 0.969,7.318 1.513,9 0.544,1.682 1.574,4.943 2.289,7.246 1.013,3.265 1.62,3.988 2.756,3.282 1.198,-0.744 1.463,-4.594 1.49,-21.687 0.018,-11.43 0.15,-28.719 0.293,-38.419001 0.315,-21.375 -0.486,-25.42 -6.022,-30.421 -4.455,-4.025 -8.396,-5.877 -23.685,-11.135 -10.091,-3.469 -11.291,-3.655 -24.119,-3.729 -8.82,-0.051 -14.226,0.339 -15.595,1.124 -3.816,2.19 -21.197,4.56 -30.042,4.095 -7.4,-0.388 -9.302,-0.916 -16.126,-4.473 -4.255,-2.219 -9.410004,-4.579 -11.454004,-5.245 -4.462,-1.455 -15.498,-8.712 -21.956,-14.436 -9.637,-8.542 -19.106,-14.028 -25.973,-15.046 -3.934,-0.583 -5.065,-1.294 -7.386,-4.6429996 -1.507,-2.175 -3.206,-3.954 -3.775,-3.954 -0.57,0 -1.926,-0.788 -3.015,-1.75 -1.936,-1.71199997 -1.966,-1.67499997 -1.367,1.75"
     stroke="none"
     fill="#b68462"
     fill-rule="evenodd"
     id="path1"
     style="fill:#555555;fill-opacity:1" />
</svg>
