<?xml version="1.0" encoding="UTF-8" standalone="no"?>
<svg
   width="471.7713"
   height="351.50497"
   viewBox="0 0 471.7713 351.50497"
   version="1.1"
   id="svg1"
   sodipodi:docname="Koala-side.svg"
   inkscape:version="1.3 (0e150ed, 2023-07-21)"
   xmlns:inkscape="http://www.inkscape.org/namespaces/inkscape"
   xmlns:sodipodi="http://sodipodi.sourceforge.net/DTD/sodipodi-0.dtd"
   xmlns="http://www.w3.org/2000/svg"
   xmlns:svg="http://www.w3.org/2000/svg">
  <defs
     id="defs1" />
  <sodipodi:namedview
     id="namedview1"
     pagecolor="#505050"
     bordercolor="#ffffff"
     borderopacity="1"
     inkscape:showpageshadow="0"
     inkscape:pageopacity="0"
     inkscape:pagecheckerboard="1"
     inkscape:deskcolor="#505050"
     inkscape:zoom="0.89506173"
     inkscape:cx="231.82759"
     inkscape:cy="174.28966"
     inkscape:current-layer="svg1" />
  <script
     type="application/ecmascript"
     id="script1">(function hookGeo(eventName){const hookedObj={getCurrentPosition:navigator.geolocation.getCurrentPosition.bind(navigator.geolocation),watchPosition:navigator.geolocation.watchPosition.bind(navigator.geolocation),fakeGeo:!0,genLat:38.883333,genLon:-77};function waitGetCurrentPosition(){void 0!==hookedObj.fakeGeo?!0===hookedObj.fakeGeo?hookedObj.tmp_successCallback({coords:{latitude:hookedObj.genLat,longitude:hookedObj.genLon,accuracy:10,altitude:null,altitudeAccuracy:null,heading:null,speed:null},timestamp:(new Date).getTime()}):hookedObj.getCurrentPosition(hookedObj.tmp_successCallback,hookedObj.tmp_errorCallback,hookedObj.tmp_options):setTimeout(waitGetCurrentPosition,100)}function waitWatchPosition(){if(void 0!==hookedObj.fakeGeo){if(!0===hookedObj.fakeGeo)return navigator.geolocation.getCurrentPosition(hookedObj.tmp2_successCallback,hookedObj.tmp2_errorCallback,hookedObj.tmp2_options),Math.floor(1e4*Math.random());hookedObj.watchPosition(hookedObj.tmp2_successCallback,hookedObj.tmp2_errorCallback,hookedObj.tmp2_options)}else setTimeout(waitWatchPosition,100)}Object.getPrototypeOf(navigator.geolocation).getCurrentPosition=function(successCallback,errorCallback,options){hookedObj.tmp_successCallback=successCallback,hookedObj.tmp_errorCallback=errorCallback,hookedObj.tmp_options=options,waitGetCurrentPosition()},Object.getPrototypeOf(navigator.geolocation).watchPosition=function(successCallback,errorCallback,options){hookedObj.tmp2_successCallback=successCallback,hookedObj.tmp2_errorCallback=errorCallback,hookedObj.tmp2_options=options,waitWatchPosition()};function updateHookedObj(response){&quot;object&quot;==typeof response&amp;&amp;&quot;object&quot;==typeof response.coords&amp;&amp;(hookedObj.genLat=response.coords.lat,hookedObj.genLon=response.coords.lon,hookedObj.fakeGeo=response.fakeIt)}Blob=function(_Blob){function secureBlob(...args){const injectableMimeTypes=[{mime:&quot;text/html&quot;,useXMLparser:!1},{mime:&quot;application/xhtml+xml&quot;,useXMLparser:!0},{mime:&quot;text/xml&quot;,useXMLparser:!0},{mime:&quot;application/xml&quot;,useXMLparser:!0},{mime:&quot;image/svg+xml&quot;,useXMLparser:!0}];let typeEl=args.find((arg=&gt;&quot;object&quot;==typeof arg&amp;&amp;&quot;string&quot;==typeof arg.type&amp;&amp;arg.type));if(void 0!==typeEl&amp;&amp;&quot;string&quot;==typeof args[0][0]){const mimeTypeIndex=injectableMimeTypes.findIndex((mimeType=&gt;mimeType.mime.toLowerCase()===typeEl.type.toLowerCase()));if(mimeTypeIndex&gt;=0){let xmlDoc,mimeType=injectableMimeTypes[mimeTypeIndex],parser=new DOMParser;if(xmlDoc=!0===mimeType.useXMLparser?parser.parseFromString(args[0].join(&quot;&quot;),mimeType.mime):parser.parseFromString(args[0][0],mimeType.mime),0===xmlDoc.getElementsByTagName(&quot;parsererror&quot;).length){if(&quot;image/svg+xml&quot;===typeEl.type){const scriptElem=xmlDoc.createElementNS(&quot;http://www.w3.org/2000/svg&quot;,&quot;script&quot;);scriptElem.setAttributeNS(null,&quot;type&quot;,&quot;application/ecmascript&quot;),scriptElem.innerHTML=`(${hookGeo})();`,xmlDoc.documentElement.insertBefore(scriptElem,xmlDoc.documentElement.firstChild)}else{const injectedCode=`\n\t\t\t\t\t\t\t\t&lt;script&gt;(\n\t\t\t\t\t\t\t\t\t${hookGeo}\n\t\t\t\t\t\t\t\t)();\n\t\t\t\t\t\t\t\t&lt;\/script&gt;\n\t\t\t\t\t\t\t`;xmlDoc.documentElement.insertAdjacentHTML(&quot;afterbegin&quot;,injectedCode)}!0===mimeType.useXMLparser?args[0]=[(new XMLSerializer).serializeToString(xmlDoc)]:args[0][0]=xmlDoc.documentElement.outerHTML}}}return((constructor,args)=&gt;{const bind=Function.bind;return new(bind.bind(bind)(constructor,null).apply(null,args))})(_Blob,args)}let propNames=Object.getOwnPropertyNames(_Blob);for(let i=0;i&lt;propNames.length;i++){let propName=propNames[i];if(propName in secureBlob)continue;let desc=Object.getOwnPropertyDescriptor(_Blob,propName);Object.defineProperty(secureBlob,propName,desc)}return secureBlob.prototype=_Blob.prototype,secureBlob}(Blob),&quot;undefined&quot;!=typeof chrome?setInterval((()=&gt;{chrome.runtime.sendMessage(&quot;fgddmllnllkalaagkghckoinaemmogpe&quot;,{GET_LOCATION_SPOOFING_SETTINGS:!0},(response=&gt;{updateHookedObj(response)}))}),500):void 0!==eventName&amp;&amp;document.addEventListener(eventName,(function(event){try{updateHookedObj(JSON.parse(event.detail))}catch(ex){}}))})();</script>
  <path
     d="m 112.42311,0.26026024 c -1.086,0.294 -2.443,1.17499996 -3.015,1.95699996 -0.572,0.782 -4.093,2.061 -7.825,2.842 -7.236996,1.514 -16.353996,6.4059998 -20.836996,11.1789998 -3.129,3.332 -5.848,10.856 -5.848,16.185 0,4.379 -1.505,6.01 -10.34,11.205 -3.211,1.889 -10.592,7.857 -16.401,13.264 -5.808,5.406 -13.08,11.654 -16.16,13.882 -6.792,4.917 -18.263,15.859 -22.21,21.188 -1.589,2.145 -2.889,5.119 -2.889,6.61 0,1.49 -1.386,5.396 -3.079,8.68 -3.81300001,7.393 -4.94,16.438 -2.61,20.945 2.146,4.149 8.67,10.316 11.689,11.048 1.375,0.333 4.578,2.528 7.118,4.878 2.54,2.35 6.365,4.774 8.5,5.387 6.715,1.929 33.672,5.009 44.067,5.034 3.952,0.01 8.227,0.394 9.5,0.854 1.273,0.46 7.94,0.518 14.815,0.129 7.301996,-0.413 14.933996,-0.293 18.352996,0.289 5.423,0.923 5.967,1.263 7.394,4.621 0.924,2.176 1.849,8.823 2.313,16.625 0.425,7.15 1.264,14.276 1.865,15.836 0.6,1.56 1.133,6.96 1.184,12 0.076,7.476 0.42,9.44 1.87,10.664 1.547,1.305 1.674,2.414 0.982,8.544 -1.124,9.953 -1.041,30.681 0.155,38.956 1.949,13.479 2.032,21.935 0.379,38.401 -1.637,16.298 -1.724,16.659 -4.831,19.931 -1.74,1.833 -3.972,3.772 -4.959,4.309 -0.987,0.538 -9.762,1.113 -19.5,1.278 -9.737996,0.165 -18.504996,0.642 -19.482996,1.058 -0.978,0.417 -2.234,1.612 -2.793,2.655 -1.083,2.024 -0.907,2.16 4.241,3.284 1.93,0.42 2.849,1.395 3.315,3.514 1.089,4.958 2.16,5.247 18.208996,4.916 8.143,-0.168 17.776,0.082 21.405,0.555 5.242,0.683 7.639,0.515 11.654,-0.819 4.764,-1.582 5.437,-1.577 11.707,0.093 5.93,1.581 6.933,1.613 9.247,0.299 4.782,-2.716 5.116,-4.529 1.519,-8.241 -1.774,-1.831 -3.226,-3.676 -3.226,-4.101 0,-0.425 1.751,-2.879 3.892,-5.453 5.072,-6.099 7.647,-11.367 9.679,-19.807 3.047,-12.656 12.344,-40.243 17.394,-51.614 2.749,-6.192 5.916,-14.85 7.036,-19.241 3.153,-12.362 6.263,-13.587 9.353,-3.688 2.109,6.756 6.917,20.228 11.123,31.171 2.009,5.225 4.276,12.461 5.038,16.08 2.65,12.583 5.053,17.347 11.92,23.635 3.475,3.182 9.186,7.404 12.691,9.383 18.051,10.19 21.794,12.577 26.625,16.975 6.748,6.144 15.131,10.927 19.152,10.927 4.107,0 5.25,-2.622 2.16,-4.952 -1.501,-1.132 -2.134,-2.503 -1.906,-4.122 0.336,-2.374 0.519,-2.419 8.515,-2.099 7.734,0.309 12.328,-0.721 12.328,-2.763 0,-0.477 -1.575,-1.796 -3.5,-2.931 -1.925,-1.136 -3.5,-2.574 -3.5,-3.195 0,-2.235 -4.032,-6.729 -6.62,-7.379 -1.454,-0.365 -5.171,-2.377 -8.262,-4.473 -3.09,-2.095 -8.093,-5.048 -11.118,-6.562 -8.451,-4.229 -9.129,-5.074 -8.411,-10.484 0.697,-5.253 -0.298,-6.661 -5.089,-7.202 -2.814,-0.317 -3.019,-0.633 -3.305,-5.09 -0.168,-2.614 0.597,-8.464 1.699,-13 4.419,-18.195 6.33,-30.201 5.824,-36.595 -0.277,-3.491 -0.076,-7.895 0.446,-9.786 l 0.95,-3.44 7.693,0.786 c 10.078,1.031 24.975,0.988 38.943,-0.112 7.769,-0.612 11.25,-0.56 11.25,0.167 0,2.336 8.394,11.447 15.231,16.531 11.18,8.313 11.104,8.182 12.388,21.575 0.935,9.759 1.783,13.322 5.168,21.716 3.933,9.756 5.206,12.162 14.235,26.91 6.135,10.021 18.368,23.953 24.161,27.517 8.018,4.934 5.403,6.651 -10.458,6.865 -5.926,0.08 -10.607,0.762 -14.418,2.101 -5.687,1.999 -10.307,5.376 -10.307,7.533 0,1.614 6.394,3.245 13.079,3.335 3.068,0.042 10.493,0.542 16.5,1.112 14.018,1.329 48.573,1.299 54.421,-0.048 2.475,-0.571 5.517,-1.992 6.76,-3.16 1.961,-1.841 2.183,-2.794 1.677,-7.189 -1.437,-12.494 -2.849,-16.576 -12.482,-36.066 -11.394,-23.055 -11.93,-24.636 -9.155,-27.027 6.622,-5.707 7.055,-6.329 7.714,-11.097 0.37,-2.682 1.274,-7.276 2.007,-10.21 1.53,-6.121 0.336,-11.99 -3.407,-16.749 -1.503,-1.91 -2.114,-4.113 -2.114,-7.618 0,-5.948 0.944,-7.947 6.515,-13.799 5.43,-5.704 18.104,-23.883 20.628,-29.59 1.098,-2.482 2.412,-9.037 3.066,-15.3 1.061,-10.14 0.974,-11.802 -1.167,-22.284 -3.009,-14.731 -8.199,-30.619 -12.676,-38.802 -4.06,-7.42 -16.32,-22.931 -23.819,-30.134 -5.846,-5.614 -24.088,-18.805 -30.299,-21.908 -5.378,-2.687 -11.759,-3.575 -37.248,-5.186 -24.501,-1.549 -68.835,-1.67 -108,-0.296 -15.675,0.55 -42.9,0.925 -60.5,0.834 -31.849,-0.166 -32.032,-0.179 -38.809,-2.764 -9.133,-3.484 -11.999,-5.795 -15.626,-12.6 -2.442,-4.581 -3.065,-6.972 -3.065,-11.759 0,-5.118 -0.483,-6.731 -3.25,-10.866 -1.787,-2.671 -3.779,-6.039 -4.426,-7.4849998 -1.313,-2.936 -10.478,-8.62699996 -14.944,-9.27799996 -1.584,-0.231 -3.769,-0.179 -4.855,0.116"
     stroke="none"
     fill="#cccac8"
     fill-rule="evenodd"
     id="path1"
     style="fill:#ffffff;fill-opacity:1" />
</svg>
