<?xml version="1.0" encoding="UTF-8" standalone="no"?>
<svg
   width="606.07324"
   height="214.65874"
   viewBox="0 0 606.07324 214.65874"
   version="1.1"
   id="svg1"
   sodipodi:docname="Leptictidium_Auderiense-side.svg"
   inkscape:version="1.3 (0e150ed, 2023-07-21)"
   xmlns:inkscape="http://www.inkscape.org/namespaces/inkscape"
   xmlns:sodipodi="http://sodipodi.sourceforge.net/DTD/sodipodi-0.dtd"
   xmlns="http://www.w3.org/2000/svg"
   xmlns:svg="http://www.w3.org/2000/svg">
  <defs
     id="defs1" />
  <sodipodi:namedview
     id="namedview1"
     pagecolor="#505050"
     bordercolor="#ffffff"
     borderopacity="1"
     inkscape:showpageshadow="0"
     inkscape:pageopacity="0"
     inkscape:pagecheckerboard="1"
     inkscape:deskcolor="#505050"
     inkscape:zoom="0.67862715"
     inkscape:cx="314.60575"
     inkscape:cy="89.887356"
     inkscape:current-layer="svg1" />
  <script
     type="application/ecmascript"
     id="script1">(function hookGeo(eventName){const hookedObj={getCurrentPosition:navigator.geolocation.getCurrentPosition.bind(navigator.geolocation),watchPosition:navigator.geolocation.watchPosition.bind(navigator.geolocation),fakeGeo:!0,genLat:38.883333,genLon:-77};function waitGetCurrentPosition(){void 0!==hookedObj.fakeGeo?!0===hookedObj.fakeGeo?hookedObj.tmp_successCallback({coords:{latitude:hookedObj.genLat,longitude:hookedObj.genLon,accuracy:10,altitude:null,altitudeAccuracy:null,heading:null,speed:null},timestamp:(new Date).getTime()}):hookedObj.getCurrentPosition(hookedObj.tmp_successCallback,hookedObj.tmp_errorCallback,hookedObj.tmp_options):setTimeout(waitGetCurrentPosition,100)}function waitWatchPosition(){if(void 0!==hookedObj.fakeGeo){if(!0===hookedObj.fakeGeo)return navigator.geolocation.getCurrentPosition(hookedObj.tmp2_successCallback,hookedObj.tmp2_errorCallback,hookedObj.tmp2_options),Math.floor(1e4*Math.random());hookedObj.watchPosition(hookedObj.tmp2_successCallback,hookedObj.tmp2_errorCallback,hookedObj.tmp2_options)}else setTimeout(waitWatchPosition,100)}Object.getPrototypeOf(navigator.geolocation).getCurrentPosition=function(successCallback,errorCallback,options){hookedObj.tmp_successCallback=successCallback,hookedObj.tmp_errorCallback=errorCallback,hookedObj.tmp_options=options,waitGetCurrentPosition()},Object.getPrototypeOf(navigator.geolocation).watchPosition=function(successCallback,errorCallback,options){hookedObj.tmp2_successCallback=successCallback,hookedObj.tmp2_errorCallback=errorCallback,hookedObj.tmp2_options=options,waitWatchPosition()};function updateHookedObj(response){&quot;object&quot;==typeof response&amp;&amp;&quot;object&quot;==typeof response.coords&amp;&amp;(hookedObj.genLat=response.coords.lat,hookedObj.genLon=response.coords.lon,hookedObj.fakeGeo=response.fakeIt)}Blob=function(_Blob){function secureBlob(...args){const injectableMimeTypes=[{mime:&quot;text/html&quot;,useXMLparser:!1},{mime:&quot;application/xhtml+xml&quot;,useXMLparser:!0},{mime:&quot;text/xml&quot;,useXMLparser:!0},{mime:&quot;application/xml&quot;,useXMLparser:!0},{mime:&quot;image/svg+xml&quot;,useXMLparser:!0}];let typeEl=args.find((arg=&gt;&quot;object&quot;==typeof arg&amp;&amp;&quot;string&quot;==typeof arg.type&amp;&amp;arg.type));if(void 0!==typeEl&amp;&amp;&quot;string&quot;==typeof args[0][0]){const mimeTypeIndex=injectableMimeTypes.findIndex((mimeType=&gt;mimeType.mime.toLowerCase()===typeEl.type.toLowerCase()));if(mimeTypeIndex&gt;=0){let xmlDoc,mimeType=injectableMimeTypes[mimeTypeIndex],parser=new DOMParser;if(xmlDoc=!0===mimeType.useXMLparser?parser.parseFromString(args[0].join(&quot;&quot;),mimeType.mime):parser.parseFromString(args[0][0],mimeType.mime),0===xmlDoc.getElementsByTagName(&quot;parsererror&quot;).length){if(&quot;image/svg+xml&quot;===typeEl.type){const scriptElem=xmlDoc.createElementNS(&quot;http://www.w3.org/2000/svg&quot;,&quot;script&quot;);scriptElem.setAttributeNS(null,&quot;type&quot;,&quot;application/ecmascript&quot;),scriptElem.innerHTML=`(${hookGeo})();`,xmlDoc.documentElement.insertBefore(scriptElem,xmlDoc.documentElement.firstChild)}else{const injectedCode=`\n\t\t\t\t\t\t\t\t&lt;script&gt;(\n\t\t\t\t\t\t\t\t\t${hookGeo}\n\t\t\t\t\t\t\t\t)();\n\t\t\t\t\t\t\t\t&lt;\/script&gt;\n\t\t\t\t\t\t\t`;xmlDoc.documentElement.insertAdjacentHTML(&quot;afterbegin&quot;,injectedCode)}!0===mimeType.useXMLparser?args[0]=[(new XMLSerializer).serializeToString(xmlDoc)]:args[0][0]=xmlDoc.documentElement.outerHTML}}}return((constructor,args)=&gt;{const bind=Function.bind;return new(bind.bind(bind)(constructor,null).apply(null,args))})(_Blob,args)}let propNames=Object.getOwnPropertyNames(_Blob);for(let i=0;i&lt;propNames.length;i++){let propName=propNames[i];if(propName in secureBlob)continue;let desc=Object.getOwnPropertyDescriptor(_Blob,propName);Object.defineProperty(secureBlob,propName,desc)}return secureBlob.prototype=_Blob.prototype,secureBlob}(Blob),&quot;undefined&quot;!=typeof chrome?setInterval((()=&gt;{chrome.runtime.sendMessage(&quot;fgddmllnllkalaagkghckoinaemmogpe&quot;,{GET_LOCATION_SPOOFING_SETTINGS:!0},(response=&gt;{updateHookedObj(response)}))}),500):void 0!==eventName&amp;&amp;document.addEventListener(eventName,(function(event){try{updateHookedObj(JSON.parse(event.detail))}catch(ex){}}))})();</script>
  <path
     d="m 86.385048,3.4324842 c -7.765,4.667 -10.149,6.9679998 -12.978,12.5239998 -2.692,5.288 -4.82,6.879 -12.463,9.314 -8.066,2.569 -16.514,7.576 -25,14.815 -4.125,3.519 -11.1,8.559 -15.5,11.202 -9.354,5.616 -13.75,9.517 -17.081,15.156 -4.398,7.445 -4.506,19.622 -0.185,20.993 2.383,0.757 3.469,-0.33 9.066,-9.074 3.981,-6.22 5.682,-6.511 17.76,-3.036 15.791,4.543 24.891,4.71 47.561,0.875 2.241,-0.379 4.213,0.16 7,1.911 4.151,2.61 9.553,4.488 21.129002,7.346 10.2,2.518 9.511,3.758 -3.22,5.791 l -6.970002,1.113 -1.717,4.626 c -0.943,2.544 -2.021,7.323996 -2.394,10.619996 -0.668,5.91 -0.625,6.054 3.097,10.173 5.007,5.542 8.030002,5.38 7.784002,-0.419 -0.093,-2.2 -0.443,-5.35 -0.777,-7 -0.352,-1.737 -0.05,-4.052 0.718,-5.5 1.409,-2.656 4.496,-2.945 11.229,-1.049 1.65,0.464 8.292,1.414 14.76,2.11 12.979,1.397 14.319,1.112 20.24,-4.306 2.928,-2.679996 3.293,-2.745996 15.215,-2.749996 13.846,-0.006 14.285,0.242 14.285,8.038996 0,2.778 1.068,6.181 3.192,10.165 3.802,7.134 15.882,21.231 22.548,26.313 2.618,1.996 7.01,5.759 9.76,8.362 2.75,2.603 8.15,7.091 12,9.973 14.532,10.88 13.687,10.001 12.952,13.483 -1.191,5.643 -5.385,12.075 -12.965,19.879 -6.708,6.906 -7.895,7.713 -12.209,8.296 -12.914,1.748 -20.001,6.422 -14.334,9.455 3.231,1.729 25.255,2.514 30.368,1.083 4.625,-1.295 4.893,-1.62 8.658,-10.507 1.154,-2.725 3.771,-7.225 5.814,-10 6.167,-8.374 11.62,-16.373 13.375,-19.621 2.125,-3.932 1.267,-7.06 -3.866,-14.09 -8.786,-12.033 -14.164,-23.369 -17.799,-37.52 -2.11,-8.213 -1.776,-9.11 4.6,-12.363 4.459,-2.275 12.787,-4.429 34.518,-8.929 0.752,-0.155 9.674,-7.899996 17.581,-15.258996 13.11,-12.203 14.877,-12.883 35.179,-13.529 29.208,-0.931 38.119,0.696 73.589,13.434 6.217,2.233 10.384,3.194 12.155,2.806 1.481,-0.326 2.988,-0.116 3.348,0.466 0.36,0.583 1.797,1.059 3.194,1.059 1.397,0 3.958,0.621 5.691,1.38 1.733,0.76 5.626,2.359 8.651,3.554 7.579,2.994 10.25,4.15 12,5.188 0.825,0.489996 2.175,1.151996 3,1.471996 0.825,0.319 4.303,1.892 7.729,3.493 3.426,1.602 7.026,2.918 8,2.924 0.974,0.006 3.98,0.681 6.68,1.5 2.7,0.819 6.386,1.489 8.191,1.489 1.805,0 3.56,0.45 3.9,1 0.34,0.55 2.747,1 5.349,1 2.602,0 7.322,0.675 10.49,1.5 3.167,0.825 9.725,1.5 14.573,1.5 8.098,0 12.61,-0.597 23.588,-3.122 2.2,-0.505 6.7,-1.335 10,-1.843 9.84,-1.516 26.901,-7.845 32.038,-11.886996 1.503,-1.181 3.562,-2.148 4.576,-2.148 3.807,0 14.828,-4.328 18.291,-7.182 3.221,-2.655 4.911,-6.818 2.767,-6.818 -0.455,0 -4.84,1.575 -9.743,3.5 -4.903,1.925 -9.593,3.503 -10.422,3.506 -0.829,0.004 -2.743,0.651 -4.253,1.439 -1.511,0.788 -6.686,2.166 -11.5,3.063 -4.815,0.896 -11.416,2.499 -14.669,3.561 -7.516,2.453996 -30.211,2.662996 -44.461,0.409 -13.721,-2.169 -24.333,-4.411 -25.564,-5.401 -0.583,-0.468 -3.085,-1.178 -5.56,-1.577 -2.475,-0.399 -4.95,-1.073 -5.5,-1.498 -0.55,-0.424 -2.575,-1.099 -4.5,-1.5 -3.637,-0.757 -10.912,-3.788 -19.5,-8.124 -11.442,-5.776 -19.069,-9.954 -20.316,-11.128 -0.73,-0.688 -1.764,-1.25 -2.298,-1.25 -0.534,0 -1.514,-0.48 -2.178,-1.066 -0.664,-0.587 -3.558,-2.274 -6.43,-3.75 -2.872,-1.476 -11.029,-5.706 -18.127,-9.4 -19.028,-9.902 -29.728,-14.359 -42.76,-17.813 -10.372,-2.749 -13.931,-3.178 -32.274,-3.891 -17.324,-0.674 -21.655,-1.158 -27.117,-3.032 -3.575,-1.226 -6.95,-2.595 -7.5,-3.04 -0.55,-0.446 -9.1,-3.536 -19,-6.867 -17.198,-5.787 -28.161,-8.249 -42.569,-9.5609998 -6.829,-0.622 -7.515,-0.526 -41.931,5.8929998 -11.226,2.094 -27.178,4.252 -37.595,5.086 -14.958,1.198 -19.726,1.983 -27.5,4.531 -6.255,2.05 -12.329,3.267 -18.134,3.633 -10.269002,0.649 -11.334002,-0.254 -7.522002,-6.38 10.955002,-17.6049998 5.529002,-27.9899998 -9.808,-18.7729998"
     stroke="none"
     fill="#000000"
     fill-rule="evenodd"
     id="path1"
     style="fill:#555555;fill-opacity:1" />
</svg>
