<?xml version="1.0" encoding="UTF-8" standalone="no"?>
<!-- Created with Inkscape (http://www.inkscape.org/) -->

<svg
   width="137.29073mm"
   height="81.186501mm"
   viewBox="0 0 137.29073 81.186501"
   version="1.1"
   id="svg1"
   xml:space="preserve"
   inkscape:version="1.3 (0e150ed6c4, 2023-07-21)"
   sodipodi:docname="Lion-side.svg"
   xmlns:inkscape="http://www.inkscape.org/namespaces/inkscape"
   xmlns:sodipodi="http://sodipodi.sourceforge.net/DTD/sodipodi-0.dtd"
   xmlns="http://www.w3.org/2000/svg"
   xmlns:svg="http://www.w3.org/2000/svg"><sodipodi:namedview
     id="namedview1"
     pagecolor="#505050"
     bordercolor="#ffffff"
     borderopacity="1"
     inkscape:showpageshadow="0"
     inkscape:pageopacity="0"
     inkscape:pagecheckerboard="1"
     inkscape:deskcolor="#505050"
     inkscape:document-units="mm"
     inkscape:zoom="0.61947843"
     inkscape:cx="60.534796"
     inkscape:cy="155.77621"
     inkscape:window-width="1600"
     inkscape:window-height="837"
     inkscape:window-x="-8"
     inkscape:window-y="-8"
     inkscape:window-maximized="1"
     inkscape:current-layer="layer1" /><defs
     id="defs1" /><g
     inkscape:label="Layer 1"
     inkscape:groupmode="layer"
     id="layer1"
     transform="translate(-44.026145,-85.453476)"><path
       style="fill:#555555;stroke-width:20;stroke-linecap:round;stroke-linejoin:round;paint-order:markers stroke fill"
       d="m 153.85186,121.45903 c -0.67603,0.9577 -1.07038,1.35205 -2.30975,11.37974 -1.23938,10.02769 -1.80273,12.05577 -0.56336,14.42185 1.23938,2.36608 1.69006,2.14074 -0.22534,7.21093 -1.9154,5.07018 -3.04211,8.41494 -3.09844,9.37264 -0.0563,0.9577 0.169,1.46472 -0.45068,1.9154 -0.61969,0.45068 -0.73236,0.84503 -1.35205,0.84503 h -7.66161 c -1.57739,0 -2.08441,-2.30975 -0.9577,-3.60546 1.1267,-1.29572 1.69006,-1.29572 3.09844,-1.35205 1.40839,-0.0563 1.29572,-0.28168 2.30975,-2.7041 1.01404,-2.42242 2.08441,-4.64047 1.69006,-8.24593 -0.39435,-3.60546 -0.61969,-4.22515 -3.09844,-10.14037 -2.47876,-5.91521 -5.68987,-10.53471 -5.68987,-10.53471 -10.47838,8.56298 -24.11154,10.81639 -33.74488,6.59124 -1.23938,2.42242 -1.971739,10.08403 -2.647763,11.71775 -0.676024,1.63373 -0.957702,3.6618 -0.394348,5.07018 0.563353,1.40839 0.901366,4.22516 0.281678,3.94348 -0.619691,-0.28168 -0.507019,1.57739 0.05633,2.92944 0.563353,1.35205 0.281675,2.14074 0.563353,2.64776 0.281676,0.50702 0.112671,1.35205 -0.281678,1.57739 -0.394345,0.22534 -0.619688,0.56335 -0.619688,1.01404 0,0.45068 -1.126707,1.1267 -2.197079,1.1267 h -8.281297 c -1.80273,0 -2.472671,-1.80228 -1.197949,-2.99734 1.274726,-1.19505 3.346151,-2.07142 4.620874,-1.35439 0.804516,0.46448 0.637363,-1.67308 -0.07967,-4.85989 -0.717032,-3.18681 -1.752743,-13.14558 -1.991754,-14.73899 -0.398352,3.7445 -1.593406,1.51374 -2.151097,0.23901 -0.557692,-1.27472 -3.107137,-0.55769 -3.58516,0.47802 -0.47802,1.03572 -1.752745,1.51374 -2.788457,0.87638 -1.035714,-0.63737 -3.585159,-2.1511 -3.585159,-3.66483 0,-1.51374 -1.354395,0.55769 -2.9478,-0.23902 -1.593406,-0.7967 -3.511468,-2.53027 -3.40469,-4.2387 0.106775,-1.70842 -0.69405,-3.14991 -2.669418,-3.25669 -1.975366,-0.10677 -3.84396,-1.38809 -6.940482,-4.48462 -3.096521,-3.09652 -5.76594,-4.96511 -5.552387,-5.9261 0.213554,-0.96099 -0.694047,0.32033 -1.975365,1.22793 -1.281322,0.9076 -4.80495,0.42711 -4.911728,-1.01438 -0.106775,-1.44148 0.266941,-1.49487 -1.388097,-1.76181 -1.655037,-0.26694 -1.86859,-1.65504 -1.921978,-2.40248 -0.05339,-0.74743 -0.106778,-1.06776 -1.174544,-1.3347 -1.067768,-0.26695 -0.587271,-2.2957 0.373719,-3.79057 0.960988,-1.49488 1.121153,-4.27107 2.188922,-5.23206 1.067765,-0.96099 -0.480497,-1.60165 -0.480497,-2.2957 0,-0.69405 0.64066,-2.7228 0.69405,-3.57702 0.05339,-0.85421 -0.587272,-0.58727 -1.174544,-0.64066 -0.587272,-0.0534 -0.213553,-2.295694 0.480494,-2.989744 0.69405,-0.694047 -0.747437,-0.800825 -0.160165,-2.242309 0.587271,-1.441484 0.160165,-3.843959 1.761815,-5.071891 1.60165,-1.227931 3.043134,-1.601649 3.363465,-3.416853 0.320329,-1.815203 2.65786,-0.718384 4.324453,-1.494872 1.507009,-0.702136 3.698823,-1.23795 5.712553,-0.854215 1.543335,0.294097 2.669416,1.708428 4.80495,0.907603 2.135531,-0.800825 3.609042,-0.937783 4.538007,-0.533883 1.227931,0.533884 1.708427,1.548261 2.989746,1.548261 1.281318,0 3.790571,0 5.979493,-0.320331 2.188922,-0.320328 4.858337,1.548262 7.100647,1.227931 2.242309,-0.320328 5.285443,4.698175 7.100646,4.431231 1.815203,-0.26694 5.979499,3.790572 7.954869,3.89735 1.97537,0.106775 3.04313,2.669416 4.80495,2.669416 1.76181,0 13.29369,0.640656 17.61814,0.05339 4.32446,-0.587272 9.71668,-2.722803 14.62841,-1.281319 4.91172,1.441485 8.11502,2.776195 10.83783,4.804945 2.7228,2.02876 6.67354,6.67354 7.20742,9.28957 0.53388,2.61603 1.44148,10.03701 1.8152,13.34708 0.37372,3.31008 2.13553,9.18279 4.75156,12.06576 2.61603,2.88297 7.20743,4.75156 9.66329,4.05752 2.45586,-0.69405 1.60165,-4.37785 3.36347,-5.17867 1.76181,-0.80083 4.32445,-1.3881 4.43123,-0.37372 0.10677,1.01438 -0.64066,4.00413 -1.81521,5.33883 -1.17454,1.33471 -1.8152,2.24231 -4.32445,2.45587 -2.50925,0.21355 -7.7947,0 -11.63866,-2.98975 -3.84395,-2.98975 -8.40856,-7.52658 -9.67658,-19.53954 z"
       id="path1"
       sodipodi:nodetypes="cssssssssssssccsssssssssscscsssssssssssssssssssssssssssssssssssssssssssssc" /></g></svg>
