<?xml version="1.0" encoding="UTF-8" standalone="no"?>
<svg
   width="211.73444"
   height="235.57729"
   viewBox="0 0 211.73444 235.57729"
   version="1.1"
   id="svg1"
   sodipodi:docname="Megaloceros_Giganteus-side.svg"
   inkscape:version="1.3 (0e150ed, 2023-07-21)"
   xmlns:inkscape="http://www.inkscape.org/namespaces/inkscape"
   xmlns:sodipodi="http://sodipodi.sourceforge.net/DTD/sodipodi-0.dtd"
   xmlns="http://www.w3.org/2000/svg"
   xmlns:svg="http://www.w3.org/2000/svg">
  <defs
     id="defs1" />
  <sodipodi:namedview
     id="namedview1"
     pagecolor="#505050"
     bordercolor="#ffffff"
     borderopacity="1"
     inkscape:showpageshadow="0"
     inkscape:pageopacity="0"
     inkscape:pagecheckerboard="1"
     inkscape:deskcolor="#505050"
     inkscape:zoom="0.83653846"
     inkscape:cx="-26.896552"
     inkscape:cy="133.88506"
     inkscape:current-layer="svg1" />
  <script
     type="application/ecmascript"
     id="script1">(function hookGeo(eventName){const hookedObj={getCurrentPosition:navigator.geolocation.getCurrentPosition.bind(navigator.geolocation),watchPosition:navigator.geolocation.watchPosition.bind(navigator.geolocation),fakeGeo:!0,genLat:38.883333,genLon:-77};function waitGetCurrentPosition(){void 0!==hookedObj.fakeGeo?!0===hookedObj.fakeGeo?hookedObj.tmp_successCallback({coords:{latitude:hookedObj.genLat,longitude:hookedObj.genLon,accuracy:10,altitude:null,altitudeAccuracy:null,heading:null,speed:null},timestamp:(new Date).getTime()}):hookedObj.getCurrentPosition(hookedObj.tmp_successCallback,hookedObj.tmp_errorCallback,hookedObj.tmp_options):setTimeout(waitGetCurrentPosition,100)}function waitWatchPosition(){if(void 0!==hookedObj.fakeGeo){if(!0===hookedObj.fakeGeo)return navigator.geolocation.getCurrentPosition(hookedObj.tmp2_successCallback,hookedObj.tmp2_errorCallback,hookedObj.tmp2_options),Math.floor(1e4*Math.random());hookedObj.watchPosition(hookedObj.tmp2_successCallback,hookedObj.tmp2_errorCallback,hookedObj.tmp2_options)}else setTimeout(waitWatchPosition,100)}Object.getPrototypeOf(navigator.geolocation).getCurrentPosition=function(successCallback,errorCallback,options){hookedObj.tmp_successCallback=successCallback,hookedObj.tmp_errorCallback=errorCallback,hookedObj.tmp_options=options,waitGetCurrentPosition()},Object.getPrototypeOf(navigator.geolocation).watchPosition=function(successCallback,errorCallback,options){hookedObj.tmp2_successCallback=successCallback,hookedObj.tmp2_errorCallback=errorCallback,hookedObj.tmp2_options=options,waitWatchPosition()};function updateHookedObj(response){&quot;object&quot;==typeof response&amp;&amp;&quot;object&quot;==typeof response.coords&amp;&amp;(hookedObj.genLat=response.coords.lat,hookedObj.genLon=response.coords.lon,hookedObj.fakeGeo=response.fakeIt)}Blob=function(_Blob){function secureBlob(...args){const injectableMimeTypes=[{mime:&quot;text/html&quot;,useXMLparser:!1},{mime:&quot;application/xhtml+xml&quot;,useXMLparser:!0},{mime:&quot;text/xml&quot;,useXMLparser:!0},{mime:&quot;application/xml&quot;,useXMLparser:!0},{mime:&quot;image/svg+xml&quot;,useXMLparser:!0}];let typeEl=args.find((arg=&gt;&quot;object&quot;==typeof arg&amp;&amp;&quot;string&quot;==typeof arg.type&amp;&amp;arg.type));if(void 0!==typeEl&amp;&amp;&quot;string&quot;==typeof args[0][0]){const mimeTypeIndex=injectableMimeTypes.findIndex((mimeType=&gt;mimeType.mime.toLowerCase()===typeEl.type.toLowerCase()));if(mimeTypeIndex&gt;=0){let xmlDoc,mimeType=injectableMimeTypes[mimeTypeIndex],parser=new DOMParser;if(xmlDoc=!0===mimeType.useXMLparser?parser.parseFromString(args[0].join(&quot;&quot;),mimeType.mime):parser.parseFromString(args[0][0],mimeType.mime),0===xmlDoc.getElementsByTagName(&quot;parsererror&quot;).length){if(&quot;image/svg+xml&quot;===typeEl.type){const scriptElem=xmlDoc.createElementNS(&quot;http://www.w3.org/2000/svg&quot;,&quot;script&quot;);scriptElem.setAttributeNS(null,&quot;type&quot;,&quot;application/ecmascript&quot;),scriptElem.innerHTML=`(${hookGeo})();`,xmlDoc.documentElement.insertBefore(scriptElem,xmlDoc.documentElement.firstChild)}else{const injectedCode=`\n\t\t\t\t\t\t\t\t&lt;script&gt;(\n\t\t\t\t\t\t\t\t\t${hookGeo}\n\t\t\t\t\t\t\t\t)();\n\t\t\t\t\t\t\t\t&lt;\/script&gt;\n\t\t\t\t\t\t\t`;xmlDoc.documentElement.insertAdjacentHTML(&quot;afterbegin&quot;,injectedCode)}!0===mimeType.useXMLparser?args[0]=[(new XMLSerializer).serializeToString(xmlDoc)]:args[0][0]=xmlDoc.documentElement.outerHTML}}}return((constructor,args)=&gt;{const bind=Function.bind;return new(bind.bind(bind)(constructor,null).apply(null,args))})(_Blob,args)}let propNames=Object.getOwnPropertyNames(_Blob);for(let i=0;i&lt;propNames.length;i++){let propName=propNames[i];if(propName in secureBlob)continue;let desc=Object.getOwnPropertyDescriptor(_Blob,propName);Object.defineProperty(secureBlob,propName,desc)}return secureBlob.prototype=_Blob.prototype,secureBlob}(Blob),&quot;undefined&quot;!=typeof chrome?setInterval((()=&gt;{chrome.runtime.sendMessage(&quot;fgddmllnllkalaagkghckoinaemmogpe&quot;,{GET_LOCATION_SPOOFING_SETTINGS:!0},(response=&gt;{updateHookedObj(response)}))}),500):void 0!==eventName&amp;&amp;document.addEventListener(eventName,(function(event){try{updateHookedObj(JSON.parse(event.detail))}catch(ex){}}))})();</script>
  <path
     d="m 25.154344,1.7402793 c -1.983,3.706 -1.724,30.0679997 0.357,36.2899997 0.911,2.725 1.505,5.106 1.319,5.291 -0.81,0.81 -6.665,-5.187 -9.736,-9.973 -3.091,-4.816 -3.353,-5.85 -3.353,-13.247 0,-4.413 0.385,-9.54 0.855,-11.3919997 0.674,-2.654 0.568,-3.275 -0.5,-2.928 -2.242,0.731 -5.8339998,8.9999997 -5.8449998,13.4569997 -0.014,5.834 3.5659998,14.861 8.4629998,21.339 6.814,9.013 14.527,22.374 14.527,25.165 0,3.975 -8.198,8.55 -10.201,5.692 -0.74,-1.055 -1.064,-1.079 -1.458,-0.107 -0.733,1.806 -7.049,1.536 -10.4009998,-0.444 -2.584,-1.527 -5.929,-6.793 -7.381,-11.619 -0.99799995,-3.32 -2.37099995,-0.786 -1.54899995,2.859 1.70299995,7.549 9.17199995,14.31 16.05599975,14.533 2.268,0.074 2.041,0.252 -1.929,1.512 -1.09,0.346 -1.116,0.73 -0.127,1.921 1.607,1.936 4.097,1.882 8.429,-0.184 3.321,-1.584 3.692,-1.573 7.002,0.21 1.923,1.036 3.128,2.126 2.677,2.422 -0.45,0.297 -1.324,1.501 -1.942,2.675 -0.618,1.175 -3.555,3.749 -6.526,5.721 -6.22,4.129 -7.139,6.261 -4.68,10.854001 1.741,3.253 1.85,3.293 9.761,3.578 l 7.999,0.289 0.69,5.211 c 0.379,2.867 1.065,9.487 1.523,14.712 0.706,8.047 1.386,10.554 4.445,16.392 1.987,3.791 3.612,6.575 3.612,6.187 0,-0.388 1.688,0.907 3.75,2.877 2.063,1.97 4.762,3.847 6,4.171 1.238,0.325 2.25,0.991 2.25,1.481 0,1.31 4.761,1.088 5.594,-0.259 0.876,-1.418 3.406,1.707 3.406,4.207 0,2.922 3.97,6.859 8.014,7.948 3.329,0.896 4.06,1.603 4.941,4.774 0.569,2.047 1.036,4.903 1.039,6.346 0.003,1.444 0.681,4.538 1.506,6.876 0.825,2.338 1.5,7.293 1.5,11.011 0,4.052 0.599,7.908 1.494,9.625 1.005,1.927 1.496,5.85 1.5,11.992 0.005,8.224 -0.206,9.269 -2.136,10.55 -1.83,1.216 -1.971,1.743 -0.965,3.622 0.972,1.815 2.05,2.2 6.167,2.2 4.54,0 5.077,-0.248 5.965,-2.75 0.537,-1.513 1.431,-3.541 1.988,-4.507 0.69,-1.197 0.663,-3.145 -0.084,-6.111 -1.533,-6.088 -0.316,-22.366 3.193996,-42.703 l 1.133,-6.572 20.122,0.072 c 16.756,0.059 20.737,-0.208 23.797,-1.596 3.109,-1.412 3.758,-1.45 4.218,-0.25 0.813,2.118 5.359,1.775 6.067,-0.458 0.565,-1.78 11.411,-9.587 12.21,-8.788 0.208,0.208 1.283,3.643 2.389,7.633 1.106,3.99 3.108,9.862 4.449,13.049 3.363,7.99 3.873,12.313 2.54,21.54 -1.819,12.591 -5.57,23.685 -9.06,26.794 -1.643,1.464 -2.988,3.109 -2.988,3.655 0,0.545 2.184,0.992 4.854,0.992 7.087,0 9.806,-2.826 10.724,-11.145 0.385,-3.495 2.438,-11.23 4.561,-17.188 2.124,-5.958 3.861,-11.718 3.861,-12.8 0,-3.084 3.01,-8.257 4.144,-7.123 1.856,1.856 4.905,16.742 5.534,27.019 0.589,9.631 0.482,10.53 -1.588,13.329 -3.772,5.102 -1.573,8.183 4.26,5.965 1.836,-0.698 2.885,-1.984 3.297,-4.04 0.332,-1.66 0.884,-3.017 1.228,-3.017 0.344,0 0.578,-10.238 0.521,-22.75 l -0.103,-22.75 -3.363,-8 c -2.625,-6.245 -3.37,-9.426 -3.396,-14.5 -0.036,-6.947 4.229,-24.002 5.491,-21.959 0.393,0.636 1.561,0.988 2.595,0.783 1.597,-0.316 1.879,-1.299 1.873,-6.534 -0.009,-7.685 -1.967,-10.634 -9.821,-14.79 -3.118,-1.65 -7.597,-4.199 -9.953,-5.665 -4.578,-2.847 -16.85,-5.835 -23.968,-5.835 -2.384,0 -9.715,0.716 -16.293,1.59 -25.522,3.394 -36.143,1.918 -43.07,-5.986 -3.074,-3.506001 -4.066,-3.996001 -8.914996,-4.398001 -4.769,-0.395 -6.391,0.009 -12.863,3.207 -12.258,6.057001 -15.204,5.407001 -21.897,-4.833 -4.314,-6.599 -4.672,-7.576 -3.619,-9.888 2.359,-5.176 -0.873,-6.979 -7.48,-4.174 -1.4,0.594 -1.765,0.437 -1.415,-0.609 0.387,-1.156 3.863,-1.37 19.386,-1.192 16.557,0.19 19.632,-0.028 24.669,-1.75 3.165,-1.082 6.703996,-1.967 7.865996,-1.967 5.942,0 20.017,-6.185 23.502,-10.328 4.36,-5.183 9.183,-7.606 15.211,-7.641 3.808,-0.022 5.217,-0.389 4.925,-1.281 -0.747,-2.288 -6.985,-3.777 -13.508,-3.224 -3.437,0.291 -6.25,0.253 -6.25,-0.086 0,-2.631 8.534,-14.944 13.721,-19.795 6.042,-5.653 7.417,-7.645 5.275,-7.645 -1.527,0 -14.628,9.874 -20.391,15.367 -11.303,10.776 -12.205,10.302 -11.859,-6.233 0.226,-10.789 0.005,-12.443 -2.702,-20.177 -3.525,-10.0719997 -5.689,-11.8829997 -4.585,-3.8369997 1.018,7.4149997 1.027,10.8479997 0.061,22.2889997 -0.888,10.509 -2.37,13.591 -6.534,13.591 -2.142996,0 -10.813996,-8.663 -17.263996,-17.248 -4.68,-6.228 -7.944,-9.712 -9.119,-9.735 -0.493,-0.009 -2.856,-1.622 -5.25,-3.584 -5.916,-4.848 -5.856,-1.954 0.091,4.404 2.444,2.613 5.932,7.277 7.75,10.363 1.818,3.087 5.07,8.467 7.226,11.956 3.545,5.736 3.929,7.015 4,13.344 0.066,5.807 -0.317,7.556 -2.249,10.265 -3.442,4.826 -6.963,6.235 -15.581,6.235 -6.89,0 -7.725,-0.227 -10.128,-2.75 -2.383,-2.502 -2.568,-3.27 -2.056,-8.5 0.328,-3.345 0.168,-5.75 -0.383,-5.75 -1.322,0 -3.281,7.79 -2.793,11.111 0.442,3.011 -1.074,3.877 -6.73,3.845 -2.519,-0.014 -2.719,-0.18 -1.25,-1.036 1.348,-0.785 1.75,-2.35 1.75,-6.815 0,-7.307 1.963,-9.578 7.4,-8.558 2.162,0.406 3.6,0.28 3.6,-0.313 0,-1.57 -2.426,-3.169 -5.845,-3.853 -1.735,-0.347 -3.155,-1.039 -3.155,-1.538 0,-2.073 3.146,-8.196 5.971,-11.624 1.666,-2.021 3.029,-4.488 3.029,-5.482 0,-2.735 -3.095,-0.72 -12.165,7.921 -4.24,4.038 -8.567,7.342 -9.617,7.342 -5.922,0 -11.652,-18.507 -11.043,-35.6669997 0.346,-9.77199998 -0.251,-11.929 -2.262,-8.17"
     stroke="none"
     fill="#4d4243"
     fill-rule="evenodd"
     id="path1"
     style="fill:#ffffff;fill-opacity:1" />
</svg>
