<?xml version="1.0" encoding="UTF-8" standalone="no"?>
<svg
   width="268.34177"
   height="187.76474"
   viewBox="0 0 268.34177 187.76474"
   version="1.1"
   id="svg1"
   sodipodi:docname="Megacamelus_Merriami-side.svg"
   inkscape:version="1.3 (0e150ed, 2023-07-21)"
   xmlns:inkscape="http://www.inkscape.org/namespaces/inkscape"
   xmlns:sodipodi="http://sodipodi.sourceforge.net/DTD/sodipodi-0.dtd"
   xmlns="http://www.w3.org/2000/svg"
   xmlns:svg="http://www.w3.org/2000/svg">
  <defs
     id="defs1" />
  <sodipodi:namedview
     id="namedview1"
     pagecolor="#505050"
     bordercolor="#ffffff"
     borderopacity="1"
     inkscape:showpageshadow="0"
     inkscape:pageopacity="0"
     inkscape:pagecheckerboard="1"
     inkscape:deskcolor="#505050"
     inkscape:zoom="0.8463035"
     inkscape:cx="168.37931"
     inkscape:cy="68.533333"
     inkscape:current-layer="svg1" />
  <script
     type="application/ecmascript"
     id="script1">(function hookGeo(eventName){const hookedObj={getCurrentPosition:navigator.geolocation.getCurrentPosition.bind(navigator.geolocation),watchPosition:navigator.geolocation.watchPosition.bind(navigator.geolocation),fakeGeo:!0,genLat:38.883333,genLon:-77};function waitGetCurrentPosition(){void 0!==hookedObj.fakeGeo?!0===hookedObj.fakeGeo?hookedObj.tmp_successCallback({coords:{latitude:hookedObj.genLat,longitude:hookedObj.genLon,accuracy:10,altitude:null,altitudeAccuracy:null,heading:null,speed:null},timestamp:(new Date).getTime()}):hookedObj.getCurrentPosition(hookedObj.tmp_successCallback,hookedObj.tmp_errorCallback,hookedObj.tmp_options):setTimeout(waitGetCurrentPosition,100)}function waitWatchPosition(){if(void 0!==hookedObj.fakeGeo){if(!0===hookedObj.fakeGeo)return navigator.geolocation.getCurrentPosition(hookedObj.tmp2_successCallback,hookedObj.tmp2_errorCallback,hookedObj.tmp2_options),Math.floor(1e4*Math.random());hookedObj.watchPosition(hookedObj.tmp2_successCallback,hookedObj.tmp2_errorCallback,hookedObj.tmp2_options)}else setTimeout(waitWatchPosition,100)}Object.getPrototypeOf(navigator.geolocation).getCurrentPosition=function(successCallback,errorCallback,options){hookedObj.tmp_successCallback=successCallback,hookedObj.tmp_errorCallback=errorCallback,hookedObj.tmp_options=options,waitGetCurrentPosition()},Object.getPrototypeOf(navigator.geolocation).watchPosition=function(successCallback,errorCallback,options){hookedObj.tmp2_successCallback=successCallback,hookedObj.tmp2_errorCallback=errorCallback,hookedObj.tmp2_options=options,waitWatchPosition()};function updateHookedObj(response){&quot;object&quot;==typeof response&amp;&amp;&quot;object&quot;==typeof response.coords&amp;&amp;(hookedObj.genLat=response.coords.lat,hookedObj.genLon=response.coords.lon,hookedObj.fakeGeo=response.fakeIt)}Blob=function(_Blob){function secureBlob(...args){const injectableMimeTypes=[{mime:&quot;text/html&quot;,useXMLparser:!1},{mime:&quot;application/xhtml+xml&quot;,useXMLparser:!0},{mime:&quot;text/xml&quot;,useXMLparser:!0},{mime:&quot;application/xml&quot;,useXMLparser:!0},{mime:&quot;image/svg+xml&quot;,useXMLparser:!0}];let typeEl=args.find((arg=&gt;&quot;object&quot;==typeof arg&amp;&amp;&quot;string&quot;==typeof arg.type&amp;&amp;arg.type));if(void 0!==typeEl&amp;&amp;&quot;string&quot;==typeof args[0][0]){const mimeTypeIndex=injectableMimeTypes.findIndex((mimeType=&gt;mimeType.mime.toLowerCase()===typeEl.type.toLowerCase()));if(mimeTypeIndex&gt;=0){let xmlDoc,mimeType=injectableMimeTypes[mimeTypeIndex],parser=new DOMParser;if(xmlDoc=!0===mimeType.useXMLparser?parser.parseFromString(args[0].join(&quot;&quot;),mimeType.mime):parser.parseFromString(args[0][0],mimeType.mime),0===xmlDoc.getElementsByTagName(&quot;parsererror&quot;).length){if(&quot;image/svg+xml&quot;===typeEl.type){const scriptElem=xmlDoc.createElementNS(&quot;http://www.w3.org/2000/svg&quot;,&quot;script&quot;);scriptElem.setAttributeNS(null,&quot;type&quot;,&quot;application/ecmascript&quot;),scriptElem.innerHTML=`(${hookGeo})();`,xmlDoc.documentElement.insertBefore(scriptElem,xmlDoc.documentElement.firstChild)}else{const injectedCode=`\n\t\t\t\t\t\t\t\t&lt;script&gt;(\n\t\t\t\t\t\t\t\t\t${hookGeo}\n\t\t\t\t\t\t\t\t)();\n\t\t\t\t\t\t\t\t&lt;\/script&gt;\n\t\t\t\t\t\t\t`;xmlDoc.documentElement.insertAdjacentHTML(&quot;afterbegin&quot;,injectedCode)}!0===mimeType.useXMLparser?args[0]=[(new XMLSerializer).serializeToString(xmlDoc)]:args[0][0]=xmlDoc.documentElement.outerHTML}}}return((constructor,args)=&gt;{const bind=Function.bind;return new(bind.bind(bind)(constructor,null).apply(null,args))})(_Blob,args)}let propNames=Object.getOwnPropertyNames(_Blob);for(let i=0;i&lt;propNames.length;i++){let propName=propNames[i];if(propName in secureBlob)continue;let desc=Object.getOwnPropertyDescriptor(_Blob,propName);Object.defineProperty(secureBlob,propName,desc)}return secureBlob.prototype=_Blob.prototype,secureBlob}(Blob),&quot;undefined&quot;!=typeof chrome?setInterval((()=&gt;{chrome.runtime.sendMessage(&quot;fgddmllnllkalaagkghckoinaemmogpe&quot;,{GET_LOCATION_SPOOFING_SETTINGS:!0},(response=&gt;{updateHookedObj(response)}))}),500):void 0!==eventName&amp;&amp;document.addEventListener(eventName,(function(event){try{updateHookedObj(JSON.parse(event.detail))}catch(ex){}}))})();</script>
  <path
     d="m 123.21348,1.1507414 c -3.809,1.66 -12.626,11.1789996 -18.679,20.1669996 -2.573,3.821 -8.017999,10.243 -12.098999,14.272 -6.151,6.072 -8.11,7.417 -11.454,7.866 -8.542,1.146 -14.779,-3.129 -18.312,-12.549 -2.519,-6.718 -6.34,-12.237 -12.906,-18.642 -4.952,-4.8299996 -5.322,-4.9999996 -10.897,-4.9999996 -4.789,0 -6.308,0.452 -8.934,2.662 -2.587,2.1769996 -4.58,2.7889996 -10.941,3.3599996 -10.7639997,0.965 -13.6599997,2.517 -16.8419997,9.019 -3.611,7.381 -2.83099999,9.459 3.55,9.459 2.668,0 5.5919997,0.285 6.4989997,0.633 0.907,0.348 3.757,3.616 6.332,7.263 2.576,3.647 12.815,14.542 22.755,24.211 22.615,21.999 24.604,23.13 41.671,23.707 11.514,0.389 11.863,0.47 17.991999,4.175 3.437,2.078 7.029,4.844 7.983,6.145 2.683,3.662999 7.806,25.196999 8.771,36.865999 0.49,5.941 1.547,11.803 2.433,13.5 1.165,2.232 1.542,5.815 1.472,14 -0.116,13.623 -0.53,15.083 -4.894,17.257 -2.592,1.291 -3.5,2.387 -3.5,4.226 0,2.114 0.595,2.587 4,3.182 3.686,0.645 15.134,-0.466 16.244,-1.576 0.264,-0.263 -0.082,-4.252 -0.768,-8.863 -0.853,-5.732 -1,-11.995 -0.465,-19.805 0.431,-6.281 0.726,-17.946 0.657,-25.921 -0.123,-14.05 -0.081,-14.36 1.344,-10 0.809,2.475 2.128,8.523 2.931,13.44 0.823,5.036 2.27,10.057 3.314,11.5 3.633,5.019 6.243,15.234 6.243,24.435 0,5.429 -1.865,8.397 -6.25,9.945 -2.522,0.89 -2.191,4.399 0.5,5.291 3.276,1.085 13.677,0.662 16.941,-0.69 3.484,-1.443 3.531,-3.231 0.282,-10.579 -2.946,-6.66 -5.023,-17.763 -5.958,-31.842 -0.365,-5.5 -1.304,-13.825 -2.086,-18.5 -0.783,-4.675 -1.424,-11.088 -1.426,-14.25 l -0.003,-5.75 h 13.84 c 16.817,0 24.938,-1.811 37.781,-8.423999 4.883,-2.515 9.442,-4.573 10.129,-4.574 0.8,-10e-4 1.259,1.526 1.274,4.248 0.027,4.956 3.475,13.915999 7.269,18.889999 6.716,8.804 8.949,27.487 4.757,39.787 -3.429,10.059 -7.902,19.309 -10.801,22.335 -1.46,1.524 -4.363,3.23 -6.451,3.792 -2.708,0.73 -3.798,1.569 -3.798,2.926 0,2.5 0.703,2.85 7.285,3.624 9.698,1.139 10.122,0.805 13.737,-10.831 3.413,-10.984 7.24,-18.784 13.832,-28.189 4.585,-6.541 5.01,-9.215 2.729,-17.152 -0.78,-2.713 -1.699,-8.307 -2.042,-12.432 l -0.625,-7.5 2.597,3 c 4.966,5.736 12.184,22.396 14.011,32.339 1.472,8.011 1.535,10.382 0.461,17.465 -1.873,12.362 -2.892,14.226 -8.949,16.376 -3.598,1.278 -5.287,2.473 -5.674,4.013 -0.908,3.617 0.389,4.307 8.098,4.307 h 7.342 l 2.117,-3.587 c 1.34,-2.272 2.678,-7.493 3.651,-14.25 0.845,-5.864 2.157,-12.913 2.916,-15.663 0.759,-2.75 1.852,-8.461 2.429,-12.69 1.048,-7.688 1.047,-7.693 -2.977,-17.846 -4.402,-11.105 -5.938,-17.612 -5.938,-25.159999 0,-5.737 1.962,-5.733 2.068,0.005 0.119,6.422999 3.231,16.643999 5.179,17.008999 2.345,0.44 3.976,-4.024 3.175,-8.691 -0.342,-1.995 -1.706,-7.801999 -3.031,-12.904999 -1.324,-5.103 -3.106,-14.103 -3.958,-20 -1.65,-11.419 -4.245,-18.169 -9.355,-24.333 -4.646,-5.603 -22.236,-18.597 -32.464,-23.981 -13.484,-7.099 -21.802,-9.791 -42.614,-13.789 -11.142,-2.1399996 -17.393,-4.0459996 -21.18,-6.4589996 -7.113,-4.53199998 -25.998,-7.03 -32.32,-4.274"
     stroke="none"
     fill="#463a2d"
     fill-rule="evenodd"
     id="path1"
     style="fill:#ffffff;fill-opacity:1" />
</svg>
