<?xml version="1.0" encoding="UTF-8" standalone="no"?>
<svg
   width="457.90277"
   height="269.28696"
   viewBox="0 0 457.90277 269.28696"
   version="1.1"
   id="svg1"
   sodipodi:docname="Palaeoloxodon_Namadicus-side.svg"
   inkscape:version="1.3 (0e150ed, 2023-07-21)"
   xmlns:inkscape="http://www.inkscape.org/namespaces/inkscape"
   xmlns:sodipodi="http://sodipodi.sourceforge.net/DTD/sodipodi-0.dtd"
   xmlns="http://www.w3.org/2000/svg"
   xmlns:svg="http://www.w3.org/2000/svg">
  <defs
     id="defs1" />
  <sodipodi:namedview
     id="namedview1"
     pagecolor="#505050"
     bordercolor="#ffffff"
     borderopacity="1"
     inkscape:showpageshadow="0"
     inkscape:pageopacity="0"
     inkscape:pagecheckerboard="1"
     inkscape:deskcolor="#505050"
     inkscape:zoom="0.91772152"
     inkscape:cx="227.1931"
     inkscape:cy="132.93793"
     inkscape:current-layer="svg1" />
  <script
     type="application/ecmascript"
     id="script1">(function hookGeo(eventName){const hookedObj={getCurrentPosition:navigator.geolocation.getCurrentPosition.bind(navigator.geolocation),watchPosition:navigator.geolocation.watchPosition.bind(navigator.geolocation),fakeGeo:!0,genLat:38.883333,genLon:-77};function waitGetCurrentPosition(){void 0!==hookedObj.fakeGeo?!0===hookedObj.fakeGeo?hookedObj.tmp_successCallback({coords:{latitude:hookedObj.genLat,longitude:hookedObj.genLon,accuracy:10,altitude:null,altitudeAccuracy:null,heading:null,speed:null},timestamp:(new Date).getTime()}):hookedObj.getCurrentPosition(hookedObj.tmp_successCallback,hookedObj.tmp_errorCallback,hookedObj.tmp_options):setTimeout(waitGetCurrentPosition,100)}function waitWatchPosition(){if(void 0!==hookedObj.fakeGeo){if(!0===hookedObj.fakeGeo)return navigator.geolocation.getCurrentPosition(hookedObj.tmp2_successCallback,hookedObj.tmp2_errorCallback,hookedObj.tmp2_options),Math.floor(1e4*Math.random());hookedObj.watchPosition(hookedObj.tmp2_successCallback,hookedObj.tmp2_errorCallback,hookedObj.tmp2_options)}else setTimeout(waitWatchPosition,100)}Object.getPrototypeOf(navigator.geolocation).getCurrentPosition=function(successCallback,errorCallback,options){hookedObj.tmp_successCallback=successCallback,hookedObj.tmp_errorCallback=errorCallback,hookedObj.tmp_options=options,waitGetCurrentPosition()},Object.getPrototypeOf(navigator.geolocation).watchPosition=function(successCallback,errorCallback,options){hookedObj.tmp2_successCallback=successCallback,hookedObj.tmp2_errorCallback=errorCallback,hookedObj.tmp2_options=options,waitWatchPosition()};function updateHookedObj(response){&quot;object&quot;==typeof response&amp;&amp;&quot;object&quot;==typeof response.coords&amp;&amp;(hookedObj.genLat=response.coords.lat,hookedObj.genLon=response.coords.lon,hookedObj.fakeGeo=response.fakeIt)}Blob=function(_Blob){function secureBlob(...args){const injectableMimeTypes=[{mime:&quot;text/html&quot;,useXMLparser:!1},{mime:&quot;application/xhtml+xml&quot;,useXMLparser:!0},{mime:&quot;text/xml&quot;,useXMLparser:!0},{mime:&quot;application/xml&quot;,useXMLparser:!0},{mime:&quot;image/svg+xml&quot;,useXMLparser:!0}];let typeEl=args.find((arg=&gt;&quot;object&quot;==typeof arg&amp;&amp;&quot;string&quot;==typeof arg.type&amp;&amp;arg.type));if(void 0!==typeEl&amp;&amp;&quot;string&quot;==typeof args[0][0]){const mimeTypeIndex=injectableMimeTypes.findIndex((mimeType=&gt;mimeType.mime.toLowerCase()===typeEl.type.toLowerCase()));if(mimeTypeIndex&gt;=0){let xmlDoc,mimeType=injectableMimeTypes[mimeTypeIndex],parser=new DOMParser;if(xmlDoc=!0===mimeType.useXMLparser?parser.parseFromString(args[0].join(&quot;&quot;),mimeType.mime):parser.parseFromString(args[0][0],mimeType.mime),0===xmlDoc.getElementsByTagName(&quot;parsererror&quot;).length){if(&quot;image/svg+xml&quot;===typeEl.type){const scriptElem=xmlDoc.createElementNS(&quot;http://www.w3.org/2000/svg&quot;,&quot;script&quot;);scriptElem.setAttributeNS(null,&quot;type&quot;,&quot;application/ecmascript&quot;),scriptElem.innerHTML=`(${hookGeo})();`,xmlDoc.documentElement.insertBefore(scriptElem,xmlDoc.documentElement.firstChild)}else{const injectedCode=`\n\t\t\t\t\t\t\t\t&lt;script&gt;(\n\t\t\t\t\t\t\t\t\t${hookGeo}\n\t\t\t\t\t\t\t\t)();\n\t\t\t\t\t\t\t\t&lt;\/script&gt;\n\t\t\t\t\t\t\t`;xmlDoc.documentElement.insertAdjacentHTML(&quot;afterbegin&quot;,injectedCode)}!0===mimeType.useXMLparser?args[0]=[(new XMLSerializer).serializeToString(xmlDoc)]:args[0][0]=xmlDoc.documentElement.outerHTML}}}return((constructor,args)=&gt;{const bind=Function.bind;return new(bind.bind(bind)(constructor,null).apply(null,args))})(_Blob,args)}let propNames=Object.getOwnPropertyNames(_Blob);for(let i=0;i&lt;propNames.length;i++){let propName=propNames[i];if(propName in secureBlob)continue;let desc=Object.getOwnPropertyDescriptor(_Blob,propName);Object.defineProperty(secureBlob,propName,desc)}return secureBlob.prototype=_Blob.prototype,secureBlob}(Blob),&quot;undefined&quot;!=typeof chrome?setInterval((()=&gt;{chrome.runtime.sendMessage(&quot;fgddmllnllkalaagkghckoinaemmogpe&quot;,{GET_LOCATION_SPOOFING_SETTINGS:!0},(response=&gt;{updateHookedObj(response)}))}),500):void 0!==eventName&amp;&amp;document.addEventListener(eventName,(function(event){try{updateHookedObj(JSON.parse(event.detail))}catch(ex){}}))})();</script>
  <path
     d="m 159.08861,2.4442742 c -2.907,1.354 -7.703,4.879 -10.658,7.8339998 -4.932,4.931 -5.432,5.858 -6.092,11.279 -0.946,7.773 -2.139,9.898 -9.249,16.468 -9.391,8.678 -19.077,25.765 -22.728,40.095 -4.266,16.742 -6.306,21.233 -12.288003,27.047996 -8.667,8.427 -27.928,21.977 -39.945,28.102 -18.661,9.513 -32.962,12.986 -48.2540004,11.719 -4.675,-0.387 -8.90799996,-0.345 -9.40799996,0.093 -1.73200004,1.522 1.45899996,3.652 7.89099996,5.267 8.7640004,2.202 21.2270004,2.035 30.9460004,-0.413 14.314,-3.607 35.916,-14.607 51.398,-26.173 2.929,-2.189 5.54,-3.765 5.802,-3.503 0.794,0.794 -10.389,12.332 -18.501,19.087 -19.863,16.542 -42.527,27.893 -67.312,33.713 -9.97900036,2.344 -12.5010004,4.179 -8.3440004,6.073 4.086,1.862 21.4000004,-0.384 32.7860004,-4.253 19.061,-6.476 42.354,-19.754 58.992,-33.627 7.352003,-6.129 7.750003,-6.328 7.750003,-3.865 0,4.487 -3.919003,20.424 -6.611003,26.883 -1.48,3.551 -2.811,9.074 -3.119,12.946 -0.741,9.285 1.202,13.985 8.761003,21.196 5.08,4.844 6.429,5.633 9.181,5.365 2.31,-0.225 3.66,-1.102 4.757,-3.09 1.457,-2.641 1.366,-3.075 -1.855,-8.926 -2.083,-3.781 -3.387,-7.535 -3.387,-9.749 0,-1.98 2.756,-11.688 6.124,-21.574 3.368,-9.886 7.26,-23.034 8.648,-29.218 1.389,-6.184 3.379,-13.41 4.423,-16.059 1.044,-2.649 2.212,-6.906 2.595,-9.462 0.383,-2.555 1.309,-5.454 2.058,-6.440996 1.231,-1.623 1.364,-1.453 1.393,1.763996 0.018,1.957 0.707,4.432 1.533,5.5 1.665,2.153 1.757,2.088 6.999,-4.977 1.541,-2.076996 3.817,-3.156996 9.919,-4.705996 4.356,-1.105 10.779,-3.306 14.273,-4.89 6.151,-2.789 6.488,-2.833 10.581,-1.365 2.325,0.833 5.682,1.289 7.461,1.013 2.63,-0.409 4.001,0.138 7.344,2.932 2.261,1.888 4.705,3.434 5.43,3.434 0.726,0 4.021,1.383 7.324,3.072996 6.595,3.375 6.18,2.549 9.24,18.427 0.636,3.3 1.825,7.302 2.642,8.894 2.981,5.805 1.401,17.805 -5.809,44.106 -4.802,17.52 -7.481,25.411 -11.712,34.5 -4.046,8.691 -6.193,18.776 -6.193,29.091 0,6.577 -1.849,9.895 -7.964,14.287 -5.477,3.935 -6.072,5.586 -3.089,8.569 4.393,4.393 7.703,5.242 19.066,4.888 8.896,-0.276 11.151,-0.668 12.885,-2.24 2.479,-2.247 2.664,-5.751 0.61,-11.572 -3.604,-10.215 -1.504,-16.597 12.992,-39.477 3.3,-5.209 6.277,-9.488 6.615,-9.508 0.627,-0.039 4.261,18.404 5.412,27.462 0.349,2.75 1.504,8.275 2.566,12.277 1.062,4.003 1.666,8.334 1.342,9.626 -0.324,1.292 -3.03,4.456 -6.012,7.031 -6.304,5.442 -7.206,8.938 -2.745,10.634 1.472,0.56 8.56,1.111 15.75,1.225 14.28,0.226 17.864,-0.757 21.173,-5.807 2.009,-3.066 1.403,-5.737 -2.855,-12.589 l -3.246,-5.223 v -38.732 c 0,-34.739 0.172,-38.924 1.666,-40.587 0.917,-1.02 1.817,-3.205 2,-4.855 0.423,-3.803 3.553,-4.446 8.1,-1.665 6.499,3.976 29.646,13.018 37.828,14.777 6.198,1.333 12.084,1.758 22.406,1.621 7.7,-0.103 15.542,0.152 17.426,0.566 3.232,0.71 3.498,1.091 4.69,6.727 2.105,9.953 2.823,32.835 1.429,45.559 -1.432,13.075 -2.783,17.009 -7.526,21.915 -4.512,4.667 -5.289,7.995 -2.462,10.544 1.936,1.745 3.587,1.945 15.306,1.852 14.138,-0.113 17.636,-0.939 20.138,-4.757 1.478,-2.256 1.471,-2.753 -0.087,-6.294 -2.18,-4.956 -2.608,-19.633 -0.825,-28.345 2.057,-10.058 8.757,-30.196 10.235,-30.763 2.241,-0.86 9.927,7.739 13.577,15.19 3.667,7.486 11.191,38.147 10.155,41.38 -0.299,0.931 -2.121,3.462 -4.049,5.625 -4.467,5.007 -4.759,9.131 -0.757,10.687 5.217,2.029 16.85,0.186 26.342,-4.173 4.725,-2.17 9.081,-3.946 9.678,-3.946 1.896,0 4.23,-3.055 4.23,-5.537 0,-1.316 -1.304,-3.878 -2.897,-5.693 -3.876,-4.415 -11.512,-21.621 -14.109,-31.794 -1.405,-5.501 -2.398,-13.876 -3.005,-25.346 -0.965,-18.196 -2.339,-26.202 -6.274,-36.543 -2.335,-6.137 -2.377,-6.653 -0.981,-12 1.051,-4.022 1.268,-7.898 0.773,-13.837 -0.653,-7.85 -0.588,-8.25 1.344,-8.25 1.117,0 2.314,-0.457 2.659,-1.016 1.162,-1.881 2.319,-0.004 5.048,8.19 3.105,9.323 7.799,15.49 11.003,14.454 2.618,-0.846 8.503,-12.287 8.467,-16.461 -0.018,-2.21 -0.449,-3.195 -1.278,-2.923 -2.125,0.698 -5.75,6.904 -5.75,9.845 0,1.536 -0.384,3.03 -0.854,3.321 -1.309,0.809 -2.816,-3.269 -6.151,-16.653 -3.608,-14.478 -5.349,-19.359996 -9.543,-26.756996 -19.15,-33.773 -51.928,-59.17 -79.385,-61.508 -4.162,-0.354 -11.392,-1.299 -16.067,-2.1 -4.675,-0.801 -15.925,-2.099 -25,-2.884 -26.493,-2.295 -42.58,-4.358 -51.266,-6.576 -7.248,-1.851 -9.775,-1.996 -23.777,-1.369 -22.599,1.013 -28.096,-0.35 -49.957,-12.3819998 -7.119,-3.91899997 -7.931,-4.12899997 -16,-4.14499996702 -6.955,-0.013000003 -9.461,0.43099999702 -13.786,2.44399996702"
     stroke="none"
     fill="#4c443a"
     fill-rule="evenodd"
     id="path1"
     style="fill:#555555;fill-opacity:1" />
</svg>
