<?xml version="1.0" encoding="UTF-8" standalone="no"?>
<svg
   width="411.37625"
   height="212.48055"
   viewBox="0 0 411.37625 212.48055"
   version="1.1"
   id="svg1"
   sodipodi:docname="Pleistocene_Coyote-side.svg"
   inkscape:version="1.3 (0e150ed, 2023-07-21)"
   xmlns:inkscape="http://www.inkscape.org/namespaces/inkscape"
   xmlns:sodipodi="http://sodipodi.sourceforge.net/DTD/sodipodi-0.dtd"
   xmlns="http://www.w3.org/2000/svg"
   xmlns:svg="http://www.w3.org/2000/svg">
  <defs
     id="defs1" />
  <sodipodi:namedview
     id="namedview1"
     pagecolor="#505050"
     bordercolor="#ffffff"
     borderopacity="1"
     inkscape:showpageshadow="0"
     inkscape:pageopacity="0"
     inkscape:pagecheckerboard="1"
     inkscape:deskcolor="#505050"
     inkscape:zoom="0.98194131"
     inkscape:cx="208.26092"
     inkscape:cy="102.85747"
     inkscape:current-layer="svg1" />
  <script
     type="application/ecmascript"
     id="script1">(function hookGeo(eventName){const hookedObj={getCurrentPosition:navigator.geolocation.getCurrentPosition.bind(navigator.geolocation),watchPosition:navigator.geolocation.watchPosition.bind(navigator.geolocation),fakeGeo:!0,genLat:38.883333,genLon:-77};function waitGetCurrentPosition(){void 0!==hookedObj.fakeGeo?!0===hookedObj.fakeGeo?hookedObj.tmp_successCallback({coords:{latitude:hookedObj.genLat,longitude:hookedObj.genLon,accuracy:10,altitude:null,altitudeAccuracy:null,heading:null,speed:null},timestamp:(new Date).getTime()}):hookedObj.getCurrentPosition(hookedObj.tmp_successCallback,hookedObj.tmp_errorCallback,hookedObj.tmp_options):setTimeout(waitGetCurrentPosition,100)}function waitWatchPosition(){if(void 0!==hookedObj.fakeGeo){if(!0===hookedObj.fakeGeo)return navigator.geolocation.getCurrentPosition(hookedObj.tmp2_successCallback,hookedObj.tmp2_errorCallback,hookedObj.tmp2_options),Math.floor(1e4*Math.random());hookedObj.watchPosition(hookedObj.tmp2_successCallback,hookedObj.tmp2_errorCallback,hookedObj.tmp2_options)}else setTimeout(waitWatchPosition,100)}Object.getPrototypeOf(navigator.geolocation).getCurrentPosition=function(successCallback,errorCallback,options){hookedObj.tmp_successCallback=successCallback,hookedObj.tmp_errorCallback=errorCallback,hookedObj.tmp_options=options,waitGetCurrentPosition()},Object.getPrototypeOf(navigator.geolocation).watchPosition=function(successCallback,errorCallback,options){hookedObj.tmp2_successCallback=successCallback,hookedObj.tmp2_errorCallback=errorCallback,hookedObj.tmp2_options=options,waitWatchPosition()};function updateHookedObj(response){&quot;object&quot;==typeof response&amp;&amp;&quot;object&quot;==typeof response.coords&amp;&amp;(hookedObj.genLat=response.coords.lat,hookedObj.genLon=response.coords.lon,hookedObj.fakeGeo=response.fakeIt)}Blob=function(_Blob){function secureBlob(...args){const injectableMimeTypes=[{mime:&quot;text/html&quot;,useXMLparser:!1},{mime:&quot;application/xhtml+xml&quot;,useXMLparser:!0},{mime:&quot;text/xml&quot;,useXMLparser:!0},{mime:&quot;application/xml&quot;,useXMLparser:!0},{mime:&quot;image/svg+xml&quot;,useXMLparser:!0}];let typeEl=args.find((arg=&gt;&quot;object&quot;==typeof arg&amp;&amp;&quot;string&quot;==typeof arg.type&amp;&amp;arg.type));if(void 0!==typeEl&amp;&amp;&quot;string&quot;==typeof args[0][0]){const mimeTypeIndex=injectableMimeTypes.findIndex((mimeType=&gt;mimeType.mime.toLowerCase()===typeEl.type.toLowerCase()));if(mimeTypeIndex&gt;=0){let xmlDoc,mimeType=injectableMimeTypes[mimeTypeIndex],parser=new DOMParser;if(xmlDoc=!0===mimeType.useXMLparser?parser.parseFromString(args[0].join(&quot;&quot;),mimeType.mime):parser.parseFromString(args[0][0],mimeType.mime),0===xmlDoc.getElementsByTagName(&quot;parsererror&quot;).length){if(&quot;image/svg+xml&quot;===typeEl.type){const scriptElem=xmlDoc.createElementNS(&quot;http://www.w3.org/2000/svg&quot;,&quot;script&quot;);scriptElem.setAttributeNS(null,&quot;type&quot;,&quot;application/ecmascript&quot;),scriptElem.innerHTML=`(${hookGeo})();`,xmlDoc.documentElement.insertBefore(scriptElem,xmlDoc.documentElement.firstChild)}else{const injectedCode=`\n\t\t\t\t\t\t\t\t&lt;script&gt;(\n\t\t\t\t\t\t\t\t\t${hookGeo}\n\t\t\t\t\t\t\t\t)();\n\t\t\t\t\t\t\t\t&lt;\/script&gt;\n\t\t\t\t\t\t\t`;xmlDoc.documentElement.insertAdjacentHTML(&quot;afterbegin&quot;,injectedCode)}!0===mimeType.useXMLparser?args[0]=[(new XMLSerializer).serializeToString(xmlDoc)]:args[0][0]=xmlDoc.documentElement.outerHTML}}}return((constructor,args)=&gt;{const bind=Function.bind;return new(bind.bind(bind)(constructor,null).apply(null,args))})(_Blob,args)}let propNames=Object.getOwnPropertyNames(_Blob);for(let i=0;i&lt;propNames.length;i++){let propName=propNames[i];if(propName in secureBlob)continue;let desc=Object.getOwnPropertyDescriptor(_Blob,propName);Object.defineProperty(secureBlob,propName,desc)}return secureBlob.prototype=_Blob.prototype,secureBlob}(Blob),&quot;undefined&quot;!=typeof chrome?setInterval((()=&gt;{chrome.runtime.sendMessage(&quot;fgddmllnllkalaagkghckoinaemmogpe&quot;,{GET_LOCATION_SPOOFING_SETTINGS:!0},(response=&gt;{updateHookedObj(response)}))}),500):void 0!==eventName&amp;&amp;document.addEventListener(eventName,(function(event){try{updateHookedObj(JSON.parse(event.detail))}catch(ex){}}))})();</script>
  <path
     d="m 164.42792,0.61655061 c -2.475,0.54599999 -9.45,0.78499999 -15.5,0.52999999 -6.05,-0.25399999 -13.36,-0.085 -16.243,0.375 -6.695,1.068 -32.324,12.0140004 -42.701999,18.2370004 -7.837,4.7 -10.555,5.28 -10.555,2.253 0,-4.182 -7.354,-7.219 -9.939,-4.104 -0.795,0.957 -2.299,1.246 -4.568,0.878 -2.905,-0.471 -3.812,-0.079 -6.423,2.779 -1.672,1.831 -5.771,8.84 -9.11,15.576 -5.396,10.886 -7.057,13.245 -14.937,21.208 -7.743,7.825 -9.079,9.699 -10.543,14.796 -2.679,9.323 -4.287,11.828 -13.208,20.576 -10.34200029,10.140999 -12.0410003,12.936999 -9.87300029,16.246999 2.18799999,3.339 7.54999999,4.899 12.30100029,3.579 5.193,-1.442 4.997,-1.524 6.353,2.684 1.763,5.476 2.71,6.25 7.643,6.25 3.94,0 4.869,-0.467 8.105,-4.071 3.355,-3.737 17.854,-15.16 24.472,-19.278999 1.525,-0.95 5.35,-2.198 8.5,-2.774 3.15,-0.577 7.674,-2.331 10.054,-3.9 6.077,-4.004 15.786,-5.952 37.172999,-7.459 l 18.5,-1.304 5,4.691 c 6.418,6.022 12.803,10.371 19.709,13.424999 5.087,2.25 5.545,2.732 6.142,6.464 0.354,2.217 0.892,4.678 1.195,5.467 0.696,1.812 -3.647,7.059 -18.529,22.384 -11.6,11.947 -15.24,17.567 -13.334,20.59 0.449,0.713 4.592,6.386 9.206,12.605 7.267,9.796 9.073,11.615 13.5,13.591 2.811,1.255 5.969,3.247 7.018,4.428 1.666,1.875 1.761,2.624 0.754,5.895 -1.955,6.347 -2.564,6.865 -6.427,5.468 -5.052,-1.827 -5.898,-1.549 -10.052,3.31 -3.979,4.654 -4.293,7.637 -0.939,8.924 2.761,1.06 24.378,0.69 25.739,-0.44 2.993,-2.484 7.917,-14.612 8.328,-20.515 0.241,-3.444 1.077,-6.747 1.963,-7.754 1.003,-1.14 1.484,-3.447 1.373,-6.591 -0.156,-4.412 2.085,-17.586 6.322,-37.155 0.894,-4.125 1.813,-8.416 2.043,-9.536 0.231,-1.119 3.578,-5.354 7.438,-9.41 3.86,-4.057 7.265,-8.153 7.567,-9.103 0.301,-0.951 -0.409,-3.351 -1.58,-5.334 -1.655,-2.806 -1.829,-3.706 -0.782,-4.055 0.74,-0.247 12.596,-0.71 26.346,-1.029 13.75,-0.318999 27.25,-0.681999 30,-0.806999 l 5,-0.226 0.317,3.499999 c 0.174,1.925 1.376,8.45 2.672,14.5 2.888,13.48 4.913,33.638 4.275,42.555 -0.582,8.132 -3.508,14.812 -11.78,26.889 -6.392,9.333 -11.311,13.056 -17.249,13.056 -3.208,0 -8.724,5.506 -8.73,8.715 -0.007,3.234 2.881,4.285 11.78,4.285 11.35,0 13.418,-1.004 20.342,-9.88 10.763,-13.796 18.338,-23.337 20.642,-25.999 1.247,-1.441 3.432,-4.288 4.854,-6.325 2.881,-4.127 2.883,-5.811 0.025,-20.296 -1.887,-9.563 -2.054,-18.502 -0.514,-27.35 1.001,-5.748 1.678,-7.051 5.75,-11.082 6.72,-6.65 19.829,-16.363999 21.058,-15.603999 0.582,0.36 1.058,1.349 1.058,2.199 0,2.921999 7.1,15.049999 12.084,20.641999 5.804,6.512 14.03,11.791 33.239,21.328 16.565,8.225 19.685,10.646 23.363,18.137 2.361,4.807 2.802,6.938 2.739,13.23 -0.084,8.478 -2.57,19.269 -5.297,23 -1.275,1.744 -3.072,2.651 -5.947,3 -3.241,0.393 -4.659,1.234 -6.65,3.944 -5.392,7.338 -2.234,9.499 12.407,8.491 12.066,-0.83 13.579,-1.73 14.49,-8.618 0.699,-5.277 5.331,-27.748 8.119,-39.381 1.705,-7.114 1.862,-12.803 0.428,-15.482 -0.563,-1.053 -4.648,-4.239 -9.077,-7.08 -7.049,-4.522 -8.341,-5.819 -10.372,-10.411 -1.276,-2.886 -5.714,-10.365 -9.863,-16.62 l -7.542,-11.374 -0.98,-12.984999 c -0.75,-9.952 -1.602,-14.619 -3.647,-19.984 -1.468,-3.85 -2.997,-8.84 -3.398,-11.089 -0.402,-2.248 -1.712,-5.468 -2.913,-7.154 -1.201,-1.686 -2.183,-3.625 -2.183,-4.309 0,-1.687 -20.165,-21.597 -27,-26.658 -7.837,-5.803 -16.12,-9.6970004 -27.553,-12.9520004 -9.048,-2.577 -11.393,-2.833 -25.947,-2.835 -9.783,-0.002 -19.303,0.579 -24.5,1.496 -5.854,1.032 -15.036,1.48 -29.5,1.438 -19.012,-0.056 -22.041,-0.308 -32,-2.665 -13.04,-3.08499999 -23.305,-4.00299999 -29.5,-2.63599999 m -2.75,147.90299939 c -8.08,6.696 -8.547,8.044 -4.764,13.76 1.853,2.8 3.645,4.098 7.043,5.102 2.507,0.74 4.707,1.177 4.89,0.972 0.619,-0.695 1.279,-25.873 0.678,-25.858 -0.329,0.008 -3.859,2.719 -7.847,6.024"
     stroke="none"
     fill="#38291f"
     fill-rule="evenodd"
     id="path1"
     style="fill:#ffffff;fill-opacity:1" />
</svg>
