<?xml version="1.0" encoding="UTF-8" standalone="no"?>
<!-- Created with Inkscape (http://www.inkscape.org/) -->

<svg
   xmlns:dc="http://purl.org/dc/elements/1.1/"
   xmlns:cc="http://creativecommons.org/ns#"
   xmlns:rdf="http://www.w3.org/1999/02/22-rdf-syntax-ns#"
   xmlns:svg="http://www.w3.org/2000/svg"
   xmlns="http://www.w3.org/2000/svg"
   xmlns:sodipodi="http://sodipodi.sourceforge.net/DTD/sodipodi-0.dtd"
   xmlns:inkscape="http://www.inkscape.org/namespaces/inkscape"
   width="2985.6711"
   height="573.58179"
   viewBox="0 0 789.95881 151.7602"
   version="1.1"
   id="svg1922"
   inkscape:version="0.92.4 (5da689c313, 2019-01-14)"
   sodipodi:docname="Sperm_Whale-side.svg"
   inkscape:export-filename="G:\Pictures\My Pictures\Vectors and SVGs\Sperm Whale1.png"
   inkscape:export-xdpi="96"
   inkscape:export-ydpi="96">
  <defs
     id="defs1916" />
  <sodipodi:namedview
     id="base"
     pagecolor="#ffffff"
     bordercolor="#666666"
     borderopacity="1.0"
     inkscape:pageopacity="0.0"
     inkscape:pageshadow="2"
     inkscape:zoom="0.24748738"
     inkscape:cx="1603.4607"
     inkscape:cy="85.23044"
     inkscape:document-units="mm"
     inkscape:current-layer="layer1"
     showgrid="false"
     units="px"
     inkscape:pagecheckerboard="true"
     inkscape:showpageshadow="false"
     borderlayer="true"
     inkscape:window-width="1600"
     inkscape:window-height="837"
     inkscape:window-x="-8"
     inkscape:window-y="-8"
     inkscape:window-maximized="1"
     inkscape:snap-global="false"
     inkscape:snap-smooth-nodes="true"
     fit-margin-top="0"
     fit-margin-left="0"
     fit-margin-right="0"
     fit-margin-bottom="0" />
  <metadata
     id="metadata1919">
    <rdf:RDF>
      <cc:Work
         rdf:about="">
        <dc:format>image/svg+xml</dc:format>
        <dc:type
           rdf:resource="http://purl.org/dc/dcmitype/StillImage" />
        <dc:title></dc:title>
      </cc:Work>
    </rdf:RDF>
  </metadata>
  <g
     inkscape:label="Layer 1"
     inkscape:groupmode="layer"
     id="layer1"
     transform="translate(-3.9271206,-118.08076)">
    <path
       style="opacity:1;fill:#ffffff;fill-opacity:1;fill-rule:nonzero;stroke:none;stroke:none;stroke-width:28.57616615;stroke-linecap:round;stroke-linejoin:round;stroke-miterlimit:4;stroke-dasharray:none;stroke-dashoffset:0;stroke-opacity:1;paint-order:normal"
       d="m 201.9733,118.30943 c -34.13077,1.79279 -80.41417,13.53918 -115.4611,14.44604 -38.017,0.98366 -70.027346,0.1271 -74.984686,23.54429 -10.2415809,48.37857 -13.334386,63.80149 11.461118,75.5723 24.795505,11.77084 20.459372,11.54887 28.110247,17.66513 7.650873,6.11627 7.956711,3.50613 57.331341,-4.08564 49.37463,-7.5918 48.26784,-4.40749 48.26784,-4.40749 0,0 -0.0907,0.0329 -0.32199,0.10257 -0.46269,0.13945 -1.48926,0.42685 -3.4854,0.89693 -0.99828,0.23508 -2.2389,0.516 -3.77291,0.84676 -0.767,0.16537 -1.60731,0.34329 -2.52727,0.53421 -1.83992,0.38183 -3.99893,0.81563 -6.5268,1.30611 -1.2638,0.24522 -2.61998,0.50466 -4.07475,0.77865 -2.90991,0.54805 -6.21482,1.15492 -9.9649,1.8246 -1.87504,0.33485 -3.86127,0.68533 -5.96538,1.0522 -2.10412,0.36687 -4.32614,0.75021 -6.67201,1.15019 -0.0474,0.008 -0.0918,0.0163 -0.13903,0.0243 -0.84744,0.14477 -1.67744,0.28916 -2.49234,0.43319 -0.29608,0.0523 -0.58217,0.10409 -0.874,0.15632 -0.54562,0.0977 -1.0893,0.1952 -1.62017,0.29247 -0.39626,0.0726 -0.783,0.14496 -1.17111,0.21734 -0.40284,0.0751 -0.80353,0.14996 -1.19766,0.22483 -0.37984,0.0722 -0.7559,0.14435 -1.1277,0.21626 -0.4233,0.0819 -0.8401,0.16358 -1.25307,0.24513 -0.35368,0.0698 -0.70686,0.13941 -1.05304,0.20901 -0.40741,0.0819 -0.80475,0.16367 -1.20184,0.24522 -0.31367,0.0644 -0.63167,0.12893 -0.93895,0.19311 -0.434415,0.0907 -0.855401,0.18087 -1.27715,0.27113 -0.262294,0.0561 -0.533179,0.11289 -0.790616,0.16883 -0.122609,0.0266 -0.237299,0.0529 -0.358812,0.0795 -0.535589,0.11724 -1.064603,0.23413 -1.57906,0.35048 -0.201552,0.0456 -0.394168,0.0905 -0.592508,0.13591 -0.426512,0.0977 -0.850357,0.19559 -1.262133,0.29265 -0.263063,0.062 -0.518229,0.12344 -0.775337,0.18516 -0.338726,0.0813 -0.674782,0.16251 -1.003256,0.24332 -0.248193,0.061 -0.492706,0.12192 -0.735103,0.18268 -0.327569,0.0821 -0.649341,0.16411 -0.96641,0.24567 -0.240332,0.0618 -0.479943,0.12329 -0.714302,0.18478 -0.296691,0.0778 -0.585161,0.1555 -0.872355,0.23281 -0.231613,0.0623 -0.465945,0.12479 -0.691443,0.18677 -0.278823,0.0767 -0.546619,0.15244 -0.816169,0.22853 -0.216942,0.0612 -0.440238,0.12292 -0.651234,0.18378 -0.05713,0.0165 -0.109591,0.0325 -0.166284,0.049 -0.379004,0.11 -0.752131,0.21954 -1.111912,0.32829 -0.245326,0.0741 -0.477587,0.14744 -0.714097,0.22098 -0.183405,0.057 -0.370228,0.11435 -0.548378,0.17101 -0.239304,0.0761 -0.468881,0.15155 -0.698802,0.22697 -0.165186,0.0542 -0.331,0.10819 -0.491385,0.16203 -0.232944,0.0782 -0.459038,0.15547 -0.681959,0.23287 -0.131774,0.0458 -0.261863,0.0915 -0.390168,0.13694 -0.228634,0.0811 -0.453429,0.16201 -0.671156,0.24217 -0.11517,0.0424 -0.226266,0.0845 -0.338412,0.12666 -0.217999,0.0819 -0.434845,0.16392 -0.641537,0.24488 -0.08603,0.0337 -0.166623,0.0666 -0.250712,0.10014 -0.769232,0.30666 -1.460363,0.60645 -2.071875,0.89803 -0.01745,0.008 -0.03628,0.017 -0.05361,0.0254 -0.188264,0.0903 -0.365372,0.17908 -0.539016,0.26782 -0.04589,0.0235 -0.09346,0.047 -0.138338,0.0704 -0.165126,0.0859 -0.3218,0.17093 -0.473399,0.25532 -0.04194,0.0234 -0.084,0.0465 -0.124918,0.0697 -0.157758,0.0896 -0.308438,0.17833 -0.451145,0.26614 -0.01466,0.009 -0.02867,0.0179 -0.04318,0.0269 -0.153607,0.0953 -0.300683,0.19034 -0.436847,0.28356 -6.843093,4.68471 8.108326,6.63927 22.223317,2.37222 22.166981,-6.70121 82.614901,-17.85937 93.676071,-12.77405 11.06118,5.08529 31.40589,5.39343 96.71448,5.24531 65.30863,-0.14812 173.20154,3.68882 187.87371,2.9753 14.67217,-0.71352 20.40825,1.60262 33.88159,-5.97347 13.47331,-7.57611 56.37485,-14.85314 76.98354,-18.01814 20.60871,-3.16498 39.93202,2.81625 53.39352,3.89183 13.46153,1.07559 15.86153,-2.93425 19.55646,-7.00692 3.69493,-4.07267 47.81933,-21.79018 47.81933,-21.79018 0,0 5.10359,7.10502 24.56196,24.75862 19.45839,17.65356 57.68274,38.72052 60.59856,36.41596 2.9158,-2.30458 -10.6272,-22.84126 -13.48924,-28.32528 -2.86201,-5.48403 -1.7115,-26.30299 -4.18398,-32.67106 -2.47245,-6.36809 -9.80891,-6.0113 -10.30339,-7.28491 -0.49451,-1.27361 6.9049,-0.33571 9.86269,-1.77721 2.95779,-1.44153 2.14827,-9.18782 3.29596,-12.27152 1.14773,-3.0837 10.53684,-5.70311 10.02137,-7.40827 -0.51547,-1.70515 -7.26128,-7.00071 -15.97592,-8.30715 -8.71461,-1.30642 -61.73086,2.5695 -61.73086,2.5695 0,0 -47.79261,-13.24776 -55.56022,-12.87002 -7.76764,0.37775 -12.8291,-5.86433 -18.54398,-7.74921 -5.71485,-1.88484 -13.8093,0.67155 -19.85077,0.96535 -6.0415,0.29381 -11.49261,-5.06393 -16.67102,-4.8121 -5.17842,0.25183 -14.65129,1.14506 -21.14531,1.02831 -6.49398,-0.11675 -12.11315,-8.92752 -15.1339,-8.78062 -3.02075,0.1469 -9.26253,5.20874 -13.14631,5.39761 -3.88386,0.18888 -10.32422,-7.71643 -12.91341,-7.59051 -2.5892,0.12591 -5.4213,4.15637 -11.89433,4.47116 -6.47302,0.31479 -11.25012,-8.96897 -14.29186,-9.25358 -3.04171,-0.28464 -4.53673,4.54636 -11.4203,5.31367 -6.88357,0.76729 -12.69132,-11.92687 -18.87972,-14.65381 -6.18838,-2.72694 -9.47297,0.89295 -27.40854,5.65815 -17.93557,4.76523 -141.6456,-13.00892 -182.16786,-10.17316 -40.52227,2.83573 -26.96495,-3.01435 -61.57165,-3.06159 -2.70365,-0.004 -5.50897,0.0766 -8.40141,0.22852 z"
       id="path2489"
       inkscape:connector-curvature="0" />
  </g>
</svg>
