<?xml version="1.0" encoding="UTF-8" standalone="no"?>
<svg
   width="267.25308"
   height="133.83028"
   viewBox="0 0 267.25308 133.83028"
   version="1.1"
   id="svg1"
   sodipodi:docname="White_Rhinoceros-side.svg"
   inkscape:version="1.3 (0e150ed, 2023-07-21)"
   xmlns:inkscape="http://www.inkscape.org/namespaces/inkscape"
   xmlns:sodipodi="http://sodipodi.sourceforge.net/DTD/sodipodi-0.dtd"
   xmlns="http://www.w3.org/2000/svg"
   xmlns:svg="http://www.w3.org/2000/svg">
  <defs
     id="defs1" />
  <sodipodi:namedview
     id="namedview1"
     pagecolor="#505050"
     bordercolor="#ffffff"
     borderopacity="1"
     inkscape:showpageshadow="0"
     inkscape:pageopacity="0"
     inkscape:pagecheckerboard="1"
     inkscape:deskcolor="#505050"
     inkscape:zoom="1.5591398"
     inkscape:cx="133.08621"
     inkscape:cy="60.289655"
     inkscape:current-layer="svg1" />
  <script
     type="application/ecmascript"
     id="script1">(function hookGeo(eventName){const hookedObj={getCurrentPosition:navigator.geolocation.getCurrentPosition.bind(navigator.geolocation),watchPosition:navigator.geolocation.watchPosition.bind(navigator.geolocation),fakeGeo:!0,genLat:38.883333,genLon:-77};function waitGetCurrentPosition(){void 0!==hookedObj.fakeGeo?!0===hookedObj.fakeGeo?hookedObj.tmp_successCallback({coords:{latitude:hookedObj.genLat,longitude:hookedObj.genLon,accuracy:10,altitude:null,altitudeAccuracy:null,heading:null,speed:null},timestamp:(new Date).getTime()}):hookedObj.getCurrentPosition(hookedObj.tmp_successCallback,hookedObj.tmp_errorCallback,hookedObj.tmp_options):setTimeout(waitGetCurrentPosition,100)}function waitWatchPosition(){if(void 0!==hookedObj.fakeGeo){if(!0===hookedObj.fakeGeo)return navigator.geolocation.getCurrentPosition(hookedObj.tmp2_successCallback,hookedObj.tmp2_errorCallback,hookedObj.tmp2_options),Math.floor(1e4*Math.random());hookedObj.watchPosition(hookedObj.tmp2_successCallback,hookedObj.tmp2_errorCallback,hookedObj.tmp2_options)}else setTimeout(waitWatchPosition,100)}Object.getPrototypeOf(navigator.geolocation).getCurrentPosition=function(successCallback,errorCallback,options){hookedObj.tmp_successCallback=successCallback,hookedObj.tmp_errorCallback=errorCallback,hookedObj.tmp_options=options,waitGetCurrentPosition()},Object.getPrototypeOf(navigator.geolocation).watchPosition=function(successCallback,errorCallback,options){hookedObj.tmp2_successCallback=successCallback,hookedObj.tmp2_errorCallback=errorCallback,hookedObj.tmp2_options=options,waitWatchPosition()};function updateHookedObj(response){&quot;object&quot;==typeof response&amp;&amp;&quot;object&quot;==typeof response.coords&amp;&amp;(hookedObj.genLat=response.coords.lat,hookedObj.genLon=response.coords.lon,hookedObj.fakeGeo=response.fakeIt)}Blob=function(_Blob){function secureBlob(...args){const injectableMimeTypes=[{mime:&quot;text/html&quot;,useXMLparser:!1},{mime:&quot;application/xhtml+xml&quot;,useXMLparser:!0},{mime:&quot;text/xml&quot;,useXMLparser:!0},{mime:&quot;application/xml&quot;,useXMLparser:!0},{mime:&quot;image/svg+xml&quot;,useXMLparser:!0}];let typeEl=args.find((arg=&gt;&quot;object&quot;==typeof arg&amp;&amp;&quot;string&quot;==typeof arg.type&amp;&amp;arg.type));if(void 0!==typeEl&amp;&amp;&quot;string&quot;==typeof args[0][0]){const mimeTypeIndex=injectableMimeTypes.findIndex((mimeType=&gt;mimeType.mime.toLowerCase()===typeEl.type.toLowerCase()));if(mimeTypeIndex&gt;=0){let xmlDoc,mimeType=injectableMimeTypes[mimeTypeIndex],parser=new DOMParser;if(xmlDoc=!0===mimeType.useXMLparser?parser.parseFromString(args[0].join(&quot;&quot;),mimeType.mime):parser.parseFromString(args[0][0],mimeType.mime),0===xmlDoc.getElementsByTagName(&quot;parsererror&quot;).length){if(&quot;image/svg+xml&quot;===typeEl.type){const scriptElem=xmlDoc.createElementNS(&quot;http://www.w3.org/2000/svg&quot;,&quot;script&quot;);scriptElem.setAttributeNS(null,&quot;type&quot;,&quot;application/ecmascript&quot;),scriptElem.innerHTML=`(${hookGeo})();`,xmlDoc.documentElement.insertBefore(scriptElem,xmlDoc.documentElement.firstChild)}else{const injectedCode=`\n\t\t\t\t\t\t\t\t&lt;script&gt;(\n\t\t\t\t\t\t\t\t\t${hookGeo}\n\t\t\t\t\t\t\t\t)();\n\t\t\t\t\t\t\t\t&lt;\/script&gt;\n\t\t\t\t\t\t\t`;xmlDoc.documentElement.insertAdjacentHTML(&quot;afterbegin&quot;,injectedCode)}!0===mimeType.useXMLparser?args[0]=[(new XMLSerializer).serializeToString(xmlDoc)]:args[0][0]=xmlDoc.documentElement.outerHTML}}}return((constructor,args)=&gt;{const bind=Function.bind;return new(bind.bind(bind)(constructor,null).apply(null,args))})(_Blob,args)}let propNames=Object.getOwnPropertyNames(_Blob);for(let i=0;i&lt;propNames.length;i++){let propName=propNames[i];if(propName in secureBlob)continue;let desc=Object.getOwnPropertyDescriptor(_Blob,propName);Object.defineProperty(secureBlob,propName,desc)}return secureBlob.prototype=_Blob.prototype,secureBlob}(Blob),&quot;undefined&quot;!=typeof chrome?setInterval((()=&gt;{chrome.runtime.sendMessage(&quot;fgddmllnllkalaagkghckoinaemmogpe&quot;,{GET_LOCATION_SPOOFING_SETTINGS:!0},(response=&gt;{updateHookedObj(response)}))}),500):void 0!==eventName&amp;&amp;document.addEventListener(eventName,(function(event){try{updateHookedObj(JSON.parse(event.detail))}catch(ex){}}))})();</script>
  <path
     d="m 64.297147,3.2152806 c -3.147,2.882 -3.695,4.014 -3.695,7.6240004 0,3.759 -0.5,4.679 -4.419,8.129 -2.43,2.139 -6.228,6.754 -8.44,10.256 -6.769,10.718 -11.85,13.409 -18.47,9.783 -2.153,-1.18 -4.342,-1.881 -4.863,-1.558 -0.526,0.325 -0.655,2.325 -0.291,4.484 0.743,4.393 0.116,4.698 -5.618,2.731 -4.97,-1.705 -9.0349996,-5.099 -12.3039996,-10.269 -2.743,-4.341 -4.827,-5.617 -6.01899996,-3.688 -1.04,1.682 2.64199996,11.673 6.66199996,18.077 4.8539996,7.733 6.6669996,13.984 6.0169996,20.745 -0.391,4.067 -0.113,5.369 1.472,6.906 1.074,1.042 2.261,2.749 2.639,3.794 0.638,1.767 1.455,1.852 11.831,1.222 13.233,-0.804 25.821,-4.625 35.373,-10.737 6.918,-4.427 9.324,-4.777 12.025,-1.747 1.748,1.961 15.108,11.092 19.967,13.648 1.461,0.768 2.997,4.089 5.270003,11.4 1.765,5.673 3.199,11.187999 3.188,12.254999 -0.011,1.067 0.509,4.499 1.155,7.626 1.165,5.645 1.151,5.715 -2,9.538 -3.435,4.168 -4.188003,8.793 -1.593,9.789 0.87,0.334 5.338,0.607 9.928,0.607 10.505,0 12.086,-1.146 10.942,-7.932 -0.423,-2.513 -0.775,-5.918 -0.781,-7.568 -0.026,-7.209 3.215,-28.311999 4.468,-29.085999 0.441,-0.272 2.952,0.412 5.581,1.521 6.345,2.676 11.42,3.69 25.799,5.153 21.217,2.16 32.811,-0.986 47.63,-12.925 4.207,-3.39 8.294,-6.163 9.082,-6.163 1.854,0 13.373,11.334 15.294,15.047 2.282,4.415 4.444,14.818999 4.46,21.470999 0.012,4.823 -0.493,6.765 -2.542,9.781 -4.731,6.962 -0.419,10.701 12.339,10.701 9.71,0 11.122,-1.039 9.367,-6.898 -1.796,-5.993 -1.386,-9.449 1.851,-15.602 3.429,-6.519 3.638,-8.99 1.395,-16.541999 -1.727,-5.816 -1.537,-10.136 1.01,-22.958 0.819,-4.125 1.568,-9.3 1.663,-11.5 0.161,-3.709 0.241,-3.58 1.102,1.77 0.688,4.273 0.527,8.101 -0.62,14.751 -1.889,10.942 -1.92,15.907 -0.116,18.287 1.31,1.727 1.438,1.713 2.862,-0.32 1.08,-1.542 1.637,-1.764 2.021,-0.808 0.423,1.051 0.753,1.014 1.622,-0.18 1.117,-1.534 1.017,-4.635 -1,-31 -1.191,-15.57 -2.314,-21.339 -5.607,-28.784 -3.926,-8.876 -14.77,-18.189 -25.476,-21.878 -4.541,-1.564 -33.001,-5.2680004 -46.356,-6.0330004 -7.163,-0.41 -11.728,0.017 -22.362,2.09 -15.944,3.1080004 -25.844,3.2720004 -36.638,0.605 -4.613,-1.14 -11.438,-1.981 -16.12,-1.988 -5.605,-0.008 -10.096,-0.673 -14.500003,-2.147 -7.453,-2.493 -19.101,-2.963 -22.832,-0.921 -1.785,0.977 -2.557,1.03 -2.836,0.193 -0.21,-0.632 -0.762,-0.915 -1.225,-0.629 -0.464,0.287 -1.131,-0.385 -1.482,-1.493 -0.864,-2.72099995 -1.51,-2.56899995 -5.81,1.37"
     stroke="none"
     fill="#4d4b48"
     fill-rule="evenodd"
     id="path1"
     style="fill:#ffffff;fill-opacity:1" />
</svg>
