<?xml version="1.0" encoding="UTF-8" standalone="no"?>
<!-- Created with Inkscape (http://www.inkscape.org/) -->

<svg
   width="162.853mm"
   height="95.467003mm"
   viewBox="0 0 162.85299 95.467003"
   version="1.1"
   id="svg1"
   xml:space="preserve"
   inkscape:version="1.3 (0e150ed, 2023-07-21)"
   sodipodi:docname="Woolly_Mammoth-side.svg"
   xmlns:inkscape="http://www.inkscape.org/namespaces/inkscape"
   xmlns:sodipodi="http://sodipodi.sourceforge.net/DTD/sodipodi-0.dtd"
   xmlns="http://www.w3.org/2000/svg"
   xmlns:svg="http://www.w3.org/2000/svg"><sodipodi:namedview
     id="namedview1"
     pagecolor="#505050"
     bordercolor="#ffffff"
     borderopacity="1"
     inkscape:showpageshadow="0"
     inkscape:pageopacity="0"
     inkscape:pagecheckerboard="1"
     inkscape:deskcolor="#505050"
     inkscape:document-units="mm"
     inkscape:zoom="0.65008588"
     inkscape:cx="232.277"
     inkscape:cy="209.20313"
     inkscape:current-layer="layer1" /><defs
     id="defs1" /><g
     inkscape:label="Layer 1"
     inkscape:groupmode="layer"
     id="layer1"
     transform="translate(-19.528796,-85.622376)"><path
       style="fill:#ffffff;stroke:none;stroke-width:2.021;stroke-linejoin:round"
       d="m 172.05008,117.95435 c 3.61169,3.33554 3.57334,8.48829 5.58812,10.63615 2.01478,2.14787 1.94608,5.02529 1.19613,7.65678 -0.74996,2.63149 -1.54848,5.03849 0.32807,7.16771 1.57472,1.78674 -0.50978,7.03852 -0.26054,9.91666 0.27371,3.16058 -1.65214,6.0329 0.10485,8.32182 1.657,2.15866 0.5884,4.80443 1.99538,7.19358 1.34773,2.28854 -0.19329,5.66519 0.68341,8.62785 0.87671,2.96267 1.30967,3.2882 -1.0851,3.2882 -2.39476,0 -14.27498,0.73398 -17.01423,0 -2.73924,-0.73397 -0.21546,-2.15845 0.0816,-4.53024 0.29707,-2.37179 -2.15827,-12.3101 -3.19196,-14.25212 -1.03369,-1.94201 -5.05343,-0.35258 -3.78537,1.01033 1.26807,1.3629 0.40338,4.99955 -0.98506,6.95199 -1.38844,1.95243 -3.16699,5.21858 -3.02489,7.08959 0.14211,1.87102 0.31205,3.08089 -3.20007,3.08089 -3.51212,0 -14.18689,-0.48361 -14.1062,-2.4234 0.0807,-1.93978 0.38848,-3.50672 2.23631,-6.68555 1.84782,-3.17884 1.8112,-7.18188 1.56003,-9.72929 -0.25118,-2.54742 -0.90922,-2.79865 -2.99254,-3.08644 -2.08333,-0.28779 -10.25028,-2.6317 -12.97455,-2.56267 -4.91515,0.12449 -3.24,1.05628 -4.51273,5.24935 -0.47933,1.57918 -1.93878,2.39934 -0.8975,3.96772 1.04129,1.56838 -0.15635,2.94272 0.4752,5.94344 0.63155,3.00072 -0.88519,5.07307 -0.28964,7.43806 0.59554,2.36499 0.2626,2.58688 -2.38278,2.58688 h -15.45859 c -3.087365,0 -1.39024,-2.01628 0.58928,-4.60096 1.97952,-2.58468 1.80361,-5.85621 1.22803,-8.34485 -0.57558,-2.48864 -0.76995,-2.83645 -1.73376,-3.82177 -0.963811,-0.98533 0.44676,1.83442 -0.76985,2.68787 -1.216613,0.85346 -2.989189,1.61552 -2.514823,3.13628 0.474367,1.52076 1.183058,2.6699 0.803884,3.61316 -0.379174,0.94326 -13.187479,6.11618 -14.664206,6.56558 -1.476724,0.44941 -3.134921,-1.82647 -2.488835,-4.67781 0.646089,-2.85133 2.748249,-14.22334 4.511771,-16.89893 1.763522,-2.67559 4.564435,-9.44511 5.341852,-13.93852 0.777415,-4.4934 -1.908984,-11.64603 -1.129659,-13.42386 0.779327,-1.77783 -0.609301,-2.45165 -2.664071,-1.88293 -2.054768,0.56873 -5.466072,3.3705 -6.298959,4.93868 -0.832888,1.56817 -0.757495,0.31991 -2.110645,1.61707 -1.353151,1.29716 -3.081309,3.94478 -3.21795,6.07177 -0.136641,2.12699 -1.789001,3.91918 -1.664136,5.79612 0.124862,1.87695 -2.691747,5.75121 -2.97774,8.20818 -0.285994,2.45696 -2.311945,4.53769 -1.880947,7.2203 0.430998,2.6826 0.440068,4.54955 1.373952,4.64069 0.933884,0.0911 0.05748,-2.78965 1.672953,-2.78965 1.615474,0 3.353765,-0.99092 3.040999,1.79711 -0.312764,2.78804 -2.312644,5.16706 -4.357156,5.25984 -2.044512,0.0928 -6.3525,-0.2342 -7.503067,-5.42564 -1.15057,-5.19145 -1.236814,-9.76312 -0.420897,-17.55383 -2.411971,-0.60743 -2.711513,-0.22237 -2.711513,-0.22237 -6.504083,4.01415 -22.251358,6.2237 -32.039084,-1.25876 -9.787724,-7.48246 -10.142219,-18.2208 -3.656321,-21.59402 6.485897,-3.37321 5.582959,-1.89313 1.961569,0.2216 -3.621389,2.11472 -5.280193,6.73677 -3.569391,10.16701 1.710801,3.43025 9.575643,15.08655 30.644006,10.51264 -16.664792,-10.16052 -17.688579,-23.4432 -16.689623,-25.9411 0.998953,-2.49791 2.651731,-1.95952 2.723756,-1.23694 0.07203,0.72259 -1.943492,1.48778 -0.02974,6.07223 1.91375,4.58445 8.817387,15.9866 19.262344,18.15181 3.886316,-3.62617 5.338759,-5.44633 5.338759,-5.44633 -0.943681,-5.52219 -0.670451,-11.84508 0.210249,-13.55058 0.8807,-1.70551 4.839197,-11.55419 5.350923,-13.63644 0.511727,-2.08226 2.866458,-7.91125 2.521383,-9.7819 -0.345077,-1.870653 -0.628689,-7.98143 3.720254,-11.01325 4.348943,-3.031821 7.785674,-4.893578 10.523093,-4.824929 2.737418,0.06865 4.352242,3.116215 6.533213,3.088339 2.180971,-0.02787 3.300642,1.722773 4.203475,3.277007 0.902832,1.554237 4.383028,2.421689 5.667598,-0.22593 1.28457,-2.647622 3.53253,-1.552657 6.59856,-0.897425 3.06603,0.655236 6.61786,-0.940871 14.6017,2.383618 7.98385,3.324492 12.10655,3.654166 17.42766,6.47382 5.3211,2.81965 14.09733,4.26659 19.0343,7.08073 4.93697,2.81413 5.05893,2.76319 7.777,4.43078 3.18125,1.95176 1.85284,4.41993 4.34246,6.7192 z"
       id="path1"
       sodipodi:nodetypes="ssssssssssssssssssssssssssssssssssssssssssssscssssccsssscsssccssssssssssssss" /></g></svg>
