<?xml version="1.0" encoding="UTF-8" standalone="no"?>
<!-- Created with Inkscape (http://www.inkscape.org/) -->

<svg
   width="24"
   height="24"
   viewBox="0 0 6.3499999 6.3499999"
   version="1.1"
   id="svg1"
   xml:space="preserve"
   sodipodi:docname="x.svg"
   inkscape:version="1.4 (86a8ad7, 2024-10-11)"
   xmlns:inkscape="http://www.inkscape.org/namespaces/inkscape"
   xmlns:sodipodi="http://sodipodi.sourceforge.net/DTD/sodipodi-0.dtd"
   xmlns="http://www.w3.org/2000/svg"
   xmlns:svg="http://www.w3.org/2000/svg"><sodipodi:namedview
     id="namedview1"
     pagecolor="#505050"
     bordercolor="#ffffff"
     borderopacity="1"
     inkscape:showpageshadow="0"
     inkscape:pageopacity="0"
     inkscape:pagecheckerboard="1"
     inkscape:deskcolor="#505050"
     inkscape:document-units="mm"
     inkscape:zoom="16"
     inkscape:cx="22.9375"
     inkscape:cy="9.90625"
     inkscape:window-width="3440"
     inkscape:window-height="1377"
     inkscape:window-x="-8"
     inkscape:window-y="-8"
     inkscape:window-maximized="1"
     inkscape:current-layer="layer1"
     showgrid="false"
     showguides="true" /><defs
     id="defs1"><inkscape:perspective
       sodipodi:type="inkscape:persp3d"
       inkscape:vp_x="0 : 3.175 : 1"
       inkscape:vp_y="-1.8369095e-13 : 1000 : 0"
       inkscape:vp_z="6.3499999 : 3.175 : 1"
       inkscape:persp3d-origin="3.175 : 2.1166666 : 1"
       id="perspective1" /></defs><g
     inkscape:label="Layer 1"
     inkscape:groupmode="layer"
     id="layer1"><path
       id="path20"
       style="color:#000000;fill:#f5f5f5;stroke-linecap:round;stroke-linejoin:round;-inkscape-stroke:none;paint-order:markers stroke fill"
       d="M 5.5895079,0.16207831 A 0.599195,0.599195 0 0 0 5.1657615,0.33777821 L 3.1746686,2.3283542 1.1840924,0.33777821 a 0.599195,0.599195 0 0 0 -0.84749354,0 0.599195,0.599195 0 0 0 0,0.84542629 L 2.3282086,3.1748143 0.33763246,5.1659072 a 0.599195,0.599195 0 0 0 0,0.8474935 0.599195,0.599195 0 0 0 0.84542644,0 L 3.1746686,4.0212743 5.1667951,6.0134007 a 0.599195,0.599195 0 0 0 0.8454268,0 0.599195,0.599195 0 0 0 0.1757,-0.4237467 0.599195,0.599195 0 0 0 -0.1757,-0.4237468 L 4.0211286,3.1748143 6.0132549,1.1832045 a 0.599195,0.599195 0 0 0 0,-0.84542629 0.599195,0.599195 0 0 0 -0.423747,-0.1756999 z" /></g></svg>
