<?xml version="1.0" encoding="UTF-8" standalone="no"?>
<!-- Created with Inkscape (http://www.inkscape.org/) -->

<svg
   xmlns:dc="http://purl.org/dc/elements/1.1/"
   xmlns:cc="http://creativecommons.org/ns#"
   xmlns:rdf="http://www.w3.org/1999/02/22-rdf-syntax-ns#"
   xmlns:svg="http://www.w3.org/2000/svg"
   xmlns="http://www.w3.org/2000/svg"
   xmlns:sodipodi="http://sodipodi.sourceforge.net/DTD/sodipodi-0.dtd"
   xmlns:inkscape="http://www.inkscape.org/namespaces/inkscape"
   width="1577.3586"
   height="1242.0591"
   viewBox="0 0 417.3428 328.62814"
   version="1.1"
   id="svg8"
   inkscape:version="0.92.4 (5da689c313, 2019-01-14)"
   sodipodi:docname="American_Robin-side.svg">
  <defs
     id="defs2" />
  <sodipodi:namedview
     id="base"
     pagecolor="#ffffff"
     bordercolor="#666666"
     borderopacity="1.0"
     inkscape:pageopacity="0.0"
     inkscape:pageshadow="2"
     inkscape:zoom="0.175"
     inkscape:cx="1134.7289"
     inkscape:cy="715.02663"
     inkscape:document-units="mm"
     inkscape:current-layer="layer1"
     showgrid="false"
     inkscape:pagecheckerboard="true"
     inkscape:showpageshadow="false"
     borderlayer="true"
     units="px"
     inkscape:window-width="1600"
     inkscape:window-height="837"
     inkscape:window-x="-8"
     inkscape:window-y="-8"
     inkscape:window-maximized="1"
     fit-margin-top="0"
     fit-margin-left="0"
     fit-margin-right="0"
     fit-margin-bottom="0" />
  <metadata
     id="metadata5">
    <rdf:RDF>
      <cc:Work
         rdf:about="">
        <dc:format>image/svg+xml</dc:format>
        <dc:type
           rdf:resource="http://purl.org/dc/dcmitype/StillImage" />
        <dc:title></dc:title>
      </cc:Work>
    </rdf:RDF>
  </metadata>
  <g
     inkscape:label="Layer 1"
     inkscape:groupmode="layer"
     id="layer1"
     transform="translate(-94.33795,61.998389)">
    <path
       style="opacity:1;fill:#555555;fill-opacity:1;fill-rule:evenodd;stroke:none;stroke-width:8.88312531;stroke-linecap:round;stroke-linejoin:round;stroke-miterlimit:4;stroke-dasharray:none;stroke-dashoffset:8.12598419;stroke-opacity:1;paint-order:normal"
       d="m 511.59695,205.57384 c -1.47055,-7.70303 -75.45626,-39.1739 -80.75979,-43.74498 -6.73806,-5.8075 -18.29233,-19.11462 -28.04169,-28.0416 C 389.48488,121.59943 374.52076,111.29444 361.29396,99.015731 347.1482,85.883927 334.13775,71.574015 320.91406,57.514092 309.48999,45.367587 300.2711,30.933029 287.26409,20.499201 275.50738,11.068335 258.52817,8.8568902 248.00591,-1.9340035 c -7.708,-7.9047806 -8.39185,-20.8903215 -15.70324,-29.1633175 -9.41188,-10.64976 -21.59288,-19.355008 -34.77169,-24.676645 -11.57132,-4.672529 -24.68853,-7.554974 -37.01486,-5.608244 -10.73546,1.695481 -23.74389,11.221449 -29.16332,14.581655 -3.77436,2.34022 -30.85275,-0.278187 -37.01485,2.243291 1.625784,3.55681 26.52158,6.608313 35.89323,15.70329 5.64088,5.474346 7.23316,13.990506 10.09492,21.3115957 2.28178,5.8373733 5.63378,11.6791437 5.60837,17.9465863 -0.0445,10.996287 -8.39194,20.542895 -10.09499,31.406608 -1.67925,10.711911 -1.4269,21.779785 0,32.528217 1.88586,14.205615 4.55118,28.815967 11.21669,41.501657 7.52645,14.32421 19.64762,25.8992 31.40652,37.01489 13.96576,13.20185 28.36551,27.10539 45.98827,34.77151 6.96125,3.02824 16.28515,-0.52717 22.43323,3.92594 3.89702,2.82266 6.76992,7.92294 6.79807,12.73474 0.09,15.37915 3.43119,36.67819 -4.23582,52.14589 -1.63538,3.29929 -6.56043,3.45378 -10.09499,4.48661 -3.75161,0.295 -23.84316,6.57592 -16.825,5.60825 8.15689,-1.12468 16.45075,-0.75582 24.67667,-1.12159 4.29951,-0.19119 8.60228,-0.8052 12.89908,-0.56086 3.03199,0.25498 9.9756,1.77012 14.82383,1.67088 4.34182,-0.0889 -11.7828,-3.67844 -14.964,-8.26069 -2.04827,-2.95036 -0.40232,-7.17619 -0.39239,-10.76782 0.0166,-6.21056 -0.27236,-12.16698 0.0438,-18.36952 0.42033,-8.24455 -0.31748,-17.11184 2.22079,-24.9672 1.32481,-4.09999 3.33484,-8.53007 6.92246,-10.91626 8.368,-5.56569 19.96642,-2.6419 29.72416,-5.04747 8.78214,-2.16507 17.00459,-6.29479 25.79829,-8.41244 11.59348,-2.79188 23.46144,-4.47497 35.33237,-5.60835 16.94408,-1.61775 34.08202,-3.19653 51.03569,-1.68249 5.33202,0.47617 10.66872,1.54542 15.70324,3.36495 20.83975,7.53168 34.06634,20.1095 55.69127,29.37059 8.08414,3.46212 31.20427,8.99188 29.55517,0.35359 z"
       id="path855"
       inkscape:connector-curvature="0"
       sodipodi:nodetypes="ssssssssssscssssssssssscsscsssssssssssss" />
  </g>
</svg>
