<?xml version="1.0" encoding="UTF-8" standalone="no"?>
<!-- Created with Inkscape (http://www.inkscape.org/) -->

<svg
   width="100.257mm"
   height="95.944mm"
   viewBox="0 0 100.257 95.944"
   version="1.1"
   id="svg1"
   xml:space="preserve"
   inkscape:version="1.3 (0e150ed, 2023-07-21)"
   sodipodi:docname="Bee_Hummingbird-side.svg"
   xmlns:inkscape="http://www.inkscape.org/namespaces/inkscape"
   xmlns:sodipodi="http://sodipodi.sourceforge.net/DTD/sodipodi-0.dtd"
   xmlns="http://www.w3.org/2000/svg"
   xmlns:svg="http://www.w3.org/2000/svg"><sodipodi:namedview
     id="namedview1"
     pagecolor="#505050"
     bordercolor="#ffffff"
     borderopacity="1"
     inkscape:showpageshadow="0"
     inkscape:pageopacity="0"
     inkscape:pagecheckerboard="1"
     inkscape:deskcolor="#505050"
     inkscape:document-units="mm"
     inkscape:zoom="0.91936027"
     inkscape:cx="125.63084"
     inkscape:cy="172.94635"
     inkscape:current-layer="layer1" /><defs
     id="defs1" /><g
     inkscape:label="Layer 1"
     inkscape:groupmode="layer"
     id="layer1"
     transform="translate(-61.530026,-96.952071)"><path
       style="fill:#555555;stroke-width:2.021;stroke-linejoin:round"
       d="m 117.42904,131.71986 c 11.55345,-12.04044 11.69919,-12.09662 13.76719,-14.08556 2.06801,-1.98894 18.35331,-20.101431 25.89417,-20.67463 7.54086,-0.573196 -9.77088,31.4709 -10.46853,32.10717 -0.69766,0.63627 -0.63027,2.12681 -1.97294,3.17091 -1.34267,1.04411 -0.84928,1.34738 -0.69124,2.072 0.15805,0.72463 -3.46966,2.56063 -2.98269,3.15126 0.48699,0.59064 0.16333,1.63141 -1.22466,2.26604 -1.38799,0.63463 -0.0913,0.95712 0.003,1.58585 0.0941,0.62872 -0.73873,1.86457 -1.23207,1.98871 -0.49333,0.12414 0.0726,1.66046 -0.60699,2.2662 -0.67954,0.60574 -1.24431,0.7504 -1.26319,1.40502 -0.0189,0.65462 -1.36307,2.00713 -1.93594,2.00713 -0.57287,0 -0.89891,1.73182 -1.92549,1.98045 -1.02658,0.24863 -1.77643,0.0331 -1.77643,0.0331 3.98186,7.56049 5.07929,10.78922 6.09337,13.27788 1.01407,2.48865 5.20725,6.52908 7.34457,9.30763 2.13733,2.77855 4.53537,5.88064 5.42835,6.87709 0.89298,0.99646 8.76061,7.45283 9.26647,8.33504 0.50585,0.88221 2.1649,2.04077 2.56545,3.02365 0.40054,0.98289 -0.8642,1.37519 -1.86853,0.84229 -1.00433,-0.53291 -2.40377,1.25837 -7.17346,-1.85708 -4.7697,-3.11545 -6.34737,-5.10276 -7.2629,-5.32774 -0.91553,-0.22498 -7.42273,-0.12054 -10.41258,-1.24211 -2.98985,-1.12158 -5.35871,-3.70429 -6.31653,-4.74369 -0.95783,-1.0394 -0.94614,-0.74602 -3.43375,0.006 -2.48761,0.75251 -4.59001,1.60246 -5.74185,0.60749 -1.15185,-0.99498 -0.77472,-0.31591 -0.86214,-0.008 -0.0874,0.30765 -0.19716,0.49376 0.16601,0.48241 0.36317,-0.0113 1.15812,0.23046 0.54325,0.27844 -0.61486,0.048 -1.04362,0.004 -1.35464,-0.0602 -0.31102,-0.0645 -0.35364,0.5669 -0.8301,0.55007 -0.47645,-0.0168 -0.54581,0.18912 -0.45304,0.38004 0.0928,0.19093 0.34527,0.25665 0.32729,0.43573 -0.018,0.17908 0.0569,0.31911 0.98429,0.27447 0.92742,-0.0446 1.56652,0.47265 0.10279,0.52114 -1.46374,0.0485 -2.07294,-0.0536 -2.30429,-0.20055 -0.23135,-0.14692 -1.09016,0.46895 -2.13031,-0.58977 -1.04015,-1.05871 -1.31268,-2.21498 -1.4645,-4.7752 -0.15183,-2.56021 0.39692,-1.97992 -0.45435,-3.08005 -0.85128,-1.10013 -8.65101,-4.92407 -13.087886,-12.84429 -4.43688,-7.92021 -5.788176,-16.02059 -5.109078,-23.53099 0.679099,-7.51041 1.458931,-6.88234 1.328674,-9.14616 -0.130257,-2.26382 -0.07845,-1.46147 -1.181187,-2.85698 -1.102744,-1.39551 -2.849081,-5.72279 -3.431878,-8.4893 -0.582796,-2.76652 -1.306629,-7.60325 -5.055167,-9.81556 -3.748537,-2.21232 -11.546009,-4.32058 -15.650342,-4.79043 -4.104333,-0.46985 -3.230438,-0.87248 -6.488541,-0.82086 -3.258103,0.0516 -0.645086,-0.82139 0.766183,-0.95162 1.411269,-0.13023 6.856836,-0.469 9.942251,0.19411 3.085412,0.66311 11.665217,3.25979 13.839343,3.24554 2.174126,-0.0143 8.049421,-2.2332 15.884378,-2.11779 7.83496,0.1154 12.13542,5.1537 13.35912,8.39968 1.2237,3.24598 1.20048,5.17747 0.9414,6.3791 -0.25908,1.20164 0.13622,3.16574 0.0662,5.38848 -0.0768,2.43854 -0.66711,3.84192 -0.46633,9.16814 z"
       id="path1"
       sodipodi:nodetypes="cssssssscssssscsssssssssscsccscssssssssssssssssssscsssscc" /></g></svg>
