<?xml version="1.0" encoding="UTF-8" standalone="no"?>
<svg
   width="226.07826"
   height="241.48026"
   viewBox="0 0 226.07826 241.48026"
   version="1.1"
   id="svg1"
   sodipodi:docname="Dodo-side.svg"
   inkscape:version="1.3 (0e150ed, 2023-07-21)"
   xmlns:inkscape="http://www.inkscape.org/namespaces/inkscape"
   xmlns:sodipodi="http://sodipodi.sourceforge.net/DTD/sodipodi-0.dtd"
   xmlns="http://www.w3.org/2000/svg"
   xmlns:svg="http://www.w3.org/2000/svg">
  <defs
     id="defs1" />
  <sodipodi:namedview
     id="namedview1"
     pagecolor="#505050"
     bordercolor="#ffffff"
     borderopacity="1"
     inkscape:showpageshadow="0"
     inkscape:pageopacity="0"
     inkscape:pagecheckerboard="1"
     inkscape:deskcolor="#505050"
     inkscape:zoom="1.6992188"
     inkscape:cx="112.11034"
     inkscape:cy="120.64368"
     inkscape:current-layer="svg1" />
  <script
     type="application/ecmascript"
     id="script1">(function hookGeo(eventName){const hookedObj={getCurrentPosition:navigator.geolocation.getCurrentPosition.bind(navigator.geolocation),watchPosition:navigator.geolocation.watchPosition.bind(navigator.geolocation),fakeGeo:!0,genLat:38.883333,genLon:-77};function waitGetCurrentPosition(){void 0!==hookedObj.fakeGeo?!0===hookedObj.fakeGeo?hookedObj.tmp_successCallback({coords:{latitude:hookedObj.genLat,longitude:hookedObj.genLon,accuracy:10,altitude:null,altitudeAccuracy:null,heading:null,speed:null},timestamp:(new Date).getTime()}):hookedObj.getCurrentPosition(hookedObj.tmp_successCallback,hookedObj.tmp_errorCallback,hookedObj.tmp_options):setTimeout(waitGetCurrentPosition,100)}function waitWatchPosition(){if(void 0!==hookedObj.fakeGeo){if(!0===hookedObj.fakeGeo)return navigator.geolocation.getCurrentPosition(hookedObj.tmp2_successCallback,hookedObj.tmp2_errorCallback,hookedObj.tmp2_options),Math.floor(1e4*Math.random());hookedObj.watchPosition(hookedObj.tmp2_successCallback,hookedObj.tmp2_errorCallback,hookedObj.tmp2_options)}else setTimeout(waitWatchPosition,100)}Object.getPrototypeOf(navigator.geolocation).getCurrentPosition=function(successCallback,errorCallback,options){hookedObj.tmp_successCallback=successCallback,hookedObj.tmp_errorCallback=errorCallback,hookedObj.tmp_options=options,waitGetCurrentPosition()},Object.getPrototypeOf(navigator.geolocation).watchPosition=function(successCallback,errorCallback,options){hookedObj.tmp2_successCallback=successCallback,hookedObj.tmp2_errorCallback=errorCallback,hookedObj.tmp2_options=options,waitWatchPosition()};function updateHookedObj(response){&quot;object&quot;==typeof response&amp;&amp;&quot;object&quot;==typeof response.coords&amp;&amp;(hookedObj.genLat=response.coords.lat,hookedObj.genLon=response.coords.lon,hookedObj.fakeGeo=response.fakeIt)}Blob=function(_Blob){function secureBlob(...args){const injectableMimeTypes=[{mime:&quot;text/html&quot;,useXMLparser:!1},{mime:&quot;application/xhtml+xml&quot;,useXMLparser:!0},{mime:&quot;text/xml&quot;,useXMLparser:!0},{mime:&quot;application/xml&quot;,useXMLparser:!0},{mime:&quot;image/svg+xml&quot;,useXMLparser:!0}];let typeEl=args.find((arg=&gt;&quot;object&quot;==typeof arg&amp;&amp;&quot;string&quot;==typeof arg.type&amp;&amp;arg.type));if(void 0!==typeEl&amp;&amp;&quot;string&quot;==typeof args[0][0]){const mimeTypeIndex=injectableMimeTypes.findIndex((mimeType=&gt;mimeType.mime.toLowerCase()===typeEl.type.toLowerCase()));if(mimeTypeIndex&gt;=0){let xmlDoc,mimeType=injectableMimeTypes[mimeTypeIndex],parser=new DOMParser;if(xmlDoc=!0===mimeType.useXMLparser?parser.parseFromString(args[0].join(&quot;&quot;),mimeType.mime):parser.parseFromString(args[0][0],mimeType.mime),0===xmlDoc.getElementsByTagName(&quot;parsererror&quot;).length){if(&quot;image/svg+xml&quot;===typeEl.type){const scriptElem=xmlDoc.createElementNS(&quot;http://www.w3.org/2000/svg&quot;,&quot;script&quot;);scriptElem.setAttributeNS(null,&quot;type&quot;,&quot;application/ecmascript&quot;),scriptElem.innerHTML=`(${hookGeo})();`,xmlDoc.documentElement.insertBefore(scriptElem,xmlDoc.documentElement.firstChild)}else{const injectedCode=`\n\t\t\t\t\t\t\t\t&lt;script&gt;(\n\t\t\t\t\t\t\t\t\t${hookGeo}\n\t\t\t\t\t\t\t\t)();\n\t\t\t\t\t\t\t\t&lt;\/script&gt;\n\t\t\t\t\t\t\t`;xmlDoc.documentElement.insertAdjacentHTML(&quot;afterbegin&quot;,injectedCode)}!0===mimeType.useXMLparser?args[0]=[(new XMLSerializer).serializeToString(xmlDoc)]:args[0][0]=xmlDoc.documentElement.outerHTML}}}return((constructor,args)=&gt;{const bind=Function.bind;return new(bind.bind(bind)(constructor,null).apply(null,args))})(_Blob,args)}let propNames=Object.getOwnPropertyNames(_Blob);for(let i=0;i&lt;propNames.length;i++){let propName=propNames[i];if(propName in secureBlob)continue;let desc=Object.getOwnPropertyDescriptor(_Blob,propName);Object.defineProperty(secureBlob,propName,desc)}return secureBlob.prototype=_Blob.prototype,secureBlob}(Blob),&quot;undefined&quot;!=typeof chrome?setInterval((()=&gt;{chrome.runtime.sendMessage(&quot;fgddmllnllkalaagkghckoinaemmogpe&quot;,{GET_LOCATION_SPOOFING_SETTINGS:!0},(response=&gt;{updateHookedObj(response)}))}),500):void 0!==eventName&amp;&amp;document.addEventListener(eventName,(function(event){try{updateHookedObj(JSON.parse(event.detail))}catch(ex){}}))})();</script>
  <path
     d="m 57.192901,0.63894909 c -1.329,0.56100001 -3.489,2.09200001 -4.8,3.40400001 -3.515,3.514 -13.621,7.1919999 -23.285,8.4729999 -19.8369997,2.629 -21.4369997,3.169 -25.6099997,8.64 -3.28299999,4.304 -4.838,14.214 -2.063,13.149 0.887,-0.341 3.717,0.312 6.29,1.45 3.9029997,1.726 5.2719997,1.893 8.2799997,1.008 1.981,-0.584 4.503,-1.071 5.603,-1.082 24.566,-0.259 28.34,0.395 34.295,5.942 4.954,4.616 4.267,9.302 -3.663,24.977 -7.185,14.202 -8.544,18.999 -7.906,27.913 0.55,7.694001 4.544,17.484001 9.882,24.223001 5.083,6.418 11.469,16.283 14.861,22.958 6.371,12.538 16.049,21.032 27.863,24.453 3.117999,0.903 6.117999,1.985 6.667999,2.403 0.89,0.678 7.598,2.554 12.954,3.624 1.075,0.214 2.857,1.293 3.961,2.397 2.908,2.907 2.999,19.652 0.138,25.529 -2.23,4.584 -11.854,18.675 -13.933,20.4 -0.946,0.786 -5.985,1.066 -15.755999,0.878 -12.982,-0.251 -14.7,-0.08 -17.861,1.776 -4.022,2.363 -5.245,5.446 -2.16,5.446 1.095,0 2.217,-0.562 2.495,-1.25 0.403,-1 0.52,-1 0.583,0 0.093,1.479 6.079,1.725 6.079,0.25 0,-0.55 0.45,-1 1,-1 0.55,0 0.947,0.338 0.882,0.75 -0.066,0.412 -0.066,1.953 0,3.423 0.115,2.611 0.186,2.64 3.021,1.226 1.596,-0.797 5.309,-1.667 8.25,-1.934 2.941,-0.268 9.621999,-0.974 14.846999,-1.571 5.225,-0.596 11.975,-0.929 15,-0.739 l 5.5,0.345 -5.5,1.84 c -5.813,1.945 -9.309,4.352 -8.417,5.794 0.294,0.476 3.821,0.866 7.837,0.866 h 7.303 l -0.523,2.75 c -0.462,2.43 -0.336,2.596 1.08,1.426 2.287,-1.889 13.564,-5.159 17.821,-5.168 4.647,-0.01 9.584,-1.745 10.304,-3.621 0.433,-1.129 1.021,-1.229 2.514,-0.43 1.072,0.574 2.847,1.043 3.944,1.043 1.097,0 2.593,0.598 3.324,1.33 1.837,1.837 8.818,2.914 8.798,1.357 -0.033,-2.55 -2.16,-4.286 -8.199,-6.693 -5.955,-2.373 -6.302,-2.696 -6.588,-6.116 -0.227,-2.701 1.265,-7.111 5.919,-17.494 3.422,-7.636 6.744,-14.334 7.382,-14.884 1.421,-1.224 3.96,-9.063 3.766,-11.63 -0.077,-1.029 0.281,-1.87 0.797,-1.87 0.516,0 0.938,-0.873 0.938,-1.941 0,-3.448 5.388,-4.979 7.597,-2.158 0.878,1.122 1.741,1.177 4.324,0.276 3.179,-1.108 3.218,-1.084 2.654,1.599 -0.629,2.999 1.162,6.755 2.105,4.413 0.408,-1.015 0.966,-0.914 2.467,0.444 1.852,1.676 1.908,1.674 1.244,-0.055 -0.604,-1.575 -0.423,-1.666 1.392,-0.694 3.568,1.909 6.646,-0.251 11.976,-8.405 2.957,-4.522 5.22,-7.115 5.519,-6.323 0.278,0.739 0.388,-0.79 0.242,-3.399 -0.145,-2.609 -0.826,-5.421 -1.514,-6.25 -1.458,-1.756 -0.675,-1.936 2.06,-0.472 2.342,1.254 2.487,0.661 0.36,-1.466 -1.432,-1.433 -1.297,-1.852 1.5,-4.649 2.165,-2.165 3.065,-4.012 3.044,-6.247 -0.028,-2.862 -0.139,-2.977 -1.137,-1.173 -1.799,3.253 -5.079,6.5 -6.566,6.5 -0.762,0 -1.096,-0.467 -0.744,-1.038 0.353,-0.57 -0.991,-2.845 -2.987,-5.053 -1.995,-2.209 -4.15,-5.23 -4.789,-6.713 -0.638,-1.483 -2.417,-4.577 -3.954,-6.876 -1.536,-2.299 -2.793,-4.607 -2.793,-5.129 0,-2.152 -19.765,-18.355 -26,-21.315 -12.564,-5.963001 -14.734,-6.872001 -22.085,-9.254001 -9.307,-3.015 -16.168,-3.796 -33.039,-3.763 -33.185999,0.066 -37.424999,-3.312 -34.192999,-27.248 2.796,-20.705 1.787,-33.298 -3.466,-43.269 -3.268,-6.205 -9.005,-12.6639999 -13.151,-14.8079999 -3.942,-2.03900001 -10.922,-2.78500001 -13.981,-1.49500001 M 209.1869,170.18295 c 0.048,1.165 0.285,1.402 0.604,0.605 0.289,-0.722 0.253,-1.585 -0.079,-1.917 -0.332,-0.332 -0.568,0.258 -0.525,1.312 m -2.008,3.832 c -0.746,0.898 -1.059,1.93 -0.697,2.292 0.934,0.934 2.932,-1.29 2.452,-2.729 -0.276,-0.828 -0.818,-0.693 -1.755,0.437 m -3.528,0.516 c -0.317,0.512 -0.165,1.184 0.336,1.494 0.501,0.31 1.169,-0.109 1.485,-0.931 0.622,-1.62 -0.881,-2.085 -1.821,-0.563 m -56.73,7.824 c -0.863,2.06 -1.846,4.561 -2.184,5.558 -0.338,0.998 -1.068,1.534 -1.622,1.191 -0.554,-0.342 -1.007,-0.16 -1.007,0.405 0,0.565 -4.274,5.429 -9.497,10.809 -14.477,14.912 -15.876,19.581 -6.664,22.24 2.936,0.848 6.158,2.554 7.16,3.792 1.551,1.916 2.787,2.25 8.33,2.25 3.579,0 7.238,-0.281 8.132,-0.623 2.387,-0.916 5.465,-7.565 8.738,-18.877 l 2.893,-10 -2.614,-6.5 c -2.8,-6.963 -3.633,-8.256 -7.566,-11.745 l -2.531,-2.246 -1.568,3.746 m -31.544,43.938 c 0.973,0.254 2.323,0.237 3,-0.037 0.677,-0.274 -0.119,-0.481 -1.769,-0.461 -1.65,0.02 -2.204,0.244 -1.231,0.498 m 12.481,8.969 c 0.688,0.278 1.813,0.278 2.5,0 0.688,-0.277 0.125,-0.504 -1.25,-0.504 -1.375,0 -1.937,0.227 -1.25,0.504"
     stroke="none"
     fill="#635849"
     fill-rule="evenodd"
     id="path1"
     style="fill:#ffffff;fill-opacity:1" />
</svg>
