<?xml version="1.0" encoding="UTF-8" standalone="no"?>
<!-- Created with Inkscape (http://www.inkscape.org/) -->

<svg
   width="57.387257mm"
   height="128.01521mm"
   viewBox="0 0 57.387257 128.01521"
   version="1.1"
   id="svg1"
   xml:space="preserve"
   inkscape:version="1.3 (0e150ed6c4, 2023-07-21)"
   sodipodi:docname="Emperor_Penguin-side.svg"
   xmlns:inkscape="http://www.inkscape.org/namespaces/inkscape"
   xmlns:sodipodi="http://sodipodi.sourceforge.net/DTD/sodipodi-0.dtd"
   xmlns="http://www.w3.org/2000/svg"
   xmlns:svg="http://www.w3.org/2000/svg"><sodipodi:namedview
     id="namedview1"
     pagecolor="#505050"
     bordercolor="#ffffff"
     borderopacity="1"
     inkscape:showpageshadow="0"
     inkscape:pageopacity="0"
     inkscape:pagecheckerboard="1"
     inkscape:deskcolor="#505050"
     inkscape:document-units="mm"
     inkscape:zoom="0.83024534"
     inkscape:cx="74.07449"
     inkscape:cy="178.86279"
     inkscape:window-width="1600"
     inkscape:window-height="837"
     inkscape:window-x="-8"
     inkscape:window-y="-8"
     inkscape:window-maximized="1"
     inkscape:current-layer="layer1" /><defs
     id="defs1" /><g
     inkscape:label="Layer 1"
     inkscape:groupmode="layer"
     id="layer1"
     transform="translate(-73.808497,-86.171806)"><path
       style="fill:#ffffff;stroke:none;stroke-width:20;stroke-linecap:round;stroke-linejoin:round;paint-order:markers stroke fill"
       d="m 112.78338,94.756069 c 3.49279,3.267451 13.52049,13.633161 17.23862,39.660091 3.71813,26.02693 -2.36608,34.70258 -4.84484,45.51897 -2.47875,10.81639 -4.95751,12.16843 -4.39416,18.13998 0.56336,5.97155 1.01404,6.19689 4.84484,9.91502 3.83081,3.71814 6.08422,4.95751 2.7041,5.07019 -3.38012,0.11267 2.14074,0.90136 -4.39416,0.90136 -6.5349,0 -5.29552,0 -8.22496,-2.47875 -2.92944,-2.47876 -3.15478,-2.36609 -3.26745,-1.01404 -0.11267,1.35205 -1.12671,1.12671 -1.35205,0.11267 -0.22534,-1.01404 -0.67602,0.67602 -1.23938,-0.33801 -0.56335,-1.01404 -0.78869,-1.23938 -1.23937,1.12671 -0.45069,2.36608 -0.7887,2.81676 -3.60547,2.81676 -2.81677,0 -5.633533,-0.45068 -7.548933,-1.01403 -1.915404,-0.56336 -2.929441,-1.46472 -4.281488,-0.45069 -1.35205,1.01404 -2.366084,1.69006 -1.239377,-1.1267 -3.154781,2.59142 -2.478757,1.35204 -2.704097,-2.02808 -2.704097,0.7887 -3.605464,0.11268 -4.619501,0 -1.014037,-0.11267 4.394158,-7.09825 11.154402,-3.94347 -0.901366,-2.36608 -2.478757,-4.6195 -2.253416,-6.30956 0.225343,-1.69006 -1.915401,-1.9154 -3.042108,-1.46472 -1.126707,0.45068 -1.35205,0.56335 -2.929438,-2.59143 -1.57739,-3.15478 -7.323597,-11.83042 -7.999621,-44.27959 -0.676024,-32.44916 3.15478,-36.95599 9.577009,-48.11039 1.285602,-2.22673 1.46472,-3.380123 0.225343,-5.746207 -1.239377,-2.366084 -5.408194,-8.675645 -11.717755,-9.351668 -6.309559,-0.676024 -4.281485,-1.802731 2.253413,-1.46472 6.534902,0.338013 7.246548,1.344029 12.281109,0.450683 12.490078,-2.216273 14.876468,2.175891 20.618738,7.999621 z"
       id="path1"
       sodipodi:nodetypes="sssssssssssssssccscsssscsssss" /></g></svg>
