<?xml version="1.0" encoding="UTF-8" standalone="no"?>
<!-- Created with Inkscape (http://www.inkscape.org/) -->

<svg
   xmlns:dc="http://purl.org/dc/elements/1.1/"
   xmlns:cc="http://creativecommons.org/ns#"
   xmlns:rdf="http://www.w3.org/1999/02/22-rdf-syntax-ns#"
   xmlns:svg="http://www.w3.org/2000/svg"
   xmlns="http://www.w3.org/2000/svg"
   xmlns:sodipodi="http://sodipodi.sourceforge.net/DTD/sodipodi-0.dtd"
   xmlns:inkscape="http://www.inkscape.org/namespaces/inkscape"
   width="2029.5996"
   height="2901.0898"
   viewBox="0 0 536.99821 767.58004"
   version="1.1"
   id="svg8"
   inkscape:version="0.92.4 (5da689c313, 2019-01-14)"
   sodipodi:docname="Hummingbird_Generic.svg"
   inkscape:export-filename="G:\Pictures\My Pictures\Vectors and SVGs\Hummingbird1.png"
   inkscape:export-xdpi="96"
   inkscape:export-ydpi="96">
  <defs
     id="defs2" />
  <sodipodi:namedview
     id="base"
     pagecolor="#ffffff"
     bordercolor="#666666"
     borderopacity="1.0"
     inkscape:pageopacity="0.0"
     inkscape:pageshadow="2"
     inkscape:zoom="0.175"
     inkscape:cx="1486.2434"
     inkscape:cy="1691.5224"
     inkscape:document-units="mm"
     inkscape:current-layer="layer1"
     showgrid="false"
     units="px"
     borderlayer="true"
     inkscape:showpageshadow="false"
     inkscape:pagecheckerboard="true"
     inkscape:snap-global="false"
     inkscape:window-width="1600"
     inkscape:window-height="837"
     inkscape:window-x="-8"
     inkscape:window-y="-8"
     inkscape:window-maximized="1"
     fit-margin-top="0"
     fit-margin-left="0"
     fit-margin-right="0"
     fit-margin-bottom="0" />
  <metadata
     id="metadata5">
    <rdf:RDF>
      <cc:Work
         rdf:about="">
        <dc:format>image/svg+xml</dc:format>
        <dc:type
           rdf:resource="http://purl.org/dc/dcmitype/StillImage" />
        <dc:title></dc:title>
      </cc:Work>
    </rdf:RDF>
  </metadata>
  <g
     inkscape:label="Layer 1"
     inkscape:groupmode="layer"
     id="layer1"
     transform="translate(-5.6761393,482.07908)">
    <path
       style="opacity:1;fill:#ffffff;fill-opacity:1;fill-rule:nonzero;stroke:none;stroke:none;stroke-width:5.82346535;stroke-linecap:round;stroke-linejoin:round;stroke-miterlimit:4;stroke-dasharray:none;stroke-dashoffset:0;stroke-opacity:1;paint-order:normal"
       d="m 1595.418,55.449219 c 0,0 -22.011,30.814603 -79.2403,145.273441 -57.2295,114.45879 -178.2927,475.44516 -270.7402,680.15039 -89.5481,198.28505 -121.2679,210.70165 -39.1504,527.35745 -27.3183,-40.7065 -52.7822,-89.1928 -75.3086,-148.7637 -91.1859,-241.14 -346.48846,-264.38066 -515.43748,-72.627 -37.73958,-2.1029 -107.35554,5.3743 -224.29883,13.9864 -200.30289,14.7509 -195.89977,13.1122 -369.789065,49.1699 0,0 228.917385,-4.9178 407.208985,-6.5566 107.29127,-0.9864 166.74135,-0.7884 197.08789,-7.9727 18.97711,15.0953 42.16612,46.2249 62.80078,109.8457 30.68844,94.6186 80.2461,135.3457 80.2461,135.3457 0,0 -22.44753,124.0744 32.05859,249.5781 111.59376,256.952 273.01683,352.5642 530.42573,407.4825 305.3349,65.1433 136.0818,554.5043 116.6602,622.9199 l 70.4375,-46.2227 c -23.4454,91.3518 -35.1345,172.3562 -26.4141,211.3086 64.0784,-55.2557 81.0047,-105.8549 105.6543,-213.5098 -1.974,110.0156 -3.6939,219.4387 30.8164,244.3243 25.3214,-57.588 41.6455,-124.172 46.2227,-202.5039 6.8689,50.9885 16.457,82.9648 46.2246,112.2578 60.9412,-400.5412 -36.5278,-634.0743 -72.6387,-732.9766 30.8158,39.6204 47.5818,-144.5554 -42.8886,-321.5664 -25.1317,-49.1717 -55.0128,-86.9417 -87.7168,-119.168 0.2484,-0.5589 0.4974,-1.1176 0.7402,-1.6933 43.2381,-5.6589 64.5671,-25.9227 72.6367,-55.0274 50.2926,3.6954 65.5818,-20.6125 57.2285,-63.834 38.3836,-22.6462 70.4735,-47.9898 68.2364,-88.0449 30.2437,-26.3174 61.3084,-52.4852 28.6133,-90.2461 28.2004,-36.98 80.3804,-40.9904 66.0351,-136.4707 24.8987,-24.6412 58.6708,-45.3386 33.0176,-92.4472 l -44.0235,8.8046 c 32.7919,-36.3462 101.0965,-33.6281 81.4415,-127.666 l -26.4141,13.2071 c 33.46,-36.3034 77.4621,-70.49895 83.6445,-112.25785 l -107.8554,44.02344 c 48.0613,-64.56125 97.1448,-40.00469 145.2734,-224.51563 -39.7878,26.58093 -84.26,57.84757 -129.8652,90.2461 61.9683,-102.51508 149.7462,-170.61674 180.4921,-314.76172 -29.0179,-0.28184 -85.1963,62.80923 -129.8671,99.05078 52.3791,-100.23254 117.3084,-187.91576 154.08,-303.75586 -25.8441,9.56753 -57.8358,29.38023 -101.2519,68.23437 31.1084,-78.58801 93.2423,-174.41105 77.039,-226.71484 0,0 -129.8669,101.25223 -224.5156,217.91211 -29.9426,36.90609 -51.068,68.74868 -69.7988,102.07227 32.2686,-94.87237 36.7812,-121.88282 36.7812,-121.88282 -49.5421,21.56145 -92.5564,75.76414 -136.4707,125.46485 43.1922,-105.2044 90.689,-210.84089 77.0411,-310.36133 0,0 -68.2356,48.42526 -127.6661,125.46484 33.017,-169.48713 13.2071,-261.933591 13.2071,-261.933591 z"
       transform="matrix(0.26458333,0,0,0.26458333,0,-496.75002)"
       id="path832"
       inkscape:connector-curvature="0" />
  </g>
</svg>
