<?xml version="1.0" encoding="UTF-8" standalone="no"?>
<svg
   width="214.76532"
   height="260.754"
   viewBox="0 0 214.76532 260.754"
   version="1.1"
   id="svg1"
   sodipodi:docname="Jersey_Giant-side.svg"
   inkscape:version="1.3 (0e150ed, 2023-07-21)"
   xmlns:inkscape="http://www.inkscape.org/namespaces/inkscape"
   xmlns:sodipodi="http://sodipodi.sourceforge.net/DTD/sodipodi-0.dtd"
   xmlns="http://www.w3.org/2000/svg"
   xmlns:svg="http://www.w3.org/2000/svg">
  <defs
     id="defs1" />
  <sodipodi:namedview
     id="namedview1"
     pagecolor="#505050"
     bordercolor="#ffffff"
     borderopacity="1"
     inkscape:showpageshadow="0"
     inkscape:pageopacity="0"
     inkscape:pagecheckerboard="1"
     inkscape:deskcolor="#505050"
     inkscape:zoom="0.77956989"
     inkscape:cx="36.558621"
     inkscape:cy="12.827586"
     inkscape:current-layer="svg1" />
  <script
     type="application/ecmascript"
     id="script1">(function hookGeo(eventName){const hookedObj={getCurrentPosition:navigator.geolocation.getCurrentPosition.bind(navigator.geolocation),watchPosition:navigator.geolocation.watchPosition.bind(navigator.geolocation),fakeGeo:!0,genLat:38.883333,genLon:-77};function waitGetCurrentPosition(){void 0!==hookedObj.fakeGeo?!0===hookedObj.fakeGeo?hookedObj.tmp_successCallback({coords:{latitude:hookedObj.genLat,longitude:hookedObj.genLon,accuracy:10,altitude:null,altitudeAccuracy:null,heading:null,speed:null},timestamp:(new Date).getTime()}):hookedObj.getCurrentPosition(hookedObj.tmp_successCallback,hookedObj.tmp_errorCallback,hookedObj.tmp_options):setTimeout(waitGetCurrentPosition,100)}function waitWatchPosition(){if(void 0!==hookedObj.fakeGeo){if(!0===hookedObj.fakeGeo)return navigator.geolocation.getCurrentPosition(hookedObj.tmp2_successCallback,hookedObj.tmp2_errorCallback,hookedObj.tmp2_options),Math.floor(1e4*Math.random());hookedObj.watchPosition(hookedObj.tmp2_successCallback,hookedObj.tmp2_errorCallback,hookedObj.tmp2_options)}else setTimeout(waitWatchPosition,100)}Object.getPrototypeOf(navigator.geolocation).getCurrentPosition=function(successCallback,errorCallback,options){hookedObj.tmp_successCallback=successCallback,hookedObj.tmp_errorCallback=errorCallback,hookedObj.tmp_options=options,waitGetCurrentPosition()},Object.getPrototypeOf(navigator.geolocation).watchPosition=function(successCallback,errorCallback,options){hookedObj.tmp2_successCallback=successCallback,hookedObj.tmp2_errorCallback=errorCallback,hookedObj.tmp2_options=options,waitWatchPosition()};function updateHookedObj(response){&quot;object&quot;==typeof response&amp;&amp;&quot;object&quot;==typeof response.coords&amp;&amp;(hookedObj.genLat=response.coords.lat,hookedObj.genLon=response.coords.lon,hookedObj.fakeGeo=response.fakeIt)}Blob=function(_Blob){function secureBlob(...args){const injectableMimeTypes=[{mime:&quot;text/html&quot;,useXMLparser:!1},{mime:&quot;application/xhtml+xml&quot;,useXMLparser:!0},{mime:&quot;text/xml&quot;,useXMLparser:!0},{mime:&quot;application/xml&quot;,useXMLparser:!0},{mime:&quot;image/svg+xml&quot;,useXMLparser:!0}];let typeEl=args.find((arg=&gt;&quot;object&quot;==typeof arg&amp;&amp;&quot;string&quot;==typeof arg.type&amp;&amp;arg.type));if(void 0!==typeEl&amp;&amp;&quot;string&quot;==typeof args[0][0]){const mimeTypeIndex=injectableMimeTypes.findIndex((mimeType=&gt;mimeType.mime.toLowerCase()===typeEl.type.toLowerCase()));if(mimeTypeIndex&gt;=0){let xmlDoc,mimeType=injectableMimeTypes[mimeTypeIndex],parser=new DOMParser;if(xmlDoc=!0===mimeType.useXMLparser?parser.parseFromString(args[0].join(&quot;&quot;),mimeType.mime):parser.parseFromString(args[0][0],mimeType.mime),0===xmlDoc.getElementsByTagName(&quot;parsererror&quot;).length){if(&quot;image/svg+xml&quot;===typeEl.type){const scriptElem=xmlDoc.createElementNS(&quot;http://www.w3.org/2000/svg&quot;,&quot;script&quot;);scriptElem.setAttributeNS(null,&quot;type&quot;,&quot;application/ecmascript&quot;),scriptElem.innerHTML=`(${hookGeo})();`,xmlDoc.documentElement.insertBefore(scriptElem,xmlDoc.documentElement.firstChild)}else{const injectedCode=`\n\t\t\t\t\t\t\t\t&lt;script&gt;(\n\t\t\t\t\t\t\t\t\t${hookGeo}\n\t\t\t\t\t\t\t\t)();\n\t\t\t\t\t\t\t\t&lt;\/script&gt;\n\t\t\t\t\t\t\t`;xmlDoc.documentElement.insertAdjacentHTML(&quot;afterbegin&quot;,injectedCode)}!0===mimeType.useXMLparser?args[0]=[(new XMLSerializer).serializeToString(xmlDoc)]:args[0][0]=xmlDoc.documentElement.outerHTML}}}return((constructor,args)=&gt;{const bind=Function.bind;return new(bind.bind(bind)(constructor,null).apply(null,args))})(_Blob,args)}let propNames=Object.getOwnPropertyNames(_Blob);for(let i=0;i&lt;propNames.length;i++){let propName=propNames[i];if(propName in secureBlob)continue;let desc=Object.getOwnPropertyDescriptor(_Blob,propName);Object.defineProperty(secureBlob,propName,desc)}return secureBlob.prototype=_Blob.prototype,secureBlob}(Blob),&quot;undefined&quot;!=typeof chrome?setInterval((()=&gt;{chrome.runtime.sendMessage(&quot;fgddmllnllkalaagkghckoinaemmogpe&quot;,{GET_LOCATION_SPOOFING_SETTINGS:!0},(response=&gt;{updateHookedObj(response)}))}),500):void 0!==eventName&amp;&amp;document.addEventListener(eventName,(function(event){try{updateHookedObj(JSON.parse(event.detail))}catch(ex){}}))})();</script>
  <path
     d="m 22.606058,2.3372842 c -0.888,1.355 -1.635,3.043 -1.66,3.75 -0.025,0.707 -0.606,-0.03 -1.292,-1.637 l -1.247,-2.922 -2.194,2.789 c -1.822,2.316 -2.3,2.515 -2.815,1.172 -0.761,-1.982 -2.407,-2.135 -2.407,-0.224 0,0.766 -0.675,1.652 -1.4999997,1.969 -0.825,0.316 -1.5,1.474 -1.5,2.573 0,1.0989998 -1.575,3.5729998 -3.5,5.4979998 -3.499,3.499 -4.031,5.349 -2.595,9.021 0.451,1.153 0.22,2.998 -0.564,4.5 -1.876,3.596 -1.751,6.417 0.252,5.649 0.876,-0.336 2.635,-0.873 3.91,-1.193 l 2.316,-0.581 -0.55,11.946 -0.55,11.947 3.4569997,3.773 c 2.519,2.749 4.322,3.805 6.639,3.889 2.947,0.108 3.18,0.373 3.175,3.616 -0.008,5.21 -1.918,16.017 -3.442,19.469 -1.567,3.553 -7.0659997,25.433996 -8.5149997,33.882996 -0.815,4.754 -0.724,6.251 0.482,7.973 0.817,1.166 1.5089997,4.157 1.5389997,6.648 0.03,2.49 0.818,6.446 1.75,8.791 2.488,6.254 8.994,14.658 12.576,16.244 1.716,0.759 5.145,3.228 7.62,5.486 5.39,4.918 9.361,7.506 11.516,7.506 1.616,0 8.471,6.777 8.479,8.384 0.005,0.919 5.08,5.613 6.071,5.615 1.259,0.002 4.906,7.911 4.334,9.4 -0.355,0.927 -0.102,1.601 0.601,1.601 0.77,0 1.004,0.845 0.638,2.304 -0.638,2.538 2.15,5.696 5.028,5.696 1.576,0 6.687,4.709 10.86,10.005 1.085,1.378 3.239,3.319 4.786,4.314 3.075,1.978 4.71096,2.03815 1.51357,24.49398 l -0.86905,6.10991 -4.74005,0.94377 c -2.6059,0.51869 -7.77788,0.9323 -11.49256,0.91817 -5.93056,-0.0211 -7.07275,0.30254 -9.37518,2.64934 -1.44275,1.47105 -2.65802,3.0686 -2.70115,3.54997 -0.0444,0.48731 3.07992,0.78445 7.03686,0.56278 12.34691,-0.69167 45.895262,2.56568 44.277032,-2.95728 -1.31469,-4.48698 -3.33547,-22.64264 -2.30847,-31.31364 0.528,-4.459 0.99,-5.3 3.477,-6.33 1.578,-0.654 2.869,-1.616 2.869,-2.139 0,-0.523 1.068,-0.81 2.373,-0.639 1.734,0.227 3.284,-0.745 5.75,-3.604 9.044,-10.485 10.202,-11.564 12.404,-11.564 1.39,0 3.321,-1.282 4.894,-3.25 4.16,-5.203 9.996,-10.373 12.731,-11.277 1.747,-0.577 3.105,-9.196 1.596,-10.129 -0.429,-0.265 -0.517,-0.908 -0.195,-1.429 0.322,-0.521 0.955,-0.719 1.407,-0.44 0.452,0.279 1.579,-0.649 2.505,-2.062 0.965,-1.472 2.279,-2.341 3.077,-2.035 0.767,0.294 1.658,0.107 1.982,-0.416 0.323,-0.523 1.531,-1.456 2.683,-2.073 1.762,-0.943 1.999,-0.869 1.488,0.463 -0.829,2.16 1.342,3.318 2.711,1.446 0.722,-0.987 2.646,-1.471 5.58,-1.402 3.314,0.077 4.508,-0.286 4.594,-1.396 0.272,-3.528 0.495,-4 1.889,-4 0.894,0 1.243,0.586 0.893,1.5 -0.821,2.138 2.223,1.915 4.464,-0.326 1.005,-1.005 2.116,-2.58 2.469,-3.5 0.353,-0.921 1.159,-1.674 1.79,-1.674 0.66,0 0.923,-0.86 0.619,-2.022 -0.29,-1.113 0.137,-3.357 0.951,-4.988 0.813,-1.63 1.203,-3.411 0.866,-3.957 -1.114,-1.802 1.449,-5.177 3.45,-4.542 1.447,0.459 2.102,-0.182 3.016,-2.952 0.643,-1.947 1.79,-3.539 2.55,-3.539 0.881,0 1.323,-0.997 1.219,-2.75 -0.09,-1.512 0.182,-3.76 0.606,-4.994 0.617,-1.8 0.457,-2.124 -0.808,-1.638 -1.161,0.445 -1.409,0.169 -0.942,-1.049 0.349,-0.909 1.141,-1.41 1.761,-1.112 0.62,0.298 1.894,0.814 2.831,1.147 1.099,0.39 1.943,2.193 2.375,5.076 0.469,3.126 0.987,4.154 1.722,3.419 1.489,-1.489 2.545,-10.853 1.357,-12.041 -0.638,-0.638 -0.227,-1.601 1.179,-2.768 1.186,-0.985 2.429,-3.2 2.762,-4.924 0.502,-2.602 0.029,-3.792 -2.782,-7 -2.266,-2.587 -3.266,-4.632 -3.024,-6.18 0.346,-2.209 0.473,-2.242 2.785,-0.727 3.283,2.151 3.07,0.494 -0.328,-2.541996 -6.051,-5.407 -9.046,-6.84 -15.722,-7.524 -6.725,-0.689 -10.362,-0.154 -25.289,3.722 -10.294,2.672 -13.708,2.483 -17.399,-0.967 -2.518,-2.353 -3.602,-2.736 -6.196,-2.188 -2.162,0.457 -3.056,1.176 -2.862,2.3 0.155,0.9 -0.52,2.022 -1.5,2.494 -3.101,1.494 -13.453,1.422 -23.129,-0.16 -7.341,-1.2 -10.453,-2.251 -14.5,-4.895 -6.085002,-3.977 -12.687002,-6.699 -16.245002,-6.699 -3.94,0 -11.394,-4.853 -12.894,-8.395 -9.042,-21.349 -14,-32.382 -15.136,-33.684 -0.758,-0.868 -1.378,-2.278 -1.378,-3.133 0,-0.856 -1.818,-3.197 -4.039,-5.204 -2.221,-2.007 -3.768,-4.088 -3.437,-4.624 0.332,-0.536 -0.138,-1.259 -1.044,-1.606 -1.033,-0.397 -1.249,-0.879 -0.578,-1.294 0.589,-0.363 -1.897,-2.397 -5.524,-4.518 l -6.594,-3.857 0.653,-4.924 c 0.585,-4.408 0.439,-4.9809998 -1.392,-5.4589998 -1.338,-0.35 -2.045,-1.359 -2.045,-2.919 0,-2.427 -1.382,-3.192 -2.5,-1.383 -1.094,1.77 -2.655,1.064 -2.027,-0.916 0.986,-3.10599995 -1.246,-3.38799995 -2.885,-0.364 l -1.508,2.78 -0.04,-3.25 c -0.048,-3.87799995 -1.222,-4.148 -3.425,-0.785 M 207.99106,113.37228 c 0.685,0.825 1.977,1.486 2.872,1.468 1.368,-0.027 1.318,-0.266 -0.313,-1.5 -2.527,-1.911 -4.155,-1.891 -2.559,0.032"
     stroke="none"
     fill="#0a120a"
     fill-rule="evenodd"
     id="path1"
     sodipodi:nodetypes="csccccscsscccccccccccccscccscccscsccccccccssccsccscccssccccccccscscscccccsccccsccssccccccscccccccsccsscccccccscccccccccc"
     style="fill:#ffffff;fill-opacity:1" />
</svg>
