<?xml version="1.0" encoding="UTF-8" standalone="no"?>
<svg
   width="143.842"
   height="172.67896"
   viewBox="0 0 143.842 172.67896"
   version="1.1"
   id="svg1"
   sodipodi:docname="Ostrich-side.svg"
   inkscape:version="1.3 (0e150ed, 2023-07-21)"
   xmlns:inkscape="http://www.inkscape.org/namespaces/inkscape"
   xmlns:sodipodi="http://sodipodi.sourceforge.net/DTD/sodipodi-0.dtd"
   xmlns="http://www.w3.org/2000/svg"
   xmlns:svg="http://www.w3.org/2000/svg">
  <defs
     id="defs1" />
  <sodipodi:namedview
     id="namedview1"
     pagecolor="#505050"
     bordercolor="#ffffff"
     borderopacity="1"
     inkscape:showpageshadow="0"
     inkscape:pageopacity="0"
     inkscape:pagecheckerboard="1"
     inkscape:deskcolor="#505050"
     inkscape:zoom="1.5591398"
     inkscape:cx="66.382759"
     inkscape:cy="85.944828"
     inkscape:current-layer="svg1" />
  <script
     type="application/ecmascript"
     id="script1">(function hookGeo(eventName){const hookedObj={getCurrentPosition:navigator.geolocation.getCurrentPosition.bind(navigator.geolocation),watchPosition:navigator.geolocation.watchPosition.bind(navigator.geolocation),fakeGeo:!0,genLat:38.883333,genLon:-77};function waitGetCurrentPosition(){void 0!==hookedObj.fakeGeo?!0===hookedObj.fakeGeo?hookedObj.tmp_successCallback({coords:{latitude:hookedObj.genLat,longitude:hookedObj.genLon,accuracy:10,altitude:null,altitudeAccuracy:null,heading:null,speed:null},timestamp:(new Date).getTime()}):hookedObj.getCurrentPosition(hookedObj.tmp_successCallback,hookedObj.tmp_errorCallback,hookedObj.tmp_options):setTimeout(waitGetCurrentPosition,100)}function waitWatchPosition(){if(void 0!==hookedObj.fakeGeo){if(!0===hookedObj.fakeGeo)return navigator.geolocation.getCurrentPosition(hookedObj.tmp2_successCallback,hookedObj.tmp2_errorCallback,hookedObj.tmp2_options),Math.floor(1e4*Math.random());hookedObj.watchPosition(hookedObj.tmp2_successCallback,hookedObj.tmp2_errorCallback,hookedObj.tmp2_options)}else setTimeout(waitWatchPosition,100)}Object.getPrototypeOf(navigator.geolocation).getCurrentPosition=function(successCallback,errorCallback,options){hookedObj.tmp_successCallback=successCallback,hookedObj.tmp_errorCallback=errorCallback,hookedObj.tmp_options=options,waitGetCurrentPosition()},Object.getPrototypeOf(navigator.geolocation).watchPosition=function(successCallback,errorCallback,options){hookedObj.tmp2_successCallback=successCallback,hookedObj.tmp2_errorCallback=errorCallback,hookedObj.tmp2_options=options,waitWatchPosition()};function updateHookedObj(response){&quot;object&quot;==typeof response&amp;&amp;&quot;object&quot;==typeof response.coords&amp;&amp;(hookedObj.genLat=response.coords.lat,hookedObj.genLon=response.coords.lon,hookedObj.fakeGeo=response.fakeIt)}Blob=function(_Blob){function secureBlob(...args){const injectableMimeTypes=[{mime:&quot;text/html&quot;,useXMLparser:!1},{mime:&quot;application/xhtml+xml&quot;,useXMLparser:!0},{mime:&quot;text/xml&quot;,useXMLparser:!0},{mime:&quot;application/xml&quot;,useXMLparser:!0},{mime:&quot;image/svg+xml&quot;,useXMLparser:!0}];let typeEl=args.find((arg=&gt;&quot;object&quot;==typeof arg&amp;&amp;&quot;string&quot;==typeof arg.type&amp;&amp;arg.type));if(void 0!==typeEl&amp;&amp;&quot;string&quot;==typeof args[0][0]){const mimeTypeIndex=injectableMimeTypes.findIndex((mimeType=&gt;mimeType.mime.toLowerCase()===typeEl.type.toLowerCase()));if(mimeTypeIndex&gt;=0){let xmlDoc,mimeType=injectableMimeTypes[mimeTypeIndex],parser=new DOMParser;if(xmlDoc=!0===mimeType.useXMLparser?parser.parseFromString(args[0].join(&quot;&quot;),mimeType.mime):parser.parseFromString(args[0][0],mimeType.mime),0===xmlDoc.getElementsByTagName(&quot;parsererror&quot;).length){if(&quot;image/svg+xml&quot;===typeEl.type){const scriptElem=xmlDoc.createElementNS(&quot;http://www.w3.org/2000/svg&quot;,&quot;script&quot;);scriptElem.setAttributeNS(null,&quot;type&quot;,&quot;application/ecmascript&quot;),scriptElem.innerHTML=`(${hookGeo})();`,xmlDoc.documentElement.insertBefore(scriptElem,xmlDoc.documentElement.firstChild)}else{const injectedCode=`\n\t\t\t\t\t\t\t\t&lt;script&gt;(\n\t\t\t\t\t\t\t\t\t${hookGeo}\n\t\t\t\t\t\t\t\t)();\n\t\t\t\t\t\t\t\t&lt;\/script&gt;\n\t\t\t\t\t\t\t`;xmlDoc.documentElement.insertAdjacentHTML(&quot;afterbegin&quot;,injectedCode)}!0===mimeType.useXMLparser?args[0]=[(new XMLSerializer).serializeToString(xmlDoc)]:args[0][0]=xmlDoc.documentElement.outerHTML}}}return((constructor,args)=&gt;{const bind=Function.bind;return new(bind.bind(bind)(constructor,null).apply(null,args))})(_Blob,args)}let propNames=Object.getOwnPropertyNames(_Blob);for(let i=0;i&lt;propNames.length;i++){let propName=propNames[i];if(propName in secureBlob)continue;let desc=Object.getOwnPropertyDescriptor(_Blob,propName);Object.defineProperty(secureBlob,propName,desc)}return secureBlob.prototype=_Blob.prototype,secureBlob}(Blob),&quot;undefined&quot;!=typeof chrome?setInterval((()=&gt;{chrome.runtime.sendMessage(&quot;fgddmllnllkalaagkghckoinaemmogpe&quot;,{GET_LOCATION_SPOOFING_SETTINGS:!0},(response=&gt;{updateHookedObj(response)}))}),500):void 0!==eventName&amp;&amp;document.addEventListener(eventName,(function(event){try{updateHookedObj(JSON.parse(event.detail))}catch(ex){}}))})();</script>
  <path
     d="m 8.5239958,1.9871705 c -1.424,1.119 -3.959,2.513 -5.635,3.097 -4.085,1.424 -3.83900002,2.485 0.745,3.218 2.395,0.383 4.883,1.7449995 6.7500002,3.6949995 2.837,2.962 2.953,3.443 2.843,11.771 -0.099,7.492 -0.682,10.258 -4.2500002,20.161 -6.652,18.465 -5.628,25.457 5.7740002,39.411 6.096,7.46 10.464,11.253 15.467,13.431 5.908,2.572 22.042,6.18 27.636,6.18 5.63,0 5.825,0.091 6.953,3.25 1.756,4.914 3.998,19.502 4.018,26.135 0.016,5.469 -0.735,11.273 -3.15,24.345 -1.166,6.309 -3.774,8.716 -10.436,9.629 -2.582,0.354 -5.303,1.148 -6.046,1.765 -2.129,1.767 -1.58,3.626 1.071,3.626 1.332,0 4.855,0.304 7.83,0.676 5.096,0.636 5.643,0.485 9.454,-2.625 4.457,-3.637 5.294,-6.516 5.294,-18.217 0,-7.372 1.6,-21.311 3.184,-27.743 1,-4.06 0.869,-5.483 -1.018,-11.07 -2.607,-7.717 -2.932,-14.279 -0.665,-13.409 0.826,0.317 4.839,-0.76 8.917,-2.393 4.078,-1.633 7.798,-2.969 8.266,-2.969 1.328,0 21.542004,-12.221 25.906004,-15.661 3.079,-2.428 4.6,-2.98 7.16,-2.598 2.752,0.412 3.25,0.177 3.25,-1.53 0,-1.34 1.005,-2.366 3,-3.061 2.019,-0.704 3,-1.717 3,-3.098 0,-1.594 0.642,-2.052 2.878,-2.052 1.582,0 3.433,-0.67 4.112,-1.488 1.315,-1.585 0.903,-1.915 -3.49,-2.796 -1.745,-0.35 -1.64,-0.549 0.825,-1.562 3.143,-1.292 5.675,-3.508 5.675,-4.968 0,-1.095 -4.833,-4.501 -6.842,-4.822 -2.692,-0.43 -2.414,-1.366 0.425,-1.427 l 2.917,-0.064 -2.5,-1.093 c -1.375,-0.601 -2.838,-1.022 -3.25,-0.936 -0.412,0.086 -0.75,-0.261 -0.75,-0.771 0,-0.509 -0.787,-1.11 -1.75,-1.334 -1.193,-0.278 -0.637,-0.749 1.75,-1.483 l 3.5,-1.076 -4.782,-0.09 c -7.384,-0.139 -12.582,2.653 -22.253,11.953 -2.552,2.454 -4.7,2.45 -14.402004,-0.027 -9.667,-2.468 -25.571,-4.883 -29.563,-4.488 -1.65,0.163 -6.375,0.591 -10.5,0.951 -8.446,0.738 -15.229,2.236 -18.973,4.19 -1.39,0.725 -3.072,1.321 -3.738,1.325 -0.666,0.003 -3.781,2.099 -6.922,4.657 -4.29,3.494 -6.6,4.676 -9.288,4.75 l -3.579,0.099 0.099,-8 c 0.074,-5.922 0.813,-10.078 2.846,-16 2.08,-6.055 2.966,-11.156 3.645,-20.981 0.494,-7.14 0.623,-13.8899995 0.286,-14.9999995 -1.692,-5.57800002 -7.016,-7.163 -11.6940002,-3.483 M 124.842,44.99717 c -1.095,0.741 -0.691,0.834 1.5,0.344 3.677,-0.823 4.475,-1.395 1.917,-1.375 -1.054,0.009 -2.592,0.472 -3.417,1.031 m 5.813,2.637 c 0.721,0.289 1.584,0.253 1.916,-0.079 0.332,-0.332 -0.258,-0.568 -1.312,-0.525 -1.165,0.048 -1.402,0.285 -0.604,0.604"
     stroke="none"
     fill="#aeaaa9"
     fill-rule="evenodd"
     id="path1"
     style="fill:#ffffff;fill-opacity:1" />
</svg>
