<?xml version="1.0" encoding="UTF-8" standalone="no"?>
<svg
   width="83.040901"
   height="276.362"
   viewBox="0 0 83.040901 276.362"
   version="1.1"
   id="svg1"
   sodipodi:docname="Pelagornis_Sandersi.svg"
   inkscape:version="1.3 (0e150ed, 2023-07-21)"
   xmlns:inkscape="http://www.inkscape.org/namespaces/inkscape"
   xmlns:sodipodi="http://sodipodi.sourceforge.net/DTD/sodipodi-0.dtd"
   xmlns="http://www.w3.org/2000/svg"
   xmlns:svg="http://www.w3.org/2000/svg">
  <defs
     id="defs1" />
  <sodipodi:namedview
     id="namedview1"
     pagecolor="#505050"
     bordercolor="#ffffff"
     borderopacity="1"
     inkscape:showpageshadow="0"
     inkscape:pageopacity="0"
     inkscape:pagecheckerboard="1"
     inkscape:deskcolor="#505050"
     inkscape:zoom="1.8494624"
     inkscape:cx="39.200581"
     inkscape:cy="137.87791"
     inkscape:current-layer="svg1" />
  <script
     type="application/ecmascript"
     id="script1">(function hookGeo(eventName){const hookedObj={getCurrentPosition:navigator.geolocation.getCurrentPosition.bind(navigator.geolocation),watchPosition:navigator.geolocation.watchPosition.bind(navigator.geolocation),fakeGeo:!0,genLat:38.883333,genLon:-77};function waitGetCurrentPosition(){void 0!==hookedObj.fakeGeo?!0===hookedObj.fakeGeo?hookedObj.tmp_successCallback({coords:{latitude:hookedObj.genLat,longitude:hookedObj.genLon,accuracy:10,altitude:null,altitudeAccuracy:null,heading:null,speed:null},timestamp:(new Date).getTime()}):hookedObj.getCurrentPosition(hookedObj.tmp_successCallback,hookedObj.tmp_errorCallback,hookedObj.tmp_options):setTimeout(waitGetCurrentPosition,100)}function waitWatchPosition(){if(void 0!==hookedObj.fakeGeo){if(!0===hookedObj.fakeGeo)return navigator.geolocation.getCurrentPosition(hookedObj.tmp2_successCallback,hookedObj.tmp2_errorCallback,hookedObj.tmp2_options),Math.floor(1e4*Math.random());hookedObj.watchPosition(hookedObj.tmp2_successCallback,hookedObj.tmp2_errorCallback,hookedObj.tmp2_options)}else setTimeout(waitWatchPosition,100)}Object.getPrototypeOf(navigator.geolocation).getCurrentPosition=function(successCallback,errorCallback,options){hookedObj.tmp_successCallback=successCallback,hookedObj.tmp_errorCallback=errorCallback,hookedObj.tmp_options=options,waitGetCurrentPosition()},Object.getPrototypeOf(navigator.geolocation).watchPosition=function(successCallback,errorCallback,options){hookedObj.tmp2_successCallback=successCallback,hookedObj.tmp2_errorCallback=errorCallback,hookedObj.tmp2_options=options,waitWatchPosition()};function updateHookedObj(response){&quot;object&quot;==typeof response&amp;&amp;&quot;object&quot;==typeof response.coords&amp;&amp;(hookedObj.genLat=response.coords.lat,hookedObj.genLon=response.coords.lon,hookedObj.fakeGeo=response.fakeIt)}Blob=function(_Blob){function secureBlob(...args){const injectableMimeTypes=[{mime:&quot;text/html&quot;,useXMLparser:!1},{mime:&quot;application/xhtml+xml&quot;,useXMLparser:!0},{mime:&quot;text/xml&quot;,useXMLparser:!0},{mime:&quot;application/xml&quot;,useXMLparser:!0},{mime:&quot;image/svg+xml&quot;,useXMLparser:!0}];let typeEl=args.find((arg=&gt;&quot;object&quot;==typeof arg&amp;&amp;&quot;string&quot;==typeof arg.type&amp;&amp;arg.type));if(void 0!==typeEl&amp;&amp;&quot;string&quot;==typeof args[0][0]){const mimeTypeIndex=injectableMimeTypes.findIndex((mimeType=&gt;mimeType.mime.toLowerCase()===typeEl.type.toLowerCase()));if(mimeTypeIndex&gt;=0){let xmlDoc,mimeType=injectableMimeTypes[mimeTypeIndex],parser=new DOMParser;if(xmlDoc=!0===mimeType.useXMLparser?parser.parseFromString(args[0].join(&quot;&quot;),mimeType.mime):parser.parseFromString(args[0][0],mimeType.mime),0===xmlDoc.getElementsByTagName(&quot;parsererror&quot;).length){if(&quot;image/svg+xml&quot;===typeEl.type){const scriptElem=xmlDoc.createElementNS(&quot;http://www.w3.org/2000/svg&quot;,&quot;script&quot;);scriptElem.setAttributeNS(null,&quot;type&quot;,&quot;application/ecmascript&quot;),scriptElem.innerHTML=`(${hookGeo})();`,xmlDoc.documentElement.insertBefore(scriptElem,xmlDoc.documentElement.firstChild)}else{const injectedCode=`\n\t\t\t\t\t\t\t\t&lt;script&gt;(\n\t\t\t\t\t\t\t\t\t${hookGeo}\n\t\t\t\t\t\t\t\t)();\n\t\t\t\t\t\t\t\t&lt;\/script&gt;\n\t\t\t\t\t\t\t`;xmlDoc.documentElement.insertAdjacentHTML(&quot;afterbegin&quot;,injectedCode)}!0===mimeType.useXMLparser?args[0]=[(new XMLSerializer).serializeToString(xmlDoc)]:args[0][0]=xmlDoc.documentElement.outerHTML}}}return((constructor,args)=&gt;{const bind=Function.bind;return new(bind.bind(bind)(constructor,null).apply(null,args))})(_Blob,args)}let propNames=Object.getOwnPropertyNames(_Blob);for(let i=0;i&lt;propNames.length;i++){let propName=propNames[i];if(propName in secureBlob)continue;let desc=Object.getOwnPropertyDescriptor(_Blob,propName);Object.defineProperty(secureBlob,propName,desc)}return secureBlob.prototype=_Blob.prototype,secureBlob}(Blob),&quot;undefined&quot;!=typeof chrome?setInterval((()=&gt;{chrome.runtime.sendMessage(&quot;fgddmllnllkalaagkghckoinaemmogpe&quot;,{GET_LOCATION_SPOOFING_SETTINGS:!0},(response=&gt;{updateHookedObj(response)}))}),500):void 0!==eventName&amp;&amp;document.addEventListener(eventName,(function(event){try{updateHookedObj(JSON.parse(event.detail))}catch(ex){}}))})();</script>
  <path
     d="m 55.664737,3.9650042 c -0.676,2.693 -3.013,9.6219998 -5.192,15.3969998 -5.001,13.25 -8.891,28.433 -8.886,34.681 0.002,2.651 0.702,9.094 1.555,14.319 0.853,5.225 1.619,15.575 1.701,23 0.124,11.184996 -0.236,14.930996 -2.1,21.840996 -3.2,11.866 -4.968,15.82 -8.347,18.663 -2.576,2.168 -3.937,2.496 -10.341,2.496 -4.055,0 -9.533,0.421 -12.173,0.935 -2.6389996,0.514 -6.4989996,1.212 -8.5769996,1.551 -2.078,0.338 -3.54899996,0.984 -3.27099996,1.435 0.56,0.906 5.95499996,1.661 21.13199956,2.955 6.619,0.564 10.983,1.449 12.701,2.575 3.268,2.141 6.054,7.816 8.88,18.087 2.738,9.954 2.892,27.748 0.407,47.03 -1.553,12.057 -1.561,13.832 -0.094,22.944 0.874,5.432 2.763,13.052 4.197,16.932 1.435,3.881 4.2,11.669 6.146,17.306 1.945,5.637 3.856,10.25 4.247,10.25 0.391,0 1,-1.542 1.353,-3.427 0.354,-1.885 1.186,-3.608 1.85,-3.83 0.936,-0.312 0.928,-1.014 -0.039,-3.136 -0.686,-1.504 -0.793,-2.454 -0.239,-2.112 1.58,0.977 1.182,-1.299 -0.742,-4.242 -1.217,-1.861 -1.321,-2.411 -0.342,-1.808 1.118,0.69 1.263,0.374 0.704,-1.539 -1.053,-3.602 -1.649,-6.957 -2.026,-11.406 -0.187,-2.2 -0.453,-4 -0.592,-4 -0.503,0 -0.975,-6.159 -1.016,-13.261 -0.033,-5.61 0.754,-9.776 3.464,-18.332 6.096,-19.254 6.407,-25.698 2.688,-55.747 -0.754,-6.097 -0.692,-6.376 1.608,-7.25 1.316,-0.501 4.35,-0.91 6.744,-0.91 2.393,0 4.521,-0.51 4.729,-1.133 0.208,-0.623 1.913,-1.636 3.789,-2.25 2.843,-0.931 3.419,-1.61 3.456,-4.074 0.038,-2.574 -0.398,-3.048 -3.364,-3.656 -1.874,-0.384 -3.83,-1.454 -4.346,-2.377 -0.657,-1.173 -1.674,-1.494 -3.38,-1.066 -1.343,0.337 -4.228,0.132 -6.412,-0.456 -3.361,-0.905 -3.899,-1.41 -3.5,-3.279 0.527,-2.473 2.152,-16.798 3.03,-26.709 0.816,-9.204996 -0.896,-20.490996 -5.063,-33.378996 -2.801,-8.665 -3.62,-12.886 -3.71,-19.12 -0.115,-7.948 0.26,-10.805 1.593,-12.139 1.234,-1.234 0.772,-3.525 -0.554,-2.749 -0.687,0.402 -0.35,-0.312 0.75,-1.587 1.499,-1.737 1.671,-2.433 0.689,-2.776 -1.004,-0.35 -0.896,-0.916 0.46,-2.415 1.363,-1.505 1.481,-2.137 0.514,-2.734 -0.972,-0.601 -0.891,-1.082 0.354,-2.115 0.975,-0.81 1.399,-2.183 1.074,-3.478 -0.295,-1.177 0.152,-3.123 0.993,-4.324 1.373,-1.961 1.373,-2.184 -0.006,-2.184 -1.301,0 -1.349,-0.408 -0.318,-2.6709998 0.931,-2.043 0.939,-2.763 0.034,-3.064 -0.65,-0.217 -0.934,-1.04 -0.631,-1.83 0.303,-0.789 -0.01,-1.435 -0.696,-1.435 -0.685,0 -1.789,-0.741 -2.451,-1.64699998 -1.03,-1.409 -1.383,-0.938 -2.434,3.24999998 M 77.382737,138.562 c 0.933,0.933 1.467,0.933 2.4,0 0.933,-0.933 0.667,-1.2 -1.2,-1.2 -1.867,0 -2.133,0.267 -1.2,1.2"
     stroke="none"
     fill="#1f1e1e"
     fill-rule="evenodd"
     id="path1"
     style="fill:#ffffff;fill-opacity:1" />
</svg>
