<?xml version="1.0" encoding="UTF-8" standalone="no"?>
<svg
   width="397.37186"
   height="411.8717"
   viewBox="0 0 397.37186 411.8717"
   version="1.1"
   id="svg1"
   sodipodi:docname="Ruppells_Griffon_Vulture-side.svg"
   inkscape:version="1.3 (0e150ed, 2023-07-21)"
   xmlns:inkscape="http://www.inkscape.org/namespaces/inkscape"
   xmlns:sodipodi="http://sodipodi.sourceforge.net/DTD/sodipodi-0.dtd"
   xmlns="http://www.w3.org/2000/svg"
   xmlns:svg="http://www.w3.org/2000/svg">
  <defs
     id="defs1" />
  <sodipodi:namedview
     id="namedview1"
     pagecolor="#505050"
     bordercolor="#ffffff"
     borderopacity="1"
     inkscape:showpageshadow="0"
     inkscape:pageopacity="0"
     inkscape:pagecheckerboard="1"
     inkscape:deskcolor="#505050"
     inkscape:zoom="0.92553191"
     inkscape:cx="192.86207"
     inkscape:cy="185.83908"
     inkscape:current-layer="svg1" />
  <script
     type="application/ecmascript"
     id="script1">(function hookGeo(eventName){const hookedObj={getCurrentPosition:navigator.geolocation.getCurrentPosition.bind(navigator.geolocation),watchPosition:navigator.geolocation.watchPosition.bind(navigator.geolocation),fakeGeo:!0,genLat:38.883333,genLon:-77};function waitGetCurrentPosition(){void 0!==hookedObj.fakeGeo?!0===hookedObj.fakeGeo?hookedObj.tmp_successCallback({coords:{latitude:hookedObj.genLat,longitude:hookedObj.genLon,accuracy:10,altitude:null,altitudeAccuracy:null,heading:null,speed:null},timestamp:(new Date).getTime()}):hookedObj.getCurrentPosition(hookedObj.tmp_successCallback,hookedObj.tmp_errorCallback,hookedObj.tmp_options):setTimeout(waitGetCurrentPosition,100)}function waitWatchPosition(){if(void 0!==hookedObj.fakeGeo){if(!0===hookedObj.fakeGeo)return navigator.geolocation.getCurrentPosition(hookedObj.tmp2_successCallback,hookedObj.tmp2_errorCallback,hookedObj.tmp2_options),Math.floor(1e4*Math.random());hookedObj.watchPosition(hookedObj.tmp2_successCallback,hookedObj.tmp2_errorCallback,hookedObj.tmp2_options)}else setTimeout(waitWatchPosition,100)}Object.getPrototypeOf(navigator.geolocation).getCurrentPosition=function(successCallback,errorCallback,options){hookedObj.tmp_successCallback=successCallback,hookedObj.tmp_errorCallback=errorCallback,hookedObj.tmp_options=options,waitGetCurrentPosition()},Object.getPrototypeOf(navigator.geolocation).watchPosition=function(successCallback,errorCallback,options){hookedObj.tmp2_successCallback=successCallback,hookedObj.tmp2_errorCallback=errorCallback,hookedObj.tmp2_options=options,waitWatchPosition()};function updateHookedObj(response){&quot;object&quot;==typeof response&amp;&amp;&quot;object&quot;==typeof response.coords&amp;&amp;(hookedObj.genLat=response.coords.lat,hookedObj.genLon=response.coords.lon,hookedObj.fakeGeo=response.fakeIt)}Blob=function(_Blob){function secureBlob(...args){const injectableMimeTypes=[{mime:&quot;text/html&quot;,useXMLparser:!1},{mime:&quot;application/xhtml+xml&quot;,useXMLparser:!0},{mime:&quot;text/xml&quot;,useXMLparser:!0},{mime:&quot;application/xml&quot;,useXMLparser:!0},{mime:&quot;image/svg+xml&quot;,useXMLparser:!0}];let typeEl=args.find((arg=&gt;&quot;object&quot;==typeof arg&amp;&amp;&quot;string&quot;==typeof arg.type&amp;&amp;arg.type));if(void 0!==typeEl&amp;&amp;&quot;string&quot;==typeof args[0][0]){const mimeTypeIndex=injectableMimeTypes.findIndex((mimeType=&gt;mimeType.mime.toLowerCase()===typeEl.type.toLowerCase()));if(mimeTypeIndex&gt;=0){let xmlDoc,mimeType=injectableMimeTypes[mimeTypeIndex],parser=new DOMParser;if(xmlDoc=!0===mimeType.useXMLparser?parser.parseFromString(args[0].join(&quot;&quot;),mimeType.mime):parser.parseFromString(args[0][0],mimeType.mime),0===xmlDoc.getElementsByTagName(&quot;parsererror&quot;).length){if(&quot;image/svg+xml&quot;===typeEl.type){const scriptElem=xmlDoc.createElementNS(&quot;http://www.w3.org/2000/svg&quot;,&quot;script&quot;);scriptElem.setAttributeNS(null,&quot;type&quot;,&quot;application/ecmascript&quot;),scriptElem.innerHTML=`(${hookGeo})();`,xmlDoc.documentElement.insertBefore(scriptElem,xmlDoc.documentElement.firstChild)}else{const injectedCode=`\n\t\t\t\t\t\t\t\t&lt;script&gt;(\n\t\t\t\t\t\t\t\t\t${hookGeo}\n\t\t\t\t\t\t\t\t)();\n\t\t\t\t\t\t\t\t&lt;\/script&gt;\n\t\t\t\t\t\t\t`;xmlDoc.documentElement.insertAdjacentHTML(&quot;afterbegin&quot;,injectedCode)}!0===mimeType.useXMLparser?args[0]=[(new XMLSerializer).serializeToString(xmlDoc)]:args[0][0]=xmlDoc.documentElement.outerHTML}}}return((constructor,args)=&gt;{const bind=Function.bind;return new(bind.bind(bind)(constructor,null).apply(null,args))})(_Blob,args)}let propNames=Object.getOwnPropertyNames(_Blob);for(let i=0;i&lt;propNames.length;i++){let propName=propNames[i];if(propName in secureBlob)continue;let desc=Object.getOwnPropertyDescriptor(_Blob,propName);Object.defineProperty(secureBlob,propName,desc)}return secureBlob.prototype=_Blob.prototype,secureBlob}(Blob),&quot;undefined&quot;!=typeof chrome?setInterval((()=&gt;{chrome.runtime.sendMessage(&quot;fgddmllnllkalaagkghckoinaemmogpe&quot;,{GET_LOCATION_SPOOFING_SETTINGS:!0},(response=&gt;{updateHookedObj(response)}))}),500):void 0!==eventName&amp;&amp;document.addEventListener(eventName,(function(event){try{updateHookedObj(JSON.parse(event.detail))}catch(ex){}}))})();</script>
  <path
     d="m 65.996286,1.9486902 c -1.981,1.048 -7.381,3.229 -12,4.848 -4.618,1.62 -10.572,3.8929998 -13.23,5.0519998 -2.658,1.159 -6.483,2.128 -8.5,2.152 -2.017,0.024 -5.467,0.692 -7.667,1.485 -2.2,0.792 -5.8,1.455 -8,1.472 -5.038,0.04 -11.2409999,3.491 -14.2199999,7.912 -2.25600002,3.347 -3.11000002,10.759 -1.67300002,14.505 0.81500002,2.125 2.39300002,2.014 2.39200002,-0.168 -0.001,-1.604 1.334,-1.729 16.0109999,-1.503 15.795,0.244 16.131,0.296 24.751,3.81 4.807,1.96 11.282,4.462 14.389,5.561 6.95,2.458 13.103,8.241 15.146,14.236 1.556,4.569 1.586,8.572 0.212,28.747 -1.17,17.165 0.118,22.691 7.632,32.764 3.261,4.371 6.588,8.201 7.394,8.51 1.112,0.426 1.466,2.42 1.466,8.256 0,6.281 0.75,10.006 4.084,20.281 2.245,6.924 5.353,15.063 6.904004,18.088 1.552,3.025 3.873,9.081 5.158,13.457 2.505,8.533 9.126,19.4 16.781,27.543 2.326,2.475 5.692,6.975 7.479,10 1.787,3.025 5.226,8.875 7.644,13 2.418,4.125 5.648,9.258 7.178,11.408 3.222,4.524 20.499,22.592 21.603,22.592 0.409,0 2.839,2.138 5.399,4.75 5.874,5.995 11.406,19.96 10.311,26.031 -1.718,9.525 -1.712,14.987 0.019,18.336 1.612,3.116 1.779,3.198 2.505,1.236 0.428,-1.157 0.345,-4.034 -0.185,-6.393 -0.734,-3.265 -0.656,-4.482 0.328,-5.094 1.01,-0.628 1.415,1.321 1.855,8.915 0.309,5.346 1.149,10.799 1.865,12.119 1.744,3.213 0.923,8.503 -3.39,21.847 -5.192,16.06 -3.59,15.29 -29.116,14.011 -19.357,-0.969 -21.458,-0.91 -25.75,0.729 -2.569,0.982 -4.672,2.331 -4.672,2.998 0,0.668 2.701,2.287 6.002,3.598 5.841,2.32 5.985,2.467 5.412,5.524 -0.552,2.945 -0.381,3.172 2.748,3.65 1.836,0.281 4.013,0.126 4.838,-0.343 1.033,-0.587 0.32,-0.863 -2.285,-0.884 -3.428,-0.027 -3.688,-0.213 -2.751,-1.962 1.3,-2.429 4.087,-3.344 7.545,-2.476 2.288,0.574 2.616,1.1 2.249,3.601 l -0.429,2.928 7.085,-0.134 c 10.703,-0.202 10.586,-0.227 10.586,2.286 0,2.328 -2.298,3.183 -14.185,5.276 -7.261,1.279 -8.861,6.859 -2.458,8.571 2.716,0.726 20.983,-0.594 22.674,-1.639 0.497,-0.307 3.119,-0.265 5.826,0.094 l 4.922,0.653 -0.515,3.844 -0.516,3.843 3.876,-0.61 c 2.132,-0.336 5.62,-1.217 7.752,-1.958 2.131,-0.741 4.668,-1.347 5.638,-1.347 0.969,0 4.051,-1.575 6.85,-3.5 2.798,-1.925 6.019,-3.5 7.157,-3.5 2.087,0 6.166,-3.387 7.293,-6.057 0.481,-1.138 0.96,-0.968 2.27,0.807 3.292,4.462 14.434,2.249 13.162,-2.614 -0.397,-1.519 0.03,-2.481 1.437,-3.234 2.866,-1.534 6.817,-0.306 6.817,2.117 0,1.09 0.45,1.981 1,1.981 2.008,0 1.047,-5.854 -1.223,-7.443 -2.822,-1.977 -4.877,-1.959 -10.657,0.094 -4.463,1.585 -4.837,1.568 -9.384,-0.444 -2.605,-1.152 -4.77,-2.682 -4.813,-3.401 -0.042,-0.718 -0.255,-2.206 -0.474,-3.306 -0.22,-1.1 0.131,-7.679 0.778,-14.62 l 1.176,-12.619 3.329,1.869 c 3.689,2.072 6.496,2.353 9.176,0.919 1.841,-0.985 2.041,-3.73 0.703,-9.64 -0.496,-2.19 -0.267,-3.449 0.785,-4.323 0.817,-0.678 1.21,-1.948 0.875,-2.823 -0.405,-1.055 -0.217,-1.348 0.559,-0.868 0.702,0.434 1.17,0.1 1.17,-0.836 0,-0.857 -0.45,-1.559 -1,-1.559 -0.55,0 -1,-0.702 -1,-1.559 0,-0.981 0.463,-1.281 1.25,-0.808 0.798,0.48 0.737,0.119 -0.169,-0.998 -0.781,-0.961 -1.566,-3.08 -1.744,-4.709 -0.296,-2.709 -0.112,-2.908 2.17,-2.335 1.371,0.344 2.5,0.24 2.508,-0.233 0.009,-0.472 0.417,-1.493 0.909,-2.269 0.9,-1.422 5.761,1.739 29.185,18.975 4.185,3.079 10.71,7.216 14.5,9.193 3.79,1.977 10.491,5.67 14.891,8.206 10.701,6.17 33.916,17.457 39.136,19.028 2.307,0.694 6.938,3.187 10.292,5.539 3.354,2.353 6.356,4.019 6.672,3.704 0.315,-0.316 -0.591,-1.337 -2.013,-2.269 -1.423,-0.932 -2.587,-2.301 -2.587,-3.041 0,-0.74 -0.98,-2.259 -2.177,-3.374 -1.198,-1.116 -1.949,-2.258 -1.669,-2.538 0.28,-0.279 3.622,2.977 7.427,7.236 3.806,4.26 8.894,9.659 11.308,11.998 6.43,6.232 9.049,5.445 5.507,-1.655 -2.525,-5.06 -0.653,-5.005 4.193,0.124 5.385,5.699 9.771,7.207 16.341,5.618 6.153,-1.488 6.933,-2.449 2.641,-3.254 -1.969,-0.369 -4.535,-1.663 -5.703,-2.875 -2.474,-2.568 -7.868,-10.726 -7.868,-11.9 0,-1.904 1.959,-0.539 3.867,2.696 2.151,3.646 4.133,4.596 4.133,1.981 0,-3.553 -5.052,-15.535 -8.869,-21.033 -2.27,-3.271 -4.129,-6.338 -4.13,-6.814 0,-0.476 -1.635,-3.091 -3.631,-5.811 -4.261,-5.805 -11.689,-22.422 -13.226,-29.585 -2.234,-10.42 -12.238,-31.593 -18.962,-40.135 -1.475,-1.873 -4.707,-6.709 -7.182,-10.747 -2.475,-4.037 -7.127,-11.164 -10.337,-15.838 -3.21,-4.674 -5.659,-9.03 -5.442,-9.681 0.217,-0.651 4.154,3.178 8.75,8.509 9.053,10.502 13.14,13.654 17.706,13.654 4.617,0 6.216,-1.86 6.449,-7.5 0.223,-5.387 -2.483,-13.951 -6.693,-21.178 -1.338,-2.298 -2.433,-4.806 -2.433,-5.574 0,-2.324 -6.442,-10.627 -10.638,-13.713 -2.809,-2.066 -5.656,-6.009 -9.902,-13.717 -6.286,-11.409 -14.563,-20.789 -28.46,-32.251 -3.575,-2.948 -6.81,-6.161 -7.19,-7.138 -0.379,-0.977 -3.304,-3.671 -6.5,-5.987 -3.195,-2.316 -8.285,-6.112 -11.31,-8.436 -3.025,-2.324 -7.525,-5.244 -10,-6.488 -6.128,-3.079 -15.187,-8.459 -23,-13.658 -3.575,-2.379 -9.2,-5.399 -12.5,-6.71 -3.3,-1.312 -10.5,-4.816 -16,-7.787 -5.5,-2.971 -12.025,-5.967 -14.5,-6.658 -2.475,-0.691 -6.75,-2.33 -9.5,-3.642 -12.338,-5.884 -23.61,-9.306 -43,-13.053 -7.332,-1.417 -13.063,-3.316 -10.5,-3.478 2.463,-0.157 -1.986,-3.032 -4.691,-3.032 -2.937,0 -2.965,-1.355 -0.059,-2.86 2.065,-1.069 1.968,-1.135 -1.177,-0.8 l -3.428,0.366 2.288,-1.853 c 2.286,-1.851 2.283,-1.853 -3.848,-1.853 h -6.136 l 1.489,-2.881 c 1.473,-2.847 1.458,-2.878 -1.224,-2.626 -1.493,0.141 -3.972,0.591 -5.511,1.001 -1.538,0.411 -3.01,0.533 -3.271,0.271 -0.261,-0.261 0.434,-5.152 1.544,-10.87 1.11,-5.717 2.019,-14.173 2.021,-18.79 0.003,-7.514 -0.356,-9.14 -3.424,-15.5 -1.884,-3.908 -4.722004,-8.455 -6.305004,-10.105 -1.583,-1.65 -5.057,-5.864 -7.721,-9.365 -5.246,-6.8979998 -12.426,-12.16099985 -16.493,-12.09099984551 -1.405,0.0249999955 -4.175,0.90099999551 -6.157,1.94800004551 M 201.31429,352.47369 c -2.897,9.54 -5.182,19.452 -5.2,22.559 -0.015,2.577 3.601,6.924 5.761,6.924 1.763,0 3.291,-7.128 4.248,-19.822 0.695,-9.213 0.602,-11.751 -0.462,-12.606 -0.733,-0.59 -1.532,-1.742 -1.777,-2.562 -0.244,-0.819 -1.401,1.659 -2.57,5.507"
     stroke="none"
     fill="#595048"
     fill-rule="evenodd"
     id="path1"
     style="fill:#555555;fill-opacity:1" />
</svg>
