<?xml version="1.0" encoding="UTF-8" standalone="no"?>
<!-- Created with Inkscape (http://www.inkscape.org/) -->

<svg
   xmlns:dc="http://purl.org/dc/elements/1.1/"
   xmlns:cc="http://creativecommons.org/ns#"
   xmlns:rdf="http://www.w3.org/1999/02/22-rdf-syntax-ns#"
   xmlns:svg="http://www.w3.org/2000/svg"
   xmlns="http://www.w3.org/2000/svg"
   xmlns:sodipodi="http://sodipodi.sourceforge.net/DTD/sodipodi-0.dtd"
   xmlns:inkscape="http://www.inkscape.org/namespaces/inkscape"
   width="2841.7695"
   height="2156.2249"
   viewBox="0 0 751.88484 570.50117"
   version="1.1"
   id="svg8"
   inkscape:version="0.92.4 (5da689c313, 2019-01-14)"
   sodipodi:docname="Turkey_Vulture-side.svg">
  <defs
     id="defs2" />
  <sodipodi:namedview
     id="base"
     pagecolor="#ffffff"
     bordercolor="#666666"
     borderopacity="1.0"
     inkscape:pageopacity="0.0"
     inkscape:pageshadow="2"
     inkscape:zoom="0.175"
     inkscape:cx="707.44657"
     inkscape:cy="1608.0098"
     inkscape:document-units="mm"
     inkscape:current-layer="layer1"
     showgrid="false"
     inkscape:pagecheckerboard="true"
     inkscape:showpageshadow="false"
     borderlayer="true"
     units="px"
     inkscape:window-width="1600"
     inkscape:window-height="837"
     inkscape:window-x="-8"
     inkscape:window-y="-8"
     inkscape:window-maximized="1"
     inkscape:snap-global="false"
     fit-margin-top="0"
     fit-margin-left="0"
     fit-margin-right="0"
     fit-margin-bottom="0" />
  <metadata
     id="metadata5">
    <rdf:RDF>
      <cc:Work
         rdf:about="">
        <dc:format>image/svg+xml</dc:format>
        <dc:type
           rdf:resource="http://purl.org/dc/dcmitype/StillImage" />
        <dc:title />
      </cc:Work>
    </rdf:RDF>
  </metadata>
  <g
     inkscape:label="Layer 1"
     inkscape:groupmode="layer"
     id="layer1"
     transform="translate(-16.638747,297.71389)">
    <path
       style="opacity:1;fill:#555555;fill-opacity:1;fill-rule:evenodd;stroke:none;stroke-width:10.27205467;stroke-linecap:round;stroke-linejoin:round;stroke-miterlimit:4;stroke-dasharray:none;stroke-dashoffset:8.12598419;stroke-opacity:1;paint-order:normal"
       d="m 142.46999,-296.21147 c -10.97954,-2.78998 -23.0838,-1.41515 -33.93579,1.83577 -16.273844,4.87514 -31.246313,14.48301 -44.022461,25.68011 -14.256498,12.49449 -24.513407,29.05039 -34.85131,44.94025 -4.922926,7.56678 -11.7191,14.88701 -12.84004,23.8444 -0.626141,5.00347 0.311841,10.91327 3.66893,14.67581 3.477723,3.89774 15.551133,9.93243 12.783509,5.50217 -3.009826,-4.81796 -2.56423,-6.37266 -2.289482,-9.92709 0.368047,-4.76144 4.461702,-6.8837 7.848273,-10.25089 4.774318,-4.74699 8.999987,-11.46741 15.59118,-12.84007 10.894451,-2.26885 20.979376,8.76531 32.10017,9.17114 7.489535,0.27331 17.860931,-10.82476 22.011231,-4.58434 3.28708,4.94247 -8.993707,8.83952 -10.089121,14.6733 -0.985294,5.24732 5.129401,10.45574 3.669071,15.59116 -0.94598,3.32665 -6.49015,3.98427 -7.335421,7.33793 -0.780028,3.09481 3.701116,6.12418 2.75099,9.17107 -1.165509,3.73759 -10.096891,3.53387 -9.17098,7.3379 0.737275,3.02903 8.756886,-1.25661 9.17098,1.83324 0.544892,4.06582 -11.204918,1.40731 -11.00675,5.50469 0.205682,4.25273 11.813077,0.32796 11.92211,4.58427 0.154197,6.01934 -15.191823,1.46185 -16.5064,7.33791 -1.940146,8.67231 12.743979,12.62368 17.42434,20.17798 5.412381,8.73581 5.381321,20.504992 11.922181,28.43124 4.91103,5.951221 14.92231,6.458906 19.26008,12.84005 2.46087,3.620104 -0.45655,9.86421 2.75366,12.84005 4.97767,4.614266 15.37611,-2.048381 20.17547,2.75108 4.79996,4.800061 -2.68866,16.117211 2.75099,20.17805 3.22274,2.40586 8.12633,-3.157415 11.92468,-1.83577 5.51617,1.919362 9.3835,7.580175 11.92227,12.84009 6.18329,12.810766 1.41505,28.8737675 6.42006,42.18912 5.99772,15.956352 15.76255,30.758069 27.5133,43.10706 9.82419,10.32434 20.61296,24.211322 34.85386,24.76223 3.56231,0.137807 5.63213,-5.071745 9.17103,-5.50212 4.12735,-0.501939 7.83274,2.916217 11.92227,3.66635 9.34097,1.713392 21.10967,-4.212704 28.43124,1.83577 12.17653,10.059236 5.94073,31.24037 11.92211,45.85814 4.40858,10.77402 14.42047,19.01829 17.42696,30.26445 3.632,13.58594 0.9402,28.15754 0,42.18912 -1.07241,16.00462 5.47133,36.92598 -6.42005,47.69133 -6.57657,5.95382 -18.46174,-2.61787 -26.59795,0.91785 -2.77566,1.20621 -3.39491,6.33125 -6.42003,6.41999 -3.67963,0.10794 -4.84053,-5.95802 -8.25336,-7.33784 -6.80806,-2.75253 -14.89505,-2.73083 -22.01119,-0.91792 -3.45505,0.88021 -5.61976,5.82192 -9.17103,5.50468 -3.23712,-0.28918 -4.29562,-5.27701 -7.338,-6.42004 -4.57939,-1.72049 -9.97339,-1.34857 -14.67576,0 -2.77166,0.79487 -4.59921,3.67499 -7.33542,4.58443 -3.49373,1.16122 -7.63664,-0.56442 -11.00675,0.91778 -4.95108,2.17751 -14.31795,6.15764 -11.92227,11.00691 3.16103,6.39848 14.08935,-5.03861 21.09341,-3.66903 2.83046,0.55347 4.5429,3.87295 7.33784,4.58439 14.84026,3.77754 35.30823,-13.85084 45.85803,-2.75108 1.90754,2.00698 -3.14769,6.61437 -0.91778,8.25577 4.29956,3.16484 9.33453,-6.39977 14.67325,-6.42005 6.98459,-0.0265 12.35388,7.20956 19.26011,8.2532 11.55098,1.74554 23.17797,-3.28552 34.85381,-3.66893 15.59475,-0.5121 31.21359,2.99727 46.77346,1.83578 6.51736,-0.4865 14.47467,0.78203 19.26011,-3.66906 3.4753,-3.23249 4.76512,-9.14 3.6689,-13.7579 -0.85023,-3.58164 -5.97579,-4.83328 -7.33783,-8.2532 -3.62151,-9.09321 -1.04718,-19.56218 -0.91794,-29.34916 0.21026,-15.92218 -12.35598,-42.66546 2.75366,-47.69126 7.2051,-2.39658 7.54025,20.02771 14.67325,17.42438 10.91299,-3.98291 -10.24276,-29.37016 0,-34.85128 1.94363,-1.04008 3.54431,4.68188 5.50221,3.66891 9.77895,-5.05941 -9.70692,-30.13012 0.91785,-33.01798 11.13255,-3.02588 7.04703,31.69585 18.34226,29.34907 6.05322,-1.25766 -2.88898,-15.80974 2.75099,-18.34232 7.65811,-3.43881 12.80711,15.08534 21.09587,13.75548 3.86568,-0.62021 3.49209,-8.4378 7.33793,-9.17105 7.2636,-1.38488 12.61764,14.25567 19.26011,11.00676 3.88376,-1.89959 -2.08725,-11.01745 1.83321,-12.84007 7.84596,-3.64759 15.49189,19.44677 22.01123,13.75799 5.05224,-4.40859 -12.98394,-13.59264 -8.25336,-18.34474 16.99364,-17.07096 42.64802,23.57732 66.03366,29.34909 22.60606,5.57936 48.16536,-4.26297 69.70243,4.58676 11.22587,4.61279 19.43045,14.79328 27.51586,23.84447 12.59804,14.10283 14.85231,39.0227 32.10016,46.77589 4.49591,2.02099 10.01088,-3.43512 14.67342,-1.83562 9.4065,3.22693 11.67152,24.27061 21.09571,21.09571 6.43296,-2.16719 -3.57706,-17.72143 2.75108,-20.17793 8.90337,-3.45617 14.70003,24.48733 22.01124,18.34232 10.79804,-9.07566 -27.74628,-24.24662 -21.0933,-36.68458 2.16744,-4.05209 11.77829,3.23041 13.75546,-0.91785 2.73693,-5.74229 -15.19583,-10.80604 -11.00447,-15.59113 4.77536,-5.45182 13.19223,14.05216 19.26011,10.08892 7.44057,-4.85982 0.31702,-17.97551 -1.83558,-26.59794 -6.89462,-27.61697 -19.63695,-53.90084 -34.85128,-77.95821 -14.83469,-23.457076 -32.24529,-46.189393 -54.11142,-63.28252 -12.38712,-9.683221 -31.61157,-9.46055 -42.18912,-21.0933 -9.70179,-10.6696195 -7.72388,-28.2699759 -15.59117,-40.35597 -15.56696,-23.914506 -37.44118,-43.766143 -60.53144,-60.5314 -31.64222,-22.97462 -68.48211,-38.10325 -104.5563,-53.19352 -34.78257,-14.54997 -70.97424,-25.68864 -107.30484,-35.76913 -36.52218,-10.13365 -73.30251,-20.61232 -110.97634,-24.76478 -5.77315,-0.63632 -13.45647,4.24148 -17.42434,0 -3.13935,-3.35583 3.69286,-10.09251 0.91794,-13.75543 -3.58469,-4.73181 -13.51236,0.79378 -17.42696,-3.66895 -2.62837,-2.9964 1.09636,-8.48271 -0.91778,-11.92218 -1.11396,-1.90227 -4.24895,-1.85544 -5.50224,-3.66895 -2.31921,-3.3559 0.44119,-9.38503 -2.75112,-11.92471 -3.82824,-3.0456 -11.30425,3.54452 -14.67582,0 -4.21916,-4.43558 1.9846,-12.31417 0.91794,-18.34226 -1.50375,-8.4983 -4.46553,-17.29765 -10.08892,-23.8444 -6.08124,-7.07977 -14.79902,-12.37728 -23.84453,-14.67581 z m 214.61984,429.79876 c 4.89911,-4.59334 15.5679,-3.65446 20.10519,1.2966 6.42837,7.01459 -3.24074,19.38153 -0.64957,28.53654 1.19208,4.21179 5.95509,6.80908 7.13484,11.02434 4.0801,14.57824 -0.63825,30.27272 -1.29914,45.39672 -0.32141,7.35529 3.4862,16.45152 -1.29644,22.04884 -4.91398,5.75104 -14.90993,6.97734 -22.16915,4.85007 -4.97876,-1.45899 -8.75174,-6.33336 -11.00449,-11.00688 -4.86552,-10.09394 -4.19122,-22.20337 -3.79179,-33.40164 0.46249,-12.96641 3.36748,-25.8488 7.13484,-38.26446 1.43394,-4.72567 4.84282,-8.77995 5.83571,-13.61754 1.1301,-5.50609 -4.10045,-13.01806 0,-16.86259 z"
       id="path826"
       inkscape:connector-curvature="0"
       sodipodi:nodetypes="sssssssssssssssssssssssssssssssssssssssssssssssssssssssssssssssssssssssssssssssssssssssssssssssssssssssssssssssssssss" />
  </g>
</svg>
