<?xml version="1.0" encoding="UTF-8" standalone="no"?>
<!-- Created with Inkscape (http://www.inkscape.org/) -->

<svg
   width="73.716507mm"
   height="272.36386mm"
   viewBox="0 0 73.716507 272.36386"
   version="1.1"
   id="svg1"
   xml:space="preserve"
   inkscape:version="1.3 (0e150ed, 2023-07-21)"
   sodipodi:docname="Wandering_Albatross-top.svg"
   xmlns:inkscape="http://www.inkscape.org/namespaces/inkscape"
   xmlns:sodipodi="http://sodipodi.sourceforge.net/DTD/sodipodi-0.dtd"
   xmlns="http://www.w3.org/2000/svg"
   xmlns:svg="http://www.w3.org/2000/svg"><sodipodi:namedview
     id="namedview1"
     pagecolor="#505050"
     bordercolor="#ffffff"
     borderopacity="1"
     inkscape:showpageshadow="0"
     inkscape:pageopacity="0"
     inkscape:pagecheckerboard="1"
     inkscape:deskcolor="#505050"
     inkscape:document-units="mm"
     inkscape:zoom="0.45968013"
     inkscape:cx="95.718733"
     inkscape:cy="487.29537"
     inkscape:current-layer="layer1" /><defs
     id="defs1" /><g
     inkscape:label="Layer 1"
     inkscape:groupmode="layer"
     id="layer1"
     transform="translate(-68.077088,-12.20437)"><path
       id="path1"
       style="fill:#555555;fill-opacity:1"
       d="m 70.692219,148.87253 c 0.362442,0.0507 1.653379,0.3191 5.292985,0.71532 1.319997,0.14369 3.730692,0.63699 5.375382,1.02113 1.550198,0.36207 3.944397,0.42471 6.405811,0.46351 0.575523,0.009 1.930409,0.19593 4.8519,0.2961 l 5.832715,0.19999 2.367298,1.77457 c 1.30196,0.97604 2.698,2.14588 3.10214,2.59984 1.02111,1.147 2.45819,4.30741 3.468,7.62538 0.4687,1.54 1.27932,4.15017 1.80093,5.80016 2.02231,6.39712 3.39617,14.48455 3.39617,19.99207 0,8.49032 -1.55947,26.6639 -3.05459,35.59989 -0.79472,4.74983 -0.54725,8.34877 1.27951,18.60817 1.74488,9.79959 1.75841,9.84723 5.28236,18.79988 4.0953,10.40419 5.16633,13.33717 6.61097,18.10019 0.68395,2.255 1.38726,4.09949 1.56269,4.09949 0.17542,0 0.31884,-1.07985 0.31884,-2.39985 0,-1.33334 0.17776,-2.39986 0.39998,-2.39986 0.22,0 0.40318,0.22472 0.40618,0.49972 0.004,0.34292 0.12145,0.31748 0.37362,-0.0811 0.20225,-0.31964 0.2612,-1.11454 0.13074,-1.76682 -0.20904,-1.04521 -0.14674,-1.15089 0.52607,-0.88935 1.8619,0.7238 1.87782,0.54511 0.28577,-3.26699 -1.00741,-2.41213 -1.02344,-3.55661 -0.0357,-2.56883 0.26033,0.26033 0.7069,0.47335 0.9927,0.47335 0.32672,0 -0.11111,-1.17481 -1.17977,-3.16414 -1.62467,-3.02438 -1.82758,-4.33802 -0.49971,-3.23598 1.19727,0.99365 1.06404,0.0288 -0.3607,-2.60915 -1.65275,-3.06008 -1.74971,-3.54295 -0.63924,-3.1905 1.10902,0.35199 1.01192,-0.005 -0.59996,-2.20038 -0.77,-1.04895 -1.39992,-2.03239 -1.39992,-2.1854 0,-0.15298 0.55577,-0.15592 1.23507,-0.007 l 1.23507,0.2713 -0.71779,-1.13946 c -0.39468,-0.62672 -1.04042,-1.56875 -1.43505,-2.09341 -0.83306,-1.10759 -1.02646,-2.51526 -0.2372,-1.726 0.264,0.264 0.70648,0.48008 0.9834,0.48008 0.33929,0 0.18267,-0.63905 -0.48007,-1.95854 -1.15352,-2.2966 -1.20574,-2.73809 -0.3452,-2.91248 0.54605,-0.11066 0.51309,-0.28817 -0.22893,-1.22939 -0.70903,-0.89937 -0.75252,-1.09967 -0.23822,-1.09967 0.88042,0 0.78308,-0.6252 -0.2465,-1.5844 -0.73685,-0.68647 -0.7685,-0.81597 -0.19999,-0.81597 0.73771,0 0.90967,-0.60767 0.28164,-0.9958 -0.21663,-0.13389 -0.37263,-0.63987 -0.34623,-1.12397 0.0264,-0.48409 -0.0853,-1.19475 -0.24857,-1.57975 -0.18889,-0.44531 -0.12029,-0.70021 0.18862,-0.70021 0.26852,0 0.3818,-0.26985 0.25373,-0.60358 -0.12737,-0.33191 -0.049,-1.08247 0.17364,-1.66812 0.22266,-0.58564 0.47985,-2.51894 0.57205,-4.29638 0.10944,-2.11067 0.53574,-4.27284 1.22835,-6.23217 0.58327,-1.65 1.09618,-3.1798 1.13998,-3.3998 0.0438,-0.22 0.67125,-2.28972 1.39423,-4.59972 2.11777,-6.7664 2.36235,-7.62565 3.19361,-11.20035 0.61837,-2.65924 1.40262,-11.79039 1.35702,-15.80006 -0.0218,-1.91092 -0.66161,-12.61485 -0.75654,-13.3997 -0.80863,-6.68583 -1.10083,-11.32204 -2.38229,-17.80047 -0.17188,-0.86895 -0.56502,-1.54087 -0.49712,-1.60817 0.0679,-0.0673 1.65331,-0.53126 3.5233,-1.03095 3.53916,-0.94572 5.61336,-1.09676 8.02121,-0.58394 1.24879,0.26596 1.47586,0.18839 1.87276,-0.63717 0.24843,-0.51676 0.46414,-1.45651 0.47904,-2.08876 0.0579,-2.86623 0.0269,-5.73319 0.0269,-8.5998 0,-0.66714 -0.21579,-1.68659 -0.47956,-2.26549 -0.41362,-0.90782 -0.64754,-1.0164 -1.70015,-0.79013 -2.61611,0.56236 -4.9748,0.65739 -5.76864,0.23254 -2.0493,-1.13301 -6.55162,-0.21314 -5.47926,-3.55379 0.56161,-1.59756 1.64065,-11.80581 2.22519,-17.26354 0.23156,-2.16199 0.82111,-19.44907 0.35399,-24.009907 -0.53685,-5.24155 -2.57789,-13.09257 -4.71135,-18.12396 -1.9798,-4.66905 -3.89985,-14.05456 -4.14806,-20.27628 -0.0571,-1.43 -0.23384,-2.80452 -0.39326,-3.05459 -0.15943,-0.25007 -0.0222,-0.67691 0.30541,-0.94878 0.66788,-0.5543 0.80352,-1.59629 0.20774,-1.59629 -0.21337,0 0.071,-0.67516 0.632,-1.50016 0.85193,-1.25285 0.91599,-1.52134 0.38809,-1.62936 -0.85304,-0.17455 -0.82093,-0.30587 0.6196,-2.55075 1.39456,-2.17323 1.30008,-2.77331 -0.27388,-1.74201 -0.57595,0.37738 -1.12207,0.61116 -1.21337,0.51986 -0.0913,-0.0913 0.5547,-1.17148 1.43506,-2.40088 1.93779,-2.70611 2.04011,-3.34489 0.40049,-2.49701 -1.75054,0.90524 -1.48196,0.17828 1.02526,-2.77709 2.11033,-2.48754 2.22248,-3.37197 0.25321,-1.99264 -1.81171,1.26899 -1.70572,0.27247 0.28061,-2.64274 2.62423,-3.85143 2.78579,-5.23387 0.33744,-2.88819 -1.44104,1.38061 -1.22836,0.77707 1.34773,-3.81837 1.06086,-1.89248 1.86645,-3.50376 1.78955,-3.58066 -0.0769,-0.0769 -0.8163,0.31918 -1.64279,0.88005 -2.11526,1.43544 -2.39438,1.27576 -1.18753,-0.68007 1.33235,-2.15921 2.67525,-5.15475 2.42363,-5.40638 -0.10614,-0.10613 -0.83085,0.18351 -1.61024,0.64337 -0.77939,0.45985 -1.41697,0.7802 -1.41697,0.7121 0,-0.0681 0.34509,-1.12686 0.76688,-2.35283 0.4218,-1.22598 0.66176,-2.33443 0.5333,-2.4629 -0.50617,-0.50616 -0.94234,-0.17182 -1.60662,1.23145 l -0.6935,1.46503 -0.19999,-2.27273 c -0.11,-1.24997 -0.37996,-2.24925 -0.59996,-2.22105 -0.22,0.0282 -0.63626,0.88642 -0.92501,1.90737 -1.61763,5.71957 -4.96149,15.47088 -6.87813,20.05666 -1.57177,3.76064 -2.75159,7.56589 -4.40128,14.19965 -0.71123,2.86 -1.42687,5.38017 -1.5906,5.60017 -0.47619,0.63987 -1.69604,8.8468 -1.71514,11.53987 -0.01,1.35306 0.19952,3.36414 0.46457,4.46898 0.26505,1.10484 0.6425,3.62509 0.83922,5.60017 0.19671,1.97508 0.7183,5.48075 1.15911,7.79074 1.16457,6.10289 1.90512,22.760947 1.26142,28.381207 -0.71483,6.2414 -2.18722,12.62486 -4.47932,19.41897 -0.22265,0.66 -0.54083,1.73986 -0.70693,2.39986 -0.63147,2.50919 -2.91771,6.40998 -4.73459,8.07806 -3.131078,2.87463 -3.954528,3.12795 -9.993189,3.07785 -2.914994,-0.0242 -5.299935,0.0184 -5.299935,0.0946 0,0 -0.801802,6.5e-4 -1.232186,0.0383 -0.616703,0.0539 -2.523578,-0.0438 -5.367923,0.76219 -1.099998,0.31172 -3.628834,0.7482 -5.619295,0.97048 -1.990462,0.22228 -4.150175,0.56308 -4.799707,0.75706 -0.538554,0.16084 -1.886079,0.57771 -1.889346,0.68706 -0.0047,0.15897 1.560689,0.69044 2.61512,0.8381 z"
       sodipodi:nodetypes="sssssccsssssssssssccsccsssssssscccssssssssssssssscsscscsssssscssssssssssssssssssssssssssssssssscssssssssssssssscssssss" /></g></svg>
