<?xml version="1.0" encoding="UTF-8" standalone="no"?>
<!-- Created with Inkscape (http://www.inkscape.org/) -->

<svg
   xmlns:dc="http://purl.org/dc/elements/1.1/"
   xmlns:cc="http://creativecommons.org/ns#"
   xmlns:rdf="http://www.w3.org/1999/02/22-rdf-syntax-ns#"
   xmlns:svg="http://www.w3.org/2000/svg"
   xmlns="http://www.w3.org/2000/svg"
   xmlns:sodipodi="http://sodipodi.sourceforge.net/DTD/sodipodi-0.dtd"
   xmlns:inkscape="http://www.inkscape.org/namespaces/inkscape"
   width="1857.6796"
   height="2891.2898"
   viewBox="0 0 491.51104 764.98711"
   version="1.1"
   id="svg8"
   inkscape:version="0.92.4 (5da689c313, 2019-01-14)"
   sodipodi:docname="Human_Heart-front.svg"
   inkscape:export-filename="G:\Pictures\My Pictures\Vectors and SVGs\Human heart1.png"
   inkscape:export-xdpi="96"
   inkscape:export-ydpi="96">
  <defs
     id="defs2" />
  <sodipodi:namedview
     id="base"
     pagecolor="#ffffff"
     bordercolor="#666666"
     borderopacity="1.0"
     inkscape:pageopacity="0.0"
     inkscape:pageshadow="2"
     inkscape:zoom="0.12374369"
     inkscape:cx="-19.270609"
     inkscape:cy="1237.0796"
     inkscape:document-units="mm"
     inkscape:current-layer="layer1"
     showgrid="false"
     inkscape:showpageshadow="false"
     borderlayer="true"
     inkscape:pagecheckerboard="true"
     units="px"
     inkscape:window-width="1600"
     inkscape:window-height="837"
     inkscape:window-x="-8"
     inkscape:window-y="-8"
     inkscape:window-maximized="1"
     inkscape:snap-global="false"
     fit-margin-top="0"
     fit-margin-left="0"
     fit-margin-right="0"
     fit-margin-bottom="0"
     showguides="false" />
  <metadata
     id="metadata5">
    <rdf:RDF>
      <cc:Work
         rdf:about="">
        <dc:format>image/svg+xml</dc:format>
        <dc:type
           rdf:resource="http://purl.org/dc/dcmitype/StillImage" />
        <dc:title></dc:title>
      </cc:Work>
    </rdf:RDF>
  </metadata>
  <g
     inkscape:label="Layer 1"
     inkscape:groupmode="layer"
     id="layer1"
     transform="translate(-18.827857,482.36847)">
    <path
       style="opacity:1;fill:#ffffff;fill-opacity:1;fill-rule:nonzero;stroke:none;stroke:none;stroke-width:4.08642817;stroke-linecap:round;stroke-linejoin:round;stroke-miterlimit:4;stroke-dasharray:none;stroke-dashoffset:0;stroke-opacity:1;paint-order:normal"
       d="m 1177.7188,54.355469 c 0,0 51.0063,264.404651 -99.5723,222.957031 C 950.94932,242.30073 983.97461,55.912109 983.97461,55.912109 L 879.29883,88.279297 c 0,0 65.69908,200.668713 6.36719,220.474613 -59.33197,19.80589 -79.20704,-197.76758 -79.20704,-197.76758 l -107.42773,40.36914 c 0,0 107.01532,122.21574 38.55273,224.52344 C 689.16471,448.23443 583.12703,624.13711 578.13086,818.52734 486.20892,731.59865 456.53189,687.18248 458.40039,381.64453 343.87637,314.30167 255.96228,338.91718 199.32031,455.79688 c -1.06118,61.15268 22.92004,441.7037 -9.24804,532.90234 -27.90774,79.12008 -114.056603,104.64188 -101.837895,256.11328 -0.581703,2.7884 -1.10711,5.5978 -1.568359,8.4297 -27.426293,168.3845 -25.865632,432.2803 66.298824,473.248 3.70713,1.6479 7.4131,3.3197 11.11914,4.9981 14.72216,115.4844 53.11364,243.8489 116.54688,374.6445 22.32303,194.4206 54.51291,460.1834 40.91211,552.8867 -19.82192,135.1065 -117.66315,233.9042 61.27539,245.7481 178.93863,11.8437 156.26545,59.5135 176.94922,-377.0645 0.28027,-5.9158 0.60961,-11.9586 0.97265,-18.084 46.80769,49.8552 97.83993,98.3658 153.22657,144.8497 627.4046,526.5565 995.908,334.3848 1162.9375,-539.3926 61.0371,-319.302 42.2103,-574.6536 -28.3066,-753.086 30.1324,-56.8435 47.1868,-129.2442 43.8046,-220.9746 -9.079,-246.23551 -240.4533,-285.22012 -389.0371,-195.71677 44.7658,-32.38887 96.6084,-61.18038 143.834,-90.75 113.3435,-70.96827 193.2133,-30.07255 254.1035,-54.32227 31.8977,-65.2035 43.4941,-121.6699 -6.1484,-188.05859 -53.2046,-5.90052 -201.4038,-9.45848 -287.6191,5.03711 -34.4524,5.79254 -64.9139,12.36293 -91.9688,19.44922 C 1391.8557,387.92667 1256.4133,413.49193 1269.668,254.55469 1283.1066,93.412754 1320.7266,71.203125 1320.7266,71.203125 Z M 1036.6367,618.29102 c 87.7205,-0.0934 186.2955,75.2797 225.4199,153.52539 -23.1615,7.73414 -51.4089,-0.87101 -111.3457,-38.14258 -74.4698,-46.30889 -153.17786,-60.38485 -221.25778,-60.4375 -0.68691,0.92535 -1.37031,1.86511 -2.04687,2.8164 -2.67539,3.76179 -5.2672,7.72902 -7.77344,11.9043 2.50552,-4.17633 5.09847,-8.14247 7.77344,-11.9043 0.6771,-0.95221 1.35937,-1.89028 2.04687,-2.8164 28.89469,-38.92344 66.89048,-54.90241 107.18358,-54.94531 z m -117.12108,69.85937 c -0.53305,0.8904 -1.06087,1.79363 -1.58593,2.70313 0.52487,-0.90971 1.05306,-1.81255 1.58593,-2.70313 z m -2.06835,3.54297 c -0.46676,0.81759 -0.93037,1.64361 -1.39063,2.47656 0.46028,-0.8335 0.92384,-1.65844 1.39063,-2.47656 z m -2.00391,3.59766 c -0.45889,0.84266 -0.91495,1.68862 -1.36719,2.54687 0.45188,-0.85809 0.90866,-1.70436 1.36719,-2.54687 z m -1.77734,3.33593 c -0.48471,0.92916 -0.96844,1.86123 -1.44532,2.8086 0.47701,-0.94821 0.96046,-1.87861 1.44532,-2.8086 z m -3.18946,6.34766 c -0.35814,0.74367 -0.70909,1.5033 -1.0625,2.25781 0.35317,-0.75441 0.70461,-1.51422 1.0625,-2.25781 z m -1.83398,3.91016 c -0.32709,0.71267 -0.64977,1.43599 -0.97266,2.1582 0.32282,-0.72239 0.64565,-1.44534 0.97266,-2.1582 z m -1.85742,4.15625 c -0.29532,0.67672 -0.58726,1.35995 -0.87891,2.04492 0.29162,-0.68516 0.58363,-1.36799 0.87891,-2.04492 z m -1.83399,4.3164 c -0.26312,0.63497 -0.52515,1.27019 -0.78515,1.91211 0.25986,-0.64174 0.52218,-1.27729 0.78515,-1.91211 z m -1.80859,4.48828 c -0.23463,0.59718 -0.47116,1.18991 -0.70313,1.79297 0.23195,-0.60309 0.46853,-1.19575 0.70313,-1.79297 z m -3.85938,10.44727 c -0.18791,0.54678 -0.36773,1.09284 -0.55078,1.63867 0.1831,-0.54599 0.36282,-1.09174 0.55078,-1.63867 z m -1.47851,4.45898 c -0.16655,0.51873 -0.33195,1.03683 -0.49414,1.55469 0.16209,-0.51755 0.32769,-1.03627 0.49414,-1.55469 z m -1.48828,4.81641 c -0.11172,0.37657 -0.22846,0.75475 -0.33789,1.13086 0.10947,-0.37626 0.22612,-0.75414 0.33789,-1.13086 z m -1.52149,5.35156 c -0.11254,0.41748 -0.21643,0.83311 -0.32617,1.25 0.10971,-0.41675 0.21366,-0.83266 0.32617,-1.25 z m -1.125,4.37305 c -0.1222,0.4939 -0.24107,0.9874 -0.35937,1.48047 0.11835,-0.49324 0.23711,-0.9864 0.35937,-1.48047 z m -1.01953,4.31641 c -0.11991,0.53161 -0.24201,1.06312 -0.35742,1.59374 0.1154,-0.53051 0.23752,-1.06224 0.35742,-1.59374 z m -1.11719,5.24218 c -0.0335,0.16829 -0.0705,0.33767 -0.10351,0.50586 0.033,-0.16805 0.07,-0.33771 0.10351,-0.50586 z M 890.66406,765.5 c -0.0881,0.5023 -0.17169,1.00252 -0.25586,1.50391 0.0842,-0.50123 0.16772,-1.00177 0.25586,-1.50391 z m -0.69726,4.24023 c -0.0882,0.57253 -0.17479,1.14549 -0.25782,1.7168 0.0831,-0.5716 0.16957,-1.14398 0.25782,-1.7168 z m -0.58203,4.06446 c -0.0841,0.63039 -0.17211,1.26172 -0.25,1.89062 0.0779,-0.62892 0.16585,-1.26021 0.25,-1.89062 z m -0.6836,5.68945 c -0.0582,0.55669 -0.10675,1.11052 -0.16015,1.66602 0.0534,-0.55534 0.1019,-1.10949 0.16015,-1.66602 z m -0.375,4.00391 c -0.0574,0.68046 -0.10997,1.36041 -0.16015,2.03906 0.0503,-0.67897 0.10272,-1.35829 0.16015,-2.03906 z m -0.30469,4.15625 c -0.0402,0.63553 -0.0813,1.27037 -0.11523,1.90429 0.034,-0.63366 0.075,-1.26902 0.11523,-1.90429 z m -0.23437,4.53711 c -0.0348,0.86534 -0.0646,1.72949 -0.0879,2.59179 0.0234,-0.86259 0.053,-1.72616 0.0879,-2.59179 z m -0.14258,5.01953 c -0.0104,0.70993 -0.0129,1.41716 -0.0156,2.125 0.003,-0.70755 0.005,-1.41536 0.0156,-2.125 z m -0.0156,3.95898 c 0.004,0.71574 0.01,1.43097 0.0215,2.14453 -0.0116,-0.71363 -0.0177,-1.42873 -0.0215,-2.14453 z m 0.0625,3.93164 c 0.0185,0.72777 0.034,1.45615 0.0605,2.18164 -0.0264,-0.72565 -0.0421,-1.4537 -0.0605,-2.18164 z m 0.21484,5.60352 c 0.04,0.74109 0.0904,1.47813 0.13867,2.2168 -0.0481,-0.73841 -0.0988,-1.47597 -0.13867,-2.2168 z m 0.25,3.86133 c 0.0567,0.76963 0.12001,1.53772 0.18555,2.30468 -0.0655,-0.76705 -0.12892,-1.53497 -0.18555,-2.30468 z m 0.30273,3.63086 c 0.0781,0.84635 0.15743,1.69207 0.2461,2.53515 -0.0885,-0.84294 -0.16816,-1.68893 -0.2461,-2.53515 z m 0.33204,3.29882 c 0.19702,1.80609 0.41729,3.60561 0.6621,5.39649 -0.24461,-1.79117 -0.46529,-3.59011 -0.6621,-5.39649 z m 0.76171,6.13868 c 0.11978,0.85249 0.24852,1.70177 0.37891,2.55078 -0.13028,-0.84903 -0.25924,-1.69828 -0.37891,-2.55078 z m 0.55079,3.6582 c 0.13871,0.87096 0.2819,1.74016 0.43164,2.60742 -0.14963,-0.86734 -0.29304,-1.73639 -0.43164,-2.60742 z m 0.56054,3.3418 c 0.5457,3.09303 1.16015,6.16366 1.8418,9.20898 -0.68131,-3.04584 -1.29646,-6.11542 -1.8418,-9.20898 z m 1.86328,9.31054 c 0.23721,1.05729 0.48325,2.11064 0.73633,3.16211 -0.25285,-1.0512 -0.49934,-2.1051 -0.73633,-3.16211 z m 0.75391,3.23828 c 7.74563,32.1286 22.83648,61.53482 41.48437,87.77539 46.06088,5.92441 83.01056,17.60734 88.20316,39.50782 2.1002,8.85813 -2.2755,23.13659 -11.3809,41.2266 C 963.52471,976.08344 910.41593,918.30402 893.28125,847.18359 Z m -148.0957,412.43751 c 7.64235,13.1038 14.86889,25.368 21.71875,36.8887 -0.23671,-0.028 -0.47058,-0.06 -0.70703,-0.088 -6.23932,-11.0497 -13.29884,-23.333 -21.01172,-36.8008 z"
       transform="matrix(0.26458333,0,0,0.26458333,0,-496.75002)"
       id="path845"
       inkscape:connector-curvature="0" />
  </g>
</svg>
