<?xml version="1.0" encoding="UTF-8" standalone="no"?>
<!-- Created with Inkscape (http://www.inkscape.org/) -->

<svg
   xmlns:dc="http://purl.org/dc/elements/1.1/"
   xmlns:cc="http://creativecommons.org/ns#"
   xmlns:rdf="http://www.w3.org/1999/02/22-rdf-syntax-ns#"
   xmlns:svg="http://www.w3.org/2000/svg"
   xmlns="http://www.w3.org/2000/svg"
   xmlns:sodipodi="http://sodipodi.sourceforge.net/DTD/sodipodi-0.dtd"
   xmlns:inkscape="http://www.inkscape.org/namespaces/inkscape"
   width="2603.5427"
   height="1614.0099"
   viewBox="0 0 688.854 427.04013"
   version="1.1"
   id="svg1721"
   sodipodi:docname="Human_Hand_Closed-top.svg"
   inkscape:version="0.92.4 (5da689c313, 2019-01-14)"
   inkscape:export-filename="G:\Pictures\My Pictures\Vectors and SVGs\Hand2.png"
   inkscape:export-xdpi="96"
   inkscape:export-ydpi="96">
  <defs
     id="defs1715" />
  <sodipodi:namedview
     id="base"
     pagecolor="#ffffff"
     bordercolor="#666666"
     borderopacity="1.0"
     inkscape:pageopacity="0.0"
     inkscape:pageshadow="2"
     inkscape:zoom="0.12374369"
     inkscape:cx="334.63381"
     inkscape:cy="823.2705"
     inkscape:document-units="mm"
     inkscape:current-layer="layer1"
     showgrid="false"
     inkscape:pagecheckerboard="true"
     inkscape:showpageshadow="false"
     borderlayer="true"
     units="px"
     inkscape:snap-global="false"
     inkscape:window-width="1366"
     inkscape:window-height="713"
     inkscape:window-x="0"
     inkscape:window-y="0"
     inkscape:window-maximized="1"
     fit-margin-top="0"
     fit-margin-left="0"
     fit-margin-right="0"
     fit-margin-bottom="0" />
  <metadata
     id="metadata1718">
    <rdf:RDF>
      <cc:Work
         rdf:about="">
        <dc:format>image/svg+xml</dc:format>
        <dc:type
           rdf:resource="http://purl.org/dc/dcmitype/StillImage" />
        <dc:title></dc:title>
      </cc:Work>
    </rdf:RDF>
  </metadata>
  <g
     inkscape:label="Layer 1"
     inkscape:groupmode="layer"
     id="layer1"
     transform="translate(-13.685029,302.42376)">
    <path
       style="opacity:1;fill:#555555;fill-opacity:1;fill-rule:nonzero;stroke:none;stroke-width:6.11988544;stroke-linecap:round;stroke-linejoin:round;stroke-miterlimit:4;stroke-dasharray:none;stroke-dashoffset:0;stroke-opacity:1;paint-order:markers fill stroke"
       d="m 13.685105,-138.8205 c -0.01889,7.06324 3.466759,13.95715 9.812838,19.15851 6.346081,5.20136 15.52037,8.80544 27.231929,9.80715 6.235092,0.5333 15.887536,0.88204 27.428817,1.11519 -4.479171,0.69996 -8.255005,1.47664 -11.051005,2.37038 -7.893651,2.52333 -13.792851,6.06137 -17.593241,10.42625 -3.800391,4.364884 -5.375574,9.73074 -4.268473,14.903476 2.2142,10.345499 13.669624,19.016715 32.761824,23.692617 9.769489,2.392653 26.325136,3.827489 46.374946,4.861719 20.0498,1.034229 43.47454,1.614249 66.39853,2.076873 22.92399,0.462624 45.34735,0.807482 63.34134,1.365806 17.99402,0.558323 31.94286,1.470712 36.37867,2.56831 11.31211,2.799159 39.86977,6.27552 66.18357,10.897526 13.15688,2.311029 25.68868,4.895559 34.86454,7.698766 4.58787,1.401604 8.34247,2.876365 10.79312,4.266909 2.45065,1.390624 3.16328,2.647897 3.17294,2.720261 0.31702,2.37617 -0.64635,6.868821 -3.37963,12.1548256 -2.73331,5.285978 -7.11184,11.4134634 -13.04624,17.5916773 -11.86881,12.3564121 -29.93966,24.9307401 -53.56987,32.1892501 -24.84437,7.63147 -44.6306,23.164554 -55.23433,39.078236 -5.30193,7.956849 -8.36221,16.048585 -8.30234,23.540168 0.0598,7.49156 3.61845,14.38131 10.68875,18.54305 3.98068,2.34313 9.09489,2.65799 14.99081,2.26963 5.89592,-0.38836 12.6287,-1.62137 19.68976,-3.19722 14.12211,-3.1517 29.58447,-7.6987 41.19386,-9.85521 24.27935,-4.51004 40.22132,-13.846909 78.40091,-30.455509 38.25274,-16.640449 34.82234,-14.666959 87.14403,-54.003939 52.21161,-39.254096 100.04891,-68.988632 109.98915,-75.329769 -0.34761,0.221748 0.0852,-0.03188 0.79322,-0.183462 0.70802,-0.1515 1.75112,-0.31361 3.05718,-0.464052 2.61215,-0.300779 6.28883,-0.563245 10.87686,-0.780812 9.17609,-0.435134 22.02008,-0.699797 37.792,-0.855266 a 3.0602486,3.0602486 0 0 0 2.96727,-2.444274 c 14.50732,-70.653037 16.13014,-141.069587 8.41912,-223.367257 a 3.0602486,3.0602486 0 0 0 -3.71088,-2.70163 c -15.49064,3.44506 -27.37771,5.26521 -34.27542,5.09995 -48.38872,-1.15951 -127.67358,-28.47107 -205.05208,-28.36106 -83.24551,0.11835 -99.509,3.69864 -124.96136,7.84188 -12.39618,2.0179 -53.11537,6.26306 -93.51783,11.1461 -20.20122,2.44153 -40.37406,5.0514 -57.0642,7.65432 -16.69015,2.60289 -29.68649,5.07664 -36.47064,7.72716 -6.52801,2.5505 -11.09606,6.02678 -13.70356,10.15597 -2.6075,4.1292 -3.06198,8.9226 -1.55908,13.15477 1.53951,4.33522 4.87888,8.06876 9.54826,10.80037 -4.76705,0.43453 -9.53036,0.86963 -13.97486,1.31154 -23.2108,2.30775 -41.228023,4.58806 -49.640381,7.09155 -16.254481,4.83732 -25.217918,15.32763 -26.18755,26.26093 -0.969629,10.93332 6.279345,21.63849 19.590535,26.19893 1.26328,0.43281 2.820451,0.74824 4.513422,1.01854 -10.195801,1.24346 -18.825456,2.48947 -24.859467,3.7207 -21.496779,4.38637 -32.941313,16.65862 -32.975764,29.52017 z"
       id="path839"
       inkscape:connector-curvature="0" />
  </g>
</svg>
