<?xml version="1.0" encoding="UTF-8" standalone="no"?>
<!-- Created with Inkscape (http://www.inkscape.org/) -->

<svg
   xmlns:dc="http://purl.org/dc/elements/1.1/"
   xmlns:cc="http://creativecommons.org/ns#"
   xmlns:rdf="http://www.w3.org/1999/02/22-rdf-syntax-ns#"
   xmlns:svg="http://www.w3.org/2000/svg"
   xmlns="http://www.w3.org/2000/svg"
   xmlns:sodipodi="http://sodipodi.sourceforge.net/DTD/sodipodi-0.dtd"
   xmlns:inkscape="http://www.inkscape.org/namespaces/inkscape"
   width="296.52335"
   height="1250.7179"
   viewBox="0 0 78.455134 330.91912"
   version="1.1"
   id="svg8"
   inkscape:version="0.92.4 (5da689c313, 2019-01-14)"
   sodipodi:docname="Human_Female-side.svg">
  <defs
     id="defs2">
    <inkscape:path-effect
       effect="mirror_symmetry"
       start_point="1500,0"
       end_point="1500,3000"
       center_point="1500,1500"
       id="path-effect865"
       is_visible="true"
       mode="vertical"
       discard_orig_path="false"
       fuse_paths="false"
       oposite_fuse="false" />
    <inkscape:path-effect
       effect="mirror_symmetry"
       start_point="396.875,-496.75002"
       end_point="396.875,296.99998"
       center_point="396.875,-99.87502"
       id="path-effect854"
       is_visible="true"
       mode="vertical"
       discard_orig_path="false"
       fuse_paths="false"
       oposite_fuse="false" />
    <inkscape:path-effect
       effect="mirror_symmetry"
       start_point="396.875,-496.75002"
       end_point="396.875,296.99998"
       center_point="396.875,-99.87502"
       id="path-effect843"
       is_visible="true"
       mode="vertical"
       discard_orig_path="false"
       fuse_paths="false"
       oposite_fuse="false" />
    <inkscape:path-effect
       oposite_fuse="false"
       fuse_paths="false"
       discard_orig_path="false"
       mode="vertical"
       is_visible="true"
       id="path-effect865-5"
       center_point="1500,1500"
       end_point="1500,3000"
       start_point="1500,0"
       effect="mirror_symmetry" />
    <inkscape:path-effect
       oposite_fuse="false"
       fuse_paths="false"
       discard_orig_path="false"
       mode="vertical"
       is_visible="true"
       id="path-effect854-9"
       center_point="396.875,-99.87502"
       end_point="396.875,296.99998"
       start_point="396.875,-496.75002"
       effect="mirror_symmetry" />
    <inkscape:path-effect
       oposite_fuse="false"
       fuse_paths="false"
       discard_orig_path="false"
       mode="vertical"
       is_visible="true"
       id="path-effect843-3"
       center_point="396.875,-99.87502"
       end_point="396.875,296.99998"
       start_point="396.875,-496.75002"
       effect="mirror_symmetry" />
  </defs>
  <sodipodi:namedview
     id="base"
     pagecolor="#ffffff"
     bordercolor="#666666"
     borderopacity="1.0"
     inkscape:pageopacity="0.0"
     inkscape:pageshadow="2"
     inkscape:zoom="0.36639732"
     inkscape:cx="237.1931"
     inkscape:cy="589.71426"
     inkscape:document-units="mm"
     inkscape:current-layer="layer1"
     showgrid="false"
     inkscape:pagecheckerboard="true"
     inkscape:showpageshadow="false"
     borderlayer="true"
     units="px"
     showguides="true"
     inkscape:guide-bbox="true"
     inkscape:snap-page="true"
     inkscape:snap-object-midpoints="true"
     inkscape:snap-global="false"
     inkscape:window-width="1600"
     inkscape:window-height="837"
     inkscape:window-x="-8"
     inkscape:window-y="-8"
     inkscape:window-maximized="1"
     fit-margin-top="0"
     fit-margin-left="0"
     fit-margin-right="0"
     fit-margin-bottom="0" />
  <metadata
     id="metadata5">
    <rdf:RDF>
      <cc:Work
         rdf:about="">
        <dc:format>image/svg+xml</dc:format>
        <dc:type
           rdf:resource="http://purl.org/dc/dcmitype/StillImage" />
        <dc:title></dc:title>
      </cc:Work>
    </rdf:RDF>
  </metadata>
  <g
     inkscape:label="Layer 1"
     inkscape:groupmode="layer"
     id="layer1"
     transform="translate(-22.833908,37.221752)">
    <path
       style="fill:#ffffff;fill-opacity:1;stroke:none;stroke:none;stroke-width:0.21241377px;stroke-linecap:butt;stroke-linejoin:miter;stroke-opacity:1"
       d="m 58.737784,-37.218439 c -8.443926,0.140389 -16.14412,4.69549 -14.581085,6.045801 -2.809536,3.736204 -4.304367,8.190109 -3.614136,10.480234 0.255369,1.266891 0.9416,1.426341 0.762476,2.811632 -0.179197,1.385275 -2.901951,3.166212 -4.589474,5.40786 -1.687519,2.241652 -1.095424,3.3672149 0.31897,3.4768912 1.414411,0.1096774 1.218469,0.064196 1.657115,0.9346695 0.438662,0.8704714 -0.601561,1.9457421 0.03304,2.8618292 0.634565,0.9160748 -0.225885,0.60584 -0.277037,1.3622911 -0.05126,0.756445 1.030937,1.9966646 0.600453,3.10391141 -0.43051,1.1072468 -1.445137,3.06637269 0.216035,4.98977099 1.661145,1.9233959 3.139267,1.718813 6.121413,2.1933905 2.982118,0.4745751 4.273162,6.2820261 5.013914,9.1986401 -1.205749,0.377964 -1.879366,0.660217 -2.181953,1.138631 -0.30257,0.478414 0.779425,1.718015 1.460779,3.413352 -2.992215,7.645912 -3.229238,11.080696 -11.630941,22.546422 -8.366371,11.417497 -3.33156,17.346183 -1.172939,21.654331 2.158639,4.308148 2.130721,7.81281 2.194659,14.480056 -2.149518,6.466752 -4.629934,20.211834 -6.81082,27.454866 -2.180884,7.24302 -2.470048,8.91528 -3.785056,13.97174 -1.315038,5.05646 -5.363047,11.78022 -5.559087,13.88278 -0.196008,2.10256 -0.01008,2.99872 0.312613,6.01085 0.322639,3.01212 1.12,5.26554 2.507913,6.65452 1.38791,1.38901 5.77364,4.54817 7.531358,2.34779 0.14349,7.44799 1.087254,27.18993 0.104833,48.61485 -0.940865,20.51856 -8.055128,74.63586 -7.315321,75.76536 0.739818,1.12948 10.444546,1.9927 14.823172,2.48374 4.378611,0.49104 5.936028,-3.05901 8.087328,-1.8725 1.649379,0.90928 4.899497,1.04956 8.328147,0.58139 -0.77968,3.20707 -3.179338,4.2268 -6.769516,6.47787 -5.500731,3.44901 -7.428619,3.99012 -9.838486,4.40711 -2.310162,0.39974 -4.899498,1.74103 -5.303655,3.38158 -0.377613,1.5328 -1.177394,4.65112 1.265708,4.65112 v 6.1e-4 c 3.312284,0.004 15.504258,0.002 21.446549,10e-4 5.942295,-2.9e-4 16.812295,-2.2e-4 17.536952,-6.1e-4 0.72467,-4.3e-4 0.869343,-8.17597 0.579482,-8.90065 -0.28987,-0.72466 0.289861,-3.91299 0,-6.37686 -0.164301,-1.39654 -0.6073,-1.63176 -0.802507,-2.86434 2.904999,-0.68327 6.65863,-1.9927 10.020845,-1.76325 5.63961,0.38489 14.357907,0.40356 15.688585,-1.42771 1.33067,-1.83131 -5.46191,-30.92704 -8.116561,-46.19972 -2.966677,-17.06782 -4.711594,-48.50245 -4.616795,-66.40659 0.09485,-17.90415 1.619494,-22.49058 0.464478,-36.6751 -1.155022,-14.18453 -5.394379,-22.69915 -5.587679,-25.691637 -0.193301,-2.992461 -2.369772,-3.551914 -1.834394,-9.02836 0.535391,-5.476422 -1.422622,-3.670076 -1.08208,-8.211866 0.340541,-4.541778 -1.47349,-2.416175 -1.026801,-5.696969 0.446652,-3.280795 -0.592219,-8.663917 0.09213,-10.05007 0.275768,2.515609 0.995598,3.832661 1.967187,4.721639 2.304027,2.108106 4.724256,2.069006 6.034999,2.111426 3.749213,0.121235 5.080716,-14.943517 4.672708,-22.343107 C 91.193289,35.162091 86.878333,28.518995 82.272247,15.773657 77.66615,3.0283147 79.672249,-1.8408824 79.916196,-17.307644 c 0.243972,-15.466764 -9.156667,-18.861095 -18.543421,-19.804048 -0.880005,-0.08841 -1.761479,-0.121272 -2.634991,-0.106751 z"
       id="path841"
       inkscape:connector-curvature="0" />
  </g>
</svg>
