<?xml version="1.0" encoding="UTF-8" standalone="no"?>
<!-- Created with Inkscape (http://www.inkscape.org/) -->

<svg
   width="145.06001mm"
   height="260.20129mm"
   viewBox="0 0 145.06001 260.20129"
   version="1.1"
   id="svg1"
   xml:space="preserve"
   inkscape:version="1.3 (0e150ed, 2023-07-21)"
   sodipodi:docname="Human_Baby_Female-front.svg"
   xmlns:inkscape="http://www.inkscape.org/namespaces/inkscape"
   xmlns:sodipodi="http://sodipodi.sourceforge.net/DTD/sodipodi-0.dtd"
   xmlns="http://www.w3.org/2000/svg"
   xmlns:svg="http://www.w3.org/2000/svg"><sodipodi:namedview
     id="namedview1"
     pagecolor="#505050"
     bordercolor="#ffffff"
     borderopacity="1"
     inkscape:showpageshadow="0"
     inkscape:pageopacity="0"
     inkscape:pagecheckerboard="1"
     inkscape:deskcolor="#505050"
     inkscape:document-units="mm"
     inkscape:zoom="0.32504294"
     inkscape:cx="112.29286"
     inkscape:cy="455.32446"
     inkscape:current-layer="layer1" /><defs
     id="defs1" /><g
     inkscape:label="Layer 1"
     inkscape:groupmode="layer"
     id="layer1"
     transform="translate(-32.997314,-17.081338)"><path
       style="opacity:1;fill:#ffffff;stroke:none;stroke-width:1.1;stroke-linejoin:round"
       d="m 129.28779,77.781874 c 6.64784,0.843097 6.68566,2.213509 7.94579,3.667278 2.81717,-1.303586 5.36788,0.937218 8.7043,4.868339 3.33641,3.931121 6.14386,6.00238 6.14386,6.00238 0.77521,-1.371865 1.90361,0.797943 1.90361,0.797943 -0.98833,-4.057589 2.10076,-5.848805 3.15176,-6.620203 0.0903,-2.296131 1.71008,-2.950562 0.77694,-4.769019 -0.93315,-1.818457 -3.08699,-7.212835 -2.39066,-9.712478 0.69634,-2.499646 3.97629,-6.143485 5.20997,-6.595327 1.23368,-0.451842 6.86573,0.599898 7.56064,1.44267 0.69491,0.842774 1.10858,1.538255 1.10858,1.538255 1.22287,-1.348361 4.44745,0.131517 4.62962,2.133309 1.9628,-0.752067 4.57565,2.598367 3.92299,5.943889 -0.65265,3.345523 -3.69071,5.57707 -4.109,7.977629 1.5883,1.09664 0.4063,2.54305 1.51822,6.404919 1.11191,3.861869 2.39259,4.647613 1.80855,10.829742 -0.58403,6.18214 -0.75957,6.12189 -3.94432,12.94375 -3.18476,6.82186 -6.8553,10.71191 -11.49151,11.93885 -4.63621,1.22695 -7.30481,-0.73958 -11.22105,-0.2924 -3.91624,0.44718 -6.78553,0.45096 -7.07332,3.11336 -0.28779,2.6624 -1.99543,8.74844 -1.54998,19.68541 0.44546,10.93697 -0.28575,11.61756 1.48479,16.94037 1.77054,5.3228 1.0503,15.62503 0.23212,19.00682 3.07474,3.14722 9.17563,10.57904 12.80342,19.4481 3.62778,8.86906 4.34462,16.90973 -3.40182,25.71061 -7.74644,8.80088 -13.78886,11.35901 -19.57959,12.7139 -5.79073,1.35488 -6.14947,3.05614 -5.25829,6.54432 0.89119,3.48818 2.82964,9.35176 3.55511,11.75554 0.72546,2.40377 -0.41276,8.35208 -1.68326,7.82514 -1.17515,3.37074 -3.13166,4.72771 -4.87797,4.70008 -1.113,1.46188 -2.97018,1.15518 -2.97018,1.15518 -0.35866,2.58643 -2.34028,3.11546 -4.18052,1.43621 -2.41487,1.30429 -5.82923,-2.0165 -5.93283,-4.83071 -0.10361,-2.81419 0.8761,-16.46027 0.27713,-22.33184 -0.59898,-5.87158 -3.59243,-13.52551 3.35288,-18.168 6.94532,-4.64249 5.80305,-3.57381 9.51746,-6.70131 -6.87302,3.76147 -14.1835,8.74279 -26.071997,7.91384 -11.888496,-0.82896 -17.832088,-4.19283 -21.368802,-6.73769 10.465024,9.67395 12.201688,12.7076 16.51277,14.8888 4.311081,2.1812 3.837098,10.45697 -0.504447,13.27125 -4.341545,2.81428 -6.865668,5.4303 -9.41805,6.97533 -2.55238,1.54504 -4.033912,4.86598 -5.878089,6.31923 -1.844178,1.45328 -2.927019,4.16864 -2.927019,4.16864 0.910603,2.23407 -1.18622,3.52174 -2.667619,3.7447 -1.481403,0.22294 -3.878662,2.65661 -4.760278,0.76558 -1.532006,-1.4632 -2.723626,0.87937 -3.602437,-1.42743 -0.878813,-2.3068 -2.569292,-6.64239 -0.9202,-8.84833 1.649093,-2.20596 3.744471,-5.99199 4.971291,-9.7887 1.226823,-3.79672 3.689474,-3.23365 3.899707,-7.24499 0.21023,-4.01134 -1.753,-3.67993 -14.423903,-8.71162 -12.670901,-5.03169 -24.406426,-16.13687 -24.081018,-26.79749 0.325406,-10.66063 17.287822,-22.92754 25.823677,-28.69631 0.380588,-5.0948 5.506136,-13.43797 5.650032,-18.4495 0.143894,-5.01152 -2.262217,-22.16074 -5.720289,-27.84468 -3.458072,-5.68395 -5.335598,-6.10684 -10.361509,-9.1843 -5.025914,-3.07746 -11.563951,-3.06404 -14.116465,-15.03403 -2.552513,-11.96999 -2.805301,-30.82799 -1.486305,-32.261156 1.318995,-1.433165 6.725285,-1.86659 6.725285,-1.86659 -1.34402,-3.962249 -2.396318,-6.937634 -0.417735,-10.185106 1.978583,-3.247475 3.939945,-3.99828 5.116708,-2.619994 2.372051,-2.045653 4.216958,-1.202489 4.658572,-0.03222 2.206418,-1.703634 4.057703,-0.757045 4.416703,0.30603 1.529405,-1.398619 2.658901,-1.127538 3.204604,-0.316616 1.467699,-3.078493 3.090174,-3.486462 3.938987,-1.177327 0.848809,2.309132 1.063011,3.026418 1.765228,4.957701 0.70222,1.931284 -0.504388,5.497357 -1.213334,6.965363 -0.708946,1.468006 -2.313453,2.412831 -2.746142,3.39612 0.562917,0.637175 -3.254034,6.904469 -2.829645,8.478102 0.424387,1.57363 0.495361,-0.640165 1.827533,-1.446559 1.332174,-0.806395 2.070719,-0.188026 2.47459,-1.469123 0.40387,-1.281099 0.06851,-3.710567 3.245498,-5.443857 3.176992,-1.733294 3.685736,-1.067139 5.263509,-0.61427 1.577772,0.452871 5.112872,-0.356045 9.781699,-0.436547 4.668827,-0.0805 6.579238,0.851093 9.430459,0.6419 -1.53684,-4.891275 -1.949162,-7.255139 -1.949162,-7.255139 -1.265398,1.464013 -4.070252,-0.05547 -5.179226,-2.057741 C 80.185436,69.127579 78.567065,62.624179 77.976269,60.769056 77.38547,58.91393 76.420646,56.422904 78.49427,55.706897 75.849156,47.929827 72.38139,28.53204 87.602244,21.247376 102.8231,13.962711 116.55088,16.93472 126.14854,24.735413 c 5.75622,4.678489 5.3862,15.562032 7.31972,22.582146 1.79757,6.526514 4.89424,17.586586 2.53134,22.068872 -3.24783,6.160937 -6.71181,8.395444 -6.71181,8.395443 z"
       id="path1"
       sodipodi:nodetypes="ccscccssssccscsssssssscsssssccccssscscsssscscsssssscssssscsccccssscssssssccsscssssc" /></g></svg>
