<?xml version="1.0" encoding="UTF-8" standalone="no"?>
<!-- Created with Inkscape (http://www.inkscape.org/) -->

<svg
   xmlns:dc="http://purl.org/dc/elements/1.1/"
   xmlns:cc="http://creativecommons.org/ns#"
   xmlns:rdf="http://www.w3.org/1999/02/22-rdf-syntax-ns#"
   xmlns:svg="http://www.w3.org/2000/svg"
   xmlns="http://www.w3.org/2000/svg"
   xmlns:sodipodi="http://sodipodi.sourceforge.net/DTD/sodipodi-0.dtd"
   xmlns:inkscape="http://www.inkscape.org/namespaces/inkscape"
   width="2651.72"
   height="2643.5676"
   viewBox="0 0 701.60089 699.44396"
   version="1.1"
   id="svg1115"
   inkscape:version="0.92.4 (5da689c313, 2019-01-14)"
   sodipodi:docname="Human_Hand_Open-top.svg"
   inkscape:export-filename="G:\Pictures\My Pictures\Vectors and SVGs\Hand1.png"
   inkscape:export-xdpi="96"
   inkscape:export-ydpi="96">
  <defs
     id="defs1109" />
  <sodipodi:namedview
     id="base"
     pagecolor="#ffffff"
     bordercolor="#666666"
     borderopacity="1.0"
     inkscape:pageopacity="0.0"
     inkscape:pageshadow="2"
     inkscape:zoom="0.12374369"
     inkscape:cx="538.22639"
     inkscape:cy="954.61162"
     inkscape:document-units="mm"
     inkscape:current-layer="layer1"
     showgrid="false"
     inkscape:pagecheckerboard="true"
     inkscape:showpageshadow="false"
     borderlayer="true"
     units="px"
     showguides="true"
     inkscape:guide-bbox="true"
     inkscape:snap-global="false"
     inkscape:window-width="1366"
     inkscape:window-height="713"
     inkscape:window-x="0"
     inkscape:window-y="0"
     inkscape:window-maximized="1"
     fit-margin-top="0"
     fit-margin-left="0"
     fit-margin-right="0"
     fit-margin-bottom="0" />
  <metadata
     id="metadata1112">
    <rdf:RDF>
      <cc:Work
         rdf:about="">
        <dc:format>image/svg+xml</dc:format>
        <dc:type
           rdf:resource="http://purl.org/dc/dcmitype/StillImage" />
        <dc:title></dc:title>
      </cc:Work>
    </rdf:RDF>
  </metadata>
  <g
     inkscape:label="Layer 1"
     inkscape:groupmode="layer"
     id="layer1"
     transform="translate(-39.31969,440.64234)">
    <path
       style="opacity:1;fill:#555555;fill-opacity:1;fill-rule:nonzero;stroke:none;stroke-width:6.24401903;stroke-linecap:round;stroke-linejoin:round;stroke-miterlimit:4;stroke-dasharray:none;stroke-dashoffset:0;stroke-opacity:1;paint-order:markers fill stroke"
       d="m 39.319691,-83.241475 c 0.0055,0.235241 0.03757,0.469106 0.0956,0.697124 0.291071,7.295038 4.158726,14.203706 10.953337,19.082041 7.0142,5.035973 17.018164,8.041428 29.547034,7.888393 22.848838,-0.279056 82.261128,-10.449772 137.517188,-16.882666 27.62803,-3.21646 54.12005,-5.495237 73.97893,-5.175408 9.92947,0.159914 18.21482,0.992743 23.96289,2.55643 5.74807,1.563714 8.38756,3.710014 8.92969,5.685446 0.54456,1.984269 -0.63482,5.405967 -4.67775,9.945132 -4.04294,4.539165 -10.54844,9.847712 -18.71875,15.498286 -16.34064,11.301121 -39.33716,24.069199 -63.2933,36.6659579 -23.95615,12.5967859 -48.88555,25.0385521 -69.25004,35.8262501 -10.18224,5.393848 -19.22019,10.372378 -26.46246,14.777389 -7.24228,4.405 -12.64023,8.124637 -15.85588,11.558468 -5.7795,6.17161 -9.27705,12.254828 -10.49394,18.033008 -1.21689,5.77819 0.0459,11.343767 3.6034,15.402676 7.11495,8.117821 21.63309,10.150758 40.96908,4.82813 19.32858,-5.320591 66.58713,-24.326845 111.87069,-43.521376 22.64178,-9.597268 44.71496,-19.225312 62.35743,-27.16993 17.64247,-7.94459 30.67912,-14.0922369 35.9301,-17.1601865 22.46415,-13.1248942 49.53894,-11.7087384 69.61489,-1.6955029 20.07592,10.0132354 32.76359,27.9934984 27.97865,48.6445814 -10.32364,44.555071 -12.79602,63.572922 -35.59577,109.544732 -11.78184,23.75611 -14.16386,49.31153 -9.81853,68.33227 2.17268,9.51036 6.01903,17.4551 11.60963,22.66786 5.59062,5.21277 13.19051,7.41198 21.23437,5.09581 4.52885,-1.30405 8.35155,-4.8707 12.20131,-9.51001 3.84977,-4.63931 7.66104,-10.49029 11.44892,-16.82585 7.57576,-12.67111 15.05802,-27.31443 21.60746,-37.42613 13.69727,-21.14723 17.9704,-39.5069 32.46107,-79.43908 7.19937,-19.839413 13.32,-31.163084 21.42403,-45.214814 8.104,-14.05174 18.17195,-30.769308 32.93906,-60.8458844 14.37487,-29.2776006 33.83002,-42.9838636 51.75189,-48.5799866 19.06651,-5.953548 37.16488,-11.609784 54.72483,-14.150551 9.6838,-1.401154 23.28003,-2.993946 39.99238,-4.781127 1.44312,-0.154226 2.58971,-1.282409 2.76728,-2.722827 8.94233,-72.40185 3.83701,-146.85319 -14.49422,-228.04498 -0.40593,-1.7998 -2.27558,-2.8571 -4.02715,-2.27738 -16.12161,5.333 -28.51949,8.53472 -35.78333,9.07852 -53.34328,1.28109 -83.01286,-3.61117 -109.21452,-10.0707 -26.22024,-6.46414 -49.16638,-14.60908 -88.2246,-19.59571 -42.10243,-5.37527 -65.8582,-7.98967 -81.41258,-11.17967 -15.55438,-3.19003 -22.73046,-6.73563 -33.03106,-14.54486 -13.41308,-10.16887 -40.60939,-32.74142 -67.51939,-53.91402 -13.45502,-10.58629 -26.85182,-20.83249 -38.49791,-29.05662 -11.64611,-8.22415 -21.37858,-14.40865 -28.28562,-17.0212 -6.68829,-2.52979 -12.52441,-3.01794 -17.32194,-1.67224 -4.79752,1.34572 -8.41778,4.66553 -10.17199,8.89867 -3.50842,8.46633 -0.29512,19.88135 9.19737,29.61111 4.783,4.90257 14.79781,12.97633 27.17354,22.96501 12.37573,9.98869 27.00454,21.7595 40.51173,33.47858 13.50722,11.71908 25.9062,23.42359 33.69355,33.03728 3.89369,4.80681 6.60641,9.12063 7.75766,12.3336 1.15128,3.21297 0.91924,4.68352 -0.24183,5.87923 -7.49498,7.7184 -20.56325,12.18512 -37.25973,14.03892 -16.69648,1.85381 -36.85683,1.15274 -58.13497,-0.75189 -42.55629,-3.80926 -89.51908,-12.39708 -123.51183,-14.3066 -17.514785,-0.98391 -28.574741,8.58086 -31.13092,20.20858 -2.55619,11.62772 2.976679,25.02842 15.910139,31.74844 3.689241,1.91688 9.499071,3.30581 17.498161,4.86481 7.99909,1.55903 18.03342,3.14198 29.37908,4.82039 22.69131,3.3568 50.61961,7.09515 77.61697,11.70163 26.99737,4.60644 53.089,10.10404 71.86537,16.83564 9.38821,3.36582 16.93804,7.07004 21.74028,10.87687 4.80224,3.80682 6.66919,7.25617 6.23631,10.97089 -0.43955,3.77209 -3.34542,7.80579 -9.00978,11.88662 -5.66436,4.08083 -13.87123,8.04116 -23.82231,11.72641 -19.90223,7.37053 -46.75992,13.7074 -74.84195,19.19161 -28.08203,5.48417 -57.40851,10.13388 -82.43321,14.24614 -25.0247,4.11229 -45.616476,7.62783 -56.861646,11.09184 -20.050152,6.1763 -30.395222,18.440318 -30.599684,30.781067 -0.03161,0.168804 -0.04924,0.33991 -0.05271,0.511598 h 0.0021 c 5e-5,0.0079 -0.0021,0.01588 -0.0021,0.02381 z"
       id="path839"
       inkscape:connector-curvature="0"
       sodipodi:nodetypes="ccccssccscssccscssccscsccsssssccsscccccssccssccscsscccsscsccccsscsssccccccc" />
  </g>
</svg>
