<?xml version="1.0" encoding="UTF-8" standalone="no"?>
<!-- Created with Inkscape (http://www.inkscape.org/) -->

<svg
   xmlns:dc="http://purl.org/dc/elements/1.1/"
   xmlns:cc="http://creativecommons.org/ns#"
   xmlns:rdf="http://www.w3.org/1999/02/22-rdf-syntax-ns#"
   xmlns:svg="http://www.w3.org/2000/svg"
   xmlns="http://www.w3.org/2000/svg"
   xmlns:sodipodi="http://sodipodi.sourceforge.net/DTD/sodipodi-0.dtd"
   xmlns:inkscape="http://www.inkscape.org/namespaces/inkscape"
   width="357.49252"
   height="1253.7896"
   viewBox="0 0 94.586563 331.73183"
   version="1.1"
   id="svg8"
   inkscape:version="0.92.4 (5da689c313, 2019-01-14)"
   sodipodi:docname="Human_Male-front.svg">
  <defs
     id="defs2">
    <inkscape:path-effect
       effect="mirror_symmetry"
       start_point="251.65989,0.16796977"
       end_point="251.65989,1253.9575"
       center_point="251.65989,627.06275"
       id="path-effect841"
       is_visible="true"
       mode="vertical"
       discard_orig_path="false"
       fuse_paths="false"
       oposite_fuse="false" />
    <inkscape:path-effect
       effect="mirror_symmetry"
       start_point="89.213735,-37.811661"
       end_point="89.213735,293.95736"
       center_point="89.213735,128.07285"
       id="path-effect835"
       is_visible="true"
       mode="vertical"
       discard_orig_path="false"
       fuse_paths="false"
       oposite_fuse="false" />
    <inkscape:path-effect
       effect="mirror_symmetry"
       start_point="89.213735,-37.811661"
       end_point="89.213735,293.95736"
       center_point="89.213735,128.07285"
       id="path-effect830"
       is_visible="true"
       mode="vertical"
       discard_orig_path="false"
       fuse_paths="false"
       oposite_fuse="false" />
    <inkscape:path-effect
       effect="mirror_symmetry"
       start_point="1500,0"
       end_point="1500,3000"
       center_point="1500,1500"
       id="path-effect865"
       is_visible="true"
       mode="vertical"
       discard_orig_path="false"
       fuse_paths="false"
       oposite_fuse="false" />
    <inkscape:path-effect
       effect="mirror_symmetry"
       start_point="396.875,-496.75002"
       end_point="396.875,296.99998"
       center_point="396.875,-99.87502"
       id="path-effect854"
       is_visible="true"
       mode="vertical"
       discard_orig_path="false"
       fuse_paths="false"
       oposite_fuse="false" />
    <inkscape:path-effect
       effect="mirror_symmetry"
       start_point="396.875,-496.75002"
       end_point="396.875,296.99998"
       center_point="396.875,-99.87502"
       id="path-effect843"
       is_visible="true"
       mode="vertical"
       discard_orig_path="false"
       fuse_paths="false"
       oposite_fuse="false" />
  </defs>
  <sodipodi:namedview
     id="base"
     pagecolor="#ffffff"
     bordercolor="#666666"
     borderopacity="1.0"
     inkscape:pageopacity="0.0"
     inkscape:pageshadow="2"
     inkscape:zoom="0.25908203"
     inkscape:cx="525.32194"
     inkscape:cy="495.49298"
     inkscape:document-units="mm"
     inkscape:current-layer="layer1"
     showgrid="false"
     inkscape:pagecheckerboard="true"
     inkscape:showpageshadow="false"
     borderlayer="true"
     units="px"
     showguides="true"
     inkscape:guide-bbox="true"
     inkscape:snap-page="true"
     inkscape:snap-object-midpoints="true"
     inkscape:snap-global="false"
     inkscape:window-width="1366"
     inkscape:window-height="713"
     inkscape:window-x="0"
     inkscape:window-y="0"
     inkscape:window-maximized="1"
     fit-margin-top="0"
     fit-margin-left="0"
     fit-margin-right="0"
     fit-margin-bottom="0" />
  <metadata
     id="metadata5">
    <rdf:RDF>
      <cc:Work
         rdf:about="">
        <dc:format>image/svg+xml</dc:format>
        <dc:type
           rdf:resource="http://purl.org/dc/dcmitype/StillImage" />
        <dc:title></dc:title>
      </cc:Work>
    </rdf:RDF>
  </metadata>
  <g
     inkscape:label="Layer 1"
     inkscape:groupmode="layer"
     id="layer1"
     transform="translate(-41.920454,37.767219)">
    <path
       transform="matrix(0.26458333,0,0,0.26458333,22.628725,-37.811661)"
       style="fill:#ffffff;fill-opacity:1;stroke:none;stroke:none;stroke-width:0.99999994px;stroke-linecap:butt;stroke-linejoin:miter;stroke-opacity:1"
       d="M 251.66016,0.16796875 V 699.29208 c 3.4287,0 6.58858,16.92223 11.28093,45.71511 3.9896,24.48069 4.86852,41.14975 11.69172,68.85621 6.55179,26.6044 -0.3413,93.94255 4.09375,103.74507 4.43509,9.80247 -0.68052,10.61854 4.09571,19.60419 4.77626,8.9856 -2.38889,10.62021 2.72851,17.97206 5.11737,7.3519 -1.70583,12.65984 1.02344,22.87078 2.72927,10.21093 -0.34205,20.4222 2.72851,30.2247 3.07045,9.8026 -4.77628,9.5668 1.02344,58.3526 5.79974,48.7858 9.89489,70.2795 17.40039,82.9024 7.50554,12.6229 1.36388,4.776 2.72852,18.7636 1.36463,13.9875 2.48104,23.5407 4.86914,30.7051 2.38813,7.1643 -0.31129,17.0549 -1.87695,21.834 -1.65555,5.0534 -2.91009,33.0918 1.87695,33.0918 h 59.70312 c 3.78569,1.0143 4.26375,-26.0303 2.2168,-31.8985 -1.29868,-3.723 -5.11654,-10.9165 -5.28711,-14.8398 -0.62241,-14.3151 6.28922,-28.3024 2.19531,-36.4902 -4.09394,-8.1879 0.84193,-12.0963 1.90235,-18.5723 1.79781,-10.9795 1.21815,-28.327 1.16406,-39.9863 -0.0525,-11.3134 -3.44841,-31.0118 -2.35352,-46.4004 1.4109,-19.8308 3.60182,-17.3041 1.18946,-40.9865 -2.41236,-23.6822 0.37428,-20.6033 -1.97852,-28.68996 -2.35282,-8.08665 1.4e-4,-11.16514 0.88246,-19.82943 0.8823,-8.66424 2.7e-4,-16.56127 -1.76433,-17.13887 -1.76461,-0.57765 0.90245,-14.44053 0.90245,-21.37193 0,-6.93141 -2.23176,-8.15649 -2.25838,-17.03891 -0.0248,-8.28481 -0.56363,-14.86868 -2.15267,-16.98554 -3.32924,-4.43507 1.00023,-11.4285 -0.0404,-18.72804 -1.1786,-8.26712 -2.78634,-8.16898 1.00562,-13.8637 5.02861,-6.93145 -1.57889,-21.9502 -0.13137,-37.54586 1.44741,-15.59565 0.7989,-31.81884 -0.16601,-60.28473 -0.96496,-28.46589 -0.93016,-31.36026 3.4121,-41.49219 4.34227,-10.13193 1.82168,-29.36247 2.08008,-35.70312 0.13266,-3.25391 1.01228,-8.07266 0.96485,-8.20313 0,0 23.15965,-15.43913 27.98437,-18.33398 4.82472,-2.89482 12.06247,-10.61388 12.54492,-23.64063 0.4825,-13.02678 -1.44922,-57.89577 -1.44922,-64.65039 0,-6.75462 2.4136,-27.98397 6.75586,-50.17773 4.34227,-22.19373 8.20121,-52.1066 7.71875,-96.97656 -0.48249,-44.86995 -5.90357,-40.53349 -5.30664,-72.3711 0.3617,-19.2989 1.06055,-22.79101 1.06055,-22.79101 l 3.07031,-0.68164 c 0,0 9.21041,-105.75998 -25.58789,-118.72405 -34.7983,-12.96407 -83.44189,-20.45494 -99.61914,-30.36328 -5.55847,-3.40449 -9.65823,-3.85805 -10.13672,-10.88867 -0.93399,-13.72323 -1.88557,-26.62214 4.67969,-40.9668 5.93352,-12.96431 6.48097,-13.64708 10.91602,-15.01172 4.43508,-1.36464 5.80016,-22.516564 5.45898,-31.386714 -0.34129,-8.870155 8e-5,-8.527942 -2.04687,-9.892578 -2.04696,-1.364641 3.01249,-32.364532 -12.26368,-54.126954 C 288.77994,10.072106 271.24153,0.16796875 251.66016,0.16796875 Z M 368.45312,386.01897 c 5.2681,10.03638 -2.02246,63.65207 5.45704,95.52539 3.40448,14.50797 9.55281,49.80991 7.50586,66.18554 -2.04696,16.37568 1.70675,17.39956 -7.84571,37.86914 -9.55245,-7.50553 -7.50659,-10.23487 -5.80078,-14.66992 1.70582,-4.43508 0.34129,-8.18772 0,-18.76367 -0.34129,-10.57595 5.11862,-3.75291 1.70703,-12.62305 -3.41163,-8.87017 2.04645,-7.16548 -0.34179,-20.4707 -2.38814,-13.30522 1.3e-4,-47.76164 -3.07032,-65.50195 -3.07041,-17.7403 -0.68181,-21.83379 0.3418,-42.64453 1.0235,-20.81074 2.04688,-24.90625 2.04687,-24.90625 z M 251.65961,0.16796875 V 699.29208 c -3.4287,0 -6.58858,16.92223 -11.28093,45.71511 -3.9896,24.48069 -4.86852,41.14975 -11.69172,68.85621 -6.55179,26.6044 0.3413,93.94255 -4.09375,103.74507 -4.43509,9.80247 0.68052,10.61854 -4.09571,19.60419 -4.77626,8.9856 2.38889,10.62021 -2.72851,17.97206 -5.11737,7.3519 1.70583,12.65984 -1.02344,22.87078 -2.72927,10.21093 0.34205,20.4222 -2.72851,30.2247 -3.07045,9.8026 4.77628,9.5668 -1.02344,58.3526 -5.79974,48.7858 -9.89489,70.2795 -17.40039,82.9024 -7.50554,12.6229 -1.36388,4.776 -2.72852,18.7636 -1.36463,13.9875 -2.48104,23.5407 -4.86914,30.7051 -2.38813,7.1643 0.31129,17.0549 1.87695,21.834 1.65555,5.0534 2.91009,33.0918 -1.87695,33.0918 h -59.70312 c -3.78569,1.0143 -4.26375,-26.0303 -2.2168,-31.8985 1.29868,-3.723 5.11654,-10.9165 5.28711,-14.8398 0.62241,-14.3151 -6.28922,-28.3024 -2.19531,-36.4902 4.09394,-8.1879 -0.84193,-12.0963 -1.90235,-18.5723 -1.79781,-10.9795 -1.21815,-28.327 -1.16406,-39.9863 0.0525,-11.3134 3.44841,-31.0118 2.35352,-46.4004 -1.4109,-19.8308 -3.60182,-17.3041 -1.18946,-40.9865 2.41236,-23.6822 -0.37428,-20.6033 1.97852,-28.68996 2.35282,-8.08665 -1.4e-4,-11.16514 -0.88246,-19.82943 -0.8823,-8.66424 -2.7e-4,-16.56127 1.76433,-17.13887 1.76461,-0.57765 -0.90245,-14.44053 -0.90245,-21.37193 0,-6.93141 2.23176,-8.15649 2.25838,-17.03891 0.0248,-8.28481 0.56363,-14.86868 2.15267,-16.98554 3.32924,-4.43507 -1.00023,-11.4285 0.0404,-18.72804 1.1786,-8.26712 2.78634,-8.16898 -1.00562,-13.8637 -5.02861,-6.93145 1.57889,-21.9502 0.13137,-37.54586 -1.44741,-15.59565 -0.7989,-31.81884 0.16601,-60.28473 0.96496,-28.46589 0.93016,-31.36026 -3.4121,-41.49219 -4.34227,-10.13193 -1.82168,-29.36247 -2.08008,-35.70312 -0.13266,-3.25391 -1.01228,-8.07266 -0.96485,-8.20313 0,0 -23.15965,-15.43913 -27.984368,-18.33398 -4.82472,-2.89482 -12.06247,-10.61388 -12.54492,-23.64063 -0.4825,-13.02678 1.44922,-57.89577 1.44922,-64.65039 0,-6.75462 -2.4136,-27.98397 -6.75586,-50.17773 -4.34227,-22.19373 -8.20121,-52.1066 -7.71875,-96.97656 0.48249,-44.86995 5.90357,-40.53349 5.30664,-72.3711 -0.3617,-19.2989 -1.06055,-22.79101 -1.06055,-22.79101 l -3.07031,-0.68164 c 0,0 -9.21041,-105.75998 25.58789,-118.72405 34.798298,-12.96407 83.441888,-20.45494 99.619138,-30.36328 5.55847,-3.40449 9.65823,-3.85805 10.13672,-10.88867 0.93399,-13.72323 1.88557,-26.62214 -4.67969,-40.9668 -5.93352,-12.96431 -6.48097,-13.64708 -10.91602,-15.01172 -4.43508,-1.36464 -5.80016,-22.516564 -5.45898,-31.386714 0.34129,-8.870155 -8e-5,-8.527942 2.04687,-9.892578 2.04696,-1.364641 -3.01249,-32.364532 12.26368,-54.126954 11.80992,-16.824378 29.34833,-26.72851525 48.9297,-26.72851525 z M 134.86665,386.01897 c -5.2681,10.03638 2.02246,63.65207 -5.45704,95.52539 -3.40448,14.50797 -9.55281,49.80991 -7.50586,66.18554 2.04696,16.37568 -1.70675,17.39956 7.84571,37.86914 9.55245,-7.50553 7.50659,-10.23487 5.80078,-14.66992 -1.70582,-4.43508 -0.34129,-8.18772 0,-18.76367 0.34129,-10.57595 -5.11862,-3.75291 -1.70703,-12.62305 3.41163,-8.87017 -2.04645,-7.16548 0.34179,-20.4707 2.38814,-13.30522 -1.3e-4,-47.76164 3.07032,-65.50195 3.07041,-17.7403 0.68181,-21.83379 -0.3418,-42.64453 -1.0235,-20.81074 -2.04688,-24.90625 -2.04687,-24.90625 z"
       id="path828" />
  </g>
</svg>
