<?xml version="1.0" encoding="UTF-8" standalone="no"?>
<!-- Created with Inkscape (http://www.inkscape.org/) -->

<svg
   width="63.921654mm"
   height="239.51251mm"
   viewBox="0 0 63.921654 239.51251"
   version="1.1"
   id="svg1"
   xml:space="preserve"
   inkscape:version="1.3 (0e150ed6c4, 2023-07-21)"
   sodipodi:docname="Robert_Waldow-front.svg"
   xmlns:inkscape="http://www.inkscape.org/namespaces/inkscape"
   xmlns:sodipodi="http://sodipodi.sourceforge.net/DTD/sodipodi-0.dtd"
   xmlns="http://www.w3.org/2000/svg"
   xmlns:svg="http://www.w3.org/2000/svg"><sodipodi:namedview
     id="namedview1"
     pagecolor="#505050"
     bordercolor="#ffffff"
     borderopacity="1"
     inkscape:showpageshadow="0"
     inkscape:pageopacity="0"
     inkscape:pagecheckerboard="1"
     inkscape:deskcolor="#505050"
     inkscape:document-units="mm"
     showguides="true"
     inkscape:zoom="0.58707211"
     inkscape:cx="-62.172942"
     inkscape:cy="469.27796"
     inkscape:window-width="1600"
     inkscape:window-height="837"
     inkscape:window-x="-8"
     inkscape:window-y="-8"
     inkscape:window-maximized="1"
     inkscape:current-layer="layer1" /><defs
     id="defs1" /><g
     inkscape:label="Layer 1"
     inkscape:groupmode="layer"
     id="layer1"
     transform="translate(-74.453098,-14.954231)"><path
       style="fill:#555555;stroke-width:0.1;paint-order:markers stroke fill"
       d="m 122.29379,254.4667 c 1.35437,0.009 1.75275,-1.43406 1.67308,-2.23077 -0.0797,-0.7967 -0.31868,-3.50549 -0.87637,-4.22252 -0.55769,-0.71703 2.23076,-2.15109 2.70878,-3.7445 0.47802,-1.59341 1.83242,-2.78846 0.71704,-3.18681 -1.11539,-0.39835 0.39835,-7.72801 0.23901,-9.95878 -0.15934,-2.23077 -1.11539,-24.06041 -1.59341,-30.03567 -0.47802,-5.97527 -1.19505,-17.52745 -0.7967,-24.29942 0.39835,-6.77197 0.87637,-24.06041 0.87637,-24.06041 1.19505,-1.03571 1.75275,-1.19505 1.67308,-3.10714 -0.0797,-1.91208 0.23901,-5.49724 0.15934,-7.24999 -0.0797,-1.75274 0,-4.14285 0.63736,-4.93955 0.63736,-0.7967 3.10714,-1.83242 2.62912,-3.02747 -0.47803,-1.19505 0.87637,-8.36537 2.15109,-11.15383 1.27473,-2.78846 4.46154,-10.75548 5.57692,-17.04943 1.11538,-6.293948 -1.11538,-22.227993 -1.91209,-29.716995 -0.7967,-7.489002 -2.54944,-20.076895 -5.65658,-25.016449 -3.10714,-4.939556 -11.63186,-4.939556 -14.34064,-5.895599 -2.70879,-0.95604 -4.54121,-3.266477 -4.78022,-5.337902 -0.23901,-2.071429 0,-4.381863 0.39836,-5.019226 0.39834,-0.637362 1.5934,-0.876371 2.23076,-2.151096 0.63736,-1.274723 1.43406,-4.381863 0.39835,-4.381863 -1.03571,0 -1.67307,0.07967 -1.5934,-0.398351 0.0797,-0.47802 1.19505,-3.266479 0.47802,-6.134607 -0.71703,-2.868128 -3.90384,-7.568671 -10.27746,-7.17032 -6.373618,0.398351 -7.329661,8.445044 -7.329661,10.038448 0,1.593405 0.31868,3.107139 -0.398351,2.788459 -0.717032,-0.31868 -2.310437,0.796702 -1.912086,2.549445 0.398352,1.752746 2.78846,4.302194 3.744503,4.461534 0.956042,0.15934 0.63736,0.717031 0.7967,1.832414 0.159342,1.115386 1.354394,6.293948 1.354394,7.728014 0,1.434062 -0.15934,1.912085 -0.876371,2.230765 -0.717032,0.31868 -5.576917,1.195054 -10.118119,4.620874 -4.541203,3.42582 -5.815926,2.549446 -6.85164,11.31317 -1.035711,8.763725 -3.744499,19.837887 -4.541202,21.510961 -0.796703,1.673074 -2.071426,9.321416 -2.310437,13.62361 -0.239011,4.302194 -0.07967,14.818664 0.15934,16.651074 0.239011,1.83242 0.876374,1.99176 0.557691,4.5412 -0.31868,2.54945 1.832417,11.87087 2.469777,13.62361 0.637363,1.75275 -0.07967,5.73626 0.876374,6.29395 0.956043,0.55769 1.195052,1.11538 0.956043,2.39011 -0.239011,1.27472 0.876371,19.91755 0.796703,27.08787 -0.07967,7.17032 -0.318683,32.90381 -1.195054,43.57962 -0.876374,10.67581 -2.390109,32.02743 -2.151097,32.82413 0.239011,0.7967 1.354394,1.03571 2.151097,1.27472 0.796702,0.23901 0.15934,1.51374 -0.07967,4.46154 -0.239011,2.94779 0.07967,3.98351 1.513734,3.98351 H 91.38175 c 1.593403,0 2.629117,-3.18681 1.991754,-4.78022 -0.63736,-1.5934 -0.876371,-4.62087 -0.239008,-4.46153 0.63736,0.15934 1.434062,-0.23901 2.230765,-1.75274 0.796703,-1.51374 3.027469,-8.20604 2.947797,-11.7912 -0.07967,-3.58516 -1.354394,-17.84613 -1.593403,-24.29942 -0.239011,-6.45329 1.673075,-25.25546 1.673075,-25.25546 0,0 0.398351,14.81866 1.115382,21.19228 0.717028,6.37362 3.425818,17.28844 3.505488,19.83789 0.0797,2.54945 -0.0797,15.13734 1.03571,18.32415 1.11539,3.18681 2.9478,8.0467 3.66483,7.40933 0.71704,-0.63736 1.03572,1.27473 0.5577,2.78846 -0.47803,1.51374 0.0797,2.78846 1.51373,2.78846 z"
       id="path1"
       sodipodi:nodetypes="sssssssscssssssssssssscsssssssssssssssssssssssssssssscssssscs" /></g></svg>
