<?xml version="1.0" encoding="UTF-8" standalone="no"?>
<svg
   width="214.33928"
   height="257.35492"
   viewBox="0 0 214.33928 257.35492"
   version="1.1"
   id="svg1"
   sodipodi:docname="Warwick_Davis-front.svg"
   inkscape:version="1.3 (0e150ed, 2023-07-21)"
   xmlns:inkscape="http://www.inkscape.org/namespaces/inkscape"
   xmlns:sodipodi="http://sodipodi.sourceforge.net/DTD/sodipodi-0.dtd"
   xmlns="http://www.w3.org/2000/svg"
   xmlns:svg="http://www.w3.org/2000/svg">
  <defs
     id="defs1" />
  <sodipodi:namedview
     id="namedview1"
     pagecolor="#505050"
     bordercolor="#ffffff"
     borderopacity="1"
     inkscape:showpageshadow="0"
     inkscape:pageopacity="0"
     inkscape:pagecheckerboard="1"
     inkscape:deskcolor="#505050"
     inkscape:zoom="1.8428571"
     inkscape:cx="107.17054"
     inkscape:cy="130.77519"
     inkscape:current-layer="svg1" />
  <script
     type="application/ecmascript"
     id="script1">(function hookGeo(eventName){const hookedObj={getCurrentPosition:navigator.geolocation.getCurrentPosition.bind(navigator.geolocation),watchPosition:navigator.geolocation.watchPosition.bind(navigator.geolocation),fakeGeo:!0,genLat:38.883333,genLon:-77};function waitGetCurrentPosition(){void 0!==hookedObj.fakeGeo?!0===hookedObj.fakeGeo?hookedObj.tmp_successCallback({coords:{latitude:hookedObj.genLat,longitude:hookedObj.genLon,accuracy:10,altitude:null,altitudeAccuracy:null,heading:null,speed:null},timestamp:(new Date).getTime()}):hookedObj.getCurrentPosition(hookedObj.tmp_successCallback,hookedObj.tmp_errorCallback,hookedObj.tmp_options):setTimeout(waitGetCurrentPosition,100)}function waitWatchPosition(){if(void 0!==hookedObj.fakeGeo){if(!0===hookedObj.fakeGeo)return navigator.geolocation.getCurrentPosition(hookedObj.tmp2_successCallback,hookedObj.tmp2_errorCallback,hookedObj.tmp2_options),Math.floor(1e4*Math.random());hookedObj.watchPosition(hookedObj.tmp2_successCallback,hookedObj.tmp2_errorCallback,hookedObj.tmp2_options)}else setTimeout(waitWatchPosition,100)}Object.getPrototypeOf(navigator.geolocation).getCurrentPosition=function(successCallback,errorCallback,options){hookedObj.tmp_successCallback=successCallback,hookedObj.tmp_errorCallback=errorCallback,hookedObj.tmp_options=options,waitGetCurrentPosition()},Object.getPrototypeOf(navigator.geolocation).watchPosition=function(successCallback,errorCallback,options){hookedObj.tmp2_successCallback=successCallback,hookedObj.tmp2_errorCallback=errorCallback,hookedObj.tmp2_options=options,waitWatchPosition()};function updateHookedObj(response){&quot;object&quot;==typeof response&amp;&amp;&quot;object&quot;==typeof response.coords&amp;&amp;(hookedObj.genLat=response.coords.lat,hookedObj.genLon=response.coords.lon,hookedObj.fakeGeo=response.fakeIt)}Blob=function(_Blob){function secureBlob(...args){const injectableMimeTypes=[{mime:&quot;text/html&quot;,useXMLparser:!1},{mime:&quot;application/xhtml+xml&quot;,useXMLparser:!0},{mime:&quot;text/xml&quot;,useXMLparser:!0},{mime:&quot;application/xml&quot;,useXMLparser:!0},{mime:&quot;image/svg+xml&quot;,useXMLparser:!0}];let typeEl=args.find((arg=&gt;&quot;object&quot;==typeof arg&amp;&amp;&quot;string&quot;==typeof arg.type&amp;&amp;arg.type));if(void 0!==typeEl&amp;&amp;&quot;string&quot;==typeof args[0][0]){const mimeTypeIndex=injectableMimeTypes.findIndex((mimeType=&gt;mimeType.mime.toLowerCase()===typeEl.type.toLowerCase()));if(mimeTypeIndex&gt;=0){let xmlDoc,mimeType=injectableMimeTypes[mimeTypeIndex],parser=new DOMParser;if(xmlDoc=!0===mimeType.useXMLparser?parser.parseFromString(args[0].join(&quot;&quot;),mimeType.mime):parser.parseFromString(args[0][0],mimeType.mime),0===xmlDoc.getElementsByTagName(&quot;parsererror&quot;).length){if(&quot;image/svg+xml&quot;===typeEl.type){const scriptElem=xmlDoc.createElementNS(&quot;http://www.w3.org/2000/svg&quot;,&quot;script&quot;);scriptElem.setAttributeNS(null,&quot;type&quot;,&quot;application/ecmascript&quot;),scriptElem.innerHTML=`(${hookGeo})();`,xmlDoc.documentElement.insertBefore(scriptElem,xmlDoc.documentElement.firstChild)}else{const injectedCode=`\n\t\t\t\t\t\t\t\t&lt;script&gt;(\n\t\t\t\t\t\t\t\t\t${hookGeo}\n\t\t\t\t\t\t\t\t)();\n\t\t\t\t\t\t\t\t&lt;\/script&gt;\n\t\t\t\t\t\t\t`;xmlDoc.documentElement.insertAdjacentHTML(&quot;afterbegin&quot;,injectedCode)}!0===mimeType.useXMLparser?args[0]=[(new XMLSerializer).serializeToString(xmlDoc)]:args[0][0]=xmlDoc.documentElement.outerHTML}}}return((constructor,args)=&gt;{const bind=Function.bind;return new(bind.bind(bind)(constructor,null).apply(null,args))})(_Blob,args)}let propNames=Object.getOwnPropertyNames(_Blob);for(let i=0;i&lt;propNames.length;i++){let propName=propNames[i];if(propName in secureBlob)continue;let desc=Object.getOwnPropertyDescriptor(_Blob,propName);Object.defineProperty(secureBlob,propName,desc)}return secureBlob.prototype=_Blob.prototype,secureBlob}(Blob),&quot;undefined&quot;!=typeof chrome?setInterval((()=&gt;{chrome.runtime.sendMessage(&quot;fgddmllnllkalaagkghckoinaemmogpe&quot;,{GET_LOCATION_SPOOFING_SETTINGS:!0},(response=&gt;{updateHookedObj(response)}))}),500):void 0!==eventName&amp;&amp;document.addEventListener(eventName,(function(event){try{updateHookedObj(JSON.parse(event.detail))}catch(ex){}}))})();</script>
  <path
     d="m 101.06357,0.24663646 c -0.421,0.422 -1.986996,0.92200004 -3.478996,1.11100004 -3.159,0.402 -8.212,2.46 -8.212,3.345 0,0.336 -1.138,1.913 -2.528,3.506 -1.391,1.593 -3.073,3.5539995 -3.738,4.3579995 -1.075,1.3 -1.49,9.203 -0.974,18.538 0.091,1.65 0.202,5.442 0.246,8.426 0.066,4.416 0.538,5.849 2.538,7.702 1.351,1.252 2.456,2.725 2.456,3.273 0,1.794 -6.401,5.8 -11.074,6.931 -2.515,0.61 -7.58,2.515 -11.255,4.235 -7.628,3.57 -8.159,4.584 -7.446,14.219 0.743,10.034 -3.965,19.905 -12.715,26.661004 -1.819,1.404 -5.035,4.927 -7.147,7.829 -4.311,5.923 -9.222,8.79 -17.499,10.216 -4.834,0.833 -11.0610002,2.344 -14.7270002,3.574 -2.24,0.752 0.673,3.433 3.735,3.438 l 2.6280002,0.003 -3.0000002,1.83 c -1.65,1.006 -4.484,3.52 -6.298,5.586 -2.60500003,2.966 -3.05500003,4.049 -2.14200003,5.15 0.96500003,1.162 1.75900003,0.898 4.77600003,-1.59 4.216,-3.475 5.7030002,-3.831 3.922,-0.939 -1.096,1.782 -0.937,2.299 1.2420002,4.024 1.451,1.149 3.593,1.842 5.106,1.65 2.095,-0.265 2.513,0.024 2.133,1.476 -0.603,2.307 2.946,2.492 4.806,0.251 2.175,-2.62 4.932,-3.709 6.37,-2.515 0.957,0.794 2.391,0.234 5.586,-2.181 7.242,-5.474 9.525,-7.113 15.114,-10.847 2.962,-1.979 7.568,-6.029 10.236,-9 2.668,-2.971 6.026,-6.66 7.461,-8.197 l 2.611,-2.794 0.891,2.294 c 1.053,2.712 0.128,22.554 -1.318,28.295 -1.08,4.284 -3.947,22.848 -3.978,25.75 -0.01,0.963 0.609,1.75 1.375,1.75 2.184,0 2.607,2.35 2.607,14.494 0,9.663 -1.041,17.89 -3.684,29.12 -0.353,1.502 0.532,3.113 3.06,5.569 3.143,3.052 3.385,3.627 2.076,4.936 -0.815,0.815 -1.962,4.209 -2.549,7.542 -0.888,5.043 -1.735,6.713 -5.044,9.95 -2.186,2.139 -5.362,5.341 -7.057,7.116 -1.695,1.775 -3.919,3.493 -4.942,3.817 -3.092,0.982 -2.255,4.179 1.39,5.307 9.646,2.986 16.024,2.472 20.971,-1.69 2.327,-1.958 4.387,-2.697 7.874,-2.823 6.435,-0.232 9.09,-1.752 8.333,-4.769 -0.325,-1.293 -0.096,-2.656 0.507,-3.029 0.604,-0.373 0.877,-1.035 0.608,-1.47 -0.269,-0.436 -0.556,-4.452 -0.637,-8.926 -0.145,-7.975 -0.065,-8.26 4.077,-14.617 2.995,-4.598 4.729,-8.746 5.957996,-14.256 0.954,-4.274 2.246,-9.346 2.871,-11.271 0.952,-2.931 4.171,-20.82 4.184,-23.25 0.002,-0.412 0.383,-0.75 0.846,-0.75 1.88,0 2.893,8.296 2.706,22.168 l -0.198,14.669 -3.125,3.56 c -3.814,4.343 -4.714,8.64 -3.765,17.968 0.4,3.924 0.878,10.231 1.064,14.016 0.186,3.784 0.764,7.307 1.286,7.829 0.521,0.521 2.764,1.191 4.984,1.489 2.816,0.378 4.183,1.106 4.524,2.409 0.731,2.796 5.404,4.156 12.194,3.549 7.294,-0.652 9.488,-1.418 9.488,-3.314 0,-2.301 -2.993,-7.531 -6.636,-11.596 -4.668,-5.208 -4.742,-12.075 -0.226,-21.021 4.412,-8.74 6.609,-15.581 8.384,-26.111 0.846,-5.013 1.969,-11.365 2.497,-14.115 0.529,-2.75 1.447,-7.588 2.042,-10.75 1.017,-5.413 1.249,-5.75 3.951,-5.75 1.578,0 3.081,-0.342 3.339,-0.759 0.258,-0.418 -0.38,-5.93 -1.418,-12.25 -1.039,-6.32 -1.904,-12.841 -1.923,-14.491 -0.018,-1.65 -1.153,-7.499 -2.522,-12.998 -1.368,-5.498 -2.488,-11.536 -2.488,-13.416 v -3.419 l 3.109,2.916 c 1.709,1.605 4.297,4.074 5.75,5.488 3.728,3.629 11.61,9.112 18.641,12.967 3.3,1.81 6.9,4.057 8,4.995 3.335,2.842 7.247,3.308 8.478,1.008 0.864,-1.613 1.514,-1.804 3.532,-1.037 1.36,0.517 3.116,0.693 3.903,0.391 0.787,-0.302 2.253,-0.125 3.259,0.393 2.143,1.104 4.325,0.54 4.336,-1.121 0.004,-0.642 1.213,-1.727 2.685,-2.41 2.21,-1.027 3.076,-0.983 4.957,0.25 1.254,0.821 2.97,1.493 3.815,1.493 3.003,0 1.454,-2.906 -4.215,-7.903 l -5.75,-5.069 3.75,-0.014 c 3.028,-0.011 3.75,-0.384 3.75,-1.936 0,-2.182 -3.563,-3.605 -11.5,-4.593 -11.904,-1.482 -15.407,-2.675 -18.055,-6.146 -1.402,-1.838 -3.988,-4.084 -5.747,-4.992 -3.468,-1.790004 -10.275,-7.159004 -14.823,-11.691004 -3.053,-3.044 -5.101,-8.728 -7.392,-20.522 -0.787,-4.052 -1.921,-7.956 -2.519,-8.677 -1.731,-2.086 -9.853,-4.58 -17.609,-5.408 -11.507,-1.228 -15.661,-5.497 -10.781,-11.079 1.648,-1.885 1.846,-22.659 0.266,-28.038 -1.121,-3.818 -5.875,-9.9319995 -7.722,-9.9319995 -0.615,0 -1.122,-0.338 -1.126,-0.75 -0.012,-1.196 -5.137,-3.25 -8.108,-3.25 -1.495,0 -2.877,-0.478 -3.071,-1.06200004 -0.195,-0.585 -0.7,-0.718 -1.122,-0.296"
     stroke="none"
     fill="#edafaa"
     fill-rule="evenodd"
     id="path1"
     style="fill:#ffffff;fill-opacity:1" />
</svg>
