<?xml version="1.0" encoding="UTF-8" standalone="no"?>
<!-- Created with Inkscape (http://www.inkscape.org/) -->

<svg
   width="142.87753mm"
   height="139.20935mm"
   viewBox="0 0 142.87753 139.20935"
   version="1.1"
   id="svg1"
   xml:space="preserve"
   inkscape:version="1.3 (0e150ed, 2023-07-21)"
   sodipodi:docname="White_Blood_Cell-front.svg"
   xmlns:inkscape="http://www.inkscape.org/namespaces/inkscape"
   xmlns:sodipodi="http://sodipodi.sourceforge.net/DTD/sodipodi-0.dtd"
   xmlns="http://www.w3.org/2000/svg"
   xmlns:svg="http://www.w3.org/2000/svg"><sodipodi:namedview
     id="namedview1"
     pagecolor="#505050"
     bordercolor="#ffffff"
     borderopacity="1"
     inkscape:showpageshadow="0"
     inkscape:pageopacity="0"
     inkscape:pagecheckerboard="1"
     inkscape:deskcolor="#505050"
     inkscape:document-units="mm"
     inkscape:zoom="0.65008588"
     inkscape:cx="215.35616"
     inkscape:cy="293.80733"
     inkscape:current-layer="layer1" /><defs
     id="defs1" /><g
     inkscape:label="Layer 1"
     inkscape:groupmode="layer"
     id="layer1"
     transform="translate(-15.317892,-41.411547)"><path
       style="fill:#555555;fill-opacity:1"
       d="m 20.132874,131.66959 c 0.242119,-1.80246 0.151424,-2.49489 -0.495218,-3.78119 -0.635503,-1.26412 -0.484022,-3.13296 0.340516,-4.20111 0.391481,-0.50714 0.767721,-1.33703 0.836079,-1.84418 0.127204,-0.94375 1.032651,-2.00034 1.917352,-2.2374 0.272536,-0.073 0.702714,-0.41793 0.955954,-0.76647 l 0.460433,-0.63371 -0.639009,-0.14936 c -0.351466,-0.0821 -0.99104,-0.53991 -1.42129,-1.01727 -0.504793,-0.56005 -0.896273,-0.78512 -1.103652,-0.63448 -0.538293,0.391 -2.262423,-0.67902 -2.709356,-1.68148 -0.513263,-1.15124 -0.163346,-3.15795 0.844919,-4.84539 0.398437,-0.66684 0.67983,-1.3789 0.62531,-1.58237 -0.05452,-0.20347 0.0363,-1.01262 0.20184,-1.79812 0.165529,-0.7855 0.261704,-1.57664 0.213703,-1.7581 -0.139567,-0.52859 0.336172,-2.42947 0.780372,-3.11676 0.22847,-0.35351 0.324141,-0.94361 0.217511,-1.34156 -0.104701,-0.390747 -0.157259,-1.035513 -0.116784,-1.432796 0.06491,-0.637171 0.0085,-0.704904 -0.478319,-0.574456 -1.541289,0.412987 -4.878383,-1.041448 -5.207472,-2.269623 -0.188016,-0.701687 0.349411,-1.63309 1.050741,-1.821011 0.275472,-0.07381 1.009773,-0.0259 1.631766,0.106465 0.622003,0.132364 1.171734,0.169955 1.221627,0.08354 0.04992,-0.08647 -0.02741,-0.125472 -0.172597,-0.08657 -0.144821,0.0388 -0.647746,-0.1514 -1.117617,-0.422671 -0.692486,-0.399815 -0.918392,-0.732399 -1.192634,-1.755884 -0.282633,-1.054801 -0.248304,-1.418571 0.20855,-2.209867 0.701776,-1.21551 1.976558,-1.595175 3.87842,-1.155108 1.758326,0.406855 2.122418,0.298385 1.232932,-0.367322 -0.390563,-0.292305 -0.784402,-0.808687 -0.875193,-1.147525 -0.202094,-0.754223 0.562083,-2.155597 1.280413,-2.348073 0.29367,-0.07869 0.890859,-0.803635 1.348631,-1.637136 1.020379,-1.8579 0.842859,-2.273019 -1.559743,-3.647401 -1.816287,-1.038983 -2.22514,-1.656909 -1.699114,-2.567999 0.719564,-1.246335 3.975898,-0.74078 5.751407,0.892911 l 0.982509,0.904032 0.395998,-0.863712 0.395999,-0.863712 -1.135133,-0.358761 C 25.099581,76.142804 23.699,75.005301 23.37904,73.811195 c -0.0535,-0.199657 0.42069,-1.307805 1.053756,-2.462531 0.855914,-1.561245 1.424545,-2.268787 2.217924,-2.759727 1.176455,-0.728005 1.407158,-0.737581 4.800557,-0.199358 l 1.794598,0.284632 0.610807,-1.019113 c 1.184213,-1.975812 3.493845,-3.157048 4.752268,-2.430506 0.82542,0.476565 0.922504,0.867829 0.474743,1.913178 -0.352942,0.823912 -0.347888,0.848026 0.245405,1.171254 0.333143,0.181521 1.110634,0.259292 1.727745,0.172836 l 1.122026,-0.157198 -0.462318,-1.725395 c -0.55285,-2.063266 -1.418479,-3.19685 -2.26746,-2.969367 -0.816749,0.218847 -1.310603,-0.161443 -1.596821,-1.229623 -0.2645,-0.987128 0.137473,-3.287707 0.793236,-4.539863 0.595371,-1.13684 2.398301,-2.631567 3.836246,-3.18045 1.737714,-0.663311 2.575657,-0.450959 6.478942,1.641908 3.950883,2.118393 5.282062,2.796242 5.419147,2.759511 0.05844,-0.01566 0.02815,-0.31966 -0.06721,-0.675581 -0.09537,-0.35592 -0.117661,-1.060632 -0.04955,-1.566026 0.145363,-1.078434 1.369045,-3.024445 2.009782,-3.19613 0.245307,-0.06573 0.71179,-0.612565 1.036629,-1.215187 0.791611,-1.468564 1.591073,-1.837738 3.723585,-1.719476 2.063636,0.114441 2.364658,0.05488 2.506718,-0.495969 0.05909,-0.229101 0.459471,-0.891065 0.889741,-1.471011 0.969434,-1.306662 2.460279,-1.818695 3.566873,-1.225048 l 0.715457,0.383815 0.20396,-0.972569 c 0.574586,-2.739765 1.654692,-4.016399 4.285898,-5.065707 1.008435,-0.402156 1.686223,-0.517748 2.440068,-0.416137 0.933579,0.125832 1.058611,0.230001 1.184109,0.986522 0.176442,1.06356 -0.637664,1.942184 -2.682816,2.895416 -1.265471,0.58983 -1.463871,0.776989 -1.454411,1.372029 0.006,0.378975 0.05039,0.698815 0.09862,0.710769 0.04824,0.01195 0.437935,0.09436 0.866083,0.183107 0.829135,0.171869 1.642856,1.027542 1.786964,1.879091 0.04811,0.284662 0.173393,0.764957 0.278718,1.067236 l 0.1907,0.549812 1.045701,-0.842635 c 0.895262,-0.721405 1.243325,-0.856429 2.419226,-0.938482 0.755437,-0.05271 1.992539,-0.315724 2.749133,-0.584469 1.050584,-0.373167 1.586331,-0.423814 2.2674,-0.21439 l 0.891784,0.274235 0.572783,-1.062731 c 1.381703,-2.563595 4.503504,-1.40499 5.637327,2.092195 0.203476,0.627633 0.459489,1.117162 0.5689,1.087846 0.1094,-0.02931 0.500237,-0.504823 0.868521,-1.056696 1.390882,-2.084241 4.341174,-3.766408 6.399821,-3.648988 0.547403,0.03122 1.524705,0.399318 2.171775,0.817992 0.86123,0.557245 1.46178,0.731675 2.24113,0.650933 1.70393,-0.176534 2.09984,0.0958 2.45319,1.687404 0.20524,0.924358 0.59733,1.758998 1.19118,2.535485 l 0.88527,1.157528 1.17548,-0.439223 c 1.05181,-0.39301 1.25335,-0.380972 1.91573,0.114785 0.9207,0.689063 1.17403,1.591962 0.98043,3.494393 -0.0829,0.814773 -0.14764,1.493283 -0.14382,1.50781 0.004,0.01451 0.54756,-0.175601 1.20831,-0.42253 0.90182,-0.33699 1.63847,-0.395235 2.95435,-0.233829 l 1.75297,0.215066 0.33461,-0.78113 c 0.50702,-1.183618 -0.12531,-3.299692 -1.15035,-3.84959 -1.01694,-0.545545 -1.77625,-1.56126 -1.78949,-2.393751 -0.0215,-1.354739 1.73814,-1.699906 3.75303,-0.736159 1.59019,0.760606 2.25426,1.757872 2.7495,4.12903 0.39654,1.898592 0.28877,3.221595 -0.46621,5.723363 l -0.38419,1.273085 1.00532,0.135501 c 0.55293,0.07453 1.38449,0.03391 1.84791,-0.09026 0.46342,-0.124174 1.33961,-0.10929 1.94707,0.03308 l 1.10449,0.258849 0.2474,-1.587608 c 0.13607,-0.873181 0.21576,-1.705693 0.17708,-1.850021 -0.0387,-0.144329 -0.67607,-0.913071 -1.41645,-1.708315 -1.49195,-1.602509 -1.75526,-2.209348 -1.39176,-3.20757 0.37387,-1.026742 1.31138,-1.11429 2.91705,-0.272411 1.76614,0.926024 2.9732,2.300445 3.44907,3.927274 0.50634,1.731012 0.0249,5.563757 -0.90015,7.165979 l -0.69164,1.197961 0.84083,1.244213 c 0.46245,0.684314 0.92339,1.537331 1.02431,1.895589 0.13363,0.474369 0.54261,0.783364 1.50507,1.137074 1.38576,0.509272 1.96047,1.235812 2.05617,2.599377 0.0373,0.531414 0.27754,0.863292 0.91342,1.261783 0.92395,0.579034 1.71334,1.720923 2.04882,2.963712 0.16063,0.595238 0.38783,0.796026 1.01052,0.893276 2.69375,0.42069 4.97833,3.189584 4.94693,5.995647 -0.0131,1.169664 0.0252,1.252893 0.7343,1.596663 0.41147,0.199482 1.65653,0.525236 2.76681,0.723905 2.22936,0.398912 7.06562,2.658686 7.54884,3.527245 0.47405,0.852079 0.11452,1.711071 -0.82109,1.961768 -1.48339,0.397472 -2.64504,0.202487 -4.37856,-0.734947 -1.65405,-0.89446 -2.24984,-1.06033 -3.68284,-1.025288 -0.6739,0.01648 -0.67575,0.03052 -0.19566,1.485394 0.36893,1.118018 0.42353,1.755697 0.22862,2.67039 -0.19462,0.913321 -0.16149,1.302499 0.13805,1.621978 0.58066,0.619316 0.85248,1.90168 0.64409,3.038666 l -0.18342,1.000794 1.46283,0.763281 c 0.80455,0.419811 1.6687,1.048565 1.92033,1.397245 0.73905,1.02409 2.21369,5.80894 2.19884,7.13475 -0.0112,0.99707 0.0746,1.2404 0.60336,1.71263 0.38385,0.3428 0.63508,0.82976 0.666,1.29092 0.0273,0.40726 0.072,0.97146 0.0993,1.25375 0.0342,0.35375 0.51314,0.7038 1.54092,1.12636 2.53616,1.0427 3.50395,2.29801 2.94824,3.82412 -0.20734,0.56938 -0.42687,0.72488 -1.12284,0.79536 -0.72,0.0729 -0.88392,0.2 -0.9772,0.75779 -0.1855,1.10904 -2.46301,5.08906 -3.33811,5.83346 -0.65464,0.55686 -1.25931,0.7846 -3.04175,1.14561 l -2.22469,0.45058 -0.22726,1.19639 c -0.14436,0.75993 -0.49245,1.42 -0.95417,1.80936 l -0.72691,0.61298 1.12164,0.60461 c 0.83421,0.44968 1.17857,0.81709 1.34381,1.43379 0.4076,1.52117 -1.04253,2.87431 -2.67217,2.49344 -0.56702,-0.13252 -0.57893,-0.0927 -0.20034,0.67 1.008,2.03069 1.10199,2.36124 0.91474,3.21686 -0.41895,1.91434 -2.70489,1.99705 -3.80765,0.13776 -0.29565,-0.49846 -0.61961,-0.86757 -0.71992,-0.82024 -0.70978,0.33497 -0.93796,0.23653 -1.07152,-0.46217 -0.0911,-0.4767 -0.0152,-0.73489 0.20919,-0.71154 0.19372,0.0202 0.32128,-0.0788 0.28374,-0.21894 -0.0377,-0.14056 -0.23851,-0.27341 -0.44632,-0.29523 -0.55744,-0.0585 -1.38541,1.6322 -1.07033,2.18561 0.14347,0.25198 0.21543,0.83644 0.1599,1.2988 -0.0555,0.46238 0.0411,1.29568 0.21459,1.85179 0.39289,1.25906 -0.002,2.68622 -0.98865,3.57346 -0.39993,0.35961 -0.75465,0.69409 -0.78826,0.74329 -0.0336,0.0492 0.29848,0.29706 0.73799,0.5508 1.07438,0.6203 2.19865,3.37134 1.83226,4.48349 -0.31789,0.96495 -2.5266,2.54699 -4.32759,3.09973 -2.138,0.65622 -2.84051,1.29298 -2.72996,2.47467 0.2208,2.36024 0.0999,3.10538 -0.73995,4.56001 -0.77054,1.33462 -0.82929,1.61652 -0.55392,2.65784 0.24027,0.90828 0.20187,1.34628 -0.17397,1.98848 -0.58841,1.00541 -1.23537,1.08775 -2.50309,0.31857 -0.91264,-0.55374 -0.95555,-0.63652 -1.31303,-2.53297 -0.20321,-1.07828 -0.25596,-2.08112 -0.11712,-2.22855 0.17961,-0.19072 0.0544,-0.38235 -0.4339,-0.66429 -0.93648,-0.54069 -1.18207,-0.42024 -1.80479,0.88513 -1.06627,2.23516 -3.38759,3.70831 -6.06653,3.84992 -0.96633,0.0511 -1.00464,0.0841 -0.83429,0.71987 0.0982,0.36648 0.0548,1.34581 -0.0964,2.1763 -0.20176,1.10828 -0.48559,1.6899 -1.06696,2.18635 -0.87626,0.74826 -2.01471,1.1554 -2.12105,0.75855 -0.0377,-0.14057 -0.23834,-0.21006 -0.44594,-0.15443 -0.52192,0.13985 -1.32943,-0.66242 -1.86056,-1.8485 -0.42236,-0.94319 -0.48701,-0.97971 -1.2414,-0.70124 -0.70855,0.26149 -0.7317,0.25279 -0.21108,-0.0796 0.53577,-0.34206 0.45839,-0.38122 -0.92386,-0.46761 l -1.50862,-0.0943 -0.48717,1.05783 c -0.26795,0.5818 -0.50254,1.24683 -0.52132,1.47784 -0.039,0.47981 -1.50223,2.31995 -1.93749,2.43657 -0.15884,0.0426 -0.69949,0.44755 -1.20145,0.89997 -1.09014,0.98256 -3.08325,1.4337 -4.07885,0.92324 -0.34753,-0.17817 -0.60074,-0.20781 -0.5627,-0.0658 0.038,0.14197 0.45923,0.44881 0.93598,0.68189 0.4893,0.23921 0.96657,0.71659 1.09585,1.09609 0.12599,0.36976 0.53831,0.85087 0.91631,1.0691 0.55555,0.32075 0.74801,0.66668 1.00418,1.8049 0.2139,0.95053 0.20931,1.44806 -0.0142,1.53106 -0.18208,0.0676 -0.47119,0.17501 -0.64246,0.23861 -0.17128,0.0636 -0.64946,-0.009 -1.06263,-0.16039 -0.41318,-0.15182 -0.61064,-0.31372 -0.4388,-0.35977 0.17184,-0.046 0.28546,-0.18434 0.25251,-0.30734 -0.0559,-0.20864 -1.60207,-0.27086 -2.00755,-0.0808 -0.10037,0.0471 -0.22332,-0.0576 -0.27319,-0.23254 -0.05,-0.17493 -0.863283,-0.9123 -1.807579,-1.63852 -0.944309,-0.72623 -1.835328,-1.41195 -1.980045,-1.52383 -0.144726,-0.11187 -0.559815,-0.47326 -0.922434,-0.80308 -0.548171,-0.49858 -0.693594,-0.5257 -0.862698,-0.16082 -0.111864,0.24136 -0.619761,0.76759 -1.128676,1.1694 -0.803557,0.63444 -1.08481,0.72798 -2.137792,0.71097 -0.66687,-0.0108 -1.293306,0.0238 -1.392073,0.0769 -0.09877,0.0531 -0.22744,-0.0821 -0.285949,-0.30051 -0.05851,-0.21835 -0.516691,-0.69966 -1.018188,-1.06956 -0.783285,-0.57776 -0.982229,-0.61452 -1.4114,-0.26079 -0.43476,0.35833 -0.44202,0.50758 -0.0559,1.15012 0.563702,0.93804 0.59326,1.07652 0.146203,0.68473 -0.313154,-0.27445 -0.37742,-0.24848 -0.502811,0.20316 -0.07906,0.28483 -0.31876,0.56476 -0.532664,0.62208 -0.505566,0.13546 -1.285353,-0.32063 -1.422356,-0.83194 -0.06972,-0.26019 -0.33729,-0.34007 -0.759834,-0.22685 -0.494709,0.13256 -0.667126,0.37693 -0.713964,1.01192 -0.04441,0.60211 -0.348321,1.06808 -1.082421,1.65962 -0.561363,0.45235 -1.15197,0.84898 -1.31245,0.88139 -0.160473,0.0324 -0.09618,-0.0854 0.142999,-0.26185 0.381404,-0.28141 0.32448,-0.33532 -0.463521,-0.43906 -1.000877,-0.13177 -1.445752,-0.72147 -1.630904,-2.16187 -0.09645,-0.75029 -0.208142,-0.92284 -0.541708,-0.8368 -0.36687,0.0942 -0.380581,0.0612 -0.108732,-0.26245 0.233503,-0.27801 0.0624,-0.27666 -0.683353,0.005 -1.706492,0.64537 -2.847307,0.28469 -5.013007,-1.5849 -0.570038,-0.49211 -0.914743,-0.64256 -0.935189,-0.40818 -0.01777,0.20415 -0.118512,0.0861 -0.223785,-0.26231 -0.42446,-1.40483 -1.678728,-4.93011 -1.935227,-5.43915 -0.311502,-0.61822 -0.721424,-0.59316 -1.172549,0.0717 -0.29881,0.44036 -2.328515,1.49737 -2.093428,1.0902 0.129287,-0.22393 -1.153645,-0.76233 -1.414647,-0.59367 -0.09169,0.0592 -0.146894,-0.081 -0.122641,-0.31166 0.02422,-0.23067 -0.08325,-0.38528 -0.238885,-0.34358 -0.155601,0.0417 -0.25349,0.18561 -0.217535,0.31979 0.09815,0.3663 -1.415064,1.00886 -2.202344,0.93521 -0.523939,-0.049 -0.776602,0.0743 -1.050886,0.51276 -0.537033,0.85854 -1.030029,1.04748 -2.547987,0.97656 -1.514186,-0.0708 -2.698876,-0.6735 -3.192665,-1.62437 -0.834808,-1.60758 -0.69635,-1.55816 -2.495136,-0.89049 -1.983054,0.73606 -2.82025,0.63209 -3.781775,-0.46965 -0.370007,-0.42396 -0.642137,-0.63452 -0.604731,-0.46792 0.107385,0.47843 -1.498488,1.38847 -2.849637,1.61485 -2.779486,0.4657 -4.980231,-1.73385 -3.884512,-3.8824 0.250262,-0.49072 0.191303,-0.54894 -0.68088,-0.67248 -1.910459,-0.27062 -3.08938,-1.45663 -3.695133,-3.71733 -0.470834,-1.75717 -0.380415,-2.5424 0.447222,-3.88386 l 0.669667,-1.08539 -1.076935,-0.47021 c -1.612121,-0.70389 -2.647693,-1.99744 -3.372962,-4.21326 -0.746877,-2.28182 -1.258575,-2.91625 -2.485729,-3.08192 -1.208198,-0.16312 -1.873142,-1.03071 -1.770688,-2.31031 0.05462,-0.6822 -0.02209,-0.99365 -0.281645,-1.14346 -0.489715,-0.28274 -0.863212,-1.8708 -0.645668,-2.74504 0.15637,-0.62826 0.08688,-0.81802 -0.546706,-1.49296 -0.39921,-0.42527 -0.764808,-0.91866 -0.812446,-1.09645 -0.04764,-0.17779 -0.381462,-0.24424 -0.74183,-0.14768 -0.392272,0.10511 -0.982657,-0.039 -1.471115,-0.35909 -2.986855,-1.95727 -4.098104,-2.74096 -4.484917,-3.16293 -0.732976,-0.7996 -1.105193,-2.81507 -0.858732,-4.64993 z m 4.216623,2.34104 c 0.7922,0.51161 1.037391,0.33322 1.620853,-1.17934 l 0.521434,-1.35177 -0.851491,-0.18634 c -1.191994,-0.26087 -1.489409,-0.12433 -1.772611,0.81373 -0.312991,1.03673 -0.205979,1.45952 0.481834,1.90371 z m 2.387401,-6.86421 c 0.111092,-0.11797 0.105468,-0.30537 -0.01251,-0.41645 -0.117972,-0.11109 -0.305365,-0.10548 -0.416452,0.0125 -0.111091,0.11797 -0.105479,0.30537 0.01251,0.41645 0.117973,0.11109 0.305375,0.10548 0.416462,-0.0125 z M 24.182675,89.077661 c 0.34076,-0.09131 0.333383,-0.118835 -0.06638,-0.247741 -0.247351,-0.07976 -0.622243,-0.0988 -0.833085,-0.0423 -0.34076,0.09131 -0.333383,0.118835 0.06638,0.247741 0.247354,0.07977 0.622243,0.0988 0.833085,0.0423 z m 4.26899,-15.905834 c 0.34463,0.08055 1.243378,0.469829 1.997215,0.86509 1.691196,0.88672 2.576494,0.672602 2.369664,-0.573144 -0.150081,-0.903978 -0.263966,-0.973543 -2.574899,-1.56345 -1.517462,-0.387516 -1.670988,-0.378607 -2.090345,0.121325 -0.569527,0.678928 -0.495411,0.964651 0.298835,1.150042 z m 31.17321,94.520943 c 0.187654,-0.13632 0.350939,-0.16247 0.362878,-0.0581 0.07735,0.67659 0.260703,0.53462 0.38446,-0.2977 0.164917,-1.10924 -0.192225,-1.49041 -0.945144,-1.00873 -0.329183,0.21058 -0.433841,0.52833 -0.317295,0.96328 0.125828,0.4696 0.268241,0.58053 0.515094,0.40122 z M 41.467258,61.171734 c 0.05612,-0.01504 0.592383,-0.590148 1.191622,-1.278003 0.599238,-0.687856 1.250476,-1.293772 1.447196,-1.346483 0.196721,-0.05271 0.328676,-0.204057 0.293235,-0.336324 -0.216853,-0.809305 -1.533083,0.01899 -2.519731,1.585653 -0.548662,0.871199 -0.724876,1.458906 -0.412322,1.375157 z M 76.074549,171.71494 c 0.403323,0.55525 0.980431,0.2775 0.645555,-0.31069 -0.195932,-0.34412 -0.315666,-0.38355 -0.392083,-0.1291 -0.0779,0.25935 -0.184128,0.23459 -0.363824,-0.0848 -0.139571,-0.24811 -0.231142,-0.31318 -0.203448,-0.14461 0.02768,0.16859 0.168925,0.46971 0.3138,0.66919 z m 32.960611,-4.15278 c 0.11729,-0.1245 0.18242,-0.34144 0.14476,-0.482 -0.0377,-0.14056 -0.16444,-0.15367 -0.28172,-0.0291 -0.1173,0.12451 -0.18243,0.34143 -0.14476,0.48201 0.0377,0.14056 0.16443,0.15366 0.28172,0.0291 z M 97.714513,52.476113 c 0.942175,-0.383583 1.997425,-1.490406 1.870953,-1.962405 -0.09707,-0.362271 -1.081309,-0.16237 -1.748285,0.355099 -0.527683,0.409384 -1.272789,1.659653 -1.184796,1.988049 0.0069,0.0256 0.484818,-0.145747 1.06212,-0.380772 z m 50.932287,69.174867 1.53069,0.0667 0.26131,-0.73833 c 0.14372,-0.40608 0.76068,-1.65274 1.37101,-2.77036 l 1.1097,-2.03202 -1.34147,-0.71352 c -1.79559,-0.95507 -2.54748,-0.75287 -2.59007,0.69607 -0.0338,1.15328 -0.94664,2.73909 -1.6916,2.93871 -0.65272,0.17489 -0.72893,0.43835 -0.43938,1.51897 0.25403,0.94806 0.2884,0.9679 1.7897,1.03334 z m -2.52484,-16.01733 c 0.37193,0.27836 0.85816,0.90709 1.08051,1.39719 0.67491,1.48765 0.77226,1.58519 1.10842,1.11057 0.22052,-0.31133 0.14447,-0.97818 -0.29896,-2.62142 -0.77275,-2.86347 -1.00884,-3.07425 -1.87486,-1.6736 -0.37026,0.59883 -0.67728,1.13207 -0.68228,1.18497 -0.005,0.0529 0.29523,0.32393 0.66717,0.60229 z"
       id="path1"
       sodipodi:nodetypes="cssssscssssssscsssssssssssssssssssscccssssscssssscssssssssssssssscssssscsscccsssscssssssscscscsscccsssssscssscssssssscssssscsssssssssssscssssssssscsscsscsssssssssssssssssscsscsscsssssssssscsscsssssssssssssssscsssssssssssssssssssssscsssssssssssssssssssssssscsssscssssssccsscssssssssssssssscsscsccscssssssssssscsssscssssscsssccccsscscssccssscsss" /></g></svg>
