<?xml version="1.0" encoding="UTF-8" standalone="no"?>
<svg
   viewBox="0 0 255.99999 256"
   version="1.1"
   id="svg8"
   sodipodi:docname="discord-white.svg"
   inkscape:export-filename="discord-logo-blue.png"
   inkscape:export-xdpi="566.18237"
   inkscape:export-ydpi="566.18237"
   inkscape:version="1.4 (86a8ad7, 2024-10-11)"
   width="256"
   height="256"
   xmlns:inkscape="http://www.inkscape.org/namespaces/inkscape"
   xmlns:sodipodi="http://sodipodi.sourceforge.net/DTD/sodipodi-0.dtd"
   xmlns="http://www.w3.org/2000/svg"
   xmlns:svg="http://www.w3.org/2000/svg">
  <defs
     id="defs8" />
  <sodipodi:namedview
     id="namedview8"
     pagecolor="#505050"
     bordercolor="#ffffff"
     borderopacity="1"
     inkscape:showpageshadow="0"
     inkscape:pageopacity="0"
     inkscape:pagecheckerboard="1"
     inkscape:deskcolor="#505050"
     inkscape:zoom="3.1926395"
     inkscape:cx="185.42651"
     inkscape:cy="124.81835"
     inkscape:window-width="3440"
     inkscape:window-height="1377"
     inkscape:window-x="-8"
     inkscape:window-y="-8"
     inkscape:window-maximized="1"
     inkscape:current-layer="svg8" />
  <path
     d="M 216.20937,47.825604 A 210.18044,210.18044 0 0 0 163.7792,31.69478 a 144.03806,144.03806 0 0 0 -6.71618,13.652234 195.24893,195.24893 0 0 0 -58.1869,0 A 144.6577,144.6577 0 0 0 92.159941,31.69478 211.65959,211.65959 0 0 0 39.689792,47.86558 C 6.5086688,96.95765 -2.4862147,144.83042 2.0112277,192.02358 v 0 a 211.33977,211.33977 0 0 0 64.3034173,32.28164 155.31165,155.31165 0 0 0 13.772166,-22.20738 136.76219,136.76219 0 0 1 -21.687663,-10.3541 c 1.818966,-1.31926 3.597953,-2.67848 5.316976,-3.99774 a 151.05407,151.05407 0 0 0 128.566856,0 c 1.739,1.41921 3.51799,2.77844 5.31697,3.99774 a 137.28191,137.28191 0 0 1 -21.72763,10.37409 153.91244,153.91244 0 0 0 13.77216,22.18739 210.38032,210.38032 0 0 0 64.34339,-32.26165 v 0 C 259.26488,137.3147 244.973,89.881677 216.20937,47.825604 Z M 85.78357,163.00009 c -12.532871,0 -22.88698,-11.37352 -22.88698,-25.36556 0,-13.99207 9.994314,-25.46554 22.847002,-25.46554 12.852685,0 23.126848,11.47347 22.906968,25.46554 -0.21987,13.99204 -10.094253,25.36556 -22.86699,25.36556 z m 84.43196,0 c -12.55286,0 -22.86699,-11.37352 -22.86699,-25.36556 0,-13.99207 9.99432,-25.46554 22.86699,-25.46554 12.87267,0 23.06689,11.47347 22.84702,25.46554 -0.21988,13.99204 -10.07428,25.36556 -22.84702,25.36556 z"
     id="path7"
     style="fill:#ffffff;fill-opacity:1;stroke-width:1.99887" />
</svg>
