<?xml version="1.0" encoding="UTF-8" standalone="no"?>
<!-- Created with Inkscape (http://www.inkscape.org/) -->

<svg
   xmlns:dc="http://purl.org/dc/elements/1.1/"
   xmlns:cc="http://creativecommons.org/ns#"
   xmlns:rdf="http://www.w3.org/1999/02/22-rdf-syntax-ns#"
   xmlns:svg="http://www.w3.org/2000/svg"
   xmlns="http://www.w3.org/2000/svg"
   xmlns:sodipodi="http://sodipodi.sourceforge.net/DTD/sodipodi-0.dtd"
   xmlns:inkscape="http://www.inkscape.org/namespaces/inkscape"
   width="2969.7852"
   height="1438.7812"
   viewBox="0 0 785.75564 380.67756"
   version="1.1"
   id="svg8"
   inkscape:version="0.92.4 (5da689c313, 2019-01-14)"
   sodipodi:docname="Alcyoneus.svg"
   inkscape:export-filename="G:\Pictures\My Pictures\Vectors and SVGs\Space\Alcyoneus.png"
   inkscape:export-xdpi="96"
   inkscape:export-ydpi="96">
  <defs
     id="defs2">
    <inkscape:path-effect
       effect="roughen"
       id="path-effect1011"
       is_visible="true"
       method="segments"
       max_segment_size="10"
       segments="2"
       displace_x="10;1"
       displace_y="10;1"
       global_randomize="1;1"
       handles="along"
       shift_nodes="true"
       fixed_displacement="false"
       spray_tool_friendly="false" />
  </defs>
  <sodipodi:namedview
     id="base"
     pagecolor="#000720"
     bordercolor="#666666"
     borderopacity="1.0"
     inkscape:pageopacity="0"
     inkscape:pageshadow="2"
     inkscape:zoom="0.22627418"
     inkscape:cx="1747.537"
     inkscape:cy="430.70921"
     inkscape:document-units="mm"
     inkscape:current-layer="layer1"
     showgrid="false"
     inkscape:pagecheckerboard="true"
     inkscape:showpageshadow="false"
     borderlayer="true"
     units="px"
     inkscape:snap-object-midpoints="true"
     inkscape:window-width="1600"
     inkscape:window-height="837"
     inkscape:window-x="-8"
     inkscape:window-y="-8"
     inkscape:window-maximized="1"
     inkscape:snap-page="true"
     inkscape:snap-global="false"
     fit-margin-top="0"
     fit-margin-left="0"
     fit-margin-right="0"
     fit-margin-bottom="0" />
  <metadata
     id="metadata5">
    <rdf:RDF>
      <cc:Work
         rdf:about="">
        <dc:format>image/svg+xml</dc:format>
        <dc:type
           rdf:resource="http://purl.org/dc/dcmitype/StillImage" />
        <dc:title></dc:title>
      </cc:Work>
    </rdf:RDF>
  </metadata>
  <g
     inkscape:label="Layer 1"
     inkscape:groupmode="layer"
     id="layer1"
     transform="translate(-3.997172,85.161707)">
    <path
       style="opacity:1;fill:#555555;fill-opacity:1;fill-rule:nonzero;stroke:none;stroke-width:931.71142578;stroke-linecap:round;stroke-linejoin:round;stroke-miterlimit:4;stroke-dasharray:none;stroke-dashoffset:0;stroke-opacity:1;paint-order:markers stroke fill"
       d="M 1500,5.609375 A 1484.8926,719.39156 0 0 0 15.107422,725 1484.8926,719.39156 0 0 0 1500,1444.3906 1484.8926,719.39156 0 0 0 2984.8926,725 1484.8926,719.39156 0 0 0 1500,5.609375 Z m 56.3438,514.136715 c 4.9096,-0.0145 -26.5215,29.25538 -21.6426,29.34571 2.6552,0.0492 5.4208,0.0716 8.1465,0.10351 0.8492,-0.0243 1.7063,-0.0572 2.5527,-0.0781 13.5935,-0.33671 26.5269,-0.2744 38.9316,0.17383 64.4379,-0.17407 136.3766,-0.52921 179.4453,14.77734 54.621,19.41218 82.8329,58.00718 96.7989,84.63281 l 11.9433,33.10352 -11.0703,14.16211 c -25.0737,-35.49044 -77.0844,-95.54515 -131.8574,-117.13477 -44.7837,-17.65219 -89.6472,-27.53153 -145.2598,-29.54101 -14.3189,0.0387 -28.3216,0.0583 -41.4843,-0.0957 -85.9207,2.45668 -186.1131,21.84234 -241.8243,50.92188 -56.2617,29.36697 -86.1206,72.47897 -81.3203,116.84765 4.3402,40.11504 40.5528,79.27063 95.4844,103.37305 54.9315,24.10243 128.7657,37.79812 208.7773,35.25 71.2912,-2.27044 135.712,-15.91118 180.1622,-44.11719 44.4501,-28.20601 70.3152,-63.45135 65.0234,-100.13476 -2.9524,-20.46601 -16.3236,-46.58762 -35.6563,-66.43946 -4.1807,-2.07686 -8.456,-4.10838 -12.8398,-6.07812 -18.2356,-8.19371 -38.889,-15.8269 -60.877,-22.27344 -29.3856,3.89217 -62.9987,18.6702 -107.9375,20.67383 -54.537,2.43158 -153.3853,20.0702 -186.371,41.16016 -32.9859,21.08995 -25.1376,19.33377 -19.0352,47.53515 4.9731,22.98248 4.5475,25.66265 32.5801,40.22071 19.4474,10.09952 49.4354,23.71057 81.4433,29.95507 15.1386,-7.03199 32.0322,-14.23218 52.9571,-15.78711 28.4871,-2.11688 64.0647,-5.19616 92.4062,-9.91796 0.9988,-0.55699 1.9702,-1.11302 2.877,-1.66602 21.622,-13.18704 37.4684,-25.61792 29.541,-43.93555 -2.559,-5.91303 -31.1595,-4.98475 -39.4688,-12.40234 -8.3092,-7.41756 3.2447,-25.02462 -6.7422,-28.53125 -9.9868,-3.50663 -28.5255,2.58521 -41.6503,0.44922 -13.1249,-2.13599 -15.6627,-3.91523 -27.6094,-1.25195 -4.1179,0.91797 -11.5993,9.33091 -18.961,16.16601 5.8377,0.69356 18.8778,6.2542 24.625,-2.24023 l 0.9942,16.33789 a 31.339377,12.53575 0 0 1 11.3144,-0.84571 31.339377,12.53575 0 0 1 31.3399,12.53516 31.339377,12.53575 0 0 1 -31.3399,12.53516 31.339377,12.53575 0 0 1 -31.3222,-12.35743 c -0.7831,1.7305 -1.7638,2.77187 -3.1934,2.47461 -5.7231,-1.18998 -10.5833,-5.61137 -14.1543,-7.7832 -3.5709,-2.17187 -0.094,-2.4273 -1.7246,-5.5332 -0.6301,-1.19999 -2.0329,-2.81503 -3.4551,-4.47071 -0.053,0.0168 -0.08,0.0255 -0.1289,0.041 -1.3177,1.71992 -2.1683,2.75845 -2.0547,2.35547 0.5679,-2.01347 0.3237,-1.81236 2.0547,-2.35547 0.033,-0.0425 0.047,-0.0563 0.08,-0.0996 -2.2432,-2.61239 -4.5394,-5.34939 -4.0859,-6.95703 1.4889,-5.27892 5.6538,-12.66712 12.4961,-19.95703 6.8423,-7.28991 18.411,-12.52105 28.5058,-14.77149 15.2154,-3.39197 50.06,8.15506 64.5274,9.38086 14.4673,1.2258 6.8624,3.22405 18.9902,7.48243 12.1278,4.25836 21.1266,8.29953 27.8711,13.04882 6.7445,4.74929 12.1944,9.56903 15.3301,16.81446 9.258,21.39254 13.8619,40.02214 -14.2188,48.79492 -8.2126,2.56573 -18.7224,4.7904 -30.4375,6.74219 -22.8196,12.7252 -68.8788,26.23408 -102.5254,28.73437 -14.1856,1.05414 -28.7078,-0.27262 -42.8379,-3.0293 -22.5953,10.49572 -41.2401,20.61242 -63.2226,10.98828 -36.7106,-16.0722 -68.8712,-59.2972 -74.4121,-84.90429 -6.7309,-31.10593 6.5098,-59.29553 42.6953,-82.10938 36.1854,-22.81384 93.1092,-40.00633 152.8496,-42.66992 46.7565,-2.08468 96.8402,6.08316 141.4101,19.15039 12.5741,-1.66545 24.3799,-1.35098 35.959,2.83203 13.9667,5.04552 26.8141,14.28195 37.7578,25.51953 48.4625,24.07448 82.6412,55.08032 87.25,87.0293 5.7026,39.53076 -71.0589,91.46532 -124.7207,116.37305 -53.6617,24.90777 -110.4453,12.38856 -186.9863,14.82617 -85.5905,2.7258 -140.9212,3.54055 -198.5664,-22.59961 -57.6452,-26.14019 -100.0719,-69.4311 -104.7012,-112.21875 -5.1054,-47.18801 1.2114,-73.38216 53.2461,-107.22461 52.0348,-33.84244 144.5541,-81.48496 236.3125,-83.75781 4.9359,-0.12227 56.1058,-17.56376 61.0157,-17.57813 z m -38.4336,188.82618 c -4.4936,0 -5.7337,7.39114 -7.2774,12.98828 a 31.339377,12.53575 0 0 1 12.1152,-6.80664 z m -11.4922,3.05273 c 0.3776,0.94942 0.7039,1.60566 0.9316,1.74414 0.3626,0.22053 -0.1151,-0.52494 -0.9316,-1.74414 z"
       transform="matrix(0.26458333,0,0,0.26458333,0,-86.645854)"
       id="ellipse853"
       inkscape:connector-curvature="0" />
  </g>
</svg>
