<?xml version="1.0" encoding="UTF-8" standalone="no"?>
<!-- Created with Inkscape (http://www.inkscape.org/) -->

<svg
   xmlns:dc="http://purl.org/dc/elements/1.1/"
   xmlns:cc="http://creativecommons.org/ns#"
   xmlns:rdf="http://www.w3.org/1999/02/22-rdf-syntax-ns#"
   xmlns:svg="http://www.w3.org/2000/svg"
   xmlns="http://www.w3.org/2000/svg"
   xmlns:sodipodi="http://sodipodi.sourceforge.net/DTD/sodipodi-0.dtd"
   xmlns:inkscape="http://www.inkscape.org/namespaces/inkscape"
   width="37.030704mm"
   height="188.2805mm"
   viewBox="0 0 37.030705 188.28051"
   version="1.1"
   id="svg8"
   inkscape:version="0.92.4 (5da689c313, 2019-01-14)"
   sodipodi:docname="Starlink_Satellite-side.svg">
  <defs
     id="defs2" />
  <sodipodi:namedview
     id="base"
     pagecolor="#ffffff"
     bordercolor="#666666"
     borderopacity="1.0"
     inkscape:pageopacity="0.0"
     inkscape:pageshadow="2"
     inkscape:zoom="0.7"
     inkscape:cx="151.40837"
     inkscape:cy="363.59703"
     inkscape:document-units="mm"
     inkscape:current-layer="layer1"
     showgrid="false"
     inkscape:pagecheckerboard="true"
     inkscape:showpageshadow="false"
     borderlayer="true"
     fit-margin-top="0"
     fit-margin-left="0"
     fit-margin-right="0"
     fit-margin-bottom="0"
     inkscape:window-width="1600"
     inkscape:window-height="837"
     inkscape:window-x="-8"
     inkscape:window-y="-8"
     inkscape:window-maximized="1" />
  <metadata
     id="metadata5">
    <rdf:RDF>
      <cc:Work
         rdf:about="">
        <dc:format>image/svg+xml</dc:format>
        <dc:type
           rdf:resource="http://purl.org/dc/dcmitype/StillImage" />
        <dc:title></dc:title>
      </cc:Work>
    </rdf:RDF>
  </metadata>
  <g
     inkscape:label="Layer 1"
     inkscape:groupmode="layer"
     id="layer1"
     transform="translate(-68.139347,-79.995077)">
    <path
       style="fill:#555555;fill-opacity:1;stroke-width:0.04681266"
       d="m 68.468197,264.40275 0.32841,0.14592 v 0.62296 0.62295 h 0.30428 0.30428 v 0.35109 0.3511 h 1.17032 1.17032 v -0.21066 -0.21066 h 0.20683 c 0.27889,0 0.35492,-0.0362 0.35492,-0.16885 0,-0.10322 0.0184,-0.11202 0.23406,-0.11202 h 0.23407 v -0.18725 -0.18725 h 2.457662 2.457665 v 0.46812 0.46813 h 2.185595 2.185589 l -0.453521,0.3114 c -0.249441,0.17126 -0.453525,0.32643 -0.453525,0.3448 0,0.0184 0.142193,0.0448 0.315985,0.0586 0.271279,0.0216 1.222265,0.27825 3.435371,0.92696 0.225923,0.0662 0.317278,0.11648 0.33501,0.18429 0.02166,0.0828 0.06425,0.0932 0.381369,0.0932 0.32355,0 0.360504,-0.01 0.394561,-0.10158 0.03249,-0.0878 0.27765,-0.17015 1.812483,-0.60853 1.242315,-0.35484 1.848656,-0.50697 2.020674,-0.50699 0.135171,-2e-5 0.245261,-0.0158 0.244647,-0.0351 -0.0015,-0.0487 -0.609978,-0.47268 -1.005353,-0.70056 -0.435386,-0.25094 -0.891491,-0.4454 -1.40438,-0.59876 -0.231723,-0.0693 -0.44238,-0.13278 -0.468127,-0.14109 -0.02575,-0.008 0.07431,-0.0168 0.22236,-0.0188 0.206416,-0.003 0.269173,-0.0201 0.269173,-0.0739 0,-0.052 0.05462,-0.0702 0.210657,-0.0702 0.156041,0 0.210657,0.0182 0.210657,0.0702 0,0.0619 0.48893,0.0702 4.119515,0.0702 3.630583,0 4.119515,-0.008 4.119515,-0.0702 0,-0.0609 0.189851,-0.0702 1.427786,-0.0702 1.237935,0 1.427786,0.009 1.427786,0.0702 0,0.0539 0.05982,0.0702 0.25747,0.0702 h 0.25747 v 0.51494 0.51494 h 2.715139 2.71513 v -2.36404 -2.36404 h -2.20019 -2.2002 v -1.06732 c 0,-1.12937 -0.009,-1.17968 -0.22002,-1.17968 h -0.10767 v -89.8101 -89.810093 h -0.11703 -0.11703 V 170.71802 261.441 h 0.1136 c 0.0688,0 0.12203,-0.0323 0.135,-0.0819 0.0118,-0.0451 0.0239,0.0497 0.0268,0.21065 l 0.005,0.29258 h -0.3745 -0.374499 v 0.63668 0.63669 l -11.878715,-0.0236 c -6.533293,-0.0129 -11.915579,-0.0384 -11.960637,-0.0565 -0.183903,-0.074 -0.05846,-0.11659 0.343774,-0.11659 0.381027,0 0.428172,-0.009 0.449299,-0.0903 0.02331,-0.0891 0.02561,-0.0891 0.184329,2e-5 0.141889,0.0797 0.164013,0.0817 0.188754,0.0172 0.01678,-0.0437 -0.02164,-0.12488 -0.09579,-0.20227 l -0.12382,-0.12924 0.18667,-0.15002 c 0.390175,-0.31355 0.553893,-0.81472 0.399963,-1.22436 -0.04354,-0.11586 -0.110347,-0.30545 -0.148457,-0.42131 -0.184292,-0.56022 -0.286933,-0.61864 -1.107588,-0.63039 -0.687219,-0.01 -1.14514,0.0335 -1.444699,0.1367 -0.195743,0.0674 -0.203008,0.0662 -0.329969,-0.0554 -0.09976,-0.0956 -0.142615,-0.11158 -0.185064,-0.0691 -0.04245,0.0425 -0.0311,0.081 0.04904,0.16626 l 0.104284,0.11101 -0.107248,0.0704 c -0.193125,0.12677 -0.421295,0.38403 -0.509841,0.57486 -0.120444,0.25958 -0.116133,0.6547 0.0097,0.89125 0.05427,0.10199 0.115393,0.26857 0.135831,0.37016 0.03159,0.15705 0.02019,0.20696 -0.07614,0.33326 -0.21127,0.27699 -0.153892,0.30125 0.71269,0.30125 0.422068,0 0.7674,0.0135 0.7674,0.0299 0,0.0165 -0.03686,0.0579 -0.08192,0.0921 -0.06119,0.0464 -0.304048,0.0626 -0.95966,0.0637 l -0.877737,0.001 v -1.40438 -1.40438 l -1.322463,0.002 -1.32245,0.002 -1.28735,0.62299 -1.28735,0.62298 -0.0124,1.34444 -0.0124,1.34443 0.32841,0.14592 z m 6.382018,-3.54021 c 0.313229,-0.26549 0.312129,-0.19114 -0.0013,0.0852 -0.143766,0.12675 -0.251669,0.20129 -0.239788,0.16565 0.01188,-0.0357 0.120355,-0.14851 0.241048,-0.25081 z m 10.646812,6.21892 c 0.0917,0.0223 0.105328,0.0558 0.105328,0.25883 0,0.12824 -0.02107,0.23317 -0.04681,0.23317 -0.02575,0 -0.04681,0.0515 -0.04681,0.11438 0,0.12338 -0.153705,0.26012 -0.292406,0.26012 -0.04638,0 -0.763192,-0.19486 -1.592918,-0.43302 l -1.508595,-0.43301 1.638444,-0.0131 c 0.901143,-0.007 1.685841,-0.002 1.743772,0.0126 z m -1.135208,-1.66138 c 0.09012,0 0.163845,0.0188 0.163845,0.0417 0,0.0229 -0.07373,0.0503 -0.163845,0.0608 -0.112991,0.0132 -0.163844,2.5e-4 -0.163844,-0.0417 0,-0.0383 0.06067,-0.0608 0.163844,-0.0608 z m 1.392677,1.66138 c 0.05793,-0.0141 0.839571,-0.0198 1.73698,-0.0126 l 1.63165,0.0131 -1.561431,0.4496 -1.561432,0.4496 -0.128735,-0.09 c -0.08048,-0.0563 -0.128735,-0.13267 -0.128735,-0.20384 0,-0.0626 -0.02107,-0.11384 -0.04681,-0.11384 -0.02575,0 -0.04681,-0.10493 -0.04681,-0.23317 0,-0.203 0.01363,-0.23649 0.105328,-0.25883 z"
       id="path869"
       inkscape:connector-curvature="0" />
  </g>
</svg>
