<?xml version="1.0" encoding="UTF-8" standalone="no"?>
<!-- Created with Inkscape (http://www.inkscape.org/) -->

<svg
   width="268.0271mm"
   height="343.65109mm"
   viewBox="0 0 268.0271 343.65109"
   version="1.1"
   id="svg1"
   xml:space="preserve"
   inkscape:version="1.3 (0e150ed6c4, 2023-07-21)"
   sodipodi:docname="Lightning-front.svg"
   xmlns:inkscape="http://www.inkscape.org/namespaces/inkscape"
   xmlns:sodipodi="http://sodipodi.sourceforge.net/DTD/sodipodi-0.dtd"
   xmlns="http://www.w3.org/2000/svg"
   xmlns:svg="http://www.w3.org/2000/svg"><sodipodi:namedview
     id="namedview1"
     pagecolor="#505050"
     bordercolor="#ffffff"
     borderopacity="1"
     inkscape:showpageshadow="0"
     inkscape:pageopacity="0"
     inkscape:pagecheckerboard="1"
     inkscape:deskcolor="#505050"
     inkscape:document-units="mm"
     inkscape:zoom="0.41512267"
     inkscape:cx="551.64417"
     inkscape:cy="745.56275"
     inkscape:window-width="1600"
     inkscape:window-height="837"
     inkscape:window-x="-8"
     inkscape:window-y="-8"
     inkscape:window-maximized="1"
     inkscape:current-layer="layer1" /><defs
     id="defs1" /><g
     inkscape:label="Layer 1"
     inkscape:groupmode="layer"
     id="layer1"
     transform="translate(38.148992,21.077326)"><path
       style="fill:#ffffff;fill-opacity:1"
       d="m 151.77682,320.54447 c -0.0248,-1.11566 -0.096,-2.42535 -0.15833,-2.91042 -0.0623,-0.48507 -0.17924,-5.08882 -0.25982,-10.23056 l -0.1465,-9.34861 -0.79511,-3.52778 -0.79511,-3.52777 0.0212,-3.72079 0.0212,-3.72078 2.1229,-4.45173 c 1.1676,-2.44845 2.22263,-4.84909 2.34453,-5.33474 l 0.22162,-0.88301 -1.00123,-0.64305 c -0.55068,-0.35368 -1.30898,-0.92214 -1.68511,-1.26323 -0.37614,-0.3411 -0.8127,-0.62017 -0.97014,-0.62017 -0.15744,0 -0.28626,-0.16984 -0.28626,-0.37741 0,-0.20758 -0.47744,-1.07135 -1.06098,-1.9195 l -1.06098,-1.54208 0.0851,-2.57842 0.0852,-2.57843 -0.75353,-1.5875 c -1.06056,-2.23432 -1.47529,-4.02884 -1.58985,-6.87916 l -0.0992,-2.46945 -1.98897,-2.1452 c -1.09394,-1.17986 -2.26747,-2.57023 -2.60785,-3.08971 l -0.61886,-0.94451 -0.0902,-1.82168 -0.0902,-1.82168 -0.93551,-0.68148 c -1.15428,-0.84083 -1.81449,-2.09002 -2.14,-4.04912 l -0.24933,-1.5006 -1.96309,-2.90912 c -1.0797,-1.60001 -1.98772,-2.94483 -2.01782,-2.98849 -0.0301,-0.0436 -0.61941,-0.16911 -1.30959,-0.27879 l -1.25486,-0.19943 -0.17543,1.5564 c -0.0965,0.85602 -0.4094,2.0254 -0.69535,2.59862 l -0.51993,1.04221 0.27698,0.74875 0.27698,0.74876 -0.14363,2.39948 c -0.17077,2.85294 -0.28417,3.43159 -1.01543,5.18174 l -0.55678,1.33257 0.53232,1.02939 c 0.29277,0.56617 0.42942,1.02939 0.30367,1.02939 -0.12575,0 -0.0282,0.24153 0.2168,0.53673 l 0.44545,0.53673 -1.4208,1.35157 -1.42079,1.35156 -0.25565,1.55129 c -0.1406,0.85321 -0.46755,2.06636 -0.72654,2.69589 l -0.47089,1.14461 0.52433,2.01304 0.52433,2.01304 -0.758,1.02524 -0.75799,1.02525 0.41662,2.16711 c 0.22914,1.19191 0.49445,2.49506 0.58958,2.8959 l 0.17295,0.72879 -1.43305,1.73419 -1.43305,1.73418 v 0.82786 0.82786 l 1.57864,1.47167 1.57864,1.47166 0.53192,1.76389 0.53192,1.76389 -0.19246,0.70555 c -0.29564,1.08387 -0.80865,2.28075 -1.92871,4.49976 l -1.02481,2.03031 0.40082,0.8797 0.40081,0.8797 -0.46124,1.92268 -0.46124,1.92268 0.45486,2.14341 c 0.54366,2.56184 0.25923,3.13595 -0.55075,1.11163 -0.32022,-0.80033 -0.717,-1.45515 -0.88171,-1.45515 -0.16472,0 -0.90154,0.86711 -1.63739,1.9269 -1.22485,1.76406 -2.21985,2.48098 -2.21985,1.59944 0,-0.19482 0.86592,-1.6404 1.92427,-3.21241 l 1.92427,-2.8582 0.22651,-1.51044 0.2265,-1.51044 -0.55438,-0.84608 -0.55437,-0.84609 1.41701,-3.60971 1.41702,-3.60972 -0.35146,-1.27288 -0.35146,-1.27288 -1.57517,-1.45472 -1.57518,-1.45471 -0.21901,-1.62608 -0.21902,-1.62608 1.34726,-1.72531 c 0.74099,-0.94892 1.33374,-1.88406 1.31722,-2.07808 -0.0165,-0.19403 -0.24203,-1.48731 -0.50113,-2.87396 l -0.47107,-2.52118 0.73873,-1.03746 0.73873,-1.03745 -0.48855,-1.85204 -0.48856,-1.85203 0.66076,-1.82128 c 0.36342,-1.0017 0.75931,-2.57533 0.87976,-3.49697 0.12044,-0.92163 0.34373,-1.67569 0.49618,-1.67569 0.15245,0 0.63259,-0.30825 1.06698,-0.68499 l 0.78981,-0.685 -0.45508,-1.25848 -0.45507,-1.25849 0.43631,-1.4961 c 0.23997,-0.82286 0.61316,-2.53591 0.82931,-3.80679 l 0.39301,-2.31069 -0.33471,-1.39348 -0.33471,-1.39348 0.63575,-2.0599 c 0.95795,-3.10383 0.80513,-4.27415 -0.7905,-6.05399 -0.34789,-0.38805 -1.44578,-2.61055 -2.43974,-4.93889 l -1.8072,-4.23333 -0.98212,-0.98971 -0.98212,-0.98972 -0.0961,4.16472 c -0.0529,2.29059 -0.1507,4.79971 -0.2174,5.57582 -0.0667,0.77611 -0.13065,2.16517 -0.1421,3.08681 l -0.0208,1.67569 h -0.48166 -0.48166 l -0.0683,-6.77018 c -0.0376,-3.7236 -0.14204,-6.88941 -0.2321,-7.03514 -0.0901,-0.14573 -0.33327,-1.18193 -0.54045,-2.30266 -0.40774,-2.20568 -1.33604,-4.2979 -2.23971,-5.04787 l -0.5677,-0.47116 -1.07705,1.02392 c -1.39578,1.32693 -2.61485,3.44085 -3.13351,5.43365 -0.22724,0.87312 -0.96224,2.84289 -1.63332,4.37726 l -1.22015,2.78976 8.8e-4,2.32552 c 4.8e-4,1.27903 0.16687,3.18062 0.36977,4.22575 0.20289,1.04512 0.36889,3.20308 0.36889,4.79546 v 2.89524 l 0.68398,1.98802 0.68398,1.98802 -0.32053,0.19809 -0.32052,0.1981 -0.57487,-1.33714 c -0.96861,-2.253 -1.17189,-3.22351 -1.24373,-5.93778 -0.038,-1.43744 -0.27588,-3.76846 -0.52852,-5.18005 -0.25264,-1.41159 -0.46271,-3.51903 -0.46683,-4.6832 l -0.007,-2.11667 1.06803,-2.11666 1.06804,-2.11667 0.45304,-2.29305 0.45304,-2.29306 1.28996,-1.94028 c 0.70947,-1.06715 1.62389,-2.35727 2.03203,-2.86692 l 0.74208,-0.92665 0.0518,-1.86621 0.0518,-1.86621 -1.1591,-0.30729 -1.1591,-0.30729 0.20978,-0.33944 c 0.11538,-0.18669 0.0843,-0.53787 -0.0691,-0.7804 -0.46071,-0.72862 -1.51441,-6.32007 -1.52076,-8.07 l -0.006,-1.63179 -0.86017,-1.94501 -0.86017,-1.945 -3.20884,-3.10612 -3.20883,-3.10613 -0.68838,-0.10505 -0.68837,-0.10505 -1.35652,0.70706 c -0.746091,0.38888 -1.694578,1.09585 -2.107752,1.57104 -0.787584,0.9058 -2.326871,3.71313 -2.035947,3.71313 0.09284,0 -0.281686,1.00406 -0.832285,2.23124 -0.550598,1.22718 -1.17854,3.05867 -1.395426,4.06997 l -0.394338,1.83873 -0.746297,1.00942 -0.746297,1.00942 1.640768,3.57947 1.640768,3.57947 -0.0026,4.54215 -0.0026,4.54215 1.042174,2.05663 1.042174,2.05663 0.340752,2.82222 c 0.187415,1.55222 0.412453,3.61208 0.500086,4.57747 l 0.159332,1.75524 -0.801889,1.59614 c -0.441039,0.87788 -0.923572,1.99302 -1.072295,2.47809 -0.148723,0.48507 -0.724908,1.54555 -1.28041,2.35662 -0.555502,0.81107 -1.010003,1.58381 -1.010003,1.7172 0,0.13339 0.635,0.87752 1.411111,1.65363 0.776111,0.77612 1.411111,1.60592 1.411111,1.84402 0,0.2381 -0.301472,1.34672 -0.669938,2.46362 l -0.669937,2.03071 0.692734,1.64002 c 0.381003,0.90201 0.829131,1.95752 0.99584,2.34557 0.166708,0.38806 0.384238,1.97556 0.4834,3.52778 l 0.180293,2.82222 1.161225,0.97436 1.161226,0.97436 0.73375,2.92192 0.73375,2.92193 -0.21203,2.21769 -0.21203,2.21769 1.16225,1.92939 c 1.26928,2.10707 1.32289,2.31603 0.82656,3.22175 -0.37059,0.67627 -1.24958,2.7638 -1.53584,3.64751 l -0.18318,0.56548 0.62291,0.53335 c 0.3426,0.29335 1.44863,1.07075 2.45784,1.72757 l 1.83494,1.19422 -0.18457,1.05834 c -0.10151,0.58208 -0.21462,2.12989 -0.25136,3.43958 l -0.0668,2.38125 h -0.47357 -0.47357 v -3.12227 -3.12227 l -1.73458,-1.07827 -1.73459,-1.07828 0.13908,0.76694 0.13907,0.76694 -0.60935,0.92419 c -0.33515,0.50831 -1.714256,2.44872 -3.064689,4.31202 l -2.455333,3.38784 -0.319225,-0.31923 -0.319225,-0.31923 2.157196,-3.20314 c 1.186459,-1.76173 2.157197,-3.29471 2.157197,-3.40661 0,-0.11191 0.22983,-0.4333 0.510734,-0.7142 l 0.510735,-0.51074 -0.004,-2.02171 -0.004,-2.0217 0.7393,-2.3727 0.7393,-2.3727 -0.68947,-1.33147 c -0.37921,-0.7323 -0.91254,-1.62889 -1.185192,-1.9924 l -0.495719,-0.66094 0.332811,-1.93173 0.33281,-1.93172 -0.650106,-2.96516 -0.650108,-2.96515 -0.705927,-0.22405 -0.705927,-0.22406 -1.771868,1.92576 -1.771868,1.92575 -1.5875,0.63516 c -4.026375,1.61094 -5.040781,2.27747 -6.130588,4.02818 -0.439948,0.70675 -1.074004,2.27584 -1.409014,3.48687 l -0.609108,2.20186 0.340986,1.23495 0.340987,1.23495 -0.295145,0.18241 -0.295145,0.18241 -0.420183,-1.27317 -0.420183,-1.27316 0.400368,-2.16967 c 0.220202,-1.19332 0.811332,-3.059 1.313623,-4.14596 l 0.913256,-1.9763 2.164934,-1.22517 c 1.190714,-0.67384 2.720559,-1.43559 3.399656,-1.69277 l 1.234722,-0.4676 1.514612,-1.6226 c 1.553429,-1.66418 2.333734,-3.04419 2.013905,-3.56168 -0.09938,-0.16081 -0.265471,-1.45717 -0.369084,-2.88081 l -0.188386,-2.58844 -0.74678,-1.94028 c -0.410729,-1.06715 -0.862135,-2.07245 -1.003125,-2.23399 l -0.256345,-0.29371 0.729018,-2.24228 0.729017,-2.24227 -1.475999,-1.60127 c -0.8118,-0.8807 -1.475999,-1.77271 -1.475999,-1.98224 0,-0.20953 0.422615,-1.12589 0.939145,-2.03635 0.51653,-0.91046 1.46903,-2.73115 2.116667,-4.04597 l 1.177521,-2.39057 v -1.1693 c 0,-0.64312 -0.178241,-2.50424 -0.39609,-4.13582 l -0.39609,-2.96651 -1.029047,-2.0462 -1.029048,-2.04619 -0.019,-4.48019 -0.019,-4.48019 -1.73086,-3.91148 c -0.951974,-2.1513 -1.730861,-4.0994 -1.730861,-4.32909 0,-0.22969 0.382676,-1.00953 0.850391,-1.73297 l 0.85039,-1.31535 0.247434,-1.54952 c 0.136088,-0.85223 0.624987,-2.36035 1.086441,-3.35139 0.461454,-0.99103 0.840558,-2.01511 0.842453,-2.27573 l 0.0034,-0.47387 -1.499306,0.19136 c -0.824618,0.10524 -1.996728,0.19942 -2.604688,0.20928 l -1.105383,0.0179 -0.21509,0.61736 c -0.1183,0.33955 -0.686412,1.33174 -1.262472,2.20486 -0.576061,0.87313 -1.69197,2.69875 -2.4798,4.05695 l -1.432418,2.46944 0.208917,1.19254 c 0.114904,0.65589 0.567441,1.76714 1.005638,2.46944 0.438198,0.7023 1.021498,1.79285 1.296224,2.42344 l 0.499501,1.14653 h 0.415198 c 0.817733,0 5.762567,5.57913 5.762567,6.50175 0,0.33879 -0.991825,0.22278 -1.117129,-0.13066 -0.06468,-0.18243 -0.809172,-1.13814 -1.654435,-2.12379 l -1.536842,-1.79211 -1.549963,-0.90834 c -0.85248,-0.49959 -1.549964,-1.05201 -1.549964,-1.2276 0,-0.17559 -0.119062,-0.31925 -0.264583,-0.31924 l -0.264583,1e-5 0.01027,3.08679 0.01027,3.0868 0.506395,0.88194 c 0.278517,0.48507 0.512021,0.9821 0.518896,1.10451 0.0069,0.1224 0.777547,1.43025 1.712603,2.90632 l 1.700102,2.68377 0.08092,2.20895 c 0.08642,2.35912 -0.622342,8.07679 -1.152038,9.29357 l -0.319798,0.73461 -2.218726,0.0801 c -1.220299,0.044 -2.354953,0.16425 -2.521453,0.26716 l -0.302727,0.18709 0.723057,0.62711 0.723057,0.6271 -0.002,1.19334 c -0.0011,0.65634 -0.154825,1.74897 -0.341651,2.42807 -0.186826,0.6791 -0.409081,1.79035 -0.493901,2.46944 -0.08482,0.6791 -0.260616,1.65068 -0.390657,2.15907 l -0.236438,0.92435 1.832274,3.47117 1.832274,3.47116 -0.747189,2.17719 -0.74719,2.17718 -0.03516,4.36341 c -0.01934,2.39988 -0.145183,4.75869 -0.279649,5.24181 l -0.244484,0.87838 -0.234318,-0.37913 c -0.128875,-0.20853 -0.260663,-2.74693 -0.292861,-5.64089 l -0.05854,-5.26175 0.586884,-1.67683 0.586885,-1.67683 -1.99405,-3.60164 -1.99405,-3.60164 0.550844,-2.83542 c 0.302964,-1.55948 0.633589,-3.34819 0.734724,-3.9749 l 0.18388,-1.13948 -1.17344,-1.15358 -1.173441,-1.15357 0.160701,-0.45887 c 0.08839,-0.25238 0.776632,-0.84769 1.529437,-1.32292 l 1.368736,-0.86404 h 1.710023 1.710023 l 0.429708,-3.79237 0.429709,-3.79236 -0.417552,-1.23472 c -0.229654,-0.6791 -0.768871,-1.71097 -1.19826,-2.29305 -0.429389,-0.58209 -1.372177,-2.2035 -2.095084,-3.60315 l -1.314375,-2.54481 v -3.71229 -3.71228 l -0.344874,-1.32763 c -0.189681,-0.73019 -0.418602,-1.54688 -0.508714,-1.81487 l -0.163841,-0.48724 -0.610676,0.68871 c -0.335873,0.37879 -1.126615,0.98946 -1.757205,1.35705 l -1.146528,0.66835 -0.06034,0.5413 c -0.03319,0.29772 -0.09569,0.77943 -0.138889,1.07047 -0.0432,0.29104 -0.09542,1.03473 -0.116046,1.65265 l -0.0375,1.12349 -3.661662,3.8154 c -2.013914,2.09847 -4.276102,4.55307 -5.027083,5.45466 -0.750982,0.9016 -1.738819,1.81839 -2.195194,2.03733 l -0.829773,0.39806 0.249072,0.96128 c 0.368482,1.42215 0.471566,1.95589 0.501538,2.59679 l 0.02699,0.57717 1.207592,0.57304 1.207592,0.57304 0.545766,1.67201 c 0.562822,1.72428 0.745467,3.05477 1.125444,8.19841 l 0.221517,2.99861 -0.342091,-0.35278 -0.342091,-0.35277 -0.606406,-4.70561 c -0.63618,-4.93665 -1.087765,-6.75967 -1.674458,-6.75967 -0.193602,0 -0.795506,-0.3158 -1.337564,-0.70178 l -0.985561,-0.70178 -0.1838,-1.15031 c -0.265197,-1.65971 -0.437153,-2.33994 -0.643741,-2.54653 -0.24001,-0.24001 -4.643556,4.63964 -4.979364,5.51772 l -0.260777,0.68189 0.510469,1.22173 c 0.280759,0.67195 1.19847,2.13119 2.039358,3.24275 0.840889,1.11157 1.801175,2.65603 2.13397,3.43214 l 0.605082,1.41111 -0.186035,1.05834 c -0.102318,0.58208 -0.264832,1.4552 -0.361141,1.94027 -0.09631,0.48507 -0.249562,1.27882 -0.340563,1.76389 -0.091,0.48507 -0.338532,1.71937 -0.550068,2.7429 l -0.384612,1.86095 0.202128,3.75892 0.202128,3.75892 -0.528452,0.80652 c -0.290649,0.44359 -0.940593,1.54473 -1.444319,2.44699 l -0.915866,1.64047 0.441683,1.57754 c 0.242925,0.86765 0.781999,2.07943 1.197942,2.69286 0.415943,0.61343 0.879897,1.43282 1.031009,1.82088 0.435132,1.11742 1.265635,6.54343 1.272404,8.31313 l 0.0062,1.61036 1.20417,0.57422 1.20417,0.57423 -0.12108,1.87236 c -0.06659,1.0298 -0.15637,3.01474 -0.199502,4.41097 l -0.07842,2.5386 2.342307,2.40029 c 1.288269,1.32015 2.59142,2.75747 2.895891,3.19403 l 0.553584,0.79375 H 71.70635 c -0.235235,0 -1.823404,-1.37426 -3.529265,-3.0539 l -3.101566,-3.0539 0.165055,-4.14832 0.165054,-4.14831 -1.241903,-0.40987 c -0.683048,-0.22542 -1.244694,-0.43724 -1.248104,-0.4707 -0.0034,-0.0335 -0.09182,-1.17208 -0.196469,-2.53028 -0.104648,-1.35819 -0.346582,-3.57426 -0.537631,-4.92458 l -0.347361,-2.45515 -1.131864,-2.37569 c -0.622525,-1.30664 -1.266248,-2.38464 -1.430495,-2.39556 l -0.298631,-0.0198 0.19135,1.67569 c 0.105243,0.92164 0.295984,2.63457 0.42387,3.80651 l 0.23252,2.13082 -0.732576,2.37181 -0.732576,2.3718 0.34202,1.80347 c 0.188112,0.99191 0.361576,2.77573 0.385477,3.96405 l 0.04346,2.16057 0.656989,2.46945 c 0.361344,1.35819 0.844679,3.11983 1.074077,3.91474 l 0.417089,1.4453 -0.265434,0.67137 -0.265434,0.67136 -1.412949,-4.23333 c -0.777122,-2.32833 -1.48055,-4.94771 -1.563175,-5.82083 -0.08263,-0.87313 -0.233312,-1.81593 -0.33486,-2.09511 -0.101549,-0.27919 -0.257958,-1.39044 -0.347577,-2.46945 -0.08962,-1.07901 -0.251295,-2.4898 -0.359281,-3.1351 l -0.196339,-1.17327 0.416976,-0.50243 c 0.229337,-0.27633 0.314503,-0.50242 0.189259,-0.50242 -0.125245,0 0.02474,-0.3853 0.333295,-0.85621 l 0.561013,-0.85622 0.02324,-1.70142 0.02324,-1.70143 -0.767909,-1.74087 -0.767909,-1.74088 0.720959,-1.67591 c 0.890849,-2.07083 0.897208,-2.55763 0.04918,-3.76426 l -0.671781,-0.95586 -0.180459,-2.96373 -0.18046,-2.96374 -1.440815,-1.31704 -1.440815,-1.31703 -0.02901,-0.83451 c -0.06527,-1.87752 -0.420212,-3.03252 -1.40428,-4.56955 L 50.927399,236.257 v -2.53154 -2.53154 l -0.416643,-0.66715 -0.416643,-0.66715 -0.670079,0.85186 c -0.368543,0.46853 -1.147483,1.76309 -1.730977,2.8768 -0.583494,1.11372 -1.791537,3.24024 -2.68454,4.72562 l -1.623641,2.70069 -1.167627,0.5568 c -0.642195,0.30624 -1.167627,0.7351 -1.167627,0.95303 v 0.39623 l -0.578346,-0.22193 -0.578346,-0.22194 -1.035404,0.44878 -1.035404,0.44877 0.210199,2.00443 0.2102,2.00442 -3.007745,2.5328 -3.007745,2.5328 -0.540938,1.98916 c -0.473543,1.74133 -3.202355,8.03437 -3.69255,8.51555 -0.323901,0.31795 -2.113365,3.15523 -2.113365,3.35084 0,0.10503 -0.396875,0.81965 -0.881945,1.58805 l -0.881944,1.39709 v 1.28745 c 0,1.06739 -0.483697,3.60914 -1.937557,10.18155 -0.08459,0.38239 0.233998,3.00176 0.707965,5.82083 1.256463,7.47321 1.362881,8.2264 1.790979,12.67602 l 0.251258,2.61155 -0.359985,-0.22248 c -0.337333,-0.20848 -0.647464,-1.5685 -1.019648,-4.47145 -0.08707,-0.6791 -0.572463,-3.5366 -1.078659,-6.35 -0.506196,-2.8134 -1.10056,-6.14715 -1.320808,-7.40834 l -0.400452,-2.29305 0.817553,-3.70417 c 0.449654,-2.03729 0.968172,-4.89479 1.152262,-6.35 l 0.334709,-2.64583 1.148553,-2.16659 c 0.631704,-1.19163 1.6404,-3.01726 2.241547,-4.05695 1.307654,-2.2616 2.686789,-5.65869 3.52909,-8.69286 l 0.615285,-2.2164 2.761176,-2.36596 2.761176,-2.36596 v -1.50305 -1.50306 h -0.335414 c -0.184477,0 -1.127889,0.16995 -2.096471,0.37768 l -1.761058,0.37768 -1.770786,2.16223 -1.770786,2.16223 -1.24802,3.39754 c -0.686411,1.86864 -1.24802,3.58318 -1.24802,3.81009 v 0.41255 h -0.529167 c -0.700665,0 -0.715819,0.0909 0.731616,-4.38851 l 1.260783,-3.90177 2.003313,-2.44354 2.003313,-2.44353 1.586599,-0.61104 c 0.872629,-0.33608 1.864411,-0.69994 2.203959,-0.80859 l 0.617361,-0.19755 v -1.35257 -1.35258 l -1.894616,0.20854 -1.894617,0.20854 -1.207784,1.04477 c -2.650232,2.29253 -7.342396,8.89636 -8.142443,11.4598 l -0.437883,1.40303 h -0.404638 -0.404639 l 0.54225,-1.85209 0.54225,-1.85208 1.747002,-2.82222 c 2.394683,-3.86853 4.957402,-7.27718 6.319701,-8.40576 l 1.1381,-0.94285 1.07852,-0.0111 1.07852,-0.0112 0.986543,-0.86798 0.986543,-0.86799 0.146388,-1.14934 c 0.411774,-3.23296 0.622257,-6.27047 0.660439,-9.53088 l 0.04231,-3.6129 1.815573,-3.56058 1.815573,-3.56059 0.378942,-1.90747 c 0.208418,-1.04911 0.474097,-2.9101 0.590399,-4.13553 0.116301,-1.22542 0.260563,-2.49542 0.320583,-2.82222 0.06002,-0.32679 0.315257,-2.76638 0.567194,-5.4213 l 0.458069,-4.82713 -0.458724,-0.55273 -0.458723,-0.55273 H 40.858068 40.04735 l -0.220317,0.97014 -0.220317,0.97014 -1.774746,1.20879 c -0.976111,0.66483 -2.675519,1.67519 -3.776463,2.24523 -1.100945,0.57005 -2.208673,1.23091 -2.461618,1.46858 l -0.459901,0.43212 -0.635096,4.98551 -0.635096,4.98552 -0.364422,0.45101 c -0.200432,0.24806 -0.474075,1.11609 -0.608095,1.92895 l -0.243673,1.47793 0.956501,1.63214 0.9565,1.63215 -0.488131,0.91408 c -0.268472,0.50274 -1.162818,1.47839 -1.987436,2.1681 l -1.499306,1.25402 v 1.14551 1.14551 l -1.803575,0.63187 -1.803576,0.63187 -0.950665,1.41111 c -1.106597,1.64257 -2.850517,5.48483 -2.850517,6.28035 v 0.54768 l -1.046441,0.81932 -1.046441,0.81931 0.301092,2.64584 0.301092,2.64583 -0.783639,1.23472 c -0.431001,0.6791 -1.397435,2.15546 -2.14763,3.28079 l -1.363991,2.04607 -1.957715,1.65561 c -1.076744,0.91058 -2.3529685,2.01391 -2.8360553,2.45184 -0.4830868,0.43794 -0.9990242,0.79625 -1.1465277,0.79625 -0.6704682,0 -0.1423202,-0.89448 1.221497,-2.06875 0.8193268,-0.70545 2.140948,-1.87259 2.936935,-2.59364 l 1.44725,-1.31099 1.666512,-2.72733 1.666512,-2.72733 0.04302,-1.25334 c 0.02366,-0.68934 -0.158996,-1.96512 -0.405904,-2.83506 l -0.448924,-1.58173 1.064237,-0.88846 1.064237,-0.88847 0.918787,-2.44099 c 1.35307,-3.59477 3.163362,-6.42162 4.171765,-6.51438 0.147553,-0.0136 0.742866,-0.2701 1.322916,-0.57005 l 1.054637,-0.54538 v -1.01963 -1.01963 L 26.5098,220.6803 c 0.734347,-0.58161 1.545654,-1.45076 1.802904,-1.93143 l 0.467726,-0.87396 -0.789004,-1.06718 -0.789003,-1.06719 0.181326,-1.91105 c 0.09973,-1.05108 0.415768,-2.37411 0.702308,-2.94005 l 0.520983,-1.029 0.248511,-3.52778 c 0.136682,-1.94028 0.323614,-4.15019 0.415405,-4.91092 l 0.166892,-1.38315 0.602415,-0.445 c 0.331328,-0.24474 1.527602,-0.94335 2.658387,-1.55247 1.130785,-0.60912 2.789794,-1.57286 3.686687,-2.14166 l 1.630716,-1.03417 0.370256,-1.13652 0.370257,-1.13652 1.502522,-0.55394 c 0.826386,-0.30467 1.720991,-0.78495 1.988009,-1.0673 0.267018,-0.28234 0.978235,-1.99214 1.580481,-3.79955 l 1.094993,-3.2862 -0.55556,-3.76935 c -0.669449,-4.54207 -0.821897,-5.75465 -0.983942,-7.8263 l -0.124174,-1.5875 -0.487275,0.11597 c -0.926589,0.22054 -1.639286,1.15852 -2.40339,3.16308 l -0.767172,2.01261 -1.127801,0.97679 c -0.620291,0.53723 -1.683427,1.13761 -2.362524,1.33418 -1.602403,0.46383 -6.275214,1.69011 -7.408333,1.94417 -0.48507,0.10876 -2.140724,0.76541 -3.679232,1.45922 l -2.797287,1.26148 -3.081741,-0.21875 -3.081742,-0.21875 -0.242627,1.49333 -0.242628,1.49333 -1.360321,2.48652 -1.360322,2.48652 -2.043022,0.60812 c -1.1236622,0.33446 -3.6305221,0.84905 -5.5707999,1.14353 l -3.5277777,0.53541 -4.5158613,0.0268 c -4.141785,0.0246 -5.2476724,-0.11037 -4.7753873,-0.58266 0.096225,-0.0962 1.591121,-0.19087 3.3219907,-0.21033 l 3.1470358,-0.0354 4.586111,-0.67214 c 2.522361,-0.36967 5.4508685,-0.96322 6.5077944,-1.31899 l 1.9216833,-0.64686 1.123338,-2.0287 1.123338,-2.02871 0.438321,-2.06546 0.43832,-2.06546 0.442604,-0.16984 c 0.243432,-0.0934 1.057178,-0.0273 1.808324,0.14702 0.751147,0.17428 2.192031,0.32065 3.201965,0.32528 l 1.836243,0.008 2.220701,-1.02982 c 1.221386,-0.56639 2.776326,-1.19914 3.455423,-1.40611 2.278633,-0.69444 6.810012,-1.7974 7.384387,-1.7974 0.31281,0 1.136111,-0.46767 1.829557,-1.03927 l 1.260812,-1.03927 0.63706,-2.02538 0.63706,-2.02538 1.30743,-1.43327 c 2.079366,-2.2795 2.16971,-2.51508 2.839393,-7.40403 l 0.390209,-2.84868 -0.232602,-3.92284 -0.232602,-3.92285 2.894964,-5.60215 c 1.59223,-3.08119 3.072884,-5.95811 3.290343,-6.39316 0.217458,-0.43505 0.55107,-0.79224 0.74136,-0.79375 0.19029,-0.002 1.758404,-0.50799 3.484697,-1.1255 l 3.138715,-1.12275 1.841468,-2.49322 c 1.012807,-1.37127 2.152354,-3.2076 2.532328,-4.08073 l 0.69086,-1.5875 0.09288,-1.64069 c 0.09538,-1.68486 -0.695946,-8.42074 -1.413217,-12.02944 l -0.403182,-2.02848 h -0.332983 c -0.183141,0 -1.153637,0.52798 -2.156657,1.17328 -3.041391,1.95671 -3.503479,2.1869 -5.82353,2.901 l -2.235969,0.68822 -0.362085,0.70556 c -0.199147,0.38805 -2.369298,2.68993 -4.822559,5.11528 -4.879271,4.82375 -8.461913,8.96514 -11.291725,13.05277 l -1.831673,2.64584 -3.571627,3.60095 -3.571628,3.60095 -1.659745,0.59684 -1.659746,0.59683 -0.404647,1.62305 c -0.611423,2.45243 -0.655078,2.60187 -1.084829,3.71372 l -0.399021,1.03234 -1.639533,1.48414 -1.639533,1.48415 -1.873328,0.41923 -1.873328,0.41923 v 0.38323 c 0,0.38503 1.931134,6.89014 2.437026,8.20923 0.148826,0.38805 0.223177,1.73743 0.165226,2.99861 -0.05795,1.26118 -0.111541,3.21909 -0.119087,4.35092 l -0.01372,2.05787 -0.440972,-0.14579 -0.440973,-0.1458 -0.202134,-4.38152 -0.202134,-4.38152 -0.620167,-1.94027 c -0.341091,-1.06716 -0.889043,-2.69798 -1.21767,-3.62407 l -0.597503,-1.68378 -1.226029,0.90083 c -2.701153,1.98469 -3.5763357,2.7999 -5.3413335,4.9753 l -1.8408587,2.26889 -2.31358503,1.28611 c -1.27247178,0.70736 -2.36650177,1.41837 -2.43117767,1.58002 -0.064676,0.16165 -0.3028009,0.29494 -0.5291666,0.2962 -0.2263658,0.001 -1.1571466,0.64134 -2.0684018,1.42243 l -1.6568276,1.42015 -0.1070612,1.66438 -0.1070612,1.66437 -0.3527778,-0.0743 c -0.1940278,-0.0409 -0.4321528,-0.57241 -0.5291666,-1.18118 l -0.1763889,-1.10687 -0.9375878,0.74021 c -0.5156733,0.40711 -1.046792,0.7402 -1.1802638,0.7402 -0.1334717,0 -0.6872378,0.31656 -1.2305908,0.70346 -0.543353,0.3869 -1.926491,0.94391 -3.073639,1.2378 l -2.085725,0.53434 -2.272486,-0.74443 c -1.249867,-0.40943 -3.484306,-1.29758 -4.96542,-1.97366 l -2.692935,-1.22923 -1.187621,0.60639 c -0.653191,0.33352 -2.335855,1.29966 -3.739254,2.14698 -1.403399,0.84732 -2.70856,1.54058 -2.900358,1.54058 -0.191798,0 -1.266063,-0.41484 -2.387255,-0.92186 l -2.038531,-0.92185 0.4394,-0.16536 c 0.24167,-0.0909 1.22015,0.094 2.1744,0.41093 l 1.735,0.57627 3.77512,-2.31129 c 2.076316,-1.27121 3.919612,-2.31129 4.096213,-2.31129 0.1766,0 1.388691,0.53331 2.693535,1.18513 1.304844,0.65182 3.458917,1.54285 4.786829,1.98007 l 2.414387,0.79494 1.363344,-0.21801 1.363345,-0.21801 1.892405,-1.1447 c 1.040822,-0.62958 2.3786752,-1.55577 2.9730067,-2.0582 l 1.0806027,-0.91351 0.2031983,-3.10062 c 0.1117592,-1.70533 0.2489269,-3.12962 0.3048173,-3.16507 0.05589,-0.0355 0.995903,-0.35912 2.088917,-0.71925 l 1.987298,-0.65478 0.5941562,-1.00582 c 0.3267858,-0.55321 1.41687668,-1.62129 2.42242405,-2.37351 l 1.82826795,-1.36769 3.5277777,-1.59897 c 1.9402777,-0.87944 4.0958175,-1.70233 4.7900881,-1.82865 l 1.262311,-0.22969 0.936732,-2.00058 0.936732,-2.00058 2.429581,-2.52243 c 1.336269,-1.38734 2.868669,-2.7525 3.405332,-3.03369 l 0.975751,-0.51125 0.974137,-2.78714 c 0.535775,-1.53294 1.336453,-3.7967 1.779283,-5.0306 l 0.805146,-2.24344 3.023287,-2.27112 3.023286,-2.27113 0.46351,-1.09443 0.463509,-1.09444 -2.54672,0.23669 -2.546721,0.2367 -0.835942,0.90199 -0.835942,0.902 -1.31418,-0.19067 c -0.722799,-0.10487 -1.433243,-0.19666 -1.578764,-0.20399 -0.145521,-0.007 -0.264583,-0.15812 -0.264583,-0.33509 v -0.32177 l 1.429087,-0.24145 1.429086,-0.24144 0.69575,-0.7468 0.69575,-0.7468 2.499825,-0.22913 2.499825,-0.22914 4.459366,-4.64213 4.459366,-4.64214 0.705556,-0.005 c 0.388055,-0.003 1.082137,-0.21361 1.542404,-0.46878 l 0.836848,-0.46395 -1.038827,-0.20776 -1.038828,-0.20777 -1.652594,-1.69703 c -1.596993,-1.63994 -2.269994,-2.77975 -1.874703,-3.17504 0.104561,-0.10456 1.111243,0.59977 2.237072,1.56519 l 2.046961,1.7553 1.655523,0.40167 c 2.210944,0.53644 3.381924,0.50638 5.248995,-0.13473 l 1.562149,-0.53641 1.230292,-1.95643 c 0.676661,-1.07603 1.496545,-2.24221 1.821964,-2.59151 l 0.591671,-0.63508 3.410269,-0.61403 3.410268,-0.61404 -0.235824,-0.93235 c -0.267881,-1.05909 -0.240122,-10.437088 0.0391,-13.211136 0.217433,-2.160146 0.242963,-2.303399 1.14386,-6.41844 l 0.695096,-3.175 0.190349,-3.490502 0.190349,-3.490502 -1.271626,-1.551852 -1.271626,-1.551852 0.438155,-5.011812 c 0.514256,-5.882281 0.641781,-7.087402 0.91291,-8.627087 l 0.201774,-1.145829 1.949385,-1.247007 1.949385,-1.247006 0.687558,-1.554338 0.687557,-1.554337 0.318457,-2.536201 0.318456,-2.5362 1.040637,-1.454126 1.040637,-1.454126 -0.338735,-0.881944 -0.338735,-0.881945 0.224283,-2.293055 0.224283,-2.293056 0.870727,-1.90709 0.870728,-1.90709 -0.207983,-1.108646 c -0.114391,-0.609755 -0.249158,-2.671578 -0.299483,-4.58183 l -0.0915,-3.473183 0.996348,-1.948205 0.996349,-1.948204 -0.04276,-1.96982 -0.04276,-1.96982 L 70.989936,17.991 c -0.362876,-1.140937 -0.659775,-2.34842 -0.659775,-2.683298 0,-0.69647 1.785656,-3.126789 4.242694,-5.7744018 0.926443,-0.9983014 2.335212,-2.529398 3.130596,-3.4024368 l 1.446154,-1.5873434 0.01353,-2.6459899 0.01353,-2.64598987 1.506533,-4.48927513 c 0.828594,-2.4691014 1.597788,-4.5805296 1.709321,-4.6920629 0.111534,-0.1115332 0.689442,0.00364 1.284241,0.2559419 l 1.081454,0.4587296 -0.650058,1.5875 c -0.357532,0.873125 -1.063844,2.8603576 -1.569581,4.4160726 l -0.919523,2.82857254 V 2.4810461 5.3450733 L 77.69165,9.70721 c -2.160079,2.398862 -4.157619,4.710981 -4.438978,5.138043 l -0.511561,0.776477 0.201425,0.634635 c 0.110784,0.349048 0.222342,0.793384 0.247907,0.987412 0.02557,0.194027 0.205368,0.749652 0.399563,1.234722 0.194194,0.485069 0.422602,2.043253 0.507572,3.46263 l 0.154492,2.580686 -1.047883,1.856747 -1.047883,1.856746 0.09094,2.970901 c 0.05002,1.633995 0.213153,3.788762 0.362516,4.78837 l 0.27157,1.817469 -0.895396,1.710309 c -0.492468,0.940669 -1.079141,2.530523 -1.303717,3.533008 l -0.40832,1.8227 0.380915,0.711747 c 0.209504,0.39146 0.380915,1.10851 0.380915,1.593442 v 0.881696 l -1.030214,1.699135 -1.030215,1.699135 -0.215235,1.940278 -0.215235,1.940278 -0.959411,2.35078 -0.959412,2.35078 -1.831595,1.096326 -1.831596,1.096327 -0.191307,1.491782 c -0.191984,1.497061 -0.322962,2.904926 -0.76817,8.256973 l -0.239957,2.884636 1.161336,1.466306 1.161336,1.466306 -0.0788,3.762947 c -0.09067,4.329986 -0.158744,5.022525 -0.678788,6.905971 -0.209095,0.75728 -0.30416,1.499865 -0.211256,1.650187 0.09291,0.150323 0.0259,0.361707 -0.148909,0.469742 -0.679134,0.419728 -1.013169,3.939175 -1.090908,11.493991 -0.06198,6.02381 -0.0594,6.08489 0.279531,6.61881 l 0.282612,0.4452 1.034903,-0.33638 c 0.569196,-0.185 1.924742,-0.51089 3.012324,-0.72419 l 1.977423,-0.38782 0.675779,-0.60295 c 0.371679,-0.33162 1.658246,-1.36251 2.859039,-2.29087 l 2.18326,-1.68792 3.80157,-1.67452 3.80157,-1.674522 0.763228,-1.360635 0.763227,-1.360634 1.548969,-0.964103 1.548969,-0.964103 0.644525,-1.544765 c 1.129305,-2.706659 3.136325,-6.599727 4.642214,-9.004616 l 0.474064,-0.757075 1.839829,-0.471534 1.83983,-0.471534 1.810182,-1.770002 c 0.9956,-0.973502 2.516391,-2.344547 3.379531,-3.046769 l 1.56936,-1.276766 1.68054,-3.309345 c 0.9243,-1.82014 2.00566,-3.816138 2.40303,-4.435552 l 0.72249,-1.126207 -0.99192,-0.515713 c -0.54555,-0.283642 -1.46816,-0.994937 -2.05025,-1.580656 l -1.05833,-1.064943 -1.1303,0.860353 c -0.62166,0.473194 -1.65354,0.959558 -2.293049,1.080809 -1.594712,0.302354 -1.817298,0.52513 -3.719118,3.72231 l -1.667721,2.803633 -0.933609,-0.186722 c -0.513485,-0.102697 -1.359636,-0.293648 -1.880337,-0.424336 l -0.946727,-0.237613 0.185129,1.36709 c 0.101821,0.7519 0.227543,2.069561 0.279383,2.928135 l 0.09425,1.561045 -0.393079,0.131026 -0.393078,0.131026 -0.435796,-2.397626 c -0.239688,-1.318694 -0.5135,-3.095498 -0.60847,-3.948454 l -0.172673,-1.550827 1.539542,0.272053 c 0.846748,0.14963 1.836246,0.291877 2.198884,0.316106 l 0.659341,0.04405 0.398992,-0.686301 c 0.219446,-0.377465 0.52619,-0.853715 0.681653,-1.058333 0.155464,-0.204618 0.790464,-1.159549 1.411111,-2.122069 l 1.12845,-1.750036 1.370309,-0.28277 1.370303,-0.28277 1.43322,-1.054 c 0.78827,-0.579699 1.60464,-1.053999 1.81416,-1.053999 0.20952,0 1.01168,0.629778 1.78259,1.399507 l 1.40164,1.399506 0.78703,0.0116 0.78703,0.0116 0.18107,-0.79375 c 0.0996,-0.436562 0.22167,-1.824814 0.2713,-3.085002 l 0.0902,-2.291253 1.76514,-0.470569 1.76515,-0.47057 0.69101,-1.420636 c 0.38006,-0.78135 1.54864,-2.552674 2.59686,-3.936275 1.88187,-2.483975 2.45286,-3.539495 2.74451,-5.073426 0.082,-0.431495 0.30557,-1.195892 0.49672,-1.69866 0.19115,-0.502768 0.34755,-1.904584 0.34755,-3.115146 v -2.201023 l -1.13184,-1.744761 c -1.98321,-3.05718 -2.259,-3.890399 -3.25978,-9.848474 l -0.17606,-1.048157 0.3994,-1.333093 c 0.21967,-0.733201 0.53303,-1.333093 0.69634,-1.333093 0.16332,0 0.29694,-0.193383 0.29694,-0.429741 0,-0.236357 0.43656,-0.806515 0.97014,-1.267018 l 0.97014,-0.837276 -0.0814,-3.760066 -0.0814,-3.760066 0.37734,-1.940277 c 0.20753,-1.067153 0.77653,-2.76925 1.26444,-3.782437 l 0.8871,-1.8421597 -0.54531,-1.6003877 -0.5453,-1.6003876 1.03793,-1.9731371 1.03793,-1.9731371 v -1.22080752 c 0,-0.67144414 -0.22321,-1.96501128 -0.49602,-2.87459358 -0.27281,-0.9095823 -0.84503,-3.2777804 -1.27161,-5.2626624 l -0.7756,-3.6088763 0.3994,-1.68279 c 0.21967,-0.925535 0.46978,-2.15904 0.5558,-2.741124 0.086,-0.582083 0.31201,-1.693333 0.50218,-2.469444 0.41857,-1.70822 0.38029,-1.510656 0.38029,-1.962629 v -0.37513 l 1.14653,0.110546 1.14653,0.110546 0.0187,0.705556 c 0.0103,0.388055 -0.10134,1.10243 -0.24805,1.5875 -0.1467,0.485069 -0.34101,1.406205 -0.4318,2.046968 -0.0908,0.640763 -0.35737,1.915375 -0.59241,2.832471 l -0.42736,1.667448 0.81304,3.5175283 c 0.44716,1.9346408 0.85395,3.7556537 0.90397,4.0466953 0.3446,2.0049764 0.59553,3.0618088 0.82504,3.47475284 l 0.26463,0.47614176 -0.44173,1.900276 c -0.24296,1.0451518 -0.74713,2.3195121 -1.12039,2.8319117 l -0.67865,0.9316358 0.53984,1.5012306 0.53984,1.5012306 -1.0319,2.4226601 c -0.56755,1.332463 -1.20556,3.28784 -1.4178,4.345281 l -0.38589,1.922621 0.27494,1.605157 c 0.15122,0.882836 0.3637,2.041613 0.47219,2.575059 0.19716,0.969493 1.66155,3.852281 2.46416,4.850931 0.23391,0.291042 0.7587,1.243542 1.16619,2.116667 0.4075,0.873125 1.10835,1.98924 1.55746,2.480256 0.76234,0.833481 1.45493,1.358038 6.14067,4.650805 0.98798,0.694279 3.13111,1.903314 4.7625,2.686745 l 2.96616,1.42442 3.20547,3.158985 3.20546,3.158984 0.80239,2.145559 0.80238,2.145558 1.53886,1.260976 1.53885,1.260975 1.75215,-1.179965 1.75215,-1.179966 1.54543,-2.252639 c 1.7408,-2.537401 1.81622,-2.593341 4.49436,-3.333154 l 1.94028,-0.535986 1.14652,-1.084491 1.14653,-1.084491 v -1.173646 -1.173645 l 0.56679,-0.470395 c 0.31174,-0.258717 0.85702,-0.635343 1.21174,-0.836946 2.25454,-1.281359 4.27596,-2.574328 5.84122,-3.736251 l 1.79891,-1.335369 0.51593,-1.880799 0.51594,-1.880798 1.91848,-1.332366 c 1.05517,-0.732802 2.55349,-1.635959 3.3296,-2.007017 1.78454,-0.853183 7.89662,-3.187006 8.3465,-3.187006 h 0.3382 l -0.1954,0.316153 c -0.10746,0.173885 -1.98214,1.058022 -4.16595,1.96475 l -3.97057,1.648597 -2.19087,1.474833 -2.19087,1.474834 -0.35244,0.881944 c -0.19384,0.485069 -0.45141,1.45319 -0.57238,2.151379 l -0.21995,1.269435 -1.64647,1.206433 c -0.90555,0.663538 -2.95472,1.988325 -4.5537,2.943972 l -2.90724,1.737538 -0.226,1.254649 c -0.33136,1.839527 -0.65158,2.298946 -2.41787,3.468886 l -1.59584,1.057044 -1.50687,0.225968 -1.50686,0.225969 -0.88059,1.137002 c -0.48432,0.625351 -1.27467,1.741354 -1.75632,2.480007 l -0.87573,1.343004 -2.23094,1.573826 -2.23093,1.573826 -2.03261,-1.682108 -2.03261,-1.682108 -0.85173,-2.293056 -0.85173,-2.293055 -3.21909,-3.072258 -3.21908,-3.072258 -2.77814,-1.316234 c -1.52798,-0.723928 -3.50246,-1.835247 -4.38774,-2.469597 -2.00189,-1.434466 -5.18758,-2.93802 -6.2347,-2.942596 l -0.78874,-0.0034 -0.85418,1.322917 -0.85419,1.322916 -0.56193,2.539085 c -0.30907,1.396497 -0.56207,3.380872 -0.56223,4.409722 -1.5e-4,1.028851 -0.23364,2.989176 -0.51886,4.356279 l -0.51857,2.485642 0.18288,1.008517 c 0.10058,0.554684 0.31231,1.26177 0.4705,1.571303 0.15818,0.309532 0.39468,1.262801 0.52554,2.118376 l 0.23792,1.555591 1.04803,1.071955 1.04804,1.071955 -0.21421,1.141821 -0.2142,1.141822 0.43762,1.326027 c 0.2407,0.729315 0.57153,1.493725 0.73519,1.698688 0.16365,0.204964 0.7175,0.896403 1.23077,1.536532 l 0.93322,1.163872 1.70609,0.864544 c 0.93836,0.4755 2.50494,1.574028 3.4813,2.441175 l 1.7752,1.576631 2.73456,1.284846 2.73455,1.284846 -0.41807,0.158955 c -0.41677,0.15846 -2.51198,-0.461513 -4.52082,-1.337711 -0.58208,-0.253887 -1.93146,-1.114418 -2.99861,-1.91229 -1.06715,-0.797872 -2.21809,-1.552695 -2.55764,-1.677386 l -0.61736,-0.226709 v 3.461478 3.461479 l -0.6658,1.90731 c -0.36619,1.049021 -1.10832,2.750792 -1.64917,3.781713 l -0.98336,1.874401 0.56763,1.653376 c 0.31219,0.909357 0.74322,2.524502 0.95784,3.589212 l 0.39023,1.935835 0.83437,0.886387 c 1.17921,1.252714 2.31215,3.404744 2.31215,4.391937 v 0.838255 l 2.15569,2.855 2.1557,2.855006 0.16718,3.08699 c 0.17689,3.2664 0.47687,4.60545 1.58906,7.09337 0.37789,0.84531 1.11195,2.90906 1.63125,4.58611 0.5193,1.67704 1.1823,3.37997 1.47334,3.78429 l 0.52917,0.73512 1.76389,0.66592 c 0.97014,0.36625 2.45226,1.04886 3.29361,1.5169 l 1.52972,0.85098 -0.22749,1.21261 c -0.12512,0.66694 -0.30311,1.40967 -0.39553,1.65052 l -0.16804,0.4379 0.94371,0.50506 0.94371,0.50505 0.62451,1.45694 c 0.66577,1.55318 1.89408,2.93876 3.87236,4.36816 1.42122,1.0269 2.53926,2.15048 4.13404,4.15455 l 1.14505,1.43892 1.67718,0.81235 c 0.92244,0.44679 2.2011,1.19758 2.84147,1.66841 l 1.1643,0.85607 1.30514,0.10013 c 0.71783,0.0551 2.18238,0.10951 3.25456,0.12097 l 1.94941,0.0208 1.83053,2.4461 1.83053,2.44611 5.92145,-0.0925 5.92144,-0.0925 1.38153,0.53033 1.38153,0.53033 2.39039,-0.40991 2.39038,-0.40991 2.81842,1.20634 2.81842,1.20633 3.25038,-0.52321 c 3.77149,-0.60709 5.85789,-1.15306 9.41864,-2.46467 1.41149,-0.51992 2.66826,-0.84341 2.79282,-0.71885 0.37154,0.37154 -0.0866,0.62648 -2.9284,1.62954 l -2.70745,0.95564 2.58352,0.21658 2.58352,0.21659 0.83188,0.98531 c 0.45753,0.54192 1.22251,1.43819 1.69996,1.99172 0.84503,0.9797 1.10249,1.63942 0.63978,1.63942 -0.12556,0 -1.03837,-0.87646 -2.02847,-1.94768 l -1.80018,-1.94766 -3.70417,-0.19194 -3.70416,-0.19194 -1.76389,0.39796 c -0.97014,0.21887 -2.64709,0.48426 -3.72656,0.58975 l -1.96268,0.1918 -2.34414,-1.09598 c -2.60299,-1.21699 -3.17298,-1.27596 -5.72496,-0.59229 l -1.76388,0.47254 -1.05834,-0.42939 -1.05833,-0.42939 -2.4033,-0.0838 -2.40329,-0.0838 0.50872,0.99525 c 0.2798,0.54738 0.6175,1.50053 0.75043,2.1181 l 0.24171,1.12286 3.24037,0.16124 c 3.72191,0.1852 5.36307,0.4905 5.86081,1.09024 l 0.35009,0.42183 0.10223,6.78468 0.10223,6.78468 0.44753,0.27652 0.44754,0.27651 4.43333,-0.76835 4.43334,-0.76834 1.82191,0.95779 c 1.00205,0.52678 2.89406,1.41287 4.20448,1.96908 l 2.38258,1.01129 0.20219,0.63707 0.2022,0.63707 3.34583,2.6911 3.34582,2.6911 -0.22576,1.33624 -0.22575,1.33625 2.20086,2.92942 c 1.21047,1.61118 2.76028,3.52101 3.44402,4.24406 0.68375,0.72304 1.27187,1.59617 1.30693,1.94027 0.0351,0.34411 0.26598,2.56515 0.51313,4.93565 l 0.44937,4.31001 2.64327,2.02458 2.64327,2.02458 -0.41095,0.13698 -0.41095,0.13699 -1.84015,-1.3786 c -1.01208,-0.75823 -2.02488,-1.48853 -2.25066,-1.62287 l -0.41051,-0.24427 0.17828,1.14851 c 0.0981,0.63169 0.20341,1.22791 0.23412,1.32491 0.0307,0.097 -0.0988,0.21955 -0.28785,0.27229 l -0.34368,0.0959 -0.12706,-1.33062 -0.12707,-1.33062 -0.53597,-0.59737 c -0.29478,-0.32855 -0.99653,-0.69852 -1.55943,-0.82216 -0.5629,-0.12363 -1.7962,-0.75634 -2.74067,-1.40602 l -1.71721,-1.18123 -1.3287,0.90288 -1.3287,0.90288 -3.0378,-0.21803 c -1.67079,-0.11991 -3.27592,-0.245 -3.56696,-0.27798 -0.29105,-0.033 -0.89279,-0.035 -1.33721,-0.004 l -0.80804,0.0556 0.049,1.49931 c 0.0957,2.92701 2.05668,7.22452 4.5072,9.87778 l 0.89601,0.97013 1.4333,0.0417 c 0.78832,0.023 1.90956,0.14301 2.49164,0.26678 l 1.05833,0.22505 0.24431,2.99641 c 0.13437,1.64803 0.33227,4.39654 0.43978,6.10781 l 0.19547,3.11141 1.40969,2.35666 c 0.77533,1.29615 1.90148,3.012 2.50256,3.81299 l 1.09286,1.45633 -0.90222,2.50118 c -1.1391,3.15784 -2.5966,6.05143 -3.04811,6.05143 -0.44457,0 -0.43709,-0.23052 0.0362,-1.11479 0.21064,-0.3936 0.90882,-2.12997 1.5515,-3.85861 l 1.16851,-3.14298 -0.82661,-1.14528 c -0.45463,-0.62991 -1.60617,-2.43101 -2.55898,-4.00246 l -1.73238,-2.85717 -0.21704,-3.31644 c -0.11938,-1.82404 -0.32275,-4.388 -0.45193,-5.69769 l -0.23489,-2.38124 -1.451,-0.0537 c -0.79806,-0.0296 -1.60976,-0.0906 -1.80379,-0.13569 -0.19403,-0.0451 -0.62072,-0.10028 -0.94822,-0.12266 l -0.59544,-0.0407 -1.14813,-1.59875 -1.14813,-1.59874 -0.23043,0.45221 c -0.3917,0.7687 -1.13027,5.59975 -0.89244,5.83757 0.12357,0.12357 1.58483,0.50005 3.24726,0.83662 3.04379,0.61623 3.60115,0.82945 3.20467,1.22593 -0.19063,0.19063 -3.72474,-0.29476 -5.75856,-0.79092 l -0.74164,-0.18092 0.26297,1.70086 0.26296,1.70086 -0.31303,1.94028 c -0.17217,1.06715 -0.31395,2.05934 -0.31507,2.20486 -0.001,0.14552 -0.20048,0.26458 -0.44302,0.26458 h -0.44097 V 219.944 c 0,-2.11813 -0.10157,-3.95272 -0.22571,-4.07686 -0.34999,-0.34999 -1.92581,-0.48791 -5.87674,-0.51434 l -3.633,-0.0243 -0.46068,-1.09564 -0.46068,-1.09564 -0.20868,1.53662 -0.20867,1.53661 0.51144,0.70555 c 0.2813,0.38806 1.1456,1.64963 1.92067,2.80349 l 1.40921,2.09793 -0.081,2.66965 -0.081,2.66965 1.13974,1.8523 c 0.62685,1.01877 1.13973,1.97339 1.13973,2.12138 0,0.14799 0.27781,0.5092 0.61736,0.80269 0.33955,0.29348 1.17299,1.21221 1.85209,2.04162 l 1.23472,1.50801 2.36054,1.2446 2.36054,1.24459 1.37627,2.34844 c 1.44642,2.46814 1.86776,3.36019 2.06732,4.3769 l 0.12118,0.61737 h -0.31232 c -0.17178,0 -0.40551,-0.37132 -0.51942,-0.82514 -0.1139,-0.45382 -0.97583,-2.00164 -1.91539,-3.43958 l -1.70831,-2.61445 -2.16969,-0.99878 -2.1697,-0.99878 -1.72782,-1.99983 c -0.95031,-1.09991 -2.46297,-3.13888 -3.36149,-4.53105 l -1.63366,-2.53122 v -2.72888 -2.72887 l -1.78612,-2.6325 -1.78613,-2.63249 0.0782,-3.21991 0.0782,-3.21991 -0.58013,-1.35403 c -0.31907,-0.74472 -1.05666,-1.95571 -1.6391,-2.69109 l -1.05897,-1.33706 -2.94246,-0.91741 -2.94246,-0.91742 -1.64801,-1.25835 -1.64802,-1.25835 -0.0417,-1.48315 c -0.023,-0.81573 -0.14202,-1.94051 -0.26459,-2.49952 l -0.22284,-1.01637 -1.76389,-2.04634 c -0.97014,-1.12549 -1.86027,-2.05718 -1.97806,-2.07043 -0.1178,-0.0132 -0.30023,1.2314 -0.40541,2.7659 l -0.19123,2.78998 -0.37762,0.6496 c -0.20769,0.35728 -0.38923,0.57022 -0.40342,0.4732 -0.0142,-0.097 -0.0904,-2.87513 -0.16942,-6.17361 -0.079,-3.29847 -0.2188,-6.31472 -0.3107,-6.70277 -0.0919,-0.38806 -0.17925,-1.54967 -0.19409,-2.58136 l -0.027,-1.8758 -2.20486,-2.09768 -2.20486,-2.09768 -0.0516,-4.49319 -0.0516,-4.49318 -1.1831,-0.78111 c -0.65071,-0.42962 -2.05624,-1.39606 -3.12339,-2.14766 l -1.94028,-1.36655 -1.45476,-2.96762 c -1.41738,-2.89136 -2.03716,-4.5195 -2.40542,-6.31901 -0.0993,-0.48507 -0.63655,-1.36375 -1.19395,-1.95262 -1.41641,-1.49637 -1.77853,-2.28787 -1.86514,-4.07672 -0.0414,-0.85546 -0.18214,-1.71413 -0.3127,-1.90816 -0.13057,-0.19402 -0.61067,-1.30527 -1.0669,-2.46944 -0.45623,-1.16417 -0.99813,-2.2333 -1.20421,-2.37585 -0.20608,-0.14255 -0.25913,-0.26161 -0.11788,-0.26458 0.14125,-0.003 -0.1858,-0.70333 -0.72676,-1.55634 l -0.98358,-1.55094 -2.36004,-1.78631 -2.36005,-1.78631 -0.0441,1.22058 c -0.0243,0.67132 -0.0838,1.37933 -0.13229,1.57336 -0.0485,0.19403 -0.10804,0.75687 -0.1323,1.25076 l -0.0441,0.89798 -0.79375,0.78133 c -0.43657,0.42973 -1.32429,1.19203 -1.97272,1.694 l -1.17896,0.91266 -0.6801,2.43511 c -0.37405,1.33931 -0.77621,3.49797 -0.89368,4.79703 l -0.2136,2.36192 1.43574,2.10336 c 0.78966,1.15685 2.48243,4.14211 3.76173,6.63391 l 2.32598,4.53055 2.84177,1.5875 2.84178,1.5875 0.65286,1.23472 c 0.35908,0.6791 1.21778,2.44283 1.90823,3.9194 l 1.25536,2.68468 0.69915,3.31254 c 0.77787,3.6855 0.83134,4.19449 0.44065,4.19449 -0.14825,0 -0.7105,-1.58883 -1.24943,-3.53075 l -0.97988,-3.53075 -1.83737,-3.8671 c -1.01056,-2.1269 -1.99612,-3.9115 -2.19015,-3.96577 -0.19403,-0.0543 -1.4905,-0.73368 -2.88105,-1.50979 l -2.52826,-1.41111 -1.88146,-3.88028 c -1.0348,-2.13415 -2.73906,-5.1504 -3.78725,-6.70278 l -1.90579,-2.8225 0.0573,-1.41111 c 0.0988,-2.43378 0.4197,-4.5097 1.04814,-6.77995 l 0.60728,-2.19384 1.755,-1.83067 1.75501,-1.83067 0.1998,-2.67827 0.19981,-2.67827 -0.47736,-1.67334 -0.47736,-1.67334 -1.09065,-0.564 -1.09066,-0.564 0.20848,-1.7603 0.20848,-1.7603 -2.92444,-1.3511 -2.92445,-1.3511 -0.67367,-1.00126 c -0.37052,-0.55069 -1.17959,-2.58876 -1.79794,-4.52903 -0.61834,-1.94028 -1.56282,-4.55966 -2.09883,-5.82084 l -0.97456,-2.29305 -0.0613,-3.08622 -0.0613,-3.08621 -1.94908,-2.55823 -1.94908,-2.558232 -0.25019,-1.170291 c -0.30009,-1.403729 -0.70381,-2.17639 -2.2939,-4.390231 l -1.20663,-1.679967 -0.11821,-0.965866 c -0.065,-0.531227 -0.44982,-1.978791 -0.85512,-3.21681 -0.4053,-1.238018 -0.73691,-2.58835 -0.73691,-3.000737 0,-0.412386 0.68174,-2.177587 1.51498,-3.922668 l 1.51498,-3.172874 0.0344,-3.704166 0.0344,-3.704167 -1.6656,-2.314548 c -0.91608,-1.273002 -1.99014,-3.071691 -2.38682,-3.997086 l -0.72121,-1.682537 0.22,-0.876567 0.22,-0.876567 -0.87683,-0.947181 -0.87684,-0.94718 -0.64797,-1.852084 c -0.35638,-1.018645 -0.74008,-1.852083 -0.85266,-1.852083 -0.44279,0 -2.72588,3.099131 -4.09328,5.55633 l -1.03071,1.852163 -1.23472,0.247736 c -0.6791,0.136256 -1.3183,0.227422 -1.42046,0.202592 -0.10215,-0.02483 -0.13946,0.757574 -0.0829,1.738675 l 0.10283,1.78382 -0.5968,2.158647 -0.5968,2.158648 -0.77721,1.058333 c -0.42747,0.582084 -1.57817,2.605605 -2.55711,4.496715 l -1.77989,3.438382 -2.47209,2.148775 -2.472084,2.148776 -0.408965,1.11562 c -0.224931,0.613592 -0.489255,1.650611 -0.587388,2.304488 l -0.178424,1.188867 0.631262,1.456966 c 0.347194,0.801332 1.175079,2.217973 1.839749,3.148093 l 1.20848,1.691126 -0.022,1.483874 -0.0221,1.483873 1.07387,1.111093 1.07387,1.111093 1.29888,4.724177 1.29888,4.72418 1.59834,2.10223 c 0.87908,1.15622 1.94742,2.67925 2.37408,3.3845 l 0.77574,1.28228 0.39421,1.9629 0.39421,1.9629 -0.83588,2.36773 -0.83588,2.36772 -1.50226,1.67088 -1.50226,1.67087 v 1.89815 1.89814 l -0.54703,0.78099 -0.54703,0.78099 0.71027,1.60568 c 0.39065,0.88312 0.81488,2.19419 0.94274,2.91348 0.31598,1.77766 1.23252,3.20533 2.9962,4.66712 0.81408,0.67473 1.65689,1.38554 1.87291,1.57956 0.21603,0.19403 1.18652,0.74579 2.15666,1.22614 l 1.76389,0.87336 5.3066,0.009 5.30659,0.009 1.0434,0.68148 c 0.57388,0.37482 2.26709,1.88294 3.7627,3.35139 l 2.71928,2.66991 0.0982,2.11666 0.0982,2.11667 -0.68058,2.55764 -0.68059,2.55764 h -0.46789 -0.46788 l 0.17315,-0.79375 c 0.56501,-2.59 0.67269,-3.4992 0.671,-5.66572 l -0.002,-2.40253 -0.89047,-0.82569 c -0.48976,-0.45413 -1.19218,-1.19956 -1.56095,-1.65652 -1.05103,-1.3024 -3.3886,-2.98852 -4.55103,-3.28272 -0.58208,-0.14732 -3.05952,-0.24698 -5.50541,-0.22147 l -4.44707,0.0464 -1.90293,-0.884 -1.90292,-0.88399 -0.10969,1.43054 -0.10969,1.43055 0.75766,3.94404 c 0.41671,2.16922 0.84124,4.98028 0.9434,6.2468 l 0.18575,2.30277 -0.74552,3.65538 c -0.41004,2.01046 -0.74553,3.71265 -0.74553,3.78265 0,0.07 -0.20543,0.12727 -0.45653,0.12727 H 112.456 l 0.65809,-3.79236 0.65809,-3.79236 -0.1996,-2.46945 c -0.10978,-1.35819 -0.44614,-3.34257 -0.74745,-4.40972 -0.7879,-2.79049 -0.88923,-3.40311 -1.05027,-6.35 l -0.14459,-2.64583 -0.8063,-0.64417 c -0.44346,-0.3543 -1.16348,-0.94856 -1.60004,-1.32059 l -0.79375,-0.67641 v 1.57987 1.57986 l -1.04909,1.70499 -1.04909,1.70499 -0.16497,5.31775 -0.16497,5.31774 -0.55777,1.33492 c -0.30677,0.7342 -1.04728,2.13048 -1.64558,3.10284 l -1.08781,1.76793 0.19611,2.50477 c 0.10787,1.37763 0.28456,2.73694 0.39266,3.0207 0.10809,0.28375 0.32904,2.18279 0.49099,4.22008 l 0.29446,3.70417 3.44689,3.35139 3.44689,3.35139 1.21898,2.64583 1.21898,2.64583 -0.18181,1.05834 -0.18181,1.05833 0.76181,3.58682 0.76181,3.58682 0.96672,0.19335 0.96672,0.19334 0.33628,1.33511 c 0.18495,0.73432 0.43593,1.92011 0.55773,2.63509 l 0.22145,1.29998 1.48981,2.05141 c 0.81939,1.12828 1.79542,2.63315 2.16896,3.34417 0.37354,0.71101 1.38665,2.06039 2.25135,2.99861 l 1.57218,1.70586 1.57145,3.88055 c 0.86429,2.13431 1.75287,4.10059 1.97462,4.36951 0.66,0.80039 2.77965,1.9895 4.36966,2.45135 l 1.48667,0.43184 1.60014,2.07949 c 0.88007,1.14372 1.60013,2.18152 1.60013,2.30622 0,0.1247 0.37095,0.73207 0.82434,1.34971 l 0.82434,1.12299 0.39567,2.24084 0.39566,2.24085 1.24944,1.06724 1.24944,1.06725 v 2.02326 2.02327 l 1.08043,1.37142 c 0.59424,0.75429 1.76092,2.0287 2.59262,2.83204 l 1.5122,1.46061 0.0779,2.9452 0.0778,2.94519 0.65841,1.94419 c 0.36213,1.06931 0.92124,2.56929 1.24247,3.33328 l 0.58404,1.38909 -0.23412,1.87389 -0.23413,1.87389 1.0906,1.68308 1.09061,1.68309 1.56368,1.22755 1.56369,1.22755 0.54606,1.33006 c 0.30034,0.73153 0.54607,1.5903 0.54607,1.90838 v 0.57832 l 1.92224,2.01527 1.92224,2.01526 0.22705,0.90465 0.22705,0.90466 2.64389,0.62329 c 1.45414,0.34282 2.85752,0.78946 3.11863,0.99254 1.16677,0.90746 7.57779,12.80497 7.57779,14.06277 v 0.39238 l -0.50816,-0.51657 c -0.2795,-0.28411 -1.32949,-2.10407 -2.33332,-4.04434 -1.00384,-1.94028 -2.68565,-4.83747 -3.73736,-6.4382 l -1.9122,-2.91042 -0.51698,-0.0441 c -0.60899,-0.052 -0.53164,-0.0353 -2.90381,-0.62527 l -1.85766,-0.46202 -0.52359,-0.74752 c -0.28797,-0.41114 -0.52358,-1.02182 -0.52358,-1.35706 0,-0.33524 -0.21335,-0.73648 -0.4741,-0.89164 -0.26076,-0.15517 -1.19788,-1.10354 -2.0825,-2.10751 l -1.60841,-1.82539 -0.22644,0.76706 c -0.12455,0.42188 -0.30966,1.39534 -0.41137,2.16324 -0.10171,0.76791 -0.20569,1.48228 -0.23107,1.5875 -0.0254,0.10523 0.38516,1.02475 0.91231,2.0434 0.52716,1.01865 0.89329,1.85208 0.81363,1.85208 -0.0797,0 0.0103,0.67469 0.19991,1.49931 0.18961,0.82462 0.40575,1.79788 0.4803,2.16282 0.13049,0.63874 2.42415,4.40075 3.78448,6.20721 l 0.65777,0.87351 -0.35604,0.11868 c -0.51159,0.17053 -1.40143,-0.8316 -3.31612,-3.73461 l -1.68125,-2.54907 -0.54431,-2.02434 c -0.29937,-1.11339 -0.60518,-2.3018 -0.67959,-2.64092 -0.17012,-0.77538 -1.31527,-2.73481 -1.59831,-2.73481 -0.11646,0 -0.57524,0.64675 -1.01951,1.43722 l -0.80776,1.43722 0.17021,3.94264 c 0.0936,2.16845 0.25481,4.27277 0.35819,4.67625 0.10338,0.40349 0.44423,2.30849 0.75745,4.23333 l 0.56949,3.49973 0.14033,8.29028 c 0.0772,4.55965 0.25095,9.59996 0.38614,11.20069 l 0.24579,2.91042 h -0.92378 -0.92378 z m -91.937302,-69.5222 0.891989,-1.34788 -0.09795,-4.03198 -0.09795,-4.03197 0.498743,-2.29306 c 0.274309,-1.26118 0.554372,-2.53118 0.622361,-2.82222 0.06799,-0.29104 0.229474,-1.16723 0.358855,-1.94708 l 0.235238,-1.41791 -1.435821,-2.22149 c -0.789701,-1.22183 -1.829342,-2.64589 -2.310312,-3.1646 l -0.874492,-0.9431 -0.01818,-0.88555 -0.01818,-0.88555 -0.54872,1.32292 c -0.301795,0.7276 -0.703104,1.32292 -0.891796,1.32292 h -0.343077 l 0.230756,-1.14653 c 0.126916,-0.63059 0.308978,-1.42434 0.404581,-1.76389 l 0.173825,-0.61736 -0.464746,0.003 c -0.255609,0.002 -1.447575,1.09117 -2.648812,2.42064 l -2.184068,2.41721 0.467043,0.6668 0.467043,0.66679 0.138901,2.8216 0.138901,2.82159 0.942037,1.41112 0.942036,1.41111 0.249482,1.91931 0.249482,1.91931 0.879091,0.81472 c 0.4835,0.44809 0.997675,0.81471 1.142612,0.81471 0.498561,0 0.775951,1.2414 0.945934,4.23334 l 0.170362,2.99861 0.360107,0.44097 c 0.477427,0.58464 0.408718,0.62837 1.424723,-0.90692 z m -19.27157,-13.05252 0.405794,-1.82737 h -0.991541 c -0.545347,0 -1.242649,-0.0964 -1.54956,-0.21413 l -0.558019,-0.21413 v 2.5082 2.5082 l 1.143766,-0.46671 1.143767,-0.4667 z m 2.378765,-0.85723 c 1.040428,-1.82583 1.03038,-1.86926 -0.292992,-1.26629 l -0.898544,0.40941 v 0.97285 c 0,0.53507 -0.102739,1.26365 -0.22831,1.61907 l -0.22831,0.64621 0.346642,-0.35278 c 0.190653,-0.19402 0.776335,-1.10684 1.301514,-2.02847 z m -1.5485,-3.35139 c -0.0023,-0.33955 -0.238544,-1.49048 -0.52498,-2.55764 l -0.520793,-1.94027 -0.0017,-2.82223 -0.0017,-2.82222 0.658872,-2.82222 c 0.362379,-1.55222 0.759369,-3.37785 0.882201,-4.05694 l 0.223329,-1.23473 -0.726653,1.05834 c -0.39966,0.58208 -1.20725,1.9916 -1.794644,3.13226 l -1.067991,2.07394 -0.155615,4.98162 c -0.08559,2.73989 -0.192038,5.45787 -0.236556,6.03995 l -0.08094,1.05834 1.411111,0.21452 c 0.776111,0.11799 1.530173,0.23705 1.675694,0.26458 0.145521,0.0275 0.262699,-0.22775 0.260397,-0.5673 z m 4.392464,-2.95875 c 1.467003,-1.38478 2.667278,-2.69263 2.667278,-2.90635 0,-0.21371 -0.74352,-1.06157 -1.652268,-1.88412 l -1.652268,-1.49557 -0.04231,-4.24239 -0.04231,-4.24239 -0.351113,-0.35111 -0.351113,-0.35112 -1.295531,3.96833 -1.29553,3.96833 -0.149722,2.24764 -0.149722,2.24764 0.480025,2.69125 c 0.264013,1.48019 0.485563,2.73094 0.492332,2.77945 0.06194,0.44382 1.089718,-0.30331 3.342252,-2.42959 z m 5.173403,-5.00997 c 0.464895,-0.45374 1.521459,-1.56499 2.34792,-2.46944 l 1.502655,-1.64448 h 0.996187 c 0.547903,0 1.098009,-0.10182 1.222458,-0.22627 0.199367,-0.19936 -2.053094,-3.24062 -3.098413,-4.18345 -0.540724,-0.48771 -2.001536,-5.2678 -2.262965,-7.40491 l -0.215356,-1.76047 -1.763889,-1.13872 c -0.970139,-0.62629 -2.191464,-1.47198 -2.714056,-1.87931 l -0.950167,-0.74059 -0.429052,-2.00467 c -0.235978,-1.10256 -0.539346,-2.22143 -0.67415,-2.48636 l -0.245099,-0.48171 -0.404155,3.15143 c -0.222284,1.73329 -0.401814,4.0138 -0.398953,5.06782 l 0.0052,1.91638 0.435772,0.7712 c 0.239674,0.42415 0.965349,1.67623 1.61261,2.78239 l 1.176839,2.0112 -0.105398,4.35778 -0.105398,4.35778 1.381404,1.41469 c 0.759773,0.77807 1.484756,1.41468 1.611074,1.41468 0.126318,0 0.610037,-0.37123 1.074932,-0.82497 z m 12.575125,-10.31898 1.146528,-0.64984 -0.0025,-0.89407 -0.0025,-0.89408 -2.202399,-1.24441 -2.202399,-1.2444 -0.382127,-1.57782 -0.382127,-1.57781 -2.792873,-0.59684 c -1.53608,-0.32826 -3.380969,-0.60607 -4.099754,-0.61736 l -1.306881,-0.0205 0.865909,0.86591 0.865909,0.86591 0.0081,1.51534 0.0081,1.51534 0.962044,2.72703 0.962044,2.72702 1.583513,2.16979 1.583513,2.16978 2.120653,-2.29456 c 1.16636,-1.26202 2.636592,-2.587 3.267182,-2.9444 z M 206.09558,211.7199 c 0.22424,-1.60478 0.40403,-3.55279 0.39952,-4.3289 l -0.008,-1.41112 -0.72482,-1.5875 -0.72482,-1.5875 -0.23757,-2.09635 -0.23757,-2.09635 -2.29306,-0.43071 c -1.26118,-0.2369 -3.63069,-0.85709 -5.26557,-1.3782 l -2.97252,-0.94749 -0.95892,-1.06068 c -1.8245,-2.01812 -2.02643,-2.22558 -3.22453,-3.31292 l -1.20341,-1.09214 -1.21322,-2.34614 c -0.66727,-1.29037 -1.38337,-2.34672 -1.59134,-2.34743 -0.20797,-7.2e-4 -1.11942,0.25127 -2.02544,0.55999 l -1.64731,0.56129 -1.85512,-1.12787 c -1.02031,-0.62033 -2.29168,-1.53761 -2.82526,-2.03841 l -0.97013,-0.91053 0.005,1.91808 0.005,1.91809 0.54379,1.56167 c 0.54672,1.57012 1.78243,3.3817 3.86779,5.67027 l 1.12508,1.23472 0.38709,2.44468 0.38709,2.44467 0.98459,0.79639 c 1.19975,0.97043 2.80916,1.68112 5.4621,2.41197 l 2.00807,0.5532 1.23873,1.51171 c 1.17522,1.4342 3.74096,6.18078 3.74096,6.92072 0,0.19028 0.17456,0.72907 0.3879,1.19732 l 0.38791,0.85135 3.04214,0.067 c 1.67318,0.0369 3.0797,0.10461 3.12561,0.15052 0.0459,0.0459 0.62098,0.11966 1.27796,0.16391 l 1.1945,0.0804 z m -133.875958,-4.80113 2.849128,-2.94167 0.103909,-2.31385 0.103909,-2.31385 0.61361,-0.49348 c 0.337485,-0.27141 1.023892,-0.65123 1.525348,-0.84405 l 0.911737,-0.35057 1.775889,-2.3671 c 0.976739,-1.3019 2.225329,-3.16084 2.774646,-4.13098 0.549317,-0.97014 1.822481,-3.05165 2.829254,-4.62557 l 1.830497,-2.86168 2.703977,-0.40216 2.703976,-0.40217 1.127754,-0.57634 c 0.620265,-0.31698 1.652627,-1.11177 2.294139,-1.7662 0.641511,-0.65442 1.752761,-1.48913 2.469444,-1.85491 0.716683,-0.36579 1.583171,-0.97481 1.925541,-1.35339 l 0.62247,-0.68833 0.0386,-1.73046 c 0.0212,-0.95175 -0.16163,-2.68296 -0.40635,-3.84713 -0.24472,-1.16416 -0.44994,-3.32457 -0.45604,-4.80089 l -0.0111,-2.68424 0.8533,-1.3634 c 0.46931,-0.74987 1.18098,-2.1244 1.58147,-3.0545 l 0.72818,-1.6911 0.0765,-4.794 0.0765,-4.794 0.53165,-1.27241 c 0.29241,-0.69983 0.78186,-1.54889 1.08768,-1.88682 l 0.55603,-0.61441 0.10157,-1.69156 c 0.0559,-0.93035 -0.0335,-2.80921 -0.19867,-4.17523 l -0.30024,-2.48368 -0.87022,-1.87827 -0.87021,-1.87827 0.67447,-1.10611 0.67447,-1.1061 10e-4,-1.91291 0.001,-1.91291 1.71253,-1.96895 c 0.9419,-1.08292 1.825,-2.36524 1.96245,-2.84959 0.13746,-0.48435 0.4143,-1.21687 0.6152,-1.62781 l 0.36529,-0.74717 -0.39685,-1.89866 -0.39686,-1.89867 -2.2766,-3.06332 -2.27661,-3.06331 -0.32258,-1.34641 c -0.17742,-0.74052 -0.73176,-2.84099 -1.23188,-4.6677 l -0.9093,-3.321285 -1.27631,-1.052049 -1.276322,-1.052049 0.148963,-1.712077 0.148964,-1.712078 H 99.55087 c -0.161511,0 -0.293656,-0.238125 -0.293656,-0.529167 0,-0.291042 -0.122819,-0.529167 -0.272931,-0.529167 -0.390804,0 -2.548357,-4.351257 -2.554108,-5.151013 -0.0027,-0.368401 -0.102765,-1.035519 -0.22248,-1.482484 l -0.217663,-0.812663 -1.098324,0.107108 -1.098325,0.107108 -1.51481,2.293056 c -0.833146,1.26118 -2.256006,3.772488 -3.161911,5.580684 l -1.647099,3.28763 -1.466256,0.667956 -1.466256,0.667957 -0.446242,1.077324 -0.446242,1.077329 0.277279,1.31709 c 0.365023,1.73387 0.37747,3.34766 0.06162,7.98872 l -0.261978,3.84942 -1.005849,1.79503 -1.00585,1.79503 0.255712,0.88194 c 0.330891,1.14124 2.172942,3.89794 4.243124,6.35 l 1.638102,1.94028 0.589967,1.50644 0.589968,1.50645 v 2.37882 2.37882 l 1.177522,1.75918 c 0.647637,0.96755 1.466606,2.55293 1.819931,3.52307 l 0.642409,1.76388 2.526739,2.46945 2.526739,2.46944 0.722654,1.5875 c 1.524732,3.34948 2.142034,4.78962 2.374594,5.5398 l 0.24096,0.7773 -0.55353,1.86392 -0.553515,1.86391 -1.454295,1.25253 -1.454295,1.25253 -0.03547,1.7507 c -0.01951,0.96289 0.08571,2.78258 0.233819,4.04376 0.148112,1.26118 0.363484,3.0868 0.478603,4.05694 0.11512,0.97014 0.434372,2.2033 0.709449,2.74037 l 0.500141,0.97647 -0.558453,0.2143 -0.558452,0.2143 -0.45942,-0.62829 -0.459421,-0.6283 -0.909558,1.90696 c -0.500257,1.04884 -1.100364,2.7995 -1.333571,3.89037 l -0.424012,1.9834 -0.659505,-0.17246 c -0.776477,-0.20305 -0.783673,-0.34739 -0.149591,-3.00059 0.266628,-1.11566 0.418102,-2.02847 0.336607,-2.02847 -0.08149,0 0.44189,-0.8887 1.163075,-1.97488 l 1.311246,-1.97488 -0.0794,-2.01053 c -0.04367,-1.10579 -0.137287,-2.32054 -0.208038,-2.69943 -0.07075,-0.37889 -0.241481,-1.52233 -0.379402,-2.54098 l -0.250765,-1.85208 0.23879,-1.73621 0.238791,-1.73622 1.359801,-0.94234 1.359802,-0.94235 0.534408,-1.56839 0.534407,-1.5684 -1.466942,-3.4061 -1.466942,-3.4061 -1.779481,-1.7147 c -0.978715,-0.94308 -2.122953,-2.04531 -2.542752,-2.4494 -0.419798,-0.40409 -1.103127,-1.6228 -1.518508,-2.70826 -0.415382,-1.08546 -1.372897,-2.79165 -2.127813,-3.79152 l -1.372573,-1.81797 -0.06741,-2.79681 -0.06741,-2.79682 -0.569286,-1.08244 c -0.313107,-0.59535 -1.399196,-2.09355 -2.41353,-3.32935 -1.014333,-1.23579 -2.045274,-2.68346 -2.290978,-3.21704 -0.245704,-0.53357 -0.555467,-0.97014 -0.688363,-0.97014 -0.132895,0 -0.49195,-0.86107 -0.797899,-1.9135 l -0.556271,-1.9135 1.038641,-1.70247 1.03864,-1.70247 0.25137,-3.35139 c 0.138254,-1.84326 0.26711,-4.25627 0.286348,-5.36223 l 0.03498,-2.01084 -0.410234,-0.41023 -0.410234,-0.41022 -0.47171,0.29448 c -0.259441,0.16196 -0.653131,0.32209 -0.874867,0.35583 -0.221736,0.0337 -1.577124,0.61112 -3.011974,1.28307 l -2.608819,1.22171 -2.103303,1.69987 c -1.156817,0.93493 -2.182678,1.80669 -2.279692,1.93724 -0.405972,0.54631 -3.133463,1.43855 -4.487809,1.46809 -0.04295,9.3e-4 -0.757322,0.20832 -1.5875,0.46085 l -1.509413,0.45916 0.122752,0.47675 c 0.06751,0.26221 0.188668,0.87362 0.269233,1.35869 0.08056,0.48507 0.294051,1.59632 0.474415,2.46945 0.33025,1.5987 0.630265,3.68357 0.959985,6.67112 0.09828,0.89053 0.223232,1.93666 0.277662,2.32471 0.05443,0.38806 0.119223,1.07833 0.143986,1.53393 l 0.04502,0.82838 2.204861,2.19607 c 1.212674,1.20784 2.775673,2.53944 3.473332,2.95911 l 1.26847,0.76303 2.238005,-0.87706 c 2.423561,-0.94979 2.809777,-1.03046 2.809777,-0.58687 0,0.15961 -1.175742,0.87915 -2.61276,1.59898 l -2.61276,1.30877 -1.708768,-0.93612 c -0.939822,-0.51487 -2.185018,-1.37019 -2.767101,-1.90073 -0.582083,-0.53053 -1.356267,-1.06967 -1.720409,-1.1981 l -0.662075,-0.23351 -0.484452,0.40206 c -0.266449,0.22114 -0.484453,0.62914 -0.484453,0.90667 0,0.27753 -0.848793,1.72653 -1.886207,3.22 -1.037413,1.49346 -1.965129,3.13746 -2.061589,3.65332 l -0.175383,0.93793 0.424694,-0.16297 0.424694,-0.16297 1.120399,0.94276 c 1.322058,1.11244 2.006213,2.33615 2.476628,4.42981 l 0.343442,1.52855 -0.904409,1.18574 -0.904409,1.18574 -1.217871,-0.22847 c -0.669829,-0.12566 -1.432974,-0.31102 -1.695878,-0.4119 l -0.478007,-0.18343 -0.125643,0.99786 c -0.19969,1.58595 1.364904,7.12954 2.915845,10.33127 1.844049,3.80682 2.69549,6.61563 3.693976,12.18604 l 0.126469,0.70555 -1.832125,2.61441 -1.832126,2.6144 -1.5875,0.46705 c -0.873125,0.25687 -1.905,0.46749 -2.293055,0.46803 l -0.705556,9.9e-4 -0.796863,-1.23016 -0.796863,-1.23015 0.444085,-0.79395 c 0.244247,-0.43667 0.523714,-0.87332 0.621037,-0.97034 0.09732,-0.097 0.389169,-0.58905 0.648545,-1.09341 l 0.471595,-0.91702 -1.208222,-2.43437 -1.208222,-2.43436 -0.452023,-2.61093 -0.452023,-2.61092 -0.976898,-1.54041 -0.976899,-1.5404 -0.24248,-1.94076 -0.242481,-1.94075 0.819967,-2.14858 0.819967,-2.14858 1.681387,-1.51973 1.681387,-1.51974 0.03459,-1.70488 c 0.01902,-0.93768 -0.07831,-2.59457 -0.21631,-3.68198 l -0.250901,-1.9771 -2.505812,0.76516 -2.505813,0.76516 -0.68828,1.21194 c -0.378554,0.66657 -1.697803,3.15811 -2.931665,5.53677 l -2.243386,4.32482 0.143004,4.49462 0.143004,4.49462 -0.514384,3.175 -0.514384,3.175 0.199709,3.75737 c 0.109839,2.06656 0.517753,5.86257 0.906475,8.43558 l 0.706767,4.67821 -1.442279,4.26442 -1.442279,4.26442 0.168517,1.2991 c 0.09268,0.71451 0.601377,2.22263 1.130428,3.35139 l 0.961911,2.05229 0.173823,1.5875 c 0.0956,0.87312 0.392628,2.01418 0.660056,2.53568 l 0.486232,0.94817 1.501602,0.19741 c 0.825881,0.10858 2.215977,0.17312 3.089102,0.14343 0.873125,-0.0297 2.472044,0.13487 3.553152,0.36569 1.081108,0.23082 2.430483,0.50315 2.998611,0.60519 1.332457,0.23931 1.478546,0.40427 2.019597,2.28039 l 0.451929,1.56709 2.014744,1.38835 2.014745,1.38835 v 0.82025 0.82024 l 1.813214,-2.0322 c 0.997268,-1.11772 3.095322,-3.35596 4.662342,-4.97388 z m 151.389098,-8.78819 c -0.0647,-0.53358 -0.23113,-2.24014 -0.36982,-3.79236 -0.30383,-3.4006 -0.53091,-4.06523 -1.90474,-5.57496 -0.58352,-0.64125 -1.9636,-2.34797 -3.06684,-3.7927 -1.10325,-1.44473 -2.09936,-2.66685 -2.21358,-2.71581 -0.11423,-0.049 -0.15913,-0.76333 -0.0998,-1.5875 l 0.10789,-1.49848 -1.03217,-0.70555 c -2.08937,-1.42821 -4.55908,-3.55521 -5.2659,-4.53517 l -0.72661,-1.0074 -3.79893,-1.73494 -3.79893,-1.73494 -4.87986,0.76958 c -2.68393,0.42327 -4.97174,0.67771 -5.08403,0.56542 -0.11228,-0.11228 -0.34523,-0.81204 -0.51767,-1.55502 l -0.31351,-1.35087 -0.0138,-5.64444 -0.0138,-5.64444 -0.26271,-0.41301 c -0.41056,-0.64541 -2.09979,-0.94111 -5.54589,-0.97078 l -3.17358,-0.0273 -0.71022,-1.94028 c -0.39062,-1.06716 -0.91278,-2.29747 -1.16036,-2.73403 l -0.45015,-0.79375 h -3.48853 -3.48853 l -0.75272,-0.97014 c -0.414,-0.53358 -1.20908,-1.62863 -1.76686,-2.43345 l -1.01415,-1.46332 -3.11066,-0.12961 -3.11067,-0.12962 -1.41111,-0.92406 c -0.77611,-0.50824 -1.93494,-1.01934 -2.57517,-1.13579 l -1.16407,-0.21172 0.15207,0.25927 c 0.0836,0.1426 0.49428,1.01753 0.91255,1.94429 l 0.76047,1.68501 0.0311,1.55183 0.0311,1.55183 1.2048,1.16774 1.2048,1.16773 0.54122,1.94542 c 0.29768,1.06998 1.25563,3.45355 2.12878,5.29681 l 1.58756,3.35139 2.17846,1.45002 c 1.19815,0.79751 3.40877,2.13878 4.91248,2.98061 1.50372,0.84182 2.73403,1.64741 2.73403,1.79021 0,0.14279 0.18439,0.70651 0.40975,1.25272 0.22535,0.54621 0.40069,1.07248 0.38963,1.1695 -0.0111,0.097 -0.13974,0.89076 -0.28595,1.76388 -0.1462,0.87313 -0.23728,2.67725 -0.20239,4.00917 l 0.0634,2.42166 1.47435,1.88776 1.47436,1.88775 0.98424,0.40769 c 0.54134,0.22422 0.98425,0.53648 0.98425,0.69389 0,0.15741 0.32395,0.38902 0.71989,0.51469 l 0.7199,0.22849 1.91083,-0.60103 c 1.05096,-0.33057 2.11607,-0.5217 2.36691,-0.42474 0.25084,0.097 1.21235,1.5366 2.13668,3.19919 l 1.6806,3.02289 1.37153,0.98587 1.37153,0.98588 0.6004,1.11488 0.60041,1.11489 2.1683,0.71232 c 1.19256,0.39178 2.72392,0.81899 3.40302,0.94937 0.67909,0.13037 1.93706,0.4682 2.79547,0.75073 l 1.56076,0.51367 1.96702,-0.061 c 1.08186,-0.0335 3.3164,0.0586 4.96564,0.20474 l 2.99861,0.2657 1.33364,-0.75058 c 1.72898,-0.97306 1.98645,-0.95211 3.71851,0.30259 1.29013,0.93457 3.35163,2.01306 4.00081,2.09306 0.12844,0.0158 0.18057,-0.40778 0.11586,-0.94136 z m -48.72634,-23.31564 c 0.12159,-1.42446 0.31213,-2.73726 0.42341,-2.91731 0.11128,-0.18006 0.0167,-0.88974 -0.21011,-1.57708 l -0.41244,-1.2497 -0.87697,-0.33342 -0.87697,-0.33343 -0.368,0.22744 -0.368,0.22744 0.16606,3.44874 0.16607,3.44873 1.02529,0.88245 c 0.56391,0.48535 1.04448,0.85627 1.06793,0.82427 0.0234,-0.032 0.14213,-1.22366 0.26373,-2.64813 z m -113.845594,0.27105 0.760775,-0.2844 1.267697,-1.90987 c 0.697233,-1.05042 1.267697,-2.15925 1.267697,-2.46407 0,-0.30481 -0.339198,-2.02741 -0.753773,-3.82799 l -0.753773,-3.2738 -1.8543,-3.8966 -1.854301,-3.8966 -0.812017,-3.43653 -0.812017,-3.43654 -0.819493,0.76987 c -0.450721,0.42344 -1.22206,1.62084 -1.714088,2.6609 l -0.894595,1.89102 0.232172,1.65758 0.232171,1.65759 0.886766,1.31386 0.886765,1.31387 0.625541,3.11822 0.625541,3.11822 1.096645,2.17244 1.096645,2.17244 v 0.87118 c 0,0.47915 -0.159879,0.97 -0.355287,1.09077 -0.195407,0.12076 -0.602256,0.69716 -0.904108,1.28088 l -0.548822,1.0613 0.424748,0.51179 0.424748,0.51179 0.743944,-0.23146 c 0.409169,-0.1273 1.086292,-0.35944 1.504719,-0.51586 z m -65.5630047,-4.88322 c 1.3820533,-1.09154 3.89658703,-2.63057 5.35917469,-3.28009 l 0.88194441,-0.39167 1.9402778,-2.40591 1.9402777,-2.40591 2.2362844,-1.67168 2.2362847,-1.67168 -0.3638278,-0.12127 c -0.5922301,-0.19741 -5.9310564,2.28698 -8.1440097,3.78977 l -2.04794061,1.39073 -0.71236109,1.20736 -0.712361,1.20737 -1.9786732,0.62236 -1.9786733,0.62237 v 1.51036 c 0,0.83069 -0.096359,1.76146 -0.2141321,2.06837 -0.3112153,0.81102 0.087745,0.69052 1.5577351,-0.47048 z m 21.3605007,-15.85955 1.361048,-1.28 0.623113,-1.42518 c 0.342712,-0.78385 0.730981,-1.97448 0.862819,-2.64583 l 0.239705,-1.22066 -2.192181,2.29306 c -2.468496,2.58208 -4.19583,4.83482 -4.19583,5.47206 v 0.42732 l 0.970139,-0.17039 0.970138,-0.17039 z m 45.864519,-8.94277 0.356531,-0.56522 -0.479886,-1.53045 -0.479887,-1.53045 -1.067172,-1.14653 c -0.586945,-0.63059 -1.194781,-1.14653 -1.350747,-1.14653 h -0.283574 v 2.94758 2.94758 l 1.146528,0.36582 c 1.384232,0.44167 1.695059,0.39244 2.158207,-0.3418 z m -35.810256,-3.57361 3.301423,-3.22751 2.431216,-3.2593 c 1.337169,-1.79262 2.431216,-3.35177 2.431216,-3.46478 0,-0.11302 0.198437,-0.41365 0.440972,-0.66808 0.242535,-0.25443 2.028472,-2.18561 3.96875,-4.29152 1.940278,-2.10592 4.348023,-4.67206 5.350544,-5.70254 1.002522,-1.03049 1.989764,-2.07483 2.193871,-2.32077 l 0.371105,-0.44715 -2.546649,0.67344 c -1.400657,0.3704 -3.181649,0.83826 -3.95776,1.0397 l -1.411111,0.36624 -2.645833,2.72103 -2.645834,2.72102 -1.537225,3.07979 -1.537224,3.07979 -1.008524,1.0317 c -0.554689,0.56744 -1.142691,1.03171 -1.306672,1.03171 -0.163981,0 -0.612703,0.27781 -0.997159,0.61736 -0.384457,0.33955 -1.145309,0.93486 -1.690783,1.32292 l -0.991771,0.70555 -1.056207,2.82222 c -0.580914,1.55223 -1.27391,3.50608 -1.539992,4.34189 l -0.483785,1.51967 0.783005,-0.23244 0.783004,-0.23244 z m 27.213854,-27.52363 c 2.091442,-1.13654 5.055912,-3.09594 4.409723,-2.91465 -0.388056,0.10887 -1.261181,0.28575 -1.940278,0.39307 -0.679097,0.10732 -1.649356,0.27957 -2.15613,0.38277 l -0.921407,0.18764 -0.478384,0.95281 c -0.263111,0.52405 -0.536395,1.07188 -0.607296,1.2174 -0.20639,0.4236 0.735305,0.30182 1.693772,-0.21904 z m 65.783651,-76.862906 0.57632,-2.557639 0.92023,-1.401733 c 1.42714,-2.173861 1.40455,-2.935135 -0.17818,-6.0066 -0.29995,-0.582083 -0.90403,-1.425587 -1.3424,-1.874452 l -0.79704,-0.816119 -1.04161,0.538641 -1.04162,0.538641 -0.77265,1.309538 -0.77264,1.309537 0.57738,3.201274 c 0.31756,1.7607 0.60646,3.439398 0.642,3.73044 0.0524,0.42941 2.38303,4.54088 2.59398,4.576105 0.0329,0.0055 0.31926,-1.140932 0.63623,-2.547633 z"
       id="path1" /></g></svg>
