<?xml version="1.0" encoding="UTF-8" standalone="no"?>
<!-- Created with Inkscape (http://www.inkscape.org/) -->

<svg
   xmlns:dc="http://purl.org/dc/elements/1.1/"
   xmlns:cc="http://creativecommons.org/ns#"
   xmlns:rdf="http://www.w3.org/1999/02/22-rdf-syntax-ns#"
   xmlns:svg="http://www.w3.org/2000/svg"
   xmlns="http://www.w3.org/2000/svg"
   xmlns:sodipodi="http://sodipodi.sourceforge.net/DTD/sodipodi-0.dtd"
   xmlns:inkscape="http://www.inkscape.org/namespaces/inkscape"
   width="2968.5745"
   height="1167.3842"
   viewBox="0 0 785.43531 308.8704"
   version="1.1"
   id="svg8"
   inkscape:version="0.92.4 (5da689c313, 2019-01-14)"
   sodipodi:docname="Chameleon-side.svg"
   inkscape:export-filename="G:\Pictures\My Pictures\Vectors and SVGs\Animals\Chameleon.png"
   inkscape:export-xdpi="96"
   inkscape:export-ydpi="96">
  <defs
     id="defs2" />
  <sodipodi:namedview
     id="base"
     pagecolor="#000720"
     bordercolor="#666666"
     borderopacity="1.0"
     inkscape:pageopacity="0"
     inkscape:pageshadow="2"
     inkscape:zoom="0.24748737"
     inkscape:cx="1272.1062"
     inkscape:cy="440.90981"
     inkscape:document-units="mm"
     inkscape:current-layer="layer1"
     showgrid="false"
     borderlayer="true"
     inkscape:showpageshadow="false"
     inkscape:pagecheckerboard="true"
     units="px"
     inkscape:window-width="1600"
     inkscape:window-height="837"
     inkscape:window-x="-8"
     inkscape:window-y="-8"
     inkscape:window-maximized="1"
     inkscape:snap-global="true"
     inkscape:snap-center="true"
     inkscape:snap-object-midpoints="true"
     fit-margin-top="0"
     fit-margin-left="0"
     fit-margin-right="0"
     fit-margin-bottom="0" />
  <metadata
     id="metadata5">
    <rdf:RDF>
      <cc:Work
         rdf:about="">
        <dc:format>image/svg+xml</dc:format>
        <dc:type
           rdf:resource="http://purl.org/dc/dcmitype/StillImage" />
        <dc:title></dc:title>
      </cc:Work>
    </rdf:RDF>
  </metadata>
  <g
     inkscape:label="Layer 1"
     inkscape:groupmode="layer"
     id="layer1"
     transform="translate(-4.157295,10.144577)">
    <path
       style="opacity:1;fill:#555555;fill-opacity:1;fill-rule:nonzero;stroke:none;stroke-width:0.71162331;stroke-linecap:round;stroke-linejoin:round;stroke-miterlimit:4;stroke-dasharray:none;stroke-dashoffset:0;stroke-opacity:1;paint-order:normal"
       d="m 154.88815,-10.14369 c 0.53145,0.0052 1.06448,0.03277 1.59938,0.08372 22.82341,2.1736597 22.28022,42.386473 8.15145,77.708435 -4.35671,10.891798 -7.34026,20.68598 -10.26189,29.592508 1.47108,0.267023 2.90533,0.415478 4.31704,0.415478 13.06457,0 11.52779,-8.838054 39.19397,-13.064837 10.37485,-1.585023 18.10147,-2.575448 28.67216,-2.627227 17.61781,-0.08631 43.13446,2.435748 101.97311,9.160163 94.14185,10.75907 185.86524,45.89421 194.54059,47.58107 13.83307,2.68977 43.44575,15.62356 84.58293,6.5009 41.13718,-9.12262 92.15508,-29.92983 132.99447,-18.70739 40.83938,11.22243 58.18808,57.37016 44.12805,88.03855 -12.65432,27.60217 -28.39693,26.57358 -38.68911,27.19731 -9.47047,0.57394 -36.86108,-8.08017 -29.43799,-37.41167 5.62642,-22.23224 31.58178,-21.7011 40.6187,-10.40711 9.03693,11.29398 -0.10593,25.09355 -0.10593,25.09355 0,0 7.63124,-2.73283 9.88828,-23.06371 2.25705,-20.33089 -13.978,-36.65045 -38.0571,-41.64758 -24.0791,-4.9971 -81.53712,15.91641 -115.43275,21.92683 -36.27038,6.4315 -68.31161,5.58293 -86.37147,15.18925 -4.16153,2.21358 -8.41322,4.2683 -12.69019,6.1774 -12.63523,7.52097 -12.19475,6.88219 -31.49885,14.76396 -20.30929,8.2922 -37.84854,13.06464 -38.2328,19.98121 -0.38425,6.91653 8.83751,14.79372 12.10366,28.81891 3.26615,14.02521 0.16112,22.63651 6.11699,26.67117 5.95593,4.03463 -7.70728,8.81555 -23.62238,8.89086 -14.76359,0.0699 -14.36561,-0.21394 -18.97664,-5.59348 -4.61102,-5.3795 1.13084,-9.41122 4.97335,-11.33247 3.84252,-1.92127 2.11371,1.9e-4 -0.38396,-18.63608 -1.01444,-7.56942 -0.0688,-16.0798 -4.16769,-21.70204 -7.70577,-10.56953 -9.26343,-12.00421 -22.74901,-9.59631 -14.20237,2.53589 -32.76893,5.55976 -56.85028,8.43514 -51.07913,6.09903 -94.00008,-7.90462 -123.29583,-19.36626 -10.48479,-4.10206 -11.35789,-5.26744 -24.02231,-9.13277 -3.88041,-1.18435 -7.13343,-2.23834 -9.84126,-2.62516 -2.39445,-0.34207 -4.80293,-0.73446 -7.20368,-1.16427 2.60287,7.96516 0.8635,11.45718 0.8635,14.03686 0,4.99528 -19.2124,33.23768 -38.42504,51.10542 -19.21259,17.86774 -16.90712,20.94156 -20.74963,24.01557 -3.84252,3.07403 -24.208345,5.18747 -29.587854,1.92135 -5.379534,-3.26618 0.960967,-15.5624 6.91687,-16.52305 5.955904,-0.96059 5.187054,1.72948 10.182334,-8.45322 4.99528,-10.18268 40.53882,-51.68212 43.61285,-55.33253 3.07399,-3.65039 3.26626,-3.26584 1.1529,-5.76347 -1.7835,-2.10777 -1.32056,-1.63259 -7.45847,-13.85549 -4.87061,-1.82624 -8.7643,-3.66762 -11.17812,-5.3573 -7.68509,-5.37954 -13.44848,-6.53196 -21.90202,-5.76347 C 101.82491,186.80354 58.01954,167.97482 38.038445,158.3685 18.057324,148.76219 1.1506609,139.5403 4.6089503,115.33237 6.5301957,105.72606 21.131624,104.5727 40.344236,95.350645 49.703104,90.858391 57.879893,87.190784 67.088875,84.87273 65.764106,73.419884 66.677818,71.187464 89.647699,50.259341 113.52822,28.501519 132.74454,-10.358468 154.88815,-10.14369 Z m 587.57292,216.70098 c -1.02442,-0.007 -2.10454,0.32327 -2.58486,0.80357 -0.76851,0.76853 -1.24893,3.84247 -0.19223,5.2834 1.05669,1.44094 4.70657,3.55452 7.20421,0.28835 -2.78583,0.67246 -4.13063,-0.38476 -3.45819,-1.82572 0.67245,-1.44093 1.82507,-3.362 0.67231,-4.1305 -0.43228,-0.28818 -1.02659,-0.4146 -1.64124,-0.4191 z"
       id="path891"
       inkscape:connector-curvature="0"
       sodipodi:nodetypes="ccscscsscsssssscscsscscscscccsssssccsccccscccccscscscccccccc" />
    <path
       sodipodi:nodetypes="sscscccsssssccsccccsccs"
       inkscape:connector-curvature="0"
       id="path843"
       d="m 482.18793,232.33712 c 2.50693,7.20097 8.83751,14.79372 12.10366,28.81891 3.26615,14.02521 0.16112,22.63651 6.11699,26.67117 5.95593,4.03463 -7.70728,8.81555 -23.62238,8.89086 -14.76359,0.0699 -14.36561,-0.21394 -18.97664,-5.59348 -4.61102,-5.3795 1.13084,-9.41122 4.97335,-11.33247 3.84252,-1.92127 2.11371,1.9e-4 -0.38396,-18.63608 -1.01444,-7.56942 -0.0688,-16.0798 -4.16769,-21.70204 -7.70577,-10.56953 -11.15331,-21.07564 -24.63889,-18.66774 -14.20237,2.53589 -31.25703,1.02405 -55.33838,3.89943 -51.07913,6.09903 -93.6221,5.70252 -122.91785,-5.75912 -10.48479,-4.10206 -11.35789,-5.26744 -24.02231,-9.13277 -3.88041,-1.18435 -7.13343,-2.23834 -9.84126,-2.62516 -2.39445,-0.34207 -4.80293,-0.73446 -7.20368,-1.16427 2.60287,7.96516 0.8635,11.45718 0.8635,14.03686 0,4.99528 -19.2124,33.23768 -38.42504,51.10542 -19.21259,17.86774 -16.90712,20.94156 -20.74963,24.01557 -3.84252,3.07403 -24.20834,5.18747 -29.58785,1.92135 -5.37954,-3.26618 0.96097,-15.5624 6.91687,-16.52305 5.9559,-0.96059 5.18705,1.72948 10.18233,-8.45322 4.99528,-10.18268 40.53882,-51.68212 43.61285,-55.33253 3.07399,-3.65039 3.26626,-3.26584 1.1529,-5.76347 -55.95443,-71.14689 236.07374,-144.928239 293.95311,21.32583 z"
       style="opacity:1;fill:#555555;fill-opacity:1;fill-rule:nonzero;stroke:none;stroke-width:0.71162331;stroke-linecap:round;stroke-linejoin:round;stroke-miterlimit:4;stroke-dasharray:none;stroke-dashoffset:0;stroke-opacity:1;paint-order:normal" />
  </g>
</svg>
