<?xml version="1.0" encoding="UTF-8" standalone="no"?>
<!-- Created with Inkscape (http://www.inkscape.org/) -->

<svg
   xmlns:dc="http://purl.org/dc/elements/1.1/"
   xmlns:cc="http://creativecommons.org/ns#"
   xmlns:rdf="http://www.w3.org/1999/02/22-rdf-syntax-ns#"
   xmlns:svg="http://www.w3.org/2000/svg"
   xmlns="http://www.w3.org/2000/svg"
   xmlns:sodipodi="http://sodipodi.sourceforge.net/DTD/sodipodi-0.dtd"
   xmlns:inkscape="http://www.inkscape.org/namespaces/inkscape"
   width="1234.9431"
   height="2982.3535"
   viewBox="0 0 326.74535 789.08105"
   version="1.1"
   id="svg8"
   inkscape:version="0.92.4 (5da689c313, 2019-01-14)"
   sodipodi:docname="Hyperion-side.svg"
   inkscape:export-filename="G:\Pictures\My Pictures\Vectors and SVGs\Nature\Hyperion.png"
   inkscape:export-xdpi="96"
   inkscape:export-ydpi="96">
  <defs
     id="defs2" />
  <sodipodi:namedview
     id="base"
     pagecolor="#000720"
     bordercolor="#666666"
     borderopacity="1.0"
     inkscape:pageopacity="0"
     inkscape:pageshadow="2"
     inkscape:zoom="0.175"
     inkscape:cx="821.04185"
     inkscape:cy="1341.7046"
     inkscape:document-units="mm"
     inkscape:current-layer="layer1"
     showgrid="false"
     borderlayer="true"
     inkscape:showpageshadow="false"
     inkscape:pagecheckerboard="true"
     units="px"
     inkscape:window-width="1600"
     inkscape:window-height="837"
     inkscape:window-x="-8"
     inkscape:window-y="-8"
     inkscape:window-maximized="1"
     inkscape:snap-global="true"
     showguides="true"
     inkscape:guide-bbox="true"
     fit-margin-top="0"
     fit-margin-left="0"
     fit-margin-right="0"
     fit-margin-bottom="0" />
  <metadata
     id="metadata5">
    <rdf:RDF>
      <cc:Work
         rdf:about="">
        <dc:format>image/svg+xml</dc:format>
        <dc:type
           rdf:resource="http://purl.org/dc/dcmitype/StillImage" />
        <dc:title></dc:title>
      </cc:Work>
    </rdf:RDF>
  </metadata>
  <g
     inkscape:label="Layer 1"
     inkscape:groupmode="layer"
     id="layer1"
     transform="translate(-1.9919244,494.41528)">
    <path
       style="opacity:1;fill:#555555;fill-opacity:1;fill-rule:nonzero;stroke:none;stroke-width:4.29838514;stroke-linecap:round;stroke-linejoin:round;stroke-miterlimit:4;stroke-dasharray:none;stroke-dashoffset:0;stroke-opacity:1;paint-order:normal"
       d="M 606.01953,8.8242188 C 602.4392,62.72508 599.3162,115.25289 596.23242,167.66406 575.75726,144.65598 560.02929,121.22042 546.3457,97.388672 a 10.747037,10.747037 0 0 0 -9.77929,-5.525391 10.747037,10.747037 0 0 0 -8.85938,16.228519 c 17.1693,29.9026 37.95844,59.80654 66.78906,88.97656 -0.0676,1.14962 -0.13543,2.30142 -0.20312,3.45117 -19.34855,-4.03984 -38.75291,-7.92951 -57.20313,-14.77734 -21.80696,-8.09371 -46.12837,-41.86266 -64.91406,-41.7461 -3.89896,0.0265 -7.5581,1.50636 -10.9082,4.98243 -19.25862,19.98217 17.08837,56.57239 39.06054,73.52539 23.90186,18.442 58.73401,16.19293 91.69141,16.52929 -0.42375,7.10481 -0.85677,14.24264 -1.28711,21.36719 -14.7189,2.45617 -29.99303,5.82721 -45.92187,10.30859 -51.58719,-25.36728 -103.28056,-59.49147 -159.36524,-55.09765 -35.93493,2.81522 -97.00996,15.81232 -96.57812,50.98437 -30.48714,-13.70377 -65.66722,-28.79399 -110.53516,-44.15429 a 10.747037,10.747037 0 0 0 -3.1582,-0.61914 10.747037,10.747037 0 0 0 -3.80469,20.95312 c 97.33526,33.32232 148.98003,66.20922 209.83398,86.05469 -11.56548,16.54118 -35.35264,29.25087 -53.19921,26.9375 -18.54251,-2.40359 -14.64385,-52.47274 -32.16797,-45.95313 -35.32513,13.14218 -80.94014,84.21447 -66.63086,101.09766 4.83879,5.70916 19.48826,1.85802 38.36719,-5.69922 -4.32494,3.85047 -6.64029,8.70975 -6.20118,14.88867 1.00114,14.08672 38.16683,-4.56524 41.35938,9.19141 4.43455,19.10838 -22.7939,37.31602 -45.95313,36.76172 -22.97314,-0.54989 -47.00606,-2.18862 -72.00586,-0.52344 -24.99978,1.66522 -49.74033,14.61051 -65.85351,-1.77344 -12.35171,-12.55925 13.36944,-41.37578 0,-52.8457 -22.93665,-19.67777 -67.893459,-7.23208 -89.609376,13.78516 -17.917863,17.34134 -28.2775735,68.40304 -17.230469,90.75781 9.075309,18.36468 37.831032,-11.24855 102.244145,21.82617 22.00042,11.29678 45.5094,18.69805 69.88671,23.25 -2.40138,8.86953 -3.76958,24.72229 -14.74218,31.42773 -14.62221,8.93579 -19.49652,22.7461 -1.625,22.7461 17.87156,0 -20.30673,39.80544 -10.5586,43.86719 9.74813,4.0617 18.68278,-35.74306 34.92969,-30.05665 16.24686,5.68642 37.36885,-11.37207 35.74414,-26.80664 -1.62465,-15.43449 27.61891,-21.12177 36.55469,-34.93164 0.0374,-0.0575 0.0828,-0.11833 0.12109,-0.17578 16.03182,-0.23546 32.13755,-1.16738 48.16211,-2.52929 0.26336,4.88787 0.45703,9.20543 0.45703,11.64062 0,8.93579 -48.74092,6.49884 -62.55078,10.56055 -13.80984,4.0617 18.68399,56.05249 30.86914,64.98828 11.7222,8.59619 24.9601,-49.71418 96.82422,-94.6582 2.34781,-0.31408 4.71742,-0.62232 7.05078,-0.93946 29.76219,-4.0453 68.48418,-54.94962 85.01367,-29.87109 21.17934,32.13328 -93.59608,49.77687 -78.12109,85.01367 11.70274,26.64711 78.97767,-27.8852 87.31055,0 8.39312,28.0873 -56.55218,24.34925 -73.52539,48.25 -16.45557,23.17183 -12.06385,55.63519 -20.67774,82.71875 -8.96655,28.19184 -9.07695,64.22203 -32.16797,82.71484 -67.72075,54.23536 -260.773614,5.15248 -257.335934,39.06055 4.982594,49.14614 97.650844,18.47886 147.048824,18.38086 47.87848,-0.0949 106.4987,-49.99574 142.45508,-18.38086 25.30745,22.25189 -18.41557,72.87359 0,101.0957 11.43137,17.51891 49.15681,-7.13004 49.39844,13.78711 0.55877,48.36801 -245.42026,72.79051 -242.40039,110.28711 2.47836,30.7729 101.19098,23.0352 160.83398,25.2734 30.53192,1.1458 19.30089,-41.0663 42.50782,-60.8886 11.77742,-10.0599 35.59736,-41.389 47.10156,-31.0176 25.05486,22.5879 17.69871,75.7794 -4.5957,101.0957 -11.81674,13.4183 -48.67118,-8.1942 -52.84571,9.1914 -4.47054,18.618 48.5068,15.4888 45.95313,34.4648 -4.17302,31.0095 -71.70306,7.3464 -87.31055,34.4649 -12.75105,22.1554 14.67363,50.4588 11.48828,75.8223 -2.69432,21.4532 -28.97088,38.4346 -25.27539,59.7382 4.44676,25.6347 31.59992,47.527 57.44141,50.5489 33.96854,3.9722 47.26304,-58.9387 80.41797,-50.5489 19.26168,4.8742 13.94729,38.3844 27.57226,52.8457 12.24975,13.0017 40.37137,10.6034 45.95313,27.5723 3.11119,9.458 -3.20398,22.0494 -11.48828,27.5723 -35.04908,23.366 -100.26163,-33.0559 -126.3711,0 -10.24781,12.9742 -1.77298,38.3767 11.48828,48.25 21.5362,16.0343 69.89471,-29.2934 80.41797,-4.5918 5.73472,13.4615 -18.08753,25.889 -32.16797,29.8691 -30.06406,8.4985 -72.3382,-42.7397 -91.90625,-18.3848 -13.10201,16.3072 35.4362,39.1582 25.27539,57.4434 -18.41359,33.137 -78.16,0.2101 -112.58593,16.084 -38.92987,17.9504 -112.84032,45.381 -96.5,85.0137 14.62279,35.4669 76.55192,-8.4645 114.88281,-6.8926 27.05541,1.1094 82.5703,-15.5042 80.41797,11.4883 -3.53125,44.2874 -95.15973,-17.1017 -133.26367,5.7441 -30.25865,18.142 -44.744,51.0543 -48.25196,86.1602 -2.5314,25.333 -3.59329,65.8446 20.67969,73.5254 25.43153,8.0471 35.38237,-51.6211 62.03516,-50.5489 25.43861,1.0233 30.02971,57.021 55.14453,52.8477 24.66761,-4.0989 10.11071,-60.9611 34.46484,-66.6328 38.93835,-9.0681 98.00386,31.2744 96.50195,71.2265 -1.46086,38.8597 -71.84584,34.0081 -98.80078,62.0371 -53.27085,55.3939 -123.26292,183.1658 -114.88086,199.8946 12.48883,24.9247 38.88187,53.2341 66.63086,50.5488 28.61504,-2.7692 31.80483,-51.3244 57.44141,-64.334 28.1351,-14.2774 74.94201,-34.1782 94.20312,-9.1894 13.46211,17.4655 -7.16116,46.6678 -22.97656,62.0351 -41.16707,40.0009 -144.16674,0.968 -163.13281,55.1446 -8.42355,24.0618 17.44099,55.5079 41.35742,64.3359 19.79724,7.3076 89.98892,-37.8728 135.5625,-29.8692 26.78706,4.7044 42.06186,47.8729 68.92969,43.6543 1.79436,-0.2817 3.61573,-0.7589 5.44141,-1.3906 -5.15047,353.532 -17.27417,643.7571 -58.28711,722.8535 h 303.28906 c -25.81544,-92.6319 -34.56166,-358.4379 -34.54492,-679.4199 22.19446,8.5579 12.70679,59.623 36.84375,65.9473 20.58508,5.3936 34.13111,-28.8094 55.14453,-32.168 21.65669,-3.4614 52.51393,32.2607 64.33398,13.7871 6.1917,-9.677 -15.41768,-17.3598 -20.67969,-27.5722 -8.09877,-15.7181 -2.63517,-39.0695 -16.08398,-50.5489 -19.44306,-16.5957 -69.94106,13.3886 -75.82227,-11.4883 -3.66648,-15.5094 23.12395,-27.4756 39.06055,-27.5742 14.87055,-0.092 21.95315,26.6369 36.76172,25.2774 9.70723,-0.8913 13.26214,-14.3566 20.67969,-20.6817 20.86616,-17.7931 40.0709,-41.4338 66.63281,-48.25 11.9619,-3.0696 27.82404,13.118 36.76172,4.5957 14.45418,-13.7822 3.74964,-41.5956 -4.5957,-59.7402 -4.52595,-9.8403 -19.76386,-12.6328 -22.97657,-22.9766 -6.23792,-20.0841 17.00636,-41.7414 11.48828,-62.0351 -3.9888,-14.6698 -31.41602,-19.3413 -29.86914,-34.4649 1.66783,-16.3055 29.4223,-16.6118 39.06055,-29.8691 8.11903,-11.1679 21.42516,-27.56 13.78516,-39.0606 -7.21705,-10.8638 -32.62239,9.046 -39.06055,-2.2968 -10.65313,-18.7685 39.19665,-37.9802 29.86914,-57.4414 -11.8151,-24.6516 -67.47219,7.9942 -80.41601,-16.084 -10.57297,-19.6674 30.68065,-40.3725 25.27343,-62.0371 -2.89712,-11.6075 -25.85519,-11.1369 -27.57226,-22.9766 -3.5672,-24.5956 47.73632,-38.0167 41.35742,-62.0371 -3.95603,-14.8968 -37.66422,-5.7136 -41.35742,-20.6777 -7.2322,-29.3028 62.13695,-44.8091 52.8457,-73.5254 -5.21911,-16.1303 -45.65743,0.6702 -48.25,-16.084 -3.18595,-20.5892 29.7259,-37.4485 50.54883,-36.7617 17.93548,0.5916 23.55067,32.2397 41.35742,34.4648 19.3757,2.4212 48.4189,-6.2555 52.8457,-25.2734 7.2944,-31.3384 -69.51471,-45.1672 -59.73828,-75.8223 4.12358,-12.9298 25.52848,-12.548 39.05858,-11.4883 16.0527,1.2573 29.8738,29.003 43.6563,20.6778 15.7472,-9.5121 10.4188,-38.6355 2.2968,-55.1426 -7.0358,-14.3 -29.5185,-14.808 -39.0586,-27.5742 -25.6619,-34.3398 -69.7186,-89.6272 -41.3593,-121.7754 20.171,-22.8661 79.3558,47.0965 89.6093,18.3808 7.4828,-20.956 -61.4515,-43.5712 -94.20308,-62.0371 -15.51753,-8.749 -47.91274,-5.1657 -48.25195,-22.9765 -0.34583,-18.1532 44.8593,-7.4368 48.25195,-25.2735 4.16018,-21.8713 -40.10905,-28.5698 -43.65625,-50.5488 -3.82979,-23.73 32.26584,-43.0564 27.57227,-66.6309 -3.80705,-19.1208 -40.91458,-21.8662 -41.35742,-41.3574 -0.54169,-23.8472 25.12099,-47.0119 48.25,-52.8457 15.73598,-3.969 31.25578,34.7956 36.76168,19.5293 5.919,-16.4118 6.786,-63.468 -6.8925,-86.1621 -17.2245,-28.57708 -91.36503,16.44399 -98.79887,-16.08398 -6.24843,-27.34156 44.83353,-33.89804 68.92969,-48.25 17.65628,-10.51631 25.41648,-25.6583 45.95308,-26.42188 32.2633,-1.19966 63.233,23.24331 93.0547,35.61328 23.7809,9.86427 60.584,49.72641 76.9707,29.86915 14.061,-17.03887 -18.8634,-42.19519 -36.7617,-55.14454 -30.2591,-21.8923 -111.8653,-5.4975 -107.9902,-29.86914 3.3673,-21.17869 54.9596,19.28731 64.334,0 5.9608,-12.2643 -31.6529,-20.11408 -25.2735,-32.16601 10.4157,-19.67675 56.4121,24.37243 66.6328,4.59375 9.9945,-19.34079 -22.9725,-38.8901 -41.3593,-50.54688 -18.6692,-11.83563 -47.4458,-30.34607 -64.334,-16.08398 -7.6294,6.443 9.586,23.04165 2.2988,29.86914 -15.8083,14.81091 -44.2406,-1.09875 -64.33398,-9.19336 -21.8846,-8.8162 -34.44071,-36.10101 -57.4414,-41.35742 -12.88891,-2.94558 -25.47358,2.18658 -37.91211,-2.29492 -18.91344,-6.81442 -43.16318,-16.87634 -40.20899,-36.76172 1.87325,-12.60851 19.44374,-19.92249 32.16797,-20.68164 29.74775,-1.77479 54.3226,53.45403 80.41797,39.0625 18.21914,-10.04784 -10.46143,-50.56136 6.89258,-62.03907 13.33863,-8.82206 31.17066,19.88679 45.95316,13.78516 19.3231,-7.97586 10.6713,-46.86957 29.8691,-55.14258 43.6761,-18.82155 108.4018,35.47225 132.1152,29.86914 18.6341,-4.40292 51.3985,-8.42744 51.6973,-27.57226 0.2294,-14.708 -39.3904,-35.08126 -62.0371,-48.25 -20.7795,-12.08285 -58.2217,-5.05415 -66.6309,-27.57227 -7.1896,-19.25219 33.6858,-35.52275 27.5703,-55.14258 -5.202,-16.68971 -29.204,-30.28315 -45.9531,-25.27539 -28.2295,8.44022 -12.3038,83.02235 -41.3574,78.1211 -29.7998,-5.02723 12.6396,-74.94526 -13.7852,-89.60938 -20.4005,-11.32104 -42.36782,35.43591 -64.33394,27.57227 -21.93056,-7.85095 -10.89841,-52.54014 -32.16797,-62.03711 -22.38988,-9.99719 -52.87949,34.65043 -71.22656,18.38281 -8.67186,-7.68915 -4.8343,-27.7267 4.5957,-34.46484 44.48417,-31.78621 133.77737,79.67554 160.83397,32.16601 10.1982,-17.90751 -23.3926,-35.85649 -41.35741,-45.95312 -57.7483,-32.45526 -189.21802,29.20211 -195.29882,-36.76172 -3.69479,-40.08095 72.76986,-22.22342 106.83984,-43.65625 28.43569,-17.88832 91.08033,-47.17803 79.26953,-68.92774 -13.98909,-25.76129 -56.85984,16.05769 -82.7168,29.86915 -56.95256,30.4213 -135.42623,59.88382 -195.29882,32.16601 -4.11164,-1.90348 -7.3022,-4.77362 -9.92383,-8.25195 3.34087,0.33373 6.66869,0.69392 9.98047,1.08594 a 10.747037,10.747037 0 0 0 1.87695,0.082 c 85.09761,7.04443 147.27963,-8.4671 201.35937,-30.3125 a 10.747037,10.747037 0 0 0 -4.18945,-20.75977 10.747037,10.747037 0 0 0 -3.86328,0.83789 c -52.63472,21.26162 -110.9919,35.89927 -194.00586,28.61914 a 10.747037,10.747037 0 0 0 -0.73047,-0.0391 c -6.77249,-0.77634 -13.62936,-1.44172 -20.58789,-1.95703 -1.56033,-24.90001 -3.02625,-47.98527 -4.32812,-68.10156 45.72781,-9.79127 85.56271,-9.78046 123.73632,-6.10547 a 10.747037,10.747037 0 1 0 2.05665,-21.39063 c -14.66136,-1.41146 -29.69943,-2.2898 -45.2754,-2.3164 -25.62554,-0.0439 -52.70621,2.23079 -81.91992,8.2207 -1.07122,-16.3819 -1.6629,-25.33672 -2.33594,-35.41602 -1.04469,-15.72225 -1.71874,-25.70898 -1.71874,-25.70898 -1.8e-4,0.007 1.7e-4,0.0141 0,0.0215 -10e-6,-1e-5 -0.002,-0.0215 -0.002,-0.0215 0,0 -4.15233,23.32169 -8.2207,63.83008 -18.11574,4.28306 -37.05469,10.00964 -56.97266,17.5039 -1.63031,-1.59136 -3.22162,-3.18559 -4.79883,-4.78125 z M 669.23242,191.74805 c -0.83084,9.8408 -1.62175,20.43339 -2.33789,31.67968 -5.40577,-3.17243 -11.42172,-5.50467 -17.2207,-7.8164 -1.39521,-0.5562 -2.79826,-1.08698 -4.20508,-1.60742 -4.59594,-3.64585 -8.99827,-7.30477 -13.25391,-10.97461 12.79297,-4.49934 25.10858,-8.22446 37.01758,-11.28125 z m -58.5,47.94531 c 18.28148,1.26243 35.1342,4.85094 48.09766,15.23437 -15.31359,-0.0719 -31.17742,0.70221 -47.73438,2.60352 z m 44.3457,36.63867 c 3.12725,-0.0102 6.23025,0.0225 9.31446,0.0879 -0.60919,19.65448 -0.89536,40.675 -0.75,62.80078 -16.44375,4.19556 -33.727,-8.52839 -51.36133,-23.61914 l -0.74609,-36.58984 c 15.08133,-1.82341 29.53742,-2.63535 43.54296,-2.67969 z m -65.67773,6.03125 c -0.26521,4.31775 -0.54156,8.66896 -0.81055,12.99805 -4.62564,-3.70775 -9.26113,-7.14758 -13.89648,-10.04883 4.97419,-1.09677 9.87241,-2.07306 14.70703,-2.94922 z m -255.55078,4.5586 c 24.60521,0.54568 50.73131,0.20832 53.89258,18.29687 0.18368,1.05082 0.28976,2.10528 0.33398,3.16211 -18.14394,-5.96372 -35.69035,-13.23798 -54.22656,-21.45898 z m 51.82617,74.49609 c 7.00566,-0.034 12.49843,1.69265 15.85352,5.83789 22.7495,28.10649 -62.80559,17.1048 -110.38868,27.8125 33.36996,-14.97264 71.85428,-33.53394 94.53516,-33.65039 z M 751.49414,2134.5215 c 0.5428,0.5892 1.07074,1.2259 1.57617,1.9277 5.14013,7.137 3.4067,14.3303 -1.75781,21.6309 0.0597,-7.849 0.11388,-15.6708 0.18164,-23.5586 z m -0.65234,104.7226 c 12.32339,1.5018 21.81006,4.4693 20.60937,14.3848 -1.40434,11.5971 -9.31539,16.2529 -20.71679,17.4043 0.0239,-10.5281 0.0661,-21.1597 0.10742,-31.7891 z"
       transform="matrix(0.26458333,0,0,0.26458333,0,-496.75002)"
       id="path839"
       inkscape:connector-curvature="0" />
  </g>
</svg>
