<?xml version="1.0" encoding="UTF-8" standalone="no"?>
<!-- Created with Inkscape (http://www.inkscape.org/) -->

<svg
   xmlns:dc="http://purl.org/dc/elements/1.1/"
   xmlns:cc="http://creativecommons.org/ns#"
   xmlns:rdf="http://www.w3.org/1999/02/22-rdf-syntax-ns#"
   xmlns:svg="http://www.w3.org/2000/svg"
   xmlns="http://www.w3.org/2000/svg"
   xmlns:sodipodi="http://sodipodi.sourceforge.net/DTD/sodipodi-0.dtd"
   xmlns:inkscape="http://www.inkscape.org/namespaces/inkscape"
   width="434.31091mm"
   height="312.15518mm"
   viewBox="0 0 434.31091 312.15518"
   version="1.1"
   id="svg8"
   inkscape:version="0.92.4 (5da689c313, 2019-01-14)"
   sodipodi:docname="Oak-front.svg">
  <defs
     id="defs2" />
  <sodipodi:namedview
     id="base"
     pagecolor="#ffffff"
     bordercolor="#666666"
     borderopacity="1.0"
     inkscape:pageopacity="0.0"
     inkscape:pageshadow="2"
     inkscape:zoom="0.35"
     inkscape:cx="584.82558"
     inkscape:cy="579.96377"
     inkscape:document-units="mm"
     inkscape:current-layer="layer1"
     showgrid="false"
     inkscape:pagecheckerboard="true"
     inkscape:showpageshadow="false"
     borderlayer="true"
     fit-margin-top="0"
     fit-margin-left="0"
     fit-margin-right="0"
     fit-margin-bottom="0"
     inkscape:window-width="1366"
     inkscape:window-height="713"
     inkscape:window-x="0"
     inkscape:window-y="0"
     inkscape:window-maximized="1" />
  <metadata
     id="metadata5">
    <rdf:RDF>
      <cc:Work
         rdf:about="">
        <dc:format>image/svg+xml</dc:format>
        <dc:type
           rdf:resource="http://purl.org/dc/dcmitype/StillImage" />
        <dc:title></dc:title>
      </cc:Work>
    </rdf:RDF>
  </metadata>
  <g
     inkscape:label="Layer 1"
     inkscape:groupmode="layer"
     id="layer1"
     transform="translate(123.47212,12.320371)">
    <path
       style="fill:#555555;fill-opacity:1;stroke:none;stroke-width:0.26458332px;stroke-linecap:butt;stroke-linejoin:miter;stroke-opacity:1"
       d="m 104.13244,279.61309 c -1.32292,-6.80357 -0.37798,-7.46503 0.56696,-10.20535 0.94494,-2.74034 0.37798,-5.85864 0,-6.33111 2.07887,-3.1183 2.74033,-4.06324 5.19718,-5.85863 2.45684,-1.79538 4.7247,-5.00818 8.59895,-8.40997 3.87426,-3.40178 12.28423,-8.78794 12.28423,-8.78794 1.32292,1.88988 3.02381,1.60639 3.2128,0.18898 0.18899,-1.41741 -0.28349,2.36236 1.41741,2.55134 1.70089,0.18899 2.83482,-1.79538 3.1183,-0.18898 0.28348,1.60639 0.47247,1.88988 1.79539,1.98437 1.32291,0.0945 1.70089,0.56697 0.18899,1.5119 -1.51191,0.94494 -2.36235,0.94494 -2.26786,2.17337 0.0945,1.22842 -1.6064,1.70089 -1.22842,2.45684 0.37798,0.75596 -2.92932,0.85045 -1.32292,2.64584 1.6064,1.79538 1.32292,4.91369 3.02381,2.64583 1.70089,-2.26786 2.36235,-2.17336 2.45685,-2.83482 0.0945,-0.66146 1.79538,0.75595 2.74032,-0.28348 0.94494,-1.03944 2.64584,1.88988 3.49628,1.03943 0.85045,-0.85044 -1.5119,1.41741 0.28349,1.79539 1.79538,0.37797 0.85044,2.83482 2.55133,1.79538 1.7009,-1.03943 1.88988,-0.75595 1.41742,-1.79538 -0.47248,-1.03944 3.21279,1.98437 2.74032,0 -0.47247,-1.98438 -2.45684,-1.13393 -1.5119,-2.26786 0.94494,-1.13393 0.75595,-2.64583 2.64583,-1.32292 1.88988,1.32292 2.45685,3.3073 2.92932,2.17337 0.47247,-1.13393 4.7247,1.88988 8.03199,0.85044 3.30729,-1.03943 4.44122,-0.0945 6.70908,0.94494 2.26786,1.03944 3.2128,3.02381 4.63021,2.17337 1.41741,-0.85045 2.55134,0.56696 4.44122,0.85044 1.88988,0.28349 1.79538,3.02381 4.15773,3.40179 2.36236,0.37797 0.94495,1.41741 3.77977,1.22842 2.83482,-0.18899 7.65401,3.59077 9.16592,3.40178 1.5119,-0.18897 4.34672,3.02381 9.82738,2.36236 5.48065,-0.66146 3.96875,-2.83483 6.61458,-2.55133 2.64584,0.28348 3.68527,-0.2835 4.44122,0.75594 0.75595,1.03944 2.17337,0 2.74033,0.37799 0.56696,0.37795 3.40179,2.07885 2.83482,0.56694 -0.56696,-1.5119 1.6064,-0.94493 0.0945,-2.64583 -1.5119,-1.70088 -0.0945,-3.0238 -1.88987,-4.06324 -1.79539,-1.03943 2.92931,-2.17336 -0.0945,-3.30729 -3.02381,-1.13393 -3.96875,-1.79538 -3.87425,-3.30729 0.0945,-1.5119 2.64583,0.47247 2.07886,-1.22842 -0.56696,-1.70089 -0.85044,-1.98438 0.56697,-2.45685 1.41741,-0.47247 5.48065,-0.47247 6.80357,-1.03943 1.32292,-0.56697 3.87426,2.64583 6.61458,3.30729 2.74033,0.66146 2.17337,3.49628 4.06325,2.83482 1.88988,-0.66146 0.66145,1.32292 1.88988,0.66146 1.22842,-0.66146 1.32291,2.92932 2.64583,2.26786 1.32292,-0.66146 3.02381,-0.85045 4.15774,0.37797 1.13393,1.22843 4.44122,3.02381 4.81919,2.17337 0.37798,-0.85045 2.07888,2.83482 3.96875,3.2128 1.88989,0.37796 2.26786,3.59077 3.40179,1.03942 1.13393,-2.55133 3.40179,-2.17335 1.70089,-4.25222 -1.70089,-2.07887 2.07886,-1.32292 -1.32291,-3.2128 -3.40179,-1.88988 -2.55134,-1.51191 -2.17337,-2.17336 0.37798,-0.66146 -4.06324,-1.88989 -2.74032,-2.17337 1.32291,-0.28348 1.22842,-2.92931 2.45684,-0.37797 1.22842,2.55134 4.06325,1.70089 5.10268,1.5119 1.03945,-0.18899 2.17337,1.98438 4.06324,2.17336 1.88989,0.18899 1.98437,0.56697 7.84301,1.03944 5.85862,0.47247 4.06324,0.0945 5.19716,1.5119 1.13395,1.41741 4.8192,0.85045 5.57517,-0.56696 0.75594,-1.41741 1.03941,-2.26786 2.92931,-1.79539 1.88989,0.47247 3.30729,2.36235 4.6302,1.41741 1.32292,-0.94494 2.07886,-1.5119 1.4174,-3.02381 -0.66145,-1.5119 -0.0945,-0.94494 2.55135,-0.66145 2.64584,0.28348 3.3073,0.94494 2.92931,-0.75596 -0.37795,-1.70089 1.60642,-3.49628 -1.4174,-3.68526 -3.02381,-0.18899 -2.26785,-1.6064 -3.1183,-1.03944 -0.85045,0.56696 -2.45684,-0.75595 -1.32291,-1.22842 1.13392,-0.47247 1.70087,-3.11831 2.9293,-1.32292 1.22844,1.79539 4.44122,0.85045 3.40178,-0.75595 -1.03942,-1.6064 -2.07886,-2.83482 -3.21278,-2.26786 -1.13393,0.56697 -2.45684,-0.85044 -2.92931,0.37798 -0.47249,1.22842 -4.25225,-0.0945 -4.53573,0.75595 -0.28347,0.85045 -1.51191,-0.56696 -3.40177,0.75595 -1.88989,1.32292 -2.55135,2.74033 -3.59079,2.07887 -1.03942,-0.66146 -2.74032,-2.64583 -0.28348,-3.77976 2.45684,-1.13393 2.74032,-1.5119 3.40178,-0.94494 0.66145,0.56696 2.07888,-0.0945 1.7009,-1.32292 -0.37799,-1.22842 1.32291,-3.02381 2.55135,-2.74032 1.2284,0.28348 2.26785,-1.88989 4.06323,-0.28349 1.79538,1.6064 4.06326,1.79539 4.25222,0 0.189,-1.79538 0.66146,-3.21279 3.77979,-1.5119 3.1183,1.70089 3.77976,1.88988 4.91368,1.13393 1.13393,-0.75595 2.92931,-0.37798 2.26785,-2.07887 -0.66146,-1.70089 -1.13392,-3.77976 -3.02382,-2.64583 -1.88986,1.13392 -2.55132,-1.32292 -1.2284,-2.36235 1.32291,-1.03944 4.15774,-3.87426 1.03944,-5.19718 -3.11833,-1.32291 -1.88989,-3.77976 -2.74034,-3.2128 -0.85045,0.56697 1.88989,-3.1183 -0.56695,-3.21279 -2.45687,-0.0945 -3.68528,-2.17337 -3.30729,-3.2128 0.37795,-1.03943 3.02379,-0.47247 2.36233,-2.07887 -0.66146,-1.6064 2.92933,-1.41741 1.32291,-3.87426 -1.60639,-2.45684 -2.36233,-8.22098 -3.02379,-6.04761 -0.66145,2.17336 -2.45686,-1.13393 -0.75596,-2.74033 1.7009,-1.6064 3.49628,-1.51191 3.1183,-3.02381 -0.37796,-1.51191 2.36235,0.85045 1.41742,-1.70089 -0.94496,-2.55134 0.28348,-5.66965 -1.79538,-4.8192 -2.07889,0.85045 2.45684,-3.87426 -0.75597,-3.87426 -3.21278,0 1.88989,-4.34672 -0.66146,-4.81919 -2.55132,-0.47247 -3.30729,-2.45685 -4.06323,0 -0.75597,2.45684 -2.17337,-3.49628 -3.30729,-1.32292 -1.13393,2.17336 -3.21281,-0.37798 -3.49629,2.07887 -0.28347,2.45684 -0.75596,-4.25223 -1.79538,-2.45685 -1.03944,1.79539 -1.60642,1.13393 -4.15774,0.28349 -2.55135,-0.85045 2.26785,-3.96875 -0.85045,-3.87426 -3.1183,0.0945 4.53573,-4.7247 1.4174,-4.53572 -3.1183,0.18899 2.55135,-0.94493 2.45687,-1.88987 -0.0945,-0.94495 1.88986,-4.06325 0.37795,-3.87426 -1.5119,0.18899 -3.40177,-0.18899 -4.06323,-1.51191 -0.66146,-1.32291 2.92931,-0.47247 2.92931,-2.26785 0,-1.79539 2.36236,-0.18899 0.94493,-1.98438 -1.4174,-1.79538 0.85045,-3.77976 -1.4174,-4.53571 -2.26785,-0.75595 -2.74031,-1.79539 -3.77976,-0.85045 -1.03944,0.94494 -2.45684,0.94494 -2.07888,-1.32292 0.37798,-2.26785 1.7009,-3.40178 0.94496,-5.29166 -0.75597,-1.88988 -1.32292,-1.98438 -3.96875,-2.74033 -2.64583,-0.75595 -3.02382,-0.75595 -1.79538,-2.64583 1.2284,-1.88988 0.66146,-1.79539 -1.7009,-2.92932 -2.36236,-1.13393 -1.7009,-3.87425 -0.94494,-5.19717 0.75594,-1.32292 -1.79541,-2.64583 -3.77978,-3.02381 -1.98438,-0.37798 3.11833,-0.56696 2.26788,-2.07887 -0.85045,-1.5119 -1.70091,-0.56696 -1.70091,-1.88988 0,-1.32292 1.4174,-1.22842 0.56698,-3.30729 -0.85045,-2.07887 0.66146,-3.2128 -1.60642,-3.40179 -2.26785,-0.18899 -3.02379,0.28349 -5.29166,0.47247 -2.26785,0.18899 -4.34672,1.41741 -3.87425,0.28348 0.47247,-1.13392 5.19716,-1.03943 6.04761,-2.55133 0.85045,-1.51191 4.53573,1.32291 5.85865,-0.85045 1.32291,-2.17336 3.21278,-4.15774 0.66145,-5.38616 -2.55135,-1.22842 -0.0945,-1.13393 -1.32291,-2.83482 -1.22844,-1.7009 0.28347,-3.96875 -4.53573,-5.29167 -4.81919,-1.32292 -6.80357,-4.25223 -7.74851,-2.45684 -0.94494,1.79538 -4.34672,-3.49628 -5.76413,-3.2128 -1.41741,0.28348 -2.36235,-3.590776 -4.44122,-2.267859 -2.07887,1.322919 -1.7009,-0.377976 -2.83482,-2.55134 -1.13393,-2.173362 2.17336,-1.795386 2.26785,-3.874254 0.0945,-2.078871 0.37798,-2.078871 0.18899,-4.535715 -0.18899,-2.456844 -0.85044,-4.157739 -2.64583,-2.834823 -1.79539,1.322917 -1.32292,4.252233 -2.45685,4.913691 -1.13393,0.661458 -5.85863,0 -5.38616,-1.228421 0.47247,-1.228423 2.55134,-1.228423 -0.56696,-3.023811 -3.11831,-1.795386 -1.13393,-4.819195 -3.59078,-4.441219 -2.45684,0.377975 -4.81919,-0.09449 -5.38616,-1.133928 -0.56696,-1.039437 -0.28348,-2.645833 -5.29166,-3.023812 -5.00819,-0.377975 -1.79539,-1.795385 -4.44122,-2.645833 -2.64584,-0.850445 -0.0945,-3.401785 -3.96875,-2.83482 -3.87426,0.566965 -3.40179,-0.09449 -2.36236,-1.606399 1.03944,-1.511906 -1.5119,-2.078868 0.18899,-2.740327 1.7009,-0.661458 2.17337,0.755952 2.92932,-1.511905 0.75595,-2.267858 -0.75595,-3.401785 1.98437,-2.078869 2.74033,1.322917 3.11831,1.984375 3.77977,0.09449 0.66145,-1.889882 2.07886,-5.858632 -0.75596,-6.425594 -2.83482,-0.566965 -3.49628,-1.322917 -4.6302,-0.0945 -1.13393,1.228423 -1.98438,-2.645834 -1.13393,-3.96875 0.85044,-1.322917 1.22842,0.755954 2.83482,0.0945 1.6064,-0.661459 3.21279,-0.944941 3.1183,-2.645834 -0.0945,-1.700895 0.18899,-2.173364 -1.32292,-2.834822 -1.5119,-0.661459 -2.36235,-0.283483 -3.1183,-1.511906 -0.75595,-1.228421 -1.41741,-3.212796 -3.2128,-1.700893 -1.79538,1.511906 -2.17336,1.228424 -3.30729,-1.039434 -1.13393,-2.267857 -1.03943,-3.212798 -3.49628,-3.307291 -2.45684,-0.09449 0,-3.023809 -0.37798,-5.764136 -0.37797,-2.740329 -2.55133,-4.724704 -4.06324,-3.874257 -1.5119,0.850448 -2.26786,1.228424 -4.15774,-1.133927 -1.88988,-2.362354 -1.88988,-1.795389 -3.68526,-1.795389 -1.79539,0 0.18898,-2.456844 0.18898,-3.496279 0,-1.039434 -0.18898,-2.740327 -1.03943,-3.685267 -0.85045,-0.944941 -3.30729,-4.441221 -4.53571,-3.212798 -1.22843,1.228423 -1.22843,2.551339 -2.26786,1.889881 -1.03944,-0.661458 -0.66146,-1.133929 -0.85045,-3.96875 -0.18899,-2.834822 0.75595,-5.575149 -1.88988,-4.630208 -2.64583,0.94494 -2.83482,3.023809 -3.77976,1.795386 -0.94494,-1.228422 1.6064,-5.6696422 -1.51191,-5.102678 -3.1183,0.5669643 -1.5119,-0.1889881 -3.59077,-0.7559524 -2.07887,-0.5669642 -1.22842,-0.7559524 -3.1183,-0.094494 -1.88988,0.6614584 -1.41741,-3.0238093 -4.63021,-3.3072916 -3.2128,-0.2834822 -3.40179,3.2127976 -5.66965,1.8898809 -2.26785,-1.3229166 -2.83482,-2.8348215 -5.29166,-2.9293153 -2.45685,-0.094494 -6.99256,-1.5119049 -8.69345,-2.64583339 -1.7009,-1.13392856 -3.02381,-0.66145834 -3.77976,-1.79538691 -0.75596,-1.1339285 -0.94495,-3.3072917 -2.74033,-2.7403274 -1.79539,0.5669645 -3.02381,2.8348215 -4.44122,2.0788691 -1.41741,-0.7559525 -2.36235,-0.7559525 -3.02381,-0.1889881 -0.66146,0.5669643 -0.28348,-3.0238095 -1.98438,-2.0788689 -1.70089,0.9449403 0,1.6063986 -1.88988,3.2127974 -1.88988,1.60639884 -2.74032,-0.3779761 -2.55134,-1.7008929 0.18899,-1.3229166 -1.13393,-0.9449403 -3.02381,-0.4724701 -1.88988,0.4724701 -1.13392,-1.0394344 -0.56696,-2.1733632 0.56696,-1.1339285 0.18899,-2.5513392 -1.51191,-2.8348212 -1.70089,-0.2834822 -4.53571,1.3229167 -5.10268,-0.9449406 -0.56696,-2.2678574 -2.17336,-2.9293154 -4.7247,-1.4174104 -2.55134,1.5119045 -5.38616,1.2284223 -5.95312,0.283482 -0.56697,-0.944941 -2.07887,-1.039435 -3.77976,0.09449 -1.7009,1.1339285 -1.88988,2.267857 -2.929319,0.7559522 -1.039434,-1.5119042 -1.039434,-3.4017852 -3.307291,-2.7403272 -2.267858,0.661458 -3.023809,-0.661458 -3.779764,0.47247 -0.755951,1.133929 -1.795385,-0.661458 -3.307291,0.850447 -1.511904,1.5119043 -5.197171,0.850446 -5.764136,1.9843747 -0.566965,1.1339285 -0.472469,3.1183034 -1.41741,3.0238094 -0.944941,-0.094494 -2.929316,-1.1339285 -5.008184,-0.094494 -2.078871,1.0394346 -0.283483,2.078869 -1.511906,3.2127975 -1.228423,1.1339287 -2.834822,0 -5.008184,-0.1889879 -2.173364,-0.1889882 -1.322917,1.6063987 -3.685267,0.9449404 -2.362351,-0.6614584 -2.645834,-0.3779762 -3.779764,0.6614583 -1.133927,1.03943453 -2.551337,1.41741071 -3.307291,0.3779762 C 58.869791,-1.9791671 56.696427,-3.4910717 55.940475,-1.695685 55.184523,0.09970191 57.263392,0.6666662 54.712052,1.2336305 52.160714,1.8005948 51.971725,-0.08928618 49.892857,0.47767811 47.813989,1.0446424 48.853423,1.8005948 47.813989,2.8400293 46.774552,3.8794637 45.357142,-0.84523857 44.506697,0.85565429 43.656249,2.5565471 44.695684,4.25744 43.750743,4.25744 c -0.944941,0 -4.346726,-1.984375 -5.008184,-0.9449406 -0.661459,1.0394347 0,2.4568454 -1.322917,3.4017857 C 36.096725,7.6592257 35.71875,10.494047 35.151785,7.9427077 34.584822,5.3913685 33.450892,4.6354161 32.411458,6.8087792 31.372024,8.9821424 28.537201,9.1711303 27.875743,8.4151781 27.214285,7.6592257 20.883184,9.9270827 19.749256,10.399553 c -1.133929,0.47247 -1.795387,-1.2284227 -2.834822,0.94494 -1.039434,2.173364 -1.41741,3.212798 -2.551339,2.362352 -1.133928,-0.850447 -1.700893,-1.039435 -2.551339,0.47247 -0.850447,1.511905 -1.9843752,-1.322917 -3.49628,0.850446 -1.5119046,2.173363 -0.4724702,2.834822 -3.2127976,2.55134 -2.7403272,-0.283483 -4.0632439,0.850446 -2.4568451,2.645833 1.6063989,1.795387 1.2284226,2.551339 -0.1889881,2.645833 -1.4174107,0.09449 -0.5669643,-1.133928 -2.26785711,-0.283482 -1.70089279,0.850446 -2.17336309,3.02381 -3.49627969,1.322917 -1.3229167,-1.700893 -3.2127976,-1.417411 -2.9293156,2.173363 0.2834823,3.590773 0.2834823,4.724701 -1.6063986,5.575148 -1.8898809,0.850448 0.7559524,1.606399 -1.0394347,2.929316 -1.7953865,1.322917 -2.5513395,0.377976 -2.2678565,2.267858 0.283482,1.889879 -2.267858,-1.417413 -2.645834,0.566962 -0.377976,1.984375 0.755953,3.590774 -0.94494,4.346728 -1.700893,0.755952 0.566964,-3.023811 -1.984375,-3.401787 -2.55134,-0.377976 -2.834822,-3.023809 -4.630209,-0.661458 -1.795386,2.36235 -3.590773,2.740329 -5.575147,2.740329 -1.984375,0 -1.228423,0.472469 -2.078871,1.700892 -0.850445,1.228421 -1.133927,1.228421 -3.118302,0.661459 -1.984375,-0.566965 -3.590775,1.511903 -4.252233,3.118302 -0.661458,1.606399 -1.322917,0.755952 -3.496281,0.566965 -2.173361,-0.188989 0.0945,0.661458 -1.322916,2.740327 -1.41741,2.078868 -1.795386,1.795388 -3.212796,1.700892 -1.417413,-0.09449 -0.755954,1.606399 -2.078871,1.984375 -1.322917,0.377978 -4.063243,0.283483 -3.401785,2.740329 0.661458,2.456844 0.188989,3.874254 1.322917,4.630209 1.13393,0.755951 -1.039434,0.09449 -3.023809,1.984374 -1.984375,1.88988 -3.590774,1.133928 -3.307292,3.496279 0.283483,2.36235 -1.795386,3.874256 0.944941,4.724704 2.740326,0.850445 3.779761,-0.0945 2.456844,2.078868 -1.322917,2.173362 -3.401785,-0.472472 -4.630208,0.661458 -1.228421,1.133928 -2.83482,1.889882 -3.212796,3.02381 -0.377978,1.133927 -0.188989,2.173364 -2.645833,1.41741 -2.456847,-0.755952 -1.795389,0.755954 -0.850448,2.834822 0.944941,2.078868 -0.377976,3.496278 -2.078868,2.929316 -1.700893,-0.566965 -3.212798,1.039434 -3.401788,2.645833 -0.188986,1.606399 -0.850445,0.09449 -2.740326,2.078868 -1.889882,1.984375 -2.362351,0.283483 -3.496278,2.740327 -1.133931,2.456847 -3.118306,4.630208 -2.551341,6.614583 0.566966,1.984375 -0.94494,4.535717 1.700893,5.953127 2.645833,1.41741 -1.606399,2.17336 -0.377976,3.49628 1.228424,1.32292 -0.188989,2.45684 -2.456847,1.13393 -2.267854,-1.32292 -5.764135,-3.11831 -7.276041,-1.79539 -1.511903,1.32292 -4.630208,1.03943 -4.819195,2.92932 -0.188989,1.88988 0.850445,2.17336 -2.362351,1.70089 -3.212798,-0.47247 -3.496281,0.75595 -4.252232,2.07887 -0.755952,1.32291 -2.456847,2.55134 -4.535719,1.79539 -2.07886,-0.75596 -3.1183,-1.98438 -3.59077,-0.37798 -0.47247,1.6064 -1.5119,0.28348 -2.07887,1.5119 -0.56696,1.22843 -2.55134,4.06325 -0.85045,5.10268 1.7009,1.03944 1.03944,3.02381 -1.41741,1.79539 -2.45684,-1.22842 -2.55134,2.55134 -2.64583,4.25223 -0.0945,1.70089 1.6064,3.96875 0.18899,5.19717 -1.41741,1.22843 -2.64583,-0.75595 -3.11831,1.22843 -0.47246,1.98437 -1.98437,5.76413 -1.41741,7.46503 0.56697,1.70089 -0.85044,4.44122 -0.0945,5.85863 0.75595,1.41741 -0.28348,5.76413 2.36235,5.95312 2.64584,0.18899 2.17336,2.64583 4.44122,3.49628 2.26786,0.85045 3.40179,0.37798 3.2128,2.55134 -0.18899,2.17336 2.55134,5.76414 -2.83482,4.06324 -5.38616,-1.70089 -2.45685,3.2128 -2.92932,4.15774 -0.47247,0.94494 -0.18899,2.45685 -2.17336,2.45685 -1.98438,0 -3.2128,1.32291 -3.59077,3.40178 -0.37798,2.07887 -1.32292,3.40179 -0.0945,5.10268 1.22843,1.70089 2.17336,4.7247 4.44122,4.34673 2.26786,-0.37798 8.22098,1.6064 5.66964,2.26786 -2.55133,0.66145 -3.59077,-1.7009 -5.29166,-0.18899 -1.7009,1.5119 -5.29167,-0.18899 -5.10268,1.22842 0.18899,1.41741 -0.18899,4.06324 0.85045,5.48065 1.03943,1.41742 4.44122,4.25224 3.87425,6.14212 -0.56696,1.88988 0.75596,3.59077 -1.5119,3.59077 -2.26786,0 -5.85863,0 -6.23661,1.22842 -0.37798,1.22843 -3.30729,2.17337 -1.41741,4.53572 1.88988,2.36235 -0.47247,6.14211 1.03943,8.12649 1.51191,1.98437 1.41741,3.96875 2.55134,6.14211 1.13393,2.17336 3.49628,2.17336 1.7009,3.2128 -1.79539,1.03943 -2.64584,-0.0945 -2.92932,1.6064 -0.28348,1.70089 -0.94494,5.57514 0.85045,5.95312 1.79538,0.37798 4.7247,1.88988 5.19717,-0.66146 0.47247,-2.55134 2.74033,-2.74032 3.87426,-2.17336 1.13392,0.56696 1.5119,4.15774 3.49627,4.7247 1.98438,0.56696 4.9137,0.0945 6.80358,-1.22842 1.889879,-1.32292 3.401782,-1.88988 4.157734,-0.94494 0.755954,0.94494 0.377978,3.49628 -1.039434,3.77976 -1.41741,0.28348 -2.740327,1.32292 -1.88988,3.02381 0.850445,1.70089 2.173362,4.53571 5.102678,4.44122 2.929316,-0.0945 4.346726,-0.28348 6.52009,-0.56697 2.173361,-0.28348 2.173361,1.88989 4.441219,1.32292 2.267857,-0.56696 4.913691,0 6.236607,0.94494 1.322917,0.94494 -0.472469,2.26786 0.09449,3.11831 0.566965,0.85044 0.661458,1.22842 0.661458,1.22842 0,0 1.039434,2.36235 2.362351,1.88988 1.322916,-0.47247 3.874256,-1.79539 4.819197,-1.32292 0.944941,0.47247 -2.078868,0.85045 -1.228423,2.36235 0.850447,1.51191 0.661458,3.40179 3.496281,3.68527 2.83482,0.28348 1.41741,-2.36235 4.063243,-2.83482 2.645833,-0.47247 2.929316,-3.02381 4.819197,-0.66146 1.889879,2.36235 6.709077,-2.17336 7.370535,-4.15774 0.661459,-1.98437 -0.472469,-3.96875 2.740327,-4.06324 3.212798,-0.0945 2.740329,-1.88988 5.669642,0 2.929316,1.88988 0.0945,0.56696 0.472472,3.87426 0.377976,3.30729 2.362351,5.85863 4.441219,6.14211 2.078871,0.28348 1.417413,2.45684 1.700893,4.25223 0.283482,1.79539 2.456846,2.17336 3.968749,-0.0945 1.511906,-2.26786 0.944941,-4.7247 2.929316,-3.87426 1.984376,0.85045 -0.566962,1.88988 0.944941,2.55134 1.511905,0.66146 1.984375,-1.70089 3.49628,-1.32292 1.511905,0.37798 2.078869,-0.66145 3.874256,-0.56696 1.795387,0.0945 1.322917,-2.36235 4.535714,-0.47247 3.212798,1.88988 9.165923,-1.03943 8.5044647,-1.70089 -0.6614583,-0.66146 -1.7953871,-0.56697 0.283482,-1.13393 2.078869,-0.56697 6.04761898,0.0945 6.7090773,-1.32292 0.66145832,-1.41741 5.2916666,-3.59077 7.2760416,-2.92932 1.984375,0.66146 8.2209824,-0.75595 11.0558034,-0.0945 2.834821,0.66146 9.82738,-1.79538 11.055804,-1.22842 1.228423,0.56696 0.283482,4.25223 3.874256,4.15774 3.590772,-0.0945 6.047619,-0.18899 5.480654,1.41741 -0.566965,1.6064 -2.078869,2.74032 -1.6064,4.53571 0.472472,1.79539 -1.984374,4.06325 0.283483,5.29167 2.267857,1.22842 3.779763,-0.85045 4.819198,1.22842 1.039434,2.07887 -1.700893,3.2128 0.472469,3.40179 2.173364,0.18899 2.078868,-2.36235 3.401785,-1.32292 1.322916,1.03944 2.362353,2.45684 3.49628,1.60639 1.133928,-0.85045 1.133928,-0.37796 1.984375,0.75597 0.850448,1.13392 2.55134,1.32292 4.15774,0.28347 1.606396,-1.03944 3.401784,-1.13392 2.645833,-2.92931 -0.755954,-1.79539 -3.118305,-4.15774 -0.472472,-3.96875 2.645833,0.18899 1.511906,0.47247 2.740327,1.88988 1.228423,1.41741 3.68527,1.88988 4.346728,0.47247 0.661458,-1.41741 0.944938,-2.92932 2.456844,-2.83482 1.511906,0.0945 1.700893,-2.17337 2.834823,-1.32292 1.133927,0.85045 0.09449,1.6064 -0.755955,3.1183 -0.850444,1.51191 -0.661458,4.06325 -0.09449,4.25224 0.566965,0.18899 1.700893,-0.75594 3.118303,-0.85045 1.417412,-0.0945 2.645833,1.51191 1.795388,2.45684 -0.850448,0.94496 -2.078868,2.26787 0.09449,2.55135 2.173364,0.28347 3.590774,-2.17337 4.252233,-1.13393 0.661458,1.03942 0.755951,1.6064 1.606399,1.6064 0.755951,4.6302 0.944941,6.5201 0.661458,12.7567 -0.283482,6.23659 0,13.60715 -6.142114,16.72545 h 39.12055 c -7.39784,-6.85556 -8.36923,-12.68221 -9.82738,-20.22172 z"
       id="path826"
       inkscape:connector-curvature="0"
       sodipodi:nodetypes="cccsccscccccccssccccccscscscccscccsccccsscscsscsccccccccsccsccccccccsccccccccsccsscccsccccccsccscccscccccscccscscscccscscscsccccccccscssccsssscscscsccsccccccccscscccssssccssssssscscccsscscssccscccscsssssssccsssccssssssssssssscsssssssssssscsccccsccsscsccscccsssscscsccsccccccccssscsscccccsccscscscscsccscsscccsccsscsssccscscscsccssccccscscssscscccssssccccccccsccc" />
  </g>
</svg>
