<?xml version="1.0" encoding="UTF-8" standalone="no"?>
<!-- Created with Inkscape (http://www.inkscape.org/) -->

<svg
   width="273.93384mm"
   height="35.167934mm"
   viewBox="0 0 273.93384 35.167934"
   version="1.1"
   id="svg1"
   xml:space="preserve"
   inkscape:version="1.3 (0e150ed, 2023-07-21)"
   sodipodi:docname="Oumuamua-side.svg"
   xmlns:inkscape="http://www.inkscape.org/namespaces/inkscape"
   xmlns:sodipodi="http://sodipodi.sourceforge.net/DTD/sodipodi-0.dtd"
   xmlns="http://www.w3.org/2000/svg"
   xmlns:svg="http://www.w3.org/2000/svg"><sodipodi:namedview
     id="namedview1"
     pagecolor="#505050"
     bordercolor="#ffffff"
     borderopacity="1"
     inkscape:showpageshadow="0"
     inkscape:pageopacity="0"
     inkscape:pagecheckerboard="1"
     inkscape:deskcolor="#505050"
     inkscape:document-units="mm"
     inkscape:zoom="0.45968013"
     inkscape:cx="388.3135"
     inkscape:cy="147.92895"
     inkscape:current-layer="layer1" /><defs
     id="defs1" /><g
     inkscape:label="Layer 1"
     inkscape:groupmode="layer"
     id="layer1"
     transform="translate(22.923314,-146.84956)"><path
       style="fill:#ffffff;stroke:none;stroke-width:0.899999;stroke-linecap:round;stroke-linejoin:round"
       d="m 207.61326,153.73083 c -2.982,-0.71577 -2.48453,-1.00331 -6.32931,-1.31641 -3.84482,-0.31301 -18.20496,-2.22049 -22.04514,-1.76219 -3.84019,0.4583 -23.00806,0.27998 -28.01425,0.18635 -5.00619,-0.0936 -21.76306,-2.77191 -31.09982,-3.3428 -9.33674,-0.57088 -22.072327,-0.87232 -27.022037,-0.18054 -4.94971,0.69176 -12.98278,-0.0405 -20.37179,0.10243 -7.38902,0.1429 -6.66907,0.59783 -16.14386,0.0208 -9.4748,-0.577 -13.24189,-0.93059 -17.56474,-0.0886 -4.32286,0.84199 -7.88116,-0.59387 -14.48952,0.70873 -6.60834,1.3026 -8.30577,2.09924 -13.62687,2.34876 -5.3210998,0.24952 -11.25755982,1.87922 -14.7282098,1.69877 -3.47065,-0.18045 -4.49544,1.451 -8.4130902,1.51962 -3.91767,0.0686 -3.64953,-0.10172 -5.47544,1.5737 -1.82589,1.67543 -5.96744,3.58775 -5.0927,4.71838 0.87474,1.13062 -0.27005,3.41679 3.09085,5.51826 3.36091,2.10145 3.14957,1.61393 4.92762,3.55078 1.77807,1.93684 13.89711018,5.27815 16.6802502,4.92993 2.78316,-0.34823 4.86247,1.93352 11.3957098,2.12303 6.53326,0.18951 8.98345,0.14003 15.52324,1.97791 6.53977,1.8379 12.27511,0.0292 21.99777,-0.32283 9.72265,-0.35204 5.50281,1.43738 15.1999,1.17126 9.69709,-0.2661 11.07861,3.07033 15.39093,3.14875 4.3123,0.0784 8.05838,-1.65694 10.02704,-2.32744 1.96866,-0.6705 21.452567,-1.64237 24.706807,-2.72862 3.25424,-1.08624 8.09817,1.31818 22.75589,0.16253 14.65771,-1.15566 10.98215,-2.66187 23.86163,-2.13002 12.87947,0.53187 5.65125,0.9316 22.55899,2.97319 16.90774,2.04159 16.00751,0.24561 28.59016,-0.20429 12.58264,-0.44988 15.19388,0.86532 21.00486,-1.15638 5.81098,-2.0217 9.02883,1.04288 12.08175,-3.90483 3.05291,-4.94769 3.05971,-8.3438 3.86576,-10.33978 0.80605,-1.99599 -1.65112,-4.62662 -4.64927,-5.71658 -2.99816,-1.08996 -15.60742,-0.85734 -21.21474,-2.15159 -5.60733,-1.29424 -12.81037,0.33617 -17.37837,-0.7603 z"
       id="path1"
       sodipodi:nodetypes="scsssssssssssssssssssssssssssssssss" /></g></svg>
