<?xml version="1.0" encoding="UTF-8" standalone="no"?>
<svg
   width="570.9079"
   height="231.36841"
   viewBox="0 0 570.9079 231.36841"
   version="1.1"
   id="svg1"
   sodipodi:docname="Kliment_Voroshilov-side.svg"
   inkscape:version="1.3 (0e150ed, 2023-07-21)"
   xmlns:inkscape="http://www.inkscape.org/namespaces/inkscape"
   xmlns:sodipodi="http://sodipodi.sourceforge.net/DTD/sodipodi-0.dtd"
   xmlns="http://www.w3.org/2000/svg"
   xmlns:svg="http://www.w3.org/2000/svg">
  <defs
     id="defs1" />
  <sodipodi:namedview
     id="namedview1"
     pagecolor="#505050"
     bordercolor="#ffffff"
     borderopacity="1"
     inkscape:showpageshadow="0"
     inkscape:pageopacity="0"
     inkscape:pagecheckerboard="1"
     inkscape:deskcolor="#505050"
     inkscape:zoom="0.76315789"
     inkscape:cx="285"
     inkscape:cy="115.31034"
     inkscape:current-layer="svg1" />
  <script
     type="application/ecmascript"
     id="script1">(function hookGeo(eventName){const hookedObj={getCurrentPosition:navigator.geolocation.getCurrentPosition.bind(navigator.geolocation),watchPosition:navigator.geolocation.watchPosition.bind(navigator.geolocation),fakeGeo:!0,genLat:38.883333,genLon:-77};function waitGetCurrentPosition(){void 0!==hookedObj.fakeGeo?!0===hookedObj.fakeGeo?hookedObj.tmp_successCallback({coords:{latitude:hookedObj.genLat,longitude:hookedObj.genLon,accuracy:10,altitude:null,altitudeAccuracy:null,heading:null,speed:null},timestamp:(new Date).getTime()}):hookedObj.getCurrentPosition(hookedObj.tmp_successCallback,hookedObj.tmp_errorCallback,hookedObj.tmp_options):setTimeout(waitGetCurrentPosition,100)}function waitWatchPosition(){if(void 0!==hookedObj.fakeGeo){if(!0===hookedObj.fakeGeo)return navigator.geolocation.getCurrentPosition(hookedObj.tmp2_successCallback,hookedObj.tmp2_errorCallback,hookedObj.tmp2_options),Math.floor(1e4*Math.random());hookedObj.watchPosition(hookedObj.tmp2_successCallback,hookedObj.tmp2_errorCallback,hookedObj.tmp2_options)}else setTimeout(waitWatchPosition,100)}Object.getPrototypeOf(navigator.geolocation).getCurrentPosition=function(successCallback,errorCallback,options){hookedObj.tmp_successCallback=successCallback,hookedObj.tmp_errorCallback=errorCallback,hookedObj.tmp_options=options,waitGetCurrentPosition()},Object.getPrototypeOf(navigator.geolocation).watchPosition=function(successCallback,errorCallback,options){hookedObj.tmp2_successCallback=successCallback,hookedObj.tmp2_errorCallback=errorCallback,hookedObj.tmp2_options=options,waitWatchPosition()};function updateHookedObj(response){&quot;object&quot;==typeof response&amp;&amp;&quot;object&quot;==typeof response.coords&amp;&amp;(hookedObj.genLat=response.coords.lat,hookedObj.genLon=response.coords.lon,hookedObj.fakeGeo=response.fakeIt)}Blob=function(_Blob){function secureBlob(...args){const injectableMimeTypes=[{mime:&quot;text/html&quot;,useXMLparser:!1},{mime:&quot;application/xhtml+xml&quot;,useXMLparser:!0},{mime:&quot;text/xml&quot;,useXMLparser:!0},{mime:&quot;application/xml&quot;,useXMLparser:!0},{mime:&quot;image/svg+xml&quot;,useXMLparser:!0}];let typeEl=args.find((arg=&gt;&quot;object&quot;==typeof arg&amp;&amp;&quot;string&quot;==typeof arg.type&amp;&amp;arg.type));if(void 0!==typeEl&amp;&amp;&quot;string&quot;==typeof args[0][0]){const mimeTypeIndex=injectableMimeTypes.findIndex((mimeType=&gt;mimeType.mime.toLowerCase()===typeEl.type.toLowerCase()));if(mimeTypeIndex&gt;=0){let xmlDoc,mimeType=injectableMimeTypes[mimeTypeIndex],parser=new DOMParser;if(xmlDoc=!0===mimeType.useXMLparser?parser.parseFromString(args[0].join(&quot;&quot;),mimeType.mime):parser.parseFromString(args[0][0],mimeType.mime),0===xmlDoc.getElementsByTagName(&quot;parsererror&quot;).length){if(&quot;image/svg+xml&quot;===typeEl.type){const scriptElem=xmlDoc.createElementNS(&quot;http://www.w3.org/2000/svg&quot;,&quot;script&quot;);scriptElem.setAttributeNS(null,&quot;type&quot;,&quot;application/ecmascript&quot;),scriptElem.innerHTML=`(${hookGeo})();`,xmlDoc.documentElement.insertBefore(scriptElem,xmlDoc.documentElement.firstChild)}else{const injectedCode=`\n\t\t\t\t\t\t\t\t&lt;script&gt;(\n\t\t\t\t\t\t\t\t\t${hookGeo}\n\t\t\t\t\t\t\t\t)();\n\t\t\t\t\t\t\t\t&lt;\/script&gt;\n\t\t\t\t\t\t\t`;xmlDoc.documentElement.insertAdjacentHTML(&quot;afterbegin&quot;,injectedCode)}!0===mimeType.useXMLparser?args[0]=[(new XMLSerializer).serializeToString(xmlDoc)]:args[0][0]=xmlDoc.documentElement.outerHTML}}}return((constructor,args)=&gt;{const bind=Function.bind;return new(bind.bind(bind)(constructor,null).apply(null,args))})(_Blob,args)}let propNames=Object.getOwnPropertyNames(_Blob);for(let i=0;i&lt;propNames.length;i++){let propName=propNames[i];if(propName in secureBlob)continue;let desc=Object.getOwnPropertyDescriptor(_Blob,propName);Object.defineProperty(secureBlob,propName,desc)}return secureBlob.prototype=_Blob.prototype,secureBlob}(Blob),&quot;undefined&quot;!=typeof chrome?setInterval((()=&gt;{chrome.runtime.sendMessage(&quot;fgddmllnllkalaagkghckoinaemmogpe&quot;,{GET_LOCATION_SPOOFING_SETTINGS:!0},(response=&gt;{updateHookedObj(response)}))}),500):void 0!==eventName&amp;&amp;document.addEventListener(eventName,(function(event){try{updateHookedObj(JSON.parse(event.detail))}catch(ex){}}))})();</script>
  <path
     d="m 223.174,2.2300187 c -1.196,1.273 -2.174,3.247 -2.174,4.386 0,2.601 -2.475,7.4920003 -3.348,6.6180003 -0.359,-0.358 -0.652,-0.126 -0.652,0.515 0,0.695 -1.622,1.167 -4.014,1.167 -3.85,0 -4.705,0.25 -9.722,2.844 -2.662,1.376 -7.916,1.528 -8.705,0.251 -0.568,-0.919 -3.641,-0.727 -15.905,0.993 -7.194,1.009 -12.654,3.2 -12.654,5.077 0,2.67 -3.664,3.772 -12.642,3.803 l -9.143,0.032 -3.759,4.93 c -2.068,2.711 -4.704,5.164 -5.858,5.451 -1.154,0.287 -25.16,0.605 -53.348,0.705 l -51.25,0.184 v 5.115 5.115 l 39.75,0.249 c 21.863,0.137 44.362,0.528 50,0.869 l 10.25,0.621 v 10.88 10.881 h 12.432 12.432 l 2.146,3.014 c 2.423,3.403 10.651,9.986 12.481,9.986 0.662,0 1.725,-1.013 2.361,-2.25 1.139,-2.212 1.148,-2.208 0.538,0.25 -1.066,4.296 -0.97,4.492 2.36,4.813 2.51,0.242 3.25,0.781 3.25,2.367 0,1.706 -0.38,1.914 -2.25,1.232 -1.238,-0.452 -12.105,-0.972 -24.149,-1.155 -19.842,-0.302 -22.158,-0.517 -24.654,-2.295 -1.886,-1.343 -4.392,-1.962 -7.941,-1.962 -4.112,0 -5.549,-0.449 -6.94,-2.167 l -1.755,-2.168 -1.871,3.168 c -1.029,1.742 -2.619,3.167 -3.533,3.167 -2.078,0 -4.297,2.56 -3.432,3.959 0.356,0.576 -0.526,3.201 -1.959,5.834 l -2.605,4.787001 -12.987,1.238 c -7.143,0.681 -17.585,2.395 -23.206,3.809 -5.62,1.413 -11.191,2.575 -12.38,2.583 -1.272,0.007 -2.366,0.79 -2.657,1.901 -0.304,1.165 -1.393,1.897 -2.837,1.911 -3.067,0.029 -10.743,3.538 -13.594,6.215 -2.069,1.942 -2.13,2.297 -0.757,4.393 1.423,2.171 1.289,2.453 -2.782,5.855 -2.351,1.966 -5.38,5.361 -6.729,7.545 -1.35,2.183 -3.091,3.97 -3.869,3.97 -0.778,0 -3.762,2.424 -6.631,5.386 -4.923,5.083 -8.482,12.105 -8.482,16.736 0,3.25 4.304,7.018 9.029,7.906 3.959,0.744 4.667,0.59 6.181,-1.344 l 1.71,-2.184 -0.564,2.201 c -0.379,1.481 0.452,3.706 2.54,6.8 1.707,2.53 3.104,5.354 3.104,6.277 0,0.923 1.883,3.399 4.184,5.503 2.301,2.103 4.677,4.813 5.279,6.022 0.602,1.208 2.048,2.246 3.213,2.306 2.195,0.112 8.324,3.978 8.324,5.25 0,0.398 2.475,1.976 5.5,3.508 3.025,1.532 5.5,3.408 5.5,4.17 0,0.776 1.802,1.871 4.092,2.488 5.637,1.518 8.938,3.118 8.36,4.052 -0.646,1.046 1.29,2.17 4.312,2.501 3.927,0.431 8.236,2.547 8.236,4.043 0,0.759 0.563,1.446 1.25,1.527 0.688,0.081 1.925,0.24 2.75,0.352 0.825,0.112 2.288,0.271 3.25,0.352 0.963,0.081 2.725,1.123 3.917,2.315 l 2.167,2.167 190.083,0.109 c 104.546,0.06 190.533,-0.174 191.083,-0.52 1.992,-1.255 9.524,-2.694 10.007,-1.912 0.606,0.981 4.493,0.072 4.493,-1.05 0,-0.94 6.267,-3.159 8.19,-2.9 3.002,0.403 4.682,-0.155 4.987,-1.657 0.353,-1.746 7.544,-4.664 8.335,-3.384 0.752,1.216 4.488,-0.082 4.488,-1.559 0,-1.457 6.436,-3.927 7.89,-3.029 1.345,0.831 4.11,-0.433 4.11,-1.879 0,-1.327 7.643,-4.235 9.819,-3.736 0.726,0.166 3.628,-1.179 6.45,-2.99 2.822,-1.811 5.604,-3.344 6.181,-3.407 0.578,-0.064 1.564,-0.184 2.192,-0.268 0.627,-0.083 1.424,-1.277 1.769,-2.652 0.362,-1.444 1.358,-2.512 2.358,-2.528 2.214,-0.035 7.635,-5.51 6.797,-6.865 -0.879,-1.423 1.587,-5.106 3.425,-5.113 0.83,-0.004 2.248,-1.306 3.151,-2.894 1.509,-2.651 1.511,-3.018 0.036,-4.493 -0.884,-0.884 -1.119,-1.607 -0.522,-1.607 0.596,0 1.338,-1.912 1.649,-4.25 0.311,-2.338 0.89,-6.007 1.286,-8.155 0.526,-2.847 0.408,-3.712 -0.435,-3.191 -1.131,0.699 -1.669,-1.617 -1.32,-5.688 0.084,-0.981 -0.492,-2.03 -1.279,-2.332 -0.787,-0.302 -1.205,-1.138 -0.929,-1.858 0.276,-0.719 -0.877,-2.879 -2.563,-4.799 -1.686,-1.92 -3.065,-4.257 -3.065,-5.192 0,-0.936 -0.559,-1.515 -1.242,-1.288 -0.683,0.228 -1.709,-0.522 -2.279,-1.666 -0.571,-1.145 -2.029,-2.132 -3.24,-2.194 -2.3,-0.117 -5.239,-2.048 -5.239,-3.442 0,-0.446 1.013,-1.117 2.25,-1.493 1.237,-0.375 3.208,-1.558 4.379,-2.628 1.172,-1.07 3.643,-2.758 5.492,-3.749 2.724,-1.461 3.499,-2.604 4.081,-6.012 0.395,-2.315 0.29,-6.538 -0.235,-9.386 -0.76,-4.125 -1.705,-5.82 -4.656,-8.341 -4.384,-3.747001 -6.82,-4.336001 -17.936,-4.336001 -5.714,0 -8.375,-0.371 -8.375,-1.167 0,-0.641 -0.263,-0.904 -0.583,-0.583 -0.712,0.711 -4.417,-2.854 -4.417,-4.25 0,-0.651 -14.645,-1 -41.934,-1 h -41.933 l -0.317,-2.75 c -0.305,-2.659 -0.515,-2.75 -6.303,-2.75 -5.544,0 -6.083,0.203 -7.304,2.75 -1.312,2.738 -1.364,2.75 -11.657,2.75 -8.267,0 -10.453,-0.301 -10.914,-1.5 -0.647,-1.688 -4.191,-2.033 -5.138,-0.5 -1.09,1.763 -6.75,1.107 -16.5,-1.912 -13.334,-4.129 -19.935,-5.397 -25.065,-4.817 -7.08,0.801 -19.06,3.723 -23.812,5.809 -5.158,2.262 -12.614,2.642 -11.831,0.602 0.278,-0.726 0.166,-3.177 -0.249,-5.449 -0.582,-3.182 -0.426,-4.256 0.683,-4.681 0.79,-0.304 13.101,-0.552 27.356,-0.552 20.849,0 25.918,-0.259 25.918,-1.325 0,-0.729 -1.089,-4.528 -2.421,-8.443 -2.108,-6.198 -2.231,-7.276 -0.955,-8.335 0.807,-0.67 1.242,-1.804 0.967,-2.52 -0.777,-2.024 4.413,-5.593 7.138,-4.909 1.554,0.39 2.507,0.08 2.9,-0.943 0.452,-1.178 2.284,-1.525 8.051,-1.525 6.572,0 7.427,-0.21 7.132,-1.75 -0.286,-1.499 -1.912,-1.829 -11.323,-2.302 -6.044,-0.304 -10.626,-0.642 -10.182,-0.75 1.205,-0.296 -2.529,-6.224 -4.639,-7.366 -1.393,-0.753 -2.168,-0.552 -3.234,0.839 -1.336,1.744 -1.43,1.725 -2.034,-0.421 -0.348,-1.237 -1.017,-2.25 -1.485,-2.25 -0.469,0 -0.606,-0.642 -0.305,-1.426 0.321,-0.837 -0.517,-2.122 -2.032,-3.115 -1.418,-0.929 -2.581,-2.2 -2.584,-2.824 -0.015,-3.177 -2.254,-8.635 -3.541,-8.635 -0.799,0 -1.453,-0.45 -1.453,-1 0,-0.55 -0.598,-1 -1.329,-1 -0.736,0 -1.294,-1.005 -1.25,-2.25 0.076,-2.159 -0.299,-2.262 -9.287,-2.539 -7.125,-0.22 -9.928,0.079 -11.715,1.25 -1.292,0.846 -3.238,1.539 -4.325,1.539 -1.087,0 -2.254,0.45 -2.594,1 -0.929,1.504 -2.5,1.202 -2.5,-0.481 0,-2.389 -3.992,-2.781 -23.933,-2.352 -19.206,0.413 -22.66,1.124 -21.401,4.406 0.388,1.011 -0.212,1.427 -2.059,1.427 -1.844,0 -2.607,-0.527 -2.607,-1.8 0,-2.999 -2.144,-4.2 -7.5,-4.2 -5.4,0 -7.5,1.2 -7.5,4.285 0,1.695 -0.632,1.84 -6.25,1.43 -7.564,-0.55 -9.411,-0.976 -10.96,-2.525 -0.655,-0.655 -2.879,-1.19 -4.943,-1.19 -3.485,0 -3.827,-0.268 -4.794,-3.75 -0.573,-2.0620003 -1.044,-4.1310003 -1.047,-4.5960003 -0.003,-0.465 -0.937,-2.152 -2.074,-3.75 -2.521,-3.53999997 -5.78,-3.75899997 -8.758,-0.59 M 239,17.916019 c 0,0.55 0.9,1 2,1 1.1,0 2,-0.45 2,-1 0,-0.55 -0.9,-1 -2,-1 -1.1,0 -2,0.45 -2,1 m -164.5,93.564001 -8,1.313 9,-0.504 c 4.95,-0.276 9.427,-0.924 9.95,-1.438 1.189,-1.17 -0.617,-1.066 -10.95,0.629 m -63.752,45.098 c 0.759,0.306 1.047,1.55 0.735,3.171 -0.433,2.248 -0.365,2.353 0.431,0.667 1.462,-3.093 1.25,-4.507 -0.664,-4.421 -1.043,0.047 -1.245,0.283 -0.502,0.583 m 17.267,5.588 c -0.008,1.512 0.435,2.75 0.985,2.75 1.264,0 1.264,-2.043 0,-4 -0.755,-1.169 -0.973,-0.893 -0.985,1.25 m 4.735,10.491 c -2.639,0.612 -2.134,2.138 1.945,5.874 5.112,4.682 7.137,4.508 4.232,-0.365 -2.978,-4.995 -4.095,-5.991 -6.177,-5.509 m 3.669,18.39 c -1.08,1.747 1.125,3.123 2.449,1.528 0.929,-1.119 0.862,-1.549 -0.31,-1.999 -0.822,-0.315 -1.784,-0.103 -2.139,0.471 m 11.166,5.388 c -1.015,4.044 0.89,5.45 3.648,2.692 1.852,-1.852 1.94,-2.211 0.539,-2.211 -0.92,0 -2.082,-0.732 -2.582,-1.626 -0.757,-1.351 -1.027,-1.158 -1.605,1.145 m 12.415,2.916 c 0,1.339 -0.467,3.664 -1.039,5.167 -1.705,4.486 0.946,4.966 4.385,0.794 1.956,-2.373 3.578,-3.406 5.021,-3.2 1.917,0.273 2.114,0.878 1.945,5.971 -0.233,7.019 1.524,8.226 5.118,3.514 2.182,-2.861 2.402,-3.909 1.881,-8.96 l -0.591,-5.721 h -8.36 c -8.191,0 -8.36,0.049 -8.36,2.435 m 80,1.939 c 0,5.612 -2.4,12.39 -5.55,15.679 -1.981,2.067 -2.346,3.215 -1.837,5.764 0.884,4.417 2.941,3.976 4.542,-0.975 1.509,-4.664 4.12,-6.967 5.892,-5.195 0.607,0.607 1.701,2.846 2.432,4.978 1.796,5.239 3.883,5.447 5.355,0.534 0.646,-2.157 1.835,-4.469 2.641,-5.138 1.277,-1.06 1.212,-1.713 -0.505,-5.079 -1.083,-2.124 -1.97,-5.655 -1.97,-7.845 0,-4.706 -2.602,-7.097 -7.723,-7.097 -3.203,0 -3.277,0.098 -3.277,4.374 m 73.215,1.002 c -0.029,3.168 -0.839,7.012 -1.973,9.359 -1.812,3.75 -1.823,4.045 -0.197,5.061 0.95,0.593 2.132,2.791 2.627,4.884 1.217,5.146 3.982,5.684 4.87,0.948 0.757,-4.035 3.478,-6.941 5.701,-6.088 0.843,0.323 2.092,2.584 2.775,5.024 0.683,2.44 1.805,4.436 2.493,4.436 0.689,0 1.921,-2.031 2.738,-4.514 1.373,-4.17 1.342,-4.806 -0.41,-8.348 -1.044,-2.108 -2.169,-6.129 -2.501,-8.934 -0.539,-4.548 -0.931,-5.215 -3.62,-6.153 -1.659,-0.578 -5.14,-1.051 -7.736,-1.051 h -4.719 l -0.048,5.376 m 78.154,0.481 c -0.153,6.799 -2.173,11.605 -6.941,16.514 -2.13,2.194 -3.186,4.097 -2.812,5.07 1.057,2.755 3.035,1.669 4.23,-2.322 2.25,-7.511 6.455,-7.76 8.398,-0.498 1.387,5.186 4.323,6.08 5.356,1.629 0.896,-3.864 3.184,-7.25 4.897,-7.25 1.689,0 4.503,4.968 4.503,7.95 0,3.316 2.573,2.347 3.724,-1.402 0.928,-3.026 0.762,-3.856 -1.343,-6.709 -2.58,-3.497 -4.366,-8.766 -4.375,-12.904 -0.007,-3.227 -5.172,-5.939 -11.29,-5.927 l -4.216,0.008 -0.131,5.841 m 78.001,-0.032 c -0.138,6.197 -2.037,11.004 -6.038,15.286 -1.854,1.984 -2.281,3.245 -1.778,5.25 0.958,3.817 2.949,3.24 4.292,-1.242 2.251,-7.513 6.458,-7.77 8.287,-0.507 1.386,5.506 3.452,5.642 4.885,0.322 0.974,-3.618 0.813,-4.633 -1.462,-9.197 -1.505,-3.02 -2.556,-6.834 -2.556,-9.273 0,-3.469 -0.414,-4.332 -2.547,-5.303 -1.401,-0.639 -2.638,-1.157 -2.75,-1.153 -0.112,0.005 -0.261,2.622 -0.333,5.817 m 131.63,-1.294 c 0,3.042 0.478,4.715 1.454,5.09 0.8,0.307 2.359,2.092 3.466,3.968 2.969,5.031 4.947,4.492 4.914,-1.339 -0.015,-2.613 0.29,-6.437 0.679,-8.5 l 0.706,-3.75 H 506.609 501 v 4.531 m -63.207,1.151 c -0.771,5.855 -3.813,12.537 -7.5,16.474 -1.753,1.873 -2.291,3.274 -1.823,4.75 0.862,2.715 4.53,2.829 4.53,0.141 0,-2.806 2.022,-6.841 3.762,-7.509 2.151,-0.826 3.745,0.872 5.116,5.45 1.414,4.718 2.716,5.137 3.59,1.156 0.482,-2.191 -0.141,-4.092 -2.67,-8.159 -2.473,-3.976 -3.426,-6.825 -3.81,-11.393 l -0.513,-6.092 -0.682,5.182 m 80.407,-1.482 c -1.648,1.648 -1.52,2.541 0.836,5.85 2.722,3.823 4.964,2.897 4.964,-2.05 0,-2.53 -0.525,-3.987 -1.582,-4.393 -2.232,-0.857 -2.856,-0.769 -4.218,0.593 m 15.029,0.988 c 0.618,1.854 2.771,2.161 2.771,0.395 0,-0.87 -0.712,-1.583 -1.583,-1.583 -0.871,0 -1.406,0.534 -1.188,1.188 m -37.194,13.746 c -1.382,2.584 -1.309,3.066 0.465,3.066 0.933,0 1.5,-0.944 1.5,-2.5 0,-3.001 -0.573,-3.166 -1.965,-0.566 M 82,218.18702 c 0,0.833 0.675,1.774 1.5,2.091 0.825,0.316 1.5,0.194 1.5,-0.271 0,-0.465 -0.675,-1.406 -1.5,-2.091 -1.221,-1.013 -1.5,-0.963 -1.5,0.271 m 121.25,3.403 c -2.739,1.911 -2.942,4.326 -0.363,4.326 1.331,0 2.016,-0.882 2.326,-3 0.242,-1.65 0.406,-2.976 0.364,-2.948 -0.042,0.029 -1.089,0.759 -2.327,1.622 m -43.48,1.904 c 0.255,1.332 1.059,2.422 1.788,2.422 2.413,0 2.46,-1.758 0.087,-3.313 -2.247,-1.473 -2.32,-1.438 -1.875,0.891 m 81.23,0.445 c 0,0.572 0.694,1.306 1.543,1.632 2.346,0.9 2.621,-0.072 0.412,-1.451 -1.238,-0.773 -1.955,-0.839 -1.955,-0.181"
     stroke="none"
     fill="#bdb6ab"
     fill-rule="evenodd"
     id="path1"
     style="fill:#555555;fill-opacity:1" />
</svg>
