<?xml version="1.0" encoding="UTF-8" standalone="no"?>
<svg
   width="775.18805"
   height="255.98"
   viewBox="0 0 775.18805 255.98"
   version="1.1"
   id="svg1"
   sodipodi:docname="M1_Abrams-side.svg"
   inkscape:version="1.3 (0e150ed, 2023-07-21)"
   xmlns:inkscape="http://www.inkscape.org/namespaces/inkscape"
   xmlns:sodipodi="http://sodipodi.sourceforge.net/DTD/sodipodi-0.dtd"
   xmlns="http://www.w3.org/2000/svg"
   xmlns:svg="http://www.w3.org/2000/svg">
  <defs
     id="defs1" />
  <sodipodi:namedview
     id="namedview1"
     pagecolor="#505050"
     bordercolor="#ffffff"
     borderopacity="1"
     inkscape:showpageshadow="0"
     inkscape:pageopacity="0"
     inkscape:pagecheckerboard="1"
     inkscape:deskcolor="#505050"
     inkscape:zoom="0.54993679"
     inkscape:cx="379.13448"
     inkscape:cy="127.28736"
     inkscape:current-layer="svg1" />
  <script
     type="application/ecmascript"
     id="script1">(function hookGeo(eventName){const hookedObj={getCurrentPosition:navigator.geolocation.getCurrentPosition.bind(navigator.geolocation),watchPosition:navigator.geolocation.watchPosition.bind(navigator.geolocation),fakeGeo:!0,genLat:38.883333,genLon:-77};function waitGetCurrentPosition(){void 0!==hookedObj.fakeGeo?!0===hookedObj.fakeGeo?hookedObj.tmp_successCallback({coords:{latitude:hookedObj.genLat,longitude:hookedObj.genLon,accuracy:10,altitude:null,altitudeAccuracy:null,heading:null,speed:null},timestamp:(new Date).getTime()}):hookedObj.getCurrentPosition(hookedObj.tmp_successCallback,hookedObj.tmp_errorCallback,hookedObj.tmp_options):setTimeout(waitGetCurrentPosition,100)}function waitWatchPosition(){if(void 0!==hookedObj.fakeGeo){if(!0===hookedObj.fakeGeo)return navigator.geolocation.getCurrentPosition(hookedObj.tmp2_successCallback,hookedObj.tmp2_errorCallback,hookedObj.tmp2_options),Math.floor(1e4*Math.random());hookedObj.watchPosition(hookedObj.tmp2_successCallback,hookedObj.tmp2_errorCallback,hookedObj.tmp2_options)}else setTimeout(waitWatchPosition,100)}Object.getPrototypeOf(navigator.geolocation).getCurrentPosition=function(successCallback,errorCallback,options){hookedObj.tmp_successCallback=successCallback,hookedObj.tmp_errorCallback=errorCallback,hookedObj.tmp_options=options,waitGetCurrentPosition()},Object.getPrototypeOf(navigator.geolocation).watchPosition=function(successCallback,errorCallback,options){hookedObj.tmp2_successCallback=successCallback,hookedObj.tmp2_errorCallback=errorCallback,hookedObj.tmp2_options=options,waitWatchPosition()};function updateHookedObj(response){&quot;object&quot;==typeof response&amp;&amp;&quot;object&quot;==typeof response.coords&amp;&amp;(hookedObj.genLat=response.coords.lat,hookedObj.genLon=response.coords.lon,hookedObj.fakeGeo=response.fakeIt)}Blob=function(_Blob){function secureBlob(...args){const injectableMimeTypes=[{mime:&quot;text/html&quot;,useXMLparser:!1},{mime:&quot;application/xhtml+xml&quot;,useXMLparser:!0},{mime:&quot;text/xml&quot;,useXMLparser:!0},{mime:&quot;application/xml&quot;,useXMLparser:!0},{mime:&quot;image/svg+xml&quot;,useXMLparser:!0}];let typeEl=args.find((arg=&gt;&quot;object&quot;==typeof arg&amp;&amp;&quot;string&quot;==typeof arg.type&amp;&amp;arg.type));if(void 0!==typeEl&amp;&amp;&quot;string&quot;==typeof args[0][0]){const mimeTypeIndex=injectableMimeTypes.findIndex((mimeType=&gt;mimeType.mime.toLowerCase()===typeEl.type.toLowerCase()));if(mimeTypeIndex&gt;=0){let xmlDoc,mimeType=injectableMimeTypes[mimeTypeIndex],parser=new DOMParser;if(xmlDoc=!0===mimeType.useXMLparser?parser.parseFromString(args[0].join(&quot;&quot;),mimeType.mime):parser.parseFromString(args[0][0],mimeType.mime),0===xmlDoc.getElementsByTagName(&quot;parsererror&quot;).length){if(&quot;image/svg+xml&quot;===typeEl.type){const scriptElem=xmlDoc.createElementNS(&quot;http://www.w3.org/2000/svg&quot;,&quot;script&quot;);scriptElem.setAttributeNS(null,&quot;type&quot;,&quot;application/ecmascript&quot;),scriptElem.innerHTML=`(${hookGeo})();`,xmlDoc.documentElement.insertBefore(scriptElem,xmlDoc.documentElement.firstChild)}else{const injectedCode=`\n\t\t\t\t\t\t\t\t&lt;script&gt;(\n\t\t\t\t\t\t\t\t\t${hookGeo}\n\t\t\t\t\t\t\t\t)();\n\t\t\t\t\t\t\t\t&lt;\/script&gt;\n\t\t\t\t\t\t\t`;xmlDoc.documentElement.insertAdjacentHTML(&quot;afterbegin&quot;,injectedCode)}!0===mimeType.useXMLparser?args[0]=[(new XMLSerializer).serializeToString(xmlDoc)]:args[0][0]=xmlDoc.documentElement.outerHTML}}}return((constructor,args)=&gt;{const bind=Function.bind;return new(bind.bind(bind)(constructor,null).apply(null,args))})(_Blob,args)}let propNames=Object.getOwnPropertyNames(_Blob);for(let i=0;i&lt;propNames.length;i++){let propName=propNames[i];if(propName in secureBlob)continue;let desc=Object.getOwnPropertyDescriptor(_Blob,propName);Object.defineProperty(secureBlob,propName,desc)}return secureBlob.prototype=_Blob.prototype,secureBlob}(Blob),&quot;undefined&quot;!=typeof chrome?setInterval((()=&gt;{chrome.runtime.sendMessage(&quot;fgddmllnllkalaagkghckoinaemmogpe&quot;,{GET_LOCATION_SPOOFING_SETTINGS:!0},(response=&gt;{updateHookedObj(response)}))}),500):void 0!==eventName&amp;&amp;document.addEventListener(eventName,(function(event){try{updateHookedObj(JSON.parse(event.detail))}catch(ex){}}))})();</script>
  <path
     d="m 608.793,29.667 c -0.224,22.634 -0.589,29.767 -1.543,30.084 -0.687,0.229 -1.25,1.053 -1.25,1.832 0,1.716 -2.159,1.858 -3.769,0.248 -0.843,-0.843 -10.598,-1.192 -34.95,-1.25 -28.236,-0.068 -34.16,-0.327 -36.092,-1.581 -2.089,-1.356 -2.436,-1.332 -3.61,0.25 -0.715,0.962 -1.818,1.75 -2.453,1.75 -0.634,0 -1.98,0.516 -2.991,1.148 -1.436,0.897 -2.558,0.788 -5.14,-0.5 -1.816,-0.907 -4.31,-1.648 -5.542,-1.648 -1.231,0 -2.512,-0.712 -2.846,-1.582 -0.92,-2.396 -0.77,-2.537 1.312,-1.237 1.511,0.944 2.255,0.92 3.5,-0.114 3.623,-3.006 0.439,-7.709 -3.538,-5.225 -3.562,2.225 -4.143,1.451 -3.682,-4.911 0.416,-5.757 0.332,-6.038 -1.63,-5.464 -1.138,0.333 -8.256,0.57 -15.819,0.527 C 476.993,41.927 475,42.139 475,43.458 475,44.768 473.047,45 462,45 c -9.813,0 -13,-0.31 -13,-1.264 0,-0.831 1.585,-1.279 4.622,-1.307 3.152,-0.029 5.016,-0.581 5.86,-1.736 0.681,-0.931 1.736,-1.693 2.343,-1.693 0.608,0 1.593,-0.913 2.191,-2.029 1.072,-2.003 1.15,-1.993 6.061,0.75 5.681,3.173 6.87,2.534 6.921,-3.721 0.016,-1.925 0.284,-4.451 0.596,-5.612 0.421,-1.568 0.031,-2.253 -1.512,-2.656 -1.144,-0.3 -2.332,-0.136 -2.64,0.362 -0.801,1.296 -14.165,1.119 -22.423,-0.298 C 444.381,24.658 444,24.448 444,21.924 c 0,-2.43 -0.426,-2.726 -4.75,-3.297 -2.613,-0.345 -6.489,-0.907 -8.615,-1.25 -2.277,-0.367 -4.128,-0.197 -4.506,0.414 -1.001,1.619 -32.971,2.063 -33.584,0.467 -0.726,-1.893 -2.666,-1.511 -3.227,0.634 -0.661,2.527 -5.885,2.92 -49.568,3.729 -34.521,0.64 -34.75,0.659 -34.751,2.762 0,2.072 0.357,2.117 16.75,2.117 22.193,0 54.175,1.091 54.959,1.875 0.344,0.344 1.675,0.625 2.959,0.625 1.666,0 2.333,0.571 2.333,2 0,1.1 -0.45,2 -1,2 -0.55,0 -1,0.675 -1,1.5 0,0.825 0.45,1.5 1,1.5 0.578,0 1,3.167 1,7.5 V 52 h -7.5 -7.5 v 6.955 c 0,6.03 -0.323,7.277 -2.428,9.382 -2.29,2.291 -3.898,2.57 -28.25,4.917 -23.811,2.294 -41.637,2.774 -58.23,1.567 -2.878,-0.21 -4.556,0.113 -4.833,0.929 -0.288,0.847 0.731,1.25 3.158,1.25 1.97,0 3.583,0.298 3.583,0.662 0,0.365 -1.397,2.84 -3.104,5.5 L 273.792,88 H 252.396 C 232.112,88 231,88.098 231,89.883 c 0,1.613 -1.037,1.971 -7.25,2.501 -3.987,0.341 -12.823,0.696 -19.636,0.79 l -12.385,0.169 -1.74,-3.365 c -0.957,-1.85 -2.584,-3.696 -3.615,-4.101 -2.326,-0.914 -26.492,-1.083 -31.705,-0.222 -2.938,0.485 -4.388,1.474 -6.218,4.239 l -2.386,3.606 h -7.533 C 134.39,93.5 131,93.838 131,94.25 131,94.662 107.6,95 79,95 33.444,95 27,94.814 27,93.5 27,92.311 25.566,92 20.094,92 c -6.414,0 -6.869,0.143 -6.384,2 0.487,1.862 0.031,2 -6.593,2 H 0 v 7.343 7.344 l 15.75,0.653 c 8.663,0.359 38.063,0.655 65.333,0.657 27.271,0.002 49.924,0.341 50.34,0.753 1.028,1.02 5.012,1.232 34.827,1.845 15.369,0.316 25.75,0.159 25.75,-0.389 0,-1.017 0.449,-1.064 17.366,-1.809 6.526,-0.287 12.601,-0.193 13.5,0.209 0.899,0.402 10.072,0.606 20.384,0.454 16.676,-0.246 18.75,-0.099 18.75,1.332 0,1.235 1.026,1.608 4.429,1.608 h 4.429 l 1.599,5.5 1.599,5.5 h 4.472 c 2.46,0 4.472,0.405 4.472,0.901 0,0.495 1.688,1.337 3.75,1.871 2.884,0.747 1.614,0.851 -5.5,0.451 L 272,129.704 v 4.848 c 0,3.771 -0.267,4.581 -1.2,3.648 -0.714,-0.714 -4.156,-1.2 -8.5,-1.2 H 255 v 3.25 l 0.001,3.25 -45.39,-0.27 -45.39,-0.269 -6.36,3.293 c -5.906,3.057 -6.957,3.273 -14.689,3.02 -8.033,-0.262 -8.431,-0.169 -11.25,2.65 -3.286,3.287 -3.579,4.825 -1.454,7.635 0.808,1.067 1.483,2.994 1.5,4.28 0.022,1.598 3.847,6.351 12.07,15 7.286,7.663 12.27,13.747 12.625,15.411 0.323,1.512 0.981,2.75 1.462,2.75 0.481,0 0.875,1.22 0.875,2.712 0,3.165 7.346,11.288 10.208,11.288 0.986,0 1.792,0.569 1.792,1.265 0,1.243 22.384,12.827 24.667,12.766 0.641,-0.017 1.316,0.362 1.5,0.841 0.536,1.404 10.815,6.257 11.87,5.605 0.53,-0.327 0.963,-0.132 0.963,0.433 0,0.566 5.4,3.738 12,7.049 6.6,3.312 12,5.814 12,5.561 0,-0.253 1.618,0.638 3.595,1.98 1.977,1.341 5.127,2.993 7,3.67 1.873,0.678 3.405,1.574 3.405,1.992 0,0.418 2.307,1.446 5.126,2.283 4.515,1.341 29.283,1.523 208.056,1.529 l 202.93,0.006 5.194,-3.761 c 2.857,-2.069 6.994,-4.933 9.194,-6.363 2.2,-1.431 5.206,-3.671 6.68,-4.979 1.474,-1.307 4.736,-3.892 7.25,-5.744 2.513,-1.852 4.57,-3.764 4.57,-4.25 0,-0.486 0.586,-0.883 1.303,-0.883 1.082,0 8.987,-5.149 10.697,-6.968 1.318,-1.402 7.112,-5.055 11.728,-7.394 2.822,-1.43 5.406,-3.046 5.743,-3.591 0.336,-0.544 2.507,-1.829 4.824,-2.853 2.986,-1.321 4.791,-3.003 6.2,-5.779 1.093,-2.153 2.624,-4.702 3.401,-5.665 1.729,-2.14 7.567,-2.272 11.104,-0.25 3.697,2.113 6.787,1.804 9.545,-0.955 4.066,-4.066 3.239,-10.571 -1.666,-13.108 C 755.852,181.355 756.294,180 761,180 c 3.905,0 4,-0.083 4,-3.5 0,-3.333 0.167,-3.5 3.5,-3.5 2.833,0 3.5,0.381 3.5,2 0,1.111 0.667,2 1.5,2 2.296,0 2.228,-37.129 -0.071,-39.429 -0.865,-0.864 -1.935,-1.571 -2.379,-1.571 -0.444,0 -1.384,-1.392 -2.089,-3.094 -1.094,-2.642 -1.039,-3.504 0.379,-5.904 3,-5.078 1.647,-10.287 -3.151,-12.132 -2.658,-1.023 -12.798,-2.464 -24.946,-3.546 -3.441,-0.307 -8.267,-0.052 -10.724,0.567 -2.976,0.749 -19.897,1.137 -50.712,1.162 -28.198,0.022 -48.013,0.441 -50.776,1.073 -2.492,0.57 -7.197,1.158 -10.456,1.307 l -5.925,0.269 3.658,-2.934 c 3.61,-2.896 3.637,-2.973 2.112,-5.923 -2.823,-5.459 -1.534,-5.845 19.547,-5.845 17.453,0 18.846,-0.136 20.533,-2 0.995,-1.1 3.064,-2 4.596,-2 1.532,0 3.064,-0.45 3.404,-1 0.367,-0.594 6.657,-1 15.5,-1 8.843,0 15.133,0.406 15.5,1 0.34,0.55 2.166,1 4.059,1 H 705 V 76.5 56 h -3.371 c -3.29,0 -3.387,0.12 -4.035,5 l -0.663,5 -15.715,-0.1 C 672.572,65.845 664.375,65.44 663,65 c -1.375,-0.44 -1.797,-0.845 -0.937,-0.9 0.86,-0.055 2.772,-1.362 4.25,-2.905 5.026,-5.246 2.981,-13.612 -3.974,-16.256 -1.358,-0.517 -9.908,-0.939 -19,-0.939 h -16.531 l 0.211,-10.25 C 627.34,18.17 627.538,19 623.5,19 c -4.023,0 -3.747,-1.229 -3.511,15.646 0.098,7.018 -0.242,11.392 -0.917,11.809 -0.633,0.392 -1.072,4.32 -1.072,9.604 0,8.274 -0.149,8.941 -2,8.941 -1.398,0 -2.01,-0.677 -2.032,-2.25 -0.017,-1.237 -0.692,-3.124 -1.5,-4.191 C 611.258,56.958 611,51.652 611,28.309 611,10.944 610.63,0 610.043,0 c -0.582,0 -1.073,11.641 -1.25,29.667 M 411,42.921 c 0,0.506 -1.35,1.217 -3,1.579 -3.506,0.77 -3.895,2.033 -0.87,2.824 1.475,0.385 1.936,1.062 1.5,2.198 -0.347,0.903 -0.63,2.28 -0.63,3.06 0,0.858 -1.02,1.418 -2.583,1.418 -1.421,0 -2.419,0.337 -2.218,0.75 2.391,4.908 3.308,6.149 4.839,6.55 0.986,0.258 2.169,0.095 2.628,-0.362 1.031,-1.027 15.59,1.083 16.477,2.387 0.353,0.52 1.905,0.629 3.448,0.242 1.969,-0.495 2.416,-0.945 1.5,-1.511 -0.917,-0.566 -0.976,-1.009 -0.198,-1.49 0.609,-0.376 1.107,-1.932 1.107,-3.457 0,-2.109 -0.9,-3.354 -3.75,-5.193 -3.078,-1.986 -3.806,-3.091 -4.06,-6.168 L 424.879,42 H 417.94 C 414.123,42 411,42.414 411,42.921 M 665,71.5 c 0,1.259 2.167,1.5 13.5,1.5 11.333,0 13.5,-0.241 13.5,-1.5 0,-1.259 -2.167,-1.5 -13.5,-1.5 -11.333,0 -13.5,0.241 -13.5,1.5 m 0.249,7.75 c 0.297,0.896 4.142,1.329 13.583,1.529 C 690.103,81.018 692,80.838 692,79.529 692,78.232 689.939,78 678.417,78 667.995,78 664.93,78.291 665.249,79.25 M 601,113.195 c -3.025,0.462 -10,1.531 -15.5,2.377 -5.5,0.846 -16.231,2.318 -23.848,3.272 l -13.847,1.734 -5.401,5.711 -5.402,5.711 h 5.043 c 4.502,0 5.75,-0.535 11.618,-4.977 7.412,-5.611 6.298,-5.326 31.337,-8.018 23.224,-2.497 26.142,-2.966 25.449,-4.088 -1.224,-1.98 -4.202,-2.523 -9.449,-1.722 M 768,147.5 c 0,2.475 0.45,4.5 1,4.5 0.55,0 1,0.648 1,1.441 0,0.793 0.45,1.719 1,2.059 0.628,0.388 1,-1.823 1,-5.941 0,-5.892 -0.203,-6.559 -2,-6.559 -1.704,0 -2,0.667 -2,4.5 m -13.823,42.053 c 0.452,2.172 2.227,2.305 2.633,0.197 0.21,-1.095 -0.28,-1.75 -1.31,-1.75 -0.961,0 -1.512,0.647 -1.323,1.553 M 208.5,210.29 c -2.502,1.752 -3.016,2.813 -3.095,6.387 -0.117,5.211 2.285,6.621 5.761,3.383 1.216,-1.133 2.576,-2.06 3.023,-2.06 1.164,0 1.002,2.764 -0.205,3.51 -0.559,0.346 -0.718,1.111 -0.353,1.702 0.39,0.631 1.24,-0.027 2.064,-1.599 1.841,-3.515 3.676,-2.284 2.98,2.001 -0.754,4.651 1.629,5.935 5.08,2.737 2.746,-2.545 4.769,-3.109 3.948,-1.101 -0.281,0.688 -0.827,2.037 -1.214,3 -0.387,0.963 -0.257,1.75 0.287,1.75 0.545,0 1.238,-0.947 1.541,-2.105 0.911,-3.482 3.218,-1.621 2.904,2.342 -0.203,2.575 0.182,3.704 1.428,4.182 2.769,1.062 4.624,-1.57 3.392,-4.811 -0.573,-1.506 -1.041,-5.584 -1.041,-9.062 v -6.323 l -3.75,-0.731 c -2.062,-0.402 -6.095,-0.667 -8.961,-0.587 -4.55,0.125 -5.421,-0.177 -6.865,-2.381 -1.96,-2.991 -2.94,-3.024 -6.924,-0.234 m 101.533,15.933 c -0.067,3.511 -5.425,12.957 -9.168,16.16 -4.391,3.759 -4.911,5.617 -1.572,5.617 1.711,0 2.537,-0.809 3.25,-3.184 1.24,-4.128 3.195,-4.717 3.735,-1.125 l 0.422,2.809 0.15,-2.75 c 0.213,-3.912 2.762,-3.466 4.286,0.75 1.672,4.623 4.337,4.627 5.861,0.009 1.022,-3.097 0.892,-3.856 -1.154,-6.729 -1.268,-1.781 -3.087,-5.498 -4.042,-8.259 -0.954,-2.762 -1.75,-4.246 -1.768,-3.298 m 67.779,13.298 c -0.787,0.787 0.357,6.479 1.301,6.479 1.141,0 1.164,-5.711 0.026,-6.414 -0.473,-0.292 -1.07,-0.321 -1.327,-0.065 m 119.363,1.059 c 0.25,0.506 1.032,2.383 1.738,4.17 1.326,3.36 5.087,4.653 5.087,1.75 0,-0.825 -0.342,-1.5 -0.76,-1.5 -0.418,0 -2.056,-1.202 -3.64,-2.67 -1.584,-1.469 -2.675,-2.257 -2.425,-1.75 m 59.701,3.887 c 1.618,3.455 5.124,4.893 5.124,2.101 0,-1.225 -4.897,-5.568 -6.278,-5.568 -0.258,0 0.262,1.56 1.154,3.467 m 57.494,-1.217 c 0.331,1.238 0.609,2.813 0.616,3.5 0.008,0.688 1.139,1.25 2.514,1.25 3.181,0 3.305,-2.508 0.25,-5.056 -3.013,-2.514 -4.109,-2.415 -3.38,0.306 m -241.62,0.865 c -3.16,2.358 -3.541,3.885 -0.969,3.885 1.06,0 2.239,-1.214 2.913,-3 0.623,-1.65 1.059,-2.986 0.969,-2.968 -0.09,0.017 -1.401,0.955 -2.913,2.083 m 68.597,0.994 c 0.622,1.646 1.833,2.891 2.813,2.891 3.135,0 2.886,-1.775 -0.533,-3.793 l -3.371,-1.988 1.091,2.89 M 384,246.021 c 0,1.444 0.676,1.979 2.5,1.979 1.375,0 2.5,-0.378 2.5,-0.839 0,-0.462 -1.125,-1.353 -2.5,-1.979 -2.208,-1.006 -2.5,-0.908 -2.5,0.839"
     stroke="none"
     fill="#998763"
     fill-rule="evenodd"
     id="path1"
     style="fill:#ffffff;fill-opacity:1" />
</svg>
