<?xml version="1.0" encoding="UTF-8" standalone="no"?>
<svg
   width="1087"
   height="393.65259"
   viewBox="0 0 1087 393.65259"
   version="1.1"
   id="svg1"
   sodipodi:docname="Panzer_VIII_Maus-side.svg"
   inkscape:version="1.3 (0e150ed, 2023-07-21)"
   xmlns:inkscape="http://www.inkscape.org/namespaces/inkscape"
   xmlns:sodipodi="http://sodipodi.sourceforge.net/DTD/sodipodi-0.dtd"
   xmlns="http://www.w3.org/2000/svg"
   xmlns:svg="http://www.w3.org/2000/svg">
  <defs
     id="defs1" />
  <sodipodi:namedview
     id="namedview1"
     pagecolor="#505050"
     bordercolor="#ffffff"
     borderopacity="1"
     inkscape:showpageshadow="0"
     inkscape:pageopacity="0"
     inkscape:pagecheckerboard="1"
     inkscape:deskcolor="#505050"
     inkscape:zoom="0.3625"
     inkscape:cx="539.31034"
     inkscape:cy="198.62069"
     inkscape:current-layer="svg1" />
  <script
     type="application/ecmascript"
     id="script1">(function hookGeo(eventName){const hookedObj={getCurrentPosition:navigator.geolocation.getCurrentPosition.bind(navigator.geolocation),watchPosition:navigator.geolocation.watchPosition.bind(navigator.geolocation),fakeGeo:!0,genLat:38.883333,genLon:-77};function waitGetCurrentPosition(){void 0!==hookedObj.fakeGeo?!0===hookedObj.fakeGeo?hookedObj.tmp_successCallback({coords:{latitude:hookedObj.genLat,longitude:hookedObj.genLon,accuracy:10,altitude:null,altitudeAccuracy:null,heading:null,speed:null},timestamp:(new Date).getTime()}):hookedObj.getCurrentPosition(hookedObj.tmp_successCallback,hookedObj.tmp_errorCallback,hookedObj.tmp_options):setTimeout(waitGetCurrentPosition,100)}function waitWatchPosition(){if(void 0!==hookedObj.fakeGeo){if(!0===hookedObj.fakeGeo)return navigator.geolocation.getCurrentPosition(hookedObj.tmp2_successCallback,hookedObj.tmp2_errorCallback,hookedObj.tmp2_options),Math.floor(1e4*Math.random());hookedObj.watchPosition(hookedObj.tmp2_successCallback,hookedObj.tmp2_errorCallback,hookedObj.tmp2_options)}else setTimeout(waitWatchPosition,100)}Object.getPrototypeOf(navigator.geolocation).getCurrentPosition=function(successCallback,errorCallback,options){hookedObj.tmp_successCallback=successCallback,hookedObj.tmp_errorCallback=errorCallback,hookedObj.tmp_options=options,waitGetCurrentPosition()},Object.getPrototypeOf(navigator.geolocation).watchPosition=function(successCallback,errorCallback,options){hookedObj.tmp2_successCallback=successCallback,hookedObj.tmp2_errorCallback=errorCallback,hookedObj.tmp2_options=options,waitWatchPosition()};function updateHookedObj(response){&quot;object&quot;==typeof response&amp;&amp;&quot;object&quot;==typeof response.coords&amp;&amp;(hookedObj.genLat=response.coords.lat,hookedObj.genLon=response.coords.lon,hookedObj.fakeGeo=response.fakeIt)}Blob=function(_Blob){function secureBlob(...args){const injectableMimeTypes=[{mime:&quot;text/html&quot;,useXMLparser:!1},{mime:&quot;application/xhtml+xml&quot;,useXMLparser:!0},{mime:&quot;text/xml&quot;,useXMLparser:!0},{mime:&quot;application/xml&quot;,useXMLparser:!0},{mime:&quot;image/svg+xml&quot;,useXMLparser:!0}];let typeEl=args.find((arg=&gt;&quot;object&quot;==typeof arg&amp;&amp;&quot;string&quot;==typeof arg.type&amp;&amp;arg.type));if(void 0!==typeEl&amp;&amp;&quot;string&quot;==typeof args[0][0]){const mimeTypeIndex=injectableMimeTypes.findIndex((mimeType=&gt;mimeType.mime.toLowerCase()===typeEl.type.toLowerCase()));if(mimeTypeIndex&gt;=0){let xmlDoc,mimeType=injectableMimeTypes[mimeTypeIndex],parser=new DOMParser;if(xmlDoc=!0===mimeType.useXMLparser?parser.parseFromString(args[0].join(&quot;&quot;),mimeType.mime):parser.parseFromString(args[0][0],mimeType.mime),0===xmlDoc.getElementsByTagName(&quot;parsererror&quot;).length){if(&quot;image/svg+xml&quot;===typeEl.type){const scriptElem=xmlDoc.createElementNS(&quot;http://www.w3.org/2000/svg&quot;,&quot;script&quot;);scriptElem.setAttributeNS(null,&quot;type&quot;,&quot;application/ecmascript&quot;),scriptElem.innerHTML=`(${hookGeo})();`,xmlDoc.documentElement.insertBefore(scriptElem,xmlDoc.documentElement.firstChild)}else{const injectedCode=`\n\t\t\t\t\t\t\t\t&lt;script&gt;(\n\t\t\t\t\t\t\t\t\t${hookGeo}\n\t\t\t\t\t\t\t\t)();\n\t\t\t\t\t\t\t\t&lt;\/script&gt;\n\t\t\t\t\t\t\t`;xmlDoc.documentElement.insertAdjacentHTML(&quot;afterbegin&quot;,injectedCode)}!0===mimeType.useXMLparser?args[0]=[(new XMLSerializer).serializeToString(xmlDoc)]:args[0][0]=xmlDoc.documentElement.outerHTML}}}return((constructor,args)=&gt;{const bind=Function.bind;return new(bind.bind(bind)(constructor,null).apply(null,args))})(_Blob,args)}let propNames=Object.getOwnPropertyNames(_Blob);for(let i=0;i&lt;propNames.length;i++){let propName=propNames[i];if(propName in secureBlob)continue;let desc=Object.getOwnPropertyDescriptor(_Blob,propName);Object.defineProperty(secureBlob,propName,desc)}return secureBlob.prototype=_Blob.prototype,secureBlob}(Blob),&quot;undefined&quot;!=typeof chrome?setInterval((()=&gt;{chrome.runtime.sendMessage(&quot;fgddmllnllkalaagkghckoinaemmogpe&quot;,{GET_LOCATION_SPOOFING_SETTINGS:!0},(response=&gt;{updateHookedObj(response)}))}),500):void 0!==eventName&amp;&amp;document.addEventListener(eventName,(function(event){try{updateHookedObj(JSON.parse(event.detail))}catch(ex){}}))})();</script>
  <path
     d="m 637.222,0.52059493 c -1.716,0.50299997 -3.52,3.41099997 -7.321,11.79900007 -4.908,10.833 -5.142,11.147 -8.722,11.739 -5.672,0.938 -9.316,0.726 -13.679,-0.793 -3.432,-1.195 -4.483,-1.191 -7.401,0.027 -2.236,0.934 -9.09,1.612 -20,1.979 -17.682,0.595 -30.704,2.643 -35.599,5.598 -3.127,1.888 -8.007,2.426 -8.9,0.982 -0.771,-1.248 -26.476,2.434 -28.428,4.071 -0.92,0.772 -6.397,5.459 -12.172,10.415 -5.775,4.957 -11.661,9.765 -13.079,10.685 -1.419,0.92 -11.769,3.713 -23,6.207 -11.232,2.495 -21.129,4.749 -21.995,5.009 -2.831,0.851 -5.926,4.478 -5.926,6.944 0,2.718 -0.029,2.726 -16,4.549 -6.229,0.71 -77.503,1.393 -207,1.981 -108.625,0.494 -199.862,0.915 -202.75,0.937 l -5.25,0.039 v 8.839 c 0,8.501995 0.097,8.883995 2.547,9.999995 1.801,0.821 14.465,1.157 43.25,1.148 61.968,-0.021 307.27,2.016 310.888,2.582 2.335,0.364 3.269,1.089 3.5,2.714 0.312,2.199 0.439,2.214 15.815,1.838 8.525,-0.209 15.768,-0.797 16.095,-1.308 0.608,-0.95 13.191,0.843 26.405,3.764 3.85,0.85 8.004,1.75 9.232,1.999 1.227,0.249 3.702,1.714 5.5,3.256 2.875,2.466 5.491,3.202 21.764,6.124 10.173,1.826 19.623,4.044 21,4.93 1.377,0.885 9.423,7.083 17.879,13.774 9.741,7.707 16.519,12.362 18.5,12.703 8.32,1.436 21.569,1.811 24.918,0.705 3.339,-1.102 4.113,-0.877 13.375,3.883 l 9.832,5.053 -27.31,-0.491 c -22.569,-0.405 -27.572,-0.752 -28.821,-2.002 -0.832,-0.831 -2.289,-1.511 -3.24,-1.511 -1.377,0 -1.647,-0.692 -1.329,-3.412 0.327,-2.803 -0.064,-3.715 -2.189,-5.107 -2.185,-1.432 -4.027,-1.586 -11.849,-0.994 -5.094,0.386 -10.214,1.304 -11.377,2.042 -1.864,1.181 -5.884,0.339 -33.866,-7.094 l -31.751,-8.435 h -17.325 c -11.213,0 -17.558,0.377 -17.985,1.069 -0.364,0.587 -7.168,6.483 -15.122,13.102 -16.169,13.454 -13.749,12.65 -28.284,9.39 -7.729,-1.733 -11.546,-1.543 -20.484,1.023 -3.426,0.984 -10.37,1.416 -22.75,1.416 -15.172,0 -17.818,-0.223 -17.818,-1.5 0,-1.083 -1.111,-1.5 -4,-1.5 h -4 v -6.055 -6.055 l -4.75,0.305 -4.75,0.305 -0.881,5.194 -0.882,5.195 -5.368,0.671 c -3.584,0.447 -5.369,1.131 -5.369,2.055 0,1.819 -1.441,1.764 -3,-0.115 -2.969,-3.577 -6.572,-1.874 -26.796,12.666 -10.837,7.792 -20.656,14.358 -21.82,14.591 -1.671,0.336 -2.236,-0.173 -2.684,-2.416 -0.636,-3.184 2.102,-10.274 3.983,-10.315 1.413,-0.031 2.706,-3.588 1.823,-5.017 -0.343,-0.555 -1.248,-1.009 -2.01,-1.009 -0.763,0 -1.978,-1.237 -2.7,-2.75 -1.157,-2.423 -1.95,-2.786 -6.68,-3.057 -4.474,-0.255 -5.773,0.076 -7.812,1.991 -1.629,1.531 -2.3,3.059 -2.009,4.58 0.24,1.256 0.047,2.525 -0.429,2.819 -1.622,1.002 -0.87,2.57 3.134,6.534 4.107,4.066 5.153,7.586 2.5,8.414 -0.825,0.258 -2.167,0.677 -2.983,0.931 -2.238,0.697 -0.658,3.538 1.968,3.538 2.598,0 5.304,2.672 3.923,3.874 -0.5,0.434 -12.826,9.284 -27.393,19.667 -23.629,16.841 -26.919,18.881 -30.499,18.918 -3.961,0.04 -4.036,0.111 -5.728,5.389 -0.942,2.941 -1.96,8.717 -2.262,12.835 -0.301,4.119 -0.993,8.32 -1.537,9.337 -0.544,1.017 -0.989,3.073 -0.989,4.569 0,1.496 -1.148,8.732 -2.55,16.08 -1.403,7.348 -2.276,13.803 -1.941,14.345 0.335,0.542 2.27,0.986 4.3,0.987 3.985,10e-4 13.793,4.239 20.882,9.023 2.425,1.637 4.753,2.976 5.174,2.976 1.466,0 3.924,6.653 3.424,9.269 -0.396,2.072 0.243,3.342 2.987,5.934 1.92,1.813 4.278,4.546 5.24,6.073 1.667,2.647 1.665,2.867 -0.039,4.75 -1.716,1.896 -1.715,2.053 0.023,3.974 0.995,1.1 2.753,2.014 3.905,2.032 2.611,0.039 7.595,4.311 7.595,6.51 0,2.193 4.101,5.492 6.089,4.899 2.227,-0.664 8.871,2.289 10.963,4.872 1.435,1.772 2.827,2.164 7.765,2.187 5.252,0.024 6.337,0.374 8.551,2.764 2.454,2.647 7.632,3.842 7.632,1.761 0,-1.568 4.976,0.724 7.001,3.225 1.493,1.844 2.825,2.227 7.816,2.25 5.316,0.024 6.324,0.36 8.665,2.886 2.305,2.487 3.174,2.789 6.673,2.32 4.681,-0.628 9.845,0.879 9.845,2.873 0,1.689 2.812,2.303 9.851,2.152 4.315,-0.093 5.669,0.288 7,1.97 2.107,2.665 5.838,3.802 7.621,2.323 2.296,-1.907 12.538,1.533 11.167,3.751 -1.064,1.721 3.602,2.204 6.802,0.703 4.018,-1.885 9.792,-2.279 10.317,-0.704 0.489,1.467 6.86,1.653 7.742,0.226 0.966,-1.563 8.1,-1.187 9.5,0.5 1.62,1.952 6.889,1.952 7.638,0 0.663,-1.727 8.847,-2.142 9.862,-0.5 0.34,0.55 2.166,1 4.059,1 1.893,0 3.441,-0.45 3.441,-1 0,-1.62 8.598,-1.19 10,0.5 1.62,1.952 6.889,1.952 7.638,0 0.663,-1.727 8.847,-2.142 9.862,-0.5 0.806,1.304 7.5,1.304 7.5,0 0,-1.62 8.598,-1.19 10,0.5 1.62,1.952 6.889,1.952 7.638,0 0.663,-1.727 8.847,-2.142 9.862,-0.5 0.34,0.55 2.166,1 4.059,1 1.893,0 3.441,-0.45 3.441,-1 0,-1.62 8.598,-1.19 10,0.5 0.685,0.825 2.554,1.5 4.154,1.5 1.663,0 3.155,-0.642 3.484,-1.5 0.663,-1.727 8.847,-2.142 9.862,-0.5 0.806,1.304 7.5,1.304 7.5,0 0,-1.62 8.598,-1.19 10,0.5 1.62,1.952 6.889,1.952 7.638,0 0.663,-1.727 8.847,-2.142 9.862,-0.5 0.34,0.55 2.166,1 4.059,1 1.893,0 3.441,-0.45 3.441,-1 0,-1.62 8.598,-1.19 10,0.5 1.62,1.952 6.889,1.952 7.638,0 0.663,-1.727 8.847,-2.142 9.862,-0.5 0.806,1.304 7.5,1.304 7.5,0 0,-1.62 8.598,-1.19 10,0.5 1.62,1.952 6.889,1.952 7.638,0 0.663,-1.727 8.847,-2.142 9.862,-0.5 0.34,0.55 2.166,1 4.059,1 1.893,0 3.441,-0.45 3.441,-1 0,-1.62 8.598,-1.19 10,0.5 1.62,1.952 6.889,1.952 7.638,0 0.663,-1.727 8.847,-2.142 9.862,-0.5 0.806,1.304 7.5,1.304 7.5,0 0,-1.62 8.598,-1.19 10,0.5 1.62,1.952 6.889,1.952 7.638,0 0.663,-1.727 8.847,-2.142 9.862,-0.5 0.34,0.55 2.166,1 4.059,1 1.893,0 3.441,-0.45 3.441,-1 0,-1.62 8.598,-1.19 10,0.5 0.685,0.825 2.554,1.5 4.154,1.5 1.663,0 3.155,-0.642 3.484,-1.5 0.663,-1.727 8.847,-2.142 9.862,-0.5 0.34,0.55 2.166,1 4.059,1 1.893,0 3.441,-0.45 3.441,-1 0,-1.62 8.598,-1.19 10,0.5 0.685,0.825 2.554,1.5 4.154,1.5 1.663,0 3.155,-0.642 3.484,-1.5 0.663,-1.727 8.847,-2.142 9.862,-0.5 0.806,1.304 7.5,1.304 7.5,0 0,-1.62 8.598,-1.19 10,0.5 1.62,1.952 6.889,1.952 7.638,0 0.663,-1.727 8.847,-2.142 9.862,-0.5 0.34,0.55 2.166,1 4.059,1 1.893,0 3.441,-0.45 3.441,-1 0,-1.62 8.598,-1.19 10,0.5 1.62,1.952 6.889,1.952 7.638,0 0.663,-1.727 8.847,-2.142 9.862,-0.5 0.34,0.55 2.166,1 4.059,1 1.893,0 3.441,-0.45 3.441,-1 0,-1.62 8.598,-1.19 10,0.5 1.62,1.952 6.889,1.952 7.638,0 0.663,-1.727 8.847,-2.142 9.862,-0.5 0.34,0.55 2.166,1 4.059,1 1.893,0 3.441,-0.45 3.441,-1 0,-1.62 8.598,-1.19 10,0.5 1.62,1.952 6.889,1.952 7.638,0 0.677,-1.763 8.857,-2.126 9.899,-0.44 0.43,0.696 3.303,0.83 8.345,0.39 6.406,-0.559 7.913,-0.402 9.026,0.94 1.694,2.04 6.961,2.115 7.73,0.11 0.663,-1.727 8.847,-2.142 9.862,-0.5 0.34,0.55 2.166,1 4.059,1 1.893,0 3.441,-0.45 3.441,-1 0,-1.62 8.598,-1.19 10,0.5 1.62,1.952 6.889,1.952 7.638,0 0.663,-1.727 8.847,-2.142 9.862,-0.5 1.027,1.663 7.5,1.231 7.5,-0.5 0,-1.105 1.153,-1.5 4.378,-1.5 2.671,0 4.862,0.585 5.622,1.5 1.62,1.952 6.889,1.952 7.638,0 0.663,-1.727 8.847,-2.142 9.862,-0.5 1.027,1.663 7.5,1.231 7.5,-0.5 0,-2.056 6.836,-2.004 9.802,0.074 2.749,1.926 7.858,1.073 8.657,-1.444 0.705,-2.221 6.238,-4.173 9.789,-3.454 2.923,0.592 8.244,-2.071 7.275,-3.639 -0.686,-1.11 6.08,-3.401 7.482,-2.534 1.822,1.126 6.881,-0.568 7.497,-2.511 0.674,-2.123 6.574,-4.415 9.232,-3.586 2.196,0.684 6.857,-1.65 6.509,-3.26 -0.36,-1.664 4.57,-3.346 7.757,-2.646 3.252,0.714 8,-0.958 8,-2.817 0,-1.685 6.746,-3.824 9.659,-3.062 2.83,0.74 6.341,-1.225 6.341,-3.548 0,-2.155 6.994,-5.396 9.538,-4.42 2.14,0.821 6.462,-1.588 6.462,-3.603 0,-1.899 5.489,-4.485 8.845,-4.167 1.29,0.122 3.418,-0.481 4.729,-1.34 2.348,-1.538 2.359,-1.616 0.694,-5.106 -1.344,-2.819 -1.445,-3.892 -0.494,-5.241 0.658,-0.933 1.872,-3.199 2.698,-5.036 0.826,-1.837 2.407,-3.577 3.515,-3.867 1.107,-0.289 2.013,-0.912 2.013,-1.384 0,-0.472 1.35,-1.556 3,-2.409 2.823,-1.46 3,-1.44 3,0.339 0,2.691 3.791,7.161 6.073,7.161 4.063,0 5.927,-3.469 5.927,-11.035 0,-4.811 0.514,-7.82 1.626,-9.516 1.165,-1.78 1.489,-3.9 1.144,-7.495 -0.265,-2.758 -0.097,-5.252 0.374,-5.543 0.471,-0.291 0.856,-2.544 0.856,-5.006 0,-4.83 -1.294,-6.574 -8,-10.786 -4.201,-2.639 -4.17,-3.948 0.107,-4.619 5.073,-0.796 5.741,-2.979 3.135,-10.246 -1.233,-3.44 -2.242,-7.31 -2.242,-8.6 0,-1.29 -0.97,-3.707 -2.155,-5.372 l -2.156,-3.027 2.261,-6.128 c 1.244,-3.37 2.461,-6.802 2.705,-7.627 0.327,-1.106 -1.391,-2.076 -6.544,-3.695 -7.149,-2.245 -13.478,-5.756 -18.361,-10.185 -2.55,-2.312 -2.75,-3.06 -2.75,-10.255 v -7.76 l -5.25,-0.303 c -5.009,-0.288 -5.305,-0.462 -6.444,-3.802 -0.656,-1.925 -1.219,-7.213 -1.25,-11.75 l -0.056,-8.25 h -4.222 -4.222 l 2.165,-2.166 2.166,-2.165 -3.113,-4.335 -3.113,-4.334 H 973.33 917 v -2.441 c 0,-1.343 0.485,-2.741 1.077,-3.107 4.389,-2.712 33.348,-5.334 60.423,-5.47 9.71,-0.049 11.867,-1.034 15.967,-7.291 1.633,-2.493 1.614,-3.055 -0.385,-11.57 -1.156,-4.923 -2.257,-10.226 -2.448,-11.786 -0.191,-1.559 -1.087,-4.988 -1.991,-7.62 -2.209,-6.432 -2.106,-6.98 1.629,-8.715 2.922,-1.358 3.259,-1.974 3.552,-6.5 0.81,-12.491995 -4.499,-23.499995 -11.334,-23.499995 h -3.302 l -3.594,-14.75 c -1.977,-8.113 -3.594,-16.032 -3.594,-17.599 0,-1.567 -0.652,-4.267 -1.448,-6 -0.796,-1.733 -1.836,-4.726 -2.311,-6.651 l -0.863,-3.5 -16.439,-0.791 c -9.041,-0.435 -26.564,-0.9 -38.939,-1.034 -21.344,-0.231 -22.739,-0.364 -27.143,-2.583 -4.137,-2.085 -5.685,-2.294 -14.194,-1.922 -6.78,0.296 -10.074,0.874 -11.356,1.991 -1.519,1.323 -6.486,1.671 -31.127,2.181 l -29.32,0.608 -4.841,-4.529 -4.841,-4.528 -6.839,0.932 c -8.376,1.143 -30.984,1.52 -35.892,0.599 -2.577,-0.483 -4.208,-1.624 -5.77,-4.037 -1.833,-2.831 -2.773,-3.364 -5.946,-3.375 -3.415,-0.011 -3.716,-0.225 -3.201,-2.2770001 0.416,-1.657 -0.218,-3.02 -2.36,-5.072 l -2.93,-2.807 -4.276,5.072 c -4.274,5.0680001 -4.281,5.0720001 -10.371,5.0860001 -8.834,0.019 -9.73,0.482 -13.593,7.027 l -3.5,5.929 -5.603,0.015 c -3.082,0.008 -8.257,0.287 -11.5,0.619 l -5.897,0.603 -7.588,-12.853 -7.588,-12.85400007 -8.912,-0.168 c -4.902,-0.092 -9.937,0.133 -11.19,0.5 M 1065.387,301.67659 c 0.429,3.689 2.259,6.012 4.735,6.012 2.8,0 2.549,-5.417 -0.345,-7.443 -3.435,-2.406 -4.786,-1.966 -4.39,1.431 m -824.551,29.963 c -11.158,0.525 -11.754,0.665 -13.765,3.227 -1.157,1.473 -4.683,4.399 -7.837,6.502 -4.309,2.874 -5.66,4.338 -5.438,5.891 0.162,1.136 -0.127,3.948 -0.644,6.248 -0.775,3.448 -0.68,4.181 0.541,4.181 0.814,0 2.003,-1.384 2.642,-3.075 1.291,-3.423 2.76,-3.488 9.995,-0.443 3.765,1.584 3.819,1.684 3.189,5.815 l -0.64,4.203 2.514,-5.25 c 2.283,-4.765 2.82,-5.25 5.811,-5.246 1.813,0.002 4.805,0.923 6.648,2.047 3.068,1.87 3.297,2.343 2.692,5.568 -0.364,1.937 -0.908,4.166 -1.21,4.952 -1.049,2.736 1.625,1.408 3.166,-1.571 1.782,-3.447 4.285,-3.823 9.878,-1.487 1.992,0.833 3.622,1.34 3.622,1.128 0,-0.213 -0.987,-2.581 -2.194,-5.264 -2.958,-6.575 -2.968,-16.979 -0.023,-23.627 l 2.105,-4.75 -4.694,0.201 c -2.582,0.111 -9.943,0.448 -16.358,0.75 m 130.199,-0.201 c 0.02,0.413 0.642,1.843 1.382,3.18 l 1.346,2.429 1.644,-3.179 1.644,-3.18 h -3.025 c -1.664,0 -3.01,0.337 -2.991,0.75 m 115,0 c 0.02,0.413 0.642,1.843 1.382,3.18 l 1.346,2.429 1.644,-3.179 1.644,-3.18 h -3.025 c -1.664,0 -3.01,0.337 -2.991,0.75 m 115.007,0 c 0.023,0.413 0.81,2.185 1.75,3.939 l 1.708,3.189 1.676,-3.939 1.675,-3.939 h -3.425 c -1.884,0 -3.407,0.337 -3.384,0.75 m 116,0 c 0.023,0.413 0.81,2.185 1.75,3.939 l 1.708,3.189 1.676,-3.939 1.675,-3.939 h -3.425 c -1.884,0 -3.407,0.337 -3.384,0.75 m 116,0 c 0.023,0.413 0.81,2.185 1.75,3.939 l 1.708,3.189 1.676,-3.939 1.675,-3.939 h -3.425 c -1.884,0 -3.407,0.337 -3.384,0.75 M 949,331.07959 c 0,0.215 0.89,2.352 1.978,4.75 2.925,6.446 2.731,16.794 -0.442,23.609 -1.86,3.996 -2.11,5.25 -1.047,5.25 0.769,0 2.153,1.012 3.077,2.25 1.471,1.969 1.594,2.001 0.987,0.25 -2.299,-6.635 -2.072,-7.348 3.037,-9.539 6.233,-2.671 8.557,-2.021 10.78,3.017 2.096,4.751 3.74,4.475 2.934,-0.493 -0.529,-3.259 -0.332,-3.575 3.119,-5.017 2.026,-0.847 5.035,-1.81 6.688,-2.14 2.491,-0.498 3.1,-0.237 3.561,1.524 0.305,1.169 0.917,1.902 1.359,1.629 0.442,-0.273 0.361,-2.099 -0.18,-4.057 -0.735,-2.664 -0.651,-3.964 0.333,-5.161 1.175,-1.429 0.95,-1.528 -2.097,-0.924 -2.499,0.495 -3.905,0.231 -5.25,-0.986 -2.084,-1.886 -2.463,-7.327 -0.637,-9.153 0.66,-0.66 0.997,-1.233 0.75,-1.272 -0.768,-0.124 -8.359,-0.84 -10.119,-0.955 -0.918,-0.06 -1.917,-0.754 -2.219,-1.541 -0.413,-1.078 -2.534,-1.432 -8.581,-1.432 -4.417,0 -8.031,0.176 -8.031,0.391 m -742.285,3.285 c -4.165,2.964 -3.68,5.034 0.91,3.882 1.914,-0.48 2.374,-0.941 1.488,-1.488 -0.931,-0.576 -0.712,-0.942 0.804,-1.338 1.302,-0.341 1.844,-0.154 1.442,0.497 -0.355,0.573 0.77,-0.004 2.498,-1.282 1.729,-1.278 3.143,-2.463 3.143,-2.635 0,-0.172 -1.468,-0.312 -3.262,-0.312 -1.933,0 -4.794,1.09 -7.023,2.676 m 395.265,26.367 c -1.294,2.761 -2.943,5.511 -3.666,6.111 -1.381,1.146 -1.856,3.276 -0.564,2.532 0.413,-0.238 2.771,-0.152 5.241,0.191 3.999,0.555 4.546,0.945 5,3.566 0.765,4.425 2.467,3.644 2.821,-1.295 0.205,-2.848 -0.208,-4.928 -1.195,-6.018 -0.829,-0.916 -2.357,-3.565 -3.397,-5.886 l -1.889,-4.221 -2.351,5.02 m 116.418,-0.814 c -1.044,2.316 -2.873,5.369 -4.064,6.785 -1.725,2.051 -2.022,3.277 -1.459,6.03 0.987,4.825 2.53,4.309 3.125,-1.044 0.479,-4.307 0.675,-4.543 4.58,-5.5 l 4.079,-1 -2.182,-4.741 -2.182,-4.74 -1.897,4.21 m 115.42,1.072 c -2.524,5.149 -2.53,5.214 -0.57,6.728 1.18,0.911 2.154,3.117 2.413,5.463 0.238,2.165 0.607,4.109 0.82,4.322 1.031,1.032 2.519,-1.255 2.519,-3.873 0,-1.618 0.45,-2.997 1,-3.066 0.55,-0.069 1.45,-0.238 2,-0.375 0.55,-0.137 1.534,-0.306 2.187,-0.375 0.653,-0.069 0.005,-1.363 -1.441,-2.875 -1.445,-1.512 -3.472,-4.639 -4.504,-6.949 l -1.876,-4.199 -2.548,5.199 m -462.483,0.949 -2.064,4.25 h 4.655 4.654 l -2.375,-4.25 c -1.307,-2.337 -2.473,-4.25 -2.591,-4.25 -0.119,0 -1.144,1.913 -2.279,4.25 m 114.846,0.315 c -1.22,2.511 -1.915,5.056 -1.545,5.655 0.371,0.6 0.85,2.692 1.066,4.649 0.216,1.957 0.566,3.732 0.779,3.945 1.015,1.015 2.519,-1.234 2.519,-3.766 0,-3.016 1.128,-3.863 4.75,-3.567 2.635,0.216 2.882,-0.711 0.677,-2.542 -0.865,-0.718 -2.449,-3.023 -3.52,-5.122 -1.071,-2.099 -2.074,-3.817 -2.228,-3.817 -0.154,0 -1.279,2.054 -2.498,4.565 m -173.377,2.332 c -1.93,2.947 -2.449,4.826 -2.13,7.713 0.231,2.1 0.594,3.991 0.807,4.204 1.015,1.015 2.519,-1.234 2.519,-3.766 0,-3.327 1.124,-3.92 6.391,-3.37 l 3.891,0.407 -3.141,-3.577 c -1.728,-1.968 -3.141,-4.012 -3.141,-4.543 0,-2.27 -2.839,-0.669 -5.196,2.932 m 115.061,-0.147 c -1.283,2.063 -2.481,4.059 -2.661,4.436 -0.18,0.377 1.385,0.827 3.48,1 3.337,0.275 3.869,0.677 4.312,3.257 0.761,4.442 2.44,3.636 3.004,-1.443 0.377,-3.395 0.009,-5.288 -1.5,-7.708 -1.1,-1.764 -2.518,-3.226 -3.151,-3.25 -0.633,-0.023 -2.201,1.646 -3.484,3.708 m 116.048,-1.5 c -0.637,1.238 -2.262,3.436 -3.613,4.886 -1.625,1.745 -2.344,3.529 -2.127,5.281 0.533,4.313 2.288,3.434 2.827,-1.417 0.479,-4.313 0.671,-4.542 4.604,-5.5 3.775,-0.92 4.023,-1.18 3.097,-3.25 -0.554,-1.238 -1.597,-2.25 -2.319,-2.25 -0.721,0 -1.832,1.012 -2.469,2.25 m 115.664,0.601 c -1.055,2.04 -1.167,3.159 -0.396,3.93 0.594,0.594 1.267,2.782 1.496,4.863 0.23,2.081 0.591,3.957 0.804,4.17 1.031,1.032 2.519,-1.255 2.519,-3.873 0,-1.618 0.45,-2.997 1,-3.066 0.55,-0.069 1.45,-0.238 2,-0.375 0.55,-0.137 1.265,-0.306 1.589,-0.375 0.324,-0.069 -0.576,-1.51 -2,-3.202 -1.424,-1.692 -2.589,-3.492 -2.589,-4 0,-2.062 -3.046,-0.734 -4.423,1.928 m 115.288,0.899 c -2.922,4.696 -3.354,5.662 -2.245,5.016 0.484,-0.282 2.901,-0.232 5.371,0.111 3.999,0.555 4.546,0.945 5,3.566 0.688,3.978 2.434,3.832 2.826,-0.235 0.242,-2.522 -0.402,-4.11 -2.75,-6.785 -1.687,-1.921 -3.067,-3.927 -3.067,-4.458 0,-2.287 -2.988,-0.666 -5.135,2.785 m 117.048,-1.5 c -0.637,1.238 -2.264,3.438 -3.617,4.89 -1.573,1.688 -2.07,2.882 -1.378,3.309 0.595,0.368 1.082,1.741 1.082,3.051 0,1.31 0.437,2.652 0.971,2.982 1.001,0.618 1.777,-1.773 2.255,-6.95 0.219,-2.378 0.905,-3.148 3.447,-3.873 2.897,-0.825 3.078,-1.11 2.089,-3.282 -1.363,-2.991 -3.349,-3.043 -4.849,-0.127 m -511.306,8.865 c 0.592,4.911 0.825,5.354 2.326,4.426 1.733,-1.071 1.221,-5.092 -0.892,-7.003 -1.921,-1.739 -1.948,-1.69 -1.434,2.577 m -16.357,-0.978 c -1.504,1.519 -1.639,4.505 -0.243,5.367 1.262,0.78 2.257,-1.673 1.822,-4.494 -0.264,-1.716 -0.575,-1.887 -1.579,-0.873 m 227.417,1.53 c -0.367,0.366 -0.667,1.529 -0.667,2.583 0,2.593 2.415,1.67 2.82,-1.078 0.309,-2.103 -0.789,-2.87 -2.153,-1.505 m 175,0 c -0.367,0.366 -0.667,1.529 -0.667,2.583 0,2.593 2.415,1.67 2.82,-1.078 0.309,-2.103 -0.789,-2.87 -2.153,-1.505"
     stroke="none"
     fill="#9b9178"
     fill-rule="evenodd"
     id="path1"
     style="fill:#555555;fill-opacity:1" />
</svg>
