<?xml version="1.0" encoding="UTF-8" standalone="no"?>
<!-- Created with Inkscape (http://www.inkscape.org/) -->

<svg
   xmlns:dc="http://purl.org/dc/elements/1.1/"
   xmlns:cc="http://creativecommons.org/ns#"
   xmlns:rdf="http://www.w3.org/1999/02/22-rdf-syntax-ns#"
   xmlns:svg="http://www.w3.org/2000/svg"
   xmlns="http://www.w3.org/2000/svg"
   xmlns:sodipodi="http://sodipodi.sourceforge.net/DTD/sodipodi-0.dtd"
   xmlns:inkscape="http://www.inkscape.org/namespaces/inkscape"
   width="2061.5286"
   height="928.04413"
   viewBox="0 0 545.44609 245.54502"
   version="1.1"
   id="svg8"
   inkscape:version="0.92.4 (5da689c313, 2019-01-14)"
   sodipodi:docname="Toyota_Corolla_2022-top.svg">
  <defs
     id="defs2">
    <inkscape:path-effect
       effect="mirror_symmetry"
       start_point="79.737255,-123.30357"
       end_point="714.01275,-123.30357"
       center_point="396.875,-123.30357"
       id="path-effect836"
       is_visible="true"
       mode="horizontal"
       discard_orig_path="false"
       fuse_paths="false"
       oposite_fuse="false" />
    <inkscape:path-effect
       effect="mirror_symmetry"
       start_point="1500,0"
       end_point="1500,3000"
       center_point="1500,1500"
       id="path-effect865"
       is_visible="true"
       mode="vertical"
       discard_orig_path="false"
       fuse_paths="false"
       oposite_fuse="false" />
    <inkscape:path-effect
       effect="mirror_symmetry"
       start_point="396.875,-496.75002"
       end_point="396.875,296.99998"
       center_point="396.875,-99.87502"
       id="path-effect854"
       is_visible="true"
       mode="vertical"
       discard_orig_path="false"
       fuse_paths="false"
       oposite_fuse="false" />
    <inkscape:path-effect
       effect="mirror_symmetry"
       start_point="396.875,-496.75002"
       end_point="396.875,296.99998"
       center_point="396.875,-99.87502"
       id="path-effect843"
       is_visible="true"
       mode="vertical"
       discard_orig_path="false"
       fuse_paths="false"
       oposite_fuse="false" />
  </defs>
  <sodipodi:namedview
     id="base"
     pagecolor="#ffffff"
     bordercolor="#666666"
     borderopacity="1.0"
     inkscape:pageopacity="0.0"
     inkscape:pageshadow="2"
     inkscape:zoom="0.175"
     inkscape:cx="879.72779"
     inkscape:cy="552.49549"
     inkscape:document-units="mm"
     inkscape:current-layer="layer1"
     showgrid="false"
     inkscape:pagecheckerboard="true"
     inkscape:showpageshadow="false"
     borderlayer="true"
     units="px"
     showguides="true"
     inkscape:guide-bbox="true"
     inkscape:snap-page="true"
     inkscape:snap-object-midpoints="true"
     inkscape:snap-global="true"
     inkscape:window-width="1366"
     inkscape:window-height="713"
     inkscape:window-x="0"
     inkscape:window-y="0"
     inkscape:window-maximized="1"
     fit-margin-top="0"
     fit-margin-left="0"
     fit-margin-right="0"
     fit-margin-bottom="0" />
  <metadata
     id="metadata5">
    <rdf:RDF>
      <cc:Work
         rdf:about="">
        <dc:format>image/svg+xml</dc:format>
        <dc:type
           rdf:resource="http://purl.org/dc/dcmitype/StillImage" />
        <dc:title></dc:title>
      </cc:Work>
    </rdf:RDF>
  </metadata>
  <g
     inkscape:label="Layer 1"
     inkscape:groupmode="layer"
     id="layer1"
     transform="translate(-127.36225,246.07608)">
    <path
       style="fill:#555555;fill-opacity:1;stroke:none;stroke-width:0.26458332px;stroke-linecap:butt;stroke-linejoin:miter;stroke-opacity:1"
       d="m 672.80833,-123.30358 c 0,53.148225 -5.87994,65.709893 -8.28535,68.649858 -2.40543,2.939965 -4.00904,17.37252 -12.56167,22.18337 -8.55263,4.810853 -35.54685,7.216278 -41.69405,8.819896 -6.1472,1.603616 -18.44159,4.543581 -34.47777,4.81085 -16.03616,0.267269 -61.472,-0.534538 -67.88645,-1.336347 -6.41448,-0.801809 -8.81991,-1.603618 -8.81991,-1.603618 l -89.00076,1.870887 c -1.60361,2.138156 -15.7689,1.603618 -15.50162,0 h -68.42099 l 6.41447,18.1743267 c -5.87994,3.2072342 -10.69078,-0.2672688 -16.57072,-7.2162748 -5.87993,-6.9490089 -6.1472,-11.2253209 -6.1472,-11.2253209 h -15.7689 c -3.4745,1.870887 -21.64883,3.207234 -54.52298,2.138156 -32.87415,-1.069078 -32.07234,-1.336347 -40.89224,-1.870887 -8.81989,-0.534538 -35.54684,-6.949009 -39.28862,-11.759859 -3.74177,-4.810852 -7.26388,-12.161998 -7.26388,-12.161998 -7.74851,-5.102678 -14.93005,-19.276785 -14.93005,-19.276785 V -66.6981 c 0,0 -4.34673,-4.535713 -5.48066,-9.071428 -1.13393,-4.535715 -4.34673,-23.063638 -4.34673,-47.534052 z m 0,1e-5 c 0,-53.14822 -5.87994,-65.70989 -8.28535,-68.64986 -2.40543,-2.93996 -4.00904,-17.37252 -12.56167,-22.18337 -8.55263,-4.81085 -35.54685,-7.21627 -41.69405,-8.81989 -6.1472,-1.60362 -18.44159,-4.54358 -34.47777,-4.81085 -16.03616,-0.26727 -61.472,0.53454 -67.88645,1.33634 -6.41448,0.80181 -8.81991,1.60362 -8.81991,1.60362 l -89.00076,-1.87088 c -1.60361,-2.13816 -15.7689,-1.60362 -15.50162,0 h -68.42099 l 6.41447,-18.17433 c -5.87994,-3.20724 -10.69078,0.26727 -16.57072,7.21627 -5.87993,6.94901 -6.1472,11.22532 -6.1472,11.22532 h -15.7689 c -3.4745,-1.87088 -21.64883,-3.20723 -54.52298,-2.13815 -32.87415,1.06908 -32.07234,1.33635 -40.89224,1.87089 -8.81989,0.53453 -35.54684,6.949 -39.28862,11.75985 -3.74177,4.81086 -7.26388,12.162 -7.26388,12.162 -7.74851,5.10268 -14.93005,19.27679 -14.93005,19.27679 v 3.59077 c 0,0 -4.34673,4.53571 -5.48066,9.07143 -1.13393,4.53571 -4.34673,23.06364 -4.34673,47.53405 z"
       id="path834"
       inkscape:connector-curvature="0" />
  </g>
</svg>
