<?xml version="1.0" encoding="UTF-8" standalone="no"?>
<svg
   xmlns:dc="http://purl.org/dc/elements/1.1/"
   xmlns:cc="http://creativecommons.org/ns#"
   xmlns:rdf="http://www.w3.org/1999/02/22-rdf-syntax-ns#"
   xmlns:svg="http://www.w3.org/2000/svg"
   xmlns="http://www.w3.org/2000/svg"
   xmlns:sodipodi="http://sodipodi.sourceforge.net/DTD/sodipodi-0.dtd"
   xmlns:inkscape="http://www.inkscape.org/namespaces/inkscape"
   viewBox="0 0 1136.5234 2963.1289"
   version="1.1"
   id="svg698"
   sodipodi:docname="Eiffel_Tower-front.svg"
   inkscape:version="0.92.4 (5da689c313, 2019-01-14)"
   width="1136.5234"
   height="2963.1289"
   inkscape:export-filename="G:\Pictures\Pixabay\My Edited\Vectors and Flat\eiffel-tower-150119.png"
   inkscape:export-xdpi="96"
   inkscape:export-ydpi="96">
  <metadata
     id="metadata704">
    <rdf:RDF>
      <cc:Work
         rdf:about="">
        <dc:format>image/svg+xml</dc:format>
        <dc:type
           rdf:resource="http://purl.org/dc/dcmitype/StillImage" />
        <dc:title></dc:title>
      </cc:Work>
    </rdf:RDF>
  </metadata>
  <defs
     id="defs702" />
  <sodipodi:namedview
     pagecolor="#505050"
     bordercolor="#666666"
     borderopacity="1"
     objecttolerance="10"
     gridtolerance="10"
     guidetolerance="10"
     inkscape:pageopacity="0"
     inkscape:pageshadow="2"
     inkscape:window-width="1600"
     inkscape:window-height="837"
     id="namedview700"
     showgrid="false"
     inkscape:zoom="0.22425739"
     inkscape:cx="629.26058"
     inkscape:cy="1430.4028"
     inkscape:window-x="-8"
     inkscape:window-y="-8"
     inkscape:window-maximized="1"
     inkscape:current-layer="svg698"
     inkscape:showpageshadow="false"
     borderlayer="true"
     fit-margin-top="0"
     fit-margin-left="0"
     fit-margin-right="0"
     fit-margin-bottom="0"
     inkscape:pagecheckerboard="true" />
  <path
     style="fill:#ffffff;fill-opacity:1;stroke:none;stroke:none;stroke-width:0.89287323;stroke-opacity:1"
     d="m 565.50781,0 v 9.041015 h -8.75 V 1.392578 h -1.73828 v 7.648437 h -1.4082 v 5.564454 h 11.89648 V 130.05273 h -3.1914 v 9.38672 h -4.50977 v 25.73242 h 4.50977 v 6.95508 h -4.50977 v 25.73242 h 4.50977 v 6.94727 h -4.50977 v 25.73242 h 4.50977 v 6.94727 h -4.50977 v 17.49804 c -3.73114,1.39115 -8.22451,3.48251 -12.16797,6.50586 -17.37531,14.80681 -21.61884,26.10931 -27.81836,41.72656 -0.63207,1.73761 -1.20281,3.51225 -1.74609,5.28125 v -2.85742 h -14.60547 v 23.99414 h 9.72266 v 5.58985 h -8.69727 v 27.12304 h 8.69727 v 6.92578 h -19.4336 v 15.32813 h -2.02343 v 28.83203 h 21.23242 l -16.06446,0.23633 c 0,0 7.14645,3.00918 15.50196,19.58984 6.70953,13.3144 10.48246,40.08858 11.72656,50.24024 l -3.75781,139.58203 v 0.0918 l -5.58203,128.1621 -6.38672,137.10938 -0.14844,0.17383 0.13477,0.11914 -0.0156,0.34179 -7.88086,156.95323 -0.43164,0.33 0.1582,0.2032 -0.0566,0.07 0.28907,0.2324 -8.72657,177.5957 v 0.092 l -6.13867,93.4707 -6.78906,92.1719 -6.69727,98.123 -7.99804,97.5645 -10.50977,100.0761 v 0.092 l -0.27148,1.9414 -0.13672,0.1075 0.10351,0.1328 -13.83203,99.0117 v 0.092 l -11.43554,77.1094 h -34.80079 v 15.5332 h 32.4961 l -0.0449,0.3008 -35.14844,0.074 0.37109,6.6035 h 4.5586 c 11.22103,2.0658 15.75038,23.7634 16.36914,48.457 h 0.875 l -21.875,88.4277 -24.83399,97.379 -25.76172,103.9843 v 0.092 l -15.16211,53.1992 -0.0918,0.1856 -29.92774,84.5527 h -47.27343 v 7.7207 h 1.11328 v 47.0723 h -0.57813 v 15.2383 h -14.4043 v 4.4648 h 3.26368 l 4.83789,10.3418 3.4414,13.4863 1.56055,22.0352 h -1.94336 v 4.4648 h 1.48633 l -2.05078,2.0508 3.34961,3.2539 -120.69336,247.3184 h -0.1836 v 0.3769 l -76.976559,157.7364 -4.863281,4.8945 h -3.394532 l -29.8164062,18.6719 3.7363282,5.209 H 13.109455 L 8e-5,2963.1274 H 217.4375 l -0.0762,-0.1465 h 16.94531 l -3.25586,-4.1758 -0.11914,-11.8692 c 0,0 3.53009,-0.9212 4.05078,-1.9843 0.52069,-1.0631 0.67442,-4.829 0,-5.7207 -0.67442,-0.8916 -4.72461,-1.75 -4.72461,-1.75 0,0 0.7622,-6.349 -0.71679,-8.0547 -0.74641,-0.8609 -1.75839,-1.2043 -2.58008,-1.336 -0.044,-2.2398 -0.36096,-19.9145 0.57031,-28.7539 1.42071,-13.4851 4.20844,-26.8488 7.81445,-39.9961 4.10097,-14.9511 9.26357,-29.7028 15.625,-43.8066 7.84359,-17.389 17.05084,-34.1797 27.62305,-50.0371 9.59035,-14.3848 20.59926,-27.991 32.36524,-40.7383 9.80673,-10.6234 20.63147,-20.3266 31.81054,-29.6699 10.50525,-8.7811 21.40057,-17.1144 32.83203,-24.5547 14.5705,-9.4827 29.81752,-18.0362 45.47852,-25.5762 15.10146,-7.2698 30.42624,-13.9748 46.31641,-18.7871 15.53183,-4.7031 31.73891,-7.4505 47.99218,-9.8594 17.45686,-2.7456 34.15564,-3.6381 52.73633,-3.7988 18.58069,-0.1607 35.41811,1.4163 53.01367,3.7988 16.25178,2.4089 32.45917,5.1563 47.99219,9.8594 15.89314,4.8123 31.21299,11.5173 46.31445,18.7871 15.66248,7.54 30.91176,16.0932 45.48047,25.5762 11.43205,7.4403 22.32737,15.7736 32.83203,24.5547 11.17758,9.343 22.00039,19.0462 31.8086,29.6699 11.76599,12.7458 22.77682,26.352 32.36719,40.7383 10.57249,15.858 19.77975,32.6499 27.62304,50.0371 6.36142,14.1032 11.52403,28.8546 15.625,43.8066 3.60602,13.1458 6.39164,26.5095 7.8125,39.9961 0.93128,8.8394 0.61628,26.5141 0.57227,28.7539 -0.82242,0.1312 -1.83633,0.4737 -2.58399,1.336 -1.47898,1.7057 -0.71484,8.0547 -0.71484,8.0547 0,0 -4.05214,0.8584 -4.72656,1.75 -0.67441,0.8917 -0.52069,4.6576 0,5.7207 0.5207,1.0631 4.05078,1.9843 4.05078,1.9843 l -0.11914,11.8692 -3.25586,4.1758 h 16.94531 l -0.0762,0.1465 h 217.43752 l -13.1094,-15.5528 h -0.5761 l 3.7363,-5.209 -29.8164,-18.6719 h -3.3945 l -4.8633,-4.8945 -76.9473,-157.6758 v -0.4375 h -0.2129 L 888.0586,2508.0625 h 5.40234 v -4.4648 h -1.90625 l 1.56055,-22.0352 3.34765,-13.4863 4.83789,-10.3418 h 3.32032 v -4.4648 h -14.52344 v -15.2383 h -0.48828 v -47.0723 h 1.17382 v -7.7207 h -47.26562 l -29.92969,-84.5527 -0.0918,-0.1856 -15.16016,-53.1992 v -0.092 l -25.76367,-103.9843 -24.83203,-97.379 -21.87696,-88.4277 h 0.83985 c 0.61876,-24.6945 5.14811,-46.3915 16.36914,-48.457 h 4.55664 l 0.37304,-6.6035 -35.13085,-0.074 -0.0449,-0.3008 h 32.47657 v -15.5332 h -34.78125 l -11.43555,-77.1094 v -0.092 l -13.83984,-99.0645 0.0625,-0.08 -0.082,-0.064 -0.27734,-1.9844 v -0.092 l -10.50977,-100.0761 -7.99804,-97.5645 -6.69727,-98.123 -6.78906,-92.1719 -6.13867,-93.4707 v -0.092 l -8.72852,-177.6328 0.24219,-0.1953 -0.0566,-0.07 0.15625,-0.2032 -0.37891,-0.291 -7.88281,-156.99223 -0.0176,-0.38281 0.0879,-0.0781 -0.0976,-0.11328 -6.39063,-137.16993 -5.58008,-128.1621 v -0.0918 L 614.4103,483.37522 c 1.28478,-10.40954 5.06188,-36.92476 11.70898,-50.11524 8.35551,-16.58066 15.50192,-19.58984 15.50196,-19.58984 l -16.06446,-0.23633 h 21.26563 v -28.83203 h -2.06836 v -15.32813 h -19.44141 v -6.92578 h 8.6875 v -27.12304 h -8.6875 v -5.58985 h 9.74219 v -23.99436 h -14.60561 v 2.85742 c -0.54327,-1.769 -1.11403,-3.54364 -1.74609,-5.28125 -6.19952,-15.61725 -10.44305,-26.91975 -27.81836,-41.72656 -3.94346,-3.02335 -8.43683,-5.11471 -12.16797,-6.50586 v -17.49804 h -4.54102 v -6.94727 h 4.54102 v -25.73242 h -4.54102 v -6.94727 h 4.54102 v -25.73242 h -4.54102 v -6.95508 h 4.54102 v -25.73242 h -4.54102 v -9.38672 h -3.16015 V 14.605469 h 11.86718 V 9.041015 h -1.3789 V 1.392578 h -1.73828 v 7.648437 h -8.75 V 0 h -0.29102 -4.92578 z m 8.66797,265.34765 c 3.19627,1.26163 8.11032,3.76925 12.60547,8.48047 7.41769,7.77424 14.69202,20.57356 17.66797,28.11328 2.70695,6.85819 6.48491,20.92502 7.17578,23.52149 h -39.50781 v -59.79492 h 2.05859 z m -11.85937,0.0137 v 0.30664 h 2.08984 v 59.79492 h -39.50781 c 0.69087,-2.59647 4.46883,-16.6633 7.17578,-23.52149 2.97594,-7.53972 10.25028,-20.33904 17.66797,-28.11328 4.48142,-4.69683 9.37711,-7.20137 12.57422,-8.46679 z m -39.66602,148.07226 h 1.36524 l -0.006,0.24609 h -1.35938 z m 89.87695,0 h 1.34571 v 50.01563 l -0.008,-0.28907 V 413.6797 h -1.33204 z m -83.10742,96.17578 h 33.41211 l -16.89843,20.9707 z m 44.24219,0 h 33.41406 l -16.51562,20.9707 z m 37.06836,3.48047 1.1875,43.99609 -18.12305,-22.49023 z m -84.91992,0.0625 16.88672,21.44336 -18.07227,22.42969 z m 40.18359,0.55273 v 42.34961 l -16.84961,-21.39648 z m 4.55469,0.0625 16.80078,20.89258 -16.80078,21.33399 z m -24.63672,24.91016 16.01758,20.33984 -32.5293,0.19727 z m 44.66797,0 16.51367,20.53711 -32.5293,-0.19727 z m -27.40625,26.28516 -18.10156,22.57617 -16.89453,-22.36523 z m 10.14648,0 34.9961,0.21094 -16.89453,22.36523 z m 38.9043,3.41211 1.25781,46.67773 -18.78515,-23.42773 z m -87.9082,0.0625 17.48047,23.18554 -18.73828,23.36914 z m 41.67773,1.14648 v 45.65235 l -17.77344,-23.5293 z m 4.55469,0.0625 17.72461,22.06055 -17.72461,23.46289 z m -25.60938,26.14649 17.81446,23.6289 -36.74219,-0.0723 z m 46.61524,0 18.92578,23.55664 -36.74023,0.0723 z m -65.49024,29.50976 37.99415,0.0742 -19.84376,23.56055 z m 84.36329,0 -18.12891,23.60938 -19.85547,-23.53516 z m 3.52539,3.68945 2.09375,48.07227 -20.41993,-24.20703 z m -91.36914,0.0566 18.30664,23.83789 -20.39649,24.21875 z m 43.41015,1.83203 V 677.2988 L 547.375,653.0527 Z m 4.55469,0.0586 18.57031,22.11328 -18.57031,24.17969 z m -26.49414,26.06836 18.42969,23.99805 h -38.58399 z m 48.38476,0 20.1543,23.99805 h -38.58594 z m -69.11523,29.94922 h 39.64258 l -20.71485,25.58398 z m 50.20508,0 h 39.64062 l -18.92773,25.58398 z m 43.11719,3.89258 2.26953,52.16796 -21.36719,-26.39062 z m -96.75391,0.0605 19.05273,25.7168 -21.3164,26.32812 z m 46.10156,0.29297 v 53.42774 l -20.6543,-27.91797 z m 4.55469,0.0605 20.60547,25.44922 -20.60547,27.85167 z m -28.51367,29.5332 19.99414,26.99024 h -41.8457 z m 52.42383,0 21.85351,26.99024 h -41.84961 z m -73.82813,32.94141 h 42.75391 l -22.26563,26.9082 z m 52.47461,0 h 42.75781 l -20.48828,26.9082 z m 46.44727,3.47851 2.59765,55.78711 -23.47461,-28.36718 z m -102.56446,0.0606 20.83008,27.35742 -23.42383,28.3086 z m 49.00586,1.2793 v 54.75976 l -21.72851,-28.53906 z m 4.55469,0.0586 21.67969,26.16406 -21.67969,28.47266 z m -29.58594,30.14844 21.21094,27.85742 -44.35742,0.0742 z m 54.56836,0 23.14453,27.93164 -44.35351,-0.0742 z m -32.89844,33.81055 -22.89648,26.82226 -21.59375,-26.75195 z m 11.22852,0 44.48828,0.0703 -21.5918,26.75195 z m 48.85742,2.66015 2.69141,57.72852 -25.33399,-29.67774 z m -108.90039,0.0566 22.59766,27.99414 -25.28125,29.61914 z m 52.17578,1.07032 v 55.56445 l -23.03711,-28.53906 z m 4.55469,0.0586 22.98828,26.9668 -22.98828,28.47851 z m -30.91016,30.85742 23.20703,28.75 -47.9707,0.30078 z m 57.21485,0 24.76562,29.05078 -47.9707,-0.30078 z m -34.50586,34.70703 -24.65235,29.54883 -22.82617,-29.25195 z m 11.79883,0 47.47851,0.29688 -22.82617,29.25195 z m 51.83984,2.90235 3.16016,63.02148 -27.02735,-32.39453 z m -115.43359,0.0605 23.82031,30.56641 -26.97656,32.33008 z m 55.4414,0.50977 v 62.3457 l -25.14062,-32.2207 z m 4.55469,0.0586 25.08984,30.06641 -25.08984,32.15625 z m -33.01758,34.04894 24.57813,31.54102 -51.27735,0.45117 z m 61.43164,0 26.69727,31.99219 -51.27539,-0.45117 z m -36.34179,37.48828 -26.73438,33.00977 -24.5,-32.5586 z m 11.25195,0 51.23242,0.45117 -24.5,32.5567 z m 55.87305,2.79492 3.54101,70.56255 -29.36133,-36.25 z m -122.95313,0.0586 25.77539,34.25395 -29.31055,36.1875 z m 59.20117,0.9707 v 69.19345 l -26.99219,-35.8692 z m 4.55469,0.0586 26.94336,33.26375 -26.94336,35.8047 z m -34.86523,37.36335 26.87304,35.709 -55.73437,-0.076 z m 65.12695,0 28.86133,35.6328 -55.73243,0.076 z m -93.64453,41.5859 55.35937,0.074 -28.49023,34.6211 z m 122.16211,0 -26.86914,34.6953 -28.48829,-34.6211 z m 4.54882,2.3594 3.6836,74.9922 -31.81836,-38.6641 z m -131.21289,0.061 28.08594,36.2676 -31.76562,38.6035 z m 63.33008,1.4336 v 72.1074 l -28.7832,-37.166 z m 4.55469,0.061 28.73437,34.8808 -28.73437,37.1036 z m -36.625,38.8711 29.40039,37.9609 -60.93164,0.3164 z m 68.64648,0 31.53125,38.2773 -60.92968,-0.3164 z m -41.72265,43.9257 -29.0586,36.4336 -26.96875,-36.1445 z m 14.83008,0 56.02343,0.2911 -26.96679,36.1425 z m 62.41992,1.5762 4,81.3906 -0.12305,0.1641 -33.43359,-41.9238 z m -139.6543,0.024 29.53906,39.6074 -33.43554,41.9219 -0.10352,-0.1407 z m 67.55078,1.4511 v 42.0293 l -1.30078,35.4532 -29.39258,-39.3926 z m 4.55469,0.023 30.67383,38.0664 -29.37305,39.3672 -1.30078,-35.4219 z m -39.07422,42.8144 28.05664,37.6172 -58.42773,0.07 z m 73.57422,0 30.36914,37.6875 -58.42578,-0.07 z m -44.61914,45.0586 -32.06055,38.002 -27.99804,-37.9297 z m 15.66406,0 60.05664,0.072 -27.99609,37.9297 z m -82.09765,1.4512 30.41601,41.2402 -36.00781,42.6797 5.5039,-83.8125 z m 148.53124,0 0.10547,0.1308 5.50391,83.8106 -36.02539,-42.7012 z m -78.39257,3.3359 -2.85547,77.8028 -29.38281,-39.8067 z m 8.27343,0.024 32.21875,37.9707 -29.36523,39.7837 z m -4.18359,8.9453 6.22266,168.8183 -6.43946,28.7305 -5.89648,-30.0918 z m -40.29492,33.7031 28.79687,39.0449 -62.05078,0.1446 z m 80.66601,0 33.25196,39.1895 -62.05078,-0.1446 z m -51.44336,46.483 -34.21289,38.0781 -29.27343,-37.9297 z m 22.21876,0 63.45703,0.1484 -29.25977,37.9121 z m 69.48632,1.875 6.0586,82.207 -37.26758,-41.4805 z m -161.17773,0.057 31.17969,40.6895 -37.23438,41.4414 z m 73.02148,2.4903 -2.89453,78.8339 -31.20508,-40.4336 z m 15.14063,0.021 34.06445,38.3614 -31.17578,40.3945 z m 38.13672,42.9473 33.06054,37.2305 h -61.58984 z m -91.44922,0.018 28.51367,37.2129 h -61.55859 z m -35.35156,44.6543 h 64.92968 l -34.16992,40.5722 z m 97.23828,0 h 64.90039 l -30.7461,40.5547 z m 70.96484,1.9531 0.26172,0.2949 6.01172,88.0684 h -1.17188 l -37.92382,-45.0313 z m -174.25586,0.02 32.82422,43.334 -37.91016,45.0137 h -1.15039 l 6.01172,-88.0899 z m 76.24219,1.2227 -3.05469,83.2109 -0.37109,1.6582 -32.43164,-42.7793 z m 21.80859,0.02 35.82227,42.0508 -32.69727,43.1309 z m -3.86718,16.7442 1.93359,52.4668 -6.38672,-32.5977 z m -14.1504,1.3652 3.69532,18.0488 -5.20118,23.2051 z m 57.84961,28.6504 34.38868,40.3672 -65.10743,0.1894 z m -101.50976,0.019 30.70508,40.5371 -65.07618,-0.1894 z m 50.26953,3.6094 7.56836,36.9648 -7.11914,0.022 -8.73438,-0.025 z m -87.57031,44.1699 55.27929,0.1621 v 0.1856 l 13.56836,-0.037 -37.02148,40.83 z m 176.1289,0 -31.82617,41.1406 -37.02344,-40.83 13.57032,0.037 v -0.1856 z m -88.10937,0.2559 7.85547,0.022 -8.06836,27.5839 -8.00586,-27.582 z m -93.41602,2.0859 33.28711,43.1387 -39.86523,43.9668 -1.08399,-1.4981 6.95117,-84.7734 z m 186.92188,0 0.73047,0.8574 6.94726,84.7285 -1.09961,1.5196 -39.86523,-43.9668 z m -108.14844,1.8906 -4.60156,84.666 -33.25782,-42.9863 z m 29.39453,0.02 37.83985,41.6582 -33.24024,42.9668 z m -4.0918,7.1152 3.60547,66.3809 -11.56054,-39.836 z m -21.30859,1.7871 7.52148,24.668 -10.88085,37.1933 z m 10.47656,34.3574 13.29688,43.6133 h -26.36914 z m 56.70899,2.7403 37.12695,40.873 h -68.66797 z m -112.98242,0 31.53711,40.8711 h -68.66211 z m -36.95313,48.3125 h 68.36133 l -38.77735,40.8946 z m 80.89844,0 h 24.51367 l -12.54883,30.0176 z m 37.6289,0 h 68.35938 l -29.58203,40.8926 z m 75.41602,0.1348 1.90625,2.0996 9.26367,89.0762 -43.71094,-46.0977 z m -200.99805,0 32.54102,45.0782 -43.69336,46.0781 9.26562,-89.0781 z m 80.49805,3.2715 -2.35742,43.3692 v 0.092 l -4.24805,44.4824 -0.43359,0.4394 -33.17578,-45.8593 z m 40.01953,0.02 40.19531,42.5039 -33.17578,45.8593 -0.41211,-0.4179 -4.25,-44.4961 v -0.094 z m -4.30859,3.1718 2.20312,40.5528 v 0.092 l 3.6543,38.3398 -18.85742,-47.3086 z m -31.47656,1.3535 11.91992,29.8789 -17.03711,40.7559 2.98828,-31.3437 v -0.092 z m 15.24218,38.2051 18.57813,46.5684 h -37.68946 z m -63.78906,4.1055 30.65234,42.4629 h -70.80664 z m 128.625,0 40.1582,42.4629 h -70.81054 z m -172.38867,49.9043 h 72.77539 l -40.64453,41.2051 z m 87.42383,0 h 40.60351 l -19.82226,33.5371 z m 55.95312,0 h 72.7461 l -32.11719,41.1875 z m -62.85547,1.125 -8.61719,90.2012 -0.40234,0.3691 -35.4668,-45.4824 z m 55.13086,0.02 44.44922,45.0508 -35.4668,45.4824 -0.36914,-0.3379 z m 85.63086,1.8301 12.26172,88.4355 -45.34961,-45.9746 z m -226.40234,0.053 33.05859,42.4258 -45.31055,45.9375 z m 136.61719,1.8321 7.46679,78.3183 -27.41797,-44.2461 z m -46.98829,1.7187 20.26758,32.7578 -27.88867,47.1817 z m 23.625,38.1817 29.6211,47.875 h -57.6543 z m 76.15821,5.6835 41.6289,42.1915 h -74.5039 z m -152.45118,0.018 32.86329,42.1739 h -74.47266 z m -45.02148,49.6153 h 75.51367 l -43.09375,39.3886 z m 92.05469,0 h 58.37305 l -29.1875,32.7187 z m 74.94726,0 h 75.51172 l -32.41992,39.3867 z m -82.9707,0.539 -11.93945,73.7774 h -10.92383 l -24.9043,-30.2559 z m 74.46875,0.014 47.75,43.5059 -24.90625,30.2578 h -10.90625 z m 89.82031,2.0098 10.70313,71.7539 h -10.71289 l -33.75391,-30.8516 z m -254.11133,0.019 33.74805,40.8848 -33.75195,30.8496 h -10.69922 z m 160.41602,1.6426 11.25,70.0918 h -7.52734 l -33.11133,-37.1192 z m -66.72852,0.047 29.34961,32.9258 -33.11132,37.1192 h -7.47852 z m 33.34376,37.4082 29.08984,32.6368 h -58.17969 z m 89.4707,6.4434 28.75,26.1934 h -50.37305 z m -178.9082,0 21.62109,26.1914 H 450.0625 Z m -45.79493,41.7246 h 80.23828 l 0.0937,0.1152 -80.64257,0.168 z m 92.29688,0 h 85.87109 l 0.0781,0.09 -40.8086,-0.086 h -4.37304 -0.004 l -40.8418,0.086 z m 97.96094,0 h 80.24414 l 0.3125,0.2832 -80.65039,-0.17 z m -106.125,55.4355 h 41.67187 l -22.14648,21.7442 z m 60.52539,0 h 41.65429 l -19.58593,21.668 z m -157.60938,2.3067 29.4375,0.031 -19.01172,20.2754 z m 296.35742,0 -10.46289,20.2519 -18.96289,-20.2207 z m -250.07422,0.047 34.33594,0.035 -20.51953,21.4062 z m 203.80079,0 -13.81446,21.4395 -20.51953,-21.4043 z m -105.59571,1.9961 0.006,48.4414 -23.03906,-25.6523 z m 60.61914,0.3301 6.71875,48.5508 -26.67968,-26.1934 z m -113.7832,0.07 19.89648,22.2852 -26.59179,26.1093 z m 60.91211,0.1485 22.52539,22.2089 -22.52539,24.92 z m 149.62305,2.9863 10.3789,42.7695 -20.92773,-22.3183 z m -307.31446,0.066 10.51563,20.3848 -20.85742,22.2421 z m 260.66992,0.1113 7.54102,43.3594 -21.21875,-22.1348 z m -214.0371,0.035 13.65429,21.1894 -21.18359,22.0957 z m -7.08399,0.2363 -8.33203,44.1504 -11.71094,-22.8125 z m 228.21875,0.039 19.94141,21.2304 -11.67188,22.5938 z m -177.53906,0.4257 -6.11133,43.8028 -14.42383,-22.3828 z m 126.88281,0.064 20.47461,21.3555 -14.38086,22.3144 z m -95.58789,23.6035 23.7207,26.5703 h -50.57812 z m 64.18359,0.055 26.89258,26.5156 h -50.56445 z m -171.56054,2.8555 12.20508,23.6601 h -34.42774 z m 278.98633,0 22.22265,23.6582 h -34.42773 z m -228.70508,0.334 15.02929,23.3242 h -37.39257 z m 178.42383,0 22.36132,23.3242 h -37.39062 z m -256.74805,29.2754 h 6.43359 l -3.55273,3.5527 -3.01367,-3.0136 z m 10.06055,0 h 0.0508 l 5.31445,5.3301 -5.38281,5.3847 -5.34766,-5.3496 z m 3.58398,0 h 7.11328 l -3.5625,3.5605 z m 10.66016,0 h 0.0508 l 5.34765,5.3477 -5.38281,5.3632 -5.3457,-5.3632 z m 3.58203,0 h 7.18164 l -3.59766,3.584 z m 10.72656,0 h 0.0508 l 5.31445,5.3301 -5.38085,5.3808 -5.34766,-5.3476 z m 3.58789,0 h 7.10938 l -3.5625,3.5605 z m 10.65625,0 h 0.0508 l 5.34766,5.3477 -5.38086,5.3632 -5.34766,-5.3652 z m 3.66602,0 h 7.09765 l -3.56054,3.5488 z m 10.65625,0 h 0.0391 l 5.31445,5.332 -5.35742,5.3574 -5.32422,-5.3417 z m 3.58593,0 h 7.09961 l -3.55078,3.5488 z m 10.72461,0 h 0.0508 l 5.3125,5.3301 -5.3789,5.3789 -5.34571,-5.3477 z m 3.58399,0 h 7.10937 l -3.56054,3.5605 z m 10.65625,0 h 0.0547 l 0.5,0.5 -1.32813,9.416 -4.55273,-4.5703 z m 6.58008,0 h 4.18554 l -3.59375,3.582 -0.95117,-0.9511 z m 7.73046,0 h 0.0547 l 5.3125,5.3301 -5.3789,5.3789 -5.34961,-5.3477 z m 3.58985,0 h 7.10937 l -3.5625,3.5605 z m 10.65234,0 h 0.0547 l 5.3457,5.3457 -5.38086,5.3633 -5.3457,-5.3633 z m 3.67188,0 h 7.09375 l -3.5586,3.5469 z m 10.65234,0 h 0.043 l 5.31055,5.3301 -5.35547,5.3574 -5.32422,-5.3418 z m 3.58789,0 h 7.09766 l -3.54883,3.5488 z m 10.72266,0 h 0.0664 l 5.31446,5.3144 -5.39453,5.3946 -5.34766,-5.3477 z m 3.58984,0 h 7.10547 l -3.55859,3.5586 z m 10.65235,0 h 0.0547 l 5.34571,5.3457 -5.38086,5.3633 -5.34571,-5.3633 z m 3.58789,0 h 7.17773 l -3.59375,3.582 z m 10.72265,0 h 0.0547 l 5.3125,5.3301 -5.37891,5.3789 -5.34961,-5.3477 z m 3.58985,0 h 7.10937 l -3.5625,3.5605 z m 10.64062,0 h 0.0664 l 5.3457,5.3457 -5.38086,5.3633 -5.36133,-5.3789 z m 3.68164,0 h 7.0957 l -3.56054,3.5488 z m 10.6543,0 h 0.043 l 5.31054,5.3301 -5.35742,5.3574 -5.32226,-5.3418 z m 3.58789,0 h 7.0957 l -3.54687,3.5469 z m 10.72266,0 h 0.0547 l 5.31055,5.3301 -5.37695,5.3789 -5.34766,-5.3477 z m 3.58984,0 h 4.86133 l 0.26953,1.9746 -1.58399,1.584 z m 14.24023,0 h 7.17774 l -3.59571,3.582 z m 10.72266,0 h 0.0547 l 5.3125,5.3281 -5.38086,5.3809 -5.34766,-5.3477 z m 3.50781,0 h 7.1875 l -3.59375,3.5937 z m 10.73242,0 h 0.0586 l 5.34375,5.3457 -5.4043,5.3848 -5.35351,-5.3535 z m 3.67383,0 h 7.09375 l -3.56054,3.5469 z m 10.65039,0 h 0.043 l 5.3125,5.3281 -5.35742,5.3574 -5.32422,-5.3418 z m 3.5918,0 h 7.0918 l -3.54688,3.5469 z m 10.71875,0 h 0.0586 l 5.31055,5.3301 -5.38086,5.3789 -5.34766,-5.3496 z m 3.5918,0 h 7.10742 l -3.56055,3.5605 z m 10.64062,0 h 0.0664 l 5.3457,5.3457 -5.38086,5.3633 -5.36133,-5.3789 z m 3.60156,0 h 7.17383 l -3.59375,3.582 z m 10.72071,0 h 0.0547 l 5.3086,5.334 -5.375,5.375 -5.34961,-5.3477 z m 3.58398,0 h 7.11328 l -3.5664,3.5664 z m -89.14453,0.125 5.2207,5.2207 -3.93164,3.9199 z m 97.02344,2.6523 1.6875,6.8438 -4.24805,-4.2734 z m -336.62696,0.6036 1.93946,1.9472 -3.21289,3.2129 z m 234.33008,1.7304 0.0742,0.543 -0.30664,-0.3086 z m -73.41211,1.9883 5.34961,5.3496 -5.40234,5.3867 -5.33203,-5.332 z m 28.51758,0 5.35938,5.377 -5.37696,5.3574 -5.35742,-5.3574 z m 114.30664,0 5.35742,5.375 -5.37695,5.3594 -5.35742,-5.3574 z m -42.85937,0.018 5.33984,5.3574 -5.37695,5.3594 -5.33008,-5.3301 z m 71.41992,0 5.35937,5.3828 -5.37695,5.3418 -5.3418,-5.3418 z m -314.26172,0 5.3418,5.3594 -5.38086,5.3613 -5.33008,-5.33 z m 28.55273,0 5.3418,5.3594 -5.37695,5.3594 -5.33203,-5.332 z m 42.87696,0 5.33984,5.3575 -5.375,5.3593 -5.33203,-5.332 z m 28.55468,0 5.3379,5.3575 -5.375,5.3593 -5.33008,-5.332 z m 114.30469,0 2.63672,2.6446 0.64844,4.7597 -3.32227,3.3106 -5.33008,-5.3301 z m 14.27735,0.01 5.34765,5.3476 -5.38476,5.3848 -5.20117,-5.2168 -0.0352,-0.2422 z m 71.42968,0 5.34766,5.3496 -5.38477,5.3828 -5.33984,-5.3555 z m -285.71875,0 5.34766,5.3496 -5.38477,5.3848 -5.33789,-5.3574 z m 71.42969,0 5.34766,5.3477 -5.38477,5.3847 -2.64258,-2.6523 0.85352,-6.2539 z m 71.42969,0 5.34765,5.3477 -5.38476,5.3847 -5.33789,-5.3574 z m -171.42774,0.016 5.33594,5.3594 -5.37109,5.3731 -5.34766,-5.3497 z m 285.71485,0 5.33984,5.3594 -5.35742,5.3555 -5.33984,-5.3574 z m -157.14649,0 5.33008,5.3301 -5.38281,5.3847 -5.3125,-5.3301 z m 14.28711,0 5.33789,5.3574 -5.35547,5.3574 -5.33984,-5.3574 z m 57.14258,0 5.33008,5.3301 -5.38477,5.3847 -5.31054,-5.3301 z m 14.28711,0 5.33984,5.3574 -5.35742,5.3574 -5.33984,-5.3574 z m 57.14258,0 5.33008,5.3281 -5.39649,5.3945 -5.31836,-5.3183 z m -214.28711,0 5.33008,5.3301 -5.38477,5.3828 -5.3125,-5.3281 z m 14.28516,0 5.33789,5.3555 -5.35547,5.3574 -5.33985,-5.3554 z m 92.88671,7.0957 5.34766,5.3477 -1.52148,1.5215 h -7.7461 l -1.47461,-1.4746 z m 14.23047,0 5.35547,5.3555 -1.51953,1.5137 h -7.74609 l -1.47657,-1.4824 z m 142.88672,0.027 5.33203,5.332 -1.51953,1.5098 h -7.75195 l -1.4375,-1.4434 z m -71.42773,0 5.32422,5.3243 -1.52149,1.5156 h -7.74219 l -1.43945,-1.4434 z m 42.8164,0 5.34571,5.3633 -1.48242,1.4766 h -7.74415 l -1.47656,-1.4824 z m 14.32227,0 5.33984,5.3575 -1.48242,1.4824 h -7.74414 l -1.47656,-1.4766 z m -285.7168,0 5.33789,5.3574 -1.48047,1.4805 h -7.75586 l -1.4707,-1.4707 z m 14.28906,0 5.32618,5.3262 -1.51758,1.5117 h -7.75 l -1.4375,-1.4414 z m 71.42969,0 5.32422,5.3242 -1.51953,1.5137 h -7.74414 l -1.4375,-1.4414 z m 171.42774,0.014 5.34961,5.3496 -1.47461,1.4746 h -7.83985 l -1.42968,-1.4297 z m 57.125,0 0.0293,0.029 1.67578,6.7949 h -5.59374 l -1.44532,-1.4453 z m -271.41211,0 5.34765,5.3477 -1.47461,1.4746 h -7.83007 l -1.42969,-1.4356 z m 71.42968,0 5.34766,5.3477 -1.47461,1.4746 h -7.83008 l -1.42968,-1.4356 z m 71.42969,0 5.34766,5.3477 -1.47461,1.4746 h -7.83008 l -1.42969,-1.4356 z m 57.15235,0.012 5.30859,5.3262 -1.48437,1.4844 h -7.74415 l -1.43554,-1.4356 z m -185.73633,0 5.3164,5.334 -1.47851,1.4746 h -7.74805 l -1.4375,-1.4414 z m 42.87695,0 5.3086,5.3281 -1.48047,1.4805 h -7.74805 l -1.43555,-1.4356 z m 28.55274,0 5.3164,5.334 -1.47851,1.4746 h -7.74805 l -1.4375,-1.4414 z m 42.87695,0 5.30859,5.3262 -1.48242,1.4824 h -7.74609 l -1.43555,-1.4356 z m 28.55469,0 5.31445,5.332 -1.48242,1.4766 h -7.74414 l -1.4375,-1.4414 z m -214.28907,0 5.31446,5.336 -1.47657,1.4707 h -7.76562 l -1.43164,-1.4317 z m 42.875,0 5.3086,5.3262 -1.48047,1.4805 h -7.75 l -1.4336,-1.4336 z m -56.58789,0.5567 4.78125,4.7793 -1.4707,1.4707 h -4.85352 z m 97.77539,1.0683 -0.73047,5.1817 h -1.5 l -1.4746,-1.4746 z m 147.00782,0.8399 2.84765,2.8594 -1.48242,1.4824 h -0.75391 z m -5.9043,0.916 0.46875,3.4258 h -0.94141 l -1.47656,-1.4766 z m -135.4043,0.6406 1.29883,1.3028 -1.48242,1.4824 h -0.19727 z m -98.86133,8.7383 h 41.72266 l -7.75,36.5449 z m 49.3125,0 h 35.91407 l -42.8418,32.668 z m 198.63868,0 h 35.94336 l 6.93359,32.6934 z m 43.5332,0 h 41.69336 l -33.94922,36.5176 z m -193.82813,0 H 637.2461 l 14.9746,94.9589 18.13672,106.961 19.06641,105.0058 v 0.1836 l 0.0918,0.092 8.18945,28.5625 H 438.85547 l 8.18945,-28.5625 0.0937,-0.092 v -0.1836 l 19.06641,-105.0058 18.13672,-106.961 z m 245.2793,8.1543 20.28711,79.5996 h -0.18359 L 709.625,2093.2143 Z m -352.66406,0.031 34.93945,37.5762 -55.07226,41.9922 h -0.14844 z m 99.14258,5.6895 -11.07032,70.3964 -34.05859,-36.6347 z m 154.39062,0.031 45.08594,33.7305 -34.02344,36.5996 z m 52.46289,44.4375 6.23633,29.4102 h -33.58203 z m -259.33398,0.025 27.32226,29.3848 h -33.55273 z m -7.70313,0.5293 -6.11914,28.8555 h -32.44922 z m 274.75,0.027 38.53516,28.8282 h -32.41992 z m -325.40039,42.8829 41.39258,0.1738 -8.20117,35.9336 z m 376.01758,0 -33.16797,36.082 -8.19531,-35.9082 z m -326.99414,0.2282 34.31055,0.1446 -41.71094,32.3125 z m 278,0 7.40625,32.4844 -41.74609,-32.3398 z m 62.37109,4.7129 21.54883,87.0469 -59.3418,-45.9707 z m -402.74414,0.031 37.76563,41.0449 -59.29492,45.9336 z m 109.32032,0.58 -14.16602,83.4668 -38.51367,-41.9003 52.10156,-39.0118 z m 184.22656,0.6661 0.42773,1.8886 52.10156,39.0118 -38.48242,41.8652 z m 60.07422,52.1132 7.92187,34.7344 -39.73242,-0.1582 z m -304.50196,0.025 31.78711,34.5508 -39.70312,0.1582 z m -7.68359,0.1465 -7.89453,34.5938 -38.51172,0.1523 z m 319.88086,0.027 46.36719,34.7187 -38.47852,-0.1523 z m -370.78906,48.791 h 39.55273 l -8.57812,33.2187 z m 47.17578,0 h 39.23828 l -47.75586,33.0722 z m 288.0664,0 h 39.27344 l 8.52539,33.0996 z m 46.89649,0 h 39.52148 l -30.94922,33.1953 z m 56.20312,1.5176 12.04883,42.1679 0.0918,0.092 v 0.094 l 16.39258,46.3808 h -1.31055 l -67.08594,-46.457 z m -454.99414,0.031 39.83399,42.2422 -67.08594,46.457 h -1.27344 l 16.39258,-46.3789 v -0.092 l 0.0937,-0.094 z m 116.70508,6.0254 -14.57812,80.4648 -2.17969,1.295 -40.20313,-43.1172 z m 221.59766,0.029 56.91797,38.6133 -40.20313,43.1191 -2.13867,-1.2715 z m 66.86523,46.7519 9.18164,35.6504 -42.65625,-0.1523 z m -355.3457,0.025 33.45117,35.4727 -42.62695,0.1523 z m -8.83984,4.5645 -8.02735,31.0879 -38,0.1367 z m 373.0371,0.021 45.99219,31.2031 -37.9707,-0.1367 z m -427.32226,45.291 h 42.21094 l -6.77344,22.3984 h -10.9668 z m 49.96484,0 h 38.1836 l -37.67578,22.3984 h -7.26758 z m 343.45508,0 h 38.2168 l 6.75976,22.3984 h -7.30078 z m 45.9707,0 h 42.20899 l -24.47071,22.3984 H 773.625 Z m 62.47657,0.2422 7.83007,22.1562 h -31.95507 z m -522.12696,0 24.11914,22.1523 H 299.3711 Z m 130.77735,3.7539 -5.27149,18.3984 h -25.76758 z m 260.58203,0.025 30.99609,18.373 h -25.73242 z m -449.51563,26.0937 h 41.26758 l -16.66211,47.0723 h -24.60547 z m 47.59766,0 h 14.11133 v 32.2168 l -24.98828,14.8555 h -5.75977 z m 16.27148,0 h 5.9961 v 27.3672 l -5.9961,3.5664 z m 8.15625,0 h 18.6543 l 9.91016,9.1016 -28.56446,16.9824 z m 39.29688,0 h 0.19726 l -0.043,0.1407 z m 33.54492,0 h 36.58203 l -13.48633,47.0723 h -5.21484 l -18.69727,-17.1152 v -29.4727 z m 42.72852,0 h 18.16406 v 47.0723 h -31.66211 z m 20.32421,0 h 5.99415 v 47.0723 h -5.99415 z m 8.1543,0 h 61.71094 v 47.0723 h -61.71094 z m 63.8711,0 h 5.99414 v 47.0723 h -5.99414 z m 8.15429,0 h 62.20313 v 47.0723 h -62.20313 z m 64.36328,0 h 5.9961 v 47.0723 h -5.9961 z m 8.15625,0 h 61.70899 v 47.0723 h -61.70899 z m 63.86914,0 h 5.9961 v 47.0723 h -5.9961 z m 8.15625,0 h 18.23047 l 13.49805,47.0723 h -31.72852 z m 24.34571,0 h 36.54687 l 0.81641,0.4844 v 29.5 l -18.66797,17.0879 h -5.20898 z m 69.92383,0 h 0.19726 l -0.1543,0.1407 z m 20.83789,0 h 18.62695 v 26.086 L 786.875,2400.0655 Z m 20.78711,0 h 5.99414 v 30.9336 l -5.99414,-3.5644 z m 8.15429,0 h 14.15039 l 16.63672,47.0723 h -5.79883 l -24.98828,-14.8555 z m 20.51172,0 h 41.19922 v 47.0723 h -24.53711 z m -455.31445,1.7637 v 26.2168 l -5.9961,-5.4883 v -17.1738 z m 354.62305,0 5.99414,3.5527 v 17.2051 l -5.99414,5.4863 z m 8.15429,4.834 9.24805,5.4805 -9.24805,8.4648 z m -370.93359,0 v 13.9161 l -9.22656,-8.4473 z m -20.6543,13.9747 20.6543,18.9707 v 7.5273 h -28.65039 z m 412.27344,0 7.99609,26.498 h -28.68164 v -7.498 z m -421.11719,3.5097 -6.95117,22.9883 h -25.25977 v -3.8965 z m 429.9668,0.019 32.17578,19.0723 v 3.8965 h -25.23047 z m -398.3086,17.4258 5.9961,5.5078 v 0.035 h -5.9961 z m 366.61329,0.027 v 5.5156 h -5.99414 v -0.01 z m -432.64258,2.8984 v 2.6172 h -4.41406 z m 498.67383,0 4.41406,2.6172 h -4.41406 z m -249.33789,22.3203 h 0.082 l -0.082,8.5742 z m -321.44336,50.3281 h 1.63281 l -0.52539,1.0762 z m 147.85937,0 h 24.92383 l -13.17188,13.2579 -11.39453,-11.4688 z m 33.58203,0 h 28.14649 l -14.04493,13.9727 z m 35.9961,0 h 28.59765 l -14.3164,14.1504 z m 36.08398,0 h 28.59766 l -14.33594,14.1504 z m 36.25781,0 h 28.19141 l 0.008,1.2071 -13.68945,13.3027 z m 35.16211,0 h 28.19727 l -14.52539,14.5254 -13.67969,-13.291 z m 35.82813,0 h 28.62695 l -14.27539,14.1661 z m 36.08203,0 h 28.6289 l -14.29687,14.1661 z m 36.44726,0 h 28.17774 l -14.11719,13.9883 z m 36.80664,0 h 24.92188 l -0.36328,1.8262 -11.3711,11.4473 z m -290.57031,4.4063 12.83594,12.7207 -12.54102,12.4766 z m 283.8418,0.01 -0.29688,25.2168 -12.55078,-12.4864 z m -247.41211,0.3378 12.60742,12.5098 -12.47656,12.332 z m 210.98242,0.01 -0.1289,24.8633 -12.49024,-12.3438 z m -174.90234,0.08 12.55468,12.457 -12.45703,12.2969 z m 138.82226,0.01 -0.0976,24.7715 -12.4668,-12.3047 z m -36.41992,0.096 0.0312,25.0079 -12.68359,-12.3262 z m -65.95703,0.018 12.61523,12.6485 -12.64843,12.291 z m -114.89648,0.5742 0.25976,22.0645 -11.08984,-11.1641 z m 295.72461,0.021 10.82226,10.8946 -11.08203,11.1543 z m -446.64649,0.3125 h 0.9082 l -0.49609,0.4961 z m 13.06641,0 h 0.93945 l 11.58594,11.4375 -8.83203,8.7617 -3.56836,-4.3007 z m 7.30468,0 h 16.74805 l -8.35351,8.2871 z m 23.09571,0 h 0.0684 l 0.0156,12.8203 -3.38086,6.7227 -8.2207,-8.1152 z m 6.01953,0 h 0.51367 l -0.51172,1.0176 z m 9.61719,0 h 14.09179 l -8.36328,8.2871 -6.61133,-6.5351 z m 20.35742,0 h 0.16992 l 0.0176,14.0196 -5.82813,3.1523 -5.84375,-5.7754 z m 6.12109,0 h 0.9336 l 6.71093,6.6758 -7.6289,4.127 z m 7.27344,0 h 12.71289 l -8.23437,4.4551 z m 399.12109,0 h 12.74219 l -4.48828,4.4649 z m 19.08203,0 h 0.95118 l -0.0156,10.8301 -7.65625,-4.1426 z m 6.90235,0 h 0.12305 l 11.49804,11.4102 -5.83984,5.7734 -5.79883,-3.1367 z m 6.38867,0 h 14.12109 l 0.88282,1.752 -6.62696,6.5508 z m 23.22461,0 h 0.50781 l -0.002,1.0059 z m 6.45898,0 h 0.043 l 11.53321,11.4434 -8.20508,8.0996 -3.38672,-6.7344 z m 6.39063,0 h 16.7793 l -8.41016,8.3028 z m 23.14453,0 h 0.93359 l -0.125,15.9063 -3.57617,4.3105 -8.83398,-8.7656 z m 13.06836,0 h 0.9375 l -0.42578,0.5117 z m -336.77149,0.01 -0.0293,22.8887 -11.54883,-11.459 z m -72.51953,0.01 0.11719,22.5527 -11.41601,-11.3125 z m -180.23047,0.021 0.0684,8.6172 -3.93554,-4.7422 z m 403.10743,0 11.28906,11.2305 -11.4082,11.3047 z m -72.49414,0.012 11.54492,11.3985 -11.51563,11.4257 z m 252.72461,0.01 3.85937,3.8692 -3.92773,4.7324 z m -367.0254,0.2989 0.0879,22.2656 -11.29297,-11.1914 z m 150.7129,0.025 11.19531,11.0645 -11.28321,11.1797 z m -78.79493,1.1524 0.13868,20.9746 -10.70508,-10.7051 z m 6.87696,0.029 10.55468,10.2578 -10.6914,10.6914 z m -175.09766,2.293 6.66211,6.705 -12.50781,12.5899 -0.13477,-14.8242 6.20899,-3.3282 z m 343.28711,0.037 -0.2207,1.1054 6.22656,3.3379 0.0293,0.061 -0.13477,14.8008 -12.54101,-12.6211 z m -414.30859,2.0507 5.55273,5.4864 -12.13867,12.0273 -0.006,-4.4375 z m 485.36718,0 6.58594,13.0645 -0.006,4.4746 -12.14648,-12.0371 z m -558.37304,0.029 6,5.8321 -11.52539,11.5254 v -5.7578 h -0.13477 z m 631.39062,0.084 5.61914,11.5157 h -0.14258 v 5.75 l -11.46093,-11.461 z m -477.54883,7.6778 14.31836,14.4101 0.0176,1.4434 -14.33594,14.2617 -15.04687,-14.9688 z m 323.67969,0.014 15.04883,15.1465 -15.04883,14.9707 -14.32617,-14.2519 0.0176,-1.4629 z m -287.74219,0.6582 14.61914,14.4864 0.004,0.6855 -14.38672,14.2188 -14.80469,-14.9004 z m 251.80469,0.016 14.56836,14.4921 -14.80469,14.9004 -14.3789,-14.2128 0.004,-0.7012 z m -359.87891,0.1171 4.90626,4.8516 -19.17969,10.375 -0.53711,-0.5312 z m 144.27344,0 14.46485,14.3516 0.002,0.6797 -14.53125,14.3457 -14.81055,-14.6758 z m 323.68164,0.014 14.8086,14.6933 -0.53321,0.5274 -19.17968,-10.375 z m -144.27539,0 14.875,14.7012 -14.80859,14.6758 -14.52149,-14.336 0.002,-0.7011 z m -359.70898,0.016 9.28515,9.164 -6.92773,13.7754 -11.50391,-13.8633 z m 216.33008,0 14.72265,14.6074 v 0.6367 l -14.66601,14.252 -14.93946,-14.8047 z m 107.35351,0.014 14.88281,14.6914 -14.9414,14.8066 -14.63281,-14.2187 v -0.7012 z m 216.32617,0 9.15039,9.0781 -11.48828,13.8457 -6.92968,-13.7754 z m -576.49804,0.3125 3.67187,3.5703 10.1836,12.2617 -7.74414,7.6836 h -10.81836 l -9.48438,-9.2891 z m 289.30664,0 13.93359,13.9668 0.004,0.5097 -14.67383,14.3711 -14.32227,-14.2109 z m 34.37304,0.018 15.0586,14.6347 -14.32227,14.211 -14.66211,-14.3594 0.004,-0.5313 z m 289.34961,0.039 14.15039,14.1856 -9.46875,9.2734 h -10.84765 l -7.72852,-7.668 9.87305,-11.8886 z m -501.22851,2.5156 1.75976,1.752 -9.42968,19.1914 h -1.09375 l -9.28907,-9.1797 4.58594,-4.5449 z m 389.39258,0.012 13.44531,7.207 4.60156,4.5605 -9.27148,9.1641 h -1.125 l -9.41992,-19.1719 z m -378.17774,2.7129 0.0195,2.1445 -0.7207,-0.7168 z m 366.99219,0.098 0.66211,1.3496 -0.68164,0.6778 z m -369.77539,5.5684 2.85937,2.8437 0.004,0.3809 -8.79883,8.8554 z m 372.51953,0.017 5.92578,12.0625 -8.75195,-8.8085 0.004,-0.4473 z m 140.88086,3.5997 4.35937,8.9355 h -4.35937 z m -654.29688,0.012 v 8.9238 h -4.35351 z m 549.14063,2.6152 11.76367,6.3086 h -5.39844 z m -443.98242,0.01 -6.35938,6.3027 h -5.39843 z m 80.5039,2.0957 12.65039,12.7324 -12.35742,12.2129 z m 283.00196,0.01 -0.29493,24.9649 -12.36523,-12.2227 z m 35.92383,0.4492 -0.22266,24.4883 -12.19727,-12.1328 z m -354.82422,0.022 12.38281,12.3184 -12.16016,12.0977 z m 108.13086,0.1348 12.44921,12.3535 -12.35546,12.0078 z m -36.03516,0 12.34766,12.2363 -12.22071,12.0644 z m 174.57422,0 -0.0957,24.3848 -12.36719,-12.0196 z m 36.0332,0 -0.12695,24.3164 -12.23047,-12.0703 z m -426.51562,0.1211 3.55859,3.4668 h -3.55859 z m 642.39257,0.035 v 3.4316 h -3.52148 z m -288.14453,0.08 0.0312,23.5372 -11.95312,-11.7071 z m -66.04882,0.016 11.88867,11.7968 -11.91993,11.6758 z m 246.1914,0.027 -0.004,3.3086 h -3.34376 z m -426.33203,0.018 3.33008,3.291 h -3.32617 z m 29.80664,0.25 0.21094,23.1308 -11.70313,-11.5644 z m 366.7168,0.047 11.45898,11.5332 -11.66992,11.5332 z m -402.47852,0.1152 0.004,2.8789 h -2.9082 z m 438.24024,0.047 2.85742,2.832 h -2.86133 z m -222.34571,0.082 0.14844,22.8301 -11.68164,-11.5918 z m 6.42774,0.027 11.52344,11.2266 -11.67188,11.5801 z m -294.60352,0.094 0.0215,2.6289 h -2.67188 z m 582.7793,0.023 2.625,2.6055 h -2.64453 z m -438.82617,0.012 0.26562,22.6269 -11.5039,-11.4453 z m 36.18554,0.01 0.11914,22.5977 -11.38867,-11.461 z m 36.03321,0 0.0898,22.5977 -11.46875,-11.3653 z m 222.65429,0.018 11.22852,11.1699 -11.49414,11.4356 z m -72.21875,0.01 11.3711,11.2246 -11.45899,11.3554 z m 36.03125,0 11.25977,11.1289 -11.37695,11.4512 z m -150.21679,0.207 -0.0293,22.5 -11.44727,-11.3457 z m 77.95898,0.051 11.44336,11.1211 -11.41406,11.3125 z m -56.94336,13.9102 12.8418,12.7402 c -4.28494,0.1398 -10.29238,0.3555 -17.52539,0.7363 l -2.64453,0.02 -6.51563,-0.01 z m 35.89453,0.016 13.82813,13.4746 -6.51367,0.01 -2.01368,-0.016 c -7.8064,-0.4236 -14.59371,-0.6559 -18.09375,-0.7714 z m -215.93164,0.072 13.38086,13.2265 -20.05859,-0.023 6.29883,-12.8223 z m 72.28907,0 13.22265,13.3086 -26.65625,-0.031 z m 251.38867,0.016 13.41992,13.2637 -26.625,0.029 z m 72.29297,0 0.36328,0.3652 6.29882,12.8223 -20.02929,0.023 z m -359.82813,0.029 13.29297,13.2226 -26.55274,-0.031 z m 323.68164,0.016 13.24414,13.1758 -26.51953,0.031 z m -251.61523,0.033 13.3789,13.2559 -26.77539,-0.031 z m 179.55078,0.014 13.38476,13.2129 -26.74804,0.029 z m -143.41211,0.1055 13.28125,13.1777 -26.8086,-0.031 z m 107.27148,0.016 13.51367,13.1328 -26.77734,0.029 z m -392.15429,2.4336 v 0.5234 h 11.36132 v 9.8789 l -16.42773,-0.019 z m 677.05468,0.061 5.03711,10.3223 -16.43359,0.019 v -9.8789 h 11.39648 z m -659.74218,0.4629 h 5.82422 l -5.82422,5.7793 z m 12.17382,0 h 6.65821 l 3.79297,3.6953 -11.46875,6.2032 -8.94727,-0.012 z m 13.02735,0 h 4.2539 l -2.74023,1.4824 z m 46.7832,0 h 5.84375 l -5.83594,5.7832 z m 12.19727,0 h 6.25195 l 10.12695,9.9981 -25.63281,-0.027 -0.36523,-0.4394 z m 12.61718,0 h 5.32813 l 0.008,5.2676 z m 11.28125,0 h 3.45313 l -2.17383,4.4238 -1.27148,1.2793 z m 422.78907,0 h 3.49804 l -0.008,5.75 -1.31641,-1.3242 z m 9.45117,0 h 5.3125 l -5.32031,5.252 z m 11.67773,0 h 6.22071 l 9.63476,9.5469 -0.35156,0.4238 -25.63281,0.029 z m 12.57422,0 h 5.86719 l -0.008,5.8067 z m 48.375,0 h 4.28125 l -1.52344,1.4922 z m 10.64844,0 h 6.63086 l 9.96484,9.8867 -8.94726,0.012 -11.45118,-6.1934 z m 12.98047,0 h 5.8164 v 5.7715 z m -584.69531,5.5059 3.68945,4.4414 -5.92578,-0.01 z m 538.66796,0 2.23633,4.4355 -5.92578,0.01 z m -614.55859,7.6972 h 1.76367 l -0.35937,0.3594 7.37695,7.3574 -5.85352,5.8223 -6.42187,-6.3809 z m 690.41992,0 3.5,7.17 -6.41992,6.3789 -5.85351,-5.8242 7.38281,-7.3633 -0.35938,-0.3594 z m -683.03906,0 9.14648,0.01 -4.57617,4.5527 z m 675.67187,0 -4.57812,4.5665 -4.58203,-4.5606 z m -658.0371,0.012 h 4.00781 l -2.58399,1.3985 z m 640.40234,0 -1.42969,1.4043 -2.59179,-1.4024 z m -604.64453,0.023 h 2.1914 l -0.71875,1.4296 z m 568.88672,0 -1.46289,1.4219 -0.71289,-1.4199 z m -550.83203,0.012 h 3.49804 l 2.86914,3.4551 -1.39648,1.373 z m 532.77734,0 -4.97852,4.836 -1.38672,-1.3633 2.88282,-3.4707 z m -509.93164,0.014 h 4.64844 l -2.54102,2.5352 z m 10.37109,0.01 12.30078,0.01 -12.41211,12.3496 -5.28515,-6.3691 5.69922,-5.6856 z m 466.32813,0 -0.30274,0.3027 5.7168,5.7012 -5.28516,6.3692 -12.42773,-12.3653 z m -353.76367,0.1094 h 7.4414 c 2.31582,0.9711 4.38304,3.0239 6.04492,6.5117 l 1.86524,4.5488 c -6.13173,1.7055 -12.23387,3.5281 -18.30078,5.4903 -0.29564,0.096 -0.59104,0.1989 -0.88672,0.2949 l -1.74414,-4.4746 c -1.58426,-4.0542 -1.12871,-9.7165 4.37109,-11.9981 0.40501,-0.1696 0.80357,-0.2391 1.20899,-0.373 z m 233.75976,0 h 7.44141 c 0.40543,0.1339 0.80397,0.2034 1.20898,0.373 5.4998,2.2816 5.95535,7.9439 4.3711,11.9981 l -1.74219,4.4687 c -0.2918,-0.095 -0.58325,-0.1966 -0.875,-0.291 -6.07146,-1.9634 -12.17667,-3.7877 -18.3125,-5.4941 l 1.86328,-4.543 c 1.66188,-3.4878 3.72911,-5.5406 6.04492,-6.5117 z m -206.50781,0 h 6.41601 c 2.32079,0.5705 4.31933,1.8387 5.20899,3.8125 l 0.57422,1.2129 c -6.37153,1.423 -12.70949,2.9688 -19.01367,4.6465 l -0.16211,-0.6523 c -0.77323,-3.0709 2.11657,-7.5809 6.23242,-8.836 z m 180.2793,0 h 6.41796 l 0.74414,0.1836 c 4.11586,1.2551 7.00566,5.7651 6.23243,8.836 l -0.16211,0.6465 c -6.30358,-1.6776 -12.64136,-3.2238 -19.01172,-4.6465 l 0.57226,-1.2071 c 0.88966,-1.9738 2.88625,-3.242 5.20704,-3.8125 z m -260.92188,0.6524 c 3.51656,-0.08 7.24767,1.4276 9.02734,5.2988 l 10.0879,21.9492 c -2.7533,1.1581 -5.4919,2.3545 -8.20118,3.6231 -2.99232,1.401 -5.94535,2.878 -8.87109,4.4023 l -10.6875,-20.6738 c -2.82505,-5.4382 0.19441,-11.6849 4.18555,-13.5781 1.30731,-0.6201 2.86054,-0.9851 4.45898,-1.0215 z m 347.98047,0 c 1.59844,0.036 3.15362,0.4014 4.46094,1.0215 3.99114,1.8932 7.01059,8.1399 4.18554,13.5781 l -10.68359,20.666 c -2.92254,-1.5225 -5.87224,-2.997 -8.86133,-4.3965 -2.71313,-1.2703 -5.45567,-2.4674 -8.21289,-3.6269 l 10.08594,-21.9434 c 1.77967,-3.8712 5.50883,-5.3789 9.02539,-5.2988 z m -319.10156,0.2383 c 4.34497,-0.018 9.47797,2.1369 11.76953,7.8515 l 3.97851,9.7344 c -6.91718,2.3005 -13.82237,4.7218 -20.63476,7.4277 l -4.26953,-9.4433 c -2.82237,-6.1495 1.26456,-13.3669 5.20898,-14.8809 1.13841,-0.4371 2.49894,-0.6836 3.94727,-0.6894 z m 290.22461,0 c 1.44832,0.01 2.80885,0.2523 3.94726,0.6894 3.94442,1.514 8.03136,8.7314 5.20899,14.8809 l -4.26758,9.4375 c -6.81292,-2.7058 -13.71954,-5.1274 -20.63672,-7.4278 l 3.97851,-9.7285 c 2.29157,-5.7146 7.42457,-7.8691 11.76954,-7.8515 z m -469.56641,1.0351 1.56055,1.5371 -6.83399,3.6953 z m 648.91406,0.01 5.27149,5.2304 -6.83008,-3.6953 z m -594.91992,0.207 5.85742,5.6934 -5.7832,5.6777 -5.84961,-5.6855 z m 540.92773,0.01 5.7754,5.6875 -5.85157,5.6855 -5.7832,-5.6797 z m -558.79296,0.076 3.28515,3.1934 -3.80859,7.5723 -5.25,-5.1563 z m 576.6582,0.01 5.77344,5.6094 -5.23242,5.1387 -3.81055,-7.5723 z m -506.04492,0.7559 -8.64649,17.5996 -4.07422,-4.9101 z m 435.42383,0 12.73632,12.7051 -4.07812,4.916 z m -418.66602,2.0625 c 3.78348,0.014 7.80213,1.8551 10.13477,6.4844 l 13.67187,27.1699 c -5.93753,3.2562 -11.74055,6.7226 -17.47461,10.2578 l -14.98633,-25.3359 c -4.23832,-7.1558 -1.84134,-13.9953 2.51172,-16.834 1.68675,-1.0999 3.87249,-1.7505 6.14258,-1.7422 z m 401.9082,0 c 2.27009,-0.01 4.45583,0.6423 6.14258,1.7422 4.35305,2.8387 6.74809,9.6782 2.50977,16.834 l -14.98242,25.3262 c -5.73366,-3.535 -11.53718,-7.0001 -17.47461,-10.2559 l 13.66992,-27.1621 c 2.33263,-4.6293 6.35128,-6.4705 10.13476,-6.4844 z m -458.09179,1.7402 5.13281,6.1817 -0.44141,0.4394 -5.74609,-5.5839 z m -43.50977,0.8086 0.23047,0.2286 -5.84961,5.6855 -1.91016,-1.877 z m 601.30469,0.01 7.5293,4.0371 -1.91407,1.8789 -5.84961,-5.6855 z m -597.9336,3.3164 5.78321,5.6934 -5.8086,5.7031 -5.82031,-5.7168 z m 594.5586,0.01 5.8457,5.6797 -5.82031,5.7168 -5.80664,-5.7051 z m -558.66211,0.037 5.76758,5.6035 -5.73828,5.7227 -5.80469,-5.6406 z m -89.37109,0.2071 4.7871,4.7714 -8.31054,4.4961 -1.32032,3.3789 h -1.32812 z m 701.50585,0.01 6.16797,12.6367 h -1.32812 l -1.32031,-3.3789 -8.30274,-4.4902 z m -71.74414,0.1055 3.83789,7.6094 -3.49023,3.4277 -5.82227,-5.7168 z m -557.99804,0.01 5.45703,5.3027 -5.82031,5.7168 -3.47266,-3.4102 z m -33.34571,2.5664 2.83399,2.789 -5.80274,5.6407 -4.45898,-4.4473 z m 624.67383,0 7.42774,3.9824 -4.45899,4.4492 -5.80469,-5.6406 z m -561.47656,2.5586 0.86914,1.0468 -0.97266,-0.9453 z m 498.28711,0.016 0.0937,0.094 -0.88477,0.8594 z m -501.55664,3.2441 4.2539,4.1328 h -8.39648 z m 504.8164,0.01 4.13477,4.125 h -8.38086 z m -522.70703,0.049 4.19532,4.0761 h -8.33399 z m -36.06054,0 4.13671,4.0742 h -8.33007 z m 612.7207,0.01 4.18555,4.0664 h -8.31641 z m -630.24414,0.3008 3.77539,3.7656 h -8.39648 l 2.95312,-2.8711 z m 647.76953,0.01 1.6543,0.8867 2.95703,2.873 h -8.38281 z m -608.81641,3.0195 0.75196,0.7402 h -1.125 z m 68.94532,12.25 c 3.66065,-0.053 7.53698,1.5943 9.53515,4.7598 l 7.32227,11.6621 c -0.47602,0.2985 -0.96053,0.5895 -1.43555,0.8887 -5.45849,3.4373 -10.92537,6.9388 -16.30078,10.6074 l -7.16406,-10.7891 c -1.94644,-2.9653 -2.40048,-6.1009 -1.76563,-8.9082 l 1.98828,-1.0664 -0.49414,-2.4805 c 0.65206,-1.0116 1.45765,-1.9295 2.41016,-2.705 1.58909,-1.2938 3.7079,-1.9371 5.9043,-1.9688 z m 431.96093,0 c 2.1964,0.032 4.31521,0.675 5.9043,1.9688 0.95251,0.7755 1.76005,1.6934 2.41211,2.705 l -0.49414,2.4805 1.98633,1.0664 c 0.63491,2.8073 0.18281,5.9428 -1.76367,8.9082 l -7.16016,10.7793 c -5.37204,-3.6659 -10.83543,-7.1646 -16.29102,-10.5996 -0.4782,-0.3011 -0.96609,-0.594 -1.44531,-0.8945 l 7.31641,-11.6543 c 1.99817,-3.1655 5.87449,-4.8125 9.53515,-4.7598 z m -566.11914,3.3493 h 48.35938 l -18.25196,36.2871 z m 57.33594,0 h 44.96094 l -61.82031,33.4395 z m 540.64453,0 h 44.99219 l 16.87109,33.4629 z m 53.96875,0 h 48.35938 l -30.10742,36.2871 z m -667.97265,4.0547 27.52929,33.1484 h -43.70312 z m 732.33593,0.021 16.16407,33.1269 h -43.67383 z m -608.04882,9.3965 -11.65821,23.7304 h -32.60351 z m 483.75195,0 44.25976,23.7304 h -32.60156 z m -470.50781,10.1855 c 2.6864,-0.1059 5.12557,0.8663 6.375,2.748 l 0.84179,1.3106 c -4.50615,3.2036 -8.92584,6.5501 -13.1875,10.125 -0.53863,0.4519 -1.10063,0.9372 -1.66797,1.4316 l -0.96093,-1.3339 c -1.7234,-2.3977 -2.12123,-8.6468 2.32617,-11.9981 1.94574,-1.4663 4.18401,-2.2008 6.27344,-2.2832 z m 457.26367,0 c 2.08942,0.082 4.32771,0.8169 6.27343,2.2832 4.44741,3.3513 4.04957,9.6004 2.32618,11.9981 l -0.95508,1.3261 c -0.56494,-0.4922 -1.12371,-0.9757 -1.66016,-1.4258 -4.26358,-3.577 -8.68651,-6.9255 -13.19531,-10.1308 l 0.83594,-1.3028 c 1.24942,-1.8813 3.68859,-2.8539 6.375,-2.748 z m -618.23047,28.4258 h 45.4707 l -61.7793,33.4199 z m 82.67383,0 h 46.08007 l -17.13867,34.8828 z m 567.76953,0 h 46.10937 l -28.96093,34.9043 z m 83.28125,0 h 45.47265 l 16.3086,33.4199 z m -665.91406,5.4043 26.4082,31.7988 h -42.43945 z m 643.60546,0 16.03125,31.7988 h -42.43945 z m -654.99414,4.9355 -13.51171,26.8633 h -36.59571 z m 666.39258,0.02 50.07031,26.8437 h -36.56836 z m -735.73828,41.7246 h 48.34961 l -18.24805,36.2793 z m 57.19922,0 h 45.10156 l -62.01367,33.545 z m 645.54492,0 h 45.13086 l 16.92188,33.5644 z m 53.98047,0 h 48.34961 l -30.10156,36.2812 z m -77.47461,1.0527 -0.54492,2.7305 2.94726,1.58 19.04493,38.7676 c -1.17143,-1.8314 -2.35395,-3.6559 -3.5586,-5.4629 -7.24561,-10.8677 -15.25688,-21.2216 -23.76562,-31.1113 z m -553.44727,0.041 5.84961,6.5235 c -8.49009,9.8719 -16.48297,20.2053 -23.71289,31.0507 -1.24897,1.8734 -2.47621,3.7625 -3.68945,5.6621 l 19.14258,-38.9668 2.94726,-1.58 z m -140.84765,4.1367 26.55273,31.9727 h -42.15429 z m 835.14453,0.021 15.59178,31.9512 h -42.12498 z m -710.19922,7.3457 -12.44336,25.3262 v -0.7207 h -33.45117 z m 585.24414,0 45.89453,24.6055 H 873.3418 v 0.7793 z m -733.05273,39.4864 h 43.91992 l -59.67188,32.2792 z m 81.12304,0 h 47.28516 l -17.58594,35.7949 z m 671.33008,0 h 47.3125 l -29.71484,35.8183 z m 84.48633,0 h 43.92184 l 15.752,32.2792 z m -770.76367,5.3007 26.49414,31.9024 H 177.9082 Z m 748.53906,0 16.08399,31.9024 h -42.57618 z m -759.85937,5.0469 -13.50586,26.8555 h -36.58008 z m 771.18945,0.021 50.04877,26.834 h -36.55268 z m -840.51953,41.7148 h 48.33984 l -18.24414,36.2735 z m 57.0625,0 h 45.23828 l -62.20117,33.6465 z m 750.44336,0 h 45.27148 l 16.97461,33.67 z m 53.99414,0 h 48.3379 l -30.09376,36.2715 z m -875.566411,6.4063 25.574221,30.7969 H 84.246094 Z m 937.955111,0.023 15.0175,30.7735 h -40.5742 z m -801.07034,2.5645 c -2.43176,6.969 -4.63403,14.0156 -6.58203,21.1172 -3.67268,13.3899 -6.53582,27.0447 -7.99805,40.9238 -1.02363,9.716 -0.63972,26.9821 -0.57813,29.4805 -0.74968,0.1683 -1.59115,0.5156 -2.23828,1.2617 -1.47913,1.7054 -0.71679,8.0547 -0.71679,8.0547 0,0 -4.0501,0.8587 -4.72461,1.75 -0.6745,0.8914 -0.52054,4.6576 0,5.7207 0.52055,1.0631 4.05078,1.9843 4.05078,1.9843 l -0.11914,11.8692 -1.24219,1.5918 -7.09961,-13.5996 3.91992,-4.5899 -17.58984,-18.5156 h -1.62305 l 0.67383,-1.8262 z m 664.29101,0.2363 41.75,84.9863 0.67383,1.8262 h -1.62305 l -17.58984,18.5156 3.9375,4.6114 -7.08789,13.5781 -1.24219,-1.5918 -0.11914,-11.8692 c 0,0 3.53024,-0.9212 4.05078,-1.9843 0.52055,-1.0631 0.67451,-4.8293 0,-5.7207 -0.6745,-0.8913 -4.72461,-1.75 -4.72461,-1.75 0,0 0.76235,-6.3493 -0.71679,-8.0547 -0.64605,-0.7449 -1.48561,-1.0931 -2.23438,-1.2617 0.0616,-2.4984 0.4455,-19.764 -0.57812,-29.4805 -1.46226,-13.8791 -4.32536,-27.5339 -7.99805,-40.9238 -1.9258,-7.0212 -4.09913,-13.989 -6.49805,-20.8809 z m -675.57422,2.4902 -12.51757,25.4825 h -35.00977 z m 686.74024,0 47.52734,25.4805 h -35.00976 z m -834.632815,40.3633 h 42.371095 l -57.566407,31.1406 z m 79.574225,0 h 48.48828 l -17.54493,35.7109 -1.30664,0.01 z m 774.88867,0 h 48.51757 l -29.63671,35.7187 -1.33594,-0.01 z m 85.68943,0 h 42.373 l 15.1954,31.1406 z m -875.61326,5.1972 25.45312,30.6465 -41.03906,0.2676 z m 853.47658,0 15.58588,30.9141 -41.03902,-0.2656 z m -864.72463,5.1582 -12.98242,25.8125 -35.595704,0.2325 z m 875.98241,0.02 48.5391,26.0254 -35.5664,-0.2325 z"
     id="path26"
     inkscape:connector-curvature="0" />
</svg>
