<?xml version="1.0" encoding="UTF-8" standalone="no"?>
<!-- Created with Inkscape (http://www.inkscape.org/) -->

<svg
   width="200mm"
   height="200mm"
   viewBox="0 0 200 200"
   version="1.1"
   id="svg1"
   inkscape:version="1.3 (0e150ed6c4, 2023-07-21)"
   sodipodi:docname="Oort_Cloud-top.svg"
   xmlns:inkscape="http://www.inkscape.org/namespaces/inkscape"
   xmlns:sodipodi="http://sodipodi.sourceforge.net/DTD/sodipodi-0.dtd"
   xmlns="http://www.w3.org/2000/svg"
   xmlns:svg="http://www.w3.org/2000/svg">
  <sodipodi:namedview
     id="namedview1"
     pagecolor="#505050"
     bordercolor="#ffffff"
     borderopacity="1"
     inkscape:showpageshadow="0"
     inkscape:pageopacity="0"
     inkscape:pagecheckerboard="1"
     inkscape:deskcolor="#505050"
     inkscape:document-units="mm"
     inkscape:zoom="0.5"
     inkscape:cx="393"
     inkscape:cy="493"
     inkscape:window-width="1600"
     inkscape:window-height="837"
     inkscape:window-x="-8"
     inkscape:window-y="-8"
     inkscape:window-maximized="1"
     inkscape:current-layer="layer1" />
  <defs
     id="defs1" />
  <g
     inkscape:label="Layer 1"
     inkscape:groupmode="layer"
     id="layer1">
    <path
       id="path1"
       style="fill:#555555;stroke-width:0.0948228;paint-order:markers stroke fill"
       d="M 100.0001 0 A 100 100 0 0 0 0 100.0001 A 100 100 0 0 0 100.0001 200.0002 A 100 100 0 0 0 200.0002 100.0001 A 100 100 0 0 0 100.0001 0 z M 100.0001 99.000159 A 1 1 0 0 1 101.00004 100.0001 A 1 1 0 0 1 100.0001 101.00004 A 1 1 0 0 1 99.000159 100.0001 A 1 1 0 0 1 100.0001 99.000159 z " />
  </g>
</svg>
