<?xml version="1.0" encoding="UTF-8" standalone="no"?>
<!-- Created with Inkscape (http://www.inkscape.org/) -->

<svg
   width="106.46327mm"
   height="112.37867mm"
   viewBox="0 0 106.46327 112.37867"
   version="1.1"
   id="svg1"
   xml:space="preserve"
   inkscape:version="1.3 (0e150ed, 2023-07-21)"
   sodipodi:docname="CCTV_Headquarters-side.svg"
   xmlns:inkscape="http://www.inkscape.org/namespaces/inkscape"
   xmlns:sodipodi="http://sodipodi.sourceforge.net/DTD/sodipodi-0.dtd"
   xmlns="http://www.w3.org/2000/svg"
   xmlns:svg="http://www.w3.org/2000/svg"><sodipodi:namedview
     id="namedview1"
     pagecolor="#505050"
     bordercolor="#ffffff"
     borderopacity="1"
     inkscape:showpageshadow="0"
     inkscape:pageopacity="0"
     inkscape:pagecheckerboard="1"
     inkscape:deskcolor="#505050"
     inkscape:document-units="mm"
     inkscape:zoom="0.71815476"
     inkscape:cx="233.23664"
     inkscape:cy="178.23456"
     inkscape:current-layer="layer1" /><defs
     id="defs1" /><g
     inkscape:label="Layer 1"
     inkscape:groupmode="layer"
     id="layer1"
     transform="translate(-76.379317,-72.211613)"><path
       id="path1"
       style="fill:#555555;fill-opacity:1;stroke-width:2.065;stroke-linecap:round;stroke-linejoin:round"
       d="m 169.64701,72.211613 v 1.637109 h -2.30787 v 1.33687 l 3.72949,-0.507463 11.77396,109.912151 H 76.379317 l 0.0031,-2.61586 h 30.284463 l 10.60555,-99.047182 43.11985,-6.574276 -2.68562,-2.468066 h -2.27221 v -1.673283 z m -3.6127,1.673283 h -1.3317 v 1.810742 l 1.3317,-0.203088 z m -1.63297,0 h -0.3297 l -1.04748,0.962732 1.02991,0.946712 0.34727,-0.05271 z m -0.77257,0 h -1.65157 l 0.82527,0.759127 z m -2.09651,0 h -0.7245 v 1.739429 l 0.46405,0.42633 1.30845,-1.20251 z m -1.02319,0 h -1.59422 l 1.59422,1.465027 z m -2.0376,0 h -0.32194 l 2.35954,2.169376 v -0.297139 z m 4.33048,1.166854 -1.21801,1.119311 2.08928,-0.318327 z m -1.99419,0.979785 V 76.2894 l 0.24081,-0.03669 z m -14.50557,32.590255 h -12.74134 l -5.85546,53.99206 h 24.34063 z" /></g></svg>
