<?xml version="1.0" encoding="UTF-8" standalone="no"?>
<!-- Created with Inkscape (http://www.inkscape.org/) -->

<svg
   width="101.01295mm"
   height="236.03055mm"
   viewBox="0 0 101.01295 236.03055"
   version="1.1"
   id="svg1"
   xml:space="preserve"
   inkscape:version="1.3 (0e150ed, 2023-07-21)"
   sodipodi:docname="Petronas-Towers-front.svg"
   xmlns:inkscape="http://www.inkscape.org/namespaces/inkscape"
   xmlns:sodipodi="http://sodipodi.sourceforge.net/DTD/sodipodi-0.dtd"
   xmlns="http://www.w3.org/2000/svg"
   xmlns:svg="http://www.w3.org/2000/svg"><sodipodi:namedview
     id="namedview1"
     pagecolor="#505050"
     bordercolor="#ffffff"
     borderopacity="1"
     inkscape:showpageshadow="0"
     inkscape:pageopacity="0"
     inkscape:pagecheckerboard="1"
     inkscape:deskcolor="#505050"
     inkscape:document-units="mm"
     inkscape:zoom="0.32504294"
     inkscape:cx="344.56986"
     inkscape:cy="575.3086"
     inkscape:current-layer="layer1" /><defs
     id="defs1" /><g
     inkscape:label="Layer 1"
     inkscape:groupmode="layer"
     id="layer1"
     transform="translate(-54.493315,-13.150618)"><path
       id="rect1"
       style="fill:#ffffff;stroke:none;stroke-width:2.065;stroke-linecap:round;stroke-linejoin:round"
       d="m 78.452059,13.150618 a 0.43748528,0.43748528 0 0 0 -0.437183,0.437183 0.43748528,0.43748528 0 0 0 0.252698,0.396358 l -0.359668,18.667078 a 1.6821951,1.6821951 0 0 0 -1.137915,1.5875 1.6821951,1.6821951 0 0 0 1.076937,1.565279 l -0.03514,1.836064 h -1.39423 v 3.099035 H 75.45741 v 2.778125 h -0.946196 v 3.925342 h -1.912028 v 3.704684 H 70.393119 V 61.918184 H 68.353967 V 74.346366 H 67.016581 V 93.183459 H 65.555688 V 120.36681 H 64.060173 V 232.9434 h -9.566858 v 16.23777 H 155.50627 V 232.9434 H 146.4014 V 120.36681 h -1.49552 V 93.183459 h -1.46089 V 74.346366 H 142.1076 V 61.918184 h -2.03966 V 51.147266 h -2.20555 v -3.704684 h -1.91203 V 43.51724 h -0.94671 v -2.778125 h -0.95964 V 37.64008 h -1.39423 l -0.0351,-1.832447 a 1.6821951,1.6821951 0 0 0 1.08779,-1.568896 1.6821951,1.6821951 0 0 0 -1.14876,-1.594735 L 132.194,13.98881 a 0.43748528,0.43748528 0 0 0 0.26355,-0.401009 0.43748528,0.43748528 0 0 0 -0.4377,-0.437183 0.43748528,0.43748528 0 0 0 -0.43718,0.437183 0.43748528,0.43748528 0 0 0 0.25269,0.396358 l -0.35966,18.667078 a 1.6821951,1.6821951 0 0 0 -1.13792,1.5875 1.6821951,1.6821951 0 0 0 1.07694,1.565279 l -0.0351,1.836064 h -1.39423 v 3.099035 h -0.96015 v 2.778125 h -0.9462 v 3.925342 h -1.91202 v 3.704684 h -2.20607 v 10.770918 h -2.03915 v 12.428182 h -1.33739 v 18.837093 h -1.46089 V 120.36681 H 117.628 v 35.33996 H 92.83361 V 120.36681 H 91.338094 V 93.183459 H 89.877201 V 74.346366 H 88.539815 V 61.918184 H 86.500146 V 51.147266 h -2.20555 V 47.442582 H 82.382568 V 43.51724 H 81.435856 V 40.739115 H 80.476225 V 37.64008 h -1.39423 l -0.03514,-1.832447 a 1.6821951,1.6821951 0 0 0 1.087789,-1.568896 1.6821951,1.6821951 0 0 0 -1.148768,-1.594735 L 78.626208,13.98881 a 0.43748528,0.43748528 0 0 0 0.26355,-0.401009 0.43748528,0.43748528 0 0 0 -0.437699,-0.437183 z M 92.83361,161.5519 h 11.76001 L 93.176225,185.72561 H 92.83361 Z m 13.2209,0 h 11.57345 v 24.17371 h -0.15658 z m -0.73071,1.39681 11.06238,23.42389 v 3.17294 h 1.24178 V 232.9434 H 92.83361 v -43.39786 h 1.264006 v -2.82619 z" /></g></svg>
