<?xml version="1.0" encoding="UTF-8" standalone="no"?>
<!-- Created with Inkscape (http://www.inkscape.org/) -->

<svg
   xmlns:dc="http://purl.org/dc/elements/1.1/"
   xmlns:cc="http://creativecommons.org/ns#"
   xmlns:rdf="http://www.w3.org/1999/02/22-rdf-syntax-ns#"
   xmlns:svg="http://www.w3.org/2000/svg"
   xmlns="http://www.w3.org/2000/svg"
   xmlns:sodipodi="http://sodipodi.sourceforge.net/DTD/sodipodi-0.dtd"
   xmlns:inkscape="http://www.inkscape.org/namespaces/inkscape"
   width="58.165073mm"
   height="249.27371mm"
   viewBox="0 0 58.165073 249.27371"
   version="1.1"
   id="svg1"
   xml:space="preserve"
   inkscape:version="0.92.4 (5da689c313, 2019-01-14)"
   sodipodi:docname="Space_Needle-front.svg"
   inkscape:export-filename="space needle c.svg"
   inkscape:export-xdpi="96"
   inkscape:export-ydpi="96"><metadata
     id="metadata7"><rdf:RDF><cc:Work
         rdf:about=""><dc:format>image/svg+xml</dc:format><dc:type
           rdf:resource="http://purl.org/dc/dcmitype/StillImage" /></cc:Work></rdf:RDF></metadata><sodipodi:namedview
     id="namedview1"
     pagecolor="#ffffff"
     bordercolor="#999999"
     borderopacity="1"
     inkscape:showpageshadow="2"
     inkscape:pageopacity="0"
     inkscape:pagecheckerboard="0"
     inkscape:deskcolor="#d1d1d1"
     inkscape:document-units="mm"
     inkscape:zoom="0.32693273"
     inkscape:cx="47.759686"
     inkscape:cy="349.5944"
     inkscape:window-width="1366"
     inkscape:window-height="713"
     inkscape:window-x="0"
     inkscape:window-y="0"
     inkscape:window-maximized="1"
     inkscape:current-layer="layer1"
     inkscape:export-bgcolor="#ffffff00"
     showgrid="false" /><defs
     id="defs1" /><g
     inkscape:label="Layer 1"
     inkscape:groupmode="layer"
     id="layer1"
     transform="translate(-75.863718,-24.160799)"><path
       style="fill:#ffffff;fill-opacity:1;stroke:none;stroke-width:0.99999869"
       d="M 109.35156 0 L 109.35156 0.0234375 L 109.33984 0.0234375 L 109.21875 1.9941406 L 107.28516 1.9589844 L 107.76172 6.546875 L 108.60352 6.546875 L 104.88672 56.675781 L 102.42188 56.648438 L 100.79297 67.994141 L 85.306641 68.037109 L 83.777344 73.121094 L 75.066406 76.283203 L 73.140625 76.349609 L 73.175781 77.330078 L 81.287109 83.683594 L 82.333984 84.933594 L 82.470703 86.117188 L 82.673828 87.873047 L 82.03125 89.191406 L 81.050781 90.578125 L 78.583984 92.064453 L 74.595703 93.720703 L 63.646484 97.978516 L 49.322266 103.61328 L 30.539062 111.11719 L 14.273438 111.19141 L 14.103516 112.64453 L 18.9375 126.83789 L 0.859375 132.14648 L 0.14257812 132.86328 L 0 133.67578 L 0.90820312 135.30078 L 28.4375 143.13867 L 33.550781 159.29297 L 22.349609 164.51953 L 22.146484 165.19531 L 22.248047 166.68164 L 22.585938 167.02148 L 31.925781 170.90625 L 43.347656 173.67773 L 52.238281 174.91992 L 59.214844 175.39844 L 65.302734 205.51172 L 70.638672 235.04297 L 75.226562 265.34375 L 78.476562 296.31445 L 80.386719 320.30664 L 82.011719 350.70117 L 82.585938 373.83398 L 82.490234 404.61133 L 82.394531 427.64844 L 82.490234 450.58789 L 81.916016 473.5293 L 80.578125 492.35938 L 79.431641 507.65234 L 77.615234 523.33008 L 75.894531 538.81445 L 74.078125 554.20312 L 72.072266 570.07031 L 69.873047 586.79883 L 68.056641 602.2832 L 64.902344 624.74609 L 62.322266 645.77344 L 60.21875 663.64844 L 57.064453 686.9707 L 54.197266 710.48633 L 49.705078 744.32227 L 48.556641 754.45508 L 12.904297 763.43945 L 12.712891 764.87305 L 15.484375 764.96875 L 17.539062 779.59375 L 17.492188 781.93555 L 45.126953 785.05469 L 27.910156 920.77344 L 24.087891 920.72461 L 17.300781 924.31055 L 17.396484 942.13672 L 110.44922 942.13672 L 202.43945 942.13672 L 202.53516 924.31055 L 195.74805 920.72461 L 191.92578 920.77344 L 174.70898 785.05469 L 202.34375 781.93555 L 202.29688 779.59375 L 204.35156 764.96875 L 207.12305 764.87305 L 206.93164 763.43945 L 171.2793 754.45508 L 170.13086 744.32227 L 165.63867 710.48633 L 162.77148 686.9707 L 159.61719 663.64844 L 157.51367 645.77344 L 154.93359 624.74609 L 151.7793 602.2832 L 149.96289 586.79883 L 147.76367 570.07031 L 145.75781 554.20312 L 143.94141 538.81445 L 142.2207 523.33008 L 140.4043 507.65234 L 139.25781 492.35938 L 137.91992 473.5293 L 137.3457 450.58789 L 137.44141 427.64844 L 137.3457 404.61133 L 137.25 373.83398 L 137.82422 350.70117 L 139.44922 320.30664 L 141.35938 296.31445 L 144.60938 265.34375 L 149.19727 235.04297 L 154.5332 205.51172 L 160.62109 175.39844 L 167.59766 174.91992 L 176.48828 173.67773 L 187.91016 170.90625 L 197.25 167.02148 L 197.58789 166.68164 L 197.68945 165.19531 L 197.48633 164.51953 L 186.28516 159.29297 L 191.39844 143.13867 L 218.92773 135.30078 L 219.83594 133.67578 L 219.69336 132.86328 L 218.97656 132.14648 L 200.89844 126.83789 L 205.73242 112.64453 L 205.5625 111.19141 L 189.29688 111.11719 L 170.51367 103.61328 L 156.18945 97.978516 L 145.24023 93.720703 L 141.25195 92.064453 L 138.78516 90.578125 L 137.80469 89.191406 L 137.16211 87.873047 L 137.36523 86.117188 L 137.50195 84.933594 L 138.54883 83.683594 L 146.66016 77.330078 L 146.69531 76.349609 L 144.76953 76.283203 L 136.05859 73.121094 L 134.5293 68.037109 L 119.04492 67.994141 L 117.41602 56.648438 L 114.95117 56.675781 L 111.23438 6.546875 L 111.73047 6.546875 L 112.07617 6.546875 L 112.55273 1.9589844 L 110.61914 1.9941406 L 110.49805 0.0234375 L 110.48633 0.0234375 L 110.48633 0 L 109.91797 0.01171875 L 109.35156 0 z M 106.23242 175.51562 L 106.375 179.56836 L 103.41797 175.52344 L 106.23242 175.51562 z M 113.60742 175.51562 L 116.42188 175.52344 L 113.46484 179.56836 L 113.60742 175.51562 z M 100.39648 175.53125 L 97.443359 179.29883 L 97.365234 175.54102 L 100.39648 175.53125 z M 119.44336 175.53125 L 122.47461 175.54102 L 122.39648 179.29883 L 119.44336 175.53125 z M 95.925781 175.54688 L 96.056641 188.91992 L 96.158203 197.57031 L 96.259766 206.01953 L 96.259766 211.90039 L 96.259766 219.94336 L 96.224609 225.72266 L 96.326172 231.53516 L 96.326172 236.97461 L 96.257812 245.25586 L 96.257812 249.59766 L 95.888672 246.87695 L 95.044922 241.13281 L 94.537109 235.52148 L 93.890625 230.83789 L 93.341797 226.75195 L 92.792969 222.71289 L 92.457031 218.45898 L 91.908203 213.67969 L 91.453125 208.51953 L 90.832031 203.81055 L 90.306641 199.67773 L 89.732422 195.30469 L 89.255859 190.47656 L 88.673828 184.8125 L 87.880859 179.13672 L 87.324219 175.57227 L 95.925781 175.54688 z M 123.91406 175.54688 L 132.51562 175.57227 L 131.95898 179.13672 L 131.16602 184.8125 L 130.58398 190.47656 L 130.10742 195.30469 L 129.5332 199.67773 L 129.00781 203.81055 L 128.38672 208.51953 L 127.93164 213.67969 L 127.38281 218.45898 L 127.04688 222.71289 L 126.49805 226.75195 L 125.94922 230.83789 L 125.30273 235.52148 L 124.79492 241.13281 L 123.95117 246.87695 L 123.58008 249.59766 L 123.58008 245.25586 L 123.51172 236.97461 L 123.51172 231.53516 L 123.61328 225.72266 L 123.57812 219.94336 L 123.57812 211.90039 L 123.57812 206.01953 L 123.67969 197.57031 L 123.78125 188.91992 L 123.91406 175.54688 z M 82.207031 175.58594 L 82.980469 182.56641 L 83.6875 186.91602 L 84.5 192.55664 L 85.142578 197.50391 L 85.851562 203.89062 L 86.392578 210.21094 L 87.105469 216.76367 L 87.75 222.57031 L 88.371094 228.83008 L 88.894531 234.40625 L 89.773438 243.0918 L 90.3125 252.92578 L 91.023438 261.13867 L 91.496094 266.88281 L 92.003906 272.62891 L 92.542969 278.50977 L 93.050781 284.38867 L 93.490234 291.21484 L 93.726562 297.97461 L 93.861328 303.88867 L 84.378906 303.88867 L 84.117188 300.61523 L 82.492188 284.65234 L 81.535156 276.62305 L 79.910156 261.04297 L 77.521484 245.84375 L 76.564453 237.81445 L 74.175781 223.47852 L 71.212891 207.99219 L 68.441406 193.27344 L 65.287109 178.26562 L 64.898438 175.63867 L 82.207031 175.58594 z M 137.63281 175.58594 L 154.94141 175.63867 L 154.55273 178.26562 L 151.39844 193.27344 L 148.62695 207.99219 L 145.66406 223.47852 L 143.27539 237.81445 L 142.31836 245.84375 L 139.92969 261.04297 L 138.30469 276.62305 L 137.34766 284.65234 L 135.72266 300.61523 L 135.46094 303.88867 L 125.97852 303.88867 L 126.11328 297.97461 L 126.34961 291.21484 L 126.78906 284.38867 L 127.29688 278.50977 L 127.83594 272.62891 L 128.34375 266.88281 L 128.81641 261.13867 L 129.52734 252.92578 L 130.06641 243.0918 L 130.94531 234.40625 L 131.46875 228.83008 L 132.08984 222.57031 L 132.73438 216.76367 L 133.44727 210.21094 L 133.98828 203.89062 L 134.69727 197.50391 L 135.33984 192.55664 L 136.15234 186.91602 L 136.85938 182.56641 L 137.63281 175.58594 z M 102.04883 176.09766 L 106.15039 181.66797 L 101.77734 187.28516 L 97.642578 181.63086 L 102.04883 176.09766 z M 117.79102 176.09766 L 122.19727 181.63086 L 118.0625 187.28516 L 113.68945 181.66797 L 117.79102 176.09766 z M 97.496094 183.91406 L 100.85547 188.47266 L 97.484375 192.80273 L 97.509766 186.2832 L 97.496094 183.91406 z M 122.34375 183.91406 L 122.32812 186.2832 L 122.35547 192.80273 L 118.98438 188.47266 L 122.34375 183.91406 z M 106.43945 184.07227 L 106.42383 187.96875 L 106.37305 193.57227 L 102.80078 188.6875 L 106.43945 184.07227 z M 113.40039 184.07227 L 117.03711 188.6875 L 113.46484 193.57227 L 113.41406 187.96875 L 113.40039 184.07227 z M 101.87695 189.86328 L 106.17969 195.70312 L 106.20117 195.69922 L 101.97461 201.125 L 97.529297 195.37695 L 101.87695 189.86328 z M 117.96289 189.86328 L 122.30859 195.37695 L 117.86328 201.125 L 113.63672 195.69922 L 113.6582 195.70312 L 117.96289 189.86328 z M 97.517578 197.75391 L 101.05859 202.30273 L 97.513672 206.85156 L 97.542969 199.83594 L 97.517578 197.75391 z M 122.32227 197.75391 L 122.29492 199.83594 L 122.32617 206.85156 L 118.78125 202.30273 L 122.32227 197.75391 z M 106.33203 198.29688 L 106.2832 203.54883 L 106.27148 206.68359 L 103.02148 202.47852 L 106.33203 198.29688 z M 113.50781 198.29688 L 116.81641 202.47852 L 113.56641 206.68359 L 113.55469 203.54883 L 113.50781 198.29688 z M 102.10352 203.64258 L 106.26562 208.99023 L 106.26562 209.23047 L 101.92578 214.83203 L 97.638672 209.28711 L 102.10352 203.64258 z M 117.73633 203.64258 L 122.20117 209.28711 L 117.91406 214.83203 L 113.57422 209.22852 L 113.57227 208.99023 L 117.73633 203.64258 z M 97.509766 211.51953 L 100.99609 216.0332 L 97.523438 220.51562 L 97.507812 218.32031 L 97.507812 213.2168 L 97.509766 211.51953 z M 122.33008 211.51953 L 122.33008 213.2168 L 122.33008 218.32031 L 122.31445 220.51562 L 118.8418 216.0332 L 122.33008 211.51953 z M 113.58203 211.99414 L 116.88281 216.16602 L 113.60938 220.40039 L 113.60156 219.36719 L 113.58203 211.99414 z M 106.25781 211.99609 L 106.23438 219.36719 L 106.22656 220.39844 L 102.95508 216.16602 L 106.25781 211.99609 z M 102.01758 217.35352 L 106.21289 222.78711 L 106.21094 223.06641 L 101.99219 228.4707 L 97.658203 222.86523 L 102.01758 217.35352 z M 117.82227 217.35352 L 122.18164 222.86523 L 117.84766 228.4707 L 113.62695 223.0625 L 113.625 222.78906 L 117.82227 217.35352 z M 97.564453 225.13867 L 101.07227 229.64648 L 97.601562 234.0918 L 97.609375 232.85156 L 97.642578 229.20312 L 97.564453 225.13867 z M 122.27539 225.13867 L 122.19531 229.20312 L 122.22852 232.85156 L 122.23633 234.0918 L 118.76562 229.64648 L 122.27539 225.13867 z M 113.64453 225.82422 L 116.81836 229.80273 L 113.60547 233.95703 L 113.65039 226.77539 L 113.64453 225.82422 z M 106.19336 225.82617 L 106.18555 226.77539 L 106.23047 233.95703 L 103.01953 229.80273 L 106.19336 225.82617 z M 102.09766 230.96094 L 106.24805 236.29102 L 106.24805 236.37695 L 101.94531 242.01758 L 97.681641 236.5 L 102.09766 230.96094 z M 117.74219 230.96094 L 122.1582 236.5 L 117.89453 242.01758 L 113.58984 236.375 L 113.5918 236.29297 L 117.74219 230.96094 z M 97.580078 238.77539 L 101.01562 243.23242 L 97.476562 247.87305 L 97.609375 243.76758 L 97.580078 238.77539 z M 122.25977 238.77539 L 122.22852 243.76758 L 122.36133 247.87305 L 118.82227 243.23242 L 122.25977 238.77539 z M 113.57422 239.11328 L 116.87695 243.33203 L 113.61914 247.54688 L 113.55664 241.83008 L 113.57422 239.11328 z M 106.26562 239.11523 L 106.2832 241.83008 L 106.2207 247.54492 L 102.96289 243.33203 L 106.26562 239.11523 z M 102.02148 244.5332 L 106.19336 249.94336 L 106.18555 250.5293 L 106.18555 250.56445 L 101.88281 256.07812 L 97.865234 250.88086 L 97.833984 249.875 L 102.02148 244.5332 z M 117.81836 244.5332 L 122.00195 249.875 L 121.9707 250.88086 L 117.95312 256.07812 L 113.64844 250.5625 L 113.64844 250.5293 L 113.64062 249.94531 L 117.81836 244.5332 z M 97.386719 252.65234 L 100.9668 257.25195 L 98 261.05469 L 97.679688 259.04297 L 97.4375 257.44336 L 97.386719 252.65234 z M 122.45312 252.65234 L 122.40234 257.44336 L 122.16016 259.04297 L 121.83984 261.05469 L 118.87305 257.25195 L 122.45312 252.65234 z M 113.68945 253.38086 L 116.89648 257.44727 L 113.79883 261.45508 L 113.68945 253.38086 z M 106.14844 253.38477 L 106.03906 261.45117 L 102.94336 257.44727 L 106.14844 253.38477 z M 102.02539 258.60938 L 106.00781 263.72852 L 106 264.0625 L 101.75195 269.50586 L 98.714844 265.57617 L 98.341797 263.23242 L 98.371094 263.23633 L 102.02539 258.60938 z M 117.81445 258.60938 L 121.46484 263.23633 L 121.49414 263.23242 L 121.12109 265.57617 L 118.08398 269.50586 L 113.83594 264.0625 L 113.82812 263.72852 L 117.81445 258.60938 z M 113.86523 266.87891 L 117.02344 270.87891 L 113.87305 274.95312 L 113.86523 274.25 L 113.86523 266.87891 z M 105.97266 266.88086 L 105.97266 274.25 L 105.96484 274.95117 L 102.81641 270.87891 L 105.97266 266.88086 z M 99.267578 268.66602 L 100.83789 270.68164 L 99.865234 271.92773 L 99.267578 268.66602 z M 120.57227 268.66602 L 119.97461 271.92773 L 119.00195 270.68164 L 120.57227 268.66602 z M 101.89844 272.04492 L 105.93555 277.23047 L 105.92773 277.70312 L 102.22461 282.44727 L 101.39648 279.52344 L 100.44922 275.12891 L 100.26367 274.11328 L 101.89844 272.04492 z M 117.94141 272.04492 L 119.57422 274.11328 L 119.38867 275.12891 L 118.44141 279.52344 L 117.61328 282.44727 L 113.9082 277.69922 L 113.90039 277.23242 L 117.94141 272.04492 z M 113.94727 280.51367 L 117.12891 284.54688 L 117.08984 284.74023 L 114.08203 288.62891 L 114.03516 285.26758 L 113.94727 280.51367 z M 105.89062 280.51562 L 105.80273 285.26758 L 105.75781 288.62695 L 102.75 284.74023 L 102.71094 284.54688 L 105.89062 280.51562 z M 103.63672 288.20508 L 105.72656 290.88672 L 105.70703 292.39453 L 105.30273 292.91211 L 104.50781 290.94531 L 103.63672 288.20508 z M 116.20312 288.20508 L 115.33203 290.94531 L 114.53711 292.91211 L 114.13281 292.39258 L 114.10938 290.88672 L 116.20312 288.20508 z M 85.046875 312.26953 L 94.470703 312.26953 L 94.876953 317.30469 L 95.011719 322.10352 L 95.044922 327.51172 L 95.248047 330.48438 L 95.416016 336.26367 L 95.685547 341.60352 L 95.652344 346.60547 L 95.855469 351.30273 L 87.232422 351.30273 L 87.175781 348.98047 L 86.410156 332.1582 L 85.359375 316.19531 L 85.046875 312.26953 z M 125.36914 312.26953 L 134.79297 312.26953 L 134.48047 316.19531 L 133.42969 332.1582 L 132.66406 348.98047 L 132.60742 351.30273 L 123.98438 351.30273 L 124.1875 346.60547 L 124.15234 341.60352 L 124.42188 336.26367 L 124.58984 330.48438 L 124.79297 327.51172 L 124.82812 322.10352 L 124.96289 317.30469 L 125.36914 312.26953 z M 87.431641 359.3457 L 96.261719 359.3457 L 96.361328 366.375 L 96.158203 375.16211 L 96.226562 381.21094 L 96.353516 390.77539 L 87.939453 390.77539 L 87.939453 383.77344 L 87.84375 375.45898 L 87.558594 364.4668 L 87.431641 359.3457 z M 123.57812 359.3457 L 132.4082 359.3457 L 132.28125 364.4668 L 131.99609 375.45898 L 131.90039 383.77344 L 131.90039 390.77539 L 123.48633 390.77539 L 123.61328 381.21094 L 123.67969 375.16211 L 123.47656 366.375 L 123.57812 359.3457 z M 87.939453 398.75781 L 96.423828 398.75781 L 96.400391 429.99023 L 87.988281 429.99023 L 87.939453 422.00781 L 87.939453 406.71484 L 87.939453 398.75781 z M 123.41602 398.75781 L 131.90039 398.75781 L 131.90039 406.71484 L 131.90039 422.00781 L 131.85156 429.99023 L 123.43945 429.99023 L 123.41602 398.75781 z M 88.029297 438.28125 L 96.400391 438.28125 L 96.304688 469.20312 L 87.615234 469.20312 L 87.748047 462.3457 L 88.029297 438.28125 z M 123.43945 438.28125 L 131.81055 438.28125 L 132.0918 462.3457 L 132.22461 469.20312 L 123.53516 469.20312 L 123.43945 438.28125 z M 87.410156 477.66406 L 96.423828 477.66406 L 96.330078 550.35156 L 96.330078 563.86914 L 96.330078 571.98047 L 96.363281 577.79297 L 96.363281 588.60742 L 96.363281 594.01562 L 96.363281 599.42188 L 96.294922 604.99805 L 96.160156 613.27734 L 96.28125 619.41602 L 96.304688 626.91992 L 70.974609 626.91992 L 72.646484 613.17969 L 74.75 597.02539 L 76.660156 582.6875 L 78.476562 567.10742 L 80.197266 552.67383 L 81.726562 539.38672 L 83.925781 516.73438 L 85.646484 500.19727 L 86.505859 486.24219 L 87.410156 477.66406 z M 123.41602 477.66406 L 132.42969 477.66406 L 133.33398 486.24219 L 134.19336 500.19727 L 135.91406 516.73438 L 138.11328 539.38672 L 139.64258 552.67383 L 141.36328 567.10742 L 143.17969 582.6875 L 145.08984 597.02539 L 147.19336 613.17969 L 148.86523 626.91992 L 123.53516 626.91992 L 123.55664 619.41602 L 123.67773 613.27734 L 123.54297 604.99805 L 123.47461 599.42188 L 123.47461 594.01562 L 123.47461 588.60742 L 123.47461 577.79297 L 123.50977 571.98047 L 123.50977 563.86914 L 123.50977 550.35156 L 123.41602 477.66406 z M 106.36328 510.64453 L 106.36328 522.26953 L 105.17383 520.73047 L 105.24219 520.00781 L 105.76758 515.53906 L 106.15039 512.05078 L 106.36328 510.64453 z M 113.47656 510.64453 L 113.68945 512.05078 L 114.07227 515.53906 L 114.59766 520.00781 L 114.66602 520.73047 L 113.47656 522.26953 L 113.47656 510.64453 z M 104.97656 522.82031 L 106.31055 524.5332 L 104.79688 526.47461 L 104.83594 524.30859 L 104.97656 522.82031 z M 114.86328 522.82031 L 115.00391 524.30859 L 115.04297 526.47461 L 113.5293 524.5332 L 114.86328 522.82031 z M 106.36328 527.23242 L 106.36328 534.24609 L 104.45898 534.24609 L 104.69141 529.35156 L 106.36328 527.23242 z M 113.47656 527.23242 L 115.14844 529.35156 L 115.38086 534.24609 L 113.47656 534.24609 L 113.47656 527.23242 z M 105.35352 541.65234 L 106.36328 541.65234 L 106.36328 549.70117 L 103.87891 546.48633 L 104.0293 543.33008 L 105.35352 541.65234 z M 113.47656 541.65234 L 114.48633 541.65234 L 115.81055 543.33008 L 115.96094 546.48633 L 113.47656 549.70117 L 113.47656 541.65234 z M 103.875 548.83008 L 106.3125 551.96094 L 103.9375 555.00195 L 103.875 548.83008 z M 115.96484 548.83008 L 115.90234 555.00195 L 113.52734 551.96094 L 115.96484 548.83008 z M 106.36328 554.66211 L 106.36133 563.39258 L 103.99609 560.33398 L 103.96484 557.69922 L 106.36328 554.66211 z M 113.47656 554.66211 L 115.87305 557.69922 L 115.8418 560.33398 L 113.47656 563.39258 L 113.47656 554.66211 z M 104.02539 562.71875 L 106.29688 565.63477 L 104.0332 568.53516 L 104.04688 564.57422 L 104.02539 562.71875 z M 115.81445 562.71875 L 115.79102 564.57422 L 115.80664 568.53516 L 113.54297 565.63477 L 115.81445 562.71875 z M 106.36328 568.30273 L 106.36133 577.15625 L 104.00977 574.11719 L 104.02148 571.27148 L 106.36328 568.30273 z M 113.47656 568.30273 L 115.81836 571.27148 L 115.83008 574.11719 L 113.47852 577.15625 L 113.47656 568.30273 z M 104.00195 576.45312 L 106.36328 579.48438 L 106.36328 579.55469 L 105.65234 580.46484 L 103.95117 580.46484 L 104 577.19141 L 104.00195 576.45312 z M 115.83789 576.45312 L 115.83984 577.19141 L 115.88867 580.46484 L 114.1875 580.46484 L 113.47656 579.55469 L 113.47656 579.48438 L 115.83789 576.45312 z M 104.44922 588.40234 L 106.36328 588.40234 L 106.36328 590.87891 L 104.44922 588.40234 z M 113.47656 588.40234 L 115.39062 588.40234 L 113.47656 590.87891 L 113.47656 588.40234 z M 103.86523 589.99609 L 106.26758 593.08203 L 103.86914 596.15234 L 103.85352 591.625 L 103.86523 589.99609 z M 115.97461 589.99609 L 115.98633 591.625 L 115.9707 596.15234 L 113.57227 593.08203 L 115.97461 589.99609 z M 106.36328 595.7168 L 106.36328 604.71094 L 103.88672 601.50586 L 103.87891 598.86523 L 106.36328 595.7168 z M 113.47656 595.7168 L 115.96094 598.86523 L 115.95312 601.50586 L 113.47656 604.71094 L 113.47656 595.7168 z M 103.89453 603.86523 L 106.07422 606.66211 L 103.91602 609.42578 L 103.9043 607.10938 L 103.89453 603.86523 z M 115.94531 603.86523 L 115.93359 607.10938 L 115.92188 609.42578 L 113.76367 606.66211 L 115.94531 603.86523 z M 106.36328 609.05273 L 106.36328 618.61133 L 103.9375 615.99219 L 103.92188 612.14258 L 106.36328 609.05273 z M 113.47656 609.05273 L 115.91602 612.14258 L 115.90039 615.71289 L 113.47461 618.63086 L 113.47656 609.05273 z M 115.89258 617.73828 L 115.88867 618.81836 L 115.86133 623.45117 L 113.55859 620.50195 L 115.89258 617.73828 z M 103.94531 617.89648 L 106.33203 620.43359 L 103.97656 623.45117 L 103.94922 618.81836 L 103.94531 617.89648 z M 106.36328 623.16211 L 106.36523 627.41016 L 104 627.41016 L 103.99219 626.16797 L 106.36328 623.16211 z M 113.47656 623.16211 L 115.84766 626.16797 L 115.83984 627.41016 L 113.47461 627.41016 L 113.47656 623.16211 z M 103.88867 634.52539 L 106 634.52539 L 103.84375 637.28711 L 103.88867 634.52539 z M 113.83984 634.52539 L 115.95117 634.52539 L 115.99609 637.28711 L 113.83984 634.52539 z M 69.982422 635.07422 L 96.361328 635.07422 L 96.363281 638.6582 L 96.228516 644.26758 L 96.060547 652.27734 L 95.857422 657.7168 L 95.6875 663.39453 L 95.720703 668.76758 L 95.583984 674.04102 L 95.416016 679.54883 L 95.144531 684.85352 L 94.976562 690.33008 L 94.875 698.50781 L 94.707031 704.08398 L 94.435547 709.625 L 94.234375 715.06641 L 93.830078 723.07617 L 93.726562 728.82031 L 93.693359 734.36328 L 93.591797 739.83789 L 93.523438 745.14453 L 93.177734 752.35156 L 56.205078 752.73438 L 59.263672 727.4043 L 61.845703 704.17578 L 62.896484 696.625 L 64.617188 681.52344 L 66.433594 666.03711 L 68.345703 650.26562 L 69.970703 635.16406 L 69.982422 635.07422 z M 123.47852 635.07422 L 149.85742 635.07422 L 149.86914 635.16406 L 151.49414 650.26562 L 153.40625 666.03711 L 155.22266 681.52344 L 156.94336 696.625 L 157.99414 704.17578 L 160.57617 727.4043 L 163.63477 752.73438 L 126.66211 752.35156 L 126.31445 745.14453 L 126.24609 739.83789 L 126.14453 734.36328 L 126.11133 728.82031 L 126.00977 723.07617 L 125.60547 715.06641 L 125.40234 709.625 L 125.13086 704.08398 L 124.96289 698.50781 L 124.86133 690.33008 L 124.69336 684.85352 L 124.42188 679.54883 L 124.25391 674.04102 L 124.11719 668.76758 L 124.15234 663.39453 L 123.98242 657.7168 L 123.7793 652.27734 L 123.61133 644.26758 L 123.47656 638.6582 L 123.47852 635.07422 z M 106.65234 636.46484 L 106.65234 646.25195 L 103.80859 642.57227 L 103.80859 640.07031 L 106.65234 636.46484 z M 113.1875 636.46484 L 116.03125 640.07031 L 116.03125 642.57227 L 113.1875 646.25195 L 113.1875 636.46484 z M 103.80859 644.91797 L 106.23828 648.03711 L 103.70508 651.28125 L 103.80859 648.83203 L 103.80859 644.91797 z M 116.03125 644.91797 L 116.03125 648.83203 L 116.13477 651.28125 L 113.60156 648.03711 L 116.03125 644.91797 z M 106.65234 650.28125 L 106.65234 659.92969 L 103.51367 655.87109 L 103.58594 654.16797 L 106.65234 650.28125 z M 113.1875 650.28125 L 116.25391 654.16797 L 116.32617 655.87109 L 113.1875 659.92969 L 113.1875 650.28125 z M 103.42383 658.11523 L 106.26172 661.76172 L 103.39258 665.43555 L 103.37695 662.59766 L 103.42383 658.11523 z M 116.41602 658.11523 L 116.46094 662.59766 L 116.44531 665.43555 L 113.57617 661.76172 L 116.41602 658.11523 z M 106.65234 664.03711 L 106.65234 673.5918 L 103.41797 669.41016 L 103.41016 668.14648 L 106.65234 664.03711 z M 113.1875 664.03711 L 116.42969 668.14648 L 116.42188 669.41016 L 113.1875 673.5918 L 113.1875 664.03711 z M 103.38281 671.71484 L 106.08398 675.18359 L 103.06445 679.05078 L 103.38281 671.71484 z M 116.45703 671.71484 L 116.77539 679.05078 L 113.75586 675.18359 L 116.45703 671.71484 z M 106.65234 677.22656 L 106.65234 679.58984 L 104.78906 679.58984 L 106.65234 677.22656 z M 113.1875 677.22656 L 115.05078 679.58984 L 113.1875 679.58984 L 113.1875 677.22656 z M 102.7168 687.02734 L 104.85742 687.02734 L 106.28711 688.86328 L 102.53711 693.66602 L 102.66211 688.31055 L 102.7168 687.02734 z M 114.98242 687.02734 L 117.12305 687.02734 L 117.17773 688.31055 L 117.30273 693.66602 L 113.55273 688.86328 L 114.98242 687.02734 z M 106.65234 691.16406 L 106.65234 700.91797 L 102.84375 695.99219 L 106.65234 691.16406 z M 113.1875 691.16406 L 116.99609 695.99219 L 113.1875 700.91797 L 113.1875 691.16406 z M 102.46289 697.85742 L 106.35938 702.86328 L 102.26172 708.11133 L 102.42188 703.98633 L 102.46289 697.85742 z M 117.37695 697.85742 L 117.41797 703.98633 L 117.57812 708.11133 L 113.48047 702.86328 L 117.37695 697.85742 z M 106.65234 705.25977 L 106.65234 714.87695 L 102.89648 710.01953 L 106.65234 705.25977 z M 113.1875 705.25977 L 116.94336 710.01953 L 113.1875 714.87695 L 113.1875 705.25977 z M 102.13477 711.39844 L 106.21289 716.63672 L 101.89844 722.16211 L 101.69141 721.89258 L 101.99219 715.07422 L 102.13477 711.39844 z M 117.70508 711.39844 L 117.84766 715.07422 L 118.14844 721.89258 L 117.94141 722.16211 L 113.62695 716.63672 L 117.70508 711.39844 z M 106.65234 718.8457 L 106.65234 728.31055 L 102.95703 723.5293 L 106.65234 718.8457 z M 113.1875 718.8457 L 116.88281 723.5293 L 113.1875 728.31055 L 113.1875 718.8457 z M 102.0332 724.69922 L 106.32227 730.20898 L 104.89062 732.04297 L 101.60938 732.04297 L 101.60938 725.23828 L 102.0332 724.69922 z M 117.80664 724.69922 L 118.23047 725.23828 L 118.23047 732.04297 L 114.94922 732.04297 L 113.51758 730.20898 L 117.80664 724.69922 z M 101.35938 739.88672 L 103.27539 739.88672 L 106.34766 743.83594 L 101.85742 749.58789 L 101.1875 748.7207 L 101.22656 743.98828 L 101.35938 739.88672 z M 105.0918 739.88672 L 106.65234 739.88672 L 106.65234 741.9043 L 105.0918 739.88672 z M 113.1875 739.88672 L 114.74805 739.88672 L 113.1875 741.9043 L 113.1875 739.88672 z M 116.56445 739.88672 L 118.48047 739.88672 L 118.61328 743.98828 L 118.65039 748.7207 L 117.98047 749.58789 L 113.49023 743.83594 L 116.56445 739.88672 z M 106.65234 746.22266 L 106.65234 752.85938 L 104.38867 752.85938 L 102.91797 750.95703 L 106.65234 746.22266 z M 113.1875 746.22266 L 116.92188 750.95703 L 115.45117 752.85938 L 113.1875 752.85938 L 113.1875 746.22266 z M 102 752.11914 L 102.57617 752.85938 L 101.41602 752.85938 L 102 752.11914 z M 117.83984 752.11914 L 118.42383 752.85938 L 117.26367 752.85938 L 117.83984 752.11914 z M 99.679688 792.07812 L 100.75586 792.07812 L 99.65625 793.48438 L 99.679688 792.07812 z M 102.90234 792.07812 L 106.25586 792.07812 L 106.25586 796.63867 L 102.81445 792.18945 L 102.90234 792.07812 z M 113.58398 792.07812 L 116.9375 792.07812 L 117.02539 792.18945 L 113.58398 796.63867 L 113.58398 792.07812 z M 119.08398 792.07812 L 120.16016 792.07812 L 120.18164 793.48438 L 119.08398 792.07812 z M 51.404297 792.35547 L 92.339844 792.35547 L 92.068359 799.95898 L 91.697266 808.07031 L 91.5625 816.17969 L 91.324219 821.68945 L 91.125 827.26562 L 91.09375 832.97852 L 90.902344 844.20898 L 90.568359 852.04688 L 90.376953 859.74219 L 89.947266 867.38867 L 89.517578 879.09766 L 89.181641 890.56836 L 89.134766 898.50195 L 89.039062 906.38867 L 88.578125 920.82031 L 35.941406 920.82031 L 51.380859 792.52344 L 51.404297 792.35547 z M 127.5 792.35547 L 168.43555 792.35547 L 168.45703 792.52344 L 183.89648 920.82031 L 131.25977 920.82031 L 130.79883 906.38867 L 130.70312 898.50195 L 130.65625 890.56836 L 130.32031 879.09766 L 129.89062 867.38867 L 129.46094 859.74219 L 129.26953 852.04688 L 128.93555 844.20898 L 128.74414 832.97852 L 128.71484 827.26562 L 128.51367 821.68945 L 128.27539 816.17969 L 128.14062 808.07031 L 127.76953 799.95898 L 127.5 792.35547 z M 101.89258 793.35742 L 106.21484 798.91016 L 101.82422 804.5332 L 99.519531 801.55078 L 99.601562 797.13281 L 99.615234 796.24219 L 101.89258 793.35742 z M 117.94727 793.35742 L 120.22266 796.24219 L 120.23633 797.13281 L 120.31836 801.55078 L 118.01367 804.5332 L 113.62305 798.91016 L 117.94727 793.35742 z M 106.25586 801.62891 L 106.25586 810.26172 L 102.88477 805.90039 L 106.25586 801.62891 z M 113.58398 801.62891 L 116.95508 805.90039 L 113.58398 810.26172 L 113.58398 801.62891 z M 99.478516 803.87695 L 100.90625 805.71094 L 99.408203 807.63086 L 99.478516 803.87695 z M 120.36133 803.87695 L 120.43164 807.63086 L 118.93359 805.71094 L 120.36133 803.87695 z M 101.96484 807.06836 L 106.20312 812.51172 L 101.82617 818.11914 L 99.316406 814.875 L 99.316406 812.52344 L 99.357422 810.37305 L 101.96484 807.06836 z M 117.875 807.06836 L 120.48242 810.37305 L 120.52344 812.52344 L 120.52344 814.875 L 118.01367 818.11914 L 113.63672 812.51172 L 117.875 807.06836 z M 106.25586 815.2168 L 106.25586 823.84961 L 102.88477 819.48828 L 106.25586 815.2168 z M 113.58398 815.2168 L 116.95508 819.48828 L 113.58398 823.84961 L 113.58398 815.2168 z M 99.316406 817.25391 L 100.90625 819.29688 L 99.316406 821.33398 L 99.316406 817.25391 z M 120.52344 817.25391 L 120.52344 821.33398 L 118.93359 819.29688 L 120.52344 817.25391 z M 101.96484 820.6543 L 106.22266 826.125 L 101.7832 831.8125 L 99.152344 828.41016 L 99.316406 824.13672 L 99.316406 824.00977 L 101.96484 820.6543 z M 117.875 820.6543 L 120.52344 824.00977 L 120.52344 824.13672 L 120.6875 828.41016 L 118.05664 831.8125 L 113.61719 826.125 L 117.875 820.6543 z M 106.25586 828.85352 L 106.25586 837.18359 L 105.93555 837.18359 L 102.8418 833.18164 L 106.25586 828.85352 z M 113.58398 828.85352 L 116.99805 833.18164 L 113.9043 837.18359 L 113.58398 837.18359 L 113.58398 828.85352 z M 99.066406 830.68359 L 100.86328 832.99219 L 98.880859 835.53125 L 99.066406 830.68359 z M 120.77344 830.68359 L 120.95898 835.53125 L 118.97656 832.99219 L 120.77344 830.68359 z M 101.91992 834.34766 L 104.12891 837.18359 L 99.681641 837.18359 L 101.91992 834.34766 z M 117.91992 834.34766 L 120.1582 837.18359 L 115.71094 837.18359 L 117.91992 834.34766 z M 98.537109 845.02734 L 99.390625 845.02734 L 100.97461 847.06055 L 98.349609 850.42383 L 98.537109 845.02734 z M 101.22852 845.02734 L 102.5625 845.02734 L 101.89258 845.88477 L 101.22852 845.02734 z M 104.71484 845.02734 L 106.25586 845.02734 L 106.25586 851.5293 L 102.95312 847.25781 L 104.71484 845.02734 z M 113.58398 845.02734 L 115.125 845.02734 L 116.88672 847.25781 L 113.58398 851.5293 L 113.58398 845.02734 z M 117.27734 845.02734 L 118.61133 845.02734 L 117.94727 845.88477 L 117.27734 845.02734 z M 120.44922 845.02734 L 121.30273 845.02734 L 121.49023 850.42383 L 118.86523 847.06055 L 120.44922 845.02734 z M 102.03516 848.42188 L 106.25586 853.84375 L 106.25586 853.85547 L 101.94531 859.375 L 98.205078 854.53906 L 98.251953 853.2168 L 102.03516 848.42188 z M 117.80469 848.42188 L 121.58789 853.2168 L 121.63477 854.53906 L 117.89453 859.375 L 113.58398 853.85547 L 113.58398 853.84375 L 117.80469 848.42188 z M 106.25586 856.63281 L 106.25586 864.95117 L 103.00781 860.75 L 106.25586 856.63281 z M 113.58398 856.63281 L 116.83203 860.75 L 113.58398 864.95117 L 113.58398 856.63281 z M 98.125 856.82617 L 101.02734 860.55078 L 97.853516 864.61523 L 98.125 856.82617 z M 121.71484 856.82617 L 121.98633 864.61523 L 118.8125 860.55078 L 121.71484 856.82617 z M 102.08789 861.91406 L 106.25586 867.26562 L 101.81055 872.95898 L 97.738281 867.69336 L 97.75 867.41406 L 102.08789 861.91406 z M 117.75195 861.91406 L 122.08984 867.41406 L 122.10156 867.69336 L 118.0293 872.95898 L 113.58398 867.26562 L 117.75195 861.91406 z M 97.644531 869.96289 L 100.89258 874.13477 L 97.306641 878.72852 L 97.308594 878.04688 L 97.644531 869.96289 z M 122.19531 869.96289 L 122.53125 878.04688 L 122.5332 878.72852 L 118.94727 874.13477 L 122.19531 869.96289 z M 106.25586 870.04688 L 106.25586 878.70898 L 102.87305 874.33398 L 106.25586 870.04688 z M 113.58398 870.04688 L 116.9668 874.33398 L 113.58398 878.70898 L 113.58398 870.04688 z M 101.95312 875.49805 L 106.25586 881.02344 L 106.25586 881.24219 L 101.8457 886.82812 L 97.474609 881.17383 L 101.95312 875.49805 z M 117.88672 875.49805 L 122.36523 881.17383 L 117.99414 886.82812 L 113.58398 881.24219 L 113.58398 881.02344 L 117.88672 875.49805 z M 97.287109 883.32031 L 100.92969 887.98828 L 99.542969 889.74609 L 97.259766 889.74609 L 97.287109 883.32031 z M 122.55273 883.32031 L 122.57812 889.74609 L 120.29492 889.74609 L 118.9082 887.98828 L 122.55273 883.32031 z M 106.25586 883.83203 L 106.25586 889.74609 L 104.09961 889.74609 L 102.83789 888.11328 L 106.25586 883.83203 z M 113.58398 883.83203 L 117.00195 888.11328 L 115.74023 889.74609 L 113.58398 889.74609 L 113.58398 883.83203 z M 101.92383 889.25977 L 102.30273 889.74609 L 101.53516 889.74609 L 101.92383 889.25977 z M 117.91602 889.25977 L 118.30469 889.74609 L 117.53711 889.74609 L 117.91602 889.25977 z M 97.222656 897.23828 L 97.46875 897.23828 L 101.00586 901.7832 L 97.175781 906.63672 L 97.222656 897.23828 z M 99.271484 897.23828 L 104.59375 897.23828 L 101.91211 900.63672 L 99.271484 897.23828 z M 115.24609 897.23828 L 120.56836 897.23828 L 117.92773 900.63672 L 115.24609 897.23828 z M 122.37109 897.23828 L 122.61719 897.23828 L 122.66406 906.63672 L 118.83398 901.7832 L 122.37109 897.23828 z M 106.25586 897.72656 L 106.25586 906.22461 L 102.91211 901.92188 L 106.25586 897.72656 z M 113.58398 897.72656 L 116.92773 901.92188 L 113.58398 906.22461 L 113.58398 897.72656 z M 102.00195 903.0625 L 106.25586 908.52734 L 106.25586 908.74023 L 101.85156 914.32031 L 97.507812 908.70117 L 102.00195 903.0625 z M 117.83789 903.0625 L 122.33203 908.70117 L 117.98828 914.32031 L 113.58398 908.74023 L 113.58398 908.52734 L 117.83789 903.0625 z M 97.166016 910.64844 L 100.93164 915.48438 L 97.166016 920.25586 L 97.166016 910.64844 z M 122.67383 910.64844 L 122.67383 920.25586 L 118.9082 915.48438 L 122.67383 910.64844 z M 106.25586 911.32812 L 106.25586 920.01367 L 102.8457 915.60352 L 106.25586 911.32812 z M 113.58398 911.32812 L 116.99414 915.60352 L 113.58398 920.01367 L 113.58398 911.32812 z M 101.92383 916.75977 L 105.08594 920.82031 L 98.683594 920.82031 L 100.04883 919.10938 L 101.92383 916.75977 z M 117.91602 916.75977 L 119.79102 919.10938 L 121.15625 920.82031 L 114.75391 920.82031 L 117.91602 916.75977 z "
       transform="matrix(0.26458333,0,0,0.26458333,75.863718,24.160799)"
       id="path1" /></g></svg>