<?xml version="1.0" encoding="UTF-8" standalone="no"?>
<!-- Created with Inkscape (http://www.inkscape.org/) -->

<svg
   width="176.658mm"
   height="156.77299mm"
   viewBox="0 0 176.65801 156.77299"
   version="1.1"
   id="svg1"
   xml:space="preserve"
   inkscape:version="1.3 (0e150ed6c4, 2023-07-21)"
   sodipodi:docname="Arctic_Ocean-top.svg"
   xmlns:inkscape="http://www.inkscape.org/namespaces/inkscape"
   xmlns:sodipodi="http://sodipodi.sourceforge.net/DTD/sodipodi-0.dtd"
   xmlns="http://www.w3.org/2000/svg"
   xmlns:svg="http://www.w3.org/2000/svg"><sodipodi:namedview
     id="namedview1"
     pagecolor="#505050"
     bordercolor="#ffffff"
     borderopacity="1"
     inkscape:showpageshadow="0"
     inkscape:pageopacity="0"
     inkscape:pagecheckerboard="1"
     inkscape:deskcolor="#505050"
     inkscape:document-units="mm"
     inkscape:zoom="0.64"
     inkscape:cx="272.65625"
     inkscape:cy="357.03125"
     inkscape:window-width="1600"
     inkscape:window-height="837"
     inkscape:window-x="-8"
     inkscape:window-y="-8"
     inkscape:window-maximized="1"
     inkscape:current-layer="layer1" /><defs
     id="defs1"><inkscape:path-effect
       effect="simplify"
       id="path-effect9533"
       is_visible="true"
       lpeversion="1.3"
       threshold="2.2"
       steps="10"
       smooth_angles="360"
       helper_size="10"
       simplify_individual_paths="false"
       simplify_just_coalesce="false" /><inkscape:path-effect
       effect="simplify"
       id="path-effect819"
       is_visible="true"
       steps="10"
       threshold="0.002"
       smooth_angles="0"
       helper_size="5"
       simplify_individual_paths="false"
       simplify_just_coalesce="false"
       lpeversion="0" /></defs><g
     inkscape:label="Layer 1"
     inkscape:groupmode="layer"
     id="layer1"
     transform="translate(-27.413041,-77.470597)"><path
       id="path2"
       style="opacity:1;fill:#ffffff;fill-opacity:1"
       d="m 97.331968,77.470597 -4.326351,0.238228 c -1.206972,0.06634 -2.374164,0.163593 -3.277319,0.265617 -0.451579,0.05101 -0.83704,0.10283 -1.124996,0.152446 -0.287957,0.04962 -0.510931,0.122129 -0.494027,0.113171 -0.215782,0.11434 -0.447001,0.536241 -0.447001,1.091923 0,0.312063 -0.03286,0.596031 -0.09767,0.826306 -0.0324,0.115138 -0.07018,0.216595 -0.134876,0.314193 -0.0647,0.0976 -0.186183,0.224792 -0.380855,0.224792 0.0636,0 0.03088,-0.0056 -0.01757,0.01964 -0.04845,0.02526 -0.12223,0.07057 -0.20929,0.132808 -0.174121,0.124493 -0.403446,0.313916 -0.664042,0.54467 -0.521191,0.461507 -1.165989,1.090786 -1.790588,1.740462 -0.624599,0.649674 -1.229943,1.32113 -1.6738,1.863452 -0.221928,0.271161 -0.405425,0.511199 -0.525549,0.692981 -0.06006,0.09089 -0.104198,0.16723 -0.129191,0.219108 -0.02499,0.05188 -0.02119,0.08725 -0.02119,0.03307 0,0.294765 -0.11916,0.582406 -0.285254,0.886767 -0.166093,0.304363 -0.387178,0.612389 -0.642338,0.869198 -0.139033,0.139932 -0.370813,0.525188 -0.588077,1.028878 -0.217265,0.503688 -0.436448,1.130664 -0.63097,1.793172 -0.389044,1.325017 -0.675927,2.806106 -0.675927,3.718636 10e-7,0.609907 -0.337234,1.292718 -0.810287,1.720825 -0.307333,0.278132 -0.601513,0.918388 -0.601513,1.209229 0,0.25728 -0.04156,0.509033 -0.113172,0.728121 -0.07161,0.219089 -0.1463,0.416277 -0.367419,0.552938 -0.05656,0.03496 -0.214645,0.198933 -0.363286,0.433565 -0.148639,0.234631 -0.30313,0.538565 -0.441316,0.861446 -0.276374,0.645771 -0.478524,1.388671 -0.478524,1.782841 0,0.74866 -0.206789,1.49741 -0.523482,2.08411 -0.316694,0.58671 -0.744733,1.06789 -1.324467,1.07022 -0.170209,7.2e-4 -0.465748,0.22619 -0.529167,0.4687 -0.0598,0.22866 -0.152081,0.43492 -0.269234,0.60203 -0.117153,0.1671 -0.25208,0.34365 -0.535368,0.34365 0.06188,0 0.07539,-0.0372 0.05478,-0.002 -0.02061,0.0352 -0.04703,0.11816 -0.04703,0.21291 0,0.26078 -0.143252,0.48706 -0.333829,0.6289 -0.190579,0.14184 -0.432232,0.21653 -0.691431,0.21653 -0.207698,0 -0.261804,0.035 -0.29869,0.0801 -0.03688,0.0451 -0.08785,0.18265 -0.08785,0.46302 0,0.27212 -0.04403,0.53968 -0.119372,0.77152 -0.07534,0.23185 -0.15482,0.43936 -0.382923,0.58033 -0.154022,0.0952 -0.352422,0.14999 -0.546736,0.0641 -0.194314,-0.086 -0.293006,-0.30681 -0.293006,-0.49196 0,0.0204 0.01218,0.0199 -0.0217,-0.004 -0.03389,-0.0239 -0.10474,-0.0506 -0.189136,-0.0506 -0.03392,0 -0.07246,0.0135 -0.120922,0.078 -0.04846,0.0645 -0.08992,0.17626 -0.08992,0.30851 0,0.25972 -0.07642,0.50142 -0.219108,0.69143 -0.142688,0.19001 -0.368837,0.33228 -0.628903,0.33228 -0.113714,0 -0.210839,0.0956 -0.210839,0.22066 0,0.13123 0.0012,0.246 -0.05633,0.38654 -0.05756,0.14055 -0.253031,0.28506 -0.412378,0.29301 -0.318693,0.0159 -0.530759,-0.12915 -0.960665,-0.34572 -0.749482,-0.37756 -1.47747,-0.62663 -2.023649,-0.72244 -0.273089,-0.0479 -0.500308,-0.0568 -0.648539,-0.0357 -0.148232,0.0211 -0.187522,0.0666 -0.187585,0.0667 -0.107232,0.1735 -0.244556,0.22579 -0.394292,0.28525 -0.149734,0.0595 -0.323837,0.10589 -0.523482,0.14418 -0.399289,0.0766 -0.894955,0.11939 -1.415934,0.11524 -0.485955,-0.004 -0.929818,0.0217 -1.236617,0.061 -0.153399,0.0197 -0.274055,0.0438 -0.33383,0.0625 -0.0234,0.007 -0.02469,0.008 -0.02119,0.006 -0.02797,0.036 -0.03632,0.1079 -0.0646,0.13694 -0.07274,0.0747 -0.158401,0.14076 -0.257865,0.20878 -0.198928,0.13602 -0.454673,0.27409 -0.738456,0.39635 -0.372631,0.16056 -0.981498,0.24479 -1.786971,0.33022 -0.805474,0.0854 -1.777054,0.15054 -2.7342,0.18758 -0.957146,0.037 -1.90035,0.047 -2.652552,0.0217 -0.3761,-0.0127 -0.70272,-0.0343 -0.966866,-0.0667 -0.264144,-0.0325 -0.444338,-0.0471 -0.636653,-0.16588 -0.396853,-0.24527 -0.562136,-0.70105 -0.601514,-1.17409 -0.03938,-0.47303 0.04048,-0.99726 0.197404,-1.49965 0.15693,-0.50238 0.390413,-0.98191 0.692981,-1.35547 0.302568,-0.37355 0.692889,-0.66249 1.160136,-0.66249 0.19195,0 0.798669,-0.20634 1.131197,-0.43925 0.502966,-0.35229 1.432907,-0.60437 2.451013,-0.8046 1.018105,-0.20023 2.074915,-0.31891 2.775541,-0.23461 0.172699,0.0208 0.320925,4.1e-4 0.40411,-0.0253 -0.04141,-0.21116 -0.271484,-0.54867 -0.734322,-0.85525 -0.507137,-0.33592 -1.214573,-0.61873 -1.933732,-0.72657 -0.511748,-0.0767 -0.936061,-0.18483 -1.257805,-0.3266 -0.160871,-0.0709 -0.298115,-0.14874 -0.411861,-0.25373 -0.113747,-0.10499 -0.214974,-0.25752 -0.214974,-0.44545 0,0.002 -0.04049,-0.14448 -0.146244,-0.28887 -0.105749,-0.14439 -0.26231,-0.29842 -0.424263,-0.41186 -2e-6,-6.9e-4 -2e-6,-0.001 0,-0.002 -1.478969,-1.0474 -2.471589,-1.58987 -3.126941,-1.77353 -0.655353,-0.18366 -0.928512,-0.0728 -1.251604,0.24029 -0.401971,0.38959 -0.811569,1.2048 -1.503784,2.09962 0.315907,0.0489 0.555239,0.25704 0.655774,0.55862 0.07299,0.21897 -0.02207,0.48226 -0.183451,0.61495 -0.161385,0.13268 -0.362198,0.18397 -0.57981,0.18397 -0.217612,0 -0.41894,-0.0513 -0.580326,-0.18397 -0.07272,-0.0598 -0.125882,-0.15135 -0.162264,-0.24805 -0.18669,0.1797 -0.374117,0.35758 -0.59738,0.5333 0.03695,0.031 0.06521,0.0126 0.09974,0.0703 0.05801,0.097 0.07138,0.23629 0.04289,0.33797 -0.02849,0.10169 -0.08072,0.17759 -0.142627,0.25218 -0.236555,0.28503 -0.254637,0.50848 -0.142627,0.74982 0.112011,0.24133 0.411469,0.51366 0.919841,0.70694 0.217446,0.0827 0.39552,0.15631 0.552938,0.25786 0.157419,0.10155 0.296534,0.24476 0.371037,0.42375 0.149005,0.35798 0.07985,0.73469 -0.02739,1.33997 -0.203197,1.14682 -0.328648,1.79364 -0.580326,2.23449 -0.125839,0.22042 -0.307666,0.39105 -0.519348,0.47852 -0.211683,0.0875 -0.429701,0.10129 -0.669727,0.10129 -0.215267,0 -0.334995,0.0559 -0.412378,0.13074 -0.07738,0.0748 -0.129616,0.18765 -0.138493,0.36948 -0.01775,0.36366 0.185858,0.9635 0.673861,1.58389 l 0.732255,0.92966 c 0.0077,0.0189 0.01359,0.0384 0.01757,0.0584 0.09028,-0.094 0.207912,-0.17932 0.306958,-0.17932 0.334825,0 0.527353,0.19636 0.751892,0.416 0.224539,0.21964 0.449576,0.50238 0.65009,0.79892 0.200514,0.29654 0.374522,0.60388 0.488342,0.88625 0.05691,0.14118 0.100042,0.27489 0.119372,0.41031 0.01933,0.13543 0.02544,0.28643 -0.07028,0.44131 -0.116581,0.18863 -0.253659,0.33327 -0.424263,0.4222 -0.170604,0.0889 -0.38907,0.10616 -0.566374,0.0233 -0.354606,-0.16571 -0.48214,-0.56067 -0.482141,-1.02526 0,-0.28879 -0.249301,-0.91837 -0.501778,-1.19735 -0.179457,-0.1983 -0.304889,-0.37258 -0.36742,-0.57257 -0.0028,-0.009 0.0047,-0.0239 0.0021,-0.0331 -0.0501,0.0391 -0.110749,0.0623 -0.17415,0.0667 H 45.79715 c -0.469799,0 -1.160096,0.29882 -1.434021,0.60151 -0.258408,0.28554 -0.349275,0.4418 -0.366902,0.57619 -0.01763,0.13439 0.0319,0.3365 0.205155,0.71675 0.336219,0.73793 0.374734,1.87896 0.212907,3.52124 -0.112552,1.14223 -0.187295,1.79184 -0.432015,2.32647 -0.244721,0.53463 -0.64443,0.8843 -1.290877,1.3963 -0.538694,0.42665 -0.84975,0.73363 -1.019576,1.01544 -0.169827,0.28181 -0.224276,0.55337 -0.224276,1.00045 0,0.35135 -0.04225,0.69288 -0.113688,0.97824 -0.03572,0.14267 -0.07679,0.27015 -0.132809,0.38499 -0.05603,0.11485 -0.11741,0.22504 -0.255798,0.31057 0.0602,-0.0372 -0.05638,0.0791 -0.111104,0.27337 -0.05472,0.19427 -0.09198,0.45543 -0.09198,0.71107 0,0.45671 -0.01056,0.79238 -0.243913,1.05833 -0.116674,0.13297 -0.2797,0.21179 -0.443384,0.25012 -0.163683,0.0383 -0.337107,0.047 -0.541052,0.047 -0.204932,0 -0.352323,0.009 -0.423747,0.0253 -0.07142,0.0162 -0.04408,0.01 -0.04496,0.0114 -0.0018,0.003 -0.03222,0.29719 0.04702,0.88522 0.07922,0.58785 0.239192,1.00021 0.441317,1.24799 0.202125,0.24778 0.433,0.35877 0.784965,0.36328 0.257055,0.003 0.488385,0.057 0.669726,0.20309 0.181342,0.14609 0.274222,0.38657 0.267684,0.61133 -0.01307,0.44952 -0.290631,0.89288 -0.755509,1.39423 -0.239468,0.25825 -0.459927,0.52333 -0.613399,0.73432 -0.07674,0.10551 -0.135892,0.19767 -0.172083,0.262 -0.03619,0.0643 -0.03101,0.13432 -0.03101,0.0253 0,0.145 -0.07652,0.26424 -0.152445,0.33589 -0.07592,0.0717 -0.158057,0.11373 -0.24443,0.14831 -0.172744,0.0692 -0.371176,0.10181 -0.589628,0.10181 -0.04933,0 -0.338001,0.0859 -0.636653,0.25993 -0.298653,0.17404 -0.635008,0.42122 -0.919841,0.6873 -0.654638,0.6115 -1.614909,1.19027 -2.322339,1.34565 -0.289666,0.0636 -0.485993,0.15378 -0.586011,0.23254 -0.100017,0.0788 -0.112317,0.11748 -0.111104,0.18914 0.0024,0.14333 0.235254,0.5423 0.851628,1.00201 0.360606,0.26895 0.576329,0.3817 0.890385,0.42012 0.314056,0.0384 0.761713,-0.0109 1.505851,-0.15244 1.418916,-0.26982 2.250315,-0.20908 3.60133,0.26562 0.478894,0.16826 0.913374,0.36725 1.242302,0.5643 0.164463,0.0985 0.30255,0.19669 0.413928,0.30076 0.111378,0.10406 0.232544,0.20731 0.232544,0.43977 0,-0.0566 -0.0038,-0.0178 0.02946,0.0408 0.03335,0.0586 0.09294,0.14457 0.170015,0.2403 0.154144,0.19146 0.38195,0.43035 0.642338,0.67592 0.520777,0.49114 1.18234,1.01244 1.666048,1.28313 0.252428,0.14127 0.473348,0.39321 0.500228,0.70332 0.02688,0.31011 -0.06857,0.62723 -0.232544,1.0976 -0.257336,0.7382 -0.739777,1.23275 -1.337903,1.3317 -0.598125,0.099 -1.224178,-0.20549 -1.742012,-0.81028 -0.18895,-0.22068 -0.380321,-0.35244 -0.664042,-0.44339 -0.283722,-0.091 -0.666077,-0.13282 -1.193726,-0.12143 -0.915154,0.0197 -2.447875,-0.30352 -3.556372,-0.72451 -1.026811,-0.38998 -2.522742,-0.71262 -3.168282,-0.71262 -0.575006,0 -1.03286,-0.0664 -1.466577,-0.29093 -0.433717,-0.22448 -0.821099,-0.58489 -1.328084,-1.13689 -0.681472,-0.74197 -1.051384,-1.1038 -1.195276,-1.56631 -0.07195,-0.23125 -0.06163,-0.47041 -0.0041,-0.70693 0.05749,-0.23651 0.156038,-0.48383 0.279569,-0.80874 0.194444,-0.51143 0.15921,-0.87641 0.01344,-1.10381 -0.145771,-0.22739 -0.434437,-0.38447 -0.947229,-0.38447 -0.206593,0 -0.354903,0.056 -0.566374,0.26562 -0.21147,0.20963 -0.459071,0.58293 -0.749825,1.14825 -0.403765,0.78505 -0.57801,1.1573 -0.593762,1.43764 -0.01575,0.28035 0.112209,0.59264 0.431498,1.30069 0.406295,0.901 1.062584,1.74949 1.767851,2.35955 0.705268,0.61006 1.461704,0.96686 2.003495,0.96686 0.237727,0 0.432333,0.007 0.609782,0.0388 0.17745,0.0322 0.351682,0.0967 0.484208,0.22841 0.132527,0.13173 0.197905,0.30559 0.230477,0.48266 0.03257,0.17708 0.03876,0.37054 0.03876,0.6072 0,0.25697 0.0034,0.46375 -0.04496,0.66817 -0.04836,0.20443 -0.186179,0.41335 -0.384473,0.52555 -0.396586,0.22438 -0.905963,0.21942 -1.900659,0.2713 -0.970959,0.0506 -1.469543,0.11475 -1.626774,0.19741 -0.07862,0.0413 -0.09303,0.058 -0.127124,0.14831 -0.03409,0.0903 -0.06194,0.25757 -0.0894,0.49816 -0.0284,0.24881 -0.04395,0.4328 -0.03927,0.5271 0.0047,0.0943 0.0013,0.046 -0.02739,0.0274 -0.02861,-0.0186 0.03119,0.0118 0.19327,0 0.162081,-0.0118 0.408149,-0.0508 0.738456,-0.10542 0.764589,-0.12633 1.858434,-0.23044 2.495972,-0.23255 0.572024,-0.002 1.261984,-0.31704 1.785421,-0.77514 0.523436,-0.45811 0.860929,-1.04918 0.860929,-1.50017 0,-0.32594 0.04878,-0.60771 0.17415,-0.84388 0.125365,-0.23618 0.343817,-0.41562 0.599446,-0.4842 0.511258,-0.13716 1.088866,0.0744 1.789038,0.50022 0.580051,0.35275 1.655741,0.63046 2.527495,0.63046 0.442449,0 0.843727,0.0166 1.144633,0.045 0.150452,0.0142 0.27292,0.0298 0.376721,0.0527 0.0519,0.0115 0.09796,0.0227 0.156063,0.0491 0.02905,0.0132 0.06298,0.0296 0.107487,0.0703 0.04451,0.0407 0.111621,0.1289 0.111621,0.25011 0,-0.0405 -4.52e-4,-0.008 0.0078,0.0269 0.0082,0.0353 0.0214,0.0849 0.03876,0.14263 0.03473,0.11537 0.08479,0.26332 0.13901,0.40463 0.05038,0.13128 0.09636,0.25315 0.07235,0.42168 -0.02402,0.16853 -0.189103,0.34309 -0.340031,0.39274 -0.301857,0.0993 -0.595848,0.0373 -1.115177,-0.047 -0.290403,-0.0471 -0.506739,-0.0756 -0.654224,-0.0765 -0.147485,-8.8e-4 -0.21347,0.0192 -0.269751,0.0548 -0.112561,0.0713 -0.275061,0.34296 -0.538985,0.97461 -0.354295,0.84795 -0.414525,1.40963 -0.3514,1.5782 0.03156,0.0843 0.04712,0.10222 0.160197,0.13074 0.113081,0.0285 0.326799,0.0291 0.619084,-0.0351 0.686946,-0.15088 1.407431,-0.0341 1.929598,0.34779 0.171572,0.12546 0.314517,0.22578 0.431498,0.37672 0.116982,0.15094 0.17157,0.40614 0.101803,0.60358 -0.139534,0.3949 -0.487552,0.68034 -1.134815,1.30896 -0.611403,0.59378 -0.995764,0.94452 -1.447457,1.12086 -0.451693,0.17634 -0.903359,0.13366 -1.544608,0.0253 -0.852533,-0.14403 -1.519764,-0.12453 -1.923914,0.004 -0.202075,0.0643 -0.334076,0.15117 -0.412378,0.24236 -0.0783,0.0912 -0.116789,0.18804 -0.116789,0.33745 0,0.15006 0.01872,0.21514 0.05426,0.26407 0.03554,0.0489 0.117127,0.11634 0.324528,0.18758 0.414802,0.14246 1.268442,0.26087 2.748152,0.40618 1.596095,0.15674 1.789481,0.10741 3.040642,-0.79892 0.415526,-0.30101 0.893625,-0.56964 1.33997,-0.76739 0.446344,-0.19774 0.843406,-0.33228 1.193208,-0.33228 0.223355,0 0.407753,-0.001 0.59583,0.0506 0.188076,0.0522 0.380159,0.20301 0.466638,0.39687 0.172957,0.38773 0.123209,0.84492 0.08216,1.73633 -0.06048,1.3136 0.05743,2.22002 0.31626,2.74402 0.258827,0.52401 0.600427,0.71726 1.242302,0.72037 0.337231,0.002 0.678804,0.0346 0.97255,0.0863 0.293746,0.0518 0.517644,0.0903 0.722953,0.2403 0.497419,0.36337 1.055288,1.09855 1.536857,1.85931 0.240785,0.38039 0.455042,0.76477 0.6134,1.10743 0.158356,0.34265 0.271301,0.62381 0.271301,0.91002 0,0.23928 0.314596,0.86 0.666109,1.14463 0.309766,0.25084 0.525075,0.45964 0.626835,0.73794 0.10176,0.27831 0.0079,0.59396 -0.167948,0.82063 -0.0959,0.1236 -0.175644,0.61248 -0.0801,0.88831 0.134926,0.3895 0.365063,1.0652 0.513664,1.50224 0.1118,0.32882 0.457934,0.57619 0.635103,0.57619 0.229051,0 0.439809,0.045 0.619084,0.14056 0.179276,0.0955 0.363286,0.2708 0.363285,0.53123 0,-0.0733 -0.04167,-0.11295 -0.03514,-0.10748 0.0065,0.005 0.04744,0.0335 0.113172,0.0568 0.131469,0.0466 0.351952,0.0837 0.593762,0.0837 0.634132,0 1.392382,0.21997 1.865519,0.5705 0.169692,0.12573 0.30089,0.22055 0.409794,0.32402 0.108904,0.10348 0.227045,0.24582 0.222726,0.44958 -0.0043,0.20376 -0.120428,0.33577 -0.230477,0.44132 -0.11005,0.10555 -0.244878,0.20791 -0.419613,0.34158 -0.137839,0.10545 -0.208845,0.18106 -0.271818,0.24805 0.01166,0.0404 0.03758,0.0864 0.03927,0.11937 0.0065,0.12624 -0.02092,0.22491 -0.05684,0.33951 -0.07184,0.2292 -0.202671,0.50348 -0.380855,0.80512 -0.291296,0.49313 -0.392392,0.71105 -0.388607,0.89814 0.0038,0.18709 0.128511,0.47417 0.443384,1.05885 0.325504,0.60444 0.524035,0.95913 0.521415,1.38648 -0.0026,0.42736 -0.203594,0.78562 -0.536918,1.40456 -0.199387,0.37024 -0.449555,0.72397 -0.701249,1.00769 -0.251693,0.28373 -0.477098,0.50327 -0.773596,0.59738 -0.216547,0.0687 -0.379757,0.0271 -0.603581,-0.0212 -0.223824,-0.0483 -0.488314,-0.12587 -0.787032,-0.22841 -0.597437,-0.20508 -1.329299,-0.50711 -2.074292,-0.84594 -1.489986,-0.67768 -2.996519,-1.46751 -3.632853,-2.06034 -0.160654,-0.14967 -0.381024,-0.29554 -0.589628,-0.39842 -0.208605,-0.10288 -0.415471,-0.15658 -0.49196,-0.15658 -0.395785,0 -0.914695,-0.0933 -1.281576,-0.2341 -0.148446,-0.057 -0.149338,-0.0224 -0.111104,-0.0527 0.03824,-0.0303 -0.01135,0.007 -0.0098,0.19327 -1.16e-4,-0.0137 0.0214,0.0988 0.08992,0.23823 0.06852,0.13937 0.173859,0.31661 0.304374,0.51366 0.26103,0.39412 0.623214,0.86588 1.002006,1.31465 0.378791,0.44877 0.775148,0.87659 1.105359,1.18339 0.165105,0.1534 0.315562,0.27618 0.427881,0.35347 0.112319,0.0773 0.207636,0.0879 0.134875,0.0879 0.19981,0 0.339629,0.14089 0.408244,0.2558 0.06862,0.1149 0.104572,0.23694 0.132808,0.37517 0.05647,0.27646 0.07102,0.62053 0.04082,1.00407 -0.06444,0.81824 0.0868,1.29951 0.402559,1.59164 0.418093,0.3868 0.851958,1.13668 1.089856,1.80247 0.164411,0.46014 0.2556,0.79661 0.234094,1.12138 -0.02151,0.32477 -0.187562,0.59942 -0.418062,0.82992 -0.195424,0.19542 -0.228352,0.2418 -0.218591,0.44959 0.0098,0.20778 0.128435,0.60192 0.388606,1.27124 0.440833,1.13388 0.742037,1.73378 0.996322,1.96474 0.127143,0.11548 0.232278,0.16028 0.406177,0.17776 0.1739,0.0175 0.416846,-0.007 0.742073,-0.0682 0.28606,-0.0537 0.506424,-0.0963 0.703317,-0.10749 0.196892,-0.0112 0.404478,0.008 0.572058,0.15038 0.167578,0.14195 0.219812,0.33977 0.244429,0.53692 0.02462,0.19714 0.02532,0.42556 0.02532,0.72089 0,0.29397 0.05515,0.61905 0.14056,0.8847 0.08541,0.26564 0.218122,0.47194 0.273368,0.51779 0.203432,0.16884 0.363818,0.31295 0.476457,0.49403 0.112637,0.18109 0.153575,0.44421 0.05891,0.65216 -0.189322,0.4159 -0.615538,0.62164 -1.328085,0.99994 -1.245529,0.66127 -2.256984,2.24117 -2.634981,4.25607 -0.07294,0.38882 -0.08934,0.68546 -0.06253,0.86713 0.02681,0.18168 0.06581,0.22334 0.130741,0.25786 0.06493,0.0345 0.223478,0.0597 0.496094,0.008 0.272615,-0.0521 0.644183,-0.17279 1.103808,-0.36483 0.579438,-0.2421 0.877672,-0.38193 1.181324,-0.39481 0.07591,-0.003 0.166031,4.1e-4 0.265616,0.0568 0.09959,0.0565 0.176509,0.17964 0.195337,0.27544 0.03766,0.19159 -0.01967,0.29311 -0.06821,0.41961 0.0078,-0.0202 -0.0015,0.10689 0.08372,0.28319 0.08521,0.1763 0.235479,0.39352 0.410311,0.59376 0.174832,0.20024 0.375622,0.38644 0.558622,0.51367 0.183,0.12723 0.352782,0.1819 0.400493,0.1819 0.186095,0 0.297518,0.0909 0.388607,0.17776 0.09109,0.0868 0.168645,0.19073 0.242362,0.31058 0.147433,0.2397 0.278696,0.54688 0.378788,0.88677 0.101861,0.3459 0.22868,0.59179 0.341581,0.7245 0.112902,0.13271 0.179996,0.15094 0.262,0.14418 0.20873,-0.0172 0.401408,0.008 0.574125,0.0842 0.166189,0.0734 0.34185,0.23844 0.355534,0.47439 0.02865,0.01 0.138122,0.0246 0.293005,-0.006 0.318026,-0.0619 0.792783,-0.27688 1.220598,-0.6134 0.662338,-0.521 1.317556,-0.78933 1.97869,-0.72244 0.661134,0.0669 1.273521,0.45535 1.890324,1.09916 0.477656,0.49856 0.760395,0.75945 0.853695,1.13688 0.04665,0.18871 0.0043,0.39753 -0.08217,0.555 -0.0864,0.15746 -0.203238,0.2875 -0.345715,0.44494 -0.268091,0.29624 -0.507978,0.88531 -0.507979,1.06867 10e-7,0.0984 0.01318,0.15339 0.01964,0.17156 0.01644,0.005 0.210008,0.0242 0.570507,-0.047 0.607624,-0.11995 1.062629,-0.21253 1.415935,-0.26355 0.353305,-0.051 0.606539,-0.0735 0.853694,0.0103 0.247157,0.0836 0.418671,0.3346 0.468706,0.56638 0.05004,0.23177 0.04738,0.48154 0.05633,0.80821 0.0192,0.70059 0.131873,1.38385 0.281637,1.87121 0.07488,0.24367 0.160397,0.43985 0.232027,0.55087 0.07163,0.11101 0.111094,0.0899 0.03514,0.0899 0.207726,0 0.313529,0.12773 0.380855,0.22272 0.06732,0.095 0.114039,0.19758 0.15658,0.31626 0.08508,0.23737 0.147229,0.53589 0.179834,0.86506 0.04513,0.45562 0.108088,0.6557 0.255798,0.80874 0.147711,0.15304 0.456891,0.30323 1.048515,0.49609 0.765668,0.24962 1.804494,0.54296 2.261877,0.64234 0.60258,0.13095 1.446408,0.61277 2.062407,1.12138 0.498602,0.41168 0.814317,0.66748 0.933793,1.0666 0.119476,0.39913 -0.01707,0.7728 -0.222726,1.34152 -0.174826,0.48347 -0.2409,0.78106 -0.224792,1.05472 0.01611,0.27366 0.117564,0.56172 0.347782,1.02319 0.245461,0.49203 0.407207,0.70858 0.519348,0.77153 0.112141,0.063 0.293934,0.065 0.740524,-0.0331 1.260086,-0.27676 3.046484,0.28505 4.169771,1.24023 0.270295,0.22985 0.75212,0.33639 1.174088,0.23048 0.339138,-0.0851 0.629617,-0.11655 0.900204,-0.0176 0.270587,0.099 0.46116,0.33838 0.564307,0.61133 0.405466,1.07295 0.752361,1.65917 1.037146,1.85364 0.142392,0.0972 0.264772,0.12474 0.453202,0.10128 0.188431,-0.0235 0.439858,-0.11664 0.753959,-0.28474 0.345125,-0.1847 0.515731,-0.51804 0.515731,-1.24643 v -1.1622 c 3.98e-4,-0.20307 0.188152,-0.35393 0.38654,-0.31058 l 2.556433,0.55707 c 1.441661,0.31408 3.450828,0.99495 4.55476,1.55236 0.516191,0.26063 1.027697,0.47758 1.42782,0.64079 0.200062,0.0816 0.372372,0.15013 0.505912,0.20516 0.133542,0.055 0.194993,0.0657 0.31471,0.15244 0.498866,0.36133 0.801846,0.66709 1.097607,0.93948 0.295761,0.27238 0.585328,0.51718 1.103292,0.80667 0.313272,0.17508 0.68892,0.36836 1.033012,0.56637 0.344093,0.19802 0.653035,0.38784 0.86558,0.6227 0.132146,0.14602 0.313719,0.28832 0.484208,0.38706 0.17049,0.0987 0.34034,0.14418 0.378789,0.14418 0.493045,0 0.905585,0.3316 1.226805,0.74052 0.3212,0.40893 0.55513,0.92335 0.5643,1.44694 0.004,0.2562 0.16996,0.85992 0.34003,1.17771 0.21419,0.40022 0.56625,0.54825 0.79272,0.5333 0.11324,-0.007 0.18685,-0.0461 0.23461,-0.10542 0.0477,-0.0593 0.0869,-0.15614 0.0605,-0.34572 -0.0244,-0.17579 -0.0349,-0.33209 -0.0119,-0.48834 0.023,-0.15625 0.0915,-0.31608 0.20722,-0.43512 0.23157,-0.23808 0.54456,-0.29389 0.9648,-0.34209 0.30608,-0.0351 0.62431,-0.0246 0.91002,0.0217 0.28571,0.0462 0.53426,0.11008 0.73846,0.27699 -0.024,-0.0196 0.14166,0.0629 0.37878,0.10748 0.23713,0.0446 0.55815,0.0834 0.9276,0.11162 0.73888,0.0564 1.6756,0.0753 2.59777,0.0605 0.92218,-0.0149 1.83206,-0.0637 2.51199,-0.14262 0.33997,-0.0395 0.62469,-0.0879 0.81236,-0.13694 0.0938,-0.0245 0.16436,-0.0508 0.19533,-0.0662 0.031,-0.0154 -10e-4,-0.0266 -0.0393,0.0724 0.33764,-0.87987 1.44629,-1.15826 2.28151,-0.63666 0.23313,0.14559 0.90823,0.18309 1.54461,0.0289 0.63639,-0.15416 1.23149,-0.49588 1.38906,-0.74569 0.0947,-0.1502 0.11445,-0.24742 0.0408,-0.49816 -0.0736,-0.25075 -0.27268,-0.62732 -0.62529,-1.16014 -0.42006,-0.63475 -0.68058,-0.95172 -0.86713,-1.06453 -0.18654,-0.11282 -0.36006,-0.10956 -0.8201,-0.0176 -0.77481,0.15496 -1.46085,0.0353 -1.9513,-0.40049 -0.25647,-0.22789 -1.18301,-0.76648 -1.93167,-1.08366 -0.32131,-0.13613 -0.56684,-0.24311 -0.75551,-0.33796 -0.18867,-0.0948 -0.32094,-0.15456 -0.43977,-0.31264 -0.0594,-0.079 -0.11083,-0.22249 -0.078,-0.35347 0.0328,-0.13099 0.11266,-0.20569 0.17777,-0.2558 0.1302,-0.10023 0.26374,-0.14876 0.43925,-0.21704 0.45066,-0.17532 0.99046,-0.65306 1.39061,-1.21646 0.40016,-0.56339 0.65836,-1.21385 0.65836,-1.65623 0,-0.36113 0.13421,-0.76629 0.3359,-1.20355 0.20168,-0.43727 0.47692,-0.8934 0.79116,-1.28881 0.28488,-0.35848 0.54585,-0.72135 0.73019,-1.00769 0.0922,-0.14316 0.1652,-0.26744 0.21136,-0.3576 0.0462,-0.0902 0.0486,-0.18609 0.0486,-0.0822 -10e-6,-0.17013 0.0754,-0.26875 0.14676,-0.35347 0.0714,-0.0847 0.15605,-0.15777 0.25374,-0.22841 0.19536,-0.14128 0.44457,-0.27167 0.72088,-0.37672 0.2089,-0.0794 0.42912,-0.21845 0.59531,-0.36742 0.16619,-0.14897 0.27019,-0.31737 0.28733,-0.38292 0.0799,-0.30566 0.31062,-0.56622 0.62476,-0.69919 0.31414,-0.13298 0.70488,-0.18166 1.2268,-0.19533 0.35842,-0.009 0.74092,-0.0611 1.05472,-0.13281 0.3138,-0.0717 0.57185,-0.18892 0.60513,-0.21653 0.23001,-0.19094 0.51626,-0.25077 0.85163,-0.28938 0.33537,-0.0386 0.71494,-0.0327 1.08003,0.0253 0.876,0.13917 1.17501,0.0568 1.7229,-0.45889 0.50986,-0.47993 1.32248,-0.81804 2.00194,-0.81804 0.46377,0 1.22174,-0.24261 1.50017,-0.4532 0.44149,-0.33393 1.04761,-0.58569 1.55236,-0.59376 0.0939,-0.002 0.33385,-0.0685 0.57619,-0.19327 0.24234,-0.12475 0.49845,-0.30136 0.69143,-0.48266 0.51737,-0.48604 1.33024,-0.8353 2.00608,-0.83406 0.42731,9.1e-4 1.2982,-0.28701 1.74201,-0.60151 0.59262,-0.41997 1.50389,-0.72244 2.20917,-0.72244 0.61305,0 1.57885,-0.25961 2.35335,-0.59221 0.38724,-0.16629 0.732,-0.35056 0.96118,-0.51521 0.11458,-0.0823 0.19859,-0.16014 0.24391,-0.21498 0.0453,-0.0548 0.0393,-0.0783 0.0393,-0.0408 0,-0.0501 -0.15561,-0.29848 -0.32452,-0.36329 -0.4584,-0.17584 -0.71848,-0.58548 -0.72037,-0.9865 -9.5e-4,-0.20051 0.0652,-0.40655 0.2129,-0.56431 0.14768,-0.15777 0.37257,-0.25011 0.61495,-0.25011 -0.0178,0 0.0793,-0.0279 0.17984,-0.1602 0.10059,-0.13229 0.19834,-0.33737 0.24804,-0.56069 0.22687,-1.01944 0.33142,-1.54796 0.55656,-1.90789 0.11257,-0.17997 0.30953,-0.32278 0.50798,-0.34985 0.19845,-0.0271 0.36246,0.0185 0.54673,0.0667 0.12347,0.0323 0.21183,0.0425 0.24805,0.0408 -0.0146,0.0114 0.047,-0.12045 0.047,-0.45321 0,-0.28305 0.0435,-0.56086 0.12092,-0.80098 0.0774,-0.24012 0.16001,-0.45355 0.39274,-0.59738 -0.0713,0.0441 0.0276,-0.0486 0.0486,-0.25993 0.021,-0.21134 0.007,-0.50843 -0.0527,-0.82579 l -0.22273,-1.18959 c -0.0467,-0.2447 0.19288,-0.44591 0.42582,-0.3576 l 1.04128,0.39274 c 0.6426,0.24255 1.1631,0.25412 1.41386,0.15813 0.12537,-0.048 0.17965,-0.10444 0.21084,-0.1757 0.0312,-0.0713 0.0461,-0.18428 -0.0114,-0.36536 -0.0951,-0.29961 -0.1666,-0.57229 0.008,-0.83199 0.0871,-0.12985 0.22555,-0.20701 0.35554,-0.24391 0.12998,-0.0369 0.26307,-0.045 0.41393,-0.045 0.33011,0 0.46974,-0.10221 0.5395,-0.24649 0.0698,-0.14428 0.0734,-0.40895 -0.10956,-0.76533 -0.25707,-0.50072 -0.28184,-1.03192 -0.045,-1.45883 0.23687,-0.42692 0.69531,-0.71856 1.28932,-0.86764 0.45761,-0.11486 1.12536,-0.45963 1.33584,-0.65423 0.30822,-0.28496 1.13878,-0.99607 1.86914,-1.60558 0.34973,-0.29185 0.66812,-0.61102 0.89245,-0.8785 0.11217,-0.13375 0.20175,-0.25513 0.2558,-0.34572 0.054,-0.0906 0.0589,-0.16427 0.0589,-0.10749 0,-0.25825 0.0566,-0.48793 0.17931,-0.67179 0.12272,-0.18387 0.31906,-0.31276 0.53124,-0.34572 0.42437,-0.0659 0.84099,0.19002 1.15238,0.63459 0.11467,0.16371 0.28909,0.3282 0.46509,0.44132 0.176,0.11311 0.35762,0.16796 0.4315,0.16795 0.0212,0 0.24847,-0.088 0.49041,-0.30076 0.24193,-0.2128 0.51603,-0.52103 0.76739,-0.86145 0.50272,-0.68085 0.89571,-1.53699 0.89866,-1.87275 0.0113,-1.24142 0.30582,-2.2321 0.9219,-2.92179 0.61608,-0.68968 1.53435,-1.04201 2.67374,-1.07228 0.43714,-0.0116 0.65232,-0.12509 0.7028,-0.17984 0.0252,-0.0274 0.0273,-0.033 0.0274,-0.0584 1.9e-4,-0.0254 -0.0102,-0.0767 -0.0527,-0.14676 -0.17007,-0.28013 -0.85946,-0.73662 -1.82418,-0.82992 -0.51995,-0.0503 -0.90002,-0.12541 -1.20096,-0.36122 -0.30094,-0.23582 -0.44898,-0.5863 -0.57464,-1.04697 -0.12682,-0.4649 -0.18797,-0.82938 -0.0703,-1.18184 0.11768,-0.35246 0.38369,-0.61099 0.76998,-0.92552 0.2286,-0.18613 0.43753,-0.39247 0.58188,-0.56069 0.0722,-0.0841 0.12885,-0.15936 0.16019,-0.21084 0.0313,-0.0515 0.0233,-0.0921 0.0233,-0.0119 0,-0.25765 0.10461,-0.3881 0.22841,-0.58756 0.1238,-0.19947 0.2877,-0.41732 0.47077,-0.6196 0.23683,-0.26165 0.57238,-1.14357 0.60771,-1.77302 0.0411,-0.73142 0.17535,-1.73554 0.31213,-2.3027 0.0921,-0.38177 0.0871,-0.55548 0.0434,-0.64285 -0.0437,-0.0874 -0.18725,-0.20555 -0.55501,-0.37311 -0.40154,-0.18295 -0.69037,-0.3603 -0.88263,-0.59169 -0.0961,-0.11569 -0.16922,-0.2532 -0.18552,-0.41031 -0.0163,-0.1571 0.033,-0.32009 0.11886,-0.44339 0.17161,-0.24661 0.44443,-0.38808 0.80873,-0.52141 0.3643,-0.13333 0.83076,-0.24502 1.40612,-0.33797 0.45231,-0.0731 0.72569,-0.16908 0.86558,-0.2713 0.1399,-0.10223 0.19497,-0.20265 0.23048,-0.45113 0.0386,-0.26996 -0.002,-0.37249 -0.006,-0.37724 -0.004,-0.005 -0.0589,-0.0486 -0.30282,-0.0486 -0.33188,0 -0.64239,-0.15702 -0.9803,-0.3731 -0.33791,-0.21609 -0.68458,-0.50507 -0.97669,-0.83199 -0.42887,-0.47998 -0.68025,-0.70593 -1.03507,-0.83974 -0.35483,-0.13381 -0.86657,-0.18092 -1.77561,-0.20102 -0.86704,-0.0192 -1.37826,0.004 -1.6092,0.0682 -0.11548,0.0321 -0.14779,0.0613 -0.16795,0.0858 -0.0202,0.0245 -0.0436,0.0695 -0.0605,0.17777 -0.10883,0.69769 -0.43246,1.26046 -0.95136,1.5999 -0.5189,0.33944 -1.19786,0.45133 -2.00195,0.37465 -0.4098,-0.0391 -0.78079,-0.10706 -1.06815,-0.19327 -0.14368,-0.0431 -0.2666,-0.0877 -0.37517,-0.15037 -0.0543,-0.0313 -0.10583,-0.066 -0.15813,-0.12299 -0.0523,-0.057 -0.11317,-0.15144 -0.11317,-0.27751 0,0.12764 0.015,0.0538 -0.0765,-0.0134 -0.0915,-0.0672 -0.23946,-0.1463 -0.4005,-0.19741 -0.17239,-0.0547 -0.30907,-0.0943 -0.44131,-0.16794 -0.0661,-0.0368 -0.1358,-0.0838 -0.19534,-0.16795 -0.0595,-0.0842 -0.0902,-0.20793 -0.0801,-0.30851 0.0203,-0.20116 0.11539,-0.3119 0.22841,-0.4532 0.11302,-0.14131 0.26271,-0.30606 0.46096,-0.51987 0.35765,-0.38573 0.73952,-0.66047 1.28364,-0.83561 0.54412,-0.17514 1.24171,-0.26752 2.31614,-0.3576 1.00884,-0.0846 1.65334,-0.17301 2.01951,-0.28318 0.18308,-0.0551 0.29304,-0.11514 0.34985,-0.16227 0.0568,-0.0471 0.0724,-0.0752 0.0894,-0.14056 0.13105,-0.50115 0.58209,-0.86387 1.11569,-1.15238 0.53361,-0.2885 1.17357,-0.48421 1.77922,-0.48421 0.19936,0 0.3003,-0.0495 0.33177,-0.076 0.0315,-0.0265 0.028,-0.0199 0.0217,-0.0589 -0.0126,-0.078 -0.18964,-0.33197 -0.62528,-0.44131 -0.28952,-0.0727 -0.54718,-0.20438 -0.74983,-0.37517 -0.20266,-0.17079 -0.3731,-0.38684 -0.3731,-0.67748 0,-0.15759 0.0576,-0.33409 0.17415,-0.46096 0.1165,-0.12686 0.26716,-0.20149 0.43718,-0.25218 0.34003,-0.10137 0.7899,-0.1266 1.45314,-0.1266 1.28695,0 1.81623,-0.16493 2.49442,-0.74828 0.2495,-0.2146 0.44096,-0.44422 0.5426,-0.62115 0.0508,-0.0885 0.0766,-0.16348 0.0842,-0.20309 0.008,-0.0396 -0.004,-0.028 0.0155,0.004 0.033,0.0534 -0.0315,-0.0282 -0.14624,-0.0956 -0.11479,-0.0674 -0.28018,-0.14949 -0.47698,-0.23462 -0.39359,-0.17026 -0.91462,-0.35566 -1.45469,-0.50953 -0.56129,-0.15994 -1.10738,-0.34121 -1.54306,-0.50591 -0.21784,-0.0824 -0.40722,-0.16064 -0.56069,-0.23254 -0.15347,-0.0719 -0.25895,-0.11781 -0.37103,-0.22273 -0.10382,-0.0972 -0.5211,-0.22368 -0.91209,-0.21652 -0.1955,0.004 -0.38418,0.0316 -0.52142,0.076 -0.13723,0.0444 -0.20764,0.11006 -0.21084,0.11524 -0.14671,0.23738 -0.28633,0.40847 -0.49816,0.50178 -0.10591,0.0467 -0.24257,0.0642 -0.36742,0.0258 -0.12485,-0.0384 -0.22066,-0.12505 -0.28319,-0.21498 -0.12506,-0.17987 -0.1626,-0.38577 -0.17569,-0.63303 -0.0131,-0.24725 0.0102,-0.53634 0.0723,-0.86713 0.17255,-0.91979 0.38887,-1.55358 0.84956,-1.93942 0.46069,-0.38583 1.08871,-0.42487 1.87896,-0.29662 0.89966,0.14599 1.31324,0.0435 2.10943,-0.52348 0.47764,-0.34011 0.78982,-0.54672 1.13688,-0.60927 0.34706,-0.0626 0.66457,0.0907 0.94723,0.31213 0.45935,0.35981 0.77167,0.65784 0.97462,1.00769 0.20294,0.34985 0.27172,0.73302 0.27492,1.18597 0.001,0.16475 0.0414,0.33297 0.0941,0.44907 0.0526,0.11611 0.12584,0.15632 0.0956,0.14624 0.11085,0.0369 0.22541,0.10073 0.31057,0.21136 0.0851,0.11062 0.11896,0.25679 0.11111,0.38241 -0.0157,0.25125 -0.13329,0.46201 -0.30851,0.74259 -0.33647,0.53877 -0.32859,0.8956 -0.20671,1.0759 0.12189,0.18029 0.45773,0.32556 1.09141,0.22272 0.52656,-0.0854 0.98176,-0.0682 1.35961,0.0507 0.37785,0.11876 0.68341,0.35098 0.84387,0.67024 0.32094,0.63851 0.0466,1.46588 -0.69349,2.25361 -0.38179,0.40641 -0.48857,0.79663 -0.44752,1.01182 0.0205,0.1076 0.0648,0.17629 0.14883,0.23617 0.084,0.0599 0.22003,0.10955 0.42736,0.10955 0.0915,0 0.28173,-0.0629 0.49041,-0.20309 0.20869,-0.14019 0.43643,-0.34682 0.64079,-0.58032 0.40871,-0.46702 0.7028,-1.06914 0.7028,-1.35703 0,-0.27478 0.026,-0.50173 0.10387,-0.70125 0.0779,-0.19952 0.24297,-0.38963 0.46457,-0.44338 0.22161,-0.0538 0.43001,0.0134 0.6289,0.12092 0.19889,0.1075 0.40338,0.26667 0.6289,0.47853 0.60906,0.57215 0.86951,1.21113 0.70332,1.87327 -0.0631,0.2515 -0.0518,0.39189 -0.004,0.49609 0.0478,0.1042 0.15528,0.21339 0.39481,0.34158 0.33777,0.18077 0.60986,0.40235 0.7183,0.73846 0.10843,0.33611 0.0624,0.69915 -0.0351,1.21853 -0.0991,0.52834 -0.083,0.80417 -0.0816,0.81442 0.0418,0.0122 0.15432,0.0253 0.31832,0.0253 0.36174,0 0.5743,-0.16305 0.65423,-0.46871 0.0663,-0.25361 0.15808,-0.45912 0.27905,-0.61908 0.12098,-0.15996 0.28261,-0.29318 0.50384,-0.30437 0.22122,-0.0112 0.42496,0.14473 0.51987,0.32194 0.0949,0.17721 0.13074,0.38616 0.13074,0.64079 0,0.16361 0.22817,0.59874 0.70693,1.07435 0.47876,0.47561 1.171,1.01096 1.97301,1.53117 1.60402,1.04042 3.65512,2.02281 5.34748,2.44895 0.96214,0.24227 1.8875,0.21491 2.4939,0.0217 0.30321,-0.0966 0.52112,-0.23493 0.63304,-0.36741 0.11191,-0.13249 0.14161,-0.24005 0.0956,-0.416 -0.0845,-0.32294 -0.005,-0.68642 0.23461,-0.9586 0.23923,-0.27219 0.59901,-0.49442 1.12293,-0.76171 0.793,-0.40455 1.78545,-0.73277 2.41794,-0.73277 0.249,0 0.43072,-0.0436 0.55087,-0.10542 0.12015,-0.0619 0.18699,-0.13484 0.23409,-0.25011 0.0942,-0.23054 0.0657,-0.69318 -0.20515,-1.34721 -0.17273,-0.41696 -0.27469,-0.73528 -0.28319,-1.03714 -0.008,-0.30186 0.11432,-0.58508 0.31265,-0.78342 0.1268,-0.12681 0.31057,-0.57396 0.31057,-0.8046 0,-0.54457 0.31362,-1.23289 0.73071,-1.98851 0.41708,-0.75562 0.94904,-1.52729 1.46451,-2.04277 0.32887,-0.32888 0.6342,-1.01349 0.63872,-1.29501 0.009,-0.54428 0.24896,-1.28662 0.55862,-1.82831 0.10893,-0.19056 0.2431,-0.64571 0.33021,-1.2206 0.0871,-0.57489 0.14076,-1.27845 0.14469,-2.02158 l 0.0134,-2.51716 c 8.2e-4,-0.15109 0.10767,-0.28082 0.2558,-0.31058 l 1.14463,-0.23254 c 0.63752,-0.12965 1.70855,-0.3251 2.39469,-0.43563 0.66925,-0.10781 1.2188,-0.34899 1.80454,-0.83613 0.58574,-0.48715 1.20113,-1.22779 1.93735,-2.31614 0.4839,-0.71534 0.72002,-1.11917 0.80667,-1.48053 0.0867,-0.36135 0.0452,-0.74001 -0.0935,-1.45727 -0.15227,-0.78689 -0.25373,-1.1188 -0.37103,-1.22628 -0.0587,-0.0537 -0.14739,-0.0967 -0.34003,-0.13281 -0.19263,-0.0362 -0.47484,-0.0585 -0.85732,-0.0858 -0.99523,-0.0713 -1.94733,0.1242 -3.01377,0.63252 -0.89416,0.42619 -2.061,0.9844 -2.59364,1.24023 -0.28779,0.13822 -0.54998,0.22979 -0.77721,0.26407 -0.11362,0.0171 -0.21744,0.0258 -0.34572,-0.0119 -0.0641,-0.0189 -0.13886,-0.0534 -0.20308,-0.12506 -0.0642,-0.0717 -0.1018,-0.17967 -0.10181,-0.26768 0,0.0302 -0.008,-0.0403 -0.0661,-0.13643 -0.0581,-0.0961 -0.15343,-0.22332 -0.27544,-0.36328 -0.24403,-0.27992 -0.5942,-0.61547 -0.98237,-0.94361 -0.77635,-0.65627 -1.73628,-1.28842 -2.24637,-1.45676 -0.87081,-0.28736 -1.42914,-0.29333 -2.33578,-0.0217 -0.57045,0.17091 -1.41347,0.68658 -2.17196,1.31259 -0.75849,0.626 -1.44774,1.37118 -1.76785,1.94303 -0.0897,0.16033 -0.17153,0.29414 -0.27905,0.41031 -0.10751,0.11617 -0.25519,0.21431 -0.42168,0.24598 -0.33299,0.0633 -0.62044,-0.0719 -1.04903,-0.26717 -1.28276,-0.58447 -2.09347,-0.5216 -3.25562,0.24805 -0.63221,0.41871 -1.4421,0.75417 -2.03346,0.75551 -0.34577,0.001 -1.01414,0.19524 -1.31465,0.38292 -0.26252,0.16394 -0.48593,0.2823 -0.74208,0.30076 -0.25615,0.0185 -0.53715,-0.14577 -0.66197,-0.37672 -0.24964,-0.46188 -0.23918,-1.12885 -0.19327,-2.26395 0.0289,-0.71499 0.008,-1.23102 -0.0667,-1.60713 -0.0741,-0.37611 -0.19108,-0.6076 -0.37311,-0.80874 -0.14554,-0.16083 -0.26444,-0.29748 -0.35708,-0.45527 -0.0926,-0.15779 -0.14971,-0.34358 -0.14676,-0.53692 0.006,-0.38669 0.18034,-0.761 0.48266,-1.43143 0.18161,-0.40273 0.39954,-0.8102 0.60926,-1.15084 0.20972,-0.34065 0.38741,-0.60198 0.5917,-0.77153 0.0165,-0.0137 0.15263,-0.23038 0.23047,-0.51935 0.0779,-0.28896 0.12919,-0.65182 0.12919,-0.99787 0,-0.61668 -0.009,-0.99096 0.19327,-1.31051 0.10123,-0.15978 0.27286,-0.27218 0.44339,-0.3204 0.17053,-0.0482 0.34414,-0.0548 0.54673,-0.0548 0.18911,0 0.40267,-0.0466 0.57051,-0.11731 0.16783,-0.0707 0.28178,-0.17432 0.30076,-0.2067 0.13355,-0.22788 0.35075,-0.40546 0.63097,-0.6134 0.28022,-0.20794 0.61848,-0.41882 0.96066,-0.59377 0.42747,-0.21857 0.67361,-0.40282 0.77567,-0.53536 0.10206,-0.13253 0.11266,-0.20072 0.0605,-0.4005 -0.0721,-0.2756 -0.0496,-0.58213 0.0134,-0.91002 0.0629,-0.32788 0.17322,-0.66782 0.32815,-0.9648 0.17887,-0.34286 0.30334,-0.60634 0.36122,-0.79685 0.0579,-0.19052 0.0552,-0.29032 0.0181,-0.39067 -0.0743,-0.20069 -0.43742,-0.51331 -1.2485,-1.03921 -1.07502,-0.69706 -1.79823,-0.91195 -3.0918,-0.91778 l -1.78077,-0.008 c -0.11427,-7.7e-4 -0.21938,-0.0627 -0.27544,-0.16226 l -1.41231,-2.51768 c -2.16177,-3.85705 -8.62456,-13.55211 -11.0939,-16.6486 -1.36797,-1.71538 -2.73466,-3.25283 -3.84369,-4.35322 -0.55451,-0.5502 -1.04623,-0.9912 -1.43144,-1.28726 -0.1926,-0.14804 -0.3591,-0.25922 -0.48627,-0.32814 -0.12717,-0.0689 -0.22024,-0.0858 -0.21136,-0.0858 0.0111,0 0.0401,-0.0339 0.008,0.0217 -0.032,0.0556 -0.0752,0.18868 -0.0977,0.3669 -0.045,0.35644 -0.0213,0.88711 0.0625,1.44126 0.0838,0.55416 0.227,1.13797 0.40617,1.61747 0.17918,0.4795 0.41179,0.8526 0.57413,0.9803 0.37214,0.29272 0.6466,0.5778 0.73225,1.00614 0.0856,0.42834 0.0155,0.92578 -0.11885,1.77922 -0.15567,0.98907 -0.55705,2.45152 -0.98857,3.75791 -0.21576,0.65319 -0.4397,1.26517 -0.64441,1.75752 -0.20472,0.49235 -0.36233,0.84423 -0.56637,1.07435 -0.19134,0.21581 -0.47204,0.24662 -0.73432,0.21291 -0.26229,-0.0337 -0.54445,-0.13594 -0.84181,-0.29508 -0.23672,-0.12669 -0.42999,-0.19602 -0.56844,-0.21652 -0.13845,-0.0205 -0.21228,-7.9e-4 -0.27544,0.0388 -0.12632,0.079 -0.28557,0.37001 -0.35553,0.97668 -0.0289,0.25055 0.003,0.41619 0.0801,0.55449 0.077,0.13831 0.21128,0.26665 0.4532,0.39067 0.18081,0.0927 0.32391,0.17 0.44338,0.25425 0.11948,0.0842 0.23557,0.17943 0.28939,0.35347 0.0538,0.17404 -0.0161,0.36146 -0.0997,0.47439 -0.0836,0.11293 -0.184,0.19949 -0.30851,0.30282 -0.0693,0.0575 -0.25922,0.31436 -0.42375,0.63304 -0.16452,0.31867 -0.32543,0.70809 -0.43563,1.0759 -0.33668,1.12374 -0.8242,1.71036 -1.7694,2.1053 -0.33634,0.14053 -0.5953,0.30918 -0.75603,0.46715 -0.16074,0.15798 -0.21497,0.29245 -0.21497,0.38654 0,0.41365 -0.28741,0.72742 -0.62477,0.93948 -0.33735,0.21205 -0.7569,0.35306 -1.18959,0.42995 -0.43269,0.0769 -0.87653,0.0878 -1.26763,0.006 -0.39108,-0.0822 -0.76962,-0.27385 -0.91777,-0.6599 -0.0179,-0.0466 -0.10798,-0.12525 -0.36328,-0.16434 -0.2553,-0.0391 -0.62433,-0.0224 -1.02371,0.0548 -0.79875,0.15444 -1.72151,0.55128 -2.24018,1.03146 -0.49668,0.45982 -1.66277,1.88469 -2.50372,3.08405 -0.62933,0.89752 -0.99723,1.48546 -1.17616,1.92185 -0.17892,0.4364 -0.18897,0.70617 -0.1111,1.09554 0.0839,0.41939 0.17255,0.60419 0.25786,0.67748 0.0853,0.0733 0.25654,0.12144 0.6563,0.12144 0.36484,0 0.64403,0.0346 0.86713,0.11679 0.11156,0.0411 0.21345,0.0927 0.30075,0.18603 0.0873,0.0933 0.14775,0.24862 0.12868,0.39016 -0.0381,0.28308 -0.23765,0.41367 -0.46096,0.5333 -0.2233,0.11964 -0.51581,0.21894 -0.88831,0.30076 -0.27926,0.0613 -0.74882,0.31476 -1.27176,0.71313 -0.52294,0.39837 -1.11057,0.93653 -1.69912,1.55081 -1.1771,1.22854 -2.35768,2.767 -3.0701,4.10363 -0.30758,0.57706 -0.62535,1.12405 -0.89297,1.54667 -0.13381,0.21131 -0.25495,0.39085 -0.35915,0.53123 -0.10419,0.14038 -0.1502,0.22953 -0.30644,0.32608 -0.007,0.004 -0.0685,0.0704 -0.10387,0.24443 -0.0354,0.17403 -0.0451,0.4284 -0.0253,0.72812 0.0397,0.59942 0.19546,1.3757 0.41806,2.13321 0.22259,0.75751 0.51293,1.50022 0.80874,2.0407 0.1479,0.27025 0.29728,0.48949 0.42736,0.6289 0.13009,0.13942 0.23375,0.18037 0.25425,0.1819 0.0567,0.004 0.12438,0.007 0.22066,0.078 0.0963,0.0711 0.15705,0.26735 0.12867,0.37104 -0.0568,0.20738 -0.1408,0.22216 -0.22066,0.28112 -0.15972,0.11793 -0.38659,0.23698 -0.68729,0.36949 -0.46151,0.20337 -0.76281,0.32958 -1.08779,0.30644 -0.1625,-0.0116 -0.32228,-0.0755 -0.44545,-0.17002 -0.12316,-0.0945 -0.21768,-0.21096 -0.31471,-0.34365 -0.15374,-0.21025 -0.20469,-0.24161 -0.28319,-0.25011 -0.0785,-0.008 -0.28822,0.0388 -0.65784,0.20722 -0.34213,0.15589 -0.62919,0.48882 -0.72657,0.72451 -0.0487,0.11785 -0.0376,0.19951 -0.0413,0.18965 -0.004,-0.01 -0.0708,-0.0274 0.0176,-0.0274 0.15483,0 0.28977,0.0912 0.36173,0.18138 0.072,0.0901 0.10876,0.18371 0.13643,0.28319 0.0554,0.19898 0.0656,0.42915 0.0393,0.68006 -0.0452,0.43179 -0.10071,1.06666 -0.12505,1.39992 -0.0366,0.50159 -0.41179,0.86622 -0.82631,0.89658 -0.41452,0.0304 -0.83763,-0.2426 -1.01958,-0.71675 -0.0628,-0.16372 -0.31378,-0.32401 -0.38292,-0.32401 -0.29059,0 -0.49575,-0.13923 -0.74414,-0.31471 -0.24839,-0.17548 -0.50738,-0.40874 -0.73432,-0.66973 -0.29666,-0.34119 -0.4959,-0.50148 -0.70073,-0.57257 -0.20482,-0.0711 -0.46727,-0.071 -0.91829,0.0119 -0.6824,0.1254 -1.36288,0.39509 -1.81436,0.66973 -0.22574,0.13732 -0.39468,0.28022 -0.46871,0.37517 -0.0353,0.0453 -0.0439,0.073 -0.045,0.0765 0.0515,0.0922 0.0974,0.18784 0.092,0.31058 -0.006,0.14125 -0.0979,0.29045 -0.20309,0.36122 -0.21038,0.14152 -0.40557,0.11902 -0.61547,0.0879 -0.41979,-0.0624 -0.9172,-0.27074 -1.28312,-0.63666 -0.16394,-0.16393 -0.31648,-0.24602 -0.54312,-0.28732 -0.22664,-0.0413 -0.53627,-0.0302 -0.95912,0.0491 -0.26555,0.0498 -0.47736,0.0847 -0.65422,0.10128 -0.17686,0.0166 -0.3172,0.0253 -0.47646,-0.031 -0.15926,-0.0563 -0.31257,-0.26655 -0.32039,-0.42995 -0.008,-0.16339 0.0388,-0.28094 0.092,-0.41962 0.003,-0.007 10e-4,-0.005 0.004,-0.0119 -0.1065,0.0127 -0.24853,0.0376 -0.44184,0.0801 -0.63817,0.14017 -1.18523,0.0688 -1.53117,-0.24237 -0.17297,-0.15559 -0.28011,-0.41248 -0.22841,-0.65784 0.0517,-0.24536 0.22251,-0.44511 0.46302,-0.6134 0.0161,-0.0112 0.0171,-0.0149 0.031,-0.0253 -0.15993,-0.10282 -0.27739,-0.25253 -0.32608,-0.42219 -0.0589,-0.2051 -0.0475,-0.42941 0.0351,-0.64441 4.9e-4,-0.001 -4.7e-4,-7.6e-4 0,-0.002 -0.0588,0.001 -0.1809,-0.0155 -0.52555,0.0351 -0.26426,0.0388 -0.46815,0.069 -0.65216,0.0703 -0.18402,0.001 -0.39618,-0.0294 -0.54312,-0.19688 -0.14694,-0.16743 -0.15482,-0.36404 -0.14624,-0.55501 0.009,-0.19097 0.0437,-0.41003 0.0899,-0.69505 0.0493,-0.3039 0.0516,-0.53387 0.0274,-0.66404 -0.0241,-0.13017 -0.0472,-0.13035 -0.0527,-0.13281 -0.006,-0.002 -0.0808,-0.0188 -0.24442,0.0465 -0.16366,0.0652 -0.39427,0.2017 -0.66973,0.41031 -0.49127,0.37207 -1.21765,0.49938 -1.86707,0.36949 -0.3863,-0.0773 -1.40932,0.0571 -2.05672,0.32763 -0.36928,0.1543 -0.67685,0.25964 -0.94723,0.30696 -0.27038,0.0473 -0.52872,0.0443 -0.74621,-0.10336 -0.21749,-0.14761 -0.30712,-0.40914 -0.31833,-0.66611 -0.0112,-0.25696 0.0371,-0.54583 0.12506,-0.89658 0.0829,-0.3301 0.0639,-0.49029 0.0682,-0.49041 -0.0268,-0.008 -0.0898,-0.0215 -0.19533,-0.0233 -0.50855,-0.009 -1.01902,-0.2366 -1.43351,-0.54105 -0.41449,-0.30445 -0.76946,-0.6783 -0.76946,-1.16582 0,-0.11189 0.0202,-0.23115 0.0879,-0.34003 0.0677,-0.10888 0.18655,-0.19179 0.30282,-0.22479 0.23254,-0.066 0.43847,-0.003 0.66973,0.0961 0.2423,0.10308 1.14956,0.29699 1.8557,0.36483 0.5576,0.0536 0.85815,0.0366 1.00562,-0.0274 0.14746,-0.0641 0.24349,-0.18554 0.40618,-0.5426 0.11588,-0.25434 0.19012,-0.44839 0.21704,-0.56844 0.0269,-0.12005 0.009,-0.12947 0.0114,-0.12506 0.003,0.004 -0.0321,-0.0371 -0.17932,-0.0744 -0.14717,-0.0373 -0.37979,-0.0657 -0.69143,-0.0915 -0.41959,-0.0347 -0.73186,-0.0602 -0.95911,-0.32039 -0.11362,-0.13009 -0.15912,-0.30527 -0.1602,-0.46096 -10e-4,-0.15569 0.0299,-0.30906 0.0744,-0.48627 0.0661,-0.26335 0.0531,-0.38044 -0.0103,-0.49041 -0.0631,-0.10997 -0.22951,-0.25501 -0.56637,-0.4315 -0.31924,-0.16728 -0.54582,-0.31218 -0.69712,-0.52141 -0.0756,-0.10461 -0.13907,-0.24937 -0.11162,-0.41238 0.0275,-0.16302 0.14307,-0.2871 0.25632,-0.35709 0.0932,-0.0576 0.23905,-0.36981 0.24184,-0.66042 0.001,-0.14531 -0.0284,-0.27727 -0.0584,-0.33796 -0.03,-0.0607 -0.007,-0.031 0,-0.031 0.0271,0 -0.0374,0.007 -0.11731,0.0372 -0.0799,0.0299 -0.18547,0.076 -0.30282,0.13642 -0.2347,0.12094 -0.51704,0.29386 -0.77928,0.48059 -0.38903,0.27702 -0.69092,0.44304 -0.9648,0.51005 -0.13694,0.0335 -0.8487,0.27257 -1.45464,0.18496 -0.60594,-0.0876 -2.08706,-0.0886 -1.83259,-0.76653 0.46195,-1.23061 2.07214,-1.38627 3.76357,-2.9718 0.28242,-0.26474 0.38893,-0.25446 0.79336,-0.66264 0.13711,-0.13838 0.31746,-0.22199 0.4041,-0.43849 0.0867,-0.2165 0.20818,-0.47249 0.35553,-0.75757 0.29469,-0.57017 0.69635,-1.25623 1.13895,-1.92805 0.70559,-1.07102 1.2269,-2.1142 1.45262,-2.78329 0.0755,-0.22373 0.0707,-0.29632 0.0822,-0.39843 -0.0522,0.0207 -0.0914,0.0544 -0.16795,0.0512 -0.13884,-0.006 -0.30722,-0.13927 -0.3514,-0.25786 -0.0883,-0.23717 -0.014,-0.37643 0.0605,-0.57051 0.17169,-0.44748 0.64643,-0.7452 1.10175,-0.57051 0.0283,0.0109 0.1152,0.0153 0.24029,-0.031 0.12509,-0.0464 0.2766,-0.1375 0.41393,-0.25373 0.27467,-0.23246 0.46529,-0.57514 0.46457,-0.72863 -7e-5,-0.0135 -0.0413,-0.23173 -0.12454,-0.46096 -0.0832,-0.22923 -0.20204,-0.49832 -0.32815,-0.74 -0.14977,-0.28701 -0.25058,-0.59252 -0.29713,-0.8754 -0.0465,-0.28289 -0.0686,-0.5408 0.0858,-0.79065 0.0579,-0.0937 0.11546,-0.17417 0.20929,-0.2465 0.0938,-0.0723 0.26749,-0.12797 0.41393,-0.0801 0.14643,0.0479 0.2223,0.14498 0.28112,0.23461 0.0588,0.0896 0.10348,0.18806 0.14831,0.30489 0.0488,0.12728 0.059,0.12126 0.0822,0.15038 0.0949,-0.16087 0.23616,-0.60605 0.23616,-1.2268 0,-0.54406 0.0413,-0.9493 0.20723,-1.29294 0.16589,-0.34364 0.45491,-0.58259 0.8263,-0.78135 0.37938,-0.20304 0.82774,-0.80948 0.93948,-1.31826 0.0582,-0.26505 0.10115,-0.46623 0.15038,-0.62684 0.0246,-0.0803 0.0495,-0.15018 0.0899,-0.22272 0.0404,-0.0725 0.10192,-0.16156 0.22634,-0.21291 0.12442,-0.0513 0.27187,-0.0237 0.35553,0.0196 0.0837,0.0433 0.13481,0.0934 0.18914,0.14831 0.10866,0.10991 0.21658,0.24909 0.35967,0.4315 0.21133,0.26944 0.36119,0.38706 0.67179,0.47077 0.3106,0.0837 0.79935,0.10885 1.58388,0.0858 0.93049,-0.0273 1.409,-0.0825 1.54874,-0.15606 0.0699,-0.0368 0.0802,-0.0489 0.11369,-0.14056 0.0335,-0.0916 0.0618,-0.2609 0.0894,-0.50385 0.11176,-0.98016 -0.40601,-2.28683 -1.33945,-3.22461 -0.66054,-0.66363 -0.78545,-1.87476 -0.68575,-2.88509 0.0499,-0.50516 0.15915,-0.95728 0.37672,-1.2945 0.10879,-0.16861 0.2547,-0.32056 0.45941,-0.38912 0.2047,-0.0686 0.44431,-0.0248 0.63665,0.094 0.23747,0.14677 0.32037,0.38648 0.36329,0.63045 0.0429,0.24396 0.0327,0.5154 -0.0351,0.78549 -0.0654,0.26059 0.0371,0.92269 0.30075,1.57819 0.26363,0.6555 0.66766,1.32809 1.06609,1.72651 0.28672,0.28673 0.55936,0.65917 0.67231,0.99787 0.006,0.0188 -0.006,0.0171 0.0465,0.0295 0.0532,0.0124 0.16857,0.01 0.31057,-0.045 0.18367,-0.0705 0.22861,-0.1239 0.25787,-0.19947 0.0293,-0.0756 0.0388,-0.23681 -0.031,-0.51521 -0.0952,-0.37921 -0.0837,-0.75996 0.10542,-1.10743 0.18917,-0.34747 0.51158,-0.65789 1.00563,-1.06453 0.75604,-0.6223 1.15394,-1.26852 1.20922,-1.82832 0.0235,-0.23799 0.03,-0.40924 0.0176,-0.50953 -0.0124,-0.1003 -0.0237,-0.11731 -0.0646,-0.15451 -0.0817,-0.0744 -0.44433,-0.19805 -1.18339,-0.34365 -1.00804,-0.1986 -1.76782,-0.48415 -2.2133,-0.83612 -0.22274,-0.17598 -0.41873,-0.40979 -0.36691,-0.71675 0.0259,-0.15347 0.1197,-0.28328 0.23048,-0.37311 0.11078,-0.0898 0.24272,-0.15207 0.39636,-0.20309 0.34779,-0.11549 1.12935,-0.42883 1.69344,-0.68161 0.30252,-0.13557 0.60139,-0.24137 0.85524,-0.30644 0.12693,-0.0325 0.24196,-0.0554 0.34985,-0.0646 0.10789,-0.009 0.20636,-0.0351 0.36742,0.0646 -0.038,-0.0235 0.023,0.01 0.10129,0.031 0.0782,0.0216 0.18684,0.0467 0.31264,0.0723 0.25161,0.0511 0.5747,0.10434 0.9002,0.1447 1.2584,0.15608 2.32407,0.41029 3.09955,0.72864 0.38775,0.15918 0.70331,0.3326 0.94155,0.53691 0.23823,0.20432 0.41599,0.46066 0.41599,0.76533 0,0.16783 0.0441,0.21592 0.0703,0.23668 0.0262,0.0208 0.0718,0.0356 0.15813,0.0155 0.17268,-0.0402 0.42836,-0.24467 0.48059,-0.60926 0.0461,-0.32155 -0.12951,-1.21845 -0.50797,-2.31046 -0.37847,-1.092 -0.9389,-2.41674 -1.58595,-3.77186 -1.29411,-2.71026 -2.95183,-5.558739 -4.16771,-6.935493 -0.56085,-0.635059 -0.86186,-0.92555 -1.06453,-1.005623 -0.10134,-0.04004 -0.19186,-0.04972 -0.34985,-0.02739 -0.15799,0.02232 -0.37558,0.08328 -0.66766,0.173633 -0.91109,0.281812 -1.80776,0.456766 -2.50011,0.510046 -0.34618,0.02664 -0.63902,0.02496 -0.88108,-0.0217 -0.12103,-0.02333 -0.23064,-0.0547 -0.33952,-0.128674 -0.0734,-0.04986 -0.13381,-0.141565 -0.17414,-0.242879 -0.016,-0.0054 -0.0311,-0.01242 -0.0837,-0.02119 -0.14502,-0.02413 -0.39165,-0.03006 -0.67179,-0.0078 -0.56029,0.04459 -1.26877,0.19653 -1.74253,0.402559 -0.15558,0.06766 -0.33321,0.106453 -0.51522,0.07441 -0.18202,-0.03204 -0.34365,-0.132357 -0.48059,-0.267684 -0.2739,-0.270652 -0.5043,-0.689087 -0.8263,-1.351855 l -0.80461,-1.652096 c -0.0647,-0.13313 -0.0291,-0.29327 0.0858,-0.386539 l 0.84387,-0.68368 c 0.33828,-0.273919 0.48105,-0.447998 0.51573,-0.555004 0.0347,-0.107007 0.0178,-0.237859 -0.12299,-0.546737 -0.14691,-0.322442 -0.76429,-1.018034 -1.6738,-1.818494 -0.9095,-0.800459 -2.11491,-1.743628 -3.47472,-2.722314 -2.71963,-1.957372 -6.05639,-4.063921 -8.88886,-5.515943 z M 118.4666,94.212728 c 0.006,0.0021 0.0323,0.0088 0.0315,0.0083 -0.004,-0.002 -0.0765,-0.07342 -0.0765,-0.15813 -1e-5,0.05341 0.0255,0.10087 0.045,0.149862 z M 56.06627,173.18155 c 0.05672,0.002 0.108334,0.0551 0.166398,0.0899 -0.0069,-0.008 -0.004,-0.0184 -0.01189,-0.0253 -0.06949,-0.0608 -0.130894,-0.0636 -0.154512,-0.0646 z"
       sodipodi:nodetypes="ccsscsssccsssssscssssssssssssscssccssssssccccssssssssssscccccccscccccccscssssccsccscsccsscccsccccscscsscscscscccssssssccsscccssscsssssssccsscsccssccsssccccscccccsccscsccssssscscccscssssssssssssccssccccssccsscssssssscsscssssscccsscssssssscssccsssscssscccssssssssscccsssscssccsssscsscsssssscscssssscsssssssccsscscsssssssssscsccsccssscsssscccsssssssccscsssscsssssssssssccssssscsscccssscsssscsscscccscsccscccsscssssssssscsssssssssscsssssscscssssscsscsssssccsscssssscsscsccccssccsscssssssccssssssscsscccssssssccsscssssscsssscssssscccssscccsssccsssssscsssscsssssscccssscsscsccssscssscsscsccsssccssscscssccssscssccsssssssssssccssssscsssscssccccssscccccssccsccssssscscsscscsscsccssscscsssssssccsscsccccssssscsssscssssssscscscsssssssssscsscssscsssccscssssscscssscscsscsscsscsccccccsssssssccscssscsccccsscccccscccccccscsssscccsssscccsscscsccccccscssccsszzsscsscccccccsssscsscsccscssscccccscsccscsccsscscccccsssscssscssccccccssscscssssssssscscsssccccccssccccccccccsc" /></g></svg>
