<?xml version="1.0" encoding="UTF-8" standalone="no"?>
<!-- Created with Inkscape (http://www.inkscape.org/) -->

<svg
   width="207.608mm"
   height="240.089mm"
   viewBox="0 0 207.608 240.08901"
   version="1.1"
   id="svg1"
   xml:space="preserve"
   inkscape:version="1.3 (0e150ed6c4, 2023-07-21)"
   sodipodi:docname="Atlantic_Ocean-top.svg"
   xmlns:inkscape="http://www.inkscape.org/namespaces/inkscape"
   xmlns:sodipodi="http://sodipodi.sourceforge.net/DTD/sodipodi-0.dtd"
   xmlns="http://www.w3.org/2000/svg"
   xmlns:svg="http://www.w3.org/2000/svg"><sodipodi:namedview
     id="namedview1"
     pagecolor="#505050"
     bordercolor="#ffffff"
     borderopacity="1"
     inkscape:showpageshadow="0"
     inkscape:pageopacity="0"
     inkscape:pagecheckerboard="1"
     inkscape:deskcolor="#505050"
     inkscape:document-units="mm"
     inkscape:zoom="0.45254834"
     inkscape:cx="666.22717"
     inkscape:cy="511.54756"
     inkscape:window-width="1600"
     inkscape:window-height="837"
     inkscape:window-x="-8"
     inkscape:window-y="-8"
     inkscape:window-maximized="1"
     inkscape:current-layer="layer1" /><defs
     id="defs1"><inkscape:path-effect
       effect="simplify"
       id="path-effect9533"
       is_visible="true"
       lpeversion="1.3"
       threshold="2.2"
       steps="10"
       smooth_angles="360"
       helper_size="10"
       simplify_individual_paths="false"
       simplify_just_coalesce="false" /></defs><g
     inkscape:label="Layer 1"
     inkscape:groupmode="layer"
     id="layer1"
     transform="translate(13.304562,-13.539225)"><path
       style="fill:#555555;fill-opacity:1;fill-rule:evenodd;stroke-width:0.499999;stroke-linecap:round;stroke-linejoin:round"
       d="M 59.221192,253.62793 H 174.66634 c 11.98893,-21.29069 15.50293,-32.86621 19.63704,-46.9222 -2.27376,-1.24024 -3.7207,-3.3073 -2.99723,-3.92741 0.72347,-0.62012 1.03353,-1.757 0.62012,-3.10059 -0.41341,-1.34358 -0.62012,-4.54752 -1.65365,-5.4777 -1.03353,-0.93018 -2.06705,-3.82406 -1.757,-5.78776 0.31006,-1.9637 0.72347,-4.34082 0.10336,-5.4777 -1.03353,-3.41064 -1.55029,-4.65088 -2.48047,-5.89111 -0.93018,-1.24024 -1.24024,-1.34359 -0.93018,-2.99724 0.31006,-1.65364 0.20671,-3.51399 1.24024,-4.54752 1.03353,-1.03353 0.62012,-2.68718 1.34359,-3.72071 0.72347,-1.03352 2.17041,-0.93017 2.27376,-2.06705 0.10335,-1.13688 0.93017,-2.58382 -0.31006,-3.72071 -1.24023,-1.13688 -0.62012,-2.17041 0,-2.79052 0.62012,-0.62012 -0.72347,-2.48047 -1.24023,-3.30729 -0.51677,-0.82683 0.31005,-1.757 -0.82683,-3.20394 -1.13688,-1.44694 -2.17041,-3.10059 -3.30729,-3.514 -1.13688,-0.41341 -1.9637,-3.30729 -2.37712,-4.23747 -0.41341,-0.93017 1.5503,-1.13688 1.757,-2.06706 0.20671,-0.93017 -1.24023,-1.24023 -0.62011,-2.48046 0.62011,-1.24024 1.34358,-2.37712 0.82682,-3.3073 -0.51677,-0.93017 -0.72347,-2.58382 -2.27376,-2.27376 -1.5503,0.31006 -2.58383,0 -3.514,0.41341 -0.93018,0.41341 -2.17041,0.20671 -2.58382,-1.13688 -0.41341,-1.34359 -0.51677,-2.48047 -2.17041,-2.68717 -1.65365,-0.20671 -2.37712,0 -3.20394,0.41341 -0.82682,0.41341 -1.44694,-0.41341 -2.06706,0.41341 -0.62012,0.82682 -2.17041,0 -3.41064,1.03353 -1.24024,1.03353 -2.06706,1.86035 -3.41065,1.24023 -1.34359,-0.62011 -1.65364,-1.03353 -3.41064,-0.72347 -1.757,0.31006 -3.30729,-0.31006 -3.92741,0.31006 -0.62012,0.62012 -1.65365,1.96371 -3.514,0.72347 -1.86035,-1.24023 -3.514,-2.58382 -5.06429,-3.30729 -1.55029,-0.72347 -4.65088,-3.10059 -4.65088,-4.13412 0,-1.03352 -1.03353,-2.79052 -2.06706,-3.20393 -1.03352,-0.41342 -1.55029,-1.13689 -1.65364,-1.96371 -0.10335,-0.82682 -2.27376,-0.93017 -2.58382,-1.757 -0.31006,-0.82682 -0.62012,-1.44694 -0.20671,-2.27376 0.41341,-0.82682 -2.37711,-2.58382 -1.86035,-3.10059 0.51676,-0.51676 1.34359,-0.82682 1.757,-3.30729 0.41341,-2.48047 1.86035,-3.61735 0.62012,-4.34082 -1.24024,-0.72347 -0.82683,-1.44694 -0.31006,-1.9637 0.51676,-0.51677 -1.24024,-0.72347 -1.34359,-1.5503 -0.10335,-0.82682 -0.31006,-2.273758 0.93018,-3.41064 1.24023,-1.136881 1.24023,-4.030762 2.06705,-4.030762 0.82683,0 0.20671,-1.136881 0.82683,-2.067057 0.62011,-0.930176 1.65364,-1.44694 2.17041,-2.377116 0.51676,-0.930176 0.62011,-2.17041 2.17041,-2.273763 1.55029,-0.103353 2.79052,-1.136881 3.30729,-1.860351 0.51676,-0.72347 0.72347,-1.343588 0.31006,-2.997234 -0.41342,-1.653645 0.72347,-2.273763 1.44694,-3.927408 0.72347,-1.653646 2.79052,-1.240235 3.30729,-1.963705 0.51676,-0.72347 1.65364,-2.273763 1.44694,-3.307291 -0.20671,-1.033529 -1.34359,-2.273763 -2.48047,-1.963705 -1.13688,0.310059 -3.20394,0.413412 -3.20394,-0.516764 0,-0.930176 0.31006,-2.17041 -0.72347,-2.377116 -1.03353,-0.206706 -0.62012,-0.826823 -0.10335,-1.963705 0.51676,-1.136881 0.72347,-1.963704 0.2067,-2.790527 -0.51676,-0.826823 -0.10335,-1.756999 -0.93017,-2.790527 -0.82683,-1.033529 -0.51677,-2.273763 0.51676,-2.17041 1.03353,0.103352 1.24024,-0.72347 2.79053,-0.413412 1.55029,0.310059 5.271,1.033529 6.92464,0.620117 1.65365,-0.413411 2.06706,0.826823 2.17041,-0.413411 0.10335,-1.240234 1.03353,-1.963705 0.20671,-2.583822 -0.82683,-0.620117 0.2067,-1.653646 -0.93018,-1.756998 -1.13688,-0.103353 -0.41341,-1.343588 -1.757,-1.756999 -1.34358,-0.413412 -3.82405,-0.620117 -4.13411,-1.44694 -0.31006,-0.826823 -0.62012,-1.756999 0.51676,-2.067058 1.13688,-0.310058 2.27377,-0.206705 2.99724,0.206706 0.72347,0.413412 1.34358,0.103353 0.51676,-0.620117 -0.82682,-0.72347 -0.72347,-2.273763 0,-1.860352 0.72347,0.413412 1.44694,1.653646 2.37712,1.446941 0.93017,-0.206706 0.93017,-1.446941 1.86035,-1.343588 0.93017,0.103353 -0.20671,-1.963704 0.31006,-2.17041 0.51676,-0.206706 2.37711,0.206706 3.10058,-0.413411 0.72347,-0.620117 -0.10335,-2.790528 0.41341,-3.100586 0.51677,-0.310059 1.757,-0.310059 2.27377,-1.033529 0.51676,-0.72347 1.9637,-0.103353 2.58382,-0.413411 0.62012,-0.310059 0.93017,-0.310059 0,-1.550293 -0.93018,-1.240235 -2.37712,-3.100586 -1.86035,-4.030762 0.51676,-0.930176 1.24023,-0.930176 1.9637,-1.240234 0.72347,-0.310059 2.48047,-0.72347 2.48047,-0.72347 -1.34359,-1.550293 -1.757,-2.583822 -2.58382,-2.273764 -0.82683,0.310059 -1.44694,1.756999 -2.27377,2.067058 -0.82682,0.310058 -3.61735,-0.206706 -4.13411,-1.033529 -0.51676,-0.826823 -1.44694,-1.860351 -1.86035,-2.997233 -0.41341,-1.136881 -1.03353,-1.550293 -1.03353,-1.550293 h -8.26823 c 0,0 -15.81299,-4.237467 -20.15381,-6.097819 -1.44694,0.620117 -2.27376,0.206706 -2.99723,1.136882 -0.72347,0.930175 -1.24024,0.72347 -2.79053,0.620117 -1.55029,-0.103353 -3.10058,-0.516765 -3.514,-1.033529 -0.41341,-0.516764 -1.34358,-0.826823 -1.13688,-1.860351 0.20671,-1.033529 -0.93017,-0.310059 -1.44694,-1.240235 -1.24023,0.103353 -1.65364,0.103353 -1.65364,0.103353 l -9.71517,-4.754232 c -1.65365,0.72347 -1.34359,1.550293 -2.06706,2.480469 -0.72347,0.930176 -4.030761,2.273763 -4.650878,1.550293 -0.620118,-0.72347 -0.620118,-0.413411 -1.343588,0.310059 -0.72347,0.72347 -1.653646,-0.310059 -1.860351,0.310058 -0.206706,0.620117 -1.756999,0.413412 -1.240235,1.44694 0.516765,1.033529 0.930176,1.860352 -0.206705,2.273763 -1.136882,0.413412 -2.067058,1.136882 -2.067058,1.860352 0,0.72347 -0.620117,2.997233 -1.963704,4.857585 -2.997233,0 -29.868978,0 -29.868978,0 1.550293,2.067057 1.240234,1.756998 1.240234,2.687174 0,0.930176 0.620118,0.206706 0.826823,1.136882 0.206706,0.930175 0.930176,1.756998 0.206706,2.377115 -0.72347,0.620118 0.516764,0.72347 1.136882,1.653646 0.620117,0.930176 2.273763,0.620117 2.997233,1.240235 0.72347,0.620117 1.343587,0.930175 0.620117,1.44694 -0.72347,0.516764 1.136881,0.310058 1.653646,0.930176 0.516764,0.620117 0.72347,0.516764 0.620117,1.550292 -0.103353,1.033529 0.72347,1.653646 -0.516765,2.273764 -1.240234,0.620117 -2.583821,1.343587 -3.61735,1.240234 -1.033528,-0.103353 -0.930176,1.033529 -2.583821,1.756999 -1.653646,0.72347 -3.927409,0.310058 -5.270996,0.206705 -1.343588,-0.103353 -4.547527,-1.033528 -5.374349,-0.103353 -0.826823,0.930176 -1.756999,1.136882 -3.100586,1.963705 -1.343588,0.826823 -0.310059,0.620117 1.756998,-0.103353 2.067058,-0.72347 4.134115,-0.206706 4.134115,0.413411 0,0.620118 -0.413412,1.343588 -1.343587,1.446941 -0.930176,0.103352 -1.343588,0.310058 -0.72347,0.826822 0.620117,0.516765 -0.620118,0.620118 0.206705,1.756999 0.826823,1.136882 1.343588,1.860352 2.893881,1.653646 1.550293,-0.206706 2.687174,-0.103353 2.583821,0.72347 -0.103353,0.826823 -0.620117,0.826823 -2.17041,1.343587 -1.550293,0.516765 -2.89388,0.310059 -3.824056,1.44694 -0.930176,1.136882 -2.89388,1.653646 -2.89388,0.72347 0,-0.930175 1.44694,-1.550292 1.44694,-2.273763 0,-0.72347 -0.72347,-1.136881 -1.860352,-0.413411 -1.136881,0.72347 -0.876545,1.34654 -2.776665,1.565785 -1.900119,0.219244 -2.192445,0.438489 -2.92326,0.950059 -0.730815,0.511571 -1.900119,0.95006 -1.607793,1.90012 0.292326,0.950059 1.242385,1.534711 0.438489,1.900119 -0.803897,0.365407 -4.238728,0.51157 -5.846521,1.680875 -1.607793,1.169304 -2.192446,3.288668 -3.288668,3.580994 -1.096223,0.292326 0.07308,1.534711 -1.388549,2.265527 -1.46163,0.730815 -1.169304,0.730815 -1.46163,2.484771 -0.292326,1.753956 -0.438489,2.630934 -1.534712,3.142505 -1.096223,0.511571 -2.192445,0.438489 -3.069423,1.388549 -0.876979,0.950059 -1.315468,0.365407 -2.557853,1.534711 -1.242386,1.169305 -1.242386,-0.219244 -2.484772,1.607794 -1.242385,1.827037 -2.119364,1.315467 -1.973201,2.630934 0.146164,1.315467 1.242386,3.800239 1.023142,4.750298 -0.219245,0.95006 -0.146163,1.534712 0.219244,2.557853 0.365408,1.023141 0.219245,1.90012 -0.657733,2.704016 -0.876979,0.803897 -1.315468,2.192446 -1.973201,0.803897 -0.657734,-1.388549 -2.704016,-3.654076 -2.338609,-4.604135 0.365408,-0.95006 0.876979,-1.753957 0.07308,-2.850179 -0.803897,-1.096223 -0.511571,-1.90012 -1.607793,-1.534712 -1.096223,0.365407 -1.388549,1.242386 -2.630935,0 -1.2423855,-1.242386 -0.730815,-1.096223 -2.0462821,-0.95006 -1.3154672,0.146163 -1.4616302,-0.219244 -2.7770974,0 -1.3154672,0.219245 -2.2655269,0.07308 -1.9732008,0.95006 0.292326,0.876978 1.1693042,1.534712 0.292326,1.607793 -0.8769781,0.07308 -2.6309344,0.803897 -3.2155865,-0.07308 -0.58465208,-0.876979 -0.51157057,-1.388549 -1.24238569,-1.242386 -0.73081511,0.146163 -1.53471171,1.169304 -2.41168991,0.365407 -0.8769781,-0.803896 -1.3154672,-0.657733 -2.0462823,0 -0.7308151,0.657734 -1.3154672,1.315468 -2.4116899,1.461631 -1.0962226,0.146163 -2.1924453,-0.146163 -2.6309344,0.803896 -0.4384891,0.95006 -2.119364,1.388549 -1.753956,2.630935 0.365407,1.242385 0.876978,1.973201 0.292326,2.557853 -0.584652,0.584652 -0.876978,0.219244 -1.169304,1.388548 -0.292326,1.169305 -1.315468,2.923261 -1.242386,4.092565 0.07308,1.169304 0.438489,2.33861 0.95006,3.65407 0.51157,1.31547 0.51157,2.48478 1.534711,3.06943 1.0231415,0.58465 1.6808751,1.60779 2.4116902,1.46163 0.7308151,-0.14616 1.5347117,-0.43849 2.2655268,-0.73082 0.7308151,-0.29232 1.5347118,-1.02314 2.1193639,-0.21924 0.5846521,0.8039 0.5846521,0.73081 1.3885487,-0.0731 0.8038966,-0.8039 1.68087475,-1.82704 1.6077932,-2.70402 -0.073082,-0.87698 0.3654076,-1.90012 1.53471178,-2.11936 1.16930422,-0.21925 4.38489072,-0.87698 5.18878732,-0.51157 0.8038966,0.3654 0.5846521,0.95006 0.292326,1.53471 -0.292326,0.58465 -1.1693041,1.02314 -1.1693041,1.9732 0,0.95006 0.073082,1.90012 -0.7308152,2.48477 -0.8038966,0.58465 -1.4616302,0.51157 -1.4616302,1.90012 0,1.38855 -0.292326,2.26553 -0.8038966,2.70402 -0.5115706,0.43849 1.3154672,-0.51157 2.0462823,-0.14617 0.7308151,0.36541 2.1924454,0.14617 2.996342,-0.29232 0.8038966,-0.43849 3.8733199,0.51157 3.9464019,1.1693 0.07308,0.65773 1.46163,1.02314 0.950059,2.70402 -0.51157,1.68087 -1.242385,1.60779 -1.023141,2.33861 0.219245,0.73081 -0.365407,1.60779 -0.219244,2.70401 0.146163,1.09622 -0.7308155,0.0731 0,1.16931 0.730815,1.09622 1.753956,2.85017 3.215586,3.28866 1.46163,0.43849 2.630935,-0.43849 3.434831,-1.02314 0.803897,-0.58465 1.607793,-0.73081 2.704016,0.0731 1.096223,0.8039 2.265527,2.55786 2.704016,2.26553 0.438489,-0.29233 0.803897,-1.60779 1.680875,-1.82704 0.876978,-0.21924 0.584652,-0.95006 0.803896,-1.60779 0.219245,-0.65773 -0.146163,-1.75396 1.023142,-1.82704 1.169304,-0.0731 2.557853,0.0731 3.288668,-0.65773 0.730815,-0.73082 1.388548,-0.29233 2.119363,-1.38855 0.730816,-1.09622 1.534712,-0.95006 1.827038,-0.65773 0.292326,0.29232 0.876978,1.31546 -0.07308,1.9732 -0.95006,0.65773 -0.146163,0.87697 -0.511571,1.46163 -0.365407,0.58465 -0.803896,0.95006 -0.950059,1.60779 -0.146164,0.65773 -0.146164,1.24239 0.365407,1.53471 0.511571,0.29233 1.46163,0.21925 1.315467,-0.51157 -0.146163,-0.73081 -0.950059,-1.38855 -0.730815,-1.75395 0.219245,-0.36541 0,-1.09623 0.876978,-1.38855 0.876978,-0.29233 1.827038,-0.58466 1.827038,-1.09623 0,-0.51157 0.95006,-1.1693 1.169304,-0.43849 0.219245,0.73082 1.096223,-0.29232 1.46163,0.58466 0.365408,0.87697 0.511571,1.68087 1.534712,1.68087 1.023141,0 2.630935,-0.8039 2.850179,-0.36541 0.219245,0.43849 1.242386,1.53472 2.046283,1.24239 0.803896,-0.29233 1.534711,-0.36541 2.265526,-0.95006 0.730815,-0.58465 3.288668,-0.65773 2.996342,-0.0731 -0.292326,0.58465 -0.584652,1.09622 0.07308,1.46163 0.657733,0.36541 2.046282,-0.21925 2.41169,0.43849 0.365407,0.65773 0.51157,1.09622 0.657733,1.75395 0.146163,0.65774 0.95006,-0.58465 2.046283,0.43849 1.096222,1.02314 2.92326,2.41169 2.557853,3.06943 -0.365408,0.65773 1.096222,0.3654 1.827037,1.02314 0.730815,0.65773 1.461631,0.80389 2.119364,0.36541 0.657734,-0.43849 4.238728,-0.21925 4.896461,0.65773 0.657734,0.87698 3.142505,1.68087 3.873321,2.70401 0.730815,1.02315 0.51157,1.24239 0.730815,2.41169 0.219244,1.16931 0,1.46164 1.315467,2.11937 1.315467,0.65773 1.023141,1.53471 0.438489,2.26553 -0.584652,0.73081 0.803897,1.09622 1.827038,1.46163 1.023141,0.3654 1.46163,0.73081 1.388548,1.38854 -0.07308,0.65774 1.023142,-0.80389 1.753957,-0.3654 0.730815,0.43849 2.41169,0.14616 2.996342,0.95006 0.584652,0.80389 2.046282,0.43849 2.192445,1.24238 0.146163,0.8039 0.803897,1.24239 0.584652,1.90012 -0.219244,0.65774 0.876978,-1.60779 1.607793,-1.1693 0.730816,0.43849 1.12941,1.42702 3.403173,1.22031 2.273763,-0.20671 4.237468,0.10335 5.064291,1.13688 0.826822,1.03353 2.480468,2.79053 4.134114,2.89388 1.653646,0.10336 2.273763,0.41341 2.687176,1.24024 0.41341,0.82682 1.96371,3.82405 1.24024,5.4777 -0.72347,1.65364 -2.790534,2.37711 -3.514004,3.82405 -0.72347,1.44694 -2.067058,3.20394 -2.687175,4.34082 -0.620117,1.13689 -1.033529,-0.51676 -1.550293,0.51677 -0.516764,1.03353 0.620117,4.54753 0.103353,6.51123 -0.516764,1.9637 -1.653646,2.68717 -1.550293,4.03076 0.103353,1.34359 -0.103353,2.89388 -1.033529,3.82406 -0.930175,0.93017 -1.136881,1.13688 -1.033528,1.9637 0.103353,0.82682 -0.72347,0.72347 -1.343587,1.65365 -0.620118,0.93017 -0.826823,0.51676 -2.377116,0.93017 -1.550293,0.41341 -1.860352,-1.13688 -3.100586,0.72347 -1.240235,1.86036 -1.343588,-0.10335 -2.997233,1.44694 -1.653646,1.5503 -2.893881,1.03353 -2.893881,2.37712 0,1.34359 -0.930175,1.86035 -0.516764,2.79053 0.413412,0.93017 1.136882,2.27376 0,3.20394 -1.136881,0.93017 -1.860351,1.9637 -2.273763,3.20393 -0.413411,1.24024 -2.067057,1.96371 -2.997233,3.3073 -0.930176,1.34358 -1.550293,2.99723 -2.273763,3.7207 -0.72347,0.72347 -0.516764,2.17041 -2.480469,1.86035 -1.963704,-0.31006 -3.61735,-1.24023 -4.237467,-1.13688 -0.620117,0.10335 0.206705,0.20671 0.72347,0.93018 0.516764,0.72347 -0.413412,1.24023 0.413411,1.86035 0.826823,0.62011 1.550293,0.62011 1.033529,1.65364 -0.516764,1.03353 -0.516764,3.30729 -1.860352,3.41065 -1.343587,0.10335 -2.89388,0.10335 -3.927409,0.41341 -1.033528,0.31006 -1.653645,-0.20671 -2.480468,-0.10335 -0.826823,0.10335 0.413411,0.82682 0.413411,1.44694 0,0.62011 -0.413411,0.93017 -0.206706,1.86035 0.206706,0.93017 -1.653645,1.44694 -2.89388,1.13688 -1.240234,-0.31006 -1.756998,-0.62012 -1.136881,1.03353 0.620117,1.65364 1.550293,-0.62012 1.860351,0.10335 0.310059,0.72347 0.826823,1.86035 -0.103353,2.27376 -0.930175,0.41341 -1.44694,0.41341 -1.343587,1.34359 0.103353,0.93018 1.033529,1.65365 0,2.06706 -1.033528,0.41341 -2.377116,0.51676 -2.377116,1.55029 0,1.03353 0.206706,1.24024 1.343588,1.65365 1.136881,0.41341 2.067057,0.10335 2.067057,1.13688 0,1.03353 0.620117,1.757 -0.516764,2.37711 -1.136882,0.62012 -1.860352,0.72347 -1.653646,1.757 0.206705,1.03353 -0.103353,1.44694 -0.826823,1.65365 -0.72347,0.2067 -1.343587,1.34359 -0.103353,2.06706 1.240234,0.72347 1.550293,2.17041 2.17041,3.10058 0.620117,0.93018 4.134115,2.79053 5.167643,2.99723 1.033529,0.20671 -0.72347,0.72348 -2.790527,0.62012 0.620117,1.5503 2.170411,6.92464 3.410645,9.30176 z"
       id="path1" /></g></svg>
