<?xml version="1.0" encoding="UTF-8" standalone="no"?>
<!-- Created with Inkscape (http://www.inkscape.org/) -->

<svg
   width="32.327mm"
   height="37.771999mm"
   viewBox="0 0 32.327001 37.771998"
   version="1.1"
   id="svg1"
   xml:space="preserve"
   inkscape:version="1.3 (0e150ed6c4, 2023-07-21)"
   sodipodi:docname="Baltic_Sea-top - Copy.svg"
   xmlns:inkscape="http://www.inkscape.org/namespaces/inkscape"
   xmlns:sodipodi="http://sodipodi.sourceforge.net/DTD/sodipodi-0.dtd"
   xmlns="http://www.w3.org/2000/svg"
   xmlns:svg="http://www.w3.org/2000/svg"><sodipodi:namedview
     id="namedview1"
     pagecolor="#505050"
     bordercolor="#ffffff"
     borderopacity="1"
     inkscape:showpageshadow="0"
     inkscape:pageopacity="0"
     inkscape:pagecheckerboard="1"
     inkscape:deskcolor="#505050"
     inkscape:document-units="mm"
     inkscape:zoom="2.56"
     inkscape:cx="50.390625"
     inkscape:cy="106.05469"
     inkscape:window-width="1600"
     inkscape:window-height="837"
     inkscape:window-x="-8"
     inkscape:window-y="-8"
     inkscape:window-maximized="1"
     inkscape:current-layer="layer1" /><defs
     id="defs1"><inkscape:path-effect
       effect="simplify"
       id="path-effect9533"
       is_visible="true"
       lpeversion="1.3"
       threshold="2.2"
       steps="10"
       smooth_angles="360"
       helper_size="10"
       simplify_individual_paths="false"
       simplify_just_coalesce="false" /><inkscape:path-effect
       effect="simplify"
       id="path-effect819"
       is_visible="true"
       steps="10"
       threshold="0.002"
       smooth_angles="0"
       helper_size="5"
       simplify_individual_paths="false"
       simplify_just_coalesce="false"
       lpeversion="0" /></defs><g
     inkscape:label="Layer 1"
     inkscape:groupmode="layer"
     id="layer1"
     transform="translate(-87.962923,-142.35036)"><path
       style="fill:#555555;fill-rule:evenodd;stroke-width:0.499999;stroke-linecap:round;stroke-linejoin:round"
       d="m 90.354936,167.18088 1.860352,-0.51676 c 1.033528,2.06706 2.067057,3.20394 1.653645,4.13411 -0.413411,0.93018 -0.723471,2.89388 0.103352,3.41065 0.826823,0.51676 1.757,0.93017 2.170411,-0.20671 0.413412,-1.13688 0.620118,-1.757 1.653646,-1.44694 1.033529,0.31006 2.170409,-0.51676 2.273768,-1.65364 0.10335,-1.13688 0.2067,-4.23747 0.93017,-5.271 0.72347,-1.03353 2.58382,-2.17041 2.99723,-3.20394 0.41342,-1.03353 0.51677,-1.86035 -0.41341,-2.58382 -0.93017,-0.72347 -1.757,-1.65365 -1.65364,-3.61735 0.10335,-1.9637 0.72347,-3.30729 1.44694,-4.13412 0.72347,-0.82682 1.86035,-1.9637 2.99723,-2.79052 1.13688,-0.82682 1.34359,-1.96371 1.34359,-3.20394 0,-1.24024 0.10335,-2.79053 1.24023,-3.30729 1.13688,-0.51677 2.37712,-0.72347 3.10059,0.2067 0.72347,0.93018 1.65364,1.96371 0.62011,2.89388 -1.03352,0.93018 -3.10058,3.30729 -3.30729,4.13412 -0.2067,0.82682 -1.757,1.03353 -1.44694,2.99723 0.31006,1.9637 0.82683,2.79053 0.41341,4.13412 -0.41341,1.34358 -0.82682,1.86035 1.34359,2.58382 2.17041,0.72347 2.48047,1.55029 3.61735,0.41341 1.13688,-1.13688 3.61735,-0.93018 4.34082,-1.65365 0.72347,-0.72347 -0.10335,0.82682 1.757,1.03353 1.86035,0.20671 0.41341,0.82682 -0.72347,1.757 -1.13688,0.93017 -3.10059,-0.31006 -4.13411,0.20671 -1.03353,0.51676 -2.58383,0.41341 -2.68718,1.65364 -0.10335,1.24024 0.10335,2.68718 1.13688,2.68718 1.03353,0 1.5503,3.51399 0.41341,3.92741 -1.13688,0.41341 -1.44694,0.72346 -2.17041,-0.41342 -0.72347,-1.13688 -1.757,-1.9637 -2.17041,-0.93017 -0.41341,1.03353 -1.03353,1.65364 -1.03353,2.79053 0,1.13688 0.51677,2.89388 0.51677,4.03076 0,1.13688 0.62012,2.06705 -0.93018,1.44694 -1.55029,-0.62012 -0.72347,0.82682 -1.65364,1.55029 -0.93018,0.72347 -1.13688,1.44694 -1.86035,0.41341 -0.72347,-1.03353 -0.72347,-2.17041 -1.65365,-1.86035 -0.93017,0.31006 -2.06706,0.31006 -2.583821,1.24023 -0.516765,0.93018 -1.550294,-0.41341 -2.377117,0.51677 -0.826823,0.93017 -1.44694,2.27376 -2.273763,1.13688 -0.826823,-1.13688 -2.273763,-2.27376 -3.513997,-1.757 -1.240234,0.51677 -1.756997,0.51677 -2.790526,-1.13688 -1.033529,-1.65365 -1.240234,-2.27376 -0.516766,-3.41065 0.723472,-1.13688 1.963706,-1.13688 1.963706,-2.1704 0,-1.03353 -0.723471,-1.757 0,-4.03077 z"
       id="path1" /></g></svg>
