<?xml version="1.0" encoding="UTF-8" standalone="no"?>
<!-- Created with Inkscape (http://www.inkscape.org/) -->

<svg
   width="215.55099mm"
   height="169.457mm"
   viewBox="0 0 215.551 169.457"
   version="1.1"
   id="svg1"
   xml:space="preserve"
   inkscape:version="1.3 (0e150ed6c4, 2023-07-21)"
   sodipodi:docname="Indian_Ocean-top.svg"
   xmlns:inkscape="http://www.inkscape.org/namespaces/inkscape"
   xmlns:sodipodi="http://sodipodi.sourceforge.net/DTD/sodipodi-0.dtd"
   xmlns="http://www.w3.org/2000/svg"
   xmlns:svg="http://www.w3.org/2000/svg"><sodipodi:namedview
     id="namedview1"
     pagecolor="#505050"
     bordercolor="#ffffff"
     borderopacity="1"
     inkscape:showpageshadow="0"
     inkscape:pageopacity="0"
     inkscape:pagecheckerboard="1"
     inkscape:deskcolor="#505050"
     inkscape:document-units="mm"
     inkscape:zoom="0.45254834"
     inkscape:cx="300.52038"
     inkscape:cy="343.6097"
     inkscape:window-width="1600"
     inkscape:window-height="837"
     inkscape:window-x="-8"
     inkscape:window-y="-8"
     inkscape:window-maximized="1"
     inkscape:current-layer="layer1" /><defs
     id="defs1"><inkscape:path-effect
       effect="simplify"
       id="path-effect9533"
       is_visible="true"
       lpeversion="1.3"
       threshold="2.2"
       steps="10"
       smooth_angles="360"
       helper_size="10"
       simplify_individual_paths="false"
       simplify_just_coalesce="false" /></defs><g
     inkscape:label="Layer 1"
     inkscape:groupmode="layer"
     id="layer1"
     transform="translate(1.8603525,-65.6704)"><path
       style="fill:#ffffff;fill-rule:evenodd;stroke:none;stroke-width:0.499999;stroke-linecap:round;stroke-linejoin:round"
       d="M 21.394043,235.12777 H 189.03239 c 8.9917,-12.19564 16.74316,-28.7321 17.46663,-30.4891 -1.13688,-0.10335 -1.65364,-0.82682 -1.55029,-1.757 0.10335,-0.93018 0,-1.03353 -0.10335,-2.06706 -0.10336,-1.03352 0.62011,-1.757 0.62011,-1.757 0,0 -0.93017,-0.41341 -0.93017,-1.13688 0,-0.72347 0.31006,-2.37711 0.31006,-2.37711 0,0 -0.31006,-0.72347 -1.34359,-0.82683 -1.03353,-0.10335 -1.34359,0.93018 -2.17041,0.51677 -0.82683,-0.41341 -2.17041,-2.06706 -1.86035,-3.10059 0.31006,-1.03352 0.93017,-1.86035 -0.20671,-2.27376 -1.13688,-0.41341 -1.65365,-0.41341 -1.24023,-1.13688 0.41341,-0.72347 0.41341,-1.757 -0.20671,-0.72347 -0.62012,1.03353 -2.06706,0.82682 -1.34359,-0.10335 0.72347,-0.93018 0.72347,-1.03353 0.72347,-1.03353 0,0 0,-1.55029 -0.93017,-0.62012 -0.93018,0.93018 -1.24024,1.757 -2.06706,2.06706 -0.82682,0.31006 -0.2067,-1.13688 -0.72347,-1.96371 -0.51676,-0.82682 -1.13688,-1.86035 -1.13688,-2.58382 0,-0.72347 0.10335,-1.03353 -1.44694,-1.03353 -1.55029,0 -1.757,-0.82682 -2.58382,-0.72347 -0.82683,0.10336 -2.37712,-0.51676 -3.10059,0.20671 -0.72347,0.72347 -2.58382,0.41341 -3.514,1.13688 -0.93017,0.72347 -2.17041,-0.31006 -2.79052,0.10335 -0.62012,0.41342 -1.24024,0.72347 -2.48047,1.03353 -1.24024,0.31006 -0.82682,-0.51676 -1.34359,0.82683 -0.51676,1.34358 -0.62012,1.34358 -1.757,1.24023 -1.13688,-0.10335 -3.18899,-0.55948 -5.01603,0.17134 -1.82704,0.73081 -1.90012,0.73081 -3.43483,1.38855 -1.53471,0.65773 -3.36175,0.29233 -4.38489,0 -1.02314,-0.29233 -1.6078,-0.58465 -1.31547,-1.75396 0.29233,-1.1693 0.58465,-0.73081 1.31547,-2.33861 0.73081,-1.60779 -0.43849,-2.3386 -0.58465,-4.09256 -0.14617,-1.75396 0.14616,-2.04628 -0.58466,-3.9464 -0.73081,-1.90012 -1.60779,-3.65408 -1.38855,-4.31181 0.21925,-0.65774 1.38855,0.65773 1.75396,0 0.36541,-0.65774 -0.8039,-1.68088 -1.09622,-2.7771 -0.29233,-1.09622 0.73081,-1.1693 0.73081,-2.19244 0,-1.02315 -0.0731,-2.63094 0.65774,-3.14251 0.73081,-0.51157 1.24238,-0.36541 2.70401,-1.09622 1.46163,-0.73082 1.46163,-1.82704 2.63094,-1.75396 1.1693,0.0731 2.19244,0.29233 3.21558,-0.43849 1.02314,-0.73081 2.70402,-0.80389 3.80024,-0.73081 1.09622,0.0731 1.6078,-0.95006 2.11937,-1.75396 0.51157,-0.8039 1.75395,-0.58465 1.38854,-1.68087 -0.3654,-1.09623 0.29233,-2.19245 1.09623,-2.48477 0.80389,-0.29233 1.1693,0.51156 1.53471,0.21924 0.36541,-0.29233 -0.43849,-0.87698 0.73081,-1.02314 1.16931,-0.14617 0.8039,-0.8039 1.38855,-1.60779 0.58465,-0.8039 1.38855,-0.0731 1.68088,-1.02315 0.29232,-0.95006 0.43849,-1.90011 2.33861,-1.82703 1.90011,0.0731 2.19244,-0.21925 2.63093,1.02314 0.43849,1.24238 1.31547,0.0731 1.60779,0.73081 0.29233,0.65774 1.09623,0.36541 0.87698,-0.43849 -0.21924,-0.80389 0.36541,-0.95006 1.16931,-2.3386 0.80389,-1.38855 1.24238,-2.11937 2.41169,-2.19245 1.1693,-0.0731 2.19244,0.73082 2.63093,0.0731 0.43849,-0.65773 -1.31547,-0.95006 -1.38855,-1.46163 -0.0731,-0.51157 -0.0731,-0.87698 0.65773,-0.80389 0.73082,0.0731 1.97321,1.09622 2.85018,1.31546 0.87698,0.21925 0.87698,0.8039 2.33861,0.8039 1.46163,0 3.50792,-0.73082 3.581,0.29232 0.0731,1.02314 0.14616,2.11937 -0.51157,2.11937 -0.65774,0 -0.8039,0 -1.09623,0.65773 -0.29232,0.65773 -0.65773,1.24239 -1.02314,1.75396 -0.36541,0.51157 -0.65773,0.43849 -0.14616,1.02314 0.51157,0.58465 2.11936,1.02314 2.70402,1.60779 0.58465,0.58465 0.3654,0.8039 1.53471,1.09623 1.1693,0.29232 1.46163,0 1.9732,1.1693 0.51157,1.1693 0.73081,1.53471 1.75395,1.09622 1.02315,-0.43849 1.38855,-1.75396 1.68088,-2.55785 0.29232,-0.8039 1.60779,-1.1693 1.31546,-2.33861 -0.29232,-1.1693 -1.24238,-1.90012 -0.58465,-2.41169 0.65774,-0.51157 0.29233,-1.46163 0.8039,-1.90012 0.51157,-0.43849 0.58465,-2.7771 1.31547,-3.43483 -1.09623,-2.11936 -1.82704,-3.58099 -1.82704,-3.58099 0,0 -22.9476,-1.38855 -24.26306,-1.46163 -1.31547,-0.0731 -5.40803,1.46163 -6.06577,2.26552 -0.65773,0.8039 -2.19244,2.92326 -3.06942,2.92326 -0.87698,0 -1.60779,-0.80389 -2.48477,-0.80389 -0.87698,0 -2.33861,0 -2.55786,-0.8039 -0.21924,-0.8039 -0.73081,-0.43849 -1.60779,-0.87698 -0.87698,-0.43849 -0.14616,-1.1693 -0.8039,-1.68087 -0.65773,-0.51157 -1.24238,0.21924 -2.41169,0.43849 -1.1693,0.21924 -1.31546,-0.36541 -2.26552,-0.43849 -0.95006,-0.0731 -2.48477,0.43849 -3.28867,-0.0731 -0.8039,-0.51158 -1.9732,-0.65774 -2.41169,-0.73082 -0.43849,-0.0731 -2.85018,0.0731 -3.80024,-0.0731 -0.95006,-0.14616 -2.04628,-1.09622 -3.43483,-1.02314 -1.38855,0.0731 -1.75396,0.95006 -2.63093,0.14616 -0.87698,-0.80389 -0.73082,-1.31547 -1.68088,-1.09622 -0.95006,0.21924 -0.51157,-0.36541 -1.24238,-0.8039 -0.73082,-0.43849 -1.9732,0.51157 -2.26553,-0.29232 -0.29233,-0.8039 -0.0731,-1.09623 -1.09622,-1.75396 -1.02314,-0.65773 -1.46163,-1.82704 -2.7771,-2.41169 -1.31547,-0.58465 -2.63093,-2.11936 -3.36175,-3.43483 -0.73082,-1.31547 -0.51157,-2.48477 -1.53471,-3.50791 -1.02314,-1.02315 -1.75396,-1.24239 -2.04629,-2.33861 -0.29232,-1.09622 -0.51156,-1.9732 -1.46163,-2.63094 -0.95005,-0.65773 -1.46163,-1.31546 -1.75395,-1.90011 -0.29233,-0.58466 -2.33861,-1.82704 -2.99634,-2.48478 -0.65774,-0.65773 -1.38855,-2.04628 -1.16931,-2.48477 0.21925,-0.43849 1.16931,-0.36541 1.82704,-0.0731 0.65773,0.29233 2.33861,0.43849 2.33861,0.43849 0.73081,-2.33861 1.82704,-5.77344 1.82704,-5.77344 -0.21925,-0.8039 -0.43849,-0.95006 0,-1.82704 0.43849,-0.87698 0.58465,-1.02314 0.3654,-1.75395 -0.21924,-0.73082 0.21925,-1.46163 0.21925,-2.33861 0,-0.87698 -0.0731,-1.607795 -0.29233,-2.338611 -0.21924,-0.730814 -0.29232,-1.169305 -0.95006,-2.338607 -0.65773,-1.169305 -0.43849,-2.484771 -0.80389,-3.361751 -0.36541,-0.876977 0.0731,-1.53471 -0.58465,-2.046282 -0.65774,-0.51157 -0.73082,-1.023141 -1.16931,-0.146164 -0.43849,0.87698 -0.73082,0.95006 -1.38855,1.607793 -0.65773,0.657736 -0.87698,0.803897 -1.68087,0.803897 -0.8039,0 -2.04628,0.146164 -1.82704,-0.803897 0.21924,-0.950057 1.02314,-2.046282 0.87698,-2.99634 -0.14617,-0.95006 -0.58466,-1.680876 -1.02314,-2.338609 -0.43849,-0.657733 -0.36541,-1.46163 -1.31547,-1.827038 -0.95006,-0.365408 -1.31547,-0.146161 -1.9732,-0.876978 -0.65773,-0.730816 -0.36541,-1.900118 -0.8039,-2.704015 -0.43849,-0.803896 -0.21924,-1.315468 -1.09622,-1.388549 -0.87698,-0.07308 -0.43849,0.876977 -1.46163,1.169305 -1.02314,0.292325 -0.95006,0.58465 -2.48477,0.365405 -1.53471,-0.219244 -2.26553,-0.292325 -2.85018,0.219245 -0.58465,0.511572 -1.16931,0.584652 -1.02314,1.315468 0.14616,0.730814 0.29232,1.607794 -0.73082,2.046283 -1.02314,0.438488 -2.41169,0.292324 -2.92326,1.461629 -0.51157,1.169305 -1.02314,1.680874 -2.11936,2.192446 -1.09622,0.511569 -2.04628,0.365408 -2.26553,1.388549 -0.21924,1.023142 -0.51157,1.753955 -1.24238,1.827038 -0.73082,0.07308 -0.87698,-0.219244 -1.24239,0.438489 -0.36541,0.657733 -1.607793,-0.146164 -1.973201,0.950058 -0.365408,1.096224 -0.730816,1.827038 0,2.996343 0.730811,1.169304 0.876981,1.827037 0.292325,2.557854 -0.584652,0.730813 -1.242385,0.730813 -0.876977,1.827039 0.365408,1.09622 0.95006,2.11936 0,2.41169 -0.950061,0.29232 -1.023141,-0.14617 -1.242386,0.87698 -0.219244,1.02314 -0.365408,1.31546 -1.096221,1.60779 -0.730816,0.29232 -0.07308,0.73081 -0.803897,1.24238 -0.730816,0.51157 -1.096224,0.87698 -2.192446,-0.21924 -1.096224,-1.09622 -1.096224,-1.68087 -1.607793,-3.21559 -0.511572,-1.53471 -0.730817,-2.04628 -1.607794,-2.99634 -0.876977,-0.950057 -1.388549,-2.265526 -1.388549,-3.507911 0,-1.242385 -0.657733,-1.827038 -1.242386,-2.92326 -0.584652,-1.096224 -1.388549,-2.48477 -1.388549,-3.507914 0,-1.023141 -0.292325,-1.973199 -0.511569,-2.99634 -0.219244,-1.023141 -0.438489,-1.827038 0.07308,-3.069423 0.511571,-1.242386 0.146163,-1.753958 0.146163,-2.411691 0,-0.657733 -0.438488,-2.046282 -0.584652,-0.730816 -0.146164,1.315469 -0.876977,1.388549 -1.973202,1.827038 -1.096221,0.438489 -1.388546,0.87698 -2.192443,-0.07308 -0.803897,-0.95006 -2.265529,-1.680874 -1.973202,-2.41169 0.292325,-0.730816 1.023141,-0.365408 1.607794,-0.876977 0.584652,-0.511572 0.803897,-0.584653 -0.803897,-0.365408 -1.607793,0.219244 -1.46163,-0.219245 -1.607793,-0.950061 -0.146164,-0.730813 -0.07308,-1.023141 -1.169305,-1.023141 -1.096222,0 -1.096222,-0.219244 -1.242386,-1.096222 -0.146164,-0.876977 0,-1.023141 -0.95006,-1.461629 -0.950058,-0.438489 -0.803897,-0.438489 -2.046282,-0.146164 -1.242386,0.292325 -1.096222,0.803897 -1.827038,0.438489 -0.730814,-0.365409 -0.803897,-0.876978 -1.534711,-0.292325 -0.730816,0.584652 -1.096221,0.438488 -1.973201,0.292325 -0.876978,-0.146164 -2.119363,0.730816 -3.288668,0 -1.169305,-0.730814 -1.753957,0.146163 -2.557851,-0.438489 -0.803897,-0.584653 -0.87698,-0.292325 -2.265529,-0.584653 -1.388547,-0.292324 -1.534711,-0.657733 -1.607791,-1.53471 -0.07308,-0.87698 0.438488,-1.023141 -0.657736,-1.169305 -1.096222,-0.146164 -1.46163,0.292325 -2.046282,0.730814 -0.584653,0.438491 -0.950058,0.365408 -2.265527,0.365408 -1.315466,0 -1.753954,-0.365408 -2.557851,-1.169302 -0.803897,-0.803897 -1.096224,-1.023144 -1.900121,-1.096225 -0.803897,-0.07308 -0.950058,-0.803896 -0.950058,-1.680874 0,-0.876977 -0.438491,-1.315468 -0.87698,-1.900118 -0.438489,-0.584653 0.07308,-0.803897 -0.950058,-0.87698 -1.023141,-0.07308 -0.87698,-0.803897 -1.388549,-0.07308 -0.511572,0.730814 -0.511572,0.657733 -1.242385,0.51157 -0.730817,-0.146162 0.146161,0.730816 -0.730817,0.87698 -0.876977,0.146161 0.584653,0.07308 0.657733,0.657733 0.07308,0.584652 0.660715,2.55112 1.384184,2.964531 0.723471,0.413412 1.44694,1.033529 1.240234,1.756998 -0.206705,0.723471 -0.310057,1.136883 0,1.963705 0.31006,0.826823 0.516766,0.310058 1.136883,-0.516765 0.620117,-0.826823 1.13688,-0.516763 1.13688,0.413411 0,0.930177 -0.516763,2.170412 0,2.480469 0.516766,0.31006 1.240235,-0.620117 2.273763,-0.206706 1.033529,0.413412 1.963706,0.826823 2.687175,-0.310057 0.723471,-1.136883 2.583823,-2.790529 3.100586,-2.89388 0.516765,-0.103354 0.930177,0.930174 1.033528,2.273763 0.103354,1.343586 0.723472,1.756997 1.550295,1.756997 0.826822,0 1.756997,-0.413411 2.273763,0.516766 0.516763,0.930174 2.687174,1.653646 2.067057,2.480469 -0.620117,0.826822 -0.723472,1.963703 -1.757,2.687174 -1.033529,0.723469 -1.240235,0.413411 -1.860352,1.240234 -0.620117,0.826823 -0.103351,2.067058 -0.723468,2.687175 -0.620118,0.620117 -1.240235,-0.413412 -1.757,0.516763 -0.516763,0.930177 -0.103352,1.550294 -1.343586,1.653646 -1.240235,0.103354 -1.343589,-0.826823 -1.653646,0.413411 -0.31006,1.240234 -1.757,0.930177 -3.100586,1.033529 -1.343589,0.103354 -2.273763,0.723471 -2.480469,1.44694 -0.206706,0.723471 -0.413411,1.033528 -1.44694,1.653646 -1.033529,0.620117 -2.170411,0.206705 -3.20394,0.826822 -1.033529,0.620118 -2.377115,1.757 -3.513997,1.653646 -1.13688,-0.103351 -0.516763,0.826823 -2.790526,0.930177 -2.273763,0.103352 -2.377117,1.550292 -3.824058,1.653646 -1.44694,0.103352 -2.273763,0.206706 -2.480468,-0.723471 -0.206706,-0.930175 -0.723469,-3.203938 -0.723469,-4.237466 0,-1.033529 0.723469,-2.067057 -0.206706,-3.513998 -0.930177,-1.44694 -2.687174,-2.687174 -2.583823,-4.030763 0.103355,-1.343585 -1.653645,-1.13688 -2.17041,-2.377114 -0.516764,-1.240234 -0.930176,-1.550294 -0.826823,-2.997234 0.103353,-1.446941 0,-2.893881 -1.44694,-3.513998 -1.44694,-0.620117 -1.44694,-1.240234 -1.343587,-2.273763 0.103353,-1.033528 -1.860352,-3.824054 -2.273763,-4.650877 -0.413411,-0.826823 -1.136881,-1.033529 -0.72347,-1.653646 0.413411,-0.620117 1.033529,-3.307292 0.310059,-2.067057 -0.72347,1.240234 -0.72347,2.687174 -1.343588,2.89388 -0.620117,0.206705 -1.44694,-0.516766 -1.756998,-1.757 -0.310059,-1.240235 -0.516765,-2.687175 -1.033529,-1.963703 -0.516764,0.723468 0.516764,2.790526 0.826823,3.720703 0.310059,0.930174 1.240234,1.963703 1.136881,3.100586 -0.103352,1.13688 1.550293,2.273763 1.756999,3.513997 0.206706,1.240234 -0.413411,2.170409 0.103353,2.89388 0.516764,0.723469 2.377116,0.723469 2.273763,1.653646 -0.103353,0.930174 0.103353,4.857583 0.413411,5.994466 0.310059,1.13688 2.067058,0.516763 2.170411,2.273763 0.103352,1.756997 0,2.997232 0.930175,4.03076 0.930176,1.033529 2.583822,1.136883 2.893882,2.067058 0.310057,0.930177 2.997232,2.377117 3.410643,3.513997 0.413411,1.136885 0.103354,1.963705 -0.620117,2.067055 -0.723469,0.10335 0.620117,0.41341 1.44694,1.24023 0.826823,0.82683 1.343588,1.03353 2.377117,0.51677 1.033529,-0.51677 1.653646,-1.24023 2.89388,-0.72347 1.240235,0.51676 1.033529,-0.93018 2.583821,-0.72347 1.550294,0.20671 3.513997,-0.41341 4.34082,-0.82682 0.826823,-0.41341 1.963705,-1.240235 1.963705,-0.10336 0,1.13689 -1.963705,8.16488 -4.030763,10.542 -2.067057,2.37711 -2.273762,4.34082 -4.34082,5.78776 -2.067057,1.44694 -5.270994,2.79052 -6.097817,4.03076 -0.826823,1.24023 -3.824058,5.16764 -5.270998,6.20117 -1.44694,1.03353 -1.136881,1.9637 -2.17041,3.10059 -1.033528,1.13688 -1.343587,2.1704 -1.136881,3.20393 0.206705,1.03353 1.343587,1.86036 1.343587,3.20394 0,1.34359 -0.103353,3.82406 1.136881,4.85759 1.240235,1.03353 1.240235,1.24023 1.44694,2.99723 0.206706,1.757 0.516766,3.514 0.930178,4.85758 0.413411,1.34359 -0.413412,4.75424 -1.860353,5.37435 -1.44694,0.62012 -3.203939,0.31006 -4.650879,2.27377 -1.44694,1.9637 -1.756999,2.06705 -2.89388,2.48047 -1.136882,0.41341 -0.206706,1.34358 0.620117,3.20394 0.826823,1.86035 1.240234,1.75699 1.136881,4.03076 -0.103353,2.27376 0,2.68717 -1.240234,3.10058 -1.240234,0.41341 -2.687174,-0.2067 -2.687174,1.03353 0,1.24023 0.413411,0.72347 0.620117,2.37712 0.206705,1.65364 0.72347,2.37711 -0.620117,3.7207 -1.343588,1.34359 -1.240235,2.27376 -2.170411,3.7207 -0.930175,1.44694 -1.860351,3.41065 -3.100585,4.13412 -1.2402349,0.72347 -4.2374679,2.58382 -5.9944666,2.27376 -1.7569986,-0.31006 -1.44694,-0.41341 -2.7905273,-0.2067 -1.34358719,0.2067 -2.89388014,0.72346 -4.0307616,1.13688 4.1341145,13.84928 13.3325195,32.34944 23.2543945,47.23226 z"
       id="path1" /></g></svg>
