<?xml version="1.0" encoding="UTF-8" standalone="no"?>
<!-- Created with Inkscape (http://www.inkscape.org/) -->

<svg
   width="109.753mm"
   height="54.938873mm"
   viewBox="0 0 109.753 54.938872"
   version="1.1"
   id="svg1"
   xml:space="preserve"
   inkscape:version="1.3 (0e150ed6c4, 2023-07-21)"
   sodipodi:docname="Mediterranean_Sea-top.svg"
   xmlns:inkscape="http://www.inkscape.org/namespaces/inkscape"
   xmlns:sodipodi="http://sodipodi.sourceforge.net/DTD/sodipodi-0.dtd"
   xmlns="http://www.w3.org/2000/svg"
   xmlns:svg="http://www.w3.org/2000/svg"><sodipodi:namedview
     id="namedview1"
     pagecolor="#505050"
     bordercolor="#ffffff"
     borderopacity="1"
     inkscape:showpageshadow="0"
     inkscape:pageopacity="0"
     inkscape:pagecheckerboard="1"
     inkscape:deskcolor="#505050"
     inkscape:document-units="mm"
     inkscape:zoom="0.90509668"
     inkscape:cx="239.75339"
     inkscape:cy="160.75631"
     inkscape:window-width="1600"
     inkscape:window-height="837"
     inkscape:window-x="-8"
     inkscape:window-y="-8"
     inkscape:window-maximized="1"
     inkscape:current-layer="layer1" /><defs
     id="defs1"><inkscape:path-effect
       effect="simplify"
       id="path-effect9533"
       is_visible="true"
       lpeversion="1.3"
       threshold="2.2"
       steps="10"
       smooth_angles="360"
       helper_size="10"
       simplify_individual_paths="false"
       simplify_just_coalesce="false" /><inkscape:path-effect
       effect="simplify"
       id="path-effect819"
       is_visible="true"
       steps="10"
       threshold="0.002"
       smooth_angles="0"
       helper_size="5"
       simplify_individual_paths="false"
       simplify_just_coalesce="false"
       lpeversion="0" /></defs><g
     inkscape:label="Layer 1"
     inkscape:groupmode="layer"
     id="layer1"
     transform="translate(-51.855993,-136.1994)"><path
       style="fill:#555555;fill-rule:evenodd;stroke-width:0.499999;stroke-linecap:round;stroke-linejoin:round"
       d="m 52.011022,167.28424 -0.155029,0.67179 c 0.8785,0 1.240235,1.55029 1.498617,2.17041 0.258382,0.62012 0.310058,0.62012 1.188557,-0.0517 0.878501,-0.67179 3.255616,0.0517 3.669027,0.6718 0.413412,0.62011 1.29191,1.60197 2.118733,1.24023 0.826823,-0.36173 2.428793,-0.93017 3.255616,-1.24023 0.826823,-0.31006 2.997235,-1.18856 4.960938,-0.93018 1.963705,0.25838 3.664526,-1.06698 5.564645,-1.28622 1.900121,-0.21924 3.142506,2.11936 4.7503,1.9732 1.607791,-0.14616 3.9464,-0.73082 6.211927,-0.8039 2.265526,-0.0731 3.800239,-1.31546 4.531053,-0.21924 0.730816,1.09622 1.900121,1.82704 1.169305,3.06942 -0.730816,1.24239 -0.730816,1.53471 -0.07308,2.19245 0.657733,0.65773 1.46163,1.82703 0.146161,2.77709 -1.315466,0.95007 -2.704015,1.24239 -2.119362,2.26553 0.584652,1.02314 4.238728,4.01949 6.28501,4.16565 2.046282,0.14616 4.896461,-0.65774 5.99268,0.3654 1.09623,1.02315 1.31547,2.55786 1.68088,3.87332 0.3654,1.31547 1.53471,1.90013 3.65407,1.90013 2.11937,0 4.16565,1.24238 5.33495,1.02314 1.16931,-0.21925 2.33861,-2.04629 1.9732,-2.92327 -0.36541,-0.87697 0.0731,-2.04628 1.68088,-2.85017 1.60779,-0.8039 2.41169,-2.63094 4.89646,-1.24239 2.48477,1.38855 1.82704,2.48477 4.01948,2.63093 2.19245,0.14617 2.63094,0.29233 4.23873,0.87698 1.60779,0.58465 3.1425,0.29233 4.96954,0.65774 1.82704,0.36541 2.63094,1.1693 3.87332,0.80389 1.24239,-0.3654 1.68088,-1.68087 3.43483,-2.19244 1.75396,-0.51157 3.06943,-0.65773 3.94641,0.14616 0.87697,0.8039 1.60779,1.1693 4.23872,-0.14616 2.63094,-1.31547 2.41169,-3.28867 2.70402,-4.89646 0.29232,-1.6078 0.8039,-4.89646 1.1693,-6.13885 0.36541,-1.24238 -0.43849,-4.01948 -1.1693,-4.89646 -0.73082,-0.87698 -1.46163,-1.38855 -2.41169,-1.24239 -0.95006,0.14617 -1.24239,1.46163 -1.9732,2.04629 -0.73082,0.58465 -2.11937,1.75395 -2.7771,1.09622 -0.65773,-0.65773 -0.95006,-2.11936 -2.04628,-2.26553 -1.09622,-0.14616 -2.48477,-0.95006 -2.70402,0.21925 -0.21924,1.1693 0.21925,2.85017 -1.24238,2.85017 -1.46163,0 -2.7771,-0.73081 -3.28867,-1.60779 -0.51157,-0.87698 -0.29233,-0.87698 -1.46163,-0.87698 -1.16931,0 -1.90012,0.21925 -2.11937,-0.80389 -0.21924,-1.02314 -0.51157,-3.14251 -1.02314,-3.9464 -0.51157,-0.8039 -0.21924,-2.11937 -0.73081,-2.63094 -0.51157,-0.51157 -1.82704,-0.36541 -1.82704,-1.02314 0,-0.65773 0,-1.9732 1.09622,-2.11936 1.09623,-0.14617 1.90012,0.3654 2.70402,0 0.80389,-0.36541 1.82704,0.43848 2.41169,-0.36541 0.58465,-0.8039 0,-2.19245 1.90012,-2.41169 1.90012,-0.21925 2.55785,0.36541 3.50791,-0.95006 0.95006,-1.31547 2.92326,-2.99634 4.38489,-2.92326 1.46163,0.0731 3.21559,-0.58465 4.01948,-0.36541 0.8039,0.21925 2.70402,1.53471 3.94641,1.6078 1.24238,0.0731 2.99634,0.14616 3.9464,-0.29233 0.95006,-0.43849 2.70401,-0.14617 3.50791,-0.87698 0.8039,-0.73082 2.04628,-0.95006 2.04628,-1.60779 0,-0.65774 0.36541,-1.9732 -0.36541,-2.70402 -0.73081,-0.73081 -2.85017,-1.46163 -3.87332,-1.90012 -1.02314,-0.43849 -2.48477,-2.26553 -4.09256,-2.70401 -1.60779,-0.43849 -3.1425,-0.29233 -3.21558,-1.24239 -0.0731,-0.95006 0.80389,-2.04628 1.09622,-2.92326 0.29232,-0.87698 -0.43849,-1.31547 -0.0731,-2.04628 0.3654,-0.73082 1.60779,-2.04628 1.60779,-2.55786 0,-0.51156 -1.31547,0.21925 -2.11937,0.65774 -0.80389,0.43849 -2.48477,1.02314 -3.50791,1.90012 -1.02314,0.87698 -2.55785,1.75395 -2.55785,2.55785 0,0.8039 0.36541,1.24239 0.95006,1.60779 0.58465,0.36541 1.46163,0.87698 1.02314,1.68088 -0.43849,0.80389 -1.31547,0.36541 -1.60779,1.24238 -0.29233,0.87698 -2.11937,1.38855 -2.33861,0.0731 -0.21925,-1.31547 -1.68088,-1.24239 -1.46163,-2.11937 0.21924,-0.87698 -0.0731,-1.1693 0.58465,-1.60779 0.65773,-0.43849 -0.21924,-1.46163 -0.51157,-1.02314 -0.29233,0.43849 -1.90012,1.31546 -2.26553,0.0731 -0.3654,-1.24239 -2.55785,-0.73082 -3.21558,0.87698 -0.65774,1.60779 -1.68088,1.53471 -1.53472,2.63093 0.14617,1.09622 -0.14616,2.33861 -1.02314,1.82704 -0.87697,-0.51157 -0.36541,1.24238 -0.36541,2.11936 0,0.87698 0.58466,1.53471 -0.51156,2.48478 -1.09623,0.95005 0,1.68087 -0.95006,2.3386 -0.95006,0.65774 -0.43849,0.95006 0.3654,1.82704 0.8039,0.87698 1.9732,1.46163 1.53472,2.33861 -0.4385,0.87698 -0.51158,1.24239 -1.46164,1.02314 -0.95005,-0.21925 -0.29232,0.36541 -1.1693,0.87698 -0.87698,0.51157 -1.90012,1.1693 -2.92326,0.51157 -1.02314,-0.65774 -2.11936,-1.6078 -3.1425,-1.1693 -1.02315,0.43848 -1.46163,0.29232 -1.68088,1.38854 -0.21924,1.09623 -1.31547,2.26553 -1.90012,1.6078 -0.58465,-0.65774 -1.1693,-1.24239 -1.1693,-0.0731 0,1.16931 1.68087,2.4117 1.38854,3.581 -0.29232,1.1693 1.09623,1.38855 1.09623,2.7771 0,1.38854 1.09622,4.45797 0.51157,4.96954 -0.58465,0.51157 -1.90012,0.8039 -2.70402,0.29232 -0.80389,-0.51156 -1.53471,-1.53471 -2.04628,-2.55785 -0.51157,-1.02314 -1.46163,-2.85018 -1.9732,-4.16564 -0.51157,-1.31547 -0.73081,-1.53472 -1.68087,-2.63094 -0.95007,-1.09622 -2.26553,-1.90012 -2.19245,-3.21559 0.0731,-1.31546 1.02314,-2.77709 0.43849,-3.9464 -0.58465,-1.1693 -3.36175,-1.90011 -4.31181,-3.58099 -0.95006,-1.68088 -2.85018,-2.26553 -3.43483,-1.9732 -0.58465,0.29232 -1.68088,-1.75396 -2.04628,-3.21559 -0.36541,-1.46163 -0.58465,-2.41169 -1.09623,-2.33861 -0.51157,0.0731 -1.46163,1.82704 -1.607788,0.14617 -0.146164,-1.68088 -0.51157,-2.55785 -1.315466,-1.90012 -0.803897,0.65773 -1.753958,0.21924 -1.827038,1.68087 -0.07308,1.46163 -0.511572,2.33861 0.07308,3.21559 0.584653,0.87698 1.680874,1.24238 1.973202,2.33861 0.292325,1.09622 1.1693,2.92326 1.75395,3.80024 0.58466,0.87697 1.31547,1.24238 2.33861,1.09622 1.02314,-0.14616 1.46163,0.21924 1.82704,1.75395 0.36541,1.53472 2.04628,0.14617 2.92326,1.31547 0.87698,1.16931 2.41169,1.68088 2.41169,2.7771 0,1.09622 -0.29232,1.31547 -1.1693,0.8039 -0.87698,-0.51158 -2.04629,-2.11937 -2.41169,-1.82704 -0.36541,0.29232 -1.24239,1.46163 -0.87698,2.04628 0.36541,0.58465 1.60779,1.02314 1.46163,2.04628 -0.14616,1.02314 -1.46163,0.51157 -1.75396,1.38855 -0.29232,0.87698 -0.80389,2.33861 -1.38855,2.7771 -0.58465,0.43849 -1.09622,-0.8039 -1.02314,-1.31547 0.0731,-0.51157 1.09622,-1.02314 1.16931,-1.82704 0.0731,-0.80389 0,-1.9732 -0.43849,-2.77709 -0.43849,-0.8039 -1.09622,-1.53472 -2.19245,-2.33861 -1.09622,-0.8039 -2.484766,-2.85018 -3.361746,-2.92326 -0.876978,-0.0731 -1.607794,-0.36541 -2.265527,-1.24239 -0.657733,-0.87698 -0.730816,-1.46163 -1.827038,-2.11936 -1.096221,-0.65774 -1.973201,-1.90012 -1.973201,-2.92326 0,-1.02314 0.146163,-2.70402 -0.803897,-3.06943 -0.950058,-0.3654 -1.53471,-1.60779 -2.265527,-1.09622 -0.730813,0.51157 -0.584652,1.75396 -2.119362,1.75396 -1.534713,0 -1.388549,0.0731 -2.33861,1.02314 -0.950058,0.95006 -2.92326,1.1693 -3.580993,0.21924 -0.657732,-0.95006 -1.461629,-1.75395 -2.923259,-1.75395 -1.461632,0 -2.192446,0.95006 -2.119365,1.75395 0.07308,0.8039 0.146163,2.85018 -0.657733,3.50792 -0.803897,0.65773 -2.704016,2.19244 -3.80024,1.53471 -1.096222,-0.65773 -1.096222,-0.36541 -1.900118,0.51157 -0.803897,0.87698 -1.680874,0.80389 -2.411691,1.90012 -0.730813,1.09622 -0.07308,2.92326 -0.292324,3.87332 -0.219245,0.95006 -1.242386,0.21924 -1.753958,0.73081 -0.511569,0.51157 -0.657733,1.68088 -1.461629,2.26553 -0.803897,0.58465 -1.607794,1.09622 -2.484771,1.1693 -0.87698,0.0731 -2.192446,-0.3654 -3.580995,-0.65773 -1.38855,-0.29233 -1.973202,-0.43849 -2.484771,0.29233 -0.511572,0.73081 -0.950061,-0.36541 -1.680875,0.43849 -0.730815,0.80389 -1.419037,0.87344 -1.419037,0.87344 z"
       id="path1" /></g></svg>
