<?xml version="1.0" encoding="UTF-8" standalone="no"?>
<!-- Created with Inkscape (http://www.inkscape.org/) -->

<svg
   width="305.302mm"
   height="124.023mm"
   viewBox="0 0 305.30201 124.023"
   version="1.1"
   id="svg1"
   xml:space="preserve"
   inkscape:version="1.3 (0e150ed6c4, 2023-07-21)"
   sodipodi:docname="Pacific_Ocean_North-top.svg"
   xmlns:inkscape="http://www.inkscape.org/namespaces/inkscape"
   xmlns:sodipodi="http://sodipodi.sourceforge.net/DTD/sodipodi-0.dtd"
   xmlns="http://www.w3.org/2000/svg"
   xmlns:svg="http://www.w3.org/2000/svg"><sodipodi:namedview
     id="namedview1"
     pagecolor="#505050"
     bordercolor="#ffffff"
     borderopacity="1"
     inkscape:showpageshadow="0"
     inkscape:pageopacity="0"
     inkscape:pagecheckerboard="1"
     inkscape:deskcolor="#505050"
     inkscape:document-units="mm"
     inkscape:zoom="0.45254834"
     inkscape:cx="576.73397"
     inkscape:cy="604.35533"
     inkscape:window-width="1600"
     inkscape:window-height="837"
     inkscape:window-x="-8"
     inkscape:window-y="-8"
     inkscape:window-maximized="1"
     inkscape:current-layer="layer1" /><defs
     id="defs1"><inkscape:path-effect
       effect="simplify"
       id="path-effect9533"
       is_visible="true"
       lpeversion="1.3"
       threshold="2.2"
       steps="10"
       smooth_angles="360"
       helper_size="10"
       simplify_individual_paths="false"
       simplify_just_coalesce="false" /></defs><g
     inkscape:label="Layer 1"
     inkscape:groupmode="layer"
     id="layer1"
     transform="translate(47.077247,-24.482306)"><path
       id="path1"
       style="opacity:1;fill:#ffffff;fill-opacity:1;fill-rule:evenodd;stroke:none;stroke-width:0.499999;stroke-linecap:round;stroke-linejoin:round"
       d="m 89.451887,24.482306 c 1.169304,1.169303 -0.657814,1.680953 -1.53479,1.53479 -0.876979,-0.146163 -1.169356,0.07284 -1.023193,0.949813 0.146162,0.876979 -0.511706,1.754115 -1.169438,1.681034 -0.657732,-0.07308 -1.90531,-0.225825 -2.215369,-0.794267 -0.310057,-0.56844 -1.29191,-0.05167 -1.44694,-0.826822 -0.15503,-0.775147 -0.103352,-1.343587 -1.033528,-0.981853 -0.930174,0.361735 -1.912028,0.77515 -2.118734,-0.05168 -0.206706,-0.826822 0.258382,-1.498616 -0.72347,-1.343587 -0.981849,0.155028 -1.756998,1.188557 -1.653646,1.912028 0.103354,0.723468 -1.033531,1.291909 -1.963704,1.240234 -0.930177,-0.05168 -1.860351,-0.465086 -1.240235,0.568441 0.620117,1.033528 0.155032,1.240234 0.930176,2.015381 0.775146,0.775146 1.033523,1.550294 0.05168,1.653645 -0.981852,0.103354 -1.498617,-0.8785 -2.532145,-0.516764 -1.033528,0.361733 -2.89388,0.775146 -3.358968,1.343587 -0.465086,0.568441 -1.653646,-0.361735 -2.480469,0.516765 -0.826822,0.878498 -2.428793,0.56844 -3.100586,1.705322 -0.671792,1.136879 -0.878499,0.05168 -1.601969,0.826823 -0.723468,0.775146 -1.085205,0.56844 -1.653646,-0.258382 -0.568438,-0.826822 -1.653647,-0.775145 -2.325439,-0.310059 -0.671793,0.465087 -0.826823,1.188558 -1.808675,0.930176 -0.981849,-0.258384 -0.775147,-0.465093 -1.550293,0.05168 -0.775147,0.516763 -1.188559,-0.465085 -2.015381,0.103353 -0.826822,0.568441 -1.343587,0.310062 -1.860352,1.653646 -0.516762,1.343588 -1.343586,0.206706 -1.860351,1.240234 -0.516763,1.033527 1.033527,0.465091 0.930175,1.446941 -0.103353,0.981852 -0.981851,0.361734 -0.826822,1.085205 0.155027,0.723468 0.826822,1.343588 0.206705,1.601969 -0.620116,0.258384 -1.136883,-0.155028 -1.653646,0.258382 -0.516764,0.413412 -0.923677,0.130522 -0.850594,1.592151 0.07308,1.461631 -0.438544,1.826978 -1.023193,1.753898 -0.584651,-0.07308 -1.607898,-0.657813 -2.046387,-0.146244 -0.43849,0.511571 -1.02311,1.096246 -0.876949,1.900142 0.146164,0.803896 -2.265143,0.146569 -2.557466,0.731222 -0.292328,0.584651 0.146108,1.461515 -1.023194,2.11925 -1.169303,0.657733 -2.704091,2.557574 -2.923336,1.826762 -0.219243,-0.730815 -0.365488,-1.169163 -0.146244,-2.996199 0.219245,-1.827037 -0.07292,-2.703845 0.292489,-3.873149 0.365407,-1.169304 1.022785,-3.654205 1.680517,-3.946529 0.657736,-0.292328 1.827304,-0.584947 2.338876,-1.461926 0.511568,-0.876977 2.704117,-0.730594 3.434932,-1.46141 0.730813,-0.730812 2.192465,-2.046495 3.288688,-2.704228 1.096221,-0.657732 2.630603,-1.461353 3.58066,-1.826761 0.95006,-0.365408 1.827224,-0.584489 2.192631,-1.096058 0.365408,-0.511571 1.681035,-1.461818 1.681035,-2.192631 0,-0.730815 -1.242466,-1.023084 -1.53479,-0.365352 -0.292327,0.657732 -0.146435,1.680899 -0.95033,1.900142 -0.803896,0.219244 -1.680843,-0.292516 -2.265495,0.584461 -0.584651,0.876976 -1.973171,1.4616 -2.265495,0.876949 -0.292324,-0.58465 0.949869,-1.82714 0.584461,-2.046387 -0.365408,-0.219245 -1.534491,-0.219163 -2.849955,0.146244 -1.315468,0.365409 -1.754007,0.146298 -2.411739,1.169438 -0.657733,1.02314 -3.727286,1.023246 -3.94653,2.046387 -0.219243,1.02314 1.096576,1.461354 -0.291971,1.826762 -1.388549,0.365407 -3.80023,1.169467 -4.165638,0.292488 -0.365407,-0.876976 -0.804274,-1.096356 -1.60817,-1.169437 -0.803896,-0.07308 -1.388355,-0.730515 -1.973006,0.07338 -0.584653,0.803895 -3.215716,0.584461 -3.94653,0.584461 -0.730814,0 -2.923089,-0.877137 -3.873148,-0.292489 -0.950058,0.584652 -2.631036,0.65795 -3.434933,1.315682 -0.803895,0.657732 -2.923362,1.388735 -3.434932,2.192631 -0.51157,0.803896 -2.703792,1.169135 -4.238501,2.484603 -1.5347106,1.315465 -3.288497,1.023085 -3.8731486,1.753898 -0.5846513,0.730815 -1.6080098,0.219078 0.072864,1.096057 1.6808729,0.876976 0.072998,1.242382 1.2423014,1.388546 1.1693029,0.146161 2.2658202,-1.826573 2.8504722,-1.022677 0.584651,0.803897 1.972898,1.096164 1.315165,3.142444 -0.657734,2.04628 -1.242192,1.753898 -1.973006,3.142444 -0.730815,1.388548 -1.0234379,0.949975 -1.4619264,2.630847 -0.4384887,1.680875 -1.2422999,2.119387 -2.6308472,3.288688 -1.3885475,1.169304 -2.7037376,2.04644 -3.2153076,3.06958 -0.5115701,1.02314 -1.8271408,0.950029 -3.43493248,2.265495 -1.60779162,1.315465 -3.14241572,2.045923 -4.01939292,3.069064 -0.8769773,1.023139 -2.6309004,1.827278 -3.6540405,1.827278 -1.0231403,0 -1.4620342,-1.607625 -2.1197673,-1.096057 -0.6577336,0.511572 -1.8268696,0.730513 -2.4846026,1.315165 -0.657733,0.584652 -1.607518,0.14638 -1.826762,1.315682 -0.219244,1.169304 -0.07308,1.753626 -1.388546,2.192114 -1.315466,0.438488 -3.288714,0.658112 -3.800285,1.608171 -0.511569,0.95006 -0.657948,0.51143 0.07286,1.607654 0.730814,1.09622 1.169438,1.900115 1.169438,2.777091 0,0.876979 0.438299,2.338493 -0.804086,3.507797 -1.242383,1.1693 -2.046005,0.657869 -3.215307,1.169437 -1.169303,0.511572 -2.412119,1.827142 -2.631364,0.657841 -0.219244,-1.169304 1.242355,-1.900415 0.876949,-2.850472 -0.365408,-0.95006 1.023275,-1.24249 1.169437,-2.046387 0.146163,-0.803896 0.365653,-1.023054 -0.949812,-1.242301 -1.315466,-0.219245 -2.265877,-0.292405 -1.096574,-1.53479 1.169304,-1.242384 1.023304,-1.753762 0.292488,-1.973006 -0.730814,-0.219245 -0.438379,-0.146024 -0.730704,-0.219108 -0.292326,-0.07308 -1.461679,-0.730732 -2.41174,0.146244 -0.950057,0.876977 -2.923173,2.119033 -2.630847,0.803569 0.292325,-1.315468 1.973006,-1.899867 1.973006,-2.338359 0,-0.438488 -0.876838,-1.315654 -1.607653,-0.804085 -0.730814,0.511571 -1.754169,1.608115 -2.704228,1.973523 -0.95006,0.365407 3.83e-4,0.876593 -1.168921,1.168921 -1.169302,0.292324 -2.119359,-0.365164 -2.777091,0.438732 -0.657736,0.803896 -0.146272,0.657868 0.730704,1.169438 0.876979,0.51157 -0.438624,0.949919 0.219108,1.607654 0.657735,0.657732 1.096411,-1.388601 2.192631,-1.023193 1.096223,0.365404 3.434497,-0.219271 3.58066,0.876949 0.146161,1.096221 -2.192139,1.24211 -2.70371,1.826761 -0.511569,0.584653 -4.019691,1.900195 -4.092774,2.923336 -0.07308,1.02314 1.169438,0.438867 1.169438,1.608171 0,1.169304 1.08e-4,2.192167 0.657841,3.215307 0.657734,1.02314 -0.365488,0.950383 -0.146245,1.973523 0.219245,1.02314 -0.876922,1.899926 -1.753898,1.973007 -0.876976,0.07308 1.159618,0.06046 1.469678,0.628902 0.310057,0.568438 -0.762228,3.035992 -1.950785,3.501078 -1.188558,0.465087 -1.085206,0.361738 -1.860352,1.550293 -0.775146,1.188557 -1.136882,1.705325 -1.705322,1.860352 -0.568442,0.155029 -0.878499,2.170408 -2.015381,2.738848 -1.136879,0.56844 -1.963705,0.62012 -2.583822,1.757 -0.620116,1.13688 -1.963704,0.8785 -1.963704,0.8785 2.945553,2.11873 8.009848,2.37712 8.061523,4.90926 0.05168,2.53215 -0.72347,5.4777 -0.72347,5.4777 0.723468,1.44694 0.826823,2.06706 0.206706,2.53215 -0.620116,0.46509 -1.446939,0.82682 -1.601969,1.44694 -0.15503,0.62012 -0.826821,0.41341 -0.516765,1.39526 0.31006,0.98185 -0.05168,1.29191 0.620118,1.29191 0.671795,0 2.118735,-0.36173 2.428792,0.20671 0.31006,0.56844 0.981852,1.08521 0.981852,1.49862 0,0.41342 1.085204,1.86035 0.206706,1.60196 -0.878497,-0.25837 -2.532146,-1.29191 -2.945557,-1.55029 -0.413411,-0.25838 -0.258383,-1.03353 -0.930176,-0.67179 -0.671791,0.36173 -1.085204,0.15503 -0.981852,0.82682 0.103354,0.67179 0.671794,1.70532 -0.103353,2.27376 0.723469,0.31006 1.188558,0.62012 1.188558,0.62012 0.981849,-0.41341 1.912028,0.41341 1.705323,1.03353 -0.206705,0.62012 1.653645,0.98185 0.671793,1.60197 -0.981852,0.62012 0,2.11874 -0.775146,2.53214 0.361735,0.6718 0.516764,0.8785 0.516764,0.8785 0.620116,-0.15503 0.413412,0.82683 1.033529,0.46509 0.620116,-0.36173 2.532144,-1.44694 2.687174,-2.11873 0.15503,-0.6718 1.136882,-0.8785 1.343587,0.15503 0.206705,1.03353 10e-7,1.65364 0.413412,2.42879 0.413411,0.77515 0.775144,1.44694 0.258382,2.06706 -0.516764,0.62011 -1.188558,-0.0517 -1.653646,0.41341 -0.465088,0.46509 0.05168,0.56844 -0.05168,1.24023 -0.103352,0.6718 0.103351,1.03353 -0.930176,1.24024 0.05168,1.70532 -0.103353,3.10058 0.310059,3.41064 0.41341,0.31006 1.963705,-0.8785 2.377115,-1.13688 0.339756,-0.21235 4.514318,4.30165 7.119979,7.58403 h 77.303809 v -3.36568 h 4.458126 v 3.36568 h 174.58831 v -2.38383 h 5.54333 v 2.38383 h 17.06718 c 0.22348,-0.67024 0.20089,-1.58254 1.23042,-1.90427 1.1693,-0.36541 1.16917,-0.80363 1.60765,-1.82676 0.43849,-1.02314 1.46173,-0.58512 2.04639,-1.75442 0.58465,-1.16931 0.51151,-1.3153 0.36535,-2.4846 -0.14617,-1.16931 0.51128,-2.11939 -0.0734,-3.28869 -0.58465,-1.16931 -1.60766,-1.46168 -1.60766,-2.41174 0,-0.95006 -0.073,-1.16895 -0.7307,-1.68052 -0.65773,-0.51157 -1.24241,-1.60806 -1.90014,-0.95033 -0.65774,0.65774 -0.58479,1.46141 -1.16944,1.46141 -0.58465,0 1.16954,1.46193 -0.0729,1.46193 -1.24239,0 -1.90036,-1.31576 -3.21583,-1.46193 -1.31546,-0.14616 -4.6038,-1.24191 -4.9692,-2.41122 -0.36541,-1.1693 -0.6582,-0.14657 -1.75442,-0.73122 -1.09623,-0.58465 0.0734,-1.68072 -0.94981,-2.4846 -1.02314,-0.8039 -2.7772,-2.63105 -3.43493,-3.43494 -0.65773,-0.8039 -1.16922,0.14652 -2.63085,-0.29197 -1.46163,-0.43849 -6.06573,-1.53484 -6.43113,-2.55798 -0.36541,-1.02314 -2.63085,-2.77739 -4.0194,-2.85047 -1.38855,-0.0731 -1.82735,1.24251 -3.36207,1.16943 -1.5347,-0.0731 -7.60035,-2.55803 -9.06197,-3.58117 -1.46163,-1.02314 -3.6541,-1.82698 -4.67724,-1.7539 -1.02314,0.0731 -2.84984,-1.31514 -3.58066,-2.19212 -0.73081,-0.87697 -1.53515,-1.5347 -1.24282,-2.77709 0.29233,-1.24239 -1.24238,-1.60814 -1.38854,-2.48512 -0.14616,-0.87698 -1.68046,-2.99589 -3.43442,-4.31136 -1.75396,-1.31547 -3.65447,-2.33899 -3.50831,-2.996718 0.14616,-0.657732 -2.04623,-1.607488 -3.14245,-2.703711 -1.09621,-1.09622 -4.01947,-3.215958 -4.16563,-4.385262 -0.14617,-1.169303 -1.09606,-2.996282 -2.48461,-3.142443 -1.38853,-0.146163 -1.68109,2.17e-4 -1.31568,1.315682 0.36541,1.315464 1.97312,2.192303 2.63085,2.996199 0.65774,0.803896 3.14256,2.923254 3.80028,4.165637 0.65774,1.242384 2.48507,3.288656 2.85048,4.165636 0.36541,0.87697 0.29224,0.80381 1.2423,1.2423 0.95005,0.43849 2.04644,1.46187 1.68103,1.82728 -0.36541,0.36541 -1.3156,0.36525 -2.55798,-0.29249 -1.24239,-0.65773 -3.36155,-2.48471 -3.36155,-3.14244 0,-0.65773 0.1461,-1.38844 -1.0232,-2.119251 -1.1693,-0.730813 -3.43495,-1.169544 -3.94653,-1.827279 -0.51155,-0.657732 -0.65757,-1.899981 0.29249,-1.607654 0.95006,0.292325 0.94973,-0.730894 -0.58497,-1.53479 -1.53471,-0.803895 -3.1424,-2.631036 -3.5078,-3.434932 -0.36541,-0.803897 -1.97328,-3.87304 -2.92334,-4.603854 -0.95005,-0.730815 -2.19232,-1.681198 -3.50779,-1.973523 -1.31546,-0.292327 -2.33876,-0.291889 -3.06958,-1.534273 -0.73082,-1.242385 -2.8499,-1.973657 -3.21531,-3.142961 -0.3654,-1.169303 -1.02312,-2.776982 -2.26549,-3.507796 -1.24239,-0.730815 -1.02354,-2.192303 -2.11977,-2.996199 -1.09622,-0.803895 -0.14587,-1.972951 -1.31517,-3.726905 -1.16931,-1.753955 -0.21956,-2.850687 -0.58497,-4.166154 -0.3654,-1.315464 0.51154,-2.119031 -0.5116,-3.58066 -1.02314,-1.46163 -2.33836,-2.557956 -2.33836,-3.434932 0,-0.876979 2.63101,-1.096032 2.92334,-0.58446 0.29232,0.511569 1.24214,1.168951 0.94981,0.291971 -0.29232,-0.876976 -0.87662,-1.899895 -3.06906,-2.849955 -2.19244,-0.950057 -0.87723,-1.53479 -3.21583,-1.53479 -2.33861,0 -3.54429,-0.438554 -3.87315,-1.278992 -0.32887,-0.840437 -1.60773,-4.34849 -3.14244,-4.202327 -1.53471,0.146164 -2.04666,-1.753952 -2.99672,-2.777092 -0.95006,-1.023139 -0.87692,-2.119034 -1.7539,-2.192114 -0.87696,-0.07308 -2.04627,-0.584594 -2.77709,-1.753898 -0.73081,-1.169303 -0.80378,-2.046687 -2.11925,-2.119767 -1.31547,-0.07308 -0.95002,-1.242111 -2.26549,-0.438216 -1.31546,0.803896 -2.04617,0.438463 -3.5078,-0.511597 -1.46163,-0.950059 -3.65442,-2.338495 -5.26221,-2.11925 -1.60779,0.219246 -4.01923,0.07297 -5.11545,-0.657841 -1.09623,-0.730814 -1.60766,-1.461846 -2.9962,-1.315682 -1.38855,0.14616 -2.41184,1.89e-4 -1.68103,0.804085 0.73081,0.803895 -0.73081,0.292597 -1.38855,0.950329 -0.65773,0.657736 -2.48485,2.192142 -2.92333,1.315166 -0.43849,-0.876976 -1.09595,-1.534899 -0.43822,-2.192631 0.65773,-0.657733 0.58432,-1.461493 -0.58498,-0.219108 -1.1693,1.242383 -2.70377,1.315571 -2.33836,2.046386 0.36541,0.730816 1.09625,1.38879 0.5116,1.827279 -0.58465,0.438488 -3.06952,0.730541 -3.43493,1.826762 -0.36541,1.09622 -2.04642,1.096246 -2.55799,1.900142 -0.51157,0.803896 -2.11907,1.315466 -3.2153,1.388546 -1.09622,0.07308 -1.6079,0.292597 -2.04639,0.95033 -0.43849,0.657732 -1.973416,1.022895 -2.704228,0.949812 -0.730815,-0.07308 0.511702,-1.023084 1.169438,-1.753898 0.65773,-0.730815 2.19222,-0.657566 2.84995,-1.096057 0.65773,-0.438488 2.19252,-0.950438 2.92334,-1.60817 0.73081,-0.657736 1.38855,-1.315139 1.38855,-2.192115 0,-0.876979 0.65762,-1.681223 -0.65784,-1.096574 -1.31547,0.584652 -1.9732,0.730897 -2.7771,0.146245 -0.80389,-0.584652 -1.31519,-0.292164 -1.82676,0.292488 -0.51157,0.58465 -0.80374,-0.146242 -1.09606,-1.53479 -0.29232,-1.388547 -3.4e-4,-1.826789 -1.096569,-0.949813 -1.096221,0.87698 -2.411603,0.511463 -2.630847,-0.657841 -0.219245,-1.169302 0.292191,-1.388709 -1.169438,-1.681034 -1.46163,-0.292327 -1.096007,-1.680624 -0.07286,-2.338358 1.02314,-0.657733 1.023083,-1.681334 1.753899,-1.754415 0.730813,-0.07308 1.242546,0.80414 1.681034,0.438733 0.438488,-0.365408 1.388291,-0.438542 2.338351,-1.023194 0.95006,-0.584652 -0.0729,-1.461734 0.29249,-2.046386 0.36541,-0.584652 -1.16925,-0.365164 -1.753892,0.438732 -0.584652,0.803897 -0.804003,0.438136 -2.046387,0.291972 -1.242385,-0.146161 -1.900032,-0.07308 -2.630847,0 -0.730813,0.07308 -1.607929,-0.949757 -1.169438,-1.315165 0.438488,-0.365408 -1.461464,-0.365678 -1.096057,-0.950329 0.365409,-0.584652 0.876949,-1.46141 0.876949,-1.46141 z" /></g></svg>
