<?xml version="1.0" encoding="UTF-8" standalone="no"?>
<!-- Created with Inkscape (http://www.inkscape.org/) -->

<svg
   width="124.16916mm"
   height="103.4433mm"
   viewBox="0 0 124.16916 103.4433"
   version="1.1"
   id="svg1"
   xml:space="preserve"
   inkscape:version="1.3 (0e150ed6c4, 2023-07-21)"
   sodipodi:docname="South_China_Sea-top.svg"
   xmlns:inkscape="http://www.inkscape.org/namespaces/inkscape"
   xmlns:sodipodi="http://sodipodi.sourceforge.net/DTD/sodipodi-0.dtd"
   xmlns="http://www.w3.org/2000/svg"
   xmlns:svg="http://www.w3.org/2000/svg"><sodipodi:namedview
     id="namedview1"
     pagecolor="#505050"
     bordercolor="#ffffff"
     borderopacity="1"
     inkscape:showpageshadow="0"
     inkscape:pageopacity="0"
     inkscape:pagecheckerboard="1"
     inkscape:deskcolor="#505050"
     inkscape:document-units="mm"
     inkscape:zoom="0.90509668"
     inkscape:cx="90.598056"
     inkscape:cy="233.67669"
     inkscape:window-width="1600"
     inkscape:window-height="837"
     inkscape:window-x="-8"
     inkscape:window-y="-8"
     inkscape:window-maximized="1"
     inkscape:current-layer="layer1" /><defs
     id="defs1"><inkscape:path-effect
       effect="simplify"
       id="path-effect9533"
       is_visible="true"
       lpeversion="1.3"
       threshold="2.2"
       steps="10"
       smooth_angles="360"
       helper_size="10"
       simplify_individual_paths="false"
       simplify_just_coalesce="false" /><inkscape:path-effect
       effect="simplify"
       id="path-effect819"
       is_visible="true"
       steps="10"
       threshold="0.002"
       smooth_angles="0"
       helper_size="5"
       simplify_individual_paths="false"
       simplify_just_coalesce="false"
       lpeversion="0" /><inkscape:path-effect
       effect="simplify"
       id="path-effect9533-9"
       is_visible="true"
       lpeversion="1.3"
       threshold="2.2"
       steps="10"
       smooth_angles="360"
       helper_size="10"
       simplify_individual_paths="false"
       simplify_just_coalesce="false" /></defs><g
     inkscape:label="Layer 1"
     inkscape:groupmode="layer"
     id="layer1"
     transform="translate(-59.851888,-104.96246)"><path
       id="path2"
       style="fill:#ffffff;fill-rule:evenodd;stroke:none;stroke-width:0.499999;stroke-linecap:round;stroke-linejoin:round"
       d="m 116.19315,104.96246 c -2.17041,1.757 -3.82406,1.65364 -5.16764,1.55029 -1.34359,-0.10335 -1.44694,1.24024 -2.58382,1.03353 -1.13688,-0.2067 -1.86035,-1.34359 -1.86035,-0.31006 0,1.03353 -1e-5,1.24024 -1.5503,1.65365 -1.55029,0.41341 -5.06429,1.24023 -6.511228,1.86035 -1.446939,0.62012 -0.413413,1.86035 -1.240235,2.48047 -0.826822,0.62011 -1.446942,-0.93019 -1.343587,-2.58382 0.103351,-1.65365 -1.653647,-0.31006 -3.100586,-1.03353 -1.446938,-0.72347 -2.89388,1.44694 -4.237467,2.06706 -1.343585,0.6201 -1.446942,1.86035 -2.687175,2.58382 -1.240233,0.72347 -1.550293,2.99723 -1.550293,4.03076 0,1.03353 2.377116,3.82405 3.307292,4.85758 0.930173,1.03353 3.824055,4.13413 4.547526,4.75423 0.723467,0.62012 1.343587,2.79053 1.860352,4.75424 0.516762,1.96369 -0.310062,6.20117 -1.033529,7.4414 -0.723471,1.24024 -2.687174,2.27377 -3.824056,2.27377 -1.136879,0 -3.203938,0 -4.34082,0.51676 -1.136879,0.51676 -0.723471,2.27376 -1.343588,3.30729 -0.620116,1.03353 -1.136884,1.96371 -2.480468,1.44694 -1.343587,-0.51676 -0.310061,-2.68717 -0.413412,-3.7207 -0.103354,-1.03353 -2.79053,-1.34359 -3.927409,-2.17041 -1.136881,-0.82682 -1.136882,-2.06706 -1.963704,-3.10059 -0.826822,-1.03353 -1.653646,-2.37711 -3.100586,-2.37711 -1.446939,0 -1.757,0.41341 -2.17041,-0.93018 -0.413412,-1.34359 0.10335,-2.17041 -1.240234,-1.55029 -1.343587,0.62012 -0.930178,3.61735 -1.033529,4.44417 -0.103355,0.82682 -1.03353,0.82683 -1.44694,2.27376 -0.413412,1.44694 -1.240234,2.27377 -1.550293,3.514 -0.310057,1.24024 0,2.37712 1.033528,2.79053 1.033528,0.41341 2.067057,3.82406 2.583822,5.271 0.516763,1.44693 1.446941,1.44693 2.480469,1.86035 1.033527,0.41341 4.444174,4.44417 5.477702,5.58105 1.033528,1.13688 0.930175,2.37713 0.310058,4.13412 -0.620116,1.75699 0.310059,2.99723 1.343587,4.03076 1.033527,1.03353 1.343586,2.27376 0.103353,3.20394 -1.240232,0.93017 -3.720704,-1.757 -5.581054,-3.10059 -1.86035,-1.34359 -3.100588,-4.03076 -3.927409,-6.40788 -0.826822,-2.3771 -0.310059,-2.06706 -0.310059,-4.13411 0,-1.87913 -3.739397,-6.10307 -5.447729,-7.81141 -0.269611,0.82121 -0.02305,1.19071 0.253731,2.20555 0,0 -1.548962,4.86203 -2.674772,8.45271 1.054659,0.86366 2.178974,1.92403 2.287715,2.63085 0.206706,1.34359 2.583823,1.44695 3.617351,2.68717 1.033527,1.24024 1.550292,2.17041 2.273763,2.79053 0.723467,0.62012 1.03353,0.51677 1.963704,1.24024 0.930176,0.72347 1.963706,0.31006 2.273763,1.757 0.31006,1.44693 1.446941,2.06705 2.273763,2.48046 0.826822,0.41342 1.860352,0.20671 2.790528,0.51677 0.930174,0.31006 -0.930177,1.24024 -1.343588,2.37711 -0.413411,1.13688 0.516767,1.5503 1.860352,1.86036 1.343588,0.31005 1.653646,1.03352 1.653646,1.9637 0,0.93018 0.723471,2.37712 1.860351,2.06706 1.136881,-0.31006 1.550294,0.51676 2.377116,1.55029 0.826822,1.03353 -0.31006,1.34359 -0.620117,3.20394 -0.31006,1.86035 0.310058,3.61735 -0.310059,4.44417 -0.620116,0.82683 -1.860354,0.62012 -2.790527,0.20671 -0.310827,-0.13815 -0.836828,-0.0282 -1.389579,0.14107 0.357029,0.37937 0.73243,0.73813 1.183907,1.02837 1.592211,1.02357 1.250905,1.47849 1.705839,2.72954 0.193055,0.53089 0.675584,0.53788 1.227315,0.45941 0.532547,-1.20013 1.352518,-2.78186 2.130103,-2.91145 1.240232,-0.20671 4.23747,0.62012 6.304524,1.13688 2.067055,0.51676 3.100589,1.24023 4.237468,1.757 1.136882,0.51676 2.790531,-0.41341 4.34082,-0.62012 1.550294,-0.2067 2.377114,0.51676 3.617354,1.34359 1.24023,0.82682 0.82682,1.44694 2.48047,1.65364 1.65363,0.20671 2.1704,0 2.79052,1.24024 0.44507,0.89013 0.47084,1.36531 0.71365,2.16783 1.31459,0.32495 3.19702,-0.18226 4.45761,-0.0853 1.47852,0.11373 1.70619,1.02332 3.52589,0.68213 1.81971,-0.3412 2.72967,-1.47825 3.75326,-0.68213 1.02358,0.79613 -0.11371,1.93346 1.25108,2.61586 1.36479,0.68239 2.16047,0.11373 2.50166,1.36477 0.3412,1.25106 2.61584,1.25109 3.98063,1.25109 1.36479,0 2.50216,1.25109 3.86695,1.25109 1.36478,0 3.75338,-3.29854 4.77697,-4.5496 1.02359,-1.25103 7.39256,-3.63913 9.43973,-3.52536 2.01172,0.11175 35.91055,2.16272 37.10523,2.235 -0.53167,-1.23305 -1.47425,-3.31927 -2.09548,-3.55223 -0.82682,-0.31005 -1.9637,1.65363 -2.58382,0.72347 -0.62012,-0.93018 0.20671,-1.86036 -0.41341,-3.72071 -0.62012,-1.86035 -1.03352,-3.10058 -1.24023,-4.23746 -0.2067,-1.13688 -2.79053,-1.44695 -4.44418,-2.17041 -1.65364,-0.72347 -4.54752,-1.5503 -5.4777,-2.17042 -0.93018,-0.6201 -1.65365,-2.17041 -2.48047,-1.34358 -0.82682,0.82682 -1.13688,0.82682 -2.17041,1.13688 -1.03353,0.31006 -0.62012,-1.44694 -1.24023,-3.20394 -0.62012,-1.757 -0.82683,-0.72347 -0.72347,-2.58382 0.10335,-1.86035 -0.72347,-0.62012 -1.757,-1.44694 -1.03353,-0.82683 -1.5503,-1.24024 -0.41341,-1.757 1.13688,-0.51677 -1.24024,-1.13688 -2.48047,-1.24023 -1.24024,-0.10336 -1.03352,-1.34359 1.34359,-1.96371 -0.82682,-1.03353 -4.34083,-4.85759 -11.98894,-13.33252 0,0 -2.89387,3.514 -3.51399,2.79053 -0.62011,-0.72347 -1.13689,-5.16765 -0.93018,-6.20117 0.20671,-1.03353 -0.20671,-1.44694 -1.34359,-1.34359 -1.13688,0.10335 -2.06706,-0.31006 -2.79052,-1.44694 -0.72348,-1.13688 0.10335,-2.06706 -0.31006,-3.30729 -0.41342,-1.24024 -1.65365,0 -2.68718,0 -1.03353,0 -2.17041,0.41341 -2.37711,-0.62012 -0.20671,-1.03353 2.06705,-1.65364 2.99723,-2.58382 0.93018,-0.93018 0.10335,-1.757 -1.55029,-2.27376 -1.65365,-0.51677 -0.72347,-1.757 -0.62012,-2.48047 0.10335,-0.72347 0.93017,-1.13688 0.72347,-1.86035 -0.20671,-0.72347 -1.03353,0 -1.86035,-0.51677 -0.82683,-0.51676 0.6201,-2.68717 -0.10335,-3.10058 -0.72348,-0.41342 -2.17042,-0.72348 -3.20394,-1.34359 -1.03353,-0.62012 -1.13688,-3.10059 -1.03353,-4.54753 0.10335,-1.44694 0.72347,-1.44694 0.72347,-2.37711 0,-0.93018 -1.34359,0.72347 -2.17041,-0.51677 -0.82683,-1.24023 -1.24024,-1.86035 -1.13688,-3.514 0.10335,-1.65363 1.03354,-0.10335 1.757,-0.31005 0.72347,-0.20671 -0.10336,-2.89389 -0.51677,-4.34082 -0.41341,-1.44694 0.41341,-1.96371 1.24024,-2.79053 0.82681,-0.82682 0.72346,-0.41341 3.82405,0.93017 0.41341,-0.82682 0.10334,-6.20118 -0.93017,-8.26822 -1.03353,-2.06706 -7.54476,-4.23747 -13.84929,-6.71794 z" /></g></svg>
