<?xml version="1.0" encoding="UTF-8" standalone="no"?>
<!-- Created with Inkscape (http://www.inkscape.org/) -->

<svg
   width="152.59399mm"
   height="152.59419mm"
   viewBox="0 0 152.594 152.59419"
   version="1.1"
   id="svg1"
   xml:space="preserve"
   inkscape:version="1.3 (0e150ed6c4, 2023-07-21)"
   sodipodi:docname="Southern_Ocean-top.svg"
   xmlns:inkscape="http://www.inkscape.org/namespaces/inkscape"
   xmlns:sodipodi="http://sodipodi.sourceforge.net/DTD/sodipodi-0.dtd"
   xmlns="http://www.w3.org/2000/svg"
   xmlns:svg="http://www.w3.org/2000/svg"><sodipodi:namedview
     id="namedview1"
     pagecolor="#505050"
     bordercolor="#ffffff"
     borderopacity="1"
     inkscape:showpageshadow="0"
     inkscape:pageopacity="0"
     inkscape:pagecheckerboard="1"
     inkscape:deskcolor="#505050"
     inkscape:document-units="mm"
     inkscape:zoom="0.90509668"
     inkscape:cx="279.52815"
     inkscape:cy="335.32329"
     inkscape:window-width="1600"
     inkscape:window-height="837"
     inkscape:window-x="-8"
     inkscape:window-y="-8"
     inkscape:window-maximized="1"
     inkscape:current-layer="layer1" /><defs
     id="defs1"><inkscape:path-effect
       effect="simplify"
       id="path-effect9533"
       is_visible="true"
       lpeversion="1.3"
       threshold="2.2"
       steps="10"
       smooth_angles="360"
       helper_size="10"
       simplify_individual_paths="false"
       simplify_just_coalesce="false" /><inkscape:path-effect
       effect="simplify"
       id="path-effect819"
       is_visible="true"
       steps="10"
       threshold="0.002"
       smooth_angles="0"
       helper_size="5"
       simplify_individual_paths="false"
       simplify_just_coalesce="false"
       lpeversion="0" /></defs><g
     inkscape:label="Layer 1"
     inkscape:groupmode="layer"
     id="layer1"
     transform="translate(-28.940277,-84.774544)"><path
       id="path1"
       style="opacity:1;fill:#ffffff;fill-rule:evenodd;stroke:none;stroke-width:0.499999;stroke-linecap:round;stroke-linejoin:round"
       d="M 105.23743 84.774544 A 76.297096 76.297096 0 0 0 28.940277 161.0717 A 76.297096 76.297096 0 0 0 105.23743 237.36885 A 76.297096 76.297096 0 0 0 181.53458 161.0717 A 76.297096 76.297096 0 0 0 105.23743 84.774544 z M 107.76596 113.30975 C 109.01986 113.27309 110.28201 113.46241 111.42982 113.98051 C 113.08398 114.21381 115.03853 113.39101 116.41194 114.69261 C 117.77807 114.60991 117.8407 116.62613 118.94719 116.52454 C 119.7118 116.092 120.42985 116.43717 120.81787 116.87904 C 122.15186 117.26393 122.64515 119.60122 124.35668 118.66757 C 125.9434 118.42858 128.21279 119.85056 129.28609 118.20041 C 129.52397 117.03644 131.56221 116.45256 130.93819 118.08827 C 130.75006 119.63764 131.84564 120.99618 133.02023 121.86375 C 134.68933 122.0126 135.95038 119.92561 137.68919 120.89172 C 139.21179 121.28347 140.5304 122.41649 142.16334 122.36036 C 142.16834 123.69283 143.42557 124.88669 144.34615 123.64246 C 144.74583 124.33716 145.45826 125.39855 146.02202 124.1277 C 147.62514 123.03636 149.44459 124.81355 150.07138 126.23196 C 150.54637 127.28117 150.22403 129.02603 148.8141 129.01112 C 149.21392 130.5841 149.75138 132.12566 150.15768 133.69094 C 150.84544 135.45037 151.72701 137.18071 151.91365 139.08751 C 153.08854 140.3242 152.07681 142.59692 150.32667 141.92144 C 148.95157 142.3825 147.25551 141.58945 146.08661 141.9478 C 145.94228 142.59717 147.09439 143.30469 145.73418 143.29242 C 144.45393 143.04264 142.00366 142.45394 142.58244 144.63136 C 143.38513 146.29086 145.87227 145.13798 147.38421 145.5636 C 148.7649 145.45847 149.52628 146.68952 150.25639 147.63944 C 150.86702 148.52815 151.79414 149.19822 152.89085 149.27913 C 154.96876 149.94797 155.74756 152.189 156.88699 153.82924 C 158.19528 155.99502 158.47288 158.54761 158.94371 160.98075 C 159.25165 162.70385 158.90681 164.42795 158.80677 166.14839 C 158.58932 167.84934 158.11487 169.68965 159.02846 171.28141 C 159.83059 172.90248 158.46006 174.47755 157.51176 175.68217 C 156.61256 176.99402 154.27431 178.18607 155.58733 180.0602 C 157.11803 180.69707 156.70096 182.80654 155.27055 183.31943 C 154.05239 183.96016 152.11423 182.9135 151.67749 184.80565 C 151.16776 186.32865 149.87556 187.47958 149.71843 189.14337 C 149.40597 190.62894 149.22056 192.29902 148.05394 193.39944 C 146.15143 193.18006 144.81941 195.49757 145.91608 197.02971 C 146.04981 198.57192 144.42838 199.29571 143.40874 200.10756 C 141.18654 202.26599 138.15023 203.15398 135.53325 204.69487 C 134.53969 204.63227 133.54839 202.79026 132.89517 204.45303 C 131.65653 204.78079 130.03471 202.94893 129.27317 204.76929 C 128.20006 205.5447 126.65476 205.07841 125.64859 205.96663 C 125.45534 206.19323 125.42628 206.51027 125.47495 206.7919 C 124.00285 205.50046 121.99959 206.43501 120.28147 206.33818 C 118.60107 206.23574 117.60772 203.6446 116.52925 203.48719 C 117.01905 204.11359 116.6164 205.7113 115.84195 204.53416 C 114.84081 203.70674 114.83036 205.99414 113.58524 205.28863 C 112.37429 204.69086 110.93038 204.27012 109.84232 203.73938 C 109.91392 202.9319 109.90321 201.65451 110.38078 201.3912 C 109.90576 200.70946 109.75682 199.66819 110.95336 199.96493 C 111.945 199.54338 111.68395 198.24206 112.57135 197.71855 C 112.22264 196.66312 112.34712 195.91215 113.25141 195.21948 C 114.00075 194.09375 113.09741 192.76713 112.73051 191.65588 C 112.10805 190.33877 111.25001 189.15439 110.52961 187.89228 C 109.43101 187.42783 109.13757 186.03961 110.58852 185.91979 C 111.82044 184.77185 111.12652 182.8995 110.47432 181.63065 C 109.39765 180.22334 108.7614 178.47966 107.40629 177.29138 C 105.74375 176.65347 105.11241 174.60354 103.31455 174.16444 C 101.67541 173.38144 99.698418 172.62695 99.011969 170.7786 C 98.459259 169.34045 95.564166 168.68217 95.486086 170.73002 C 95.633876 172.39912 95.300137 174.15437 93.684129 174.94527 C 92.54903 176.02925 93.999416 178.03399 93.059877 178.82927 C 91.695119 178.55832 89.834192 177.50764 89.173293 179.46489 C 89.077493 181.18346 90.019517 182.75122 90.602146 184.25581 C 90.269367 185.62261 92.340167 187.35671 90.477089 188.12638 C 88.570761 188.79624 88.833784 186.04854 87.369785 185.62007 C 86.549866 185.42199 86.054958 186.07839 85.462408 185.26143 C 84.219409 185.27098 84.376501 187.25997 84.74824 187.791 C 84.808376 187.8376 84.868436 187.86115 84.928591 187.92432 C 84.865985 187.92375 84.805024 187.87211 84.74824 187.791 C 83.687692 186.96902 82.627194 188.55089 81.472471 187.60031 C 80.135292 186.61483 78.450171 186.99788 77.072223 186.296 C 75.478254 185.26074 74.638172 183.4638 73.264703 182.19134 C 72.020575 180.84731 71.007958 179.32472 69.855609 177.91408 C 69.426559 176.87088 67.912442 175.87505 67.753412 175.307 C 68.679411 175.13046 69.591603 173.57099 68.083624 173.78513 C 66.849295 173.90118 67.092737 172.42542 68.215916 172.91748 C 69.982604 172.83348 68.544506 170.97455 68.356476 170.03601 C 67.935076 168.7827 67.605521 167.4712 67.659361 166.13909 C 66.163102 164.67016 65.17979 168.42629 64.185671 167.55605 C 63.922421 166.15855 62.311891 167.13532 63.06946 168.20149 C 63.11446 169.21162 61.67854 169.47092 62.253489 168.23818 C 62.127609 165.7741 61.99916 163.30687 62.02973 160.84122 C 62.05393 159.74131 60.81427 159.10362 61.862298 158.18453 C 62.081158 156.53419 64.240888 155.18994 63.240509 153.52694 C 61.85808 151.93785 64.755512 151.52836 64.547923 149.93181 C 64.637723 148.56804 64.299472 147.22157 64.385142 145.85609 C 64.373742 144.43481 63.521387 142.82249 61.951699 142.72501 C 60.26103 141.96658 58.22935 142.60475 56.623342 141.59071 C 56.306192 139.79437 54.078138 139.17349 52.62617 138.89062 C 51.143721 138.80142 50.96685 136.68121 50.163271 135.70942 C 49.393432 134.29586 48.348051 132.94595 48.277081 131.27248 C 47.964182 129.65169 47.621318 127.99902 47.710708 126.35185 C 47.643308 125.50851 48.778139 124.78644 48.512209 126.12758 C 49.074978 127.65886 49.391542 129.19929 49.235162 130.76967 C 49.733632 132.19153 51.588411 133.00433 51.345111 134.69346 C 52.08782 136.3227 53.212263 137.95557 55.101471 138.16715 C 56.02319 137.90363 56.371107 136.38723 57.612945 137.12949 C 59.355734 137.38202 61.106413 137.69044 62.813662 138.09222 C 63.548371 138.75276 64.45185 139.69618 65.321519 139.26734 C 65.995578 139.83558 67.294736 139.51602 67.367906 140.6471 C 68.626054 141.27986 69.936792 142.11148 69.887132 143.60144 C 70.985921 144.50748 71.42329 145.75254 71.46688 147.12164 C 71.82108 148.65316 71.893886 150.33816 71.096877 151.74565 C 70.940377 153.70675 73.288462 152.01093 74.030031 151.8583 C 75.47833 152.42083 73.022018 154.65934 73.676048 154.65452 C 74.976506 153.44225 76.638719 154.78909 77.050519 155.86478 C 76.477979 154.64126 77.860707 153.1543 78.782196 154.50672 C 79.643755 155.28668 80.947767 154.22729 81.626467 153.53417 C 82.364886 152.39981 83.635217 151.42844 85.026776 152.11462 C 86.197465 152.40831 89.555229 152.86189 88.20746 150.80359 C 87.125332 149.58457 86.752836 147.12619 88.946433 147.00175 C 90.762222 146.14004 87.977009 144.3934 88.934548 142.98288 C 89.168318 141.64952 90.951251 140.73752 90.208372 139.24667 C 89.826392 138.13085 88.487763 137.35646 87.382705 137.962 C 85.379047 138.09115 85.234517 135.36731 85.788487 133.97929 C 86.350666 131.66447 87.255519 129.0739 89.530377 127.93315 C 91.371495 127.2251 90.883488 125.14236 91.804657 123.85588 C 92.911846 123.03625 92.109999 122.18445 91.448089 121.49995 C 91.525089 119.77195 94.517357 119.60225 94.080487 117.51673 C 93.805767 115.94474 94.997548 114.87973 96.250897 115.73389 C 96.698677 115.05195 96.934841 113.15987 97.76605 114.66419 C 99.159689 115.42332 100.86108 114.49681 102.18852 115.29206 C 103.53484 114.40081 104.80405 113.41394 106.51952 113.41776 C 106.93098 113.35904 107.34799 113.32198 107.76596 113.30975 z " /></g></svg>
