<?xml version="1.0" encoding="UTF-8" standalone="no"?>
<!-- Created with Inkscape (http://www.inkscape.org/) -->

<svg
   width="157.61227mm"
   height="39.83025mm"
   viewBox="0 0 157.61227 39.83025"
   version="1.1"
   id="svg1"
   xml:space="preserve"
   inkscape:version="1.3 (0e150ed, 2023-07-21)"
   sodipodi:docname="Bell_206L4-side.svg"
   xmlns:inkscape="http://www.inkscape.org/namespaces/inkscape"
   xmlns:sodipodi="http://sodipodi.sourceforge.net/DTD/sodipodi-0.dtd"
   xmlns="http://www.w3.org/2000/svg"
   xmlns:svg="http://www.w3.org/2000/svg"><sodipodi:namedview
     id="namedview1"
     pagecolor="#505050"
     bordercolor="#ffffff"
     borderopacity="1"
     inkscape:showpageshadow="0"
     inkscape:pageopacity="0"
     inkscape:pagecheckerboard="1"
     inkscape:deskcolor="#505050"
     inkscape:document-units="mm"
     inkscape:zoom="0.91936027"
     inkscape:cx="295.31405"
     inkscape:cy="76.139901"
     inkscape:current-layer="layer1" /><defs
     id="defs1" /><g
     inkscape:label="Layer 1"
     inkscape:groupmode="layer"
     id="layer1"
     transform="translate(-39.587525,-117.81801)"><path
       id="path1"
       style="fill:#ffffff;fill-opacity:1;stroke:none;stroke-width:4.99999;stroke-linecap:round;stroke-linejoin:round"
       d="m 40.5691,117.81813 c -1.229309,-0.013 -1.337023,1.02819 -0.135392,1.08779 1.201629,0.0597 62.338832,2.7156 62.338832,2.7156 v 0.49247 h 6.36653 v 6.6151 h -1.09657 v 1.47433 h -0.83302 v -0.90175 h -2.8143 v 0.57102 h -0.69298 l 0.50901,0.88109 -0.99529,1.72341 h -7.11946 c -2.057665,0 -3.201093,0.67565 -3.872115,1.34668 -0.671025,0.67102 -1.840715,2.00712 -1.840715,2.00712 h -1.438155 c -2.169375,0 -6.209334,2.66465 -11.67629,7.77316 -1.730535,0.40833 -5.053913,1.69499 -6.143294,3.62821 -3.100417,0.0798 -1.851262,0.5282 0.384473,0.71985 2.62709,3.52298 10.99957,3.9571 21.282422,4.06848 l -0.818555,4.10673 h -3.306258 c -0.807441,0 -1.410829,0.0704 -2.259811,-0.3824 h -2.099096 c 1.101825,1.28442 2.861159,1.90324 4.296895,1.90324 H 119.8423 c 1.80499,0 1.34731,-1.18546 0.76274,-1.18546 h -1.46968 l 0.35554,-4.05815 c 0,0 1.35153,-0.004 1.98076,-0.66146 0,0 10.19469,-2.01653 12.1729,-2.51096 1.9782,-0.49441 2.74806,-0.53384 3.70985,-1.82934 0.96178,-1.29549 4.56819,-6.03064 4.56819,-6.03064 l 14.79135,-1.18287 0.36483,0.53123 2.95125,-0.73691 24.47499,-2.15852 -3.08664,4.54236 1.38183,0.97358 2.60139,-3.42666 3.7884,6.54172 c 0,0 5.87241,0.37057 7.10965,0.47697 1.23723,0.1064 1.01394,-0.33151 0.42994,-0.38241 -0.584,-0.0509 -4.70979,-0.38602 -4.70979,-0.38602 l 1.39785,-0.6935 c 0,0 -2.73417,-6.69243 -3.1781,-8.15815 1.96723,-0.44909 3.53725,-1.62885 3.53725,-1.62885 0,0 -0.83948,-1.11355 -3.26957,-1.4583 l 3.7481,-11.13731 h -4.04213 l -6.05752,11.29699 -21.49532,0.51624 0.75499,-2.77812 c 0,0 -3.67725,-0.13101 -3.99201,0.35191 -0.31476,0.48293 -1.75441,2.62672 -1.75441,2.62672 l -16.54473,0.13281 c 0,0 -6.7809,-2.97655 -8.00054,-3.47834 -1.21963,-0.50178 -1.75686,-0.87799 -3.32745,-0.87799 h -4.98574 v -1.09864 l -1.24075,-1.24075 -1.1529,1.15239 v 0.76016 h -4.65553 c 0,0 -0.6284,-0.46096 -1.88723,-0.46096 h -5.78879 v -7.68015 h 5.29063 v -0.56017 c 0,0 59.6151,-2.65674 60.95701,-2.74764 1.34191,-0.0909 1.54536,-1.12208 0.13952,-1.06608 -1.40583,0.056 -61.06552,2.42621 -61.06552,2.42621 h -5.25084 -1.16944 -6.31176 c 0,0 -60.876459,-2.53207 -62.10577,-2.54507 z m 54.346037,34.37671 c 11.104363,0.63896 12.935503,0.89601 22.815663,0.23668 l -0.96997,3.74758 H 94.166862 c 0,0 0.362256,-2.2047 0.748275,-3.98426 z" /></g></svg>
