<?xml version="1.0" encoding="UTF-8" standalone="no"?>
<!-- Created with Inkscape (http://www.inkscape.org/) -->

<svg
   width="27.506046mm"
   height="38.882275mm"
   viewBox="0 0 27.506046 38.882275"
   version="1.1"
   id="svg1"
   xml:space="preserve"
   inkscape:version="1.3 (0e150ed, 2023-07-21)"
   sodipodi:docname="Bell_206L4-front.svg"
   xmlns:inkscape="http://www.inkscape.org/namespaces/inkscape"
   xmlns:sodipodi="http://sodipodi.sourceforge.net/DTD/sodipodi-0.dtd"
   xmlns="http://www.w3.org/2000/svg"
   xmlns:svg="http://www.w3.org/2000/svg"><sodipodi:namedview
     id="namedview1"
     pagecolor="#505050"
     bordercolor="#ffffff"
     borderopacity="1"
     inkscape:showpageshadow="0"
     inkscape:pageopacity="0"
     inkscape:pagecheckerboard="1"
     inkscape:deskcolor="#505050"
     inkscape:document-units="mm"
     inkscape:zoom="1.3001718"
     inkscape:cx="56.530992"
     inkscape:cy="99.986789"
     inkscape:current-layer="layer1"
     showguides="true" /><defs
     id="defs1"><inkscape:path-effect
       effect="mirror_symmetry"
       start_point="105,0"
       end_point="105,297"
       center_point="105,148.5"
       id="path-effect1"
       is_visible="true"
       lpeversion="1.2"
       lpesatellites=""
       mode="vertical"
       discard_orig_path="false"
       fuse_paths="false"
       oposite_fuse="true"
       split_items="false"
       split_open="false"
       link_styles="false" /></defs><g
     inkscape:label="Layer 1"
     inkscape:groupmode="layer"
     id="layer1"
     transform="translate(-91.246977,-132.47543)"><path
       style="fill:#555555;stroke-width:4.99999;stroke-linecap:round;stroke-linejoin:round"
       d="m 100.08051,167.10235 c -1.91676,0 -6.31764,1.90571 -7.27471,3.47147 -0.95707,1.56576 -1.88917,0.48213 -1.44469,-0.61573 0.44448,-1.09787 3.23119,-3.70132 6.93538,-4.44261 -0.91587,-0.90269 -1.0563,-1.40857 -1.17679,-2.80848 -0.1205,-1.39991 -0.50396,-5.93525 -0.0859,-8.46504 0.13694,-0.82867 0.37101,-1.46538 0.37101,-1.46538 h -3.88392 c 0,0 0.0183,0.40217 -0.11568,0.77428 -0.134,0.37212 -0.99492,1.44433 -0.93726,-0.22112 0.0577,-1.66546 0.40426,-6.07909 0.48501,-6.89074 0.0808,-0.81166 0.87638,-0.7755 0.90866,0.1202 0.0323,0.89571 0.17209,2.14836 -0.0261,4.74737 h 4.27016 c 0.61277,-0.97205 1.44631,-1.09185 2.07307,-1.34566 v -3.3667 c 0,0 -0.36545,-0.37161 -0.32153,-0.97886 0.0439,-0.60724 0.47523,-2.15092 1.17102,-2.15092 h 0.94933 v -0.40763 h 0.77582 v -7.1537 h -0.80897 v -3.42767 h 3.05557 3.05559 v 3.42767 h -0.80897 v 7.1537 h 0.77582 v 0.40763 h 0.94933 c 0.69579,0 1.12712,1.54368 1.17102,2.15092 0.0439,0.60725 -0.32153,0.97886 -0.32153,0.97886 v 3.3667 c 0.62676,0.25381 1.4603,0.37361 2.07307,1.34566 h 4.27016 c -0.19819,-2.59901 -0.0584,-3.85166 -0.0261,-4.74737 0.0323,-0.8957 0.82786,-0.93186 0.90866,-0.1202 0.0808,0.81165 0.42731,5.22528 0.48501,6.89074 0.0577,1.66545 -0.80326,0.59324 -0.93726,0.22112 -0.13398,-0.37211 -0.11568,-0.77428 -0.11568,-0.77428 h -3.88392 c 0,0 0.23407,0.63671 0.37101,1.46538 0.41806,2.52979 0.0346,7.06513 -0.0859,8.46504 -0.12049,1.39991 -0.26092,1.90579 -1.17679,2.80848 3.70419,0.74129 6.4909,3.34474 6.93538,4.44261 0.44448,1.09786 -0.48762,2.18149 -1.44469,0.61573 -0.95707,-1.56576 -5.35795,-3.47147 -7.27471,-3.47147 H 105 Z"
       id="path1"
       sodipodi:nodetypes="csscssccsccsccccsscccccccccccccssccccsccsccsscssscc" /></g></svg>
