<?xml version="1.0" encoding="UTF-8" standalone="no"?>
<!-- Created with Inkscape (http://www.inkscape.org/) -->

<svg
   width="210.67038mm"
   height="170.41243mm"
   viewBox="0 0 210.67038 170.41243"
   version="1.1"
   id="svg1"
   xml:space="preserve"
   sodipodi:docname="Mil_Mi_26-top.svg"
   inkscape:version="1.3 (0e150ed, 2023-07-21)"
   xmlns:inkscape="http://www.inkscape.org/namespaces/inkscape"
   xmlns:sodipodi="http://sodipodi.sourceforge.net/DTD/sodipodi-0.dtd"
   xmlns="http://www.w3.org/2000/svg"
   xmlns:svg="http://www.w3.org/2000/svg"><sodipodi:namedview
     id="namedview1"
     pagecolor="#505050"
     bordercolor="#ffffff"
     borderopacity="1"
     inkscape:showpageshadow="0"
     inkscape:pageopacity="0"
     inkscape:pagecheckerboard="1"
     inkscape:deskcolor="#505050"
     inkscape:document-units="mm"
     inkscape:zoom="0.64805029"
     inkscape:cx="398.11725"
     inkscape:cy="322.50584"
     inkscape:current-layer="layer1" /><defs
     id="defs1" /><g
     inkscape:label="Layer 1"
     inkscape:groupmode="layer"
     id="layer1"
     transform="translate(-1.5246165,-48.505546)"><path
       id="path1"
       style="fill:#555555;stroke-width:0.264583"
       d="m 212.195,129.73779 -0.008,-1.24799 -15.49776,-1.17098 0.0693,-0.79221 h -2.54868 l -0.0341,0.82631 -13.43122,-0.0341 v 0.92966 l 11.29595,1.23972 1.79059,0.0444 v 1.95337 l -13.65499,-0.58549 -0.017,-7.99022 -0.18965,-1.80764 -0.25838,-2.27324 -0.27544,-2.03192 -0.25838,-0.55087 -0.49919,-0.37879 -1.03301,-0.29301 -0.91261,-0.0341 -2.10065,0.0341 -0.86144,0.22428 -0.6196,0.43046 -0.29301,0.67128 -0.30179,2.0898 -0.21911,3.43338 -0.14624,7.28121 -4.55373,-0.41393 -15.95045,-1.36374 -5.86889,-0.36535 -5.89317,-0.48679 -3.92018,-0.34107 -5.99084,-0.43822 -5.64979,-0.43821 -5.94175,-0.48731 -5.30872,-0.46251 -4.04215,-0.24339 -3.77496,-0.34107 L 99.261807,123.9779 147.49349,75.109607 144.9107,72.543872 94.887917,123.4958 v -5.61309 h -5.87148 V 48.505546 h -3.59874 v 74.387194 l -7.11585,-0.37156 v -0.54777 l -49.54426,-49.958188 -2.66651,2.666504 47.74231,47.741784 -13.07724,-0.12143 -2.51044,0.0186 -1.68155,0.10903 -1.66915,0.17002 -2.16007,0.293 -3.3073,0.56328 -0.64595,0.12299 -0.61909,0.15348 -2.53938,0.7276 -1.36012,0.43046 -5.71696,-0.0176 -0.91261,0.98186 -2.27273,0.34416 -2.63446,0.39636 -2.65204,0.51625 -2.63446,0.74052 -2.56574,0.82631 -2.67839,1.10484 -0.61029,0.28164 -0.46974,0.26045 -0.83923,0.54002 -0.60255,0.0692 H 1.5246165 v 3.65043 l 15.4543605,0.061 0.42323,-0.006 0.26096,0.40411 0.21084,0.26923 0.31988,0.28061 1.09089,0.83199 0.17673,0.10645 1.40612,0.84336 1.85105,0.82837 1.36374,0.51108 1.9234,0.58446 3.72587,1.07177 2.2195,0.55087 0.9462,0.2527 0.98443,0.19431 1.29811,0.22272 0.55088,0.0842 0.59376,0.0594 1.32188,0.0724 0.92501,0.94981 5.77174,-0.0734 0.68161,0.2434 3.21428,0.77928 3.96978,0.75499 2.48357,0.29249 3.67729,0.17001 h 5.8689 l 7.37836,-0.0486 -46.94959,46.56718 2.73782,2.73782 49.10966,-49.50551 4.04678,-0.15503 4.93613,-0.15554 v 2.37401 h -1.53427 l -0.29197,72.17906 h 3.75016 l -0.0977,-74.7236 h 0.57257 v 4.69997 h 6.85385 v -2.89285 l 0.18913,-0.3793 49.351003,49.86775 2.69234,-2.69234 -49.455383,-49.45589 74.747893,-6.73293 0.46302,4.3832 0.18811,4.02766 0.17208,2.27325 0.25838,1.34307 0.13746,0.84336 0.32711,0.58549 0.46509,0.18965 0.67179,0.22273 h 2.24844 l 1.04697,-0.0491 0.90124,-0.26768 0.58446,-0.60875 0.31626,-0.90123 0.21962,-1.85054 0.19327,-2.80034 v -8.89817 l 13.44828,-0.51676 v 0.84387 h 0.7059 v 4.2876 h 2.04897 v -1.06764 l 4.49433,-4.88975 h 1.44642 v -1.56683 l -2.27273,-0.0176 -2.95434,-2.55385 0.23358,0.006 z" /></g></svg>
