<?xml version="1.0" encoding="UTF-8" standalone="no"?>
<!-- Created with Inkscape (http://www.inkscape.org/) -->

<svg
   width="197.78224mm"
   height="61.171188mm"
   viewBox="0 0 197.78224 61.171188"
   version="1.1"
   id="svg1"
   xml:space="preserve"
   xmlns:inkscape="http://www.inkscape.org/namespaces/inkscape"
   xmlns:sodipodi="http://sodipodi.sourceforge.net/DTD/sodipodi-0.dtd"
   xmlns="http://www.w3.org/2000/svg"
   xmlns:svg="http://www.w3.org/2000/svg"><sodipodi:namedview
     id="namedview1"
     pagecolor="#505050"
     bordercolor="#ffffff"
     borderopacity="1"
     inkscape:showpageshadow="0"
     inkscape:pageopacity="0"
     inkscape:pagecheckerboard="1"
     inkscape:deskcolor="#505050"
     inkscape:document-units="mm" /><defs
     id="defs1" /><g
     inkscape:label="Layer 1"
     inkscape:groupmode="layer"
     id="layer1"
     transform="translate(-7.0001986,-121.7414)"><path
       id="path1"
       style="fill:#555555;stroke-width:0.264583"
       d="m 177.85116,121.7414 -2.92747,1.65313 8.92091,13.21418 -2.52285,2.69648 -12.74496,2.9378 0.34107,3.26337 8.28011,-1.79265 -6.47557,6.92205 -3.37499,0.0687 -0.82682,1.5844 2.87579,0.35295 -0.53382,0.40463 h -58.75248 l -1.92857,-1.85984 0.6656,-0.68729 0.27233,-0.78652 -0.004,-0.89038 -0.3142,-1.01079 -0.54001,-0.90848 -0.76843,-0.71003 -1.08056,-0.48266 -1.41645,-0.13746 -6.112806,0.0346 -5.062741,0.98133 -0.09715,-1.2454 -0.0031,-0.0357 0.0057,-0.0331 0.03566,-0.0129 0.05168,-0.005 5.207438,-0.33796 70.393119,-6.68125 -0.0693,-1.72186 -73.850273,5.88595 -0.219625,0.0176 -0.211356,0.0568 -0.177767,0.0646 -0.151412,0.093 -1.154452,0.76946 -0.124023,-1.60817 -0.01292,-0.0796 -0.04082,-0.061 -0.08217,-0.0295 -0.08992,-0.002 -2.673739,0.12144 -0.08061,-0.005 -0.05116,-0.0139 -0.01757,-0.0476 -0.0062,-0.062 -0.117305,-1.52652 -0.0062,-0.0537 -0.02997,-0.0486 -0.04806,-0.0181 -0.06563,-0.0114 -3.105237,-0.0599 -0.161747,0.0191 -0.129191,0.0568 -0.09043,0.10387 -0.06046,0.14573 -0.67076,2.11564 -0.09147,0.21549 -0.09457,0.10593 -0.167431,0.0346 -0.421163,-0.0124 -1.787488,-0.0894 -0.141593,-0.003 -0.125057,0.0574 -0.0863,0.0982 -0.05581,0.13384 -0.413412,1.29139 -0.02481,0.0713 -0.04082,0.0439 -0.05891,0.0196 -0.107487,0.01 -75.2987634,6.11435 0.6888468,1.79111 74.4936446,-5.22294 0.166398,-0.0543 0.122473,-0.0889 0.706934,-0.69505 0.102836,1.17874 -0.05116,0.36225 -0.133325,0.26252 -0.340031,0.21962 -0.542086,0.0429 h -2.384867 l -0.233061,0.031 -0.206189,0.0553 -0.336413,0.262 -0.306442,0.39843 -0.196887,0.10335 -0.368453,-0.002 -0.985986,0.0568 -0.376721,0.12867 -0.209807,0.12558 -0.4439,0.49351 -0.236161,0.43046 -0.195854,1.34359 -0.07493,0.27233 -0.325561,0.15968 -0.377238,0.003 -9.010303,0.11421 -0.806669,0.12506 -0.503845,0.23564 -0.702283,0.40411 -0.861446,0.0636 -0.393258,0.0785 -0.384473,0.10387 -0.324528,0.20464 -0.300756,0.28215 -0.188619,0.31316 -0.09095,0.25115 -0.05891,0.32608 -0.205672,2.12493 0.03049,0.32918 0.147278,0.22376 0.731221,0.46354 -7.507552,1.30896 -5.441528,1.23972 -4.771285,1.57975 -1.3224,0.51314 -1.689303,0.92036 -1.55391,1.69602 -0.821655,1.48983 -1.44694,1.23972 -1.959571,0.85163 -1.743046,1.04231 -1.360123,1.20561 -0.766879,0.98496 -0.16278,1.08107 0.361218,1.01596 0.845943,0.7369 1.27124,0.74828 1.275375,0.59841 3.409094,1.22266 2.421557,0.60617 2.160075,0.43873 2.908867,0.40153 4.18424,0.22376 v 2.27324 l 0.142111,0.63717 0.526582,0.6227 0.737423,0.3974 0.709518,0.10542 0.571024,-0.0408 0.450619,-0.25631 0.355533,-0.4284 0.278536,-0.63252 0.15503,-0.68058 v -0.53123 l -0.182935,-0.45321 -0.306441,-0.28163 -0.471289,-0.32195 -0.692464,-0.13384 0.137459,-0.27543 42.63564,0.0687 -0.0124,1.02784 0.14211,1.27331 0.34985,0.60668 0.488859,0.39842 0.575158,0.32143 0.672311,0.23771 0.784965,0.0424 0.77876,-0.11162 0.63304,-0.38189 0.546228,-0.52142 0.35708,-0.59324 0.13333,-0.68316 -0.03,-0.72968 -0.185,-0.68006 0.20669,-0.13746 h 9.19531 l 2.54868,-0.2067 2.25361,-0.50643 2.94659,-1.00924 5.71644,-2.34146 4.40852,-2.204 3.44372,-2.34198 5.93607,-4.34444 2.97088,-3.01945 2.80241,-2.79569 h 18.80351 l 6.06112,-0.17209 6.612,-0.55087 1.24128,1.43196 1.16944,1.32291 1.30896,1.03302 2.34198,0.0692 0.66146,-0.27233 0.23357,-0.62322 -0.6196,-0.48214 -1.44642,-0.0687 v -2.65462 l 5.05809,-7.35717 0.0734,5.46478 c 0,0 2.99605,1.10196 3.06493,0.75758 0.0611,-0.30542 0.3105,-9.11867 0.37259,-11.32955 l 4.17803,-6.07766 11.01587,5.93917 1.61851,-2.27324 -11.74709,-6.35879 -0.0656,-1.18339 -1.72186,-1.10174 -0.3576,-0.004 9.10074,-9.77873 -2.38642,-2.33733 -10.75748,12.07369 -1.85312,-0.0196 0.19275,-2.58641 z" /></g></svg>
