<?xml version="1.0" encoding="UTF-8" standalone="no"?>
<!-- Created with Inkscape (http://www.inkscape.org/) -->

<svg
   width="187.75806mm"
   height="75.17939mm"
   viewBox="0 0 187.75806 75.17939"
   version="1.1"
   id="svg1"
   xml:space="preserve"
   xmlns:inkscape="http://www.inkscape.org/namespaces/inkscape"
   xmlns:sodipodi="http://sodipodi.sourceforge.net/DTD/sodipodi-0.dtd"
   xmlns="http://www.w3.org/2000/svg"
   xmlns:svg="http://www.w3.org/2000/svg"><sodipodi:namedview
     id="namedview1"
     pagecolor="#505050"
     bordercolor="#ffffff"
     borderopacity="1"
     inkscape:showpageshadow="0"
     inkscape:pageopacity="0"
     inkscape:pagecheckerboard="1"
     inkscape:deskcolor="#505050"
     inkscape:document-units="mm" /><defs
     id="defs1" /><g
     inkscape:label="Layer 1"
     inkscape:groupmode="layer"
     id="layer1"
     transform="translate(-10.885124,-70.94399)"><path
       id="path1"
       style="fill:#555555;fill-opacity:1;stroke-width:0.264583"
       d="m 94.874829,70.94399 v 19.352824 l -0.150895,0.03359 -0.120923,0.04237 -0.08888,0.05116 -0.05943,0.05943 -0.03927,0.06201 -0.409794,0.889351 -0.07958,0.254765 -0.06718,0.294555 -0.03669,0.66611 0.0026,0.321427 0.05994,0.425814 0.141593,0.355534 0.195854,0.325561 0.701766,1.015442 v 2.970878 H 10.90943 l -0.02429,1.047482 84.026912,0.825789 -0.03204,8.258418 H 86.68878 l -1.451591,0.38912 v 1.09761 l 1.462444,0.3917 h 8.110099 l 0.473873,0.51677 -0.389124,0.49713 -0.170532,0.63768 h -1.699638 l -0.511597,3.10472 v 1.9849 h 1.704806 l 0.643888,0.63717 -0.03411,0.49971 -0.520899,0.23409 -0.155029,0.0796 -0.144177,0.0997 -0.403593,0.31936 -0.166915,0.18397 -0.159163,0.21549 -0.361735,0.71003 -0.300757,0.7059 -0.104387,0.29611 -0.077,0.38395 -0.08733,0.84181 -0.0186,0.50126 -5.17e-4,0.4439 0.09043,0.4992 0.126607,0.32711 0.209806,0.32143 0.192237,0.24184 0.466638,0.4868 -0.249081,1.5415 -0.10697,0.52194 -0.24908,0.0858 -0.280603,1.86862 0.102836,0.13332 -0.04393,0.21549 v 6.44096 h -3.823539 v 1.37614 h -0.718303 v 0.66921 h 0.827857 v 0.43615 h -2.464966 v 0.4563 l -0.180868,0.18087 v 3.19463 l 0.180868,0.38965 v 0.41237 l -0.251148,0.40308 v 1.20716 l 0.251148,0.43512 v 0.34675 h 2.307353 v -1.87689 h 1.25677 v 1.98024 h 2.249476 v -0.3328 l 0.328662,-0.32866 v -1.89963 l -0.328662,-0.32814 v -0.30489 l 0.112654,-0.6041 h 4.663798 l 0.395842,0.1819 H 102.278 v 0.90899 l -0.2191,0.2558 v 2.86132 l 0.2191,0.15658 v 0.28215 h 1.70481 v -0.99838 h 1.09606 v 1.01027 h 1.63866 v -0.23823 l 0.29662,-0.21239 v -2.86132 l -0.29197,-0.34055 -0.005,0.3297 v -1.11932 h 2.24689 2.15284 l 0.1912,-0.076 5.26945,-0.18914 -0.0284,0.79014 0.27905,0.28577 v 0.24804 l -0.25322,0.14625 v 1.61024 l 0.25322,0.28938 v 0.36329 h 2.17506 v -2.53835 h 1.30845 v 2.54869 h 1.87843 v -0.34004 l 0.36019,-0.0961 v -2.24069 l -0.36019,-0.22273 v -0.34106 l 0.3359,-0.25167 0.0243,-0.96221 -0.36019,-0.17105 v -0.17674 l -0.25631,-0.14779 0.13436,-0.23306 v -2.27325 h -1.73065 v -1.24798 l -0.18035,-0.68937 -0.15089,-0.5643 -0.38964,-0.2558 -0.35347,0.2682 h -3.31142 v -4.49327 l 0.0362,-0.65732 -0.14625,-0.41393 0.15865,-0.45062 -0.17053,-2.20348 -0.46302,-0.48731 0.0341,-1.38079 0.70901,-1.01803 0.3116,-0.75396 0.0899,-0.57929 0.009,-0.47387 -0.0284,-0.29869 -0.0661,-0.69402 -0.093,-0.33435 -0.53072,-1.27795 -0.75603,-0.90382 -0.24287,-0.24133 -0.26976,-0.20206 -0.52348,-0.27647 -0.0847,-0.53175 0.49868,-0.27337 h 1.08055 l 0.81236,-0.46922 -0.56017,-5.12217 h -1.82212 l -0.62786,-1.08623 -0.60617,-0.16279 v -0.34106 h 9.0873 l 1.69654,-0.45475 v -1.0294 l -1.70067,-0.45578 H 111.1421 v -3.6773 l 1.07125,-3.11712 v -0.53123 h -2.21743 l -0.26665,0.99425 -0.43822,-0.68213 v -1.02267 l 89.35165,-0.892461 v -1.188041 h -92.74886 v -4.677234 l 1.12655,-0.09147 0.7121,-0.712101 v -1.218014 h -1.05833 l -1.53479,-0.681095 0.0424,-0.321428 h 0.41755 v -0.338997 h -0.37259 l 0.11937,-0.898653 h -1.89962 v 0.949813 h -0.37724 v 0.341064 h 0.36793 v 0.371037 l -0.35656,0.494027 v 0.0155 h -6.931884 l -0.114205,-0.111621 0.462504,-0.267167 V 70.94399 Z m 2.137337,22.264791 h 6.058024 l -0.0274,5.101497 -6.768583,-0.02222 0.03411,-4.502567 z m -0.60358,6.744291 2.949174,0.02894 0.04909,0.868678 -0.485758,0.81029 -0.515731,-1.18494 -1.703772,0.0243 c 0.06257,0.72878 0.161506,1.45201 0.274919,2.17351 0.143827,0.91499 0.310969,1.82721 0.457853,2.74453 l 0.192236,2.77813 h -1.329634 z m 19.357474,36.829278 h 2.69493 l 0.73173,0.73174 h -0.65422 v 0.55965 h -0.31006 v -0.59428 h -1.02422 v 0.49816 h -0.37569 v 0.8754 l -1.19528,-0.84284 0.13281,-0.15193 z m -25.140584,0.33538 h 1.980758 l 0.417545,0.77515 -0.498677,0.38809 v -0.43925 h -2.287716 l 0.38809,-0.22428 z m 24.474474,1.50378 1.72858,1.24799 v 0.0899 l -0.15865,0.10283 -0.014,0.4961 -3.56309,0.18345 0.82579,-0.76688 z m -21.503596,0.33487 0.03721,0.0687 1.317232,1.48518 h -2.439127 l 0.01344,-0.0729 v -0.54828 z" /></g></svg>
