<?xml version="1.0" encoding="UTF-8" standalone="no"?>
<!-- Created with Inkscape (http://www.inkscape.org/) -->

<svg
   width="1000"
   height="1000"
   viewBox="0 0 264.58333 264.58333"
   version="1.1"
   id="svg1"
   inkscape:version="1.3 (0e150ed, 2023-07-21)"
   sodipodi:docname="compare-level-5.svg"
   xmlns:inkscape="http://www.inkscape.org/namespaces/inkscape"
   xmlns:sodipodi="http://sodipodi.sourceforge.net/DTD/sodipodi-0.dtd"
   xmlns="http://www.w3.org/2000/svg"
   xmlns:svg="http://www.w3.org/2000/svg">
  <sodipodi:namedview
     id="namedview1"
     pagecolor="#505050"
     bordercolor="#ffffff"
     borderopacity="1"
     inkscape:showpageshadow="0"
     inkscape:pageopacity="0"
     inkscape:pagecheckerboard="1"
     inkscape:deskcolor="#505050"
     inkscape:document-units="mm"
     inkscape:zoom="0.36159722"
     inkscape:cx="557.24986"
     inkscape:cy="472.90187"
     inkscape:current-layer="layer1" />
  <defs
     id="defs1" />
  <g
     inkscape:label="Layer 1"
     inkscape:groupmode="layer"
     id="layer1">
    <path
       sodipodi:type="star"
       style="opacity:1;fill:#0091fe;fill-opacity:1;stroke:none;stroke-width:6.16499;stroke-linecap:round;stroke-linejoin:round;stroke-dasharray:none;stroke-opacity:1"
       id="path1"
       inkscape:flatsided="false"
       sodipodi:sides="12"
       sodipodi:cx="133.78076"
       sodipodi:cy="126.61499"
       sodipodi:r1="111.48702"
       sodipodi:r2="94.305832"
       sodipodi:arg1="0"
       sodipodi:arg2="0.26179939"
       inkscape:rounded="0"
       inkscape:randomized="0"
       d="m 245.26778,126.61499 -20.39458,24.40815 5.45816,31.33536 -29.86631,10.94078 -10.94078,29.8663 -31.33536,-5.45815 -24.40815,20.39458 -24.40814,-20.39458 -31.335369,5.45815 -10.940783,-29.8663 -29.8663,-10.94078 5.458155,-31.33536 -20.394584,-24.40815 20.394584,-24.40815 -5.458155,-31.335361 29.8663,-10.940782 10.940783,-29.8663 31.335369,5.458155 24.40814,-20.394584 24.40815,20.394584 31.33536,-5.458155 10.94078,29.8663 29.86631,10.940782 -5.45816,31.335361 z"
       inkscape:transform-center-x="1.4133566e-06"
       transform="matrix(1.0254268,0,0,1.0254268,-4.8907059,2.4572677)" />
    <path
       d="m 103.03751,79.971064 h 55.75823 v 17.875634 h -39.3264 v 19.044422 q 2.47509,-0.96253 5.29394,-1.37505 2.81885,-0.48126 5.98146,-0.48126 15.26304,0 24.75088,9.62534 9.48783,9.62534 9.48783,25.02589 0,16.15682 -10.31286,25.5759 -10.24411,9.35033 -27.98224,9.35033 -6.60024,0 -13.33798,-1.10003 -6.73774,-1.10004 -13.750484,-3.30012 v -18.28815 q 5.706454,2.81885 11.687914,4.26265 6.05022,1.37505 12.10043,1.37505 10.72538,0 16.29433,-4.53766 5.56894,-4.60641 5.56894,-13.33797 0,-8.04404 -5.56894,-12.85671 -5.5002,-4.88142 -14.71302,-4.88142 -5.43145,0 -10.93164,1.37505 -5.43144,1.30629 -11.00039,3.98764 z"
       id="text1"
       style="font-weight:bold;font-size:140.805px;line-height:1.25;font-family:Monospace;-inkscape-font-specification:'Monospace Bold';letter-spacing:0px;word-spacing:0px;fill:#ffffff;stroke:#35c8ff;stroke-width:14;paint-order:markers stroke fill"
       aria-label="5" />
    <path
       sodipodi:type="star"
       style="opacity:1;fill:none;fill-opacity:1;stroke:#35c8ff;stroke-width:6.16499;stroke-linecap:round;stroke-linejoin:round;stroke-dasharray:none;stroke-opacity:1"
       id="path2"
       inkscape:flatsided="false"
       sodipodi:sides="12"
       sodipodi:cx="133.78076"
       sodipodi:cy="126.61499"
       sodipodi:r1="111.48702"
       sodipodi:r2="94.305832"
       sodipodi:arg1="0"
       sodipodi:arg2="0.26179939"
       inkscape:rounded="0"
       inkscape:randomized="0"
       d="m 245.26778,126.61499 -20.39458,24.40815 5.45816,31.33536 -29.86631,10.94078 -10.94078,29.8663 -31.33536,-5.45815 -24.40815,20.39458 -24.40814,-20.39458 -31.335369,5.45815 -10.940783,-29.8663 -29.8663,-10.94078 5.458155,-31.33536 -20.394584,-24.40815 20.394584,-24.40815 -5.458155,-31.335361 29.866301,-10.940782 10.940782,-29.8663 31.335369,5.458155 24.40814,-20.394584 24.40815,20.394584 31.33536,-5.458155 10.94079,29.8663 29.8663,10.940782 -5.45816,31.335371 z"
       inkscape:transform-center-x="1.2886159e-05"
       inkscape:transform-center-y="-1.1196101e-05"
       transform="matrix(1.1469903,0,0,1.1469903,-21.153569,-12.523325)" />
  </g>
</svg>
