<?xml version="1.0" encoding="UTF-8" standalone="no"?>
<!-- Created with Inkscape (http://www.inkscape.org/) -->

<svg
   width="1000"
   height="1000"
   viewBox="0 0 264.58333 264.58333"
   version="1.1"
   id="svg1"
   inkscape:version="1.3 (0e150ed, 2023-07-21)"
   sodipodi:docname="compare-level-3.svg"
   xmlns:inkscape="http://www.inkscape.org/namespaces/inkscape"
   xmlns:sodipodi="http://sodipodi.sourceforge.net/DTD/sodipodi-0.dtd"
   xmlns="http://www.w3.org/2000/svg"
   xmlns:svg="http://www.w3.org/2000/svg">
  <sodipodi:namedview
     id="namedview1"
     pagecolor="#505050"
     bordercolor="#ffffff"
     borderopacity="1"
     inkscape:showpageshadow="0"
     inkscape:pageopacity="0"
     inkscape:pagecheckerboard="1"
     inkscape:deskcolor="#505050"
     inkscape:document-units="mm"
     inkscape:zoom="0.063921962"
     inkscape:cx="-735.27155"
     inkscape:cy="187.72891"
     inkscape:current-layer="layer1" />
  <defs
     id="defs1" />
  <g
     inkscape:label="Layer 1"
     inkscape:groupmode="layer"
     id="layer1">
    <path
       sodipodi:type="star"
       style="opacity:1;fill:#00d408;fill-opacity:1;stroke:none;stroke-width:6.16499;stroke-linecap:round;stroke-linejoin:round;stroke-dasharray:none;stroke-opacity:1"
       id="path1"
       inkscape:flatsided="true"
       sodipodi:sides="6"
       sodipodi:cx="133.78076"
       sodipodi:cy="126.61499"
       sodipodi:r1="111.48702"
       sodipodi:r2="93.022804"
       sodipodi:arg1="0"
       sodipodi:arg2="0.52359878"
       inkscape:rounded="0"
       inkscape:randomized="0"
       d="m 245.26778,126.61499 -55.74351,96.55059 -111.487019,0 -55.743512,-96.55059 55.743512,-96.550593 111.487019,0 z"
       inkscape:transform-center-x="1.4133566e-06"
       transform="matrix(1.0254268,0,0,1.0254268,-4.8907059,2.4572677)" />
    <path
       d="m 129.62627,137.61999 h -10.86289 v -17.87564 h 10.86289 q 7.56277,0 11.68791,-2.95635 4.1939,-3.02511 4.1939,-8.45655 0,-5.70645 -4.1939,-8.869066 -4.12514,-3.231364 -11.68791,-3.231364 -5.77521,0 -12.37544,1.443801 -6.60023,1.443801 -13.68173,4.193899 V 83.443066 q 7.0815,-2.131325 13.95674,-3.231364 6.87524,-1.168792 13.20047,-1.168792 16.22557,0 25.3009,7.081501 9.07532,7.081501 9.07532,19.525689 0,9.14408 -5.22519,14.98803 -5.22518,5.77521 -14.91928,7.56277 11.00039,1.92507 16.7756,8.80032 5.7752,6.80649 5.7752,17.94438 0,14.91928 -9.55659,22.75706 -9.55658,7.83778 -27.77598,7.83778 -7.76903,0 -15.33179,-1.3063 -7.49402,-1.3063 -14.36926,-3.78138 v -18.83817 q 6.46273,3.23136 13.95674,4.95017 7.49402,1.65006 15.74431,1.65006 8.25029,0 13.06296,-3.78138 4.81267,-3.85014 4.81267,-10.31287 0,-7.90653 -4.81267,-12.16918 -4.81267,-4.3314 -13.61298,-4.3314 z"
       id="text1"
       style="font-weight:bold;font-size:140.805px;line-height:1.25;font-family:Monospace;-inkscape-font-specification:'Monospace Bold';letter-spacing:0px;word-spacing:0px;fill:#ffffff;stroke:#20ff32;stroke-width:14;paint-order:markers stroke fill"
       aria-label="3" />
    <path
       sodipodi:type="star"
       style="opacity:1;fill:none;fill-opacity:1;stroke:#20ff32;stroke-width:6.16499;stroke-linecap:round;stroke-linejoin:round;stroke-dasharray:none;stroke-opacity:1"
       id="path2"
       inkscape:flatsided="true"
       sodipodi:sides="6"
       sodipodi:cx="133.78076"
       sodipodi:cy="126.61499"
       sodipodi:r1="111.48702"
       sodipodi:r2="94.305832"
       sodipodi:arg1="0"
       sodipodi:arg2="0.52359878"
       inkscape:rounded="0"
       inkscape:randomized="0"
       d="m 245.26778,126.61499 -55.74351,96.55059 -111.487019,0 -55.743512,-96.55059 55.743512,-96.550593 111.487019,0 z"
       inkscape:transform-center-x="1.2886159e-05"
       inkscape:transform-center-y="-1.1196101e-05"
       transform="matrix(1.1469903,0,0,1.1469903,-21.153569,-12.523325)" />
  </g>
</svg>
