<?xml version="1.0" encoding="UTF-8" standalone="no"?>
<!-- Created with Inkscape (http://www.inkscape.org/) -->

<svg
   width="1000"
   height="1000"
   viewBox="0 0 264.58333 264.58333"
   version="1.1"
   id="svg1"
   inkscape:version="1.3 (0e150ed, 2023-07-21)"
   sodipodi:docname="compare-level-10.svg"
   xmlns:inkscape="http://www.inkscape.org/namespaces/inkscape"
   xmlns:sodipodi="http://sodipodi.sourceforge.net/DTD/sodipodi-0.dtd"
   xmlns="http://www.w3.org/2000/svg"
   xmlns:svg="http://www.w3.org/2000/svg">
  <sodipodi:namedview
     id="namedview1"
     pagecolor="#505050"
     bordercolor="#ffffff"
     borderopacity="1"
     inkscape:showpageshadow="0"
     inkscape:pageopacity="0"
     inkscape:pagecheckerboard="1"
     inkscape:deskcolor="#505050"
     inkscape:document-units="mm"
     inkscape:zoom="0.36159722"
     inkscape:cx="604.2635"
     inkscape:cy="445.24679"
     inkscape:current-layer="layer1" />
  <defs
     id="defs1" />
  <g
     inkscape:label="Layer 1"
     inkscape:groupmode="layer"
     id="layer1">
    <path
       sodipodi:type="star"
       style="opacity:1;fill:#ff000d;fill-opacity:1;stroke:none;stroke-width:6.16499;stroke-linecap:round;stroke-linejoin:round;stroke-dasharray:none;stroke-opacity:1"
       id="path1"
       inkscape:flatsided="false"
       sodipodi:sides="12"
       sodipodi:cx="133.78076"
       sodipodi:cy="126.61499"
       sodipodi:r1="111.48702"
       sodipodi:r2="94.305832"
       sodipodi:arg1="0"
       sodipodi:arg2="0.26179939"
       inkscape:rounded="0"
       inkscape:randomized="0"
       d="m 245.26778,126.61499 -20.39458,24.40815 5.45816,31.33536 -29.86631,10.94078 -10.94078,29.8663 -31.33536,-5.45815 -24.40815,20.39458 -24.40814,-20.39458 -31.335369,5.45815 -10.940783,-29.8663 -29.8663,-10.94078 5.458155,-31.33536 -20.394584,-24.40815 20.394584,-24.40815 -5.458155,-31.335361 29.8663,-10.940782 10.940783,-29.8663 31.335369,5.458155 24.40814,-20.394584 24.40815,20.394584 31.33536,-5.458155 10.94078,29.8663 29.86631,10.940782 -5.45816,31.335361 z"
       inkscape:transform-center-x="1.4133566e-06"
       transform="matrix(1.0254268,0,0,1.0254268,-4.8907059,2.4572677)" />
    <path
       d="m 69.876539,160.4147 h 19.115509 v -56.13008 l -17.783216,4.40235 V 93.278717 L 89.107899,88.992209 H 105.61675 V 160.4147 h 19.11551 v 15.0607 H 69.876539 Z m 96.214731,-58.50504 c -3.93895,0 -6.81593,2.41357 -8.63094,7.24072 -1.81501,4.82715 -2.72252,12.55058 -2.72252,23.17031 0,10.58111 0.90751,18.28524 2.72252,23.11239 1.81501,4.82715 4.69199,7.24072 8.63094,7.24072 3.97757,0 6.87385,-2.41357 8.68886,-7.24072 1.81501,-4.82715 2.72252,-12.53128 2.72252,-23.11239 0,-10.61973 -0.90751,-18.34316 -2.72252,-23.17031 -1.81501,-4.82715 -4.71129,-7.24072 -8.68886,-7.24072 z m -28.55741,30.41103 c 0,-14.98347 2.37496,-26.20176 7.12487,-33.654876 4.74991,-7.491734 11.89409,-11.237601 21.43254,-11.237601 9.57706,0 16.74055,3.726559 21.49046,11.179676 4.74991,7.453111 7.12487,18.690711 7.12487,33.712801 0,14.98347 -2.37496,26.20177 -7.12487,33.65488 -4.74991,7.45312 -11.9134,11.17968 -21.49046,11.17968 -9.53845,0 -16.68263,-3.72656 -21.43254,-11.17968 -4.74991,-7.49173 -7.12487,-18.71003 -7.12487,-33.65488 z"
       id="text1"
       style="font-weight:bold;font-size:118.632px;line-height:1.25;font-family:Monospace;-inkscape-font-specification:'Monospace Bold';letter-spacing:0px;word-spacing:0px;fill:#ffffff;stroke:#ff352e;stroke-width:11.7954;paint-order:markers stroke fill"
       aria-label="10"
       sodipodi:nodetypes="ccccccccccccsssssssssscssssscs" />
    <path
       sodipodi:type="star"
       style="opacity:1;fill:none;fill-opacity:1;stroke:#ff352e;stroke-width:6.16499;stroke-linecap:round;stroke-linejoin:round;stroke-dasharray:none;stroke-opacity:1"
       id="path2"
       inkscape:flatsided="false"
       sodipodi:sides="12"
       sodipodi:cx="133.78076"
       sodipodi:cy="126.61499"
       sodipodi:r1="111.48702"
       sodipodi:r2="94.305832"
       sodipodi:arg1="0"
       sodipodi:arg2="0.26179939"
       inkscape:rounded="0"
       inkscape:randomized="0"
       d="m 245.26778,126.61499 -20.39458,24.40815 5.45816,31.33536 -29.86631,10.94078 -10.94078,29.8663 -31.33536,-5.45815 -24.40815,20.39458 -24.40814,-20.39458 -31.335369,5.45815 -10.940783,-29.8663 -29.8663,-10.94078 5.458155,-31.33536 -20.394584,-24.40815 20.394584,-24.40815 -5.458155,-31.335361 29.866301,-10.940782 10.940782,-29.8663 31.335369,5.458155 24.40814,-20.394584 24.40815,20.394584 31.33536,-5.458155 10.94079,29.8663 29.8663,10.940782 -5.45816,31.335371 z"
       inkscape:transform-center-x="1.2886159e-05"
       inkscape:transform-center-y="-1.1196101e-05"
       transform="matrix(1.1469903,0,0,1.1469903,-21.153569,-12.523325)" />
  </g>
</svg>
