<?xml version="1.0" encoding="UTF-8" standalone="no"?>
<!-- Created with Inkscape (http://www.inkscape.org/) -->

<svg
   width="1000"
   height="1000"
   viewBox="0 0 264.58333 264.58333"
   version="1.1"
   id="svg1"
   inkscape:version="1.3 (0e150ed, 2023-07-21)"
   sodipodi:docname="compare-level-6.svg"
   xmlns:inkscape="http://www.inkscape.org/namespaces/inkscape"
   xmlns:sodipodi="http://sodipodi.sourceforge.net/DTD/sodipodi-0.dtd"
   xmlns="http://www.w3.org/2000/svg"
   xmlns:svg="http://www.w3.org/2000/svg">
  <sodipodi:namedview
     id="namedview1"
     pagecolor="#505050"
     bordercolor="#ffffff"
     borderopacity="1"
     inkscape:showpageshadow="0"
     inkscape:pageopacity="0"
     inkscape:pagecheckerboard="1"
     inkscape:deskcolor="#505050"
     inkscape:document-units="mm"
     inkscape:zoom="0.36159722"
     inkscape:cx="555.86711"
     inkscape:cy="472.90187"
     inkscape:current-layer="layer1" />
  <defs
     id="defs1" />
  <g
     inkscape:label="Layer 1"
     inkscape:groupmode="layer"
     id="layer1">
    <path
       sodipodi:type="star"
       style="opacity:1;fill:#0091fe;fill-opacity:1;stroke:none;stroke-width:6.16499;stroke-linecap:round;stroke-linejoin:round;stroke-dasharray:none;stroke-opacity:1"
       id="path1"
       inkscape:flatsided="false"
       sodipodi:sides="12"
       sodipodi:cx="133.78076"
       sodipodi:cy="126.61499"
       sodipodi:r1="111.48702"
       sodipodi:r2="94.305832"
       sodipodi:arg1="0"
       sodipodi:arg2="0.26179939"
       inkscape:rounded="0"
       inkscape:randomized="0"
       d="m 245.26778,126.61499 -20.39458,24.40815 5.45816,31.33536 -29.86631,10.94078 -10.94078,29.8663 -31.33536,-5.45815 -24.40815,20.39458 -24.40814,-20.39458 -31.335369,5.45815 -10.940783,-29.8663 -29.8663,-10.94078 5.458155,-31.33536 -20.394584,-24.40815 20.394584,-24.40815 -5.458155,-31.335361 29.8663,-10.940782 10.940783,-29.8663 31.335369,5.458155 24.40814,-20.394584 24.40815,20.394584 31.33536,-5.458155 10.94078,29.8663 29.86631,10.940782 -5.45816,31.335361 z"
       inkscape:transform-center-x="1.4133566e-06"
       transform="matrix(1.0254268,0,0,1.0254268,-4.8907059,2.4572677)" />
    <path
       d="m 133.42608,131.98228 q -6.60023,0 -10.10661,4.81267 -3.43762,4.74392 -3.43762,13.81924 0,9.00657 3.43762,13.81924 3.50638,4.74392 10.10661,4.74392 6.60023,0 10.10661,-4.74392 3.57512,-4.81267 3.57512,-13.81924 0,-9.00657 -3.57512,-13.81924 -3.50638,-4.81267 -10.10661,-4.81267 z M 160.03327,83.168049 V 101.5937 q -5.43144,-3.093857 -10.45037,-4.606411 -4.95017,-1.581306 -9.55659,-1.581306 -11.00039,0 -16.77559,7.425267 -5.70645,7.35651 -5.98146,21.79452 3.23136,-4.46891 8.25029,-6.66899 5.01893,-2.26883 11.82542,-2.26883 13.88799,0 21.45076,8.80031 7.56277,8.73156 7.56277,24.81963 0,17.25687 -8.52531,26.7447 -8.45655,9.48784 -23.85709,9.48784 -18.76942,0 -27.29472,-12.5817 -8.456549,-12.58169 -8.456549,-40.63269 0,-26.67594 10.381619,-39.945164 10.38162,-13.337973 31.14485,-13.337973 4.81267,0 9.90035,1.031286 5.15644,1.031287 10.38162,3.09386 z"
       id="text1"
       style="font-weight:bold;font-size:140.805px;line-height:1.25;font-family:Monospace;-inkscape-font-specification:'Monospace Bold';letter-spacing:0px;word-spacing:0px;fill:#ffffff;stroke:#35c8ff;stroke-width:14;paint-order:markers stroke fill"
       aria-label="6" />
    <path
       sodipodi:type="star"
       style="opacity:1;fill:none;fill-opacity:1;stroke:#35c8ff;stroke-width:6.16499;stroke-linecap:round;stroke-linejoin:round;stroke-dasharray:none;stroke-opacity:1"
       id="path2"
       inkscape:flatsided="false"
       sodipodi:sides="12"
       sodipodi:cx="133.78076"
       sodipodi:cy="126.61499"
       sodipodi:r1="111.48702"
       sodipodi:r2="94.305832"
       sodipodi:arg1="0"
       sodipodi:arg2="0.26179939"
       inkscape:rounded="0"
       inkscape:randomized="0"
       d="m 245.26778,126.61499 -20.39458,24.40815 5.45816,31.33536 -29.86631,10.94078 -10.94078,29.8663 -31.33536,-5.45815 -24.40815,20.39458 -24.40814,-20.39458 -31.335369,5.45815 -10.940783,-29.8663 -29.8663,-10.94078 5.458155,-31.33536 -20.394584,-24.40815 20.394584,-24.40815 -5.458155,-31.335361 29.866301,-10.940782 10.940782,-29.8663 31.335369,5.458155 24.40814,-20.394584 24.40815,20.394584 31.33536,-5.458155 10.94079,29.8663 29.8663,10.940782 -5.45816,31.335371 z"
       inkscape:transform-center-x="1.2886159e-05"
       inkscape:transform-center-y="-1.1196101e-05"
       transform="matrix(1.1469903,0,0,1.1469903,-21.153569,-12.523325)" />
  </g>
</svg>
