<?xml version="1.0" encoding="UTF-8" standalone="no"?>
<!-- Created with Inkscape (http://www.inkscape.org/) -->

<svg
   width="1000"
   height="1000"
   viewBox="0 0 264.58333 264.58333"
   version="1.1"
   id="svg1"
   inkscape:version="1.3 (0e150ed, 2023-07-21)"
   sodipodi:docname="compare-level-9.svg"
   xmlns:inkscape="http://www.inkscape.org/namespaces/inkscape"
   xmlns:sodipodi="http://sodipodi.sourceforge.net/DTD/sodipodi-0.dtd"
   xmlns="http://www.w3.org/2000/svg"
   xmlns:svg="http://www.w3.org/2000/svg">
  <sodipodi:namedview
     id="namedview1"
     pagecolor="#505050"
     bordercolor="#ffffff"
     borderopacity="1"
     inkscape:showpageshadow="0"
     inkscape:pageopacity="0"
     inkscape:pagecheckerboard="1"
     inkscape:deskcolor="#505050"
     inkscape:document-units="mm"
     inkscape:zoom="0.36159722"
     inkscape:cx="583.52219"
     inkscape:cy="434.18475"
     inkscape:current-layer="layer1" />
  <defs
     id="defs1" />
  <g
     inkscape:label="Layer 1"
     inkscape:groupmode="layer"
     id="layer1">
    <path
       sodipodi:type="star"
       style="opacity:1;fill:#ff000d;fill-opacity:1;stroke:none;stroke-width:6.16499;stroke-linecap:round;stroke-linejoin:round;stroke-dasharray:none;stroke-opacity:1"
       id="path1"
       inkscape:flatsided="false"
       sodipodi:sides="12"
       sodipodi:cx="133.78076"
       sodipodi:cy="126.61499"
       sodipodi:r1="111.48702"
       sodipodi:r2="94.305832"
       sodipodi:arg1="0"
       sodipodi:arg2="0.26179939"
       inkscape:rounded="0"
       inkscape:randomized="0"
       d="m 245.26778,126.61499 -20.39458,24.40815 5.45816,31.33536 -29.86631,10.94078 -10.94078,29.8663 -31.33536,-5.45815 -24.40815,20.39458 -24.40814,-20.39458 -31.335369,5.45815 -10.940783,-29.8663 -29.8663,-10.94078 5.458155,-31.33536 -20.394584,-24.40815 20.394584,-24.40815 -5.458155,-31.335361 29.8663,-10.940782 10.940783,-29.8663 31.335369,5.458155 24.40814,-20.394584 24.40815,20.394584 31.33536,-5.458155 10.94078,29.8663 29.86631,10.940782 -5.45816,31.335361 z"
       inkscape:transform-center-x="1.4133566e-06"
       transform="matrix(1.0254268,0,0,1.0254268,-4.8907059,2.4572677)" />
    <path
       d="m 104.55006,181.3809 v -18.4944 q 5.43144,3.16261 10.38162,4.67516 5.01893,1.51256 9.62534,1.51256 10.93164,0 16.63809,-7.28776 5.7752,-7.35651 6.11897,-21.93203 -3.23137,4.46891 -8.2503,6.73774 -5.01892,2.20008 -11.89417,2.20008 -13.81924,0 -21.38201,-8.73156 -7.562764,-8.80032 -7.562764,-24.88839 0,-17.188105 8.456554,-26.607189 8.45655,-9.419084 23.92584,-9.419084 18.76942,0 27.22597,12.581696 8.5253,12.512947 8.5253,40.495187 0,26.60719 -10.38162,39.94517 -10.38161,13.26922 -31.14485,13.26922 -4.81267,0 -9.9691,-1.03129 -5.08768,-1.03129 -10.31287,-3.02511 z m 26.60719,-49.57051 q 6.53149,0 9.96911,-4.74391 3.50637,-4.81267 3.50637,-13.888 0,-9.00657 -3.50637,-13.750484 -3.43762,-4.81267 -9.96911,-4.81267 -6.60023,0 -10.17536,4.81267 -3.50637,4.743914 -3.50637,13.750484 0,9.00657 3.50637,13.81924 3.57513,4.81267 10.17536,4.81267 z"
       id="text1"
       style="font-weight:bold;font-size:140.805px;line-height:1.25;font-family:Monospace;-inkscape-font-specification:'Monospace Bold';letter-spacing:0px;word-spacing:0px;fill:#ffffff;stroke:#ff352e;stroke-width:14;paint-order:markers stroke fill"
       aria-label="9" />
    <path
       sodipodi:type="star"
       style="opacity:1;fill:none;fill-opacity:1;stroke:#ff352e;stroke-width:6.16499;stroke-linecap:round;stroke-linejoin:round;stroke-dasharray:none;stroke-opacity:1"
       id="path2"
       inkscape:flatsided="false"
       sodipodi:sides="12"
       sodipodi:cx="133.78076"
       sodipodi:cy="126.61499"
       sodipodi:r1="111.48702"
       sodipodi:r2="94.305832"
       sodipodi:arg1="0"
       sodipodi:arg2="0.26179939"
       inkscape:rounded="0"
       inkscape:randomized="0"
       d="m 245.26778,126.61499 -20.39458,24.40815 5.45816,31.33536 -29.86631,10.94078 -10.94078,29.8663 -31.33536,-5.45815 -24.40815,20.39458 -24.40814,-20.39458 -31.335369,5.45815 -10.940783,-29.8663 -29.8663,-10.94078 5.458155,-31.33536 -20.394584,-24.40815 20.394584,-24.40815 -5.458155,-31.335361 29.866301,-10.940782 10.940782,-29.8663 31.335369,5.458155 24.40814,-20.394584 24.40815,20.394584 31.33536,-5.458155 10.94079,29.8663 29.8663,10.940782 -5.45816,31.335371 z"
       inkscape:transform-center-x="1.2886159e-05"
       inkscape:transform-center-y="-1.1196101e-05"
       transform="matrix(1.1469903,0,0,1.1469903,-21.153569,-12.523325)" />
  </g>
</svg>
