<?xml version="1.0" encoding="UTF-8" standalone="no"?>
<!-- Created with Inkscape (http://www.inkscape.org/) -->

<svg
   width="32"
   height="32"
   viewBox="0 0 8.4666665 8.4666666"
   version="1.1"
   id="svg1"
   inkscape:version="1.4 (86a8ad7, 2024-10-11)"
   sodipodi:docname="info-popup1.svg"
   xml:space="preserve"
   xmlns:inkscape="http://www.inkscape.org/namespaces/inkscape"
   xmlns:sodipodi="http://sodipodi.sourceforge.net/DTD/sodipodi-0.dtd"
   xmlns="http://www.w3.org/2000/svg"
   xmlns:svg="http://www.w3.org/2000/svg"><sodipodi:namedview
     id="namedview1"
     pagecolor="#505050"
     bordercolor="#ffffff"
     borderopacity="1"
     inkscape:showpageshadow="0"
     inkscape:pageopacity="0"
     inkscape:pagecheckerboard="1"
     inkscape:deskcolor="#505050"
     inkscape:document-units="mm"
     inkscape:zoom="16.748036"
     inkscape:cx="25.943341"
     inkscape:cy="9.7623388"
     inkscape:window-width="3440"
     inkscape:window-height="1377"
     inkscape:window-x="-8"
     inkscape:window-y="-8"
     inkscape:window-maximized="1"
     inkscape:current-layer="layer1" /><defs
     id="defs1" /><g
     inkscape:label="Layer 1"
     inkscape:groupmode="layer"
     id="layer1"><path
       id="text1"
       style="font-weight:600;font-size:5.56627px;font-family:'Segoe UI';-inkscape-font-specification:'Segoe UI Semi-Bold';text-align:end;letter-spacing:0px;word-spacing:0px;text-anchor:end;fill:#ffffff;stroke-width:0.267058;stroke-linecap:round;stroke-linejoin:round;fill-opacity:0.30000001"
       d="M 4.238501 0.052709961 C 1.9333686 0.052709961 0.056844076 1.9313014 0.056844076 4.2364339 C 0.056844086 6.5415664 1.9333686 8.4201579 4.238501 8.4201579 C 6.5436335 8.4201579 8.4217082 6.5481125 8.4217082 4.2364339 C 8.4217082 1.9247553 6.4993993 0.052709961 4.238501 0.052709961 z M 4.238501 0.91984049 C 6.0748461 0.91984049 7.5545776 2.4000889 7.5545776 4.2364339 C 7.5545776 6.0727789 6.0748461 7.5525106 4.238501 7.5525106 C 2.402156 7.5525106 0.92397461 6.0727789 0.92397461 4.2364339 C 0.92397461 2.4000889 2.402156 0.91984049 4.238501 0.91984049 z M 4.2602051 2.0903117 C 3.7295909 2.0971671 3.2762546 2.4103736 3.1703491 2.7450521 C 3.1392739 2.8432549 3.4646617 3.1119773 3.6612752 3.2333944 C 3.7728094 3.3022714 4.0445753 2.5098858 4.5909342 2.9161011 C 4.7596103 3.0465486 4.7798566 3.3198347 4.6767171 3.481958 C 4.4591185 3.8239978 4.0282614 3.9796275 3.9181071 4.3837118 C 3.8796571 4.5796957 3.8591342 4.76445 3.9398112 4.9464681 C 4.0228012 5.0111471 4.1376811 4.9724684 4.2364339 4.9831584 C 4.373904 4.9766984 4.5157381 4.9968448 4.6503621 4.9712728 C 4.7844792 4.8475439 4.6676473 4.7044443 4.7020386 4.5382243 C 4.7472964 4.3194846 4.9133075 4.1630139 5.0715251 4.0328288 C 5.3445685 3.8081625 5.534113 3.5145791 5.5733032 3.1481283 C 5.6177231 2.8251591 5.460512 2.4885377 5.1784953 2.3228556 C 4.9459987 2.1766416 4.7908193 2.0834563 4.2602051 2.0903117 z M 4.2994792 5.3087199 C 3.9781629 5.2988848 3.6768874 5.6166994 3.7573934 5.9407227 C 3.8296532 6.297719 4.298688 6.4751306 4.5966187 6.2714518 C 4.8590352 6.1309648 4.9361532 5.7460415 4.7382121 5.5195597 C 4.6310557 5.3904644 4.4686437 5.307032 4.2994792 5.3087199 z " /></g></svg>
