<?xml version="1.0" encoding="UTF-8" standalone="no"?>
<!-- Created with Inkscape (http://www.inkscape.org/) -->

<svg
   width="900"
   height="1000"
   viewBox="0 0 238.12499 264.58333"
   version="1.1"
   id="svg1"
   xml:space="preserve"
   inkscape:version="1.4 (86a8ad7, 2024-10-11)"
   sodipodi:docname="milestone-flag.svg"
   xmlns:inkscape="http://www.inkscape.org/namespaces/inkscape"
   xmlns:sodipodi="http://sodipodi.sourceforge.net/DTD/sodipodi-0.dtd"
   xmlns="http://www.w3.org/2000/svg"
   xmlns:svg="http://www.w3.org/2000/svg"><sodipodi:namedview
     id="namedview1"
     pagecolor="#505050"
     bordercolor="#ffffff"
     borderopacity="1"
     inkscape:showpageshadow="0"
     inkscape:pageopacity="0"
     inkscape:pagecheckerboard="1"
     inkscape:deskcolor="#505050"
     inkscape:document-units="mm"
     inkscape:zoom="0.91936023"
     inkscape:cx="809.80227"
     inkscape:cy="441.06759"
     inkscape:current-layer="layer1"
     inkscape:window-width="3440"
     inkscape:window-height="1377"
     inkscape:window-x="-8"
     inkscape:window-y="-8"
     inkscape:window-maximized="1" /><defs
     id="defs1" /><g
     inkscape:label="Layer 1"
     inkscape:groupmode="layer"
     id="layer1"><path
       id="rect2"
       style="opacity:1;fill:#006aaf;stroke-width:4.17522;stroke-linecap:round;stroke-linejoin:round"
       d="M 97.565026,31.918097 H 232.34822 l -39.37991,67.868838 39.37991,67.868815 H 97.565026 Z"
       sodipodi:nodetypes="cccccc" /><path
       style="opacity:1;fill:#003d64;fill-opacity:1;stroke-width:4.25747;stroke-linecap:round;stroke-linejoin:round"
       d="M 169.59987,147.24016 97.565021,167.65575 V 126.72694 Z"
       id="path2" /><rect
       style="fill:#0087c1;fill-opacity:1;stroke-width:4.25747;stroke-linecap:round;stroke-linejoin:round"
       id="rect1"
       width="140.14639"
       height="135.73764"
       x="29.453472"
       y="11.502517" /><path
       style="opacity:1;fill:none;fill-opacity:1;stroke:#4b5e6b;stroke-width:10.4308;stroke-linecap:round;stroke-linejoin:round;stroke-dasharray:none;stroke-opacity:1"
       d="M 28.22467,10.395332 V 250.75303"
       id="path3"
       sodipodi:nodetypes="cc" /><path
       style="opacity:1;fill:none;fill-opacity:1;stroke:#4b5e6b;stroke-width:10.4308;stroke-linecap:round;stroke-linejoin:round;stroke-dasharray:none;stroke-opacity:1"
       d="M 10.992176,254.188 H 46.682771"
       id="path4" /><path
       style="font-weight:bold;font-size:81.4757px;line-height:1.25;font-family:'Source Code Pro';-inkscape-font-specification:'Source Code Pro Bold';letter-spacing:0px;word-spacing:0px;fill:#ffffff;stroke-width:2.03691"
       d="M 57.521532,105.6389 V 95.957404 H 71.474188 V 66.09935 H 59.969367 v -7.403497 q 3.508563,-0.569499 6.037991,-1.138999 2.611024,-0.650856 4.650885,-1.464427 2.039863,-0.894929 3.998129,-2.115286 h 8.812204 v 41.980263 h 11.749605 v 9.681496 z m 47.243238,0 V 52.594071 h 12.56555 l 5.22204,18.793489 1.79508,7.322139 h 0.32638 l 1.79507,-7.322139 5.22205,-18.793489 H 144.2565 V 105.6389 H 134.13878 V 89.204765 q 0,-2.196641 0.16319,-5.450925 0.16318,-3.335642 0.40797,-6.915354 0.24479,-3.579713 0.48956,-6.833996 0.32639,-3.254284 0.48957,-5.369569 h -0.24478 l -4.07972,14.156135 -4.07973,12.773065 h -5.8748 L 117.24872,78.791056 113.41378,64.634921 H 113.169 q 0.16319,2.115285 0.40797,5.369569 0.32638,3.254283 0.57116,6.833996 0.24478,3.579712 0.40797,6.915354 0.16319,3.254284 0.16319,5.450925 V 105.6389 Z"
       id="text4"
       aria-label="1M" /></g></svg>
