<?xml version="1.0" encoding="UTF-8" standalone="no"?>
<!-- Created with Inkscape (http://www.inkscape.org/) -->

<svg
   width="200"
   height="200"
   viewBox="0 0 52.916665 52.916666"
   version="1.1"
   id="svg1"
   inkscape:version="1.3 (0e150ed, 2023-07-21)"
   sodipodi:docname="people-ages.svg"
   xmlns:inkscape="http://www.inkscape.org/namespaces/inkscape"
   xmlns:sodipodi="http://sodipodi.sourceforge.net/DTD/sodipodi-0.dtd"
   xmlns="http://www.w3.org/2000/svg"
   xmlns:svg="http://www.w3.org/2000/svg">
  <sodipodi:namedview
     id="namedview1"
     pagecolor="#505050"
     bordercolor="#ffffff"
     borderopacity="1"
     inkscape:showpageshadow="0"
     inkscape:pageopacity="0"
     inkscape:pagecheckerboard="1"
     inkscape:deskcolor="#505050"
     inkscape:document-units="mm"
     inkscape:zoom="0.65008587"
     inkscape:cx="-30.765167"
     inkscape:cy="209.20313"
     inkscape:current-layer="layer1" />
  <defs
     id="defs1" />
  <g
     inkscape:label="Layer 1"
     inkscape:groupmode="layer"
     id="layer1">
    <circle
       style="fill:#e5b48f;fill-opacity:1;stroke:none;stroke-width:4.77446;stroke-linecap:round;stroke-linejoin:round;paint-order:markers stroke fill"
       id="path1"
       cx="23.249985"
       cy="15.536601"
       r="5.920373" />
    <path
       id="rect1"
       style="fill:#f08ccc;fill-opacity:1;stroke-width:4.77446;stroke-linecap:round;stroke-linejoin:round;paint-order:markers stroke fill"
       d="m 19.531352,22.428558 h 7.437263 c 2.258245,0 4.29285,1.828421 4.076256,4.076256 l -1.834918,19.042984 c -0.165608,1.718693 -1.390051,3.116705 -3.116704,3.116705 h -5.686531 c -1.726653,0 -2.951096,-1.398012 -3.116704,-3.116705 L 15.455096,26.504814 c -0.216594,-2.247835 1.818011,-4.076256 4.076256,-4.076256 z"
       sodipodi:nodetypes="sssssssss" />
    <circle
       style="fill:#e1a77d;fill-opacity:1;stroke:none;stroke-width:3.63791;stroke-linecap:round;stroke-linejoin:round;paint-order:markers stroke fill"
       id="circle1"
       cx="-7.0599265"
       cy="23.422628"
       r="4.5110407"
       transform="scale(-1,1)" />
    <path
       id="path2"
       style="fill:#249bf6;fill-opacity:1;stroke-width:3.63791;stroke-linecap:round;stroke-linejoin:round;paint-order:markers stroke fill"
       d="M 9.8933453,28.673969 H 4.2265064 c -1.720676,0 -3.270947,1.393169 -3.105912,3.105912 l 1.398119,14.509841 c 0.126186,1.309563 1.059153,2.374781 2.37478,2.374781 h 4.332863 c 1.3156276,0 2.2485946,-1.065218 2.3747786,-2.374781 l 1.398122,-14.509841 c 0.165034,-1.712743 -1.385238,-3.105912 -3.1059117,-3.105912 z"
       sodipodi:nodetypes="sssssssss" />
    <circle
       style="fill:#eabd9f;fill-opacity:1;stroke:none;stroke-width:5.43033;stroke-linecap:round;stroke-linejoin:round;paint-order:markers stroke fill"
       id="circle2"
       cx="-42.924446"
       cy="10.985818"
       r="6.7336545"
       transform="scale(-1,1)" />
    <path
       id="path3"
       style="fill:#bdc96c;fill-opacity:1;stroke-width:5.43033;stroke-linecap:round;stroke-linejoin:round;paint-order:markers stroke fill"
       d="m 47.153905,18.824525 h -8.458921 c -2.568461,0 -4.882559,2.079591 -4.636212,4.636211 l 2.086982,21.658919 c 0.188358,1.954792 1.581003,3.544848 3.544846,3.544848 h 6.467688 c 1.963845,0 3.356489,-1.590056 3.544846,-3.544848 l 2.086983,-21.658919 c 0.246347,-2.55662 -2.067751,-4.636211 -4.636212,-4.636211 z"
       sodipodi:nodetypes="sssssssss" />
    <path
       id="path4"
       style="fill:#fdfeff;stroke-width:3.9281;stroke-linecap:round;stroke-linejoin:round;paint-order:markers stroke fill"
       d="m 50.324821,8.3676774 c 0.366871,1.531841 -0.100399,2.8533206 -1.043675,2.9516056 -0.943277,0.09828 -0.756829,-1.063843 -1.200995,-2.5956845 -0.444167,-1.5318406 -1.07084,-2.8533201 -0.127563,-2.951605 0.943277,-0.098285 2.005362,1.0638429 2.372233,2.5956839 z"
       sodipodi:nodetypes="sssss" />
    <path
       id="path5"
       style="fill:#fdfeff;stroke-width:3.9281;stroke-linecap:round;stroke-linejoin:round;paint-order:markers stroke fill"
       d="m 35.406192,8.3676774 c -0.366871,1.531841 0.100399,2.8533206 1.043675,2.9516056 0.943277,0.09828 0.756829,-1.063843 1.200995,-2.5956845 0.444167,-1.5318406 1.07084,-2.8533201 0.127563,-2.951605 -0.943277,-0.098285 -2.005362,1.0638429 -2.372233,2.5956839 z"
       sodipodi:nodetypes="sssss" />
    <path
       id="path6"
       style="fill:#a05b26;fill-opacity:1;stroke-width:3.68581;stroke-linecap:round;stroke-linejoin:round;paint-order:markers stroke fill"
       transform="matrix(0.94534599,0.32606895,-0.29938829,0.95413136,0,0)"
       d="M 31.660743,3.428586 C 31.428255,4.4351207 30.690018,2.9815121 28.784416,2.9330695 27.406623,2.8980444 25.308997,3.1086676 25.308997,2.0820141 c 0,-1.0266535 1.30306,-1.90866096 2.905625,-1.85892095 1.896469,0.0588621 3.672697,2.22455425 3.446121,3.20549285 z"
       sodipodi:nodetypes="sssss" />
    <path
       id="ellipse6"
       style="fill:#a05b26;stroke-width:4.02043;stroke-linecap:round;stroke-linejoin:round;paint-order:markers stroke fill;fill-opacity:1"
       transform="matrix(0.87457922,-0.48488266,0.76815385,0.64026531,0,0)"
       d="m 8.3591044,21.144577 c -3e-7,0.99456 -1.6853412,1.878274 -3.9973011,1.236576 -2.31196,-0.641697 -4.20443427,1.025911 -4.2044346,0.03135 3.3e-7,-0.99456 2.6620891,-3.068737 4.6330304,-3.068737 1.9709413,0 3.568705,0.80625 3.5687053,1.80081 z"
       sodipodi:nodetypes="sssss" />
  </g>
</svg>
