<?xml version="1.0" encoding="UTF-8" standalone="no"?>
<!-- Created with Inkscape (http://www.inkscape.org/) -->

<svg
   width="2000"
   height="1400"
   viewBox="0 0 529.16665 370.41667"
   version="1.1"
   id="svg1"
   xml:space="preserve"
   inkscape:version="1.3 (0e150ed, 2023-07-21)"
   sodipodi:docname="solar-system-live.svg"
   xmlns:inkscape="http://www.inkscape.org/namespaces/inkscape"
   xmlns:sodipodi="http://sodipodi.sourceforge.net/DTD/sodipodi-0.dtd"
   xmlns="http://www.w3.org/2000/svg"
   xmlns:svg="http://www.w3.org/2000/svg"><sodipodi:namedview
     id="namedview1"
     pagecolor="#505050"
     bordercolor="#ffffff"
     borderopacity="1"
     inkscape:showpageshadow="0"
     inkscape:pageopacity="0"
     inkscape:pagecheckerboard="1"
     inkscape:deskcolor="#505050"
     inkscape:document-units="mm"
     inkscape:zoom="0.11492003"
     inkscape:cx="948.48562"
     inkscape:cy="1348.764"
     inkscape:current-layer="layer1" /><defs
     id="defs1" /><g
     inkscape:label="Layer 1"
     inkscape:groupmode="layer"
     id="layer1"><g
       inkscape:label="Layer 1"
       id="layer1-3"
       transform="matrix(0.64446087,-0.37207965,0.37207965,0.64446087,-45.08823,239.5179)"><path
         inkscape:connector-curvature="0"
         id="path895"
         d="m 388.96636,287.77601 c -15.88803,-0.95149 -32.82458,-4.89459 -47.30536,-11.01345 -4.81673,-2.03531 -13.24738,-6.26262 -17.51398,-8.78189 -25.82251,-15.24725 -46.6353,-38.70946 -58.28567,-65.70528 -1.73819,-4.02768 -5.75149,-15.89007 -7.05122,-20.84177 -3.7219,-14.17973 -5.40535,-30.19903 -4.59714,-43.74543 1.16084,-19.45694 5.37246,-36.53303 13.16035,-53.358902 18.14214,-39.1964 53.84946,-68.35814 96.2561,-78.6111898 26.92253,-6.50931003 54.9247,-4.99469003 81.04099,4.3834798 26.92098,9.66712 50.2279,26.8487 66.78422,49.23253 15.75646,21.30244 25.25906,46.108092 27.60353,72.056472 1.2378,13.69976 0.68366,26.27711 -1.73575,39.39672 -1.92637,10.44603 -5.88374,23.54556 -9.73378,32.22037 -13.95452,31.44197 -39.15581,57.00812 -70.52014,71.5411 -21.35964,9.89721 -45.48002,14.58203 -68.10215,13.22724 z"
         style="fill:#ffe8b2;fill-opacity:1;stroke-width:0.292912" /><path
         inkscape:connector-curvature="0"
         id="path893"
         d="m 388.67345,287.4831 c -27.70733,-1.65932 -55.01581,-11.68236 -77.18243,-28.32828 -7.5876,-5.69787 -18.26905,-15.68602 -23.70814,-22.1693 -5.17115,-6.16392 -10.53361,-13.81495 -14.65951,-20.91585 -3.6153,-6.22212 -8.42409,-16.45593 -7.95361,-16.92641 0.0588,-0.0588 0.90282,0.9886 1.87563,2.32754 8.26159,11.37102 26.47278,21.03151 51.76844,27.46161 15.90466,4.04293 29.98149,6.24196 49.79512,7.7788 8.03776,0.62345 30.8733,0.88109 39.83609,0.44945 33.08725,-1.59344 62.29399,-7.15962 85.63753,-16.32067 5.40675,-2.12185 15.95485,-7.4588 19.81096,-10.0236 6.70335,-4.45859 11.38101,-8.79946 14.51872,-13.47337 0.87531,-1.30385 1.68112,-2.37509 1.7907,-2.38054 0.38826,-0.0193 -0.90065,3.54841 -2.90647,8.04519 -6.01934,13.49447 -14.76299,26.90342 -24.16166,37.05343 -16.63352,17.96323 -33.79628,29.77416 -55.46623,38.17031 -18.47484,7.15819 -39.33307,10.4292 -58.99514,9.25169 z m -13.18106,-92.43094 c -15.15276,-0.79914 -27.44009,-2.03906 -38.95736,-3.93118 -33.53073,-5.50863 -59.08818,-15.41995 -72.44832,-28.09586 -4.3091,-4.08841 -6.87956,-7.73598 -8.70407,-12.35134 -0.85268,-2.15696 -1.01529,-5.75273 -0.5908,-13.06362 0.57379,-9.88206 1.79945,-18.45524 3.86236,-27.01625 1.22826,-5.09724 6.11981,-19.585682 8.10486,-24.006052 7.56424,-16.84432 17.5697,-31.1836 30.56444,-43.8033 22.23346,-21.59181 49.54857,-35.1219898 79.487,-39.3728698 29.03251,-4.12224003 59.3229,0.93282 84.50524,14.1027998 14.78937,7.73461 26.50596,16.37807 37.4928,27.65886 15.53744,15.95313 25.47288,32.27367 32.83052,53.929323 4.41963,13.008259 6.48137,23.917969 7.31151,38.688969 0.30673,5.45766 0.29501,5.74674 -0.31454,7.76217 -1.39857,4.62427 -3.81079,8.4044 -8.31727,13.03381 -6.05076,6.21583 -14.83607,11.90746 -26.0125,16.85241 -24.50456,10.84191 -57.19094,17.58635 -94.54311,19.50784 -5.01756,0.25812 -29.91727,0.33389 -34.27076,0.10429 z"
         style="fill:#f7dea2;fill-opacity:1;stroke-width:0.292912" /><path
         inkscape:connector-curvature="0"
         id="path891"
         d="m 388.38054,287.19019 c -31.02718,-1.85814 -60.23521,-13.71931 -84.18311,-34.18613 -4.97626,-4.25291 -13.27755,-12.48574 -16.60333,-16.46641 -5.2185,-6.24609 -10.15095,-13.24791 -14.02531,-19.90955 -3.51943,-6.05135 -7.87996,-15.07479 -7.47872,-15.47603 0.0803,-0.0803 0.18626,-0.091 0.23549,-0.0239 3.90084,5.31796 8.90736,9.69312 15.87421,13.87234 19.1609,11.4941 48.86013,19.10964 85.82335,22.00701 7.96744,0.62453 32.19465,0.88753 41.16856,0.44691 32.6471,-1.60299 62.02531,-7.24508 85.07671,-16.339 5.30461,-2.0927 14.3926,-6.57932 18.30703,-9.03795 6.53653,-4.10553 12.32556,-9.16109 15.34838,-13.40373 0.78006,-1.09485 1.47271,-1.93624 1.5392,-1.86974 0.59583,0.59583 -5.68338,13.87986 -9.764,20.65631 -6.92373,11.49782 -13.00043,19.16117 -22.68294,28.60551 -12.38947,12.08472 -25.63292,21.39355 -39.748,27.93889 -21.66506,10.04636 -45.41089,14.59146 -68.88752,13.1855 z m -11.86296,-144.9834 c -42.77116,-1.9282 -79.40867,-11.53253 -98.3263,-25.77569 -3.10871,-2.34057 -7.66766,-6.90844 -9.29836,-9.31655 -2.78483,-4.11246 -4.10976,-8.091779 -4.11711,-12.365402 -0.006,-3.42897 0.80466,-5.69513 5.15348,-14.40818 8.03826,-16.105 21.45176,-33.18934 34.67828,-44.16863 13.08568,-10.86237 26.20414,-18.7084 40.86129,-24.43875 34.95563,-13.6662499 73.75993,-12.9084198 107.92583,2.10776 12.32912,5.41874 24.86359,13.24786 35.74542,22.32686 4.33334,3.61541 10.32165,9.43014 13.07324,12.69428 5.56849,6.60577 6.62303,7.90857 8.95031,11.05745 6.38169,8.63458 12.5005,19.10238 15.31586,26.20172 1.41642,3.57172 1.05002,8.8141 -0.93038,13.311733 -4.93135,11.199459 -20.55879,21.904909 -43.43661,29.755909 -28.42271,9.75384 -68.47231,14.69106 -105.59495,13.01749 z"
         style="fill:#ebd192;fill-opacity:1;stroke-width:0.292912" /><path
         inkscape:connector-curvature="0"
         id="path889"
         d="m 388.67345,287.19019 c -19.28933,-1.1552 -38.36257,-6.31886 -55.79982,-15.10659 -4.206,-2.11967 -7.28032,-3.89658 -7.08301,-4.09389 0.051,-0.051 1.2042,0.38123 2.56267,0.9605 23.06346,9.83464 58.44095,13.52264 93.56573,9.75396 17.49033,-1.8766 34.89929,-6.21924 46.35339,-11.56278 4.88572,-2.27928 2.68439,-0.42892 -3.58817,3.01609 -22.51484,12.36557 -50.2321,18.57653 -76.01079,17.03271 z m -8.78737,-20.48523 c -30.09895,-1.52016 -56.16933,-7.09613 -73.9604,-15.81875 -7.33769,-3.59753 -10.88441,-6.2175 -15.58007,-11.50905 -6.61714,-7.45687 -11.62872,-14.31678 -16.19158,-22.16323 -2.1099,-3.62826 -6.77415,-12.72882 -7.16252,-13.97501 -0.11342,-0.36394 1.44071,0.98291 3.54892,3.07558 5.23625,5.19768 10.50846,8.80574 18.72521,12.81469 19.92154,9.71973 46.47806,15.70925 81.39369,18.3574 6.70267,0.50836 37.4026,0.50688 44.22979,-0.002 38.32425,-2.85731 68.12551,-9.7929 90.21704,-20.99602 10.77122,-5.46234 18.8232,-11.67342 23.36789,-18.0254 l 0.52072,-0.7278 -0.18725,0.73228 c -0.32932,1.28787 -4.53364,10.2684 -6.64306,14.18973 -5.79132,10.76582 -13.62009,21.62173 -20.24776,28.07692 -5.03912,4.90797 -16.88047,10.88631 -30.20257,15.24835 -16.6846,5.46303 -35.49329,8.8179 -58.58249,10.44925 -5.95093,0.42046 -26.91824,0.59275 -33.24556,0.27319 z M 375.7853,103.53933 c -31.02939,-1.81704 -57.67509,-8.198552 -73.99196,-17.720722 -4.78791,-2.79412 -7.56039,-4.87381 -10.67039,-8.00407 -4.55525,-4.58493 -6.77591,-9.23974 -6.79288,-14.2388 -0.0145,-4.26268 0.99005,-7.0234 3.78103,-10.3914 0.86838,-1.04793 2.33208,-2.81009 3.25266,-3.91592 4.87171,-5.85207 16.26734,-15.83649 24.52094,-21.48432 11.22804,-7.68321 18.74601,-11.74511 29.62977,-16.00876 9.29418,-3.6409396 16.62677,-5.7650698 25.43778,-7.3689198 17.13989,-3.11993 32.8252,-3.19605 50.5274,-0.24523 12.03953,2.0069 28.29064,7.4597298 38.95735,13.0715898 7.18532,3.78026 17.8885,10.6097 23.72591,15.13894 8.1209,6.30098 17.72951,15.67686 20.57735,20.07895 1.87887,2.90428 2.57913,8.40889 1.55596,12.23111 -2.1488,8.02724 -10.70552,15.96484 -24.18701,22.43697 -18.77224,9.01209 -44.89657,14.716792 -75.25363,16.432932 -6.10526,0.34515 -25.09427,0.3376 -31.07028,-0.0124 z"
         style="fill:#e1cc8b;fill-opacity:1;stroke-width:0.292912" /><path
         inkscape:connector-curvature="0"
         id="path887"
         d="m 384.27976,266.5435 c -15.57417,-0.72551 -27.86072,-2.01133 -39.23357,-4.10588 -19.70119,-3.62839 -36.32834,-9.48365 -47.32206,-16.66448 -6.53945,-4.27141 -16.3801,-16.19505 -23.5701,-28.55921 -2.1099,-3.62826 -6.77415,-12.72882 -7.16252,-13.97501 -0.11342,-0.36394 1.44071,0.98291 3.54892,3.07558 5.23625,5.19768 10.50846,8.80574 18.72521,12.81469 19.92154,9.71973 46.47806,15.70925 81.39369,18.3574 6.70267,0.50836 37.4026,0.50688 44.22979,-0.002 38.32425,-2.85731 68.12551,-9.7929 90.21704,-20.99602 10.77122,-5.46234 18.8232,-11.67342 23.36789,-18.0254 l 0.52072,-0.7278 -0.18725,0.73228 c -0.32932,1.28787 -4.53364,10.2684 -6.64306,14.18973 -5.69079,10.57895 -13.93001,22.05923 -19.45654,27.11017 -2.59354,2.37036 -9.01942,6.47047 -13.93177,8.88935 -19.03584,9.3734 -45.50445,15.41775 -76.52325,17.47479 -4.56459,0.3027 -24.13229,0.59086 -27.97314,0.41194 z M 381.64355,63.411368 c -23.48511,-1.2645 -44.03056,-6.58512 -55.34045,-14.33142 -3.05013,-2.08907 -6.55054,-5.64494 -7.74321,-7.86589 -2.92324,-5.44357 -1.931,-10.69966 3.01002,-15.94457 3.20222,-3.39916 7.23846,-5.99876 14.59134,-9.39777 15.66733,-7.2425096 27.59556,-10.7601798 43.35355,-12.7850898 18.00755,-2.31398003 38.33165,-0.79946 55.40358,4.12859 6.85924,1.9800102 18.43078,6.5070398 24.38836,9.5412198 4.59264,2.33902 6.57405,3.71204 9.18582,6.36529 4.95519,5.03389 6.04349,10.17181 3.32445,15.69497 -1.31653,2.67425 -5.1552,6.56909 -9.02418,9.15623 -16.2722,10.88099 -49.25426,17.15575 -81.14928,15.43844 z"
         style="fill:#f4b274;fill-opacity:1;stroke-width:0.292912" /><path
         inkscape:connector-curvature="0"
         id="path885"
         d="m 381.64355,63.411368 c -23.48511,-1.2645 -44.03056,-6.58512 -55.34045,-14.33142 -3.05013,-2.08907 -6.55054,-5.64494 -7.74321,-7.86589 -2.92324,-5.44357 -1.931,-10.69966 3.01002,-15.94457 3.20222,-3.39916 7.23846,-5.99876 14.59134,-9.39777 15.66733,-7.2425096 27.59556,-10.7601798 43.35355,-12.7850898 18.00755,-2.31398003 38.33165,-0.79946 55.40358,4.12859 6.85924,1.9800102 18.43078,6.5070398 24.38836,9.5412198 4.59264,2.33902 6.57405,3.71204 9.18582,6.36529 4.95519,5.03389 6.04349,10.17181 3.32445,15.69497 -1.31653,2.67425 -5.1552,6.56909 -9.02418,9.15623 -16.2722,10.88099 -49.25426,17.15575 -81.14928,15.43844 z"
         style="fill:#b5bf8b;fill-opacity:1;stroke-width:0.292912" /><path
         inkscape:connector-curvature="0"
         id="path883"
         d="m 382.08292,47.286058 c -11.02694,-0.77872 -22.66689,-3.07469 -30.45287,-6.0068 -2.88155,-1.08516 -7.47531,-3.39888 -9.62292,-4.84675 -2.56866,-1.73172 -5.2461,-4.55228 -6.23704,-6.57045 -0.73132,-1.48941 -0.84608,-2.06082 -0.84608,-4.21288 0,-2.2866 0.0831,-2.64301 1.01808,-4.36793 1.90669,-3.5175 6.1861,-7.09199 11.61509,-9.7018 5.16864,-2.4846396 14.78664,-5.3131498 23.39507,-6.8801098 17.08382,-3.10973 32.88365,-3.19399 50.38094,-0.26868 7.96672,1.33192 16.78878,3.8211102 21.53952,6.0774698 5.2769,2.50627 9.70368,6.21385 11.29934,9.4636 0.71928,1.46491 0.84607,2.07521 0.84607,4.07259 0,2.05562 -0.11829,2.58975 -0.94585,4.27076 -4.16695,8.46428 -21.09009,15.62665 -43.13747,18.25704 -8.52247,1.01678 -20.40127,1.31073 -28.85188,0.71394 z"
         style="fill:#8a99a4;fill-opacity:1;stroke-width:0.292912" /><path
         inkscape:connector-curvature="0"
         id="path881"
         d="m 382.08292,47.286058 c -11.02694,-0.77872 -22.66689,-3.07469 -30.45287,-6.0068 -2.88155,-1.08516 -7.47531,-3.39888 -9.62292,-4.84675 -2.56866,-1.73172 -5.2461,-4.55228 -6.23704,-6.57045 -0.73273,-1.49229 -0.8456,-2.05667 -0.84256,-4.21288 0.004,-2.7901 0.41442,-3.85926 2.56151,-6.67185 2.10574,-2.75843 6.84717,-6.06555 11.654,-8.12861 5.78805,-2.4841996 17.77899,-5.4847198 27.37454,-6.8499898 18.20252,-2.58989 37.85271,-1.60089 55.06939,2.77167 2.73974,0.69582 5.9691,1.6194302 7.17635,2.0524602 7.36177,2.6406496 13.36322,6.9829596 15.40873,11.1488696 0.71928,1.46491 0.84607,2.07521 0.84607,4.07259 0,2.05562 -0.11829,2.58975 -0.94585,4.27076 -4.16695,8.46428 -21.09009,15.62665 -43.13747,18.25704 -8.52247,1.01678 -20.40127,1.31073 -28.85188,0.71394 z m 20.94504,-19.43016 c 10.13693,-1.18967 17.90579,-3.85105 21.77468,-7.45935 6.07205,-5.66307 1.15523,-11.6170796 -12.24121,-14.8234798 -5.06182,-1.21153 -9.71593,-1.69245 -16.41871,-1.69657 -11.47281,-0.007 -20.56809,1.74579 -27.48379,5.2966502 -6.63873,3.4086496 -8.20927,7.9370996 -4.10235,11.8285396 3.62486,3.43468 11.6308,6.07524 21.48066,7.08486 2.96116,0.30352 13.67884,0.15803 16.99072,-0.23065 z"
         style="fill:#859e8f;fill-opacity:1;stroke-width:0.292912" /><path
         style="fill:#000000;fill-opacity:0.313725;stroke-width:0.292912"
         d="m 397.36617,287.67769 c 10.96592,-0.0368 21.94947,-1.35414 32.75923,-3.96772 42.40665,-10.25306 78.11402,-39.41482 96.25616,-78.61123 7.78788,-16.82585 11.99959,-33.90206 13.16043,-53.35902 0.80821,-13.54637 -0.87524,-29.56539 -4.59714,-43.74512 -1.29973,-4.9517 -5.31306,-16.814462 -7.05125,-20.842132 -11.65038,-26.99583 -32.46335,-50.45779 -58.28583,-65.70504 -4.26662,-2.51928 -12.69693,-6.74658 -17.51367,-8.78189 C 437.61332,6.5466777 420.67649,2.6032277 404.78845,1.6517277 c -2.68991,-0.16108 -5.4015,-0.2336 -8.12662,-0.22529 28.78711,5.46669 55.00094,22.7947303 73.96964,48.9122503 19.06772,26.25394 29.56372,59.664682 29.60026,94.224742 -0.0136,34.46931 -10.43266,67.80799 -29.39254,94.05111 -18.82436,26.05559 -44.84859,43.42659 -73.47302,49.06315 z"
         id="path905"
         inkscape:connector-curvature="0"
         inkscape:transform-center-x="-72.436544"
         inkscape:transform-center-y="-0.16224486" /><g
         id="g936"
         transform="translate(8.9999993e-7,244.73958)"><path
           sodipodi:nodetypes="ssssssssss"
           inkscape:connector-curvature="0"
           style="opacity:1;fill:#6e6252;fill-opacity:0.701961;fill-rule:nonzero;stroke:none;stroke-width:6.42302;stroke-linecap:round;stroke-linejoin:round;stroke-miterlimit:4;stroke-dasharray:none;stroke-dashoffset:0;stroke-opacity:1;paint-order:normal"
           d="m 396.875,-248.3178 c -218.35252,0 -395.3621958,66.4601 -395.3622118,148.44278 C 1.5128042,-17.892337 178.52248,48.567761 396.875,48.567764 615.22752,48.567757 792.2372,-17.892337 792.23721,-99.87502 792.2372,-181.8577 615.22752,-248.3178 396.875,-248.3178 Z m 0,3.56071 c 213.11487,-1e-5 385.87863,64.86592 385.8786,144.88207 2e-5,80.016158 -172.76373,144.882074 -385.8786,144.882066 C 183.76013,45.007057 10.996355,-19.858858 10.996385,-99.87502 10.996345,-179.89117 183.76013,-244.7571 396.875,-244.75709 Z"
           id="path849" /><path
           id="path835"
           transform="matrix(0.26458333,0,0,0.26458333,0,-496.75002)"
           d="m 1773.2051,1033.877 c 56.5106,33.0486 106.4231,75.7902 146.9804,126.1972 341.1574,59.5492 577.6954,189.3652 577.6954,339.9258 0,206.9214 -446.7669,374.6641 -997.8809,374.6641 -551.11408,0 -997.88093,-167.7427 -997.88086,-374.6641 -8e-5,-150.5724 236.57507,-280.3966 577.77536,-339.9395 40.8462,-50.4015 90.6456,-93.1902 146.7344,-126.1699 -570.52112,46.955 -997.54878,237.8064 -997.54882,466.1094 5e-5,263.5392 569.01025,477.1797 1270.91992,477.1797 701.9097,0 1270.9199,-213.6405 1270.9199,-477.1797 0,-228.3252 -427.1104,-419.1915 -997.7148,-466.123 z"
           style="opacity:1;fill:#c6a887;fill-opacity:1;fill-rule:nonzero;stroke:none;stroke-width:20.6472;stroke-linecap:round;stroke-linejoin:round;stroke-miterlimit:4;stroke-dasharray:none;stroke-dashoffset:0;stroke-opacity:1;paint-order:normal"
           inkscape:connector-curvature="0" /><path
           transform="matrix(0.26458333,0,0,0.26458333,0,-496.75002)"
           id="circle832"
           d="m 1110.4902,1125.459 c -136.57117,20.0224 -262.06672,50.545 -367.74411,90.2226 -200.83642,75.4062 -313.66601,177.6781 -313.66601,284.3184 4e-5,106.6403 112.82955,208.9123 313.66601,284.3184 200.83643,75.406 473.22831,117.7695 757.25391,117.7695 284.0256,0 556.4175,-42.3635 757.2539,-117.7695 200.8364,-75.4061 313.666,-177.6781 313.666,-284.3184 0,-106.6403 -112.8296,-208.9122 -313.666,-284.3184 -105.6159,-39.6545 -231.0269,-70.1665 -367.5059,-90.1894 15.5122,16.1377 29.9929,33.2396 43.3086,51.2422 19.3616,26.1765 36.206,53.7606 50.4532,82.4297 29.6667,8.3963 57.9169,17.597 84.4902,27.5742 150.643,56.5605 235.2735,133.2731 235.2734,213.2617 0,79.9886 -84.6304,156.7013 -235.2734,213.2617 -150.643,56.5605 -354.9586,88.336 -568,88.336 -213.0414,0 -417.357,-31.7755 -568,-88.336 C 781.35699,1656.7013 696.72649,1579.9886 696.72656,1500 c -7e-5,-79.9886 84.63043,-156.7012 235.27344,-213.2617 26.51347,-9.9548 54.69544,-19.1384 84.2891,-27.5195 24.4408,-49.4797 56.3752,-94.4984 94.2011,-133.7598 z"
           style="opacity:1;fill:#312d24;fill-opacity:0.301961;fill-rule:nonzero;stroke:none;stroke-width:16.3583;stroke-linecap:round;stroke-linejoin:round;stroke-miterlimit:4;stroke-dasharray:none;stroke-dashoffset:0;stroke-opacity:1;paint-order:normal"
           inkscape:connector-curvature="0" /><path
           id="path847"
           transform="matrix(0.26458333,0,0,0.26458333,0,-496.75002)"
           d="M 1500,956.97852 C 701.24031,956.97852 53.716857,1200.0975 53.716797,1500 c 6e-5,299.9025 647.523513,543.0215 1446.283203,543.0215 798.7597,0 1446.2832,-243.119 1446.2832,-543.0215 0,-299.9025 -647.5235,-543.02145 -1446.2832,-543.02148 z m -0.3711,2.10351 c 61.2869,-0.0367 122.4082,10.53263 181.0156,31.57813 20.4275,7.33536 40.293,15.83454 59.5235,25.38864 609.3033,42.3579 1070.7637,242.9169 1070.7636,483.9512 1e-4,271.8359 -586.9244,492.2032 -1310.9316,492.2031 C 775.99279,1992.2032 189.06826,1771.8359 189.06836,1500 c -1.3e-4,-240.9828 461.26306,-441.5074 1070.37304,-483.9238 36.2884,-18.11824 74.8045,-32.28861 114.9063,-41.9844 41.3377,-9.99461 83.3481,-14.98469 125.2812,-15.00977 z"
           style="opacity:1;fill:#6e6252;fill-opacity:0.6;fill-rule:nonzero;stroke:none;stroke-width:23.4962;stroke-linecap:round;stroke-linejoin:round;stroke-miterlimit:4;stroke-dasharray:none;stroke-dashoffset:0;stroke-opacity:1;paint-order:normal"
           inkscape:connector-curvature="0" /></g></g><rect
       style="fill:#ff1b1b;fill-opacity:1;stroke:#ff5c5c;stroke-width:10;stroke-linecap:round;stroke-linejoin:round;stroke-dasharray:none;stroke-opacity:1;paint-order:markers stroke fill"
       id="rect1"
       width="164.79395"
       height="68.599472"
       x="182.18636"
       y="150.9086"
       ry="8.9754534" /><path
       style="font-weight:600;font-size:70.2363px;line-height:1.25;font-family:'Source Code Pro';-inkscape-font-specification:'Source Code Pro Semi-Bold';letter-spacing:-4.3668px;word-spacing:0px;stroke-width:1.75591;stroke:none;fill:#ffffff;fill-opacity:1"
       d="m 193.4523,208.17561 v -45.93454 h 8.07717 v 39.05139 h 21.56254 v 6.88315 z m 35.24636,0 v -6.88315 H 239.796 v -32.16823 h -11.09734 v -6.88316 h 30.34208 v 6.88316 h -11.09733 v 32.16823 h 11.09733 v 6.88315 z m 48.16985,0 -14.32821,-45.93454 h 8.63907 l 6.46174,23.10775 q 1.19401,3.86299 2.03685,7.44504 0.91307,3.51182 2.03685,7.51529 h 0.28095 q 1.19401,-4.00347 2.03685,-7.51529 0.91307,-3.58205 1.96661,-7.44504 l 6.39151,-23.10775 h 8.35812 l -14.25797,45.93454 z m 28.71438,0 v -45.93454 h 29.42901 v 6.88316 h -21.2816 v 11.72946 h 18.05073 v 6.88316 H 313.7303 v 13.55561 h 21.98396 v 6.88315 z"
       id="text1"
       aria-label="LIVE" /></g></svg>
