<?xml version="1.0" encoding="UTF-8" standalone="no"?>
<!-- Created with Inkscape (http://www.inkscape.org/) -->

<svg
   width="32"
   height="20"
   viewBox="0 0 8.4666665 5.2916666"
   version="1.1"
   id="svg1"
   inkscape:version="1.3 (0e150ed, 2023-07-21)"
   sodipodi:docname="undo.svg"
   xml:space="preserve"
   xmlns:inkscape="http://www.inkscape.org/namespaces/inkscape"
   xmlns:sodipodi="http://sodipodi.sourceforge.net/DTD/sodipodi-0.dtd"
   xmlns="http://www.w3.org/2000/svg"
   xmlns:svg="http://www.w3.org/2000/svg"><sodipodi:namedview
     id="namedview1"
     pagecolor="#505050"
     bordercolor="#ffffff"
     borderopacity="1"
     inkscape:showpageshadow="0"
     inkscape:pageopacity="0"
     inkscape:pagecheckerboard="1"
     inkscape:deskcolor="#505050"
     inkscape:document-units="mm"
     inkscape:zoom="7.9538073"
     inkscape:cx="17.161592"
     inkscape:cy="16.092922"
     inkscape:window-width="1600"
     inkscape:window-height="837"
     inkscape:window-x="-8"
     inkscape:window-y="-8"
     inkscape:window-maximized="1"
     inkscape:current-layer="g6" /><defs
     id="defs1" /><g
     inkscape:label="Layer 1"
     inkscape:groupmode="layer"
     id="layer1"><g
       id="g6"
       inkscape:transform-center-x="-0.82433105"
       inkscape:transform-center-y="-2.2662634"
       style="fill:none;stroke:#f5f5f5;stroke-width:0.6;stroke-dasharray:none;stroke-opacity:1"
       transform="rotate(-30,5.7265951,8.0652136)"><path
         id="path1"
         style="color:#000000;fill:#555555;stroke:none;stroke-width:0.790729;stroke-linecap:round;-inkscape-stroke:none"
         d="m 6.2176273,-0.55668544 a 0.5271521,0.5271521 0 0 0 -0.1965541,-0.060006 0.5271521,0.5271521 0 0 0 -0.3860603,0.11840103 L 4.0162606,0.83035213 a 0.5271521,0.5271521 0 0 0 -0.00586,0.006056 0.5271521,0.5271521 0 0 0 -0.037152,0.0343839 0.52715143,0.52715143 0 0 0 -0.00985,0.0116135 0.5271521,0.5271521 0 0 0 -0.02912,0.0327301 0.5271521,0.5271521 0 0 0 -0.013754,0.0156508 0.5271521,0.5271521 0 0 0 -0.036277,0.0655581 0.52715143,0.52715143 0 0 0 -0.010556,0.0182836 0.5271521,0.5271521 0 0 0 -0.00112,0.00329 0.5271521,0.5271521 0 0 0 -0.044086,0.1499116 0.5271521,0.5271521 0 0 0 -0.00431,0.076935 0.5271521,0.5271521 0 0 0 0.0076,0.076735 0.52715143,0.52715143 0 0 0 5.409e-4,0.011322 0.52715143,0.52715143 0 0 0 0.00283,0.00871 0.5271521,0.5271521 0 0 0 0.00396,0.020375 0.5271521,0.5271521 0 0 0 0.1452613,0.2537269 0.52715143,0.52715143 0 0 0 0.00841,0.00722 0.5271521,0.5271521 0 0 0 0.04922,0.044145 l 1.701357,1.2197595 A 0.5271521,0.5271521 0 0 0 6.4792274,2.7658593 0.5271521,0.5271521 0 0 0 6.3583294,2.0299866 L 5.9850529,1.7625736 c 0.75118,0.1423199 1.4597468,0.4866384 2.0411654,1.0125391 0.9705785,0.8779011 1.477022,2.1539741 1.3713886,3.4584193 A 0.52715143,0.52715143 0 0 0 9.6626767,6.7278631 L 10.439055,5.3831369 C 10.312242,4.0910731 9.7109814,2.8774175 8.7322636,1.9921542 7.9247713,1.2617667 6.9214659,0.81086389 5.8665585,0.67657244 L 6.3045388,0.31841572 a 0.5271521,0.5271521 0 0 0 0.071821,-0.74413753 0.5271521,0.5271521 0 0 0 -0.1587325,-0.13096363 z" /></g></g></svg>
