<?xml version="1.0" encoding="UTF-8" standalone="no"?>
<!-- Created with Inkscape (http://www.inkscape.org/) -->

<svg
   width="200"
   height="200"
   viewBox="0 0 52.916665 52.916666"
   version="1.1"
   id="svg1"
   inkscape:version="1.3 (0e150ed, 2023-07-21)"
   sodipodi:docname="war-death.svg"
   xml:space="preserve"
   xmlns:inkscape="http://www.inkscape.org/namespaces/inkscape"
   xmlns:sodipodi="http://sodipodi.sourceforge.net/DTD/sodipodi-0.dtd"
   xmlns="http://www.w3.org/2000/svg"
   xmlns:svg="http://www.w3.org/2000/svg"><sodipodi:namedview
     id="namedview1"
     pagecolor="#505050"
     bordercolor="#ffffff"
     borderopacity="1"
     inkscape:showpageshadow="0"
     inkscape:pageopacity="0"
     inkscape:pagecheckerboard="1"
     inkscape:deskcolor="#505050"
     inkscape:document-units="mm"
     inkscape:zoom="1.3001717"
     inkscape:cx="37.302764"
     inkscape:cy="118.44589"
     inkscape:current-layer="layer1"
     showguides="true" /><defs
     id="defs1" /><g
     inkscape:label="Layer 1"
     inkscape:groupmode="layer"
     id="layer1"><g
       inkscape:label="Layer 1"
       id="layer1-5"
       transform="matrix(1.5910929,0,0,1.5910929,2.8836404,-0.48417292)"><path
         id="path1"
         style="fill:#c7bfae;fill-opacity:1;stroke-width:7.3031"
         d="M 14.977175,0.71931303 C 12.323515,0.7461352 8.7536198,1.1674233 7.4986435,2.5748609 6.5123376,3.6809885 5.7634297,5.2650316 5.2795462,7.2189891 l 0.089684,0.7882573 -0.2827806,0.074705 c -0.2873547,1.4560342 -0.439857,3.0899916 -0.4436057,4.8689616 -0.00454,2.153076 0.081793,5.868953 0.1736621,9.254024 L 5.0711158,22.45277 4.8288086,22.701497 C 4.9317546,26.429873 5.0383088,29.62481 5.0383088,29.62481 11.93126,29.735437 18.871458,30.024532 24.86202,26.713025 25.296309,15.282545 26.675627,8.6184428 24.90731,5.5911277 24.058407,4.1378397 22.755582,3.0659938 21.444939,2.3068789 l -0.545413,0.188461 -0.09771,-0.5393515 C 19.605829,1.3521267 18.464609,1.0059897 17.724569,0.87157967 17.200426,0.77637921 16.183388,0.70712114 14.977175,0.71931303 Z" /><path
         id="path8-3"
         style="fill:#d8d0bc;fill-opacity:1;stroke-width:7.3031"
         d="M 14.977175,0.71931303 C 12.323519,0.7461352 8.7536184,1.1674247 7.4986435,2.5748609 6.5123386,3.6809885 5.7634293,5.2650351 5.2795462,7.2189891 l 0.089684,0.7882573 -0.2827806,0.074705 c -0.2873547,1.4560342 -0.439857,3.0899956 -0.4436057,4.8689616 -0.00454,2.153073 0.081794,5.868956 0.1736621,9.254024 l 0.2546098,0.247833 -0.2423072,0.248727 c 0.102946,3.728373 0.2095002,6.923313 0.2095002,6.923313 0.2377638,0.0038 0.4755352,0.0077 0.7133704,0.01177 -0.07653,-5.064134 0.336735,-6.834109 0.093072,-8.175857 C 5.595305,20.087137 5.3462541,9.7963983 5.9893505,8.8892858 6.6324478,7.9821739 6.9543338,3.5683579 8.2376886,2.8353543 9.5210426,2.1023515 13.523809,0.93407054 15.141032,1.0225981 c 1.093403,0.059854 3.853766,0.7245524 5.756529,1.4618657 L 20.801815,1.9559849 C 19.605829,1.3521236 18.464609,1.0059862 17.724569,0.87157623 17.20043,0.77637577 16.183388,0.7071177 14.977175,0.71930959 Z m 6.467762,1.58756587 -0.531508,0.1836468 c 0.904151,0.3514091 1.614074,0.7187098 1.850912,1.045006 0.735377,1.0131395 2.236414,2.4910797 2.412551,4.9682715 0.163485,2.2992848 -0.980455,15.1329678 -0.907357,18.5232038 0.198476,-0.100993 0.396012,-0.205374 0.592485,-0.313982 C 25.296309,15.282556 26.675623,8.6184392 24.907308,5.5911277 24.058405,4.1378432 22.755576,3.0659938 21.444937,2.3068789 Z" /><path
         style="fill:#aaa291;fill-opacity:1;stroke-width:7.3031"
         d="m 20.801815,1.9559884 -0.352107,1.40085 -2.276275,1.0084195 2.585689,-0.7173058 0.685815,-1.3410732 -0.545413,0.1884607 z"
         id="path4" /><path
         style="fill:#aaa291;fill-opacity:1;stroke-width:7.3031"
         d="M 5.2795455,7.2189891 6.6144027,8.8890819 6.9813438,11.195616 6.2095761,9.0154967 5.086449,8.0819522 5.3692299,8.0072473 Z"
         id="path5" /><path
         style="fill:#aaa291;fill-opacity:1;stroke-width:7.3031"
         d="m 4.8165059,22.204938 2.7181506,-1.338819 1.7133876,0.360603 -1.6492655,0.04466 -2.7699698,1.43012 0.2423065,-0.248727 z"
         id="path6" /><path
         id="path11"
         style="fill:#524d44;fill-opacity:0.121594;stroke-width:7.3031"
         d="m 9.3764785,25.560508 c -1.3044975,-0.0014 -2.7630992,0.07913 -4.4521018,0.299184 0.045309,1.461748 0.1139323,3.765119 0.1139323,3.765119 6.892944,0.110626 13.833153,0.399718 19.823711,-2.911786 0.01315,-0.34619 0.02964,-0.674184 0.0444,-1.011663 -2.140394,0.103819 -4.891869,0.431875 -7.920533,0.345542 -2.432728,-0.06934 -4.631032,-0.483484 -7.6094027,-0.486396 z" /><path
         style="fill:#cfc7b6;fill-opacity:1;stroke-width:7.3031"
         d="m 28.023002,26.188038 c -3.674232,-0.137635 -4.559369,0.455923 -6.780276,0.572218 -2.220904,0.116288 -8.050918,0.150083 -9.749035,-0.197784 -1.6981123,-0.347995 -4.3402077,0.182637 -6.809218,0.373569 -2.4690092,0.190931 -3.3192863,0.23537 -3.7048855,1.398912 -0.38559857,1.16354 -0.4827738,2.273322 -0.024011,2.791819 0.4587651,0.518497 -0.057554,2.085017 1.7029559,2.017239 1.7605103,-0.06777 9.3198726,-0.534217 10.9249506,-0.180767 1.60508,0.353447 9.53526,0.08369 11.939655,0.134478 2.404398,0.05078 3.115324,-1.062389 3.2634,-1.549934 0.148075,-0.487541 -0.377761,-1.574223 -0.02336,-2.41311 0.361129,-0.854838 0.383473,-2.904547 -0.740168,-2.94664 z"
         id="path9"
         sodipodi:nodetypes="sscsssssssss" /><path
         id="path10"
         style="fill:#b0a99b;fill-opacity:1;stroke-width:7.3031"
         d="m 25.968358,26.459129 c -0.337206,0.0027 -0.641455,0.05745 -0.870274,0.21271 -0.610178,0.413996 -3.53532,1.333346 -4.794789,1.358274 -1.259471,0.02491 -5.043712,-0.486303 -6.140227,-0.559676 -1.09652,-0.07337 -1.61401,-0.374562 -2.189858,0.173839 -0.575848,0.548397 -0.764122,0.287701 -1.160006,-0.356238 -0.395884,-0.643942 -1.4544653,-0.43419 -2.3299986,-0.260316 -0.8755344,0.173873 -5.0163074,0.308502 -5.5261693,0.704277 -0.509861,0.395774 -0.9933942,-0.2009 -1.2996143,0.605145 -0.3062208,0.806043 -0.88549666,1.820173 -0.5520107,2.153659 0.293951,0.293953 0.5326525,1.874615 1.2245508,2.643627 0.1002351,0.0098 0.2080653,0.01425 0.3286034,0.0096 1.7605086,-0.06777 9.3197777,-0.53424 10.9248567,-0.180794 1.605075,0.353446 9.535334,0.08366 11.939726,0.13444 1.222588,0.02581 2.005815,-0.249558 2.501344,-0.590346 0.131203,-0.126425 0.23121,-0.266327 0.291338,-0.419357 0.241602,-0.614909 0.253647,-1.936821 -0.174018,-2.133513 -0.444785,-0.204571 0.280867,-0.662747 0.29758,-1.82185 0,-0.765559 0.176118,-1.37634 -0.704637,-1.475418 -0.550467,-0.06192 -1.204385,-0.202466 -1.766397,-0.198088 z" /><path
         style="fill:#aaa291;fill-opacity:1;stroke-width:9.06016"
         d="m 20.104784,15.840772 3.260523,-1.560366 1.101011,-2.259832 -1.406885,1.85047 z"
         id="path12" /></g><path
       id="rect5"
       style="fill:#402000;fill-opacity:0.35328013;stroke-width:1.94404;stroke-linecap:round;stroke-linejoin:round;paint-order:markers stroke fill"
       d="m 16.132911,9.0837266 2.254722,7.8776404 2.783184,2.266958 2.09764,-2.576164 -2.02687,-1.936919 -0.626018,-1.148857 1.148858,0.626019 1.893596,1.981563 2.14526,-2.634368 -1.792732,-2.200818 z m 18.101938,10.7921124 -1.802324,1.802323 -0.830722,-1.019883 c -0.68503,0.559347 -1.369716,1.119017 -2.056302,1.676656 l 1.089662,1.140589 -0.110124,0.110455 -1.157455,-1.106197 c -0.701761,0.569887 -1.402567,1.140783 -2.103592,1.71138 l 1.463354,1.192179 -1.802654,1.802654 1.759002,0.913397 2.255714,-2.255714 4.168162,4.168161 -0.544005,0.544004 1.42797,1.427969 3.041461,-3.041462 -1.427969,-1.427969 -0.544004,0.544335 -4.168161,-4.168161 2.255714,-2.256046 z" /><path
       id="path8"
       style="fill:#402000;fill-opacity:0.35328013;stroke-width:1.94404;stroke-linecap:round;stroke-linejoin:round;paint-order:markers stroke fill"
       d="m 36.783511,9.0838106 -2.254697,7.8776454 -10.339524,8.422026 1.802448,1.802448 -1.75872,0.913619 -2.255867,-2.255867 -4.16822,4.16822 0.543914,0.543915 -1.427834,1.427835 -3.04134,-3.04134 1.427835,-1.427834 0.544149,0.544148 4.16822,-4.16822 -2.255866,-2.255866 0.913618,-1.758721 1.802448,1.802448 8.422027,-10.339524 z m -4.482361,4.4824404 -1.148974,0.626155 -8.870714,9.283248 0.110207,0.110207 9.283482,-8.87048 z"
       sodipodi:nodetypes="cccccccccccccccccccccccc" /></g></svg>
