<?xml version="1.0" encoding="UTF-8" standalone="no"?>
<!-- Created with Inkscape (http://www.inkscape.org/) -->

<svg
   width="200"
   height="200"
   viewBox="0 0 52.916665 52.916666"
   version="1.1"
   id="svg1"
   inkscape:version="1.3 (0e150ed, 2023-07-21)"
   sodipodi:docname="war.svg"
   xmlns:inkscape="http://www.inkscape.org/namespaces/inkscape"
   xmlns:sodipodi="http://sodipodi.sourceforge.net/DTD/sodipodi-0.dtd"
   xmlns="http://www.w3.org/2000/svg"
   xmlns:svg="http://www.w3.org/2000/svg">
  <sodipodi:namedview
     id="namedview1"
     pagecolor="#505050"
     bordercolor="#ffffff"
     borderopacity="1"
     inkscape:showpageshadow="0"
     inkscape:pageopacity="0"
     inkscape:pagecheckerboard="1"
     inkscape:deskcolor="#505050"
     inkscape:document-units="mm"
     inkscape:zoom="1.8387205"
     inkscape:cx="38.069951"
     inkscape:cy="84.297748"
     inkscape:current-layer="layer1"
     showguides="true" />
  <defs
     id="defs1" />
  <g
     inkscape:label="Layer 1"
     inkscape:groupmode="layer"
     id="layer1">
    <path
       id="rect5"
       style="fill:#fff41f;fill-opacity:1;stroke-width:3.90194;stroke-linecap:round;stroke-linejoin:round;paint-order:markers stroke fill"
       d="m 5.7339051,3.4766501 4.5255129,15.8114199 5.586202,4.550072 4.210228,-5.170688 -4.068184,-3.887641 -1.256497,-2.305901 2.305902,1.256498 3.800687,3.977248 4.305809,-5.28751 -3.598241,-4.4173202 z M 42.066783,25.137784 38.449292,28.755273 36.781928,26.708239 c -1.374942,1.122681 -2.749194,2.246009 -4.127259,3.365261 l 2.187089,2.289307 -0.221032,0.221697 -2.323159,-2.220277 c -1.408523,1.143835 -2.81513,2.289696 -4.222175,3.434956 l 2.937137,2.392854 -3.618155,3.618154 3.530539,1.833304 4.527504,-4.527504 8.366028,8.366026 -1.091886,1.091886 2.866115,2.866114 6.104597,-6.104599 -2.866114,-2.866114 -1.091885,1.092549 -8.366026,-8.366027 4.527504,-4.528169 z" />
    <path
       id="path8"
       style="fill:#ff5760;fill-opacity:1;stroke-width:3.90194;stroke-linecap:round;stroke-linejoin:round;paint-order:markers stroke fill"
       d="M 47.182271,3.4768196 42.656809,19.288248 21.904076,36.19232 25.521817,39.810061 21.991843,41.643809 17.464034,37.116 9.0978884,45.482144 10.189594,46.573851 7.3237488,49.439696 1.2193958,43.335342 4.0852416,40.469498 5.1774162,41.561673 13.543561,33.195527 9.0157528,28.667719 10.8495,25.137744 14.467241,28.755485 31.371314,8.0027533 Z m -8.996666,8.9968234 -2.306136,1.256772 -17.804645,18.632653 0.221199,0.221199 18.633124,-17.804175 z"
       sodipodi:nodetypes="cccccccccccccccccccccccc" />
  </g>
</svg>
