<?xml version="1.0" encoding="UTF-8" standalone="no"?>
<!-- Created with Inkscape (http://www.inkscape.org/) -->

<svg
   width="256"
   height="45"
   viewBox="0 0 67.733331 11.906251"
   version="1.1"
   id="svg8"
   sodipodi:docname="logo-text.svg"
   inkscape:version="1.4 (86a8ad7, 2024-10-11)"
   inkscape:export-filename="header-logo.png"
   inkscape:export-xdpi="96"
   inkscape:export-ydpi="96"
   xml:space="preserve"
   xmlns:inkscape="http://www.inkscape.org/namespaces/inkscape"
   xmlns:sodipodi="http://sodipodi.sourceforge.net/DTD/sodipodi-0.dtd"
   xmlns="http://www.w3.org/2000/svg"
   xmlns:svg="http://www.w3.org/2000/svg"
   xmlns:rdf="http://www.w3.org/1999/02/22-rdf-syntax-ns#"
   xmlns:cc="http://creativecommons.org/ns#"
   xmlns:dc="http://purl.org/dc/elements/1.1/"><defs
     id="defs2"><marker
       inkscape:stockid="DotS"
       orient="auto"
       refY="0"
       refX="0"
       id="marker1488"
       style="overflow:visible"
       inkscape:isstock="true"><path
         id="path1486"
         d="m -2.5,-1 c 0,2.76 -2.24,5 -5,5 -2.76,0 -5,-2.24 -5,-5 0,-2.76 2.24,-5 5,-5 2.76,0 5,2.24 5,5 z"
         style="fill:#000000;fill-opacity:1;fill-rule:evenodd;stroke:#000000;stroke-width:1pt;stroke-opacity:1"
         transform="matrix(0.2,0,0,0.2,1.48,0.2)" /></marker><marker
       inkscape:stockid="DotS"
       orient="auto"
       refY="0"
       refX="0"
       id="marker1424"
       style="overflow:visible"
       inkscape:isstock="true"><path
         id="path1422"
         d="m -2.5,-1 c 0,2.76 -2.24,5 -5,5 -2.76,0 -5,-2.24 -5,-5 0,-2.76 2.24,-5 5,-5 2.76,0 5,2.24 5,5 z"
         style="fill:#000000;fill-opacity:1;fill-rule:evenodd;stroke:#000000;stroke-width:1pt;stroke-opacity:1"
         transform="matrix(0.2,0,0,0.2,1.48,0.2)" /></marker><marker
       inkscape:stockid="DotS"
       orient="auto"
       refY="0"
       refX="0"
       id="DotS"
       style="overflow:visible"
       inkscape:isstock="true"><path
         id="path963"
         d="m -2.5,-1 c 0,2.76 -2.24,5 -5,5 -2.76,0 -5,-2.24 -5,-5 0,-2.76 2.24,-5 5,-5 2.76,0 5,2.24 5,5 z"
         style="fill:#000000;fill-opacity:1;fill-rule:evenodd;stroke:#000000;stroke-width:1pt;stroke-opacity:1"
         transform="matrix(0.2,0,0,0.2,1.48,0.2)" /></marker><marker
       inkscape:stockid="Arrow1Sstart"
       orient="auto"
       refY="0"
       refX="0"
       id="Arrow1Sstart"
       style="overflow:visible"
       inkscape:isstock="true"><path
         id="path908"
         d="M 0,0 5,-5 -12.5,0 5,5 Z"
         style="fill:#000000;fill-opacity:1;fill-rule:evenodd;stroke:#000000;stroke-width:1pt;stroke-opacity:1"
         transform="matrix(0.2,0,0,0.2,1.2,0)" /></marker><marker
       inkscape:stockid="Arrow1Send"
       orient="auto"
       refY="0"
       refX="0"
       id="Arrow1Send"
       style="overflow:visible"
       inkscape:isstock="true"><path
         id="path911"
         d="M 0,0 5,-5 -12.5,0 5,5 Z"
         style="fill:#000000;fill-opacity:1;fill-rule:evenodd;stroke:#000000;stroke-width:1pt;stroke-opacity:1"
         transform="matrix(-0.2,0,0,-0.2,-1.2,0)" /></marker><marker
       inkscape:stockid="Arrow2Sstart"
       orient="auto"
       refY="0"
       refX="0"
       id="Arrow2Sstart"
       style="overflow:visible"
       inkscape:isstock="true"><path
         id="path926"
         style="fill:#000000;fill-opacity:1;fill-rule:evenodd;stroke:#000000;stroke-width:0.625;stroke-linejoin:round;stroke-opacity:1"
         d="M 8.7185878,4.0337352 -2.2072895,0.01601326 8.7185884,-4.0017078 c -1.7454984,2.3720609 -1.7354408,5.6174519 -6e-7,8.035443 z"
         transform="matrix(0.3,0,0,0.3,-0.69,0)" /></marker><marker
       inkscape:stockid="Club"
       orient="auto"
       refY="0"
       refX="0"
       id="Club"
       style="overflow:visible"
       inkscape:isstock="true"><path
         id="path1125"
         d="m -1.5971367,-7.0977635 c -1.8892507,0 -3.426382,1.5371314 -3.426382,3.4263822 0,0.6566798 0.2383531,1.2269257 0.5594092,1.7481542 -0.038751,0.032111 -0.079672,0.058463 -0.1165436,0.093235 -0.6224234,-0.8549928 -1.5893983,-1.4451409 -2.7271199,-1.4451409 -1.8892515,-1e-7 -3.426382,1.5371314 -3.426382,3.42638214 0,1.88925076 1.5371305,3.42638216 3.426382,3.42638216 0.9934462,0 1.868619,-0.4420611 2.4940326,-1.1188187 -0.124687,0.3548915 -0.2097783,0.7214874 -0.2097783,1.1188187 0,1.8892506 1.5371313,3.4263822 3.426382,3.4263822 1.88925064,0 3.4263821,-1.5371316 3.4263821,-3.4263822 0,-0.7933959 -0.3155586,-1.4938285 -0.7691878,-2.0744763 C 2.4152718,1.7663868 3.7718375,2.2973711 4.7661444,3.8340272 4.0279463,3.0958289 3.5540908,1.7534117 3.5540908,-0.05852936 l -0.6293354,-0.04661745 0.5827179,-0.0233087 c 0,-1.81194109 0.4505466,-3.15435829 1.188745,-3.89255659 -0.9590906,1.4822308 -2.2571634,2.0263625 -3.5662345,2.3075635 0.4041964,-0.5619092 0.6992616,-1.213407 0.6992616,-1.9579327 0,-1.8892506 -1.53713146,-3.4263822 -3.4263821,-3.4263822 z"
         style="fill:#000000;fill-opacity:1;fill-rule:evenodd;stroke:#000000;stroke-width:0.745879pt;stroke-opacity:1"
         transform="scale(0.6)" /></marker><marker
       inkscape:stockid="DotL"
       orient="auto"
       refY="0"
       refX="0"
       id="DotL"
       style="overflow:visible"
       inkscape:isstock="true"><path
         id="path957"
         d="m -2.5,-1 c 0,2.76 -2.24,5 -5,5 -2.76,0 -5,-2.24 -5,-5 0,-2.76 2.24,-5 5,-5 2.76,0 5,2.24 5,5 z"
         style="fill:#000000;fill-opacity:1;fill-rule:evenodd;stroke:#000000;stroke-width:1pt;stroke-opacity:1"
         transform="matrix(0.8,0,0,0.8,5.92,0.8)" /></marker><inkscape:perspective
       sodipodi:type="inkscape:persp3d"
       inkscape:vp_x="0 : -252.67711 : 1"
       inkscape:vp_y="0 : 1000.0001 : 0"
       inkscape:vp_z="529.16665 : -252.67711 : 1"
       inkscape:persp3d-origin="264.58333 : -340.87156 : 1"
       id="perspective863" /></defs><sodipodi:namedview
     id="base"
     pagecolor="#000000"
     bordercolor="#666666"
     borderopacity="1.0"
     inkscape:pageopacity="0.0"
     inkscape:pageshadow="2"
     inkscape:zoom="3.2195926"
     inkscape:cx="163.68531"
     inkscape:cy="21.586582"
     inkscape:document-units="mm"
     inkscape:current-layer="layer1"
     showgrid="false"
     inkscape:pagecheckerboard="true"
     inkscape:showpageshadow="false"
     borderlayer="true"
     units="px"
     inkscape:snap-object-midpoints="false"
     inkscape:snap-page="false"
     inkscape:window-width="3440"
     inkscape:window-height="1377"
     inkscape:window-x="-8"
     inkscape:window-y="-8"
     inkscape:window-maximized="1"
     inkscape:snap-center="true"
     inkscape:deskcolor="#505050"
     showguides="true"
     showborder="true" /><metadata
     id="metadata5"><rdf:RDF><cc:Work
         rdf:about=""><dc:format>image/svg+xml</dc:format><dc:type
           rdf:resource="http://purl.org/dc/dcmitype/StillImage" /></cc:Work></rdf:RDF></metadata><g
     inkscape:label="Layer 1"
     inkscape:groupmode="layer"
     id="layer1"
     transform="translate(0,232.16668)"><path
       id="path20"
       style="font-weight:bold;font-size:6.96718px;font-family:Toxigenesis;-inkscape-font-specification:'Toxigenesis Bold';text-align:center;letter-spacing:-0.870899px;word-spacing:0px;text-anchor:middle;fill:#ffffff;stroke:none;stroke-width:1.09474;stroke-linecap:butt;stroke-linejoin:miter;stroke-dasharray:none;stroke-opacity:1;paint-order:markers stroke fill"
       d="m 26.360112,-227.50318 c -1.875121,0 -2.199526,0.69459 -2.199526,2.12867 0,1.48755 0.355249,2.41673 2.184072,2.41673 h 1.620313 v -1.04254 h -1.566513 c -0.740787,0 -0.972435,-0.37702 -0.987868,-0.91146 h 3.133021 v -0.62326 c 0,-1.32721 -0.377828,-1.96815 -2.183499,-1.96814 z m 0.04635,0.96193 c 0.686772,0 0.925483,0.15135 0.925483,0.70364 v 0.0535 h -1.921364 v -0.0535 c 0,-0.55228 0.247375,-0.70364 0.995881,-0.70364 z"
       sodipodi:nodetypes="sssccsccssssccss" /><path
       id="path19"
       style="font-weight:bold;font-size:6.96718px;font-family:Toxigenesis;-inkscape-font-specification:'Toxigenesis Bold';text-align:center;letter-spacing:-0.870899px;word-spacing:0px;text-anchor:middle;fill:#ffffff;stroke:none;stroke-width:1.09474;stroke-linecap:butt;stroke-linejoin:miter;stroke-dasharray:none;stroke-opacity:1;paint-order:markers stroke fill"
       d="m 41.983812,-227.50318 c -1.875121,0 -2.199525,0.69459 -2.199525,2.12867 0,1.48755 0.355249,2.41673 2.184072,2.41673 h 1.620312 v -1.04254 h -1.566512 c -0.740787,0 -0.972435,-0.37702 -0.987869,-0.91146 h 3.133021 v -0.62326 c 0,-1.32721 -0.377827,-1.96815 -2.183499,-1.96814 z m 0.04636,0.96193 c 0.686772,0 0.925483,0.15135 0.925483,0.70364 v 0.0535 h -1.921364 v -0.0535 c 0,-0.55228 0.247375,-0.70364 0.995881,-0.70364 z"
       sodipodi:nodetypes="sssccsccssssccss" /><path
       style="font-weight:bold;font-size:6.96718px;font-family:Toxigenesis;-inkscape-font-specification:'Toxigenesis Bold';text-align:center;letter-spacing:-0.870899px;word-spacing:0px;text-anchor:middle;fill:#ffffff;stroke:none;stroke-width:1.09474;stroke-linecap:butt;stroke-linejoin:miter;stroke-dasharray:none;stroke-opacity:1;paint-order:markers stroke fill"
       d="m 67.502234,-226.31865 v -1.07779 h -0.82567 c -1.288665,0 -1.743939,0.37413 -1.743939,1.39846 v 3.04013 h 1.388977 v -2.95995 c 0,-0.28506 0.138898,-0.40086 0.532443,-0.40086 z"
       id="path18"
       sodipodi:nodetypes="ccssccssc" /><path
       id="path16"
       style="font-weight:bold;font-size:6.96718px;font-family:Toxigenesis;-inkscape-font-specification:'Toxigenesis Bold';text-align:center;letter-spacing:-0.870899px;word-spacing:0px;text-anchor:middle;fill:#ffffff;stroke:none;stroke-width:1.09474;stroke-linecap:butt;stroke-linejoin:miter;stroke-dasharray:none;stroke-opacity:1;paint-order:markers stroke fill"
       d="m 62.095434,-227.50318 c -1.875121,0 -2.199525,0.69459 -2.199525,2.12867 0,1.48755 0.355248,2.41673 2.184071,2.41673 h 1.620313 v -1.04254 h -1.566512 c -0.740788,0 -0.972435,-0.37702 -0.987869,-0.91146 h 3.133021 v -0.62326 c 0,-1.32721 -0.377827,-1.96815 -2.183499,-1.96814 z m 0.04636,0.96193 c 0.686773,0 0.925484,0.15135 0.925484,0.70364 v 0.0535 h -1.921364 v -0.0535 c 0,-0.55228 0.247375,-0.70364 0.99588,-0.70364 z"
       sodipodi:nodetypes="sssccsccssssccss" /><path
       style="font-weight:bold;font-size:6.96718px;font-family:Toxigenesis;-inkscape-font-specification:'Toxigenesis Bold';text-align:center;letter-spacing:-0.870899px;word-spacing:0px;text-anchor:middle;fill:#ffffff;stroke:none;stroke-width:1.09474;stroke-linecap:butt;stroke-linejoin:miter;stroke-dasharray:none;stroke-opacity:1;paint-order:markers stroke fill"
       d="m 55.144231,-222.95786 h 1.234649 v -3.15593 h 0.841101 c 0.51701,0 0.655907,0.16925 0.655907,0.57007 v 2.58586 h 1.358113 v -2.78182 c 0,-1.14905 -0.493858,-1.65679 -2.01402,-1.65679 h -4.930875 v 4.4386 h 1.358115 v -3.15593 h 1.49701 z"
       id="path15"
       sodipodi:nodetypes="cccssccsscccccc" /><path
       id="path13"
       style="font-weight:bold;font-size:6.96718px;font-family:Toxigenesis;-inkscape-font-specification:'Toxigenesis Bold';text-align:center;letter-spacing:-0.870899px;word-spacing:0px;text-anchor:middle;fill:#ffffff;stroke:none;stroke-width:1.09474;stroke-linecap:butt;stroke-linejoin:miter;stroke-dasharray:none;stroke-opacity:1;paint-order:markers stroke fill"
       d="m 50.234363,-227.39614 v 4.43837 h 1.389084 v -4.43837 z"
       sodipodi:nodetypes="ccccc" /><path
       style="font-weight:bold;font-size:6.96718px;font-family:Toxigenesis;-inkscape-font-specification:'Toxigenesis Bold';text-align:center;letter-spacing:-0.870899px;word-spacing:0px;text-anchor:middle;fill:#ffffff;stroke:none;stroke-width:1.09474;stroke-linecap:butt;stroke-linejoin:miter;stroke-dasharray:none;stroke-opacity:1;paint-order:markers stroke fill"
       d="m 48.056259,-222.95786 h 1.512444 v -5.10393 h 2.05474 v -1.40737 H 46.00152 v 1.40737 h 2.054739 z"
       id="path12"
       sodipodi:nodetypes="ccccccccc" /><path
       style="font-weight:bold;font-size:6.96718px;font-family:Toxigenesis;-inkscape-font-specification:'Toxigenesis Bold';text-align:center;letter-spacing:-0.870899px;word-spacing:0px;text-anchor:middle;fill:#ffffff;stroke:none;stroke-width:1.09474;stroke-linecap:butt;stroke-linejoin:miter;stroke-dasharray:none;stroke-opacity:1;paint-order:markers stroke fill"
       d="m 47.390601,-226.31865 v -1.07779 h -0.825672 c -1.288664,0 -1.74394,0.37413 -1.74394,1.39846 v 3.04013 h 1.388979 v -2.95995 c 0,-0.28506 0.138898,-0.40086 0.532441,-0.40086 z"
       id="path11"
       sodipodi:nodetypes="ccssccscc" /><path
       id="path7"
       style="font-weight:bold;font-size:6.96718px;font-family:Toxigenesis;-inkscape-font-specification:'Toxigenesis Bold';text-align:center;letter-spacing:-0.870899px;word-spacing:0px;text-anchor:middle;fill:#ffffff;stroke:none;stroke-width:1.09474;stroke-linecap:butt;stroke-linejoin:miter;stroke-dasharray:none;stroke-opacity:1;paint-order:markers stroke fill"
       d="m 37.729543,-229.46934 v 2.0732 h -1.234549 c -1.527877,0 -2.006074,0.7038 -2.006074,2.23586 0,1.54098 0.478197,2.20251 2.006074,2.20251 h 2.623632 v -6.51158 z m -1.257445,3.26638 h 1.257445 v 2.05138 h -1.257445 c -0.517009,0 -0.663921,-0.34955 -0.663921,-1.0087 0,-0.65021 0.146912,-1.04268 0.663921,-1.04268 z"
       sodipodi:nodetypes="ccssscccsccsss" /><path
       style="font-weight:bold;font-size:6.96718px;font-family:Toxigenesis;-inkscape-font-specification:'Toxigenesis Bold';text-align:center;letter-spacing:-0.870899px;word-spacing:0px;text-anchor:middle;fill:#ffffff;stroke:none;stroke-width:1.09474;stroke-linecap:butt;stroke-linejoin:miter;stroke-dasharray:none;stroke-opacity:1;paint-order:markers stroke fill"
       d="m 29.197306,-222.95786 h 1.388979 v -3.15593 h 1.188348 c 0.517007,0 0.663623,0.16034 0.663623,0.57007 v 2.58586 h 1.388979 v -2.78182 c 0,-1.14905 -0.524725,-1.65679 -2.052602,-1.65679 h -2.577327 z"
       id="path6"
       sodipodi:nodetypes="cccssccsscc" /><path
       style="font-weight:bold;font-size:6.96718px;font-family:Toxigenesis;-inkscape-font-specification:'Toxigenesis Bold';text-align:center;letter-spacing:-0.870899px;word-spacing:0px;text-anchor:middle;fill:#ffffff;stroke:none;stroke-width:1.09474;stroke-linecap:butt;stroke-linejoin:miter;stroke-dasharray:none;stroke-opacity:1;paint-order:markers stroke fill"
       d="m 22.105945,-222.95786 h 1.38898 v -6.51131 h -1.38898 z"
       id="path3" /><path
       id="text1"
       style="font-weight:bold;font-size:6.96718px;font-family:Toxigenesis;-inkscape-font-specification:'Toxigenesis Bold';text-align:center;letter-spacing:-0.870899px;word-spacing:0px;text-anchor:middle;fill:#ffffff;stroke:none;stroke-width:1.09474;stroke-linecap:butt;stroke-linejoin:miter;stroke-dasharray:none;stroke-opacity:1;paint-order:markers stroke fill"
       d="m 15.82271,-229.46934 v 6.51158 h 3.534235 c 1.280947,0 2.191514,-0.3294 2.191514,-1.88819 0,-0.78386 -0.231418,-1.2295 -0.594094,-1.46999 0.300943,-0.25832 0.48592,-0.67675 0.48592,-1.35372 0,-1.47864 -0.894991,-1.79968 -2.08334,-1.79968 z m 1.47379,1.33653 h 2.075899 c 0.362677,0 0.640455,0.15131 0.640455,0.66793 0,0.46318 -0.216024,0.64153 -0.625001,0.64153 H 17.2965 Z m 0,2.39558 h 2.122258 c 0.393545,0 0.640455,0.15166 0.640455,0.67719 0,0.55227 -0.285808,0.69504 -0.663921,0.69504 H 17.2965 Z" /><g
       id="g864"
       transform="matrix(0.02492029,0,0,0.02492029,0.33187496,-226.99559)"><path
         style="fill:#f1f1f1;fill-opacity:1;fill-rule:evenodd;stroke:none;stroke-width:0.264583px;stroke-linecap:butt;stroke-linejoin:miter;stroke-opacity:1"
         d="m 119.79072,-51.378626 144.78299,-83.590494 144.78298,83.590491 V 115.80236 l -144.78298,83.5905 -144.78299,-83.5905 z"
         id="path886"
         inkscape:connector-curvature="0" /><path
         style="fill:#38c312;fill-opacity:1;fill-rule:evenodd;stroke:#1a1a1a;stroke-width:9.442;stroke-linecap:round;stroke-linejoin:round;stroke-miterlimit:4;stroke-dasharray:none;stroke-opacity:1"
         d="M 6.3891148,31.381548 135.45493,-192.16697 l 129.11878,57.19785 -144.78299,83.590497 z"
         id="path880"
         inkscape:connector-curvature="0" /><path
         style="fill:#f3b818;fill-opacity:1;fill-rule:evenodd;stroke:#1a1a1a;stroke-width:9.442;stroke-linecap:round;stroke-linejoin:round;stroke-miterlimit:4;stroke-dasharray:none;stroke-opacity:1"
         d="M 135.4549,254.93009 6.3891148,31.38155 119.79072,-51.378623 V 115.80236 Z"
         id="path878"
         inkscape:connector-curvature="0" /><path
         style="fill:#f93131;fill-opacity:1;fill-rule:evenodd;stroke:#1a1a1a;stroke-width:9.442;stroke-linecap:round;stroke-linejoin:round;stroke-miterlimit:4;stroke-dasharray:none;stroke-opacity:1"
         d="M 264.57371,199.39286 119.79072,115.80236 135.4549,254.93009 H 393.58648 Z"
         id="path876"
         inkscape:connector-curvature="0" /><path
         style="fill:#f356c7;fill-opacity:1;fill-rule:evenodd;stroke:#1a1a1a;stroke-width:9.442;stroke-linecap:round;stroke-linejoin:round;stroke-miterlimit:4;stroke-dasharray:none;stroke-opacity:1"
         d="M 409.3567,115.80236 264.57371,199.39286 393.58648,254.93009 522.65231,31.381573 Z"
         id="path874"
         inkscape:connector-curvature="0" /><path
         style="fill:#2053f8;fill-opacity:1;fill-rule:evenodd;stroke:#1a1a1a;stroke-width:9.442;stroke-linecap:round;stroke-linejoin:round;stroke-miterlimit:4;stroke-dasharray:none;stroke-opacity:1"
         d="M 393.5865,-192.16695 522.65231,31.381577 409.3567,115.80236 V -51.378629 Z"
         id="path872"
         inkscape:connector-curvature="0" /><path
         style="fill:#29c4e5;fill-opacity:1;fill-rule:evenodd;stroke:#1a1a1a;stroke-width:9.442;stroke-linecap:round;stroke-linejoin:round;stroke-miterlimit:4;stroke-dasharray:none;stroke-opacity:1"
         d="m 264.57371,-134.96912 -129.11878,-57.19785 258.13157,2e-5 15.7702,140.788323 z"
         id="path867"
         inkscape:connector-curvature="0" /><path
         inkscape:connector-curvature="0"
         id="path884"
         style="fill:none;fill-rule:evenodd;stroke:#1a1a1a;stroke-width:9.44237;stroke-linecap:round;stroke-linejoin:round;stroke-miterlimit:4;stroke-dasharray:none;stroke-opacity:1"
         d="M 264.57371,32.211872 282.67158,21.763059 300.76945,11.314247 318.86733,0.86543503 336.9652,-9.5833773 355.06308,-20.032189 373.16096,-30.481002 391.25882,-40.929815 M 264.57371,178.49523 V 157.59761 136.69999 115.80236 94.904743 74.00712 53.109498 32.211874 L 246.47583,21.763063 228.37796,11.31425 210.28009,0.86543788 192.18222,-9.5833743 174.08434,-20.032187 155.98647,-30.480998 137.8886,-40.929811" /></g></g></svg>
