<?xml version="1.0" encoding="UTF-8" standalone="no"?>
<!-- Created with Inkscape (http://www.inkscape.org/) -->

<svg
   width="324.55524mm"
   height="209.19722mm"
   viewBox="0 0 324.55524 209.19722"
   version="1.1"
   id="svg1"
   xml:space="preserve"
   inkscape:version="1.3 (0e150ed6c4, 2023-07-21)"
   sodipodi:docname="Taj_Mahal-front.svg"
   xmlns:inkscape="http://www.inkscape.org/namespaces/inkscape"
   xmlns:sodipodi="http://sodipodi.sourceforge.net/DTD/sodipodi-0.dtd"
   xmlns="http://www.w3.org/2000/svg"
   xmlns:svg="http://www.w3.org/2000/svg"><sodipodi:namedview
     id="namedview1"
     pagecolor="#505050"
     bordercolor="#ffffff"
     borderopacity="1"
     inkscape:showpageshadow="0"
     inkscape:pageopacity="0"
     inkscape:pagecheckerboard="1"
     inkscape:deskcolor="#505050"
     inkscape:document-units="mm"
     inkscape:zoom="0.41512267"
     inkscape:cx="575.73343"
     inkscape:cy="567.30219"
     inkscape:window-width="1600"
     inkscape:window-height="837"
     inkscape:window-x="-8"
     inkscape:window-y="-8"
     inkscape:window-maximized="1"
     inkscape:current-layer="layer1" /><defs
     id="defs1" /><g
     inkscape:label="Layer 1"
     inkscape:groupmode="layer"
     id="layer1"
     transform="translate(55.916622,-28.03653)"><path
       style="fill:#555555;fill-opacity:1"
       d="m -55.916622,227.17956 v -10.05417 h 1.537642 1.537642 l 0.22619,-9.43681 c 0.124404,-5.19024 0.255257,-11.3418 0.290784,-13.67014 l 0.0646,-4.23333 -1.491288,-0.10924 -1.491287,-0.10924 0.103833,-2.36021 0.103833,-2.3602 1.459101,-0.10651 1.4591,-0.10652 0.224188,-11.18237 c 0.123304,-6.15031 0.260458,-13.008 0.304789,-15.23932 l 0.0806,-4.05694 -1.499305,-0.10848 -1.499306,-0.10848 v -1.91999 -1.92 h 1.544278 1.544279 l 0.221393,-8.73125 c 0.121767,-4.80219 0.318615,-12.50156 0.437441,-17.10972 l 0.216047,-8.37847 h -1.276163 -1.276164 v -1.76389 -1.76389 h 1.763889 1.763889 v -5.46806 -5.46805 h -1.763889 c -0.970139,0 -1.763889,-0.0966 -1.763889,-0.21462 0,-0.28016 8.458395,-14.292321 8.971212,-14.861695 0.298588,-0.331519 1.469027,1.362117 4.882978,7.065715 2.46964,4.125962 4.490254,7.61624 4.490254,7.75617 0,0.13994 -0.797885,0.25443 -1.773077,0.25443 h -1.773077 l 0.09738,5.37986 0.09738,5.37986 1.675695,0.10752 1.675694,0.10753 v 1.74456 1.74456 h -1.280108 -1.280108 l 0.214877,3.79236 c 0.118183,2.0858 0.318641,9.77734 0.445464,17.09232 l 0.230586,13.29997 1.628394,0.10559 1.628395,0.10559 0.106631,1.85208 0.10663,1.85209 h -1.642905 -1.642905 l 0.255821,15.08125 c 0.140702,8.29468 0.325457,15.20031 0.410567,15.34583 0.08511,0.14552 0.780377,0.26458 1.545037,0.26458 h 1.390291 v 2.46945 2.46944 h -1.430835 -1.430835 l 0.22443,13.31736 c 0.123436,7.32455 0.28608,13.5158 0.36143,13.75834 0.105679,0.34015 2.59941,0.44097 10.907793,0.44097 h 10.770794 v -2.94173 c 0,-1.61795 0.10462,-6.30108 0.232489,-10.40695 l 0.232489,-7.46521 h -1.114433 c -1.102135,0 -1.114434,-0.0195 -1.114434,-1.76389 0,-1.71401 0.02914,-1.76389 1.030255,-1.76389 1.007962,0 1.034439,-0.0477 1.223668,-2.20486 0.106378,-1.21267 0.258282,-6.45142 0.337566,-11.64167 l 0.144151,-9.4368 h -1.191431 c -1.176881,0 -1.191431,-0.0194 -1.191431,-1.5875 0,-1.56474 0.0169,-1.5875 1.178729,-1.5875 h 1.178728 l 0.231456,-7.14375 c 0.127301,-3.92906 0.231873,-9.72344 0.232383,-12.87639 l 9.26e-4,-5.73264 h -0.90324 c -0.828023,0 -0.894122,-0.11016 -0.79375,-1.32292 0.103545,-1.25107 0.181331,-1.32886 1.432407,-1.4324 l 1.322917,-0.10949 v -4.01537 -4.01536 l -1.378837,-0.10848 -1.378836,-0.10848 3.407308,-5.72214 c 1.8740201,-3.14718 3.486684,-5.72214 3.5836979,-5.72214 0.097014,0 1.7096778,2.57496 3.5836976,5.72214 l 3.40730867,5.72214 -1.37883649,0.10848 -1.37883648,0.10848 v 4.01536 4.01537 l 1.32291662,0.10949 c 1.25107602,0.10354 1.32886247,0.18133 1.43240661,1.4324 0.10300639,1.24458 0.0500122,1.32292 -0.89492656,1.32292 H -1.4384206 l 0.1031925,4.67431 c 0.056756,2.57086 0.1991498,8.35649 0.3164309,12.85693 l 0.21323851,8.18263 1.10766223,0.10765 c 1.03090896,0.10019 1.11517906,0.21154 1.21614066,1.60695 0.1084617,1.49908 0.1082885,1.49931 -1.1267364,1.49931 h -1.23521478 l 0.16983832,9.4368 c 0.0934111,5.19025 0.25589048,10.429 0.36106537,11.64167 0.18713276,2.15765 0.21328548,2.20486 1.22148139,2.20486 1.00112,0 1.0302543,0.0499 1.0302543,1.76389 0,1.72469 -0.023518,1.76389 -1.05833328,1.76389 h -1.05833331 l 9.2641e-4,3.26319 c 5.0953e-4,1.79476 0.10508175,6.47789 0.23238271,10.40695 l 0.23145629,7.14375 H 11.524384 22.761737 l -0.01355,-38.57663 c -0.0074,-21.21715 0.0869,-38.8384 0.209674,-39.15834 0.27843,-0.72558 0.81028,-0.75148 1.078492,-0.0525 0.111683,0.29104 0.354836,0.52917 0.540339,0.52917 0.202904,0 0.309095,-2.15021 0.266538,-5.39701 -0.05476,-4.17749 0.04671,-5.62116 0.449043,-6.38904 l 0.519782,-0.99204 0.751538,1.27377 c 0.413347,0.70057 0.598143,1.27376 0.410659,1.27376 -0.20365,0 -0.340881,2.0593 -0.340881,5.11528 v 5.11528 h 1.605628 1.605628 l -0.06469,-2.93482 c -0.06098,-2.76697 0.343928,-4.47352 1.061431,-4.47352 0.626552,0 0.806343,1.36498 0.748534,5.68291 l -0.05955,4.44818 4.142921,4.45946 c 3.227351,3.47393 4.342949,4.45958 5.048037,4.46002 l 0.905115,5.6e-4 -0.176389,-6.96792 c -0.142769,-5.63983 -0.07965,-7.14977 0.331134,-7.92197 l 0.507523,-0.95404 0.55081,0.95404 c 0.466152,0.80741 0.5237,2.025 0.374422,7.92197 -0.137544,5.4334 -0.07928,6.9678 0.264583,6.96736 0.254658,-3.3e-4 0.440972,-0.44772 0.440972,-1.0589 0,-0.97434 0.09799,-1.05833 1.234722,-1.05833 h 1.234723 v -6.68435 -6.68434 l -1.852084,-0.10663 -1.852083,-0.10663 1.851725,-1.05833 1.851724,-1.05834 0.0023,-1.94027 c 0.0054,-4.53743 1.467843,-6.83772 6.488602,-10.20629 2.04185,-1.36993 4.275493,-2.98514 4.963651,-3.58935 l 1.251196,-1.09856 1.440663,1.30155 c 0.792364,0.71586 2.603588,2.06072 4.024941,2.98859 3.213119,2.09755 3.97945,2.71536 5.200866,4.19293 l 0.970139,1.17359 v -1.26179 c 0,-0.93892 -0.149394,-1.26178 -0.583843,-1.26178 -0.523105,0 -0.516748,-0.0741 0.06111,-0.71267 0.629118,-0.69517 0.60961,-0.78395 -0.794548,-3.61597 -1.796619,-3.62358 -2.450218,-5.57231 -2.95742,-8.81769 -1.027356,-6.57362 1.009751,-14.592639 5.554517,-21.865216 2.938449,-4.702133 9.411986,-11.622202 14.947961,-15.979045 1.455209,-1.145257 3.677709,-3.045502 4.938889,-4.222768 1.261181,-1.177265 3.999618,-3.456084 6.085417,-5.064043 2.085802,-1.607959 3.792362,-3.119895 3.792362,-3.359858 0,-0.594618 1.75866,-2.198056 2.73403,-2.492718 0.78985,-0.238616 1.11362,-0.897804 0.44097,-0.897804 -0.72568,0 -1.76389,-1.447278 -1.76389,-2.458883 0,-0.755126 0.2956,-1.266316 1.05834,-1.830232 1.14385,-0.845687 1.39732,-1.708107 0.50203,-1.708107 -1.04945,0 -2.6187,-1.963551 -2.6187,-3.276677 0,-1.379645 1.07581,-2.963306 2.33938,-3.443715 0.75356,-0.286502 0.83562,-0.530091 0.83562,-2.480522 0,-1.886827 -0.11254,-2.251347 -0.88195,-2.856558 -0.57278,-0.450553 -0.88194,-1.046778 -0.88194,-1.700862 0,-0.654083 0.30916,-1.250309 0.88194,-1.700861 0.83139,-0.65397 0.88195,-0.887999 0.88195,-4.082549 0,-2.024023 0.14207,-3.388812 0.35278,-3.388812 0.2107,0 0.35277,1.364789 0.35277,3.388812 0,3.19455 0.0506,3.428579 0.88195,4.082549 1.18004,0.928224 1.18004,2.473499 0,3.401723 -0.7694,0.605211 -0.88195,0.969731 -0.88195,2.856558 0,1.950431 0.0821,2.19402 0.83562,2.480522 1.26357,0.480409 2.33938,2.06407 2.33938,3.443715 0,1.313126 -1.56925,3.276677 -2.61869,3.276677 -0.8953,0 -0.64182,0.86242 0.50203,1.708107 0.76274,0.563916 1.05833,1.075106 1.05833,1.830232 0,1.011605 -1.03821,2.458883 -1.76389,2.458883 -0.67265,0 -0.34887,0.659188 0.44097,0.897804 0.97537,0.294662 2.73403,1.8981 2.73403,2.492718 0,0.239963 1.62719,1.695718 3.61597,3.235011 1.98879,1.539293 4.72723,3.822465 6.08542,5.073715 1.3582,1.251251 3.97757,3.474955 5.82083,4.941565 9.36685,7.452821 16.26544,16.772187 18.9073,25.542033 0.79568,2.641316 0.95477,3.860146 0.98665,7.558816 0.0238,2.76402 -0.14758,5.13377 -0.45927,6.34981 -0.64393,2.51227 -2.16093,6.17775 -3.31019,7.99829 -0.82816,1.31188 -0.86159,1.50333 -0.38214,2.18785 0.46844,0.66879 0.46587,0.75017 -0.0237,0.75017 -0.41111,0 -0.54884,0.37693 -0.54785,1.4993 l 0.001,1.49931 0.65953,-1.05834 c 0.92688,-1.48733 2.28959,-2.66665 5.26449,-4.55602 1.41641,-0.89957 3.28434,-2.28916 4.15098,-3.088 l 1.57569,-1.45242 1.69207,1.42677 c 0.93064,0.78473 3.0481,2.30157 4.70548,3.37075 4.73622,3.05539 6.29078,5.51024 6.29078,9.93398 v 2.15798 l 2.24624,1.1521 c 1.27404,0.65345 2.38102,1.48632 2.55764,1.92431 0.17127,0.42472 0.23203,3.90779 0.13501,7.74015 l -0.17639,6.96792 0.92653,-5.6e-4 c 0.72962,-4.5e-4 1.80265,-0.93441 5.04911,-4.39472 l 4.12259,-4.39415 -0.0762,-4.62307 c -0.061,-3.69939 0.0288,-4.72806 0.44925,-5.14855 0.46546,-0.46546 0.58002,-0.45978 1.00293,0.0498 0.33983,0.40947 0.45129,1.48227 0.38668,3.72187 l -0.0908,3.14659 h 1.63128 1.63128 l -0.066,-5.60696 c -0.0515,-4.3749 0.0448,-5.76527 0.4386,-6.32745 l 0.50465,-0.72049 0.46945,0.75171 c 0.34727,0.55606 0.45235,2.20289 0.40376,6.32745 -0.045,3.82129 0.055,5.57574 0.31796,5.57574 0.211,0 0.47502,-0.23813 0.5867,-0.52917 0.29752,-0.77533 0.60705,-0.65435 1.29183,0.50488 0.3862,0.65379 0.47904,1.11551 0.25245,1.25555 -0.21588,0.13342 -0.35837,2.2471 -0.35837,5.31594 0,4.85928 0.0326,5.09446 0.70555,5.09446 0.7005,0 0.70556,0.23519 0.70556,32.80834 v 32.80833 h 10.70372 10.70373 l 0.23146,-7.14375 c 0.1273,-3.92906 0.23187,-8.61219 0.23238,-10.40695 l 9.3e-4,-3.26319 h -1.05833 c -1.03482,0 -1.05834,-0.0392 -1.05834,-1.76389 0,-1.70884 0.0317,-1.76389 1.01721,-1.76389 1.32653,0 1.38281,-0.32794 1.42283,-8.29028 0.0175,-3.4925 0.13392,-8.29468 0.2586,-10.67152 l 0.22668,-4.32153 h -1.30655 -1.30656 l 0.10848,-1.49931 c 0.10096,-1.39541 0.18523,-1.50676 1.21614,-1.60695 l 1.10766,-0.10765 0.21662,-8.18263 c 0.11914,-4.50044 0.25569,-10.28613 0.30345,-12.85708 l 0.0868,-4.67445 -0.99143,1.5e-4 c -0.92996,1.3e-4 -0.98465,-0.0819 -0.88195,-1.32278 0.10355,-1.25107 0.18133,-1.32886 1.43241,-1.4324 l 1.32292,-0.10949 v -4.01537 -4.01536 l -1.35951,-0.10848 -1.3595,-0.10848 3.38797,-5.72521 c 1.86339,-3.14887 3.46735,-5.72586 3.56437,-5.72664 0.097,-7.9e-4 1.72333,2.57555 3.61404,5.72521 l 3.43765,5.72664 -1.40918,0.10848 -1.40918,0.10848 v 4.01536 4.01537 l 1.32292,0.10949 c 1.25107,0.10354 1.32886,0.18133 1.4324,1.4324 0.10271,1.24096 0.0481,1.32289 -0.88194,1.32242 l -0.99143,-5.1e-4 0.22153,9.26092 c 0.12185,5.09351 0.24091,10.88811 0.26458,12.8769 l 0.043,3.61597 h 1.23472 c 1.22819,0 1.23473,0.008 1.23473,1.5875 0,1.57133 -0.0123,1.5875 -1.20378,1.5875 h -1.20377 l 0.15586,8.37847 c 0.0857,4.60816 0.24537,9.84691 0.35476,11.64167 l 0.19888,3.26319 h 1.02541 c 0.99531,0 1.02541,0.0518 1.02541,1.76389 0,1.74439 -0.0123,1.76389 -1.11432,1.76389 h -1.11433 l 0.23146,7.14375 c 0.1273,3.92906 0.23187,8.61219 0.23238,10.40694 l 9.3e-4,3.2632 h 10.7389 c 5.90639,0 10.80865,-0.11906 10.89391,-0.26458 0.0853,-0.14553 0.27021,-6.33678 0.41102,-13.75834 l 0.25602,-13.49375 h -1.44854 -1.44854 v -2.46944 -2.46945 h 1.5875 1.5875 l 5.9e-4,-3.96875 c 3.3e-4,-2.18281 0.10536,-9.08843 0.23341,-15.34583 l 0.23281,-11.37708 h -1.64452 -1.64451 v -1.94028 -1.94028 h 1.71718 1.71718 l 0.22801,-13.14097 c 0.12541,-7.22754 0.32421,-14.92691 0.44179,-17.10972 l 0.21377,-3.96875 h -1.27702 -1.27702 v -1.74456 -1.74456 l 1.67569,-0.10753 1.6757,-0.10752 0.0974,-5.37986 0.0974,-5.37986 h -1.77307 c -0.9752,0 -1.77308,-0.10676 -1.77308,-0.23725 0,-0.35323 8.96678,-15.285638 9.17222,-15.274526 0.17666,0.0096 8.89199,14.512166 9.11343,15.165056 0.0668,0.19706 -0.65649,0.34672 -1.6757,0.34672 h -1.79328 v 5.46805 5.46806 h 1.76389 1.76388 v 1.76389 1.76389 h -1.27957 -1.27958 l 0.21953,8.37847 c 0.12074,4.60816 0.32054,12.30753 0.444,17.10972 l 0.22446,8.73125 h 1.54114 1.54114 v 1.94028 1.94028 h -1.61399 -1.61398 l 0.19937,3.0868 c 0.10966,1.69775 0.29857,8.59513 0.41981,15.32753 l 0.22042,12.24073 1.45877,0.10649 1.45876,0.1065 0.10431,2.38125 0.10432,2.38125 h -1.42723 -1.42723 l 7.2e-4,4.49792 c 4e-4,2.47385 0.10525,8.6651 0.23301,13.75833 l 0.23228,9.26042 h 2.23644 2.23644 v 10.05417 10.05416 H 106.36115 -55.916622 Z m 126.64722,-84.49028 c 0,-4.23334 -0.129971,-6.70278 -0.352778,-6.70278 -0.222357,0 -0.352778,2.39105 -0.352778,6.46759 0,5.68858 0.10588,6.93797 0.587963,6.93797 0.06468,0 0.117593,-3.01625 0.117593,-6.70278 z m 70.202772,0 c 0,-4.23334 -0.12997,-6.70278 -0.35277,-6.70278 -0.22281,0 -0.35278,2.46944 -0.35278,6.70278 0,4.23333 0.12997,6.70278 0.35278,6.70278 0.2228,0 0.35277,-2.46945 0.35277,-6.70278 z m 26.79444,0.73855 c -0.0278,-3.81115 0.0992,-6.23084 0.35179,-6.70278 0.37902,-0.7082 0.31503,-0.73855 -1.55743,-0.73855 h -1.95269 v 6.70278 6.70278 h 1.6009 1.6009 z"
       id="path1"
       sodipodi:nodetypes="ccccsscccccccsscccccccsscccccccccsssssscccccccccsscccccccssscccccssscsscssssscssscsscssscccccssscccccssscsscssscssssscssccccssssscssscccssscsscsscssssscccccccssscssscssssssssssssssssssssssssssssssssssssssssssssccssscssscssscsscsssscccsscssssssssscccsscssssscccsscsscssscccccssscccccssscsscssscsscssscsscssscccccccsscccccccsscccccccccssssscccccccccsscccccccsscccccccssccccccccssssssssssssscccccs" /></g></svg>
