<?xml version="1.0" encoding="UTF-8" standalone="no"?>
<!-- Created with Inkscape (http://www.inkscape.org/) -->

<svg
   width="25.059971mm"
   height="92.893036mm"
   viewBox="0 0 25.059971 92.893037"
   version="1.1"
   id="svg1"
   xml:space="preserve"
   inkscape:version="1.3 (0e150ed, 2023-07-21)"
   sodipodi:docname="AA_Battery-front.svg"
   xmlns:inkscape="http://www.inkscape.org/namespaces/inkscape"
   xmlns:sodipodi="http://sodipodi.sourceforge.net/DTD/sodipodi-0.dtd"
   xmlns="http://www.w3.org/2000/svg"
   xmlns:svg="http://www.w3.org/2000/svg"><sodipodi:namedview
     id="namedview1"
     pagecolor="#505050"
     bordercolor="#ffffff"
     borderopacity="1"
     inkscape:showpageshadow="0"
     inkscape:pageopacity="0"
     inkscape:pagecheckerboard="1"
     inkscape:deskcolor="#505050"
     inkscape:document-units="mm"
     inkscape:zoom="0.65008588"
     inkscape:cx="-33.841683"
     inkscape:cy="179.97622"
     inkscape:current-layer="layer1" /><defs
     id="defs1" /><g
     inkscape:label="Layer 1"
     inkscape:groupmode="layer"
     id="layer1"
     transform="translate(-100.62935,-91.901367)"><path
       id="rect1"
       style="fill:#555555;fill-opacity:1;stroke-width:2.021;stroke-linejoin:round"
       d="m 109.95746,91.901367 c -0.53774,0 -0.97048,0.43275 -0.97048,0.970483 v 1.456242 h -7.38663 c -0.53773,0 -0.971,0.43275 -0.971,0.970483 v 84.653745 c 0,0.8454 0.32039,0.68268 0.32039,1.16789 0,0.48521 -0.32039,0.64258 -0.32039,1.21595 v 1.48776 c 0,0.53774 0.43327,0.97048 0.971,0.97048 h 23.11797 c 0.53774,0 0.971,-0.43274 0.971,-0.97048 v -1.48776 c 0,-0.57337 -0.32039,-0.73074 -0.32039,-1.21595 0,-0.48521 0.32039,-0.32249 0.32039,-1.16789 V 95.298575 c 0,-0.537733 -0.43326,-0.970483 -0.971,-0.970483 h -7.38715 V 92.87185 c 0,-0.537733 -0.43274,-0.970483 -0.97048,-0.970483 z" /></g></svg>
