<?xml version="1.0" encoding="UTF-8" standalone="no"?>
<!-- Created with Inkscape (http://www.inkscape.org/) -->

<svg
   width="102.85419mm"
   height="104.49258mm"
   viewBox="0 0 102.85419 104.49258"
   version="1.1"
   id="svg1"
   xml:space="preserve"
   inkscape:version="1.3 (0e150ed, 2023-07-21)"
   sodipodi:docname="ThinkPad_T14s_Gen_2_14_Lenovo-side.svg"
   xmlns:inkscape="http://www.inkscape.org/namespaces/inkscape"
   xmlns:sodipodi="http://sodipodi.sourceforge.net/DTD/sodipodi-0.dtd"
   xmlns="http://www.w3.org/2000/svg"
   xmlns:svg="http://www.w3.org/2000/svg"><sodipodi:namedview
     id="namedview1"
     pagecolor="#505050"
     bordercolor="#ffffff"
     borderopacity="1"
     inkscape:showpageshadow="0"
     inkscape:pageopacity="0"
     inkscape:pagecheckerboard="1"
     inkscape:deskcolor="#505050"
     inkscape:document-units="mm"
     inkscape:zoom="0.45968013"
     inkscape:cx="155.54294"
     inkscape:cy="302.38418"
     inkscape:current-layer="layer1" /><defs
     id="defs1" /><g
     inkscape:label="Layer 1"
     inkscape:groupmode="layer"
     id="layer1"
     transform="translate(-58.519352,-69.192647)"><path
       style="fill:#555555;fill-opacity:1"
       d="m 152.50279,173.08285 c 0.12461,-0.85568 4.42283,-2.1262 6.81106,-2.01331 1.68671,0.0797 1.70114,0.0744 1.92851,-0.71341 0.21107,-0.73132 0.18269,-5.0161 -0.19713,-29.76562 -0.0748,-4.87495 -0.25466,-17.55511 -0.39967,-28.17813 -0.39673,-29.065621 -0.72449,-42.778358 -1.02978,-43.083638 -0.4364,-0.436406 -1.56691,0.245338 -1.77771,1.072036 -0.18503,0.725664 0.15582,35.272082 0.74564,75.573312 0.23535,16.0807 0.23136,20.64045 -0.0182,20.79468 -0.17581,0.10866 -8.67704,0.27602 -18.89162,0.37193 -10.21459,0.0959 -32.62135,0.30592 -49.792812,0.46669 -17.171459,0.16078 -31.277519,0.34608 -31.3468,0.41178 -0.06928,0.0657 0.109313,0.55656 0.396875,1.09082 0.420729,0.78165 1.039576,1.24241 3.168674,2.35918 2.201909,1.15497 2.878894,1.38888 4.034896,1.39416 0.763984,0.003 1.389063,0.1254 1.389063,0.27093 0,0.33742 1.187081,0.3439 1.789527,0.01 0.28351,-0.15725 15.808162,-0.34533 40.543807,-0.4912 l 40.08438,-0.23638 0.48509,0.62349 c 0.65282,0.83909 1.95632,0.86604 2.07619,0.0429 z"
       id="path1" /></g></svg>
