<?xml version="1.0" encoding="UTF-8" standalone="no"?>
<!-- Created with Inkscape (http://www.inkscape.org/) -->

<svg
   xmlns:dc="http://purl.org/dc/elements/1.1/"
   xmlns:cc="http://creativecommons.org/ns#"
   xmlns:rdf="http://www.w3.org/1999/02/22-rdf-syntax-ns#"
   xmlns:svg="http://www.w3.org/2000/svg"
   xmlns="http://www.w3.org/2000/svg"
   xmlns:sodipodi="http://sodipodi.sourceforge.net/DTD/sodipodi-0.dtd"
   xmlns:inkscape="http://www.inkscape.org/namespaces/inkscape"
   width="4240.4521"
   height="1183.5851"
   viewBox="0 0 1121.953 313.1569"
   version="1.1"
   id="svg8"
   inkscape:version="0.92.4 (5da689c313, 2019-01-14)"
   sodipodi:docname="Currant_Peak-side.svg"
   inkscape:export-filename="G:\Pictures\My Pictures\Vectors and SVGs\Nature\Currant Peak.png"
   inkscape:export-xdpi="96"
   inkscape:export-ydpi="96">
  <defs
     id="defs2" />
  <sodipodi:namedview
     id="base"
     pagecolor="#505050"
     bordercolor="#666666"
     borderopacity="1.0"
     inkscape:pageopacity="0"
     inkscape:pageshadow="2"
     inkscape:zoom="0.12374369"
     inkscape:cx="2720.5558"
     inkscape:cy="1002.8992"
     inkscape:document-units="mm"
     inkscape:current-layer="layer1"
     showgrid="false"
     borderlayer="true"
     inkscape:showpageshadow="false"
     inkscape:pagecheckerboard="true"
     units="px"
     inkscape:window-width="1600"
     inkscape:window-height="837"
     inkscape:window-x="-8"
     inkscape:window-y="-8"
     inkscape:window-maximized="1"
     inkscape:snap-global="false"
     showguides="true"
     inkscape:guide-bbox="true"
     fit-margin-top="0"
     fit-margin-left="0"
     fit-margin-right="0"
     fit-margin-bottom="0" />
  <metadata
     id="metadata5">
    <rdf:RDF>
      <cc:Work
         rdf:about="">
        <dc:format>image/svg+xml</dc:format>
        <dc:type
           rdf:resource="http://purl.org/dc/dcmitype/StillImage" />
        <dc:title></dc:title>
      </cc:Work>
    </rdf:RDF>
  </metadata>
  <g
     inkscape:label="Layer 1"
     inkscape:groupmode="layer"
     id="layer1"
     transform="translate(-7.87767,24.943043)">
    <path
       style="opacity:1;fill:#ffffff;fill-opacity:1;fill-rule:nonzero;stroke:none;stroke:none;stroke-width:2.6009419;stroke-linecap:round;stroke-linejoin:round;stroke-miterlimit:4;stroke-dasharray:none;stroke-dashoffset:0;stroke-opacity:1;paint-order:normal"
       d="m 7.87767,288.21383 c 37.816295,-52.27546 54.705996,-69.99631 61.784261,-67.63687 7.078287,2.35941 10.224188,-1.57296 15.729514,-8.65124 5.505325,-7.07827 23.594255,-23.59425 33.031955,-24.38073 9.43771,-0.78647 18.08893,-11.01065 25.16721,-21.23483 7.07828,-10.22417 13.37008,-7.86476 22.80778,-17.30246 9.43771,-9.43769 29.09959,-22.80778 39.32377,-25.16721 10.22418,-2.35942 26.74016,-17.30245 37.75081,-20.44835 11.01065,-3.1459 0.78648,-3.1459 22.80778,-19.661876 22.02131,-16.515981 31.45901,-27.526636 38.53729,-28.313114 7.07828,-0.786478 14.94303,-18.875409 28.31311,-33.031961 13.37008,-14.1565571 26.74016,-23.5942623 29.88606,-29.0995874 3.14591,-5.5053256 7.07828,-5.5053256 12.5836,-8.6512266 5.50533,-3.145902 14.5498,-11.797128 20.05513,-9.044468 5.50532,2.752665 8.25799,7.471517 9.4377,11.010655 1.1797,3.539138 1.1797,0.786478 7.47151,7.078276 l 8.25799,8.2579903 c 0,0 -0.78648,-4.3256108 1.17971,-7.4715123 1.9662,-3.1459016 5.50532,-8.25799 9.83094,-7.078276 4.32562,1.179709 5.50533,4.3256108 9.04447,2.75266 3.53914,-1.572951 8.25799,-3.932374 9.4377,-7.471512 1.17972,-3.539138 11.01065,-3.145902 15.33627,-1.966187 4.32562,1.179709 7.86476,1.966187 11.01065,3.932374 3.1459,1.966187 5.1121,5.112089 8.65122,8.6512266 3.53915,3.539138 6.29181,5.5053251 7.47153,8.6512267 1.17971,3.1459016 11.01066,4.7188526 14.54978,6.2918036 3.53914,1.57295 12.58361,5.5053301 16.12275,4.7188521 3.53914,-0.786473 1.57296,0.786478 6.68503,3.145901 5.1121,2.359434 4.32563,6.685035 9.83094,7.078282 5.50536,0.393231 4.71889,5.112083 8.25799,5.898556 3.53915,0.786478 40.11027,16.909227 46.00884,20.055124 5.89857,3.145896 9.43767,-0.393231 13.37004,0.786478 3.93241,1.179709 21.23487,9.437699 24.77397,7.078281 3.53915,-2.359434 12.58362,-3.539143 18.8754,-1.572956 6.29183,1.966187 10.2242,4.718852 13.37009,3.932374 3.14589,-0.786478 8.65125,2.75266 15.72951,4.718847 7.0783,1.966188 7.86478,-3.145896 10.6174,-1.57294 2.75269,1.57294 7.47152,3.539128 10.61741,2.359418 3.14595,-1.179709 7.86478,-5.505325 13.37009,-1.966187 5.50536,3.539143 11.40388,1.179709 20.05514,9.830947 8.6512,8.651221 62.1315,31.065771 81.40017,37.750811 19.26866,6.68503 91.62436,47.97498 116.7916,53.48031 25.16718,5.50533 63.70445,43.25614 77.86102,58.19918 14.1566,14.94303 10.2242,-34.60492 41.6832,7.86475 31.4591,42.46965 77.0746,58.19917 77.0746,58.19917 z"
       id="path839"
       inkscape:connector-curvature="0"
       sodipodi:nodetypes="cccsssccssscssssccssccsccccsccsccscsccscsssscc" />
  </g>
</svg>
