<?xml version="1.0" encoding="UTF-8" standalone="no"?>
<!-- Created with Inkscape (http://www.inkscape.org/) -->

<svg
   xmlns:dc="http://purl.org/dc/elements/1.1/"
   xmlns:cc="http://creativecommons.org/ns#"
   xmlns:rdf="http://www.w3.org/1999/02/22-rdf-syntax-ns#"
   xmlns:svg="http://www.w3.org/2000/svg"
   xmlns="http://www.w3.org/2000/svg"
   xmlns:sodipodi="http://sodipodi.sourceforge.net/DTD/sodipodi-0.dtd"
   xmlns:inkscape="http://www.inkscape.org/namespaces/inkscape"
   width="3629.8477"
   height="666.36035"
   viewBox="0 0 960.39725 176.30785"
   version="1.1"
   id="svg8"
   inkscape:version="0.92.4 (5da689c313, 2019-01-14)"
   sodipodi:docname="Denali.svg"
   inkscape:export-filename="G:\Pictures\My Pictures\Vectors and SVGs\Nature\Denali.png"
   inkscape:export-xdpi="96"
   inkscape:export-ydpi="96">
  <defs
     id="defs2" />
  <sodipodi:namedview
     id="base"
     pagecolor="#505050"
     bordercolor="#666666"
     borderopacity="1.0"
     inkscape:pageopacity="0"
     inkscape:pageshadow="2"
     inkscape:zoom="0.24748737"
     inkscape:cx="1776.1327"
     inkscape:cy="184.36385"
     inkscape:document-units="mm"
     inkscape:current-layer="layer1"
     showgrid="false"
     borderlayer="true"
     inkscape:showpageshadow="false"
     inkscape:pagecheckerboard="true"
     units="px"
     inkscape:window-width="1600"
     inkscape:window-height="837"
     inkscape:window-x="-8"
     inkscape:window-y="-8"
     inkscape:window-maximized="1"
     inkscape:snap-global="false"
     showguides="true"
     inkscape:guide-bbox="true"
     fit-margin-top="0"
     fit-margin-left="0"
     fit-margin-right="0"
     fit-margin-bottom="0" />
  <metadata
     id="metadata5">
    <rdf:RDF>
      <cc:Work
         rdf:about="">
        <dc:format>image/svg+xml</dc:format>
        <dc:type
           rdf:resource="http://purl.org/dc/dcmitype/StillImage" />
        <dc:title></dc:title>
      </cc:Work>
    </rdf:RDF>
  </metadata>
  <g
     inkscape:label="Layer 1"
     inkscape:groupmode="layer"
     id="layer1"
     transform="translate(-2.6659871,-118.8876)">
    <path
       style="opacity:1;fill:#ffffff;fill-opacity:1;fill-rule:nonzero;stroke:none;stroke:none;stroke-width:10.50697613;stroke-linecap:round;stroke-linejoin:round;stroke-miterlimit:4;stroke-dasharray:none;stroke-dashoffset:0;stroke-opacity:1;paint-order:normal"
       d="m 2141.3047,6.8203125 c -0.9642,0.010969 -1.8155,0.1175108 -2.5176,0.328125 -5.6163,1.6849134 -10.6694,1.6830459 -17.9707,8.9843745 -7.3013,7.301292 -9.5483,11.233689 -16.8496,14.603516 -7.3013,3.369827 -22.4667,16.849152 -27.5215,19.095703 -5.0548,2.246551 -12.3555,10.671875 -12.3555,10.671875 0,0 -8.9866,-7.302277 -21.9043,-9.548828 -12.9176,-2.246551 -20.7796,1.122642 -28.6425,-1.685547 -7.863,-2.808189 -20.2198,-7.862419 -24.7129,-7.300781 -4.4932,0.561638 -14.6023,-2.807908 -16.2871,-6.177734 -1.685,-3.369827 -2.2467,5.055549 -8.9864,5.617187 -6.7396,0.561638 -26.9584,3.369193 -39.3144,-1.685547 -12.3561,-5.054778 -41.0008,-24.71289 -46.6172,-24.71289 -5.6164,0 -15.1625,0.0015 -17.9707,2.248046 -2.8082,2.246552 -8.9876,-2.809279 -12.3574,0.560547 -3.3699,3.369865 -7.8633,-2.808151 -12.918,0 -5.0547,2.808227 -34.8204,13.478602 -43.8066,22.464844 -8.9863,8.986205 -4.4932,0.5628 -28.0821,13.480469 -23.5888,12.917707 -43.8078,19.096389 -52.2324,15.726562 -8.4246,-3.369826 -8.6619,-2.499443 -13.4805,2.246094 -32.2618,31.772972 -39.3141,46.054002 -50.5468,49.423832 -11.2328,3.36982 -41.5602,34.82261 -52.793,42.68554 -11.2328,7.86297 -15.7269,14.60252 -23.5898,10.10938 -7.863,-4.49307 -34.8214,-6.73966 -39.3145,0 -4.4931,6.73969 -16.8484,25.83421 -22.4648,24.71094 -5.6164,-1.12328 -13.4808,-5.61538 -21.3438,4.49414 -7.8629,10.10948 -26.9586,6.73873 -38.1914,4.49218 -11.2328,-2.24651 -11.2316,14.60283 -24.7109,17.97266 -13.4793,3.36983 -34.8229,5.61559 -41.5625,13.47852 -6.7397,7.86292 -24.712,1.12385 -29.2051,6.74023 -4.4931,5.61642 -16.8493,-3.5e-4 -28.082,-7.86328 -11.2328,-7.86297 -25.8354,-10.10788 -38.1915,-7.86133 -12.356,2.24659 -13.4799,4.49314 -25.8359,0 -12.3561,-4.4931 -11.0025,6.20788 -21.3281,-0.14648 -10.3256,-6.35422 -19.8561,-4.7657 -32.5645,4.76562 -12.7084,9.53137 -40.462,33.57054 -53.9414,32.44727 -13.4793,-1.12332 -44.9304,31.45163 -60.6562,29.20507 -15.7259,-2.24655 -86.4924,17.97326 -104.46487,5.61719 -17.97244,-12.35607 -56.16381,53.9182 -76.38281,52.79492 -20.219,-1.12331 -103.34246,64.02654 -119.06836,58.41016 -15.72589,-5.61642 -135.91689,86.4914 -169.61523,61.7793 -33.69831,-24.71214 -78.62816,-30.32815 -101.09375,-11.23242 -22.46555,19.09568 -34.82158,15.726 -38.19141,28.08203 -3.36982,12.35607 -46.05525,19.09545 -71.89062,39.31445 -25.83549,20.219 -68.52077,41.5619 -90.98633,53.91797 -22.46554,12.35607 -86.69911,-11.97345 -100.9961,8.67773 -14.29701,20.65123 -60.36496,49.2454 -93.7246,55.59961 -33.359653,6.35422 -115.964848,23.82813 -115.964848,23.82813 H 3639.9238 c 0,0 -65.0257,-70.13394 -91.9843,-83.61328 -26.959,-13.47931 -42.6833,-53.91685 -62.9024,-40.4375 -20.2191,13.47934 -98.8487,-49.42429 -132.5469,-47.17774 -33.6985,2.24659 -114.5755,-20.21854 -146.0273,-40.4375 -31.4518,-20.21903 -98.848,-22.46542 -134.793,-29.20508 -35.9449,-6.73965 -96.5553,-22.82873 -109.2637,-30.77148 -12.7084,-7.94275 -28.5956,-7.94197 -33.3613,-13.50195 -4.7657,-5.55992 -47.6567,-13.50448 -60.3652,-21.44727 -12.7084,-7.94275 -33.3586,-16.67901 -51.627,-20.65039 -18.2683,-3.97138 -30.9765,-0.79363 -35.7422,-3.9707 -4.7656,-3.17711 -8.7375,-12.7083 -17.4746,-14.29688 -8.7371,-1.58853 -7.149,5.55998 -15.0918,-2.38281 -7.9427,-7.94275 -19.6739,-13.73101 -23.6054,-20.4707 -3.9315,-6.73966 -3.9321,-7.30079 -11.7949,-7.30079 -7.863,0 -10.6706,1.68411 -17.4102,-5.61718 -6.7397,-7.30129 -34.2601,-16.85019 -37.0684,-23.58985 -2.8082,-6.73965 -11.2328,-15.16277 -33.1367,-30.88867 -21.9039,-15.72589 -70.7666,-36.50639 -80.3144,-48.30078 -9.5479,-11.79443 -12.917,-16.28797 -17.4102,-16.84961 -4.4931,-0.56164 -8.9862,-15.16473 -38.1914,-30.89062 -29.2052,-15.7259 -63.4659,-28.64358 -67.959,-33.13672 -4.4931,-4.4931 -3.9301,-6.17682 -15.7246,-10.669924 -11.7944,-4.493103 -16.2887,-12.357141 -27.5215,-18.535157 -11.2328,-6.178053 -15.7254,-14.041244 -21.3418,-12.917968 -5.6164,1.123275 -11.2338,-6.176873 -18.5351,-5.615235 -7.3013,0.561638 -7.8612,3.368965 -12.916,-0.5625 -5.0547,-3.931502 -9.5477,-8.42469 -15.1641,-8.986328 -5.6164,-0.561638 -5.0564,-3.369545 -6.1797,-6.177734 -1.1233,-2.808189 -8.9864,-5.054283 -12.918,-2.246094 -3.9314,2.808189 -8.4226,1.122132 -14.039,5.615234 -5.6164,4.493103 -45.493,0.563187 -56.1641,-2.80664 -10.6711,-3.369827 -3.9316,-1.685547 -3.9316,-1.685547 0,0 -17.973,-4.492997 -25.836,-10.109375 -7.8629,-5.616378 -19.6579,-10.671594 -25.8359,-16.84961 -5.4058,-5.405796 -17.6918,-9.9517854 -24.4414,-9.8749995 z"
       transform="matrix(0.26458333,0,0,0.26458333,0,117.08331)"
       id="path842"
       inkscape:connector-curvature="0" />
  </g>
</svg>
