<?xml version="1.0" encoding="UTF-8" standalone="no"?>
<!-- Created with Inkscape (http://www.inkscape.org/) -->

<svg
   width="159.26779mm"
   height="62.514645mm"
   viewBox="0 0 159.26779 62.514645"
   version="1.1"
   id="svg1"
   xml:space="preserve"
   inkscape:version="1.3 (0e150ed, 2023-07-21)"
   sodipodi:docname="Mauna_Kea_with_water_line-front.svg"
   xmlns:inkscape="http://www.inkscape.org/namespaces/inkscape"
   xmlns:sodipodi="http://sodipodi.sourceforge.net/DTD/sodipodi-0.dtd"
   xmlns="http://www.w3.org/2000/svg"
   xmlns:svg="http://www.w3.org/2000/svg"><sodipodi:namedview
     id="namedview1"
     pagecolor="#505050"
     bordercolor="#ffffff"
     borderopacity="1"
     inkscape:showpageshadow="0"
     inkscape:pageopacity="0"
     inkscape:pagecheckerboard="1"
     inkscape:deskcolor="#505050"
     inkscape:document-units="mm"
     inkscape:zoom="0.91936027"
     inkscape:cx="293.13862"
     inkscape:cy="219.718"
     inkscape:current-layer="layer1" /><defs
     id="defs1"><rect
       x="419.52423"
       y="726.86383"
       width="255.58888"
       height="214.79877"
       id="rect48" /><rect
       x="419.52423"
       y="726.86383"
       width="255.58888"
       height="214.79877"
       id="rect49" /><rect
       x="419.52423"
       y="726.86383"
       width="255.58888"
       height="214.79877"
       id="rect50" /></defs><g
     inkscape:label="Layer 1"
     inkscape:groupmode="layer"
     id="layer1"
     transform="translate(-32.230591,-156.63012)"><path
       id="path1"
       style="fill:#ffffff;stroke:none;stroke:none;stroke-width:1.4;stroke-linecap:round;stroke-linejoin:round"
       d="m 130.91449,156.63437 c -2.38516,0.09 -3.43663,1.47255 -4.12533,1.44125 -0.68871,-0.0313 -0.85633,0.89742 -2.38177,1.89394 -1.52544,0.99653 -1.55159,2.17764 -3.77341,4.10621 -2.22183,1.92858 -4.71601,1.54154 -6.48332,3.41065 -1.76732,1.86911 -1.71869,1.0276 -3.15588,2.85047 -1.43721,1.82287 -2.18655,2.90541 -2.75539,3.54759 -0.56883,0.64217 -0.67962,1.5126 -2.22312,2.77244 -1.54349,1.25985 -3.1181,3.87765 -4.53616,5.3113 -0.46337,0.46846 -0.95994,0.96546 -1.44849,1.45418 0.18576,-0.009 0.37991,-0.004 0.58033,0.0129 -7.440845,11.90324 -14.881835,23.80623 -22.322672,35.70945 h 3.349666 c 7.298829,-11.67704 14.597513,-23.35441 21.896336,-35.03145 0.21165,-0.75949 0.85816,-0.7342 1.52187,-0.678 -7.440201,11.90323 -14.880393,23.80624 -22.320598,35.70945 h 3.349666 c 7.298831,-11.67704 14.597502,-23.35441 21.896342,-35.03145 0.21165,-0.75949 0.85816,-0.7342 1.52187,-0.678 -7.44022,11.90323 -14.880392,23.80624 -22.320604,35.70945 h 3.347599 c 7.299446,-11.67707 14.598955,-23.35438 21.898405,-35.03145 0.21167,-0.75947 0.85816,-0.7342 1.52187,-0.678 -7.44083,11.90324 -14.881832,23.80623 -22.322668,35.70945 h 3.349667 c 5.010255,-8.01565 10.020781,-16.03138 15.031121,-24.04711 l -0.14779,-1.10691 h 0.83974 c 2.05799,-3.29243 4.11584,-6.58502 6.17378,-9.87743 0.21164,-0.75949 0.85765,-0.7342 1.52136,-0.678 -2.19929,3.51855 -4.39877,7.03694 -6.59805,10.55543 h 1.83658 1.17719 0.33641 c 2.05799,-3.29243 4.11584,-6.58502 6.17379,-9.87743 0.21165,-0.75949 0.85765,-0.7342 1.52135,-0.678 -2.19929,3.51855 -4.39876,7.03694 -6.59805,10.55543 h 2.22726 0.35915 0.76378 c 2.05799,-3.29243 4.11583,-6.58502 6.17378,-9.87743 0.21165,-0.75949 0.85765,-0.7342 1.52136,-0.678 -2.19947,3.51853 -4.39909,7.03695 -6.59857,10.55543 h 1.52239 0.77928 1.048 c 2.05813,-3.29244 4.11617,-6.585 6.1743,-9.87743 0.21167,-0.75947 0.85817,-0.7342 1.52187,-0.678 -2.19947,3.51853 -4.39909,7.03695 -6.59856,10.55543 h 3.34966 c 2.05814,-3.29244 4.11617,-6.585 6.1743,-9.87743 0.21146,-0.75867 0.85645,-0.7348 1.51981,-0.678 -2.1993,3.51855 -4.39877,7.03694 -6.59805,10.55543 h 0.40411 0.76326 2.18281 c 2.05799,-3.29243 4.11583,-6.58502 6.17379,-9.87743 0.21163,-0.75949 0.85764,-0.7342 1.52135,-0.678 -2.19929,3.51855 -4.39876,7.03694 -6.59805,10.55543 h 2.07378 0.51986 0.75655 l 6.17378,-9.87743 c 0.21164,-0.75949 0.85764,-0.7342 1.52135,-0.678 -2.19928,3.51855 -4.39877,7.03694 -6.59804,10.55543 h 1.1038 c 0.5777,0 1.13179,0.0805 1.64952,0.25167 0.12022,0.0382 0.23635,0.0882 0.35088,0.14107 2.13997,-3.42335 4.2798,-6.84683 6.41976,-10.27017 0.21167,-0.75947 0.85766,-0.7342 1.52136,-0.678 -2.38844,3.82084 -4.777,7.64158 -7.16546,11.46235 0.1205,0.11097 0.2337,0.22991 0.33332,0.36019 0.4247,0.53877 0.59014,1.21797 0.59014,1.91409 0,0.68763 -0.1707,1.35994 -0.57206,1.9017 -0.0995,0.1368 -0.2321,0.24334 -0.35243,0.36173 l 0.24443,0.43202 c 3.28266,-5.25137 6.56532,-10.50276 9.84798,-15.75408 0.21168,-0.75947 0.85764,-0.7342 1.52135,-0.678 -3.6161,5.78473 -7.23232,11.56935 -10.84843,17.35398 l 1.22473,2.1668 h -2.57917 c -3.37329,5.39617 -6.74654,10.79242 -10.1198,16.18867 h 3.35019 c 7.29882,-11.67704 14.5975,-23.35441 21.89633,-35.03145 0.21165,-0.75949 0.85765,-0.7342 1.52136,-0.678 -7.44021,11.90323 -14.88039,23.80624 -22.3206,35.70945 h 3.35018 c 7.29883,-11.67704 14.59751,-23.35441 21.89634,-35.03145 0.21165,-0.75949 0.85764,-0.7342 1.52135,-0.678 -7.44021,11.90323 -14.88041,23.80624 -22.3206,35.70945 h 3.35018 c 7.29884,-11.67704 14.59751,-23.35441 21.89634,-35.03145 0.21165,-0.75949 0.85767,-0.7342 1.52135,-0.678 -7.44083,11.90324 -14.88183,23.80623 -22.32266,35.70945 h 3.35018 c 7.29452,-11.6692 14.5894,-23.33848 21.88394,-35.00768 -0.21672,-0.52045 -0.44872,-0.92495 -0.70332,-1.10536 -1.0349,-0.73335 -1.7873,-1.82866 -2.73782,-3.77393 -0.95053,-1.94528 -1.78921,-2.57369 -3.90157,-4.41782 -2.11238,-1.84411 -2.51007,-2.12734 -3.92689,-3.01325 -1.41681,-0.88591 -1.91491,-1.65811 -3.54139,-3.58221 -1.62648,-1.9241 -3.91868,-3.85214 -4.93665,-4.74286 -1.01798,-0.89071 -1.61226,-0.6614 -3.87521,-0.81856 -2.26294,-0.15716 -3.19147,-2.09312 -5.82187,-2.28565 -2.63041,-0.19252 -4.19719,-1.05404 -4.61057,-1.77508 -0.41338,-0.72104 -2.86932,-2.07789 -5.25446,-1.98799 z m -32.442981,28.46854 c -0.54164,0.63468 -1.098432,1.33024 -1.69447,2.20969 -1.214748,1.79236 -3.449005,3.15287 -5.366081,3.72742 -5.856239,9.36834 -11.712708,18.7364 -17.568954,28.10474 h 3.349667 c 7.09325,-11.34721 14.186582,-22.69465 21.279838,-34.04185 z m 72.136161,0.17622 c -7.05665,11.28867 -14.11363,22.57697 -21.17028,33.86563 h 3.35018 c 6.31141,-10.09646 12.62284,-20.19316 18.93425,-30.28962 -0.35266,-0.8821 -0.71352,-2.30855 -1.11415,-3.57601 z m -89.036422,4.43642 c -0.333194,-0.0174 -0.642994,-0.0139 -0.920874,0.015 -0.661439,0.0689 -1.427479,0.33993 -2.2071,0.71158 -5.980323,9.56762 -11.960702,19.13502 -17.941024,28.70264 h 3.349667 c 6.118025,-9.78793 12.235891,-19.57618 18.353918,-29.3641 -0.214096,-0.024 -0.435385,-0.0547 -0.634587,-0.0651 z m 90.634262,0.11937 c -6.10682,9.77001 -12.21401,19.53983 -18.32085,29.30984 h 3.35019 c 5.47149,-8.75358 10.943,-17.50734 16.4145,-26.26093 -0.51475,-1.35016 -0.98315,-2.24476 -1.44384,-3.04891 z m -88.999736,0.10284 c -6.085406,9.73575 -12.170844,19.47126 -18.25625,29.207 h 3.349666 c 5.951916,-9.52218 11.903842,-19.04455 17.855758,-28.56673 -1.012373,-0.25947 -1.926708,-0.46188 -2.949174,-0.64027 z m 3.900537,0.8754 c -5.903054,9.44401 -11.80646,18.8876 -17.709513,28.3316 h 3.347599 c 5.80035,-9.27893 11.600653,-18.55814 17.401005,-27.83706 -0.3922,0.0412 -0.761609,0.0519 -1.068152,-0.008 -0.4649,-0.0913 -1.298148,-0.31294 -1.970939,-0.48679 z m -10.366809,0.60048 c -1.222643,0.81162 -2.322049,1.77487 -2.901115,2.58434 -1.199237,1.67639 -0.991797,2.7511 -2.077393,3.53622 -0.660801,0.4779 -2.195127,1.26767 -3.504178,2.09134 -4.067252,6.50645 -8.134588,13.01277 -12.20184,19.51922 h 3.349667 c 5.778284,-9.24363 11.556575,-18.48749 17.334859,-27.73112 z m 97.304658,2.59467 c -5.23729,8.37887 -10.47494,16.75758 -15.71222,25.13645 h 3.35018 c 4.59044,-7.34401 9.18082,-14.68823 13.77125,-22.03224 -0.49325,-0.84708 -0.9326,-1.68814 -1.18855,-2.47634 -0.0761,-0.23445 -0.14643,-0.41172 -0.22066,-0.62787 z m -63.00288,1.01493 0.92088,6.90035 h 1.61902 l 0.40204,-2.13785 c 0.0424,-0.21873 0.0777,-0.44085 0.10594,-0.66663 0.0282,-0.22578 0.0527,-0.44082 0.0739,-0.64544 h 0.032 c 0.0141,0.20462 0.0386,0.41966 0.0739,0.64544 0.0353,0.22578 0.0745,0.4479 0.11679,0.66663 l 0.40205,2.13785 h 1.67224 l 0.84646,-6.90035 h -1.5136 l -0.19017,3.67264 c -0.007,0.1905 -0.0141,0.37724 -0.0212,0.56069 0,0.18345 -0.004,0.37399 -0.0109,0.57154 0,0.1905 -0.003,0.3914 -0.0103,0.60307 h -0.0424 c -0.0282,-0.21167 -0.0636,-0.41257 -0.10593,-0.60307 -0.0423,-0.19755 -0.081,-0.38809 -0.11628,-0.57154 -0.0353,-0.18345 -0.0739,-0.37019 -0.11627,-0.56069 l -0.43408,-1.9265 h -0.99477 l -0.46561,1.9265 c -0.0353,0.1905 -0.0744,0.38104 -0.11678,0.57154 l -0.12661,0.57154 c -0.0353,0.18345 -0.0674,0.38055 -0.0956,0.59222 h -0.0424 c 0,-0.21167 -0.003,-0.40877 -0.0103,-0.59222 0,-0.19049 -0.004,-0.37776 -0.0109,-0.5612 -0.007,-0.1905 -0.0103,-0.38432 -0.0103,-0.58188 l -0.21187,-3.67264 z m 8.55142,0 -2.14871,6.90035 h 1.5875 l 0.42272,-1.64021 h 2.08101 l 0.41754,1.64021 h 1.65106 l -2.1487,-6.90035 z m 4.43435,0 v 1.31258 h 2.06344 v 5.58777 h 1.56632 v -5.58777 h 2.06395 v -1.31258 z m 6.99544,0 v 6.90035 h 4.67775 v -1.31206 h -3.11143 v -1.5875 h 2.55074 v -1.30173 h -2.55074 v -1.38648 h 3.0055 v -1.31258 z m 6.11694,0 v 6.90035 h 1.55598 v -2.48718 h 0.81649 l 1.32136,2.48718 h 1.74615 l -1.56373,-2.76675 c 0.35522,-0.16165 0.64615,-0.39068 0.86558,-0.69402 0.24695,-0.33161 0.37001,-0.76171 0.37001,-1.29088 0,-0.54327 -0.12306,-0.97061 -0.37001,-1.28105 -0.23988,-0.3175 -0.56108,-0.53963 -0.96325,-0.66663 -0.40216,-0.13405 -0.84693,-0.20102 -1.33377,-0.20102 z m -16.66823,1.18546 h 0.0419 c 0.0847,0.35983 0.17665,0.73384 0.27543,1.12189 0.0988,0.38806 0.19025,0.75499 0.27492,1.10071 l 0.16175,0.63459 h -1.45728 l 0.1633,-0.63459 c 0.0917,-0.34572 0.18372,-0.71265 0.27544,-1.10071 0.0917,-0.38805 0.17991,-0.76206 0.26458,-1.12189 z m 18.22421,0.0527 h 0.76223 c 0.40922,0 0.71954,0.067 0.93121,0.20102 0.21872,0.13405 0.32814,0.37085 0.32814,0.70951 0,0.33867 -0.10942,0.59617 -0.32814,0.77257 -0.21167,0.16933 -0.52199,0.25373 -0.93121,0.25373 h -0.76223 z m -28.49283,0.28318 c -4.7088,7.53332 -9.41745,15.06677 -14.126274,22.60017 h 3.349666 c 3.788648,-6.06126 7.577508,-12.12257 11.366228,-18.1839 z m 65.79598,1.45211 c -4.40632,7.04943 -8.81304,14.09863 -13.21935,21.14806 h 3.34812 c 3.86174,-6.1777 7.72359,-12.35553 11.58534,-18.53323 -0.55038,-0.81569 -1.13909,-1.70345 -1.71411,-2.61483 z m 2.26808,3.48506 c -3.68049,5.88774 -7.36121,11.77526 -11.04171,17.663 h 3.34967 c 3.13802,-5.01994 6.27588,-10.0401 9.4139,-15.06006 -0.34457,-0.38562 -0.6863,-0.8407 -1.05937,-1.53737 -0.16553,-0.3091 -0.42633,-0.69792 -0.66249,-1.06557 z m -112.355934,0.14056 c -1.117984,0.86587 -3.498709,1.23129 -5.722132,4.01732 -0.175253,0.2196 -0.333969,0.38067 -0.504879,0.58602 -2.691976,4.30639 -5.384016,8.61271 -8.075992,12.9191 h 3.349666 c 3.651116,-5.84075 7.302219,-11.68169 10.953337,-17.52244 z m 45.074254,0.78548 c -3.48718,5.57891 -6.97419,11.15798 -10.46138,16.73696 h 3.34967 c 3.3729,-5.39614 6.74577,-10.79247 10.11876,-16.18867 h -0.0605 -1.96939 -0.90382 z m 4.10362,0.54829 c -3.37327,5.39617 -6.74655,10.79242 -10.11979,16.18867 h 3.34966 c 3.37323,-5.3962 6.74657,-10.79243 10.1198,-16.18867 h -0.99426 -0.0703 -1.33221 z m 4.44728,0 c -3.37329,5.39617 -6.74654,10.79242 -10.1198,16.18867 h 3.34967 c 3.37321,-5.3962 6.74657,-10.79243 10.11979,-16.18867 h -1.73529 -1.31827 z m 4.44624,0 c -3.37295,5.39616 -6.7458,10.79244 -10.11877,16.18867 h 3.34967 c 3.37291,-5.39614 6.74579,-10.79247 10.11876,-16.18867 h -1.24127 -1.03249 -0.0517 z m 4.44727,0 c -3.37295,5.39616 -6.7458,10.79244 -10.11876,16.18867 h 3.34966 l 10.11877,-16.18867 h -0.75655 -1.03249 -1.3007 z m 4.44727,0 c -3.37294,5.39616 -6.7458,10.79244 -10.11876,16.18867 h 3.34812 c 3.37322,-5.3962 6.74657,-10.79243 10.11979,-16.18867 h -0.11885 z m 4.44624,0 c -3.37327,5.39617 -6.74653,10.79242 -10.11979,16.18867 h 3.35018 c 3.37323,-5.3962 6.74657,-10.79243 10.1198,-16.18867 h -0.46044 -0.48472 z m 43.35188,1.78749 c -3.00082,4.80043 -6.00173,9.60074 -9.00255,14.40118 h 3.34966 c 2.65155,-4.24206 5.30302,-8.48429 7.95456,-12.72635 -0.27949,-0.25284 -0.56108,-0.50361 -0.83199,-0.67748 -0.5774,-0.37057 -1.03894,-0.65927 -1.46968,-0.99735 z m 2.97915,2.34766 c -2.51143,4.01789 -5.02301,8.03563 -7.53443,12.05352 h 3.34967 c 2.01511,-3.22385 4.03001,-6.4479 6.04511,-9.67176 -0.45091,-0.70735 -1.11338,-1.58145 -1.86035,-2.38176 z M 56.464771,209.6213 c -1.137784,1.03024 -2.29645,1.94761 -3.612183,2.98483 -0.7784,0.61364 -1.667602,1.1598 -2.637565,1.65417 -1.017687,1.62815 -2.035358,3.2563 -3.053044,4.88445 h 3.350183 c 1.984217,-3.17444 3.96839,-6.349 5.952609,-9.52345 z m 129.563149,0.786 c -1.82046,2.91246 -3.64072,5.825 -5.46116,8.73745 h 3.3476 c 1.19271,-1.90801 2.38534,-3.81617 3.57807,-5.7242 -0.61371,-1.14409 -1.07912,-2.2287 -1.46451,-3.01325 z m 1.98644,3.93465 c -1.00078,1.60094 -2.00162,3.20184 -3.0024,4.8028 h 3.34967 c 0.52172,-0.8346 1.04357,-1.66912 1.56528,-2.50372 -0.31144,-0.40991 -0.65613,-0.81688 -1.02371,-1.17305 -0.32035,-0.31043 -0.61325,-0.70284 -0.88884,-1.12603 z m -139.335161,0.62011 c -1.270874,0.52267 -2.669684,0.96034 -4.175972,1.32137 -0.596167,0.95378 -1.192354,1.90754 -1.788522,2.86132 h 3.350184 c 0.87146,-1.39421 1.74285,-2.78849 2.61431,-4.18269 z m -5.430676,1.57303 c -0.613606,0.12523 -1.201504,0.26908 -1.846916,0.37052 -0.683873,0.10748 -1.316451,0.2505 -1.971972,0.38138 -0.387143,0.6193 -0.774544,1.23844 -1.161687,1.85776 h 3.349667 c 0.5437,-0.86984 1.087206,-1.73982 1.630908,-2.60966 z m 147.254057,0.94103 c -0.34772,0.55626 -0.69562,1.11237 -1.04334,1.66863 h 2.03915 c 0,0 -0.39781,-0.76204 -0.99581,-1.66863 z m -152.321448,0.0522 c -1.823514,0.40519 -2.917667,0.70873 -3.993038,1.02888 -0.122443,0.19587 -0.244976,0.39168 -0.367419,0.58756 h 3.349666 c 0.336847,-0.53886 0.673943,-1.07758 1.010791,-1.61644 z m -5.344377,1.43454 c -0.09836,0.0323 -0.606164,0.1819 -0.606164,0.1819 h 0.492476 c 0.0379,-0.0606 0.07579,-0.12127 0.113688,-0.1819 z" /></g></svg>
