<?xml version="1.0" encoding="UTF-8" standalone="no"?>
<!-- Created with Inkscape (http://www.inkscape.org/) -->

<svg
   xmlns:dc="http://purl.org/dc/elements/1.1/"
   xmlns:cc="http://creativecommons.org/ns#"
   xmlns:rdf="http://www.w3.org/1999/02/22-rdf-syntax-ns#"
   xmlns:svg="http://www.w3.org/2000/svg"
   xmlns="http://www.w3.org/2000/svg"
   xmlns:sodipodi="http://sodipodi.sourceforge.net/DTD/sodipodi-0.dtd"
   xmlns:inkscape="http://www.inkscape.org/namespaces/inkscape"
   width="2783.166"
   height="706.98785"
   viewBox="0 0 736.37938 187.05721"
   version="1.1"
   id="svg8"
   inkscape:version="0.92.4 (5da689c313, 2019-01-14)"
   sodipodi:docname="Mt_Everest_Nepal-front.svg"
   inkscape:export-filename="G:\Pictures\My Pictures\Vectors and SVGs\Nature\Denali.png"
   inkscape:export-xdpi="96"
   inkscape:export-ydpi="96">
  <defs
     id="defs2" />
  <sodipodi:namedview
     id="base"
     pagecolor="#000720"
     bordercolor="#666666"
     borderopacity="1.0"
     inkscape:pageopacity="0"
     inkscape:pageshadow="2"
     inkscape:zoom="0.24748737"
     inkscape:cx="1364.1216"
     inkscape:cy="113.98697"
     inkscape:document-units="mm"
     inkscape:current-layer="layer1"
     showgrid="false"
     borderlayer="true"
     inkscape:showpageshadow="false"
     inkscape:pagecheckerboard="true"
     units="px"
     inkscape:window-width="1600"
     inkscape:window-height="837"
     inkscape:window-x="-8"
     inkscape:window-y="-8"
     inkscape:window-maximized="1"
     inkscape:snap-global="false"
     showguides="true"
     inkscape:guide-bbox="true"
     fit-margin-top="0"
     fit-margin-left="0"
     fit-margin-right="0"
     fit-margin-bottom="0" />
  <metadata
     id="metadata5">
    <rdf:RDF>
      <cc:Work
         rdf:about="">
        <dc:format>image/svg+xml</dc:format>
        <dc:type
           rdf:resource="http://purl.org/dc/dcmitype/StillImage" />
        <dc:title></dc:title>
      </cc:Work>
    </rdf:RDF>
  </metadata>
  <g
     inkscape:label="Layer 1"
     inkscape:groupmode="layer"
     id="layer1"
     transform="translate(-119.73675,-128.08563)">
    <path
       style="opacity:1;fill:#555555;fill-opacity:1;fill-rule:nonzero;stroke:none;stroke-width:5;stroke-linecap:round;stroke-linejoin:round;stroke-miterlimit:4;stroke-dasharray:none;stroke-dashoffset:0;stroke-opacity:1;paint-order:markers stroke fill"
       d="m 483.75784,128.08563 c 1.5368,0 3.20725,3.20724 8.81991,5.87993 5.61266,2.6727 13.09619,4.81085 16.03616,6.41447 2.93997,1.60362 4.81086,2.93997 9.35445,2.6727 4.54358,-0.26727 10.95803,2.93996 13.898,4.81085 2.93997,1.87088 1.45804,-1.10914 7.31668,2.85961 5.85862,3.96875 5.85862,4.91369 7.18154,5.10268 1.32291,0.18899 2.45684,3.59077 3.77975,3.77976 1.32292,0.18899 4.15775,1.32292 6.42562,2.83482 2.26785,1.51191 5.85862,2.45685 7.37053,1.70089 1.51191,-0.75595 2.64583,0 6.99256,3.40179 4.34671,3.40178 7.74851,5.66964 14.1741,8.50446 6.42559,2.83482 9.8274,6.04762 13.22917,6.4256 3.40177,0.37797 2.45684,-0.75595 8.31548,-0.18899 5.85862,0.56696 7.55952,1.88988 10.58334,0.94494 3.02379,-0.94494 5.29166,-2.45684 8.12649,-1.13393 2.83482,1.32292 9.82736,7.74851 14.74107,10.96131 4.91369,3.2128 5.29167,-0.18899 8.88244,1.32292 3.59076,1.5119 2.26785,-0.56697 6.99256,0.56696 4.72469,1.13393 8.88244,-0.56696 10.39434,-2.07887 1.51191,-1.5119 5.10268,-0.18898 7.9375,-0.56696 2.83483,-0.37798 4.7247,-2.83482 6.99254,-2.83482 2.26788,0 1.51191,-0.18899 3.5908,-2.07887 2.07886,-1.88988 9.82736,-8.31548 12.09524,-8.31548 2.26785,0 9.63837,2.26786 11.71726,3.2128 2.07885,0.94494 5.85861,2.64583 8.50445,3.2128 2.64583,0.56696 4.91371,1.13393 5.85864,1.32291 0.94493,0.18899 4.34673,6.61459 8.88243,10.77233 4.53573,4.15773 11.71726,13.04017 13.98514,16.25297 2.26784,3.2128 5.10267,4.7247 6.80354,4.53572 1.7009,-0.18899 1.7009,0.18898 4.15775,2.83482 2.45684,2.64583 7.7485,8.88244 9.82739,9.07143 2.07886,0.18898 6.42559,1.88988 7.74851,4.34672 1.32291,2.45685 6.0476,6.04762 7.18155,6.23661 1.13393,0.18899 11.90625,2.45684 17.19792,6.23661 5.29167,3.77976 18.33184,23.8125 19.65476,23.8125 1.32292,0 25.51337,29.86012 30.42708,33.82887 4.91368,3.96875 7.18153,10.39434 7.18153,10.39434 H 119.73675 c 0,0 11.79896,-29.10416 17.46861,-32.88393 5.66964,-3.77976 15.875,-10.58333 20.41071,-11.33928 4.53572,-0.75595 7.9375,-9.44941 11.33929,-10.58334 3.40178,-1.13392 22.30059,-7.18154 23.8125,-10.58333 1.5119,-3.40178 7.55952,-4.15774 9.07143,-6.80357 1.5119,-2.64583 5.29166,-7.55953 8.69345,-9.07143 3.40178,-1.5119 15.49702,-4.53571 17.76488,-7.55952 2.26786,-3.02381 12.47321,-4.15774 13.98512,-5.29167 1.5119,-1.13393 9.82738,-1.51191 11.33928,-4.91369 1.51191,-3.40179 8.31548,-3.77976 10.20536,-6.80357 1.88987,-3.02381 4.91369,-9.44941 6.80358,-8.31548 1.88987,1.13393 5.66963,-7.55952 9.07143,-11.33928 3.40177,-3.77977 9.48325,-15.06421 13.22501,-15.33148 3.74177,-0.26727 6.94902,-0.26727 8.28535,1.06908 1.33636,1.33635 4.54358,-3.47451 7.48355,-2.93996 2.93997,0.53453 5.07812,2.13815 7.75081,2.40542 2.67272,0.26727 4.81087,-2.13816 6.1472,-4.81085 1.33636,-2.6727 4.54358,0.80181 6.1472,1.87088 1.60364,1.06908 3.4745,0.80181 5.07812,-0.26726 1.60364,-1.06908 2.40543,1.06907 5.3454,1.33634 2.93997,0.26727 4.00905,0.80181 5.61266,-0.26727 1.60361,-1.06907 5.3454,1.06908 6.68174,1.60362 1.33635,0.53454 1.33635,-1.60362 5.07812,-0.53454 3.74179,1.06908 17.63979,4.81085 22.71792,5.61266 5.07812,0.80181 12.56167,2.13816 15.7689,0.53454 3.20722,-1.60362 10.4235,-3.74177 12.82893,-2.40542 2.40543,1.33634 14.16529,-0.26728 16.83798,-2.6727 2.67268,-2.40542 3.74179,-1.87089 5.3454,-3.20723 1.60361,-1.33635 -0.26728,-2.40543 3.20723,-4.81086 3.4745,-2.40542 5.07812,-5.34539 9.88896,-8.01808 4.81086,-2.6727 7.21629,-5.61266 8.55263,-8.55263 1.33635,-2.93996 10.15624,-5.34539 12.82893,-8.28535 2.67271,-2.93997 10.95806,-7.48355 12.02713,-9.08717 1.06908,-1.60361 5.67948,-4.81085 7.21628,-4.81085 z"
       id="path843"
       inkscape:connector-curvature="0"
       sodipodi:nodetypes="zcssccccccsscsccccscsscsccccccsccccscccssccccscccccsccccccscccsccccsscccz" />
  </g>
</svg>
