<?xml version="1.0" encoding="UTF-8" standalone="no"?>
<!-- Created with Inkscape (http://www.inkscape.org/) -->

<svg
   xmlns:dc="http://purl.org/dc/elements/1.1/"
   xmlns:cc="http://creativecommons.org/ns#"
   xmlns:rdf="http://www.w3.org/1999/02/22-rdf-syntax-ns#"
   xmlns:svg="http://www.w3.org/2000/svg"
   xmlns="http://www.w3.org/2000/svg"
   xmlns:sodipodi="http://sodipodi.sourceforge.net/DTD/sodipodi-0.dtd"
   xmlns:inkscape="http://www.inkscape.org/namespaces/inkscape"
   width="4285.3398"
   height="652.98621"
   viewBox="0 0 1133.8296 172.76927"
   version="1.1"
   id="svg8"
   inkscape:version="0.92.4 (5da689c313, 2019-01-14)"
   sodipodi:docname="Mt_Rainier-side.svg"
   inkscape:export-filename="G:\Pictures\My Pictures\Vectors and SVGs\Nature\Mt Rainier.png"
   inkscape:export-xdpi="96"
   inkscape:export-ydpi="96">
  <defs
     id="defs2" />
  <sodipodi:namedview
     id="base"
     pagecolor="#000720"
     bordercolor="#666666"
     borderopacity="1.0"
     inkscape:pageopacity="0"
     inkscape:pageshadow="2"
     inkscape:zoom="0.175"
     inkscape:cx="1739.3356"
     inkscape:cy="254.73087"
     inkscape:document-units="mm"
     inkscape:current-layer="layer1"
     showgrid="false"
     borderlayer="true"
     inkscape:showpageshadow="false"
     inkscape:pagecheckerboard="true"
     units="px"
     inkscape:window-width="1600"
     inkscape:window-height="837"
     inkscape:window-x="-8"
     inkscape:window-y="-8"
     inkscape:window-maximized="1"
     inkscape:snap-global="false"
     showguides="true"
     inkscape:guide-bbox="true"
     fit-margin-top="0"
     fit-margin-left="0"
     fit-margin-right="0"
     fit-margin-bottom="0" />
  <metadata
     id="metadata5">
    <rdf:RDF>
      <cc:Work
         rdf:about="">
        <dc:format>image/svg+xml</dc:format>
        <dc:type
           rdf:resource="http://purl.org/dc/dcmitype/StillImage" />
        <dc:title></dc:title>
      </cc:Work>
    </rdf:RDF>
  </metadata>
  <g
     inkscape:label="Layer 1"
     inkscape:groupmode="layer"
     id="layer1"
     transform="translate(-1.9394456,-120.65702)">
    <path
       style="opacity:1;fill:#555555;fill-opacity:1;fill-rule:nonzero;stroke:none;stroke-width:4.38301849;stroke-linecap:round;stroke-linejoin:round;stroke-miterlimit:4;stroke-dasharray:none;stroke-dashoffset:0;stroke-opacity:1;paint-order:normal"
       d="m 804.78404,209.8675 c 12.89212,3.3796 18.74315,3.28005 34.67482,8.43442 15.93171,5.15437 61.38387,19.21174 68.41257,20.1489 7.0286,0.93715 2.34289,-1.40574 26.70898,5.15436 24.36608,6.56011 22.93011,13.37421 46.12368,16.68756 23.19341,3.31337 87.47241,9.27739 100.72591,15.24143 13.2534,5.96404 54.3389,17.89211 54.3389,17.89211 H 1.9394456 c 0,0 43.0735944,-19.88013 56.9896764,-22.5308 13.916083,-2.65069 53.013658,-11.92808 68.255088,-15.9041 15.24143,-3.97603 35.45287,-6.95804 41.74825,-10.27139 6.29537,-3.31336 41.08559,-16.56677 54.67033,-18.88612 13.58475,-2.31934 12.59074,-4.30736 20.54279,-7.95205 7.95204,-3.64468 15.24143,-9.94006 25.51281,-10.93406 10.2714,-0.99401 5.30138,-4.30736 21.86814,-8.61472 16.56676,-4.30735 30.81419,-8.94605 37.10955,-13.91608 6.29539,-4.97003 15.57277,-4.30736 26.1755,-10.60273 10.60272,-6.29538 33.13354,-15.9041 37.10958,-20.87413 3.97601,-4.97003 14.24739,-8.28338 17.22942,-11.59674 2.98201,-3.31335 15.57275,-6.6267 21.20545,-11.92807 5.6327,-5.30137 16.56678,-9.60873 31.80821,-8.61472 15.24142,0.99401 39.09756,7.28938 44.06759,5.96404 4.97004,-1.32534 16.23544,-4.30736 32.13952,-1.98802 15.90409,2.31935 41.08559,15.57277 54.00766,20.5428 12.92207,4.97002 50.36298,24.18748 53.345,24.51881 2.98202,0.33134 57.32101,15.57276 63.61637,14.24742 6.29538,-1.32534 12.59077,-5.6327 14.24742,-4.63869 1.6567,0.99401 3.97604,9.60872 6.29539,10.27139 2.31935,0.66268 15.57275,8.94606 23.85613,10.60273 8.28339,1.65668 33.20449,4.86972 51.04472,9.54645 z"
       id="path833"
       inkscape:connector-curvature="0"
       sodipodi:nodetypes="ssssscccsscsssscsccsssssscccss" />
  </g>
</svg>
