<?xml version="1.0" encoding="UTF-8" standalone="no"?>
<svg
   width="213.04686"
   height="160.18164"
   viewBox="0 0 213.04685 160.18164"
   version="1.1"
   id="svg8"
   sodipodi:docname="Group 1.svg"
   inkscape:version="1.3 (0e150ed, 2023-07-21)"
   xmlns:inkscape="http://www.inkscape.org/namespaces/inkscape"
   xmlns:sodipodi="http://sodipodi.sourceforge.net/DTD/sodipodi-0.dtd"
   xmlns="http://www.w3.org/2000/svg"
   xmlns:svg="http://www.w3.org/2000/svg">
  <defs
     id="defs8" />
  <sodipodi:namedview
     id="namedview8"
     pagecolor="#505050"
     bordercolor="#ffffff"
     borderopacity="1"
     inkscape:showpageshadow="0"
     inkscape:pageopacity="0"
     inkscape:pagecheckerboard="1"
     inkscape:deskcolor="#505050"
     inkscape:zoom="2.2057473"
     inkscape:cx="82.511719"
     inkscape:cy="83.418441"
     inkscape:current-layer="svg8" />
  <path
     id="path11"
     style="fill:#555555"
     d="M 36.384699,0 C 28.719333,0 23.509643,3.080664 20.523371,7.3378906 17.630726,11.461639 16.759209,16.452894 16.660089,20.822265 c 0,0.633633 -0.07813,2.409614 -0.07813,3.048828 -0.0053,1.671816 -0.008,4.065224 -0.0098,6.941407 -0.0036,5.752365 -9.01e-4,13.434791 0.0039,21.123047 0.0091,14.602605 0.02553,27.789855 0.02734,29.224609 -9.747071,-0.02426 -15.99392326,0.12789 -16.4745597,0.685547 -1.2949014,8.626062 7.5976563,6.971947 7.5976563,10.105468 v 29.355469 c 0,16.56845 13.4315404,30 29.9999994,30 h 5.320313 l 2.671875,8.875 h 16.365234 l 2.671875,-8.875 h 83.535158 l 2.67187,8.875 h 16.36523 l 2.67188,-8.875 h 5.72656 c 16.56849,0 30,-13.43155 30,-30 V 91.951171 c 0,-3.093863 8.5157,-1.109284 7.17774,-10.105468 -0.2818,-0.849613 -7.04048,-1.134781 -18.00391,-1.134766 -20.47247,3.8e-5 -55.60632,0.991165 -90.60156,1.134766 -2.80571,0.01151 -5.60796,0.01563 -8.404296,0.01563 -29.131935,0 -57.123944,-0.565821 -75.291015,-0.683594 -0.0018,-1.416453 -0.01819,-14.63243 -0.02734,-29.244141 -0.0048,-7.687418 -0.0075,-15.370127 -0.0039,-21.11914 0.0018,-2.874507 0.0098,-6.929688 0.0098,-6.929688 l 0.02344,-2.578125 c 0.04319,-3.951621 0.890453,-8.391638 3.191406,-11.6718744 2.300953,-3.2802355 5.934323,-5.6347656 12.587891,-5.6347656 6.708456,0 10.10854,2.0866439 12.710937,5.0566406 1.267155,1.4461434 2.301666,3.1594294 3.300781,4.9687494 l -0.970703,0.515625 c -6.827327,3.626295 -9.423166,12.100406 -5.796875,18.927735 L 75.650324,17.523437 C 72.02403,10.696111 63.549916,8.10027 56.722589,11.726562 l -0.761718,0.404297 C 54.891829,10.194103 53.683403,8.2250053 52.103449,6.421875 48.893626,2.7586551 43.995168,1.5e-8 36.384699,0 Z" />
</svg>
