<?xml version="1.0" encoding="UTF-8" standalone="no"?>
<!-- Created with Inkscape (http://www.inkscape.org/) -->

<svg
   version="1.1"
   id="svg1"
   width="429.94733"
   height="429.32431"
   viewBox="0 0 429.94733 429.32431"
   sodipodi:docname="SOCCERBALL.svg"
   inkscape:version="1.4 (86a8ad7, 2024-10-11)"
   xmlns:inkscape="http://www.inkscape.org/namespaces/inkscape"
   xmlns:sodipodi="http://sodipodi.sourceforge.net/DTD/sodipodi-0.dtd"
   xmlns="http://www.w3.org/2000/svg"
   xmlns:svg="http://www.w3.org/2000/svg">
  <defs
     id="defs1" />
  <sodipodi:namedview
     id="namedview1"
     pagecolor="#ffffff"
     bordercolor="#000000"
     borderopacity="0.25"
     inkscape:showpageshadow="2"
     inkscape:pageopacity="0.0"
     inkscape:pagecheckerboard="0"
     inkscape:deskcolor="#d1d1d1"
     inkscape:zoom="1.106"
     inkscape:cx="214.28571"
     inkscape:cy="214.73779"
     inkscape:window-width="1366"
     inkscape:window-height="705"
     inkscape:window-x="-8"
     inkscape:window-y="-8"
     inkscape:window-maximized="1"
     inkscape:current-layer="g1" />
  <g
     inkscape:groupmode="layer"
     inkscape:label="Image"
     id="g1"
     transform="translate(-35.099745,-35.543909)">
    <path
       style="fill:#ffffff;fill-opacity:1"
       d="m 235,463.94893 c -24.01214,-1.57094 -42.7444,-5.42528 -57.5,-11.83117 -1.1,-0.47754 -4.53234,-1.60501 -7.62743,-2.50547 -6.40375,-1.86308 -24.30658,-10.63853 -33.66221,-16.50027 C 109.22824,416.20649 83.877105,390.31843 65.898431,361.31092 55.444004,344.44333 41.456947,308.54738 39.085868,292.5 34.957463,264.55909 34.795151,262.43387 35.305352,243 35.966483,217.81709 38.824971,201.45847 46.33122,179.90092 55.639422,153.16826 66.62404,134.064 87.306178,108.63795 98.953692,94.318825 120.04287,76.352581 138.6491,64.898004 146.87774,59.832198 164.61727,51.773342 177,47.47565 c 18.87437,-6.550755 21.45889,-7.271565 34.5552,-9.637292 11.46575,-2.071181 15.91551,-2.33288 38.9448,-2.290415 22.41874,0.04134 27.64158,0.352173 37.91786,2.256657 14.90045,2.76147 18.02508,3.601829 28.58214,7.687065 4.675,1.809072 9.84848,3.599951 11.49663,3.97973 4.83719,1.114626 24.43148,10.476038 31.78455,15.185462 C 364.01083,67.045586 367.26009,69 367.50175,69 c 0.86452,0 17.12894,12.464784 23.99825,18.391862 14.46692,12.482557 31.85194,33.021198 42.6624,50.401318 11.45116,18.41016 23.3388,48.12108 26.28998,65.70682 4.41965,26.33627 5.71199,50.67207 3.61109,68 -3.07198,25.33731 -4.72025,32.44291 -12.87421,55.5 -2.68202,7.58399 -13.08541,28.53526 -16.98004,34.19591 -1.76507,2.56544 -3.21923,5.03336 -3.23146,5.48427 -0.0122,0.4509 -0.93029,1.94482 -2.04014,3.31982 -1.10984,1.375 -5.20358,6.775 -9.09718,12 -13.22283,17.74429 -33.14082,35.87619 -56.65229,51.57213 -7.22282,4.82187 -26.17099,14.02987 -33.06072,16.06612 -3.09509,0.91474 -9.00243,2.93887 -13.12743,4.49806 -9.6928,3.66374 -17.14654,5.53409 -29.5,7.40237 -8.68348,1.31325 -37.16295,3.65666 -40,3.29137 -0.55,-0.0708 -6.175,-0.46732 -12.5,-0.88112 z"
       id="path1" />
  </g>
</svg>
