<?xml version="1.0" encoding="UTF-8" standalone="no"?>
<!-- Created with Inkscape (http://www.inkscape.org/) -->

<svg
   width="2979.9214"
   height="452.75726"
   viewBox="0 0 788.43751 119.79202"
   version="1.1"
   id="svg1"
   xml:space="preserve"
   inkscape:version="1.3 (0e150ed, 2023-07-21)"
   sodipodi:docname="Colossal_Squid-side.svg"
   inkscape:export-filename="Colossal Squid.png"
   inkscape:export-xdpi="96"
   inkscape:export-ydpi="96"
   xmlns:inkscape="http://www.inkscape.org/namespaces/inkscape"
   xmlns:sodipodi="http://sodipodi.sourceforge.net/DTD/sodipodi-0.dtd"
   xmlns="http://www.w3.org/2000/svg"
   xmlns:svg="http://www.w3.org/2000/svg"><sodipodi:namedview
     id="namedview1"
     pagecolor="#505050"
     bordercolor="#ffffff"
     borderopacity="1"
     inkscape:showpageshadow="0"
     inkscape:pageopacity="0"
     inkscape:pagecheckerboard="1"
     inkscape:deskcolor="#505050"
     inkscape:document-units="mm"
     inkscape:zoom="0.20756133"
     inkscape:cx="1777.7878"
     inkscape:cy="366.15684"
     inkscape:window-width="1600"
     inkscape:window-height="837"
     inkscape:window-x="-8"
     inkscape:window-y="-8"
     inkscape:window-maximized="1"
     inkscape:current-layer="layer1" /><defs
     id="defs1" /><g
     inkscape:label="Layer 1"
     inkscape:groupmode="layer"
     id="layer1"
     transform="translate(-2.6561254,-2.2810957)"><path
       id="path9"
       style="fill:#ffffff;fill-opacity:1;stroke:none;stroke-width:6.61399;stroke-linecap:round;stroke-linejoin:round;stroke-opacity:1"
       d="m 506.6185,2.2944336 c 23.8679,-0.207803 46.4422,2.0111697 65.14848,6.7535929 37.41255,9.4848465 37.93985,3.1616455 90.10664,15.2812375 35.81236,6.836013 116.58168,29.306129 125.89671,32.286918 9.31502,2.980855 -0.74552,8.942804 -32.78921,16.022278 -32.04369,7.079408 -24.21911,6.706743 -40.61354,14.531413 -16.39445,7.824605 -42.10386,7.079234 -70.42155,-8.942607 -42.47651,28.317624 -87.93425,46.202454 -127.05736,43.594234 -39.1231,-2.60815 -78.24606,-30.926045 -86.81589,-36.142492 -3.01473,-1.835041 -4.34609,-3.72145 -4.64106,-5.859591 -3.06395,0.09814 -7.09335,0.440083 -11.62099,1.419035 -9.74835,2.107744 -13.43665,-4.215385 -11.06548,-6.323128 2.37124,-2.108009 2.37092,-1.580995 -4.47931,-2.371432 -6.85016,-0.790371 -11.85565,-5.006085 -20.28662,-3.952213 -8.43097,1.053872 -18.17939,6.850148 -40.57427,15.017688 -22.3948,8.16754 -43.73627,12.383223 -72.19094,12.383223 -28.4546,0 -33.19679,-0.263423 -21.07726,-4.742346 12.11958,-4.478988 26.87371,-3.688572 33.19694,-5.269446 6.32323,-1.580808 -6.85018,-6.059954 -31.61616,-7.377327 -24.76612,-1.317307 -5.79638,-5.269242 11.59257,-5.532479 17.38895,-0.263237 28.9817,0.5271 28.9817,0.5271 0,0 1.05377,-2.108184 -32.14326,-4.742863 -0.41652,-0.03306 -0.60894,-0.06616 -1.00873,-0.09922 -12.77778,1.746459 -48.38266,6.071852 -78.67168,4.254521 -37.26004,-2.235592 -49.18338,-2.980629 -81.972255,-4.098458 -32.78861,-1.117829 -10.43268,1.490325 -32.41611,2.235522 -21.98347,0.745263 -37.26031,-1.862682 -49.92873,-8.94209 -12.6684301,-7.079473 -10.43286009,-7.452037 15.64917,-7.079671 26.08211,0.372632 42.1042,-1.117921 48.81098,2.980697 6.70684,4.098618 14.90392,0.745531 72.657055,4.844149 55.0146,3.904206 59.8517,0.962728 111.34256,-2.705778 -35.98478,-4.654452 -25.66855,-8.241354 5.02243,-7.461044 27.73784,0.705226 43.23652,-4.553595 54.17602,-7.77937 -20.38716,-0.09421 -46.08305,-1.977615 -69.58231,-4.866886 -5.35179,-0.657999 -9.49045,-1.369265 -12.71551,-2.09548 -83.04105,-4.71937 -90.51357,2.892463 -124.0131,2.179712 C 76.473975,39.476636 78.337285,43.575336 60.825045,43.947704 43.312745,44.320336 16.858075,41.712205 6.0526749,40.967007 -4.7527851,40.22181 16.858135,26.435595 45.548455,26.435595 c 28.69026,0 20.86572,4.844079 54.772365,7.079671 32.78322,2.16158 63.97723,-6.44242 143.79381,-4.659664 9.406,-2.702186 31.84716,-8.051212 39.80583,-12.693799 -26.6103,0.526936 -52.16683,-2.371193 -38.72993,-3.161564 13.4369,-0.790437 8.95823,-3.9524664 39.52058,-6.3236449 30.56235,-2.3712447 55.84416,8.2081909 76.5235,11.1889809 20.67934,2.980789 21.05221,-1.676573 34.65215,-3.353284 12.57078,-1.549828 20.31169,-2.08514 35.81383,1.806092 -0.74003,-3.544708 -0.74063,-5.645028 2.00866,-6.216675 C 457.58898,5.1366262 482.7506,2.5022366 506.6185,2.2944336 Z M 299.473,26.013399 c -12.07195,0.199803 -18.44046,2.312122 -24.21609,3.886068 8.34871,0.336778 17.27667,0.766754 27.11462,1.242818 13.81451,-0.110412 26.0309,-0.553282 35.89859,-1.313098 -3.04628,-0.501634 -6.08707,-1.003377 -9.82317,-1.547709 -12.43243,-1.811363 -21.72598,-2.38804 -28.97395,-2.268079 z" /></g></svg>
