<?xml version="1.0" encoding="UTF-8" standalone="no"?>
<!-- Created with Inkscape (http://www.inkscape.org/) -->

<svg
   width="33.761459mm"
   height="44.297478mm"
   viewBox="0 0 33.76146 44.297478"
   version="1.1"
   id="svg1"
   xml:space="preserve"
   inkscape:version="1.4 (86a8ad7, 2024-10-11)"
   sodipodi:docname="Common_Octopus-top.svg"
   xmlns:inkscape="http://www.inkscape.org/namespaces/inkscape"
   xmlns:sodipodi="http://sodipodi.sourceforge.net/DTD/sodipodi-0.dtd"
   xmlns="http://www.w3.org/2000/svg"
   xmlns:svg="http://www.w3.org/2000/svg"><sodipodi:namedview
     id="namedview1"
     pagecolor="#505050"
     bordercolor="#ffffff"
     borderopacity="1"
     inkscape:showpageshadow="0"
     inkscape:pageopacity="0"
     inkscape:pagecheckerboard="1"
     inkscape:deskcolor="#505050"
     inkscape:document-units="mm"
     showguides="true"
     inkscape:zoom="4"
     inkscape:cx="67.25"
     inkscape:cy="85.625"
     inkscape:window-width="3440"
     inkscape:window-height="1377"
     inkscape:window-x="-8"
     inkscape:window-y="-8"
     inkscape:window-maximized="1"
     inkscape:current-layer="layer1" /><defs
     id="defs1" /><g
     inkscape:label="Layer 1"
     inkscape:groupmode="layer"
     id="layer1"
     transform="translate(-86.498422,-154.38617)"><path
       id="path6"
       style="fill:#ffffff;fill-opacity:1"
       d="m 119.92563,177.84357 c -0.0413,0.0194 -0.11595,-0.031 -0.16953,-0.0177 -0.0813,0.0197 -0.0771,0.005 0.0234,-0.0924 0.0665,-0.0642 0.16016,-0.12077 0.20747,-0.1262 0.10191,-0.0115 0.10008,-0.0196 -0.0634,-0.35055 -0.0854,-0.17238 -0.14435,-0.24314 -0.18015,-0.21708 -0.0292,0.0212 -0.076,-0.001 -0.10371,-0.0498 -0.0363,-0.0639 -0.0293,-0.0861 0.0244,-0.0804 0.0593,0.006 0.059,-0.0496 -10e-4,-0.27463 -0.076,-0.28372 -0.11591,-0.32326 -0.19272,-0.19017 -0.0324,0.056 -0.0477,0.0496 -0.0685,-0.0282 -0.0147,-0.055 -0.009,-0.11252 0.0139,-0.12784 0.0261,-0.0177 -0.004,-0.12788 -0.0812,-0.29923 -0.0673,-0.14927 -0.1649,-0.37973 -0.21695,-0.51217 -0.0521,-0.13243 -0.11346,-0.23603 -0.13654,-0.22984 -0.0228,0.006 -0.0664,-0.0822 -0.097,-0.19605 -0.032,-0.11946 -0.0894,-0.22252 -0.13596,-0.24391 -0.0443,-0.0204 -0.11387,-0.107 -0.15475,-0.19233 -0.0412,-0.0859 -0.12172,-0.16641 -0.1804,-0.18009 -0.0582,-0.0136 -0.1162,-0.0624 -0.12867,-0.10891 -0.0125,-0.0466 -0.0729,-0.11506 -0.1344,-0.15231 -0.0891,-0.0539 -0.10935,-0.097 -0.10144,-0.21089 0.005,-0.0786 -0.0677,-0.3946 -0.16249,-0.70224 -0.10651,-0.34614 -0.15238,-0.55325 -0.11996,-0.54351 0.0748,0.0224 0.20692,-0.29623 0.17516,-0.4225 -0.0533,-0.2144 -0.028,-0.56644 0.0406,-0.55925 0.0468,0.005 0.0548,-0.043 0.0241,-0.15784 -0.0243,-0.0906 -0.0329,-0.20755 -0.0193,-0.25967 0.034,-0.12945 -0.11195,-0.92954 -0.22162,-1.21444 -0.071,-0.18436 -0.10122,-0.22014 -0.14531,-0.17292 -0.0606,0.0648 -0.29624,0.0465 -0.31529,-0.0247 -0.006,-0.0234 0.0155,-0.035 0.0472,-0.0255 0.0318,0.01 0.0892,-0.009 0.12849,-0.0396 0.039,-0.0315 0.0918,-0.0653 0.11709,-0.0741 0.0426,-0.0156 0.0499,-0.21325 0.0149,-0.39561 -0.009,-0.0467 -0.066,-0.0785 -0.14057,-0.0773 -0.0694,0.001 -0.13257,-0.0196 -0.13966,-0.046 -0.008,-0.0311 0.0299,-0.0372 0.10338,-0.0215 0.11256,0.0264 0.1132,0.0211 0.0276,-0.17057 -0.0486,-0.10865 -0.13124,-0.24713 -0.18455,-0.30739 -0.078,-0.0885 -0.0839,-0.10792 -0.0295,-0.10231 0.053,0.006 0.0352,-0.0504 -0.0824,-0.26147 -0.1232,-0.22104 -0.15897,-0.25559 -0.20122,-0.19592 -0.0418,0.0589 -0.0498,0.0538 -0.0423,-0.0261 0.005,-0.0541 0.0233,-0.11454 0.0405,-0.13443 0.0386,-0.0448 -0.25164,-0.53872 -0.30776,-0.52368 -0.0223,0.006 -0.0347,0.0323 -0.0278,0.0583 0.007,0.026 -0.0642,0.068 -0.1585,0.0933 -0.14695,0.0394 -0.16602,0.0337 -0.13181,-0.0407 0.0219,-0.0477 0.0797,-0.0979 0.12863,-0.11097 0.12862,-0.0345 0.062,-0.22806 -0.1443,-0.41875 l -0.16986,-0.15672 -0.15158,0.11713 c -0.17607,0.13598 -0.24645,0.16291 -0.2232,0.0855 0.009,-0.0303 0.0526,-0.0647 0.0966,-0.0767 0.0439,-0.012 0.0897,-0.0797 0.102,-0.15038 0.0277,-0.15877 -0.12489,-0.31234 -0.39286,-0.39602 l -0.17693,-0.0553 -0.0516,0.11708 c -0.0499,0.11363 -0.24181,0.25759 -0.25885,0.19401 -0.005,-0.0173 0.0282,-0.0713 0.0733,-0.11969 0.0496,-0.0531 0.0636,-0.11351 0.0351,-0.15277 -0.0305,-0.0421 -0.016,-0.0828 0.0413,-0.1154 0.13295,-0.0757 0.0961,-0.11228 -0.22607,-0.22672 -0.31479,-0.11181 -0.37335,-0.11752 -0.35053,-0.0323 0.0195,0.0727 -0.0978,0.21843 -0.19953,0.24766 -0.12943,0.0372 -0.18226,-0.23362 -0.0667,-0.34272 0.0867,-0.0818 0.076,-0.0883 -0.22762,-0.1407 -0.40826,-0.0704 -0.5072,-0.0506 -0.43011,0.088 0.0473,0.0849 0.0332,0.12486 -0.079,0.22232 -0.13126,0.11403 -0.13824,0.11466 -0.1782,0.0258 -0.0229,-0.0508 -0.0164,-0.14101 0.0142,-0.20067 0.0525,-0.10258 0.0467,-0.11018 -0.10983,-0.14444 -0.0911,-0.0199 -0.26868,-0.0236 -0.39474,-0.008 l -0.22914,0.0293 0.0685,0.13785 c 0.0372,0.0761 0.0532,0.14966 0.0384,0.16253 -0.0162,0.0132 -0.072,0.11536 -0.12379,0.22683 -0.0518,0.11147 -0.0908,0.16336 -0.0863,0.11515 0.004,-0.0482 -0.02,-0.0901 -0.0538,-0.0931 -0.0465,-0.004 -0.0517,-0.0374 -0.0262,-0.13261 0.0322,-0.115 0.0216,-0.13248 -0.10155,-0.18732 -0.10566,-0.047 -0.18558,-0.0423 -0.35788,0.0221 -0.26034,0.0973 -0.33713,0.19237 -0.23294,0.28872 0.0737,0.0681 0.0575,0.0721 0.0186,0.18709 -0.0257,0.0757 -0.0462,0.13792 -0.17095,0.0988 -0.13982,-0.0439 -0.15255,-0.0881 -0.33023,-0.0405 -0.11249,0.0302 -0.24398,0.10128 -0.29191,0.15848 -0.0752,0.0897 -0.0756,0.13004 -0.004,0.29377 0.0668,0.1535 0.0689,0.21092 0.0129,0.29774 -0.0618,0.0957 -0.0778,0.101 -0.14843,0.051 -0.044,-0.0312 -0.15249,-0.014 -0.25114,-0.0108 -1.16071,0.0377 -1.82091,-0.0988 -2.59019,-1.36676 -0.1328,-0.21896 -0.22632,-0.43712 -0.3167,-0.63685 0.12748,0.1381 0.59472,0.44412 0.66051,0.42649 0.0235,-0.006 0.11926,0.0185 0.21277,0.0553 0.0935,0.0368 0.24637,0.0493 0.33967,0.0277 0.0933,-0.0216 0.19311,-0.0168 0.22218,0.0106 0.0417,0.0393 0.0725,0.0321 0.14455,-0.0355 0.0719,-0.0674 0.1025,-0.0754 0.14381,-0.0364 0.0301,0.0284 0.0842,0.0261 0.12752,-0.005 0.0419,-0.0304 0.0967,-0.0342 0.12395,-0.009 0.0341,0.0321 0.0904,-0.007 0.18546,-0.13048 0.10316,-0.13336 0.11979,-0.18834 0.0694,-0.22404 -0.05,-0.0354 -0.0448,-0.0615 0.0209,-0.10351 0.10613,-0.0679 0.21169,-0.3374 0.16105,-0.41123 -0.02,-0.0292 -0.0126,-0.0959 0.0176,-0.14809 0.0301,-0.0521 0.0347,-0.16783 0.0108,-0.25703 -0.0239,-0.0892 -0.0214,-0.1676 0.005,-0.17456 0.0261,-0.007 0.0189,-0.11923 -0.016,-0.24931 -0.0587,-0.21922 -0.0721,-0.23427 -0.17919,-0.20557 -0.0636,0.017 -0.13396,0.0129 -0.15696,-0.009 -0.0396,-0.0373 0.0754,-0.0925 0.25404,-0.1221 0.0674,-0.0111 0.0674,-0.0457 9.9e-4,-0.20998 -0.0438,-0.10811 -0.12085,-0.23581 -0.17236,-0.28391 -0.0814,-0.0762 -0.0828,-0.0867 -0.0151,-0.0794 0.0954,0.0101 0.0897,-0.004 -0.0954,-0.33663 -0.0817,-0.14541 -0.16509,-0.30552 -0.18773,-0.35522 -0.067,-0.15032 -0.6333,-0.75975 -0.74351,-0.80015 -0.0566,-0.0207 -0.12817,-0.0763 -0.1594,-0.12367 -0.0509,-0.0772 -0.45636,-0.35921 -0.49973,-0.34759 -0.01,0.003 -0.0174,0.0549 -0.017,0.11636 4.1e-4,0.0614 -0.0173,0.10058 -0.0403,0.0873 -0.023,-0.0133 -0.0634,0.007 -0.0906,0.0451 -0.0543,0.0766 -0.0682,0.0611 -0.0551,-0.0639 0.005,-0.0454 0.0391,-0.0907 0.0753,-0.10041 0.0362,-0.01 0.0575,-0.0471 0.0477,-0.0834 -0.0222,-0.083 -0.40663,-0.27677 -0.49974,-0.25182 -0.0381,0.0102 -0.0772,-0.0108 -0.0869,-0.0468 -0.0294,-0.10957 -0.4749,-0.31142 -0.55654,-0.25213 -0.0532,0.0388 -0.0707,0.0315 -0.0642,-0.0299 0.01,-0.0929 -0.10517,-0.1622 -0.3595,-0.21558 -0.23069,-0.0484 -0.32401,-0.0172 -0.29318,0.0978 0.0139,0.052 0.003,0.10097 -0.025,0.10835 -0.0277,0.007 -0.0416,-0.0132 -0.032,-0.0455 0.0178,-0.0594 -0.43743,-0.33593 -0.5176,-0.31445 -0.0239,0.006 -0.0556,0.0608 -0.0694,0.12026 -0.0139,0.0595 -0.0491,0.11428 -0.0785,0.12216 -0.0295,0.008 -0.044,-0.003 -0.032,-0.0235 0.012,-0.0208 -0.0113,-0.0731 -0.0531,-0.11631 -0.0582,-0.0621 -0.058,-0.0982 -0.003,-0.16653 0.0789,-0.0987 0.084,-0.097 -0.3423,-0.10944 -0.32833,-0.01 -0.39682,0.009 -0.33652,0.0918 0.0525,0.0722 -0.0518,0.39159 -0.13518,0.41393 -0.0939,0.0252 -0.30035,-0.22086 -0.30252,-0.36031 l -0.003,-0.12982 -0.32851,0.11371 c -0.36322,0.12572 -0.40708,0.16139 -0.29567,0.24026 0.0595,0.0422 0.0666,0.0893 0.0376,0.22212 -0.0203,0.0925 -0.0671,0.18989 -0.10403,0.21673 -0.0944,0.0686 -0.24042,0.0114 -0.27418,-0.10683 -0.0481,-0.17157 -0.12942,-0.1735 -0.35539,-0.009 -0.11661,0.0851 -0.2459,0.19984 -0.28704,0.25453 -0.0747,0.0991 -0.0735,0.0991 0.0451,0.14145 0.10101,0.0354 0.125,0.0751 0.14775,0.2477 0.015,0.11299 0.008,0.22732 -0.0159,0.25409 -0.0809,0.0922 -0.21669,0.0967 -0.26672,0.009 -0.083,-0.14575 -0.25145,-0.0561 -0.38489,0.20478 -0.12971,0.25351 -0.12073,0.43329 0.0212,0.4325 0.13928,-9.1e-4 0.26109,0.17096 0.22778,0.32095 -0.0152,0.0686 -0.0605,0.1237 -0.10049,0.12215 -0.30603,-0.0116 -0.49662,0.2111 -0.42143,0.4917 0.0591,0.22049 0.1196,0.28911 0.28966,0.3263 0.17399,0.0381 0.30759,0.24714 0.17972,0.2814 -0.10864,0.0291 -0.23408,0.24211 -0.23168,0.39324 0.004,0.24254 0.19488,0.4785 0.35281,0.43618 0.0891,-0.0239 0.20788,0.10992 0.18003,0.20267 -0.009,0.0293 -0.0497,0.0499 -0.0905,0.0456 -0.096,-0.0101 -0.24455,0.27178 -0.22559,0.39001 0.0189,0.11823 0.0229,0.15408 -0.11361,0.31078 -0.13645,0.15668 -0.5757,0.44148 -1.24977,0.48306 -0.82169,0.0507 -2.161034,-0.56523 -3.081606,-0.99647 -1.382812,-0.60534 -4.046911,-2.51568 -5.321596,-4.90574 -0.04037,-0.0757 -0.974256,-1.85747 -0.177186,-3.22294 0.161597,-0.27683 0.291332,-0.43399 0.442982,-0.53706 0.29941,-0.20351 0.818049,-0.33407 1.248481,-0.31419 0.393005,0.0181 0.99339,0.20219 1.227005,0.37634 0.08708,0.0649 0.194493,0.14063 0.238609,0.16772 0.06754,0.0415 0.06054,0.0544 -0.04426,0.0825 -0.126121,0.0234 -0.08578,-0.0172 -0.145757,-0.0209 -0.05999,-0.004 -0.0884,0.0765 -0.169128,0.0576 -0.08912,-0.0208 -0.116226,-0.003 -0.153872,0.10061 -0.04019,0.11041 -0.06017,0.12124 -0.161439,0.0903 -0.132628,-0.0405 -0.169124,-0.002 -0.133152,0.14 0.01738,0.0687 -0.0065,0.11097 -0.07656,0.13554 -0.05612,0.0197 -0.0049,-0.0452 -0.05576,-0.0744 -0.02275,-0.013 -0.0503,0.0109 -0.06694,0.0318 -0.05224,0.0654 -0.08606,0.11279 -0.02185,0.13211 0.08939,0.0268 0.08464,0.0941 -0.0077,0.1112 -0.0584,0.0108 -0.07507,0.0483 -0.05217,0.12097 0.02144,0.0684 0.0048,0.11267 -0.04637,0.12638 -0.124894,0.0335 -0.132804,0.0959 -0.02201,0.16747 0.09341,0.06 0.09855,0.073 0.04388,0.14446 -0.04687,0.0623 -0.04251,0.0994 0.02277,0.18275 0.04515,0.0576 0.107631,0.18918 0.137254,0.29278 0.04623,0.15708 0.06963,0.18182 0.140566,0.14904 0.05997,-0.0277 0.08263,-0.0165 0.07676,0.0388 -0.01081,0.10298 0.510378,0.40757 0.593745,0.34701 0.03327,-0.0242 0.06558,-0.0249 0.07183,-0.002 0.0062,0.0233 0.08898,0.0238 0.183781,0.001 0.09485,-0.0227 0.192721,-0.0219 0.217642,0.002 0.03142,0.0295 0.08039,0.0103 0.159403,-0.062 0.08091,-0.074 0.143356,-0.097 0.214374,-0.0804 0.07698,0.018 0.108981,-0.001 0.138747,-0.0832 0.02564,-0.0704 0.08452,-0.11315 0.174107,-0.12691 0.115345,-0.0177 0.133313,-0.0423 0.125294,-0.16732 -0.0102,-0.15784 0.03075,-0.23528 0.09279,-0.1768 0.0213,0.02 0.08,0.0126 0.130977,-0.0164 0.0803,-0.0457 0.08226,-0.0759 0.01451,-0.22751 -0.07406,-0.1655 -0.07123,-0.17619 0.047,-0.20787 0.110937,-0.0297 0.117789,-0.0472 0.06342,-0.15663 -0.03366,-0.0677 -0.08589,-0.1571 -0.116433,-0.19884 -0.04282,-0.0586 -0.02522,-0.0975 0.07723,-0.17103 0.0976,-0.0701 0.12479,-0.12527 0.102541,-0.2083 -0.02139,-0.0798 -0.04847,-0.0998 -0.09249,-0.0678 -0.03433,0.0249 -0.08163,0.0268 -0.105222,0.005 -0.02356,-0.0222 -0.0058,-0.0617 0.04015,-0.0878 0.07904,-0.045 0.07601,-0.0946 -0.02304,-0.35763 -0.01299,-0.033 -0.03907,-0.043 -0.0593,-0.0215 -0.02023,0.0215 -0.0574,0.0199 -0.08234,-0.004 -0.02533,-0.0238 -0.0059,-0.0652 0.04397,-0.0936 0.07509,-0.0428 0.07718,-0.0659 0.01273,-0.14412 -0.05554,-0.0674 -0.105217,-0.0793 -0.179613,-0.0434 -0.147244,0.0713 -0.200573,-0.007 -0.08071,-0.11961 0.05957,-0.0559 0.08419,-0.11957 0.05867,-0.15429 -0.02363,-0.0325 -0.04878,-0.08 -0.05559,-0.10547 -0.0068,-0.0254 -0.02833,-0.0292 -0.04775,-0.009 -0.01942,0.0206 -0.100448,0.0234 -0.179776,0.006 l -0.143939,-0.032 0.08639,-0.10287 c 0.08457,-0.10089 0.08463,-0.10494 -0.02708,-0.17678 -0.07135,-0.046 -0.12058,-0.0521 -0.131505,-0.0156 -0.02337,0.0778 -0.187297,0.0577 -0.209648,-0.0257 -0.0097,-0.0362 0.0067,-0.0724 0.03673,-0.0805 0.03072,-0.008 0.0051,-0.0467 -0.05827,-0.0876 -0.0621,-0.0401 -0.139412,-0.0534 -0.171734,-0.03 -0.03232,0.0235 -0.107994,0.0313 -0.168187,0.0172 -0.109323,-0.0255 -0.10985,-0.0255 -0.03757,-0.15952 l 0.07157,-0.13421 -0.124732,-0.088 c -0.08096,-0.0572 -0.119474,-0.0645 -0.108741,-0.0206 0.01172,0.0476 -0.02692,0.0444 -0.129667,-0.0107 -0.0804,-0.0431 -0.139377,-0.10006 -0.131769,-0.12626 0.0079,-0.0263 -0.05444,-0.0432 -0.13852,-0.0378 -0.08813,0.006 -0.161051,-0.02 -0.171871,-0.0604 -0.01206,-0.045 -0.0433,-0.0519 -0.08724,-0.02 -0.04797,0.0346 -0.06647,0.027 -0.06107,-0.0243 0.0042,-0.0406 -0.04625,-0.10151 -0.113194,-0.13498 -0.08812,-0.0441 -0.122793,-0.043 -0.126289,0.004 -0.0027,0.0356 -0.02691,0.0704 -0.05357,0.0775 -0.02627,0.007 -0.04463,-0.0232 -0.04,-0.0674 0.0058,-0.0558 -0.01545,-0.0692 -0.06968,-0.0445 -0.05045,0.023 -0.08675,0.005 -0.101921,-0.0508 -0.03548,-0.13024 -0.202626,-0.15548 -0.268814,-0.0408 -0.06827,0.11806 -0.106765,0.12917 -0.09617,0.0285 0.0057,-0.0542 -0.02286,-0.0698 -0.09086,-0.0516 -0.08201,0.022 -0.09251,0.0118 -0.05981,-0.0594 0.0327,-0.0712 0.0155,-0.0882 -0.100085,-0.1 -0.158267,-0.0161 -0.262997,0.003 -0.204214,0.0365 0.05572,0.0322 -0.0199,0.17998 -0.08253,0.16121 -0.03074,-0.009 -0.03618,-0.0469 -0.01565,-0.0932 0.02806,-0.061 5.01e-4,-0.0858 -0.126746,-0.11369 -0.23324,-0.0511 -0.328673,-0.0107 -0.380856,0.16197 l -0.04546,0.15181 -0.04797,-0.17707 -0.04858,-0.17744 -0.241588,0.0647 c -0.187902,0.0503 -0.231975,0.078 -0.198347,0.1243 0.02378,0.0327 0.02538,0.1063 0.0031,0.16341 -0.03707,0.0958 -0.04714,0.0918 -0.127318,-0.0499 -0.0806,-0.14238 -0.10016,-0.14971 -0.271757,-0.10373 -0.17689,0.0474 -0.183643,0.0567 -0.154424,0.21632 0.01635,0.0919 0.01628,0.19174 -10e-4,0.22177 -0.03791,0.0656 -0.265033,-0.1668 -0.229967,-0.2353 0.01297,-0.0254 -0.01185,-0.0211 -0.05489,0.009 -0.04328,0.0301 -0.126733,0.0813 -0.185114,0.1138 -0.09207,0.0512 -0.09877,0.0866 -0.05054,0.2666 0.03061,0.11424 0.0342,0.21339 0.0082,0.22035 -0.02598,0.007 -0.05904,-0.0237 -0.07201,-0.069 -0.01307,-0.0453 -0.06258,-0.1134 -0.111083,-0.15106 -0.08473,-0.0659 -0.09514,-0.0626 -0.260411,0.0864 -0.126803,0.11428 -0.153772,0.1652 -0.104287,0.19379 0.06746,0.0389 0.173499,0.34459 0.124237,0.35779 -0.01449,0.004 -0.101619,-0.0412 -0.193721,-0.10003 l -0.167264,-0.10712 -0.126676,0.18214 c -0.119102,0.17138 -0.120072,0.18457 -0.02245,0.22376 0.07271,0.0291 0.111659,0.0895 0.130149,0.20212 l 0.02703,0.16075 -0.173908,-0.092 c -0.194665,-0.10325 -0.270012,-0.0619 -0.333617,0.18248 -0.03355,0.12863 -0.02815,0.14684 0.05915,0.1821 0.05299,0.0216 0.121849,0.095 0.153422,0.16326 0.04558,0.0986 0.03974,0.12898 -0.03048,0.1478 -0.04849,0.013 -0.128871,-1.5e-4 -0.17835,-0.0287 -0.129064,-0.0745 -0.176803,-0.0479 -0.245765,0.13701 -0.075,0.20119 -0.04803,0.3221 0.06485,0.29185 0.05129,-0.0137 0.132324,0.0356 0.205793,0.12515 l 0.121612,0.14824 -0.157939,0.008 c -0.08687,0.004 -0.177356,-0.0107 -0.201369,-0.0327 -0.07675,-0.0705 -0.182372,0.0555 -0.20842,0.24844 -0.0269,0.19983 0.02287,0.29517 0.118715,0.22553 0.06447,-0.0469 0.231172,0.0539 0.243394,0.16162 0.01284,0.11285 0.01159,0.15839 -0.01957,0.17269 -0.06923,0.0318 -0.169824,-0.01 -0.208779,-0.0264 -0.112293,-0.0482 -0.201799,0.0501 -0.229145,0.25292 -0.02776,0.20589 0.01171,0.27399 0.138152,0.24011 0.06346,-0.017 0.373193,0.23475 0.39664,0.32225 0.0018,0.007 -0.105612,0.0305 -0.23891,0.0528 -0.290125,0.0486 -0.369535,0.13629 -0.313051,0.3471 0.04574,0.17069 0.142618,0.24479 0.274409,0.20948 0.06249,-0.0167 0.08849,6.8e-4 0.08246,0.0582 -0.0047,0.0454 -0.0026,0.11015 0.0064,0.14379 0.009,0.0336 -0.04386,0.0913 -0.117684,0.12784 -0.120128,0.0594 -0.129238,0.0847 -0.08732,0.24114 0.06026,0.2249 0.204893,0.31799 0.409187,0.26325 0.127917,-0.0343 0.175222,-0.0215 0.238782,0.0666 0.0825,0.11432 0.08321,0.22285 0.0012,0.19815 -0.02612,-0.008 -0.05466,0.0124 -0.06443,0.0451 -0.0099,0.0327 -0.06387,0.0927 -0.119977,0.13326 -0.173088,0.12492 -0.02085,0.41947 0.229984,0.44502 0.203846,0.0208 0.241855,0.12852 0.117312,0.32808 -0.07385,0.1185 -0.09358,0.2016 -0.05945,0.25133 0.08346,0.12176 0.292988,0.23767 0.385524,0.21288 0.129337,-0.0347 0.139287,0.10328 0.02205,0.30599 -0.05713,0.099 -0.09172,0.22472 -0.07703,0.27958 0.03877,0.14468 0.268595,0.26989 0.420902,0.22908 0.172128,-0.0461 0.291277,-0.0311 0.310292,0.0399 0.0085,0.0318 -0.02511,0.17829 -0.07438,0.32542 -0.08313,0.24807 -0.08165,0.2751 0.01056,0.36899 0.29979,0.30455 0.778628,-0.12501 0.640581,0.46393 -0.01795,0.0767 -0.07183,0.15505 -0.08043,0.189 -0.02886,0.11328 0.164134,0.33089 0.324929,0.36608 0.164377,0.036 0.176759,0.0972 0.05088,0.25172 -0.171939,0.21088 0.139062,0.58119 0.424155,0.5048 0.111004,-0.0297 0.190542,-0.0169 0.261194,0.0424 0.0947,0.0795 0.09543,0.0938 0.01198,0.21239 -0.193538,0.27497 0.03346,0.64599 0.382693,0.62559 l 0.162164,-0.01 -0.04553,0.21335 c -0.08552,0.40127 0.08898,0.63964 0.440861,0.60305 0.107861,-0.0112 0.244455,0.0121 0.30384,0.0518 0.131199,0.0874 0.129004,0.0767 0.07283,0.24477 -0.09286,0.28188 0.215949,0.5745 0.520477,0.4929 0.202786,-0.0543 0.285954,0.033 0.261735,0.27601 -0.02339,0.23533 0.205887,0.31559 0.377259,0.50345 0.721892,0.79139 1.175174,2.47363 0.360745,3.42681 -0.624531,0.73094 -2.059817,1.64802 -2.973051,1.95436 -0.755369,0.25337 -1.850972,0.51977 -2.470313,0.52817 -1.112973,0.0151 -1.690304,-0.28746 -1.65721,-0.86776 0.01384,-0.24239 0.277273,-0.64429 0.592144,-0.90284 0.776944,-0.63798 2.31045,-0.82288 2.513454,-0.30326 0.02138,0.0566 0.04663,0.11799 0.05379,0.13699 0.0072,0.019 0.05238,0.0239 0.10039,0.0111 0.04801,-0.0129 0.140238,0.0108 0.204584,0.0527 0.193584,0.12614 0.702747,0.23584 0.884049,0.19058 0.09549,-0.0238 0.242306,-0.0127 0.339635,0.0256 0.14995,0.059 0.743326,0.0941 0.767033,0.0454 0.03384,-0.0696 0.0087,-0.24575 -0.03342,-0.23447 -0.02782,0.007 -0.05935,-0.0198 -0.07022,-0.0604 -0.01087,-0.0405 0.0052,-0.0662 0.03552,-0.0571 0.08557,0.0257 0.01157,-0.17899 -0.08481,-0.23461 -0.04715,-0.0272 -0.116773,-0.0409 -0.15483,-0.0307 -0.03796,0.0102 -0.0972,-0.0328 -0.131961,-0.0952 -0.05394,-0.097 -0.08127,-0.10394 -0.18611,-0.0496 -0.111236,0.0576 -0.1259,0.051 -0.155961,-0.069 -0.02521,-0.10181 -0.05862,-0.12912 -0.143652,-0.1188 -0.06076,0.007 -0.11775,-0.0115 -0.126809,-0.042 -0.009,-0.0305 -0.05779,-0.0878 -0.108408,-0.12717 -0.07611,-0.0592 -0.102058,-0.0575 -0.148656,0.008 -0.03093,0.0437 -0.06294,0.0668 -0.07018,0.0514 -0.0072,-0.0154 -0.02085,-0.043 -0.02985,-0.0615 -0.0091,-0.0185 -0.05082,-0.0668 -0.09209,-0.108 -0.06714,-0.067 -0.09182,-0.0641 -0.234909,0.0298 -0.08796,0.0577 -0.17024,0.0984 -0.183235,0.0908 -0.01299,-0.008 -0.0089,-0.079 0.0087,-0.15909 0.02926,-0.13305 0.02259,-0.14789 -0.07858,-0.17154 -0.07997,-0.0187 -0.121378,-0.008 -0.148743,0.0399 -0.02078,0.036 -0.07528,0.0753 -0.121492,0.0877 -0.06906,0.0185 -0.06853,-0.008 -0.09402,-0.1353 -0.02611,-0.13224 -0.07647,-0.14128 -0.193314,-0.14241 -0.04038,-3.9e-4 -0.07859,0.044 -0.08763,0.0743 -0.0091,0.0303 -0.06041,0.067 -0.114072,0.0814 -0.08278,0.0222 -0.09933,0.004 -0.107598,-0.1199 -0.0085,-0.1319 -0.02029,-0.14141 -0.12257,-0.10197 -0.0622,0.024 -0.123457,0.0611 -0.136112,0.083 -0.05262,0.0911 -0.09693,0.0497 -0.112308,-0.1058 -0.02041,-0.20175 -0.15057,-0.23931 -0.289835,-0.0834 -0.04985,0.0558 -0.146948,0.11695 -0.216205,0.1355 -0.120451,0.0323 -0.127152,0.0253 -0.146511,-0.1635 -0.05394,-0.14684 -0.187578,-0.16068 -0.282891,-0.14729 -0.03692,0.0268 -0.05743,0.0851 -0.04557,0.12937 0.01186,0.0443 0.0044,0.12535 -0.01708,0.18005 -0.03636,0.0938 -0.04704,0.0957 -0.19399,0.0327 -0.0855,-0.0367 -0.166086,-0.1067 -0.17911,-0.15531 -0.03129,-0.11678 -0.11517,-0.13734 -0.251363,-0.0616 -0.09718,0.0541 -0.102997,0.0811 -0.04611,0.21726 0.03566,0.0856 0.05676,0.17089 0.04559,0.18948 -0.02765,0.0479 -0.291614,-0.102 -0.311717,-0.17702 -0.02042,-0.0762 -0.219309,-0.0303 -0.273073,0.063 -0.02152,0.0379 -0.0085,0.13359 0.03091,0.22123 l 0.06967,0.15414 -0.170721,-0.0441 c -0.09385,-0.0245 -0.177872,-0.0716 -0.18677,-0.10403 -0.0089,-0.0325 -0.03434,-0.0509 -0.0577,-0.0477 -0.03294,0.005 -0.23439,0.28566 -0.120947,0.35126 0.03674,0.0212 0.07477,0.0673 0.08423,0.10262 0.01331,0.0497 -0.01994,0.0535 -0.147109,0.018 -0.0904,-0.0252 -0.168658,-0.0624 -0.174126,-0.0828 -0.02401,-0.0896 -0.151287,0.0143 -0.209848,0.17125 -0.05838,0.15651 -0.07121,0.16594 -0.144738,0.10673 -0.07351,-0.0591 -0.08721,-0.0492 -0.151389,0.11386 -0.04964,0.12614 -0.08584,0.16466 -0.122411,0.13017 -0.03725,-0.0351 -0.08692,0.01 -0.175836,0.15839 -0.06821,0.11405 -0.13102,0.18188 -0.139359,0.15076 -0.0083,-0.0311 -0.07333,0.0451 -0.144565,0.16928 -0.221396,0.38574 -0.476531,0.93612 -0.452643,0.9762 0.01286,0.0209 0.0048,0.11599 -0.01724,0.21113 -0.02203,0.0951 -0.02013,0.24827 0.0046,0.34062 0.02475,0.0924 0.02363,0.17396 -0.0024,0.18093 -0.02782,0.007 -0.004,0.17345 0.05813,0.40279 0.124606,0.4573 0.374532,0.87984 0.49529,0.83616 0.04812,-0.0174 0.08544,0.009 0.103051,0.0751 0.04209,0.1571 0.224406,0.29191 0.282932,0.20934 0.03651,-0.0515 0.06298,-0.0381 0.114972,0.0558 0.117327,0.21146 0.375029,0.3169 0.384595,0.15749 0.0021,-0.0354 0.04776,-0.0563 0.116307,-0.0531 0.08331,0.004 0.123213,0.0426 0.150998,0.14626 0.05642,0.21056 0.341184,0.35932 0.442236,0.23084 0.141767,-0.18025 0.260189,0.001 0.277667,0.016 0.04885,0.0417 0.135194,0.10559 0.202873,0.13021 0.109799,0.0396 0.13272,0.0332 0.212774,-0.0565 0.04928,-0.0552 0.09233,-0.0907 0.09557,-0.0786 0.0032,0.0121 0.05186,-0.0201 0.10811,-0.0717 0.08524,-0.0775 0.148432,-0.0904 0.372704,-0.0906 0.348358,0.003 0.562753,0.0839 0.502206,0.1891 -0.05949,0.10332 0.0013,0.30159 0.123894,0.40443 0.104001,0.0872 0.329547,0.0661 0.395626,-0.037 0.01867,-0.0292 0.09664,-0.083 0.173354,-0.11974 0.146514,-0.07 0.263241,-0.0378 0.295322,0.0819 0.04576,0.1708 0.414294,0.2383 0.499058,0.0915 0.01308,-0.0226 0.06884,-0.0622 0.124,-0.0883 0.2703,-0.12781 0.449988,-0.14128 0.856586,-0.0637 0.566084,0.10805 0.992033,0.21034 1.439783,0.46165 1.751768,0.98319 3.272126,2.09722 2.701739,5.12141 -0.08655,0.45888 -0.225453,0.89769 -0.30476,1.07888 -0.05106,0.11659 -0.08691,0.23274 -0.08015,0.25795 0.01711,0.0639 -0.199476,0.36535 -0.277426,0.38624 -0.111236,0.0298 -0.18162,0.20728 -0.123484,0.31182 0.07167,0.12878 -0.02873,0.28144 -0.213883,0.32588 -0.304578,0.0723 -0.499958,0.38056 -0.343386,0.5414 0.0464,0.0476 0.05209,0.094 0.01836,0.15237 -0.02627,0.0461 -0.03229,0.0989 -0.01233,0.1178 0.02011,0.019 -0.01631,0.0357 -0.07948,0.0368 -0.329583,0.006 -0.459825,0.0488 -0.563076,0.1867 -0.09733,0.13008 -0.09785,0.15535 -0.0087,0.37469 0.09142,0.22489 0.09024,0.24288 -0.0253,0.41872 -0.269745,0.41066 -0.390416,0.49362 -0.537421,0.3703 -0.121243,-0.10204 -0.374786,-0.0315 -0.502852,0.13992 -0.08568,0.11448 -0.08796,0.16062 -0.02459,0.3415 0.08083,0.23095 0.02795,0.3226 -0.153069,0.26732 -0.263297,-0.0804 -0.590998,0.22865 -0.462113,0.43572 0.105718,0.17006 0.112133,0.21834 0.04132,0.29602 -0.05253,0.057 -0.0824,0.0638 -0.119317,0.0299 -0.09594,-0.0895 -0.296149,-0.0446 -0.428968,0.0962 -0.130997,0.139 -0.131498,0.25687 -0.0024,0.43238 0.04598,0.0626 0.03806,0.11499 -0.03026,0.20659 -0.08452,0.11292 -0.09728,0.11758 -0.157262,0.056 -0.06744,-0.0693 -0.285294,-0.0137 -0.332844,0.0496 -0.151632,0.20209 -0.172815,0.23083 -0.07532,0.4257 0.09996,0.098 0.104571,0.11671 0.05276,0.2448 -0.05182,0.12808 -0.06647,0.13597 -0.197051,0.10519 -0.181307,-0.0424 -0.344473,0.0666 -0.402492,0.26888 -0.03989,0.1382 -0.03444,0.15274 0.06698,0.21905 0.187558,0.12116 0.107725,0.38658 -0.08272,0.2763 -0.08757,-0.0506 -0.298147,0.15981 -0.325838,0.32538 -0.01582,0.0947 0.0051,0.13613 0.100308,0.20049 0.142504,0.0964 0.169972,0.17062 0.09915,0.27035 -0.03545,0.0501 -0.06574,0.0603 -0.09578,0.0319 -0.07892,-0.0743 -0.219432,0.003 -0.285425,0.15672 -0.08263,0.192 -0.0456,0.33629 0.08575,0.33546 0.05736,-3.5e-4 0.129041,0.0377 0.12567,0.0915 -0.0094,0.14538 -0.09474,0.13367 -0.234312,0.13183 -0.123391,-0.002 -0.195341,0.0995 -0.199273,0.3225 -0.0026,0.14936 0.0094,0.16679 0.124347,0.17854 0.222284,0.0226 0.202782,0.28573 -0.02146,0.28929 -0.111247,0.002 -0.139853,0.0302 -0.184463,0.18211 -0.06522,0.22219 -0.04681,0.30465 0.06153,0.27562 0.09663,-0.0259 0.267206,0.11167 0.211583,0.17068 -0.02021,0.0216 -0.09437,0.0412 -0.165496,0.0412 -0.112561,0.002 -0.132333,0.0262 -0.155056,0.19403 -0.02684,0.19887 0.01005,0.27978 0.115051,0.25164 0.03342,-0.009 0.108229,0.0138 0.166202,0.0512 0.123181,0.0795 0.08191,0.15153 -0.09012,0.15683 -0.135619,0.004 -0.190263,0.0582 -0.228348,0.22596 -0.02491,0.10989 -0.005,0.13498 0.191323,0.24084 0.120631,0.065 0.209585,0.13555 0.197185,0.15689 -0.01228,0.0214 -0.101695,0.0632 -0.19839,0.0922 -0.13268,0.0407 -0.181449,0.0838 -0.200344,0.17673 -0.02921,0.14369 0.04435,0.29842 0.130989,0.2752 0.02946,-0.008 0.317271,0.0483 0.331936,0.10473 0.01418,0.0546 -0.239077,0.29808 -0.284649,0.29936 -0.07394,0.003 -0.08037,0.2277 -0.009,0.32555 0.02776,0.0383 0.07655,0.0489 0.111219,0.0237 0.07642,-0.0556 0.141253,0.002 0.204609,0.18057 0.03533,0.10096 0.02674,0.14925 -0.0346,0.18422 -0.04579,0.0261 -0.07342,0.0853 -0.06108,0.13138 0.02857,0.10664 0.274689,0.27598 0.28597,0.19676 0.0046,-0.032 0.0656,-0.0627 0.135372,-0.0678 0.116266,-0.008 0.128117,0.006 0.140893,0.17036 0.0075,0.0987 -0.0056,0.20008 -0.02906,0.225 -0.02876,0.0306 -0.0051,0.0777 0.07114,0.14571 0.110379,0.0986 0.215496,0.11743 0.193237,0.0344 -0.0062,-0.023 0.02789,-0.064 0.07469,-0.0906 0.08948,-0.0509 0.156902,0.007 0.200668,0.16985 0.01372,0.0512 0.07542,0.14857 0.137157,0.2163 0.0878,0.0963 0.123012,0.10788 0.16183,0.0529 0.03699,-0.0521 0.06316,-0.0579 0.101884,-0.0211 0.02906,0.0273 0.02904,0.064 7.37e-4,0.0827 -0.07478,0.0493 -0.04401,0.1089 0.05803,0.11071 0.04899,8.5e-4 0.13053,0.006 0.181098,0.013 0.0635,0.008 0.08672,-0.01 0.0736,-0.0588 -0.01046,-0.039 0.0112,-0.0926 0.04776,-0.11925 0.05008,-0.0364 0.06445,-0.0245 0.06109,0.0483 -0.0062,0.13777 0.293765,0.16353 0.369703,0.032 0.06046,-0.10472 0.116657,-0.12661 0.177831,-0.0691 0.02632,0.0248 0.101482,0.0125 0.185007,-0.0303 0.172242,-0.0881 0.19497,-0.11902 0.105353,-0.14592 -0.03786,-0.0115 -0.06552,-0.059 -0.06057,-0.10628 0.0077,-0.0736 0.02106,-0.079 0.09322,-0.0373 0.0463,0.0267 0.09079,0.0734 0.09899,0.10401 0.0085,0.0319 0.04442,0.0348 0.08221,0.007 0.03693,-0.0268 0.09499,-0.057 0.129374,-0.0662 0.04598,-0.0123 0.04215,-0.0699 -0.01343,-0.21201 l -0.07569,-0.19478 0.12779,0.0856 c 0.121856,0.0815 0.132763,0.08 0.225349,-0.0235 0.05345,-0.0598 0.09036,-0.12359 0.08235,-0.14189 -0.05274,-0.11994 -0.03308,-0.15438 0.07153,-0.12239 0.05886,0.018 0.10106,0.0522 0.0938,0.0765 -0.01571,0.0523 0.0276,0.0443 0.1628,-0.0353 0.07587,-0.0437 0.08383,-0.0681 0.03247,-0.10446 -0.04871,-0.0346 -0.05834,-0.0794 -0.03285,-0.16239 0.04152,-0.13598 0.07037,-0.14891 0.171295,-0.0775 0.124852,0.0885 0.236879,-0.0707 0.159513,-0.22731 -0.04546,-0.092 -0.04238,-0.13885 0.01113,-0.17793 0.04309,-0.0312 0.09672,-0.0301 0.131173,0.002 0.04888,0.046 0.06868,0.038 0.117911,-0.0471 0.04999,-0.0866 0.04655,-0.11103 -0.02513,-0.16178 -0.07139,-0.0504 -0.07656,-0.0693 -0.02837,-0.12134 0.03092,-0.0338 0.08392,-0.0597 0.117504,-0.0566 0.02947,0.003 0.132268,-0.062 0.07723,-0.13304 -0.04084,-0.0527 -0.06674,-0.0223 -0.07619,-0.12671 -0.0066,-0.0724 -0.0083,-0.13112 0.0292,-0.15066 0.163524,-0.0852 0.137477,-0.27972 0.08054,-0.26446 -0.08114,0.0217 -0.142811,-0.0756 -0.04962,-0.15042 0.124065,-0.0995 0.110003,-0.23922 -0.02455,-0.2454 -0.134694,-0.006 -0.158571,-0.0863 -0.04369,-0.15147 0.101489,-0.0578 0.101666,-0.0658 0.0029,-0.17089 -0.04034,-0.0431 -0.106428,-0.0699 -0.146407,-0.0592 -0.06433,0.0172 -0.06544,0.009 -0.018,-0.0749 0.07036,-0.12186 -0.0532,-0.27429 -0.159747,-0.19687 -0.05313,0.0386 -0.06823,0.0305 -0.06136,-0.0354 0.01644,-0.15695 -0.06788,-0.21855 -0.18378,-0.1348 -0.07937,0.0573 -0.114762,0.0605 -0.149726,0.0123 -0.02605,-0.0358 -0.10577,-0.0482 -0.183344,-0.0274 -0.102746,0.0275 -0.142692,0.0145 -0.160706,-0.0527 -0.03132,-0.11688 -0.161748,-0.12845 -0.212173,-0.0191 -0.02713,0.0583 -0.08589,0.0875 -0.186112,0.0921 -0.110387,0.005 -0.162088,0.0362 -0.209726,0.12577 -0.0395,0.0744 -0.101324,0.1198 -0.165185,0.12025 -0.0766,4.4e-4 -0.105996,0.0357 -0.116505,0.13822 -0.0077,0.0754 -0.06417,0.17295 -0.125335,0.21709 -0.06835,0.0494 -0.09483,0.10285 -0.06874,0.13879 0.04249,0.0585 -0.02422,0.51597 -0.07125,0.48882 -0.123601,-0.0714 -0.07354,-2.17237 1.732049,-4.62315 0.772305,-1.04827 2.837614,-3.33633 4.139948,-4.13041 0.968897,-0.59077 1.594047,-0.69137 1.900917,-0.65058 0.0117,0.005 0.0203,0.0101 0.0364,0.0159 0.13711,0.0499 0.31625,0.24189 0.35256,0.3774 0.0149,0.0557 -6.6e-4,0.16679 -0.035,0.24691 -0.0756,0.17667 -0.0109,0.45566 0.12662,0.5444 0.14644,0.0946 0.11446,0.20424 -0.0659,0.22524 -0.11886,0.0138 -0.17291,0.0556 -0.25575,0.1996 -0.13106,0.227 -0.0815,0.48079 0.11321,0.58437 0.12492,0.0663 0.12652,0.0713 0.0668,0.18754 -0.0392,0.0767 -0.0963,0.11826 -0.159,0.11539 -0.16477,-0.008 -0.30869,0.10559 -0.34505,0.27167 -0.0447,0.20462 0.009,0.39904 0.1324,0.47865 0.12627,0.0815 0.0961,0.18055 -0.0558,0.18296 -0.15645,0.002 -0.2792,0.12347 -0.32158,0.31728 -0.0493,0.22538 -0.003,0.34424 0.1708,0.43573 0.12694,0.0669 0.14766,0.0985 0.12566,0.19156 -0.0218,0.0935 -0.0428,0.10609 -0.13128,0.0791 -0.20269,-0.0619 -0.43063,0.29169 -0.35941,0.55747 0.0138,0.0515 0.0926,0.1222 0.17488,0.1575 0.16073,0.0688 0.19702,0.22772 0.0496,0.21196 -0.11847,-0.0125 -0.28183,0.15595 -0.31987,0.32967 -0.0479,0.21905 0.002,0.33999 0.15013,0.36476 0.26838,0.0449 0.26829,0.24964 1e-5,0.32152 -0.11672,0.0313 -0.16308,0.0815 -0.21569,0.23328 -0.0803,0.23164 -0.0338,0.36754 0.1383,0.40217 0.22973,0.10936 0.33741,0.11584 0.27658,0.35335 -0.0118,0.0458 -0.0979,0.0672 -0.15711,0.0646 -0.14039,-0.006 -0.2131,0.10192 -0.21472,0.32075 -0.002,0.23469 0.12054,0.41045 0.23855,0.34321 0.15546,-0.0885 0.40362,0.17049 0.35649,0.37206 -0.0159,0.0675 -0.067,0.11507 -0.13377,0.12571 -0.0959,0.0153 -0.10321,0.0421 -0.0642,0.23761 0.0318,0.15911 0.0766,0.24422 0.16109,0.30565 0.10528,0.0765 0.12613,0.0757 0.20595,-0.008 0.078,-0.0822 0.0972,-0.0847 0.15806,-0.0231 0.0381,0.0385 0.11078,0.0591 0.16146,0.0456 0.15147,-0.0406 0.1975,0.32465 0.0515,0.40777 -0.11693,0.0666 -0.0873,0.12803 0.13438,0.27589 0.19259,0.12852 0.38644,0.13642 0.35373,0.0144 -0.0152,-0.0567 0.13124,-0.26949 0.19799,-0.28737 0.0129,-0.003 0.0793,0.0291 0.14761,0.0717 0.13905,0.087 0.22644,0.33105 0.16013,0.44769 -0.0537,0.0945 0.0919,0.16215 0.35375,0.16414 0.19498,0.001 0.26868,-0.0457 0.20586,-0.13218 -0.0228,-0.0315 -0.026,-0.13192 -0.008,-0.22299 0.0279,-0.13677 0.0487,-0.15955 0.11831,-0.12746 0.14203,0.0653 0.3148,0.3193 0.27544,0.40501 -0.0492,0.10698 0.14959,0.14384 0.36303,0.067 0.16167,-0.0582 0.16773,-0.0696 0.12819,-0.24032 -0.0233,-0.0985 -0.0297,-0.19913 -0.0155,-0.22375 0.0372,-0.0641 0.32033,0.14125 0.35063,0.25434 0.0182,0.068 0.048,0.082 0.10261,0.0495 0.0421,-0.025 0.14306,-0.0782 0.22404,-0.11831 0.10832,-0.0537 0.1359,-0.0921 0.10484,-0.1458 -0.19762,-0.34177 -0.18353,-0.45701 0.0361,-0.29267 0.11952,0.0894 0.14863,0.0898 0.35742,0.002 0.22167,-0.0933 0.2254,-0.0988 0.16255,-0.22598 -0.05,-0.10121 -0.0472,-0.13503 0.0125,-0.15102 0.0464,-0.0124 0.0878,0.0182 0.10371,0.0776 0.0294,0.1097 0.0295,0.1095 0.23654,-0.11152 0.1418,-0.15148 0.17712,-0.25718 0.0774,-0.23044 -0.0261,0.007 -0.0592,-0.0313 -0.0736,-0.0851 -0.0196,-0.0731 -0.003,-0.096 0.0681,-0.0932 0.0519,0.002 0.18252,-0.0671 0.29085,-0.15444 0.15894,-0.12799 0.1831,-0.16854 0.12521,-0.20955 -0.0752,-0.0532 -0.0716,-0.1667 0.008,-0.15456 0.10742,0.0165 0.27709,-0.24497 0.39367,-0.41364 0.0992,-0.14342 0.0979,-0.24116 0.14192,-0.42287 0.0471,-0.19467 -0.0413,-0.14643 0.015,-0.25345 0.0167,-0.0316 0.006,-0.12259 -0.0124,-0.25922 -0.0289,-0.21487 0.21454,-0.38739 -0.006,-0.54518 -0.12189,-0.0871 0.007,-0.24555 0.077,-0.45314 0.0243,-0.0716 -0.0634,-0.25602 -0.16571,-0.33253 -0.0664,-0.0497 -0.1024,-0.23728 -0.0699,-0.31079 0.042,-0.095 -0.074,-0.25677 -0.16698,-0.23185 -0.0895,0.024 -0.22676,-0.15558 -0.15562,-0.20332 0.023,-0.0155 0.0316,-0.07 0.0178,-0.1214 -0.0138,-0.0514 -0.0409,-0.0772 -0.0601,-0.0567 -0.0193,0.0204 -0.0576,-0.002 -0.085,-0.05 -0.0299,-0.0525 -0.0896,-0.0771 -0.14958,-0.0611 -0.0845,0.0226 -0.10013,0.006 -0.10196,-0.10696 -0.001,-0.0939 -0.0157,-0.11936 -0.0476,-0.0857 -0.0284,0.0302 -0.0547,0.0115 -0.071,-0.0494 -0.0207,-0.0772 -0.0567,-0.0891 -0.17184,-0.0583 -0.1664,0.0312 -0.18215,-0.0127 -0.18951,-0.14022 -0.016,-0.27594 0.56681,-1.15447 1.06603,-1.68197 0.51418,-0.5433 1.37181,-1.40881 2.17868,-1.58261 0.58298,-0.12557 1.11004,-0.073 1.36424,-0.0799 0.13337,-0.004 0.27766,0.0741 0.26846,0.10942 -0.0335,0.12878 0.0276,0.35939 0.17824,0.46156 0.15428,0.10434 0.38757,0.10608 0.49732,0.003 0.0516,-0.0484 0.0843,-0.0487 0.1174,-0.003 0.069,0.095 0.14678,0.0506 0.11559,-0.0658 -0.0151,-0.0564 -0.0104,-0.0921 0.0107,-0.0799 0.0687,0.0397 0.0349,0.48458 -0.0423,0.55702 -0.12911,0.12104 -0.0347,0.30475 0.23119,0.44951 0.25523,0.13902 0.38871,0.13808 0.45347,-0.003 0.0219,-0.0477 0.0694,-0.0951 0.10517,-0.10469 0.0358,-0.01 0.0537,-0.0403 0.0391,-0.0677 -0.0146,-0.0275 -0.002,-0.067 0.0274,-0.0876 0.11727,-0.0826 0.11767,0.39858 4.6e-4,0.54878 -0.10595,0.13575 -0.0114,0.31378 0.23664,0.44591 0.23349,0.12438 0.34228,0.0204 0.47752,-0.1087 0.19312,-0.18431 0.40131,-0.0476 0.30735,0.33441 -0.0343,0.13945 0.0214,0.19728 0.32899,0.25745 0.30878,0.0604 0.33065,0.0238 0.37906,-0.12672 0.0746,-0.23193 0.17015,-0.2242 0.26689,-0.17798 0.16251,0.0776 0.21839,0.20786 0.18034,0.27375 -0.0765,0.13245 0.003,0.16462 0.3424,0.13776 0.37638,-0.0298 0.42324,-0.0525 0.32253,-0.15599 -0.0764,-0.0785 -0.0756,-0.41094 0.001,-0.43147 0.0279,-0.007 0.11205,0.0275 0.18671,0.0778 0.0982,0.0667 0.13614,0.12712 0.13766,0.22206 0.002,0.1107 0.0148,0.123 0.0849,0.0811 0.0453,-0.0272 0.19023,-0.0934 0.32218,-0.14731 0.24545,-0.10035 0.2726,-0.13547 0.15528,-0.20318 -0.0492,-0.0284 -0.0542,-0.0734 -0.0195,-0.16864 0.026,-0.0712 0.0368,-0.16822 0.0241,-0.21564 -0.0222,-0.0829 -0.0182,-0.0834 0.11667,-0.0318 0.0768,0.0295 0.15041,0.0914 0.16365,0.13752 0.0412,0.14212 0.1659,0.10872 0.38985,-0.10239 0.22182,-0.2097 0.23794,-0.33772 0.0523,-0.4158 -0.045,-0.0189 -0.0913,-0.0689 -0.10255,-0.11108 -0.0173,-0.0645 7.1e-4,-0.0719 0.11255,-0.0531 0.073,0.0122 0.14,0.0492 0.14894,0.0826 0.0453,0.16896 0.22871,0.0477 0.44135,-0.2916 0.10278,-0.1639 0.10554,-0.29095 0.006,-0.26471 -0.0326,0.009 -0.11031,-0.0358 -0.1725,-0.0988 l -0.11314,-0.11467 0.16194,0.0134 c 0.0891,0.007 0.19408,0.0371 0.23352,0.0669 0.0604,0.0455 0.0857,0.0267 0.1597,-0.11878 0.0483,-0.0951 0.10952,-0.26608 0.13577,-0.37985 0.0474,-0.20603 0.0474,-0.20682 -0.0532,-0.20617 -0.0554,3.5e-4 -0.11966,-0.0255 -0.14261,-0.057 -0.0484,-0.0667 0.10344,-0.0676 0.18488,-8.8e-4 0.0714,0.0585 0.1674,-0.16929 0.1972,-0.468 0.0135,-0.1356 0.0435,-0.28009 0.0664,-0.32113 0.0414,-0.074 0.10781,-0.6119 0.0857,-0.69439 -0.006,-0.0237 -0.0498,-0.052 -0.0968,-0.0639 -0.0719,-0.0182 -0.0663,-0.0562 0.0388,-0.23831 0.18995,-0.32897 0.1728,-0.63785 -0.0892,-1.64261 -0.19159,-0.73437 -0.23137,-0.84418 -0.32596,-0.90508 -0.059,-0.0381 -0.12705,-0.14227 -0.15178,-0.2311 -0.0247,-0.0887 -0.0898,-0.2064 -0.14439,-0.26145 -0.0546,-0.055 -0.11196,-0.14778 -0.12844,-0.2058 -0.0227,-0.0809 -0.0544,-0.0963 -0.13373,-0.0658 -0.0834,0.0317 -0.10602,0.0191 -0.11754,-0.0712 -0.008,-0.0688 -0.0918,-0.16977 -0.21701,-0.26285 -0.16312,-0.12123 -0.22332,-0.13946 -0.30594,-0.0935 -0.0737,0.0409 -0.101,0.0381 -0.0958,-0.0101 0.0181,-0.17273 -0.47209,-0.30347 -0.53238,-0.14197 -0.0228,0.0612 -0.0284,0.0593 -0.0251,-0.01 0.002,-0.0486 -0.0194,-0.0957 -0.0494,-0.10445 -0.0713,-0.0214 -0.0408,-0.11371 0.0457,-0.1369 0.0374,-0.01 0.18627,-0.11866 0.33076,-0.24111 0.14448,-0.12246 0.36667,-0.29448 0.49347,-0.3826 0.1268,-0.0881 0.31286,-0.21809 0.41418,-0.28913 0.10127,-0.0712 0.20677,-0.12239 0.23424,-0.11412 0.0275,0.008 0.0967,0.0943 0.15304,0.19172 0.0818,0.14125 0.13983,0.18184 0.28731,0.20175 0.21129,0.0285 0.32482,-0.0281 0.42363,-0.21197 l 0.0693,-0.12877 0.14977,0.10967 c 0.0824,0.0604 0.17051,0.16213 0.19597,0.22623 0.0373,0.094 0.0763,0.11191 0.20146,0.091 0.0852,-0.0145 0.20608,-0.0753 0.26811,-0.1355 l 0.11283,-0.10995 c 0.0536,-0.0514 0.05,-0.0542 0.15578,-0.0376 0.0694,0.0106 0.10464,0.0343 0.11273,0.14098 0.0118,0.16165 0.0905,0.14343 0.32662,-0.0769 0.0982,-0.0914 0.19419,-0.17362 0.21315,-0.18284 0.0582,-0.0269 0.45434,-0.50893 0.44701,-0.54403 -0.004,-0.018 -0.0541,-0.0346 -0.11267,-0.0372 -0.0975,-0.004 -0.0932,-0.024 0.0496,-0.23211 0.0858,-0.12495 0.18227,-0.22834 0.2145,-0.22973 0.0747,-0.003 0.1118,-0.31289 0.0947,-0.65506 -0.002,-0.0319 -0.11118,1.8e-4 -0.11622,-4.4e-4 -0.0336,-0.004 -0.0851,0.0476 -0.10676,0.0348 -0.0429,-0.0249 -0.01,-0.14226 0.0475,-0.14808 0.0811,-0.008 0.15804,0.0281 0.16161,-0.006 0.008,-0.0731 -0.0101,-0.14668 -0.0226,-0.21811 -0.0211,-0.12082 -0.007,-0.33947 -0.0801,-0.38765 -0.0436,-0.0286 -0.1038,0.052 -0.21114,0.10296 z m -3.76839,-7.61856 -0.13119,0.004 c -0.15538,0.004 -0.18503,-0.008 -0.20469,-0.081 -0.85335,-0.1281 -2.43304,0.40171 -0.11662,-0.36144 0.21539,0.0387 0.25509,0.0664 0.34765,0.24122 z m -0.79604,13.24575 c 0.063,0.144 0.0123,0.29432 0.0325,0.48883 -0.24893,-0.0952 -0.47357,-0.42367 -0.53923,-0.66871 -0.0468,-0.17482 -0.0463,-0.17519 0.11132,-0.16357 0.1979,0.0146 0.28237,0.0852 0.39537,0.34345 z m -0.0954,1.63054 c -0.29301,0.0652 -0.91709,-0.0718 -1.09516,-0.66097 -0.0656,-0.21779 -0.037,-0.24897 -0.0225,-0.33744 0.0618,-0.0135 0.20411,0.0661 0.37494,0.2612 0.12723,0.14525 0.30622,0.32898 0.39771,0.40809 0.0915,0.0791 0.17436,0.17352 0.18417,0.21013 0.0259,0.0735 0.10594,0.0812 0.16082,0.119 z m -6.53586,-20.47877 c 0.0136,0.0313 -0.003,0.0443 -0.0282,0.0883 -0.0662,0.11464 -0.10138,0.10329 -0.34822,-0.11159 -0.25873,-0.22524 -0.36053,-0.47313 -0.31933,-0.77845 0.0228,-0.16909 0.13292,-0.37712 0.15865,-0.30038 0.008,0.0222 0.0614,0.18996 0.1197,0.37292 0.0658,0.2057 0.16761,0.40838 0.26641,0.53102 0.0943,0.11708 0.13755,0.16678 0.15102,0.19814 z m -12.716351,-7.09032 c -0.01051,0.0273 -0.0629,0.0481 -0.160375,0.0644 -0.224586,0.0376 -0.478436,0.19993 -0.468163,0.29932 0.0037,0.0408 0.0027,0.11072 -0.0028,0.15536 -0.004,0.0322 0.0091,0.0608 0.03044,0.0865 -0.069,-0.0558 -0.13372,-0.14127 -0.147834,-0.29208 -0.01458,-0.15642 0.05388,-0.28221 0.179845,-0.39701 0.12874,-0.11733 0.291201,-0.12553 0.467026,-0.024 0.07741,0.0447 0.111737,0.0797 0.102092,0.10746 z m 8.684521,34.83099 c 0.0214,0.0799 0.0152,0.15215 -0.0139,0.15994 -0.0292,0.008 -0.0705,-0.0515 -0.092,-0.13158 -0.0214,-0.0799 -0.0151,-0.15165 0.014,-0.15944 0.0292,-0.008 0.0704,0.051 0.0919,0.13108 z m -10.385746,3.22689 c -0.06261,0.0862 -0.04536,0.12667 -0.0278,0.23162 -0.04402,-0.0515 -0.112281,-0.17679 0.0278,-0.23162 z m -0.228372,0.39556 c -0.155204,-0.0469 -0.264487,-0.225 -0.127788,-0.46918 -0.06,0.16817 0.0024,0.33191 0.127788,0.46918 z"
       sodipodi:nodetypes="scccccccscscscsscccsccccccscccscccccsccccscccssscsccccsccccsccccsccccsccccccccscccccccscccccccssscsccccccsssssscccccccccsssccsssscccsscscssccccscccccccscccccccscscscsccccsccscccscscccccsccccsccsccccsscscccccccscccsccccsccccccsscccccssccccccccccsccccscccccsscscccccccssccscccccssccccsccccccccccsscscccccscccssscsscsssscccccccscsssccccccscccccsccsccssccscssccscsscsscccscccsccsscccscscsccccssccsccscccscccccccssssccccsccsssccsscscsccccsccscccsscccscsscccccccccccccccccccccccccccccccccccscccscccscccccccsscccccscccccsssccccccsccscccscscscccccscccccscccccccscsccccscccccsscccccccsssccsccsccccccscccssccccsccccccccscccsccssccsccccsccscsccccsscsscccsssssssscscsccsccsccsccscsssscccssccssccssscssccscccsccccscscscccccccccccsccccsscccsccsccscscscccccccccccccccccsssssssssccccscsccccsssccccssscccscssscccsssssccccccccccccc" /></g></svg>
