<?xml version="1.0" encoding="UTF-8" standalone="no"?>
<!-- Created with Inkscape (http://www.inkscape.org/) -->

<svg
   xmlns:dc="http://purl.org/dc/elements/1.1/"
   xmlns:cc="http://creativecommons.org/ns#"
   xmlns:rdf="http://www.w3.org/1999/02/22-rdf-syntax-ns#"
   xmlns:svg="http://www.w3.org/2000/svg"
   xmlns="http://www.w3.org/2000/svg"
   xmlns:sodipodi="http://sodipodi.sourceforge.net/DTD/sodipodi-0.dtd"
   xmlns:inkscape="http://www.inkscape.org/namespaces/inkscape"
   width="2783.875"
   height="2332.5801"
   viewBox="0 0 736.56691 617.16183"
   version="1.1"
   id="svg8"
   inkscape:version="0.92.4 (5da689c313, 2019-01-14)"
   sodipodi:docname="Antarctica-side.svg"
   inkscape:export-filename="G:\Pictures\My Pictures\Vectors and SVGs\Antarctica1.png"
   inkscape:export-xdpi="96"
   inkscape:export-ydpi="96">
  <defs
     id="defs2">
    <inkscape:path-effect
       effect="simplify"
       id="path-effect819"
       is_visible="true"
       steps="10"
       threshold="0.002"
       smooth_angles="0"
       helper_size="5"
       simplify_individual_paths="false"
       simplify_just_coalesce="false" />
  </defs>
  <sodipodi:namedview
     id="base"
     pagecolor="#ffffff"
     bordercolor="#666666"
     borderopacity="1.0"
     inkscape:pageopacity="0.0"
     inkscape:pageshadow="2"
     inkscape:zoom="0.24748737"
     inkscape:cx="1701.1623"
     inkscape:cy="1074.5398"
     inkscape:document-units="mm"
     inkscape:current-layer="layer1"
     showgrid="false"
     inkscape:showpageshadow="false"
     borderlayer="true"
     inkscape:pagecheckerboard="true"
     units="px"
     inkscape:window-width="1600"
     inkscape:window-height="837"
     inkscape:window-x="-8"
     inkscape:window-y="-8"
     inkscape:window-maximized="1"
     fit-margin-top="0"
     fit-margin-left="0"
     fit-margin-right="0"
     fit-margin-bottom="0" />
  <metadata
     id="metadata5">
    <rdf:RDF>
      <cc:Work
         rdf:about="">
        <dc:format>image/svg+xml</dc:format>
        <dc:type
           rdf:resource="http://purl.org/dc/dcmitype/StillImage" />
        <dc:title></dc:title>
      </cc:Work>
    </rdf:RDF>
  </metadata>
  <g
     inkscape:label="Layer 1"
     inkscape:groupmode="layer"
     id="layer1"
     transform="translate(-33.06703,406.71127)">
    <path
       style="fill:#555555;fill-opacity:1;stroke-width:0.12353601"
       d="m 546.52937,210.45057 c -9.71826,-8.52556 -22.94285,-2.35366 -34.28518,-2.99294 -11.09335,-0.67626 -17.65193,-17.78417 -24.77159,-18.82339 3.23347,4.1353 0.57592,14.68497 -4.53696,6.9139 -6.60918,-5.46228 -6.67629,9.63827 -14.8961,4.9807 -7.99423,-3.94635 -17.52891,-6.72531 -24.71194,-10.22906 0.47263,-5.33064 0.40314,-13.76208 3.55611,-15.50038 -3.13594,-4.50051 -4.11772,-11.3749 3.78135,-9.41594 6.54643,-2.78292 4.82251,-11.37307 10.68077,-14.82914 -2.30205,-6.96752 -1.47953,-11.92616 4.49028,-16.49883 4.94684,-7.43161 -1.01786,-16.18967 -3.43995,-23.52576 -4.10926,-8.69504 -9.77494,-16.512007 -14.53076,-24.84395 -7.25251,-3.066151 -9.18777,-12.232253 0.391,-13.023219 8.13274,-7.578283 3.54973,-19.93914 -0.75588,-28.315569 C 440.3928,35.056509 436.19294,23.54505 427.24696,15.700497 416.27162,11.489298 412.1036,-2.0435291 400.23484,-4.9422669 389.41391,-10.111304 376.36461,-15.09184 371.83294,-27.293896 c -3.64869,-9.494132 -22.76328,-13.840666 -23.27871,-0.321575 0.97567,11.018692 -1.2255,22.6067661 -11.89383,27.8280159 -7.49345,7.1559633 2.08192,20.3899881 -4.12054,25.6401601 -9.00963,-1.788714 -21.29629,-8.723451 -25.6593,4.197585 -0.63253,11.345253 5.58667,21.694759 9.43294,31.627428 -2.19686,9.023057 11.47407,20.469354 -0.82517,25.550432 -12.58491,4.422166 -10.8494,-13.716315 -20.51416,-16.544911 -5.41277,-1.307572 -8.68096,3.025962 -12.59271,-2.367371 -9.45928,0.07295 -6.64125,17.551658 -3.52227,17.580022 -7.40065,-7.772239 -14.7596,4.491738 -22.81493,-2.139515 -8.82755,-6.505728 -19.95235,-3.97716 -29.04908,-8.610654 C 216.47242,68.311346 210.92491,56.448342 201.85776,48.04809 193.64459,39.175353 186.95959,29.123556 179.35215,19.81102 176.51972,12.924279 166.52611,6.3499922 165.47631,2.5999825 c 6.11306,-1.1654181 12.13378,-11.4588995 2.17877,-10.0452116 -8.14859,0.7661807 -6.54328,-8.9773589 0.87147,-5.7289959 11.66305,-0.554464 2.16977,-12.825402 0.92849,-19.021305 -2.78196,-8.27386 -4.95519,-16.933029 -4.59972,-25.727158 -9.87765,-9.697239 -16.37113,15.101388 -22.93402,9.356414 -1.73777,-9.225867 -12.3693,-2.778525 -7.36809,4.259936 0.29677,6.668437 -9.18177,8.380303 -5.38617,0.241923 -0.83103,-16.266921 -1.6784,-32.555411 -1.47653,-48.832681 0.15978,-7.261254 -8.02598,-11.470934 -1.10728,-17.538384 1.44474,-10.89496 15.70382,-19.76965 9.09973,-30.74814 -9.1263,-10.49052 9.99927,-13.19157 8.62874,-23.7314 0.59307,-9.0031 -1.63816,-17.89241 -1.07261,-26.90678 -0.0753,-9.38274 -5.70115,-20.02753 -16.06365,-20.67107 -11.1612,-5.00688 -24.57442,-0.79249 -35.17668,-7.48674 -2.093788,-11.85881 -16.801701,-15.96001 -26.387096,-17.82734 -9.786501,-0.58937 -10.95587,-14.58617 -16.260849,-21.00147 -5.082123,-9.33182 -11.982709,-18.24331 -12.451275,-29.29089 -2.06558,-10.69979 -4.327362,-21.60862 -3.737235,-32.48266 -0.445045,-5.5674 7.046748,-10.33465 5.291157,-1.48094 3.715206,10.10894 5.804695,20.27873 4.772256,30.64585 3.290763,9.38653 15.532543,14.75283 13.92633,25.90386 4.90306,10.75557 12.327052,21.53413 24.798928,22.93093 6.084853,-1.73969 8.383302,-11.75085 16.581414,-6.85077 11.50528,1.6671 23.06296,3.70552 34.3336,6.35796 4.85028,4.36063 10.81301,10.58569 16.55425,7.7547 4.44983,3.7513 13.02535,1.64178 13.50833,9.10872 8.30583,4.17727 16.95978,9.66893 16.63192,19.5051 7.25379,5.98133 10.13993,14.19974 10.42763,23.23798 2.33836,10.1105 2.82145,21.23575 -2.44004,30.5275 -1.03314,12.94635 14.46794,1.75095 19.36343,0.7434 9.56121,3.71354 -6.65642,18.49153 -2.33877,18.45975 8.58514,-8.00292 19.55976,0.88837 22.27825,7.98971 -3.77974,-8.0772 5.3481,-17.89313 11.43138,-8.96492 5.68772,5.14889 14.29651,-1.84614 18.77699,-6.4219 4.87481,-7.48855 13.26133,-13.90048 22.44791,-9.37057 7.72842,1.93883 29.89588,4.93246 20.99835,-8.65564 -7.14374,-8.04749 -9.60455,-24.27646 4.87682,-25.09802 11.98712,-5.68864 -6.40051,-17.21959 -0.0788,-26.53131 1.54318,-8.80233 13.31491,-14.82395 8.41075,-24.66593 -2.5217,-7.3662 -11.35976,-12.47834 -18.65492,-8.4808 -13.22738,0.85255 -14.18207,-17.12773 -10.52496,-26.29083 3.71128,-15.28156 9.68639,-32.38369 24.70411,-39.91445 12.15429,-4.6743 8.93334,-18.42569 15.01456,-26.91849 7.30915,-5.4109 2.01327,-11.03177 -2.35643,-15.55054 0.50802,-11.40756 20.26191,-12.52833 17.37791,-26.29604 -1.81357,-10.3777 6.05719,-17.40831 14.33134,-11.76943 2.95604,-4.5019 4.51308,-16.993 10.00043,-7.06209 9.20022,5.01155 20.43187,-1.10515 29.19514,4.1448 8.88785,-5.88369 17.26584,-12.39814 28.59071,-12.37294 10.86529,-1.55037 22.3157,-0.84536 32.41891,3.71504 10.92016,1.5401 23.82261,-3.8928 32.8893,4.69992 9.01873,-0.54525 9.43149,12.76417 16.73605,12.09351 5.04773,-2.8554 9.78732,-0.57729 12.34891,2.34015 8.80648,2.5408 12.0623,17.97315 23.36119,11.80949 10.47496,-1.57766 25.45859,7.80694 32.54412,-3.08675 1.57037,-7.68401 15.02657,-11.53804 10.90697,-0.73973 -1.24197,10.22834 5.9885,19.19918 13.74264,24.92659 11.0188,0.98262 19.34623,-12.79614 30.82525,-6.41826 10.05156,2.58624 18.75434,10.0672 29.53434,9.69664 0.0303,8.7964 8.33264,16.67537 14.40987,8.46134 2.63857,4.58615 7.34201,11.5932 11.0637,3.20353 10.58318,-7.20462 22.59507,4.52805 26.73295,13.89189 3.13569,6.9264 1.00725,18.44556 -8.3005,18.3471 2.63948,10.38417 6.18922,20.56174 8.87149,30.89504 4.54034,11.6151 10.36019,23.03691 11.59226,35.62486 7.75615,8.16408 1.07587,23.16995 -10.47788,18.71069 -9.07794,3.04377 -20.27447,-2.19467 -27.99112,0.17132 -0.95291,4.28685 6.65434,8.95762 -2.32525,8.87665 -8.45166,-1.64904 -24.62925,-5.53262 -20.80841,8.84185 5.29905,10.95548 21.71825,3.34304 31.69946,6.15278 9.11482,-0.69402 14.14075,7.43488 18.96062,13.70588 4.03119,5.86692 10.15228,10.28818 17.39227,10.82235 13.71759,4.41543 18.85732,19.21112 26.37942,30.03942 8.63676,14.29764 10.47043,31.14819 13.57864,47.210837 2.03291,11.375265 -0.24429,22.755588 -0.90467,34.113198 -1.43555,11.228998 -4.56735,23.380616 1.46379,33.888749 5.29537,10.701726 -3.75087,21.097357 -10.01113,29.0497384 -5.93626,8.6603096 -21.37457,16.5305966 -12.7065,28.9029396 10.10508,4.204383 7.35198,18.130221 -2.09098,21.516136 -8.04181,4.229864 -20.83432,-2.679397 -23.71755,9.811802 -3.36509,10.05434 -11.89668,17.65263 -12.93401,28.636287 -2.06275,9.807183 -3.28807,20.831603 -10.98961,28.096273 -12.55967,-1.44834 -21.35124,13.85251 -14.11146,23.96713 0.8829,10.18105 -9.82039,14.95718 -16.55162,20.31673 -14.67016,14.24919 -34.71467,20.11384 -51.99101,30.28616 -6.55906,-0.41336 -13.10317,-12.57588 -17.41548,-1.59892 -8.17701,2.16373 -18.88422,-9.92781 -23.91159,2.08941 -7.08423,5.11893 -17.28822,2.03837 -23.93063,7.90209 -1.27578,1.49588 -1.46698,3.58878 -1.14564,5.44803 z"
       id="path5061"
       inkscape:connector-curvature="0" />
  </g>
</svg>
