<?xml version="1.0" encoding="UTF-8" standalone="no"?>
<!-- Created with Inkscape (http://www.inkscape.org/) -->

<svg
   xmlns:dc="http://purl.org/dc/elements/1.1/"
   xmlns:cc="http://creativecommons.org/ns#"
   xmlns:rdf="http://www.w3.org/1999/02/22-rdf-syntax-ns#"
   xmlns:svg="http://www.w3.org/2000/svg"
   xmlns="http://www.w3.org/2000/svg"
   xmlns:sodipodi="http://sodipodi.sourceforge.net/DTD/sodipodi-0.dtd"
   xmlns:inkscape="http://www.inkscape.org/namespaces/inkscape"
   width="174.02968mm"
   height="46.7756mm"
   viewBox="0 0 174.02968 46.7756"
   version="1.1"
   id="svg8"
   inkscape:version="0.92.4 (5da689c313, 2019-01-14)"
   sodipodi:docname="RMS_Titanic-side.svg">
  <defs
     id="defs2" />
  <sodipodi:namedview
     id="base"
     pagecolor="#ffffff"
     bordercolor="#666666"
     borderopacity="1.0"
     inkscape:pageopacity="0.0"
     inkscape:pageshadow="2"
     inkscape:zoom="0.98994949"
     inkscape:cx="328.19218"
     inkscape:cy="88.476434"
     inkscape:document-units="mm"
     inkscape:current-layer="layer1"
     showgrid="false"
     inkscape:pagecheckerboard="true"
     inkscape:showpageshadow="false"
     borderlayer="true"
     inkscape:snap-global="false"
     inkscape:window-width="1366"
     inkscape:window-height="713"
     inkscape:window-x="0"
     inkscape:window-y="0"
     inkscape:window-maximized="1"
     fit-margin-top="0"
     fit-margin-left="0"
     fit-margin-right="0"
     fit-margin-bottom="0" />
  <metadata
     id="metadata5">
    <rdf:RDF>
      <cc:Work
         rdf:about="">
        <dc:format>image/svg+xml</dc:format>
        <dc:type
           rdf:resource="http://purl.org/dc/dcmitype/StillImage" />
        <dc:title />
      </cc:Work>
    </rdf:RDF>
  </metadata>
  <g
     inkscape:label="Layer 1"
     inkscape:groupmode="layer"
     id="layer1"
     transform="translate(-13.163021,-96.744835)">
    <path
       style="fill:#555555;fill-opacity:1;stroke:none;stroke-width:0.99999994px;stroke-linecap:butt;stroke-linejoin:miter;stroke-opacity:1"
       d="M 546.41211 0.009765625 C 546.20865 -0.051634374 545.9711 0.15397126 545.73438 0.76953125 C 545.63488 1.0282412 544.96759 4.4089513 544.09375 8.9257812 C 447.72244 16.511601 219.1801 21.148267 117.42969 7.4042969 C 118.52631 7.1510569 119.45117 6.8320312 119.45117 6.8320312 L 119.07227 1.1503906 C 116.16809 2.4130806 114.14667 1.1493906 112.37891 1.2753906 C 110.61115 1.4016706 110.48633 1.5273438 110.48633 1.5273438 C 110.48633 1.5273438 110.99062 0.13867188 109.98047 0.13867188 C 108.97032 0.13867188 109.09629 0.13966628 108.84375 2.1601562 C 108.82535 2.3075462 108.27935 5.1757219 108.11523 6.0761719 L 0.41992188 109.39648 C 0.27769288 109.38358 0.142441 109.37433 0 109.36133 C 0 109.36133 0.03331625 109.84696 0.03515625 109.875 A 0.50121346 0.50121346 0 0 0 0.0546875 110.17578 C 0.2145645 112.61875 3.0589166 155.95557 4.0410156 160.375 C 5.0511696 164.92068 9.5955809 168.20293 29.041016 172.49609 C 48.486449 176.78922 56.315275 176.78906 66.921875 176.78906 L 567.21484 176.78906 C 584.1791 176.78906 610.60771 175.44113 614.71484 175.08398 C 618.82202 174.72681 616.67856 175.97631 624 175.61914 C 631.32144 175.26198 642.03545 176.15541 642.39258 163.83398 C 642.74974 151.51256 639.8934 148.65431 635.96484 142.4043 C 632.03629 136.15428 632.03516 130.97656 632.03516 130.97656 C 632.03516 130.97656 652.39258 122.22712 652.39258 119.19141 C 652.39258 116.15569 651.5 117.22657 651.5 115.97656 L 651.5 114.19141 L 651.41016 114.19531 L 652.70508 110.0332 C 654.99243 110.84923 655.69727 114.36914 655.69727 114.36914 C 655.69727 114.36914 656.0536 111.95954 656.5 111.42383 C 656.9464 110.88812 657.75 110.08398 657.75 110.08398 C 657.75 110.08398 656.67772 109.81549 656.05273 108.74414 C 655.47247 107.74945 656.04273 104.91067 654.55664 104.08008 L 654.67383 103.70508 A 0.50004995 0.50004995 0 0 0 654.19922 103.04492 A 0.50004995 0.50004995 0 0 0 654.14258 103.04688 L 654.14258 103.04883 A 0.50004995 0.50004995 0 0 0 653.72266 103.40234 L 650.34961 114.24023 L 618.02344 115.62695 L 545.70703 8.4082031 L 546.74414 2.5371094 L 546.99805 5.5683594 C 546.99805 5.5683594 548.13399 5.3164925 550.1543 5.6953125 C 552.17461 6.0741125 556.3418 5.4414062 556.3418 5.4414062 L 553.68945 4.1796875 L 556.97266 2.2851562 C 556.97266 2.2851562 554.70088 1.7807694 553.56445 2.4121094 C 552.42806 3.0434594 551.67031 1.77998 550.66016 1.90625 C 549.65 2.03252 548.0082 1.14863 546.99805 1.90625 C 546.99805 0.95923001 546.7512 0.11211562 546.41211 0.009765625 z M 110.10742 2.0332031 L 110.75195 6.4414062 C 110.2963 6.3721063 109.8344 6.304505 109.38477 6.234375 L 110.10742 2.0332031 z M 109.22656 7.2148438 C 113.03928 7.8096937 117.06981 8.3752163 121.29688 8.9101562 L 114.47266 33.146484 L 109.22656 7.2148438 z M 107.80273 7.7636719 C 106.97919 12.215152 105.62998 19.371803 103.67188 29.664062 L 46.775391 73.871094 C 45.18247 71.198214 44.297325 69.651647 43.943359 69.029297 L 107.80273 7.7636719 z M 122.29688 9.0390625 C 149.36372 12.409352 184.43823 14.582421 223.1543 15.837891 L 212.45312 94.714844 L 209.69922 94.714844 L 197.10156 65.621094 L 197.73828 61.757812 L 196.22266 61.632812 L 195.96875 63.525391 L 194.95898 63.273438 L 197.10547 54.939453 L 179.17578 52.035156 L 179.17578 52.402344 C 158.0937 50.346924 136.84098 45.185859 115.08984 34.636719 L 122.29688 9.0390625 z M 545.45703 9.8261719 L 574.63672 53.09375 L 545.35742 10.384766 L 545.45703 9.8261719 z M 108.75391 9.8945312 L 113.61133 33.914062 C 110.8708 32.555443 108.1225 31.107836 105.36523 29.572266 L 108.75391 9.8945312 z M 543.34961 9.9863281 L 519.26172 33.316406 L 514.30859 11.939453 C 524.92925 11.319943 534.64811 10.664718 543.34961 9.9863281 z M 543.68555 11.048828 C 542.68754 16.237838 541.29453 23.629846 539.82812 31.416016 L 522.06836 45.4375 L 519.52344 34.451172 L 543.68555 11.048828 z M 545.23438 11.974609 L 592.82617 81.392578 C 587.27415 98.134318 574.69212 115.72022 573.36914 117.54297 L 572.39258 117.58398 L 572.39258 119.72656 L 570.96484 119.72656 L 570.96484 122.94141 L 545.96484 123.83398 L 545.96484 110.97656 L 545.72852 110.97656 L 545.23438 11.974609 z M 513.29492 12 L 518.42188 34.128906 L 466.26562 84.640625 L 457.21484 74.734375 L 455.86133 70.251953 L 457.09375 62.894531 L 455.83203 62.642578 L 455.45312 64.410156 L 454.82031 64.158203 L 456.33594 55.949219 L 438.5332 53.171875 L 437.90039 59.359375 L 436.25977 59.107422 L 434.50195 69.318359 L 402.33789 96.734375 L 395.72656 96.734375 L 395.72656 92.693359 L 379.13086 92.693359 L 368.34375 74.466797 L 370.34766 62.894531 L 368.95898 62.642578 L 368.58008 64.537109 L 367.82227 64.158203 L 369.71484 55.824219 L 351.78516 53.171875 L 351.1543 59.107422 L 349.25977 58.853516 L 347.04492 72.103516 L 322.61523 101.91211 L 317.43945 101.91211 L 314.14258 96.199219 L 314.14258 91.683594 L 308.47461 91.683594 L 308.47461 96.861328 L 306.20312 101.66016 L 298.27344 101.66016 L 280.8457 71.927734 L 282.46289 62.390625 L 280.94922 62.011719 L 280.57031 63.652344 L 279.68555 63.400391 L 281.45312 55.570312 L 263.65039 52.667969 L 263.14453 58.601562 L 261.75586 58.222656 L 258.91211 73.625 L 242.51172 93.451172 L 227.53711 93.451172 L 227.53711 96.355469 L 224.50586 96.355469 L 224.50586 98.628906 L 222.35938 98.628906 L 223.69141 96.322266 L 223.69141 94.714844 L 213.73438 94.714844 L 233.17188 16.150391 C 327.31185 18.779421 440.37696 16.21579 513.29492 12 z M 224.1582 15.871094 C 224.8472 15.893094 225.53725 15.914047 226.22852 15.935547 L 216.76172 70.388672 L 224.1582 15.871094 z M 227.23242 15.966797 C 227.69682 15.980997 228.1557 15.995766 228.62109 16.009766 L 218.82617 64.351562 L 227.23242 15.966797 z M 229.63672 16.042969 C 230.48109 16.067869 231.30482 16.097094 232.15234 16.121094 L 218.16797 72.652344 L 229.63672 16.042969 z M 544.26172 16.582031 L 544.70117 106.375 L 541.26562 33.521484 L 544.26172 16.582031 z M 105.21289 30.628906 C 108.10433 32.231816 110.98929 33.752079 113.86328 35.162109 L 113.88086 35.248047 L 109.99609 49.044922 L 105.21289 30.628906 z M 103.38867 31.148438 C 101.58879 40.605287 100.73381 45.101095 99.005859 54.140625 L 55.5 87.839844 C 55.37794 87.653234 55.24582 87.458927 55.125 87.273438 C 51.97249 82.433648 49.3033 78.082409 47.294922 74.730469 L 103.38867 31.148438 z M 539.54688 32.919922 C 538.30939 39.495192 537.16725 45.529202 535.83203 52.669922 L 526.11914 62.921875 L 522.31836 46.519531 L 539.54688 32.919922 z M 104.7832 32.951172 L 109.45898 50.953125 L 104.07227 70.078125 L 101.7207 58.857422 L 102.27734 55.697266 L 101.03516 55.585938 L 100.95312 55.197266 L 104.7832 32.951172 z M 518.68359 35.265625 L 521.19922 46.123047 L 468.83984 87.458984 L 466.94141 85.380859 L 518.68359 35.265625 z M 114.98828 35.695312 C 127.81445 41.883692 140.47498 46.219854 153.02539 49.152344 L 151.58398 98.25 L 149.33203 98.25 L 125.64844 88.394531 L 114.98828 35.695312 z M 114.31445 37.392578 L 124.5332 87.929688 L 119.55469 85.857422 L 110.49414 50.964844 L 114.31445 37.392578 z M 540.47266 38.011719 L 543.91797 110.97656 L 540.73047 110.97656 L 537.21289 56.445312 L 540.47266 38.011719 z M 521.44922 47.205078 L 525.29297 63.794922 L 492.95508 97.927734 L 492.95508 97.240234 L 487.65039 97.240234 L 487.65039 92.568359 L 476.91797 92.568359 L 476.91797 96.298828 L 469.51953 88.203125 L 521.44922 47.205078 z M 154.01562 49.375 C 156.18866 49.87029 158.35856 50.327628 160.52539 50.742188 L 154.4375 98.25 L 152.58789 98.25 L 154.01562 49.375 z M 161.50586 50.935547 C 167.41553 52.034587 173.30345 52.838193 179.17578 53.408203 L 179.17578 58.349609 L 176.90234 58.097656 L 174.07812 74.935547 L 158.79297 95.724609 L 158.08984 95.724609 L 158.08984 96.679688 L 156.93555 98.25 L 155.44141 98.25 L 161.50586 50.935547 z M 109.95703 52.871094 L 118.39844 85.376953 L 106.21484 80.306641 L 104.51562 72.197266 L 109.95703 52.871094 z M 535.49219 54.480469 C 532.94892 68.088119 532.2507 71.881203 530.44531 81.595703 L 526.38867 64.089844 L 535.49219 54.480469 z M 98.71875 55.632812 C 96.39939 67.763792 93.564453 82.59375 93.564453 82.59375 L 92.681641 82.59375 L 92.681641 83.982422 L 90.662109 83.982422 L 90.662109 87.265625 L 92.681641 87.265625 L 87.378906 113.5293 L 74.699219 113.36328 C 68.337829 106.53282 61.617147 97.128834 56.054688 88.677734 L 98.71875 55.632812 z M 101.25391 61.496094 L 103.48633 72.15625 L 100.13867 84.048828 L 99.761719 69.957031 L 101.25391 61.496094 z M 536.14258 62.501953 L 536.14258 106.19531 L 531.76172 87.28125 L 536.14258 62.501953 z M 525.5625 64.960938 L 529.98633 84.056641 C 528.63606 91.324631 525.91016 105.95312 525.91016 105.95312 L 511.64258 105.95312 L 505.32812 103.42773 C 505.32812 101.28116 501.79297 101.28124 501.79297 103.80664 L 492.95508 103.80664 L 492.95508 99.378906 L 525.5625 64.960938 z M 196.80273 67.4375 L 208.61133 94.714844 L 208.10352 94.714844 L 195.99023 72.367188 L 196.80273 67.4375 z M 42.587891 70.330078 L 45.1875 75.103516 L 43.683594 76.273438 A 0.50004997 0.50004997 0 0 0 43.675781 76.273438 A 0.50004997 0.50004997 0 0 0 43.205078 76.646484 L 5.3320312 106.07227 L 42.587891 70.330078 z M 537.14648 70.953125 L 539.72266 110.97656 L 537.25 110.97656 L 537.14648 110.5293 L 537.14648 70.953125 z M 433.7207 71.294922 L 416.42578 97.240234 L 414.66797 97.240234 L 414.66797 102.41602 L 413.02539 102.41602 L 413.02539 96.734375 L 403.88086 96.734375 L 433.7207 71.294922 z M 455.49023 72.464844 L 455.66211 73.037109 L 455.43555 72.789062 L 455.49023 72.464844 z M 433.89453 72.839844 L 432.78125 79.306641 L 420.48828 92.949219 L 433.89453 72.839844 z M 280.58594 73.460938 L 297.11914 101.66016 L 288.52539 101.66016 L 288.52539 97.113281 L 283.0957 97.113281 L 283.0957 98.880859 L 276.27734 98.880859 L 280.58594 73.460938 z M 195.72656 73.974609 L 206.96484 94.714844 L 198.52344 94.714844 L 194.33984 82.388672 L 195.72656 73.974609 z M 455.22656 74.039062 L 456.33008 75.248047 L 460.76758 89.964844 L 459.23438 91.451172 L 454.11328 80.679688 L 455.22656 74.039062 z M 346.71289 74.089844 L 342.56836 98.880859 L 334.86523 98.880859 L 334.86523 101.91211 L 323.91211 101.91211 L 346.71289 74.089844 z M 103.92969 74.273438 L 105.28516 80.740234 L 100.27734 89.273438 L 100.22852 87.425781 L 103.92969 74.273438 z M 98.888672 74.902344 L 99.220703 87.302734 L 97.357422 93.921875 L 97.701172 81.636719 L 98.888672 74.902344 z M 46.501953 75.345703 C 48.511573 78.695573 51.159376 83.010639 54.291016 87.818359 C 54.426146 88.025829 54.572334 88.244255 54.708984 88.453125 L 53.929688 89.056641 L 46.470703 75.371094 L 46.501953 75.345703 z M 258.54102 75.636719 L 254.81055 95.851562 L 247.36133 95.851562 L 247.36133 93.451172 L 243.80469 93.451172 L 258.54102 75.636719 z M 368.08008 75.988281 L 378.68164 93.892578 L 378.68164 97.871094 L 370.9668 97.871094 L 367.46484 79.535156 L 368.08008 75.988281 z M 45.671875 75.992188 L 53.128906 89.677734 L 36.095703 102.87109 C 39.878472 94.899584 43.408798 85.537964 44.146484 77.177734 L 45.671875 75.992188 z M 457.88086 76.945312 L 465.54688 85.335938 L 461.57422 89.183594 L 457.88086 76.945312 z M 173.71094 77.117188 L 170.58984 95.724609 L 160.03125 95.724609 L 173.71094 77.117188 z M 43.056641 78.023438 C 42.093292 86.585467 38.237139 96.258556 34.304688 104.25977 L 25.158203 111.34375 C 22.540645 111.17207 19.943988 110.97623 17.345703 110.7832 L 23.632812 102.59766 L 23.080078 101.81445 L 13.734375 104.8418 L 13.386719 105.32227 L 13.386719 110.49805 C 9.7854668 110.2153 6.1343941 109.89781 2.4550781 109.57031 L 43.056641 78.023438 z M 432.46289 81.15625 L 429.69336 97.240234 L 417.9668 97.240234 L 432.46289 81.15625 z M 106.09375 81.337891 L 118.71289 86.589844 L 125.51172 112.76758 L 125.51172 119.08398 L 122.73438 119.08398 L 122.73438 121.35742 L 101.10352 120.30273 L 100.32617 91.162109 L 106.09375 81.337891 z M 366.98047 82.326172 L 369.87109 97.457031 C 369.32006 95.926361 369.26084 95.771429 368.64062 94.042969 C 367.74808 91.555539 366.87669 89.114061 366.15625 87.082031 L 366.98047 82.326172 z M 453.82617 82.400391 L 458.47852 92.183594 L 451.36719 99.070312 L 451.0332 99.070312 L 453.82617 82.400391 z M 593.5293 82.416016 L 616.34766 115.69922 L 574.64062 117.48828 C 577.48656 113.48203 588.28571 97.718815 593.5293 82.416016 z M 193.99219 84.494141 L 197.4668 94.714844 L 192.30859 94.714844 L 193.99219 84.494141 z M 466.22266 86.076172 L 468.05273 88.080078 L 462.55273 92.423828 L 461.90039 90.261719 L 466.22266 86.076172 z M 119.86914 87.072266 L 124.77344 89.113281 L 130.28906 116.39258 L 130.05664 116.55859 L 130.05664 117.82227 L 128.66797 117.82227 L 128.66797 111.12891 L 126.11719 111.12891 L 119.86914 87.072266 z M 96.515625 88.351562 L 96.300781 96.048828 L 94.666016 98.833984 L 96.515625 88.351562 z M 468.73242 88.824219 L 476.30469 97.113281 L 466.81641 97.113281 L 464.85938 99.070312 L 464.55859 99.070312 L 462.86523 93.457031 L 468.73242 88.824219 z M 365.80859 89.09375 C 366.41333 90.7923 367.01705 92.490649 367.69531 94.380859 C 368.32886 96.146469 368.3922 96.314924 368.95312 97.871094 L 364.28711 97.871094 L 365.80859 89.09375 z M 55.263672 89.289062 C 60.644962 97.463932 67.087113 106.51971 73.314453 113.34375 L 68.185547 113.27734 L 68.185547 111.38281 L 66.095703 111.38281 L 54.414062 89.947266 L 55.263672 89.289062 z M 125.88867 89.576172 L 146.72852 98.25 L 139.7793 98.25 L 139.7793 114.66602 L 132.70898 114.66602 L 131.18359 115.75586 L 125.88867 89.576172 z M 531.31641 89.798828 L 536.14258 110.63086 L 536.14258 110.97656 L 527.57227 110.97656 L 531.31641 89.798828 z M 53.613281 90.566406 L 64.957031 111.38281 L 53.412109 111.38281 L 53.412109 112.77148 C 45.659229 112.48901 38.520119 112.12912 31.537109 111.7207 C 32.44176 110.08768 33.387575 108.33011 34.351562 106.42969 C 34.601054 105.93783 34.849589 105.41264 35.099609 104.90625 L 53.613281 90.566406 z M 99.3125 90.677734 L 99.318359 90.908203 L 99.181641 91.140625 L 99.3125 90.677734 z M 461.09375 91.042969 L 461.71094 93.087891 L 460.47656 94.0625 L 459.6875 92.404297 L 461.09375 91.042969 z M 99.367188 92.794922 L 100.10352 120.25391 L 96.847656 120.0957 L 96.632812 119.85156 L 97.244141 98.025391 L 98.115234 94.931641 L 99.367188 92.794922 z M 458.93164 93.136719 L 459.67383 94.697266 L 454.13281 99.070312 L 452.80664 99.070312 L 458.93164 93.136719 z M 462.02148 94.123047 L 463.51367 99.070312 L 462.85742 99.070312 L 460.91992 94.994141 L 462.02148 94.123047 z M 460.11523 95.628906 L 461.75195 99.070312 L 455.75586 99.070312 L 460.11523 95.628906 z M 96.113281 98.341797 L 92.470703 111.27539 L 94.167969 101.6543 L 96.113281 98.341797 z M 96.134766 101.96289 L 95.666016 118.75391 L 93.060547 115.80078 L 92.238281 115.80078 L 96.134766 101.96289 z M 21.853516 103.26172 L 16.146484 110.69531 C 15.562505 110.65121 14.974998 110.61561 14.390625 110.57031 L 14.390625 105.68359 L 21.853516 103.26172 z M 33.285156 106.31445 C 32.306285 108.23233 31.342148 110.0258 30.431641 111.6582 C 29.186128 111.5838 27.898089 111.52025 26.664062 111.44141 L 33.285156 106.31445 z M 625.54102 159.16992 C 627.05587 159.18201 628.73356 159.66441 629.00977 166.625 C 629.32536 174.57992 627.68352 174.39292 624.40039 174.58008 C 621.4982 174.74562 620.1018 173.36669 620.35938 170.79102 C 620.54684 168.9169 623.32812 168.77148 623.32812 168.77148 C 623.32812 168.77148 623.51715 173.38086 624.52734 173.38086 C 625.5375 173.38086 625.59961 168.96094 625.59961 168.96094 C 625.59961 168.96094 627.74609 168.5193 627.74609 167.57227 C 627.74609 166.62527 625.78906 166.24609 625.78906 166.24609 C 625.78906 166.24609 625.72562 161.63672 624.65234 161.63672 C 623.57903 161.63672 623.32813 166.30859 623.32812 166.30859 C 621.30782 166.30859 620.67578 165.67896 620.67578 162.83789 C 620.67578 159.99686 623.26476 159.17578 624.90625 159.17578 C 625.11144 159.17578 625.32461 159.1682 625.54102 159.16992 z "
       transform="matrix(0.26458333,0,0,0.26458333,13.163021,96.744835)"
       id="path826" />
  </g>
</svg>
