<?xml version="1.0" encoding="UTF-8" standalone="no"?>
<!-- Created with Inkscape (http://www.inkscape.org/) -->

<svg
   width="255.10017mm"
   height="90.09182mm"
   viewBox="0 0 255.10017 90.09182"
   version="1.1"
   id="svg1"
   xml:space="preserve"
   inkscape:version="1.3 (0e150ed, 2023-07-21)"
   sodipodi:docname="Three Gorges Dam-top.svg"
   xmlns:inkscape="http://www.inkscape.org/namespaces/inkscape"
   xmlns:sodipodi="http://sodipodi.sourceforge.net/DTD/sodipodi-0.dtd"
   xmlns="http://www.w3.org/2000/svg"
   xmlns:svg="http://www.w3.org/2000/svg"><sodipodi:namedview
     id="namedview1"
     pagecolor="#505050"
     bordercolor="#ffffff"
     borderopacity="1"
     inkscape:showpageshadow="0"
     inkscape:pageopacity="0"
     inkscape:pagecheckerboard="1"
     inkscape:deskcolor="#505050"
     inkscape:document-units="mm"
     showguides="true"
     inkscape:zoom="0.59755838"
     inkscape:cx="427.57329"
     inkscape:cy="148.93942"
     inkscape:current-layer="layer1" /><defs
     id="defs1" /><g
     inkscape:label="Layer 1"
     inkscape:groupmode="layer"
     id="layer1"
     transform="translate(41.42827,-111.83007)"><path
       style="fill:#ffffff;fill-opacity:1;stroke:none;stroke-width:0.899999;stroke-linecap:round;stroke-linejoin:round"
       d="m 65.320534,200.94335 c -8.847998,-11.42179 -9.892782,-21.86337 -9.892782,-26.878 0,-5.01462 -0.0097,-19.69025 -0.0097,-19.69025 l 2.254482,-0.17717 v -0.51542 h -2.258237 l 0.112758,-6.31289 1.047533,0.12176 -0.102696,-1.35766 -0.922017,0.099 -0.471461,-15.08983 -1.211228,-1.43104 8.42378,0.67322 -0.02283,-1.32793 h 59.429144 l 1.87902,1.50902 -0.009,26.99141 4.18434,0.0574 0.27862,-19.38325 76.07353,-0.32936 9.56812,-25.0922 h -2.38142 l -1.06565,-0.98009 h -76.05166 l -0.30668,0.37515 -1.53394,-0.0272 -0.36545,0.85909 -3.58529,-0.18624 -0.6761,0.29288 H 55.241742 l -5.744016,-0.31851 -0.138018,-0.7149 -2.720393,0.0409 -0.543348,0.31104 v 0.42499 h -0.361561 v -0.88919 h -67.456562 l -1.156215,0.94717 h -0.469098 l -0.172994,-0.44041 -1.838231,-0.4403 -0.301459,0.83528 h -6.670676 v 0.91509 h -9.097441 l 21.247913,24.75203 h 67.678126 l 5.051716,1.37611 v 34.17169 c 0,11.75696 5.265425,21.09523 10.588644,27.80715 l 2.182415,-0.97857 z"
       id="path1"
       sodipodi:nodetypes="cscccccccccccccccccccccccccccccccccccccccccccccccsccc" /></g></svg>
